<svg width="209" height="95" viewBox="0 0 209 95" fill="none" xmlns="http://www.w3.org/2000/svg">
<path d="M0.01271 84.7663C0.193141 89.4628 3.69033 93.4005 8.32317 94.1328C8.95468 94.2336 9.60741 94.2708 10.2548 94.2443C12.887 94.1434 15.3281 93.0237 17.1165 91.0867C18.9102 89.155 19.8389 86.6343 19.7381 84.034C19.7381 76.9282 23.8031 72.099 29.4177 66.6489C35.2764 62.345 43.5763 57.0913 55.3362 50.548C69.9352 42.7789 79.4237 33.6034 81.5199 26.1473L81.5836 25.9138C81.8437 24.9533 81.9498 23.9875 81.8861 23.0747C81.7057 18.3782 78.2085 14.4405 73.5756 13.7082C72.9441 13.6073 72.2914 13.5702 71.644 13.5967C69.0118 13.6976 66.5707 14.8173 64.7823 16.7543C62.9886 18.686 62.0599 21.2067 62.1607 23.807C62.1607 31.2949 57.6446 36.2568 51.563 42.0784C38.5666 52.2356 26.5627 57.2877 26.5627 57.2877C11.9689 65.0568 2.48037 74.2323 0.384186 81.6884L0.320505 81.9219C0.0604713 82.8824 -0.0456648 83.8482 0.0180168 84.761L0.01271 84.7663Z" fill="#EF3942"/>
<path d="M58.8227 54.82C58.8227 54.82 69.4257 57.6326 66.1142 72.5341C65.9338 73.3195 65.8648 74.1474 65.9391 74.9912C66.3053 79.3905 70.1739 82.6542 74.5733 82.2827C78.9673 81.9112 82.2363 78.0479 81.8648 73.6538C81.1325 63.2843 61.6088 50.5958 58.9554 50.9354C58.9554 50.9354 57.4376 50.9885 57.3899 52.9573C57.3527 54.5122 58.8174 54.8253 58.8174 54.8253L58.8227 54.82Z" fill="#0C9647"/>
<path d="M55.5483 59.7076C55.5483 59.7076 62.4843 61.549 60.3138 71.287C60.3138 71.287 58.0266 80.4678 43.3586 82.8824C26.7324 85.6207 26.9977 79.5338 26.9977 79.5338C26.865 76.5036 25.7135 72.8472 42.2176 62.8439C42.2176 62.8439 50.5493 57.7759 55.5483 59.7022V59.7076Z" fill="#FDD700"/>
<path d="M15.4767 14.6263C16.4107 27.8986 35.4038 43.75 46.7656 49.9165C49.8542 51.5935 53.6857 51.2326 54.7789 50.8081C59.9743 48.4412 54.3915 46.4299 54.3915 46.4299C54.3915 46.4299 36.481 41.6803 42.0797 16.5155H42.0744C42.3822 15.1888 42.4936 13.7931 42.3716 12.3656C41.7401 4.93603 35.2074 -0.577744 27.7885 0.048459C20.3643 0.674662 14.8505 7.19673 15.4767 14.6263Z" fill="#2C70B8"/>
<path d="M195.802 87.2605H208.411V32.8392H195.802V87.2605ZM202.08 27.092C205.895 27.092 209 23.9875 209 20.1772C209 16.3669 205.895 13.2571 202.08 13.2571C198.264 13.2571 195.16 16.3616 195.16 20.1772C195.16 23.9928 198.264 27.092 202.08 27.092ZM138.26 66.0651C138.26 59.7819 136.01 53.6844 130.852 50.1182C134.418 46.4618 136.106 41.7706 136.106 36.9891C136.106 26.0147 130.289 16.9188 112.936 16.9188H88.3816V87.2605H113.403C131.881 87.2605 138.26 77.8834 138.26 66.0651ZM101.017 29.3845H113.212C121.093 29.3845 122.404 33.1364 122.404 36.9838C122.404 40.8313 120.811 44.6787 113.96 44.6787H101.012V29.3898L101.017 29.3845ZM101.017 57.1497H113.966C121.751 57.1497 124.659 59.9623 124.659 66.0598C124.659 70.3743 122.786 74.7789 113.78 74.7789H101.022V57.1444L101.017 57.1497ZM169.953 75.9464C161.902 75.9464 155.353 69.0476 155.353 60.5673V60.3922C155.353 51.8641 161.69 45.1882 169.783 45.1882C174.018 45.1882 177.435 46.7855 181.06 50.426L189.71 41.3036C185.48 37.1537 179.441 32.8392 169.868 32.8392C154.865 32.8392 142.66 45.2412 142.66 60.4824V60.6575C142.66 75.8987 154.828 88.3007 169.783 88.3007C177.334 88.3007 183.734 85.6207 189.269 80.1388L180.327 71.4781C177.064 74.5454 173.795 75.9517 169.958 75.9517L169.953 75.9464Z" fill="#231F20"/>
</svg>
