<svg width="117" height="53" viewBox="0 0 117 53" fill="none" xmlns="http://www.w3.org/2000/svg">
<path d="M0.00711518 47.4529C0.108122 50.0821 2.06588 52.2864 4.65938 52.6964C5.0129 52.7528 5.37831 52.7736 5.74075 52.7587C7.21426 52.7023 8.58083 52.0755 9.58199 50.9911C10.5861 49.9098 11.106 48.4986 11.0496 47.0429C11.0496 43.065 13.3252 40.3616 16.4683 37.3106C19.748 34.9013 24.3944 31.9602 30.9777 28.2972C39.1503 23.948 44.4621 18.8115 45.6356 14.6375L45.6712 14.5068C45.8168 13.9691 45.8762 13.4284 45.8405 12.9174C45.7395 10.2883 43.7818 8.08393 41.1883 7.67396C40.8348 7.61752 40.4693 7.59672 40.1069 7.61158C38.6334 7.66802 37.2668 8.29486 36.2657 9.3792C35.2615 10.4606 34.7417 11.8717 34.7981 13.3274C34.7981 17.5192 32.2699 20.2969 28.8654 23.5558C21.5899 29.2419 14.87 32.0701 14.87 32.0701C6.70032 36.4194 1.38853 41.5559 0.215071 45.7298L0.179421 45.8606C0.0338523 46.3983 -0.0255636 46.939 0.010086 47.4499L0.00711518 47.4529Z" fill="white"/>
<path d="M32.9295 30.6887C32.9295 30.6887 38.8651 32.2633 37.0113 40.6052C36.9103 41.0449 36.8717 41.5084 36.9133 41.9807C37.1183 44.4435 39.284 46.2706 41.7468 46.0626C44.2066 45.8546 46.0366 43.6919 45.8286 41.2321C45.4187 35.4271 34.4891 28.324 33.0037 28.5141C33.0037 28.5141 32.1541 28.5438 32.1273 29.646C32.1065 30.5164 32.9265 30.6917 32.9265 30.6917L32.9295 30.6887Z" fill="white"/>
<path d="M31.0965 33.4248C31.0965 33.4248 34.9793 34.4557 33.7643 39.9071C33.7643 39.9071 32.4839 45.0466 24.2726 46.3983C14.9651 47.9312 15.1136 44.5237 15.1136 44.5237C15.0394 42.8274 14.3947 40.7805 23.6339 35.1806C23.6339 35.1806 28.298 32.3435 31.0965 33.4219V33.4248Z" fill="white"/>
<path d="M8.66398 8.18791C9.18684 15.6179 19.8193 24.4916 26.1798 27.9437C27.9088 28.8825 30.0537 28.6805 30.6657 28.4428C33.5741 27.1178 30.4488 25.9919 30.4488 25.9919C30.4488 25.9919 20.4224 23.333 23.5566 9.24551H23.5536C23.7259 8.50281 23.7883 7.72149 23.72 6.92235C23.3664 2.76324 19.7094 -0.323417 15.5562 0.0271363C11.4001 0.37769 8.31342 4.0288 8.66398 8.18791Z" fill="white"/>
<path d="M109.612 48.8492H116.67V18.3837H109.612V48.8492ZM113.126 15.1663C115.262 15.1663 117 13.4284 117 11.2954C117 9.16233 115.262 7.42145 113.126 7.42145C110.99 7.42145 109.252 9.15936 109.252 11.2954C109.252 13.4314 110.99 15.1663 113.126 15.1663ZM77.3993 36.9838C77.3993 33.4664 76.1397 30.053 73.2521 28.0566C75.2485 26.0097 76.1932 23.3835 76.1932 20.7068C76.1932 14.5632 72.9372 9.4713 63.2227 9.4713H49.4768V48.8492H63.4841C73.8284 48.8492 77.3993 43.5998 77.3993 36.9838ZM56.5503 16.4497H63.3772C67.7888 16.4497 68.5226 18.55 68.5226 20.7039C68.5226 22.8577 67.6313 25.0115 63.796 25.0115H56.5473V16.4527L56.5503 16.4497ZM56.5503 31.9929H63.799C68.1572 31.9929 69.7852 33.5674 69.7852 36.9809C69.7852 39.3961 68.7365 41.8619 63.695 41.8619H56.5532V31.9899L56.5503 31.9929ZM95.1409 42.5155C90.6342 42.5155 86.9682 38.6534 86.9682 33.9061V33.8081C86.9682 29.034 90.5154 25.2967 95.0458 25.2967C97.4165 25.2967 99.3297 26.1909 101.359 28.2289L106.201 23.1221C103.833 20.7989 100.453 18.3837 95.0934 18.3837C86.6949 18.3837 79.8621 25.3264 79.8621 33.8586V33.9566C79.8621 42.4887 86.6741 49.4315 95.0458 49.4315C99.2733 49.4315 102.856 47.9312 105.955 44.8624L100.949 40.014C99.1218 41.7312 97.2917 42.5184 95.1439 42.5184L95.1409 42.5155Z" fill="white"/>
</svg>
