<svg width="27" height="24" viewBox="0 0 27 24" fill="none" xmlns="http://www.w3.org/2000/svg">
<path d="M24.5425 2.61648H21.7167V1.88386C21.7167 0.837367 20.8793 0 19.8328 0C18.7863 0 17.949 0.837367 17.949 1.88386V2.61648H8.16332V1.88386C8.16332 0.837367 7.32595 0 6.27946 0C5.23296 0 4.44797 0.889556 4.44797 1.88386V2.61648H1.62217C0.732614 2.61648 0 3.34909 0 4.23865V21.8737C0 22.7633 0.732614 23.4959 1.62217 23.4959H24.5949C25.4844 23.4959 26.217 22.7633 26.217 21.8737L26.2172 8.2157V4.2386C26.1648 3.34905 25.4322 2.61643 24.5427 2.61643L24.5425 2.61648ZM19.1002 1.88386C19.1002 1.46519 19.4665 1.09887 19.8852 1.09887C20.3039 1.09887 20.6702 1.46517 20.6702 1.88386L20.67 4.44797C20.67 4.86665 20.3037 5.23296 19.885 5.23296C19.4663 5.23296 19.1 4.86666 19.1 4.44797L19.1002 1.88386ZM5.49451 1.88386C5.49451 1.46519 5.86081 1.09887 6.2795 1.09887C6.69818 1.09887 7.06449 1.46517 7.06449 1.88386L7.06431 4.44797C7.06431 4.86665 6.69801 5.23296 6.27932 5.23296C5.86064 5.23296 5.49433 4.86666 5.49433 4.44797L5.49451 1.88386ZM1.04636 4.2386C1.04636 3.92468 1.30808 3.71535 1.56961 3.71535H4.3954V4.44797C4.3954 5.49447 5.23277 6.33183 6.27927 6.33183C7.32577 6.33183 8.16313 5.49447 8.16313 4.44797V3.71535H18.0011L18.0013 4.44797C18.0013 5.49447 18.8386 6.33183 19.8851 6.33183C20.9316 6.33183 21.769 5.49447 21.769 4.44797V3.71535H24.5948C24.9087 3.71535 25.118 3.97708 25.118 4.2386V7.69245H1.04645L1.04636 4.2386ZM25.118 21.926C25.118 22.2399 24.8562 22.4492 24.5947 22.4492H1.62203C1.30811 22.4492 1.09878 22.1875 1.09878 21.926V8.79128H25.1181L25.118 21.926Z" fill="white"/>
<path d="M9.10528 17.7398H11.3555V19.9899C11.3555 20.3039 11.6172 20.5132 11.8787 20.5132H14.2859C14.5998 20.5132 14.8091 20.2515 14.8091 19.9899V17.7398H17.0593C17.3732 17.7398 17.5825 17.4781 17.5825 17.2165V14.8094C17.5825 14.4954 17.3208 14.2861 17.0593 14.2861H14.8091V12.0359C14.8091 11.722 14.5474 11.5127 14.2859 11.5127H11.8787C11.5648 11.5127 11.3555 11.7744 11.3555 12.0359V14.2861H9.10528C8.79136 14.2861 8.58203 14.5478 8.58203 14.8094V17.2165C8.58203 17.4781 8.79137 17.7398 9.10528 17.7398ZM9.62853 15.3326H11.8787C12.1926 15.3326 12.402 15.0709 12.402 14.8094V12.5592H13.7102V14.8094C13.7102 15.1233 13.9719 15.3326 14.2334 15.3326H16.4836V16.6409H14.2334C13.9195 16.6409 13.7102 16.9026 13.7102 17.1641V19.4143H12.402V17.1641C12.402 16.8502 12.1402 16.6409 11.8787 16.6409H9.62853V15.3326Z" fill="white"/>
</svg>
