<svg width="78" height="78" viewBox="0 0 78 78" fill="none" xmlns="http://www.w3.org/2000/svg">
<rect width="78" height="78" rx="20" fill="#F5BE0B"/>
<path d="M58.75 37.545V39.5C58.7474 44.0824 57.2636 48.5411 54.5198 52.2113C51.7761 55.8815 47.9195 58.5665 43.5251 59.8657C39.1308 61.165 34.4342 61.009 30.1357 59.4209C25.8373 57.8329 22.1674 54.8979 19.6733 51.0537C17.1792 47.2095 15.9946 42.6621 16.2961 38.0896C16.5976 33.5172 18.3691 29.1646 21.3463 25.6812C24.3236 22.1978 28.3472 19.7701 32.8169 18.7603C37.2866 17.7504 41.9631 18.2124 46.1488 20.0775" stroke="white" stroke-width="3" stroke-linecap="round" stroke-linejoin="round"/>
<path d="M58.75 22.5L37.5 43.7713L31.125 37.3963" stroke="white" stroke-width="3" stroke-linecap="round" stroke-linejoin="round"/>
</svg>
