<svg width="46" height="45" viewBox="0 0 46 45" fill="none" xmlns="http://www.w3.org/2000/svg">
<path d="M40.8902 16.1105C40.5306 13.5313 39.1855 11.1921 37.1379 9.58373C35.7325 8.48942 34.0054 7.88944 32.2242 7.87643C30.443 7.86343 28.7076 8.43805 27.2863 9.51165C26.3642 10.1926 25.6097 11.0748 25.0796 12.0911C24.5496 11.0747 23.7951 10.1926 22.873 9.51165C21.452 8.43746 19.7163 7.86221 17.9351 7.87522C16.1536 7.88822 14.4265 8.48884 13.0214 9.58373C10.9738 11.1921 9.62865 13.5313 9.2691 16.1105C9.19495 16.624 9.15832 17.1419 9.15891 17.6606C9.15861 18.3992 9.23542 19.1361 9.38757 19.8586C9.47532 20.2764 9.88479 20.5438 10.3026 20.456C10.72 20.3683 10.9874 19.9585 10.8996 19.541C10.7741 18.9221 10.7129 18.2919 10.7176 17.6606C10.7179 17.2169 10.7507 16.774 10.8149 16.335C11.12 14.1603 12.2536 12.1877 13.9787 10.829C15.1176 9.94059 16.5176 9.45284 17.962 9.44127C19.4061 9.42975 20.8139 9.89536 21.9666 10.7654C22.8381 11.4009 23.518 12.2638 23.9318 13.2601C23.97 13.3531 23.9954 13.4293 24.0208 13.5056C24.1292 13.8019 24.3549 14.0406 24.6447 14.1656C24.9346 14.2902 25.2628 14.2902 25.5526 14.1656C25.8424 14.0406 26.0681 13.8019 26.1766 13.5056C26.202 13.4335 26.2274 13.3573 26.2655 13.2683C26.6785 12.2709 27.3586 11.4062 28.2307 10.7695C29.3835 9.89948 30.7912 9.43419 32.2353 9.44539C33.6797 9.45691 35.0797 9.94467 36.2187 10.8331C37.9438 12.1918 39.0773 14.1644 39.3825 16.3391C39.4466 16.7781 39.4794 17.2213 39.4797 17.6647C39.4909 19.8134 38.7166 21.8918 37.3029 23.5096H28.1674L27.0365 20.1892C26.9183 19.8781 26.6167 19.6757 26.284 19.6843C25.9514 19.6929 25.6604 19.9106 25.5584 20.2273L23.6735 26.2415L21.9033 16.0767V15.8226L21.882 15.7886V15.7591L21.7296 15.7292V15.6994L21.7083 15.674L21.6788 15.6444H21.6575L21.6194 15.6149H21.5981L21.56 15.5895H20.7639L20.7257 15.6149H20.7003L20.6664 15.6403L20.6409 15.6616L20.6155 15.687L20.5901 15.7165V15.7419L20.5647 15.7759V15.8013L20.5393 15.8394V16.0173L18.5487 23.5013L5.77076 23.501C5.34504 23.501 5 23.846 5 24.2717C5 24.6974 5.34507 25.0428 5.77076 25.0428H19.3239L19.3833 25.0132H19.4046L19.4427 24.992H19.464L19.4979 24.9666L19.536 24.9326L19.5783 24.8859C19.6087 24.849 19.6356 24.8094 19.6586 24.7674V24.6106L20.8995 19.9515L22.5935 29.7821V29.9895L22.6189 30.0317L22.6484 30.0698L22.6779 30.1038V30.1251L22.7075 30.1505L22.7329 30.1718L22.7669 30.1972L22.8136 30.2312H22.9831L23.0848 30.2566H23.449L23.4999 30.2312L23.8473 30.1635L23.8854 30.1422H23.9108L23.9448 30.1168H23.9661L24.0042 30.0873C24.0384 30.0548 24.0695 30.0193 24.0972 29.9812L24.1268 29.9345L24.148 29.8923V29.7992L26.2657 22.9717L26.8164 24.5854C26.8294 24.6206 26.8451 24.6546 26.8628 24.6871C26.8805 24.7181 26.9003 24.7479 26.9222 24.776L26.9898 24.8522L27.0619 24.9116L27.1509 24.9665L27.2483 25.0046L27.35 25.0301H27.4729L35.7697 25.0304C35.346 25.454 34.9563 25.8773 34.5625 26.301L26.4775 34.9109L26.4225 34.9744H26.4222C26.1212 35.3987 25.6379 35.656 25.1179 35.6693H25.0458C24.5264 35.661 24.0417 35.4081 23.737 34.9874L23.6821 34.9239L17.4942 28.3292C17.2029 28.0181 16.7148 28.0022 16.4037 28.2932C16.0927 28.5845 16.0764 29.0729 16.3677 29.384L22.5258 35.9403C23.1199 36.7335 24.0505 37.2036 25.0417 37.211H25.118C26.1091 37.2036 27.0397 36.7336 27.6339 35.9403L35.7061 27.3591C36.3667 26.656 37.0571 25.9573 37.7307 25.2796L38.1245 24.8813V24.8816C39.9876 22.9412 41.0192 20.3502 41.0003 17.6603C41.0009 17.1416 40.9642 16.6237 40.8901 16.1102L40.8902 16.1105Z" fill="#9B9B9B"/>
</svg>
