<svg width="35" height="39" viewBox="0 0 35 39" fill="none" xmlns="http://www.w3.org/2000/svg">
<path d="M17.5 19.75C22.6953 19.75 27 15.5195 27 10.25C27 5.05469 22.6953 0.75 17.5 0.75C12.2305 0.75 8 5.05469 8 10.25C8 15.5195 12.2305 19.75 17.5 19.75ZM17.5 3.125C21.3594 3.125 24.625 6.39062 24.625 10.25C24.625 14.1836 21.3594 17.375 17.5 17.375C13.5664 17.375 10.375 14.1836 10.375 10.25C10.375 6.39062 13.5664 3.125 17.5 3.125ZM24.4023 22.1992C21.8789 22.125 21.1367 23.3125 17.5 23.3125C13.7891 23.3125 13.0469 22.125 10.5234 22.1992C5.17969 22.3477 0.875 26.7266 0.875 32.1445V38.1562C0.875 38.5273 1.09766 38.75 1.46875 38.75H2.65625C2.95312 38.75 3.25 38.5273 3.25 38.1562V32.1445C3.25 28.1367 6.36719 24.7969 10.375 24.5742V30.6602C8.59375 31.1797 7.40625 32.7383 7.40625 34.5938C7.40625 36.8945 9.26172 38.75 11.5625 38.75C13.7891 38.75 15.7188 36.8945 15.7188 34.5938C15.7188 32.7383 14.457 31.1797 12.75 30.6602V24.9453C14.2344 25.4648 15.8672 25.6875 17.5 25.6875C19.0586 25.6875 20.6914 25.4648 22.25 24.9453V30.0664C20.0977 30.5859 18.6875 32.5898 18.6875 34.8164V36.9688C18.6875 37.3398 18.7617 37.6367 18.9844 37.8594L19.8008 38.6016C20.0234 38.8242 20.3945 38.8242 20.6172 38.6016L21.4336 37.7852C21.6562 37.5625 21.6562 37.1914 21.4336 36.8945L20.9883 36.5234V34.5938C20.9883 33.1836 22.3242 32.0703 23.8086 32.293C24.9961 32.4414 25.7383 33.5547 25.7383 34.7422V36.5234L25.3672 36.8945C25.1445 37.1914 25.1445 37.5625 25.3672 37.7852L26.1836 38.6016C26.4062 38.8242 26.7773 38.8242 27 38.6016L27.8164 37.8594C28.0391 37.6367 28.1133 37.3398 28.1133 36.9688V34.5938C28.1133 32.4414 26.6289 30.5859 24.5508 30.0664V24.5742C28.5586 24.8711 31.6758 28.1367 31.6758 32.1445V38.1562C31.6758 38.5273 31.9727 38.75 32.2695 38.75H33.457C33.8281 38.75 34.0508 38.5273 34.0508 38.1562V32.1445C34.125 26.7266 29.8203 22.3477 24.4023 22.1992ZM13.3438 34.5938C13.3438 35.6328 12.5273 36.375 11.5625 36.375C10.5234 36.375 9.78125 35.6328 9.78125 34.5938C9.78125 33.6289 10.5234 32.8125 11.5625 32.8125C12.5273 32.8125 13.3438 33.6289 13.3438 34.5938Z" fill="#302F7B"/>
</svg>
