<svg width="125" height="125" viewBox="0 0 125 125" fill="none" xmlns="http://www.w3.org/2000/svg">
<path d="M114.139 60.7498C109.646 40.4422 102.984 27.4881 92.3052 24.3314C90.237 23.7281 88.0924 23.4271 85.938 23.4378C79.373 23.4378 74.1924 27.3441 62.5005 27.3441C50.8086 27.3441 45.6182 23.4378 39.063 23.4378C36.8187 23.4262 34.5837 23.7269 32.4224 24.3314C21.729 27.4881 15.1226 40.4544 10.5791 60.7498C5.94043 81.4798 6.78027 97.8592 15.8477 101.004C22.1953 103.201 27.8716 98.6576 33.2476 91.9705C39.3511 84.3534 46.8682 82.0096 62.5005 82.0096C78.1328 82.0096 85.3569 84.3534 91.4702 91.9705C96.8413 98.6624 102.728 103.15 108.907 101.043C118.921 97.6224 118.78 81.724 114.139 60.7498Z" stroke="white" stroke-width="8" stroke-miterlimit="10"/>
<path d="M71.2891 59.5703C73.9858 59.5703 76.1719 57.3842 76.1719 54.6875C76.1719 51.9908 73.9858 49.8047 71.2891 49.8047C68.5924 49.8047 66.4062 51.9908 66.4062 54.6875C66.4062 57.3842 68.5924 59.5703 71.2891 59.5703Z" fill="white"/>
<path d="M82.0312 70.3125C81.065 70.3125 80.1205 70.0258 79.3172 69.4887C78.514 68.9517 77.8882 68.1884 77.5189 67.2954C77.1497 66.4025 77.0538 65.4201 77.2432 64.4726C77.4326 63.5251 77.8988 62.6551 78.5829 61.9727C79.267 61.2903 80.1382 60.8262 81.0862 60.6392C82.0341 60.4522 83.0163 60.5506 83.9083 60.9221C84.8003 61.2935 85.562 61.9213 86.0971 62.7258C86.6321 63.5304 86.9165 64.4756 86.914 65.4419C86.9108 66.7348 86.395 67.9736 85.4796 68.8867C84.5642 69.7997 83.3241 70.3125 82.0312 70.3125Z" fill="white"/>
<path d="M82.0312 48.8281C84.728 48.8281 86.9141 46.642 86.9141 43.9453C86.9141 41.2486 84.728 39.0625 82.0312 39.0625C79.3345 39.0625 77.1484 41.2486 77.1484 43.9453C77.1484 46.642 79.3345 48.8281 82.0312 48.8281Z" fill="white"/>
<path d="M92.7734 59.5703C95.4701 59.5703 97.6562 57.3842 97.6562 54.6875C97.6562 51.9908 95.4701 49.8047 92.7734 49.8047C90.0767 49.8047 87.8906 51.9908 87.8906 54.6875C87.8906 57.3842 90.0767 59.5703 92.7734 59.5703Z" fill="white"/>
<path d="M39.0625 42.9688V66.4062M50.7812 54.6875H27.3438" stroke="white" stroke-width="8" stroke-linecap="round" stroke-linejoin="round"/>
</svg>
