<svg width="85" height="85" viewBox="0 0 85 85" fill="none" xmlns="http://www.w3.org/2000/svg">
<path d="M54.1875 74.375C55.0329 74.375 55.8436 74.0392 56.4414 73.4414C57.0392 72.8436 57.375 72.0329 57.375 71.1875C57.375 70.3421 57.0392 69.5314 56.4414 68.9336C55.8436 68.3358 55.0329 68 54.1875 68H27.625C25.3707 68 23.2087 67.1045 21.6146 65.5104C20.0205 63.9163 19.125 61.7543 19.125 59.5V25.5C19.125 23.2457 20.0205 21.0837 21.6146 19.4896C23.2087 17.8955 25.3707 17 27.625 17H54.1875C55.0329 17 55.8436 16.6642 56.4414 16.0664C57.0392 15.4686 57.375 14.6579 57.375 13.8125C57.375 12.9671 57.0392 12.1564 56.4414 11.5586C55.8436 10.9608 55.0329 10.625 54.1875 10.625H27.625C23.6799 10.625 19.8964 12.1922 17.1068 14.9818C14.3172 17.7714 12.75 21.5549 12.75 25.5V59.5C12.75 63.4451 14.3172 67.2286 17.1068 70.0182C19.8964 72.8078 23.6799 74.375 27.625 74.375H54.1875ZM58.3993 26.3457C58.7067 26.0616 59.0672 25.8408 59.46 25.696C59.8529 25.5512 60.2704 25.4852 60.6887 25.5018C61.1071 25.5183 61.5181 25.6172 61.8982 25.7926C62.2783 25.9681 62.6202 26.2167 62.9042 26.5243L75.6543 40.3368C76.1985 40.9257 76.5007 41.6981 76.5007 42.5C76.5007 43.3019 76.1985 44.0743 75.6543 44.6632L62.9042 58.4757C62.33 59.0963 61.5327 59.4632 60.6878 59.4959C59.843 59.5286 59.0198 59.2243 58.3993 58.65C57.7787 58.0757 57.4118 57.2784 57.3791 56.4336C57.3464 55.5887 57.6507 54.7655 58.225 54.145L66.0365 45.6832H32.9375C32.0921 45.6832 31.2814 45.3474 30.6836 44.7497C30.0858 44.1519 29.75 43.3411 29.75 42.4957C29.75 41.6504 30.0858 40.8396 30.6836 40.2418C31.2814 39.6441 32.0921 39.3082 32.9375 39.3082H66.0322L58.2208 30.8465C57.9366 30.539 57.7158 30.1786 57.571 29.7857C57.4262 29.3929 57.3602 28.9754 57.3768 28.557C57.3933 28.1387 57.4922 27.7277 57.6676 27.3475C57.8431 26.9674 58.0917 26.6255 58.3993 26.3415V26.3457Z" fill="#209CD4"/>
</svg>
