<svg width="46" height="46" viewBox="0 0 46 46" fill="none" xmlns="http://www.w3.org/2000/svg">
<path fill-rule="evenodd" clip-rule="evenodd" d="M14.5567 9.00647H14.7159C14.7851 9.00359 14.8544 9.00288 14.9236 9.00432C15.0492 8.99791 15.1751 8.99863 15.3006 9.00647H31.1703C32.0536 9.00647 32.9007 9.35767 33.5253 9.98279C34.1499 10.6079 34.5008 11.4558 34.5008 12.3398C34.5008 13.2239 34.1499 14.0718 33.5253 14.6969C32.9347 15.288 32.145 15.6342 31.314 15.6701V18.004C31.3414 18.0564 31.371 18.1132 31.4028 18.174C32.3372 19.964 35.1199 25.2944 36.3632 27.4044L36.3674 27.4115L36.3716 27.4187C36.8633 28.2718 37.6875 29.7365 37.6875 31.6685C37.6875 33.3361 37.052 35.0022 35.8722 36.1831L35.3634 36.6923H35.1851C34.1255 37.4978 32.7875 38 31.3615 38H15.0135C13.3473 38 11.6827 37.3639 10.5028 36.1831C9.32303 35.0022 8.6875 33.3361 8.6875 31.6685C8.6875 29.7605 9.45329 28.3142 10.0198 27.3909C11.2669 25.2717 14.0398 19.9601 14.9723 18.174C15.004 18.1132 15.0336 18.0564 15.061 18.004V15.6916C14.3215 15.7163 13.5902 15.495 12.9845 15.0561C12.2648 14.5344 11.7815 13.748 11.6411 12.8697C11.5007 11.9914 11.7147 11.0933 12.2359 10.3729C12.7571 9.65249 13.5429 9.16883 14.4204 9.02831L14.5567 9.00647ZM15.061 13.9511C15.1089 13.9477 15.1569 13.9423 15.2047 13.9346H16.7981V18.4319C16.7605 18.5029 16.6672 18.6817 16.53 18.9445C15.6201 20.6877 12.782 26.1256 11.5081 28.2875C10.9982 29.1168 10.4246 30.2332 10.4246 31.6685C10.4246 32.9124 10.9026 34.1244 11.7311 34.9537C12.5597 35.783 13.7707 36.2614 15.0135 36.2614H31.3615C32.5725 36.2614 33.7197 35.7511 34.5483 34.9537H34.6439C35.4724 34.1244 35.9504 32.9124 35.9504 31.6685C35.9504 30.2332 35.3449 29.1168 34.8669 28.2875C33.5931 26.1256 30.755 20.6879 29.845 18.9446C29.7079 18.6818 29.6145 18.5029 29.5769 18.4319V13.9346H31.1703C31.5929 13.9346 31.9982 13.7666 32.297 13.4675C32.5958 13.1684 32.7637 12.7628 32.7637 12.3398C32.7637 11.9169 32.5958 11.5112 32.297 11.2122C31.9982 10.9131 31.5929 10.7451 31.1703 10.7451H15.2366C15.1412 10.7364 15.0452 10.7364 14.9498 10.7451C14.8861 10.7412 14.8222 10.7412 14.7585 10.7451H14.6948C14.2722 10.8127 13.8938 11.0457 13.6428 11.3926C13.3918 11.7395 13.2888 12.172 13.3564 12.595C13.424 13.018 13.6567 13.3967 14.0033 13.6479C14.3107 13.8707 14.6854 13.977 15.061 13.9511ZM19.7936 19.4206C19.7936 19.4206 18.4115 22.1214 16.9214 24.9542C16.6156 25.5356 16.3053 26.1225 16.0014 26.6928H30.3418C30.0379 26.1225 29.7275 25.5356 29.4217 24.9542C27.9316 22.1214 26.5495 19.4206 26.5495 19.4206L26.3583 19.1336V13.9346H19.9848V19.1336L19.7936 19.4206ZM21.7219 15.6732V19.66L21.294 20.3024L21.2492 20.3898C21.1905 20.5042 21.1048 20.6711 20.9964 20.8817C20.7797 21.3031 20.4722 21.8997 20.1088 22.6011C19.7451 23.3031 19.325 24.1111 18.8835 24.9542H27.4596C27.0181 24.1111 26.598 23.3031 26.2343 22.6011C25.8709 21.8997 25.5634 21.3031 25.3467 20.8817C25.2383 20.6711 25.1526 20.5042 25.094 20.3898L25.0491 20.3024L24.6212 19.66V15.6732H21.7219Z" fill="#302F7B"/>
</svg>
