<svg width="1080" height="37" viewBox="0 0 1080 37" fill="none" xmlns="http://www.w3.org/2000/svg">
<path d="M32.1778 20.9333C32.6523 20.9333 33.059 20.6482 33.1945 20.1491L36.3124 12.0221L42.006 35.9752C42.1415 36.5455 42.5482 36.8307 43.0905 36.902C43.5649 36.8307 44.0394 36.4742 44.1072 35.9752L49.6652 6.67552L52.8509 20.0065C52.9864 20.5055 53.4609 20.9333 53.8676 20.9333L1078.9 20.9332C1079.24 20.9332 1079.44 20.6482 1079.44 20.363V19.2223C1079.44 18.8659 1079.24 18.652 1078.9 18.652H54.7488L50.6141 1.25757C50.4786 0.687255 50.0719 0.4021 49.5296 0.4021C49.0552 0.4021 48.5807 0.758543 48.5129 1.25757L42.9549 30.5573L37.6002 8.1013C37.4647 7.60227 37.058 7.24583 36.6513 7.24583C36.109 7.17454 35.7024 7.4597 35.5668 7.95871L31.5 18.652H0.667247C0.396124 18.652 0.125 18.8659 0.125 19.2223L0.125 20.363C0.125 20.6482 0.396123 20.9333 0.667246 20.9333H32.1778Z" fill="#00539B"/>
</svg>
