<svg width="235" height="63" viewBox="0 0 235 63" fill="none" xmlns="http://www.w3.org/2000/svg">
<g clip-path="url(#clip0_1_3554)">
<path d="M18.3961 36.4181L18.39 13.7506V13.2791H17.9153L15.5659 13.2821H15.0942V13.7506L15.0973 39.3752V39.8437H15.569L26.3389 39.8467H26.8076V39.3813V36.8897V36.4181H26.3389H18.3961Z" fill="white"/>
<path d="M47.7936 19.5553H47.3219L45.0639 19.5522H44.5891V20.0207L44.5922 21.7639C43.9531 21.0764 43.2197 20.5136 42.395 20.0755C41.1655 19.4458 39.8052 19.1233 38.3566 19.1233H38.3444C35.5173 19.1233 33.1223 20.1546 31.2446 22.1929C29.37 24.219 28.4175 26.7745 28.4175 29.7832C28.4175 32.792 29.3487 35.2562 31.1898 37.2853C33.0432 39.3175 35.3834 40.3458 38.1466 40.3458C39.653 40.3458 41.0681 40.0142 42.3615 39.351C43.2288 38.9007 43.9774 38.341 44.6013 37.6717L44.6104 39.3723V39.8408H47.3311L47.8028 39.8438V20.0238L47.7997 19.5553H47.7936ZM38.2714 22.3663C39.9391 22.3663 41.3694 23.069 42.6597 24.505C43.9653 25.9592 44.5982 27.6172 44.5982 29.5642C44.5982 31.6481 43.9531 33.446 42.6719 34.9154C41.3877 36.3909 39.93 37.1089 38.2197 37.1089C36.5094 37.1089 34.9421 36.4244 33.667 35.031C32.395 33.6499 31.7498 31.9189 31.7407 29.8836C31.7437 27.7145 32.3797 25.9592 33.6701 24.5111C34.9513 23.069 36.4546 22.3693 38.2714 22.3693V22.3663Z" fill="white"/>
<path d="M70.8824 13.5895L70.7668 13.2761H70.4381L67.6049 13.2852H67.2762L67.1606 13.5986L57.8879 39.211L57.6597 39.8347H58.3322L60.8155 39.8468H61.1472L61.2567 39.5365L64.0048 31.8093H73.9865L76.7406 39.5365L76.8502 39.8468H77.1849L79.6986 39.8377H80.362L80.1368 39.208L70.8763 13.5864L70.8824 13.5895ZM72.8362 28.5633H65.1581L68.9622 17.5839L72.8362 28.5633Z" fill="white"/>
<path d="M90.5779 19.7255V19.2449L90.094 19.2631C89.1324 19.2875 88.2651 19.5278 87.5225 19.9659C87.1239 20.2001 86.7404 20.5196 86.3752 20.9059V19.5552H83.2407V20.0237L83.2499 39.3783V39.8468H86.5457V27.6992C86.5457 26.0321 86.8256 24.8304 87.3825 24.1276C87.9212 23.4462 88.8615 23.0355 90.1701 22.9047L90.5962 22.8651V22.4362L90.5779 19.7286V19.7255Z" fill="white"/>
<path d="M111.741 19.5522H108.551V21.7578C107.912 21.0734 107.179 20.5136 106.345 20.0785C105.116 19.4458 103.755 19.1233 102.301 19.1233C99.4673 19.1233 97.0784 20.1546 95.1916 22.1929C93.317 24.2251 92.3675 26.7805 92.3736 29.7832C92.3705 32.7372 93.3017 35.2562 95.1429 37.2823C96.984 39.3175 99.3303 40.3458 102.115 40.3458C103.612 40.3458 105.018 40.0142 106.308 39.351C107.179 38.9038 107.927 38.341 108.557 37.6686V39.8438H111.756V39.3753L111.744 20.0238V19.5522H111.741ZM102.167 37.334V37.0997C100.386 37.0997 98.8982 36.4183 97.617 35.025C96.3297 33.6195 95.7028 31.9401 95.7028 29.8806C95.7028 27.821 96.348 25.9348 97.6231 24.4989C98.886 23.0782 100.435 22.3602 102.224 22.3602C103.892 22.3633 105.329 23.063 106.616 24.4989C107.903 25.9409 108.551 27.6445 108.551 29.5581C108.551 31.6359 107.906 33.44 106.625 34.9094C105.344 36.3787 103.886 37.0997 102.164 37.0997V37.334H102.167Z" fill="white"/>
<path d="M132.091 19.5522H128.828V29.5368C128.831 31.1613 128.774 32.3661 128.658 33.0353C128.548 33.659 128.369 34.2127 128.119 34.6751C127.684 35.4448 127.103 36.038 126.388 36.4548C125.682 36.8594 124.836 37.0632 123.883 37.0632C122.215 37.0632 121.016 36.5734 120.316 35.6151C119.586 34.6051 119.206 32.8102 119.206 30.2882V19.5522H115.971V30.1148C115.98 33.6925 116.592 36.3118 117.803 37.9029C119.035 39.5274 121.065 40.3458 123.819 40.3458C125.113 40.3458 126.235 40.1298 127.158 39.6856C127.757 39.4058 128.317 39.0042 128.834 38.5083V39.8438H131.631L132.1 39.8408V39.3723L132.091 20.0207V19.5522Z" fill="white"/>
<path d="M145.04 22.2963C146.369 22.2963 147.48 22.6036 148.436 23.2303C149.388 23.8509 150.21 24.8457 150.879 26.1812L151.01 26.4368H154.525L154.3 25.8071C153.536 23.6805 152.349 21.9982 150.785 20.8117C149.212 19.6131 147.377 19.0107 145.316 19.0107C142.578 19.0107 140.219 20.0633 138.311 22.1473C136.412 24.216 135.453 26.7714 135.46 29.7437C135.46 32.6551 136.409 35.171 138.284 37.2427C140.167 39.3297 142.514 40.3884 145.246 40.3884C147.389 40.3884 149.27 39.7769 150.849 38.5691C152.413 37.3705 153.576 35.6547 154.309 33.4674L154.51 32.8467H151.309L150.995 32.8498L150.879 33.1357C150.344 34.3983 149.574 35.3718 148.591 36.035C147.605 36.7286 146.449 37.0663 145.155 37.0663C143.354 37.0663 141.89 36.3818 140.66 34.9824C139.44 33.583 138.819 31.8063 138.819 29.7041C138.819 27.602 139.419 25.8314 140.648 24.3985C141.865 22.9839 143.296 22.2933 145.036 22.2933L145.04 22.2963Z" fill="white"/>
<path d="M176.811 19.5522H173.618V21.767C172.979 21.0825 172.24 20.5166 171.415 20.0785C170.198 19.4458 168.843 19.1233 167.392 19.1233H167.361C164.534 19.1233 162.145 20.1546 160.262 22.1959C158.39 24.219 157.438 26.7653 157.438 29.7771C157.438 32.7889 158.366 35.2501 160.207 37.2792C162.051 39.3145 164.394 40.3428 167.176 40.3488C168.682 40.3458 170.088 40.0142 171.375 39.351C172.24 38.9038 172.991 38.341 173.624 37.6626V39.8377H176.823V39.3692L176.811 20.0177V19.5492V19.5522ZM167.294 22.3602C168.956 22.3693 170.395 23.069 171.686 24.5019C172.982 25.9652 173.615 27.6172 173.621 29.5642C173.624 31.6329 172.979 33.4369 171.692 34.9124C170.408 36.3879 168.953 37.1058 167.249 37.1058H167.24C165.453 37.1058 163.962 36.4213 162.687 35.028C161.406 33.6286 160.764 31.9036 160.77 29.8806C160.767 27.7541 161.415 25.9439 162.696 24.505C163.977 23.069 165.481 22.3663 167.298 22.3633L167.294 22.3602Z" fill="white"/>
<path d="M195.916 22.4452C195.274 21.3866 194.382 20.5652 193.268 19.9963C192.185 19.4395 190.922 19.1536 189.519 19.1536C188.247 19.1536 187.103 19.3817 186.114 19.8259C185.459 20.124 184.851 20.5286 184.303 21.0276V20.0176L184.3 19.5491H181.107V20.0176L181.117 39.3721V39.8437H183.837L184.312 39.8406V29.9534C184.309 28.3076 184.364 27.1485 184.47 26.5036C184.58 25.8799 184.762 25.3232 185.024 24.8456C185.432 24.088 186.001 23.4978 186.719 23.0902C187.446 22.6765 188.271 22.4726 189.254 22.4726C190.916 22.4726 192.081 22.9198 192.809 23.8416C193.551 24.7817 193.925 26.3575 193.932 28.5297L193.941 39.3691V39.8376H197.16V39.3691L197.17 29.2537C197.16 27.4223 197.072 26.0016 196.89 25.0372C196.689 24.0515 196.366 23.1784 195.925 22.4452H195.916Z" fill="white"/>
<path d="M219.897 20.0267V19.5552H217.17L216.698 19.5521V21.7638C216.065 21.0763 215.326 20.5135 214.504 20.0815C213.272 19.4426 211.911 19.1262 210.454 19.1262C207.614 19.1262 205.225 20.1575 203.348 22.1989C201.47 24.225 200.521 26.7774 200.521 29.7801C200.521 32.7827 201.452 35.2621 203.293 37.2852C205.143 39.3174 207.486 40.3457 210.253 40.3457C211.753 40.3457 213.168 40.011 214.461 39.3478C215.326 38.9067 216.071 38.3409 216.707 37.6746V39.3783L216.71 39.8468H219.903V39.3783L219.894 20.0298L219.897 20.0267ZM210.377 22.3692C212.027 22.3692 213.497 23.0872 214.76 24.5018C216.065 25.956 216.704 27.614 216.707 29.5641C216.707 31.6389 216.062 33.4398 214.778 34.9123C213.515 36.3665 212.018 37.1027 210.326 37.1057C208.539 37.1057 207.048 36.4212 205.767 35.0279C204.495 33.6376 203.85 31.9096 203.853 29.8835C203.844 27.7539 204.495 25.9438 205.779 24.5018C207.039 23.0872 208.582 22.3692 210.374 22.3692H210.377Z" fill="white"/>
<path d="M147.273 51.3649C147.273 50.9846 147.142 50.6743 146.886 50.437C146.628 50.1997 146.299 50.078 145.9 50.078C144.281 50.078 142.322 51.3862 140.021 53.9964L140.636 53.0746C141.485 51.809 141.908 50.945 141.908 50.4857C141.908 50.1936 141.792 50.0476 141.558 50.0476C140.514 50.0476 139.774 50.3244 139.333 50.8811C139.099 51.1732 138.798 51.6417 138.426 52.2866C138.25 52.6 137.714 53.5066 136.816 55.0064C135.919 56.5062 135.258 57.6288 134.835 58.3711C134.765 58.4928 134.701 58.6023 134.638 58.7118C134.631 58.7149 134.628 58.7179 134.625 58.7209C134.123 59.0434 133.636 59.305 133.162 59.5028C132.69 59.7036 132.087 59.8891 131.354 60.0595C130.624 60.2299 129.893 60.3151 129.166 60.3151C128.439 60.3151 127.921 60.1417 127.617 59.7948C127.309 59.448 127.157 59.0373 127.157 58.5597C127.157 57.9087 127.309 57.2728 127.599 56.6492C128.648 56.9139 129.616 57.0508 130.499 57.0508C131.494 57.0508 132.392 56.8834 133.201 56.5488C134.263 56.1107 135.17 55.3045 135.69 54.3371C136.19 53.4062 136.5 51.9277 135.736 50.8233C135.185 50.0263 133.758 48.9585 130.411 50.7564C129.467 51.2614 128.585 51.949 127.742 52.8342L127.736 52.819C126.893 53.6344 126.202 54.5774 125.666 55.6544C125.322 56.345 125.091 57.0355 124.966 57.7261C124.823 57.8478 124.692 57.9573 124.58 58.0517C124.434 58.1733 124.108 58.3954 123.606 58.7179C123.104 59.0404 122.617 59.302 122.142 59.4997C121.67 59.7005 121.068 59.8861 120.334 60.0565C119.604 60.2268 118.874 60.312 118.146 60.312C117.419 60.312 116.902 60.1386 116.594 59.7918C116.287 59.445 116.135 59.0343 116.135 58.5567C116.135 57.3672 116.622 56.2233 117.599 55.119C118.046 54.6109 118.524 54.1546 119.026 53.7439C119.528 53.3332 120.088 52.9438 120.7 52.5726C121.314 52.2015 121.89 52.0159 122.425 52.0159C122.532 52.0159 122.586 52.0859 122.586 52.2288C122.586 52.3718 122.44 52.6395 122.148 53.0411C121.856 53.4397 121.71 53.7195 121.71 53.8747C121.71 54.471 122.023 54.7661 122.647 54.7661C123.183 54.7661 123.712 54.3979 124.236 53.6617C124.756 52.9255 125.018 52.2927 125.018 51.7695C125.018 51.2462 124.808 50.8294 124.388 50.5252C123.968 50.224 123.496 50.0719 122.97 50.0719C121.877 50.0719 120.773 50.3244 119.656 50.8325C118.539 51.3405 117.559 52.0007 116.716 52.813C115.873 53.6283 115.182 54.5714 114.647 55.6483C114.111 56.7252 113.843 57.8022 113.843 58.8791C113.843 59.9561 114.254 60.8292 115.073 61.4985C115.891 62.1647 116.81 62.4994 117.83 62.4994C118.849 62.4994 120.085 62.2317 121.54 61.6962C122.27 61.4316 122.958 61.1243 123.603 60.7683C124.129 60.4763 124.58 60.1325 124.966 59.737C125.131 60.4307 125.505 61.0178 126.095 61.4985C126.914 62.1647 127.833 62.4994 128.852 62.4994C129.872 62.4994 131.107 62.2317 132.562 61.6962C132.839 61.5958 133.104 61.4833 133.369 61.3707C133.387 61.4255 133.414 61.4741 133.454 61.5046C133.527 61.5624 133.737 61.6567 134.084 61.7905C134.431 61.9213 134.708 61.9883 134.918 61.9883C135.127 61.9883 135.383 61.7784 135.684 61.3585C136.728 59.9561 137.696 58.7635 138.588 57.7839C139.479 56.8043 140.563 55.6939 141.835 54.4558C143.107 53.2176 143.904 52.5848 144.227 52.5544L144.257 52.5848C143.536 53.4336 143.174 54.1941 143.174 54.8665C143.174 55.1676 143.259 55.4323 143.429 55.6574C143.6 55.8825 143.84 55.9951 144.145 55.9951C144.449 55.9951 144.726 55.84 144.972 55.5266C145.432 54.9121 145.931 54.1607 146.473 53.2662C147.014 52.3749 147.285 51.7391 147.285 51.3588L147.273 51.3649ZM131.436 52.6761C132.909 51.8851 133.788 51.8425 133.944 52.0646C134.078 52.2593 134.041 52.8069 133.77 53.3088C133.49 53.8321 132.967 54.2915 132.37 54.5379C131.457 54.9121 130.334 54.976 128.956 54.7265C129.75 53.823 130.581 53.1324 131.433 52.6761H131.436ZM170.094 57.7991C170.054 57.5162 169.942 57.3763 169.756 57.3763C169.641 57.3763 169.552 57.4006 169.491 57.4493C169.434 57.498 169.254 57.6896 168.959 58.0182C168.661 58.3498 168.356 58.6753 168.046 58.9917C167.732 59.3081 167.376 59.6062 166.978 59.8831C166.579 60.1599 166.232 60.2999 165.94 60.2999C165.648 60.2999 165.502 60.0321 165.502 59.4967C165.502 59.3203 165.517 59.1834 165.544 59.086C165.69 58.295 166.016 57.3428 166.518 56.2263C167.02 55.1098 167.48 54.1941 167.894 53.4762C168.308 52.7582 168.578 52.3384 168.706 52.2106C168.834 52.0828 168.895 51.8851 168.895 51.6113C168.895 51.1032 168.524 50.8507 167.784 50.8507C167.462 50.8507 167.221 50.8964 167.06 50.9907C166.899 51.0819 166.701 51.304 166.467 51.6569C166.378 51.3922 166.168 51.1732 165.837 50.9998C165.505 50.8233 165.076 50.7351 164.549 50.7351C163.183 50.7351 161.692 51.3679 160.073 52.6365C159.303 53.2419 158.594 53.9112 157.952 54.6474C157.306 55.3836 156.789 56.1989 156.393 57.0903C156.232 57.4554 156.113 57.8174 156.016 58.1794C155.84 58.3072 155.572 58.4867 155.207 58.7209C154.704 59.0434 154.218 59.305 153.743 59.5028C153.271 59.7036 152.669 59.8891 151.935 60.0595C151.205 60.2299 150.474 60.3151 149.747 60.3151C149.02 60.3151 148.502 60.1417 148.195 59.7948C147.888 59.448 147.736 59.0373 147.736 58.5597C147.736 57.3702 148.222 56.2263 149.199 55.122C149.647 54.6139 150.124 54.1576 150.627 53.7469C151.129 53.3362 151.686 52.9468 152.3 52.5757C152.915 52.2045 153.49 52.0189 154.026 52.0189C154.132 52.0189 154.187 52.0889 154.187 52.2319C154.187 52.3749 154.041 52.6426 153.749 53.0442C153.457 53.4427 153.311 53.7226 153.311 53.8777C153.311 54.474 153.624 54.7691 154.248 54.7691C154.784 54.7691 155.313 54.401 155.837 53.6648C156.357 52.9286 156.619 52.2958 156.619 51.7725C156.619 51.2493 156.409 50.8325 155.989 50.5282C155.569 50.2271 155.097 50.075 154.571 50.075C153.478 50.075 152.373 50.3275 151.257 50.8355C150.14 51.3436 149.16 52.0037 148.317 52.816C147.474 53.6313 146.783 54.5744 146.247 55.6513C145.712 56.7283 145.444 57.8052 145.444 58.8822C145.444 59.9591 145.855 60.8322 146.673 61.5015C147.492 62.1678 148.411 62.5024 149.431 62.5024C150.45 62.5024 151.686 62.2347 153.14 61.6993C153.871 61.4346 154.558 61.1273 155.204 60.7714C155.435 60.6436 155.648 60.5037 155.852 60.3546C155.949 60.9539 156.202 61.4407 156.61 61.8179C157.03 62.2164 157.571 62.4172 158.235 62.4172C158.898 62.4172 159.753 62.0522 160.803 61.322C161.85 60.5919 162.781 59.6975 163.591 58.6449C163.396 59.083 163.299 59.5941 163.299 60.1721C163.299 60.7501 163.484 61.2825 163.855 61.7601C164.227 62.2377 164.805 62.4781 165.59 62.4781C166.375 62.4781 167.249 62.0887 168.207 61.3068C169.169 60.528 169.79 59.8587 170.073 59.302C170.131 59.1864 170.161 58.9765 170.161 58.6723C170.161 58.368 170.143 58.079 170.103 57.7961L170.094 57.7991ZM163.174 56.059C162.763 56.567 161.935 57.358 160.687 58.435C159.44 59.5119 158.679 60.0504 158.405 60.0504C158.21 60.0504 158.113 59.88 158.113 59.5393C158.113 59.1986 158.378 58.5658 158.91 57.6379C159.443 56.7131 160.024 55.916 160.657 55.2528C162.44 53.4001 164.169 52.4753 165.837 52.4753C164.51 54.2976 163.621 55.4931 163.174 56.059Z" fill="#F29512"/>
<path d="M96.1015 48.9097C96.3876 48.9097 97.1332 48.572 98.3322 47.8997C99.5312 47.2273 100.262 46.7649 100.526 46.5094C101.345 45.974 101.756 45.3047 101.756 44.5046C101.756 44.2034 101.665 43.884 101.485 43.5463C101.305 43.2086 101.117 43.0413 100.922 43.0413C100.727 43.0413 100.596 43.1295 100.526 43.3029C100.469 43.4793 100.365 43.6345 100.219 43.7714C100.073 43.9083 99.8082 44.1091 99.4278 44.3798C99.0474 44.6476 98.6031 44.9852 98.0979 45.3959C97.5897 45.8066 97.124 46.2417 96.701 46.7041C96.278 47.1665 95.9585 47.6806 95.7424 48.2465C95.6937 48.3438 95.6694 48.4382 95.6694 48.5233C95.6694 48.7758 95.8124 48.9036 96.1015 48.9036V48.9097ZM109.23 49.4786C108.128 49.4786 106.768 49.8163 105.149 50.4886C104.33 50.8293 103.563 51.2248 102.851 51.672C102.139 52.1192 101.546 52.6577 101.074 53.2874C100.602 53.9172 100.365 54.55 100.365 55.1888C100.365 55.8277 100.593 56.3084 101.053 56.6278C101.266 56.783 101.476 56.9046 101.683 56.9929C101.887 57.0811 102.167 57.1754 102.517 57.2788C102.867 57.3823 103.43 57.5222 104.206 57.7017C104.982 57.8812 105.532 58.0333 105.858 58.155C106.184 58.2767 106.348 58.4197 106.348 58.587C106.348 58.9368 105.898 59.2897 104.994 59.6396C104.093 59.9894 103.055 60.1659 101.887 60.1659C101.731 60.1659 101.561 60.0777 101.375 59.9012C101.19 59.7248 101.098 59.5149 101.098 59.2715L101.114 59.0372C101.114 58.8973 101.016 58.8091 100.834 58.7634C100.834 58.733 100.834 58.7026 100.834 58.6691C100.834 58.3679 100.815 58.0759 100.776 57.793C100.736 57.51 100.624 57.3701 100.438 57.3701C100.322 57.3701 100.234 57.3944 100.176 57.4431C100.119 57.4918 99.939 57.6834 99.6438 58.012C99.3456 58.3436 99.0413 58.6691 98.7309 58.9855C98.4174 59.3019 98.0614 59.6 97.6627 59.8769C97.264 60.1537 96.9171 60.2937 96.625 60.2937C96.3328 60.2937 96.1867 60.026 96.1867 59.4905C96.1867 59.3141 96.202 59.1772 96.2293 59.0798C96.3754 58.2888 96.701 57.3366 97.2032 56.2201C97.7053 55.1036 98.1648 54.1879 98.5787 53.47C98.9926 52.752 99.2634 52.3322 99.3912 52.2044C99.5191 52.0766 99.5799 51.8789 99.5799 51.6051C99.5799 51.0971 99.2086 50.8445 98.4691 50.8445C98.1466 50.8445 97.9062 50.8902 97.7449 50.9845C97.5836 51.0758 97.3858 51.2978 97.1514 51.6507C97.0632 51.3861 96.8532 51.167 96.5215 50.9936C96.1898 50.8172 95.7607 50.7289 95.2342 50.7289C93.8678 50.7289 92.3766 51.3617 90.7576 52.6303C89.9877 53.2357 89.2786 53.905 88.6365 54.6412C87.9944 55.3774 87.474 56.1928 87.0784 57.0841C86.8745 57.5435 86.7254 58.0029 86.628 58.4623C86.4667 58.6144 86.3054 58.7634 86.135 58.9186C85.8033 59.2198 85.4259 59.5149 84.9999 59.7947C84.5769 60.0777 84.2452 60.2298 84.0139 60.248C83.7796 60.2663 83.5787 60.2359 83.4144 60.1537C83.247 60.0716 83.1648 59.8039 83.1648 59.3567C83.1648 59.0342 83.5574 58.2523 84.3425 57.0081C85.1277 55.7638 85.9159 54.5287 86.7041 53.2935C87.4953 52.0614 87.8879 51.2796 87.8879 50.9541C87.8879 50.6285 87.7601 50.3487 87.5075 50.1144C87.2549 49.8802 86.9415 49.7646 86.5702 49.7646C85.4868 49.7646 84.4186 50.0962 83.3657 50.7594C82.9275 51.0423 82.4527 51.4104 81.9475 51.8637C81.4393 52.317 81.0194 52.7246 80.6816 53.0836C80.3438 53.4456 79.9329 53.8928 79.446 54.4283C78.9591 54.9637 78.5787 55.3683 78.3048 55.6421C78.3231 55.6117 78.4478 55.4626 78.6791 55.1888C78.9074 54.915 79.0595 54.7295 79.1326 54.6321C79.2056 54.5348 79.3395 54.3553 79.5343 54.0997C79.729 53.8411 79.869 53.6312 79.9512 53.47C80.0334 53.3087 80.1338 53.114 80.2525 52.8859C80.3681 52.6577 80.4503 52.4387 80.4929 52.2288C80.5355 52.0188 80.5598 51.7572 80.5598 51.4378C80.5598 51.1183 80.429 50.8232 80.1734 50.5464C79.9147 50.2696 79.5434 50.1296 79.0626 50.1296C78.5817 50.1296 77.7996 50.4673 76.7223 51.1457C75.645 51.8241 74.4369 52.8554 73.1009 54.2397C73.1587 54.1606 73.4022 53.8594 73.8313 53.3331C74.2604 52.8068 74.6317 52.3383 74.9421 51.9306C75.2555 51.5199 75.4503 51.2248 75.5264 51.0453C75.6055 50.8658 75.642 50.7198 75.642 50.6133C75.642 50.2331 75.5203 50.0414 75.2768 50.0414C74.866 50.0414 74.446 50.1114 74.0108 50.2544C73.5757 50.3973 73.2622 50.6042 73.0674 50.875C71.2933 53.3818 69.4551 56.7252 67.5531 60.9082C67.474 61.1607 67.4375 61.3402 67.4375 61.4406C67.4375 61.541 67.4679 61.614 67.5258 61.6535C67.5836 61.6931 67.6688 61.757 67.7814 61.8422C67.894 61.9304 67.9974 61.9882 68.0948 62.0186H68.3565L69.0747 62.049C69.163 62.049 69.3334 61.903 69.586 61.6109C69.8386 61.3189 70.009 61.1029 70.0973 60.969C71.4515 58.6387 73.3626 56.2932 75.8307 53.9354C76.7284 53.0775 77.3188 52.6486 77.6079 52.6486C77.897 52.6486 78.0401 52.7672 78.0401 53.0076C78.0401 53.2479 77.264 54.6838 75.715 57.3214C74.166 59.959 73.39 61.325 73.39 61.4223C73.39 61.617 73.5604 61.7752 73.9013 61.8969C74.2421 62.0186 74.5708 62.0794 74.8873 62.0794C75.2038 62.0794 75.4351 61.9821 75.5811 61.7874C76.8593 60.1203 77.6688 59.0829 78.0096 58.6722C79.306 57.1237 80.8489 55.5143 82.6323 53.8472C83.6761 52.8737 84.3486 52.3839 84.6499 52.3839C84.729 52.3839 84.7656 52.4082 84.7656 52.4569C84.7656 52.5056 84.5525 52.8189 84.1295 53.4C83.7065 53.9811 83.2409 54.6321 82.7327 55.3531C82.2245 56.0741 81.7589 56.8803 81.3359 57.7656C80.9128 58.6539 80.6998 59.4084 80.6998 60.032C80.6998 60.6557 80.8915 61.1942 81.278 61.6475C81.6645 62.1007 82.3584 62.3776 83.3626 62.4749C83.4113 62.4841 83.4905 62.4901 83.597 62.4901C84.4856 62.4901 85.4107 62.0947 86.3754 61.3067C86.4941 61.2094 86.6097 61.112 86.7193 61.0177C86.8532 61.325 87.0388 61.5927 87.2823 61.8178C87.7023 62.2163 88.2439 62.4171 88.9074 62.4171C89.5708 62.4171 90.4259 62.0521 91.4758 61.3219C92.5227 60.5918 93.4539 59.6974 94.2634 58.6448C94.0687 59.0829 93.9713 59.594 93.9713 60.172C93.9713 60.75 94.1569 61.2824 94.5282 61.76C94.8995 62.2376 95.4777 62.478 96.2628 62.478C97.048 62.478 97.9214 62.0886 98.88 61.3067C99.0017 61.2063 99.1204 61.109 99.23 61.0147C99.306 61.3737 99.513 61.6931 99.8599 61.973C100.304 62.3289 101.108 62.5054 102.273 62.5054C103.439 62.5054 104.805 62.119 106.375 61.3493C107.106 60.9995 107.721 60.5462 108.22 59.9894C108.716 59.4327 108.965 58.8456 108.965 58.2189C108.965 57.9177 108.843 57.58 108.6 57.2089C108.357 56.8377 107.918 56.5061 107.282 56.2141C106.649 55.922 105.322 55.5752 103.305 55.1767C102.857 55.0884 102.632 54.9759 102.632 54.8329C102.632 54.6899 102.797 54.4709 103.128 54.1666C103.46 53.8655 103.877 53.5491 104.379 53.2175C104.881 52.8859 105.484 52.5877 106.187 52.317C106.89 52.0493 107.562 51.9002 108.204 51.8698C108.165 52.0067 108.098 52.1344 108 52.2561C107.903 52.3778 107.854 52.4965 107.854 52.6151C107.854 52.7338 107.891 52.8037 107.964 52.8342C108.037 52.8646 108.098 52.9102 108.147 52.9741C108.195 53.038 108.256 53.0897 108.329 53.1292C108.402 53.1688 108.579 53.1871 108.856 53.1871C109.133 53.1871 109.51 53.0714 109.982 52.8372C110.453 52.6029 110.8 52.3383 111.019 52.0462C111.238 51.7542 111.348 51.3496 111.348 50.8324V50.7289C111.348 50.5251 111.308 50.3395 111.232 50.1722C110.98 49.7037 110.31 49.4695 109.227 49.4695L109.23 49.4786ZM93.8556 56.0589C93.4448 56.567 92.617 57.3579 91.3693 58.4349C90.1216 59.5118 89.3608 60.0503 89.0869 60.0503C88.8922 60.0503 88.7948 59.8799 88.7948 59.5392C88.7948 59.1985 89.0595 58.5657 89.5921 57.6378C90.1247 56.713 90.7059 55.9159 91.3389 55.2527C93.1222 53.4 94.8508 52.4752 96.5184 52.4752C95.1916 54.2975 94.306 55.4931 93.8556 56.0589Z" fill="#F29512"/>
<path d="M60.6482 54.8755H7.86366C3.52708 54.8755 0 51.3496 0 47.0144V7.86109C0 3.52593 3.52708 0 7.86366 0H227.136C231.473 0 235 3.52593 235 7.86109V46.406C235 50.7411 231.473 54.2671 227.136 54.2671H176.607C175.767 54.2671 175.085 53.5856 175.085 52.7459C175.085 51.9063 175.767 51.2248 176.607 51.2248H227.136C229.793 51.2248 231.957 49.0618 231.957 46.406V7.86109C231.957 5.20523 229.793 3.04222 227.136 3.04222H7.86366C5.20694 3.04222 3.04321 5.20523 3.04321 7.86109V47.0144C3.04321 49.6703 5.20694 51.8333 7.86366 51.8333H60.6482C61.4881 51.8333 62.1698 52.5147 62.1698 53.3544C62.1698 54.194 61.4881 54.8755 60.6482 54.8755Z" fill="white"/>
</g>
<defs>
<clipPath id="clip0_1_3554">
<rect width="235" height="62.5084" fill="white"/>
</clipPath>
</defs>
</svg>
