<svg width="306" height="81" viewBox="0 0 306 81" fill="none" xmlns="http://www.w3.org/2000/svg">
<g clip-path="url(#clip0_1_3421)">
<path d="M24.4084 47.4518L24.4005 18.2979V17.6914H23.7841L20.734 17.6953H20.1216V18.2979L20.1255 51.255V51.8575H20.7379L34.7205 51.8615H35.3289V51.2628V48.0583V47.4518H34.7205H24.4084Z" fill="#005193"/>
<path d="M62.5749 25.7631H61.9625L59.0308 25.7592H58.4145V26.3618L58.4184 28.6038C57.5887 27.7195 56.6365 26.9956 55.5658 26.4322C53.9696 25.6223 52.2035 25.2075 50.3229 25.2075H50.3071C46.6366 25.2075 43.5272 26.5339 41.0894 29.1555C38.6556 31.7614 37.4189 35.0481 37.4189 38.9178C37.4189 42.7875 38.6279 45.9568 41.0183 48.5666C43.4244 51.1804 46.4628 52.5029 50.0503 52.5029C52.006 52.5029 53.8432 52.0764 55.5224 51.2234C56.6484 50.6443 57.6203 49.9244 58.4303 49.0636L58.4421 51.2508V51.8534H61.9743L62.5867 51.8573V26.3657L62.5828 25.7631H62.5749ZM50.2122 29.3785C52.3774 29.3785 54.2343 30.2824 55.9096 32.1292C57.6045 33.9995 58.4263 36.1319 58.4263 38.6361C58.4263 41.3163 57.5887 43.6287 55.9254 45.5186C54.2581 47.4163 52.3655 48.3397 50.1451 48.3397C47.9246 48.3397 45.8899 47.4593 44.2344 45.6673C42.5829 43.8909 41.7453 41.6645 41.7334 39.0469C41.7374 36.2571 42.5631 33.9995 44.2383 32.137C45.9017 30.2824 47.8535 29.3824 50.2122 29.3824V29.3785Z" fill="#005193"/>
<path d="M92.5508 18.0903L92.4007 17.6873H91.974L88.2956 17.699H87.8689L87.7188 18.102L75.6801 51.0435L75.3838 51.8456H76.257L79.481 51.8612H79.9116L80.0539 51.4621L83.6216 41.5237H96.5808L100.156 51.4621L100.299 51.8612H100.733L103.997 51.8495H104.858L104.566 51.0395L92.5429 18.0864L92.5508 18.0903ZM95.0874 37.3488H85.119L90.0578 23.2277L95.0874 37.3488Z" fill="#005193"/>
<path d="M118.122 25.9822V25.364L117.494 25.3875C116.245 25.4188 115.119 25.7279 114.155 26.2913C113.638 26.5926 113.14 27.0035 112.666 27.5004V25.7631H108.596V26.3657L108.608 51.2586V51.8612H112.887V36.2375C112.887 34.0934 113.25 32.5478 113.973 31.644C114.673 30.7675 115.894 30.2393 117.593 30.0711L118.146 30.0202V29.4685L118.122 25.9861V25.9822Z" fill="#005193"/>
<path d="M145.597 25.7592H141.457V28.596C140.627 27.7156 139.675 26.9956 138.592 26.4361C136.996 25.6223 135.23 25.2075 133.341 25.2075C129.663 25.2075 126.561 26.5339 124.112 29.1555C121.678 31.7692 120.445 35.0559 120.453 38.9178C120.449 42.7171 121.658 45.9568 124.049 48.5627C126.439 51.1804 129.485 52.5029 133.1 52.5029C135.044 52.5029 136.87 52.0764 138.545 51.2234C139.675 50.6482 140.647 49.9244 141.465 49.0596V51.8573H145.617V51.2547L145.601 26.3657V25.7592H145.597ZM133.167 48.6292V48.328C130.856 48.328 128.924 47.4515 127.261 45.6595C125.589 43.8518 124.776 41.6919 124.776 39.043C124.776 36.3941 125.613 33.9682 127.269 32.1213C128.908 30.2941 130.919 29.3707 133.243 29.3707C135.408 29.3746 137.273 30.2745 138.944 32.1213C140.615 33.976 141.457 36.1671 141.457 38.6283C141.457 41.3007 140.619 43.6209 138.956 45.5108C137.292 47.4006 135.4 48.328 133.163 48.328V48.6292H133.167Z" fill="#005193"/>
<path d="M172.017 25.7593H167.782V38.6009C167.786 40.6903 167.711 42.2398 167.561 43.1006C167.418 43.9027 167.185 44.6148 166.861 45.2096C166.296 46.1995 165.542 46.9625 164.613 47.4985C163.696 48.0189 162.598 48.2811 161.361 48.2811C159.196 48.2811 157.64 47.6511 156.731 46.4186C155.783 45.1196 155.289 42.811 155.289 39.5674V25.7593H151.089V39.3443C151.101 43.9457 151.895 47.3146 153.467 49.361C155.068 51.4504 157.703 52.5029 161.278 52.5029C162.958 52.5029 164.416 52.2251 165.613 51.6539C166.391 51.2939 167.118 50.7774 167.79 50.1396V51.8573H171.421L172.029 51.8534V51.2508L172.017 26.3618V25.7593Z" fill="#005193"/>
<path d="M188.829 29.2885C190.555 29.2885 191.998 29.6837 193.238 30.4897C194.475 31.2879 195.542 32.5674 196.411 34.2851L196.581 34.6138H201.144L200.852 33.8038C199.86 31.0688 198.319 28.9051 196.288 27.3791C194.246 25.8375 191.863 25.0627 189.188 25.0627C185.633 25.0627 182.57 26.4166 180.093 29.0968C177.628 31.7575 176.383 35.0442 176.391 38.8669C176.391 42.6114 177.624 45.8473 180.058 48.5119C182.503 51.196 185.55 52.5576 189.098 52.5576C191.879 52.5576 194.321 51.7712 196.371 50.2178C198.402 48.6762 199.911 46.4694 200.864 43.6561L201.124 42.8579H196.968L196.561 42.8618L196.411 43.2296C195.715 44.8534 194.716 46.1055 193.44 46.9585C192.16 47.8506 190.658 48.2849 188.979 48.2849C186.64 48.2849 184.74 47.4045 183.143 45.6047C181.559 43.8048 180.753 41.5198 180.753 38.8161C180.753 36.1124 181.531 33.8351 183.128 31.9922C184.708 30.1728 186.565 29.2846 188.825 29.2846L188.829 29.2885Z" fill="#005193"/>
<path d="M230.077 25.7592H225.932V28.6077C225.102 27.7273 224.142 26.9996 223.072 26.4361C221.491 25.6223 219.733 25.2075 217.848 25.2075H217.809C214.139 25.2075 211.037 26.5339 208.591 29.1594C206.161 31.7614 204.925 35.0363 204.925 38.91C204.925 42.7836 206.13 45.949 208.52 48.5588C210.914 51.1764 213.957 52.499 217.568 52.5068C219.524 52.5029 221.349 52.0764 223.02 51.2234C224.142 50.6482 225.118 49.9244 225.94 49.0518V51.8494H230.093V51.2469L230.077 26.3579V25.7553V25.7592ZM217.722 29.3707C219.879 29.3824 221.748 30.2824 223.423 32.1253C225.106 34.0073 225.928 36.1319 225.936 38.6361C225.94 41.2968 225.102 43.617 223.431 45.5147C221.764 47.4124 219.875 48.3358 217.663 48.3358H217.651C215.332 48.3358 213.396 47.4554 211.74 45.6634C210.077 43.8635 209.243 41.645 209.251 39.043C209.247 36.308 210.089 33.9799 211.752 32.1292C213.415 30.2824 215.367 29.3785 217.726 29.3746L217.722 29.3707Z" fill="#005193"/>
<path d="M254.881 29.4802C254.048 28.1185 252.89 27.0621 251.444 26.3304C250.037 25.6144 248.398 25.2466 246.576 25.2466C244.925 25.2466 243.439 25.54 242.155 26.1113C241.306 26.4947 240.515 27.0151 239.804 27.6568V26.3578L239.8 25.7552H235.656V26.3578L235.668 51.2507V51.8572H239.2L239.816 51.8533V39.1368C239.812 37.02 239.883 35.5293 240.022 34.6998C240.164 33.8977 240.401 33.1816 240.741 32.5673C241.27 31.5931 242.009 30.834 242.941 30.3097C243.886 29.7775 244.956 29.5154 246.233 29.5154C248.39 29.5154 249.903 30.0906 250.847 31.2761C251.811 32.4852 252.297 34.512 252.305 37.3057L252.317 51.2468V51.8494H256.497V51.2468L256.509 38.2369C256.497 35.8814 256.383 34.0542 256.146 32.8138C255.885 31.5461 255.466 30.4232 254.893 29.4802H254.881Z" fill="#005193"/>
<path d="M286.015 26.3696V25.7631H282.475L281.863 25.7592V28.6038C281.041 27.7195 280.081 26.9956 279.014 26.44C277.414 25.6184 275.648 25.2114 273.755 25.2114C270.069 25.2114 266.968 26.5378 264.53 29.1633C262.092 31.7692 260.859 35.052 260.859 38.9139C260.859 42.7758 262.068 45.9647 264.459 48.5666C266.861 51.1803 269.903 52.5029 273.495 52.5029C275.442 52.5029 277.28 52.0725 278.959 51.2195C280.081 50.6521 281.049 49.9244 281.875 49.0675V51.2586L281.879 51.8612H286.023V51.2586L286.011 26.3735L286.015 26.3696ZM273.657 29.3824C275.798 29.3824 277.706 30.3058 279.346 32.1253C281.041 33.9956 281.871 36.128 281.875 38.6361C281.875 41.3046 281.037 43.6209 279.37 45.5147C277.73 47.385 275.786 48.3319 273.589 48.3358C271.27 48.3358 269.334 47.4554 267.671 45.6634C266.019 43.8752 265.182 41.6528 265.186 39.0469C265.174 36.308 266.019 33.9799 267.687 32.1253C269.322 30.3058 271.326 29.3824 273.653 29.3824H273.657Z" fill="#005193"/>
<path d="M191.729 66.6749C191.729 66.1858 191.559 65.7867 191.227 65.4815C190.891 65.1763 190.464 65.0198 189.947 65.0198C187.845 65.0198 185.3 66.7023 182.314 70.0594L183.112 68.8739C184.214 67.2462 184.763 66.135 184.763 65.5441C184.763 65.1685 184.613 64.9807 184.309 64.9807C182.954 64.9807 181.994 65.3368 181.421 66.0528C181.116 66.4284 180.725 67.031 180.243 67.8605C180.014 68.2635 179.319 69.4295 178.153 71.3585C176.988 73.2875 176.13 74.7313 175.581 75.686C175.49 75.8425 175.407 75.9833 175.324 76.1242C175.316 76.1281 175.312 76.132 175.308 76.1359C174.657 76.5507 174.024 76.8872 173.408 77.1415C172.796 77.3998 172.013 77.6384 171.061 77.8576C170.113 78.0767 169.165 78.1862 168.22 78.1862C167.276 78.1862 166.604 77.9632 166.209 77.5171C165.81 77.0711 165.613 76.5429 165.613 75.9286C165.613 75.0912 165.81 74.2735 166.186 73.4714C167.549 73.8118 168.805 73.9878 169.951 73.9878C171.243 73.9878 172.408 73.7726 173.459 73.3422C174.838 72.7788 176.016 71.7419 176.691 70.4977C177.339 69.3004 177.742 67.3988 176.751 65.9784C176.035 64.9533 174.182 63.5799 169.836 65.8924C168.612 66.5419 167.466 67.4262 166.371 68.5648L166.363 68.5452C165.269 69.5938 164.372 70.8068 163.677 72.1919C163.23 73.0801 162.93 73.9683 162.768 74.8565C162.582 75.013 162.412 75.1538 162.266 75.2751C162.077 75.4317 161.654 75.7173 161.002 76.132C160.35 76.5468 159.718 76.8833 159.101 77.1376C158.489 77.3959 157.707 77.6345 156.755 77.8536C155.806 78.0728 154.858 78.1823 153.914 78.1823C152.97 78.1823 152.298 77.9593 151.899 77.5132C151.5 77.0672 151.302 76.539 151.302 75.9247C151.302 74.3948 151.934 72.9236 153.203 71.5032C153.783 70.8498 154.404 70.2629 155.056 69.7347C155.708 69.2065 156.435 68.7056 157.229 68.2283C158.027 67.7509 158.774 67.5122 159.469 67.5122C159.607 67.5122 159.678 67.6022 159.678 67.7861C159.678 67.97 159.489 68.3144 159.109 68.8308C158.73 69.3434 158.54 69.7034 158.54 69.9029C158.54 70.6698 158.947 71.0494 159.757 71.0494C160.453 71.0494 161.14 70.5759 161.82 69.629C162.495 68.6822 162.835 67.8683 162.835 67.1953C162.835 66.5223 162.563 65.9863 162.017 65.595C161.472 65.2076 160.86 65.012 160.176 65.012C158.758 65.012 157.324 65.3368 155.874 65.9902C154.424 66.6436 153.151 67.4927 152.057 68.5374C150.962 69.586 150.066 70.799 149.37 72.1841C148.675 73.5692 148.327 74.9543 148.327 76.3394C148.327 77.7245 148.861 78.8475 149.923 79.7083C150.986 80.5652 152.179 80.9956 153.503 80.9956C154.827 80.9956 156.431 80.6513 158.319 79.9626C159.267 79.6222 160.16 79.227 160.998 78.7692C161.681 78.3936 162.266 77.9515 162.768 77.4428C162.981 78.3349 163.467 79.0901 164.234 79.7083C165.297 80.5652 166.49 80.9956 167.813 80.9956C169.137 80.9956 170.741 80.6513 172.63 79.9626C172.989 79.8335 173.333 79.6887 173.677 79.5439C173.7 79.6144 173.736 79.677 173.787 79.7161C173.882 79.7905 174.155 79.9117 174.605 80.0839C175.056 80.2522 175.415 80.3382 175.688 80.3382C175.96 80.3382 176.292 80.0683 176.683 79.5283C178.039 77.7245 179.295 76.1907 180.453 74.9308C181.61 73.6709 183.017 72.2428 184.668 70.6503C186.32 69.0578 187.355 68.2439 187.774 68.2048L187.813 68.2439C186.877 69.3356 186.407 70.3138 186.407 71.1785C186.407 71.5659 186.517 71.9063 186.739 72.1958C186.96 72.4853 187.272 72.6301 187.667 72.6301C188.062 72.6301 188.422 72.4306 188.742 72.0276C189.338 71.2372 189.986 70.2707 190.69 69.1204C191.393 67.9739 191.745 67.1562 191.745 66.6671L191.729 66.6749ZM171.168 68.3613C173.08 67.344 174.222 67.2892 174.423 67.5748C174.597 67.8253 174.55 68.5296 174.198 69.1752C173.835 69.8482 173.155 70.439 172.381 70.7559C171.195 71.2372 169.738 71.3193 167.948 70.9985C168.979 69.8364 170.058 68.9482 171.164 68.3613H171.168ZM221.357 74.9504C221.306 74.5865 221.16 74.4065 220.919 74.4065C220.768 74.4065 220.654 74.4378 220.575 74.5004C220.5 74.563 220.267 74.8095 219.883 75.2321C219.496 75.6586 219.101 76.0773 218.698 76.4842C218.291 76.8911 217.829 77.2746 217.311 77.6306C216.794 77.9867 216.343 78.1667 215.964 78.1667C215.585 78.1667 215.395 77.8223 215.395 77.1337C215.395 76.9068 215.415 76.7307 215.45 76.6055C215.64 75.5882 216.063 74.3635 216.715 72.9275C217.367 71.4915 217.963 70.3138 218.501 69.3904C219.038 68.467 219.39 67.927 219.556 67.7627C219.721 67.5983 219.8 67.344 219.8 66.9918C219.8 66.3384 219.318 66.0137 218.358 66.0137C217.94 66.0137 217.627 66.0723 217.418 66.1936C217.209 66.311 216.952 66.5967 216.648 67.0505C216.533 66.7101 216.26 66.4284 215.83 66.2054C215.399 65.9784 214.842 65.865 214.159 65.865C212.385 65.865 210.449 66.6788 208.347 68.3104C207.347 69.0891 206.426 69.9499 205.593 70.8968C204.755 71.8437 204.083 72.8923 203.57 74.0387C203.36 74.5082 203.206 74.9739 203.08 75.4395C202.851 75.6038 202.503 75.8347 202.029 76.1359C201.377 76.5507 200.745 76.8872 200.129 77.1415C199.516 77.3998 198.734 77.6384 197.782 77.8576C196.833 78.0767 195.885 78.1862 194.941 78.1862C193.997 78.1862 193.325 77.9632 192.926 77.5171C192.527 77.0711 192.329 76.5429 192.329 75.9286C192.329 74.3987 192.961 72.9275 194.23 71.5072C194.811 70.8537 195.431 70.2668 196.083 69.7386C196.735 69.2104 197.458 68.7095 198.256 68.2322C199.054 67.7548 199.801 67.5162 200.496 67.5162C200.634 67.5162 200.705 67.6061 200.705 67.79C200.705 67.9739 200.516 68.3183 200.136 68.8348C199.757 69.3473 199.567 69.7073 199.567 69.9068C199.567 70.6737 199.974 71.0533 200.784 71.0533C201.48 71.0533 202.167 70.5798 202.847 69.6329C203.522 68.6861 203.862 67.8722 203.862 67.1992C203.862 66.5262 203.59 65.9902 203.044 65.5989C202.499 65.2115 201.887 65.0159 201.203 65.0159C199.785 65.0159 198.351 65.3407 196.901 65.9941C195.451 66.6475 194.178 67.4966 193.084 68.5413C191.99 69.5899 191.093 70.8029 190.397 72.188C189.702 73.5731 189.354 74.9582 189.354 76.3433C189.354 77.7284 189.888 78.8514 190.95 79.7122C192.013 80.5691 193.206 80.9995 194.53 80.9995C195.854 80.9995 197.458 80.6552 199.346 79.9665C200.294 79.6261 201.187 79.2309 202.025 78.7731C202.325 78.6088 202.602 78.4288 202.867 78.2371C202.993 79.0079 203.321 79.6339 203.85 80.1191C204.396 80.6317 205.099 80.8899 205.96 80.8899C206.822 80.8899 207.932 80.4204 209.295 79.4813C210.654 78.5423 211.863 77.3919 212.914 76.0381C212.661 76.6016 212.535 77.2589 212.535 78.0023C212.535 78.7457 212.776 79.4305 213.258 80.0448C213.74 80.6591 214.49 80.9682 215.51 80.9682C216.529 80.9682 217.663 80.4674 218.908 79.4618C220.156 78.4601 220.962 77.5993 221.33 76.8833C221.405 76.7346 221.444 76.4646 221.444 76.0733C221.444 75.6821 221.42 75.3104 221.369 74.9465L221.357 74.9504ZM212.373 72.7123C211.839 73.3657 210.765 74.383 209.145 75.7681C207.525 77.1533 206.537 77.8458 206.181 77.8458C205.929 77.8458 205.802 77.6267 205.802 77.1885C205.802 76.7502 206.146 75.9364 206.837 74.743C207.529 73.5535 208.283 72.5284 209.105 71.6754C211.42 69.2925 213.665 68.1031 215.83 68.1031C214.107 70.4468 212.953 71.9845 212.373 72.7123Z" fill="#F29512"/>
<path d="M125.293 63.5174C125.664 63.5174 126.632 63.0831 128.189 62.2184C129.746 61.3537 130.694 60.7589 131.038 60.4303C132.1 59.7416 132.634 58.8808 132.634 57.8518C132.634 57.4644 132.515 57.0536 132.282 56.6192C132.049 56.1849 131.804 55.9697 131.551 55.9697C131.298 55.9697 131.129 56.0832 131.038 56.3062C130.963 56.5332 130.828 56.7327 130.639 56.9088C130.449 57.0849 130.105 57.3431 129.611 57.6913C129.118 58.0357 128.541 58.47 127.885 58.9982C127.225 59.5264 126.62 60.0859 126.071 60.6807C125.522 61.2754 125.107 61.9367 124.827 62.6644C124.764 62.7897 124.732 62.9109 124.732 63.0205C124.732 63.3453 124.918 63.5096 125.293 63.5096V63.5174ZM142.338 64.2491C140.907 64.2491 139.141 64.6834 137.039 65.5481C135.976 65.9864 134.981 66.495 134.056 67.0702C133.132 67.6454 132.361 68.3379 131.749 69.1479C131.136 69.9578 130.828 70.7717 130.828 71.5933C130.828 72.415 131.125 73.0332 131.721 73.4441C131.998 73.6436 132.27 73.8001 132.539 73.9136C132.804 74.0271 133.167 74.1484 133.622 74.2814C134.076 74.4144 134.807 74.5944 135.814 74.8253C136.822 75.0561 137.537 75.2518 137.96 75.4083C138.383 75.5648 138.596 75.7487 138.596 75.9639C138.596 76.4139 138.011 76.8677 136.838 77.3177C135.668 77.7677 134.321 77.9946 132.804 77.9946C132.602 77.9946 132.381 77.8811 132.14 77.6542C131.899 77.4273 131.78 77.1573 131.78 76.8443L131.8 76.543C131.8 76.363 131.674 76.2495 131.437 76.1908C131.437 76.1517 131.437 76.1126 131.437 76.0695C131.437 75.6822 131.413 75.3065 131.362 74.9427C131.31 74.5788 131.164 74.3988 130.923 74.3988C130.773 74.3988 130.658 74.4301 130.583 74.4927C130.508 74.5553 130.275 74.8018 129.892 75.2244C129.505 75.6509 129.11 76.0695 128.707 76.4765C128.3 76.8834 127.837 77.2668 127.32 77.6229C126.802 77.979 126.352 78.1589 125.973 78.1589C125.593 78.1589 125.404 77.8146 125.404 77.126C125.404 76.899 125.423 76.723 125.459 76.5977C125.649 75.5804 126.071 74.3557 126.723 72.9198C127.375 71.4838 127.972 70.306 128.509 69.3826C129.046 68.4592 129.398 67.9193 129.564 67.7549C129.73 67.5906 129.809 67.3363 129.809 66.9841C129.809 66.3307 129.327 66.0059 128.367 66.0059C127.948 66.0059 127.636 66.0646 127.426 66.1859C127.217 66.3033 126.96 66.5889 126.656 67.0428C126.541 66.7024 126.269 66.4207 125.838 66.1977C125.408 65.9707 124.85 65.8572 124.167 65.8572C122.393 65.8572 120.457 66.6711 118.355 68.3027C117.355 69.0814 116.435 69.9422 115.601 70.889C114.768 71.8359 114.092 72.8846 113.578 74.031C113.314 74.6218 113.12 75.2126 112.994 75.8035C112.784 75.9991 112.575 76.1908 112.353 76.3904C111.923 76.7777 111.433 77.1573 110.88 77.5172C110.331 77.8811 109.9 78.0768 109.6 78.1002C109.295 78.1237 109.035 78.0846 108.821 77.979C108.604 77.8733 108.497 77.529 108.497 76.9538C108.497 76.5391 109.007 75.5335 110.026 73.9332C111.046 72.3329 112.069 70.7443 113.092 69.1557C114.12 67.571 114.629 66.5655 114.629 66.1468C114.629 65.7281 114.463 65.3682 114.135 65.0669C113.807 64.7656 113.4 64.6169 112.918 64.6169C111.512 64.6169 110.125 65.0434 108.758 65.8964C108.189 66.2603 107.573 66.7337 106.917 67.3167C106.257 67.8997 105.712 68.424 105.273 68.8857C104.835 69.3513 104.301 69.9265 103.669 70.6152C103.037 71.3038 102.543 71.8242 102.188 72.1763C102.211 72.1372 102.373 71.9455 102.674 71.5933C102.97 71.2412 103.167 71.0025 103.262 70.8773C103.357 70.7521 103.531 70.5212 103.784 70.1926C104.037 69.86 104.218 69.59 104.325 69.3826C104.432 69.1753 104.562 68.9248 104.716 68.6314C104.866 68.3379 104.973 68.0562 105.028 67.7862C105.084 67.5163 105.115 67.1798 105.115 66.7689C105.115 66.3581 104.945 65.9785 104.613 65.6225C104.278 65.2664 103.796 65.0864 103.171 65.0864C102.547 65.0864 101.532 65.5208 100.133 66.3933C98.7344 67.2658 97.1659 68.5923 95.4314 70.3726C95.5065 70.2708 95.8225 69.8835 96.3796 69.2066C96.9367 68.5297 97.4187 67.9271 97.8217 67.4028C98.2287 66.8746 98.4816 66.495 98.5803 66.2642C98.6831 66.0333 98.7305 65.8455 98.7305 65.7086C98.7305 65.2195 98.5724 64.973 98.2564 64.973C97.723 64.973 97.1777 65.063 96.6127 65.2469C96.0477 65.4308 95.6408 65.6968 95.3879 66.0451C93.0845 69.2692 90.6981 73.5693 88.2287 78.9493C88.126 79.2741 88.0786 79.5049 88.0786 79.634C88.0786 79.7632 88.1181 79.8571 88.1932 79.9079C88.2683 79.9588 88.3789 80.041 88.5251 80.1505C88.6713 80.264 88.8056 80.3383 88.932 80.3775H89.2718L90.2042 80.4166C90.3188 80.4166 90.5401 80.2288 90.868 79.8532C91.1959 79.4775 91.4172 79.1997 91.5318 79.0276C93.29 76.0304 95.7712 73.0137 98.9754 69.9813C100.141 68.8779 100.907 68.3262 101.283 68.3262C101.658 68.3262 101.844 68.4788 101.844 68.7879C101.844 69.097 100.836 70.9438 98.8253 74.3362C96.8142 77.7285 95.8067 79.4854 95.8067 79.6106C95.8067 79.861 96.028 80.0644 96.4705 80.221C96.913 80.3775 97.3397 80.4557 97.7506 80.4557C98.1615 80.4557 98.4618 80.3305 98.6515 80.0801C100.311 77.9359 101.362 76.6017 101.804 76.0734C103.487 74.0819 105.491 72.012 107.806 69.8678C109.161 68.6157 110.034 67.9858 110.425 67.9858C110.528 67.9858 110.576 68.0171 110.576 68.0797C110.576 68.1423 110.299 68.5453 109.75 69.2926C109.201 70.04 108.596 70.8773 107.936 71.8046C107.276 72.732 106.672 73.7688 106.123 74.9074C105.574 76.05 105.297 77.0203 105.297 77.8224C105.297 78.6246 105.546 79.3171 106.048 79.9001C106.549 80.4831 107.45 80.8392 108.754 80.9644C108.817 80.9761 108.92 80.9839 109.058 80.9839C110.212 80.9839 111.413 80.4753 112.666 79.4619C112.82 79.3367 112.97 79.2115 113.112 79.0902C113.286 79.4854 113.527 79.8297 113.843 80.1192C114.388 80.6318 115.092 80.89 115.953 80.89C116.814 80.89 117.924 80.4205 119.287 79.4815C120.647 78.5424 121.856 77.392 122.907 76.0382C122.654 76.6017 122.527 77.259 122.527 78.0024C122.527 78.7458 122.768 79.4306 123.25 80.0449C123.732 80.6592 124.483 80.9683 125.502 80.9683C126.522 80.9683 127.656 80.4675 128.9 79.4619C129.058 79.3328 129.212 79.2076 129.355 79.0863C129.453 79.548 129.722 79.9588 130.172 80.3188C130.749 80.7766 131.792 81.0035 133.306 81.0035C134.819 81.0035 136.593 80.5066 138.631 79.5167C139.58 79.0667 140.378 78.4837 141.026 77.7677C141.67 77.0516 141.994 76.2965 141.994 75.4904C141.994 75.1031 141.836 74.6688 141.52 74.1914C141.204 73.7141 140.635 73.2876 139.809 72.9119C138.987 72.5363 137.264 72.0903 134.645 71.5777C134.064 71.4642 133.772 71.3195 133.772 71.1356C133.772 70.9517 133.985 70.6699 134.416 70.2787C134.846 69.8913 135.388 69.4844 136.04 69.0579C136.692 68.6314 137.474 68.2479 138.387 67.8997C139.299 67.5554 140.172 67.3637 141.006 67.3245C140.955 67.5006 140.868 67.6649 140.741 67.8215C140.615 67.978 140.552 68.1306 140.552 68.2832C140.552 68.4358 140.599 68.5257 140.694 68.5649C140.789 68.604 140.868 68.6627 140.931 68.7449C140.994 68.827 141.073 68.8935 141.168 68.9444C141.263 68.9953 141.492 69.0188 141.852 69.0188C142.211 69.0188 142.701 68.8701 143.313 68.5688C143.926 68.2675 144.376 67.9271 144.661 67.5515C144.945 67.1758 145.087 66.6554 145.087 65.9903V65.8572C145.087 65.5951 145.036 65.3564 144.937 65.1412C144.609 64.5387 143.74 64.2374 142.334 64.2374L142.338 64.2491ZM122.377 72.7124C121.844 73.3658 120.769 74.3831 119.149 75.7682C117.529 77.1534 116.542 77.8459 116.186 77.8459C115.933 77.8459 115.807 77.6268 115.807 77.1886C115.807 76.7504 116.15 75.9365 116.842 74.7431C117.533 73.5536 118.288 72.5285 119.11 71.6755C121.425 69.2926 123.669 68.1032 125.834 68.1032C124.112 70.4469 122.962 71.9846 122.377 72.7124Z" fill="#F29512"/>
<path d="M79.2641 71.1903H10.7343C5.1041 71.1903 0.524902 66.6554 0.524902 61.0797V10.7226C0.524902 5.14694 5.1041 0.612061 10.7343 0.612061H295.415C301.045 0.612061 305.624 5.14694 305.624 10.7226V60.2972C305.624 65.8728 301.045 70.4077 295.415 70.4077H229.813C228.722 70.4077 227.837 69.5312 227.837 68.4513C227.837 67.3714 228.722 66.495 229.813 66.495H295.415C298.864 66.495 301.673 63.713 301.673 60.2972V10.7226C301.673 7.30678 298.864 4.52481 295.415 4.52481H10.7343C7.28504 4.52481 4.47589 7.30678 4.47589 10.7226V61.0797C4.47589 64.4955 7.28504 67.2775 10.7343 67.2775H79.2641C80.3546 67.2775 81.2396 68.154 81.2396 69.2339C81.2396 70.3138 80.3546 71.1903 79.2641 71.1903Z" fill="#005193"/>
</g>
<defs>
<clipPath id="clip0_1_3421">
<rect width="305.099" height="80.3953" fill="white" transform="translate(0.524902 0.612061)"/>
</clipPath>
</defs>
</svg>
