<svg width="55" height="55" viewBox="0 0 55 55" fill="none" xmlns="http://www.w3.org/2000/svg">
<path d="M38.5648 54.48C36.4449 54.48 34.0819 54.0548 31.5369 53.1996C25.4837 51.2002 18.9924 46.9522 13.2655 41.2421C1.10335 29.0788 -3.4822 14.6103 2.82602 8.30098L9.72481 1.40263C10.9266 0.199122 12.8834 0.199122 14.0874 1.40263L23.9066 11.2219C24.4891 11.8039 24.8102 12.5791 24.8102 13.404C24.8102 14.2276 24.4891 15.0029 23.9066 15.5849L18.4051 21.0864C16.8221 22.6699 18.1402 27.517 22.5642 31.941C24.6234 34.0142 27.0428 35.6086 29.2052 36.3194C31.0992 36.9554 32.6335 36.8728 33.4242 36.0945L38.92 30.5987C40.1218 29.3952 42.0786 29.3952 43.2826 30.5987L53.1018 40.4179C53.6842 40.9999 54.0053 41.7752 54.0053 42.6001C54.0053 43.4236 53.6842 44.1989 53.1018 44.781L46.203 51.6805C44.3327 53.5385 41.7179 54.4794 38.565 54.4794L38.5648 54.48ZM11.906 2.74917C11.6917 2.74917 11.4778 2.83044 11.3148 2.99296L4.41603 9.8913C-0.819681 15.1284 3.96098 28.7564 14.8546 39.6513C20.3377 45.1176 26.5153 49.1719 32.2478 51.0668C37.7344 52.9104 42.1255 52.5637 44.6146 50.0882L51.5112 43.1907C51.6693 43.0326 51.7558 42.8231 51.7558 42.6C51.7558 42.3759 51.6693 42.166 51.5112 42.0079L41.6919 32.1886C41.3656 31.8636 40.8354 31.8636 40.5094 32.1886L35.0079 37.6902C33.5668 39.1111 31.255 39.3803 28.4957 38.4544C25.9779 37.6265 23.3025 35.8769 20.971 33.5296C15.8732 28.43 14.0459 22.2648 16.8145 19.4964L22.316 13.9948C22.4741 13.8367 22.5607 13.6272 22.5607 13.404C22.5607 13.18 22.4741 12.9701 22.316 12.812L12.4967 2.99271C12.3334 2.83107 12.1194 2.7498 11.9051 2.7498L11.906 2.74917Z" fill="#1896D3"/>
<path d="M33.7915 35.7285L35.3816 34.1384L49.5633 48.3201L47.9732 49.9102L33.7915 35.7285Z" fill="#1896D3"/>
<path d="M4.59592 6.53273L6.18602 4.94263L20.3677 19.1243L18.7776 20.7144L4.59592 6.53273Z" fill="#1896D3"/>
<path d="M38.2601 19.615C37.639 19.615 37.1356 19.112 37.1356 18.4905V9.49482C37.1356 8.8733 37.639 8.37036 38.2601 8.37036C38.8812 8.37036 39.3845 8.8733 39.3845 9.49482V18.4905C39.3845 19.112 38.8807 19.615 38.2601 19.615Z" fill="#1896D3"/>
<path d="M42.758 15.1171H33.7623C33.1412 15.1171 32.6378 14.6141 32.6378 13.9926C32.6378 13.3711 33.1412 12.8682 33.7623 12.8682H42.758C43.3791 12.8682 43.8824 13.3711 43.8824 13.9926C43.8824 14.6141 43.3786 15.1171 42.758 15.1171Z" fill="#1896D3"/>
<path d="M38.26 24.1129C32.6799 24.1129 28.1399 19.5733 28.1399 13.9927C28.1399 8.41212 32.6799 3.87256 38.26 3.87256C43.8402 3.87256 48.3802 8.41212 48.3802 13.9927C48.3802 19.5733 43.8397 24.1129 38.26 24.1129ZM38.26 6.12148C33.9198 6.12148 30.3888 9.65296 30.3888 13.9927C30.3888 18.3325 33.9198 21.8639 38.26 21.8639C42.6002 21.8639 46.1313 18.3325 46.1313 13.9927C46.1313 9.65296 42.6002 6.12148 38.26 6.12148Z" fill="#1896D3"/>
</svg>
