<svg width="47" height="58" viewBox="0 0 47 58" fill="none" xmlns="http://www.w3.org/2000/svg">
<path d="M1.55157 18.3245C0.716892 18.3245 0 17.6081 0 16.7318C0 15.8952 0.716892 15.1788 1.55157 15.1788H3.85966C5.29231 15.2185 6.56528 15.4973 7.64118 16.1741C9.72277 17.4947 10.0931 19.381 10.6254 21.511H24.9746C25.5012 22.8203 26.4514 23.9119 27.653 24.6204H20.7321V24.6193H11.5008L15.0423 37.9628H40.155L43.4574 24.6193H35.2704V24.6204H34.0948C35.2964 23.9119 36.2455 22.8203 36.7733 21.511H45.4484C46.3227 21.511 47 22.2286 47 23.0663C47 23.225 46.9592 23.3848 46.9196 23.5435L42.8606 39.9148C42.702 40.6324 42.0656 41.1107 41.3487 41.1107H15.8781C16.4364 43.1818 16.9925 44.2973 17.749 44.8142C18.6652 45.4127 20.2564 45.4512 22.9224 45.4127H40.9512C41.8255 45.4127 42.5027 46.1291 42.5027 46.9657C42.5027 47.842 41.787 48.5187 40.9512 48.5187H22.9632C19.6596 48.5595 17.629 48.4791 15.9981 47.4044C14.3265 46.289 13.4511 44.3766 12.5756 40.9112L7.24253 20.7152C7.24253 20.6756 7.24253 20.6756 7.20289 20.6359C6.96393 19.7585 6.56528 19.1622 6.0092 18.8425C5.452 18.4843 4.69547 18.3245 3.82002 18.3245H1.55157V18.3245ZM23.9247 1.96456C25.0051 0.0896095 27.422 -0.557669 29.2929 0.524907C31.165 1.60635 31.8116 4.02543 30.7323 5.89811C28.4979 9.77158 26.269 13.6065 24.0357 17.4788C23.4977 18.4118 22.6268 19.0387 21.6585 19.2994C20.6913 19.559 19.6233 19.4501 18.6913 18.9117C17.7603 18.3732 17.1329 17.5015 16.8724 16.5334C16.6131 15.5653 16.7218 14.4964 17.2609 13.5634C19.4942 9.68543 21.6868 5.84257 23.9247 1.96456V1.96456ZM26.1422 12.0988L20.8952 9.06762L18.048 14.0021C17.6324 14.7254 17.5486 15.5506 17.7501 16.3033C17.9517 17.0549 18.4365 17.7294 19.1567 18.1465C19.8782 18.5626 20.7038 18.6464 21.4547 18.4435C22.2044 18.2429 22.8794 17.7566 23.2961 17.0345L26.1422 12.0988V12.0988ZM34.472 17.5729C35.0178 18.6555 35.0371 19.9807 34.404 21.1222C33.3915 22.9518 31.0868 23.6138 29.2578 22.6004C28.7198 22.3023 28.2838 21.8908 27.9599 21.4158L34.472 17.5729ZM27.7832 17.4471C28.7957 15.6175 31.1004 14.9555 32.9294 15.9689C33.4278 16.2455 33.8377 16.6173 34.1526 17.0481L27.662 20.8785C27.1705 19.8186 27.1739 18.5467 27.7832 17.4471ZM33.7709 7.73679C34.7845 5.90605 37.0881 5.24517 38.9171 6.25859C39.4154 6.53519 39.8254 6.90587 40.1414 7.33777L33.6475 11.1693C33.1582 10.1083 33.1616 8.8375 33.7709 7.73679ZM40.4596 7.86149C41.0055 8.94519 41.0248 10.2692 40.3917 11.4119C39.3792 13.2415 37.0745 13.9035 35.2466 12.8901C34.7268 12.6025 34.2822 12.1963 33.9487 11.7043L40.4596 7.86149V7.86149ZM32.2748 27.9033C32.2748 27.4113 32.7596 27.0134 33.3575 27.0134C33.9555 27.0134 34.4402 27.4113 34.4402 27.9033V33.9113C34.4402 34.401 33.9555 34.7989 33.3575 34.7989C32.7596 34.7989 32.2748 34.401 32.2748 33.9113V27.9033V27.9033ZM25.7922 27.9033C25.7922 27.4113 26.277 27.0134 26.8749 27.0134C27.4729 27.0134 27.9576 27.4113 27.9576 27.9033V33.9113C27.9576 34.401 27.4729 34.7989 26.8749 34.7989C26.277 34.7989 25.7922 34.401 25.7922 33.9113V27.9033V27.9033ZM19.3096 27.9033C19.3096 27.4113 19.7944 27.0134 20.3935 27.0134C20.9903 27.0134 21.475 27.4113 21.475 27.9033V33.9113C21.475 34.401 20.9903 34.7989 20.3935 34.7989C19.7944 34.7989 19.3096 34.401 19.3096 33.9113V27.9033V27.9033ZM36.2942 50.3517C38.4041 50.3517 40.1153 52.0646 40.1153 54.1765C40.1153 56.2872 38.4041 58.0001 36.2942 58.0001C34.1854 58.0001 32.4742 56.2872 32.4742 54.1765C32.4742 52.0646 34.1854 50.3517 36.2942 50.3517ZM19.5395 50.3517C21.6494 50.3517 23.3607 52.0646 23.3607 54.1765C23.3607 56.2872 21.6494 58.0001 19.5395 58.0001C17.4308 58.0001 15.7195 56.2872 15.7195 54.1765C15.7195 52.0646 17.4308 50.3517 19.5395 50.3517Z" fill="#1896D3"/>
</svg>
