<svg width="42" height="60" viewBox="0 0 42 60" fill="none" xmlns="http://www.w3.org/2000/svg">
<path d="M37.9038 59.2354H4.05457C1.8193 59.2354 3.8147e-05 57.4083 3.8147e-05 55.1629V12.5876C3.8147e-05 10.3417 1.8193 8.51465 4.05457 8.51465H10.9302V12.7722H31.0282V8.51465H37.9038C40.1391 8.51513 41.9584 10.3422 41.9584 12.5876V55.1629C41.9584 57.4083 40.1391 59.2354 37.9038 59.2354ZM4.05457 10.9833C3.17964 10.9833 2.46818 11.703 2.46818 12.5876V55.1629C2.46818 56.048 3.17969 56.7672 4.05457 56.7672H37.9038C38.7793 56.7672 39.4907 56.048 39.4907 55.1629V12.5876C39.4907 11.703 38.7792 10.9828 37.9043 10.9828H33.4969V15.2403L8.46254 15.2408V10.9833L4.05457 10.9833Z" fill="#1896D3"/>
<path d="M33.497 15.2408H8.46265V8.50017C8.46265 6.16124 10.3576 4.25757 12.6869 4.25757H17.9828V5.49164C17.9828 7.15812 19.3273 8.51461 20.9797 8.51461C22.6327 8.51461 23.9766 7.15812 23.9766 5.49164V4.25757H29.2725C31.6013 4.25757 33.4967 6.16124 33.4967 8.50017L33.497 15.2408ZM10.9308 12.7726H31.0288V8.50017C31.0288 7.52159 30.2412 6.72571 29.2728 6.72571H26.3062C25.7475 9.16102 23.572 10.9827 20.9799 10.9827C18.3884 10.9827 16.2124 9.16102 15.6537 6.72571H12.6866C11.7182 6.72571 10.9305 7.52158 10.9305 8.50017L10.9308 12.7726Z" fill="#1896D3"/>
<path d="M20.9798 10.9832C17.9665 10.9832 15.5147 8.51989 15.5147 5.4921C15.5147 2.46382 17.9665 0 20.9798 0C23.9932 0 26.4449 2.46382 26.4449 5.49161C26.4449 8.51989 23.9932 10.9832 20.9798 10.9832ZM20.9798 2.46814C19.3268 2.46814 17.9829 3.82463 17.9829 5.49161C17.9829 7.15809 19.3274 8.51458 20.9798 8.51458C22.6328 8.51458 23.9768 7.15809 23.9768 5.49161C23.9768 3.82463 22.6327 2.46814 20.9798 2.46814Z" fill="#1896D3"/>
<path d="M20.9798 29.6175C20.2982 29.6175 19.7458 29.0651 19.7458 28.3835V18.5109C19.7458 17.8293 20.2982 17.2769 20.9798 17.2769C21.6615 17.2769 22.2139 17.8293 22.2139 18.5109V28.3835C22.2139 29.0651 21.6615 29.6175 20.9798 29.6175Z" fill="#1896D3"/>
<path d="M25.9161 24.6813H16.0436C15.3619 24.6813 14.8095 24.1288 14.8095 23.4472C14.8095 22.7656 15.3619 22.2131 16.0436 22.2131H25.9161C26.5977 22.2131 27.1502 22.7656 27.1502 23.4472C27.1502 24.1288 26.5977 24.6813 25.9161 24.6813Z" fill="#1896D3"/>
<path d="M35.7887 38.256H6.171C5.48938 38.256 4.93694 37.7035 4.93694 37.0219C4.93694 36.3403 5.48938 35.7878 6.171 35.7878H35.7887C36.4703 35.7878 37.0227 36.3403 37.0227 37.0219C37.0227 37.7035 36.4698 38.256 35.7887 38.256Z" fill="#1896D3"/>
<path d="M35.7887 45.6605H6.171C5.48938 45.6605 4.93694 45.1081 4.93694 44.4265C4.93694 43.7448 5.48938 43.1924 6.171 43.1924H35.7887C36.4703 43.1924 37.0227 43.7448 37.0227 44.4265C37.0227 45.1081 36.4698 45.6605 35.7887 45.6605Z" fill="#1896D3"/>
<path d="M35.7887 53.0648H6.171C5.48938 53.0648 4.93694 52.5124 4.93694 51.8307C4.93694 51.1491 5.48938 50.5967 6.171 50.5967H35.7887C36.4703 50.5967 37.0227 51.1491 37.0227 51.8307C37.0227 52.5124 36.4698 53.0648 35.7887 53.0648Z" fill="#1896D3"/>
</svg>
