<svg width="40" height="60" viewBox="0 0 40 60" fill="none" xmlns="http://www.w3.org/2000/svg">
<path d="M12.8369 36.2849C10.6569 38.7442 8.56113 40.9716 6.75573 42.8306L3.74908 45.8577C2.04905 47.5335 1 48.5024 1 48.5024L7.91484 59C7.91484 59 13.5324 53.0639 20.0023 45.2921M20 27.572C25.6457 20.083 30.2938 11.989 30.0456 5.84898C30.0456 5.84898 32.6612 8.49367 34.3121 14.3022C36.7122 22.7416 32.0407 29.8111 27.163 36.2849M30.1603 5.97414L30.158 5.97183C27.807 2.94701 24.1119 1 19.9578 1C16.5929 1 12.6707 3.18343 9.95674 5.8513C9.95674 5.85361 9.95206 5.85593 9.94972 5.85825C9.94269 5.86752 9.93332 5.87448 9.9263 5.88143C9.92162 5.88838 9.91459 5.89302 9.90991 5.89765M12.3546 15.343C14.5932 13.7228 17.354 12.7678 20.3395 12.7678C23.1003 12.7678 25.6667 13.5837 27.807 14.9883M39 48.5024L32.0852 59C32.0852 59 17.4125 43.5004 8.19818 29.8065C5.1283 25.2449 4.18696 19.5777 5.68795 14.2999C7.3388 8.49366 9.9544 5.84898 9.9544 5.84898C9.33855 21.1191 39 48.5024 39 48.5024Z" stroke="#1896D3" stroke-width="1.60652" stroke-linecap="round" stroke-linejoin="round"/>
</svg>
