<svg width="54" height="61" viewBox="0 0 54 61" fill="none" xmlns="http://www.w3.org/2000/svg">
<path d="M37.0237 32.7541C27.9815 32.7541 20.6259 25.5458 20.6259 16.687H23.1698C23.1698 24.1442 29.3848 30.2102 37.0237 30.2102C44.6628 30.2102 50.8776 24.1437 50.8776 16.687H53.4215C53.4215 25.5463 46.0656 32.7541 37.0237 32.7541V32.7541Z" fill="#1896D3"/>
<path d="M53.4215 16.687H50.8776V6.59903C50.8776 5.81699 50.2143 5.18108 49.3995 5.18108H45.2741V2.63721H49.3995C51.6175 2.6377 53.4215 4.41499 53.4215 6.59903V16.687Z" fill="#1896D3"/>
<path d="M21.8979 60.9999C12.8557 60.9999 5.50009 53.7916 5.50009 44.9329H8.04396C8.04396 52.3901 14.259 58.4561 21.8979 58.4561C29.537 58.4561 35.7518 52.3896 35.7518 44.9329H38.2957C38.2952 53.7921 30.9393 60.9999 21.8979 60.9999V60.9999Z" fill="#1896D3"/>
<path d="M35.7517 32.155H38.2956V44.9329H35.7517V32.155Z" fill="#1896D3"/>
<path d="M5.50009 34.8452H8.04396V44.9332H5.50009V34.8452Z" fill="#1896D3"/>
<path d="M23.1698 16.687H20.6259V6.59903C20.6259 4.41486 22.43 2.63721 24.6479 2.63721H28.7733V5.18108L24.6479 5.18157C23.8331 5.18157 23.1698 5.81754 23.1698 6.59953V16.687Z" fill="#1896D3"/>
<path d="M29.2548 7.75041C28.5523 7.75041 27.9829 7.18101 27.9829 6.47847V1.27193C27.9829 0.569394 28.5523 0 29.2548 0C29.9574 0 30.5267 0.569394 30.5267 1.27193V6.47847C30.5267 7.18101 29.9574 7.75041 29.2548 7.75041Z" fill="#1896D3"/>
<path d="M44.518 7.75027C43.8154 7.75027 43.246 7.18088 43.246 6.47834V1.37814C43.246 0.675595 43.8154 0.106201 44.518 0.106201C45.2205 0.106201 45.7899 0.675595 45.7899 1.37814V6.47834C45.7899 7.18088 45.2205 7.75027 44.518 7.75027Z" fill="#1896D3"/>
<path d="M6.77204 36.1169C3.03827 36.1169 0 33.1328 0 29.4651C0 25.7968 3.03827 22.8127 6.77204 22.8127C10.5063 22.8127 13.5446 25.7968 13.5446 29.4651C13.5446 33.1328 10.5063 36.1169 6.77204 36.1169V36.1169ZM6.77204 25.3566C4.44032 25.3566 2.54387 27.1994 2.54387 29.4651C2.54387 31.7308 4.44032 33.5736 6.77204 33.5736C9.10375 33.5736 11.0007 31.7308 11.0007 29.4651C11.0007 27.1994 9.10375 25.3566 6.77204 25.3566Z" fill="#1896D3"/>
</svg>
