<svg width="61" height="50" viewBox="0 0 61 50" fill="none" xmlns="http://www.w3.org/2000/svg">
<path d="M60.813 14.1771C60.2038 9.80683 57.9246 5.84323 54.4551 3.11796C52.0737 1.26374 49.1473 0.247115 46.1292 0.225073C43.1111 0.203047 40.1706 1.1767 37.7623 2.99584C36.2 4.1497 34.9214 5.64447 34.0233 7.36644C33.1253 5.64434 31.8468 4.14958 30.2844 2.99584C27.8766 1.1757 24.9356 0.20098 21.9175 0.223022C18.8989 0.245049 15.9724 1.26275 13.5916 3.11796C10.1221 5.84323 7.84289 9.80683 7.23365 14.1771C7.108 15.0471 7.04594 15.9247 7.04694 16.8036C7.04644 18.0551 7.17659 19.3036 7.43439 20.528C7.58307 21.2358 8.27688 21.6889 8.98477 21.5402C9.6921 21.3915 10.1451 20.6972 9.99646 19.9898C9.7837 18.9411 9.68008 17.8733 9.6881 16.8036C9.6886 16.0517 9.74417 15.3013 9.8528 14.5575C10.3699 10.8726 12.2906 7.53014 15.2136 5.2279C17.1435 3.72264 19.5157 2.89619 21.9631 2.87658C24.41 2.85706 26.7953 3.64599 28.7486 5.12025C30.2253 6.19702 31.3773 7.65919 32.0785 9.34721C32.1431 9.5049 32.1861 9.63405 32.2292 9.7632C32.4129 10.2653 32.7954 10.6698 33.2864 10.8815C33.7775 11.0928 34.3337 11.0928 34.8248 10.8815C35.3158 10.6698 35.6983 10.2653 35.882 9.7632C35.9251 9.64105 35.9681 9.5119 36.0327 9.36122C36.7325 7.67116 37.8849 6.20601 39.3626 5.12723C41.3159 3.65297 43.7011 2.86458 46.1481 2.88355C48.5955 2.90307 50.9677 3.72956 52.8976 5.23487C55.8206 7.53712 57.7413 10.8796 58.2584 14.5644C58.367 15.3083 58.4226 16.0592 58.4231 16.8105C58.4421 20.4513 57.13 23.9731 54.7348 26.7142H39.2553L37.3391 21.0881C37.1389 20.561 36.6278 20.2181 36.0641 20.2326C35.5004 20.2471 35.0073 20.6161 34.8346 21.1527L31.6408 31.3433L28.6413 14.1197V13.6892L28.6053 13.6317V13.5816L28.347 13.531V13.4805L28.3109 13.4374L28.2609 13.3874H28.2248L28.1603 13.3373H28.1242L28.0596 13.2943H26.7106L26.646 13.3373H26.603L26.5454 13.3804L26.5023 13.4164L26.4593 13.4595L26.4162 13.5095V13.5526L26.3732 13.6101V13.6532L26.3301 13.7178V14.0191L22.9572 26.7001L1.30599 26.6996C0.584639 26.6996 0 27.2843 0 28.0056C0 28.7269 0.584691 29.3121 1.30599 29.3121H24.2707L24.3714 29.262H24.4074L24.472 29.226H24.508L24.5656 29.1829L24.6302 29.1254L24.7018 29.0463C24.7533 28.9837 24.7989 28.9166 24.8379 28.8455V28.5797L26.9404 20.6853L29.8107 37.3425V37.6939L29.8538 37.7655L29.9038 37.8301L29.9539 37.8876V37.9237L30.0039 37.9667L30.047 38.0028L30.1045 38.0458L30.1836 38.1034H30.471L30.6432 38.1464H31.2604L31.3465 38.1034L31.9352 37.9887L31.9998 37.9527H32.0429L32.1004 37.9096H32.1365L32.201 37.8596C32.2591 37.8045 32.3117 37.7445 32.3587 37.6799L32.4088 37.6008L32.4448 37.5292V37.3715L36.0331 25.8029L36.9662 28.5371C36.9882 28.5967 37.0147 28.6543 37.0448 28.7093C37.0748 28.7619 37.1083 28.8125 37.1454 28.86L37.26 28.9892L37.3822 29.0898L37.5328 29.1829L37.698 29.2475L37.8703 29.2905H38.0785L52.1367 29.291C51.4189 30.0089 50.7586 30.7262 50.0913 31.4441L36.3919 46.0329L36.2988 46.1405H36.2983C35.7882 46.8594 34.9692 47.2954 34.0882 47.3179H33.966C33.086 47.3039 32.2646 46.8754 31.7484 46.1625L31.6553 46.0549L21.1704 34.8807C20.6768 34.3536 19.8498 34.3266 19.3227 34.8197C18.7956 35.3132 18.7681 36.1408 19.2617 36.6679L29.696 47.7771C30.7027 49.1211 32.2796 49.9176 33.9591 49.9301H34.0883C35.7677 49.9176 37.3446 49.1212 38.3513 47.7771L52.029 33.237C53.1483 32.0456 54.3181 30.8617 55.4596 29.7133L56.1269 29.0385V29.039C59.2836 25.7512 61.0316 21.361 60.9996 16.8031C61.0006 15.9241 60.9385 15.0466 60.8128 14.1765L60.813 14.1771Z" fill="#209CD4"/>
</svg>
