<svg width="1027" height="34" viewBox="0 0 1027 34" fill="none" xmlns="http://www.w3.org/2000/svg">
<path d="M30.0068 19.125C30.451 19.125 30.8317 18.8594 30.9586 18.3946L33.8776 10.8242L39.2077 33.1367C39.3346 33.6679 39.7153 33.9336 40.2229 34C40.6671 33.9336 41.1113 33.6015 41.1748 33.1367L46.378 5.84375L49.3603 18.2617C49.4872 18.7265 49.9314 19.125 50.3122 19.125H1026.49C1026.81 19.125 1027 18.8595 1027 18.5938V17.5313C1027 17.1993 1026.81 17.0001 1026.49 17.0001L51.1371 17L47.2664 0.796875C47.1395 0.265625 46.7587 4.64667e-08 46.2511 0C45.8069 -4.06111e-08 45.3627 0.332031 45.2993 0.796875L40.096 28.0899L35.0832 7.17188C34.9563 6.70703 34.5755 6.375 34.1948 6.375C33.6871 6.3086 33.3065 6.57422 33.1795 7.03906L29.3723 17H0.507635C0.253818 17 1.16499e-07 17.1992 8.8757e-08 17.5312L0 18.5937C-2.21825e-08 18.8594 0.253817 19.125 0.507634 19.125H30.0068Z" fill="#380079"/>
</svg>
