<svg width="701" height="636" viewBox="0 0 701 636" fill="none" xmlns="http://www.w3.org/2000/svg">
<g style="mix-blend-mode:multiply">
<path d="M479.864 55.7919C428.585 19.7113 368.128 0.721558 304.821 0.721558C136.742 0.721558 0 137.448 0 305.508C0 457.742 113.635 587.506 264.305 607.762C265.255 607.762 265.888 608.078 266.837 608.078C268.103 608.078 269.053 608.078 270.319 607.762C275.7 622.004 288.361 633.081 304.505 635.297C306.404 635.613 308.62 635.613 310.519 635.613C331.726 635.613 349.769 619.788 352.934 598.9C354.517 587.506 351.668 576.428 344.704 567.25C337.741 558.072 327.928 552.375 316.533 550.792C314.634 550.476 312.418 550.476 310.519 550.476C295.009 550.476 281.081 559.021 273.484 571.998C272.218 571.365 270.952 571.048 269.369 571.048C137.059 553.008 37.6674 439.069 37.6674 305.508C37.6674 158.02 157.633 38.0681 305.138 38.0681C360.531 38.0681 413.392 54.8424 458.656 86.4921C467.202 92.5055 478.598 90.29 484.612 82.0611C490.626 73.5157 488.41 61.8054 479.864 55.7919ZM291.843 590.354C293.109 581.176 301.023 574.213 310.202 574.213C311.152 574.213 312.101 574.213 312.734 574.529C322.864 576.112 330.144 585.29 328.561 595.735C327.295 604.913 319.382 611.876 310.202 611.876C309.253 611.876 308.303 611.876 307.67 611.56C297.541 609.977 290.577 600.482 291.843 590.354Z" fill="#DBDBDB" fill-opacity="0.2"/>
<path d="M600.145 547.311C596.347 547.311 592.232 546.045 589.066 543.196C582.103 537.183 581.469 526.422 587.484 519.459C638.445 461.224 666.617 386.214 666.617 308.673C666.617 229.548 637.496 153.906 584.951 95.0375C578.621 88.0745 579.254 77.3137 586.217 71.3002C593.181 64.9703 603.943 65.6033 609.957 72.5662C668.199 137.448 700.169 221.32 700.169 308.673C700.169 394.443 669.149 477.049 612.49 541.614C609.324 545.412 604.893 547.311 600.145 547.311Z" fill="#DBDBDB" fill-opacity="0.2"/>
<path d="M473.215 448.564C469.733 448.564 466.251 447.614 463.086 445.082C455.489 439.385 454.223 428.941 459.604 421.345C484.61 387.797 497.904 347.602 497.904 305.508C497.904 263.73 484.61 223.851 459.92 190.303C454.223 182.707 455.806 172.263 463.402 166.882C470.999 161.185 481.445 162.768 486.826 170.364C515.947 209.926 531.457 256.451 531.457 305.824C531.457 355.197 515.947 402.355 486.193 441.917C483.344 446.032 478.279 448.564 473.215 448.564Z" fill="#DBDBDB" fill-opacity="0.2"/>
<path d="M549.185 120.674C543.171 113.394 532.726 112.445 525.445 118.458C518.165 124.472 517.215 134.916 523.23 142.195C561.214 188.087 582.105 246.006 582.105 305.824C582.105 386.847 543.804 463.123 479.232 511.547L398.199 413.433C427.953 387.164 446.629 349.184 446.629 306.457C446.629 286.518 442.514 267.528 435.234 250.437C439.032 245.057 441.881 238.41 442.83 231.447C445.996 208.027 429.852 186.505 406.429 183.023C404.53 182.707 402.314 182.707 400.415 182.707C379.207 182.707 361.165 198.532 357.999 219.421C356.417 230.814 359.266 241.892 366.229 251.07C373.193 260.249 383.006 265.946 394.401 267.528C396.3 267.845 398.516 267.845 400.415 267.845C404.213 267.845 407.695 267.212 411.494 266.262C416.242 278.605 418.774 291.898 418.774 305.824C418.774 368.807 367.495 420.079 304.505 420.079C279.183 420.079 255.759 411.85 237.084 397.925C238.983 393.81 240.566 389.379 241.199 384.948C242.782 373.554 239.933 362.477 232.969 353.299C226.005 344.12 216.193 338.423 204.798 336.841C202.898 336.524 200.683 336.524 198.783 336.524C177.576 336.524 159.533 352.349 156.368 373.238C153.203 396.659 169.346 418.18 192.769 421.662C194.669 421.978 196.884 421.978 198.783 421.978C205.114 421.978 211.128 420.712 216.509 418.18C240.882 437.17 271.269 448.564 304.505 448.564C330.461 448.564 354.518 441.601 375.409 429.574L468.153 541.297C471.318 545.412 476.383 547.627 481.131 547.627C484.296 547.627 487.778 546.678 490.627 544.462C569.127 490.025 615.657 400.773 615.657 305.508C615.657 238.41 592.234 172.579 549.185 120.674ZM400.415 244.424C399.465 244.424 398.516 244.424 397.883 244.107C387.754 242.525 380.473 233.346 382.056 222.902C383.322 213.724 391.235 206.761 400.415 206.761C401.364 206.761 402.314 206.761 402.947 207.077C413.076 208.66 420.356 217.838 418.774 228.282C417.508 237.461 409.594 244.424 400.415 244.424ZM217.142 382.1C215.876 391.278 207.963 398.241 198.783 398.241C197.834 398.241 196.884 398.241 196.251 397.925C186.122 396.342 178.842 387.164 180.425 376.719C181.691 367.541 189.604 360.578 198.783 360.578C199.733 360.578 200.683 360.578 201.316 360.894C211.445 362.477 218.408 371.972 217.142 382.1Z" fill="#DBDBDB" fill-opacity="0.2"/>
</g>
</svg>
