<svg width="353" height="77" viewBox="0 0 353 77" fill="none" xmlns="http://www.w3.org/2000/svg">
<g clip-path="url(#clip0_0_320)">
<mask id="mask0_0_320" style="mask-type:luminance" maskUnits="userSpaceOnUse" x="0" y="0" width="353" height="77">
<path d="M353 0H0V77H353V0Z" fill="white"/>
</mask>
<g mask="url(#mask0_0_320)">
<path d="M313.725 27.5653V19.876H306.044V12.5329H313.725V4.58609H320.91V12.5329H329.283V19.876H320.91V27.5165" fill="#43BAC9"/>
<mask id="mask1_0_320" style="mask-type:luminance" maskUnits="userSpaceOnUse" x="0" y="0" width="353" height="77">
<path d="M353 0H0V77H353V0Z" fill="white"/>
</mask>
<g mask="url(#mask1_0_320)">
<path d="M48.2915 14.2466C50.3737 15.3432 52.018 16.9903 53.2243 19.1834C54.4307 21.3766 55.0384 24.0447 55.0384 27.1924V47.2415H49.4175V28.0004C49.4175 24.6086 48.573 22.0114 46.8885 20.209C45.2041 18.4109 42.9208 17.5097 40.0478 17.5097C37.1748 17.5097 34.7397 18.4509 32.9882 20.3333C31.2412 22.2156 30.3654 24.9371 30.3654 28.4976V47.2415H24.7445V28.0004C24.7445 24.6086 23.9 22.0114 22.2155 20.209C20.531 18.4109 18.2478 17.5097 15.3748 17.5097C12.5018 17.5097 10.0667 18.4509 8.31519 20.3333C6.56815 22.2156 5.6924 24.9371 5.6924 28.4976V47.2415H0V13.2211H5.68346V18.1268C6.80943 16.3465 8.31519 14.9836 10.2141 14.0291C12.1086 13.079 14.1997 12.5995 16.4919 12.5995C19.3649 12.5995 21.9072 13.2433 24.1145 14.5219C26.3217 15.8049 27.966 17.6873 29.0473 20.169C30.0035 17.7716 31.5852 15.907 33.7969 14.584C36.0042 13.261 38.4616 12.5995 41.1693 12.5995C43.877 12.5995 46.2094 13.15 48.2915 14.2466Z" fill="#36276F"/>
<path d="M93.1426 32.3379H65.7798C65.9853 35.6898 67.1426 38.3091 69.2471 40.1915C71.3516 42.0739 73.9029 43.0151 76.901 43.0151C79.3585 43.0151 81.4093 42.4468 83.0536 41.3103C84.6979 40.1737 85.8551 38.651 86.5209 36.7464H92.6422C91.7262 40.0139 89.8943 42.6732 87.1464 44.7243C84.3985 46.7709 80.9804 47.7965 76.901 47.7965C73.6527 47.7965 70.7484 47.0728 68.1881 45.6255C65.6279 44.1782 63.6172 42.1183 62.1606 39.4501C60.704 36.7819 59.9757 33.6875 59.9757 30.1714C59.9757 26.6552 60.6817 23.5697 62.0981 20.9237C63.5145 18.2777 65.5028 16.2355 68.063 14.8104C70.6233 13.3809 73.5678 12.6706 76.901 12.6706C80.2342 12.6706 83.0223 13.3765 85.52 14.7794C88.0177 16.1867 89.9434 18.1224 91.2973 20.5819C92.6511 23.0459 93.3258 25.825 93.3258 28.9327C93.3258 30.0115 93.2633 31.1481 93.1382 32.3468M86.016 22.1979C85.0553 20.644 83.7551 19.4676 82.1108 18.6595C80.4665 17.8515 78.6435 17.4475 76.6463 17.4475C73.7733 17.4475 71.3248 18.3577 69.3052 20.1779C67.2856 21.9981 66.1283 24.5242 65.8379 27.7518H87.4547C87.4547 25.5986 86.9766 23.7473 86.0204 22.1979" fill="#36276F"/>
<path d="M98.5759 20.9504C99.9922 18.3221 101.94 16.2844 104.416 14.8371C106.891 13.3898 109.675 12.6661 112.758 12.6661C115.421 12.6661 117.901 13.2788 120.193 14.4952C122.48 15.7161 124.232 17.3188 125.438 19.3077V1.30524H131.184V47.2371H125.438V40.8441C124.312 42.873 122.65 44.5378 120.443 45.8386C118.236 47.1439 115.653 47.792 112.695 47.792C109.737 47.792 106.896 47.0462 104.416 45.5589C101.936 44.0717 99.9922 41.9806 98.5759 39.2902C97.1595 36.5999 96.4535 33.541 96.4535 30.1048C96.4535 26.6685 97.1595 23.5786 98.5759 20.9504ZM123.874 23.4632C122.833 21.5586 121.426 20.1024 119.656 19.0857C117.887 18.0735 115.939 17.563 113.817 17.563C111.694 17.563 109.755 18.0602 108.008 19.0502C106.257 20.0447 104.863 21.492 103.821 23.3966C102.78 25.3011 102.262 27.5343 102.262 30.1003C102.262 32.6664 102.78 34.975 103.821 36.8973C104.863 38.8196 106.257 40.2892 108.008 41.3058C109.755 42.3225 111.694 42.8286 113.817 42.8286C115.939 42.8286 117.887 42.3225 119.656 41.3058C121.426 40.2936 122.833 38.8241 123.874 36.8973C124.915 34.975 125.434 32.7286 125.434 30.1625C125.434 27.5964 124.911 25.3633 123.874 23.4587" fill="#36276F"/>
<path d="M138.744 6.57945C137.994 5.8336 137.618 4.92349 137.618 3.84911C137.618 2.77473 137.994 1.86462 138.744 1.11877C139.495 0.372924 140.411 0 141.492 0C142.574 0 143.418 0.372924 144.146 1.11877C144.875 1.86462 145.241 2.77473 145.241 3.84911C145.241 4.92349 144.875 5.8336 144.146 6.57945C143.418 7.3253 142.533 7.69822 141.492 7.69822C140.451 7.69822 139.495 7.3253 138.744 6.57945ZM144.24 47.2371H138.557V13.2211H144.24V47.2371Z" fill="#36276F"/>
<path d="M156.997 46.3359C154.852 45.3636 153.154 44.0406 151.903 42.3624C150.652 40.6843 149.986 38.8152 149.906 36.7464H157.278C157.403 38.1937 158.1 39.4057 159.369 40.378C160.638 41.3502 162.233 41.8341 164.15 41.8341C166.067 41.8341 167.702 41.4523 168.801 40.6843C169.905 39.9207 170.459 38.9351 170.459 37.7364C170.459 36.4534 169.843 35.5033 168.614 34.8818C167.385 34.2602 165.437 33.5765 162.774 32.8351C160.191 32.1337 158.091 31.45 156.465 30.7885C154.843 30.127 153.436 29.1147 152.247 27.7474C151.059 26.38 150.469 24.5819 150.469 22.3488C150.469 20.5286 151.009 18.8638 152.091 17.3499C153.172 15.8404 154.727 14.6506 156.746 13.7805C158.766 12.9103 161.089 12.4752 163.712 12.4752C167.626 12.4752 170.781 13.4564 173.176 15.4231C175.571 17.3898 176.853 20.0669 177.018 23.4632H169.896C169.771 21.9315 169.146 20.7106 168.02 19.8005C166.894 18.8904 165.374 18.4331 163.458 18.4331C161.541 18.4331 160.147 18.7839 159.146 19.4897C158.145 20.1956 157.649 21.1235 157.649 22.2822C157.649 23.1924 157.98 23.9604 158.65 24.5775C159.316 25.199 160.129 25.683 161.085 26.0337C162.041 26.3844 163.458 26.8328 165.334 27.37C167.832 28.0315 169.883 28.7063 171.487 29.3856C173.091 30.0693 174.476 31.0726 175.642 32.3956C176.808 33.7186 177.412 35.4767 177.452 37.6698C177.452 39.6143 176.911 41.3547 175.83 42.8819C174.744 44.4135 173.216 45.6122 171.237 46.4824C169.257 47.3525 166.938 47.7876 164.271 47.7876C161.603 47.7876 159.137 47.2993 156.992 46.327" fill="#45BBC9"/>
<path d="M231.065 14.1534C233.209 15.2722 234.894 16.9281 236.127 19.1213C237.356 21.3144 237.968 23.9648 237.968 27.0681V47.2415H230.908V28.1247C230.908 25.0614 230.135 22.7173 228.598 21.0791C227.057 19.4454 224.952 18.6285 222.289 18.6285C219.626 18.6285 217.508 19.4454 215.949 21.0791C214.385 22.7129 213.608 25.0614 213.608 28.1247V47.2415H206.548V28.1247C206.548 25.0614 205.78 22.7173 204.238 21.0791C202.697 19.4454 200.592 18.6285 197.929 18.6285C195.266 18.6285 193.148 19.4454 191.589 21.0791C190.029 22.7129 189.248 25.0614 189.248 28.1247V47.2415H182.125V13.0346H189.248V16.9459C190.414 15.5385 191.893 14.442 193.684 13.6561C195.476 12.8703 197.388 12.4752 199.43 12.4752C202.178 12.4752 204.636 13.0568 206.803 14.2111C208.97 15.3698 210.632 17.048 211.798 19.2411C212.839 17.1723 214.461 15.5252 216.668 14.3043C218.876 13.0834 221.248 12.4752 223.791 12.4752C226.498 12.4752 228.925 13.0346 231.069 14.1489" fill="#45BBC9"/>
<path d="M245.443 20.8571C246.878 18.2111 248.835 16.1512 251.314 14.6817C253.79 13.2122 256.529 12.4796 259.531 12.4796C262.239 12.4796 264.603 13.008 266.622 14.0601C268.642 15.1168 270.255 16.4309 271.461 18.0025V13.039H278.646V47.2415H271.461V42.1538C270.255 43.7698 268.61 45.115 266.528 46.1893C264.446 47.2637 262.069 47.8009 259.406 47.8009C256.448 47.8009 253.741 47.0462 251.288 45.5367C248.83 44.0273 246.882 41.9185 245.448 39.2059C244.009 36.4977 243.294 33.4256 243.294 29.9893C243.294 26.5531 244.013 23.512 245.448 20.866M270 23.9693C269.022 22.229 267.739 20.906 266.157 19.9958C264.571 19.0857 262.864 18.6285 261.033 18.6285C259.201 18.6285 257.494 19.0724 255.912 19.9648C254.33 20.8571 253.048 22.1579 252.069 23.876C251.091 25.5942 250.599 27.6319 250.599 29.9893C250.599 32.3467 251.086 34.42 252.069 36.1959C253.048 37.9761 254.339 39.3302 255.943 40.2625C257.547 41.1948 259.241 41.661 261.033 41.661C262.824 41.661 264.571 41.2037 266.157 40.298C267.739 39.3879 269.022 38.0516 270 36.2935C270.979 34.5355 271.466 32.4755 271.466 30.1181C271.466 27.7607 270.974 25.7096 270 23.9737" fill="#45BBC9"/>
<path d="M296.116 13.9358C297.845 12.9636 299.896 12.4752 302.269 12.4752V19.8005H300.455C297.662 19.8005 295.553 20.5064 294.115 21.9093C292.676 23.3167 291.961 25.7584 291.961 29.2346V47.2327H284.839V13.0346H291.961V17.9981C293.002 16.2577 294.387 14.9037 296.116 13.9314" fill="#45BBC9"/>
<path d="M328.032 59.77H324.927C323.47 59.77 322.438 59.3793 321.835 58.6024C321.232 57.8255 320.928 56.5424 320.928 54.7533V31.1392H313.743V54.7533C313.743 59.4237 314.596 62.8022 316.303 64.8755C318.01 66.9532 320.468 67.9921 323.676 67.9921H328.054C327.693 66.749 327.509 65.355 327.509 63.81C327.509 62.2651 327.688 60.982 328.032 59.77Z" fill="#37276E"/>
<path d="M328.97 69.3772C327.849 68.7912 326.964 67.9521 326.325 66.86C325.682 65.7723 325.365 64.4893 325.365 63.0109C325.365 61.5325 325.691 60.2761 326.339 59.1884C326.987 58.1007 327.876 57.2616 328.997 56.6712C330.119 56.0852 331.388 55.7921 332.809 55.7921C334.229 55.7921 335.498 56.0852 336.62 56.6712C337.741 57.2572 338.626 58.0963 339.278 59.1884C339.926 60.2806 340.252 61.5547 340.252 63.0109C340.252 64.4671 339.926 65.7501 339.278 66.8467C338.631 67.9433 337.737 68.7868 336.606 69.3728C335.476 69.9588 334.203 70.2518 332.786 70.2518C331.37 70.2518 330.096 69.9588 328.975 69.3728M334.52 65.2085C334.984 64.6979 335.217 63.961 335.217 63.0065C335.217 62.0519 334.984 61.3194 334.52 60.8177C334.055 60.3161 333.488 60.063 332.809 60.063C332.129 60.063 331.571 60.3161 331.115 60.8177C330.659 61.3194 330.431 62.0519 330.431 63.0065C330.431 63.961 330.65 64.7157 331.088 65.2218C331.526 65.7235 332.094 65.9765 332.786 65.9765C333.479 65.9765 334.055 65.719 334.52 65.2085Z" fill="#37276E"/>
<path d="M272.091 64.9909H277.091V67.3883H269.048V52.3159H272.091V64.9909Z" fill="#45BBC9"/>
<path d="M279.231 53.4924C278.878 53.155 278.699 52.7333 278.699 52.2316C278.699 51.7299 278.878 51.3082 279.231 50.9663C279.584 50.6289 280.031 50.4602 280.567 50.4602C281.103 50.4602 281.55 50.6289 281.903 50.9663C282.256 51.3037 282.435 51.7255 282.435 52.2316C282.435 52.7377 282.256 53.155 281.903 53.4924C281.55 53.8299 281.103 53.9986 280.567 53.9986C280.031 53.9986 279.584 53.8299 279.231 53.4924ZM282.068 67.3883H279.026V55.4281H282.068V67.3883Z" fill="#45BBC9"/>
<path d="M290.084 64.6047L293.127 55.4281H296.362L291.907 67.3883H288.217L283.78 55.4281H287.042L290.084 64.6047Z" fill="#45BBC9"/>
<path d="M309.186 62.3139H300.383C300.455 63.1796 300.759 63.8544 301.295 64.3428C301.831 64.8311 302.488 65.0753 303.274 65.0753C304.405 65.0753 305.209 64.5914 305.687 63.628H308.967C308.618 64.7778 307.952 65.7279 306.969 66.4693C305.986 67.2107 304.776 67.5792 303.341 67.5792C302.184 67.5792 301.143 67.3217 300.223 66.8112C299.302 66.3006 298.587 65.577 298.069 64.6402C297.555 63.7035 297.296 62.6247 297.296 61.3993C297.296 60.174 297.551 59.073 298.055 58.1407C298.56 57.2039 299.271 56.4847 300.187 55.983C301.098 55.4814 302.148 55.2283 303.337 55.2283C304.525 55.2283 305.504 55.4725 306.411 55.9608C307.318 56.4492 308.019 57.1462 308.52 58.043C309.02 58.9442 309.27 59.9742 309.27 61.1418C309.27 61.5725 309.239 61.9632 309.181 62.3094M306.116 60.2806C306.103 59.5036 305.821 58.8821 305.267 58.4115C304.717 57.9453 304.043 57.71 303.247 57.71C302.492 57.71 301.862 57.9365 301.344 58.3893C300.83 58.8421 300.513 59.4725 300.397 60.2806H306.112H306.116Z" fill="#45BBC9"/>
<path d="M348.711 53.1151C348.058 52.4491 346.986 52.4358 346.307 53.084C345.636 53.7322 345.623 54.7977 346.275 55.4725C350.788 60.0719 350.694 67.4638 346.065 71.9478C345.73 72.2719 345.556 72.7025 345.552 73.1331C345.547 73.5638 345.708 73.9988 346.034 74.3274C346.687 74.9933 347.759 75.0066 348.438 74.3585C354.412 68.5781 354.533 59.0464 348.711 53.1151Z" fill="#45BBC9"/>
<path d="M344.068 57.6124C343.416 56.9464 342.344 56.9331 341.664 57.5813C340.994 58.2295 340.981 59.295 341.633 59.9698C343.653 62.0209 343.613 65.3284 341.539 67.3306C341.204 67.6547 341.03 68.0853 341.025 68.516C341.021 68.9466 341.182 69.3817 341.508 69.7102C342.16 70.3762 343.233 70.3895 343.903 69.7413C347.321 66.4471 347.388 61.0042 344.064 57.6124" fill="#45BBC9"/>
</g>
</g>
</g>
<defs>
<clipPath id="clip0_0_320">
<rect width="353" height="77" fill="white"/>
</clipPath>
</defs>
</svg>
