<svg width="348" height="457" viewBox="0 0 348 457" fill="none" xmlns="http://www.w3.org/2000/svg">
<rect width="348" height="457" fill="#F5F5F5"/>
<g clip-path="url(#clip0_0_1)">
<rect width="1920" height="978" transform="translate(-1465 -372)" fill="black"/>
<g filter="url(#filter0_d_0_1)">
<path d="M-1498 -394H482V606H-1498V-394Z" fill="white"/>
</g>
<g style="mix-blend-mode:luminosity" opacity="0.1">
<mask id="mask0_0_1" style="mask-type:luminance" maskUnits="userSpaceOnUse" x="0" y="0" width="348" height="457">
<path d="M347.496 0H0V456.352H347.496V0Z" fill="white"/>
</mask>
<g mask="url(#mask0_0_1)">
<path d="M56.8617 0V59.1839H0V113.858H56.8617V171.118L110.017 170.781V113.858H171.969V59.1839H110.017V0H56.8617Z" fill="#43BAC9"/>
<mask id="mask1_0_1" style="mask-type:luminance" maskUnits="userSpaceOnUse" x="0" y="0" width="348" height="457">
<path d="M347.496 0H0V456.352H347.496V0Z" fill="white"/>
</mask>
<g mask="url(#mask1_0_1)">
<path d="M56.9697 190.412V306.782C56.9697 341.582 63.2884 366.708 75.9191 382.167C88.5565 397.633 106.736 405.363 130.465 405.363H162.855C160.175 396.115 158.839 385.739 158.839 374.229C158.839 362.718 160.155 353.166 162.714 344.154H139.721C128.926 344.154 121.298 341.251 116.835 335.452C112.36 329.653 110.125 320.101 110.125 306.782V189.359" fill="#37276E"/>
<path d="M169.68 415.719C161.37 411.351 154.842 405.107 150.103 396.985C145.351 388.864 142.981 379.312 142.981 368.322C142.981 357.331 145.384 347.968 150.191 339.847C154.998 331.733 161.553 325.488 169.863 321.114C178.166 316.746 187.563 314.552 198.054 314.552C208.545 314.552 217.942 316.739 226.252 321.114C234.555 325.481 241.11 331.733 245.917 339.847C250.723 347.968 253.127 357.46 253.127 368.322C253.127 379.184 250.723 388.716 245.917 396.891C241.104 405.066 234.522 411.344 226.151 415.719C217.786 420.086 208.356 422.274 197.865 422.274C187.374 422.274 177.977 420.086 169.674 415.719M210.698 384.713C214.127 380.905 215.849 375.437 215.849 368.322C215.849 361.206 214.127 355.772 210.698 352.025C207.262 348.279 203.049 346.402 198.054 346.402C193.058 346.402 188.873 348.279 185.504 352.025C182.136 355.772 180.441 361.206 180.441 368.322C180.441 375.437 182.061 381.067 185.315 384.814C188.562 388.554 192.741 390.43 197.865 390.43C202.989 390.43 207.262 388.527 210.698 384.719" fill="#37276E"/>
<path d="M315.753 294.59C310.927 289.641 302.974 289.54 297.979 294.36C293.03 299.187 292.929 307.139 297.756 312.135C331.152 346.395 330.45 401.448 296.19 434.844C293.712 437.254 292.43 440.454 292.389 443.66C292.349 446.874 293.55 450.094 295.967 452.571C300.794 457.519 308.746 457.621 313.742 452.801C357.946 409.758 358.85 338.747 315.753 294.59Z" fill="#45BBC9"/>
<path d="M281.399 328.08C276.572 323.132 268.62 323.031 263.624 327.851C258.676 332.678 258.575 340.63 263.401 345.626C278.347 360.909 278.037 385.536 262.706 400.442C260.228 402.852 258.946 406.052 258.905 409.258C258.865 412.472 260.066 415.692 262.483 418.169C267.31 423.118 275.262 423.219 280.211 418.392C305.492 393.84 306.005 353.308 281.406 328.074" fill="#45BBC9"/>
</g>
</g>
</g>
</g>
<defs>
<filter id="filter0_d_0_1" x="-1502" y="-394" width="1988" height="1008" filterUnits="userSpaceOnUse" color-interpolation-filters="sRGB">
<feFlood flood-opacity="0" result="BackgroundImageFix"/>
<feColorMatrix in="SourceAlpha" type="matrix" values="0 0 0 0 0 0 0 0 0 0 0 0 0 0 0 0 0 0 127 0" result="hardAlpha"/>
<feOffset dy="4"/>
<feGaussianBlur stdDeviation="2"/>
<feComposite in2="hardAlpha" operator="out"/>
<feColorMatrix type="matrix" values="0 0 0 0 0 0 0 0 0 0 0 0 0 0 0 0 0 0 0.25 0"/>
<feBlend mode="normal" in2="BackgroundImageFix" result="effect1_dropShadow_0_1"/>
<feBlend mode="normal" in="SourceGraphic" in2="effect1_dropShadow_0_1" result="shape"/>
</filter>
<clipPath id="clip0_0_1">
<rect width="1920" height="978" fill="white" transform="translate(-1465 -372)"/>
</clipPath>
</defs>
</svg>
