<svg width="393" height="106" viewBox="0 0 393 106" fill="none" xmlns="http://www.w3.org/2000/svg">
<path fill-rule="evenodd" clip-rule="evenodd" d="M393 43.3967V76.0312H384.081V44.9447C384.081 41.3797 381.367 39.5972 375.926 39.5972C373.272 39.9122 371.382 40.723 370.216 42.0632C369.07 43.4235 368.394 44.5024 368.159 45.3334V76.0312H356.184V33.6064H368.159V37.0441C368.327 36.9369 368.883 36.575 369.854 35.9183C370.813 35.2817 372.193 34.6853 373.956 34.1559C375.738 33.6265 377.775 33.3518 380.134 33.3518C384.55 33.3518 387.8 34.3703 389.877 36.3874C391.961 38.4044 393 40.7364 393 43.3967ZM333.4 69.4038C337.287 68.345 339.237 66.6429 339.237 64.3109V54.6278C339.217 54.6881 339.07 54.9897 338.795 55.519C338.54 56.0484 337.924 56.5577 336.965 57.0871C336.014 57.5964 334.566 57.9784 332.616 58.2129C329.306 58.6619 326.76 59.399 325.017 60.4243C323.275 61.4629 322.404 63.2052 322.404 65.6913C322.679 68.5795 324.97 70.0203 329.326 70.0203C330.619 70.0203 331.98 69.8058 333.4 69.4038ZM339.237 76.0244V71.5682C338.895 72.3522 337.796 73.3105 335.907 74.4363C333.997 75.5822 330.787 76.1585 326.244 76.1585C322.357 76.011 319.134 75.0126 316.561 73.1631C313.994 71.3136 312.674 68.4053 312.614 64.4382C312.614 60.1696 314.141 56.9665 317.197 54.8221C320.253 52.6778 324.843 51.3845 330.955 50.9355C333.776 50.701 335.947 49.9772 337.475 48.771C339.003 47.5581 339.766 46.2045 339.766 44.6968C339.766 43.189 339.07 41.8287 337.662 40.7498C336.262 39.6441 334.372 39.0946 331.993 39.0946C327.068 39.0946 323.248 40.006 320.528 41.8086C317.787 43.638 316.004 45.139 315.153 46.372L316.936 37.942C316.936 37.7946 317.572 37.3456 318.866 36.6018C320.159 35.8379 321.968 35.1343 324.3 34.4977C326.612 33.841 329.393 33.4992 332.603 33.4791C339.163 33.4791 343.901 34.5848 346.809 36.8095C349.738 39.041 351.205 41.9694 351.205 45.5813V76.0244H339.23H339.237ZM296.564 76.0244V16.666H308.285V76.0312H296.564V76.0244ZM264.949 42.6462V68.4857C265.331 68.8275 266.115 69.2697 267.327 69.846C268.54 70.4223 270.216 70.7842 272.36 70.9316C276.434 70.9316 279.195 69.5311 280.596 66.7501C282.016 63.949 282.78 60.0021 282.928 54.8824C282.928 51.0427 282.613 47.9803 281.949 45.7287C281.293 43.457 280.187 41.8019 278.592 40.7632C277.024 39.7245 274.813 39.2152 271.945 39.2152C270.075 39.4029 268.44 39.9792 267.039 40.8905C265.639 41.822 264.935 42.3983 264.935 42.6529L264.949 42.6462ZM253.101 93.0922V33.6064H264.949V36.642C264.949 36.642 265.458 36.3472 266.497 35.7709C267.562 35.1946 268.808 34.6652 270.236 34.2028C271.676 33.7136 273.231 33.4389 274.906 33.3518C277.922 33.3518 280.636 33.7337 283.062 34.4776C285.481 35.2415 287.625 37.1982 289.515 40.3343C291.405 43.4772 292.336 48.2349 292.336 54.6211C292.209 60.7392 291.378 65.3831 289.81 68.5728C288.262 71.7357 286.372 73.8198 284.12 74.7713C281.869 75.7296 279.175 76.2791 276.032 76.4064C271.677 76.4064 267.984 75.6425 264.949 74.1347V93.0922H253.101ZM247.754 43.39V76.0244H238.834V44.938C238.834 41.373 236.114 39.5905 230.679 39.5905C228.025 39.9055 226.136 40.7163 224.97 42.0565C223.824 43.4168 223.147 44.4957 222.913 45.3267V76.0244H210.938V33.6064H222.913V37.0441C223.08 36.9369 223.636 36.575 224.608 35.9183C225.566 35.2817 226.947 34.6853 228.709 34.1559C230.491 33.6265 232.529 33.3518 234.887 33.3518C239.303 33.3518 242.553 34.3703 244.631 36.3874C246.715 38.4044 247.754 40.7364 247.754 43.3967V43.39ZM178.431 54.7484C178.578 58.4206 178.792 61.2016 179.067 63.0913C179.342 64.981 180.106 66.7032 181.319 68.2512C182.552 69.779 184.421 70.5429 186.988 70.5429C190.533 70.5429 192.784 69.1826 193.716 66.4888C194.647 63.7681 195.116 59.9485 195.116 54.983C195.116 50.0174 194.647 46.2581 193.696 43.4302C192.764 40.6091 190.513 39.1817 186.988 39.1817C183.336 39.289 181.004 40.7096 179.958 43.4302C178.94 46.1509 178.431 49.9303 178.431 54.7484ZM186.861 33.3451C191.786 33.3451 195.733 34.1492 198.688 35.7441C201.636 37.3389 203.761 39.691 205.034 42.8338C206.327 45.9566 206.964 49.9236 206.964 54.7484C206.964 62.2671 205.369 67.7821 202.186 71.2667C198.976 74.7713 193.776 76.5136 186.559 76.5136C179.724 76.4466 174.691 74.711 171.441 71.2466C168.191 67.8089 166.576 62.3542 166.576 54.8757C166.704 40.522 173.458 33.3451 186.854 33.3451H186.861ZM162.998 72.7074C162.998 73.1296 161.47 73.8332 158.414 74.8518C155.359 75.8502 151.619 76.3997 147.203 76.5069C136.924 76.5069 129.754 73.8935 125.673 68.6934C121.598 63.4733 119.561 55.3381 119.561 44.3014C119.776 38.3374 120.687 33.3451 122.322 29.2708C123.937 25.2166 126.611 22.0537 130.33 19.8021C134.042 17.5305 139.035 16.3645 145.32 16.2773C149.08 16.2773 152.43 16.5521 155.446 17.1284C158.441 17.698 160.565 18.1872 161.859 18.5959L164.405 28.6409C163.299 27.877 161.349 26.9187 158.501 25.7929C155.653 24.647 152.236 24.0707 148.222 24.0707C142.7 24.0707 139.008 26.0007 137.138 29.8471C135.249 33.7136 134.317 38.5317 134.317 44.3081C134.317 48.7643 134.572 52.6912 135.081 56.0886C135.59 59.4861 136.716 62.3944 138.438 64.8336C140.181 67.2527 142.707 68.5728 146.037 68.7805C149.964 68.7805 153.234 68.3986 155.848 67.6749C158.461 66.931 160.478 66.1068 161.879 65.1687C163.172 64.3377 163.809 63.8753 163.809 63.7882H163.789L163.005 72.7074H162.998Z" fill="#0099D6"/>
<path fill-rule="evenodd" clip-rule="evenodd" d="M88.7363 14.1396V24.1243L90.9544 26.8986L92.891 30.2223L94.5529 33.5528L95.94 37.158L97.0524 40.7632L97.8834 44.3684L98.4395 48.2483V52.4097V56.2896L97.8834 60.1696L97.0524 64.0562L95.94 67.6614L94.5529 70.9852L92.891 74.5904L90.9544 77.6394L88.7363 80.6884V90.9545L92.3348 87.3493L95.6653 83.1879L98.4395 78.7518L100.932 74.0342L102.876 69.0486L104.263 63.7748L105.094 58.233L105.368 52.6844L105.094 46.8612L104.263 41.5941L102.876 36.327L100.932 31.3347L98.4395 26.6171L95.6653 21.9062L92.3348 17.7448" fill="#0099D6"/>
<path fill-rule="evenodd" clip-rule="evenodd" d="M52.6841 0L47.4171 0.274746L42.15 0.830938L37.1577 2.21807L32.1653 4.16139L27.7292 6.37946L23.2931 8.87227L19.1317 11.9213L15.5265 15.2517L12.2027 19.1317L9.15372 23.0183L6.37946 27.4545L4.16139 32.1653L2.49281 36.8829L1.11238 41.8685L0.274746 47.1423L0 52.6841L0.274746 57.9512L1.11238 63.225L2.49281 68.2106L4.16139 73.2029L6.37946 77.6391L9.15372 82.0752L12.2027 86.2366L15.5265 89.8418L19.1317 93.1722L23.2931 96.2212L27.7292 98.9955L32.1653 101.214L37.1577 102.875L42.15 104.263L47.4171 105.094L52.6841 105.368L57.9512 105.094L62.9435 104.263L67.6611 103.15L72.372 101.488L76.8081 99.545L80.9695 97.0522L85.1309 94.2779L88.7361 90.9542V80.6881L85.4057 84.5747L81.5257 87.8985L77.3643 90.9542L72.9282 93.447L68.2106 95.3903L63.225 97.0522L57.9512 97.8831L52.6841 98.1579L47.9733 97.8831L43.5371 97.3269L39.101 96.2212L34.9396 94.5527L30.7782 92.6161L27.173 90.398L23.5678 87.6237L20.2441 84.8495L17.1883 81.5257L14.6955 77.9205L12.4775 74.3153L10.5341 70.1539L8.87227 65.9925L7.76659 61.5564L6.92895 57.1203V52.4094V47.6918L7.76659 42.9809L8.87227 38.8195L10.5341 34.3834L12.4775 30.5035L14.6955 26.6168L17.1883 23.2931L20.2441 19.9626L23.5678 16.9136L27.173 14.4208L30.7782 11.9213L34.9396 9.98465L39.101 8.59752L43.5371 7.48514L47.9733 6.6542L52.6841 6.37946L57.9512 6.93565L63.225 7.76659L68.2106 9.15372L72.9282 11.3718L77.3643 13.8646L81.5257 16.6389L85.4057 20.2441L88.7361 24.124V14.1393L85.1309 11.0903L80.9695 8.04133L76.8081 5.82326L72.372 3.6052L67.6611 1.94332L62.9435 0.830938L57.9512 0.274746" fill="#0099D6"/>
<path fill-rule="evenodd" clip-rule="evenodd" d="M88.7363 31.0596V38.5447L89.842 41.8685L90.6729 45.1989L91.2291 48.8041V52.4093V56.0145L90.6729 59.6197L89.842 63.2249L88.7363 66.5487V74.59L90.1168 72.0972L91.2291 69.5977L92.3348 67.1048L93.1725 64.3306L94.0034 61.5563L94.2781 58.7888L94.8343 55.7331V52.6841V49.9098L94.2781 46.8608L94.0034 44.0865L93.1725 41.319L92.3348 38.5447L91.2291 36.0452L90.1168 33.5524" fill="#0099D6"/>
<path fill-rule="evenodd" clip-rule="evenodd" d="M52.9656 11.0908H48.8042L44.6428 11.9218L40.4814 12.7594L36.6015 14.1398L32.9963 16.0831L29.6725 18.0265L26.3421 20.5193L23.2931 23.2935L20.7935 26.0678L18.3007 29.3916L16.0827 32.9968L14.4208 36.602L13.0337 40.4819L11.9213 44.3685L11.3718 48.5232L11.0903 52.6846L11.3718 57.1208L11.9213 61.2821L13.0337 65.1621L14.4208 69.0487L16.0827 72.6539L18.3007 76.2524L20.7935 79.3081L23.2931 82.3571L26.3421 85.1314L29.6725 87.6242L32.9963 89.5675L36.6015 91.2294L40.4814 92.8913L44.6428 93.7222L48.8042 94.5532H52.9656H55.7331L58.5074 94.2784L61.2816 93.7222L64.0559 93.1727L66.5487 92.3351L69.0482 91.5042L71.5411 90.3985L73.7591 89.0113L75.9772 87.6242L78.1953 86.2371L82.0752 82.6319L85.6804 78.7519L87.349 76.8086L88.7361 74.5905V66.5492L87.6237 69.0487L86.2366 71.5415L84.8495 74.0344L83.1876 76.2524L81.2443 78.4705L79.3076 80.6886L77.0896 82.3571L74.8715 84.2938L72.372 85.6809L69.8792 87.068L67.1049 88.1804L64.6054 89.2861L61.5564 90.117L58.7821 90.6732L55.7331 90.9547H52.6841H48.8042L44.9242 90.3985L41.319 89.2861L37.7138 87.899L34.3834 86.5118L31.0596 84.5752L28.2854 82.3571L25.5111 79.8576L23.0183 77.0901L20.7935 74.0344L18.8569 70.9854L17.1883 67.3802L15.8079 64.0564L14.977 60.1698L14.4208 56.2898L14.1393 52.4099L14.4208 48.5232L14.977 44.6433L15.8079 41.0381L17.1883 37.4329L18.8569 34.1091L20.7935 30.7787L23.0183 28.0044L25.5111 25.2369L28.2854 22.7374L31.0596 20.5193L34.3834 18.5827L37.7138 16.9141L41.319 15.527L44.9242 14.696L48.8042 14.1398L52.6841 13.8651H55.7331L58.7821 14.4213L61.5564 14.9775L64.6054 15.8084L67.1049 16.6393L69.8792 17.745L72.372 19.1322L74.8715 20.8007L77.0896 22.4626L79.3076 24.3992L81.2443 26.3426L83.1876 28.5606L84.8495 30.7787L86.2366 33.2782L87.6237 35.771L88.7361 38.5453V31.0601L87.349 28.8421L85.6804 26.6173L82.0752 22.7374L78.1953 19.4136L75.9772 18.0265L73.7591 16.6393L71.5411 15.2522L69.0482 14.1398L66.5487 13.3089L64.0559 12.478L61.2816 11.9218L58.5074 11.3723L55.7331 11.0908" fill="#0099D6"/>
<path fill-rule="evenodd" clip-rule="evenodd" d="M52.9653 29.6729L51.5782 29.9476L50.191 30.2223L49.0787 30.7785L47.9663 31.8842L47.1353 32.7152L46.5791 34.1023L46.0229 35.208V38.257L46.5791 39.3627L47.1353 40.7498L47.9663 41.5807L49.0787 42.6931L50.191 43.2493L51.5782 43.524L52.9653 43.7988L54.3524 43.524L55.7396 43.2493L56.8519 42.6931L57.9643 41.5807L58.7953 40.7498L59.3515 39.3627L59.9077 38.257V35.208L59.3515 34.1023L58.7953 32.7152L57.9643 31.8842L56.8519 30.7785L55.7396 30.2223L54.3524 29.9476M52.9653 40.7632L51.3034 40.4884L50.191 39.6575L49.3601 38.2704L49.0854 36.6085L49.3601 35.2214L50.191 33.8342L51.3034 33.0033L52.9653 32.7286L54.6272 33.0033L55.7329 33.8342L56.5638 35.2214L56.8385 36.6085L56.5638 38.2704L55.7329 39.6575L54.6272 40.4884L52.9653 40.7632Z" fill="#0099D6"/>
<path fill-rule="evenodd" clip-rule="evenodd" d="M74.5899 46.3047H73.2028L71.8157 46.8609L70.71 47.4171L69.5976 48.248L68.7667 49.3537L68.2105 50.4661L67.6543 51.8532V54.6275L68.2105 56.0146L68.7667 57.127L69.5976 58.2394L70.71 59.0703L71.8157 59.6265L73.2028 60.1827H75.9771L77.3642 59.6265L78.4766 59.0703L79.589 58.2394L80.4199 57.127L81.2509 56.0146L81.5256 54.6275L81.8003 53.2403L81.5256 51.8532L81.2509 50.4661L80.4199 49.3537L79.589 48.248L78.4766 47.4171L77.3642 46.8609L75.9771 46.3047M74.5899 57.1203L73.2028 56.8455L71.8157 56.0146L70.9847 54.9022L70.71 53.2403L70.9847 51.5785L71.8157 50.4728L73.2028 49.6418L74.5899 49.3671L76.2518 49.6418L77.3575 50.4728L78.1884 51.5785L78.7446 53.2403L78.1884 54.9022L77.3575 56.0146L76.2518 56.8455L74.5899 57.1203Z" fill="#0099D6"/>
<path fill-rule="evenodd" clip-rule="evenodd" d="M52.9653 63.2246L51.5782 63.4994L50.191 63.7741L49.0787 64.3303L47.9663 65.1612L47.1353 66.2736L46.5791 67.6607L46.0229 68.7731V71.8221L46.5791 72.9345L47.1353 74.3217L47.9663 75.1526L49.0787 76.265L50.191 76.8212L51.5782 77.0959L52.9653 77.3707L54.3524 77.0959L55.7396 76.8212L56.8519 76.265L57.9643 75.1526L58.7953 74.3217L59.3515 72.9345L59.9077 71.8221V68.7731L59.3515 67.6607L58.7953 66.2736L57.9643 65.1612L56.8519 64.3303L55.7396 63.7741L54.3524 63.4994M52.9653 74.315L51.3034 74.0402L50.191 73.2093L49.3601 71.8221L49.0854 70.1603L49.3601 68.7731L50.191 67.386L51.3034 66.5551L52.9653 66.2803L54.6272 66.5551L55.7329 67.386L56.5638 68.7731L56.8385 70.1603L56.5638 71.8221L55.7329 73.2093L54.6272 74.0402L52.9653 74.315Z" fill="#0099D6"/>
<path fill-rule="evenodd" clip-rule="evenodd" d="M30.2218 46.3047H28.8347L27.4475 46.8609L26.3418 47.4171L25.2295 48.248L24.3985 49.3537L23.8423 50.4661L23.2861 51.8532V54.6275L23.8423 56.0146L24.3985 57.127L25.2295 58.2394L26.3418 59.0703L27.4475 59.6265L28.8347 60.1827H31.6089L32.996 59.6265L34.1084 59.0703L35.2208 58.2394L36.0517 57.127L36.8827 56.0146L37.1574 54.6275L37.4322 53.2403L37.1574 51.8532L36.8827 50.4661L36.0517 49.3537L35.2208 48.248L34.1084 47.4171L32.996 46.8609L31.6089 46.3047M30.2218 57.1203L28.8347 56.8455L27.4475 56.0146L26.6166 54.9022L26.3418 53.2403L26.6166 51.5785L27.4475 50.4728L28.8347 49.6418L30.2218 49.3671L31.8837 49.6418L32.996 50.4728L33.827 51.5785L34.3832 53.2403L33.827 54.9022L32.996 56.0146L31.8837 56.8455L30.2218 57.1203Z" fill="#0099D6"/>
<path fill-rule="evenodd" clip-rule="evenodd" d="M76.5334 33.5527L52.9655 51.5787L55.4584 53.522L78.1952 36.0522M50.466 53.522L28.0039 70.7171L29.6658 73.2099L52.9588 55.4654L50.466 53.522Z" fill="#0099D6"/>
<path fill-rule="evenodd" clip-rule="evenodd" d="M29.3909 33.5527L27.729 36.0455L50.4659 53.5153L52.9654 55.4587L75.977 73.2032L77.6389 70.7104L55.4582 53.5153L52.9654 51.5787" fill="#0099D6"/>
</svg>
