<svg width="304" height="82" viewBox="0 0 304 82" fill="none" xmlns="http://www.w3.org/2000/svg">
<g clip-path="url(#clip0_4_436)">
<path fill-rule="evenodd" clip-rule="evenodd" d="M304 33.5687V58.8126H297.101V34.7661C297.101 32.0084 295.001 30.6296 290.792 30.6296C288.74 30.8732 287.278 31.5004 286.376 32.5371C285.49 33.5894 284.966 34.424 284.785 35.0667V58.8126H275.522V25.9955H284.785V28.6547C284.914 28.5717 285.344 28.2918 286.096 27.7838C286.837 27.2914 287.905 26.8301 289.268 26.4205C290.647 26.011 292.223 25.7985 294.048 25.7985C297.464 25.7985 299.978 26.5864 301.585 28.1467C303.197 29.7069 304 31.5108 304 33.5687ZM257.898 53.6861C260.904 52.8671 262.412 51.5504 262.412 49.7466V42.2563C262.397 42.303 262.283 42.5362 262.07 42.9457C261.873 43.3552 261.396 43.7492 260.655 44.1587C259.919 44.5526 258.8 44.8481 257.291 45.0295C254.73 45.3768 252.761 45.947 251.413 46.7401C250.065 47.5435 249.391 48.8913 249.391 50.8144C249.604 53.0485 251.377 54.1629 254.746 54.1629C255.746 54.1629 256.799 53.9971 257.898 53.6861ZM262.412 58.8074V55.3603C262.148 55.9668 261.298 56.7081 259.836 57.5789C258.359 58.4653 255.876 58.9111 252.362 58.9111C249.355 58.797 246.862 58.0247 244.871 56.594C242.886 55.1634 241.865 52.9137 241.818 49.845C241.818 46.5431 243 44.0654 245.364 42.4066C247.727 40.7479 251.278 39.7475 256.006 39.4002C258.188 39.2188 259.867 38.6589 261.049 37.7259C262.231 36.7877 262.822 35.7406 262.822 34.5743C262.822 33.408 262.283 32.3557 261.194 31.5212C260.111 30.6659 258.649 30.2408 256.809 30.2408C252.999 30.2408 250.044 30.9458 247.94 32.3402C245.82 33.7553 244.441 34.9164 243.783 35.8702L245.162 29.3493C245.162 29.2352 245.654 28.8879 246.654 28.3125C247.655 27.7216 249.054 27.1773 250.858 26.6849C252.647 26.1769 254.798 25.9126 257.281 25.897C262.355 25.897 266.02 26.7523 268.27 28.4732C270.535 30.1994 271.67 32.4646 271.67 35.2585V58.8074H262.407H262.412ZM229.404 58.8074V12.8915H238.47V58.8126H229.404V58.8074ZM204.948 32.9881V52.9759C205.243 53.2403 205.849 53.5824 206.788 54.0282C207.726 54.474 209.022 54.7539 210.681 54.8679C213.832 54.8679 215.968 53.7845 217.051 51.6334C218.15 49.4666 218.741 46.4135 218.855 42.4533C218.855 39.4831 218.611 37.1142 218.098 35.3726C217.59 33.6153 216.735 32.335 215.501 31.5315C214.288 30.7281 212.578 30.3341 210.359 30.3341C208.913 30.4793 207.648 30.9251 206.565 31.63C205.481 32.3505 204.937 32.7963 204.937 32.9933L204.948 32.9881ZM195.783 72.0099V25.9955H204.948V28.3436C204.948 28.3436 205.341 28.1156 206.145 27.6698C206.969 27.224 207.933 26.8145 209.037 26.4568C210.152 26.0784 211.354 25.8659 212.65 25.7985C214.983 25.7985 217.082 26.094 218.959 26.6694C220.83 27.2603 222.489 28.7739 223.95 31.1998C225.412 33.6309 226.133 37.3112 226.133 42.2511C226.034 46.9837 225.391 50.5759 224.179 53.0433C222.981 55.4899 221.519 57.102 219.778 57.8381C218.036 58.5793 215.952 59.0044 213.521 59.1029C210.152 59.1029 207.296 58.5119 204.948 57.3456V72.0099H195.783ZM191.647 33.5635V58.8074H184.747V34.7609C184.747 32.0032 182.643 30.6244 178.439 30.6244C176.386 30.868 174.924 31.4953 174.022 32.532C173.136 33.5842 172.613 34.4188 172.431 35.0615V58.8074H163.168V25.9955H172.431V28.6547C172.561 28.5717 172.991 28.2918 173.743 27.7838C174.484 27.2914 175.552 26.8301 176.915 26.4205C178.294 26.011 179.869 25.7985 181.694 25.7985C185.11 25.7985 187.624 26.5864 189.231 28.1467C190.843 29.7069 191.647 31.5108 191.647 33.5687V33.5635ZM138.023 42.3496C138.137 45.1902 138.303 47.3414 138.515 48.8031C138.728 50.2649 139.319 51.5971 140.257 52.7945C141.211 53.9763 142.657 54.5673 144.642 54.5673C147.384 54.5673 149.126 53.515 149.846 51.4312C150.567 49.3267 150.93 46.3721 150.93 42.531C150.93 38.69 150.567 35.7821 149.831 33.5946C149.11 31.4123 147.369 30.3082 144.642 30.3082C141.817 30.3912 140.013 31.4901 139.204 33.5946C138.417 35.6991 138.023 38.6226 138.023 42.3496ZM144.544 25.7933C148.353 25.7933 151.407 26.4154 153.693 27.6491C155.973 28.8827 157.616 30.7022 158.601 33.1333C159.602 35.5488 160.094 38.6175 160.094 42.3496C160.094 48.1656 158.861 52.4316 156.398 55.1271C153.915 57.8381 149.893 59.1858 144.31 59.1858C139.023 59.134 135.13 57.7914 132.616 55.1115C130.102 52.4524 128.853 48.233 128.853 42.4481C128.951 31.3449 134.176 25.7933 144.538 25.7933H144.544ZM126.085 56.2416C126.085 56.5681 124.903 57.1124 122.539 57.9003C120.176 58.6726 117.283 59.0977 113.867 59.1806C105.916 59.1806 100.369 57.159 97.2125 53.1366C94.0609 49.0986 92.4851 42.8058 92.4851 34.2685C92.651 29.6551 93.3559 25.7933 94.6207 22.6417C95.87 19.5057 97.9382 17.059 100.815 15.3174C103.687 13.5601 107.549 12.6582 112.411 12.5908C115.319 12.5908 117.91 12.8033 120.243 13.2491C122.56 13.6897 124.203 14.0681 125.204 14.3843L127.173 22.1545C126.318 21.5636 124.81 20.8223 122.607 19.9515C120.404 19.0651 117.76 18.6193 114.655 18.6193C110.384 18.6193 107.528 20.1122 106.082 23.0875C104.62 26.0784 103.899 29.8054 103.899 34.2736C103.899 37.7207 104.096 40.7583 104.49 43.3863C104.884 46.0144 105.755 48.2641 107.087 50.1509C108.435 52.0221 110.389 53.0433 112.965 53.204C116.003 53.204 118.532 52.9085 120.554 52.3487C122.576 51.7733 124.136 51.1357 125.219 50.41C126.22 49.7673 126.712 49.4096 126.712 49.3422H126.697L126.09 56.2416H126.085Z" fill="white"/>
<path fill-rule="evenodd" clip-rule="evenodd" d="M68.6406 10.9375V18.661L70.3564 20.807L71.8544 23.378L73.14 25.9543L74.2129 28.743L75.0734 31.5318L75.7162 34.3205L76.1464 37.3218V40.5408V43.5421L75.7162 46.5434L75.0734 49.5498L74.2129 52.3386L73.14 54.9096L71.8544 57.6984L70.3564 60.0569L68.6406 62.4154V70.3566L71.4242 67.5679L74.0004 64.3489L76.1464 60.9174L78.0747 57.2681L79.5779 53.4116L80.6509 49.3321L81.2937 45.0453L81.5062 40.7533L81.2937 36.2488L80.6509 32.1745L79.5779 28.1003L78.0747 24.2385L76.1464 20.5893L74.0004 16.9452L71.4242 13.7263" fill="white"/>
<path fill-rule="evenodd" clip-rule="evenodd" d="M40.7531 0L36.6788 0.212526L32.6046 0.642761L28.7428 1.71576L24.8811 3.21899L21.4496 4.93475L18.018 6.86303L14.7991 9.22155L12.0103 11.7978L9.43926 14.7991L7.08074 17.8055L4.93475 21.237L3.21899 24.8811L1.92828 28.5303L0.86047 32.3869L0.212526 36.4663L0 40.7531L0.212526 44.8274L0.86047 48.9069L1.92828 52.7634L3.21899 56.6252L4.93475 60.0567L7.08074 63.4882L9.43926 66.7072L12.0103 69.4959L14.7991 72.0722L18.018 74.4307L21.4496 76.5767L24.8811 78.2924L28.7428 79.578L32.6046 80.6509L36.6788 81.2937L40.7531 81.5062L44.8274 81.2937L48.6891 80.6509L52.3384 79.7905L55.9824 78.505L59.4139 77.0017L62.6329 75.0734L65.8519 72.9275L68.6406 70.3564V62.4152L66.0644 65.4217L63.0631 67.9927L59.8442 70.3564L56.4126 72.2847L52.7634 73.7879L48.9069 75.0734L44.8274 75.7162L40.7531 75.9287L37.1091 75.7162L33.6776 75.286L30.246 74.4307L27.0271 73.14L23.8081 71.6419L21.0193 69.9262L18.2306 67.7802L15.6595 65.6342L13.2958 63.0631L11.3675 60.2744L9.65178 57.4856L8.14855 54.2666L6.86303 51.0477L6.00774 47.6161L5.3598 44.1846V40.5406V36.8914L6.00774 33.2473L6.86303 30.0283L8.14855 26.5968L9.65178 23.5955L11.3675 20.5891L13.2958 18.018L15.6595 15.4418L18.2306 13.0833L21.0193 11.155L23.8081 9.22155L27.0271 7.7235L30.246 6.6505L33.6776 5.79003L37.1091 5.14727L40.7531 4.93475L44.8274 5.36498L48.9069 6.00774L52.7634 7.08074L56.4126 8.79649L59.8442 10.7248L63.0631 12.8708L66.0644 15.6595L68.6406 18.6608V10.9373L65.8519 8.57878L62.6329 6.22027L59.4139 4.50451L55.9824 2.78875L52.3384 1.50323L48.6891 0.642761L44.8274 0.212526" fill="white"/>
<path fill-rule="evenodd" clip-rule="evenodd" d="M68.6406 24.0254V29.8154L69.4959 32.3865L70.1387 34.9627L70.5689 37.7515V40.5402V43.329L70.1387 46.1177L69.4959 48.9065L68.6406 51.4775V57.6978L69.7084 55.7695L70.5689 53.836L71.4242 51.9077L72.0721 49.7618L72.7149 47.6158L72.9274 45.475L73.3577 43.1112V40.7527V38.6067L72.9274 36.2482L72.7149 34.1022L72.0721 31.9614L71.4242 29.8154L70.5689 27.882L69.7084 25.9537" fill="white"/>
<path fill-rule="evenodd" clip-rule="evenodd" d="M40.9709 8.5791H37.7519L34.5329 9.22186L31.3139 9.86981L28.3127 10.9376L25.5239 12.4409L22.9529 13.9441L20.3766 15.8724L18.0181 18.0184L16.0846 20.1644L14.1564 22.7354L12.4406 25.5241L11.1551 28.3129L10.0821 31.3142L9.22162 34.3206L8.79657 37.5344L8.57886 40.7534L8.79657 44.1849L9.22162 47.4039L10.0821 50.4052L11.1551 53.4117L12.4406 56.2004L14.1564 58.984L16.0846 61.3477L18.0181 63.7062L20.3766 65.8522L22.9529 67.7805L25.5239 69.2837L28.3127 70.5692L31.3139 71.8548L34.5329 72.4975L37.7519 73.1403H40.9709H43.1117L45.2577 72.9278L47.4037 72.4975L49.5497 72.0725L51.478 71.4245L53.4114 70.7818L55.3397 69.9265L57.0555 68.8535L58.7712 67.7805L60.487 66.7075L63.4883 63.9187L66.277 60.9175L67.5677 59.4142L68.6407 57.6985V51.4782L67.7802 53.4117L66.7073 55.34L65.6343 57.2682L64.3487 58.984L62.8455 60.6998L61.3475 62.4155L59.6317 63.7062L57.9159 65.2043L55.9825 66.2773L54.0542 67.3503L51.9082 68.2107L49.9747 69.066L47.6162 69.7088L45.4702 70.139L43.1117 70.3567H40.7532H37.7519L34.7506 69.9265L31.9619 69.066L29.1731 67.993L26.5969 66.92L24.0259 65.422L21.8799 63.7062L19.7339 61.7728L17.8056 59.6319L16.0846 57.2682L14.5866 54.9097L13.2959 52.121L12.2281 49.5499L11.5853 46.5435L11.1551 43.5422L10.9374 40.5409L11.1551 37.5344L11.5853 34.5332L12.2281 31.7444L13.2959 28.9557L14.5866 26.3846L16.0846 23.8084L17.8056 21.6624L19.7339 19.5216L21.8799 17.5881L24.0259 15.8724L26.5969 14.3743L29.1731 13.0836L31.9619 12.0106L34.7506 11.3679L37.7519 10.9376L40.7532 10.7251H43.1117L45.4702 11.1553L47.6162 11.5856L49.9747 12.2283L51.9082 12.8711L54.0542 13.7264L55.9825 14.7994L57.9159 16.0901L59.6317 17.3756L61.3475 18.8736L62.8455 20.3769L64.3487 22.0926L65.6343 23.8084L66.7073 25.7419L67.7802 27.6701L68.6407 29.8161V24.0261L67.5677 22.3103L66.277 20.5894L63.4883 17.5881L60.487 15.0171L58.7712 13.9441L57.0555 12.8711L55.3397 11.7981L53.4114 10.9376L51.478 10.2949L49.5497 9.6521L47.4037 9.22186L45.2577 8.79681L43.1117 8.5791" fill="white"/>
<path fill-rule="evenodd" clip-rule="evenodd" d="M40.9708 22.9531L39.8978 23.1657L38.8248 23.3782L37.9643 23.8084L37.1038 24.6637L36.4611 25.3065L36.0308 26.3795L35.6006 27.2347V29.5933L36.0308 30.4485L36.4611 31.5215L37.1038 32.1643L37.9643 33.0248L38.8248 33.455L39.8978 33.6675L40.9708 33.8801L42.0437 33.6675L43.1167 33.455L43.9772 33.0248L44.8377 32.1643L45.4804 31.5215L45.9107 30.4485L46.3409 29.5933V27.2347L45.9107 26.3795L45.4804 25.3065L44.8377 24.6637L43.9772 23.8084L43.1167 23.3782L42.0437 23.1657M40.9708 31.5319L39.6852 31.3194L38.8248 30.6766L38.182 29.6036L37.9695 28.3181L38.182 27.2451L38.8248 26.1721L39.6852 25.5294L40.9708 25.3168L42.2563 25.5294L43.1116 26.1721L43.7543 27.2451L43.9668 28.3181L43.7543 29.6036L43.1116 30.6766L42.2563 31.3194L40.9708 31.5319Z" fill="white"/>
<path fill-rule="evenodd" clip-rule="evenodd" d="M57.6982 35.8184H56.6252L55.5522 36.2486L54.697 36.6788L53.8365 37.3216L53.1937 38.1769L52.7635 39.0373L52.3333 40.1103V42.2563L52.7635 43.3293L53.1937 44.1898L53.8365 45.0503L54.697 45.693L55.5522 46.1233L56.6252 46.5535H58.7712L59.8442 46.1233L60.7047 45.693L61.5652 45.0503L62.2079 44.1898L62.8507 43.3293L63.0632 42.2563L63.2757 41.1833L63.0632 40.1103L62.8507 39.0373L62.2079 38.1769L61.5652 37.3216L60.7047 36.6788L59.8442 36.2486L58.7712 35.8184M57.6982 44.1846L56.6252 43.9721L55.5522 43.3293L54.9095 42.4689L54.697 41.1833L54.9095 39.8978L55.5522 39.0425L56.6252 38.3998L57.6982 38.1872L58.9838 38.3998L59.839 39.0425L60.4818 39.8978L60.912 41.1833L60.4818 42.4689L59.839 43.3293L58.9838 43.9721L57.6982 44.1846Z" fill="white"/>
<path fill-rule="evenodd" clip-rule="evenodd" d="M40.9708 48.9072L39.8978 49.1198L38.8248 49.3323L37.9643 49.7625L37.1038 50.4053L36.4611 51.2657L36.0308 52.3387L35.6006 53.1992V55.5577L36.0308 56.4182L36.4611 57.4912L37.1038 58.134L37.9643 58.9944L38.8248 59.4247L39.8978 59.6372L40.9708 59.8497L42.0437 59.6372L43.1167 59.4247L43.9772 58.9944L44.8377 58.134L45.4804 57.4912L45.9107 56.4182L46.3409 55.5577V53.1992L45.9107 52.3387L45.4804 51.2657L44.8377 50.4053L43.9772 49.7625L43.1167 49.3323L42.0437 49.1198M40.9708 57.486L39.6852 57.2735L38.8248 56.6307L38.182 55.5577L37.9695 54.2722L38.182 53.1992L38.8248 52.1262L39.6852 51.4835L40.9708 51.2709L42.2563 51.4835L43.1116 52.1262L43.7543 53.1992L43.9668 54.2722L43.7543 55.5577L43.1116 56.6307L42.2563 57.2735L40.9708 57.486Z" fill="white"/>
<path fill-rule="evenodd" clip-rule="evenodd" d="M23.3779 35.8184H22.3049L21.2319 36.2486L20.3766 36.6788L19.5162 37.3216L18.8734 38.1769L18.4432 39.0373L18.0129 40.1103V42.2563L18.4432 43.3293L18.8734 44.1898L19.5162 45.0503L20.3766 45.693L21.2319 46.1233L22.3049 46.5535H24.4509L25.5239 46.1233L26.3844 45.693L27.2449 45.0503L27.8876 44.1898L28.5304 43.3293L28.7429 42.2563L28.9554 41.1833L28.7429 40.1103L28.5304 39.0373L27.8876 38.1769L27.2449 37.3216L26.3844 36.6788L25.5239 36.2486L24.4509 35.8184M23.3779 44.1846L22.3049 43.9721L21.2319 43.3293L20.5892 42.4689L20.3766 41.1833L20.5892 39.8978L21.2319 39.0425L22.3049 38.3998L23.3779 38.1872L24.6634 38.3998L25.5239 39.0425L26.1667 39.8978L26.5969 41.1833L26.1667 42.4689L25.5239 43.3293L24.6634 43.9721L23.3779 44.1846Z" fill="white"/>
<path fill-rule="evenodd" clip-rule="evenodd" d="M59.2014 25.9541L40.9709 39.8979L42.8991 41.4011L60.4869 27.8876M39.0374 41.4011L21.6621 54.7021L22.9476 56.6304L40.9657 42.9043L39.0374 41.4011Z" fill="white"/>
<path fill-rule="evenodd" clip-rule="evenodd" d="M22.735 25.9541L21.4495 27.8824L39.0373 41.3959L40.9707 42.8991L58.7711 56.6252L60.0566 54.6969L42.899 41.3959L40.9707 39.8979" fill="white"/>
</g>
<defs>
<clipPath id="clip0_4_436">
<rect width="304" height="81.5062" fill="white"/>
</clipPath>
</defs>
</svg>
