<svg width="1024" height="36" viewBox="0 0 1024 36" fill="none" xmlns="http://www.w3.org/2000/svg">
<g clip-path="url(#clip0_1_135)">
<path d="M28.4469 20.2499C28.868 20.2499 29.2289 19.9687 29.3492 19.4765L32.1164 11.4608L37.1694 35.0858C37.2897 35.6483 37.6506 35.9296 38.1319 35.9999C38.553 35.9296 38.9741 35.578 39.0342 35.0858L43.967 6.18741L46.7943 19.3358C46.9146 19.828 47.3357 20.2499 47.6966 20.2499H973.131C973.43 20.2499 973.61 19.9688 973.61 19.6875V18.5625C973.61 18.2109 973.43 18 973.131 18L48.4787 17.9999L44.8092 0.843659C44.6889 0.281159 44.3279 -9.15035e-05 43.8467 -9.15527e-05C43.4256 -9.15957e-05 43.0045 0.351471 42.9443 0.843659L38.0116 29.7421L33.2593 7.59366C33.139 7.10147 32.7781 6.74991 32.4171 6.74991C31.9359 6.6796 31.575 6.96085 31.4546 7.45303L27.8453 17.9999H0.481244C0.240622 17.9999 1.10442e-07 18.2108 8.41428e-08 18.5624L0 19.6874C-2.10293e-08 19.9687 0.240622 20.2499 0.481244 20.2499H28.4469Z" fill="#EB5757"/>
</g>
<defs>
<clipPath id="clip0_1_135">
<rect width="1024" height="36" fill="white"/>
</clipPath>
</defs>
</svg>
