<svg width="1080" height="37" viewBox="0 0 1080 37" fill="none" xmlns="http://www.w3.org/2000/svg">
<path d="M32.1778 20.9335C32.6523 20.9335 33.059 20.6484 33.1945 20.1494L36.3124 12.0224L42.006 35.9754C42.1415 36.5457 42.5482 36.8309 43.0905 36.9022C43.5649 36.8309 44.0394 36.4745 44.1072 35.9754L49.6652 6.67576L52.8509 20.0067C52.9864 20.5058 53.4609 20.9335 53.8676 20.9335L1078.9 20.9334C1079.24 20.9334 1079.44 20.6484 1079.44 20.3632V19.2226C1079.44 18.8661 1079.24 18.6523 1078.9 18.6523H54.7488L50.6141 1.25781C50.4786 0.687499 50.0719 0.402344 49.5296 0.402344C49.0552 0.402344 48.5807 0.758788 48.5129 1.25781L42.9549 30.5575L37.6002 8.10154C37.4647 7.60252 37.058 7.24607 36.6513 7.24607C36.109 7.17479 35.7024 7.45994 35.5668 7.95896L31.5 18.6523H0.667247C0.396124 18.6523 0.125 18.8661 0.125 19.2226L0.125 20.3632C0.125 20.6484 0.396123 20.9335 0.667246 20.9335H32.1778Z" fill="#299FD9"/>
</svg>
