<svg width="937" height="31" viewBox="0 0 937 31" fill="none" xmlns="http://www.w3.org/2000/svg">
<g clip-path="url(#clip0_0_557)">
<path d="M27.3912 17.5452C27.7967 17.5452 28.1442 17.3015 28.2601 16.8751L30.9246 9.93L35.7901 30.3995C35.9059 30.8868 36.2534 31.1306 36.7168 31.1915C37.1223 31.1306 37.5278 30.8259 37.5857 30.3995L42.3354 5.36096L45.0578 16.7532C45.1736 17.1796 45.5791 17.5452 45.9266 17.5452H937.018C937.307 17.5452 937.48 17.3016 937.48 17.0579V16.0831C937.48 15.7785 937.307 15.5958 937.018 15.5958L46.6797 15.5957L43.1463 0.730961C43.0305 0.243593 42.6829 -9.15101e-05 42.2195 -9.15527e-05C41.8141 -9.159e-05 41.4086 0.304513 41.3507 0.730961L36.601 25.7695L32.0251 6.57938C31.9092 6.15293 31.5617 5.84833 31.2141 5.84833C30.7507 5.78741 30.4033 6.03109 30.2874 6.45754L26.812 15.5957H0.463386C0.231693 15.5957 1.06344e-07 15.7784 8.10204e-08 16.0831L0 17.0578C-2.02489e-08 17.3015 0.231692 17.5452 0.463385 17.5452H27.3912Z" fill="white" fill-opacity="0.3"/>
</g>
<defs>
<clipPath id="clip0_0_557">
<rect width="937" height="31" fill="white"/>
</clipPath>
</defs>
</svg>
