<svg width="181" height="35" viewBox="0 0 181 35" fill="none" xmlns="http://www.w3.org/2000/svg">
<path d="M46.4586 0H17.1773L0 17.0394L17.1865 34.0696H46.4678L63.6542 17.0394L46.4586 0ZM42.0103 24.6125H21.6347L13.9973 17.0394L21.6347 9.46634H42.0103L49.6477 17.0394L42.0103 24.6125V24.6125Z" fill="white"/>
<path d="M40.7328 11.3596H22.9122L17.1865 17.0302L22.9122 22.71H40.7328L46.4586 17.0302L40.7328 11.3596V11.3596Z" fill="white"/>
<path d="M94.4703 9.46633H88.138V24.6125H94.4703V9.46633Z" fill="white"/>
<path d="M137.005 17.6827C137.005 18.9419 136.334 19.5209 134.918 19.5209H129.229C127.722 19.5209 126.84 19.0797 126.84 17.6919V9.46633H120.581V20.2285C120.608 22.5905 122.474 24.5114 124.836 24.6033H138.576C141.085 24.6033 143.484 22.6916 143.484 20.1274V9.46633H137.005C137.005 12.5728 137.005 14.6223 137.005 17.6827V17.6827Z" fill="white"/>
<path d="M151.397 9.46633H145.046V24.6125H151.397V9.46633Z" fill="white"/>
<path d="M77.8995 9.46633L72.8539 14.466L67.7899 9.47552H59.1783L66.8065 17.0578L59.1783 24.6033H67.4866L72.7988 19.3554L78.065 24.6033H86.5663L78.9381 17.0394L86.5663 9.46633H77.9087H77.8995Z" fill="white"/>
<path d="M115.324 9.46634H99.4058C97.6688 9.35605 96.1707 10.6703 96.0604 12.4165C96.0512 12.5636 96.0604 12.7106 96.0604 12.8577V21.3222C96.0788 23.1512 97.5769 24.6217 99.4058 24.6033C99.415 24.6033 99.4242 24.6033 99.4334 24.6033H108.385L109.24 27.0572H116.041L114.442 24.6033H116.059C118.136 24.6033 119.009 23.0133 119.009 21.3222V12.8025C118.991 10.7255 117.511 9.46634 115.315 9.46634H115.324ZM112.888 18.3629C112.888 19.0981 112.585 19.4841 111.942 19.4841H111.234L110.398 18.1974H106.29L106.74 19.4749H103.578C103.073 19.5393 102.623 19.1716 102.567 18.6661C102.567 18.6294 102.567 18.5926 102.567 18.5651V15.7895C102.549 15.2656 102.963 14.8245 103.496 14.8061C103.523 14.8061 103.56 14.8061 103.588 14.8061H111.969C112.502 14.8245 112.925 15.2656 112.916 15.7987C112.916 15.8354 112.916 15.863 112.916 15.8998V18.3629H112.888Z" fill="white"/>
<path d="M167.021 18.1239L162.444 9.47552H152.978V24.6033H159.926V17.3978L163.832 24.6033H170.569L174.162 17.4714V24.6033H181V9.45714L171.773 9.47552L167.012 18.1239H167.021Z" fill="white"/>
</svg>
