<svg width="82" height="72" viewBox="0 0 82 72" fill="none" xmlns="http://www.w3.org/2000/svg">
<path d="M52.4531 30.7647C49.484 19.4541 43.5459 12.3849 40.7183 9.41587C37.7492 12.3849 31.8112 19.4541 28.8421 30.7647C27.5697 29.775 26.2972 28.9267 24.8834 28.2198C28.7007 15.0712 36.194 7.29513 38.7389 5.033C39.3045 4.46747 40.0114 4.32609 40.7183 4.32609C41.4252 4.32609 42.1321 4.46747 42.6976 5.033C45.1012 7.29513 52.5944 15.0712 56.4118 28.2198C54.998 28.9267 53.7255 29.775 52.4531 30.7647ZM27.1455 66.1104C11.452 61.4448 0 46.8823 0 29.775C0 28.0784 1.27245 26.806 2.82766 26.806C11.8762 26.806 20.3591 29.9164 27.1455 35.0062C33.225 39.6718 38.032 46.1754 40.7183 53.6687C43.2632 46.1754 48.0702 39.8132 54.291 35.0062C60.936 29.9164 69.419 26.806 78.4675 26.806C80.0227 26.806 81.4366 28.0784 81.4366 29.775C81.4366 46.8823 69.9845 61.4448 54.291 66.1104C50.7565 67.1001 47.2219 67.5243 43.5459 67.5243H37.7492C34.0733 67.5243 30.5387 67.1001 27.1455 66.1104ZM27.1455 61.162C30.5387 62.4345 34.356 63 38.1734 63C37.3251 54.3756 33.225 46.5996 27.1455 40.9443C21.0661 35.4303 13.1486 31.8958 4.52425 31.4716C5.23117 45.3271 14.5624 56.7792 27.1455 61.162ZM54.291 61.162C66.7327 56.7792 76.064 45.3271 76.7709 31.4716C68.1466 31.8958 60.2291 35.4303 54.291 40.9443C48.2116 46.5996 44.1115 54.3756 43.1218 63C46.9391 63 50.7565 62.4345 54.291 61.162Z" fill="#3BC1CD"/>
</svg>
