<svg width="83" height="75" viewBox="0 0 83 75" fill="none" xmlns="http://www.w3.org/2000/svg">
<path d="M59.7468 0.734233H75.5632C76.693 0.734233 77.8227 1.86398 77.8227 2.99372V18.8102C77.8227 20.0811 76.693 21.0697 75.5632 21.0697C74.2923 21.0697 73.3037 20.0811 73.3037 18.8102V8.36002L49.8615 29.5428C49.1554 30.2488 47.8845 30.3901 47.0371 29.684L27.9727 14.8561L4.53046 31.9435C3.54193 32.7908 2.12975 32.5083 1.42365 31.5198C0.576345 30.5313 0.858782 29.1191 1.84731 28.413L26.7017 10.3371C27.549 9.63098 28.6788 9.63098 29.3849 10.3371L48.3081 25.0238L69.9145 5.25322H59.7468C58.4758 5.25322 57.4873 4.26469 57.4873 2.99372C57.4873 1.86398 58.4758 0.734233 59.7468 0.734233ZM28.1139 64C29.2436 64 30.3734 63.0115 30.3734 61.7405V39.1456C30.3734 38.0158 29.2436 36.8861 28.1139 36.8861C26.8429 36.8861 25.8544 38.0158 25.8544 39.1456V61.7405C25.8544 63.0115 26.8429 64 28.1139 64ZM28.1139 32.3671C31.7856 32.3671 34.8924 35.4739 34.8924 39.1456V61.7405C34.8924 65.5534 31.7856 68.519 28.1139 68.519C24.301 68.519 21.3354 65.5534 21.3354 61.7405V39.1456C21.3354 35.4739 24.301 32.3671 28.1139 32.3671ZM12.2975 61.7405V52.7025C12.2975 51.5728 11.1677 50.443 10.038 50.443C8.767 50.443 7.77848 51.5728 7.77848 52.7025V61.7405C7.77848 63.0115 8.767 64 10.038 64C11.1677 64 12.2975 63.0115 12.2975 61.7405ZM10.038 45.9241C13.7096 45.9241 16.8164 49.0309 16.8164 52.7025V61.7405C16.8164 65.5534 13.7096 68.519 10.038 68.519C6.22507 68.519 3.25949 65.5534 3.25949 61.7405V52.7025C3.25949 49.0309 6.22507 45.9241 10.038 45.9241ZM46.1898 52.7025C46.1898 58.4925 49.1554 63.5763 54.0981 66.4007C58.8995 69.3663 64.9719 69.3663 69.9145 66.4007C74.7159 63.5763 77.8227 58.4925 77.8227 52.7025C77.8227 47.0538 74.7159 41.97 69.9145 39.1456C64.9719 36.18 58.8995 36.18 54.0981 39.1456C49.1554 41.97 46.1898 47.0538 46.1898 52.7025ZM82.3417 52.7025C82.3417 60.0459 78.3876 66.6831 72.174 70.3548C65.8192 74.0265 58.0522 74.0265 51.8386 70.3548C45.4837 66.6831 41.6709 60.0459 41.6709 52.7025C41.6709 45.5004 45.4837 38.8632 51.8386 35.1915C58.0522 31.5198 65.8192 31.5198 72.174 35.1915C78.3876 38.8632 82.3417 45.5004 82.3417 52.7025ZM58.617 48.6072V48.7484C58.617 48.7484 58.617 48.8896 59.3231 49.3133C60.0292 49.737 61.159 50.0194 62.5711 50.443H62.7124C63.9833 50.8667 65.6779 51.2904 66.9489 52.1377C68.3611 52.985 69.7733 54.3972 69.9145 56.6567C69.9145 59.1986 68.5023 60.8932 66.8077 61.8817C65.9604 62.3054 65.1131 62.5878 64.2658 62.729V64.2824C64.2658 65.5534 63.136 66.5419 62.0063 66.5419C60.7353 66.5419 59.7468 65.5534 59.7468 64.2824V62.5878C58.4758 62.4466 57.3461 62.0229 56.3575 61.7405C56.0751 61.5993 55.9339 61.5993 55.6515 61.4581C54.5217 61.1756 53.8156 59.9047 54.0981 58.6337C54.5217 57.504 55.7927 56.7979 56.9224 57.2215C57.2049 57.2215 57.4873 57.3627 57.7697 57.3627C59.4643 57.9276 60.7353 58.3513 62.0063 58.3513C62.9948 58.3513 63.9833 58.2101 64.6894 57.9276C64.9719 57.7864 65.1131 57.504 65.2543 57.3627C65.2543 57.3627 65.3955 57.0803 65.3955 56.7979C65.3955 56.5154 65.2543 56.3742 64.6894 55.9506C63.9833 55.5269 62.8536 55.2445 61.4414 54.8208L61.159 54.6796C59.888 54.3972 58.3346 53.9735 57.0636 53.2674C55.6515 52.5613 54.2393 51.1491 54.0981 48.8896C53.9568 46.3477 55.5102 44.6531 57.2049 43.6646C57.9109 43.2409 58.7583 42.9585 59.7468 42.8173V41.4051C59.7468 40.2753 60.7353 39.1456 62.0063 39.1456C63.136 39.1456 64.2658 40.2753 64.2658 41.4051V42.8173C65.1131 42.9585 65.9604 43.0997 66.6665 43.2409C67.9374 43.6646 68.6435 44.7943 68.3611 46.0653C68.0787 47.195 66.8077 48.0423 65.6779 47.7599C64.2658 47.3362 63.136 47.195 61.8651 47.0538C61.0177 47.0538 60.0292 47.3362 59.3231 47.6187C58.8995 47.9011 58.7583 48.0423 58.617 48.1836C58.617 48.3248 58.617 48.466 58.617 48.6072Z" fill="#3BC1CD"/>
</svg>
