<svg width="111" height="91" viewBox="0 0 111 91" fill="none" xmlns="http://www.w3.org/2000/svg">
<g clip-path="url(#clip0_6125_731)">
<path d="M32.6466 45.5C32.6466 45.6386 32.505 45.6386 32.505 45.7773C39.1575 43.2812 47.0838 41.0625 55.2931 41.0625C61.5209 41.0625 67.8902 42.4492 73.4103 44.252C73.2688 42.8652 73.4103 41.4785 74.4012 39.8145C68.4564 38.0117 61.9455 36.625 55.2931 36.625C46.5175 36.625 38.1667 38.8438 31.2312 41.4785C32.0804 42.7266 32.6466 43.9746 32.6466 45.5ZM80.2043 45.5C81.3366 45.5 82.469 44.5293 82.469 43.2812C82.469 42.1719 81.3366 41.0625 80.2043 41.0625C78.9305 41.0625 77.9397 42.1719 77.9397 43.2812C77.9397 44.5293 78.9305 45.5 80.2043 45.5ZM92.6599 55.623L90.1122 59.3672C89.4044 60.3379 88.1306 60.6152 87.1398 59.9219C84.0259 58.1192 76.9488 54.5136 68.881 52.1562V71.5703C68.881 71.9864 69.0225 72.125 69.4472 72.125H72.8442C73.1273 72.125 73.4103 71.9864 73.4103 71.5703V58.3965C78.6473 60.4766 82.8936 62.6953 84.8751 63.8047C87.706 65.4688 91.8106 64.9141 93.9338 61.7246L96.4815 58.1192C98.3215 55.3457 98.0385 50.9082 94.3584 48.6895C92.5184 47.7188 89.9706 46.1933 86.8568 44.6679C86.4321 46.1933 85.5829 47.5801 84.309 48.5508C87.706 50.0761 90.3953 51.4629 91.9522 52.4335C93.0846 53.127 93.3676 54.5136 92.6599 55.623ZM68.881 23.3125C68.881 16.1016 62.6532 10 55.2931 10C47.7915 10 41.7052 16.1016 41.7052 23.3125C41.7052 30.6621 47.7915 36.625 55.2931 36.625C62.6532 36.625 68.881 30.6621 68.881 23.3125ZM55.2931 32.1875C50.1976 32.1875 46.2345 28.3047 46.2345 23.3125C46.2345 18.459 50.1976 14.4375 55.2931 14.4375C60.2471 14.4375 64.3517 18.459 64.3517 23.3125C64.3517 28.3047 60.2471 32.1875 55.2931 32.1875ZM16.5109 61.7246C18.634 64.9141 22.7386 65.4688 25.5696 63.8047C27.5511 62.6953 31.7973 60.3379 37.1759 58.3965V71.5703C37.1759 71.9864 37.3174 72.125 37.742 72.125H41.139C41.4221 72.125 41.7052 71.9864 41.7052 71.5703V52.1562C33.4958 54.5136 26.4187 58.1192 23.3049 60.0605C22.3141 60.6152 21.0402 60.3379 20.3325 59.3672L17.7848 55.623C17.077 54.5136 17.3601 53.127 18.4925 52.4335C19.3417 52.0176 20.3325 51.4629 21.6063 50.7696C20.3325 49.7989 19.4832 48.5508 19.2002 47.0254C18.0678 47.5801 16.9355 48.2734 16.0863 48.6895C12.4062 50.9082 12.1231 55.3457 13.9631 58.1192L16.5109 61.7246ZM99.4539 76.5625H11.1323C10.4246 76.5625 10 77.1172 10 77.6719V79.8906C10 80.584 10.4246 81 11.1323 81H99.4539C100.02 81 100.586 80.584 100.586 79.8906V77.6719C100.586 77.1172 100.02 76.5625 99.4539 76.5625ZM25.8526 47.7188C26.9849 47.7188 28.1172 46.748 28.1172 45.5C28.1172 44.3906 26.9849 43.2812 25.8526 43.2812C24.5787 43.2812 23.5879 44.3906 23.5879 45.5C23.5879 46.748 24.5787 47.7188 25.8526 47.7188ZM46.2345 52.1562C46.2345 53.4043 47.2253 54.375 48.4991 54.375C49.6315 54.375 50.7638 53.4043 50.7638 52.1562C50.7638 51.0469 49.6315 49.9375 48.4991 49.9375C47.2253 49.9375 46.2345 51.0469 46.2345 52.1562ZM59.8224 65.4688C59.8224 66.7168 60.8132 67.6875 62.0871 67.6875C63.2194 67.6875 64.3517 66.7168 64.3517 65.4688C64.3517 64.3594 63.2194 63.25 62.0871 63.25C60.8132 63.25 59.8224 64.3594 59.8224 65.4688Z" fill="url(#paint0_linear_6125_731)"/>
</g>
<defs>
<linearGradient id="paint0_linear_6125_731" x1="55.3814" y1="4.92857" x2="55.3814" y2="86.0715" gradientUnits="userSpaceOnUse">
<stop stop-color="#3BC1CD"/>
</linearGradient>
<clipPath id="clip0_6125_731">
<rect width="90.5862" height="71" fill="white" transform="translate(10 10)"/>
</clipPath>
</defs>
</svg>
