<svg width="56" height="56" viewBox="0 0 56 56" fill="none" xmlns="http://www.w3.org/2000/svg">
<path d="M3.9375 24.3501C3.9375 29.2818 5.54883 33.7848 8.44922 37.2156C9.73828 38.931 10.8125 41.0752 10.8125 43.4339V53.5119C10.8125 54.4768 9.95312 55.2273 9.09375 55.2273C8.12695 55.2273 7.375 54.4768 7.375 53.5119V43.4339C7.375 42.0401 6.73047 40.6464 5.76367 39.3598C2.43359 35.2857 0.5 30.0323 0.5 24.3501C0.5 11.1629 11.2422 0.334473 24.5625 0.334473H26.2812C34.6602 0.334473 42.3945 5.48067 45.832 12.7711C46.2617 13.6288 46.6914 14.4865 47.0137 15.237C47.6582 16.738 48.3027 18.0245 48.9473 19.4183C50.1289 21.5625 51.3105 23.3852 52.9219 24.7789L53.2441 25.1006C54.6406 26.3871 55.5 28.1025 55.5 29.9251C55.5 33.5703 52.5996 36.3579 48.9473 36.3579H48.625V41.5041C48.625 45.3637 45.5098 48.3657 41.75 48.3657H34.875V53.6191C34.875 54.4768 34.0156 55.3345 33.1562 55.3345C32.1895 55.3345 31.4375 54.4768 31.4375 53.6191V46.7575C31.4375 45.7926 32.1895 45.0421 33.1562 45.0421H41.75C43.5762 45.0421 45.1875 43.4339 45.1875 41.6113V34.7497C45.1875 33.7848 45.9395 33.0343 46.9062 33.0343H49.0547C50.666 33.0343 52.0625 31.6405 52.0625 29.9251C52.0625 29.0674 51.6328 28.3169 50.9883 27.6737L50.666 27.352C48.625 25.5294 47.1211 23.2779 45.9395 21.0265C45.1875 19.6327 44.4355 18.0245 43.791 16.5236C43.4688 15.7731 43.1465 14.9154 42.7168 14.1649C39.9238 8.05377 33.3711 3.76527 26.2812 3.76527H24.5625C13.1758 3.76527 3.9375 12.9855 3.9375 24.3501ZM22.3066 13.736C21.7695 14.4865 20.8027 14.8082 19.9434 14.3793C19.6211 14.1649 19.2988 14.0577 18.9766 14.0577C17.7949 14.0577 16.9355 14.9154 16.8281 15.9875C16.7207 16.8452 15.9688 17.4885 15.1094 17.4885C13.6055 17.4885 12.5312 18.6678 12.5312 20.0616C12.5312 21.1337 13.0684 22.0986 14.0352 22.4202C14.6797 22.7419 15.1094 23.4924 15.1094 24.1356C15.1094 24.2429 15.1094 24.3501 15.1094 24.3501C15.1094 25.851 16.1836 26.9232 17.6875 26.9232C18.0098 26.9232 18.332 26.9232 18.6543 26.7087C19.1914 26.4943 19.8359 26.6015 20.2656 26.9232C20.8027 27.2448 21.125 27.7809 21.125 28.3169V32.9271C21.125 33.892 20.2656 34.6425 19.4062 34.6425C18.4395 34.6425 17.6875 33.892 17.6875 32.9271V30.354C14.5723 30.354 11.9941 28.1025 11.6719 25.1006C10.0605 24.0284 9.09375 22.2058 9.09375 20.0616C9.09375 17.274 11.0273 14.9154 13.7129 14.2721C14.4648 12.1278 16.5059 10.6269 18.9766 10.6269C19.4062 10.6269 19.7285 10.7341 20.1582 10.8413C21.2324 9.66196 22.8438 8.91147 24.5625 8.91147C26.1738 8.91147 27.7852 9.66196 28.8594 10.8413C29.2891 10.7341 29.7188 10.6269 30.1484 10.6269C31.6523 10.6269 33.1562 11.2701 34.123 12.3423C37.3457 12.4495 40.0312 15.1298 40.0312 18.3462C40.0312 21.6698 37.2383 24.3501 34.0156 24.3501H31.4375C31.4375 27.2448 29.2891 29.7107 26.6035 30.2468C25.6367 30.4612 24.7773 29.8179 24.5625 28.9602C24.3477 27.9953 24.9922 27.1376 25.8516 26.9232C27.0332 26.7087 28 25.6366 28 24.3501C28 24.0284 27.8926 23.7068 27.7852 23.3852C27.4629 22.8491 27.5703 22.2058 27.8926 21.777C28.2148 21.2409 28.752 20.9193 29.2891 20.9193H34.0156C35.4121 20.9193 36.5938 19.8471 36.5938 18.3462C36.5938 16.9524 35.4121 15.7731 34.0156 15.7731C33.8008 15.7731 33.6934 15.7731 33.5859 15.8803C32.9414 15.9875 32.2969 15.6659 31.8672 15.1298C31.5449 14.4865 30.9004 14.0577 30.1484 14.0577C29.7188 14.0577 29.3965 14.1649 29.0742 14.3793C28.2148 14.8082 27.248 14.4865 26.7109 13.736C26.2812 12.8783 25.4219 12.3423 24.5625 12.3423C23.5957 12.3423 22.7363 12.8783 22.3066 13.736Z" fill="#3BC1CD"/>
</svg>
