<svg width="78" height="79" viewBox="0 0 78 79" fill="none" xmlns="http://www.w3.org/2000/svg">
<rect x="2.08475" y="2.08475" width="72.9664" height="74.8305" rx="4.16951" stroke="#3BC1CD" stroke-width="4.16951" stroke-dasharray="29.19 29.19"/>
<path d="M38.5675 23.3082C32.1178 23.3082 26.9385 26.2399 22.9319 29.9534C19.1207 33.4714 16.5799 37.5758 15.2118 40.5075C16.5799 43.4392 19.1207 47.6412 22.9319 51.1593C26.9385 54.8727 32.1178 57.7067 38.5675 57.7067C44.9195 57.7067 50.0988 54.8727 54.1055 51.1593C57.9167 47.6412 60.5552 43.4392 61.8256 40.5075C60.5552 37.5758 57.9167 33.4714 54.2032 29.9534C50.0988 26.2399 44.9195 23.3082 38.5675 23.3082ZM19.707 26.5331C24.3 22.2333 30.652 18.6176 38.5675 18.6176C46.3854 18.6176 52.7373 22.2333 57.3303 26.5331C61.9233 30.8329 64.9527 35.8168 66.4185 39.3348C66.7117 40.1166 66.7117 40.9961 66.4185 41.7779C64.9527 45.1982 61.9233 50.2798 57.3303 54.5796C52.7373 58.8794 46.3854 62.3974 38.5675 62.3974C30.652 62.3974 24.3 58.8794 19.707 54.5796C15.114 50.2798 12.0846 45.1982 10.6188 41.7779C10.3256 40.9961 10.3256 40.1166 10.6188 39.3348C12.0846 35.8168 15.114 30.7352 19.707 26.5331ZM38.5675 48.3253C42.8673 48.3253 46.3854 44.905 46.3854 40.5075C46.3854 36.2077 42.8673 32.6896 38.5675 32.6896C38.4698 32.6896 38.3721 32.6896 38.3721 32.6896C38.4698 33.276 38.5675 33.7646 38.5675 34.2532C38.5675 37.7712 35.7336 40.5075 32.3133 40.5075C31.7269 40.5075 31.2383 40.5075 30.7497 40.312C30.7497 40.4098 30.7497 40.5075 30.7497 40.5075C30.7497 44.905 34.17 48.3253 38.5675 48.3253ZM38.5675 27.9989C42.9651 27.9989 47.0694 30.442 49.317 34.2532C51.5647 38.1621 51.5647 42.9505 49.317 46.7617C47.0694 50.6707 42.9651 53.016 38.5675 53.016C34.0723 53.016 29.9679 50.6707 27.7203 46.7617C25.4727 42.9505 25.4727 38.1621 27.7203 34.2532C29.9679 30.442 34.0723 27.9989 38.5675 27.9989Z" fill="#3BC1CD"/>
</svg>
