<svg width="92" height="88" viewBox="0 0 92 88" fill="none" xmlns="http://www.w3.org/2000/svg">
<path d="M79.75 19H70.75L69.625 17.0312C69.0625 15.625 67.2344 14.5 65.6875 14.5H55.8438L52.0469 10.7031C51.625 10.2813 51.0625 10 50.5 10C50.5 10 50.5 10 50.3594 10C49.2344 10 48.25 11.125 48.25 12.25V37H32.5H32.3594C29.6875 37 27.1562 37.8438 25.0469 39.25H21.25C17.4531 39.25 14.5 36.2969 14.5 32.5C14.5 31.375 13.375 30.25 12.25 30.25C10.9844 30.25 10 31.375 10 32.5C10 38.6875 14.7812 43.6094 20.8281 43.75C19.7031 45.7188 19 48.1094 19 50.5V73C19 75.5312 20.9688 77.5 23.5 77.5H32.5C34.8906 77.5 37 75.5312 37 73V59.5H50.5V73C50.5 75.5312 52.4688 77.5 55 77.5H64C66.3906 77.5 68.5 75.5312 68.5 73V39.25H73C77.9219 39.25 82 35.3125 82 30.25V21.25C82 20.125 80.875 19 79.75 19ZM64 73H55V55H32.5V73H23.5V50.5C23.5 45.5781 27.4375 41.6406 32.5 41.5H49.0938L64 45.2969V73ZM77.5 30.25C77.5 32.7812 75.3906 34.75 73 34.75H64V40.6562L52.75 37.8438V17.7344L54.0156 19H65.6875L67.9375 23.5H77.5V30.25ZM64 23.5C64 22.375 62.875 21.25 61.75 21.25C60.4844 21.25 59.5 22.375 59.5 23.5C59.5 24.7656 60.4844 25.75 61.75 25.75C62.875 25.75 64 24.7656 64 23.5Z" fill="#3BC1CD"/>
</svg>
