<svg width="81" height="83" viewBox="0 0 81 83" fill="none" xmlns="http://www.w3.org/2000/svg">
<path d="M20.0233 65.9942H5.00581V73.5029C5.00581 74.9108 6.10084 76.0058 7.50872 76.0058H17.5203C18.7718 76.0058 20.0233 74.9108 20.0233 73.5029V65.9942ZM17.5203 81.0116H7.50872C3.28507 81.0116 0 77.7266 0 73.5029V65.9942V63.4913V60.9884V20.9419V18.439V15.9361V8.42733C0 4.36011 3.28507 0.91861 7.50872 0.91861H17.5203C19.3975 0.91861 21.1183 1.70077 22.5262 2.95222C23.7776 1.70077 25.4984 0.91861 27.532 0.91861H37.5436C40.2029 0.91861 42.393 2.32649 43.8009 4.51654C44.2702 4.20367 44.7395 4.04724 45.3652 3.89081L54.5947 1.23147C58.5054 0.136451 62.5727 2.48293 63.5113 6.55015L66.327 17.3439L66.9528 19.8468L76.9644 58.329L77.5901 60.6755L79.7802 69.1228C80.8752 73.0336 78.5287 77.2573 74.6179 78.1959L65.3884 80.8552C61.4776 81.9502 57.5669 79.6037 56.4718 75.5365L53.6561 64.7427L53.0303 62.2398L45.0523 31.2664V60.9884V63.4913V65.9942V73.5029C45.0523 77.7266 41.6108 81.0116 37.5436 81.0116H27.532C25.4984 81.0116 23.7776 80.3859 22.5262 79.1344C21.1183 80.3859 19.3975 81.0116 17.5203 81.0116ZM45.0523 11.0867C45.0523 11.2431 45.0523 11.556 45.0523 11.7124L47.2424 20.0033L60.8519 16.2489L58.6619 7.8016C58.349 6.39372 57.0976 5.76799 56.0025 6.08085L46.6166 8.58376C45.8345 8.89663 45.0523 9.83522 45.0523 10.9302V11.0867ZM40.0465 11.0867V8.42733C40.0465 7.17588 38.7951 5.92442 37.5436 5.92442H27.532C26.1241 5.92442 25.0291 7.17588 25.0291 8.42733V15.9361H40.0465V11.0867ZM27.532 76.0058H37.5436C38.7951 76.0058 40.0465 74.9108 40.0465 73.5029V65.9942H25.0291V73.5029C25.0291 74.9108 26.1241 76.0058 27.532 76.0058ZM20.0233 20.9419H5.00581V60.9884H20.0233V20.9419ZM20.0233 8.42733C20.0233 7.17588 18.7718 5.92442 17.5203 5.92442H7.50872C6.10084 5.92442 5.00581 7.17588 5.00581 8.42733V15.9361H20.0233V8.42733ZM40.0465 60.9884V20.9419H25.0291V60.9884H40.0465ZM62.1034 21.0983L48.4938 24.8527L57.8797 60.9884L71.4893 57.234L62.1034 21.0983ZM72.7407 62.0834L59.1312 65.8378L61.3212 74.2851C61.6341 75.693 62.8855 76.3187 63.9806 76.0058L73.3665 73.3465C74.4615 73.19 75.2436 71.7822 74.9308 70.3743L72.7407 62.0834Z" fill="#3BC1CD"/>
</svg>
