<svg width="121" height="14" viewBox="0 0 121 14" fill="none" xmlns="http://www.w3.org/2000/svg">
<path fill-rule="evenodd" clip-rule="evenodd" d="M26.5165 0.512012C26.1052 0.512012 25.7543 0.657149 25.4639 0.947424C25.1735 1.2377 25.0284 1.58845 25.0284 1.99967C25.0284 2.41089 25.1735 2.76164 25.4639 3.05191C25.7543 3.34219 26.1052 3.48733 26.5165 3.48733C26.9279 3.48733 27.2787 3.34219 27.5691 3.05191C27.8595 2.76164 28.0047 2.41089 28.0047 1.99967C28.0047 1.58845 27.8595 1.2377 27.5691 0.947424C27.2787 0.657149 26.9279 0.512012 26.5165 0.512012ZM29.3678 12.9333H31.9327V0H29.3678V12.9333ZM39.8332 8.77678C39.8332 8.14785 39.6518 7.6439 39.2928 7.25283C38.9339 6.8658 38.4298 6.67228 37.7765 6.67228C37.1231 6.67228 36.623 6.8658 36.2601 7.25283C35.9011 7.63987 35.7197 8.14785 35.7197 8.77678C35.7197 9.4057 35.9011 9.91368 36.2601 10.3007C36.619 10.6877 37.1231 10.8813 37.7765 10.8813C38.4298 10.8813 38.9299 10.6877 39.2928 10.3007C39.6518 9.91368 39.8332 9.4057 39.8332 8.77678ZM42.0393 6.97869C42.2772 7.51489 42.3982 8.11559 42.3982 8.77678C42.3982 9.43796 42.2772 10.0387 42.0393 10.5749C41.8013 11.1111 41.4706 11.5707 41.0552 11.9537C40.6398 12.3367 40.1478 12.631 39.5832 12.8366C39.0186 13.0422 38.4177 13.143 37.7765 13.143C37.1352 13.143 36.5343 13.0422 35.9697 12.8366C35.4051 12.631 34.9131 12.3367 34.4977 11.9537C34.0823 11.5707 33.7516 11.1111 33.5136 10.5749C33.2757 10.0387 33.1547 9.44199 33.1547 8.77678C33.1547 8.11156 33.2757 7.51489 33.5136 6.97869C33.7516 6.44248 34.0823 5.98288 34.4977 5.59988C34.9131 5.21688 35.4051 4.92257 35.9697 4.71696C36.5343 4.51135 37.1352 4.41056 37.7765 4.41056C38.4177 4.41056 39.0186 4.51135 39.5832 4.71696C40.1478 4.92257 40.6398 5.21688 41.0552 5.59988C41.4706 5.98288 41.8013 6.44248 42.0393 6.97869ZM48.7138 4.41459C48.1451 4.41459 47.6692 4.5436 47.2942 4.79759C46.9191 5.05562 46.5924 5.43862 46.3182 5.95063H46.2859V4.61617H43.721V12.9293H46.2859V9.45811C46.2859 9.04689 46.3101 8.67195 46.3545 8.32927C46.3989 7.98658 46.4997 7.69228 46.6529 7.45038C46.8062 7.20445 47.028 7.01497 47.3103 6.8779C47.5966 6.74082 47.9838 6.67228 48.4758 6.67228C48.6694 6.67228 48.8549 6.68841 49.0324 6.71663C49.2098 6.74485 49.3873 6.7892 49.5728 6.84564V4.50329C49.4478 4.47104 49.3106 4.44685 49.1614 4.43475C49.0122 4.42266 48.863 4.41862 48.7178 4.41862L48.7138 4.41459ZM25.234 12.9333H27.799V4.6202H25.234V12.9333ZM2.6698 8.00674H7.92471V5.54344H2.6698V3.28575H8.23121V0.822445H0V12.9333H8.53771V10.47H2.6698V8.00674ZM15.2606 8.40184C14.9339 8.22042 14.5871 8.08334 14.2161 7.99868C13.845 7.91401 13.4982 7.83338 13.1715 7.76081C12.8449 7.68825 12.5787 7.59955 12.369 7.50279C12.1593 7.40603 12.0544 7.25283 12.0544 7.05125C12.0544 6.8013 12.1553 6.62391 12.3609 6.51908C12.5666 6.41829 12.7763 6.36588 12.9941 6.36588C13.6111 6.36588 14.1072 6.59972 14.4823 7.06738L16.0551 5.51119C15.6679 5.09996 15.192 4.81372 14.6355 4.65649C14.0749 4.49522 13.5224 4.41862 12.9739 4.41862C12.5384 4.41862 12.1109 4.47104 11.6915 4.57989C11.268 4.68874 10.897 4.85807 10.5703 5.08384C10.2436 5.31364 9.9815 5.60391 9.78389 5.95466C9.58224 6.30944 9.48545 6.72873 9.48545 7.22058C9.48545 7.74469 9.59031 8.16397 9.80002 8.47844C10.0097 8.7929 10.2799 9.0348 10.6026 9.20412C10.9292 9.37345 11.2761 9.50246 11.6471 9.58713C12.0181 9.67179 12.365 9.75242 12.6916 9.82499C13.0183 9.89756 13.2845 9.99028 13.4942 10.0991C13.7039 10.208 13.8128 10.3693 13.8128 10.587C13.8128 10.8168 13.6918 10.97 13.4539 11.0587C13.2159 11.1433 12.9457 11.1877 12.6513 11.1877C12.2641 11.1877 11.9254 11.1111 11.635 10.9579C11.3446 10.8047 11.0785 10.5789 10.8405 10.2806L9.28381 12.0101C9.69516 12.4334 10.1952 12.7277 10.7881 12.889C11.3809 13.0543 11.9697 13.139 12.5505 13.139C12.9941 13.139 13.4458 13.0946 13.9015 13.0099C14.3572 12.9253 14.7686 12.7761 15.1356 12.5665C15.4986 12.3568 15.801 12.0746 16.0349 11.7279C16.2688 11.3812 16.3858 10.9377 16.3858 10.4015C16.3858 9.8653 16.2809 9.45811 16.0672 9.14365C15.8575 8.82919 15.5873 8.58326 15.2646 8.39781L15.2606 8.40184ZM22.8667 8.40184C22.54 8.22042 22.1932 8.08334 21.8222 7.99868C21.4512 7.91401 21.1043 7.83338 20.7777 7.76081C20.451 7.68825 20.1848 7.59955 19.9751 7.50279C19.7654 7.40603 19.6605 7.25283 19.6605 7.05125C19.6605 6.8013 19.7614 6.62391 19.967 6.51908C20.1727 6.41829 20.3824 6.36588 20.6002 6.36588C21.2172 6.36588 21.7133 6.59972 22.0884 7.06738L23.6612 5.51119C23.274 5.09996 22.7982 4.81372 22.2416 4.65649C21.681 4.49522 21.1285 4.41862 20.58 4.41862C20.1445 4.41862 19.717 4.47104 19.2976 4.57989C18.8741 4.68874 18.5031 4.85807 18.1764 5.08384C17.8497 5.31364 17.5876 5.60391 17.39 5.95466C17.1883 6.30944 17.0916 6.72873 17.0916 7.22058C17.0916 7.74469 17.1964 8.16397 17.4061 8.47844C17.6158 8.7929 17.886 9.0348 18.2087 9.20412C18.5353 9.37345 18.8822 9.50246 19.2532 9.58713C19.6242 9.67179 19.9711 9.75242 20.2977 9.82499C20.6244 9.89756 20.8906 9.99028 21.1003 10.0991C21.31 10.208 21.4149 10.3693 21.4149 10.587C21.4149 10.8168 21.2939 10.97 21.0559 11.0587C20.818 11.1433 20.5478 11.1877 20.2534 11.1877C19.8662 11.1877 19.5274 11.1111 19.2371 10.9579C18.9467 10.8047 18.6805 10.5789 18.4426 10.2806L16.8859 12.0101C17.2972 12.4334 17.7973 12.7277 18.3902 12.889C18.983 13.0543 19.5718 13.139 20.1526 13.139C20.5962 13.139 21.0479 13.0946 21.5036 13.0099C21.9593 12.9253 22.3707 12.7761 22.7377 12.5665C23.1006 12.3568 23.4031 12.0746 23.637 11.7279C23.8709 11.3812 23.9879 10.9377 23.9879 10.4015C23.9879 9.8653 23.883 9.45811 23.6693 9.14365C23.4596 8.82919 23.1893 8.58326 22.8667 8.39781V8.40184ZM84.3729 8.77678C84.3729 8.14785 84.1914 7.6439 83.8325 7.25283C83.4736 6.8658 82.9695 6.67228 82.3161 6.67228C81.6628 6.67228 81.1627 6.8658 80.8038 7.25283C80.4449 7.63987 80.2634 8.14785 80.2634 8.77678C80.2634 9.4057 80.4449 9.90965 80.8038 10.3007C81.1627 10.6877 81.6668 10.8813 82.3161 10.8813C82.9654 10.8813 83.4696 10.6877 83.8325 10.3007C84.1914 9.91368 84.3729 9.4057 84.3729 8.77678ZM86.5789 6.97869C86.8169 7.51489 86.9379 8.11559 86.9379 8.77678C86.9379 9.43796 86.8169 10.0387 86.5789 10.5749C86.341 11.1111 86.0103 11.5707 85.5949 11.9537C85.1795 12.3367 84.6875 12.631 84.1229 12.8366C83.5583 13.0422 82.9574 13.143 82.3161 13.143C81.6749 13.143 81.074 13.0422 80.5094 12.8366C79.9448 12.631 79.4528 12.3367 79.0374 11.9537C78.622 11.5707 78.2913 11.1111 78.0533 10.5749C77.8154 10.0387 77.6944 9.44199 77.6944 8.77678C77.6944 8.11156 77.8154 7.51489 78.0533 6.97869C78.2913 6.44248 78.622 5.98288 79.0374 5.59988C79.4528 5.21688 79.9448 4.92257 80.5094 4.72099C81.074 4.51538 81.6749 4.41459 82.3161 4.41459C82.9574 4.41459 83.5583 4.51538 84.1229 4.72099C84.6875 4.92661 85.1795 5.22091 85.5949 5.59988C86.0103 5.98288 86.341 6.44248 86.5789 6.97869ZM97.5566 2.15287H94.9876V4.61617H91.4548V2.1569H88.8898V4.6202H87.2484V6.8658H88.8898V10.6232C88.8898 11.0788 88.9664 11.4658 89.1197 11.7884C89.2729 12.1069 89.4867 12.3689 89.7609 12.5665C90.0352 12.7681 90.3538 12.9132 90.7208 13.0019C91.0878 13.0946 91.487 13.139 91.9185 13.139C92.2129 13.139 92.5194 13.1228 92.826 13.0865C93.1325 13.0543 93.4309 12.9858 93.7172 12.8809V10.7442C93.6043 10.845 93.4349 10.9135 93.2131 10.9417C92.9913 10.97 92.8098 10.9861 92.6727 10.9861C92.3985 10.9861 92.1807 10.9498 92.0153 10.8732C91.85 10.8006 91.725 10.6918 91.6483 10.5587C91.5677 10.4217 91.5152 10.2604 91.4951 10.0709C91.4709 9.88143 91.4628 9.67582 91.4628 9.44602V6.86983H94.9957V10.6273C94.9957 11.0828 95.0723 11.4699 95.2255 11.7924C95.3788 12.1109 95.5925 12.373 95.8668 12.5705C96.141 12.7721 96.4596 12.9172 96.8266 13.0059C97.1936 13.0986 97.5929 13.143 98.0244 13.143C98.3228 13.143 98.6253 13.1269 98.9318 13.0906C99.2383 13.0583 99.5368 12.9898 99.8231 12.885V10.7482C99.7102 10.849 99.5408 10.9176 99.319 10.9458C99.0972 10.974 98.9157 10.9901 98.7786 10.9901C98.5043 10.9901 98.2865 10.9538 98.1212 10.8772C97.9558 10.8047 97.8308 10.6958 97.7542 10.5628C97.6735 10.4257 97.6211 10.2644 97.6009 10.0749C97.5767 9.88546 97.5687 9.67985 97.5687 9.45005V6.87386H99.8271V4.62827H97.5687V2.1569L97.5566 2.15287ZM109.518 6.66825C109.78 6.66825 110.026 6.72873 110.252 6.84967C110.482 6.97062 110.656 7.11979 110.785 7.30121L112.478 5.52328C112.079 5.11206 111.607 4.82582 111.067 4.66052C110.526 4.49522 110.01 4.41056 109.518 4.41056C108.881 4.41056 108.276 4.51135 107.711 4.71696C107.147 4.92257 106.655 5.21688 106.239 5.59988C105.824 5.98288 105.493 6.44248 105.255 6.97869C105.017 7.51489 104.897 8.11559 104.897 8.77678C104.897 9.43796 105.017 10.0387 105.255 10.5749C105.493 11.1111 105.824 11.5707 106.239 11.9537C106.655 12.3367 107.147 12.631 107.711 12.8366C108.276 13.0422 108.877 13.143 109.518 13.143C110.01 13.143 110.526 13.0583 111.067 12.893C111.607 12.7277 112.079 12.4415 112.478 12.0303L110.785 10.2523C110.635 10.4217 110.458 10.5708 110.252 10.6958C110.047 10.8208 109.801 10.8853 109.518 10.8853C108.869 10.8853 108.365 10.6918 108.002 10.3047C107.643 9.91772 107.461 9.40974 107.461 8.78081C107.461 8.15188 107.643 7.64793 108.002 7.25687C108.361 6.86983 108.865 6.67632 109.518 6.67632V6.66825ZM102.428 0.512012C102.017 0.512012 101.666 0.657149 101.376 0.947424C101.085 1.2377 100.94 1.58845 100.94 1.99967C100.94 2.41089 101.085 2.76164 101.376 3.05191C101.666 3.34219 102.017 3.48733 102.428 3.48733C102.84 3.48733 103.191 3.34219 103.481 3.05191C103.771 2.76164 103.917 2.41089 103.917 1.99967C103.917 1.58845 103.771 1.2377 103.481 0.947424C103.191 0.657149 102.84 0.512012 102.428 0.512012ZM101.146 12.9333H103.711V4.6202H101.146V12.9333ZM77.7468 4.6202H74.8875L73.4679 6.8779L71.9959 4.6202H68.9671L71.7378 8.4865L68.4509 12.9333H71.4474L73.3993 10.1636L75.2141 12.9333H78.2429L75.0448 8.4865L77.7468 4.6202ZM118.625 9.28879H117.991C117.798 9.28879 117.556 9.29685 117.266 9.31298C116.975 9.3291 116.697 9.37748 116.427 9.45811C116.156 9.53875 115.931 9.65969 115.741 9.81693C115.552 9.97819 115.459 10.1999 115.459 10.4821C115.459 10.7885 115.588 11.0183 115.854 11.1675C116.116 11.3167 116.39 11.3892 116.677 11.3892C116.927 11.3892 117.169 11.357 117.403 11.2885C117.637 11.2199 117.846 11.1232 118.028 10.9982C118.209 10.8732 118.354 10.7119 118.463 10.5184C118.572 10.3249 118.625 10.0951 118.625 9.83305V9.28476V9.28879ZM120.988 8.70824V12.9333H118.625V11.8892H118.592C118.306 12.3326 117.927 12.6552 117.455 12.8487C116.983 13.0422 116.483 13.139 115.959 13.139C115.572 13.139 115.197 13.0865 114.838 12.9777C114.479 12.8688 114.16 12.7076 113.89 12.4899C113.616 12.2722 113.398 12.0061 113.241 11.6876C113.079 11.3691 113.003 10.9982 113.003 10.5749C113.003 10.0951 113.091 9.69195 113.269 9.36136C113.446 9.03077 113.684 8.75662 113.987 8.53891C114.289 8.32121 114.636 8.15591 115.023 8.03496C115.41 7.91401 115.814 7.82532 116.229 7.76888C116.644 7.71244 117.06 7.67615 117.479 7.66809C117.895 7.65599 118.282 7.65196 118.633 7.65196C118.633 7.19639 118.471 6.83355 118.145 6.56746C117.818 6.30138 117.435 6.1643 116.991 6.1643C116.548 6.1643 116.185 6.253 115.838 6.43039C115.491 6.60778 115.18 6.84967 114.906 7.15608L113.539 5.75308C114.019 5.30961 114.576 4.97498 115.217 4.75325C115.854 4.53151 116.519 4.41862 117.201 4.41862C117.955 4.41862 118.572 4.51135 119.056 4.70084C119.54 4.89032 119.927 5.16447 120.222 5.53134C120.512 5.89822 120.714 6.34573 120.831 6.87386C120.944 7.40603 121 8.01884 121 8.71227L120.988 8.70824ZM53.3758 0.822445H50.706V12.9333H58.3202V10.47H53.3758V0.822445ZM64.91 4.6202H67.475V12.9333H65.0108V11.8045H64.9786C64.8858 11.9658 64.7689 12.123 64.6277 12.2843C64.4866 12.4455 64.3131 12.5866 64.1075 12.7116C63.9018 12.8366 63.6679 12.9414 63.4057 13.018C63.1436 13.0986 62.8573 13.139 62.5507 13.139C61.9014 13.139 61.3731 13.0382 60.9698 12.8406C60.5665 12.6431 60.252 12.3649 60.0302 12.0101C59.8084 11.6553 59.6591 11.2401 59.5865 10.7603C59.514 10.2806 59.4736 9.76048 59.4736 9.20412V4.6202H62.0386V8.69211C62.0386 8.92998 62.0466 9.17993 62.0628 9.43796C62.0789 9.69598 62.1313 9.92981 62.216 10.1475C62.3007 10.3652 62.4338 10.5426 62.6112 10.6797C62.7887 10.8168 63.0428 10.8853 63.3735 10.8853C63.7042 10.8853 63.9744 10.8248 64.176 10.7039C64.3817 10.5829 64.539 10.4257 64.6479 10.2241C64.7568 10.0266 64.8294 9.8008 64.8616 9.54681C64.8939 9.29685 64.914 9.0348 64.914 8.76065V4.6202H64.91Z" fill="black"/>
</svg>
