<svg width="220" height="36" viewBox="0 0 220 36" fill="none" xmlns="http://www.w3.org/2000/svg">
<path d="M40.3379 0.629257H59.2045V6.53542H45.8025V14.5612H57.7473V20.4673H45.8025V29.4646H59.2045V35.3707H40.3379V0.629257Z" fill="white"/>
<path d="M70.3657 0.629257H80.3344C85.5562 0.629257 90.8331 3.77553 90.8331 10.598C90.8331 15.3891 88.1725 18.8666 83.9113 20.081L92.0916 35.3707H85.8984L78.0161 20.7102H75.8413V35.3707H70.3768V0.629257H70.3657V0.629257ZM75.8303 6.53542V15.1021H81.1072C83.5249 15.1021 85.3685 13.4131 85.3685 10.8408C85.3685 8.26863 83.6242 6.53542 81.1072 6.53542H75.8303Z" fill="white"/>
<path d="M129.538 0.629257H135.245L139.893 35.3597H134.428L131.127 10.9292L122.329 35.3597H117.151L108.253 10.9292L105.063 35.3597H99.3555L104.003 0.629257H109.711L119.58 27.0359L129.538 0.629257Z" fill="white"/>
<path d="M178.023 35.3597H172.272L169.269 27.8087H154.178L151.23 35.3597H145.324L158.87 0.629257H164.434L178.023 35.3597ZM156.452 22.0129H166.995L161.718 8.5115L156.452 22.0129Z" fill="white"/>
<path d="M18.3143 35.989C24.6399 35.989 29.4752 32.8537 31.628 30.0718L29.8285 24.6734C27.8193 27.5989 23.9665 30.0718 18.6675 30.0718C11.5249 30.0718 6.47985 25.4462 6.47985 17.9945C6.47985 10.5428 11.5139 5.9172 18.6675 5.9172C23.547 5.9172 27.455 8.33487 29.5194 11.2162L31.4182 5.71849C29.3207 2.98068 24.5406 0 18.3143 0C9.00791 0 0.937988 7.19779 0.937988 17.9945C0.937988 28.7912 9.00791 35.989 18.3143 35.989Z" fill="white"/>
<path d="M199.429 30.3367C195.521 30.3367 192.132 28.8464 189.659 25.4572C191.149 24.3312 193.975 22.6863 197.784 22.6863C201.847 22.6863 205.446 24.1766 208.272 26.2852C205.953 29.0009 202.873 30.3367 199.429 30.3367V30.3367ZM215.47 25.0929C216.441 22.9292 216.96 20.5667 216.96 17.9945C216.96 7.66145 208.835 0 199.374 0C189.913 0 181.744 7.76081 181.744 18.0497C181.744 19.1757 181.898 20.8758 182.207 22.2668C184.062 20.5667 185.751 19.3413 187.396 18.3036C187.032 11.3597 192.331 5.9172 199.429 5.9172C206.108 5.9172 211.407 10.9071 211.407 17.9945C211.407 19.2309 211.252 20.4121 210.888 21.6486C207.389 19.0764 203.072 17.2769 197.773 17.2328C191.249 17.1776 186.822 20.4232 182.814 24.0221C185.486 31.4296 191.812 36 199.418 36C204.452 36 209.133 33.7921 212.533 29.8289C213.56 30.8004 215.006 32.1472 216.231 33.483L219.985 29.2659C218.395 27.6651 216.54 26.0092 215.47 25.0929V25.0929Z" fill="white"/>
</svg>
