<svg width="220" height="36" viewBox="0 0 220 36" fill="none" xmlns="http://www.w3.org/2000/svg">
<path d="M39.3999 0.629242H58.2665V6.53541H44.8645V14.5612H56.8093V20.4673H44.8645V29.4646H58.2665V35.3707H39.3999V0.629242Z" fill="#0096A0"/>
<path d="M69.4277 0.629242H79.3965C84.6182 0.629242 89.8951 3.77552 89.8951 10.598C89.8951 15.3891 87.2345 18.8666 82.9733 20.0809L91.1536 35.3707H84.9604L77.0781 20.7102H74.9034V35.3707H69.4388V0.629242H69.4277V0.629242ZM74.8923 6.53541V15.1021H80.1692C82.5869 15.1021 84.4305 13.413 84.4305 10.8408C84.4305 8.26862 82.6862 6.53541 80.1692 6.53541H74.8923Z" fill="#0096A0"/>
<path d="M128.6 0.629242H134.307L138.955 35.3597H133.49L130.189 10.9292L121.391 35.3597H116.213L107.315 10.9292L104.125 35.3597H98.4175L103.065 0.629242H108.773L118.642 27.0359L128.6 0.629242Z" fill="#0096A0"/>
<path d="M177.085 35.3597H171.334L168.331 27.8086H153.24L150.292 35.3597H144.386L157.932 0.629242H163.496L177.085 35.3597ZM155.514 22.0129H166.057L160.78 8.51149L155.514 22.0129Z" fill="#0096A0"/>
<path d="M17.3763 35.989C23.7019 35.989 28.5373 32.8537 30.69 30.0718L28.8905 24.6734C26.8813 27.5989 23.0285 30.0718 17.7295 30.0718C10.5869 30.0718 5.54186 25.4462 5.54186 17.9945C5.54186 10.5428 10.5759 5.9172 17.7295 5.9172C22.609 5.9172 26.517 8.33487 28.5814 11.2162L30.4802 5.71849C28.3827 2.98068 23.6026 0 17.3763 0C8.06992 0 0 7.19779 0 17.9945C0 28.7912 8.06992 35.989 17.3763 35.989Z" fill="#0096A0"/>
<path d="M198.491 30.3367C194.583 30.3367 191.194 28.8464 188.721 25.4572C190.211 24.3312 193.037 22.6863 196.846 22.6863C200.909 22.6863 204.508 24.1766 207.334 26.2852C205.015 29.0009 201.935 30.3367 198.491 30.3367V30.3367ZM214.532 25.0929C215.503 22.9292 216.022 20.5667 216.022 17.9945C216.022 7.66145 207.897 0 198.436 0C188.975 0 180.806 7.76081 180.806 18.0497C180.806 19.1757 180.96 20.8758 181.269 22.2668C183.124 20.5667 184.813 19.3413 186.458 18.3036C186.094 11.3597 191.393 5.9172 198.491 5.9172C205.17 5.9172 210.469 10.9071 210.469 17.9945C210.469 19.2309 210.314 20.4121 209.95 21.6486C206.451 19.0764 202.134 17.2769 196.835 17.2328C190.311 17.1776 185.884 20.4232 181.877 24.0221C184.548 31.4296 190.874 36 198.48 36C203.514 36 208.195 33.7921 211.595 29.8289C212.622 30.8004 214.068 32.1472 215.293 33.483L219.047 29.2659C217.457 27.6651 215.602 26.0092 214.532 25.0929V25.0929Z" fill="#0096A0"/>
</svg>
