<svg width="119" height="93" viewBox="0 0 119 93" fill="none" xmlns="http://www.w3.org/2000/svg">
<path d="M5.07569 90.3037H2.25048L1.71338 91.915H0L2.91113 84.0947H4.40429L7.33154 91.915H5.61817L5.07569 90.3037ZM2.68554 88.9985H4.64062L3.65771 86.0712L2.68554 88.9985ZM13.3042 85.3999H10.9087V91.915H9.29737V85.3999H6.93408V84.0947H13.3042V85.3999ZM18.9331 88.5258H15.8394V90.6206H19.4703V91.915H14.2281V84.0947H19.4595V85.3999H15.8394V87.2636H18.9331V88.5258ZM26.7749 91.915H25.1636L22.0269 86.7695V91.915H20.4156V84.0947H22.0269L25.169 89.2509V84.0947H26.7749V91.915ZM34.3213 89.31C34.2605 90.1515 33.9489 90.8139 33.3868 91.2973C32.8282 91.7807 32.0905 92.022 31.1739 92.022C30.1713 92.022 29.3817 91.6858 28.8052 91.0127C28.2323 90.3359 27.9458 89.4085 27.9458 88.2304V87.7524C27.9458 87.0004 28.0783 86.338 28.3433 85.7651C28.6083 85.1922 28.986 84.7535 29.4766 84.4492C29.9707 84.1412 30.5437 83.9873 31.1954 83.9873C32.0977 83.9873 32.8246 84.229 33.376 84.7124C33.9275 85.1958 34.2461 85.8743 34.3321 86.748H32.7207C32.6814 86.2431 32.5399 85.8779 32.2964 85.6523C32.0565 85.4231 31.6895 85.3086 31.1954 85.3086C30.6582 85.3086 30.2554 85.5019 29.9869 85.8886C29.7219 86.2718 29.5858 86.868 29.5787 87.6772V88.268C29.5787 89.1131 29.7058 89.7308 29.96 90.1211C30.2178 90.5114 30.6224 90.7065 31.1739 90.7065C31.6716 90.7065 32.0422 90.5937 32.2857 90.3681C32.5328 90.139 32.6742 89.7863 32.71 89.31H34.3213ZM37.0928 91.915H35.4815V84.0947H37.0928V91.915ZM45.0152 88.1821C45.0152 88.9519 44.8791 89.6269 44.607 90.207C44.3348 90.7871 43.9445 91.2347 43.4361 91.5498C42.9312 91.8649 42.3511 92.022 41.6958 92.022C41.0477 92.022 40.4694 91.8667 39.961 91.5551C39.4525 91.2436 39.0586 90.7996 38.7793 90.2231C38.5 89.643 38.3586 88.977 38.355 88.2251V87.8383C38.355 87.0685 38.4929 86.3917 38.7686 85.8081C39.0479 85.2208 39.44 84.7714 39.9449 84.4599C40.4533 84.1448 41.0334 83.9873 41.6851 83.9873C42.3368 83.9873 42.9151 84.1448 43.42 84.4599C43.9284 84.7714 44.3205 85.2208 44.5962 85.8081C44.8755 86.3917 45.0152 87.0667 45.0152 87.833V88.1821ZM43.3824 87.8276C43.3824 87.0076 43.2356 86.3846 42.9419 85.9585C42.6483 85.5324 42.2294 85.3193 41.6851 85.3193C41.1444 85.3193 40.7273 85.5306 40.4336 85.9531C40.14 86.372 39.9914 86.9879 39.9878 87.8007V88.1821C39.9878 88.9806 40.1346 89.6001 40.4283 90.0405C40.7219 90.4809 41.1444 90.7011 41.6958 90.7011C42.2365 90.7011 42.6519 90.4899 42.9419 90.0673C43.232 89.6412 43.3788 89.0218 43.3824 88.2089V87.8276ZM41.9966 82H43.6885L42.2007 83.665H40.9385L41.9966 82ZM52.5455 91.915H50.9341L47.7974 86.7695V91.915H46.1861V84.0947H47.7974L50.9395 89.2509V84.0947H52.5455V91.915ZM61.107 90.3037H58.2818L57.7447 91.915H56.0313L58.9424 84.0947H60.4356L63.3628 91.915H61.6495L61.107 90.3037ZM58.7168 88.9985H60.6719L59.689 86.0712L58.7168 88.9985ZM70.1626 90.9267C69.8726 91.274 69.4626 91.5444 68.9327 91.7378C68.4027 91.928 67.8155 92.022 67.1709 92.022C66.4942 92.022 65.8998 91.8756 65.3877 91.582C64.8793 91.2848 64.4854 90.8551 64.2061 90.2929C63.9304 89.7308 63.7889 89.0701 63.7818 88.311V87.7793C63.7818 86.9987 63.9125 86.3237 64.1739 85.7544C64.4388 85.1814 64.8184 84.7446 65.3125 84.4438C65.8103 84.1394 66.3921 83.9873 67.0581 83.9873C67.9856 83.9873 68.7107 84.2093 69.2334 84.6533C69.7562 85.0937 70.066 85.7365 70.1626 86.5815H68.5943C68.5227 86.1339 68.3633 85.8063 68.1163 85.5986C67.8728 85.3909 67.5362 85.2871 67.1065 85.2871C66.5586 85.2871 66.1415 85.493 65.855 85.9047C65.5686 86.3165 65.4235 86.9288 65.42 87.7417V88.2412C65.42 89.0612 65.5757 89.6806 65.8873 90.0996C66.1988 90.5185 66.6553 90.728 67.2569 90.728C67.862 90.728 68.2935 90.5991 68.5513 90.3413V88.9931H67.085V87.8061H70.1626V90.9267ZM76.1783 88.5258H73.0845V90.6206H76.7154V91.915H71.4732V84.0947H76.7046V85.3999H73.0845V87.2636H76.1783V88.5258ZM84.0201 91.915H82.4087L79.272 86.7695V91.915H77.6607V84.0947H79.272L82.4141 89.2509V84.0947H84.0201V91.915ZM85.4273 91.915V84.0947H87.8335C88.521 84.0947 89.1351 84.2504 89.6758 84.562C90.2201 84.8699 90.6444 85.3103 90.9488 85.8833C91.2531 86.4526 91.4053 87.1007 91.4053 87.8276V88.1875C91.4053 88.9143 91.2549 89.5607 90.9541 90.1264C90.6569 90.6922 90.2362 91.1308 89.6919 91.4423C89.1477 91.7539 88.5336 91.9114 87.8497 91.915H85.4273ZM87.0386 85.3999V90.6206H87.8174C88.4476 90.6206 88.9292 90.4147 89.2623 90.0029C89.5953 89.5911 89.7653 89.0021 89.7725 88.2358V87.8222C89.7725 87.0273 89.6078 86.4257 89.2784 86.0175C88.9489 85.6058 88.4673 85.3999 87.8335 85.3999H87.0386ZM96.8785 90.3037H94.0533L93.5162 91.915H91.8028L94.7139 84.0947H96.2071L99.1343 91.915H97.4209L96.8785 90.3037ZM94.4883 88.9985H96.4434L95.4605 86.0712L94.4883 88.9985ZM99.8649 91.915V84.0947H102.604C103.553 84.0947 104.273 84.2773 104.763 84.6425C105.254 85.0042 105.499 85.5359 105.499 86.2378C105.499 86.6209 105.401 86.9593 105.204 87.2529C105.007 87.5429 104.733 87.756 104.382 87.8921C104.783 87.9923 105.098 88.1946 105.327 88.499C105.56 88.8033 105.676 89.1757 105.676 89.6162C105.676 90.3681 105.437 90.9375 104.957 91.3242C104.477 91.7109 103.793 91.9078 102.905 91.915H99.8649ZM101.476 88.5097V90.6206H102.857C103.236 90.6206 103.532 90.531 103.743 90.352C103.958 90.1694 104.065 89.9187 104.065 89.6001C104.065 88.8839 103.694 88.5205 102.953 88.5097H101.476ZM101.476 87.3711H102.669C103.481 87.3567 103.888 87.0327 103.888 86.3989C103.888 86.0444 103.784 85.7902 103.576 85.6362C103.372 85.4786 103.048 85.3999 102.604 85.3999H101.476V87.3711ZM108.502 90.6206H111.923V91.915H106.89V84.0947H108.502V90.6206ZM117.557 88.5258H114.464V90.6206H118.094V91.915H112.852V84.0947H118.084V85.3999H114.464V87.2636H117.557V88.5258Z" fill="white"/>
<path d="M98.8773 9.4926H89.4506L88.2722 7.41604C87.683 5.93287 85.7683 4.7463 84.148 4.7463H73.8376L69.8607 0.741604C69.4188 0.296644 68.8296 0 68.2404 0C68.2404 0 68.2404 0 68.0932 0C66.9148 0 65.8838 1.18657 65.8838 2.37315V28.4778H49.387H49.2397C46.4411 28.4778 43.7898 29.3678 41.5805 30.8509H37.6036C33.6267 30.8509 30.5336 27.7362 30.5336 23.7315C30.5336 22.5449 29.3552 21.3583 28.1769 21.3583C26.8513 21.3583 25.8202 22.5449 25.8202 23.7315C25.8202 30.2576 30.8281 35.4489 37.1617 35.5972C35.9833 37.6738 35.2469 40.1952 35.2469 42.7167V66.4482C35.2469 69.1179 37.3091 71.1945 39.9603 71.1945H49.387C51.8909 71.1945 54.1004 69.1179 54.1004 66.4482V52.2093H68.2404V66.4482C68.2404 69.1179 70.3026 71.1945 72.9538 71.1945H82.3805C84.8845 71.1945 87.0939 69.1179 87.0939 66.4482V30.8509H91.8072C96.9625 30.8509 101.234 26.6979 101.234 21.3583V11.8657C101.234 10.6792 100.056 9.4926 98.8773 9.4926ZM82.3805 66.4482H72.9538V47.463H49.387V66.4482H39.9603V42.7167C39.9603 37.5254 44.0845 33.3724 49.387 33.2241H66.7676L82.3805 37.2288V66.4482ZM96.5206 21.3583C96.5206 24.0281 94.3112 26.1046 91.8072 26.1046H82.3805V32.3341L70.5971 29.3678V8.15773L71.9227 9.4926H84.148L86.5047 14.2389H96.5206V21.3583ZM82.3805 14.2389C82.3805 13.0523 81.2022 11.8657 80.0238 11.8657C78.6982 11.8657 77.6672 13.0523 77.6672 14.2389C77.6672 15.5738 78.6982 16.612 80.0238 16.612C81.2022 16.612 82.3805 15.5738 82.3805 14.2389Z" fill="white"/>
<path d="M98.8773 9.4926H89.4506L88.2722 7.41604C87.683 5.93287 85.7683 4.7463 84.148 4.7463H73.8376L69.8607 0.741604C69.4188 0.296644 68.8296 0 68.2404 0C68.2404 0 68.2404 0 68.0932 0C66.9148 0 65.8838 1.18657 65.8838 2.37315V28.4778H49.387H49.2397C46.4411 28.4778 43.7898 29.3678 41.5805 30.8509H37.6036C33.6267 30.8509 30.5336 27.7362 30.5336 23.7315C30.5336 22.5449 29.3552 21.3583 28.1769 21.3583C26.8513 21.3583 25.8202 22.5449 25.8202 23.7315C25.8202 30.2576 30.8281 35.4489 37.1617 35.5972C35.9833 37.6738 35.2469 40.1952 35.2469 42.7167V66.4482C35.2469 69.1179 37.3091 71.1945 39.9603 71.1945H49.387C51.8909 71.1945 54.1004 69.1179 54.1004 66.4482V52.2093H68.2404V66.4482C68.2404 69.1179 70.3026 71.1945 72.9538 71.1945H82.3805C84.8845 71.1945 87.0939 69.1179 87.0939 66.4482V30.8509H91.8072C96.9625 30.8509 101.234 26.6979 101.234 21.3583V11.8657C101.234 10.6792 100.056 9.4926 98.8773 9.4926ZM82.3805 66.4482H72.9538V47.463H49.387V66.4482H39.9603V42.7167C39.9603 37.5254 44.0845 33.3724 49.387 33.2241H66.7676L82.3805 37.2288V66.4482ZM96.5206 21.3583C96.5206 24.0281 94.3112 26.1046 91.8072 26.1046H82.3805V32.3341L70.5971 29.3678V8.15773L71.9227 9.4926H84.148L86.5047 14.2389H96.5206V21.3583ZM82.3805 14.2389C82.3805 13.0523 81.2022 11.8657 80.0238 11.8657C78.6982 11.8657 77.6672 13.0523 77.6672 14.2389C77.6672 15.5738 78.6982 16.612 80.0238 16.612C81.2022 16.612 82.3805 15.5738 82.3805 14.2389Z" fill="white"/>
</svg>
