<svg width="109" height="113" viewBox="0 0 109 113" fill="none" xmlns="http://www.w3.org/2000/svg">
<g clip-path="url(#clip0_51_94)">
<path d="M107.5 73.519H101.5L100.75 72.2064C100.375 71.269 99.1563 70.519 98.125 70.519H91.5625L89.0313 67.9877C88.75 67.7065 88.375 67.519 88 67.519C88 67.519 88 67.519 87.9063 67.519C87.1563 67.519 86.5 68.269 86.5 69.019V85.519H76H75.9063C74.125 85.519 72.4375 86.0815 71.0313 87.019H68.5C65.9687 87.019 64 85.0502 64 82.519C64 81.769 63.25 81.019 62.5 81.019C61.6563 81.019 61 81.769 61 82.519C61 86.644 64.1875 89.9252 68.2187 90.019C67.4687 91.3315 67 92.9252 67 94.519V109.519C67 111.206 68.3125 112.519 70 112.519H76C77.5937 112.519 79 111.206 79 109.519V100.519H88V109.519C88 111.206 89.3125 112.519 91 112.519H97C98.5937 112.519 100 111.206 100 109.519V87.019H103C106.281 87.019 109 84.394 109 81.019V75.019C109 74.269 108.25 73.519 107.5 73.519ZM97 109.519H91V97.519H76V109.519H70V94.519C70 91.2377 72.625 88.6127 76 88.519H87.0625L97 91.0503V109.519ZM106 81.019C106 82.7064 104.594 84.019 103 84.019H97V87.9564L89.5 86.0815V72.6752L90.3437 73.519H98.125L99.625 76.519H106V81.019ZM97 76.519C97 75.769 96.25 75.019 95.5 75.019C94.6563 75.019 94 75.769 94 76.519C94 77.3627 94.6563 78.019 95.5 78.019C96.25 78.019 97 77.3627 97 76.519Z" fill="#2554A2"/>
<path d="M107.5 73.519H101.5L100.75 72.2064C100.375 71.269 99.1563 70.519 98.125 70.519H91.5625L89.0313 67.9877C88.75 67.7065 88.375 67.519 88 67.519C88 67.519 88 67.519 87.9063 67.519C87.1563 67.519 86.5 68.269 86.5 69.019V85.519H76H75.9063C74.125 85.519 72.4375 86.0815 71.0313 87.019H68.5C65.9687 87.019 64 85.0502 64 82.519C64 81.769 63.25 81.019 62.5 81.019C61.6563 81.019 61 81.769 61 82.519C61 86.644 64.1875 89.9252 68.2187 90.019C67.4687 91.3315 67 92.9252 67 94.519V109.519C67 111.206 68.3125 112.519 70 112.519H76C77.5937 112.519 79 111.206 79 109.519V100.519H88V109.519C88 111.206 89.3125 112.519 91 112.519H97C98.5937 112.519 100 111.206 100 109.519V87.019H103C106.281 87.019 109 84.394 109 81.019V75.019C109 74.269 108.25 73.519 107.5 73.519ZM97 109.519H91V97.519H76V109.519H70V94.519C70 91.2377 72.625 88.6127 76 88.519H87.0625L97 91.0503V109.519ZM106 81.019C106 82.7064 104.594 84.019 103 84.019H97V87.9564L89.5 86.0815V72.6752L90.3437 73.519H98.125L99.625 76.519H106V81.019ZM97 76.519C97 75.769 96.25 75.019 95.5 75.019C94.6563 75.019 94 75.769 94 76.519C94 77.3627 94.6563 78.019 95.5 78.019C96.25 78.019 97 77.3627 97 76.519Z" fill="#2554A2"/>
<path d="M55.2806 16.1638C50.3771 34.3296 39.4481 26.8499 37.5792 26.3659L33.6411 28.6041L33.908 27.6152L37.3389 25.6685C37.5796 24.142 37.3039 20.5827 40.9475 17.8935C44.5931 15.1968 47.7976 16.2659 55.2806 16.1638ZM52.7127 18.7229C54.1168 17.0738 52.4162 18.4307 52.4162 18.4307C50.7654 19.8296 48.9353 20.1844 46.9296 20.6305C44.3165 21.2105 40.805 22.201 39.0706 24.3935C37.3382 26.5783 38.244 25.5659 39.3323 24.7089C40.4281 23.854 43.3416 23.0081 45.2188 22.5845C47.8264 21.9947 50.3561 21.4819 52.7127 18.7229Z" fill="#2554A2"/>
<path d="M30.5312 11.5312C30.5312 17.069 26.0378 21.5625 20.5 21.5625C14.9622 21.5625 10.4688 17.069 10.4688 11.5312C10.4688 5.99347 14.9622 1.5 20.5 1.5C26.0378 1.5 30.5312 5.99347 30.5312 11.5312ZM20.5 28.4062C22.6878 28.4062 24.7712 27.9431 26.6572 27.125H30.75C35.5831 27.125 39.5 31.0419 39.5 35.875V37.1562C39.5 38.4499 38.4499 39.5 37.1562 39.5H3.84375C2.55011 39.5 1.5 38.4499 1.5 37.1562V35.875C1.5 31.0419 5.4169 27.125 10.25 27.125H14.3439C16.2342 27.9423 18.3102 28.4062 20.5 28.4062Z" stroke="#2554A2" stroke-width="3"/>
<path d="M30.5312 11.5312C30.5312 17.069 26.0378 21.5625 20.5 21.5625C14.9622 21.5625 10.4688 17.069 10.4688 11.5312C10.4688 5.99347 14.9622 1.5 20.5 1.5C26.0378 1.5 30.5312 5.99347 30.5312 11.5312ZM20.5 28.4062C22.6878 28.4062 24.7712 27.9431 26.6572 27.125H30.75C35.5831 27.125 39.5 31.0419 39.5 35.875V37.1562C39.5 38.4499 38.4499 39.5 37.1562 39.5H3.84375C2.55011 39.5 1.5 38.4499 1.5 37.1562V35.875C1.5 31.0419 5.4169 27.125 10.25 27.125H14.3439C16.2342 27.9423 18.3102 28.4062 20.5 28.4062Z" stroke="#2554A2" stroke-width="3"/>
<path d="M30.5312 11.5312C30.5312 17.069 26.0378 21.5625 20.5 21.5625C14.9622 21.5625 10.4688 17.069 10.4688 11.5312C10.4688 5.99347 14.9622 1.5 20.5 1.5C26.0378 1.5 30.5312 5.99347 30.5312 11.5312ZM20.5 28.4063C22.6878 28.4063 24.7712 27.9431 26.6572 27.125H30.75C35.5831 27.125 39.5 31.0419 39.5 35.875V37.1562C39.5 38.4499 38.4499 39.5 37.1562 39.5H3.84375C2.55011 39.5 1.5 38.4499 1.5 37.1562V35.875C1.5 31.0419 5.4169 27.125 10.25 27.125H14.3439C16.2342 27.9423 18.3102 28.4063 20.5 28.4063Z" stroke="#2554A2" stroke-width="3"/>
<path d="M55.2806 16.1637C50.3771 34.3295 39.4481 26.8498 37.5792 26.3657L33.6411 28.604L33.908 27.6151L37.339 25.6684C37.5796 24.1419 37.3039 20.5826 40.9475 17.8934C44.5931 15.1967 47.7976 16.2657 55.2806 16.1637ZM52.7127 18.7228C54.1168 17.0737 52.4162 18.4306 52.4162 18.4306C50.7654 19.8295 48.9353 20.1843 46.9296 20.6304C44.3165 21.2104 40.805 22.2009 39.0706 24.3934C37.3382 26.5782 38.244 25.5658 39.3323 24.7088C40.4281 23.8539 43.3416 23.008 45.2188 22.5844C47.8264 21.9946 50.3561 21.4818 52.7127 18.7228Z" fill="#2554A2"/>
<path d="M13.365 67.1836L22.5815 68.9874C23.2185 69.112 23.6327 69.7279 23.5053 70.3608L23.2056 71.8924C23.0809 72.5294 22.465 72.9436 21.8321 72.8162L15.298 71.5444L14.0194 78.0772C13.8947 78.7143 13.2789 79.1285 12.6459 79.0011L11.1103 78.7041C10.4733 78.5794 10.0591 77.9636 10.1865 77.3306L11.9902 68.1142C12.1122 67.4731 12.728 67.0589 13.365 67.1836Z" fill="#2554A2"/>
<path d="M15 70C17.3333 78.5 25.6 94.9 40 92.5" stroke="#2554A2" stroke-width="4" stroke-linecap="round"/>
<path d="M94.955 49.8797L86.0617 46.8621C85.4471 46.6535 85.1187 45.9879 85.3294 45.3776L85.8309 43.8998C86.0395 43.2851 86.7051 42.9567 87.3154 43.1675L93.6213 45.2999L95.7603 38.9962C95.9689 38.3815 96.6345 38.0531 97.2448 38.2639L98.727 38.7632C99.3417 38.9718 99.67 39.6374 99.4593 40.2477L96.4417 49.1409C96.2353 49.76 95.5696 50.0883 94.955 49.8797Z" fill="#2554A2"/>
<path d="M93.7105 46.8703C92.5324 38.1349 86.5284 20.7784 71.9369 21.2351" stroke="#2554A2" stroke-width="4" stroke-linecap="round"/>
</g>
<defs>
<clipPath id="clip0_51_94">
<rect width="109" height="113" fill="white"/>
</clipPath>
</defs>
</svg>
