<svg width="230" height="60" viewBox="0 0 230 60" fill="none" xmlns="http://www.w3.org/2000/svg">
<g clip-path="url(#clip0_25_1116)">
<path d="M153.537 53.7055C151.984 53.7055 150.706 53.3365 149.705 52.5984C148.724 51.8603 147.998 50.9069 147.528 49.7382C147.079 48.5695 146.854 47.3598 146.854 46.1092C146.854 44.4894 147.099 42.8697 147.59 41.2499C148.08 39.6097 148.755 38.0514 149.613 36.5752C150.492 35.099 151.483 33.7868 152.586 32.6386C153.69 31.4905 154.865 30.5883 156.112 29.9322C157.379 29.2556 158.636 28.9173 159.882 28.9173C160.781 28.9173 161.538 29.1326 162.151 29.5632C162.764 29.9732 163.07 30.6908 163.07 31.716C163.07 32.3311 162.958 33.0179 162.733 33.7765C162.529 34.5352 162.243 35.2733 161.875 35.9909C161.527 36.688 161.129 37.2621 160.679 37.7131C160.23 38.1642 159.77 38.3897 159.3 38.3897C159.095 38.3897 158.881 38.318 158.656 38.1745C158.431 38.0309 158.227 37.7849 158.043 37.4363C158.35 37.0878 158.697 36.6675 159.085 36.1754C159.474 35.6628 159.841 35.1297 160.189 34.5762C160.536 34.0021 160.822 33.4485 161.047 32.9154C161.272 32.3618 161.384 31.88 161.384 31.4699C161.384 31.1009 161.282 30.8138 161.078 30.6088C160.873 30.3833 160.516 30.2705 160.005 30.2705C159.106 30.2705 158.176 30.6088 157.215 31.2854C156.275 31.962 155.366 32.8744 154.487 34.0226C153.608 35.1503 152.811 36.4214 152.096 37.8362C151.401 39.2304 150.849 40.6758 150.441 42.1726C150.032 43.6488 149.828 45.0532 149.828 46.3859C149.828 47.3701 149.971 48.3132 150.257 49.2154C150.563 50.097 151.043 50.8146 151.697 51.3682C152.351 51.9423 153.21 52.2293 154.272 52.2293C155.376 52.2293 156.469 51.9218 157.553 51.3067C158.656 50.6916 159.657 49.8817 160.557 48.8771C161.476 47.8724 162.212 46.796 162.764 45.6478L163.561 46.1707C162.846 47.5444 161.987 48.8053 160.986 49.9535C159.984 51.0812 158.85 51.9833 157.583 52.6599C156.337 53.357 154.988 53.7055 153.537 53.7055ZM164.062 52.014C163.142 52.014 162.509 51.7065 162.161 51.0914C161.834 50.4968 161.671 49.8407 161.671 49.1231C161.671 48.467 161.773 47.8007 161.977 47.1241C162.182 46.4269 162.458 45.7811 162.805 45.1865C163.173 44.5919 163.571 44.1204 164.001 43.7718C164.45 43.4027 164.9 43.2182 165.349 43.2182C165.492 43.2182 165.656 43.249 165.84 43.3105C166.044 43.3515 166.187 43.4232 166.269 43.5258C166.024 43.8333 165.768 44.2126 165.503 44.6637C165.257 45.1148 165.022 45.5966 164.798 46.1092C164.593 46.6012 164.43 47.1036 164.307 47.6161C164.184 48.1287 164.123 48.6003 164.123 49.0308C164.123 49.4409 164.195 49.7792 164.338 50.0457C164.501 50.3123 164.777 50.4456 165.165 50.4456C165.554 50.4456 166.014 50.2303 166.545 49.7997C167.097 49.3486 167.618 48.8361 168.108 48.262C167.454 47.6674 166.984 47.0215 166.698 46.3244C166.412 45.6068 166.269 44.7457 166.269 43.741C166.269 43.3105 166.371 42.8184 166.576 42.2648C166.8 41.7112 167.148 41.2294 167.618 40.8194C168.108 40.4093 168.762 40.2043 169.58 40.2043C170.458 40.2043 171.072 40.4503 171.419 40.9424C171.787 41.4344 171.971 42.0188 171.971 42.6954C171.971 43.454 171.766 44.3049 171.358 45.248C170.969 46.1912 170.499 47.083 169.948 47.9237C170.193 48.0467 170.479 48.1082 170.806 48.1082C171.112 48.1082 171.48 48.0364 171.909 47.8929C172.339 47.7494 172.758 47.5136 173.166 47.1856C173.575 46.837 173.902 46.3757 174.147 45.8016L174.699 46.2014C174.249 47.2471 173.647 48.0159 172.89 48.508C172.155 48.9796 171.429 49.2154 170.714 49.2154C170.448 49.2154 170.183 49.1949 169.917 49.1539C169.651 49.0924 169.406 49.0206 169.181 48.9386C168.486 49.7587 167.689 50.4763 166.79 51.0914C165.891 51.7065 164.981 52.014 164.062 52.014ZM168.905 47.2778C169.396 46.5602 169.815 45.7914 170.162 44.9712C170.51 44.1511 170.683 43.3925 170.683 42.6954C170.683 42.2238 170.612 41.8855 170.469 41.6805C170.326 41.455 170.111 41.3422 169.825 41.3422C169.437 41.3422 169.038 41.619 168.629 42.1726C168.221 42.7261 168.016 43.4232 168.016 44.2639C168.016 44.6944 168.088 45.2173 168.231 45.8324C168.394 46.4475 168.619 46.9293 168.905 47.2778ZM183.775 51.645C182.978 51.645 182.365 51.44 181.936 51.0299C181.527 50.6403 181.323 50.138 181.323 49.5229C181.323 49.1129 181.394 48.6823 181.537 48.2312C181.68 47.7597 181.823 47.2881 181.966 46.8165C182.109 46.3449 182.181 45.8939 182.181 45.4633C182.181 45.0122 182.069 44.7047 181.844 44.5407C181.639 44.3561 181.394 44.2639 181.108 44.2639C180.495 44.2639 179.861 44.5202 179.207 45.0327C178.574 45.5248 177.951 46.1502 177.338 46.9088C176.745 47.6674 176.183 48.4568 175.652 49.2769C175.12 50.097 174.66 50.8351 174.272 51.4912C173.884 51.4912 173.516 51.4195 173.168 51.2759C172.821 51.1529 172.525 50.9274 172.279 50.5993C172.3 50.4968 172.423 50.1893 172.647 49.6767C172.852 49.1436 173.087 48.5183 173.352 47.8007C173.618 47.0625 173.853 46.2937 174.057 45.4941C174.262 44.6944 174.364 43.9666 174.364 43.3105C174.507 43.1465 174.722 42.9824 175.008 42.8184C175.314 42.6544 175.631 42.5724 175.958 42.5724C176.673 42.5724 177.031 42.8799 177.031 43.495C177.031 43.741 176.98 44.1101 176.878 44.6022C176.796 45.0737 176.673 45.6171 176.51 46.2322C177.041 45.5146 177.624 44.838 178.257 44.2024C178.891 43.5668 179.545 43.0542 180.219 42.6646C180.914 42.2546 181.609 42.0495 182.304 42.0495C183.182 42.0495 183.826 42.3468 184.235 42.9414C184.664 43.536 184.879 44.1921 184.879 44.9097C184.879 45.5248 184.776 46.0989 184.572 46.632C184.368 47.1651 184.163 47.6674 183.959 48.139C183.775 48.6105 183.683 49.0718 183.683 49.5229C183.683 49.851 183.755 50.0868 183.898 50.2303C184.061 50.3533 184.235 50.4148 184.419 50.4148C184.909 50.4148 185.42 50.179 185.952 49.7074C186.483 49.2359 186.984 48.6413 187.454 47.9237C187.944 47.1856 188.373 46.4475 188.741 45.7093L189.262 46.1399C188.833 47.1446 188.343 48.0672 187.791 48.9078C187.259 49.7279 186.657 50.3943 185.982 50.9069C185.328 51.3989 184.592 51.645 183.775 51.645ZM190.723 52.4446C189.824 52.4446 189.098 52.1781 188.547 51.645C187.995 51.1119 187.719 50.302 187.719 49.2154C187.719 48.3747 187.872 47.3291 188.179 46.0784C188.506 44.8277 188.914 43.536 189.405 42.2033C189.262 42.1623 189.088 42.1316 188.884 42.1111C188.7 42.07 188.516 42.0085 188.332 41.9265V40.9731C188.659 41.0141 188.925 41.0449 189.129 41.0654C189.354 41.0859 189.579 41.1064 189.803 41.1269C190.233 40.0402 190.692 38.9946 191.183 37.9899C191.694 36.9648 192.195 36.0524 192.685 35.2528C193.196 34.4531 193.676 33.8278 194.126 33.3767C194.575 32.9052 194.974 32.6694 195.321 32.6694C195.526 32.6694 195.72 32.7514 195.904 32.9154C196.088 33.0589 196.18 33.2742 196.18 33.5613C196.18 33.9713 195.965 34.5557 195.536 35.3143C195.127 36.0729 194.616 36.9648 194.003 37.9899C193.39 38.9946 192.797 40.071 192.225 41.2192C192.389 41.2192 192.552 41.2192 192.716 41.2192C192.879 41.2192 193.032 41.2192 193.175 41.2192C194.075 41.2192 194.882 41.2089 195.597 41.1884C196.333 41.1474 197.079 41.0859 197.835 41.0039V42.0188C196.711 42.1213 195.679 42.2033 194.739 42.2648C193.799 42.3263 192.9 42.3673 192.041 42.3878C191.98 42.3878 191.919 42.3878 191.857 42.3878C191.796 42.3878 191.735 42.3878 191.673 42.3878C191.244 43.3925 190.866 44.4279 190.539 45.4941C190.233 46.5397 190.079 47.5649 190.079 48.5695C190.079 49.4101 190.212 50.0047 190.478 50.3533C190.744 50.7018 191.162 50.8761 191.735 50.8761C192.757 50.8761 193.799 50.4148 194.861 49.4922C195.945 48.549 196.885 47.2778 197.682 45.6786L198.111 45.9861C197.58 47.1958 196.915 48.2927 196.118 49.2769C195.342 50.261 194.494 51.0299 193.574 51.5835C192.654 52.1576 191.704 52.4446 190.723 52.4446ZM199.217 51.9525C198.318 51.9525 197.643 51.686 197.194 51.1529C196.744 50.6198 196.519 49.974 196.519 49.2154C196.519 48.7438 196.601 48.1492 196.765 47.4316C196.928 46.714 197.153 45.9656 197.439 45.1865C197.746 44.3869 198.093 43.6385 198.481 42.9414C198.87 42.2443 199.289 41.6805 199.738 41.2499C200.188 40.7989 200.637 40.5733 201.087 40.5733C201.332 40.5733 201.547 40.6553 201.731 40.8194C201.915 40.9629 202.007 41.1782 202.007 41.4652C202.007 41.7317 201.843 42.1316 201.516 42.6646C201.21 43.1977 200.842 43.8128 200.413 44.5099C200.004 45.207 199.636 45.9349 199.309 46.6935C199.003 47.4316 198.849 48.139 198.849 48.8156C198.849 49.4717 198.962 49.9125 199.186 50.138C199.432 50.343 199.779 50.4456 200.229 50.4456C200.924 50.4456 201.68 50.097 202.497 49.3999C203.315 48.7028 204.163 47.4829 205.041 45.7401L205.501 46.2322C204.786 48.0364 203.877 49.4409 202.773 50.4456C201.669 51.4502 200.484 51.9525 199.217 51.9525ZM202.834 38.0822C202.446 38.0822 202.088 37.9899 201.761 37.8054C201.455 37.6004 201.302 37.2928 201.302 36.8828C201.302 36.3907 201.567 35.9704 202.099 35.6218C202.63 35.2733 203.182 35.099 203.754 35.099C204.122 35.099 204.428 35.181 204.674 35.345C204.939 35.5091 205.072 35.8064 205.072 36.2369C205.072 36.6675 204.837 37.0878 204.367 37.4979C203.897 37.8874 203.386 38.0822 202.834 38.0822ZM205.782 59.6412C205.271 59.6412 204.79 59.4874 204.341 59.1799C203.912 58.8723 203.697 58.37 203.697 57.6729C203.697 57.0168 203.881 56.4222 204.249 55.8891C204.637 55.3765 205.138 54.8947 205.751 54.4437C206.384 54.0131 207.059 53.6133 207.774 53.2442C208.489 52.8752 209.184 52.5266 209.859 52.1986C210.083 51.645 210.298 51.0504 210.502 50.4148C210.707 49.7792 210.901 49.0924 211.085 48.3542C210.37 49.2564 209.613 50.0047 208.816 50.5993C208.04 51.1939 207.243 51.4912 206.425 51.4912C205.608 51.4912 204.954 51.2042 204.463 50.6301C203.993 50.056 203.758 49.2974 203.758 48.3542C203.758 47.2676 204.024 46.2527 204.555 45.3095C205.107 44.3459 205.812 43.495 206.671 42.7569C207.529 41.9983 208.449 41.4139 209.429 41.0039C210.41 40.5733 211.35 40.358 212.25 40.358C212.903 40.358 213.394 40.4811 213.721 40.7271C214.048 40.9526 214.211 41.2192 214.211 41.5267C214.211 41.7727 214.14 41.9675 213.997 42.1111C213.854 42.2546 213.762 42.3366 213.721 42.3571C213.517 42.1316 213.302 41.988 213.077 41.9265C212.873 41.8445 212.628 41.8035 212.341 41.8035C211.544 41.8035 210.778 42.029 210.043 42.4801C209.307 42.9312 208.653 43.5155 208.081 44.2331C207.529 44.9302 207.089 45.6581 206.763 46.4167C206.436 47.1753 206.272 47.8622 206.272 48.4773C206.272 48.8873 206.364 49.2051 206.548 49.4307C206.732 49.6357 206.957 49.7382 207.222 49.7382C207.795 49.7382 208.489 49.3691 209.307 48.631C210.124 47.8724 210.911 46.96 211.667 45.8939C211.708 45.7298 211.739 45.5863 211.759 45.4633C211.8 45.3198 211.831 45.1865 211.851 45.0635C212.055 44.2434 212.301 43.6385 212.587 43.249C212.873 42.8594 213.271 42.6646 213.782 42.6646C213.884 42.6646 214.007 42.6749 214.15 42.6954C214.314 42.7159 214.487 42.7466 214.671 42.7877C214.671 43.1567 214.569 43.7616 214.365 44.6022C214.16 45.4428 213.884 46.427 213.537 47.5546C213.19 48.6618 212.801 49.7997 212.372 50.9684C213.006 50.7018 213.649 50.3328 214.303 49.8612C214.957 49.3691 215.56 48.7848 216.112 48.1082C216.664 47.4111 217.083 46.6422 217.369 45.8016L217.921 46.3552C217.594 47.2983 217.083 48.1595 216.388 48.9386C215.713 49.7177 214.978 50.3943 214.181 50.9684C213.384 51.522 212.648 51.9525 211.974 52.2601C211.422 53.6133 210.819 54.8435 210.165 55.9506C209.532 57.0783 208.847 57.9702 208.111 58.6263C207.396 59.3029 206.619 59.6412 205.782 59.6412ZM205.659 58.2265C206.027 58.2265 206.527 57.8779 207.161 57.1808C207.815 56.4837 208.52 55.3048 209.276 53.644C208.52 54.0131 207.825 54.3924 207.192 54.782C206.558 55.1715 206.047 55.5816 205.659 56.0121C205.271 56.4427 205.076 56.8938 205.076 57.3653C205.076 57.6319 205.128 57.8369 205.23 57.9804C205.352 58.1445 205.495 58.2265 205.659 58.2265ZM218.636 52.014C217.716 52.014 217.083 51.7065 216.735 51.0914C216.408 50.4968 216.245 49.8407 216.245 49.1231C216.245 48.467 216.347 47.8007 216.551 47.1241C216.756 46.4269 217.032 45.7811 217.379 45.1865C217.747 44.5919 218.145 44.1204 218.575 43.7718C219.024 43.4027 219.474 43.2182 219.923 43.2182C220.066 43.2182 220.23 43.249 220.414 43.3105C220.618 43.3515 220.761 43.4232 220.843 43.5258C220.598 43.8333 220.342 44.2126 220.077 44.6637C219.831 45.1148 219.596 45.5966 219.372 46.1092C219.167 46.6012 219.004 47.1036 218.881 47.6161C218.759 48.1287 218.697 48.6003 218.697 49.0308C218.697 49.4409 218.769 49.7792 218.912 50.0457C219.075 50.3123 219.351 50.4456 219.739 50.4456C220.128 50.4456 220.588 50.2303 221.119 49.7997C221.671 49.3486 222.192 48.8361 222.682 48.262C222.028 47.6674 221.558 47.0215 221.272 46.3244C220.986 45.6068 220.843 44.7457 220.843 43.741C220.843 43.3105 220.945 42.8184 221.15 42.2648C221.374 41.7112 221.722 41.2294 222.192 40.8194C222.682 40.4093 223.336 40.2043 224.154 40.2043C225.033 40.2043 225.646 40.4503 225.993 40.9424C226.361 41.4344 226.545 42.0188 226.545 42.6954C226.545 43.454 226.34 44.3049 225.932 45.248C225.543 46.1912 225.073 47.083 224.522 47.9237C224.767 48.0467 225.053 48.1082 225.38 48.1082C225.687 48.1082 226.054 48.0364 226.484 47.8929C226.913 47.7494 227.332 47.5136 227.74 47.1856C228.149 46.837 228.476 46.3757 228.721 45.8016L229.273 46.2014C228.824 47.2471 228.221 48.0159 227.464 48.508C226.729 48.9796 226.003 49.2154 225.288 49.2154C225.022 49.2154 224.757 49.1949 224.491 49.1539C224.225 49.0924 223.98 49.0206 223.755 48.9386C223.06 49.7587 222.263 50.4763 221.364 51.0914C220.465 51.7065 219.556 52.014 218.636 52.014ZM223.479 47.2778C223.97 46.5602 224.389 45.7914 224.736 44.9712C225.084 44.1511 225.257 43.3925 225.257 42.6954C225.257 42.2238 225.186 41.8855 225.043 41.6805C224.9 41.455 224.685 41.3422 224.399 41.3422C224.011 41.3422 223.612 41.619 223.203 42.1726C222.795 42.7261 222.59 43.4232 222.59 44.2639C222.59 44.6944 222.662 45.2173 222.805 45.8324C222.968 46.4475 223.193 46.9293 223.479 47.2778Z" fill="white"/>
</g>
<g clip-path="url(#clip1_25_1116)">
<path d="M153.488 9.61822L138.44 48.0233H125.774L119.442 26.5688L113.04 48.0233H100.375L89.2481 19.3721H82.3179V32.2258C82.3179 38.2829 84.7974 39.28 88.1835 39.28C88.9116 39.28 89.9006 39.1579 90.8485 38.9409L94.317 47.8672C92.3046 48.4302 88.8841 48.844 86.0612 48.844C74.4604 48.844 69.5083 44.157 69.5083 33.1686V19.3789H64.2265L52.9967 48.03H40.3313L33.9986 26.5756L27.5973 48.03H14.9319L0 9.61822H14.3687L21.8622 32.8227L29.0122 9.61822H38.9576L46.1763 32.8227L53.6011 9.61822H69.5014V2.71318L82.3179 0V9.61822H99.8324L107.326 32.8227L114.476 9.61822H124.421L131.64 32.8227L139.065 9.61822H153.502H153.488Z" fill="white"/>
</g>
<defs>
<clipPath id="clip0_25_1116">
<rect width="83.0233" height="31.3953" fill="white" transform="translate(146.512 28.6046)"/>
</clipPath>
<clipPath id="clip1_25_1116">
<rect width="153.488" height="48.8372" fill="white"/>
</clipPath>
</defs>
</svg>
