<?xml version="1.0" encoding="utf-8"?>
<!-- Generator: Adobe Illustrator 26.3.1, SVG Export Plug-In . SVG Version: 6.00 Build 0)  -->
<svg version="1.1" id="Capa_1" xmlns="http://www.w3.org/2000/svg" xmlns:xlink="http://www.w3.org/1999/xlink" x="0px" y="0px"
	 viewBox="0 0 287.99 287.99" style="enable-background:new 0 0 287.99 287.99;" xml:space="preserve">
<style type="text/css">
	.st0{fill:#2B2D6B;}
	.st1{fill:#EC7904;}
	.st2{fill-rule:evenodd;clip-rule:evenodd;fill:#FFFFFF;}
</style>
<g>
	<g>
		<rect x="143.99" class="st0" width="143.99" height="287.99"/>
		<rect class="st1" width="143.99" height="287.99"/>
	</g>
	<path class="st2" d="M186.9,110.6c0-8.09,6.7-13.41,16.44-13.41c11.76,0,22.63,8.37,24.61,24.89h5.58V91.58h-4.75
		c-1.35,3.38-3.34,4.77-5.86,4.77c-6.66,0-9.78-4.77-20.1-4.77c-16.49,0-30.18,13.16-30.18,28.52c0,33.54,52.54,26,52.54,53.67
		c0,9.79-7.57,17.03-17.32,17.03c-12.31,0-27.67-8.08-31.85-28.78h-4.77v33.84h4.77c0.27-3.66,2.75-6.71,6.41-6.71
		c4.75,0,14.25,7.26,25.15,7.26c17.02,0,31.29-13.96,31.29-30.47C238.85,129.06,186.9,135.74,186.9,110.6"/>
	<path class="st2" d="M134.7,92.16h-19.74l-24.99,58.72c-2.86,6.58-4.93,12.38-6.84,17.86H82.8c-1.91-5.64-4.3-12.06-6.69-18.32
		L53.35,92.16H32.33l42.5,103.68h13.86L134.7,92.16z"/>
</g>
</svg>
