<?xml version="1.0" encoding="utf-8"?>
<!-- Generator: Adobe Illustrator 25.3.1, SVG Export Plug-In . SVG Version: 6.00 Build 0)  -->
<svg version="1.1" id="Capa_1" xmlns="http://www.w3.org/2000/svg" xmlns:xlink="http://www.w3.org/1999/xlink" x="0px" y="0px"
	 viewBox="0 0 400 400" style="enable-background:new 0 0 400 400;" xml:space="preserve">
<style type="text/css">
	.st0{fill:#0075C9;}
</style>
<g>
	<path class="st0" d="M24.1,346.3h3.1l12.2,31.5h-4.6l-3-8.2H19.7l-3,8.2h-4.5L24.1,346.3z M30.5,366.1l-3-8.2
		c-0.9-2.7-1.4-4.1-1.8-5.2h-0.1c-0.3,1.1-0.9,2.6-1.8,5.3l-3,8.1H30.5z"/>
	<path class="st0" d="M45,372.7v-14.1h-3.9v-3.4H45v-5.1l4.2-1.3v6.5h6.8l-1.1,3.4h-5.6v13.3c0,2,0.8,2.9,2.3,2.9
		c1.4,0,2.7-0.6,3.6-1.2l1.4,2.9c-1.5,1-3.7,1.8-6,1.8C47,378.3,45,376.3,45,372.7z"/>
	<path class="st0" d="M63.5,367.4c0,4.2,2.7,7.4,7.1,7.4c2.2,0,4-0.7,5.6-1.5l1.3,2.9c-2.1,1.3-4.8,2-7.4,2
		c-7.5,0-10.9-5.5-10.9-11.9c0-6.9,3.8-11.7,9.5-11.7c5.9,0,9.3,4.5,9.3,11.7v1H63.5z M73.7,364.3c0-3.1-1.6-6.3-5-6.3
		c-3.2,0-5.2,2.9-5.2,6.3H73.7z"/>
	<path class="st0" d="M82.8,355.3h3.5l0.5,2.8c2.4-2,5-3.3,7.8-3.3c3.6,0,6.9,2.1,6.9,8v15.1h-4.2v-13.7c0-3.2-0.8-5.7-3.9-5.7
		c-2.3,0-4.5,1.3-6.5,3v16.3h-4.2V355.3z"/>
	<path class="st0" d="M106.2,366.7c0-6.7,4.6-12,11.4-12c2.4,0,4.4,0.7,5.8,1.4v3.7c-1.5-1-3.2-1.6-5.4-1.6c-4.6,0-7.4,3.6-7.4,8.3
		c0,5.3,2.8,8.3,7.1,8.3c2.3,0,3.9-0.8,5.4-1.6l1.2,3c-1.7,1.1-4.3,2.1-7.2,2.1C110.1,378.3,106.2,373.1,106.2,366.7z"/>
	<path class="st0" d="M127.7,347.9c0-1.5,1.1-2.7,2.7-2.7c1.6,0,2.8,1.1,2.8,2.7s-1.2,2.7-2.8,2.7S127.7,349.4,127.7,347.9z
		 M128.3,355.3h4.2v22.5h-4.2V355.3z"/>
	<path class="st0" d="M137.7,366.5c0-6.7,4.2-11.8,10.7-11.8c6.4,0,10.7,5.1,10.7,11.8c0,6.6-4.2,11.8-10.7,11.8
		C141.9,378.3,137.7,373.1,137.7,366.5z M154.7,366.5c0-4.9-2.4-8.3-6.3-8.3c-4,0-6.4,3.5-6.4,8.3c0,4.8,2.4,8.3,6.3,8.3
		C152.4,374.8,154.7,371.3,154.7,366.5z M149.2,345.5h4.7l-4.2,7h-3.2L149.2,345.5z"/>
	<path class="st0" d="M163.8,355.3h3.5l0.5,2.8c2.4-2,5-3.3,7.8-3.3c3.6,0,6.9,2.1,6.9,8v15.1h-4.2v-13.7c0-3.2-0.8-5.7-3.9-5.7
		c-2.3,0-4.5,1.3-6.5,3v16.3h-4.2V355.3z"/>
	<path class="st0" d="M198.8,347.9c0-1.5,1.1-2.7,2.7-2.7c1.6,0,2.8,1.1,2.8,2.7s-1.2,2.7-2.8,2.7S198.8,349.4,198.8,347.9z
		 M199.4,355.3h4.2v22.5h-4.2V355.3z"/>
	<path class="st0" d="M209.9,355.3h3.5l0.5,2.8c2.4-2,5-3.3,7.8-3.3c3.6,0,6.9,2.1,6.9,8v15.1h-4.2v-13.7c0-3.2-0.8-5.7-3.9-5.7
		c-2.3,0-4.5,1.3-6.5,3v16.3h-4.2V355.3z"/>
	<path class="st0" d="M234.5,355.3h3.5l0.5,2.8c2.3-1.9,4.9-3.3,7.8-3.3c2.6,0,4.8,1.2,5.9,3.8c2.7-2.4,5.5-3.8,8.3-3.8
		c3.7,0,6.9,2.3,6.9,8v15.1h-4.2v-13.9c0-3.1-0.7-5.5-3.8-5.5c-2.2,0-4.4,1.3-6.4,3c0,0.4,0,0.8,0,1.2v15.2h-4.2V364
		c0-3.1-0.7-5.6-3.8-5.6c-2.2,0-4.4,1.3-6.4,3v16.4h-4.2V355.3z"/>
	<path class="st0" d="M276.4,367.4c0,4.2,2.7,7.4,7.1,7.4c2.2,0,4-0.7,5.6-1.5l1.3,2.9c-2.1,1.3-4.8,2-7.4,2
		c-7.5,0-10.9-5.5-10.9-11.9c0-6.9,3.8-11.7,9.5-11.7c5.9,0,9.3,4.5,9.3,11.7v1H276.4z M286.5,364.3c0-3.1-1.6-6.3-5-6.3
		c-3.2,0-5.2,2.9-5.2,6.3H286.5z"/>
	<path class="st0" d="M294.5,366.8c0-7.2,5.2-12.1,11.9-12.1c1.2,0,2.4,0.1,3.6,0.4v-11h4.2v32.6c-1.8,1-4.7,1.6-7.5,1.6
		C299.9,378.3,294.5,374.3,294.5,366.8z M310,374.2v-15.4c-1-0.3-1.9-0.5-3.3-0.5c-4.3,0-7.8,3-7.8,8.5c0,5,3,8,7.9,8
		C307.8,374.7,309.1,374.5,310,374.2z"/>
	<path class="st0" d="M320.1,347.9c0-1.5,1.1-2.7,2.7-2.7c1.6,0,2.8,1.1,2.8,2.7s-1.2,2.7-2.8,2.7S320.1,349.4,320.1,347.9z
		 M320.7,355.3h4.2v22.5h-4.2V355.3z"/>
	<path class="st0" d="M343.9,375.3c-1.7,1.6-3.9,2.9-6.7,2.9c-4.1,0-7.2-2.7-7.2-7c0-3,1.5-5,3.8-6.1c1.6-0.8,3.4-1,5.7-1.1l4.2-0.1
		v-1.2c0-3.2-2-4.6-4.7-4.6c-2.6,0-4.5,0.8-6.1,1.8l-1.5-2.9c2.6-1.6,5.5-2.2,8.1-2.2c5.1,0,8.3,2.4,8.3,7.9v8.2
		c0,3.9,0.1,5.9,0.4,7h-3.6L343.9,375.3z M340,367c-1.8,0-3,0.3-4,0.8c-1.2,0.7-1.8,1.8-1.8,3.2c0,2.3,1.5,3.9,3.9,3.9
		c2.6,0,4.5-1.6,5.5-2.6v-5.4L340,367z"/>
	<path class="st0" d="M355.5,372.7v-14.1h-3.9v-3.4h3.9v-5.1l4.2-1.3v6.5h6.8l-1.1,3.4h-5.6v13.3c0,2,0.8,2.9,2.3,2.9
		c1.4,0,2.7-0.6,3.6-1.2l1.4,2.9c-1.5,1-3.7,1.8-6,1.8C357.5,378.3,355.5,376.3,355.5,372.7z"/>
	<path class="st0" d="M383.5,375.3c-1.7,1.6-3.9,2.9-6.7,2.9c-4.1,0-7.2-2.7-7.2-7c0-3,1.5-5,3.8-6.1c1.6-0.8,3.4-1,5.7-1.1l4.2-0.1
		v-1.2c0-3.2-2-4.6-4.7-4.6c-2.6,0-4.5,0.8-6.1,1.8l-1.5-2.9c2.6-1.6,5.5-2.2,8.1-2.2c5.1,0,8.3,2.4,8.3,7.9v8.2
		c0,3.9,0.1,5.9,0.4,7h-3.6L383.5,375.3z M379.5,367c-1.8,0-3,0.3-4,0.8c-1.2,0.7-1.8,1.8-1.8,3.2c0,2.3,1.5,3.9,3.9,3.9
		c2.6,0,4.5-1.6,5.5-2.6v-5.4L379.5,367z"/>
</g>
<g>
	<g>
		<path class="st0" d="M92,233.8c-1.6-1.6-4.2-1.5-5.8,0.1c-11.9,12.4-18.5,28.6-18.5,45.8v14.6c0,2.3,1.8,4.1,4.1,4.1
			s4.1-1.8,4.1-4.1v-14.6c0-15,5.8-29.3,16.2-40.1C93.7,237.9,93.6,235.4,92,233.8L92,233.8z"/>
		<path class="st0" d="M133.1,263.1H99.5c-3.8,0-6.9,3.1-6.9,6.9v12.5c0,3.8,3.1,6.9,6.9,6.9h33.6c3.8,0,6.9-3.1,6.9-6.9V270
			C140,266.2,136.9,263.1,133.1,263.1z M131.8,281.2h-31.1v-10h31.1V281.2z"/>
		<path class="st0" d="M321.1,175.9c-1.7-1.5-4.3-1.2-5.7,0.5c-1.5,1.7-1.2,4.3,0.5,5.7c13.9,11.7,21.8,28.8,21.8,46.9
			c0,33.8-27.5,61.3-61.3,61.3s-61.3-27.5-61.3-61.3s27.5-61.3,61.3-61.3c9,0,17.7,1.9,25.8,5.7c2,0.9,4.5,0.1,5.4-2
			c0.9-2,0.1-4.5-2-5.4c-9.2-4.3-19-6.4-29.2-6.4c-31.6,0-58.3,21.2-66.7,50.1l-9.1-3.7v-17c13.4-10.6,21.7-27,21.7-44.7v-2.1
			c9.8-0.6,17.6-8.8,17.6-18.7c0-2.8-0.6-5.4-1.7-7.8l0-20.2c2-7,1.7-14.5-0.9-21.3l-0.9-2.3l-0.5-9.2c-0.7-12.3-8.3-23.2-19.5-28.1
			l-0.6-0.6c-6.9-6.7-16.3-10.1-25.9-9.1l-4.3,0.4l-2.6-1.1c-8.2-3.5-17.5-3.5-25.7,0l-2.6,1.1l-4.3-0.4c-9.6-0.9-19,2.4-25.9,9.1
			l-0.6,0.6c-1.3,0.6-2.6,1.2-3.8,2c-1.9,1.2-2.6,3.7-1.4,5.6c1.2,1.9,3.7,2.6,5.6,1.4c1.1-0.7,2.2-1.2,3.4-1.7
			c0.5-0.2,0.9-0.5,1.3-0.9l1.1-1.1c5.2-5,12.3-7.5,19.4-6.9l5.4,0.5c0.7,0.1,1.4,0,2-0.3l3.6-1.5c6.1-2.6,13.1-2.6,19.3,0l3.6,1.5
			c0.6,0.3,1.3,0.4,2,0.3l5.4-0.5c7.2-0.7,14.3,1.8,19.4,6.9l1.1,1.1c0.4,0.4,0.8,0.7,1.3,0.9c8.7,3.5,14.7,11.9,15.2,21.3l0.5,9.9
			c0,0.4,0.1,0.8,0.3,1.2l1.1,2.9c2,5.3,2.2,11.2,0.5,16.6c-0.1,0.4-0.2,0.8-0.2,1.2l0,12.1c-2.3-1.3-4.9-2-7.7-2.2V94.6
			c0-3.3-1.6-6.3-4.3-8.2c-2.7-1.9-6.1-2.3-9.2-1.1c-4.8,1.8-10.2,1.2-14.4-1.8l-8.2-5.7c-1.6-1.1-3.8-0.9-5.2,0.4
			c-6.1,5.9-15.5,5.9-21.6,0c-1.4-1.4-3.6-1.5-5.2-0.4l-8.3,5.8c-4.2,2.9-9.5,3.6-14.3,1.8l-0.7-0.2c-3.1-1.1-6.5-0.7-9.1,1.2
			c-2.7,1.9-4.3,4.9-4.3,8.2v10.3c-2.7,0.2-5.3,0.9-7.6,2.1V96.3c0-0.6-0.1-1.2-0.4-1.8l-0.7-1.5c-2.8-5.9-2.1-12.7,1.9-17.8
			c0.5-0.7,0.8-1.4,0.9-2.3l0.5-9.9c0.2-2.9,0.8-5.7,2-8.4c0.9-2.1,0-4.5-2.1-5.4c-2.1-0.9-4.5,0-5.4,2.1c-1.5,3.6-2.4,7.3-2.6,11.2
			l-0.5,8.6c-5.2,7.5-6,17-2,25.3l0.3,0.6v18.2c-1.2,2.4-1.8,5.2-1.8,8.1c0,9.9,7.8,18.1,17.6,18.7v2.2c0,18,8.5,34.6,22.3,45.2V206
			l-31.2,12.7c-2.4,1-4.9,2.2-7.2,3.5c-2,1.1-2.7,3.6-1.6,5.5c0.7,1.3,2.1,2.1,3.6,2.1c0.7,0,1.4-0.2,2-0.5c2.1-1.2,4.2-2.2,6.3-3.1
			l23.1-9.4l31.6,79.1c0.6,1.5,2.1,2.6,3.8,2.6c1.7,0,3.2-1,3.8-2.6l31.6-79.1l2.2,0.9c-0.6,3.7-0.9,7.5-0.9,11.3
			c0,38.3,31.2,69.5,69.5,69.5c38.3,0,69.5-31.2,69.5-69.5C345.8,208.5,336.8,189.2,321.1,175.9L321.1,175.9z M108.2,123.5
			c0-5.4,4.1-9.9,9.4-10.5v21C112.4,133.4,108.2,128.9,108.2,123.5L108.2,123.5z M231.7,123.5c0,5.4-4.1,9.9-9.4,10.5v-21
			C227.5,113.6,231.7,118.1,231.7,123.5z M125.8,144.4V94.5c0-0.8,0.5-1.3,0.8-1.5c0.2-0.1,0.6-0.3,1-0.3c0.2,0,0.4,0,0.6,0.1
			l0.7,0.2c7.3,2.7,15.4,1.6,21.7-2.8l5.7-4c8.3,6,19.4,6,27.7,0l5.6,3.9c6.4,4.5,14.6,5.5,22,2.7c0.8-0.3,1.4,0,1.7,0.2
			c0.3,0.2,0.8,0.7,0.8,1.5v49.7c0,20.6-13.1,39.1-32.5,46l-0.4,0.1c-7.4,2.6-15.6,2.6-23.1,0C138.8,183.4,125.8,165,125.8,144.4
			L125.8,144.4z M155.4,198.1c4.6,1.7,9.5,2.5,14.4,2.5c4.8,0,9.6-0.8,14.2-2.4l0.4-0.1c2.8-1,5.5-2.2,8.1-3.6v13.4L176,221.9
			c-3.4,2.9-8.4,2.9-11.8,0l-16.1-14.1v-12.9C150.4,196.1,152.8,197.2,155.4,198.1L155.4,198.1z M170.3,283.4l-27.9-69.7l0.1,0
			l16.3,14.3c3.2,2.8,7.2,4.2,11.3,4.2c4,0,8-1.4,11.2-4.1l16.7-14.4l0.1,0.1L170.3,283.4z"/>
	</g>
	<g>
		<g>
			<g>
				<path class="st0" d="M248.4,213.4c-1.1-0.6-2.4-0.2-3,0.9l0,0.1c-0.6,1.1-0.2,2.4,0.9,3c0.3,0.2,0.7,0.3,1.1,0.3
					c0.8,0,1.5-0.4,1.9-1.1l0-0.1C249.8,215.3,249.4,213.9,248.4,213.4z"/>
				<path class="st0" d="M318.6,220.3c-3.5-13.4-13.1-24.6-26.2-29.8c-2.3-7-8.9-11.9-16.3-11.9c-7.6,0-14.1,5-16.3,11.9
					c-7.9,3.2-14.6,8.5-19.5,15.4c-3.1,4.4-5.4,9.3-6.7,14.4c-5.7,0.4-10.2,5.2-10.2,10.9c0,5.8,4.5,10.5,10.2,10.9
					c4.9,18.9,22.1,33,42.5,33c20.4,0,37.7-14,42.5-33c5.7-0.4,10.2-5.2,10.2-10.9C328.8,225.5,324.3,220.8,318.6,220.3z
					 M227.8,231.3c0-3,2.1-5.6,4.8-6.4c-0.2,1.3-0.3,2.6-0.4,4c0,0,0,0,0,0.1c0,0.2,0,0.5,0,0.7c0,0.1,0,0.2,0,0.3
					c0,0.2,0,0.3,0,0.5c0,0.3,0,0.5,0,0.8c0,0.3,0,0.7,0,1c0,0.1,0,0.2,0,0.3c0,0.2,0,0.5,0,0.7c0,0.1,0,0.2,0,0.3
					c0,0.3,0,0.6,0.1,0.9c0,0.1,0,0.3,0,0.4c0,0.2,0,0.4,0,0.5c0,0.2,0,0.3,0,0.5c0,0.2,0,0.4,0.1,0.6c0,0.2,0.1,0.5,0.1,0.7
					c0,0.1,0,0.3,0.1,0.4C229.8,236.9,227.8,234.3,227.8,231.3z M276.1,183c4.3,0,8.3,2.2,10.6,5.7c0,0-0.1,0-0.1,0c0,0-0.1,0-0.1,0
					c0,0,0,0,0,0c-6.8,0.1-12.4,5.6-12.4,12.5c0,2.7,0.8,5.2,2.3,7.3c-0.1,0-0.2,0-0.4,0c-7,0-12.8-5.7-12.8-12.8
					C263.3,188.7,269,183,276.1,183z M315.6,232.3c0,0.1,0,0.1,0,0.2c0,0.3,0,0.6,0,0.9c0,0.1,0,0.1,0,0.2c0,0.3,0,0.6-0.1,0.9
					c0,0.1,0,0.1,0,0.2c0,0.3,0,0.6-0.1,0.9c0,0.1,0,0.2,0,0.2c0,0.3-0.1,0.5-0.1,0.8c0,0.1,0,0.2,0,0.3c0,0.2-0.1,0.4-0.1,0.7
					c0,0.1,0,0.3-0.1,0.4c0,0.2-0.1,0.4-0.1,0.5c0,0.2-0.1,0.4-0.1,0.5c0,0.1-0.1,0.3-0.1,0.4c-3.7,17.9-19.7,31.4-38.7,31.4
					c-19,0-35-13.5-38.7-31.5c0-0.2-0.1-0.3-0.1-0.5c0-0.2-0.1-0.3-0.1-0.5c0-0.2-0.1-0.4-0.1-0.7c0-0.1,0-0.2-0.1-0.3
					c0-0.3-0.1-0.6-0.1-0.8c0,0,0-0.1,0-0.1c0-0.3-0.1-0.7-0.1-1c0,0,0,0,0,0c-0.1-1.4-0.2-2.7-0.2-4.1c0-0.3,0-0.6,0-0.9
					c0-0.1,0-0.2,0-0.3c0-0.2,0-0.4,0-0.6c0-0.1,0-0.2,0-0.4c0-0.2,0-0.4,0-0.6c0-0.3,0-0.6,0.1-1c0,0,0-0.1,0-0.1
					c1.3-13.7,9.8-25.8,22.2-31.8c0,0,0,0,0,0.1c0,1.6,0.2,3.1,0.6,4.5c-3.9,2.1-7.4,4.9-10.3,8.3c-0.8,0.9-0.7,2.3,0.3,3.1
					c0.4,0.3,0.9,0.5,1.4,0.5c0.6,0,1.2-0.3,1.7-0.8c2.5-2.9,5.4-5.3,8.7-7.1c3,5.1,8.5,8.5,14.8,8.5c1.9,0,3.8-0.3,5.7-1
					c0.8-0.3,1.4-1,1.5-1.8c0.1-0.8-0.3-1.6-1-2.1c-2.3-1.5-3.7-4-3.7-6.8c0-4.4,3.5-8,7.8-8.1c14.6,3.9,25.4,15.7,28.4,30.1
					c0,0.2,0.1,0.5,0.1,0.7c0,0.1,0,0.3,0.1,0.4c0,0.2,0.1,0.4,0.1,0.6c0,0.1,0,0.2,0.1,0.4c0,0.2,0.1,0.4,0.1,0.7
					c0,0.1,0,0.2,0,0.3c0.1,0.6,0.2,1.3,0.2,1.9c0,0.1,0,0.1,0,0.2c0,0.2,0,0.5,0,0.7c0,0.1,0,0.2,0,0.3c0,0.2,0,0.5,0,0.7
					c0,0.1,0,0.2,0,0.3c0,0.3,0,0.6,0,1C315.6,231.6,315.6,232,315.6,232.3z M319.5,237.6c0-0.2,0-0.3,0.1-0.5c0-0.2,0-0.4,0.1-0.5
					c0-0.2,0.1-0.4,0.1-0.7c0-0.1,0-0.3,0-0.4c0-0.2,0-0.4,0.1-0.6c0-0.1,0-0.3,0-0.4c0-0.3,0-0.6,0.1-0.9c0-0.1,0-0.2,0-0.3
					c0-0.2,0-0.5,0-0.7c0-0.1,0-0.2,0-0.3c0-0.3,0-0.7,0-1c0-0.3,0-0.6,0-0.9c0-0.1,0-0.2,0-0.3c0-0.2,0-0.4,0-0.5
					c0-0.1,0-0.3,0-0.4c0-0.2,0-0.3,0-0.5c0-0.1,0-0.3,0-0.4c0-0.1,0-0.3,0-0.4c0-0.1,0-0.3,0-0.4c0-0.1,0-0.3,0-0.4
					c0-0.1,0-0.3,0-0.4c0-0.2,0-0.3-0.1-0.5c0-0.2,0-0.4-0.1-0.5c0-0.2-0.1-0.4-0.1-0.6c2.8,0.8,4.9,3.3,4.9,6.4
					C324.4,234.3,322.3,236.9,319.5,237.6z"/>
				<path class="st0" d="M268.3,233.8c-1-3.8-4.5-6.5-8.5-6.5c-4,0-7.5,2.7-8.5,6.5c-0.3,1.2,0.4,2.4,1.6,2.7
					c1.2,0.3,2.4-0.4,2.7-1.6c0.5-1.9,2.3-3.3,4.2-3.3c2,0,3.7,1.3,4.2,3.3c0.3,1,1.2,1.6,2.1,1.6c0.2,0,0.4,0,0.6-0.1
					C267.9,236.2,268.6,235,268.3,233.8z"/>
				<path class="st0" d="M292.4,227.3c-4,0-7.5,2.7-8.5,6.5c-0.3,1.2,0.4,2.4,1.6,2.7c1.2,0.3,2.4-0.4,2.7-1.6
					c0.5-1.9,2.3-3.3,4.2-3.3c2,0,3.7,1.3,4.2,3.3c0.3,1,1.1,1.6,2.1,1.6c0.2,0,0.4,0,0.6-0.1c1.2-0.3,1.9-1.5,1.6-2.7
					C299.8,230,296.3,227.3,292.4,227.3z"/>
				<path class="st0" d="M283,249.2c-1.2-0.3-2.4,0.4-2.7,1.6c-0.5,1.9-2.3,3.3-4.2,3.3c-2,0-3.7-1.3-4.2-3.3
					c-0.3-1.2-1.5-1.9-2.7-1.6c-1.2,0.3-1.9,1.5-1.6,2.7c1,3.8,4.5,6.5,8.5,6.5c4,0,7.5-2.7,8.5-6.5
					C284.9,250.7,284.2,249.5,283,249.2z"/>
			</g>
		</g>
	</g>
</g>
</svg>
