<?xml version="1.0" encoding="utf-8"?>
<!-- Generator: Adobe Illustrator 25.3.1, SVG Export Plug-In . SVG Version: 6.00 Build 0)  -->
<svg version="1.1" id="Capa_1" xmlns="http://www.w3.org/2000/svg" xmlns:xlink="http://www.w3.org/1999/xlink" x="0px" y="0px"
	 viewBox="0 0 400 400" style="enable-background:new 0 0 400 400;" xml:space="preserve">
<style type="text/css">
	.st0{fill:#0075C9;}
	.st1{fill:#FFFFFF;}
</style>
<g>
	<path class="st0" d="M22.7,341.2h2.8l11,28.5h-4.1l-2.8-7.5h-11l-2.7,7.5h-4.1L22.7,341.2z M28.5,359.1l-2.7-7.4
		c-0.8-2.4-1.3-3.7-1.6-4.7h-0.1c-0.3,1-0.8,2.4-1.6,4.8l-2.7,7.4H28.5z"/>
	<path class="st0" d="M41.6,365.1v-12.8h-3.5v-3.1h3.5v-4.7l3.8-1.2v5.9h6.1l-1,3.1h-5.1v12c0,1.8,0.7,2.6,2.1,2.6
		c1.3,0,2.5-0.6,3.3-1.1l1.3,2.6c-1.3,1-3.4,1.6-5.4,1.6C43.5,370.1,41.6,368.3,41.6,365.1z"/>
	<path class="st0" d="M58.4,360.3c0,3.8,2.4,6.7,6.4,6.7c2,0,3.7-0.6,5.1-1.4l1.2,2.6c-1.9,1.2-4.4,1.9-6.7,1.9
		c-6.8,0-9.9-5-9.9-10.8c0-6.2,3.4-10.6,8.6-10.6c5.4,0,8.4,4.1,8.4,10.6v1H58.4z M67.6,357.5c0-2.8-1.4-5.7-4.5-5.7
		c-2.9,0-4.7,2.6-4.7,5.7H67.6z"/>
	<path class="st0" d="M75.9,349.3h3.2l0.5,2.5c2.2-1.8,4.5-3,7.1-3c3.2,0,6.2,1.9,6.2,7.3v13.7h-3.8v-12.4c0-2.9-0.7-5.1-3.5-5.1
		c-2.1,0-4.1,1.2-5.9,2.8v14.8h-3.8V349.3z"/>
	<path class="st0" d="M97.1,359.7c0-6.1,4.1-10.9,10.4-10.9c2.2,0,4,0.6,5.2,1.3v3.3c-1.4-0.9-2.9-1.5-4.9-1.5
		c-4.2,0-6.7,3.2-6.7,7.6c0,4.8,2.5,7.5,6.5,7.5c2.1,0,3.5-0.7,4.9-1.4l1.1,2.7c-1.5,1-3.9,1.9-6.5,1.9
		C100.6,370.1,97.1,365.5,97.1,359.7z"/>
	<path class="st0" d="M116.6,342.6c0-1.3,1-2.4,2.4-2.4c1.5,0,2.5,1,2.5,2.4c0,1.4-1.1,2.5-2.5,2.5S116.6,344,116.6,342.6z
		 M117.2,349.3h3.8v20.4h-3.8V349.3z"/>
	<path class="st0" d="M125.7,359.5c0-6,3.8-10.7,9.7-10.7c5.8,0,9.7,4.7,9.7,10.7c0,6-3.8,10.7-9.7,10.7
		C129.5,370.1,125.7,365.5,125.7,359.5z M141.1,359.5c0-4.4-2.2-7.6-5.7-7.6c-3.6,0-5.8,3.2-5.8,7.6c0,4.4,2.2,7.5,5.7,7.5
		C139,367,141.1,363.8,141.1,359.5z M136.1,340.4h4.2l-3.8,6.3h-2.9L136.1,340.4z"/>
	<path class="st0" d="M149.4,349.3h3.2l0.5,2.5c2.2-1.8,4.5-3,7.1-3c3.2,0,6.2,1.9,6.2,7.3v13.7h-3.8v-12.4c0-2.9-0.7-5.1-3.5-5.1
		c-2.1,0-4.1,1.2-5.9,2.8v14.8h-3.8V349.3z"/>
	<path class="st0" d="M181.2,350c2.2-0.8,4.6-1.3,7-1.3c6.8,0,10.6,4,10.6,10.6c0,6.5-4.4,10.7-10.4,10.7c-1.3,0-2.5-0.3-3.5-0.6
		v10.4h-3.8V350z M188.3,366.9c4.4,0,6.6-3,6.6-7.6c0-5-2.8-7.4-6.8-7.4c-1.1,0-2.1,0.2-3.1,0.5v13.7
		C186.1,366.7,187.1,366.9,188.3,366.9z"/>
	<path class="st0" d="M203.2,349.3h3.2l0.4,2.5c2.2-2.3,3.8-3,5.7-3c0.9,0,1.8,0.2,2.4,0.6l-1.3,3.4c-0.6-0.3-1.3-0.5-2-0.5
		c-1.4,0-2.8,0.8-4.7,2.6v14.8h-3.8V349.3z"/>
	<path class="st0" d="M216,359.5c0-6,3.8-10.7,9.7-10.7c5.8,0,9.7,4.7,9.7,10.7c0,6-3.8,10.7-9.7,10.7
		C219.8,370.1,216,365.5,216,359.5z M231.4,359.5c0-4.4-2.2-7.6-5.7-7.6c-3.6,0-5.8,3.2-5.8,7.6c0,4.4,2.2,7.5,5.7,7.5
		C229.3,367,231.4,363.8,231.4,359.5z"/>
	<path class="st0" d="M237.8,374c0-2.1,1.3-4,3.8-5.1c-0.9-0.5-1.4-1.5-1.4-2.5s0.5-2.5,2.3-4c-2-1.3-3.3-3.5-3.3-6.2
		c0-4,3-7.3,7.8-7.3c1.8,0,3.1,0.4,3.9,0.8c0.2,0.1,0.3,0.1,0.5,0c1-1,2.3-1.7,4.4-1.7c0.5,0,1,0.1,1.3,0.1l-0.9,2.8
		c-0.4-0.1-0.9-0.1-1.3-0.1c-0.6,0-1.3,0.1-1.8,0.5c1.4,1.4,2.1,3.2,2.1,5.1c0,4.4-3.3,7.4-8.1,7.4c-0.9,0-1.9-0.1-2.6-0.4
		c-0.7,0.8-1,1.4-1,2.1c0,3.9,13.5,0.4,13.5,8c0,3.8-3.7,6.5-10.1,6.5C241.3,379.9,237.8,377.7,237.8,374z M253.3,373.9
		c0-3.5-6.1-2.8-9.6-3.9c-1,0.6-2.4,1.7-2.4,3.5c0,2.3,2.4,3.7,6,3.7C251.2,377.1,253.3,375.7,253.3,373.9z M251.4,356.3
		c0-2.5-1.7-4.4-4.3-4.4c-2.5,0-4.3,1.6-4.3,4.4c0,2.5,1.6,4.5,4.3,4.5C249.6,360.7,251.4,359.2,251.4,356.3z"/>
	<path class="st0" d="M260.5,349.3h3.2l0.4,2.5c2.2-2.3,3.8-3,5.7-3c0.9,0,1.8,0.2,2.4,0.6l-1.3,3.4c-0.6-0.3-1.3-0.5-2-0.5
		c-1.4,0-2.8,0.8-4.7,2.6v14.8h-3.8V349.3z"/>
	<path class="st0" d="M286.2,367.5c-1.6,1.5-3.5,2.6-6.1,2.6c-3.8,0-6.6-2.5-6.6-6.4c0-2.7,1.4-4.5,3.5-5.5c1.4-0.7,3.1-0.9,5.1-1
		l3.8-0.1V356c0-2.9-1.8-4.1-4.2-4.1c-2.3,0-4.1,0.7-5.6,1.6l-1.3-2.6c2.4-1.4,5-2,7.4-2c4.6,0,7.6,2.2,7.6,7.1v7.4
		c0,3.5,0.1,5.4,0.4,6.4h-3.3L286.2,367.5z M282.6,359.9c-1.6,0-2.7,0.3-3.6,0.7c-1.1,0.6-1.6,1.6-1.6,2.9c0,2.1,1.4,3.5,3.5,3.5
		c2.4,0,4.1-1.4,5-2.3v-4.9L282.6,359.9z"/>
	<path class="st0" d="M295,349.3h3.2l0.4,2.5c2.1-1.7,4.4-3,7-3c2.4,0,4.3,1.1,5.3,3.4c2.4-2.2,5-3.4,7.5-3.4c3.4,0,6.3,2.1,6.3,7.3
		v13.7h-3.8v-12.6c0-2.8-0.6-5-3.4-5c-2,0-4,1.2-5.8,2.7c0,0.3,0,0.7,0,1.1v13.8H308v-12.5c0-2.8-0.6-5-3.4-5c-2,0-4,1.2-5.8,2.7
		v14.8H295V349.3z"/>
	<path class="st0" d="M341.5,367.5c-1.6,1.5-3.5,2.6-6.1,2.6c-3.8,0-6.6-2.5-6.6-6.4c0-2.7,1.4-4.5,3.5-5.5c1.4-0.7,3.1-0.9,5.1-1
		l3.8-0.1V356c0-2.9-1.8-4.1-4.2-4.1c-2.3,0-4.1,0.7-5.6,1.6l-1.3-2.6c2.4-1.4,5-2,7.4-2c4.6,0,7.6,2.2,7.6,7.1v7.4
		c0,3.5,0.1,5.4,0.4,6.4h-3.3L341.5,367.5z M338,359.9c-1.6,0-2.7,0.3-3.6,0.7c-1.1,0.6-1.6,1.6-1.6,2.9c0,2.1,1.4,3.5,3.5,3.5
		c2.4,0,4.1-1.4,5-2.3v-4.9L338,359.9z"/>
	<path class="st0" d="M349.3,359.7c0-6.6,4.7-11,10.7-11c1.1,0,2.2,0.1,3.2,0.4v-10h3.8v29.6c-1.6,0.9-4.2,1.4-6.8,1.4
		C354.2,370.1,349.3,366.6,349.3,359.7z M363.3,366.4v-14c-0.9-0.3-1.7-0.5-3-0.5c-3.9,0-7.1,2.8-7.1,7.7c0,4.5,2.7,7.3,7.1,7.3
		C361.3,366.9,362.5,366.8,363.3,366.4z"/>
	<path class="st0" d="M384.2,367.5c-1.6,1.5-3.5,2.6-6.1,2.6c-3.8,0-6.6-2.5-6.6-6.4c0-2.7,1.4-4.5,3.5-5.5c1.4-0.7,3.1-0.9,5.1-1
		l3.8-0.1V356c0-2.9-1.8-4.1-4.2-4.1c-2.3,0-4.1,0.7-5.6,1.6l-1.3-2.6c2.4-1.4,5-2,7.4-2c4.6,0,7.6,2.2,7.6,7.1v7.4
		c0,3.5,0.1,5.4,0.4,6.4h-3.3L384.2,367.5z M380.6,359.9c-1.6,0-2.7,0.3-3.6,0.7c-1.1,0.6-1.6,1.6-1.6,2.9c0,2.1,1.4,3.5,3.5,3.5
		c2.4,0,4.1-1.4,5-2.3v-4.9L380.6,359.9z"/>
</g>
<g>
	<g>
		<g>
			<path class="st0" d="M108.6,224.4c-1.6-1.5-4-1.5-5.6,0.1c-11.5,11.9-17.8,27.6-17.8,44.1v14.1c0,2.2,1.8,3.9,3.9,3.9
				s3.9-1.8,3.9-3.9v-14.1c0-14.5,5.6-28.2,15.6-38.7C110.2,228.4,110.2,225.9,108.6,224.4L108.6,224.4z"/>
			<path class="st0" d="M148.2,252.6h-32.3c-3.7,0-6.7,3-6.7,6.7v12.1c0,3.7,3,6.7,6.7,6.7h32.3c3.7,0,6.7-3,6.7-6.7v-12.1
				C154.8,255.6,151.8,252.6,148.2,252.6z M147,270.1h-30v-9.7h30V270.1z"/>
			<path class="st0" d="M329.4,168.7c-1.7-1.4-4.1-1.2-5.5,0.5c-1.4,1.7-1.2,4.1,0.5,5.5c13.3,11.3,21,27.7,21,45.2
				c0,32.6-26.5,59.1-59.1,59.1s-59.1-26.5-59.1-59.1s26.5-59.1,59.1-59.1c8.7,0,17,1.8,24.8,5.5c2,0.9,4.3,0.1,5.2-1.9
				c0.9-2,0.1-4.3-1.9-5.2c-8.9-4.1-18.3-6.2-28.1-6.2c-30.4,0-56.2,20.4-64.3,48.3l-8.8-3.6v-16.4c12.9-10.2,20.9-26,20.9-43.1v-2
				c9.4-0.6,16.9-8.4,16.9-18c0-2.7-0.6-5.2-1.6-7.5l0-19.4c1.9-6.7,1.6-14-0.9-20.6l-0.9-2.2l-0.5-8.9c-0.6-11.8-8-22.4-18.8-27.1
				l-0.6-0.6c-6.6-6.5-15.7-9.7-25-8.8l-4.2,0.4l-2.6-1.1c-7.9-3.4-16.9-3.4-24.7,0l-2.5,1.1l-4.2-0.4c-9.2-0.9-18.3,2.3-25,8.8
				l-0.6,0.6c-1.2,0.5-2.5,1.2-3.6,1.9c-1.9,1.1-2.5,3.5-1.3,5.4c1.1,1.9,3.5,2.5,5.4,1.3c1.1-0.6,2.2-1.2,3.3-1.6
				c0.5-0.2,0.9-0.5,1.3-0.8l1.1-1.1c5-4.9,11.8-7.3,18.7-6.6l5.2,0.5c0.7,0.1,1.3,0,1.9-0.3l3.5-1.5c5.9-2.5,12.7-2.5,18.6,0
				l3.5,1.5c0.6,0.3,1.3,0.4,1.9,0.3l5.2-0.5c6.9-0.7,13.8,1.7,18.7,6.6l1.1,1.1c0.4,0.4,0.8,0.6,1.3,0.8
				c8.4,3.4,14.2,11.5,14.7,20.6l0.5,9.5c0,0.4,0.1,0.8,0.3,1.2l1.1,2.8c2,5.1,2.1,10.8,0.5,16c-0.1,0.4-0.2,0.8-0.2,1.2l0,11.6
				c-2.2-1.2-4.7-2-7.4-2.1v-9.8c0-3.2-1.6-6.1-4.1-7.9c-2.6-1.8-5.9-2.2-8.9-1.1c-4.6,1.8-9.8,1.1-13.9-1.7l-7.9-5.5
				c-1.5-1.1-3.6-0.9-5,0.4c-5.8,5.6-15,5.6-20.8,0c-1.4-1.3-3.4-1.5-5-0.4l-8,5.6c-4,2.8-9.1,3.5-13.7,1.8l-0.7-0.2
				c-2.9-1.1-6.2-0.7-8.8,1.1c-2.6,1.8-4.1,4.7-4.1,7.9v9.9c-2.6,0.2-5.1,0.9-7.3,2.1V91.9c0-0.6-0.1-1.2-0.4-1.7l-0.7-1.4
				c-2.7-5.6-2-12.2,1.8-17.2c0.5-0.6,0.8-1.4,0.8-2.2l0.5-9.5c0.2-2.8,0.8-5.5,1.9-8.1c0.9-2,0-4.3-2-5.2c-2-0.9-4.3,0-5.2,2
				c-1.5,3.4-2.3,7.1-2.6,10.8l-0.5,8.3c-5,7.2-5.8,16.4-1.9,24.4l0.3,0.6v17.6c-1.1,2.4-1.8,5-1.8,7.8c0,9.6,7.5,17.4,16.9,18v2.1
				c0,17.3,8.2,33.3,21.5,43.6v15.8l-30.1,12.3c-2.3,1-4.7,2.1-7,3.4c-1.9,1.1-2.6,3.4-1.5,5.3c0.7,1.3,2.1,2,3.4,2
				c0.6,0,1.3-0.2,1.9-0.5c2-1.1,4.1-2.1,6.1-2.9l22.2-9.1l30.5,76.2c0.6,1.5,2,2.5,3.6,2.5s3.1-1,3.6-2.5l30.5-76.2l2.1,0.9
				c-0.6,3.5-0.9,7.2-0.9,10.9c0,36.9,30,66.9,66.9,66.9c36.9,0,66.9-30,66.9-66.9C353.2,200.1,344.5,181.4,329.4,168.7L329.4,168.7
				z M124.2,118.1c0-5.2,4-9.6,9.1-10.1v20.3C128.2,127.7,124.2,123.3,124.2,118.1L124.2,118.1z M243.2,118.1c0,5.2-4,9.6-9.1,10.1
				V108C239.2,108.6,243.2,112.9,243.2,118.1z M141.1,138.3V90.2c0-0.8,0.5-1.2,0.7-1.4c0.2-0.1,0.5-0.3,1-0.3c0.2,0,0.4,0,0.6,0.1
				l0.7,0.2c7,2.6,14.8,1.6,20.9-2.7l5.5-3.9c8,5.8,18.7,5.8,26.7,0l5.4,3.8c6.2,4.3,14.1,5.3,21.2,2.6c0.7-0.3,1.3,0,1.6,0.2
				c0.3,0.2,0.8,0.6,0.8,1.4v47.9c0,19.9-12.6,37.7-31.3,44.4l-0.4,0.1c-7.2,2.5-15.1,2.5-22.2,0
				C153.6,175.9,141.1,158.1,141.1,138.3L141.1,138.3z M169.6,190c4.5,1.6,9.1,2.4,13.8,2.4c4.6,0,9.3-0.8,13.7-2.3l0.4-0.1
				c2.7-1,5.3-2.1,7.8-3.5v12.9l-15.9,13.6c-3.2,2.8-8.1,2.8-11.3,0l-15.5-13.6v-12.5C164.9,188,167.2,189.1,169.6,190L169.6,190z
				 M184,272.2l-26.8-67.1l0.1,0l15.7,13.7c3.1,2.7,7,4,10.9,4c3.8,0,7.7-1.3,10.8-4l16.1-13.8l0.1,0L184,272.2z"/>
		</g>
	</g>
	<circle class="st1" cx="286.9" cy="218.9" r="68.7"/>
	<g>
		<path class="st0" d="M286.9,158.1c-33.5,0-60.7,27.2-60.7,60.7s27.2,60.7,60.7,60.7s60.7-27.2,60.7-60.7S320.4,158.1,286.9,158.1z
			 M286.9,269.2c-27.8,0-50.3-22.6-50.3-50.3s22.6-50.3,50.3-50.3c27.8,0,50.3,22.6,50.3,50.3S314.7,269.2,286.9,269.2z"/>
		<polygon class="st0" points="295.5,209.9 310.8,209.9 310.8,227.9 277.5,227.9 277.5,188.7 295.5,188.7 		"/>
	</g>
</g>
</svg>
