<?xml version="1.0" encoding="utf-8"?>
<!-- Generator: Adobe Illustrator 25.3.1, SVG Export Plug-In . SVG Version: 6.00 Build 0)  -->
<svg version="1.1" id="Capa_1" xmlns="http://www.w3.org/2000/svg" xmlns:xlink="http://www.w3.org/1999/xlink" x="0px" y="0px"
	 viewBox="0 0 400 400" style="enable-background:new 0 0 400 400;" xml:space="preserve">
<style type="text/css">
	.st0{fill:#0075C9;}
</style>
<g>
	<g>
		<path class="st0" d="M26.6,348.4h3.1l12,31h-4.5l-3-8.1h-12l-3,8.1h-4.4L26.6,348.4z M32.9,367.9l-2.9-8.1c-0.9-2.6-1.4-4-1.7-5.2
			h-0.1c-0.3,1.1-0.8,2.6-1.8,5.2l-2.9,8H32.9z"/>
		<path class="st0" d="M47.1,374.5v-13.9h-3.8v-3.3h3.8v-5.1l4.1-1.3v6.4h6.7l-1.1,3.3h-5.5v13.1c0,2,0.8,2.8,2.3,2.8
			c1.4,0,2.7-0.6,3.6-1.2l1.4,2.9c-1.5,1-3.7,1.7-5.9,1.7C49.2,380,47.1,378,47.1,374.5z"/>
		<path class="st0" d="M65.4,369.3c0,4.2,2.6,7.3,7,7.3c2.2,0,4-0.7,5.5-1.5l1.3,2.9c-2.1,1.3-4.7,2-7.3,2
			c-7.4,0-10.8-5.4-10.8-11.7c0-6.8,3.7-11.5,9.4-11.5c5.8,0,9.2,4.5,9.2,11.6v1H65.4z M75.4,366.2c0-3.1-1.5-6.2-4.9-6.2
			c-3.2,0-5.1,2.8-5.2,6.2H75.4z"/>
		<path class="st0" d="M84.4,357.3h3.5l0.5,2.7c2.4-2,4.9-3.3,7.7-3.3c3.5,0,6.8,2.1,6.8,7.9v14.9h-4.1V366c0-3.1-0.8-5.6-3.8-5.6
			c-2.3,0-4.4,1.3-6.4,3v16.1h-4.1V357.3z"/>
		<path class="st0" d="M107.5,368.6c0-6.6,4.5-11.9,11.3-11.9c2.4,0,4.4,0.7,5.7,1.4v3.6c-1.5-1-3.2-1.6-5.4-1.6
			c-4.6,0-7.3,3.5-7.3,8.2c0,5.2,2.8,8.2,7,8.2c2.3,0,3.9-0.8,5.3-1.5l1.2,2.9c-1.6,1.1-4.3,2.1-7.1,2.1
			C111.3,380,107.5,374.9,107.5,368.6z"/>
		<path class="st0" d="M128.7,350c0-1.5,1.1-2.6,2.6-2.6c1.6,0,2.7,1.1,2.7,2.6s-1.2,2.7-2.7,2.7C129.8,352.7,128.7,351.5,128.7,350
			z M129.3,357.3h4.1v22.2h-4.1V357.3z"/>
		<path class="st0" d="M138.6,368.4c0-6.6,4.2-11.6,10.6-11.6c6.3,0,10.5,5.1,10.5,11.6c0,6.5-4.2,11.6-10.6,11.6
			C142.7,380,138.6,374.9,138.6,368.4z M155.4,368.4c0-4.8-2.3-8.2-6.2-8.2c-3.9,0-6.3,3.4-6.3,8.2c0,4.7,2.3,8.2,6.2,8.2
			C153,376.5,155.4,373.1,155.4,368.4z M149.9,347.6h4.6l-4.2,6.9h-3.1L149.9,347.6z"/>
		<path class="st0" d="M164.3,357.3h3.5l0.5,2.7c2.4-2,4.9-3.3,7.7-3.3c3.5,0,6.8,2.1,6.8,7.9v14.9h-4.1V366c0-3.1-0.8-5.6-3.8-5.6
			c-2.3,0-4.4,1.3-6.4,3v16.1h-4.1V357.3z"/>
		<path class="st0" d="M198.8,350c0-1.5,1.1-2.6,2.6-2.6c1.6,0,2.7,1.1,2.7,2.6s-1.2,2.7-2.7,2.7C199.9,352.7,198.8,351.5,198.8,350
			z M199.4,357.3h4.1v22.2h-4.1V357.3z"/>
		<path class="st0" d="M209.8,357.3h3.5l0.5,2.7c2.4-2,4.9-3.3,7.7-3.3c3.5,0,6.8,2.1,6.8,7.9v14.9h-4.1V366c0-3.1-0.8-5.6-3.8-5.6
			c-2.3,0-4.4,1.3-6.4,3v16.1h-4.1V357.3z"/>
		<path class="st0" d="M234,357.3h3.5l0.5,2.7c2.3-1.9,4.8-3.3,7.7-3.3c2.6,0,4.7,1.2,5.8,3.7c2.6-2.3,5.4-3.7,8.2-3.7
			c3.7,0,6.8,2.3,6.8,7.9v14.9h-4.1v-13.7c0-3.1-0.7-5.4-3.7-5.4c-2.2,0-4.4,1.3-6.3,3c0,0.4,0,0.8,0,1.2v15h-4.1v-13.6
			c0-3.1-0.7-5.5-3.7-5.5c-2.2,0-4.4,1.3-6.3,3v16.2H234V357.3z"/>
		<path class="st0" d="M275.3,369.3c0,4.2,2.6,7.3,7,7.3c2.2,0,4-0.7,5.5-1.5l1.3,2.9c-2.1,1.3-4.7,2-7.3,2
			c-7.4,0-10.8-5.4-10.8-11.7c0-6.8,3.7-11.5,9.4-11.5c5.8,0,9.2,4.5,9.2,11.6v1H275.3z M285.3,366.2c0-3.1-1.5-6.2-4.9-6.2
			c-3.2,0-5.1,2.8-5.2,6.2H285.3z"/>
		<path class="st0" d="M293.2,368.6c0-7.1,5.1-11.9,11.7-11.9c1.2,0,2.4,0.1,3.5,0.4v-10.9h4.1v32.2c-1.7,0.9-4.6,1.5-7.4,1.5
			C298.5,380,293.2,376.1,293.2,368.6z M308.4,375.9v-15.2c-1-0.3-1.8-0.5-3.2-0.5c-4.3,0-7.7,3-7.7,8.4c0,4.9,3,7.9,7.7,7.9
			C306.3,376.4,307.6,376.3,308.4,375.9z"/>
		<path class="st0" d="M318.4,350c0-1.5,1.1-2.6,2.6-2.6c1.6,0,2.7,1.1,2.7,2.6s-1.2,2.7-2.7,2.7C319.5,352.7,318.4,351.5,318.4,350
			z M319,357.3h4.1v22.2H319V357.3z"/>
		<path class="st0" d="M341.9,377.1c-1.7,1.6-3.9,2.9-6.6,2.9c-4.1,0-7.1-2.7-7.1-7c0-3,1.5-4.9,3.8-6c1.5-0.8,3.3-1,5.6-1.1
			l4.1-0.1v-1.2c0-3.1-1.9-4.5-4.6-4.5c-2.5,0-4.5,0.8-6.1,1.7l-1.5-2.9c2.6-1.5,5.4-2.2,8-2.2c5,0,8.2,2.4,8.2,7.7v8.1
			c0,3.8,0.1,5.8,0.4,7h-3.6L341.9,377.1z M338,368.8c-1.8,0-3,0.3-3.9,0.8c-1.2,0.7-1.7,1.8-1.7,3.1c0,2.3,1.5,3.8,3.9,3.8
			c2.6,0,4.4-1.5,5.4-2.5v-5.4L338,368.8z"/>
		<path class="st0" d="M353.3,374.5v-13.9h-3.8v-3.3h3.8v-5.1l4.1-1.3v6.4h6.7l-1.1,3.3h-5.5v13.1c0,2,0.8,2.8,2.3,2.8
			c1.4,0,2.7-0.6,3.6-1.2l1.4,2.9c-1.5,1-3.7,1.7-5.9,1.7C355.4,380,353.3,378,353.3,374.5z"/>
		<path class="st0" d="M380.9,377.1c-1.7,1.6-3.9,2.9-6.6,2.9c-4.1,0-7.1-2.7-7.1-7c0-3,1.5-4.9,3.8-6c1.5-0.8,3.3-1,5.6-1.1
			l4.1-0.1v-1.2c0-3.1-1.9-4.5-4.6-4.5c-2.5,0-4.5,0.8-6.1,1.7l-1.5-2.9c2.6-1.5,5.4-2.2,8-2.2c5,0,8.2,2.4,8.2,7.7v8.1
			c0,3.8,0.1,5.8,0.4,7h-3.6L380.9,377.1z M377.1,368.8c-1.8,0-3,0.3-3.9,0.8c-1.2,0.7-1.7,1.8-1.7,3.1c0,2.3,1.5,3.8,3.9,3.8
			c2.6,0,4.4-1.5,5.4-2.5v-5.4L377.1,368.8z"/>
	</g>
	<g>
		<g>
			<path class="st0" d="M318,270.9l-11.7-68.5c-1.3-7.4-6.5-13.3-13.7-15.5l-31.5-9.5c-0.7-7.7-3.8-15-9.1-20.7
				c-4.2-4.6-9.5-8-15.3-9.8c1-1.1,1.9-2.2,2.8-3.3c7.5-9.5,11.5-20.1,12.5-27.2h2.4c6.3,0,11.5-5.1,11.5-11.5V99
				c0-4.2-2.4-8.1-6-10V74.8c0-2.1-1.7-3.9-3.9-3.9c-2.1,0-3.9,1.7-3.9,3.9v15.9c-1.5,0.3-3.3,0.7-5.1,1.5c-0.2,0.1-0.4,0.1-0.5,0.2
				c-0.4,0.2-0.8,0.4-1.2,0.6V61.8c0-8.6-7-15.6-15.6-15.6h-10.7c-3.7,0-7.3,1.3-10.1,3.6l-1,0.9c-1.9,1.6-4.4,2.4-6.8,2.4
				s-4.9-0.9-6.8-2.4l-1-0.9c-2.9-2.3-6.5-3.6-10.1-3.6h-10.7c-8.6,0-15.6,7-15.6,15.6v31.2c-0.4-0.2-0.8-0.4-1.2-0.6
				c-0.2-0.1-0.4-0.2-0.5-0.2c-1.8-0.8-3.6-1.2-5.1-1.5V50.5c0-12.5,10.2-22.7,22.7-22.7h57.1c12.5,0,22.7,10.2,22.7,22.7v6.1
				c0,2.1,1.7,3.9,3.9,3.9c2.1,0,3.9-1.7,3.9-3.9v-6.1c0-16.8-13.7-30.5-30.5-30.5h-57.1c-16.8,0-30.5,13.7-30.5,30.5V89
				c-3.6,2-6,5.8-6,10v5.9c0,6.3,5.2,11.5,11.5,11.5h2.4c1,7.2,5,17.7,12.5,27.2c0.8,1.1,1.8,2.2,2.8,3.3
				c-13.4,4.3-23.2,16.3-24.4,30.6l-31.6,9.5c-7.2,2.2-12.4,8.1-13.7,15.5l-4.8,27.8c-0.4,2.1,1.1,4.1,3.2,4.5
				c2.1,0.4,4.1-1.1,4.5-3.2l4.8-27.8c0.8-4.5,3.9-8,8.3-9.4l29.2-8.8v7.7c-6.7,1.2-12.4,5.8-14.7,12.2c-0.6,1.7-1,3.5-1.1,5.3
				l-2.8,36.2c-0.2,2.7,0.7,5.4,2.6,7.4c1.9,2,4.5,3.2,7.2,3.2h4.8c2.1,0,3.9-1.7,3.9-3.9s-1.7-3.9-3.9-3.9h-4.8
				c-0.6,0-1.1-0.2-1.5-0.7c-0.4-0.4-0.6-1-0.6-1.6l2.8-36.2c0.1-1.1,0.3-2.2,0.7-3.2c1.6-4.4,6-7.4,11-7.5l0.6,0c0,0,0.1,0,0.1,0
				c4.8,0,9,2.7,10.8,6.9c0.5,1.2,0.8,2.4,0.9,3.7l2.8,36.2c0,0.6-0.2,1.2-0.6,1.6c-0.4,0.4-1,0.7-1.5,0.7h-4.8
				c-2.1,0-3.9,1.7-3.9,3.9c0,2.1,1.7,3.9,3.9,3.9h4.8c2.7,0,5.4-1.2,7.2-3.2c1.9-2,2.8-4.7,2.6-7.4l-2.8-36.2
				c-0.2-2.1-0.7-4.2-1.5-6.1c-2.6-6-8-10.2-14.4-11.3v-10l13.3-4c1.2,2.6,3.6,8.1,8.4,19.9c4.8,12,10.7,27.4,16.5,42.3
				c0,0.1,0.1,0.2,0.1,0.4c3.8,10,7.5,19.7,10.7,28.2c0.6,1.5,2,2.5,3.6,2.5s3.1-1,3.6-2.5c3.2-8.4,6.9-18.2,10.7-28.2
				c0.1-0.1,0.1-0.2,0.1-0.4c5.7-14.9,11.7-30.3,16.4-42.3c4.8-11.9,7.2-17.4,8.4-20l13.3,4v22.9c-9.2,1.8-16.2,9.9-16.2,19.7
				c0,11,9,20,20,20c11,0,20-9,20-20c0-9.7-6.9-17.8-16.1-19.6v-20.5l29.2,8.8c4.3,1.3,7.5,4.9,8.3,9.4l11.7,68.5
				c0.2,1.1-0.1,2.2-0.9,3.1c-0.7,0.9-1.8,1.4-2.9,1.4H95.2c-1.2,0-2.2-0.5-2.9-1.4c-0.7-0.9-1-2-0.9-3.1l3.9-22.6
				c0.4-2.1-1.1-4.1-3.2-4.5c-2.1-0.4-4.1,1.1-4.5,3.2l-3.9,22.6c-0.6,3.4,0.4,6.8,2.6,9.4c2.2,2.6,5.4,4.1,8.9,4.1h211.3
				c3.4,0,6.7-1.5,8.9-4.1C317.6,277.7,318.5,274.3,318,270.9z M252.2,98.6c2.1-0.5,3.7-0.5,3.7-0.5c0.7,0,1.3-0.1,1.9-0.4
				c0.2,0.4,0.3,0.9,0.3,1.4v5.9c0,2.1-1.7,3.7-3.7,3.7h-2.2L252.2,98.6L252.2,98.6z M149.5,108.6L149.5,108.6h-2.2
				c-2.1,0-3.7-1.7-3.7-3.7V99c0-0.5,0.1-0.9,0.3-1.4c0.6,0.3,1.2,0.5,1.9,0.4c0,0,1.7,0,3.7,0.5L149.5,108.6L149.5,108.6z
				 M157.3,113v-10.2c1.2,0.4,2.5,0.3,3.6-0.2c2-0.8,3.3-2.8,3.3-5V61.8c0-4.4,3.5-7.9,7.9-7.9h10.7c1.9,0,3.8,0.7,5.2,1.9l1,0.9
				c3.3,2.7,7.5,4.2,11.7,4.2c4.3,0,8.4-1.5,11.7-4.2l1-0.9c1.5-1.2,3.3-1.9,5.2-1.9h10.7c4.4,0,7.9,3.5,7.9,7.9v35.7
				c0,2.2,1.3,4.2,3.3,5c0.7,0.3,1.4,0.4,2.1,0.4c0.5,0,1-0.1,1.5-0.2V113c0,5.7-3.9,16.6-11.2,25.8c-2.4,3.1-5.5,6.3-9.3,9.2
				c-0.1,0.1-0.2,0.2-0.3,0.3c-5.9,4.3-13.4,7.7-22.8,7.7s-16.9-3.3-22.8-7.7c-0.1-0.1-0.2-0.2-0.3-0.3c-3.8-2.9-6.9-6.1-9.3-9.2
				C161.2,129.6,157.3,118.6,157.3,113z M226.2,175.5l-25.4,19l-25.4-19c2.5-3.2,3.9-7.3,3.9-11v-6.2c6,3.2,13.1,5.4,21.4,5.4
				c8.4,0,15.5-2.2,21.4-5.4v6.2C222.3,168.2,223.7,172.3,226.2,175.5z M169,171.2c-2.1-0.8-4.4-0.9-6.5-0.3c-0.1,0-0.2,0-0.3,0.1
				l-13.4,4c2.3-11.1,11.3-20,22.8-21.7v11.3C171.7,167,170.6,169.5,169,171.2z M179.5,202.3C179.5,202.3,179.5,202.3,179.5,202.3
				c-0.2-0.6-0.4-1-0.6-1.5c0-0.1-0.1-0.2-0.1-0.3c-0.2-0.5-0.4-0.9-0.6-1.4c0,0,0-0.1,0-0.1c-0.6-1.4-1.1-2.8-1.7-4.2
				c0-0.1-0.1-0.2-0.1-0.3c-0.2-0.4-0.3-0.8-0.5-1.1c-0.1-0.1-0.1-0.3-0.2-0.4c-0.1-0.4-0.3-0.7-0.4-1.1c0-0.1-0.1-0.2-0.1-0.3
				c-0.3-0.6-0.5-1.3-0.8-1.9c-0.1-0.2-0.1-0.3-0.2-0.5c-0.1-0.2-0.2-0.5-0.3-0.7c-0.1-0.2-0.2-0.5-0.3-0.7c0-0.1-0.1-0.2-0.1-0.3
				c0-0.1-0.1-0.1-0.1-0.2c-0.4-1.1-0.9-2.1-1.3-3.1c0,0,0,0,0,0c-0.2-0.5-0.4-1-0.6-1.5c-0.1-0.2-0.2-0.5-0.3-0.7l21.8,16.3
				l-9.1,3.9c0,0,0,0,0,0l-3.8,1.6C180,203.4,179.8,202.8,179.5,202.3z M188.8,226c-0.8-2-1.5-4-2.3-6c-1.2-3.1-2.4-6.1-3.5-8.9
				l1.4-0.6l5.9,6.9L188.8,226z M200.9,257.5c-0.1-0.2-0.2-0.4-0.4-0.7c-1.7-4.6-4-10.5-6.4-16.9l3.6-19.8h6.3l3.6,19.8
				C205,246.7,202.7,252.7,200.9,257.5z M205.5,212.4h-9.2l-4.3-5l8.9-3.8l8.9,3.8L205.5,212.4z M215.3,220c-0.8,2-1.5,4-2.3,6
				l-1.6-8.6l5.9-6.9l1.4,0.6C217.6,213.9,216.5,216.9,215.3,220z M230.1,182.8c-0.2,0.5-0.4,0.9-0.6,1.4c0,0.1-0.1,0.1-0.1,0.2
				c-0.2,0.5-0.4,1-0.6,1.5c0,0,0,0.1,0,0.1c-0.2,0.4-0.4,0.9-0.6,1.4c0,0.1-0.1,0.2-0.1,0.3c0,0.1-0.1,0.2-0.1,0.3
				c-0.1,0.2-0.2,0.4-0.3,0.6c-0.1,0.3-0.2,0.5-0.3,0.8c0,0.1-0.1,0.2-0.1,0.3c-0.3,0.7-0.5,1.3-0.8,2c0,0.1-0.1,0.2-0.1,0.3
				c-0.1,0.3-0.3,0.7-0.4,1.1c-0.1,0.1-0.1,0.3-0.2,0.4c-0.1,0.4-0.3,0.7-0.4,1.1c0,0.1-0.1,0.2-0.1,0.3c-0.5,1.3-1.1,2.7-1.6,4.1
				c0,0,0,0.1-0.1,0.1c-0.2,0.5-0.4,0.9-0.6,1.4c0,0.1-0.1,0.2-0.1,0.3c-0.2,0.5-0.4,1-0.6,1.5c0,0,0,0,0,0
				c-0.2,0.5-0.4,1.1-0.6,1.6l-3.8-1.6c0,0,0,0,0,0l-9.1-3.9l21.8-16.3C230.3,182.3,230.2,182.6,230.1,182.8z M239.5,171
				C239.5,171,239.5,171,239.5,171C239.5,171,239.5,171,239.5,171c-2.3-0.7-4.7-0.6-6.8,0.3c-1.6-1.7-2.6-4.2-2.6-6.6v-11.3
				c11.6,1.7,20.6,10.5,22.8,21.7L239.5,171z M269.6,225.8c0,6.8-5.5,12.3-12.3,12.3c-6.8,0-12.3-5.5-12.3-12.3
				c0-6.8,5.5-12.3,12.3-12.3C264,213.5,269.6,219,269.6,225.8z"/>
		</g>
	</g>
</g>
</svg>
