<?xml version="1.0" encoding="utf-8"?>
<!-- Generator: Adobe Illustrator 25.3.1, SVG Export Plug-In . SVG Version: 6.00 Build 0)  -->
<svg version="1.1" id="Capa_1" xmlns="http://www.w3.org/2000/svg" xmlns:xlink="http://www.w3.org/1999/xlink" x="0px" y="0px"
	 viewBox="0 0 400 400" style="enable-background:new 0 0 400 400;" xml:space="preserve">
<style type="text/css">
	.st0{fill:#0075C9;}
	.st1{fill:#FFFFFF;}
</style>
<g>
	<path class="st0" d="M64.3,290.7h6.5c3.1,0,5.2,0.5,7,1.4c3,1.6,4.8,4.6,4.8,8.7c0,3.7-1.6,7.2-5.6,8.9c-1.6,0.7-3.7,1.2-6.5,1.2
		h-1.8v11.4h-4.3V290.7z M70.7,307.4c1.9,0,3.3-0.3,4.3-0.9c2.1-1.1,3-3,3-5.7c0-2.5-1-4.5-2.8-5.6c-1.1-0.6-2.5-1-4.5-1h-2.2v13.2
		H70.7z"/>
	<path class="st0" d="M88.1,299.6h3.6l0.5,2.8c2.4-2.5,4.3-3.4,6.4-3.4c1,0,2,0.2,2.7,0.7l-1.5,3.7c-0.7-0.4-1.4-0.6-2.2-0.6
		c-1.6,0-3.1,0.9-5.2,2.9v16.5h-4.2V299.6z"/>
	<path class="st0" d="M102.3,311c0-6.7,4.3-11.9,10.8-11.9c6.4,0,10.8,5.2,10.8,11.9c0,6.7-4.3,11.9-10.8,11.9
		C106.6,322.8,102.3,317.6,102.3,311z M119.5,311c0-4.9-2.4-8.4-6.4-8.4c-4,0-6.4,3.5-6.4,8.4c0,4.9,2.4,8.4,6.4,8.4
		C117.1,319.3,119.5,315.8,119.5,311z"/>
	<path class="st0" d="M128.7,299.6h3.6l0.5,2.8c2.5-2,5-3.4,7.9-3.4c3.6,0,6.9,2.1,6.9,8.1v15.2h-4.2v-13.8c0-3.2-0.8-5.7-3.9-5.7
		c-2.3,0-4.5,1.3-6.5,3.1v16.5h-4.2V299.6z"/>
	<path class="st0" d="M155.4,317.3V303h-3.9v-3.4h3.9v-5.2l4.2-1.3v6.5h6.8l-1.2,3.4h-5.7v13.4c0,2,0.8,2.9,2.3,2.9
		c1.4,0,2.7-0.6,3.7-1.2l1.4,2.9c-1.5,1.1-3.7,1.8-6,1.8C157.4,322.8,155.4,320.8,155.4,317.3z"/>
	<path class="st0" d="M169.6,311c0-6.7,4.3-11.9,10.8-11.9c6.4,0,10.8,5.2,10.8,11.9c0,6.7-4.3,11.9-10.8,11.9
		C173.9,322.8,169.6,317.6,169.6,311z M186.8,311c0-4.9-2.4-8.4-6.4-8.4c-4,0-6.4,3.5-6.4,8.4c0,4.9,2.4,8.4,6.4,8.4
		C184.4,319.3,186.8,315.8,186.8,311z"/>
	<path class="st0" d="M206.7,299.6h3.6l0.5,2.8c2.5-2,5-3.4,7.9-3.4c3.6,0,6.9,2.1,6.9,8.1v15.2h-4.2v-13.8c0-3.2-0.8-5.7-3.9-5.7
		c-2.3,0-4.5,1.3-6.5,3.1v16.5h-4.2V299.6z"/>
	<path class="st0" d="M232.1,318.5c-0.4-1.2-0.6-2.5-0.6-4.3v-14.6h4.2v13.8c0,1.4,0.1,2.5,0.4,3.4c0.6,1.6,1.8,2.4,3.7,2.4
		c2.4,0,4.7-1.4,5.8-2.8v-16.7h4.2v15.7c0,3.8,0.1,5.9,0.5,7h-3.7l-0.7-2.5c-1.9,1.7-4.4,3-7.4,3
		C236.3,322.8,233.3,321.9,232.1,318.5z"/>
	<path class="st0" d="M259.4,311.9c0,4.3,2.7,7.4,7.2,7.4c2.2,0,4.1-0.7,5.7-1.5l1.3,2.9c-2.1,1.3-4.9,2.1-7.4,2.1
		c-7.5,0-11-5.5-11-12c0-6.9,3.8-11.8,9.6-11.8c6,0,9.4,4.6,9.4,11.8v1.1H259.4z M269.7,308.7c0-3.2-1.6-6.3-5-6.3
		c-3.3,0-5.2,2.9-5.3,6.3H269.7z"/>
	<path class="st0" d="M276.4,299.6h4.4l6.3,17.3h0.1l6.1-17.3h4.4l-8.9,22.9h-3.4L276.4,299.6z"/>
	<path class="st0" d="M313.8,319.9c-1.7,1.6-3.9,2.9-6.8,2.9c-4.2,0-7.3-2.7-7.3-7.1c0-3,1.5-5,3.8-6.2c1.6-0.8,3.4-1.1,5.7-1.2
		l4.2-0.1v-1.2c0-3.2-2-4.6-4.7-4.6c-2.6,0-4.6,0.8-6.2,1.8l-1.5-2.9c2.6-1.6,5.5-2.3,8.2-2.3c5.1,0,8.4,2.5,8.4,7.9v8.3
		c0,3.9,0.1,6,0.4,7.1h-3.7L313.8,319.9z M309.9,311.4c-1.8,0-3,0.3-4,0.8c-1.2,0.7-1.8,1.8-1.8,3.2c0,2.4,1.5,3.9,3.9,3.9
		c2.6,0,4.5-1.6,5.5-2.6v-5.5L309.9,311.4z"/>
	<path class="st0" d="M323.2,317.6c1.4,0.9,3.4,1.7,5.9,1.7c2.5,0,4.6-0.9,4.6-3.3c0-4.6-10.7-3.1-10.7-10.6c0-3.6,2.8-6.4,8-6.4
		c2.3,0,4.3,0.5,6,1.1v3.7c-1.6-0.7-3.5-1.3-5.8-1.3c-2.1,0-4,0.6-4,2.8c0,4.6,10.7,3,10.7,10.8c0,4.7-3.9,6.8-8.6,6.8
		c-3.2,0-5.8-1-7.4-2L323.2,317.6z"/>
	<path class="st0" d="M64.7,369.6c0,4.3,2.7,7.4,7.2,7.4c2.2,0,4.1-0.7,5.7-1.5l1.3,2.9c-2.1,1.3-4.9,2.1-7.4,2.1
		c-7.5,0-11-5.5-11-12c0-6.9,3.8-11.8,9.6-11.8c6,0,9.4,4.6,9.4,11.8v1.1H64.7z M75,366.4c0-3.2-1.6-6.3-5-6.3
		c-3.3,0-5.2,2.9-5.3,6.3H75z"/>
	<path class="st0" d="M83.8,375.3c1.4,0.9,3.4,1.7,5.9,1.7c2.5,0,4.6-0.9,4.6-3.3c0-4.6-10.7-3.1-10.7-10.6c0-3.6,2.8-6.4,8-6.4
		c2.3,0,4.3,0.5,6,1.1v3.7c-1.6-0.7-3.5-1.3-5.8-1.3c-2.1,0-4,0.6-4,2.8c0,4.6,10.7,3,10.7,10.8c0,4.7-3.9,6.8-8.6,6.8
		c-3.2,0-5.8-1-7.4-2L83.8,375.3z"/>
	<path class="st0" d="M103.1,358.1c2.5-0.9,5.1-1.4,7.8-1.4c7.5,0,11.8,4.4,11.8,11.8c0,7.3-4.9,12-11.6,12c-1.4,0-2.7-0.3-3.8-0.7
		v11.6h-4.2V358.1z M111,376.9c4.9,0,7.4-3.3,7.4-8.4c0-5.6-3.2-8.2-7.6-8.2c-1.2,0-2.3,0.2-3.5,0.5v15.3
		C108.5,376.7,109.6,376.9,111,376.9z"/>
	<path class="st0" d="M130.8,369.6c0,4.3,2.7,7.4,7.2,7.4c2.2,0,4.1-0.7,5.7-1.5l1.3,2.9c-2.1,1.3-4.9,2.1-7.4,2.1
		c-7.5,0-11-5.5-11-12c0-6.9,3.8-11.8,9.6-11.8c6,0,9.4,4.6,9.4,11.8v1.1H130.8z M141.1,366.4c0-3.2-1.6-6.3-5-6.3
		c-3.3,0-5.2,2.9-5.3,6.3H141.1z"/>
	<path class="st0" d="M149.1,368.9c0-6.8,4.6-12.2,11.5-12.2c2.5,0,4.5,0.7,5.8,1.4v3.7c-1.5-1-3.3-1.6-5.5-1.6
		c-4.7,0-7.5,3.6-7.5,8.4c0,5.3,2.8,8.4,7.2,8.4c2.3,0,3.9-0.8,5.4-1.6l1.2,3c-1.7,1.2-4.4,2.1-7.3,2.1
		C153,380.5,149.1,375.3,149.1,368.9z"/>
	<path class="st0" d="M170.9,349.9c0-1.5,1.1-2.7,2.7-2.7c1.6,0,2.8,1.2,2.8,2.7c0,1.5-1.2,2.7-2.8,2.7
		C172,352.6,170.9,351.4,170.9,349.9z M171.4,357.3h4.2V380h-4.2V357.3z"/>
	<path class="st0" d="M194.9,377.6c-1.7,1.6-3.9,2.9-6.8,2.9c-4.2,0-7.3-2.7-7.3-7.1c0-3,1.5-5,3.8-6.2c1.6-0.8,3.4-1.1,5.7-1.2
		l4.2-0.1v-1.2c0-3.2-2-4.6-4.7-4.6c-2.6,0-4.6,0.8-6.2,1.8l-1.5-2.9c2.6-1.6,5.5-2.3,8.2-2.3c5.1,0,8.4,2.5,8.4,7.9v8.3
		c0,3.9,0.1,6,0.4,7.1h-3.7L194.9,377.6z M190.9,369.1c-1.8,0-3,0.3-4,0.8c-1.2,0.7-1.8,1.8-1.8,3.2c0,2.4,1.5,3.9,3.9,3.9
		c2.6,0,4.5-1.6,5.5-2.6V369L190.9,369.1z"/>
	<path class="st0" d="M204.9,346h4.2v28.3c0,1.7,0.5,2.3,1.7,2.3c0.4,0,1.1-0.1,1.4-0.3l0.9,3.3c-1.1,0.4-2.4,0.7-3.5,0.7
		c-3.2,0-4.7-1.7-4.7-4.8V346z"/>
	<path class="st0" d="M216.7,349.9c0-1.5,1.1-2.7,2.7-2.7c1.6,0,2.8,1.2,2.8,2.7c0,1.5-1.2,2.7-2.8,2.7S216.7,351.4,216.7,349.9z
		 M217.3,357.3h4.2V380h-4.2V357.3z"/>
	<path class="st0" d="M226.8,368.9c0-7.3,5.2-12.2,12-12.2c1.2,0,2.5,0.1,3.6,0.4V346h4.2v32.9c-1.8,1-4.7,1.6-7.6,1.6
		C232.2,380.5,226.8,376.5,226.8,368.9z M242.4,376.4v-15.6c-1.1-0.3-1.9-0.5-3.3-0.5c-4.4,0-7.9,3.1-7.9,8.6c0,5,3,8.1,7.9,8.1
		C240.1,376.9,241.5,376.7,242.4,376.4z"/>
	<path class="st0" d="M265.6,377.6c-1.7,1.6-3.9,2.9-6.8,2.9c-4.2,0-7.3-2.7-7.3-7.1c0-3,1.5-5,3.8-6.2c1.6-0.8,3.4-1.1,5.7-1.2
		l4.2-0.1v-1.2c0-3.2-2-4.6-4.7-4.6c-2.6,0-4.6,0.8-6.2,1.8l-1.5-2.9c2.6-1.6,5.5-2.3,8.2-2.3c5.1,0,8.4,2.5,8.4,7.9v8.3
		c0,3.9,0.1,6,0.4,7.1h-3.7L265.6,377.6z M261.6,369.1c-1.8,0-3,0.3-4,0.8c-1.2,0.7-1.8,1.8-1.8,3.2c0,2.4,1.5,3.9,3.9,3.9
		c2.6,0,4.5-1.6,5.5-2.6V369L261.6,369.1z"/>
	<path class="st0" d="M274.3,368.9c0-7.3,5.2-12.2,12-12.2c1.2,0,2.5,0.1,3.6,0.4V346h4.2v32.9c-1.8,1-4.7,1.6-7.6,1.6
		C279.7,380.5,274.3,376.5,274.3,368.9z M289.8,376.4v-15.6c-1.1-0.3-1.9-0.5-3.3-0.5c-4.4,0-7.9,3.1-7.9,8.6c0,5,3,8.1,7.9,8.1
		C287.6,376.9,289,376.7,289.8,376.4z"/>
	<path class="st0" d="M305.9,369.6c0,4.3,2.7,7.4,7.2,7.4c2.2,0,4.1-0.7,5.7-1.5l1.3,2.9c-2.1,1.3-4.9,2.1-7.4,2.1
		c-7.5,0-11-5.5-11-12c0-6.9,3.8-11.8,9.6-11.8c6,0,9.4,4.6,9.4,11.8v1.1H305.9z M316.2,366.4c0-3.2-1.6-6.3-5-6.3
		c-3.3,0-5.2,2.9-5.3,6.3H316.2z"/>
	<path class="st0" d="M324.9,375.3c1.4,0.9,3.4,1.7,5.9,1.7c2.5,0,4.6-0.9,4.6-3.3c0-4.6-10.7-3.1-10.7-10.6c0-3.6,2.8-6.4,8-6.4
		c2.3,0,4.3,0.5,6,1.1v3.7c-1.6-0.7-3.5-1.3-5.8-1.3c-2.1,0-4,0.6-4,2.8c0,4.6,10.7,3,10.7,10.8c0,4.7-3.9,6.8-8.6,6.8
		c-3.2,0-5.8-1-7.4-2L324.9,375.3z"/>
</g>
<g>
	<g>
		<g>
			<path class="st0" d="M185.2,230.2c-1.9,0-3.5,1.6-3.5,3.5s1.6,3.5,3.5,3.5s3.5-1.6,3.5-3.5S187.1,230.2,185.2,230.2z
				 M185.2,209.3c-1.9,0-3.5,1.6-3.5,3.5s1.6,3.5,3.5,3.5s3.5-1.6,3.5-3.5S187.1,209.3,185.2,209.3z M185.2,251.1
				c-1.9,0-3.5,1.6-3.5,3.5c0,1.9,1.6,3.5,3.5,3.5s3.5-1.6,3.5-3.5C188.7,252.7,187.1,251.1,185.2,251.1z M253.7,179.6l-15.5-5.2
				c8.6-6.1,13.9-16.1,13.9-26.9c0,0,0-60.3,0-60.3c0-17.9-7-34.7-19.6-47.3c-12.6-12.6-29.4-19.6-47.3-19.6
				c-11.5,0-22.8,3-32.7,8.5c-1.7,0.9-2.3,3.1-1.3,4.7c0.9,1.7,3.1,2.3,4.7,1.3c8.9-5,19-7.7,29.3-7.7c16,0,31.1,6.2,42.4,17.6
				c11.3,11.3,17.5,26.4,17.5,42.4v0c-2-1.2-4.4-1.8-6.9-1.8h-3.3c-9.3-1.6-18.5-4.2-27.2-7.9c-6.6-2.8-13.1-6.1-19.2-9.9
				c-2.1-1.3-4.9-1.2-6.9,0.3c-4.7,3.6-9.9,6.8-15.2,9.3c-9.6,4.6-20,7.3-30.8,8.2h-3.5c-2.5,0-4.8,0.7-6.9,1.8v0
				c0-16.2,6.4-31.4,17.9-42.8c1.4-1.3,1.4-3.6,0-4.9c-1.3-1.4-3.6-1.4-4.9,0c-12.9,12.7-20,29.6-20,47.7v60.3
				c0,10.8,5.4,20.8,13.9,26.9l-15.5,5.2c-12.8,4.3-21.4,16.2-21.4,29.7v45.2c0,1.9,1.6,3.5,3.5,3.5s3.5-1.6,3.5-3.5v-45.2
				c0-10.5,6.7-19.8,16.6-23.1l6.1-2c-0.9,3.7-1.3,7.5-1.2,11.2c0.1,3.6,0.7,7.1,1.8,10.5c-6.8,2-11.7,8.3-11.7,15.7v14.2
				c0,3.5,2.9,6.4,6.4,6.4h3.9c1.9,0,3.5-1.6,3.5-3.5s-1.6-3.5-3.5-3.5h-3.3v-13.6c0-5.2,4.2-9.5,9.5-9.5c0,0,0,0,0,0c0,0,0,0,0,0
				c5.2,0,9.5,4.2,9.5,9.5v13.6h-3.3c-1.9,0-3.5,1.6-3.5,3.5s1.6,3.5,3.5,3.5h3.9c3.5,0,6.4-2.9,6.4-6.4v-14.2
				c0-8.2-6.1-15.1-14-16.2c-1.2-3.3-1.9-6.7-2-10.2c-0.2-4.6,0.6-9.3,2.3-13.7l23.8-8l24.9,24.9c2,2.1,5.5,2.1,7.6,0l6.9-6.9
				c1.4-1.4,1.4-3.6,0-4.9c-1.4-1.4-3.6-1.4-4.9,0l-5.7,5.7l-22.1-22.1c3.3-2.8,4.8-7.2,4.4-11.6c5.3,1.9,11.1,2.9,17,2.9
				c6,0,11.9-1,17.4-2.8c-0.6,4.4,1.5,9.3,4.9,11.9l-4.5,4.5c-1.4,1.4-1.4,3.6,0,4.9c1.4,1.4,3.6,1.4,4.9,0l6.3-6.3l21.2,7.1
				c1.6,4.1,2.4,8.5,2.4,12.9c0,4-0.8,8-2.2,11.7c-9.1,1.2-16.1,8.9-16.1,18.3c0,10.2,8.3,18.5,18.5,18.5s18.5-8.3,18.5-18.5
				c0-8.5-5.8-15.7-13.7-17.9c1.2-3.9,1.9-8,1.9-12.1c0-3.4-0.4-6.8-1.2-10.2l7.9,2.7c9.9,3.3,16.6,12.6,16.6,23.1v45.2
				c0,1.9,1.6,3.5,3.5,3.5s3.5-1.6,3.5-3.5v-45.2C275,195.9,266.4,183.9,253.7,179.6z M238.1,92.3h0.2c3.8,0,6.8,3.1,6.9,6.8v0.1
				c0,3.8-3.2,6.9-7,6.8V92.3z M125.3,99.1c0-3.8,3.2-6.9,7-6.8V106C128.5,106.1,125.3,103,125.3,99.1L125.3,99.1z M161.1,160.6
				c0,2.5-1.6,4.7-4,5.5l-16,5.4c-9.5-4.1-15.8-13.6-15.8-24v-36.3c2.2,1.3,4.6,1.9,7.3,1.8c1.7,18.6,12.8,34.5,28.5,42.7V160.6z
				 M185.1,154.6c-25.2-0.1-45.7-20.9-45.7-46.4V92c10.5-1.2,20.7-4,30.2-8.5c5.6-2.7,11-5.9,15.9-9.7c6.3,3.9,12.9,7.3,19.7,10.1
				c8.4,3.5,17.1,6.1,26,7.8v17c0,12.3-4.8,23.8-13.5,32.5C208.8,150.1,197.7,154.7,185.1,154.6z M229.3,171.5l-16-5.4
				c-2.4-0.8-4-3-4-5.5v-4.8c4.8-2.5,9.2-5.7,13.2-9.6c9-9,14.4-20.6,15.4-33.2c2.6,0,5.1-0.6,7.2-1.8v36.3
				C245.1,157.9,238.8,167.4,229.3,171.5L229.3,171.5z M249.5,223.7c0,6.4-5.2,11.5-11.5,11.5c-6.4,0-11.5-5.2-11.5-11.5
				c0-6.3,5.2-11.5,11.5-11.5c0,0,0,0,0,0c0,0,0,0,0,0C244.4,212.2,249.5,217.4,249.5,223.7z M207.8,95.1c-1.9,0-3.5,1.6-3.5,3.5v8
				c0,1.9,1.6,3.5,3.5,3.5s3.5-1.6,3.5-3.5v-8C211.2,96.7,209.7,95.1,207.8,95.1z M190.2,128.2c-0.8,0.6-2.4,1.5-4.6,1.6
				c-2.5,0.1-4.4-1-5.3-1.6c-1.6-1.1-3.7-0.7-4.9,0.8c-1.1,1.6-0.7,3.7,0.8,4.9c1.5,1.1,4.7,2.9,9,2.9c3.7,0,7.2-1.6,9-2.9
				c1.6-1.1,1.9-3.3,0.8-4.9C193.9,127.5,191.7,127.1,190.2,128.2z M162.7,95.1c-1.9,0-3.5,1.6-3.5,3.5v8c0,1.9,1.6,3.5,3.5,3.5
				s3.5-1.6,3.5-3.5v-8C166.2,96.7,164.6,95.1,162.7,95.1z"/>
		</g>
		<circle class="st1" cx="269.1" cy="203.3" r="55.9"/>
	</g>
	<path class="st0" d="M268.5,156.9c-25.6,0-46.5,20.8-46.5,46.5s20.8,46.5,46.5,46.5c25.6,0,46.5-20.8,46.5-46.5
		S294.1,156.9,268.5,156.9z M268.5,241.1c-20.8,0-37.8-16.9-37.8-37.8s16.9-37.8,37.8-37.8c20.8,0,37.8,16.9,37.8,37.8
		S289.3,241.1,268.5,241.1z"/>
	<polygon class="st0" points="287.1,197.6 275.4,197.6 275.4,184 261.6,184 261.6,197.6 249.9,197.6 249.9,209.1 261.6,209.1 
		261.6,222.7 275.4,222.7 275.4,209.1 287.1,209.1 	"/>
</g>
</svg>
