<?xml version="1.0" encoding="utf-8"?>
<!-- Generator: Adobe Illustrator 25.3.1, SVG Export Plug-In . SVG Version: 6.00 Build 0)  -->
<svg version="1.1" id="Capa_1" xmlns="http://www.w3.org/2000/svg" xmlns:xlink="http://www.w3.org/1999/xlink" x="0px" y="0px"
	 viewBox="0 0 70 70" style="enable-background:new 0 0 70 70;" xml:space="preserve">
<style type="text/css">
	.st0{opacity:0.1;}
	.st1{fill:#FFFFFF;}
</style>
<g class="st0">
	<path class="st1" d="M32.7,48.7v-5.4c0,0,0.1-2.4-2.1-3.5l-0.8-0.4l-9.2-4.4L19,34.4c0,0-2.3-1.1-4.5-0.1l-4.8,2.3l-1.6,0.7L3,39.7
		c-2.2,1.1-2.1,3.5-2.1,3.5v5.4v-0.1v5.4c0,0-0.1,2.4,2.1,3.5l5.2,2.4l2.5,1.2l3.8,1.8c0,0,2.3,1.1,4.5,0.1l3.1-1.5l3.3-1.6l5.2-2.4
		c2.2-1.1,2.1-3.5,2.1-3.5v-5.4"/>
	<path class="st1" d="M69.1,48.7v-5.4c0,0,0.1-2.4-2.1-3.5l-0.8-0.4l-9.2-4.4l-1.5-0.7c0,0-2.3-1.1-4.5-0.1l-4.8,2.3l-1.6,0.7
		l-5.2,2.4c-2.2,1.1-2.1,3.5-2.1,3.5v5.4v-0.1v5.4c0,0-0.1,2.4,2.1,3.5l5.2,2.4l2.5,1.2l3.8,1.8c0,0,2.3,1.1,4.5,0.1l3.2-1.5
		l3.3-1.6l5.2-2.4c2.2-1.1,2.1-3.5,2.1-3.5v-5.4"/>
	<path class="st1" d="M34.9,29.4c-2.6,0-4.7-2.2-4.7-4.9s2.1-4.9,4.7-4.9c2.6,0,4.7,2.2,4.7,4.9C39.6,27.2,37.5,29.4,34.9,29.4
		 M50.9,21.5v-0.2v-5.2c0,0,0.1-2.4-2.1-3.5L48,12.2l-9.2-4.4l-1.5-0.7c0,0-2.3-1.1-4.5-0.1L28,9.3L26.4,10l-5.2,2.4
		C19,13.6,19.1,16,19.1,16v5.3v0.1v5.3c0,0-0.1,2.4,2.1,3.5l5.2,2.4l2.5,1.2l3.8,1.8c0,0,2.3,1.1,4.5,0.1l3.2-1.5l3.3-1.6l5.2-2.4
		c2.3-1.1,2.1-3.5,2.1-3.5L50.9,21.5L50.9,21.5z"/>
</g>
</svg>
