<?xml version="1.0" encoding="utf-8"?>
<!-- Generator: Adobe Illustrator 25.4.1, SVG Export Plug-In . SVG Version: 6.00 Build 0)  -->
<svg version="1.1" id="Capa_1" xmlns="http://www.w3.org/2000/svg" xmlns:xlink="http://www.w3.org/1999/xlink" x="0px" y="0px"
	 viewBox="0 0 70 70" style="enable-background:new 0 0 70 70;" xml:space="preserve">
<style type="text/css">
	.st0{fill:#FFFFFF;}
</style>
<g>
	<path class="st0" d="M32.67,48.74v-5.38c0,0,0.14-2.39-2.11-3.52l-0.82-0.39l-9.24-4.36l-1.45-0.69c0,0-2.27-1.12-4.53-0.07
		l-4.78,2.26L8.18,37.3l-5.16,2.44c-2.25,1.14-2.12,3.52-2.12,3.52v5.38v-0.08v5.38c0,0-0.14,2.39,2.12,3.53l5.16,2.43l2.48,1.18
		l3.79,1.79c0,0,2.27,1.13,4.53,0.07l3.15-1.48l3.27-1.56l5.16-2.43c2.25-1.13,2.11-3.53,2.11-3.53v-5.38"/>
	<path class="st0" d="M69.09,48.74v-5.38c0,0,0.14-2.39-2.11-3.52l-0.82-0.39l-9.24-4.36l-1.46-0.69c0,0-2.27-1.12-4.53-0.07
		l-4.78,2.26L44.6,37.3l-5.16,2.44c-2.25,1.14-2.12,3.52-2.12,3.52v5.38v-0.08v5.38c0,0-0.13,2.39,2.12,3.53l5.16,2.43l2.48,1.18
		l3.79,1.79c0,0,2.27,1.13,4.53,0.07l3.15-1.48l3.27-1.56l5.16-2.43c2.25-1.13,2.11-3.53,2.11-3.53v-5.38"/>
	<path class="st0" d="M34.91,29.35c-2.57,0-4.66-2.18-4.66-4.88c0-2.7,2.08-4.88,4.66-4.88c2.57,0,4.65,2.18,4.65,4.88
		C39.57,27.16,37.48,29.35,34.91,29.35 M50.89,21.46v-0.17v-5.21c0,0,0.14-2.39-2.12-3.52l-0.82-0.39L38.7,7.81l-1.45-0.69
		c0,0-2.27-1.13-4.53-0.07L27.95,9.3l-1.55,0.72l-5.16,2.43c-2.25,1.14-2.12,3.52-2.12,3.52v5.3v0.08v5.3c0,0-0.13,2.39,2.12,3.53
		l5.16,2.43l2.48,1.18l3.79,1.79c0,0,2.27,1.13,4.53,0.08l3.15-1.49l3.27-1.56l5.16-2.43c2.26-1.13,2.12-3.53,2.12-3.53L50.89,21.46
		L50.89,21.46z"/>
</g>
</svg>
