<?xml version="1.0" encoding="utf-8"?>
<!-- Generator: Adobe Illustrator 25.3.1, SVG Export Plug-In . SVG Version: 6.00 Build 0)  -->
<svg version="1.1" id="Capa_1" xmlns="http://www.w3.org/2000/svg" xmlns:xlink="http://www.w3.org/1999/xlink" x="0px" y="0px"
	 viewBox="0 0 380.5 396" style="enable-background:new 0 0 380.5 396;" xml:space="preserve">
<style type="text/css">
	.st0{fill:#0075C9;}
	.st1{fill:#FFFFFF;}
</style>
<g>
	<g>
		<g>
			<path class="st0" d="M148.8,348c-3.2,0-5.8,2.6-5.8,5.8s2.6,5.8,5.8,5.8c3.2,0,5.8-2.6,5.8-5.8S152,348,148.8,348z M148.8,313.3
				c-3.2,0-5.8,2.6-5.8,5.8s2.6,5.8,5.8,5.8c3.2,0,5.8-2.6,5.8-5.8S152,313.3,148.8,313.3z M148.8,382.6c-3.2,0-5.8,2.6-5.8,5.8
				s2.6,5.8,5.8,5.8c3.2,0,5.8-2.6,5.8-5.8S152,382.6,148.8,382.6z M262.3,264.2l-25.7-8.6c14.2-10.1,23.1-26.7,23.1-44.7
				c0-0.1,0-100,0-100c0-29.6-11.5-57.4-32.5-78.4C206.3,11.5,178.4,0,148.8,0c-19,0-37.8,4.9-54.3,14.2c-2.8,1.6-3.8,5.1-2.2,7.9
				c1.6,2.8,5.1,3.8,7.9,2.2c14.8-8.3,31.6-12.7,48.6-12.7c26.5,0,51.5,10.3,70.2,29.1c18.8,18.8,29.1,43.7,29.1,70.2v0
				c-3.4-1.9-7.2-3-11.4-3h-5.5c-15.4-2.7-30.6-7-45-13c-11-4.6-21.7-10.1-31.7-16.5c-3.5-2.2-8.1-2-11.5,0.5
				c-7.9,6-16.3,11.2-25.2,15.4c-16,7.6-33.1,12.2-51,13.6h-5.8c-4.1,0-8,1.1-11.4,3v0c0-26.9,10.6-52,29.7-70.9
				c2.3-2.2,2.3-5.9,0.1-8.2c-2.2-2.3-5.9-2.3-8.2-0.1C49.8,52.8,38,80.9,38,110.8v100c0,17.9,8.9,34.5,23.1,44.7l-25.7,8.6
				C14.2,271.3,0,291.1,0,313.4v75c0,3.2,2.6,5.8,5.8,5.8s5.8-2.6,5.8-5.8v-75c0-17.4,11.1-32.8,27.5-38.3l10-3.4
				c-1.5,6.1-2.1,12.4-1.9,18.6c0.2,5.9,1.2,11.7,2.9,17.4c-11.2,3.4-19.4,13.8-19.4,26.1v23.5c0,5.8,4.7,10.5,10.5,10.5h6.5
				c3.2,0,5.8-2.6,5.8-5.8c0-3.2-2.6-5.8-5.8-5.8h-5.5v-22.5c0-8.6,7-15.7,15.7-15.7c0,0,0,0,0,0s0,0,0,0c8.6,0,15.7,7,15.7,15.7
				v22.5h-5.5c-3.2,0-5.8,2.6-5.8,5.8c0,3.2,2.6,5.8,5.8,5.8h6.5c5.8,0,10.5-4.7,10.5-10.5v-23.5c0-13.6-10.1-25-23.2-26.9
				c-2-5.5-3.1-11.1-3.3-16.9c-0.3-7.7,1.1-15.5,3.9-22.7l39.4-13.3l41.3,41.3c3.4,3.4,9.1,3.4,12.5,0l11.4-11.4
				c2.3-2.3,2.3-5.9,0-8.2c-2.3-2.3-5.9-2.3-8.2,0l-9.5,9.5L113,248.6c5.4-4.7,7.9-11.9,7.3-19.2c8.8,3.1,18.3,4.8,28.2,4.8
				c9.9,0,19.7-1.6,28.8-4.7c-0.9,7.4,2.5,15.4,8.2,19.8l-7.4,7.4c-2.3,2.3-2.3,5.9,0,8.2c2.3,2.3,5.9,2.3,8.2,0l10.5-10.5
				l35.2,11.8c2.7,6.8,4,14.1,4,21.3c-0.1,6.6-1.3,13.2-3.6,19.4c-15,2-26.6,14.8-26.6,30.4c0,16.9,13.7,30.6,30.6,30.6
				s30.6-13.7,30.6-30.6c0-14.1-9.6-26.1-22.7-29.6c2.1-6.5,3.2-13.3,3.2-20c0.1-5.7-0.6-11.3-2-16.9l13.1,4.4
				c16.5,5.5,27.5,20.9,27.5,38.3v75c0,3.2,2.6,5.8,5.8,5.8s5.8-2.6,5.8-5.8v-75C297.7,291.1,283.4,271.3,262.3,264.2z M236.5,119.4
				h0.3c6.3,0,11.3,5.1,11.4,11.3v0.1c0,6.3-5.3,11.5-11.7,11.3V119.4z M49.5,130.7c0-6.3,5.3-11.5,11.7-11.3v22.7
				C54.8,142.3,49.6,137.1,49.5,130.7L49.5,130.7z M108.8,232.5c0,4.1-2.6,7.8-6.6,9.1l-26.5,8.9c-15.8-6.7-26.2-22.5-26.2-39.7
				v-60.2c3.6,2.1,7.6,3.1,12,3c2.7,30.8,21.2,57.2,47.2,70.7V232.5z M148.6,222.7c-41.8-0.1-75.8-34.7-75.8-77v-26.8
				c17.5-1.9,34.3-6.7,50-14.2c9.3-4.4,18.2-9.8,26.4-16c10.4,6.5,21.3,12.1,32.6,16.8c13.9,5.8,28.4,10.1,43.2,13v28.2
				c0,20.4-7.9,39.5-22.4,53.9C187.9,215.1,169.5,222.8,148.6,222.7z M221.9,250.6l-26.5-8.9c-3.9-1.3-6.5-5-6.5-9.1v-8
				c7.9-4.1,15.3-9.4,21.8-15.9c14.9-14.9,23.8-34.2,25.5-55c4.2,0.1,8.5-1,12-3v60.2C248.1,228.1,237.7,243.8,221.9,250.6
				L221.9,250.6z M255.4,337.2c0,10.5-8.6,19.1-19.1,19.1c-10.5,0-19.1-8.6-19.1-19.1c0-10.5,8.6-19.1,19.1-19.1c0,0,0,0,0,0
				c0,0,0,0,0,0C246.8,318.1,255.4,326.7,255.4,337.2z M186.2,124.1c-3.2,0-5.8,2.6-5.8,5.8v13.2c0,3.2,2.6,5.8,5.8,5.8
				s5.8-2.6,5.8-5.8v-13.2C191.9,126.7,189.4,124.1,186.2,124.1z M157,179c-1.3,0.9-4,2.5-7.7,2.6c-4.1,0.1-7.2-1.6-8.7-2.6
				c-2.6-1.8-6.2-1.2-8,1.4c-1.8,2.6-1.2,6.2,1.4,8c2.6,1.8,7.8,4.8,14.9,4.8c6.2,0,12-2.7,14.9-4.8c2.6-1.8,3.2-5.5,1.4-8.1
				C163.2,177.7,159.6,177.1,157,179z M111.5,124.1c-3.2,0-5.8,2.6-5.8,5.8v13.2c0,3.2,2.6,5.8,5.8,5.8c3.2,0,5.8-2.6,5.8-5.8v-13.2
				C117.3,126.7,114.7,124.1,111.5,124.1z"/>
		</g>
		<circle class="st1" cx="287.9" cy="303.4" r="92.6"/>
	</g>
	<path class="st0" d="M286.8,226.5c-42.5,0-77,34.5-77,77s34.5,77,77,77s77-34.5,77-77S329.3,226.5,286.8,226.5z M286.8,366
		c-34.5,0-62.6-28.1-62.6-62.6s28.1-62.6,62.6-62.6s62.6,28.1,62.6,62.6S321.3,366,286.8,366z"/>
	<polygon class="st0" points="317.6,293.9 298.2,293.9 298.2,271.4 275.4,271.4 275.4,293.9 256,293.9 256,313.1 275.4,313.1 
		275.4,335.6 298.2,335.6 298.2,313.1 317.6,313.1 	"/>
</g>
</svg>
