<svg width="1083" height="36" viewBox="0 0 1083 36" fill="none" xmlns="http://www.w3.org/2000/svg">
<path d="M33.0917 19.634L35.5794 13.1498L40.8209 35.2015C40.9108 35.5795 41.0992 35.8902 41.3764 36.1155C41.6488 36.3368 41.9767 36.4516 42.3119 36.4957L42.3817 36.5049L42.4513 36.4944C43.0641 36.4023 43.7612 35.9351 43.8733 35.1675L48.9179 8.57391L51.5175 19.452L51.5193 19.4595L51.5213 19.4669C51.6159 19.8152 51.8225 20.124 52.0687 20.3476C52.3081 20.5651 52.64 20.7499 53.0066 20.7499H1081.47C1082.14 20.7499 1082.5 20.1762 1082.5 19.6875V18.5625C1082.5 18.294 1082.42 18.0179 1082.22 17.8057C1082.02 17.59 1081.74 17.5 1081.47 17.5L54.2708 17.4999L50.2841 0.728061C50.1949 0.352482 50.0059 0.0346854 49.7171 -0.186265C49.4302 -0.405692 49.0835 -0.500061 48.728 -0.500061C48.0462 -0.500061 47.3433 -0.000419824 47.2318 0.761993L42.1877 27.3529L37.4484 7.47772L37.4466 7.47015L37.4445 7.46264C37.2723 6.82854 36.7323 6.26885 36.0602 6.25041C35.6997 6.20937 35.3519 6.28147 35.0627 6.47505C34.7733 6.66879 34.578 6.96039 34.4811 7.2963L30.6005 17.4999H0.53482C0.00867431 17.4999 -0.5 17.9176 -0.5 18.5624L-0.5 19.6874C-0.5 19.982 -0.364457 20.2407 -0.195216 20.4187C-0.0275085 20.5951 0.229397 20.7499 0.534819 20.7499H31.6138C32.2918 20.7499 32.8895 20.3349 33.0917 19.634Z" fill="#761C74" stroke="#761C74"/>
</svg>
