<svg width="185" height="42" viewBox="0 0 185 42" fill="none" xmlns="http://www.w3.org/2000/svg">
<g clip-path="url(#clip0_0_748)">
<mask id="mask0_0_748" style="mask-type:luminance" maskUnits="userSpaceOnUse" x="0" y="0" width="185" height="42">
<path d="M185 0H0V42H185V0Z" fill="white"/>
</mask>
<g mask="url(#mask0_0_748)">
<mask id="mask1_0_748" style="mask-type:luminance" maskUnits="userSpaceOnUse" x="0" y="0" width="185" height="42">
<path d="M185 0H0V42H185V0Z" fill="white"/>
</mask>
<g mask="url(#mask1_0_748)">
<path d="M17.8765 37.7156C18.1655 37.3523 18.4545 37.0023 18.8531 36.7542C20.3464 35.8283 22.3653 36.5061 22.9521 38.2915C23.4032 39.665 22.7507 41.127 21.5201 41.7162C20.2107 42.3409 18.564 41.951 17.7976 40.4403C17.6969 40.2453 17.6006 40.1789 17.3816 40.1523C16.7203 40.0681 16.0503 39.984 15.4065 39.8156C14.5 39.5764 13.6023 39.3017 12.7264 38.9694C11.0097 38.3137 9.42439 37.401 7.95732 36.2757C6.51214 35.1681 5.23776 33.8833 4.12979 32.4302C2.8773 30.7865 1.90072 28.9833 1.20002 27.034C0.77523 25.8555 0.468678 24.6371 0.26285 23.3922C0.0263667 21.9434 -0.0480818 20.4859 0.030746 19.0238C0.0789185 18.1112 0.19716 17.2074 0.376712 16.308C0.595678 15.2004 0.902231 14.1194 1.28761 13.065C1.62044 12.1523 2.04085 11.2795 2.50506 10.4289C3.77944 8.08079 5.46986 6.08712 7.53252 4.40801C9.16163 3.08332 10.9615 2.05548 12.9147 1.30231C13.8782 0.930159 14.8679 0.633324 15.8795 0.425096C16.786 0.23902 17.7057 0.12383 18.6341 0.0485138C19.834 -0.0489545 21.034 0.00421005 22.2208 0.132691C23.4557 0.270033 24.6688 0.540286 25.86 0.912438C27.3927 1.39092 28.8379 2.05548 30.2086 2.88396C30.6291 3.13649 31.0451 3.41117 31.4305 3.71244C31.9472 4.1156 32.0436 4.79788 31.702 5.33396C31.3385 5.90548 30.6291 6.07383 30.0378 5.71497C29.4773 5.37383 28.9299 5.00611 28.3649 4.67383C27.5022 4.16877 26.5913 3.75674 25.641 3.45548C24.8352 3.19851 24.025 2.97256 23.2017 2.78649C22.6543 2.66244 22.0894 2.60041 21.5288 2.56054C20.3902 2.48079 19.2516 2.47193 18.113 2.58712C16.1948 2.78206 14.3643 3.30041 12.6169 4.12446C9.92801 5.39155 7.70331 7.22573 5.92531 9.62256C4.71224 11.2574 3.81448 13.0605 3.21889 15.0143C2.85979 16.1928 2.6452 17.4023 2.53572 18.6428C2.41748 20.0029 2.47879 21.3498 2.64082 22.6966C2.72841 23.4099 2.88606 24.1232 3.07875 24.8188C3.44224 26.1346 3.94148 27.3972 4.58962 28.5979C5.864 30.9548 7.57631 32.9264 9.7178 34.508C11.0097 35.4605 12.4155 36.2137 13.9176 36.7764C15.1525 37.2371 16.4269 37.5517 17.7363 37.7067C17.7801 37.7112 17.8283 37.7112 17.8765 37.7156ZM20.3026 37.9548C19.6019 37.9194 19.0852 38.5707 19.0764 39.1599C19.0677 39.8289 19.6063 40.3783 20.272 40.396C20.9595 40.4093 21.5201 39.8599 21.5157 39.1732C21.5157 38.6504 21.0909 37.9415 20.3026 37.9548Z" fill="white"/>
<path d="M24.5549 28.412C20.8938 30.2949 17.4385 30.0291 14.1102 27.6544C13.4183 27.9468 12.6957 27.9778 11.9731 27.7031C11.3863 27.4816 10.9221 27.0873 10.5936 26.5379C9.93237 25.4348 10.0769 24.0303 10.9703 23.0911C11.8549 22.1563 13.2826 21.9614 14.3993 22.6215C15.0343 22.9981 15.4547 23.543 15.6561 24.2652C15.8532 24.9652 15.7831 25.6474 15.4985 26.2987C17.8502 28.186 21.7653 28.3943 24.5549 26.1171C27.3796 23.8088 27.892 20.074 26.8584 17.6728C26.5081 17.6728 26.1534 17.7038 25.8074 17.6683C24.879 17.5709 24.1783 17.0879 23.7316 16.2683C22.8645 14.6778 23.6046 12.5778 25.5622 12.1259C27.4234 11.7006 28.8948 13.1272 28.9518 14.7266C28.9693 15.2981 28.8817 15.843 28.5664 16.3259C28.4613 16.4898 28.47 16.6228 28.5357 16.7867C29.0919 18.1867 29.3109 19.6443 29.1488 21.1462C28.9474 23.0424 28.2773 24.7525 27.0468 26.2145C26.7314 26.5911 26.3899 26.95 26.0483 27.331C27.7912 29.462 29.5386 31.5974 31.3122 33.7683C31.6932 33.4493 32.0611 33.1614 32.407 32.8512C33.5938 31.7835 34.6098 30.5652 35.4594 29.205C36.3265 27.8139 36.9747 26.3209 37.417 24.7392C37.9775 22.7145 38.1571 20.6544 37.96 18.5677C37.8286 17.181 37.5177 15.8341 37.0623 14.5183C36.4229 12.662 35.4769 10.9873 34.2595 9.46326C33.9661 9.09997 33.8654 8.71009 34.0318 8.24047C34.2683 7.57592 35.2799 7.20819 35.8755 7.93035C36.3309 8.48414 36.7513 9.06895 37.1542 9.66706C38.1527 11.1601 38.8797 12.7905 39.414 14.5006C39.7512 15.5772 39.9526 16.6848 40.0971 17.8012C40.2767 19.1879 40.2898 20.5791 40.1672 21.9614C39.8782 25.1468 38.8534 28.0841 37.1104 30.7601C36.217 32.1335 35.1704 33.374 33.9573 34.4683C33.4055 34.9645 32.8143 35.412 32.2319 35.8683C32.1049 35.9702 31.9516 36.0411 31.8027 36.0987C31.3429 36.2892 30.94 36.1474 30.6247 35.7974C30.2305 35.3588 29.867 34.8936 29.4904 34.4373C28.1941 32.8601 26.8979 31.2829 25.6016 29.7057C25.3038 29.3424 25.0016 28.9746 24.7038 28.6114C24.6469 28.5405 24.5943 28.4607 24.5505 28.4031M14.1847 25.0405C14.1847 24.4158 13.7205 23.8265 12.9716 23.8265C12.3454 23.8265 11.7892 24.274 11.7542 25.0493C11.7235 25.7139 12.3279 26.281 12.9979 26.2765C13.6679 26.2677 14.1891 25.7272 14.1847 25.0405ZM24.971 14.8816C24.971 15.5595 25.4965 16.0955 26.1709 16.1C26.8365 16.1 27.3796 15.5595 27.3883 14.8905C27.3971 14.2082 26.8453 13.6544 26.1665 13.6588C25.5009 13.6588 24.9753 14.2038 24.9753 14.8816" fill="white"/>
<path d="M128.822 24.2918H126.032C126.028 24.15 126.019 24.0127 126.015 23.8754C126.015 22.1519 126.015 20.4285 126.015 18.7051C126.015 18.2798 126.006 17.85 125.958 17.4247C125.888 16.7735 125.691 16.1576 125.157 15.7412C124.46 15.2007 123.685 15.1608 122.901 15.5285C121.977 15.9671 121.548 16.769 121.452 17.7614C121.412 18.1513 121.434 18.5456 121.43 18.9355C121.43 20.588 121.43 22.2406 121.43 23.8887V24.283H118.579V23.8399C118.579 21.9526 118.574 20.0608 118.579 18.1735C118.579 17.5045 118.465 16.8754 118.119 16.2994C117.23 14.8241 115.141 14.9792 114.335 16.3481C114.002 16.9152 113.862 17.5266 113.867 18.1823C113.875 20.0697 113.867 21.9614 113.867 23.8488V24.283H111.033V12.8393C111.296 12.7684 113.144 12.7507 113.635 12.8171C113.696 13.2114 113.762 13.619 113.84 14.0975C114.173 13.6589 114.493 13.2735 114.944 13.0387C115.408 12.795 115.903 12.6576 116.42 12.6133C116.928 12.569 117.427 12.6 117.922 12.7197C118.434 12.8393 118.89 13.0741 119.288 13.4152C119.682 13.7475 119.954 14.1773 120.19 14.6735C120.339 14.483 120.466 14.3102 120.602 14.1462C121.079 13.5792 121.636 13.114 122.349 12.8792C122.818 12.7241 123.304 12.6443 123.803 12.6399C124.644 12.6311 125.463 12.7064 126.247 13.0519C127.399 13.5614 128.104 14.4608 128.489 15.6437C128.726 16.3703 128.822 17.1235 128.826 17.8899C128.835 19.9235 128.826 21.9526 128.826 23.9861C128.826 24.0792 128.818 24.1722 128.809 24.2874" fill="white"/>
<path d="M68.4402 24.2962H65.6199C65.6199 24.1412 65.6199 23.9994 65.6199 23.8621C65.6199 21.8418 65.6155 19.8216 65.6067 17.8013C65.6067 17.2431 65.4578 16.7247 65.1819 16.2418C64.744 15.4754 63.8506 15.1608 63.0186 15.3513C61.9938 15.5861 61.3938 16.2728 61.1311 17.2874C61.0391 17.6374 61.0128 17.9874 61.0128 18.3462C61.0128 20.1893 61.0128 22.0279 61.0128 23.8709V24.3095C60.08 24.3273 59.1691 24.3095 58.2188 24.3184C58.2144 24.1678 58.2057 24.0437 58.2057 23.9197C58.2057 22.0323 58.2057 20.1406 58.2057 18.2532C58.2057 17.6418 58.1006 17.0481 57.8247 16.4988C56.9926 14.8197 54.8205 14.988 54.0234 16.2551C53.6818 16.8 53.4716 17.376 53.4716 18.0228C53.4716 19.9589 53.4716 21.895 53.4673 23.8311V24.2475C53.2045 24.3361 51.2907 24.3627 50.6864 24.2962C50.6163 24.0437 50.5988 13.2956 50.6689 12.8216H53.2483C53.314 13.2336 53.3797 13.6323 53.4629 14.1197C54.3168 12.8481 55.4993 12.5425 56.835 12.6266C58.2013 12.7108 59.1998 13.3798 59.8129 14.6779C59.9005 14.5671 59.9662 14.4918 60.0275 14.4121C60.5311 13.7342 61.1398 13.1937 61.9412 12.9102C62.4317 12.7374 62.9397 12.6576 63.4609 12.6532C64.2886 12.6444 65.0987 12.7241 65.8695 13.0652C66.995 13.5614 67.6869 14.4387 68.0898 15.5861C68.3701 16.3792 68.4577 17.2076 68.4664 18.0361C68.4883 20.0209 68.4752 22.0057 68.4752 23.9906C68.4752 24.0836 68.4621 24.1766 68.4533 24.3051" fill="white"/>
<path d="M91.852 14.1816V8.02783H94.6766V24.2962H92.0578C92.0009 23.8177 91.9483 23.3525 91.887 22.8386C91.8038 22.905 91.7294 22.9361 91.6899 22.9937C91.2389 23.6183 90.6389 24.0348 89.9251 24.2918C89.4565 24.4601 88.9704 24.5354 88.4755 24.5531C87.1924 24.593 85.9749 24.3671 84.8801 23.6538C83.7721 22.9316 83.0408 21.9304 82.651 20.65C82.3445 19.6399 82.3094 18.612 82.4102 17.5797C82.5065 16.5696 82.7955 15.6038 83.3955 14.762C84.1093 13.7652 85.0465 13.1006 86.2246 12.7861C86.807 12.631 87.3894 12.5247 87.9938 12.5247C89.0317 12.5247 89.9908 12.7905 90.8579 13.3576C91.1995 13.5791 91.4885 13.8804 91.8476 14.1816M88.3879 21.9082C90.2229 21.9304 91.668 20.5525 91.6768 18.5854C91.6856 16.6006 90.271 15.2006 88.4011 15.1962C86.5136 15.1962 85.191 16.4854 85.1779 18.5234C85.1604 20.5348 86.5749 21.9259 88.3879 21.9082Z" fill="white"/>
<path d="M139.683 14.2482C139.727 13.7519 139.766 13.2956 139.805 12.826H142.45C142.521 13.0874 142.538 23.8089 142.472 24.2564C142.218 24.3273 140.217 24.345 139.827 24.2697C139.788 23.7956 139.748 23.3127 139.7 22.7545C139.604 22.8652 139.543 22.9228 139.49 22.9893C138.969 23.6804 138.281 24.1235 137.467 24.3893C136.797 24.6064 136.118 24.7038 135.422 24.6463C133.6 24.4912 132.067 23.8001 131.06 22.1741C130.631 21.483 130.381 20.7254 130.25 19.919C130.127 19.1836 130.096 18.4526 130.175 17.7171C130.307 16.4899 130.688 15.3602 131.507 14.4121C132.203 13.6057 133.066 13.0697 134.09 12.7861C134.813 12.5868 135.54 12.4804 136.284 12.5247C137.603 12.6089 138.75 13.0608 139.569 14.1728C139.582 14.1906 139.608 14.195 139.683 14.2437M136.328 22.0235C137.099 22.0368 137.795 21.8241 138.395 21.3412C139.543 20.4152 139.95 18.7051 139.429 17.2652C138.938 15.8963 137.962 15.1475 136.525 15.0811C135.172 15.019 134.077 15.5152 133.381 16.7513C133.088 17.2697 132.982 17.8412 132.969 18.426C132.952 19.1836 133.092 19.9146 133.517 20.5614C134.187 21.576 135.159 22.0013 136.328 22.0235Z" fill="white"/>
<path d="M81.6613 19.5778H72.7975C72.8063 19.9544 72.9377 20.2601 73.1084 20.5525C73.5113 21.2481 74.142 21.6468 74.8865 21.8506C76.1433 22.1917 77.352 22.0012 78.5082 21.4341C78.749 21.3145 78.9592 21.1417 79.2264 20.9645C79.8001 21.5405 80.3913 22.1253 80.9912 22.7278C80.9343 22.7987 80.8993 22.8563 80.8511 22.8962C79.9927 23.6759 78.9943 24.15 77.8688 24.4025C76.809 24.6417 75.7492 24.6639 74.685 24.4955C73.4238 24.2917 72.307 23.7689 71.4137 22.8341C70.8093 22.2006 70.3889 21.4474 70.1436 20.6056C69.8721 19.6753 69.7714 18.7227 69.8809 17.7525C70.0079 16.6006 70.367 15.5373 71.0896 14.6158C71.7859 13.7253 72.6749 13.1272 73.7478 12.7816C74.8602 12.4227 75.9944 12.3829 77.1287 12.5468C78.4162 12.7284 79.5592 13.2512 80.4132 14.2924C80.908 14.8949 81.2277 15.5816 81.4335 16.3348C81.7226 17.3848 81.7007 18.4481 81.6613 19.5778ZM78.9067 17.2031C78.9067 17.1234 78.9242 17.0746 78.9154 17.0303C78.7403 16.2284 78.3198 15.6259 77.5578 15.2936C76.7039 14.9215 75.828 14.8993 74.9434 15.1253C73.9843 15.3689 73.3055 15.9582 72.9245 16.8886C72.8851 16.9816 72.8763 17.0835 72.8457 17.2031H78.9067Z" fill="white"/>
<path d="M43.5524 20.2512C43.5612 19.3518 43.5087 18.3284 43.3554 17.3183C43.005 15.0322 42.3481 12.8392 41.2971 10.7746C40.5176 9.24171 39.5804 7.8107 38.4549 6.5126C38.3411 6.37969 38.2228 6.24234 38.1265 6.09614C37.8199 5.63095 37.925 4.97082 38.3542 4.61639C38.8578 4.2088 39.5147 4.35943 39.8256 4.70057C40.7716 5.74171 41.5993 6.87146 42.3394 8.07209C42.9963 9.13981 43.57 10.2563 44.0385 11.4215C44.4721 12.5069 44.8356 13.6234 45.1159 14.762C45.5976 16.7202 45.7903 18.7139 45.7771 20.7253C45.7684 21.8904 45.6677 23.0556 45.4793 24.1987C45.2078 25.8379 44.7568 27.4284 44.1524 28.9791C43.3992 30.9196 42.3875 32.7139 41.1701 34.393C40.8241 34.8715 40.4256 35.3101 40.0577 35.7708C39.6505 36.2847 38.5556 36.3202 38.2184 35.4784C38.0433 35.0398 38.1133 34.6234 38.4243 34.2512C38.7921 33.8082 39.16 33.3607 39.4972 32.8911C40.7146 31.2075 41.6825 29.3866 42.3656 27.4196C42.7598 26.2765 43.0488 25.1069 43.2634 23.9151C43.4692 22.7411 43.5568 21.5582 43.5524 20.2468" fill="white"/>
<path d="M109.614 14.0177C109.098 14.638 108.59 15.245 108.103 15.8253C107.709 15.5905 107.35 15.3424 106.965 15.1564C106.334 14.8551 105.651 14.8241 104.964 14.8551C104.547 14.8728 104.149 14.926 103.772 15.1165C103.418 15.2937 103.19 15.5551 103.181 15.9715C103.172 16.4146 103.404 16.7026 103.781 16.8975C104.206 17.119 104.67 17.1988 105.139 17.2165C105.87 17.2475 106.588 17.3405 107.298 17.5133C107.968 17.6728 108.585 17.9431 109.119 18.3905C109.785 18.9488 110.074 19.6975 110.149 20.5393C110.319 22.564 109.014 23.8975 107.425 24.3937C106.286 24.7481 105.13 24.7526 103.969 24.6374C102.459 24.4912 101.162 23.8443 100.089 22.75C100.067 22.7279 100.05 22.6924 100.01 22.6304C100.457 21.9791 100.908 21.3234 101.364 20.6633C101.692 20.8937 101.994 21.1374 102.323 21.3279C103.177 21.8241 104.096 22.1298 105.082 22.2095C105.655 22.2583 106.207 22.1785 106.711 21.8728C107.197 21.5804 107.42 21.1108 107.328 20.6234C107.263 20.2823 107.052 20.0829 106.755 19.9589C106.282 19.764 105.782 19.6931 105.279 19.6621C104.241 19.5956 103.229 19.4184 102.283 18.9621C101.517 18.5899 100.9 18.0671 100.606 17.2342C100.194 16.0602 100.339 14.9659 101.149 14C101.657 13.3931 102.332 13.0519 103.067 12.8038C104.153 12.4405 105.266 12.4272 106.378 12.538C107.56 12.6576 108.625 13.1007 109.527 13.907C109.553 13.9291 109.571 13.9646 109.61 14.0222" fill="white"/>
<path d="M155.492 15.2981H153.403C153.364 14.4741 153.39 13.6722 153.39 12.8349H155.483C155.514 11.8425 155.483 10.8855 155.505 9.89308C156.429 9.74688 157.345 9.66713 158.308 9.5741C158.334 9.95954 158.317 10.3095 158.321 10.6595C158.321 11.0051 158.321 11.3462 158.321 11.6918V12.8038C158.672 12.8304 159.009 12.8127 159.342 12.8171C159.692 12.8171 160.047 12.8171 160.397 12.8171H161.43V15.2981H158.312C158.304 15.4532 158.295 15.5728 158.295 15.688C158.295 17.15 158.295 18.6121 158.295 20.0697C158.295 20.3887 158.295 20.7076 158.422 21.0133C158.641 21.5627 159.057 21.8064 159.613 21.864C160.02 21.9038 160.401 21.7887 160.782 21.6602C160.892 21.6247 161.001 21.5893 161.137 21.545C161.395 22.3469 161.645 23.1222 161.903 23.933C161.811 23.9773 161.724 24.0349 161.632 24.0703C160.642 24.438 159.622 24.5045 158.58 24.3849C157.511 24.2608 156.688 23.738 156.105 22.8254C155.821 22.3779 155.663 21.8773 155.588 21.3633C155.518 20.8937 155.501 20.4197 155.497 19.9456C155.483 18.5456 155.497 17.1412 155.497 15.7412V15.3026L155.492 15.2981Z" fill="white"/>
<path d="M146.76 24.2961H143.988C143.918 24.0215 143.896 13.3442 143.957 12.8613C144.207 12.7904 145.901 12.7683 146.541 12.8303C146.607 13.2113 146.672 13.6012 146.751 14.0575C146.865 13.9202 146.944 13.8404 147.009 13.7518C147.618 12.9322 148.455 12.5778 149.44 12.5202C150.184 12.4759 150.911 12.5335 151.621 12.8037C152.072 12.9765 152.567 13.2645 152.882 13.6189C152.466 14.4208 152.046 15.2316 151.625 16.0468C151.419 15.9183 151.249 15.7898 151.06 15.6923C149.979 15.1252 148.91 15.205 147.872 15.7942C147.36 16.0866 147.079 16.5873 146.904 17.1455C146.795 17.4999 146.755 17.8632 146.755 18.2354C146.76 20.1139 146.755 21.9879 146.755 23.8664V24.2961" fill="white"/>
<path d="M34.763 19.7284C34.7411 21.6025 34.5615 23.0158 34.163 24.4069C33.6682 26.1347 32.8843 27.7075 31.8288 29.1474C31.5529 29.524 31.1851 29.7012 30.7253 29.6126C30.2873 29.5284 29.9939 29.2537 29.8581 28.8196C29.7443 28.4518 29.845 28.1284 30.0508 27.8139C30.3968 27.2911 30.7515 26.7772 31.0449 26.2278C31.6099 25.1734 32.0084 24.0525 32.2668 22.874C32.5602 21.5493 32.6171 20.2113 32.4814 18.8734C32.2536 16.5917 31.4654 14.505 30.1121 12.6531C29.5998 11.9531 29.845 11.1069 30.6289 10.8366C31.0537 10.6904 31.5267 10.8366 31.8245 11.2177C32.4463 12.0107 32.9324 12.8879 33.366 13.7961C33.9265 14.9658 34.3075 16.1974 34.5177 17.4734C34.6623 18.3594 34.7148 19.2632 34.7674 19.7328" fill="white"/>
<path d="M99.0033 24.2961H96.2268V12.7727C97.1421 12.7461 98.0617 12.7639 99.0033 12.7594V24.2917V24.2961Z" fill="white"/>
<path d="M184.982 21.9259H180.375C180.41 22.4133 180.669 22.719 181.041 22.9272C181.58 23.2329 182.167 23.2551 182.749 23.0956C183.082 23.0025 183.393 22.8342 183.747 22.6835C184.001 22.9582 184.291 23.2639 184.597 23.5918C184.426 23.8354 184.142 24.0038 183.848 24.1411C182.823 24.6196 181.772 24.6905 180.699 24.3051C179.885 24.0127 179.316 23.45 179.035 22.6304C178.711 21.6911 178.711 20.7386 179.149 19.8215C179.587 18.9044 180.345 18.4171 181.313 18.231C181.908 18.1158 182.504 18.1557 183.086 18.3329C184.085 18.6297 184.658 19.3253 184.908 20.3177C185.039 20.8316 185.004 21.35 184.987 21.9215M180.406 20.6367H183.546C183.507 20.1981 183.301 19.8924 182.942 19.7152C182.294 19.3918 181.645 19.4139 181.024 19.7816C180.713 19.9633 180.494 20.238 180.41 20.6411" fill="white"/>
<path d="M172.747 18.3772H174.49C174.893 19.8259 175.3 21.2968 175.698 22.7411C176.075 21.3057 176.452 19.8481 176.837 18.3772H178.453C177.835 20.3975 177.205 22.3911 176.579 24.4025H174.77C174.104 22.4177 173.43 20.4152 172.747 18.3772Z" fill="white"/>
<path d="M166.839 15.9671H168.275V22.245C168.275 22.3026 168.275 22.3646 168.275 22.4222C168.254 23.1 168.529 23.2994 169.09 23.2196C169.125 23.2152 169.16 23.2285 169.204 23.2329C169.213 23.2905 169.234 23.3437 169.234 23.4013C169.234 23.6848 169.234 23.9684 169.234 24.2652C168.621 24.4867 168.039 24.5045 167.478 24.1988C167.097 23.995 166.913 23.6405 166.861 23.2152C166.839 23.0513 166.839 22.8829 166.839 22.719C166.839 20.5924 166.839 18.4614 166.839 16.3348V15.9583V15.9671Z" fill="white"/>
<path d="M172.037 24.3671H170.614C170.539 24.1057 170.522 18.7848 170.596 18.3728H172.037V24.3671Z" fill="white"/>
<path d="M95.9641 9.59175C95.9334 8.52403 96.6648 7.91707 97.5975 7.90378C98.5829 7.89492 99.2748 8.52403 99.2923 9.54302C99.3099 10.469 98.6661 11.2177 97.6457 11.231C96.7655 11.2443 95.9465 10.6418 95.9641 9.58732" fill="white"/>
<path d="M171.315 17.531C170.772 17.531 170.443 17.2164 170.439 16.6936C170.434 16.1664 170.793 15.8031 171.319 15.8075C171.823 15.812 172.19 16.1841 172.19 16.6803C172.19 17.1942 171.84 17.531 171.315 17.531Z" fill="white"/>
<path d="M165.626 23.5031C165.626 23.9816 165.249 24.3537 164.772 24.3582C164.286 24.3582 163.9 23.9683 163.909 23.4765C163.918 22.9892 164.286 22.6215 164.763 22.6215C165.258 22.6215 165.63 22.998 165.626 23.5031Z" fill="white"/>
</g>
</g>
</g>
<defs>
<clipPath id="clip0_0_748">
<rect width="185" height="42" fill="white"/>
</clipPath>
</defs>
</svg>
