<svg width="313" height="156" viewBox="0 0 313 156" fill="none" xmlns="http://www.w3.org/2000/svg">
<path fill-rule="evenodd" clip-rule="evenodd" d="M62.8927 34.9844L69.3759 48.0017C69.8193 48.8915 69.741 49.9517 69.1759 50.7693L51.4914 76.2724C51.2769 76.5815 51.3552 77.0091 51.6653 77.2228C51.787 77.3066 51.9348 77.35 52.0855 77.3442L72.2508 76.4746C72.4392 76.466 72.587 76.3071 72.5783 76.1193C72.5754 76.0355 72.5406 75.9575 72.4827 75.8968L64.4055 67.5191C63.9389 67.0337 63.8955 66.2826 64.3041 65.7453L71.3234 56.55C71.6683 56.0993 72.3117 56.0126 72.7638 56.3564C72.9029 56.4633 73.013 56.602 73.0826 56.7608L88.4022 91.7424C88.4776 91.9157 88.3993 92.1151 88.2254 92.1931C88.1037 92.2451 87.9646 92.2248 87.8631 92.1382L75.8184 81.6688C74.4679 80.496 72.5754 80.1695 70.9119 80.8253L39.2322 93.2677C39.0554 93.3371 38.8584 93.2504 38.7888 93.0742C38.7569 92.9933 38.7569 92.9008 38.7888 92.82L62.2696 35.0075C62.3392 34.8342 62.5391 34.7475 62.7159 34.8197C62.7942 34.8515 62.8579 34.9093 62.8927 34.9844Z" fill="#1DEBB4"/>
<path d="M120.001 83.486H113.573V79.4415H113.46C112.521 81.016 111.213 82.2148 109.541 83.0382C107.869 83.8615 106.075 84.2746 104.157 84.2746C102.09 84.2746 100.238 83.8904 98.6037 83.122C96.9691 82.3535 95.578 81.3222 94.4332 80.0308C93.2856 78.7395 92.4045 77.2228 91.7843 75.478C91.1641 73.736 90.854 71.8726 90.854 69.8851C90.854 67.8975 91.1728 66.0457 91.8133 64.3211C92.4509 62.5993 93.3551 61.1 94.5202 59.826C95.6852 58.552 97.0763 57.5495 98.6906 56.8186C100.305 56.0877 102.073 55.7237 103.991 55.7237C105.232 55.7237 106.339 55.8653 107.318 56.1455C108.295 56.4257 109.15 56.7724 109.883 57.1855C110.616 57.5986 111.245 58.0464 111.77 58.5346C112.297 59.0228 112.729 59.4908 113.068 59.9386H113.236V41.002H120.001V83.486ZM97.7313 69.888C97.7313 70.9366 97.8907 71.9853 98.2095 73.034C98.5283 74.0826 99.0065 75.0186 99.647 75.842C100.285 76.6653 101.093 77.3413 102.07 77.8642C103.047 78.39 104.191 78.65 105.507 78.65C106.747 78.65 107.855 78.3957 108.834 77.8902C109.811 77.3846 110.645 76.7202 111.344 75.8968C112.039 75.0735 112.564 74.1462 112.923 73.1148C113.28 72.0864 113.46 71.0464 113.46 69.9977C113.46 68.9491 113.28 67.9004 112.923 66.8517C112.564 65.8031 112.039 64.8671 111.344 64.0408C110.648 63.2175 109.811 62.5444 108.834 62.0186C107.857 61.4957 106.747 61.2328 105.507 61.2328C104.191 61.2328 103.047 61.4842 102.07 61.9926C101.093 62.4982 100.285 63.1626 99.647 63.986C99.0065 64.8093 98.5283 65.7366 98.2095 66.768C97.8907 67.7993 97.7313 68.8393 97.7313 69.888Z" fill="#1DEBB4"/>
<path d="M124.171 56.5125H131.556L138.659 76.18H138.772L145.933 56.5125H153.092L142.325 83.486H135.109L124.171 56.5125Z" fill="#1DEBB4"/>
<path d="M173.895 80.0568H173.727C173.051 81.2557 171.959 82.2379 170.457 83.0063C168.953 83.7748 167.243 84.159 165.328 84.159C164.238 84.159 163.102 84.0174 161.917 83.7372C160.734 83.457 159.642 82.989 158.648 82.3332C157.651 81.6775 156.825 80.8166 156.167 79.7477C155.509 78.6788 155.178 77.3586 155.178 75.787C155.178 73.7648 155.752 72.1528 156.897 70.9539C158.042 69.755 159.517 68.8363 161.323 68.2008C163.125 67.5652 165.128 67.1435 167.327 66.9383C169.527 66.7332 171.678 66.6292 173.782 66.6292V65.9532C173.782 64.269 173.17 63.0239 171.95 62.2179C170.727 61.4119 169.272 61.0103 167.583 61.0103C166.154 61.0103 164.783 61.3108 163.467 61.9088C162.151 62.5097 161.062 63.2377 160.198 64.1015L156.703 59.9992C158.242 58.575 160.018 57.509 162.03 56.7955C164.041 56.0848 166.078 55.7266 168.148 55.7266C170.553 55.7266 172.535 56.0646 174.095 56.7377C175.654 57.4108 176.886 58.2919 177.787 59.3781C178.688 60.4643 179.317 61.6835 179.677 63.0297C180.033 64.3788 180.213 65.7279 180.213 67.0741V83.483H173.898V80.0568H173.895ZM173.782 71.1763H172.26C171.17 71.1763 170.023 71.2226 168.82 71.3179C167.617 71.4132 166.51 71.6183 165.496 71.9361C164.482 72.2539 163.635 72.7046 162.96 73.2852C162.285 73.8659 161.946 74.6632 161.946 75.6743C161.946 76.3128 162.085 76.8472 162.369 77.2748C162.65 77.7052 163.018 78.0519 163.467 78.3148C163.919 78.5777 164.426 78.7626 164.989 78.8752C165.554 78.9879 166.116 79.0428 166.681 79.0428C169.011 79.0428 170.776 78.4246 171.982 77.1881C173.185 75.9517 173.785 74.2646 173.785 72.1297V71.1735L173.782 71.1763Z" fill="#1DEBB4"/>
<path d="M188.098 56.5123H194.526V60.8399H194.639C195.239 59.4908 196.283 58.3035 197.77 57.2721C199.253 56.2408 201.01 55.7266 203.041 55.7266C204.806 55.7266 206.319 56.0357 207.58 56.6539C208.838 57.2721 209.872 58.0868 210.681 59.0979C211.489 60.109 212.081 61.2703 212.457 62.5819C212.831 63.8935 213.022 65.2426 213.022 66.6292V83.4888H206.255V68.5417C206.255 67.7559 206.2 66.9326 206.087 66.0688C205.974 65.2079 205.731 64.4308 205.354 63.7375C204.977 63.0441 204.461 62.475 203.803 62.0243C203.146 61.5737 202.273 61.3512 201.184 61.3512C200.094 61.3512 199.155 61.5679 198.364 61.9983C197.575 62.4288 196.926 62.9806 196.419 63.6566C195.912 64.3297 195.526 65.1097 195.263 65.9879C194.999 66.869 194.868 67.7588 194.868 68.6572V83.4917H188.104V56.5181L188.098 56.5123Z" fill="#1DEBB4"/>
<path d="M239.401 63.986C238.874 63.2378 238.086 62.608 237.034 62.1024C235.982 61.5969 234.909 61.3455 233.82 61.3455C232.579 61.3455 231.489 61.5969 230.55 62.1024C229.611 62.608 228.832 63.2753 228.212 64.0986C227.591 64.922 227.131 65.8493 226.829 66.8806C226.528 67.912 226.377 68.952 226.377 70.0006C226.377 71.0493 226.537 72.0893 226.855 73.1178C227.174 74.1491 227.652 75.0764 228.293 75.8998C228.93 76.7231 229.73 77.3875 230.69 77.8931C231.649 78.3986 232.765 78.6529 234.043 78.6529C235.095 78.6529 236.147 78.4478 237.199 78.0346C238.251 77.6215 239.097 77.0235 239.735 76.2378L243.963 80.5075C242.836 81.7064 241.398 82.6338 239.651 83.2895C237.903 83.9453 236.013 84.2718 233.985 84.2718C231.956 84.2718 230.104 83.954 228.319 83.3155C226.534 82.68 224.974 81.7411 223.638 80.5046C222.305 79.2682 221.25 77.7718 220.482 76.0095C219.711 74.2502 219.326 72.2453 219.326 69.9978C219.326 67.7502 219.711 65.858 220.482 64.0958C221.25 62.3364 222.294 60.8371 223.609 59.6006C224.925 58.3642 226.455 57.408 228.203 56.7349C229.951 56.0589 231.82 55.7238 233.814 55.7238C235.808 55.7238 237.732 56.0993 239.593 56.8475C241.453 57.5958 242.928 58.6271 244.018 59.9386L239.396 63.9831L239.401 63.986Z" fill="#1DEBB4"/>
<path d="M274.24 70.3357V71.2341C274.24 71.5346 274.22 71.835 274.185 72.1326H253.608C253.684 73.1061 253.936 73.9959 254.368 74.8019C254.799 75.6079 255.373 76.3012 256.086 76.8819C256.799 77.4626 257.608 77.9219 258.509 78.257C259.41 78.595 260.349 78.7626 261.329 78.7626C263.019 78.7626 264.447 78.4535 265.612 77.8352C266.777 77.217 267.737 76.3648 268.487 75.2786L272.997 78.8752C270.328 82.4719 266.459 84.2717 261.384 84.2717C259.28 84.2717 257.344 83.9423 255.576 83.2895C253.808 82.6337 252.278 81.7063 250.983 80.5075C249.687 79.3086 248.673 77.8381 247.939 76.0961C247.206 74.3541 246.841 72.3781 246.841 70.1681C246.841 67.9581 247.209 66.0197 247.939 64.2401C248.673 62.4606 249.678 60.9439 250.956 59.6872C252.235 58.4335 253.747 57.4599 255.495 56.7666C257.243 56.0732 259.132 55.7266 261.161 55.7266C263.039 55.7266 264.778 56.0357 266.375 56.6539C267.971 57.2721 269.354 58.1908 270.519 59.407C271.684 60.6261 272.594 62.1428 273.252 63.9599C273.91 65.777 274.237 67.9032 274.237 70.3386L274.24 70.3357ZM267.476 67.3023C267.476 66.4415 267.354 65.6152 267.111 64.8295C266.864 64.0437 266.482 63.3503 265.954 62.7495C265.427 62.1515 264.76 61.6748 263.952 61.3166C263.143 60.9612 262.195 60.7821 261.106 60.7821C259.077 60.7821 257.358 61.3917 255.947 62.6079C254.539 63.827 253.756 65.3899 253.608 67.2995H267.476V67.3023Z" fill="#1DEBB4"/>
<path d="M48.7439 112.251H42.4288L41.342 115.321H38.7598L44.1648 100.262H47.0311L52.4361 115.321H49.8336L48.7468 112.251H48.7439ZM48.0512 110.237L45.5965 103.249L43.1244 110.237H48.0512Z" fill="black"/>
<path d="M54.7025 106.126C55.201 105.202 55.8821 104.485 56.7428 103.971C57.6007 103.46 58.56 103.206 59.6178 103.206C60.4003 103.206 61.1683 103.376 61.9276 103.714C62.6869 104.055 63.2926 104.506 63.7418 105.066V99.3113H66.2401V115.322H63.7418V113.525C63.3361 114.1 62.7768 114.576 62.058 114.952C61.3422 115.327 60.522 115.515 59.5975 115.515C58.5542 115.515 57.6036 115.252 56.7428 114.724C55.8821 114.198 55.201 113.461 54.7025 112.516C54.204 111.572 53.9519 110.503 53.9519 109.304C53.9519 108.105 54.204 107.045 54.7025 106.123V106.126ZM63.2318 107.207C62.8898 106.6 62.4464 106.141 61.8957 105.823C61.3451 105.508 60.7539 105.346 60.1163 105.346C59.4787 105.346 58.8845 105.502 58.3368 105.814C57.7862 106.123 57.3398 106.58 57.0008 107.175C56.6588 107.773 56.4907 108.484 56.4907 109.307C56.4907 110.13 56.6617 110.85 57.0008 111.471C57.3398 112.092 57.7891 112.563 58.3455 112.886C58.9048 113.213 59.4932 113.374 60.1163 113.374C60.7394 113.374 61.3451 113.213 61.8957 112.898C62.4435 112.583 62.8898 112.115 63.2318 111.502C63.5709 110.89 63.7418 110.171 63.7418 109.35C63.7418 108.53 63.5709 107.813 63.2318 107.207Z" fill="black"/>
<path d="M80.3686 110.28H71.2307C71.3032 111.234 71.6597 111.999 72.2972 112.574C72.9348 113.152 73.7144 113.441 74.6418 113.441C75.975 113.441 76.914 112.886 77.4646 111.774H80.1338C79.7716 112.872 79.1195 113.767 78.1689 114.469C77.2212 115.168 76.0445 115.518 74.6418 115.518C73.5 115.518 72.4769 115.261 71.5727 114.749C70.6656 114.238 69.9584 113.516 69.4455 112.586C68.9325 111.655 68.6746 110.578 68.6746 109.35C68.6746 108.122 68.9267 107.045 69.4252 106.115C69.9237 105.184 70.625 104.468 71.5292 103.962C72.4335 103.457 73.4739 103.205 74.6447 103.205C75.8156 103.205 76.7807 103.451 77.6617 103.939C78.5457 104.43 79.2296 105.118 79.7223 106.005C80.215 106.892 80.4613 107.914 80.4613 109.067C80.4613 109.512 80.4294 109.919 80.3744 110.277L80.3686 110.28ZM77.8733 108.293C77.8559 107.383 77.5313 106.655 76.8966 106.106C76.259 105.56 75.4707 105.285 74.5288 105.285C73.6739 105.285 72.9464 105.557 72.3378 106.097C71.7292 106.637 71.3669 107.368 71.2539 108.293H77.8733Z" fill="black"/>
<path d="M85.3591 99.3113V115.322H82.887V99.3113H85.3591Z" fill="black"/>
<path d="M88.5411 106.126C89.0396 105.202 89.7207 104.485 90.5814 103.971C91.4393 103.46 92.3928 103.205 93.4361 103.205C94.3751 103.205 95.1982 103.39 95.8966 103.754C96.6009 104.121 97.1602 104.583 97.5805 105.129V103.399H100.079V115.321H97.5805V113.548C97.1602 114.108 96.5893 114.579 95.8677 114.955C95.1431 115.33 94.3172 115.518 93.3926 115.518C92.3667 115.518 91.4248 115.255 90.5699 114.726C89.7149 114.201 89.0396 113.464 88.5411 112.519C88.0427 111.575 87.7905 110.506 87.7905 109.307C87.7905 108.108 88.0427 107.048 88.5411 106.126ZM97.0704 107.207C96.7284 106.6 96.285 106.141 95.7343 105.823C95.1837 105.508 94.5925 105.346 93.9549 105.346C93.3173 105.346 92.7232 105.502 92.1754 105.814C91.6248 106.123 91.1785 106.58 90.8394 107.175C90.4974 107.773 90.3293 108.483 90.3293 109.307C90.3293 110.13 90.5003 110.849 90.8394 111.471C91.1785 112.092 91.6277 112.563 92.1841 112.886C92.7435 113.213 93.3318 113.374 93.9549 113.374C94.578 113.374 95.1837 113.213 95.7343 112.898C96.2821 112.583 96.7284 112.115 97.0704 111.502C97.4095 110.89 97.5805 110.171 97.5805 109.35C97.5805 108.53 97.4095 107.813 97.0704 107.207Z" fill="black"/>
<path d="M111.895 103.789C112.639 104.179 113.222 104.757 113.645 105.519C114.065 106.285 114.274 107.207 114.274 108.29V115.321H111.819V108.66C111.819 107.591 111.553 106.773 111.017 106.204C110.48 105.632 109.75 105.349 108.826 105.349C107.901 105.349 107.165 105.635 106.623 106.204C106.081 106.773 105.809 107.591 105.809 108.66V115.321H103.336V103.399H105.809V104.763C106.214 104.271 106.733 103.89 107.362 103.616C107.991 103.341 108.66 103.205 109.37 103.205C110.309 103.205 111.156 103.399 111.898 103.789H111.895Z" fill="black"/>
<path d="M120.305 105.413V112.011C120.305 112.459 120.412 112.776 120.621 112.973C120.832 113.169 121.189 113.265 121.696 113.265H123.215V115.319H121.261C120.145 115.319 119.291 115.059 118.699 114.539C118.105 114.019 117.81 113.175 117.81 112.008V105.41H116.398V103.396H117.81V100.432H120.305V103.396H123.215V105.41H120.305V105.413Z" fill="black"/>
<path d="M125.417 106.126C125.916 105.202 126.597 104.485 127.458 103.971C128.316 103.46 129.269 103.205 130.312 103.205C131.251 103.205 132.074 103.39 132.773 103.754C133.477 104.121 134.036 104.583 134.457 105.129V103.399H136.955V115.321H134.457V113.548C134.036 114.108 133.466 114.579 132.744 114.955C132.019 115.33 131.193 115.518 130.269 115.518C129.243 115.518 128.301 115.255 127.446 114.726C126.591 114.201 125.916 113.464 125.417 112.519C124.919 111.575 124.667 110.506 124.667 109.307C124.667 108.108 124.919 107.048 125.417 106.126ZM133.947 107.207C133.605 106.6 133.161 106.141 132.611 105.823C132.06 105.508 131.469 105.346 130.831 105.346C130.194 105.346 129.599 105.502 129.052 105.814C128.501 106.123 128.055 106.58 127.716 107.175C127.374 107.773 127.206 108.483 127.206 109.307C127.206 110.13 127.377 110.849 127.716 111.471C128.055 112.092 128.504 112.563 129.06 112.886C129.62 113.213 130.208 113.374 130.831 113.374C131.454 113.374 132.06 113.213 132.611 112.898C133.158 112.583 133.605 112.115 133.947 111.502C134.286 110.89 134.457 110.171 134.457 109.35C134.457 108.53 134.286 107.813 133.947 107.207Z" fill="black"/>
<path d="M149.956 100.285V102.295H145.942V115.321H143.467V102.295H139.433V100.285H149.959H149.956Z" fill="black"/>
<path d="M163.284 103.399V115.321H160.809V113.915C160.418 114.406 159.911 114.79 159.279 115.073C158.65 115.353 157.981 115.492 157.271 115.492C156.329 115.492 155.486 115.298 154.741 114.908C153.996 114.518 153.41 113.941 152.982 113.178C152.556 112.412 152.341 111.491 152.341 110.407V103.399H154.793V110.041C154.793 111.109 155.06 111.927 155.596 112.496C156.132 113.068 156.862 113.351 157.79 113.351C158.717 113.351 159.45 113.068 159.992 112.496C160.537 111.927 160.807 111.109 160.807 110.041V103.399H163.282H163.284Z" fill="black"/>
<path d="M176.543 106.926C176.181 107.602 175.604 108.157 174.807 108.582C174.01 109.009 172.99 109.22 171.747 109.22H169.011V115.321H166.539V100.285H171.75C172.906 100.285 173.886 100.484 174.689 100.88C175.494 101.276 176.091 101.813 176.491 102.492C176.888 103.168 177.091 103.928 177.091 104.763C177.091 105.528 176.909 106.25 176.546 106.926H176.543ZM173.851 106.571C174.315 106.143 174.547 105.543 174.547 104.763C174.547 103.119 173.611 102.295 171.747 102.295H169.011V107.207H171.747C172.686 107.207 173.387 106.993 173.851 106.568V106.571Z" fill="black"/>
<path d="M179.378 106.126C179.876 105.202 180.557 104.485 181.418 103.971C182.276 103.46 183.229 103.205 184.273 103.205C185.212 103.205 186.035 103.39 186.733 103.754C187.438 104.121 187.997 104.583 188.417 105.129V103.399H190.915V115.321H188.417V113.548C187.997 114.108 187.426 114.579 186.704 114.955C185.98 115.33 185.154 115.518 184.229 115.518C183.203 115.518 182.261 115.255 181.407 114.726C180.552 114.201 179.876 113.464 179.378 112.519C178.879 111.575 178.627 110.506 178.627 109.307C178.627 108.108 178.879 107.048 179.378 106.126ZM187.907 107.207C187.565 106.6 187.122 106.141 186.571 105.823C186.02 105.508 185.429 105.346 184.792 105.346C184.154 105.346 183.56 105.502 183.012 105.814C182.461 106.123 182.015 106.58 181.676 107.175C181.334 107.773 181.166 108.483 181.166 109.307C181.166 110.13 181.337 110.849 181.676 111.471C182.015 112.092 182.464 112.563 183.021 112.886C183.58 113.213 184.168 113.374 184.792 113.374C185.415 113.374 186.02 113.213 186.571 112.898C187.119 112.583 187.565 112.115 187.907 111.502C188.246 110.89 188.417 110.171 188.417 109.35C188.417 108.53 188.246 107.813 187.907 107.207Z" fill="black"/>
<path d="M201.453 103.754C202.169 104.121 202.731 104.583 203.137 105.129V103.399H205.635V115.518C205.635 116.613 205.403 117.589 204.94 118.447C204.479 119.305 203.809 119.981 202.931 120.472C202.056 120.961 201.01 121.206 199.795 121.206C198.175 121.206 196.831 120.828 195.758 120.071C194.689 119.314 194.08 118.285 193.935 116.988H196.387C196.575 117.609 196.975 118.109 197.593 118.491C198.21 118.872 198.943 119.063 199.795 119.063C200.795 119.063 201.598 118.759 202.215 118.155C202.83 117.552 203.14 116.671 203.14 115.518V113.527C202.72 114.088 202.152 114.565 201.436 114.946C200.72 115.324 199.905 115.518 198.995 115.518C197.952 115.518 197.002 115.255 196.141 114.726C195.28 114.201 194.599 113.464 194.1 112.519C193.602 111.575 193.35 110.506 193.35 109.307C193.35 108.108 193.602 107.048 194.1 106.126C194.599 105.202 195.28 104.485 196.141 103.971C196.999 103.46 197.952 103.205 198.995 103.205C199.92 103.205 200.743 103.39 201.456 103.754H201.453ZM202.627 107.207C202.285 106.6 201.841 106.141 201.291 105.823C200.74 105.508 200.149 105.346 199.511 105.346C198.874 105.346 198.28 105.502 197.732 105.814C197.181 106.123 196.735 106.58 196.396 107.175C196.054 107.773 195.886 108.483 195.886 109.307C195.886 110.13 196.057 110.849 196.396 111.471C196.735 112.092 197.184 112.563 197.741 112.886C198.3 113.213 198.888 113.374 199.511 113.374C200.134 113.374 200.74 113.213 201.291 112.898C201.839 112.583 202.285 112.115 202.627 111.502C202.966 110.89 203.137 110.171 203.137 109.35C203.137 108.53 202.966 107.813 202.627 107.207Z" fill="black"/>
<path d="M211.011 114.749C210.101 114.238 209.385 113.516 208.864 112.586C208.342 111.655 208.081 110.578 208.081 109.35C208.081 108.122 208.351 107.065 208.887 106.126C209.423 105.187 210.153 104.468 211.078 103.962C212.002 103.457 213.037 103.205 214.182 103.205C215.326 103.205 216.358 103.457 217.288 103.962C218.213 104.468 218.946 105.187 219.479 106.126C220.016 107.062 220.282 108.137 220.282 109.35C220.282 110.563 220.007 111.635 219.459 112.574C218.909 113.513 218.161 114.238 217.213 114.749C216.265 115.261 215.219 115.518 214.074 115.518C212.93 115.518 211.927 115.261 211.014 114.749H211.011ZM215.863 112.921C216.419 112.617 216.871 112.164 217.219 111.557C217.567 110.953 217.741 110.217 217.741 109.35C217.741 108.483 217.575 107.753 217.242 107.155C216.912 106.557 216.468 106.106 215.918 105.803C215.367 105.499 214.776 105.346 214.138 105.346C213.501 105.346 212.912 105.499 212.37 105.803C211.825 106.106 211.397 106.557 211.078 107.155C210.759 107.753 210.6 108.486 210.6 109.35C210.6 110.633 210.93 111.624 211.588 112.326C212.249 113.028 213.077 113.374 214.074 113.374C214.712 113.374 215.309 113.221 215.865 112.918L215.863 112.921Z" fill="black"/>
<path d="M222.604 115.018C222.3 114.715 222.146 114.339 222.146 113.891C222.146 113.444 222.297 113.068 222.604 112.765C222.908 112.461 223.282 112.308 223.734 112.308C224.186 112.308 224.537 112.461 224.838 112.765C225.143 113.068 225.296 113.441 225.296 113.891C225.296 114.342 225.146 114.712 224.838 115.018C224.534 115.321 224.166 115.472 223.734 115.472C223.302 115.472 222.908 115.321 222.604 115.018Z" fill="black"/>
<path d="M227.89 106.115C228.389 105.184 229.078 104.468 229.962 103.962C230.846 103.457 231.858 103.205 233.002 103.205C234.451 103.205 235.645 103.546 236.596 104.231C237.544 104.919 238.184 105.895 238.518 107.163H235.848C235.631 106.571 235.283 106.112 234.805 105.779C234.33 105.447 233.727 105.283 233.002 105.283C231.988 105.283 231.182 105.638 230.582 106.354C229.982 107.068 229.681 108.067 229.681 109.35C229.681 110.633 229.982 111.635 230.582 112.357C231.182 113.077 231.988 113.438 233.002 113.438C234.437 113.438 235.385 112.811 235.848 111.554H238.518C238.17 112.768 237.518 113.73 236.561 114.443C235.608 115.157 234.42 115.515 233.002 115.515C231.86 115.515 230.846 115.258 229.962 114.747C229.078 114.235 228.391 113.513 227.89 112.583C227.392 111.653 227.139 110.575 227.139 109.347C227.139 108.119 227.392 107.042 227.89 106.112V106.115Z" fill="black"/>
<path d="M243.114 114.749C242.204 114.238 241.488 113.516 240.967 112.586C240.445 111.655 240.184 110.578 240.184 109.35C240.184 108.122 240.454 107.065 240.99 106.126C241.526 105.187 242.256 104.468 243.181 103.962C244.105 103.457 245.14 103.205 246.285 103.205C247.429 103.205 248.461 103.457 249.392 103.962C250.316 104.468 251.049 105.187 251.583 106.126C252.119 107.062 252.385 108.137 252.385 109.35C252.385 110.563 252.11 111.635 251.562 112.574C251.012 113.513 250.264 114.238 249.316 114.749C248.368 115.261 247.322 115.518 246.177 115.518C245.033 115.518 244.03 115.261 243.117 114.749H243.114ZM247.966 112.921C248.522 112.617 248.974 112.164 249.322 111.557C249.67 110.953 249.844 110.217 249.844 109.35C249.844 108.483 249.678 107.753 249.345 107.155C249.015 106.557 248.571 106.106 248.021 105.803C247.47 105.499 246.879 105.346 246.241 105.346C245.604 105.346 245.015 105.499 244.473 105.803C243.928 106.106 243.5 106.557 243.181 107.155C242.862 107.753 242.703 108.486 242.703 109.35C242.703 110.633 243.033 111.624 243.691 112.326C244.352 113.028 245.18 113.374 246.177 113.374C246.815 113.374 247.412 113.221 247.969 112.918L247.966 112.921Z" fill="black"/>
<path d="M271.843 103.789C272.588 104.179 273.174 104.757 273.602 105.519C274.028 106.285 274.243 107.207 274.243 108.29V115.321H271.791V108.66C271.791 107.591 271.524 106.773 270.988 106.204C270.452 105.632 269.719 105.349 268.794 105.349C267.87 105.349 267.134 105.635 266.592 106.204C266.047 106.773 265.777 107.591 265.777 108.66V115.321H263.323V108.66C263.323 107.591 263.056 106.773 262.52 106.204C261.984 105.632 261.253 105.349 260.329 105.349C259.404 105.349 258.668 105.635 258.126 106.204C257.584 106.773 257.312 107.591 257.312 108.66V115.321H254.84V103.399H257.312V104.763C257.718 104.271 258.231 103.89 258.854 103.616C259.477 103.341 260.141 103.205 260.851 103.205C261.804 103.205 262.659 103.405 263.413 103.809C264.166 104.214 264.743 104.797 265.149 105.563C265.508 104.843 266.073 104.269 266.841 103.844C267.609 103.419 268.432 103.205 269.313 103.205C270.255 103.205 271.098 103.399 271.843 103.789Z" fill="black"/>
</svg>
