<svg width="219" height="81" viewBox="0 0 219 81" fill="none" xmlns="http://www.w3.org/2000/svg">
<g clip-path="url(#clip0_0_805)">
<path d="M46.1961 53.9034C42.7118 51.6661 40.0417 49.0932 37.4676 46.5305C34.4385 43.5153 31.6217 42.4983 27.4345 44.3186C19.06 47.9492 10.4782 51.0864 1.97735 54.422C1.48176 54.6152 1.01651 55.3729 0.450123 54.7119C-0.0151239 54.1678 0.505751 53.5983 0.713089 53.0746C3.37309 46.4288 6.03815 39.783 8.70826 33.1424C12.9562 22.5864 17.2041 12.0407 21.4621 1.49492C21.6694 0.976271 21.7554 0.345763 22.7061 0C24.7846 4.25593 26.9186 8.50678 28.9314 12.8186C29.4269 13.8814 28.8302 14.8983 28.1627 15.8542C23.2675 22.9017 18.4026 29.9695 13.558 37.0525C13.0624 37.7746 12.0307 38.4915 12.5415 39.4475C12.9815 40.2712 14.094 39.8797 14.8677 39.8085C19.4696 39.3712 24.0817 39.422 28.6886 39.2797C29.4573 39.2542 30.5799 39.3661 30.8985 38.5271C31.202 37.739 30.1804 37.3068 29.6899 36.7881C28.016 35.0136 26.3169 33.2593 24.5671 31.561C23.5507 30.5746 23.3282 29.6339 24.2233 28.4695C26.064 26.0695 27.8744 23.6441 29.7101 21.2339C30.7974 19.8051 31.824 19.5559 32.6483 21.4678C37.1288 31.8203 41.6093 42.178 46.0747 52.5356C46.1657 52.7491 46.1253 53.0186 46.1961 53.9034Z" fill="white"/>
<path d="M69.3319 23.2474C69.3319 17.9643 69.4735 13.0779 69.2763 8.20672C69.1701 5.59316 70.5406 5.55757 72.3813 5.64909C74.0754 5.73554 75.8656 5.1152 75.8302 8.1152C75.6836 19.8457 75.7341 31.5813 75.81 43.3118C75.8201 45.0965 75.2739 45.7728 73.5293 45.5593C71.7593 45.3406 69.069 46.561 69.8427 42.4321C66.4343 45.5491 62.8994 47.0389 58.6211 46.1593C55.9055 45.5999 53.4832 44.5525 51.7689 42.305C47.0253 36.0711 47.4957 27.966 52.8409 22.7694C57.1849 18.544 63.6276 18.6101 69.342 23.2474H69.3319ZM55.1217 33.0508C55.1368 37.9779 57.8828 41.0084 62.3077 40.9779C66.586 40.9525 69.4988 37.6677 69.4482 32.9338C69.4027 28.4847 66.055 24.7525 62.1611 24.8033C58.0547 24.8542 55.1116 28.3067 55.1267 33.0508H55.1217Z" fill="white"/>
<path d="M209.134 35.2526C206.615 35.2526 204.092 35.3288 201.579 35.2271C199.667 35.1509 199.687 35.9034 200.38 37.3119C202.312 41.2322 208.431 42.5949 211.89 39.4983C213.402 38.1458 214.059 38.3492 215.374 39.4729C217.786 41.5322 217.832 42.1322 215.207 43.9678C209.159 48.1983 199.778 46.8763 195.702 41.2119C191.399 35.2373 192.865 26.4865 198.954 21.8136C202.423 19.1543 209.376 18.9407 213.351 21.3712C216.866 23.5271 219.511 29.6593 218.914 33.9865C218.747 35.2017 218.095 35.2576 217.195 35.2526C214.509 35.2424 211.824 35.2526 209.134 35.2526ZM206.848 24.4068C203.581 24.5187 201.432 25.8712 200.157 28.5509C199.48 29.9695 199.692 30.7678 201.503 30.717C204.011 30.6458 206.524 30.7678 209.033 30.6661C210.13 30.6204 211.672 31.3627 212.249 30.1322C212.911 28.7187 211.784 27.4373 210.974 26.2576C209.882 24.6712 208.137 24.6661 206.848 24.4068Z" fill="white"/>
<path d="M125.536 43.1033C121.455 46.6982 117.116 47.0745 112.484 45.1372C109.596 43.9321 108.281 41.5779 108.231 38.5575C108.18 35.4762 109.647 33.1626 112.484 31.9931C115.912 30.5795 119.503 29.766 123.25 29.7609C123.933 29.7609 124.889 30.1321 125.258 29.2067C125.587 28.3779 125.222 27.5796 124.732 26.8423C123.098 24.3609 118.289 23.9084 115.098 25.9626C114.299 26.4762 113.601 27.7626 112.58 27.0558C111.589 26.3745 110.906 25.205 110.173 24.188C109.793 23.6643 110.294 23.3033 110.648 22.927C114.203 19.144 125.536 18.0151 129.308 23.0287C130.937 25.1897 131.574 27.5338 131.63 30.0762C131.726 34.5457 131.584 39.0253 131.695 43.4948C131.741 45.2643 131.018 45.7575 129.47 45.544C127.842 45.3151 125.349 46.6779 125.536 43.0982V43.1033ZM118.668 41.4253C122.972 41.3897 125.324 39.2745 125.592 35.7202C125.662 34.749 125.49 33.9406 124.348 34.0168C121.521 34.205 118.674 34.4185 116.115 35.8219C114.987 36.4372 114.491 37.4745 114.663 38.7863C114.83 40.027 115.614 40.7185 116.742 41.0287C117.536 41.2473 118.365 41.3643 118.663 41.4253H118.668Z" fill="white"/>
<path d="M144.935 23.5679C147.443 20.5272 150.411 19.373 153.992 19.6984C158.346 20.0899 161.724 23.5425 161.931 28.3628C162.159 33.5798 161.992 38.8171 162.038 44.0442C162.048 45.1018 161.694 45.4781 160.606 45.5798C155.651 46.0425 155.595 46.0272 155.59 41.0391C155.59 37.6679 155.625 34.2916 155.554 30.9204C155.474 27.0052 154.012 25.1442 151.114 25.0781C147.928 25.0018 145.425 27.4882 145.329 31.0628C145.223 35.0238 145.172 38.995 145.339 42.9459C145.43 45.0967 144.727 45.8645 142.659 45.5696C141.921 45.4628 141.147 45.5035 140.399 45.5594C139.205 45.651 138.79 45.1425 138.795 43.9476C138.831 36.6103 138.831 29.2781 138.795 21.9408C138.79 20.7713 139.149 20.1865 140.368 20.2882C140.869 20.3289 141.38 20.3391 141.875 20.2882C144.085 20.0493 145.643 20.4713 144.93 23.573L144.935 23.5679Z" fill="white"/>
<path d="M93.3429 37.8609C95.1786 32.8321 97.0193 27.8033 98.8399 22.7694C99.5833 20.7253 103.841 19.2253 105.652 20.4304C106.582 21.0508 105.894 21.8186 105.652 22.4338C103.356 28.3169 101.009 34.1847 98.678 40.0575C98.4302 40.683 98.0712 41.2881 97.9397 41.9338C97.3531 44.7508 95.8815 45.7779 92.8473 45.6864C90.1923 45.605 89.1354 44.7762 88.2403 42.3406C85.8534 35.8626 83.0872 29.522 80.5031 23.1203C79.4107 20.4152 79.5018 20.3135 82.3337 20.2931C86.3389 20.2677 86.3692 20.2525 87.7498 24.0203C89.4237 28.5965 91.0369 33.1982 92.6804 37.7847C92.8979 37.8101 93.1204 37.8355 93.3378 37.8609H93.3429Z" fill="white"/>
<path d="M174.528 32.8728C174.579 39.6966 179.823 42.8695 185.608 39.8796C186.873 39.2288 189.487 40.5559 190.291 42.3559C191.024 43.9932 189.366 44.161 188.602 44.5932C182.898 47.8423 173.593 46.8203 169.643 40.3118C166.068 34.4288 167.646 26.1813 173.487 21.8339C177.654 18.7322 185.967 19.0525 189.558 22.3728C190.59 23.3237 190.888 23.9593 189.523 24.8339C188.759 25.322 188.157 26.0644 187.49 26.705C186.943 27.2288 186.377 27.4678 185.745 26.8474C183.54 24.6711 180.85 24.4017 178.336 25.7389C175.545 27.2288 174.346 29.944 174.528 32.8728Z" fill="white"/>
<path d="M144.217 77.0898C145.187 76.9016 146.078 76.5966 146.942 77.5627C148.06 78.8084 149.531 79.0525 151.064 78.3762C152.712 77.6491 152.571 76.1644 152.561 74.4203C151.332 75.1932 150.315 75.961 148.965 75.8796C147.671 75.7983 146.568 75.5084 145.592 74.5423C143.468 72.4423 142.897 69.9711 144.06 67.1949C145.218 64.4288 148.121 63.3559 151.21 64.5152C151.625 64.6677 151.863 65.1559 152.5 64.9423C155.18 64.0372 155.195 64.0728 155.195 66.7728C155.195 69.8898 155.291 73.0067 155.14 76.1135C154.998 79.0525 153.274 80.7711 150.674 80.9491C146.533 81.2338 145.026 80.344 144.227 77.0898H144.217ZM152.545 70.0016C152.581 67.8966 151.185 66.2237 149.39 66.2186C147.696 66.2135 146.214 67.805 146.148 69.7016C146.072 71.8677 147.387 73.3779 149.36 73.3932C151.312 73.4084 152.51 72.1322 152.545 70.0016Z" fill="white"/>
<path d="M200.562 69.9153C200.663 68.0797 200.127 65.7458 201.053 64.5559C201.867 63.5085 204.426 64.1543 206.059 64.2712C208.906 64.4797 211.566 65.0085 214.524 64.2509C216.997 63.6204 218.722 65.5983 218.899 68.2882C219.03 70.3068 218.899 72.3407 218.949 74.3644C218.975 75.3458 218.585 75.7017 217.629 75.717C216.583 75.7322 216.365 75.2085 216.391 74.2983C216.431 72.6966 216.436 71.0898 216.391 69.4882C216.345 67.7339 215.824 66.2543 213.731 66.2339C211.591 66.2136 211.172 67.8204 211.045 69.4932C210.939 70.922 211.045 72.361 211.015 73.7949C211 74.6543 211.364 75.717 209.806 75.722C208.395 75.722 208.416 74.8932 208.441 73.8915C208.476 72.3712 208.466 70.8509 208.446 69.3356C208.421 67.6526 207.915 66.2695 205.948 66.239C203.849 66.2034 203.298 67.6576 203.262 69.4271C203.227 71.0288 203.207 72.6356 203.273 74.2373C203.318 75.3559 202.868 75.7221 201.801 75.717C200.683 75.717 200.628 75.0559 200.643 74.222C200.668 72.7882 200.648 71.3543 200.648 69.9153C200.618 69.9153 200.587 69.9153 200.557 69.9153H200.562Z" fill="white"/>
<path d="M23.0197 65.1356C23.0197 63.7118 23.0551 62.6186 23.0095 61.5305C22.964 60.4169 23.6619 60.361 24.4811 60.3407C25.3307 60.3203 25.6695 60.6813 25.6695 61.5407C25.6493 65.8271 25.6392 70.1135 25.6746 74.3949C25.6898 76.1186 24.0867 76.0474 23.6922 75.5542C22.7415 74.3593 22.1246 75.1373 21.3357 75.4779C19.146 76.4237 17.0271 75.8186 15.333 73.7796C13.6186 71.7152 13.472 68.6034 14.979 66.239C16.0915 64.4949 18.706 63.6203 21.0171 64.2712C21.6391 64.444 22.2156 64.7796 23.0197 65.1305V65.1356ZM19.8995 66.2085C18.2205 66.1881 16.6933 67.8 16.6174 69.6813C16.5264 71.8423 17.8463 73.3678 19.8287 73.3983C21.7857 73.4288 22.9944 72.1525 23.0298 70.022C23.0652 67.8813 21.7099 66.2288 19.8995 66.2085Z" fill="white"/>
<path d="M141.516 70.0372C141.516 71.3796 141.531 72.727 141.511 74.0694C141.501 74.6237 141.764 75.3864 141.025 75.5948C140.348 75.783 139.367 76.0575 139.013 75.2186C138.644 74.3389 138.578 74.6338 137.961 75.0101C135.518 76.505 133.344 76.144 131.473 74.1253C129.5 71.9948 129.243 68.6694 130.851 66.2135C132.039 64.4033 134.815 63.5542 137.142 64.3525C137.971 64.6372 138.537 65.2016 139.579 64.3525C140.307 63.7576 141.703 63.9762 141.541 65.766C141.41 67.1796 141.516 68.6186 141.516 70.0474V70.0372ZM138.896 70.4643C138.902 67.8965 137.45 66.2084 135.695 66.2084C133.986 66.2084 132.368 68.0237 132.403 69.9152C132.444 72.0203 133.85 73.4745 135.822 73.3931C138.006 73.3016 138.836 71.9491 138.896 70.4694V70.4643Z" fill="white"/>
<path d="M38.4285 72.2797C36.7445 75.6102 34.0087 76.7543 31.0503 75.4272C28.1172 74.1102 26.8681 70.5255 28.1931 67.2458C29.2904 64.5255 32.6331 63.234 35.6219 64.434C36.8103 64.9119 37.7559 65.6797 38.3021 66.9458C39.6675 70.1085 39.1517 70.9882 35.7938 70.9882C34.5346 70.9882 33.2754 70.9526 32.0162 71.0035C31.5054 71.0238 30.7266 70.6679 30.5901 71.5577C30.4839 72.2289 31.0301 72.6458 31.5257 72.9357C32.7747 73.6679 34.13 73.8153 35.2577 72.8034C36.2692 71.8933 37.2452 71.8068 38.4285 72.2797ZM30.3474 68.7865C32.0314 68.7865 33.4372 68.8018 34.8431 68.7763C35.2274 68.7712 35.7887 68.756 35.9506 68.5221C36.2944 68.0238 35.814 67.6221 35.5005 67.2357C33.9682 65.3289 32.0061 65.7916 30.3474 68.7916V68.7865Z" fill="white"/>
<path d="M6.21505 61.2457C7.43886 61.0067 7.9749 61.4949 8.33901 62.5627C9.62855 66.3762 11.0294 70.1542 12.3442 73.9627C12.5212 74.4813 13.3354 75.2949 12.2127 75.6C11.3985 75.8186 10.2303 76.0983 9.92692 74.8017C9.60327 73.4084 9.07734 72.4627 7.4338 72.7932C5.71946 73.1389 3.24152 71.6339 2.74087 74.8932C2.55882 76.0576 1.40581 75.7779 0.652314 75.6356C-0.48552 75.4169 0.166838 74.5576 0.348891 74.0288C1.68901 70.1389 3.08475 66.2644 4.46532 62.3898C4.77886 61.5101 5.23905 60.8542 6.21 61.2457H6.21505ZM6.40722 64.5305C5.58292 66.8389 4.98619 68.522 4.35912 70.2864C5.77003 70.4694 7.00395 70.5406 8.33395 70.2457C7.75745 68.5271 7.19612 66.8695 6.40722 64.5305Z" fill="white"/>
<path d="M57.1496 69.9864C57.1496 71.4152 57.1142 72.8441 57.1597 74.2729C57.2204 76.1237 55.2987 76.0373 55.0762 75.5339C54.2924 73.7644 53.7108 75.061 53.0231 75.3915C50.7929 76.4644 48.5628 75.8949 46.7928 73.7949C45.1948 71.8983 45.0228 68.3593 46.4287 66.244C47.698 64.3322 50.53 63.5085 52.9371 64.4542C53.7311 64.7644 54.2014 65.1152 55.1217 64.3627C55.8044 63.8085 57.2963 63.8644 57.1698 65.7C57.0687 67.1186 57.1496 68.5576 57.1496 69.9813V69.9864ZM54.5958 69.9966C54.6565 68.1356 53.0534 66.244 51.3795 66.2034C49.5893 66.1576 48.1026 67.7949 48.1026 69.839C48.1026 71.8678 48.9522 73.2254 51.1065 73.3881C53.0888 73.5356 54.525 72.1017 54.5958 69.9966Z" fill="white"/>
<path d="M91.4211 69.9967C91.4211 71.4255 91.4161 72.8543 91.4211 74.2831C91.4211 74.8882 91.4515 75.5492 90.6879 75.656C90.1417 75.7323 89.4337 75.956 89.0645 75.3865C88.7207 74.8577 88.8926 74.2425 87.8458 74.9492C85.3881 76.612 83.1326 76.1391 81.1907 73.9679C79.4359 72.0103 79.2084 68.4459 80.7002 66.2289C81.9695 64.3425 84.8571 63.4933 87.2137 64.4645C88.043 64.8052 88.4931 65.0136 89.4034 64.3628C90.1619 63.8187 91.5779 63.8899 91.4414 65.7153C91.3352 67.134 91.4211 68.573 91.4211 70.0018V69.9967ZM88.8117 69.9509C88.837 67.9679 87.3452 66.2289 85.5904 66.2086C83.8255 66.1882 82.3437 67.856 82.364 69.8848C82.3842 71.9137 83.254 73.256 85.4083 73.3882C87.421 73.5103 88.7813 72.1018 88.8117 69.9509Z" fill="white"/>
<path d="M115.831 70.0018C115.831 71.4306 115.801 72.8594 115.842 74.2882C115.867 75.178 115.508 76.1085 114.663 75.6255C113.055 74.7153 111.761 75.778 110.329 75.8543C107.816 75.9916 105.712 74.2831 105.53 71.7509C105.379 69.6611 105.52 67.5509 105.454 65.4509C105.424 64.4238 105.854 64.195 106.789 64.1899C107.816 64.1848 108.079 64.6272 108.059 65.5577C108.018 67.3221 108.039 69.0865 108.049 70.856C108.059 72.4831 108.868 73.3475 110.501 73.3882C112.226 73.4289 113.182 72.6153 113.217 70.8458C113.247 69.1628 113.257 67.4848 113.237 65.8018C113.227 64.8814 113.262 64.2001 114.517 64.1797C115.74 64.1645 115.877 64.7441 115.847 65.7153C115.801 67.1441 115.836 68.573 115.836 70.0018H115.831Z" fill="white"/>
<path d="M187.09 69.956C187.08 66.2695 189.174 64.1237 192.789 64.1034C196.36 64.0831 198.656 66.3305 198.676 69.8644C198.696 73.1085 196.066 75.8187 192.85 75.8644C189.472 75.9153 187.1 73.4797 187.09 69.956ZM189.674 69.9407C189.674 72.1373 190.787 73.3932 192.739 73.3983C194.762 73.3983 196.051 71.9949 195.955 69.778C195.864 67.8 194.984 66.3763 192.85 66.239C191.009 66.1221 189.679 67.7492 189.679 69.9458L189.674 69.9407Z" fill="white"/>
<path d="M168.758 69.8543C168.773 73.256 166.346 75.8085 163.034 75.8645C159.792 75.9204 157.208 73.3221 157.163 69.9763C157.117 66.4475 159.403 64.1289 162.938 64.1085C166.559 64.0882 168.738 66.2441 168.758 69.8594V69.8543ZM159.883 69.9051C159.878 72.1831 160.9 73.3729 162.882 73.3933C164.955 73.4136 166.149 72.0967 166.103 69.8187C166.063 67.7899 165.148 66.4272 163.064 66.2391C161.178 66.0713 159.893 67.6424 159.883 69.9051Z" fill="white"/>
<path d="M118.643 68.3187C118.643 67.3069 118.512 66.2747 118.678 65.2933C118.906 63.9357 117.743 62.0391 119.452 61.2916C121.814 60.2543 126.577 61.3831 127.685 62.8628C128.717 64.2357 129.076 65.7153 128.332 67.3526C127.584 68.9899 126.132 69.9357 124.524 69.7221C121.212 69.2797 120.777 70.9475 121.187 73.5662C121.227 73.8102 121.172 74.0747 121.197 74.3238C121.293 75.2645 120.939 75.7119 119.943 75.7272C118.967 75.7425 118.613 75.356 118.633 74.3848C118.678 72.3662 118.648 70.3475 118.648 68.3238L118.643 68.3187ZM121.222 66.0204C120.585 67.7136 121.662 67.8408 123.174 67.8357C124.838 67.8306 126.072 67.3323 126.041 65.5475C126.011 63.5848 124.418 63.6662 122.957 63.4882C120.909 63.2442 121.075 64.4797 121.217 66.0204H121.222Z" fill="white"/>
<path d="M59.7995 69.8084C59.7995 69.2186 59.754 68.6237 59.8097 68.044C59.9917 66.1322 58.596 63.2644 63.0006 64.5051C64.7403 64.9932 67.2233 63.5898 69.0135 65.3186C70.9503 67.1847 70.1766 69.7271 70.303 72.0305C70.3435 72.783 70.2727 73.5457 70.3182 74.3034C70.3738 75.2084 70.1361 75.7271 69.0944 75.722C68.1335 75.7169 67.7441 75.3661 67.7745 74.3847C67.8251 72.7881 67.8251 71.1864 67.7745 69.5898C67.7239 67.8712 67.2688 66.3152 65.2055 66.2491C62.945 66.1779 62.5152 67.8254 62.4747 69.6457C62.4393 71.161 62.4292 72.6762 62.4848 74.1864C62.5202 75.2135 62.2471 75.7423 61.0941 75.7271C59.8956 75.7118 59.749 75.0712 59.7793 74.1051C59.8248 72.6762 59.7894 71.2423 59.7945 69.8135L59.7995 69.8084Z" fill="white"/>
<path d="M185.664 71.7711C184.364 75.1169 182.079 76.4389 179.146 75.7728C176.678 75.2135 174.807 72.5084 174.903 69.6508C175.004 66.5999 176.718 64.5101 179.409 64.1541C182.771 63.7067 184.612 64.7745 185.563 67.7897C184.304 68.044 183.267 68.1406 182.235 66.9457C181.032 65.5525 179.57 65.8423 178.412 67.2253C177.254 68.5982 177.204 71.4965 178.422 72.5999C179.884 73.9219 181.436 73.8813 182.802 72.3558C183.651 71.405 184.627 72.0813 185.674 71.7762L185.664 71.7711Z" fill="white"/>
<path d="M97.1102 69.6203C97.1102 68.6084 97.0394 67.5864 97.1253 66.5796C97.2871 64.6474 97.2922 62.9643 94.5412 63.5186C93.641 63.7016 93.4286 63.1016 93.4084 62.2982C93.3882 61.383 93.813 61.1745 94.6322 61.1847C97.1506 61.2203 99.669 61.1999 102.192 61.1999C102.89 61.1999 103.522 61.1999 103.543 62.2118C103.568 63.2237 103.113 63.6915 102.198 63.5135C99.6387 63.0152 99.578 64.5101 99.6589 66.4067C99.7651 68.9338 99.6842 71.4711 99.6892 74.0033C99.6892 74.8525 99.846 75.7016 98.5059 75.7169C97.1304 75.7321 97.0646 74.9593 97.1 73.922C97.1455 72.4881 97.1102 71.0491 97.1102 69.6152V69.6203Z" fill="white"/>
<path d="M73.3573 69.8745C72.9376 68.6491 74.3283 66.7067 72.088 65.761C71.8149 65.644 71.7947 64.5457 72.2751 64.4542C73.6506 64.1796 73.3573 63.2033 73.3523 62.3491C73.3422 61.3881 73.9187 61.2915 74.6671 61.2762C75.4863 61.2559 76.0072 61.5203 75.8859 62.4152C75.6937 63.8237 76.1893 64.444 77.6508 64.2355C78.4397 64.1237 78.6521 64.6576 78.6167 65.344C78.5863 65.9491 78.2778 66.3406 77.676 66.2288C75.6229 65.8372 75.8403 67.1898 75.8909 68.4762C75.9263 69.4016 75.9213 70.3322 75.8909 71.2576C75.8505 72.4322 75.8302 73.5508 77.5142 73.3677C78.4498 73.266 78.6369 73.8203 78.6318 74.6084C78.6268 75.5186 78.1059 75.6559 77.3322 75.722C74.7733 75.9305 73.4332 74.7508 73.3675 72.1067C73.3523 71.4305 73.3675 70.7593 73.3675 69.8796L73.3573 69.8745Z" fill="white"/>
<path d="M40.9013 67.9525C40.9013 65.9288 40.9367 63.9051 40.8861 61.8813C40.8608 60.8695 41.0834 60.2847 42.2616 60.3356C43.273 60.3813 43.5158 60.8644 43.5107 61.7796C43.4854 65.9135 43.4753 70.0474 43.5208 74.1763C43.531 75.2288 43.2326 75.7119 42.1099 75.722C40.8002 75.7322 40.8912 74.8983 40.8962 74.0288C40.9064 72.0051 40.8962 69.9813 40.8962 67.9576L40.9013 67.9525Z" fill="white"/>
<path d="M171.868 72.5391C172.784 72.6764 173.497 73.1492 173.461 74.1153C173.421 75.1018 172.88 75.8848 171.747 75.8187C170.746 75.7577 170.301 74.9696 170.275 74.1153C170.245 73.1543 170.948 72.6713 171.868 72.5391Z" fill="white"/>
</g>
<defs>
<clipPath id="clip0_0_805">
<rect width="219" height="81" fill="white"/>
</clipPath>
</defs>
</svg>
