<svg width="80" height="80" viewBox="0 0 80 80" fill="none" xmlns="http://www.w3.org/2000/svg">
<g clip-path="url(#clip0_201_912)">
<path d="M40 0C17.944 0 0 17.944 0 40C0 62.056 17.944 80 40 80C62.056 80 80 62.056 80 40C80 17.944 62.056 0 40 0ZM40 76.8C19.7088 76.8 3.2 60.2928 3.2 40C3.2 19.7072 19.7088 3.2 40 3.2C60.2912 3.2 76.8 19.7072 76.8 40C76.8 60.2928 60.2912 76.8 40 76.8Z" fill="#1DC9B7"/>
<path d="M53.168 21.56L31.5376 43.192L26.832 38.4864C24.0592 35.712 19.5456 35.712 16.7712 38.4864C15.4272 39.8304 14.6864 41.616 14.6864 43.5184C14.6864 45.4208 15.4272 47.2048 16.7712 48.5488L26.7712 58.5488C28.0848 59.8624 29.8112 60.5184 31.536 60.5184C33.2608 60.5184 34.9872 59.8624 36.3008 58.5488L63.2272 31.6224C64.5712 30.2784 65.312 28.4928 65.312 26.592C65.312 24.6912 64.5712 22.904 63.2272 21.56C60.456 18.7888 55.9408 18.7888 53.1664 21.56H53.168ZM60.9664 29.3568L34.04 56.2832C32.6608 57.6608 30.4144 57.6608 29.0352 56.2832L19.0352 46.2832C18.296 45.544 17.888 44.5616 17.888 43.5152C17.888 42.4688 18.2944 41.4848 19.0352 40.7472C19.7744 40.008 20.7568 39.6 21.8032 39.6C22.8496 39.6 23.832 40.008 24.5712 40.7472L31.5392 47.7152L55.432 23.8208C56.9584 22.296 59.4432 22.296 60.968 23.8208C61.7072 24.56 62.1152 25.5424 62.1152 26.5888C62.1152 27.6352 61.7072 28.6176 60.968 29.3568H60.9664Z" fill="#1DC9B7"/>
</g>
<defs>
<clipPath id="clip0_201_912">
<rect width="80" height="80" fill="white"/>
</clipPath>
</defs>
</svg>
