<svg width="39" height="28" viewBox="0 0 39 28" fill="none" xmlns="http://www.w3.org/2000/svg">
<g clip-path="url(#clip0_201_907)">
<path d="M36.6716 0H6.17933C4.89304 0 3.85095 1.04874 3.85095 2.32878V3.85233H2.32766C1.04784 3.85808 0 4.90036 0 6.18615V25.6719C0 26.952 1.04784 28 2.32766 28H32.8207C34.1005 28 35.1483 26.9577 35.1483 25.6719V24.1419H36.6716C37.9514 24.1419 38.9993 23.0996 38.9993 21.8139V2.32807C38.9993 1.04802 37.9572 0 36.6709 0H36.6716ZM2.32766 4.89461H32.8207C33.5338 4.89461 34.1062 5.47358 34.1062 6.1804V8.34397H1.03635V6.18615C1.03635 5.47286 1.61521 4.89389 2.32838 4.89389L2.32766 4.89461ZM1.03563 9.38625H34.107V13.6222H1.03635V9.38625H1.03563ZM34.112 25.6712C34.112 26.3845 33.5331 26.957 32.8264 26.957H2.32838C1.61521 26.957 1.03635 26.378 1.03635 25.6712V14.658H34.107V25.6712H34.1127H34.112ZM37.9629 21.8196C37.9629 22.5329 37.3841 23.1054 36.6774 23.1054H35.1541V6.1804C35.1541 4.89461 34.112 3.85233 32.8264 3.85233H4.8873V2.32878C4.8873 1.61549 5.46616 1.03653 6.17933 1.03653H36.6716C37.3848 1.03653 37.9572 1.61549 37.9572 2.32878V21.8189H37.9636L37.9629 21.8196Z" fill="#646C9A"/>
<path d="M8.29368 17.736C7.80028 17.4437 7.22716 17.2906 6.6483 17.2906C4.83845 17.2906 3.36975 18.7661 3.36975 20.5755C3.36975 22.385 4.83845 23.8604 6.6483 23.8604C7.22716 23.8604 7.80028 23.7081 8.28721 23.415C9.29915 22.8303 9.93259 21.7449 9.93259 20.5748C9.93259 19.4047 9.30489 18.3135 8.29368 17.7346V17.736ZM7.7694 22.5207C7.434 22.7154 7.05049 22.8253 6.6483 22.8253C5.41157 22.8253 4.4061 21.8196 4.4061 20.5762C4.4061 19.3328 5.41157 18.3272 6.6483 18.3272C7.04474 18.3272 7.43472 18.4306 7.7694 18.6317C8.46389 19.0283 8.8905 19.7717 8.8905 20.5762C8.89624 21.375 8.46389 22.1185 7.7694 22.5207Z" fill="#646C9A"/>
<path d="M30.7551 18.3027H15.5876C15.3011 18.3027 15.0698 18.534 15.0698 18.8206C15.0698 19.1073 15.3011 19.3385 15.5876 19.3385H30.7551C31.0417 19.3385 31.273 19.1073 31.273 18.8206C31.273 18.534 31.0417 18.3027 30.7551 18.3027Z" fill="#646C9A"/>
<path d="M30.707 21.8138H15.5884C15.3018 21.8138 15.0706 22.0451 15.0706 22.3318C15.0706 22.6184 15.3018 22.8497 15.5884 22.8497H30.707C30.9936 22.8497 31.2249 22.6184 31.2249 22.3318C31.2249 22.0451 30.9936 21.8138 30.707 21.8138Z" fill="#646C9A"/>
</g>
<defs>
<clipPath id="clip0_201_907">
<rect width="39" height="28" fill="white"/>
</clipPath>
</defs>
</svg>
