<svg width="17" height="23" viewBox="0 0 17 23" fill="none" xmlns="http://www.w3.org/2000/svg">
<g clip-path="url(#clip0_88_1125)">
<path d="M6.67338 20.2935H6.6823C6.95803 20.2886 7.178 20.0631 7.17309 19.7898L6.92323 5.72745C6.91832 5.45414 6.69881 5.22639 6.41504 5.24098C6.13931 5.24585 5.91935 5.47139 5.92426 5.74514L6.17411 19.8075C6.17902 20.0777 6.40211 20.2939 6.67338 20.2939V20.2935ZM10.3275 20.2935C10.5992 20.2935 10.8219 20.0772 10.8272 19.807L11.0771 5.74469C11.082 5.47139 10.862 5.2454 10.5863 5.24054H10.5774C10.3057 5.24054 10.083 5.45679 10.0777 5.727L9.82781 19.7893C9.8229 20.0626 10.0429 20.2886 10.3186 20.2931H10.3275V20.2935ZM15.2363 5.24054C14.9481 5.23391 14.7299 5.44618 14.721 5.71993L14.2208 21.1249C14.2208 21.6127 13.821 22.0098 13.3294 22.0098H3.67288C3.18031 22.0098 2.78009 21.6127 2.77964 21.109L2.27993 5.71993C2.27101 5.45193 2.04926 5.24054 1.78067 5.24054C1.77531 5.24054 1.76996 5.24054 1.76461 5.24054C1.48887 5.24938 1.27248 5.47802 1.28096 5.75133L1.78067 21.1245C1.78067 22.1589 2.62928 23 3.67288 23H13.3294C14.3721 23 15.2202 22.1589 15.2198 21.1404L15.7195 5.75133C15.7284 5.47802 15.5116 5.24938 15.2358 5.24054H15.2363ZM16.5003 2.764H0.499711C0.223978 2.764 0 2.986 0 3.25931C0 3.53261 0.223978 3.75461 0.499711 3.75461H16.5003C16.776 3.75461 17 3.53261 17 3.25931C17 2.986 16.776 2.764 16.5003 2.764ZM4.61921 1.98123C4.89494 1.98123 5.11892 1.75923 5.11892 1.48593C5.11892 1.21262 5.3429 0.990617 5.61863 0.990617H11.3809C11.6567 0.990617 11.8806 1.21262 11.8806 1.48593C11.8806 1.75923 12.1046 1.98123 12.3803 1.98123C12.6561 1.98123 12.8801 1.75923 12.8801 1.48593C12.8801 0.666455 12.2077 0 11.3809 0H5.61818C4.79143 0 4.11905 0.666455 4.11905 1.48593C4.11905 1.75967 4.34303 1.98123 4.61876 1.98123H4.61921Z" fill="#646C9A"/>
</g>
<defs>
<clipPath id="clip0_88_1125">
<rect width="17" height="23" fill="white"/>
</clipPath>
</defs>
</svg>
