<svg width="41" height="41" viewBox="0 0 41 41" fill="none" xmlns="http://www.w3.org/2000/svg">
<g clip-path="url(#clip0_93_1635)">
<path d="M4.73089 12.3989C6.87914 12.3989 8.84714 12.3989 10.8151 12.3989C11.3145 12.3989 11.8169 12.3989 12.3163 12.3989C13.6105 12.4048 14.0479 12.9363 13.8174 14.2238C13.7169 14.7819 13.4362 15.1273 12.8186 15.1273C8.87078 15.1244 4.92592 15.1273 0.978096 15.1273C0.416655 15.1273 0.106385 14.832 0.0502406 14.2769C0.0295559 14.0732 0.00296127 13.8665 0.00296127 13.6627C6.31704e-06 10.0367 -0.00590359 6.41945 0.00887118 2.79928C0.0147811 1.565 0.206853 1.37011 1.24995 1.34649C2.49103 1.31696 2.66538 1.48823 2.66538 2.75204C2.66538 5.10249 2.66538 7.45294 2.85745 9.89788C3.04361 9.67051 3.25046 9.4579 3.41298 9.21577C6.47727 4.56802 10.7324 1.58567 16.1754 0.490171C23.811 -1.0453 30.374 1.01282 35.6988 6.77083C38.5858 9.89197 40.3145 13.5801 40.8316 17.7819C42.1554 28.5538 35.5511 37.4389 26.3937 40.0846C19.3756 42.1132 12.8777 40.7638 7.20123 36.0215C6.19064 35.18 6.19655 34.6721 7.16577 33.8394C7.76858 33.3227 8.30934 33.4083 8.88556 33.9162C10.5108 35.3542 12.3429 36.4526 14.3847 37.2027C21.4737 39.8041 29.5348 37.5363 34.3248 31.7015C42.0313 22.3145 38.3642 7.52676 25.8322 3.47548C17.9129 0.924236 9.35835 4.19597 5.07957 11.5958C4.96729 11.7877 4.89932 12.0062 4.73089 12.3989Z" fill="#646C9A"/>
<path d="M19.2397 15.4521C19.2397 13.3645 19.2338 11.2769 19.2397 9.1892C19.2426 8.1882 19.4997 7.95197 20.5074 7.95492C21.5002 7.95492 21.7514 8.20001 21.7544 9.20987C21.7603 12.8861 21.7721 16.5595 21.7425 20.2357C21.7366 20.8913 21.9257 21.3253 22.4694 21.7033C24.1567 22.8785 25.8174 24.0951 27.4781 25.3116C28.2759 25.8963 28.2818 26.3274 27.6258 27.2339C27.0969 27.9692 26.5443 27.7536 25.9652 27.3314C23.9233 25.8402 21.8962 24.3313 19.8336 22.8696C19.3608 22.536 19.219 22.1757 19.2249 21.6236C19.2545 19.5654 19.2367 17.5073 19.2367 15.4492L19.2397 15.4521Z" fill="#646C9A"/>
</g>
<defs>
<clipPath id="clip0_93_1635">
<rect width="41" height="41" fill="white"/>
</clipPath>
</defs>
</svg>
