<svg width="38" height="33" viewBox="0 0 38 33" fill="none" xmlns="http://www.w3.org/2000/svg">
<path d="M20.1005 32.8307C15.8387 32.8307 11.5743 32.8486 7.31254 32.8256C3.95359 32.8051 1.33015 31.031 0.350344 28.1187C0.132609 27.4752 0.0210866 26.7702 0.0184313 26.0908C-0.00546643 19.8816 -0.00281113 13.6724 0.00781007 7.46321C0.0131207 4.03816 2.69497 1.17198 6.20793 0.818189C6.97001 0.743843 7.74004 0.700261 8.50477 0.697697C15.3103 0.690006 22.1132 0.682315 28.9161 0.707952C29.6675 0.710515 30.4853 0.777171 31.1598 1.05917C32.6441 1.68215 33.3159 2.8922 33.2309 4.45091C33.1991 5.0508 33.3478 5.33793 34.0434 5.32512C34.5904 5.31486 35.1613 5.39177 35.6844 5.54816C37.0466 5.96091 37.9839 7.2171 37.9866 8.63225C37.9998 15.2491 38.0078 21.8685 37.9839 28.4853C37.9733 30.8746 35.9898 32.7794 33.4433 32.8051C28.9957 32.8512 24.5481 32.8179 20.1005 32.8179C20.1005 32.823 20.1005 32.8256 20.1005 32.8307ZM19.9704 30.6183C24.2852 30.6183 28.6001 30.6183 32.9149 30.6183C34.8161 30.6183 35.7508 29.7235 35.7508 27.911C35.7508 21.7018 35.7508 15.4952 35.7508 9.28598C35.7508 7.82213 35.4614 7.54525 33.9452 7.54525C25.6315 7.54525 17.3204 7.54525 9.00662 7.54269C8.66409 7.54269 8.31624 7.535 7.98433 7.46834C7.39751 7.34785 7.17446 6.92484 7.18509 6.38647C7.19571 5.83529 7.47186 5.46099 8.07461 5.3969C8.54725 5.34819 9.02255 5.29948 9.49785 5.29948C16.2476 5.29435 23.0001 5.29435 29.7498 5.29435C30.9925 5.29435 31.1571 5.10208 30.9367 3.90997C30.8093 3.21522 30.3898 2.94603 29.3887 2.94603C21.9751 2.94603 14.5642 2.94091 7.15057 2.94603C4.35985 2.94603 2.24888 5.00722 2.24623 7.71189C2.24357 13.7673 2.24357 19.8227 2.24623 25.878C2.24623 28.5622 4.38374 30.6131 7.17978 30.6157C11.4415 30.6208 15.7033 30.6157 19.9677 30.6157L19.9704 30.6183Z" fill="#646C9A"/>
<path d="M30.8278 19.0918C30.8065 20.3454 29.763 21.3504 28.5071 21.3299C27.2405 21.3068 26.2262 20.2865 26.2315 19.0354C26.2394 17.8664 27.3122 16.8255 28.523 16.8178C29.763 16.8076 30.8464 17.8792 30.8278 19.0918Z" fill="#646C9A"/>
</svg>
