<svg width="229" height="59" viewBox="0 0 229 59" fill="none" xmlns="http://www.w3.org/2000/svg">
<rect x="0.5" y="0.5" width="228" height="58" rx="9.5" fill="#F4F0F0" stroke="#9D9D9D" stroke-dasharray="6 6"/>
<g opacity="0.5">
<g clip-path="url(#clip0_325_236)">
<path d="M135.394 13H97.6491C96.0569 13 94.7669 14.298 94.7669 15.8822V17.7678H92.8813C91.2971 17.7749 90 19.0649 90 20.6562V44.7727C90 46.3569 91.2971 47.654 92.8813 47.654H130.627C132.212 47.654 133.509 46.364 133.509 44.7727V42.8791H135.394C136.978 42.8791 138.276 41.5891 138.276 39.9978V15.8813C138.276 14.2971 136.986 13 135.393 13H135.394ZM92.8813 19.0578H130.627C131.51 19.0578 132.219 19.7743 132.219 20.6491V23.3269H91.2829V20.6562C91.2829 19.7734 91.9994 19.0569 92.8822 19.0569L92.8813 19.0578ZM91.282 24.6168H132.22V29.8594H91.2829V24.6168H91.282ZM132.226 44.7718C132.226 45.6546 131.509 46.3631 130.634 46.3631H92.8822C91.9994 46.3631 91.2829 45.6466 91.2829 44.7718V31.1413H132.22V44.7718H132.227H132.226ZM136.993 40.0049C136.993 40.8877 136.276 41.5962 135.401 41.5962H133.516V20.6491C133.516 19.0578 132.226 17.7678 130.634 17.7678H96.0498V15.8822C96.0498 14.9994 96.7663 14.2829 97.6491 14.2829H135.394C136.277 14.2829 136.986 14.9994 136.986 15.8822V40.004H136.994L136.993 40.0049Z" fill="#646C9A"/>
<path d="M100.266 34.9508C99.6556 34.589 98.9462 34.3996 98.2296 34.3996C95.9893 34.3996 94.1713 36.2256 94.1713 38.4651C94.1713 40.7045 95.9893 42.5306 98.2296 42.5306C98.9462 42.5306 99.6556 42.3421 100.258 41.9794C101.511 41.2557 102.295 39.9124 102.295 38.4642C102.295 37.016 101.518 35.6656 100.266 34.949V34.9508ZM99.6174 40.8726C99.2022 41.1135 98.7275 41.2495 98.2296 41.2495C96.6987 41.2495 95.4541 40.0049 95.4541 38.466C95.4541 36.9271 96.6987 35.6825 98.2296 35.6825C98.7204 35.6825 99.2031 35.8105 99.6174 36.0594C100.477 36.5501 101.005 37.4703 101.005 38.466C101.012 39.4546 100.477 40.3747 99.6174 40.8726Z" fill="#646C9A"/>
<path d="M128.07 35.6522H109.295C108.941 35.6522 108.654 35.9385 108.654 36.2932C108.654 36.6479 108.941 36.9342 109.295 36.9342H128.07C128.425 36.9342 128.711 36.6479 128.711 36.2932C128.711 35.9385 128.425 35.6522 128.07 35.6522Z" fill="#646C9A"/>
<path d="M128.011 39.9977H109.296C108.941 39.9977 108.655 40.284 108.655 40.6387C108.655 40.9934 108.941 41.2797 109.296 41.2797H128.011C128.366 41.2797 128.652 40.9934 128.652 40.6387C128.652 40.284 128.366 39.9977 128.011 39.9977Z" fill="#646C9A"/>
</g>
</g>
<defs>
<clipPath id="clip0_325_236">
<rect width="48.2765" height="34.654" fill="white" transform="translate(90 13)"/>
</clipPath>
</defs>
</svg>
