<svg width="49" height="35" viewBox="0 0 49 35" fill="none" xmlns="http://www.w3.org/2000/svg">
<g clip-path="url(#clip0_89_1254)">
<path d="M45.3943 0H7.64913C6.05689 0 4.76693 1.29797 4.76693 2.8822V4.76782H2.88131C1.29708 4.77493 0 6.0649 0 7.65624V31.7727C0 33.3569 1.29708 34.654 2.88131 34.654H40.6273C42.2116 34.654 43.5086 33.364 43.5086 31.7727V29.8791H45.3943C46.9785 29.8791 48.2756 28.5891 48.2756 26.9978V2.88131C48.2756 1.29708 46.9856 0 45.3934 0H45.3943ZM2.88131 6.05778H40.6273C41.5101 6.05778 42.2187 6.77433 42.2187 7.64913V10.3269H1.28286V7.65624C1.28286 6.77345 1.99941 6.05689 2.8822 6.05689L2.88131 6.05778ZM1.28197 11.6168H42.2196V16.8594H1.28286V11.6168H1.28197ZM42.2258 31.7718C42.2258 32.6546 41.5092 33.3631 40.6344 33.3631H2.8822C1.99941 33.3631 1.28286 32.6466 1.28286 31.7718V18.1413H42.2196V31.7718H42.2267H42.2258ZM46.9927 27.0049C46.9927 27.8877 46.2762 28.5962 45.4014 28.5962H43.5158V7.64913C43.5158 6.05778 42.2258 4.76782 40.6344 4.76782H6.04978V2.8822C6.04978 1.99941 6.76633 1.28286 7.64913 1.28286H45.3943C46.2771 1.28286 46.9856 1.99941 46.9856 2.8822V27.004H46.9936L46.9927 27.0049Z" fill="#646C9A"/>
<path d="M10.2664 21.9509C9.65566 21.589 8.94622 21.3997 8.22967 21.3997C5.98934 21.3997 4.1713 23.2257 4.1713 25.4651C4.1713 27.7046 5.98934 29.5306 8.22967 29.5306C8.94622 29.5306 9.65566 29.3422 10.2584 28.9794C11.511 28.2558 12.2952 26.9125 12.2952 25.4643C12.2952 24.016 11.5182 22.6656 10.2664 21.9491V21.9509ZM9.61743 27.8726C9.20226 28.1135 8.72752 28.2496 8.22967 28.2496C6.69878 28.2496 5.45415 27.0049 5.45415 25.466C5.45415 23.9271 6.69878 22.6825 8.22967 22.6825C8.72041 22.6825 9.20315 22.8105 9.61743 23.0595C10.4771 23.5502 11.0052 24.4703 11.0052 25.466C11.0123 26.4546 10.4771 27.3748 9.61743 27.8726Z" fill="#646C9A"/>
<path d="M38.0705 22.6522H19.2953C18.9406 22.6522 18.6543 22.9385 18.6543 23.2932C18.6543 23.6479 18.9406 23.9342 19.2953 23.9342H38.0705C38.4252 23.9342 38.7115 23.6479 38.7115 23.2932C38.7115 22.9385 38.4252 22.6522 38.0705 22.6522Z" fill="#646C9A"/>
<path d="M38.011 26.9978H19.2962C18.9415 26.9978 18.6552 27.2841 18.6552 27.6388C18.6552 27.9935 18.9415 28.2798 19.2962 28.2798H38.011C38.3657 28.2798 38.6519 27.9935 38.6519 27.6388C38.6519 27.2841 38.3657 26.9978 38.011 26.9978Z" fill="#646C9A"/>
</g>
<defs>
<clipPath id="clip0_89_1254">
<rect width="48.2765" height="34.654" fill="white"/>
</clipPath>
</defs>
</svg>
