<svg width="109" height="76" viewBox="0 0 109 76" fill="none" xmlns="http://www.w3.org/2000/svg">
<path d="M4.8 73.108C3.936 73.108 3.2 72.932 2.592 72.58C1.984 72.228 1.516 71.728 1.188 71.08C0.868 70.424 0.708 69.652 0.708 68.764C0.708 67.876 0.868 67.108 1.188 66.46C1.516 65.812 1.984 65.312 2.592 64.96C3.2 64.608 3.936 64.432 4.8 64.432C5.4 64.432 5.936 64.52 6.408 64.696C6.88 64.872 7.292 65.128 7.644 65.464L7.212 66.46C6.828 66.132 6.452 65.896 6.084 65.752C5.724 65.608 5.304 65.536 4.824 65.536C3.912 65.536 3.216 65.816 2.736 66.376C2.256 66.936 2.016 67.732 2.016 68.764C2.016 69.796 2.256 70.596 2.736 71.164C3.216 71.724 3.912 72.004 4.824 72.004C5.304 72.004 5.724 71.932 6.084 71.788C6.452 71.644 6.828 71.404 7.212 71.068L7.644 72.064C7.292 72.4 6.88 72.66 6.408 72.844C5.936 73.02 5.4 73.108 4.8 73.108ZM9.21084 73V64.54H12.7868C13.6908 64.54 14.3908 64.756 14.8868 65.188C15.3828 65.612 15.6308 66.208 15.6308 66.976C15.6308 67.48 15.5188 67.912 15.2948 68.272C15.0708 68.632 14.7548 68.908 14.3468 69.1C13.9388 69.284 13.4588 69.376 12.9068 69.376L13.0988 69.184H13.4228C13.7508 69.184 14.0428 69.268 14.2988 69.436C14.5628 69.604 14.7788 69.872 14.9468 70.24L16.1588 73H14.7908L13.5908 70.228C13.4708 69.9 13.2828 69.688 13.0268 69.592C12.7788 69.496 12.4708 69.448 12.1028 69.448H10.4588V73H9.21084ZM10.4588 68.5H12.5828C13.1828 68.5 13.6348 68.372 13.9388 68.116C14.2508 67.86 14.4068 67.492 14.4068 67.012C14.4068 66.524 14.2508 66.156 13.9388 65.908C13.6348 65.66 13.1828 65.536 12.5828 65.536H10.4588V68.5ZM17.578 73V64.54H23.122V65.536H18.79V68.2H22.846V69.208H18.79V71.992H23.122V73H17.578ZM20.098 63.82L21.514 61.744H22.822L20.986 63.82H20.098ZM24.6679 73V64.54H27.5959C28.5479 64.54 29.3519 64.704 30.0079 65.032C30.6719 65.36 31.1719 65.84 31.5079 66.472C31.8519 67.096 32.0239 67.86 32.0239 68.764C32.0239 69.66 31.8519 70.424 31.5079 71.056C31.1719 71.688 30.6719 72.172 30.0079 72.508C29.3519 72.836 28.5479 73 27.5959 73H24.6679ZM25.9159 71.956H27.5239C28.6119 71.956 29.4199 71.692 29.9479 71.164C30.4839 70.636 30.7519 69.836 30.7519 68.764C30.7519 67.692 30.4839 66.896 29.9479 66.376C29.4199 65.848 28.6119 65.584 27.5239 65.584H25.9159V71.956ZM33.7148 73V64.54H34.9628V73H33.7148ZM38.9771 73V65.584H36.0851V64.54H43.1171V65.584H40.2251V73H38.9771ZM43.4697 68.764C43.4697 67.876 43.6257 67.108 43.9377 66.46C44.2497 65.812 44.7017 65.312 45.2937 64.96C45.8937 64.608 46.6057 64.432 47.4297 64.432C48.2457 64.432 48.9497 64.608 49.5417 64.96C50.1337 65.312 50.5897 65.812 50.9097 66.46C51.2377 67.108 51.4017 67.872 51.4017 68.752C51.4017 69.64 51.2377 70.412 50.9097 71.068C50.5897 71.716 50.1297 72.22 49.5297 72.58C48.9377 72.932 48.2377 73.108 47.4297 73.108C46.6057 73.108 45.8977 72.932 45.3057 72.58C44.7137 72.22 44.2577 71.716 43.9377 71.068C43.6257 70.412 43.4697 69.644 43.4697 68.764ZM44.7777 68.764C44.7777 69.788 45.0017 70.588 45.4497 71.164C45.8977 71.74 46.5577 72.028 47.4297 72.028C48.2777 72.028 48.9337 71.744 49.3977 71.176C49.8617 70.6 50.0937 69.796 50.0937 68.764C50.0937 67.732 49.8617 66.932 49.3977 66.364C48.9417 65.796 48.2857 65.512 47.4297 65.512C46.5577 65.512 45.8977 65.796 45.4497 66.364C45.0017 66.932 44.7777 67.732 44.7777 68.764ZM58.3845 73V69.028L58.6605 69.82L55.0965 64.54H56.5365L59.1885 68.584H58.8885L61.5405 64.54H62.9325L59.3805 69.82L59.6325 69.028V73H58.3845ZM66.914 73V64.54H70.442C71.354 64.54 72.054 64.732 72.542 65.116C73.038 65.5 73.286 66.04 73.286 66.736C73.286 67.256 73.13 67.692 72.818 68.044C72.506 68.396 72.078 68.632 71.534 68.752V68.572C72.158 68.652 72.642 68.872 72.986 69.232C73.33 69.592 73.502 70.068 73.502 70.66C73.502 71.412 73.246 71.992 72.734 72.4C72.23 72.8 71.518 73 70.598 73H66.914ZM68.126 72.028H70.466C71.034 72.028 71.478 71.92 71.798 71.704C72.126 71.488 72.29 71.124 72.29 70.612C72.29 70.1 72.126 69.736 71.798 69.52C71.478 69.304 71.034 69.196 70.466 69.196H68.126V72.028ZM68.126 68.236H70.25C70.858 68.236 71.314 68.12 71.618 67.888C71.922 67.656 72.074 67.316 72.074 66.868C72.074 66.42 71.922 66.08 71.618 65.848C71.314 65.616 70.858 65.5 70.25 65.5H68.126V68.236ZM75.1288 73V64.54H80.6728V65.536H76.3408V68.2H80.3968V69.208H76.3408V71.992H80.6728V73H75.1288ZM77.6488 63.82L79.0648 61.744H80.3728L78.5368 63.82H77.6488ZM82.2187 73V64.54H85.7467C86.6587 64.54 87.3587 64.732 87.8467 65.116C88.3427 65.5 88.5907 66.04 88.5907 66.736C88.5907 67.256 88.4347 67.692 88.1227 68.044C87.8107 68.396 87.3827 68.632 86.8387 68.752V68.572C87.4627 68.652 87.9467 68.872 88.2907 69.232C88.6347 69.592 88.8067 70.068 88.8067 70.66C88.8067 71.412 88.5507 71.992 88.0387 72.4C87.5347 72.8 86.8227 73 85.9027 73H82.2187ZM83.4307 72.028H85.7707C86.3387 72.028 86.7827 71.92 87.1027 71.704C87.4307 71.488 87.5947 71.124 87.5947 70.612C87.5947 70.1 87.4307 69.736 87.1027 69.52C86.7827 69.304 86.3387 69.196 85.7707 69.196H83.4307V72.028ZM83.4307 68.236H85.5547C86.1627 68.236 86.6187 68.12 86.9227 67.888C87.2267 67.656 87.3787 67.316 87.3787 66.868C87.3787 66.42 87.2267 66.08 86.9227 65.848C86.6187 65.616 86.1627 65.5 85.5547 65.5H83.4307V68.236ZM90.4335 73V64.54H91.6815V73H90.4335ZM95.6959 73V65.584H92.8039V64.54H99.8359V65.584H96.9439V73H95.6959ZM100.188 68.764C100.188 67.876 100.344 67.108 100.656 66.46C100.968 65.812 101.42 65.312 102.012 64.96C102.612 64.608 103.324 64.432 104.148 64.432C104.964 64.432 105.668 64.608 106.26 64.96C106.852 65.312 107.308 65.812 107.628 66.46C107.956 67.108 108.12 67.872 108.12 68.752C108.12 69.64 107.956 70.412 107.628 71.068C107.308 71.716 106.848 72.22 106.248 72.58C105.656 72.932 104.956 73.108 104.148 73.108C103.324 73.108 102.616 72.932 102.024 72.58C101.432 72.22 100.976 71.716 100.656 71.068C100.344 70.412 100.188 69.644 100.188 68.764ZM101.496 68.764C101.496 69.788 101.72 70.588 102.168 71.164C102.616 71.74 103.276 72.028 104.148 72.028C104.996 72.028 105.652 71.744 106.116 71.176C106.58 70.6 106.812 69.796 106.812 68.764C106.812 67.732 106.58 66.932 106.116 66.364C105.66 65.796 105.004 65.512 104.148 65.512C103.276 65.512 102.616 65.796 102.168 66.364C101.72 66.932 101.496 67.732 101.496 68.764Z" fill="#646C9A"/>
<g clip-path="url(#clip0_465_236)">
<path d="M83.1194 0H32.2989C30.1551 0 28.4182 1.7476 28.4182 3.88063V6.41944H25.8794C23.7464 6.42902 22 8.16585 22 10.3085V42.7791C22 44.9122 23.7464 46.6586 25.8794 46.6586H76.7011C78.8341 46.6586 80.5805 44.9217 80.5805 42.7791V40.2295H83.1194C85.2524 40.2295 86.9988 38.4927 86.9988 36.3501V3.87944C86.9988 1.7464 85.262 0 83.1182 0H83.1194ZM25.8794 8.15627H76.7011C77.8897 8.15627 78.8437 9.12104 78.8437 10.2989V13.9042H23.7273V10.3085C23.7273 9.11985 24.692 8.15507 25.8806 8.15507L25.8794 8.15627ZM23.7261 15.641H78.8449V22.6997H23.7273V15.641H23.7261ZM78.8533 42.7779C78.8533 43.9665 77.8885 44.9205 76.7107 44.9205H25.8806C24.692 44.9205 23.7273 43.9558 23.7273 42.7779V24.4257H78.8449V42.7779H78.8545H78.8533ZM85.2715 36.3597C85.2715 37.5483 84.3068 38.5023 83.1289 38.5023H80.5901V10.2989C80.5901 8.15627 78.8533 6.41944 76.7107 6.41944H30.1455V3.88063C30.1455 2.69202 31.1103 1.72725 32.2989 1.72725H83.1194C84.308 1.72725 85.262 2.69202 85.262 3.88063V36.3585H85.2727L85.2715 36.3597Z" fill="#646C9A"/>
<path d="M35.8228 29.5548C35.0004 29.0676 34.0452 28.8127 33.0805 28.8127C30.064 28.8127 27.6162 31.2713 27.6162 34.2865C27.6162 37.3017 30.064 39.7603 33.0805 39.7603C34.0452 39.7603 35.0004 39.5066 35.812 39.0182C37.4985 38.0438 38.5543 36.2352 38.5543 34.2853C38.5543 32.3354 37.5081 30.5172 35.8228 29.5524V29.5548ZM34.949 37.5279C34.39 37.8523 33.7508 38.0355 33.0805 38.0355C31.0192 38.0355 29.3435 36.3597 29.3435 34.2877C29.3435 32.2157 31.0192 30.5399 33.0805 30.5399C33.7412 30.5399 34.3912 30.7123 34.949 31.0475C36.1064 31.7082 36.8175 32.9471 36.8175 34.2877C36.827 35.6188 36.1064 36.8576 34.949 37.5279Z" fill="#646C9A"/>
<path d="M73.2584 30.4992H47.9792C47.5016 30.4992 47.1162 30.8846 47.1162 31.3622C47.1162 31.8398 47.5016 32.2253 47.9792 32.2253H73.2584C73.736 32.2253 74.1214 31.8398 74.1214 31.3622C74.1214 30.8846 73.736 30.4992 73.2584 30.4992Z" fill="#646C9A"/>
<path d="M73.1785 36.3501H47.9807C47.5031 36.3501 47.1177 36.7355 47.1177 37.2131C47.1177 37.6907 47.5031 38.0762 47.9807 38.0762H73.1785C73.6561 38.0762 74.0415 37.6907 74.0415 37.2131C74.0415 36.7355 73.6561 36.3501 73.1785 36.3501Z" fill="#646C9A"/>
</g>
<defs>
<clipPath id="clip0_465_236">
<rect width="65" height="46.6586" fill="white" transform="translate(22)"/>
</clipPath>
</defs>
</svg>
