<svg width="120" height="120" viewBox="0 0 120 120" fill="none" xmlns="http://www.w3.org/2000/svg">
<g clip-path="url(#clip0_369_229)">
<path d="M93.356 31H32.3608C29.7878 31 27.7032 33.0975 27.7032 35.6576V38.7047H24.6561C22.096 38.7162 20 40.8007 20 43.3723V82.3439C20 84.904 22.096 87 24.6561 87H85.6527C88.2128 87 90.3089 84.9154 90.3089 82.3439V79.2838H93.356C95.9161 79.2838 98.0121 77.1993 98.0121 74.6277V35.6561C98.0121 33.096 95.9276 31 93.3545 31H93.356ZM24.6561 40.7892H85.6527C87.0793 40.7892 88.2243 41.9472 88.2243 43.3608V47.6879H22.0731V43.3723C22.0731 41.9457 23.231 40.7878 24.6576 40.7878L24.6561 40.7892ZM22.0716 49.7725H88.2258V58.2443H22.0731V49.7725H22.0716ZM88.2358 82.3424C88.2358 83.769 87.0779 84.914 85.6642 84.914H24.6576C23.231 84.914 22.0731 83.7561 22.0731 82.3424V60.316H88.2258V82.3424H88.2372H88.2358ZM95.939 74.6392C95.939 76.0658 94.7811 77.2108 93.3675 77.2108H90.3204V43.3608C90.3204 40.7892 88.2358 38.7047 85.6642 38.7047H29.7763V35.6576C29.7763 34.231 30.9342 33.0731 32.3608 33.0731H93.356C94.7825 33.0731 95.9276 34.231 95.9276 35.6576V74.6378H95.9405L95.939 74.6392Z" fill="#646C9A"/>
<path d="M36.5903 66.472C35.6033 65.8872 34.4569 65.5812 33.299 65.5812C29.6786 65.5812 26.7407 68.5321 26.7407 72.151C26.7407 75.7698 29.6786 78.7207 33.299 78.7207C34.4569 78.7207 35.6033 78.4161 36.5774 77.83C38.6016 76.6606 39.8687 74.4898 39.8687 72.1495C39.8687 69.8093 38.6131 67.627 36.5903 66.4691V66.472ZM35.5415 76.0414C34.8706 76.4307 34.1035 76.6505 33.299 76.6505C30.8251 76.6505 28.8138 74.6392 28.8138 72.1524C28.8138 69.6656 30.8251 67.6543 33.299 67.6543C34.092 67.6543 34.8721 67.8612 35.5415 68.2634C36.9308 69.0565 37.7841 70.5434 37.7841 72.1524C37.7956 73.7499 36.9308 75.2369 35.5415 76.0414Z" fill="#646C9A"/>
<path d="M81.5209 67.6054H51.1806C50.6074 67.6054 50.1448 68.068 50.1448 68.6413C50.1448 69.2145 50.6074 69.6771 51.1806 69.6771H81.5209C82.0941 69.6771 82.5567 69.2145 82.5567 68.6413C82.5567 68.068 82.0941 67.6054 81.5209 67.6054Z" fill="#646C9A"/>
<path d="M81.4246 74.6277H51.1821C50.6088 74.6277 50.1462 75.0903 50.1462 75.6635C50.1462 76.2367 50.6088 76.6993 51.1821 76.6993H81.4246C81.9979 76.6993 82.4605 76.2367 82.4605 75.6635C82.4605 75.0903 81.9979 74.6277 81.4246 74.6277Z" fill="#646C9A"/>
</g>
<circle cx="60" cy="60" r="59" stroke="#646C9A" stroke-width="2"/>
<line x1="90.2402" y1="9.84381" x2="24.2402" y2="106.844" stroke="#646C9A" stroke-width="3"/>
<defs>
<clipPath id="clip0_369_229">
<rect width="78.0135" height="56" fill="white" transform="translate(20 31)"/>
</clipPath>
</defs>
</svg>
