<svg width="88" height="79" viewBox="0 0 88 79" fill="none" xmlns="http://www.w3.org/2000/svg">
<path d="M5.72352 73V62.425H10.1335C11.2735 62.425 12.1485 62.665 12.7585 63.145C13.3785 63.625 13.6885 64.3 13.6885 65.17C13.6885 65.82 13.4935 66.365 13.1035 66.805C12.7135 67.245 12.1785 67.54 11.4985 67.69V67.465C12.2785 67.565 12.8835 67.84 13.3135 68.29C13.7435 68.74 13.9585 69.335 13.9585 70.075C13.9585 71.015 13.6385 71.74 12.9985 72.25C12.3685 72.75 11.4785 73 10.3285 73H5.72352ZM7.23852 71.785H10.1635C10.8735 71.785 11.4285 71.65 11.8285 71.38C12.2385 71.11 12.4435 70.655 12.4435 70.015C12.4435 69.375 12.2385 68.92 11.8285 68.65C11.4285 68.38 10.8735 68.245 10.1635 68.245H7.23852V71.785ZM7.23852 67.045H9.89352C10.6535 67.045 11.2235 66.9 11.6035 66.61C11.9835 66.32 12.1735 65.895 12.1735 65.335C12.1735 64.775 11.9835 64.35 11.6035 64.06C11.2235 63.77 10.6535 63.625 9.89352 63.625H7.23852V67.045ZM15.9921 73V62.425H17.5521V73H15.9921ZM20.035 73V62.425H21.595V71.665H26.785V73H20.035ZM28.3114 73V62.425H29.8714V71.665H35.0614V73H28.3114ZM36.5878 73V62.425H43.5178V63.67H38.1028V67H43.1728V68.26H38.1028V71.74H43.5178V73H36.5878ZM47.8532 73V63.73H44.2382V62.425H53.0282V63.73H49.4132V73H47.8532ZM54.4882 73V62.425H61.4182V63.67H56.0032V67H61.0732V68.26H56.0032V71.74H61.4182V73H54.4882ZM63.3505 73V62.425H67.8205C68.9505 62.425 69.8255 62.695 70.4455 63.235C71.0655 63.765 71.3755 64.51 71.3755 65.47C71.3755 66.1 71.2355 66.64 70.9555 67.09C70.6755 67.54 70.2805 67.885 69.7705 68.125C69.2605 68.355 68.6605 68.47 67.9705 68.47L68.2105 68.23H68.6155C69.0255 68.23 69.3905 68.335 69.7105 68.545C70.0405 68.755 70.3105 69.09 70.5205 69.55L72.0355 73H70.3255L68.8255 69.535C68.6755 69.125 68.4405 68.86 68.1205 68.74C67.8105 68.62 67.4255 68.56 66.9655 68.56H64.9105V73H63.3505ZM64.9105 67.375H67.5655C68.3155 67.375 68.8805 67.215 69.2605 66.895C69.6505 66.575 69.8455 66.115 69.8455 65.515C69.8455 64.905 69.6505 64.445 69.2605 64.135C68.8805 63.825 68.3155 63.67 67.5655 63.67H64.9105V67.375ZM72.5387 73L77.2487 62.425H78.5837L83.3687 73H81.7637L80.4587 70L81.1187 70.42H74.7137L75.4187 70L74.1137 73H72.5387ZM77.8937 64.135L75.6137 69.52L75.2537 69.175H80.5787L80.2787 69.52L77.9537 64.135H77.8937Z" fill="#646C9A"/>
<path d="M45.6513 47.9148C39.2585 47.9148 32.8618 47.9416 26.469 47.9072C21.4305 47.8766 17.4953 45.2318 16.0255 40.8902C15.6989 39.9309 15.5316 38.8798 15.5276 37.867C15.4918 28.6104 15.4958 19.3537 15.5117 10.097C15.5197 4.99096 19.5425 0.718069 24.8121 0.190646C25.9552 0.0798103 27.1103 0.0148378 28.2574 0.0110159C38.4659 -0.000449812 48.6704 -0.0119155 58.875 0.0263036C60.0021 0.0301255 61.2289 0.129495 62.2406 0.549905C64.4671 1.47863 65.4748 3.28257 65.3474 5.60629C65.2996 6.50062 65.5226 6.92867 66.5662 6.90956C67.3867 6.89427 68.243 7.00893 69.0277 7.24207C71.071 7.8574 72.477 9.73013 72.481 11.8398C72.5009 21.7042 72.5128 31.5723 72.477 41.4367C72.4611 44.9987 69.4857 47.8384 65.666 47.8766C58.9944 47.9454 52.3229 47.8957 45.6513 47.8957C45.6513 47.9034 45.6513 47.9072 45.6513 47.9148V47.9148ZM45.4561 44.6165C51.9285 44.6165 58.401 44.6165 64.8734 44.6165C67.7252 44.6165 69.1273 43.2827 69.1273 40.5806C69.1273 31.3239 69.1273 22.0711 69.1273 12.8144C69.1273 10.6321 68.6931 10.2193 66.4188 10.2193C53.9479 10.2193 41.4811 10.2193 29.0102 10.2155C28.4964 10.2155 27.9746 10.204 27.4767 10.1047C26.5965 9.92505 26.2619 9.29443 26.2778 8.49183C26.2938 7.67012 26.708 7.11212 27.6122 7.01658C28.3211 6.94396 29.0341 6.87134 29.7471 6.87134C39.8719 6.8637 50.0008 6.8637 60.1256 6.8637C61.9897 6.8637 62.2366 6.57706 61.906 4.79987C61.7149 3.76413 61.0855 3.36283 59.5839 3.36283C48.4633 3.36283 37.3467 3.35519 26.2261 3.36283C22.0399 3.36283 18.8734 6.43565 18.8694 10.4678C18.8654 19.4951 18.8654 28.5225 18.8694 37.5498C18.8694 41.5514 22.0757 44.6089 26.2699 44.6127C32.6626 44.6203 39.0554 44.6127 45.4521 44.6127L45.4561 44.6165Z" fill="#646C9A"/>
<path d="M61.7428 27.4329C61.7109 29.3018 60.1456 30.8 58.2616 30.7695C56.3617 30.7351 54.8402 29.2139 54.8482 27.3488C54.8601 25.6061 56.4693 24.0544 58.2855 24.0429C60.1456 24.0276 61.7707 25.6252 61.7428 27.4329Z" fill="#646C9A"/>
</svg>
