<svg width="19" height="17" viewBox="0 0 19 17" fill="none" xmlns="http://www.w3.org/2000/svg">
<path d="M2 15H8.0625L8.03125 15.1562C7.96875 15.4375 7.96875 15.75 8.0625 16H2C0.875 16 0 15.125 0 14V2C0 0.90625 0.875 0 2 0H6.875C7.25 0 7.65625 0.1875 7.9375 0.46875L11.5312 4.0625C11.8125 4.34375 12 4.75 12 5.125V9.375L11 10.375V6H7.5C6.65625 6 6 5.34375 6 4.5V1H2C1.4375 1 1 1.46875 1 2V14C1 14.5625 1.4375 15 2 15ZM10.8438 4.78125L7.21875 1.15625C7.15625 1.09375 7.0625 1.0625 7 1.03125V4.5C7 4.78125 7.21875 5 7.5 5H10.9688C10.9375 4.9375 10.9062 4.84375 10.8438 4.78125ZM14.7812 7.5625C15.375 6.96875 16.3125 6.96875 16.9062 7.5625L17.4375 8.09375C18.0312 8.6875 18.0312 9.625 17.4375 10.2188L12.625 15.0312C12.4375 15.2188 12.2188 15.3438 11.9375 15.4062L9.59375 16C9.4375 16.0312 9.25 16 9.125 15.875C9 15.75 8.96875 15.5625 9 15.375L9.59375 13.0625C9.65625 12.7812 9.78125 12.5312 9.96875 12.3438L14.7812 7.5625ZM16.1875 8.25C16 8.0625 15.6875 8.0625 15.4688 8.25L14.7188 9.03125L15.9688 10.2812L16.7188 9.5C16.9375 9.3125 16.9375 9 16.7188 8.8125L16.1875 8.25ZM10.5625 13.2812L10.1562 14.8125L11.6875 14.4375C11.7812 14.4062 11.875 14.375 11.9375 14.3125L15.25 11L14 9.75L10.6875 13.0625C10.625 13.125 10.5625 13.2188 10.5625 13.2812Z" fill="white"/>
</svg>
