<svg width="18" height="16" viewBox="0 0 18 16" fill="none" xmlns="http://www.w3.org/2000/svg">
<path d="M3.5 0C3.75 0 4 0.25 4 0.5V2H10V0.5C10 0.25 10.2188 0 10.5 0C10.75 0 11 0.25 11 0.5V2H12C13.0938 2 14 2.90625 14 4V6.03125C13.8125 6.03125 13.6562 6 13.5 6C13.3125 6 13.1562 6.03125 13 6.03125V6H1V14C1 14.5625 1.4375 15 2 15H9.25C9.5625 15.4062 9.90625 15.7188 10.3125 16H2C0.875 16 0 15.125 0 14V4C0 2.90625 0.875 2 2 2H3V0.5C3 0.25 3.21875 0 3.5 0ZM12 3H2C1.4375 3 1 3.46875 1 4V5H13V4C13 3.46875 12.5312 3 12 3ZM13.4688 9C13.75 9 13.9688 9.25 13.9688 9.5V11H15C15.25 11 15.5 11.25 15.5 11.5C15.5 11.7812 15.25 12 15 12H13.4688C13.2188 12 12.9688 11.7812 12.9688 11.5V9.5C12.9688 9.25 13.2188 9 13.4688 9ZM9 11.5C9 9.03125 11 7 13.5 7C15.9688 7 18 9.03125 18 11.5C18 14 15.9688 16 13.5 16C11 16 9 14 9 11.5ZM13.5 15C15.4062 15 17 13.4375 17 11.5C17 9.59375 15.4062 8 13.5 8C11.5625 8 10 9.59375 10 11.5C10 13.4375 11.5625 15 13.5 15Z" fill="white"/>
</svg>
