<svg width="12" height="12" viewBox="0 0 12 12" fill="none" xmlns="http://www.w3.org/2000/svg">
<path fill-rule="evenodd" clip-rule="evenodd" d="M8.68251 0.628828C5.71816 -0.846339 2.10579 0.363004 0.629367 3.32485C-0.847052 6.28669 0.363289 9.89598 3.32767 11.3712C6.05388 12.7278 9.32814 11.814 10.9851 9.35464C11.2169 9.01046 11.0279 8.55857 10.6336 8.42833C10.3216 8.32527 9.98461 8.46298 9.79252 8.72938C8.47994 10.5497 5.99733 11.2081 3.92341 10.1761C1.61896 9.02928 0.677736 6.22257 1.82548 3.92008C2.97323 1.61758 5.78233 0.677157 8.08677 1.82393C8.80491 2.1813 9.39065 2.69986 9.82205 3.31413C9.95611 3.50501 10.1607 3.63916 10.3931 3.66107C10.9349 3.71217 11.3284 3.1738 11.0314 2.71815C10.4674 1.85266 9.67284 1.12165 8.68251 0.628828Z" fill="#959595"/>
<path d="M10.6221 5.78664C10.5782 5.46124 10.7281 5.12971 11.0256 4.99019C11.4015 4.81389 11.8498 5.01212 11.9183 5.42132C12.0229 6.04647 12.0252 6.67111 11.9358 7.27557C11.8775 7.66949 11.4604 7.87897 11.0878 7.73769C10.7673 7.61616 10.5938 7.27457 10.633 6.93427C10.6764 6.55806 10.6741 6.17295 10.6221 5.78664Z" fill="#959595"/>
<path d="M6.29029 6.20729V3.37977H5.41413V6.67007L7.67195 8.2074L8.16537 7.48398L6.29029 6.20729Z" fill="#959595"/>
<path fill-rule="evenodd" clip-rule="evenodd" d="M5.41413 6.67007V3.37977H6.29029V6.20729L8.16537 7.48398L7.67195 8.2074L5.41413 6.67007ZM6.52034 6.08578V3.14992H5.18408V6.79158L7.7325 8.52678L8.48504 7.42348L6.52034 6.08578Z" fill="#959595"/>
</svg>
