<svg width="18" height="19" viewBox="0 0 18 19" fill="none" xmlns="http://www.w3.org/2000/svg">
<path fill-rule="evenodd" clip-rule="evenodd" d="M13.0238 0.944043C8.57724 -1.27059 3.15868 0.544968 0.94405 4.9915C-1.27058 9.43803 0.544934 14.8566 4.9915 17.0712C9.08082 19.1079 13.9922 17.736 16.4776 14.0439C16.8254 13.5272 16.5418 12.8487 15.9504 12.6532C15.4824 12.4985 14.9769 12.7052 14.6888 13.1052C12.7199 15.838 8.99599 16.8264 5.88511 15.277C2.42843 13.5554 1.0166 9.34178 2.73823 5.8851C4.45985 2.42843 8.67349 1.0166 12.1302 2.73822C13.2074 3.27473 14.086 4.05323 14.7331 4.97541C14.9342 5.26197 15.2411 5.46337 15.5896 5.49627C16.4023 5.57298 16.9926 4.76475 16.5472 4.08068C15.7011 2.78135 14.5093 1.68391 13.0238 0.944043Z" fill="#3BC1CD"/>
<path d="M15.9331 8.68732C15.8673 8.19881 16.0922 7.7011 16.5384 7.49164C17.1022 7.22696 17.7746 7.52456 17.8774 8.13889C18.0343 9.0774 18.0379 10.0152 17.9037 10.9226C17.8162 11.514 17.1906 11.8285 16.6317 11.6164C16.1509 11.4339 15.8907 10.9211 15.9496 10.4102C16.0146 9.84544 16.0112 9.26728 15.9331 8.68732Z" fill="#3BC1CD"/>
<path d="M9.43544 9.31884V5.07395H8.12119V10.0136L11.5079 12.3215L12.2481 11.2355L9.43544 9.31884Z" fill="#3BC1CD"/>
<path fill-rule="evenodd" clip-rule="evenodd" d="M8.12119 10.0136V5.07395H9.43544V9.31884L12.2481 11.2355L11.5079 12.3215L8.12119 10.0136ZM9.78052 9.13641V4.72888H7.77612V10.196L11.5988 12.801L12.7276 11.1447L9.78052 9.13641Z" fill="#3BC1CD"/>
</svg>
