<svg width="11" height="14" viewBox="0 0 11 14" fill="none" xmlns="http://www.w3.org/2000/svg">
<path d="M10.5323 2.67969L8.16324 0.382812C7.90635 0.136719 7.5353 0 7.19278 0H1.37005C0.599399 0 0 0.601562 0 1.3125V12.6875C0 13.4258 0.599399 14 1.37005 14H9.59038C10.3325 14 10.9604 13.4258 10.9604 12.6875V3.60938C10.9604 3.28125 10.7892 2.92578 10.5323 2.67969ZM9.90435 3.30859C9.96143 3.36328 9.98998 3.44531 10.0185 3.5H7.30695V0.902344C7.36404 0.929688 7.44967 0.957031 7.50675 1.01172L9.90435 3.30859ZM9.59038 13.125H1.37005C1.11317 13.125 0.913369 12.9336 0.913369 12.6875V1.3125C0.913369 1.09375 1.11317 0.875 1.37005 0.875H6.39359V3.71875C6.39359 4.10156 6.67901 4.375 7.07861 4.375H10.0471V12.6875C10.0471 12.9336 9.81872 13.125 9.59038 13.125Z" fill="#1B8FAF"/>
</svg>
