<?xml version="1.0" encoding="UTF-8" standalone="no"?>
<svg
   width="36"
   height="32"
   viewBox="0 0 36 32"
   fill="none"
   version="1.1"
   id="svg510"
   sodipodi:docname="icono-paciente-cronico-c.svg"
   inkscape:version="1.2.2 (732a01da63, 2022-12-09)"
   xmlns:inkscape="http://www.inkscape.org/namespaces/inkscape"
   xmlns:sodipodi="http://sodipodi.sourceforge.net/DTD/sodipodi-0.dtd"
   xmlns="http://www.w3.org/2000/svg"
   xmlns:svg="http://www.w3.org/2000/svg">
  <defs
     id="defs514" />
  <sodipodi:namedview
     id="namedview512"
     pagecolor="#ffffff"
     bordercolor="#111111"
     borderopacity="1"
     inkscape:showpageshadow="0"
     inkscape:pageopacity="0"
     inkscape:pagecheckerboard="1"
     inkscape:deskcolor="#d1d1d1"
     showgrid="false"
     inkscape:zoom="5.6737236"
     inkscape:cx="10.575066"
     inkscape:cy="39.215869"
     inkscape:window-width="1920"
     inkscape:window-height="991"
     inkscape:window-x="-9"
     inkscape:window-y="-9"
     inkscape:window-maximized="1"
     inkscape:current-layer="svg510" />
  <path
     d="M 0,4 C 0,1.8125 1.75,0 4,0 h 12 c 2.187,0 4,1.8125 4,4 v 17 c 0,0.5625 -0.5,1 -1,1 -0.563,0 -1,-0.4375 -1,-1 V 4 C 18,2.9375 17.062,2 16,2 H 4 C 2.875,2 2,2.9375 2,4 v 12 h 7 c 0.5,0 1,0.5 1,1 0,0.5625 -0.5,1 -1,1 H 2 v 4 h 7 c 0.5,0 1,0.5 1,1 0,0.5625 -0.5,1 -1,1 H 2 v 4 c 0,1.125 0.875,2 2,2 h 11 c 0.5,0 1,0.5 1,1 0,0.5625 -0.5,1 -1,1 H 4 C 1.75,32 0,30.25 0,28 Z m 9,1 c 0,-0.5 0.437,-1 1,-1 0.5,0 1,0.5 1,1 v 2 h 2 c 0.5,0 1,0.5 1,1 0,0.5625 -0.5,1 -1,1 h -2 v 2 c 0,0.5625 -0.5,1 -1,1 C 9.437,12 9,11.5625 9,11 V 9 H 7 C 6.437,9 6,8.5625 6,8 6,7.5 6.437,7 7,7 h 2 z m 23,12 c 0,2.8125 -2.25,5 -5,5 -2.813,0 -5,-2.1875 -5,-5 0,-2.75 2.187,-5 5,-5 2.75,0 5,2.25 5,5 z m -5,-3 c -1.688,0 -3,1.375 -3,3 0,1.6875 1.312,3 3,3 1.625,0 3,-1.3125 3,-3 0,-1.625 -1.375,-3 -3,-3 z m 3.125,10 C 33.375,24 36,26.625 36,29.875 36,31.0625 35,32 33.812,32 H 20.125 C 18.937,32 18,31.0625 18,29.875 18,26.625 20.562,24 23.812,24 Z m -10,6 H 33.812 C 33.875,30 34,29.9375 34,29.875 34,27.75 32.25,26 30.125,26 H 23.812 C 21.687,26 20,27.75 20,29.875 20,29.9375 20.062,30 20.125,30 Z"
     fill="#646c9a"
     id="path508"
     sodipodi:nodetypes="ssssssssssscsssccssscssssssssssscssscssscssscsssssssssssssssssssssssss" />
</svg>
