<svg width="8" height="10" viewBox="0 0 8 10" fill="none" xmlns="http://www.w3.org/2000/svg">
<path fill-rule="evenodd" clip-rule="evenodd" d="M3.16774 8.54805C3.39178 8.7976 3.67939 8.93471 3.97782 8.93471H3.97825C4.27797 8.93471 4.56689 8.7976 4.79135 8.54762C4.91159 8.41484 5.1166 8.40403 5.24937 8.52383C5.38258 8.64363 5.3934 8.84907 5.27359 8.98185C4.92413 9.3698 4.46438 9.58346 3.97825 9.58346H3.97739C3.49255 9.58303 3.03367 9.36937 2.6855 8.98142C2.5657 8.84864 2.57651 8.6432 2.70972 8.52383C2.84293 8.40359 3.04794 8.41441 3.16774 8.54805ZM3.99936 0.284668C5.92183 0.284668 7.21328 1.78199 7.21328 3.18027C7.21328 3.89952 7.39623 4.20443 7.59042 4.52794C7.78245 4.84713 8 5.20957 8 5.89465C7.84906 7.64499 6.02174 7.78771 3.99936 7.78771C1.97698 7.78771 0.149225 7.64499 5.72474e-06 5.92233C-0.00128601 5.20957 0.216262 4.84713 0.408293 4.52794L0.476086 4.41383C0.643001 4.12695 0.785435 3.8149 0.785435 3.18027C0.785435 1.78199 2.07689 0.284668 3.99936 0.284668ZM3.99936 0.933421C2.48776 0.933421 1.43419 2.11761 1.43419 3.18027C1.43419 4.07944 1.18463 4.49507 0.964058 4.86184C0.787165 5.15637 0.647467 5.38906 0.647467 5.89465C0.719695 6.71035 1.25816 7.13896 3.99936 7.13896C6.72542 7.13896 7.28075 6.69132 7.35254 5.86654C7.35125 5.38906 7.21155 5.15637 7.03466 4.86184C6.81408 4.49507 6.56453 4.07944 6.56453 3.18027C6.56453 2.11761 5.51095 0.933421 3.99936 0.933421Z" fill="#47BCCA"/>
</svg>
