<svg width="41" height="37" viewBox="0 0 41 37" fill="none" xmlns="http://www.w3.org/2000/svg">
<path d="M4.5 34.25H18.1406L18.0703 34.6016C17.9297 35.2344 17.9297 35.9375 18.1406 36.5H4.5C1.96875 36.5 0 34.5312 0 32V5C0 2.53906 1.96875 0.5 4.5 0.5H15.4688C16.3125 0.5 17.2266 0.921875 17.8594 1.55469L25.9453 9.64062C26.5781 10.2734 27 11.1875 27 12.0312V21.5938L24.75 23.8438V14H16.875C14.9766 14 13.5 12.5234 13.5 10.625V2.75H4.5C3.23438 2.75 2.25 3.80469 2.25 5V32C2.25 33.2656 3.23438 34.25 4.5 34.25ZM24.3984 11.2578L16.2422 3.10156C16.1016 2.96094 15.8906 2.89062 15.75 2.82031V10.625C15.75 11.2578 16.2422 11.75 16.875 11.75H24.6797C24.6094 11.6094 24.5391 11.3984 24.3984 11.2578ZM33.2578 17.5156C34.5938 16.1797 36.7031 16.1797 38.0391 17.5156L39.2344 18.7109C40.5703 20.0469 40.5703 22.1562 39.2344 23.4922L28.4062 34.3203C27.9844 34.7422 27.4922 35.0234 26.8594 35.1641L21.5859 36.5C21.2344 36.5703 20.8125 36.5 20.5312 36.2188C20.25 35.9375 20.1797 35.5156 20.25 35.0938L21.5859 29.8906C21.7266 29.2578 22.0078 28.6953 22.4297 28.2734L33.2578 17.5156ZM36.4219 19.0625C36 18.6406 35.2969 18.6406 34.8047 19.0625L33.1172 20.8203L35.9297 23.6328L37.6172 21.875C38.1094 21.4531 38.1094 20.75 37.6172 20.3281L36.4219 19.0625ZM23.7656 30.3828L22.8516 33.8281L26.2969 32.9844C26.5078 32.9141 26.7188 32.8438 26.8594 32.7031L34.3125 25.25L31.5 22.4375L24.0469 29.8906C23.9062 30.0312 23.7656 30.2422 23.7656 30.3828Z" fill="url(#paint0_linear_1_22602)"/>
<defs>
<linearGradient id="paint0_linear_1_22602" x1="20.5" y1="-8" x2="20.5" y2="44" gradientUnits="userSpaceOnUse">
<stop stop-color="#3BC1CD"/>
<stop offset="1" stop-color="#5867DD"/>
</linearGradient>
</defs>
</svg>
