<svg width="41" height="37" viewBox="0 0 41 37" fill="none" xmlns="http://www.w3.org/2000/svg">
<path d="M7.875 0.5C8.4375 0.5 9 1.0625 9 1.625V5H22.5V1.625C22.5 1.0625 22.9922 0.5 23.625 0.5C24.1875 0.5 24.75 1.0625 24.75 1.625V5H27C29.4609 5 31.5 7.03906 31.5 9.5V14.0703C31.0781 14.0703 30.7266 14 30.375 14C29.9531 14 29.6016 14.0703 29.25 14.0703V14H2.25V32C2.25 33.2656 3.23438 34.25 4.5 34.25H20.8125C21.5156 35.1641 22.2891 35.8672 23.2031 36.5H4.5C1.96875 36.5 0 34.5312 0 32V9.5C0 7.03906 1.96875 5 4.5 5H6.75V1.625C6.75 1.0625 7.24219 0.5 7.875 0.5ZM27 7.25H4.5C3.23438 7.25 2.25 8.30469 2.25 9.5V11.75H29.25V9.5C29.25 8.30469 28.1953 7.25 27 7.25ZM30.3047 20.75C30.9375 20.75 31.4297 21.3125 31.4297 21.875V25.25H33.75C34.3125 25.25 34.875 25.8125 34.875 26.375C34.875 27.0078 34.3125 27.5 33.75 27.5H30.3047C29.7422 27.5 29.1797 27.0078 29.1797 26.375V21.875C29.1797 21.3125 29.7422 20.75 30.3047 20.75ZM20.25 26.375C20.25 20.8203 24.75 16.25 30.375 16.25C35.9297 16.25 40.5 20.8203 40.5 26.375C40.5 32 35.9297 36.5 30.375 36.5C24.75 36.5 20.25 32 20.25 26.375ZM30.375 34.25C34.6641 34.25 38.25 30.7344 38.25 26.375C38.25 22.0859 34.6641 18.5 30.375 18.5C26.0156 18.5 22.5 22.0859 22.5 26.375C22.5 30.7344 26.0156 34.25 30.375 34.25Z" fill="url(#paint0_linear_1_22601)"/>
<defs>
<linearGradient id="paint0_linear_1_22601" x1="20.5" y1="0" x2="20.5" y2="36" gradientUnits="userSpaceOnUse">
<stop stop-color="#00AEC7"/>
<stop offset="1" stop-color="#5867DD"/>
</linearGradient>
</defs>
</svg>
