<svg width="12" height="9" viewBox="0 0 12 9" fill="none" xmlns="http://www.w3.org/2000/svg">
<path fill-rule="evenodd" clip-rule="evenodd" d="M4.09629 0.000608099L4.34843 0.00093171C4.39153 0.000992586 4.43512 0.0010567 4.4791 0.00112371L4.74707 0.00155777C5.33505 0.00256156 5.96133 0.00393818 6.43865 0.00493032L6.64769 0.00535817C6.68054 0.00542401 6.71234 0.00548688 6.743 0.00554644C7.9492 -0.0791556 9.038 0.816113 9.13503 2.01749C9.13594 2.02981 9.13672 2.09974 9.13739 2.22693L10.2502 1.31559C10.574 1.05022 11.0098 0.998222 11.3878 1.17674C11.7657 1.35633 12.0005 1.7273 12 2.14545L11.9936 6.08517C11.993 6.50332 11.7577 6.87429 11.3803 7.05227C11.2323 7.1225 11.0758 7.15627 10.9203 7.15627C10.6785 7.15627 10.44 7.07318 10.2432 6.91182L9.13988 5.99629C9.13987 6.01181 9.13986 6.02737 9.13986 6.04298C9.16237 6.60909 8.9608 7.15429 8.5716 7.5778C8.16257 8.02329 7.5986 8.28222 6.98424 8.30742C6.97382 8.30816 6.9151 8.30867 6.81875 8.30898L6.60695 8.30935C6.52434 8.30941 6.43048 8.30942 6.32767 8.30937L5.87417 8.30894C5.83331 8.30888 5.7918 8.30883 5.74972 8.30877L5.4911 8.30836C4.87494 8.30731 4.18087 8.3057 3.64277 8.30454L3.42238 8.30406C3.35256 8.30392 3.2866 8.30378 3.22519 8.30367C3.16836 8.30795 3.11154 8.3101 3.05471 8.3101C1.92142 8.31063 0.932873 7.44217 0.839594 6.30298L0.83951 6.30183L0.83901 6.2912C0.838972 6.29004 0.838934 6.28877 0.838895 6.28735L0.838527 6.27047C0.838484 6.26808 0.838441 6.26549 0.838397 6.2627L0.837991 6.23148C0.837945 6.22728 0.837898 6.22282 0.837852 6.21808L0.837423 6.1674C0.837374 6.16083 0.837326 6.15392 0.837278 6.14667L0.836986 6.09878C0.836937 6.09005 0.836888 6.08094 0.83684 6.07142L0.836405 5.97439C0.836357 5.96229 0.836309 5.94974 0.836262 5.93671L0.835843 5.80615C0.835797 5.79011 0.835752 5.77355 0.835707 5.75644L0.835319 5.58724C0.835277 5.56669 0.835236 5.54555 0.835196 5.52379L0.834746 5.23194C0.834712 5.20496 0.834678 5.1773 0.834646 5.14892L0.83423 4.66823C0.834207 4.63236 0.834186 4.59569 0.834166 4.55821L0.834158 2.45786C0.834181 2.39416 0.834206 2.32939 0.834233 2.26355C0.808501 1.71085 1.009 1.16189 1.40034 0.734627C1.80884 0.288601 2.37227 0.0285983 2.98717 0.00232991C2.99544 0.00173426 3.03463 0.00128421 3.09925 0.000957701L3.2146 0.000557841C3.23677 0.000505721 3.26037 0.000460633 3.2853 0.000422233L3.97584 0.000480626C4.01528 0.000518958 4.05546 0.000561564 4.09629 0.000608099ZM6.77195 0.808607C6.09511 0.807625 5.26751 0.806442 4.56126 0.80567L4.18971 0.805294C4.13033 0.805239 4.07237 0.805189 4.01602 0.805143L3.08372 0.805173C3.04864 0.805331 3.02594 0.80557 3.01719 0.805927C2.62155 0.822546 2.25648 0.990342 1.99326 1.27769C1.74773 1.54627 1.62121 1.88936 1.63783 2.24533L1.63827 4.31622C1.6383 4.36193 1.63832 4.40733 1.63835 4.45236L1.63884 5.09247C1.63888 5.1323 1.63892 5.17147 1.63896 5.20991L1.63924 5.43135C1.63929 5.46666 1.63934 5.50111 1.63939 5.53467L1.63991 5.81073C1.64048 6.05927 1.64121 6.22048 1.64212 6.25152C1.70323 6.994 2.39908 7.56172 3.1957 7.5006C3.27995 7.50073 3.36651 7.50086 3.45486 7.501L3.7248 7.50143C3.95338 7.5018 4.18993 7.5022 4.42631 7.5026L4.70938 7.50307C4.85035 7.5033 4.99009 7.50353 5.12684 7.50374L5.39584 7.50415C5.43984 7.50421 5.48337 7.50428 5.52637 7.50434L5.77756 7.50467C5.8182 7.50471 5.85817 7.50476 5.89743 7.50481L6.84386 7.50479C6.90577 7.50457 6.94466 7.50425 6.95637 7.50382C7.35039 7.48774 7.716 7.32048 7.97922 7.03367C8.22529 6.76616 8.35181 6.42307 8.33626 6.06871L8.33579 6.05987L8.33569 3.46724C8.33567 3.42513 8.33564 3.38356 8.33561 3.3426L8.33521 2.8838C8.33517 2.84861 8.33513 2.81426 8.33508 2.7808L8.33463 2.50558C8.33445 2.42299 8.33426 2.35008 8.33405 2.28846L8.3336 2.18071C8.33327 2.11954 8.33291 2.08031 8.33251 2.06681C8.27193 1.32057 7.57287 0.745885 6.77195 0.808607ZM10.7595 1.93799L9.13965 3.2596C9.13972 3.32547 9.13977 3.39394 9.13982 3.46501L9.14017 4.80932L10.7531 6.29049C10.8715 6.38699 10.9905 6.34732 11.0366 6.3248C11.0827 6.30336 11.1894 6.23635 11.1894 6.0841L11.1959 2.14438C11.1964 1.99213 11.0892 1.92512 11.0431 1.90314C10.9975 1.8817 10.8769 1.84149 10.7595 1.93799Z" fill="#47BCCA"/>
</svg>
