<svg width="52" height="52" viewBox="0 0 52 52" fill="none" xmlns="http://www.w3.org/2000/svg">
<path fill-rule="evenodd" clip-rule="evenodd" d="M12.2427 12.2427V39.7573H39.7573V12.2427H12.2427ZM12.0358 11.0015C11.4646 11.0015 11.0015 11.4646 11.0015 12.0358V39.9642C11.0015 40.5354 11.4646 40.9985 12.0358 40.9985H39.9642C40.5354 40.9985 40.9985 40.5354 40.9985 39.9642V12.0358C40.9985 11.4646 40.5354 11.0015 39.9642 11.0015H12.0358Z" fill="#3BC1CD" fill-opacity="0.5"/>
<path fill-rule="evenodd" clip-rule="evenodd" d="M36.1371 14.6216C36.8227 14.6216 37.3784 15.1773 37.3784 15.8628V19.1729C37.3784 19.5156 37.1005 19.7935 36.7578 19.7935C36.415 19.7935 36.1371 19.5156 36.1371 19.1729V15.8628H32.8271C32.4844 15.8628 32.2065 15.585 32.2065 15.2422C32.2065 14.8994 32.4844 14.6216 32.8271 14.6216H36.1371Z" fill="#3BC1CD" fill-opacity="0.5"/>
<path fill-rule="evenodd" clip-rule="evenodd" d="M14.9321 15.8628C14.9321 15.1773 15.4878 14.6216 16.1733 14.6216H19.4833C19.8261 14.6216 20.104 14.8994 20.104 15.2422C20.104 15.585 19.8261 15.8628 19.4833 15.8628H16.1733V19.1729C16.1733 19.5156 15.8954 19.7935 15.5527 19.7935C15.2099 19.7935 14.9321 19.5156 14.9321 19.1729V15.8628Z" fill="#3BC1CD" fill-opacity="0.5"/>
<path fill-rule="evenodd" clip-rule="evenodd" d="M16.1733 37.4814C15.4878 37.4814 14.9321 36.9257 14.9321 36.2402V32.9302C14.9321 32.5874 15.2099 32.3095 15.5527 32.3095C15.8954 32.3095 16.1733 32.5874 16.1733 32.9302V36.2402H19.4833C19.8261 36.2402 20.104 36.5181 20.104 36.8608C20.104 37.2036 19.8261 37.4814 19.4833 37.4814H16.1733Z" fill="#3BC1CD" fill-opacity="0.5"/>
<path fill-rule="evenodd" clip-rule="evenodd" d="M37.3784 36.2402C37.3784 36.9257 36.8227 37.4814 36.1371 37.4814H32.8271C32.4844 37.4814 32.2065 37.2036 32.2065 36.8608C32.2065 36.5181 32.4844 36.2402 32.8271 36.2402H36.1371V32.9302C36.1371 32.5874 36.415 32.3095 36.7578 32.3095C37.1005 32.3095 37.3784 32.5874 37.3784 32.9302V36.2402Z" fill="#3BC1CD" fill-opacity="0.5"/>
<path d="M34.072 26.0001C28.8867 31.0081 23.7014 31.0081 18.5151 26.0001C23.7004 20.9921 28.8857 20.9921 34.072 26.0001Z" fill="#F9F8F7"/>
<path d="M26.2937 30.2417C23.5842 30.2417 20.8746 28.942 18.1842 26.3436L17.8286 26.0005L18.1842 25.6574C23.565 20.4606 29.0225 20.4606 34.4033 25.6574L34.7589 26.0005L34.4033 26.3436C31.7129 28.942 29.0033 30.2417 26.2937 30.2417ZM19.2107 26.0005C23.9723 30.3826 28.6151 30.3826 33.3768 26.0005C28.6151 21.6184 23.9723 21.6184 19.2107 26.0005Z" fill="#3BC1CD" fill-opacity="0.5"/>
<path d="M26.2939 28.72C27.7961 28.72 29.014 27.5022 29.014 25.9999C29.014 24.4976 27.7961 23.2798 26.2939 23.2798C24.7916 23.2798 23.5737 24.4976 23.5737 25.9999C23.5737 27.5022 24.7916 28.72 26.2939 28.72Z" fill="#3BC1CD" fill-opacity="0.5"/>
<path d="M25.5823 25.603C25.975 25.603 26.2934 25.2846 26.2934 24.8918C26.2934 24.4991 25.975 24.1807 25.5823 24.1807C25.1895 24.1807 24.8711 24.4991 24.8711 24.8918C24.8711 25.2846 25.1895 25.603 25.5823 25.603Z" fill="white"/>
</svg>
