<svg width="53" height="52" viewBox="0 0 53 52" fill="none" xmlns="http://www.w3.org/2000/svg">
<path fill-rule="evenodd" clip-rule="evenodd" d="M31.1862 40.6101C28.7083 37.919 26.8253 34.1026 26.6198 29.4406C26.6075 29.1606 26.6012 28.8774 26.6012 28.5913C26.6012 28.4913 26.621 28.3962 26.6407 28.3015C26.6529 28.2429 26.6651 28.1843 26.6725 28.1249C26.5984 28.1219 26.5257 28.1108 26.4526 28.0997C26.3657 28.0864 26.278 28.0731 26.1866 28.0731H25.1047C24.9533 28.1426 24.8001 28.209 24.6451 28.2722C23.3286 28.8088 21.8891 29.1096 20.382 29.1096C18.6977 29.1096 17.104 28.7338 15.6594 28.0731H14.5775C9.77054 28.0731 5.87061 31.973 5.87061 36.7799V39.4749C5.87061 41.1916 7.26344 42.5845 8.9802 42.5845H31.7839C32.2244 42.5845 32.6455 42.4873 33.0277 42.3253C32.6033 41.9882 32.1873 41.6215 31.7839 41.2265C31.5813 41.0282 31.3819 40.8227 31.1862 40.6101ZM28.6127 40.6101C26.5526 37.91 25.0435 34.436 24.7006 30.3598C23.3475 30.8262 21.8939 31.0839 20.382 31.0839C18.5582 31.0839 16.8271 30.709 15.2467 30.0474H14.5775C10.861 30.0474 7.84495 33.0634 7.84495 36.7799V39.4749C7.84495 40.1012 8.35384 40.6101 8.9802 40.6101H28.6127ZM38.013 25.9056L38.0103 25.905L38.0081 25.9047L38.0019 25.904L37.9979 25.9039L37.9953 25.9047L37.994 25.9052L30.6497 28.7741C30.7237 35.0642 34.6082 39.2786 37.9956 40.6068L37.9978 40.6075H37.9991C38.0022 40.6073 38.007 40.6066 38.0125 40.6053L38.0185 40.6036C40.7115 39.547 45.2778 35.7485 45.3564 28.7741L38.013 25.9056ZM38.7221 42.4484C38.45 42.5521 37.9059 42.6881 37.2839 42.4484C33.1249 40.8224 28.6743 35.8211 28.6743 28.5913C28.6743 27.8852 29.1278 27.2503 29.8209 26.9782L37.2839 24.063C37.9059 23.8233 38.4565 23.9593 38.7221 24.063L46.1851 26.9782C46.8783 27.2503 47.3318 27.8852 47.3318 28.5913C47.3318 36.6568 42.0455 41.1528 38.7221 42.4484ZM20.382 24.0257C23.8718 24.0257 26.6999 21.1975 26.6999 17.7078C26.6999 14.218 23.8718 11.3899 20.382 11.3899C16.8923 11.3899 14.0641 14.218 14.0641 17.7078C14.0641 21.1975 16.8923 24.0257 20.382 24.0257ZM28.6743 17.7078C28.6743 22.2879 24.9622 26 20.382 26C15.8019 26 12.0898 22.2879 12.0898 17.7078C12.0898 13.1276 15.8019 9.41553 20.382 9.41553C24.9622 9.41553 28.6743 13.1276 28.6743 17.7078ZM37.855 29.5537C38.2912 29.5537 38.6448 29.9073 38.6448 30.3435V32.5157H40.8165C41.2526 32.5157 41.6062 32.8693 41.6062 33.3054C41.6062 33.7416 41.2526 34.0952 40.8165 34.0952H38.6448V36.2665C38.6448 36.7027 38.2912 37.0562 37.855 37.0562C37.4189 37.0562 37.0653 36.7027 37.0653 36.2665V34.0952H34.8934C34.4573 34.0952 34.1037 33.7416 34.1037 33.3054C34.1037 32.8693 34.4573 32.5157 34.8934 32.5157H37.0653V30.3435C37.0653 29.9073 37.4189 29.5537 37.855 29.5537Z" fill="#3BC1CD" fill-opacity="0.5"/>
<path fill-rule="evenodd" clip-rule="evenodd" d="M31.1862 40.6101C28.7083 37.919 26.8253 34.1026 26.6198 29.4406C26.6075 29.1606 26.6012 28.8774 26.6012 28.5913C26.6012 28.4913 26.621 28.3962 26.6407 28.3015C26.6529 28.2429 26.6651 28.1843 26.6725 28.1249C26.5984 28.1219 26.5257 28.1108 26.4526 28.0997C26.3657 28.0864 26.278 28.0731 26.1866 28.0731H25.1047C24.9533 28.1426 24.8001 28.209 24.6451 28.2722C23.3286 28.8088 21.8891 29.1096 20.382 29.1096C18.6977 29.1096 17.104 28.7338 15.6594 28.0731H14.5775C9.77054 28.0731 5.87061 31.973 5.87061 36.7799V39.4749C5.87061 41.1916 7.26344 42.5845 8.9802 42.5845H31.7839C32.2244 42.5845 32.6455 42.4873 33.0277 42.3253C32.6033 41.9882 32.1873 41.6215 31.7839 41.2265C31.5813 41.0282 31.3819 40.8227 31.1862 40.6101ZM28.6127 40.6101C26.5526 37.91 25.0435 34.436 24.7006 30.3598C23.3475 30.8262 21.8939 31.0839 20.382 31.0839C18.5582 31.0839 16.8271 30.709 15.2467 30.0474H14.5775C10.861 30.0474 7.84495 33.0634 7.84495 36.7799V39.4749C7.84495 40.1012 8.35384 40.6101 8.9802 40.6101H28.6127ZM38.013 25.9056L38.0103 25.905L38.0081 25.9047L38.0019 25.904L37.9979 25.9039L37.9953 25.9047L37.994 25.9052L30.6497 28.7741C30.7237 35.0642 34.6082 39.2786 37.9956 40.6068L37.9978 40.6075H37.9991C38.0022 40.6073 38.007 40.6066 38.0125 40.6053L38.0185 40.6036C40.7115 39.547 45.2778 35.7485 45.3564 28.7741L38.013 25.9056ZM38.7221 42.4484C38.45 42.5521 37.9059 42.6881 37.2839 42.4484C33.1249 40.8224 28.6743 35.8211 28.6743 28.5913C28.6743 27.8852 29.1278 27.2503 29.8209 26.9782L37.2839 24.063C37.9059 23.8233 38.4565 23.9593 38.7221 24.063L46.1851 26.9782C46.8783 27.2503 47.3318 27.8852 47.3318 28.5913C47.3318 36.6568 42.0455 41.1528 38.7221 42.4484ZM20.382 24.0257C23.8718 24.0257 26.6999 21.1975 26.6999 17.7078C26.6999 14.218 23.8718 11.3899 20.382 11.3899C16.8923 11.3899 14.0641 14.218 14.0641 17.7078C14.0641 21.1975 16.8923 24.0257 20.382 24.0257ZM28.6743 17.7078C28.6743 22.2879 24.9622 26 20.382 26C15.8019 26 12.0898 22.2879 12.0898 17.7078C12.0898 13.1276 15.8019 9.41553 20.382 9.41553C24.9622 9.41553 28.6743 13.1276 28.6743 17.7078ZM37.855 29.5537C38.2912 29.5537 38.6448 29.9073 38.6448 30.3435V32.5157H40.8165C41.2526 32.5157 41.6062 32.8693 41.6062 33.3054C41.6062 33.7416 41.2526 34.0952 40.8165 34.0952H38.6448V36.2665C38.6448 36.7027 38.2912 37.0562 37.855 37.0562C37.4189 37.0562 37.0653 36.7027 37.0653 36.2665V34.0952H34.8934C34.4573 34.0952 34.1037 33.7416 34.1037 33.3054C34.1037 32.8693 34.4573 32.5157 34.8934 32.5157H37.0653V30.3435C37.0653 29.9073 37.4189 29.5537 37.855 29.5537Z" fill="#3BC1CD" fill-opacity="0.5"/>
</svg>
