<svg width="53" height="52" viewBox="0 0 53 52" fill="none" xmlns="http://www.w3.org/2000/svg">
<path d="M39.0714 12.4348H35.6429V8.76091C35.6429 8.337 35.2143 7.91309 34.7857 7.91309H34.2143C33.7143 7.91309 33.3571 8.337 33.3571 8.76091V12.4348H19.6429V8.76091C19.6429 8.337 19.2143 7.91309 18.7857 7.91309H18.2143C17.7143 7.91309 17.3571 8.337 17.3571 8.76091V12.4348H13.9286C12 12.4348 10.5 13.9892 10.5 15.8261V40.6957C10.5 42.6033 12 44.087 13.9286 44.087H39.0714C40.9286 44.087 42.5 42.6033 42.5 40.6957V15.8261C42.5 13.9892 40.9286 12.4348 39.0714 12.4348ZM13.9286 14.6957H39.0714C39.6429 14.6957 40.2143 15.2609 40.2143 15.8261V19.2174H12.7857V15.8261C12.7857 15.2609 13.2857 14.6957 13.9286 14.6957ZM39.0714 41.8261H13.9286C13.2857 41.8261 12.7857 41.3316 12.7857 40.6957V21.4783H40.2143V40.6957C40.2143 41.3316 39.6429 41.8261 39.0714 41.8261ZM21.0714 30.5218C21.5 30.5218 21.9286 30.1685 21.9286 29.674V26.8479C21.9286 26.424 21.5 26 21.0714 26H18.2143C17.7143 26 17.3571 26.424 17.3571 26.8479V29.674C17.3571 30.1685 17.7143 30.5218 18.2143 30.5218H21.0714ZM27.9286 30.5218C28.3571 30.5218 28.7857 30.1685 28.7857 29.674V26.8479C28.7857 26.424 28.3571 26 27.9286 26H25.0714C24.5714 26 24.2143 26.424 24.2143 26.8479V29.674C24.2143 30.1685 24.5714 30.5218 25.0714 30.5218H27.9286ZM34.7857 30.5218C35.2143 30.5218 35.6429 30.1685 35.6429 29.674V26.8479C35.6429 26.424 35.2143 26 34.7857 26H31.9286C31.4286 26 31.0714 26.424 31.0714 26.8479V29.674C31.0714 30.1685 31.4286 30.5218 31.9286 30.5218H34.7857ZM27.9286 37.3044C28.3571 37.3044 28.7857 36.9511 28.7857 36.4566V33.6305C28.7857 33.2066 28.3571 32.7827 27.9286 32.7827H25.0714C24.5714 32.7827 24.2143 33.2066 24.2143 33.6305V36.4566C24.2143 36.9511 24.5714 37.3044 25.0714 37.3044H27.9286ZM21.0714 37.3044C21.5 37.3044 21.9286 36.9511 21.9286 36.4566V33.6305C21.9286 33.2066 21.5 32.7827 21.0714 32.7827H18.2143C17.7143 32.7827 17.3571 33.2066 17.3571 33.6305V36.4566C17.3571 36.9511 17.7143 37.3044 18.2143 37.3044H21.0714ZM34.7857 37.3044C35.2143 37.3044 35.6429 36.9511 35.6429 36.4566V33.6305C35.6429 33.2066 35.2143 32.7827 34.7857 32.7827H31.9286C31.4286 32.7827 31.0714 33.2066 31.0714 33.6305V36.4566C31.0714 36.9511 31.4286 37.3044 31.9286 37.3044H34.7857Z" fill="#3BC1CD" fill-opacity="0.5"/>
</svg>
