<svg width="30" height="22" viewBox="0 0 30 22" fill="none" xmlns="http://www.w3.org/2000/svg">
<path d="M15.75 0.965088C15.75 0.590088 16.0781 0.215088 16.5 0.215088H18.375C19.3594 0.215088 20.2031 0.871338 20.5312 1.76196L20.7656 2.51196L23.4375 1.15259C23.6719 1.05884 23.9531 0.965088 24.2344 0.965088C24.8906 0.965088 25.5 1.57446 25.5 2.23071V5.74634C25.5 6.40259 24.8906 6.96509 24.2344 6.96509C23.9531 6.96509 23.6719 6.91821 23.4375 6.77759L21.9375 6.07446L23.1562 9.63696C23.4375 9.63696 23.7188 9.59009 24 9.59009C25.9219 9.59009 27.7031 10.387 28.9688 11.6526C29.25 11.9338 29.25 12.4026 28.9688 12.7307C28.6875 13.012 28.2188 13.012 27.9375 12.7307C26.9062 11.7463 25.5 11.0901 24 11.0901C21.3281 11.0901 19.125 12.9651 18.5156 15.4026C18.4219 15.8245 18.375 16.2932 18.375 16.7151H12C12 19.1995 9.98438 21.2151 7.5 21.2151C4.96875 21.2151 3 19.1995 3 16.7151H1.5C0.65625 16.7151 0 16.0588 0 15.2151V13.7151C0 10.4338 2.67188 7.71509 6 7.71509H10.5C11.2969 7.71509 12 8.41821 12 9.21509V13.7151C12 14.5588 12.6562 15.2151 13.5 15.2151H17.0156C17.0156 15.1682 17.0156 15.1213 17.0625 15.0745C17.625 12.6838 19.4062 10.762 21.7031 9.96509L19.125 2.23071C18.9844 1.94946 18.7031 1.71509 18.375 1.71509H16.5C16.0781 1.71509 15.75 1.38696 15.75 0.965088ZM21.2812 4.05884C21.2812 4.05884 21.2812 4.05884 21.3281 4.05884L24 5.41821V2.55884L21.3281 3.91821C21.2812 3.91821 21.2812 3.91821 21.2344 3.91821L21.2812 4.05884ZM10.5 9.21509H6C3.46875 9.21509 1.5 11.2307 1.5 13.7151V15.2151H10.875C10.6406 14.7932 10.5 14.2776 10.5 13.7151V9.21509ZM10.5 16.7151H4.5C4.5 18.4026 5.8125 19.7151 7.5 19.7151C9.14062 19.7151 10.5 18.4026 10.5 16.7151ZM11.25 4.71509C11.625 4.71509 12 5.09009 12 5.46509C12 5.88696 11.625 6.21509 11.25 6.21509H5.25C4.82812 6.21509 4.5 5.88696 4.5 5.46509C4.5 5.09009 4.82812 4.71509 5.25 4.71509H11.25ZM19.5 16.7151C19.5 14.2307 21.4688 12.2151 24 12.2151C26.4844 12.2151 28.5 14.2307 28.5 16.7151C28.5 19.1995 26.4844 21.2151 24 21.2151C21.4688 21.2151 19.5 19.1995 19.5 16.7151ZM24 19.7151C25.6406 19.7151 27 18.4026 27 16.7151C27 15.0745 25.6406 13.7151 24 13.7151C22.3125 13.7151 21 15.0745 21 16.7151C21 18.4026 22.3125 19.7151 24 19.7151Z" fill="#0282A6"/>
</svg>
