<svg width="17" height="17" viewBox="0 0 17 17" fill="none" xmlns="http://www.w3.org/2000/svg">
<path d="M15.7812 14.4927L12.6562 11.3677C12.5 11.2427 12.3125 11.1489 12.125 11.1489H11.625C12.4688 10.0552 13 8.68018 13 7.14893C13 3.58643 10.0625 0.648926 6.5 0.648926C2.90625 0.648926 0 3.58643 0 7.14893C0 10.7427 2.90625 13.6489 6.5 13.6489C8 13.6489 9.375 13.1489 10.5 12.2739V12.8052C10.5 12.9927 10.5625 13.1802 10.7188 13.3364L13.8125 16.4302C14.125 16.7427 14.5938 16.7427 14.875 16.4302L15.75 15.5552C16.0625 15.2739 16.0625 14.8052 15.7812 14.4927ZM6.5 11.1489C4.28125 11.1489 2.5 9.36768 2.5 7.14893C2.5 4.96143 4.28125 3.14893 6.5 3.14893C8.6875 3.14893 10.5 4.96143 10.5 7.14893C10.5 9.36768 8.6875 11.1489 6.5 11.1489Z" fill="#0282A6"/>
</svg>
