<svg width="30" height="25" viewBox="0 0 30 25" fill="none" xmlns="http://www.w3.org/2000/svg">
<path d="M0 9.43384C0 9.15259 0.046875 8.87134 0.1875 8.59009L3.84375 1.93384C4.21875 1.18384 4.96875 0.715088 5.8125 0.715088H24.1406C24.9844 0.715088 25.7344 1.18384 26.1094 1.93384L29.7656 8.59009C29.9062 8.87134 30 9.15259 30 9.43384C30 10.4182 29.1562 11.2151 28.1719 11.2151H27V23.9651C27 24.387 26.625 24.7151 26.25 24.7151C25.8281 24.7151 25.5 24.387 25.5 23.9651V11.2151H4.5V17.2151H16.5V13.4651C16.5 13.0901 16.8281 12.7151 17.25 12.7151C17.625 12.7151 18 13.0901 18 13.4651V22.4651C18 23.7307 16.9688 24.7151 15.75 24.7151H5.25C3.98438 24.7151 3 23.7307 3 22.4651V11.2151H1.78125C0.796875 11.2151 0 10.4182 0 9.43384ZM28.1719 9.71509C28.3594 9.71509 28.5 9.62134 28.5 9.43384C28.5 9.38696 28.4531 9.34009 28.4531 9.29321L24.7969 2.63696C24.6562 2.40259 24.4219 2.21509 24.1406 2.21509H5.8125C5.53125 2.21509 5.29688 2.40259 5.15625 2.63696L1.5 9.29321C1.5 9.34009 1.5 9.38696 1.5 9.43384C1.5 9.62134 1.59375 9.71509 1.78125 9.71509H28.1719ZM5.25 23.2151H15.75C16.125 23.2151 16.5 22.887 16.5 22.4651V18.7151H4.5V22.4651C4.5 22.887 4.82812 23.2151 5.25 23.2151Z" fill="#0282A6"/>
</svg>
