<svg width="17" height="16" viewBox="0 0 17 16" fill="none" xmlns="http://www.w3.org/2000/svg">
<path d="M16.5297 8C16.5297 12.4183 13.0282 16 8.70889 16C4.38956 16 0.888062 12.4183 0.888062 8C0.888062 3.58171 4.38956 0 8.70889 0C13.0282 0 16.5297 3.58171 16.5297 8ZM7.80426 12.2359L13.6068 6.30045C13.8039 6.0989 13.8039 5.7721 13.6068 5.57055L12.8933 4.84064C12.6962 4.63906 12.3767 4.63906 12.1797 4.84064L7.44747 9.68123L5.23812 7.42126C5.04108 7.21971 4.72159 7.21971 4.52453 7.42126L3.81097 8.15116C3.61394 8.35271 3.61394 8.67952 3.81097 8.88106L7.09068 12.2359C7.28774 12.4375 7.6072 12.4375 7.80426 12.2359V12.2359Z" fill="#008FF7"/>
</svg>
