<svg width="701" height="36" viewBox="0 0 701 36" fill="none" xmlns="http://www.w3.org/2000/svg">
<g clip-path="url(#clip0_1_405)">
<path d="M123.614 20.25C124.082 20.25 124.483 19.9688 124.617 19.4766L127.692 11.4609L133.307 35.0859C133.441 35.6484 133.842 35.9297 134.377 36C134.845 35.9297 135.313 35.5781 135.38 35.0859L140.862 6.1875L144.004 19.3359C144.137 19.8281 144.605 20.25 145.007 20.25H1173.47C1173.8 20.25 1174 19.9689 1174 19.6876V18.5626C1174 18.211 1173.8 18.0001 1173.47 18.0001L145.876 18L141.798 0.84375C141.664 0.28125 141.263 4.92e-08 140.728 0C140.26 -4.3e-08 139.792 0.351562 139.725 0.84375L134.243 29.7422L128.962 7.59375C128.828 7.10156 128.427 6.75 128.026 6.75C127.491 6.67969 127.09 6.96094 126.956 7.45312L122.945 18H0.534821C0.267411 18 2.92273e-08 18.2109 0 18.5625V19.6875C-2.33704e-08 19.9688 0.26741 20.25 0.53482 20.25H123.614Z" fill="#00285F"/>
</g>
<defs>
<clipPath id="clip0_1_405">
<rect width="701" height="36" fill="white"/>
</clipPath>
</defs>
</svg>
