<svg width="132" height="70" viewBox="0 0 132 70" fill="none" xmlns="http://www.w3.org/2000/svg">
<path d="M37.77 58.1001C36.8 58.1001 36.02 57.3101 36.02 56.3501V47.5801C36.02 46.6101 36.81 45.8301 37.77 45.8301C38.73 45.8301 39.52 46.6101 39.52 47.5801V56.3501C39.52 57.3201 38.74 58.1001 37.77 58.1001Z" fill="#3BC1CD"/>
<path d="M44.78 58.0998C43.81 58.0998 43.03 57.3098 43.03 56.3498V51.0898C43.03 50.1198 43.81 49.3398 44.78 49.3398C45.75 49.3398 46.53 50.1298 46.53 51.0898V56.3498C46.53 57.3198 45.74 58.0998 44.78 58.0998Z" fill="#3BC1CD"/>
<path d="M51.8 58.1001C50.83 58.1001 50.05 57.3101 50.05 56.3501V47.5801C50.05 46.6101 50.83 45.8301 51.8 45.8301C52.77 45.8301 53.55 46.6101 53.55 47.5801V56.3501C53.55 57.3201 52.76 58.1001 51.8 58.1001Z" fill="#3BC1CD"/>
<path d="M58.8101 58.0998C57.8401 58.0998 57.0601 57.3098 57.0601 56.3498V51.0898C57.0601 50.1198 57.8501 49.3398 58.8101 49.3398C59.7701 49.3398 60.5601 50.1298 60.5601 51.0898V56.3498C60.5601 57.3198 59.7801 58.0998 58.8101 58.0998Z" fill="#3BC1CD"/>
<path d="M65.8301 58.1001C64.8601 58.1001 64.0801 57.3101 64.0801 56.3501V47.5801C64.0801 46.6101 64.8701 45.8301 65.8301 45.8301C66.7901 45.8301 67.5801 46.6101 67.5801 47.5801V56.3501C67.5801 57.3201 66.8001 58.1001 65.8301 58.1001Z" fill="#3BC1CD"/>
<path d="M72.8401 58.0998C71.8701 58.0998 71.0901 57.3098 71.0901 56.3498V51.0898C71.0901 50.1198 71.8801 49.3398 72.8401 49.3398C73.8001 49.3398 74.5901 50.1298 74.5901 51.0898V56.3498C74.5901 57.3198 73.8001 58.0998 72.8401 58.0998Z" fill="#3BC1CD"/>
<path d="M79.8601 58.1001C78.8901 58.1001 78.1101 57.3101 78.1101 56.3501V47.5801C78.1101 46.6101 78.9001 45.8301 79.8601 45.8301C80.8201 45.8301 81.6101 46.6101 81.6101 47.5801V56.3501C81.6101 57.3201 80.8201 58.1001 79.8601 58.1001Z" fill="#3BC1CD"/>
<path d="M86.8701 58.0998C85.9001 58.0998 85.1201 57.3098 85.1201 56.3498V51.0898C85.1201 50.1198 85.9001 49.3398 86.8701 49.3398C87.8401 49.3398 88.6201 50.1298 88.6201 51.0898V56.3498C88.6201 57.3198 87.8301 58.0998 86.8701 58.0998Z" fill="#3BC1CD"/>
<path d="M93.8899 58.1001C92.9199 58.1001 92.1399 57.3101 92.1399 56.3501V47.5801C92.1399 46.6101 92.9299 45.8301 93.8899 45.8301C94.8499 45.8301 95.6399 46.6101 95.6399 47.5801V56.3501C95.6399 57.3201 94.8499 58.1001 93.8899 58.1001Z" fill="#3BC1CD"/>
<path d="M93.89 40.57H37.77C36.8 40.57 36.02 39.78 36.02 38.82C36.01 22.37 49.39 9 65.83 9C82.27 9 95.64 22.37 95.64 38.81C95.64 39.78 94.85 40.56 93.89 40.56V40.57ZM39.58 37.06H92.08C91.17 23.37 79.75 12.51 65.83 12.51C51.91 12.51 40.49 23.37 39.58 37.06Z" fill="#3BC1CD"/>
<path d="M79.8601 40.57H51.8C50.83 40.57 50.05 39.78 50.05 38.82C50.05 30.12 57.1301 23.04 65.8301 23.04C74.5301 23.04 81.6101 30.12 81.6101 38.82C81.6101 39.79 80.82 40.57 79.8601 40.57ZM53.68 37.06H77.98C77.13 31.12 72.0001 26.54 65.8301 26.54C59.6601 26.54 54.53 31.12 53.68 37.06Z" fill="#3BC1CD"/>
<path d="M100.9 58.1001H30.75C29.78 58.1001 29 57.3101 29 56.3501V38.8101C29 37.8401 29.79 37.0601 30.75 37.0601H100.9C101.87 37.0601 102.65 37.8501 102.65 38.8101V56.3501C102.65 57.3201 101.86 58.1001 100.9 58.1001ZM32.51 54.6001H99.15V40.5701H32.51V54.6001Z" fill="#3BC1CD"/>
</svg>
