<svg width="100" height="100" viewBox="0 0 100 100" fill="none" xmlns="http://www.w3.org/2000/svg">
<mask id="path-1-inside-1_9_2436" fill="white">
<path d="M57.8992 74.7969H42.1006C40.8808 74.7969 39.8882 75.7895 39.8882 77.0093C39.8882 78.2291 40.8808 79.2218 42.1006 79.2218H57.8992C59.119 79.2218 60.1116 78.2291 60.1116 77.0093C60.1116 75.7895 59.119 74.7969 57.8992 74.7969Z"/>
</mask>
<path d="M57.8992 69.7969H42.1006V79.7969H57.8992V69.7969ZM42.1006 69.7969C38.1194 69.7969 34.8882 73.0281 34.8882 77.0093H44.8882C44.8882 78.551 43.6423 79.7969 42.1006 79.7969V69.7969ZM34.8882 77.0093C34.8882 80.9906 38.1194 84.2218 42.1006 84.2218V74.2218C43.6423 74.2218 44.8882 75.4677 44.8882 77.0093H34.8882ZM42.1006 84.2218H57.8992V74.2218H42.1006V84.2218ZM57.8992 84.2218C61.8804 84.2218 65.1116 80.9906 65.1116 77.0093H55.1116C55.1116 75.4677 56.3575 74.2218 57.8992 74.2218V84.2218ZM65.1116 77.0093C65.1116 73.0281 61.8804 69.7969 57.8992 69.7969V79.7969C56.3575 79.7969 55.1116 78.551 55.1116 77.0093H65.1116Z" fill="#3BC1CD" mask="url(#path-1-inside-1_9_2436)"/>
<path d="M53.924 85.2137L51.8963 85.3333L51.5983 87.3426C51.4817 88.129 50.8032 88.7257 49.9996 88.7257C49.2043 88.7257 48.522 88.1356 48.3994 87.3323L45.928 87.7093L46.0748 85.2136C45.8192 85.1986 45.574 85.1489 45.3438 85.0693H54.6515C54.4221 85.1489 54.1781 85.1987 53.924 85.2137Z" stroke="#3BC1CD" stroke-width="5"/>
<path d="M33.3811 17.2612L33.3811 17.2612L29.3431 11.7006L29.3431 11.7005C29.1971 11.4996 28.9168 11.4476 28.7014 11.6006C28.4954 11.7527 28.4614 12.0358 28.5978 12.2225L28.6023 12.2286L28.6023 12.2286L32.6401 17.789C32.6401 17.789 32.6402 17.7891 32.6402 17.7892C32.7292 17.9115 32.8617 17.9779 33.0149 17.9779C33.1026 17.9779 33.1988 17.9494 33.2789 17.8914L33.3811 17.2612ZM33.3811 17.2612L33.3855 17.2673M33.3811 17.2612L33.3855 17.2673M33.3855 17.2673C33.5225 17.4547 33.4877 17.7394 33.2793 17.8911L33.3855 17.2673Z" stroke="#3BC1CD" stroke-width="5"/>
<path d="M15.5386 29.7159L15.5398 29.7121C15.6186 29.4692 15.8666 29.3379 16.119 29.4183C16.1197 29.4185 16.1203 29.4187 16.1209 29.4189L22.6498 31.5448C22.65 31.5448 22.6502 31.5449 22.6504 31.545C22.8838 31.6214 23.018 31.8831 22.9409 32.1196L22.9408 32.1196L22.9381 32.1281C22.8791 32.3113 22.7071 32.4389 22.5079 32.4389C22.4343 32.4389 22.3945 32.4285 22.3816 32.4242L22.3733 32.4214L22.365 32.4187L15.8296 30.2907C15.8295 30.2907 15.8294 30.2906 15.8294 30.2906C15.5958 30.2143 15.4614 29.9525 15.5386 29.7159Z" stroke="#3BC1CD" stroke-width="5"/>
<path d="M84.1818 51.5425L84.2618 51.5685C84.452 51.6722 84.5459 51.8967 84.4762 52.1115L84.4747 52.1162C84.4156 52.2994 84.2437 52.427 84.0445 52.427C84.0092 52.427 83.9845 52.4246 83.9678 52.422C83.9515 52.4195 83.9385 52.4163 83.9265 52.4123L83.9169 52.4091L83.9072 52.4059L77.3708 50.286C77.1287 50.2075 76.9982 49.9531 77.0758 49.7105C77.1548 49.4716 77.405 49.3447 77.6453 49.4226L84.1818 51.5425Z" stroke="#3BC1CD" stroke-width="5"/>
<path d="M22.3612 49.4228L22.3609 49.4208C22.6114 49.3533 22.8479 49.4876 22.9239 49.7207C22.9981 49.9483 22.8759 50.2056 22.6283 50.2859L16.1176 52.3974C16.0272 52.4238 15.9758 52.4269 15.9545 52.4269C15.7554 52.4269 15.5834 52.2993 15.5244 52.1161L15.5244 52.1161L15.5216 52.1076C15.45 51.8881 15.5701 51.6238 15.8197 51.5416C15.8202 51.5415 15.8206 51.5414 15.8211 51.5412L22.3612 49.4228Z" stroke="#3BC1CD" stroke-width="5"/>
<path d="M77.6714 32.4098C77.5809 32.4361 77.5295 32.4392 77.5083 32.4392C77.3172 32.4392 77.1371 32.3102 77.0766 32.1237C77.0003 31.8885 77.1288 31.626 77.3737 31.5455C77.374 31.5454 77.3744 31.5452 77.3748 31.5451L83.9033 29.4278C83.9037 29.4276 83.9041 29.4275 83.9044 29.4274C84.1326 29.3546 84.3989 29.4866 84.477 29.7228C84.5545 29.9654 84.424 30.2197 84.182 30.2982L77.6714 32.4098Z" stroke="#3BC1CD" stroke-width="5"/>
<path d="M70.673 11.6924L70.6729 11.6925L66.635 17.253C66.635 17.2531 66.635 17.2531 66.635 17.2531C66.4852 17.4595 66.5381 17.74 66.7287 17.8771L66.7367 17.883L66.7367 17.883C66.8169 17.9412 66.9133 17.9699 67.0012 17.9699C67.1543 17.9699 67.2869 17.9034 67.3758 17.7811L70.673 11.6924ZM70.673 11.6924C70.8268 11.4806 71.1066 11.4411 71.3093 11.5887L71.3093 11.5887L71.3201 11.5965C71.5107 11.7336 71.5636 12.0141 71.4138 12.2205C71.4138 12.2205 71.4138 12.2205 71.4137 12.2206L67.376 17.7809L70.673 11.6924Z" stroke="#3BC1CD" stroke-width="5"/>
<path d="M68.8418 41.0215V41.5975C68.718 45.7652 67.236 49.5836 64.8195 52.6469L64.8189 52.6476C62.3595 55.7676 59.6673 59.7701 57.5894 63.2303L57.2327 63.8244V64.5173V68.9155H42.657V64.3239V63.641L42.3098 63.0529C40.1935 59.4682 37.7667 55.9095 35.1884 52.6391L35.188 52.6385C32.6621 49.4366 31.1572 45.4098 31.1572 41.0215C31.1572 30.6164 39.5944 22.1792 49.9995 22.1792C60.4046 22.1792 68.8418 30.6164 68.8418 41.0215Z" stroke="#3BC1CD" stroke-width="5"/>
</svg>
