<svg width="143" height="143" viewBox="0 0 143 143" fill="none" xmlns="http://www.w3.org/2000/svg">
<path d="M121.904 71.2426C88.2921 103.705 54.6807 103.705 21.063 71.2426C54.6744 38.7805 88.2859 38.7805 121.904 71.2426Z" fill="#F9F8F7"/>
<path d="M71.4863 98.7344C53.9226 98.7344 36.3589 90.3098 18.9195 73.4668L16.6145 71.2426L18.9195 69.0184C53.7983 35.3324 89.1742 35.3324 124.053 69.0184L126.358 71.2426L124.053 73.4668C106.614 90.3098 89.05 98.7344 71.4863 98.7344ZM25.5734 71.2426C56.4388 99.6477 86.5338 99.6477 117.399 71.2426C86.5338 42.8375 56.4388 42.8375 25.5734 71.2426Z" fill="#3BC1CD"/>
<path d="M71.4863 88.8744C81.2242 88.8744 89.1183 80.9803 89.1183 71.2424C89.1183 61.5045 81.2242 53.6104 71.4863 53.6104C61.7484 53.6104 53.8542 61.5045 53.8542 71.2424C53.8542 80.9803 61.7484 88.8744 71.4863 88.8744Z" fill="#3BC1CD"/>
<path d="M66.8765 68.6759C69.4225 68.6759 71.4864 66.612 71.4864 64.066C71.4864 61.52 69.4225 59.4561 66.8765 59.4561C64.3305 59.4561 62.2666 61.52 62.2666 64.066C62.2666 66.612 64.3305 68.6759 66.8765 68.6759Z" fill="white"/>
</svg>
