<svg width="102" height="102" viewBox="0 0 102 102" fill="none" xmlns="http://www.w3.org/2000/svg">
<path fill-rule="evenodd" clip-rule="evenodd" d="M28.3259 40.6279H13.2282V58.4803H28.3259L40.1867 70.3045V28.8037L28.3259 40.6279ZM42.2169 72.3284C42.2167 72.3282 42.2171 72.3286 42.2169 72.3284ZM68.1527 77.0671C66.577 78.0968 66.1368 80.2097 67.1723 81.7795C68.1654 83.286 70.266 83.8276 71.8996 82.7571C83.174 75.3777 89.9073 62.9639 89.9073 49.5541C89.9073 36.1443 83.174 23.7318 71.8996 16.3524C70.3238 15.3213 68.2064 15.756 67.1723 17.3301C66.1368 18.9013 66.577 21.0127 68.1527 22.0438C77.5015 28.1614 83.0809 38.4456 83.0809 49.5555C83.0809 60.6654 77.5015 70.9495 68.1527 77.0671ZM38.9849 75.5705C41.1052 77.6847 44.7646 76.1992 44.7646 73.1833V25.9248C44.7646 22.9061 41.1024 21.4263 38.9849 23.5377L26.4338 36.05H12.0361C10.1655 36.05 8.65039 37.5608 8.65039 39.4261V59.6821C8.65039 61.5459 10.1655 63.0581 12.0361 63.0581H26.4338L38.9849 75.5705ZM60.6379 65.7899C59.0593 66.7942 58.5924 68.8944 59.5926 70.4825C60.5109 71.9398 62.572 72.6122 64.2648 71.5319C71.8418 66.707 76.3645 58.4921 76.3645 49.5541C76.3645 40.6175 71.8418 32.4011 64.2648 27.5763C62.6862 26.5719 60.5927 27.0389 59.5926 28.6256C58.5924 30.2124 59.0593 32.3125 60.6379 33.3183C66.2455 36.8898 69.5931 42.9582 69.5931 49.5541C69.5931 56.15 66.2455 62.2183 60.6379 65.7899ZM53.0991 54.4507C54.9189 53.4534 56.0503 51.5769 56.0503 49.5541C56.0503 47.5327 54.9189 45.6548 53.0976 44.6575C51.4598 43.7558 50.8631 41.7035 51.7645 40.0703C52.6702 38.4372 54.7312 37.8506 56.3649 38.741C60.3487 40.927 62.8231 45.0682 62.8231 49.5527C62.8231 54.0371 60.3487 58.1798 56.3663 60.3672C54.7355 61.2604 52.673 60.678 51.7659 59.0379C50.8645 57.4047 51.4612 55.3524 53.0991 54.4507Z" fill="#3BC1CD"/>
<path d="M14.8951 11L86.105 89.767" stroke="#3BC1CD" stroke-width="5" stroke-linecap="round"/>
</svg>
