<svg width="132" height="70" viewBox="0 0 132 70" fill="none" xmlns="http://www.w3.org/2000/svg">
<path d="M118.241 18.8201C112.817 17.8753 94.1598 15.768 82.2683 17.9697C70.6997 20.1099 71.8402 22.9197 71.9547 23.9877C70.0702 22.78 67.8423 22.3651 65.6921 22.3651C63.5419 22.3651 61.31 22.78 59.4255 23.9877C59.544 22.9197 60.66 20.1099 49.0914 17.9697C37.1999 15.768 18.3877 17.8794 12.9631 18.8201C7.53855 19.7649 5 21.141 5 21.141V27.1137C5 27.1137 7.18699 26.2757 8.85892 28.3707C10.2651 30.1371 10.6535 31.6734 12.3418 32.306C12.2764 35.8346 12.6075 41.9634 14.1854 46.5026C16.123 52.0645 19.5118 55.2604 25.153 56.8583C27.8428 57.6224 30.9332 58.0003 33.995 58.0003C37.204 58.0003 40.3884 57.5813 43.0455 56.7474C48.8298 54.9318 53.0525 50.3146 54.937 43.7421C56.6457 37.7735 57.1649 31.9609 56.8583 28.5925C57.3284 28.724 57.7372 28.6007 58.146 28.2023H58.1991C58.2809 28.116 58.3831 28.0257 58.4567 27.9189C59.123 27.2 61.2732 25.3597 65.6962 25.3597C70.1193 25.3597 72.2613 27.2 72.9276 27.9189C73.0012 28.0215 72.9276 28.116 73.0094 28.1941L72.8622 28.2023C73.271 28.5966 73.8842 28.7199 74.3543 28.5884C74.0477 31.9568 74.6895 37.7694 76.4023 43.738C78.2827 50.3064 82.5463 54.9277 88.3306 56.7433C90.9877 57.5772 94.1844 57.9962 97.3974 57.9962C100.61 57.9962 103.554 57.6183 106.243 56.8542C111.885 55.2563 115.269 52.0604 117.203 46.4985C118.785 41.9552 119.092 35.8305 119.026 32.3019C120.714 31.6693 120.952 30.133 122.358 28.3666C124.026 26.2716 126.012 27.1096 126.012 27.1096V21.141C126.012 21.141 123.678 19.7649 118.254 18.8201H118.241ZM11.0623 24.3081C9.10419 24.3081 7.51811 24 7.51811 23.6221C7.51811 23.2442 9.10419 22.9361 11.0623 22.9361C13.0203 22.9361 14.6064 23.2442 14.6064 23.6221C14.6064 24 13.0203 24.3081 11.0623 24.3081ZM53.7311 43.3971C51.9693 49.5464 48.0408 53.8637 42.6735 55.5479C37.7027 57.1089 30.8024 57.15 25.5046 55.6465C20.2272 54.1513 17.2022 51.2923 15.3913 46.0877C13.6907 41.2076 13.5231 34.3886 13.6744 31.2708C14.0668 28.9869 15.2441 24.3204 18.4245 22.6075C22.7003 20.303 31.8939 18.8324 41.0711 20.4057C50.2524 21.979 53.8047 24.2834 55.264 27.011C55.3172 27.1096 55.3703 27.2 55.4276 27.2904C56.1225 29.8413 55.6851 36.5781 53.7311 43.3971ZM116.013 46.0877C114.202 51.2923 111.177 54.1513 105.9 55.6465C100.606 57.15 93.7061 57.1089 88.7312 55.5479C83.3598 53.8637 79.4354 49.5464 77.6736 43.3971C75.7196 36.5781 75.2822 29.8413 75.9771 27.2904C76.0303 27.2 76.0875 27.1096 76.1406 27.011C77.6 24.2876 81.1523 21.979 90.3336 20.4057C99.5108 18.8324 108.704 20.303 112.98 22.6075C116.161 24.3204 117.334 28.9869 117.73 31.2708C117.882 34.3886 117.714 41.2117 116.013 46.0877ZM120.342 24.3081C118.384 24.3081 116.798 24 116.798 23.6221C116.798 23.2442 118.384 22.9361 120.342 22.9361C122.3 22.9361 123.887 23.2442 123.887 23.6221C123.887 24 122.3 24.3081 120.342 24.3081Z" fill="#3BC1CD"/>
<path d="M14.6064 23.6216C14.6064 23.2436 13.0203 22.9355 11.0622 22.9355C9.10415 22.9355 7.51807 23.2436 7.51807 23.6216C7.51807 23.9995 9.10415 24.3076 11.0622 24.3076C13.0203 24.3076 14.6064 23.9995 14.6064 23.6216Z" fill="white"/>
<path d="M120.346 22.9399C118.388 22.9399 116.802 23.248 116.802 23.6259C116.802 24.0039 118.388 24.3119 120.346 24.3119C122.304 24.3119 123.891 24.0039 123.891 23.6259C123.891 23.248 122.304 22.9399 120.346 22.9399Z" fill="white"/>
</svg>
