<svg width="100" height="100" viewBox="0 0 100 100" fill="none" xmlns="http://www.w3.org/2000/svg">
<path d="M49.5696 49.9824C59.4351 49.9824 67.6093 41.9707 67.6093 31.9912C67.6093 22.1523 59.4351 14 49.5696 14C39.5631 14 31.5298 22.1523 31.5298 31.9912C31.5298 41.9707 39.5631 49.9824 49.5696 49.9824ZM49.5696 18.4978C56.8982 18.4978 63.0994 24.6823 63.0994 31.9912C63.0994 39.4407 56.8982 45.4846 49.5696 45.4846C42.1 45.4846 36.0397 39.4407 36.0397 31.9912C36.0397 24.6823 42.1 18.4978 49.5696 18.4978ZM62.6765 54.6208C57.8848 54.4802 56.4754 56.7291 49.5696 56.7291C42.5228 56.7291 41.1134 54.4802 36.3216 54.6208C26.1742 54.9019 18 63.1948 18 73.4554V84.8404C18 85.5432 18.4228 85.9649 19.1275 85.9649H21.3825C21.9462 85.9649 22.5099 85.5432 22.5099 84.8404V73.4554C22.5099 65.8653 28.4292 59.5403 36.0397 59.1186V70.6442C32.6573 71.6281 30.4023 74.5798 30.4023 78.0937C30.4023 82.451 33.9257 85.9649 38.2947 85.9649C42.5228 85.9649 46.1871 82.451 46.1871 78.0937C46.1871 74.5798 43.7912 71.6281 40.5497 70.6442V59.8214C43.3684 60.8052 46.4689 61.2269 49.5696 61.2269C52.5292 61.2269 55.6298 60.8052 58.5894 59.8214V69.5198C54.5023 70.5036 51.8245 74.2987 51.8245 78.5154V82.5915C51.8245 83.2943 51.9654 83.8565 52.3883 84.2782L53.9386 85.6838C54.3613 86.1054 55.0661 86.1054 55.4888 85.6838L57.0391 84.1377C57.462 83.716 57.462 83.0132 57.0391 82.451L56.1936 81.7481V78.0937C56.1936 75.4231 58.7303 73.3148 61.5491 73.7364C63.804 74.0176 65.2134 76.1259 65.2134 78.3748V81.7481L64.5087 82.451C64.0859 83.0132 64.0859 83.716 64.5087 84.1377L66.059 85.6838C66.4818 86.1054 67.1865 86.1054 67.6093 85.6838L69.1596 84.2782C69.5825 83.8565 69.7234 83.2943 69.7234 82.5915V78.0937C69.7234 74.0176 66.9047 70.5036 62.9585 69.5198V59.1186C70.5689 59.6808 76.4883 65.8653 76.4883 73.4554V84.8404C76.4883 85.5432 77.052 85.9649 77.6158 85.9649H79.8707C80.5754 85.9649 80.9982 85.5432 80.9982 84.8404V73.4554C81.1391 63.1948 72.9649 54.9019 62.6765 54.6208ZM41.6772 78.0937C41.6772 80.0615 40.1269 81.4671 38.2947 81.4671C36.3216 81.4671 34.9123 80.0615 34.9123 78.0937C34.9123 76.2665 36.3216 74.7204 38.2947 74.7204C40.1269 74.7204 41.6772 76.2665 41.6772 78.0937Z" fill="#3BC1CD"/>
</svg>
