<svg width="102" height="102" viewBox="0 0 102 102" fill="none" xmlns="http://www.w3.org/2000/svg">
<path d="M37.356 85.0859H43.356" stroke="#3BC1CD" stroke-width="5" stroke-linecap="round"/>
<path d="M58.356 85.0859H64.356" stroke="#3BC1CD" stroke-width="5" stroke-linecap="round"/>
<path d="M44.356 49.586V86.586C44.356 97.3861 34.8558 93.5861 36.3559 86.586V69.5859C36.3559 60.7258 34.356 54.5859 27.856 59.0859C21.356 63.5859 4.85596 47.0859 17.8559 35.0859C32.4842 21.5828 44.3562 40.0862 44.356 49.586Z" stroke="#3BC1CD" stroke-width="5" stroke-linecap="round"/>
<path d="M57.3559 49.1645V86.2973C57.3559 96.0859 65.2538 93.5859 65.2538 86.2973V69.2361C65.2538 60.3443 67.2282 54.1823 73.6453 58.6984C80.0623 63.2146 98.1708 46.1273 83.8558 34.5861C67.856 21.6865 57.3557 39.6306 57.3559 49.1645Z" stroke="#3BC1CD" stroke-width="5" stroke-linecap="round"/>
<path d="M43.856 28.0859C46.1893 25.5859 52.156 22.0859 57.356 28.0859" stroke="#3BC1CD" stroke-width="5" stroke-linecap="round"/>
<path d="M20.356 48.5859C19.6013 47.3761 18.5449 44.2822 20.356 41.5859" stroke="#3BC1CD" stroke-width="3" stroke-linecap="round"/>
<path d="M81.356 41.5859C82.1106 42.7958 83.1671 45.8896 81.356 48.5859" stroke="#3BC1CD" stroke-width="3" stroke-linecap="round"/>
<path d="M40.356 22.586C42.6893 20.086 53.356 13.0859 61.356 22.5862" stroke="#3BC1CD" stroke-width="5" stroke-linecap="round"/>
<path d="M35.856 15.4209C38.1893 12.9209 52.356 4.58594 64.856 15.4204" stroke="#3BC1CD" stroke-width="5" stroke-linecap="round"/>
</svg>
