<svg width="100" height="100" viewBox="0 0 100 100" fill="none" xmlns="http://www.w3.org/2000/svg">
<path fill-rule="evenodd" clip-rule="evenodd" d="M32.1919 43.6997H19V59.2986H32.1919L42.5556 69.6303V33.3681L32.1919 43.6997ZM44.3295 71.3988C44.3293 71.3986 44.3296 71.3989 44.3295 71.3988ZM66.9915 75.5393C65.6146 76.439 65.23 78.2852 66.1348 79.6568C67.0026 80.9732 68.838 81.4464 70.2654 80.5111C80.1166 74.0632 86 63.2163 86 51.4992C86 39.7821 80.1166 28.9364 70.2654 22.4885C68.8885 21.5876 67.0383 21.9674 66.1348 23.3428C65.23 24.7157 65.6146 26.5606 66.9915 27.4615C75.1602 32.8069 80.0353 41.7929 80.0353 51.5004C80.0353 61.2079 75.1602 70.1939 66.9915 75.5393ZM41.5054 74.2316C43.3581 76.0789 46.5556 74.781 46.5556 72.1458V30.8526C46.5556 28.2149 43.3556 26.9219 41.5054 28.7668L30.5386 39.6997H17.9583C16.3239 39.6997 15 41.0198 15 42.6496V60.3488C15 61.9773 16.3239 63.2986 17.9583 63.2986H30.5386L41.5054 74.2316ZM60.4252 65.6856C59.0459 66.5631 58.6379 68.3982 59.5118 69.7859C60.3143 71.0592 62.1152 71.6467 63.5943 70.7028C70.2148 66.4869 74.1667 59.3089 74.1667 51.4992C74.1667 43.6907 70.2148 36.5114 63.5943 32.2956C62.215 31.418 60.3858 31.8261 59.5118 33.2125C58.6379 34.5989 59.0459 36.434 60.4252 37.3128C65.3249 40.4335 68.25 45.7359 68.25 51.4992C68.25 57.2625 65.3249 62.5649 60.4252 65.6856ZM53.838 55.7777C55.4281 54.9063 56.4167 53.2666 56.4167 51.4992C56.4167 49.733 55.4281 48.0921 53.8368 47.2207C52.4057 46.4328 51.8843 44.6395 52.6719 43.2125C53.4633 41.7855 55.2641 41.273 56.6915 42.051C60.1725 43.9611 62.3346 47.5796 62.3346 51.498C62.3346 55.4164 60.1725 59.0361 56.6928 60.9473C55.2678 61.7278 53.4657 61.219 52.6731 59.7858C51.8855 58.3588 52.4069 56.5656 53.838 55.7777Z" fill="#3BC1CD"/>
</svg>
