<svg width="131" height="131" viewBox="0 0 131 131" fill="none" xmlns="http://www.w3.org/2000/svg">
<path d="M55.9794 99.0747H74.9936C75.0356 99.0747 75.0735 99.0891 75.1077 99.1233C75.142 99.1576 75.1564 99.1955 75.1564 99.2375C75.1564 99.2795 75.142 99.3174 75.1077 99.3516C75.0735 99.3859 75.0356 99.4003 74.9936 99.4003H55.9794C55.9374 99.4003 55.8995 99.3859 55.8653 99.3516C55.831 99.3174 55.8167 99.2795 55.8167 99.2375C55.8167 99.1955 55.831 99.1576 55.8653 99.1233C55.8995 99.0891 55.9374 99.0747 55.9794 99.0747Z" stroke="#3BC1CD" stroke-width="5"/>
<path d="M63.0571 111.739L62.752 109.739L60.7325 109.62C59.7254 109.561 58.832 109.113 58.1974 108.43H72.7657C72.1319 109.113 71.2405 109.561 70.2391 109.62L68.2114 109.74L67.9134 111.749C67.7369 112.94 66.7108 113.848 65.486 113.848C64.2695 113.848 63.2413 112.946 63.0571 111.739Z" stroke="#3BC1CD" stroke-width="5"/>
<path d="M45.8965 27.029L45.8965 27.029L41.0366 20.3366L41.0366 20.3365C40.6955 19.8667 40.0402 19.7548 39.5542 20.1031C39.0793 20.4504 38.9855 21.1102 39.3171 21.5639L39.3215 21.57L39.3215 21.57L44.1812 28.2622C44.1812 28.2623 44.1813 28.2624 44.1813 28.2624C44.3884 28.5474 44.7042 28.6995 45.044 28.6995C45.2532 28.6995 45.4745 28.6332 45.6608 28.4982L45.8965 27.029ZM45.8965 27.029L45.9009 27.0351M45.8965 27.029L45.9009 27.0351M45.9009 27.0351C46.2331 27.4896 46.1384 28.151 45.6612 28.4979L45.9009 27.0351Z" stroke="#3BC1CD" stroke-width="5"/>
<path d="M23.527 42.1598L23.5282 42.156C23.7096 41.5966 24.2947 41.2923 24.8655 41.4751C24.8663 41.4754 24.8671 41.4756 24.8679 41.4759L32.7272 44.035C32.7273 44.035 32.7274 44.035 32.7276 44.0351C33.2761 44.2142 33.5833 44.8167 33.4035 45.3683L33.4035 45.3683L33.4007 45.3768C33.2595 45.8151 32.8513 46.1037 32.3987 46.1037C32.2633 46.1037 32.1602 46.0847 32.0856 46.0598L32.0774 46.0571L32.0691 46.0544L24.2032 43.4932C23.6544 43.3142 23.3471 42.7115 23.527 42.1598Z" stroke="#3BC1CD" stroke-width="5"/>
<path d="M106.784 68.1028L106.918 68.1464C107.39 68.373 107.631 68.9153 107.465 69.4286L107.463 69.4333C107.322 69.8716 106.914 70.1602 106.461 70.1602C106.333 70.1602 106.239 70.1432 106.158 70.1163L106.149 70.1131L106.139 70.11L98.2722 67.5586C97.7134 67.3773 97.4099 66.7839 97.5903 66.2245C97.772 65.6705 98.3596 65.3707 98.9166 65.5514L106.784 68.1028Z" stroke="#3BC1CD" stroke-width="5"/>
<path d="M32.0654 65.5517L32.065 65.549C32.6342 65.3819 33.2047 65.6892 33.3832 66.2366C33.5601 66.7792 33.265 67.3756 32.7006 67.5586L24.8581 70.1021C24.705 70.1474 24.5926 70.1602 24.5115 70.1602C24.0589 70.1602 23.6506 69.8717 23.5094 69.4333L23.5094 69.4333L23.5067 69.4249C23.3324 68.8904 23.6269 68.2872 24.1915 68.1022C24.192 68.102 24.1925 68.1018 24.1931 68.1016L32.0654 65.5517Z" stroke="#3BC1CD" stroke-width="5"/>
<path d="M106.783 43.5028L98.9401 46.0463C98.7871 46.0916 98.6746 46.1044 98.5935 46.1044C98.1491 46.1044 97.7326 45.8128 97.5899 45.3729C97.411 44.821 97.714 44.2195 98.2737 44.0361C98.2742 44.036 98.2746 44.0359 98.2751 44.0357L106.134 41.4869C106.135 41.4867 106.135 41.4866 106.135 41.4864C106.677 41.3127 107.284 41.6176 107.465 42.1688C107.645 42.7281 107.341 43.3216 106.783 43.5028Z" stroke="#3BC1CD" stroke-width="5"/>
<path d="M89.9556 20.3267L89.9555 20.3268L85.0957 27.0192C85.0957 27.0192 85.0957 27.0192 85.0957 27.0192C84.7507 27.4944 84.8635 28.1516 85.3229 28.4823L85.331 28.4881L85.331 28.4881C85.5173 28.6234 85.7388 28.6897 85.9482 28.6897C86.288 28.6897 86.6037 28.5377 86.8108 28.2526L89.9556 20.3267ZM89.9556 20.3267C90.3046 19.8461 90.9593 19.7449 91.4326 20.0894L91.4326 20.0894L91.4434 20.0972C91.9028 20.4278 92.0156 21.085 91.6707 21.5602C91.6706 21.5603 91.6706 21.5603 91.6706 21.5603L86.8109 28.2525L89.9556 20.3267Z" stroke="#3BC1CD" stroke-width="5"/>
<path d="M88.6724 55.9246V56.6254C88.5217 61.7573 86.6971 66.4601 83.722 70.2315L83.7215 70.2321C80.7775 73.9668 77.5493 78.7655 75.0571 82.9158L74.7004 83.5099V84.2028V90.005H56.1402V83.9699V83.287L55.7931 82.699C53.2573 78.4037 50.3493 74.1395 47.2608 70.2219L47.2603 70.2213C44.1522 66.2814 42.2998 61.3248 42.2998 55.9246C42.2998 43.1206 52.6821 32.7383 65.4861 32.7383C78.2901 32.7383 88.6724 43.1206 88.6724 55.9246Z" stroke="#3BC1CD" stroke-width="5"/>
</svg>
