<svg width="170" height="170" viewBox="0 0 170 170" fill="none" xmlns="http://www.w3.org/2000/svg">
<path d="M28.022 115C33.3553 115.667 45.222 115.4 50.022 109" stroke="#3BC1CD" stroke-width="6"/>
<path d="M40.022 77C43.1886 81.3333 51.222 87.4 58.022 77" stroke="#3BC1CD" stroke-width="6"/>
<path d="M88.5221 93.5002C94.3554 97.0002 106.522 100.7 108.522 87.5002C111.022 71.0002 98.0221 65.0002 88.5221 65.5002C79.0221 66.0002 93.5221 49.5004 105.522 55.0004C117.522 60.5004 119.522 64.4515 119.522 87.5002C119.522 93.5002 114.355 97.5 112.522 91" stroke="#3BC1CD" stroke-width="6"/>
<path d="M140.022 72V88" stroke="#3BC1CD" stroke-width="6" stroke-linecap="round"/>
<path d="M150.022 64L150.022 97" stroke="#3BC1CD" stroke-width="6" stroke-linecap="round"/>
<path d="M161.022 54L161.022 106" stroke="#3BC1CD" stroke-width="6" stroke-linecap="round"/>
<path d="M89.0221 12H28.0221C3.85787 12 21.735 27.8822 13.9274 28.9443C13.3588 29.0216 12.7936 29.2532 12.4279 29.6954C1.5541 42.8455 12.9337 54.0068 22.6929 59.3227C22.9115 59.4418 23.1048 59.5933 23.2595 59.7883C27.1115 64.6439 29.2264 76.2921 23.0221 82C11.0665 92.999 16.7968 94.5454 22.2766 97.5757C22.7558 97.8406 23.3278 97.8911 23.8692 97.8092C29.3136 96.9859 22.0258 107.624 28.0221 121C37.0533 141.146 53.776 135.352 63.9152 130.204C65.4828 129.408 67.2926 130.814 66.8514 132.516L61.6708 152.498C61.3424 153.765 62.2984 155 63.6068 155H101.371C102.699 155 103.662 153.73 103.318 152.447C101.804 146.797 99.3828 136.844 98.0221 128C96.0221 115 112.022 110 118.022 107C124.022 104 133.022 101 133.022 62C133.022 23 99.0221 12 89.0221 12Z" stroke="#3BC1CD" stroke-width="6"/>
<path d="M41.022 39.0002C35.3553 34.6669 24.022 30.0002 24.022 46.0002C24.022 62.0002 49.3553 52.6669 62.022 46.0002C69.3553 43.3335 85.422 41.8 91.022 57" stroke="#3BC1CD" stroke-width="6"/>
<circle cx="93.0621" cy="81.7125" r="4.78767" stroke="#3BC1CD" stroke-width="3"/>
<path d="M86.4049 84.3014C82.2131 78.7534 77.3063 66.326 91.2131 61" stroke="#3BC1CD" stroke-width="6"/>
</svg>
