<svg width="100" height="100" viewBox="0 0 100 100" fill="none" xmlns="http://www.w3.org/2000/svg">
<path d="M94.9213 53.9986C65.5773 82.3392 36.2332 82.3392 6.88379 53.9986C36.2278 25.658 65.5718 25.658 94.9213 53.9986Z" fill="#F9F8F7"/>
<path d="M50.9051 78C35.5713 78 20.2376 70.645 5.01232 55.9405L3 53.9986L5.01232 52.0568C35.4629 22.6477 66.3473 22.6477 96.7978 52.0568L98.8102 53.9986L96.7978 55.9405C81.5726 70.645 66.2388 78 50.9051 78V78ZM10.8215 53.9986C37.7681 78.7973 64.0421 78.7973 90.9887 53.9986C64.0421 29.2 37.7681 29.2 10.8215 53.9986Z" fill="#3BC1CD"/>
<path d="M50.9051 69.3923C59.4067 69.3923 66.2985 62.5004 66.2985 53.9989C66.2985 45.4973 59.4067 38.6055 50.9051 38.6055C42.4036 38.6055 35.5117 45.4973 35.5117 53.9989C35.5117 62.5004 42.4036 69.3923 50.9051 69.3923Z" fill="#3BC1CD"/>
<path d="M46.8806 51.7583C49.1033 51.7583 50.9052 49.9564 50.9052 47.7336C50.9052 45.5109 49.1033 43.709 46.8806 43.709C44.6578 43.709 42.856 45.5109 42.856 47.7336C42.856 49.9564 44.6578 51.7583 46.8806 51.7583Z" fill="white"/>
</svg>
