<svg width="404" height="274" viewBox="0 0 404 274" fill="none" xmlns="http://www.w3.org/2000/svg">
<path d="M404 199.207C404 199.587 404 199.966 403.981 200.345C403.981 200.724 403.961 201.103 403.932 201.482C403.913 201.89 403.883 202.289 403.854 202.707C403.796 203.533 403.709 204.36 403.592 205.186C403.543 205.516 403.495 205.847 403.446 206.177C403.398 206.498 403.339 206.809 403.281 207.12C403.233 207.383 403.184 207.645 403.126 207.918C403.077 208.199 403.009 208.491 402.941 208.773C402.883 209.055 402.805 209.337 402.747 209.619C402.456 210.805 402.106 211.981 401.698 213.147C401.611 213.391 401.523 213.653 401.436 213.906C401.339 214.188 401.232 214.47 401.115 214.752C400.999 215.033 400.892 215.306 400.775 215.588C400.659 215.869 400.542 216.151 400.426 216.424C400.056 217.26 399.658 218.096 399.241 218.932C398.677 220.03 398.055 221.129 397.376 222.208C397.21 222.48 397.045 222.742 396.861 223.014C396.501 223.578 396.123 224.132 395.724 224.687C395.355 225.202 394.976 225.707 394.588 226.213C394.335 212.428 391.081 201.784 384.797 193.715C378.629 185.802 369.547 180.436 357.309 177.549C350.034 175.818 341.632 174.963 332.064 174.963H331.715C301.973 174.963 288.199 155.841 285.247 137.916C283.217 125.638 285.791 111.251 294.192 98.8852C297.272 94.326 301.157 90.039 305.887 86.238C306.315 87.1227 306.761 87.9878 307.218 88.8433C307.441 89.271 307.674 89.7085 307.917 90.1362C307.995 90.2918 308.082 90.4473 308.17 90.6028C308.558 91.3125 308.957 92.0027 309.355 92.6929C310.093 93.9663 310.87 95.2106 311.676 96.4452C322.351 112.757 337.202 126.309 354.774 134.815C365.526 140.025 375.142 146.888 382.952 154.753C383.602 155.404 384.243 156.065 384.875 156.736C386.128 158.068 387.322 159.438 388.469 160.819C389.051 161.509 389.605 162.199 390.149 162.909C390.965 163.968 391.752 165.038 392.5 166.107C393.5 167.546 394.452 168.994 395.336 170.472C400.872 179.678 404 189.496 404 199.188V199.207Z" fill="#C7F2F2"/>
<path d="M392.83 228.361C392.082 229.246 391.276 230.111 390.441 230.976C390.081 231.346 389.722 231.705 389.343 232.075C388.848 232.57 388.333 233.047 387.799 233.533C362.486 256.533 257.564 265.068 177.654 264.446C177.13 264.446 176.605 264.446 176.09 264.446C174.828 264.446 173.584 264.417 172.341 264.397C171.943 264.397 171.535 264.397 171.156 264.378C170.194 264.378 169.233 264.349 168.281 264.329C162.569 264.232 157.014 264.086 151.662 263.902C149.311 263.814 146.99 263.727 144.717 263.62C163.366 253.15 172.661 243.098 173.924 232.075C175.935 214.586 157.509 195.144 127.845 168.08C122.609 163.298 117.024 158.291 111.148 153.013C104.796 147.306 98.2197 141.406 91.2845 135.087C74.4613 119.757 65.0589 105.194 63.1648 91.6334C63.1454 91.5654 63.1357 91.4876 63.126 91.4098C63.262 91.3807 63.3882 91.3612 63.5242 91.3515C65.4571 91.0696 67.3901 90.9432 69.3327 90.9918C96.1993 91.6431 130.565 87.7061 165.279 40.6169C200.004 -6.46259 239.838 0.342204 239.838 0.342204C253.669 1.52818 268.181 8.16772 278.088 17.7625C288.472 27.8239 291.055 39.567 294.426 53.0988C294.698 54.1973 294.98 55.2958 295.261 56.3846C295.97 59.087 296.718 61.7895 297.515 64.4628C297.961 65.9891 298.428 67.4958 298.933 69.0026C299.176 69.7706 299.438 70.5288 299.7 71.2968C299.846 71.7245 299.992 72.1328 300.137 72.5605C300.341 73.1535 300.555 73.7368 300.769 74.3104C300.982 74.9033 301.196 75.4866 301.429 76.0602C301.652 76.6434 301.866 77.2267 302.109 77.81C302.808 79.55 303.537 81.2707 304.314 82.9719C304.547 83.5065 304.8 84.0412 305.042 84.5661L305.091 84.6731C300.468 88.3574 296.446 92.6153 293.105 97.3883C292.357 98.4674 291.638 99.5659 290.968 100.694C284.033 112.203 281.371 125.521 283.469 138.198C285.276 149.134 290.405 158.525 298.301 165.349C306.907 172.785 318.437 176.713 331.686 176.713H332.026C341.7 176.713 350.141 177.597 357.396 179.376C368.965 182.205 377.551 187.319 383.369 194.784C389.732 202.95 392.869 213.935 392.801 228.332L392.83 228.361Z" fill="#C7F2F2"/>
<path d="M172.176 231.871C170.952 242.525 161.559 252.343 142.618 262.764C142.191 262.998 141.802 263.231 141.414 263.464C140.307 263.416 139.199 263.348 138.121 263.289C137.276 263.241 136.45 263.202 135.615 263.153C135.062 263.114 134.508 263.085 133.954 263.046C132.672 262.968 131.419 262.891 130.176 262.803C129.661 262.764 129.156 262.735 128.641 262.696C128.495 262.696 128.35 262.677 128.214 262.667C127.262 262.599 126.31 262.521 125.387 262.453C124.824 262.405 124.27 262.366 123.717 262.317C122.522 262.22 121.347 262.123 120.181 262.016C117.636 261.783 115.198 261.549 112.857 261.296C112.304 261.238 111.76 261.17 111.216 261.112C110.652 261.053 110.099 260.985 109.545 260.917C108.447 260.781 107.369 260.655 106.33 260.509C81.7944 257.243 55.2872 256.144 34.2193 241.611C17.4446 230.033 5.50713 208.375 1.49559 189.02C-3.67182 164.114 4.95348 137.994 21.1648 118.823C21.5145 118.396 21.8836 117.978 22.2527 117.55C22.816 116.899 23.3988 116.257 24.001 115.596C24.8266 114.692 25.6814 113.798 26.575 112.894C26.847 112.621 27.119 112.339 27.4006 112.067C28.1583 111.319 28.9256 110.57 29.7221 109.841C30.9362 108.713 32.1892 107.596 33.4811 106.497C33.8988 106.157 34.3067 105.797 34.7341 105.467C34.8895 105.33 35.0546 105.204 35.2197 105.068C35.7054 104.669 36.2105 104.281 36.7059 103.892C37.0361 103.629 37.3858 103.367 37.716 103.114C38.1726 102.774 38.6291 102.424 39.105 102.093C39.5033 101.811 39.9015 101.53 40.2997 101.257C41.1739 100.645 42.0481 100.071 42.9514 99.5075C43.3982 99.2256 43.8548 98.9437 44.3016 98.6715C44.3307 98.6521 44.3501 98.6424 44.3696 98.6229C44.7969 98.3702 45.234 98.1077 45.6614 97.8647C46.1179 97.6022 46.5745 97.3397 47.0407 97.0967C47.9537 96.5912 48.8862 96.1149 49.8381 95.6677C50.3043 95.4441 50.7705 95.2302 51.2465 95.0164C51.7224 94.8025 52.1984 94.5984 52.6743 94.4039C53.1503 94.1998 53.6262 94.0151 54.1022 93.8304C55.0638 93.4707 56.0254 93.1305 56.987 92.8388C57.4726 92.693 57.9583 92.5472 58.444 92.4111C58.8519 92.2945 59.2502 92.1875 59.6678 92.0903C59.8038 92.0417 59.9398 92.0223 60.0855 91.9931C60.4934 91.8959 60.9014 91.8084 61.3093 91.7306C61.3288 91.7112 61.3482 91.7112 61.3676 91.7112C61.4162 92.1097 61.4842 92.5083 61.5522 92.8972C63.8153 106.585 73.3537 121.137 90.0798 136.36C97.015 142.689 103.591 148.59 109.943 154.306C115.489 159.283 120.773 164.017 125.727 168.537C155.517 195.669 174.079 214.995 172.146 231.851L172.176 231.871Z" fill="#C7F2F2"/>
<path d="M172.176 231.871C171.534 237.489 168.611 242.875 163.22 248.241C158.393 253.043 151.574 257.836 142.618 262.764C142.191 262.998 141.802 263.231 141.414 263.464C140.307 263.416 139.199 263.348 138.121 263.289C137.276 263.241 136.45 263.202 135.615 263.153C135.062 263.114 134.508 263.085 133.954 263.046C132.672 262.969 131.419 262.891 130.176 262.803C129.661 262.764 129.156 262.735 128.641 262.696C128.495 262.696 128.35 262.677 128.214 262.667C127.262 262.599 126.31 262.521 125.387 262.453C124.824 262.405 124.27 262.366 123.717 262.317C122.522 262.22 121.347 262.123 120.181 262.016C117.636 261.783 115.198 261.549 112.857 261.296C112.304 261.238 111.76 261.17 111.216 261.112C110.652 261.053 110.099 260.985 109.545 260.917C108.447 260.781 107.369 260.655 106.33 260.509C86.2042 257.826 64.7575 256.611 46.0597 248.231C41.9607 246.394 38.0074 244.216 34.2193 241.611C17.4446 230.033 5.50713 208.375 1.49559 189.02C-3.67182 164.114 4.95348 137.994 21.1648 118.823C21.5145 118.396 21.8836 117.978 22.2527 117.55C22.816 116.899 23.3988 116.257 24.001 115.596C24.8266 114.692 25.6814 113.798 26.575 112.894C26.847 112.621 27.119 112.339 27.4006 112.067C28.1583 111.319 28.9256 110.57 29.7221 109.841C30.9362 108.713 32.1892 107.596 33.4811 106.497C33.8988 106.157 34.3067 105.797 34.7341 105.467C34.8895 105.331 35.0546 105.204 35.2197 105.068C35.7054 104.669 36.2105 104.281 36.7059 103.892C37.0361 103.629 37.3858 103.367 37.716 103.114C38.1726 102.774 38.6291 102.424 39.105 102.093C39.5033 101.811 39.9015 101.53 40.2997 101.257C41.1739 100.645 42.0481 100.062 42.9514 99.5076C43.3982 99.2256 43.8548 98.9437 44.3016 98.6715C44.3307 98.6521 44.3501 98.6424 44.3696 98.6229C44.7969 98.3702 45.234 98.1077 45.6614 97.8647C46.1179 97.6022 46.5745 97.3397 47.0407 97.0967C47.9537 96.5912 48.8862 96.1052 49.8381 95.6677C50.3043 95.4441 50.7705 95.2303 51.2465 95.0164C51.7224 94.8025 52.1984 94.5984 52.6743 94.404C53.1503 94.1998 53.6262 94.0151 54.1022 93.8304C55.0541 93.461 56.0254 93.1208 56.987 92.8389C57.4726 92.693 57.9583 92.5472 58.444 92.4111C58.8519 92.2945 59.2502 92.1875 59.6678 92.0903C59.8038 92.0417 59.9398 92.0223 60.0855 91.9931C60.4934 91.8959 60.9014 91.8084 61.3093 91.7306C61.3288 91.7112 61.3482 91.7112 61.3676 91.7112C61.9407 91.5848 62.5235 91.4876 63.1063 91.4001C63.2423 91.371 63.3685 91.3515 63.5045 91.3418C63.3783 91.4293 63.2714 91.5265 63.1451 91.6237C62.6109 92.0417 62.0767 92.4597 61.5619 92.9069C48.4588 103.921 38.6388 122.537 46.5065 153.878C57.0647 195.922 88.7394 177.15 125.737 168.547C155.527 195.679 174.089 215.004 172.156 231.861L172.176 231.871Z" fill="#AFE8E6"/>
<path d="M392.83 228.361C392.082 229.246 391.276 230.111 390.441 230.976C390.081 231.346 389.722 231.705 389.343 232.075C388.848 232.571 388.333 233.047 387.799 233.533C381.427 239.327 370.004 244.197 355.201 248.241C311.23 260.256 237.439 264.913 177.654 264.446C177.129 264.446 176.605 264.446 176.09 264.446C174.827 264.446 173.584 264.417 172.341 264.398C171.943 264.398 171.535 264.398 171.156 264.378C170.194 264.378 169.233 264.349 168.281 264.33C162.569 264.232 157.013 264.087 151.661 263.902C149.311 263.814 146.989 263.717 144.717 263.62C153.934 258.448 160.85 253.374 165.658 248.241C170.592 242.982 173.283 237.655 173.924 232.075C175.935 214.586 157.509 195.144 127.845 168.081C151.118 162.938 176.362 162.316 199.693 183.605C256.7 235.613 358.989 224.551 357.425 179.396C368.994 182.225 377.58 187.338 383.398 194.804C389.761 202.97 392.898 213.955 392.83 228.352V228.361Z" fill="#BFEFEF"/>
<path d="M293.134 97.3981C290.686 93.7623 288.569 89.5823 286.879 84.6148C282.896 72.9008 286.985 63.1796 295.271 56.3943C295.98 59.0968 296.728 61.7992 297.524 64.4726C297.971 65.9988 298.447 67.5055 298.942 69.0123C299.185 69.7803 299.447 70.5385 299.71 71.3065C299.855 71.7342 300.001 72.1425 300.147 72.5703C300.351 73.1633 300.564 73.7465 300.778 74.3201C300.992 74.9131 301.205 75.4963 301.439 76.0699C301.662 76.6531 301.876 77.2364 302.118 77.8197C302.818 79.5598 303.546 81.2804 304.323 82.9816C304.556 83.5163 304.809 84.0509 305.052 84.5759L305.1 84.6828C300.477 88.3671 296.456 92.625 293.114 97.3981H293.134Z" fill="#BFEFEF"/>
<path d="M404 199.207C404 199.587 404 199.966 403.98 200.345C403.98 200.724 403.961 201.103 403.932 201.482C403.912 201.89 403.883 202.289 403.854 202.707C403.796 203.533 403.708 204.36 403.592 205.186C403.543 205.516 403.495 205.847 403.446 206.177C403.398 206.498 403.339 206.809 403.281 207.12C403.232 207.383 403.184 207.645 403.126 207.918C403.077 208.199 403.009 208.491 402.941 208.773C402.883 209.055 402.805 209.337 402.747 209.619C402.455 210.805 402.106 211.981 401.698 213.147C401.61 213.391 401.523 213.653 401.436 213.906C401.338 214.188 401.232 214.47 401.115 214.752C400.998 215.033 400.892 215.306 400.775 215.588C400.658 215.869 400.542 216.151 400.425 216.424C400.066 217.269 399.668 218.096 399.24 218.932C398.677 220.03 398.055 221.129 397.375 222.208C397.21 222.48 397.045 222.742 396.861 223.014C396.501 223.578 396.122 224.132 395.724 224.687C395.355 225.202 394.976 225.707 394.588 226.213C394.335 212.428 391.081 201.784 384.797 193.715C378.629 185.802 369.547 180.436 357.309 177.549C357.037 174.671 356.337 171.677 355.21 168.547C338.64 122.838 310.141 120.913 294.173 98.8852C297.252 94.326 301.137 90.039 305.868 86.238C306.295 87.1227 306.742 87.9878 307.198 88.8433C307.422 89.271 307.655 89.7085 307.898 90.1362C307.975 90.2918 308.063 90.4473 308.15 90.6028C308.539 91.3125 308.937 92.0027 309.335 92.6929C310.073 93.9663 310.85 95.2106 311.657 96.4452C322.331 112.757 337.183 126.309 354.754 134.815C365.506 140.025 375.122 146.888 382.932 154.753C383.583 155.404 384.224 156.065 384.855 156.736C386.108 158.068 387.303 159.438 388.449 160.819C389.032 161.509 389.585 162.199 390.129 162.909C390.945 163.968 391.732 165.038 392.48 166.107C393.48 167.546 394.432 168.994 395.316 170.472C400.853 179.678 403.98 189.496 403.98 199.188L404 199.207Z" fill="#BFEFEF"/>
<path d="M382.224 138.479C382.049 138.479 381.874 138.431 381.728 138.324C381.612 138.246 370.082 130.197 331.249 97.0091C292.124 63.5781 293.533 17.7235 293.542 17.2666C293.562 16.7806 293.96 16.4014 294.455 16.4209C294.941 16.4403 295.32 16.8486 295.3 17.3347C295.281 17.7818 293.931 62.8102 332.385 95.6676C371.112 128.758 382.612 136.798 382.729 136.876C383.127 137.157 383.224 137.702 382.952 138.1C382.777 138.353 382.505 138.479 382.224 138.479Z" fill="#D7F8F9"/>
<path d="M328.471 147.919H274.835V145.274H325.829V125.064H328.471V147.919Z" fill="#A6D8DD"/>
<path d="M270.81 149.07L270.81 191.069L223.604 191.069L223.604 188.418L268.166 188.418L268.166 149.07L270.81 149.07Z" fill="#A6D8DD"/>
<path d="M276.953 122.236H253.496V119.591H274.311V36.2715H290.309V38.9156H276.953V122.236Z" fill="#A6D8DD"/>
<path d="M233.797 109.336H196.78V52.8752H199.422V106.691H233.797V109.336Z" fill="#A6D8DD"/>
<path d="M305.829 58.1926C316.295 58.1926 324.78 49.7013 324.78 39.2267C324.78 28.7521 316.295 20.2607 305.829 20.2607C295.363 20.2607 286.879 28.7521 286.879 39.2267C286.879 49.7013 295.363 58.1926 305.829 58.1926Z" fill="white"/>
<path d="M324.789 39.2267C324.789 28.7473 316.299 20.2607 305.838 20.2607C299.204 20.2607 293.367 23.6826 289.986 28.8445C292.046 31.9747 296.038 34.823 303.604 35.8632C315.717 37.5255 313.366 49.0839 309.724 57.7941C318.329 55.9956 324.789 48.3743 324.789 39.2267Z" fill="#F8FCFF"/>
<path d="M198.129 55.2375C208.595 55.2375 217.08 46.7462 217.08 36.2716C217.08 25.797 208.595 17.3057 198.129 17.3057C187.663 17.3057 179.179 25.797 179.179 36.2716C179.179 46.7462 187.663 55.2375 198.129 55.2375Z" fill="white"/>
<path d="M198.129 17.3057C187.658 17.3057 179.179 25.8019 179.179 36.2716C179.179 41.4433 181.248 46.1191 184.599 49.541C192 48.3064 199.955 44.3985 199.693 33.2483C199.538 26.5213 200.761 21.5246 202.481 17.8306C201.082 17.5001 199.625 17.3057 198.129 17.3057V17.3057Z" fill="#F8FCFF"/>
<path d="M218.789 207.526C229.255 207.526 237.74 199.034 237.74 188.56C237.74 178.085 229.255 169.594 218.789 169.594C208.323 169.594 199.839 178.085 199.839 188.56C199.839 199.034 208.323 207.526 218.789 207.526Z" fill="white"/>
<path d="M217.303 187.928C207.58 186.139 205.035 180.715 204.997 175.572C201.811 178.965 199.839 183.524 199.839 188.55C199.839 199.029 208.328 207.516 218.789 207.516C222.966 207.516 226.812 206.145 229.94 203.861C230.173 197.27 227.9 189.872 217.303 187.918V187.928Z" fill="#F8FCFF"/>
<path d="M327.411 127.31C337.877 127.31 346.362 118.819 346.362 108.344C346.362 97.8695 337.877 89.3782 327.411 89.3782C316.945 89.3782 308.461 97.8695 308.461 108.344C308.461 118.819 316.945 127.31 327.411 127.31Z" fill="white"/>
<path d="M346.372 108.344C346.372 97.8647 337.883 89.3782 327.422 89.3782C318.942 89.3782 311.774 94.9484 309.346 102.628C317.175 110.842 332.628 102.502 329.87 110.055C328.005 115.168 328.656 121.925 329.685 127.164C339.087 126.046 346.382 118.056 346.382 108.344H346.372Z" fill="#F8FCFF"/>
<path d="M57.2115 204.972C57.0561 204.972 56.9104 204.894 56.8229 204.749C56.7355 204.593 48.3239 189.409 45.1186 175.984C41.9229 162.607 37.0858 134.504 37.0372 134.222C36.9983 133.979 37.1537 133.755 37.3966 133.716C37.6394 133.677 37.8628 133.833 37.9017 134.076C37.9502 134.358 42.7777 162.423 45.9733 175.78C49.1495 189.088 57.5126 204.175 57.5903 204.321C57.7068 204.535 57.6291 204.797 57.4252 204.923C57.3572 204.962 57.2795 204.982 57.2115 204.982V204.972Z" fill="#334763"/>
<path d="M37.6299 137.595C37.6299 137.595 32.851 132.559 33.5795 124.296C34.3177 116.033 35.8912 110.745 37.0276 112.835C38.1155 114.847 38.5526 117.375 39.0577 119.582C39.9222 123.402 41.01 127.738 40.2524 131.665C40.165 132.093 37.8047 137.789 37.6202 137.605L37.6299 137.595Z" fill="#656BDB"/>
<path d="M42.555 163.531C42.555 163.531 42.147 158.291 46.5277 153.878C50.9083 149.464 54.3662 147.19 54.036 148.949C53.7154 150.641 52.7635 152.313 52.0059 153.829C50.6849 156.454 49.2571 159.487 46.9356 161.383C46.6831 161.587 42.5647 163.725 42.555 163.521V163.531Z" fill="#656BDB"/>
<path d="M38.3875 153.168C38.3875 153.168 39.8153 150.087 35.8524 144.351C31.8894 138.616 26.6831 132.997 28.1887 137.187C29.6942 141.376 30.9763 147.88 33.5795 150.961C36.1826 154.043 38.3875 153.168 38.3875 153.168Z" fill="#656BDB"/>
<path d="M44.3318 177.617C44.1376 177.082 43.6907 176.684 43.2537 176.324C40.9613 174.419 38.5233 172.688 35.9688 171.152C34.6866 170.384 33.3851 169.665 32.0544 169.004C30.9665 168.459 29.1501 168.032 30.2186 170.005C32.2681 173.787 35.2111 177.14 38.9119 179.328C39.9803 179.96 41.2139 180.504 42.4377 180.29C43.6616 180.076 44.7592 178.793 44.3415 177.607L44.3318 177.617Z" fill="#656BDB"/>
<path d="M50.9763 187.221C50.9763 187.221 51.122 184.577 54.0554 179.396C56.9888 174.214 57.9892 174.545 56.5517 181.486C56.1243 183.576 55.9689 185.734 55.1821 187.736C54.881 188.495 54.4342 189.661 53.5503 189.914C52.1516 190.322 50.9083 188.427 50.9763 187.211V187.221Z" fill="#656BDB"/>
<path d="M50.5374 226.271C50.382 226.271 50.2266 226.184 50.1489 226.038C50.0712 225.902 42.7766 212.049 39.4449 206.45C38.3182 204.554 37.2109 202.658 36.0939 200.753C34.1804 197.477 32.2086 194.094 30.1689 190.818C27.7503 186.939 25.0112 182.536 23.1268 177.821C21.3687 173.427 20.2711 168.741 19.2027 164.211L18.8336 162.637C17.3766 156.464 16.1916 145.751 16.1819 145.644C16.1527 145.401 16.3276 145.187 16.5704 145.158C16.8132 145.129 17.0269 145.304 17.0561 145.547C17.0658 145.654 18.2411 156.318 19.6883 162.432L20.0574 164.007C21.1162 168.508 22.2041 173.165 23.9427 177.49C25.8076 182.137 28.5176 186.502 30.9168 190.352C32.9565 193.637 34.938 197.03 36.8515 200.306C37.9588 202.211 39.0661 204.107 40.1929 205.993C43.5342 211.612 50.8482 225.484 50.9259 225.62C51.0425 225.834 50.9551 226.106 50.7414 226.213C50.6734 226.252 50.6054 226.261 50.5374 226.261V226.271Z" fill="#334763"/>
<path d="M16.5603 148.133C13.8892 147.267 13.7921 140.21 13.8698 138.295C13.9184 137.08 14.0932 135.855 14.5303 134.717C14.7634 134.105 15.1325 133.483 15.7444 133.269C16.5992 132.968 17.5025 133.619 18.0367 134.348C18.7847 135.378 19.1635 136.642 19.4257 137.887C19.8628 139.947 20.0182 142.067 19.9017 144.166C19.8531 144.973 19.7657 145.8 19.4354 146.538C19.1052 147.277 18.4933 147.928 17.7162 148.133C17.2888 148.249 16.91 148.24 16.5701 148.133H16.5603Z" fill="#6C2C77"/>
<path d="M14.7833 158.204C12.2482 158.806 9.18855 153.635 8.45034 152.186C7.98411 151.263 7.6053 150.281 7.47903 149.241C7.41103 148.687 7.44989 148.045 7.85784 147.608C8.43092 146.995 9.43137 147.054 10.1793 147.345C11.2283 147.763 12.0636 148.512 12.8018 149.319C14.0257 150.641 15.0456 152.128 15.8324 153.742C16.1335 154.364 16.4054 155.006 16.4443 155.705C16.4831 156.405 16.2695 157.173 15.7158 157.689C15.4147 157.97 15.1039 158.136 14.7833 158.213V158.204Z" fill="#6C2C77"/>
<path d="M10.1795 171.143C12.1124 169.393 17.2798 172.445 18.6299 173.359C19.4847 173.942 20.2909 174.623 20.9028 175.468C21.2331 175.925 21.505 176.499 21.3593 177.082C21.1554 177.899 20.252 178.336 19.4556 178.433C18.3385 178.569 17.2409 178.317 16.2114 177.976C14.5018 177.413 12.8894 176.596 11.4325 175.566C10.8691 175.167 10.3155 174.73 9.94635 174.137C9.57725 173.544 9.3927 172.766 9.62582 172.056C9.75209 171.667 9.94635 171.366 10.1892 171.143H10.1795Z" fill="#6C2C77"/>
<path d="M23.3019 168.596C23.3019 168.596 21.6118 157.873 23.9623 156.396C26.3129 154.918 29.1783 160.362 27.8573 164.328C27.4494 165.563 26.7889 166.797 26.0215 167.847C25.5553 168.498 23.6127 170.54 23.3019 168.586V168.596Z" fill="#6C2C77"/>
<path d="M33.5685 189.691C33.5199 189.642 33.4714 189.584 33.4228 189.525C32.908 188.884 32.5389 188.145 32.2378 187.387C31.4607 185.433 31.0722 183.314 31.1111 181.214C31.1208 180.436 31.1985 179.649 31.5093 178.939C32.4806 176.732 34.6466 177.228 35.8317 178.939C36.9001 180.494 37.4246 182.419 37.2789 184.305C37.1332 186.191 36.327 188.019 35.0352 189.389C34.7244 189.72 34.2775 190.05 33.8502 189.885C33.7433 189.846 33.6559 189.768 33.5685 189.691V189.691Z" fill="#6C2C77"/>
<path d="M32.5877 200.257C32.7042 199.83 32.5683 199.363 32.3934 198.945C31.529 196.923 29.6932 195.377 27.6048 194.726C25.9244 194.201 22.6025 194.065 21.942 196.252C21.6798 197.146 22.146 198.089 22.7288 198.819C24.7297 201.307 28.3527 202.338 31.3638 201.278C31.8301 201.113 32.3254 200.87 32.5294 200.413C32.5488 200.364 32.5683 200.316 32.5877 200.257Z" fill="#6C2C77"/>
<path d="M44.525 206.042C44.3502 206.022 44.1656 205.915 43.9811 205.721C43.0777 204.729 42.3007 202.717 42.0481 201.405C41.6693 199.46 41.9121 197.429 42.7766 195.65C43.2331 194.726 44.0005 193.783 45.0398 193.773C45.7197 193.773 46.3511 194.182 46.7396 194.736C47.1281 195.29 47.3127 195.961 47.4389 196.631C47.7401 198.352 47.6138 200.141 47.1184 201.813C46.9047 202.513 45.7877 206.207 44.5347 206.051L44.525 206.042Z" fill="#6C2C77"/>
<path d="M205.53 31.1194H190.737C189.128 31.1194 187.823 32.4251 187.823 34.0357V40.8989C187.823 42.5095 189.128 43.8152 190.737 43.8152H205.53C207.14 43.8152 208.444 42.5095 208.444 40.8989V34.0357C208.444 32.4251 207.14 31.1194 205.53 31.1194Z" fill="#EA2D44"/>
<path d="M202.355 35.9022H199.703V33.2483H196.566V35.9022H193.914V39.0421H196.566V41.696H199.703V39.0421H202.355V35.9022Z" fill="white"/>
<path d="M193.797 31.1387L193.049 31.0998C193.049 31.0415 193.369 25.7046 198.449 25.7046C199.926 25.7046 201.111 26.1518 201.985 27.0461C203.539 28.6307 203.5 31.0221 203.5 31.129L202.752 31.1095C202.752 31.1095 202.781 28.9223 201.441 27.5613C200.713 26.8225 199.712 26.4434 198.449 26.4434C194.069 26.4434 193.806 30.9346 193.797 31.129V31.1387Z" fill="#619093"/>
<path d="M333.696 103.231H321.127C320.054 103.231 319.185 104.101 319.185 105.175V117.754C319.185 118.828 320.054 119.698 321.127 119.698H333.696C334.769 119.698 335.639 118.828 335.639 117.754V105.175C335.639 104.101 334.769 103.231 333.696 103.231Z" fill="#51D6A6"/>
<path d="M331.812 110.055H329.16V107.401H326.032V110.055H323.371V113.195H326.032V115.849H329.16V113.195H331.812V110.055Z" fill="white"/>
<path d="M331.811 96.3384H322.71V103.231H331.811V96.3384Z" fill="#C5EF5E"/>
<path d="M331.811 102.161V103.231H322.71V100.81C323.749 101.481 325.255 101.928 327.411 101.928C329.004 101.928 330.49 102.015 331.811 102.161V102.161Z" fill="#72CE5B"/>
<path d="M316.018 37.2144L313.871 39.0906L311.987 40.7335L310.549 41.9875L309.626 42.7847L305.071 37.5547L301.662 33.6273H301.652L300.127 31.8775L301.497 30.6818L304.828 27.7752L306.518 26.2976L307.839 27.8141L316.018 37.2144Z" fill="#C1EFF7"/>
<path d="M302.934 25.6948L304.828 27.7751L301.496 30.6818L299.699 28.5626L302.934 25.6948Z" fill="#8EB9C1"/>
<path d="M315.125 40.6168L313.289 42.143L311.987 40.7335L313.872 39.0906L315.125 40.6168Z" fill="#8EB9C1"/>
<path d="M316.494 44.6704V48.8019H296.562V44.4954H298.981C298.981 44.4954 297.942 43.3581 297.699 41.2486C297.631 40.6167 297.641 39.8876 297.757 39.0905C297.903 38.167 298.253 37.3407 298.68 36.631C299.855 34.6868 301.633 33.6272 301.633 33.6272L305.042 37.5545C304.683 37.6906 304.314 37.8559 303.993 38.0892C303.469 38.4392 303.09 38.9447 303.031 39.6543C302.925 41.0347 303.527 42.6095 304.012 43.6108C304.323 44.2524 304.576 44.6704 304.576 44.6704H316.465H316.494Z" fill="#B5DCE5"/>
<path d="M298.7 36.631C299.875 34.6868 301.653 33.6272 301.653 33.6272L305.062 37.5545C304.703 37.6906 304.334 37.8559 304.013 38.0892C303.411 37.7101 302.663 37.3601 301.731 37.0588C300.546 36.6796 299.535 36.5727 298.69 36.631H298.7Z" fill="#8EB9C1"/>
<path d="M304.605 44.6704H298.991C298.991 44.6704 298.816 44.6218 298.515 44.5052H298.991C298.991 44.5052 297.952 43.3678 297.709 41.2583C298.884 42.2499 300.312 43.1928 301.73 43.397C302.663 43.5428 303.42 43.6011 304.032 43.6108C304.343 44.2524 304.596 44.6704 304.596 44.6704H304.605Z" fill="#8EB9C1"/>
<path d="M316.504 46.9258H296.572V48.802H316.504V46.9258Z" fill="#8EB9C1"/>
<path d="M310.55 41.9874L309.627 42.7942L305.072 37.5545L301.663 33.6272L300.138 31.8774L301.507 30.6914L304.849 27.7848L306.539 26.3169L307.86 27.8334C306.519 28.4167 305.062 29.5054 304.849 31.5663C304.538 34.6965 308.831 39.9945 310.57 42.0068L310.55 41.9874Z" fill="#B5DCE5"/>
<path d="M228.833 180.922L225.706 184.052L222.908 181.253L226.036 178.122L228.833 180.922Z" fill="#6794BF"/>
<path d="M229.611 180.154L226.804 177.345C226.551 177.092 226.133 177.092 225.871 177.345C225.619 177.597 225.619 178.015 225.871 178.278L228.678 181.087C228.931 181.34 229.348 181.34 229.611 181.087C229.863 180.834 229.863 180.416 229.611 180.154Z" fill="#334763"/>
<path d="M211.311 196.583L208.523 199.373C208.271 199.625 207.853 199.625 207.591 199.373C207.338 199.12 207.338 198.702 207.591 198.439L210.388 195.64C210.437 195.708 210.495 195.776 210.553 195.844C211.204 196.495 211.204 196.495 211.311 196.573V196.583Z" fill="#501A57"/>
<path d="M214.147 195.62L213.166 196.602C212.564 197.205 211.593 197.205 210.99 196.602L210.398 196.009C209.796 195.406 209.796 194.434 210.398 193.831L211.369 192.859C211.466 193.034 211.593 193.2 211.738 193.355L213.613 195.231C213.768 195.387 213.953 195.523 214.147 195.63V195.62Z" fill="#63C6F8"/>
<path d="M226.337 185.919C226.337 185.919 224.326 187.931 222.189 190.079L220.771 191.499C217.032 195.231 218.819 193.443 216.886 195.377C215.944 196.33 214.409 196.33 213.457 195.377L211.592 193.511C210.65 192.568 210.65 191.032 211.592 190.079L216.896 184.781L219.819 181.845L221.043 180.621L226.337 185.919V185.919Z" fill="#E4EDEF"/>
<path d="M222.189 190.079L221.199 191.071C221.053 191.217 220.898 191.362 220.771 191.499C217.032 195.231 218.819 193.443 216.886 195.377C215.944 196.33 214.409 196.33 213.457 195.377L211.592 193.511C210.65 192.568 210.65 191.032 211.592 190.079L216.896 184.781L222.189 190.079V190.079Z" fill="#EA2D44"/>
<path d="M220.809 191.45L219.877 192.383L218.216 190.721C217.963 190.468 217.963 190.05 218.216 189.788C218.468 189.535 218.886 189.535 219.148 189.788L220.809 191.45Z" fill="#B71C4C"/>
<path d="M218.935 193.326L218.003 194.259L216.371 192.626C216.119 192.373 216.119 191.955 216.371 191.693C216.624 191.44 217.041 191.44 217.304 191.693L218.935 193.326Z" fill="#B71C4C"/>
<path d="M227.852 185.889L220.995 179.026C220.742 178.773 220.325 178.773 220.062 179.026C219.81 179.279 219.81 179.697 220.062 179.959L226.92 186.823C227.172 187.075 227.59 187.075 227.852 186.823C228.105 186.57 228.105 186.152 227.852 185.889Z" fill="#E4EDEF"/>
<path opacity="0.17" d="M226.337 185.919C226.337 185.919 224.326 187.931 222.189 190.079L220.771 191.499C217.032 195.231 218.819 193.443 216.886 195.377C215.944 196.33 214.409 196.33 213.457 195.377L212.428 194.347C214.021 194.075 215.973 193.19 218.032 190.983C218.994 189.953 219.615 188.893 219.985 187.873C220.82 185.559 220.412 183.381 219.819 181.845L221.043 180.621L226.337 185.919V185.919Z" fill="black"/>
<path d="M284.329 65.3069H224.451C222.79 65.3069 221.443 66.6669 221.443 68.3445V150.359C221.443 152.037 222.79 153.397 224.451 153.397H284.329C285.99 153.397 287.336 152.037 287.336 150.359V68.3445C287.336 66.6669 285.99 65.3069 284.329 65.3069Z" fill="#6AA5FE"/>
<path d="M221.443 86.7661V150.359C221.443 152.037 222.789 153.397 224.451 153.397H284.329C285.99 153.397 287.336 152.037 287.336 150.359V137.807L221.443 86.7661Z" fill="#527EE9"/>
<path d="M282.28 69.3699H226.5C225.821 69.3699 225.271 69.9254 225.271 70.6106V148.09C225.271 148.775 225.821 149.331 226.5 149.331H282.28C282.958 149.331 283.508 148.775 283.508 148.09V70.6106C283.508 69.9254 282.958 69.3699 282.28 69.3699Z" fill="#F3F4F6"/>
<path d="M259.386 63.6419C259.39 63.5584 259.399 63.478 259.399 63.3912C259.399 60.5979 257.156 58.3318 254.39 58.3318C251.625 58.3318 249.381 60.5979 249.381 63.3912C249.381 63.4748 249.391 63.5584 249.394 63.6419H242.033V71.3532H266.747V63.6419H259.386V63.6419Z" fill="#1A55B5"/>
<path d="M242.033 63.6418V71.3531H266.747L242.033 63.6418Z" fill="#2C6BC6"/>
<path d="M255.474 66.0147C256.908 65.4108 257.586 63.7471 256.988 62.2986C256.391 60.8501 254.744 60.1654 253.309 60.7692C251.875 61.373 251.198 63.0368 251.795 64.4853C252.393 65.9338 254.04 66.6185 255.474 66.0147Z" fill="#527EE9"/>
<path d="M252.402 61.3855C251.304 62.4945 251.304 64.2945 252.402 65.4035C253.499 66.5124 255.282 66.5124 256.379 65.4035L252.402 61.3855V61.3855Z" fill="#6AA5FE"/>
<g style="mix-blend-mode:multiply">
<path d="M266.747 71.3533H242.033V71.8836H266.747V71.3533Z" fill="#CDE1F9"/>
</g>
<path d="M241.374 82.0312H232.002V91.4976H241.374V82.0312Z" stroke="#1A55B5" stroke-miterlimit="10"/>
<g filter="url(#filter0_d_1_1751)">
<path d="M234.108 86.6054L236.972 88.8811L242.802 83.2078" stroke="#3BC1CD" stroke-width="4" stroke-miterlimit="10"/>
</g>
<path d="M276.417 84.7184H245.873C245.673 84.7184 245.514 84.5545 245.514 84.3552C245.514 84.1527 245.676 83.9919 245.873 83.9919H276.417C276.618 83.9919 276.777 84.1559 276.777 84.3552C276.777 84.5577 276.614 84.7184 276.417 84.7184Z" fill="#6AA5FE"/>
<path d="M276.417 86.3256H245.873C245.673 86.3256 245.514 86.1616 245.514 85.9623C245.514 85.7598 245.676 85.5991 245.873 85.5991H276.417C276.618 85.5991 276.777 85.7631 276.777 85.9623C276.777 86.1649 276.614 86.3256 276.417 86.3256Z" fill="#6AA5FE"/>
<path d="M276.417 87.9327H245.873C245.673 87.9327 245.514 87.7688 245.514 87.5695C245.514 87.367 245.676 87.2063 245.873 87.2063H276.417C276.618 87.2063 276.777 87.3702 276.777 87.5695C276.777 87.772 276.614 87.9327 276.417 87.9327Z" fill="#6AA5FE"/>
<path d="M276.417 89.5399H245.873C245.673 89.5399 245.514 89.376 245.514 89.1767C245.514 88.9742 245.676 88.8135 245.873 88.8135H276.417C276.618 88.8135 276.777 88.9774 276.777 89.1767C276.777 89.3792 276.614 89.5399 276.417 89.5399Z" fill="#6AA5FE"/>
<path d="M241.374 97.2739H232.002V106.74H241.374V97.2739Z" stroke="#1A55B5" stroke-miterlimit="10"/>
<g filter="url(#filter1_d_1_1751)">
<path d="M234.108 101.848L236.972 104.121L242.802 98.4504" stroke="#3BC1CD" stroke-width="4" stroke-miterlimit="10"/>
</g>
<path d="M276.417 99.9611H245.873C245.673 99.9611 245.514 99.7971 245.514 99.5978C245.514 99.3953 245.676 99.2346 245.873 99.2346H276.417C276.618 99.2346 276.777 99.3986 276.777 99.5978C276.777 99.8003 276.614 99.9611 276.417 99.9611Z" fill="#6AA5FE"/>
<path d="M276.417 101.568H245.873C245.673 101.568 245.514 101.404 245.514 101.205C245.514 101.003 245.676 100.842 245.873 100.842H276.417C276.618 100.842 276.777 101.006 276.777 101.205C276.777 101.408 276.614 101.568 276.417 101.568Z" fill="#6AA5FE"/>
<path d="M276.417 103.175H245.873C245.673 103.175 245.514 103.011 245.514 102.812C245.514 102.61 245.676 102.449 245.873 102.449H276.417C276.618 102.449 276.777 102.613 276.777 102.812C276.777 103.015 276.614 103.175 276.417 103.175Z" fill="#6AA5FE"/>
<path d="M276.417 104.783H245.873C245.673 104.783 245.514 104.619 245.514 104.419C245.514 104.217 245.676 104.056 245.873 104.056H276.417C276.618 104.056 276.777 104.22 276.777 104.419C276.777 104.622 276.614 104.783 276.417 104.783Z" fill="#6AA5FE"/>
<path d="M241.374 112.516H232.002V121.983H241.374V112.516Z" stroke="#1A55B5" stroke-miterlimit="10"/>
<g filter="url(#filter2_d_1_1751)">
<path d="M234.108 117.09L236.972 119.363L242.802 113.693" stroke="#3BC1CD" stroke-width="4" stroke-miterlimit="10"/>
</g>
<path d="M276.417 115.203H245.873C245.673 115.203 245.514 115.04 245.514 114.84C245.514 114.638 245.676 114.477 245.873 114.477H276.417C276.618 114.477 276.777 114.641 276.777 114.84C276.777 115.043 276.614 115.203 276.417 115.203Z" fill="#6AA5FE"/>
<path d="M276.417 116.811H245.873C245.673 116.811 245.514 116.647 245.514 116.447C245.514 116.245 245.676 116.084 245.873 116.084H276.417C276.618 116.084 276.777 116.248 276.777 116.447C276.777 116.65 276.614 116.811 276.417 116.811Z" fill="#6AA5FE"/>
<path d="M276.417 118.418H245.873C245.673 118.418 245.514 118.254 245.514 118.055C245.514 117.852 245.676 117.691 245.873 117.691H276.417C276.618 117.691 276.777 117.855 276.777 118.055C276.777 118.257 276.614 118.418 276.417 118.418Z" fill="#6AA5FE"/>
<path d="M276.417 120.025H245.873C245.673 120.025 245.514 119.861 245.514 119.662C245.514 119.459 245.676 119.299 245.873 119.299H276.417C276.618 119.299 276.777 119.463 276.777 119.662C276.777 119.864 276.614 120.025 276.417 120.025Z" fill="#6AA5FE"/>
<path d="M241.374 127.759H232.002V137.225H241.374V127.759Z" stroke="#1A55B5" stroke-miterlimit="10"/>
<g filter="url(#filter3_d_1_1751)">
<path d="M234.108 132.333L236.972 134.606L242.802 128.936" stroke="#3BC1CD" stroke-width="4" stroke-miterlimit="10"/>
</g>
<path d="M276.417 130.446H245.873C245.673 130.446 245.514 130.282 245.514 130.083C245.514 129.88 245.676 129.72 245.873 129.72H276.417C276.618 129.72 276.777 129.884 276.777 130.083C276.777 130.285 276.614 130.446 276.417 130.446Z" fill="#6AA5FE"/>
<path d="M276.417 132.053H245.873C245.673 132.053 245.514 131.889 245.514 131.69C245.514 131.488 245.676 131.327 245.873 131.327H276.417C276.618 131.327 276.777 131.491 276.777 131.69C276.777 131.893 276.614 132.053 276.417 132.053Z" fill="#6AA5FE"/>
<path d="M276.417 133.661H245.873C245.673 133.661 245.514 133.497 245.514 133.297C245.514 133.095 245.676 132.934 245.873 132.934H276.417C276.618 132.934 276.777 133.098 276.777 133.297C276.777 133.5 276.614 133.661 276.417 133.661Z" fill="#6AA5FE"/>
<path d="M276.417 135.268H245.873C245.673 135.268 245.514 135.104 245.514 134.904C245.514 134.702 245.676 134.541 245.873 134.541H276.417C276.618 134.541 276.777 134.705 276.777 134.904C276.777 135.107 276.614 135.268 276.417 135.268Z" fill="#6AA5FE"/>
<path d="M131.566 254.306H127.367L126.188 200.796H132.603L131.566 254.306Z" fill="#AEC3FF"/>
<path d="M149.816 254.306H108.975V250.613L129.79 248.733L149.816 250.613V254.306Z" fill="#AEC3FF"/>
<path d="M105.007 253.727C105.007 251.87 106.511 250.363 108.367 250.363C110.223 250.363 111.726 251.869 111.726 253.727C111.726 255.586 110.222 257.092 108.367 257.092C106.512 257.092 105.007 255.586 105.007 253.727Z" fill="#AEC3FF"/>
<path d="M150.493 256.836C152.207 256.125 153.021 254.157 152.311 252.44C151.601 250.723 149.635 249.907 147.921 250.619C146.206 251.33 145.392 253.298 146.102 255.015C146.813 256.732 148.778 257.547 150.493 256.836Z" fill="#AEC3FF"/>
<path d="M148.352 204.307H110.439C108.503 204.307 106.934 202.736 106.934 200.797H151.858C151.858 202.736 150.289 204.307 148.353 204.307H148.352Z" fill="#AEC3FF"/>
<path d="M101.016 200.796C97.7963 200.796 95.1865 198.183 95.1865 194.958V148.321C95.1865 139.088 101.215 131.602 108.652 131.602H139.102C146.539 131.602 152.567 139.088 152.567 148.321V200.796H101.016Z" fill="#F99746"/>
<path d="M101.619 200.796C99.8541 200.796 98.4219 199.363 98.4219 197.594V148.321C98.4219 139.088 104.45 131.602 111.887 131.602H142.337C149.774 131.602 155.802 139.088 155.802 148.321V200.796H101.619Z" fill="#ED7D2B"/>
<path d="M172.186 200.796H98.7529C96.712 200.796 95.0586 199.14 95.0586 197.097C95.0586 195.053 96.712 193.397 98.7529 193.397H172.186C174.227 193.397 175.88 195.053 175.88 197.097C175.88 199.14 174.227 200.796 172.186 200.796Z" fill="#F99746"/>
<path d="M123.852 73.7204C123.655 73.2561 121.35 68.3196 113.528 71.0139C113.528 71.0139 117.499 70.0119 118.794 71.4324C118.794 71.4324 115.42 70.3586 113.568 71.8295C111.716 73.3004 111.892 77.4686 112.343 78.6875C112.795 79.9063 115.461 83.375 116.925 83.1963C117.479 83.1291 118.049 82.871 118.543 82.5777C118.4 83.2696 118.286 84.0165 118.215 84.8291C117.555 92.3423 123.098 97.3139 125.445 95.6307C126.951 94.5509 128.516 97.2284 128.516 97.2284L139.731 77.8245C139.731 77.8245 129.034 67.7422 123.852 73.7204Z" fill="#2C3A64"/>
<path d="M144.89 119.42C134.268 124.173 126.282 107.393 126.976 107.222C128.037 106.018 129.132 101.733 128.354 95.5635L128.905 95.6017L138.142 96.2859C138.142 96.2859 138.286 99.1559 138.605 101.832C138.815 103.591 139.105 105.268 139.48 106C139.591 106.217 141.593 106.506 141.597 106.51C141.753 106.68 147.724 118.15 144.89 119.418V119.42Z" fill="#FFB27D"/>
<path d="M212.699 256.822H194.083C194.083 256.822 193.636 253.981 194.609 251.826C195.541 249.758 196.136 249.191 195.123 246.799C196.305 248.019 199.762 248.901 202.452 248.537C202.782 249.073 204.582 251.937 205.683 252.73C206.9 253.605 212.324 253.294 212.699 256.822Z" fill="#233862"/>
<path d="M179.92 256.66H161.304C161.304 256.66 160.857 253.819 161.83 251.664C162.762 249.596 164.577 248.212 165.111 245.826C166.293 247.047 166.982 248.737 169.674 248.375C170.004 248.91 171.804 251.775 172.905 252.568C174.122 253.443 179.546 253.132 179.921 256.66H179.92Z" fill="#233862"/>
<path d="M201.633 110.364L203.802 113.379C203.802 113.379 202.853 114.196 201.342 115.494C200.884 115.881 200.608 116.089 200.608 116.089C199.386 117.117 197.882 118.311 196.25 119.62L196.232 119.643C193.383 121.838 190.14 124.254 187.194 126.12C186.927 126.285 186.664 126.447 186.406 126.603C184.62 127.671 182.969 128.508 181.629 128.963C181.475 129.019 181.34 129.053 181.165 129.093C177.26 130.145 169.377 128.774 161.647 126.411C160.579 126.087 159.527 125.74 158.499 125.41C154.705 124.142 151.129 122.69 148.224 121.207C146.481 120.336 144.957 119.463 143.812 118.61C143.403 118.316 143.014 118.038 142.686 117.734C136.409 112.588 139.361 107.592 140.554 107.584C142.042 107.566 144.132 107.96 146.547 108.58C150.354 109.608 155.042 111.241 159.638 112.942C162.164 113.868 164.672 114.816 167.027 115.641C168.435 116.168 169.778 116.642 171.017 117.068C173.392 117.871 175.363 118.458 176.735 118.67C177.628 118.813 179.284 118.499 181.314 117.943C181.853 117.798 182.422 117.631 183.012 117.454C186.285 116.46 190.215 115.001 193.628 113.643C195.309 112.986 196.872 112.342 198.167 111.806C200.263 110.944 201.634 110.361 201.634 110.361L201.633 110.364Z" fill="#FFB27D"/>
<path d="M115.578 169.118C115.578 169.118 111.402 182.154 120.722 188.339C133.209 196.623 167.837 189.562 171.789 193.794C172.79 194.867 169.763 195.409 168.055 210.728C165.599 232.762 163.61 245.087 163.61 245.087C163.61 245.087 164.037 247.607 166.659 248.907C168.378 249.759 170.561 249.232 170.561 249.232C170.561 249.232 195.994 193.316 193.461 185.559C189.074 172.124 164.783 173.44 136.628 165.503C119.434 160.655 115.577 169.119 115.577 169.119L115.578 169.118Z" fill="#93312C"/>
<path d="M128.757 168.834C141.121 167.688 174.859 167.106 182.155 172.127C191.134 178.305 203.34 248.954 203.34 248.954C203.34 248.954 202.402 249.701 200.359 249.901C198.46 250.088 194.337 248.87 194.337 248.87C194.337 248.87 174.275 217.052 173.068 209.09C171.862 201.129 172.483 194.049 169.089 193.811C165.695 193.573 119.069 198.954 115.088 186.176C111.98 176.194 115.706 166.537 115.706 166.537C115.706 166.537 117.349 169.889 128.755 168.834H128.757Z" fill="#B5453C"/>
<path d="M154.464 127.94C155.23 130.745 155.858 133.258 156.166 134.953C157.59 142.76 159.11 167.435 159.11 167.435C146.482 186.955 111.057 180.231 111.057 180.231C110.282 172.831 113.25 156.373 115.052 141.729C115.494 138.139 115.865 134.662 116.097 131.453C116.298 128.653 116.626 126.168 117.048 123.958C120.046 108.307 127.753 106.587 127.753 106.587C131.357 113.596 142.73 115.482 142.73 115.482C142.87 111.539 141.595 106.513 141.595 106.513C143.035 106.686 147.832 107.413 149.203 107.917C150.823 108.513 164.287 114.66 164.287 114.66C164.287 114.66 164.719 124.566 154.464 127.941V127.94Z" fill="#AEC3FF"/>
<path d="M138.143 96.2875C138.143 96.2875 138.285 99.156 138.605 101.833C133.54 102.308 130.309 98.0242 128.904 95.6033L138.143 96.2875Z" fill="#ED985F"/>
<path d="M140.139 98.6167C140.139 98.6167 128.22 100.275 127.303 92.828C126.385 85.3804 124.23 80.5783 131.8 79.2037C139.37 77.829 141.202 80.4882 142.112 82.9C143.023 85.3117 143.215 97.9936 140.139 98.6167Z" fill="#FFB27D"/>
<path d="M141.252 78.802C139.132 76.7874 137.797 77.4503 137.098 78.2186C130.132 75.4235 126.575 81.252 126.575 81.252C126.429 86.694 122.954 90.2269 122.954 90.2269C122.954 90.2269 125.295 91.3067 130.155 89.4006C131.639 88.8186 132.875 87.5601 133.877 86.0938C132.262 89.7503 129.798 92.5454 129.798 92.5454C135.454 89.037 136.842 80.3951 136.973 79.4832C137.782 80.0499 139.394 81.2978 140.002 82.6403C140.829 84.464 141.574 88.336 142.695 88.0641C142.695 88.0641 144.433 81.8232 141.255 78.8005L141.252 78.802Z" fill="#2C3A64"/>
<path d="M201.633 110.364C201.633 110.364 202.673 109.443 203.28 108.531C203.887 107.619 204.13 106.707 205.284 105.916C206.438 105.126 207.713 103.058 207.896 103.423C208.077 103.788 207.289 106.038 207.35 106.281C207.411 106.524 210.628 107.22 211.843 106.872C213.057 106.524 216.093 105.551 216.032 106.159C215.971 106.767 212.754 110.171 211.721 110.779C210.689 111.387 207.592 111.205 206.378 111.63C205.164 112.056 203.803 113.379 203.803 113.379L201.634 110.364H201.633Z" fill="#FFB27D"/>
<path d="M209.594 107.294C209.594 107.294 212.751 104.74 214.127 105.066L211.86 107.294H209.594Z" fill="#FFB27D"/>
<path d="M212.347 109.97L217.122 106.769C217.122 106.769 216.242 106.434 215.271 106.769C214.299 107.103 212.347 109.97 212.347 109.97Z" fill="#FFB27D"/>
<path d="M142.468 166.776C142.264 166.662 118.042 169.312 115.054 141.727C115.496 138.138 115.867 134.66 116.099 131.451C116.3 128.651 116.628 126.166 117.05 123.956C119.232 123.618 121.846 125.968 123.019 129.455C125.433 136.633 142.404 166.478 142.468 166.776Z" fill="#88A6EA"/>
<path d="M157.591 167.856L156.25 171.322C156.25 171.322 155.049 170.972 153.137 170.41C152.565 170.237 152.24 170.118 152.24 170.118C150.714 169.652 148.894 169.043 146.908 168.386L146.879 168.383C143.488 167.189 139.696 165.783 136.528 164.329C136.245 164.195 135.965 164.062 135.694 163.931C133.827 163.013 132.225 162.086 131.113 161.207C130.982 161.11 130.88 161.015 130.752 160.89C127.742 158.185 124.591 150.821 122.354 143.044C122.042 141.972 121.759 140.899 121.473 139.856C120.467 135.98 119.732 132.186 119.39 128.94C119.167 127.002 119.068 125.247 119.158 123.82C119.182 123.316 119.202 122.838 119.277 122.397C120.163 114.323 125.955 114.075 126.611 115.073C127.437 116.313 128.247 118.282 129.045 120.646C130.261 124.402 131.451 129.229 132.532 134.014C133.134 136.639 133.708 139.26 134.301 141.686C134.629 143.155 134.965 144.541 135.282 145.813C135.904 148.245 136.487 150.219 137.059 151.487C137.425 152.315 138.592 153.532 140.165 154.934C140.579 155.307 141.029 155.694 141.499 156.092C144.117 158.298 147.48 160.8 150.479 162.924C151.945 163.977 153.337 164.937 154.493 165.733C156.357 167.024 157.593 167.856 157.593 167.856H157.591Z" fill="#FFB27D"/>
<path d="M157.275 167.971C157.275 167.971 163.315 166.259 164.754 166.659C166.192 167.059 171.122 170.328 170.429 171.215C169.737 172.102 165.394 170.683 163.396 170.952C161.398 171.221 159.853 172.208 158.415 171.995C156.976 171.782 154.472 170.813 154.472 170.813L157.277 167.971H157.275Z" fill="#FFB27D"/>
<path d="M157.275 167.971C157.275 167.971 160.23 166.451 161.072 165.585C161.179 165.477 161.357 165.499 161.439 165.628C161.665 165.984 161.876 166.671 160.839 167.354C159.347 168.337 157.277 167.971 157.277 167.971H157.275Z" fill="#FFB27D"/>
<path d="M125.886 112.482C125.886 112.482 120.255 115.221 118.288 118.971C116.322 122.72 116.081 134.692 119.124 150.256C119.124 150.256 128.302 149.651 134.301 141.686C134.301 141.686 132.073 110.233 125.886 112.482V112.482Z" fill="#AEC3FF"/>
<path d="M128.197 104.125C128.197 104.125 126.143 105.404 126.14 107.301C126.14 107.301 128.565 113.939 142.73 115.481C142.73 115.481 129.692 109.059 128.197 104.125V104.125Z" fill="#88A6EA"/>
<path d="M139.259 105.704C139.259 105.704 142.833 112.278 142.731 115.481C142.731 115.481 142.973 108.203 142.467 106.512C141.96 104.823 138.946 104.125 138.946 104.125L139.257 105.704H139.259Z" fill="#88A6EA"/>
<path d="M136.632 94.6487C136.754 94.6487 137.887 95.6613 139.383 95.3788C140.881 95.0947 140.868 93.9201 140.868 93.9201C140.868 93.9201 139.846 93.7582 138.947 93.9201C138.049 94.082 136.632 94.6502 136.632 94.6502V94.6487Z" fill="white"/>
<path d="M48.3036 81.9899C47.8373 81.9899 47.4488 81.6205 47.4197 81.1442C47.4003 80.6581 47.7694 80.2498 48.255 80.2207C71.1781 79.1708 92.11 75.5351 110.458 69.401C126.456 64.0544 136.927 56.8219 147.786 43.6109C161.326 27.1335 173.876 12.649 190.194 2.15992C190.602 1.89745 191.146 2.01411 191.408 2.42239C191.67 2.83068 191.554 3.37507 191.146 3.63754C175.031 13.9905 162.589 28.3681 149.146 44.7288C138.053 58.2217 127.359 65.6098 111.012 71.0731C92.5083 77.2557 71.4209 80.9206 48.3327 81.9802H48.2939L48.3036 81.9899Z" fill="#D7F8F9"/>
<path d="M163.22 248.241C158.392 253.043 151.574 257.836 142.618 262.764C142.191 262.998 141.802 263.231 141.414 263.464C140.307 263.416 139.199 263.348 138.121 263.289C137.276 263.241 136.45 263.202 135.615 263.153C135.061 263.114 134.508 263.085 133.954 263.046C132.672 262.968 131.419 262.891 130.176 262.803C129.661 262.764 129.156 262.735 128.641 262.696C128.495 262.696 128.35 262.677 128.214 262.667C127.262 262.599 126.31 262.521 125.387 262.453C124.824 262.405 124.27 262.366 123.716 262.317C122.522 262.22 121.346 262.123 120.181 262.016C117.636 261.782 115.198 261.549 112.857 261.296C112.303 261.238 111.76 261.17 111.216 261.112C110.652 261.053 110.099 260.985 109.545 260.917C108.447 260.781 107.369 260.655 106.33 260.509C86.2041 257.826 64.7574 256.611 46.0596 248.231H163.21L163.22 248.241Z" fill="#A6D8DD"/>
<path d="M355.201 248.241C311.23 260.256 237.439 264.913 177.654 264.446C177.13 264.446 176.605 264.446 176.09 264.446C174.828 264.446 173.584 264.417 172.341 264.398C171.943 264.398 171.535 264.397 171.156 264.378C170.194 264.378 169.233 264.349 168.281 264.329C162.57 264.232 157.014 264.086 151.662 263.902C149.311 263.814 146.99 263.717 144.717 263.62C153.935 258.448 160.85 253.374 165.658 248.241H355.211H355.201Z" fill="#A6D8DD"/>
<path d="M99.8707 133.697C102.708 133.697 105.009 131.394 105.009 128.554C105.009 125.714 102.708 123.412 99.8707 123.412C97.0329 123.412 94.7324 125.714 94.7324 128.554C94.7324 131.394 97.0329 133.697 99.8707 133.697Z" fill="white"/>
<path d="M73.208 124.296C73.208 125.998 71.8287 127.378 70.1289 127.378C68.4291 127.378 67.0498 125.998 67.0498 124.296C67.0498 122.595 68.4291 121.215 70.1289 121.215C71.8287 121.215 73.208 122.595 73.208 124.296Z" fill="white"/>
<path d="M112.411 143.398C112.411 145.1 111.032 146.48 109.332 146.48C107.632 146.48 106.253 145.1 106.253 143.398C106.253 141.697 107.632 140.317 109.332 140.317C111.032 140.317 112.411 141.697 112.411 143.398Z" fill="white"/>
<path d="M293.387 132.239C293.387 133.94 292.007 135.32 290.308 135.32C288.608 135.32 287.229 133.94 287.229 132.239C287.229 130.537 288.608 129.157 290.308 129.157C292.007 129.157 293.387 130.537 293.387 132.239Z" fill="white"/>
<path d="M295.058 118.785C295.058 119.883 294.164 120.777 293.066 120.777C291.969 120.777 291.075 119.883 291.075 118.785C291.075 117.686 291.969 116.792 293.066 116.792C294.164 116.792 295.058 117.686 295.058 118.785Z" fill="white"/>
<path d="M324.246 168.829C324.246 169.928 323.352 170.822 322.255 170.822C321.157 170.822 320.264 169.928 320.264 168.829C320.264 167.731 321.157 166.836 322.255 166.836C323.352 166.836 324.246 167.731 324.246 168.829Z" fill="white"/>
<path d="M355.328 184.004C354.775 183.051 355.105 181.836 356.057 181.282C357.009 180.728 358.223 181.058 358.777 182.011C359.33 182.963 359 184.179 358.048 184.733C357.096 185.287 355.882 184.956 355.328 184.004Z" fill="white"/>
<path d="M361.078 195.659C360.272 194.269 360.748 192.49 362.137 191.693C363.526 190.896 365.303 191.362 366.1 192.753C366.906 194.143 366.43 195.922 365.041 196.719C363.652 197.526 361.875 197.049 361.078 195.659Z" fill="white"/>
<path d="M212.117 273.049C69.7118 273.049 31.0728 253.247 30.6939 253.043C30.2666 252.81 30.1014 252.275 30.3346 251.847C30.5677 251.42 31.0922 251.254 31.5293 251.488C31.9178 251.702 72.5577 272.408 224.239 271.241C303.285 270.638 346.819 259.984 369.431 251.147C393.909 241.582 399.766 232.055 399.824 231.968C400.067 231.55 400.611 231.404 401.028 231.657C401.446 231.9 401.592 232.444 401.339 232.862C401.106 233.27 395.288 242.875 370.432 252.654C347.693 261.607 303.867 272.408 224.239 273.01C220.12 273.039 216.07 273.059 212.117 273.059V273.049Z" fill="#D7F8F9"/>
<defs>
<filter id="filter0_d_1_1751" x="232.864" y="81.7744" width="13.333" height="11.7673" filterUnits="userSpaceOnUse" color-interpolation-filters="sRGB">
<feFlood flood-opacity="0" result="BackgroundImageFix"/>
<feColorMatrix in="SourceAlpha" type="matrix" values="0 0 0 0 0 0 0 0 0 0 0 0 0 0 0 0 0 0 127 0" result="hardAlpha"/>
<feOffset dx="2" dy="2"/>
<feColorMatrix type="matrix" values="0 0 0 0 0.952941 0 0 0 0 0.956863 0 0 0 0 0.964706 0 0 0 1 0"/>
<feBlend mode="normal" in2="BackgroundImageFix" result="effect1_dropShadow_1_1751"/>
<feBlend mode="normal" in="SourceGraphic" in2="effect1_dropShadow_1_1751" result="shape"/>
</filter>
<filter id="filter1_d_1_1751" x="232.865" y="97.0166" width="13.332" height="11.7634" filterUnits="userSpaceOnUse" color-interpolation-filters="sRGB">
<feFlood flood-opacity="0" result="BackgroundImageFix"/>
<feColorMatrix in="SourceAlpha" type="matrix" values="0 0 0 0 0 0 0 0 0 0 0 0 0 0 0 0 0 0 127 0" result="hardAlpha"/>
<feOffset dx="2" dy="2"/>
<feColorMatrix type="matrix" values="0 0 0 0 0.952941 0 0 0 0 0.956863 0 0 0 0 0.964706 0 0 0 1 0"/>
<feBlend mode="normal" in2="BackgroundImageFix" result="effect1_dropShadow_1_1751"/>
<feBlend mode="normal" in="SourceGraphic" in2="effect1_dropShadow_1_1751" result="shape"/>
</filter>
<filter id="filter2_d_1_1751" x="232.865" y="112.259" width="13.332" height="11.7634" filterUnits="userSpaceOnUse" color-interpolation-filters="sRGB">
<feFlood flood-opacity="0" result="BackgroundImageFix"/>
<feColorMatrix in="SourceAlpha" type="matrix" values="0 0 0 0 0 0 0 0 0 0 0 0 0 0 0 0 0 0 127 0" result="hardAlpha"/>
<feOffset dx="2" dy="2"/>
<feColorMatrix type="matrix" values="0 0 0 0 0.952941 0 0 0 0 0.956863 0 0 0 0 0.964706 0 0 0 1 0"/>
<feBlend mode="normal" in2="BackgroundImageFix" result="effect1_dropShadow_1_1751"/>
<feBlend mode="normal" in="SourceGraphic" in2="effect1_dropShadow_1_1751" result="shape"/>
</filter>
<filter id="filter3_d_1_1751" x="232.865" y="127.502" width="13.332" height="11.7634" filterUnits="userSpaceOnUse" color-interpolation-filters="sRGB">
<feFlood flood-opacity="0" result="BackgroundImageFix"/>
<feColorMatrix in="SourceAlpha" type="matrix" values="0 0 0 0 0 0 0 0 0 0 0 0 0 0 0 0 0 0 127 0" result="hardAlpha"/>
<feOffset dx="2" dy="2"/>
<feColorMatrix type="matrix" values="0 0 0 0 0.952941 0 0 0 0 0.956863 0 0 0 0 0.964706 0 0 0 1 0"/>
<feBlend mode="normal" in2="BackgroundImageFix" result="effect1_dropShadow_1_1751"/>
<feBlend mode="normal" in="SourceGraphic" in2="effect1_dropShadow_1_1751" result="shape"/>
</filter>
</defs>
</svg>
