<svg width="587" height="407" viewBox="0 0 587 407" fill="none" xmlns="http://www.w3.org/2000/svg">
<path d="M586.743 299.316C586.743 299.867 586.743 300.417 586.714 300.968C586.714 301.518 586.686 302.069 586.644 302.62C586.616 303.213 586.573 303.792 586.531 304.399C586.446 305.599 586.319 306.799 586.15 307.999C586.08 308.479 586.009 308.959 585.938 309.439C585.868 309.905 585.783 310.357 585.699 310.808C585.628 311.19 585.558 311.571 585.473 311.966C585.402 312.375 585.304 312.799 585.205 313.208C585.12 313.618 585.007 314.027 584.923 314.437C584.5 316.159 583.992 317.867 583.399 319.562C583.272 319.915 583.145 320.296 583.018 320.663C582.877 321.072 582.722 321.482 582.553 321.891C582.384 322.301 582.228 322.696 582.059 323.105C581.89 323.515 581.721 323.924 581.551 324.32C581.015 325.534 580.437 326.748 579.83 327.962C579.012 329.557 578.109 331.153 577.122 332.72C576.882 333.115 576.642 333.497 576.374 333.892C575.852 334.711 575.302 335.515 574.724 336.32C574.188 337.068 573.637 337.803 573.073 338.537C572.706 318.517 567.981 303.057 558.853 291.339C549.896 279.847 536.706 272.053 518.931 267.86C508.365 265.347 496.163 264.105 482.268 264.105H481.76C438.565 264.105 418.562 236.334 414.273 210.3C411.325 192.468 415.063 171.573 427.265 153.615C431.737 146.993 437.38 140.767 444.25 135.247C444.871 136.532 445.52 137.788 446.183 139.031C446.507 139.652 446.846 140.287 447.198 140.908C447.311 141.134 447.438 141.36 447.565 141.586C448.129 142.617 448.708 143.619 449.286 144.621C450.358 146.471 451.487 148.278 452.658 150.071C468.161 173.762 489.73 193.443 515.249 205.796C530.866 213.364 544.831 223.331 556.173 234.753C557.118 235.699 558.049 236.659 558.966 237.633C560.786 239.567 562.521 241.558 564.186 243.563C565.032 244.565 565.836 245.568 566.626 246.598C567.811 248.137 568.954 249.69 570.04 251.243C571.493 253.333 572.876 255.436 574.159 257.582C582.2 270.952 586.743 285.212 586.743 299.288V299.316Z" fill="#C7F2F2"/>
<path d="M570.521 341.657C569.434 342.941 568.263 344.198 567.05 345.455C566.528 345.991 566.006 346.513 565.456 347.05C564.737 347.77 563.989 348.462 563.213 349.168C526.451 382.572 374.07 394.968 258.013 394.064C257.251 394.064 256.49 394.064 255.742 394.064C253.908 394.064 252.102 394.022 250.297 393.993C249.718 393.993 249.126 393.993 248.576 393.965C247.179 393.965 245.783 393.923 244.4 393.895C236.105 393.753 228.036 393.542 220.263 393.273C216.85 393.146 213.478 393.019 210.177 392.864C237.262 377.658 250.762 363.06 252.596 347.05C255.516 321.651 228.756 293.414 185.674 254.109C178.07 247.163 169.959 239.892 161.424 232.225C152.198 223.938 142.648 215.368 132.576 206.191C108.143 183.927 94.4874 162.777 91.7366 143.082C91.7084 142.983 91.6943 142.871 91.6802 142.758C91.8777 142.715 92.0611 142.687 92.2586 142.673C95.0658 142.263 97.873 142.08 100.694 142.15C139.714 143.096 189.624 137.378 240.041 68.9893C290.473 0.614159 348.325 10.497 348.325 10.497C368.413 12.2194 389.488 21.8623 403.877 35.7971C418.957 50.4095 422.71 67.4645 427.605 87.1172C428 88.7126 428.409 90.308 428.818 91.8892C429.848 95.8141 430.934 99.739 432.091 103.622C432.74 105.838 433.417 108.026 434.15 110.215C434.503 111.33 434.884 112.431 435.265 113.547C435.476 114.168 435.688 114.761 435.9 115.382C436.196 116.243 436.506 117.09 436.817 117.923C437.127 118.785 437.437 119.632 437.776 120.465C438.1 121.312 438.411 122.159 438.763 123.006C439.779 125.533 440.837 128.032 441.966 130.503C442.304 131.279 442.671 132.056 443.024 132.818L443.094 132.974C436.379 138.324 430.539 144.508 425.686 151.44C424.6 153.007 423.556 154.603 422.583 156.241C412.511 172.957 408.645 192.299 411.692 210.709C414.316 226.592 421.765 240.231 433.233 250.142C445.732 260.942 462.477 266.646 481.718 266.646H482.212C496.262 266.646 508.521 267.931 519.059 270.514C535.86 274.623 548.331 282.049 556.781 292.892C566.021 304.751 570.577 320.705 570.478 341.614L570.521 341.657Z" fill="#C7F2F2"/>
<path d="M250.056 346.753C248.279 362.227 234.638 376.486 207.129 391.621C206.509 391.96 205.944 392.299 205.38 392.638C203.772 392.567 202.164 392.468 200.598 392.384C199.371 392.313 198.172 392.257 196.958 392.186C196.154 392.13 195.35 392.087 194.546 392.031C192.684 391.918 190.864 391.805 189.059 391.678C188.311 391.621 187.577 391.579 186.83 391.523C186.618 391.523 186.407 391.494 186.209 391.48C184.827 391.381 183.444 391.268 182.104 391.17C181.286 391.099 180.482 391.042 179.678 390.972C177.943 390.831 176.236 390.69 174.543 390.534C170.847 390.195 167.306 389.857 163.906 389.489C163.102 389.405 162.312 389.306 161.522 389.221C160.704 389.137 159.9 389.038 159.096 388.939C157.502 388.741 155.936 388.558 154.427 388.346C118.793 383.602 80.2954 382.007 49.6978 360.9C25.3354 344.085 7.99819 312.629 2.17209 284.52C-5.33271 248.348 7.19411 210.412 30.7383 182.571C31.2462 181.95 31.7822 181.343 32.3183 180.722C33.1365 179.776 33.9829 178.844 34.8575 177.884C36.0566 176.571 37.298 175.272 38.5958 173.959C38.9908 173.564 39.3858 173.154 39.7949 172.759C40.8952 171.672 42.0096 170.585 43.1664 169.526C44.9297 167.888 46.7495 166.264 48.6257 164.669C49.2323 164.175 49.8248 163.653 50.4455 163.173C50.6712 162.975 50.911 162.791 51.1508 162.594C51.8562 162.015 52.5897 161.45 53.3092 160.885C53.7888 160.504 54.2966 160.123 54.7763 159.756C55.4393 159.262 56.1023 158.753 56.7935 158.273C57.3719 157.864 57.9503 157.455 58.5287 157.059C59.7983 156.17 61.0679 155.337 62.3798 154.518C63.0287 154.109 63.6917 153.699 64.3407 153.304C64.383 153.276 64.4112 153.261 64.4394 153.233C65.0601 152.866 65.6949 152.485 66.3156 152.132C66.9786 151.751 67.6416 151.37 68.3188 151.017C69.6448 150.282 70.9991 149.591 72.3815 148.941C73.0586 148.617 73.7358 148.306 74.427 147.995C75.1182 147.685 75.8095 147.388 76.5007 147.106C77.1919 146.809 77.8832 146.541 78.5744 146.273C79.971 145.75 81.3675 145.256 82.7641 144.833C83.4694 144.621 84.1748 144.409 84.8801 144.212C85.4726 144.042 86.051 143.887 86.6576 143.746C86.8551 143.675 87.0526 143.647 87.2642 143.605C87.8566 143.463 88.4491 143.336 89.0416 143.223C89.0698 143.195 89.098 143.195 89.1263 143.195C89.1968 143.774 89.2955 144.353 89.3943 144.918C92.6812 164.796 106.534 185.931 130.826 208.041C140.898 217.232 150.448 225.801 159.674 234.103C167.729 241.332 175.403 248.207 182.598 254.772C225.863 294.177 252.821 322.244 250.014 346.725L250.056 346.753Z" fill="#C7F2F2"/>
<path d="M250.056 346.753C249.125 354.914 244.879 362.735 237.05 370.529C230.039 377.503 220.136 384.463 207.129 391.621C206.509 391.96 205.944 392.299 205.38 392.638C203.772 392.567 202.164 392.469 200.598 392.384C199.371 392.313 198.172 392.257 196.958 392.186C196.154 392.13 195.35 392.087 194.546 392.031C192.684 391.918 190.864 391.805 189.059 391.678C188.311 391.621 187.577 391.579 186.83 391.523C186.618 391.523 186.407 391.494 186.209 391.48C184.827 391.381 183.444 391.269 182.104 391.17C181.286 391.099 180.482 391.043 179.678 390.972C177.943 390.831 176.236 390.69 174.543 390.534C170.847 390.195 167.306 389.857 163.906 389.49C163.102 389.405 162.312 389.306 161.522 389.221C160.704 389.137 159.9 389.038 159.096 388.939C157.502 388.741 155.936 388.558 154.427 388.346C125.197 384.449 94.0495 382.685 66.894 370.515C60.9409 367.846 55.1995 364.684 49.6978 360.9C25.3354 344.085 7.99819 312.629 2.17209 284.52C-5.33271 248.349 7.19411 210.413 30.7383 182.571C31.2462 181.95 31.7822 181.343 32.3183 180.722C33.1365 179.776 33.9829 178.844 34.8575 177.884C36.0566 176.571 37.298 175.272 38.5958 173.959C38.9908 173.564 39.3858 173.154 39.7949 172.759C40.8952 171.672 42.0096 170.585 43.1664 169.526C44.9297 167.888 46.7495 166.265 48.6257 164.669C49.2323 164.175 49.8248 163.653 50.4455 163.173C50.6712 162.975 50.911 162.791 51.1508 162.594C51.8562 162.015 52.5897 161.45 53.3092 160.885C53.7888 160.504 54.2966 160.123 54.7763 159.756C55.4393 159.262 56.1023 158.754 56.7935 158.274C57.3719 157.864 57.9503 157.455 58.5287 157.059C59.7983 156.17 61.0679 155.323 62.3798 154.518C63.0287 154.109 63.6917 153.699 64.3407 153.304C64.383 153.276 64.4112 153.262 64.4394 153.233C65.0601 152.866 65.6949 152.485 66.3156 152.132C66.9786 151.751 67.6416 151.37 68.3188 151.017C69.6448 150.283 70.9991 149.577 72.3815 148.941C73.0586 148.617 73.7358 148.306 74.427 147.995C75.1182 147.685 75.8095 147.388 76.5007 147.106C77.1919 146.809 77.8832 146.541 78.5744 146.273C79.9569 145.736 81.3675 145.242 82.7641 144.833C83.4694 144.621 84.1748 144.409 84.8801 144.212C85.4726 144.042 86.051 143.887 86.6576 143.746C86.8551 143.675 87.0526 143.647 87.2642 143.605C87.8566 143.463 88.4491 143.336 89.0416 143.223C89.0698 143.195 89.098 143.195 89.1263 143.195C89.9586 143.012 90.805 142.87 91.6514 142.743C91.8489 142.701 92.0323 142.673 92.2298 142.659C92.0464 142.786 91.8912 142.927 91.7078 143.068C90.9319 143.675 90.1561 144.282 89.4084 144.932C70.3784 160.928 56.1164 187.964 67.5429 233.482C82.877 294.544 128.879 267.281 182.612 254.787C225.877 294.191 252.835 322.258 250.028 346.739L250.056 346.753Z" fill="#AFE8E6"/>
<path d="M570.52 341.657C569.434 342.941 568.263 344.198 567.05 345.455C566.528 345.991 566.006 346.513 565.456 347.05C564.737 347.77 563.989 348.462 563.213 349.168C553.959 357.582 537.369 364.655 515.871 370.529C452.009 387.979 344.84 394.742 258.013 394.064C257.251 394.064 256.489 394.064 255.742 394.064C253.908 394.064 252.102 394.022 250.296 393.993C249.718 393.993 249.126 393.993 248.575 393.965C247.179 393.965 245.782 393.923 244.4 393.895C236.105 393.753 228.036 393.542 220.263 393.273C216.849 393.146 213.478 393.005 210.177 392.864C223.564 385.353 233.608 377.983 240.591 370.529C247.757 362.891 251.665 355.154 252.596 347.05C255.516 321.651 228.755 293.414 185.673 254.109C219.473 246.64 256.137 245.737 290.021 276.656C372.814 352.189 521.372 336.122 519.101 270.543C535.902 274.651 548.373 282.077 556.823 292.92C566.063 304.78 570.619 320.733 570.52 341.643V341.657Z" fill="#BFEFEF"/>
<path d="M425.728 151.454C422.173 146.174 419.098 140.103 416.643 132.889C410.86 115.876 416.799 101.758 428.832 91.9031C429.861 95.828 430.948 99.7529 432.104 103.635C432.753 105.852 433.445 108.04 434.164 110.229C434.517 111.344 434.898 112.445 435.278 113.561C435.49 114.182 435.702 114.775 435.913 115.396C436.21 116.257 436.52 117.104 436.83 117.937C437.141 118.799 437.451 119.646 437.789 120.479C438.114 121.326 438.424 122.173 438.777 123.02C439.793 125.547 440.851 128.046 441.979 130.517C442.318 131.293 442.685 132.07 443.037 132.832L443.108 132.987C436.393 138.338 430.553 144.522 425.7 151.454H425.728Z" fill="#BFEFEF"/>
<path d="M586.743 299.316C586.743 299.867 586.743 300.417 586.714 300.968C586.714 301.518 586.686 302.069 586.644 302.62C586.616 303.213 586.573 303.792 586.531 304.399C586.446 305.599 586.319 306.799 586.15 307.999C586.08 308.479 586.009 308.959 585.939 309.439C585.868 309.905 585.783 310.357 585.699 310.808C585.628 311.19 585.558 311.571 585.473 311.966C585.402 312.375 585.304 312.799 585.205 313.208C585.12 313.618 585.008 314.027 584.923 314.437C584.5 316.159 583.992 317.867 583.399 319.562C583.272 319.915 583.145 320.296 583.018 320.663C582.877 321.072 582.722 321.482 582.553 321.891C582.384 322.301 582.228 322.696 582.059 323.105C581.89 323.515 581.721 323.924 581.551 324.32C581.029 325.548 580.451 326.748 579.83 327.962C579.012 329.557 578.109 331.153 577.122 332.72C576.882 333.115 576.642 333.497 576.374 333.892C575.852 334.711 575.302 335.515 574.724 336.32C574.188 337.068 573.637 337.803 573.073 338.537C572.706 318.517 567.981 303.057 558.854 291.339C549.896 279.847 536.706 272.053 518.931 267.86C518.536 263.681 517.521 259.333 515.884 254.787C491.818 188.402 450.429 185.607 427.237 153.615C431.709 146.993 437.352 140.767 444.222 135.247C444.843 136.532 445.491 137.788 446.154 139.031C446.479 139.652 446.818 140.287 447.17 140.908C447.283 141.134 447.41 141.36 447.537 141.586C448.101 142.617 448.68 143.619 449.258 144.621C450.33 146.471 451.459 148.278 452.63 150.071C468.133 173.762 489.702 193.443 515.221 205.796C530.837 213.364 544.803 223.331 556.145 234.753C557.09 235.699 558.021 236.659 558.938 237.633C560.758 239.567 562.493 241.558 564.158 243.563C565.004 244.565 565.808 245.568 566.598 246.598C567.783 248.137 568.926 249.69 570.012 251.243C571.465 253.333 572.847 255.436 574.131 257.582C582.172 270.952 586.714 285.212 586.714 299.288L586.743 299.316Z" fill="#BFEFEF"/>
<path d="M555.116 211.118C554.862 211.118 554.609 211.048 554.397 210.892C554.228 210.779 537.483 199.089 481.084 150.889C424.262 102.336 426.307 35.7403 426.322 35.0767C426.35 34.3708 426.928 33.8202 427.648 33.8485C428.353 33.8767 428.903 34.4697 428.875 35.1756C428.847 35.825 426.886 101.221 482.735 148.941C538.978 197 555.681 208.676 555.85 208.789C556.428 209.198 556.569 209.989 556.174 210.568C555.92 210.935 555.525 211.118 555.116 211.118Z" fill="#D7F8F9"/>
<path d="M70.1529 129.077C69.4758 129.077 68.9115 128.54 68.8692 127.848C68.841 127.142 69.3771 126.549 70.0824 126.507C103.374 124.982 133.775 119.702 160.422 110.793C183.656 103.028 198.863 92.5243 214.635 73.3375C234.299 49.4069 252.525 28.3706 276.225 13.1369C276.817 12.7557 277.607 12.9251 277.988 13.5181C278.369 14.1111 278.2 14.9017 277.607 15.2829C254.204 30.3189 236.133 51.1999 216.609 74.9611C200.5 94.5573 184.968 105.287 161.226 113.222C134.353 122.201 103.727 127.524 70.1953 129.063H70.1388L70.1529 129.077Z" fill="#D7F8F9"/>
<path d="M237.05 370.529C230.039 377.503 220.136 384.464 207.13 391.622C206.509 391.96 205.945 392.299 205.38 392.638C203.772 392.567 202.164 392.469 200.598 392.384C199.371 392.313 198.172 392.257 196.959 392.186C196.154 392.13 195.35 392.087 194.546 392.031C192.684 391.918 190.864 391.805 189.059 391.678C188.311 391.622 187.578 391.579 186.83 391.523C186.618 391.523 186.407 391.495 186.209 391.48C184.827 391.382 183.444 391.269 182.104 391.17C181.286 391.099 180.482 391.043 179.678 390.972C177.943 390.831 176.236 390.69 174.543 390.534C170.847 390.196 167.306 389.857 163.906 389.49C163.102 389.405 162.312 389.306 161.522 389.221C160.704 389.137 159.9 389.038 159.096 388.939C157.502 388.741 155.936 388.558 154.427 388.346C125.197 384.449 94.0496 382.685 66.894 370.515H237.036L237.05 370.529Z" fill="#A6D8DD"/>
<path d="M515.871 370.529C452.01 387.979 344.841 394.742 258.013 394.064C257.252 394.064 256.49 394.064 255.742 394.064C253.908 394.064 252.103 394.022 250.297 393.994C249.719 393.994 249.126 393.994 248.576 393.965C247.179 393.965 245.783 393.923 244.4 393.895C236.105 393.754 228.036 393.542 220.264 393.274C216.85 393.147 213.478 393.005 210.177 392.864C223.565 385.353 233.609 377.984 240.591 370.529H515.885H515.871Z" fill="#A6D8DD"/>
<path d="M145.045 204.172C149.167 204.172 152.508 200.829 152.508 196.704C152.508 192.579 149.167 189.235 145.045 189.235C140.924 189.235 137.583 192.579 137.583 196.704C137.583 200.829 140.924 204.172 145.045 204.172Z" fill="white"/>
<path d="M106.322 190.52C106.322 192.991 104.319 194.995 101.85 194.995C99.3816 194.995 97.3784 192.991 97.3784 190.52C97.3784 188.049 99.3816 186.044 101.85 186.044C104.319 186.044 106.322 188.049 106.322 190.52Z" fill="white"/>
<path d="M163.258 218.262C163.258 220.733 161.255 222.738 158.786 222.738C156.318 222.738 154.314 220.733 154.314 218.262C154.314 215.792 156.318 213.787 158.786 213.787C161.255 213.787 163.258 215.792 163.258 218.262Z" fill="white"/>
<path d="M426.096 202.054C426.096 204.525 424.092 206.53 421.624 206.53C419.155 206.53 417.152 204.525 417.152 202.054C417.152 199.583 419.155 197.579 421.624 197.579C424.092 197.579 426.096 199.583 426.096 202.054Z" fill="white"/>
<path d="M428.522 182.515C428.522 184.11 427.224 185.409 425.63 185.409C424.036 185.409 422.738 184.11 422.738 182.515C422.738 180.919 424.036 179.621 425.63 179.621C427.224 179.621 428.522 180.919 428.522 182.515Z" fill="white"/>
<path d="M470.914 255.196C470.914 256.791 469.616 258.09 468.022 258.09C466.428 258.09 465.13 256.791 465.13 255.196C465.13 253.601 466.428 252.302 468.022 252.302C469.616 252.302 470.914 253.601 470.914 255.196Z" fill="white"/>
<path d="M308.064 406.558C101.245 406.558 45.128 377.799 44.5778 377.502C43.9571 377.164 43.7173 376.387 44.0559 375.766C44.3944 375.145 45.1562 374.905 45.791 375.244C46.3553 375.554 105.378 405.626 325.669 403.932C440.47 403.057 503.697 387.583 536.537 374.749C572.087 360.857 580.593 347.021 580.678 346.894C581.03 346.287 581.82 346.075 582.427 346.442C583.033 346.795 583.245 347.586 582.878 348.193C582.54 348.786 574.09 362.735 537.99 376.938C504.967 389.941 441.317 405.626 325.669 406.502C319.688 406.544 313.806 406.572 308.064 406.572V406.558Z" fill="#D7F8F9"/>
<path d="M484.213 47.6736H81.2468C74.3332 47.6736 68.7285 53.2782 68.7285 60.1919V318.188C68.7285 325.101 74.3332 330.706 81.2468 330.706H484.213C491.126 330.706 496.731 325.101 496.731 318.188V60.1919C496.731 53.2782 491.126 47.6736 484.213 47.6736Z" fill="#455A64"/>
<path d="M52 312.431H515.71V321.908C515.71 330.345 508.862 337.201 500.417 337.201H67.2935C58.8563 337.201 52 330.353 52 321.908V312.431Z" fill="#455A64"/>
<path d="M484.049 58.9202H80.2153V297.936H484.049V58.9202Z" fill="#263238"/>
<path d="M240.539 309.776L246.296 318.926H327.265L332.601 309.776H240.539Z" fill="#263238"/>
<path d="M91.3422 67.0134H473.748C475.303 67.0134 476.557 68.2764 476.557 69.823V294.362C476.557 295.917 475.294 297.172 473.748 297.172H91.3422C89.7871 297.172 88.5327 295.909 88.5327 294.362V69.823C88.5327 68.2678 89.7957 67.0134 91.3422 67.0134Z" fill="#EBEBEB"/>
<path d="M476.557 298.34H88.3608L89.0826 85.0481H476.557V298.34Z" fill="white"/>
<path d="M121.044 75.8978C121.044 77.6076 119.661 78.9994 117.942 78.9994C116.224 78.9994 114.841 77.6162 114.841 75.8978C114.841 74.1794 116.224 72.7961 117.942 72.7961C119.661 72.7961 121.044 74.1794 121.044 75.8978Z" fill="#263238"/>
<path d="M102.262 75.8978C102.262 77.6076 100.879 78.9994 99.1607 78.9994C97.4424 78.9994 96.0591 77.6162 96.0591 75.8978C96.0591 74.1794 97.451 72.7961 99.1607 72.7961C100.871 72.7961 102.262 74.1794 102.262 75.8978Z" fill="#263238"/>
<path d="M111.653 75.8978C111.653 77.6076 110.27 78.9994 108.551 78.9994C106.833 78.9994 105.45 77.6162 105.45 75.8978C105.45 74.1794 106.833 72.7961 108.551 72.7961C110.27 72.7961 111.653 74.1794 111.653 75.8978Z" fill="#263238"/>
<path d="M479.186 309.845C479.186 309.999 390.69 310.128 281.539 310.128C172.389 310.128 83.8755 309.999 83.8755 309.845C83.8755 309.69 172.354 309.57 281.539 309.57C390.724 309.57 479.186 309.699 479.186 309.845V309.845Z" fill="#263238"/>
<path d="M476.626 259.617H88.5327V298.22H476.626V259.617Z" fill="#3BC1CD"/>
<path opacity="0.7" d="M476.626 259.617H88.5327V298.22H476.626V259.617Z" fill="white"/>
<path d="M337.973 281.409C339.248 273.598 333.949 266.232 326.138 264.957C318.326 263.682 310.96 268.981 309.685 276.792C308.41 284.604 313.709 291.97 321.521 293.245C329.332 294.52 336.698 289.221 337.973 281.409Z" fill="#3BC1CD"/>
<path d="M323.82 282.299C322.394 282.299 321.234 281.14 321.234 279.713V274.086C321.234 272.659 322.394 271.5 323.82 271.5C325.246 271.5 326.406 272.659 326.406 274.086V279.713C326.406 281.14 325.246 282.299 323.82 282.299ZM323.82 272.041C322.695 272.041 321.775 272.96 321.775 274.086V279.713C321.775 280.839 322.695 281.758 323.82 281.758C324.946 281.758 325.865 280.839 325.865 279.713V274.086C325.865 272.96 324.946 272.041 323.82 272.041Z" fill="white"/>
<path d="M323.82 284.112C322.273 284.112 321.053 283.631 320.194 282.677C318.545 280.856 318.811 278.003 318.828 277.883C318.845 277.737 318.983 277.617 319.12 277.643C319.266 277.66 319.378 277.789 319.361 277.935C319.361 277.961 319.112 280.676 320.598 282.317C321.354 283.15 322.437 283.571 323.82 283.571C325.203 283.571 326.286 283.15 327.085 282.317C328.666 280.667 328.571 277.943 328.571 277.918C328.571 277.772 328.683 277.643 328.829 277.634C328.984 277.651 329.104 277.746 329.113 277.892C329.113 278.012 329.216 280.873 327.472 282.686C326.569 283.631 325.332 284.104 323.811 284.104L323.82 284.112Z" fill="white"/>
<path d="M323.82 288.073C323.674 288.073 323.554 287.953 323.554 287.798V283.838C323.554 283.692 323.674 283.571 323.82 283.571C323.966 283.571 324.086 283.692 324.086 283.838V287.798C324.086 287.945 323.966 288.073 323.82 288.073Z" fill="white"/>
<path d="M261.849 281.413C263.124 273.601 257.825 266.235 250.013 264.96C242.202 263.685 234.836 268.984 233.561 276.795C232.286 284.607 237.584 291.973 245.396 293.248C253.208 294.523 260.574 289.224 261.849 281.413Z" fill="#3BC1CD"/>
<path d="M243.151 280.495C242.369 280.495 241.742 279.86 241.742 279.086C241.742 278.313 242.378 277.677 243.151 277.677C243.925 277.677 244.56 278.313 244.56 279.086C244.56 279.86 243.925 280.495 243.151 280.495Z" fill="white"/>
<path d="M247.55 280.495C246.768 280.495 246.141 279.859 246.141 279.086C246.141 278.313 246.777 277.677 247.55 277.677C248.323 277.677 248.959 278.313 248.959 279.086C248.959 279.859 248.323 280.495 247.55 280.495Z" fill="white"/>
<path d="M252.25 280.495C251.468 280.495 250.841 279.859 250.841 279.086C250.841 278.313 251.477 277.677 252.25 277.677C253.023 277.677 253.659 278.313 253.659 279.086C253.659 279.859 253.023 280.495 252.25 280.495Z" fill="white"/>
<path d="M285.758 293.168C293.54 293.168 299.849 286.86 299.849 279.078C299.849 271.296 293.54 264.987 285.758 264.987C277.976 264.987 271.667 271.296 271.667 279.078C271.667 286.86 277.976 293.168 285.758 293.168Z" fill="#3BC1CD"/>
<path d="M284.503 275.186C283.318 274.266 281.514 274.602 280.861 275.925C280.577 276.5 280.568 277.136 281.196 277.755C282.493 279.026 285.208 281.578 286.394 282.678C287.038 283.279 287.923 283.597 288.808 283.46C289.392 283.374 290.019 283.09 290.518 282.403C291.849 280.573 288.653 279.147 288.653 279.147L287.253 280.616L283.997 277.471L285.423 275.899L284.495 275.186H284.503Z" fill="white"/>
<path d="M182.072 298.289L88.5327 297.842V84.988H182.072V298.289Z" fill="#FAFAFA"/>
<path d="M182.072 296.562C181.952 296.562 181.849 249.195 181.849 190.78C181.849 132.346 181.952 84.9883 182.072 84.9883C182.192 84.9883 182.295 132.346 182.295 190.78C182.295 249.195 182.192 296.562 182.072 296.562Z" fill="#263238"/>
<path d="M179.194 257.357C179.194 257.478 159.287 257.581 134.731 257.581C110.176 257.581 90.2686 257.478 90.2686 257.357C90.2686 257.237 110.176 257.134 134.731 257.134C159.287 257.134 179.194 257.237 179.194 257.357Z" fill="#E0E0E0"/>
<path d="M158.616 140.294V142.382H158.401V140.483H157.912V140.294H158.616Z" fill="#E0E0E0"/>
<path d="M159.69 140.294V142.382H159.475V140.483H158.985V140.294H159.69Z" fill="#E0E0E0"/>
<path d="M160.188 140.955C160.188 140.861 160.257 140.792 160.343 140.792C160.429 140.792 160.506 140.861 160.506 140.955C160.506 141.05 160.429 141.119 160.343 141.119C160.257 141.119 160.188 141.05 160.188 140.955ZM160.188 142.227C160.188 142.133 160.257 142.064 160.343 142.064C160.429 142.064 160.506 142.133 160.506 142.227C160.506 142.322 160.429 142.39 160.343 142.39C160.257 142.39 160.188 142.322 160.188 142.227Z" fill="#E0E0E0"/>
<path d="M162.242 142.184V142.373H160.781V142.219L161.649 141.368C161.881 141.136 161.933 140.999 161.933 140.853C161.933 140.612 161.761 140.466 161.443 140.466C161.202 140.466 161.013 140.543 160.876 140.698L160.721 140.569C160.884 140.38 161.142 140.268 161.46 140.268C161.881 140.268 162.147 140.483 162.147 140.835C162.147 141.033 162.087 141.213 161.804 141.488L161.091 142.184H162.242Z" fill="#E0E0E0"/>
<path d="M163.926 141.763C163.926 142.115 163.677 142.399 163.17 142.399C162.869 142.399 162.586 142.296 162.422 142.133L162.525 141.961C162.663 142.098 162.895 142.201 163.17 142.201C163.522 142.201 163.711 142.03 163.711 141.772C163.711 141.505 163.548 141.334 163.015 141.334H162.568L162.672 140.285H163.814V140.474H162.861L162.792 141.136H163.058C163.685 141.136 163.926 141.385 163.926 141.755V141.763Z" fill="#E0E0E0"/>
<path d="M160.739 237.485V239.572H160.524V237.674H160.034V237.485H160.739Z" fill="#E0E0E0"/>
<path d="M161.813 237.485V239.572H161.598V237.674H161.108V237.485H161.813Z" fill="#E0E0E0"/>
<path d="M162.311 238.155C162.311 238.06 162.38 237.991 162.466 237.991C162.552 237.991 162.629 238.06 162.629 238.155C162.629 238.249 162.552 238.318 162.466 238.318C162.38 238.318 162.311 238.249 162.311 238.155ZM162.311 239.426C162.311 239.332 162.38 239.263 162.466 239.263C162.552 239.263 162.629 239.332 162.629 239.426C162.629 239.521 162.552 239.59 162.466 239.59C162.38 239.59 162.311 239.521 162.311 239.426Z" fill="#E0E0E0"/>
<path d="M164.717 239.023H164.296V239.572H164.081V239.023H162.904V238.868L164.012 237.485H164.253L163.187 238.834H164.089V238.352H164.296V238.834H164.717V239.023Z" fill="#E0E0E0"/>
<path d="M166.315 238.954C166.315 239.306 166.066 239.589 165.559 239.589C165.258 239.589 164.975 239.486 164.812 239.323L164.915 239.151C165.052 239.289 165.284 239.392 165.559 239.392C165.911 239.392 166.1 239.22 166.1 238.962C166.1 238.696 165.937 238.524 165.404 238.524H164.958L165.061 237.476H166.203V237.665H165.25L165.181 238.326H165.447C166.075 238.326 166.315 238.576 166.315 238.945V238.954Z" fill="#E0E0E0"/>
<path d="M147.499 135.886H105.768L105.648 117.732C105.579 107.593 113.784 99.3367 123.923 99.3367H147.499C157.594 99.3367 165.774 107.516 165.774 117.612C165.774 127.707 157.594 135.886 147.499 135.886V135.886Z" fill="#EBEBEB"/>
<path d="M167.019 288.787H100.845C96.3858 288.787 92.7515 285.153 92.7515 280.693V280.341C92.7515 275.882 96.3858 272.248 100.845 272.248H167.019C171.478 272.248 175.113 275.882 175.113 280.341V280.693C175.113 285.153 171.478 288.787 167.019 288.787ZM100.845 272.746C96.6607 272.746 93.2584 276.148 93.2584 280.332V280.685C93.2584 284.869 96.6607 288.271 100.845 288.271H167.019C171.204 288.271 174.606 284.869 174.606 280.685V280.332C174.606 276.148 171.204 272.746 167.019 272.746H100.845V272.746Z" fill="#E0E0E0"/>
<path d="M171.53 280.264C171.53 282.532 169.691 284.379 167.414 284.379C165.137 284.379 163.299 282.541 163.299 280.264C163.299 277.987 165.137 276.148 167.414 276.148C169.691 276.148 171.53 277.987 171.53 280.264Z" fill="#E8505B"/>
<path d="M167.311 282.807H167.303C167.251 282.807 167.2 282.764 167.191 282.713L166.667 280.762L164.837 280.118C164.785 280.101 164.751 280.049 164.751 279.997C164.751 279.946 164.785 279.894 164.837 279.877L169.133 278.339C169.184 278.322 169.236 278.339 169.27 278.374C169.305 278.408 169.313 278.468 169.296 278.511L167.432 282.721C167.414 282.764 167.363 282.798 167.32 282.798L167.311 282.807ZM165.258 279.997L166.813 280.547C166.813 280.547 166.882 280.59 166.89 280.633L167.337 282.3L168.935 278.683L165.249 279.997H165.258Z" fill="white"/>
<path d="M166.761 280.796C166.761 280.796 166.693 280.779 166.667 280.753C166.624 280.702 166.624 280.625 166.667 280.573L169.073 278.374C169.124 278.331 169.202 278.331 169.253 278.374C169.296 278.425 169.296 278.502 169.253 278.554L166.847 280.753C166.847 280.753 166.796 280.788 166.761 280.788V280.796Z" fill="white"/>
<path d="M111.722 279.147H110.932V278.941H112.762V279.147H111.971V281.2H111.731V279.147H111.722Z" fill="#263238"/>
<path d="M114.411 279.508L113.561 281.407C113.414 281.742 113.234 281.845 112.993 281.845C112.839 281.845 112.684 281.793 112.581 281.69L112.684 281.518C112.77 281.604 112.873 281.647 112.993 281.647C113.148 281.647 113.251 281.578 113.346 281.364L113.423 281.2L112.667 279.508H112.908L113.543 280.951L114.179 279.508H114.403H114.411Z" fill="#263238"/>
<path d="M116.456 280.358C116.456 280.874 116.095 281.226 115.605 281.226C115.33 281.226 115.098 281.106 114.961 280.891V281.836H114.729V279.508H114.952V279.843C115.09 279.619 115.33 279.49 115.605 279.49C116.087 279.49 116.456 279.843 116.456 280.35V280.358ZM116.224 280.358C116.224 279.963 115.949 279.697 115.588 279.697C115.227 279.697 114.952 279.963 114.952 280.358C114.952 280.753 115.227 281.02 115.588 281.02C115.949 281.02 116.224 280.753 116.224 280.358Z" fill="#263238"/>
<path d="M118.407 280.427H116.989C117.015 280.779 117.29 281.02 117.659 281.02C117.865 281.02 118.054 280.943 118.183 280.796L118.312 280.943C118.158 281.123 117.926 281.217 117.659 281.217C117.126 281.217 116.766 280.857 116.766 280.35C116.766 279.843 117.118 279.49 117.599 279.49C118.08 279.49 118.424 279.843 118.424 280.35C118.424 280.367 118.424 280.393 118.424 280.418L118.407 280.427ZM116.989 280.255H118.192C118.166 279.92 117.917 279.688 117.59 279.688C117.264 279.688 117.015 279.92 116.989 280.255Z" fill="#263238"/>
<path d="M121.001 280.152V281.209H120.778V280.943C120.675 281.114 120.477 281.226 120.194 281.226C119.807 281.226 119.575 281.028 119.575 280.728C119.575 280.47 119.747 280.247 120.228 280.247H120.769V280.143C120.769 279.851 120.606 279.697 120.288 279.697C120.065 279.697 119.859 279.774 119.721 279.894L119.618 279.722C119.79 279.576 120.039 279.49 120.306 279.49C120.744 279.49 120.993 279.714 120.993 280.152H121.001ZM120.769 280.693V280.418H120.237C119.91 280.418 119.799 280.547 119.799 280.719C119.799 280.917 119.953 281.037 120.228 281.037C120.503 281.037 120.675 280.917 120.769 280.693V280.693Z" fill="#263238"/>
<path d="M125.28 280.221V281.209H125.048V280.247C125.048 279.886 124.868 279.705 124.559 279.705C124.206 279.705 123.991 279.929 123.991 280.315V281.209H123.759V280.247C123.759 279.886 123.579 279.705 123.27 279.705C122.926 279.705 122.703 279.929 122.703 280.315V281.209H122.471V279.508H122.694V279.817C122.814 279.611 123.029 279.49 123.321 279.49C123.613 279.49 123.82 279.611 123.923 279.851C124.043 279.628 124.284 279.49 124.593 279.49C125.005 279.49 125.28 279.731 125.28 280.221V280.221Z" fill="#263238"/>
<path d="M127.385 280.427H125.968C125.993 280.779 126.268 281.02 126.638 281.02C126.844 281.02 127.024 280.943 127.162 280.796L127.291 280.943C127.136 281.123 126.904 281.217 126.638 281.217C126.105 281.217 125.744 280.857 125.744 280.35C125.744 279.843 126.096 279.49 126.578 279.49C127.059 279.49 127.402 279.843 127.402 280.35C127.402 280.367 127.402 280.393 127.402 280.418L127.385 280.427ZM125.968 280.255H127.17C127.145 279.92 126.895 279.688 126.569 279.688C126.242 279.688 125.993 279.92 125.968 280.255Z" fill="#263238"/>
<path d="M127.626 281.011L127.729 280.831C127.866 280.934 128.09 281.02 128.33 281.02C128.657 281.02 128.786 280.908 128.786 280.745C128.786 280.298 127.686 280.65 127.686 279.98C127.686 279.705 127.926 279.499 128.356 279.499C128.579 279.499 128.811 279.559 128.958 279.654L128.854 279.834C128.708 279.731 128.528 279.688 128.356 279.688C128.047 279.688 127.909 279.808 127.909 279.972C127.909 280.427 129.009 280.083 129.009 280.736C129.009 281.028 128.751 281.217 128.305 281.217C128.021 281.217 127.755 281.123 127.617 281.011H127.626Z" fill="#263238"/>
<path d="M129.206 281.011L129.309 280.831C129.447 280.934 129.67 281.02 129.911 281.02C130.237 281.02 130.366 280.908 130.366 280.745C130.366 280.298 129.266 280.65 129.266 279.98C129.266 279.705 129.507 279.499 129.937 279.499C130.16 279.499 130.392 279.559 130.538 279.654L130.435 279.834C130.289 279.731 130.108 279.688 129.937 279.688C129.627 279.688 129.49 279.808 129.49 279.972C129.49 280.427 130.59 280.083 130.59 280.736C130.59 281.028 130.332 281.217 129.885 281.217C129.602 281.217 129.335 281.123 129.198 281.011H129.206Z" fill="#263238"/>
<path d="M132.299 280.152V281.209H132.076V280.943C131.973 281.114 131.775 281.226 131.492 281.226C131.105 281.226 130.873 281.028 130.873 280.728C130.873 280.47 131.045 280.247 131.526 280.247H132.067V280.143C132.067 279.851 131.904 279.697 131.586 279.697C131.363 279.697 131.157 279.774 131.019 279.894L130.916 279.722C131.088 279.576 131.337 279.49 131.603 279.49C132.042 279.49 132.291 279.714 132.291 280.152H132.299ZM132.067 280.693V280.418H131.535C131.208 280.418 131.096 280.547 131.096 280.719C131.096 280.917 131.251 281.037 131.526 281.037C131.801 281.037 131.973 280.917 132.067 280.693V280.693Z" fill="#263238"/>
<path d="M134.508 279.508V281.003C134.508 281.587 134.224 281.853 133.657 281.853C133.348 281.853 133.047 281.759 132.866 281.596L132.987 281.424C133.15 281.57 133.391 281.656 133.657 281.656C134.087 281.656 134.284 281.458 134.284 281.037V280.822C134.138 281.037 133.898 281.149 133.623 281.149C133.141 281.149 132.772 280.814 132.772 280.324C132.772 279.834 133.141 279.508 133.623 279.508C133.906 279.508 134.155 279.628 134.293 279.843V279.516H134.516L134.508 279.508ZM134.284 280.315C134.284 279.946 134.009 279.697 133.64 279.697C133.27 279.697 132.995 279.946 132.995 280.315C132.995 280.685 133.262 280.943 133.64 280.943C134.018 280.943 134.284 280.685 134.284 280.315Z" fill="#263238"/>
<path d="M136.63 280.427H135.212C135.238 280.779 135.513 281.02 135.882 281.02C136.089 281.02 136.278 280.943 136.406 280.796L136.535 280.943C136.381 281.123 136.149 281.217 135.882 281.217C135.35 281.217 134.989 280.857 134.989 280.35C134.989 279.843 135.341 279.49 135.822 279.49C136.303 279.49 136.647 279.843 136.647 280.35C136.647 280.367 136.647 280.393 136.647 280.418L136.63 280.427ZM135.212 280.255H136.415C136.389 279.92 136.14 279.688 135.814 279.688C135.487 279.688 135.238 279.92 135.212 280.255Z" fill="#263238"/>
<path d="M136.957 281.046C136.957 280.942 137.034 280.874 137.128 280.874C137.223 280.874 137.3 280.951 137.3 281.046C137.3 281.14 137.223 281.226 137.128 281.226C137.034 281.226 136.957 281.149 136.957 281.046Z" fill="#263238"/>
<path d="M137.635 281.046C137.635 280.942 137.712 280.874 137.807 280.874C137.901 280.874 137.978 280.951 137.978 281.046C137.978 281.14 137.901 281.226 137.807 281.226C137.712 281.226 137.635 281.149 137.635 281.046Z" fill="#263238"/>
<path d="M138.322 281.046C138.322 280.942 138.4 280.874 138.494 280.874C138.589 280.874 138.666 280.951 138.666 281.046C138.666 281.14 138.589 281.226 138.494 281.226C138.4 281.226 138.322 281.149 138.322 281.046Z" fill="#263238"/>
<path d="M100.802 281.931C100.484 282.309 99.9171 282.361 99.5391 282.043C99.1611 281.725 99.1095 281.158 99.4274 280.78L101.283 278.554C101.489 278.305 101.85 278.279 102.099 278.477C102.349 278.683 102.374 279.044 102.177 279.293L100.604 281.175C100.484 281.269 100.312 281.269 100.192 281.175C100.072 281.072 100.046 280.909 100.115 280.771L101.326 279.319L101.163 279.182L100.012 280.565L99.9515 280.634C99.814 280.866 99.857 281.166 100.063 281.338C100.269 281.51 100.57 281.493 100.768 281.321L100.802 281.287C100.802 281.287 100.819 281.269 100.828 281.261L102.357 279.422C102.615 279.087 102.572 278.597 102.237 278.322C101.91 278.047 101.421 278.09 101.137 278.408L99.204 280.728C98.8775 281.201 98.9634 281.845 99.4102 282.214C99.857 282.584 100.501 282.55 100.905 282.146L102.46 280.281L102.297 280.144L100.802 281.94V281.931Z" fill="#E0E0E0"/>
<path d="M152.671 109.363C152.671 109.441 144.784 109.501 135.058 109.501C125.332 109.501 117.444 109.441 117.444 109.363C117.444 109.286 125.332 109.226 135.058 109.226C144.784 109.226 152.671 109.286 152.671 109.363Z" fill="#263238"/>
<path d="M152.671 113.719C152.671 113.797 144.784 113.857 135.058 113.857C125.332 113.857 117.444 113.797 117.444 113.719C117.444 113.642 125.332 113.582 135.058 113.582C144.784 113.582 152.671 113.642 152.671 113.719Z" fill="#263238"/>
<path d="M152.671 118.075C152.671 118.153 144.784 118.213 135.058 118.213C125.332 118.213 117.444 118.153 117.444 118.075C117.444 117.998 125.332 117.938 135.058 117.938C144.784 117.938 152.671 117.998 152.671 118.075Z" fill="#263238"/>
<path d="M152.671 122.431C152.671 122.509 144.784 122.569 135.058 122.569C125.332 122.569 117.444 122.509 117.444 122.431C117.444 122.354 125.332 122.294 135.058 122.294C144.784 122.294 152.671 122.354 152.671 122.431Z" fill="#263238"/>
<path d="M135.126 126.787C135.126 126.787 134.877 126.822 134.43 126.839C133.923 126.848 133.296 126.865 132.54 126.882C130.942 126.908 128.734 126.925 126.294 126.925C123.854 126.925 121.646 126.908 120.048 126.882C119.291 126.865 118.656 126.848 118.157 126.839C117.711 126.822 117.461 126.805 117.461 126.787C117.461 126.77 117.711 126.753 118.157 126.736C118.664 126.727 119.291 126.71 120.048 126.693C121.646 126.667 123.854 126.65 126.294 126.65C128.734 126.65 130.942 126.667 132.54 126.693C133.296 126.71 133.932 126.727 134.43 126.736C134.877 126.753 135.126 126.77 135.126 126.787Z" fill="#263238"/>
<path d="M115.004 149.298H140.823C145.987 149.298 150.171 153.491 150.171 158.646V159.789C150.171 164.952 145.978 169.136 140.823 169.136H105.648V158.637C105.648 153.474 109.841 149.289 114.996 149.289L115.004 149.298Z" fill="#EBEBEB"/>
<path d="M143.401 156.842C143.401 156.919 136.467 156.979 127.91 156.979C119.352 156.979 112.418 156.919 112.418 156.842C112.418 156.764 119.352 156.704 127.91 156.704C136.467 156.704 143.401 156.764 143.401 156.842Z" fill="#263238"/>
<path d="M131.338 161.67C131.338 161.67 131.071 161.705 130.59 161.722C130.058 161.73 129.379 161.748 128.563 161.765C126.853 161.79 124.481 161.808 121.87 161.808C119.258 161.808 116.895 161.79 115.177 161.765C114.36 161.748 113.682 161.73 113.149 161.722C112.668 161.705 112.401 161.687 112.401 161.67C112.401 161.653 112.668 161.636 113.149 161.619C113.682 161.61 114.36 161.593 115.177 161.576C116.886 161.55 119.258 161.533 121.87 161.533C124.481 161.533 126.844 161.55 128.563 161.576C129.379 161.593 130.058 161.61 130.59 161.619C131.071 161.636 131.338 161.653 131.338 161.67Z" fill="#263238"/>
<path d="M107.521 211.529V213.617H107.306V211.718H106.816V211.529H107.521Z" fill="#E0E0E0"/>
<path d="M108.595 211.529V213.617H108.38V211.718H107.891V211.529H108.595Z" fill="#E0E0E0"/>
<path d="M109.093 212.199C109.093 212.105 109.162 212.036 109.248 212.036C109.334 212.036 109.411 212.105 109.411 212.199C109.411 212.294 109.334 212.362 109.248 212.362C109.162 212.362 109.093 212.294 109.093 212.199ZM109.093 213.471C109.093 213.376 109.162 213.307 109.248 213.307C109.334 213.307 109.411 213.376 109.411 213.471C109.411 213.565 109.334 213.634 109.248 213.634C109.162 213.634 109.093 213.565 109.093 213.471Z" fill="#E0E0E0"/>
<path d="M111.104 213.015C111.104 213.367 110.855 213.634 110.348 213.634C110.047 213.634 109.755 213.531 109.6 213.367L109.703 213.196C109.841 213.333 110.081 213.436 110.348 213.436C110.691 213.436 110.88 213.273 110.88 213.015C110.88 212.757 110.708 212.603 110.313 212.603H110.167V212.448L110.743 211.726H109.677V211.537H111.018V211.692L110.425 212.431C110.872 212.457 111.095 212.689 111.095 213.024L111.104 213.015Z" fill="#E0E0E0"/>
<path d="M111.404 212.577C111.404 211.915 111.757 211.52 112.238 211.52C112.719 211.52 113.071 211.915 113.071 212.577C113.071 213.239 112.719 213.634 112.238 213.634C111.757 213.634 111.404 213.239 111.404 212.577ZM112.848 212.577C112.848 212.019 112.599 211.709 112.238 211.709C111.877 211.709 111.628 212.019 111.628 212.577C111.628 213.136 111.877 213.445 112.238 213.445C112.599 213.445 112.848 213.136 112.848 212.577Z" fill="#E0E0E0"/>
<path d="M167.526 206.202H113.243C108.079 206.202 103.895 202.009 103.895 196.854V195.711C103.895 190.548 108.088 186.364 113.243 186.364H158.178C163.342 186.364 167.526 190.556 167.526 195.711V206.211V206.202Z" fill="#EBEBEB"/>
<path d="M157.216 193.684C157.216 193.761 147.439 193.821 135.376 193.821C123.313 193.821 113.535 193.761 113.535 193.684C113.535 193.606 123.313 193.546 135.376 193.546C147.439 193.546 157.216 193.606 157.216 193.684Z" fill="#263238"/>
<path d="M157.216 198.392C157.216 198.469 147.439 198.529 135.376 198.529C123.313 198.529 113.535 198.469 113.535 198.392C113.535 198.315 123.313 198.254 135.376 198.254C147.439 198.254 157.216 198.315 157.216 198.392Z" fill="#263238"/>
<path d="M113.38 223.411H139.199C144.363 223.411 148.547 227.604 148.547 232.759V233.902C148.547 239.066 144.354 243.25 139.199 243.25H104.024V232.751C104.024 227.587 108.217 223.403 113.372 223.403L113.38 223.411Z" fill="#EBEBEB"/>
<path d="M142.67 230.62C142.67 230.698 135.333 230.758 126.286 230.758C117.238 230.758 109.901 230.698 109.901 230.62C109.901 230.543 117.238 230.483 126.286 230.483C135.333 230.483 142.67 230.543 142.67 230.62Z" fill="#263238"/>
<path d="M130.976 235.337C130.976 235.337 130.684 235.372 130.152 235.389C129.567 235.397 128.811 235.414 127.892 235.432C125.985 235.457 123.347 235.475 120.443 235.475C117.539 235.475 114.901 235.457 112.994 235.432C112.074 235.414 111.318 235.397 110.734 235.389C110.201 235.372 109.909 235.354 109.909 235.337C109.909 235.32 110.201 235.303 110.734 235.286C111.318 235.277 112.074 235.26 112.994 235.243C114.901 235.217 117.539 235.2 120.443 235.2C123.347 235.2 125.985 235.217 127.892 235.243C128.811 235.26 129.567 235.277 130.152 235.286C130.684 235.303 130.976 235.32 130.976 235.337Z" fill="#263238"/>
<path d="M335.9 237.699C337.137 238.936 338.374 240.173 339.612 241.411C339.998 241.797 340.582 242.038 341.132 242.038C341.682 242.038 342.292 241.806 342.653 241.411C343.031 240.998 343.306 240.466 343.28 239.89C343.254 239.323 343.065 238.782 342.653 238.369C341.416 237.132 340.179 235.895 338.941 234.657C338.555 234.271 337.971 234.03 337.421 234.03C336.871 234.03 336.261 234.262 335.9 234.657C335.522 235.07 335.247 235.603 335.273 236.178C335.298 236.745 335.487 237.287 335.9 237.699Z" fill="#FAFAFA"/>
<path d="M349.372 181.757C349.372 181.878 347.508 181.981 345.214 181.981C342.92 181.981 341.055 181.878 341.055 181.757C341.055 181.637 342.92 181.534 345.214 181.534C347.508 181.534 349.372 181.637 349.372 181.757Z" fill="#455A64"/>
<path d="M378.421 86.0099C376.943 81.5507 379.606 65.5613 376.11 65.5355C371.65 65.5012 372.931 83.6042 372.922 85.228C372.913 86.8003 370.568 86.8261 370.662 85.3655C370.783 83.2691 371.487 62.5971 367.019 62.9666C364.545 63.1642 364.854 67.6835 364.854 67.6835C364.854 67.6835 366.238 88.3554 364.124 88.45C361.976 88.5531 361.254 76.4901 361.082 72.2543C360.919 68.1904 359.201 66.5751 357.336 67.9326C355.343 69.3933 355.841 81.5421 355.945 85.6146C356.048 89.6872 356.529 100.874 351.812 95.4351C347.095 89.9965 341.467 87.5478 339.508 87.9344C337.549 88.3211 337.446 91.1993 339.465 92.1358C341.098 92.8919 343.452 94.9883 345.153 96.638C346.554 97.9955 347.559 99.6709 348.624 101.312C349.38 102.48 350.661 104.817 351.468 108.168C352.405 112.043 354.991 115.308 358.505 117.181L358.282 124.75L380.07 122.86L380.491 108.529C380.715 97.5745 382.631 90.2113 383.782 83.6987C385.621 73.3111 384.289 72.9932 383.043 73.0534C380.294 73.1823 379.89 90.3659 378.447 86.0185L378.421 86.0099Z" fill="#B78876"/>
<path d="M378.421 100.075C378.429 100.178 377.218 100.16 375.431 100.822C373.661 101.458 371.341 102.91 369.777 105.35C369.356 106.003 369.039 106.69 368.772 107.36L368.643 107.695L368.377 107.472C366.573 105.96 364.7 105.032 363.325 104.508C361.95 103.975 361.074 103.786 361.091 103.717C361.091 103.666 362.002 103.743 363.437 104.199C364.863 104.654 366.822 105.539 368.695 107.085L368.3 107.197C368.566 106.493 368.901 105.762 369.339 105.084C370.155 103.812 371.195 102.798 372.243 102.033C373.3 101.277 374.374 100.788 375.311 100.487C376.238 100.178 377.038 100.1 377.579 100.049C378.12 100.032 378.421 100.049 378.421 100.083V100.075Z" fill="#AA6550"/>
<path d="M375.388 115.385C375.44 115.505 373.137 116.494 370.095 116.863C367.054 117.25 364.579 116.863 364.605 116.734C364.614 116.579 367.062 116.734 370.035 116.356C373.008 115.995 375.336 115.239 375.388 115.385Z" fill="#AA6550"/>
<path d="M316.929 116.039C316.929 116.039 328.279 121.838 334.259 130.19C340.23 138.541 358.265 164.437 358.265 164.437L355.721 125.138L383.576 121.529C383.576 121.529 391.687 161.112 393.577 174.798C395.347 187.609 394.608 200.213 382.098 207.087C367.338 215.197 350.575 204.243 344.999 200.084C338.074 194.92 325.289 186.5 325.289 186.5L316.929 116.039Z" fill="#E0E0E0"/>
<path d="M302.933 111.141L294.986 102.257L260.24 99.5938L255.738 106.871L267.921 182.866L262.431 259.617H307.702L302.933 111.141Z" fill="#88A6EA"/>
<g opacity="0.3">
<path d="M264.536 241.359C265.73 240.088 267.689 238.326 269.433 238.292C281.935 238.017 294.711 236.762 307.22 236.488L307.701 259.608L301.61 256.764C301.266 254.135 300.828 250.999 298.431 249.874C297.073 249.238 295.484 249.487 294.015 249.779C289.495 250.673 285.01 251.841 280.414 252.125C275.817 252.408 271.006 251.738 267.148 249.229C265.825 248.37 264.596 247.253 263.978 245.801C263.359 244.349 263.462 242.51 264.536 241.359V241.359Z" fill="black"/>
</g>
<path d="M294.985 102.257L317.238 116.657L321.938 132.105L326.449 180.271L321.483 229.563L330.057 259.617H307.701L307.65 247.76L305.27 164.299L302.933 111.141L294.985 102.257Z" fill="#E0E0E0"/>
<path d="M306.962 175.812C306.962 175.812 307.1 175.606 307.332 175.193C307.572 174.747 307.908 174.137 308.32 173.363C308.732 172.564 309.136 171.525 309.652 170.356C309.901 169.763 310.098 169.11 310.348 168.423C310.588 167.736 310.855 167.014 311.052 166.232C312.925 160.046 314.171 151.119 313.905 141.264C313.879 140.499 313.853 139.743 313.802 138.996V138.867L313.673 138.815C312.487 138.317 311.327 137.827 310.184 137.346L310.236 137.707C311.43 136.745 312.599 135.808 313.716 134.906L313.784 134.846V134.76C313.948 131.048 313.045 127.706 312.203 124.802C311.327 121.89 310.365 119.381 309.523 117.31C308.681 115.248 307.95 113.633 307.426 112.533C307.169 111.983 306.954 111.562 306.808 111.287C306.662 111.004 306.576 110.866 306.567 110.866C306.559 110.866 306.619 111.021 306.739 111.313C306.877 111.639 307.066 112.06 307.289 112.585C307.77 113.702 308.466 115.325 309.274 117.396C310.081 119.467 311.009 121.984 311.851 124.888C312.667 127.784 313.535 131.117 313.363 134.717L313.441 134.571C312.315 135.473 311.155 136.401 309.952 137.355L309.677 137.578L310.004 137.716C311.138 138.197 312.307 138.687 313.492 139.185L313.363 139.004C313.415 139.743 313.441 140.499 313.466 141.256C313.724 151.059 312.539 159.96 310.751 166.129C310.562 166.911 310.305 167.632 310.081 168.32C309.849 169.007 309.66 169.66 309.42 170.253C308.93 171.43 308.552 172.47 308.165 173.277C307.779 174.059 307.478 174.678 307.246 175.133C307.04 175.563 306.937 175.786 306.954 175.795L306.962 175.812Z" fill="#263238"/>
<path d="M322.599 207.164C322.599 207.164 322.677 206.94 322.788 206.519C322.909 206.055 323.063 205.428 323.261 204.638C323.467 203.821 323.708 202.816 323.931 201.648C324.163 200.479 324.464 199.147 324.704 197.661C324.962 196.183 325.246 194.551 325.469 192.798C325.735 191.045 325.916 189.164 326.131 187.187C326.492 183.227 326.732 178.853 326.732 174.257C326.715 169.66 326.457 165.287 326.079 161.326C325.864 159.35 325.675 157.468 325.4 155.716C325.168 153.963 324.885 152.339 324.618 150.853C324.378 149.366 324.069 148.043 323.837 146.866C323.605 145.698 323.364 144.692 323.149 143.876C322.952 143.094 322.788 142.467 322.668 142.003C322.556 141.573 322.488 141.35 322.471 141.359C322.453 141.359 322.496 141.591 322.582 142.029C322.685 142.501 322.814 143.129 322.977 143.919C323.158 144.735 323.381 145.74 323.587 146.918C323.802 148.095 324.086 149.418 324.309 150.904C324.558 152.382 324.825 154.006 325.031 155.759C325.289 157.503 325.46 159.384 325.667 161.352C326.019 165.304 326.26 169.66 326.285 174.24C326.285 178.819 326.053 183.175 325.718 187.127C325.521 189.103 325.349 190.976 325.1 192.729C324.893 194.482 324.636 196.106 324.395 197.584C324.18 199.07 323.897 200.402 323.691 201.57C323.484 202.747 323.27 203.753 323.089 204.569C322.926 205.359 322.797 205.995 322.694 206.468C322.608 206.906 322.574 207.129 322.582 207.138L322.599 207.164Z" fill="#263238"/>
<path d="M317.204 247.477C317.161 247.502 317.496 248.284 318.175 249.478C318.853 250.673 319.893 252.271 321.225 253.903C322.557 255.527 323.923 256.867 324.962 257.77C326.002 258.672 326.706 259.153 326.741 259.11C326.784 259.058 326.148 258.491 325.168 257.546C324.189 256.593 322.883 255.244 321.56 253.637C320.245 252.03 319.171 250.475 318.432 249.332C317.694 248.19 317.264 247.459 317.204 247.485V247.477Z" fill="#263238"/>
<g opacity="0.3">
<path d="M306.103 207.146C303.749 205.918 300.871 206.562 298.397 207.516C295.922 208.478 293.456 209.749 290.801 209.724C287.201 209.689 282.089 208.375 280.199 205.307C278.318 202.24 276.402 197.549 275.637 194.035C272.767 180.821 272.114 169.239 269.245 156.025C267.681 148.833 265.696 140.516 263.033 133.66C260.446 127.019 258.058 120.145 256.03 113.315C256.383 128.814 256.743 144.366 259.141 159.676C260.678 169.522 263.058 179.231 264.347 189.12C265.456 197.583 265.765 206.132 266.074 214.664L274.125 224.51L296.317 224.966L307.908 210.016L306.103 207.155V207.146Z" fill="black"/>
</g>
<path d="M225.667 115.386C217.161 118.685 210.846 125.988 208.827 134.889C202.314 163.62 191.162 201.828 190.981 214.157C190.758 229.855 197.623 240.603 206.584 242.588C213.672 244.152 277.914 240.637 277.914 240.637L280.947 213.831L228.889 209.045L236.011 169.239L228.957 114.105L225.649 115.386H225.667Z" fill="#E0E0E0"/>
<path d="M228.974 114.105L243.357 108.228L259.802 99.3445L259.957 99.817C258.101 102.996 256.125 108.864 256.821 112.481L269.442 178.312L266.581 226.409L262.448 259.617H221.01L236.037 224.253L228.639 157.829L228.983 114.105H228.974Z" fill="#E0E0E0"/>
<path d="M236.441 165.21C236.441 165.21 236.389 165.364 236.329 165.648C236.26 165.983 236.183 166.404 236.08 166.919C235.865 168.088 235.573 169.686 235.221 171.619C234.516 175.649 233.562 181.113 232.514 187.153C231.509 193.202 230.598 198.675 229.919 202.713C229.619 204.663 229.361 206.262 229.181 207.439L229 208.727C228.966 209.019 228.949 209.183 228.966 209.183C228.983 209.183 229.017 209.037 229.086 208.745C229.155 208.409 229.241 207.988 229.344 207.473C229.559 206.304 229.859 204.715 230.22 202.773C230.942 198.804 231.904 193.305 232.935 187.239C233.966 181.165 234.886 175.666 235.521 171.679C235.822 169.729 236.063 168.131 236.252 166.954C236.32 166.43 236.38 166.009 236.423 165.665C236.458 165.364 236.466 165.21 236.449 165.21H236.441Z" fill="#263238"/>
<path d="M251.906 103.976C251.906 103.976 251.88 104.027 251.846 104.139C251.811 104.268 251.768 104.431 251.717 104.62C251.614 105.05 251.425 105.668 251.253 106.493C250.883 108.134 250.454 110.54 250.153 113.581C249.852 116.614 249.724 120.283 249.878 124.39C250.016 128.497 250.454 133.042 251.073 137.862L251.09 138.016L251.244 138.042C252.739 138.317 254.329 138.618 255.944 138.919L255.781 138.626C255.514 139.348 255.231 140.121 255.025 140.929C253.495 146.514 254.166 152.159 255.557 156.884C256.975 161.653 259.14 165.605 261.082 168.784C263.041 171.971 264.819 174.42 266.039 176.113C266.641 176.929 267.122 177.582 267.466 178.046C267.62 178.243 267.749 178.407 267.844 178.544C267.93 178.656 267.981 178.707 267.981 178.707C267.981 178.707 267.955 178.639 267.878 178.518C267.784 178.381 267.672 178.209 267.534 177.994C267.208 177.513 266.753 176.852 266.177 176.01C265 174.291 263.264 171.817 261.34 168.621C259.441 165.433 257.319 161.489 255.935 156.764C254.578 152.081 253.934 146.505 255.437 141.032C255.643 140.242 255.918 139.486 256.185 138.773L256.271 138.532L256.021 138.489C254.406 138.188 252.817 137.896 251.322 137.621L251.494 137.802C250.866 132.999 250.411 128.462 250.248 124.373C250.067 120.283 250.162 116.631 250.428 113.607C250.686 110.583 251.073 108.168 251.399 106.527C251.545 105.703 251.708 105.075 251.786 104.646C251.82 104.448 251.854 104.285 251.88 104.156C251.897 104.044 251.906 103.984 251.897 103.984L251.906 103.976Z" fill="#263238"/>
<path d="M251.915 171.499V161C251.915 161 251.777 158.405 253.96 158.955C256.142 159.505 255.73 163.594 255.73 163.594C255.73 163.594 256.142 179.549 255.188 179.412C254.235 179.274 253.865 178.046 253.865 178.046V171.911L251.915 171.499V171.499Z" fill="#88A6EA"/>
<path d="M242.833 172.152C242.833 172.272 245.35 172.366 248.461 172.366C251.571 172.366 254.088 172.272 254.088 172.152C254.088 172.031 251.571 171.937 248.461 171.937C245.35 171.937 242.833 172.031 242.833 172.152Z" fill="#263238"/>
<path d="M222.049 121.615C222.049 121.615 222.462 121.786 223.226 122.053C223.982 122.328 225.074 122.749 226.345 123.402C228.888 124.699 232.213 127.045 234.791 130.593C235.444 131.469 235.994 132.389 236.449 133.299C236.87 134.236 237.214 135.164 237.446 136.083C237.944 137.913 238.159 139.614 238.279 141.049C238.4 142.484 238.425 143.653 238.434 144.452C238.434 145.259 238.434 145.706 238.46 145.706C238.486 145.706 238.554 145.268 238.597 144.452C238.64 143.644 238.666 142.467 238.58 141.023C238.494 139.58 238.305 137.844 237.824 135.98C237.592 135.044 237.257 134.081 236.827 133.119C236.363 132.165 235.796 131.237 235.135 130.344C232.506 126.727 229.095 124.372 226.483 123.135C225.168 122.508 224.051 122.13 223.278 121.898C222.496 121.683 222.058 121.597 222.049 121.623V121.615Z" fill="#263238"/>
<path d="M277.922 240.629C277.922 240.629 277.922 240.457 277.948 240.122C277.982 239.761 278.025 239.271 278.085 238.661C278.223 237.347 278.412 235.491 278.652 233.154C279.168 228.394 279.898 221.701 280.766 213.797L280.946 214.02C275.104 213.522 268.54 212.972 261.615 212.379C248.864 211.253 237.334 210.24 228.94 209.501C224.764 209.088 221.439 210.325 219.394 211.382C218.363 211.924 217.616 212.448 217.117 212.808C216.885 212.98 216.705 213.126 216.559 213.238C216.43 213.333 216.361 213.376 216.361 213.376C216.361 213.376 217.255 212.405 219.317 211.236C221.353 210.119 224.713 208.813 228.974 209.191C237.368 209.896 248.907 210.867 261.666 211.941C268.591 212.542 275.155 213.109 280.989 213.616L281.195 213.633L281.17 213.839C280.242 221.744 279.46 228.428 278.901 233.18C278.609 235.508 278.386 237.364 278.223 238.67C278.137 239.28 278.076 239.761 278.025 240.122C277.973 240.448 277.948 240.62 277.939 240.62L277.922 240.629Z" fill="#263238"/>
<path d="M263.943 241.351C263.943 241.351 263.857 240.947 263.788 240.216C263.711 239.486 263.642 238.421 263.591 237.115C263.488 234.494 263.505 230.851 263.857 226.856C264.218 222.861 264.828 219.27 265.395 216.709C265.679 215.429 265.928 214.398 266.134 213.685C266.331 212.98 266.452 212.594 266.486 212.594C266.512 212.594 266.452 213.006 266.306 213.719C266.151 214.527 265.945 215.549 265.713 216.761C265.232 219.33 264.665 222.904 264.312 226.882C263.96 230.86 263.891 234.477 263.917 237.098C263.934 238.335 263.952 239.375 263.969 240.199C263.986 240.93 263.977 241.342 263.952 241.342L263.943 241.351Z" fill="#263238"/>
<path d="M271.306 232.939C271.306 232.939 271.521 232.827 271.942 232.827C272.363 232.827 272.99 232.965 273.609 233.42C274.219 233.858 274.82 234.726 274.743 235.792C274.691 236.814 274.056 237.957 272.904 238.421C271.736 238.85 270.499 238.421 269.786 237.682C269.029 236.926 268.944 235.852 269.167 235.13C269.382 234.383 269.82 233.901 270.155 233.661C270.499 233.412 270.739 233.369 270.748 233.394C270.765 233.429 270.559 233.532 270.267 233.798C269.983 234.065 269.622 234.537 269.468 235.216C269.313 235.877 269.416 236.771 270.078 237.398C270.696 238.017 271.787 238.369 272.741 238.008C273.695 237.63 274.27 236.651 274.331 235.774C274.417 234.872 273.935 234.108 273.411 233.678C272.879 233.231 272.312 233.059 271.925 233.008C271.53 232.956 271.306 232.982 271.298 232.939H271.306Z" fill="#263238"/>
<path d="M259.982 99.1125C259.982 99.1125 259.896 99.1727 259.707 99.2844C259.51 99.3961 259.243 99.5507 258.883 99.7569C258.144 100.169 257.061 100.771 255.661 101.561C252.817 103.134 248.675 105.428 243.409 108.34H243.4C237.704 110.729 230.744 113.65 222.763 116.992C218.733 118.53 215.021 121.546 212.375 125.575C211.026 127.577 209.943 129.828 209.093 132.217C208.242 134.597 207.615 137.149 207.306 139.761V139.778C203.491 156.119 199.152 174.858 194.959 194.765C194.057 199.044 193.207 203.289 192.408 207.473C192.201 208.521 192.021 209.561 191.832 210.6C191.651 211.64 191.445 212.679 191.316 213.71C191.033 215.772 190.904 217.852 190.998 219.897C191.179 223.986 192.072 227.99 193.731 231.573C194.556 233.36 195.578 235.035 196.807 236.513C198.052 237.974 199.513 239.22 201.111 240.191C204.324 242.149 208.045 242.948 211.61 242.768C215.202 242.699 218.69 242.622 222.058 242.553C228.803 242.39 235.083 242.192 240.814 241.995C252.267 241.574 261.537 241.239 267.964 241.007C271.16 240.886 273.643 240.792 275.345 240.723C276.178 240.697 276.822 240.672 277.261 240.663C277.69 240.654 277.914 240.663 277.914 240.663C277.914 240.663 277.69 240.689 277.261 240.715L275.345 240.826C273.643 240.912 271.16 241.033 267.964 241.187C261.555 241.488 252.284 241.892 240.814 242.321C235.083 242.536 228.803 242.751 222.058 242.931C218.681 243.009 215.202 243.086 211.602 243.163C208.002 243.361 204.17 242.553 200.888 240.551C199.247 239.563 197.743 238.292 196.471 236.788C195.208 235.276 194.177 233.566 193.335 231.753C191.651 228.119 190.741 224.064 190.552 219.922C190.449 217.843 190.586 215.747 190.87 213.659C190.998 212.611 191.205 211.58 191.385 210.531C191.574 209.492 191.746 208.444 191.961 207.395C192.751 203.203 193.61 198.967 194.513 194.68C198.705 174.764 203.061 156.025 206.902 139.7V139.726C207.211 137.054 207.856 134.502 208.715 132.088C209.574 129.674 210.674 127.405 212.048 125.378C214.738 121.297 218.535 118.238 222.616 116.691C230.615 113.384 237.592 110.497 243.297 108.134H243.288C248.581 105.264 252.739 103.005 255.592 101.458C257.01 100.693 258.092 100.109 258.84 99.714C259.2 99.525 259.475 99.3789 259.682 99.2758C259.871 99.1813 259.974 99.1383 259.974 99.1383L259.982 99.1125Z" fill="#263238"/>
<path d="M332.076 168.148H312.436V174.274H332.076V168.148Z" fill="#263238"/>
<path d="M404.712 179.412L339.362 249.118L275.637 249.504L274.125 246.609L336.939 178.544L404.712 179.412Z" fill="#263238"/>
<path d="M342.954 178.544C342.954 178.544 347.198 178.518 348.452 180.022C349.93 181.792 352.74 185.778 346.588 195.925C344.131 199.981 332.076 213.994 327.119 228.291C322.488 241.651 324.601 246.076 324.601 246.076L370.585 244.641L371.479 242.983C371.479 242.983 391.472 188.82 386.171 178.544C383.73 173.818 342.627 176.808 342.954 178.544V178.544Z" fill="#E0E0E0"/>
<path d="M378.223 243.24L328.751 243.653C328.158 231.117 332.506 222.027 338.976 211.279C341.45 207.163 344.835 203.641 347.301 199.517C349.887 195.195 351.417 190.246 351.726 185.211C351.846 183.201 351.726 181.027 350.489 179.438C349.251 177.848 344.844 177.762 342.945 178.535C342.945 178.535 345.815 176.216 350.222 175.846C354.217 175.511 386.918 175.734 393.001 175.786C393.714 175.786 396.704 176.164 397.34 176.491C401.773 178.793 402.684 184.825 402.057 189.172C401.464 193.296 398.912 197.18 395.707 201.519C394.788 202.764 393.929 204.062 393.156 205.402C389.779 211.253 380.457 227.664 378.782 233.326C377.398 238.008 378.206 243.232 378.206 243.232L378.223 243.24Z" fill="#FAFAFA"/>
<path d="M378.223 243.129L366.306 243.232L343.555 243.421C340.376 243.447 337.189 243.472 334.01 243.498C332.944 243.507 331.879 243.515 330.813 243.524C330.289 243.524 329.542 243.67 329.026 243.541C328.983 243.533 328.786 243.576 328.76 243.541C328.76 243.541 328.829 242.622 328.829 242.519C328.82 242.089 328.812 241.66 328.82 241.221C328.82 240.379 328.846 239.537 328.897 238.695C329.095 235.473 329.662 232.286 330.564 229.193C332.394 222.955 335.556 217.199 338.881 211.648C340.711 208.598 342.979 205.875 345.076 203.022C347.069 200.307 348.77 197.429 349.939 194.258C351.082 191.157 351.786 187.84 351.881 184.532C351.941 182.402 351.631 179.48 349.389 178.527C348.384 178.097 347.25 177.968 346.167 177.96C345.428 177.951 343.736 177.874 343.117 178.372C342.937 178.51 343.031 178.561 343.16 178.527C343.246 178.501 343.383 178.372 343.452 178.321C343.787 178.097 344.139 177.882 344.492 177.693C345.686 177.04 346.983 176.559 348.315 176.259C350.978 175.657 353.865 175.838 356.58 175.812C365.061 175.734 373.541 175.786 382.021 175.829C385.286 175.846 388.542 175.863 391.807 175.889C393.353 175.898 394.874 176.009 396.395 176.327C398.99 176.869 400.674 179.472 401.438 181.835C402.255 184.361 402.375 187.196 401.877 189.799C401.224 193.159 399.376 196.174 397.452 198.95C395.716 201.458 393.938 203.881 392.417 206.536C391.36 208.375 390.312 210.222 389.281 212.069C386.798 216.511 384.349 220.979 382.09 225.533C380.139 229.451 378.258 233.317 377.957 237.75C377.837 239.572 377.862 241.453 378.137 243.266C378.154 243.404 378.361 243.344 378.343 243.206C377.656 238.687 378.369 234.202 380.191 230.052C382.133 225.627 384.435 221.357 386.746 217.113C388.851 213.246 390.999 209.406 393.207 205.6C396.412 200.058 401.567 195.221 402.28 188.553C402.719 184.386 401.765 178.286 397.383 176.379C396.008 175.777 394.144 175.691 392.649 175.683C391.455 175.674 390.269 175.666 389.075 175.657C380.749 175.606 372.415 175.563 364.09 175.571C360.498 175.571 356.907 175.571 353.315 175.64C350.051 175.7 346.94 176.018 344.036 177.702C343.641 177.934 343.254 178.174 342.894 178.458C342.808 178.527 342.894 178.673 342.997 178.638C344.775 177.96 347.078 177.968 348.882 178.561C351.485 179.412 351.76 182.513 351.657 184.868C351.408 190.504 349.509 196.028 346.416 200.737C344.887 203.065 343.117 205.222 341.459 207.455C339.878 209.578 338.512 211.82 337.189 214.114C334.766 218.307 332.523 222.637 330.96 227.234C329.155 232.535 328.408 238.06 328.648 243.644C328.648 243.704 328.691 243.756 328.751 243.747L345.471 243.61L372.114 243.387C374.151 243.369 376.187 243.352 378.223 243.335C378.361 243.335 378.361 243.12 378.223 243.12V243.129Z" fill="#263238"/>
<path d="M375.302 232.904C375.302 233.025 366.581 233.128 355.815 233.128C345.05 233.128 336.329 233.025 336.329 232.904C336.329 232.784 345.05 232.681 355.815 232.681C366.581 232.681 375.302 232.784 375.302 232.904Z" fill="#263238"/>
<path d="M376.393 226.392C376.393 226.512 367.672 226.615 356.907 226.615C346.141 226.615 337.42 226.512 337.42 226.392C337.42 226.271 346.141 226.168 356.907 226.168C367.672 226.168 376.393 226.271 376.393 226.392Z" fill="#263238"/>
<path d="M381.634 219.398C381.634 219.518 372.913 219.622 362.148 219.622C351.382 219.622 342.662 219.518 342.662 219.398C342.662 219.278 351.382 219.175 362.148 219.175C372.913 219.175 381.634 219.278 381.634 219.398Z" fill="#263238"/>
<path d="M384.856 213.005C384.856 213.126 376.135 213.229 365.37 213.229C354.604 213.229 345.883 213.126 345.883 213.005C345.883 212.885 354.604 212.782 365.37 212.782C376.135 212.782 384.856 212.885 384.856 213.005Z" fill="#263238"/>
<path d="M387.004 207.163C387.004 207.283 378.283 207.386 367.518 207.386C356.752 207.386 348.031 207.283 348.031 207.163C348.031 207.043 356.752 206.94 367.518 206.94C378.283 206.94 387.004 207.043 387.004 207.163Z" fill="#263238"/>
<path d="M392.262 199.482C392.262 199.602 383.541 199.706 372.776 199.706C362.01 199.706 353.29 199.602 353.29 199.482C353.29 199.362 362.01 199.259 372.776 199.259C383.541 199.259 392.262 199.362 392.262 199.482Z" fill="#263238"/>
<path d="M397.28 192.136C397.28 192.257 388.559 192.36 377.793 192.36C367.028 192.36 358.307 192.257 358.307 192.136C358.307 192.016 367.028 191.913 377.793 191.913C388.559 191.913 397.28 192.016 397.28 192.136Z" fill="#263238"/>
<path d="M396.919 185.151C396.919 185.271 388.198 185.374 377.433 185.374C366.667 185.374 357.946 185.271 357.946 185.151C357.946 185.031 366.667 184.927 377.433 184.927C388.198 184.927 396.919 185.031 396.919 185.151Z" fill="#263238"/>
<path d="M336.939 178.544C336.939 178.544 337.034 178.604 337.214 178.733L337.979 179.343C338.675 179.91 339.663 180.718 340.943 181.758L341.02 181.826L340.952 181.904C335.633 187.72 324.103 200.153 310.726 214.492C301.489 224.605 292.605 233.274 286.17 239.52C282.948 242.639 280.319 245.148 278.498 246.875C277.595 247.717 276.891 248.379 276.384 248.851C276.152 249.057 275.972 249.229 275.826 249.358C275.697 249.47 275.628 249.521 275.628 249.521C275.628 249.521 275.679 249.453 275.8 249.324C275.937 249.186 276.109 249.006 276.324 248.791C276.814 248.301 277.501 247.623 278.377 246.755C280.19 244.976 282.768 242.433 285.947 239.297C292.322 232.991 301.163 224.304 310.399 214.192C323.777 199.852 335.376 187.488 340.806 181.775V181.912C339.56 180.838 338.597 180.013 337.91 179.429C337.601 179.154 337.36 178.948 337.171 178.785C337.008 178.639 336.931 178.561 336.931 178.553L336.939 178.544Z" fill="#455A64"/>
<path d="M280.895 216.907H290.217C290.217 216.907 296.524 211.408 297.959 210.978C300.957 210.085 308.707 209.14 308.707 209.14L303.414 214.87C303.414 214.87 303.621 214.647 303.414 214.87C302.194 216.194 299.935 217.388 301.275 217.388H310.975C310.975 217.388 320.907 212.628 322.377 213.496C323.614 214.226 324.043 215.549 322.78 217.388C321.509 219.226 312.814 223.574 311.809 223.909L308.965 224.742L311.637 225.576L324.293 221.151C325.117 221.005 326.251 220.868 326.621 221.349C327.128 222.002 327.437 222.878 326.552 223.797C324.988 225.43 320.83 228.299 320.83 228.299C320.83 228.299 322.849 231.264 321.174 232.776C319.498 234.279 314.652 238.799 314.652 238.799C314.652 238.799 314.154 241.307 312.642 242.476C311.13 243.644 294.582 243.644 293.405 243.644C292.228 243.644 285.543 239.795 285.543 239.795L278.283 239.263L280.887 216.898L280.895 216.907Z" fill="#B78876"/>
<path d="M309.747 233.085C309.747 233.085 310.417 233.309 311.559 233.326C312.127 233.326 312.822 233.248 313.536 232.982C314.249 232.716 314.97 232.303 315.692 231.831C317.127 230.894 318.407 230.035 319.327 229.399C320.246 228.755 320.796 228.343 320.77 228.3C320.744 228.257 320.134 228.592 319.18 229.176C318.227 229.76 316.912 230.585 315.486 231.513C314.773 231.977 314.085 232.389 313.415 232.656C312.745 232.931 312.101 233.034 311.559 233.059C310.46 233.111 309.764 233.025 309.755 233.094L309.747 233.085Z" fill="#AA6550"/>
<path d="M308.982 239.288C308.982 239.288 309.343 239.769 310.236 239.993C311.104 240.225 312.462 240.13 313.647 239.417C314.842 238.756 315.778 237.957 316.422 237.355C317.058 236.745 317.402 236.316 317.368 236.281C317.282 236.178 315.761 237.768 313.467 239.073C312.341 239.752 311.13 239.864 310.296 239.718C309.454 239.58 309.025 239.22 308.982 239.28V239.288Z" fill="#AA6550"/>
<path d="M304.291 225.576C304.291 225.679 305.485 225.67 306.911 225.37C308.337 225.078 309.437 224.614 309.403 224.519C309.368 224.416 308.243 224.7 306.834 224.992C305.433 225.284 304.282 225.464 304.291 225.576Z" fill="#AA6550"/>
<path d="M240.994 39.5027C238.554 35.1639 234.327 31.8646 229.533 30.55C224.73 29.2355 219.412 29.9314 215.107 32.4231C211.396 34.571 208.32 38.4545 208.569 42.7333C208.801 46.7714 211.808 50.0277 214.643 52.906C210.133 54.7876 207.873 60.5098 209.342 65.1666C210.82 69.8233 215.477 73.114 220.34 73.5608C225.203 74.0076 230.109 71.894 233.623 68.4916C237.137 65.0892 239.353 60.527 240.565 55.7843" fill="#263238"/>
<path d="M225.563 49.9161C225.563 49.9161 224.738 50.3457 223.089 50.5433C221.465 50.7495 218.947 50.5433 216.318 49.1343C215.021 48.4212 213.681 47.4245 212.607 46.0326C211.516 44.6579 210.708 42.9052 210.356 40.9634C209.643 37.1143 210.699 32.4317 213.895 29.1239C217.092 25.8246 221.602 24.4757 225.494 24.6475C229.43 24.8108 232.849 26.4003 234.928 28.5397C237.05 30.679 237.669 33.205 237.712 34.8289C237.729 35.6623 237.635 36.2981 237.523 36.7191C237.48 36.9339 237.42 37.0885 237.386 37.1916C237.351 37.2947 237.325 37.3463 237.325 37.3463C237.265 37.3377 237.618 36.4613 237.54 34.8289C237.446 33.2394 236.793 30.7993 234.705 28.7544C232.66 26.7096 229.318 25.1888 225.477 25.0514C221.68 24.9053 217.298 26.2284 214.213 29.4246C211.129 32.6122 210.081 37.1487 210.751 40.8775C211.077 42.7591 211.851 44.4517 212.89 45.7921C213.913 47.1496 215.21 48.129 216.456 48.8422C218.999 50.2598 221.456 50.5004 223.054 50.3543C224.678 50.2169 225.529 49.8474 225.546 49.9075L225.563 49.9161Z" fill="#263238"/>
<path d="M231.105 53.6624C231.105 53.6624 230.916 53.8256 230.521 54.049C230.134 54.281 229.542 54.5473 228.777 54.8223C228.021 55.1058 227.084 55.3464 226.027 55.5096C224.971 55.6557 223.785 55.7244 222.556 55.6385C221.319 55.5354 220.168 55.2948 219.137 54.9941C218.114 54.6676 217.229 54.2896 216.525 53.9029C215.82 53.5163 215.271 53.1554 214.918 52.8719C214.566 52.597 214.377 52.4251 214.394 52.408C214.446 52.3392 215.236 52.9406 216.662 53.628C217.376 53.9803 218.252 54.3153 219.249 54.6075C220.254 54.8824 221.379 55.1058 222.582 55.2003C223.785 55.2862 224.928 55.2347 225.967 55.1144C226.998 54.9683 227.918 54.7707 228.674 54.5301C230.186 54.0662 231.062 53.5936 231.097 53.671L231.105 53.6624Z" fill="#455A64"/>
<path d="M208.552 43.4551C208.552 43.4551 208.62 43.0685 208.895 42.4241C209.187 41.7969 209.677 40.8432 210.717 40.0699C211.748 39.288 213.251 38.8499 214.901 38.6608C216.568 38.4804 218.398 38.6179 220.279 38.9186C224.068 39.52 227.308 40.8775 229.481 42.0976C230.572 42.7076 231.414 43.2747 231.981 43.6785C232.54 44.0995 232.832 44.3486 232.815 44.3658C232.798 44.3916 232.471 44.194 231.878 43.8159C231.286 43.4551 230.426 42.931 229.327 42.3639C227.136 41.2298 223.931 39.941 220.202 39.3482C218.346 39.0561 216.542 38.91 214.927 39.0647C213.32 39.2193 211.877 39.6145 210.889 40.3191C209.892 41.015 209.368 41.9 209.041 42.4928C208.715 43.1028 208.569 43.4637 208.543 43.4465L208.552 43.4551Z" fill="#455A64"/>
<path d="M234.791 60.6901C234.791 60.6901 234.757 60.7932 234.662 60.9823C234.568 61.1713 234.413 61.429 234.198 61.7555C233.769 62.4085 233.064 63.3192 232.033 64.2815C231.002 65.2352 229.61 66.2233 227.892 66.9708C226.173 67.7011 224.129 68.1736 221.963 68.1478C219.798 68.1307 217.753 67.6495 216.052 66.8505C214.351 66.0428 213.036 64.9173 212.16 63.8004C211.284 62.6748 210.871 61.5751 210.717 60.8018C210.639 60.4152 210.605 60.1059 210.614 59.8997C210.614 59.6935 210.614 59.5818 210.631 59.5818C210.682 59.5818 210.682 60.0114 210.897 60.7589C211.095 61.4978 211.533 62.546 212.418 63.6028C213.294 64.651 214.583 65.7164 216.233 66.4724C217.882 67.2199 219.876 67.6839 221.972 67.6925C224.068 67.7183 226.062 67.2801 227.737 66.5841C229.421 65.8796 230.787 64.9431 231.827 64.0409C233.906 62.2109 234.714 60.63 234.791 60.6901V60.6901Z" fill="#455A64"/>
<path d="M236.424 65.1582C236.424 65.1582 236.123 65.5964 235.487 66.3009C234.851 67.0055 233.898 68.0021 232.643 69.162C232.016 69.7377 231.312 70.3477 230.521 70.9749C229.739 71.5935 228.854 72.2379 227.823 72.7362C225.778 73.7501 223.252 74.2828 220.623 74.1367C218.011 73.982 215.494 73.2002 213.707 71.7482C211.911 70.3133 210.751 68.552 210.064 66.9797C209.359 65.4074 209.162 63.9983 209.11 63.0532C209.085 62.5721 209.11 62.2026 209.136 61.9535C209.162 61.7043 209.179 61.5754 209.196 61.5754C209.213 61.5754 209.222 61.7129 209.231 61.9621C209.231 62.2112 209.231 62.5807 209.291 63.0446C209.394 63.9726 209.634 65.3387 210.356 66.8594C211.061 68.3716 212.221 70.0728 213.956 71.4303C215.683 72.805 218.106 73.5525 220.649 73.6985C223.201 73.836 225.658 73.3291 227.643 72.3754C228.64 71.9028 229.499 71.2928 230.289 70.6914C231.08 70.09 231.793 69.4971 232.429 68.9386C233.7 67.8217 234.68 66.8594 235.358 66.1979C236.037 65.5277 236.398 65.1582 236.424 65.1754V65.1582Z" fill="#455A64"/>
<path d="M243.658 38.9955L244.912 39.9836C244.405 37.8442 242.017 36.4953 239.834 36.7273C237.652 36.9592 235.762 38.48 234.602 40.3444C233.442 42.2089 232.909 44.3912 232.506 46.5477C231.827 50.1477 231.5 53.9969 232.935 57.3734C234.37 60.75 238.073 63.3963 241.63 62.5114C245.17 61.6264 247.155 57.7773 247.679 54.1687C248.452 48.8503 246.966 43.2399 243.658 39.0041V38.9955Z" fill="#E8505B"/>
<path d="M238.735 55.3288C238.795 55.4233 237.317 56.1794 235.332 56.0677C234.353 56.0248 233.494 55.7842 232.901 55.535C232.265 55.2859 232.084 54.8133 232.162 54.8047C232.213 54.779 232.428 55.0883 233.012 55.2429C233.597 55.4062 234.43 55.5866 235.358 55.6296C237.222 55.7327 238.692 55.2086 238.735 55.3374V55.3288Z" fill="#263238"/>
<path d="M240.479 48.962C240.479 49.0823 238.632 49.1252 236.355 49.0565C234.078 48.9878 232.239 48.8245 232.248 48.7042C232.248 48.5839 234.095 48.541 236.372 48.6097C238.64 48.6784 240.479 48.8417 240.479 48.962Z" fill="#263238"/>
<path d="M239.104 42.1403C239.087 42.2863 237.833 42.1059 236.338 41.9684C235.59 41.9169 234.92 41.9684 234.447 42.0715C233.975 42.1746 233.683 42.2949 233.648 42.2348C233.623 42.1918 233.863 41.9598 234.353 41.7708C234.843 41.5732 235.573 41.4615 236.363 41.5217C237.936 41.6677 239.113 42.0458 239.104 42.1403V42.1403Z" fill="#263238"/>
<path d="M247.833 24.9141C247.73 21.3141 251.064 18.5304 254.415 17.2158C257.765 15.9013 261.494 15.403 264.476 13.3925C267.122 11.614 268.9 8.83879 271.134 6.56195C276.624 0.994445 285.199 -1.31676 292.751 0.745281C300.295 2.80732 306.515 9.14809 308.414 16.7347C309.703 21.864 308.827 27.9213 304.78 31.3322C300.089 35.2845 293.138 34.4081 287.124 33.1795C281.118 31.9508 274.313 30.7394 269.296 34.262C266.271 36.3928 264.536 39.8553 262.689 43.0601C260.841 46.2648 258.521 49.5383 255.016 50.7412C251.519 51.944 246.768 49.8648 246.63 46.1703" fill="#263238"/>
<path d="M248.074 26.8902C248.469 29.9059 246.287 32.6123 244.113 34.7431C241.939 36.8739 239.482 39.1336 239.104 42.1493C238.657 45.6719 241.226 49.1516 240.487 52.6227C240.015 54.8308 238.296 56.532 237.257 58.5339C235.796 61.3435 235.719 64.7458 236.612 67.7873C237.506 70.8288 238.932 77.6078 241.046 79.9706C246.888 86.5004 256.185 92.1366 264.725 94.0955C273.265 96.0545 282.132 96.0717 290.878 95.5304C298.035 95.0922 306.266 95.4187 312.238 85.5724C315.331 80.4689 316.86 73.6899 318.501 67.9592C319.919 63.0189 321.139 57.7349 319.67 52.8203C318.81 49.9507 317.092 47.4075 316.241 44.5378C315.185 40.955 315.571 37.1145 315.15 33.4028C314.231 25.3608 309.239 17.8945 302.168 13.9681C295.097 10.0416 286.118 9.75806 278.807 13.2292" fill="#263238"/>
<path d="M260.24 108.847C260.24 108.847 260.274 109.07 260.283 109.165L260.24 108.847Z" fill="#B78876"/>
<path d="M311.713 39.2533C311.043 28.9775 304.204 16.3904 293.971 17.4988L262.018 25.6524C258.908 25.9875 256.571 28.651 256.64 31.7698L260.154 107.146C260.214 108.426 260.515 109.689 261.039 110.858C263.41 116.09 271.297 129.382 288.421 123.995C292.614 122.68 294.521 118.092 295.354 113.384C295.354 112.825 295.586 112.327 295.595 111.794C296.291 106.356 295.724 101.209 295.724 101.209C295.784 94.9886 295.775 92.4368 295.784 92.4883C295.784 92.4883 308.904 90.2802 311.584 73.1481C312.916 64.625 312.461 50.6633 311.713 39.2533V39.2533Z" fill="#B78876"/>
<path d="M250.067 81.998C254.775 82.9517 259.905 81.4997 263.427 78.2262C266.95 74.9527 268.763 69.9436 268.161 65.1752C267.629 60.9652 265.36 56.6864 266.821 52.7084C268.746 47.4416 276.126 45.8264 278.085 40.5767C279.219 37.5266 278.205 33.9524 279.494 30.9625C280.705 28.153 283.67 26.5291 286.548 25.4895C289.426 24.4499 292.519 23.7282 294.933 21.8465C297.356 19.9649 298.86 16.4165 297.296 13.7788C284.52 15.3082 271.925 18.3668 259.87 22.869C257.078 23.9172 254.139 25.1716 252.49 27.6546C250.737 30.2837 250.823 33.6775 250.969 36.8307C251.691 52.2101 252.404 67.5895 253.126 82.9603" fill="#263238"/>
<path d="M251.141 87.8834C251.141 87.8834 251.038 87.8319 250.866 87.703C250.66 87.5483 250.411 87.3507 250.101 87.1187C249.44 86.6032 248.469 85.83 247.266 84.7646C246.072 83.6992 244.637 82.3503 243.236 80.5288C241.853 78.7245 240.504 76.3704 240.032 73.4835C239.525 70.674 239.894 67.1341 242.24 64.4707C243.391 63.1647 244.877 62.1938 246.226 61.0683C247.601 59.9685 248.744 58.5681 249.337 56.8239C250.6 53.3356 250.041 49.2889 250.531 45.1562C251.072 41.0493 252.541 36.8049 255.385 33.3596C256.803 31.6584 258.513 30.1806 260.463 29.2098C262.405 28.1873 264.51 27.7577 266.46 27.1907C268.428 26.6494 270.223 25.8332 271.718 24.5959C273.222 23.3845 274.459 21.9067 275.533 20.3859C277.681 17.3273 279.279 14.071 281.324 11.3559C282.346 9.99842 283.455 8.76978 284.701 7.77313C285.946 6.77648 287.313 6.04618 288.704 5.59081C291.471 4.64571 294.384 4.9636 296.308 6.34689C298.207 7.79032 298.903 9.87814 299.006 11.4762C299.083 13.1259 298.534 14.3545 297.975 15.0075C297.7 15.3425 297.46 15.5573 297.279 15.6776C297.107 15.8065 297.013 15.8666 297.004 15.8581C297.004 15.8495 297.073 15.7635 297.228 15.6175C297.391 15.48 297.614 15.2566 297.855 14.913C298.353 14.26 298.834 13.0657 298.714 11.4934C298.576 9.96405 297.846 7.99652 296.059 6.69056C294.255 5.43615 291.497 5.16122 288.868 6.09773C287.545 6.5445 286.247 7.26621 285.062 8.2285C283.876 9.19078 282.81 10.4022 281.822 11.734C279.838 14.406 278.274 17.6537 276.1 20.7898C275.009 22.3449 273.746 23.8828 272.165 25.163C270.61 26.469 268.651 27.3539 266.666 27.9038C264.682 28.4966 262.637 28.9176 260.807 29.8885C258.951 30.8079 257.327 32.2169 255.97 33.8494C253.237 37.1486 251.802 41.2727 251.27 45.2593C250.771 49.2545 251.347 53.3528 249.998 57.0731C249.362 58.9289 248.082 60.4755 246.656 61.5924C245.256 62.7351 243.795 63.6888 242.712 64.9003C240.513 67.3489 240.1 70.6912 240.564 73.4062C240.977 76.1985 242.257 78.4925 243.58 80.2882C244.912 82.1011 246.312 83.4672 247.464 84.5584C248.632 85.641 249.569 86.4486 250.204 87.0071C250.84 87.5655 251.167 87.8576 251.15 87.8834H251.141Z" fill="#455A64"/>
<path d="M320.649 61.1111C320.589 61.0681 321.276 60.6729 321.654 59.47C322.024 58.293 321.886 56.334 320.675 54.4438C320.082 53.4901 319.283 52.545 318.475 51.471C317.668 50.4056 316.86 49.1426 316.499 47.6391C316.113 46.1441 316.138 44.5116 316.31 42.8792C316.491 41.2381 316.817 39.5799 317.032 37.8701C317.504 34.4592 316.963 31.1427 315.915 28.3676C314.867 25.5838 313.329 23.3242 311.825 21.6574C310.296 19.9991 308.835 18.8736 307.753 18.212C306.687 17.5333 306.052 17.224 306.069 17.1896C306.069 17.1724 306.241 17.2412 306.541 17.3872C306.833 17.5419 307.306 17.7223 307.839 18.066C308.956 18.6846 310.468 19.7843 312.049 21.4426C313.612 23.1094 315.202 25.3862 316.293 28.2215C317.384 31.0396 317.951 34.442 317.47 37.9217C317.255 39.6573 316.92 41.3155 316.74 42.9222C316.559 44.5288 316.542 46.1011 316.894 47.5274C317.23 48.9622 317.977 50.1737 318.767 51.2391C319.549 52.3044 320.348 53.2753 320.941 54.2634C322.161 56.2481 322.256 58.2929 321.818 59.513C321.603 60.1316 321.293 60.544 321.053 60.776C320.804 61.008 320.658 61.1025 320.649 61.0939V61.1111Z" fill="#263238"/>
<path d="M476.376 259.926C313.518 259.926 182.003 260.029 182.003 260.149C182.003 260.27 313.518 260.373 476.376 260.373V259.926Z" fill="#263238"/>
<path d="M468.421 209.328H394.935V293.528H468.421V209.328Z" fill="#EBEBEB"/>
<path d="M468.42 293.528C468.42 293.528 468.42 293.391 468.412 293.125C468.412 292.85 468.412 292.463 468.403 291.947C468.403 290.908 468.386 289.379 468.377 287.394C468.369 283.407 468.352 277.59 468.326 270.202C468.3 255.441 468.266 234.417 468.223 209.328L468.42 209.526C446.769 209.526 421.629 209.543 394.934 209.552L395.158 209.328C395.149 240.379 395.132 269.325 395.123 293.528L394.934 293.339C417.033 293.382 435.376 293.417 448.212 293.434C454.63 293.451 459.674 293.468 463.119 293.485C464.837 293.494 466.152 293.503 467.054 293.511C467.948 293.511 468.42 293.528 468.42 293.528C468.42 293.528 467.974 293.546 467.097 293.546C466.204 293.546 464.898 293.554 463.196 293.571C459.76 293.58 454.734 293.597 448.333 293.623C435.471 293.649 417.075 293.683 394.934 293.717H394.745V293.528C394.737 269.325 394.72 240.379 394.711 209.328V209.105H394.943C421.629 209.114 446.777 209.122 468.429 209.131H468.627V209.328C468.584 234.468 468.549 255.535 468.523 270.33C468.498 277.702 468.48 283.502 468.472 287.471C468.463 289.439 468.455 290.951 468.446 291.982C468.446 292.48 468.437 292.867 468.437 293.133C468.437 293.391 468.429 293.52 468.429 293.52L468.42 293.528Z" fill="#263238"/>
<path d="M409.979 239.108C410.881 237.75 411.465 232.166 412.642 232.484C414.137 232.879 412.041 238.816 411.895 239.357C411.749 239.881 412.531 240.105 412.634 239.615C412.788 238.902 414.455 231.934 415.916 232.467C416.723 232.759 416.208 234.236 416.208 234.236C416.208 234.236 413.837 241.015 414.532 241.239C415.237 241.471 416.595 237.51 417.041 236.109C417.471 234.769 418.193 234.382 418.691 235.01C419.224 235.68 417.935 239.692 417.522 241.041C417.11 242.39 415.916 246.085 417.995 244.701C420.074 243.318 422.179 243.017 422.798 243.327C423.416 243.636 423.184 244.607 422.428 244.736C421.81 244.839 420.83 245.32 420.117 245.715C419.524 246.042 419.035 246.506 418.528 246.952C418.167 247.27 417.522 247.94 416.947 248.98C416.277 250.183 415.108 251.042 413.768 251.343L413.141 253.895L406.035 251.248L407.221 246.42C408.157 242.742 408.2 240.105 408.415 237.819C408.759 234.176 409.231 234.193 409.644 234.331C410.546 234.632 409.102 240.405 409.979 239.082V239.108Z" fill="#FFBE9D"/>
<path d="M408.681 243.808C408.681 243.808 409.076 243.945 409.609 244.332C410.142 244.71 410.786 245.406 411.078 246.368C411.156 246.626 411.199 246.884 411.224 247.133V247.253L411.345 247.202C412.084 246.866 412.797 246.729 413.304 246.677C413.811 246.626 414.12 246.643 414.12 246.617C414.12 246.6 413.811 246.54 413.295 246.566C412.78 246.583 412.041 246.703 411.267 247.047L411.388 247.116C411.362 246.858 411.319 246.583 411.233 246.317C411.078 245.818 410.829 245.38 410.546 245.028C410.262 244.676 409.944 244.418 409.661 244.229C409.377 244.04 409.119 243.937 408.948 243.877C408.767 243.825 408.664 243.799 408.664 243.808H408.681Z" fill="#EB996E"/>
<path d="M408.286 249.203C408.286 249.203 408.939 249.779 409.919 250.183C410.898 250.595 411.757 250.69 411.766 250.647C411.774 250.595 410.95 250.424 409.987 250.02C409.025 249.624 408.321 249.161 408.286 249.203V249.203Z" fill="#EB996E"/>
<path d="M406.216 284.834C407.779 284.679 409.257 284.06 410.46 283.047L421.921 273.355L421.818 284.524L419.55 284.688L420.186 292.987H455.662L455.679 292.79C457.861 290.934 459.201 288.133 459.683 285.074C460.542 279.55 460.868 270.537 461.642 264.17C462.183 259.694 461.195 253.886 457.208 251.772L454.124 250.561L444.432 246.746L431.983 247.322L423.666 249.659C421.363 250.535 419.37 253.293 417.952 255.338L411.018 264.978C411.096 263.406 413.965 253.903 414.154 253.473L405.674 249.977C405.674 249.977 396.936 269.403 398.113 277.788C399.093 284.765 406.233 284.842 406.233 284.842L406.216 284.834Z" fill="#E8505B"/>
<path d="M448.479 218.109C450.739 220.283 451.666 223.522 450.824 226.538L450.807 226.598C449.768 230.258 447.998 233.712 445.635 236.694C445.429 236.96 445.094 237.243 444.793 237.097C444.587 236.994 444.527 236.728 444.492 236.496C444.243 234.52 444.561 232.535 444.793 230.559C445.034 228.583 445.18 226.547 444.621 224.639C444.063 222.732 442.645 220.962 440.703 220.515C439.277 220.18 437.765 220.601 436.459 221.271C435.153 221.95 434.002 222.869 432.756 223.643C431.51 224.416 430.118 225.06 428.649 225.077C427.18 225.095 425.633 224.347 425.049 222.998C424.473 221.649 425.238 219.785 426.681 219.527C425.367 219.364 424.679 218.084 424.585 216.761C424.585 216.761 424.671 214.527 427.91 214.673C427.91 214.673 428.348 211.305 431.605 212.533C434.534 213.633 434.921 214.501 439.535 213.47C439.535 213.47 445.755 211.958 447.654 217.319L448.462 218.101L448.479 218.109Z" fill="#263238"/>
<path d="M447.706 227.105L444.827 249.203C444.338 252.958 440.806 255.544 437.078 254.874C433.598 254.247 431.227 250.99 431.682 247.485C431.897 245.818 432.077 244.435 432.086 244.263C432.086 244.263 426.527 243 426.845 237.381C426.999 234.666 427.773 229.098 428.529 224.064C429.345 218.659 434.174 214.793 439.621 215.171L440.162 215.205C445.979 215.953 448.599 221.306 447.697 227.105H447.706Z" fill="#FFBE9D"/>
<path d="M432.086 244.177C432.086 244.177 435.617 244.709 439.552 242.604C439.552 242.604 437.542 246.531 431.974 245.637L432.086 244.185V244.177Z" fill="#EB996E"/>
<path d="M429.242 228.248C429.336 228.36 429.972 227.956 430.84 228.016C431.699 228.067 432.309 228.557 432.404 228.454C432.455 228.411 432.361 228.213 432.103 227.999C431.845 227.784 431.398 227.552 430.857 227.518C430.316 227.483 429.852 227.646 429.577 227.835C429.293 228.024 429.19 228.205 429.242 228.256V228.248Z" fill="#263238"/>
<path d="M437.559 228.729C437.653 228.841 438.289 228.437 439.157 228.497C440.016 228.549 440.626 229.038 440.721 228.935C440.772 228.892 440.686 228.695 440.42 228.48C440.162 228.265 439.715 228.033 439.174 227.999C438.633 227.964 438.169 228.128 437.894 228.317C437.619 228.506 437.516 228.686 437.559 228.738V228.729Z" fill="#263238"/>
<path d="M434.448 233.833C434.448 233.781 433.924 233.652 433.065 233.48C432.85 233.446 432.644 233.386 432.61 233.231C432.567 233.068 432.678 232.836 432.799 232.587C433.039 232.071 433.297 231.521 433.563 230.954C434.637 228.626 435.428 226.71 435.333 226.667C435.239 226.624 434.294 228.48 433.228 230.8C432.97 231.375 432.721 231.925 432.489 232.441C432.386 232.681 432.223 232.956 432.317 233.3C432.369 233.472 432.515 233.601 432.661 233.644C432.799 233.695 432.927 233.704 433.031 233.721C433.898 233.824 434.448 233.867 434.448 233.824V233.833Z" fill="#263238"/>
<path d="M436.949 234.606C436.811 234.589 436.743 235.525 435.892 236.135C435.041 236.745 434.053 236.573 434.036 236.702C434.019 236.762 434.242 236.9 434.663 236.943C435.076 236.986 435.686 236.891 436.21 236.522C436.725 236.144 436.975 235.62 437.035 235.233C437.095 234.847 437.009 234.606 436.949 234.606V234.606Z" fill="#263238"/>
<path d="M438.031 224.253C438.1 224.493 438.968 224.442 439.973 224.631C440.978 224.803 441.777 225.155 441.923 224.957C441.992 224.863 441.863 224.631 441.545 224.382C441.236 224.132 440.729 223.883 440.119 223.772C439.518 223.66 438.951 223.72 438.573 223.849C438.195 223.969 437.988 224.141 438.023 224.261L438.031 224.253Z" fill="#263238"/>
<path d="M430.101 224.425C430.239 224.631 430.849 224.468 431.562 224.511C432.275 224.528 432.876 224.734 433.022 224.536C433.091 224.442 433.005 224.236 432.756 224.038C432.507 223.832 432.086 223.651 431.588 223.634C431.098 223.617 430.66 223.763 430.393 223.943C430.127 224.124 430.032 224.322 430.093 224.425H430.101Z" fill="#263238"/>
<path d="M446.958 231.238C447.052 231.204 450.893 230.362 450.506 234.194C450.12 238.026 446.348 236.849 446.356 236.737C446.356 236.625 446.958 231.238 446.958 231.238Z" fill="#FFBE9D"/>
<path d="M447.68 235.397C447.68 235.397 447.74 235.448 447.852 235.517C447.955 235.577 448.144 235.629 448.35 235.577C448.771 235.465 449.175 234.864 449.261 234.177C449.304 233.833 449.261 233.489 449.175 233.206C449.089 232.914 448.926 232.699 448.728 232.639C448.53 232.57 448.376 232.682 448.315 232.785C448.255 232.888 448.273 232.965 448.247 232.974C448.238 232.974 448.169 232.905 448.221 232.742C448.247 232.664 448.298 232.578 448.393 232.518C448.496 232.45 448.633 232.432 448.771 232.458C449.063 232.51 449.304 232.81 449.407 233.12C449.527 233.438 449.578 233.824 449.527 234.211C449.424 234.984 448.96 235.663 448.384 235.766C448.109 235.809 447.894 235.706 447.783 235.603C447.671 235.5 447.663 235.405 447.68 235.405V235.397Z" fill="#EB996E"/>
<path d="M427.429 222.818C429.86 223.651 432.678 223.213 434.749 221.692C436.192 220.627 437.361 219.038 439.114 218.625C440.291 218.35 441.554 218.685 442.568 219.347C443.581 220 444.38 220.954 445.042 221.959C443.762 224.743 444.269 227.973 444.801 230.989C444.862 231.324 444.93 231.685 445.188 231.908C445.618 232.286 446.314 232.063 446.743 231.676C447.422 231.058 447.731 230.138 447.955 229.245C448.462 227.217 448.668 225.086 448.35 223.016C448.032 220.945 447.181 218.935 445.772 217.379C444.011 215.446 441.425 214.329 438.813 214.183C436.201 214.046 433.572 214.845 431.381 216.28C430.367 216.941 429.413 217.766 428.838 218.831" fill="#263238"/>
<path d="M440.634 231.522C440.686 231.539 440.737 231.504 440.755 231.444C440.772 231.393 440.737 231.333 440.686 231.315C440.634 231.298 440.583 231.333 440.566 231.393C440.548 231.444 440.583 231.504 440.634 231.522Z" fill="#EB996E"/>
<path d="M439.011 231.032C439.062 231.049 439.114 231.006 439.131 230.937C439.148 230.877 439.122 230.808 439.071 230.8C439.019 230.783 438.968 230.825 438.951 230.894C438.933 230.954 438.959 231.023 439.011 231.032Z" fill="#EB996E"/>
<path d="M437.902 230.929C437.954 230.937 438.005 230.877 438.023 230.791C438.04 230.705 438.014 230.628 437.963 230.619C437.911 230.611 437.859 230.671 437.842 230.757C437.825 230.843 437.851 230.92 437.902 230.929Z" fill="#EB996E"/>
<path d="M439.758 232.501C439.81 232.501 439.853 232.484 439.861 232.45C439.87 232.415 439.827 232.389 439.767 232.381C439.707 232.372 439.672 232.398 439.664 232.432C439.664 232.467 439.698 232.492 439.758 232.501Z" fill="#EB996E"/>
<path d="M438.263 232.045C438.315 232.045 438.366 232.011 438.375 231.951C438.383 231.891 438.349 231.839 438.298 231.831C438.246 231.822 438.194 231.865 438.186 231.925C438.177 231.985 438.212 232.037 438.263 232.045Z" fill="#EB996E"/>
<path d="M430.462 230.559C430.513 230.576 430.565 230.534 430.582 230.482C430.599 230.43 430.574 230.37 430.522 230.353C430.471 230.336 430.419 230.37 430.402 230.43C430.385 230.491 430.41 230.542 430.462 230.559Z" fill="#EB996E"/>
<path d="M429.345 230.379C429.396 230.387 429.448 230.345 429.456 230.276C429.465 230.207 429.431 230.147 429.379 230.138C429.328 230.13 429.276 230.173 429.267 230.241C429.259 230.31 429.293 230.37 429.345 230.379Z" fill="#EB996E"/>
<path d="M431.45 230.654C431.501 230.671 431.553 230.645 431.561 230.602C431.57 230.559 431.544 230.508 431.493 230.499C431.441 230.482 431.39 230.508 431.381 230.551C431.372 230.594 431.398 230.645 431.45 230.654Z" fill="#EB996E"/>
<path d="M430.539 231.719C430.582 231.745 430.642 231.719 430.677 231.668C430.702 231.616 430.694 231.547 430.642 231.522C430.599 231.496 430.539 231.522 430.505 231.573C430.479 231.625 430.488 231.693 430.539 231.719Z" fill="#EB996E"/>
<path d="M429.594 231.461C429.646 231.453 429.68 231.41 429.671 231.367C429.663 231.324 429.611 231.298 429.56 231.307C429.508 231.315 429.474 231.358 429.482 231.401C429.491 231.444 429.542 231.47 429.594 231.461Z" fill="#EB996E"/>
<path d="M435.591 218.453C435.591 218.453 435.248 219.158 434.217 219.82C433.22 220.481 431.476 221.048 429.62 220.576C427.773 220.086 426.518 218.746 425.969 217.68C425.393 216.598 425.393 215.816 425.427 215.816C425.505 215.799 425.625 216.537 426.235 217.517C426.828 218.488 428.031 219.691 429.723 220.137C431.424 220.567 433.057 220.103 434.045 219.536C435.059 218.978 435.523 218.385 435.583 218.436L435.591 218.453Z" fill="#455A64"/>
<path d="M447.757 219.433C447.68 219.484 447.448 218.359 446.048 217.482C445.369 217.053 444.432 216.743 443.358 216.701C442.284 216.649 441.099 216.838 439.87 217.113C438.633 217.388 437.447 217.68 436.322 217.766C435.205 217.869 434.165 217.74 433.366 217.448C432.558 217.164 431.974 216.752 431.639 216.417C431.304 216.082 431.184 215.841 431.201 215.824C431.252 215.755 431.88 216.683 433.46 217.139C434.242 217.371 435.213 217.465 436.287 217.345C437.361 217.242 438.53 216.941 439.775 216.666C441.021 216.391 442.25 216.202 443.384 216.28C444.518 216.34 445.515 216.709 446.219 217.207C446.932 217.697 447.353 218.281 447.551 218.711C447.749 219.149 447.774 219.416 447.749 219.416L447.757 219.433Z" fill="#455A64"/>
<path d="M449.57 224.081C449.604 224.193 448.324 224.425 446.941 223.754C445.549 223.093 444.939 221.942 445.042 221.899C445.145 221.821 445.867 222.758 447.13 223.351C448.384 223.969 449.57 223.952 449.57 224.081Z" fill="#455A64"/>
<path d="M449.097 226.624C449.08 226.684 448.771 226.667 448.273 226.564C447.783 226.461 447.087 226.272 446.4 225.859C445.712 225.438 445.231 224.846 445.042 224.347C444.836 223.849 444.879 223.514 444.93 223.514C444.999 223.505 445.068 223.806 445.317 224.21C445.558 224.614 446.013 225.103 446.631 225.481C447.25 225.859 447.895 226.083 448.358 226.263C448.822 226.435 449.115 226.564 449.097 226.624V226.624Z" fill="#455A64"/>
<path d="M421.93 284.533C421.879 284.533 421.844 278.871 421.844 271.886C421.844 264.901 421.887 259.23 421.93 259.23C421.973 259.23 422.016 264.892 422.016 271.886C422.016 278.88 421.973 284.533 421.93 284.533Z" fill="#263238"/>
<path d="M457.251 254.418C457.251 254.418 456.607 254.315 455.567 254.384C454.536 254.444 453.092 254.779 451.761 255.656C450.438 256.532 449.57 257.735 449.106 258.663C448.642 259.591 448.513 260.244 448.479 260.227C448.47 260.227 448.496 260.063 448.565 259.78C448.633 259.496 448.771 259.084 448.994 258.611C449.432 257.658 450.3 256.412 451.666 255.51C453.024 254.607 454.51 254.29 455.558 254.264C456.082 254.247 456.512 254.281 456.804 254.324C457.096 254.367 457.251 254.41 457.251 254.418Z" fill="#263238"/>
<path d="M410.95 263.732C410.95 263.732 410.95 263.921 410.915 264.265C410.89 264.609 410.864 265.098 410.881 265.717C410.881 266.946 411.147 268.621 411.233 270.503C411.319 272.384 410.958 274.12 410.348 275.211C410.056 275.761 409.738 276.156 409.489 276.397C409.24 276.637 409.085 276.749 409.085 276.749C409.051 276.714 409.695 276.25 410.245 275.159C410.812 274.077 411.139 272.376 411.061 270.52C410.976 268.655 410.735 266.963 410.761 265.725C410.761 265.107 410.804 264.609 410.855 264.265C410.872 264.093 410.907 263.964 410.924 263.87C410.941 263.784 410.958 263.732 410.958 263.732H410.95Z" fill="#263238"/>
<path d="M419.636 285.753L420.289 292.979L416.878 292.962C416.783 292.962 415.392 292.936 413.862 292.91C412.737 293.056 410.941 293.056 410.4 293.005C410.305 292.996 410.245 292.979 410.237 292.97C410.237 292.97 409.979 292.936 409.712 292.841H409.695C409.386 292.721 409.068 292.524 409.12 292.188C409.266 291.149 409.884 291.072 409.884 291.072C409.884 291.072 410.005 291.072 410.194 291.054L410.219 290.968C409.747 290.968 409.36 290.96 409.145 290.934C409.051 290.925 408.991 290.908 408.982 290.9C408.982 290.9 407.771 290.754 407.865 290.118C408.011 289.078 408.63 289.001 408.63 289.001C408.63 289.001 409.051 288.975 409.626 288.932C409.145 288.932 408.733 288.924 408.518 288.898C408.424 288.889 408.363 288.872 408.355 288.863C408.355 288.863 407.143 288.717 407.238 288.082C407.384 287.042 408.003 286.965 408.003 286.965C408.003 286.965 408.338 286.939 408.827 286.913C408.432 286.913 408.114 286.896 407.934 286.879C407.839 286.87 407.779 286.853 407.771 286.844C407.771 286.844 406.559 286.698 406.654 286.063C406.8 285.023 407.418 284.946 407.418 284.946C407.418 284.946 409.317 284.808 410.632 284.757C410.632 284.757 412.11 283.416 412.694 283.485C413.57 283.579 418.639 285.452 418.639 285.452L419.627 285.788L419.636 285.753Z" fill="#FFBE9D"/>
<path d="M413.243 290.857C413.243 290.917 412.479 290.985 411.551 291.02C410.623 291.046 409.875 291.02 409.875 290.968C409.875 290.908 410.64 290.839 411.568 290.805C412.496 290.779 413.243 290.805 413.243 290.857Z" fill="#EB996E"/>
<path d="M413.252 288.803C413.252 288.863 412.178 288.949 410.846 289.001C409.515 289.052 408.441 289.035 408.432 288.975C408.432 288.915 409.506 288.829 410.838 288.777C412.17 288.726 413.244 288.743 413.252 288.803Z" fill="#EB996E"/>
<g opacity="0.78">
<path d="M413.08 286.724C413.08 286.784 412.006 286.87 410.675 286.922C409.343 286.973 408.269 286.956 408.26 286.896C408.26 286.836 409.334 286.75 410.666 286.698C411.998 286.656 413.072 286.664 413.08 286.724Z" fill="#EB996E"/>
</g>
<path d="M410.091 284.765C410.091 284.765 410.383 284.808 410.855 284.826C411.397 284.843 412.015 284.86 412.703 284.886C413.39 284.912 414.009 284.929 414.55 284.954C415.022 284.972 415.314 284.972 415.314 284.954C415.314 284.929 415.022 284.886 414.55 284.834C414.077 284.783 413.424 284.74 412.703 284.714C411.981 284.688 411.328 284.688 410.847 284.714C410.374 284.731 410.082 284.757 410.082 284.783L410.091 284.765Z" fill="#EB996E"/>
<path d="M419.55 284.688C419.55 284.688 419.593 284.688 419.671 284.688C419.756 284.688 419.868 284.679 420.014 284.67C420.332 284.653 420.779 284.627 421.346 284.593C422.514 284.524 424.181 284.421 426.243 284.292C430.376 284.043 436.09 283.682 442.405 283.364C443.564 283.313 444.699 283.261 445.79 283.21H445.867V283.124C445.927 281.758 446.048 280.409 446.151 279.129C446.262 277.849 446.365 276.611 446.469 275.443C446.675 273.106 446.864 271.027 447.018 269.282C447.173 267.547 447.293 266.155 447.379 265.184C447.414 264.712 447.448 264.342 447.474 264.076L447.491 263.792C447.491 263.724 447.491 263.698 447.491 263.698C447.491 263.698 447.482 263.732 447.474 263.792C447.465 263.861 447.457 263.956 447.439 264.076C447.414 264.342 447.371 264.703 447.319 265.176C447.225 266.146 447.079 267.538 446.907 269.274C446.743 271.018 446.546 273.097 446.322 275.434C446.219 276.603 446.108 277.84 445.996 279.12C445.893 280.409 445.764 281.741 445.712 283.133L445.798 283.047C444.716 283.098 443.573 283.15 442.413 283.201C436.098 283.519 430.385 283.897 426.252 284.189C424.19 284.335 422.523 284.464 421.355 284.55C420.788 284.602 420.341 284.636 420.023 284.662C419.877 284.679 419.765 284.688 419.679 284.696C419.602 284.705 419.559 284.713 419.559 284.713L419.55 284.688Z" fill="#263238"/>
</svg>
