<svg width="29" height="34" viewBox="0 0 29 34" fill="none" xmlns="http://www.w3.org/2000/svg">
<path d="M3.87509 14.8987C3.87509 21.9442 2.27022 24.097 1.29167 24.7233C0.469561 25.2712 0 26.2107 0 27.15C0 28.7939 1.33075 30.0856 2.93562 30.0856H9.47228C9.94189 32.3561 11.9383 34 14.2476 34C16.5568 34 18.5533 32.3561 19.0228 30.1249H25.5595C27.1644 30.1249 28.4951 28.7942 28.4951 27.1893C28.4951 26.2108 28.0255 25.3106 27.2034 24.7626C26.2249 24.0972 24.62 21.9444 24.62 14.9381C24.62 8.36241 20.6275 5.73978 17.6919 4.64381C17.7309 4.409 17.7702 4.13488 17.7702 3.90005C17.7702 1.94297 16.2047 0.377441 14.2476 0.377441C12.2906 0.377441 10.725 1.94297 10.725 3.90005C10.725 4.13486 10.7641 4.40897 10.8034 4.64381C7.86748 5.66142 3.87525 8.32319 3.87525 14.8989L3.87509 14.8987ZM14.2476 32.4342C12.7995 32.4342 11.5078 31.4556 11.0772 30.1249H17.4181C16.9875 31.4556 15.6958 32.4342 14.2477 32.4342H14.2476ZM26.9295 27.189C26.9295 27.9327 26.3032 28.5591 25.5594 28.5591H2.93555C2.19179 28.5591 1.56546 27.9327 1.56546 27.189C1.56546 26.7974 1.7219 26.4452 2.03507 26.1714H26.5377C26.7728 26.4455 26.9295 26.7977 26.9295 27.189H26.9295ZM14.2476 1.90348C15.3436 1.90348 16.2047 2.76459 16.2047 3.86056C16.2047 3.97796 16.2047 4.05632 16.1657 4.17373C14.5608 3.82151 13.0736 4.01728 12.2906 4.17373C12.2906 4.05632 12.2515 3.97796 12.2515 3.86056C12.2906 2.76459 13.1517 1.90348 14.2477 1.90348H14.2476ZM12.1731 5.81764H12.2122C12.2122 5.81764 13.0733 5.54352 14.2867 5.54352C14.913 5.54352 15.5783 5.62188 16.3221 5.85668H16.3611C19.4142 6.7178 23.0935 8.98808 23.0935 14.9375C23.0935 19.478 23.7198 22.7267 25.0115 24.6447H3.52276C4.77543 22.6876 5.44077 19.4388 5.44077 14.9375C5.44077 8.94887 9.0808 6.67866 12.1731 5.81754L12.1731 5.81764Z" fill="white"/>
<path d="M7.8673 13.6463H7.9847C8.37623 13.6463 8.68911 13.3722 8.76747 12.9809C9.08063 10.6716 11.4683 9.26252 11.5073 9.26252C11.8988 9.06676 12.0162 8.55811 11.7814 8.20563C11.5857 7.8141 11.077 7.6967 10.7245 7.9315C10.6071 8.00986 7.63249 9.73216 7.20193 12.8242C7.16289 13.1764 7.43674 13.568 7.86731 13.6463L7.8673 13.6463Z" fill="white"/>
</svg>
