<svg width="172" height="49" viewBox="0 0 172 49" fill="none" xmlns="http://www.w3.org/2000/svg">
<path d="M30.4281 0.480469H0.216309V30.8243H30.4281V0.480469Z" fill="#565656"/>
<path d="M23.7723 8.4624C21.9079 9.56163 21.3353 9.65749 19.3118 10.8718C20.4953 9.58719 20.9026 9.03758 21.6343 7.96391C19.7636 8.06617 17.0466 8.28985 15.1122 8.71804C16.7984 7.81053 20.1454 6.80716 21.9143 6.56431C21.5071 5.99552 18.1855 4.1933 17.3647 3.8418C19.9926 4.0463 23.1996 5.0305 24.7522 5.98913C25.3631 5.79741 25.9994 5.79101 27.1384 5.68876C26.8457 6.18725 26.8329 6.48123 25.7194 7.22257C26.0312 8.05338 25.2867 12.6293 24.6759 13.8371C24.6568 11.9263 24.485 9.5105 23.7723 8.45601V8.4624Z" fill="white"/>
<path d="M10.1236 24.8678C9.05462 24.4716 8.27833 24.005 7.43204 23.2062C7.68656 22.5032 7.97927 21.9472 8.45013 21.2442C7.5784 21.372 6.93572 21.4743 6.18488 21.6148C5.57403 20.5412 5.29406 19.5059 4.98863 18.0615C4.82319 19.5889 4.75956 20.6818 4.9759 21.9024C4.28869 22.0942 3.79873 22.2603 3.23242 22.5224C4.0278 23.0081 4.67047 23.3851 5.55494 23.8005C6.03217 24.8295 6.52212 25.5197 7.32387 26.3121C7.13934 25.6347 7.08844 25.1043 7.16479 24.3949C8.15743 24.6825 9.00372 24.8359 10.13 24.8742L10.1236 24.8678Z" fill="white"/>
<path d="M12.9106 9.65723C12.5798 10.0918 12.1916 10.9034 12.0834 11.2805C14.845 11.6576 17.0594 13.0827 17.0594 13.0827C14.6478 12.6545 13.3751 12.7057 12.4716 12.7888C11.5744 12.8718 11.3899 12.9805 11.3899 12.9805C10.7408 14.412 10.3463 16.8725 10.3463 16.8725C9.90727 15.8116 9.27097 13.6771 9.27097 13.6771C8.05562 14.329 5.24951 16.9812 5.24951 16.9812C6.78937 13.8816 8.35468 12.4756 8.35468 12.4756C7.81382 11.926 6.40759 11.6576 5.37677 11.6064C5.91127 11.3892 7.28569 11.1271 8.34195 11.0824C9.39822 11.0504 10.0409 11.1143 10.0409 11.1143C10.9826 10.3666 12.4143 9.73392 12.9106 9.66362V9.65723Z" fill="white"/>
<path d="M15.844 22.9506C15.354 23.6153 14.9341 24.1329 14.3996 24.7464C13.4705 25.0085 12.7261 25.1043 11.8225 25.1043C12.3761 25.3919 12.917 25.5645 13.496 25.6859C12.917 26.21 12.427 26.587 11.8607 26.9513C12.8024 26.7276 14.0496 26.325 14.9722 25.7754C15.4558 25.7946 15.9076 25.7626 16.2385 25.6987C16.1558 25.4175 16.0985 25.2066 16.0285 24.8423C16.9002 24.1649 17.5302 23.5514 18.2556 22.8164C17.4856 23.3596 16.8175 23.7623 15.9267 24.1841C15.8885 23.7686 15.8694 23.4235 15.844 22.957V22.9506Z" fill="white"/>
<path d="M3.60149 40.9027C3.52514 40.2508 3.36606 39.6181 2.43069 39.6181C1.85165 39.6181 1.35533 39.8993 1.35533 40.5512C1.35533 42.085 4.81048 42.0786 4.81048 44.2834C4.81048 45.6894 3.84329 46.3924 2.43069 46.3924C1.43169 46.3924 0.547224 45.9515 0 45.3124L0.579037 44.424C1.06263 44.9864 1.79438 45.3124 2.48159 45.3124C3.1688 45.3124 3.61422 45.0503 3.61422 44.4176C3.61422 43.0436 0.171801 42.9797 0.171801 40.6406C0.171801 39.2155 1.23443 38.5444 2.44342 38.5444C4.17417 38.5444 4.67049 39.7459 4.73412 40.7301L3.60149 40.9154V40.9027Z" fill="#565656"/>
<path d="M7.04398 43.6954C7.09488 45.0247 7.63574 45.4017 8.44385 45.4017C9.06743 45.4017 9.61466 45.0886 9.93917 44.8393L10.1237 45.7596C9.60829 46.0856 9.06743 46.3859 8.20842 46.3859C6.78945 46.3859 5.82227 45.5295 5.82227 43.3822C5.82227 41.2349 6.67492 40.3657 8.13842 40.3657C9.60193 40.3657 10.2064 41.3371 10.2064 42.7751V43.6954H7.05034H7.04398ZM9.06743 42.7751C9.06743 41.8037 8.78746 41.3499 8.10661 41.3499C7.42576 41.3499 7.10761 41.7717 7.05034 42.7751H9.06107H9.06743Z" fill="#565656"/>
<path d="M15.9458 41.5609L15.1632 41.5162C15.3668 41.7846 15.4431 42.1105 15.4431 42.5643C15.4431 43.8616 14.6032 44.75 13.3561 44.75C13.1079 44.75 12.9934 44.7372 12.7961 44.686C12.5798 44.8394 12.4398 44.9353 12.4398 45.127C12.4398 45.7341 15.9077 45.0184 15.9077 47.0826C15.9077 48.3288 14.6032 48.9296 13.197 48.9296C11.7908 48.9296 10.8427 48.4119 10.8427 47.4916C10.8427 46.8845 11.2308 46.4563 11.8226 46.1304C11.5617 45.9898 11.339 45.7725 11.339 45.3187C11.339 44.865 11.6635 44.5646 12.0262 44.3026C11.5426 43.9319 11.2499 43.3376 11.2499 42.5387C11.2499 41.2094 12.0898 40.353 13.3688 40.353C13.6679 40.353 13.9478 40.4105 14.1896 40.4936H15.9522V41.5545L15.9458 41.5609ZM11.9435 47.3702C11.9435 47.8879 12.5543 48.0221 13.2224 48.0221C13.9669 48.0221 14.7432 47.7281 14.7432 47.2296C14.7432 46.5266 13.776 46.5394 12.8916 46.418C12.4271 46.6353 11.9435 46.9612 11.9435 47.3702V47.3702ZM13.3561 41.3117C12.7325 41.3117 12.3443 41.6695 12.3443 42.5515C12.3443 43.4334 12.7325 43.7977 13.3561 43.7977C13.9796 43.7977 14.3678 43.4398 14.3678 42.5515C14.3678 41.6632 13.9796 41.3117 13.3561 41.3117Z" fill="#565656"/>
<path d="M17.8929 40.5063V44.4431C17.8929 45.1781 18.3447 45.4082 18.8601 45.4082C19.3755 45.4082 19.8273 45.1781 19.8273 44.4431V40.5063H20.9981V44.4112C20.9981 45.7533 20.0945 46.3923 18.8537 46.3923C17.6129 46.3923 16.7094 45.7533 16.7094 44.4112V40.5063H17.8802H17.8929Z" fill="#565656"/>
<path d="M23.607 40.5063V41.0687C24.0779 40.5638 24.5551 40.3657 25.0578 40.3657C25.9105 40.3657 26.0695 41.1454 26.0695 41.989L25.0705 42.1104C25.0578 41.7653 25.026 41.5289 24.7078 41.5289C24.3897 41.5289 24.0588 41.7909 23.7279 42.136V46.2581H22.5571V40.5127H23.6134L23.607 40.5063Z" fill="#565656"/>
<path d="M31.2172 43.4014C31.2172 45.3889 30.3964 46.3859 28.8629 46.3859C27.3294 46.3859 26.4958 45.5232 26.4958 43.3822C26.4958 41.2413 27.323 40.3657 28.8629 40.3657C30.4028 40.3657 31.2172 41.2285 31.2172 43.4078V43.4014ZM27.6985 43.3822C27.6985 44.9416 28.0866 45.4081 28.8629 45.4081C29.6392 45.4081 30.0146 44.9416 30.0146 43.4078C30.0146 41.874 29.6392 41.3499 28.8629 41.3499C28.0866 41.3499 27.6985 41.8037 27.6985 43.3822V43.3822Z" fill="#565656"/>
<path d="M34.9905 42.2319C34.946 41.7206 34.7233 41.3435 34.106 41.3435C33.6543 41.3435 33.3107 41.5416 33.3107 41.9698C33.3107 43.0627 35.9768 42.9668 35.9768 44.7051C35.9768 45.7404 35.245 46.3795 34.017 46.3795C33.1261 46.3795 32.4262 46.0344 32.0062 45.6254L32.3944 44.7626C32.7952 45.1525 33.387 45.4017 33.9851 45.4017C34.4369 45.4017 34.8123 45.2292 34.8123 44.7754C34.8123 43.8679 32.178 43.8807 32.178 42.0529C32.178 41.0368 32.8971 40.3657 34.0933 40.3657C35.4168 40.3657 35.964 41.1326 35.964 42.0657L34.9841 42.2382L34.9905 42.2319Z" fill="#565656"/>
<path d="M41.3854 46.1175V48.4757L40.2146 48.7378V40.5063H41.2709V41.024C41.7036 40.6661 42.2381 40.3657 42.9507 40.3657C43.9179 40.3657 44.8533 40.9473 44.8533 43.3183C44.8533 45.5487 43.8415 46.3923 42.518 46.3923C42.1617 46.3923 41.7417 46.2837 41.3854 46.1239V46.1175ZM41.3854 45.0822C41.7163 45.2995 42.0662 45.4081 42.3971 45.4081C43.078 45.4081 43.6125 44.8777 43.6125 43.3183C43.6125 41.7589 43.0843 41.4266 42.5371 41.4266C42.0726 41.4266 41.7608 41.5864 41.3854 41.8292V45.0822V45.0822Z" fill="#565656"/>
<path d="M48.7665 42.104C48.7665 41.5608 48.4102 41.3499 47.9266 41.3499C47.443 41.3499 47.004 41.6439 47.004 42.2382L45.9732 42.1296C46.005 40.9601 46.934 40.3657 48.0093 40.3657C49.1929 40.3657 49.9437 40.9729 49.9437 42.0018V44.9991C49.9437 45.2675 50.071 45.389 50.2555 45.389C50.44 45.389 50.6309 45.2995 50.8154 45.1589L50.8918 46.0153C50.6755 46.2453 50.2873 46.3923 49.8992 46.3923C49.4919 46.3923 48.9956 46.2198 48.9447 45.5935C48.512 46.1367 47.9012 46.3923 47.2967 46.3923C46.4058 46.3923 45.7695 45.8747 45.7695 44.8329C45.7695 43.363 47.1694 42.7559 48.7729 42.7687V42.1104L48.7665 42.104ZM48.7665 43.6506C47.7675 43.6187 46.9276 43.9893 46.9276 44.7243C46.9276 45.1653 47.1185 45.4081 47.5703 45.4081C48.0221 45.4081 48.442 45.1269 48.7665 44.769V43.657V43.6506Z" fill="#565656"/>
<path d="M52.7307 40.5063V41.0687C53.2016 40.5638 53.6788 40.3657 54.1815 40.3657C55.0341 40.3657 55.1932 41.1454 55.1932 41.989L54.1942 42.1104C54.1815 41.7653 54.1497 41.5289 53.8315 41.5289C53.5133 41.5289 53.1825 41.7909 52.8516 42.136V46.2581H51.6808V40.5127H52.737L52.7307 40.5063Z" fill="#565656"/>
<path d="M58.7247 42.104C58.7247 41.5608 58.3683 41.3499 57.8847 41.3499C57.4011 41.3499 56.9621 41.6439 56.9621 42.2382L55.9313 42.1296C55.9631 40.9601 56.8921 40.3657 57.9675 40.3657C59.151 40.3657 59.9018 40.9729 59.9018 42.0018V44.9991C59.9018 45.2675 60.0291 45.389 60.2136 45.389C60.3981 45.389 60.589 45.2995 60.7736 45.1589L60.8499 46.0153C60.6336 46.2453 60.2454 46.3923 59.8573 46.3923C59.4501 46.3923 58.9537 46.2198 58.9028 45.5935C58.4701 46.1367 57.8593 46.3923 57.2548 46.3923C56.364 46.3923 55.7277 45.8747 55.7277 44.8329C55.7277 43.363 57.1275 42.7559 58.731 42.7687V42.1104L58.7247 42.104ZM58.7247 43.6506C57.7257 43.6187 56.8857 43.9893 56.8857 44.7243C56.8857 45.1653 57.0766 45.4081 57.5284 45.4081C57.9802 45.4081 58.4001 45.1269 58.7247 44.769V43.657V43.6506Z" fill="#565656"/>
<path d="M65.546 40.5063V44.4431C65.546 45.1781 65.9977 45.4082 66.5131 45.4082C67.0285 45.4082 67.4803 45.1781 67.4803 44.4431V40.5063H68.6511V44.4112C68.6511 45.7533 67.7476 46.3923 66.5068 46.3923C65.266 46.3923 64.3624 45.7533 64.3624 44.4112V40.5063H65.5332H65.546Z" fill="#565656"/>
<path d="M71.26 41.024C71.7118 40.6917 72.2717 40.3657 73.0353 40.3657C74.0661 40.3657 74.7151 40.9409 74.7151 42.1935V46.2517H73.5443V42.4364C73.5443 41.7334 73.3089 41.4841 72.6535 41.4841C72.2208 41.4841 71.7499 41.6695 71.3809 41.9059V46.2517H70.2101V40.5063H71.2664V41.024H71.26Z" fill="#565656"/>
<path d="M80.2127 41.024C80.6454 40.6917 81.2244 40.3657 81.9371 40.3657C82.5861 40.3657 82.9807 40.5702 83.2734 41.0368C83.8524 40.6597 84.4123 40.3657 85.1059 40.3657C86.1304 40.3657 86.7094 40.9409 86.7094 42.1935V46.2517H85.5386V42.4044C85.5386 41.6886 85.2586 41.4841 84.6796 41.4841C84.2914 41.4841 83.8397 41.6886 83.4961 41.9059C83.5152 42.0465 83.5279 42.2063 83.5279 42.3725V46.2517H82.3571V42.5642C82.3571 41.7525 82.2044 41.4841 81.4981 41.4841C81.0972 41.4841 80.7027 41.6822 80.3463 41.9059V46.2517H79.1755V40.5063H80.2318V41.024H80.2127Z" fill="#565656"/>
<path d="M89.2929 40.5063V44.4431C89.2929 45.1781 89.7447 45.4082 90.2601 45.4082C90.7755 45.4082 91.2273 45.1781 91.2273 44.4431V40.5063H92.3981V44.4112C92.3981 45.7533 91.4945 46.3923 90.2537 46.3923C89.0129 46.3923 88.1157 45.7533 88.1157 44.4112V40.5063H89.2865H89.2929Z" fill="#565656"/>
<path d="M95.0133 41.024C95.465 40.6917 96.025 40.3657 96.7886 40.3657C97.8194 40.3657 98.4684 40.9409 98.4684 42.1935V46.2517H97.2976V42.4364C97.2976 41.7334 97.0622 41.4841 96.4068 41.4841C95.9741 41.4841 95.5032 41.6695 95.1405 41.9059V46.2517H93.9697V40.5063H95.026V41.024H95.0133Z" fill="#565656"/>
<path d="M103.241 45.5678C102.821 46.0408 102.293 46.3923 101.593 46.3923C100.67 46.3923 99.6329 45.6765 99.6329 43.3949C99.6329 41.1134 100.613 40.3657 101.669 40.3657C102.153 40.3657 102.56 40.4871 103.056 40.7236V38.3525L104.227 38.1353V44.9927C104.227 45.2611 104.354 45.3825 104.539 45.3825C104.723 45.3825 104.914 45.293 105.099 45.1524L105.175 46.0088C104.959 46.2389 104.571 46.3859 104.183 46.3859C103.731 46.3859 103.292 46.1878 103.234 45.5614L103.241 45.5678ZM103.056 41.6758C102.713 41.5032 102.401 41.3499 101.917 41.3499C101.376 41.3499 100.861 41.7078 100.861 43.3374C100.861 44.7434 101.332 45.3058 101.854 45.3058C102.375 45.3058 102.776 44.9799 103.056 44.6539V41.6694V41.6758Z" fill="#565656"/>
<path d="M110.386 43.4014C110.386 45.3889 109.566 46.3859 108.032 46.3859C106.499 46.3859 105.665 45.5232 105.665 43.3822C105.665 41.2413 106.492 40.3657 108.032 40.3657C109.572 40.3657 110.386 41.2285 110.386 43.4078V43.4014ZM106.868 43.3822C106.868 44.9416 107.256 45.4081 108.032 45.4081C108.808 45.4081 109.184 44.9416 109.184 43.4078C109.184 41.874 108.808 41.3499 108.032 41.3499C107.256 41.3499 106.868 41.8037 106.868 43.3822V43.3822Z" fill="#565656"/>
<path d="M115.401 43.6954C115.458 45.0247 115.992 45.4017 116.8 45.4017C117.424 45.4017 117.971 45.0886 118.296 44.8393L118.48 45.7596C117.965 46.0856 117.424 46.3859 116.565 46.3859C115.146 46.3859 114.179 45.5295 114.179 43.3822C114.179 41.2349 115.031 40.3657 116.495 40.3657C117.958 40.3657 118.563 41.3371 118.563 42.7751V43.6954H115.407H115.401ZM117.424 42.7751C117.424 41.8037 117.144 41.3499 116.463 41.3499C115.782 41.3499 115.464 41.7717 115.407 42.7751H117.418H117.424Z" fill="#565656"/>
<path d="M120.905 41.024C121.356 40.6917 121.916 40.3657 122.68 40.3657C123.711 40.3657 124.36 40.9409 124.36 42.1935V46.2517H123.189V42.4364C123.189 41.7334 122.954 41.4841 122.298 41.4841C121.865 41.4841 121.395 41.6695 121.026 41.9059V46.2517H119.855V40.5063H120.911V41.024H120.905Z" fill="#565656"/>
<path d="M129.641 43.6954C129.698 45.0247 130.233 45.4017 131.041 45.4017C131.665 45.4017 132.212 45.0886 132.536 44.8393L132.721 45.7596C132.205 46.0856 131.665 46.3859 130.806 46.3859C129.387 46.3859 128.413 45.5295 128.413 43.3822C128.413 41.2349 129.266 40.3657 130.729 40.3657C132.193 40.3657 132.797 41.3371 132.797 42.7751V43.6954H129.641V43.6954ZM131.665 42.7751C131.665 41.8037 131.385 41.3499 130.704 41.3499C130.023 41.3499 129.705 41.7717 129.648 42.7751H131.658H131.665Z" fill="#565656"/>
<path d="M134.547 40.5063L135.979 44.948L137.347 40.5063H138.518L136.615 46.2517H135.247L133.3 40.5063H134.547V40.5063Z" fill="#565656"/>
<path d="M143.748 43.4014C143.748 45.3889 142.927 46.3859 141.394 46.3859C139.86 46.3859 139.027 45.5232 139.027 43.3822C139.027 41.2413 139.854 40.3657 141.394 40.3657C142.934 40.3657 143.748 41.2285 143.748 43.4078V43.4014ZM140.229 43.3822C140.229 44.9416 140.617 45.4081 141.394 45.4081C142.17 45.4081 142.545 44.9416 142.545 43.4078C142.545 41.874 142.17 41.3499 141.394 41.3499C140.617 41.3499 140.229 41.8037 140.229 43.3822V43.3822Z" fill="#565656"/>
<path d="M146.204 38.1353V44.9288C146.204 45.2419 146.376 45.3633 146.605 45.3633C146.853 45.3633 147.076 45.2675 147.305 45.1397L147.426 46.0472C146.987 46.2836 146.643 46.3923 146.229 46.3923C145.275 46.3923 145.033 45.6893 145.033 44.9351V38.3589L146.204 38.1416V38.1353Z" fill="#565656"/>
<path d="M149.239 40.5063V44.4431C149.239 45.1781 149.691 45.4082 150.207 45.4082C150.722 45.4082 151.174 45.1781 151.174 44.4431V40.5063H152.345V44.4112C152.345 45.7533 151.441 46.3923 150.207 46.3923C148.972 46.3923 148.062 45.7533 148.062 44.4112V40.5063H149.233H149.239Z" fill="#565656"/>
<path d="M156.684 42.4364C156.652 41.874 156.417 41.3435 155.768 41.3435C155.055 41.3435 154.737 41.7525 154.737 43.3758C154.737 44.9991 155.221 45.4017 156.073 45.4017C156.754 45.4017 157.193 45.1078 157.518 44.8841L157.747 45.7596C157.263 46.0919 156.671 46.3859 155.844 46.3859C154.355 46.3859 153.522 45.4465 153.522 43.3694C153.522 41.2924 154.241 40.3657 155.825 40.3657C157.2 40.3657 157.728 41.2221 157.753 42.3341C157.397 42.3661 157.053 42.398 156.697 42.4428L156.684 42.4364Z" fill="#565656"/>
<path d="M160.184 38.4614V39.7396H159.013V38.4614H160.184ZM160.184 40.5065V46.2519H159.013V40.5065H160.184Z" fill="#565656"/>
<path d="M166.197 43.4013C166.197 45.3889 165.376 46.3859 163.843 46.3859C162.309 46.3859 161.476 45.5231 161.476 43.3822C161.476 41.2412 162.303 40.3657 163.843 40.3657C165.382 40.3657 166.197 41.2284 166.197 43.4077V43.4013ZM162.678 43.3822C162.678 44.9415 163.066 45.4081 163.843 45.4081C164.619 45.4081 164.994 44.9415 164.994 43.4077C164.994 41.8739 164.619 41.3499 163.843 41.3499C163.066 41.3499 162.678 41.8036 162.678 43.3822V43.3822ZM165.529 38.1353L164.282 39.8416H163.283L164.339 38.1353H165.535H165.529Z" fill="#565656"/>
<path d="M168.545 41.024C168.997 40.6917 169.556 40.3657 170.32 40.3657C171.351 40.3657 172 40.9409 172 42.1935V46.2517H170.829V42.4364C170.829 41.7334 170.594 41.4841 169.932 41.4841C169.499 41.4841 169.028 41.6695 168.666 41.9059V46.2517H167.495V40.5063H168.551V41.024H168.545Z" fill="#565656"/>
<path d="M37.9875 4.67261C38.0638 5.73349 38.1211 8.37932 38.1211 9.35073C38.1211 10.2391 38.1147 13.2172 37.9748 14.5082L37.962 14.6104H42.6007C44.866 14.6104 47.2839 13.8883 47.2839 11.856C47.2839 10.5778 46.3676 9.63832 44.6496 9.12066C45.9095 8.78194 46.7621 7.9 46.7621 6.89024C46.7621 5.23501 44.866 4.60231 43.097 4.56396H37.9811V4.65983L37.9875 4.67261ZM41.5763 5.69515C43.5106 5.69515 44.2297 6.10417 44.2297 7.16505C44.2297 7.44625 44.1406 7.69549 43.9688 7.90639C43.5997 8.35375 42.8616 8.58383 41.9453 8.53909H41.9008L41.3663 9.95147H41.9071C42.9761 9.91952 43.8988 10.2582 44.376 10.8462C44.5987 11.1146 44.7069 11.4214 44.7069 11.7537C44.7069 12.8721 43.7397 13.4409 41.8308 13.4409C41.5126 13.4409 40.9908 13.4409 40.66 13.4153C40.59 11.9454 40.59 9.94508 40.59 9.35073C40.59 8.64773 40.6218 7.08836 40.6663 5.75267C40.8827 5.71432 41.2454 5.68237 41.5763 5.68876V5.69515Z" fill="#565656"/>
<path d="M57.9739 4.57031H55.7277L55.8231 7.09471C55.8613 8.35371 55.9059 9.63828 55.9886 10.8845C55.8359 10.5074 55.7086 10.2965 55.0341 9.29956C55.015 9.26122 52.6734 5.62481 51.8653 4.60227L51.8462 4.5767H49.2247V4.67257C49.3074 5.72706 49.3646 8.37288 49.3646 9.35069C49.3646 10.239 49.3519 13.2236 49.2183 14.5145L49.2056 14.6168H51.5344V14.5145C51.3945 12.054 51.3945 9.58715 51.3945 7.19696C51.4708 7.47816 51.5853 7.74019 51.9544 8.28341C51.9926 8.34732 55.995 14.2269 56.1986 14.572L56.2177 14.6104H58.0884L58.0757 14.5081C57.9357 13.2172 57.9293 10.2326 57.9293 9.3443C57.9293 8.36649 57.9866 5.72067 58.063 4.66618V4.57031H57.9866H57.9739Z" fill="#565656"/>
<path d="M60.6783 4.66618C60.7546 5.72706 60.8119 8.37288 60.8119 9.3443C60.8119 10.2326 60.7992 13.2172 60.6655 14.5017V14.604H63.4335L63.4207 14.5017C63.3253 13.5814 63.2935 11.8176 63.2807 10.4563C63.3953 10.4563 63.7898 10.4819 63.7898 10.4819L64.1779 10.501C67.8367 10.501 69.612 9.51685 69.612 7.47816C69.612 5.15188 67.1177 4.60866 65.0306 4.57031H60.6719V4.66618H60.6783ZM64.0825 5.77819C65.3806 5.75263 66.2968 6.02743 66.7359 6.57066C66.9331 6.8199 67.035 7.12666 67.035 7.48455C67.035 8.93528 65.4187 9.24204 64.0634 9.24204L63.5162 9.22287C63.5162 9.22287 63.3826 9.2037 63.2935 9.19092C63.2871 8.85859 63.2807 8.42401 63.2807 7.91913C63.2807 7.28004 63.2871 6.5387 63.3126 5.84849C63.4844 5.81014 63.7834 5.78458 64.0825 5.77819V5.77819Z" fill="#565656"/>
<path d="M74.9188 4.66618C74.9951 5.72706 75.0524 8.37288 75.0524 9.3443C75.0524 10.2326 75.0397 13.2172 74.906 14.5017L74.8933 14.604H77.674L77.6612 14.5017C77.5658 13.5814 77.534 11.8176 77.5213 10.4563C77.6358 10.4563 78.0303 10.4819 78.0303 10.4819L78.4248 10.501C82.0836 10.501 83.8652 9.51685 83.8652 7.47816C83.8652 5.15188 81.3709 4.60866 79.2775 4.57031H74.9251V4.66618H74.9188ZM78.323 5.77819C79.6211 5.75263 80.5373 6.02743 80.9764 6.57066C81.1737 6.8199 81.2755 7.12666 81.2755 7.48455C81.2755 8.93528 79.6592 9.24204 78.2976 9.24204L77.7503 9.22287C77.7503 9.22287 77.6167 9.2037 77.534 9.19092C77.5213 8.85859 77.5149 8.41762 77.5149 7.91913C77.5149 7.28004 77.5276 6.54509 77.5531 5.84849C77.7249 5.81014 78.0239 5.78458 78.323 5.77819V5.77819Z" fill="#565656"/>
<path d="M87.5748 4.57666H87.5239L87.5048 4.62779C86.9894 6.05295 83.6679 13.3577 83.1462 14.4761L83.0825 14.6103H85.4623L85.4814 14.5528C85.6914 13.869 85.9586 13.0893 86.2704 12.2521C86.3595 12.2521 88.2366 12.2201 88.2366 12.2201L89.8592 12.2393C89.8592 12.2393 90.1455 12.2521 90.2155 12.2521C90.6418 13.3322 90.96 14.1566 91.1063 14.5592L91.1254 14.6167H93.8806L89.4392 4.57666H87.5748V4.57666ZM88.2493 7.53564C88.472 8.00217 89.0383 9.35064 89.681 10.9356C89.5856 10.9356 89.471 10.9356 89.471 10.9356L88.2493 10.9548C88.2493 10.9548 86.9831 10.9356 86.7858 10.9292C87.3012 9.65741 87.8103 8.50705 88.2493 7.52924V7.53564Z" fill="#565656"/>
<path d="M94.9815 4.66609C95.0515 5.72058 95.1151 8.3728 95.1151 9.34421C95.1151 10.2325 95.1024 13.2171 94.9624 14.5016L94.9497 14.6103H97.7304L97.7176 14.508C97.5776 13.2171 97.5713 10.2325 97.5713 9.34421C97.5713 8.64761 97.6031 7.08184 97.6476 5.83562C97.8767 5.80367 98.1821 5.7781 98.3985 5.77171C99.6966 5.74615 100.613 6.02096 101.052 6.56418C101.249 6.80703 101.357 7.1138 101.357 7.47808C101.357 8.63482 100.269 9.22278 99.2639 9.2803C98.933 9.29308 98.6785 9.24835 98.6721 9.24835L98.4812 9.2164L98.6021 9.39534C99.5757 10.8461 101.052 13.3705 101.675 14.5719L101.695 14.6167H104.672L104.583 14.4697C104.482 14.3035 102.534 11.4276 101.707 10.2006C101.707 10.2006 101.675 10.1622 101.656 10.1303C103.171 9.67015 103.915 8.80738 103.915 7.49086C103.915 5.16458 101.421 4.62774 99.3275 4.58301H94.9688L94.9815 4.67887V4.66609Z" fill="#565656"/>
<path d="M108.624 4.56396H105.958L105.97 4.65983C106.047 5.72071 106.104 8.37293 106.104 9.34434C106.104 10.2327 106.091 13.2108 105.958 14.5018V14.604H108.726L108.713 14.5018C108.579 13.2108 108.567 10.2263 108.567 9.34434C108.567 8.37293 108.624 5.72071 108.7 4.65983V4.56396H108.63H108.624Z" fill="#565656"/>
<path d="M111.22 4.67261C111.296 5.7271 111.347 8.37932 111.347 9.35073C111.347 10.2391 111.341 13.2172 111.201 14.5082L111.188 14.6104H115.827C118.092 14.6104 120.51 13.8883 120.51 11.856C120.51 10.5778 119.594 9.63832 117.876 9.12066C119.136 8.78194 119.995 7.9 119.995 6.89024C119.995 5.23501 118.105 4.60231 116.33 4.56396H111.214V4.65983L111.22 4.67261ZM114.809 5.69515C116.743 5.69515 117.469 6.10417 117.469 7.16505C117.469 7.44625 117.379 7.69549 117.208 7.90639C116.845 8.35375 116.101 8.58383 115.184 8.53909H115.133L114.605 9.95147H115.146C116.215 9.91952 117.131 10.2582 117.609 10.8462C117.831 11.1146 117.939 11.4214 117.939 11.7537C117.939 12.8721 116.972 13.4409 115.07 13.4409C114.745 13.4409 114.223 13.4409 113.893 13.4153C113.823 11.9454 113.823 9.94508 113.823 9.35073C113.823 8.64773 113.854 7.08197 113.905 5.75267C114.115 5.71432 114.478 5.68237 114.815 5.68876L114.809 5.69515Z" fill="#565656"/>
<path d="M127.338 4.56401H125.467L125.448 4.61513C124.901 6.12977 121.382 13.8308 121.089 14.4635L121.026 14.5977H123.412L123.424 14.5402C123.628 13.8563 123.902 13.0766 124.213 12.2394C124.296 12.2394 126.18 12.2075 126.18 12.2075L127.802 12.2331C127.802 12.2331 128.082 12.2331 128.159 12.2394C128.591 13.3259 128.903 14.1375 129.043 14.5466L129.062 14.5977H131.817L127.376 4.55762H127.331L127.338 4.56401ZM126.192 7.52298C126.415 7.99591 126.981 9.33799 127.63 10.9229C127.529 10.9229 127.42 10.9357 127.42 10.9357L126.192 10.9549C126.192 10.9549 124.932 10.9293 124.735 10.9229C125.251 9.64475 125.76 8.50079 126.192 7.52298Z" fill="#565656"/>
<path d="M132.594 7.17133C132.594 8.93521 134.362 9.65099 135.915 10.2901C137.13 10.7822 138.378 11.2934 138.378 12.1307C138.378 12.3863 138.32 12.5908 138.187 12.7506C137.9 13.0957 137.302 13.2427 136.367 13.1979C135.451 13.1532 134.401 12.8528 133.243 12.3096L132.759 12.0859V14.278L133.077 14.3483L133.268 14.3866C133.853 14.5272 134.961 14.7893 136.08 14.7893C139.007 14.7893 140.757 13.6197 140.757 11.6705C140.757 9.86189 138.95 9.13972 137.359 8.50064C136.182 8.02771 134.967 7.542 134.967 6.76871C134.967 6.54503 134.967 5.87399 136.469 5.87399C137.595 5.87399 138.696 6.33413 139.294 6.58337L139.866 6.81983V4.61498L139.294 4.51273C138.728 4.40408 137.786 4.21875 136.806 4.21875C134.286 4.21875 132.6 5.40745 132.6 7.17133H132.594Z" fill="#565656"/>
<path d="M44.9423 19.8635C44.4587 19.5759 43.8669 19.3394 43.097 19.3394C40.8445 19.3394 40.0682 21.1289 40.0682 22.6563C40.0682 24.7781 41.3663 25.8517 43.1097 25.8517C44.1978 25.8517 45.0123 25.3405 45.744 24.695L45.7568 26.5356C45.0123 26.8359 44.1024 27.098 42.7279 27.098C39.5846 27.098 37.6184 25.136 37.6184 22.6371C37.6184 20.0041 39.6991 18.0996 43.1225 18.0996C43.9242 18.0996 44.7069 18.2274 45.4577 18.4128L44.9359 19.8635H44.9423Z" fill="#565656"/>
<path d="M52.5271 18.2466C52.8643 19.1413 55.7022 25.5002 56.3704 26.9446H53.9842C53.8506 26.5483 53.5642 25.8262 53.1952 24.8931C52.6989 24.8803 52.1962 24.8675 51.4899 24.8675C50.8345 24.8675 50.3382 24.8803 49.7719 24.8931C49.4982 25.628 49.2755 26.2991 49.0783 26.9446H46.9976C47.4939 25.8645 50.3954 19.5311 50.8536 18.2466H52.5207H52.5271ZM52.737 23.7491L51.5026 20.8029C51.1081 21.6465 50.6754 22.6371 50.2173 23.7491C50.5863 23.7619 51.0954 23.7747 51.5026 23.7747C51.9098 23.7747 52.3171 23.7619 52.737 23.7491Z" fill="#565656"/>
<path d="M61.658 18.2466C63.4778 18.2466 65.6413 18.7578 65.6413 20.771C65.6413 21.9022 64.9859 22.6563 63.6878 23.0589C63.8723 23.4296 65.9658 26.625 66.3094 26.9446H63.726C63.1597 25.8645 61.868 23.6788 60.9326 22.26C61.0917 22.2984 61.3271 22.324 61.6007 22.324C62.3579 22.324 63.4206 21.7743 63.4206 20.771C63.4206 19.5184 61.9125 19.2947 61.1553 19.2947C60.7735 19.2947 60.4045 19.3202 60.2136 19.3458C60.1627 20.4259 60.1372 21.7807 60.1372 22.3879C60.1372 23.1612 60.1372 25.7303 60.2709 26.9446H57.8593C57.9802 25.7431 58.0056 24.1901 58.0056 22.3879C58.0056 20.8732 57.9929 19.0582 57.8847 18.253H61.658V18.2466Z" fill="#565656"/>
<path d="M71.2726 18.2466C74.9187 18.2466 76.3185 20.1702 76.3185 22.5796C76.3185 24.989 74.9568 26.9382 71.139 26.9382H67.9257C68.0466 25.7686 68.0466 24.1709 68.0466 22.3943C68.0466 21.5507 68.0466 19.3778 67.9257 18.2466H71.279H71.2726ZM70.2609 19.3394C70.21 19.9082 70.1973 21.3909 70.1973 22.3943C70.1973 23.6597 70.1973 24.6566 70.2482 25.8389C70.3691 25.8517 70.5727 25.8773 70.8654 25.8773C72.9525 25.8773 74.0469 25.219 74.0469 22.5476C74.0469 19.8763 72.9334 19.2819 70.8209 19.333L70.2609 19.3458V19.3394Z" fill="#565656"/>
<path d="M80.7663 18.2466C80.69 19.2499 80.639 21.5379 80.639 22.3943C80.639 23.1548 80.6518 25.7367 80.7663 26.9382H78.3674C78.4883 25.7367 78.5011 23.1484 78.5011 22.3943C78.5011 21.5507 78.4501 19.2499 78.3929 18.2466H80.7663Z" fill="#565656"/>
<path d="M89.9419 18.2466V19.5056C89.261 19.4672 87.5685 19.4161 86.9958 19.4161C86.5758 19.4161 86.105 19.4161 85.6214 19.4545C85.5832 19.9913 85.5705 20.6623 85.5705 21.2439C85.5705 21.5315 85.5705 21.7935 85.5832 22.0044L88.5993 21.9533V23.3082L85.5832 23.1867C85.5959 24.2924 85.6086 26.0051 85.7168 26.951H83.2925C83.4388 25.7495 83.4388 23.1612 83.4388 22.407C83.4388 21.5634 83.3752 19.2627 83.3052 18.2594H89.9355L89.9419 18.2466Z" fill="#565656"/>
</svg>
