<svg width="170" height="29" viewBox="0 0 170 29" fill="none" xmlns="http://www.w3.org/2000/svg">
<g clip-path="url(#clip0_2_201)">
<path fill-rule="evenodd" clip-rule="evenodd" d="M28.4115 13.0004C20.0498 13.3047 13.3039 20.0503 13.0004 28.4115C12.9881 28.7325 13.246 29 13.5679 29H25.6082C27.4817 29 29 27.4818 29 25.6083V13.5687C29 13.2468 28.7334 12.989 28.4115 13.0004Z" fill="#747474"/>
<path fill-rule="evenodd" clip-rule="evenodd" d="M25.6284 0H10.7478C4.81197 0 0 4.81197 0 10.7478V25.6284C0 27.4908 1.51012 29 3.37161 29H5.38219C5.68735 29 5.9341 28.7541 5.93584 28.4498C6.22531 16.1631 16.1675 6.22269 28.4542 5.93584C28.7567 5.93148 29 5.68561 29 5.38306V3.37248C29 1.51012 27.4908 0 25.6284 0Z" fill="#747474"/>
<path fill-rule="evenodd" clip-rule="evenodd" d="M44.6655 18.3641C43.5284 18.3641 42.596 17.995 41.8675 17.2849C41.139 16.5458 40.7603 15.6087 40.7603 14.5004C40.7603 12.2281 42.4211 10.6085 44.6655 10.6085C45.9116 10.6085 46.9943 11.1275 47.6551 11.9814C47.873 12.2641 48.2658 12.3532 48.5787 12.175L50.6157 11.0127C50.9663 10.8123 51.0674 10.3644 50.8398 10.0363C49.5392 8.15885 47.2473 7 44.6945 7C42.509 7 40.6724 7.7109 39.1855 9.15925C37.7285 10.6085 37 12.3694 37 14.5004C37 16.6306 37.7285 18.3924 39.1855 19.8416C40.6724 21.29 42.509 22 44.6945 22C47.2447 22 49.5093 20.8223 50.8705 18.944C51.1095 18.6142 51.0076 18.1543 50.6473 17.9539L48.6042 16.8164C48.2931 16.6426 47.9055 16.7325 47.6885 17.0108C47.0277 17.8622 45.9397 18.3641 44.6655 18.3641Z" fill="#747474"/>
<path fill-rule="evenodd" clip-rule="evenodd" d="M110.659 7C108.425 7 106.568 7.71004 105.147 9.15925C103.725 10.5793 103 12.3694 103 14.4996C103 16.6588 103.725 18.4489 105.175 19.869C106.627 21.29 108.541 22 110.95 22C113.526 22 115.531 21.1246 116.942 19.3979C117.126 19.1735 117.061 18.8395 116.806 18.6956L114.781 17.5513C114.499 17.392 114.138 17.4245 113.904 17.6472C113.193 18.3273 112.216 18.6759 111.007 18.6759C108.773 18.6759 107.41 17.7954 106.916 16.0053H116.475C117.317 16.0053 117.999 15.3381 118 14.5141V14.4996C118 12.3694 117.304 10.6076 115.911 9.15925C114.547 7.71004 112.778 7 110.659 7ZM106.858 13.1643C107.294 11.3468 108.658 10.295 110.659 10.295C112.372 10.295 113.822 11.2329 114.258 13.1643H106.858Z" fill="#747474"/>
<path fill-rule="evenodd" clip-rule="evenodd" d="M132.342 14.5035C132.342 15.6399 131.974 16.5766 131.237 17.3146C130.499 18.0526 129.591 18.4216 128.486 18.4216C127.38 18.4216 126.472 18.0526 125.735 17.3146C125.026 16.5766 124.658 15.6399 124.658 14.5035V7.59255C124.658 7.26523 124.393 7 124.066 7H121.682C121.305 7 121 7.30603 121 7.68303V14.5035C121 16.605 121.709 18.3933 123.155 19.8418C124.601 21.2895 126.387 22 128.486 22C130.585 22 132.37 21.2895 133.817 19.8418C135.263 18.3933 136 16.605 136 14.5035V7.68303C136 7.30603 135.694 7 135.318 7H133.024C132.648 7 132.342 7.30603 132.342 7.68303V14.5035Z" fill="#747474"/>
<path fill-rule="evenodd" clip-rule="evenodd" d="M166.365 7.62606V12.5256C164.148 12.9216 161.84 12.9046 159.635 12.4744V7.62606C159.635 7.28024 159.336 7 158.967 7H156.668C156.299 7 156 7.28024 156 7.62606V20.3739C156 20.7198 156.299 21 156.668 21H158.967C159.336 21 159.635 20.7198 159.635 20.3739V15.9796C160.788 16.1644 161.959 16.2683 163.139 16.2683C164.223 16.2683 165.3 16.1806 166.365 16.0238V20.3739C166.365 20.7198 166.664 21 167.033 21H169.332C169.701 21 170 20.7198 170 20.3739V7.62606C170 7.28024 169.701 7 169.332 7H167.033C166.664 7 166.365 7.28024 166.365 7.62606Z" fill="#747474"/>
<path fill-rule="evenodd" clip-rule="evenodd" d="M101.814 10.8307C101.355 8.63833 99.3568 7 96.8711 7H89.6291C89.2816 7 89 7.27448 89 7.61203V20.388C89 20.7264 89.2816 21 89.6291 21H91.9463C92.2946 21 92.5763 20.7264 92.5763 20.388V18.4061V17.3304H96.4359C98.8391 17.3304 101.034 15.8659 101.762 13.6403C102.089 12.6396 102.052 11.6951 101.814 10.8307ZM96.0376 14.2694H92.4947V9.91866H96.0376C97.2739 9.91866 98.2767 10.8921 98.2767 12.094C98.2767 13.2959 97.2739 14.2694 96.0376 14.2694Z" fill="#747474"/>
<path fill-rule="evenodd" clip-rule="evenodd" d="M60.4861 7C58.3873 7 56.6014 7.73917 55.1548 9.18752C53.7087 10.6359 53 12.3977 53 14.4996C53 16.6023 53.7087 18.3924 55.1548 19.8407C56.6014 21.29 58.3873 22 60.4861 22C62.5841 22 64.3709 21.29 65.8165 19.8407C67.2631 18.3924 68 16.6023 68 14.4996C68 12.3977 67.2631 10.6359 65.8165 9.18752C64.3709 7.73917 62.5841 7 60.4861 7ZM63.2364 17.3123C62.4994 18.0515 61.5915 18.4198 60.4861 18.4198C59.3798 18.4198 58.4728 18.0515 57.7358 17.3123C57.0262 16.574 56.6578 15.6362 56.6578 14.4996C56.6578 13.3638 57.0262 12.426 57.7358 11.6877C58.4728 10.9494 59.3798 10.5793 60.4861 10.5793C61.5915 10.5793 62.4994 10.9494 63.2364 11.6877C63.9733 12.426 64.3427 13.3638 64.3427 14.4996C64.3427 15.6362 63.9733 16.574 63.2364 17.3123Z" fill="#747474"/>
<path fill-rule="evenodd" clip-rule="evenodd" d="M77.4859 7C75.3879 7 73.601 7.73917 72.1545 9.18752C70.7087 10.6359 70 12.3977 70 14.4996C70 16.6023 70.7087 18.3924 72.1545 19.8407C73.601 21.29 75.3879 22 77.4859 22C79.5839 22 81.3708 21.29 82.8165 19.8407C84.263 18.3924 85 16.6023 85 14.4996C85 12.3977 84.263 10.6359 82.8165 9.18752C81.3708 7.73917 79.5839 7 77.4859 7ZM80.2363 17.3123C79.4993 18.0515 78.5913 18.4198 77.4859 18.4198C76.3796 18.4198 75.4725 18.0515 74.7355 17.3123C74.0268 16.574 73.6575 15.6362 73.6575 14.4996C73.6575 13.3638 74.0268 12.426 74.7355 11.6877C75.4725 10.9494 76.3796 10.5793 77.4859 10.5793C78.5913 10.5793 79.4993 10.9494 80.2363 11.6877C80.9732 12.426 81.3425 13.3638 81.3425 14.4996C81.3425 15.6362 80.9732 16.574 80.2363 17.3123Z" fill="#747474"/>
<path fill-rule="evenodd" clip-rule="evenodd" d="M146.666 18.3639C145.528 18.3639 144.596 17.9947 143.868 17.2838C143.139 16.5455 142.76 15.6075 142.76 14.5C142.76 12.2276 144.421 10.6078 146.666 10.6078C147.912 10.6078 148.994 11.1269 149.655 11.9809C149.873 12.2635 150.266 12.3526 150.579 12.1745L152.616 11.0121C152.966 10.8117 153.067 10.3637 152.84 10.0356C151.539 8.15806 149.247 7 146.695 7C144.508 7 142.672 7.71008 141.186 9.15852C139.728 10.6078 139 12.3689 139 14.5C139 16.6303 139.728 18.3922 141.186 19.8415C142.672 21.2899 144.508 22 146.695 22C149.244 22 151.509 20.8222 152.871 18.9447C153.11 18.614 153.008 18.1541 152.647 17.9536L150.604 16.8153C150.293 16.6422 149.906 16.7313 149.688 17.0106C149.028 17.862 147.94 18.3639 146.666 18.3639Z" fill="#747474"/>
</g>
<defs>
<clipPath id="clip0_2_201">
<rect width="170" height="29" fill="white"/>
</clipPath>
</defs>
</svg>
