<svg width="193" height="73" viewBox="0 0 193 73" fill="none" xmlns="http://www.w3.org/2000/svg">
<path fill-rule="evenodd" clip-rule="evenodd" d="M127.024 36.6419H9.1216C4.1047 36.6419 0 32.4662 0 27.3627V9.27917C0 4.17574 4.1047 0 9.1216 0H127.024C132.041 0 136.146 4.17574 136.146 9.27917V27.3627C136.146 32.4662 132.041 36.6419 127.024 36.6419Z" fill="#E81E2B"/>
<path fill-rule="evenodd" clip-rule="evenodd" d="M24.6452 59.5893C22.8131 59.5893 21.7605 58.7964 20.9418 57.686V51.6189C21.7605 50.5481 22.8131 49.755 24.6452 49.755C27.257 49.755 29.0503 52.0154 29.0503 54.6722C29.0503 57.3292 27.257 59.5893 24.6452 59.5893ZM25.5419 44.3224C23.5926 44.3224 21.9557 45.0362 20.9418 45.988V44.7588H15.0557V72.2787H20.9418V63.3169C21.9557 64.3083 23.5926 65.0221 25.5419 65.0221C31.3113 65.0221 35.1314 60.1841 35.1314 54.6722C35.1314 49.1602 31.3113 44.3224 25.5419 44.3224Z" fill="#E81E2B"/>
<path fill-rule="evenodd" clip-rule="evenodd" d="M24.6452 59.5893C22.8131 59.5893 21.7605 58.7964 20.9418 57.686V51.6189C21.7605 50.5481 22.8131 49.755 24.6452 49.755C27.257 49.755 29.0503 52.0154 29.0503 54.6722C29.0503 57.3292 27.257 59.5893 24.6452 59.5893ZM25.5419 44.3224C23.5926 44.3224 21.9557 45.0362 20.9418 45.988V44.7588H15.0557V72.2787H20.9418V63.3169C21.9557 64.3083 23.5926 65.0221 25.5419 65.0221C31.3113 65.0221 35.1314 60.1841 35.1314 54.6722C35.1314 49.1602 31.3113 44.3224 25.5419 44.3224Z" stroke="#E81E2B"/>
<path fill-rule="evenodd" clip-rule="evenodd" d="M49.0864 44.9174C48.6964 44.7587 47.761 44.5207 46.7084 44.5207C44.7593 44.5207 43.005 45.5915 42.3813 46.9794V44.7587H36.4951V64.5859H42.3813V52.0552C43.3559 50.707 45.188 50.2706 46.5524 50.2706C47.371 50.2706 48.0337 50.4293 48.1897 50.5086L49.0864 44.9174Z" fill="#E81E2B"/>
<path fill-rule="evenodd" clip-rule="evenodd" d="M49.0864 44.9174C48.6964 44.7587 47.761 44.5207 46.7084 44.5207C44.7593 44.5207 43.005 45.5915 42.3813 46.9794V44.7587H36.4951V64.5859H42.3813V52.0552C43.3559 50.707 45.188 50.2706 46.5524 50.2706C47.371 50.2706 48.0337 50.4293 48.1897 50.5086L49.0864 44.9174Z" stroke="#E81E2B"/>
<path fill-rule="evenodd" clip-rule="evenodd" d="M57.9739 59.4309C55.5182 59.4309 53.6468 57.4879 53.6468 54.6722C53.6468 51.8568 55.5182 49.9138 57.9739 49.9138C60.4297 49.9138 62.3007 51.8568 62.3007 54.6722C62.3007 57.4879 60.4297 59.4309 57.9739 59.4309ZM57.9739 44.3225C52.3605 44.3225 47.7217 48.843 47.7217 54.6722C47.7217 60.5015 52.3605 65.0222 57.9739 65.0222C63.5874 65.0222 68.2262 60.5015 68.2262 54.6722C68.2262 48.843 63.5874 44.3225 57.9739 44.3225Z" fill="#E81E2B"/>
<path fill-rule="evenodd" clip-rule="evenodd" d="M57.9739 59.4309C55.5182 59.4309 53.6468 57.4879 53.6468 54.6722C53.6468 51.8568 55.5182 49.9138 57.9739 49.9138C60.4297 49.9138 62.3007 51.8568 62.3007 54.6722C62.3007 57.4879 60.4297 59.4309 57.9739 59.4309ZM57.9739 44.3225C52.3605 44.3225 47.7217 48.843 47.7217 54.6722C47.7217 60.5015 52.3605 65.0222 57.9739 65.0222C63.5874 65.0222 68.2262 60.5015 68.2262 54.6722C68.2262 48.843 63.5874 44.3225 57.9739 44.3225Z" stroke="#E81E2B"/>
<path fill-rule="evenodd" clip-rule="evenodd" d="M80.6224 59.3912C78.6344 59.3912 77.6987 58.4791 77.6987 56.1V49.9534H83.5461V44.7588H77.6987V38.7312H71.8126V44.7588H67.1348V49.9534H71.8126V57.3292C71.8126 62.3653 75.126 64.8238 79.7648 64.8238C81.7918 64.8238 84.0921 64.1497 85.0275 63.634L83.2732 58.7568C82.6885 59.0739 81.5971 59.3912 80.6224 59.3912Z" fill="#E81E2B"/>
<path fill-rule="evenodd" clip-rule="evenodd" d="M80.6224 59.3912C78.6344 59.3912 77.6987 58.4791 77.6987 56.1V49.9534H83.5461V44.7588H77.6987V38.7312H71.8126V44.7588H67.1348V49.9534H71.8126V57.3292C71.8126 62.3653 75.126 64.8238 79.7648 64.8238C81.7918 64.8238 84.0921 64.1497 85.0275 63.634L83.2732 58.7568C82.6885 59.0739 81.5971 59.3912 80.6224 59.3912Z" stroke="#E81E2B"/>
<path fill-rule="evenodd" clip-rule="evenodd" d="M89.5496 52.174C90.0563 49.993 92.0833 49.1999 93.7987 49.1999C95.5137 49.1999 97.3071 50.0724 97.8135 52.174H89.5496ZM93.9546 44.3227C88.0292 44.3227 83.7021 48.7638 83.7021 54.6721C83.7021 61.0568 88.3412 65.0221 94.0714 65.0221C98.1645 65.0221 101.4 63.2774 103.232 60.6601L98.8662 57.3292C98.1255 58.4791 96.4104 59.5893 94.1494 59.5893C91.9273 59.5893 89.7443 58.4791 89.3936 56.1H103.544C103.661 55.1482 103.661 54.5135 103.661 53.9983C103.661 47.5743 99.1001 44.3227 93.9546 44.3227Z" fill="#E81E2B"/>
<path fill-rule="evenodd" clip-rule="evenodd" d="M89.5496 52.174C90.0563 49.993 92.0833 49.1999 93.7987 49.1999C95.5137 49.1999 97.3071 50.0724 97.8135 52.174H89.5496ZM93.9546 44.3227C88.0292 44.3227 83.7021 48.7638 83.7021 54.6721C83.7021 61.0568 88.3412 65.0221 94.0714 65.0221C98.1645 65.0221 101.4 63.2774 103.232 60.6601L98.8662 57.3292C98.1255 58.4791 96.4104 59.5893 94.1494 59.5893C91.9273 59.5893 89.7443 58.4791 89.3936 56.1H103.544C103.661 55.1482 103.661 54.5135 103.661 53.9983C103.661 47.5743 99.1001 44.3227 93.9546 44.3227Z" stroke="#E81E2B"/>
<path fill-rule="evenodd" clip-rule="evenodd" d="M114.225 59.4309C111.769 59.4309 109.781 57.4879 109.781 54.6722C109.781 51.8568 111.769 49.9138 114.225 49.9138C116.174 49.9138 117.694 51.1827 118.396 52.8876L123.541 50.1121C121.865 46.6622 118.279 44.3225 114.225 44.3225C108.494 44.3225 103.855 48.6052 103.855 54.6722C103.855 60.7395 108.494 65.0222 114.225 65.0222C118.279 65.0222 121.865 62.6825 123.541 59.2326L118.396 56.4566C117.694 58.1618 116.174 59.4309 114.225 59.4309Z" fill="#E81E2B"/>
<path fill-rule="evenodd" clip-rule="evenodd" d="M114.225 59.4309C111.769 59.4309 109.781 57.4879 109.781 54.6722C109.781 51.8568 111.769 49.9138 114.225 49.9138C116.174 49.9138 117.694 51.1827 118.396 52.8876L123.541 50.1121C121.865 46.6622 118.279 44.3225 114.225 44.3225C108.494 44.3225 103.855 48.6052 103.855 54.6722C103.855 60.7395 108.494 65.0222 114.225 65.0222C118.279 65.0222 121.865 62.6825 123.541 59.2326L118.396 56.4566C117.694 58.1618 116.174 59.4309 114.225 59.4309Z" stroke="#E81E2B"/>
<path fill-rule="evenodd" clip-rule="evenodd" d="M133.56 49.9137C135.509 49.9137 137.029 51.1828 137.731 52.8878L142.876 50.112C141.2 46.6621 137.614 44.3224 133.56 44.3224C127.829 44.3224 123.19 48.6051 123.19 54.6722C123.19 60.7394 127.829 65.0221 133.56 65.0221C137.614 65.0221 141.2 62.6824 142.876 59.2325L137.731 56.4567C137.029 58.162 135.509 59.4309 133.56 59.4309C131.104 59.4309 129.116 57.4879 129.116 54.6722C129.116 51.8567 131.104 49.9137 133.56 49.9137Z" fill="#E81E2B"/>
<path fill-rule="evenodd" clip-rule="evenodd" d="M133.56 49.9137C135.509 49.9137 137.029 51.1828 137.731 52.8878L142.876 50.112C141.2 46.6621 137.614 44.3224 133.56 44.3224C127.829 44.3224 123.19 48.6051 123.19 54.6722C123.19 60.7394 127.829 65.0221 133.56 65.0221C137.614 65.0221 141.2 62.6824 142.876 59.2325L137.731 56.4567C137.029 58.162 135.509 59.4309 133.56 59.4309C131.104 59.4309 129.116 57.4879 129.116 54.6722C129.116 51.8567 131.104 49.9137 133.56 49.9137Z" stroke="#E81E2B"/>
<path fill-rule="evenodd" clip-rule="evenodd" d="M146.618 35.4004C144.63 35.4004 142.954 37.0657 142.954 39.128C142.954 41.19 144.63 42.8553 146.618 42.8553C148.685 42.8553 150.322 41.19 150.322 39.128C150.322 37.0657 148.685 35.4004 146.618 35.4004Z" fill="#E81E2B"/>
<path fill-rule="evenodd" clip-rule="evenodd" d="M146.618 35.4004C144.63 35.4004 142.954 37.0657 142.954 39.128C142.954 41.19 144.63 42.8553 146.618 42.8553C148.685 42.8553 150.322 41.19 150.322 39.128C150.322 37.0657 148.685 35.4004 146.618 35.4004Z" stroke="#E81E2B"/>
<path fill-rule="evenodd" clip-rule="evenodd" d="M143.694 64.5859H149.581V44.7587H143.694V64.5859Z" fill="#E81E2B"/>
<path fill-rule="evenodd" clip-rule="evenodd" d="M143.694 64.5859H149.581V44.7587H143.694V64.5859Z" stroke="#E81E2B"/>
<path fill-rule="evenodd" clip-rule="evenodd" d="M161.119 59.4309C158.664 59.4309 156.792 57.4879 156.792 54.6722C156.792 51.8568 158.664 49.9138 161.119 49.9138C163.575 49.9138 165.446 51.8568 165.446 54.6722C165.446 57.4879 163.575 59.4309 161.119 59.4309ZM161.119 44.3225C155.506 44.3225 150.867 48.843 150.867 54.6722C150.867 60.5015 155.506 65.0222 161.119 65.0222C166.733 65.0222 171.372 60.5015 171.372 54.6722C171.372 48.843 166.733 44.3225 161.119 44.3225Z" fill="#E81E2B"/>
<path fill-rule="evenodd" clip-rule="evenodd" d="M161.119 59.4309C158.664 59.4309 156.792 57.4879 156.792 54.6722C156.792 51.8568 158.664 49.9138 161.119 49.9138C163.575 49.9138 165.446 51.8568 165.446 54.6722C165.446 57.4879 163.575 59.4309 161.119 59.4309ZM161.119 44.3225C155.506 44.3225 150.867 48.843 150.867 54.6722C150.867 60.5015 155.506 65.0222 161.119 65.0222C166.733 65.0222 171.372 60.5015 171.372 54.6722C171.372 48.843 166.733 44.3225 161.119 44.3225Z" stroke="#E81E2B"/>
<path fill-rule="evenodd" clip-rule="evenodd" d="M168.682 35.6382H161.938L158.819 42.538H163.107L168.682 35.6382Z" fill="#E81E2B"/>
<path fill-rule="evenodd" clip-rule="evenodd" d="M168.682 35.6382H161.938L158.819 42.538H163.107L168.682 35.6382Z" stroke="#E81E2B"/>
<path fill-rule="evenodd" clip-rule="evenodd" d="M183.611 44.3226C181.545 44.3226 179.752 45.0364 178.543 46.1862V44.7587H172.657V64.5859H178.543V51.5791C179.362 50.5086 180.804 49.7551 182.325 49.7551C184.586 49.7551 185.638 51.6587 185.638 54.3155V64.5859H191.525V53.2844C191.525 47.9311 188.679 44.3226 183.611 44.3226Z" fill="#E81E2B"/>
<path fill-rule="evenodd" clip-rule="evenodd" d="M183.611 44.3226C181.545 44.3226 179.752 45.0364 178.543 46.1862V44.7587H172.657V64.5859H178.543V51.5791C179.362 50.5086 180.804 49.7551 182.325 49.7551C184.586 49.7551 185.638 51.6587 185.638 54.3155V64.5859H191.525V53.2844C191.525 47.9311 188.679 44.3226 183.611 44.3226Z" stroke="#E81E2B"/>
<path fill-rule="evenodd" clip-rule="evenodd" d="M21.2555 15.6266L19.2981 14.9098C16.3618 13.8342 14.9915 13.1574 14.9915 11.6439C14.9915 10.1704 16.675 9.49304 18.3585 9.49304C20.1204 9.49304 21.8819 10.25 23.1742 11.843L27.2458 7.46216C24.6617 4.6344 21.6472 3.55908 18.2802 3.55908C12.7206 3.55908 8.68795 6.78503 8.68795 12.2811C8.68795 16.1443 11.1938 18.8925 15.6961 20.4456L17.6538 21.1227C20.4334 22.0785 21.5297 23.074 21.5297 24.5078C21.5297 25.8621 20.2377 26.8575 18.1627 26.8575C16.1268 26.8575 13.7384 25.663 12.4074 23.6318L7.63086 27.734C9.78428 30.92 13.5427 32.7917 17.9278 32.7917C23.8006 32.7917 27.8332 29.2075 27.8722 24.0697C27.9115 19.8084 25.2881 17.1001 21.2555 15.6266Z" fill="white"/>
<path fill-rule="evenodd" clip-rule="evenodd" d="M27.8722 24.0697C27.9115 19.8084 25.2881 17.1001 21.2555 15.6266L19.2981 14.9098C16.3618 13.8342 14.9915 13.1574 14.9915 11.6439C14.9915 10.1704 16.675 9.49304 18.3585 9.49304C20.1204 9.49304 21.8819 10.25 23.1742 11.843L27.2458 7.46216C24.6617 4.6344 21.6472 3.55908 18.2802 3.55908C12.7206 3.55908 8.68795 6.78504 8.68795 12.2811C8.68795 16.1443 11.1938 18.8925 15.6961 20.4456L17.6538 21.1227C20.4334 22.0785 21.5297 23.074 21.5297 24.5078C21.5297 25.8621 20.2377 26.8575 18.1627 26.8575C16.1268 26.8575 13.7384 25.663 12.4074 23.6318L7.63086 27.734C9.78428 30.9201 13.5427 32.7918 17.9278 32.7918C23.8006 32.7918 27.8332 29.2075 27.8722 24.0697Z" stroke="white"/>
<path fill-rule="evenodd" clip-rule="evenodd" d="M38.6383 17.4186C40.4783 17.4186 41.5354 18.2153 42.3575 19.2906V25.3842C41.5354 26.4992 40.4783 27.2958 38.6383 27.2958C36.015 27.2958 34.214 25.0257 34.214 22.3574C34.214 19.6888 36.015 17.4186 38.6383 17.4186ZM37.738 32.752C39.6954 32.752 41.3397 32.0352 42.3575 31.0395V32.3139H48.2693V12.4006H42.3575V13.6353C41.3397 12.6793 39.6954 11.9625 37.738 11.9625C31.9434 11.9625 28.1064 16.8214 28.1064 22.3574C28.1064 27.8931 31.9434 32.752 37.738 32.752Z" fill="white"/>
<path fill-rule="evenodd" clip-rule="evenodd" d="M38.6383 17.4186C40.4783 17.4186 41.5354 18.2153 42.3575 19.2906V25.3842C41.5354 26.4992 40.4783 27.2958 38.6383 27.2958C36.015 27.2958 34.214 25.0257 34.214 22.3574C34.214 19.6888 36.015 17.4186 38.6383 17.4186ZM37.738 32.752C39.6954 32.752 41.3397 32.0352 42.3575 31.0395V32.3139H48.2693V12.4006H42.3575V13.6353C41.3397 12.6793 39.6954 11.9625 37.738 11.9625C31.9434 11.9625 28.1064 16.8214 28.1064 22.3574C28.1064 27.8931 31.9434 32.752 37.738 32.752Z" stroke="white"/>
<path fill-rule="evenodd" clip-rule="evenodd" d="M50.7754 32.314H56.6872V3.24048H50.7754V32.314Z" fill="white"/>
<path fill-rule="evenodd" clip-rule="evenodd" d="M50.7754 32.314H56.6872V3.24048H50.7754V32.314Z" stroke="white"/>
<path fill-rule="evenodd" clip-rule="evenodd" d="M67.0223 32.7521C68.5493 32.7521 70.35 32.1149 71.5636 30.9597V32.314H77.4757V12.4004H71.5636V25.4639C70.6632 26.6185 69.3319 27.2959 68.2751 27.2959C65.8475 27.2959 64.8689 25.384 64.8689 22.7157V12.4004H58.957V23.7511C58.957 29.1277 61.8148 32.7521 67.0223 32.7521Z" fill="white"/>
<path fill-rule="evenodd" clip-rule="evenodd" d="M67.0223 32.7521C68.5493 32.7521 70.35 32.1149 71.5636 30.9597V32.314H77.4757V12.4004H71.5636V25.4639C70.6632 26.6185 69.3319 27.2959 68.2751 27.2959C65.8475 27.2959 64.8689 25.384 64.8689 22.7157V12.4004H58.957V23.7511C58.957 29.1277 61.8148 32.7521 67.0223 32.7521Z" stroke="white"/>
<path fill-rule="evenodd" clip-rule="evenodd" d="M89.3385 17.4186C91.1785 17.4186 92.2356 18.2153 93.0577 19.2906V25.3842C92.2356 26.4992 91.1785 27.2959 89.3385 27.2959C86.7152 27.2959 84.9142 25.0257 84.9142 22.3574C84.9142 19.6888 86.7152 17.4186 89.3385 17.4186ZM88.4381 32.752C90.3956 32.752 92.0398 32.0352 93.0577 31.0395V32.3139H98.9695V3.24042H93.0577V13.6353C92.0398 12.6793 90.3956 11.9625 88.4381 11.9625C82.6435 11.9625 78.8066 16.8214 78.8066 22.3574C78.8066 27.8931 82.6435 32.752 88.4381 32.752Z" fill="white"/>
<path fill-rule="evenodd" clip-rule="evenodd" d="M89.3385 17.4186C91.1785 17.4186 92.2356 18.2153 93.0577 19.2906V25.3842C92.2356 26.4992 91.1785 27.2959 89.3385 27.2959C86.7152 27.2959 84.9142 25.0257 84.9142 22.3574C84.9142 19.6888 86.7152 17.4186 89.3385 17.4186ZM88.4381 32.752C90.3956 32.752 92.0398 32.0352 93.0577 31.0395V32.3139H98.9695V3.24042H93.0577V13.6353C92.0398 12.6793 90.3956 11.9625 88.4381 11.9625C82.6435 11.9625 78.8066 16.8214 78.8066 22.3574C78.8066 27.8931 82.6435 32.752 88.4381 32.752Z" stroke="white"/>
<path fill-rule="evenodd" clip-rule="evenodd" d="M111.262 13.5682C111.144 14.0618 111.077 14.568 111.061 15.0792C108.929 15.4603 107.304 17.3586 107.304 19.6355V33.0661C107.304 33.472 106.98 33.8014 106.581 33.8014C106.182 33.8014 105.858 33.472 105.858 33.0661V19.6355C105.858 19.4733 105.865 19.3119 105.877 19.1515C105.927 18.4997 106.079 17.8657 106.33 17.2622C106.632 16.5361 107.064 15.8846 107.614 15.3247C108.164 14.7651 108.805 14.3257 109.519 14.0187C110.077 13.7784 110.661 13.6275 111.262 13.5682Z" fill="white"/>
<path fill-rule="evenodd" clip-rule="evenodd" d="M105.877 19.1516C105.865 19.312 105.858 19.4732 105.858 19.6356V19.3183C105.858 19.2613 105.865 19.2053 105.877 19.1516Z" fill="white"/>
<path fill-rule="evenodd" clip-rule="evenodd" d="M124.903 15.3434V22.8922C124.903 24.4263 123.676 25.6741 122.168 25.6741C120.661 25.6741 119.434 24.4263 119.434 22.8922V22.8842L119.444 21.9374V18.602C119.444 18.4556 119.449 18.3103 119.461 18.1662C119.561 16.8857 120.099 15.6952 121.001 14.7768C121.448 14.3226 121.959 13.959 122.515 13.6959C122.692 14.1735 122.792 14.6826 122.803 15.2041C121.659 15.8897 120.889 17.1564 120.889 18.602V21.9412V21.9495L120.879 22.896C120.881 23.6176 121.458 24.2043 122.168 24.2043C122.88 24.2043 123.458 23.6156 123.458 22.8922V15.3434C123.458 12.4403 121.137 10.0791 118.283 10.0791C115.43 10.0791 113.108 12.4403 113.108 15.3434V29.9294C113.108 30.8408 113.837 31.5819 114.733 31.5819C115.636 31.5819 116.399 30.8274 116.399 29.9342V19.6357C116.399 17.7973 115.34 16.2063 113.81 15.4607V15.3078C113.81 14.8415 113.881 14.3838 114.014 13.9485C114.071 13.9708 114.128 13.9944 114.184 14.0188C114.898 14.3256 115.539 14.765 116.089 15.3248C116.64 15.8845 117.071 16.5362 117.373 17.2623C117.655 17.9402 117.812 18.656 117.84 19.3931C117.843 19.4735 117.844 19.5543 117.844 19.6357V29.9342C117.844 30.7692 117.515 31.555 116.917 32.1471C116.328 32.7305 115.552 33.0519 114.733 33.0519C113.04 33.0519 111.663 31.6512 111.663 29.9294V15.3434C111.663 14.4343 111.838 13.5526 112.184 12.7218C112.517 11.9196 112.994 11.1996 113.602 10.5814C114.21 9.96307 114.918 9.47801 115.706 9.13857C116.523 8.78733 117.39 8.60907 118.283 8.60907C119.177 8.60907 120.044 8.78733 120.86 9.13857C121.649 9.47801 122.357 9.96307 122.964 10.5814C123.572 11.1996 124.049 11.9196 124.383 12.7218C124.728 13.5526 124.903 14.4343 124.903 15.3434Z" fill="white"/>
<path fill-rule="evenodd" clip-rule="evenodd" d="M130.075 18.3803C130.021 17.0185 129.475 15.7463 128.522 14.7767C127.636 13.8756 126.492 13.3316 125.26 13.2161C125.403 13.7119 125.496 14.2231 125.535 14.7415C127.301 15.1068 128.634 16.6991 128.634 18.6022V18.6037V30.5786C128.634 30.9845 128.958 31.3137 129.357 31.3137C129.756 31.3137 130.08 30.9845 130.08 30.5786V18.4639C130.08 18.4357 130.078 18.4076 130.075 18.3803Z" fill="white"/>
<path fill-rule="evenodd" clip-rule="evenodd" d="M119.461 18.1662C119.45 18.3103 119.444 18.4557 119.444 18.6021V18.3256C119.444 18.2709 119.45 18.2174 119.461 18.1662Z" fill="white"/>
<path fill-rule="evenodd" clip-rule="evenodd" d="M117.845 19.4769V19.6356C117.845 19.5545 117.843 19.4734 117.84 19.3931C117.843 19.4204 117.845 19.4488 117.845 19.4769Z" fill="white"/>
<path fill-rule="evenodd" clip-rule="evenodd" d="M111.059 7.37081C110.363 7.37081 109.798 7.94626 109.798 8.65326C109.798 9.36076 110.363 9.93621 111.059 9.93621C111.754 9.93621 112.319 9.36076 112.319 8.65326C112.319 7.94626 111.754 7.37081 111.059 7.37081ZM111.059 11.406C109.566 11.406 108.353 10.1712 108.353 8.65326C108.353 7.13556 109.566 5.90082 111.059 5.90082C112.551 5.90082 113.765 7.13556 113.765 8.65326C113.765 10.1712 112.551 11.406 111.059 11.406Z" fill="white"/>
<path fill-rule="evenodd" clip-rule="evenodd" d="M118.283 3.33535C117.588 3.33535 117.022 3.91079 117.022 4.6178C117.022 5.3253 117.588 5.90075 118.283 5.90075C118.978 5.90075 119.544 5.3253 119.544 4.6178C119.544 3.91079 118.978 3.33535 118.283 3.33535ZM118.283 7.37074C116.791 7.37074 115.577 6.13575 115.577 4.6178C115.577 3.1001 116.791 1.86536 118.283 1.86536C119.775 1.86536 120.989 3.1001 120.989 4.6178C120.989 6.13575 119.775 7.37074 118.283 7.37074Z" fill="white"/>
<path fill-rule="evenodd" clip-rule="evenodd" d="M126.032 8.92281C125.547 8.92281 125.152 9.32427 125.152 9.81761C125.152 10.3112 125.547 10.7127 126.032 10.7127C126.517 10.7127 126.912 10.3112 126.912 9.81761C126.912 9.32427 126.517 8.92281 126.032 8.92281ZM126.032 12.1827C124.75 12.1827 123.707 11.1219 123.707 9.81761C123.707 8.51358 124.75 7.45282 126.032 7.45282C127.314 7.45282 128.357 8.51358 128.357 9.81761C128.357 11.1219 127.314 12.1827 126.032 12.1827Z" fill="white"/>
</svg>
