<svg width="131" height="49" viewBox="0 0 131 49" fill="none" xmlns="http://www.w3.org/2000/svg">
<g clip-path="url(#clip0_2_219)">
<path fill-rule="evenodd" clip-rule="evenodd" d="M86.6674 24.5952H6.22359C2.8006 24.5952 0 21.7924 0 18.3668V6.22848C0 2.80289 2.8006 0 6.22359 0H86.6674C90.0904 0 92.8911 2.80289 92.8911 6.22848V18.3668C92.8911 21.7924 90.0904 24.5952 86.6674 24.5952Z" fill="#747474"/>
<path fill-rule="evenodd" clip-rule="evenodd" d="M16.815 39.9982C15.565 39.9982 14.8468 39.466 14.2882 38.7206V34.6483C14.8468 33.9295 15.565 33.3971 16.815 33.3971C18.597 33.3971 19.8206 34.9144 19.8206 36.6977C19.8206 38.4812 18.597 39.9982 16.815 39.9982ZM17.4268 29.7506C16.0968 29.7506 14.98 30.2297 14.2882 30.8686V30.0435H10.2722V48.5158H14.2882V42.5003C14.98 43.1658 16.0968 43.6449 17.4268 43.6449C21.3632 43.6449 23.9697 40.3975 23.9697 36.6977C23.9697 32.9979 21.3632 29.7506 17.4268 29.7506Z" fill="#747474"/>
<path fill-rule="evenodd" clip-rule="evenodd" d="M16.815 39.9982C15.565 39.9982 14.8468 39.466 14.2882 38.7206V34.6483C14.8468 33.9295 15.565 33.3971 16.815 33.3971C18.597 33.3971 19.8206 34.9144 19.8206 36.6977C19.8206 38.4812 18.597 39.9982 16.815 39.9982ZM17.4268 29.7506C16.0968 29.7506 14.98 30.2297 14.2882 30.8686V30.0435H10.2722V48.5158H14.2882V42.5003C14.98 43.1658 16.0968 43.6449 17.4268 43.6449C21.3632 43.6449 23.9697 40.3975 23.9697 36.6977C23.9697 32.9979 21.3632 29.7506 17.4268 29.7506Z" stroke="#747474"/>
<path fill-rule="evenodd" clip-rule="evenodd" d="M33.4909 30.1499C33.2248 30.0434 32.5866 29.8837 31.8684 29.8837C30.5386 29.8837 29.3416 30.6024 28.916 31.534V30.0434H24.9V43.3521H28.916V34.9411C29.581 34.0361 30.8311 33.7432 31.762 33.7432C32.3205 33.7432 32.7727 33.8497 32.8791 33.903L33.4909 30.1499Z" fill="#747474"/>
<path fill-rule="evenodd" clip-rule="evenodd" d="M33.4909 30.1499C33.2248 30.0434 32.5866 29.8837 31.8684 29.8837C30.5386 29.8837 29.3416 30.6024 28.9161 31.534V30.0434H24.9V43.3521H28.9161V34.9411C29.581 34.0361 30.8311 33.7432 31.762 33.7432C32.3205 33.7432 32.7727 33.8497 32.8791 33.903L33.4909 30.1499Z" stroke="#747474"/>
<path fill-rule="evenodd" clip-rule="evenodd" d="M39.5548 39.8919C37.8792 39.8919 36.6024 38.5877 36.6024 36.6977C36.6024 34.8078 37.8792 33.5036 39.5548 33.5036C41.2303 33.5036 42.5069 34.8078 42.5069 36.6977C42.5069 38.5877 41.2303 39.8919 39.5548 39.8919ZM39.5548 29.7506C35.7248 29.7506 32.5598 32.7849 32.5598 36.6977C32.5598 40.6105 35.7248 43.6449 39.5548 43.6449C43.3848 43.6449 46.5498 40.6105 46.5498 36.6977C46.5498 32.7849 43.3848 29.7506 39.5548 29.7506Z" fill="#747474"/>
<path fill-rule="evenodd" clip-rule="evenodd" d="M39.5548 39.8919C37.8792 39.8919 36.6024 38.5877 36.6024 36.6977C36.6024 34.8079 37.8792 33.5036 39.5548 33.5036C41.2303 33.5036 42.5069 34.8079 42.5069 36.6977C42.5069 38.5877 41.2303 39.8919 39.5548 39.8919ZM39.5548 29.7506C35.7248 29.7506 32.5598 32.7849 32.5598 36.6977C32.5598 40.6105 35.7248 43.6449 39.5548 43.6449C43.3848 43.6449 46.5498 40.6105 46.5498 36.6977C46.5498 32.7849 43.3848 29.7506 39.5548 29.7506Z" stroke="#747474"/>
<path fill-rule="evenodd" clip-rule="evenodd" d="M55.0078 39.8652C53.6513 39.8652 53.0129 39.253 53.0129 37.656V33.5302H57.0026V30.0435H53.0129V25.9976H48.9969V30.0435H45.8052V33.5302H48.9969V38.4811C48.9969 41.8616 51.2576 43.5118 54.4226 43.5118C55.8056 43.5118 57.3751 43.0593 58.0133 42.7131L56.8164 39.4394C56.4174 39.6522 55.6728 39.8652 55.0078 39.8652Z" fill="#747474"/>
<path fill-rule="evenodd" clip-rule="evenodd" d="M55.0078 39.8652C53.6513 39.8652 53.0129 39.253 53.0129 37.656V33.5302H57.0026V30.0435H53.0129V25.9976H48.9969V30.0435H45.8052V33.5302H48.9969V38.4811C48.9969 41.8616 51.2576 43.5118 54.4226 43.5118C55.8056 43.5118 57.3751 43.0593 58.0133 42.7131L56.8164 39.4394C56.4174 39.6522 55.6728 39.8652 55.0078 39.8652Z" stroke="#747474"/>
<path fill-rule="evenodd" clip-rule="evenodd" d="M61.0986 35.0208C61.4444 33.5568 62.8274 33.0245 63.9978 33.0245C65.1679 33.0245 66.3915 33.6101 66.7371 35.0208H61.0986ZM64.1042 29.7507C60.0613 29.7507 57.109 32.7318 57.109 36.6976C57.109 40.9832 60.2742 43.6449 64.1838 43.6449C66.9765 43.6449 69.1842 42.4738 70.4342 40.7169L67.4553 38.4811C66.9499 39.253 65.7797 39.9982 64.2371 39.9982C62.721 39.9982 61.2315 39.253 60.9922 37.656H70.6469C70.7267 37.0171 70.7267 36.5911 70.7267 36.2453C70.7267 31.9333 67.6149 29.7507 64.1042 29.7507Z" fill="#747474"/>
<path fill-rule="evenodd" clip-rule="evenodd" d="M61.0986 35.0208C61.4444 33.5568 62.8274 33.0245 63.9978 33.0245C65.1679 33.0245 66.3915 33.6101 66.7371 35.0208H61.0986ZM64.1042 29.7507C60.0613 29.7507 57.109 32.7318 57.109 36.6976C57.109 40.9832 60.2742 43.6449 64.1838 43.6449C66.9765 43.6449 69.1842 42.4738 70.4342 40.7169L67.4553 38.4811C66.9499 39.253 65.7797 39.9982 64.2371 39.9982C62.721 39.9982 61.2315 39.253 60.9922 37.656H70.6469C70.7267 37.0171 70.7267 36.5911 70.7267 36.2453C70.7267 31.9333 67.6149 29.7507 64.1042 29.7507Z" stroke="#747474"/>
<path fill-rule="evenodd" clip-rule="evenodd" d="M77.9343 39.8919C76.2588 39.8919 74.9022 38.5877 74.9022 36.6977C74.9022 34.8078 76.2588 33.5036 77.9343 33.5036C79.2642 33.5036 80.3015 34.3554 80.7801 35.4998L84.291 33.6368C83.1474 31.3211 80.7004 29.7506 77.9343 29.7506C74.0245 29.7506 70.8595 32.6253 70.8595 36.6977C70.8595 40.7702 74.0245 43.6449 77.9343 43.6449C80.7004 43.6449 83.1474 42.0744 84.291 39.7588L80.7801 37.8954C80.3015 39.04 79.2642 39.8919 77.9343 39.8919Z" fill="#747474"/>
<path fill-rule="evenodd" clip-rule="evenodd" d="M77.9343 39.8919C76.2588 39.8919 74.9022 38.5877 74.9022 36.6977C74.9022 34.8079 76.2588 33.5036 77.9343 33.5036C79.2642 33.5036 80.3015 34.3554 80.7801 35.4998L84.291 33.6368C83.1474 31.3211 80.7004 29.7506 77.9343 29.7506C74.0245 29.7506 70.8595 32.6253 70.8595 36.6977C70.8595 40.7702 74.0245 43.6449 77.9343 43.6449C80.7004 43.6449 83.1474 42.0744 84.291 39.7588L80.7801 37.8954C80.3015 39.04 79.2642 39.8919 77.9343 39.8919Z" stroke="#747474"/>
<path fill-rule="evenodd" clip-rule="evenodd" d="M91.1263 33.5036C92.4562 33.5036 93.4935 34.3555 93.9721 35.5L97.483 33.6368C96.3394 31.3211 93.8924 29.7506 91.1263 29.7506C87.2165 29.7506 84.0513 32.6253 84.0513 36.6977C84.0513 40.7702 87.2165 43.6449 91.1263 43.6449C93.8924 43.6449 96.3394 42.0744 97.483 39.7587L93.9721 37.8955C93.4935 39.0402 92.4562 39.8919 91.1263 39.8919C89.4508 39.8919 88.0942 38.5877 88.0942 36.6977C88.0942 34.8078 89.4508 33.5036 91.1263 33.5036Z" fill="#747474"/>
<path fill-rule="evenodd" clip-rule="evenodd" d="M91.1263 33.5036C92.4562 33.5036 93.4935 34.3555 93.9721 35.5L97.483 33.6368C96.3394 31.3211 93.8924 29.7506 91.1263 29.7506C87.2165 29.7506 84.0513 32.6253 84.0513 36.6977C84.0513 40.7702 87.2165 43.6449 91.1263 43.6449C93.8924 43.6449 96.3394 42.0744 97.483 39.7587L93.9721 37.8955C93.4935 39.0402 92.4562 39.8919 91.1263 39.8919C89.4508 39.8919 88.0942 38.5877 88.0942 36.6977C88.0942 34.8078 89.4508 33.5036 91.1263 33.5036Z" stroke="#747474"/>
<path fill-rule="evenodd" clip-rule="evenodd" d="M100.036 23.7618C98.6797 23.7618 97.5361 24.8797 97.5361 26.2639C97.5361 27.648 98.6797 28.7658 100.036 28.7658C101.446 28.7658 102.563 27.648 102.563 26.2639C102.563 24.8797 101.446 23.7618 100.036 23.7618Z" fill="#747474"/>
<path fill-rule="evenodd" clip-rule="evenodd" d="M100.036 23.7618C98.6797 23.7618 97.5361 24.8797 97.5361 26.2639C97.5361 27.648 98.6797 28.7658 100.036 28.7658C101.446 28.7658 102.563 27.648 102.563 26.2639C102.563 24.8797 101.446 23.7618 100.036 23.7618Z" stroke="#747474"/>
<path fill-rule="evenodd" clip-rule="evenodd" d="M98.0414 43.3521H102.058V30.0435H98.0414V43.3521Z" fill="#747474"/>
<path fill-rule="evenodd" clip-rule="evenodd" d="M98.0414 43.3521H102.058V30.0435H98.0414V43.3521Z" stroke="#747474"/>
<path fill-rule="evenodd" clip-rule="evenodd" d="M109.93 39.8919C108.255 39.8919 106.978 38.5877 106.978 36.6977C106.978 34.8078 108.255 33.5036 109.93 33.5036C111.606 33.5036 112.882 34.8078 112.882 36.6977C112.882 38.5877 111.606 39.8919 109.93 39.8919ZM109.93 29.7506C106.1 29.7506 102.935 32.7849 102.935 36.6977C102.935 40.6105 106.1 43.6449 109.93 43.6449C113.76 43.6449 116.925 40.6105 116.925 36.6977C116.925 32.7849 113.76 29.7506 109.93 29.7506Z" fill="#747474"/>
<path fill-rule="evenodd" clip-rule="evenodd" d="M109.93 39.8919C108.255 39.8919 106.978 38.5877 106.978 36.6977C106.978 34.8079 108.255 33.5036 109.93 33.5036C111.606 33.5036 112.882 34.8079 112.882 36.6977C112.882 38.5877 111.606 39.8919 109.93 39.8919ZM109.93 29.7506C106.1 29.7506 102.935 32.7849 102.935 36.6977C102.935 40.6105 106.1 43.6449 109.93 43.6449C113.76 43.6449 116.925 40.6105 116.925 36.6977C116.925 32.7849 113.76 29.7506 109.93 29.7506Z" stroke="#747474"/>
<path fill-rule="evenodd" clip-rule="evenodd" d="M115.09 23.9215H110.489L108.361 28.5529H111.287L115.09 23.9215Z" fill="#747474"/>
<path fill-rule="evenodd" clip-rule="evenodd" d="M115.09 23.9215H110.489L108.361 28.5529H111.287L115.09 23.9215Z" stroke="#747474"/>
<path fill-rule="evenodd" clip-rule="evenodd" d="M125.276 29.7507C123.867 29.7507 122.643 30.2298 121.819 31.0017V30.0435H117.803V43.3521H121.819V34.6216C122.377 33.903 123.361 33.3973 124.399 33.3973C125.941 33.3973 126.659 34.675 126.659 36.4583V43.3521H130.676V35.7662C130.676 32.1729 128.734 29.7507 125.276 29.7507Z" fill="#747474"/>
<path fill-rule="evenodd" clip-rule="evenodd" d="M125.276 29.7507C123.867 29.7507 122.643 30.2298 121.819 31.0017V30.0435H117.803V43.3521H121.819V34.6216C122.377 33.903 123.361 33.3973 124.399 33.3973C125.941 33.3973 126.659 34.675 126.659 36.4583V43.3521H130.676V35.7662C130.676 32.1729 128.734 29.7507 125.276 29.7507Z" stroke="#747474"/>
<path fill-rule="evenodd" clip-rule="evenodd" d="M14.5024 10.489L13.1669 10.0079C11.1634 9.28593 10.2285 8.83159 10.2285 7.81573C10.2285 6.82666 11.3771 6.37198 12.5258 6.37198C13.728 6.37198 14.9298 6.88008 15.8115 7.94937L18.5896 5.00879C16.8264 3.1107 14.7697 2.38892 12.4724 2.38892C8.67909 2.38892 5.92766 4.55428 5.92766 8.24344C5.92766 10.8365 7.63739 12.6812 10.7093 13.7237L12.045 14.1782C13.9415 14.8198 14.6895 15.488 14.6895 16.4504C14.6895 17.3594 13.8079 18.0276 12.3922 18.0276C11.0031 18.0276 9.37356 17.2258 8.4654 15.8624L5.20642 18.6159C6.67568 20.7545 9.24002 22.0108 12.2319 22.0108C16.2389 22.0108 18.9903 19.605 19.0169 16.1563C19.0437 13.296 17.2538 11.4781 14.5024 10.489Z" fill="white"/>
<path fill-rule="evenodd" clip-rule="evenodd" d="M19.0169 16.1563C19.0437 13.296 17.2538 11.4781 14.5024 10.489L13.1669 10.0079C11.1634 9.28593 10.2285 8.83159 10.2285 7.81573C10.2285 6.82666 11.3771 6.37198 12.5258 6.37198C13.728 6.37198 14.9298 6.88008 15.8115 7.94937L18.5896 5.00879C16.8264 3.1107 14.7697 2.38892 12.4724 2.38892C8.67909 2.38892 5.92766 4.55428 5.92766 8.24344C5.92766 10.8365 7.63739 12.6812 10.7093 13.7237L12.045 14.1782C13.9415 14.8198 14.6895 15.488 14.6895 16.4504C14.6895 17.3594 13.8079 18.0276 12.3922 18.0276C11.0031 18.0276 9.37356 17.2258 8.4654 15.8624L5.20642 18.6159C6.67568 20.7545 9.24002 22.0108 12.2319 22.0108C16.2389 22.0108 18.9903 19.605 19.0169 16.1563Z" stroke="white"/>
<path fill-rule="evenodd" clip-rule="evenodd" d="M26.3627 11.6919C27.6181 11.6919 28.3394 12.2266 28.9003 12.9484V17.0387C28.3394 17.7871 27.6181 18.3218 26.3627 18.3218C24.5729 18.3218 23.3441 16.798 23.3441 15.0069C23.3441 13.2157 24.5729 11.6919 26.3627 11.6919ZM25.7484 21.9842C27.084 21.9842 28.2058 21.503 28.9003 20.8347V21.6901H32.9339V8.32362H28.9003V9.15242C28.2058 8.51068 27.084 8.02954 25.7484 8.02954C21.7948 8.02954 19.1769 11.291 19.1769 15.0069C19.1769 18.7227 21.7948 21.9842 25.7484 21.9842Z" fill="white"/>
<path fill-rule="evenodd" clip-rule="evenodd" d="M26.3627 11.6919C27.6181 11.6919 28.3394 12.2266 28.9003 12.9484V17.0387C28.3394 17.7871 27.6181 18.3218 26.3627 18.3218C24.5729 18.3218 23.3441 16.798 23.3441 15.0069C23.3441 13.2157 24.5729 11.6919 26.3627 11.6919ZM25.7484 21.9842C27.084 21.9842 28.2058 21.503 28.9003 20.8347V21.6901H32.9339V8.32362H28.9003V9.15242C28.2058 8.51068 27.084 8.02954 25.7484 8.02954C21.7948 8.02954 19.1769 11.291 19.1769 15.0069C19.1769 18.7227 21.7948 21.9842 25.7484 21.9842Z" stroke="white"/>
<path fill-rule="evenodd" clip-rule="evenodd" d="M34.6432 21.6901H38.6768V2.17505H34.6432V21.6901Z" fill="white"/>
<path fill-rule="evenodd" clip-rule="evenodd" d="M34.6432 21.6901H38.6768V2.17505H34.6432V21.6901Z" stroke="white"/>
<path fill-rule="evenodd" clip-rule="evenodd" d="M45.729 21.9842C46.7709 21.9842 47.9995 21.5565 48.8275 20.7811V21.6901H52.8613V8.32349H48.8275V17.0921C48.2132 17.8672 47.3048 18.3218 46.5838 18.3218C44.9274 18.3218 44.2597 17.0385 44.2597 15.2475V8.32349H40.2261V15.9425C40.2261 19.5514 42.176 21.9842 45.729 21.9842Z" fill="white"/>
<path fill-rule="evenodd" clip-rule="evenodd" d="M45.729 21.9842C46.7709 21.9842 47.9995 21.5565 48.8275 20.7811V21.6901H52.8613V8.32349H48.8275V17.0921C48.2132 17.8672 47.3048 18.3218 46.5838 18.3218C44.9274 18.3218 44.2597 17.0385 44.2597 15.2475V8.32349H40.2261V15.9425C40.2261 19.5514 42.176 21.9842 45.729 21.9842Z" stroke="white"/>
<path fill-rule="evenodd" clip-rule="evenodd" d="M60.9547 11.6919C62.2101 11.6919 62.9313 12.2267 63.4922 12.9485V17.0387C62.9313 17.7871 62.2101 18.3218 60.9547 18.3218C59.1648 18.3218 57.936 16.798 57.936 15.007C57.936 13.2157 59.1648 11.6919 60.9547 11.6919ZM60.3404 21.9842C61.6759 21.9842 62.7978 21.5031 63.4922 20.8347V21.6901H67.5258V2.17505H63.4922V9.15245C62.7978 8.51071 61.6759 8.02957 60.3404 8.02957C56.3867 8.02957 53.7689 11.291 53.7689 15.007C53.7689 18.7228 56.3867 21.9842 60.3404 21.9842Z" fill="white"/>
<path fill-rule="evenodd" clip-rule="evenodd" d="M60.9547 11.6919C62.2101 11.6919 62.9313 12.2267 63.4922 12.9485V17.0387C62.9313 17.7871 62.2101 18.3218 60.9547 18.3218C59.1648 18.3218 57.936 16.798 57.936 15.007C57.936 13.2157 59.1648 11.6919 60.9547 11.6919ZM60.3404 21.9842C61.6759 21.9842 62.7978 21.5031 63.4922 20.8347V21.6901H67.5258V2.17505H63.4922V9.15245C62.7978 8.51071 61.6759 8.02957 60.3404 8.02957C56.3867 8.02957 53.7689 11.291 53.7689 15.007C53.7689 18.7228 56.3867 21.9842 60.3404 21.9842Z" stroke="white"/>
<path fill-rule="evenodd" clip-rule="evenodd" d="M75.9129 9.10742C75.8329 9.43874 75.7869 9.77848 75.7763 10.1216C74.3215 10.3774 73.2124 11.6516 73.2124 13.18V22.195C73.2124 22.4675 72.9915 22.6886 72.7194 22.6886C72.4471 22.6886 72.2263 22.4675 72.2263 22.195V13.18C72.2263 13.0711 72.2307 12.9627 72.2391 12.8551C72.2733 12.4176 72.3767 11.992 72.548 11.5869C72.7539 11.0995 73.0486 10.6622 73.4241 10.2864C73.7993 9.91078 74.2366 9.61586 74.7236 9.40975C75.1044 9.24848 75.5028 9.14719 75.9129 9.10742Z" fill="white"/>
<path fill-rule="evenodd" clip-rule="evenodd" d="M72.2391 12.8551C72.2306 12.9628 72.2264 13.071 72.2264 13.18V12.967C72.2264 12.9287 72.2308 12.8912 72.2391 12.8551Z" fill="white"/>
<path fill-rule="evenodd" clip-rule="evenodd" d="M85.2204 10.299V15.366C85.2204 16.3957 84.3833 17.2333 83.3544 17.2333C82.3257 17.2333 81.4886 16.3957 81.4886 15.366V15.3606L81.4956 14.7251V12.4863C81.4956 12.388 81.4993 12.2905 81.5071 12.1937C81.5751 11.3343 81.9424 10.5351 82.5582 9.91865C82.8629 9.61379 83.2119 9.36977 83.5912 9.19315C83.7117 9.51369 83.7798 9.85545 83.7877 10.2055C83.0067 10.6657 82.4814 11.5159 82.4814 12.4863V14.7276V14.7332L82.4745 15.3685C82.4759 15.8529 82.8701 16.2467 83.3544 16.2467C83.8397 16.2467 84.2344 15.8515 84.2344 15.366V10.299C84.2344 8.35036 82.6505 6.7654 80.7037 6.7654C78.7567 6.7654 77.1729 8.35036 77.1729 10.299V20.0896C77.1729 20.7013 77.67 21.1988 78.2813 21.1988C78.8976 21.1988 79.4183 20.6924 79.4183 20.0928V13.1801C79.4183 11.9462 78.6955 10.8782 77.6516 10.3777V10.2751C77.6516 9.96213 77.6998 9.65491 77.7909 9.36269C77.8298 9.37769 77.8685 9.39353 77.9071 9.40987C78.3941 9.61581 78.8314 9.91073 79.2068 10.2865C79.5821 10.6622 79.8768 11.0997 80.0828 11.587C80.2751 12.0421 80.382 12.5225 80.4012 13.0173C80.4034 13.0712 80.4043 13.1255 80.4043 13.1801V20.0928C80.4043 20.6533 80.1796 21.1808 79.7718 21.5782C79.3695 21.9698 78.84 22.1855 78.2813 22.1855C77.1264 22.1855 76.1868 21.2453 76.1868 20.0896V10.299C76.1868 9.68878 76.3062 9.09693 76.5421 8.53928C76.7694 8.00084 77.0951 7.51752 77.5099 7.10261C77.9245 6.68754 78.4074 6.36195 78.9453 6.1341C79.5025 5.89834 80.0941 5.77869 80.7037 5.77869C81.3133 5.77869 81.9047 5.89834 82.4619 6.1341C82.9998 6.36195 83.4829 6.68754 83.8975 7.10261C84.3121 7.51752 84.6376 8.00084 84.8653 8.53928C85.101 9.09693 85.2204 9.68878 85.2204 10.299Z" fill="white"/>
<path fill-rule="evenodd" clip-rule="evenodd" d="M88.7491 12.3373C88.7124 11.4233 88.3396 10.5694 87.6896 9.91852C87.0852 9.31368 86.3047 8.94849 85.4639 8.87097C85.5619 9.20381 85.6249 9.54692 85.6515 9.89492C86.8567 10.1401 87.7664 11.2089 87.7664 12.4863V12.4873V20.5253C87.7664 20.7978 87.9871 21.0187 88.2594 21.0187C88.5315 21.0187 88.7525 20.7978 88.7525 20.5253V12.3935C88.7525 12.3746 88.7511 12.3557 88.7491 12.3373Z" fill="white"/>
<path fill-rule="evenodd" clip-rule="evenodd" d="M81.5071 12.1937C81.4994 12.2905 81.4957 12.388 81.4957 12.4863V12.3007C81.4957 12.264 81.4997 12.2281 81.5071 12.1937Z" fill="white"/>
<path fill-rule="evenodd" clip-rule="evenodd" d="M80.4044 13.0735V13.18C80.4044 13.1256 80.4033 13.0711 80.4011 13.0172C80.4033 13.0356 80.4044 13.0546 80.4044 13.0735Z" fill="white"/>
<path fill-rule="evenodd" clip-rule="evenodd" d="M75.774 4.94752C75.2997 4.94752 74.9137 5.33378 74.9137 5.80835C74.9137 6.28325 75.2997 6.6695 75.774 6.6695C76.2482 6.6695 76.6342 6.28325 76.6342 5.80835C76.6342 5.33378 76.2482 4.94752 75.774 4.94752ZM75.774 7.65604C74.7559 7.65604 73.9277 6.82724 73.9277 5.80835C73.9277 4.78962 74.7559 3.96082 75.774 3.96082C76.792 3.96082 77.6203 4.78962 77.6203 5.80835C77.6203 6.82724 76.792 7.65604 75.774 7.65604Z" fill="white"/>
<path fill-rule="evenodd" clip-rule="evenodd" d="M80.7036 2.23878C80.2292 2.23878 79.8433 2.62504 79.8433 3.0996C79.8433 3.57451 80.2292 3.96076 80.7036 3.96076C81.178 3.96076 81.5638 3.57451 81.5638 3.0996C81.5638 2.62504 81.178 2.23878 80.7036 2.23878ZM80.7036 4.94747C79.6855 4.94747 78.8573 4.1185 78.8573 3.0996C78.8573 2.08088 79.6855 1.25208 80.7036 1.25208C81.7217 1.25208 82.5499 2.08088 82.5499 3.0996C82.5499 4.1185 81.7217 4.94747 80.7036 4.94747Z" fill="white"/>
<path fill-rule="evenodd" clip-rule="evenodd" d="M85.9907 5.98927C85.6596 5.98927 85.3903 6.25874 85.3903 6.58989C85.3903 6.92121 85.6596 7.19068 85.9907 7.19068C86.3216 7.19068 86.5908 6.92121 86.5908 6.58989C86.5908 6.25874 86.3216 5.98927 85.9907 5.98927ZM85.9907 8.17739C85.116 8.17739 84.4044 7.46537 84.4044 6.58989C84.4044 5.71458 85.116 5.00256 85.9907 5.00256C86.8651 5.00256 87.577 5.71458 87.577 6.58989C87.577 7.46537 86.8651 8.17739 85.9907 8.17739Z" fill="white"/>
</g>
<defs>
<clipPath id="clip0_2_219">
<rect width="131" height="49" fill="white"/>
</clipPath>
</defs>
</svg>
