<svg width="90" height="90" viewBox="0 0 90 90" fill="none" xmlns="http://www.w3.org/2000/svg">
<path d="M77.4141 36.5625L70.3828 24.3633C69.5461 22.9322 68.3627 21.7347 66.9416 20.8811C65.5206 20.0275 63.9076 19.5452 62.2512 19.4786C60.5948 19.4121 58.9483 19.7635 57.4633 20.5004C55.9784 21.2372 54.7027 22.336 53.7539 23.6953L47.6719 13.1484C46.3628 10.8867 44.2109 9.23569 41.6873 8.55702C39.1637 7.87834 36.474 8.22725 34.207 9.52734C32.7957 10.3605 31.6028 11.5173 30.7266 12.9023C29.5704 11.866 28.1848 11.119 26.6836 10.7227C25.4392 10.3747 24.1372 10.2825 22.8563 10.4517C21.5753 10.6209 20.3418 11.0479 19.2305 11.707C18.1083 12.3485 17.124 13.2055 16.3341 14.2286C15.5442 15.2518 14.9643 16.421 14.6278 17.669C14.2913 18.917 14.2048 20.2193 14.3732 21.5008C14.5417 22.7824 14.9618 24.0181 15.6094 25.1367L16.8047 27.1758C15.3434 27.3005 13.9272 27.7446 12.6563 28.4766C10.4099 29.7913 8.77321 31.9394 8.10175 34.454C7.43029 36.9687 7.77836 39.6468 9.07033 41.9062L23.836 67.5C25.8354 71.0791 28.5263 74.2251 31.7522 76.7551C34.9782 79.2852 38.6748 81.1488 42.6272 82.2377C46.5797 83.3267 50.7092 83.6192 54.7757 83.0982C58.8422 82.5773 62.7645 81.2533 66.3149 79.2033C69.8652 77.1532 72.9727 74.4179 75.4567 71.1564C77.9407 67.8949 79.7517 64.1722 80.7844 60.2047C81.8172 56.2372 82.051 52.104 81.4724 48.0453C80.8938 43.9866 79.5143 40.0834 77.4141 36.5625ZM75.0586 58.5703C74.2138 61.7848 72.7373 64.7988 70.7152 67.4365C68.6931 70.0743 66.166 72.2829 63.2813 73.9336C57.466 77.2875 50.5578 78.1976 44.0724 76.4641C37.587 74.7308 32.054 70.4954 28.6875 64.6875L13.9219 39.0937C13.3624 38.1241 13.2111 36.9718 13.5012 35.8906C13.7913 34.8093 14.4991 33.8876 15.4688 33.3281C16.4385 32.7687 17.5907 32.6174 18.6719 32.9075C19.7532 33.1976 20.6749 33.9053 21.2344 34.875L28.9688 48.2695L29.1797 48.5859V48.6562L29.3555 48.832L29.4258 48.9023L29.6719 49.1133H29.707L29.9531 49.2891H30.0586L30.2695 49.3945H30.3399L30.6563 49.5H30.6914L30.9727 49.5703H31.7461L32.0625 49.5H32.168L32.3789 49.4297H32.4844L32.8008 49.2891C33.4448 48.9078 33.9129 48.2883 34.1037 47.5646C34.2945 46.8408 34.1927 46.0711 33.8203 45.4219L26.086 32.0273L20.461 22.2891C19.9019 21.3207 19.7502 20.17 20.0391 19.0898C20.1786 18.552 20.4248 18.0477 20.763 17.6069C21.1012 17.166 21.5245 16.7976 22.0078 16.5234C22.9762 15.9644 24.1269 15.8127 25.207 16.1016C26.2817 16.4077 27.1994 17.1116 27.7735 18.0703L30.586 22.9922H30.6211L39.7617 38.8125C39.8974 39.0641 40.0758 39.2901 40.2891 39.4805C40.7859 39.9256 41.4247 40.1797 42.0915 40.1973C42.7583 40.2149 43.4097 39.995 43.9294 39.5768C44.449 39.1585 44.8031 38.5692 44.9283 37.914C45.0536 37.2588 44.942 36.5805 44.6133 36L35.4727 20.1797C35.1957 19.6995 35.0159 19.1695 34.9438 18.6199C34.8716 18.0703 34.9084 17.5119 35.052 16.9765C35.1956 16.4411 35.4433 15.9393 35.7809 15.4996C36.1185 15.0599 36.5394 14.6911 37.0195 14.4141C37.4997 14.1371 38.0297 13.9573 38.5793 13.8852C39.1289 13.813 39.6873 13.8498 40.2227 13.9934C40.7581 14.137 41.26 14.3847 41.6996 14.7223C42.1393 15.0599 42.5082 15.4808 42.7852 15.9609L53.332 34.207L55.5469 38.0742C52.4832 40.6239 50.4185 44.1739 49.7174 48.0976C49.0163 52.0213 49.7237 56.0666 51.7149 59.5195C52.1166 60.1024 52.7234 60.5123 53.4141 60.6675C54.1048 60.8226 54.8286 60.7116 55.4411 60.3565C56.0535 60.0015 56.5096 59.4286 56.7182 58.7521C56.9268 58.0756 56.8726 57.3453 56.5664 56.707C55.0756 54.124 54.6715 51.0548 55.4428 48.1739C56.2141 45.2931 58.0977 42.8363 60.6797 41.3438L60.9258 41.2031L61.1016 41.0625H61.1367L61.3477 40.8516L61.5234 40.6758L61.6641 40.5L61.7695 40.2891H61.8047L61.875 40.1133V40.043C61.9141 39.9662 61.938 39.8827 61.9453 39.7969H61.9805C61.9805 39.7266 62.0156 39.6562 62.0156 39.5859C62.0156 39.5156 62.0156 39.5156 62.0508 39.5156V38.7773C62.032 38.694 62.0086 38.6119 61.9805 38.5312C61.9731 38.4455 61.9492 38.3619 61.9102 38.2852V38.2148C61.9102 38.1445 61.875 38.1094 61.8399 38.0391L61.7344 37.793L58.2188 31.6758C57.8117 30.9537 57.6264 30.1278 57.6859 29.301C57.7454 28.4743 58.0471 27.6834 58.5534 27.0271C59.0597 26.3708 59.7481 25.8782 60.5326 25.6108C61.3172 25.3434 62.1631 25.313 62.9649 25.5234C63.4934 25.6631 63.9891 25.9058 64.4235 26.2376C64.8579 26.5694 65.2224 26.9839 65.4961 27.457L72.5274 39.6563C74.1709 42.4882 75.2403 45.6161 75.6747 48.8615C76.109 52.1068 75.8996 55.4059 75.0586 58.5703ZM30.832 85.9922C30.5666 86.3599 30.2181 86.6598 29.8149 86.8675C29.4117 87.0752 28.9653 87.1848 28.5117 87.1875C27.9368 87.1805 27.3758 87.0098 26.8945 86.6953C21.7811 83.1622 17.5278 78.5243 14.4492 73.125C14.2291 72.8057 14.0774 72.4443 14.0037 72.0635C13.93 71.6827 13.9358 71.2908 14.0208 70.9124C14.1058 70.534 14.2681 70.1772 14.4976 69.8646C14.7271 69.5519 15.0188 69.2901 15.3543 69.0956C15.6899 68.9011 16.062 68.7781 16.4474 68.7343C16.8328 68.6905 17.223 68.7269 17.5936 68.8412C17.9643 68.9555 18.3072 69.1452 18.601 69.3984C18.8948 69.6516 19.1331 69.9628 19.3008 70.3125C21.9873 74.9866 25.6874 78.999 30.1289 82.0547C30.7401 82.4869 31.1566 83.1423 31.2882 83.8792C31.4197 84.6161 31.2559 85.3752 30.832 85.9922ZM59.0625 10.8984C59.0625 10.1525 59.3588 9.43715 59.8863 8.9097C60.4137 8.38225 61.1291 8.08594 61.875 8.08594C65.5786 8.09067 69.2161 9.0672 72.4241 10.918C75.6321 12.7687 78.2983 15.429 80.1563 18.6328C80.3431 18.9526 80.4641 19.3064 80.5121 19.6736C80.5602 20.0408 80.5343 20.4139 80.436 20.771C80.3378 21.128 80.1691 21.4618 79.9399 21.7527C79.7107 22.0436 79.4257 22.2857 79.1016 22.4648C78.6818 22.7309 78.1921 22.8655 77.6953 22.8516C77.2033 22.8498 76.7204 22.719 76.2947 22.4723C75.869 22.2255 75.5155 21.8714 75.2695 21.4453C73.912 19.094 71.9596 17.1415 69.6084 15.7838C67.2572 14.4262 64.59 13.7113 61.875 13.7109C61.1291 13.7109 60.4137 13.4146 59.8863 12.8872C59.3588 12.3597 59.0625 11.6444 59.0625 10.8984Z" fill="#209CD4"/>
</svg>
