<svg width="83" height="80" viewBox="0 0 83 80" fill="none" xmlns="http://www.w3.org/2000/svg">
<path d="M58.9038 69.2354H25.0545C22.8193 69.2354 21 67.4083 21 65.1629V22.5876C21 20.3417 22.8193 18.5146 25.0545 18.5146H31.9301V22.7722H52.0282V18.5146H58.9038C61.1391 18.5151 62.9583 20.3422 62.9583 22.5876V65.1629C62.9583 67.4083 61.1391 69.2354 58.9038 69.2354ZM25.0545 20.9833C24.1796 20.9833 23.4681 21.703 23.4681 22.5876V65.1629C23.4681 66.048 24.1797 66.7672 25.0545 66.7672H58.9038C59.7792 66.7672 60.4907 66.048 60.4907 65.1629V22.5876C60.4907 21.703 59.7792 20.9828 58.9043 20.9828H54.4968V25.2403L29.4625 25.2408V20.9833L25.0545 20.9833Z" fill="#209CD4"/>
<path d="M54.497 25.2405H29.4626V18.4999C29.4626 16.161 31.3576 14.2573 33.6869 14.2573H38.9827V15.4914C38.9827 17.1579 40.3273 18.5144 41.9797 18.5144C43.6327 18.5144 44.9766 17.1579 44.9766 15.4914V14.2573H50.2725C52.6013 14.2573 54.4967 16.161 54.4967 18.4999L54.497 25.2405ZM31.9308 22.7724H52.0288V18.4999C52.0288 17.5213 51.2411 16.7255 50.2727 16.7255H47.3062C46.7475 19.1608 44.572 20.9825 41.9799 20.9825C39.3884 20.9825 37.2124 19.1608 36.6537 16.7255H33.6866C32.7182 16.7255 31.9305 17.5213 31.9305 18.4999L31.9308 22.7724Z" fill="#209CD4"/>
<path d="M41.9797 20.9832C38.9664 20.9832 36.5146 18.5199 36.5146 15.4921C36.5146 12.4638 38.9664 10 41.9797 10C44.9931 10 47.4448 12.4638 47.4448 15.4916C47.4448 18.5199 44.9931 20.9832 41.9797 20.9832ZM41.9797 12.4681C40.3267 12.4681 38.9828 13.8246 38.9828 15.4916C38.9828 17.1581 40.3273 18.5146 41.9797 18.5146C43.6328 18.5146 44.9767 17.1581 44.9767 15.4916C44.9767 13.8246 43.6326 12.4681 41.9797 12.4681Z" fill="#209CD4"/>
<path d="M41.9797 39.6175C41.298 39.6175 40.7456 39.0651 40.7456 38.3835V28.5109C40.7456 27.8293 41.298 27.2769 41.9797 27.2769C42.6613 27.2769 43.2137 27.8293 43.2137 28.5109V38.3835C43.2137 39.0651 42.6613 39.6175 41.9797 39.6175Z" fill="#209CD4"/>
<path d="M46.9162 34.6815H37.0436C36.362 34.6815 35.8096 34.1291 35.8096 33.4474C35.8096 32.7658 36.362 32.2134 37.0436 32.2134H46.9162C47.5978 32.2134 48.1503 32.7658 48.1503 33.4474C48.1503 34.1291 47.5978 34.6815 46.9162 34.6815Z" fill="#209CD4"/>
<path d="M56.7887 48.2562H27.1711C26.4895 48.2562 25.937 47.7038 25.937 47.0222C25.937 46.3405 26.4895 45.7881 27.1711 45.7881H56.7887C57.4704 45.7881 58.0228 46.3405 58.0228 47.0222C58.0228 47.7038 57.4699 48.2562 56.7887 48.2562Z" fill="#209CD4"/>
<path d="M56.7887 55.6605H27.1711C26.4895 55.6605 25.937 55.1081 25.937 54.4265C25.937 53.7448 26.4895 53.1924 27.1711 53.1924H56.7887C57.4704 53.1924 58.0228 53.7448 58.0228 54.4265C58.0228 55.1081 57.4699 55.6605 56.7887 55.6605Z" fill="#209CD4"/>
<path d="M56.7887 63.0648H27.1711C26.4895 63.0648 25.937 62.5124 25.937 61.8307C25.937 61.1491 26.4895 60.5967 27.1711 60.5967H56.7887C57.4704 60.5967 58.0228 61.1491 58.0228 61.8307C58.0228 62.5124 57.4699 63.0648 56.7887 63.0648Z" fill="#209CD4"/>
</svg>
