<svg width="36" height="36" viewBox="0 0 36 36" fill="none" xmlns="http://www.w3.org/2000/svg">
<g clip-path="url(#clip0_746_13129)">
<path d="M35 25.4L27.1 22C26.4 21.7 25.6 21.9 25.1 22.5L21.6 26.8C16.1 24.2 11.7 19.8 9.1 14.3L13.4 10.8C14 10.3 14.2 9.50001 13.9 8.80001L10.6 1.00001C10.3 0.300006 9.5 -0.199994 8.7 5.78165e-06L1.3 1.70001C0.5 1.90001 0 2.60001 0 3.40001C0 21.4 14.6 36 32.6 36C33.4 36 34.1 35.5 34.2 34.7L35.9 27.4C36.1 26.6 35.7 25.8 35 25.4Z" fill="#F5BE0B"/>
</g>
<defs>
<clipPath id="clip0_746_13129">
<rect width="36" height="36" fill="white"/>
</clipPath>
</defs>
</svg>
