<svg width="83" height="80" viewBox="0 0 83 80" fill="none" xmlns="http://www.w3.org/2000/svg">
<path d="M52.0238 42.7541C42.9816 42.7541 35.626 35.5458 35.626 26.687H38.1698C38.1698 34.1442 44.3849 40.2102 52.0238 40.2102C59.6629 40.2102 65.8777 34.1437 65.8777 26.687H68.4215C68.4215 35.5463 61.0657 42.7541 52.0238 42.7541V42.7541Z" fill="#209CD4"/>
<path d="M68.4215 26.687H65.8777V16.599C65.8777 15.817 65.2144 15.1811 64.3996 15.1811H60.2742V12.6372H64.3996C66.6176 12.6377 68.4215 14.415 68.4215 16.599V26.687Z" fill="#209CD4"/>
<path d="M36.8978 71.0002C27.8556 71.0002 20.5 63.7919 20.5 54.9331H23.0439C23.0439 62.3903 29.2589 68.4563 36.8978 68.4563C44.5369 68.4563 50.7517 62.3898 50.7517 54.9331H53.2956C53.2951 63.7924 45.9392 71.0002 36.8978 71.0002V71.0002Z" fill="#209CD4"/>
<path d="M50.7517 42.1553H53.2956V54.9331H50.7517V42.1553Z" fill="#209CD4"/>
<path d="M20.5 44.8452H23.0439V54.9332H20.5V44.8452Z" fill="#209CD4"/>
<path d="M38.1698 26.687H35.626V16.599C35.626 14.4149 37.4301 12.6372 39.648 12.6372H43.7734V15.1811L39.648 15.1816C38.8331 15.1816 38.1698 15.8175 38.1698 16.5995V26.687Z" fill="#209CD4"/>
<path d="M44.2548 17.7504C43.5523 17.7504 42.9829 17.181 42.9829 16.4785V11.2719C42.9829 10.5694 43.5523 10 44.2548 10C44.9574 10 45.5268 10.5694 45.5268 11.2719V16.4785C45.5268 17.181 44.9574 17.7504 44.2548 17.7504Z" fill="#209CD4"/>
<path d="M59.518 17.7505C58.8155 17.7505 58.2461 17.1811 58.2461 16.4786V11.3784C58.2461 10.6758 58.8155 10.1064 59.518 10.1064C60.2206 10.1064 60.79 10.6758 60.79 11.3784V16.4786C60.79 17.1811 60.2206 17.7505 59.518 17.7505Z" fill="#209CD4"/>
<path d="M21.772 46.1172C18.0383 46.1172 15 43.1331 15 39.4653C15 35.7971 18.0383 32.813 21.772 32.813C25.5063 32.813 28.5446 35.7971 28.5446 39.4653C28.5446 43.1331 25.5063 46.1172 21.772 46.1172V46.1172ZM21.772 35.3569C19.4403 35.3569 17.5439 37.1996 17.5439 39.4653C17.5439 41.731 19.4403 43.5738 21.772 43.5738C24.1037 43.5738 26.0007 41.731 26.0007 39.4653C26.0007 37.1996 24.1037 35.3569 21.772 35.3569Z" fill="#209CD4"/>
</svg>
