<svg width="83" height="80" viewBox="0 0 83 80" fill="none" xmlns="http://www.w3.org/2000/svg">
<path fill-rule="evenodd" clip-rule="evenodd" d="M53.4806 65.2819H35.2647V57.3881C35.2647 56.9136 34.8822 56.5287 34.4103 56.5283H28.5142C27.4508 56.5267 26.4311 56.1014 25.6792 55.3455C24.9273 54.5896 24.5041 53.5645 24.5026 52.4954V45.1042C24.5018 44.7986 24.3398 44.5168 24.0772 44.363L19.0072 41.369L24.3906 31.6704C24.4478 31.5682 24.4829 31.4552 24.4947 31.3387C25.5463 20.9221 34.6848 13.36 45.753 13.7395C55.7766 14.0848 61.5988 21.399 62.9222 28.4932C64.3331 36.0537 61.4542 40.8237 58.4074 45.8732C55.234 51.133 51.9566 56.5669 53.4841 65.2827L53.4806 65.2819ZM64.6044 28.1758C63.1546 20.4077 56.7818 12.4002 45.8121 12.0207C40.2429 11.7848 34.7751 13.5722 30.4094 17.0565C28.2932 18.7606 26.5326 20.8682 25.2291 23.2584C23.9259 25.6487 23.1054 28.2745 22.8148 30.9846L17.1092 41.2622C16.8817 41.6705 17.0209 42.1866 17.4219 42.4232L22.7915 45.5956V52.4944C22.7935 54.0197 23.3968 55.482 24.4697 56.5601C25.5426 57.6387 26.9971 58.2456 28.514 58.2472H33.5551V66.1418C33.5559 66.6163 33.9388 67 34.4108 67H54.5184C54.7766 67 55.0207 66.8831 55.1832 66.6813C55.3456 66.4795 55.4083 66.2147 55.3543 65.961C53.5137 57.2962 56.6014 52.1795 59.8698 46.7636C62.9501 41.6596 66.1345 36.3825 64.6035 28.1751L64.6044 28.1758ZM50.84 34.1594V29.8142H46.6679C46.4412 29.8142 46.2235 29.7238 46.0634 29.5625C45.9029 29.4011 45.813 29.1827 45.8134 28.9544V24.7609H41.4911V28.9544C41.4911 29.1827 41.4008 29.4011 41.2407 29.5625C41.0802 29.7238 40.8626 29.8142 40.6359 29.8142H36.4637V34.1594H40.6359C41.1078 34.1598 41.4903 34.5447 41.4903 35.0192V39.2126H45.8126V35.0192C45.8126 34.7913 45.9025 34.5725 46.0626 34.4111C46.2231 34.2502 46.4404 34.1594 46.6671 34.1594H50.84ZM47.5224 28.0953V23.9019C47.5228 23.674 47.4329 23.4552 47.2724 23.2938C47.1123 23.1325 46.8946 23.0421 46.6679 23.0421H40.6358C40.4091 23.0417 40.1914 23.1325 40.031 23.2938C39.8705 23.4548 39.7806 23.6736 39.7806 23.9019V28.0953H35.6097C35.3829 28.0953 35.1657 28.1857 35.0052 28.3467C34.8447 28.508 34.7544 28.7264 34.7544 28.9543V35.0192C34.7544 35.2471 34.8447 35.4656 35.0052 35.6269C35.1657 35.7878 35.3829 35.8786 35.6097 35.8782H39.781V40.0725C39.781 40.3004 39.8713 40.5188 40.0318 40.6801C40.1918 40.8411 40.4091 40.9314 40.6358 40.9314H46.6671C46.8938 40.9318 47.1115 40.8415 47.2716 40.6801C47.432 40.5192 47.522 40.3004 47.522 40.0725V35.8782H51.698C52.1688 35.8766 52.5493 35.4925 52.5493 35.0192V28.9544C52.5493 28.4814 52.1688 28.097 51.698 28.0954L47.5224 28.0953ZM43.6519 44.0313C46.8295 44.0313 49.8771 42.7624 52.1239 40.5038C54.3711 38.2451 55.6332 35.1814 55.6332 31.9868C55.6332 28.7926 54.3711 25.7289 52.1239 23.4702C49.8771 21.2112 46.8296 19.9423 43.6519 19.9427C40.4742 19.9427 37.427 21.212 35.1802 23.471C32.9335 25.7301 31.6713 28.7938 31.6717 31.988C31.6752 35.1814 32.9386 38.2427 35.1846 40.5006C37.4305 42.7585 40.4757 44.0277 43.6519 44.0313ZM43.6519 18.2257C40.0211 18.2253 36.539 19.6753 33.9713 22.2563C31.404 24.8368 29.9616 28.3374 29.9612 31.9874C29.9612 35.6378 31.4032 39.1384 33.9705 41.7192C36.5379 44.3006 40.02 45.7506 43.6506 45.7506C47.2814 45.751 50.7635 44.301 53.3312 41.7201C55.8985 39.1391 57.3409 35.6389 57.3413 31.9886C57.3373 28.3398 55.8938 24.8416 53.3276 22.2615C50.7611 19.6814 47.2814 18.2298 43.6519 18.2257Z" fill="#209CD4" stroke="#209CD4" stroke-width="0.5"/>
</svg>
