<svg width="83" height="80" viewBox="0 0 83 80" fill="none" xmlns="http://www.w3.org/2000/svg">
<path d="M52.5648 66.98C50.4449 66.98 48.0819 66.5548 45.5369 65.6996C39.4837 63.7002 32.9924 59.4522 27.2655 53.7421C15.1033 41.5788 10.5178 27.1103 16.826 20.801L23.7248 13.9026C24.9266 12.6991 26.8834 12.6991 28.0874 13.9026L37.9066 23.7219C38.4891 24.3039 38.8102 25.0791 38.8102 25.904C38.8102 26.7276 38.4891 27.5029 37.9066 28.0849L32.4051 33.5864C30.8221 35.1699 32.1402 40.017 36.5642 44.441C38.6234 46.5142 41.0428 48.1086 43.2052 48.8194C45.0992 49.4554 46.6335 49.3728 47.4242 48.5945L52.92 43.0987C54.1218 41.8952 56.0786 41.8952 57.2826 43.0987L67.1018 52.9179C67.6842 53.4999 68.0053 54.2752 68.0053 55.1001C68.0053 55.9236 67.6842 56.6989 67.1018 57.281L60.203 64.1805C58.3327 66.0385 55.7179 66.9794 52.565 66.9794L52.5648 66.98ZM25.906 15.2492C25.6917 15.2492 25.4778 15.3304 25.3148 15.493L18.416 22.3913C13.1803 27.6284 17.961 41.2564 28.8546 52.1513C34.3377 57.6176 40.5153 61.6719 46.2478 63.5668C51.7344 65.4104 56.1255 65.0637 58.6146 62.5882L65.5112 55.6907C65.6693 55.5326 65.7558 55.3231 65.7558 55.1C65.7558 54.8759 65.6693 54.666 65.5112 54.5079L55.6919 44.6886C55.3656 44.3636 54.8354 44.3636 54.5094 44.6886L49.0079 50.1902C47.5668 51.6111 45.255 51.8803 42.4957 50.9544C39.9779 50.1265 37.3025 48.3769 34.971 46.0296C29.8732 40.93 28.0459 34.7648 30.8145 31.9964L36.316 26.4948C36.4741 26.3367 36.5607 26.1272 36.5607 25.904C36.5607 25.68 36.4741 25.4701 36.316 25.312L26.4967 15.4927C26.3334 15.3311 26.1194 15.2498 25.9051 15.2498L25.906 15.2492Z" fill="#209CD4"/>
<path d="M47.7915 48.2283L49.3816 46.6382L63.5633 60.8199L61.9732 62.41L47.7915 48.2283Z" fill="#209CD4"/>
<path d="M18.5959 19.0325L20.186 17.4424L34.3677 31.6241L32.7776 33.2142L18.5959 19.0325Z" fill="#209CD4"/>
<path d="M52.2602 32.1152C51.6391 32.1152 51.1357 31.6123 51.1357 30.9908V21.9951C51.1357 21.3735 51.6391 20.8706 52.2602 20.8706C52.8813 20.8706 53.3847 21.3735 53.3847 21.9951V30.9908C53.3847 31.6123 52.8808 32.1152 52.2602 32.1152Z" fill="#209CD4"/>
<path d="M56.7581 27.6171H47.7624C47.1413 27.6171 46.6379 27.1141 46.6379 26.4926C46.6379 25.8711 47.1413 25.3682 47.7624 25.3682H56.7581C57.3792 25.3682 57.8825 25.8711 57.8825 26.4926C57.8825 27.1141 57.3787 27.6171 56.7581 27.6171Z" fill="#209CD4"/>
<path d="M52.26 36.6129C46.6799 36.6129 42.1399 32.0733 42.1399 26.4927C42.1399 20.9121 46.6799 16.3726 52.26 16.3726C57.8402 16.3726 62.3802 20.9121 62.3802 26.4927C62.3802 32.0733 57.8397 36.6129 52.26 36.6129ZM52.26 18.6215C47.9198 18.6215 44.3888 22.153 44.3888 26.4927C44.3888 30.8325 47.9198 34.3639 52.26 34.3639C56.6002 34.3639 60.1313 30.8325 60.1313 26.4927C60.1313 22.153 56.6002 18.6215 52.26 18.6215Z" fill="#209CD4"/>
</svg>
