<svg width="1013" height="35" viewBox="0 0 1013 35" fill="none" xmlns="http://www.w3.org/2000/svg">
<path d="M29.5858 19.8338C30.0238 19.8338 30.3992 19.5707 30.5243 19.11L33.4023 11.6085L38.6576 33.718C38.7827 34.2445 39.1581 34.5077 39.6586 34.5735C40.0966 34.5077 40.5346 34.1787 40.5971 33.718L45.7273 6.6734L48.6679 18.9784C48.793 19.439 49.2309 19.8338 49.6063 19.8338H1012.09C1012.41 19.8338 1012.59 19.5708 1012.59 19.3075V18.2547C1012.59 17.9256 1012.41 17.7282 1012.09 17.7282L50.4197 17.7282L46.6033 1.67244C46.4782 1.14602 46.1028 0.882813 45.6022 0.882813C45.1643 0.882812 44.7263 1.21182 44.6638 1.67244L39.5335 28.7171L34.591 7.98944C34.4659 7.52883 34.0905 7.19982 33.715 7.19982C33.2145 7.13402 32.8392 7.39723 32.714 7.85784L28.9602 17.7282H0.500513C0.250257 17.7282 1.14864e-07 17.9255 8.75118e-08 18.2546L0 19.3074C-2.18713e-08 19.5707 0.250256 19.8338 0.500512 19.8338H29.5858Z" fill="white"/>
</svg>
