<svg width="481" height="36" viewBox="0 0 481 36" fill="none" xmlns="http://www.w3.org/2000/svg">
<g clip-path="url(#clip0_68_10644)">
<path d="M21.6305 20.25C21.9507 20.25 22.2252 19.9688 22.3166 19.4766L24.4207 11.4609L28.263 35.0859C28.3544 35.6484 28.6289 35.9297 28.9948 36C29.315 35.9297 29.6352 35.5781 29.6809 35.0859L33.4317 6.1875L35.5815 19.3359C35.673 19.8281 35.9932 20.25 36.2677 20.25H739.951C740.179 20.25 740.316 19.9689 740.316 19.6876V18.5626C740.316 18.211 740.179 18.0001 739.951 18.0001L36.8623 18L34.0721 0.84375C33.9806 0.28125 33.7062 4.92e-08 33.3402 0C33.02 -4.3e-08 32.6998 0.351562 32.6541 0.84375L28.9033 29.7422L25.2898 7.59375C25.1983 7.10156 24.9239 6.75 24.6494 6.75C24.2835 6.67969 24.0091 6.96094 23.9175 7.45312L21.1731 18H0.36593C0.182965 18 8.39784e-08 18.2109 6.39807e-08 18.5625L0 19.6875C-1.59903e-08 19.9688 0.182964 20.25 0.365929 20.25H21.6305Z" fill="#003DA5" fill-opacity="0.5"/>
</g>
<defs>
<clipPath id="clip0_68_10644">
<rect width="481" height="36" fill="white"/>
</clipPath>
</defs>
</svg>
