<svg width="45" height="33" viewBox="0 0 45 33" fill="none" xmlns="http://www.w3.org/2000/svg">
<path d="M33.75 16.5C30.0234 16.5 27 13.4766 27 9.75C27 6.02344 30.0234 3 33.75 3C37.4766 3 40.5 6.02344 40.5 9.75C40.5 13.4766 37.4766 16.5 33.75 16.5ZM33.75 5.25C31.2188 5.25 29.25 7.28906 29.25 9.75C29.25 12.2812 31.2188 14.25 33.75 14.25C36.2109 14.25 38.25 12.2812 38.25 9.75C38.25 7.28906 36.2109 5.25 33.75 5.25ZM13.5 16.5C9.14062 16.5 5.625 12.9844 5.625 8.625C5.625 4.33594 9.14062 0.75 13.5 0.75C17.7891 0.75 21.375 4.33594 21.375 8.625C21.375 12.9844 17.7891 16.5 13.5 16.5ZM13.5 3C10.3359 3 7.875 5.53125 7.875 8.625C7.875 11.7891 10.3359 14.25 13.5 14.25C16.5938 14.25 19.125 11.7891 19.125 8.625C19.125 5.53125 16.5938 3 13.5 3ZM19.125 17.9062C21.6562 17.9062 24.1172 19.1016 25.5938 21.2109C26.4375 22.5469 27 24.0938 27 25.7812V28.875C27 30.7734 25.4531 32.25 23.625 32.25H3.375C1.47656 32.25 0 30.7734 0 28.875V25.7812C0 24.0938 0.492188 22.5469 1.33594 21.2109C2.8125 19.1016 5.27344 17.9062 7.80469 17.9062C10.1953 17.9062 10.7578 18.75 13.5 18.75C16.1719 18.75 16.7344 17.9062 19.125 17.9062ZM24.75 28.875H24.6797V25.7812C24.6797 24.5859 24.3984 23.4609 23.6953 22.4766C22.7812 21.0703 21.0234 20.1562 19.125 20.1562C17.1562 20.1562 16.5234 21 13.5 21C10.4766 21 9.77344 20.1562 7.80469 20.1562C5.90625 20.1562 4.14844 21.0703 3.23438 22.4766C2.53125 23.4609 2.25 24.5859 2.25 25.7812V28.875C2.25 29.5078 2.74219 30 3.375 30H23.625C24.1875 30 24.75 29.5078 24.75 28.875ZM43.8047 20.8594C44.5781 21.9141 45 23.1797 45 24.5859V27.1875C45 28.8047 43.7344 30 42.1875 30H29.1094C29.25 29.3672 29.25 29.0156 29.25 27.75H42.1875C42.4688 27.75 42.75 27.5391 42.75 27.1875V24.5859C42.75 23.6719 42.4688 22.8281 41.9766 22.125C41.2031 21 39.8672 20.3672 38.3906 20.3672C36.9141 20.3672 36.2812 21.0703 33.75 21.0703C31.1484 21.0703 30.5859 20.3672 29.0391 20.3672C28.5469 20.3672 28.1953 20.4375 27.7734 20.5078C27.6328 20.2969 27.4219 19.7344 26.3672 18.6797C27.2109 18.2578 28.125 18.0469 29.0391 18.0469C31.0078 18.0469 31.5 18.75 33.75 18.75C36 18.75 36.4922 18.0469 38.3906 18.0469C40.5703 18.0469 42.6094 19.0312 43.8047 20.8594Z" fill="#003DA5"/>
</svg>
