<svg width="199" height="187" viewBox="0 0 199 187" fill="none" xmlns="http://www.w3.org/2000/svg">
<g opacity="0.3" clip-path="url(#clip0_10_402)">
<path d="M136.92 88.2047C136.387 89.6539 135.832 91.0969 135.323 92.5542C132.182 101.541 128.617 110.347 123.15 118.218C121.44 120.681 119.395 123.037 117.085 124.94C113.032 128.28 103.973 127.015 100.796 122.849C100.04 121.858 99.4683 120.458 99.4436 119.234C99.3696 115.696 99.1045 112.041 99.8382 108.63C102.025 98.4571 104.719 88.3928 107.06 78.2487C107.578 76.0004 108.567 74.7393 110.877 74.4552C112.971 74.1977 115.046 73.5886 117.139 73.5538C118.752 73.5273 120.376 74.1466 122.404 74.5635C121.937 76.6116 121.596 78.1138 121.251 79.6182C118.627 91.0437 115.947 102.455 113.411 113.899C112.613 117.498 112.804 118.328 113.686 121.719C114.903 120.63 116.07 119.824 116.921 118.766C118.324 117.022 119.636 115.183 120.789 113.265C127.651 101.875 132.526 89.6661 135.615 76.7587C136.41 73.4353 137.051 70.0321 134.766 66.9806C139.534 64.0107 144.744 65.327 147.794 70.1589C150.196 73.9667 151.123 78.2774 150.995 82.6411C150.825 88.4153 150.636 94.2834 149.508 99.9226C141.536 139.787 118.018 167.013 80.5505 182.503C72.8148 185.702 64.5797 187.209 56.096 186.98C43.9294 186.653 34.0338 181.811 26.6516 172.208C19.4421 162.831 15.8373 152.071 15.0276 140.345C13.5725 119.291 16.0058 98.5061 19.4729 77.797C19.8182 75.7408 20.1881 73.6887 20.6608 70.9703C18.2665 71.6244 16.3018 72.1497 14.3453 72.7015C13.4533 72.9529 12.5819 73.2718 11.6941 73.5395C8.78397 74.4205 7.9804 74.2467 7.34741 72.6259C6.4678 70.3755 7.28575 68.0597 9.50533 67.05C13.1183 65.4067 16.7642 63.8247 20.445 62.3408C22.0727 61.6847 22.9544 60.7118 23.3633 58.9683C24.2347 55.2504 25.2644 51.5632 26.4009 47.9168C26.7215 46.8887 27.4634 45.4539 28.306 45.2107C33.4727 43.7145 38.7237 42.5065 44.7515 41.0022C43.3622 45.5622 42.2031 49.3639 40.7994 53.975C43.8965 52.8733 46.3011 52.021 48.7015 51.1626C54.2094 49.1922 59.3781 50.8601 62.4999 55.6204C64.3866 58.4982 63.8502 60.2744 60.492 61.1901C57.9539 61.8809 55.2924 62.114 52.6885 62.5779C48.9111 63.2504 45.1502 64.0393 41.3563 64.6035C38.4791 65.0306 37.0549 66.4123 36.5493 69.3658C35.1908 77.284 33.3104 85.1163 32.0649 93.0509C30.0817 105.676 28.2814 118.334 26.7133 131.015C25.2931 142.498 25.6055 153.923 29.6809 164.967C33.9906 176.639 42.2955 183.595 54.6862 185.449C64.6476 186.941 73.8897 184.617 82.4885 179.589C89.4103 175.542 95.4258 170.338 100.59 164.288C105.385 158.671 110.085 152.911 114.189 146.792C122.961 133.715 130.781 120.106 134.729 104.667C136.098 99.3155 137.368 93.9543 137.717 88.4357C137.452 88.358 137.185 88.2804 136.92 88.2047V88.2047Z" fill="#ED1C29"/>
<path d="M70.8007 87.017C65.523 103.43 60.3049 119.928 59.228 137.424C59.9103 135.904 60.605 134.387 61.2729 132.86C67.3007 119.097 73.31 105.325 79.3604 91.5709C80.6326 88.6767 81.9828 85.8111 83.4153 82.9925C85.5033 78.8863 86.1795 78.5204 90.5673 79.477C93.5062 80.1188 96.5273 80.7176 99.0017 83.0028C93.1568 97.3573 85.902 111.424 90.6433 127.601C87.2441 129.33 85.082 128.965 83.7523 125.94C82.7679 123.702 82.137 121.157 82.0342 118.72C81.7917 112.946 81.9561 107.154 81.9561 100.744C81.3149 102.128 80.8134 103.144 80.3654 104.184C75.2008 116.166 70.0731 128.161 64.8571 140.12C63.9672 142.162 62.7259 144.057 61.6182 146.003C60.5906 147.804 58.9834 148.474 56.9468 148.339C53.157 148.09 49.6941 146.933 46.5723 144.772C43.9088 142.929 42.9428 140.192 43.1052 137.196C43.3991 131.814 43.5471 126.361 44.5644 121.093C46.5846 110.635 49.2132 100.292 51.4554 89.8745C52.0205 87.246 53.4941 86.0462 56.0096 85.7866C58.9012 85.4882 61.7867 85.0487 64.6845 84.9486C66.7807 84.875 68.9037 85.2266 70.7945 87.0191L70.8007 87.017Z" fill="#ED1C29"/>
<path d="M187.438 86.1055C190.208 85.4596 190.983 83.5117 191.585 81.7335C192.892 77.8766 193.916 73.9257 195.038 70.0095C195.328 68.9978 195.488 67.9472 195.819 66.9518C196.369 65.3003 197.481 65.705 199 66.2507C198.379 70.9007 197.42 75.3748 195.833 79.6609C194.791 82.4734 193.55 85.3124 191.846 87.759C189.123 91.669 185.389 92.2577 181.513 89.5454C180.224 88.644 179.244 87.0334 178.617 85.5413C177.869 83.7611 177.651 81.758 177.018 79.0539C175.962 83.4974 175.285 87.2153 174.172 90.7983C172.77 95.3093 171.298 99.8407 169.321 104.121C167.266 108.566 164.27 109.02 160.423 106.024C157.681 103.888 155.967 101.128 155.911 97.6026C155.726 85.5863 157.971 74.0217 162.994 63.0888C165.515 57.6029 169.965 55.9616 175.801 57.8195C180.939 59.4567 184.098 63.3115 186.667 67.7019C187.212 68.6319 187.125 69.9993 187.119 71.1623C187.101 74.8475 186.932 78.5327 186.928 82.2179C186.928 83.4545 187.242 84.6931 187.438 86.1095V86.1055ZM168.3 96.8034C169.009 95.25 169.751 94.0482 170.125 92.7401C172.357 84.9179 174.509 77.0733 176.675 69.2328C176.847 68.6053 177.234 67.7857 176.991 67.3422C176.404 66.2712 175.688 65.0244 174.681 64.4868C173.403 63.8062 172.56 65.0264 171.958 66.0995C171.701 66.5573 171.455 67.0274 171.274 67.518C168.39 75.3401 166.746 83.4136 166.442 91.7385C166.38 93.4002 166.487 95.1131 168.302 96.8034H168.3Z" fill="#ED1C29"/>
</g>
<path d="M5.10944 13.13C3.80077 13.13 2.82577 12.805 2.18444 12.155C1.55177 11.4963 1.23544 10.5257 1.23544 9.243V3.835H2.91244V9.23C2.91244 10.0447 3.08577 10.66 3.43244 11.076C3.78777 11.492 4.34677 11.7 5.10944 11.7C5.83744 11.7 6.38344 11.492 6.74744 11.076C7.1201 10.66 7.30644 10.0447 7.30644 9.23V3.835H8.95744V9.243C8.95744 10.5257 8.63244 11.4963 7.98244 12.155C7.3411 12.805 6.38344 13.13 5.10944 13.13ZM10.7805 13V8.073C10.7805 7.80433 10.7718 7.53133 10.7545 7.254C10.7372 6.97667 10.7112 6.70367 10.6765 6.435H12.2495L12.3795 7.735H12.2235C12.4315 7.27567 12.7392 6.92467 13.1465 6.682C13.5538 6.43067 14.0262 6.305 14.5635 6.305C15.3348 6.305 15.9155 6.52167 16.3055 6.955C16.6955 7.38833 16.8905 8.06433 16.8905 8.983V13H15.2655V9.061C15.2655 8.53233 15.1615 8.15533 14.9535 7.93C14.7542 7.696 14.4508 7.579 14.0435 7.579C13.5408 7.579 13.1422 7.735 12.8475 8.047C12.5528 8.359 12.4055 8.775 12.4055 9.295V13H10.7805ZM21.1485 13.13C20.5765 13.13 20.0738 12.9957 19.6405 12.727C19.2072 12.4497 18.8692 12.0553 18.6265 11.544C18.3838 11.0327 18.2625 10.4217 18.2625 9.711C18.2625 9.00033 18.3838 8.39367 18.6265 7.891C18.8692 7.37967 19.2072 6.98967 19.6405 6.721C20.0738 6.44367 20.5765 6.305 21.1485 6.305C21.7032 6.305 22.1885 6.44367 22.6045 6.721C23.0292 6.98967 23.3108 7.35367 23.4495 7.813H23.3065L23.4495 6.435H25.0095C24.9835 6.70367 24.9575 6.97667 24.9315 7.254C24.9142 7.53133 24.9055 7.80433 24.9055 8.073V13H23.2935L23.2805 11.648H23.4365C23.2978 12.0987 23.0162 12.4583 22.5915 12.727C22.1668 12.9957 21.6858 13.13 21.1485 13.13ZM21.6035 11.882C22.1148 11.882 22.5265 11.7043 22.8385 11.349C23.1505 10.985 23.3065 10.439 23.3065 9.711C23.3065 8.983 23.1505 8.44133 22.8385 8.086C22.5265 7.73067 22.1148 7.553 21.6035 7.553C21.0922 7.553 20.6805 7.73067 20.3685 8.086C20.0565 8.44133 19.9005 8.983 19.9005 9.711C19.9005 10.439 20.0522 10.985 20.3555 11.349C20.6675 11.7043 21.0835 11.882 21.6035 11.882ZM32.7774 13.13C32.2054 13.13 31.7027 12.9957 31.2694 12.727C30.8361 12.4497 30.4981 12.0553 30.2554 11.544C30.0127 11.0327 29.8914 10.4217 29.8914 9.711C29.8914 9.00033 30.0127 8.39367 30.2554 7.891C30.4981 7.37967 30.8361 6.98967 31.2694 6.721C31.7027 6.44367 32.2054 6.305 32.7774 6.305C33.3321 6.305 33.8174 6.44367 34.2334 6.721C34.6581 6.98967 34.9397 7.35367 35.0784 7.813H34.9354L35.0784 6.435H36.6384C36.6124 6.70367 36.5864 6.97667 36.5604 7.254C36.5431 7.53133 36.5344 7.80433 36.5344 8.073V13H34.9224L34.9094 11.648H35.0654C34.9267 12.0987 34.6451 12.4583 34.2204 12.727C33.7957 12.9957 33.3147 13.13 32.7774 13.13ZM33.2324 11.882C33.7437 11.882 34.1554 11.7043 34.4674 11.349C34.7794 10.985 34.9354 10.439 34.9354 9.711C34.9354 8.983 34.7794 8.44133 34.4674 8.086C34.1554 7.73067 33.7437 7.553 33.2324 7.553C32.7211 7.553 32.3094 7.73067 31.9974 8.086C31.6854 8.44133 31.5294 8.983 31.5294 9.711C31.5294 10.439 31.6811 10.985 31.9844 11.349C32.2964 11.7043 32.7124 11.882 33.2324 11.882ZM38.3039 13V3.432H39.9289V13H38.3039ZM41.6936 13V6.435H43.3186V13H41.6936ZM41.6026 5.2V3.614H43.4096V5.2H41.6026ZM47.6182 13.13C47.0462 13.13 46.5436 12.9957 46.1102 12.727C45.6769 12.4497 45.3389 12.0553 45.0962 11.544C44.8536 11.0327 44.7322 10.4217 44.7322 9.711C44.7322 9.00033 44.8536 8.39367 45.0962 7.891C45.3389 7.37967 45.6769 6.98967 46.1102 6.721C46.5436 6.44367 47.0462 6.305 47.6182 6.305C48.1729 6.305 48.6582 6.44367 49.0742 6.721C49.4989 6.98967 49.7806 7.35367 49.9192 7.813H49.7762L49.9192 6.435H51.4792C51.4532 6.70367 51.4272 6.97667 51.4012 7.254C51.3839 7.53133 51.3752 7.80433 51.3752 8.073V13H49.7632L49.7502 11.648H49.9062C49.7676 12.0987 49.4859 12.4583 49.0612 12.727C48.6366 12.9957 48.1556 13.13 47.6182 13.13ZM48.0732 11.882C48.5846 11.882 48.9962 11.7043 49.3082 11.349C49.6202 10.985 49.7762 10.439 49.7762 9.711C49.7762 8.983 49.6202 8.44133 49.3082 8.086C48.9962 7.73067 48.5846 7.553 48.0732 7.553C47.5619 7.553 47.1502 7.73067 46.8382 8.086C46.5262 8.44133 46.3702 8.983 46.3702 9.711C46.3702 10.439 46.5219 10.985 46.8252 11.349C47.1372 11.7043 47.5532 11.882 48.0732 11.882ZM53.1447 13V8.073C53.1447 7.80433 53.1361 7.53133 53.1187 7.254C53.1014 6.97667 53.0754 6.70367 53.0407 6.435H54.6137L54.7437 7.735H54.5877C54.7957 7.27567 55.1034 6.92467 55.5107 6.682C55.9181 6.43067 56.3904 6.305 56.9277 6.305C57.6991 6.305 58.2797 6.52167 58.6697 6.955C59.0597 7.38833 59.2547 8.06433 59.2547 8.983V13H57.6297V9.061C57.6297 8.53233 57.5257 8.15533 57.3177 7.93C57.1184 7.696 56.8151 7.579 56.4077 7.579C55.9051 7.579 55.5064 7.735 55.2117 8.047C54.9171 8.359 54.7697 8.775 54.7697 9.295V13H53.1447ZM60.7178 13V11.934L64.8258 7.267V7.657H60.7178V6.435H66.2948V7.501L62.1478 12.207L62.1348 11.778H66.4378V13H60.7178ZM70.292 13.13C69.72 13.13 69.2174 12.9957 68.784 12.727C68.3507 12.4497 68.0127 12.0553 67.77 11.544C67.5274 11.0327 67.406 10.4217 67.406 9.711C67.406 9.00033 67.5274 8.39367 67.77 7.891C68.0127 7.37967 68.3507 6.98967 68.784 6.721C69.2174 6.44367 69.72 6.305 70.292 6.305C70.8467 6.305 71.332 6.44367 71.748 6.721C72.1727 6.98967 72.4544 7.35367 72.593 7.813H72.45L72.593 6.435H74.153C74.127 6.70367 74.101 6.97667 74.075 7.254C74.0577 7.53133 74.049 7.80433 74.049 8.073V13H72.437L72.424 11.648H72.58C72.4414 12.0987 72.1597 12.4583 71.735 12.727C71.3104 12.9957 70.8294 13.13 70.292 13.13ZM70.747 11.882C71.2584 11.882 71.67 11.7043 71.982 11.349C72.294 10.985 72.45 10.439 72.45 9.711C72.45 8.983 72.294 8.44133 71.982 8.086C71.67 7.73067 71.2584 7.553 70.747 7.553C70.2357 7.553 69.824 7.73067 69.512 8.086C69.2 8.44133 69.044 8.983 69.044 9.711C69.044 10.439 69.1957 10.985 69.499 11.349C69.811 11.7043 70.227 11.882 70.747 11.882ZM81.934 13.13C81.362 13.13 80.855 12.9957 80.413 12.727C79.9796 12.4497 79.6416 12.0553 79.399 11.544C79.1563 11.0327 79.035 10.4217 79.035 9.711C79.035 9.00033 79.1563 8.39367 79.399 7.891C79.6416 7.37967 79.9796 6.98967 80.413 6.721C80.855 6.44367 81.362 6.305 81.934 6.305C82.48 6.305 82.961 6.43933 83.377 6.708C83.8016 6.968 84.0833 7.32333 84.222 7.774H84.053V3.432H85.678V13H84.079V11.609H84.235C84.0963 12.077 83.8146 12.4497 83.39 12.727C82.974 12.9957 82.4886 13.13 81.934 13.13ZM82.389 11.882C82.9003 11.882 83.312 11.7043 83.624 11.349C83.936 10.985 84.092 10.439 84.092 9.711C84.092 8.983 83.936 8.44133 83.624 8.086C83.312 7.73067 82.9003 7.553 82.389 7.553C81.8776 7.553 81.4616 7.73067 81.141 8.086C80.829 8.44133 80.673 8.983 80.673 9.711C80.673 10.439 80.829 10.985 81.141 11.349C81.4616 11.7043 81.8776 11.882 82.389 11.882ZM90.6195 13.13C89.5188 13.13 88.6565 12.8267 88.0325 12.22C87.4085 11.6133 87.0965 10.7813 87.0965 9.724C87.0965 9.03933 87.2308 8.44133 87.4995 7.93C87.7681 7.41867 88.1408 7.02 88.6175 6.734C89.1028 6.448 89.6661 6.305 90.3075 6.305C90.9401 6.305 91.4688 6.43933 91.8935 6.708C92.3181 6.97667 92.6388 7.35367 92.8555 7.839C93.0808 8.32433 93.1935 8.892 93.1935 9.542V9.971H88.4095V9.113H92.0365L91.8155 9.295C91.8155 8.68833 91.6855 8.22467 91.4255 7.904C91.1741 7.58333 90.8058 7.423 90.3205 7.423C89.7831 7.423 89.3671 7.61367 89.0725 7.995C88.7865 8.37633 88.6435 8.90933 88.6435 9.594V9.763C88.6435 10.4737 88.8168 11.0067 89.1635 11.362C89.5188 11.7087 90.0171 11.882 90.6585 11.882C91.0311 11.882 91.3778 11.8343 91.6985 11.739C92.0278 11.635 92.3398 11.4703 92.6345 11.245L93.1155 12.337C92.8035 12.5883 92.4308 12.7833 91.9975 12.922C91.5641 13.0607 91.1048 13.13 90.6195 13.13ZM98.2799 13V3.835H99.7489L103.116 11.414H102.713L106.08 3.835H107.536V13H106.015V6.201H106.483L103.402 13H102.401L99.3199 6.201H99.8009V13H98.2799ZM112.62 13.13C111.52 13.13 110.657 12.8267 110.033 12.22C109.409 11.6133 109.097 10.7813 109.097 9.724C109.097 9.03933 109.232 8.44133 109.5 7.93C109.769 7.41867 110.142 7.02 110.618 6.734C111.104 6.448 111.667 6.305 112.308 6.305C112.941 6.305 113.47 6.43933 113.894 6.708C114.319 6.97667 114.64 7.35367 114.856 7.839C115.082 8.32433 115.194 8.892 115.194 9.542V9.971H110.41V9.113H114.037L113.816 9.295C113.816 8.68833 113.686 8.22467 113.426 7.904C113.175 7.58333 112.807 7.423 112.321 7.423C111.784 7.423 111.368 7.61367 111.073 7.995C110.787 8.37633 110.644 8.90933 110.644 9.594V9.763C110.644 10.4737 110.818 11.0067 111.164 11.362C111.52 11.7087 112.018 11.882 112.659 11.882C113.032 11.882 113.379 11.8343 113.699 11.739C114.029 11.635 114.341 11.4703 114.635 11.245L115.116 12.337C114.804 12.5883 114.432 12.7833 113.998 12.922C113.565 13.0607 113.106 13.13 112.62 13.13ZM119.119 13.13C118.547 13.13 118.04 12.9957 117.598 12.727C117.164 12.4497 116.826 12.0553 116.584 11.544C116.341 11.0327 116.22 10.4217 116.22 9.711C116.22 9.00033 116.341 8.39367 116.584 7.891C116.826 7.37967 117.164 6.98967 117.598 6.721C118.04 6.44367 118.547 6.305 119.119 6.305C119.665 6.305 120.146 6.43933 120.562 6.708C120.986 6.968 121.268 7.32333 121.407 7.774H121.238V3.432H122.863V13H121.264V11.609H121.42C121.281 12.077 120.999 12.4497 120.575 12.727C120.159 12.9957 119.673 13.13 119.119 13.13ZM119.574 11.882C120.085 11.882 120.497 11.7043 120.809 11.349C121.121 10.985 121.277 10.439 121.277 9.711C121.277 8.983 121.121 8.44133 120.809 8.086C120.497 7.73067 120.085 7.553 119.574 7.553C119.062 7.553 118.646 7.73067 118.326 8.086C118.014 8.44133 117.858 8.983 117.858 9.711C117.858 10.439 118.014 10.985 118.326 11.349C118.646 11.7043 119.062 11.882 119.574 11.882ZM124.632 13V6.435H126.257V13H124.632ZM124.541 5.2V3.614H126.348V5.2H124.541ZM130.362 13.13C129.798 13.13 129.278 13.065 128.802 12.935C128.334 12.7963 127.939 12.6057 127.619 12.363L128.074 11.271C128.403 11.4963 128.767 11.6697 129.166 11.791C129.564 11.9123 129.967 11.973 130.375 11.973C130.808 11.973 131.129 11.8993 131.337 11.752C131.553 11.6047 131.662 11.4053 131.662 11.154C131.662 10.9547 131.592 10.7987 131.454 10.686C131.324 10.5647 131.111 10.4737 130.817 10.413L129.517 10.166C128.962 10.0447 128.537 9.83667 128.243 9.542C127.957 9.24733 127.814 8.86167 127.814 8.385C127.814 7.97767 127.922 7.618 128.139 7.306C128.364 6.994 128.68 6.75133 129.088 6.578C129.504 6.396 129.989 6.305 130.544 6.305C131.029 6.305 131.484 6.37 131.909 6.5C132.342 6.63 132.706 6.825 133.001 7.085L132.533 8.138C132.264 7.92133 131.956 7.75233 131.61 7.631C131.263 7.50967 130.925 7.449 130.596 7.449C130.145 7.449 129.816 7.53133 129.608 7.696C129.4 7.852 129.296 8.05567 129.296 8.307C129.296 8.49767 129.356 8.658 129.478 8.788C129.608 8.90933 129.807 9.00033 130.076 9.061L131.376 9.308C131.956 9.42067 132.394 9.62 132.689 9.906C132.992 10.1833 133.144 10.5647 133.144 11.05C133.144 11.4833 133.027 11.856 132.793 12.168C132.559 12.48 132.234 12.7183 131.818 12.883C131.402 13.0477 130.916 13.13 130.362 13.13ZM134.534 13V8.073C134.534 7.80433 134.526 7.53133 134.508 7.254C134.491 6.97667 134.465 6.70367 134.43 6.435H136.003L136.133 7.735H135.977C136.159 7.28433 136.437 6.93333 136.809 6.682C137.191 6.43067 137.641 6.305 138.161 6.305C138.681 6.305 139.11 6.43067 139.448 6.682C139.795 6.92467 140.038 7.306 140.176 7.826H139.968C140.15 7.358 140.449 6.98967 140.865 6.721C141.281 6.44367 141.758 6.305 142.295 6.305C143.032 6.305 143.582 6.52167 143.946 6.955C144.31 7.38833 144.492 8.06433 144.492 8.983V13H142.867V9.048C142.867 8.528 142.781 8.15533 142.607 7.93C142.434 7.696 142.157 7.579 141.775 7.579C141.325 7.579 140.969 7.73933 140.709 8.06C140.449 8.372 140.319 8.79667 140.319 9.334V13H138.694V9.048C138.694 8.528 138.608 8.15533 138.434 7.93C138.261 7.696 137.984 7.579 137.602 7.579C137.152 7.579 136.796 7.73933 136.536 8.06C136.285 8.372 136.159 8.79667 136.159 9.334V13H134.534ZM148.762 13.13C148.19 13.13 147.687 12.9957 147.254 12.727C146.82 12.4497 146.482 12.0553 146.24 11.544C145.997 11.0327 145.876 10.4217 145.876 9.711C145.876 9.00033 145.997 8.39367 146.24 7.891C146.482 7.37967 146.82 6.98967 147.254 6.721C147.687 6.44367 148.19 6.305 148.762 6.305C149.316 6.305 149.802 6.44367 150.218 6.721C150.642 6.98967 150.924 7.35367 151.063 7.813H150.92L151.063 6.435H152.623C152.597 6.70367 152.571 6.97667 152.545 7.254C152.527 7.53133 152.519 7.80433 152.519 8.073V13H150.907L150.894 11.648H151.05C150.911 12.0987 150.629 12.4583 150.205 12.727C149.78 12.9957 149.299 13.13 148.762 13.13ZM149.217 11.882C149.728 11.882 150.14 11.7043 150.452 11.349C150.764 10.985 150.92 10.439 150.92 9.711C150.92 8.983 150.764 8.44133 150.452 8.086C150.14 7.73067 149.728 7.553 149.217 7.553C148.705 7.553 148.294 7.73067 147.982 8.086C147.67 8.44133 147.514 8.983 147.514 9.711C147.514 10.439 147.665 10.985 147.969 11.349C148.281 11.7043 148.697 11.882 149.217 11.882ZM154.275 13V8.112C154.275 7.83467 154.267 7.553 154.249 7.267C154.241 6.981 154.219 6.70367 154.184 6.435H155.757L155.939 8.229H155.679C155.766 7.79567 155.909 7.436 156.108 7.15C156.316 6.864 156.568 6.65167 156.862 6.513C157.157 6.37433 157.478 6.305 157.824 6.305C157.98 6.305 158.106 6.31367 158.201 6.331C158.297 6.33967 158.392 6.36133 158.487 6.396L158.474 7.826C158.31 7.75667 158.167 7.71333 158.045 7.696C157.933 7.67867 157.79 7.67 157.616 7.67C157.244 7.67 156.927 7.748 156.667 7.904C156.416 8.06 156.225 8.27667 156.095 8.554C155.974 8.83133 155.913 9.14767 155.913 9.503V13H154.275ZM162.568 13.13C161.788 13.13 161.199 12.9263 160.8 12.519C160.401 12.1117 160.202 11.5007 160.202 10.686V7.657H158.941V6.435H160.202V4.758L161.827 4.342V6.435H163.582V7.657H161.827V10.582C161.827 11.0327 161.914 11.349 162.087 11.531C162.26 11.713 162.499 11.804 162.802 11.804C162.967 11.804 163.105 11.791 163.218 11.765C163.339 11.739 163.456 11.7043 163.569 11.661V12.948C163.422 13.0087 163.257 13.052 163.075 13.078C162.902 13.1127 162.733 13.13 162.568 13.13ZM164.732 13V11.193H166.552V13H164.732ZM168.139 13V3.432H169.764V13H168.139ZM171.529 13V6.435H173.154V13H171.529ZM171.438 5.2V3.614H173.245V5.2H171.438ZM176.842 13L174.008 6.435H175.737L177.791 11.57H177.388L179.494 6.435H181.119L178.272 13H176.842ZM185.035 13.13C183.934 13.13 183.072 12.8267 182.448 12.22C181.824 11.6133 181.512 10.7813 181.512 9.724C181.512 9.03933 181.646 8.44133 181.915 7.93C182.183 7.41867 182.556 7.02 183.033 6.734C183.518 6.448 184.081 6.305 184.723 6.305C185.355 6.305 185.884 6.43933 186.309 6.708C186.733 6.97667 187.054 7.35367 187.271 7.839C187.496 8.32433 187.609 8.892 187.609 9.542V9.971H182.825V9.113H186.452L186.231 9.295C186.231 8.68833 186.101 8.22467 185.841 7.904C185.589 7.58333 185.221 7.423 184.736 7.423C184.198 7.423 183.782 7.61367 183.488 7.995C183.202 8.37633 183.059 8.90933 183.059 9.594V9.763C183.059 10.4737 183.232 11.0067 183.579 11.362C183.934 11.7087 184.432 11.882 185.074 11.882C185.446 11.882 185.793 11.8343 186.114 11.739C186.443 11.635 186.755 11.4703 187.05 11.245L187.531 12.337C187.219 12.5883 186.846 12.7833 186.413 12.922C185.979 13.0607 185.52 13.13 185.035 13.13ZM192.422 15.951L192.045 14.664C192.452 14.5773 192.795 14.4777 193.072 14.365C193.349 14.2523 193.579 14.105 193.761 13.923C193.943 13.741 194.095 13.507 194.216 13.221L194.541 12.454L194.502 13.091L191.642 6.435H193.371L195.425 11.557H195.048L197.115 6.435H198.753L195.763 13.364C195.564 13.832 195.347 14.2177 195.113 14.521C194.879 14.833 194.628 15.08 194.359 15.262C194.09 15.4527 193.796 15.6 193.475 15.704C193.154 15.808 192.803 15.8903 192.422 15.951Z" fill="#A6A7AA"/>
<defs>
<clipPath id="clip0_10_402">
<rect width="192" height="146" fill="white" transform="translate(7 41)"/>
</clipPath>
</defs>
</svg>
