<svg width="740" height="546" viewBox="0 0 740 546" fill="none" xmlns="http://www.w3.org/2000/svg">
<g opacity="0.3">
<path d="M500.135 75.3197C449.082 39.3932 388.889 20.4844 325.86 20.4844C158.518 20.4844 22.375 156.627 22.375 323.969C22.375 475.554 135.512 604.764 285.521 624.933C286.467 624.933 287.097 625.248 288.043 625.248C289.303 625.248 290.249 625.248 291.509 624.933C296.867 639.115 309.472 650.145 325.545 652.351C327.436 652.666 329.642 652.666 331.533 652.666C352.647 652.666 370.611 636.909 373.762 616.109C375.338 604.764 372.501 593.734 365.568 584.594C358.635 575.455 348.866 569.783 337.52 568.207C335.629 567.892 333.423 567.892 331.533 567.892C316.09 567.892 302.224 576.401 294.661 589.322C293.4 588.691 292.139 588.376 290.564 588.376C158.833 570.413 59.8773 456.961 59.8773 323.969C59.8773 177.112 179.317 57.6716 326.175 57.6716C381.326 57.6716 433.955 74.3743 479.021 105.889C487.529 111.877 498.875 109.671 504.862 101.477C510.85 92.9679 508.644 81.3075 500.135 75.3197ZM312.939 607.6C314.2 598.461 322.078 591.528 331.217 591.528C332.163 591.528 333.108 591.528 333.739 591.843C343.823 593.419 351.072 602.558 349.496 612.958C348.235 622.097 340.357 629.03 331.217 629.03C330.272 629.03 329.327 629.03 328.696 628.715C318.612 627.139 311.678 617.685 312.939 607.6Z" fill="white"/>
<path d="M619.889 564.74C616.107 564.74 612.011 563.48 608.859 560.643C601.926 554.656 601.296 543.941 607.283 537.008C658.022 479.021 686.07 404.331 686.07 327.121C686.07 248.334 657.076 173.015 604.762 114.398C598.459 107.465 599.09 96.7496 606.023 90.7618C612.956 84.4589 623.671 85.0892 629.659 92.0224C687.645 156.627 719.475 240.141 719.475 327.121C719.475 412.525 688.591 494.778 632.18 559.068C629.028 562.849 624.616 564.74 619.889 564.74Z" fill="white"/>
<path d="M493.516 466.415C490.049 466.415 486.582 465.469 483.431 462.948C475.867 457.276 474.607 446.876 479.964 439.312C504.861 405.907 518.097 365.884 518.097 323.969C518.097 282.37 504.861 242.662 480.279 209.256C474.607 201.693 476.183 191.293 483.746 185.936C491.309 180.263 501.709 181.839 507.067 189.402C536.06 228.795 551.502 275.122 551.502 324.284C551.502 373.447 536.06 420.404 506.436 459.797C503.6 463.894 498.558 466.415 493.516 466.415Z" fill="white"/>
<path d="M569.153 139.925C563.165 132.676 552.765 131.731 545.517 137.719C538.269 143.706 537.323 154.106 543.311 161.354C581.129 207.05 601.928 264.722 601.928 324.285C601.928 404.962 563.796 480.912 499.506 529.129L418.829 431.434C448.452 405.277 467.046 367.459 467.046 324.915C467.046 305.061 462.949 286.152 455.701 269.134C459.482 263.777 462.319 257.159 463.264 250.225C466.416 226.905 450.343 205.475 427.022 202.008C425.132 201.693 422.926 201.693 421.035 201.693C399.92 201.693 381.957 217.45 378.805 238.25C377.23 249.595 380.066 260.625 386.999 269.764C393.932 278.904 403.702 284.576 415.047 286.152C416.938 286.467 419.144 286.467 421.035 286.467C424.816 286.467 428.283 285.837 432.065 284.891C436.792 297.182 439.313 310.418 439.313 324.285C439.313 386.998 388.26 438.052 325.546 438.052C300.334 438.052 277.013 429.858 258.42 415.992C260.311 411.895 261.886 407.483 262.517 403.071C264.092 391.726 261.256 380.696 254.323 371.556C247.39 362.417 237.62 356.744 226.275 355.169C224.384 354.854 222.178 354.854 220.287 354.854C199.172 354.854 181.209 370.611 178.058 391.41C174.906 414.731 190.979 436.161 214.299 439.628C216.19 439.943 218.396 439.943 220.287 439.943C226.59 439.943 232.578 438.682 237.935 436.161C262.201 455.07 292.455 466.415 325.546 466.415C351.388 466.415 375.339 459.482 396.138 447.506L488.476 558.753C491.627 562.849 496.67 565.055 501.397 565.055C504.548 565.055 508.015 564.11 510.851 561.904C589.007 507.699 635.334 418.828 635.334 323.969C635.334 257.159 612.013 191.608 569.153 139.925ZM421.035 263.146C420.089 263.146 419.144 263.146 418.514 262.831C408.429 261.255 401.181 252.116 402.756 241.716C404.017 232.577 411.896 225.644 421.035 225.644C421.98 225.644 422.926 225.644 423.556 225.959C433.641 227.535 440.889 236.674 439.313 247.074C438.053 256.213 430.174 263.146 421.035 263.146ZM238.566 400.235C237.305 409.374 229.426 416.307 220.287 416.307C219.342 416.307 218.396 416.307 217.766 415.992C207.681 414.416 200.433 405.277 202.009 394.877C203.269 385.738 211.148 378.805 220.287 378.805C221.233 378.805 222.178 378.805 222.808 379.12C232.893 380.696 239.826 390.15 238.566 400.235Z" fill="white"/>
</g>
</svg>
