<svg width="102" height="78" viewBox="0 0 102 78" fill="none" xmlns="http://www.w3.org/2000/svg">
<g clip-path="url(#clip0_1_278)">
<path d="M69.0197 25.2191C68.7369 25.9933 68.4421 26.7642 68.1713 27.5428C66.503 32.3442 64.6087 37.0483 61.7045 41.2535C60.7962 42.5693 59.7098 43.8283 58.4826 44.8449C56.3296 46.6292 51.5169 45.9533 49.829 43.7279C49.4272 43.1983 49.1236 42.4503 49.1105 41.7962C49.0712 39.906 48.9304 37.9536 49.3202 36.1311C50.4819 30.6964 51.9132 25.3196 53.1568 19.9002C53.4319 18.699 53.9571 18.0253 55.1843 17.8735C56.2968 17.7359 57.3995 17.4105 58.511 17.3919C59.3681 17.3777 60.2306 17.7086 61.3082 17.9313C61.0604 19.0255 60.8791 19.8281 60.6957 20.6318C59.3015 26.7358 57.8778 32.8323 56.5305 38.9462C56.1068 40.8691 56.2084 41.3125 56.6768 43.124C57.3231 42.542 57.9433 42.1118 58.3953 41.5461C59.141 40.6147 59.8375 39.6319 60.4501 38.6077C64.0956 32.5221 66.6854 25.9999 68.3264 19.1041C68.7489 17.3286 69.0895 15.5105 67.8754 13.8802C70.4084 12.2935 73.1762 12.9968 74.7964 15.5782C76.0727 17.6125 76.5651 19.9154 76.4975 22.2468C76.4068 25.3316 76.3064 28.4666 75.707 31.4793C71.4719 52.777 58.9783 67.3219 39.0735 75.5979C34.964 77.3068 30.5891 78.1116 26.0821 77.9893C19.6186 77.8146 14.3616 75.2277 10.4398 70.0977C6.60972 65.0878 4.69469 59.3397 4.26452 53.0751C3.49152 41.8268 4.78422 30.7226 6.6261 19.6588C6.80952 18.5603 7.00605 17.464 7.25716 16.0117C5.98521 16.3611 4.94144 16.6417 3.90204 16.9366C3.42819 17.0709 2.96527 17.2412 2.49361 17.3843C0.947605 17.8549 0.520708 17.7621 0.184431 16.8962C-0.282863 15.6939 0.151677 14.4567 1.33083 13.9173C3.25023 13.0393 5.1871 12.1942 7.14252 11.4014C8.00724 11.0509 8.47562 10.5311 8.69289 9.59967C9.15582 7.61339 9.70281 5.64348 10.3066 3.69542C10.4769 3.14617 10.871 2.37961 11.3187 2.24966C14.0635 1.45035 16.8531 0.804997 20.0553 0.00131226C19.3173 2.43748 18.7015 4.46853 17.9558 6.932C19.6011 6.34343 20.8786 5.88808 22.1538 5.42946C25.0798 4.37681 27.8257 5.26785 29.4842 7.81103C30.4865 9.34851 30.2015 10.2974 28.4175 10.7866C27.0691 11.1557 25.6552 11.2802 24.2719 11.5281C22.2652 11.8873 20.2671 12.3088 18.2517 12.6102C16.7231 12.8384 15.9665 13.5766 15.6979 15.1545C14.9762 19.3847 13.9772 23.5691 13.3156 27.8081C12.262 34.5532 11.3056 41.3157 10.4725 48.0903C9.7181 54.2249 9.88405 60.329 12.0491 66.2289C14.3386 72.4651 18.7506 76.181 25.3331 77.1714C30.6251 77.9685 35.535 76.727 40.1031 74.0408C43.7803 71.8787 46.9761 69.0985 49.7198 65.8663C52.267 62.8656 54.7639 59.7885 56.9443 56.5191C61.6041 49.5327 65.7584 42.2625 67.8558 34.0138C68.5829 31.155 69.2577 28.2908 69.4433 25.3425C69.3024 25.301 69.1605 25.2595 69.0197 25.2191V25.2191Z" fill="#ED1C29"/>
<path d="M33.894 24.5845C31.0903 33.3529 28.3182 42.1672 27.7461 51.5144C28.1085 50.702 28.4776 49.8918 28.8324 49.0761C32.0347 41.7228 35.2271 34.3652 38.4414 27.0173C39.1173 25.4711 39.8346 23.9402 40.5956 22.4344C41.7048 20.2406 42.064 20.0452 44.3951 20.5562C45.9563 20.8991 47.5613 21.219 48.8758 22.4398C45.7707 30.1087 41.9166 37.6236 44.4354 46.2665C42.6296 47.1903 41.481 46.9948 40.7746 45.3787C40.2516 44.183 39.9165 42.8235 39.8619 41.5219C39.733 38.4371 39.8204 35.3425 39.8204 31.9181C39.4797 32.6573 39.2133 33.2 38.9753 33.7559C36.2316 40.1569 33.5075 46.5657 30.7365 52.9547C30.2638 54.0456 29.6043 55.0579 29.0158 56.0974C28.4699 57.0594 27.6161 57.4176 26.5342 57.3455C24.5209 57.2123 22.6812 56.5943 21.0227 55.4401C19.6077 54.4551 19.0946 52.993 19.1808 51.3921C19.337 48.517 19.4156 45.6036 19.956 42.7897C21.0293 37.2021 22.4257 31.6768 23.6168 26.111C23.9171 24.7068 24.6999 24.0658 26.0363 23.9271C27.5725 23.7677 29.1054 23.5329 30.6448 23.4794C31.7585 23.4401 32.8863 23.6279 33.8908 24.5855L33.894 24.5845Z" fill="#ED1C29"/>
<path d="M95.8575 24.0974C97.3292 23.7524 97.7408 22.7117 98.0607 21.7617C98.7551 19.7012 99.2988 17.5904 99.895 15.4982C100.049 14.9577 100.134 14.3964 100.31 13.8646C100.602 12.9823 101.193 13.1985 102 13.4901C101.67 15.9743 101.16 18.3646 100.317 20.6545C99.7639 22.157 99.1045 23.6737 98.1994 24.9808C96.7527 27.0698 94.7689 27.3842 92.7098 25.9352C92.0252 25.4536 91.5044 24.5932 91.1714 23.796C90.774 22.8449 90.6583 21.7748 90.322 20.3302C89.7608 22.7041 89.4016 24.6904 88.8098 26.6046C88.0652 29.0145 87.2835 31.4354 86.2332 33.722C85.1414 36.097 83.5495 36.3394 81.5056 34.7386C80.0492 33.5975 79.1386 32.1234 79.1091 30.2397C79.0109 23.8201 80.2031 17.6417 82.8715 11.8008C84.2111 8.87001 86.5749 7.99316 89.6756 8.98575C92.4052 9.86042 94.0833 11.9199 95.448 14.2654C95.7374 14.7622 95.6915 15.4928 95.6882 16.1141C95.6784 18.0829 95.5889 20.0517 95.5867 22.0205C95.5867 22.6812 95.7537 23.3429 95.8575 24.0996V24.0974ZM85.6905 29.8128C86.0672 28.9829 86.4614 28.3408 86.6601 27.6419C87.8458 23.463 88.9889 19.272 90.1397 15.0833C90.2314 14.748 90.4366 14.3102 90.3078 14.0732C89.9955 13.501 89.6156 12.8349 89.0806 12.5477C88.4015 12.1841 87.9539 12.836 87.634 13.4093C87.4975 13.6539 87.3665 13.905 87.2704 14.1671C85.7386 18.3461 84.8651 22.6593 84.7035 27.1069C84.6708 27.9946 84.7276 28.9097 85.6916 29.8128H85.6905Z" fill="#ED1C29"/>
</g>
<defs>
<clipPath id="clip0_1_278">
<rect width="102" height="78" fill="white"/>
</clipPath>
</defs>
</svg>
