<svg width="339" height="77" viewBox="0 0 339 77" fill="none" xmlns="http://www.w3.org/2000/svg">
<path d="M32.7565 68.3197C33.2876 67.6643 33.8187 67.0316 34.5419 66.5796C37.2764 64.8959 40.9827 66.1389 42.0561 69.3593C42.881 71.8452 41.6832 74.5006 39.4346 75.5628C37.0391 76.6928 34.0221 75.9922 32.6096 73.2464C32.4288 72.8848 32.248 72.7718 31.8525 72.7266C30.6435 72.5684 29.4118 72.4215 28.2366 72.1164C26.5756 71.687 24.9258 71.1898 23.3213 70.5796C20.1687 69.3932 17.2647 67.7434 14.5866 65.6982C11.9312 63.6869 9.60348 61.3591 7.56954 58.7376C5.27571 55.7545 3.47906 52.4889 2.2022 48.9634C1.42252 46.8277 0.85754 44.6243 0.484651 42.3644C0.0552636 39.7429 -0.0916319 37.0987 0.0552637 34.4546C0.145661 32.8049 0.360355 31.1664 0.688045 29.5393C1.09483 27.5392 1.64852 25.5731 2.3604 23.6634C2.97058 22.0137 3.73896 20.4317 4.58643 18.8837C6.92546 14.6237 10.0216 11.0191 13.7957 7.97949C16.7788 5.58396 20.0783 3.71951 23.6603 2.35225C25.423 1.67427 27.2423 1.14319 29.0954 0.7703C30.7565 0.43131 32.4401 0.227916 34.1464 0.0923204C36.3498 -0.0884743 38.5419 0.0132228 40.7228 0.250516C42.9827 0.499109 45.2087 0.984994 47.3896 1.66297C50.1919 2.53305 52.8473 3.73081 55.3558 5.23367C56.1242 5.69696 56.8813 6.18284 57.5932 6.73653C58.5423 7.4597 58.7231 8.70267 58.0904 9.67444C57.4237 10.714 56.1242 11.0191 55.0395 10.3637C54.0112 9.74224 53.0055 9.07556 51.9659 8.47667C50.384 7.5614 48.7116 6.81562 46.9715 6.27324C45.5025 5.80995 44.011 5.39186 42.4968 5.05287C41.4911 4.82688 40.4516 4.71388 39.4233 4.64609C37.3442 4.49919 35.2537 4.48789 33.1633 4.69129C29.6491 5.04157 26.2931 5.97945 23.0953 7.471C18.1686 9.76484 14.0895 13.0869 10.8351 17.4373C8.60911 20.3978 6.95936 23.6634 5.87459 27.2002C5.21921 29.3359 4.82372 31.528 4.62033 33.7653C4.40564 36.2287 4.50733 38.6694 4.81242 41.1101C4.97062 42.4096 5.26441 43.6977 5.6147 44.952C6.28138 47.3362 7.19665 49.6188 8.38312 51.7996C10.7222 56.0709 13.8522 59.6416 17.7844 62.5004C20.1461 64.2292 22.7337 65.5852 25.4795 66.6135C27.7507 67.4496 30.0785 68.0146 32.474 68.2971C32.587 68.3197 32.6661 68.3197 32.7565 68.3197ZM37.2086 68.7491C35.9204 68.6926 34.9712 69.8565 34.9599 70.9299C34.9486 72.139 35.9317 73.1447 37.1521 73.1673C38.4063 73.1899 39.4346 72.1955 39.4346 70.9525C39.4233 70.0147 38.6549 68.7265 37.2086 68.7491Z" fill="#0282A6"/>
<path d="M44.994 51.4719C38.282 54.8844 31.9542 54.3985 25.8524 50.1046C24.5868 50.6357 23.2534 50.6922 21.9314 50.195C20.8579 49.7883 19.9991 49.0764 19.4002 48.0933C18.1912 46.0933 18.4511 43.5508 20.0895 41.8446C21.7167 40.1496 24.3269 39.7993 26.3721 40.9971C27.536 41.6751 28.3044 42.6695 28.6773 43.9689C29.0389 45.2345 28.9033 46.4661 28.3948 47.6526C32.7113 51.0764 39.8752 51.4493 44.994 47.3249C50.1692 43.144 51.1071 36.3755 49.2088 32.0252C48.5647 32.0252 47.9206 32.0817 47.2878 32.0139C45.5816 31.8444 44.3047 30.963 43.4798 29.4827C41.8866 26.6013 43.2538 22.7933 46.8358 21.9798C50.2483 21.2114 52.949 23.799 53.0507 26.6917C53.0846 27.7313 52.9264 28.7144 52.3501 29.5844C52.158 29.8782 52.1806 30.1268 52.2936 30.4206C53.3106 32.963 53.7173 35.5959 53.4235 38.3191C53.0507 41.7542 51.8303 44.8503 49.5704 47.4944C48.9941 48.1837 48.3613 48.8278 47.7398 49.5171C50.9376 53.3815 54.1354 57.246 57.3784 61.1783C58.0677 60.602 58.7457 60.0822 59.3898 59.5173C61.5706 57.585 63.4238 55.3703 64.9831 52.907C66.5764 50.3871 67.7628 47.6865 68.5651 44.8164C69.5934 41.1553 69.9211 37.4151 69.5595 33.6297C69.3222 31.1212 68.7459 28.6805 67.9097 26.2962C66.7346 22.9402 65.0057 19.9006 62.7797 17.1435C62.2486 16.4768 62.0565 15.7763 62.3616 14.9288C62.791 13.7197 64.6441 13.053 65.7402 14.3751C66.5764 15.3808 67.3447 16.4429 68.0792 17.5277C69.9098 20.2283 71.2431 23.1775 72.2149 26.2849C72.8251 28.2285 73.198 30.2398 73.4692 32.2625C73.7968 34.771 73.8194 37.2908 73.5935 39.7993C73.0624 45.5735 71.1866 50.8843 68.0001 55.7319C66.3617 58.2178 64.4407 60.4664 62.2147 62.4439C61.209 63.3366 60.1243 64.1501 59.0508 64.9863C58.8248 65.1671 58.5423 65.2914 58.2598 65.4044C57.4123 65.7434 56.6779 65.4948 56.1016 64.862C55.3784 64.071 54.7117 63.2236 54.0224 62.3987C51.6495 59.5399 49.2766 56.6923 46.9036 53.8335C46.35 53.1782 45.8076 52.5115 45.2652 51.8561C45.1748 51.7205 45.0731 51.5849 44.994 51.4719ZM25.9993 45.3814C25.9993 44.2514 25.1518 43.1779 23.7732 43.1779C22.6207 43.1779 21.6037 43.9915 21.5472 45.3927C21.4907 46.5904 22.5981 47.63 23.8297 47.6187C25.0501 47.6074 26.0106 46.6243 25.9993 45.3814ZM45.7624 26.9855C45.7624 28.2172 46.7228 29.1777 47.9545 29.189C49.1749 29.2003 50.1692 28.2172 50.1805 26.9968C50.1918 25.7652 49.1862 24.7595 47.9432 24.7595C46.7228 24.7708 45.7624 25.7539 45.7624 26.9855Z" fill="#47BCCA"/>
<path d="M236.049 44.0028C234.354 44.0028 232.682 44.0028 230.93 44.0028C230.919 43.7429 230.908 43.4944 230.908 43.2458C230.908 40.1271 230.908 37.0083 230.896 33.8783C230.896 33.11 230.874 32.3303 230.795 31.5619C230.659 30.3867 230.309 29.2681 229.326 28.511C228.049 27.5279 226.625 27.4601 225.19 28.1268C223.495 28.9291 222.715 30.3754 222.534 32.1721C222.467 32.8727 222.501 33.5958 222.501 34.2964C222.501 37.2908 222.501 40.2739 222.501 43.2684C222.501 43.4944 222.501 43.7316 222.501 43.9802C220.727 43.9802 219.043 43.9802 217.28 43.9802C217.28 43.6864 217.28 43.4379 217.28 43.178C217.28 39.7542 217.269 36.3304 217.28 32.9066C217.291 31.6975 217.077 30.5562 216.444 29.5167C214.817 26.8386 210.986 27.1211 209.517 29.6071C208.907 30.6353 208.647 31.7427 208.658 32.9292C208.67 36.353 208.658 39.7768 208.658 43.2006C208.658 43.4492 208.658 43.709 208.658 43.9915C206.884 43.9915 205.189 43.9915 203.472 43.9915C203.472 37.0535 203.472 30.1607 203.472 23.2679C203.958 23.1437 207.336 23.1098 208.24 23.2227C208.353 23.9346 208.478 24.6691 208.613 25.5392C209.223 24.7482 209.811 24.0476 210.636 23.6182C211.483 23.1776 212.387 22.929 213.337 22.8499C214.263 22.7708 215.178 22.8273 216.094 23.042C217.032 23.2566 217.868 23.686 218.602 24.3075C219.325 24.9177 219.823 25.6861 220.252 26.59C220.523 26.2511 220.76 25.9347 221.009 25.6409C221.89 24.6126 222.907 23.7764 224.207 23.347C225.066 23.0646 225.958 22.9177 226.874 22.9064C228.41 22.8838 229.913 23.0307 231.348 23.6521C233.461 24.5787 234.749 26.2059 235.45 28.3415C235.879 29.6636 236.06 31.0308 236.06 32.4094C236.071 36.0931 236.06 39.7655 236.06 43.4492C236.083 43.6299 236.071 43.7994 236.049 44.0028Z" fill="#0282A6"/>
<path d="M125.414 44.0142C123.674 44.0142 122.001 44.0142 120.25 44.0142C120.25 43.7317 120.25 43.4831 120.25 43.2232C120.239 39.5621 120.239 35.901 120.227 32.2512C120.227 31.2455 119.956 30.2964 119.448 29.4263C118.645 28.0364 117.007 27.4601 115.481 27.8104C113.606 28.2398 112.51 29.4828 112.024 31.3133C111.854 31.9461 111.809 32.5789 111.809 33.223C111.82 36.5564 111.809 39.8898 111.809 43.2345C111.809 43.4718 111.809 43.6978 111.809 44.0255C110.103 44.0594 108.43 44.0368 106.69 44.0368C106.679 43.7656 106.668 43.5396 106.668 43.3136C106.668 39.8898 106.668 36.466 106.668 33.0535C106.668 31.9461 106.476 30.8726 105.967 29.8783C104.442 26.8387 100.464 27.1438 98.9952 29.4376C98.3624 30.4207 97.9782 31.4715 97.9782 32.6467C97.9782 36.1496 97.9669 39.6638 97.9669 43.1667C97.9669 43.4266 97.9669 43.6752 97.9669 43.9238C97.481 44.082 93.9781 44.1385 92.8708 44.0142C92.7465 43.5509 92.7013 24.0928 92.8369 23.2341C94.3849 23.2341 95.9443 23.2341 97.5601 23.2341C97.6844 23.9798 97.8087 24.703 97.9443 25.5844C99.5037 23.2793 101.685 22.7256 104.125 22.8725C106.634 23.0307 108.453 24.2397 109.583 26.5901C109.741 26.3867 109.865 26.2511 109.978 26.1155C110.905 24.8951 112.012 23.9007 113.481 23.3923C114.374 23.0759 115.312 22.9403 116.272 22.929C117.787 22.9177 119.267 23.0533 120.679 23.6748C122.747 24.5787 124.013 26.1607 124.747 28.2398C125.256 29.6749 125.414 31.1777 125.436 32.6806C125.482 36.2739 125.448 39.8672 125.448 43.4605C125.448 43.6187 125.425 43.7882 125.414 44.0142Z" fill="#47BCCA"/>
<path d="M168.319 25.6973C168.319 21.9797 168.319 18.2847 168.319 14.5446C170.081 14.5446 171.765 14.5446 173.494 14.5446C173.494 24.3753 173.494 34.1721 173.494 44.0141C171.901 44.0141 170.33 44.0141 168.691 44.0141C168.59 43.1553 168.488 42.3078 168.375 41.37C168.217 41.483 168.093 41.5508 168.013 41.6525C167.189 42.7824 166.081 43.5395 164.782 44.0028C163.923 44.3079 163.03 44.4435 162.126 44.4774C159.776 44.5565 157.55 44.1384 155.539 42.8502C153.505 41.5395 152.171 39.7315 151.459 37.4151C150.894 35.5845 150.838 33.7201 151.019 31.8556C151.2 30.0251 151.731 28.2737 152.827 26.7595C154.137 24.9515 155.855 23.7425 158.013 23.1775C159.075 22.895 160.149 22.7029 161.256 22.7029C163.155 22.7029 164.917 23.1775 166.511 24.2058C167.121 24.6013 167.652 25.1436 168.319 25.6973ZM161.979 39.6863C165.347 39.7202 167.991 37.223 168.002 33.6636C168.025 30.0703 165.426 27.5279 162.002 27.5279C158.544 27.5166 156.126 29.8669 156.092 33.5506C156.058 37.2004 158.657 39.7202 161.979 39.6863Z" fill="#47BCCA"/>
<path d="M255.959 25.8217C256.038 24.9177 256.106 24.1042 256.185 23.2454C257.823 23.2454 259.428 23.2454 261.032 23.2454C261.157 23.72 261.191 43.1441 261.078 43.9464C260.614 44.082 256.942 44.1046 256.23 43.969C256.162 43.1102 256.083 42.2401 255.993 41.2232C255.812 41.4153 255.699 41.5283 255.608 41.6412C254.648 42.8955 253.394 43.6978 251.902 44.1724C250.671 44.5679 249.428 44.7374 248.151 44.6357C244.817 44.3532 242.004 43.0989 240.151 40.161C239.36 38.9067 238.908 37.5395 238.659 36.0818C238.433 34.7484 238.376 33.4264 238.523 32.093C238.761 29.867 239.461 27.8218 240.964 26.1042C242.241 24.6465 243.823 23.6748 245.699 23.1663C247.021 22.8047 248.354 22.6126 249.71 22.6917C252.128 22.8499 254.23 23.6635 255.733 25.6861C255.767 25.72 255.812 25.7313 255.959 25.8217ZM249.812 39.9124C251.224 39.935 252.501 39.5508 253.597 38.6807C255.699 37.0084 256.445 33.901 255.495 31.3021C254.592 28.8274 252.806 27.4602 250.173 27.3472C247.687 27.2342 245.687 28.1381 244.411 30.3642C243.879 31.302 243.676 32.3416 243.653 33.3925C243.62 34.771 243.879 36.0931 244.659 37.257C245.879 39.0988 247.665 39.8672 249.812 39.9124Z" fill="#0282A6"/>
<path d="M149.64 35.4603C146.883 35.4603 144.194 35.4603 141.516 35.4603C138.826 35.4603 136.137 35.4603 133.403 35.4603C133.414 36.1383 133.663 36.692 133.968 37.2231C134.713 38.4886 135.866 39.2005 137.233 39.5734C139.538 40.1949 141.753 39.8446 143.877 38.8163C144.318 38.6016 144.702 38.2852 145.188 37.9688C146.239 39.0084 147.324 40.0706 148.42 41.1553C148.318 41.2796 148.25 41.3813 148.16 41.4604C146.589 42.8729 144.759 43.7317 142.702 44.195C140.759 44.6243 138.815 44.6695 136.872 44.3645C134.566 43.9916 132.51 43.0424 130.871 41.3474C129.764 40.2062 128.996 38.8389 128.544 37.3135C128.047 35.6298 127.866 33.901 128.058 32.1495C128.295 30.0591 128.951 28.1381 130.273 26.4658C131.549 24.8612 133.177 23.7765 135.143 23.1437C137.177 22.4883 139.256 22.4205 141.335 22.7143C143.697 23.042 145.787 23.9912 147.358 25.8782C148.262 26.963 148.849 28.2059 149.233 29.5845C149.753 31.4941 149.719 33.4151 149.64 35.4603ZM144.589 31.1664C144.601 31.0195 144.623 30.9291 144.601 30.8501C144.284 29.4037 143.516 28.3076 142.115 27.7087C140.555 27.0308 138.951 26.9969 137.324 27.4037C135.561 27.8443 134.329 28.9178 133.629 30.6015C133.561 30.771 133.538 30.9517 133.482 31.1664C137.233 31.1664 140.883 31.1664 144.589 31.1664Z" fill="#47BCCA"/>
<path d="M79.8084 36.6919C79.8197 35.0648 79.7293 33.2116 79.4468 31.3811C78.8028 27.2341 77.5937 23.2679 75.6728 19.5277C74.2377 16.748 72.5201 14.1604 70.4636 11.81C70.2489 11.5728 70.0455 11.3242 69.8647 11.053C69.311 10.2055 69.4918 9.00773 70.2828 8.37495C71.2094 7.62917 72.4071 7.91166 72.9834 8.53314C74.7236 10.4202 76.2377 12.4654 77.5824 14.6463C78.7802 16.5785 79.8423 18.6011 80.6898 20.7142C81.4808 22.6803 82.1475 24.703 82.6672 26.7708C83.5486 30.3189 83.8989 33.9235 83.8763 37.5733C83.865 39.6863 83.6729 41.7881 83.3339 43.8672C82.8367 46.839 82.0119 49.7204 80.9045 52.5227C79.5259 56.0369 77.6728 59.2913 75.4355 62.3309C74.8027 63.1896 74.0682 63.9919 73.4015 64.8281C72.6557 65.766 70.6444 65.8225 70.0342 64.297C69.7178 63.506 69.8421 62.7489 70.4184 62.071C71.0964 61.2687 71.7631 60.4551 72.3845 59.6076C74.6219 56.5567 76.3846 53.2685 77.6389 49.6978C78.3621 47.63 78.8932 45.5057 79.2773 43.3474C79.6502 41.2005 79.8084 39.0648 79.8084 36.6919Z" fill="#0282A6"/>
<path d="M200.862 25.4036C199.912 26.5336 198.986 27.6183 198.093 28.6805C197.37 28.2624 196.715 27.8104 196.003 27.4714C194.85 26.9291 193.596 26.8726 192.342 26.9178C191.585 26.9517 190.85 27.0534 190.161 27.3923C189.517 27.7087 189.099 28.1833 189.076 28.9404C189.065 29.7427 189.494 30.2625 190.172 30.6128C190.952 31.0195 191.799 31.1551 192.658 31.189C193.991 31.2455 195.314 31.415 196.613 31.7201C197.845 32.0139 198.975 32.4998 199.958 33.3021C201.178 34.3077 201.709 35.6637 201.845 37.1892C202.161 40.8503 199.766 43.2684 196.85 44.1724C194.76 44.8164 192.647 44.8164 190.522 44.613C187.754 44.3419 185.381 43.178 183.415 41.1892C183.37 41.144 183.347 41.0875 183.268 40.9746C184.082 39.7994 184.918 38.6016 185.743 37.4039C186.342 37.8219 186.895 38.2626 187.505 38.6129C189.065 39.5169 190.76 40.0593 192.556 40.2062C193.607 40.2853 194.613 40.1497 195.54 39.596C196.432 39.0649 196.839 38.2174 196.669 37.3361C196.545 36.7259 196.161 36.353 195.619 36.127C194.749 35.7654 193.845 35.6411 192.918 35.5846C191.02 35.4716 189.166 35.1439 187.426 34.3077C186.025 33.6411 184.884 32.6806 184.353 31.1777C183.596 29.0534 183.867 27.076 185.347 25.3245C186.285 24.2284 187.517 23.607 188.861 23.155C190.85 22.4996 192.884 22.4657 194.929 22.6804C197.099 22.8951 199.042 23.6974 200.692 25.155C200.76 25.2341 200.783 25.3019 200.862 25.4036Z" fill="#0282A6"/>
<path d="M284.92 27.72C283.598 27.72 282.378 27.72 281.089 27.72C281.022 26.2285 281.067 24.7708 281.067 23.2566C282.344 23.2566 283.575 23.2566 284.897 23.2566C284.954 21.46 284.886 19.7312 284.931 17.9232C286.626 17.6633 288.31 17.5164 290.073 17.3469C290.118 18.0475 290.095 18.6803 290.095 19.3131C290.095 19.9345 290.095 20.556 290.095 21.1888C290.095 21.8329 290.095 22.477 290.095 23.2002C290.739 23.2453 291.349 23.2228 291.971 23.2228C292.615 23.2228 293.259 23.2228 293.903 23.2228C294.525 23.2228 295.146 23.2228 295.802 23.2228C295.802 24.7369 295.802 26.1946 295.802 27.72C293.881 27.72 292.005 27.72 290.084 27.72C290.073 28.0025 290.05 28.2172 290.05 28.4206C290.05 31.0647 290.039 33.7088 290.05 36.3643C290.05 36.9405 290.05 37.5168 290.276 38.0705C290.683 39.0649 291.44 39.5056 292.457 39.6073C293.203 39.6864 293.903 39.4717 294.592 39.2344C294.785 39.1666 294.988 39.1101 295.248 39.0197C295.722 40.4773 296.174 41.8785 296.649 43.3362C296.48 43.4153 296.321 43.517 296.152 43.5847C294.333 44.2514 292.468 44.3757 290.558 44.161C288.604 43.935 287.09 42.9859 286.027 41.3361C285.508 40.5338 285.214 39.6186 285.078 38.692C284.954 37.8445 284.92 36.9744 284.909 36.1157C284.886 33.5732 284.897 31.0421 284.897 28.4997C284.92 28.285 284.92 28.0477 284.92 27.72Z" fill="#0282A6"/>
<path d="M268.919 44.0141C267.168 44.0141 265.496 44.0141 263.835 44.0141C263.71 43.5169 263.665 24.1832 263.778 23.3018C264.241 23.1775 267.338 23.1323 268.513 23.2453C268.637 23.9346 268.761 24.6351 268.897 25.46C269.112 25.2114 269.247 25.0645 269.371 24.9063C270.49 23.4261 272.016 22.782 273.824 22.6803C275.191 22.6012 276.524 22.7029 277.824 23.2001C278.648 23.5165 279.552 24.0363 280.129 24.6803C279.372 26.1267 278.603 27.607 277.824 29.0759C277.451 28.8386 277.134 28.6126 276.795 28.4431C274.818 27.4149 272.852 27.5618 270.953 28.6239C270.016 29.155 269.496 30.059 269.179 31.0647C268.976 31.7087 268.908 32.3641 268.908 33.0308C268.919 36.432 268.908 39.8332 268.908 43.2231C268.919 43.4717 268.919 43.6977 268.919 44.0141Z" fill="#0282A6"/>
<path d="M63.7062 35.7427C63.6723 39.1326 63.3333 41.6976 62.6102 44.2174C61.7062 47.3475 60.2711 50.195 58.3276 52.8052C57.8191 53.4832 57.1411 53.8109 56.3049 53.6414C55.5027 53.4832 54.9603 52.986 54.7117 52.2063C54.5083 51.5396 54.6891 50.952 55.062 50.3871C55.6948 49.4379 56.3501 48.5113 56.8812 47.517C57.9208 45.6073 58.644 43.5734 59.1186 41.4377C59.6496 39.0309 59.7626 36.6128 59.514 34.1946C59.096 30.059 57.6496 26.2849 55.175 22.9289C54.2371 21.6633 54.6891 20.1266 56.1128 19.6407C56.8925 19.3808 57.7513 19.6407 58.305 20.3299C59.4462 21.765 60.3276 23.3583 61.1299 24.9967C62.1582 27.1097 62.8587 29.3471 63.2429 31.6635C63.5141 33.2568 63.6158 34.8952 63.7062 35.7427Z" fill="#0282A6"/>
<path d="M181.415 44.0142C179.709 44.0142 178.036 44.0142 176.33 44.0142C176.33 37.0649 176.33 30.1495 176.33 23.1437C178.014 23.0985 179.697 23.1324 181.415 23.1211C181.415 30.1043 181.415 37.0197 181.415 44.0142Z" fill="#47BCCA"/>
<path d="M338.966 39.7203C336.107 39.7203 333.339 39.7203 330.525 39.7203C330.593 40.6017 331.068 41.1554 331.746 41.5396C332.74 42.0932 333.814 42.1384 334.876 41.8447C335.486 41.6752 336.062 41.3701 336.706 41.0989C337.17 41.5961 337.701 42.1497 338.266 42.7486C337.949 43.1893 337.43 43.4944 336.898 43.743C335.023 44.6131 333.09 44.7374 331.136 44.0368C329.644 43.5057 328.605 42.4887 328.085 41.0085C327.486 39.3022 327.486 37.5847 328.288 35.9236C329.09 34.2626 330.48 33.3812 332.254 33.0422C333.35 32.8275 334.435 32.9066 335.509 33.223C337.339 33.7654 338.39 35.0197 338.853 36.8163C339.057 37.7429 339 38.692 338.966 39.7203ZM330.571 37.4039C332.525 37.4039 334.413 37.4039 336.322 37.4039C336.254 36.6129 335.87 36.0592 335.215 35.7315C334.028 35.1439 332.842 35.1891 331.701 35.8445C331.124 36.1722 330.718 36.6694 330.571 37.4039Z" fill="#47BCCA"/>
<path d="M316.536 33.2908C317.632 33.2908 318.627 33.2908 319.734 33.2908C320.469 35.9236 321.214 38.579 321.949 41.2005C322.638 38.6016 323.327 35.9575 324.039 33.2908C325.022 33.2908 325.96 33.2908 327 33.2908C325.87 36.9519 324.717 40.5565 323.565 44.2062C322.48 44.2062 321.407 44.2062 320.254 44.2062C319.034 40.613 317.802 36.9858 316.536 33.2908Z" fill="#47BCCA"/>
<path d="M305.723 28.9291C306.649 28.9291 307.463 28.9291 308.355 28.9291C308.355 29.189 308.355 29.415 308.355 29.641C308.355 33.1891 308.355 36.7484 308.355 40.2965C308.355 40.4095 308.355 40.5112 308.355 40.6242C308.31 41.8559 308.819 42.2175 309.847 42.0706C309.904 42.0593 309.971 42.0819 310.062 42.0932C310.084 42.1949 310.118 42.2966 310.118 42.3983C310.118 42.9181 310.118 43.4266 310.118 43.9689C309 44.3757 307.926 44.3983 306.898 43.8559C306.197 43.4831 305.858 42.839 305.768 42.0706C305.734 41.7768 305.734 41.4717 305.734 41.1666C305.734 37.3134 305.734 33.4602 305.734 29.6071C305.723 29.4037 305.723 29.189 305.723 28.9291Z" fill="#47BCCA"/>
<path d="M315.237 44.1384C314.333 44.1384 313.474 44.1384 312.627 44.1384C312.491 43.6638 312.457 34.0252 312.593 33.2794C313.451 33.2794 314.322 33.2794 315.237 33.2794C315.237 36.8953 315.237 40.4773 315.237 44.1384Z" fill="#47BCCA"/>
<path d="M175.844 17.3808C175.788 15.4486 177.132 14.3412 178.839 14.3299C180.647 14.3073 181.912 15.4486 181.946 17.3017C181.98 18.9741 180.805 20.33 178.929 20.3639C177.313 20.3752 175.81 19.2905 175.844 17.3808Z" fill="#47BCCA"/>
<path d="M313.915 31.7653C312.92 31.7653 312.321 31.2004 312.31 30.2512C312.299 29.2907 312.966 28.6353 313.926 28.6466C314.841 28.6579 315.519 29.3246 315.519 30.2286C315.519 31.1439 314.887 31.754 313.915 31.7653Z" fill="#47BCCA"/>
<path d="M303.485 42.579C303.485 43.4378 302.796 44.1271 301.915 44.1271C301.022 44.1384 300.321 43.4265 300.333 42.5225C300.344 41.6412 301.022 40.9745 301.892 40.9745C302.807 40.9745 303.497 41.6638 303.485 42.579Z" fill="#47BCCA"/>
</svg>
