<svg width="198" height="13" viewBox="0 0 198 13" fill="none" xmlns="http://www.w3.org/2000/svg">
<path d="M4.10944 10.13C2.80077 10.13 1.82577 9.805 1.18444 9.155C0.551771 8.49633 0.235438 7.52567 0.235438 6.243V0.834999H1.91244V6.23C1.91244 7.04467 2.08577 7.66 2.43244 8.076C2.78777 8.492 3.34677 8.7 4.10944 8.7C4.83744 8.7 5.38344 8.492 5.74744 8.076C6.1201 7.66 6.30644 7.04467 6.30644 6.23V0.834999H7.95744V6.243C7.95744 7.52567 7.63244 8.49633 6.98244 9.155C6.3411 9.805 5.38344 10.13 4.10944 10.13ZM9.78048 10V5.073C9.78048 4.80433 9.77182 4.53133 9.75448 4.254C9.73715 3.97667 9.71115 3.70367 9.67648 3.435H11.2495L11.3795 4.735H11.2235C11.4315 4.27567 11.7392 3.92467 12.1465 3.682C12.5538 3.43067 13.0262 3.305 13.5635 3.305C14.3348 3.305 14.9155 3.52167 15.3055 3.955C15.6955 4.38833 15.8905 5.06433 15.8905 5.983V10H14.2655V6.061C14.2655 5.53233 14.1615 5.15533 13.9535 4.93C13.7542 4.696 13.4508 4.579 13.0435 4.579C12.5408 4.579 12.1422 4.735 11.8475 5.047C11.5528 5.359 11.4055 5.775 11.4055 6.295V10H9.78048ZM20.1485 10.13C19.5765 10.13 19.0738 9.99567 18.6405 9.727C18.2072 9.44967 17.8692 9.05533 17.6265 8.544C17.3838 8.03267 17.2625 7.42167 17.2625 6.711C17.2625 6.00033 17.3838 5.39367 17.6265 4.891C17.8692 4.37967 18.2072 3.98967 18.6405 3.721C19.0738 3.44367 19.5765 3.305 20.1485 3.305C20.7032 3.305 21.1885 3.44367 21.6045 3.721C22.0292 3.98967 22.3108 4.35367 22.4495 4.813H22.3065L22.4495 3.435H24.0095C23.9835 3.70367 23.9575 3.97667 23.9315 4.254C23.9142 4.53133 23.9055 4.80433 23.9055 5.073V10H22.2935L22.2805 8.648H22.4365C22.2978 9.09867 22.0162 9.45833 21.5915 9.727C21.1668 9.99567 20.6858 10.13 20.1485 10.13ZM20.6035 8.882C21.1148 8.882 21.5265 8.70433 21.8385 8.349C22.1505 7.985 22.3065 7.439 22.3065 6.711C22.3065 5.983 22.1505 5.44133 21.8385 5.086C21.5265 4.73067 21.1148 4.553 20.6035 4.553C20.0922 4.553 19.6805 4.73067 19.3685 5.086C19.0565 5.44133 18.9005 5.983 18.9005 6.711C18.9005 7.439 19.0522 7.985 19.3555 8.349C19.6675 8.70433 20.0835 8.882 20.6035 8.882ZM31.7774 10.13C31.2054 10.13 30.7027 9.99567 30.2694 9.727C29.8361 9.44967 29.4981 9.05533 29.2554 8.544C29.0127 8.03267 28.8914 7.42167 28.8914 6.711C28.8914 6.00033 29.0127 5.39367 29.2554 4.891C29.4981 4.37967 29.8361 3.98967 30.2694 3.721C30.7027 3.44367 31.2054 3.305 31.7774 3.305C32.3321 3.305 32.8174 3.44367 33.2334 3.721C33.6581 3.98967 33.9397 4.35367 34.0784 4.813H33.9354L34.0784 3.435H35.6384C35.6124 3.70367 35.5864 3.97667 35.5604 4.254C35.5431 4.53133 35.5344 4.80433 35.5344 5.073V10H33.9224L33.9094 8.648H34.0654C33.9267 9.09867 33.6451 9.45833 33.2204 9.727C32.7957 9.99567 32.3147 10.13 31.7774 10.13ZM32.2324 8.882C32.7437 8.882 33.1554 8.70433 33.4674 8.349C33.7794 7.985 33.9354 7.439 33.9354 6.711C33.9354 5.983 33.7794 5.44133 33.4674 5.086C33.1554 4.73067 32.7437 4.553 32.2324 4.553C31.7211 4.553 31.3094 4.73067 30.9974 5.086C30.6854 5.44133 30.5294 5.983 30.5294 6.711C30.5294 7.439 30.6811 7.985 30.9844 8.349C31.2964 8.70433 31.7124 8.882 32.2324 8.882ZM37.3039 10V0.431999H38.9289V10H37.3039ZM40.6936 10V3.435H42.3186V10H40.6936ZM40.6026 2.2V0.613999H42.4096V2.2H40.6026ZM46.6182 10.13C46.0462 10.13 45.5436 9.99567 45.1102 9.727C44.6769 9.44967 44.3389 9.05533 44.0962 8.544C43.8536 8.03267 43.7322 7.42167 43.7322 6.711C43.7322 6.00033 43.8536 5.39367 44.0962 4.891C44.3389 4.37967 44.6769 3.98967 45.1102 3.721C45.5436 3.44367 46.0462 3.305 46.6182 3.305C47.1729 3.305 47.6582 3.44367 48.0742 3.721C48.4989 3.98967 48.7806 4.35367 48.9192 4.813H48.7762L48.9192 3.435H50.4792C50.4532 3.70367 50.4272 3.97667 50.4012 4.254C50.3839 4.53133 50.3752 4.80433 50.3752 5.073V10H48.7632L48.7502 8.648H48.9062C48.7676 9.09867 48.4859 9.45833 48.0612 9.727C47.6366 9.99567 47.1556 10.13 46.6182 10.13ZM47.0732 8.882C47.5846 8.882 47.9962 8.70433 48.3082 8.349C48.6202 7.985 48.7762 7.439 48.7762 6.711C48.7762 5.983 48.6202 5.44133 48.3082 5.086C47.9962 4.73067 47.5846 4.553 47.0732 4.553C46.5619 4.553 46.1502 4.73067 45.8382 5.086C45.5262 5.44133 45.3702 5.983 45.3702 6.711C45.3702 7.439 45.5219 7.985 45.8252 8.349C46.1372 8.70433 46.5532 8.882 47.0732 8.882ZM52.1447 10V5.073C52.1447 4.80433 52.1361 4.53133 52.1187 4.254C52.1014 3.97667 52.0754 3.70367 52.0407 3.435H53.6137L53.7437 4.735H53.5877C53.7957 4.27567 54.1034 3.92467 54.5107 3.682C54.9181 3.43067 55.3904 3.305 55.9277 3.305C56.6991 3.305 57.2797 3.52167 57.6697 3.955C58.0597 4.38833 58.2547 5.06433 58.2547 5.983V10H56.6297V6.061C56.6297 5.53233 56.5257 5.15533 56.3177 4.93C56.1184 4.696 55.8151 4.579 55.4077 4.579C54.9051 4.579 54.5064 4.735 54.2117 5.047C53.9171 5.359 53.7697 5.775 53.7697 6.295V10H52.1447ZM59.7178 10V8.934L63.8258 4.267V4.657H59.7178V3.435H65.2948V4.501L61.1478 9.207L61.1348 8.778H65.4378V10H59.7178ZM69.292 10.13C68.72 10.13 68.2174 9.99567 67.784 9.727C67.3507 9.44967 67.0127 9.05533 66.77 8.544C66.5274 8.03267 66.406 7.42167 66.406 6.711C66.406 6.00033 66.5274 5.39367 66.77 4.891C67.0127 4.37967 67.3507 3.98967 67.784 3.721C68.2174 3.44367 68.72 3.305 69.292 3.305C69.8467 3.305 70.332 3.44367 70.748 3.721C71.1727 3.98967 71.4544 4.35367 71.593 4.813H71.45L71.593 3.435H73.153C73.127 3.70367 73.101 3.97667 73.075 4.254C73.0577 4.53133 73.049 4.80433 73.049 5.073V10H71.437L71.424 8.648H71.58C71.4414 9.09867 71.1597 9.45833 70.735 9.727C70.3104 9.99567 69.8294 10.13 69.292 10.13ZM69.747 8.882C70.2584 8.882 70.67 8.70433 70.982 8.349C71.294 7.985 71.45 7.439 71.45 6.711C71.45 5.983 71.294 5.44133 70.982 5.086C70.67 4.73067 70.2584 4.553 69.747 4.553C69.2357 4.553 68.824 4.73067 68.512 5.086C68.2 5.44133 68.044 5.983 68.044 6.711C68.044 7.439 68.1957 7.985 68.499 8.349C68.811 8.70433 69.227 8.882 69.747 8.882ZM80.934 10.13C80.362 10.13 79.855 9.99567 79.413 9.727C78.9796 9.44967 78.6416 9.05533 78.399 8.544C78.1563 8.03267 78.035 7.42167 78.035 6.711C78.035 6.00033 78.1563 5.39367 78.399 4.891C78.6416 4.37967 78.9796 3.98967 79.413 3.721C79.855 3.44367 80.362 3.305 80.934 3.305C81.48 3.305 81.961 3.43933 82.377 3.708C82.8016 3.968 83.0833 4.32333 83.222 4.774H83.053V0.431999H84.678V10H83.079V8.609H83.235C83.0963 9.077 82.8146 9.44967 82.39 9.727C81.974 9.99567 81.4886 10.13 80.934 10.13ZM81.389 8.882C81.9003 8.882 82.312 8.70433 82.624 8.349C82.936 7.985 83.092 7.439 83.092 6.711C83.092 5.983 82.936 5.44133 82.624 5.086C82.312 4.73067 81.9003 4.553 81.389 4.553C80.8776 4.553 80.4616 4.73067 80.141 5.086C79.829 5.44133 79.673 5.983 79.673 6.711C79.673 7.439 79.829 7.985 80.141 8.349C80.4616 8.70433 80.8776 8.882 81.389 8.882ZM89.6195 10.13C88.5188 10.13 87.6565 9.82667 87.0325 9.22C86.4085 8.61333 86.0965 7.78133 86.0965 6.724C86.0965 6.03933 86.2308 5.44133 86.4995 4.93C86.7681 4.41867 87.1408 4.02 87.6175 3.734C88.1028 3.448 88.6661 3.305 89.3075 3.305C89.9401 3.305 90.4688 3.43933 90.8935 3.708C91.3181 3.97667 91.6388 4.35367 91.8555 4.839C92.0808 5.32433 92.1935 5.892 92.1935 6.542V6.971H87.4095V6.113H91.0365L90.8155 6.295C90.8155 5.68833 90.6855 5.22467 90.4255 4.904C90.1741 4.58333 89.8058 4.423 89.3205 4.423C88.7831 4.423 88.3671 4.61367 88.0725 4.995C87.7865 5.37633 87.6435 5.90933 87.6435 6.594V6.763C87.6435 7.47367 87.8168 8.00667 88.1635 8.362C88.5188 8.70867 89.0171 8.882 89.6585 8.882C90.0311 8.882 90.3778 8.83433 90.6985 8.739C91.0278 8.635 91.3398 8.47033 91.6345 8.245L92.1155 9.337C91.8035 9.58833 91.4308 9.78333 90.9975 9.922C90.5641 10.0607 90.1048 10.13 89.6195 10.13ZM97.2799 10V0.834999H98.7489L102.116 8.414H101.713L105.08 0.834999H106.536V10H105.015V3.201H105.483L102.402 10H101.401L98.3199 3.201H98.8009V10H97.2799ZM111.62 10.13C110.52 10.13 109.657 9.82667 109.033 9.22C108.409 8.61333 108.097 7.78133 108.097 6.724C108.097 6.03933 108.232 5.44133 108.5 4.93C108.769 4.41867 109.142 4.02 109.618 3.734C110.104 3.448 110.667 3.305 111.308 3.305C111.941 3.305 112.47 3.43933 112.894 3.708C113.319 3.97667 113.64 4.35367 113.856 4.839C114.082 5.32433 114.194 5.892 114.194 6.542V6.971H109.41V6.113H113.037L112.816 6.295C112.816 5.68833 112.686 5.22467 112.426 4.904C112.175 4.58333 111.807 4.423 111.321 4.423C110.784 4.423 110.368 4.61367 110.073 4.995C109.787 5.37633 109.644 5.90933 109.644 6.594V6.763C109.644 7.47367 109.818 8.00667 110.164 8.362C110.52 8.70867 111.018 8.882 111.659 8.882C112.032 8.882 112.379 8.83433 112.699 8.739C113.029 8.635 113.341 8.47033 113.635 8.245L114.116 9.337C113.804 9.58833 113.432 9.78333 112.998 9.922C112.565 10.0607 112.106 10.13 111.62 10.13ZM118.119 10.13C117.547 10.13 117.04 9.99567 116.598 9.727C116.164 9.44967 115.826 9.05533 115.584 8.544C115.341 8.03267 115.22 7.42167 115.22 6.711C115.22 6.00033 115.341 5.39367 115.584 4.891C115.826 4.37967 116.164 3.98967 116.598 3.721C117.04 3.44367 117.547 3.305 118.119 3.305C118.665 3.305 119.146 3.43933 119.562 3.708C119.986 3.968 120.268 4.32333 120.407 4.774H120.238V0.431999H121.863V10H120.264V8.609H120.42C120.281 9.077 119.999 9.44967 119.575 9.727C119.159 9.99567 118.673 10.13 118.119 10.13ZM118.574 8.882C119.085 8.882 119.497 8.70433 119.809 8.349C120.121 7.985 120.277 7.439 120.277 6.711C120.277 5.983 120.121 5.44133 119.809 5.086C119.497 4.73067 119.085 4.553 118.574 4.553C118.062 4.553 117.646 4.73067 117.326 5.086C117.014 5.44133 116.858 5.983 116.858 6.711C116.858 7.439 117.014 7.985 117.326 8.349C117.646 8.70433 118.062 8.882 118.574 8.882ZM123.632 10V3.435H125.257V10H123.632ZM123.541 2.2V0.613999H125.348V2.2H123.541ZM129.362 10.13C128.798 10.13 128.278 10.065 127.802 9.935C127.334 9.79633 126.939 9.60567 126.619 9.363L127.074 8.271C127.403 8.49633 127.767 8.66967 128.166 8.791C128.564 8.91233 128.967 8.973 129.375 8.973C129.808 8.973 130.129 8.89933 130.337 8.752C130.553 8.60467 130.662 8.40533 130.662 8.154C130.662 7.95467 130.592 7.79867 130.454 7.686C130.324 7.56467 130.111 7.47367 129.817 7.413L128.517 7.166C127.962 7.04467 127.537 6.83667 127.243 6.542C126.957 6.24733 126.814 5.86167 126.814 5.385C126.814 4.97767 126.922 4.618 127.139 4.306C127.364 3.994 127.68 3.75133 128.088 3.578C128.504 3.396 128.989 3.305 129.544 3.305C130.029 3.305 130.484 3.37 130.909 3.5C131.342 3.63 131.706 3.825 132.001 4.085L131.533 5.138C131.264 4.92133 130.956 4.75233 130.61 4.631C130.263 4.50967 129.925 4.449 129.596 4.449C129.145 4.449 128.816 4.53133 128.608 4.696C128.4 4.852 128.296 5.05567 128.296 5.307C128.296 5.49767 128.356 5.658 128.478 5.788C128.608 5.90933 128.807 6.00033 129.076 6.061L130.376 6.308C130.956 6.42067 131.394 6.62 131.689 6.906C131.992 7.18333 132.144 7.56467 132.144 8.05C132.144 8.48333 132.027 8.856 131.793 9.168C131.559 9.48 131.234 9.71833 130.818 9.883C130.402 10.0477 129.916 10.13 129.362 10.13ZM133.534 10V5.073C133.534 4.80433 133.526 4.53133 133.508 4.254C133.491 3.97667 133.465 3.70367 133.43 3.435H135.003L135.133 4.735H134.977C135.159 4.28433 135.437 3.93333 135.809 3.682C136.191 3.43067 136.641 3.305 137.161 3.305C137.681 3.305 138.11 3.43067 138.448 3.682C138.795 3.92467 139.038 4.306 139.176 4.826H138.968C139.15 4.358 139.449 3.98967 139.865 3.721C140.281 3.44367 140.758 3.305 141.295 3.305C142.032 3.305 142.582 3.52167 142.946 3.955C143.31 4.38833 143.492 5.06433 143.492 5.983V10H141.867V6.048C141.867 5.528 141.781 5.15533 141.607 4.93C141.434 4.696 141.157 4.579 140.775 4.579C140.325 4.579 139.969 4.73933 139.709 5.06C139.449 5.372 139.319 5.79667 139.319 6.334V10H137.694V6.048C137.694 5.528 137.608 5.15533 137.434 4.93C137.261 4.696 136.984 4.579 136.602 4.579C136.152 4.579 135.796 4.73933 135.536 5.06C135.285 5.372 135.159 5.79667 135.159 6.334V10H133.534ZM147.762 10.13C147.19 10.13 146.687 9.99567 146.254 9.727C145.82 9.44967 145.482 9.05533 145.24 8.544C144.997 8.03267 144.876 7.42167 144.876 6.711C144.876 6.00033 144.997 5.39367 145.24 4.891C145.482 4.37967 145.82 3.98967 146.254 3.721C146.687 3.44367 147.19 3.305 147.762 3.305C148.316 3.305 148.802 3.44367 149.218 3.721C149.642 3.98967 149.924 4.35367 150.063 4.813H149.92L150.063 3.435H151.623C151.597 3.70367 151.571 3.97667 151.545 4.254C151.527 4.53133 151.519 4.80433 151.519 5.073V10H149.907L149.894 8.648H150.05C149.911 9.09867 149.629 9.45833 149.205 9.727C148.78 9.99567 148.299 10.13 147.762 10.13ZM148.217 8.882C148.728 8.882 149.14 8.70433 149.452 8.349C149.764 7.985 149.92 7.439 149.92 6.711C149.92 5.983 149.764 5.44133 149.452 5.086C149.14 4.73067 148.728 4.553 148.217 4.553C147.705 4.553 147.294 4.73067 146.982 5.086C146.67 5.44133 146.514 5.983 146.514 6.711C146.514 7.439 146.665 7.985 146.969 8.349C147.281 8.70433 147.697 8.882 148.217 8.882ZM153.275 10V5.112C153.275 4.83467 153.267 4.553 153.249 4.267C153.241 3.981 153.219 3.70367 153.184 3.435H154.757L154.939 5.229H154.679C154.766 4.79567 154.909 4.436 155.108 4.15C155.316 3.864 155.568 3.65167 155.862 3.513C156.157 3.37433 156.478 3.305 156.824 3.305C156.98 3.305 157.106 3.31367 157.201 3.331C157.297 3.33967 157.392 3.36133 157.487 3.396L157.474 4.826C157.31 4.75667 157.167 4.71333 157.045 4.696C156.933 4.67867 156.79 4.67 156.616 4.67C156.244 4.67 155.927 4.748 155.667 4.904C155.416 5.06 155.225 5.27667 155.095 5.554C154.974 5.83133 154.913 6.14767 154.913 6.503V10H153.275ZM161.568 10.13C160.788 10.13 160.199 9.92633 159.8 9.519C159.401 9.11167 159.202 8.50067 159.202 7.686V4.657H157.941V3.435H159.202V1.758L160.827 1.342V3.435H162.582V4.657H160.827V7.582C160.827 8.03267 160.914 8.349 161.087 8.531C161.26 8.713 161.499 8.804 161.802 8.804C161.967 8.804 162.105 8.791 162.218 8.765C162.339 8.739 162.456 8.70433 162.569 8.661V9.948C162.422 10.0087 162.257 10.052 162.075 10.078C161.902 10.1127 161.733 10.13 161.568 10.13ZM163.732 10V8.193H165.552V10H163.732ZM167.139 10V0.431999H168.764V10H167.139ZM170.529 10V3.435H172.154V10H170.529ZM170.438 2.2V0.613999H172.245V2.2H170.438ZM175.842 10L173.008 3.435H174.737L176.791 8.57H176.388L178.494 3.435H180.119L177.272 10H175.842ZM184.035 10.13C182.934 10.13 182.072 9.82667 181.448 9.22C180.824 8.61333 180.512 7.78133 180.512 6.724C180.512 6.03933 180.646 5.44133 180.915 4.93C181.183 4.41867 181.556 4.02 182.033 3.734C182.518 3.448 183.081 3.305 183.723 3.305C184.355 3.305 184.884 3.43933 185.309 3.708C185.733 3.97667 186.054 4.35367 186.271 4.839C186.496 5.32433 186.609 5.892 186.609 6.542V6.971H181.825V6.113H185.452L185.231 6.295C185.231 5.68833 185.101 5.22467 184.841 4.904C184.589 4.58333 184.221 4.423 183.736 4.423C183.198 4.423 182.782 4.61367 182.488 4.995C182.202 5.37633 182.059 5.90933 182.059 6.594V6.763C182.059 7.47367 182.232 8.00667 182.579 8.362C182.934 8.70867 183.432 8.882 184.074 8.882C184.446 8.882 184.793 8.83433 185.114 8.739C185.443 8.635 185.755 8.47033 186.05 8.245L186.531 9.337C186.219 9.58833 185.846 9.78333 185.413 9.922C184.979 10.0607 184.52 10.13 184.035 10.13ZM191.422 12.951L191.045 11.664C191.452 11.5773 191.795 11.4777 192.072 11.365C192.349 11.2523 192.579 11.105 192.761 10.923C192.943 10.741 193.095 10.507 193.216 10.221L193.541 9.454L193.502 10.091L190.642 3.435H192.371L194.425 8.557H194.048L196.115 3.435H197.753L194.763 10.364C194.564 10.832 194.347 11.2177 194.113 11.521C193.879 11.833 193.628 12.08 193.359 12.262C193.09 12.4527 192.796 12.6 192.475 12.704C192.154 12.808 191.803 12.8903 191.422 12.951Z" fill="#A6A7AA"/>
</svg>
