<?xml version="1.0" encoding="UTF-8" standalone="no"?>
<svg
   width="107"
   height="97"
   viewBox="0 0 107 97"
   fill="none"
   version="1.1"
   id="svg429"
   sodipodi:docname="atencion-inmediata.svg"
   inkscape:version="1.2.2 (732a01da63, 2022-12-09)"
   xmlns:inkscape="http://www.inkscape.org/namespaces/inkscape"
   xmlns:sodipodi="http://sodipodi.sourceforge.net/DTD/sodipodi-0.dtd"
   xmlns="http://www.w3.org/2000/svg"
   xmlns:svg="http://www.w3.org/2000/svg">
  <sodipodi:namedview
     id="namedview431"
     pagecolor="#ffffff"
     bordercolor="#111111"
     borderopacity="1"
     inkscape:showpageshadow="0"
     inkscape:pageopacity="0"
     inkscape:pagecheckerboard="1"
     inkscape:deskcolor="#d1d1d1"
     showgrid="false"
     inkscape:zoom="6.0723706"
     inkscape:cx="15.809312"
     inkscape:cy="56.732374"
     inkscape:window-width="1920"
     inkscape:window-height="991"
     inkscape:window-x="-9"
     inkscape:window-y="-9"
     inkscape:window-maximized="1"
     inkscape:current-layer="svg429" />
  <g
     clip-path="url(#clip0_0_207)"
     id="g422">
    <path
       d="M15.0516 90.6284H12.7964L12.3677 91.9146H11L13.3238 85.6721H14.5157L16.8524 91.9146H15.4847L15.0516 90.6284ZM13.1437 89.5865H14.7043L13.9197 87.2498L13.1437 89.5865ZM21.62 86.714H19.7078V91.9146H18.4216V86.714H16.5351V85.6721H21.62V86.714ZM26.1132 89.2092H23.6437V90.8813H26.542V91.9146H22.3575V85.6721H26.5334V86.714H23.6437V88.2016H26.1132V89.2092ZM32.3729 91.9146H31.0867L28.5828 87.8072V91.9146H27.2966V85.6721H28.5828L31.091 89.788V85.6721H32.3729V91.9146ZM38.3967 89.8352C38.3482 90.5069 38.0995 91.0356 37.6508 91.4215C37.2049 91.8074 36.616 92 35.8843 92C35.084 92 34.4537 91.7316 33.9935 91.1943C33.5362 90.6541 33.3075 89.9138 33.3075 88.9734V88.5918C33.3075 87.9915 33.4133 87.4628 33.6248 87.0055C33.8364 86.5482 34.1379 86.198 34.5295 85.9551C34.9239 85.7092 35.3813 85.5864 35.9015 85.5864C36.6218 85.5864 37.202 85.7793 37.6421 86.1652C38.0823 86.551 38.3367 87.0926 38.4053 87.7901H37.1191C37.0877 87.387 36.9747 87.0955 36.7804 86.9154C36.5889 86.7325 36.2959 86.6411 35.9015 86.6411C35.4727 86.6411 35.1511 86.7954 34.9368 87.1041C34.7253 87.4099 34.6166 87.8858 34.611 88.5318V89.0034C34.611 89.678 34.7124 90.1711 34.9153 90.4826C35.1211 90.7942 35.4441 90.9499 35.8843 90.9499C36.2816 90.9499 36.5774 90.8599 36.7718 90.6798C36.9691 90.4969 37.0819 90.2154 37.1105 89.8352H38.3967ZM40.6091 91.9146H39.3229V85.6721H40.6091V91.9146ZM46.9331 88.9348C46.9331 89.5493 46.8244 90.0881 46.6072 90.5512C46.3899 91.0142 46.0784 91.3715 45.6726 91.6231C45.2695 91.8746 44.8065 92 44.2834 92C43.766 92 43.3044 91.876 42.8986 91.6273C42.4927 91.3786 42.1782 91.0242 41.9553 90.564C41.7323 90.101 41.6195 89.5693 41.6166 88.9691V88.6604C41.6166 88.0459 41.7267 87.5056 41.9468 87.0398C42.1697 86.571 42.4827 86.2123 42.8857 85.9636C43.2916 85.7121 43.7546 85.5864 44.2748 85.5864C44.7951 85.5864 45.2567 85.7121 45.6597 85.9636C46.0655 86.2123 46.3785 86.571 46.5986 87.0398C46.8216 87.5056 46.9331 88.0445 46.9331 88.6562V88.9348ZM45.6297 88.6518C45.6297 87.9973 45.5125 87.5 45.2781 87.1599C45.0437 86.8197 44.7093 86.6496 44.2748 86.6496C43.8432 86.6496 43.5103 86.8183 43.2758 87.1555C43.0415 87.4899 42.9229 87.9816 42.92 88.6304V88.9348C42.92 89.5722 43.0372 90.0667 43.2716 90.4183C43.506 90.7698 43.8432 90.9456 44.2834 90.9456C44.715 90.9456 45.0466 90.777 45.2781 90.4397C45.5096 90.0995 45.6268 89.6051 45.6297 88.9562V88.6518ZM44.5235 84H45.874L44.6864 85.3291H43.6789L44.5235 84ZM52.944 91.9146H51.6578L49.1539 87.8072V91.9146H47.8677V85.6721H49.1539L51.6621 89.788V85.6721H52.944V91.9146ZM57.6216 91.9146H56.3354V85.6721H57.6216V91.9146ZM63.8941 91.9146H62.6079L60.1041 87.8072V91.9146H58.8178V85.6721H60.1041L62.6123 89.788V85.6721H63.8941V91.9146ZM66.6981 85.6721L68.3016 90.1996L69.8966 85.6721H71.5859V91.9146H70.2953V90.2082L70.4239 87.2627L68.739 91.9146H67.8557L66.175 87.267L66.3037 90.2082V91.9146H65.0174V85.6721H66.6981ZM76.465 89.2092H73.9954V90.8813H76.8937V91.9146H72.7092V85.6721H76.8851V86.714H73.9954V88.2016H76.465V89.2092ZM77.6483 91.9146V85.6721H79.569C80.1178 85.6721 80.608 85.7964 81.0396 86.0451C81.4741 86.2909 81.8128 86.6424 82.0558 87.0998C82.2987 87.5543 82.4202 88.0716 82.4202 88.6518V88.9391C82.4202 89.5193 82.3001 90.0353 82.06 90.4868C81.8228 90.9385 81.487 91.2886 81.0525 91.5373C80.6181 91.786 80.1279 91.9117 79.5819 91.9146H77.6483ZM78.9345 86.714V90.8813H79.5562C80.0592 90.8813 80.4436 90.717 80.7095 90.3883C80.9754 90.0595 81.1111 89.5894 81.1168 88.9777V88.6475C81.1168 88.013 80.9853 87.5328 80.7224 87.2069C80.4594 86.8783 80.0749 86.714 79.569 86.714H78.9345ZM84.7269 91.9146H83.4406V85.6721H84.7269V91.9146ZM89.5245 90.6284H87.2693L86.8405 91.9146H85.4728L87.7967 85.6721H88.9885L91.3252 91.9146H89.9575L89.5245 90.6284ZM87.6166 89.5865H89.1772L88.3926 87.2498L87.6166 89.5865ZM96.0931 86.714H94.1805V91.9146H92.8946V86.714H91.0083V85.6721H96.0931V86.714ZM99.8401 90.6284H97.5851L97.1564 91.9146H95.7882L98.1119 85.6721H99.3045L101.641 91.9146H100.273L99.8401 90.6284ZM97.9323 89.5865H99.4929L98.7082 87.2498L97.9323 89.5865Z"
       fill="white"
       id="path418" />
    <path
       d="M55.3455 33.7594C64.516 33.7594 72.1144 26.2921 72.1144 16.9906C72.1144 7.82009 64.516 0.221695 55.3455 0.221695C46.044 0.221695 38.5767 7.82009 38.5767 16.9906C38.5767 26.2921 46.044 33.7594 55.3455 33.7594ZM55.3455 4.41391C62.1579 4.41391 67.9222 10.1782 67.9222 16.9906C67.9222 23.9339 62.1579 29.5672 55.3455 29.5672C48.4022 29.5672 42.7689 23.9339 42.7689 16.9906C42.7689 10.1782 48.4022 4.41391 55.3455 4.41391ZM67.5291 38.0826C63.0749 37.9516 61.7648 40.0478 55.3455 40.0478C48.7952 40.0478 47.4851 37.9516 43.0308 38.0826C33.5983 38.3447 26 46.0741 26 55.6376V66.2491C26 66.9041 26.393 67.2972 27.0481 67.2972H29.1442C29.6682 67.2972 30.1922 66.9041 30.1922 66.2491V55.6376C30.1922 48.5632 35.6945 42.6679 42.7689 42.2748V53.0175C39.6247 53.9344 37.5286 56.6856 37.5286 59.9608C37.5286 64.022 40.8037 67.2972 44.865 67.2972C48.7952 67.2972 52.2014 64.022 52.2014 59.9608C52.2014 56.6856 49.9743 53.9344 46.9611 53.0175V42.93C49.5812 43.8469 52.4633 44.24 55.3455 44.24C58.0966 44.24 60.9788 43.8469 63.7299 42.93V51.9694C59.9308 52.8864 57.4416 56.4236 57.4416 60.3538V64.153C57.4416 64.808 57.5726 65.332 57.9657 65.7251L59.4068 67.0352C59.7997 67.4282 60.4548 67.4282 60.8478 67.0352L62.2889 65.5941C62.6819 65.2011 62.6819 64.546 62.2889 64.022L61.5029 63.3669V59.9608C61.5029 57.4716 63.8609 55.5066 66.4811 55.8996C68.5772 56.1616 69.8873 58.1266 69.8873 60.2228V63.3669L69.2322 64.022C68.8392 64.546 68.8392 65.2011 69.2322 65.5941L70.6733 67.0352C71.0663 67.4282 71.7213 67.4282 72.1144 67.0352L73.5555 65.7251C73.9485 65.332 74.0795 64.808 74.0795 64.153V59.9608C74.0795 56.1616 71.4594 52.8864 67.7912 51.9694V42.2748C74.8655 42.7989 80.3678 48.5632 80.3678 55.6376V66.2491C80.3678 66.9041 80.8919 67.2972 81.4159 67.2972H83.512C84.167 67.2972 84.5601 66.9041 84.5601 66.2491V55.6376C84.691 46.0741 77.0927 38.3447 67.5291 38.0826ZM48.0091 59.9608C48.0091 61.7949 46.568 63.1049 44.865 63.1049C43.0308 63.1049 41.7208 61.7949 41.7208 59.9608C41.7208 58.2577 43.0308 56.8166 44.865 56.8166C46.568 56.8166 48.0091 58.2577 48.0091 59.9608Z"
       fill="white"
       id="path420" />
  </g>
  <defs
     id="defs427">
    <clipPath
       id="clip0_0_207">
      <rect
         width="106.203"
         height="95.9552"
         fill="white"
         transform="translate(0.63208 0.221695)"
         id="rect424" />
    </clipPath>
  </defs>
</svg>
