<?xml version="1.0" encoding="UTF-8" standalone="no"?>
<svg
   width="100"
   height="90"
   viewBox="0 0 100 90"
   fill="none"
   version="1.1"
   id="svg15"
   sodipodi:docname="atencion-agendable.svg"
   inkscape:version="1.2.2 (732a01da63, 2022-12-09)"
   xmlns:inkscape="http://www.inkscape.org/namespaces/inkscape"
   xmlns:sodipodi="http://sodipodi.sourceforge.net/DTD/sodipodi-0.dtd"
   xmlns="http://www.w3.org/2000/svg"
   xmlns:svg="http://www.w3.org/2000/svg">
  <defs
     id="defs19">
    <mask
       id="path-1-inside-1_12_106-0"
       fill="#ffffff">
      <path
         d="m 51.3455,33.7594 c 9.1705,0 16.7689,-7.4673 16.7689,-16.7688 0,-9.1705 -7.5984,-16.76889 -16.7689,-16.76889 -9.3015,0 -16.7688,7.59839 -16.7688,16.76889 0,9.3015 7.4673,16.7688 16.7688,16.7688 z m 0,-29.34547 c 6.8124,0 12.5767,5.76427 12.5767,12.57667 0,6.9433 -5.7643,12.5766 -12.5767,12.5766 -6.9433,0 -12.5766,-5.6333 -12.5766,-12.5766 0,-6.8124 5.6333,-12.57667 12.5766,-12.57667 z M 63.5291,38.0826 c -4.4542,-0.1309 -5.7643,1.9652 -12.1836,1.9652 -6.5503,0 -7.8604,-2.0961 -12.3147,-1.9652 C 29.5983,38.3447 22,46.0741 22,55.6376 v 10.6115 c 0,0.655 0.393,1.0481 1.0481,1.0481 h 2.0961 c 0.524,0 1.048,-0.3931 1.048,-1.0481 V 55.6376 c 0,-7.0744 5.5023,-12.9697 12.5767,-13.3627 v 10.7426 c -3.1442,0.9169 -5.2403,3.6682 -5.2403,6.9433 0,4.0612 3.2751,7.3364 7.3364,7.3364 3.9302,0 7.3364,-3.2752 7.3364,-7.3364 0,-3.2751 -2.2271,-6.0264 -5.2403,-6.9433 V 42.93 c 2.6201,0.9169 5.5022,1.31 8.3844,1.31 2.7511,0 5.6333,-0.3931 8.3844,-1.31 v 9.0394 c -3.7991,0.917 -6.2883,4.4542 -6.2883,8.3844 v 3.7992 c 0,0.655 0.131,1.1791 0.5241,1.5721 l 1.4411,1.3101 c 0.3929,0.393 1.048,0.393 1.441,0 l 1.4411,-1.4411 c 0.393,-0.393 0.393,-1.048 0,-1.5721 l -0.786,-0.6551 v -3.4061 c 0,-2.4891 2.358,-4.4542 4.9782,-4.0612 2.0961,0.262 3.4062,2.2271 3.4062,4.3232 v 3.1441 l -0.6551,0.6551 c -0.393,0.5241 -0.393,1.1791 0,1.5721 l 1.4411,1.4411 c 0.393,0.393 1.048,0.393 1.4411,0 l 1.4411,-1.3101 c 0.393,-0.393 0.524,-0.9171 0.524,-1.5721 v -4.1922 c 0,-3.7992 -2.6201,-7.0744 -6.2883,-7.9914 v -9.6945 c 7.0743,0.524 12.5766,6.2883 12.5766,13.3627 v 10.6115 c 0,0.655 0.5241,1.0481 1.0481,1.0481 h 2.0961 c 0.655,0 1.0481,-0.3931 1.0481,-1.0481 V 55.6376 C 80.691,46.0741 73.0927,38.3447 63.5291,38.0826 Z m -19.52,21.8782 c 0,1.8341 -1.4411,3.1442 -3.1441,3.1442 -1.8342,0 -3.1442,-1.3101 -3.1442,-3.1442 0,-1.7031 1.31,-3.1442 3.1442,-3.1442 1.703,0 3.1441,1.4411 3.1441,3.1442 z"
         id="path2-4" />
      <path
         d="M 4.29801,88.6284 H 1.90567 L 1.45086,89.9146 H 0 l 2.4651,-6.2425 h 1.26439 l 2.47875,6.2425 H 4.75737 Z M 2.27408,87.5865 H 3.92961 L 3.09729,85.2498 Z M 11.2657,84.714 H 9.23728 v 5.2006 H 7.87286 V 84.714 H 5.87167 v -1.0419 h 5.39403 z m 4.7665,2.4952 h -2.6197 v 1.6721 h 3.0746 v 1.0333 h -4.439 v -6.2425 h 4.4299 v 1.0419 h -3.0655 v 1.4876 h 2.6197 z m 6.6403,2.7054 H 21.3081 L 18.652,85.8072 v 4.1074 h -1.3644 v -6.2425 h 1.3644 l 2.6607,4.1159 v -4.1159 h 1.3598 z m 6.3902,-2.0794 c -0.0515,0.6717 -0.3153,1.2004 -0.7913,1.5863 C 27.7984,89.8074 27.1737,90 26.3975,90 25.5485,90 24.8799,89.7316 24.3917,89.1943 23.9066,88.6541 23.664,87.9138 23.664,86.9734 v -0.3816 c 0,-0.6003 0.1122,-1.129 0.3366,-1.5863 0.2244,-0.4574 0.5442,-0.8075 0.9597,-1.0504 0.4184,-0.2459 0.9036,-0.3687 1.4554,-0.3687 0.7641,0 1.3796,0.1929 1.8465,0.5788 0.467,0.3858 0.7368,0.9274 0.8096,1.6249 h -1.3645 c -0.0332,-0.4031 -0.1531,-0.6946 -0.3593,-0.8747 -0.2031,-0.1829 -0.5139,-0.2743 -0.9323,-0.2743 -0.4549,0 -0.7959,0.1543 -1.0233,0.4629 -0.2244,0.3059 -0.3397,0.7819 -0.3457,1.4278 v 0.4716 c 0,0.6746 0.1077,1.1677 0.3229,1.4792 0.2183,0.3116 0.5609,0.4673 1.0279,0.4673 0.4215,0 0.7353,-0.09 0.9415,-0.2701 0.2092,-0.1829 0.329,-0.4644 0.3593,-0.8446 z m 2.3469,2.0794 h -1.3645 v -6.2425 h 1.3645 z m 6.7085,-2.9798 c 0,0.6145 -0.1152,1.1533 -0.3456,1.6164 -0.2305,0.463 -0.561,0.8203 -0.9915,1.0719 C 36.3534,89.8746 35.8622,90 35.3073,90 34.7585,90 34.2688,89.876 33.8383,89.6273 33.4077,89.3786 33.0742,89.0242 32.8377,88.564 32.6012,88.101 32.4814,87.5693 32.4784,86.9691 v -0.3087 c 0,-0.6145 0.1167,-1.1548 0.3502,-1.6206 0.2365,-0.4688 0.5685,-0.8275 0.9961,-1.0762 0.4305,-0.2515 0.9217,-0.3772 1.4735,-0.3772 0.5519,0 1.0416,0.1257 1.4691,0.3772 0.4305,0.2487 0.7626,0.6074 0.996,1.0762 0.2365,0.4658 0.3548,1.0047 0.3548,1.6164 z m -1.3826,-0.283 c 0,-0.6545 -0.1243,-1.1518 -0.373,-1.4919 -0.2486,-0.3402 -0.6034,-0.5103 -1.0643,-0.5103 -0.4578,0 -0.811,0.1687 -1.0597,0.5059 -0.2486,0.3344 -0.3745,0.8261 -0.3775,1.4749 v 0.3044 c 0,0.6374 0.1243,1.1319 0.373,1.4835 0.2486,0.3515 0.6064,0.5273 1.0733,0.5273 0.4579,0 0.8096,-0.1686 1.0552,-0.5059 0.2456,-0.3402 0.3699,-0.8346 0.373,-1.4835 z M 35.562,82 h 1.4327 l -1.2599,1.3291 H 34.666 Z m 8.9327,7.9146 H 43.1301 L 40.474,85.8072 v 4.1074 h -1.3644 v -6.2425 h 1.3644 l 2.6607,4.1159 v -4.1159 h 1.36 z m 7.2497,-1.2862 h -2.3923 l -0.4548,1.2862 h -1.4509 l 2.465,-6.2425 h 1.2645 l 2.4787,6.2425 h -1.4508 z m -2.024,-1.0419 h 1.6556 l -0.8323,-2.3367 z m 9.6921,1.5392 C 59.167,89.4029 58.8198,89.6188 58.3711,89.7731 57.9223,89.925 57.425,90 56.8792,90 c -0.573,0 -1.0763,-0.1169 -1.51,-0.3512 -0.4305,-0.2373 -0.764,-0.5803 -1.0005,-1.029 -0.2335,-0.4487 -0.3533,-0.9761 -0.3593,-1.5821 v -0.4244 c 0,-0.6231 0.1107,-1.1619 0.332,-1.6164 0.2243,-0.4574 0.5457,-0.806 0.9641,-1.0461 0.4216,-0.243 0.9142,-0.3644 1.4782,-0.3644 0.7854,0 1.3994,0.1772 1.842,0.5316 0.4427,0.3515 0.705,0.8646 0.7868,1.5392 h -1.328 c -0.0606,-0.3573 -0.1956,-0.6188 -0.4047,-0.7846 -0.2062,-0.1658 -0.4913,-0.2487 -0.8551,-0.2487 -0.464,0 -0.8172,0.1644 -1.0598,0.493 -0.2425,0.3287 -0.3654,0.8175 -0.3683,1.4664 v 0.3987 c 0,0.6546 0.1318,1.149 0.3957,1.4835 0.2637,0.3343 0.6503,0.5016 1.1597,0.5016 0.5124,0 0.8778,-0.1029 1.0961,-0.3087 v -1.0762 h -1.2416 v -0.9475 h 2.606 z m 5.094,-1.9165 h -2.6197 v 1.6721 h 3.0745 v 1.0333 h -4.439 v -6.2425 h 4.4299 v 1.0419 h -3.0654 v 1.4876 h 2.6197 z m 6.6403,2.7054 h -1.3645 l -2.6561,-4.1074 v 4.1074 h -1.3644 v -6.2425 h 1.3644 l 2.6607,4.1159 v -4.1159 h 1.3599 z m 1.1916,0 v -6.2425 h 2.0376 c 0.5821,0 1.1021,0.1243 1.56,0.373 0.4609,0.2458 0.8202,0.5973 1.078,1.0547 0.2576,0.4545 0.3865,0.9718 0.3865,1.552 v 0.2873 c 0,0.5802 -0.1273,1.0962 -0.3821,1.5477 -0.2516,0.4517 -0.6079,0.8018 -1.0688,1.0505 -0.4608,0.2487 -0.9808,0.3744 -1.5599,0.3773 z m 1.3645,-5.2006 v 4.1673 h 0.6594 c 0.5337,0 0.9415,-0.1643 1.2236,-0.493 0.2819,-0.3288 0.4259,-0.7989 0.432,-1.4106 v -0.3302 c 0,-0.6345 -0.1395,-1.1147 -0.4184,-1.4406 -0.279,-0.3286 -0.6868,-0.4929 -1.2235,-0.4929 z m 8.3322,3.9144 h -2.3923 l -0.4548,1.2862 h -1.4509 l 2.4651,-6.2425 h 1.2644 l 2.4787,6.2425 h -1.4509 z m -2.024,-1.0419 h 1.6556 l -0.8323,-2.3367 z m 4.5529,2.3281 v -6.2425 h 2.3193 c 0.8036,0 1.4133,0.1457 1.8282,0.4373 0.4158,0.2887 0.6232,0.7131 0.6232,1.2734 0,0.3058 -0.0829,0.5759 -0.2497,0.8103 -0.1669,0.2315 -0.3989,0.4016 -0.6961,0.5102 0.3396,0.08 0.6063,0.2415 0.8002,0.4845 0.1973,0.2429 0.2955,0.5402 0.2955,0.8918 0,0.6002 -0.2024,1.0547 -0.6088,1.3634 -0.4065,0.3087 -0.9857,0.4658 -1.7376,0.4716 z m 1.3641,-2.7183 v 1.685 h 1.1694 c 0.321,0 0.5716,-0.0715 0.7503,-0.2144 0.1821,-0.1457 0.2727,-0.3459 0.2727,-0.6002 0,-0.5717 -0.3142,-0.8618 -0.9417,-0.8704 z m 0,-0.9089 h 1.0103 c 0.6875,-0.0114 1.0322,-0.2701 1.0322,-0.776 0,-0.283 -0.0881,-0.4859 -0.2642,-0.6088 -0.1728,-0.1258 -0.4471,-0.1886 -0.8231,-0.1886 h -0.9552 z m 5.9495,2.5939 h 2.8969 v 1.0333 h -4.2619 v -6.2425 h 1.365 z m 7.6677,-1.6721 h -2.6191 v 1.6721 H 100 v 1.0333 h -4.4389 v -6.2425 h 4.4304 v 1.0419 h -3.0653 v 1.4876 h 2.6191 z"
         id="path4-7" />
    </mask>
  </defs>
  <sodipodi:namedview
     id="namedview17"
     pagecolor="#ffffff"
     bordercolor="#111111"
     borderopacity="1"
     inkscape:showpageshadow="0"
     inkscape:pageopacity="0"
     inkscape:pagecheckerboard="1"
     inkscape:deskcolor="#d1d1d1"
     showgrid="false"
     inkscape:zoom="6.5446661"
     inkscape:cx="33.844355"
     inkscape:cy="52.332693"
     inkscape:window-width="1920"
     inkscape:window-height="991"
     inkscape:window-x="-9"
     inkscape:window-y="-9"
     inkscape:window-maximized="1"
     inkscape:current-layer="svg15" />
  <mask
     id="path-1-inside-1_12_106"
     fill="white">
    <path
       d="M51.3455 33.7594C60.516 33.7594 68.1144 26.2921 68.1144 16.9906C68.1144 7.8201 60.516 0.22171 51.3455 0.22171C42.044 0.22171 34.5767 7.8201 34.5767 16.9906C34.5767 26.2921 42.044 33.7594 51.3455 33.7594ZM51.3455 4.41393C58.1579 4.41393 63.9222 10.1782 63.9222 16.9906C63.9222 23.9339 58.1579 29.5672 51.3455 29.5672C44.4022 29.5672 38.7689 23.9339 38.7689 16.9906C38.7689 10.1782 44.4022 4.41393 51.3455 4.41393ZM63.5291 38.0826C59.0749 37.9517 57.7648 40.0478 51.3455 40.0478C44.7952 40.0478 43.4851 37.9517 39.0308 38.0826C29.5983 38.3447 22 46.0741 22 55.6376V66.2491C22 66.9041 22.393 67.2972 23.0481 67.2972H25.1442C25.6682 67.2972 26.1922 66.9041 26.1922 66.2491V55.6376C26.1922 48.5632 31.6945 42.6679 38.7689 42.2749V53.0175C35.6247 53.9344 33.5286 56.6857 33.5286 59.9608C33.5286 64.022 36.8037 67.2972 40.865 67.2972C44.7952 67.2972 48.2014 64.022 48.2014 59.9608C48.2014 56.6857 45.9743 53.9344 42.9611 53.0175V42.93C45.5812 43.8469 48.4633 44.24 51.3455 44.24C54.0966 44.24 56.9788 43.8469 59.7299 42.93V51.9694C55.9308 52.8864 53.4416 56.4236 53.4416 60.3538V64.153C53.4416 64.808 53.5726 65.3321 53.9657 65.7251L55.4068 67.0352C55.7997 67.4282 56.4548 67.4282 56.8478 67.0352L58.2889 65.5941C58.6819 65.2011 58.6819 64.5461 58.2889 64.022L57.5029 63.3669V59.9608C57.5029 57.4717 59.8609 55.5066 62.4811 55.8996C64.5772 56.1616 65.8873 58.1267 65.8873 60.2228V63.3669L65.2322 64.022C64.8392 64.5461 64.8392 65.2011 65.2322 65.5941L66.6733 67.0352C67.0663 67.4282 67.7213 67.4282 68.1144 67.0352L69.5555 65.7251C69.9485 65.3321 70.0795 64.808 70.0795 64.153V59.9608C70.0795 56.1616 67.4594 52.8864 63.7912 51.9694V42.2749C70.8655 42.7989 76.3678 48.5632 76.3678 55.6376V66.2491C76.3678 66.9041 76.8919 67.2972 77.4159 67.2972H79.512C80.167 67.2972 80.5601 66.9041 80.5601 66.2491V55.6376C80.691 46.0741 73.0927 38.3447 63.5291 38.0826ZM44.0091 59.9608C44.0091 61.7949 42.568 63.105 40.865 63.105C39.0308 63.105 37.7208 61.7949 37.7208 59.9608C37.7208 58.2577 39.0308 56.8166 40.865 56.8166C42.568 56.8166 44.0091 58.2577 44.0091 59.9608Z"
       id="path2" />
    <path
       d="M4.29801 88.6284H1.90567L1.45086 89.9146H0L2.4651 83.6721H3.72949L6.20824 89.9146H4.75737L4.29801 88.6284ZM2.27408 87.5865H3.92961L3.09729 85.2498L2.27408 87.5865ZM11.2657 84.714H9.23728V89.9146H7.87286V84.714H5.87167V83.6721H11.2657V84.714ZM16.0322 87.2092H13.4125V88.8813H16.4871V89.9146H12.0481V83.6721H16.478V84.714H13.4125V86.2016H16.0322V87.2092ZM22.6725 89.9146H21.3081L18.652 85.8072V89.9146H17.2876V83.6721H18.652L21.3127 87.788V83.6721H22.6725V89.9146ZM29.0627 87.8352C29.0112 88.5069 28.7474 89.0356 28.2714 89.4215C27.7984 89.8074 27.1737 90 26.3975 90C25.5485 90 24.8799 89.7316 24.3917 89.1943C23.9066 88.6541 23.664 87.9138 23.664 86.9734V86.5918C23.664 85.9915 23.7762 85.4628 24.0006 85.0055C24.225 84.5481 24.5448 84.198 24.9603 83.9551C25.3787 83.7092 25.8639 83.5864 26.4157 83.5864C27.1798 83.5864 27.7953 83.7793 28.2622 84.1652C28.7292 84.551 28.999 85.0926 29.0718 85.7901H27.7073C27.6741 85.387 27.5542 85.0955 27.348 84.9154C27.1449 84.7325 26.8341 84.6411 26.4157 84.6411C25.9608 84.6411 25.6198 84.7954 25.3924 85.104C25.168 85.4099 25.0527 85.8859 25.0467 86.5318V87.0034C25.0467 87.678 25.1544 88.1711 25.3696 88.4826C25.5879 88.7942 25.9305 88.9499 26.3975 88.9499C26.819 88.9499 27.1328 88.8599 27.339 88.6798C27.5482 88.4969 27.668 88.2154 27.6983 87.8352H29.0627ZM31.4096 89.9146H30.0451V83.6721H31.4096V89.9146ZM38.1181 86.9348C38.1181 87.5493 38.0029 88.0881 37.7725 88.5512C37.542 89.0142 37.2115 89.3715 36.781 89.6231C36.3534 89.8746 35.8622 90 35.3073 90C34.7585 90 34.2688 89.876 33.8383 89.6273C33.4077 89.3786 33.0742 89.0242 32.8377 88.564C32.6012 88.101 32.4814 87.5693 32.4784 86.9691V86.6604C32.4784 86.0459 32.5951 85.5056 32.8286 85.0398C33.0651 84.571 33.3971 84.2123 33.8247 83.9636C34.2552 83.7121 34.7464 83.5864 35.2982 83.5864C35.8501 83.5864 36.3398 83.7121 36.7673 83.9636C37.1978 84.2123 37.5299 84.571 37.7633 85.0398C37.9998 85.5056 38.1181 86.0445 38.1181 86.6562V86.9348ZM36.7355 86.6518C36.7355 85.9973 36.6112 85.5 36.3625 85.1599C36.1139 84.8197 35.7591 84.6496 35.2982 84.6496C34.8404 84.6496 34.4872 84.8183 34.2385 85.1555C33.9899 85.4899 33.864 85.9816 33.861 86.6304V86.9348C33.861 87.5722 33.9853 88.0667 34.234 88.4183C34.4826 88.7698 34.8404 88.9456 35.3073 88.9456C35.7652 88.9456 36.1169 88.777 36.3625 88.4397C36.6081 88.0995 36.7324 87.6051 36.7355 86.9562V86.6518ZM35.562 82H36.9947L35.7348 83.3291H34.666L35.562 82ZM44.4947 89.9146H43.1301L40.474 85.8072V89.9146H39.1096V83.6721H40.474L43.1347 87.788V83.6721H44.4947V89.9146ZM51.7444 88.6284H49.3521L48.8973 89.9146H47.4464L49.9114 83.6721H51.1759L53.6546 89.9146H52.2038L51.7444 88.6284ZM49.7204 87.5865H51.376L50.5437 85.2498L49.7204 87.5865ZM59.4125 89.1257C59.167 89.4029 58.8198 89.6188 58.3711 89.7731C57.9223 89.925 57.425 90 56.8792 90C56.3062 90 55.8029 89.8831 55.3692 89.6488C54.9387 89.4115 54.6052 89.0685 54.3687 88.6198C54.1352 88.1711 54.0154 87.6437 54.0094 87.0377V86.6133C54.0094 85.9902 54.1201 85.4514 54.3414 84.9969C54.5657 84.5395 54.8871 84.1909 55.3055 83.9508C55.7271 83.7078 56.2197 83.5864 56.7837 83.5864C57.5691 83.5864 58.1831 83.7636 58.6257 84.118C59.0684 84.4695 59.3307 84.9826 59.4125 85.6572H58.0845C58.0239 85.2999 57.8889 85.0384 57.6798 84.8726C57.4736 84.7068 57.1885 84.6239 56.8247 84.6239C56.3607 84.6239 56.0075 84.7883 55.7649 85.1169C55.5224 85.4456 55.3995 85.9344 55.3966 86.5833V86.982C55.3966 87.6366 55.5284 88.131 55.7923 88.4655C56.056 88.7998 56.4426 88.9671 56.952 88.9671C57.4644 88.9671 57.8298 88.8642 58.0481 88.6584V87.5822H56.8065V86.6347H59.4125V89.1257ZM64.5065 87.2092H61.8868V88.8813H64.9613V89.9146H60.5223V83.6721H64.9522V84.714H61.8868V86.2016H64.5065V87.2092ZM71.1468 89.9146H69.7823L67.1262 85.8072V89.9146H65.7618V83.6721H67.1262L69.7869 87.788V83.6721H71.1468V89.9146ZM72.3384 89.9146V83.6721H74.376C74.9581 83.6721 75.4781 83.7964 75.936 84.0451C76.3969 84.2909 76.7562 84.6424 77.014 85.0998C77.2716 85.5543 77.4005 86.0716 77.4005 86.6518V86.9391C77.4005 87.5193 77.2732 88.0353 77.0184 88.4868C76.7668 88.9385 76.4105 89.2886 75.9496 89.5373C75.4888 89.786 74.9688 89.9117 74.3897 89.9146H72.3384ZM73.7029 84.714V88.8813H74.3623C74.896 88.8813 75.3038 88.717 75.5859 88.3883C75.8678 88.0595 76.0118 87.5894 76.0179 86.9777V86.6475C76.0179 86.013 75.8784 85.5328 75.5995 85.2069C75.3205 84.8783 74.9127 84.714 74.376 84.714H73.7029ZM82.0351 88.6284H79.6428L79.188 89.9146H77.7371L80.2022 83.6721H81.4666L83.9453 89.9146H82.4944L82.0351 88.6284ZM80.0111 87.5865H81.6667L80.8344 85.2498L80.0111 87.5865ZM84.564 89.9146V83.6721H86.8833C87.6869 83.6721 88.2966 83.8178 88.7115 84.1094C89.1273 84.3981 89.3347 84.8225 89.3347 85.3828C89.3347 85.6886 89.2518 85.9587 89.085 86.1931C88.9181 86.4246 88.6861 86.5947 88.3889 86.7033C88.7285 86.7833 88.9952 86.9448 89.1891 87.1878C89.3864 87.4307 89.4846 87.728 89.4846 88.0796C89.4846 88.6798 89.2822 89.1343 88.8758 89.443C88.4693 89.7517 87.8901 89.9088 87.1382 89.9146H84.564ZM85.9281 87.1963V88.8813H87.0975C87.4185 88.8813 87.6691 88.8098 87.8478 88.6669C88.0299 88.5212 88.1205 88.321 88.1205 88.0667C88.1205 87.495 87.8063 87.2049 87.1788 87.1963H85.9281ZM85.9281 86.2874H86.9384C87.6259 86.276 87.9706 86.0173 87.9706 85.5114C87.9706 85.2284 87.8825 85.0255 87.7064 84.9026C87.5336 84.7768 87.2593 84.714 86.8833 84.714H85.9281V86.2874ZM91.8776 88.8813H94.7745V89.9146H90.5126V83.6721H91.8776V88.8813ZM99.5453 87.2092H96.9262V88.8813H100V89.9146H95.5611V83.6721H99.9915V84.714H96.9262V86.2016H99.5453V87.2092Z"
       id="path4" />
  </mask>
  <path
     id="path366"
     clip-path="none"
     mask="url(#path-1-inside-1_12_106-0)"
     style="display:inline;fill:#ffffff;stroke:none"
     d="m 51.345703,0.22265625 c -9.301491,0 -16.769531,7.59708725 -16.769531,16.76757775 0,9.301491 7.46804,16.769532 16.769531,16.769532 9.170491,0 16.769531,-7.468041 16.769531,-16.769532 0,-9.1704905 -7.59904,-16.76757775 -16.769531,-16.76757775 z m 0,4.19140625 c 6.812393,0 12.576172,5.7637785 12.576172,12.5761715 0,6.943293 -5.763779,12.576172 -12.576172,12.576172 -6.943293,0 -12.576172,-5.632879 -12.576172,-12.576172 0,-6.812393 5.632879,-12.5761715 12.576172,-12.5761715 z M 39.03125,38.082031 C 29.598759,38.344131 22,46.073228 22,55.636719 V 66.25 c 0,0.654999 0.393729,1.046875 1.048828,1.046875 h 2.095703 c 0.524,0 1.046875,-0.391876 1.046875,-1.046875 V 55.636719 c 0,-7.074393 5.503732,-12.968329 12.578125,-13.361328 v 10.742187 c -3.144197,0.916899 -5.240234,3.668263 -5.240234,6.94336 0,4.061195 3.274641,7.335937 7.335937,7.335937 3.930196,0 7.335938,-3.274742 7.335938,-7.335937 0,-3.275097 -2.227038,-6.026461 -5.240234,-6.94336 v -10.08789 c 2.620097,0.916899 5.502568,1.310546 8.384765,1.310546 2.751097,0 5.633669,-0.393647 8.384766,-1.310546 v 9.039062 c -3.799096,0.916999 -6.289063,4.45457 -6.289063,8.384766 v 3.798828 c 0,0.654999 0.130338,1.179266 0.523438,1.572265 l 1.441406,1.310547 c 0.3929,0.393 1.048407,0.393 1.441406,0 l 1.441406,-1.441406 c 0.393,-0.393 0.393,-1.048166 0,-1.572266 l -0.787109,-0.654296 v -3.40625 c 0,-2.489098 2.358318,-4.453547 4.978516,-4.060547 2.096098,0.261999 3.40625,2.226167 3.40625,4.322265 v 3.144532 l -0.654297,0.654296 c -0.393,0.5241 -0.393,1.179266 0,1.572266 l 1.441406,1.441406 c 0.393,0.393 1.048307,0.393 1.441406,0 l 1.439454,-1.310547 c 0.392999,-0.392999 0.52539,-0.917266 0.52539,-1.572265 v -4.191406 c 0,-3.799197 -2.620866,-7.075189 -6.289062,-7.992188 v -9.693359 c 7.074293,0.523999 12.576172,6.286935 12.576172,13.361328 V 66.25 c 0,0.654999 0.524828,1.046875 1.048828,1.046875 h 2.095703 c 0.654999,0 1.048828,-0.391876 1.048828,-1.046875 V 55.636719 c 0.1309,-9.563491 -7.46766,-17.292588 -17.03125,-17.554688 -4.454196,-0.1309 -5.7643,1.964844 -12.183594,1.964844 -6.550293,0 -7.860157,-2.095744 -12.314453,-1.964844 z m 1.833984,18.734375 c 1.702999,0 3.144532,1.441433 3.144532,3.144532 0,1.834098 -1.441533,3.144531 -3.144532,3.144531 -1.834198,0 -3.144531,-1.310433 -3.144531,-3.144531 0,-1.703099 1.310333,-3.144532 3.144531,-3.144532 z M 35.5625,82 34.666016,83.328125 h 1.068359 L 36.994141,82 Z m -9.146484,1.585938 c -0.5518,-10e-7 -1.036679,0.12324 -1.455078,0.36914 -0.4155,0.2429 -0.736538,0.593382 -0.960938,1.050781 -0.2244,0.4573 -0.335938,0.985638 -0.335938,1.585938 v 0.380859 c 0,0.940399 0.243417,1.680504 0.728516,2.220703 0.4882,0.5373 1.15686,0.806641 2.00586,0.806641 0.776199,0 1.400047,-0.192225 1.873046,-0.578125 0.476,-0.3859 0.739516,-0.914238 0.791016,-1.585937 h -1.363281 c -0.0303,0.380199 -0.150175,0.66085 -0.359375,0.84375 -0.2062,0.180099 -0.519907,0.269531 -0.941406,0.269531 -0.467,0 -0.810998,-0.155197 -1.029297,-0.466797 -0.2152,-0.3115 -0.322266,-0.803916 -0.322266,-1.478516 V 86.53125 c 0.006,-0.645899 0.121303,-1.121835 0.345703,-1.427734 0.2274,-0.3086 0.568538,-0.462891 1.023438,-0.462891 0.418399,0 0.72854,0.09249 0.93164,0.275391 0.2062,0.180099 0.326175,0.4719 0.359375,0.875 h 1.365235 c -0.0728,-0.6975 -0.343548,-1.239201 -0.810547,-1.625 -0.4669,-0.3859 -1.081604,-0.580078 -1.845703,-0.580078 z m 8.882812,0 c -0.551799,0 -1.04411,0.125453 -1.474609,0.376953 -0.4276,0.248699 -0.759594,0.607372 -0.996094,1.076171 -0.2335,0.4658 -0.349609,1.006595 -0.349609,1.621094 v 0.308594 c 0.003,0.600199 0.122875,1.132704 0.359375,1.595703 0.236499,0.4602 0.5694,0.8138 1,1.0625 C 34.26839,89.875653 34.757841,90 35.306641,90 c 0.554899,0 1.047009,-0.125453 1.474609,-0.376953 0.4305,-0.2516 0.761688,-0.609266 0.992188,-1.072266 0.230399,-0.463099 0.34375,-1.000735 0.34375,-1.615234 V 86.65625 c 0,-0.611699 -0.117016,-1.151388 -0.353516,-1.617188 -0.2334,-0.468799 -0.565594,-0.827472 -0.996094,-1.076171 -0.427499,-0.2515 -0.91685,-0.376953 -1.46875,-0.376953 z m 21.484375,0 c -0.563999,-10e-7 -1.056916,0.122234 -1.478515,0.365234 -0.4184,0.2401 -0.738591,0.587522 -0.962891,1.044922 -0.2213,0.454499 -0.332031,0.994088 -0.332031,1.617187 v 0.423828 c 0.006,0.606 0.125875,1.133332 0.359375,1.582032 0.236499,0.448699 0.5695,0.791997 1,1.029297 C 55.80284,89.882737 56.305907,90 56.878906,90 c 0.5458,0 1.043388,-0.07466 1.492188,-0.226562 0.448699,-0.1543 0.795516,-0.371238 1.041015,-0.648438 v -2.490234 h -2.605468 v 0.947265 h 1.242187 v 1.076172 c -0.2183,0.2058 -0.585257,0.308594 -1.097656,0.308594 -0.5094,0 -0.894504,-0.167654 -1.158203,-0.501953 -0.2639,-0.3345 -0.396485,-0.827823 -0.396485,-1.482422 v -0.398438 c 0.0029,-0.648899 0.126641,-1.138097 0.369141,-1.466796 0.2426,-0.3286 0.594594,-0.494141 1.058594,-0.494141 0.363799,0 0.649269,0.0842 0.855469,0.25 0.209099,0.1658 0.343696,0.425903 0.404296,0.783203 h 1.328125 C 59.330309,84.981651 59.0677,84.468687 58.625,84.117188 c -0.4426,-0.3544 -1.056398,-0.53125 -1.841797,-0.53125 z M 2.4648438,83.671875 0,89.914062 H 1.4511719 L 1.90625,88.628906 h 2.3925781 l 0.4589844,1.285156 H 6.2089844 L 3.7285156,83.671875 Z m 3.40625,0 v 1.042969 h 2.0019531 v 5.199218 h 1.3632812 v -5.199218 h 2.0292969 v -1.042969 z m 6.1777342,0 v 6.242187 h 4.4375 v -1.033203 h -3.074219 v -1.671875 h 2.619141 v -1.007812 h -2.619141 v -1.486328 h 3.066407 v -1.042969 z m 5.238281,0 v 6.242187 h 1.365235 v -4.107421 l 2.65625,4.107421 h 1.363281 V 83.671875 H 21.3125 v 4.115234 l -2.660156,-4.115234 z m 12.757813,0 v 6.242187 h 1.365234 v -6.242187 z m 9.064453,0 v 6.242187 h 1.365234 v -4.107421 l 2.65625,4.107421 h 1.363282 v -6.242187 h -1.359375 v 4.115234 l -2.660157,-4.115234 z m 10.802734,0 -2.464843,6.242187 h 1.449218 l 0.455078,-1.285156 h 2.392579 l 0.458984,1.285156 h 1.451172 l -2.478516,-6.242187 z m 10.609375,0 v 6.242187 h 4.439454 v -1.033203 h -3.074219 v -1.671875 h 2.61914 v -1.007812 h -2.61914 v -1.486328 h 3.066406 v -1.042969 z m 5.240235,0 v 6.242187 h 1.365234 v -4.107421 l 2.65625,4.107421 h 1.363281 v -6.242187 h -1.359375 v 4.115234 l -2.660156,-4.115234 z m 6.576172,0 v 6.242187 h 2.052734 c 0.579099,-0.0029 1.097794,-0.128253 1.558594,-0.376953 0.460899,-0.248699 0.816759,-0.599081 1.068359,-1.050781 0.2548,-0.451499 0.382813,-0.966675 0.382813,-1.546875 v -0.287109 c 0,-0.5802 -0.129119,-1.098235 -0.386719,-1.552735 -0.2578,-0.457399 -0.617226,-0.808887 -1.078125,-1.054687 -0.4579,-0.2487 -0.976494,-0.373047 -1.558594,-0.373047 z m 7.865234,0 -2.466797,6.242187 H 79.1875 l 0.455078,-1.285156 h 2.392578 l 0.458985,1.285156 h 1.451171 l -2.478515,-6.242187 z m 4.361328,0 v 6.242187 h 2.574219 c 0.751899,-0.0058 1.329828,-0.162003 1.736328,-0.470703 0.4064,-0.308699 0.609375,-0.763081 0.609375,-1.363281 0,-0.3516 -0.09762,-0.649678 -0.294922,-0.892578 -0.1939,-0.243 -0.461181,-0.404375 -0.800781,-0.484375 0.2972,-0.1086 0.530366,-0.278266 0.697266,-0.509766 0.166799,-0.234399 0.248046,-0.504747 0.248046,-0.810547 0,-0.560299 -0.207247,-0.984737 -0.623046,-1.273437 -0.4149,-0.2916 -1.024526,-0.4375 -1.828126,-0.4375 z m 5.947266,0 v 6.242187 h 4.263672 v -1.033203 h -2.898438 v -5.208984 z m 5.048828,0 v 6.242187 H 100 v -1.033203 h -3.074219 v -1.671875 h 2.619141 v -1.007812 h -2.619141 v -1.486328 h 3.066407 v -1.042969 z m -60.261719,0.978516 c 0.4609,0 0.815853,0.169566 1.064453,0.509765 0.2487,0.3401 0.373047,0.837688 0.373047,1.492188 v 0.304687 c -0.0031,0.6489 -0.127447,1.142222 -0.373047,1.482422 -0.2456,0.3373 -0.598741,0.505859 -1.05664,0.505859 -0.4669,0 -0.823666,-0.175844 -1.072266,-0.527343 -0.2487,-0.3516 -0.373047,-0.845023 -0.373047,-1.482422 v -0.304688 c 0.003,-0.648799 0.128353,-1.140209 0.376953,-1.474609 0.2487,-0.3372 0.602748,-0.505859 1.060547,-0.505859 z m 38.404297,0.06445 h 0.673828 c 0.5367,0 0.943657,0.163588 1.222656,0.492187 0.2789,0.3259 0.417969,0.806907 0.417969,1.441407 v 0.330078 c -0.0061,0.611699 -0.149741,1.081356 -0.43164,1.410156 -0.2821,0.3287 -0.69091,0.492187 -1.22461,0.492187 h -0.658203 z m 12.224609,0 h 0.955078 c 0.376,0 0.651419,0.0617 0.824219,0.1875 0.1761,0.1229 0.263672,0.326375 0.263672,0.609375 0,0.505899 -0.345704,0.76399 -1.033203,0.77539 H 85.927734 Z M 3.0976562,85.25 3.9296875,87.585938 h -1.65625 z m 47.4453128,0 0.833984,2.335938 h -1.65625 z m 30.291015,0 0.832032,2.335938 h -1.654297 z m 5.09375,1.947266 h 1.251954 c 0.627499,0.0086 0.941406,0.297441 0.941406,0.86914 0,0.2543 -0.09134,0.45391 -0.273438,0.59961 -0.1787,0.142899 -0.429,0.214843 -0.75,0.214843 h -1.169922 z" />
</svg>
