<?xml version="1.0" encoding="UTF-8" standalone="no"?>
<svg
   width="100"
   height="94"
   viewBox="0 0 100 94"
   fill="none"
   version="1.1"
   id="svg6479"
   sodipodi:docname="bienestar-integral.svg"
   inkscape:version="1.2.2 (732a01da63, 2022-12-09)"
   xmlns:inkscape="http://www.inkscape.org/namespaces/inkscape"
   xmlns:sodipodi="http://sodipodi.sourceforge.net/DTD/sodipodi-0.dtd"
   xmlns="http://www.w3.org/2000/svg"
   xmlns:svg="http://www.w3.org/2000/svg">
  <defs
     id="defs6483" />
  <sodipodi:namedview
     id="namedview6481"
     pagecolor="#ffffff"
     bordercolor="#111111"
     borderopacity="1"
     inkscape:showpageshadow="0"
     inkscape:pageopacity="0"
     inkscape:pagecheckerboard="1"
     inkscape:deskcolor="#d1d1d1"
     showgrid="false"
     inkscape:zoom="4.75"
     inkscape:cx="6.1052632"
     inkscape:cy="37.578947"
     inkscape:window-width="1920"
     inkscape:window-height="991"
     inkscape:window-x="-9"
     inkscape:window-y="-9"
     inkscape:window-maximized="1"
     inkscape:current-layer="svg6479" />
  <path
     id="path6473"
     mask="none"
     style="display:inline;fill:#ffffff;stroke:none"
     d="M 38.820312 0.5 C 34.261065 0.5 30.556641 4.2782758 30.556641 8.8710938 C 30.556641 13.463934 34.261062 17.242188 38.820312 17.242188 C 43.379487 17.242188 47.085938 13.463934 47.085938 8.8710938 C 47.085938 4.2782758 43.379484 0.5 38.820312 0.5 z M 38.820312 3.5 C 41.732521 3.5 44.085938 5.8743541 44.085938 8.8710938 C 44.085938 11.86787 41.732519 14.242187 38.820312 14.242188 C 35.907986 14.242188 33.556641 11.86787 33.556641 8.8710938 C 33.556641 5.8743541 35.907984 3.5 38.820312 3.5 z M 74.628906 7.6367188 C 74.501927 7.6436384 74.375322 7.6604255 74.251953 7.6875 C 73.755941 7.796355 73.303826 8.058019 73.015625 8.4160156 C 72.544683 9.0010093 72.52716 9.8955924 72.857422 10.662109 C 72.104434 9.8376791 71.117399 9.3293675 70.134766 9.1835938 C 68.995357 9.0145622 67.858785 9.147982 66.791016 9.375 C 64.655478 9.8290359 62.759765 10.704708 62.142578 10.996094 L 62.140625 10.996094 C 61.971427 11.076244 61.793819 11.173711 61.623047 11.285156 C 58.737067 13.132223 53.770241 14.746431 49.3125 15.857422 C 44.850639 16.96944 40.873183 17.625405 39.773438 17.798828 L 39.263672 17.861328 C 32.442166 18.513118 27.138998 17.54029 23.552734 16.419922 C 19.984968 15.305331 18.22715 14.113896 18.208984 14.101562 L 18.195312 14.09375 C 14.381594 11.47548 11.839937 10.841263 9.9746094 11.164062 C 9.0406074 11.325693 8.3306307 11.754555 7.890625 12.173828 C 7.478035 12.56698 7.2765832 12.999682 7.2480469 13.058594 C 6.3814951 14.628002 6.3419168 16.343169 6.8847656 17.712891 C 7.4357699 19.103188 8.435778 20.176368 9.4824219 21.048828 C 11.501423 22.731824 13.705898 23.659407 14.265625 23.886719 C 14.317045 23.913399 14.242037 23.865891 14.185547 23.832031 C 16.935377 25.797753 21.260063 26.872918 25.361328 27.660156 C 29.197994 28.396606 32.483543 28.731956 34.070312 28.886719 C 35.058294 35.751173 38.969692 40.581291 42.988281 43.679688 C 46.846767 46.654644 50.563982 48.04981 52.248047 48.611328 L 53.505859 75.333984 L 53.505859 75.208984 C 53.401618 78.092775 54.746007 79.989469 56.166016 80.785156 C 57.434618 81.496008 58.56182 81.477723 58.818359 81.46875 C 60.188311 81.591108 61.472892 81.066271 62.236328 80.21875 C 63.007472 79.362673 63.332457 78.340545 63.513672 77.388672 C 63.854698 75.597351 63.660842 73.932416 63.609375 73.521484 L 63.609375 73.519531 L 63.609375 73.501953 C 63.597265 73.014715 63.437115 66.489137 63.244141 59.845703 C 63.147651 56.523985 63.041841 53.172899 62.943359 50.525391 C 62.894119 49.201635 62.847449 48.054584 62.802734 47.169922 C 62.758024 46.28526 62.731924 45.742929 62.667969 45.308594 C 62.549769 44.506103 63.632631 43.772593 63.671875 43.746094 C 63.859028 43.668634 71.038029 40.699359 75.388672 38.597656 L 75.390625 38.595703 C 77.860632 37.40143 78.98218 35.263387 79.332031 33.507812 C 79.667597 31.823934 79.426987 30.486352 79.335938 30.042969 L 78.890625 14.259766 L 78.890625 14.255859 C 78.773311 10.810315 77.350021 8.7492176 75.746094 7.8789062 C 75.398303 7.6889457 75.009843 7.6159596 74.628906 7.6367188 z M 69.208984 12.115234 C 69.383584 12.118634 69.545551 12.130414 69.693359 12.152344 C 70.27181 12.238154 70.540404 12.400722 70.748047 12.693359 C 70.758867 12.705479 71.032265 13.000152 70.751953 13.765625 C 70.466037 14.546435 69.284059 16.087336 64.810547 17.496094 C 56.750029 20.030692 49.873878 22.014421 48.095703 22.523438 L 48.087891 22.525391 L 48.078125 22.529297 C 47.208493 22.789148 46.551522 23.5938 46.523438 24.548828 C 46.475618 25.723278 46.61277 28.265467 48.310547 30.943359 C 50.012068 33.627166 53.27778 36.330025 59.046875 37.832031 C 59.555993 37.973265 60.053899 37.911244 60.462891 37.740234 L 60.480469 37.732422 L 71.462891 32.835938 C 71.93832 32.625286 72.32781 32.419499 72.691406 32.033203 C 73.055005 31.646909 73.276191 30.973169 73.263672 30.544922 L 73.021484 20.416016 C 73.783102 19.825389 75.010975 18.734013 75.970703 17.082031 L 76.337891 30.136719 L 76.337891 30.142578 C 76.33797 30.188358 76.343991 30.50825 76.458984 30.800781 L 76.386719 30.5625 C 76.420439 30.721515 76.613233 31.802928 76.390625 32.919922 C 76.168029 34.036916 75.674068 35.127664 74.083984 35.896484 C 69.851148 37.941278 62.373047 41.041016 62.373047 41.041016 L 62.283203 41.076172 L 62.201172 41.125 C 62.201172 41.125 59.250961 42.702742 59.699219 45.746094 C 59.706319 45.794304 59.763109 46.45901 59.806641 47.320312 C 59.850171 48.181617 59.896352 49.320538 59.945312 50.636719 C 60.043232 53.269077 60.147779 56.616243 60.244141 59.933594 C 60.436862 66.568294 60.597088 73.083866 60.609375 73.578125 L 60.609375 73.691406 L 60.621094 73.783203 C 60.645594 73.978847 60.808954 75.554106 60.566406 76.828125 C 60.445134 77.465134 60.215747 77.977934 60.005859 78.210938 C 59.795974 78.443941 59.69032 78.551163 59.074219 78.490234 L 58.958984 78.478516 L 58.845703 78.484375 C 58.845703 78.484375 58.216547 78.496154 57.630859 78.167969 C 57.045174 77.839784 56.429548 77.375453 56.503906 75.318359 L 56.505859 75.255859 L 55.21875 47.941406 L 55.21875 47.935547 C 55.17065 47.078997 54.574261 46.230192 53.679688 45.962891 C 52.43812 45.568165 48.529242 44.162379 44.820312 41.302734 C 41.098439 38.433109 37.6117 34.196149 36.902344 27.919922 C 36.799151 26.924963 36.012013 26.069753 34.945312 25.984375 C 33.602582 25.85799 29.868028 25.46923 25.927734 24.712891 C 21.978117 23.95476 17.783021 22.722835 15.919922 21.386719 L 15.955078 21.412109 C 15.761503 21.264402 15.575918 21.188873 15.634766 21.21875 L 15.576172 21.1875 L 15.513672 21.164062 C 15.261599 21.062818 13.032177 20.102735 11.402344 18.744141 C 10.587427 18.064842 9.9455057 17.29292 9.6738281 16.607422 C 9.4021508 15.921924 9.3694515 15.362968 9.8769531 14.472656 L 9.8984375 14.433594 L 9.9394531 14.347656 C 9.9376231 14.356456 9.9345834 14.369003 9.9589844 14.345703 C 10.02294 14.284763 10.137413 14.179183 10.484375 14.119141 C 11.178298 13.999055 13.024485 14.178553 16.509766 16.574219 L 16.515625 16.578125 L 16.521484 16.582031 C 16.521484 16.582031 18.739339 18.058928 22.658203 19.283203 C 26.577068 20.507478 32.298023 21.540463 39.548828 20.847656 L 39.568359 20.845703 L 40.214844 20.765625 L 40.240234 20.761719 C 41.389781 20.580442 45.438798 19.913604 50.037109 18.767578 C 54.635423 17.621552 59.754264 16.04677 63.251953 13.804688 L 63.257812 13.800781 L 63.261719 13.798828 C 63.317549 13.762398 63.351639 13.743254 63.423828 13.708984 L 63.425781 13.707031 C 63.962805 13.453545 65.711667 12.672908 67.416016 12.310547 C 68.055522 12.174581 68.685187 12.104905 69.208984 12.115234 z M 73.673828 12.597656 C 74.025112 13.617816 73.982127 14.534003 73.490234 15.443359 C 72.781156 16.754229 71.429603 17.901556 70.898438 18.296875 C 70.305336 18.735226 70.013672 19.411854 70.013672 20.072266 L 70.013672 20.089844 L 70.251953 30.089844 C 70.247653 30.091744 70.252454 30.089745 70.248047 30.091797 L 70.246094 30.09375 L 59.576172 34.851562 C 54.548575 33.491866 52.098852 31.317558 50.84375 29.337891 C 49.756164 27.622444 49.591696 26.128023 49.570312 25.212891 C 51.669049 24.610588 57.925125 22.80564 65.710938 20.357422 C 70.640697 18.804987 72.831104 16.810256 73.568359 14.796875 C 73.876275 13.955986 73.780346 13.236477 73.673828 12.597656 z M 73.011719 20.037109 L 73.013672 20.072266 L 73.011719 20.074219 L 73.011719 20.037109 z M 35.5625 86 L 34.666016 87.328125 L 35.734375 87.328125 L 36.994141 86 L 35.5625 86 z M 26.416016 87.585938 C 25.864216 87.585938 25.379337 87.709178 24.960938 87.955078 C 24.545438 88.197978 24.2244 88.54856 24 89.005859 C 23.7756 89.463159 23.664062 89.991497 23.664062 90.591797 L 23.664062 90.972656 C 23.664062 91.913055 23.907479 92.65316 24.392578 93.193359 C 24.880778 93.730659 25.549438 94 26.398438 94 C 27.174637 94 27.798485 93.807775 28.271484 93.421875 C 28.747484 93.035975 29.011 92.507637 29.0625 91.835938 L 27.699219 91.835938 C 27.668919 92.216137 27.549044 92.496788 27.339844 92.679688 C 27.133644 92.859787 26.819937 92.949219 26.398438 92.949219 C 25.931438 92.949219 25.58744 92.794022 25.369141 92.482422 C 25.153941 92.170922 25.046875 91.678506 25.046875 91.003906 L 25.046875 90.53125 C 25.052875 89.885351 25.168178 89.409315 25.392578 89.103516 C 25.619978 88.794816 25.961116 88.640625 26.416016 88.640625 C 26.834415 88.640625 27.144556 88.733116 27.347656 88.916016 C 27.553856 89.096115 27.673831 89.387916 27.707031 89.791016 L 29.072266 89.791016 C 28.999466 89.093516 28.728718 88.551815 28.261719 88.166016 C 27.794819 87.780116 27.180115 87.585938 26.416016 87.585938 z M 35.298828 87.585938 C 34.747029 87.585938 34.254718 87.711391 33.824219 87.962891 C 33.396619 88.21159 33.064625 88.570263 32.828125 89.039062 C 32.594625 89.504862 32.478516 90.045657 32.478516 90.660156 L 32.478516 90.96875 C 32.481516 91.568949 32.601291 92.101454 32.837891 92.564453 C 33.07439 93.024653 33.407291 93.378253 33.837891 93.626953 C 34.26839 93.875653 34.757841 94 35.306641 94 C 35.86154 94 36.35365 93.874547 36.78125 93.623047 C 37.21175 93.371447 37.542938 93.013781 37.773438 92.550781 C 38.003837 92.087682 38.117188 91.550046 38.117188 90.935547 L 38.117188 90.65625 C 38.117188 90.044551 38.000172 89.504862 37.763672 89.039062 C 37.530272 88.570263 37.198078 88.21159 36.767578 87.962891 C 36.340079 87.711391 35.850728 87.585938 35.298828 87.585938 z M 56.783203 87.585938 C 56.219204 87.585938 55.726287 87.708272 55.304688 87.951172 C 54.886288 88.191372 54.566097 88.538694 54.341797 88.996094 C 54.120497 89.450593 54.009766 89.990182 54.009766 90.613281 L 54.009766 91.037109 C 54.015766 91.643109 54.135641 92.170441 54.369141 92.619141 C 54.60564 93.06784 54.938641 93.411138 55.369141 93.648438 C 55.80284 93.882737 56.305907 94 56.878906 94 C 57.424706 94 57.922294 93.925337 58.371094 93.773438 C 58.819793 93.619138 59.16661 93.4022 59.412109 93.125 L 59.412109 90.634766 L 56.806641 90.634766 L 56.806641 91.582031 L 58.048828 91.582031 L 58.048828 92.658203 C 57.830528 92.864003 57.463571 92.966797 56.951172 92.966797 C 56.441772 92.966797 56.056668 92.799143 55.792969 92.464844 C 55.529069 92.130344 55.396484 91.637021 55.396484 90.982422 L 55.396484 90.583984 C 55.399384 89.935085 55.523125 89.445887 55.765625 89.117188 C 56.008225 88.788588 56.360219 88.623047 56.824219 88.623047 C 57.188018 88.623047 57.473488 88.707247 57.679688 88.873047 C 57.888787 89.038847 58.023384 89.29895 58.083984 89.65625 L 59.412109 89.65625 C 59.330309 88.981651 59.0677 88.468687 58.625 88.117188 C 58.1824 87.762788 57.568602 87.585938 56.783203 87.585938 z M 2.4648438 87.671875 L 0 93.914062 L 1.4511719 93.914062 L 1.90625 92.628906 L 4.2988281 92.628906 L 4.7578125 93.914062 L 6.2089844 93.914062 L 3.7285156 87.671875 L 2.4648438 87.671875 z M 5.8710938 87.671875 L 5.8710938 88.714844 L 7.8730469 88.714844 L 7.8730469 93.914062 L 9.2363281 93.914062 L 9.2363281 88.714844 L 11.265625 88.714844 L 11.265625 87.671875 L 5.8710938 87.671875 z M 12.048828 87.671875 L 12.048828 93.914062 L 16.486328 93.914062 L 16.486328 92.880859 L 13.412109 92.880859 L 13.412109 91.208984 L 16.03125 91.208984 L 16.03125 90.201172 L 13.412109 90.201172 L 13.412109 88.714844 L 16.478516 88.714844 L 16.478516 87.671875 L 12.048828 87.671875 z M 17.287109 87.671875 L 17.287109 93.914062 L 18.652344 93.914062 L 18.652344 89.806641 L 21.308594 93.914062 L 22.671875 93.914062 L 22.671875 87.671875 L 21.3125 87.671875 L 21.3125 91.787109 L 18.652344 87.671875 L 17.287109 87.671875 z M 30.044922 87.671875 L 30.044922 93.914062 L 31.410156 93.914062 L 31.410156 87.671875 L 30.044922 87.671875 z M 39.109375 87.671875 L 39.109375 93.914062 L 40.474609 93.914062 L 40.474609 89.806641 L 43.130859 93.914062 L 44.494141 93.914062 L 44.494141 87.671875 L 43.134766 87.671875 L 43.134766 91.787109 L 40.474609 87.671875 L 39.109375 87.671875 z M 49.912109 87.671875 L 47.447266 93.914062 L 48.896484 93.914062 L 49.351562 92.628906 L 51.744141 92.628906 L 52.203125 93.914062 L 53.654297 93.914062 L 51.175781 87.671875 L 49.912109 87.671875 z M 60.521484 87.671875 L 60.521484 93.914062 L 64.960938 93.914062 L 64.960938 92.880859 L 61.886719 92.880859 L 61.886719 91.208984 L 64.505859 91.208984 L 64.505859 90.201172 L 61.886719 90.201172 L 61.886719 88.714844 L 64.953125 88.714844 L 64.953125 87.671875 L 60.521484 87.671875 z M 65.761719 87.671875 L 65.761719 93.914062 L 67.126953 93.914062 L 67.126953 89.806641 L 69.783203 93.914062 L 71.146484 93.914062 L 71.146484 87.671875 L 69.787109 87.671875 L 69.787109 91.787109 L 67.126953 87.671875 L 65.761719 87.671875 z M 72.337891 87.671875 L 72.337891 93.914062 L 74.390625 93.914062 C 74.969724 93.911163 75.488419 93.785809 75.949219 93.537109 C 76.410118 93.28841 76.765978 92.937928 77.017578 92.486328 C 77.272378 92.034729 77.400391 91.519653 77.400391 90.939453 L 77.400391 90.652344 C 77.400391 90.072144 77.271272 89.554109 77.013672 89.099609 C 76.755872 88.64221 76.396446 88.290722 75.935547 88.044922 C 75.477747 87.796222 74.959053 87.671875 74.376953 87.671875 L 72.337891 87.671875 z M 80.203125 87.671875 L 77.736328 93.914062 L 79.1875 93.914062 L 79.642578 92.628906 L 82.035156 92.628906 L 82.494141 93.914062 L 83.945312 93.914062 L 81.466797 87.671875 L 80.203125 87.671875 z M 84.564453 87.671875 L 84.564453 93.914062 L 87.138672 93.914062 C 87.890571 93.908263 88.4685 93.752059 88.875 93.443359 C 89.2814 93.13466 89.484375 92.680278 89.484375 92.080078 C 89.484375 91.728478 89.386753 91.4304 89.189453 91.1875 C 88.995553 90.9445 88.728272 90.783125 88.388672 90.703125 C 88.685872 90.594525 88.919038 90.424859 89.085938 90.193359 C 89.252737 89.95896 89.333984 89.688612 89.333984 89.382812 C 89.333984 88.822513 89.126737 88.398075 88.710938 88.109375 C 88.296038 87.817775 87.686412 87.671875 86.882812 87.671875 L 84.564453 87.671875 z M 90.511719 87.671875 L 90.511719 93.914062 L 94.775391 93.914062 L 94.775391 92.880859 L 91.876953 92.880859 L 91.876953 87.671875 L 90.511719 87.671875 z M 95.560547 87.671875 L 95.560547 93.914062 L 100 93.914062 L 100 92.880859 L 96.925781 92.880859 L 96.925781 91.208984 L 99.544922 91.208984 L 99.544922 90.201172 L 96.925781 90.201172 L 96.925781 88.714844 L 99.992188 88.714844 L 99.992188 87.671875 L 95.560547 87.671875 z M 35.298828 88.650391 C 35.759728 88.650391 36.114681 88.819957 36.363281 89.160156 C 36.611981 89.500256 36.736328 89.997844 36.736328 90.652344 L 36.736328 90.957031 C 36.733228 91.605931 36.608881 92.099253 36.363281 92.439453 C 36.117681 92.776753 35.76454 92.945312 35.306641 92.945312 C 34.839741 92.945312 34.482975 92.769468 34.234375 92.417969 C 33.985675 92.066369 33.861328 91.572946 33.861328 90.935547 L 33.861328 90.630859 C 33.864328 89.98206 33.989681 89.49065 34.238281 89.15625 C 34.486981 88.81905 34.841029 88.650391 35.298828 88.650391 z M 73.703125 88.714844 L 74.376953 88.714844 C 74.913653 88.714844 75.32061 88.878432 75.599609 89.207031 C 75.878509 89.532931 76.017578 90.013938 76.017578 90.648438 L 76.017578 90.978516 C 76.011478 91.590215 75.867837 92.059872 75.585938 92.388672 C 75.303838 92.717372 74.895028 92.880859 74.361328 92.880859 L 73.703125 92.880859 L 73.703125 88.714844 z M 85.927734 88.714844 L 86.882812 88.714844 C 87.258812 88.714844 87.534231 88.776544 87.707031 88.902344 C 87.883131 89.025244 87.970703 89.228719 87.970703 89.511719 C 87.970703 90.017618 87.624999 90.275709 86.9375 90.287109 L 85.927734 90.287109 L 85.927734 88.714844 z M 3.0976562 89.25 L 3.9296875 91.585938 L 2.2734375 91.585938 L 3.0976562 89.25 z M 50.542969 89.25 L 51.376953 91.585938 L 49.720703 91.585938 L 50.542969 89.25 z M 80.833984 89.25 L 81.666016 91.585938 L 80.011719 91.585938 L 80.833984 89.25 z M 85.927734 91.197266 L 87.179688 91.197266 C 87.807187 91.205966 88.121094 91.494707 88.121094 92.066406 C 88.121094 92.320706 88.029756 92.520316 87.847656 92.666016 C 87.668956 92.808915 87.418656 92.880859 87.097656 92.880859 L 85.927734 92.880859 L 85.927734 91.197266 z " />
</svg>
