<svg width="66" height="78" viewBox="0 0 66 78" fill="none" xmlns="http://www.w3.org/2000/svg">
<g clip-path="url(#clip0_0_259)">
<path d="M62.5052 9.64398C62.4755 9.6488 62.4457 9.65358 62.4159 9.65834L62.5052 9.64398ZM62.5052 9.64398C62.703 13.7273 62.8997 21.7674 62.0497 30.3693C61.0836 40.1461 58.8123 50.0687 54.1455 55.948C44.2355 68.4297 35.5447 73.712 32.7291 75.1831C29.9194 73.6855 21.2664 68.3499 11.2797 55.9355C6.58231 50.09 4.30603 40.1771 3.34717 30.3931C2.50317 21.781 2.7166 13.7252 2.92323 9.64224C5.31406 10.0305 7.74189 10.2628 10.1833 10.3011C12.6055 10.3419 15.0388 10.1906 17.4531 9.81485L17.4533 9.81482C19.4694 9.50086 21.4742 9.02852 23.4332 8.37833C25.0339 7.84938 26.6024 7.20221 28.1169 6.43114C29.3004 5.83435 30.4385 5.15873 31.5273 4.41355L31.5394 4.40522L31.5515 4.39674C31.9543 4.11404 32.3421 3.82274 32.7141 3.53387C32.9485 3.71703 33.1789 3.88867 33.3965 4.04836L33.4034 4.05346L33.4104 4.0585C34.4383 4.80222 35.5117 5.46574 36.6014 6.05953L36.6116 6.06498C38.0617 6.84645 39.5645 7.51099 41.1015 8.0687L41.1092 8.07145C42.9977 8.74974 44.9398 9.26812 46.906 9.63242L46.9074 9.63268C49.2637 10.0678 51.6505 10.2765 54.0123 10.3051L54.0172 10.3052C56.8436 10.3338 59.6531 10.1004 62.4152 9.65845L62.5052 9.64398ZM46.5901 45.2951C49.1804 45.2951 51.3185 43.1984 51.3185 40.5845V36.6202C51.3185 34.0063 49.1804 31.9096 46.5901 31.9096H39.4249V24.8046C39.4249 22.1993 37.2954 20.0902 34.7005 20.0902H30.7113C28.1164 20.0902 25.9869 22.1993 25.9869 24.8046V31.9096H18.8216C16.2324 31.9096 14.0972 34.0091 14.0972 36.6202V40.5845C14.0972 43.1955 16.2324 45.2951 18.8216 45.2951H25.9869V52.4C25.9869 55.0121 28.1192 57.1145 30.7113 57.1145H34.7005C37.2925 57.1145 39.4249 55.0121 39.4249 52.4V45.2951H46.5901Z" stroke="white" stroke-width="5"/>
</g>
<defs>
<clipPath id="clip0_0_259">
<rect width="64.9412" height="77.1765" fill="white" transform="translate(0.235294 0.64706)"/>
</clipPath>
</defs>
</svg>
