<?xml version="1.0" encoding="UTF-8" standalone="no"?>
<svg
   width="100"
   height="90"
   viewBox="0 0 100 90"
   fill="none"
   version="1.1"
   id="svg6761"
   sodipodi:docname="orientacion-veterinaria.svg"
   inkscape:version="1.2.2 (732a01da63, 2022-12-09)"
   xmlns:inkscape="http://www.inkscape.org/namespaces/inkscape"
   xmlns:sodipodi="http://sodipodi.sourceforge.net/DTD/sodipodi-0.dtd"
   xmlns="http://www.w3.org/2000/svg"
   xmlns:svg="http://www.w3.org/2000/svg">
  <defs
     id="defs6765" />
  <sodipodi:namedview
     id="namedview6763"
     pagecolor="#ffffff"
     bordercolor="#111111"
     borderopacity="1"
     inkscape:showpageshadow="0"
     inkscape:pageopacity="0"
     inkscape:pagecheckerboard="1"
     inkscape:deskcolor="#d1d1d1"
     showgrid="false"
     inkscape:zoom="7.0160706"
     inkscape:cx="40.407233"
     inkscape:cy="45.53831"
     inkscape:window-width="1920"
     inkscape:window-height="991"
     inkscape:window-x="-9"
     inkscape:window-y="-9"
     inkscape:window-maximized="1"
     inkscape:current-layer="svg6761" />
  <path
     id="path6753"
     mask="none"
     style="fill:#ffffff;stroke:none"
     d="M 69.591797 0.005859375 C 69.434191 -0.0052911938 69.278731 0.00049645728 69.128906 0.025390625 C 62.54892 1.1244277 56.095739 7.0768144 52.685547 15.142578 C 52.241047 16.197276 51.484307 18.004729 50.537109 20.328125 C 49.334713 17.403531 46.883152 10.352524 39.822266 6.6386719 C 36.710772 5.0011851 33.652325 4.4885668 30.457031 4.6914062 C 27.790137 4.857366 22.245408 5.1962388 19.257812 11.978516 C 19.166713 12.070716 18.438908 12.694111 15.291016 13.037109 C 13.36002 13.247309 11.570934 13.228516 11.552734 13.228516 L 11.533203 13.228516 C 10.695204 13.224816 10.0146 13.903961 10 14.755859 C 9.8870602 23.544443 13.803334 27.372063 16.736328 29.005859 C 16.736328 29.005859 16.744427 29.009972 16.748047 29.013672 C 18.515143 30.09057 20.74917 30.345703 22.822266 30.345703 C 23.944364 30.345703 24.967324 30.270763 25.732422 30.193359 C 26.30812 33.866553 27.376008 48.729354 20.107422 61.486328 C 15.440232 61.836628 12.8125 64.982628 12.8125 68.419922 C 12.8125 69.63332 13.151966 70.851452 13.822266 71.90625 C 13.822266 71.90625 15.472624 75.003906 20.507812 75.003906 L 36.951172 75.003906 C 37.79647 75.003906 38.480469 74.310676 38.480469 73.455078 C 38.480469 72.59938 37.79647 71.90625 36.951172 71.90625 L 20.005859 71.90625 C 17.153065 71.90625 15.876953 70.153318 15.876953 68.419922 C 15.876953 66.214426 17.781642 64.6547 20.710938 64.5625 C 22.055334 64.8649 23.680958 65.635557 24.347656 67.564453 C 24.628256 68.372151 25.502577 68.797672 26.296875 68.513672 C 27.094773 68.229672 27.514975 67.346762 27.234375 66.539062 C 26.545777 64.551166 25.15673 63.051114 23.240234 62.166016 C 30.053422 49.57134 29.536267 35.057634 28.792969 30.089844 C 28.654569 29.171546 28.301316 28.021881 28.228516 27.863281 C 27.951616 27.232683 27.281836 26.852497 26.585938 26.966797 C 25.25614 27.188097 21.633649 27.570954 19.126953 26.722656 C 19.054153 26.696856 18.985216 26.672284 18.916016 26.646484 C 16.17252 25.436788 14.35742 23.057056 13.544922 19.664062 C 14.53962 19.435364 15.979618 18.616947 16.916016 15.939453 C 19.80521 15.474755 21.441258 14.619429 22.035156 13.269531 C 23.445154 10.046237 25.45524 8.7363602 27.677734 8.1757812 C 28.829032 7.8844318 31.787398 7.4799434 34.308594 9.1875 C 35.011792 9.663259 35.581428 10.443861 35.923828 11.443359 C 36.492228 13.110257 36.07897 14.972604 34.763672 16.6875 C 31.349878 21.135292 30.491288 23.401168 30.804688 26.351562 C 31.004986 28.21036 32.003604 29.737233 33.625 30.644531 C 35.851096 31.894729 38.762185 31.935319 40.988281 30.544922 C 43.381977 29.047624 44.769055 26.384776 45.439453 21.896484 C 45.439453 21.889084 45.439665 21.880241 45.443359 21.869141 C 44.860361 20.364443 43.937784 18.29356 42.804688 16.851562 C 42.892187 18.10186 43.071334 19.678707 42.707031 21.345703 C 41.974633 24.698197 41.512087 26.379749 39.650391 27.748047 C 38.211193 28.806545 36.305812 28.600681 35.103516 27.925781 C 34.356616 27.509083 33.932797 26.863512 33.841797 26.007812 C 33.670497 24.410916 33.849401 22.909664 37.175781 18.576172 C 39.270677 15.847078 39.933687 12.383546 38.337891 9.3261719 C 38.720489 9.5253215 39.16478 9.7874642 39.580078 10.089844 C 39.580078 10.089844 41.715823 11.459247 43.949219 14.369141 C 44.597717 15.213639 46.868529 18.240478 48.890625 24.384766 C 44.263535 36.016842 37.496094 54.294972 37.496094 61.722656 C 37.496094 69.150342 43.374725 74.984375 50.599609 74.984375 C 57.824495 74.984375 63.701172 69.036042 63.701172 61.722656 C 63.701172 57.702764 61.331559 49.127955 56.667969 36.238281 C 55.600471 33.291487 54.518757 30.414858 53.505859 27.789062 L 51.951172 32.265625 C 56.039064 43.115803 60.640625 56.65876 60.640625 61.71875 C 60.640625 67.324538 56.137599 71.882812 50.599609 71.882812 C 45.061621 71.882812 40.556641 67.320938 40.556641 61.71875 C 40.556641 53.870666 49.261906 31.735053 52.1875 24.417969 L 52.1875 24.414062 C 53.819805 20.331374 55.0883 17.315601 55.5 16.345703 C 57.671396 11.211913 62.053648 5.6653741 67.398438 3.6738281 C 63.405344 7.5425805 64.837832 9.5703125 66.298828 9.5703125 L 70.255859 9.5703125 C 72.715155 9.7768421 75.281854 10.05317 76.96875 13.789062 C 77.631848 15.61836 78.871193 16.935091 80.525391 17.587891 C 80.168291 18.495189 79.891926 20.055996 81.669922 20.871094 C 80.325524 24.087088 77.374863 27.084851 70.984375 26.439453 C 70.139077 26.354653 69.390441 26.974274 69.306641 27.826172 C 69.222841 28.67817 69.836136 29.438638 70.677734 29.523438 C 70.739734 29.530837 70.797375 29.533439 70.859375 29.537109 C 70.072377 34.479099 70.357505 40.94494 71.658203 47.111328 C 73.009901 53.517416 75.300772 58.849622 78.197266 62.416016 C 76.557768 63.319514 75.363234 64.717782 74.740234 66.517578 C 74.390436 67.528076 75.137896 68.578125 76.183594 68.578125 C 76.813892 68.578125 77.4064 68.181067 77.625 67.542969 C 78.288098 65.625273 79.903343 64.851228 81.244141 64.548828 C 87.569127 64.847528 87.29579 71.886719 81.8125 71.886719 L 64.261719 71.886719 C 63.416421 71.886719 62.730469 72.579949 62.730469 73.435547 C 62.730469 74.291245 63.416421 74.984375 64.261719 74.984375 L 81.8125 74.984375 C 86.65089 74.984375 87.990234 71.886719 87.990234 71.886719 L 87.994141 71.902344 C 88.660939 70.847546 89.003906 69.629412 89.003906 68.416016 C 89.003906 64.941922 86.332498 61.801367 81.628906 61.480469 C 81.563306 61.462069 81.494981 61.450759 81.425781 61.443359 C 75.133595 54.911873 72.25224 39.093924 73.960938 29.589844 C 79.684726 29.136244 83.710146 25.730463 85.214844 19.921875 C 85.877942 17.351281 84.70086 15.370742 82.259766 14.902344 C 81.061068 14.670044 80.267278 13.951576 79.830078 12.705078 C 79.815478 12.664478 79.801393 12.628488 79.783203 12.587891 C 77.473307 7.4062506 73.474966 6.7633732 70.826172 6.5273438 C 70.826172 6.5162738 70.837072 6.4980469 70.826172 6.4980469 C 69.867974 6.5533668 68.680455 6.5496792 69.314453 5.8378906 C 71.004949 3.9385544 71.304947 3.042958 71.498047 2.3496094 C 71.874208 1.0136156 70.69504 0.083913337 69.591797 0.005859375 z M 26.724609 13.166016 C 25.807892 13.182176 24.886918 13.808964 24.300781 14.800781 L 24.300781 14.804688 C 23.899983 15.479586 24.439194 16.131986 25.058594 16.117188 C 25.506692 16.106188 25.968941 16.168698 26.431641 16.3125 C 26.894339 16.4563 27.309736 16.665728 27.677734 16.923828 C 28.184234 17.285328 28.989403 17.048964 29.033203 16.259766 C 29.106003 14.839868 28.457414 13.593206 27.353516 13.253906 C 27.146516 13.189596 26.93616 13.162286 26.724609 13.166016 z M 72.017578 13.878906 C 71.981758 13.878693 71.944298 13.879084 71.908203 13.880859 C 70.753205 13.936159 69.824081 14.98481 69.550781 16.378906 C 69.401381 17.153404 70.123827 17.580469 70.703125 17.355469 C 71.122125 17.193269 71.5816 17.094366 72.0625 17.072266 C 72.5434 17.050066 73.009555 17.104556 73.439453 17.222656 C 74.036953 17.388556 74.717986 16.89097 74.492188 16.138672 C 74.100329 14.816718 73.127986 13.885514 72.017578 13.878906 z M 35.5625 82 L 34.666016 83.328125 L 35.734375 83.328125 L 36.994141 82 L 35.5625 82 z M 26.416016 83.585938 C 25.864216 83.585937 25.379337 83.709178 24.960938 83.955078 C 24.545438 84.197978 24.2244 84.54856 24 85.005859 C 23.7756 85.463159 23.664062 85.991597 23.664062 86.591797 L 23.664062 86.972656 C 23.664062 87.913055 23.907479 88.65316 24.392578 89.193359 C 24.880778 89.730659 25.549438 90 26.398438 90 C 27.174637 90 27.798485 89.807775 28.271484 89.421875 C 28.747484 89.036075 29.011 88.507637 29.0625 87.835938 L 27.699219 87.835938 C 27.668919 88.216137 27.549044 88.496788 27.339844 88.679688 C 27.133644 88.859787 26.819937 88.949219 26.398438 88.949219 C 25.931438 88.949219 25.58744 88.794022 25.369141 88.482422 C 25.153941 88.170922 25.046875 87.678506 25.046875 87.003906 L 25.046875 86.53125 C 25.052875 85.885351 25.168178 85.409415 25.392578 85.103516 C 25.619978 84.794816 25.961116 84.640625 26.416016 84.640625 C 26.834415 84.640625 27.144556 84.733116 27.347656 84.916016 C 27.553856 85.096115 27.673831 85.387916 27.707031 85.791016 L 29.072266 85.791016 C 28.999466 85.093616 28.728718 84.551815 28.261719 84.166016 C 27.794819 83.780116 27.180115 83.585938 26.416016 83.585938 z M 35.298828 83.585938 C 34.747029 83.585938 34.254718 83.711391 33.824219 83.962891 C 33.396619 84.21159 33.064625 84.570263 32.828125 85.039062 C 32.594625 85.504962 32.478516 86.045657 32.478516 86.660156 L 32.478516 86.96875 C 32.481516 87.568949 32.601291 88.101354 32.837891 88.564453 C 33.07439 89.024553 33.407291 89.378353 33.837891 89.626953 C 34.26839 89.875653 34.757841 90 35.306641 90 C 35.86154 90 36.35365 89.874547 36.78125 89.623047 C 37.21175 89.371547 37.542938 89.013881 37.773438 88.550781 C 38.003837 88.087682 38.117188 87.550046 38.117188 86.935547 L 38.117188 86.65625 C 38.117188 86.044551 38.000172 85.504962 37.763672 85.039062 C 37.530272 84.570263 37.198078 84.21159 36.767578 83.962891 C 36.340079 83.711391 35.850728 83.585938 35.298828 83.585938 z M 56.783203 83.585938 C 56.219204 83.585937 55.726287 83.708172 55.304688 83.951172 C 54.886288 84.191272 54.566097 84.538694 54.341797 84.996094 C 54.120497 85.450593 54.009766 85.990182 54.009766 86.613281 L 54.009766 87.037109 C 54.015766 87.643109 54.135641 88.170441 54.369141 88.619141 C 54.60564 89.06784 54.938641 89.411138 55.369141 89.648438 C 55.80284 89.882837 56.305907 90 56.878906 90 C 57.424706 90 57.922294 89.925237 58.371094 89.773438 C 58.819793 89.619038 59.16661 89.4022 59.412109 89.125 L 59.412109 86.634766 L 56.806641 86.634766 L 56.806641 87.582031 L 58.048828 87.582031 L 58.048828 88.658203 C 57.830528 88.864003 57.463571 88.966797 56.951172 88.966797 C 56.441772 88.966797 56.056668 88.799243 55.792969 88.464844 C 55.529069 88.130344 55.396484 87.637021 55.396484 86.982422 L 55.396484 86.583984 C 55.399384 85.935085 55.523125 85.445887 55.765625 85.117188 C 56.008225 84.788588 56.360219 84.623047 56.824219 84.623047 C 57.188018 84.623047 57.473488 84.707247 57.679688 84.873047 C 57.888787 85.038847 58.023384 85.29895 58.083984 85.65625 L 59.412109 85.65625 C 59.330309 84.981751 59.0677 84.468687 58.625 84.117188 C 58.1824 83.762788 57.568602 83.585938 56.783203 83.585938 z M 2.4648438 83.671875 L 0 89.914062 L 1.4511719 89.914062 L 1.90625 88.628906 L 4.2988281 88.628906 L 4.7578125 89.914062 L 6.2089844 89.914062 L 3.7285156 83.671875 L 2.4648438 83.671875 z M 5.8710938 83.671875 L 5.8710938 84.714844 L 7.8730469 84.714844 L 7.8730469 89.914062 L 9.2363281 89.914062 L 9.2363281 84.714844 L 11.265625 84.714844 L 11.265625 83.671875 L 5.8710938 83.671875 z M 12.048828 83.671875 L 12.048828 89.914062 L 16.486328 89.914062 L 16.486328 88.880859 L 13.412109 88.880859 L 13.412109 87.208984 L 16.03125 87.208984 L 16.03125 86.201172 L 13.412109 86.201172 L 13.412109 84.714844 L 16.478516 84.714844 L 16.478516 83.671875 L 12.048828 83.671875 z M 17.287109 83.671875 L 17.287109 89.914062 L 18.652344 89.914062 L 18.652344 85.806641 L 21.308594 89.914062 L 22.671875 89.914062 L 22.671875 83.671875 L 21.3125 83.671875 L 21.3125 87.787109 L 18.652344 83.671875 L 17.287109 83.671875 z M 30.044922 83.671875 L 30.044922 89.914062 L 31.410156 89.914062 L 31.410156 83.671875 L 30.044922 83.671875 z M 39.109375 83.671875 L 39.109375 89.914062 L 40.474609 89.914062 L 40.474609 85.806641 L 43.130859 89.914062 L 44.494141 89.914062 L 44.494141 83.671875 L 43.134766 83.671875 L 43.134766 87.787109 L 40.474609 83.671875 L 39.109375 83.671875 z M 49.912109 83.671875 L 47.447266 89.914062 L 48.896484 89.914062 L 49.351562 88.628906 L 51.744141 88.628906 L 52.203125 89.914062 L 53.654297 89.914062 L 51.175781 83.671875 L 49.912109 83.671875 z M 60.521484 83.671875 L 60.521484 89.914062 L 64.960938 89.914062 L 64.960938 88.880859 L 61.886719 88.880859 L 61.886719 87.208984 L 64.505859 87.208984 L 64.505859 86.201172 L 61.886719 86.201172 L 61.886719 84.714844 L 64.953125 84.714844 L 64.953125 83.671875 L 60.521484 83.671875 z M 65.761719 83.671875 L 65.761719 89.914062 L 67.126953 89.914062 L 67.126953 85.806641 L 69.783203 89.914062 L 71.146484 89.914062 L 71.146484 83.671875 L 69.787109 83.671875 L 69.787109 87.787109 L 67.126953 83.671875 L 65.761719 83.671875 z M 72.337891 83.671875 L 72.337891 89.914062 L 74.390625 89.914062 C 74.969724 89.911163 75.488419 89.785809 75.949219 89.537109 C 76.410118 89.28841 76.765978 88.937928 77.017578 88.486328 C 77.272378 88.034729 77.400391 87.519653 77.400391 86.939453 L 77.400391 86.652344 C 77.400391 86.072044 77.271272 85.554109 77.013672 85.099609 C 76.755872 84.64221 76.396446 84.290722 75.935547 84.044922 C 75.477747 83.796222 74.959053 83.671875 74.376953 83.671875 L 72.337891 83.671875 z M 80.203125 83.671875 L 77.736328 89.914062 L 79.1875 89.914062 L 79.642578 88.628906 L 82.035156 88.628906 L 82.494141 89.914062 L 83.945312 89.914062 L 81.466797 83.671875 L 80.203125 83.671875 z M 84.564453 83.671875 L 84.564453 89.914062 L 87.138672 89.914062 C 87.890571 89.908363 88.4685 89.752059 88.875 89.443359 C 89.2814 89.13466 89.484375 88.680278 89.484375 88.080078 C 89.484375 87.728478 89.386753 87.4304 89.189453 87.1875 C 88.995553 86.9445 88.728272 86.783125 88.388672 86.703125 C 88.685872 86.594525 88.919038 86.424859 89.085938 86.193359 C 89.252737 85.95896 89.333984 85.688612 89.333984 85.382812 C 89.333984 84.822513 89.126737 84.398075 88.710938 84.109375 C 88.296038 83.817875 87.686412 83.671875 86.882812 83.671875 L 84.564453 83.671875 z M 90.511719 83.671875 L 90.511719 89.914062 L 94.775391 89.914062 L 94.775391 88.880859 L 91.876953 88.880859 L 91.876953 83.671875 L 90.511719 83.671875 z M 95.560547 83.671875 L 95.560547 89.914062 L 100 89.914062 L 100 88.880859 L 96.925781 88.880859 L 96.925781 87.208984 L 99.544922 87.208984 L 99.544922 86.201172 L 96.925781 86.201172 L 96.925781 84.714844 L 99.992188 84.714844 L 99.992188 83.671875 L 95.560547 83.671875 z M 35.298828 84.650391 C 35.759728 84.650391 36.114681 84.819957 36.363281 85.160156 C 36.611981 85.500256 36.736328 85.997744 36.736328 86.652344 L 36.736328 86.957031 C 36.733228 87.605931 36.608881 88.099353 36.363281 88.439453 C 36.117681 88.776753 35.76454 88.945312 35.306641 88.945312 C 34.839741 88.945312 34.482975 88.769468 34.234375 88.417969 C 33.985675 88.066469 33.861328 87.572946 33.861328 86.935547 L 33.861328 86.630859 C 33.864328 85.98206 33.989681 85.49055 34.238281 85.15625 C 34.486981 84.81895 34.841029 84.650391 35.298828 84.650391 z M 73.703125 84.714844 L 74.376953 84.714844 C 74.913653 84.714844 75.32061 84.878332 75.599609 85.207031 C 75.878509 85.532831 76.017578 86.013838 76.017578 86.648438 L 76.017578 86.978516 C 76.011478 87.590215 75.867837 88.059972 75.585938 88.388672 C 75.303838 88.717372 74.895028 88.880859 74.361328 88.880859 L 73.703125 88.880859 L 73.703125 84.714844 z M 85.927734 84.714844 L 86.882812 84.714844 C 87.258812 84.714844 87.534231 84.776544 87.707031 84.902344 C 87.883131 85.025244 87.970703 85.228719 87.970703 85.511719 C 87.970703 86.017618 87.624999 86.275609 86.9375 86.287109 L 85.927734 86.287109 L 85.927734 84.714844 z M 3.0976562 85.25 L 3.9296875 87.585938 L 2.2734375 87.585938 L 3.0976562 85.25 z M 50.542969 85.25 L 51.376953 87.585938 L 49.720703 87.585938 L 50.542969 85.25 z M 80.833984 85.25 L 81.666016 87.585938 L 80.011719 87.585938 L 80.833984 85.25 z M 85.927734 87.197266 L 87.179688 87.197266 C 87.807187 87.205966 88.121094 87.494707 88.121094 88.066406 C 88.121094 88.320806 88.029756 88.520316 87.847656 88.666016 C 87.668956 88.808915 87.418656 88.880859 87.097656 88.880859 L 85.927734 88.880859 L 85.927734 87.197266 z " />
</svg>
