<svg width="84" height="74" viewBox="0 0 84 74" fill="none" xmlns="http://www.w3.org/2000/svg">
<g clip-path="url(#clip0_0_214)">
<path d="M82.5082 65.9589L57.5295 2.37696C57.2457 1.66735 56.5361 1.09965 55.8264 1.09965C55.4006 1.09965 55.1168 1.3835 54.2652 1.66735C53.2717 1.95119 52.846 2.80273 53.2717 4.22197C51.001 5.64121 44.8983 7.62815 42.6275 8.05392C42.4855 7.48623 42.3437 7.06046 41.6341 6.63469V5.64121C41.6341 3.22851 39.647 1.09965 37.0925 1.09965H23.4678C22.7581 1.09965 21.9066 1.52542 21.197 1.80927C20.6293 1.52542 19.7777 1.09965 19.0681 1.09965H5.44339C2.88876 1.09965 0.901825 3.22851 0.901825 5.64121V69.2232C0.901825 71.7778 2.88876 73.7647 5.44339 73.7647H19.0681C19.7777 73.7647 20.6293 73.4809 21.3389 73.197C21.9066 73.4809 22.7581 73.7647 23.6097 73.7647H37.2344C39.647 73.7647 41.7759 71.7778 41.7759 69.2232V17.9886L63.2065 72.6293C63.4903 73.339 64.058 73.7647 64.7676 73.7647C65.1934 73.7647 65.4772 73.6229 66.4707 73.339C67.3223 73.0551 67.8899 72.2036 67.3223 70.7843C69.735 69.3651 75.6958 67.3781 78.1085 66.9524C78.5342 68.5136 79.5277 68.7974 80.3793 68.5136L81.3727 68.0877C82.3662 67.804 82.7919 66.8105 82.5082 65.9589ZM19.0681 69.2232H5.44339V60.14H19.0681V69.2232ZM19.0681 55.5985H5.44339V19.2659H19.0681V55.5985ZM19.0681 14.7244H5.44339V5.64121H19.0681V14.7244ZM37.2344 69.2232H23.6097V60.14H37.2344V69.2232ZM37.2344 55.5985H23.6097V19.2659H37.2344V55.5985ZM37.2344 14.7244H23.6097V5.64121H37.2344V14.7244ZM66.045 66.9524L43.9048 11.744C47.5948 11.1762 52.988 8.90547 54.691 8.05392L76.6893 63.2624C73.1412 63.83 67.6061 66.1008 66.045 66.9524Z" fill="white"/>
</g>
<defs>
<clipPath id="clip0_0_214">
<rect width="82.9127" height="73.5967" fill="white" transform="translate(0.78537 0.400944)"/>
</clipPath>
</defs>
</svg>
