<svg width="81" height="72" viewBox="0 0 81 72" fill="none" xmlns="http://www.w3.org/2000/svg">
<path d="M80.5781 30.9375L43.5938 1.125C42.75 0.421875 41.625 0 40.5 0C39.2344 0 38.1094 0.421875 37.2656 1.125L0.28125 30.9375C0 31.2188 0 31.5 0 31.7812C0 31.9219 0 32.2031 0.140625 32.3438L2.10938 34.7344C2.25 35.0156 2.53125 35.1562 2.95312 35.1562C3.09375 35.1562 3.375 35.0156 3.51562 34.875L9 30.5156V69.75C9 71.0156 9.98438 72 11.25 72H69.75C70.875 72 72 71.0156 72 69.75V30.5156L77.3438 35.0156C77.4844 35.1562 77.7656 35.1562 78.0469 35.1562C78.3281 35.1562 78.6094 35.0156 78.75 34.875L80.7188 32.3438C80.8594 32.2031 80.8594 31.9219 80.8594 31.7812C80.8594 31.5 80.8594 31.2188 80.5781 30.9375ZM67.5 67.5H13.5V26.8594L39.7969 5.625C39.9375 5.48438 40.2188 5.48438 40.3594 5.48438C40.6406 5.48438 40.7812 5.48438 41.0625 5.625L67.5 26.8594V67.5ZM36 30.375V38.25H28.125C27.4219 38.25 27 38.8125 27 39.375V46.125C27 46.8281 27.4219 47.25 28.125 47.25H36V55.125C36 55.8281 36.4219 56.25 37.125 56.25H43.875C44.4375 56.25 45 55.8281 45 55.125V47.25H52.875C53.4375 47.25 54 46.8281 54 46.125V39.375C54 38.8125 53.4375 38.25 52.875 38.25H45V30.375C45 29.8125 44.4375 29.25 43.875 29.25H37.125C36.4219 29.25 36 29.8125 36 30.375Z" fill="#2CAF00"/>
</svg>
