<svg width="81" height="72" viewBox="0 0 81 72" fill="none" xmlns="http://www.w3.org/2000/svg">
<path d="M80.9144 64.2656L56.1476 1.26562C55.8661 0.562505 55.1626 0 54.4589 0C54.0368 0 53.7553 0.281252 52.9109 0.562505C51.9259 0.843748 51.5038 1.6875 51.9259 3.09375C49.6744 4.5 43.6235 6.46875 41.3719 6.89062C41.2311 6.32813 41.0905 5.90625 40.3869 5.48438V4.5C40.3869 2.10938 38.4167 0 35.8838 0H22.3746C21.671 0 20.8267 0.421874 20.1231 0.703126C19.5602 0.421874 18.7158 0 18.0122 0H4.50306C1.97009 0 0 2.10938 0 4.5V67.5C0 70.0313 1.97009 72 4.50306 72H18.0122C18.7158 72 19.5602 71.7187 20.2638 71.4375C20.8267 71.7187 21.671 72 22.5153 72H36.0245C38.4167 72 40.5276 70.0313 40.5276 67.5V16.7344L61.7764 70.875C62.0578 71.5781 62.6207 72 63.3243 72C63.7465 72 64.0279 71.8594 65.0129 71.5782C65.8573 71.2969 66.4201 70.4531 65.8573 69.0469C68.2495 67.6406 74.1599 65.6718 76.5521 65.25C76.9742 66.7969 77.9592 67.0781 78.8036 66.7969L79.7886 66.375C80.7737 66.0938 81.1958 65.1094 80.9144 64.2656ZM18.0122 67.5H4.50306V58.5H18.0122V67.5ZM18.0122 54H4.50306V18H18.0122V54ZM18.0122 13.5H4.50306V4.5H18.0122V13.5ZM36.0245 67.5H22.5153V58.5H36.0245V67.5ZM36.0245 54H22.5153V18H36.0245V54ZM36.0245 13.5H22.5153V4.5H36.0245V13.5ZM64.5908 65.25L42.6384 10.5469C46.2971 9.98437 51.6445 7.73438 53.3332 6.89062L75.1449 61.5938C71.6269 62.1562 66.1388 64.4062 64.5908 65.25Z" fill="#2CAF00"/>
</svg>
