<svg width="253" height="62" viewBox="0 0 253 62" fill="none" xmlns="http://www.w3.org/2000/svg">
<g clip-path="url(#clip0_0_410)">
<path d="M70.2922 45.0501L72.2832 44.9651C74.4732 44.7657 74.7836 37.6879 74.7836 37.6879V17.9321C74.7836 11.1533 74.7836 10.8543 72.6989 10.6549L70.8017 10.4555V9.15956H84.9111C90.0583 9.15956 98.1216 9.94534 98.1216 19.0873C98.1216 26.558 89.865 30.0969 84.7178 30.0969H83.7458V28.9183C86.0764 28.9183 92.3918 27.8364 92.3918 19.4802C92.3918 12.9917 88.1171 11.0272 83.1631 11.0272C81.9979 11.0272 80.8326 11.2237 79.7639 11.5198V37.3771C79.7639 44.1559 79.7639 44.4549 82.7884 44.6543L84.7413 44.8537V46.0499H70.8017V45.0531H70.2922V45.0501Z" fill="white"/>
<path d="M97.9695 31.8063C97.9695 22.1336 105.436 16.0527 114.099 16.0527C122.763 16.0527 129.333 21.3361 129.333 31.3079C129.333 41.2796 122.165 47.0615 113.203 47.0615C104.443 47.0615 97.9695 41.479 97.9695 31.8063ZM114.199 45.5662C121.864 45.5662 124.754 38.9868 124.754 32.4044C124.754 23.931 120.573 17.4483 113.502 17.4483C106.431 17.4483 102.847 23.0308 102.847 30.8094C102.748 40.0804 107.427 45.5662 114.199 45.5662Z" fill="white"/>
<path d="M142.974 29.8976C146.557 31.8913 150.241 33.7854 150.241 39.1685C150.241 45.2495 144.666 47.5423 139.885 47.5423C136.4 47.5423 134.21 46.6451 132.817 45.7479C132.02 43.9536 131.423 40.6639 131.423 37.8726L132.817 37.4739C133.315 40.6639 135.007 46.047 141.079 46.047C144.165 46.047 146.455 44.0533 146.455 40.5642C146.455 37.2745 143.667 35.0813 140.183 33.4863L137.296 31.8913C134.708 30.4957 132.319 27.7044 132.319 24.3151C132.319 18.8322 136.898 16.5394 141.676 16.5394C144.464 16.5394 146.753 17.2372 147.848 17.935C148.247 19.3307 148.346 23.0191 148.346 24.1157H147.251C146.753 21.8229 146.057 17.935 140.98 17.935C138.391 17.935 136.102 19.8291 136.102 22.8197C136.102 25.5113 137.993 26.9069 140.482 28.3026L142.971 29.8976H142.974Z" fill="white"/>
<path d="M150.451 45.4635L151.933 45.3639C153.725 45.1645 153.725 44.9651 153.438 39.4823V23.8283C153.725 18.3455 153.725 18.1461 151.933 17.9468L150.451 17.8471V17.1346H161.405V17.8471L159.701 17.9468C157.909 18.1461 157.909 18.3455 158.418 23.8283V39.3826C157.909 44.8654 157.909 45.0648 159.701 45.2642L161.405 45.3639V47.0439H150.451V45.4635Z" fill="white"/>
<path d="M170.153 45.0501L171.845 45.3639C174.334 45.1645 174.346 39.4823 174.346 39.4823V18.1315H172.018C165.539 18.1315 165.436 18.841 164.526 24.1127H163.94C163.94 23.9192 163.844 22.7552 163.844 22.1747C163.844 20.1399 164.133 18.1022 164.327 17.1346H188.622C188.815 18.1051 189.105 20.1399 189.105 22.1747C189.105 22.7552 189.009 23.9192 189.009 24.1127H188.335C187.322 18.841 187.223 18.1315 180.843 18.1315H178.328V39.1686C178.328 44.5752 178.328 44.7716 180.755 44.968L182.31 45.0677V46.0499H170.361V45.0531H170.15L170.153 45.0501Z" fill="white"/>
<path d="M191.272 45.4635L192.554 45.3639C194.346 45.1645 194.346 44.9651 194.258 39.4823V23.8283C194.346 18.3455 194.346 18.1461 192.554 17.9468L191.272 17.8471V17.1346H201.229V17.8471L200.322 17.9468C198.53 18.1461 198.53 18.3455 198.243 23.8283V39.3826C198.53 44.8654 198.53 45.0648 200.322 45.2642L201.229 45.3639V47.0439H191.272V45.4635Z" fill="white"/>
<path d="M207.091 21.3361C206.394 19.6415 205.897 18.0464 204.403 17.8471L203.22 17.7474V17.1346H214.174V17.7474L212.868 17.8471C212.171 17.9468 210.877 18.0464 210.877 18.9436C210.877 19.143 211.275 20.2396 211.474 20.738L219.239 40.7782C220.234 38.0866 227.302 20.5386 227.302 19.143C227.302 18.2458 226.406 18.0464 225.51 17.8471L223.133 17.548V17.1346H233.091V17.548L231.984 17.8471C231.486 17.9468 230.988 18.2458 230.59 18.5449C229.595 19.5418 228.201 23.8283 227.006 26.0215L223.92 33.3984C221.332 39.579 219.142 45.0648 218.744 46.2611C218.545 46.4604 217.848 46.7595 217.251 46.9589L207.094 21.3361H207.091Z" fill="white"/>
<path d="M223.133 45.9473L224.032 45.8476C225.73 45.5486 225.929 45.0501 227.03 42.4582L236.419 19.7265C236.818 18.8293 237.119 17.9321 237.517 17.0349L238.817 16.6362L248.907 42.6576C249.607 44.452 250.005 45.4489 251.205 45.7479L253.003 46.047V47.0439H242.05V46.047L243.997 45.6483C244.776 45.5486 245.361 45.2495 245.361 44.7511C245.361 44.452 245.165 44.1529 245.068 43.8539L241.95 35.3804C240.293 35.0813 238.735 34.882 237.081 34.882C235.524 34.882 233.963 35.0813 232.502 35.3804L230.262 41.6607C229.776 43.0564 229.387 44.3523 229.387 44.6514C229.387 45.5486 229.972 45.6483 230.458 45.6483L233.088 46.047V47.0439H223.13V45.9473H223.133ZM232.88 33.0993C234.273 32.9996 235.667 32.8999 236.961 32.8999C238.355 32.8999 239.848 32.8999 241.242 33.0993L237.16 22.2304L232.88 33.0993Z" fill="white"/>
<path d="M96.974 58.0271C96.8744 59.1237 96.6753 59.9212 96.2771 60.9181C95.7794 61.1175 94.4853 61.5162 92.793 61.5162C89.6075 61.5162 86.5215 60.0209 86.5215 55.7343C86.5215 51.4477 90.1052 49.8527 92.793 49.8527C94.4853 49.8527 95.7794 50.2515 96.2771 50.5506C96.4762 51.2484 96.5758 52.2452 96.5758 53.0428L96.078 53.1424C95.8789 52.4446 95.6799 50.4509 92.793 50.4509C89.9061 50.4509 88.3133 52.2452 88.3133 55.4353C88.3133 58.3262 89.707 61.0178 92.793 61.0178C95.5803 61.0178 95.9785 59.3231 96.5758 57.9275L96.974 58.0271Z" fill="white"/>
<path d="M97.4717 56.8309C97.4717 53.9399 99.7613 52.0459 102.35 52.0459C104.938 52.0459 106.929 53.6409 106.929 56.6315C106.929 59.6221 104.739 61.4165 102.051 61.4165C99.3631 61.4165 97.4717 59.8215 97.4717 56.8309ZM102.449 61.0178C104.739 61.0178 105.635 59.024 105.635 57.0303C105.635 54.4384 104.34 52.5443 102.25 52.5443C100.159 52.5443 99.0644 54.239 99.0644 56.6315C98.9649 59.3231 100.359 61.0178 102.449 61.0178Z" fill="white"/>
<path d="M107.728 62L108.027 60.8184C108.226 60.8184 108.325 60.7187 108.425 60.619C108.524 60.5193 108.624 59.6222 108.723 58.4259L108.923 55.0365C109.022 54.1393 109.022 52.644 109.022 52.2453L109.42 52.1456C109.818 52.8434 112.904 58.725 113.303 59.4228C113.701 58.725 116.787 52.9431 116.986 52.2453L117.384 52.1456C117.384 52.2453 117.484 53.7406 117.583 55.535L117.683 57.9275C117.782 59.1237 117.882 60.4197 117.981 60.619C118.081 60.7187 118.28 60.8184 118.479 60.9181L118.59 61.0178V61.0031H115.604V60.7041L116.081 60.6044C116.655 60.5047 116.655 60.3053 116.655 59.7072C116.655 58.2119 116.465 55.3209 116.465 54.5234C116.274 55.1215 114.933 57.8131 113.592 60.405C113.496 60.5047 113.496 60.7041 113.402 60.8038L113.019 61.0031C112.732 60.405 111.104 57.0156 110.146 55.2212C110.05 54.9222 109.859 54.7228 109.763 54.4237C109.763 55.2212 109.573 59.0094 109.573 59.5078C109.573 60.3053 109.573 60.5047 110.146 60.6044L110.624 60.7041V61.0031H107.637V62H107.725H107.728Z" fill="white"/>
<path d="M119.674 61.0031H120.172C120.669 60.8184 120.581 59.1237 120.581 59.1237V54.4384C120.581 54.4384 120.669 52.7437 120.172 52.0312H119.586H123.257C123.257 52.0312 126.543 52.5443 126.543 54.8371C126.543 56.7312 124.452 57.5287 123.158 57.0156H122.572V57.2296C123.556 57.2296 125.149 56.9306 125.149 54.9368C125.149 53.3418 124.054 52.8434 122.859 52.8434C122.561 52.8434 122.572 52.9431 122.572 52.9431V59.2234C122.572 59.2234 122.063 60.9181 122.859 61.0031H123.568V62H119.586V61.0031H119.674Z" fill="white"/>
<path d="M125.749 61.0031H126.048C126.048 61.0031 126.645 60.7187 126.944 59.9212L129.731 53.0428C129.831 52.7437 129.93 52.5443 130.03 52.2453L130.428 52.1456L133.414 60.0209C133.613 60.5194 133.713 60.9181 134.111 60.9181L134.521 61.0178V62H131.535V61.7009L132.152 61.6013C132.357 61.6013 132.565 61.5016 132.565 61.3022C132.565 61.2025 132.463 61.1028 132.463 61.0031L131.432 58.4112C130.917 58.3116 130.402 58.3116 129.886 58.3116C129.371 58.3116 128.856 58.4112 128.446 58.4112L127.725 60.3053C127.521 60.7041 127.415 61.1028 127.415 61.2025C127.415 61.5016 127.62 61.5016 127.725 61.5016L128.548 61.6013V61.0031H125.562H125.749ZM128.636 57.2297C129.034 57.2297 129.432 57.13 129.831 57.13C130.229 57.13 130.727 57.13 131.125 57.2297L129.831 53.9399L128.636 57.2297Z" fill="white"/>
<path d="M134.509 61.0031H134.91C135.414 61.0031 135.516 60.5164 135.516 59.156V52.6381L135.818 52.5414C136.928 53.9018 141.071 57.989 142.485 59.4462V54.8752C142.485 53.4151 142.485 53.0281 141.779 53.0281H141.489H144.476H144.078C143.58 53.0281 143.48 53.5148 143.48 54.8752V61.3931L143.182 61.4898C142.883 61.1966 142.087 60.3229 140.593 58.8628L136.512 54.6788V59.153C136.512 60.6132 136.512 61.0002 137.209 61.0002H137.507V61.9971H134.521V61.0002H134.509V61.0031ZM137.496 51.049C137.695 50.7499 138.193 49.9524 138.889 49.9524C139.188 49.9524 139.586 50.0521 139.885 50.2515C140.183 50.3512 140.582 50.5506 140.88 50.5506C141.279 50.5506 141.478 50.1518 141.577 49.9524L141.776 50.1518C141.577 50.4509 141.279 51.2484 140.482 51.2484C139.785 51.2484 138.889 50.7499 138.491 50.7499C138.093 50.7499 137.794 51.1487 137.695 51.3481L137.496 51.049Z" fill="white"/>
<path d="M145.471 61.0031H144.932C145.292 60.9308 145.471 60.2818 145.471 59.0563V53.9751C145.471 52.7495 145.292 52.1006 144.932 52.0283H148.46V53.0252H147.963C147.631 53.0897 147.465 53.6663 147.465 54.755V59.2703C147.465 60.3591 147.631 60.9357 147.963 61.0002H148.46V61.9971H145.474V61.0002L145.471 61.0031Z" fill="white"/>
<path d="M148.15 61.0031H148.449C148.449 61.0031 149.046 60.7187 149.345 59.9212L152.132 53.0428C152.232 52.7437 152.331 52.5443 152.431 52.2453L152.829 52.1456L155.815 60.0209C156.014 60.5194 156.114 60.9181 156.512 60.9181L157.42 61.0178V62H153.438V61.7009L154.056 61.6013C154.261 61.6013 154.469 61.5016 154.469 61.3022C154.469 61.2025 154.366 61.1028 154.366 61.0031L153.335 58.4112C152.82 58.3116 152.305 58.3116 151.79 58.3116C151.274 58.3116 150.759 58.4112 150.349 58.4112L149.629 60.3053C149.424 60.7041 149.318 61.1028 149.318 61.2025C149.318 61.5016 149.523 61.5016 149.629 61.5016L150.452 61.6013V61.0031H147.465H148.15ZM151.037 57.2297C151.435 57.2297 151.833 57.13 152.232 57.13C152.63 57.13 153.128 57.13 153.526 57.2297L152.232 53.9399L151.037 57.2297Z" fill="white"/>
<path d="M160.096 61.0031H160.494C160.494 61.0031 160.892 60.9181 160.406 59.5225V55.6346C160.73 54.7042 160.76 54.1677 160.494 54.025H165.331C167.881 54.025 169.474 55.4089 169.474 57.7486C169.474 60.8331 167.137 62.0029 164.696 62.0029H160.409V61.0061H160.099L160.096 61.0031ZM162.397 60.7187C162.795 60.8184 163.293 60.9181 163.691 60.9181C165.782 60.9181 166.877 59.8215 166.877 57.6284C166.877 55.2359 165.583 54.239 163.592 54.239C163.194 54.239 162.795 54.3387 162.397 54.3387V60.7187Z" fill="white"/>
<path d="M168.56 61.0031H168.959C169.357 61.0178 169.357 60.9181 169.369 59.5225V55.6346C169.357 54.239 168.959 54.025 168.959 54.025H168.373V55.0218H173.438C173.438 54.1393 173.35 55.1362 173.35 55.1362V55.0218H173.239C173.04 54.4384 172.941 54.239 171.348 54.025H170.364V57.0156H171.447C172.343 57.3293 172.542 57.3293 172.642 56.8309L172.741 56.0187H173.35V57.0156H172.741L172.642 58.0271C172.542 57.5287 172.343 57.5287 171.447 58.0125H170.364V60.5838C170.762 60.6894 171.16 60.6894 171.559 60.6894C173.35 60.6894 173.45 59.9535 173.649 59.0094H173.948C173.948 59.7453 173.749 60.3727 173.55 61.0031H168.373H168.56Z" fill="white"/>
<path d="M182.002 55.2212C183.296 56.0187 184.69 56.7165 184.69 58.7103C184.69 61.0031 182.599 61.9003 180.808 61.9003C179.513 61.9003 178.717 61.5016 178.12 61.2025C177.821 60.5047 177.622 59.3084 177.622 58.2119L178.12 58.1122C178.319 59.3084 178.916 61.3022 181.206 61.3022C182.4 61.3022 183.197 60.5047 183.197 59.2087C183.197 58.0125 182.201 57.1153 180.808 56.5172L179.713 55.919C178.717 55.4206 177.821 54.324 177.821 53.1278C177.821 51.0343 179.513 50.2368 181.305 50.2368C182.4 50.2368 183.197 50.5359 183.595 50.7353C183.694 51.2337 183.794 52.6293 183.794 53.0281H183.396C183.197 52.2306 182.998 50.7353 181.007 50.7353C180.011 50.7353 179.215 51.4331 179.215 52.5297C179.215 53.5265 179.912 54.025 180.808 54.6231L182.002 55.2212Z" fill="white"/>
<path d="M185.586 62H185.797C186.129 61.9335 186.295 61.3354 186.295 60.2056V54.4384C186.295 54.4384 186.581 52.7437 186.084 52.0312H185.299H191.462C191.462 52.0312 191.562 53.1424 191.275 53.7406V54.239L191.263 54.3387C190.964 52.8434 190.965 52.644 189.073 52.0312H187.293V56.0187H189.173C190.268 56.3325 190.467 56.3325 190.566 55.7343L190.666 55.0219H191.275V58.0125H190.888L190.792 57.558C190.695 57.0156 190.502 57.0156 189.442 57.0156H188.286V60.5193C188.286 60.5193 188.971 60.7187 189.468 60.7187C191.658 60.7187 191.758 59.9212 192.057 58.8247L192.355 58.9243C192.355 59.8215 192.156 60.4197 191.858 61.0031H186.292V62H185.583H185.586Z" fill="white"/>
<path d="M201.824 60.4255C201.326 60.6366 199.932 61.1615 198.439 61.1615C195.751 61.1615 193.263 59.9007 193.263 56.2298C193.263 52.559 196.15 51.2982 198.34 51.2982C199.733 51.2982 200.729 51.6119 201.127 51.9286C201.226 52.4534 201.326 53.292 201.326 54.0279L200.928 54.1335C200.828 53.6086 200.629 51.826 198.34 51.826C196.05 51.826 194.756 53.4005 194.756 56.0246C194.756 58.4376 195.95 60.748 198.638 60.748C199.136 60.748 199.733 60.6425 200.231 60.5369V59.9066C200.231 58.7162 199.899 58.0868 199.236 58.0184H198.24H202.222H201.724C201.525 58.0887 201.426 58.5784 201.426 59.4873C201.426 59.9066 201.426 60.0121 201.625 60.0121H201.724L201.824 60.4314V60.4255Z" fill="white"/>
<path d="M210.335 60.405C210.122 60.2056 210.016 60.0062 209.805 60.0062C209.595 60.0062 208.423 60.9034 206.514 60.9034C203.54 60.9034 203.223 59.3084 203.223 57.4144V53.8256C203.223 52.6958 203.047 52.0977 202.694 52.0312H202.228H205.214H204.725C204.388 52.0977 204.219 52.6958 204.219 53.8256V57.215C204.219 59.1091 204.523 60.405 206.658 60.405C208.081 60.405 208.994 59.6075 209.196 59.3084V53.8256C209.196 52.6958 209.028 52.0977 208.69 52.0312H208.201H211.72C211.367 52.0977 211.19 52.6958 211.19 53.8256V60.7041L210.766 60.8038L210.341 60.405H210.335Z" fill="white"/>
<path d="M212.268 62H212.765C212.765 62 213.263 60.8184 213.175 59.1237V54.4384C213.263 52.7437 212.765 52.0312 212.765 52.0312H212.18H215.851C217.145 52.3449 218.937 52.5443 218.937 54.6378C218.937 55.9337 217.842 56.6315 217.046 57.0303C217.245 57.429 217.743 58.3262 218.041 58.9243C218.639 59.9212 219.236 60.7187 219.534 60.9181C219.634 61.0178 220.143 61.0178 220.143 61.0178V61.0031H219.353C218.495 61.0031 217.482 60.3757 217.099 59.6075L216.571 58.549C216.162 57.8336 215.857 57.3205 215.755 57.2209C215.55 57.0156 215.143 57.0156 214.938 57.0156H214.171V59.2234C214.495 60.3532 214.823 60.9464 215.154 61.0031H215.166H212.18V62H212.268ZM214.071 57.0156H214.867C215.962 57.0156 217.058 56.4175 217.058 54.8225C217.058 53.2275 216.062 52.729 214.967 52.729C214.668 52.729 214.37 52.8287 214.171 52.8287V57.0156H214.071Z" fill="white"/>
<path d="M220.035 56.8309C220.035 53.9399 222.325 52.0459 224.913 52.0459C227.501 52.0459 229.492 53.6409 229.492 56.6315C229.492 59.6221 227.302 61.4165 224.614 61.4165C221.927 61.4165 220.035 59.8215 220.035 56.8309ZM224.913 61.0178C227.203 61.0178 228.098 59.024 228.098 57.0303C228.098 54.4384 226.804 52.5443 224.714 52.5443C222.623 52.5443 221.528 54.239 221.528 56.6315C221.429 59.3231 222.822 61.0178 224.913 61.0178Z" fill="white"/>
<path d="M233.972 55.919C235.067 56.5172 236.162 57.1153 236.162 58.7103C236.162 60.5047 234.47 61.2025 233.076 61.2025C231.981 61.2025 231.384 60.9034 230.985 60.7041C230.786 60.2056 230.587 59.2087 230.587 58.3115L230.985 58.2119C231.085 59.2087 231.682 60.8037 233.474 60.8037C234.37 60.8037 235.067 60.2056 235.067 59.1091C235.067 58.1122 234.27 57.4144 233.175 56.9159L232.279 56.4175C231.483 56.0187 230.786 55.1215 230.786 54.1247C230.786 52.43 232.18 51.7321 233.574 51.7321C234.37 51.7321 235.067 51.9315 235.465 52.1309C235.565 52.5297 235.565 53.6262 235.565 54.025H235.266C235.166 53.3272 234.868 52.1309 233.374 52.1309C232.578 52.1309 231.881 52.729 231.881 53.6262C231.881 54.4237 232.479 54.8225 233.175 55.3209L233.972 55.919Z" fill="white"/>
<path d="M30.5669 0C13.6409 0 0 13.7599 0 30.61C0 47.4602 13.7405 61.2201 30.5669 61.2201C47.3934 61.2201 61.1339 47.4602 61.1339 30.61C61.1339 13.7599 47.493 0 30.5669 0ZM30.0809 13.1471C31.0764 13.8449 31.8728 14.6424 32.9678 15.6393C33.1669 15.8386 33.366 16.038 34.0628 15.8386C35.4565 15.4399 38.7416 13.8449 41.1307 13.5458C42.2257 13.4461 42.5244 13.5458 43.1216 14.144C44.3162 15.2405 45.3117 15.9383 46.0085 16.8355C43.6194 17.1346 42.823 17.334 42.3253 17.4336L42.0266 17.5333C40.9316 17.8324 40.633 18.5302 40.5334 18.929C40.5334 19.0287 40.4339 19.228 40.4339 19.4274C40.4339 19.8262 40.5334 20.2249 40.9316 20.7234C41.5289 21.7202 41.9271 22.418 42.1262 22.9165C39.8366 23.6143 37.3479 24.6112 36.2529 25.1096C35.556 25.4087 35.0583 26.0068 34.9587 26.7046V27.1034C34.9587 27.5021 35.0583 28.1003 35.6556 28.6984C37.3479 30.4928 39.2393 34.58 39.2393 39.0689C39.2393 40.0657 39.1397 41.0626 38.9406 42.0595C38.0447 46.7448 34.8592 50.3336 29.5832 52.6293C26.8954 53.8256 24.1081 54.1246 21.3207 54.025H21.8185C27.0945 53.4268 30.7778 51.5328 33.3689 46.9471C36.9526 40.6668 34.2648 32.8882 28.8893 28.5019C27.3961 27.3057 25.6042 26.3088 24.0114 25.3119C23.6133 25.0129 23.3146 24.7138 23.9119 24.016C24.8078 22.8197 26.2015 20.826 28.6902 18.9319C29.1879 18.5331 28.9888 18.3338 28.7897 18.0347C27.8938 17.3369 27.3961 16.9381 26.301 16.2403C25.7038 15.9413 25.5047 15.6422 25.9028 15.2434C26.4006 14.745 27.2965 14.0472 29.2875 13.15C29.387 12.7513 29.7852 12.9506 30.0838 13.15L30.0809 13.1471ZM9.86984 18.1461C10.268 17.3486 11.2635 15.4546 12.1594 14.358C12.3585 14.0589 12.5576 13.9592 13.0554 14.0589C13.9513 14.1586 15.4445 14.8564 17.4355 15.3549C17.8336 15.4546 18.0327 15.4546 18.3314 15.0558C19.1278 14.1586 21.4174 12.0652 25.1006 10.4702C25.4988 10.2708 26.0961 10.2708 26.5938 10.5698C26.992 10.7692 27.4898 10.9686 28.087 11.2677C26.2952 12.0652 25.3993 12.763 24.7024 13.4608C24.1051 14.0589 24.0056 14.657 24.0056 15.0558V15.3549C24.1051 16.0527 24.5033 16.6508 25.2997 17.0496L25.3993 17.1492C25.3993 17.1492 25.2997 17.1492 25.2997 17.0496C25.897 17.3486 26.2952 17.6477 26.6934 17.9467C24.7024 19.7411 23.4083 21.4358 22.6119 22.5324C22.0146 23.3299 21.9151 24.0277 22.0146 24.5261C22.1142 25.0246 22.3133 25.6227 23.2092 26.1212L24.0056 26.6196C25.3993 27.4171 26.6934 28.2146 27.8879 29.2115C32.3676 32.8999 35.2545 39.7813 31.9694 45.6629C29.7793 49.5507 26.5938 51.6442 21.6135 52.2423C19.8217 52.4417 18.1294 52.342 16.5366 51.9432C17.2334 52.0429 17.8307 52.0429 18.5275 52.0429C22.2108 51.9432 26.1927 50.6473 28.1866 47.4573C33.2635 39.3826 27.3902 31.1055 19.526 28.5137C17.7341 27.9155 14.7477 27.3174 12.4581 27.0183C11.5622 26.9187 11.3631 26.6196 11.6617 26.0215C12.1594 25.0246 13.0554 23.0308 14.7477 20.4389C14.8472 20.3393 14.7477 20.0402 14.449 19.9405C13.5531 19.7411 11.8608 19.2427 10.3676 19.0433C9.86984 18.8439 9.67075 18.6446 9.86984 18.1461ZM34.7509 58.2265C17.128 60.9181 8.16875 47.6567 8.16875 47.6567C12.2502 51.5445 19.1219 57.9275 29.5744 53.1395C44.7085 46.3607 40.2289 31.2052 36.1445 26.7193C35.6468 26.2208 35.9454 25.7224 36.3436 25.6227C37.5382 25.1243 40.7237 23.8283 43.2124 23.2302C43.511 23.1305 43.511 23.0308 43.4115 22.6321C43.2124 22.034 42.9138 21.0371 41.7192 19.0433C41.321 18.6446 41.5201 18.3455 41.9183 18.2458C42.5156 18.1461 42.9138 17.9467 46.0993 17.548C46.3979 17.4483 46.7961 17.6477 46.9952 17.9467C47.692 19.143 48.1898 20.3393 48.6875 21.9343C48.6875 22.1336 48.9862 22.4327 49.2848 22.4327C50.4794 22.4327 54.6604 22.5324 56.8504 22.9311C57.0495 22.9311 57.4477 23.1305 57.4477 23.4296C58.045 25.224 59.3391 33.7004 55.5563 42.6723C51.0767 52.8434 42.8113 56.9306 34.7479 58.2265H34.7509Z" fill="white"/>
</g>
<defs>
<clipPath id="clip0_0_410">
<rect width="253" height="62" fill="white"/>
</clipPath>
</defs>
</svg>
