<svg width="383" height="94" viewBox="0 0 383 94" fill="none" xmlns="http://www.w3.org/2000/svg">
<g clip-path="url(#clip0_0_255)">
<path d="M106.411 68.3018L109.425 68.1729C112.74 67.8706 113.21 57.1397 113.21 57.1397V27.1874C113.21 16.9099 113.21 16.4565 110.054 16.1542L107.182 15.8519V13.8871H128.541C136.333 13.8871 148.54 15.0784 148.54 28.9388C148.54 40.2654 136.041 45.6309 128.249 45.6309H126.777V43.8439C130.305 43.8439 139.866 42.2036 139.866 29.5345C139.866 19.6971 133.395 16.7187 125.895 16.7187C124.131 16.7187 122.367 17.0166 120.749 17.4655V56.6685C120.749 66.946 120.749 67.3994 125.328 67.7017L128.284 68.004V69.8177H107.182V68.3063H106.411V68.3018Z" fill="#FF7500"/>
<path d="M148.309 48.2224C148.309 33.5574 159.612 24.3379 172.727 24.3379C185.842 24.3379 195.788 32.3483 195.788 47.4667C195.788 62.5851 184.938 71.3512 171.371 71.3512C158.109 71.3512 148.309 62.8874 148.309 48.2224ZM172.878 69.0841C184.481 69.0841 188.856 59.1089 188.856 49.1292C188.856 36.2824 182.527 26.4538 171.823 26.4538C161.119 26.4538 155.694 34.9177 155.694 46.711C155.543 60.767 162.626 69.0841 172.878 69.0841Z" fill="#FF7500"/>
<path d="M216.438 45.3286C221.863 48.3514 227.439 51.2231 227.439 59.3846C227.439 68.6042 219 72.0804 211.762 72.0804C206.488 72.0804 203.172 70.7201 201.063 69.3599C199.857 66.6393 198.953 61.6517 198.953 57.4198L201.063 56.8153C201.816 61.6517 204.378 69.8133 213.571 69.8133C218.242 69.8133 221.708 66.7905 221.708 61.5006C221.708 56.513 217.489 53.1879 212.214 50.7697L207.844 48.3514C203.926 46.2355 200.309 42.0036 200.309 36.8648C200.309 28.5521 207.241 25.0759 214.475 25.0759C218.694 25.0759 222.16 26.1339 223.818 27.1919C224.421 29.3078 224.572 34.9 224.572 36.5625H222.914C222.16 33.0863 221.106 27.1919 213.42 27.1919C209.502 27.1919 206.036 30.0635 206.036 34.5977C206.036 38.6785 208.899 40.7945 212.666 42.9104L216.434 45.3286H216.438Z" fill="#FF7500"/>
<path d="M227.758 68.9286L230.001 68.7775C232.714 68.4752 232.714 68.1729 232.279 59.8602V36.1269C232.714 27.8142 232.714 27.5119 230.001 27.2096L227.758 27.0585V25.9783H244.34V27.0585L241.76 27.2096C239.048 27.5119 239.048 27.8142 239.819 36.1269V59.7091C239.048 68.0218 239.048 68.3241 241.76 68.6263L244.34 68.7775V71.3246H227.758V68.9286Z" fill="#FF7500"/>
<path d="M257.583 68.3018L260.145 68.7775C263.913 68.4752 263.93 59.8602 263.93 59.8602V27.4897H260.407C250.598 27.4897 250.443 28.5654 249.064 36.558H248.178C248.178 36.2647 248.032 34.4999 248.032 33.6197C248.032 30.5347 248.471 27.4452 248.763 25.9783H285.542C285.835 27.4497 286.274 30.5347 286.274 33.6197C286.274 34.4999 286.127 36.2647 286.127 36.558H285.108C283.574 28.5654 283.424 27.4897 273.766 27.4897H269.958V59.3846C269.958 67.5817 269.958 67.8795 273.633 68.1774L275.986 68.3285V69.8177H257.898V68.3063H257.579L257.583 68.3018Z" fill="#FF7500"/>
<path d="M289.554 68.9286L291.495 68.7775C294.208 68.4752 294.208 68.1729 294.075 59.8602V36.1269C294.208 27.8142 294.208 27.5119 291.495 27.2096L289.554 27.0585V25.9783H304.628V27.0585L303.254 27.2096C300.541 27.5119 300.541 27.8142 300.107 36.1269V59.7091C300.541 68.0218 300.541 68.3241 303.254 68.6263L304.628 68.7775V71.3246H289.554V68.9286Z" fill="#FF7500"/>
<path d="M313.501 32.3484C312.446 29.779 311.693 27.3608 309.432 27.0585L307.642 26.9073V25.9783H324.223V26.9073L322.246 27.0585C321.191 27.2096 319.232 27.3608 319.232 28.721C319.232 29.0233 319.835 30.6858 320.137 31.4415L331.891 61.8251C333.398 57.7443 344.098 31.1392 344.098 29.0233C344.098 27.663 342.741 27.3608 341.385 27.0585L337.786 26.6051V25.9783H352.86V26.6051L351.185 27.0585C350.431 27.2096 349.678 27.663 349.075 28.1165C347.568 29.6279 345.458 36.1269 343.65 39.4519L338.978 50.6363C335.06 60.0069 331.745 68.3241 331.142 70.1377C330.841 70.44 329.786 70.8934 328.881 71.1957L313.506 32.3484H313.501Z" fill="#FF7500"/>
<path d="M337.786 69.662L339.147 69.5109C341.717 69.0575 342.019 68.3018 343.685 64.3722L357.9 29.9079C358.503 28.5476 358.959 27.1873 359.562 25.8271L361.53 25.2225L376.804 64.6744C377.863 67.395 378.466 68.9063 380.283 69.3598L383.004 69.8132V71.3246H366.423V69.8132L369.371 69.2086C370.55 69.0575 371.436 68.6041 371.436 67.8484C371.436 67.395 371.139 66.9415 370.993 66.4881L366.272 53.6412C363.764 53.1878 361.406 52.8855 358.902 52.8855C356.544 52.8855 354.181 53.1878 351.969 53.6412L348.579 63.163C347.843 65.279 347.253 67.2438 347.253 67.6972C347.253 69.0575 348.14 69.2086 348.876 69.2086L352.856 69.8132V71.3246H337.782V69.662H337.786ZM352.541 50.1828C354.651 50.0317 356.761 49.8805 358.72 49.8805C360.83 49.8805 363.09 49.8805 365.2 50.1828L359.021 33.7041L352.541 50.1828Z" fill="#FF7500"/>
<path d="M146.802 87.9766C146.652 89.6391 146.35 90.8482 145.748 92.3596C144.994 92.6619 143.035 93.2665 140.473 93.2665C135.651 93.2665 130.979 90.9994 130.979 84.5004C130.979 78.0014 136.404 75.5831 140.473 75.5831C143.035 75.5831 144.994 76.1877 145.748 76.6411C146.049 77.6991 146.2 79.2105 146.2 80.4196L145.446 80.5707C145.145 79.5128 144.843 76.49 140.473 76.49C136.103 76.49 133.692 79.2105 133.692 84.047C133.692 88.43 135.801 92.5108 140.473 92.5108C144.693 92.5108 145.295 89.9414 146.2 87.8254L146.802 87.9766Z" fill="#FF7500"/>
<path d="M147.556 86.1629C147.556 81.7799 151.022 78.9082 154.94 78.9082C158.858 78.9082 161.872 81.3264 161.872 85.8606C161.872 90.3948 158.557 93.1153 154.488 93.1153C150.419 93.1153 147.556 90.6971 147.556 86.1629ZM155.091 92.5108C158.557 92.5108 159.913 89.488 159.913 86.4652C159.913 82.5356 157.954 79.6639 154.789 79.6639C151.625 79.6639 149.967 82.2333 149.967 85.8606C149.816 89.9414 151.926 92.5108 155.091 92.5108Z" fill="#FF7500"/>
<path d="M163.082 93.9999L163.534 92.2085C163.836 92.2085 163.987 92.0573 164.137 91.9062C164.288 91.7551 164.439 90.3948 164.589 88.5811L164.891 83.4424C165.041 82.0821 165.041 79.815 165.041 79.2105L165.644 79.0593C166.247 80.1173 170.919 89.0345 171.521 90.0925C172.124 89.0345 176.796 80.2684 177.097 79.2105L177.7 79.0593C177.7 79.2105 177.851 81.4776 178.001 84.1981L178.152 87.8254C178.303 89.6391 178.454 91.6039 178.604 91.9062C178.755 92.0573 179.056 92.2085 179.358 92.3596L179.526 92.5108V92.4885H175.005V92.0351L175.728 91.884C176.596 91.7328 176.596 91.4306 176.596 90.5237C176.596 88.2566 176.308 83.8736 176.308 82.6645C176.02 83.5713 173.99 87.6521 171.96 91.5817C171.814 91.7328 171.814 92.0351 171.672 92.1863L171.092 92.4885C170.657 91.5817 168.193 86.4429 166.743 83.7224C166.597 83.269 166.309 82.9667 166.163 82.5133C166.163 83.7224 165.875 89.4657 165.875 90.2214C165.875 91.4306 165.875 91.7328 166.743 91.884L167.466 92.0351V92.4885H162.945V93.9999H163.078H163.082Z" fill="#FF7500"/>
<path d="M181.166 92.4886H181.92C182.673 92.2085 182.54 89.6391 182.54 89.6391V82.5356C182.54 82.5356 182.673 79.9662 181.92 78.886H181.033H186.591C186.591 78.886 191.564 79.6639 191.564 83.1401C191.564 86.0118 188.4 87.2209 186.441 86.443H185.554V86.7675C187.043 86.7675 189.455 86.3141 189.455 83.2913C189.455 80.873 187.797 80.1173 185.989 80.1173C185.536 80.1173 185.554 80.2685 185.554 80.2685V89.7903C185.554 89.7903 184.783 92.3596 185.989 92.4886H187.061V94H181.033V92.4886H181.166Z" fill="#FF7500"/>
<path d="M190.363 92.4885H190.815C190.815 92.4885 191.719 92.0573 192.172 90.8482L196.391 80.4196C196.542 79.9662 196.692 79.6639 196.843 79.2105L197.446 79.0593L201.967 90.9994C202.268 91.7551 202.419 92.3596 203.022 92.3596L203.642 92.5108V93.9999H199.121V93.5465L200.057 93.3954C200.367 93.3954 200.682 93.2442 200.682 92.9419C200.682 92.7908 200.526 92.6397 200.526 92.4885L198.966 88.5589C198.186 88.4078 197.406 88.4078 196.626 88.4078C195.846 88.4078 195.066 88.5589 194.445 88.5589L193.355 91.4305C193.045 92.0351 192.885 92.6397 192.885 92.7908C192.885 93.2442 193.195 93.2442 193.355 93.2442L194.6 93.3954V92.4885H190.079H190.363ZM194.733 86.7674C195.336 86.7674 195.939 86.6163 196.542 86.6163C197.145 86.6163 197.898 86.6163 198.501 86.7674L196.542 81.7798L194.733 86.7674Z" fill="#FF7500"/>
<path d="M203.625 92.4885H204.232C204.994 92.4885 205.149 91.7506 205.149 89.688V79.8061L205.606 79.6594C207.286 81.7221 213.557 87.9188 215.698 90.1281V83.1979C215.698 80.9841 215.698 80.3974 214.63 80.3974H214.191H218.712H218.109C217.356 80.3974 217.205 81.1353 217.205 83.1979V93.0798L216.753 93.2265C216.301 92.7819 215.095 91.4572 212.835 89.2435L206.656 82.9001V89.6836C206.656 91.8973 206.656 92.4841 207.711 92.4841H208.163V93.9955H203.642V92.4841H203.625V92.4885ZM208.146 77.3968C208.447 76.9434 209.2 75.7343 210.255 75.7343C210.707 75.7343 211.31 75.8854 211.762 76.1877C212.214 76.3388 212.817 76.6411 213.269 76.6411C213.872 76.6411 214.174 76.0365 214.324 75.7343L214.626 76.0365C214.324 76.49 213.872 77.6991 212.667 77.6991C211.612 77.6991 210.255 76.9434 209.653 76.9434C209.05 76.9434 208.598 77.5479 208.447 77.8502L208.146 77.3968Z" fill="#FF7500"/>
<path d="M220.219 92.4885H219.404C219.947 92.3788 220.219 91.3949 220.219 89.5368V81.8331C220.219 79.975 219.947 78.9911 219.404 78.8815H224.745V80.3929H223.991C223.489 80.4907 223.238 81.3649 223.238 83.0156V89.8613C223.238 91.512 223.489 92.3862 223.991 92.484H224.745V93.9954H220.224V92.484L220.219 92.4885Z" fill="#FF7500"/>
<path d="M224.275 92.4885H224.727C224.727 92.4885 225.631 92.0573 226.083 90.8482L230.303 80.4196C230.453 79.9662 230.604 79.6639 230.755 79.2105L231.358 79.0593L235.878 90.9994C236.18 91.7551 236.331 92.3596 236.933 92.3596L238.307 92.5108V93.9999H232.279V93.5465L233.215 93.3954C233.525 93.3954 233.84 93.2442 233.84 92.9419C233.84 92.7908 233.684 92.6397 233.684 92.4885L232.124 88.5589C231.344 88.4078 230.564 88.4078 229.784 88.4078C229.004 88.4078 228.224 88.5589 227.603 88.5589L226.513 91.4305C226.203 92.0351 226.043 92.6397 226.043 92.7908C226.043 93.2442 226.353 93.2442 226.513 93.2442L227.758 93.3954V92.4885H223.238H224.275ZM228.645 86.7674C229.248 86.7674 229.851 86.6163 230.453 86.6163C231.056 86.6163 231.81 86.6163 232.412 86.7674L230.453 81.7798L228.645 86.7674Z" fill="#FF7500"/>
<path d="M242.359 92.4886H242.961C242.961 92.4886 243.564 92.3597 242.828 90.2437V84.3493C243.319 82.9386 243.363 82.1252 242.961 81.9088H250.283C254.144 81.9088 256.555 84.007 256.555 87.5543C256.555 92.2308 253.018 94.0044 249.322 94.0044H242.833V92.493H242.363L242.359 92.4886ZM245.842 92.0574C246.445 92.2085 247.199 92.3597 247.801 92.3597C250.966 92.3597 252.624 90.6971 252.624 87.3721C252.624 83.7447 250.665 82.2333 247.651 82.2333C247.048 82.2333 246.445 82.3845 245.842 82.3845V92.0574Z" fill="#FF7500"/>
<path d="M255.172 92.4886H255.775C256.378 92.5108 256.378 92.3597 256.396 90.2437V84.3493C256.378 82.2333 255.775 81.9088 255.775 81.9088H254.889V83.4202H262.557C262.557 82.0822 262.424 83.5936 262.424 83.5936V83.4202H262.255C261.954 82.5356 261.803 82.2333 259.392 81.9088H257.903V86.443H259.543C260.899 86.9187 261.2 86.9187 261.351 86.163L261.502 84.9316H262.424V86.443H261.502L261.351 87.9766C261.2 87.2209 260.899 87.2209 259.543 87.9544H257.903V91.8529C258.505 92.013 259.108 92.013 259.711 92.013C262.424 92.013 262.574 90.8972 262.876 89.4658H263.328C263.328 90.5816 263.026 91.5329 262.725 92.4886H254.889H255.172Z" fill="#FF7500"/>
<path d="M275.521 83.7224C277.48 84.9315 279.59 85.9895 279.59 89.0123C279.59 92.4885 276.425 93.8487 273.713 93.8487C271.754 93.8487 270.548 93.2442 269.644 92.7908C269.192 91.7328 268.89 89.9191 268.89 88.2566L269.644 88.1054C269.945 89.9191 270.849 92.9419 274.316 92.9419C276.124 92.9419 277.33 91.7328 277.33 89.768C277.33 87.9543 275.823 86.594 273.713 85.6872L272.055 84.7804C270.548 84.0247 269.192 82.3621 269.192 80.5485C269.192 77.3745 271.754 76.1654 274.466 76.1654C276.124 76.1654 277.33 76.6188 277.932 76.9211C278.083 77.6768 278.234 79.7928 278.234 80.3973H277.631C277.33 79.1882 277.028 76.9211 274.014 76.9211C272.507 76.9211 271.302 77.9791 271.302 79.6416C271.302 81.153 272.356 81.9087 273.713 82.8156L275.521 83.7224Z" fill="#FF7500"/>
<path d="M280.946 94H281.265C281.768 93.8992 282.019 92.9924 282.019 91.2794V82.5356C282.019 82.5356 282.453 79.9662 281.7 78.886H280.512H289.842C289.842 78.886 289.993 80.5707 289.558 81.4776V82.2333L289.54 82.3844C289.088 80.1173 289.088 79.8151 286.225 78.886H283.53V84.9316H286.376C288.033 85.4072 288.335 85.4072 288.486 84.5004L288.636 83.4202H289.558V87.9544H288.973L288.827 87.2653C288.681 86.443 288.388 86.443 286.784 86.443H285.033V91.7551C285.033 91.7551 286.07 92.0574 286.823 92.0574C290.139 92.0574 290.29 90.8482 290.742 89.1857L291.194 89.3368C291.194 90.6971 290.892 91.6039 290.44 92.4886H282.014V94H280.942H280.946Z" fill="#FF7500"/>
<path d="M305.528 91.6128C304.774 91.9329 302.665 92.7286 300.404 92.7286C296.335 92.7286 292.568 90.8171 292.568 85.2516C292.568 79.6861 296.938 77.7747 300.253 77.7747C302.363 77.7747 303.87 78.2503 304.473 78.7304C304.624 79.5261 304.774 80.7975 304.774 81.9132L304.172 82.0732C304.021 81.2775 303.719 78.5748 300.253 78.5748C296.787 78.5748 294.828 80.9619 294.828 84.9405C294.828 88.5989 296.637 92.1018 300.705 92.1018C301.459 92.1018 302.363 91.9418 303.117 91.7817V90.826C303.117 89.0212 302.614 88.067 301.61 87.9633H300.103H306.131H305.377C305.076 88.0699 304.925 88.8123 304.925 90.1903C304.925 90.826 304.925 90.986 305.226 90.986H305.377L305.528 91.6217V91.6128Z" fill="#FF7500"/>
<path d="M318.412 91.5817C318.089 91.2794 317.929 90.9772 317.61 90.9772C317.291 90.9772 315.518 92.3374 312.628 92.3374C308.125 92.3374 307.646 89.9192 307.646 87.0475V81.6065C307.646 79.8936 307.379 78.9867 306.844 78.886H306.139H310.66H309.92C309.409 78.9867 309.153 79.8936 309.153 81.6065V86.7452C309.153 89.6169 309.614 91.5817 312.845 91.5817C315 91.5817 316.382 90.3726 316.688 89.9192V81.6065C316.688 79.8936 316.433 78.9867 315.922 78.886H315.181H320.509C319.974 78.9867 319.707 79.8936 319.707 81.6065V92.0351L319.064 92.1863L318.421 91.5817H318.412Z" fill="#FF7500"/>
<path d="M321.338 94H322.091C322.091 94 322.845 92.2085 322.712 89.6391V82.5356C322.845 79.9662 322.091 78.886 322.091 78.886H321.205H326.763C328.722 79.3616 331.435 79.6639 331.435 82.8378C331.435 84.8027 329.777 85.8606 328.571 86.4652C328.873 87.0698 329.626 88.43 330.078 89.3368C330.983 90.8482 331.887 92.0574 332.339 92.3596C332.489 92.5108 333.261 92.5108 333.261 92.5108V92.4886H332.064C330.765 92.4886 329.232 91.5373 328.651 90.3726L327.853 88.7679C327.233 87.6832 326.772 86.9053 326.617 86.7541C326.306 86.443 325.69 86.443 325.38 86.443H324.219V89.7903C324.709 91.5032 325.206 92.4026 325.708 92.4886H325.726H321.205V94H321.338ZM324.068 86.443H325.274C326.931 86.443 328.589 85.5361 328.589 83.1179C328.589 80.6997 327.082 79.944 325.424 79.944C324.972 79.944 324.52 80.0951 324.219 80.0951V86.443H324.068Z" fill="#FF7500"/>
<path d="M333.097 86.1629C333.097 81.7799 336.563 78.9082 340.481 78.9082C344.399 78.9082 347.413 81.3264 347.413 85.8606C347.413 90.3948 344.098 93.1153 340.029 93.1153C335.96 93.1153 333.097 90.6971 333.097 86.1629ZM340.481 92.5108C343.947 92.5108 345.303 89.488 345.303 86.4652C345.303 82.5356 343.344 79.6639 340.179 79.6639C337.015 79.6639 335.357 82.2333 335.357 85.8606C335.206 89.9414 337.316 92.5108 340.481 92.5108Z" fill="#FF7500"/>
<path d="M354.195 84.7805C355.852 85.6873 357.51 86.5942 357.51 89.0124C357.51 91.7329 354.948 92.7909 352.838 92.7909C351.181 92.7909 350.276 92.3375 349.674 92.0352C349.372 91.2795 349.071 89.7681 349.071 88.4078L349.674 88.2567C349.824 89.7681 350.728 92.1863 353.441 92.1863C354.797 92.1863 355.852 91.2795 355.852 89.617C355.852 88.1056 354.647 87.0476 352.989 86.2919L351.633 85.5362C350.427 84.9316 349.372 83.5714 349.372 82.06C349.372 79.4906 351.482 78.4326 353.592 78.4326C354.797 78.4326 355.852 78.7349 356.455 79.0372C356.606 79.6417 356.606 81.3043 356.606 81.9088H356.154C356.003 80.8508 355.551 79.0372 353.29 79.0372C352.085 79.0372 351.03 79.944 351.03 81.3043C351.03 82.5134 351.934 83.1179 352.989 83.8736L354.195 84.7805Z" fill="#FF7500"/>
<path d="M46.2733 0C20.6501 0 0 20.8617 0 46.4088C0 71.9558 20.8008 92.8176 46.2733 92.8176C71.7457 92.8176 92.5466 71.9558 92.5466 46.4088C92.5466 20.8617 71.8964 0 46.2733 0ZM45.5375 19.9327C47.0445 20.9906 48.2501 22.1998 49.9078 23.7111C50.2092 24.0134 50.5106 24.3157 51.5654 24.0134C53.6752 23.4089 58.6483 20.9906 62.265 20.5372C63.9227 20.3861 64.3748 20.5372 65.279 21.4441C67.0874 23.1066 68.5944 24.1646 69.6493 25.5248C66.0325 25.9782 64.8269 26.2805 64.0734 26.4317L63.6213 26.5828C61.9636 27.0362 61.5115 28.0942 61.3608 28.6988C61.3608 28.8499 61.2102 29.1522 61.2102 29.4545C61.2102 30.059 61.3609 30.6636 61.9636 31.4193C62.8678 32.9307 63.4706 33.9887 63.772 34.7443C60.306 35.8023 56.5385 37.3137 54.8808 38.0694C53.8259 38.5228 53.0724 39.4297 52.9217 40.4877V41.0922C52.9217 41.6968 53.0724 42.6036 53.9766 43.5104C56.5385 46.231 59.4018 52.4277 59.4018 59.2334C59.4018 60.7448 59.2511 62.2562 58.9497 63.7676C57.5934 70.8712 52.771 76.3122 44.784 79.7929C40.7152 81.6065 36.4956 82.06 32.2761 81.9088H33.0295C41.0166 81.002 46.5924 78.1303 50.515 71.1779C55.9401 61.6561 51.8713 49.8628 43.7336 43.2126C41.4731 41.3989 38.7605 39.8875 36.3493 38.3761C35.7466 37.9227 35.2945 37.4693 36.1986 36.4113C37.5549 34.5977 39.6647 31.5749 43.4322 28.7032C44.1857 28.0986 43.8843 27.7964 43.5829 27.3429C42.2266 26.285 41.4731 25.6804 39.8154 24.6224C38.9112 24.169 38.6098 23.7156 39.2126 23.111C39.9661 22.3553 41.3224 21.2974 44.3364 19.9371C44.4871 19.3325 45.0899 19.6348 45.5419 19.9371L45.5375 19.9327ZM14.9413 27.5119C15.5441 26.3027 17.0511 23.4311 18.4074 21.7686C18.7088 21.3151 19.0102 21.164 19.7637 21.3151C21.1199 21.4663 23.3804 22.5243 26.3944 23.28C26.9972 23.4311 27.2986 23.4311 27.7507 22.8265C28.9563 21.4663 32.4223 18.2923 37.9982 15.8741C38.601 15.5718 39.5051 15.5718 40.2586 16.0253C40.8614 16.3275 41.6149 16.6298 42.5191 17.0832C39.8065 18.2923 38.4503 19.3503 37.3954 20.4083C36.4912 21.3151 36.3405 22.222 36.3405 22.8265V23.28C36.4912 24.3379 37.094 25.2448 38.2996 25.8493L38.4503 26.0005C38.4503 26.0005 38.2996 26.0005 38.2996 25.8493C39.2038 26.3028 39.8065 26.7562 40.4093 27.2096C37.3954 29.9301 35.4363 32.4995 34.2307 34.162C33.3265 35.3711 33.1758 36.4291 33.3265 37.1848C33.4772 37.9405 33.7786 38.8473 35.1349 39.603L36.3405 40.3587C38.4503 41.5679 40.4093 42.777 42.2177 44.2884C48.9991 49.8805 53.3694 60.3136 48.3964 69.2309C45.081 75.1253 40.2586 78.2992 32.7193 79.2061C30.0067 79.5084 27.4448 79.3572 25.0337 78.7527C26.0886 78.9038 26.9927 78.9038 28.0476 78.9038C33.6235 78.7527 39.6514 76.7878 42.6698 71.9514C50.3554 59.7091 41.4642 47.16 29.5591 43.2304C26.8465 42.3236 22.3255 41.4167 18.8595 40.9633C17.5032 40.8122 17.2018 40.3587 17.6539 39.4519C18.4074 37.9405 19.7637 34.9177 22.3255 30.9881C22.4762 30.8369 22.3255 30.3835 21.8734 30.2324C20.5171 29.9301 17.9553 29.1744 15.6948 28.8721C14.9413 28.5698 14.6399 28.2676 14.9413 27.5119ZM52.607 88.2789C25.929 92.3597 12.3661 72.2537 12.3661 72.2537C18.5448 78.1481 28.9474 87.8255 44.7707 80.5663C67.6813 70.2888 60.8999 47.3112 54.7168 40.5099C53.9633 39.7542 54.4154 38.9985 55.0182 38.8473C56.8266 38.0916 61.6489 36.1268 65.4164 35.22C65.8685 35.0689 65.8685 34.9177 65.7178 34.3132C65.4164 33.4063 64.9643 31.8949 63.1559 28.8721C62.5531 28.2676 62.8545 27.8141 63.4573 27.663C64.3615 27.5119 64.9643 27.2096 69.7867 26.605C70.2388 26.4539 70.8416 26.7562 71.1429 27.2096C72.1978 29.0233 72.9513 30.8369 73.7048 33.2552C73.7048 33.5575 74.1569 34.0109 74.609 34.0109C76.4174 34.0109 82.7467 34.162 86.0621 34.7666C86.3635 34.7666 86.9663 35.0689 86.9663 35.5223C87.8705 38.2428 89.8296 51.0941 84.103 64.6967C77.3216 80.1174 64.8092 86.3141 52.6026 88.2789H52.607Z" fill="#FF7500"/>
</g>
<defs>
<clipPath id="clip0_0_255">
<rect width="383" height="94" fill="white"/>
</clipPath>
</defs>
</svg>
