<svg width="548" height="265" viewBox="0 0 548 265" fill="none" xmlns="http://www.w3.org/2000/svg">
<g opacity="0.3" clip-path="url(#clip0_1_265)">
<path d="M296.406 261.772C289.892 262.796 283.395 264.082 276.846 264.773C267.77 265.726 258.965 263.478 250.143 261.772C236.354 256.541 223.832 249.578 215.543 236.737C209.947 228.069 206.546 218.744 206.773 208.282C206.852 204.67 206.721 201.057 206.8 197.444C207.394 170.328 204.351 143.272 205.287 116.138C205.575 107.767 200.198 102.597 193.387 99.1946C186.129 95.5732 178.942 96.9903 173.328 102.632C158.612 117.433 144.316 132.636 129.636 147.471C126.934 150.2 128.481 151.836 129.837 153.944C151.469 187.63 173.11 221.298 194.707 255.011C195.564 256.34 195.992 257.95 197.076 260.504H188.945C167.986 260.504 147.036 260.425 126.077 260.574C122.431 260.6 120.524 259.734 118.461 256.244C104.794 233.072 90.6557 210.181 76.5432 186.991C66.9163 194.12 60.8306 202.063 61.976 215C63.1564 228.384 62.081 241.942 62.3345 255.422C62.4132 259.568 61.1191 260.635 57.0883 260.591C39.7493 260.381 22.4016 260.364 5.06266 260.6C0.76071 260.661 0.0087438 259.122 0.0087438 255.238C0.113669 175.55 0.113669 95.8531 0 16.1563C0 11.9663 0.682016 10.3131 5.41241 10.4093C22.2705 10.733 39.1372 10.733 55.9865 10.4093C60.9967 10.3131 62.387 11.5465 62.3608 16.6899C62.1334 57.6186 62.2296 98.5473 62.2296 141.278C67.8956 135.618 72.7571 130.974 77.3826 126.11C100.755 101.548 122.396 74.9908 150.822 55.9391C175.995 39.0655 203.923 35.033 232.087 47.3405C249.312 54.8632 261.037 68.7364 264.596 88.1642C267.604 104.592 265.488 121.159 265.951 137.648C266.301 150.156 265.54 162.709 266.126 175.2C267.245 199.036 275.937 206.874 297.062 209.428C303.637 210.224 309.679 205.02 314.978 200.707C324.255 193.167 328.093 183.02 328.137 171.404C328.251 141.549 328.295 111.695 328.059 81.8399C328.015 76.8977 329.09 75.3144 334.302 75.4281C351.151 75.7868 368.026 75.7343 384.876 75.4456C389.396 75.3669 390.446 76.644 390.437 81.0614C390.288 139.082 390.271 197.112 390.454 255.133C390.472 259.778 389.029 260.661 384.753 260.6C368.376 260.364 351.999 260.355 335.622 260.6C331.163 260.661 329.047 259.848 329.527 254.809C330 249.832 329.632 244.767 329.632 238.251C320.714 250.567 308.455 256.017 296.397 261.772H296.406Z" fill="white"/>
<path d="M491.533 92.5904C499.629 86.1786 506.082 80.1604 514.258 76.3903C524.042 71.8855 534.15 71.0107 544.625 71.1507C547.904 71.1944 547.93 72.9089 547.921 75.2707C547.878 90.9109 547.773 106.542 547.991 122.183C548.044 126.25 545.954 126.495 543.095 126.101C534.937 124.982 526.919 125.069 518.909 127.475C503.643 132.058 491.279 147.27 491.454 165.158C491.751 194.986 491.428 224.815 491.638 254.643C491.672 259.314 490.483 260.705 485.718 260.618C469.122 260.32 452.509 260.373 435.905 260.591C431.777 260.644 430.728 259.393 430.737 255.36C430.859 197.147 430.894 138.934 430.693 80.7115C430.676 75.7518 432.678 75.4456 436.604 75.4806C452.964 75.6468 469.332 75.7255 485.692 75.4369C490.405 75.3494 492.153 76.6353 491.594 81.385C491.218 84.5953 491.524 87.8843 491.524 92.5904H491.533Z" fill="white"/>
<path d="M359.178 0.419872C377.715 -1.72322 390.367 16.0426 390.349 29.391C390.332 45.5298 376.377 59.9541 359.58 59.4293C343.71 58.9394 328.784 49.3436 328.058 29.356C327.534 15.1329 341.646 -1.56577 359.186 0.419872H359.178Z" fill="white"/>
<path d="M491.533 29.4085C491.506 46.4483 479.256 58.3446 460.789 59.543C444.867 60.5664 428.839 44.725 429.452 29.0061C429.994 15.0016 442.506 -1.10216 462.626 0.0699765C475.523 0.822246 492.556 11.9401 491.541 29.4172L491.533 29.4085Z" fill="white"/>
</g>
<defs>
<clipPath id="clip0_1_265">
<rect width="548" height="265" fill="white"/>
</clipPath>
</defs>
</svg>
