<svg width="414" height="96" viewBox="0 0 414 96" fill="none" xmlns="http://www.w3.org/2000/svg">
<g clip-path="url(#clip0_1_469)">
<path d="M253.306 94.8794C251.048 95.2362 248.8 95.6834 246.533 95.9196C243.389 96.2513 240.34 95.4673 237.287 94.8794C232.511 93.0603 228.176 90.6432 225.307 86.1809C223.37 83.1709 222.193 79.9297 222.268 76.2915C222.293 75.0352 222.248 73.7789 222.278 72.5276C222.484 63.1055 221.432 53.7035 221.753 44.2764C221.853 41.3668 219.991 39.5678 217.633 38.3869C215.12 37.1307 212.632 37.6181 210.689 39.5829C205.593 44.7236 200.642 50.01 195.561 55.1608C194.625 56.1105 195.161 56.6784 195.631 57.4121C203.12 69.1156 210.614 80.8191 218.093 92.5276C218.389 92.99 218.539 93.5477 218.914 94.4372H216.101C208.842 94.4372 201.588 94.4121 194.33 94.4623C193.068 94.4724 192.407 94.1709 191.691 92.9598C186.961 84.9095 182.065 76.9548 177.174 68.8945C173.84 71.3719 171.732 74.1307 172.128 78.6281C172.538 83.2764 172.163 87.9899 172.253 92.6734C172.278 94.1106 171.832 94.4874 170.436 94.4673C164.434 94.397 158.426 94.3869 152.419 94.4673C150.927 94.4874 150.667 93.9548 150.672 92.608C150.707 64.9146 150.707 37.2261 150.672 9.53266C150.672 8.07537 150.907 7.50251 152.549 7.53266C158.386 7.64321 164.228 7.64824 170.065 7.53266C171.802 7.49749 172.283 7.92462 172.273 9.71357C172.193 23.9347 172.228 38.1558 172.228 53.005C174.19 51.0402 175.872 49.4221 177.474 47.7337C185.569 39.201 193.063 29.9698 202.905 23.3518C211.621 17.4874 221.292 16.0854 231.049 20.3618C237.016 22.9749 241.076 27.794 242.308 34.5477C243.349 40.2563 242.618 46.01 242.778 51.7437C242.898 56.0905 242.633 60.4523 242.838 64.794C243.229 73.0754 246.237 75.799 253.551 76.6884C255.829 76.9648 257.921 75.1558 259.759 73.6583C262.973 71.0402 264.299 67.5126 264.314 63.4724C264.354 53.1005 264.369 42.7236 264.284 32.3518C264.269 30.6332 264.64 30.0854 266.447 30.1206C272.284 30.2462 278.126 30.2261 283.963 30.1256C285.525 30.1005 285.89 30.5427 285.885 32.0754C285.83 52.2362 285.83 72.402 285.885 92.5628C285.885 94.1759 285.395 94.4824 283.913 94.4623C278.241 94.3769 272.569 94.3769 266.897 94.4623C265.355 94.4824 264.62 94.201 264.785 92.4523C264.95 90.7236 264.82 88.9648 264.82 86.6985C261.731 90.9799 257.486 92.8744 253.311 94.8744L253.306 94.8794Z" fill="#3A5160"/>
<path d="M121.161 94.8794C114.989 95.6834 108.812 95.799 102.639 94.8794C96.3315 92.8542 90.3242 90.2613 85.7387 85.2412C81.053 80.1105 78.2296 74.1959 77.5388 67.1155C76.6227 57.7487 78.7102 49.2211 84.1868 41.7437C89.298 34.7588 96.2464 30.4221 104.997 29.1256C111.47 28.1658 117.737 28.5477 123.78 31.0552C132.54 34.6884 136.956 41.8442 139.173 50.6784C140.505 56 140.765 61.4171 140.735 66.8844C140.725 68.6633 140.084 68.8693 138.583 68.8643C125.737 68.814 112.891 68.8341 100.051 68.8392C97.2025 68.8392 97.0624 69.1256 98.2989 71.7588C100.877 77.2512 105.793 79.5176 111.214 80.2412C116.391 80.9296 121.767 80.7789 126.278 77.3266C127.724 76.2211 128.961 74.8341 130.232 73.5176C130.878 72.8492 131.344 72.6934 132.05 73.4623C134.743 76.3919 137.496 79.2713 140.209 82.1909C141.446 83.5226 139.859 84.005 139.293 84.4673C133.832 88.9447 128.17 93.1005 121.166 94.8894L121.161 94.8794ZM97.0774 54.7738C104.787 54.7738 112.256 54.7588 119.73 54.7939C120.741 54.7939 121.347 54.603 121.156 53.4422C120.711 50.6985 120.045 48.0854 118.103 45.9095C114.228 41.5678 106.013 41.0301 101.778 45.7135C99.4302 48.3115 98.1837 51.2311 97.0774 54.7789V54.7738Z" fill="#3A5160"/>
<path d="M386.452 94.8794C380.109 95.6332 373.767 95.7889 367.429 94.8794C360.636 92.7889 354.533 89.608 349.818 84.0754C345.332 78.8141 342.689 72.8543 342.404 65.8894C342.123 58.9749 343.13 52.2864 346.454 46.1708C351.58 36.7387 359.234 30.7688 370.082 29.1206C376.81 28.1005 383.338 28.5427 389.541 31.2462C396.269 34.1759 400.344 39.7035 402.957 46.397C405.62 53.2311 405.635 60.3919 405.5 67.5779C405.465 69.3568 404.278 68.804 403.427 68.809C394.842 68.8392 386.257 68.8291 377.671 68.8291H362.538C363.699 75.2311 368.02 78.3618 373.661 79.6784C380.024 81.1658 386.327 80.9849 391.949 76.8794C393.1 76.0402 394.231 75.1407 394.907 73.9246C395.783 72.3417 396.619 72.593 397.545 73.6935C399.788 76.3618 402.196 78.8693 404.649 81.3417C405.555 82.2563 405.585 83.1809 404.444 84.2161C399.162 89.005 393.385 92.9045 386.457 94.8744L386.452 94.8794ZM374.077 54.7739C377.486 54.7739 380.895 54.7739 384.304 54.7739C385.095 54.7739 385.836 55 385.986 53.6432C386.677 47.3719 379.298 40.9246 373.126 42.3166C367.259 43.6382 364.365 47.7236 362.548 52.9698C362.047 54.4221 362.648 54.8392 364.095 54.799C367.419 54.7136 370.748 54.7739 374.072 54.7739H374.077Z" fill="#3A5160"/>
<path d="M55.0866 94.8794C51.9979 95.2261 48.9142 95.6331 45.8204 95.9045C42.8468 96.1658 39.9934 95.1507 37.0649 94.8794C32.189 92.9346 27.5684 90.4874 23.098 87.7336C22.242 87.206 21.9917 86.9648 22.5073 85.9447C24.2894 82.3869 25.9214 78.7537 27.5984 75.1407C28.2092 73.8241 28.7398 73.5326 30.1365 74.5577C33.005 76.6633 35.9235 78.7236 39.1924 80.2512C42.7968 81.9296 46.3861 81.6683 49.8203 80.1859C51.292 79.5477 52.6337 78.0904 52.5786 76.0854C52.5235 74.0201 51.1318 72.7789 49.5549 71.8743C46.0307 69.8542 42.0008 69.0452 38.3364 67.3316C33.6257 65.1306 28.8349 63.0904 25.626 58.6382C22.0467 53.6683 22.1318 48.2311 24.2494 42.9949C27.4833 35.01 34.5068 31.5829 42.3412 29.7135C54.4909 26.814 65.4491 30.7889 76.1571 35.9648C76.9731 36.3618 77.2484 36.5577 76.6777 37.5477C74.435 41.412 72.2023 45.2713 69.7443 49.01C68.8883 50.3115 68.4478 49.6281 67.6568 49.0954C63.6019 46.3869 59.3618 44.0804 54.566 42.9296C51.6925 42.2412 46.8667 43.1457 45.47 45.5125C43.8531 48.2462 44.1784 49.7437 46.8467 51.3668C51.0568 53.9296 55.8926 54.8593 60.343 56.7839C66.7357 59.5527 72.3625 63.0954 73.7291 70.6834C75.5964 81.0653 71.977 88.0402 62.5606 92.3768C60.1878 93.4673 57.5896 94.0603 55.0966 94.8844L55.0866 94.8794Z" fill="#3A5160"/>
<path d="M320.878 36.0904C323.681 33.8643 325.914 31.7739 328.747 30.4623C332.136 28.8945 335.636 28.593 339.265 28.6432C340.401 28.6583 340.411 29.2563 340.406 30.0754C340.391 35.5075 340.356 40.9447 340.431 46.3769C340.451 47.7889 339.725 47.8744 338.734 47.7387C335.911 47.3467 333.133 47.3819 330.359 48.2161C325.073 49.809 320.788 55.0905 320.853 61.3116C320.953 71.6734 320.843 82.0402 320.918 92.407C320.928 94.0301 320.517 94.5126 318.865 94.4824C313.118 94.3769 307.366 94.397 301.614 94.4724C300.188 94.4925 299.822 94.0553 299.827 92.6533C299.867 72.4271 299.882 52.196 299.812 31.9698C299.807 30.2462 300.498 30.1407 301.86 30.1508C307.527 30.206 313.193 30.2362 318.86 30.1357C320.492 30.1055 321.098 30.5528 320.908 32.201C320.778 33.3166 320.883 34.4573 320.883 36.0955L320.878 36.0904Z" fill="#3A5160"/>
<path d="M275.042 4.06528C281.465 3.32157 285.84 9.49242 285.835 14.1306C285.83 19.7387 281 24.7487 275.183 24.5678C269.686 24.3969 264.52 21.0653 264.264 14.1155C264.084 9.17584 268.97 3.37182 275.042 4.06026V4.06528Z" fill="#73B4AB"/>
<path d="M320.878 14.1357C320.868 20.0553 316.627 24.1909 310.23 24.603C304.718 24.9598 299.166 19.4522 299.377 13.9899C299.562 9.12561 303.897 3.52762 310.865 3.93466C315.331 4.19597 321.233 8.06029 320.878 14.1306V14.1357Z" fill="#CC552D"/>
</g>
<defs>
<clipPath id="clip0_1_469">
<rect width="414" height="96" fill="white"/>
</clipPath>
</defs>
</svg>
