<svg width="1639" height="978" viewBox="0 0 1639 978" fill="none" xmlns="http://www.w3.org/2000/svg">
<mask id="mask0_1_55" style="mask-type:alpha" maskUnits="userSpaceOnUse" x="391" y="189" width="1251" height="783">
<rect x="391" y="189" width="1251" height="783" fill="#D9D9D9"/>
</mask>
<g mask="url(#mask0_1_55)">
<path d="M1674.09 443.841C1606.63 281.434 1419.15 212.943 1247.27 287.877L1245.88 288.48C1071.36 364.572 987.501 551.365 1054.97 713.771L1097.2 815.434C1121.71 874.439 1098.36 958.695 1006.81 998.617L1005.42 999.22C937.733 1028.73 851.824 1016.8 818.632 936.889L665.283 567.77L665.016 567.888L664.296 566.15C661.439 559.279 653.499 556.198 646.551 559.228L501.798 622.34C494.851 625.371 491.514 633.363 494.371 640.233L495.091 641.972L495 642.013L648.345 1011.14C715.804 1173.53 903.292 1242.04 1075.16 1167.11L1076.54 1166.5C1251.08 1090.41 1334.93 903.592 1267.47 741.202L1225.24 639.539C1200.72 580.529 1224.08 496.272 1315.62 456.357L1317.01 455.754C1384.71 426.242 1470.61 438.17 1503.81 518.084L1647.59 864.191L1656.47 885.64C1656.5 885.708 1656.54 885.733 1656.57 885.797L1657.15 887.203L1657.43 887.073C1660.78 892.797 1667.82 895.344 1674.19 892.562L1819.21 829.332C1825.59 826.549 1828.68 819.588 1826.98 813.155L1827.42 812.96L1674.07 443.836L1674.09 443.841Z" fill="white" fill-opacity="0.4"/>
</g>
</svg>
