<svg width="64" height="40" viewBox="0 0 64 40" fill="none" xmlns="http://www.w3.org/2000/svg">
<g clip-path="url(#clip0_1_254)">
<path d="M63.8972 26.1194C63.8972 28.7285 63.6916 31.3668 63.9413 33.9611C64.3378 38.0799 62.5314 39.2671 58.4635 39.2818C54.3222 39.2964 53.6026 37.4643 53.7201 34.0491C53.911 28.8164 53.7935 23.5837 53.7494 18.351C53.7054 13.2796 51.1794 10.2602 45.8486 9.99632C40.5324 9.73249 37.6687 12.4441 37.0665 17.5009C36.8756 19.1425 36.9344 20.8281 36.8609 22.4844C36.4351 32.8472 29.151 39.912 18.7682 40C8.47361 40.0879 0.675539 33.0524 0.161542 22.8215C-0.132171 16.8853 0.279027 10.9197 2.23517e-08 4.9835C-0.161542 1.06998 1.58605 0.20519 5.2134 0.20519C8.7967 0.20519 10.6471 0.967374 10.4415 4.92487C10.1625 9.90838 10.5443 14.9212 10.3387 19.9047C10.1037 25.8556 12.424 29.9304 18.827 29.9304C24.9803 29.9304 26.7279 25.8556 26.8453 20.2858C27.095 7.7684 33.1455 0.747514 43.6457 0.0586165C55.5411 -0.718225 63.5888 6.49321 63.8972 18.2631C63.9706 20.8721 63.8972 23.4958 63.8972 26.1048V26.1194Z" fill="#1FA7E1"/>
</g>
<defs>
<clipPath id="clip0_1_254">
<rect width="64" height="40" fill="white"/>
</clipPath>
</defs>
</svg>
