<svg width="37" height="46" viewBox="0 0 37 46" fill="none" xmlns="http://www.w3.org/2000/svg">
<path d="M4.33826 35.9691H16.3212L16.2594 36.278C16.1359 36.8339 16.1359 37.4515 16.3212 37.9457H4.33826C2.11462 37.9457 0.385132 36.2162 0.385132 33.9926V10.2738C0.385132 8.11194 2.11462 6.32068 4.33826 6.32068H13.974C14.7152 6.32068 15.5182 6.69128 16.0741 7.24719L23.1774 14.3505C23.7333 14.9064 24.1039 15.7094 24.1039 16.4506V23.9862L22.1273 25.9628V18.1801H15.2094C13.5416 18.1801 12.2445 16.8829 12.2445 15.2152V8.29724H4.33826C3.22644 8.29724 2.36169 9.22375 2.36169 10.2738V33.9926C2.36169 35.1044 3.22644 35.9691 4.33826 35.9691ZM22.0656 16.2035C22.0038 16.08 21.942 15.8947 21.8185 15.7711L14.6534 8.60608C14.5299 8.48254 14.3446 8.42078 14.2211 8.35901V15.2152C14.2211 15.7711 14.6534 16.2035 15.2094 16.2035H22.0656ZM32.3807 22.6273C32.0101 22.2567 31.3925 22.2567 30.9601 22.6273L29.4777 24.1715L31.9484 26.6422L33.4308 25.098C33.8632 24.7274 33.8632 24.1097 33.4308 23.7391L32.3807 22.6273ZM21.5096 32.1395C21.3861 32.2631 21.2626 32.4484 21.2626 32.5719L20.5214 35.5985L23.4862 34.8573C23.6715 34.7955 23.8568 34.7338 23.9803 34.6102L30.5277 28.0629L28.057 25.5922L21.5096 32.1395ZM29.6012 21.2684C30.7748 20.0948 32.6278 20.0948 33.8014 21.2684L34.8514 22.3185C36.025 23.4921 36.025 25.3451 34.8514 26.5187L25.401 36.0309C24.9686 36.4015 24.5363 36.6486 23.9803 36.7721L19.3478 37.9457C19.0389 38.0074 18.6683 37.9457 18.4213 37.6986C18.1742 37.4515 18.1124 37.0809 18.1742 36.7103L19.3478 32.1395C19.4713 31.5836 19.7184 31.0895 20.089 30.7189L29.6012 21.2684Z" fill="#013948"/>
</svg>
