<svg width="37" height="46" viewBox="0 0 37 46" fill="none" xmlns="http://www.w3.org/2000/svg">
<path d="M4.94269 36.969H16.9256L16.8638 37.2778C16.7403 37.8337 16.7403 38.4514 16.9256 38.9456H4.94269C2.71906 38.9456 0.989563 37.2161 0.989563 34.9924V11.2737C0.989563 9.11182 2.71906 7.32056 4.94269 7.32056H14.5784C15.3196 7.32056 16.1226 7.69116 16.6785 8.24707L23.7818 15.3503C24.3377 15.9062 24.7083 16.7092 24.7083 17.4504V25.8508L22.7318 27.8274V19.1799H15.8138C14.1461 19.1799 12.8489 17.8828 12.8489 16.2151V9.29712H4.94269C3.83087 9.29712 2.96613 10.2236 2.96613 11.2737V34.9924C2.96613 36.1042 3.83087 36.969 4.94269 36.969ZM22.4229 16.771L15.2579 9.60596C15.1343 9.48242 14.949 9.42065 14.8255 9.35889V16.2151C14.8255 16.771 15.2579 17.2034 15.8138 17.2034H22.67C22.6082 17.0798 22.5464 16.8945 22.4229 16.771ZM30.2056 22.2683C31.3792 21.0947 33.2322 21.0947 34.4058 22.2683L35.4559 23.3184C36.6295 24.4919 36.6295 26.345 35.4559 27.5186L25.9437 37.0308C25.5731 37.4014 25.1407 37.6484 24.5848 37.772L19.9522 38.9456C19.6434 39.0073 19.2728 38.9456 19.0257 38.6985C18.7786 38.4514 18.7169 38.0808 18.7786 37.7102L19.9522 33.1394C20.0757 32.5835 20.3228 32.0894 20.6934 31.7188L30.2056 22.2683ZM32.9852 23.6272C32.6146 23.2566 31.9969 23.2566 31.5645 23.6272L30.0821 25.1714L32.5528 27.6421L34.0352 26.0979C34.4676 25.7273 34.4676 25.1096 34.0352 24.739L32.9852 23.6272ZM21.867 33.5718L21.064 36.5984L24.0906 35.8572C24.2759 35.7954 24.4612 35.7336 24.5848 35.6101L31.1321 29.0627L28.6614 26.592L22.1141 33.1394C21.9905 33.2629 21.867 33.4482 21.867 33.5718Z" fill="white"/>
</svg>
