<svg width="119" height="103" viewBox="0 0 119 103" fill="none" xmlns="http://www.w3.org/2000/svg">
<path d="M5.42383 95.3887H2.59863L2.06152 97H0.348145L3.25928 89.1797H4.75244L7.67969 97H5.96631L5.42383 95.3887ZM3.03369 94.0835H4.98877L4.00586 91.1562L3.03369 94.0835ZM13.6523 90.4849H11.2568V97H9.64551V90.4849H7.28223V89.1797H13.6523V90.4849ZM19.2812 93.6108H16.1875V95.7056H19.8184V97H14.5762V89.1797H19.8076V90.4849H16.1875V92.3486H19.2812V93.6108ZM27.123 97H25.5117L22.375 91.8545V97H20.7637V89.1797H22.375L25.5171 94.3359V89.1797H27.123V97ZM34.6694 94.395C34.6086 95.2365 34.297 95.8989 33.7349 96.3823C33.1763 96.8657 32.4386 97.107 31.522 97.107C30.5194 97.107 29.7298 96.7708 29.1533 96.0977C28.5804 95.4209 28.2939 94.4935 28.2939 93.3154V92.8374C28.2939 92.0854 28.4264 91.423 28.6914 90.8501C28.9564 90.2772 29.3341 89.8385 29.8247 89.5342C30.3188 89.2262 30.8918 89.0723 31.5435 89.0723C32.4458 89.0723 33.1727 89.314 33.7241 89.7974C34.2756 90.2808 34.5942 90.9593 34.6802 91.833H33.0688C33.0295 91.3281 32.888 90.9629 32.6445 90.7373C32.4046 90.5081 32.0376 90.3936 31.5435 90.3936C31.0063 90.3936 30.6035 90.5869 30.335 90.9736C30.07 91.3568 29.9339 91.953 29.9268 92.7622V93.353C29.9268 94.1981 30.0539 94.8158 30.3081 95.2061C30.5659 95.5964 30.9705 95.7915 31.522 95.7915C32.0197 95.7915 32.3903 95.6787 32.6338 95.4531C32.8809 95.224 33.0223 94.8713 33.0581 94.395H34.6694ZM37.4409 97H35.8296V89.1797H37.4409V97ZM45.3633 93.2671C45.3633 94.0369 45.2272 94.7119 44.9551 95.292C44.6829 95.8721 44.2926 96.3197 43.7842 96.6348C43.2793 96.9499 42.6992 97.107 42.0439 97.107C41.3958 97.107 40.8175 96.9517 40.3091 96.6401C39.8006 96.3286 39.4067 95.8846 39.1274 95.3081C38.8481 94.728 38.7067 94.062 38.7031 93.3101V92.9233C38.7031 92.1535 38.841 91.4767 39.1167 90.8931C39.396 90.3058 39.7881 89.8564 40.293 89.5449C40.8014 89.2298 41.3815 89.0723 42.0332 89.0723C42.6849 89.0723 43.2632 89.2298 43.7681 89.5449C44.2765 89.8564 44.6686 90.3058 44.9443 90.8931C45.2236 91.4767 45.3633 92.1517 45.3633 92.918V93.2671ZM43.7305 92.9126C43.7305 92.0926 43.5837 91.4696 43.29 91.0435C42.9964 90.6174 42.5775 90.4043 42.0332 90.4043C41.4925 90.4043 41.0754 90.6156 40.7817 91.0381C40.4881 91.457 40.3395 92.0729 40.3359 92.8857V93.2671C40.3359 94.0656 40.4827 94.6851 40.7764 95.1255C41.07 95.5659 41.4925 95.7861 42.0439 95.7861C42.5846 95.7861 43 95.5749 43.29 95.1523C43.5801 94.7262 43.7269 94.1068 43.7305 93.2939V92.9126ZM42.3447 87.085H44.0366L42.5488 88.75H41.2866L42.3447 87.085ZM52.8936 97H51.2822L48.1455 91.8545V97H46.5342V89.1797H48.1455L51.2876 94.3359V89.1797H52.8936V97ZM61.4551 95.3887H58.6299L58.0928 97H56.3794L59.2905 89.1797H60.7837L63.7109 97H61.9976L61.4551 95.3887ZM59.0649 94.0835H61.02L60.0371 91.1562L59.0649 94.0835ZM70.5107 96.0117C70.2207 96.359 69.8107 96.6294 69.2808 96.8228C68.7508 97.013 68.1636 97.107 67.519 97.107C66.8423 97.107 66.2479 96.9606 65.7358 96.667C65.2274 96.3698 64.8335 95.9401 64.5542 95.3779C64.2785 94.8158 64.137 94.1551 64.1299 93.396V92.8643C64.1299 92.0837 64.2606 91.4087 64.522 90.8394C64.7869 90.2664 65.1665 89.8296 65.6606 89.5288C66.1584 89.2244 66.7402 89.0723 67.4062 89.0723C68.3337 89.0723 69.0588 89.2943 69.5815 89.7383C70.1043 90.1787 70.4141 90.8215 70.5107 91.6665H68.9424C68.8708 91.2189 68.7114 90.8913 68.4644 90.6836C68.2209 90.4759 67.8843 90.3721 67.4546 90.3721C66.9067 90.3721 66.4896 90.578 66.2031 90.9897C65.9167 91.4015 65.7716 92.0138 65.7681 92.8267V93.3262C65.7681 94.1462 65.9238 94.7656 66.2354 95.1846C66.5469 95.6035 67.0034 95.813 67.605 95.813C68.2101 95.813 68.6416 95.6841 68.8994 95.4263V94.0781H67.4331V92.8911H70.5107V96.0117ZM76.5264 93.6108H73.4326V95.7056H77.0635V97H71.8213V89.1797H77.0527V90.4849H73.4326V92.3486H76.5264V93.6108ZM84.3682 97H82.7568L79.6201 91.8545V97H78.0088V89.1797H79.6201L82.7622 94.3359V89.1797H84.3682V97ZM85.7754 97V89.1797H88.1816C88.8691 89.1797 89.4832 89.3354 90.0239 89.647C90.5682 89.9549 90.9925 90.3953 91.2969 90.9683C91.6012 91.5376 91.7534 92.1857 91.7534 92.9126V93.2725C91.7534 93.9993 91.603 94.6457 91.3022 95.2114C91.005 95.7772 90.5843 96.2158 90.04 96.5273C89.4958 96.8389 88.8817 96.9964 88.1978 97H85.7754ZM87.3867 90.4849V95.7056H88.1655C88.7957 95.7056 89.2773 95.4997 89.6104 95.0879C89.9434 94.6761 90.1134 94.0871 90.1206 93.3208V92.9072C90.1206 92.1123 89.9559 91.5107 89.6265 91.1025C89.297 90.6908 88.8154 90.4849 88.1816 90.4849H87.3867ZM97.2266 95.3887H94.4014L93.8643 97H92.1509L95.062 89.1797H96.5552L99.4824 97H97.769L97.2266 95.3887ZM94.8364 94.0835H96.7915L95.8086 91.1562L94.8364 94.0835ZM100.213 97V89.1797H102.952C103.901 89.1797 104.621 89.3623 105.111 89.7275C105.602 90.0892 105.847 90.6209 105.847 91.3228C105.847 91.7059 105.749 92.0443 105.552 92.3379C105.355 92.6279 105.081 92.841 104.73 92.9771C105.131 93.0773 105.446 93.2796 105.675 93.584C105.908 93.8883 106.024 94.2607 106.024 94.7012C106.024 95.4531 105.785 96.0225 105.305 96.4092C104.825 96.7959 104.141 96.9928 103.253 97H100.213ZM101.824 93.5947V95.7056H103.205C103.584 95.7056 103.88 95.616 104.091 95.437C104.306 95.2544 104.413 95.0037 104.413 94.6851C104.413 93.9689 104.042 93.6055 103.301 93.5947H101.824ZM101.824 92.4561H103.017C103.829 92.4417 104.236 92.1177 104.236 91.4839C104.236 91.1294 104.132 90.8752 103.924 90.7212C103.72 90.5636 103.396 90.4849 102.952 90.4849H101.824V92.4561ZM108.85 95.7056H112.271V97H107.238V89.1797H108.85V95.7056ZM117.905 93.6108H114.812V95.7056H118.442V97H113.2V89.1797H118.432V90.4849H114.812V92.3486H117.905V93.6108Z" fill="white"/>
<path d="M60.5 36C70.3438 36 78.5 27.9844 78.5 18C78.5 8.15625 70.3438 0 60.5 0C50.5156 0 42.5 8.15625 42.5 18C42.5 27.9844 50.5156 36 60.5 36ZM60.5 4.5C67.8125 4.5 74 10.6875 74 18C74 25.4531 67.8125 31.5 60.5 31.5C53.0469 31.5 47 25.4531 47 18C47 10.6875 53.0469 4.5 60.5 4.5ZM73.5781 40.6406C68.7969 40.5 67.3906 42.75 60.5 42.75C53.4688 42.75 52.0625 40.5 47.2812 40.6406C37.1562 40.9219 29 49.2188 29 59.4844V70.875C29 71.5781 29.4219 72 30.125 72H32.375C32.9375 72 33.5 71.5781 33.5 70.875V59.4844C33.5 51.8906 39.4062 45.5625 47 45.1406V56.6719C43.625 57.6562 41.375 60.6094 41.375 64.125C41.375 68.4844 44.8906 72 49.25 72C53.4688 72 57.125 68.4844 57.125 64.125C57.125 60.6094 54.7344 57.6562 51.5 56.6719V45.8438C54.3125 46.8281 57.4062 47.25 60.5 47.25C63.4531 47.25 66.5469 46.8281 69.5 45.8438V55.5469C65.4219 56.5312 62.75 60.3281 62.75 64.5469V68.625C62.75 69.3281 62.8906 69.8906 63.3125 70.3125L64.8594 71.7188C65.2812 72.1406 65.9844 72.1406 66.4062 71.7188L67.9531 70.1719C68.375 69.75 68.375 69.0469 67.9531 68.4844L67.1094 67.7812V64.125C67.1094 61.4531 69.6406 59.3438 72.4531 59.7656C74.7031 60.0469 76.1094 62.1562 76.1094 64.4062V67.7812L75.4062 68.4844C74.9844 69.0469 74.9844 69.75 75.4062 70.1719L76.9531 71.7188C77.375 72.1406 78.0781 72.1406 78.5 71.7188L80.0469 70.3125C80.4688 69.8906 80.6094 69.3281 80.6094 68.625V64.125C80.6094 60.0469 77.7969 56.5312 73.8594 55.5469V45.1406C81.4531 45.7031 87.3594 51.8906 87.3594 59.4844V70.875C87.3594 71.5781 87.9219 72 88.4844 72H90.7344C91.4375 72 91.8594 71.5781 91.8594 70.875V59.4844C92 49.2188 83.8438 40.9219 73.5781 40.6406ZM52.625 64.125C52.625 66.0938 51.0781 67.5 49.25 67.5C47.2812 67.5 45.875 66.0938 45.875 64.125C45.875 62.2969 47.2812 60.75 49.25 60.75C51.0781 60.75 52.625 62.2969 52.625 64.125Z" fill="white"/>
</svg>
