<svg width="119" height="93" viewBox="0 0 119 93" fill="none" xmlns="http://www.w3.org/2000/svg">
<path d="M99.1789 7.03186C102.114 39.4365 80.001 33.7858 76.6946 34.1101L71.6736 40.0833L71.5138 38.3192L75.8901 33.1207C75.3668 30.4995 72.7955 24.8848 77.0717 18.3546C81.3465 11.8109 87.1587 11.6428 99.1789 7.03186ZM96.5618 12.712C97.8436 9.20068 95.9084 12.4138 95.9084 12.4138C94.0789 15.6654 91.3363 17.3286 88.3646 19.2443C84.4922 21.7384 79.4146 25.4323 77.9241 30.022C76.4324 34.5982 77.29 32.4166 78.5351 30.3788C79.7937 28.3398 83.992 25.2358 86.7697 23.4329C90.6273 20.9264 94.4052 18.5912 96.5618 12.712Z" fill="white"/>
<path d="M68.9051 19.125C68.9051 28.2471 61.308 35.75 51.8193 35.75C42.3305 35.75 34.7334 28.2471 34.7334 19.125C34.7334 10.0029 42.3305 2.5 51.8193 2.5C61.308 2.5 68.9051 10.0029 68.9051 19.125ZM51.8193 47.125C55.5265 47.125 59.0578 46.3574 62.2561 45H69.2289C77.5208 45 84.1386 51.5467 84.1386 59.5V61.625C84.1386 63.708 82.39 65.5 80.11 65.5H23.5286C21.2485 65.5 19.5 63.708 19.5 61.625V59.5C19.5 51.5467 26.1178 45 34.4096 45H41.3843C44.5899 46.3561 48.1089 47.125 51.8193 47.125Z" stroke="white" stroke-width="5"/>
<path d="M5.42383 90.3887H2.59863L2.06152 92H0.348145L3.25928 84.1797H4.75244L7.67969 92H5.96631L5.42383 90.3887ZM3.03369 89.0835H4.98877L4.00586 86.1562L3.03369 89.0835ZM13.6523 85.4849H11.2568V92H9.64551V85.4849H7.28223V84.1797H13.6523V85.4849ZM19.2812 88.6108H16.1875V90.7056H19.8184V92H14.5762V84.1797H19.8076V85.4849H16.1875V87.3486H19.2812V88.6108ZM27.123 92H25.5117L22.375 86.8545V92H20.7637V84.1797H22.375L25.5171 89.3359V84.1797H27.123V92ZM34.6694 89.395C34.6086 90.2365 34.297 90.8989 33.7349 91.3823C33.1763 91.8657 32.4386 92.107 31.522 92.107C30.5194 92.107 29.7298 91.7708 29.1533 91.0977C28.5804 90.4209 28.2939 89.4935 28.2939 88.3154V87.8374C28.2939 87.0854 28.4264 86.423 28.6914 85.8501C28.9564 85.2772 29.3341 84.8385 29.8247 84.5342C30.3188 84.2262 30.8918 84.0723 31.5435 84.0723C32.4458 84.0723 33.1727 84.314 33.7241 84.7974C34.2756 85.2808 34.5942 85.9593 34.6802 86.833H33.0688C33.0295 86.3281 32.888 85.9629 32.6445 85.7373C32.4046 85.5081 32.0376 85.3936 31.5435 85.3936C31.0063 85.3936 30.6035 85.5869 30.335 85.9736C30.07 86.3568 29.9339 86.953 29.9268 87.7622V88.353C29.9268 89.1981 30.0539 89.8158 30.3081 90.2061C30.5659 90.5964 30.9705 90.7915 31.522 90.7915C32.0197 90.7915 32.3903 90.6787 32.6338 90.4531C32.8809 90.224 33.0223 89.8713 33.0581 89.395H34.6694ZM37.4409 92H35.8296V84.1797H37.4409V92ZM45.3633 88.2671C45.3633 89.0369 45.2272 89.7119 44.9551 90.292C44.6829 90.8721 44.2926 91.3197 43.7842 91.6348C43.2793 91.9499 42.6992 92.107 42.0439 92.107C41.3958 92.107 40.8175 91.9517 40.3091 91.6401C39.8006 91.3286 39.4067 90.8846 39.1274 90.3081C38.8481 89.728 38.7067 89.062 38.7031 88.3101V87.9233C38.7031 87.1535 38.841 86.4767 39.1167 85.8931C39.396 85.3058 39.7881 84.8564 40.293 84.5449C40.8014 84.2298 41.3815 84.0723 42.0332 84.0723C42.6849 84.0723 43.2632 84.2298 43.7681 84.5449C44.2765 84.8564 44.6686 85.3058 44.9443 85.8931C45.2236 86.4767 45.3633 87.1517 45.3633 87.918V88.2671ZM43.7305 87.9126C43.7305 87.0926 43.5837 86.4696 43.29 86.0435C42.9964 85.6174 42.5775 85.4043 42.0332 85.4043C41.4925 85.4043 41.0754 85.6156 40.7817 86.0381C40.4881 86.457 40.3395 87.0729 40.3359 87.8857V88.2671C40.3359 89.0656 40.4827 89.6851 40.7764 90.1255C41.07 90.5659 41.4925 90.7861 42.0439 90.7861C42.5846 90.7861 43 90.5749 43.29 90.1523C43.5801 89.7262 43.7269 89.1068 43.7305 88.2939V87.9126ZM42.3447 82.085H44.0366L42.5488 83.75H41.2866L42.3447 82.085ZM52.8936 92H51.2822L48.1455 86.8545V92H46.5342V84.1797H48.1455L51.2876 89.3359V84.1797H52.8936V92ZM61.4551 90.3887H58.6299L58.0928 92H56.3794L59.2905 84.1797H60.7837L63.7109 92H61.9976L61.4551 90.3887ZM59.0649 89.0835H61.02L60.0371 86.1562L59.0649 89.0835ZM70.5107 91.0117C70.2207 91.359 69.8107 91.6294 69.2808 91.8228C68.7508 92.013 68.1636 92.107 67.519 92.107C66.8423 92.107 66.2479 91.9606 65.7358 91.667C65.2274 91.3698 64.8335 90.9401 64.5542 90.3779C64.2785 89.8158 64.137 89.1551 64.1299 88.396V87.8643C64.1299 87.0837 64.2606 86.4087 64.522 85.8394C64.7869 85.2664 65.1665 84.8296 65.6606 84.5288C66.1584 84.2244 66.7402 84.0723 67.4062 84.0723C68.3337 84.0723 69.0588 84.2943 69.5815 84.7383C70.1043 85.1787 70.4141 85.8215 70.5107 86.6665H68.9424C68.8708 86.2189 68.7114 85.8913 68.4644 85.6836C68.2209 85.4759 67.8843 85.3721 67.4546 85.3721C66.9067 85.3721 66.4896 85.578 66.2031 85.9897C65.9167 86.4015 65.7716 87.0138 65.7681 87.8267V88.3262C65.7681 89.1462 65.9238 89.7656 66.2354 90.1846C66.5469 90.6035 67.0034 90.813 67.605 90.813C68.2101 90.813 68.6416 90.6841 68.8994 90.4263V89.0781H67.4331V87.8911H70.5107V91.0117ZM76.5264 88.6108H73.4326V90.7056H77.0635V92H71.8213V84.1797H77.0527V85.4849H73.4326V87.3486H76.5264V88.6108ZM84.3682 92H82.7568L79.6201 86.8545V92H78.0088V84.1797H79.6201L82.7622 89.3359V84.1797H84.3682V92ZM85.7754 92V84.1797H88.1816C88.8691 84.1797 89.4832 84.3354 90.0239 84.647C90.5682 84.9549 90.9925 85.3953 91.2969 85.9683C91.6012 86.5376 91.7534 87.1857 91.7534 87.9126V88.2725C91.7534 88.9993 91.603 89.6457 91.3022 90.2114C91.005 90.7772 90.5843 91.2158 90.04 91.5273C89.4958 91.8389 88.8817 91.9964 88.1978 92H85.7754ZM87.3867 85.4849V90.7056H88.1655C88.7957 90.7056 89.2773 90.4997 89.6104 90.0879C89.9434 89.6761 90.1134 89.0871 90.1206 88.3208V87.9072C90.1206 87.1123 89.9559 86.5107 89.6265 86.1025C89.297 85.6908 88.8154 85.4849 88.1816 85.4849H87.3867ZM97.2266 90.3887H94.4014L93.8643 92H92.1509L95.062 84.1797H96.5552L99.4824 92H97.769L97.2266 90.3887ZM94.8364 89.0835H96.7915L95.8086 86.1562L94.8364 89.0835ZM100.213 92V84.1797H102.952C103.901 84.1797 104.621 84.3623 105.111 84.7275C105.602 85.0892 105.847 85.6209 105.847 86.3228C105.847 86.7059 105.749 87.0443 105.552 87.3379C105.355 87.6279 105.081 87.841 104.73 87.9771C105.131 88.0773 105.446 88.2796 105.675 88.584C105.908 88.8883 106.024 89.2607 106.024 89.7012C106.024 90.4531 105.785 91.0225 105.305 91.4092C104.825 91.7959 104.141 91.9928 103.253 92H100.213ZM101.824 88.5947V90.7056H103.205C103.584 90.7056 103.88 90.616 104.091 90.437C104.306 90.2544 104.413 90.0037 104.413 89.6851C104.413 88.9689 104.042 88.6055 103.301 88.5947H101.824ZM101.824 87.4561H103.017C103.829 87.4417 104.236 87.1177 104.236 86.4839C104.236 86.1294 104.132 85.8752 103.924 85.7212C103.72 85.5636 103.396 85.4849 102.952 85.4849H101.824V87.4561ZM108.85 90.7056H112.271V92H107.238V84.1797H108.85V90.7056ZM117.905 88.6108H114.812V90.7056H118.442V92H113.2V84.1797H118.432V85.4849H114.812V87.3486H117.905V88.6108Z" fill="white"/>
</svg>
