<svg width="69" height="82" viewBox="0 0 69 82" fill="none" xmlns="http://www.w3.org/2000/svg">
<g clip-path="url(#clip0_1_411)">
<g filter="url(#filter0_d_1_411)">
<path d="M68.7391 8.02112C68.6895 7.16554 67.8864 6.55265 67.0421 6.70895C66.5785 6.79533 66.1107 6.8776 65.6472 6.95164C62.8449 7.4 60.0096 7.63446 57.1701 7.60567C54.7942 7.57687 52.4101 7.36709 50.0715 6.93519C48.1178 6.57321 46.1931 6.05904 44.3263 5.38856C42.8072 4.83737 41.3295 4.18335 39.9098 3.41826C38.8377 2.83416 37.7947 2.18836 36.8054 1.47264C36.4412 1.20527 36.0811 0.933784 35.7375 0.645849C35.3981 0.374366 35.0752 0.0247301 34.6116 4.98657e-05C34.1812 -0.020517 33.7962 0.238625 33.4775 0.497767C32.9104 0.950238 32.3392 1.39448 31.7473 1.80993C30.6836 2.538 29.5743 3.19614 28.4236 3.77612C26.9376 4.53298 25.3937 5.17055 23.8125 5.69295C21.8796 6.33464 19.8927 6.80356 17.8853 7.11618C15.4804 7.49049 13.0466 7.64269 10.6127 7.60155C7.71944 7.55631 4.8303 7.23958 1.98255 6.70895C1.13402 6.55265 0.335162 7.16142 0.281352 8.02112C-0.178096 15.4828 -1.37018 46.6786 9.66486 60.409C21.2794 74.8469 31.3251 80.5851 33.8832 81.852C34.2847 82.0453 34.7441 82.0494 35.1456 81.8561C37.7202 80.6097 47.828 74.9333 59.3598 60.409C70.3079 46.6169 69.182 15.4828 68.7391 8.02112ZM51.6195 42.4336C51.6195 43.7252 50.5557 44.7823 49.2519 44.7823H38.9826V54.9876C38.9826 56.2833 37.9188 57.3404 36.6191 57.3404H32.3806C31.0809 57.3404 30.0172 56.2833 30.0172 54.9876V44.7823H19.7479C18.4482 44.7823 17.3844 43.7252 17.3844 42.4336V38.2215C17.3844 36.9299 18.4482 35.8727 19.7479 35.8727H30.0172V25.6675C30.0172 24.3759 31.0809 23.3146 32.3806 23.3146H36.6191C37.9188 23.3146 38.9826 24.3759 38.9826 25.6675V35.8727H49.2519C50.5557 35.8727 51.6195 36.9299 51.6195 38.2215V42.4336Z" fill="white"/>
</g>
</g>
<defs>
<filter id="filter0_d_1_411" x="-3.99818" y="-0.00109863" width="76.9982" height="90.0001" filterUnits="userSpaceOnUse" color-interpolation-filters="sRGB">
<feFlood flood-opacity="0" result="BackgroundImageFix"/>
<feColorMatrix in="SourceAlpha" type="matrix" values="0 0 0 0 0 0 0 0 0 0 0 0 0 0 0 0 0 0 127 0" result="hardAlpha"/>
<feOffset dy="4"/>
<feGaussianBlur stdDeviation="2"/>
<feComposite in2="hardAlpha" operator="out"/>
<feColorMatrix type="matrix" values="0 0 0 0 0 0 0 0 0 0 0 0 0 0 0 0 0 0 0.25 0"/>
<feBlend mode="normal" in2="BackgroundImageFix" result="effect1_dropShadow_1_411"/>
<feBlend mode="normal" in="SourceGraphic" in2="effect1_dropShadow_1_411" result="shape"/>
</filter>
<clipPath id="clip0_1_411">
<rect width="69" height="82" fill="white"/>
</clipPath>
</defs>
</svg>
