<svg width="1138" height="36" viewBox="0 0 1138 36" fill="none" xmlns="http://www.w3.org/2000/svg">
<g clip-path="url(#clip0_1_164)">
<path d="M31.6138 20.2499C32.0818 20.2499 32.4829 19.9687 32.6166 19.4765L35.6918 11.4608L41.3074 35.0858C41.4411 35.6483 41.8422 35.9296 42.377 35.9999C42.845 35.9296 43.313 35.578 43.3798 35.0858L48.8617 6.18741L52.0038 19.3358C52.1375 19.828 52.6055 20.2499 53.0066 20.2499H1081.47C1081.8 20.2499 1082 19.9688 1082 19.6875V18.5625C1082 18.2109 1081.8 18 1081.47 18L53.8757 17.9999L49.7977 0.843659C49.664 0.281159 49.2629 -9.15035e-05 48.728 -9.15527e-05C48.2601 -9.15957e-05 47.7921 0.351471 47.7252 0.843659L42.2434 29.7421L36.962 7.59366C36.8283 7.10147 36.4272 6.74991 36.026 6.74991C35.4912 6.6796 35.0902 6.96085 34.9564 7.45303L30.9453 17.9999H0.53482C0.267411 17.9999 1.22738e-07 18.2108 9.35103e-08 18.5624L0 19.6874C-2.33704e-08 19.9687 0.26741 20.2499 0.534819 20.2499H31.6138Z" fill="white" fill-opacity="0.3"/>
</g>
<defs>
<clipPath id="clip0_1_164">
<rect width="1138" height="36" fill="white"/>
</clipPath>
</defs>
</svg>
