<svg width="147" height="114" viewBox="0 0 147 114" fill="none" xmlns="http://www.w3.org/2000/svg">
<path d="M88.7416 112.011C107.778 107.46 123.213 97.4057 134.117 80.9888C141.882 69.2926 146.272 56.4725 146.061 42.2831C145.986 37.5352 146.129 32.8213 145.292 28.0597C143.965 20.546 141.807 13.3526 138.112 6.72452C135.43 1.92207 130.401 -0.489373 125.391 0.0828339C113.488 1.43842 110.303 11.4044 114.209 20.6074C117.925 29.3744 120.056 38.0869 118.184 47.6509C114.325 67.3308 102.347 79.4153 83.4738 85.042C78.3286 86.5747 72.7817 86.9016 67.5548 85.9411C57.0873 84.0202 47.7836 79.6945 40.2359 71.7177C31.8306 62.8281 27.7198 52.3035 27.3999 40.3689C27.223 33.7954 28.9653 27.3104 31.7898 21.3362C34.4781 15.6619 34.1718 10.5392 30.1904 5.71635C24.5551 -1.10245 14.4687 -1.23188 8.94915 6.33624C3.16413 14.2586 1.37416 23.8703 0.380498 33.3117C-0.688029 43.4752 0.516626 53.6251 3.7086 63.5024C7.9827 76.7313 15.4964 87.8621 26.1341 96.5338C26.1341 96.5338 54.4262 120.383 88.7552 112.011H88.7416Z" fill="#DD3488"/>
<path d="M73.1288 22.3513C76.7564 14.0883 84.9575 12.6169 90.4158 14.5992C99.7059 17.978 100.822 28.5434 97.2013 34.0611C91.811 42.2831 85.9512 50.1919 80.1525 58.1415C78.3013 60.6755 76.6951 63.3799 74.6125 65.7777C73.2581 67.3376 72.7749 67.3308 71.5703 65.621C65.3973 56.8812 58.993 48.3049 52.8813 39.5243C51.7447 37.8962 50.4107 36.4248 49.3898 34.6742C44.9728 27.0515 47.2392 17.5829 56.2502 14.136C61.5112 12.1265 68.6438 14.7968 71.7813 19.7695C72.2373 20.4916 72.5776 21.2818 73.1288 22.3445V22.3513Z" fill="#DD3488"/>
</svg>
