<svg width="381" height="113" viewBox="0 0 381 113" fill="none" xmlns="http://www.w3.org/2000/svg">
<g clip-path="url(#clip0_1_130)">
<path d="M0.773165 45.0245C2.02511 37.8827 4.94136 31.4581 8.58575 25.3376C11.7138 20.092 15.8708 15.6462 20.5405 11.7974C25.0616 8.07256 30.1772 5.18879 35.6865 3.18368C40.672 1.37381 45.7949 -0.007989 51.1556 0.0258051C95.6832 0.322442 140.207 -0.432293 184.735 0.42007C207.363 0.851883 230.009 0.495168 252.644 0.498923C253.596 0.498923 254.547 0.547736 255.498 0.574021C255.498 38.0179 255.498 75.4618 255.498 112.906C207.979 112.906 160.461 112.605 112.943 112.605H110.562C91.9906 112.568 73.4194 112.534 54.8483 112.605C50.4312 112.62 46.1218 111.967 41.8273 110.994C33.2346 109.046 25.7081 104.953 19.0954 99.2303C12.91 93.8758 8.02479 87.4211 4.77419 79.8475C3.30678 76.4305 1.96196 72.946 1.26726 69.2249C-1.25892 55.7448 0.77688 45.0245 0.77688 45.0245H0.773165ZM196.381 63.1307C193.008 58.208 189.995 53.7622 186.93 49.3577C181.228 41.157 175.473 32.9863 169.782 24.7781C167.832 21.9657 164.659 20.7491 161.383 21.7216C158.474 22.5852 156.809 25.071 156.806 28.6119C156.798 36.7713 156.806 44.9344 156.806 53.0938C156.806 63.5737 156.813 74.0574 156.802 84.5374C156.802 86.7828 157.582 88.5438 159.414 89.9444C161.758 91.7393 164.288 91.7505 166.684 90.579C169.169 89.3662 170.191 87.0531 170.18 84.1957C170.124 73.314 170.157 62.4323 170.157 51.5506V48.986C173.798 54.1152 177.223 58.8426 180.541 63.6488C185.233 70.4527 189.787 77.3505 194.524 84.1206C195.776 85.9079 196.939 87.7703 198.48 89.3774C200.661 91.6454 203.154 91.7205 205.795 90.7667C208.18 89.9069 209.733 87.515 209.733 84.7138C209.733 65.669 209.74 46.6279 209.722 27.583C209.722 24.9283 207.69 22.42 205.104 21.7028C202.344 20.9368 199.275 22.0295 197.771 24.1323C196.656 25.6906 196.381 27.399 196.381 29.2314C196.389 40.3534 196.381 51.4717 196.381 63.1269V63.1307ZM60.6288 21.6315C58.671 21.6878 56.7355 21.7028 54.7666 22.0596C45.6017 23.7192 38.1012 28.165 32.603 35.6711C26.6814 43.7591 24.5118 53.0112 26.269 62.8791C28.0039 72.6381 33.1491 80.4971 41.4001 85.9454C48.4437 90.5978 56.2154 92.5428 64.7524 91.3713C68.9875 90.7893 72.877 89.5201 76.7183 87.7478C79.4377 86.4937 81.1317 80.8763 78.5238 77.9888C76.2502 75.473 73.6535 74.4329 70.0722 76.2127C66.5653 77.955 62.9766 78.5145 59.1614 78.3305C55.751 78.1653 52.623 77.159 49.7068 75.3829C46.497 73.4266 43.9783 70.832 41.9722 67.6215C39.1971 63.1795 38.3278 58.2455 39.186 53.3078C40.5679 45.3625 45.1894 39.6625 52.6639 36.4296C55.5838 35.1679 58.6561 34.4733 61.7507 34.7023C64.7375 34.9239 67.6278 35.9227 70.4437 37.113C72.3421 37.9128 74.5711 37.9841 76.3617 36.8877C78.5349 35.5584 79.8278 33.4632 79.5714 30.7184C79.3374 28.2326 78.4235 26.1674 75.9976 25.0748C71.1087 22.8706 66.0564 21.4175 60.6325 21.6315H60.6288ZM102.199 77.8386C101.839 76.791 101.991 75.9086 101.991 75.0525C101.98 59.4584 101.991 43.8643 101.969 28.2664C101.969 27.4216 101.969 26.6143 101.627 25.7281C100.011 21.6015 96.4225 21.2034 93.3019 21.7667C92.0909 21.9845 90.7423 22.619 90.0885 23.9445C89.2563 25.6342 88.5988 27.3277 88.6062 29.3103C88.6545 47.1461 88.6359 64.9781 88.6359 82.8139C88.6359 83.4522 88.5839 84.098 88.6434 84.7326C89.0297 88.8179 91.8345 91.1648 94.6059 91.2361C101.586 91.4126 108.574 91.345 115.558 91.2699C118.378 91.2399 120.674 89.3098 121.447 86.6889C122.279 83.854 121.112 80.6661 118.694 79.0327C117.345 78.1202 115.859 77.8461 114.284 77.8461C110.257 77.8461 106.23 77.8461 102.199 77.8461V77.8386ZM131.065 55.9813C131.065 65.5789 131.053 75.1726 131.072 84.7702C131.076 87.301 132.365 89.2272 134.494 90.2899C136.578 91.33 138.795 91.544 141.054 90.1922C143.506 88.7241 144.413 86.6101 144.413 83.9178C144.416 68.4063 144.413 52.8911 144.413 37.3796C144.413 34.2592 144.543 31.1352 144.379 28.0261C144.156 23.753 141.779 21.7629 138.257 21.1847C134.657 20.5914 131.016 23.9257 131.039 27.6731C131.102 37.1092 131.061 46.5453 131.061 55.9813H131.065ZM235.478 57.0627C235.478 47.5366 235.463 38.0104 235.489 28.4842C235.492 26.5617 234.831 25.0747 233.505 23.6441C231.908 21.9206 230.002 22.0858 228.044 22.1196C225.756 22.1572 223.006 24.29 222.665 26.5241C222.405 28.2289 222.085 29.9223 222.093 31.6946C222.156 48.9071 222.13 66.1196 222.133 83.332C222.133 84.436 222.241 85.4911 222.542 86.595C223.508 90.1284 226.287 92.2537 229.823 91.758C233.479 91.2474 235.548 88.5664 235.511 85.1682C235.418 75.8035 235.478 66.435 235.478 57.0703V57.0627Z" fill="#5B398E"/>
<path d="M329.878 112.91C324.466 113.109 280.295 112.91 255.501 112.91C255.501 75.466 255.501 38.0221 255.501 0.578241C255.817 0.551956 256.132 0.499388 256.448 0.503143C279.384 0.852348 302.313 -1.41646e-05 325.249 0.0187603C325.885 0.0187603 326.52 0.00374074 327.155 0.0187603C330.372 0.112633 333.59 0.491878 336.718 1.13397C342.212 2.25668 347.417 4.25429 352.395 6.98035C358.532 10.341 363.659 14.9032 368.072 20.1713C371.727 24.5345 374.677 29.4797 376.754 34.9018C379.05 40.8946 380.38 47.0827 380.866 53.451C381.234 58.2235 380.811 63.0185 379.834 67.6558C378.31 74.899 375.725 81.7855 371.549 87.9998C367.667 93.7786 362.886 98.63 357.35 102.775C357.35 102.775 343.954 112.388 329.875 112.91H329.878ZM322.902 88.7471C333.292 86.2388 341.718 80.6966 347.669 71.6472C351.908 65.2001 354.304 58.1334 354.189 50.3119C354.148 47.6947 354.226 45.0963 353.769 42.4717C353.045 38.33 351.867 34.3648 349.85 30.7113C348.386 28.0641 345.641 26.7349 342.907 27.0503C336.409 27.7975 334.671 33.2909 336.803 38.3638C338.831 43.1964 339.994 47.9989 338.973 53.2708C336.866 64.1187 330.328 70.7799 320.026 73.8814C317.218 74.7263 314.19 74.9065 311.337 74.3771C305.623 73.3182 300.545 70.9338 296.425 66.5368C291.837 61.6367 289.593 55.8354 289.419 49.2568C289.322 45.6333 290.273 42.0586 291.815 38.7656C293.282 35.6378 293.115 32.8141 290.942 30.1556C287.866 26.3969 282.36 26.3256 279.347 30.4973C276.19 34.8642 275.212 40.1624 274.67 45.3667C274.087 50.969 274.744 56.5638 276.487 62.0084C278.82 69.3004 282.921 75.4359 288.728 80.2159C302.499 92.8249 322.909 88.7471 322.909 88.7471H322.902ZM314.379 39.3213C314.079 38.7355 313.893 38.3 313.644 37.902C311.931 35.1571 308.042 33.6852 305.166 34.7967C300.248 36.6966 299.011 41.9159 301.422 46.1177C301.975 47.0827 302.707 47.8937 303.327 48.7912C306.663 53.6312 310.159 58.3587 313.529 63.1762C314.186 64.1187 314.45 64.1224 315.189 63.2626C316.326 61.9408 317.203 60.4539 318.213 59.0533C321.375 54.6713 324.577 50.3119 327.519 45.7797C329.492 42.742 328.883 36.9144 323.815 35.052C320.836 33.9556 316.36 34.7704 314.379 39.3251V39.3213Z" fill="#DD3488"/>
<path d="M196.381 63.1312C196.381 51.476 196.381 40.3539 196.381 29.2357C196.381 27.4033 196.656 25.6986 197.77 24.1365C199.275 22.0338 202.347 20.9411 205.104 21.7071C207.693 22.428 209.721 24.9326 209.721 27.5873C209.74 46.6321 209.729 65.6732 209.732 84.7181C209.732 87.523 208.18 89.9111 205.795 90.771C203.153 91.7247 200.66 91.6534 198.48 89.3817C196.938 87.7746 195.772 85.9122 194.523 84.1248C189.783 77.3547 185.232 70.457 180.54 63.6531C177.226 58.8468 173.797 54.1194 170.157 48.9902V51.5548C170.157 62.4365 170.123 73.3182 170.179 84.1999C170.194 87.0574 169.169 89.3704 166.683 90.5833C164.287 91.7548 161.757 91.7435 159.413 89.9487C157.582 88.5481 156.798 86.787 156.801 84.5416C156.813 74.0617 156.805 63.578 156.805 53.0981C156.805 44.9387 156.801 36.7755 156.805 28.6161C156.805 25.0752 158.47 22.5857 161.382 21.7259C164.659 20.7533 167.831 21.9699 169.782 24.7824C175.473 32.9906 181.227 41.1612 186.93 49.3619C189.995 53.7702 193.004 58.216 196.381 63.1349V63.1312Z" fill="#FEFEFE"/>
<path d="M60.6283 21.6357C66.0522 21.4217 71.1045 22.8748 75.9934 25.0752C78.4193 26.1679 79.3332 28.2331 79.5672 30.7188C79.8273 33.4674 78.5308 35.5589 76.3575 36.8881C74.5669 37.9846 72.3379 37.9132 70.4396 37.1134C67.6236 35.9231 64.7334 34.9243 61.7465 34.7028C58.652 34.4737 55.5797 35.1684 52.6597 36.43C45.1889 39.663 40.5638 45.3629 39.1818 53.3083C38.3236 58.246 39.1967 63.1762 41.968 67.622C43.9704 70.8324 46.4929 73.4233 49.7026 75.3834C52.6188 77.1595 55.7469 78.1658 59.1572 78.331C62.9725 78.515 66.5574 77.9555 70.0681 76.2132C73.6493 74.4334 76.2461 75.4735 78.5196 77.9893C81.1275 80.8768 79.4335 86.4941 76.7142 87.7483C72.8729 89.5206 68.9833 90.7897 64.7482 91.3718C56.2112 92.5433 48.4395 90.5982 41.3959 85.9459C33.145 80.4976 27.9997 72.6386 26.2648 62.8796C24.5114 53.0117 26.6772 43.7596 32.5989 35.6715C38.097 28.1655 45.5976 23.7159 54.7624 22.06C56.7313 21.7033 58.6668 21.6883 60.6246 21.6357H60.6283Z" fill="#FEFEFE"/>
<path d="M102.195 77.8429C106.226 77.8429 110.253 77.8429 114.28 77.8429C115.855 77.8429 117.341 78.1208 118.69 79.0295C121.104 80.6628 122.275 83.8508 121.442 86.6857C120.673 89.3066 118.378 91.2329 115.554 91.2667C108.57 91.3455 101.582 91.4094 94.6017 91.2329C91.8304 91.1653 89.0256 88.8185 88.6392 84.7294C88.5798 84.0948 88.6318 83.449 88.6318 82.8106C88.6318 64.9749 88.6541 47.1428 88.6021 29.3071C88.5983 27.3245 89.2522 25.631 90.0843 23.9413C90.7382 22.6158 92.0867 21.9812 93.2978 21.7635C96.4184 21.204 100.007 21.5982 101.623 25.7249C101.969 26.611 101.965 27.4183 101.965 28.2632C101.983 43.8573 101.976 59.4514 101.987 75.0493C101.987 75.9054 101.838 76.7878 102.195 77.8354V77.8429Z" fill="#FEFEFE"/>
<path d="M131.064 55.9819C131.064 46.5458 131.105 37.1097 131.042 27.6737C131.016 23.9225 134.66 20.5919 138.26 21.1852C141.782 21.7635 144.159 23.7536 144.382 28.0266C144.546 31.1357 144.416 34.2635 144.416 37.3801C144.416 52.8916 144.416 68.4068 144.416 83.9183C144.416 86.6068 143.509 88.7246 141.057 90.1928C138.799 91.5445 136.581 91.3305 134.497 90.2904C132.368 89.2278 131.079 87.3015 131.075 84.7707C131.057 75.1769 131.068 65.5794 131.068 55.9819H131.064Z" fill="#FEFEFE"/>
<path d="M235.477 57.067C235.477 66.4317 235.414 75.8002 235.511 85.165C235.544 88.5631 233.475 91.2441 229.823 91.7548C226.286 92.2505 223.508 90.1252 222.542 86.5918C222.241 85.4916 222.133 84.4327 222.133 83.3288C222.133 66.1163 222.155 48.9039 222.092 31.6914C222.085 29.9228 222.404 28.2256 222.664 26.5209C223.006 24.2867 225.759 22.154 228.044 22.1164C230.001 22.0826 231.907 21.9174 233.505 23.6409C234.831 25.0715 235.496 26.5585 235.488 28.481C235.462 38.0071 235.477 47.5333 235.477 57.0595V57.067Z" fill="#FEFEFE"/>
<path d="M322.905 88.7471C333.296 86.2388 341.722 80.6966 347.673 71.6473C351.912 65.2001 354.308 58.1334 354.193 50.3119C354.152 47.6947 354.23 45.0964 353.773 42.4717C353.049 38.33 351.871 34.3648 349.854 30.7113C348.39 28.0641 345.645 26.7349 342.91 27.0503C336.413 27.7975 334.674 33.2909 336.807 38.3638C338.835 43.1964 339.998 47.9989 338.976 53.2708C336.87 64.1187 330.331 70.7799 320.03 73.8814C317.221 74.7263 314.194 74.9065 311.341 74.3771C305.627 73.3182 300.549 70.9338 296.429 66.5368C291.841 61.6367 289.597 55.8354 289.422 49.2568C289.326 45.6333 290.277 42.0586 291.818 38.7656C293.286 35.6378 293.119 32.8141 290.945 30.1556C287.869 26.3969 282.364 26.3256 279.351 30.4973C276.193 34.8642 275.216 40.1624 274.674 45.3667C274.091 50.969 274.748 56.5638 276.49 62.0084C278.823 69.3004 282.925 75.436 288.731 80.2159C288.731 80.2159 304.174 93.3619 322.913 88.7471H322.905Z" fill="#FEFEFE"/>
<path d="M314.383 39.3251C316.363 34.7704 320.84 33.9593 323.819 35.052C328.89 36.9144 329.499 42.7383 327.523 45.7798C324.581 50.3119 321.382 54.6714 318.217 59.0533C317.207 60.4502 316.33 61.9409 315.193 63.2626C314.454 64.1225 314.19 64.1187 313.532 63.1762C310.163 58.3587 306.667 53.6313 303.331 48.7912C302.711 47.8938 301.983 47.0827 301.425 46.1177C299.014 41.916 300.251 36.6967 305.17 34.7967C308.042 33.689 311.935 35.1609 313.648 37.902C313.897 38.3 314.082 38.7356 314.383 39.3213V39.3251Z" fill="#FEFEFE"/>
</g>
<defs>
<clipPath id="clip0_1_130">
<rect width="381" height="113" fill="white"/>
</clipPath>
</defs>
</svg>
