<?xml version="1.0" encoding="utf-8"?>
<!-- Generator: Adobe Illustrator 24.2.3, SVG Export Plug-In . SVG Version: 6.00 Build 0)  -->
<svg version="1.1" id="Layer_1" xmlns="http://www.w3.org/2000/svg" xmlns:xlink="http://www.w3.org/1999/xlink" x="0px" y="0px"
	 viewBox="0 0 191.9 233.8" style="enable-background:new 0 0 191.9 233.8;" xml:space="preserve">
<style type="text/css">
	.st0{clip-path:url(#SVGID_2_);}
	.st1{fill:#DDDDDD;}
	.st2{fill:#F9F9FA;}
	.st3{fill:#676463;}
	.st4{fill:#676462;}
	.st5{fill:#F8C7A2;}
	.st6{fill:#CD906A;}
	.st7{fill:#E9A77A;}
	.st8{fill:#CB9169;}
	.st9{fill:#47392E;}
	.st10{fill:#010101;}
	.st11{fill:#E6E6E5;stroke:#00A99A;stroke-width:2;stroke-miterlimit:10;}
	.st12{fill:none;stroke:#057B98;stroke-width:0.4975;stroke-linecap:round;stroke-linejoin:round;stroke-miterlimit:10;}
	.st13{fill:#007DA5;}
	.st14{fill:none;stroke:#057B98;stroke-width:8.775137e-02;stroke-miterlimit:10;}
	.st15{fill:#1ECAD3;}
</style>
<g>
	<g>
		<defs>
			<rect id="SVGID_1_" width="191.9" height="233.8"/>
		</defs>
		<clipPath id="SVGID_2_">
			<use xlink:href="#SVGID_1_"  style="overflow:visible;"/>
		</clipPath>
		<g class="st0">
			<path class="st1" d="M100.7,140.1c0,0-47.2,0-78.8,18.3c0,0-15.4,3.7-21.6,78.2l34.9,46.6h67.1l10.4-10l-2.1-61.6L100.7,140.1z"
				/>
			<path class="st2" d="M96.1,140.1c0,0,42.9,0,74.5,18.3c0,0,15.4,3.7,21.6,78.2l-34.9,46.6H97.1v-7.5l-1.8-60.3L96.1,140.1z"/>
			<path class="st1" d="M160.6,219.2h-40.5v36.9c0,0,1.5,8.4,13.8,15.1s26.4-12.3,26.4-12.3L160.6,219.2z"/>
			<polygon class="st3" points="121.9,142.6 121.9,156.2 116.5,163.3 112.9,154.9 117.3,145.3 119.9,142.3 			"/>
			<path class="st4" d="M67.3,143.3c0,0-0.9,11.2,1.8,13.3c2.7,2.1,4.4,0,4.4,0l-0.9-6.9l-1.5-5.1v-1.9L67.3,143.3z"/>
			<path class="st5" d="M122.7,108.4c0,0,2.8,3.3,4.9,3.5c0,0,3-2,3.5-7c0,0,0.3-7.9,1.4-11.7c1.1-3.8,0-13.6-7.1-12.1
				s-5.7,9.7-5.7,9.7s-1.3,11.8-1.3,12.3C118.5,103.6,122.7,108.4,122.7,108.4z"/>
			<path class="st6" d="M66.8,109.5c0,0-2.6,3.7-5,3.5c0,0-3-1.1-3.4-6.8c0,0-0.1-7.9-1.6-11.5c0,0-1-14.4,7-12.1l7.2,15L66.8,109.5
				z"/>
			<path class="st7" d="M120.5,124.4v33.8c0,0-15.4,38.7-20.3,44.8l-1.8,2.7l-2.9-5.1l-9.3-26.1l-1.5-12.6v-11.7l5.4-18.1l19.4-1.6
				L120.5,124.4z"/>
			<path class="st8" d="M69.2,126.6l-0.7,25.6c0,0-0.6,5.3,6,17.9c6.6,12.6,7.1,15.4,7.9,17.4s6.8,14.1,8.2,15.2
				c1.5,1.1,4,7.5,3.8,10.6c0,0,4-7.4,5.8-10.2c0,0-10.5-47.1-7.8-63.9L69.2,126.6z"/>
			<path class="st7" d="M94.9,148.4c0,0-17.1,1-27-18.7c0,0-4.3-23.4-4.3-33.7l3.3-27.5l6.3-10.8l12.6-3.5l6.9,3.5l8.5,8.5l4.5,24.4
				l-5.9,40.7L94.9,148.4z"/>
			<path class="st5" d="M94.9,148.4c0,0,14.2,1.8,26.2-16.1c0,0,4.1-12,3.5-21.1l-1.6-48l-15.2-5.5H92.7l-1.4,12.4l2.8,3.9
				C94.1,74,95.8,147,94.9,148.4z"/>
			<path class="st9" d="M121.7,97.3l3.9-2.8l1.3-12.1c0,0,5.4-5.6,3.9-16.8c0,0-2.5-18.9-11.3-21.1c0,0-6-11.9-18.3-11.1
				c0,0-9.6-1-13.8,3.3c0,0-19-1.6-27.9,23.1c0,0-3.4,11.3,0.3,20c0,0,2.2,3.4,2.3,5.7l1.4,10.6l3.1,2.3l-0.4-16.6
				c0,0,2.1-7.5,4.5-8.8c0,0,3.8-3,3.6-4.4c0,0,1.8-2,8,1.8c0,0,12.1,8.5,18.6,8.3c0,0,10.4,0.1,14.3-9.1c0,0,5.9,4.5,6.8,9.6
				c0,0.2,0.1,0.4,0.1,0.6C122.7,85.1,121.7,97.3,121.7,97.3z"/>
			<g>
				<rect x="140.2" y="211.6" class="st10" width="6.5" height="9.8"/>
				<rect x="125.7" y="218.3" class="st11" width="36.3" height="22"/>
			</g>
		</g>
	</g>
</g>
<g>
	<path class="st12" d="M57.7,214.8"/>
	<path class="st13" d="M56.2,212c-1.5-1.1-3.3-1.6-5.2-1.6c-5,0-9,4-9,9c0,4.5,3.4,8.3,7.8,8.9c0,0,0,0,0.1,0c0,0,0.1,0,0.1,0
		c0.2,0.4,0.5,0.8,1,0.8c0.1,0,0.1,0,0.2,0c0.6,0,1.2-0.5,1.2-1.1c0-0.3,0-0.7-0.2-0.9c-0.2-0.3-0.5-0.4-0.8-0.5c-0.1,0-0.1,0-0.2,0
		c-0.5,0-0.9,0.3-1.1,0.6c0,0-0.1,0-0.1,0c-3.9-0.5-6.8-3.9-6.8-7.8c0-4.4,3.5-7.9,7.9-7.9c1.6,0,3.2,0.5,4.5,1.4
		c0.3,0.2,0.6,0.1,0.8-0.1C56.5,212.6,56.5,212.2,56.2,212z M50.7,227.8c0-0.3,0.3-0.5,0.5-0.5c0,0,0.1,0,0.1,0
		c0.3,0,0.5,0.3,0.5,0.6c0,0.3-0.3,0.5-0.5,0.5c0,0-0.1,0-0.1,0C50.8,228.4,50.6,228.1,50.7,227.8z"/>
	<path class="st12" d="M56.4,216.2"/>
	<path class="st14" d="M56.4,216.2"/>
	<g>
		<path class="st13" d="M59.7,226.6c-0.1,0-0.2,0-0.3-0.1c-0.2-0.2-0.2-0.5,0-0.7c1.5-1.7,2.3-3.9,2.3-6.2c0-2.3-0.9-4.6-2.4-6.3
			c-0.2-0.2-0.2-0.5,0-0.7c0.2-0.2,0.5-0.2,0.7,0c1.7,1.9,2.7,4.4,2.7,7c0,2.5-0.9,5-2.6,6.9C60,226.5,59.9,226.6,59.7,226.6z"/>
		<path class="st13" d="M56,223.6c-0.1,0-0.2,0-0.3-0.1c-0.2-0.2-0.3-0.5-0.1-0.7c0.7-1,1.1-2.2,1.1-3.4c0-1.2-0.4-2.4-1.1-3.4
			c-0.2-0.2-0.1-0.5,0.1-0.7c0.2-0.2,0.5-0.1,0.7,0.1c0.9,1.2,1.3,2.5,1.3,4c0,1.5-0.5,2.8-1.3,4C56.3,223.6,56.1,223.6,56,223.6z"
			/>
	</g>
	<path class="st15" d="M58.2,214c-0.2-0.2-0.5-0.2-0.7-0.1c-0.2,0.2-0.2,0.5-0.1,0.7c1.1,1.4,1.7,3.1,1.7,4.8c0,2.4-1.1,4.6-3,6.1
		l-2.4-2.9c0.9-0.8,1.4-1.9,1.4-3.2c0-0.6-0.1-1.1-0.3-1.7c0.1-0.2,0.2-0.4,0.2-0.6c0.1-0.7-0.4-1.3-1.1-1.4c-0.1,0-0.1,0-0.2,0
		c-0.6,0-1.2,0.5-1.2,1.1c0,0.3,0,0.7,0.2,0.9c0.2,0.3,0.5,0.4,0.8,0.5c0.1,0,0.1,0,0.2,0c0.1,0,0.2,0,0.3,0
		c0.1,0.4,0.2,0.8,0.2,1.2c0,1.9-1.5,3.4-3.4,3.4c-0.7,0-1.4-0.2-2-0.7c0.1-0.1,0.1-0.2,0.1-0.4c0-0.3,0-0.7-0.2-0.9
		c-0.2-0.3-0.5-0.4-0.8-0.5c-0.1,0-0.1,0-0.2,0c-0.6,0-1.2,0.5-1.2,1.1c-0.1,0.7,0.4,1.3,1.1,1.4c0.1,0,0.1,0,0.2,0
		c0.2,0,0.4,0,0.5-0.1c0.7,0.6,1.6,0.9,2.6,0.9c0.8,0,1.5-0.2,2.1-0.6l2.7,3.3c0.1,0.1,0.2,0.2,0.4,0.2c0.1,0,0.2,0,0.3-0.1
		c2.3-1.6,3.7-4.2,3.7-7.1C60.2,217.4,59.5,215.5,58.2,214z M53.9,217.6C53.8,217.6,53.8,217.6,53.9,217.6c-0.4,0-0.6-0.3-0.5-0.6
		c0-0.3,0.3-0.5,0.5-0.5c0,0,0.1,0,0.1,0c0.3,0,0.5,0.3,0.5,0.6C54.4,217.4,54.1,217.6,53.9,217.6z M48.4,221.7
		c0,0.3-0.3,0.5-0.5,0.5c0,0-0.1,0-0.1,0c-0.3,0-0.5-0.3-0.5-0.6c0-0.3,0.3-0.5,0.5-0.5c0,0,0.1,0,0.1,0
		C48.3,221.1,48.5,221.4,48.4,221.7z"/>
</g>
</svg>
