<svg width="367" height="82" viewBox="0 0 367 82" fill="none" xmlns="http://www.w3.org/2000/svg">
<mask id="mask0_7_204" style="mask-type:luminance" maskUnits="userSpaceOnUse" x="0" y="0" width="367" height="82">
<path d="M367 0H0V82H367V0Z" fill="white"/>
</mask>
<g mask="url(#mask0_7_204)">
<mask id="mask1_7_204" style="mask-type:luminance" maskUnits="userSpaceOnUse" x="0" y="0" width="367" height="82">
<path d="M367 0H0V82H367V0Z" fill="white"/>
</mask>
<g mask="url(#mask1_7_204)">
<path d="M35.4551 73.6429C36.0297 72.9362 36.6042 72.252 37.3929 71.7696C40.3559 69.9636 44.3667 71.2873 45.5272 74.7647C46.4285 77.4457 45.1216 80.3061 42.6881 81.4503C40.0968 82.673 36.8296 81.9102 35.2974 78.96C35.0946 78.5786 34.903 78.4552 34.4749 78.3992C33.1568 78.2309 31.8386 78.0739 30.5542 77.7373C28.7629 77.2662 26.9716 76.739 25.2365 76.0884C21.8229 74.8096 18.6796 73.026 15.7728 70.8273C12.8999 68.6624 10.3763 66.1609 8.17936 63.3228C5.6895 60.1146 3.7517 56.5923 2.36594 52.7896C1.52097 50.49 0.912588 48.1119 0.507001 45.6777C0.0338162 42.8509 -0.112646 40.0016 0.0450825 37.1524C0.146479 35.3688 0.371805 33.6076 0.732327 31.8465C1.17171 29.6815 1.76883 27.5726 2.53494 25.5086C3.19965 23.725 4.03336 22.02 4.94593 20.3598C7.46958 15.7718 10.8269 11.8793 14.9166 8.60381C18.15 6.01257 21.7215 4.01585 25.5971 2.54635C27.5123 1.81722 29.4727 1.24512 31.4781 0.841293C33.2807 0.482332 35.1058 0.257982 36.9422 0.112154C39.3307 -0.0785432 41.6966 0.0224144 44.0625 0.280417C46.5186 0.549637 48.9183 1.07686 51.2842 1.806C54.3262 2.73705 57.1878 4.03828 59.9142 5.6536C60.7479 6.14718 61.5704 6.68562 62.3478 7.26893C63.373 8.05415 63.5645 9.38904 62.8885 10.4435C62.1675 11.5652 60.7592 11.8905 59.5875 11.1951C58.4722 10.5332 57.3906 9.80408 56.264 9.16469C54.5515 8.17754 52.7489 7.3811 50.8561 6.78657C49.2563 6.293 47.6452 5.8443 46.0116 5.47412C44.93 5.22734 43.8034 5.11516 42.6881 5.03664C40.4348 4.8796 38.1703 4.85716 35.917 5.08151C32.109 5.46291 28.4812 6.47248 25.0225 8.0878C19.6935 10.5557 15.2659 14.1453 11.7508 18.823C9.33979 22.02 7.55971 25.531 6.38801 29.345C5.67824 31.6446 5.25012 34.0115 5.03606 36.4232C4.79946 39.0818 4.92339 41.7067 5.25012 44.3316C5.41911 45.7226 5.74583 47.1135 6.11762 48.4708C6.83867 51.0397 7.8301 53.5075 9.11446 55.852C11.6381 60.4511 15.0405 64.2988 19.2879 67.3948C21.8454 69.2569 24.6394 70.7264 27.625 71.8257C30.0811 72.7343 32.6047 73.3401 35.196 73.6429C35.2861 73.6429 35.3762 73.6429 35.4776 73.6542M40.2883 74.1141C38.8913 74.0468 37.8661 75.3143 37.8548 76.4697C37.8435 77.771 38.9026 78.8479 40.232 78.8815C41.5952 78.9152 42.6993 77.8383 42.6993 76.4922C42.6993 75.4714 41.8543 74.0804 40.2883 74.1141Z" fill="white"/>
<path d="M48.7042 55.4705C41.4375 59.1386 34.5876 58.6339 27.9855 53.9898C26.611 54.5619 25.1802 54.618 23.7494 54.0795C22.5777 53.6421 21.6651 52.8681 21.0117 51.8136C19.6935 49.6598 19.9864 46.9228 21.7665 45.0831C23.524 43.2659 26.3519 42.8733 28.5713 44.1745C29.8332 44.9036 30.6669 45.9693 31.0725 47.3827C31.4668 48.7512 31.3203 50.0749 30.7683 51.3537C35.4325 55.0443 43.195 55.4481 48.738 50.9947C54.3374 46.4965 55.3626 39.1939 53.3009 34.505C52.6024 34.505 51.9039 34.5611 51.2166 34.4938C49.369 34.3031 47.9832 33.3608 47.0932 31.7567C45.3694 28.6495 46.8453 24.5551 50.7209 23.6689C54.4163 22.8388 57.3342 25.6207 57.4469 28.7504C57.4807 29.8609 57.3117 30.9266 56.6808 31.8689C56.4667 32.183 56.4893 32.4522 56.6245 32.7663C57.7285 35.5034 58.1567 38.3526 57.8412 41.2804C57.4356 44.9821 56.1175 48.3137 53.6727 51.1742C53.0418 51.9146 52.3658 52.6101 51.6898 53.3616C55.1486 57.5233 58.6073 61.6962 62.1337 65.9252C62.8885 65.3083 63.6208 64.7474 64.3081 64.1304C66.6627 62.044 68.6794 59.6659 70.3581 57.0073C72.0818 54.2927 73.3662 51.3761 74.2337 48.2913C75.3491 44.3427 75.7096 40.3157 75.3153 36.2437C75.0561 33.5403 74.4365 30.9154 73.5352 28.3354C72.2621 24.7121 70.3919 21.4366 67.9809 18.464C67.4063 17.746 67.1923 16.9945 67.5302 16.0746C67.9922 14.7734 70.0088 14.0555 71.1805 15.4689C72.0818 16.557 72.9268 17.7012 73.7154 18.8678C75.6983 21.7843 77.1404 24.9589 78.1994 28.3129C78.8642 30.4106 79.2697 32.5756 79.5627 34.763C79.9232 37.4664 79.9457 40.1811 79.6979 42.8845C79.1233 49.1102 77.0841 54.8311 73.6366 60.0697C71.8678 62.7507 69.7835 65.1737 67.3838 67.305C66.291 68.2697 65.1193 69.1447 63.9588 70.0421C63.711 70.2328 63.4068 70.3786 63.1026 70.4908C62.19 70.8609 61.3901 70.5805 60.7705 69.9075C59.9818 69.0549 59.272 68.1463 58.5285 67.2489C55.9597 64.1753 53.391 61.0905 50.8223 58.0169C50.2252 57.3102 49.6393 56.5923 49.0422 55.8744C48.9296 55.7285 48.8282 55.5827 48.738 55.4705M28.177 48.9083C28.177 47.6856 27.2532 46.5414 25.7773 46.5414C24.538 46.5414 23.4339 47.4163 23.3663 48.9307C23.31 50.2207 24.5042 51.3425 25.8336 51.32C27.1631 51.3088 28.1996 50.2432 28.1883 48.9083M49.583 29.0757C49.583 30.3994 50.6308 31.4426 51.9602 31.4538C53.2784 31.4538 54.3599 30.3994 54.3712 29.0982C54.3825 27.7633 53.2896 26.6864 51.9489 26.6864C50.6308 26.6864 49.583 27.7521 49.583 29.0757Z" fill="white"/>
<path d="M255.554 47.4277H250.022C250.022 47.1472 249.988 46.878 249.988 46.6088C249.988 43.2435 249.988 39.8783 249.988 36.513C249.988 35.6829 249.966 34.8416 249.875 34.0115C249.729 32.7439 249.346 31.5437 248.287 30.7248C246.901 29.6703 245.369 29.5918 243.814 30.3097C241.978 31.1735 241.133 32.7327 240.941 34.6733C240.862 35.4361 240.907 36.1989 240.907 36.9729C240.907 40.1924 240.907 43.423 240.907 46.6424V47.4164H235.252V46.5527C235.252 42.8621 235.252 39.1716 235.252 35.481C235.252 34.1798 235.026 32.9459 234.339 31.8241C232.582 28.9412 228.424 29.2441 226.836 31.9138C226.171 33.0244 225.901 34.2134 225.901 35.4922C225.912 39.1828 225.901 42.8733 225.901 46.5639V47.4164H220.279V25.0712C220.797 24.9365 224.47 24.8917 225.439 25.0263C225.563 25.8003 225.687 26.5855 225.844 27.5278C226.509 26.6753 227.14 25.9237 228.03 25.4638C228.954 24.9926 229.934 24.7234 230.959 24.6337C231.962 24.5439 232.953 24.6112 233.945 24.8356C234.959 25.0712 235.86 25.5311 236.66 26.1929C237.437 26.8435 237.978 27.6736 238.451 28.6495C238.744 28.2794 239.003 27.9428 239.274 27.6175C240.22 26.507 241.324 25.6096 242.744 25.1497C243.679 24.8468 244.637 24.6898 245.628 24.6785C247.295 24.6561 248.918 24.8132 250.473 25.4862C252.76 26.4846 254.157 28.2345 254.923 30.5453C255.396 31.9699 255.587 33.4394 255.587 34.9313C255.599 38.9023 255.587 42.8621 255.587 46.8331C255.587 47.0126 255.565 47.1921 255.554 47.4164" fill="white"/>
<path d="M135.77 47.4388H130.171C130.171 47.1359 130.171 46.8555 130.171 46.5863C130.171 42.6377 130.171 38.7003 130.148 34.7518C130.148 33.6637 129.844 32.6541 129.303 31.7118C128.436 30.2199 126.656 29.6029 125.011 29.9731C122.972 30.433 121.789 31.7679 121.271 33.7534C121.09 34.4377 121.034 35.122 121.034 35.8174C121.034 39.4183 121.034 43.0079 121.034 46.6087V47.4612C119.186 47.4949 117.384 47.4612 115.491 47.4837C115.48 47.192 115.457 46.9452 115.457 46.6984C115.457 43.0079 115.457 39.3173 115.457 35.638C115.457 34.4377 115.243 33.2823 114.702 32.2054C113.046 28.9299 108.742 29.2552 107.154 31.7231C106.478 32.7887 106.061 33.9105 106.061 35.178C106.061 38.9583 106.061 42.7387 106.061 46.519V47.3266C105.543 47.4949 101.746 47.551 100.552 47.4164C100.417 46.9228 100.372 25.9348 100.518 25.015H105.633C105.768 25.8114 105.892 26.5967 106.05 27.5501C107.74 25.0711 110.094 24.4653 112.742 24.6336C115.457 24.8018 117.429 26.1031 118.645 28.6382C118.826 28.4251 118.95 28.2793 119.062 28.1222C120.065 26.7986 121.271 25.7441 122.859 25.1832C123.828 24.8467 124.842 24.6897 125.878 24.6897C127.523 24.6785 129.123 24.8243 130.655 25.4973C132.886 26.462 134.261 28.1783 135.061 30.4106C135.613 31.9586 135.793 33.5739 135.804 35.2005C135.849 39.0705 135.815 42.9518 135.815 46.8218C135.815 47.0013 135.793 47.1808 135.77 47.4388Z" fill="white"/>
<path d="M182.221 27.6849V15.6709H187.82V47.4389H182.627C182.514 46.5078 182.401 45.5992 182.289 44.5896C182.12 44.713 181.984 44.7803 181.894 44.8925C180.993 46.104 179.81 46.9229 178.402 47.4277C177.478 47.753 176.509 47.8988 175.529 47.9325C172.983 48.011 170.572 47.5735 168.397 46.1713C166.2 44.7579 164.747 42.8061 163.981 40.3046C163.372 38.3303 163.305 36.3223 163.496 34.3144C163.688 32.3401 164.263 30.4556 165.457 28.8178C166.865 26.8772 168.735 25.576 171.067 24.959C172.217 24.6561 173.377 24.443 174.582 24.443C176.633 24.443 178.548 24.959 180.272 26.0695C180.948 26.507 181.523 27.0903 182.232 27.6849M175.371 42.7724C179.01 42.8173 181.872 40.1251 181.894 36.2887C181.917 32.4186 179.112 29.6816 175.394 29.6704C171.642 29.6704 169.028 32.1943 168.994 36.1653C168.961 40.0914 171.766 42.8061 175.371 42.7724Z" fill="white"/>
<path d="M277.095 27.8194C277.185 26.8547 277.253 25.9573 277.343 25.0374H282.593C282.728 25.5422 282.773 46.4853 282.638 47.3603C282.131 47.5061 278.165 47.5285 277.399 47.3827C277.32 46.4517 277.241 45.5094 277.14 44.4213C276.948 44.6344 276.824 44.7466 276.723 44.8812C275.687 46.2385 274.335 47.0911 272.712 47.6183C271.383 48.0445 270.031 48.2352 268.656 48.1118C265.04 47.809 261.998 46.4629 260.004 43.2883C259.148 41.9422 258.663 40.4615 258.393 38.891C258.156 37.4552 258.089 36.0306 258.246 34.5947C258.505 32.1942 259.272 29.9956 260.894 28.1447C262.28 26.563 263.992 25.5198 266.02 24.9701C267.451 24.5887 268.893 24.3644 270.369 24.4653C272.983 24.6336 275.258 25.5086 276.881 27.6848C276.903 27.7184 276.96 27.7296 277.106 27.8194M270.448 43.0079C271.969 43.0415 273.354 42.6153 274.549 41.6842C276.824 39.8782 277.624 36.5354 276.599 33.731C275.619 31.0612 273.692 29.5917 270.831 29.4683C268.138 29.3449 265.975 30.3209 264.589 32.7214C264.015 33.731 263.801 34.8527 263.778 35.9857C263.744 37.4664 264.015 38.891 264.86 40.1586C266.189 42.1441 268.116 42.963 270.436 43.0079" fill="white"/>
<path d="M161.998 38.218H144.411C144.423 38.9472 144.693 39.5529 145.031 40.125C145.831 41.4823 147.081 42.2564 148.557 42.6602C151.047 43.3332 153.447 42.9518 155.745 41.8525C156.218 41.6282 156.635 41.2804 157.165 40.9439C158.303 42.0657 159.474 43.2098 160.669 44.3877C160.556 44.5223 160.488 44.6345 160.387 44.7242C158.686 46.2386 156.703 47.1696 154.472 47.6632C152.365 48.1343 150.27 48.1792 148.163 47.8427C145.662 47.4501 143.442 46.418 141.674 44.6008C140.479 43.3669 139.646 41.8974 139.161 40.2484C138.62 38.4312 138.429 36.5691 138.632 34.6733C138.88 32.4186 139.601 30.3434 141.031 28.5486C142.417 26.8098 144.175 25.6432 146.304 24.9702C148.512 24.2635 150.754 24.1962 153.008 24.5103C155.565 24.8692 157.83 25.89 159.519 27.9204C160.5 29.0982 161.131 30.4331 161.547 31.9138C162.122 33.9666 162.077 36.0419 161.998 38.2517M156.534 33.6189C156.534 33.4618 156.568 33.3721 156.545 33.2823C156.196 31.7231 155.373 30.5453 153.853 29.8947C152.163 29.1655 150.428 29.1319 148.67 29.5693C146.766 30.0517 145.425 31.1959 144.67 33.0131C144.592 33.1926 144.569 33.3945 144.513 33.6189H156.534Z" fill="white"/>
<path d="M86.3899 39.5417C86.4012 37.7806 86.2998 35.7951 85.9956 33.8208C85.2971 29.3562 84.0014 25.0823 81.9059 21.044C80.3511 18.049 78.5035 15.2558 76.2727 12.7206C76.0474 12.4626 75.8221 12.1934 75.6306 11.9018C75.0222 10.9931 75.225 9.70313 76.0812 9.01886C77.0839 8.22242 78.3908 8.52529 78.9992 9.18712C80.8807 11.2175 82.5255 13.4273 83.9789 15.7718C85.2745 17.8583 86.4237 20.0345 87.3475 22.3116C88.215 24.4317 88.9248 26.6079 89.4881 28.8402C90.4458 32.6654 90.8288 36.5578 90.8063 40.484C90.795 42.7611 90.5922 45.0271 90.2204 47.2706C89.6797 50.4676 88.7783 53.5748 87.5841 56.6035C86.0857 60.3951 84.0803 63.8949 81.6693 67.1704C80.9821 68.1015 80.1934 68.954 79.4611 69.8626C78.6499 70.8722 76.4755 70.9395 75.8108 69.2905C75.4616 68.438 75.608 67.6304 76.2164 66.89C76.9487 66.0262 77.681 65.1513 78.3457 64.2314C80.768 60.9447 82.6833 57.3888 84.0352 53.5412C84.8239 51.3089 85.3985 49.0317 85.8153 46.6985C86.2322 44.4101 86.3899 42.0993 86.3899 39.5417Z" fill="white"/>
<path d="M217.451 27.3707C216.426 28.5822 215.423 29.76 214.454 30.893C213.677 30.4331 212.967 29.9507 212.189 29.5917C210.939 29.0084 209.587 28.9524 208.224 28.9972C207.401 29.0309 206.601 29.143 205.858 29.5132C205.159 29.861 204.697 30.3658 204.686 31.1846C204.675 32.0484 205.137 32.6093 205.869 32.9907C206.714 33.4281 207.638 33.5852 208.562 33.6188C210.015 33.6749 211.435 33.8656 212.843 34.1909C214.172 34.505 215.4 35.021 216.459 35.896C217.778 36.9841 218.352 38.4424 218.499 40.0913C218.837 44.0399 216.245 46.6424 213.091 47.6183C210.826 48.3138 208.539 48.3138 206.241 48.1006C203.244 47.809 200.675 46.5526 198.546 44.4101C198.501 44.3652 198.467 44.2979 198.388 44.1745C199.278 42.9069 200.168 41.6169 201.07 40.3269C201.723 40.7756 202.32 41.2467 202.974 41.6281C204.664 42.6041 206.489 43.1874 208.449 43.3444C209.587 43.4342 210.68 43.2771 211.682 42.6938C212.64 42.1217 213.091 41.2019 212.899 40.2596C212.775 39.5978 212.347 39.2052 211.761 38.9584C210.826 38.577 209.835 38.4424 208.832 38.3751C206.782 38.2517 204.765 37.9039 202.895 37.0065C201.374 36.2774 200.146 35.2566 199.571 33.6413C198.749 31.3529 199.042 29.2104 200.653 27.3258C201.667 26.1368 202.996 25.4749 204.461 24.9926C206.613 24.2859 208.821 24.2522 211.029 24.4766C213.372 24.7121 215.479 25.5759 217.271 27.1463C217.316 27.1912 217.349 27.2585 217.44 27.3707" fill="white"/>
<path d="M308.46 29.861H304.314C304.235 28.2457 304.28 26.6864 304.28 25.0487H308.426C308.494 23.1081 308.426 21.2459 308.471 19.3053C310.308 19.0249 312.122 18.8678 314.037 18.6884C314.093 19.4399 314.06 20.1242 314.06 20.8085C314.06 21.4815 314.06 22.1546 314.06 22.8276V25.0038C314.758 25.0599 315.423 25.0262 316.088 25.0262C316.786 25.0262 317.485 25.0262 318.183 25.0262H320.233V29.8722H314.048C314.037 30.1751 314.015 30.4107 314.015 30.635C314.015 33.4843 314.015 36.3447 314.015 39.194C314.015 39.8109 314.015 40.4391 314.262 41.0336C314.702 42.0993 315.524 42.5817 316.628 42.6938C317.439 42.7724 318.194 42.548 318.949 42.29C319.163 42.2227 319.377 42.1554 319.659 42.0656C320.166 43.6361 320.662 45.1505 321.18 46.7209C321 46.8107 320.831 46.9228 320.639 46.9901C318.679 47.7081 316.651 47.8427 314.589 47.6071C312.471 47.3603 310.837 46.3395 309.677 44.5672C309.114 43.7034 308.798 42.7163 308.652 41.7179C308.517 40.8093 308.471 39.867 308.471 38.9472C308.449 36.2101 308.471 33.473 308.471 30.736V29.8722L308.46 29.861Z" fill="white"/>
<path d="M291.133 47.4389H285.635C285.499 46.9005 285.454 26.0583 285.578 25.116C286.074 24.9814 289.443 24.9366 290.704 25.06C290.84 25.8003 290.964 26.5631 291.121 27.4493C291.347 27.1801 291.504 27.023 291.628 26.8548C292.834 25.2619 294.501 24.5664 296.45 24.4542C297.926 24.3645 299.368 24.4766 300.777 25.0151C301.667 25.3516 302.647 25.9237 303.278 26.608C302.455 28.1672 301.622 29.7601 300.788 31.353C300.382 31.095 300.033 30.8594 299.672 30.6687C297.532 29.5582 295.403 29.7152 293.352 30.8706C292.338 31.4427 291.775 32.4186 291.426 33.5067C291.2 34.191 291.133 34.9089 291.133 35.6269C291.144 39.295 291.133 42.9519 291.133 46.62V47.4613" fill="white"/>
<path d="M68.9609 38.5209C68.9159 42.1778 68.5554 44.9373 67.7667 47.6519C66.7865 51.0284 65.2318 54.102 63.1363 56.9064C62.5842 57.6355 61.8519 57.9833 60.9506 57.815C60.0831 57.6467 59.4972 57.1083 59.2268 56.267C59.0015 55.5491 59.2043 54.9097 59.6099 54.3039C60.2971 53.2831 60.9957 52.2735 61.5815 51.2079C62.7081 49.1439 63.4855 46.9564 64.0038 44.6569C64.5783 42.0656 64.691 39.4519 64.4319 36.8495C63.9812 32.3849 62.4152 28.3242 59.7338 24.7009C58.7199 23.3324 59.2043 21.6834 60.7591 21.1562C61.604 20.8757 62.5391 21.1562 63.125 21.9077C64.353 23.4558 65.3219 25.172 66.1894 26.9444C67.3048 29.2216 68.0596 31.6333 68.4765 34.1236C68.7694 35.8511 68.8708 37.6235 68.9722 38.5321" fill="white"/>
<path d="M196.405 47.4388H190.896V24.9365C192.71 24.8804 194.535 24.9253 196.405 24.9141V47.4388Z" fill="white"/>
<path d="M366.966 42.8172H357.829C357.897 43.7707 358.415 44.3652 359.147 44.769C360.218 45.3636 361.378 45.4084 362.538 45.1056C363.203 44.9261 363.823 44.5895 364.521 44.3091C365.028 44.8363 365.603 45.4421 366.2 46.0815C365.862 46.5526 365.299 46.8779 364.713 47.1471C362.685 48.0782 360.589 48.2128 358.471 47.4724C356.86 46.9004 355.722 45.801 355.17 44.2082C354.528 42.3685 354.528 40.5176 355.396 38.7228C356.263 36.928 357.773 35.9857 359.688 35.6155C360.871 35.3912 362.054 35.4697 363.214 35.8175C365.197 36.4008 366.335 37.7581 366.831 39.6875C367.09 40.6859 367.022 41.7066 366.989 42.8172M357.897 40.3045H364.127C364.048 39.4519 363.643 38.8574 362.933 38.4984C361.648 37.8703 360.364 37.9151 359.125 38.6218C358.505 38.9808 358.077 39.5192 357.908 40.2932" fill="white"/>
<path d="M342.687 35.8848H346.146C346.946 38.7228 347.746 41.5833 348.546 44.4101C349.289 41.6057 350.044 38.7564 350.81 35.8848H354.01C352.782 39.8333 351.543 43.7258 350.292 47.6519H346.709C345.391 43.7819 344.05 39.867 342.687 35.8848Z" fill="white"/>
<path d="M330.97 31.1735H333.821V43.4342C333.821 43.5464 333.821 43.6698 333.821 43.7819C333.776 45.1056 334.328 45.4982 335.432 45.3412C335.499 45.3412 335.567 45.3524 335.657 45.3748C335.68 45.487 335.713 45.5992 335.713 45.7001C335.713 46.2498 335.713 46.8107 335.713 47.394C334.497 47.8315 333.347 47.8539 332.232 47.2706C331.477 46.8668 331.105 46.1825 331.004 45.3524C330.97 45.0271 330.959 44.7018 330.959 44.3765C330.959 40.226 330.959 36.0643 330.959 31.9138V31.1847L330.97 31.1735Z" fill="white"/>
<path d="M341.279 47.5734H338.451C338.304 47.0686 338.271 36.6812 338.417 35.8735H341.279V47.5734Z" fill="white"/>
<path d="M190.367 18.722C190.299 16.6355 191.764 15.4464 193.611 15.424C195.572 15.4016 196.935 16.6355 196.969 18.621C197.003 20.427 195.73 21.8853 193.702 21.9189C191.955 21.9414 190.333 20.7635 190.367 18.7107" fill="white"/>
<path d="M339.848 34.2246C338.778 34.2246 338.124 33.6077 338.113 32.5869C338.113 31.5549 338.823 30.8482 339.859 30.8594C340.851 30.8594 341.594 31.5885 341.583 32.5644C341.583 33.5628 340.896 34.2246 339.848 34.2246Z" fill="white"/>
<path d="M328.559 45.8908C328.559 46.8219 327.816 47.551 326.869 47.5622C325.9 47.5622 325.134 46.7994 325.157 45.8347C325.179 44.8813 325.9 44.1633 326.847 44.1633C327.827 44.1633 328.559 44.9037 328.559 45.8908Z" fill="white"/>
</g>
</g>
</svg>
