<svg width="119" height="96" viewBox="0 0 119 96" fill="none" xmlns="http://www.w3.org/2000/svg">
<path d="M109.083 7.45146C112.193 41.7898 88.7603 35.8019 85.2566 36.1456L79.936 42.4752L79.7667 40.6059L84.4042 35.0971C83.8496 32.3195 81.1249 26.3697 85.6562 19.4499C90.1862 12.5157 96.3452 12.3376 109.083 7.45146ZM106.309 13.4706C107.668 9.7497 105.617 13.1545 105.617 13.1545C103.678 16.6002 100.772 18.3626 97.623 20.3927C93.5196 23.0355 88.139 26.95 86.5595 31.8135C84.9788 36.6627 85.8876 34.3509 87.207 32.1915C88.5406 30.0309 92.9895 26.7417 95.9329 24.8312C100.021 22.1752 104.024 19.7006 106.309 13.4706Z" fill="white"/>
<path d="M77.1516 20.2663C77.1516 30.0184 69.031 38.0325 58.897 38.0325C48.7629 38.0325 40.6423 30.0184 40.6423 20.2663C40.6423 10.5141 48.7629 2.5 58.897 2.5C69.031 2.5 77.1516 10.5141 77.1516 20.2663ZM58.897 49.7879C62.8154 49.7879 66.5475 48.9744 69.9262 47.5361H77.3455C86.2112 47.5361 93.294 54.5369 93.294 63.0506V65.3024C93.294 67.5955 91.371 69.5578 88.8758 69.5578H28.9181C26.4229 69.5578 24.4999 67.5955 24.4999 65.3024V63.0506C24.4999 54.5369 31.5827 47.5361 40.4484 47.5361H47.8695C51.2564 48.9731 54.9752 49.7879 58.897 49.7879Z" stroke="white" stroke-width="5"/>
<path d="M5.07569 93.3037H2.25048L1.71338 94.915H0L2.91113 87.0947H4.40429L7.33154 94.915H5.61817L5.07569 93.3037ZM2.68554 91.9985H4.64062L3.65771 89.0712L2.68554 91.9985ZM13.3042 88.3999H10.9087V94.915H9.29737V88.3999H6.93408V87.0947H13.3042V88.3999ZM18.9331 91.5258H15.8394V93.6206H19.4703V94.915H14.2281V87.0947H19.4595V88.3999H15.8394V90.2636H18.9331V91.5258ZM26.7749 94.915H25.1636L22.0269 89.7695V94.915H20.4156V87.0947H22.0269L25.169 92.2509V87.0947H26.7749V94.915ZM34.3213 92.31C34.2605 93.1515 33.9489 93.8139 33.3868 94.2973C32.8282 94.7807 32.0905 95.022 31.1739 95.022C30.1713 95.022 29.3817 94.6858 28.8052 94.0127C28.2323 93.3359 27.9458 92.4085 27.9458 91.2304V90.7524C27.9458 90.0004 28.0783 89.338 28.3433 88.7651C28.6083 88.1922 28.986 87.7535 29.4766 87.4492C29.9707 87.1412 30.5437 86.9873 31.1954 86.9873C32.0977 86.9873 32.8246 87.229 33.376 87.7124C33.9275 88.1958 34.2461 88.8743 34.3321 89.748H32.7207C32.6814 89.2431 32.5399 88.8779 32.2964 88.6523C32.0565 88.4231 31.6895 88.3086 31.1954 88.3086C30.6582 88.3086 30.2554 88.5019 29.9869 88.8886C29.7219 89.2718 29.5858 89.868 29.5787 90.6772V91.268C29.5787 92.1131 29.7058 92.7308 29.96 93.1211C30.2178 93.5114 30.6224 93.7065 31.1739 93.7065C31.6716 93.7065 32.0422 93.5937 32.2857 93.3681C32.5328 93.139 32.6742 92.7863 32.71 92.31H34.3213ZM37.0928 94.915H35.4815V87.0947H37.0928V94.915ZM45.0152 91.1821C45.0152 91.9519 44.8791 92.6269 44.607 93.207C44.3348 93.7871 43.9445 94.2347 43.4361 94.5498C42.9312 94.8649 42.3511 95.022 41.6958 95.022C41.0477 95.022 40.4694 94.8667 39.961 94.5551C39.4525 94.2436 39.0586 93.7996 38.7793 93.2231C38.5 92.643 38.3586 91.977 38.355 91.2251V90.8383C38.355 90.0685 38.4929 89.3917 38.7686 88.8081C39.0479 88.2208 39.44 87.7714 39.9449 87.4599C40.4533 87.1448 41.0334 86.9873 41.6851 86.9873C42.3368 86.9873 42.9151 87.1448 43.42 87.4599C43.9284 87.7714 44.3205 88.2208 44.5962 88.8081C44.8755 89.3917 45.0152 90.0667 45.0152 90.833V91.1821ZM43.3824 90.8276C43.3824 90.0076 43.2356 89.3846 42.9419 88.9585C42.6483 88.5324 42.2294 88.3193 41.6851 88.3193C41.1444 88.3193 40.7273 88.5306 40.4336 88.9531C40.14 89.372 39.9914 89.9879 39.9878 90.8007V91.1821C39.9878 91.9806 40.1346 92.6001 40.4283 93.0405C40.7219 93.4809 41.1444 93.7011 41.6958 93.7011C42.2365 93.7011 42.6519 93.4899 42.9419 93.0673C43.232 92.6412 43.3788 92.0218 43.3824 91.2089V90.8276ZM41.9966 85H43.6885L42.2007 86.665H40.9385L41.9966 85ZM52.5455 94.915H50.9341L47.7974 89.7695V94.915H46.1861V87.0947H47.7974L50.9395 92.2509V87.0947H52.5455V94.915ZM61.107 93.3037H58.2818L57.7447 94.915H56.0313L58.9424 87.0947H60.4356L63.3628 94.915H61.6495L61.107 93.3037ZM58.7168 91.9985H60.6719L59.689 89.0712L58.7168 91.9985ZM70.1626 93.9267C69.8726 94.274 69.4626 94.5444 68.9327 94.7378C68.4027 94.928 67.8155 95.022 67.1709 95.022C66.4942 95.022 65.8998 94.8756 65.3877 94.582C64.8793 94.2848 64.4854 93.8551 64.2061 93.2929C63.9304 92.7308 63.7889 92.0701 63.7818 91.311V90.7793C63.7818 89.9987 63.9125 89.3237 64.1739 88.7544C64.4388 88.1814 64.8184 87.7446 65.3125 87.4438C65.8103 87.1394 66.3921 86.9873 67.0581 86.9873C67.9855 86.9873 68.7107 87.2093 69.2334 87.6533C69.7561 88.0937 70.0659 88.7365 70.1626 89.5815H68.5943C68.5227 89.1339 68.3633 88.8063 68.1163 88.5986C67.8728 88.3909 67.5362 88.2871 67.1065 88.2871C66.5586 88.2871 66.1415 88.493 65.855 88.9047C65.5686 89.3165 65.4235 89.9288 65.42 90.7417V91.2412C65.42 92.0612 65.5757 92.6806 65.8873 93.0996C66.1988 93.5185 66.6553 93.728 67.2569 93.728C67.862 93.728 68.2935 93.5991 68.5513 93.3413V91.9931H67.085V90.8061H70.1626V93.9267ZM76.1783 91.5258H73.0845V93.6206H76.7154V94.915H71.4732V87.0947H76.7046V88.3999H73.0845V90.2636H76.1783V91.5258ZM84.0201 94.915H82.4087L79.272 89.7695V94.915H77.6607V87.0947H79.272L82.4141 92.2509V87.0947H84.0201V94.915ZM85.4273 94.915V87.0947H87.8335C88.521 87.0947 89.1351 87.2504 89.6758 87.562C90.2201 87.8699 90.6444 88.3103 90.9488 88.8833C91.2531 89.4526 91.4053 90.1007 91.4053 90.8276V91.1875C91.4053 91.9143 91.2549 92.5607 90.9541 93.1264C90.6569 93.6922 90.2362 94.1308 89.6919 94.4423C89.1477 94.7539 88.5336 94.9114 87.8497 94.915H85.4273ZM87.0386 88.3999V93.6206H87.8174C88.4476 93.6206 88.9292 93.4147 89.2623 93.0029C89.5953 92.5911 89.7653 92.0021 89.7725 91.2358V90.8222C89.7725 90.0273 89.6078 89.4257 89.2784 89.0175C88.9489 88.6058 88.4673 88.3999 87.8335 88.3999H87.0386ZM96.8785 93.3037H94.0533L93.5162 94.915H91.8028L94.7139 87.0947H96.2071L99.1343 94.915H97.4209L96.8785 93.3037ZM94.4883 91.9985H96.4434L95.4605 89.0712L94.4883 91.9985ZM99.8649 94.915V87.0947H102.604C103.553 87.0947 104.273 87.2773 104.763 87.6425C105.254 88.0042 105.499 88.5359 105.499 89.2378C105.499 89.6209 105.401 89.9593 105.204 90.2529C105.007 90.5429 104.733 90.756 104.382 90.8921C104.783 90.9923 105.098 91.1946 105.327 91.499C105.56 91.8033 105.676 92.1757 105.676 92.6162C105.676 93.3681 105.437 93.9375 104.957 94.3242C104.477 94.7109 103.793 94.9078 102.905 94.915H99.8649ZM101.476 91.5097V93.6206H102.857C103.236 93.6206 103.532 93.531 103.743 93.352C103.958 93.1694 104.065 92.9187 104.065 92.6001C104.065 91.8839 103.694 91.5205 102.953 91.5097H101.476ZM101.476 90.3711H102.669C103.481 90.3567 103.888 90.0327 103.888 89.3989C103.888 89.0444 103.784 88.7902 103.576 88.6362C103.372 88.4786 103.048 88.3999 102.604 88.3999H101.476V90.3711ZM108.502 93.6206H111.923V94.915H106.89V87.0947H108.502V93.6206ZM117.557 91.5258H114.464V93.6206H118.094V94.915H112.852V87.0947H118.084V88.3999H114.464V90.2636H117.557V91.5258Z" fill="white"/>
</svg>
