<svg width="19" height="19" viewBox="0 0 19 19" fill="none" xmlns="http://www.w3.org/2000/svg">
<g clip-path="url(#clip0_210_1732)">
<path d="M16.2207 2.78985C14.4286 0.994839 12.042 0.00426252 9.49639 0.00195312C4.26438 0.00195312 0.00431607 4.25817 5.19836e-06 9.48987C-0.00261212 12.0268 0.983191 14.4144 2.77513 16.2096C4.56737 18.0049 6.95097 18.9986 9.48777 18.9986H9.51009V18.9967C14.7045 18.9967 18.9951 14.7394 19 9.50773C19.0025 6.97155 18.0133 4.58533 16.2207 2.78985ZM9.91177 14.5222C9.802 14.6321 9.64835 14.6954 9.49208 14.6954C9.33612 14.6954 9.18246 14.6315 9.0713 14.5216C8.96138 14.4113 8.89825 14.2578 8.89841 14.1014C8.89856 13.9447 8.97062 13.7918 9.08054 13.6825C9.19155 13.5724 9.35836 13.5089 9.50574 13.5077C9.65939 13.5091 9.80639 13.5727 9.9167 13.6833C10.0272 13.7929 10.0884 13.9456 10.0882 14.1022C10.0881 14.2592 10.0229 14.4121 9.91177 14.5222ZM10.0887 11.7278C10.0884 12.0553 9.82201 12.3207 9.49408 12.3207C9.16691 12.3204 8.90056 12.0545 8.90072 11.7267L8.9115 5.1964C8.91165 4.86985 9.06449 4.60415 9.50763 4.60311C9.66517 4.60392 9.8115 4.6652 9.92255 4.77716C10.0346 4.8894 10.0948 5.03843 10.0947 5.19717L10.0887 11.7278Z" fill="#3BC1CD"/>
</g>
<defs>
<clipPath id="clip0_210_1732">
<rect width="19" height="19" fill="white"/>
</clipPath>
</defs>
</svg>
