<svg width="472" height="319" viewBox="0 0 472 319" fill="none" xmlns="http://www.w3.org/2000/svg">
<path d="M471.971 232.723C471.971 233.166 471.971 233.609 471.949 234.052C471.949 234.495 471.926 234.938 471.892 235.381C471.869 235.857 471.835 236.323 471.801 236.811C471.733 237.777 471.631 238.742 471.495 239.707C471.438 240.094 471.381 240.48 471.325 240.866C471.268 241.241 471.2 241.604 471.132 241.967C471.075 242.274 471.018 242.581 470.95 242.899C470.893 243.228 470.814 243.569 470.735 243.898C470.666 244.227 470.576 244.557 470.508 244.886C470.167 246.272 469.759 247.646 469.282 249.009C469.18 249.292 469.078 249.599 468.976 249.894C468.862 250.224 468.737 250.553 468.601 250.882C468.465 251.212 468.34 251.53 468.204 251.859C468.068 252.188 467.932 252.518 467.796 252.836C467.364 253.812 466.899 254.789 466.411 255.766C465.753 257.049 465.027 258.332 464.232 259.593C464.04 259.911 463.847 260.218 463.631 260.536C463.211 261.194 462.769 261.842 462.303 262.489C461.872 263.091 461.43 263.681 460.976 264.272C460.681 248.168 456.879 235.733 449.538 226.307C442.332 217.062 431.722 210.793 417.425 207.42C408.925 205.399 399.11 204.399 387.933 204.399H387.524C352.779 204.399 336.688 182.061 333.238 161.119C330.867 146.776 333.874 129.968 343.689 115.522C347.286 110.196 351.825 105.188 357.352 100.747C357.851 101.781 358.373 102.791 358.906 103.791C359.167 104.29 359.439 104.801 359.723 105.301C359.814 105.483 359.916 105.665 360.018 105.846C360.472 106.675 360.937 107.482 361.403 108.288C362.265 109.776 363.173 111.229 364.115 112.672C376.585 131.728 393.935 147.559 414.463 157.496C427.024 163.584 438.258 171.601 447.382 180.789C448.142 181.55 448.891 182.322 449.628 183.106C451.092 184.662 452.488 186.263 453.827 187.876C454.508 188.682 455.155 189.488 455.79 190.317C456.743 191.555 457.662 192.804 458.536 194.054C459.705 195.734 460.817 197.426 461.85 199.153C468.318 209.907 471.971 221.378 471.971 232.7V232.723Z" fill="#C7F2F2"/>
<path d="M458.922 266.782C458.048 267.816 457.106 268.826 456.13 269.837C455.71 270.269 455.29 270.689 454.848 271.12C454.269 271.699 453.668 272.256 453.044 272.824C423.472 299.694 300.898 309.665 207.543 308.938C206.93 308.938 206.318 308.938 205.716 308.938C204.241 308.938 202.788 308.904 201.336 308.881C200.871 308.881 200.394 308.881 199.952 308.859C198.828 308.859 197.705 308.824 196.593 308.802C189.921 308.688 183.43 308.518 177.177 308.302C174.431 308.2 171.719 308.098 169.064 307.973C190.851 295.742 201.71 283.999 203.186 271.12C205.535 250.69 184.009 227.976 149.354 196.359C143.237 190.772 136.713 184.923 129.848 178.756C122.426 172.09 114.744 165.197 106.642 157.815C86.9885 139.905 76.0042 122.893 73.7915 107.05C73.7688 106.971 73.7574 106.88 73.7461 106.789C73.905 106.755 74.0525 106.732 74.2113 106.721C76.4695 106.392 78.7276 106.244 80.9971 106.301C112.384 107.062 152.531 102.462 193.086 47.4505C233.653 -7.5499 280.189 0.399778 280.189 0.399778C296.348 1.78529 313.301 9.54191 324.875 20.7509C337.005 32.5051 340.024 46.224 343.961 62.0325C344.279 63.3158 344.608 64.5991 344.937 65.871C345.766 69.0282 346.639 72.1854 347.57 75.3084C348.092 77.0914 348.636 78.8517 349.226 80.612C349.51 81.5092 349.816 82.395 350.123 83.2922C350.293 83.7919 350.463 84.2689 350.634 84.7686C350.872 85.4613 351.121 86.1427 351.371 86.8128C351.621 87.5055 351.87 88.1869 352.143 88.857C352.404 89.5384 352.653 90.2198 352.937 90.9012C353.754 92.934 354.605 94.9441 355.513 96.9316C355.785 97.5562 356.08 98.1808 356.364 98.7941L356.421 98.919C351.019 103.223 346.322 108.197 342.418 113.774C341.544 115.034 340.705 116.317 339.922 117.635C331.82 131.081 328.71 146.64 331.161 161.449C333.272 174.225 339.263 185.196 348.489 193.168C358.543 201.856 372.012 206.444 387.49 206.444H387.887C399.189 206.444 409.05 207.477 417.526 209.556C431.041 212.861 441.072 218.834 447.869 227.556C455.302 237.096 458.967 249.929 458.888 266.748L458.922 266.782Z" fill="#C7F2F2"/>
<path d="M201.143 270.881C199.714 283.328 188.741 294.798 166.613 306.973C166.114 307.245 165.66 307.518 165.206 307.79C163.913 307.734 162.619 307.654 161.359 307.586C160.372 307.529 159.408 307.484 158.432 307.427C157.785 307.382 157.138 307.348 156.491 307.302C154.994 307.211 153.53 307.12 152.077 307.018C151.476 306.973 150.886 306.939 150.284 306.893C150.114 306.893 149.944 306.871 149.785 306.859C148.673 306.78 147.561 306.689 146.483 306.609C145.825 306.553 145.178 306.507 144.531 306.45C143.136 306.337 141.763 306.223 140.401 306.098C137.428 305.826 134.58 305.553 131.845 305.258C131.198 305.19 130.563 305.11 129.927 305.042C129.269 304.974 128.622 304.895 127.975 304.815C126.693 304.656 125.434 304.508 124.22 304.338C95.556 300.522 64.589 299.239 39.9765 282.261C20.3796 268.735 6.43368 243.432 1.74722 220.821C-4.28959 191.725 5.78688 161.21 24.7257 138.814C25.1342 138.315 25.5654 137.826 25.9966 137.327C26.6547 136.566 27.3356 135.816 28.0391 135.044C29.0036 133.988 30.0022 132.943 31.0462 131.887C31.3639 131.569 31.6816 131.24 32.0107 130.922C32.8958 130.047 33.7922 129.173 34.7227 128.321C36.1411 127.003 37.6049 125.697 39.1141 124.414C39.6021 124.017 40.0787 123.596 40.578 123.21C40.7595 123.051 40.9524 122.904 41.1453 122.745C41.7127 122.279 42.3028 121.825 42.8815 121.371C43.2673 121.064 43.6758 120.757 44.0616 120.462C44.5949 120.065 45.1283 119.656 45.6843 119.27C46.1495 118.94 46.6148 118.611 47.08 118.293C48.1013 117.577 49.1225 116.907 50.1778 116.249C50.6998 115.919 51.2332 115.59 51.7551 115.272C51.7892 115.249 51.8119 115.238 51.8346 115.215C52.3338 114.92 52.8445 114.613 53.3438 114.329C53.8771 114.023 54.4104 113.716 54.9551 113.432C56.0217 112.842 57.1111 112.285 58.2231 111.763C58.7678 111.502 59.3125 111.252 59.8685 111.002C60.4245 110.752 60.9805 110.514 61.5366 110.286C62.0926 110.048 62.6486 109.832 63.2046 109.616C64.328 109.196 65.4514 108.799 66.5748 108.458C67.1422 108.288 67.7095 108.117 68.2769 107.958C68.7535 107.822 69.2188 107.697 69.7067 107.584C69.8655 107.527 70.0244 107.504 70.1946 107.47C70.6712 107.356 71.1478 107.254 71.6244 107.163C71.6471 107.141 71.6698 107.141 71.6925 107.141C71.7492 107.606 71.8286 108.072 71.9081 108.526C74.552 124.516 85.6952 141.517 105.235 159.302C113.337 166.695 121.02 173.589 128.441 180.266C134.92 186.081 141.093 191.612 146.88 196.892C181.683 228.589 203.367 251.166 201.109 270.859L201.143 270.881Z" fill="#C7F2F2"/>
<path d="M201.143 270.882C200.394 277.446 196.979 283.738 190.681 290.007C185.041 295.617 177.076 301.216 166.613 306.974C166.114 307.246 165.66 307.519 165.206 307.791C163.913 307.735 162.619 307.655 161.359 307.587C160.372 307.53 159.408 307.485 158.432 307.428C157.785 307.383 157.138 307.348 156.491 307.303C154.994 307.212 153.53 307.121 152.077 307.019C151.476 306.974 150.886 306.94 150.284 306.894C150.114 306.894 149.944 306.871 149.785 306.86C148.673 306.781 147.561 306.69 146.483 306.61C145.825 306.553 145.178 306.508 144.531 306.451C143.136 306.338 141.763 306.224 140.401 306.099C137.428 305.827 134.58 305.554 131.845 305.259C131.198 305.191 130.563 305.111 129.927 305.043C129.269 304.975 128.622 304.895 127.975 304.816C126.693 304.657 125.434 304.509 124.22 304.339C100.708 301.204 75.6527 299.785 53.809 289.995C49.0204 287.849 44.402 285.305 39.9765 282.262C20.3796 268.736 6.43368 243.433 1.74722 220.822C-4.28959 191.726 5.78688 161.211 24.7257 138.815C25.1342 138.316 25.5654 137.827 25.9966 137.328C26.6547 136.567 27.3356 135.817 28.0391 135.045C29.0036 133.989 30.0022 132.944 31.0462 131.888C31.3639 131.57 31.6816 131.24 32.0107 130.922C32.8958 130.048 33.7922 129.173 34.7227 128.322C36.1411 127.004 37.6049 125.698 39.1141 124.415C39.6021 124.018 40.0787 123.597 40.5779 123.211C40.7595 123.052 40.9524 122.905 41.1453 122.746C41.7127 122.28 42.3028 121.826 42.8815 121.371C43.2673 121.065 43.6758 120.758 44.0616 120.463C44.5949 120.065 45.1283 119.657 45.6843 119.27C46.1495 118.941 46.6148 118.612 47.08 118.294C48.1013 117.578 49.1225 116.897 50.1778 116.25C50.6998 115.92 51.2331 115.591 51.7551 115.273C51.7892 115.25 51.8119 115.239 51.8346 115.216C52.3338 114.921 52.8445 114.614 53.3438 114.33C53.8771 114.024 54.4104 113.717 54.9551 113.433C56.0217 112.843 57.1111 112.275 58.2231 111.764C58.7678 111.502 59.3125 111.253 59.8685 111.003C60.4245 110.753 60.9805 110.514 61.5366 110.287C62.0926 110.049 62.6486 109.833 63.2046 109.617C64.3167 109.186 65.4514 108.788 66.5748 108.459C67.1422 108.289 67.7095 108.118 68.2769 107.959C68.7535 107.823 69.2187 107.698 69.7067 107.584C69.8655 107.528 70.0244 107.505 70.1946 107.471C70.6712 107.357 71.1478 107.255 71.6244 107.164C71.6471 107.142 71.6698 107.142 71.6925 107.142C72.362 106.994 73.0428 106.88 73.7237 106.778C73.8825 106.744 74.03 106.721 74.1889 106.71C74.0414 106.812 73.9166 106.926 73.7691 107.039C73.1449 107.528 72.5208 108.016 71.9194 108.538C56.6118 121.406 45.1396 143.154 54.331 179.767C66.6656 228.885 103.669 206.955 146.892 196.905C181.694 228.601 203.379 251.178 201.121 270.871L201.143 270.882Z" fill="#AFE8E6"/>
<path d="M458.923 266.782C458.05 267.816 457.108 268.826 456.132 269.837C455.712 270.269 455.292 270.689 454.85 271.121C454.271 271.7 453.67 272.256 453.045 272.824C445.602 279.593 432.257 285.282 414.964 290.007C363.594 304.044 277.388 309.483 207.545 308.938C206.932 308.938 206.319 308.938 205.718 308.938C204.243 308.938 202.79 308.904 201.338 308.882C200.873 308.882 200.396 308.881 199.953 308.859C198.83 308.859 197.707 308.825 196.595 308.802C189.922 308.688 183.432 308.518 177.179 308.302C174.433 308.2 171.721 308.087 169.066 307.973C179.835 301.931 187.914 296.003 193.531 290.007C199.295 283.863 202.439 277.639 203.187 271.121C205.536 250.69 184.01 227.977 149.355 196.36C176.544 190.352 206.036 189.625 233.292 214.496C299.89 275.254 419.389 262.33 417.562 209.579C431.077 212.883 441.108 218.857 447.905 227.579C455.338 237.119 459.003 249.952 458.923 266.771V266.782Z" fill="#BFEFEF"/>
<path d="M342.452 113.785C339.592 109.538 337.119 104.655 335.144 98.8513C330.492 85.1665 335.269 73.8098 344.948 65.8828C345.777 69.04 346.65 72.1971 347.581 75.3202C348.103 77.1032 348.659 78.8635 349.237 80.6238C349.521 81.521 349.828 82.4068 350.134 83.304C350.304 83.8037 350.474 84.2806 350.645 84.7803C350.883 85.4731 351.133 86.1545 351.382 86.8245C351.632 87.5173 351.881 88.1987 352.154 88.8687C352.415 89.5501 352.664 90.2315 352.948 90.9129C353.765 92.9458 354.616 94.9559 355.524 96.9433C355.796 97.5679 356.091 98.1926 356.375 98.8058L356.432 98.9308C351.03 103.235 346.333 108.209 342.429 113.785H342.452Z" fill="#BFEFEF"/>
<path d="M471.973 232.723C471.973 233.166 471.973 233.609 471.95 234.052C471.95 234.495 471.927 234.938 471.893 235.381C471.871 235.857 471.837 236.323 471.803 236.811C471.735 237.777 471.632 238.742 471.496 239.707C471.44 240.094 471.383 240.48 471.326 240.866C471.269 241.241 471.201 241.604 471.133 241.967C471.076 242.274 471.02 242.581 470.952 242.899C470.895 243.228 470.815 243.569 470.736 243.898C470.668 244.227 470.577 244.557 470.509 244.886C470.169 246.272 469.76 247.646 469.284 249.009C469.181 249.292 469.079 249.599 468.977 249.894C468.864 250.224 468.739 250.553 468.603 250.882C468.466 251.212 468.342 251.53 468.205 251.859C468.069 252.188 467.933 252.518 467.797 252.836C467.377 253.824 466.912 254.789 466.413 255.766C465.754 257.049 465.028 258.332 464.234 259.593C464.041 259.911 463.848 260.218 463.632 260.536C463.213 261.194 462.77 261.842 462.305 262.489C461.874 263.091 461.431 263.681 460.977 264.272C460.682 248.168 456.881 235.733 449.539 226.307C442.333 217.062 431.724 210.793 417.426 207.42C417.108 204.059 416.291 200.561 414.975 196.904C395.616 143.505 362.323 141.256 343.668 115.522C347.265 110.196 351.804 105.188 357.33 100.747C357.83 101.781 358.351 102.791 358.885 103.791C359.146 104.29 359.418 104.801 359.702 105.301C359.793 105.483 359.895 105.665 359.997 105.846C360.451 106.675 360.916 107.482 361.381 108.288C362.244 109.776 363.151 111.229 364.093 112.672C376.564 131.728 393.914 147.559 414.442 157.496C427.003 163.584 438.237 171.601 447.36 180.789C448.121 181.55 448.87 182.322 449.607 183.106C451.071 184.662 452.467 186.263 453.806 187.876C454.487 188.682 455.133 189.488 455.769 190.317C456.722 191.555 457.641 192.804 458.515 194.054C459.684 195.734 460.796 197.426 461.828 199.153C468.296 209.907 471.95 221.378 471.95 232.7L471.973 232.723Z" fill="#BFEFEF"/>
<path d="M446.529 161.778C446.325 161.778 446.121 161.721 445.95 161.596C445.814 161.505 432.345 152.102 386.978 113.33C341.271 74.2747 342.916 20.7052 342.928 20.1715C342.95 19.6037 343.416 19.1607 343.994 19.1835C344.562 19.2062 345.004 19.6831 344.981 20.251C344.959 20.7734 343.381 73.3775 388.306 111.763C433.548 150.421 446.983 159.813 447.119 159.904C447.584 160.233 447.698 160.869 447.38 161.335C447.176 161.63 446.858 161.778 446.529 161.778Z" fill="#D7F8F9"/>
<path d="M383.734 172.806H321.074V169.717H380.648V146.106H383.734V172.806Z" fill="#A6D8DD"/>
<path d="M316.373 174.15L316.373 223.216L261.225 223.216L261.225 220.118L313.284 220.118L313.284 174.15L316.373 174.15Z" fill="#A6D8DD"/>
<path d="M323.546 142.801H296.143V139.712H320.46V42.374H339.149V45.463H323.546V142.801Z" fill="#A6D8DD"/>
<path d="M273.132 127.731H229.887V61.7715H232.973V124.642H273.132V127.731Z" fill="#A6D8DD"/>
<path d="M357.283 67.9837C369.51 67.9837 379.422 58.0637 379.422 45.8268C379.422 33.5899 369.51 23.6699 357.283 23.6699C345.056 23.6699 335.145 33.5899 335.145 45.8268C335.145 58.0637 345.056 67.9837 357.283 67.9837Z" fill="white"/>
<path d="M379.435 45.8268C379.435 33.5843 369.517 23.6699 357.296 23.6699C349.546 23.6699 342.726 27.6675 338.777 33.6979C341.183 37.3547 345.847 40.6822 354.686 41.8974C368.837 43.8394 366.09 57.3425 361.835 67.5181C371.889 65.4171 379.435 56.5134 379.435 45.8268Z" fill="#F8FCFF"/>
<path d="M231.465 64.5315C243.692 64.5315 253.604 54.6116 253.604 42.3747C253.604 30.1377 243.692 20.2178 231.465 20.2178C219.238 20.2178 209.326 30.1377 209.326 42.3747C209.326 54.6116 219.238 64.5315 231.465 64.5315Z" fill="white"/>
<path d="M231.465 20.2178C219.232 20.2178 209.326 30.1435 209.326 42.3747C209.326 48.4164 211.743 53.879 215.658 57.8765C224.305 56.4342 233.598 51.8688 233.292 38.8427C233.11 30.9839 234.54 25.1466 236.549 20.831C234.915 20.4449 233.212 20.2178 231.465 20.2178Z" fill="#F8FCFF"/>
<path d="M255.6 242.442C267.827 242.442 277.738 232.522 277.738 220.285C277.738 208.048 267.827 198.128 255.6 198.128C243.373 198.128 233.461 208.048 233.461 220.285C233.461 232.522 243.373 242.442 255.6 242.442Z" fill="white"/>
<path d="M253.864 219.547C242.505 217.457 239.532 211.12 239.486 205.112C235.764 209.076 233.461 214.402 233.461 220.273C233.461 232.516 243.379 242.43 255.6 242.43C260.479 242.43 264.973 240.829 268.626 238.16C268.899 230.46 266.244 221.818 253.864 219.535V219.547Z" fill="#F8FCFF"/>
<path d="M382.498 148.73C394.725 148.73 404.637 138.81 404.637 126.573C404.637 114.336 394.725 104.416 382.498 104.416C370.271 104.416 360.359 114.336 360.359 126.573C360.359 138.81 370.271 148.73 382.498 148.73Z" fill="white"/>
<path d="M404.649 126.573C404.649 114.33 394.731 104.416 382.51 104.416C372.604 104.416 364.229 110.923 361.393 119.895C370.539 129.492 388.592 119.748 385.37 128.572C383.191 134.545 383.951 142.438 385.154 148.559C396.138 147.253 404.66 137.918 404.66 126.573H404.649Z" fill="#F8FCFF"/>
<path d="M66.8352 239.457C66.6537 239.457 66.4834 239.367 66.3813 239.196C66.2792 239.015 56.4524 221.275 52.7077 205.592C48.9744 189.965 43.3234 157.133 43.2667 156.804C43.2213 156.52 43.4029 156.258 43.6866 156.213C43.9702 156.168 44.2312 156.349 44.2766 156.633C44.3334 156.963 49.973 189.749 53.7063 205.353C57.4169 220.901 67.187 238.526 67.2778 238.697C67.4139 238.946 67.3231 239.253 67.0849 239.401C67.0054 239.446 66.9146 239.469 66.8352 239.469V239.457Z" fill="#334763"/>
<path d="M43.9627 160.745C43.9627 160.745 38.3798 154.862 39.2309 145.209C40.0933 135.556 41.9315 129.378 43.2592 131.82C44.5301 134.17 45.0407 137.123 45.6308 139.701C46.6407 144.164 47.9116 149.229 47.0265 153.817C46.9244 154.317 44.167 160.972 43.9514 160.756L43.9627 160.745Z" fill="#656BDB"/>
<path d="M49.7129 191.045C49.7129 191.045 49.2363 184.924 54.354 179.768C59.4717 174.612 63.5113 171.954 63.1255 174.01C62.7511 175.986 61.639 177.939 60.7539 179.711C59.2107 182.777 57.5426 186.32 54.8306 188.535C54.5356 188.774 49.7243 191.272 49.7129 191.033V191.045Z" fill="#656BDB"/>
<path d="M44.8464 178.939C44.8464 178.939 46.5144 175.339 41.8847 168.638C37.255 161.938 31.1728 155.373 32.9316 160.268C34.6905 165.163 36.1883 172.761 39.2294 176.361C42.2705 179.961 44.8464 178.939 44.8464 178.939Z" fill="#656BDB"/>
<path d="M51.7913 207.5C51.5643 206.876 51.0423 206.41 50.5317 205.99C47.8537 203.764 45.0055 201.742 42.0212 199.948C40.5233 199.051 39.0028 198.211 37.4482 197.438C36.1773 196.802 34.0553 196.303 35.3035 198.608C37.6978 203.026 41.1361 206.944 45.4594 209.499C46.7076 210.237 48.1488 210.873 49.5785 210.623C51.0083 210.374 52.2906 208.874 51.8026 207.489L51.7913 207.5Z" fill="#656BDB"/>
<path d="M59.5539 218.721C59.5539 218.721 59.7241 215.632 63.151 209.578C66.5779 203.525 67.7467 203.911 66.0673 212.02C65.568 214.462 65.3864 216.983 64.4673 219.322C64.1155 220.208 63.5936 221.571 62.561 221.866C60.9269 222.343 59.4745 220.129 59.5539 218.709V218.721Z" fill="#656BDB"/>
<path d="M59.0398 264.34C58.8582 264.34 58.6767 264.238 58.5859 264.067C58.4951 263.908 49.9732 247.725 46.0811 241.184C44.7648 238.969 43.4712 236.755 42.1662 234.529C39.9308 230.702 37.6273 226.749 35.2443 222.922C32.4188 218.391 29.2189 213.246 27.0175 207.738C24.9636 202.605 23.6813 197.131 22.4331 191.839L22.0019 189.999C20.2998 182.788 18.9154 170.273 18.9041 170.148C18.8701 169.864 19.0743 169.614 19.358 169.58C19.6417 169.546 19.8913 169.75 19.9254 170.034C19.9367 170.159 21.3097 182.617 23.0005 189.761L23.4317 191.6C24.6686 196.859 25.9395 202.298 27.9707 207.352C30.1494 212.781 33.3153 217.88 36.1181 222.377C38.501 226.216 40.8159 230.179 43.0513 234.006C44.3449 236.232 45.6385 238.447 46.9548 240.65C50.8583 247.214 59.4029 263.42 59.4937 263.579C59.6298 263.829 59.5277 264.147 59.2781 264.272C59.1986 264.317 59.1192 264.329 59.0398 264.329V264.34Z" fill="#334763"/>
<path d="M19.3478 173.055C16.2273 172.044 16.1138 163.799 16.2046 161.562C16.2613 160.142 16.4656 158.712 16.9762 157.383C17.2485 156.667 17.6797 155.94 18.3946 155.691C19.3932 155.339 20.4485 156.099 21.0726 156.951C21.9463 158.155 22.3889 159.631 22.6953 161.085C23.2059 163.493 23.3875 165.968 23.2513 168.421C23.1945 169.364 23.0924 170.329 22.7066 171.193C22.3208 172.056 21.6059 172.817 20.6981 173.055C20.1988 173.191 19.7563 173.18 19.3591 173.055H19.3478Z" fill="#6C2C77"/>
<path d="M17.2697 184.821C14.308 185.525 10.7336 179.483 9.87122 177.791C9.32654 176.712 8.88399 175.565 8.73648 174.35C8.65705 173.703 8.70244 172.953 9.17903 172.442C9.84852 171.727 11.0173 171.795 11.891 172.136C13.1166 172.624 14.0924 173.498 14.9548 174.441C16.3846 175.986 17.5761 177.723 18.4952 179.608C18.847 180.335 19.1647 181.085 19.2101 181.902C19.2555 182.72 19.0059 183.617 18.3591 184.219C18.0073 184.548 17.6442 184.742 17.2697 184.832V184.821Z" fill="#6C2C77"/>
<path d="M11.8906 199.936C14.1487 197.891 20.1855 201.457 21.7628 202.525C22.7614 203.206 23.7032 204.001 24.4181 204.989C24.8039 205.523 25.1216 206.193 24.9514 206.874C24.7131 207.828 23.6578 208.34 22.7273 208.453C21.4224 208.612 20.1401 208.317 18.9373 207.919C16.9402 207.261 15.0565 206.307 13.3544 205.103C12.6963 204.637 12.0495 204.126 11.6183 203.433C11.1871 202.741 10.9715 201.832 11.2438 201.003C11.3913 200.549 11.6183 200.197 11.9019 199.936H11.8906Z" fill="#6C2C77"/>
<path d="M27.2221 196.961C27.2221 196.961 25.2476 184.435 27.9937 182.709C30.7398 180.982 34.0872 187.342 32.544 191.976C32.0674 193.418 31.2958 194.86 30.3993 196.087C29.8547 196.848 27.5852 199.233 27.2221 196.95V196.961Z" fill="#6C2C77"/>
<path d="M39.2158 221.605C39.159 221.548 39.1023 221.48 39.0456 221.412C38.4442 220.662 38.013 219.799 37.6612 218.913C36.7534 216.631 36.2995 214.155 36.3449 211.702C36.3562 210.793 36.447 209.873 36.8101 209.044C37.9449 206.466 40.4753 207.046 41.8597 209.044C43.1079 210.861 43.7207 213.11 43.5505 215.313C43.3803 217.516 42.4384 219.652 40.9292 221.253C40.5661 221.639 40.0441 222.025 39.5449 221.832C39.42 221.787 39.3179 221.696 39.2158 221.605Z" fill="#6C2C77"/>
<path d="M38.0691 233.95C38.2053 233.45 38.0464 232.905 37.8422 232.417C36.8322 230.054 34.6876 228.249 32.2479 227.488C30.2848 226.874 26.404 226.715 25.6324 229.271C25.326 230.316 25.8707 231.417 26.5515 232.269C28.8891 235.176 33.1216 236.38 36.6393 235.142C37.184 234.949 37.7627 234.665 38.001 234.131C38.0237 234.075 38.0464 234.018 38.0691 233.95Z" fill="#6C2C77"/>
<path d="M52.0138 240.707C51.8096 240.684 51.594 240.559 51.3784 240.332C50.323 239.174 49.4153 236.823 49.1202 235.29C48.6777 233.019 48.9614 230.645 49.9713 228.567C50.5046 227.488 51.401 226.386 52.6152 226.375C53.4095 226.375 54.1471 226.852 54.601 227.499C55.0549 228.147 55.2705 228.93 55.418 229.714C55.7698 231.724 55.6223 233.814 55.0436 235.767C54.7939 236.585 53.489 240.9 52.0252 240.718L52.0138 240.707Z" fill="#6C2C77"/>
<path d="M240.11 36.3555H222.828C220.948 36.3555 219.424 37.8808 219.424 39.7625V47.7803C219.424 49.6619 220.948 51.1873 222.828 51.1873H240.11C241.99 51.1873 243.514 49.6619 243.514 47.7803V39.7625C243.514 37.8808 241.99 36.3555 240.11 36.3555Z" fill="#EA2D44"/>
<path d="M236.4 41.9431H233.302V38.8428H229.637V41.9431H226.539V45.6114H229.637V48.7117H233.302V45.6114H236.4V41.9431Z" fill="white"/>
<path d="M226.403 36.3777L225.529 36.3323C225.529 36.2641 225.904 30.0293 231.838 30.0293C233.563 30.0293 234.948 30.5517 235.969 31.5965C237.784 33.4477 237.739 36.2414 237.739 36.3663L236.865 36.3436C236.865 36.3436 236.899 33.7884 235.333 32.1984C234.482 31.3353 233.314 30.8924 231.838 30.8924C226.721 30.8924 226.414 36.1392 226.403 36.3663V36.3777Z" fill="#619093"/>
<path d="M389.84 120.599H375.156C373.903 120.599 372.887 121.616 372.887 122.87V137.566C372.887 138.82 373.903 139.837 375.156 139.837H389.84C391.093 139.837 392.109 138.82 392.109 137.566V122.87C392.109 121.616 391.093 120.599 389.84 120.599Z" fill="#51D6A6"/>
<path d="M387.64 128.571H384.542V125.471H380.888V128.571H377.779V132.239H380.888V135.34H384.542V132.239H387.64V128.571Z" fill="white"/>
<path d="M387.638 112.547H377.006V120.599H387.638V112.547Z" fill="#C5EF5E"/>
<path d="M387.638 119.349V120.598H377.006V117.771C378.22 118.554 379.979 119.077 382.498 119.077C384.359 119.077 386.095 119.179 387.638 119.349Z" fill="#72CE5B"/>
<path d="M369.187 43.4762L366.68 45.668L364.478 47.5873L362.799 49.0523L361.721 49.9836L356.399 43.8737L352.416 39.2856H352.405L350.623 37.2414L352.223 35.8445L356.115 32.4489L358.09 30.7227L359.633 32.4943L369.187 43.4762Z" fill="#C1EFF7"/>
<path d="M353.902 30.0186L356.114 32.4489L352.222 35.8445L350.123 33.3688L353.902 30.0186Z" fill="#8EB9C1"/>
<path d="M368.144 47.451L365.999 49.234L364.479 47.5873L366.68 45.668L368.144 47.451Z" fill="#8EB9C1"/>
<path d="M369.744 52.1873V57.0139H346.459V51.9829H349.284C349.284 51.9829 348.07 50.6542 347.787 48.1898C347.707 47.4516 347.719 46.5998 347.855 45.6686C348.025 44.5897 348.433 43.6244 348.933 42.7953C350.306 40.524 352.382 39.2861 352.382 39.2861L356.365 43.8742C355.945 44.0332 355.514 44.2263 355.14 44.4988C354.527 44.9077 354.084 45.4982 354.016 46.3273C353.892 47.9399 354.595 49.7797 355.162 50.9494C355.526 51.699 355.821 52.1873 355.821 52.1873H369.71H369.744Z" fill="#B5DCE5"/>
<path d="M348.955 42.7953C350.328 40.524 352.404 39.2861 352.404 39.2861L356.387 43.8742C355.967 44.0332 355.536 44.2263 355.162 44.4988C354.458 44.0559 353.584 43.6471 352.495 43.295C351.111 42.8521 349.931 42.7272 348.943 42.7953H348.955Z" fill="#8EB9C1"/>
<path d="M355.855 52.1864H349.297C349.297 52.1864 349.092 52.1296 348.741 51.9933H349.297C349.297 51.9933 348.083 50.6646 347.799 48.2002C349.172 49.3586 350.84 50.4602 352.497 50.6987C353.586 50.869 354.471 50.9372 355.186 50.9485C355.549 51.6981 355.844 52.1864 355.844 52.1864H355.855Z" fill="#8EB9C1"/>
<path d="M369.756 54.8213H346.471V57.0131H369.756V54.8213Z" fill="#8EB9C1"/>
<path d="M362.799 49.0521L361.721 49.9947L356.399 43.8734L352.416 39.2853L350.635 37.2411L352.235 35.8556L356.138 32.46L358.113 30.7451L359.656 32.5168C358.09 33.1982 356.388 34.4701 356.138 36.8777C355.775 40.5346 360.791 46.724 362.822 49.0748L362.799 49.0521Z" fill="#B5DCE5"/>
<path d="M267.334 211.362L263.68 215.018L260.412 211.748L264.066 208.091L267.334 211.362Z" fill="#6794BF"/>
<path d="M268.24 210.464L264.961 207.182C264.666 206.887 264.178 206.887 263.872 207.182C263.577 207.478 263.577 207.966 263.872 208.273L267.151 211.555C267.446 211.85 267.934 211.85 268.24 211.555C268.535 211.259 268.535 210.771 268.24 210.464Z" fill="#334763"/>
<path d="M246.862 229.657L243.606 232.917C243.311 233.212 242.823 233.212 242.516 232.917C242.221 232.621 242.221 232.133 242.516 231.826L245.784 228.556C245.841 228.635 245.909 228.715 245.977 228.794C246.737 229.555 246.737 229.555 246.862 229.646V229.657Z" fill="#501A57"/>
<path d="M250.175 228.533L249.029 229.68C248.326 230.384 247.191 230.384 246.487 229.68L245.795 228.987C245.092 228.283 245.092 227.147 245.795 226.443L246.93 225.308C247.043 225.512 247.191 225.705 247.361 225.887L249.551 228.079C249.733 228.26 249.948 228.419 250.175 228.544V228.533Z" fill="#63C6F8"/>
<path d="M264.416 217.199C264.416 217.199 262.067 219.55 259.571 222.06L257.914 223.718C253.545 228.079 255.633 225.989 253.375 228.249C252.274 229.362 250.481 229.362 249.369 228.249L247.191 226.069C246.09 224.967 246.09 223.173 247.191 222.06L253.386 215.87L256.802 212.441L258.232 211.01L264.416 217.199Z" fill="#E4EDEF"/>
<path d="M259.571 222.06L258.413 223.218C258.243 223.388 258.062 223.559 257.914 223.718C253.545 228.079 255.633 225.989 253.375 228.249C252.274 229.362 250.481 229.362 249.369 228.249L247.191 226.068C246.09 224.967 246.09 223.172 247.191 222.06L253.386 215.87L259.571 222.06Z" fill="#EA2D44"/>
<path d="M257.962 223.662L256.873 224.752L254.932 222.81C254.637 222.514 254.637 222.026 254.932 221.72C255.227 221.424 255.715 221.424 256.022 221.72L257.962 223.662Z" fill="#B71C4C"/>
<path d="M255.772 225.853L254.682 226.943L252.776 225.035C252.481 224.74 252.481 224.252 252.776 223.945C253.071 223.65 253.559 223.65 253.865 223.945L255.772 225.853Z" fill="#B71C4C"/>
<path d="M266.187 217.165L258.176 209.147C257.881 208.852 257.393 208.852 257.087 209.147C256.791 209.443 256.791 209.931 257.087 210.237L265.098 218.255C265.393 218.551 265.881 218.551 266.187 218.255C266.482 217.96 266.482 217.472 266.187 217.165Z" fill="#E4EDEF"/>
<path opacity="0.17" d="M264.415 217.199C264.415 217.199 262.067 219.55 259.57 222.06L257.913 223.718C253.545 228.079 255.633 225.989 253.374 228.249C252.274 229.362 250.481 229.362 249.369 228.249L248.166 227.045C250.027 226.727 252.308 225.694 254.713 223.116C255.837 221.912 256.563 220.674 256.994 219.482C257.97 216.779 257.494 214.235 256.801 212.441L258.231 211.01L264.415 217.199Z" fill="black"/>
<path d="M332.163 76.2939H262.211C260.27 76.2939 258.697 77.8827 258.697 79.8426V175.656C258.697 177.616 260.27 179.205 262.211 179.205H332.163C334.104 179.205 335.677 177.616 335.677 175.656V79.8426C335.677 77.8827 334.104 76.2939 332.163 76.2939Z" fill="#6AA5FE"/>
<path d="M258.697 101.363V175.656C258.697 177.616 260.27 179.204 262.211 179.204H332.163C334.104 179.204 335.677 177.616 335.677 175.656V160.992L258.697 101.363Z" fill="#527EE9"/>
<path d="M329.769 81.04H264.605C263.812 81.04 263.17 81.689 263.17 82.4895V173.005C263.17 173.805 263.812 174.454 264.605 174.454H329.769C330.562 174.454 331.204 173.805 331.204 173.005V82.4895C331.204 81.689 330.562 81.04 329.769 81.04Z" fill="#F3F4F6"/>
<path d="M303.025 74.3481C303.028 74.2505 303.04 74.1566 303.04 74.0552C303.04 70.7919 300.419 68.1445 297.188 68.1445C293.957 68.1445 291.336 70.7919 291.336 74.0552C291.336 74.1528 291.347 74.2505 291.351 74.3481H282.752V83.3568H311.624V74.3481H303.025Z" fill="#1A55B5"/>
<path d="M282.752 74.3486V83.3573H311.624L282.752 74.3486Z" fill="#2C6BC6"/>
<path d="M298.455 77.1193C300.13 76.4138 300.922 74.4702 300.224 72.7779C299.526 71.0857 297.601 70.2858 295.926 70.9913C294.251 71.6967 293.459 73.6404 294.157 75.3326C294.856 77.0248 296.78 77.8247 298.455 77.1193Z" fill="#527EE9"/>
<path d="M294.864 71.7119C293.582 73.0075 293.582 75.1104 294.864 76.4059C296.147 77.7014 298.229 77.7014 299.511 76.4059L294.864 71.7119Z" fill="#6AA5FE"/>
<g style="mix-blend-mode:multiply">
<path d="M311.624 83.3564H282.752V83.9761H311.624V83.3564Z" fill="#CDE1F9"/>
</g>
<path d="M281.982 95.833H271.033V106.892H281.982V95.833Z" stroke="#1A55B5" stroke-miterlimit="10"/>
<g filter="url(#filter0_d_221_2805)">
<path d="M273.496 101.177L276.842 103.836L283.653 97.208" stroke="#3BC1CD" stroke-width="4" stroke-miterlimit="10"/>
</g>
<path d="M322.921 98.9717H287.238C287.004 98.9717 286.818 98.7802 286.818 98.5474C286.818 98.3108 287.008 98.123 287.238 98.123H322.921C323.155 98.123 323.341 98.3146 323.341 98.5474C323.341 98.784 323.152 98.9717 322.921 98.9717Z" fill="#6AA5FE"/>
<path d="M322.921 100.85H287.238C287.004 100.85 286.818 100.658 286.818 100.425C286.818 100.189 287.008 100.001 287.238 100.001H322.921C323.155 100.001 323.341 100.192 323.341 100.425C323.341 100.662 323.152 100.85 322.921 100.85Z" fill="#6AA5FE"/>
<path d="M322.921 102.728H287.238C287.004 102.728 286.818 102.536 286.818 102.303C286.818 102.067 287.008 101.879 287.238 101.879H322.921C323.155 101.879 323.341 102.07 323.341 102.303C323.341 102.54 323.152 102.728 322.921 102.728Z" fill="#6AA5FE"/>
<path d="M322.921 104.605H287.238C287.004 104.605 286.818 104.413 286.818 104.18C286.818 103.944 287.008 103.756 287.238 103.756H322.921C323.155 103.756 323.341 103.947 323.341 104.18C323.341 104.417 323.152 104.605 322.921 104.605Z" fill="#6AA5FE"/>
<path d="M281.982 113.64H271.033V124.699H281.982V113.64Z" stroke="#1A55B5" stroke-miterlimit="10"/>
<g filter="url(#filter1_d_221_2805)">
<path d="M273.496 118.984L276.842 121.639L283.653 115.015" stroke="#3BC1CD" stroke-width="4" stroke-miterlimit="10"/>
</g>
<path d="M322.921 116.778H287.238C287.004 116.778 286.818 116.587 286.818 116.354C286.818 116.117 287.008 115.93 287.238 115.93H322.921C323.155 115.93 323.341 116.121 323.341 116.354C323.341 116.591 323.152 116.778 322.921 116.778Z" fill="#6AA5FE"/>
<path d="M322.921 118.656H287.238C287.004 118.656 286.818 118.465 286.818 118.232C286.818 117.995 287.008 117.808 287.238 117.808H322.921C323.155 117.808 323.341 117.999 323.341 118.232C323.341 118.469 323.152 118.656 322.921 118.656Z" fill="#6AA5FE"/>
<path d="M322.921 120.534H287.238C287.004 120.534 286.818 120.343 286.818 120.11C286.818 119.873 287.008 119.686 287.238 119.686H322.921C323.155 119.686 323.341 119.877 323.341 120.11C323.341 120.346 323.152 120.534 322.921 120.534Z" fill="#6AA5FE"/>
<path d="M322.921 122.411H287.238C287.004 122.411 286.818 122.22 286.818 121.987C286.818 121.75 287.008 121.562 287.238 121.562H322.921C323.155 121.562 323.341 121.754 323.341 121.987C323.341 122.223 323.152 122.411 322.921 122.411Z" fill="#6AA5FE"/>
<path d="M281.982 131.447H271.033V142.506H281.982V131.447Z" stroke="#1A55B5" stroke-miterlimit="10"/>
<g filter="url(#filter2_d_221_2805)">
<path d="M273.496 136.791L276.842 139.446L283.653 132.822" stroke="#3BC1CD" stroke-width="4" stroke-miterlimit="10"/>
</g>
<path d="M322.921 134.587H287.238C287.004 134.587 286.818 134.395 286.818 134.163C286.818 133.926 287.008 133.738 287.238 133.738H322.921C323.155 133.738 323.341 133.93 323.341 134.163C323.341 134.399 323.152 134.587 322.921 134.587Z" fill="#6AA5FE"/>
<path d="M322.921 136.465H287.238C287.004 136.465 286.818 136.273 286.818 136.041C286.818 135.804 287.008 135.616 287.238 135.616H322.921C323.155 135.616 323.341 135.808 323.341 136.041C323.341 136.277 323.152 136.465 322.921 136.465Z" fill="#6AA5FE"/>
<path d="M322.921 138.343H287.238C287.004 138.343 286.818 138.151 286.818 137.918C286.818 137.682 287.008 137.494 287.238 137.494H322.921C323.155 137.494 323.341 137.686 323.341 137.918C323.341 138.155 323.152 138.343 322.921 138.343Z" fill="#6AA5FE"/>
<path d="M322.921 140.219H287.238C287.004 140.219 286.818 140.027 286.818 139.794C286.818 139.558 287.008 139.37 287.238 139.37H322.921C323.155 139.37 323.341 139.562 323.341 139.794C323.341 140.031 323.152 140.219 322.921 140.219Z" fill="#6AA5FE"/>
<path d="M281.982 149.254H271.033V160.313H281.982V149.254Z" stroke="#1A55B5" stroke-miterlimit="10"/>
<g filter="url(#filter3_d_221_2805)">
<path d="M273.496 154.598L276.842 157.253L283.653 150.629" stroke="#3BC1CD" stroke-width="4" stroke-miterlimit="10"/>
</g>
<path d="M322.921 152.394H287.238C287.004 152.394 286.818 152.202 286.818 151.969C286.818 151.733 287.008 151.545 287.238 151.545H322.921C323.155 151.545 323.341 151.736 323.341 151.969C323.341 152.206 323.152 152.394 322.921 152.394Z" fill="#6AA5FE"/>
<path d="M322.921 154.272H287.238C287.004 154.272 286.818 154.08 286.818 153.847C286.818 153.611 287.008 153.423 287.238 153.423H322.921C323.155 153.423 323.341 153.614 323.341 153.847C323.341 154.084 323.152 154.272 322.921 154.272Z" fill="#6AA5FE"/>
<path d="M322.921 156.149H287.238C287.004 156.149 286.818 155.958 286.818 155.725C286.818 155.489 287.008 155.301 287.238 155.301H322.921C323.155 155.301 323.341 155.492 323.341 155.725C323.341 155.962 323.152 156.149 322.921 156.149Z" fill="#6AA5FE"/>
<path d="M322.921 158.025H287.238C287.004 158.025 286.818 157.834 286.818 157.601C286.818 157.365 287.008 157.177 287.238 157.177H322.921C323.155 157.177 323.341 157.368 323.341 157.601C323.341 157.838 323.152 158.025 322.921 158.025Z" fill="#6AA5FE"/>
<path d="M153.697 297.092H148.791L147.414 234.579H154.909L153.697 297.092Z" fill="#AEC3FF"/>
<path d="M175.02 297.092H127.307V292.778L151.625 290.581L175.02 292.778V297.092Z" fill="#AEC3FF"/>
<path d="M122.672 296.415C122.672 294.246 124.429 292.484 126.597 292.484C128.766 292.484 130.521 294.244 130.521 296.415C130.521 298.587 128.764 300.346 126.597 300.346C124.431 300.346 122.672 298.587 122.672 296.415Z" fill="#AEC3FF"/>
<path d="M175.811 300.047C177.814 299.216 178.765 296.917 177.936 294.911C177.106 292.905 174.809 291.953 172.806 292.784C170.803 293.615 169.852 295.914 170.682 297.92C171.512 299.926 173.808 300.878 175.811 300.047Z" fill="#AEC3FF"/>
<path d="M173.308 238.682H129.017C126.755 238.682 124.922 236.845 124.922 234.581H177.405C177.405 236.845 175.572 238.682 173.31 238.682H173.308Z" fill="#AEC3FF"/>
<path d="M118.012 234.579C114.25 234.579 111.201 231.526 111.201 227.759V173.276C111.201 162.489 118.243 153.744 126.932 153.744H162.505C171.194 153.744 178.236 162.489 178.236 173.276V234.579H118.012Z" fill="#F99746"/>
<path d="M118.715 234.579C116.654 234.579 114.98 232.906 114.98 230.839V173.276C114.98 162.489 122.023 153.744 130.711 153.744H166.284C174.973 153.744 182.015 162.489 182.015 173.276V234.579H118.715Z" fill="#ED7D2B"/>
<path d="M201.154 234.579H115.367C112.982 234.579 111.051 232.645 111.051 230.257C111.051 227.87 112.982 225.936 115.367 225.936H201.154C203.538 225.936 205.47 227.87 205.47 230.257C205.47 232.645 203.538 234.579 201.154 234.579Z" fill="#F99746"/>
<path d="M144.691 86.1229C144.461 85.5804 141.768 79.8134 132.63 82.961C132.63 82.961 137.269 81.7904 138.782 83.4499C138.782 83.4499 134.84 82.1955 132.677 83.9138C130.514 85.6322 130.718 90.5017 131.246 91.9256C131.773 93.3495 134.888 97.4018 136.599 97.193C137.246 97.1145 137.912 96.813 138.489 96.4704C138.322 97.2787 138.188 98.1512 138.106 99.1005C137.335 107.878 143.81 113.686 146.553 111.72C148.312 110.458 150.14 113.586 150.14 113.586L163.242 90.9175C163.242 90.9175 150.746 79.1389 144.691 86.1229Z" fill="#2C3A64"/>
<path d="M169.267 139.511C156.858 145.063 147.527 125.46 148.338 125.261C149.578 123.855 150.858 118.848 149.949 111.641L150.592 111.685L161.384 112.485C161.384 112.485 161.551 115.837 161.924 118.964C162.17 121.019 162.508 122.978 162.946 123.833C163.077 124.087 165.414 124.424 165.42 124.429C165.602 124.627 172.578 138.028 169.267 139.509V139.511Z" fill="#FFB27D"/>
<path d="M248.485 300.03H226.737C226.737 300.03 226.215 296.711 227.352 294.194C228.44 291.778 229.135 291.116 227.952 288.321C229.333 289.747 233.371 290.777 236.514 290.352C236.899 290.978 239.002 294.324 240.288 295.25C241.71 296.272 248.047 295.908 248.485 300.03Z" fill="#233862"/>
<path d="M210.192 299.841H188.444C188.444 299.841 187.922 296.522 189.059 294.004C190.147 291.588 192.268 289.972 192.892 287.185C194.273 288.61 195.078 290.586 198.223 290.163C198.608 290.787 200.711 294.135 201.997 295.061C203.419 296.083 209.756 295.719 210.194 299.841H210.192Z" fill="#233862"/>
<path d="M235.558 128.931L238.092 132.453C238.092 132.453 236.984 133.408 235.218 134.925C234.683 135.376 234.361 135.619 234.361 135.619C232.933 136.82 231.176 138.215 229.27 139.744L229.248 139.771C225.92 142.335 222.131 145.158 218.69 147.338C218.378 147.531 218.07 147.72 217.769 147.902C215.682 149.149 213.754 150.127 212.188 150.659C212.008 150.725 211.851 150.764 211.646 150.811C207.085 152.04 197.876 150.438 188.845 147.677C187.597 147.299 186.368 146.894 185.167 146.509C180.735 145.028 176.556 143.331 173.164 141.598C171.127 140.581 169.347 139.56 168.009 138.565C167.531 138.22 167.077 137.895 166.693 137.54C159.361 131.529 162.809 125.692 164.202 125.683C165.941 125.662 168.383 126.122 171.204 126.847C175.651 128.048 181.129 129.955 186.498 131.943C189.449 133.024 192.378 134.132 195.13 135.096C196.774 135.711 198.344 136.265 199.791 136.762C202.566 137.701 204.868 138.386 206.472 138.634C207.514 138.802 209.449 138.434 211.821 137.785C212.45 137.615 213.115 137.421 213.804 137.214C217.628 136.052 222.218 134.348 226.206 132.762C228.17 131.995 229.997 131.242 231.509 130.615C233.958 129.609 235.56 128.927 235.56 128.927L235.558 128.931Z" fill="#FFB27D"/>
<path d="M135.025 197.57C135.025 197.57 130.147 212.8 141.034 220.025C155.623 229.703 196.076 221.454 200.693 226.398C201.862 227.651 198.327 228.284 196.331 246.181C193.462 271.923 191.139 286.321 191.139 286.321C191.139 286.321 191.637 289.265 194.701 290.783C196.709 291.779 199.259 291.163 199.259 291.163C199.259 291.163 228.971 225.84 226.011 216.777C220.886 201.082 192.509 202.62 159.616 193.347C139.53 187.683 135.024 197.572 135.024 197.572L135.025 197.57Z" fill="#93312C"/>
<path d="M150.422 197.238C164.866 195.9 204.281 195.22 212.804 201.085C223.294 208.303 237.553 290.839 237.553 290.839C237.553 290.839 236.457 291.711 234.071 291.945C231.853 292.163 227.036 290.741 227.036 290.741C227.036 290.741 203.598 253.569 202.189 244.267C200.779 234.967 201.504 226.696 197.54 226.418C193.575 226.14 139.105 232.426 134.454 217.498C130.822 205.837 135.176 194.555 135.176 194.555C135.176 194.555 137.095 198.471 150.42 197.238H150.422Z" fill="#B5453C"/>
<path d="M180.454 149.465C181.348 152.742 182.082 155.678 182.442 157.658C184.105 166.778 185.881 195.605 185.881 195.605C171.129 218.409 129.743 210.554 129.743 210.554C128.838 201.909 132.306 182.682 134.41 165.574C134.927 161.381 135.36 157.318 135.631 153.569C135.866 150.298 136.249 147.395 136.743 144.813C140.244 126.528 149.248 124.519 149.248 124.519C153.459 132.708 166.745 134.911 166.745 134.911C166.909 130.304 165.419 124.434 165.419 124.434C167.102 124.635 172.706 125.485 174.308 126.073C176.2 126.769 191.929 133.951 191.929 133.951C191.929 133.951 192.434 145.523 180.454 149.466V149.465Z" fill="#AEC3FF"/>
<path d="M161.387 112.487C161.387 112.487 161.553 115.838 161.927 118.966C156.009 119.521 152.235 114.516 150.594 111.688L161.387 112.487Z" fill="#ED985F"/>
<path d="M163.717 115.208C163.717 115.208 149.793 117.146 148.722 108.446C147.65 99.7451 145.132 94.1351 153.976 92.5292C162.819 90.9232 164.959 94.0298 166.023 96.8473C167.087 99.6648 167.312 114.48 163.717 115.208Z" fill="#FFB27D"/>
<path d="M165.019 92.0591C162.542 89.7055 160.983 90.4799 160.166 91.3775C152.028 88.1121 147.873 94.9212 147.873 94.9212C147.702 101.279 143.643 105.406 143.643 105.406C143.643 105.406 146.378 106.668 152.055 104.441C153.789 103.761 155.232 102.291 156.403 100.578C154.516 104.849 151.638 108.115 151.638 108.115C158.246 104.016 159.867 93.9202 160.02 92.8549C160.965 93.5169 162.848 94.9747 163.559 96.5432C164.525 98.6737 165.395 103.197 166.704 102.879C166.704 102.879 168.736 95.5885 165.022 92.0573L165.019 92.0591Z" fill="#2C3A64"/>
<path d="M235.557 128.932C235.557 128.932 236.772 127.856 237.481 126.79C238.19 125.725 238.474 124.66 239.823 123.736C241.17 122.813 242.659 120.397 242.873 120.823C243.085 121.25 242.164 123.878 242.235 124.162C242.307 124.446 246.065 125.259 247.485 124.853C248.903 124.446 252.449 123.309 252.378 124.019C252.307 124.729 248.549 128.707 247.342 129.417C246.136 130.127 242.519 129.915 241.1 130.411C239.682 130.909 238.092 132.454 238.092 132.454L235.558 128.932H235.557Z" fill="#FFB27D"/>
<path d="M244.857 125.345C244.857 125.345 248.546 122.361 250.153 122.741L247.505 125.345H244.857Z" fill="#FFB27D"/>
<path d="M248.074 128.471L253.653 124.731C253.653 124.731 252.625 124.341 251.49 124.731C250.355 125.122 248.074 128.471 248.074 128.471Z" fill="#FFB27D"/>
<path d="M166.439 194.835C166.2 194.701 137.903 197.797 134.412 165.571C134.929 161.378 135.362 157.315 135.633 153.566C135.868 150.295 136.251 147.392 136.745 144.81C139.293 144.416 142.347 147.16 143.717 151.234C146.538 159.62 166.364 194.487 166.439 194.835Z" fill="#88A6EA"/>
<path d="M184.106 196.098L182.54 200.146C182.54 200.146 181.135 199.738 178.903 199.081C178.234 198.879 177.855 198.74 177.855 198.74C176.071 198.196 173.945 197.484 171.625 196.717L171.591 196.713C167.63 195.318 163.2 193.676 159.499 191.977C159.168 191.82 158.842 191.665 158.525 191.512C156.343 190.439 154.472 189.356 153.173 188.33C153.02 188.216 152.901 188.105 152.751 187.959C149.235 184.799 145.554 176.197 142.94 167.111C142.576 165.858 142.245 164.605 141.912 163.387C140.735 158.858 139.877 154.426 139.477 150.634C139.217 148.369 139.101 146.319 139.207 144.653C139.235 144.064 139.258 143.505 139.346 142.99C140.381 133.558 147.147 133.268 147.913 134.434C148.879 135.883 149.825 138.183 150.757 140.945C152.177 145.333 153.567 150.971 154.831 156.561C155.534 159.629 156.204 162.691 156.898 165.524C157.281 167.241 157.673 168.859 158.043 170.346C158.77 173.186 159.451 175.494 160.119 176.975C160.547 177.942 161.91 179.364 163.747 181.002C164.232 181.437 164.758 181.889 165.307 182.354C168.364 184.931 172.294 187.854 175.797 190.336C177.509 191.565 179.136 192.688 180.487 193.617C182.664 195.125 184.108 196.098 184.108 196.098H184.106Z" fill="#FFB27D"/>
<path d="M183.736 196.23C183.736 196.23 190.793 194.229 192.473 194.697C194.153 195.164 199.913 198.983 199.104 200.02C198.295 201.056 193.221 199.399 190.887 199.713C188.553 200.027 186.748 201.179 185.067 200.931C183.387 200.682 180.461 199.55 180.461 199.55L183.738 196.23H183.736Z" fill="#FFB27D"/>
<path d="M183.734 196.23C183.734 196.23 187.186 194.455 188.17 193.443C188.294 193.316 188.503 193.343 188.599 193.493C188.863 193.909 189.109 194.712 187.897 195.509C186.154 196.658 183.736 196.23 183.736 196.23H183.734Z" fill="#FFB27D"/>
<path d="M147.066 131.406C147.066 131.406 140.487 134.605 138.191 138.986C135.894 143.367 135.612 157.352 139.167 175.535C139.167 175.535 149.889 174.828 156.897 165.523C156.897 165.523 154.294 128.778 147.066 131.406Z" fill="#AEC3FF"/>
<path d="M149.767 121.643C149.767 121.643 147.367 123.138 147.363 125.354C147.363 125.354 150.197 133.109 166.745 134.909C166.745 134.909 151.513 127.408 149.767 121.643Z" fill="#88A6EA"/>
<path d="M162.69 123.488C162.69 123.488 166.865 131.167 166.745 134.909C166.745 134.909 167.029 126.407 166.437 124.432C165.845 122.458 162.324 121.643 162.324 121.643L162.688 123.488H162.69Z" fill="#88A6EA"/>
<path d="M159.621 110.572C159.764 110.572 161.088 111.755 162.836 111.425C164.586 111.093 164.57 109.721 164.57 109.721C164.57 109.721 163.376 109.532 162.326 109.721C161.277 109.91 159.621 110.574 159.621 110.574V110.572Z" fill="white"/>
<path d="M56.4319 95.7842C55.8872 95.7842 55.4333 95.3526 55.3993 94.7961C55.3766 94.2283 55.8078 93.7513 56.3752 93.7172C83.155 92.4907 107.609 88.2433 129.044 81.0773C147.733 74.8311 159.965 66.3817 172.652 50.948C188.47 31.6984 203.131 14.777 222.194 2.5231C222.671 2.21647 223.306 2.35275 223.613 2.82973C223.919 3.30671 223.783 3.94269 223.306 4.24932C204.481 16.3442 189.945 33.1407 174.24 52.254C161.282 68.0171 148.788 76.6482 129.691 83.0306C108.074 90.2535 83.4387 94.5349 56.4659 95.7728H56.4206L56.4319 95.7842Z" fill="#D7F8F9"/>
<path d="M190.681 290.007C185.041 295.618 177.075 301.216 166.613 306.974C166.114 307.247 165.66 307.519 165.206 307.792C163.912 307.735 162.619 307.656 161.359 307.588C160.372 307.531 159.407 307.485 158.431 307.429C157.785 307.383 157.138 307.349 156.491 307.304C154.993 307.213 153.529 307.122 152.077 307.02C151.476 306.974 150.885 306.94 150.284 306.895C150.114 306.895 149.944 306.872 149.785 306.861C148.673 306.781 147.561 306.69 146.483 306.611C145.825 306.554 145.178 306.509 144.531 306.452C143.135 306.338 141.762 306.225 140.4 306.1C137.427 305.827 134.579 305.555 131.845 305.259C131.198 305.191 130.562 305.112 129.927 305.044C129.269 304.976 128.622 304.896 127.975 304.817C126.693 304.658 125.433 304.51 124.219 304.34C100.707 301.205 75.6523 299.786 53.8086 289.996H190.669L190.681 290.007Z" fill="#A6D8DD"/>
<path d="M414.96 290.008C363.591 304.045 277.385 309.485 207.541 308.939C206.929 308.939 206.316 308.939 205.715 308.939C204.239 308.939 202.787 308.905 201.334 308.883C200.869 308.883 200.393 308.883 199.95 308.86C198.827 308.86 197.703 308.826 196.591 308.803C189.919 308.69 183.428 308.519 177.176 308.303C174.43 308.201 171.718 308.088 169.062 307.974C179.831 301.932 187.91 296.004 193.527 290.008H414.972H414.96Z" fill="#A6D8DD"/>
<path d="M116.673 156.191C119.988 156.191 122.675 153.501 122.675 150.183C122.675 146.866 119.988 144.176 116.673 144.176C113.357 144.176 110.67 146.866 110.67 150.183C110.67 153.501 113.357 156.191 116.673 156.191Z" fill="white"/>
<path d="M85.5263 145.208C85.5263 147.196 83.9149 148.809 81.9291 148.809C79.9434 148.809 78.332 147.196 78.332 145.208C78.332 143.221 79.9434 141.608 81.9291 141.608C83.9149 141.608 85.5263 143.221 85.5263 145.208Z" fill="white"/>
<path d="M131.323 167.524C131.323 169.511 129.712 171.124 127.726 171.124C125.74 171.124 124.129 169.511 124.129 167.524C124.129 165.536 125.74 163.924 127.726 163.924C129.712 163.924 131.323 165.536 131.323 167.524Z" fill="white"/>
<path d="M342.747 154.488C342.747 156.475 341.136 158.088 339.15 158.088C337.164 158.088 335.553 156.475 335.553 154.488C335.553 152.5 337.164 150.888 339.15 150.888C341.136 150.888 342.747 152.5 342.747 154.488Z" fill="white"/>
<path d="M344.701 138.77C344.701 140.053 343.657 141.098 342.375 141.098C341.093 141.098 340.049 140.053 340.049 138.77C340.049 137.486 341.093 136.441 342.375 136.441C343.657 136.441 344.701 137.486 344.701 138.77Z" fill="white"/>
<path d="M378.799 197.233C378.799 198.517 377.755 199.562 376.473 199.562C375.19 199.562 374.146 198.517 374.146 197.233C374.146 195.95 375.19 194.905 376.473 194.905C377.755 194.905 378.799 195.95 378.799 197.233Z" fill="white"/>
<path d="M415.109 214.962C414.462 213.849 414.848 212.429 415.96 211.782C417.072 211.135 418.49 211.521 419.137 212.634C419.784 213.747 419.398 215.166 418.286 215.814C417.174 216.461 415.756 216.075 415.109 214.962Z" fill="white"/>
<path d="M421.828 228.579C420.886 226.955 421.442 224.876 423.065 223.945C424.687 223.014 426.764 223.559 427.694 225.183C428.636 226.807 428.08 228.885 426.457 229.817C424.835 230.759 422.758 230.203 421.828 228.579Z" fill="white"/>
<path d="M247.805 318.989C81.4406 318.989 36.3007 295.855 35.8582 295.617C35.3589 295.344 35.166 294.719 35.4383 294.22C35.7107 293.72 36.3234 293.527 36.8341 293.8C37.288 294.049 84.7654 318.239 261.966 316.876C354.311 316.172 405.17 303.725 431.587 293.402C460.182 282.227 467.025 271.097 467.093 270.995C467.376 270.507 468.012 270.337 468.5 270.632C468.988 270.916 469.158 271.552 468.863 272.04C468.591 272.517 461.793 283.737 432.756 295.162C406.191 305.622 354.992 318.239 261.966 318.943C257.155 318.977 252.423 319 247.805 319V318.989Z" fill="#D7F8F9"/>
<defs>
<filter id="filter0_d_221_2805" x="272.252" y="95.7744" width="14.7949" height="12.7217" filterUnits="userSpaceOnUse" color-interpolation-filters="sRGB">
<feFlood flood-opacity="0" result="BackgroundImageFix"/>
<feColorMatrix in="SourceAlpha" type="matrix" values="0 0 0 0 0 0 0 0 0 0 0 0 0 0 0 0 0 0 127 0" result="hardAlpha"/>
<feOffset dx="2" dy="2"/>
<feColorMatrix type="matrix" values="0 0 0 0 0.952941 0 0 0 0 0.956863 0 0 0 0 0.964706 0 0 0 1 0"/>
<feBlend mode="normal" in2="BackgroundImageFix" result="effect1_dropShadow_221_2805"/>
<feBlend mode="normal" in="SourceGraphic" in2="effect1_dropShadow_221_2805" result="shape"/>
</filter>
<filter id="filter1_d_221_2805" x="272.254" y="113.581" width="14.793" height="12.7168" filterUnits="userSpaceOnUse" color-interpolation-filters="sRGB">
<feFlood flood-opacity="0" result="BackgroundImageFix"/>
<feColorMatrix in="SourceAlpha" type="matrix" values="0 0 0 0 0 0 0 0 0 0 0 0 0 0 0 0 0 0 127 0" result="hardAlpha"/>
<feOffset dx="2" dy="2"/>
<feColorMatrix type="matrix" values="0 0 0 0 0.952941 0 0 0 0 0.956863 0 0 0 0 0.964706 0 0 0 1 0"/>
<feBlend mode="normal" in2="BackgroundImageFix" result="effect1_dropShadow_221_2805"/>
<feBlend mode="normal" in="SourceGraphic" in2="effect1_dropShadow_221_2805" result="shape"/>
</filter>
<filter id="filter2_d_221_2805" x="272.254" y="131.389" width="14.793" height="12.7168" filterUnits="userSpaceOnUse" color-interpolation-filters="sRGB">
<feFlood flood-opacity="0" result="BackgroundImageFix"/>
<feColorMatrix in="SourceAlpha" type="matrix" values="0 0 0 0 0 0 0 0 0 0 0 0 0 0 0 0 0 0 127 0" result="hardAlpha"/>
<feOffset dx="2" dy="2"/>
<feColorMatrix type="matrix" values="0 0 0 0 0.952941 0 0 0 0 0.956863 0 0 0 0 0.964706 0 0 0 1 0"/>
<feBlend mode="normal" in2="BackgroundImageFix" result="effect1_dropShadow_221_2805"/>
<feBlend mode="normal" in="SourceGraphic" in2="effect1_dropShadow_221_2805" result="shape"/>
</filter>
<filter id="filter3_d_221_2805" x="272.254" y="149.195" width="14.793" height="12.7168" filterUnits="userSpaceOnUse" color-interpolation-filters="sRGB">
<feFlood flood-opacity="0" result="BackgroundImageFix"/>
<feColorMatrix in="SourceAlpha" type="matrix" values="0 0 0 0 0 0 0 0 0 0 0 0 0 0 0 0 0 0 127 0" result="hardAlpha"/>
<feOffset dx="2" dy="2"/>
<feColorMatrix type="matrix" values="0 0 0 0 0.952941 0 0 0 0 0.956863 0 0 0 0 0.964706 0 0 0 1 0"/>
<feBlend mode="normal" in2="BackgroundImageFix" result="effect1_dropShadow_221_2805"/>
<feBlend mode="normal" in="SourceGraphic" in2="effect1_dropShadow_221_2805" result="shape"/>
</filter>
</defs>
</svg>
