<svg width="114" height="103" viewBox="0 0 114 103" fill="none" xmlns="http://www.w3.org/2000/svg">
<path d="M80.75 49.75H79.5V43.5C79.5 41.4688 77.7812 39.75 75.75 39.75H73.25C72.7812 39.75 72.3906 39.9062 72 39.9844V38.5C72 36.4688 70.2812 34.75 68.25 34.75H65.75C63.6406 34.75 62 36.4688 62 38.5V49.75H52V38.5C52 36.4688 50.2812 34.75 48.25 34.75H45.75C43.6406 34.75 42 36.4688 42 38.5V39.9844C41.6094 39.9062 41.1406 39.75 40.75 39.75H38.25C36.1406 39.75 34.5 41.4688 34.5 43.5V49.75H33.25C32.5469 49.75 32 50.375 32 51C32 51.7031 32.5469 52.25 33.25 52.25H34.5V58.5C34.5 60.6094 36.1406 62.25 38.25 62.25H40.75C41.1406 62.25 41.6094 62.1719 42 62.0938V63.5C42 65.6094 43.6406 67.25 45.75 67.25H48.25C50.2812 67.25 52 65.6094 52 63.5V52.25H62V63.5C62 65.6094 63.6406 67.25 65.75 67.25H68.25C70.2812 67.25 72 65.6094 72 63.5V62.0938C72.3906 62.1719 72.7812 62.25 73.25 62.25H75.75C77.7812 62.25 79.5 60.6094 79.5 58.5V52.25H80.75C81.375 52.25 82 51.7031 82 51C82 50.375 81.375 49.75 80.75 49.75ZM42 58.5C42 59.2031 41.375 59.75 40.75 59.75H38.25C37.5469 59.75 37 59.2031 37 58.5V43.5C37 42.875 37.5469 42.25 38.25 42.25H40.75C41.375 42.25 42 42.875 42 43.5V58.5ZM49.5 63.5C49.5 64.2031 48.875 64.75 48.25 64.75H45.75C45.0469 64.75 44.5 64.2031 44.5 63.5V38.5C44.5 37.875 45.0469 37.25 45.75 37.25H48.25C48.875 37.25 49.5 37.875 49.5 38.5V63.5ZM69.5 63.5C69.5 64.2031 68.875 64.75 68.25 64.75H65.75C65.0469 64.75 64.5 64.2031 64.5 63.5V38.5C64.5 37.875 65.0469 37.25 65.75 37.25H68.25C68.875 37.25 69.5 37.875 69.5 38.5V63.5ZM77 58.5C77 59.2031 76.375 59.75 75.75 59.75H73.25C72.5469 59.75 72 59.2031 72 58.5V43.5C72 42.875 72.5469 42.25 73.25 42.25H75.75C76.375 42.25 77 42.875 77 43.5V58.5Z" fill="#0081A4"/>
<path d="M80.75 49.75H79.5V43.5C79.5 41.4688 77.7812 39.75 75.75 39.75H73.25C72.7812 39.75 72.3906 39.9062 72 39.9844V38.5C72 36.4688 70.2812 34.75 68.25 34.75H65.75C63.6406 34.75 62 36.4688 62 38.5V49.75H52V38.5C52 36.4688 50.2812 34.75 48.25 34.75H45.75C43.6406 34.75 42 36.4688 42 38.5V39.9844C41.6094 39.9062 41.1406 39.75 40.75 39.75H38.25C36.1406 39.75 34.5 41.4688 34.5 43.5V49.75H33.25C32.5469 49.75 32 50.375 32 51C32 51.7031 32.5469 52.25 33.25 52.25H34.5V58.5C34.5 60.6094 36.1406 62.25 38.25 62.25H40.75C41.1406 62.25 41.6094 62.1719 42 62.0938V63.5C42 65.6094 43.6406 67.25 45.75 67.25H48.25C50.2812 67.25 52 65.6094 52 63.5V52.25H62V63.5C62 65.6094 63.6406 67.25 65.75 67.25H68.25C70.2812 67.25 72 65.6094 72 63.5V62.0938C72.3906 62.1719 72.7812 62.25 73.25 62.25H75.75C77.7812 62.25 79.5 60.6094 79.5 58.5V52.25H80.75C81.375 52.25 82 51.7031 82 51C82 50.375 81.375 49.75 80.75 49.75ZM42 58.5C42 59.2031 41.375 59.75 40.75 59.75H38.25C37.5469 59.75 37 59.2031 37 58.5V43.5C37 42.875 37.5469 42.25 38.25 42.25H40.75C41.375 42.25 42 42.875 42 43.5V58.5ZM49.5 63.5C49.5 64.2031 48.875 64.75 48.25 64.75H45.75C45.0469 64.75 44.5 64.2031 44.5 63.5V38.5C44.5 37.875 45.0469 37.25 45.75 37.25H48.25C48.875 37.25 49.5 37.875 49.5 38.5V63.5ZM69.5 63.5C69.5 64.2031 68.875 64.75 68.25 64.75H65.75C65.0469 64.75 64.5 64.2031 64.5 63.5V38.5C64.5 37.875 65.0469 37.25 65.75 37.25H68.25C68.875 37.25 69.5 37.875 69.5 38.5V63.5ZM77 58.5C77 59.2031 76.375 59.75 75.75 59.75H73.25C72.5469 59.75 72 59.2031 72 58.5V43.5C72 42.875 72.5469 42.25 73.25 42.25H75.75C76.375 42.25 77 42.875 77 43.5V58.5Z" fill="url(#paint0_linear_1_2815)"/>
<path d="M36.6562 96.541V99.9219C36.5234 100.082 36.3184 100.256 36.041 100.443C35.7637 100.627 35.4062 100.785 34.9688 100.918C34.5312 101.051 34.002 101.117 33.3809 101.117C32.8301 101.117 32.3281 101.027 31.875 100.848C31.4219 100.664 31.0312 100.396 30.7031 100.045C30.3789 99.6934 30.1289 99.2637 29.9531 98.7559C29.7773 98.2441 29.6895 97.6602 29.6895 97.0039V96.4707C29.6895 95.8145 29.7734 95.2305 29.9414 94.7188C30.1133 94.207 30.3574 93.7754 30.6738 93.4238C30.9902 93.0723 31.3672 92.8047 31.8047 92.6211C32.2422 92.4375 32.7285 92.3457 33.2637 92.3457C34.0059 92.3457 34.6152 92.4668 35.0918 92.709C35.5684 92.9473 35.9316 93.2793 36.1816 93.7051C36.4355 94.127 36.5918 94.6113 36.6504 95.1582H34.9453C34.9023 94.8691 34.8203 94.6172 34.6992 94.4023C34.5781 94.1875 34.4043 94.0195 34.1777 93.8984C33.9551 93.7773 33.666 93.7168 33.3105 93.7168C33.0176 93.7168 32.7559 93.7773 32.5254 93.8984C32.2988 94.0156 32.1074 94.1895 31.9512 94.4199C31.7949 94.6504 31.6758 94.9355 31.5938 95.2754C31.5117 95.6152 31.4707 96.0098 31.4707 96.459V97.0039C31.4707 97.4492 31.5137 97.8438 31.5996 98.1875C31.6855 98.5273 31.8125 98.8145 31.9805 99.0488C32.1523 99.2793 32.3633 99.4531 32.6133 99.5703C32.8633 99.6875 33.1543 99.7461 33.4863 99.7461C33.7637 99.7461 33.9941 99.7227 34.1777 99.6758C34.3652 99.6289 34.5156 99.5723 34.6289 99.5059C34.7461 99.4355 34.8359 99.3691 34.8984 99.3066V97.7949H33.293V96.541H36.6562Z" fill="#0081A4"/>
<path d="M39.2461 92.4688L41.0273 96.3594L42.8086 92.4688H44.7246L41.918 97.8945V101H40.1367V97.8945L37.3242 92.4688H39.2461Z" fill="#0081A4"/>
<path d="M46.3066 92.4688H47.7949L49.9863 98.7324L52.1777 92.4688H53.666L50.584 101H49.3887L46.3066 92.4688ZM45.5039 92.4688H46.9863L47.2559 98.5742V101H45.5039V92.4688ZM52.9863 92.4688H54.4746V101H52.7168V98.5742L52.9863 92.4688Z" fill="#0081A4"/>
<path d="M59.3379 97.959H57.1641V96.5879H59.3379C59.6738 96.5879 59.9473 96.5332 60.1582 96.4238C60.3691 96.3105 60.5234 96.1543 60.6211 95.9551C60.7188 95.7559 60.7676 95.5312 60.7676 95.2812C60.7676 95.0273 60.7188 94.791 60.6211 94.5723C60.5234 94.3535 60.3691 94.1777 60.1582 94.0449C59.9473 93.9121 59.6738 93.8457 59.3379 93.8457H57.7734V101H56.0156V92.4688H59.3379C60.0059 92.4688 60.5781 92.5898 61.0547 92.832C61.5352 93.0703 61.9023 93.4004 62.1562 93.8223C62.4102 94.2441 62.5371 94.7266 62.5371 95.2695C62.5371 95.8203 62.4102 96.2969 62.1562 96.6992C61.9023 97.1016 61.5352 97.4121 61.0547 97.6309C60.5781 97.8496 60.0059 97.959 59.3379 97.959Z" fill="#0081A4"/>
<path d="M66.2461 93.9277L63.9258 101H62.0566L65.2266 92.4688H66.416L66.2461 93.9277ZM68.1738 101L65.8477 93.9277L65.6602 92.4688H66.8613L70.0488 101H68.1738ZM68.0684 97.8242V99.2012H63.5625V97.8242H68.0684Z" fill="#0081A4"/>
<path d="M75.2812 98.7676C75.2812 98.6152 75.2578 98.4785 75.2109 98.3574C75.168 98.2324 75.0859 98.1191 74.9648 98.0176C74.8438 97.9121 74.6738 97.8086 74.4551 97.707C74.2363 97.6055 73.9531 97.5 73.6055 97.3906C73.2188 97.2656 72.8516 97.125 72.5039 96.9688C72.1602 96.8125 71.8555 96.6309 71.5898 96.4238C71.3281 96.2129 71.1211 95.9688 70.9688 95.6914C70.8203 95.4141 70.7461 95.0918 70.7461 94.7246C70.7461 94.3691 70.8242 94.0469 70.9805 93.7578C71.1367 93.4648 71.3555 93.2148 71.6367 93.0078C71.918 92.7969 72.25 92.6348 72.6328 92.5215C73.0195 92.4082 73.4434 92.3516 73.9043 92.3516C74.5332 92.3516 75.082 92.4648 75.5508 92.6914C76.0195 92.918 76.3828 93.2285 76.6406 93.623C76.9023 94.0176 77.0332 94.4688 77.0332 94.9766H75.2871C75.2871 94.7266 75.2344 94.5078 75.1289 94.3203C75.0273 94.1289 74.8711 93.9785 74.6602 93.8691C74.4531 93.7598 74.1914 93.7051 73.875 93.7051C73.5703 93.7051 73.3164 93.752 73.1133 93.8457C72.9102 93.9355 72.7578 94.0586 72.6562 94.2148C72.5547 94.3672 72.5039 94.5391 72.5039 94.7305C72.5039 94.875 72.5391 95.0059 72.6094 95.123C72.6836 95.2402 72.793 95.3496 72.9375 95.4512C73.082 95.5527 73.2598 95.6484 73.4707 95.7383C73.6816 95.8281 73.9258 95.916 74.2031 96.002C74.668 96.1426 75.0762 96.3008 75.4277 96.4766C75.7832 96.6523 76.0801 96.8496 76.3184 97.0684C76.5566 97.2871 76.7363 97.5352 76.8574 97.8125C76.9785 98.0898 77.0391 98.4043 77.0391 98.7559C77.0391 99.127 76.9668 99.459 76.8223 99.752C76.6777 100.045 76.4688 100.293 76.1953 100.496C75.9219 100.699 75.5957 100.854 75.2168 100.959C74.8379 101.064 74.4141 101.117 73.9453 101.117C73.5234 101.117 73.1074 101.062 72.6973 100.953C72.2871 100.84 71.9141 100.67 71.5781 100.443C71.2461 100.217 70.9805 99.9277 70.7812 99.5762C70.582 99.2246 70.4824 98.8086 70.4824 98.3281H72.2461C72.2461 98.5938 72.2871 98.8184 72.3691 99.002C72.4512 99.1855 72.5664 99.334 72.7148 99.4473C72.8672 99.5605 73.0469 99.6426 73.2539 99.6934C73.4648 99.7441 73.6953 99.7695 73.9453 99.7695C74.25 99.7695 74.5 99.7266 74.6953 99.6406C74.8945 99.5547 75.041 99.4355 75.1348 99.2832C75.2324 99.1309 75.2812 98.959 75.2812 98.7676Z" fill="#0081A4"/>
<path d="M82.6758 98.7676C82.6758 98.6152 82.6523 98.4785 82.6055 98.3574C82.5625 98.2324 82.4805 98.1191 82.3594 98.0176C82.2383 97.9121 82.0684 97.8086 81.8496 97.707C81.6309 97.6055 81.3477 97.5 81 97.3906C80.6133 97.2656 80.2461 97.125 79.8984 96.9688C79.5547 96.8125 79.25 96.6309 78.9844 96.4238C78.7227 96.2129 78.5156 95.9688 78.3633 95.6914C78.2148 95.4141 78.1406 95.0918 78.1406 94.7246C78.1406 94.3691 78.2188 94.0469 78.375 93.7578C78.5312 93.4648 78.75 93.2148 79.0312 93.0078C79.3125 92.7969 79.6445 92.6348 80.0273 92.5215C80.4141 92.4082 80.8379 92.3516 81.2988 92.3516C81.9277 92.3516 82.4766 92.4648 82.9453 92.6914C83.4141 92.918 83.7773 93.2285 84.0352 93.623C84.2969 94.0176 84.4277 94.4688 84.4277 94.9766H82.6816C82.6816 94.7266 82.6289 94.5078 82.5234 94.3203C82.4219 94.1289 82.2656 93.9785 82.0547 93.8691C81.8477 93.7598 81.5859 93.7051 81.2695 93.7051C80.9648 93.7051 80.7109 93.752 80.5078 93.8457C80.3047 93.9355 80.1523 94.0586 80.0508 94.2148C79.9492 94.3672 79.8984 94.5391 79.8984 94.7305C79.8984 94.875 79.9336 95.0059 80.0039 95.123C80.0781 95.2402 80.1875 95.3496 80.332 95.4512C80.4766 95.5527 80.6543 95.6484 80.8652 95.7383C81.0762 95.8281 81.3203 95.916 81.5977 96.002C82.0625 96.1426 82.4707 96.3008 82.8223 96.4766C83.1777 96.6523 83.4746 96.8496 83.7129 97.0684C83.9512 97.2871 84.1309 97.5352 84.252 97.8125C84.373 98.0898 84.4336 98.4043 84.4336 98.7559C84.4336 99.127 84.3613 99.459 84.2168 99.752C84.0723 100.045 83.8633 100.293 83.5898 100.496C83.3164 100.699 82.9902 100.854 82.6113 100.959C82.2324 101.064 81.8086 101.117 81.3398 101.117C80.918 101.117 80.502 101.062 80.0918 100.953C79.6816 100.84 79.3086 100.67 78.9727 100.443C78.6406 100.217 78.375 99.9277 78.1758 99.5762C77.9766 99.2246 77.877 98.8086 77.877 98.3281H79.6406C79.6406 98.5938 79.6816 98.8184 79.7637 99.002C79.8457 99.1855 79.9609 99.334 80.1094 99.4473C80.2617 99.5605 80.4414 99.6426 80.6484 99.6934C80.8594 99.7441 81.0898 99.7695 81.3398 99.7695C81.6445 99.7695 81.8945 99.7266 82.0898 99.6406C82.2891 99.5547 82.4355 99.4355 82.5293 99.2832C82.627 99.1309 82.6758 98.959 82.6758 98.7676Z" fill="#0081A4"/>
<defs>
<linearGradient id="paint0_linear_1_2815" x1="57" y1="31" x2="57" y2="71" gradientUnits="userSpaceOnUse">
<stop stop-color="#3BC1CD"/>
<stop offset="1" stop-color="#0081A4" stop-opacity="0"/>
</linearGradient>
</defs>
</svg>
