<svg width="147" height="147" viewBox="0 0 147 147" fill="none" xmlns="http://www.w3.org/2000/svg">
<path fill-rule="evenodd" clip-rule="evenodd" d="M86.5247 63.7135C87.2831 66.4583 85.6644 69.288 82.9297 70.0454C80.1845 70.8057 77.3521 69.1891 76.5946 66.4528L76.5931 66.4472C76.3254 65.4673 76.3602 64.4751 76.6372 63.5696L76.6421 63.5522C76.6477 63.5323 76.6567 63.4999 76.668 63.4569C76.6908 63.3705 76.7223 63.2441 76.7547 63.0932C76.7861 62.9467 76.8158 62.7894 76.8396 62.6315L67.9493 65.0832L65.4993 56.1946C65.375 56.2964 65.2543 56.403 65.1439 56.5057C65.0309 56.6108 64.9384 56.7025 64.8758 56.7663C64.8447 56.798 64.8215 56.8223 64.8073 56.8373L64.7955 56.8498C64.1661 57.5458 63.3308 58.0923 62.3429 58.3629C59.5987 59.1212 56.768 57.5048 56.0108 54.7695C55.2509 52.0247 56.8686 49.1944 59.6026 48.4357C60.5921 48.159 61.5895 48.2022 62.4824 48.4745L62.5001 48.4796C62.5199 48.4852 62.5523 48.4941 62.5953 48.5054C62.6817 48.5281 62.8082 48.5596 62.9592 48.5919C63.1063 48.6235 63.2642 48.6532 63.4228 48.677L60.973 39.7891L70.8508 37.0651C71.3265 36.9342 71.8927 36.8796 72.4711 37.0584C73.081 37.247 73.5233 37.6393 73.8076 38.0802C74.2994 38.843 74.3226 39.749 74.305 40.2684C74.2844 40.8728 74.1801 41.4624 74.0921 41.8722C74.0466 42.0837 74.0022 42.2623 73.9685 42.3903C73.9516 42.4546 73.9372 42.5067 73.9265 42.5446L73.9134 42.5907L73.9091 42.6054L73.9075 42.6105L73.9067 42.6134C73.9066 42.6138 73.9065 42.6142 72.2443 42.118L73.9067 42.6134L73.9029 42.626L73.8993 42.6377C73.8146 42.9074 73.7971 43.2006 73.8633 43.4984L73.8883 43.5894C74.1332 44.4818 75.059 45.0079 75.9529 44.7604L75.9567 44.7593C76.8511 44.5138 77.3767 43.5871 77.1297 42.6949L77.1281 42.6892C77.0422 42.3747 76.8669 42.1024 76.6303 41.8898L76.6234 41.8837L76.6166 41.8775L77.7892 40.5993C76.6166 41.8775 76.6169 41.8777 76.6166 41.8775L76.6138 41.8749L76.6099 41.8712L76.5987 41.8608L76.5637 41.828C76.5351 41.8009 76.496 41.7635 76.4485 41.717C76.3539 41.6243 76.2241 41.4937 76.0766 41.3354C75.7908 41.0285 75.3987 40.5758 75.071 40.0674C74.7895 39.6308 74.3443 38.8409 74.3751 37.9338C74.393 37.4091 74.5717 36.845 74.9996 36.3701C75.405 35.9203 75.9194 35.6776 76.3947 35.5467C76.395 35.5466 76.3954 35.5465 76.3957 35.5464L86.2719 32.8228L88.994 42.6984C89.1248 43.1742 89.1793 43.7405 89.0002 44.3189C88.8114 44.9288 88.419 45.3708 87.9783 45.6548C87.2157 46.1464 86.31 46.1699 85.7904 46.1524C85.1859 46.1321 84.5963 46.028 84.1864 45.9401C83.9749 45.8948 83.7963 45.8504 83.6682 45.8168C83.604 45.7999 83.5518 45.7855 83.5139 45.7748L83.4678 45.7617L83.4531 45.7574L83.448 45.7559L83.4451 45.755C83.4447 45.7549 83.4443 45.7548 83.9399 44.0925L83.4451 45.755L83.4325 45.7513L83.4208 45.7476C83.1268 45.6554 82.8048 45.6429 82.4791 45.7318C81.5852 45.9777 81.0602 46.9041 81.3071 47.796L81.3081 47.7998C81.5528 48.6914 82.4772 49.2174 83.3703 48.9714C83.6976 48.8792 83.9721 48.7009 84.179 48.4707L84.1851 48.4639L84.1914 48.4571L85.4692 49.6301C84.1914 48.4571 84.1911 48.4574 84.1914 48.4571L84.1925 48.4558L84.1939 48.4543L84.1976 48.4503L84.208 48.4391L84.2408 48.4042C84.2679 48.3755 84.3053 48.3364 84.3519 48.289C84.4446 48.1944 84.5753 48.0646 84.7337 47.9171C85.0406 47.6313 85.4936 47.2393 86.002 46.9116C86.4387 46.6301 87.2285 46.185 88.1354 46.2156C88.6598 46.2333 89.2241 46.4117 89.6992 46.8396C90.1494 47.245 90.3921 47.7595 90.523 48.2349C90.5231 48.2351 90.523 48.2348 90.523 48.2349C90.5231 48.2352 90.5232 48.2357 90.5233 48.236L93.2447 58.109L84.3567 60.56C84.4579 60.6832 84.5638 60.8027 84.6658 60.9122C84.7711 61.0253 84.8631 61.1178 84.9271 61.1804C84.9588 61.2115 84.9832 61.2348 84.9982 61.249L85.011 61.2611C85.7074 61.8903 86.2541 62.7255 86.5247 63.7135ZM83.8401 62.5409C82.6675 63.8191 82.6672 63.8189 82.6669 63.8186L82.6662 63.818L82.6647 63.8165L82.6607 63.8129L82.6495 63.8025L82.6146 63.7697C82.5859 63.7426 82.5468 63.7052 82.4993 63.6587C82.4047 63.566 82.275 63.4354 82.1275 63.277C81.8416 62.9702 81.4496 62.5174 81.1218 62.009C80.8404 61.5725 80.3952 60.7826 80.426 59.8754C80.4438 59.3508 80.6226 58.7866 81.0505 58.3118C81.4559 57.862 81.9702 57.6193 82.4456 57.4883C82.4459 57.4882 82.4462 57.4882 82.4466 57.4881L88.9784 55.6868L87.4512 50.1461C87.3277 50.2476 87.2077 50.3538 87.0979 50.456C86.9847 50.5614 86.8922 50.6534 86.8295 50.7173C86.7983 50.7491 86.775 50.7735 86.7608 50.7885L86.7487 50.8014C86.1133 51.5041 85.2761 52.0403 84.3036 52.3127L84.2987 52.3141C81.5577 53.0733 78.7169 51.4637 77.963 48.7193C77.8744 48.3987 77.8182 48.0767 77.7924 47.7569C77.5041 47.899 77.1982 48.016 76.8767 48.1043C74.1851 48.8486 71.3977 47.309 70.5853 44.6541L70.5737 44.6286L70.5368 44.4937C70.2698 43.5165 70.3028 42.5235 70.5834 41.6175L70.5877 41.6026C70.5933 41.5827 70.6022 41.5503 70.6136 41.5073C70.6363 41.4209 70.6678 41.2945 70.7002 41.1436C70.7317 40.9971 70.7613 40.8398 70.7851 40.682L65.2392 42.2113L67.0391 48.7413L67.0394 48.7423C67.1702 49.2182 67.2247 49.7845 67.0456 50.3629C66.8568 50.9727 66.4644 51.4148 66.0237 51.6988C65.2611 52.1904 64.3554 52.2139 63.8359 52.1964C63.2313 52.176 62.6417 52.072 62.2318 51.9841C62.0203 51.9387 61.8417 51.8944 61.7136 51.8607C61.6494 51.8439 61.5972 51.8295 61.5593 51.8188L61.5132 51.8056L61.4985 51.8014L61.4934 51.7998L61.4914 51.7992L61.4905 51.799C61.4901 51.7989 61.4897 51.7987 61.9853 50.1364L61.4905 51.799L61.4822 51.7965L61.4748 51.7942C61.17 51.7004 60.8471 51.6899 60.536 51.777L60.5311 51.7784C59.6312 52.0276 59.1083 52.9554 59.3543 53.8439C59.6028 54.7418 60.5297 55.2653 61.4199 55.0187L61.4256 55.0171C61.7406 54.931 62.0133 54.7555 62.2262 54.5186L62.2327 54.5114L62.2392 54.5043L63.5164 55.678C62.2392 54.5043 62.2389 54.5046 62.2392 54.5043L62.2455 54.4975L62.2559 54.4863L62.2887 54.4514C62.3158 54.4228 62.3532 54.3838 62.3998 54.3363C62.4925 54.2419 62.6232 54.1123 62.7816 53.965C63.0885 53.6796 63.5415 53.2883 64.0503 52.9611C64.4876 52.6799 65.2773 52.2364 66.1838 52.2677C66.7075 52.2857 67.2707 52.4639 67.7454 52.8904C68.1958 53.2949 68.4396 53.8088 68.5714 54.2846L70.3718 60.8164L76.9053 59.0147C77.381 58.8838 77.9472 58.8292 78.5256 59.008C79.1355 59.1966 79.5778 59.5889 79.862 60.0298C80.3539 60.7926 80.3771 61.6986 80.3594 62.2179C80.3389 62.8224 80.2346 63.412 80.1465 63.8218C80.1011 64.0333 80.0567 64.2119 80.023 64.3399C80.0061 64.4041 79.9917 64.4563 79.981 64.4942L79.9678 64.5403L79.9635 64.555L79.962 64.5601L79.9612 64.563C79.961 64.5634 79.9609 64.5638 78.2988 64.0675L79.9612 64.563L79.9586 64.5718L79.9561 64.5797C79.8625 64.8827 79.8511 65.2065 79.9389 65.5301C80.1886 66.4262 81.1145 66.9483 82.0037 66.702C82.9036 66.4528 83.4265 65.525 83.1805 64.6365L83.179 64.6309C83.093 64.3163 82.9178 64.044 82.6811 63.8315L82.6743 63.8253L82.6669 63.8186L83.8401 62.5409ZM71.7721 40.4098C71.7758 40.4088 71.7785 40.4081 71.7802 40.4077C71.7816 40.4074 71.7824 40.4072 71.7824 40.4072M71.7721 40.4098C71.7758 40.4088 71.7785 40.4081 71.7802 40.4077L71.7721 40.4098ZM80.6443 42.7339C80.9332 42.5916 81.2396 42.4745 81.5617 42.3861L81.5635 42.3856C82.5406 42.1185 83.5336 42.1511 84.4397 42.4313L84.4546 42.4356C84.4745 42.4412 84.5069 42.4502 84.5499 42.4614C84.6363 42.4842 84.7628 42.5156 84.9137 42.548C85.0609 42.5795 85.2188 42.6092 85.3773 42.633L83.8494 37.0896L78.3058 38.6184C78.407 38.7415 78.513 38.8611 78.6149 38.9705C78.7203 39.0836 78.8123 39.1761 78.8762 39.2387C78.908 39.2699 78.9323 39.2931 78.9473 39.3073L78.9602 39.3194C79.6566 39.9487 80.2034 40.784 80.474 41.7722C80.5625 42.0926 80.6186 42.4144 80.6443 42.7339ZM77.3068 38.894C77.3055 38.8945 77.3048 38.8947 77.3048 38.8947L77.3068 38.894ZM85.6517 43.6294C85.6517 43.6294 85.6515 43.6287 85.6512 43.6273L85.6517 43.6294ZM87.1756 49.1468C87.1751 49.1455 87.1749 49.1448 87.1749 49.1447L87.1756 49.1468ZM83.3577 60.8357C83.3564 60.8362 83.3557 60.8364 83.3556 60.8364L83.3577 60.8357ZM63.6971 49.6733C63.6971 49.6733 63.6969 49.6726 63.6967 49.6712L63.6971 49.6733ZM65.2248 55.2C65.2249 55.2 65.2251 55.2007 65.2255 55.2021L65.2248 55.2ZM77.8368 62.3568C77.8368 62.3568 77.8361 62.357 77.8347 62.3573L77.8368 62.3568Z" fill="#3BC1CD"/>
<path fill-rule="evenodd" clip-rule="evenodd" d="M43.2995 50.5174C42.7656 53.8371 42.2159 57.2553 41.0968 59.9242C38.3565 66.4593 35.4131 70.9986 33.4278 74.0603C33.0898 74.5815 32.7796 75.0599 32.5029 75.4981C32.0314 76.2446 31.6944 76.8149 31.468 77.2714C33.2051 77.5503 35.2021 78.3861 36.6254 79.9378C37.4377 80.8234 38.0762 81.9631 38.3014 83.3397C38.5265 84.7161 38.3098 86.1525 37.6942 87.589C37.0844 89.0118 37.1285 89.5782 37.1452 89.6805C37.1712 89.7092 37.2401 89.7763 37.4008 89.8889C37.5615 90.0013 37.7173 90.0958 37.945 90.234C38.0252 90.2827 38.1144 90.3368 38.2159 90.399C38.5508 90.6043 39.0138 90.896 39.4555 91.2764C40.467 92.1475 41.2992 93.4348 41.2992 95.2942C41.2992 97.2076 41.4507 100.533 43.0817 103.123C43.855 104.351 44.9691 105.425 46.6515 106.123C48.3615 106.832 50.8253 107.222 54.38 106.778C60.9724 105.954 66.0201 108.296 69.6036 111.701C72.9182 114.85 74.9633 118.874 76.031 122.11L103.027 119.882V108.077C101.565 97.0192 103.215 90.37 106.075 84.25C106.983 82.3057 108.045 80.3569 109.113 78.3974C109.646 77.4197 110.18 76.4393 110.698 75.4556C112.293 72.4218 113.891 69.0713 115.286 64.8854C117.365 58.6498 115.454 48.2325 109.135 39.189C102.922 30.2972 92.7489 23.2039 78.9534 23.2038C68.6492 23.2038 61.5864 24.8535 56.6796 27.3219C51.8284 29.7623 48.9438 33.0721 47.0792 36.7048C45.1785 40.4077 44.3047 44.5047 43.6145 48.5908C43.5074 49.2251 43.4037 49.8694 43.2995 50.5174ZM54.341 22.6732C60.2009 19.7253 68.1373 18 78.9535 18C94.7443 18 106.397 26.1848 113.401 36.2085C120.299 46.0806 122.995 58.2165 120.223 66.5312C118.708 71.0756 116.976 74.6972 115.303 77.8777C114.701 79.0229 114.125 80.0783 113.575 81.0864C112.56 82.9472 111.633 84.6469 110.789 86.4529C108.338 91.6987 106.838 97.3797 108.208 107.558L108.231 107.73V120.681C108.231 122.937 106.5 124.817 104.251 125.003L75.8251 127.349C73.6337 127.53 71.8052 126.075 71.2282 124.179C70.399 121.455 68.6994 118.019 66.0194 115.473C63.4167 113.001 59.8771 111.335 55.0255 111.941C50.8199 112.467 47.403 112.069 44.6569 110.929C41.8832 109.778 39.966 107.941 38.678 105.896C36.1863 101.938 36.0953 97.2608 36.0953 95.2942C36.0953 95.2518 36.1075 95.2523 36.1075 95.2524C36.1075 95.2525 36.0976 95.2523 36.0598 95.2197C35.9559 95.1302 35.7975 95.0203 35.4958 94.8354C35.4493 94.8068 35.3957 94.7744 35.3368 94.7388C35.0835 94.5855 34.7321 94.3729 34.4165 94.1519C33.5583 93.5511 32.4439 92.5468 32.0632 90.8016C31.7123 89.1932 32.0969 87.4389 32.9111 85.5391C33.2026 84.8589 33.206 84.4258 33.1658 84.1797C33.1255 83.9339 33.0131 83.6982 32.7905 83.4554C32.2822 82.9013 31.3281 82.4736 30.4391 82.3825C30.1287 82.3507 29.6922 82.2786 29.2301 82.0912C28.4231 81.7638 27.534 81.2694 26.8798 80.4399C26.1515 79.5165 25.9256 78.4514 26.0209 77.4408C26.1063 76.5351 26.4445 75.6942 26.7872 74.9975C27.1415 74.2771 27.6053 73.5074 28.1031 72.7193C28.4044 72.2422 28.7324 71.7357 29.0825 71.1951C31.0633 68.1365 33.7499 63.9881 36.2978 57.9119C37.1541 55.8698 37.5852 53.2182 38.126 49.8925C38.2387 49.1992 38.3562 48.4766 38.4833 47.7241C39.1858 43.5651 40.1594 38.7903 42.4496 34.3285C44.7758 29.7966 48.4255 25.649 54.341 22.6732Z" fill="#3BC1CD"/>
</svg>
