<svg width="459" height="311" viewBox="0 0 459 311" fill="none" xmlns="http://www.w3.org/2000/svg">
<path d="M458.743 226.201C458.743 226.631 458.743 227.062 458.721 227.492C458.721 227.922 458.699 228.353 458.666 228.783C458.644 229.247 458.611 229.7 458.578 230.174C458.511 231.113 458.412 232.051 458.28 232.989C458.225 233.364 458.169 233.74 458.114 234.115C458.059 234.479 457.993 234.833 457.927 235.186C457.872 235.484 457.817 235.782 457.75 236.091C457.695 236.411 457.618 236.742 457.541 237.062C457.475 237.382 457.386 237.702 457.32 238.023C456.989 239.369 456.592 240.705 456.129 242.03C456.03 242.305 455.931 242.604 455.831 242.891C455.721 243.211 455.6 243.531 455.467 243.851C455.335 244.171 455.214 244.48 455.081 244.8C454.949 245.12 454.817 245.44 454.684 245.749C454.265 246.699 453.813 247.648 453.339 248.597C452.699 249.845 451.993 251.092 451.221 252.317C451.034 252.626 450.846 252.924 450.636 253.233C450.228 253.874 449.798 254.503 449.346 255.132C448.927 255.717 448.497 256.291 448.056 256.865C447.769 241.213 444.074 229.126 436.938 219.964C429.934 210.979 419.622 204.885 405.725 201.607C397.464 199.642 387.924 198.671 377.06 198.671H376.663C342.891 198.671 327.251 176.958 323.898 156.604C321.593 142.662 324.516 126.325 334.056 112.285C337.553 107.108 341.964 102.24 347.336 97.9236C347.821 98.9281 348.328 99.9105 348.847 100.882C349.1 101.368 349.365 101.864 349.641 102.35C349.729 102.527 349.828 102.703 349.928 102.88C350.369 103.686 350.821 104.469 351.273 105.253C352.111 106.699 352.994 108.112 353.909 109.514C366.03 128.036 382.894 143.424 402.846 153.082C415.056 158.999 425.975 166.792 434.842 175.722C435.581 176.462 436.309 177.212 437.026 177.974C438.449 179.486 439.806 181.043 441.107 182.61C441.769 183.394 442.398 184.177 443.015 184.983C443.942 186.186 444.835 187.401 445.684 188.615C446.82 190.249 447.901 191.893 448.905 193.571C455.192 204.024 458.743 215.173 458.743 226.178V226.201Z" fill="#C7F2F2"/>
<path d="M446.059 259.304C445.21 260.309 444.295 261.291 443.346 262.274C442.938 262.693 442.53 263.102 442.1 263.521C441.537 264.084 440.953 264.625 440.346 265.177C411.604 291.294 292.465 300.985 201.727 300.279C201.131 300.279 200.535 300.279 199.951 300.279C198.517 300.279 197.105 300.246 195.694 300.224C195.241 300.224 194.778 300.224 194.348 300.202C193.256 300.202 192.164 300.169 191.083 300.146C184.598 300.036 178.289 299.87 172.212 299.661C169.543 299.561 166.907 299.462 164.326 299.341C185.502 287.452 196.057 276.039 197.491 263.521C199.774 243.663 178.852 221.586 145.168 190.856C139.223 185.425 132.881 179.74 126.209 173.746C118.996 167.267 111.529 160.566 103.654 153.391C84.5509 135.984 73.8745 119.448 71.7238 104.05C71.7017 103.973 71.6907 103.884 71.6797 103.796C71.8341 103.763 71.9775 103.741 72.1319 103.73C74.3267 103.41 76.5216 103.266 78.7274 103.321C109.235 104.061 148.256 99.5903 187.675 46.1204C227.105 -7.33842 272.336 0.388436 272.336 0.388436C288.042 1.73512 304.52 9.27432 315.77 20.1692C327.56 31.5939 330.494 44.9283 334.321 60.2937C334.63 61.541 334.95 62.7883 335.27 64.0247C336.075 67.0933 336.924 70.162 337.829 73.1975C338.336 74.9306 338.865 76.6415 339.439 78.3525C339.715 79.2245 340.012 80.0855 340.31 80.9575C340.476 81.4432 340.641 81.9068 340.806 82.3925C341.038 83.0658 341.281 83.7281 341.523 84.3794C341.766 85.0527 342.009 85.715 342.273 86.3663C342.527 87.0286 342.77 87.6909 343.045 88.3532C343.84 90.3291 344.667 92.2829 345.549 94.2146C345.814 94.8217 346.101 95.4288 346.376 96.0249L346.431 96.1463C341.181 100.33 336.615 105.165 332.821 110.584C331.972 111.81 331.156 113.057 330.395 114.338C322.52 127.407 319.498 142.53 321.88 156.924C323.932 169.342 329.755 180.005 338.722 187.754C348.494 196.198 361.586 200.658 376.63 200.658H377.016C388.001 200.658 397.585 201.662 405.824 203.682C418.96 206.894 428.71 212.7 435.317 221.178C442.541 230.45 446.103 242.924 446.026 259.271L446.059 259.304Z" fill="#C7F2F2"/>
<path d="M195.506 263.289C194.116 275.388 183.451 286.536 161.943 298.369C161.458 298.634 161.017 298.899 160.576 299.164C159.318 299.109 158.061 299.032 156.837 298.965C155.877 298.91 154.94 298.866 153.991 298.811C153.363 298.767 152.734 298.734 152.105 298.69C150.649 298.601 149.227 298.513 147.815 298.414C147.23 298.369 146.657 298.336 146.072 298.292C145.907 298.292 145.741 298.27 145.587 298.259C144.506 298.182 143.425 298.093 142.377 298.016C141.738 297.961 141.109 297.917 140.48 297.862C139.124 297.751 137.789 297.641 136.466 297.519C133.576 297.255 130.808 296.99 128.15 296.703C127.521 296.636 126.903 296.559 126.286 296.493C125.646 296.427 125.017 296.349 124.389 296.272C123.142 296.118 121.918 295.974 120.738 295.809C92.8777 292.1 62.7787 290.852 38.8561 274.35C19.8084 261.203 6.25336 236.61 1.69824 214.632C-4.16936 186.352 5.62469 156.692 24.0326 134.924C24.4297 134.439 24.8488 133.964 25.2679 133.478C25.9076 132.739 26.5694 132.01 27.2532 131.26C28.1907 130.233 29.1613 129.217 30.176 128.191C30.4848 127.882 30.7936 127.562 31.1135 127.253C31.9738 126.403 32.8451 125.553 33.7495 124.725C35.1282 123.444 36.5509 122.175 38.0178 120.928C38.4921 120.541 38.9553 120.133 39.4406 119.758C39.6171 119.603 39.8046 119.459 39.9921 119.305C40.5436 118.852 41.1171 118.411 41.6796 117.969C42.0546 117.671 42.4516 117.373 42.8266 117.086C43.345 116.7 43.8634 116.303 44.4038 115.927C44.856 115.607 45.3082 115.287 45.7604 114.978C46.7531 114.282 47.7457 113.631 48.7714 112.991C49.2788 112.671 49.7972 112.351 50.3045 112.042C50.3376 112.02 50.3597 112.009 50.3817 111.987C50.867 111.7 51.3633 111.401 51.8486 111.126C52.367 110.827 52.8854 110.529 53.4148 110.253C54.4515 109.679 55.5104 109.139 56.5912 108.631C57.1206 108.377 57.65 108.134 58.1905 107.891C58.7309 107.648 59.2714 107.417 59.8118 107.196C60.3522 106.964 60.8927 106.754 61.4331 106.545C62.525 106.136 63.6169 105.75 64.7088 105.419C65.2603 105.253 65.8118 105.088 66.3632 104.933C66.8265 104.801 67.2787 104.679 67.7529 104.569C67.9073 104.514 68.0617 104.491 68.2272 104.458C68.6904 104.348 69.1536 104.249 69.6169 104.16C69.6389 104.138 69.661 104.138 69.6831 104.138C69.7382 104.591 69.8154 105.043 69.8926 105.485C72.4624 121.027 83.2933 137.551 102.286 154.837C110.161 162.023 117.628 168.724 124.841 175.214C131.139 180.866 137.138 186.242 142.763 191.374C176.59 222.183 197.667 244.127 195.473 263.267L195.506 263.289Z" fill="#C7F2F2"/>
<path d="M195.506 263.289C194.778 269.67 191.458 275.785 185.337 281.878C179.855 287.331 172.112 292.773 161.943 298.369C161.458 298.634 161.017 298.899 160.576 299.164C159.318 299.109 158.061 299.032 156.837 298.965C155.877 298.91 154.94 298.866 153.991 298.811C153.363 298.767 152.734 298.734 152.105 298.69C150.649 298.601 149.227 298.513 147.815 298.414C147.23 298.369 146.657 298.336 146.072 298.292C145.907 298.292 145.741 298.27 145.587 298.259C144.506 298.182 143.425 298.093 142.377 298.016C141.738 297.961 141.109 297.917 140.48 297.862C139.124 297.751 137.789 297.641 136.466 297.519C133.576 297.255 130.808 296.99 128.15 296.703C127.521 296.636 126.903 296.559 126.286 296.493C125.646 296.427 125.017 296.349 124.389 296.272C123.142 296.118 121.918 295.974 120.738 295.809C97.8851 292.762 73.5323 291.382 52.3008 281.867C47.6464 279.781 43.1575 277.308 38.8561 274.35C19.8084 261.203 6.25336 236.61 1.69824 214.632C-4.16936 186.352 5.62469 156.692 24.0326 134.924C24.4297 134.439 24.8488 133.964 25.2679 133.478C25.9076 132.739 26.5694 132.01 27.2532 131.26C28.1907 130.233 29.1613 129.217 30.176 128.191C30.4848 127.882 30.7936 127.562 31.1135 127.253C31.9738 126.403 32.8451 125.553 33.7495 124.725C35.1282 123.444 36.5509 122.175 38.0178 120.928C38.4921 120.541 38.9553 120.133 39.4406 119.758C39.6171 119.603 39.8046 119.46 39.9921 119.305C40.5436 118.852 41.1171 118.411 41.6796 117.969C42.0546 117.671 42.4516 117.373 42.8266 117.086C43.345 116.7 43.8634 116.303 44.4038 115.927C44.856 115.607 45.3082 115.287 45.7604 114.978C46.7531 114.283 47.7457 113.62 48.7714 112.991C49.2788 112.671 49.7972 112.351 50.3045 112.042C50.3376 112.02 50.3597 112.009 50.3817 111.987C50.867 111.7 51.3633 111.401 51.8486 111.126C52.367 110.827 52.8854 110.529 53.4148 110.253C54.4515 109.679 55.5104 109.128 56.5912 108.631C57.1206 108.377 57.65 108.134 58.1905 107.891C58.7309 107.648 59.2714 107.417 59.8118 107.196C60.3522 106.964 60.8927 106.754 61.4331 106.545C62.514 106.125 63.6169 105.739 64.7088 105.419C65.2603 105.253 65.8118 105.088 66.3632 104.933C66.8265 104.801 67.2787 104.679 67.7529 104.569C67.9073 104.514 68.0617 104.491 68.2272 104.458C68.6904 104.348 69.1536 104.249 69.6169 104.16C69.6389 104.138 69.661 104.138 69.6831 104.138C70.3338 103.995 70.9955 103.884 71.6573 103.785C71.8117 103.752 71.9551 103.73 72.1095 103.719C71.9661 103.818 71.8448 103.929 71.7014 104.039C71.0948 104.514 70.4882 104.988 69.9036 105.496C55.0251 118.002 43.8744 139.141 52.8082 174.729C64.7971 222.47 100.764 201.154 142.774 191.386C176.601 222.194 197.678 244.138 195.484 263.278L195.506 263.289Z" fill="#AFE8E6"/>
<path d="M446.059 259.305C445.21 260.309 444.295 261.292 443.346 262.274C442.938 262.693 442.53 263.102 442.1 263.521C441.537 264.084 440.953 264.625 440.346 265.177C433.111 271.756 420.14 277.286 403.332 281.878C353.402 295.522 269.612 300.809 201.726 300.279C201.131 300.279 200.535 300.279 199.951 300.279C198.517 300.279 197.105 300.246 195.693 300.224C195.241 300.224 194.778 300.224 194.348 300.202C193.256 300.202 192.164 300.169 191.083 300.147C184.598 300.036 178.289 299.871 172.212 299.661C169.543 299.562 166.907 299.451 164.326 299.341C174.793 293.468 182.646 287.706 188.105 281.878C193.708 275.906 196.763 269.857 197.491 263.521C199.774 243.663 178.852 221.586 145.168 190.856C171.594 185.016 200.259 184.31 226.752 208.484C291.483 267.539 407.633 254.978 405.857 203.704C418.993 206.916 428.743 212.723 435.35 221.2C442.574 230.472 446.136 242.946 446.059 259.294V259.305Z" fill="#BFEFEF"/>
<path d="M332.854 110.596C330.074 106.467 327.67 101.721 325.751 96.0802C321.229 82.779 325.872 71.7406 335.28 64.0358C336.085 67.1045 336.935 70.1732 337.839 73.2087C338.346 74.9417 338.887 76.6527 339.449 78.3636C339.725 79.2357 340.023 80.0967 340.321 80.9687C340.486 81.4544 340.652 81.918 340.817 82.4037C341.049 83.077 341.291 83.7393 341.534 84.3906C341.777 85.0639 342.019 85.7262 342.284 86.3775C342.538 87.0398 342.78 87.7021 343.056 88.3644C343.85 90.3403 344.677 92.2941 345.56 94.2258C345.824 94.8329 346.111 95.44 346.387 96.0361L346.442 96.1575C341.192 100.341 336.626 105.176 332.832 110.596H332.854Z" fill="#BFEFEF"/>
<path d="M458.743 226.201C458.743 226.631 458.743 227.062 458.721 227.492C458.721 227.922 458.699 228.353 458.666 228.783C458.644 229.247 458.611 229.7 458.577 230.174C458.511 231.113 458.412 232.051 458.28 232.989C458.224 233.364 458.169 233.74 458.114 234.115C458.059 234.479 457.993 234.833 457.927 235.186C457.872 235.484 457.816 235.782 457.75 236.091C457.695 236.411 457.618 236.742 457.541 237.062C457.474 237.382 457.386 237.702 457.32 238.023C456.989 239.369 456.592 240.705 456.129 242.03C456.03 242.305 455.93 242.604 455.831 242.891C455.721 243.211 455.599 243.531 455.467 243.851C455.335 244.171 455.213 244.48 455.081 244.8C454.949 245.12 454.816 245.44 454.684 245.749C454.276 246.71 453.824 247.648 453.338 248.597C452.699 249.845 451.993 251.092 451.221 252.317C451.033 252.626 450.846 252.924 450.636 253.233C450.228 253.874 449.798 254.503 449.346 255.132C448.927 255.717 448.497 256.291 448.055 256.865C447.769 241.213 444.074 229.126 436.938 219.964C429.934 210.979 419.622 204.885 405.725 201.607C405.416 198.34 404.622 194.94 403.343 191.385C384.526 139.483 352.166 137.297 334.034 112.285C337.53 107.108 341.942 102.24 347.314 97.9236C347.799 98.9281 348.306 99.9105 348.825 100.882C349.078 101.368 349.343 101.864 349.619 102.35C349.707 102.527 349.806 102.703 349.905 102.88C350.347 103.686 350.799 104.469 351.251 105.253C352.089 106.699 352.972 108.112 353.887 109.514C366.008 128.036 382.872 143.424 402.824 153.082C415.034 158.999 425.953 166.792 434.82 175.722C435.559 176.462 436.287 177.212 437.004 177.974C438.427 179.486 439.783 181.043 441.085 182.61C441.747 183.394 442.375 184.177 442.993 184.983C443.919 186.186 444.813 187.401 445.662 188.615C446.798 190.249 447.879 191.893 448.883 193.571C455.169 204.024 458.721 215.173 458.721 226.178L458.743 226.201Z" fill="#BFEFEF"/>
<path d="M434.016 157.244C433.817 157.244 433.619 157.189 433.453 157.067C433.321 156.979 420.229 147.839 376.134 110.154C331.708 72.1931 333.307 20.1251 333.318 19.6063C333.34 19.0544 333.792 18.6239 334.355 18.6459C334.906 18.668 335.336 19.1316 335.314 19.6835C335.292 20.1913 333.759 71.321 377.424 108.631C421.398 146.205 434.457 155.334 434.589 155.422C435.041 155.742 435.152 156.361 434.843 156.813C434.644 157.1 434.336 157.244 434.016 157.244Z" fill="#D7F8F9"/>
<path d="M54.8492 93.0998C54.3198 93.0998 53.8786 92.6804 53.8456 92.1395C53.8235 91.5876 54.2426 91.124 54.7941 91.0909C80.8233 89.8987 104.592 85.7704 125.426 78.8052C143.591 72.734 155.481 64.5215 167.812 49.5203C183.187 30.8103 197.436 14.3631 215.966 2.45273C216.429 2.1547 217.047 2.28716 217.344 2.75077C217.642 3.21438 217.51 3.83253 217.047 4.13057C198.749 15.8864 184.62 32.2122 169.356 50.7898C156.76 66.111 144.617 74.5002 126.055 80.7038C105.044 87.7242 81.099 91.8856 54.8823 93.0888H54.8382L54.8492 93.0998Z" fill="#D7F8F9"/>
<path d="M185.337 281.878C179.855 287.331 172.112 292.773 161.943 298.369C161.458 298.634 161.017 298.899 160.576 299.164C159.318 299.109 158.061 299.032 156.837 298.965C155.877 298.91 154.94 298.866 153.991 298.811C153.363 298.767 152.734 298.734 152.105 298.689C150.649 298.601 149.227 298.513 147.815 298.414C147.23 298.369 146.657 298.336 146.072 298.292C145.907 298.292 145.741 298.27 145.587 298.259C144.506 298.182 143.425 298.093 142.377 298.016C141.738 297.961 141.109 297.917 140.48 297.862C139.124 297.751 137.789 297.641 136.466 297.519C133.576 297.254 130.808 296.99 128.15 296.703C127.521 296.636 126.903 296.559 126.286 296.493C125.646 296.427 125.017 296.349 124.389 296.272C123.142 296.118 121.918 295.974 120.738 295.808C97.885 292.762 73.5322 291.382 52.3008 281.867H185.326L185.337 281.878Z" fill="#A6D8DD"/>
<path d="M403.332 281.878C353.402 295.522 269.612 300.809 201.727 300.279C201.131 300.279 200.535 300.279 199.951 300.279C198.517 300.279 197.105 300.246 195.694 300.224C195.241 300.224 194.778 300.224 194.348 300.202C193.256 300.202 192.164 300.169 191.083 300.147C184.598 300.036 178.289 299.871 172.212 299.661C169.543 299.562 166.907 299.451 164.326 299.341C174.793 293.468 182.646 287.706 188.105 281.878H403.343H403.332Z" fill="#A6D8DD"/>
<path d="M113.403 151.813C116.625 151.813 119.237 149.199 119.237 145.974C119.237 142.749 116.625 140.134 113.403 140.134C110.181 140.134 107.568 142.749 107.568 145.974C107.568 149.199 110.181 151.813 113.403 151.813Z" fill="white"/>
<path d="M83.1274 141.139C83.1274 143.071 81.5612 144.638 79.6311 144.638C77.7009 144.638 76.1348 143.071 76.1348 141.139C76.1348 139.207 77.7009 137.64 79.6311 137.64C81.5612 137.64 83.1274 139.207 83.1274 141.139Z" fill="white"/>
<path d="M127.643 162.829C127.643 164.761 126.077 166.328 124.147 166.328C122.217 166.328 120.65 164.761 120.65 162.829C120.65 160.897 122.217 159.33 124.147 159.33C126.077 159.33 127.643 160.897 127.643 162.829Z" fill="white"/>
<path d="M333.141 150.157C333.141 152.089 331.575 153.656 329.645 153.656C327.715 153.656 326.148 152.089 326.148 150.157C326.148 148.225 327.715 146.658 329.645 146.658C331.575 146.658 333.141 148.225 333.141 150.157Z" fill="white"/>
<path d="M335.039 134.88C335.039 136.127 334.024 137.143 332.778 137.143C331.531 137.143 330.517 136.127 330.517 134.88C330.517 133.633 331.531 132.617 332.778 132.617C334.024 132.617 335.039 133.633 335.039 134.88Z" fill="white"/>
<path d="M368.182 191.706C368.182 192.953 367.167 193.968 365.921 193.968C364.675 193.968 363.66 192.953 363.66 191.706C363.66 190.458 364.675 189.443 365.921 189.443C367.167 189.443 368.182 190.458 368.182 191.706Z" fill="white"/>
<path d="M240.859 310.048C79.1575 310.048 35.2829 287.563 34.8527 287.331C34.3674 287.066 34.1799 286.459 34.4446 285.973C34.7093 285.487 35.3049 285.3 35.8012 285.565C36.2424 285.808 82.3891 309.319 254.623 307.995C344.38 307.31 393.813 295.212 419.49 285.178C447.284 274.317 453.934 263.499 454 263.4C454.276 262.925 454.894 262.759 455.368 263.046C455.842 263.322 456.008 263.941 455.721 264.415C455.456 264.879 448.85 275.785 420.626 286.889C394.806 297.056 345.042 309.319 254.623 310.004C249.947 310.037 245.348 310.059 240.859 310.059V310.048Z" fill="#D7F8F9"/>
<path fill-rule="evenodd" clip-rule="evenodd" d="M349.755 280H48.2446C45.3473 280 43 277.651 43 274.751C43 271.851 45.3473 269.502 48.2446 269.502H349.755C352.653 269.502 355 271.851 355 274.751C355 277.651 352.653 280 349.755 280Z" fill="#434F6F"/>
<path d="M242.713 236.01C245.438 230.523 251.996 228.642 258.931 226.654C271.086 223.171 284.867 219.211 285.096 195.742H285.909C285.802 206.553 282.88 214.315 276.963 219.482C271.825 223.968 265.078 225.906 259.12 227.615C252.349 229.554 245.963 231.386 243.411 236.528C241.958 239.452 241.777 243.305 242.869 248.308C246.365 264.376 256.009 261.837 270.602 257.993C276.216 256.514 282.569 254.838 289.397 254.099C301.101 252.834 308.947 254.337 312.715 258.576C313.642 259.619 314.192 260.687 314.512 261.665H313.626C313.33 260.909 312.871 260.088 312.157 259.291C309.686 256.514 303.736 253.524 289.463 255.068C282.683 255.808 276.355 257.475 270.766 258.946C256.255 262.766 245.774 265.526 242.081 248.546C240.932 243.28 241.145 239.181 242.713 236.019V236.01Z" fill="#FEFEFE"/>
<path fill-rule="evenodd" clip-rule="evenodd" d="M324.755 269.502C324.895 268.935 324.977 268.352 324.977 267.744C324.977 263.718 321.718 260.449 317.688 260.449H308.644C304.622 260.449 301.355 263.71 301.355 267.744C301.355 268.352 301.438 268.943 301.577 269.502H324.747H324.755Z" fill="#151D27"/>
<path d="M232.421 228.453H163.946V264.77H232.421V228.453Z" fill="#F2F2F2"/>
<path fill-rule="evenodd" clip-rule="evenodd" d="M135.917 269.502H260.45C262.198 269.502 263.618 268.08 263.618 266.331C263.618 264.581 262.198 263.16 260.45 263.16H135.917C134.169 263.16 132.749 264.581 132.749 266.331C132.749 268.08 134.169 269.502 135.917 269.502Z" fill="#F9FCFD"/>
<path fill-rule="evenodd" clip-rule="evenodd" d="M75.6744 72.1358H331.051C334.81 72.1358 337.896 75.2245 337.896 78.9869V225.816C337.896 229.578 334.81 232.667 331.051 232.667H75.6744C71.8907 232.667 68.8047 229.578 68.8047 225.816V78.9951C68.8047 75.2328 71.8907 72.144 75.6744 72.144V72.1358Z" fill="#F9FCFD"/>
<path fill-rule="evenodd" clip-rule="evenodd" d="M76.0112 76.3499H330.706C332.331 76.3499 333.677 77.7054 333.677 79.3483V225.479C333.677 227.106 332.323 228.453 330.706 228.453H76.0112C74.3697 228.453 73.04 227.097 73.04 225.479V79.3483C73.04 77.7054 74.3697 76.3499 76.0112 76.3499Z" fill="#45BAD7"/>
<path fill-rule="evenodd" clip-rule="evenodd" d="M249.041 93.8226L235.597 101.783C235.597 101.783 227.644 112.059 219.519 145.312C211.385 178.59 210.688 228.453 210.688 228.453H293.058C293.058 228.453 294.7 176.109 299.361 157.174C304.023 138.239 310.039 112.766 307.019 106.046C304.023 99.3264 285.827 87.333 285.827 87.333L249.049 93.8226H249.041Z" fill="#FEFEFE"/>
<path d="M241.605 115.936C241.605 115.936 244.379 118.803 242.959 124.866C242.212 128.045 240.686 133.524 239.176 138.28C237.961 142.133 236.746 145.542 235.934 147.004C233.906 150.676 229.581 148.853 229.581 148.853L230.073 147.588C230.073 147.588 233.315 148.943 234.76 146.323C235.507 144.992 236.672 141.657 237.887 137.87C239.373 133.113 240.883 127.7 241.63 124.545C242.894 119.206 240.62 116.857 240.596 116.857L241.605 115.928V115.936Z" fill="#151D27"/>
<path fill-rule="evenodd" clip-rule="evenodd" d="M213.027 187.519C222.507 189.055 240.194 182.401 245.504 181.317C265.752 186.616 280.28 190.041 296.883 172.232C296.883 172.232 297.581 167.073 297.556 166.999L283.571 107.032C283.571 107.032 271.095 145.353 269.495 148.623C267.894 151.867 267.221 151.752 267.221 151.752C267.221 151.752 264.472 148.056 261.14 147.538C255.173 146.569 251.233 151.933 245.825 151.728L220.488 150.8L228.843 118.048L218.485 150.89L213.036 187.503L213.027 187.519Z" fill="#DBDBDC"/>
<path fill-rule="evenodd" clip-rule="evenodd" d="M235.589 101.783C235.589 101.783 225.609 106.835 219.24 115.148C212.887 123.469 189.012 157.437 187.953 165.036C186.894 172.659 189.89 178.853 194.667 181.153C202.776 185.03 232.462 185.999 243.362 180.118C243.362 180.118 241.72 176.125 242.147 172.946L217.122 156.648C219.018 147.341 231.223 108.133 235.589 101.774V101.783Z" fill="#FEFEFE"/>
<path d="M235.909 117.768C235.909 117.768 232.643 117.793 229.713 122.434C228.112 124.94 225.592 129.647 223.36 134.132C221.201 138.461 219.305 142.56 218.813 144.228C218.05 146.774 222.104 146.684 222.104 146.684L222.129 148.039C222.129 148.039 216.228 148.195 217.508 143.85C218.025 142.117 219.937 137.919 222.145 133.524C224.394 128.99 226.963 124.233 228.564 121.711C231.896 116.438 235.86 116.413 235.885 116.413L235.909 117.768Z" fill="#151D27"/>
<path fill-rule="evenodd" clip-rule="evenodd" d="M236.787 150.003L234.169 127.749L234.308 112.56L239.282 112.692L235.252 101.06L249.041 93.8226L249.353 111.681L236.787 150.003Z" fill="#EDEEEE"/>
<path fill-rule="evenodd" clip-rule="evenodd" d="M279.351 89.0252C276.536 90.8324 262.977 103.048 262.977 103.048L247.235 137.903L236.787 150.011L237.058 137.073L245.323 105.734L250.978 93.4036L279.515 86.8401L279.359 89.0252H279.351Z" fill="#434F6F"/>
<path fill-rule="evenodd" clip-rule="evenodd" d="M217.171 153.067C215.842 152.434 209.99 151.219 206.814 153.946C203.637 156.648 203.793 161.068 203.793 161.068L210.934 161.339L217.171 153.067Z" fill="#FFAC8F"/>
<path fill-rule="evenodd" clip-rule="evenodd" d="M249.583 107.82L236.738 137.804L236.788 150.003L247.236 137.894L256.806 108.363L249.583 107.82Z" fill="#151D27"/>
<path fill-rule="evenodd" clip-rule="evenodd" d="M254.04 75.5613L251.947 90.6435C251.947 90.6435 252.53 97.4534 257.216 97.9956C261.903 98.5378 278.458 84.9425 278.819 82.3056L281.519 61.8839L254.04 75.5695V75.5613Z" fill="#FF9975"/>
<path fill-rule="evenodd" clip-rule="evenodd" d="M249.895 99.1457C249.673 99.5975 249.082 107.738 249.583 107.829C250.059 107.919 256.493 108.593 256.813 108.371C257.125 108.149 264.652 99.3346 263.371 98.5871C261.549 97.5274 252.759 95.3423 249.903 99.1539L249.895 99.1457Z" fill="#151D27"/>
<path fill-rule="evenodd" clip-rule="evenodd" d="M255.139 97.0016C248.943 97.8149 244.601 106.835 243.649 106.424C243.353 106.292 245.496 99.4168 246.333 95.2437C247.17 91.0953 252.685 85.8461 252.505 86.5608C250.929 93.0504 255.115 96.8866 255.139 97.0016Z" fill="#434F6F"/>
<path fill-rule="evenodd" clip-rule="evenodd" d="M286.722 87.9409C282.24 122.59 271.431 153.584 266.54 153.995C261.648 154.381 219.872 150.635 215.456 152.393C207.593 155.548 204.532 164.001 209.194 171.016C209.194 171.016 257.347 181.769 267.237 183.888C277.144 186.008 292.393 175.928 299.353 164.255C306.313 152.574 310.482 119.329 310.548 112.248C310.729 94.8001 286.902 86.4786 286.722 87.9491V87.9409Z" fill="#FEFEFE"/>
<path d="M285.598 88.8691C288.413 90.2656 286.747 95.3423 283.456 101.947C282.06 104.723 280.345 107.878 278.564 111.147C273.672 120.118 268.337 129.951 267.509 136.465L266.154 136.309C267.008 129.548 272.441 119.584 277.374 110.523C279.13 107.303 280.796 104.214 282.241 101.347C285.171 95.4409 286.837 90.9967 284.99 90.1013L285.598 88.8855V88.8691Z" fill="#151D27"/>
<path fill-rule="evenodd" clip-rule="evenodd" d="M282.347 83.9074L293.526 88.7295L268.813 110.145L275.215 112.059L236.787 150.003L247.235 137.894L262.977 103.048L282.347 83.9074Z" fill="#EDEEEE"/>
<path fill-rule="evenodd" clip-rule="evenodd" d="M279.581 76.4649C276.741 84.8768 253.678 96.6402 255.41 97.0016C257.142 97.3631 263.831 103.746 265.005 105.364C266.178 106.966 290.235 86.6758 288.495 84.7782C284.506 80.4491 282.552 79.1429 279.573 76.4567L279.581 76.4649Z" fill="#434F6F"/>
<path fill-rule="evenodd" clip-rule="evenodd" d="M263.273 149.822C265.932 150.947 267.689 154.266 267.689 154.266C267.689 154.266 268.616 157.486 266.942 157.757C265.251 158.028 262.937 153.724 262.937 153.724C262.937 153.724 263.273 156.361 263.363 157.47C263.454 158.554 260.794 158.801 260.162 157.766C259.53 156.706 258.267 153.461 258.267 153.461C258.267 153.461 258.759 157.453 258.135 157.996C257.528 158.513 255.977 158.267 255.476 157.544C255 156.846 254.196 153.551 254.196 153.551C254.196 153.551 254.261 157.404 253.498 157.634C252.751 157.856 251.249 157.766 251.2 155.515C251.175 153.239 250.207 153.264 250.207 153.264L247.818 153.133C247.818 153.133 249.887 150.34 251.963 149.707C254.056 149.099 261.738 149.231 263.273 149.838V149.822Z" fill="#FFAC8F"/>
<path opacity="0.38" fill-rule="evenodd" clip-rule="evenodd" d="M207.347 161.208C206.559 164.337 207.076 167.837 209.194 171.016C209.194 171.016 211.311 171.492 214.709 172.232C214.89 172.273 215.095 172.322 215.276 172.363C221.784 173.809 232.593 176.216 242.804 178.491C253.367 180.832 263.322 183.042 267.245 183.88C276.364 185.843 290.013 177.456 297.564 166.999C298.221 166.095 298.828 165.175 299.37 164.247C306.33 152.566 310.499 119.321 310.565 112.24C310.589 109.94 310.204 107.796 309.506 105.816C308.964 109.11 308.291 112.938 307.544 116.955C305.517 127.667 302.833 139.726 299.911 146.799C298.606 149.978 296.916 153.108 295.02 156.106C288.125 167.065 278.44 175.986 273.623 177.185C270.331 178.023 255.829 176.462 242.089 174.162C230.287 172.174 219.051 169.652 216.006 167.557C215.801 167.426 215.604 167.286 215.423 167.155C212.739 165.175 211.164 163.056 210.244 161.29C209.12 159.129 208.98 157.527 208.98 157.527C208.234 158.677 207.7 159.893 207.355 161.199L207.347 161.208Z" fill="#EDEEEE"/>
<path fill-rule="evenodd" clip-rule="evenodd" d="M266.269 143.152C269.084 143.152 271.357 140.852 271.357 138.034C271.357 135.216 269.084 132.941 266.269 132.941C263.453 132.941 261.155 135.216 261.155 138.034C261.155 140.852 263.453 143.152 266.269 143.152Z" fill="#595757"/>
<path fill-rule="evenodd" clip-rule="evenodd" d="M266.268 140.063C267.368 140.063 268.296 139.159 268.296 138.034C268.296 136.909 267.368 136.005 266.268 136.005C265.169 136.005 264.241 136.933 264.241 138.034C264.241 139.135 265.144 140.063 266.268 140.063Z" fill="#251F1C"/>
<path fill-rule="evenodd" clip-rule="evenodd" d="M221.899 149.214C222.892 149.214 223.68 148.401 223.68 147.432C223.68 146.462 222.892 145.649 221.899 145.649C220.906 145.649 220.118 146.462 220.118 147.432C220.118 148.401 220.931 149.214 221.899 149.214Z" fill="#151D27"/>
<path fill-rule="evenodd" clip-rule="evenodd" d="M230.255 149.781C231.248 149.781 232.036 148.992 232.036 147.998C232.036 147.004 231.248 146.24 230.255 146.24C229.262 146.24 228.474 147.029 228.474 147.998C228.474 148.968 229.286 149.781 230.255 149.781Z" fill="#151D27"/>
<path fill-rule="evenodd" clip-rule="evenodd" d="M245.882 35.1451C244.847 36.2295 243.157 39.4989 242.845 42.8998C242.549 46.2842 243.945 49.0526 243.945 49.0526L250.158 35.0794L245.882 35.1451Z" fill="#151D27"/>
<path fill-rule="evenodd" clip-rule="evenodd" d="M279.623 69.2114C277.029 80.3505 267.484 83.2092 261.533 84.9671C255.591 86.7251 250.158 84.3839 246.826 76.4896C243.469 68.6035 244.125 61.925 243.263 58.5652C242.426 55.2054 241.597 48.7568 244.995 40.7311C250.33 28.1544 265.58 27.4562 274.862 36.7223C281.617 43.4419 282.479 57.0372 279.614 69.2114H279.623Z" fill="#FFAC8F"/>
<path fill-rule="evenodd" clip-rule="evenodd" d="M279.425 61.3417C278.949 60.6188 273.138 56.8812 272.917 52.6424C272.671 48.4036 275.798 42.9491 274.107 38.5953C272.236 33.7486 257.889 42.5383 245.931 38.8171C243.501 38.0531 241.695 36.1802 243.156 33.0257C244.601 29.8959 255.074 27.6369 260.638 26.6676C266.203 25.6982 274.419 28.1298 278.769 32.73C283.119 37.3302 286.09 45.126 285.95 49.7262C285.835 54.3264 280.796 64.1758 280.796 64.1758L279.425 61.3335V61.3417Z" fill="#151D27"/>
<path fill-rule="evenodd" clip-rule="evenodd" d="M283.07 53.201C288.479 53.7185 282.216 68.1928 278.071 65.0794C276.405 63.8143 277.579 58.5652 277.956 57.103C278.523 54.8686 279.738 52.8888 283.07 53.201Z" fill="#FFAC8F"/>
<path fill-rule="evenodd" clip-rule="evenodd" d="M253.654 187.133L280.5 190.764L280.254 194.395L253.383 190.78L253.654 187.133Z" fill="#EDEEEE"/>
<path opacity="0.46" fill-rule="evenodd" clip-rule="evenodd" d="M288.413 179.649C284.851 188.981 272.712 218.99 262.83 221.355C253.933 223.475 224.944 224.148 210.778 224.559C210.712 227.065 210.688 228.461 210.688 228.461H293.058C293.058 228.461 294.092 195.323 296.891 172.24C294.01 175.304 291.211 177.744 288.421 179.658L288.413 179.649Z" fill="#EDEEEE"/>
<path fill-rule="evenodd" clip-rule="evenodd" d="M236.557 61.9743L223.63 54.0717V31.0871C223.63 27.7273 220.905 25 217.573 25H141.596C138.24 25 135.515 27.7273 135.515 31.0871V75.4299C135.515 78.7651 138.24 81.517 141.596 81.517H217.565C220.897 81.517 223.622 78.7651 223.622 75.4299V61.7853L236.549 61.966L236.557 61.9743Z" fill="#C1EDF7"/>
<path fill-rule="evenodd" clip-rule="evenodd" d="M159.801 72.793C170.545 72.793 179.31 64.0197 179.31 53.2503C179.31 42.4808 170.545 33.724 159.801 33.724C149.057 33.724 140.275 42.4973 140.275 53.2503C140.275 64.0033 149.041 72.793 159.801 72.793Z" fill="#FEFEFE"/>
<path fill-rule="evenodd" clip-rule="evenodd" d="M155.696 41.9058H163.879V49.1676H171.127V57.3494H163.879V64.6112H155.696V57.3494H148.449V49.1676H155.696V41.9058Z" fill="#C40019"/>
<path fill-rule="evenodd" clip-rule="evenodd" d="M186.311 38.8664H215.858C216.712 38.8664 217.434 39.5893 217.434 40.4436C217.434 41.3226 216.712 42.0455 215.858 42.0455H186.311C185.433 42.0455 184.735 41.3226 184.735 40.4436C184.735 39.5893 185.433 38.8664 186.311 38.8664Z" fill="#FEFEFE"/>
<path fill-rule="evenodd" clip-rule="evenodd" d="M186.311 46.6621H215.858C216.712 46.6621 217.434 47.3603 217.434 48.2393C217.434 49.1183 216.712 49.8165 215.858 49.8165H186.311C185.433 49.8165 184.735 49.1183 184.735 48.2393C184.735 47.3603 185.433 46.6621 186.311 46.6621Z" fill="#FEFEFE"/>
<path fill-rule="evenodd" clip-rule="evenodd" d="M186.311 54.4414H215.858C216.712 54.4414 217.434 55.1643 217.434 56.0186C217.434 56.8976 216.712 57.6205 215.858 57.6205H186.311C185.433 57.6205 184.735 56.8976 184.735 56.0186C184.735 55.1643 185.433 54.4414 186.311 54.4414Z" fill="#FEFEFE"/>
<path fill-rule="evenodd" clip-rule="evenodd" d="M186.311 62.2453H205.049C205.902 62.2453 206.625 62.9436 206.625 63.8226C206.625 64.7015 205.902 65.3998 205.049 65.3998H186.311C185.433 65.3998 184.735 64.7015 184.735 63.8226C184.735 62.9436 185.433 62.2453 186.311 62.2453Z" fill="#FEFEFE"/>
<path fill-rule="evenodd" clip-rule="evenodd" d="M99.6156 155.843H128.465C129.409 155.843 130.18 156.632 130.18 157.577V190.961C130.18 191.906 129.417 192.678 128.465 192.678H99.6156C98.6717 192.678 97.8838 191.914 97.8838 190.961V157.577C97.8838 156.632 98.6717 155.843 99.6156 155.843Z" fill="#FEFEFE"/>
<path fill-rule="evenodd" clip-rule="evenodd" d="M100.247 151.243H163.38C167.344 151.243 170.586 154.488 170.586 158.456V190.057C170.586 194.025 167.344 197.27 163.38 197.27H100.247C96.2586 197.27 93.0166 194.025 93.0166 190.057V158.456C93.0166 154.488 96.2586 151.243 100.247 151.243Z" fill="#C1EDF7"/>
<path fill-rule="evenodd" clip-rule="evenodd" d="M107.864 175.049C108.044 175.025 119.059 175.049 119.059 175.049C120.791 173.357 123.023 165.397 117.598 161.544C114.397 159.269 110.909 160.912 110.121 162.218C110.121 162.218 108.882 162.218 107.962 162.916C102.808 166.909 107.716 175.066 107.872 175.041L107.864 175.049Z" fill="#151D27"/>
<path fill-rule="evenodd" clip-rule="evenodd" d="M108.291 175.879H118.558C121.439 175.879 123.786 178.22 123.786 181.087V199.463H103.062V181.087C103.062 178.22 105.402 175.879 108.291 175.879Z" fill="#FF963E"/>
<path fill-rule="evenodd" clip-rule="evenodd" d="M116.325 175.23C116.169 177.193 114.881 178.705 113.354 178.705C111.828 178.705 110.515 177.193 110.383 175.23C108.848 173.965 107.839 171.739 107.839 169.192C107.839 165.249 110.293 162.045 113.354 162.045C116.416 162.045 118.87 165.249 118.87 169.192C118.87 171.739 117.86 173.973 116.325 175.23Z" fill="#FFAC8F"/>
<path fill-rule="evenodd" clip-rule="evenodd" d="M109.957 162.785C111.311 167.927 120.569 166.416 120.545 166.391C120.389 166.235 118.993 163.007 116.942 162.037C114.873 161.068 111.467 161.585 110.909 161.906C110.326 162.202 109.965 162.785 109.965 162.785H109.957Z" fill="#151D27"/>
<path fill-rule="evenodd" clip-rule="evenodd" d="M111.869 163.442C111.869 163.442 111.213 165.2 109.301 166.44C107.388 167.656 106.1 167.475 106.1 167.475C106.1 167.475 106.346 164.838 107.922 163.803C109.473 162.793 111.32 162.473 111.32 162.473L111.861 163.442H111.869Z" fill="#151D27"/>
<path fill-rule="evenodd" clip-rule="evenodd" d="M135.901 161.249H160.408C160.991 161.249 161.492 161.725 161.492 162.333C161.492 162.916 160.999 163.417 160.408 163.417H135.901C135.318 163.417 134.817 162.924 134.817 162.333C134.817 161.725 135.31 161.249 135.901 161.249Z" fill="#FEFEFE"/>
<path fill-rule="evenodd" clip-rule="evenodd" d="M135.901 166.531H160.408C160.991 166.531 161.492 167.024 161.492 167.615C161.492 168.223 160.999 168.699 160.408 168.699H135.901C135.318 168.699 134.817 168.223 134.817 167.615C134.817 167.032 135.31 166.531 135.901 166.531Z" fill="#FEFEFE"/>
<path fill-rule="evenodd" clip-rule="evenodd" d="M135.901 171.829H160.408C160.991 171.829 161.492 172.322 161.492 172.913C161.492 173.497 160.999 173.998 160.408 173.998H135.901C135.318 173.998 134.817 173.505 134.817 172.913C134.817 172.33 135.31 171.829 135.901 171.829Z" fill="#FEFEFE"/>
<path fill-rule="evenodd" clip-rule="evenodd" d="M135.901 177.119H160.408C160.991 177.119 161.492 177.596 161.492 178.204C161.492 178.787 160.999 179.263 160.408 179.263H135.901C135.318 179.263 134.817 178.787 134.817 178.204C134.817 177.596 135.31 177.119 135.901 177.119Z" fill="#FEFEFE"/>
<path fill-rule="evenodd" clip-rule="evenodd" d="M135.901 182.401H147.186C147.793 182.401 148.269 182.894 148.269 183.486C148.269 184.069 147.793 184.57 147.186 184.57H135.901C135.318 184.57 134.817 184.077 134.817 183.486C134.817 182.903 135.31 182.401 135.901 182.401Z" fill="#FEFEFE"/>
<path fill-rule="evenodd" clip-rule="evenodd" d="M99.2787 102.481H128.128C129.072 102.481 129.843 103.245 129.843 104.214V137.582C129.843 138.527 129.08 139.315 128.128 139.315H99.2787C98.3348 139.315 97.5469 138.527 97.5469 137.582V104.214C97.5469 103.245 98.3348 102.481 99.2787 102.481Z" fill="#FEFEFE"/>
<path fill-rule="evenodd" clip-rule="evenodd" d="M99.9105 97.8806H163.043C167.007 97.8806 170.249 101.125 170.249 105.093V136.695C170.249 140.663 167.007 143.907 163.043 143.907H99.9105C95.9463 143.907 92.6797 140.663 92.6797 136.695V105.093C92.6797 101.125 95.9463 97.8806 99.9105 97.8806Z" fill="#C1EDF7"/>
<path fill-rule="evenodd" clip-rule="evenodd" d="M135.564 107.894H160.071C160.654 107.894 161.155 108.371 161.155 108.979C161.155 109.562 160.662 110.063 160.071 110.063H135.564C134.981 110.063 134.48 109.57 134.48 108.979C134.48 108.371 134.973 107.894 135.564 107.894Z" fill="#FEFEFE"/>
<path fill-rule="evenodd" clip-rule="evenodd" d="M135.564 113.168H160.071C160.654 113.168 161.155 113.661 161.155 114.252C161.155 114.86 160.662 115.337 160.071 115.337H135.564C134.981 115.337 134.48 114.86 134.48 114.252C134.48 113.669 134.973 113.168 135.564 113.168Z" fill="#FEFEFE"/>
<path fill-rule="evenodd" clip-rule="evenodd" d="M135.564 118.467H160.071C160.654 118.467 161.155 118.943 161.155 119.551C161.155 120.134 160.662 120.635 160.071 120.635H135.564C134.981 120.635 134.48 120.142 134.48 119.551C134.48 118.943 134.973 118.467 135.564 118.467Z" fill="#FEFEFE"/>
<path fill-rule="evenodd" clip-rule="evenodd" d="M135.564 123.74H160.071C160.654 123.74 161.155 124.233 161.155 124.825C161.155 125.433 160.662 125.909 160.071 125.909H135.564C134.981 125.909 134.48 125.433 134.48 124.825C134.48 124.242 134.973 123.74 135.564 123.74Z" fill="#FEFEFE"/>
<path fill-rule="evenodd" clip-rule="evenodd" d="M135.564 129.039H146.849C147.457 129.039 147.933 129.532 147.933 130.123C147.933 130.706 147.457 131.208 146.849 131.208H135.564C134.981 131.208 134.48 130.715 134.48 130.123C134.48 129.54 134.973 129.039 135.564 129.039Z" fill="#FEFEFE"/>
<path fill-rule="evenodd" clip-rule="evenodd" d="M110.694 123.781C110.85 123.757 116.866 123.962 116.866 123.962C118.598 122.27 123.129 114.088 117.704 110.235C114.486 107.96 111.441 109.652 110.653 110.958C110.653 110.958 110.202 110.712 109.283 111.435C104.145 115.427 110.547 123.814 110.703 123.79L110.694 123.781Z" fill="#151D27"/>
<path fill-rule="evenodd" clip-rule="evenodd" d="M108.832 124.619H119.124C121.988 124.619 124.327 126.961 124.327 129.827V148.204H103.604V129.827C103.604 126.961 105.943 124.619 108.832 124.619Z" fill="#434F6F"/>
<path fill-rule="evenodd" clip-rule="evenodd" d="M116.866 123.962C116.71 125.926 115.422 127.437 113.895 127.437C112.369 127.437 111.08 125.926 110.924 123.962C109.389 122.697 108.38 120.471 108.38 117.924C108.38 113.981 110.834 110.778 113.895 110.778C116.957 110.778 119.411 113.981 119.411 117.924C119.411 120.471 118.401 122.705 116.866 123.962Z" fill="#FFAC8F"/>
<path fill-rule="evenodd" clip-rule="evenodd" d="M108.717 112.807C110.473 108.321 114.191 107.911 114.191 107.911C114.437 107.87 118.106 109.307 119.37 113.053C119.37 113.053 113.674 114.425 113.444 114.294C113.223 114.179 108.717 112.807 108.717 112.807Z" fill="#151D27"/>
<path fill-rule="evenodd" clip-rule="evenodd" d="M109.545 111.616C109.586 111.435 109.143 111.459 110.087 110.079C111.031 108.699 112.607 107.738 112.607 107.738V108.412L114.232 107.106L115.676 108.593L116.037 107.87C116.037 107.87 117.342 108.814 117.95 109.743C118.557 110.687 118.943 111.706 118.943 111.706L109.554 111.616H109.545Z" fill="#151D27"/>
<path fill-rule="evenodd" clip-rule="evenodd" d="M108.421 119.617C109.168 119.617 109.751 118.943 109.751 118.13C109.751 117.317 109.168 116.668 108.421 116.668C107.674 116.668 107.116 117.325 107.116 118.13C107.116 118.935 107.699 119.617 108.421 119.617Z" fill="#FFAC8F"/>
<path fill-rule="evenodd" clip-rule="evenodd" d="M119.345 119.617C120.092 119.617 120.675 118.943 120.675 118.13C120.675 117.317 120.092 116.668 119.345 116.668C118.598 116.668 118.016 117.325 118.016 118.13C118.016 118.935 118.623 119.617 119.345 119.617Z" fill="#FFAC8F"/>
<path fill-rule="evenodd" clip-rule="evenodd" d="M108.56 114.786L108.831 118.196L108.035 116.323L108.56 114.786Z" fill="#151D27"/>
<path fill-rule="evenodd" clip-rule="evenodd" d="M119.05 114.63L118.779 118.039L119.575 116.166L119.05 114.63Z" fill="#151D27"/>
<path fill-rule="evenodd" clip-rule="evenodd" d="M168.73 173.398H183.947C184.513 173.398 184.989 173.875 184.989 174.441V183.88H167.688V174.441C167.688 173.875 168.164 173.398 168.73 173.398Z" fill="#FF963E"/>
<path fill-rule="evenodd" clip-rule="evenodd" d="M169.519 174.359C169.781 174.359 170.011 174.565 170.011 174.836V184.143H169.051V174.836C169.051 174.573 169.256 174.359 169.527 174.359H169.519Z" fill="#FF8726"/>
<path fill-rule="evenodd" clip-rule="evenodd" d="M172.26 174.359C172.506 174.359 172.736 174.565 172.736 174.836V184.143H171.775V174.836C171.775 174.573 172.005 174.359 172.268 174.359H172.26Z" fill="#FF8726"/>
<path fill-rule="evenodd" clip-rule="evenodd" d="M174.984 174.359C175.247 174.359 175.46 174.565 175.46 174.836V184.143H174.5V174.836C174.5 174.573 174.73 174.359 174.992 174.359H174.984Z" fill="#FF8726"/>
<path fill-rule="evenodd" clip-rule="evenodd" d="M177.709 174.359C177.972 174.359 178.185 174.565 178.185 174.836V184.143H177.225V174.836C177.225 174.573 177.454 174.359 177.717 174.359H177.709Z" fill="#FF8726"/>
<path fill-rule="evenodd" clip-rule="evenodd" d="M180.434 174.359C180.697 174.359 180.91 174.565 180.91 174.836V184.143H179.95V174.836C179.95 174.573 180.18 174.359 180.443 174.359H180.434Z" fill="#FF8726"/>
<path fill-rule="evenodd" clip-rule="evenodd" d="M183.151 174.359C183.414 174.359 183.627 174.565 183.627 174.836V184.143H182.667V174.836C182.667 174.573 182.897 174.359 183.159 174.359H183.151Z" fill="#FF8726"/>
<path fill-rule="evenodd" clip-rule="evenodd" d="M163.207 183.88H189.463C191.293 183.88 192.787 185.375 192.787 187.191V219.474C192.787 221.29 191.293 222.785 189.463 222.785H163.207C161.377 222.785 159.899 221.29 159.899 219.474V187.191C159.899 185.375 161.377 183.88 163.207 183.88Z" fill="#FEFEFE"/>
<path d="M192.795 196.391H159.899V211.777H192.795V196.391Z" fill="#FF963E"/>
<path fill-rule="evenodd" clip-rule="evenodd" d="M182.116 215.12H191.038V223.335H182.116C179.851 223.335 178.013 221.503 178.013 219.228C178.013 216.952 179.843 215.12 182.116 215.12Z" fill="#434F6F"/>
<path fill-rule="evenodd" clip-rule="evenodd" d="M199.96 215.12H191.038V223.335H199.96C202.225 223.335 204.063 221.503 204.063 219.228C204.063 216.952 202.233 215.12 199.96 215.12Z" fill="#FF963E"/>
<path fill-rule="evenodd" clip-rule="evenodd" d="M147.932 212.927C150.485 211.49 153.719 212.418 155.155 214.973C156.575 217.527 155.664 220.764 153.095 222.202C150.542 223.623 147.309 222.711 145.889 220.14C144.453 217.585 145.38 214.348 147.932 212.927Z" fill="#DBDBDC"/>
<path fill-rule="evenodd" clip-rule="evenodd" d="M148.137 213.289C150.485 211.982 153.472 212.812 154.777 215.178C156.099 217.527 155.253 220.518 152.906 221.824C150.542 223.146 147.571 222.3 146.25 219.951C144.945 217.585 145.774 214.611 148.137 213.289Z" fill="#FEFEFE"/>
<path fill-rule="evenodd" clip-rule="evenodd" d="M154.433 214.628L145.979 219.359C146.053 219.548 146.127 219.754 146.242 219.942C146.357 220.131 146.472 220.304 146.579 220.476L155.049 215.745C154.975 215.556 154.876 215.367 154.762 215.178C154.663 214.989 154.556 214.8 154.425 214.628H154.433Z" fill="#DBDBDC"/>
<path opacity="0.43" fill-rule="evenodd" clip-rule="evenodd" d="M183.455 216.41H200.108C200.789 216.41 201.355 216.977 201.355 217.659C201.355 218.341 200.789 218.907 200.108 218.907H183.455C182.757 218.907 182.207 218.341 182.207 217.659C182.207 216.977 182.757 216.41 183.455 216.41Z" fill="#EDEEEE"/>
<path d="M426.71 103.951H341.29C338.921 103.951 337 105.891 337 108.284V225.283C337 227.676 338.921 229.616 341.29 229.616H426.71C429.079 229.616 431 227.676 431 225.283V108.284C431 105.891 429.079 103.951 426.71 103.951Z" fill="#6AA5FE"/>
<path d="M337 134.563V225.283C337 227.676 338.92 229.616 341.29 229.616H426.71C429.08 229.616 431 227.676 431 225.283V207.376L337 134.563Z" fill="#527EE9"/>
<path d="M423.786 109.747H344.213C343.245 109.747 342.461 110.539 342.461 111.517V222.045C342.461 223.023 343.245 223.815 344.213 223.815H423.786C424.754 223.815 425.538 223.023 425.538 222.045V111.517C425.538 110.539 424.754 109.747 423.786 109.747Z" fill="#F3F4F6"/>
<path d="M391.127 101.575C391.132 101.456 391.145 101.342 391.145 101.218C391.145 97.2329 387.945 94.0001 384 94.0001C380.055 94.0001 376.854 97.2329 376.854 101.218C376.854 101.337 376.868 101.456 376.873 101.575H366.372V112.576H401.628V101.575H391.127Z" fill="#1A55B5"/>
<path d="M366.372 101.575V112.576H401.628L366.372 101.575Z" fill="#2C6BC6"/>
<path d="M385.546 104.96C387.592 104.099 388.559 101.725 387.706 99.6588C386.854 97.5925 384.504 96.6156 382.458 97.4771C380.412 98.3385 379.445 100.712 380.298 102.778C381.151 104.845 383.501 105.821 385.546 104.96Z" fill="#527EE9"/>
<path d="M381.163 98.3564C379.597 99.9384 379.597 102.506 381.163 104.088C382.729 105.67 385.271 105.67 386.838 104.088L381.163 98.3564Z" fill="#6AA5FE"/>
<g style="mix-blend-mode:multiply">
<path d="M401.628 112.576H366.372V113.333H401.628V112.576Z" fill="#CDE1F9"/>
</g>
<path d="M365.432 127.809H352.062V141.313H365.432V127.809Z" stroke="#1A55B5" stroke-miterlimit="10"/>
<g filter="url(#filter0_d_198_941)">
<path d="M355.067 134.334L359.153 137.581L367.47 129.487" stroke="#3BC1CD" stroke-width="4" stroke-miterlimit="10"/>
</g>
<path d="M415.423 131.642H371.851C371.565 131.642 371.338 131.409 371.338 131.124C371.338 130.835 371.569 130.606 371.851 130.606H415.423C415.709 130.606 415.936 130.84 415.936 131.124C415.936 131.413 415.705 131.642 415.423 131.642Z" fill="#6AA5FE"/>
<path d="M415.423 133.935H371.851C371.565 133.935 371.338 133.701 371.338 133.417C371.338 133.128 371.569 132.899 371.851 132.899H415.423C415.709 132.899 415.936 133.133 415.936 133.417C415.936 133.706 415.705 133.935 415.423 133.935Z" fill="#6AA5FE"/>
<path d="M415.423 136.228H371.851C371.565 136.228 371.338 135.994 371.338 135.71C371.338 135.421 371.569 135.192 371.851 135.192H415.423C415.709 135.192 415.936 135.425 415.936 135.71C415.936 135.999 415.705 136.228 415.423 136.228Z" fill="#6AA5FE"/>
<path d="M415.423 138.521H371.851C371.565 138.521 371.338 138.287 371.338 138.002C371.338 137.714 371.569 137.484 371.851 137.484H415.423C415.709 137.484 415.936 137.718 415.936 138.002C415.936 138.291 415.705 138.521 415.423 138.521Z" fill="#6AA5FE"/>
<path d="M365.432 149.553H352.062V163.058H365.432V149.553Z" stroke="#1A55B5" stroke-miterlimit="10"/>
<g filter="url(#filter1_d_198_941)">
<path d="M355.067 156.078L359.153 159.32L367.47 151.231" stroke="#3BC1CD" stroke-width="4" stroke-miterlimit="10"/>
</g>
<path d="M415.423 153.387H371.851C371.565 153.387 371.338 153.153 371.338 152.869C371.338 152.58 371.569 152.35 371.851 152.35H415.423C415.709 152.35 415.936 152.584 415.936 152.869C415.936 153.157 415.705 153.387 415.423 153.387Z" fill="#6AA5FE"/>
<path d="M415.423 155.679H371.851C371.565 155.679 371.338 155.446 371.338 155.161C371.338 154.872 371.569 154.643 371.851 154.643H415.423C415.709 154.643 415.936 154.877 415.936 155.161C415.936 155.45 415.705 155.679 415.423 155.679Z" fill="#6AA5FE"/>
<path d="M415.423 157.972H371.851C371.565 157.972 371.338 157.738 371.338 157.454C371.338 157.165 371.569 156.936 371.851 156.936H415.423C415.709 156.936 415.936 157.17 415.936 157.454C415.936 157.743 415.705 157.972 415.423 157.972Z" fill="#6AA5FE"/>
<path d="M415.423 160.265H371.851C371.565 160.265 371.338 160.031 371.338 159.747C371.338 159.458 371.569 159.229 371.851 159.229H415.423C415.709 159.229 415.936 159.462 415.936 159.747C415.936 160.036 415.705 160.265 415.423 160.265Z" fill="#6AA5FE"/>
<path d="M365.432 171.298H352.062V184.802H365.432V171.298Z" stroke="#1A55B5" stroke-miterlimit="10"/>
<g filter="url(#filter2_d_198_941)">
<path d="M355.067 177.823L359.153 181.065L367.47 172.976" stroke="#3BC1CD" stroke-width="4" stroke-miterlimit="10"/>
</g>
<path d="M415.423 175.131H371.851C371.565 175.131 371.338 174.897 371.338 174.613C371.338 174.324 371.569 174.095 371.851 174.095H415.423C415.709 174.095 415.936 174.329 415.936 174.613C415.936 174.902 415.705 175.131 415.423 175.131Z" fill="#6AA5FE"/>
<path d="M415.423 177.424H371.851C371.565 177.424 371.338 177.19 371.338 176.906C371.338 176.617 371.569 176.388 371.851 176.388H415.423C415.709 176.388 415.936 176.622 415.936 176.906C415.936 177.195 415.705 177.424 415.423 177.424Z" fill="#6AA5FE"/>
<path d="M415.423 179.717H371.851C371.565 179.717 371.338 179.483 371.338 179.199C371.338 178.91 371.569 178.68 371.851 178.68H415.423C415.709 178.68 415.936 178.914 415.936 179.199C415.936 179.487 415.705 179.717 415.423 179.717Z" fill="#6AA5FE"/>
<path d="M415.423 182.009H371.851C371.565 182.009 371.338 181.776 371.338 181.491C371.338 181.202 371.569 180.973 371.851 180.973H415.423C415.709 180.973 415.936 181.207 415.936 181.491C415.936 181.78 415.705 182.009 415.423 182.009Z" fill="#6AA5FE"/>
<path d="M365.432 193.042H352.062V206.546H365.432V193.042Z" stroke="#1A55B5" stroke-miterlimit="10"/>
<g filter="url(#filter3_d_198_941)">
<path d="M355.067 199.567L359.153 202.809L367.47 194.72" stroke="#3BC1CD" stroke-width="4" stroke-miterlimit="10"/>
</g>
<path d="M415.423 196.876H371.851C371.565 196.876 371.338 196.642 371.338 196.357C371.338 196.068 371.569 195.839 371.851 195.839H415.423C415.709 195.839 415.936 196.073 415.936 196.357C415.936 196.646 415.705 196.876 415.423 196.876Z" fill="#6AA5FE"/>
<path d="M415.423 199.168H371.851C371.565 199.168 371.338 198.934 371.338 198.65C371.338 198.361 371.569 198.132 371.851 198.132H415.423C415.709 198.132 415.936 198.366 415.936 198.65C415.936 198.939 415.705 199.168 415.423 199.168Z" fill="#6AA5FE"/>
<path d="M415.423 201.461H371.851C371.565 201.461 371.338 201.227 371.338 200.943C371.338 200.654 371.569 200.425 371.851 200.425H415.423C415.709 200.425 415.936 200.659 415.936 200.943C415.936 201.232 415.705 201.461 415.423 201.461Z" fill="#6AA5FE"/>
<path d="M415.423 203.754H371.851C371.565 203.754 371.338 203.52 371.338 203.236C371.338 202.947 371.569 202.717 371.851 202.717H415.423C415.709 202.717 415.936 202.951 415.936 203.236C415.936 203.524 415.705 203.754 415.423 203.754Z" fill="#6AA5FE"/>
<defs>
<filter id="filter0_d_198_941" x="353.823" y="128.054" width="17.042" height="14.1874" filterUnits="userSpaceOnUse" color-interpolation-filters="sRGB">
<feFlood flood-opacity="0" result="BackgroundImageFix"/>
<feColorMatrix in="SourceAlpha" type="matrix" values="0 0 0 0 0 0 0 0 0 0 0 0 0 0 0 0 0 0 127 0" result="hardAlpha"/>
<feOffset dx="2" dy="2"/>
<feColorMatrix type="matrix" values="0 0 0 0 0.952941 0 0 0 0 0.956863 0 0 0 0 0.964706 0 0 0 1 0"/>
<feBlend mode="normal" in2="BackgroundImageFix" result="effect1_dropShadow_198_941"/>
<feBlend mode="normal" in="SourceGraphic" in2="effect1_dropShadow_198_941" result="shape"/>
</filter>
<filter id="filter1_d_198_941" x="353.824" y="149.798" width="17.04" height="14.182" filterUnits="userSpaceOnUse" color-interpolation-filters="sRGB">
<feFlood flood-opacity="0" result="BackgroundImageFix"/>
<feColorMatrix in="SourceAlpha" type="matrix" values="0 0 0 0 0 0 0 0 0 0 0 0 0 0 0 0 0 0 127 0" result="hardAlpha"/>
<feOffset dx="2" dy="2"/>
<feColorMatrix type="matrix" values="0 0 0 0 0.952941 0 0 0 0 0.956863 0 0 0 0 0.964706 0 0 0 1 0"/>
<feBlend mode="normal" in2="BackgroundImageFix" result="effect1_dropShadow_198_941"/>
<feBlend mode="normal" in="SourceGraphic" in2="effect1_dropShadow_198_941" result="shape"/>
</filter>
<filter id="filter2_d_198_941" x="353.824" y="171.542" width="17.04" height="14.182" filterUnits="userSpaceOnUse" color-interpolation-filters="sRGB">
<feFlood flood-opacity="0" result="BackgroundImageFix"/>
<feColorMatrix in="SourceAlpha" type="matrix" values="0 0 0 0 0 0 0 0 0 0 0 0 0 0 0 0 0 0 127 0" result="hardAlpha"/>
<feOffset dx="2" dy="2"/>
<feColorMatrix type="matrix" values="0 0 0 0 0.952941 0 0 0 0 0.956863 0 0 0 0 0.964706 0 0 0 1 0"/>
<feBlend mode="normal" in2="BackgroundImageFix" result="effect1_dropShadow_198_941"/>
<feBlend mode="normal" in="SourceGraphic" in2="effect1_dropShadow_198_941" result="shape"/>
</filter>
<filter id="filter3_d_198_941" x="353.824" y="193.287" width="17.04" height="14.182" filterUnits="userSpaceOnUse" color-interpolation-filters="sRGB">
<feFlood flood-opacity="0" result="BackgroundImageFix"/>
<feColorMatrix in="SourceAlpha" type="matrix" values="0 0 0 0 0 0 0 0 0 0 0 0 0 0 0 0 0 0 127 0" result="hardAlpha"/>
<feOffset dx="2" dy="2"/>
<feColorMatrix type="matrix" values="0 0 0 0 0.952941 0 0 0 0 0.956863 0 0 0 0 0.964706 0 0 0 1 0"/>
<feBlend mode="normal" in2="BackgroundImageFix" result="effect1_dropShadow_198_941"/>
<feBlend mode="normal" in="SourceGraphic" in2="effect1_dropShadow_198_941" result="shape"/>
</filter>
</defs>
</svg>
