<svg width="147" height="147" viewBox="0 0 147 147" fill="none" xmlns="http://www.w3.org/2000/svg">
<path d="M74.6729 104.04L82.2703 64.7861H93.8475L94.9328 104.04H74.6729Z" stroke="#3BC1CD" stroke-width="5"/>
<path d="M57.1384 82.5821V121.06C57.4898 122.237 58.825 124.52 61.3548 124.237C63.8845 123.955 81.8507 124.12 90.5176 124.237C91.923 124.473 94.7339 124.167 94.7339 121.06V104.822C98.3646 104.586 105.767 104.963 106.329 98.4676V78.346C106.329 73.4038 101.199 63.5195 90.5176 63.5195C80.3984 63.5195 65.2197 63.5195 58.8952 63.5195C50.1112 63.5195 43.8571 68.0381 42.7327 80.464C41.6084 92.89 41.5615 106.351 42.03 111.882C42.4985 117.412 54.0463 121.06 55.7329 111.176C57.4195 101.292 57.1384 87.8773 57.1384 82.5821Z" stroke="#3BC1CD" stroke-width="5"/>
<path d="M88.6337 40.0944C88.6337 48.0697 81.9026 54.6887 73.4062 54.6887C64.9098 54.6887 58.1787 48.0697 58.1787 40.0944C58.1787 32.119 64.9098 25.5 73.4062 25.5C81.9026 25.5 88.6337 32.119 88.6337 40.0944Z" stroke="#3BC1CD" stroke-width="5"/>
<path d="M75.7688 90.1113H69.6213C67.8132 90.5556 64.2694 92.5772 64.5587 97.109C64.9203 102.774 73.2376 102.774 75.7688 102.774C77.7938 102.774 92.7647 102.774 99.997 102.774" stroke="#3BC1CD" stroke-width="5"/>
</svg>
