<svg width="147" height="147" viewBox="0 0 147 147" fill="none" xmlns="http://www.w3.org/2000/svg">
<path d="M128.889 124.218L122.513 97.9242C122.697 96.3104 122.715 95.0386 122.724 94.7229V76.1906C122.724 72.5069 119.934 69.4723 116.277 69.0689C120.68 68.4549 124.083 64.666 124.083 60.0965C124.083 55.0973 120.013 51.0277 115.014 51.0277C110.015 51.0277 105.945 55.0973 105.945 60.0965C105.945 64.8414 109.603 68.7356 114.251 69.1302C111.734 69.56 109.603 71.3141 108.734 73.7436L102.402 80.076H92.7894C92.6754 80.076 92.5702 80.0847 92.4561 80.1023C90.9476 80.3829 88.0884 81.7862 88.0884 85.1454C88.0884 88.5045 90.895 89.8377 92.7894 89.8377H105.682C106.173 89.8377 106.638 89.6447 106.98 89.3027L108.296 87.9871V99.2485L104.551 123.719C103.884 126.815 105.858 129.884 109.015 130.577C109.366 130.656 109.717 130.7 110.05 130.7C112.936 130.7 113.997 127.955 114.505 126.639C115.286 124.613 115.97 121.5 116.619 118.281L119.11 126.701C119.742 128.972 121.846 130.621 124.109 130.621C124.574 130.621 125.021 130.56 125.486 130.411C127.942 129.621 129.477 126.876 128.907 124.236L128.889 124.218ZM109.611 60.0877C109.611 57.1145 112.032 54.6938 115.005 54.6938C117.979 54.6938 120.399 57.1145 120.399 60.0877C120.399 63.061 117.979 65.4817 115.005 65.4817C112.032 65.4817 109.611 63.061 109.611 60.0877ZM111.059 125.288C110.62 126.429 110.269 127.007 110.032 127.007C109.989 127.007 109.91 127.008 109.717 126.964C108.594 126.718 107.884 125.604 108.147 124.376L111.936 99.652C111.953 99.5555 111.953 99.4678 111.953 99.3713V83.5316C111.953 82.7861 111.506 82.1195 110.822 81.8301C110.594 81.7336 110.357 81.6898 110.12 81.6898C109.638 81.6898 109.173 81.8739 108.822 82.2248L104.902 86.1452H92.7807C92.0965 86.1452 91.7545 85.8032 91.7545 85.1278C91.7545 84.1894 92.5877 83.8473 92.9824 83.7333H103.148C103.639 83.7333 104.104 83.5404 104.446 83.1983L111.637 76.0064C111.866 75.7784 112.023 75.5065 112.111 75.1995C112.523 73.7173 113.892 72.6736 115.549 72.6736C117.479 72.6736 119.04 74.2435 119.04 76.1643V94.6878C119.04 95.4508 118.978 96.3893 118.873 97.3804C118.812 97.5821 118.777 97.8014 118.794 98.0206C118.505 100.187 117.935 102.441 117.005 103.441C116.005 104.511 115.286 106.747 114.532 110.089C114.532 110.107 114.532 110.115 114.523 110.133C114.172 111.685 113.813 113.448 113.409 115.483C112.664 119.237 111.901 123.113 111.067 125.262L111.059 125.288ZM124.372 126.876C123.732 127.069 122.864 126.481 122.636 125.657L118.18 110.615C118.689 108.388 119.224 106.484 119.68 105.976C119.961 105.677 120.206 105.335 120.434 104.967L125.302 125.034C125.46 125.745 124.978 126.683 124.372 126.876Z" fill="#3BC1CD"/>
<path d="M94.4907 75.0768L100.648 78.9973C100.955 79.1902 101.297 79.2867 101.639 79.2867C102.244 79.2867 102.84 78.9885 103.191 78.4359C103.735 77.5764 103.481 76.445 102.63 75.8925L96.5167 72.0071C96.0519 71.6826 95.5695 71.1739 95.8238 70.5424C96.1747 70.3933 97.7358 70.4985 104.296 75.3925C105.112 75.9977 106.261 75.8311 106.875 75.0154C107.48 74.1997 107.313 73.0508 106.498 72.4368C99.5601 67.2622 95.5607 65.1835 92.9646 68.1831C92.8945 68.262 92.8418 68.341 92.7892 68.4287C91.0175 71.3142 92.8331 73.9717 94.4995 75.0768H94.4907Z" fill="#3BC1CD"/>
<path d="M60.3993 98.8802L52.6374 93.2056L51.2604 84.3561C51.9971 81.8652 51.2955 79.1639 49.4361 77.287C50.8832 78.1903 52.5146 78.699 54.2336 78.699C57.1191 78.699 59.8556 77.3045 61.5571 74.9803C64.504 70.9458 63.6269 65.2537 59.5837 62.3068C58.0225 61.1666 56.1719 60.5614 54.2424 60.5614C51.3568 60.5614 48.6117 61.9472 46.9102 64.2801C44.2088 67.9813 44.735 73.0595 47.9451 76.1555C46.84 75.4977 45.6033 75.1382 44.3053 75.1382C42.0162 75.1382 39.8498 76.2345 38.5079 78.0763L27.571 93.0477C27.0886 93.7143 22.8699 99.6871 23.3874 103.923C23.5102 105.169 21.0982 110.352 19.502 113.773C17.818 117.386 16.0815 121.114 15.4061 123.657C15.0465 125.008 14.0905 128.586 17.4321 130.042C17.4584 130.051 17.5549 130.104 17.5812 130.112C18.318 130.437 19.0985 130.603 19.9054 130.603C22.177 130.603 24.2469 129.262 25.124 127.279L31.9212 114.185L40.4988 128.262C41.5075 129.805 43.2791 130.691 45.0332 130.691C45.8051 130.691 46.5681 130.525 47.261 130.165C47.6644 129.954 48.0328 129.683 48.3748 129.341C49.9711 127.744 50.2868 125.096 49.1467 123.052L38.1834 103.011L43.2177 96.1262L43.5072 97.9681C43.5861 98.4504 43.8492 98.8802 44.2439 99.1696L54.6634 106.783C54.8826 106.94 56.0404 107.721 57.5752 107.721C59.0048 107.721 60.3029 107.019 61.2238 105.756C63.1972 103.046 61.7237 100.222 60.6712 99.1082C60.5923 99.0293 60.5134 98.9504 60.4169 98.889L60.3993 98.8802ZM49.8746 66.4465C50.8832 65.0607 52.5146 64.2363 54.2336 64.2363C55.3826 64.2363 56.4789 64.5959 57.4086 65.2712C59.8117 67.0253 60.338 70.402 58.5838 72.8052C57.5752 74.1909 55.9439 75.0154 54.2248 75.0154C53.0759 75.0154 51.9796 74.6558 51.0499 73.9804C49.8834 73.1297 49.1291 71.8755 48.9011 70.4546C48.6818 69.0338 49.0239 67.613 49.8746 66.4465ZM45.7612 126.744C45.6823 126.823 45.6209 126.867 45.5595 126.902C44.9718 127.2 43.9632 126.876 43.5949 126.306L33.8858 110.37L35.8943 106.502L45.9191 124.832C46.2699 125.455 46.1997 126.306 45.77 126.744H45.7612ZM58.233 103.581C57.8997 104.037 57.6717 104.037 57.5577 104.037C57.2332 104.037 56.8823 103.844 56.8122 103.801L47.0154 96.6437L46.1646 91.1708C46.0506 90.4341 45.5069 89.8377 44.7789 89.6623C44.0509 89.4869 43.2967 89.7675 42.8581 90.3639L33.5174 103.16C33.4648 103.239 33.4122 103.318 33.3683 103.397L30.1846 109.536C30.1495 109.598 30.1144 109.659 30.0881 109.721L21.7999 125.692C21.4666 126.446 20.7211 126.929 19.8967 126.929C19.6072 126.929 19.3266 126.867 19.1336 126.788C19.1073 126.771 19.0108 126.727 18.9845 126.718C18.6863 126.587 18.4583 126.49 18.9582 124.613C19.5546 122.385 21.221 118.798 22.8348 115.334C25.6063 109.379 27.2991 105.616 27.036 103.494C26.7816 101.371 29.0532 97.2839 30.5442 95.2229L41.4811 80.2514C42.1477 79.3393 43.1739 78.8218 44.3053 78.8218C45.0508 78.8218 45.7612 79.0498 46.4453 79.5585C47.6995 80.4707 48.1907 82.1196 47.6469 83.5667C47.5329 83.8649 47.5066 84.1807 47.5504 84.4964L49.1116 94.5387C49.1905 95.0211 49.4536 95.4509 49.8483 95.7403L58.0576 101.739C58.3207 102.081 58.7856 102.845 58.233 103.59V103.581Z" fill="#3BC1CD"/>
<path d="M53.8126 84.6193C52.7952 84.628 51.9796 85.4612 51.9884 86.4786C51.9971 87.4872 52.8216 88.3029 53.8302 88.3029H53.8477C61.9956 88.224 63.3463 89.0572 63.548 89.3817C63.3814 90.0395 62.7148 90.1535 62.1798 90.1623L54.9002 89.6974C53.8653 89.636 53.0145 90.3991 52.9443 91.4165C52.883 92.4339 53.646 93.3022 54.6634 93.3723L61.9781 93.8459C62.057 93.8459 62.1272 93.8459 62.2149 93.8459C64.1795 93.8459 66.9949 92.7145 67.258 89.4782C67.258 89.3817 67.258 89.2765 67.258 89.18C66.9247 85.2244 62.5131 84.5403 53.8214 84.628L53.8126 84.6193Z" fill="#3BC1CD"/>
<path d="M85.3604 84.7947H66.8983C65.0652 84.7947 63.5742 83.3037 63.5742 81.4706V57.2638C63.5742 55.4307 65.0652 53.9397 66.8983 53.9397H91.1052C92.9382 53.9397 94.4292 55.4307 94.4292 57.2638V64.4293C94.4292 65.4467 93.6048 66.2712 92.5874 66.2712C91.57 66.2712 90.7456 65.4467 90.7456 64.4293V57.6146H67.2403V81.111H85.3516C86.369 81.111 87.1935 81.9355 87.1935 82.9529C87.1935 83.9703 86.369 84.7947 85.3516 84.7947H85.3604Z" fill="#3BC1CD"/>
<path d="M83.133 116.404H58.4437C56.7422 116.404 55.3564 115.018 55.3564 113.317V110.563C55.3564 109.545 56.1809 108.721 57.1983 108.721C58.2157 108.721 59.0401 109.545 59.0401 110.563V112.729H82.5366V89.2149H69.3543C68.337 89.2149 67.5125 88.3905 67.5125 87.3731C67.5125 86.3557 68.337 85.5312 69.3543 85.5312H83.1242C84.8257 85.5312 86.2115 86.917 86.2115 88.6185V113.317C86.2115 115.018 84.8257 116.404 83.1242 116.404H83.133Z" fill="#3BC1CD"/>
<path d="M82.7471 53.0713H58.8296C56.9176 53.0713 55.3652 51.5101 55.3652 49.5981V25.6807C55.3652 23.7687 56.9176 22.2075 58.8296 22.2075H82.7471C84.6591 22.2075 86.2202 23.7687 86.2202 25.6807V49.5981C86.2202 51.5101 84.6591 53.0713 82.7471 53.0713ZM59.0401 49.3876H82.5366V25.8912H59.0401V49.3876Z" fill="#3BC1CD"/>
</svg>
