<svg width="102" height="91" viewBox="0 0 102 91" fill="none" xmlns="http://www.w3.org/2000/svg">
<path d="M98.4609 58.9609C96.7031 57.3789 94.5938 56.6758 92.3086 56.6758C90.0234 56.6758 87.9141 57.3789 86.1562 58.7852L75.4336 67.3984C75.082 67.75 74.5547 67.75 74.2031 67.75H66.8203C67.6992 66.168 68.0508 64.2344 67.6992 62.125C66.9961 57.2031 62.4258 53.6875 57.5039 53.6875H32.1914C28.5 53.6875 25.1602 54.918 21.9961 57.2031L15.3164 62.125H3.1875C1.60547 62.125 0.375 63.5312 0.375 64.9375C0.375 66.5195 1.60547 67.75 3.01172 67.75H17.0742L25.1602 61.4219C27.2695 60.0156 29.5547 59.3125 32.0156 59.3125H57.8555C60.1406 59.3125 62.0742 61.0703 62.0742 63.5312C62.0742 65.8164 60.1406 67.75 57.8555 67.75H42.3867C40.8047 67.75 39.5742 68.9805 39.5742 70.5625C39.5742 71.9688 40.8047 73.375 42.3867 73.375H74.0273C75.6094 73.375 77.3672 72.6719 78.5977 71.6172L89.4961 63.0039C90.1992 62.4766 91.2539 62.125 92.1328 62.125C93.0117 62.125 93.8906 62.4766 94.418 63.0039C96.3516 64.5859 96.1758 67.3984 94.418 68.8047L76.6641 82.8672C75.2578 83.9219 73.6758 84.625 71.918 84.625H3.1875C1.60547 84.625 0.375 85.8555 0.375 87.4375C0.375 88.8438 1.60547 90.25 3.01172 90.25H71.918C74.9062 90.25 77.7188 89.3711 80.1797 87.4375L97.9336 73.1992C100.043 71.6172 101.273 68.9805 101.273 66.168C101.625 63.5312 100.395 60.8945 98.4609 58.9609ZM34.125 34H39.75V39.625C39.75 42.7891 42.2109 45.25 45.375 45.25H56.625C59.6133 45.25 62.25 42.7891 62.25 39.625V34H67.875C70.8633 34 73.5 31.5391 73.5 28.375V17.125C73.5 14.1367 70.8633 11.5 67.875 11.5H62.25V5.875C62.25 2.88672 59.6133 0.25 56.625 0.25H45.375C42.2109 0.25 39.75 2.88672 39.75 5.875V11.5H34.125C30.9609 11.5 28.5 14.1367 28.5 17.125V28.375C28.5 31.5391 30.9609 34 34.125 34ZM34.125 17.125H45.375V5.875H56.625V17.125H67.875V28.375H56.625V39.625H45.375V28.375H34.125V17.125Z" fill="#0081A4"/>
<path d="M98.4609 58.9609C96.7031 57.3789 94.5938 56.6758 92.3086 56.6758C90.0234 56.6758 87.9141 57.3789 86.1562 58.7852L75.4336 67.3984C75.082 67.75 74.5547 67.75 74.2031 67.75H66.8203C67.6992 66.168 68.0508 64.2344 67.6992 62.125C66.9961 57.2031 62.4258 53.6875 57.5039 53.6875H32.1914C28.5 53.6875 25.1602 54.918 21.9961 57.2031L15.3164 62.125H3.1875C1.60547 62.125 0.375 63.5312 0.375 64.9375C0.375 66.5195 1.60547 67.75 3.01172 67.75H17.0742L25.1602 61.4219C27.2695 60.0156 29.5547 59.3125 32.0156 59.3125H57.8555C60.1406 59.3125 62.0742 61.0703 62.0742 63.5312C62.0742 65.8164 60.1406 67.75 57.8555 67.75H42.3867C40.8047 67.75 39.5742 68.9805 39.5742 70.5625C39.5742 71.9688 40.8047 73.375 42.3867 73.375H74.0273C75.6094 73.375 77.3672 72.6719 78.5977 71.6172L89.4961 63.0039C90.1992 62.4766 91.2539 62.125 92.1328 62.125C93.0117 62.125 93.8906 62.4766 94.418 63.0039C96.3516 64.5859 96.1758 67.3984 94.418 68.8047L76.6641 82.8672C75.2578 83.9219 73.6758 84.625 71.918 84.625H3.1875C1.60547 84.625 0.375 85.8555 0.375 87.4375C0.375 88.8438 1.60547 90.25 3.01172 90.25H71.918C74.9062 90.25 77.7188 89.3711 80.1797 87.4375L97.9336 73.1992C100.043 71.6172 101.273 68.9805 101.273 66.168C101.625 63.5312 100.395 60.8945 98.4609 58.9609ZM34.125 34H39.75V39.625C39.75 42.7891 42.2109 45.25 45.375 45.25H56.625C59.6133 45.25 62.25 42.7891 62.25 39.625V34H67.875C70.8633 34 73.5 31.5391 73.5 28.375V17.125C73.5 14.1367 70.8633 11.5 67.875 11.5H62.25V5.875C62.25 2.88672 59.6133 0.25 56.625 0.25H45.375C42.2109 0.25 39.75 2.88672 39.75 5.875V11.5H34.125C30.9609 11.5 28.5 14.1367 28.5 17.125V28.375C28.5 31.5391 30.9609 34 34.125 34ZM34.125 17.125H45.375V5.875H56.625V17.125H67.875V28.375H56.625V39.625H45.375V28.375H34.125V17.125Z" fill="url(#paint0_linear_80_1389)"/>
<defs>
<linearGradient id="paint0_linear_80_1389" x1="51" y1="0" x2="51" y2="90" gradientUnits="userSpaceOnUse">
<stop stop-color="#3BC1CD"/>
<stop offset="1" stop-color="#3BC1CD" stop-opacity="0"/>
</linearGradient>
</defs>
</svg>
