<svg width="90" height="91" viewBox="0 0 90 91" fill="none" xmlns="http://www.w3.org/2000/svg">
<path d="M81.9141 15.0156L48.1641 0.953125C47.1094 0.601562 46.0547 0.425781 45 0.425781C43.7695 0.425781 42.7148 0.601562 41.6602 0.953125L7.91016 15.0156C4.74609 16.4219 2.8125 19.4102 2.8125 22.75C2.8125 68.1016 36.0352 90.25 44.8242 90.25C53.6133 90.25 87.1875 68.4531 87.1875 22.75C87.1875 19.4102 85.0781 16.4219 81.9141 15.0156ZM81.3867 22.9258C81.3867 62.4766 52.207 84.625 45 84.625C37.4414 84.625 8.4375 62.3008 8.4375 22.75C8.4375 21.6953 8.96484 20.6406 10.0195 20.2891L43.7695 6.22656C44.1211 6.05078 44.4727 5.875 45 5.875C45.3516 5.875 45.7031 6.05078 46.0547 6.22656L79.8047 20.2891C81.3867 20.9922 81.3867 22.3984 81.3867 22.9258ZM59.0625 32.2422C58.1836 32.2422 57.4805 32.418 56.9531 32.9453L40.2539 49.8203L32.8711 42.4375C32.3438 41.9102 31.6406 41.5586 30.9375 41.5586C29.1797 41.5586 28.125 42.9648 28.125 44.3711C28.125 45.0742 28.3008 45.7773 28.8281 46.4805L38.3203 55.7969C38.8477 56.3242 39.5508 56.5 40.2539 56.5C40.957 56.5 41.6602 56.3242 42.1875 55.7969L60.9961 36.9883C61.5234 36.4609 61.875 35.7578 61.875 35.0547C61.875 33.4727 60.6445 32.2422 59.0625 32.2422Z" fill="#0081A4"/>
<path d="M81.9141 15.0156L48.1641 0.953125C47.1094 0.601562 46.0547 0.425781 45 0.425781C43.7695 0.425781 42.7148 0.601562 41.6602 0.953125L7.91016 15.0156C4.74609 16.4219 2.8125 19.4102 2.8125 22.75C2.8125 68.1016 36.0352 90.25 44.8242 90.25C53.6133 90.25 87.1875 68.4531 87.1875 22.75C87.1875 19.4102 85.0781 16.4219 81.9141 15.0156ZM81.3867 22.9258C81.3867 62.4766 52.207 84.625 45 84.625C37.4414 84.625 8.4375 62.3008 8.4375 22.75C8.4375 21.6953 8.96484 20.6406 10.0195 20.2891L43.7695 6.22656C44.1211 6.05078 44.4727 5.875 45 5.875C45.3516 5.875 45.7031 6.05078 46.0547 6.22656L79.8047 20.2891C81.3867 20.9922 81.3867 22.3984 81.3867 22.9258ZM59.0625 32.2422C58.1836 32.2422 57.4805 32.418 56.9531 32.9453L40.2539 49.8203L32.8711 42.4375C32.3438 41.9102 31.6406 41.5586 30.9375 41.5586C29.1797 41.5586 28.125 42.9648 28.125 44.3711C28.125 45.0742 28.3008 45.7773 28.8281 46.4805L38.3203 55.7969C38.8477 56.3242 39.5508 56.5 40.2539 56.5C40.957 56.5 41.6602 56.3242 42.1875 55.7969L60.9961 36.9883C61.5234 36.4609 61.875 35.7578 61.875 35.0547C61.875 33.4727 60.6445 32.2422 59.0625 32.2422Z" fill="url(#paint0_linear_1_349)"/>
<defs>
<linearGradient id="paint0_linear_1_349" x1="45" y1="0" x2="45" y2="90" gradientUnits="userSpaceOnUse">
<stop stop-color="#47BCCA"/>
<stop offset="1" stop-color="#0081A4" stop-opacity="0"/>
</linearGradient>
</defs>
</svg>
