<svg width="90" height="91" viewBox="0 0 90 91" fill="none" xmlns="http://www.w3.org/2000/svg">
<path d="M45 19.9375C43.418 19.9375 42.1875 18.707 42.1875 17.125V3.0625C42.1875 1.65625 43.418 0.25 45 0.25C46.4062 0.25 47.8125 1.65625 47.8125 3.0625V17.125C47.8125 18.707 46.4062 19.9375 45 19.9375ZM47.8125 87.4375V73.375C47.8125 71.9688 46.4062 70.5625 45 70.5625C43.418 70.5625 42.1875 71.9688 42.1875 73.375V87.4375C42.1875 89.0195 43.418 90.25 45 90.25C46.4062 90.25 47.8125 89.0195 47.8125 87.4375ZM90 45.25C90 43.8438 88.5938 42.4375 87.1875 42.4375H73.125C71.543 42.4375 70.3125 43.8438 70.3125 45.25C70.3125 46.832 71.543 48.0625 73.125 48.0625H87.1875C88.5938 48.0625 90 46.832 90 45.25ZM19.6875 45.25C19.6875 43.8438 18.2812 42.4375 16.875 42.4375H2.8125C1.23047 42.4375 0 43.8438 0 45.25C0 46.832 1.23047 48.0625 2.8125 48.0625H16.875C18.2812 48.0625 19.6875 46.832 19.6875 45.25ZM66.7969 27.4961L76.8164 17.4766C77.8711 16.4219 77.8711 14.6641 76.8164 13.4336C75.5859 12.3789 73.8281 12.3789 72.7734 13.4336L62.7539 23.4531C61.6992 24.5078 61.6992 26.2656 62.7539 27.4961C63.457 28.0234 64.1602 28.1992 64.8633 28.1992C65.5664 28.1992 66.2695 28.0234 66.7969 27.4961ZM17.0508 77.0664L27.0703 67.2227C28.125 66.168 28.125 64.4102 27.0703 63.1797C25.8398 62.125 24.082 62.125 23.0273 63.1797L13.0078 73.1992C11.9531 74.2539 11.9531 76.0117 13.0078 77.0664C13.7109 77.7695 14.4141 77.9453 15.1172 77.9453C15.8203 77.9453 16.5234 77.7695 17.0508 77.0664ZM76.8164 77.0664C77.8711 76.0117 77.8711 74.2539 76.8164 73.1992L66.7969 63.1797C65.7422 62.125 63.9844 62.125 62.7539 63.1797C61.6992 64.4102 61.6992 66.168 62.7539 67.2227L72.7734 77.2422C73.3008 77.7695 74.0039 77.9453 74.707 77.9453C75.4102 77.9453 76.1133 77.7695 76.8164 77.0664ZM27.0703 27.4961C28.125 26.2656 28.125 24.5078 27.0703 23.4531L17.0508 13.4336C15.9961 12.3789 14.2383 12.3789 13.0078 13.4336C11.9531 14.6641 11.9531 16.4219 13.0078 17.4766L23.0273 27.4961C23.5547 28.0234 24.2578 28.1992 24.9609 28.1992C25.6641 28.1992 26.543 28.0234 27.0703 27.4961ZM64.6875 45.25C64.6875 34.5273 55.7227 25.5625 45 25.5625C34.1016 25.5625 25.3125 34.5273 25.3125 45.25C25.3125 56.1484 34.1016 64.9375 45 64.9375C55.7227 64.9375 64.6875 56.1484 64.6875 45.25ZM59.0625 45.25C59.0625 53.1602 52.7344 59.3125 45 59.3125C37.0898 59.3125 30.9375 53.1602 30.9375 45.25C30.9375 37.5156 37.0898 31.1875 45 31.1875C52.7344 31.1875 59.0625 37.5156 59.0625 45.25Z" fill="#0081A4"/>
<path d="M45 19.9375C43.418 19.9375 42.1875 18.707 42.1875 17.125V3.0625C42.1875 1.65625 43.418 0.25 45 0.25C46.4062 0.25 47.8125 1.65625 47.8125 3.0625V17.125C47.8125 18.707 46.4062 19.9375 45 19.9375ZM47.8125 87.4375V73.375C47.8125 71.9688 46.4062 70.5625 45 70.5625C43.418 70.5625 42.1875 71.9688 42.1875 73.375V87.4375C42.1875 89.0195 43.418 90.25 45 90.25C46.4062 90.25 47.8125 89.0195 47.8125 87.4375ZM90 45.25C90 43.8438 88.5938 42.4375 87.1875 42.4375H73.125C71.543 42.4375 70.3125 43.8438 70.3125 45.25C70.3125 46.832 71.543 48.0625 73.125 48.0625H87.1875C88.5938 48.0625 90 46.832 90 45.25ZM19.6875 45.25C19.6875 43.8438 18.2812 42.4375 16.875 42.4375H2.8125C1.23047 42.4375 0 43.8438 0 45.25C0 46.832 1.23047 48.0625 2.8125 48.0625H16.875C18.2812 48.0625 19.6875 46.832 19.6875 45.25ZM66.7969 27.4961L76.8164 17.4766C77.8711 16.4219 77.8711 14.6641 76.8164 13.4336C75.5859 12.3789 73.8281 12.3789 72.7734 13.4336L62.7539 23.4531C61.6992 24.5078 61.6992 26.2656 62.7539 27.4961C63.457 28.0234 64.1602 28.1992 64.8633 28.1992C65.5664 28.1992 66.2695 28.0234 66.7969 27.4961ZM17.0508 77.0664L27.0703 67.2227C28.125 66.168 28.125 64.4102 27.0703 63.1797C25.8398 62.125 24.082 62.125 23.0273 63.1797L13.0078 73.1992C11.9531 74.2539 11.9531 76.0117 13.0078 77.0664C13.7109 77.7695 14.4141 77.9453 15.1172 77.9453C15.8203 77.9453 16.5234 77.7695 17.0508 77.0664ZM76.8164 77.0664C77.8711 76.0117 77.8711 74.2539 76.8164 73.1992L66.7969 63.1797C65.7422 62.125 63.9844 62.125 62.7539 63.1797C61.6992 64.4102 61.6992 66.168 62.7539 67.2227L72.7734 77.2422C73.3008 77.7695 74.0039 77.9453 74.707 77.9453C75.4102 77.9453 76.1133 77.7695 76.8164 77.0664ZM27.0703 27.4961C28.125 26.2656 28.125 24.5078 27.0703 23.4531L17.0508 13.4336C15.9961 12.3789 14.2383 12.3789 13.0078 13.4336C11.9531 14.6641 11.9531 16.4219 13.0078 17.4766L23.0273 27.4961C23.5547 28.0234 24.2578 28.1992 24.9609 28.1992C25.6641 28.1992 26.543 28.0234 27.0703 27.4961ZM64.6875 45.25C64.6875 34.5273 55.7227 25.5625 45 25.5625C34.1016 25.5625 25.3125 34.5273 25.3125 45.25C25.3125 56.1484 34.1016 64.9375 45 64.9375C55.7227 64.9375 64.6875 56.1484 64.6875 45.25ZM59.0625 45.25C59.0625 53.1602 52.7344 59.3125 45 59.3125C37.0898 59.3125 30.9375 53.1602 30.9375 45.25C30.9375 37.5156 37.0898 31.1875 45 31.1875C52.7344 31.1875 59.0625 37.5156 59.0625 45.25Z" fill="url(#paint0_linear_80_1392)"/>
<defs>
<linearGradient id="paint0_linear_80_1392" x1="45" y1="0" x2="45" y2="90" gradientUnits="userSpaceOnUse">
<stop stop-color="#3BC1CD"/>
<stop offset="1" stop-color="#3BC1CD" stop-opacity="0"/>
</linearGradient>
</defs>
</svg>
