<svg width="1138" height="36" viewBox="0 0 1138 36" fill="none" xmlns="http://www.w3.org/2000/svg">
<g clip-path="url(#clip0_28_34)">
<mask id="mask0_28_34" style="mask-type:luminance" maskUnits="userSpaceOnUse" x="0" y="0" width="1138" height="36">
<path d="M1138 0H0V36H1138V0Z" fill="white"/>
</mask>
<g mask="url(#mask0_28_34)">
<path d="M31.6138 20.25C32.0818 20.25 32.4829 19.9688 32.6166 19.4766L35.6918 11.4609L41.3074 35.0859C41.4411 35.6484 41.8422 35.9297 42.377 36C42.845 35.9297 43.313 35.5781 43.3798 35.0859L48.8617 6.1875L52.0038 19.3359C52.1375 19.8281 52.6055 20.25 53.0066 20.25H1081.47C1081.8 20.25 1082 19.9689 1082 19.6876V18.5626C1082 18.211 1081.8 18.0001 1081.47 18.0001L53.8757 18L49.7977 0.843751C49.664 0.281251 49.2629 4.92e-08 48.728 0C48.2601 -4.3e-08 47.7921 0.351563 47.7252 0.843751L42.2434 29.7422L36.962 7.59375C36.8283 7.10156 36.4272 6.75 36.026 6.75C35.4912 6.67969 35.0902 6.96094 34.9564 7.45312L30.9453 18H0.53482C0.267411 18 1.22738e-07 18.2109 9.35103e-08 18.5625L0 19.6875C-2.33704e-08 19.9688 0.26741 20.25 0.534819 20.25H31.6138Z" fill="#0A9A9A"/>
</g>
</g>
<defs>
<clipPath id="clip0_28_34">
<rect width="1138" height="36" fill="white"/>
</clipPath>
</defs>
</svg>
