<svg width="757" height="643" viewBox="0 0 757 643" fill="none" xmlns="http://www.w3.org/2000/svg">
<g style="mix-blend-mode:soft-light" opacity="0.8">
<path d="M509.794 76.7743C457.755 40.1539 396.399 20.8801 332.153 20.8801C161.579 20.8801 22.8071 159.652 22.8071 330.226C22.8071 484.738 138.129 616.443 291.035 637.002C291.999 637.002 292.642 637.323 293.605 637.323C294.89 637.323 295.854 637.323 297.139 637.002C302.6 651.457 315.449 662.7 331.832 664.949C333.759 665.27 336.008 665.27 337.935 665.27C359.458 665.27 377.768 649.209 380.98 628.007C382.586 616.443 379.695 605.2 372.628 595.884C365.561 586.569 355.603 580.786 344.039 579.18C342.111 578.859 339.863 578.859 337.935 578.859C322.195 578.859 308.061 587.532 300.351 600.703C299.066 600.06 297.781 599.739 296.175 599.739C161.9 581.429 61.0337 465.786 61.0337 330.226C61.0337 180.532 182.78 58.7854 332.474 58.7854C388.69 58.7854 442.335 75.8106 488.272 107.934C496.945 114.037 508.509 111.789 514.613 103.437C520.716 94.7633 518.467 82.8777 509.794 76.7743ZM318.983 619.334C320.267 610.018 328.298 602.951 337.614 602.951C338.578 602.951 339.541 602.951 340.184 603.273C350.463 604.879 357.852 614.194 356.245 624.795C354.96 634.111 346.93 641.178 337.614 641.178C336.65 641.178 335.687 641.178 335.044 640.857C324.765 639.25 317.698 629.614 318.983 619.334Z" fill="white" fill-opacity="0.2"/>
<path d="M631.861 575.647C628.006 575.647 623.83 574.362 620.617 571.471C613.55 565.367 612.908 554.445 619.011 547.378C670.729 488.272 699.319 412.14 699.319 333.438C699.319 253.13 669.766 176.356 616.441 116.607C610.017 109.54 610.659 98.618 617.726 92.5146C624.793 86.09 635.715 86.7325 641.819 93.7996C700.925 159.652 733.37 244.778 733.37 333.438C733.37 420.492 701.889 504.333 644.389 569.865C641.176 573.719 636.679 575.647 631.861 575.647Z" fill="white" fill-opacity="0.2"/>
<path d="M503.046 475.422C499.513 475.422 495.979 474.459 492.767 471.889C485.057 466.107 483.772 455.506 489.233 447.797C514.611 413.746 528.102 372.95 528.102 330.226C528.102 287.823 514.611 247.348 489.555 213.298C483.772 205.588 485.379 194.987 493.088 189.527C500.798 183.744 511.398 185.35 516.859 193.06C546.413 233.214 562.153 280.435 562.153 330.547C562.153 380.659 546.413 428.523 516.217 468.677C513.326 472.853 508.186 475.422 503.046 475.422Z" fill="white" fill-opacity="0.2"/>
<path d="M580.145 142.627C574.041 135.238 563.441 134.275 556.052 140.378C548.664 146.482 547.7 157.082 553.804 164.471C592.351 211.049 613.553 269.834 613.553 330.547C613.553 412.782 574.684 490.199 509.152 539.348L426.917 439.766C457.113 413.104 476.066 374.556 476.066 331.19C476.066 310.952 471.89 291.678 464.501 274.332C468.356 268.871 471.247 262.125 472.211 255.058C475.423 231.287 459.04 209.443 435.269 205.909C433.342 205.588 431.093 205.588 429.166 205.588C407.643 205.588 389.333 221.65 386.121 242.851C384.515 254.415 387.406 265.658 394.473 274.974C401.54 284.29 411.498 290.072 423.062 291.678C424.99 291.999 427.238 291.999 429.166 291.999C433.021 291.999 436.554 291.357 440.409 290.393C445.227 302.921 447.797 316.413 447.797 330.547C447.797 394.472 395.758 446.512 331.833 446.512C306.134 446.512 282.363 438.16 263.41 424.026C265.338 419.85 266.944 415.352 267.586 410.855C269.193 399.291 266.301 388.048 259.234 378.732C252.167 369.416 242.209 363.634 230.645 362.028C228.717 361.707 226.469 361.707 224.541 361.707C203.019 361.707 184.709 377.768 181.496 398.969C178.284 422.741 194.667 444.584 218.438 448.118C220.365 448.439 222.614 448.439 224.541 448.439C230.966 448.439 237.069 447.154 242.53 444.584C267.265 463.858 298.103 475.423 331.833 475.423C358.174 475.423 382.587 468.355 403.789 456.149L497.909 569.543C501.122 573.719 506.261 575.968 511.08 575.968C514.292 575.968 517.826 575.004 520.717 572.756C600.382 517.504 647.603 426.917 647.603 330.226C647.603 262.125 623.832 195.309 580.145 142.627ZM429.166 268.228C428.202 268.228 427.238 268.228 426.596 267.907C416.317 266.301 408.928 256.985 410.534 246.385C411.819 237.069 419.85 230.002 429.166 230.002C430.13 230.002 431.093 230.002 431.736 230.323C442.015 231.929 449.403 241.245 447.797 251.845C446.512 261.161 438.482 268.228 429.166 268.228ZM243.173 407.964C241.888 417.28 233.857 424.347 224.541 424.347C223.578 424.347 222.614 424.347 221.972 424.026C211.692 422.419 204.304 413.104 205.91 402.503C207.195 393.187 215.226 386.12 224.541 386.12C225.505 386.12 226.469 386.12 227.111 386.441C237.391 388.048 244.458 397.685 243.173 407.964Z" fill="white" fill-opacity="0.2"/>
</g>
</svg>
