<svg width="378" height="114" viewBox="0 0 378 114" fill="none" xmlns="http://www.w3.org/2000/svg">
<path d="M62.011 113.04L69.056 74.33H42.304L40.1439 86.211C37.4521 101.026 47.2389 113.04 62.011 113.04Z" fill="#0A9A9A"/>
<path d="M0.514496 70.414H39.1137L43.9989 43.5857H32.1516C17.3633 43.5857 3.2063 55.6002 0.514496 70.414Z" fill="#0A9A9A"/>
<path d="M74.639 43.5857C59.867 43.5857 45.6938 55.6002 43.002 70.414H69.754H85.506C100.278 70.414 114.451 58.3997 117.143 43.5857H74.639Z" fill="#48AE4D"/>
<path d="M67.162 40.7362C67.195 40.7195 67.228 40.7195 67.278 40.7029C67.411 40.6696 67.56 40.6362 67.693 40.6029C67.876 40.5529 68.076 40.5196 68.258 40.4696C68.275 40.4696 68.308 40.4529 68.325 40.4529C69.837 40.1196 71.382 39.8864 72.944 39.7697C72.977 39.7697 73.011 39.7697 73.044 39.7697C73.26 39.753 73.476 39.7364 73.692 39.7364C73.742 39.7364 73.792 39.7364 73.858 39.7197C74.057 39.7031 74.257 39.7031 74.456 39.7031C74.523 39.7031 74.572 39.7031 74.639 39.7031C74.888 39.7031 75.137 39.6864 75.387 39.6864L77.547 27.8052C80.239 12.9911 70.452 0.976593 55.6634 0.976593L47.887 43.5857L45.7269 55.4169C51.0275 48.2849 58.737 42.9192 67.162 40.7362Z" fill="#48AE4D"/>
<path d="M148.381 61.4159H170.082L169.401 65.199C168.171 72.064 162.206 77.08 155.244 77.08H128.309L139.226 15.0074C148.315 15.0074 155.177 23.256 153.582 32.2211L148.381 61.4159Z" fill="#48AE4D"/>
<path d="M216.325 30.9546C219.349 30.9546 222.173 31.1879 224.799 31.6212L217.238 74.647C215.51 75.547 212.436 76.48 208.05 77.413C203.646 78.346 198.944 78.813 193.943 78.813C187.329 78.813 182.478 77.53 179.354 74.947C176.246 72.364 174.685 68.498 174.685 63.349C174.685 61.4825 174.884 59.4162 175.266 57.1666L179.752 31.6378C182.527 31.1879 185.502 30.9713 188.659 30.9713C191.616 30.9713 194.424 31.1879 197.083 31.6212L192.68 56.6667C192.514 58.0831 192.431 59.0996 192.431 59.6662C192.431 61.1493 192.829 62.2324 193.644 62.9156C194.441 63.599 195.82 63.932 197.748 63.932C199.027 63.932 200.406 63.765 201.902 63.449L207.501 31.6378C210.226 31.1879 213.184 30.9546 216.325 30.9546Z" fill="#48AE4D"/>
<path d="M273.019 13.1578C276.093 13.1578 278.951 13.3911 281.593 13.841L270.892 74.664C264.91 77.43 257.815 78.829 249.59 78.829C242.013 78.829 236.264 77.08 232.342 73.564C228.421 70.048 226.46 65.032 226.46 58.5331C226.46 49.768 229.368 42.7692 235.184 37.5535C240.999 32.3377 248.061 29.7215 256.353 29.7215C258.413 29.7215 260.075 29.8548 261.371 30.1048L264.262 13.8577C267.02 13.3911 269.928 13.1578 273.019 13.1578ZM244.107 55.8002C244.107 58.3164 244.821 60.3661 246.267 61.9325C247.712 63.516 249.706 64.299 252.265 64.299C253.295 64.299 254.309 64.199 255.339 63.999L258.762 44.7688C257.599 44.4522 256.353 44.2856 255.007 44.2856C251.983 44.2856 249.424 45.3021 247.297 47.335C245.153 49.3847 244.107 52.2008 244.107 55.8002Z" fill="#48AE4D"/>
<path d="M296.165 78.913C291.728 78.913 287.79 78.313 284.351 77.13C280.911 75.93 278.386 74.53 276.774 72.931C278.319 67.648 280.978 63.849 284.783 61.5159C289.086 64.682 293.589 66.248 298.275 66.248C301.482 66.248 303.094 65.515 303.094 64.032C303.094 63.199 302.396 62.4657 301.017 61.8491C299.638 61.2326 297.959 60.6493 295.999 60.1161C294.038 59.5662 292.094 58.8663 290.166 57.9832C288.239 57.1 286.577 55.7169 285.198 53.7839C283.819 51.8509 283.121 49.468 283.121 46.6352C283.321 41.2861 285.647 37.1202 290.117 34.154C294.586 31.1879 299.87 29.7048 305.985 29.7048C314.343 29.7048 320.806 31.2212 325.359 34.254C323.748 39.8697 321.238 43.8023 317.832 46.0519C316.42 45.1521 314.426 44.3356 311.85 43.5857C309.275 42.8525 306.899 42.4692 304.722 42.4692C302.08 42.4692 300.767 43.2191 300.767 44.6855C300.767 45.4021 301.465 45.9853 302.844 46.4685C304.224 46.9518 305.902 47.4517 307.863 47.9683C309.823 48.4848 311.784 49.1681 313.745 50.0012C315.705 50.8344 317.384 52.2508 318.763 54.2505C320.142 56.2501 320.84 58.6997 320.84 61.5992C320.84 66.815 318.763 71.014 314.625 74.164C310.488 77.33 304.323 78.913 296.165 78.913Z" fill="#48AE4D"/>
<path d="M357.279 29.7048C365.088 29.7048 371.818 31.2379 377.451 34.3207L369.741 77.563C365.969 78.33 362.23 78.33 358.542 77.563L357.395 73.214C353.308 76.946 348.555 78.829 343.122 78.829C337.788 78.829 333.617 77.146 330.643 73.797C327.652 70.448 326.157 65.832 326.157 59.9661C326.157 50.8178 329.081 43.4857 334.947 37.97C340.796 32.4544 348.24 29.7048 357.279 29.7048ZM343.886 57.3499C343.886 61.9325 345.814 64.215 349.669 64.215C352.045 64.215 353.939 63.249 355.351 61.3159L358.243 44.8855C357.212 44.6355 355.966 44.5022 354.487 44.5022C351.53 44.5022 349.021 45.6353 346.96 47.8849C344.916 50.1345 343.886 53.3007 343.886 57.3499Z" fill="#48AE4D"/>
<path d="M156.157 88.894H158.118L160.096 100.642H158.002L157.553 97.826H152.053L150.126 100.642H147.899L156.157 88.894ZM157.287 95.993L156.54 91.277L153.283 95.993H157.287Z" fill="#0A9A9A"/>
<path d="M161.641 99.043C161.641 98.709 161.691 98.359 161.79 98.026L162.97 93.56H161.857L162.322 91.827H163.435L164.083 89.411H166.094L165.446 91.827H167.789L167.324 93.56H164.981L163.851 97.809C163.818 97.976 163.784 98.176 163.784 98.309C163.784 98.759 164.1 98.993 164.665 98.993C165.064 98.993 165.512 98.893 165.944 98.709L165.479 100.459C164.997 100.676 164.449 100.776 163.834 100.776C162.422 100.776 161.641 100.076 161.641 99.043Z" fill="#0A9A9A"/>
<path d="M169.517 96.926C169.517 98.259 170.298 99.176 171.793 99.176C172.641 99.176 173.289 98.893 174.036 98.326L175 99.609C174.186 100.292 173.106 100.826 171.594 100.826C169.151 100.826 167.606 99.343 167.606 96.976C167.606 95.577 168.204 94.16 169.218 93.144C170.115 92.244 171.345 91.644 172.774 91.644C175.033 91.644 176.28 93.144 176.28 95.06C176.28 95.676 176.147 96.326 175.897 96.926H169.517ZM169.733 95.593H174.286C174.335 95.443 174.369 95.227 174.369 94.977C174.369 94.06 173.837 93.294 172.624 93.294C171.826 93.294 171.129 93.627 170.597 94.16C170.215 94.543 169.916 95.043 169.733 95.593Z" fill="#0A9A9A"/>
<path d="M178.938 91.827H180.949L180.65 92.944C181.348 92.26 182.195 91.644 183.325 91.644C184.937 91.644 185.983 92.66 185.983 94.277C185.983 94.743 185.851 95.31 185.718 95.826L184.455 100.626H182.444L183.74 95.743C183.823 95.46 183.873 95.11 183.873 94.86C183.873 93.977 183.308 93.477 182.345 93.477C181.215 93.477 180.284 94.377 179.935 95.676L178.623 100.626H176.595L178.938 91.827Z" fill="#0A9A9A"/>
<path d="M187.163 96.91C187.163 95.46 187.761 94.143 188.708 93.194C189.656 92.244 190.952 91.644 192.347 91.644C194.225 91.644 195.305 92.577 195.903 93.644L194.341 94.71C193.876 93.96 193.311 93.394 192.181 93.394C191.483 93.394 190.785 93.727 190.254 94.26C189.606 94.927 189.174 95.876 189.174 96.893C189.174 98.259 190.121 99.093 191.251 99.093C192.131 99.093 192.796 98.726 193.494 98.109L194.557 99.426C193.643 100.259 192.663 100.826 191.184 100.826C188.924 100.826 187.163 99.309 187.163 96.91Z" fill="#0A9A9A"/>
<path d="M197.98 91.827H199.991L197.631 100.626H195.621L197.98 91.827ZM198.778 88.578H200.954L200.423 90.494H198.263L198.778 88.578Z" fill="#0A9A9A"/>
<path d="M209.811 95.676C209.811 97.026 209.229 98.343 208.266 99.293C207.352 100.226 206.089 100.826 204.693 100.826C202.184 100.826 200.572 99.126 200.572 96.81C200.572 95.443 201.154 94.143 202.118 93.177C203.032 92.244 204.294 91.644 205.69 91.644C208.199 91.661 209.811 93.36 209.811 95.676ZM206.754 98.226C207.435 97.559 207.817 96.576 207.817 95.726C207.817 94.227 206.903 93.394 205.574 93.394C204.826 93.394 204.145 93.743 203.63 94.243C202.948 94.91 202.566 95.893 202.566 96.743C202.566 98.243 203.48 99.076 204.809 99.076C205.574 99.076 206.255 98.743 206.754 98.226ZM208.116 87.995L209.911 88.811L207.368 90.727H205.624L208.116 87.995Z" fill="#0A9A9A"/>
<path d="M212.669 91.827H214.679L214.38 92.944C215.078 92.26 215.926 91.644 217.055 91.644C218.667 91.644 219.714 92.66 219.714 94.277C219.714 94.743 219.581 95.31 219.448 95.826L218.185 100.626H216.175L217.471 95.743C217.554 95.46 217.604 95.11 217.604 94.86C217.604 93.977 217.039 93.477 216.075 93.477C214.945 93.477 214.015 94.377 213.666 95.676L212.353 100.626H210.326L212.669 91.827Z" fill="#0A9A9A"/>
<path d="M227.241 91.827H229.252L228.953 92.944C229.651 92.244 230.415 91.644 231.528 91.644C232.824 91.644 233.622 92.41 233.921 93.41C234.702 92.36 235.798 91.644 237.211 91.644C238.789 91.644 239.82 92.677 239.82 94.277C239.82 94.743 239.67 95.31 239.537 95.826L238.258 100.626H236.247L237.56 95.743C237.626 95.46 237.676 95.11 237.676 94.86C237.676 93.977 237.161 93.477 236.247 93.477C235.15 93.477 234.253 94.377 233.921 95.676L232.592 100.626H230.581L231.894 95.743C231.96 95.46 232.01 95.11 232.01 94.86C232.01 93.977 231.495 93.477 230.581 93.477C229.468 93.477 228.587 94.377 228.238 95.676L226.925 100.626H224.898L227.241 91.827Z" fill="#0A9A9A"/>
<path d="M242.91 96.926C242.91 98.259 243.691 99.176 245.187 99.176C246.034 99.176 246.682 98.893 247.43 98.326L248.393 99.609C247.579 100.292 246.499 100.826 244.987 100.826C242.545 100.826 240.999 99.342 240.999 96.976C240.999 95.576 241.597 94.16 242.611 93.144C243.508 92.244 244.738 91.644 246.167 91.644C248.427 91.644 249.673 93.144 249.673 95.06C249.673 95.676 249.54 96.326 249.291 96.926H242.91ZM243.126 95.593H247.679C247.729 95.443 247.762 95.227 247.762 94.977C247.762 94.06 247.23 93.294 246.017 93.294C245.22 93.294 244.522 93.627 243.99 94.16C243.608 94.543 243.309 95.043 243.126 95.593ZM248.393 87.995L250.188 88.811L247.646 90.727H245.901L248.393 87.995Z" fill="#0A9A9A"/>
<path d="M256.851 99.459C256.07 100.259 255.189 100.809 254.043 100.809C252.099 100.809 250.62 99.376 250.62 97.043C250.62 95.427 251.251 94.043 252.215 93.077C253.112 92.177 254.292 91.644 255.505 91.644C257.05 91.644 257.931 92.41 258.463 93.394L259.775 88.461H261.786L258.546 100.626H256.535L256.851 99.459ZM256.868 98.159C257.532 97.493 257.964 96.576 257.964 95.593C257.964 94.31 257.05 93.377 255.738 93.377C255.007 93.377 254.309 93.693 253.777 94.227C253.129 94.877 252.714 95.826 252.714 96.91C252.714 98.243 253.544 99.076 254.807 99.076C255.555 99.076 256.303 98.743 256.868 98.159Z" fill="#0A9A9A"/>
<path d="M263.232 91.827H265.242L262.883 100.626H260.872L263.232 91.827ZM264.029 88.578H266.206L265.674 90.494H263.514L264.029 88.578Z" fill="#0A9A9A"/>
<path d="M265.824 96.91C265.824 95.46 266.422 94.143 267.369 93.194C268.316 92.244 269.612 91.644 271.008 91.644C272.886 91.644 273.966 92.577 274.564 93.644L273.002 94.71C272.537 93.96 271.972 93.394 270.842 93.394C270.144 93.394 269.446 93.727 268.914 94.26C268.266 94.927 267.834 95.876 267.834 96.893C267.834 98.259 268.781 99.093 269.911 99.093C270.792 99.093 271.457 98.726 272.154 98.109L273.218 99.426C272.304 100.259 271.324 100.826 269.845 100.826C267.585 100.826 265.824 99.309 265.824 96.91Z" fill="#0A9A9A"/>
<path d="M274.281 98.409C274.281 97.526 274.597 96.826 275.112 96.293C275.81 95.61 276.873 95.227 278.12 95.227C279.15 95.227 280.064 95.427 280.845 95.66L280.895 95.51C280.944 95.293 280.994 95.043 280.994 94.777C280.994 93.96 280.429 93.444 279.05 93.444C278.17 93.444 277.355 93.644 276.657 93.927L276.325 92.294C277.222 91.944 278.253 91.711 279.449 91.711C281.742 91.711 282.955 92.71 282.955 94.427C282.955 94.86 282.872 95.277 282.772 95.71L281.46 100.626H279.515L279.815 99.459C279.067 100.292 278.103 100.809 276.923 100.809C275.428 100.809 274.281 99.859 274.281 98.409ZM280.413 97.26L280.529 96.86C279.964 96.676 279.2 96.526 278.402 96.526C277.671 96.526 277.089 96.743 276.707 97.11C276.425 97.393 276.275 97.759 276.275 98.176C276.275 98.876 276.824 99.359 277.704 99.359C278.934 99.359 280.08 98.443 280.413 97.26Z" fill="#0A9A9A"/>
<path d="M290.731 96.926C290.731 98.259 291.512 99.176 293.008 99.176C293.855 99.176 294.503 98.893 295.251 98.326L296.215 99.609C295.4 100.292 294.32 100.826 292.808 100.826C290.366 100.826 288.82 99.343 288.82 96.976C288.82 95.577 289.419 94.16 290.432 93.144C291.329 92.244 292.559 91.644 293.988 91.644C296.248 91.644 297.494 93.144 297.494 95.06C297.494 95.676 297.361 96.326 297.112 96.926H290.731ZM290.947 95.593H295.5C295.55 95.443 295.583 95.227 295.583 94.977C295.583 94.06 295.051 93.294 293.839 93.294C293.041 93.294 292.343 93.627 291.811 94.16C291.413 94.543 291.13 95.043 290.947 95.593Z" fill="#0A9A9A"/>
<path d="M300.136 91.827H302.147L301.847 92.944C302.545 92.26 303.393 91.644 304.523 91.644C306.134 91.644 307.181 92.66 307.181 94.277C307.181 94.743 307.048 95.31 306.915 95.826L305.652 100.626H303.642L304.938 95.743C305.021 95.46 305.071 95.11 305.071 94.86C305.071 93.977 304.506 93.477 303.542 93.477C302.412 93.477 301.482 94.377 301.133 95.676L299.82 100.626H297.793L300.136 91.827Z" fill="#0A9A9A"/>
<path d="M315.755 88.478H317.766L314.509 100.642H312.498L315.755 88.478Z" fill="#0A9A9A"/>
<path d="M319.278 91.827H321.288L318.929 100.626H316.918L319.278 91.827ZM322.186 87.995L323.98 88.811L321.438 90.727H319.693L322.186 87.995Z" fill="#0A9A9A"/>
<path d="M323.565 91.827H325.575L325.276 92.944C325.974 92.26 326.822 91.644 327.951 91.644C329.563 91.644 330.61 92.66 330.61 94.277C330.61 94.743 330.477 95.31 330.344 95.826L329.081 100.626H327.071L328.367 95.743C328.45 95.46 328.5 95.11 328.5 94.86C328.5 93.977 327.935 93.477 326.971 93.477C325.841 93.477 324.911 94.377 324.562 95.676L323.249 100.626H321.222L323.565 91.827Z" fill="#0A9A9A"/>
<path d="M333.701 96.926C333.701 98.259 334.481 99.176 335.977 99.176C336.824 99.176 337.472 98.893 338.22 98.326L339.184 99.609C338.37 100.292 337.29 100.826 335.778 100.826C333.335 100.826 331.79 99.343 331.79 96.976C331.79 95.577 332.388 94.16 333.401 93.144C334.299 92.244 335.528 91.644 336.957 91.644C339.217 91.644 340.463 93.144 340.463 95.06C340.463 95.676 340.33 96.326 340.081 96.926H333.701ZM333.917 95.593H338.469C338.519 95.443 338.552 95.227 338.552 94.977C338.552 94.06 338.021 93.294 336.808 93.294C336.01 93.294 335.312 93.627 334.781 94.16C334.398 94.543 334.099 95.043 333.917 95.593Z" fill="#0A9A9A"/>
<path d="M340.895 98.409C340.895 97.526 341.211 96.826 341.726 96.293C342.424 95.61 343.487 95.227 344.734 95.227C345.764 95.227 346.678 95.427 347.459 95.66L347.508 95.51C347.558 95.293 347.608 95.043 347.608 94.777C347.608 93.96 347.043 93.444 345.664 93.444C344.783 93.444 343.969 93.644 343.271 93.927L342.939 92.294C343.836 91.944 344.867 91.711 346.063 91.711C348.356 91.711 349.569 92.71 349.569 94.427C349.569 94.86 349.486 95.277 349.386 95.71L348.073 100.626H346.129L346.428 99.459C345.681 100.292 344.717 100.809 343.537 100.809C342.042 100.809 340.895 99.859 340.895 98.409ZM347.027 97.26L347.143 96.86C346.578 96.676 345.814 96.526 345.016 96.526C344.285 96.526 343.703 96.743 343.321 97.11C343.039 97.393 342.889 97.759 342.889 98.176C342.889 98.876 343.438 99.359 344.318 99.359C345.531 99.359 346.694 98.443 347.027 97.26Z" fill="#0A9A9A"/>
</svg>
