<svg width="1078" height="36" viewBox="0 0 1078 36" fill="none" xmlns="http://www.w3.org/2000/svg">
<g clip-path="url(#clip0_1_2)">
<mask id="mask0_1_2" style="mask-type:luminance" maskUnits="userSpaceOnUse" x="0" y="0" width="1081" height="36">
<path d="M1081 0H0V36H1081V0Z" fill="white"/>
</mask>
<g mask="url(#mask0_1_2)">
<path d="M33.0917 19.634L35.5794 13.1498L40.8209 35.2014C40.9108 35.5795 41.0992 35.8901 41.3764 36.1154C41.6488 36.3368 41.9767 36.4516 42.3119 36.4956L42.3817 36.5048L42.4513 36.4943C43.0641 36.4023 43.7612 35.9351 43.8733 35.1674L48.9179 8.57384L51.5175 19.452L51.5193 19.4594L51.5213 19.4668C51.6159 19.8151 51.8225 20.1239 52.0687 20.3475C52.3081 20.565 52.64 20.7499 53.0066 20.7499H1081.47C1082.14 20.7499 1082.5 20.1762 1082.5 19.6875V18.5625C1082.5 18.2939 1082.42 18.0178 1082.22 17.8056C1082.02 17.5899 1081.74 17.5 1081.47 17.5L54.2708 17.4999L50.2841 0.728C50.1949 0.352421 50.0059 0.0346243 49.7171 -0.186326C49.4302 -0.405753 49.0835 -0.500122 48.728 -0.500122C48.0462 -0.500122 47.3433 -0.00048095 47.2318 0.761932L42.1877 27.3529L37.4484 7.47766L37.4466 7.47009L37.4445 7.46258C37.2723 6.82848 36.7323 6.26879 36.0602 6.25035C35.6997 6.20931 35.3519 6.2814 35.0627 6.47499C34.7733 6.66873 34.578 6.96033 34.4811 7.29624L30.6005 17.4999H0.53482C0.00867438 17.4999 -0.5 17.9175 -0.5 18.5624V19.6874C-0.5 19.9819 -0.364457 20.2407 -0.195216 20.4186C-0.0275085 20.595 0.229397 20.7499 0.534819 20.7499H31.6138C32.2918 20.7499 32.8895 20.3348 33.0917 19.634Z" fill="#FAB63F" stroke="#FAB63F"/>
</g>
</g>
<defs>
<clipPath id="clip0_1_2">
<rect width="1078" height="36" fill="white"/>
</clipPath>
</defs>
</svg>
