<svg width="104" height="103" viewBox="0 0 104 103" fill="none" xmlns="http://www.w3.org/2000/svg">
<rect width="104" height="103" rx="51.5" fill="url(#paint0_linear_312_16258)"/>
<path d="M83.625 54.375C84.75 57.125 82.875 60 79.5 60H75.625V68.125C75.625 72.5 72.125 76 67.75 76H59.75V82C59.75 83.125 58.875 84 57.75 84C56.75 84 55.875 83.125 55.875 82L56 74C56 73 56.875 72 58 72H68C70.125 72 72 70.25 72 68V58C72 57 72.875 56 74 56H79.875C78.875 53.625 77.75 50.25 76.375 46.625C74.625 41.75 72.625 35.625 71.125 33.375C67 27.5 60.25 24 53.125 24H44.875C33.75 24 24.375 32.625 24 43.25C23.75 49.25 26.125 54.875 30.625 58.875L31.75 60.125V82C31.75 83.125 30.875 84 29.875 84C28.75 84 27.875 83.125 27.875 82L28 61.875C22.875 57.375 19.625 50.625 20 43.125C20.5 30.125 31.875 20 45 20H53.25C61.75 20 69.625 24.25 74.5 31.125C77.5 35.5 81 48.5 83.625 54.375ZM61 48H57.875C57.375 51.5 54.5 54 51 54C49.875 54 49 53.125 49 52C49 51 49.875 50 51 50C52.625 50 54 48.75 54 47C53.875 47 53.75 46.5 53.75 46.5C53.625 45.875 53.75 45.25 54.125 44.75C54.5 44.375 55.125 44 55.75 44H61C62.625 44 64 42.75 64 41C64 39.375 62.625 38 61 38C61 38 60.75 38.125 60.375 38.25C59.875 38.375 59.25 38.375 58.75 38C58.25 37.75 57.875 37.25 57.75 36.625C57.625 35.125 56.375 34 55 34C54.5 34 54 34.25 53.375 34.625C53 34.875 52.375 35 51.875 34.75C51.25 34.625 50.875 34.25 50.625 33.75C49.5 31.625 46.375 31.625 45.25 33.75C45 34.25 44.625 34.625 44 34.75C43.5 35 42.875 34.875 42.5 34.625C41.875 34.25 41.375 34 41 34C39.375 34 38 35.25 38 36.875C38 37 38 37.125 38 37.125C38 37.75 37.75 38.375 37.25 38.75C36.75 39.25 36.125 39.375 35.5 39.25L35.125 39.125C33.25 39 32 40.375 32 42C32 43.5 33 44.625 34.375 44.875C35.375 45.125 36 46 36 46.875C36 47 36 47.125 36 47.25C36 48.75 37.375 50 39 50H42C43 50 44 51 44 52V58C44 59.125 43 60 42 60C40.875 60 40 59.125 40 58V54H39C35.5 54 32.625 51.625 32 48.375C29.625 47.25 28 44.875 28 42C28 38.375 30.75 35.375 34.25 35.125C35.375 31.5 39.125 29.125 42.75 30.375C45.375 27.5 50.5 27.5 53.125 30.375C56.375 29.25 59.75 31.125 61.125 34.125C64.875 34.25 68 37.25 68 41C68 44.875 64.75 48 61 48Z" fill="white"/>
<rect x="2" y="2" width="100" height="99" rx="49.5" stroke="white" stroke-opacity="0.2" stroke-width="4"/>
<defs>
<linearGradient id="paint0_linear_312_16258" x1="52" y1="22" x2="46" y2="107.5" gradientUnits="userSpaceOnUse">
<stop stop-color="#FF7500"/>
<stop offset="1" stop-color="#5867DD"/>
</linearGradient>
</defs>
</svg>
