<svg width="62" height="62" viewBox="0 0 62 62" fill="none" xmlns="http://www.w3.org/2000/svg">
<g clip-path="url(#clip0_1_2901)">
<path d="M30.7 0C13.7 0 0 13.8 0 30.7C0 47.6 13.8 61.4 30.7 61.4C47.6 61.4 61.4 47.6 61.4 30.7C61.4 13.8 47.7 0 30.7 0ZM30.3 12.8C31.3 13.5 32.1 14.3 33.2 15.3C33.4 15.5 33.6 15.7 34.3 15.5C35.7 15.1 39 13.5 41.4 13.2C42.5 13.1 42.8 13.2 43.4 13.8C44.6 14.9 45.6 15.6 46.3 16.5C43.9 16.8 43.1 17 42.6 17.1L42.3 17.2C41.2 17.5 40.9 18.2 40.8 18.6C40.8 18.7 40.7 18.9 40.7 19.1C40.7 19.5 40.8 19.9 41.2 20.4C41.8 21.4 42.2 22.1 42.4 22.6C40.1 23.3 37.6 24.3 36.5 24.8C35.8 25.1 35.3 25.7 35.2 26.4V26.8C35.2 27.2 35.3 27.8 35.9 28.4C37.6 30.2 39.5 34.3 39.5 38.8C39.5 39.8 39.4 40.8 39.2 41.8C38.3 46.5 35.1 50.1 29.8 52.4C27.1 53.6 24.3 53.9 21.5 53.8H22C27.3 53.2 31 51.3 33.6 46.7C37.2 40.4 34.5 32.6 29.1 28.2C27.6 27 25.8 26 24.2 25C23.8 24.7 23.5 24.4 24.1 23.7C25 22.5 26.4 20.5 28.9 18.6C29.4 18.2 29.2 18 29 17.7C28.1 17 27.6 16.6 26.5 15.9C25.9 15.6 25.7 15.3 26.1 14.9C26.6 14.4 27.5 13.7 29.5 12.8C29.6 12.4 30 12.6 30.3 12.8ZM10.3 18.2C10.7 17.4 11.7 15.5 12.6 14.4C12.8 14.1 13 14 13.5 14.1C14.4 14.2 15.9 14.9 17.9 15.4C18.3 15.5 18.5 15.5 18.8 15.1C19.6 14.2 21.9 12.1 25.6 10.5C26 10.3 26.6 10.3 27.1 10.6C27.5 10.8 28 11 28.6 11.3C26.8 12.1 25.9 12.8 25.2 13.5C24.6 14.1 24.5 14.7 24.5 15.1V15.4C24.6 16.1 25 16.7 25.8 17.1L25.9 17.2C25.9 17.2 25.8 17.2 25.8 17.1C26.4 17.4 26.8 17.7 27.2 18C25.2 19.8 23.9 21.5 23.1 22.6C22.5 23.4 22.4 24.1 22.5 24.6C22.6 25.1 22.8 25.7 23.7 26.2L24.5 26.7C25.9 27.5 27.2 28.3 28.4 29.3C32.9 33 35.8 39.9 32.5 45.8C30.3 49.7 27.1 51.8 22.1 52.4C20.3 52.6 18.6 52.5 17 52.1C17.7 52.2 18.3 52.2 19 52.2C22.7 52.1 26.7 50.8 28.7 47.6C33.8 39.5 27.9 31.2 20 28.6C18.2 28 15.2 27.4 12.9 27.1C12 27 11.8 26.7 12.1 26.1C12.6 25.1 13.5 23.1 15.2 20.5C15.3 20.4 15.2 20.1 14.9 20C14 19.8 12.3 19.3 10.8 19.1C10.3 18.9 10.1 18.7 10.3 18.2ZM34.9 58.4C17.2 61.1 8.2 47.8 8.2 47.8C12.3 51.7 19.2 58.1 29.7 53.3C44.9 46.5 40.4 31.3 36.3 26.8C35.8 26.3 36.1 25.8 36.5 25.7C37.7 25.2 40.9 23.9 43.4 23.3C43.7 23.2 43.7 23.1 43.6 22.7C43.4 22.1 43.1 21.1 41.9 19.1C41.5 18.7 41.7 18.4 42.1 18.3C42.7 18.2 43.1 18 46.3 17.6C46.6 17.5 47 17.7 47.2 18C47.9 19.2 48.4 20.4 48.9 22C48.9 22.2 49.2 22.5 49.5 22.5C50.7 22.5 54.9 22.6 57.1 23C57.3 23 57.7 23.2 57.7 23.5C58.3 25.3 59.6 33.8 55.8 42.8C51.3 53 43 57.1 34.9 58.4Z" fill="#FF7500"/>
</g>
<defs>
<clipPath id="clip0_1_2901">
<rect width="61.4" height="61.4" fill="white"/>
</clipPath>
</defs>
</svg>
