<svg width="371" height="93" viewBox="0 0 371 93" fill="none" xmlns="http://www.w3.org/2000/svg">
<g clip-path="url(#clip0_312_16222)">
<path d="M89.3609 64.2655L91.8924 64.0127C94.677 63.7598 94.677 63.3806 94.677 54.7841V30.1326C94.677 21.5362 94.677 21.1569 91.8924 20.9041L89.3609 20.6512V19.0078H107.841C114.549 19.0078 125.054 20.0192 125.054 31.776C125.054 41.3838 114.296 45.9349 107.587 45.9349H106.322V44.4179C109.359 44.4179 117.587 43.0273 117.587 32.2817C117.587 23.9381 112.017 21.4098 105.562 21.4098C104.043 21.4098 102.524 21.6626 101.132 22.0418V54.9106C101.132 63.507 101.132 63.8863 105.056 64.1391L107.587 64.3919V65.9089H89.2344V64.2655H89.3609Z" fill="white"/>
<path d="M124.547 47.3256C124.547 35.0631 134.04 27.3516 145.052 27.3516C156.063 27.3516 164.417 34.0517 164.417 46.6935C164.417 59.3354 155.304 66.6676 143.912 66.6676C132.774 66.6676 124.547 59.5882 124.547 47.3256ZM145.178 64.7713C154.924 64.7713 158.595 56.4277 158.595 48.0841C158.595 37.3386 153.279 29.1214 144.292 29.1214C135.306 29.1214 130.749 36.2008 130.749 46.0614C130.622 57.8183 136.571 64.7713 145.178 64.7713Z" fill="white"/>
<path d="M181.761 44.2916C186.317 46.82 191 49.2219 191 56.0485C191 63.76 183.912 66.6676 177.837 66.6676C173.407 66.6676 170.622 65.5298 168.85 64.3921C167.838 62.1166 167.078 57.9448 167.078 54.405L168.85 53.8994C169.483 57.9448 171.635 64.7713 179.356 64.7713C183.279 64.7713 186.191 62.243 186.191 57.8183C186.191 53.6465 182.647 50.8653 178.216 48.8426L174.546 46.82C171.255 45.0501 168.217 41.5104 168.217 37.2122C168.217 30.2592 174.04 27.3516 180.115 27.3516C183.659 27.3516 186.57 28.2365 187.963 29.1214C188.469 30.8913 188.595 35.5687 188.595 36.9593H187.203C186.57 34.0517 185.684 29.1214 179.229 29.1214C175.938 29.1214 173.027 31.5234 173.027 35.3159C173.027 38.7292 175.432 40.499 178.596 42.2689L181.761 44.2916Z" fill="white"/>
<path d="M191.125 64.6453L193.15 64.5189C195.428 64.266 195.428 64.0132 195.428 57.0602V37.2126C195.428 30.2596 195.428 30.0067 193.15 29.7539L191.125 29.6275V28.3633H205.048V29.6275L203.023 29.7539C200.744 30.0067 200.745 30.2596 200.745 37.2126V56.9338C200.745 63.8868 200.744 64.1396 203.023 64.3925L205.048 64.5189V65.7831H191.125V64.6453Z" fill="white"/>
<path d="M216.312 64.6467L218.464 64.5203C221.628 64.2675 221.628 64.0146 221.628 57.0616V29.8817H218.717C210.617 29.8817 210.49 30.7666 209.351 37.3404H207.959C207.959 37.0876 207.832 35.5705 207.832 34.812C207.832 32.1572 208.212 29.5025 208.465 28.2383H240.235C240.488 29.5025 240.867 32.1572 240.867 34.812C240.867 35.5705 240.741 37.0876 240.741 37.3404H239.349C238.083 30.7666 237.956 29.8817 229.982 29.8817H227.071V56.9352C227.071 63.8882 227.071 64.141 230.235 64.3939L232.26 64.5203V65.7845H216.439V64.6467H216.312Z" fill="white"/>
<path d="M242.766 64.6453L244.791 64.5189C247.069 64.266 247.069 64.0132 247.069 57.0602V37.2126C247.069 30.2596 247.069 30.0067 244.791 29.7539L242.766 29.6275V28.3633H256.689V29.6275L254.663 29.7539C252.385 30.0067 252.385 30.2596 252.385 37.2126V56.9338C252.385 63.8868 252.385 64.1396 254.663 64.3925L256.689 64.5189V65.7831H242.766V64.6453Z" fill="white"/>
<path d="M263.27 34.0524C262.384 31.9033 261.751 29.8806 259.852 29.6278L258.207 29.5014V28.2372H272.383V29.5014L270.611 29.6278C269.725 29.7542 268.08 29.8806 268.08 31.0184C268.08 31.2712 268.586 32.6618 268.839 33.2939L278.712 58.704C279.977 55.2907 288.964 33.0411 288.964 31.2712C288.964 30.1335 287.825 29.8806 286.686 29.6278L284.154 29.2486V27.9844H296.432V29.2486L294.913 29.6278C294.28 29.7542 293.647 30.1335 293.141 30.5127C291.875 31.7769 290.103 37.2129 288.584 39.9941L284.661 49.349C281.37 57.187 278.585 64.14 278.079 65.657C277.826 65.9098 276.94 66.2891 276.18 66.5419L263.27 34.0524Z" fill="white"/>
<path d="M284.156 64.6435L285.295 64.5171C287.447 64.1378 287.7 63.5057 289.093 60.2189L300.99 31.3955C301.497 30.2578 301.876 29.12 302.383 27.9822L304.028 27.4766L316.812 60.4717C317.698 62.7472 318.204 64.0114 319.723 64.3907L322.001 64.7699V66.0341H307.825V64.7699L310.357 64.2642C311.369 64.1378 312.129 63.7586 312.129 63.1265C312.129 62.7472 311.876 62.368 311.749 61.9887L307.699 51.2432C305.547 50.8639 303.522 50.6111 301.37 50.6111C299.345 50.6111 297.32 50.8639 295.421 51.2432L292.51 59.2075C291.877 60.9774 291.371 62.6208 291.371 63.0001C291.371 64.1378 292.13 64.2642 292.763 64.2642L296.181 64.7699V66.0341H284.156V64.6435ZM296.054 48.9676C297.826 48.8412 299.598 48.7148 301.244 48.7148C303.016 48.7148 304.914 48.7148 306.686 48.9676L301.497 35.1881L296.054 48.9676Z" fill="white"/>
<path d="M123.282 80.5772C123.156 81.9678 122.903 82.9792 122.396 84.2434C121.763 84.4962 120.118 85.0019 117.966 85.0019C113.916 85.0019 109.992 83.1056 109.992 77.6696C109.992 72.2336 114.549 70.2109 117.966 70.2109C120.118 70.2109 121.763 70.7166 122.396 71.0959C122.649 71.9808 122.776 73.245 122.776 74.2563L122.143 74.3827C121.89 73.4978 121.637 70.9694 117.966 70.9694C114.296 70.9694 112.27 73.245 112.27 77.2904C112.27 80.9565 114.042 84.3698 117.966 84.3698C121.51 84.3698 122.017 82.2207 122.776 80.4508L123.282 80.5772Z" fill="white"/>
<path d="M123.914 79.0603C123.914 75.3941 126.825 72.9922 130.116 72.9922C133.407 72.9922 135.938 75.0149 135.938 78.8074C135.938 82.6 133.154 84.8755 129.736 84.8755C126.319 84.8755 123.914 82.8528 123.914 79.0603ZM130.243 84.3698C133.154 84.3698 134.293 81.8415 134.293 79.3131C134.293 76.0262 132.648 73.6243 129.99 73.6243C127.332 73.6243 125.939 75.7734 125.939 78.8074C125.813 82.2207 127.585 84.3698 130.243 84.3698Z" fill="white"/>
<path d="M136.954 84.242L137.334 84.1156C137.587 84.1156 137.713 83.9891 137.84 83.8627C137.967 83.7363 138.093 82.5985 138.22 81.0815L138.473 76.7833C138.599 75.6456 138.599 73.7493 138.599 73.2436L139.106 73.1172C139.612 74.0021 143.536 81.4608 144.042 82.3457C144.548 81.4608 148.472 74.1285 148.725 73.2436L149.231 73.1172C149.231 73.2436 149.358 75.1399 149.485 77.4154L149.611 80.4494C149.738 81.9665 149.864 83.6099 149.991 83.8627C150.117 83.9891 150.371 84.1156 150.624 84.242L151.13 84.3684V84.7477H146.7V84.3684L147.333 84.242C148.092 84.1156 148.092 83.8627 148.092 83.1042C148.092 81.208 147.839 77.5418 147.839 76.5305C147.586 77.289 145.814 80.7023 144.042 83.9892C143.915 84.1156 143.915 84.3684 143.789 84.4948L143.283 84.7477C142.903 83.9891 140.751 79.6909 139.485 77.4154C139.359 77.0362 139.106 76.7833 138.979 76.4041C138.979 77.4154 138.726 82.2193 138.726 82.8514C138.726 83.8627 138.726 84.1156 139.485 84.242L140.118 84.3684V84.7477H136.574V84.242H136.954Z" fill="white"/>
<path d="M152.141 84.2431H152.773C153.195 84.1588 153.406 83.4003 153.406 81.9675V76.0259C153.406 74.5931 153.195 73.8346 152.773 73.7503H152.141V73.3711H156.697C158.343 73.3711 160.874 73.6239 160.874 76.5315C160.874 78.9335 158.216 79.9448 156.571 79.9448H156.318V79.5656C157.077 79.5656 159.102 79.1863 159.102 76.658C159.102 74.6353 157.71 74.0032 156.191 74.0032C155.811 74.0032 155.432 74.1296 155.178 74.1296V82.0939C155.178 83.5267 155.516 84.2852 156.191 84.3695H156.824V84.7487H152.394V84.2431H152.141Z" fill="white"/>
<path d="M159.86 84.242H160.24C160.873 84.1156 160.999 83.9891 161.379 82.9778L164.923 74.255C165.05 73.8757 165.176 73.6229 165.303 73.2436L165.809 73.1172L169.606 83.1042C169.859 83.7363 169.986 84.242 170.492 84.242L171.125 84.3684V84.7477H166.822V84.3684L167.581 84.242C167.834 84.242 168.087 84.1156 168.087 83.8627C168.087 83.7363 167.961 83.6099 167.961 83.4835L166.695 80.1966C166.062 80.0702 165.429 80.0702 164.797 80.0702C164.164 80.0702 163.531 80.1966 163.024 80.1966L162.138 82.5985C161.885 83.1042 161.759 83.6099 161.759 83.7363C161.759 84.1156 162.012 84.1156 162.138 84.1156L163.151 84.242V84.6212H159.48V84.242H159.86ZM163.531 79.5645C164.037 79.5645 164.543 79.4381 165.05 79.4381C165.556 79.4381 166.189 79.4381 166.695 79.5645L165.05 75.3927L163.531 79.5645Z" fill="white"/>
<path d="M171.002 84.2419H171.634C172.267 84.2419 172.394 83.6098 172.394 81.84V73.37L172.774 73.2436C174.166 75.0134 179.355 80.323 181.127 82.2192V76.2776C181.127 74.3813 181.127 73.8756 180.241 73.8756H179.608V73.4964H183.279V73.8756H182.646C182.013 73.8756 181.887 74.5077 181.887 76.2776V84.7476L181.507 84.874C181.127 84.4948 180.115 83.357 178.216 81.4607L173.027 76.0248V81.84C173.027 83.7363 173.027 84.2419 173.913 84.2419H174.546V84.6212H170.875V84.2419H171.002ZM174.799 71.7265C175.052 71.3473 175.685 70.3359 176.571 70.3359C176.95 70.3359 177.457 70.4624 177.836 70.7152C178.216 70.8416 178.722 71.0944 179.102 71.0944C179.608 71.0944 179.862 70.5888 179.988 70.3359L180.241 70.5888C179.988 70.968 179.608 71.9794 178.596 71.9794C177.71 71.9794 176.571 71.3473 176.064 71.3473C175.558 71.3473 175.178 71.853 175.052 72.1058L174.799 71.7265Z" fill="white"/>
<path d="M184.164 84.2431H184.797C185.219 84.1588 185.43 83.4003 185.43 81.9675V76.0259C185.43 74.5931 185.219 73.8346 184.797 73.7503H184.164V73.3711H188.341V73.7503H187.708C187.286 73.8346 187.075 74.5931 187.075 76.0259V81.9675C187.075 83.4003 187.286 84.1588 187.708 84.2431H188.341V84.6223H184.164V84.2431Z" fill="white"/>
<path d="M188.341 84.242H188.72C189.353 84.1156 189.48 83.9891 189.86 82.9778L193.404 74.255C193.53 73.8757 193.657 73.6229 193.783 73.2436L194.29 73.1172L198.087 83.1042C198.34 83.7363 198.466 84.242 198.973 84.242L199.606 84.3684V84.7477H195.302V84.3684L196.062 84.242C196.315 84.242 196.568 84.1156 196.568 83.8627C196.568 83.7363 196.441 83.6099 196.441 83.4835L195.176 80.1966C194.543 80.0702 193.91 80.0702 193.277 80.0702C192.644 80.0702 192.011 80.1966 191.505 80.1966L190.619 82.5985C190.366 83.1042 190.239 83.6099 190.239 83.7363C190.239 84.1156 190.492 84.1156 190.619 84.1156L191.632 84.242V84.6212H187.961V84.242H188.341ZM192.011 79.5645C192.518 79.5645 193.024 79.4381 193.53 79.4381C194.036 79.4381 194.669 79.4381 195.176 79.5645L193.53 75.3927L192.011 79.5645Z" fill="white"/>
<path d="M203.527 84.3702H204.034C204.54 84.3702 204.54 84.2438 204.54 82.474V77.5436C204.54 76.3637 204.371 75.7316 204.034 75.6474H203.527V75.3945H208.211C211.248 75.3945 213.147 77.038 213.147 79.8192C213.147 83.4853 210.362 84.8759 207.451 84.8759H203.654V84.3702H203.527ZM205.932 83.991C206.438 84.1174 207.071 84.2438 207.578 84.2438C210.236 84.2438 211.628 82.8532 211.628 80.072C211.628 77.038 209.983 75.7738 207.451 75.7738C206.945 75.7738 206.438 75.9002 205.932 75.9002V83.991Z" fill="white"/>
<path d="M214.287 84.3702H214.793C215.299 84.3702 215.299 84.2438 215.299 82.474V77.5436C215.299 76.3637 215.131 75.7316 214.793 75.6474H214.287V75.3945H220.489C220.489 75.6474 220.615 76.2795 220.615 76.9116V77.5436H220.236C219.982 76.0266 219.856 75.7738 217.831 75.7738H216.692V79.6928H217.957C219.096 79.6928 219.35 79.6928 219.476 79.0607L219.603 78.555H219.982V81.0833H219.603L219.476 80.5777C219.35 79.9456 219.096 79.9456 217.957 79.9456H216.692V84.1174C217.198 84.2438 217.704 84.2438 218.21 84.2438C220.489 84.2438 220.615 83.3589 220.868 82.2211H221.248C221.248 83.106 220.995 83.8646 220.742 84.6231H214.16V84.3702H214.287Z" fill="white"/>
<path d="M231.374 76.5318C233.019 77.5432 234.791 78.4281 234.791 80.9565C234.791 83.8641 232.133 85.0019 229.855 85.0019C228.21 85.0019 227.197 84.4962 226.438 84.1169C226.058 83.232 225.805 81.715 225.805 80.3244L226.438 80.198C226.691 81.715 227.45 84.2434 230.361 84.2434C231.88 84.2434 232.893 83.232 232.893 81.5886C232.893 80.0716 231.627 78.9338 229.855 78.1753L228.463 77.4168C227.197 76.7847 226.058 75.3941 226.058 73.8771C226.058 71.2223 228.21 70.2109 230.488 70.2109C231.88 70.2109 232.893 70.5902 233.399 70.843C233.526 71.4751 233.652 73.245 233.652 73.7506H233.146C232.893 72.7393 232.64 70.843 230.108 70.843C228.842 70.843 227.83 71.728 227.83 73.1186C227.83 74.3827 228.716 75.0148 229.855 75.7733L231.374 76.5318Z" fill="white"/>
<path d="M235.934 84.2431H236.566C236.988 84.1588 237.199 83.4003 237.199 81.9675V76.0259C237.199 74.5931 236.988 73.8346 236.566 73.7503H235.934V73.3711H243.401C243.528 73.7503 243.528 74.3824 243.528 75.1409V75.773L243.148 75.8995C242.769 74.0032 242.768 73.7503 240.364 73.7503H238.971V78.4278H240.49C241.883 78.4278 242.136 78.4278 242.262 77.6693L242.389 77.0372H242.895V80.1977H242.389L242.262 79.5656C242.136 78.8071 241.883 78.8071 240.49 78.8071H238.971V83.7374C239.604 83.8638 240.237 83.9902 240.87 83.9902C243.655 83.9902 243.781 82.9789 244.161 81.5883L244.541 81.7147C244.541 82.8525 244.287 83.611 243.908 84.6223H236.06V84.2431H235.934Z" fill="white"/>
<path d="M256.057 84.1156C255.424 84.3684 253.652 85.0005 251.754 85.0005C248.336 85.0005 245.172 83.4835 245.172 79.0588C245.172 74.6342 248.842 73.1172 251.627 73.1172C253.399 73.1172 254.665 73.4964 255.171 73.8757C255.298 74.5078 255.424 75.5191 255.424 76.4041L254.918 76.5305C254.791 75.8984 254.538 73.7493 251.627 73.7493C248.716 73.7493 247.07 75.6456 247.07 78.806C247.07 81.7136 248.589 84.4948 252.007 84.4948C252.64 84.4948 253.399 84.3684 254.032 84.242V83.4835C254.032 82.0507 253.61 81.2922 252.766 81.208H252.133V80.8287H256.563V81.208H255.931C255.677 81.2922 255.551 81.8822 255.551 82.9778C255.551 83.4835 255.551 83.6099 255.804 83.6099H255.931L256.057 84.1156Z" fill="white"/>
<path d="M266.687 84.3695C266.434 84.1166 266.308 83.8638 266.055 83.8638C265.801 83.8638 264.409 85.0016 262.131 85.0016C258.587 85.0016 258.207 82.9789 258.207 80.5769V76.0259C258.207 74.5931 257.996 73.8346 257.574 73.7503H256.941V73.3711H261.118V73.7503H260.485C260.064 73.8346 259.853 74.5931 259.853 76.0259V80.3241C259.853 82.726 260.232 84.3695 262.89 84.3695C264.662 84.3695 265.801 83.3581 266.055 82.9789V76.0259C266.055 74.5931 265.844 73.8346 265.422 73.7503H264.789V73.3711H268.966V73.7503H268.333C267.911 73.8346 267.7 74.5931 267.7 76.0259V84.7487L267.194 84.8751L266.687 84.3695Z" fill="white"/>
<path d="M269.852 84.2431H270.484C270.906 84.1588 271.117 83.4003 271.117 81.9675V76.0259C271.117 74.5931 270.906 73.8346 270.484 73.7503H269.852V73.3711H274.408C276.054 73.3711 278.332 73.6239 278.332 76.2787C278.332 77.9221 276.94 78.8071 275.927 79.3127C276.18 79.8184 276.813 80.9562 277.193 81.7147C277.952 82.9789 278.712 83.9902 279.091 84.2431C279.218 84.3695 279.598 84.3695 279.977 84.3695V84.7487H278.585C277.446 84.7487 276.686 83.9902 276.18 82.9789L275.547 81.7147C275.041 80.8298 274.661 80.1977 274.535 80.0713C274.282 79.8184 273.775 79.8184 273.522 79.8184H272.889V82.0939C272.889 83.5267 273.1 84.2852 273.522 84.3695H274.155V84.7487H269.978V84.2431H269.852ZM272.763 79.1863H273.775C275.168 79.1863 276.56 78.4278 276.56 76.4051C276.56 74.3824 275.294 73.7503 273.902 73.7503C273.522 73.7503 273.142 73.8768 272.889 73.8768V79.1863H272.763Z" fill="white"/>
<path d="M279.727 79.0603C279.727 75.3941 282.638 72.9922 285.929 72.9922C289.219 72.9922 291.751 75.0149 291.751 78.8074C291.751 82.6 288.966 84.8755 285.549 84.8755C282.131 84.8755 279.727 82.8528 279.727 79.0603ZM285.929 84.3698C288.84 84.3698 289.979 81.8415 289.979 79.3131C289.979 76.0262 288.333 73.6243 285.675 73.6243C283.017 73.6243 281.625 75.7734 281.625 78.8074C281.499 82.2207 283.271 84.3698 285.929 84.3698Z" fill="white"/>
<path d="M297.444 78.1768C298.836 78.9353 300.229 79.6938 300.229 81.7165C300.229 83.992 298.077 84.8769 296.305 84.8769C294.913 84.8769 294.153 84.4977 293.647 84.2448C293.394 83.6127 293.141 82.3486 293.141 81.2108L293.647 81.0844C293.773 82.3485 294.533 84.3712 296.811 84.3712C297.95 84.3712 298.836 83.6127 298.836 82.2221C298.836 80.958 297.824 80.073 296.431 79.4409L295.292 78.8088C294.28 78.3032 293.394 77.1654 293.394 75.9012C293.394 73.7521 295.166 72.8672 296.938 72.8672C297.95 72.8672 298.836 73.12 299.343 73.3729C299.469 73.8785 299.469 75.2691 299.469 75.7748H299.09C298.963 74.8899 298.583 73.3729 296.685 73.3729C295.672 73.3729 294.786 74.1314 294.786 75.2691C294.786 76.2805 295.545 76.7862 296.431 77.4182L297.444 78.1768Z" fill="white"/>
<path d="M38.8577 7C17.3404 7 0 24.4457 0 45.8104C0 67.175 17.467 84.6207 38.8577 84.6207C60.2484 84.6207 77.7154 67.175 77.7154 45.8104C77.7154 24.4457 60.375 7 38.8577 7ZM38.3514 23.1815C39.6171 24.0665 40.6297 25.0778 42.022 26.342C42.2752 26.5948 42.5283 26.8476 43.4143 26.5948C45.1863 26.0891 49.3632 24.0665 52.4009 23.6872C53.7932 23.5608 54.173 23.6872 54.9324 24.4457C56.4513 25.8363 57.717 26.7212 58.603 27.859C55.5653 28.2382 54.5527 28.4911 53.9198 28.6175L53.5401 28.7439C52.1478 29.1232 51.7681 30.0081 51.6415 30.5138C51.6415 30.6402 51.5149 30.893 51.5149 31.1459C51.5149 31.6515 51.6415 32.1572 52.1478 32.7893C52.9072 34.0535 53.4135 34.9384 53.6667 35.5705C50.7555 36.4554 47.5912 37.7196 46.1989 38.3517C45.3129 38.731 44.68 39.4895 44.5535 40.3744V40.8801C44.5535 41.3857 44.68 42.1442 45.4395 42.9028C47.5912 45.1783 49.9961 50.3614 49.9961 56.0502C49.9961 57.3144 49.8695 58.5786 49.6164 59.8428C48.4772 65.7844 44.4269 70.3355 37.7186 73.2431C34.3011 74.7601 30.7571 75.1394 27.2131 75.013H27.8459C34.5542 74.2545 39.2374 71.8525 42.5283 66.0373C47.0849 58.0729 43.6675 48.2123 36.8326 42.6499C34.934 41.1329 32.6557 39.8687 30.6305 38.6045C30.1242 38.2253 29.7445 37.846 30.5039 36.9611C31.6431 35.4441 33.4151 32.9157 36.5794 30.5138C37.2123 30.0081 36.9591 29.7553 36.706 29.376C35.5668 28.4911 34.934 27.9854 33.5417 27.1005C32.7822 26.7212 32.5291 26.342 33.0354 25.8363C33.6682 25.2042 34.8074 24.3193 37.3388 23.1815C37.4654 22.6759 37.9717 22.9287 38.3514 23.1815ZM13.037 30.0081C13.5432 28.9968 14.809 26.5948 15.9481 25.2042C16.2013 24.825 16.4544 24.6985 17.0873 24.825C18.2264 24.9514 20.125 25.8363 22.6564 26.4684C23.1627 26.5948 23.4159 26.5948 23.7956 26.0891C24.8082 24.9514 27.7193 22.2966 32.4025 20.2739C32.9088 20.0211 33.6682 20.0211 34.3011 20.4003C34.8074 20.6532 35.4403 20.906 36.1997 21.2853C33.9214 22.2966 32.7822 23.1815 31.8962 24.0665C31.1368 24.825 31.0102 25.5835 31.0102 26.0891V26.4684C31.1368 27.3533 31.6431 28.1118 32.6557 28.6175L32.7822 28.7439C32.7822 28.7439 32.6557 28.7439 32.6557 28.6175C33.4151 28.9968 33.9214 29.376 34.4277 29.7553C31.8962 32.0308 30.2508 34.1799 29.2382 35.5705C28.4788 36.5818 28.3522 37.4668 28.4788 38.0989C28.6053 38.731 28.8585 39.4895 29.9976 40.1216L31.0102 40.7536C32.7822 41.765 34.4277 42.7763 35.9465 44.0405C41.6423 48.718 45.3129 57.4408 41.136 64.8995C38.3514 69.8298 34.3011 72.4846 27.9725 73.2431C25.6942 73.4959 23.5425 73.3695 21.5173 72.8639C22.4033 72.9903 23.1627 72.9903 24.0487 72.9903C28.7319 72.8639 33.7948 71.2204 36.3263 67.175C42.7814 56.9352 35.3137 46.4425 25.3145 43.1556C23.0362 42.3971 19.239 41.6386 16.3278 41.2593C15.1887 41.1329 14.9355 40.7536 15.3153 39.9951C15.9481 38.731 17.0873 36.2026 19.239 32.9157C19.3656 32.7893 19.239 32.41 18.8593 32.2836C17.7201 32.0308 15.5684 31.3987 13.6698 31.1459C13.037 30.893 12.7838 30.6402 13.037 30.0081ZM44.1737 80.8282C21.7704 84.2415 10.3789 67.4279 10.3789 67.4279C15.5684 72.3582 24.3019 80.4489 37.592 74.3809C56.831 65.7844 51.1352 46.5689 45.9458 40.8801C45.3129 40.248 45.6926 39.6159 46.1989 39.4895C47.7178 38.8574 51.7681 37.2139 54.9324 36.4554C55.3121 36.329 55.3121 36.2026 55.1855 35.6969C54.9324 34.9384 54.5527 33.6742 53.0338 31.1459C52.5275 30.6402 52.7807 30.2609 53.2869 30.1345C54.0464 30.0081 54.5527 29.7553 58.603 29.2496C58.9827 29.1232 59.489 29.376 59.7421 29.7553C60.6282 31.2723 61.261 32.7893 61.8939 34.812C61.8939 35.0648 62.2736 35.4441 62.6533 35.4441C64.1722 35.4441 69.4882 35.5705 72.2728 36.0762C72.5259 36.0762 73.0322 36.329 73.0322 36.7083C73.7917 38.9838 75.4371 49.7293 70.6274 61.107C64.9316 74.0016 54.4261 79.1848 44.1737 80.8282Z" fill="white"/>
</g>
<defs>
<clipPath id="clip0_312_16222">
<rect width="322" height="78" fill="white" transform="translate(0 7)"/>
</clipPath>
</defs>
</svg>
