<svg width="322" height="78" viewBox="0 0 322 78" fill="none" xmlns="http://www.w3.org/2000/svg">
<g clip-path="url(#clip0_312_5291)">
<path d="M89.3609 57.2675L91.8924 57.0146C94.677 56.7618 94.677 56.3825 94.677 47.7861V23.1346C94.677 14.5381 94.677 14.1589 91.8924 13.906L89.3609 13.6532V12.0098H107.841C114.549 12.0098 125.054 13.0211 125.054 24.778C125.054 34.3858 114.296 38.9368 107.587 38.9368H106.322V37.4198C109.359 37.4198 117.587 36.0292 117.587 25.2837C117.587 16.9401 112.017 14.4117 105.562 14.4117C104.043 14.4117 102.524 14.6645 101.132 15.0438V47.9125C101.132 56.509 101.132 56.8882 105.056 57.141L107.587 57.3939V58.9109H89.2344V57.2675H89.3609Z" fill="white"/>
<path d="M124.547 40.3276C124.547 28.065 134.04 20.3535 145.052 20.3535C156.063 20.3535 164.417 27.0537 164.417 39.6955C164.417 52.3373 155.304 59.6696 143.912 59.6696C132.774 59.6696 124.547 52.5901 124.547 40.3276ZM145.178 57.7733C154.924 57.7733 158.595 49.4297 158.595 41.0861C158.595 30.3405 153.279 22.1234 144.292 22.1234C135.306 22.1234 130.749 29.2028 130.749 39.0634C130.622 50.8203 136.571 57.7733 145.178 57.7733Z" fill="white"/>
<path d="M181.761 37.2935C186.317 39.8219 191 42.2239 191 49.0504C191 56.7619 183.912 59.6696 177.837 59.6696C173.407 59.6696 170.622 58.5318 168.85 57.394C167.838 55.1185 167.078 50.9467 167.078 47.407L168.85 46.9013C169.483 50.9467 171.635 57.7733 179.356 57.7733C183.279 57.7733 186.191 55.2449 186.191 50.8203C186.191 46.6485 182.647 43.8673 178.216 41.8446L174.546 39.8219C171.255 38.0521 168.217 34.5123 168.217 30.2141C168.217 23.2611 174.04 20.3535 180.115 20.3535C183.659 20.3535 186.57 21.2384 187.963 22.1234C188.469 23.8932 188.595 28.5707 188.595 29.9613H187.203C186.57 27.0537 185.684 22.1234 179.229 22.1234C175.938 22.1234 173.027 24.5253 173.027 28.3179C173.027 31.7311 175.432 33.501 178.596 35.2709L181.761 37.2935Z" fill="white"/>
<path d="M191.125 57.6472L193.15 57.5208C195.428 57.268 195.428 57.0152 195.428 50.0622V30.2145C195.428 23.2615 195.428 23.0087 193.15 22.7558L191.125 22.6294V21.3652H205.048V22.6294L203.023 22.7558C200.744 23.0087 200.745 23.2615 200.745 30.2145V49.9357C200.745 56.8887 200.744 57.1416 203.023 57.3944L205.048 57.5208V58.785H191.125V57.6472Z" fill="white"/>
<path d="M216.312 57.6467L218.464 57.5203C221.628 57.2675 221.628 57.0146 221.628 50.0616V22.8817H218.717C210.617 22.8817 210.49 23.7666 209.351 30.3404H207.959C207.959 30.0876 207.832 28.5705 207.832 27.812C207.832 25.1572 208.212 22.5025 208.465 21.2383H240.235C240.488 22.5025 240.867 25.1572 240.867 27.812C240.867 28.5705 240.741 30.0876 240.741 30.3404H239.349C238.083 23.7666 237.956 22.8817 229.982 22.8817H227.071V49.9352C227.071 56.8882 227.071 57.141 230.235 57.3939L232.26 57.5203V58.7845H216.439V57.6467H216.312Z" fill="white"/>
<path d="M242.766 57.6472L244.791 57.5208C247.069 57.268 247.069 57.0152 247.069 50.0622V30.2145C247.069 23.2615 247.069 23.0087 244.791 22.7558L242.766 22.6294V21.3652H256.689V22.6294L254.663 22.7558C252.385 23.0087 252.385 23.2615 252.385 30.2145V49.9357C252.385 56.8887 252.385 57.1416 254.663 57.3944L256.689 57.5208V58.785H242.766V57.6472Z" fill="white"/>
<path d="M263.27 27.0544C262.384 24.9053 261.751 22.8826 259.852 22.6298L258.207 22.5033V21.2392H272.383V22.5033L270.611 22.6298C269.725 22.7562 268.08 22.8826 268.08 24.0204C268.08 24.2732 268.586 25.6638 268.839 26.2959L278.712 51.7059C279.977 48.2927 288.964 26.0431 288.964 24.2732C288.964 23.1354 287.825 22.8826 286.686 22.6298L284.154 22.2505V20.9863H296.432V22.2505L294.913 22.6298C294.28 22.7562 293.647 23.1354 293.141 23.5147C291.875 24.7789 290.103 30.2149 288.584 32.9961L284.661 42.351C281.37 50.1889 278.585 57.1419 278.079 58.6589C277.826 58.9118 276.94 59.291 276.18 59.5439L263.27 27.0544Z" fill="white"/>
<path d="M284.156 57.6474L285.295 57.521C287.447 57.1417 287.7 56.5096 289.093 53.2228L300.99 24.3994C301.497 23.2617 301.876 22.1239 302.383 20.9861L304.028 20.4805L316.812 53.4756C317.698 55.7511 318.204 57.0153 319.723 57.3946L322.001 57.7738V59.038H307.825V57.7738L310.357 57.2681C311.369 57.1417 312.129 56.7625 312.129 56.1304C312.129 55.7511 311.876 55.3719 311.749 54.9926L307.699 44.2471C305.547 43.8678 303.522 43.615 301.37 43.615C299.345 43.615 297.32 43.8678 295.421 44.2471L292.51 52.2114C291.877 53.9813 291.371 55.6247 291.371 56.004C291.371 57.1417 292.13 57.2681 292.763 57.2681L296.181 57.7738V59.038H284.156V57.6474ZM296.054 41.9716C297.826 41.8451 299.598 41.7187 301.244 41.7187C303.016 41.7187 304.914 41.7187 306.686 41.9716L301.497 28.192L296.054 41.9716Z" fill="white"/>
<path d="M123.282 73.5753C123.156 74.9659 122.903 75.9772 122.396 77.2414C121.763 77.4942 120.118 77.9999 117.966 77.9999C113.916 77.9999 109.992 76.1036 109.992 70.6677C109.992 65.2317 114.549 63.209 117.966 63.209C120.118 63.209 121.763 63.7147 122.396 64.0939C122.649 64.9788 122.776 66.243 122.776 67.2544L122.143 67.3808C121.89 66.4959 121.637 63.9675 117.966 63.9675C114.296 63.9675 112.27 66.243 112.27 70.2884C112.27 73.9545 114.042 77.3678 117.966 77.3678C121.51 77.3678 122.017 75.2187 122.776 73.4489L123.282 73.5753Z" fill="white"/>
<path d="M123.914 72.0583C123.914 68.3922 126.825 65.9902 130.116 65.9902C133.407 65.9902 135.938 68.0129 135.938 71.8055C135.938 75.598 133.154 77.8735 129.736 77.8735C126.319 77.8735 123.914 75.8508 123.914 72.0583ZM130.243 77.3679C133.154 77.3679 134.293 74.8395 134.293 72.3111C134.293 69.0243 132.648 66.6223 129.99 66.6223C127.332 66.6223 125.939 68.7714 125.939 71.8055C125.813 75.2188 127.585 77.3679 130.243 77.3679Z" fill="white"/>
<path d="M136.954 77.242L137.334 77.1156C137.587 77.1156 137.713 76.9891 137.84 76.8627C137.967 76.7363 138.093 75.5985 138.22 74.0815L138.473 69.7833C138.599 68.6456 138.599 66.7493 138.599 66.2436L139.106 66.1172C139.612 67.0021 143.536 74.4608 144.042 75.3457C144.548 74.4608 148.472 67.1285 148.725 66.2436L149.231 66.1172C149.231 66.2436 149.358 68.1399 149.485 70.4154L149.611 73.4494C149.738 74.9665 149.864 76.6099 149.991 76.8627C150.117 76.9891 150.371 77.1156 150.624 77.242L151.13 77.3684V77.7477H146.7V77.3684L147.333 77.242C148.092 77.1156 148.092 76.8627 148.092 76.1042C148.092 74.208 147.839 70.5418 147.839 69.5305C147.586 70.289 145.814 73.7023 144.042 76.9892C143.915 77.1156 143.915 77.3684 143.789 77.4948L143.283 77.7477C142.903 76.9891 140.751 72.6909 139.485 70.4154C139.359 70.0362 139.106 69.7833 138.979 69.4041C138.979 70.4154 138.726 75.2193 138.726 75.8514C138.726 76.8627 138.726 77.1156 139.485 77.242L140.118 77.3684V77.7477H136.574V77.242H136.954Z" fill="white"/>
<path d="M152.141 77.2411H152.773C153.195 77.1568 153.406 76.3983 153.406 74.9656V69.0239C153.406 67.5912 153.195 66.8327 152.773 66.7484H152.141V66.3691H156.697C158.343 66.3691 160.874 66.622 160.874 69.5296C160.874 71.9315 158.216 72.9429 156.571 72.9429H156.318V72.5636C157.077 72.5636 159.102 72.1844 159.102 69.656C159.102 67.6333 157.71 67.0012 156.191 67.0012C155.811 67.0012 155.432 67.1276 155.178 67.1276V75.092C155.178 76.5247 155.516 77.2832 156.191 77.3675H156.824V77.7468H152.394V77.2411H152.141Z" fill="white"/>
<path d="M159.86 77.242H160.24C160.873 77.1156 160.999 76.9891 161.379 75.9778L164.923 67.255C165.05 66.8757 165.176 66.6229 165.303 66.2436L165.809 66.1172L169.606 76.1042C169.859 76.7363 169.986 77.242 170.492 77.242L171.125 77.3684V77.7477H166.822V77.3684L167.581 77.242C167.834 77.242 168.087 77.1156 168.087 76.8627C168.087 76.7363 167.961 76.6099 167.961 76.4835L166.695 73.1966C166.062 73.0702 165.429 73.0702 164.797 73.0702C164.164 73.0702 163.531 73.1966 163.024 73.1966L162.138 75.5985C161.885 76.1042 161.759 76.6099 161.759 76.7363C161.759 77.1156 162.012 77.1156 162.138 77.1156L163.151 77.242V77.6212H159.48V77.242H159.86ZM163.531 72.5645C164.037 72.5645 164.543 72.4381 165.05 72.4381C165.556 72.4381 166.189 72.4381 166.695 72.5645L165.05 68.3927L163.531 72.5645Z" fill="white"/>
<path d="M171.002 77.2419H171.634C172.267 77.2419 172.394 76.6098 172.394 74.84V66.37L172.774 66.2436C174.166 68.0134 179.355 73.323 181.127 75.2192V69.2776C181.127 67.3813 181.127 66.8756 180.241 66.8756H179.608V66.4964H183.279V66.8756H182.646C182.013 66.8756 181.887 67.5077 181.887 69.2776V77.7476L181.507 77.874C181.127 77.4948 180.115 76.357 178.216 74.4607L173.027 69.0248V74.84C173.027 76.7363 173.027 77.2419 173.913 77.2419H174.546V77.6212H170.875V77.2419H171.002ZM174.799 64.7265C175.052 64.3473 175.685 63.3359 176.571 63.3359C176.95 63.3359 177.457 63.4624 177.836 63.7152C178.216 63.8416 178.722 64.0944 179.102 64.0944C179.608 64.0944 179.862 63.5888 179.988 63.3359L180.241 63.5888C179.988 63.968 179.608 64.9794 178.596 64.9794C177.71 64.9794 176.571 64.3473 176.064 64.3473C175.558 64.3473 175.178 64.853 175.052 65.1058L174.799 64.7265Z" fill="white"/>
<path d="M184.164 77.2411H184.797C185.219 77.1568 185.43 76.3983 185.43 74.9656V69.0239C185.43 67.5912 185.219 66.8327 184.797 66.7484H184.164V66.3691H188.341V66.7484H187.708C187.286 66.8327 187.075 67.5912 187.075 69.0239V74.9656C187.075 76.3983 187.286 77.1568 187.708 77.2411H188.341V77.6204H184.164V77.2411Z" fill="white"/>
<path d="M188.341 77.242H188.72C189.353 77.1156 189.48 76.9891 189.86 75.9778L193.404 67.255C193.53 66.8757 193.657 66.6229 193.783 66.2436L194.29 66.1172L198.087 76.1042C198.34 76.7363 198.466 77.242 198.973 77.242L199.606 77.3684V77.7477H195.302V77.3684L196.062 77.242C196.315 77.242 196.568 77.1156 196.568 76.8627C196.568 76.7363 196.441 76.6099 196.441 76.4835L195.176 73.1966C194.543 73.0702 193.91 73.0702 193.277 73.0702C192.644 73.0702 192.011 73.1966 191.505 73.1966L190.619 75.5985C190.366 76.1042 190.239 76.6099 190.239 76.7363C190.239 77.1156 190.492 77.1156 190.619 77.1156L191.632 77.242V77.6212H187.961V77.242H188.341ZM192.011 72.5645C192.518 72.5645 193.024 72.4381 193.53 72.4381C194.036 72.4381 194.669 72.4381 195.176 72.5645L193.53 68.3927L192.011 72.5645Z" fill="white"/>
<path d="M203.527 77.3683H204.034C204.54 77.3683 204.54 77.2419 204.54 75.472V70.5417C204.54 69.3618 204.371 68.7297 204.034 68.6454H203.527V68.3926H208.211C211.248 68.3926 213.147 70.036 213.147 72.8172C213.147 76.4833 210.362 77.8739 207.451 77.8739H203.654V77.3683H203.527ZM205.932 76.989C206.438 77.1154 207.071 77.2418 207.578 77.2418C210.236 77.2418 211.628 75.8513 211.628 73.0701C211.628 70.036 209.983 68.7718 207.451 68.7718C206.945 68.7718 206.438 68.8983 205.932 68.8983V76.989Z" fill="white"/>
<path d="M214.287 77.3683H214.793C215.299 77.3683 215.299 77.2419 215.299 75.472V70.5417C215.299 69.3618 215.131 68.7297 214.793 68.6454H214.287V68.3926H220.489C220.489 68.6454 220.615 69.2775 220.615 69.9096V70.5417H220.236C219.982 69.0247 219.856 68.7718 217.831 68.7718H216.692V72.6908H217.957C219.096 72.6908 219.35 72.6908 219.476 72.0587L219.603 71.553H219.982V74.0814H219.603L219.476 73.5757C219.35 72.9436 219.096 72.9436 217.957 72.9436H216.692V77.1154C217.198 77.2419 217.704 77.2418 218.21 77.2418C220.489 77.2418 220.615 76.3569 220.868 75.2192H221.248C221.248 76.1041 220.995 76.8626 220.742 77.6211H214.16V77.3683H214.287Z" fill="white"/>
<path d="M231.374 69.5299C233.019 70.5412 234.791 71.4262 234.791 73.9545C234.791 76.8621 232.133 77.9999 229.855 77.9999C228.21 77.9999 227.197 77.4942 226.438 77.115C226.058 76.2301 225.805 74.713 225.805 73.3224L226.438 73.196C226.691 74.713 227.45 77.2414 230.361 77.2414C231.88 77.2414 232.893 76.2301 232.893 74.5866C232.893 73.0696 231.627 71.9318 229.855 71.1733L228.463 70.4148C227.197 69.7827 226.058 68.3921 226.058 66.8751C226.058 64.2203 228.21 63.209 230.488 63.209C231.88 63.209 232.893 63.5882 233.399 63.8411C233.526 64.4732 233.652 66.243 233.652 66.7487H233.146C232.893 65.7373 232.64 63.8411 230.108 63.8411C228.842 63.8411 227.83 64.726 227.83 66.1166C227.83 67.3808 228.716 68.0129 229.855 68.7714L231.374 69.5299Z" fill="white"/>
<path d="M235.934 77.2411H236.566C236.988 77.1568 237.199 76.3983 237.199 74.9656V69.0239C237.199 67.5912 236.988 66.8327 236.566 66.7484H235.934V66.3691H243.401C243.528 66.7484 243.528 67.3805 243.528 68.139V68.7711L243.148 68.8975C242.769 67.0012 242.768 66.7484 240.364 66.7484H238.971V71.4259H240.49C241.883 71.4259 242.136 71.4259 242.262 70.6674L242.389 70.0353H242.895V73.1957H242.389L242.262 72.5636C242.136 71.8051 241.883 71.8051 240.49 71.8051H238.971V76.7354C239.604 76.8618 240.237 76.9883 240.87 76.9883C243.655 76.9883 243.781 75.9769 244.161 74.5863L244.541 74.7127C244.541 75.8505 244.287 76.609 243.908 77.6204H236.06V77.2411H235.934Z" fill="white"/>
<path d="M256.057 77.1156C255.424 77.3684 253.652 78.0005 251.754 78.0005C248.336 78.0005 245.172 76.4835 245.172 72.0588C245.172 67.6342 248.842 66.1172 251.627 66.1172C253.399 66.1172 254.665 66.4964 255.171 66.8757C255.298 67.5078 255.424 68.5191 255.424 69.4041L254.918 69.5305C254.791 68.8984 254.538 66.7493 251.627 66.7493C248.716 66.7493 247.07 68.6456 247.07 71.806C247.07 74.7136 248.589 77.4948 252.007 77.4948C252.64 77.4948 253.399 77.3684 254.032 77.242V76.4835C254.032 75.0507 253.61 74.2922 252.766 74.208H252.133V73.8287H256.563V74.208H255.931C255.677 74.2922 255.551 74.8822 255.551 75.9778C255.551 76.4835 255.551 76.6099 255.804 76.6099H255.931L256.057 77.1156Z" fill="white"/>
<path d="M266.687 77.3675C266.434 77.1147 266.308 76.8618 266.055 76.8618C265.801 76.8618 264.409 77.9996 262.131 77.9996C258.587 77.9996 258.207 75.9769 258.207 73.575V69.0239C258.207 67.5912 257.996 66.8327 257.574 66.7484H256.941V66.3691H261.118V66.7484H260.485C260.064 66.8327 259.853 67.5912 259.853 69.0239V73.3221C259.853 75.7241 260.232 77.3675 262.89 77.3675C264.662 77.3675 265.801 76.3562 266.055 75.9769V69.0239C266.055 67.5912 265.844 66.8327 265.422 66.7484H264.789V66.3691H268.966V66.7484H268.333C267.911 66.8327 267.7 67.5912 267.7 69.0239V77.7468L267.194 77.8732L266.687 77.3675Z" fill="white"/>
<path d="M269.852 77.2411H270.484C270.906 77.1568 271.117 76.3983 271.117 74.9656V69.0239C271.117 67.5912 270.906 66.8327 270.484 66.7484H269.852V66.3691H274.408C276.054 66.3691 278.332 66.622 278.332 69.2768C278.332 70.9202 276.94 71.8051 275.927 72.3108C276.18 72.8165 276.813 73.9542 277.193 74.7127C277.952 75.9769 278.712 76.9883 279.091 77.2411C279.218 77.3675 279.598 77.3675 279.977 77.3675V77.7468H278.585C277.446 77.7468 276.686 76.9883 276.18 75.9769L275.547 74.7127C275.041 73.8278 274.661 73.1957 274.535 73.0693C274.282 72.8165 273.775 72.8165 273.522 72.8165H272.889V75.092C272.889 76.5247 273.1 77.2832 273.522 77.3675H274.155V77.7468H269.978V77.2411H269.852ZM272.763 72.1844H273.775C275.168 72.1844 276.56 71.4259 276.56 69.4032C276.56 67.3805 275.294 66.7484 273.902 66.7484C273.522 66.7484 273.142 66.8748 272.889 66.8748V72.1844H272.763Z" fill="white"/>
<path d="M279.727 72.0583C279.727 68.3922 282.638 65.9902 285.929 65.9902C289.219 65.9902 291.751 68.0129 291.751 71.8055C291.751 75.598 288.966 77.8735 285.549 77.8735C282.131 77.8735 279.727 75.8508 279.727 72.0583ZM285.929 77.3679C288.84 77.3679 289.979 74.8395 289.979 72.3111C289.979 69.0243 288.333 66.6223 285.675 66.6223C283.017 66.6223 281.625 68.7714 281.625 71.8055C281.499 75.2188 283.271 77.3679 285.929 77.3679Z" fill="white"/>
<path d="M297.444 71.1728C298.836 71.9314 300.229 72.6899 300.229 74.7126C300.229 76.9881 298.077 77.873 296.305 77.873C294.913 77.873 294.153 77.4938 293.647 77.2409C293.394 76.6088 293.141 75.3446 293.141 74.2069L293.647 74.0805C293.773 75.3446 294.533 77.3673 296.811 77.3673C297.95 77.3673 298.836 76.6088 298.836 75.2182C298.836 73.954 297.824 73.0691 296.431 72.437L295.292 71.8049C294.28 71.2993 293.394 70.1615 293.394 68.8973C293.394 66.7482 295.166 65.8633 296.938 65.8633C297.95 65.8633 298.836 66.1161 299.343 66.369C299.469 66.8746 299.469 68.2652 299.469 68.7709H299.09C298.963 67.886 298.583 66.369 296.685 66.369C295.672 66.369 294.786 67.1275 294.786 68.2652C294.786 69.2766 295.545 69.7822 296.431 70.4143L297.444 71.1728Z" fill="white"/>
<path d="M38.8577 0C17.3404 0 0 17.4457 0 38.8104C0 60.175 17.467 77.6207 38.8577 77.6207C60.2484 77.6207 77.7154 60.175 77.7154 38.8104C77.7154 17.4457 60.375 0 38.8577 0ZM38.3514 16.1815C39.6171 17.0665 40.6297 18.0778 42.022 19.342C42.2752 19.5948 42.5283 19.8476 43.4143 19.5948C45.1863 19.0891 49.3632 17.0665 52.4009 16.6872C53.7932 16.5608 54.173 16.6872 54.9324 17.4457C56.4513 18.8363 57.717 19.7212 58.603 20.859C55.5653 21.2382 54.5527 21.4911 53.9198 21.6175L53.5401 21.7439C52.1478 22.1232 51.7681 23.0081 51.6415 23.5138C51.6415 23.6402 51.5149 23.893 51.5149 24.1459C51.5149 24.6515 51.6415 25.1572 52.1478 25.7893C52.9072 27.0535 53.4135 27.9384 53.6667 28.5705C50.7555 29.4554 47.5912 30.7196 46.1989 31.3517C45.3129 31.731 44.68 32.4895 44.5535 33.3744V33.8801C44.5535 34.3857 44.68 35.1442 45.4395 35.9028C47.5912 38.1783 49.9961 43.3614 49.9961 49.0502C49.9961 50.3144 49.8695 51.5786 49.6164 52.8428C48.4772 58.7844 44.4269 63.3355 37.7186 66.2431C34.3011 67.7601 30.7571 68.1394 27.2131 68.013H27.8459C34.5542 67.2545 39.2374 64.8525 42.5283 59.0373C47.0849 51.0729 43.6675 41.2123 36.8326 35.6499C34.934 34.1329 32.6557 32.8687 30.6305 31.6045C30.1242 31.2253 29.7445 30.846 30.5039 29.9611C31.6431 28.4441 33.4151 25.9157 36.5794 23.5138C37.2123 23.0081 36.9591 22.7553 36.706 22.376C35.5668 21.4911 34.934 20.9854 33.5417 20.1005C32.7822 19.7212 32.5291 19.342 33.0354 18.8363C33.6682 18.2042 34.8074 17.3193 37.3388 16.1815C37.4654 15.6759 37.9717 15.9287 38.3514 16.1815ZM13.037 23.0081C13.5432 21.9968 14.809 19.5948 15.9481 18.2042C16.2013 17.825 16.4544 17.6985 17.0873 17.825C18.2264 17.9514 20.125 18.8363 22.6564 19.4684C23.1627 19.5948 23.4159 19.5948 23.7956 19.0891C24.8082 17.9514 27.7193 15.2966 32.4025 13.2739C32.9088 13.0211 33.6682 13.0211 34.3011 13.4003C34.8074 13.6532 35.4403 13.906 36.1997 14.2853C33.9214 15.2966 32.7822 16.1815 31.8962 17.0665C31.1368 17.825 31.0102 18.5835 31.0102 19.0891V19.4684C31.1368 20.3533 31.6431 21.1118 32.6557 21.6175L32.7822 21.7439C32.7822 21.7439 32.6557 21.7439 32.6557 21.6175C33.4151 21.9968 33.9214 22.376 34.4277 22.7553C31.8962 25.0308 30.2508 27.1799 29.2382 28.5705C28.4788 29.5818 28.3522 30.4668 28.4788 31.0989C28.6053 31.731 28.8585 32.4895 29.9976 33.1216L31.0102 33.7536C32.7822 34.765 34.4277 35.7763 35.9465 37.0405C41.6423 41.718 45.3129 50.4408 41.136 57.8995C38.3514 62.8298 34.3011 65.4846 27.9725 66.2431C25.6942 66.4959 23.5425 66.3695 21.5173 65.8639C22.4033 65.9903 23.1627 65.9903 24.0487 65.9903C28.7319 65.8639 33.7948 64.2204 36.3263 60.175C42.7814 49.9352 35.3137 39.4425 25.3145 36.1556C23.0362 35.3971 19.239 34.6386 16.3278 34.2593C15.1887 34.1329 14.9355 33.7536 15.3153 32.9951C15.9481 31.731 17.0873 29.2026 19.239 25.9157C19.3656 25.7893 19.239 25.41 18.8593 25.2836C17.7201 25.0308 15.5684 24.3987 13.6698 24.1459C13.037 23.893 12.7838 23.6402 13.037 23.0081ZM44.1737 73.8282C21.7704 77.2415 10.3789 60.4279 10.3789 60.4279C15.5684 65.3582 24.3019 73.4489 37.592 67.3809C56.831 58.7844 51.1352 39.5689 45.9458 33.8801C45.3129 33.248 45.6926 32.6159 46.1989 32.4895C47.7178 31.8574 51.7681 30.2139 54.9324 29.4554C55.3121 29.329 55.3121 29.2026 55.1855 28.6969C54.9324 27.9384 54.5527 26.6742 53.0338 24.1459C52.5275 23.6402 52.7807 23.2609 53.2869 23.1345C54.0464 23.0081 54.5527 22.7553 58.603 22.2496C58.9827 22.1232 59.489 22.376 59.7421 22.7553C60.6282 24.2723 61.261 25.7893 61.8939 27.812C61.8939 28.0648 62.2736 28.4441 62.6533 28.4441C64.1722 28.4441 69.4882 28.5705 72.2728 29.0762C72.5259 29.0762 73.0322 29.329 73.0322 29.7083C73.7917 31.9838 75.4371 42.7293 70.6274 54.107C64.9316 67.0016 54.4261 72.1848 44.1737 73.8282Z" fill="white"/>
</g>
<defs>
<clipPath id="clip0_312_5291">
<rect width="322" height="78" fill="white"/>
</clipPath>
</defs>
</svg>
