<?xml version="1.0" encoding="UTF-8" standalone="no"?>
<svg
   width="266.60199"
   height="64.580597"
   viewBox="0 0 266.60199 64.580597"
   fill="none"
   version="1.1"
   id="svg61"
   sodipodi:docname="logotipo-blanco.svg"
   inkscape:version="1.2.2 (732a01da63, 2022-12-09)"
   xmlns:inkscape="http://www.inkscape.org/namespaces/inkscape"
   xmlns:sodipodi="http://sodipodi.sourceforge.net/DTD/sodipodi-0.dtd"
   xmlns="http://www.w3.org/2000/svg"
   xmlns:svg="http://www.w3.org/2000/svg">
  <sodipodi:namedview
     id="namedview63"
     pagecolor="#ffffff"
     bordercolor="#111111"
     borderopacity="1"
     inkscape:showpageshadow="0"
     inkscape:pageopacity="0"
     inkscape:pagecheckerboard="1"
     inkscape:deskcolor="#d1d1d1"
     showgrid="false"
     inkscape:zoom="2.3035714"
     inkscape:cx="112.65116"
     inkscape:cy="113.08527"
     inkscape:window-width="1920"
     inkscape:window-height="991"
     inkscape:window-x="1911"
     inkscape:window-y="-9"
     inkscape:window-maximized="1"
     inkscape:current-layer="svg61" />
  <g
     clip-path="url(#clip0_1_2)"
     id="g54"
     transform="translate(0,-5.7957)">
    <path
       d="m 73.9862,53.2107 2.0959,-0.2093 c 2.3056,-0.2093 2.3056,-0.5233 2.3056,-7.6408 V 24.9502 c 0,-7.1175 0,-7.4315 -2.3056,-7.6409 L 73.9862,17.1 v -1.3607 h 15.3003 c 5.5542,0 14.2525,0.8374 14.2525,10.5716 0,7.9548 -8.9079,11.7229 -14.4621,11.7229 h -1.048 v -1.2561 c 2.5152,0 9.3269,-1.1513 9.3269,-10.0482 0,-6.9081 -4.611,-9.0015 -9.9556,-9.0015 -1.2576,0 -2.5152,0.2094 -3.6679,0.5234 v 27.2139 c 0,7.1174 0,7.4314 3.2487,7.6408 l 2.0959,0.2093 v 1.256 H 73.8814 v -1.3607 z"
       fill="#ffffff"
       id="path2" />
    <path
       d="m 103.12,39.1852 c 0,-10.1529 7.859,-16.5377 16.977,-16.5377 9.117,0 16.033,5.5474 16.033,16.0143 0,10.4669 -7.545,16.5377 -16.977,16.5377 -9.222,0 -16.033,-5.8615 -16.033,-16.0143 z m 17.081,14.4443 c 8.07,0 11.109,-6.9082 11.109,-13.8163 0,-8.8969 -4.402,-15.7003 -11.842,-15.7003 -7.441,0 -11.213,5.8614 -11.213,14.0256 -0.105,9.7342 4.82,15.491 11.946,15.491 z"
       fill="#ffffff"
       id="path4" />
    <path
       d="m 150.488,36.6731 c 3.772,2.0934 7.65,4.0821 7.65,9.7342 0,6.3848 -5.869,8.7922 -10.899,8.7922 -3.668,0 -5.974,-0.942 -7.441,-1.8841 -0.838,-1.884 -1.467,-5.3381 -1.467,-8.2688 l 1.467,-0.4187 c 0.524,3.3494 2.306,9.0016 8.698,9.0016 3.249,0 5.659,-2.0934 5.659,-5.7568 0,-3.4541 -2.934,-5.7568 -6.602,-7.4315 l -3.039,-1.6747 c -2.725,-1.4654 -5.24,-4.3961 -5.24,-7.9548 0,-5.7568 4.821,-8.1642 9.851,-8.1642 2.934,0 5.345,0.7327 6.498,1.4654 0.419,1.4653 0.524,5.3381 0.524,6.4894 h -1.153 c -0.524,-2.4074 -1.258,-6.4894 -6.602,-6.4894 -2.725,0 -5.135,1.9887 -5.135,5.1287 0,2.8261 1.991,4.2914 4.611,5.7568 z"
       fill="#ffffff"
       id="path6" />
    <path
       d="m 158.243,53.5248 1.676,-0.1047 c 1.887,-0.2093 1.887,-0.4187 1.887,-6.1754 v -16.433 c 0,-5.7568 0,-5.9662 -1.887,-6.1755 l -1.676,-0.1047 v -1.0467 h 11.527 v 1.0467 l -1.677,0.1047 c -1.886,0.2093 -1.886,0.4187 -1.886,6.1755 V 47.14 c 0,5.7568 0,5.9661 1.886,6.1755 l 1.677,0.1046 v 1.0467 h -11.527 z"
       fill="#ffffff"
       id="path8" />
    <path
       d="m 179.097,53.5248 1.782,-0.1047 c 2.619,-0.2094 2.619,-0.4187 2.619,-6.1755 V 24.7408 h -2.41 c -6.707,0 -6.812,0.7327 -7.755,6.1755 h -1.153 c 0,-0.2093 -0.104,-1.4654 -0.104,-2.0934 0,-2.198 0.314,-4.3961 0.524,-5.4428 h 26.304 c 0.209,1.0467 0.524,3.2448 0.524,5.4428 0,0.628 -0.105,1.8841 -0.105,2.0934 h -1.153 c -1.048,-5.4428 -1.153,-6.1755 -7.755,-6.1755 h -2.41 V 47.14 c 0,5.7567 0,5.9661 2.62,6.1754 l 1.676,0.1047 v 1.0467 h -13.099 v -0.942 z"
       fill="#ffffff"
       id="path10" />
    <path
       d="m 201,53.5248 1.676,-0.1047 c 1.887,-0.2093 1.887,-0.4187 1.887,-6.1754 v -16.433 c 0,-5.7568 0,-5.9662 -1.887,-6.1755 L 201,24.5315 v -1.0467 h 11.527 v 1.0467 l -1.677,0.1047 c -1.886,0.2093 -1.886,0.4187 -1.886,6.1755 V 47.14 c 0,5.7568 0,5.9661 1.886,6.1755 l 1.677,0.1046 v 1.0467 H 201 Z"
       fill="#ffffff"
       id="path12" />
    <path
       d="m 217.977,28.1949 c -0.734,-1.7793 -1.258,-3.454 -2.83,-3.6634 l -1.362,-0.1046 v -1.0467 h 11.737 v 1.0467 l -1.467,0.1046 c -0.734,0.1047 -2.096,0.2094 -2.096,1.1514 0,0.2093 0.419,1.3607 0.629,1.884 l 8.174,21.0384 c 1.048,-2.826 8.488,-21.2477 8.488,-22.7131 0,-0.942 -0.943,-1.1513 -1.886,-1.3607 l -2.096,-0.314 v -1.0467 h 10.165 v 1.0467 l -1.257,0.314 c -0.524,0.1047 -1.048,0.4187 -1.467,0.7327 -1.048,1.0467 -2.516,5.5474 -3.773,7.8502 l -3.249,7.7455 c -2.724,6.4894 -5.03,12.2462 -5.449,13.5022 -0.21,0.2094 -0.943,0.5234 -1.572,0.7327 z"
       fill="#ffffff"
       id="path14" />
    <path
       d="m 235.268,53.5247 0.943,-0.1046 c 1.782,-0.3141 1.991,-0.8374 3.144,-3.5588 l 9.851,-23.8645 c 0.419,-0.942 0.734,-1.884 1.153,-2.826 l 1.362,-0.4187 10.584,27.3186 c 0.734,1.884 1.153,2.9307 2.411,3.2447 l 1.886,0.314 v 1.0467 h -11.737 v -1.0467 l 2.096,-0.4187 c 0.838,-0.1047 1.467,-0.4187 1.467,-0.942 0,-0.314 -0.21,-0.628 -0.314,-0.942 l -3.354,-8.8969 c -1.781,-0.314 -3.458,-0.5233 -5.24,-0.5233 -1.676,0 -3.353,0.2093 -4.925,0.5233 l -2.41,6.5942 c -0.524,1.4653 -0.944,2.826 -0.944,3.14 0,0.942 0.629,1.0467 1.153,1.0467 l 2.83,0.4187 v 1.0467 h -9.956 z m 9.851,-12.9789 c 1.467,-0.1047 2.934,-0.2093 4.297,-0.2093 1.467,0 3.039,0 4.506,0.2093 l -4.297,-11.4089 z"
       fill="#ffffff"
       id="path16" />
    <path
       d="m 102.072,66.713 c -0.105,1.1514 -0.315,1.9887 -0.734,3.0354 -0.524,0.2093 -1.8863,0.628 -3.6678,0.628 -3.3535,0 -6.6022,-1.57 -6.6022,-6.0708 0,-4.5007 3.7727,-6.1754 6.6022,-6.1754 1.7815,0 3.1438,0.4186 3.6678,0.7326 0.21,0.7327 0.314,1.7794 0.314,2.6168 l -0.524,0.1046 c -0.209,-0.7326 -0.419,-2.826 -3.4578,-2.826 -3.0391,0 -4.7159,1.884 -4.7159,5.2334 0,3.0354 1.4672,5.8615 4.7159,5.8615 2.9338,0 3.3538,-1.7794 3.9818,-3.2448 z"
       fill="#ffffff"
       id="path18" />
    <path
       d="m 102.596,65.457 c 0,-3.0354 2.41,-5.0241 5.135,-5.0241 2.724,0 4.82,1.6747 4.82,4.8148 0,3.14 -2.305,5.0241 -5.135,5.0241 -2.829,0 -4.82,-1.6747 -4.82,-4.8148 z m 5.239,4.3961 c 2.411,0 3.354,-2.0934 3.354,-4.1867 0,-2.7214 -1.362,-4.7101 -3.563,-4.7101 -2.201,0 -3.354,1.7793 -3.354,4.2914 -0.104,2.826 1.363,4.6054 3.563,4.6054 z"
       fill="#ffffff"
       id="path20" />
    <path
       d="m 113.39,69.7484 0.314,-0.1047 c 0.21,0 0.314,-0.1047 0.419,-0.2093 0.105,-0.1047 0.21,-1.0467 0.315,-2.3027 l 0.209,-3.5588 c 0.105,-0.942 0.105,-2.512 0.105,-2.9307 l 0.419,-0.1047 c 0.419,0.7327 3.668,6.9082 4.087,7.6408 0.419,-0.7326 3.668,-6.8034 3.878,-7.5361 l 0.419,-0.1047 c 0,0.1047 0.105,1.6747 0.21,3.5588 l 0.104,2.512 c 0.105,1.256 0.21,2.6167 0.315,2.8261 0.104,0.1046 0.314,0.2093 0.524,0.314 l 0.419,0.1046 v 0.3141 h -3.668 V 69.853 l 0.524,-0.1046 c 0.629,-0.1047 0.629,-0.314 0.629,-0.942 0,-1.5701 -0.21,-4.6055 -0.21,-5.4428 -0.209,0.628 -1.677,3.4541 -3.144,6.1754 -0.105,0.1047 -0.105,0.314 -0.209,0.4187 l -0.42,0.2094 c -0.314,-0.6281 -2.095,-4.1868 -3.143,-6.0708 -0.105,-0.314 -0.315,-0.5234 -0.42,-0.8374 0,0.8374 -0.209,4.8148 -0.209,5.3381 0,0.8374 0,1.0467 0.629,1.1514 l 0.524,0.1046 v 0.3141 h -2.935 v -0.4187 z"
       fill="#ffffff"
       id="path22" />
    <path
       d="m 125.965,69.7483 h 0.524 c 0.35,-0.0697 0.524,-0.6977 0.524,-1.884 v -4.9194 c 0,-1.1863 -0.174,-1.8143 -0.524,-1.8841 h -0.524 v -0.314 h 3.773 c 1.362,0 3.458,0.2094 3.458,2.6168 0,1.9887 -2.201,2.826 -3.563,2.826 h -0.21 v -0.314 c 0.629,0 2.306,-0.314 2.306,-2.4074 0,-1.6747 -1.153,-2.198 -2.41,-2.198 -0.315,0 -0.629,0.1046 -0.839,0.1046 v 6.5942 c 0,1.1862 0.28,1.8142 0.839,1.884 h 0.524 v 0.314 h -3.668 v -0.4187 z"
       fill="#ffffff"
       id="path24" />
    <path
       d="m 132.358,69.7484 h 0.314 c 0.524,-0.1047 0.629,-0.2094 0.943,-1.0467 l 2.935,-7.2222 c 0.105,-0.314 0.209,-0.5233 0.314,-0.8373 l 0.419,-0.1047 3.144,8.2689 c 0.21,0.5233 0.315,0.942 0.734,0.942 l 0.524,0.1046 v 0.3141 h -3.563 V 69.853 l 0.628,-0.1046 c 0.21,0 0.42,-0.1047 0.42,-0.314 0,-0.1047 -0.105,-0.2094 -0.105,-0.314 l -1.048,-2.7214 c -0.524,-0.1047 -1.048,-0.1047 -1.572,-0.1047 -0.524,0 -1.048,0.1047 -1.467,0.1047 l -0.734,1.9887 c -0.209,0.4187 -0.314,0.8373 -0.314,0.942 0,0.314 0.209,0.314 0.314,0.314 l 0.839,0.1047 v 0.314 h -3.04 v -0.314 z m 3.039,-3.8728 c 0.419,0 0.838,-0.1046 1.258,-0.1046 0.419,0 0.943,0 1.362,0.1046 l -1.362,-3.454 z"
       fill="#ffffff"
       id="path26" />
    <path
       d="m 141.58,69.7484 h 0.524 c 0.524,0 0.629,-0.5233 0.629,-1.9887 v -7.0128 l 0.314,-0.1046 c 1.153,1.4653 5.45,5.8614 6.917,7.4314 v -4.9194 c 0,-1.57 0,-1.9887 -0.734,-1.9887 h -0.524 v -0.314 h 3.039 v 0.314 h -0.524 c -0.524,0 -0.628,0.5233 -0.628,1.9887 v 7.0128 l -0.315,0.1047 c -0.314,-0.314 -1.153,-1.256 -2.725,-2.8261 l -4.296,-4.5007 v 4.8147 c 0,1.5701 0,1.9887 0.733,1.9887 h 0.524 v 0.314 h -3.039 v -0.314 z m 3.144,-10.3622 c 0.21,-0.314 0.734,-1.1513 1.467,-1.1513 0.314,0 0.734,0.1046 1.048,0.314 0.314,0.1046 0.734,0.314 1.048,0.314 0.419,0 0.629,-0.4187 0.734,-0.628 l 0.209,0.2093 c -0.209,0.314 -0.524,1.1514 -1.362,1.1514 -0.734,0 -1.677,-0.5234 -2.096,-0.5234 -0.419,0 -0.734,0.4187 -0.838,0.628 z"
       fill="#ffffff"
       id="path28" />
    <path
       d="m 152.479,69.7483 h 0.524 c 0.349,-0.0697 0.524,-0.6977 0.524,-1.884 v -4.9194 c 0,-1.1863 -0.175,-1.8143 -0.524,-1.8841 h -0.524 v -0.314 h 3.458 v 0.314 h -0.524 c -0.349,0.0698 -0.524,0.6978 -0.524,1.8841 v 4.9194 c 0,1.1863 0.175,1.8143 0.524,1.884 h 0.524 v 0.3141 h -3.458 z"
       fill="#ffffff"
       id="path30" />
    <path
       d="m 155.937,69.7484 h 0.315 c 0.524,-0.1047 0.628,-0.2094 0.943,-1.0467 l 2.934,-7.2222 c 0.105,-0.314 0.21,-0.5233 0.315,-0.8373 l 0.419,-0.1047 3.144,8.2689 c 0.209,0.5233 0.314,0.942 0.733,0.942 l 0.524,0.1046 v 0.3141 h -3.563 V 69.853 l 0.629,-0.1046 c 0.209,0 0.419,-0.1047 0.419,-0.314 0,-0.1047 -0.105,-0.2094 -0.105,-0.314 l -1.048,-2.7214 c -0.524,-0.1047 -1.048,-0.1047 -1.572,-0.1047 -0.524,0 -1.048,0.1047 -1.467,0.1047 l -0.733,1.9887 c -0.21,0.4187 -0.315,0.8373 -0.315,0.942 0,0.314 0.21,0.314 0.315,0.314 l 0.838,0.1047 v 0.314 h -3.039 v -0.314 z m 3.039,-3.8728 c 0.42,0 0.839,-0.1046 1.258,-0.1046 0.419,0 0.943,0 1.362,0.1046 l -1.362,-3.454 z"
       fill="#ffffff"
       id="path32" />
    <path
       d="m 168.513,69.853 h 0.419 c 0.419,0 0.419,-0.1046 0.419,-1.57 v -4.0821 c 0,-0.9769 -0.14,-1.5002 -0.419,-1.57 h -0.419 v -0.2094 h 3.877 c 2.515,0 4.087,1.3607 4.087,3.6635 0,3.0353 -2.305,4.1867 -4.716,4.1867 h -3.143 V 69.853 Z m 1.991,-0.314 c 0.419,0.1047 0.943,0.2094 1.362,0.2094 2.201,0 3.354,-1.1514 3.354,-3.4541 0,-2.5121 -1.363,-3.5587 -3.459,-3.5587 -0.419,0 -0.838,0.1046 -1.257,0.1046 z"
       fill="#ffffff"
       id="path34" />
    <path
       d="m 177.42,69.853 h 0.42 c 0.419,0 0.419,-0.1046 0.419,-1.57 v -4.0821 c 0,-0.9769 -0.14,-1.5002 -0.419,-1.57 h -0.42 v -0.2094 h 5.135 c 0,0.2094 0.105,0.7327 0.105,1.2561 v 0.5233 h -0.314 c -0.21,-1.256 -0.315,-1.4653 -1.991,-1.4653 h -0.944 v 3.2447 h 1.048 c 0.944,0 1.153,0 1.258,-0.5234 l 0.105,-0.4186 h 0.314 v 2.0933 h -0.314 l -0.105,-0.4186 c -0.105,-0.5234 -0.314,-0.5234 -1.258,-0.5234 h -1.048 v 3.4541 c 0.42,0.1047 0.839,0.1047 1.258,0.1047 1.886,0 1.991,-0.7327 2.201,-1.6747 h 0.314 c 0,0.7326 -0.209,1.3607 -0.419,1.9887 h -5.449 V 69.853 Z"
       fill="#ffffff"
       id="path36" />
    <path
       d="m 191.568,63.3636 c 1.362,0.8373 2.829,1.57 2.829,3.6634 0,2.4074 -2.2,3.3494 -4.087,3.3494 -1.362,0 -2.201,-0.4187 -2.829,-0.7327 -0.315,-0.7327 -0.524,-1.9887 -0.524,-3.14 l 0.524,-0.1047 c 0.209,1.256 0.838,3.3494 3.248,3.3494 1.258,0 2.096,-0.8374 2.096,-2.198 0,-1.2561 -1.048,-2.1981 -2.515,-2.8261 l -1.153,-0.628 c -1.048,-0.5234 -1.991,-1.6747 -1.991,-2.9307 0,-2.1981 1.782,-3.0354 3.668,-3.0354 1.153,0 1.991,0.314 2.41,0.5233 0.105,0.5233 0.21,1.9887 0.21,2.4074 h -0.419 c -0.21,-0.8374 -0.419,-2.4074 -2.515,-2.4074 -1.048,0 -1.887,0.7327 -1.887,1.884 0,1.0467 0.734,1.5701 1.677,2.1981 z"
       fill="#ffffff"
       id="path38" />
    <path
       d="m 195.341,69.7483 h 0.524 c 0.349,-0.0697 0.524,-0.6977 0.524,-1.884 v -4.9194 c 0,-1.1863 -0.175,-1.8143 -0.524,-1.8841 h -0.524 v -0.314 h 6.183 c 0.104,0.314 0.104,0.8374 0.104,1.4654 v 0.5233 l -0.314,0.1047 C 201,61.2702 201,61.0608 199.008,61.0608 h -1.152 v 3.8728 h 1.257 c 1.153,0 1.363,0 1.467,-0.628 l 0.105,-0.5234 h 0.419 v 2.6168 h -0.419 l -0.105,-0.5234 c -0.104,-0.628 -0.314,-0.628 -1.467,-0.628 h -1.257 v 4.0821 c 0.524,0.1046 1.048,0.2093 1.572,0.2093 2.305,0 2.41,-0.8373 2.724,-1.9887 l 0.315,0.1047 c 0,0.942 -0.21,1.57 -0.524,2.4074 h -6.498 v -0.3141 z"
       fill="#ffffff"
       id="path40" />
    <path
       d="m 212.003,69.6437 c -0.524,0.2093 -1.991,0.7327 -3.563,0.7327 -2.829,0 -5.449,-1.256 -5.449,-4.9194 0,-3.6635 3.039,-4.9195 5.344,-4.9195 1.467,0 2.515,0.314 2.935,0.628 0.104,0.5234 0.209,1.3607 0.209,2.0934 l -0.419,0.1047 c -0.105,-0.5234 -0.314,-2.3027 -2.725,-2.3027 -2.41,0 -3.772,1.57 -3.772,4.1867 0,2.4074 1.257,4.7101 4.087,4.7101 0.524,0 1.152,-0.1047 1.676,-0.2093 v -0.628 c 0,-1.1863 -0.349,-1.8143 -1.048,-1.8841 h -0.524 v -0.314 h 3.668 v 0.314 h -0.524 c -0.209,0.0698 -0.314,0.5583 -0.314,1.4654 0,0.4187 0,0.5233 0.21,0.5233 h 0.104 z"
       fill="#ffffff"
       id="path42" />
    <path
       d="m 220.806,69.853 c -0.209,-0.2093 -0.314,-0.4187 -0.524,-0.4187 -0.209,0 -1.362,0.9421 -3.248,0.9421 -2.935,0 -3.249,-1.6747 -3.249,-3.6634 v -3.7681 c 0,-1.1863 -0.175,-1.8143 -0.524,-1.8841 h -0.524 v -0.314 h 3.458 v 0.314 h -0.524 c -0.349,0.0698 -0.524,0.6978 -0.524,1.8841 v 3.5587 c 0,1.9887 0.315,3.3494 2.515,3.3494 1.468,0 2.411,-0.8373 2.62,-1.1513 v -5.7568 c 0,-1.1863 -0.174,-1.8143 -0.524,-1.8841 h -0.524 v -0.314 h 3.459 v 0.314 h -0.524 c -0.35,0.0698 -0.524,0.6978 -0.524,1.8841 v 7.2221 l -0.42,0.1047 z"
       fill="#ffffff"
       id="path44" />
    <path
       d="m 223.426,69.7483 h 0.524 c 0.349,-0.0697 0.524,-0.6977 0.524,-1.884 v -4.9194 c 0,-1.1863 -0.175,-1.8143 -0.524,-1.8841 h -0.524 v -0.314 h 3.773 c 1.362,0 3.248,0.2094 3.248,2.4074 0,1.3607 -1.152,2.0934 -1.991,2.5121 0.21,0.4186 0.734,1.3607 1.048,1.9887 0.629,1.0467 1.258,1.884 1.572,2.0933 0.105,0.1047 0.419,0.1047 0.734,0.1047 v 0.314 h -1.153 c -0.943,0 -1.572,-0.628 -1.991,-1.4653 l -0.524,-1.0467 c -0.419,-0.7327 -0.734,-1.2561 -0.839,-1.3607 -0.209,-0.2094 -0.628,-0.2094 -0.838,-0.2094 h -0.524 v 1.8841 c 0,1.1862 0.175,1.8142 0.524,1.884 h 0.524 v 0.314 h -3.458 v -0.4187 z m 2.41,-4.1867 h 0.839 c 1.152,0 2.305,-0.628 2.305,-2.3027 0,-1.6747 -1.048,-2.1981 -2.201,-2.1981 -0.314,0 -0.628,0.1047 -0.838,0.1047 v 4.3961 z"
       fill="#ffffff"
       id="path46" />
    <path
       d="m 231.6,65.457 c 0,-3.0354 2.41,-5.0241 5.135,-5.0241 2.725,0 4.821,1.6747 4.821,4.8148 0,3.14 -2.306,5.0241 -5.135,5.0241 -2.83,0 -4.821,-1.6747 -4.821,-4.8148 z m 5.135,4.3961 c 2.41,0 3.354,-2.0934 3.354,-4.1867 0,-2.7214 -1.363,-4.7101 -3.564,-4.7101 -2.2,0 -3.353,1.7793 -3.353,4.2914 -0.105,2.826 1.362,4.6054 3.563,4.6054 z"
       fill="#ffffff"
       id="path48" />
    <path
       d="m 246.272,64.7243 c 1.153,0.628 2.305,1.256 2.305,2.9307 0,1.8841 -1.781,2.6167 -3.248,2.6167 -1.153,0 -1.782,-0.314 -2.201,-0.5233 -0.21,-0.5233 -0.419,-1.57 -0.419,-2.5121 l 0.419,-0.1046 c 0.105,1.0467 0.734,2.7214 2.62,2.7214 0.943,0 1.677,-0.628 1.677,-1.7794 0,-1.0467 -0.839,-1.7794 -1.992,-2.3027 l -0.943,-0.5234 c -0.838,-0.4186 -1.572,-1.3607 -1.572,-2.4073 0,-1.7794 1.467,-2.5121 2.935,-2.5121 0.838,0 1.572,0.2093 1.991,0.4187 0.105,0.4187 0.105,1.57 0.105,1.9887 h -0.315 c -0.105,-0.7327 -0.419,-1.9887 -1.991,-1.9887 -0.838,0 -1.572,0.628 -1.572,1.57 0,0.8374 0.629,1.256 1.362,1.7794 z"
       fill="#ffffff"
       id="path50" />
    <path
       d="M 32.1725,5.7957 C 14.3571,5.7957 0,20.24 0,37.929 0,55.618 14.4619,70.0623 32.1725,70.0623 49.8831,70.0623 64.345,55.618 64.345,37.929 64.345,20.24 49.9879,5.7957 32.1725,5.7957 Z m -0.4192,13.3976 c 1.048,0.7327 1.8864,1.57 3.0391,2.6167 0.2096,0.2094 0.4192,0.4187 1.1528,0.2094 1.4671,-0.4187 4.9254,-2.0934 7.4405,-2.4074 1.1528,-0.1047 1.4672,0 2.096,0.628 1.2575,1.1514 2.3055,1.884 3.0391,2.8261 -2.5152,0.314 -3.3535,0.5233 -3.8775,0.628 l -0.3144,0.1046 c -1.1528,0.314 -1.4671,1.0467 -1.5719,1.4654 0,0.1047 -0.1048,0.314 -0.1048,0.5233 0,0.4187 0.1048,0.8374 0.5239,1.3607 0.6288,1.0467 1.048,1.7794 1.2576,2.3027 -2.4103,0.7327 -5.0302,1.7794 -6.183,2.3028 -0.7336,0.314 -1.2575,0.942 -1.3623,1.6747 v 0.4186 c 0,0.4187 0.1048,1.0467 0.7335,1.6747 1.7816,1.8841 3.7727,6.1755 3.7727,10.8856 0,1.0467 -0.1048,2.0934 -0.3144,3.1401 -0.9432,4.9194 -4.2966,8.6875 -9.8509,11.0949 -2.8295,1.256 -5.7638,1.57 -8.6981,1.4653 h 0.524 c 5.5542,-0.628 9.4317,-2.6167 12.1564,-7.4315 3.7727,-6.5941 0.9432,-14.7583 -4.7158,-19.3637 -1.572,-1.256 -3.4583,-2.3027 -5.1351,-3.3494 -0.4191,-0.314 -0.7335,-0.628 -0.1048,-1.3607 0.9432,-1.256 2.4104,-3.3494 5.0303,-5.3381 0.524,-0.4187 0.3144,-0.628 0.1048,-0.942 -0.9432,-0.7327 -1.4672,-1.1514 -2.6199,-1.8841 -0.6288,-0.314 -0.8384,-0.628 -0.4192,-1.0466 0.524,-0.5234 1.4671,-1.2561 3.5631,-2.1981 0.1048,-0.4187 0.5239,-0.2093 0.8383,0 z M 10.794,24.8454 c 0.4192,-0.8373 1.4672,-2.826 2.4104,-3.9774 0.2095,-0.314 0.4191,-0.4187 0.9431,-0.314 0.9432,0.1047 2.5151,0.8374 4.6111,1.3607 0.4192,0.1047 0.6287,0.1047 0.9431,-0.314 0.8384,-0.942 3.2487,-3.1401 7.1262,-4.8148 0.4192,-0.2093 1.048,-0.2093 1.5719,0.1047 0.4192,0.2093 0.9432,0.4187 1.572,0.7327 -1.8863,0.8373 -2.8295,1.57 -3.5631,2.3027 -0.6288,0.628 -0.7336,1.256 -0.7336,1.6747 v 0.314 c 0.1048,0.7327 0.524,1.3607 1.3624,1.7794 l 0.1048,0.1046 c 0,0 -0.1048,0 -0.1048,-0.1046 0.6288,0.314 1.048,0.628 1.4671,0.942 -2.0959,1.884 -3.4582,3.6634 -4.2966,4.8147 -0.6288,0.8374 -0.7336,1.5701 -0.6288,2.0934 0.1048,0.5234 0.3144,1.1514 1.2576,1.6747 l 0.8383,0.5234 c 1.4672,0.8373 2.8295,1.6747 4.0871,2.7214 4.7158,3.8727 7.7549,11.0948 4.2966,17.2703 -2.3055,4.0821 -5.659,6.2801 -10.8988,6.9082 -1.8863,0.2093 -3.6679,0.1046 -5.3446,-0.3141 0.7336,0.1047 1.3624,0.1047 2.0959,0.1047 3.8775,-0.1047 8.0694,-1.4654 10.1653,-4.8148 5.3446,-8.4781 -0.8384,-17.1656 -9.1173,-19.887 -1.8863,-0.628 -5.0302,-1.256 -7.4406,-1.5701 -0.9431,-0.1046 -1.1527,-0.4186 -0.8383,-1.0466 0.524,-1.0467 1.4671,-3.1401 3.2487,-5.8615 0.1048,-0.1047 0,-0.4187 -0.3144,-0.5233 -0.9432,-0.2094 -2.7247,-0.7327 -4.2967,-0.9421 -0.524,-0.2093 -0.7336,-0.4186 -0.524,-0.942 z m 25.78,42.0769 C 18.025,69.7483 8.59331,55.8274 8.59331,55.8274 12.89,59.9095 20.1209,66.6083 31.1245,61.5842 47.0536,54.4667 42.3378,38.557 38.0411,33.8469 c -0.524,-0.5233 -0.2096,-1.0466 0.2096,-1.1513 1.2576,-0.5234 4.6111,-1.8841 7.231,-2.5121 0.3144,-0.1046 0.3144,-0.2093 0.2096,-0.628 -0.2096,-0.628 -0.524,-1.6747 -1.7816,-3.7681 -0.4192,-0.4186 -0.2096,-0.7326 0.2096,-0.8373 0.6288,-0.1047 1.048,-0.314 4.4015,-0.7327 0.3143,-0.1047 0.7335,0.1047 0.9431,0.4187 0.7336,1.256 1.2576,2.512 1.7816,4.1867 0,0.2094 0.3144,0.5234 0.6287,0.5234 1.2576,0 5.6591,0.1046 7.9646,0.5233 0.2096,0 0.6288,0.2094 0.6288,0.5234 0.6287,1.884 1.9911,10.7809 -1.9912,20.201 C 53.7606,61.2702 45.0625,65.5616 36.574,66.9223 Z"
       fill="#ffffff"
       id="path52" />
  </g>
  <defs
     id="defs59">
    <clipPath
       id="clip0_1_2">
      <rect
         width="266.60199"
         height="64.580597"
         fill="#ffffff"
         transform="translate(0,5.7957)"
         id="rect56"
         x="0"
         y="0" />
    </clipPath>
  </defs>
</svg>
