<?xml version="1.0" encoding="UTF-8" standalone="no"?>
<svg
   width="322"
   height="78"
   viewBox="0 0 322 78"
   fill="none"
   version="1.1"
   id="svg61"
   sodipodi:docname="logotipo.svg"
   inkscape:version="1.2.2 (732a01da63, 2022-12-09)"
   xmlns:inkscape="http://www.inkscape.org/namespaces/inkscape"
   xmlns:sodipodi="http://sodipodi.sourceforge.net/DTD/sodipodi-0.dtd"
   xmlns="http://www.w3.org/2000/svg"
   xmlns:svg="http://www.w3.org/2000/svg">
  <sodipodi:namedview
     id="namedview63"
     pagecolor="#ffffff"
     bordercolor="#111111"
     borderopacity="1"
     inkscape:showpageshadow="0"
     inkscape:pageopacity="0"
     inkscape:pagecheckerboard="1"
     inkscape:deskcolor="#d1d1d1"
     showgrid="false"
     inkscape:zoom="2.7045405"
     inkscape:cx="153.26079"
     inkscape:cy="50.100932"
     inkscape:window-width="1920"
     inkscape:window-height="991"
     inkscape:window-x="1911"
     inkscape:window-y="-9"
     inkscape:window-maximized="1"
     inkscape:current-layer="svg61" />
  <g
     clip-path="url(#clip0_1_586)"
     id="g54"
     transform="translate(0,-7)">
    <path
       d="m 89.36,64.2675 2.5314,-0.2529 C 94.676,63.7618 94.676,63.3825 94.676,54.7861 V 30.1346 c 0,-8.5965 0,-8.9757 -2.7846,-9.2286 L 89.36,20.6532 v -1.6434 h 18.48 c 6.708,0 17.213,1.0113 17.213,12.7682 0,9.6078 -10.758,14.1588 -17.467,14.1588 h -1.265 v -1.517 c 3.037,0 11.265,-1.3906 11.265,-12.1361 0,-8.3436 -5.57,-10.872 -12.025,-10.872 -1.519,0 -3.038,0.2528 -4.43,0.6321 v 32.8687 c 0,8.5965 0,8.9757 3.924,9.2285 l 2.531,0.2529 v 1.517 H 89.2334 v -1.6434 z"
       fill="#ff7500"
       id="path2" />
    <path
       d="m 124.547,47.3275 c 0,-12.2626 9.493,-19.9741 20.505,-19.9741 11.012,0 19.365,6.7002 19.365,19.342 0,12.6418 -9.113,19.974 -20.504,19.974 -11.139,0 -19.366,-7.0794 -19.366,-19.3419 z m 20.631,17.4457 c 9.746,0 13.417,-8.3436 13.417,-16.6872 0,-10.7456 -5.316,-18.9628 -14.303,-18.9628 -8.986,0 -13.543,7.0795 -13.543,16.9401 -0.126,11.7569 5.822,18.7099 14.429,18.7099 z"
       fill="#ff7500"
       id="path4" />
    <path
       d="m 181.758,44.2934 c 4.556,2.5284 9.24,4.9303 9.24,11.7569 0,7.7115 -7.088,10.6191 -13.164,10.6191 -4.43,0 -7.215,-1.1377 -8.987,-2.2755 -1.012,-2.2755 -1.772,-6.4473 -1.772,-9.987 l 1.772,-0.5057 c 0.633,4.0454 2.785,10.872 10.506,10.872 3.924,0 6.835,-2.5284 6.835,-6.953 0,-4.1718 -3.544,-6.953 -7.974,-8.9757 l -3.671,-2.0227 c -3.291,-1.7699 -6.328,-5.3096 -6.328,-9.6078 0,-6.953 5.822,-9.8606 11.897,-9.8606 3.544,0 6.456,0.8849 7.848,1.7698 0.506,1.7699 0.633,6.4474 0.633,7.838 H 187.2 c -0.632,-2.9076 -1.518,-7.838 -7.974,-7.838 -3.29,0 -6.202,2.402 -6.202,6.1945 0,3.4133 2.405,5.1832 5.57,6.953 z"
       fill="#ff7500"
       id="path6" />
    <path
       d="m 191.124,64.6468 2.025,-0.1265 c 2.278,-0.2528 2.278,-0.5056 2.278,-7.4586 V 37.214 c 0,-6.953 0,-7.2058 -2.278,-7.4587 l -2.025,-0.1264 v -1.2642 h 13.923 v 1.2642 l -2.025,0.1264 c -2.278,0.2529 -2.278,0.5057 -2.278,7.4587 v 19.7212 c 0,6.953 0,7.2059 2.278,7.4587 l 2.025,0.1264 v 1.2642 h -13.923 z"
       fill="#ff7500"
       id="path8" />
    <path
       d="m 216.312,64.6467 2.152,-0.1264 c 3.164,-0.2528 3.164,-0.5057 3.164,-7.4587 V 29.8817 h -2.911 c -8.101,0 -8.227,0.8849 -9.366,7.4587 h -1.393 c 0,-0.2528 -0.126,-1.7699 -0.126,-2.5284 0,-2.6548 0.38,-5.3095 0.633,-6.5737 h 31.769 c 0.253,1.2642 0.633,3.9189 0.633,6.5737 0,0.7585 -0.126,2.2756 -0.126,2.5284 h -1.393 c -1.265,-6.5738 -1.392,-7.4587 -9.366,-7.4587 h -2.911 v 27.0535 c 0,6.953 0,7.2058 3.164,7.4587 l 2.025,0.1264 v 1.2642 h -15.821 v -1.1378 z"
       fill="#ff7500"
       id="path10" />
    <path
       d="m 242.766,64.6468 2.025,-0.1265 c 2.278,-0.2528 2.278,-0.5056 2.278,-7.4586 V 37.214 c 0,-6.953 0,-7.2058 -2.278,-7.4587 l -2.025,-0.1264 v -1.2642 h 13.923 v 1.2642 l -2.026,0.1264 c -2.278,0.2529 -2.278,0.5057 -2.278,7.4587 v 19.7212 c 0,6.953 0,7.2059 2.278,7.4587 l 2.026,0.1264 v 1.2642 h -13.923 z"
       fill="#ff7500"
       id="path12" />
    <path
       d="m 263.27,34.0535 c -0.886,-2.1491 -1.518,-4.1718 -3.417,-4.4246 l -1.645,-0.1264 v -1.2642 h 14.176 v 1.2642 l -1.772,0.1264 c -0.886,0.1264 -2.532,0.2528 -2.532,1.3906 0,0.2528 0.506,1.6434 0.76,2.2755 l 9.872,25.4101 c 1.266,-3.4133 10.253,-25.6629 10.253,-27.4328 0,-1.1377 -1.14,-1.3906 -2.279,-1.6434 l -2.531,-0.3792 v -1.2642 h 12.277 v 1.2642 l -1.519,0.3792 c -0.632,0.1264 -1.265,0.5057 -1.772,0.8849 -1.265,1.2642 -3.037,6.7002 -4.556,9.4814 l -3.924,9.3549 c -3.291,7.838 -6.075,14.791 -6.582,16.308 -0.253,0.2528 -1.139,0.6321 -1.898,0.8849 z"
       fill="#ff7500"
       id="path14" />
    <path
       d="m 284.155,64.6467 1.139,-0.1264 c 2.152,-0.3793 2.405,-1.0114 3.797,-4.2983 l 11.898,-28.8233 c 0.506,-1.1378 0.886,-2.2755 1.392,-3.4133 l 1.646,-0.5057 12.783,32.9952 c 0.886,2.2755 1.393,3.5397 2.912,3.9189 L 322,64.7731 v 1.2642 h -14.176 v -1.2642 l 2.531,-0.5057 c 1.013,-0.1264 1.772,-0.5057 1.772,-1.1377 0,-0.3793 -0.253,-0.7586 -0.379,-1.1378 l -4.051,-10.7456 c -2.151,-0.3792 -4.177,-0.632 -6.328,-0.632 -2.026,0 -4.051,0.2528 -5.949,0.632 l -2.911,7.9644 c -0.633,1.7698 -1.14,3.4133 -1.14,3.7925 0,1.1378 0.76,1.2642 1.393,1.2642 l 3.417,0.5057 v 1.2642 h -12.024 z m 11.898,-15.6759 c 1.772,-0.1264 3.544,-0.2528 5.189,-0.2528 1.772,0 3.671,0 5.443,0.2528 l -5.19,-13.7796 z"
       fill="#ff7500"
       id="path16" />
    <path
       d="m 123.282,80.5754 c -0.127,1.3906 -0.38,2.4019 -0.886,3.6661 -0.633,0.2529 -2.279,0.7585 -4.43,0.7585 -4.051,0 -7.975,-1.8962 -7.975,-7.3322 0,-5.436 4.557,-7.4587 7.975,-7.4587 2.151,0 3.797,0.5057 4.43,0.8849 0.253,0.885 0.379,2.1491 0.379,3.1605 l -0.633,0.1264 c -0.253,-0.8849 -0.506,-3.4133 -4.176,-3.4133 -3.671,0 -5.696,2.2755 -5.696,6.3209 0,3.6661 1.772,7.0794 5.696,7.0794 3.544,0 4.05,-2.1491 4.809,-3.9189 z"
       fill="#ff7500"
       id="path18" />
    <path
       d="m 123.914,79.0584 c 0,-3.6661 2.911,-6.068 6.202,-6.068 3.291,0 5.823,2.0226 5.823,5.8152 0,3.7925 -2.785,6.0681 -6.202,6.0681 -3.418,0 -5.823,-2.0227 -5.823,-5.8153 z m 6.329,5.3096 c 2.911,0 4.05,-2.5284 4.05,-5.0567 0,-3.2869 -1.645,-5.6889 -4.303,-5.6889 -2.658,0 -4.051,2.1492 -4.051,5.1832 -0.126,3.4133 1.646,5.5624 4.304,5.5624 z"
       fill="#ff7500"
       id="path20" />
    <path
       d="m 136.951,84.2415 0.38,-0.1264 c 0.253,0 0.38,-0.1264 0.506,-0.2529 0.127,-0.1264 0.253,-1.2641 0.38,-2.7812 l 0.253,-4.2982 c 0.127,-1.1377 0.127,-3.034 0.127,-3.5397 l 0.506,-0.1264 c 0.506,0.8849 4.43,8.3436 4.936,9.2285 0.507,-0.8849 4.43,-8.2172 4.683,-9.1021 l 0.507,-0.1264 c 0,0.1264 0.126,2.0227 0.253,4.2982 l 0.126,3.0341 c 0.127,1.517 0.254,3.1604 0.38,3.4132 0.127,0.1265 0.38,0.2529 0.633,0.3793 l 0.506,0.1264 v 0.3793 h -4.43 v -0.3793 l 0.633,-0.1264 c 0.76,-0.1264 0.76,-0.3793 0.76,-1.1378 0,-1.8962 -0.254,-5.5624 -0.254,-6.5737 -0.253,0.7585 -2.025,4.1718 -3.797,7.4587 -0.126,0.1264 -0.126,0.3792 -0.253,0.5056 l -0.506,0.2529 c -0.38,-0.7585 -2.532,-5.0568 -3.797,-7.3323 -0.127,-0.3792 -0.38,-0.6321 -0.507,-1.0113 0,1.0113 -0.253,5.8152 -0.253,6.4473 0,1.0113 0,1.2642 0.76,1.3906 l 0.633,0.1264 v 0.3793 h -3.544 v -0.5057 z"
       fill="#ff7500"
       id="path22" />
    <path
       d="m 152.14,84.2415 h 0.633 c 0.422,-0.0843 0.633,-0.8428 0.633,-2.2756 v -5.9416 c 0,-1.4328 -0.211,-2.1913 -0.633,-2.2755 h -0.633 v -0.3793 h 4.557 c 1.645,0 4.177,0.2528 4.177,3.1605 0,2.4019 -2.658,3.4133 -4.304,3.4133 h -0.253 V 79.564 c 0.759,0 2.785,-0.3793 2.785,-2.9076 0,-2.0227 -1.393,-2.6548 -2.912,-2.6548 -0.379,0 -0.759,0.1264 -1.012,0.1264 v 7.9644 c 0,1.4327 0.337,2.1912 1.012,2.2755 h 0.633 v 0.3792 h -4.43 v -0.5056 z"
       fill="#ff7500"
       id="path24" />
    <path
       d="m 159.861,84.2415 h 0.38 c 0.632,-0.1264 0.759,-0.2528 1.139,-1.2642 l 3.544,-8.7228 c 0.126,-0.3793 0.253,-0.6321 0.38,-1.0114 l 0.506,-0.1264 3.797,9.987 c 0.253,0.6321 0.38,1.1378 0.886,1.1378 l 0.633,0.1264 v 0.3793 h -4.304 v -0.3793 l 0.76,-0.1264 c 0.253,0 0.506,-0.1264 0.506,-0.3793 0,-0.1264 -0.126,-0.2528 -0.126,-0.3792 l -1.266,-3.2869 c -0.633,-0.1264 -1.266,-0.1264 -1.899,-0.1264 -0.633,0 -1.265,0.1264 -1.772,0.1264 l -0.886,2.402 c -0.253,0.5056 -0.379,1.0113 -0.379,1.1377 0,0.3793 0.253,0.3793 0.379,0.3793 l 1.013,0.1264 v 0.3793 h -3.671 v -0.3793 z m 3.671,-4.6775 c 0.506,0 1.012,-0.1264 1.518,-0.1264 0.507,0 1.14,0 1.646,0.1264 l -1.646,-4.1718 z"
       fill="#ff7500"
       id="path26" />
    <path
       d="m 170.999,84.2416 h 0.633 c 0.633,0 0.76,-0.6321 0.76,-2.402 v -8.47 l 0.379,-0.1264 c 1.393,1.7698 6.582,7.0794 8.354,8.9757 v -5.9417 c 0,-1.8962 0,-2.4019 -0.886,-2.4019 h -0.633 V 73.496 h 3.671 v 0.3793 h -0.633 c -0.633,0 -0.759,0.6321 -0.759,2.4019 v 8.47 l -0.38,0.1265 c -0.38,-0.3793 -1.392,-1.5171 -3.291,-3.4133 l -5.189,-5.436 v 5.8152 c 0,1.8963 0,2.402 0.886,2.402 h 0.632 v 0.3792 h -3.67 v -0.3792 z m 3.798,-12.5154 c 0.253,-0.3793 0.886,-1.3906 1.772,-1.3906 0.379,0 0.886,0.1264 1.265,0.3792 0.38,0.1264 0.886,0.3793 1.266,0.3793 0.506,0 0.759,-0.5057 0.886,-0.7585 l 0.253,0.2528 c -0.253,0.3793 -0.633,1.3906 -1.645,1.3906 -0.886,0 -2.025,-0.6321 -2.532,-0.6321 -0.506,0 -0.886,0.5057 -1.012,0.7585 z"
       fill="#ff7500"
       id="path28" />
    <path
       d="m 184.163,84.2415 h 0.633 c 0.422,-0.0843 0.633,-0.8428 0.633,-2.2756 v -5.9416 c 0,-1.4328 -0.211,-2.1913 -0.633,-2.2755 h -0.633 v -0.3793 h 4.177 v 0.3793 h -0.633 c -0.422,0.0842 -0.633,0.8427 -0.633,2.2755 v 5.9416 c 0,1.4328 0.211,2.1913 0.633,2.2756 h 0.633 v 0.3792 h -4.177 z"
       fill="#ff7500"
       id="path30" />
    <path
       d="m 188.34,84.2415 h 0.379 c 0.633,-0.1264 0.76,-0.2528 1.14,-1.2642 l 3.544,-8.7228 c 0.126,-0.3793 0.253,-0.6321 0.379,-1.0114 l 0.507,-0.1264 3.797,9.987 c 0.253,0.6321 0.379,1.1378 0.886,1.1378 l 0.633,0.1264 v 0.3793 h -4.304 v -0.3793 l 0.76,-0.1264 c 0.253,0 0.506,-0.1264 0.506,-0.3793 0,-0.1264 -0.127,-0.2528 -0.127,-0.3792 l -1.265,-3.2869 c -0.633,-0.1264 -1.266,-0.1264 -1.899,-0.1264 -0.633,0 -1.266,0.1264 -1.772,0.1264 l -0.886,2.402 c -0.253,0.5056 -0.38,1.0113 -0.38,1.1377 0,0.3793 0.253,0.3793 0.38,0.3793 l 1.013,0.1264 v 0.3793 h -3.671 v -0.3793 z m 3.67,-4.6775 c 0.507,0 1.013,-0.1264 1.519,-0.1264 0.506,0 1.139,0 1.646,0.1264 l -1.646,-4.1718 z"
       fill="#ff7500"
       id="path32" />
    <path
       d="m 203.528,84.3679 h 0.507 c 0.506,0 0.506,-0.1264 0.506,-1.8963 v -4.9303 c 0,-1.1799 -0.169,-1.812 -0.506,-1.8963 h -0.507 v -0.2528 h 4.683 c 3.038,0 4.937,1.6434 4.937,4.4246 0,3.6662 -2.785,5.0568 -5.696,5.0568 h -3.797 v -0.5057 z m 2.405,-0.3793 c 0.506,0.1265 1.139,0.2529 1.646,0.2529 2.658,0 4.05,-1.3906 4.05,-4.1718 0,-3.0341 -1.646,-4.2982 -4.177,-4.2982 -0.506,0 -1.013,0.1264 -1.519,0.1264 z"
       fill="#ff7500"
       id="path34" />
    <path
       d="m 214.287,84.3679 h 0.506 c 0.507,0 0.507,-0.1264 0.507,-1.8963 v -4.9303 c 0,-1.1799 -0.169,-1.812 -0.507,-1.8963 h -0.506 v -0.2528 h 6.202 c 0,0.2528 0.127,0.8849 0.127,1.517 v 0.6321 h -0.38 c -0.253,-1.517 -0.38,-1.7698 -2.405,-1.7698 h -1.139 v 3.9189 h 1.266 c 1.139,0 1.392,0 1.518,-0.6321 l 0.127,-0.5056 h 0.38 v 2.5283 h -0.38 l -0.127,-0.5056 c -0.126,-0.6321 -0.379,-0.6321 -1.518,-0.6321 h -1.266 v 4.1718 c 0.506,0.1264 1.012,0.1264 1.519,0.1264 2.278,0 2.405,-0.8849 2.658,-2.0227 h 0.379 c 0,0.8849 -0.253,1.6434 -0.506,2.4019 h -6.582 v -0.2528 z"
       fill="#ff7500"
       id="path36" />
    <path
       d="m 231.374,76.53 c 1.646,1.0114 3.418,1.8963 3.418,4.4246 0,2.9077 -2.658,4.0454 -4.936,4.0454 -1.646,0 -2.659,-0.5056 -3.418,-0.8849 -0.38,-0.8849 -0.633,-2.4019 -0.633,-3.7925 l 0.633,-0.1265 c 0.253,1.5171 1.013,4.0454 3.924,4.0454 1.519,0 2.531,-1.0113 2.531,-2.6548 0,-1.517 -1.265,-2.6547 -3.037,-3.4133 l -1.393,-0.7585 c -1.266,-0.632 -2.405,-2.0226 -2.405,-3.5397 0,-2.6547 2.152,-3.6661 4.43,-3.6661 1.393,0 2.405,0.3793 2.912,0.6321 0.126,0.6321 0.253,2.4019 0.253,2.9076 h -0.507 c -0.253,-1.0113 -0.506,-2.9076 -3.037,-2.9076 -1.266,0 -2.279,0.8849 -2.279,2.2755 0,1.2642 0.886,1.8963 2.026,2.6548 z"
       fill="#ff7500"
       id="path38" />
    <path
       d="m 235.931,84.2415 h 0.633 c 0.422,-0.0843 0.633,-0.8428 0.633,-2.2756 v -5.9416 c 0,-1.4328 -0.211,-2.1913 -0.633,-2.2755 h -0.633 v -0.3793 h 7.468 c 0.126,0.3793 0.126,1.0114 0.126,1.7699 v 0.6321 l -0.379,0.1264 c -0.38,-1.8963 -0.38,-2.1491 -2.785,-2.1491 h -1.392 v 4.6774 h 1.519 c 1.392,0 1.645,0 1.772,-0.7585 l 0.126,-0.6321 h 0.506 v 3.1605 h -0.506 L 242.26,79.564 c -0.127,-0.7585 -0.38,-0.7585 -1.772,-0.7585 h -1.519 v 4.9303 c 0.633,0.1264 1.265,0.2528 1.898,0.2528 2.785,0 2.911,-1.0113 3.291,-2.4019 l 0.38,0.1264 c 0,1.1378 -0.253,1.8963 -0.633,2.9076 h -7.848 v -0.3792 z"
       fill="#ff7500"
       id="path40" />
    <path
       d="M 256.056,84.1151 C 255.423,84.3679 253.651,85 251.752,85 c -3.417,0 -6.581,-1.517 -6.581,-5.9416 0,-4.4247 3.67,-5.9417 6.455,-5.9417 1.772,0 3.038,0.3793 3.544,0.7585 0.126,0.6321 0.253,1.6434 0.253,2.5284 l -0.506,0.1264 c -0.127,-0.6321 -0.38,-2.7812 -3.291,-2.7812 -2.911,0 -4.557,1.8963 -4.557,5.0567 0,2.9076 1.519,5.6888 4.937,5.6888 0.632,0 1.392,-0.1264 2.025,-0.2528 V 83.483 c 0,-1.4328 -0.422,-2.1913 -1.266,-2.2755 h -0.633 v -0.3793 h 4.43 v 0.3793 h -0.633 c -0.253,0.0842 -0.379,0.6742 -0.379,1.7698 0,0.5057 0,0.6321 0.253,0.6321 h 0.126 z"
       fill="#ff7500"
       id="path42" />
    <path
       d="m 266.688,84.3679 c -0.253,-0.2528 -0.38,-0.5057 -0.633,-0.5057 -0.253,0 -1.645,1.1378 -3.924,1.1378 -3.544,0 -3.923,-2.0227 -3.923,-4.4247 v -4.551 c 0,-1.4328 -0.211,-2.1913 -0.633,-2.2755 h -0.633 v -0.3793 h 4.177 v 0.3793 h -0.633 c -0.422,0.0842 -0.633,0.8427 -0.633,2.2755 v 4.2982 c 0,2.4019 0.38,4.0454 3.038,4.0454 1.772,0 2.911,-1.0114 3.164,-1.3906 v -6.953 c 0,-1.4328 -0.211,-2.1913 -0.633,-2.2755 h -0.633 v -0.3793 h 4.177 v 0.3793 h -0.633 c -0.422,0.0842 -0.632,0.8427 -0.632,2.2755 v 8.7228 l -0.507,0.1265 z"
       fill="#ff7500"
       id="path44" />
    <path
       d="m 269.852,84.2415 h 0.633 c 0.422,-0.0843 0.633,-0.8428 0.633,-2.2756 v -5.9416 c 0,-1.4328 -0.211,-2.1913 -0.633,-2.2755 h -0.633 v -0.3793 h 4.557 c 1.645,0 3.924,0.2528 3.924,2.9076 0,1.6435 -1.393,2.5284 -2.405,3.0341 0.253,0.5056 0.886,1.6434 1.265,2.4019 0.76,1.2642 1.519,2.2755 1.899,2.5284 0.127,0.1264 0.506,0.1264 0.886,0.1264 v 0.3792 h -1.392 c -1.139,0 -1.899,-0.7585 -2.405,-1.7698 l -0.633,-1.2642 c -0.506,-0.8849 -0.886,-1.517 -1.013,-1.6434 -0.253,-0.2529 -0.759,-0.2529 -1.012,-0.2529 h -0.633 v 2.2756 c 0,1.4327 0.211,2.1912 0.633,2.2755 h 0.633 v 0.3792 h -4.177 v -0.5056 z m 2.911,-5.0568 h 1.013 c 1.392,0 2.785,-0.7585 2.785,-2.7812 0,-2.0226 -1.266,-2.6547 -2.658,-2.6547 -0.38,0 -0.76,0.1264 -1.013,0.1264 v 5.3095 z"
       fill="#ff7500"
       id="path46" />
    <path
       d="m 279.725,79.0584 c 0,-3.6661 2.911,-6.068 6.202,-6.068 3.291,0 5.822,2.0226 5.822,5.8152 0,3.7925 -2.784,6.0681 -6.202,6.0681 -3.417,0 -5.822,-2.0227 -5.822,-5.8153 z m 6.202,5.3096 c 2.911,0 4.05,-2.5284 4.05,-5.0567 0,-3.2869 -1.645,-5.6889 -4.303,-5.6889 -2.658,0 -4.051,2.1492 -4.051,5.1832 -0.126,3.4133 1.646,5.5624 4.304,5.5624 z"
       fill="#ff7500"
       id="path48" />
    <path
       d="m 297.445,78.1735 c 1.392,0.7585 2.785,1.517 2.785,3.5397 0,2.2755 -2.152,3.1604 -3.924,3.1604 -1.392,0 -2.152,-0.3792 -2.658,-0.6321 -0.253,-0.6321 -0.506,-1.8962 -0.506,-3.034 l 0.506,-0.1264 c 0.126,1.2642 0.886,3.2868 3.164,3.2868 1.139,0 2.025,-0.7585 2.025,-2.1491 0,-1.2641 -1.012,-2.1491 -2.405,-2.7812 l -1.139,-0.6321 c -1.012,-0.5056 -1.898,-1.6434 -1.898,-2.9076 0,-2.1491 1.772,-3.034 3.544,-3.034 1.012,0 1.898,0.2528 2.405,0.5057 0.126,0.5056 0.126,1.8962 0.126,2.4019 h -0.38 c -0.126,-0.8849 -0.506,-2.4019 -2.404,-2.4019 -1.013,0 -1.899,0.7585 -1.899,1.8962 0,1.0114 0.759,1.5171 1.645,2.1491 z"
       fill="#ff7500"
       id="path50" />
    <path
       d="M 38.8577,7 C 17.3404,7 0,24.4457 0,45.8104 0,67.175 17.467,84.6207 38.8577,84.6207 60.2484,84.6207 77.7154,67.175 77.7154,45.8104 77.7154,24.4457 60.375,7 38.8577,7 Z m -0.5063,16.1815 c 1.2657,0.885 2.2783,1.8963 3.6706,3.1605 0.2532,0.2528 0.5063,0.5056 1.3923,0.2528 1.772,-0.5057 5.9489,-2.5284 8.9866,-2.9076 1.3923,-0.1264 1.7721,0 2.5315,0.7585 1.5189,1.3906 2.7846,2.2755 3.6706,3.4133 -3.0377,0.3792 -4.0503,0.6321 -4.6832,0.7585 l -0.3797,0.1264 c -1.3923,0.3793 -1.772,1.2642 -1.8986,1.7699 0,0.1264 -0.1266,0.3792 -0.1266,0.6321 0,0.5056 0.1266,1.0113 0.6329,1.6434 0.7594,1.2642 1.2657,2.1491 1.5189,2.7812 -2.9112,0.8849 -6.0755,2.1491 -7.4678,2.7812 -0.886,0.3793 -1.5189,1.1378 -1.6454,2.0227 v 0.5057 c 0,0.5056 0.1265,1.2641 0.886,2.0227 2.1517,2.2755 4.5566,7.4586 4.5566,13.1474 0,1.2642 -0.1266,2.5284 -0.3797,3.7926 -1.1392,5.9416 -5.1895,10.4927 -11.8978,13.4003 -3.4175,1.517 -6.9615,1.8963 -10.5055,1.7699 h 0.6328 c 6.7083,-0.7585 11.3915,-3.1605 14.6824,-8.9757 4.5566,-7.9644 1.1392,-17.825 -5.6958,-23.3874 -1.8985,-1.517 -4.1768,-2.7812 -6.202,-4.0454 -0.5063,-0.3792 -0.886,-0.7585 -0.1266,-1.6434 1.1392,-1.517 2.9112,-4.0454 6.0755,-6.4473 0.6329,-0.5057 0.3797,-0.7585 0.1266,-1.1378 -1.1392,-0.8849 -1.772,-1.3906 -3.1643,-2.2755 -0.7595,-0.3793 -1.0126,-0.7585 -0.5063,-1.2642 0.6328,-0.6321 1.772,-1.517 4.3034,-2.6548 0.1266,-0.5056 0.6329,-0.2528 1.0126,0 z M 13.037,30.0081 c 0.5062,-1.0113 1.772,-3.4133 2.9111,-4.8039 0.2532,-0.3792 0.5063,-0.5057 1.1392,-0.3792 1.1391,0.1264 3.0377,1.0113 5.5691,1.6434 0.5063,0.1264 0.7595,0.1264 1.1392,-0.3793 1.0126,-1.1377 3.9237,-3.7925 8.6069,-5.8152 0.5063,-0.2528 1.2657,-0.2528 1.8986,0.1264 0.5063,0.2529 1.1392,0.5057 1.8986,0.885 -2.2783,1.0113 -3.4175,1.8962 -4.3035,2.7812 -0.7594,0.7585 -0.886,1.517 -0.886,2.0226 v 0.3793 c 0.1266,0.8849 0.6329,1.6434 1.6455,2.1491 l 0.1265,0.1264 c 0,0 -0.1265,0 -0.1265,-0.1264 0.7594,0.3793 1.2657,0.7585 1.772,1.1378 -2.5315,2.2755 -4.1769,4.4246 -5.1895,5.8152 -0.7594,1.0113 -0.886,1.8963 -0.7594,2.5284 0.1265,0.6321 0.3797,1.3906 1.5188,2.0227 l 1.0126,0.632 c 1.772,1.0114 3.4175,2.0227 4.9363,3.2869 5.6958,4.6775 9.3664,13.4003 5.1895,20.859 -2.7846,4.9303 -6.8349,7.5851 -13.1635,8.3436 -2.2783,0.2528 -4.43,0.1264 -6.4552,-0.3792 0.886,0.1264 1.6454,0.1264 2.5314,0.1264 4.6832,-0.1264 9.7461,-1.7699 12.2776,-5.8153 6.4551,-10.2398 -1.0126,-20.7325 -11.0118,-24.0194 -2.2783,-0.7585 -6.0755,-1.517 -8.9867,-1.8963 -1.1391,-0.1264 -1.3923,-0.5057 -1.0125,-1.2642 0.6328,-1.2641 1.772,-3.7925 3.9237,-7.0794 0.1266,-0.1264 0,-0.5057 -0.3797,-0.6321 C 17.7201,32.0308 15.5684,31.3987 13.6698,31.1459 13.037,30.893 12.7838,30.6402 13.037,30.0081 Z M 44.1737,80.8282 C 21.7704,84.2415 10.3789,67.4279 10.3789,67.4279 c 5.1895,4.9303 13.923,13.021 27.2131,6.953 19.239,-8.5965 13.5432,-27.812 8.3538,-33.5008 -0.6329,-0.6321 -0.2532,-1.2642 0.2531,-1.3906 1.5189,-0.6321 5.5692,-2.2756 8.7335,-3.0341 0.3797,-0.1264 0.3797,-0.2528 0.2531,-0.7585 -0.2531,-0.7585 -0.6328,-2.0227 -2.1517,-4.551 -0.5063,-0.5057 -0.2531,-0.885 0.2532,-1.0114 0.7594,-0.1264 1.2657,-0.3792 5.316,-0.8849 0.3797,-0.1264 0.886,0.1264 1.1391,0.5057 0.886,1.517 1.5189,3.034 2.1518,5.0567 0,0.2528 0.3797,0.6321 0.7594,0.6321 1.5189,0 6.8349,0.1264 9.6195,0.6321 0.2531,0 0.7594,0.2528 0.7594,0.6321 0.7595,2.2755 2.4049,13.021 -2.4048,24.3987 -5.6958,12.8946 -16.2013,18.0778 -26.4537,19.7212 z"
       fill="#ff7500"
       id="path52" />
  </g>
  <defs
     id="defs59">
    <clipPath
       id="clip0_1_586">
      <rect
         width="322"
         height="78"
         fill="#ffffff"
         transform="translate(0,7)"
         id="rect56"
         x="0"
         y="0" />
    </clipPath>
  </defs>
</svg>
