<?xml version="1.0" encoding="UTF-8" standalone="no"?>
<svg
   width="28"
   height="22"
   viewBox="0 0 28 22"
   fill="none"
   version="1.1"
   id="svg4"
   sodipodi:docname="sala-espera-icon--juegos.svg"
   inkscape:version="1.2.2 (732a01da63, 2022-12-09)"
   xmlns:inkscape="http://www.inkscape.org/namespaces/inkscape"
   xmlns:sodipodi="http://sodipodi.sourceforge.net/DTD/sodipodi-0.dtd"
   xmlns="http://www.w3.org/2000/svg"
   xmlns:svg="http://www.w3.org/2000/svg">
  <defs
     id="defs8" />
  <sodipodi:namedview
     id="namedview6"
     pagecolor="#ffffff"
     bordercolor="#111111"
     borderopacity="1"
     inkscape:showpageshadow="0"
     inkscape:pageopacity="0"
     inkscape:pagecheckerboard="1"
     inkscape:deskcolor="#d1d1d1"
     showgrid="false"
     inkscape:zoom="37.863636"
     inkscape:cx="13.35054"
     inkscape:cy="11.026411"
     inkscape:window-width="1920"
     inkscape:window-height="991"
     inkscape:window-x="-9"
     inkscape:window-y="-9"
     inkscape:window-maximized="1"
     inkscape:current-layer="svg4" />
  <path
     d="M26.125 3.5C27.1562 3.5 28 4.34375 28 5.375C28 6.45312 27.1562 7.25 26.125 7.25C26.0781 7.25 26.0781 7.25 26.0781 7.25L23.6875 20.2812C23.5938 20.9844 22.9375 21.5 22.2344 21.5H6.71875C6.01562 21.5 5.35938 20.9844 5.21875 20.2812L2.82812 7.25C1.79688 7.25 0.953125 6.45312 0.953125 5.375C0.953125 4.34375 1.79688 3.5 2.82812 3.5C3.85938 3.5 4.70312 4.34375 4.70312 5.375C4.70312 5.79688 4.5625 6.17188 4.32812 6.5L8.54688 9.875C8.82812 10.1094 9.15625 10.2031 9.48438 10.2031C10 10.2031 10.5625 9.875 10.7969 9.35938L13.4688 3.96875C12.9531 3.64062 12.5781 3.07812 12.5781 2.375C12.5781 1.34375 13.4219 0.5 14.5 0.5C15.5312 0.5 16.3281 1.34375 16.3281 2.375C16.3281 3.07812 16 3.64062 15.4375 3.96875L18.1562 9.35938C18.3906 9.875 18.9531 10.2031 19.4688 10.2031C19.7969 10.2031 20.125 10.1094 20.4062 9.875L24.625 6.5C24.3906 6.17188 24.25 5.79688 24.25 5.375C24.25 4.34375 25.0469 3.5 26.125 3.5ZM21.5781 19.25L23.1719 10.5312L21.8125 11.6094C21.1562 12.1719 20.3594 12.4531 19.4688 12.4531C18.0625 12.4531 16.7969 11.6562 16.1406 10.3906L14.5 7.0625L12.8125 10.3906C12.2031 11.6562 10.8906 12.4531 9.48438 12.4531C8.64062 12.4531 7.79688 12.1719 7.14062 11.6094L5.78125 10.5312L7.375 19.25H21.5781Z"
     fill="white"
     id="path2"
     style="fill:#ff7500;fill-opacity:1" />
</svg>
