<svg width="757" height="71" viewBox="0 0 757 71" fill="none" xmlns="http://www.w3.org/2000/svg">
<path d="M238.381 36.9764C238.259 39.2626 239.002 41.5111 240.463 43.2745C241.176 44.0417 242.05 44.6413 243.023 45.0302C243.995 45.4192 245.042 45.5877 246.088 45.5238C247.133 45.5799 248.177 45.4078 249.149 45.0193C250.12 44.6309 250.995 44.0354 251.713 43.2745C253.19 41.4074 253.948 39.0733 253.851 36.6952C253.921 35.0782 253.572 33.4705 252.838 32.0279C252.374 30.7033 251.431 29.6001 250.194 28.9351C249.068 28.1205 247.702 27.705 246.313 27.7542C245.279 27.7085 244.247 27.8744 243.28 28.2419C242.312 28.6093 241.43 29.1705 240.688 29.8911C239.848 30.8576 239.212 31.9828 238.816 33.1999C238.419 34.4169 238.272 35.7012 238.381 36.9764ZM235.4 36.9764C235.177 33.7903 236.206 30.6429 238.269 28.2041C239.246 27.1803 240.426 26.3715 241.734 25.8293C243.041 25.287 244.448 25.0234 245.863 25.055C247.843 25.0276 249.791 25.5534 251.488 26.5733C253.064 27.5515 254.332 28.955 255.144 30.6221C255.998 32.3739 256.44 34.297 256.438 36.2454C256.471 38.3115 256.008 40.3555 255.088 42.206C254.23 43.8957 252.902 45.3015 251.263 46.2548C249.541 47.1908 247.596 47.638 245.638 47.5481C243.67 47.5952 241.727 47.1094 240.013 46.1423C238.398 45.1196 237.109 43.6562 236.3 41.9249C235.676 40.351 235.37 38.6691 235.4 36.9764ZM202.942 45.0739L207.724 45.0739C208.843 45.0893 209.959 44.9569 211.043 44.6803C211.806 44.463 212.503 44.0568 213.068 43.4994C213.814 42.7044 214.355 41.7392 214.643 40.6877C215.049 39.3391 215.239 37.9346 215.205 36.5265C215.317 34.7015 214.949 32.8789 214.137 31.2406C213.486 30.1316 212.529 29.2335 211.38 28.6539C210.146 28.3605 208.879 28.2282 207.611 28.2603L202.942 28.2603L202.942 45.0739ZM200.017 47.6606L200.017 25.6736L207.724 25.6736C209.008 25.6135 210.295 25.727 211.549 26.011C212.762 26.2204 213.893 26.7659 214.812 27.5855C215.952 28.592 216.822 29.8679 217.343 31.2969C217.979 32.9848 218.285 34.7794 218.243 36.5828C218.268 38.0828 218.079 39.5787 217.68 41.0251C217.322 42.14 216.811 43.1998 216.162 44.1742C215.623 44.9541 214.958 45.6383 214.193 46.1986C213.383 46.7115 212.488 47.0734 211.549 47.267C210.371 47.5553 209.161 47.6876 207.949 47.6606L200.017 47.6606ZM169.529 38.6634L176.954 38.6634L174.647 32.534C173.972 30.7345 173.41 29.16 173.072 27.9791C172.789 29.4078 172.413 30.8165 171.947 32.1966L169.529 38.6634ZM163.172 47.6606L171.666 25.6736L174.76 25.6736L183.817 47.6606L180.498 47.6606L177.91 41.0251L168.685 41.0251L166.322 47.6606L163.172 47.6606ZM134.371 47.6606L134.371 25.6736L137.296 25.6736L137.296 45.0739L148.096 45.0739L148.096 47.6606L134.371 47.6606ZM112.489 47.6606L112.489 25.6736L115.414 25.6736L115.414 47.6606L112.489 47.6606ZM84.3626 39.0008L84.3626 36.4141L93.7567 36.4141L93.7567 44.624C92.4336 45.719 90.9298 46.5753 89.3128 47.1545C87.8262 47.7368 86.2402 48.0234 84.6438 47.998C82.6866 48.0142 80.7552 47.5508 79.0186 46.6484C77.2683 45.7691 75.8481 44.3493 74.9684 42.5997C74.128 40.8434 73.6863 38.9232 73.6746 36.9764C73.6751 34.9199 74.1162 32.8874 74.9684 31.0157C75.8304 29.2957 77.1805 27.8679 78.8498 26.9107C80.5871 26.0034 82.5151 25.5216 84.4751 25.5049C85.9566 25.4796 87.4286 25.7471 88.8065 26.2922C90.0238 26.7166 91.0832 27.5011 91.8441 28.5415C92.7031 29.557 93.2845 30.7774 93.5317 32.0841L90.8878 32.8152C90.6913 31.8685 90.309 30.9702 89.7628 30.1722C89.143 29.293 88.284 28.61 87.2877 28.2041C86.3111 27.7836 85.257 27.5729 84.1938 27.5855C83.0327 27.5589 81.8802 27.7893 80.8187 28.2603C79.9297 28.583 79.1365 29.1245 78.5123 29.8348C77.8679 30.4371 77.3844 31.191 77.106 32.0279C76.5087 33.4111 76.2207 34.908 76.2622 36.4141C76.2024 38.1146 76.5294 39.8066 77.2185 41.3625C77.868 42.6215 78.9164 43.63 80.1999 44.2304C81.4673 44.8932 82.876 45.2404 84.3063 45.2426C85.5651 45.2824 86.8161 45.0323 87.9627 44.5116C88.9609 44.1269 89.9061 43.6167 90.7753 42.9933L90.7753 39.0008L84.3626 39.0008ZM52.13 47.6606L52.13 25.6736L55.0551 25.6736L55.0551 47.6606L52.13 47.6606ZM23.3289 47.6606L14.891 25.6736L18.0411 25.6736L23.6664 41.6437L24.9039 45.2426C25.2038 44.0142 25.5987 42.8109 26.0852 41.6437L31.7104 25.6736L34.7481 25.6736L26.1415 47.6606L23.3289 47.6606Z" fill="#1D0246" fill-opacity="0.8"/>
<path d="M743.524 22.5843L750.443 22.5843L748.25 16.961C747.631 15.2178 747.181 13.8119 746.9 12.6873C746.536 14.1514 746.047 15.5813 745.437 16.961L743.524 22.5843ZM737.899 30.8505L745.437 10.7191L748.418 10.7191L756.687 30.9629L753.706 30.9629L751.062 24.8898L742.793 24.8898L740.487 30.9629L737.899 30.8505ZM722.261 19.6039L727.886 19.6039C728.839 19.6304 729.79 19.4973 730.699 19.2103C731.367 18.995 731.943 18.5587 732.33 17.9732C732.694 17.4187 732.907 16.7792 732.949 16.1175C732.945 15.6711 732.848 15.2305 732.664 14.8238C732.48 14.4171 732.213 14.0533 731.88 13.7557C730.9 13.1103 729.731 12.8132 728.561 12.9122L722.092 12.9122L722.261 19.6039ZM719.561 30.8505L719.561 10.7191L728.561 10.7191C729.919 10.6826 731.272 10.8922 732.555 11.3377C733.533 11.6381 734.359 12.3023 734.862 13.1934C735.417 14.1267 735.691 15.2009 735.649 16.2862C735.654 16.9528 735.528 17.6139 735.277 18.2315C735.026 18.8491 734.655 19.4111 734.187 19.8851C732.96 20.9913 731.392 21.646 729.743 21.7408C730.363 21.9762 730.965 22.2581 731.543 22.5843C732.403 23.3708 733.143 24.2804 733.737 25.2834L737.337 30.9067L734.187 30.9067L731.543 26.7455L729.574 23.9338C729.064 23.4449 728.519 22.9938 727.943 22.5843C727.605 22.3155 727.192 22.1583 726.761 22.1344C726.264 22.0033 725.74 22.0033 725.242 22.1344L722.092 22.1344L722.092 31.1316L719.561 30.8505ZM700.604 30.8505L700.604 10.7191L715.173 10.7191L715.173 13.1372L703.135 13.1372L703.135 19.379L714.386 19.379L714.386 21.7408L703.135 21.7408L703.135 28.6574L715.623 28.6574L715.623 30.9629L700.604 30.8505ZM693.066 30.8505L693.066 10.7191L695.823 10.7191L695.823 30.9629L693.066 30.8505ZM686.541 23.8776L689.185 24.6649C688.733 26.5968 687.643 28.3202 686.091 29.5571C684.509 30.8383 682.495 31.4625 680.466 31.3003C678.611 31.4327 676.762 30.9804 675.178 30.007C673.717 29.1095 672.606 27.7408 672.028 26.1269C671.273 24.3504 670.909 22.4329 670.959 20.5036C670.899 18.5619 671.304 16.6341 672.14 14.8804C672.95 13.3397 674.231 12.0983 675.797 11.3377C677.334 10.5034 679.054 10.0593 680.803 10.0443C682.659 10.0159 684.474 10.5879 685.978 11.6751C687.36 12.7758 688.347 14.2953 688.791 16.005L686.147 16.6798C685.82 15.4413 685.135 14.3265 684.178 13.4745C683.167 12.741 681.94 12.3651 680.691 12.4061C679.311 12.3648 677.953 12.7583 676.809 13.5308C675.782 14.2815 675 15.3181 674.559 16.5111C674.139 17.7805 673.93 19.1103 673.94 20.4474C673.904 21.9976 674.152 23.5413 674.672 25.0023C675.056 26.3318 675.917 27.4731 677.091 28.2075C678.099 28.8534 679.268 29.204 680.466 29.2197C681.864 29.2611 683.228 28.7799 684.291 27.8701C685.491 26.8486 686.289 25.4333 686.541 23.8776ZM651.383 30.9629L651.383 10.7191L654.14 10.7191L664.771 26.633L664.771 10.7191L667.359 10.7191L667.359 30.9629L664.603 30.9629L653.971 15.0491L653.971 30.9629L651.383 30.9629ZM636.083 22.5843L643.002 22.5843L640.864 16.961C640.189 15.2178 639.739 13.8119 639.401 12.6873C639.242 14.1332 638.96 15.563 638.558 16.961L636.083 22.5843ZM630.457 30.8505L638.333 10.6067L641.202 10.6067L649.527 30.8505L646.489 30.8505L644.07 24.7773L635.576 24.7773L633.326 30.8505L630.457 30.8505ZM612.175 30.8505L612.175 10.7191L614.875 10.7191L625.676 26.633L625.676 10.7191L627.87 10.7191L627.87 30.9629L625.17 30.9629L614.425 15.0491L614.425 30.9629L612.175 30.8505ZM604.75 30.8505L604.75 10.7191L607.394 10.7191L607.394 30.9629L604.75 30.8505ZM587.087 30.8505L587.087 10.7191L600.475 10.7191L600.475 13.1371L589.224 13.1371L589.224 19.4352L599.181 19.4352L599.181 21.8532L589.562 21.8532L589.562 30.9629L587.087 30.8505ZM563.348 22.5843L570.38 22.5843L568.186 16.961L566.724 12.6873C566.416 14.1465 565.983 15.5764 565.43 16.961L563.348 22.5843ZM557.723 30.8505L565.43 10.7191L568.242 10.7191L576.68 30.9629L573.586 30.9629L571.055 24.8898L562.505 24.8898L560.311 30.9629L557.723 30.8505ZM552.492 30.8505L552.492 10.7191L555.192 10.7191L555.192 30.9629L552.492 30.8505ZM545.798 23.8776L548.554 24.6649C548.17 26.6106 547.09 28.3499 545.516 29.5571C543.932 30.8332 541.92 31.4567 539.891 31.3003C537.927 31.4739 535.957 31.0211 534.266 30.007C532.82 29.1067 531.728 27.7368 531.172 26.1269C530.465 24.3381 530.121 22.4266 530.16 20.5036C530.072 18.5596 530.479 16.6251 531.341 14.8804C532.079 13.3693 533.255 12.1153 534.716 11.2815C536.256 10.4536 537.974 10.0099 539.722 9.98811C541.547 9.93297 543.336 10.509 544.785 11.6189C546.251 12.6847 547.32 14.2082 547.823 15.9488L545.123 16.6236C544.781 15.3639 544.053 14.2429 543.041 13.4183C542.045 12.6967 540.84 12.3214 539.61 12.3499C538.23 12.3086 536.872 12.702 535.729 13.4745C534.702 14.2252 533.919 15.2619 533.478 16.4549C533.041 17.7215 532.813 19.0511 532.803 20.3912C532.757 21.9469 533.025 23.496 533.591 24.946C533.822 25.6477 534.19 26.2969 534.673 26.8566C535.155 27.4162 535.743 27.8753 536.404 28.2075C537.439 28.8398 538.622 29.1889 539.835 29.2197C541.253 29.2753 542.639 28.7932 543.716 27.8701C544.866 26.8315 545.605 25.4147 545.798 23.8776ZM510.753 30.9629L510.753 10.7191L513.509 10.7191L524.197 26.633L524.197 10.7191L526.784 10.7191L526.784 30.9629L524.028 30.9629L513.396 15.0491L513.396 30.9629L510.753 30.9629ZM491.908 30.9629L491.908 10.7191L506.59 10.7191L506.59 13.1371L494.552 13.1371L494.552 19.379L505.802 19.379L505.802 21.7408L494.552 21.7408L494.552 28.6574L507.04 28.6574L507.04 30.9629L491.908 30.9629ZM473.964 28.6574L478.239 28.6574C479.345 28.7119 480.451 28.5594 481.501 28.2075C482.139 27.9525 482.728 27.5912 483.245 27.1391C483.943 26.4264 484.463 25.5596 484.764 24.6086C485.176 23.3191 485.366 21.9692 485.326 20.6161C485.425 18.9182 485.056 17.2259 484.258 15.7238C483.674 14.711 482.789 13.9052 481.726 13.4183C480.564 13.1538 479.373 13.0404 478.182 13.0809L473.964 13.0809L473.964 28.6574ZM471.263 30.9629L471.263 10.7191L478.239 10.7191C479.455 10.6083 480.679 10.6083 481.895 10.7191C482.991 11.0096 484.022 11.5057 484.933 12.1812C485.999 13.1282 486.811 14.3267 487.295 15.6676C487.825 17.2052 488.091 18.8212 488.083 20.4474C488.101 21.8694 487.931 23.2876 487.577 24.6649C487.233 25.7126 486.761 26.7137 486.17 27.6452C485.088 29.0843 483.535 30.099 481.783 30.5131C480.718 30.6415 479.641 30.6415 478.576 30.5131L471.263 30.9629ZM450.731 30.9629L450.731 10.7191L453.544 10.7191L464.176 26.633L464.176 10.7191L466.763 10.7191L466.763 30.9629L464.176 30.9629L453.319 15.0491L453.319 30.9629L450.731 30.9629ZM431.831 30.9629L431.831 10.7191L446.512 10.7191L446.512 13.1371L434.474 13.1371L434.474 19.379L445.725 19.379L445.725 21.7408L434.474 21.7408L434.474 28.6574L446.962 28.6574L446.962 30.9629L431.831 30.9629ZM419.511 30.9629L419.511 13.1371L412.817 13.1371L412.817 10.7191L428.962 10.7191L428.962 13.1371L422.268 13.1371L422.268 30.9629L419.511 30.9629ZM393.804 30.9629L393.804 10.7191L396.673 10.7191L407.361 26.633L407.361 10.7191L410.005 10.7191L410.005 30.9629L407.192 30.9629L396.504 15.0491L396.504 30.9629L393.804 30.9629ZM386.379 30.9629L386.379 10.7191L389.023 10.7191L389.023 30.9629L386.379 30.9629ZM368.153 19.7164L374.172 19.7164C375.125 19.7428 376.076 19.6098 376.985 19.3227C377.646 19.1224 378.208 18.6809 378.56 18.0856C378.923 17.5312 379.137 16.8917 379.178 16.2299C379.166 15.34 378.802 14.4911 378.166 13.8682C377.206 13.1705 376.031 12.8321 374.847 12.9122L368.378 12.9122L368.153 19.7164ZM365.453 30.9629L365.453 10.7191L374.172 10.7191C375.564 10.6412 376.958 10.8321 378.278 11.2815C379.257 11.5818 380.082 12.2461 380.585 13.1371C381.16 14.0644 381.453 15.139 381.429 16.2299C381.459 16.9032 381.349 17.5753 381.107 18.2043C380.865 18.8333 380.496 19.4055 380.022 19.8851C378.818 20.9912 377.267 21.6468 375.635 21.7408C376.296 21.964 376.936 22.2463 377.547 22.5842C378.407 23.4691 379.162 24.4503 379.797 25.5083L383.341 31.1316L379.797 31.1316L377.097 26.9704C376.488 25.9873 375.812 25.0479 375.072 24.1588C374.837 23.5996 374.534 23.0709 374.172 22.5842C373.81 22.3201 373.381 22.1641 372.934 22.1344C372.438 21.9922 371.912 21.9922 371.416 22.1344L368.322 22.1344L368.322 31.1316L365.453 30.9629ZM346.496 30.9629L346.496 10.7191L361.178 10.7191L361.178 13.1371L349.196 13.1371L349.196 19.379L360.446 19.379L360.446 21.7407L349.196 21.7407L349.196 28.6574L361.74 28.6574L361.74 30.9629L346.496 30.9629ZM330.07 20.3912L335.695 20.3912C337.007 20.5169 338.321 20.1786 339.408 19.4352C340.051 18.771 340.413 17.8851 340.421 16.961C340.439 16.1845 340.223 15.4205 339.802 14.7679C339.401 14.1827 338.801 13.7631 338.114 13.587C337.293 13.4731 336.46 13.4731 335.639 13.587L330.014 13.587L330.07 20.3912ZM327.483 30.9629L327.483 10.7191L335.133 10.7191C336.163 10.6448 337.197 10.6448 338.227 10.7191C339.134 10.9003 340.007 11.2229 340.814 11.6751C341.504 12.1907 342.031 12.8933 342.333 13.6995C342.805 14.5393 343.039 15.4921 343.008 16.4549C343.028 18.0518 342.446 19.5977 341.377 20.7848C340.559 21.4771 339.608 21.9941 338.583 22.3037C337.557 22.6132 336.478 22.7087 335.414 22.5842L329.789 22.5842L329.789 30.9629L327.483 30.9629ZM320.282 10.7191L323.039 10.7191L323.039 22.5842C323.085 24.2682 322.818 25.9462 322.251 27.5327C321.78 28.7759 320.883 29.8119 319.72 30.4568C318.277 31.1908 316.668 31.5395 315.051 31.469C313.429 31.5131 311.817 31.2062 310.326 30.5693C309.143 29.9874 308.22 28.9846 307.738 27.7577C307.031 26.1246 306.667 24.3637 306.669 22.5842L306.669 10.7191L309.369 10.7191L309.369 22.5842C309.315 23.8932 309.467 25.2026 309.819 26.4643C310.122 27.3044 310.723 28.0045 311.507 28.4324C312.439 28.8732 313.457 29.1036 314.488 29.1072C315.248 29.2125 316.021 29.1459 316.751 28.9123C317.482 28.6787 318.15 28.2841 318.707 27.7577C319.836 26.2777 320.395 24.4417 320.282 22.5842L320.282 10.7191ZM287.037 24.4399L289.625 24.4399C289.691 25.3148 289.96 26.1621 290.412 26.9142C290.982 27.5187 291.699 27.9645 292.494 28.2075C293.481 28.5871 294.53 28.7779 295.588 28.7698C296.517 28.779 297.444 28.6655 298.344 28.4324C298.999 28.1386 299.577 27.6957 300.031 27.1391C300.418 26.6174 300.635 25.9889 300.65 25.3396C300.661 24.703 300.441 24.084 300.031 23.5964C299.54 23.0703 298.92 22.6825 298.231 22.4718C297.669 22.4718 296.488 22.0219 294.631 21.572C293.286 21.2239 291.97 20.7727 290.694 20.2225C289.813 19.8018 289.072 19.1385 288.556 18.3105C288.029 17.5548 287.771 16.6437 287.825 15.7238C287.821 14.7325 288.136 13.7663 288.725 12.9684C289.311 12.006 290.174 11.2419 291.2 10.7754C292.428 10.3369 293.721 10.1087 295.025 10.1006C296.4 10.1943 297.731 10.6187 298.906 11.3377C300.028 11.74 300.994 12.4883 301.663 13.4745C302.262 14.4384 302.592 15.5452 302.619 16.6798L300.031 16.6798C299.951 15.5457 299.45 14.4826 298.625 13.6995C297.55 13.072 296.327 12.7414 295.081 12.7414C293.836 12.7414 292.613 13.072 291.537 13.6995C291.186 13.9461 290.899 14.2748 290.703 14.6569C290.507 15.039 290.408 15.4631 290.412 15.8925C290.395 16.2249 290.457 16.5567 290.594 16.86C290.731 17.1633 290.939 17.4293 291.2 17.6358C292.499 18.3803 293.933 18.8583 295.419 19.0416C296.959 19.3726 298.479 19.7856 299.975 20.2787C300.952 20.8452 301.781 21.6353 302.394 22.5842C302.919 23.4302 303.211 24.4005 303.238 25.3959C303.24 26.5174 302.907 27.6141 302.282 28.5449C301.602 29.5038 300.693 30.2771 299.638 30.7942C298.393 31.3131 297.047 31.5438 295.7 31.469C294.121 31.5973 292.535 31.3266 291.087 30.6818C289.883 30.202 288.86 29.3562 288.162 28.2638C287.333 27.1692 286.933 25.8091 287.037 24.4399ZM606.831 53.5123L613.694 53.5123L611.613 47.889C610.994 46.0896 610.488 44.7962 610.207 43.5591C609.925 44.9087 609.532 46.2582 609.138 47.5516L606.831 53.5123ZM601.206 61.7785L608.744 41.4222L611.725 41.4222L619.994 61.9472L617.013 61.9472L614.594 55.8178L606.1 55.8178L603.85 61.9472L601.206 61.7785ZM595.975 61.7785L595.975 41.4222L598.675 41.4222L598.675 61.9472L595.975 61.7785ZM579.099 59.4167L584.162 59.4167C584.78 59.454 585.4 59.454 586.018 59.4167C586.568 59.3088 587.099 59.1192 587.593 58.8544C588.016 58.5657 588.363 58.18 588.606 57.7297C588.867 57.1859 589.002 56.5899 588.999 55.9865C589.028 55.2871 588.831 54.5971 588.437 54.0184C588.005 53.49 587.443 53.0831 586.806 52.8375C585.811 52.5982 584.791 52.4849 583.768 52.5001L579.099 52.5001L579.099 59.4167ZM579.099 50.1383L583.599 50.1383C584.453 50.1253 585.303 50.012 586.131 49.8009C586.745 49.6277 587.293 49.2753 587.706 48.7887C587.928 48.2364 588.006 47.6363 587.931 47.0455C587.989 46.4194 587.851 45.7906 587.537 45.2461C587.201 44.7424 586.706 44.3661 586.131 44.1776C585.137 43.9348 584.116 43.8214 583.093 43.8402L578.93 43.8402L579.099 50.1383ZM576.399 61.7785L576.399 41.4222L583.88 41.4222C585.177 41.3582 586.471 41.6091 587.649 42.1533C588.559 42.499 589.317 43.1566 589.787 44.0089C590.264 44.7873 590.517 45.6826 590.517 46.5956C590.517 47.5087 590.264 48.404 589.787 49.1824C589.251 49.9648 588.512 50.5868 587.649 50.9818C588.768 51.2693 589.758 51.9226 590.462 52.8375C591.135 53.7269 591.491 54.8154 591.475 55.9303C591.489 56.8605 591.297 57.7823 590.912 58.6295C590.56 59.3595 590.039 59.9955 589.393 60.4851C588.744 61.0028 587.966 61.3333 587.143 61.4411C586.063 61.7373 584.942 61.8513 583.824 61.7785L576.399 61.7785ZM552.773 61.7785L552.773 41.4222L556.823 41.4222L561.605 55.9303L562.617 58.9669C562.617 58.1234 563.292 57.1112 563.686 55.6491L568.524 41.4222L572.236 41.4222L572.236 61.9472L569.592 61.9472L569.592 45.0774L563.686 61.9472L561.267 61.9472L555.642 44.6837L555.642 61.9472L552.773 61.7785ZM532.466 51.994C532.387 54.0598 533.113 56.0756 534.491 57.6173C535.136 58.2856 535.91 58.8172 536.765 59.1803C537.62 59.5433 538.54 59.7304 539.469 59.7304C540.399 59.7304 541.318 59.5433 542.174 59.1803C543.029 58.8172 543.802 58.2856 544.448 57.6173C545.854 55.9174 546.558 53.7453 546.416 51.5441C546.442 50.0758 546.154 48.619 545.573 47.2704C545.032 46.0945 544.169 45.0956 543.084 44.3891C541.999 43.6826 540.736 43.2974 539.441 43.2779C537.581 43.2895 535.801 44.0376 534.491 45.3585C533.72 46.2688 533.143 47.3267 532.794 48.4676C532.446 49.6085 532.334 50.8084 532.466 51.994ZM529.71 51.994C529.54 49.083 530.508 46.2201 532.41 44.0089C533.315 43.0652 534.409 42.3222 535.621 41.8282C536.832 41.3341 538.134 41.1 539.441 41.1411C541.202 41.1243 542.934 41.5912 544.448 42.4907C545.981 43.3795 547.23 44.6863 548.048 46.2582C548.866 48.016 549.252 49.9442 549.173 51.8815C549.213 53.8341 548.769 55.7662 547.879 57.5048C547.108 59.0407 545.919 60.3273 544.448 61.2162C542.888 61.978 541.177 62.3814 539.441 62.3971C537.622 62.4515 535.826 61.9831 534.266 61.0475C532.806 60.113 531.637 58.7884 530.891 57.2236C530.081 55.6011 529.676 53.8069 529.71 51.994ZM514.803 61.9472L514.803 41.4222L517.503 41.4222L517.503 59.4167L527.347 59.4167L527.347 61.9472L514.803 61.9472ZM494.552 51.994C494.458 54.0521 495.163 56.0669 496.521 57.6173C497.145 58.2881 497.903 58.8201 498.746 59.1786C499.589 59.5371 500.498 59.714 501.415 59.6979C502.364 59.739 503.311 59.5686 504.187 59.1991C505.062 58.8295 505.845 58.27 506.477 57.561C507.904 55.8727 508.611 53.6919 508.446 51.4879C508.446 50.022 508.16 48.5702 507.602 47.2142C507.083 46.0489 506.245 45.0545 505.184 44.3463C504.078 43.5826 502.758 43.1888 501.415 43.2217C500.511 43.233 499.618 43.4226 498.788 43.7796C497.958 44.1367 497.207 44.6541 496.577 45.3023C495.799 46.2193 495.217 47.2866 494.869 48.4378C494.52 49.5889 494.413 50.7994 494.552 51.994ZM491.739 51.994C491.585 49.0754 492.574 46.2115 494.496 44.0089C495.39 43.0821 496.467 42.3492 497.657 41.8558C498.847 41.3625 500.126 41.1192 501.415 41.1411C503.228 41.1325 505.012 41.5978 506.59 42.4906C508.118 43.3508 509.338 44.6685 510.077 46.2582C510.888 48.0204 511.292 49.9423 511.259 51.8815C511.299 53.8341 510.855 55.7662 509.965 57.5048C509.174 59.0446 507.965 60.3308 506.477 61.2162C504.905 61.9995 503.171 62.4039 501.415 62.3971C499.616 62.4317 497.843 61.9643 496.296 61.0475C494.835 60.113 493.666 58.7884 492.921 57.2236C492.111 55.6011 491.706 53.8069 491.739 51.994ZM486.564 54.6932L489.264 55.4242C488.822 57.3937 487.757 59.1683 486.227 60.4851C484.607 61.6894 482.616 62.2865 480.601 62.1721C478.758 62.2575 476.927 61.8292 475.314 60.935C473.868 59.9658 472.735 58.5985 472.051 56.9987C471.378 55.2004 471.035 53.2955 471.038 51.3754C470.976 49.4272 471.401 47.4942 472.276 45.7521C473.017 44.2247 474.217 42.9665 475.707 42.1533C477.373 41.3657 479.213 41.0172 481.051 41.1411C482.826 41.0219 484.587 41.5154 486.041 42.539C487.495 43.5626 488.553 45.0542 489.039 46.7643L486.395 47.3829C486.065 46.1478 485.357 45.0467 484.37 44.2339C483.381 43.4922 482.175 43.0969 480.939 43.1092C479.53 43.0427 478.141 43.4594 477.001 44.2901C475.968 45.0459 475.2 46.1087 474.807 47.3267C474.383 48.5756 474.173 49.8877 474.189 51.2067C474.163 52.7517 474.391 54.2905 474.864 55.7616C475.333 56.9716 476.182 57.9973 477.282 58.6857C478.331 59.2715 479.512 59.5811 480.714 59.5854C482.105 59.6424 483.468 59.1816 484.539 58.2921C485.634 57.3653 486.387 56.0981 486.677 54.6932L486.564 54.6932ZM445.219 61.9472L445.219 41.4222L459.957 41.4222L459.957 43.8402L447.862 43.8402L447.862 50.1383L459.113 50.1383L459.113 52.4439L447.862 52.4438L447.862 59.4167L460.407 59.4167L460.407 61.9472L445.219 61.9472ZM427.33 59.5854L431.662 59.5854C432.745 59.6306 433.828 59.4976 434.868 59.1918C435.545 59.0211 436.153 58.6484 436.612 58.1234C437.335 57.4301 437.859 56.5565 438.131 55.5929C438.519 54.3174 438.709 52.9898 438.693 51.6566C438.779 49.9778 438.41 48.307 437.625 46.8206C437.079 45.7443 436.159 44.9044 435.037 44.4588C433.927 44.1163 432.767 43.9642 431.606 44.0089L427.33 44.0089L427.33 59.5854ZM424.799 61.9472L424.799 41.4222L431.606 41.4222C432.835 41.4247 434.06 41.5566 435.262 41.8159C436.358 42.0603 437.379 42.5614 438.243 43.2779C439.339 44.2099 440.173 45.4116 440.662 46.7643C441.3 48.2788 441.644 49.901 441.675 51.5441C441.653 52.9301 441.464 54.3084 441.112 55.6491C440.786 56.7137 440.292 57.7197 439.65 58.6295C439.168 59.3531 438.558 59.9821 437.85 60.4851C437.129 60.9883 436.301 61.3157 435.431 61.4411C434.35 61.7312 433.229 61.8452 432.112 61.7785L424.799 61.9472Z" fill="#1D0246" fill-opacity="0.8"/>
<path d="M0.312796 62.3964L270.83 62.3964L270.83 71L0.312796 71L0.312796 62.3964ZM0.312799 0.0904423L270.83 0.0904541L270.83 8.63784L0.312799 8.63782L0.312799 0.0904423Z" fill="#1D0246" fill-opacity="0.8"/>
</svg>
