<svg width="24" height="256" viewBox="0 0 24 256" fill="none" xmlns="http://www.w3.org/2000/svg">
<g clip-path="url(#clip0_11_24866)">
<path d="M12.485 175.427C13.2588 175.468 14.0198 175.217 14.6166 174.722C14.8763 174.481 15.0792 174.185 15.2109 173.856C15.3425 173.526 15.3996 173.172 15.3779 172.818C15.3969 172.465 15.3387 172.111 15.2072 171.782C15.0757 171.453 14.8742 171.157 14.6166 170.914C13.9847 170.415 13.1947 170.158 12.3898 170.191C11.8425 170.167 11.2984 170.285 10.8101 170.534C10.3618 170.691 9.98839 171.01 9.76333 171.428C9.48763 171.81 9.34697 172.272 9.36364 172.742C9.34816 173.092 9.40433 173.441 9.5287 173.769C9.65307 174.096 9.84301 174.395 10.0869 174.646C10.414 174.93 10.7948 175.146 11.2068 175.28C11.6187 175.414 12.0534 175.464 12.485 175.427ZM12.485 176.436C11.4066 176.511 10.3414 176.163 9.5159 175.465C9.16939 175.134 8.89564 174.734 8.71212 174.292C8.52861 173.849 8.43936 173.373 8.45008 172.894C8.4408 172.224 8.61877 171.565 8.96396 170.99C9.29505 170.457 9.77008 170.028 10.3343 169.753C10.9272 169.464 11.5781 169.314 12.2376 169.315C12.9369 169.304 13.6287 169.461 14.255 169.772C14.8269 170.062 15.3027 170.512 15.6253 171.067C15.9421 171.649 16.0935 172.308 16.0631 172.971C16.079 173.636 15.9146 174.294 15.5873 174.874C15.2411 175.421 14.7458 175.857 14.1598 176.131C13.6271 176.342 13.0579 176.446 12.485 176.436ZM15.2257 187.421V185.803C15.2309 185.424 15.1861 185.047 15.0924 184.68C15.0189 184.421 14.8814 184.185 14.6927 183.994C14.4237 183.742 14.097 183.559 13.7411 183.461C13.2847 183.324 12.8093 183.259 12.3327 183.271C11.715 183.233 11.0982 183.357 10.5437 183.632C10.1683 183.853 9.86432 184.177 9.66816 184.565C9.56886 184.983 9.52407 185.412 9.53494 185.841V187.421H15.2257ZM16.1012 188.411H8.65944V185.803C8.6391 185.368 8.67751 184.933 8.77364 184.508C8.8445 184.098 9.02914 183.715 9.30655 183.404C9.64721 183.018 10.0791 182.723 10.5627 182.547C11.134 182.332 11.7414 182.228 12.3517 182.243C12.8594 182.234 13.3658 182.298 13.8553 182.433C14.2327 182.554 14.5914 182.727 14.9211 182.947C15.1851 183.129 15.4167 183.355 15.6063 183.613C15.7799 183.887 15.9024 184.191 15.9679 184.508C16.0655 184.907 16.1103 185.316 16.1012 185.727V188.411ZM13.056 198.73V196.217L10.9814 196.998C10.3724 197.226 9.83946 197.417 9.43977 197.531C9.9233 197.627 10.4001 197.754 10.8672 197.912L13.056 198.73ZM16.1012 200.882L8.65944 198.007V196.96L16.1012 193.894V195.018L13.8553 195.894V199.016L16.1012 199.816V200.882ZM16.1012 210.63H8.65944V209.64H15.2257V205.984H16.1012V210.63ZM16.1012 218.036H8.65944V217.046H16.1012V218.036ZM13.1701 227.556H12.2947V224.376H15.0734C15.444 224.824 15.7338 225.333 15.9299 225.88C16.127 226.383 16.2239 226.92 16.2153 227.46C16.2208 228.123 16.064 228.777 15.7586 229.364C15.4609 229.957 14.9804 230.437 14.3882 230.735C13.7938 231.02 13.1439 231.169 12.485 231.173C11.7889 231.173 11.101 231.024 10.4675 230.735C9.88537 230.443 9.40211 229.987 9.07816 229.422C8.77107 228.834 8.60799 228.181 8.60234 227.518C8.59378 227.016 8.68433 226.518 8.8688 226.052C9.01247 225.64 9.27798 225.281 9.6301 225.023C9.9738 224.733 10.3869 224.536 10.8291 224.452L11.0766 225.347C10.7562 225.414 10.4521 225.543 10.182 225.728C9.88448 225.938 9.65329 226.228 9.5159 226.566C9.3736 226.896 9.30228 227.253 9.30655 227.613C9.29754 228.006 9.37554 228.396 9.53494 228.755C9.64415 229.056 9.82744 229.324 10.0678 229.536C10.2717 229.754 10.5269 229.917 10.8101 230.012C11.2783 230.214 11.7849 230.311 12.2947 230.297C12.8702 230.318 13.4429 230.207 13.9695 229.974C14.3956 229.754 14.737 229.399 14.9402 228.965C15.1645 228.536 15.282 228.059 15.2828 227.575C15.2962 227.149 15.2116 226.725 15.0353 226.337C14.9051 225.999 14.7325 225.679 14.5215 225.385H13.1701V227.556ZM16.1012 238.465H8.65944V237.475H16.1012V238.465ZM16.1012 248.213L8.65944 251.069V250.003L14.0647 248.099L15.2828 247.68C14.867 247.578 14.4597 247.445 14.0647 247.28L8.65944 245.376V244.348L16.1012 247.261V248.213Z" fill="white"/>
<path d="M7.61314 4.45515V2.11334L5.70989 2.85587C5.11988 3.0653 4.64407 3.21761 4.26342 3.31281C4.75895 3.43577 5.24291 3.60139 5.70989 3.80782L7.61314 4.45515ZM10.4109 6.35907L3.59728 3.80782V2.79875L10.449 0V1.00907L8.39347 1.90391V4.70266L10.449 5.48327L10.4109 6.35907ZM6.60442 11.6519V9.74803C6.61337 9.4255 6.56834 9.10374 6.47119 8.79607C6.39831 8.56982 6.25065 8.37511 6.05248 8.24394C5.86481 8.12084 5.64837 8.04867 5.4244 8.03451C5.27333 8.0358 5.12418 8.06864 4.98653 8.13094C4.84888 8.19323 4.72575 8.2836 4.62504 8.39625C4.40659 8.72804 4.30604 9.12369 4.33955 9.51956V11.7091L6.60442 11.6519ZM10.4109 12.5658H3.59728V9.51956C3.58493 9.06002 3.65586 8.60204 3.80664 8.16778C3.9083 7.8367 4.13312 7.55728 4.43471 7.38718C4.75059 7.19907 5.11416 7.10649 5.4815 7.12063C5.70712 7.11883 5.93087 7.16163 6.13991 7.24658C6.34894 7.33153 6.53914 7.45695 6.69958 7.61565C7.074 8.03087 7.29557 8.56147 7.32765 9.11974C7.40733 8.90975 7.50276 8.70608 7.61314 8.51049C7.87936 8.21923 8.18722 7.96901 8.5267 7.76796L10.43 6.54946V7.61565L9.02155 8.51049L8.06992 9.17686C7.90443 9.34953 7.75176 9.53406 7.61314 9.72899C7.52218 9.84325 7.46897 9.98297 7.46088 10.1288C7.41652 10.2973 7.41652 10.4744 7.46088 10.6429V11.7091H10.5061L10.4109 12.5658ZM10.4109 18.982H3.59728V14.0509H4.41568V18.1252H6.52829V14.3174H7.32765V18.1252H9.66865V13.8986H10.449L10.4109 18.982ZM10.4109 21.5332H3.59728V20.6003H10.449L10.4109 21.5332ZM8.05089 23.7418L8.31734 22.8469C8.97123 22.9999 9.55454 23.3688 9.97317 23.8941C10.4068 24.4295 10.6181 25.1111 10.5632 25.798C10.608 26.4257 10.4549 27.0516 10.1254 27.5877C9.82166 28.0822 9.35843 28.4583 8.81219 28.6539C8.21093 28.9092 7.56191 29.0326 6.90894 29.0156C6.25175 29.0358 5.59925 28.8987 5.00569 28.6158C4.48423 28.3419 4.06407 27.9082 3.80664 27.3783C3.52428 26.8578 3.37396 26.2759 3.36889 25.6838C3.35925 25.0556 3.55286 24.4412 3.92083 23.9322C4.29337 23.4644 4.80766 23.1304 5.38634 22.9802L5.61473 23.8751C5.19555 23.9858 4.81824 24.2176 4.52987 24.5414C4.28161 24.8838 4.15438 25.2991 4.16826 25.7219C4.15428 26.1888 4.28745 26.6484 4.54891 27.0355C4.80298 27.3831 5.15385 27.648 5.55763 27.7971C5.98725 27.9395 6.43734 28.0102 6.88991 28.0065C7.41457 28.0188 7.93706 27.9349 8.43154 27.759C8.88154 27.629 9.2678 27.3375 9.51639 26.9404C9.73498 26.599 9.85366 26.2033 9.85898 25.798C9.87297 25.3246 9.71012 24.8631 9.4022 24.5033C9.05646 24.097 8.57744 23.8271 8.05089 23.7418ZM10.449 35.6412H3.59728V34.7083L8.98348 31.1099H3.59728V30.2341H10.449V31.167L5.06278 34.7654H10.449V35.6412ZM7.61314 40.8199V38.4781L5.70989 39.2015C5.11988 39.43 4.64407 39.5823 4.26342 39.6966C4.75282 39.7505 5.23673 39.846 5.70989 39.9822L7.61314 40.8199ZM10.4109 42.7238L3.55922 40.0583V39.0873L10.4109 36.2695V37.2976L8.35541 38.1163V40.9912L10.4109 41.7528V42.7238ZM10.4109 48.9115H3.59728V47.9976L8.98348 44.3421H3.59728V43.5996H10.449V44.5135L5.06278 48.1499H10.449L10.4109 48.9115ZM10.4109 51.4247H3.59728V50.5298H10.449L10.4109 51.4247ZM10.4109 57.4029H3.59728V52.8716H4.41568V56.6795H6.54732V53.3095H7.36572V56.5652H10.449L10.4109 57.4029ZM7.61314 65.4375V63.0576L5.70989 63.8001L4.26342 64.2951C4.75729 64.3991 5.24125 64.5456 5.70989 64.733L7.61314 65.4375ZM10.4109 67.3414L3.59728 64.733V63.7811L10.449 60.9252V61.9723L8.39347 62.8291V65.723L10.449 66.4656L10.4109 67.3414ZM10.4109 69.112H3.59728V68.1981H10.449L10.4109 69.112ZM8.05089 71.3777L8.31734 70.4447C8.97591 70.5746 9.56459 70.9401 9.97317 71.4729C10.4051 72.0092 10.6161 72.6901 10.5632 73.3768C10.6219 74.0417 10.4687 74.7082 10.1254 75.2807C9.82072 75.7701 9.35706 76.1398 8.81219 76.3278C8.20675 76.5671 7.55979 76.6836 6.90894 76.6705C6.25096 76.7001 5.5962 76.5626 5.00569 76.2707C4.49426 76.0208 4.06984 75.6228 3.78761 75.1284C3.50739 74.607 3.35722 74.0257 3.34986 73.4339C3.3312 72.8162 3.52614 72.211 3.9018 71.7204C4.26255 71.2243 4.77818 70.8626 5.3673 70.6923L5.5957 71.6061C5.16935 71.7217 4.78995 71.9681 4.51084 72.3106C4.26659 72.6477 4.13957 73.0557 4.14922 73.472C4.13525 73.939 4.26841 74.3985 4.52987 74.7857C4.78395 75.1332 5.13482 75.3981 5.5386 75.5472C5.96731 75.6954 6.41731 75.7726 6.87087 75.7757C7.39743 75.7914 7.92175 75.7007 8.41251 75.5091C8.65 75.4308 8.86974 75.3064 9.05915 75.1431C9.24856 74.9797 9.40393 74.7806 9.51639 74.5572C9.7304 74.2068 9.84854 73.8063 9.85898 73.3958C9.87779 72.9159 9.71463 72.4467 9.4022 72.0821C9.05065 71.693 8.57113 71.443 8.05089 71.3777ZM10.449 83.239H3.59728V82.3061L8.98348 78.6887H3.59728V77.8129H10.449V78.7458L5.06278 82.3442H10.449V83.239ZM10.449 89.6171H3.59728V84.6479H4.41568V88.7223H6.52829V84.9145H7.32765V88.7223H9.66865V84.4956H10.449V89.6171ZM9.66865 95.6906V94.2436C9.68712 93.8693 9.63548 93.4948 9.51639 93.1394C9.43006 92.9236 9.30779 92.724 9.15478 92.5492C8.91357 92.313 8.62017 92.1368 8.29831 92.0351C7.86187 91.8957 7.40496 91.8313 6.947 91.8447C6.37235 91.8112 5.79954 91.9363 5.29117 92.2065C4.94838 92.404 4.67562 92.7034 4.51084 93.0632C4.42131 93.4565 4.38293 93.8596 4.39665 94.2627V95.6906H9.66865ZM10.449 96.6045H3.59728V94.2436C3.55977 93.832 3.55977 93.4178 3.59728 93.0061C3.69559 92.6351 3.86352 92.2862 4.09213 91.978C4.41264 91.6172 4.81829 91.3423 5.27214 91.1783C5.79256 90.9991 6.3395 90.909 6.88991 90.9118C7.3712 90.9055 7.8512 90.9632 8.31734 91.0831C8.67197 91.1995 9.01081 91.3593 9.32607 91.5591C9.81316 91.9255 10.1566 92.4509 10.2967 93.0442C10.3402 93.4046 10.3402 93.769 10.2967 94.1294L10.449 96.6045ZM10.449 103.554H3.59728V102.602L8.98348 99.0034H3.59728V98.1276H10.449V99.0034L5.06278 102.678H10.449V103.554ZM10.449 109.951H3.59728V104.982H4.41568V109.056H6.52829V105.248H7.32765V109.056H9.66865V104.829H10.449V109.951ZM10.449 114.12H4.41568V116.386H3.59728V110.922H4.41568V113.188H10.449V114.12ZM10.449 122.821H3.59728V121.85L8.98348 118.233H3.59728V117.338H10.449V118.29L5.06278 121.907H10.449V122.821ZM10.449 125.335H3.59728V124.44H10.449V125.335ZM6.64248 131.503V129.466C6.65143 129.143 6.6064 128.822 6.50926 128.514C6.44145 128.29 6.292 128.1 6.09054 127.981C5.90287 127.858 5.68644 127.786 5.46247 127.772C5.16126 127.776 4.87394 127.899 4.6631 128.114C4.42696 128.439 4.31244 128.837 4.33955 129.238V131.427L6.64248 131.503ZM10.449 132.417H3.59728V129.466C3.57091 128.995 3.63553 128.523 3.78761 128.076C3.88927 127.745 4.11408 127.466 4.41568 127.296C4.72952 127.101 5.09323 127.002 5.46247 127.01C5.69033 127 5.91783 127.037 6.13071 127.119C6.34359 127.201 6.53726 127.326 6.69958 127.486C7.07396 127.894 7.29586 128.418 7.32765 128.971C7.40322 128.747 7.49877 128.53 7.61314 128.324C7.91263 128.033 8.24473 127.777 8.60283 127.562L10.5061 126.363V127.562L9.09768 128.476C8.76495 128.682 8.44698 128.911 8.14605 129.161C7.9568 129.241 7.77787 129.343 7.61314 129.466C7.52373 129.588 7.47093 129.734 7.46088 129.885C7.41276 130.053 7.41276 130.231 7.46088 130.399V131.446H10.5061L10.449 132.417ZM10.449 138.833H3.59728V133.864H4.41568V137.919H6.52829V134.112H7.32765V137.919H9.66865V133.674H10.449V138.833ZM6.87087 144.393V142.489C6.91344 142.045 6.79893 141.6 6.54732 141.232C6.32252 141.015 6.02267 140.892 5.70989 140.889C5.44709 140.883 5.18851 140.956 4.96762 141.099C4.76957 141.235 4.62753 141.438 4.56794 141.67C4.52937 141.948 4.52937 142.23 4.56794 142.508V144.412L6.87087 144.393ZM10.449 145.268H3.59728V142.679C3.57213 142.331 3.57213 141.981 3.59728 141.632C3.65861 141.325 3.76779 141.029 3.92083 140.756C4.09535 140.523 4.33315 140.344 4.606 140.242C4.89025 140.082 5.21273 140.003 5.5386 140.014C6.0791 140.007 6.60232 140.204 7.0041 140.566C7.23843 140.843 7.4134 141.164 7.51817 141.512C7.62294 141.859 7.65527 142.224 7.61314 142.584V144.488H10.449V145.268ZM3.59728 147.705V146.773H7.61314C8.18311 146.757 8.75102 146.847 9.288 147.039C9.70878 147.199 10.0594 147.502 10.2777 147.896C10.5261 148.384 10.6441 148.929 10.6203 149.476C10.6352 150.025 10.5313 150.571 10.3158 151.075C10.1188 151.476 9.7794 151.788 9.36413 151.951C8.8114 152.19 8.21541 152.314 7.61314 152.313H3.59728V151.399H7.61314C8.05617 151.418 8.49934 151.366 8.92639 151.247C9.21073 151.144 9.44769 150.941 9.59252 150.676C9.7417 150.36 9.81968 150.016 9.82091 149.667C9.85653 149.409 9.83398 149.148 9.75492 148.901C9.67586 148.653 9.54231 148.427 9.36413 148.239C8.86324 147.857 8.24182 147.667 7.61314 147.705H3.59728ZM8.24121 158.958V158.082C8.53732 158.06 8.82411 157.968 9.07865 157.815C9.28326 157.622 9.43413 157.38 9.51639 157.111C9.64487 156.777 9.70943 156.422 9.70672 156.064C9.70981 155.749 9.67141 155.435 9.59252 155.131C9.49307 154.909 9.34317 154.713 9.15478 154.56C8.97821 154.429 8.76548 154.355 8.54573 154.35C8.33027 154.347 8.12076 154.421 7.95573 154.56C7.77766 154.726 7.64639 154.936 7.57508 155.169C7.57508 155.359 7.42282 155.759 7.27056 156.387C7.15273 156.843 7.00002 157.288 6.81378 157.72C6.6714 158.018 6.44689 158.269 6.16667 158.444C5.91088 158.622 5.6025 158.709 5.29117 158.691C4.95566 158.692 4.62863 158.586 4.35858 158.386C4.03283 158.188 3.77423 157.896 3.61631 157.549C3.46791 157.133 3.39069 156.695 3.38792 156.254C3.41965 155.789 3.5633 155.338 3.80664 154.94C3.94281 154.561 4.19607 154.234 4.52987 154.007C4.85611 153.805 5.2307 153.693 5.61473 153.684V154.56C5.23089 154.587 4.87108 154.757 4.606 155.036C4.39365 155.4 4.28175 155.814 4.28175 156.235C4.28175 156.656 4.39365 157.07 4.606 157.434C4.68949 157.553 4.80072 157.65 4.93005 157.717C5.05938 157.783 5.20293 157.817 5.34827 157.815C5.46076 157.821 5.57305 157.8 5.67571 157.754C5.77837 157.707 5.86842 157.637 5.93828 157.549C6.19028 157.109 6.35205 156.624 6.41409 156.121C6.52614 155.6 6.66591 155.085 6.83281 154.579C7.02455 154.248 7.29198 153.967 7.61314 153.76C7.89948 153.582 8.22788 153.484 8.56477 153.474C8.94436 153.473 9.31553 153.586 9.63059 153.798C9.95513 154.028 10.2169 154.336 10.3919 154.693C10.5675 155.114 10.6456 155.57 10.6203 156.026C10.6637 156.56 10.5721 157.097 10.3538 157.587C10.1914 157.994 9.90517 158.341 9.53543 158.577C9.16497 158.858 8.70462 158.993 8.24121 158.958ZM18.081 50.7202V48.3974L16.1778 49.1019C15.5687 49.3113 15.131 49.4827 14.7123 49.5779C15.1691 49.6731 15.6258 49.8063 16.0636 49.9396L18.081 50.7202ZM20.8788 52.6241L13.989 50.0729V49.0638L20.9359 46.2651V47.2741L18.8614 48.0928V50.9677L20.9359 51.7293L20.8788 52.6241ZM20.8788 54.3948H13.989V53.4809H20.9359L20.8788 54.3948ZM20.0794 60.1065V58.393C20.0921 58.1837 20.0921 57.9739 20.0794 57.7647C20.0429 57.5785 19.9788 57.3988 19.8891 57.2316C19.7914 57.0886 19.6609 56.9711 19.5085 56.8889C19.3244 56.8004 19.1227 56.7549 18.9185 56.7556C18.6817 56.7459 18.4482 56.8127 18.2523 56.946C18.0735 57.0923 17.9358 57.2825 17.8526 57.4981C17.7717 57.8347 17.7333 58.1801 17.7384 58.5263V60.1065H20.0794ZM16.9391 60.1065V58.5834C16.9347 58.2943 16.8963 58.0067 16.8249 57.7266C16.7663 57.5188 16.647 57.3332 16.4823 57.1935C16.2954 57.1181 16.0922 57.0919 15.8923 57.1174C15.6804 57.0976 15.4676 57.1442 15.2832 57.2506C15.1128 57.3642 14.9854 57.5319 14.9216 57.7266C14.8394 58.063 14.801 58.4085 14.8074 58.7547V60.1636L16.9391 60.1065ZM20.8788 61.0204H13.989V58.4882C13.9674 58.0492 14.0523 57.6115 14.2365 57.2126C14.3535 56.9045 14.5761 56.6481 14.8645 56.4891C15.128 56.3275 15.431 56.2419 15.74 56.2419C16.0491 56.2419 16.3521 56.3275 16.6155 56.4891C16.8804 56.6705 17.0909 56.9206 17.2246 57.2126C17.3219 56.834 17.543 56.4989 17.8526 56.2606C18.1537 56.0329 18.5221 55.9123 18.8994 55.9179C19.2143 55.9131 19.5263 55.9781 19.813 56.1083C20.0601 56.2275 20.2753 56.4036 20.4411 56.6223C20.6162 56.842 20.7281 57.1053 20.7646 57.3839C20.8648 57.7494 20.9034 58.129 20.8788 58.5072V61.0204ZM20.8788 69.0168H13.989V67.646L18.8994 66.0277L19.9272 65.685C19.6417 65.685 19.2991 65.4565 18.8043 65.3232L13.989 63.6859V62.4293H20.9359V63.3241H15.2261L20.9359 65.3232V66.1419L15.0929 68.0458H20.9359L20.8788 69.0168ZM17.5671 75.8899C18.2663 75.9165 18.9486 75.6708 19.4704 75.2045C19.6966 74.9861 19.8765 74.7243 19.9994 74.4349C20.1223 74.1454 20.1856 73.8341 20.1856 73.5196C20.1856 73.2051 20.1223 72.8938 19.9994 72.6043C19.8765 72.3148 19.6966 72.053 19.4704 71.8346C18.8951 71.3587 18.1599 71.1204 17.4149 71.1682C16.9179 71.1597 16.4249 71.257 15.9684 71.4538C15.5704 71.637 15.2323 71.929 14.9932 72.2962C14.7541 72.6635 14.6237 73.0909 14.6171 73.5291C14.621 74.1588 14.8742 74.7612 15.3213 75.2045C15.6294 75.4655 15.9875 75.6609 16.3736 75.7787C16.7598 75.8966 17.1659 75.9344 17.5671 75.8899ZM17.5671 76.8228C16.5819 76.8802 15.6129 76.5526 14.8645 75.909C14.5451 75.6024 14.2936 75.2322 14.1264 74.8222C13.9592 74.4122 13.88 73.9716 13.8939 73.5291C13.8882 72.9331 14.0462 72.3469 14.3507 71.8346C14.6515 71.3156 15.0938 70.893 15.6258 70.6161C16.2208 70.339 16.8734 70.2085 17.5291 70.2353C18.1899 70.2216 18.8439 70.3721 19.4323 70.6732C19.9522 70.9341 20.3876 71.3367 20.6885 71.8346C20.9463 72.3626 21.0829 72.9415 21.0882 73.5291C21.1066 74.1446 20.9481 74.7526 20.6314 75.2807C20.3151 75.7749 19.8668 76.1706 19.3372 76.423C18.788 76.6971 18.1807 76.8343 17.5671 76.8228ZM20.9359 81.8682H13.989V80.9543H20.0794V77.6225H20.9359V81.8682ZM17.5671 88.7223C18.2637 88.7541 18.9457 88.5154 19.4704 88.0559C19.6975 87.8448 19.8775 87.5881 19.9988 87.3027C20.1202 87.0174 20.1801 86.7096 20.1746 86.3995C20.1885 86.0781 20.1309 85.7577 20.0058 85.4613C19.8807 85.165 19.6913 84.9002 19.4514 84.686C18.8799 84.2031 18.1418 83.9638 17.3959 84.0196C16.8997 84.0196 16.4083 84.1166 15.9494 84.3052C15.555 84.4809 15.2184 84.7647 14.9787 85.1239C14.7202 85.4982 14.587 85.9448 14.5981 86.3995C14.6019 86.7054 14.6661 87.0075 14.7869 87.2885C14.9078 87.5695 15.0829 87.8238 15.3023 88.0369C15.6127 88.3003 15.9739 88.4971 16.3635 88.6151C16.7531 88.733 17.1628 88.7695 17.5671 88.7223ZM17.5671 89.6742C16.5793 89.7264 15.61 89.3918 14.8645 88.7413C14.5508 88.4385 14.3028 88.0743 14.1358 87.6714C13.9688 87.2685 13.8865 86.8356 13.8939 86.3995C13.891 85.7858 14.0484 85.182 14.3507 84.6479C14.6418 84.1307 15.0878 83.7178 15.6258 83.4675C16.2223 83.1932 16.8727 83.0565 17.5291 83.0677C18.1899 83.054 18.8439 83.2044 19.4323 83.5056C19.9535 83.7733 20.3888 84.1824 20.6885 84.686C20.9536 85.2181 21.0905 85.805 21.0882 86.3995C21.0999 87.0083 20.9417 87.6083 20.6314 88.1321C20.3151 88.6263 19.8668 89.022 19.3372 89.2744C18.788 89.5485 18.1807 89.6857 17.5671 89.6742ZM18.4807 91.4258L18.7281 90.512C19.3947 90.6616 19.9954 91.0221 20.4411 91.5401C20.8486 92.0881 21.0507 92.762 21.012 93.444C21.0409 94.0678 20.896 94.6875 20.5933 95.2337C20.2653 95.7229 19.8025 96.1065 19.261 96.3379C18.6524 96.5657 18.0076 96.6818 17.3578 96.6806C16.6984 96.7019 16.0442 96.5579 15.4545 96.2618C14.9375 96.0109 14.5117 95.6049 14.2365 95.1004C13.9699 94.5366 13.852 93.914 13.8939 93.2917C13.8536 92.6911 14.0206 92.095 14.367 91.6028C14.7135 91.1107 15.2183 90.7525 15.7971 90.5881L16.0065 91.483C15.5884 91.5947 15.2158 91.8343 14.9407 92.1684C14.6896 92.5031 14.5559 92.9113 14.56 93.3298C14.5375 93.8066 14.6785 94.2768 14.9597 94.6625C15.2155 95.0122 15.5752 95.272 15.9874 95.405C16.4102 95.5488 16.8542 95.6196 17.3007 95.6145C17.8236 95.6232 18.3444 95.546 18.8423 95.386C19.2519 95.227 19.599 94.9398 19.832 94.5673C20.0303 94.2123 20.1351 93.8126 20.1365 93.4059C20.1558 92.935 19.9999 92.4737 19.6988 92.1113C19.3851 91.7406 18.9562 91.4858 18.4807 91.3878V91.4258ZM20.9359 105.42H13.989V100.431H14.8074V104.525H16.9391V100.717H17.7194V104.525H20.0794V100.279H20.9359V105.42ZM20.1365 111.474V110.008C20.1518 109.641 20.1068 109.275 20.0033 108.923C19.9455 108.694 19.8194 108.488 19.6417 108.333C19.407 108.088 19.1114 107.911 18.7852 107.819C18.3535 107.687 17.9042 107.623 17.453 107.628C16.8847 107.599 16.3192 107.724 15.8162 107.99C15.4519 108.175 15.1676 108.486 15.0168 108.866C14.9009 109.241 14.8494 109.634 14.8645 110.027V111.474H20.1365ZM20.9359 112.331H13.989V110.027C13.9899 109.611 14.0345 109.196 14.1223 108.79C14.205 108.419 14.3746 108.073 14.6171 107.78C14.9325 107.41 15.3393 107.127 15.7971 106.962C16.3097 106.746 16.8588 106.629 17.4149 106.619C17.884 106.626 18.3505 106.69 18.8043 106.809C19.1646 106.92 19.5051 107.087 19.813 107.304C20.0579 107.467 20.2708 107.674 20.4411 107.914C20.6114 108.158 20.7222 108.438 20.7646 108.732C20.8628 109.098 20.9014 109.478 20.8788 109.856L20.9359 112.331Z" fill="white"/>
<path d="M21.088 256V164.44H24V256H21.088ZM0 256V164.44H2.89294V256H0Z" fill="white"/>
</g>
<defs>
<clipPath id="clip0_11_24866">
<rect width="24" height="256" fill="white"/>
</clipPath>
</defs>
</svg>
