<?xml version="1.0" encoding="UTF-8" standalone="no"?>
<svg
   width="256"
   height="24"
   viewBox="0 0 256 24"
   fill="none"
   version="1.1"
   id="svg15"
   sodipodi:docname="vigilado-h.svg"
   inkscape:version="1.2.2 (732a01da63, 2022-12-09)"
   xmlns:inkscape="http://www.inkscape.org/namespaces/inkscape"
   xmlns:sodipodi="http://sodipodi.sourceforge.net/DTD/sodipodi-0.dtd"
   xmlns="http://www.w3.org/2000/svg"
   xmlns:svg="http://www.w3.org/2000/svg">
  <sodipodi:namedview
     id="namedview17"
     pagecolor="#ffffff"
     bordercolor="#111111"
     borderopacity="1"
     inkscape:showpageshadow="0"
     inkscape:pageopacity="0"
     inkscape:pagecheckerboard="1"
     inkscape:deskcolor="#d1d1d1"
     showgrid="false"
     inkscape:zoom="3.2539062"
     inkscape:cx="109.71429"
     inkscape:cy="12.139256"
     inkscape:window-width="1920"
     inkscape:window-height="991"
     inkscape:window-x="-9"
     inkscape:window-y="-9"
     inkscape:window-maximized="1"
     inkscape:current-layer="svg15" />
  <g
     clip-path="url(#clip0_11_24866)"
     id="g8"
     transform="rotate(90,128,128)">
    <path
       d="m 12.485,175.427 c 0.7738,0.041 1.5348,-0.21 2.1316,-0.705 0.2597,-0.241 0.4626,-0.537 0.5943,-0.866 0.1316,-0.33 0.1887,-0.684 0.167,-1.038 0.019,-0.353 -0.0392,-0.707 -0.1707,-1.036 -0.1315,-0.329 -0.333,-0.625 -0.5906,-0.868 -0.6319,-0.499 -1.4219,-0.756 -2.2268,-0.723 -0.5473,-0.024 -1.0914,0.094 -1.5797,0.343 -0.4483,0.157 -0.82171,0.476 -1.04677,0.894 -0.2757,0.382 -0.41636,0.844 -0.39969,1.314 -0.01548,0.35 0.04069,0.699 0.16506,1.027 0.12437,0.327 0.31431,0.626 0.5582,0.877 0.3271,0.284 0.7079,0.5 1.1199,0.634 0.4119,0.134 0.8466,0.184 1.2782,0.147 z m 0,1.009 c -1.0784,0.075 -2.1436,-0.273 -2.9691,-0.971 -0.34651,-0.331 -0.62026,-0.731 -0.80378,-1.173 -0.18351,-0.443 -0.27276,-0.919 -0.26204,-1.398 -0.00928,-0.67 0.16869,-1.329 0.51388,-1.904 0.33109,-0.533 0.80612,-0.962 1.37034,-1.237 0.5929,-0.289 1.2438,-0.439 1.9033,-0.438 0.6993,-0.011 1.3911,0.146 2.0174,0.457 0.5719,0.29 1.0477,0.74 1.3703,1.295 0.3168,0.582 0.4682,1.241 0.4378,1.904 0.0159,0.665 -0.1485,1.323 -0.4758,1.903 -0.3462,0.547 -0.8415,0.983 -1.4275,1.257 -0.5327,0.211 -1.1019,0.315 -1.6748,0.305 z m 2.7407,10.985 v -1.618 c 0.0052,-0.379 -0.0396,-0.756 -0.1333,-1.123 -0.0735,-0.259 -0.211,-0.495 -0.3997,-0.686 -0.269,-0.252 -0.5957,-0.435 -0.9516,-0.533 -0.4564,-0.137 -0.9318,-0.202 -1.4084,-0.19 -0.6177,-0.038 -1.2345,0.086 -1.789,0.361 -0.3754,0.221 -0.67938,0.545 -0.87554,0.933 -0.0993,0.418 -0.14409,0.847 -0.13322,1.276 v 1.58 z m 0.8755,0.99 H 8.65944 v -2.608 c -0.02034,-0.435 0.01807,-0.87 0.1142,-1.295 0.07086,-0.41 0.2555,-0.793 0.53291,-1.104 0.34066,-0.386 0.77255,-0.681 1.25615,-0.857 0.5713,-0.215 1.1787,-0.319 1.789,-0.304 0.5077,-0.009 1.0141,0.055 1.5036,0.19 0.3774,0.121 0.7361,0.294 1.0658,0.514 0.264,0.182 0.4956,0.408 0.6852,0.666 0.1736,0.274 0.2961,0.578 0.3616,0.895 0.0976,0.399 0.1424,0.808 0.1333,1.219 z M 13.056,198.73 v -2.513 l -2.0746,0.781 c -0.609,0.228 -1.14194,0.419 -1.54163,0.533 0.48353,0.096 0.96033,0.223 1.42743,0.381 z m 3.0452,2.152 -7.44176,-2.875 v -1.047 l 7.44176,-3.066 v 1.124 l -2.2459,0.876 v 3.122 l 2.2459,0.8 z m 0,9.748 H 8.65944 v -0.99 h 6.56626 v -3.656 h 0.8755 z m 0,7.406 H 8.65944 v -0.99 h 7.44176 z m -2.9311,9.52 h -0.8754 v -3.18 h 2.7787 c 0.3706,0.448 0.6604,0.957 0.8565,1.504 0.1971,0.503 0.294,1.04 0.2854,1.58 0.0055,0.663 -0.1513,1.317 -0.4567,1.904 -0.2977,0.593 -0.7782,1.073 -1.3704,1.371 -0.5944,0.285 -1.2443,0.434 -1.9032,0.438 -0.6961,0 -1.384,-0.149 -2.0175,-0.438 -0.58213,-0.292 -1.06539,-0.748 -1.38934,-1.313 -0.30709,-0.588 -0.47017,-1.241 -0.47582,-1.904 -0.00856,-0.502 0.08199,-1 0.26646,-1.466 0.14367,-0.412 0.40918,-0.771 0.7613,-1.029 0.3437,-0.29 0.7568,-0.487 1.199,-0.571 l 0.2475,0.895 c -0.3204,0.067 -0.6245,0.196 -0.8946,0.381 -0.29752,0.21 -0.52871,0.5 -0.6661,0.838 -0.1423,0.33 -0.21362,0.687 -0.20935,1.047 -0.00901,0.393 0.06899,0.783 0.22839,1.142 0.10921,0.301 0.2925,0.569 0.53286,0.781 0.2039,0.218 0.4591,0.381 0.7423,0.476 0.4682,0.202 0.9748,0.299 1.4846,0.285 0.5755,0.021 1.1482,-0.09 1.6748,-0.323 0.4261,-0.22 0.7675,-0.575 0.9707,-1.009 0.2243,-0.429 0.3418,-0.906 0.3426,-1.39 0.0134,-0.426 -0.0712,-0.85 -0.2475,-1.238 -0.1302,-0.338 -0.3028,-0.658 -0.5138,-0.952 h -1.3514 z m 2.9311,10.909 H 8.65944 v -0.99 h 7.44176 z m 0,9.748 -7.44176,2.856 v -1.066 l 5.40526,-1.904 1.2181,-0.419 c -0.4158,-0.102 -0.8231,-0.235 -1.2181,-0.4 l -5.40526,-1.904 v -1.028 l 7.44176,2.913 z"
       fill="#ffffff"
       id="path2" />
    <path
       d="M 7.61314,4.45515 V 2.11334 L 5.70989,2.85587 C 5.11988,3.0653 4.64407,3.21761 4.26342,3.31281 4.75895,3.43577 5.24291,3.60139 5.70989,3.80782 Z M 10.4109,6.35907 3.59728,3.80782 V 2.79875 L 10.449,0 V 1.00907 L 8.39347,1.90391 V 4.70266 L 10.449,5.48327 Z M 6.60442,11.6519 V 9.74803 C 6.61337,9.4255 6.56834,9.10374 6.47119,8.79607 6.39831,8.56982 6.25065,8.37511 6.05248,8.24394 5.86481,8.12084 5.64837,8.04867 5.4244,8.03451 5.27333,8.0358 5.12418,8.06864 4.98653,8.13094 4.84888,8.19323 4.72575,8.2836 4.62504,8.39625 4.40659,8.72804 4.30604,9.12369 4.33955,9.51956 v 2.18954 z m 3.80648,0.9139 H 3.59728 V 9.51956 C 3.58493,9.06002 3.65586,8.60204 3.80664,8.16778 3.9083,7.8367 4.13312,7.55728 4.43471,7.38718 4.75059,7.19907 5.11416,7.10649 5.4815,7.12063 5.70712,7.11883 5.93087,7.16163 6.13991,7.24658 6.34894,7.33153 6.53914,7.45695 6.69958,7.61565 7.074,8.03087 7.29557,8.56147 7.32765,9.11974 7.40733,8.90975 7.50276,8.70608 7.61314,8.51049 7.87936,8.21923 8.18722,7.96901 8.5267,7.76796 L 10.43,6.54946 V 7.61565 L 9.02155,8.51049 8.06992,9.17686 C 7.90443,9.34953 7.75176,9.53406 7.61314,9.72899 7.52218,9.84325 7.46897,9.98297 7.46088,10.1288 c -0.04436,0.1685 -0.04436,0.3456 0,0.5141 v 1.0662 h 3.04522 z m 0,6.4162 H 3.59728 v -4.9311 h 0.8184 v 4.0743 h 2.11261 v -3.8078 h 0.79936 v 3.8078 h 2.341 V 13.8986 H 10.449 Z m 0,2.5512 H 3.59728 V 20.6003 H 10.449 Z m -2.36001,2.2086 0.26645,-0.8949 c 0.65389,0.153 1.2372,0.5219 1.65583,1.0472 0.43363,0.5354 0.64493,1.217 0.59003,1.9039 0.0448,0.6277 -0.1083,1.2536 -0.4378,1.7897 C 9.82166,28.0822 9.35843,28.4583 8.81219,28.6539 8.21093,28.9092 7.56191,29.0326 6.90894,29.0156 6.25175,29.0358 5.59925,28.8987 5.00569,28.6158 4.48423,28.3419 4.06407,27.9082 3.80664,27.3783 3.52428,26.8578 3.37396,26.2759 3.36889,25.6838 3.35925,25.0556 3.55286,24.4412 3.92083,23.9322 4.29337,23.4644 4.80766,23.1304 5.38634,22.9802 l 0.22839,0.8949 c -0.41918,0.1107 -0.79649,0.3425 -1.08486,0.6663 -0.24826,0.3424 -0.37549,0.7577 -0.36161,1.1805 -0.01398,0.4669 0.11919,0.9265 0.38065,1.3136 0.25407,0.3476 0.60494,0.6125 1.00872,0.7616 0.42962,0.1424 0.87971,0.2131 1.33228,0.2094 0.52466,0.0123 1.04715,-0.0716 1.54163,-0.2475 0.45,-0.13 0.83626,-0.4215 1.08485,-0.8186 C 9.73498,26.599 9.85366,26.2033 9.85898,25.798 9.87297,25.3246 9.71012,24.8631 9.4022,24.5033 9.05646,24.097 8.57744,23.8271 8.05089,23.7418 Z M 10.449,35.6412 H 3.59728 v -0.9329 l 5.3862,-3.5984 H 3.59728 V 30.2341 H 10.449 V 31.167 L 5.06278,34.7654 H 10.449 Z m -2.83586,5.1787 v -2.3418 l -1.90325,0.7234 c -0.59001,0.2285 -1.06582,0.3808 -1.44647,0.4951 0.4894,0.0539 0.97331,0.1494 1.44647,0.2856 z m 2.79776,1.9039 -6.85168,-2.6655 v -0.971 l 6.85168,-2.8178 v 1.0281 l -2.05549,0.8187 v 2.8749 l 2.05549,0.7616 z m 0,6.1877 H 3.59728 v -0.9139 l 5.3862,-3.6555 H 3.59728 V 43.5996 H 10.449 v 0.9139 L 5.06278,48.1499 H 10.449 Z m 0,2.5132 H 3.59728 V 50.5298 H 10.449 Z m 0,5.9782 H 3.59728 v -4.5313 h 0.8184 v 3.8079 h 2.13164 v -3.37 h 0.8184 v 3.2557 H 10.449 Z m -2.79776,8.0346 v -2.3799 l -1.90325,0.7425 -1.44647,0.495 c 0.49387,0.104 0.97783,0.2505 1.44647,0.4379 z M 10.4109,67.3414 3.59728,64.733 V 63.7811 L 10.449,60.9252 v 1.0471 l -2.05553,0.8568 v 2.8939 l 2.05553,0.7426 z m 0,1.7706 H 3.59728 V 68.1981 H 10.449 Z m -2.36001,2.2657 0.26645,-0.933 c 0.65857,0.1299 1.24725,0.4954 1.65583,1.0282 0.43193,0.5363 0.64293,1.2172 0.59003,1.9039 0.0587,0.6649 -0.0945,1.3314 -0.4378,1.9039 -0.30468,0.4894 -0.76834,0.8591 -1.31321,1.0471 -0.60544,0.2393 -1.2524,0.3558 -1.90325,0.3427 C 6.25096,76.7001 5.5962,76.5626 5.00569,76.2707 4.49426,76.0208 4.06984,75.6228 3.78761,75.1284 3.50739,74.607 3.35722,74.0257 3.34986,73.4339 3.3312,72.8162 3.52614,72.211 3.9018,71.7204 4.26255,71.2243 4.77818,70.8626 5.3673,70.6923 l 0.2284,0.9138 c -0.42635,0.1156 -0.80575,0.362 -1.08486,0.7045 -0.24425,0.3371 -0.37127,0.7451 -0.36162,1.1614 -0.01397,0.467 0.11919,0.9265 0.38065,1.3137 0.25408,0.3475 0.60495,0.6124 1.00873,0.7615 0.42871,0.1482 0.87871,0.2254 1.33227,0.2285 0.52656,0.0157 1.05088,-0.075 1.54164,-0.2666 C 8.65,75.4308 8.86974,75.3064 9.05915,75.1431 9.24856,74.9797 9.40393,74.7806 9.51639,74.5572 9.7304,74.2068 9.84854,73.8063 9.85898,73.3958 9.87779,72.9159 9.71463,72.4467 9.4022,72.0821 9.05065,71.693 8.57113,71.443 8.05089,71.3777 Z M 10.449,83.239 H 3.59728 v -0.9329 l 5.3862,-3.6174 H 3.59728 V 77.8129 H 10.449 v 0.9329 L 5.06278,82.3442 H 10.449 Z m 0,6.3781 H 3.59728 v -4.9692 h 0.8184 v 4.0744 h 2.11261 v -3.8078 h 0.79936 v 3.8078 h 2.341 V 84.4956 H 10.449 Z m -0.78035,6.0735 v -1.447 C 9.68712,93.8693 9.63548,93.4948 9.51639,93.1394 9.43006,92.9236 9.30779,92.724 9.15478,92.5492 8.91357,92.313 8.62017,92.1368 8.29831,92.0351 7.86187,91.8957 7.40496,91.8313 6.947,91.8447 6.37235,91.8112 5.79954,91.9363 5.29117,92.2065 4.94838,92.404 4.67562,92.7034 4.51084,93.0632 4.42131,93.4565 4.38293,93.8596 4.39665,94.2627 v 1.4279 z M 10.449,96.6045 H 3.59728 v -2.3609 c -0.03751,-0.4116 -0.03751,-0.8258 0,-1.2375 0.09831,-0.371 0.26624,-0.7199 0.49485,-1.0281 0.32051,-0.3608 0.72616,-0.6357 1.18001,-0.7997 0.52042,-0.1792 1.06736,-0.2693 1.61777,-0.2665 0.48129,-0.0063 0.96129,0.0514 1.42743,0.1713 0.35463,0.1164 0.69347,0.2762 1.00873,0.476 0.48709,0.3664 0.83053,0.8918 0.97063,1.4851 0.0435,0.3604 0.0435,0.7248 0,1.0852 z m 0,6.9495 H 3.59728 v -0.952 l 5.3862,-3.5986 H 3.59728 V 98.1276 H 10.449 v 0.8758 L 5.06278,102.678 H 10.449 Z m 0,6.397 H 3.59728 v -4.969 h 0.8184 v 4.074 h 2.11261 v -3.808 h 0.79936 v 3.808 h 2.341 v -4.227 H 10.449 Z m 0,4.169 H 4.41568 v 2.266 h -0.8184 v -5.464 h 0.8184 v 2.266 H 10.449 Z m 0,8.701 H 3.59728 v -0.971 l 5.3862,-3.617 h -5.3862 v -0.895 H 10.449 v 0.952 l -5.38622,3.617 H 10.449 Z m 0,2.514 H 3.59728 V 124.44 H 10.449 Z m -3.80652,6.168 v -2.037 C 6.65143,129.143 6.6064,128.822 6.50926,128.514 6.44145,128.29 6.292,128.1 6.09054,127.981 c -0.18767,-0.123 -0.4041,-0.195 -0.62807,-0.209 -0.30121,0.004 -0.58853,0.127 -0.79937,0.342 -0.23614,0.325 -0.35066,0.723 -0.32355,1.124 v 2.189 z m 3.80652,0.914 H 3.59728 v -2.951 c -0.02637,-0.471 0.03825,-0.943 0.19033,-1.39 0.10166,-0.331 0.32647,-0.61 0.62807,-0.78 0.31384,-0.195 0.67755,-0.294 1.04679,-0.286 0.22786,-0.01 0.45536,0.027 0.66824,0.109 0.21288,0.082 0.40655,0.207 0.56887,0.367 0.37438,0.408 0.59628,0.932 0.62807,1.485 0.07557,-0.224 0.17112,-0.441 0.28549,-0.647 0.29949,-0.291 0.63159,-0.547 0.98969,-0.762 l 1.90327,-1.199 v 1.199 l -1.40842,0.914 c -0.33273,0.206 -0.6507,0.435 -0.95163,0.685 -0.18925,0.08 -0.36818,0.182 -0.53291,0.305 -0.08941,0.122 -0.14221,0.268 -0.15226,0.419 -0.04812,0.168 -0.04812,0.346 0,0.514 v 1.047 h 3.04522 z m 0,6.416 H 3.59728 v -4.969 h 0.8184 v 4.055 h 2.11261 v -3.807 h 0.79936 v 3.807 h 2.341 v -4.245 H 10.449 Z m -3.57813,5.56 v -1.904 c 0.04257,-0.444 -0.07194,-0.889 -0.32355,-1.257 -0.2248,-0.217 -0.52465,-0.34 -0.83743,-0.343 -0.2628,-0.006 -0.52138,0.067 -0.74227,0.21 -0.19805,0.136 -0.34009,0.339 -0.39968,0.571 -0.03857,0.278 -0.03857,0.56 0,0.838 v 1.904 z m 3.57813,0.875 H 3.59728 v -2.589 c -0.02515,-0.348 -0.02515,-0.698 0,-1.047 0.06133,-0.307 0.17051,-0.603 0.32355,-0.876 0.17452,-0.233 0.41232,-0.412 0.68517,-0.514 0.28425,-0.16 0.60673,-0.239 0.9326,-0.228 0.5405,-0.007 1.06372,0.19 1.4655,0.552 0.23433,0.277 0.4093,0.598 0.51407,0.946 0.10477,0.347 0.1371,0.712 0.09497,1.072 v 1.904 H 10.449 Z m -6.85172,2.437 v -0.932 h 4.01586 c 0.56997,-0.016 1.13788,0.074 1.67486,0.266 0.42078,0.16 0.7714,0.463 0.9897,0.857 0.2484,0.488 0.3664,1.033 0.3426,1.58 0.0149,0.549 -0.089,1.095 -0.3045,1.599 -0.197,0.401 -0.5364,0.713 -0.95167,0.876 -0.55273,0.239 -1.14872,0.363 -1.75099,0.362 H 3.59728 v -0.914 h 4.01586 c 0.44303,0.019 0.8862,-0.033 1.31325,-0.152 0.28434,-0.103 0.5213,-0.306 0.66613,-0.571 0.14918,-0.316 0.22716,-0.66 0.22839,-1.009 0.03562,-0.258 0.01307,-0.519 -0.06599,-0.766 -0.07906,-0.248 -0.21261,-0.474 -0.39079,-0.662 -0.50089,-0.382 -1.12231,-0.572 -1.75099,-0.534 z m 4.64393,11.253 v -0.876 c 0.29611,-0.022 0.5829,-0.114 0.83744,-0.267 0.20461,-0.193 0.35548,-0.435 0.43774,-0.704 0.12848,-0.334 0.19304,-0.689 0.19033,-1.047 0.00309,-0.315 -0.03531,-0.629 -0.1142,-0.933 -0.09945,-0.222 -0.24935,-0.418 -0.43774,-0.571 -0.17657,-0.131 -0.3893,-0.205 -0.60905,-0.21 -0.21546,-0.003 -0.42497,0.071 -0.59,0.21 -0.17807,0.166 -0.30934,0.376 -0.38065,0.609 0,0.19 -0.15226,0.59 -0.30452,1.218 -0.11783,0.456 -0.27054,0.901 -0.45678,1.333 -0.14238,0.298 -0.36689,0.549 -0.64711,0.724 -0.25579,0.178 -0.56417,0.265 -0.8755,0.247 -0.33551,0.001 -0.66254,-0.105 -0.93259,-0.305 -0.32575,-0.198 -0.58435,-0.49 -0.74227,-0.837 -0.1484,-0.416 -0.22562,-0.854 -0.22839,-1.295 0.03173,-0.465 0.17538,-0.916 0.41872,-1.314 0.13617,-0.379 0.38943,-0.706 0.72323,-0.933 0.32624,-0.202 0.70083,-0.314 1.08486,-0.323 v 0.876 c -0.38384,0.027 -0.74365,0.197 -1.00873,0.476 -0.21235,0.364 -0.32425,0.778 -0.32425,1.199 0,0.421 0.1119,0.835 0.32425,1.199 0.08349,0.119 0.19472,0.216 0.32405,0.283 0.12933,0.066 0.27288,0.1 0.41822,0.098 0.11249,0.006 0.22478,-0.015 0.32744,-0.061 0.10266,-0.047 0.19271,-0.117 0.26257,-0.205 0.252,-0.44 0.41377,-0.925 0.47581,-1.428 0.11205,-0.521 0.25182,-1.036 0.41872,-1.542 0.19174,-0.331 0.45917,-0.612 0.78033,-0.819 0.28634,-0.178 0.61474,-0.276 0.95163,-0.286 0.37959,-10e-4 0.75076,0.112 1.06582,0.324 0.32454,0.23 0.58631,0.538 0.76131,0.895 0.1756,0.421 0.2537,0.877 0.2284,1.333 0.0434,0.534 -0.0482,1.071 -0.2665,1.561 -0.1624,0.407 -0.44863,0.754 -0.81837,0.99 -0.37046,0.281 -0.83081,0.416 -1.29422,0.381 z M 18.081,50.7202 v -2.3228 l -1.9032,0.7045 c -0.6091,0.2094 -1.0468,0.3808 -1.4655,0.476 0.4568,0.0952 0.9135,0.2284 1.3513,0.3617 z m 2.7978,1.9039 -6.8898,-2.5512 v -1.0091 l 6.9469,-2.7987 v 1.009 l -2.0745,0.8187 v 2.8749 l 2.0745,0.7616 z m 0,1.7707 H 13.989 v -0.9139 h 6.9469 z m -0.7994,5.7117 V 58.393 c 0.0127,-0.2093 0.0127,-0.4191 0,-0.6283 -0.0365,-0.1862 -0.1006,-0.3659 -0.1903,-0.5331 -0.0977,-0.143 -0.2282,-0.2605 -0.3806,-0.3427 -0.1841,-0.0885 -0.3858,-0.134 -0.59,-0.1333 -0.2368,-0.0097 -0.4703,0.0571 -0.6662,0.1904 -0.1788,0.1463 -0.3165,0.3365 -0.3997,0.5521 -0.0809,0.3366 -0.1193,0.682 -0.1142,1.0282 v 1.5802 z m -3.1403,0 v -1.5231 c -0.0044,-0.2891 -0.0428,-0.5767 -0.1142,-0.8568 -0.0586,-0.2078 -0.1779,-0.3934 -0.3426,-0.5331 -0.1869,-0.0754 -0.3901,-0.1016 -0.59,-0.0761 -0.2119,-0.0198 -0.4247,0.0268 -0.6091,0.1332 -0.1704,0.1136 -0.2978,0.2813 -0.3616,0.476 -0.0822,0.3364 -0.1206,0.6819 -0.1142,1.0281 v 1.4089 z m 3.9397,0.9139 H 13.989 v -2.5322 c -0.0216,-0.439 0.0633,-0.8767 0.2475,-1.2756 0.117,-0.3081 0.3396,-0.5645 0.628,-0.7235 0.2635,-0.1616 0.5665,-0.2472 0.8755,-0.2472 0.3091,0 0.6121,0.0856 0.8755,0.2472 0.2649,0.1814 0.4754,0.4315 0.6091,0.7235 0.0973,-0.3786 0.3184,-0.7137 0.628,-0.952 0.3011,-0.2277 0.6695,-0.3483 1.0468,-0.3427 0.3149,-0.0048 0.6269,0.0602 0.9136,0.1904 0.2471,0.1192 0.4623,0.2953 0.6281,0.514 0.1751,0.2197 0.287,0.483 0.3235,0.7616 0.1002,0.3655 0.1388,0.7451 0.1142,1.1233 z m 0,7.9964 H 13.989 V 67.646 l 4.9104,-1.6183 1.0278,-0.3427 c -0.2855,0 -0.6281,-0.2285 -1.1229,-0.3618 L 13.989,63.6859 v -1.2566 h 6.9469 v 0.8948 h -5.7098 l 5.7098,1.9991 v 0.8187 l -5.843,1.9039 h 5.843 z m -3.3117,6.8731 c 0.6992,0.0266 1.3815,-0.2191 1.9033,-0.6854 0.2262,-0.2184 0.4061,-0.4802 0.529,-0.7696 0.1229,-0.2895 0.1862,-0.6008 0.1862,-0.9153 0,-0.3145 -0.0633,-0.6258 -0.1862,-0.9153 -0.1229,-0.2895 -0.3028,-0.5513 -0.529,-0.7697 -0.5753,-0.4759 -1.3105,-0.7142 -2.0555,-0.6664 -0.497,-0.0085 -0.99,0.0888 -1.4465,0.2856 -0.398,0.1832 -0.7361,0.4752 -0.9752,0.8424 -0.2391,0.3673 -0.3695,0.7947 -0.3761,1.2329 0.0039,0.6297 0.2571,1.2321 0.7042,1.6754 0.3081,0.261 0.6662,0.4564 1.0523,0.5742 0.3862,0.1179 0.7923,0.1557 1.1935,0.1112 z m 0,0.9329 c -0.9852,0.0574 -1.9542,-0.2702 -2.7026,-0.9138 -0.3194,-0.3066 -0.5709,-0.6768 -0.7381,-1.0868 -0.1672,-0.41 -0.2464,-0.8506 -0.2325,-1.2931 -0.0057,-0.596 0.1523,-1.1822 0.4568,-1.6945 0.3008,-0.519 0.7431,-0.9416 1.2751,-1.2185 0.595,-0.2771 1.2476,-0.4076 1.9033,-0.3808 0.6608,-0.0137 1.3148,0.1368 1.9032,0.4379 0.5199,0.2609 0.9553,0.6635 1.2562,1.1614 0.2578,0.528 0.3944,1.1069 0.3997,1.6945 0.0184,0.6155 -0.1401,1.2235 -0.4568,1.7516 -0.3163,0.4942 -0.7646,0.8899 -1.2942,1.1423 -0.5492,0.2741 -1.1565,0.4113 -1.7701,0.3998 z m 3.3688,5.0454 H 13.989 v -0.9139 h 6.0904 v -3.3318 h 0.8565 z m -3.3688,6.8541 c 0.6966,0.0318 1.3786,-0.2069 1.9033,-0.6664 0.2271,-0.2111 0.4071,-0.4678 0.5284,-0.7532 0.1214,-0.2853 0.1813,-0.5931 0.1758,-0.9032 0.0139,-0.3214 -0.0437,-0.6418 -0.1688,-0.9382 -0.1251,-0.2963 -0.3145,-0.5611 -0.5544,-0.7753 -0.5715,-0.4829 -1.3096,-0.7222 -2.0555,-0.6664 -0.4962,0 -0.9876,0.097 -1.4465,0.2856 -0.3944,0.1757 -0.731,0.4595 -0.9707,0.8187 -0.2585,0.3743 -0.3917,0.8209 -0.3806,1.2756 0.0038,0.3059 0.068,0.608 0.1888,0.889 0.1209,0.281 0.296,0.5353 0.5154,0.7484 0.3104,0.2634 0.6716,0.4602 1.0612,0.5782 0.3896,0.1179 0.7993,0.1544 1.2036,0.1072 z m 0,0.9519 c -0.9878,0.0522 -1.9571,-0.2824 -2.7026,-0.9329 -0.3137,-0.3028 -0.5617,-0.667 -0.7287,-1.0699 -0.167,-0.4029 -0.2493,-0.8358 -0.2419,-1.2719 -0.0029,-0.6137 0.1545,-1.2175 0.4568,-1.7516 0.2911,-0.5172 0.7371,-0.9301 1.2751,-1.1804 0.5965,-0.2743 1.2469,-0.411 1.9033,-0.3998 0.6608,-0.0137 1.3148,0.1367 1.9032,0.4379 0.5212,0.2677 0.9565,0.6768 1.2562,1.1804 0.2651,0.5321 0.402,1.119 0.3997,1.7135 0.0117,0.6088 -0.1465,1.2088 -0.4568,1.7326 -0.3163,0.4942 -0.7646,0.8899 -1.2942,1.1423 -0.5492,0.2741 -1.1565,0.4113 -1.7701,0.3998 z m 0.9136,1.7516 0.2474,-0.9138 c 0.6666,0.1496 1.2673,0.5101 1.713,1.0281 0.4075,0.548 0.6096,1.2219 0.5709,1.9039 0.0289,0.6238 -0.116,1.2435 -0.4187,1.7897 -0.328,0.4892 -0.7908,0.8728 -1.3323,1.1042 -0.6086,0.2278 -1.2534,0.3439 -1.9032,0.3427 -0.6594,0.0213 -1.3136,-0.1227 -1.9033,-0.4188 -0.517,-0.2509 -0.9428,-0.6569 -1.218,-1.1614 -0.2666,-0.5638 -0.3845,-1.1864 -0.3426,-1.8087 -0.0403,-0.6006 0.1267,-1.1967 0.4731,-1.6889 0.3465,-0.4921 0.8513,-0.8503 1.4301,-1.0147 l 0.2094,0.8949 c -0.4181,0.1117 -0.7907,0.3513 -1.0658,0.6854 -0.2511,0.3347 -0.3848,0.7429 -0.3807,1.1614 -0.0225,0.4768 0.1185,0.947 0.3997,1.3327 0.2558,0.3497 0.6155,0.6095 1.0277,0.7425 0.4228,0.1438 0.8668,0.2146 1.3133,0.2095 0.5229,0.0087 1.0437,-0.0685 1.5416,-0.2285 0.4096,-0.159 0.7567,-0.4462 0.9897,-0.8187 0.1983,-0.355 0.3031,-0.7547 0.3045,-1.1614 0.0193,-0.4709 -0.1366,-0.9322 -0.4377,-1.2946 -0.3137,-0.3707 -0.7426,-0.6255 -1.2181,-0.7235 z M 20.9359,105.42 H 13.989 v -4.989 h 0.8184 v 4.094 h 2.1317 v -3.808 h 0.7803 v 3.808 h 2.36 v -4.246 h 0.8565 z m -0.7994,6.054 v -1.466 c 0.0153,-0.367 -0.0297,-0.733 -0.1332,-1.085 -0.0578,-0.229 -0.1839,-0.435 -0.3616,-0.59 -0.2347,-0.245 -0.5303,-0.422 -0.8565,-0.514 -0.4317,-0.132 -0.881,-0.196 -1.3322,-0.191 -0.5683,-0.029 -1.1338,0.096 -1.6368,0.362 -0.3643,0.185 -0.6486,0.496 -0.7994,0.876 -0.1159,0.375 -0.1674,0.768 -0.1523,1.161 v 1.447 z m 0.7994,0.857 H 13.989 v -2.304 c 9e-4,-0.416 0.0455,-0.831 0.1333,-1.237 0.0827,-0.371 0.2523,-0.717 0.4948,-1.01 0.3154,-0.37 0.7222,-0.653 1.18,-0.818 0.5126,-0.216 1.0617,-0.333 1.6178,-0.343 0.4691,0.007 0.9356,0.071 1.3894,0.19 0.3603,0.111 0.7008,0.278 1.0087,0.495 0.2449,0.163 0.4578,0.37 0.6281,0.61 0.1703,0.244 0.2811,0.524 0.3235,0.818 0.0982,0.366 0.1368,0.746 0.1142,1.124 z"
       fill="#ffffff"
       id="path4" />
    <path
       d="M 21.088,256 V 164.44 H 24 V 256 Z M 0,256 V 164.44 H 2.89294 V 256 Z"
       fill="#ffffff"
       id="path6" />
  </g>
  <defs
     id="defs13">
    <clipPath
       id="clip0_11_24866">
      <rect
         width="24"
         height="256"
         fill="#ffffff"
         id="rect10"
         x="0"
         y="0" />
    </clipPath>
  </defs>
</svg>
