<svg width="544" height="408" viewBox="0 0 544 408" fill="none" xmlns="http://www.w3.org/2000/svg">
<path d="M456.865 392.178C494.37 343.247 522.551 285.454 527.479 223.998C532.406 162.543 511.633 97.4002 464.971 57.1071C418.309 16.814 344.789 6.93568 293.578 41.2734C247.022 72.4917 223.071 133.699 170.844 154.047C144.517 164.303 114.977 162.271 87.776 169.892C39.7906 183.339 2.85329 229.398 0.159209 279.156C-2.53487 328.914 29.1915 378.696 77.9213 394.565C198.907 391.906 319.893 389.259 456.865 392.178Z" fill="#209CD4" fill-opacity="0.2"/>
<path d="M148.496 132.885L150.623 122.44L142.127 120.715C142.056 118.02 141.536 115.397 140.614 112.951L147.846 108.166L141.961 99.2682L134.73 104.054C132.827 102.246 130.618 100.745 128.16 99.6345L129.885 91.1269L119.44 89L117.715 97.5076C115.02 97.5785 112.397 98.0866 109.951 99.0201L105.166 91.7886L96.2682 97.6849L101.054 104.916C99.2459 106.807 97.7453 109.017 96.6345 111.474L88.1269 109.749L86 120.195L94.5076 121.92C94.5785 124.614 95.0866 127.237 96.0083 129.695L88.7768 134.48L94.6731 143.366L101.905 138.581C103.795 140.388 106.005 141.901 108.463 143.012L106.737 151.507L117.183 153.634L118.908 145.139C121.602 145.068 124.225 144.548 126.683 143.626L131.469 150.858L140.354 144.973L135.569 137.742C137.377 135.839 138.889 133.63 140 131.172L148.496 132.885ZM115.623 134.492C108.344 133.015 103.63 125.914 105.119 118.623C106.596 111.344 113.709 106.63 120.988 108.119C128.266 109.607 132.981 116.709 131.492 123.988C130.015 131.278 122.914 135.969 115.623 134.492Z" fill="#F5BE0B"/>
<path d="M183.767 168.132L186.189 160.795L180.222 158.821C180.399 156.872 180.246 154.946 179.797 153.102L185.409 150.278L181.935 143.378L176.323 146.202C175.106 144.736 173.641 143.472 171.974 142.456L173.948 136.477L166.61 134.055L164.637 140.034C162.687 139.856 160.761 139.998 158.918 140.459L156.094 134.846L149.181 138.332L152.005 143.945C150.54 145.15 149.276 146.615 148.259 148.293L142.28 146.32L139.858 153.658L145.837 155.631C145.66 157.581 145.802 159.507 146.263 161.35L140.65 164.174L144.136 171.075L149.748 168.251C150.954 169.716 152.419 170.992 154.085 171.996L152.112 177.964L159.449 180.386L161.423 174.419C163.372 174.596 165.298 174.442 167.153 173.993L169.978 179.606L176.878 176.132L174.054 170.519C175.519 169.302 176.795 167.849 177.8 166.171L183.767 168.132ZM159.969 166.478C154.853 164.788 152.076 159.282 153.766 154.154C155.455 149.038 160.974 146.261 166.09 147.95C171.206 149.64 173.983 155.158 172.293 160.275C170.604 165.391 165.086 168.168 159.969 166.478Z" stroke="#209CD4" stroke-width="0.7857" stroke-miterlimit="10"/>
<path d="M196.824 120.88L197.757 115.988L193.787 115.22C193.74 113.955 193.48 112.738 193.043 111.604L196.398 109.335L193.61 105.211L190.254 107.48C189.356 106.641 188.316 105.956 187.17 105.448L187.938 101.466L183.046 100.532L182.278 104.514C181.014 104.562 179.797 104.81 178.662 105.259L176.394 101.903L172.27 104.703L174.538 108.059C173.7 108.957 173.014 109.985 172.506 111.143L168.524 110.375L167.591 115.267L171.573 116.035C171.62 117.299 171.868 118.516 172.317 119.651L168.961 121.919L171.762 126.043L175.117 123.775C176.015 124.614 177.043 125.299 178.201 125.807L177.433 129.777L182.325 130.711L183.093 126.74C184.358 126.693 185.575 126.433 186.709 125.996L188.978 129.352L193.09 126.563L190.821 123.207C191.66 122.309 192.345 121.27 192.854 120.123L196.824 120.88ZM181.486 121.801C178.083 121.151 175.85 117.855 176.5 114.452C177.15 111.049 180.447 108.815 183.85 109.465C187.253 110.115 189.486 113.412 188.836 116.815C188.186 120.23 184.901 122.451 181.486 121.801Z" stroke="#209CD4" stroke-width="0.7857" stroke-miterlimit="10"/>
<path d="M543.429 196.146L542.46 184.141L532.7 184.921C531.778 182.014 530.384 179.332 528.623 176.968L534.969 169.512L525.799 161.702L519.454 169.158C516.819 167.787 513.96 166.854 510.935 166.416L510.143 156.645L498.138 157.613L498.929 167.385C496.023 168.307 493.34 169.69 490.977 171.45L483.521 165.105L475.711 174.286L483.167 180.631C481.796 183.254 480.862 186.114 480.425 189.139L470.653 189.931L471.622 201.936L481.394 201.144C482.316 204.051 483.698 206.733 485.459 209.108L479.114 216.564L488.295 224.363L494.64 216.907C497.263 218.278 500.123 219.223 503.148 219.66L503.928 229.42L515.933 228.451L515.153 218.691C518.06 217.769 520.742 216.375 523.117 214.615L530.573 220.96L538.372 211.791L530.916 205.445C532.286 202.81 533.232 199.951 533.669 196.926L543.429 196.146ZM508.252 208.187C499.886 208.86 492.549 202.633 491.875 194.244C491.202 185.878 497.441 178.54 505.818 177.866C514.184 177.193 521.522 183.432 522.195 191.809C522.869 200.187 516.63 207.513 508.252 208.187Z" fill="#F5BE0B"/>
<path d="M417.233 39.901L418.426 33.6739L413.369 32.705C413.31 31.098 412.979 29.5501 412.412 28.0967L416.677 25.2017L413.121 19.9553L408.855 22.8503C407.709 21.7869 406.397 20.9125 404.92 20.2626L405.889 15.1934L399.662 14L398.693 19.0691C397.086 19.1282 395.538 19.4473 394.097 20.0144L391.202 15.7488L385.955 19.3055L388.85 23.5711C387.787 24.7054 386.912 26.0289 386.263 27.4941L381.193 26.5251L380 32.7522L385.069 33.7212C385.128 35.3282 385.447 36.8761 386.014 38.3295L381.749 41.2244L385.305 46.4708L389.571 43.5758C390.705 44.6393 392.029 45.5137 393.494 46.1636L392.525 51.2209L398.752 52.4143L399.721 47.357C401.328 47.2979 402.876 46.9671 404.329 46.4117L407.224 50.6773L412.471 47.1207L409.576 42.8551C410.639 41.7089 411.526 40.3973 412.164 38.9203L417.233 39.901ZM397.712 41.0708C393.376 40.2437 390.528 36.0489 391.367 31.7124C392.194 27.3759 396.389 24.54 400.726 25.3671C405.062 26.1943 407.898 30.389 407.071 34.7255C406.244 39.0621 402.049 41.8979 397.712 41.0708Z" stroke="#209CD4" stroke-miterlimit="10"/>
<path d="M388.769 114.345V93.9619C388.769 85.0643 395.977 77.8564 404.874 77.8564H486.536C495.433 77.8564 502.641 85.0643 502.641 93.9619V114.345C502.641 123.242 495.433 130.45 486.536 130.45H404.874C395.977 130.438 388.769 123.23 388.769 114.345Z" fill="#209CD4"/>
<path d="M438.373 122.049L434.698 156.966L467.559 122.604L438.373 122.049Z" fill="#209CD4"/>
<path d="M413.193 112.111C416.534 112.111 419.243 109.555 419.243 106.403C419.243 103.251 416.534 100.696 413.193 100.696C409.851 100.696 407.143 103.251 407.143 106.403C407.143 109.555 409.851 112.111 413.193 112.111Z" fill="white"/>
<path d="M446.148 112.111C449.489 112.111 452.198 109.555 452.198 106.403C452.198 103.251 449.489 100.696 446.148 100.696C442.807 100.696 440.098 103.251 440.098 106.403C440.098 109.555 442.807 112.111 446.148 112.111Z" fill="white"/>
<path d="M478.205 112.111C481.546 112.111 484.255 109.555 484.255 106.403C484.255 103.251 481.546 100.696 478.205 100.696C474.864 100.696 472.155 103.251 472.155 106.403C472.155 109.555 474.864 112.111 478.205 112.111Z" fill="white"/>
<path d="M295.917 96.4907C322.334 96.4907 343.749 74.8905 343.749 48.2454C343.749 21.6002 322.334 0 295.917 0C269.5 0 248.085 21.6002 248.085 48.2454C248.085 74.8905 269.5 96.4907 295.917 96.4907Z" fill="#209CD4" fill-opacity="0.4"/>
<path d="M299.095 100.319C325.512 100.319 346.927 78.7187 346.927 52.0735C346.927 25.4283 325.512 3.82812 299.095 3.82812C272.679 3.82812 251.264 25.4283 251.264 52.0735C251.264 78.7187 272.679 100.319 299.095 100.319Z" fill="white"/>
<path d="M306.28 91.2914L323.72 110.705L323.531 78.2109L306.28 91.2914Z" fill="white"/>
<path d="M268.078 38.3789H329.51" stroke="#209CD4" stroke-width="3" stroke-miterlimit="10" stroke-linecap="round" stroke-linejoin="round"/>
<path d="M268.078 53.1377H333.386" stroke="#209CD4" stroke-width="3" stroke-miterlimit="10" stroke-linecap="round" stroke-linejoin="round"/>
<path d="M268.078 67.376H310.64" stroke="#209CD4" stroke-width="3" stroke-miterlimit="10" stroke-linecap="round" stroke-linejoin="round"/>
<path d="M313.24 262.98L307.166 242.29C307.166 242.29 290.836 249.344 285.649 260.18C273.904 284.757 266.507 332.518 261.745 339.183C256.983 345.847 198.375 353.787 198.375 353.787L204.378 384.001C204.378 384.001 276.054 378.838 285.649 370.365C298.647 358.892 314.327 308.992 314.327 308.992L313.24 262.98Z" fill="#D2A512"/>
<path d="M352.091 138.947C354.136 130.475 363.269 124.732 371.954 125.441C380.639 126.15 388.296 132.519 391.782 140.506C395.256 148.494 394.913 157.817 392.089 166.065C390.175 171.642 387.162 177.621 389.312 183.116C390.907 187.204 394.996 189.744 399.013 191.529C403.031 193.301 407.367 194.672 410.629 197.614C413.89 200.556 415.71 205.743 413.275 209.406C409.766 214.712 400.03 213.696 397.844 219.663C396.721 222.7 398.304 226.055 398.115 229.293C397.891 233.358 394.807 236.844 391.144 238.616C387.481 240.388 383.31 240.743 379.233 240.837C372.072 241.015 364.605 240.412 358.401 236.844C352.198 233.263 347.637 226.032 349.126 219.025C350.343 213.282 355.329 207.965 353.592 202.364C352.34 198.311 348.086 196.137 345.037 193.183C338.586 186.932 337.569 176.628 340.181 168.038C342.768 159.436 348.889 152.264 352.091 138.947Z" fill="#6B2E40"/>
<path d="M360.93 227.319C350.721 243.093 332.63 260.853 326.179 259.99C320.85 259.281 315.402 251.802 315.402 238.603C316.147 238.308 316.891 237.87 317.612 237.327C319.184 236.11 320.59 234.314 321.417 232.199C321.629 231.679 321.807 231.112 321.925 230.544C322.752 226.846 321.736 222.604 319.467 220.087C319.349 219.957 319.243 219.827 319.124 219.709C327.762 211.863 336.388 206.309 345.002 200.756C345.333 205.931 346.42 210.717 348.31 214.817C348.748 215.786 349.232 216.708 349.764 217.582C352.529 222.19 356.511 225.664 360.93 227.319Z" fill="#FAC8BF"/>
<path d="M348.287 214.794C341.942 223.597 330.976 237.516 317.589 237.315C319.16 236.098 320.566 234.302 321.393 232.187C321.606 231.667 321.783 231.1 321.902 230.533C322.729 226.834 321.712 222.592 319.444 220.075C319.326 219.945 319.219 219.815 319.101 219.697C327.739 211.851 336.364 206.298 344.978 200.744C345.309 205.92 346.408 210.705 348.287 214.794Z" fill="#EDA19F"/>
<path d="M357.184 224.85C357.184 224.85 342.591 255.891 325.186 256.73C315.237 257.214 316.903 235.768 316.903 235.768C316.903 235.768 300.301 243.555 295.516 249.498C289.998 256.34 283.18 297.944 283.771 308.827C284.834 328.442 295.149 341.239 295.149 351.897C295.149 362.555 287.41 388.149 287.41 388.149L392.881 387.865C392.881 387.865 387.316 365.166 386.228 341.085C385.141 317.004 397.418 263.205 392.987 248.045C389.844 237.387 357.184 224.85 357.184 224.85Z" fill="#F5BE0B"/>
<path d="M324.796 256.775C324.796 256.775 347.66 247.961 356.286 223.607C356.286 223.607 368.787 227.211 369.591 229.267C370.938 232.706 365.054 257.484 357.645 261.195C351.276 264.385 324.796 256.775 324.796 256.775Z" fill="#E2B216"/>
<path d="M324.796 256.752C324.796 256.752 317.269 245.963 320.211 233.214C320.211 233.214 313.547 235.506 309.955 238.756C304.685 243.529 295.539 262.341 298.092 264.196C299.864 265.472 324.796 256.752 324.796 256.752Z" fill="#E2B216"/>
<path d="M323.367 270.636C325.109 270.636 326.521 269.223 326.521 267.481C326.521 265.739 325.109 264.326 323.367 264.326C321.624 264.326 320.212 265.739 320.212 267.481C320.212 269.223 321.624 270.636 323.367 270.636Z" fill="white"/>
<path d="M321.133 290.049C322.876 290.049 324.288 288.637 324.288 286.894C324.288 285.152 322.876 283.739 321.133 283.739C319.391 283.739 317.978 285.152 317.978 286.894C317.978 288.637 319.391 290.049 321.133 290.049Z" fill="white"/>
<path d="M290.378 207.858C297.789 206.56 302.293 196.915 300.436 186.316C298.58 175.716 291.067 168.175 283.655 169.473C276.244 170.771 271.741 180.416 273.597 191.016C275.453 201.616 282.966 209.156 290.378 207.858Z" fill="#0387D9"/>
<path d="M363.092 181.414C366.401 155.076 351.205 131.42 329.144 128.572C307.095 125.737 283.227 144.571 283.227 171.122C283.227 206.89 297.501 229.778 318.888 225.595C339.413 221.589 359.784 207.752 363.092 181.414Z" fill="#FAC8BF"/>
<path d="M358.968 178.046C351.808 176.853 345.321 172.185 341.906 165.781C342.65 169.893 340.925 174.371 337.593 176.9C336.329 177.869 334.627 178.578 333.162 177.975C332.028 177.515 331.307 176.38 330.775 175.281C328.896 171.382 328.365 166.856 329.286 162.626C326.131 169.929 319.219 175.482 311.408 177.006C309.281 177.42 306.788 177.432 305.323 175.837C304.118 174.525 304.023 172.481 304.626 170.803C305.229 169.125 306.422 167.731 307.58 166.384C300.289 171.512 291.037 173.769 282.211 172.564C285.153 160.452 292.526 149.239 303.161 142.728C313.795 136.229 327.726 134.894 338.94 140.329C350.154 145.765 357.905 158.242 356.688 170.661" fill="#EDA19F"/>
<path d="M360.091 193.607C359.335 189.247 357.94 184.225 356.038 178.979C349.315 173.981 344.234 166.832 340.677 159.187C340.653 159.47 340.653 159.719 340.653 160.002C340.488 166.087 336.187 177.703 334.284 176.497C331.189 174.571 331.661 153.432 330.35 141.9C331.248 148.989 330.291 156.445 326.888 162.732C323.484 169.018 317.423 173.981 310.416 175.328C309.494 175.493 308.407 175.552 307.769 174.879C306.989 174.016 307.379 172.669 307.828 171.617C311.349 163.322 314.859 155.063 318.321 146.768C315.579 153.161 312.425 159.411 307.036 163.547C301.01 168.214 292.963 170.27 284.007 170.188C283.227 175.552 283.369 180.373 283.924 184.402C281.632 180.16 280.155 175.635 279.457 171.027C277.638 159.163 280.852 146.685 288.06 137.221C298.056 124.093 315.898 117.452 332.039 120.832C335.501 121.032 338.881 121.611 342.095 122.592C355.022 126.468 365.515 136.216 370.016 148.446C375.641 163.701 371.588 182.075 360.091 193.607Z" fill="#904B57"/>
<path d="M342.083 122.569C328.258 121.647 314.221 124.518 302.629 132.01C289.418 140.529 280.096 155.429 279.457 171.015C277.638 159.151 280.852 146.674 288.06 137.209C298.056 124.081 315.898 117.44 332.039 120.82C335.49 121.009 338.869 121.6 342.083 122.569Z" fill="#BD7D81"/>
<path d="M354.797 176.545C354.797 176.545 357.267 148.162 340.913 135.188C321.121 119.496 294.488 130.45 294.488 130.45C294.488 130.45 292.881 126.704 309.27 121.588C317.293 119.083 336.778 116.637 350.177 129.068C366.153 143.885 365.184 169.857 365.184 169.857L354.797 176.545Z" fill="#0A4494"/>
<path d="M347.542 185.751C348.948 175.081 356.133 167.223 363.589 168.204C371.045 169.185 375.96 178.626 374.554 189.296C373.148 199.966 365.964 207.823 358.508 206.843C351.052 205.874 346.136 196.421 347.542 185.751Z" fill="#0387D9"/>
<path d="M357.22 187.026C358.472 177.503 363.412 170.307 368.244 170.945C373.089 171.583 375.996 179.807 374.743 189.331C373.491 198.854 368.552 206.05 363.719 205.412C358.874 204.774 355.967 196.538 357.22 187.026Z" fill="#75C0E0"/>
<path d="M331.673 180.267C327.218 175.812 320.991 175.411 316.891 177.218" stroke="#904B57" stroke-width="2" stroke-miterlimit="10" stroke-linecap="round"/>
<path d="M300.077 177.786C295.468 174.288 289.442 175.529 286.866 178.613" stroke="#904B57" stroke-width="2" stroke-miterlimit="10" stroke-linecap="round"/>
<path d="M303.87 189.922C303.728 193.408 304.094 196.905 304.968 200.32" stroke="#B35267" stroke-width="2" stroke-miterlimit="10" stroke-linecap="round"/>
<path d="M322.244 193.017C323.373 193.017 324.288 191.626 324.288 189.909C324.288 188.193 323.373 186.802 322.244 186.802C321.115 186.802 320.2 188.193 320.2 189.909C320.2 191.626 321.115 193.017 322.244 193.017Z" fill="#363857"/>
<path d="M293.471 193.017C294.6 193.017 295.516 191.626 295.516 189.909C295.516 188.193 294.6 186.802 293.471 186.802C292.342 186.802 291.427 188.193 291.427 189.909C291.427 191.626 292.342 193.017 293.471 193.017Z" fill="#363857"/>
<path d="M320.365 213.648C316.549 214.806 313.878 213.601 312.094 211.84C309.695 209.489 308.856 206.133 308.856 206.133L309.364 205.991L324.607 201.478C324.607 201.478 324.985 202.305 325.316 203.545C325.446 204.006 325.552 204.526 325.623 205.093C326.049 208.083 325.529 212.088 320.365 213.648Z" fill="#B35267"/>
<path d="M325.316 203.545C321.322 205.093 312.708 207.338 311.538 207.338C310.758 207.338 309.955 206.641 309.376 205.991L324.619 201.478C324.619 201.478 324.997 202.305 325.316 203.545Z" fill="#FFEDEF"/>
<path d="M320.365 213.648C316.548 214.806 313.878 213.601 312.094 211.84C316.596 206.676 322.161 205.353 325.623 205.081C326.049 208.082 325.529 212.088 320.365 213.648Z" fill="#E6919D"/>
<path d="M307.379 228.56C307.379 228.56 300.1 228.631 293.472 222.876C287.115 217.346 286.37 210.469 286.583 207.574" stroke="#363857" stroke-miterlimit="10"/>
<path d="M309.86 232.4C313.345 232.4 316.17 230.681 316.17 228.56C316.17 226.439 313.345 224.72 309.86 224.72C306.376 224.72 303.551 226.439 303.551 228.56C303.551 230.681 306.376 232.4 309.86 232.4Z" fill="#363857"/>
<path d="M15.4846 399.634V407.137L422.705 408L512.708 388.621V381.39L15.4846 399.634Z" fill="#1B2E34"/>
<path d="M162.501 381.52L512.708 381.39L422.067 399.776L15.4846 399.634L162.501 381.52Z" fill="white"/>
<g opacity="0.949">
<g opacity="0.949">
<path opacity="0.949" d="M200.679 383.481C193.093 384.415 184.538 385.006 175.546 385.313C166.838 385.656 157.728 385.774 148.546 385.774C150.756 378.211 155.672 371.37 162.419 367.329C164.498 366.088 166.767 365.084 169.142 364.434C174.365 362.969 180.025 363.04 185.129 364.895C192.526 367.612 199.249 375.73 200.679 383.481Z" fill="#12252B"/>
<path opacity="0.949" d="M175.546 385.313C166.838 385.655 157.728 385.774 148.546 385.774C150.756 378.211 155.672 371.37 162.419 367.329C164.498 366.088 166.767 365.083 169.142 364.434C172.131 366.608 174.152 370.058 175.109 373.697C176.102 377.479 176.019 381.461 175.546 385.313Z" fill="#597375"/>
</g>
<path opacity="0.949" d="M204.969 376.604C200.443 378.731 196.674 379.31 191.037 378.861C189.076 381.425 179.209 389.744 176.669 387.534C174.707 385.833 181.844 378.873 183.286 376.226C184.326 374.312 185.165 372.149 185.224 369.881C182.801 366.986 177.98 364.209 174.873 364.989C170.028 366.206 164.085 373.272 158.023 378.412C157.184 379.121 156.333 379.842 155.329 380.149C154.325 380.456 153.155 380.255 152.481 379.345C151.3 377.75 152.269 375.304 153.308 373.579C158.886 364.386 166.046 356.517 174.235 350.585C184.468 351.849 191.427 354.413 200.668 358.525C203.149 363.973 205.051 371.192 204.969 376.604Z" fill="#FAC8BF"/>
</g>
<path d="M187.055 382.536V388.16H348.558L384.243 381.165V377.62L187.055 382.536Z" fill="#1B2E34"/>
<path d="M245.356 377.656L384.243 377.62L348.298 382.583L187.055 382.536L245.356 377.656Z" fill="#324B4F"/>
<path d="M375.393 346.592C375.393 346.592 364.298 357.593 375.192 375.553C375.192 375.553 384.799 373.698 385.661 362.425C386.205 355.218 375.393 346.592 375.393 346.592Z" fill="#A78413"/>
<path d="M381.963 364.719C381.597 365.38 376.953 366.018 373.597 366.349C372.735 366.408 369.509 366.326 368.918 366.349C369.438 370.13 367.417 372.706 365.302 373.226C362.703 373.888 360.032 372.352 358.283 370.745C355.743 372.671 353.297 373.191 350.969 371.974C348.618 370.757 346.562 367.212 346.29 363.761C345.782 366.089 345.333 368.11 345.652 369.268C346.077 370.851 351.773 378.638 347.661 379.95C345.77 380.552 339.531 373.841 338.822 370.898C337.936 367.212 338.09 362.84 340.051 357.298C336.471 361.587 335.206 363.714 334.828 365.522C333.848 370.166 334.616 378.425 331.343 378.154C327.443 378.154 326.711 366.373 328.306 361.327C329.452 357.688 336.719 346.214 340.63 345.246C344.246 344.348 363.884 345.151 367.571 345.695C369.414 345.978 371.246 346.167 372.935 346.321C377.567 346.723 381.23 346.699 381.431 346.864C383.724 349.298 382.967 362.757 381.963 364.719Z" fill="#FAC8BF"/>
<path d="M381.963 364.719C381.597 365.381 376.953 366.019 373.597 366.35C374.401 364.388 374.968 362.368 375.216 360.3C375.83 355.538 375.015 350.622 372.924 346.333C377.556 346.735 381.219 346.711 381.419 346.877C383.724 349.299 382.967 362.757 381.963 364.719Z" fill="#EDA19F"/>
<path d="M353.297 356.612C353.651 361.882 354.845 365.404 357.74 369.823" stroke="#B35267" stroke-miterlimit="10" stroke-linecap="round"/>
<path d="M368.481 366.173C367.701 365.96 366.602 365.227 366.011 364.672" stroke="#B35267" stroke-miterlimit="10" stroke-linecap="round"/>
<path d="M365.929 362.415C366.141 363.963 365.881 365.558 365.184 366.964" stroke="#B35267" stroke-miterlimit="10" stroke-linecap="round"/>
<path d="M403.964 256.458C400.88 249.392 391.498 242.834 382.731 237.989C382.447 238.155 382.164 238.308 381.88 238.486C376.894 241.688 372.758 246.095 368.918 250.562C368.752 250.751 368.599 250.963 368.445 251.152C370.867 267.116 373.928 287.404 375.039 294.943C377.366 310.706 394.831 341.156 394.594 344.346C394.358 347.537 375.039 345.883 375.039 345.883C382.754 356.612 380.982 368.014 374.92 375.269C374.92 375.269 424.938 378.129 430.964 370.247C436.991 362.378 408.466 266.785 403.964 256.458Z" fill="#F5BE0B"/>
<path d="M383.014 249.816C375.133 274.158 376.256 301.299 386.122 324.908" stroke="#C0950A" stroke-miterlimit="10" stroke-linecap="round"/>
<path d="M365.845 291.279C368.929 302.528 375.015 312.229 383.995 319.662" stroke="#C0950A" stroke-miterlimit="10" stroke-linecap="round"/>
<path d="M376.149 345.729C378.997 346.378 381.927 346.662 384.846 346.567" stroke="#C0950A" stroke-miterlimit="10" stroke-linecap="round"/>
<path d="M389.762 375.812C384.385 375.812 380.923 375.647 375.688 375.375" stroke="#C0950A" stroke-miterlimit="10" stroke-linecap="round"/>
<path d="M54.1235 363.617L47.6719 216.459H249.421L255.873 363.617H54.1235Z" fill="#1B2E34"/>
<path d="M248.96 363.617L242.508 216.459H249.421L255.872 363.617H248.96Z" fill="#324B4F"/>
<path d="M112.247 392.792L131.07 313.766H167.641L148.818 392.792H112.247Z" fill="#12252B"/>
<path d="M146.467 392.792L165.29 313.766H167.641L148.818 392.792H146.467Z" fill="#324B4F"/>
<path d="M169.473 384.532H94.9009V392.792H169.473V384.532Z" fill="#12252B"/>
<path d="M169.473 384.532H164.664V392.792H169.473V384.532Z" fill="#324B4F"/>
</svg>
