<svg width="336" height="279" viewBox="0 0 336 279" fill="none" xmlns="http://www.w3.org/2000/svg">
<path d="M303.457 272.214C339.727 244.673 355.881 168.305 296.988 130.857C257.998 106.069 233.749 120.209 189.887 103.812C136.341 83.7985 128.359 23.3324 63.2268 53.085C28.7206 68.8421 4.79996 113.254 0.591693 163.729C-3.53256 213.158 14.0108 247.075 49.8612 270.284C134.049 273.861 218.406 273.213 303.457 272.214Z" fill="#DFF3FC"/>
<path d="M146.925 32.4389C141.317 55.1304 162.147 77.5934 184.103 86.9064C206.052 96.2272 231.223 95.1163 254.744 90.6725C264.889 88.7579 275.324 86.0633 283.201 79.5474C291.085 73.0315 295.654 61.7172 291.336 52.5776C287.526 44.5174 278.242 40.3888 269.395 38.2693C260.548 36.1499 251.146 35.2832 243.269 30.8237C235.791 26.5927 230.488 19.5883 223.988 14.0415C211.973 3.80665 195.101 -1.26742 179.48 1.97084C163.86 5.20911 151.697 13.1511 146.925 32.4389Z" fill="#DFF3FC"/>
<path d="M292.141 161.133V147.786H287.081C286.475 145.452 285.55 143.253 284.362 141.225L287.939 137.642L278.499 128.202L274.916 131.779C272.888 130.591 270.689 129.666 268.355 129.06V124H255.008V129.06C252.674 129.666 250.475 130.591 248.447 131.779L244.864 128.202L235.424 137.642L239.002 141.225C237.813 143.253 236.894 145.452 236.282 147.786H231.222V161.133H236.282C236.894 163.467 237.819 165.666 239.002 167.694L235.424 171.277L244.864 180.717L248.447 177.14C250.475 178.328 252.674 179.247 255.008 179.859V184.919H268.355V179.859C270.689 179.247 272.888 178.328 274.916 177.14L278.499 180.717L287.939 171.277L284.362 167.694C285.55 165.666 286.475 163.467 287.081 161.133H292.141ZM261.691 166.022C255.302 166.022 250.126 160.845 250.126 154.456C250.126 148.074 255.302 142.897 261.691 142.897C268.074 142.897 273.25 148.074 273.25 154.456C273.25 160.845 268.068 166.022 261.691 166.022Z" fill="#209CD4" fill-opacity="0.3"/>
<path d="M251.816 194.573L249.274 187.951L246.763 188.913C246.015 187.871 245.139 186.959 244.165 186.175L245.256 183.718L238.781 180.833L237.685 183.289C236.453 183.087 235.185 183.044 233.911 183.185L232.949 180.674L226.334 183.222L227.296 185.734C226.254 186.481 225.342 187.357 224.557 188.331L222.101 187.24L219.216 193.715L221.672 194.812C221.47 196.043 221.433 197.311 221.568 198.585L219.057 199.547L221.599 206.169L224.11 205.207C224.858 206.248 225.734 207.161 226.707 207.945L225.617 210.401L232.092 213.286L233.188 210.83C234.42 211.032 235.688 211.069 236.962 210.934L237.923 213.446L244.545 210.904L243.584 208.392C244.625 207.645 245.538 206.769 246.322 205.795L248.778 206.885L251.663 200.41L249.207 199.314C249.409 198.083 249.452 196.815 249.311 195.541L251.816 194.573ZM237.642 202.793C234.475 204.006 230.922 202.426 229.703 199.259C228.49 196.092 230.07 192.539 233.237 191.326C236.404 190.113 239.957 191.694 241.17 194.861C242.389 198.021 240.802 201.58 237.642 202.793Z" stroke="#209CD4" stroke-opacity="0.3" stroke-miterlimit="10"/>
<path d="M230.126 171.357L228.41 166.885L226.714 167.535C226.211 166.83 225.617 166.212 224.956 165.685L225.697 164.025L221.323 162.077L220.582 163.737C219.749 163.602 218.891 163.571 218.034 163.669L217.384 161.973L212.913 163.688L213.562 165.385C212.858 165.887 212.239 166.481 211.712 167.143L210.052 166.401L208.104 170.775L209.764 171.516C209.629 172.349 209.599 173.201 209.697 174.065L208 174.714L209.715 179.186L211.412 178.536C211.92 179.241 212.508 179.859 213.17 180.386L212.429 182.046L216.802 183.994L217.544 182.334C218.377 182.469 219.228 182.5 220.092 182.401L220.741 184.098L225.213 182.383L224.564 180.686C225.268 180.178 225.887 179.59 226.414 178.928L228.074 179.669L230.021 175.296L228.361 174.555C228.496 173.722 228.527 172.864 228.429 172.006L230.126 171.357ZM220.551 176.913C218.413 177.734 216.012 176.662 215.191 174.524C214.371 172.386 215.443 169.985 217.58 169.164C219.718 168.343 222.119 169.415 222.94 171.553C223.761 173.691 222.689 176.092 220.551 176.913Z" stroke="#209CD4" stroke-opacity="0.3" stroke-miterlimit="10"/>
<path d="M248.31 29.1461C248.31 38.0976 244.125 46.0763 237.617 51.2265C232.827 55.0278 226.769 57.2841 220.164 57.2841C213.583 57.2841 207.517 55.0278 202.711 51.2265C196.195 46.0681 192.018 38.0894 192.018 29.1461C192.018 13.6057 204.615 1 220.164 1C235.713 1 248.31 13.6057 248.31 29.1461Z" fill="#209CD4" stroke="#209CD4" stroke-miterlimit="10"/>
<path d="M221.308 29.0324C226.358 28.4091 229.946 23.8099 229.323 18.7598C228.7 13.7097 224.101 10.1211 219.051 10.7444C214 11.3678 210.412 15.967 211.035 21.017C211.658 26.0671 216.258 29.6557 221.308 29.0324Z" fill="white"/>
<path d="M237.617 47.679C232.827 51.4803 226.769 53.7365 220.164 53.7365C213.583 53.7365 207.517 51.4803 202.71 47.679C204.509 39.7575 206.168 32.9233 207.893 31.1902C210.329 28.7541 216.796 27.3398 220.156 27.3398C223.516 27.3398 230.293 29.0647 231.543 30.3155C234.094 32.8579 236.293 39.8801 237.617 47.679Z" fill="white"/>
<path d="M176.698 115.764V101.867C176.698 98.0738 179.772 95 183.565 95H227.349C231.142 95 234.216 98.0738 234.216 101.867V115.764C234.216 119.557 231.142 122.631 227.349 122.631H183.573C179.78 122.639 176.698 119.557 176.698 115.764Z" fill="#209CD4"/>
<path d="M195.189 115.037L174 135.679L208.343 118.323" fill="#209CD4"/>
<path d="M182.011 101.523V101.45C182.011 100.886 182.469 100.428 183.033 100.428H204.68C205.244 100.428 205.702 100.886 205.702 101.45V101.523C205.702 102.087 205.244 102.545 204.68 102.545H183.033C182.469 102.545 182.011 102.087 182.011 101.523Z" fill="white"/>
<path d="M206.675 101.523V101.45C206.675 100.886 207.133 100.428 207.697 100.428H226.589C227.153 100.428 227.611 100.886 227.611 101.45V101.523C227.611 102.087 227.153 102.545 226.589 102.545H207.697C207.133 102.545 206.675 102.087 206.675 101.523Z" fill="white"/>
<path d="M198.427 106.175V106.101C198.427 105.537 198.884 105.079 199.448 105.079H226.589C227.153 105.079 227.611 105.537 227.611 106.101V106.175C227.611 106.739 227.153 107.196 226.589 107.196H199.448C198.884 107.196 198.427 106.739 198.427 106.175Z" fill="white"/>
<path d="M182.011 106.175V106.101C182.011 105.537 182.469 105.079 183.033 105.079H195.157C195.721 105.079 196.179 105.537 196.179 106.101V106.175C196.179 106.739 195.721 107.196 195.157 107.196H183.033C182.469 107.196 182.011 106.739 182.011 106.175Z" fill="white"/>
<path d="M202.195 110.826V110.752C202.195 110.188 202.653 109.73 203.217 109.73H226.589C227.153 109.73 227.611 110.188 227.611 110.752V110.826C227.611 111.39 227.153 111.848 226.589 111.848H203.217C202.653 111.848 202.195 111.39 202.195 110.826Z" fill="white"/>
<path d="M182.011 110.826V110.752C182.011 110.188 182.469 109.73 183.033 109.73H199.179C199.743 109.73 200.201 110.188 200.201 110.752V110.826C200.201 111.39 199.743 111.848 199.179 111.848H183.033C182.469 111.848 182.011 111.39 182.011 110.826Z" fill="white"/>
<path d="M182.011 115.477V115.404C182.011 114.84 182.469 114.382 183.033 114.382H189.026C189.59 114.382 190.047 114.84 190.047 115.404V115.477C190.047 116.041 189.59 116.499 189.026 116.499H183.033C182.469 116.499 182.011 116.041 182.011 115.477Z" fill="white"/>
<path d="M192.165 115.477V115.404C192.165 114.84 192.623 114.382 193.187 114.382H226.589C227.153 114.382 227.611 114.84 227.611 115.404V115.477C227.611 116.041 227.153 116.499 226.589 116.499H193.187C192.623 116.499 192.165 116.041 192.165 115.477Z" fill="white"/>
<path d="M71.6491 108.757C77.9579 95.1988 72.0812 79.0936 58.5231 72.7848C44.965 66.476 28.8597 72.3528 22.551 85.9109C16.2422 99.469 22.1189 115.574 35.677 121.883C49.2351 128.192 65.3404 122.315 71.6491 108.757Z" fill="#209CD4"/>
<path d="M28.9043 90.4541H65.2825" stroke="white" stroke-width="1.628" stroke-miterlimit="10" stroke-linecap="round" stroke-linejoin="round"/>
<path d="M28.9043 96.6592H65.2825" stroke="white" stroke-width="2" stroke-miterlimit="10" stroke-linecap="round" stroke-linejoin="round"/>
<path d="M28.9043 103.853H53.012" stroke="white" stroke-width="1.628" stroke-miterlimit="10" stroke-linecap="round" stroke-linejoin="round"/>
<path d="M65.8958 111.905C66.8604 111.456 82.4008 112.167 82.4008 112.167L71.2012 101.883L65.8958 111.905Z" fill="#209CD4"/>
<path d="M134.451 51.5544C140.286 38.0665 134.081 22.4028 120.593 16.5686C107.105 10.7343 91.4416 16.9388 85.6073 30.4267C79.7731 43.9145 85.9775 59.5782 99.4654 65.4125C112.953 71.2468 128.617 65.0423 134.451 51.5544Z" fill="#209CD4"/>
<path d="M110.923 18.3105H109.149V40.6607H110.923V18.3105Z" fill="white"/>
<path d="M90.4023 53.5649L91.4119 55.0234L110.037 42.1318L109.027 40.6733L90.4023 53.5649Z" fill="white"/>
<path d="M112.485 40.9876C112.485 42.3365 111.389 43.4401 110.032 43.4401C108.683 43.4401 107.58 42.3447 107.58 40.9876C107.58 39.6388 108.675 38.5352 110.032 38.5352C111.389 38.5352 112.485 39.6388 112.485 40.9876Z" fill="white"/>
<path d="M158.313 224.923C158.313 224.923 160.103 241.33 162.106 242.646C165.687 245.009 207.133 250.469 207.133 250.469L205.776 261.252C205.776 261.252 149.01 266.353 146.598 263.516C142.413 258.595 135.055 234.855 135.055 234.855L158.313 224.923Z" fill="#E06A58"/>
<path d="M130.943 182.683L135.529 171.672C135.529 171.672 147.972 177.517 152.075 184.735C156.465 192.452 161.836 233.482 161.836 233.482C161.836 233.482 139.87 238.542 135.832 236.392C131.794 234.242 130.943 182.683 130.943 182.683Z" fill="#F2AE30"/>
<path d="M96.012 131.575C92.7993 130.397 89.3986 129.367 85.9569 129.629C82.5153 129.89 79.0001 131.713 77.8311 134.738C76.9973 136.88 77.3815 139.406 76.0653 141.335C74.8064 143.183 72.3049 143.951 69.9669 144.107C67.6207 144.27 65.2581 143.959 62.9283 144.262C55.7344 145.218 50.6006 153.034 52.9631 159.435C53.9032 161.985 55.8325 164.421 55.391 167.078C54.9251 169.923 51.9412 171.795 50.715 174.435C49.0882 177.951 51.0338 182.21 54.2466 184.605C57.4593 186.992 61.6367 187.899 65.6914 188.504C71.2748 189.338 77.0381 189.731 82.5562 188.553C88.0742 187.376 93.347 184.466 96.2001 179.921C97.4672 177.91 98.2356 175.637 99.7071 173.749C102.748 169.849 108.135 168.337 112.378 165.574C117.013 162.541 120.414 156.639 117.684 152.02C115.051 147.581 108.201 146.592 105.454 142.218C104.318 140.412 104.048 138.262 103.312 136.291C102.56 134.313 100.762 133.316 96.012 131.575Z" fill="#0A2240"/>
<path d="M114.732 186.027C115.542 186.959 116.498 187.981 117.823 188.071C119.221 188.169 120.39 187.18 121.289 186.223C125.932 181.31 128.998 175.277 130.24 169.056C129.088 168.402 127.976 167.773 126.97 167.184C126.038 166.628 125.335 165.852 124.935 164.944C124.657 164.274 124.559 163.571 124.632 162.835C125.286 156.688 125.867 153.262 128.025 147.025C117.774 144.711 108.103 141.965 102.544 137.321C101.865 140.182 101.064 145.782 99.3555 151.333C97.5325 157.211 94.6877 163.023 89.8645 165.525C99.331 171.116 107.776 178.065 114.732 186.027Z" fill="#F9A07B"/>
<path d="M124.632 162.843C124.559 163.579 124.657 164.29 124.935 164.952C118.869 172.309 105.307 162.696 99.3555 151.341C101.064 145.79 101.865 140.19 102.544 137.329C108.094 141.972 117.773 144.727 128.025 147.033C125.867 153.27 125.286 156.687 124.632 162.843Z" fill="#E06A58"/>
<path d="M141.522 251.786C140.181 260.664 149.762 270.22 149.999 274.961C129.652 274.961 87.0278 276.204 65.3235 273.253C64.3344 267.776 75.0516 255.456 75.0516 243.292C75.0516 241.682 74.9862 239.916 74.8554 238.019C74.5121 232.591 73.711 226.133 72.8199 219.511C70.4001 201.747 67.1792 182.749 69.5581 178.809C74.2178 171.132 85.1149 165.917 90.5185 163.677C92.3742 162.908 93.5841 162.491 93.674 162.442C100.451 174.002 114.242 183.861 119.449 183.419C120.896 183.305 125.188 181.809 128.025 167.527C129.128 168.157 130.232 168.737 131.328 169.301C136.715 172.105 141.767 174.419 143.222 178.024C147.064 187.515 150.833 211.443 149.999 219.953C149.157 228.536 145.707 235.093 143.287 243.709C142.723 245.728 142.208 247.87 141.791 250.175C141.685 250.69 141.603 251.23 141.522 251.786Z" fill="#FFC73C"/>
<path d="M149.999 274.962C129.652 274.962 87.0278 276.204 65.3235 273.253C64.3344 267.776 75.0516 255.457 75.0516 243.292C75.0516 241.682 74.9862 239.916 74.8554 238.019C74.5121 232.591 73.711 226.133 72.8199 219.512C76.6703 223.574 82.2864 206.407 84.7716 211.435C98.2192 238.575 108.822 245.712 127.248 245.712C132.742 245.712 137.81 244.952 143.287 243.709C142.723 245.728 142.208 247.87 141.791 250.176C141.693 250.699 141.603 251.238 141.522 251.794C140.181 260.656 149.762 270.212 149.999 274.962Z" fill="#FFBB33"/>
<path d="M131.328 169.301C130.453 175.653 127.861 184.212 120.324 186.468C110.138 189.518 95.399 170.486 90.5186 163.677C92.3743 162.908 93.5841 162.491 93.6741 162.442C100.451 174.002 114.242 183.861 119.449 183.419C120.896 183.305 125.188 181.809 128.025 167.527C129.129 168.148 130.232 168.729 131.328 169.301Z" fill="#FCE172"/>
<path d="M135.513 265.405L135.439 272.493L262.15 273.245L262.412 265.209L135.513 265.405Z" fill="#325F73"/>
<path d="M317.069 202.172L314.249 199.311L221.954 198.706L175.652 265.667L178.071 267.612L317.069 202.172Z" fill="#325F73"/>
<path d="M223.736 201.183L178.071 267.612L265.297 268.045L317.069 202.172L223.736 201.183Z" fill="#0B2D50"/>
<path d="M245.776 243.586C251.383 243.586 255.929 241.313 255.929 238.509C255.929 235.705 251.383 233.433 245.776 233.433C240.168 233.433 235.623 235.705 235.623 238.509C235.623 241.313 240.168 243.586 245.776 243.586Z" fill="#3C738C"/>
<path d="M155.828 139.042C157.267 131.323 154.306 124.297 149.215 123.348C144.124 122.399 138.831 127.888 137.392 135.606C135.954 143.325 138.915 150.351 144.006 151.3C149.097 152.249 154.39 146.76 155.828 139.042Z" fill="#56C4F9"/>
<path d="M155.836 114.816C154.888 121.536 151.887 128.942 147.514 137.125C145.977 130.422 144.996 122.255 143.639 114.089C142.257 105.905 140.5 97.7224 137.451 91.0353C136.764 89.5557 136.02 88.1414 135.211 86.8335C137.017 86.6618 138.849 86.8335 140.59 87.3158C143.312 88.0433 145.863 89.4494 147.947 91.3296C151.413 94.4116 153.735 98.6135 155.117 103.044C156.253 106.723 156.457 110.631 155.836 114.816Z" fill="#0B2D50"/>
<path d="M150.702 121.765C150.653 123.089 150.563 124.438 150.44 125.779C148.577 147.524 139.445 162.443 125.474 162.443C105.748 162.443 92.9629 140.322 92.9629 118.65C92.9629 97.2729 106.059 81.7978 121.387 83.5881C130.224 84.6018 136.682 87.5366 141.268 91.8366C144.301 94.6978 146.492 98.1558 147.988 102.088C149.697 106.494 150.522 111.481 150.694 116.852C150.694 116.868 150.71 116.884 150.71 116.901C150.776 118.487 150.759 120.105 150.702 121.765Z" fill="#F9A07B"/>
<path d="M150.702 121.764C150.113 119.664 149.239 117.612 148.045 115.772C136.412 121.854 122.548 124.201 109.403 121.977C106.901 124.062 104.457 126.114 101.996 128.165C102.045 118.274 102.184 111.579 106.043 106.788C109.664 102.292 115.705 100.6 121.428 99.864C127.87 99.022 134.418 99.0547 140.843 99.9866C143.304 100.33 145.854 100.861 147.996 102.104C149.705 106.51 150.53 111.497 150.702 116.868C150.702 116.884 150.718 116.9 150.718 116.917C150.776 118.486 150.759 120.105 150.702 121.764Z" fill="#E06A58"/>
<path d="M153.547 108.374C150.841 110.663 147.448 112.559 143.639 114.096C132.799 118.47 118.714 119.916 107.735 119.385C102.339 131.239 100.157 135.49 98.7752 145.831C93.5024 140.885 89.2106 131.827 87.9353 124.707C86.6764 117.611 86.799 110.164 88.7774 103.191C91.892 92.1955 99.748 86.3095 105.193 83.4483C106.55 82.7044 107.776 82.1894 108.724 81.8134C115.681 79.1238 123.521 79.3691 130.657 81.5518C134.549 82.7616 137.827 84.8054 140.582 87.3232C146.149 92.3508 149.59 99.1605 151.814 104.262C152.517 105.823 153.081 107.237 153.547 108.374Z" fill="#0B2D50"/>
<path d="M155.836 114.816C155.386 112.437 154.716 110.132 153.768 107.908C153.236 106.649 152.582 105.431 151.822 104.254C149.345 100.363 145.74 97.158 141.383 95.7437C140.14 94.0025 138.832 92.4329 137.459 91.0432C132.513 86.0156 126.709 83.1381 120.561 82.1325C115.444 81.3069 110.122 81.7728 105.209 83.4405C106.566 82.6966 107.792 82.1816 108.741 81.8055C115.697 79.116 123.537 79.3613 130.674 81.5439C134.565 82.7538 137.843 84.7976 140.598 87.3154C143.32 88.043 145.871 89.4491 147.955 91.3293C151.422 94.4112 153.743 98.6131 155.125 103.044C156.253 106.723 156.457 110.63 155.836 114.816Z" fill="#225570"/>
<path d="M114.021 128.149C117.667 126.065 121.452 125.125 126.758 127.062" stroke="#0B2D50" stroke-width="2" stroke-miterlimit="10" stroke-linecap="round"/>
<path d="M138.988 128.002C142.11 125.673 146.737 125.435 149.149 128.002" stroke="#0B2D50" stroke-width="2" stroke-miterlimit="10" stroke-linecap="round"/>
<path d="M135.219 139.889C135.538 141.54 135.366 145.194 134.581 146.837" stroke="#CC454E" stroke-width="2" stroke-miterlimit="10" stroke-linecap="round"/>
<path d="M122.899 141C123.73 141 124.404 139.939 124.404 138.63C124.404 137.32 123.73 136.259 122.899 136.259C122.069 136.259 121.395 137.32 121.395 138.63C121.395 139.939 122.069 141 122.899 141Z" fill="#262D40"/>
<path d="M142.56 139.897C143.391 139.897 144.064 138.835 144.064 137.526C144.064 136.217 143.391 135.155 142.56 135.155C141.729 135.155 141.056 136.217 141.056 137.526C141.056 138.835 141.729 139.897 142.56 139.897Z" fill="#262D40"/>
<path d="M133.355 150.067C133.355 150.067 133.061 150.639 132.497 151.415C131.614 152.601 130.11 154.236 128.058 154.873H128.05C127.183 155.151 126.243 155.249 125.196 155.061C122.123 154.514 121.313 151.677 121.166 149.494C121.134 149.069 121.134 148.677 121.142 148.317C121.158 147.434 121.256 146.846 121.256 146.846C126.153 149.543 133.355 150.067 133.355 150.067Z" fill="#CC454E"/>
<path d="M133.355 150.067C133.355 150.067 133.061 150.639 132.497 151.415C129.995 151.383 124.878 150.099 121.142 148.317C121.158 147.434 121.257 146.846 121.257 146.846C126.153 149.543 133.355 150.067 133.355 150.067Z" fill="white"/>
<path d="M128.05 154.865C127.183 155.143 126.243 155.241 125.196 155.053C122.123 154.506 121.313 151.669 121.166 149.486C122.654 149.666 124.093 150.238 125.286 151.146C126.537 152.102 127.494 153.402 128.05 154.865Z" fill="#E8729B"/>
<path d="M98.8242 124.397C98.8242 124.397 98.6525 114.203 102.895 104.074C108.217 91.3624 119.065 85.9261 129.586 85.5582C142.265 85.1086 150.203 93.6187 150.203 93.6187C150.203 93.6187 146.075 86.3348 137.933 84.2421C132.586 82.8687 124.518 82.648 118.043 85.2803C111.373 87.9862 103.059 95.4989 100.05 103.437C97.0502 111.374 95.5869 123.735 95.5869 123.735L98.8242 124.397Z" fill="#3D86E0"/>
<path d="M98.6098 150.938C104.039 150.374 107.747 143.247 106.891 135.021C106.036 126.794 100.942 120.583 95.5127 121.147C90.0837 121.711 86.3759 128.838 87.2312 137.064C88.0864 145.291 93.1808 151.502 98.6098 150.938Z" fill="#56C4F9"/>
<path d="M96.1122 148.299C99.617 147.772 101.707 142.347 100.781 136.181C99.8541 130.015 96.2618 125.444 92.7569 125.97C89.2521 126.497 87.162 131.922 88.0885 138.088C89.015 144.254 92.6074 148.825 96.1122 148.299Z" fill="#3D86E0"/>
<path d="M129.668 162.746C132.576 162.746 134.933 161.278 134.933 159.468C134.933 157.657 132.576 156.189 129.668 156.189C126.761 156.189 124.404 157.657 124.404 159.468C124.404 161.278 126.761 162.746 129.668 162.746Z" fill="#3A92C9"/>
<path d="M103.222 148.505C103.222 148.505 110.956 158.446 124.404 159.467" stroke="#3A92C9" stroke-width="2" stroke-miterlimit="10" stroke-linecap="round"/>
<path d="M135.439 246.481L134.932 259.553C134.932 259.553 87.6571 273.72 79.8501 269.24C76.0406 267.049 72.4845 255 69.8277 243.236C67.0482 230.876 65.2661 218.842 65.2661 218.842L92.979 213.414C92.979 213.414 92.9953 230.312 93.9354 240.081C94.2706 243.718 94.7529 246.367 95.3987 246.8C97.843 248.411 135.439 246.481 135.439 246.481Z" fill="#F9A07B"/>
<path d="M93.9354 240.064C88.8997 241.699 79.1798 244.225 69.8277 243.227C67.0482 230.867 65.2661 218.833 65.2661 218.833L92.979 213.405C92.979 213.397 92.9953 230.295 93.9354 240.064Z" fill="#E06A58"/>
<path d="M134.09 246.612C141.121 245.108 153.023 241.494 157.961 240.252C161.468 239.369 170.599 244.094 173.011 248.549C174.066 250.495 175.063 261.515 171.409 260.378C169.578 259.806 169.88 255.081 169.308 253.152C168.842 251.582 167.354 250.062 165.09 248.754C166.602 252.522 166.545 255.809 166.381 259.88C166.348 260.779 166.291 261.719 165.858 262.496C165.417 263.272 164.468 263.828 163.651 263.485C162.817 263.141 162.531 262.103 162.343 261.196C161.697 258.057 161.043 254.918 160.781 251.37C160.847 254.86 160.773 258.359 160.553 261.842C160.389 264.507 159.065 265.97 157.438 265.504C156.71 265.3 156.416 264.629 156.105 263.746C155.615 265.455 154.389 267.343 152.803 266.624C151.838 266.191 151.241 262.708 151.413 259.128C148.372 261.016 144.938 261.817 140.982 261.997C137.434 262.161 133.804 261.498 131.671 259.087C131.883 255.318 133.126 249.743 134.09 246.612Z" fill="#F9A07B"/>
<path d="M156.179 263.207C156.416 260.378 156.171 257.509 155.451 254.778" stroke="#CC454E" stroke-miterlimit="10" stroke-linecap="round"/>
<path d="M89.8644 185.994C87.8534 180.329 80.4878 168.737 80.4878 168.737C80.4878 168.737 69.2474 173.413 65.258 181.351C58.5056 194.791 61.939 233.376 61.939 233.376C71.0377 237.186 89.3003 237.243 97.0746 236.147C97.0746 236.147 93.8946 197.317 89.8644 185.994Z" fill="#FFC73C"/>
<path d="M91.2949 188.365C94.3605 203.039 96.0036 216.724 96.5268 230.131" stroke="#F2AE30" stroke-miterlimit="10" stroke-linecap="round"/>
<path d="M331.882 270.915H9.56274V279H331.882V270.915Z" fill="#0B2D50"/>
</svg>
