<svg width="392" height="184" viewBox="0 0 392 184" fill="none" xmlns="http://www.w3.org/2000/svg">
<g clip-path="url(#clip0_2_299)">
<path d="M362.954 167.692C380.173 149.068 380.834 138.841 366.224 117.411C360.623 109.205 356.919 100.267 355.319 90.4233C354.484 85.2139 355.98 82.8967 361.632 83.3323C367.928 83.8027 374.294 83.9943 380.295 81.1893C388.417 77.4086 390.069 72.0424 385.078 64.5507C380.19 57.2158 373.425 51.327 365.963 47.3198C354.519 41.187 354.397 32.5628 357.04 21.9873C359.928 10.4013 359.702 10.349 347.979 10.2968C344.813 10.2968 341.648 10.3664 338.482 10.2968C333.699 10.1748 329.925 10.5058 330.69 17.2309C331.421 23.6076 327.386 20.7852 324.672 19.5656C315.767 15.5235 307.001 11.2201 298.027 7.35233C288.6 3.29287 279.034 3.53679 269.537 7.38718C237.986 20.1754 209.897 38.3645 184.956 61.5366C183.964 62.46 182.834 63.2614 181.668 64.1848C178.59 60.4041 181.581 58.3308 183.425 56.7105C210.036 33.434 238.821 13.6419 272.511 1.89906C287.591 -3.36256 300.635 3.44967 313.819 9.21655C319.228 11.5686 324.377 17.562 329.577 7.97955C331.734 4.0072 356.762 4.94802 360.38 8.03182C363.754 10.8891 363.945 14.6872 362.45 18.3111C356.971 31.4826 361.076 40.525 373.251 47.3372C378.938 50.5255 383.895 55.2122 387.756 60.7526C395.653 72.025 392.383 82.1301 379.216 86.207C375.425 87.3917 371.233 88.2629 367.354 87.9144C358.919 87.1304 359.267 91.277 361.145 97.1484C363.789 105.511 368.294 112.759 373.39 119.833C385.773 137.011 382.434 157.169 365.424 169.94C364.137 169.696 363.302 168.982 362.954 167.71V167.692Z" fill="#FF0000"/>
<path d="M8.53994 102.671C8.53994 98.6467 8.43559 94.6047 8.57473 90.58C8.66169 88.4022 9.74005 86.5554 12.2098 86.5903C14.6796 86.6251 15.7058 88.5939 15.7754 90.702C15.9667 96.4515 16.1754 102.236 15.8449 107.985C15.5667 112.916 17.5147 114.571 22.2977 114.536C28.1069 114.501 33.7596 114.24 39.2209 112.027C45.5519 109.466 49.9349 105.215 50.6132 98.1415C51.2742 91.1376 46.8738 86.7122 41.569 83.5762C31.0637 77.3737 19.567 78.088 8.01816 79.6909C5.27009 80.0742 1.00884 83.0709 0.104414 78.2448C-0.695657 73.9066 3.68734 73.262 7.1833 72.5651C20.2453 69.9343 32.9595 70.9796 45.0997 76.4677C54.7353 80.8234 60.1793 89.0643 59.501 98.0195C58.7357 108.316 52.8569 115.007 43.5865 118.7C34.5423 122.307 25.0284 122.219 15.5145 121.209C10.7314 120.704 8.45298 117.812 8.43559 113.055C8.43559 109.606 8.43559 106.138 8.43559 102.689H8.52255L8.53994 102.671Z" fill="#FF0000"/>
<path d="M125.472 114.763C125.716 118.805 125.002 120.965 122.289 121.575C119.419 122.219 118.167 120.111 117.263 117.899C113.227 108.037 108.671 98.4376 102.67 89.6218C95.0171 78.4017 90.7559 78.4365 82.9987 89.6218C77.0851 98.1414 72.389 107.358 68.3539 116.906C67.1712 119.711 65.7102 122.585 62.1273 121C58.8922 119.571 58.9966 116.487 60.2488 113.56C66.1624 99.7618 72.876 86.416 83.7466 75.7534C87.5904 71.9727 92.443 69.2199 97.6609 72.8264C112.88 83.4019 118.689 100.215 125.472 114.763V114.763Z" fill="#FF0000"/>
<path d="M148.639 121.679C144.569 121.61 141.613 119.38 139.091 116.54C129.629 105.842 123.472 93.2109 118.324 80.0394C117.245 77.304 116.584 73.8892 119.924 72.4605C124.481 70.5092 124.898 74.9346 126.063 77.5828C130.446 87.5834 134.725 97.6536 141.265 106.487C146.831 113.996 150.013 113.926 155.562 106.226C162.154 97.0612 166.328 86.6425 170.607 76.2761C171.581 73.9066 172.155 69.8646 176.294 71.7985C179.564 73.3143 179.199 76.6768 178.155 79.3947C173.094 92.5662 167.371 105.424 158.049 116.261C155.597 119.118 152.761 121.575 148.657 121.679H148.639Z" fill="#FF0000"/>
<path d="M362.954 167.692C363.771 168.442 364.589 169.191 365.424 169.923C351.248 182.467 334.273 183.129 316.741 181.543C314.776 181.369 312.689 180.585 310.88 181.021C292.913 185.185 275.103 184.732 256.997 181.195C249.639 179.749 241.621 182.205 233.916 181.944C219.219 181.456 206.523 175.846 196.504 164.905C189.582 157.343 186.347 148.336 187.269 137.97C187.547 134.868 188.034 131.941 190.469 129.99C192.834 131.053 192.608 132.534 192.452 133.927C190.278 152.361 197.617 165.41 214.836 173.041C224.194 177.188 234.16 179.522 244.282 177.815C252.44 176.439 260.249 176.979 268.145 178.599C281.677 181.387 295.017 179.958 308.34 177.118C310.549 176.648 312.984 176.317 315.141 176.77C332.395 180.498 348.187 176.892 362.971 167.692H362.954Z" fill="#FF0000"/>
<path d="M191.878 96.6606C191.878 103.281 191.982 109.919 191.826 116.54C191.756 119.258 190.921 121.836 187.356 121.54C184.416 121.296 183.616 119.101 183.599 116.644C183.547 103.386 183.564 90.1445 183.564 76.8859C183.564 74.3422 184.451 72.1295 187.199 71.8334C190.591 71.4675 191.756 74.0635 191.843 76.7814C192.052 83.402 191.913 90.0226 191.895 96.6606H191.878Z" fill="#FF0000"/>
<path d="M308.966 119.589C303.157 120.024 299.887 117.777 298.983 112.742C298.479 109.954 298.426 107.062 298.339 104.205C298.235 100.476 298.496 96.7303 298.2 93.0192C297.992 90.3536 298.044 80.3879 298.322 78.6805C298.705 76.189 300.357 75.2134 302.392 74.9869C305.992 74.6036 304.74 77.6351 304.705 79.1857C304.618 82.7051 305.54 84.6564 309.488 84.3602C311.436 84.2034 313.889 84.2208 313.61 87.2001C313.419 89.3605 311.436 89.7438 309.697 89.5522C305.105 89.0295 304.601 91.6429 304.775 95.2842C304.984 99.5701 304.81 103.891 304.862 108.194C304.897 111.313 305.784 113.944 309.436 114.327C311.506 114.536 313.732 114.449 313.158 117.515C312.602 120.495 309.871 118.944 308.984 119.571L308.966 119.589Z" fill="#FF0000"/>
<path d="M252.892 93.9775C252.892 100.894 252.892 107.811 252.892 114.71C252.892 117.115 252.857 119.31 249.431 119.362C245.917 119.414 245.987 117.132 245.987 114.78C245.987 100.668 245.987 86.5554 245.987 72.4431C245.987 70.4221 245.917 68.314 248.926 68.192C251.97 68.0701 252.944 69.551 252.909 72.3735C252.84 79.569 252.892 86.7819 252.892 93.9775V93.9775Z" fill="#FF0000"/>
<path d="M235.099 89.7612C231.986 84.6563 226.959 82.827 220.924 83.5413C216.698 84.0466 213.028 90.0399 207.984 84.6389C207.045 83.6458 205.166 85.8062 205.183 87.8447C205.27 101.974 205.34 116.087 205.427 130.216C205.427 132.255 206.349 133.3 208.523 133.422C211.41 133.579 211.793 131.872 211.775 129.624C211.741 125.599 211.775 121.557 211.775 116.836C215.01 117.951 217.358 119.136 219.828 119.536C226.333 120.582 232.09 118.822 235.377 112.794C239.482 105.232 239.656 97.2355 235.117 89.7786L235.099 89.7612ZM221.689 114.554C213.88 114.327 211.81 109.065 211.741 102.358C211.706 94.3782 215.793 88.7507 221.654 88.6635C227.081 88.5764 231.725 94.3259 231.899 101.295C232.073 109.135 227.933 114.728 221.689 114.536V114.554Z" fill="#FF0000"/>
<path d="M287.556 105.72H287.504C287.504 103.142 287.573 100.563 287.504 97.9847C287.121 86.7123 279.99 81.1545 269.276 83.9421C266.98 84.5345 263.05 84.6913 263.589 87.9144C264.319 92.392 267.502 88.9424 269.659 88.7681C271.363 88.6288 273.103 88.3326 274.772 88.5591C277.868 88.9946 280.303 90.7543 280.529 93.9775C280.842 98.368 276.981 96.4341 274.911 97.131C273.294 97.6711 271.555 97.8627 269.937 98.4028C262.093 101.051 258.527 106.975 260.928 113.264C263.223 119.31 269.12 121.348 276.825 118.752C278.494 118.195 279.607 115.808 282.025 117.759C286.721 121.54 287.765 118.84 287.608 114.31C287.521 111.452 287.608 108.578 287.608 105.703L287.556 105.72ZM280.982 106.208C280.738 111.296 278.303 114.31 273.172 114.728C269.45 115.024 266.806 113.317 266.911 109.396C267.067 103.229 271.85 102.427 277.399 101.783C280.199 101.173 281.138 102.985 280.982 106.208V106.208Z" fill="#FF0000"/>
<path d="M345.005 110.895C344.953 109.17 345.005 107.445 344.987 105.72C344.987 102.846 345.092 99.9535 344.953 97.0787C344.5 87.0956 339.039 82.2173 329.351 83.5936C326.22 84.0292 320.689 84.0118 321.385 87.9841C322.255 93.0193 326.447 87.8622 329.16 88.4371C329.977 88.6113 330.882 88.3849 331.734 88.4371C335.352 88.6462 338.013 90.5104 338.239 94.082C338.517 98.2635 334.656 96.4689 332.569 97.1484C330.656 97.7582 328.621 98.0021 326.76 98.699C319.576 101.4 316.272 107.341 318.828 113.578C321.82 120.878 327.925 120.408 334.117 118.892C335.7 118.509 337.161 116.749 338.587 116.853C345.231 117.324 345.196 117.481 345.005 110.912V110.895ZM339.161 105.982C338.535 111.069 336.239 114.623 330.586 114.815C326.69 114.937 324.464 112.742 324.725 109.1C325.142 103.107 329.908 102.358 335.126 101.835C337.943 101.26 339.596 102.549 339.161 105.999V105.982Z" fill="#FF0000"/>
</g>
<defs>
<clipPath id="clip0_2_299">
<rect width="392" height="184" fill="white"/>
</clipPath>
</defs>
</svg>
