<svg width="219" height="102" viewBox="0 0 219 102" fill="none" xmlns="http://www.w3.org/2000/svg">
<g clip-path="url(#clip0_2_231)">
<path d="M202.761 92.9638C212.389 82.6409 212.756 76.9657 204.588 65.0872C201.456 60.5355 199.378 55.5901 198.499 50.1262C198.025 47.2357 198.866 45.9586 202.027 46.1986C205.545 46.4675 209.112 46.5635 212.456 45.0175C216.99 42.9145 217.917 39.9473 215.134 35.7893C212.398 31.7274 208.619 28.4528 204.453 26.2346C198.064 22.8352 197.986 18.0531 199.465 12.1858C201.079 5.76162 200.954 5.73282 194.4 5.70401C192.631 5.70401 190.863 5.74242 189.094 5.70401C186.426 5.63679 184.309 5.81924 184.734 9.54509C185.14 13.0789 182.888 11.5233 181.371 10.8415C176.393 8.60403 171.492 6.21295 166.476 4.07155C161.208 1.81491 155.862 1.95895 150.546 4.09075C132.906 11.1776 117.209 21.27 103.27 34.1088C102.71 34.6274 102.081 35.0595 101.434 35.578C99.7133 33.4847 101.385 32.3323 102.42 31.4393C117.296 18.5332 133.389 7.56693 152.209 1.04669C160.637 -1.87253 167.925 1.91094 175.301 5.09904C178.326 6.40501 181.206 9.72754 184.116 4.41724C185.324 2.21822 199.311 2.73677 201.34 4.44605C203.225 6.0305 203.341 8.1431 202.491 10.1501C199.427 17.4481 201.727 22.4607 208.532 26.2442C211.712 28.0111 214.476 30.6134 216.642 33.6767C221.049 39.9281 219.232 45.5265 211.867 47.7927C209.75 48.4457 207.401 48.9354 205.236 48.7338C200.519 48.3016 200.722 50.5967 201.756 53.852C203.235 58.4901 205.748 62.504 208.6 66.422C215.52 75.9478 213.655 87.1254 204.144 94.2026C203.428 94.0682 202.955 93.6744 202.771 92.9638H202.761Z" fill="#FCFAFA"/>
<path d="M4.62031 56.7616C4.62031 54.6874 4.57198 52.6037 4.63964 50.5295C4.6783 49.1467 5.1616 47.9079 6.85313 48.0232C8.23535 48.1192 8.67998 49.2811 8.70898 50.4334C8.79597 53.6215 8.88296 56.8288 8.74764 60.0169C8.65098 62.4368 9.47258 63.5027 12.0147 63.4739C15.0788 63.4451 18.1139 63.4451 21.0427 62.3888C24.9573 60.9868 27.8861 58.6246 28.1471 54.2457C28.4081 49.9821 25.5276 47.495 22.1156 45.7953C17.0506 43.2698 11.6281 43.4235 6.09919 43.8748C4.10801 44.038 0.599298 46.7844 0.0386763 43.193C-0.483282 39.8416 3.61505 40.3026 5.93487 39.9089C12.585 38.7854 19.0901 39.6304 25.2183 42.444C30.0996 44.691 33.2603 48.4361 33.1153 54.0056C32.9704 59.7097 29.713 63.5123 24.5417 65.6633C19.3511 67.8143 13.8802 67.7567 8.39967 67.1614C5.9832 66.9021 4.66864 65.4329 4.62031 62.9842C4.58164 60.91 4.62031 58.8358 4.62031 56.752V56.7616Z" fill="#FCFAFA"/>
<path d="M69.981 63.666C70.184 65.7402 69.8264 66.9693 68.3572 67.3822C66.801 67.8144 65.9987 66.7389 65.4767 65.4809C63.3502 60.3146 60.9338 55.2828 57.8793 50.5871C53.1141 43.2698 50.5719 43.2314 45.7873 50.3662C42.8489 54.7547 40.4227 59.4216 38.3156 64.2517C37.61 65.8554 37.03 67.9872 34.7199 67.123C32.6224 66.3355 32.922 64.4054 33.6856 62.6289C36.8077 55.4269 40.3841 48.4745 45.9033 42.7513C50.0403 38.4589 53.2977 38.382 57.425 42.588C63.4856 48.7434 66.9943 56.4351 69.981 63.6756V63.666Z" fill="#FCFAFA"/>
<path d="M67.5935 39.8225C69.5267 40.149 69.7877 41.695 70.3386 42.9818C72.6971 48.3881 75.0459 53.8136 78.545 58.6246C81.957 63.3107 83.7066 63.3011 87.0896 58.5093C90.6177 53.5255 92.8988 47.8983 95.2283 42.3C95.7793 40.9844 96.0789 38.7374 98.3987 39.7841C100.235 40.6099 100.042 42.4824 99.4523 43.99C96.6202 51.2881 93.4788 58.4613 88.2109 64.4246C84.5958 68.5154 81.2901 68.573 77.6461 64.6071C72.2718 58.7494 68.8888 51.6914 66.018 44.3934C65.2834 42.5208 65.1481 40.6099 67.5839 39.8321L67.5935 39.8225Z" fill="#FCFAFA"/>
<path d="M202.761 92.9638L204.134 94.2026C196.217 101.155 186.716 101.529 176.924 100.646C175.822 100.55 174.663 100.118 173.648 100.348C163.605 102.653 153.649 102.403 143.529 100.444C139.421 99.6473 134.926 101.001 130.634 100.857C122.418 100.588 115.314 97.4771 109.727 91.4082C105.861 87.2118 104.044 82.2184 104.566 76.476C104.72 74.7667 104.943 73.115 106.402 72.0779C107.678 72.6445 107.552 73.4703 107.456 74.2386C106.238 84.4558 110.346 91.6867 119.973 95.9215C125.202 98.2165 130.77 99.5129 136.434 98.5718C140.996 97.8132 145.365 98.1109 149.773 99.0135C157.341 100.55 164.794 99.7722 172.246 98.1973C173.474 97.938 174.846 97.746 176.045 98.0053C185.691 100.079 194.516 98.0725 202.781 92.9734L202.761 92.9638Z" fill="#FCFAFA"/>
<path d="M107.146 53.9192C107.146 57.4338 107.195 60.9484 107.117 64.463C107.079 65.9322 106.74 67.4782 104.749 67.3918C102.835 67.315 102.487 65.8746 102.478 64.3382C102.458 57.1553 102.478 49.9629 102.478 42.7801C102.478 41.1572 103.067 39.7552 104.836 39.8032C106.605 39.8512 107.127 41.3781 107.146 42.9049C107.195 46.5731 107.166 50.251 107.156 53.9288L107.146 53.9192Z" fill="#FCFAFA"/>
<path d="M172.314 66.3067C168.438 66.566 167.056 64.367 166.766 61.3901C166.505 58.711 166.698 55.9934 166.621 53.2855C166.572 51.8066 167.133 50.203 164.842 49.4636C163.247 48.945 163.247 47.6295 164.958 46.794C165.374 46.5924 165.973 46.5155 166.195 46.189C167.162 44.7486 165.809 41.7622 168.621 41.695C171.985 41.6086 169.53 44.6046 170.419 46.0066C171.589 47.8503 175.388 45.0943 175.03 48.5129C174.779 50.9136 170.941 48.4649 170.487 50.6639C169.975 53.103 170.313 55.7245 170.255 58.2597C170.197 60.9292 170.158 63.5123 173.986 63.5411C175.001 63.5411 175.185 64.5398 174.875 65.3272C174.334 66.6908 173.01 66.1819 172.314 66.2971V66.3067Z" fill="#FCFAFA"/>
<path d="M141.238 52.1331C141.238 55.9646 141.238 59.7961 141.238 63.6276C141.238 64.9719 141.18 66.1627 139.276 66.1723C137.304 66.1819 137.381 64.8951 137.381 63.5988C137.381 55.7726 137.381 47.9559 137.381 40.1297C137.381 38.987 137.401 37.8635 139.053 37.7963C140.774 37.7291 141.267 38.6125 141.257 40.1489C141.219 44.1437 141.248 48.1288 141.248 52.1235L141.238 52.1331Z" fill="#FCFAFA"/>
<path d="M131.311 49.7901C129.591 46.9573 126.778 45.9394 123.404 46.3043C121.036 46.5636 118.987 50.0013 116.155 46.9189C115.652 46.3715 114.56 47.543 114.57 48.6762C114.618 56.5024 114.657 64.3286 114.705 72.1548C114.705 73.2687 115.198 73.8833 116.416 73.9505C118.011 74.0465 118.272 73.1343 118.252 71.8763C118.233 69.6389 118.252 67.4111 118.252 64.7607C120.031 65.3657 121.346 66.0283 122.728 66.2491C126.362 66.8349 129.581 65.8746 131.427 62.5425C133.737 58.3557 133.834 53.9192 131.311 49.7805V49.7901ZM129.455 56.9345C129.078 60.4491 127.928 63.5892 123.491 63.5316C119.925 63.4835 118.049 60.6891 118.243 55.9646C118.417 51.9411 120.93 49.0026 124.062 49.1755C127.193 49.3387 129.871 53.0166 129.446 56.9441L129.455 56.9345Z" fill="#FCFAFA"/>
<path d="M160.618 63.3107C160.57 61.8799 160.618 60.4491 160.618 59.0183H160.57C160.57 57.1073 160.695 55.1964 160.55 53.295C160.173 48.3881 157.187 45.8337 152.228 46.2947C150.295 46.4771 147.047 46.3523 147.356 48.7818C147.695 51.4993 150.131 48.9354 151.619 48.9546C153.9 48.993 156.104 49.3387 156.597 51.701C157.254 54.8219 154.306 53.3238 152.992 53.9096C152.276 54.2361 151.445 54.3033 150.691 54.5626C146.593 55.9646 144.534 59.1239 145.549 62.4176C146.641 65.9994 150.179 67.3054 154.664 65.7978C155.592 65.4809 156.201 64.2421 157.573 65.3176C160.28 67.4398 160.715 65.6825 160.637 63.3107H160.618ZM156.945 58.2404C156.906 61.4477 155.669 63.2531 152.779 63.5891C150.739 63.8196 149.135 63.0322 149.087 60.8524C149.009 57.4338 151.571 56.8096 154.297 56.5215C155.94 56.3487 157.312 56.4543 156.945 58.25V58.2404Z" fill="#FCFAFA"/>
<path d="M192.873 63.3107C192.689 62.0623 192.844 60.7659 192.844 59.4888H192.689C192.689 57.4146 192.796 55.3308 192.67 53.2662C192.361 48.2632 189.461 45.7569 184.406 46.2947C182.511 46.4963 179.215 46.3235 179.583 48.8298C179.979 51.5377 182.424 48.6473 183.952 49.0026C184.406 49.1082 184.908 48.9738 185.392 49.0122C187.412 49.1563 188.881 50.2318 188.968 52.2099C189.074 54.5818 186.871 53.4103 185.701 53.8424C184.957 54.1209 184.135 54.1977 183.381 54.4378C178.674 55.907 176.654 59.2007 178.084 63.0226C179.264 66.1531 182.869 67.1902 187.151 65.6921C187.973 65.4041 188.388 64.0789 189.896 65.3368C192.09 67.1709 193.289 66.1531 192.873 63.2915V63.3107ZM189.471 58.6918C189.142 61.5149 187.886 63.5027 184.725 63.6371C182.569 63.7332 181.284 62.5616 181.4 60.5163C181.583 57.1841 184.241 56.7424 187.199 56.4255C188.668 56.147 189.712 56.704 189.48 58.6822L189.471 58.6918Z" fill="#FCFAFA"/>
</g>
<defs>
<clipPath id="clip0_2_231">
<rect width="219" height="102" fill="white"/>
</clipPath>
</defs>
</svg>
