<svg width="1138" height="96" viewBox="0 0 1138 96" fill="none" xmlns="http://www.w3.org/2000/svg">
<g clip-path="url(#clip0_0_82)">
<path d="M31.6138 53.2499C32.0818 53.2499 32.4829 52.9687 32.6166 52.4765L35.6918 44.4608L41.3074 68.0858C41.4411 68.6483 41.8422 68.9296 42.377 68.9999C42.845 68.9296 43.313 68.578 43.3798 68.0858L48.8617 39.1874L52.0038 52.3358C52.1375 52.828 52.6055 53.2499 53.0066 53.2499H1081.47C1081.8 53.2499 1082 52.9688 1082 52.6875V51.5625C1082 51.2109 1081.8 51 1081.47 51L53.8757 50.9999L49.7977 33.8437C49.664 33.2812 49.2629 32.9999 48.728 32.9999C48.2601 32.9999 47.7921 33.3515 47.7252 33.8437L42.2434 62.7421L36.962 40.5937C36.8283 40.1015 36.4272 39.7499 36.026 39.7499C35.4912 39.6796 35.0902 39.9609 34.9564 40.4531L30.9453 50.9999H0.53482C0.267411 50.9999 1.22738e-07 51.2108 9.35103e-08 51.5624L0 52.6874C-2.33704e-08 52.9687 0.26741 53.2499 0.534819 53.2499H31.6138Z" fill="#FFD505"/>
</g>
<defs>
<clipPath id="clip0_0_82">
<rect width="1138" height="36" fill="white" transform="translate(0 33)"/>
</clipPath>
</defs>
</svg>
