<svg width="812" height="737" viewBox="0 0 812 737" fill="none" xmlns="http://www.w3.org/2000/svg">
<path d="M547.195 82.407C491.337 43.1 425.481 22.4121 356.521 22.4121C173.433 22.4121 24.4805 171.365 24.4805 354.453C24.4805 520.301 148.263 661.668 312.387 683.735C313.421 683.735 314.111 684.08 315.145 684.08C316.525 684.08 317.559 684.08 318.938 683.735C324.8 699.251 338.592 711.319 356.176 713.733C358.245 714.078 360.659 714.078 362.728 714.078C385.829 714.078 405.483 696.838 408.931 674.081C410.655 661.668 407.551 649.6 399.966 639.601C392.38 629.602 381.691 623.396 369.279 621.672C367.21 621.327 364.796 621.327 362.728 621.327C345.832 621.327 330.661 630.636 322.386 644.773C321.007 644.083 319.628 643.739 317.904 643.739C173.778 624.085 65.5115 499.958 65.5115 354.453C65.5115 193.777 196.19 63.0983 356.866 63.0983C417.206 63.0983 474.787 81.3726 524.093 115.852C533.403 122.404 545.815 119.99 552.367 111.025C558.918 101.716 556.504 88.9582 547.195 82.407ZM342.384 664.771C343.764 654.772 352.384 647.187 362.383 647.187C363.417 647.187 364.452 647.187 365.141 647.531C376.175 649.255 384.105 659.255 382.381 670.633C381.002 680.632 372.382 688.218 362.383 688.218C361.348 688.218 360.314 688.218 359.624 687.873C348.591 686.149 341.005 675.805 342.384 664.771Z" fill="#0081A4"/>
<path d="M547.195 82.407C491.337 43.1 425.481 22.4121 356.521 22.4121C173.433 22.4121 24.4805 171.365 24.4805 354.453C24.4805 520.301 148.263 661.668 312.387 683.735C313.421 683.735 314.111 684.08 315.145 684.08C316.525 684.08 317.559 684.08 318.938 683.735C324.8 699.251 338.592 711.319 356.176 713.733C358.245 714.078 360.659 714.078 362.728 714.078C385.829 714.078 405.483 696.838 408.931 674.081C410.655 661.668 407.551 649.6 399.966 639.601C392.38 629.602 381.691 623.396 369.279 621.672C367.21 621.327 364.796 621.327 362.728 621.327C345.832 621.327 330.661 630.636 322.386 644.773C321.007 644.083 319.628 643.739 317.904 643.739C173.778 624.085 65.5115 499.958 65.5115 354.453C65.5115 193.777 196.19 63.0983 356.866 63.0983C417.206 63.0983 474.787 81.3726 524.093 115.852C533.403 122.404 545.815 119.99 552.367 111.025C558.918 101.716 556.504 88.9582 547.195 82.407ZM342.384 664.771C343.764 654.772 352.384 647.187 362.383 647.187C363.417 647.187 364.452 647.187 365.141 647.531C376.175 649.255 384.105 659.255 382.381 670.633C381.002 680.632 372.382 688.218 362.383 688.218C361.348 688.218 360.314 688.218 359.624 687.873C348.591 686.149 341.005 675.805 342.384 664.771Z" fill="url(#paint0_linear)"/>
<path d="M678.215 617.879C674.078 617.879 669.595 616.5 666.148 613.397C658.562 606.845 657.872 595.122 664.424 587.537C719.936 524.094 750.623 442.377 750.623 357.901C750.623 271.702 718.902 189.295 661.665 125.162C654.769 117.577 655.459 105.854 663.044 99.3023C670.63 92.4064 682.353 93.096 688.904 100.682C752.347 171.365 787.172 262.737 787.172 357.901C787.172 451.341 753.381 541.334 691.663 611.673C688.215 615.81 683.387 617.879 678.215 617.879Z" fill="#0081A4"/>
<path d="M678.215 617.879C674.078 617.879 669.595 616.5 666.148 613.397C658.562 606.845 657.872 595.122 664.424 587.537C719.936 524.094 750.623 442.377 750.623 357.901C750.623 271.702 718.902 189.295 661.665 125.162C654.769 117.577 655.459 105.854 663.044 99.3023C670.63 92.4064 682.353 93.096 688.904 100.682C752.347 171.365 787.172 262.737 787.172 357.901C787.172 451.341 753.381 541.334 691.663 611.673C688.215 615.81 683.387 617.879 678.215 617.879Z" fill="url(#paint1_linear)"/>
<path d="M539.951 510.302C536.159 510.302 532.366 509.267 528.918 506.509C520.643 500.303 519.263 488.924 525.125 480.649C552.364 444.1 566.846 400.311 566.846 354.453C566.846 308.94 552.364 265.495 525.47 228.946C519.263 220.671 520.987 209.293 529.263 203.431C537.538 197.225 548.916 198.949 554.778 207.224C586.499 250.324 603.394 301.009 603.394 354.798C603.394 408.586 586.499 459.961 554.088 503.061C550.985 507.543 545.468 510.302 539.951 510.302Z" fill="#0081A4"/>
<path d="M539.951 510.302C536.159 510.302 532.366 509.267 528.918 506.509C520.643 500.303 519.263 488.924 525.125 480.649C552.364 444.1 566.846 400.311 566.846 354.453C566.846 308.94 552.364 265.495 525.47 228.946C519.263 220.671 520.987 209.293 529.263 203.431C537.538 197.225 548.916 198.949 554.778 207.224C586.499 250.324 603.394 301.009 603.394 354.798C603.394 408.586 586.499 459.961 554.088 503.061C550.985 507.543 545.468 510.302 539.951 510.302Z" fill="url(#paint2_linear)"/>
<path d="M622.707 153.091C616.156 145.16 604.778 144.126 596.847 150.677C588.917 157.228 587.882 168.607 594.434 176.537C635.809 226.533 658.566 289.631 658.566 354.798C658.566 443.066 616.845 526.162 546.507 578.917L458.238 472.029C490.649 443.411 510.992 402.035 510.992 355.487C510.992 333.765 506.51 313.077 498.58 294.458C502.717 288.596 505.82 281.356 506.855 273.77C510.303 248.255 492.718 224.809 467.203 221.016C465.134 220.671 462.721 220.671 460.652 220.671C437.55 220.671 417.897 237.911 414.449 260.668C412.725 273.08 415.828 285.148 423.414 295.148C430.999 305.147 441.688 311.353 454.101 313.077C456.169 313.422 458.583 313.422 460.652 313.422C464.789 313.422 468.582 312.732 472.72 311.698C477.892 325.145 480.65 339.627 480.65 354.798C480.65 423.413 424.793 479.27 356.178 479.27C328.594 479.27 303.079 470.305 282.736 455.134C284.805 450.652 286.529 445.824 287.218 440.997C288.942 428.585 285.839 416.517 278.253 406.517C270.668 396.518 259.979 390.312 247.566 388.588C245.498 388.243 243.084 388.243 241.015 388.243C217.914 388.243 198.26 405.483 194.812 428.24C191.364 453.755 208.949 477.201 234.464 480.994C236.533 481.339 238.946 481.339 241.015 481.339C247.911 481.339 254.462 479.959 260.324 477.201C286.873 497.889 319.974 510.302 356.178 510.302C384.451 510.302 410.656 502.716 433.413 489.614L534.439 611.328C537.887 615.81 543.403 618.224 548.575 618.224C552.023 618.224 555.816 617.189 558.919 614.776C644.429 555.47 695.115 458.237 695.115 354.453C695.115 281.356 669.6 209.638 622.707 153.091ZM460.652 287.907C459.617 287.907 458.583 287.907 457.893 287.562C446.86 285.838 438.93 275.839 440.654 264.461C442.033 254.461 450.653 246.876 460.652 246.876C461.686 246.876 462.721 246.876 463.41 247.221C474.444 248.945 482.374 258.944 480.65 270.322C479.271 280.321 470.651 287.907 460.652 287.907ZM261.014 437.894C259.634 447.893 251.014 455.479 241.015 455.479C239.981 455.479 238.946 455.479 238.257 455.134C227.223 453.41 219.293 443.411 221.017 432.033C222.396 422.033 231.016 414.448 241.015 414.448C242.05 414.448 243.084 414.448 243.774 414.793C254.807 416.517 262.393 426.861 261.014 437.894Z" fill="#0081A4"/>
<path d="M622.707 153.091C616.156 145.16 604.778 144.126 596.847 150.677C588.917 157.228 587.882 168.607 594.434 176.537C635.809 226.533 658.566 289.631 658.566 354.798C658.566 443.066 616.845 526.162 546.507 578.917L458.238 472.029C490.649 443.411 510.992 402.035 510.992 355.487C510.992 333.765 506.51 313.077 498.58 294.458C502.717 288.596 505.82 281.356 506.855 273.77C510.303 248.255 492.718 224.809 467.203 221.016C465.134 220.671 462.721 220.671 460.652 220.671C437.55 220.671 417.897 237.911 414.449 260.668C412.725 273.08 415.828 285.148 423.414 295.148C430.999 305.147 441.688 311.353 454.101 313.077C456.169 313.422 458.583 313.422 460.652 313.422C464.789 313.422 468.582 312.732 472.72 311.698C477.892 325.145 480.65 339.627 480.65 354.798C480.65 423.413 424.793 479.27 356.178 479.27C328.594 479.27 303.079 470.305 282.736 455.134C284.805 450.652 286.529 445.824 287.218 440.997C288.942 428.585 285.839 416.517 278.253 406.517C270.668 396.518 259.979 390.312 247.566 388.588C245.498 388.243 243.084 388.243 241.015 388.243C217.914 388.243 198.26 405.483 194.812 428.24C191.364 453.755 208.949 477.201 234.464 480.994C236.533 481.339 238.946 481.339 241.015 481.339C247.911 481.339 254.462 479.959 260.324 477.201C286.873 497.889 319.974 510.302 356.178 510.302C384.451 510.302 410.656 502.716 433.413 489.614L534.439 611.328C537.887 615.81 543.403 618.224 548.575 618.224C552.023 618.224 555.816 617.189 558.919 614.776C644.429 555.47 695.115 458.237 695.115 354.453C695.115 281.356 669.6 209.638 622.707 153.091ZM460.652 287.907C459.617 287.907 458.583 287.907 457.893 287.562C446.86 285.838 438.93 275.839 440.654 264.461C442.033 254.461 450.653 246.876 460.652 246.876C461.686 246.876 462.721 246.876 463.41 247.221C474.444 248.945 482.374 258.944 480.65 270.322C479.271 280.321 470.651 287.907 460.652 287.907ZM261.014 437.894C259.634 447.893 251.014 455.479 241.015 455.479C239.981 455.479 238.946 455.479 238.257 455.134C227.223 453.41 219.293 443.411 221.017 432.033C222.396 422.033 231.016 414.448 241.015 414.448C242.05 414.448 243.084 414.448 243.774 414.793C254.807 416.517 262.393 426.861 261.014 437.894Z" fill="url(#paint3_linear)"/>
<defs>
<linearGradient id="paint0_linear" x1="290.273" y1="22.4121" x2="290.273" y2="714.078" gradientUnits="userSpaceOnUse">
<stop stop-color="#3BC1CD"/>
<stop offset="1" stop-color="white" stop-opacity="0"/>
</linearGradient>
<linearGradient id="paint1_linear" x1="722.034" y1="94.5337" x2="722.034" y2="617.879" gradientUnits="userSpaceOnUse">
<stop stop-color="#3BC1CD"/>
<stop offset="1" stop-color="white" stop-opacity="0"/>
</linearGradient>
<linearGradient id="paint2_linear" x1="562.469" y1="199.701" x2="562.469" y2="510.302" gradientUnits="userSpaceOnUse">
<stop stop-color="#3BC1CD"/>
<stop offset="1" stop-color="white" stop-opacity="0"/>
</linearGradient>
<linearGradient id="paint3_linear" x1="444.748" y1="146.376" x2="444.748" y2="618.224" gradientUnits="userSpaceOnUse">
<stop stop-color="#3BC1CD"/>
<stop offset="1" stop-color="white" stop-opacity="0"/>
</linearGradient>
</defs>
</svg>
