<svg width="83" height="94" viewBox="0 0 83 94" fill="none" xmlns="http://www.w3.org/2000/svg">
<path fill-rule="evenodd" clip-rule="evenodd" d="M44.2829 0.276346L43.3215 0.175127L43.3348 0.0152149L42.5071 0.0893745L41.6582 0L41.6718 0.164209L40.7482 0.246967C38.8401 0.417929 37.2766 0.859419 36.1782 1.26435C35.6279 1.46721 35.1905 1.66232 34.8802 1.81273C34.725 1.88801 34.6012 1.95232 34.5105 2.00112C34.4652 2.02552 34.4281 2.04607 34.3995 2.06221L34.3629 2.08303L34.3495 2.09084L34.3439 2.09406L34.3403 2.09619C34.3398 2.09651 34.3392 2.09683 35.4528 3.96584L34.3392 2.09683L33.478 2.60401L33.0064 5.22746C27.8478 7.94239 24.1486 12.6599 22.3541 17.7819C21.5131 20.1763 21.0738 22.6728 21.0086 25.1714C20.6307 25.3005 20.1526 25.5353 19.6808 25.9624C18.6204 26.9223 17.99 28.473 18.0001 30.5662L18.0118 33H20.4467C20.4171 33.0396 20.388 33.0795 20.3595 33.1196C19.4768 34.3604 19 35.96 19 37.6243C19 39.2885 19.4768 40.8881 20.3595 42.129C20.9322 42.9341 21.7352 43.6543 22.7264 44.0581C23.8962 49.3131 27.2503 53.7553 31.7971 56.3972V59.6054L26.6612 60.8768C26.3243 60.9602 26.0177 61.1244 25.7621 61.3498L14.0138 64.1349L13.9786 64.1411C13.8966 64.1556 13.7883 64.1765 13.6568 64.2056C13.394 64.2639 13.0365 64.3555 12.6093 64.4957C11.7567 64.7757 10.6128 65.2539 9.38712 66.0577C6.89815 67.6899 4.17828 70.5994 2.84048 75.621C2.82473 75.6802 2.81151 75.7399 2.80086 75.8002L0.0327489 91.4671C-0.0782893 92.0956 0.0961111 92.7406 0.509163 93.2292C0.922216 93.7178 1.53163 94 2.17393 94H33H51H80.8261C81.4685 94 82.078 93.7177 82.4911 93.2289C82.9041 92.7401 83.0784 92.0949 82.9671 91.4663L80.1932 75.7994C80.1827 75.7399 80.1696 75.6809 80.1541 75.6225C78.8196 70.5993 76.1021 67.6892 73.614 66.0568C72.3888 65.253 71.2452 64.775 70.3928 64.4952C69.9657 64.3551 69.6082 64.2636 69.3454 64.2054C69.2139 64.1763 69.1056 64.1554 69.0236 64.1409L68.9888 64.1349L59.7064 61.9343C59.4114 61.407 58.9189 61.0202 58.3358 60.8755L51.2058 59.1057V56.3943C55.751 53.752 59.1043 49.311 60.2737 44.0574C61.2642 43.6537 62.0669 42.9344 62.6398 42.1295C63.5232 40.8884 64 39.2885 64 37.6243C64 35.96 63.5232 34.3602 62.6398 33.119C62.6114 33.0791 62.5824 33.0395 62.5529 33H64.9858L64.9998 30.5688C65.0091 28.9669 64.6465 27.6803 64 26.7327V25.8277C64 19.056 61.1461 12.1146 55.4842 7.5304C54.5488 6.77225 53.5507 6.10203 52.5045 5.5229L52.2133 4L51.7695 4.05587L51.524 2.4839L50.4633 1.99504C48.2712 0.984711 46.1838 0.476498 44.2829 0.276346ZM49.9955 89.6809H78.2364L75.9274 76.6396C74.8785 72.7718 72.8685 70.7438 71.2179 69.6609C70.3677 69.1031 69.5844 68.7787 69.0289 68.5964C68.7521 68.5055 68.5352 68.4511 68.3997 68.4211C68.3321 68.4061 68.2853 68.3974 68.2619 68.3932L68.2472 68.3907C68.1835 68.3814 68.1203 68.3694 68.0577 68.3545L58.2875 66.0383L51.0609 75.1774C50.6667 75.6759 50.0857 75.9749 49.4652 75.9985C48.8446 76.0221 48.2441 75.7682 47.8158 75.301L46.2553 73.5986L49.9955 89.6809ZM41.3239 76.9955L41.3281 77L41.3905 76.9346L41.7782 77.357L42.5727 76.5619L45.6089 89.617H38.3903L41.3239 76.9955ZM42.1045 70.9224L41.9068 71.1202L41.2615 70.4171L41.4286 70.2133L42.1045 70.9224ZM37.4002 75.0684L34.0039 89.6809H4.76264L7.06678 76.64C8.11819 72.7741 10.13 70.7459 11.7825 69.6622C12.6336 69.104 13.4176 68.7793 13.9737 68.5967C14.2508 68.5057 14.4679 68.4512 14.6036 68.4211C14.6713 68.4061 14.7182 68.3973 14.7416 68.3931L14.7563 68.3906C14.8198 68.3814 14.8828 68.3693 14.9452 68.3545L26.4068 65.6373L33.9676 75.1806C34.3788 75.6997 34.9929 76.0004 35.6409 76C36.2889 75.9996 36.9026 75.6981 37.3133 75.1784L37.4002 75.0684ZM46.858 60.7286V58.3252C45.1579 58.8226 43.3594 59.09 41.4986 59.09C39.6397 59.09 37.8427 58.8232 36.1449 58.3265V59.6598L42.0239 63.4021L46.858 60.7286ZM50.0257 64.0797L53.562 64.918L49.2659 70.3511L45.7066 66.4683L50.0257 64.0797ZM34.3185 63.7617L31.1212 64.5197L35.6374 70.22L38.5915 66.4816L34.3185 63.7617ZM47.1297 5.33479C46.9069 5.25794 46.6863 5.18754 46.4681 5.12316L47.0955 12.6839H37.9022L38.5326 5.06332C38.3061 5.12924 38.0965 5.19689 37.9047 5.26364L36.2975 14L32 13.2542L32.4595 10.7564C29.6895 12.9455 27.6219 15.9537 26.4807 19.2115L26.48 19.2133C25.9749 20.6511 25.6447 22.1425 25.4842 23.6554H59.5118C59.0262 19.2026 57.0515 14.8934 53.6942 11.7444L54 13.3436L48.7867 14L47.1297 5.33479ZM26.6451 33.3689H56.352C56.5145 34.4164 57.4272 35.2184 58.5288 35.2184C58.5453 35.2184 58.5878 35.2203 58.6695 35.2688C58.759 35.322 58.8945 35.4328 59.041 35.6387C59.3404 36.0593 59.5949 36.7545 59.5949 37.6243C59.5949 38.494 59.3404 39.1893 59.041 39.6098C58.8945 39.8157 58.759 39.9266 58.6695 39.9797C58.6197 40.0094 58.5844 40.0216 58.5607 40.0266C57.3924 39.9255 56.3445 40.7529 56.1873 41.9117C55.2135 49.0909 49.0058 54.6311 41.4985 54.6311C33.9917 54.6311 27.7866 49.0914 26.8127 41.9117C26.6555 40.753 25.6075 39.9249 24.4378 40.0268C24.4147 40.0219 24.3798 40.0098 24.3301 39.9803C24.2409 39.9272 24.1055 39.8164 23.959 39.6103C23.6596 39.1896 23.4051 38.494 23.4051 37.6243C23.4051 36.7545 23.6596 36.059 23.959 35.6382C24.1055 35.4321 24.2409 35.3213 24.3301 35.2683C24.4115 35.2199 24.4532 35.2184 24.4682 35.2184C25.5699 35.2184 26.4826 34.4164 26.6451 33.3689Z" fill="url(#paint0_linear_142_744)"/>
<defs>
<linearGradient id="paint0_linear_142_744" x1="42.3829" y1="58.5797" x2="42.3829" y2="94" gradientUnits="userSpaceOnUse">
<stop stop-color="#47BCCA"/>
<stop offset="1" stop-color="#0081A4"/>
</linearGradient>
</defs>
</svg>
