<svg width="87" height="78" viewBox="0 0 87 78" fill="none" xmlns="http://www.w3.org/2000/svg">
<path d="M73.9616 34.6517C72.3144 34.6517 70.8064 35.5765 70.064 37.0561L66.6304 43.9225L60.784 20.6185C60.32 18.7458 58.6728 17.4049 56.724 17.3355C54.7984 17.1968 53.0352 18.4684 52.432 20.2948L40.3448 56.453L30.392 3.53346C30.044 1.61457 28.4432 0.181192 26.4944 0.0193588C24.4992 -0.165594 22.736 0.99036 22.04 2.81677L10.0456 34.6749H0V43.3445H13.0616C14.8712 43.3445 16.4952 42.2117 17.1448 40.524L24.708 20.3873L34.8928 74.4628C35.264 76.4048 36.888 77.8613 38.86 78C38.9528 78 39.0688 78 39.1616 78C41.0176 78 42.688 76.8209 43.2912 75.0408L55.9584 37.1255L61.0392 57.3547C61.48 59.1117 62.9648 60.4064 64.7744 60.6145C66.6304 60.7994 68.324 59.8746 69.136 58.2332L76.6296 43.2983H87V34.6286H73.9616V34.6517Z" fill="#0081A4"/>
<path d="M73.9616 34.6517C72.3144 34.6517 70.8064 35.5765 70.064 37.0561L66.6304 43.9225L60.784 20.6185C60.32 18.7458 58.6728 17.4049 56.724 17.3355C54.7984 17.1968 53.0352 18.4684 52.432 20.2948L40.3448 56.453L30.392 3.53346C30.044 1.61457 28.4432 0.181192 26.4944 0.0193588C24.4992 -0.165594 22.736 0.99036 22.04 2.81677L10.0456 34.6749H0V43.3445H13.0616C14.8712 43.3445 16.4952 42.2117 17.1448 40.524L24.708 20.3873L34.8928 74.4628C35.264 76.4048 36.888 77.8613 38.86 78C38.9528 78 39.0688 78 39.1616 78C41.0176 78 42.688 76.8209 43.2912 75.0408L55.9584 37.1255L61.0392 57.3547C61.48 59.1117 62.9648 60.4064 64.7744 60.6145C66.6304 60.7994 68.324 59.8746 69.136 58.2332L76.6296 43.2983H87V34.6286H73.9616V34.6517Z" fill="url(#paint0_linear)"/>
<defs>
<linearGradient id="paint0_linear" x1="43.5" y1="0" x2="43.5" y2="78" gradientUnits="userSpaceOnUse">
<stop stop-color="#3BC1CD"/>
<stop offset="1" stop-color="white" stop-opacity="0"/>
</linearGradient>
</defs>
</svg>
