<svg width="107" height="79" viewBox="0 0 107 79" fill="none" xmlns="http://www.w3.org/2000/svg">
<g clip-path="url(#clip0_90_101)">
<path fill-rule="evenodd" clip-rule="evenodd" d="M38.7417 35.6238L49.3842 37.9881C49.7967 38.0819 50.2111 38.125 50.618 38.125C53.123 38.125 55.3636 36.4413 55.9992 33.9006C56.5805 31.5813 55.5942 29.1775 53.663 27.8969L58.1574 27.2556L71.8411 30.9869C75.1336 31.8831 78.3755 29.4119 78.3755 25.9975C78.3755 23.83 77.0067 21.8781 74.9705 21.1375L59.6442 15.565C58.9017 15.2969 58.0955 15.1994 57.2986 15.2856C40.7836 17.1213 47.1586 17.905 28.313 11.9613C27.1074 11.5825 25.8755 12.4844 25.8755 13.75V26.8731C25.8755 27.52 26.2074 28.1219 26.7567 28.4631L36.7224 34.6863C37.3167 35.1381 38.0124 35.4625 38.7417 35.6238Z" fill="white"/>
<path fill-rule="evenodd" clip-rule="evenodd" d="M50.6179 38.1249C50.211 38.1249 49.7985 38.0818 49.3841 37.9881L38.7416 35.6256C38.0123 35.4624 37.3166 35.1399 36.7223 34.6862L26.7566 28.4649C25.8791 27.9156 25.611 26.7587 26.1585 25.8812C26.7079 25.0037 27.8648 24.7356 28.7423 25.2849L38.7885 31.5587C39.0904 31.7424 39.126 31.8681 39.5554 31.9637L50.196 34.3299C51.1635 34.5418 52.1198 33.9587 52.3635 32.9912C52.5829 32.1099 52.1141 31.1949 51.2723 30.8574L45.9848 28.7443C44.2073 28.0318 44.5223 25.4181 46.416 25.1481L58.011 23.4906C58.266 23.4531 58.5247 23.4699 58.7704 23.5374L72.8291 27.3699C73.2641 27.4881 73.7085 27.3999 74.0666 27.1281C74.421 26.8581 74.6254 26.4456 74.6254 25.9993C74.6254 25.4031 74.2504 24.8668 73.6898 24.6624L58.3654 19.0918C58.1591 19.0168 57.9416 18.9849 57.711 19.0131L44.361 20.4962C43.5566 20.5862 42.7335 20.4812 41.9704 20.1981L27.186 15.5387C26.1998 15.2274 25.6504 14.1756 25.9616 13.1874C26.2729 12.2012 27.3304 11.6499 28.3129 11.9631L43.1891 16.6543C43.4929 16.7668 43.7235 16.7968 43.9447 16.7706L57.2985 15.2856C58.0954 15.1993 58.9016 15.2968 59.6441 15.5668L74.9704 21.1374C77.0066 21.8781 78.3754 23.8318 78.3754 25.9974C78.3754 27.6231 77.6329 29.1231 76.3429 30.1093C75.0491 31.0956 73.4085 31.4143 71.841 30.9887L58.1572 27.2556L53.6629 27.8987C55.5941 29.1793 56.5804 31.5812 55.9991 33.9006C55.3635 36.4412 53.1229 38.1249 50.6179 38.1249Z" fill="white"/>
<path fill-rule="evenodd" clip-rule="evenodd" d="M57.3815 41.875C57.7884 41.875 58.2009 41.9181 58.6153 42.0119L69.2578 44.3744C69.9871 44.5375 70.6828 44.86 71.2771 45.3138L81.2428 51.535C82.1203 52.0844 82.3884 53.2413 81.8409 54.1188C81.2915 54.9963 80.1346 55.2644 79.2571 54.715L69.2109 48.4412C68.909 48.2575 68.8734 48.1319 68.444 48.0363L57.8034 45.67C56.8359 45.4581 55.8796 46.0413 55.6359 47.0088C55.4165 47.89 55.8853 48.805 56.7271 49.1425L62.0146 51.2556C63.7921 51.9681 63.4771 54.5819 61.5834 54.8519L49.9884 56.5094C49.7334 56.5469 49.4746 56.53 49.229 56.4625L35.1703 52.63C34.7353 52.5119 34.2909 52.6 33.9328 52.8719C33.5784 53.1419 33.374 53.5544 33.374 54.0006C33.374 54.5969 33.749 55.1331 34.3096 55.3375L49.634 60.9081C49.8403 60.9831 50.0578 61.015 50.2884 60.9869L63.6384 59.5037C64.4428 59.4137 65.2659 59.5188 66.029 59.8019L80.8134 64.4613C81.7996 64.7725 82.349 65.8244 82.0378 66.8125C81.7265 67.7987 80.669 68.35 79.6865 68.0369L64.8103 63.3456C64.5065 63.2331 64.2759 63.2031 64.0546 63.2294L50.7009 64.7144C49.904 64.8006 49.0978 64.7031 48.3553 64.4331L33.029 58.8625C30.9928 58.1219 29.624 56.1681 29.624 54.0025C29.624 52.3769 30.3665 50.8769 31.6565 49.8906C32.9503 48.9044 34.5909 48.5856 36.1584 49.0112L49.8421 52.7444L54.3365 52.1012C52.4053 50.8206 51.419 48.4188 52.0003 46.0994C52.6359 43.5588 54.8765 41.875 57.3815 41.875Z" fill="white"/>
</g>
<defs>
<clipPath id="clip0_90_101">
<rect width="58" height="58" fill="white" transform="translate(25 11)"/>
</clipPath>
</defs>
</svg>
