<svg width="32" height="32" viewBox="0 0 32 32" fill="none" xmlns="http://www.w3.org/2000/svg">
<path fill-rule="evenodd" clip-rule="evenodd" d="M16.9999 2.00126C16.9999 1.32526 17.6619 0.835261 18.3159 1.05226L30.3159 5.05126C30.7249 5.18826 30.9999 5.57026 30.9999 6.00026V26.0003C30.9999 26.4303 30.7249 26.8123 30.3159 26.9483L18.3159 30.9483C17.6639 31.1633 16.9999 30.6773 16.9999 29.9993V27.0003H8.9999C7.8969 27.0003 6.9999 26.1033 6.9999 25.0003V22.0003C6.9999 21.4473 7.4479 21.0003 7.9999 21.0003C8.5519 21.0003 8.9999 21.4473 8.9999 22.0003V25.0003H16.9999V7.00126H8.9999V10.0003C8.9999 10.5523 8.5519 11.0003 7.9999 11.0003C7.4479 11.0003 6.9999 10.5523 6.9999 10.0003V7.00126C6.9999 5.89826 7.8969 5.00126 8.9999 5.00126H16.9999V2.00126ZM18.9999 3.38826V28.6123L28.9999 25.2793V6.72126L18.9999 3.38826ZM5.705 12.293C6.096 12.684 6.096 13.317 5.705 13.708L4.412 15.001H13.998C14.55 15.001 14.998 15.448 14.998 16C14.998 16.552 14.55 17 13.998 17H4.412L5.705 18.293C6.096 18.684 6.096 19.316 5.705 19.707C5.314 20.098 4.682 20.098 4.291 19.707L1.291 16.708C0.901002 16.317 0.905002 15.679 1.291 15.293L4.291 12.293C4.682 11.903 5.314 11.903 5.705 12.293ZM23.9999 15C24.5529 15 24.9999 15.448 24.9999 16C24.9999 16.552 24.5529 17 23.9999 17H21.9999C21.4469 17 20.9999 16.552 20.9999 16C20.9999 15.448 21.4469 15 21.9999 15H23.9999Z" fill="#F6F6F6"/>
</svg>
