<svg width="107" height="79" viewBox="0 0 107 79" fill="none" xmlns="http://www.w3.org/2000/svg">
<g clip-path="url(#clip0_90_61)">
<path fill-rule="evenodd" clip-rule="evenodd" d="M29.625 38.125C29.625 43.9075 34.8881 48.4843 40.875 47.3162V28.9337C34.8881 27.7656 29.625 32.3425 29.625 38.125Z" fill="white"/>
<path fill-rule="evenodd" clip-rule="evenodd" d="M78.375 38.125C78.375 43.9075 73.1119 48.4843 67.125 47.3162V28.9337C73.1119 27.7656 78.375 32.3425 78.375 38.125Z" fill="white"/>
<path fill-rule="evenodd" clip-rule="evenodd" d="M70.875 43.4296V32.8209C73.0575 33.5952 74.625 35.6802 74.625 38.1252C74.625 40.5702 73.0575 42.6552 70.875 43.4296ZM67.125 27.5409C64.0294 23.7084 59.2987 21.2502 54 21.2502C48.7013 21.2502 43.9706 23.7084 40.875 27.5409V25.0002C40.875 19.8309 45.0806 15.6252 50.25 15.6252H57.75C62.9194 15.6252 67.125 19.8309 67.125 25.0002V27.5409ZM54 51.2502C46.7644 51.2502 40.875 45.3609 40.875 38.1252C40.875 30.8896 46.7644 25.0002 54 25.0002C61.2356 25.0002 67.125 30.8896 67.125 38.1252C67.125 45.3609 61.2356 51.2502 54 51.2502ZM54 64.3752C52.965 64.3752 52.125 63.5352 52.125 62.5002C52.125 61.4652 52.965 60.6252 54 60.6252C55.035 60.6252 55.875 61.4652 55.875 62.5002C55.875 63.5352 55.035 64.3752 54 64.3752ZM37.125 43.4296C34.9425 42.6552 33.375 40.5702 33.375 38.1252C33.375 35.6802 34.9425 33.5952 37.125 32.8209V43.4296ZM70.875 28.9396V25.0002C70.875 17.7646 64.9856 11.8752 57.75 11.8752H50.25C43.0144 11.8752 37.125 17.7646 37.125 25.0002V28.9396C32.8519 29.8096 29.625 33.599 29.625 38.1252C29.625 43.2946 33.8306 47.5002 39 47.5002C39.3075 47.5002 39.5869 47.4084 39.8419 47.2771C42.8531 51.9159 48.0694 55.0002 54 55.0002C59.2987 55.0002 64.0294 52.5402 67.125 48.7077V55.0002C67.125 58.1015 64.6012 60.6252 61.5 60.6252H59.2781C58.5019 58.4484 56.4413 56.8752 54 56.8752C50.8988 56.8752 48.375 59.399 48.375 62.5002C48.375 65.6015 50.8988 68.1252 54 68.1252C56.4413 68.1252 58.5019 66.5521 59.2781 64.3752H61.5C66.6694 64.3752 70.875 60.1696 70.875 55.0002V47.309C75.1481 46.439 78.375 42.6515 78.375 38.1252C78.375 33.599 75.1481 29.8096 70.875 28.9396Z" fill="white"/>
</g>
<defs>
<clipPath id="clip0_90_61">
<rect width="50" height="58" fill="white" transform="translate(29 11)"/>
</clipPath>
</defs>
</svg>
