<?xml version="1.0" encoding="utf-8"?>
<!-- Generator: Adobe Illustrator 26.0.0, SVG Export Plug-In . SVG Version: 6.00 Build 0)  -->
<svg version="1.1" id="Capa_1" xmlns="http://www.w3.org/2000/svg" xmlns:xlink="http://www.w3.org/1999/xlink" x="0px" y="0px"
	 viewBox="0 0 70 70" style="enable-background:new 0 0 70 70;" xml:space="preserve">
<g>
	<defs>
		<path id="SVGID_1_" d="M35.2,24.3c0.2,0,0.4-0.2,0.4-0.2l3.5-3.5c0,0,0,0,0.1-0.1c1.6-1.6,3.2-3.2,4.8-4.6
			c5.6-4.9,14.7-2.7,17.7,4.1c2,4.5,1.1,9.8-2.9,13.6c-2.4,2.3-4.8,4.6-7.2,7c-3.2,3.2-11,11.1-16.3,16.5
			c-5.4-5.4-13.4-13.4-16.5-16.5c-2.4-2.4-4.7-4.7-7.2-7C7.5,29.8,6.6,24.5,8.6,20c3-6.8,12-9,17.7-4.1c2.9,2.5,5.5,5.3,8.2,8
			c0.1,0.1,0.1,0.1,0.2,0.2c0,0,0.1,0.1,0.1,0.1c0,0,0,0,0.1,0c0,0,0.1,0,0.1,0C35,24.3,35.1,24.4,35.2,24.3
			C35.2,24.4,35.2,24.4,35.2,24.3 M38.5,12.4c-0.7,0.6-1.3,1.3-1.9,1.9c-0.3,0.3-0.8,0.7-1.1,1c-0.1,0.1-0.2,0.2-0.4,0.4l-1.8-1.9
			l0,0c-0.5-0.5-1-1-1.5-1.5c-5.5-5.3-11.9-6.8-19-4.1C5.6,11,1.8,16.5,1.3,24.1c-0.3,5,1.5,9.3,4.9,12.9c2.8,2.9,5.6,5.6,8.5,8.5
			c3,3,11.1,11,16.3,16.2c0,0.1,0.1,0.3,0.3,0.5c1,1,2,2,3,3.1c0.6,0.6,1,0.7,1.6,0c3.8-3.9,15.7-15.9,19.5-19.8
			c2.8-2.8,5.7-5.6,8.5-8.5c3.5-3.6,5.2-8,4.9-12.9C68.5,16.5,64.7,11,57.5,8.3C55.2,7.4,53,7,50.8,7C46.3,7,42.2,8.9,38.5,12.4"/>
	</defs>
	<use xlink:href="#SVGID_1_"  style="overflow:visible;fill:#F09705;"/>
	<clipPath id="SVGID_00000016788418920657492290000016845062193489493673_">
		<use xlink:href="#SVGID_1_"  style="overflow:visible;"/>
	</clipPath>
</g>
</svg>
