<?xml version="1.0" encoding="utf-8"?>
<!-- Generator: Adobe Illustrator 26.0.0, SVG Export Plug-In . SVG Version: 6.00 Build 0)  -->
<svg version="1.1" id="Capa_1" xmlns="http://www.w3.org/2000/svg" xmlns:xlink="http://www.w3.org/1999/xlink" x="0px" y="0px"
	 viewBox="0 0 407.5 86.3" style="enable-background:new 0 0 407.5 86.3;" xml:space="preserve">
<style type="text/css">
	.st0{fill:#5A5B5A;}
	.st1{fill:#D48F00;}
	
		.st2{clip-path:url(#SVGID_00000037675665115237723800000011807103401934859396_);fill:url(#SVGID_00000171695148426234553570000014272545150835956381_);}
</style>
<g>
	<path class="st0" d="M100,17.9h9.3l4.2,11.9c0.9,2.5,1.7,5,2.5,7.4h0.1c0.8-2.5,1.8-5.1,2.6-7.5l4.3-11.8h8.9l-11.6,30.4h-8.7
		L100,17.9z"/>
	<rect x="135.7" y="17.9" class="st0" width="8.6" height="30.4"/>
	<path class="st0" d="M150.8,17.9h8.7c6.3,0,11,1.1,14.3,3.5c3.4,2.5,5.2,6.6,5.2,11.8c0,4.5-1.4,8.3-4.3,11c-3,2.7-7.7,4.2-15,4.2
		h-8.9V17.9z M159.8,40.9c5.5,0,7.7-1.1,9-2.6c1.1-1.4,1.6-3.2,1.6-5.2c0-2.9-0.9-4.9-2.6-6.2c-1.8-1.4-4.6-1.7-8-1.7h-0.3v15.8
		H159.8z"/>
	<path class="st0" d="M192.5,17.9h8.5l12.3,30.4h-9.4l-2.1-6.2h-10.4l-2.2,6.2h-8.9L192.5,17.9z M196.6,27.1
		c-0.6,1.9-1.2,3.7-1.9,5.7l-1,2.9h5.9l-1-2.9C197.8,30.7,197.3,29,196.6,27.1L196.6,27.1z"/>
	<path class="st1" d="M232.9,17.4c3.1,0,5.8,0.8,8.1,1.9v2.9c-2.2-1.5-5.1-2.4-8.1-2.4c-7.9,0-13.3,5.8-13.3,13.3
		c0,7.4,5.3,13.3,13.4,13.3c3.2,0,6.1-1,8.5-2.6v2.9c-2.4,1.4-5.5,2.2-8.6,2.2c-9.4,0-15.9-6.8-15.9-15.6
		C217.1,24.5,223.4,17.4,232.9,17.4"/>
	<path class="st1" d="M258.6,17.9h2.4l12.7,30.4H271l-3.7-9.1h-14.9l-3.7,9.1h-2.6L258.6,17.9z M263.2,29.3
		c-1.1-2.8-2.3-5.6-3.4-8.4h-0.1c-1,2.6-2.1,5.2-3.4,8.3l-3.1,7.6h13L263.2,29.3z M259.6,14.9h-1.9l3.6-6.9h2.7L259.6,14.9z"/>
	<path class="st1" d="M286.7,28.8c-1.5-2.2-3.1-4.5-4.5-6.6l-0.1,0c0,2.4,0,5.1,0,7.8v18.3h-2.5V17.9h2.5l11.8,17l11.8-17h2.5v30.4
		h-2.6V30c0-2.6,0-5.3,0-7.8l-0.1,0c-1.4,2.1-3,4.4-4.5,6.6l-7.2,10.3L286.7,28.8z"/>
	<path class="st1" d="M326.7,17.9h2.4l12.7,30.4h-2.8l-3.7-9.1h-14.9l-3.7,9.1h-2.6L326.7,17.9z M331.3,29.3
		c-1.1-2.8-2.3-5.6-3.4-8.4h-0.1c-1.1,2.6-2.1,5.2-3.4,8.3l-3.1,7.6h13L331.3,29.3z"/>
	<path class="st1" d="M347.8,17.9h8.1c3.5,0,6.3,0.4,8.4,1.8c2.1,1.3,3.5,3.5,3.5,6.5c0,2.8-1.3,5-3.2,6.4c-1.4,1-3,1.5-4.9,1.8
		l10.2,13.8h-3.1l-9.9-13.6h-6.5v13.6h-2.6V17.9z M356.7,32.5c3.1,0,5.2-0.5,6.6-1.8c1.3-1.1,1.9-2.6,1.9-4.4c0-2.2-1-3.7-2.5-4.7
		c-1.6-1.1-3.6-1.4-7-1.4h-5.4v12.3H356.7z"/>
	<path class="st1" d="M385.6,17.9h2.4l12.7,30.4H398l-3.7-9.1h-14.9l-3.7,9.1H373L385.6,17.9z M390.2,29.3c-1.1-2.8-2.3-5.6-3.4-8.4
		h-0.1c-1,2.6-2.1,5.2-3.4,8.3l-3.1,7.6h13L390.2,29.3z"/>
	<path class="st0" d="M273.7,76.2c1.2,0.9,2.8,1.3,3.9,1.3c1.6,0,2.7-0.7,2.7-2.2c0-1.7-1.6-2-3.3-2.5c-1.9-0.5-3.7-1.3-3.7-3.7
		c0-2.3,1.7-3.7,4.3-3.7c1.2,0,2.7,0.3,3.8,1v1.8c-1.2-0.8-2.7-1.2-3.8-1.2c-1.5,0-2.5,0.6-2.5,2c0,1.6,1.5,1.9,3.1,2.4
		c1.9,0.5,3.8,1.3,3.8,3.8c0,2.4-1.8,3.8-4.4,3.8c-1.3,0-2.8-0.3-3.9-1V76.2z"/>
	<path class="st0" d="M291.7,65.5c3.8,0,6.7,3,6.7,6.8c0,3.8-2.9,6.8-6.7,6.8c-3.8,0-6.7-3-6.7-6.8C285,68.5,287.9,65.5,291.7,65.5
		 M291.7,77.5c2.9,0,5-2.3,5-5.2c0-2.9-2.1-5.2-5-5.2c-2.9,0-5,2.3-5,5.2C286.7,75.2,288.8,77.5,291.7,77.5"/>
	<path class="st0" d="M305.6,71.2c-0.6-0.9-1.2-1.7-1.8-2.6l0,0c0,0.8,0,1.8,0,2.9v7.5h-1.7V65.7h1.7l4.7,6.7l4.7-6.7h1.7v13.2h-1.7
		v-7.5c0-1.1,0-2.1,0-2.9l0,0c-0.6,0.9-1.2,1.8-1.8,2.6l-2.9,4.1L305.6,71.2z"/>
	<path class="st0" d="M325.2,65.5c3.8,0,6.7,3,6.7,6.8c0,3.8-2.9,6.8-6.7,6.8c-3.8,0-6.7-3-6.7-6.8
		C318.5,68.5,321.4,65.5,325.2,65.5 M325.2,77.5c2.9,0,5-2.3,5-5.2c0-2.9-2.1-5.2-5-5.2c-2.9,0-5,2.3-5,5.2
		C320.3,75.2,322.4,77.5,325.2,77.5"/>
	<path class="st0" d="M335.3,76.2c1.2,0.9,2.8,1.3,3.9,1.3c1.6,0,2.7-0.7,2.7-2.2c0-1.7-1.6-2-3.3-2.5c-1.9-0.5-3.7-1.3-3.7-3.7
		c0-2.3,1.7-3.7,4.3-3.7c1.2,0,2.7,0.3,3.8,1v1.8c-1.2-0.8-2.7-1.2-3.8-1.2c-1.5,0-2.5,0.6-2.5,2c0,1.6,1.5,1.9,3.1,2.4
		c1.9,0.5,3.8,1.3,3.8,3.8c0,2.4-1.8,3.8-4.4,3.8c-1.3,0-2.8-0.3-3.9-1V76.2z"/>
	<path class="st0" d="M358.5,65.5c1.3,0,2.6,0.3,3.7,0.8v2.9c-1-0.7-2.3-1.2-3.7-1.2c-2.6,0-4.3,1.8-4.3,4.2c0,2.4,1.7,4.2,4.4,4.2
		c1.4,0,2.6-0.5,3.7-1.2v3c-1.1,0.6-2.6,0.9-3.9,0.9c-4.3,0-7.2-2.9-7.2-6.8C351.3,68.5,354.2,65.5,358.5,65.5"/>
	<path class="st0" d="M372,65.5c1.3,0,2.6,0.3,3.7,0.8v2.9c-1-0.7-2.3-1.2-3.7-1.2c-2.6,0-4.3,1.8-4.3,4.2c0,2.4,1.7,4.2,4.4,4.2
		c1.4,0,2.6-0.5,3.7-1.2v3c-1.1,0.6-2.6,0.9-3.9,0.9c-4.3,0-7.2-2.9-7.2-6.8C364.8,68.5,367.8,65.5,372,65.5"/>
	<path class="st0" d="M378.9,64.9h2.8v5.8l0,0c0.7-0.5,1.6-1,2.7-1c0.9,0,1.8,0.3,2.4,0.9c0.5,0.6,0.8,1.4,0.8,2.7v5.6h-2.8v-5.2
		c0-0.7-0.1-1-0.3-1.3c-0.2-0.3-0.6-0.4-0.9-0.4c-0.7,0-1.4,0.4-1.9,0.8v6h-2.8V64.9z"/>
	<path class="st0" d="M397.6,65.5c1.3,0,2.6,0.3,3.7,0.8v2.9c-1-0.7-2.3-1.2-3.7-1.2c-2.6,0-4.3,1.8-4.3,4.2c0,2.4,1.7,4.2,4.4,4.2
		c1.4,0,2.6-0.5,3.7-1.2v3c-1.1,0.6-2.6,0.9-3.9,0.9c-4.3,0-7.2-2.9-7.2-6.8C390.4,68.5,393.4,65.5,397.6,65.5"/>
	<g>
		<defs>
			<path id="SVGID_1_" d="M50.3,29c0.3,0,0.5-0.3,0.5-0.3l4.2-4.3c0,0,0-0.1,0.1-0.1c1.9-1.9,3.8-3.8,5.9-5.6
				c6.8-5.9,17.7-3.3,21.4,4.9c2.4,5.4,1.4,11.8-3.6,16.4c-2.9,2.8-5.8,5.6-8.7,8.5c-3.8,3.8-13.3,13.5-19.7,20
				c-6.5-6.5-16.2-16.2-20-20c-2.9-2.9-5.7-5.7-8.7-8.5c-4.9-4.6-6-11-3.6-16.4c3.6-8.2,14.6-10.8,21.4-4.9c3.5,3,6.6,6.4,9.9,9.7
				c0.1,0.1,0.2,0.2,0.2,0.2c0,0,0.1,0.1,0.1,0.1c0,0,0.1,0,0.1,0c0,0,0.1,0,0.1,0.1c0.1,0,0.1,0.1,0.2,0.1C50.3,29,50.3,29,50.3,29
				 M54.3,14.6c-0.8,0.8-1.6,1.5-2.3,2.3c-0.4,0.4-0.9,0.9-1.3,1.2c-0.1,0.1-0.3,0.3-0.5,0.5L48,16.3l0,0c-0.6-0.6-1.2-1.2-1.8-1.8
				c-4.5-4.3-9.5-6.6-15-6.6c-2.6,0-5.3,0.5-8,1.5c-8.7,3.3-13.3,10-13.8,19.2c-0.4,6,1.8,11.3,6,15.6c3.4,3.5,6.8,6.8,10.2,10.2
				c3.7,3.7,22.6,22.6,23.7,23.9c0.7,0.8,1.2,0.9,2,0c4.6-4.7,18.9-19.2,23.6-23.9c3.4-3.4,6.9-6.8,10.2-10.2
				c4.2-4.3,6.3-9.6,6-15.6C90.5,19.5,86,12.8,77.3,9.6c-2.8-1-5.4-1.5-8-1.5C63.8,8,58.8,10.3,54.3,14.6"/>
		</defs>
		<clipPath id="SVGID_00000142163934620598540470000002433389424064367268_">
			<use xlink:href="#SVGID_1_"  style="overflow:visible;"/>
		</clipPath>
		
			<linearGradient id="SVGID_00000074420841491924978650000013200650786428078765_" gradientUnits="userSpaceOnUse" x1="-148.1467" y1="355.8116" x2="-147.1467" y2="355.8116" gradientTransform="matrix(81.8177 0 0 81.8177 12130.3438 -29068.0059)">
			<stop  offset="0" style="stop-color:#BA453E"/>
			<stop  offset="0.4263" style="stop-color:#C86C1E"/>
			<stop  offset="0.785" style="stop-color:#D18508"/>
			<stop  offset="0.9996" style="stop-color:#D48F00"/>
			<stop  offset="1" style="stop-color:#D48F00"/>
		</linearGradient>
		
			<rect x="9" y="8" style="clip-path:url(#SVGID_00000142163934620598540470000002433389424064367268_);fill:url(#SVGID_00000074420841491924978650000013200650786428078765_);" width="82.5" height="71.3"/>
	</g>
</g>
</svg>
