<svg width="1500" height="1500" viewBox="0 0 1500 1500" fill="none" xmlns="http://www.w3.org/2000/svg">
<path d="M754.286 520.714C758.572 520.714 762.857 516.429 762.857 516.429L837.857 441.429C837.857 441.429 837.857 441.429 840 439.286C874.286 405 908.572 370.714 942.857 340.714C1062.86 235.714 1257.86 282.857 1322.14 428.572C1365 525 1345.71 638.571 1260 720C1208.57 769.286 1157.14 818.571 1105.71 870C1037.14 938.571 870 1107.86 756.429 1223.57C640.714 1107.86 469.286 936.429 402.857 870C351.429 818.571 302.143 769.286 248.571 720C160.714 638.571 141.429 525 184.286 428.572C248.571 282.857 441.429 235.714 563.571 340.714C625.714 394.286 681.429 454.286 739.286 512.143C741.429 514.286 741.429 514.286 743.572 516.429L745.714 518.572C745.714 518.572 745.714 518.572 747.857 518.572H750C750 520.714 752.143 522.857 754.286 520.714C754.286 522.857 754.286 522.857 754.286 520.714ZM825 265.714C810 278.572 797.143 293.572 784.286 306.429C777.857 312.857 767.143 321.429 760.714 327.857C758.572 330 756.429 332.143 752.143 336.429L713.571 295.714C702.857 285 692.143 274.286 681.429 263.572C563.571 150 426.429 117.857 274.286 175.714C120 235.714 38.5713 353.572 27.857 516.429C21.4285 623.571 59.9999 715.714 132.857 792.857C192.857 855 252.857 912.857 315 975C379.286 1039.29 552.857 1210.71 664.286 1322.14C664.286 1324.29 666.429 1328.57 670.714 1332.86C692.143 1354.29 713.571 1375.71 735 1399.29C747.857 1412.14 756.429 1414.29 769.286 1399.29C850.714 1315.71 1105.71 1058.57 1187.14 975C1247.14 915 1309.29 855 1369.29 792.857C1444.29 715.714 1480.71 621.429 1474.29 516.429C1467.86 353.572 1386.43 235.714 1232.14 177.857C1182.86 158.572 1135.71 150 1088.57 150C992.143 150 904.286 190.714 825 265.714Z" fill="#F09705" fill-opacity="0.2"/>
</svg>
