<svg width="17" height="16" viewBox="0 0 17 16" fill="none" xmlns="http://www.w3.org/2000/svg">
<path d="M16.5299 8C16.5299 12.4183 13.0284 16 8.70902 16C4.38968 16 0.888184 12.4183 0.888184 8C0.888184 3.58171 4.38968 0 8.70902 0C13.0284 0 16.5299 3.58171 16.5299 8ZM7.80439 12.2359L13.6069 6.30045C13.804 6.0989 13.804 5.7721 13.6069 5.57055L12.8934 4.84064C12.6963 4.63906 12.3769 4.63906 12.1798 4.84064L7.44759 9.68123L5.23824 7.42126C5.0412 7.21971 4.72172 7.21971 4.52465 7.42126L3.81109 8.15116C3.61406 8.35271 3.61406 8.67952 3.81109 8.88106L7.0908 12.2359C7.28786 12.4375 7.60732 12.4375 7.80439 12.2359Z" fill="#008FF7"/>
</svg>
