<svg width="217" height="109" viewBox="0 0 217 109" fill="none" xmlns="http://www.w3.org/2000/svg">
<path d="M13.1605 54.9636C5.15258 54.9636 0.0566406 50.5956 0.0566406 43.6797H8.42855C8.42855 46.5916 10.6125 48.0476 13.5245 48.0476C16.0725 48.0476 17.8925 46.9556 17.8925 44.7717C17.8925 42.5877 14.9805 41.8597 11.7045 41.4957C6.60857 40.7677 0.420631 39.3117 0.420631 31.6678C0.420631 25.8438 5.51658 21.4759 13.1605 21.4759C20.8044 21.4759 25.9004 25.8438 25.9004 32.0318H17.8925C17.8925 29.4838 16.0725 28.3918 13.1605 28.3918C10.6125 28.3918 8.79255 29.4838 8.79255 31.3038C8.79255 33.4878 11.3405 33.8518 14.6165 34.5798C19.7124 35.6717 26.2644 36.7637 26.2644 44.4077C26.6284 50.9596 21.1684 54.9636 13.1605 54.9636Z" fill="#0071B9"/>
<path d="M61.2074 38.2198C61.2074 38.9478 61.2074 40.0398 61.2074 40.7678H37.1837C37.9117 45.1357 40.8236 47.3197 44.8276 47.3197C47.7396 47.3197 50.2875 45.8637 51.3795 43.6797H60.4794C57.9314 50.5957 52.1075 54.9636 44.8276 54.9636C35.3637 54.9636 28.4478 47.6837 28.4478 38.2198C28.4478 28.7559 35.3637 21.476 44.8276 21.476C54.2915 21.476 61.2074 29.1199 61.2074 38.2198ZM37.1837 34.9438H52.4715C51.3795 30.9399 48.4676 28.7559 44.8276 28.7559C40.8236 28.7559 38.2757 30.9399 37.1837 34.9438Z" fill="#0071B9"/>
<path d="M95.7887 22.5679V50.5957C95.7887 60.4236 89.6008 66.6115 79.7729 66.6115C71.4009 66.6115 65.213 62.2435 63.757 54.9636H72.1289C73.2209 57.8756 76.4969 59.3316 79.4089 59.3316C83.7768 59.3316 87.4168 56.4196 87.4168 52.0516V50.5957C84.8688 52.4156 81.9568 53.5076 78.3169 53.5076C69.581 53.5076 62.665 46.5917 62.665 37.4918C62.665 28.7559 69.581 21.476 78.3169 21.476C82.3208 21.476 85.9608 22.9319 88.8728 25.4799L90.3288 22.2039H95.7887V22.5679ZM87.4168 37.4918C87.4168 32.7598 84.1408 29.4839 79.4089 29.4839C74.6769 29.4839 71.4009 32.7598 71.4009 37.4918C71.4009 42.2237 74.6769 45.4997 79.4089 45.4997C84.1408 45.8637 87.4168 42.2237 87.4168 37.4918Z" fill="#0071B9"/>
<path d="M101.247 40.7679V22.5681H109.619V39.6759C109.619 44.0439 112.167 46.9559 115.807 46.9559C119.811 46.9559 121.995 44.0439 121.995 39.6759V22.5681H130.367V40.7679C130.367 49.1398 124.543 54.9638 115.443 54.9638C107.071 54.9638 101.247 49.5038 101.247 40.7679Z" fill="#0071B9"/>
<path d="M154.028 22.2038V30.2117H150.388C145.656 30.2117 143.836 32.3957 143.836 37.4916V54.2355H135.464V22.5678H140.924L142.38 26.5718C144.564 23.6598 147.476 22.5678 151.48 22.5678H154.028V22.2038Z" fill="#0071B9"/>
<path d="M154.755 38.2198C154.755 28.7559 162.035 21.476 171.863 21.476C181.691 21.476 188.971 28.7559 188.971 38.2198C188.971 47.6837 181.691 54.9636 171.863 54.9636C162.035 54.9636 154.755 47.6837 154.755 38.2198ZM180.235 38.2198C180.235 33.1238 176.595 29.4839 171.863 29.4839C166.767 29.4839 163.491 33.1238 163.491 38.2198C163.491 43.3157 167.131 46.9557 171.863 46.9557C176.595 46.9557 180.235 43.3157 180.235 38.2198Z" fill="#0071B9"/>
<path d="M203.896 54.9636C195.888 54.9636 190.792 50.5957 190.792 43.6797H199.164C199.164 46.5917 201.348 48.0477 204.26 48.0477C206.808 48.0477 208.628 46.9557 208.628 44.7717C208.628 42.5877 205.716 41.8597 202.44 41.4957C197.344 40.7678 191.156 39.3118 191.156 31.6678C191.156 25.8439 196.252 21.476 203.896 21.476C211.54 21.476 216.636 25.8439 216.636 32.0318H208.628C208.628 29.4839 206.808 28.3919 203.896 28.3919C201.348 28.3919 199.528 29.4839 199.528 31.3039C199.528 33.4878 202.076 33.8518 205.352 34.5798C210.448 35.6718 217 36.7638 217 44.4077C217 50.9597 211.904 54.9636 203.896 54.9636Z" fill="#0071B9"/>
<path d="M0.0566406 8.00801C0.0566406 5.09604 2.24062 3.27606 4.78859 3.27606C6.97257 3.27606 8.79255 4.73205 9.52054 6.55203H8.06455C7.33656 5.46004 6.24457 4.73205 4.78859 4.73205C2.96861 4.73205 1.51262 6.18803 1.51262 8.37201C1.51262 10.192 2.96861 12.012 4.78859 12.012C6.24457 12.012 7.33656 11.284 8.06455 9.828H9.52054C8.79255 12.012 6.97257 13.104 4.78859 13.104C2.24062 13.104 0.0566406 10.92 0.0566406 8.00801Z" fill="#323E48"/>
<path d="M18.6191 8.00812C18.6191 5.09615 20.8031 2.91217 23.7151 2.91217C26.6271 2.91217 28.811 5.09615 28.811 8.00812C28.811 10.9201 26.6271 13.1041 23.7151 13.1041C20.8031 13.1041 18.6191 10.9201 18.6191 8.00812ZM23.7151 11.6481C25.8991 11.6481 27.3551 10.1921 27.3551 8.00812C27.3551 5.82414 25.8991 4.36816 23.7151 4.36816C21.5311 4.36816 20.0751 5.82414 20.0751 8.00812C20.0751 10.1921 21.5311 11.6481 23.7151 11.6481Z" fill="#323E48"/>
<path d="M43.7351 3.27606V4.73205H42.6431C40.8231 4.73205 40.0952 5.82404 40.0952 7.64402V12.74H38.6392V3.27606H39.7311L40.0952 4.73205C40.4591 3.64006 41.5511 3.27606 43.0071 3.27606H43.7351Z" fill="#323E48"/>
<path d="M58.2947 3.27606V4.73205H57.2027C55.3827 4.73205 54.6547 5.82404 54.6547 7.64402V12.74H53.1987V3.27606H54.2907L54.6547 4.73205C55.0187 3.64006 56.1107 3.27606 57.5667 3.27606H58.2947Z" fill="#323E48"/>
<path d="M76.4976 8.73611H68.4897C68.8537 10.5561 69.9457 11.6481 71.7657 11.6481C73.2216 11.6481 73.9496 10.9201 74.6776 10.1921H76.1336C75.4056 12.0121 73.5856 13.1041 71.7657 13.1041C68.8537 13.1041 67.0337 10.9201 67.0337 8.00812C67.0337 5.09615 69.2177 2.91217 71.7657 2.91217C74.6776 2.91217 76.4976 5.09615 76.4976 8.00812C76.4976 8.37211 76.4976 8.37211 76.4976 8.73611ZM71.7657 4.36816C69.9457 4.36816 68.8537 5.46014 68.4897 6.91613H75.0416C74.6776 5.46014 73.2216 4.36816 71.7657 4.36816Z" fill="#323E48"/>
<path d="M95.4241 0V12.7399H94.3321L93.9681 11.2839C93.2401 12.3759 91.7841 12.7399 90.3281 12.7399C87.4162 12.7399 85.5962 10.5559 85.5962 7.64392C85.5962 4.73195 87.7802 2.54797 90.3281 2.54797C91.7841 2.54797 92.8761 2.91197 93.9681 4.00396V0H95.4241ZM93.9681 8.00792C93.9681 6.18794 92.5121 4.36796 90.3281 4.36796C88.1442 4.36796 86.6882 5.82394 86.6882 8.00792C86.6882 10.1919 88.1442 11.6479 90.3281 11.6479C92.5121 11.6479 93.9681 10.1919 93.9681 8.00792Z" fill="#323E48"/>
<path d="M105.616 8.00812C105.616 5.09615 107.8 2.91217 110.712 2.91217C113.624 2.91217 115.808 5.09615 115.808 8.00812C115.808 10.9201 113.624 13.1041 110.712 13.1041C107.8 13.1041 105.616 10.9201 105.616 8.00812ZM110.712 11.6481C112.896 11.6481 114.352 10.1921 114.352 8.00812C114.352 5.82414 112.896 4.36816 110.712 4.36816C108.528 4.36816 107.072 5.82414 107.072 8.00812C107.072 10.1921 108.528 11.6481 110.712 11.6481Z" fill="#323E48"/>
<path d="M130.732 3.27606V4.73205H129.64C127.82 4.73205 127.092 5.82404 127.092 7.64402V12.74H125.636V3.27606H126.728L127.092 4.73205C127.456 3.64006 128.548 3.27606 130.004 3.27606H130.732Z" fill="#323E48"/>
<path d="M148.931 8.73601H140.923C141.287 10.556 142.379 11.648 144.199 11.648C145.655 11.648 146.383 10.92 147.111 10.192H148.567C147.839 12.012 146.019 13.104 144.199 13.104C141.287 13.104 139.467 10.92 139.467 8.00801C139.467 5.09604 141.287 3.27606 144.199 3.27606C147.111 3.27606 148.931 5.46004 148.931 8.37201C148.931 8.37201 148.931 8.37201 148.931 8.73601ZM144.199 4.36805C142.379 4.36805 141.287 5.46004 140.923 6.91602H147.475C147.111 5.46004 145.655 4.36805 144.199 4.36805Z" fill="#323E48"/>
<path d="M158.033 9.8281H159.489C159.489 10.9201 160.581 11.6481 162.037 11.6481C163.493 11.6481 164.221 10.9201 164.221 10.1921C164.221 9.10011 163.129 8.73611 161.673 8.73611C160.217 8.37211 158.397 8.00812 158.397 5.82414C158.397 4.36815 159.853 2.91217 162.037 2.91217C164.221 2.91217 165.677 4.00416 165.677 5.82414H164.221C164.221 4.73215 163.493 4.36816 162.037 4.36816C160.581 4.36816 159.853 4.73215 159.853 5.82414C159.853 6.91613 160.945 6.91613 162.037 7.28013C163.493 7.64412 165.677 8.00812 165.677 10.1921C165.677 12.0121 164.221 13.1041 162.037 13.1041C159.489 13.1041 158.033 11.6481 158.033 9.8281Z" fill="#323E48"/>
<path d="M196.98 0V12.7399H195.888L195.524 11.2839C194.796 12.3759 193.34 12.7399 191.884 12.7399C188.972 12.7399 187.152 10.5559 187.152 7.64392C187.152 4.73195 189.336 2.54797 191.884 2.54797C193.34 2.54797 194.432 2.91197 195.524 4.00396V0H196.98ZM195.524 8.00792C195.524 6.18794 194.068 4.36796 191.884 4.36796C189.7 4.36796 188.244 5.82394 188.244 8.00792C188.244 10.1919 189.7 11.6479 191.884 11.6479C194.068 11.6479 195.524 10.1919 195.524 8.00792Z" fill="#323E48"/>
<path d="M216.636 8.73611H208.628C208.628 10.5561 210.084 11.6481 211.904 11.6481C213.36 11.6481 214.088 10.9201 214.816 10.1921H216.272C215.544 12.0121 213.724 13.1041 211.904 13.1041C208.992 13.1041 207.172 10.9201 207.172 8.00812C207.172 5.09615 209.356 2.91217 211.904 2.91217C214.816 2.91217 216.636 5.09615 216.636 8.00812C216.636 8.37211 216.636 8.37211 216.636 8.73611ZM211.904 4.36816C210.084 4.36816 208.992 5.46014 208.628 6.91613H215.18C214.816 5.46014 213.36 4.36816 211.904 4.36816Z" fill="#323E48"/>
<path d="M180.606 62.8303L216.642 62.8303V59.5543L180.606 59.5543V62.8303Z" fill="#2E8147"/>
<path d="M144.38 62.8303L180.416 62.8303V59.5543L144.38 59.5543V62.8303Z" fill="#0071B9"/>
<path d="M108.507 62.8303L144.542 62.8303V59.5543L108.507 59.5543V62.8303Z" fill="#009ADE"/>
<path d="M0.1968 62.8303L36.2324 62.8303V59.5543L0.1968 59.5543V62.8303Z" fill="#F5333F"/>
<path d="M10.2501 77.1672C10.2501 77.1672 7.70216 85.5391 6.24617 92.091L5.51818 94.639C5.15419 95.731 5.88218 95.731 5.88218 95.731H10.6141L9.52214 99.7349H4.42619C4.42619 99.7349 1.87822 99.7349 0.786229 98.6429C-0.30576 97.5509 0.0582409 96.095 0.0582409 95.367C0.0582409 94.639 2.24221 86.6311 2.24221 86.6311L5.15419 76.8032H10.2501V77.1672Z" fill="#0071B9"/>
<path d="M26.2666 89.5429C25.1746 90.9989 24.8106 93.9109 25.5386 95.7309C26.6306 97.5508 30.2705 97.5508 32.0905 96.4589C33.9105 95.0029 34.6385 90.6349 35.3665 88.0869C32.4545 85.175 27.7226 86.995 26.2666 89.5429ZM42.6464 77.1671L39.0064 92.0909C36.8225 99.7348 28.8145 100.099 28.8145 100.099C24.4466 100.463 20.4426 98.6428 20.0786 94.6389C19.3506 86.267 28.4505 80.807 36.0945 84.083C36.4585 81.535 37.5504 79.351 37.9144 77.1671H42.6464Z" fill="#0071B9"/>
<path d="M50.2882 90.271C52.4722 90.271 56.1121 89.543 55.3841 87.3591C55.0201 86.2671 52.4722 85.9031 51.3802 86.2671C49.1962 86.6311 47.7402 88.451 46.6482 89.907C47.3762 90.271 48.8322 90.271 50.2882 90.271ZM45.5562 92.819C44.8282 98.2789 52.8362 97.5509 55.3841 95.367C55.0201 96.459 55.0201 97.9149 54.6561 99.3709C48.4682 101.191 41.1883 100.099 40.4603 94.275C39.7323 87.3591 45.5562 83.7191 51.3802 83.3551C54.6561 82.9911 58.6601 83.7191 59.7521 86.2671C60.4801 87.723 59.7521 89.543 59.0241 90.635C56.8401 93.183 50.2882 93.911 45.5562 92.819Z" fill="#0071B9"/>
<path d="M75.4064 83.3553L73.9504 86.9952C72.4945 86.6312 72.1305 85.9032 70.3105 85.9032C65.5785 86.2672 64.4865 92.0912 63.7586 96.8231L63.3945 99.7351H58.6626C60.1186 94.2752 61.2106 88.4512 62.6666 82.9913C64.1226 82.9913 65.9425 82.9913 67.3985 82.9913L67.0345 84.4473C69.2185 83.7193 72.4945 82.6273 75.4064 83.3553Z" fill="#0071B9"/>
<path d="M20.8077 83.7191C19.7157 89.1791 18.2597 94.639 16.8037 100.463H12.0718C13.1638 96.095 14.2558 91.727 14.9837 87.3591H12.4358L13.1638 83.7191H20.8077Z" fill="#0071B9"/>
<path d="M21.5354 79.3511C21.5354 81.1711 20.0794 81.8991 18.6234 81.8991C16.8034 81.8991 15.7114 80.8071 15.7114 79.3511C15.7114 77.8951 17.1674 76.8032 18.6234 76.8032C20.0794 76.8032 21.5354 77.8951 21.5354 79.3511Z" fill="#005D9B"/>
<path d="M98.3373 82.2632C99.4293 82.2632 100.157 81.8992 100.157 81.1712L101.249 70.9793C101.249 69.8873 100.157 69.1593 98.7013 69.1593C97.2453 69.1593 96.1533 69.8873 96.1533 70.9793L97.2453 81.1712C96.5173 81.8992 97.6093 82.2632 98.3373 82.2632Z" fill="#FFB71B"/>
<path d="M92.8767 85.539C93.2407 84.8111 93.2407 83.7191 92.8767 83.3551L84.5048 77.5311C83.7768 77.1671 82.3208 77.5311 81.5928 78.9871C80.8648 80.4431 80.8648 81.8991 81.9568 82.2631L91.4207 86.631C91.4207 86.631 92.1487 86.267 92.8767 85.539Z" fill="#FFB71B"/>
<path d="M103.797 85.539C104.161 86.267 104.889 86.631 105.617 86.631L115.081 82.2631C115.809 81.8991 116.173 80.4431 115.445 78.9871C114.717 77.5311 113.261 77.1671 112.533 77.5311L104.161 83.3551C103.433 83.7191 103.433 84.8111 103.797 85.539Z" fill="#FFB71B"/>
<path d="M98.3373 95.3668C99.4293 95.3668 100.157 95.7308 100.157 96.4588L101.249 106.651C101.249 107.743 100.157 108.471 98.7013 108.471C97.2453 108.471 96.1533 107.743 96.1533 106.651L97.2453 96.4588C96.5173 95.7308 97.6093 95.3668 98.3373 95.3668Z" fill="#FFB71B"/>
<path d="M103.797 92.091C104.161 91.363 104.889 90.999 105.617 90.999L115.081 95.367C115.809 95.731 116.173 97.187 115.445 98.6429C114.717 100.099 113.261 100.463 112.533 100.099L104.161 94.275C103.433 93.547 103.433 92.819 103.797 92.091Z" fill="#FFB71B"/>
<path d="M92.8767 92.0912C93.2407 92.8191 93.2407 93.9111 92.8767 94.2751L84.5048 100.099C83.7768 100.463 82.3208 100.099 81.5928 98.6431C80.8648 97.1871 80.8648 95.7311 81.9568 95.3671L91.4207 90.9992C91.4207 90.6352 92.1487 90.9992 92.8767 92.0912Z" fill="#FFB71B"/>
<path d="M118.356 98.6429C118.72 98.6429 118.72 98.6429 119.084 99.0069C119.448 99.0069 119.448 99.3709 119.812 99.7349C119.812 100.099 120.176 100.099 120.176 100.463C120.176 100.827 120.176 100.827 119.812 101.191C119.812 101.555 119.448 101.555 119.448 101.919C119.084 101.919 119.084 102.283 118.72 102.283C117.992 101.555 117.628 101.555 117.628 101.555C117.264 101.555 117.264 101.191 116.9 100.827C116.9 100.463 116.536 100.463 116.536 100.099C116.536 99.7349 116.536 99.7349 116.9 99.3709C116.9 99.0069 117.264 99.0069 117.628 98.6429C117.628 98.6429 117.992 98.6429 118.356 98.6429ZM118.356 99.0069C117.992 99.0069 117.992 99.0069 117.628 99.0069C117.264 99.0069 117.264 99.3709 117.264 99.3709C117.264 99.7349 117.264 99.7349 117.264 100.099C117.264 100.463 117.264 100.463 117.264 100.827C117.264 101.191 117.628 101.191 117.628 101.191C117.992 101.191 117.992 101.191 118.356 101.191C118.72 101.191 118.72 101.191 119.084 101.191C119.448 101.191 119.448 100.827 119.448 100.827C119.448 100.463 119.448 100.463 119.448 100.099C119.448 99.7349 119.448 99.7349 119.448 99.3709C119.448 99.0069 119.084 99.0069 119.084 99.0069C118.72 99.0069 118.356 99.0069 118.356 99.0069ZM117.628 101.191V99.7349H118.356C118.72 99.7349 118.72 99.7349 118.72 99.7349C118.72 99.7349 118.72 99.7349 119.084 99.7349C119.084 99.7349 119.084 99.7349 119.084 100.099V100.463H118.72C118.72 100.463 118.72 100.463 119.084 100.827L119.448 101.191H119.084V100.827C119.084 100.463 118.72 100.463 118.72 100.463C118.72 100.463 118.72 100.463 118.356 100.463L117.628 101.191ZM117.992 100.099C118.356 100.099 118.72 100.099 118.72 100.099C118.72 100.099 118.72 100.099 118.356 100.099H117.992Z" fill="#FFB71B"/>
<path d="M142.015 99.3711C142.015 101.191 143.471 102.283 144.927 102.647C145.291 102.647 145.291 102.647 145.655 102.647C146.747 102.647 147.475 102.283 148.203 101.555C148.931 100.827 149.295 100.099 149.295 99.0071C149.295 96.4591 150.751 94.6391 152.571 92.8192C154.755 91.3632 157.666 89.5432 161.67 86.9952C166.766 84.0833 170.406 80.8073 171.134 78.2593C171.134 77.8953 171.134 77.5313 171.134 77.1673C171.134 75.3473 169.678 74.2554 168.222 73.8914C167.858 73.8914 167.858 73.8914 167.494 73.8914C166.402 73.8914 165.674 74.2554 164.946 74.9834C164.218 75.7113 163.854 76.4393 163.854 77.5313C163.854 80.0793 162.398 81.8993 160.214 84.0833C155.482 87.7232 151.479 89.5432 151.479 89.5432C146.383 92.4552 142.743 95.7311 142.015 98.2791C142.015 98.6431 142.015 99.0071 142.015 99.3711Z" fill="#F5333F"/>
<path d="M162.762 88.4514C162.762 88.4514 166.402 89.5434 165.31 94.6393C165.31 95.0033 165.31 95.3673 165.31 95.3673C165.31 96.8233 166.766 97.9153 168.222 97.9153C169.678 97.9153 170.77 96.4593 170.77 95.0033C170.406 91.3633 163.49 86.6314 162.762 86.9954C162.762 86.9954 162.398 86.9954 162.034 87.7234C162.398 88.4514 162.762 88.4514 162.762 88.4514Z" fill="#2E8147"/>
<path d="M161.67 90.2711C161.67 90.2711 164.218 90.9991 163.49 94.2751C163.49 94.2751 162.762 97.5511 157.302 98.2791C151.478 99.371 151.478 97.1871 151.478 97.1871C151.478 96.0951 151.114 94.6391 156.938 91.3631C156.938 91.3631 159.85 89.5431 161.67 90.2711Z" fill="#FFD600"/>
<path d="M147.475 74.2554C147.839 78.9873 154.755 84.4473 158.759 86.9952C159.851 87.7232 161.307 87.3592 161.671 87.3592C163.491 86.6312 161.671 85.9032 161.671 85.9032C161.671 85.9032 155.119 84.0833 157.303 75.3474C157.303 74.9834 157.303 74.2554 157.303 73.8914C156.939 71.3434 154.755 69.1594 152.207 69.5234C149.295 69.1594 147.111 71.7074 147.475 74.2554Z" fill="#0071B9"/>
<path d="M211.537 100.099H215.905V80.8074H211.537V100.099ZM213.721 78.6234C215.177 78.6234 216.269 77.5314 216.269 76.0754C216.269 74.6195 215.177 73.5275 213.721 73.5275C212.265 73.5275 211.173 74.6195 211.173 76.0754C211.537 77.5314 212.629 78.6234 213.721 78.6234ZM191.153 92.4553C191.153 90.2713 190.425 88.0873 188.605 86.6313C189.697 85.1753 190.425 83.7194 190.425 81.8994C190.425 77.8954 188.241 74.6195 182.053 74.6195H173.317V99.7352H182.053C188.969 100.099 191.153 96.8232 191.153 92.4553ZM178.049 79.7154H182.417C185.329 79.7154 185.693 81.1714 185.693 82.2634C185.693 83.7194 184.965 85.1753 182.781 85.1753H178.049V79.7154ZM178.049 89.5433H182.781C185.693 89.5433 186.421 90.6353 186.421 92.8193C186.421 94.2753 185.693 96.0952 182.417 96.0952H178.049V89.5433ZM202.437 96.0952C199.525 96.0952 197.341 93.5473 197.341 90.6353C197.341 87.7233 199.525 85.1753 202.437 85.1753C203.893 85.1753 204.985 85.9033 206.441 86.9953L209.353 83.7194C207.897 82.2634 205.713 80.8074 202.437 80.8074C196.977 80.8074 192.609 85.1753 192.609 90.6353C192.609 96.0952 196.977 100.463 202.437 100.463C204.985 100.463 207.533 99.3712 209.353 97.5512L206.077 94.6393C204.985 95.7312 203.893 96.0952 202.437 96.0952Z" fill="#241E24"/>
<path d="M97.6105 59.3315C97.2465 60.4235 96.5185 61.5155 95.7905 62.6075H108.894V59.3315H97.6105Z" fill="#FFB71B"/>
<path d="M61.9375 59.3315H36.0938V62.6075H63.7575C63.0295 61.8795 62.3015 60.4235 61.9375 59.3315Z" fill="#FFD600"/>
</svg>
