<svg width="89" height="45" viewBox="0 0 89 45" fill="none" xmlns="http://www.w3.org/2000/svg">
<path d="M82.552 28.8397C83.4059 28.8397 84.0677 28.5835 84.516 28.0498C84.9003 27.6015 85.0924 26.9824 85.0924 26.2139C85.0924 25.4454 84.9003 24.8263 84.516 24.378C84.0677 23.8443 83.4059 23.5881 82.552 23.5881H70.704V28.8824H82.552V28.8397ZM83.043 20.7062C85.5834 20.7062 87.3339 21.5387 88.2946 23.1825C88.7642 24.0151 88.9991 25.0184 88.9991 26.1712C88.9991 28.5622 88.0811 30.1632 86.2238 31.0172C85.3059 31.4441 84.2598 31.6576 83.0217 31.6576H70.6826V38.4035H66.9468V20.6848H83.043V20.7062Z" fill="#004E91"/>
<path d="M24.6569 34.6036C23.2907 34.6036 22.202 34.2193 21.4121 33.4722C20.6222 32.725 20.238 31.679 20.238 30.3127C20.238 28.9678 20.6222 27.9217 21.4121 27.1746C22.202 26.4274 23.248 26.0431 24.6143 26.0431H37.1027V25.3814C37.1027 24.4634 36.7612 23.9084 36.078 23.7162C35.8645 23.6522 35.5443 23.6308 35.1174 23.6308H21.1346V20.7062H36.0353C37.5083 20.7062 38.6825 21.0904 39.5364 21.859C40.0701 22.3286 40.433 22.905 40.6251 23.5241C40.7532 23.9937 40.8172 25.2319 40.8172 26.0858V34.5823L24.6569 34.6036ZM37.1027 31.6576V28.8397H25.1693C24.3794 28.8397 23.9952 29.3093 23.9952 30.27C23.9952 31.2093 24.3794 31.6576 25.1693 31.6576H37.1027Z" fill="#004E91"/>
<path d="M63.2748 0.532506C63.595 -0.727015 49.6762 -0.534885 47.9897 10.075C46.3032 20.6635 61.5669 26.4488 61.8445 25.3387C61.8445 25.3387 59.8378 22.7129 59.5602 20.6848C59.24 18.6781 59.1546 17.6961 59.1546 17.6961C59.1546 17.6961 57.7243 18.5928 54.5222 16.8209C51.32 15.049 51.0638 12.7862 51.1278 12.7862C51.1919 12.7862 53.1345 10.7581 54.7356 10.0963C56.3581 9.43454 57.5535 9.45589 57.5535 9.45589C57.5535 9.45589 57.1693 7.91885 57.703 6.16833C58.6209 3.26503 63.2748 0.532506 63.2748 0.532506Z" fill="#FBB908"/>
<path d="M63.0614 3.99085C63.0614 3.99085 64.8759 6.61664 64.8973 7.81211C64.8973 9.05029 63.8726 11.3345 63.9793 11.6974C64.0647 12.039 66.2208 9.66937 68.0781 9.66937C70.1915 9.71207 71.4084 11.5266 71.4084 11.5266C71.4084 11.5266 69.6578 15.2198 68.7185 15.2838C67.7579 15.3479 64.8546 14.9423 64.6624 15.1131C64.513 15.2838 66.3489 17.7175 65.5804 18.9343C64.8546 20.1725 61.9299 21.7522 61.9299 21.7522C61.9299 21.7522 60.8198 19.8309 60.6918 18.5928C60.5637 17.3973 60.8412 14.6434 61.012 14.3659C61.2041 14.067 59.4322 16.9917 57.4255 16.1591C55.4188 15.3265 52.9638 13.2558 52.9638 13.2558C52.9638 13.2558 56.2514 11.121 56.9559 11.057C57.6604 10.9502 59.7738 10.8862 59.7738 10.8862C59.7738 10.8862 58.9412 8.79411 59.4536 7.66268C59.4109 6.18968 62.6771 3.73468 63.0614 3.99085Z" fill="#004E91"/>
<path d="M69.0385 6.63794C70.2767 6.63794 71.3227 5.57055 71.3227 4.26834C71.3227 2.94477 70.2767 1.87738 69.0385 1.87738C67.8004 1.87738 66.7543 2.94477 66.7543 4.26834C66.7543 5.57055 67.8004 6.63794 69.0385 6.63794Z" fill="#FBB908"/>
<path d="M17.2704 20.7062V23.6095H7.83465C7.55713 23.6095 7.30095 23.6308 7.08747 23.6522C6.93804 23.6949 6.76726 23.7803 6.57513 23.9297C6.25491 24.2286 6.08413 24.6982 6.08413 25.3387V25.9577L17.2704 25.915V28.8397L6.08413 28.8824V38.3822H2.34826V28.8824H0V25.9577H2.34826V24.4207C2.34826 23.7589 2.4123 23.2252 2.51904 22.7983C2.64713 22.35 2.88195 21.9444 3.26622 21.5601C3.62913 21.1972 4.03474 20.941 4.48304 20.8556C4.91 20.7489 5.44369 20.7062 6.08413 20.7062H17.2704Z" fill="#004E91"/>
<path d="M2.45471 43.2281C2.45471 44.3596 2.0918 44.6584 1.43002 44.6584C1.19519 44.6584 1.02441 44.6157 0.896321 44.5517L0.81093 44.8506C0.939017 44.9146 1.19519 44.9786 1.43002 44.9786C2.15584 44.9786 2.81762 44.6157 2.81762 43.3135V39.7698H2.45471V43.2281Z" fill="#004E91"/>
<path d="M6.76703 41.2428H6.40412V43.527C6.40412 43.6764 6.38277 43.8259 6.34008 43.9326C6.19064 44.2955 5.78503 44.6798 5.25134 44.6798C4.52551 44.6798 4.29069 44.1034 4.29069 43.3135V41.2641H3.92777V43.3776C3.92777 44.7438 4.71764 45 5.16595 45C5.80638 45 6.23334 44.5944 6.40412 44.2528H6.42547L6.44682 44.9146H6.78838C6.76703 44.6371 6.76703 44.3382 6.76703 44.018V41.2428Z" fill="#004E91"/>
<path d="M7.984 44.8933H8.34691V42.6304C8.34691 42.5237 8.36826 42.3956 8.38961 42.3102C8.53904 41.8405 8.966 41.4563 9.47835 41.4563C10.2255 41.4563 10.4817 42.054 10.4817 42.7372V44.8933H10.8446V42.6945C10.8446 41.3282 9.92665 41.1574 9.56374 41.1574C8.966 41.1574 8.49635 41.4776 8.30422 41.9046H8.28287L8.26152 41.2428H7.91996C7.94131 41.5417 7.94131 41.7765 7.94131 42.1181V44.8933H7.984Z" fill="#004E91"/>
<path d="M12.1684 40.5597V41.2214H11.5494V41.5203H12.1684V43.8259C12.1684 44.1888 12.2325 44.509 12.4033 44.7011C12.5314 44.8719 12.7662 44.9573 13.0224 44.9573C13.2358 44.9573 13.4066 44.9146 13.5347 44.8719L13.492 44.5944C13.4066 44.6158 13.2572 44.6371 13.0651 44.6371C12.6808 44.6371 12.5314 44.3382 12.5314 43.8899V41.5417H13.5774V41.2428H12.5314V40.4316L12.1684 40.5597Z" fill="#004E91"/>
<path d="M15.6904 44.6798C14.9432 44.6798 14.3669 43.9967 14.3669 43.0787C14.3669 42.2888 14.7938 41.4563 15.7118 41.4563C16.6724 41.4563 17.0567 42.3742 17.0567 43.036C17.0567 43.9753 16.4589 44.6798 15.6904 44.6798ZM15.6904 44.9787C16.5016 44.9787 17.4409 44.4023 17.4409 43.036C17.4409 41.9259 16.7578 41.1574 15.7545 41.1574C14.8579 41.1574 14.0253 41.8405 14.0253 43.1001C14.0039 44.2315 14.7298 44.9787 15.6904 44.9787Z" fill="#004E91"/>
<path d="M18.0387 44.7225C18.2736 44.8719 18.6151 44.9787 18.9567 44.9787C19.7039 44.9787 20.1949 44.5517 20.1949 43.9326C20.1949 43.3776 19.8533 43.0787 19.2556 42.8439C18.7646 42.6304 18.5084 42.481 18.5084 42.0967C18.5084 41.7551 18.7432 41.4563 19.2129 41.4563C19.5758 41.4563 19.8106 41.5844 19.9387 41.6697L20.0668 41.3709C19.8747 41.2428 19.5971 41.136 19.2556 41.136C18.5511 41.136 18.1241 41.5843 18.1241 42.118C18.1241 42.5663 18.4443 42.8866 19.0421 43.1214C19.5758 43.3349 19.8106 43.5483 19.8106 43.954C19.8106 44.3382 19.5331 44.6371 18.9567 44.6371C18.6365 44.6371 18.3376 44.509 18.1241 44.3809L18.0387 44.7225Z" fill="#004E91"/>
<path d="M25.1693 44.445C24.9772 44.5304 24.6997 44.6585 24.2513 44.6585C23.3974 44.6585 22.7997 44.0394 22.7997 43.0787C22.7997 42.2248 23.312 41.4776 24.2727 41.4776C24.6783 41.4776 24.9558 41.5844 25.1266 41.6911L25.2547 41.3922C25.1266 41.2855 24.7423 41.1574 24.294 41.1574C23.2053 41.1574 22.4154 41.9473 22.4154 43.1001C22.4154 44.1888 23.1199 44.9573 24.166 44.9573C24.6997 44.9573 25.0839 44.8079 25.2333 44.7225L25.1693 44.445Z" fill="#004E91"/>
<path d="M27.4959 44.6798C26.7487 44.6798 26.1723 43.9967 26.1723 43.0787C26.1723 42.2888 26.5993 41.4563 27.5172 41.4563C28.4779 41.4563 28.8621 42.3742 28.8621 43.036C28.8621 43.9753 28.2644 44.6798 27.4959 44.6798ZM27.4959 44.9787C28.3071 44.9787 29.2464 44.4023 29.2464 43.036C29.2464 41.9259 28.5632 41.1574 27.5599 41.1574C26.6633 41.1574 25.8307 41.8405 25.8307 43.1001C25.8094 44.2315 26.5352 44.9787 27.4959 44.9787Z" fill="#004E91"/>
<path d="M30.143 44.8933H30.5059V42.6304C30.5059 42.5237 30.5272 42.3956 30.5486 42.3102C30.698 41.8405 31.125 41.4563 31.6373 41.4563C32.3845 41.4563 32.6407 42.054 32.6407 42.7372V44.8933H33.0036V42.6945C33.0036 41.3282 32.0856 41.1574 31.7227 41.1574C31.125 41.1574 30.6553 41.4776 30.4632 41.9046H30.4418L30.4205 41.2428H30.0789C30.1003 41.5417 30.1003 41.7765 30.1003 42.1181V44.8933H30.143Z" fill="#004E91"/>
<path d="M34.3274 40.5597V41.2214H33.7083V41.5203H34.3274V43.8259C34.3274 44.1888 34.3915 44.509 34.5622 44.7011C34.6903 44.8719 34.9251 44.9573 35.1813 44.9573C35.3948 44.9573 35.5656 44.9146 35.6937 44.8719L35.651 44.5944C35.5656 44.6158 35.4161 44.6371 35.224 44.6371C34.8398 44.6371 34.6903 44.3382 34.6903 43.8899V41.5417H35.7364V41.2428H34.6903V40.4316L34.3274 40.5597Z" fill="#004E91"/>
<path d="M36.5047 44.8933H36.8676V42.8866C36.8676 42.7585 36.8676 42.6518 36.889 42.545C36.9957 41.9686 37.3373 41.5203 37.8496 41.5203C37.9136 41.5203 37.9777 41.5203 38.0204 41.5203V41.1788C37.9777 41.1788 37.9136 41.1574 37.871 41.1574C37.38 41.1574 36.9957 41.5203 36.8463 41.9686H36.8249L36.8036 41.2215H36.462C36.4833 41.5844 36.4833 41.9473 36.4833 42.3102V44.8933H36.5047Z" fill="#004E91"/>
<path d="M40.6462 43.7191C40.6462 43.7832 40.6463 43.8686 40.6036 43.9326C40.4755 44.2955 40.1339 44.6585 39.5148 44.6585C39.1306 44.6585 38.789 44.4236 38.789 43.8899C38.789 43.0147 39.835 42.8866 40.6462 42.9079V43.7191ZM41.0092 42.5877C41.0092 41.9473 40.7957 41.1574 39.7496 41.1574C39.4294 41.1574 39.0025 41.2428 38.6823 41.4776L38.789 41.7338C39.0452 41.5417 39.3867 41.4563 39.7069 41.4563C40.5822 41.4563 40.6462 42.1821 40.6462 42.5237V42.6304C39.1519 42.6091 38.4261 43.1214 38.4261 43.9753C38.4261 44.4663 38.7676 44.9787 39.4935 44.9787C40.0699 44.9787 40.4755 44.6585 40.6676 44.3596H40.6889L40.7316 44.8933H41.0732C41.0305 44.6158 41.0305 44.3169 41.0305 44.018V42.5877H41.0092Z" fill="#004E91"/>
<path d="M43.8486 42.7371C43.9126 42.1821 44.2542 41.4562 45.0654 41.4562C45.9407 41.4562 46.1541 42.2248 46.1541 42.7371H43.8486ZM46.5171 43.036C46.5384 42.9719 46.5384 42.9079 46.5384 42.8225C46.5384 42.2888 46.3036 41.1787 45.1081 41.1787C44.1688 41.1787 43.4643 41.9472 43.4643 43.1641C43.4643 44.2314 44.1261 45 45.1721 45C45.8126 45 46.1755 44.8505 46.3249 44.7651L46.2395 44.4876C46.0261 44.5944 45.7699 44.7011 45.2362 44.7011C44.489 44.7011 43.8486 44.2314 43.8486 43.0787H46.5171V43.036Z" fill="#004E91"/>
<path d="M47.7977 39.4922H47.4348V44.8932H47.7977V39.4922Z" fill="#004E91"/>
<path d="M53.0708 44.2528C52.8786 44.3382 52.6225 44.4236 52.2595 44.4236C51.5337 44.4236 50.9787 43.8899 50.9787 43.036C50.9787 42.2675 51.427 41.6484 52.2809 41.6484C52.6438 41.6484 52.9 41.7338 53.0494 41.8192L53.1988 41.3068C53.0067 41.2001 52.6651 41.1147 52.2809 41.1147C51.0854 41.1147 50.2955 41.9472 50.2955 43.0787C50.2955 44.2101 51.0214 44.9573 52.1314 44.9573C52.6224 44.9573 53.0067 44.8292 53.1988 44.7438L53.0708 44.2528Z" fill="#004E91"/>
<path d="M55.483 39.6204L54.8213 40.7091H55.2909L56.2089 39.6204H55.483ZM55.8887 43.6551C55.8887 43.7191 55.8887 43.7832 55.8673 43.8686C55.7606 44.1888 55.4403 44.4877 54.9707 44.4877C54.6291 44.4877 54.3516 44.2955 54.3516 43.8472C54.3516 43.1428 55.1842 42.9933 55.91 43.0147V43.6551H55.8887ZM56.5291 42.6304C56.5291 41.9046 56.2516 41.1361 55.1201 41.1361C54.6505 41.1361 54.2022 41.2641 53.9033 41.4563L54.0527 41.9046C54.3089 41.7338 54.6718 41.6271 55.0134 41.6271C55.7606 41.6271 55.846 42.1821 55.846 42.481V42.5664C54.4156 42.5664 53.6258 43.036 53.6258 43.9326C53.6258 44.4663 54.01 45 54.7572 45C55.2909 45 55.6752 44.7438 55.8887 44.445H55.91L55.9527 44.9146H56.5504C56.5077 44.6584 56.5077 44.3596 56.5077 44.0394V42.6304H56.5291Z" fill="#004E91"/>
<path d="M57.5966 44.8932H58.2584V42.6731C58.2584 42.5663 58.2798 42.4383 58.3011 42.3529C58.4292 41.9899 58.7708 41.6697 59.1977 41.6697C59.8382 41.6697 60.0516 42.1607 60.0516 42.7585V44.8719H60.7134V42.6731C60.7134 41.4136 59.9236 41.1147 59.4112 41.1147C58.7921 41.1147 58.3865 41.4562 58.1944 41.7978L58.1517 41.1787H57.5539C57.5753 41.4776 57.5753 41.7978 57.5753 42.1821V44.8932H57.5966Z" fill="#004E91"/>
<path d="M64.2996 44.2528C64.1075 44.3382 63.8513 44.4236 63.4884 44.4236C62.7626 44.4236 62.2075 43.8899 62.2075 43.036C62.2075 42.2675 62.6558 41.6484 63.5097 41.6484C63.8727 41.6484 64.1288 41.7338 64.2783 41.8192L64.4277 41.3068C64.2356 41.2001 63.894 41.1147 63.5097 41.1147C62.3143 41.1147 61.5244 41.9472 61.5244 43.0787C61.5244 44.2101 62.2502 44.9573 63.3603 44.9573C63.8513 44.9573 64.2356 44.8292 64.4277 44.7438L64.2996 44.2528Z" fill="#004E91"/>
<path d="M65.4951 42.6944C65.5378 42.2248 65.8366 41.6057 66.5198 41.6057C67.2669 41.6057 67.4591 42.2675 67.4377 42.6944H65.4951ZM68.0782 43.1641C68.0995 43.0787 68.0995 42.9933 68.0995 42.8439C68.0995 42.1607 67.7793 41.1147 66.5838 41.1147C65.5164 41.1147 64.8546 41.9899 64.8546 43.1C64.8546 44.2101 65.5378 44.9573 66.6692 44.9573C67.2456 44.9573 67.6726 44.8292 67.9074 44.7225L67.7793 44.2528C67.5445 44.3596 67.2456 44.4449 66.7546 44.4449C66.0715 44.4449 65.5164 44.082 65.4951 43.1641H68.0782Z" fill="#004E91"/>
<path d="M68.9109 44.8932H69.5726V42.9292C69.5726 42.8225 69.5726 42.7158 69.594 42.609C69.6794 42.0967 70.021 41.7551 70.4906 41.7551C70.576 41.7551 70.6614 41.7551 70.7254 41.7765V41.136C70.6614 41.136 70.6187 41.1147 70.5333 41.1147C70.085 41.1147 69.6794 41.4349 69.5086 41.9259H69.4873L69.4659 41.2001H68.8682C68.8895 41.5416 68.8895 41.9046 68.8895 42.3529V44.8932H68.9109Z" fill="#004E91"/>
<path d="M50.7439 34.6036C47.8832 34.6036 46.0473 33.4508 45.2361 31.1239C44.9159 30.2273 44.7665 29.288 44.7665 28.306V20.7062H48.8225V27.9217C48.8225 28.8824 49.1214 29.6509 49.7192 30.206C50.1888 30.6543 50.8719 30.8677 51.7685 30.8677H63.4458V34.6036H50.7439Z" fill="#004E91"/>
</svg>
