<svg width="36" height="24" viewBox="0 0 36 24" fill="none" xmlns="http://www.w3.org/2000/svg">
<path fill-rule="evenodd" clip-rule="evenodd" d="M35.4448 3.007C35.4448 1.59132 34.2897 0.439941 32.87 0.439941H2.57432C1.15463 0.439941 0 1.59132 0 3.007V21.4329C0 22.8481 1.15463 23.9999 2.57432 23.9999H32.87C34.2897 23.9999 35.4448 22.8481 35.4448 21.4329V12.2194L33.8829 13.7929V21.4147C33.8829 21.9805 33.4235 22.4386 32.8561 22.4386H2.58963C2.02226 22.4386 1.56244 21.9801 1.56244 21.4147V3.02095C1.56244 2.45561 2.02226 1.99751 2.58963 1.99751H32.8561C33.4235 1.99751 33.8829 2.45561 33.8829 3.02095V10.6601L35.4448 12.2192V3.007Z" fill="white" fill-opacity="0.2"/>
<path d="M12.1926 10.5596C12.1926 10.4545 12.2121 10.3523 12.2497 10.2636C12.2925 10.1682 12.3467 10.0838 12.4178 10.0145C12.4898 9.94315 12.5715 9.88658 12.6651 9.84816C12.8573 9.76582 13.0813 9.76498 13.2782 9.84858C13.3701 9.88615 13.4543 9.94231 13.5242 10.0162C13.5949 10.0833 13.65 10.1678 13.6906 10.2653C13.7317 10.3548 13.7528 10.454 13.7528 10.5592V12.0192H14.4341V10.5592C14.4341 10.3569 14.393 10.1678 14.3177 9.99678C14.2444 9.81776 14.1369 9.6628 14.0044 9.53529C13.8714 9.40145 13.7152 9.29463 13.5382 9.22286C13.1952 9.06875 12.7616 9.06621 12.4047 9.22286C12.2286 9.29421 12.0706 9.40145 11.9352 9.53529C11.8069 9.6628 11.7023 9.81733 11.6244 9.99678C11.5511 10.169 11.5151 10.3573 11.5151 10.5592V12.0192H12.1939V10.5596H12.1926Z" fill="white" fill-opacity="0.2"/>
<path d="M11.0935 9.53576C10.9487 9.39347 10.7861 9.28412 10.6061 9.21699C10.2501 9.0709 9.86772 9.0709 9.50613 9.21699C9.32787 9.2837 9.16571 9.39347 9.02344 9.53576C8.88202 9.67678 8.77363 9.83849 8.70631 10.0145C8.63433 10.1931 8.59961 10.3751 8.59961 10.5596C8.59961 10.7458 8.63433 10.9291 8.70631 11.111C8.77363 11.2871 8.8816 11.4497 9.02344 11.5924C9.16147 11.73 9.32067 11.8377 9.49681 11.9099C9.67464 11.9829 9.86264 12.0201 10.0587 12.0201C10.2539 12.0201 10.4419 11.9833 10.6172 11.9099C10.795 11.8377 10.9538 11.7304 11.0935 11.5924L11.3293 11.3542L10.8483 10.8746L10.6108 11.111C10.4863 11.2364 10.3449 11.3086 10.1781 11.3357C10.1408 11.3416 10.1019 11.3441 10.065 11.3441C9.97399 11.3441 9.88762 11.3276 9.79997 11.2955L11.3289 9.77262L11.0935 9.53576ZM10.1307 10.0065L9.32067 10.8151C9.28892 10.7344 9.27452 10.6474 9.27452 10.5596C9.27452 10.3439 9.35031 10.164 9.50613 10.0091C9.62892 9.88789 9.77033 9.81569 9.92954 9.7912C9.96934 9.78571 10.0091 9.7836 10.0485 9.7836C10.1395 9.7836 10.228 9.7988 10.3136 9.82962C10.2649 9.8786 10.2035 9.93771 10.1307 10.0065Z" fill="white" fill-opacity="0.2"/>
<path d="M6.59294 10.0145C6.67 9.94108 6.75765 9.88282 6.85207 9.84313C7.04345 9.76755 7.24711 9.76755 7.43849 9.84313C7.5346 9.88282 7.6214 9.94108 7.69888 10.0167L7.94531 10.2523L8.41995 9.77178L8.18072 9.53576C8.03719 9.39347 7.87248 9.28412 7.6938 9.21699C7.33814 9.0709 6.95411 9.0709 6.59337 9.21699C6.41765 9.28412 6.25464 9.39347 6.11153 9.53576C5.96715 9.67467 5.86299 9.83849 5.79355 10.0145C5.72369 10.1931 5.68896 10.3785 5.68896 10.5668C5.68896 10.7513 5.72369 10.935 5.79355 11.1106C5.86299 11.2867 5.96757 11.4501 6.11153 11.5919C6.25337 11.7325 6.41596 11.8419 6.59506 11.9166C6.77543 11.9859 6.96173 12.0192 7.14634 12.0192C7.33094 12.0192 7.51512 11.9859 7.69169 11.9166C7.87248 11.8423 8.03719 11.733 8.18072 11.5919L8.41995 11.3534L7.94531 10.8742L7.69634 11.1106C7.62521 11.1891 7.53841 11.2457 7.44568 11.2833C7.35084 11.3221 7.25134 11.3411 7.14634 11.3411C6.92955 11.3411 6.74791 11.2668 6.59421 11.1106C6.51546 11.0338 6.45999 10.9489 6.42146 10.8531C6.38336 10.7585 6.36261 10.6597 6.36261 10.5592C6.36261 10.4613 6.38251 10.3616 6.42146 10.2662C6.45618 10.1729 6.51461 10.0901 6.59294 10.0145Z" fill="white" fill-opacity="0.2"/>
<path d="M21.5846 9.7861H23.3329V9.10718H21.5846C21.4602 9.10718 21.3408 9.13251 21.2286 9.18022C21.1227 9.22624 21.0287 9.28873 20.9491 9.36726C20.8674 9.44748 20.803 9.54459 20.7543 9.65479C20.7086 9.76077 20.687 9.87899 20.687 10.0019C20.687 10.1256 20.7082 10.2438 20.7543 10.3578C20.803 10.4621 20.8674 10.5575 20.9495 10.6423C21.0274 10.7217 21.1219 10.788 21.2286 10.8361C21.3408 10.8805 21.4602 10.9033 21.5846 10.9033H22.7033C22.7706 10.9033 22.8214 10.924 22.865 10.9649C22.9069 11.0067 22.9273 11.0565 22.9273 11.1199C22.9273 11.1857 22.9069 11.2381 22.865 11.2799C22.8214 11.3192 22.7706 11.3415 22.7033 11.3415H20.961V12.0196H22.7033C22.829 12.0196 22.9455 11.996 23.0534 11.9537C23.1631 11.9048 23.2618 11.8389 23.3392 11.7595C23.4252 11.6755 23.49 11.5788 23.5344 11.4733C23.5827 11.3631 23.6081 11.2427 23.6081 11.1203C23.6081 10.9949 23.5831 10.8771 23.5344 10.7732C23.4895 10.6622 23.4248 10.5638 23.3392 10.4857C23.2609 10.4055 23.1627 10.3422 23.0534 10.3004C22.9467 10.2505 22.8286 10.2256 22.7033 10.2256H21.5846C21.5224 10.2256 21.4712 10.2045 21.4314 10.164C21.3878 10.118 21.3679 10.0673 21.3679 10.0023C21.3679 9.94147 21.3878 9.89081 21.4276 9.84859C21.4707 9.80594 21.5207 9.7861 21.5846 9.7861Z" fill="white" fill-opacity="0.2"/>
<path d="M15.5479 10.0145C15.6266 9.94102 15.7113 9.88275 15.8057 9.84307C15.998 9.76707 16.2033 9.76707 16.3943 9.84307C16.49 9.88275 16.5768 9.9406 16.6543 10.0162L16.8994 10.2518L17.3728 9.77129L17.1348 9.53527C16.9926 9.39298 16.8279 9.28363 16.6483 9.2165C16.2922 9.07041 15.9112 9.07041 15.5504 9.2165C15.3701 9.28363 15.2075 9.39298 15.0652 9.53527C14.9229 9.67671 14.8167 9.838 14.7485 10.0141C14.6791 10.1927 14.6431 10.378 14.6431 10.5663C14.6431 10.7512 14.6791 10.9345 14.7485 11.1101C14.8171 11.2862 14.9229 11.4487 15.0652 11.5915C15.2075 11.7333 15.3701 11.8414 15.5504 11.9161C15.7295 11.9854 15.9171 12.0192 16.1026 12.0192C16.2863 12.0192 16.4705 11.9858 16.6471 11.9161C16.8279 11.8418 16.9926 11.7333 17.1348 11.5915L17.3728 11.3533L16.8994 10.8737L16.653 11.1101C16.5797 11.1887 16.4963 11.2452 16.4006 11.2828C16.3049 11.3217 16.2042 11.3407 16.1021 11.3407C15.8832 11.3407 15.7033 11.2663 15.5475 11.1101C15.4708 11.0333 15.4149 10.9484 15.3751 10.8526C15.3366 10.758 15.3167 10.6592 15.3167 10.5587C15.3167 10.4608 15.3366 10.362 15.3751 10.2657C15.4154 10.1728 15.4713 10.0901 15.5479 10.0145Z" fill="white" fill-opacity="0.2"/>
<path d="M26.0564 10.5596C26.0564 10.666 26.0348 10.769 25.9929 10.8653C25.9561 10.9607 25.8997 11.0451 25.8265 11.1182C25.7583 11.187 25.6758 11.2427 25.5801 11.2837C25.3887 11.361 25.1554 11.3593 24.9708 11.2862C24.8776 11.2432 24.793 11.1862 24.7218 11.1203C24.6536 11.0456 24.5961 10.9611 24.5546 10.8657C24.5156 10.772 24.497 10.6689 24.497 10.56V9.10718H23.8145V10.56C23.8145 10.7597 23.853 10.9497 23.9267 11.1266C24.0037 11.3023 24.11 11.4598 24.2387 11.5928C24.3729 11.7266 24.5296 11.833 24.7087 11.9103C24.8848 11.9833 25.0754 12.0205 25.2727 12.0205C25.4768 12.0205 25.6669 11.9833 25.8409 11.9103C26.0162 11.8334 26.1728 11.7266 26.3088 11.5928C26.4425 11.4598 26.5471 11.3014 26.6204 11.1266C26.6991 10.9497 26.7385 10.7601 26.7385 10.56V9.10718H26.0564V10.5596V10.5596Z" fill="white" fill-opacity="0.2"/>
<path d="M29.1873 7.99005L29.1877 9.1068H28.412C28.2122 9.1068 28.0203 9.14649 27.8463 9.22333C27.6672 9.29553 27.5097 9.40193 27.3768 9.53577C27.2425 9.66286 27.1371 9.81781 27.0575 9.99683C26.9843 10.1691 26.9453 10.3574 26.9453 10.5592C26.9453 10.7589 26.9843 10.9489 27.0575 11.1258C27.1371 11.3015 27.2425 11.459 27.3755 11.592C27.5101 11.7258 27.6672 11.8322 27.8463 11.9095C28.0203 11.9825 28.2122 12.0197 28.412 12.0197C28.6097 12.0197 28.799 11.9825 28.9781 11.9095C29.1555 11.8326 29.3109 11.7258 29.4405 11.592C29.5743 11.459 29.6776 11.3019 29.7508 11.1258C29.8296 10.9489 29.8681 10.7594 29.8681 10.5592V7.98962H29.1873V7.99005ZM29.1877 10.5596C29.1877 10.6665 29.1665 10.7691 29.1233 10.8653C29.0844 10.9607 29.0302 11.0456 28.9565 11.1182C28.8879 11.1871 28.8045 11.2428 28.7088 11.2837C28.5276 11.361 28.2939 11.3593 28.1059 11.2863C28.0089 11.2432 27.9238 11.1862 27.8514 11.1203C27.7832 11.0456 27.7257 10.9612 27.685 10.8657C27.6461 10.772 27.6278 10.669 27.6278 10.5601C27.6278 10.4537 27.6461 10.3528 27.685 10.2641C27.7261 10.1687 27.7815 10.0842 27.8514 10.015C27.9238 9.94363 28.0089 9.88832 28.1059 9.84863C28.2016 9.80895 28.3053 9.78657 28.412 9.78657H29.1877V10.5596Z" fill="white" fill-opacity="0.2"/>
<path d="M18.4492 11.9095C18.6236 11.9825 18.8146 12.0197 19.0136 12.0197C19.216 12.0197 19.4065 11.9825 19.5818 11.9095C19.7558 11.8326 19.9146 11.725 20.0463 11.592C20.1805 11.459 20.2864 11.3006 20.3596 11.1263C20.4388 10.9489 20.4769 10.7594 20.4769 10.5597C20.4769 10.3574 20.4388 10.1683 20.3596 9.99726C20.2864 9.81825 20.1809 9.66329 20.0463 9.53578C19.9146 9.40194 19.7558 9.29512 19.5818 9.22588C19.2384 9.07093 18.8048 9.06713 18.4492 9.22335C18.2701 9.2947 18.1134 9.40194 17.9779 9.53536C17.8501 9.66287 17.7429 9.8174 17.6659 9.99684C17.5939 10.1691 17.5566 10.3574 17.5566 10.5592C17.5566 10.7589 17.5939 10.9489 17.6659 11.1258C17.7434 11.3015 17.8475 11.459 17.9779 11.5915C18.1134 11.725 18.2684 11.8326 18.4492 11.9095ZM18.2879 10.2637C18.3302 10.1683 18.3857 10.0838 18.4543 10.0146C18.5262 9.94322 18.6118 9.88791 18.7087 9.84822C18.8048 9.80853 18.9052 9.78616 19.0132 9.78616C19.1203 9.78616 19.2219 9.80853 19.3189 9.84907C19.4137 9.88791 19.4971 9.94322 19.5666 10.0167C19.6398 10.0851 19.6927 10.1683 19.733 10.2658C19.774 10.3553 19.7952 10.4545 19.7952 10.5592C19.7952 10.6656 19.774 10.7699 19.7317 10.8649C19.6932 10.9603 19.6373 11.0448 19.5653 11.1178C19.4971 11.1858 19.4137 11.2424 19.3193 11.2829C19.1275 11.3602 18.8967 11.3585 18.7092 11.2854C18.6126 11.2424 18.5258 11.1854 18.4564 11.1195C18.3865 11.0448 18.3298 10.9603 18.2874 10.8649C18.2498 10.7712 18.2299 10.6686 18.2299 10.5592C18.2303 10.4545 18.2502 10.354 18.2879 10.2637Z" fill="white" fill-opacity="0.2"/>
<path d="M5.79963 15.6477C6.00837 15.7604 6.29968 15.8469 6.63502 15.8469C6.8916 15.8469 7.13506 15.795 7.13506 15.5522C7.13506 14.9882 5.69971 15.3441 5.69971 14.2421C5.69971 13.5134 6.41315 13.3141 7.02201 13.3141C7.31332 13.3141 7.60081 13.3576 7.80489 13.4268L7.75281 14.0513C7.54407 13.9559 7.30908 13.9124 7.07875 13.9124C6.87424 13.9124 6.53509 13.9297 6.53509 14.1944C6.53509 14.6846 7.97044 14.3548 7.97044 15.448C7.97044 16.2329 7.3095 16.4456 6.63502 16.4456C6.35218 16.4456 5.9999 16.4022 5.73019 16.3156L5.79963 15.6477Z" fill="white" fill-opacity="0.2"/>
<path d="M10.1508 14.7805C10.0073 14.6939 9.86376 14.6547 9.67661 14.6547C9.33746 14.6547 9.07622 14.889 9.07622 15.2791C9.07622 15.6393 9.38065 15.8732 9.72023 15.8732C9.89848 15.8732 10.0767 15.8339 10.2071 15.7647L10.2245 16.3461C10.0289 16.4111 9.7939 16.4457 9.58516 16.4457C8.837 16.4457 8.26709 16.0121 8.26709 15.266C8.26709 14.5158 8.837 14.0822 9.58516 14.0822C9.82015 14.0822 10.0289 14.1214 10.2071 14.208L10.1508 14.7805Z" fill="white" fill-opacity="0.2"/>
<path d="M10.4253 15.266C10.4253 14.5158 10.9952 14.0822 11.7434 14.0822C12.4915 14.0822 13.0614 14.5158 13.0614 15.266C13.0614 16.0121 12.4915 16.4457 11.7434 16.4457C10.9952 16.4461 10.4253 16.0121 10.4253 15.266ZM12.2523 15.266C12.2523 14.9278 12.1045 14.6285 11.7434 14.6285C11.3822 14.6285 11.2344 14.9278 11.2344 15.266C11.2344 15.6 11.3822 15.8994 11.7434 15.8994C12.1045 15.8994 12.2523 15.6 12.2523 15.266Z" fill="white" fill-opacity="0.2"/>
<path d="M13.2144 14.1341H13.6754V13.6266L14.4452 13.3881V14.1341H14.9931V14.6805H14.4452V15.5131C14.4452 15.7862 14.5104 15.9251 14.7581 15.9251C14.8364 15.9251 14.919 15.9078 14.9973 15.8947L15.0236 16.4023C14.8758 16.4196 14.7276 16.4457 14.532 16.4457C13.8317 16.4457 13.6623 16.1379 13.6623 15.6V14.6805H13.2144V14.1341V14.1341Z" fill="white" fill-opacity="0.2"/>
<path d="M16.195 13.7655H15.4121V13.193H16.195V13.7655ZM15.4121 14.1341H16.195V16.3938H15.4121V14.1341Z" fill="white" fill-opacity="0.2"/>
<path d="M18.1912 16.3938C18.187 16.2726 18.1738 16.1552 18.1738 16.0383H18.1654C17.9871 16.3203 17.7695 16.4461 17.4477 16.4461C16.9997 16.4461 16.5996 16.2249 16.5996 15.7347C16.5996 15.0452 17.352 14.9625 17.7699 14.9625C17.8961 14.9625 18.0354 14.9756 18.1353 14.9929C18.1311 14.6851 17.9003 14.6023 17.6175 14.6023C17.3651 14.6023 17.1128 14.65 16.8956 14.7716L16.8824 14.2426C17.1606 14.1299 17.4524 14.0822 17.7873 14.0822C18.3656 14.0822 18.8661 14.3296 18.8661 15.019V15.8605C18.8661 16.0383 18.875 16.216 18.9097 16.3938H18.1912ZM17.6518 15.9255C17.9477 15.9255 18.1345 15.6566 18.1345 15.3919C18.0345 15.3876 17.9215 15.3788 17.8038 15.3788C17.5383 15.3788 17.3296 15.4611 17.3296 15.6781C17.3296 15.8343 17.4689 15.9255 17.6518 15.9255Z" fill="white" fill-opacity="0.2"/>
<path d="M19.3364 13.1406H20.1235V14.4246H20.1324C20.3323 14.1729 20.5978 14.0817 20.9111 14.0817C21.5373 14.0817 21.8811 14.6758 21.8811 15.2226C21.8811 15.8905 21.5204 16.4457 20.8459 16.4457C20.4851 16.4457 20.1672 16.2418 20.0672 15.9901H20.0583V16.3934H19.3364V13.1406ZM20.5978 14.6804C20.3107 14.6804 20.1193 14.9321 20.1193 15.2703C20.1193 15.6 20.3369 15.847 20.5978 15.847C20.8937 15.847 21.072 15.6 21.072 15.2399C21.072 14.9409 20.9022 14.6804 20.5978 14.6804Z" fill="white" fill-opacity="0.2"/>
<path d="M23.7082 16.3938C23.704 16.2726 23.6909 16.1552 23.6909 16.0383H23.682C23.5037 16.3203 23.2861 16.4461 22.9643 16.4461C22.5163 16.4461 22.1162 16.2249 22.1162 15.7347C22.1162 15.0452 22.8686 14.9625 23.2865 14.9625C23.4127 14.9625 23.552 14.9756 23.6519 14.9929C23.6477 14.6851 23.4169 14.6023 23.1345 14.6023C22.8822 14.6023 22.6298 14.65 22.4126 14.7716L22.3995 14.2426C22.6781 14.1299 22.9694 14.0822 23.3043 14.0822C23.8827 14.0822 24.3831 14.3296 24.3831 15.019V15.8605C24.3831 16.0383 24.3916 16.216 24.4268 16.3938H23.7082ZM23.1688 15.9255C23.4648 15.9255 23.6515 15.6566 23.6515 15.3919C23.5516 15.3876 23.4385 15.3788 23.3208 15.3788C23.0553 15.3788 22.8466 15.4611 22.8466 15.6781C22.847 15.8343 22.9859 15.9255 23.1688 15.9255Z" fill="white" fill-opacity="0.2"/>
<path d="M24.8628 14.1341H25.5762V14.5504H25.5851C25.7418 14.2249 26.0547 14.0818 26.4112 14.0818C27.029 14.0818 27.2771 14.5154 27.2771 14.9841V16.3938H26.4942V15.3007C26.4942 14.8755 26.3464 14.7324 26.133 14.7324C25.8112 14.7324 25.6461 14.9537 25.6461 15.4396V16.3938H24.8632V14.1341H24.8628Z" fill="white" fill-opacity="0.2"/>
<path d="M27.7563 13.1406H28.5392V15.0841H28.5481L29.2002 14.1341H30.0571L29.27 15.1706L30.1224 16.3938H29.1743L28.5481 15.2749H28.5392V16.3938H27.7563V13.1406Z" fill="white" fill-opacity="0.2"/>
</svg>
