<svg width="36" height="37" viewBox="0 0 36 37" fill="none" xmlns="http://www.w3.org/2000/svg">
<path d="M35.0182 25.4577L27.1141 22.0559C26.4137 21.7558 25.6133 21.9559 25.1131 22.5562L21.6112 26.8584C16.1084 24.2571 11.7061 19.8548 9.10474 14.3519L13.407 10.8501C14.0073 10.3498 14.2074 9.54941 13.9072 8.84905L10.6055 1.04498C10.3054 0.344619 9.50495 -0.155642 8.70453 0.0444625L1.30068 1.74535C0.50026 1.94545 0 2.64582 0 3.44623C0 21.4556 14.6076 36.0632 32.617 36.0632C33.4174 36.0632 34.1178 35.563 34.2178 34.7625L35.9187 27.4587C36.1188 26.6583 35.7186 25.8579 35.0182 25.4577Z" fill="#EF7C00"/>
</svg>
