<svg width="740" height="83" viewBox="0 0 740 83" fill="none" xmlns="http://www.w3.org/2000/svg">
<path d="M570.149 57.2571C570.443 56.9189 570.737 56.5923 571.138 56.3591C572.653 55.4902 574.707 56.1317 575.301 57.7936C575.758 59.0765 575.095 60.4468 573.849 60.995C572.522 61.5781 570.85 61.2166 570.067 59.7996C569.967 59.613 569.867 59.5546 569.648 59.5313C568.978 59.4497 568.296 59.3739 567.645 59.2164C566.724 58.9948 565.81 58.7383 564.921 58.4234C563.175 57.8111 561.566 56.9597 560.082 55.9042C558.611 54.8663 557.321 53.665 556.194 52.3122C554.923 50.7727 553.928 49.0874 553.22 47.2681C552.788 46.166 552.475 45.0288 552.269 43.8626C552.031 42.5097 551.949 41.1452 552.031 39.7807C552.081 38.9293 552.2 38.0838 552.381 37.244C552.607 36.2119 552.913 35.1973 553.308 34.2118C553.646 33.3604 554.072 32.544 554.541 31.7451C555.837 29.5467 557.552 27.6865 559.644 26.1179C561.296 24.8817 563.124 23.9195 565.109 23.2139C566.086 22.864 567.094 22.59 568.12 22.3975C569.041 22.2226 569.974 22.1176 570.919 22.0476C572.14 21.9543 573.354 22.0068 574.563 22.1293C575.815 22.2576 577.048 22.5083 578.256 22.8582C579.809 23.3072 581.28 23.9253 582.67 24.7009C583.096 24.94 583.515 25.1907 583.91 25.4765C584.436 25.8497 584.536 26.4911 584.185 26.9926C583.816 27.5291 583.096 27.6865 582.495 27.3483C581.925 27.0276 581.368 26.6835 580.792 26.3745C579.915 25.9021 578.989 25.5173 578.025 25.2374C577.211 24.9983 576.384 24.7825 575.545 24.6076C574.988 24.491 574.412 24.4326 573.843 24.3977C572.691 24.3219 571.532 24.316 570.374 24.421C568.427 24.6018 566.568 25.0858 564.796 25.8555C562.066 27.0392 559.806 28.7537 558.003 30.9987C556.77 32.5265 555.856 34.2118 555.255 36.037C554.892 37.1391 554.673 38.2704 554.56 39.425C554.441 40.6962 554.497 41.9557 554.666 43.2153C554.754 43.8859 554.917 44.5507 555.111 45.198C555.48 46.4284 555.987 47.6063 556.645 48.7317C557.941 50.936 559.675 52.7787 561.854 54.254C563.162 55.1462 564.596 55.8459 566.117 56.3766C567.375 56.8081 568.665 57.0997 569.992 57.2454C570.055 57.2571 570.099 57.2571 570.149 57.2571ZM572.616 57.4787C571.902 57.4495 571.376 58.0502 571.37 58.6041C571.363 59.2281 571.908 59.7471 572.584 59.7587C573.279 59.7704 573.849 59.2572 573.849 58.6158C573.843 58.1318 573.417 57.467 572.616 57.4787Z" fill="#0282A6"/>
<path d="M576.929 48.5629C573.21 50.3239 569.704 50.0732 566.323 47.8573C565.622 48.1314 564.883 48.1605 564.151 47.9039C563.556 47.694 563.08 47.3266 562.749 46.8193C562.079 45.7872 562.223 44.4751 563.131 43.5946C564.032 42.7199 565.478 42.5391 566.611 43.1573C567.256 43.5071 567.682 44.0203 567.889 44.6909C568.089 45.344 568.014 45.9796 567.732 46.5919C570.124 48.3588 574.093 48.5512 576.929 46.4228C579.796 44.2652 580.316 40.7722 579.264 38.5272C578.907 38.5272 578.55 38.5563 578.2 38.5214C577.254 38.4339 576.547 37.979 576.09 37.2151C575.207 35.7282 575.965 33.763 577.949 33.3432C579.84 32.9466 581.336 34.282 581.393 35.7748C581.412 36.3113 581.324 36.8186 581.005 37.2676C580.898 37.4192 580.911 37.5475 580.973 37.6991C581.537 39.0112 581.762 40.3699 581.599 41.7752C581.393 43.548 580.717 45.1457 579.464 46.5103C579.145 46.866 578.795 47.1984 578.45 47.5541C580.222 49.5484 581.994 51.5427 583.791 53.572C584.172 53.2746 584.548 53.0063 584.905 52.7148C586.113 51.7176 587.14 50.5747 588.004 49.3035C588.887 48.0031 589.544 46.6094 589.989 45.1282C590.558 43.2389 590.74 41.3087 590.54 39.3552C590.408 38.0607 590.089 36.8011 589.625 35.5707C588.974 33.8388 588.016 32.2702 586.783 30.8473C586.489 30.5033 586.382 30.1418 586.551 29.7044C586.789 29.0805 587.816 28.7364 588.423 29.4187C588.887 29.9377 589.312 30.4858 589.719 31.0456C590.734 32.4393 591.472 33.9613 592.011 35.5649C592.349 36.5679 592.555 37.6058 592.706 38.6496C592.887 39.9442 592.9 41.2446 592.775 42.5391C592.48 45.5189 591.441 48.2597 589.676 50.7613C588.768 52.0442 587.703 53.2046 586.47 54.2251C585.913 54.6858 585.312 55.1056 584.717 55.5371C584.592 55.6304 584.435 55.6946 584.279 55.7529C583.809 55.9278 583.402 55.7995 583.083 55.473C582.682 55.0648 582.313 54.6275 581.931 54.2018C580.616 52.7264 579.302 51.257 577.987 49.7816C577.68 49.4434 577.38 49.0994 577.079 48.7611C577.029 48.6912 576.973 48.6212 576.929 48.5629ZM566.405 45.4198C566.405 44.8367 565.935 44.2827 565.171 44.2827C564.533 44.2827 563.969 44.7026 563.938 45.4256C563.907 46.0438 564.52 46.5802 565.203 46.5744C565.879 46.5686 566.411 46.0613 566.405 45.4198ZM577.355 35.9264C577.355 36.562 577.887 37.0577 578.569 37.0635C579.245 37.0694 579.796 36.562 579.803 35.9323C579.809 35.2966 579.252 34.7777 578.563 34.7777C577.887 34.7835 577.355 35.2908 577.355 35.9264Z" fill="#47BCCA"/>
<path d="M682.783 44.7087C681.844 44.7087 680.918 44.7087 679.947 44.7087C679.941 44.5746 679.935 44.4463 679.935 44.318C679.935 42.7085 679.935 41.0991 679.928 39.4838C679.928 39.0873 679.916 38.6849 679.872 38.2884C679.797 37.682 679.603 37.1047 679.058 36.714C678.351 36.2066 677.562 36.1717 676.767 36.5157C675.828 36.9297 675.396 37.6761 675.296 38.6033C675.258 38.9649 675.277 39.3381 675.277 39.6996C675.277 41.2449 675.277 42.7844 675.277 44.3297C675.277 44.4463 675.277 44.5687 675.277 44.697C674.294 44.697 673.361 44.697 672.384 44.697C672.384 44.5454 672.384 44.4171 672.384 44.283C672.384 42.5161 672.378 40.7492 672.384 38.9823C672.391 38.3584 672.272 37.7694 671.921 37.233C671.02 35.8509 668.897 35.9967 668.083 37.2796C667.745 37.8103 667.601 38.3817 667.608 38.994C667.614 40.7609 667.608 42.5278 667.608 44.2947C667.608 44.423 667.608 44.5571 667.608 44.7029C666.625 44.7029 665.685 44.7029 664.734 44.7029C664.734 41.1224 664.734 37.5653 664.734 34.0082C665.003 33.9441 666.875 33.9266 667.376 33.9849C667.438 34.3523 667.507 34.7313 667.582 35.1803C667.921 34.7721 668.246 34.4106 668.703 34.189C669.173 33.9616 669.674 33.8333 670.199 33.7925C670.713 33.7517 671.22 33.7808 671.727 33.8916C672.247 34.0024 672.71 34.224 673.117 34.5447C673.518 34.8596 673.793 35.2561 674.031 35.7226C674.181 35.5477 674.313 35.3844 674.45 35.2328C674.939 34.7022 675.502 34.2706 676.222 34.0491C676.698 33.9033 677.192 33.8275 677.7 33.8216C678.551 33.81 679.384 33.8858 680.179 34.2065C681.35 34.6847 682.063 35.5244 682.451 36.6265C682.689 37.3088 682.789 38.0143 682.789 38.7258C682.796 40.6268 682.789 42.5219 682.789 44.423C682.802 44.5163 682.796 44.6037 682.783 44.7087Z" fill="#0282A6"/>
<path d="M621.486 44.7137C620.522 44.7137 619.595 44.7137 618.625 44.7137C618.625 44.568 618.625 44.4397 618.625 44.3055C618.618 42.4162 618.618 40.5269 618.612 38.6433C618.612 38.1244 618.462 37.6345 618.18 37.1855C617.736 36.4683 616.828 36.1709 615.983 36.3516C614.943 36.5732 614.336 37.2147 614.067 38.1593C613.973 38.4859 613.948 38.8124 613.948 39.1448C613.954 40.8651 613.948 42.5853 613.948 44.3114C613.948 44.4338 613.948 44.5505 613.948 44.7196C613.003 44.7371 612.076 44.7254 611.112 44.7254C611.106 44.5854 611.099 44.4688 611.099 44.3522C611.099 42.5853 611.099 40.8184 611.099 39.0574C611.099 38.4859 610.993 37.9319 610.711 37.4188C609.866 35.8501 607.662 36.0076 606.848 37.1913C606.498 37.6987 606.285 38.241 606.285 38.8474C606.285 40.6551 606.279 42.4687 606.279 44.2764C606.279 44.4105 606.279 44.5388 606.279 44.6671C606.01 44.7487 604.069 44.7779 603.455 44.7137C603.386 44.4747 603.361 34.4331 603.436 33.99C604.294 33.99 605.158 33.99 606.053 33.99C606.122 34.3748 606.191 34.748 606.266 35.2029C607.13 34.0133 608.339 33.7275 609.691 33.8034C611.081 33.885 612.089 34.5089 612.715 35.7219C612.802 35.6169 612.871 35.5469 612.934 35.4769C613.447 34.8472 614.061 34.334 614.875 34.0716C615.369 33.9083 615.889 33.8383 616.421 33.8325C617.26 33.8267 618.08 33.8967 618.863 34.2174C620.008 34.6839 620.71 35.5003 621.116 36.5732C621.398 37.3138 621.486 38.0894 621.498 38.8649C621.523 40.7193 621.505 42.5736 621.505 44.428C621.505 44.5096 621.492 44.5971 621.486 44.7137Z" fill="#47BCCA"/>
<path d="M645.257 35.2614C645.257 33.3429 645.257 31.436 645.257 29.5059C646.234 29.5059 647.167 29.5059 648.125 29.5059C648.125 34.5791 648.125 39.6348 648.125 44.7139C647.242 44.7139 646.372 44.7139 645.464 44.7139C645.408 44.2707 645.351 43.8334 645.289 43.3494C645.201 43.4077 645.132 43.4427 645.088 43.4952C644.631 44.0783 644.018 44.469 643.298 44.7081C642.822 44.8655 642.327 44.9355 641.827 44.953C640.524 44.9938 639.291 44.7781 638.177 44.1133C637.05 43.4369 636.311 42.5038 635.917 41.3084C635.604 40.3638 635.572 39.4016 635.672 38.4394C635.773 37.4948 636.067 36.5909 636.674 35.8095C637.4 34.8765 638.352 34.2525 639.548 33.961C640.136 33.8152 640.731 33.7161 641.345 33.7161C642.396 33.7161 643.373 33.961 644.256 34.4916C644.594 34.6957 644.888 34.9756 645.257 35.2614ZM641.745 42.4805C643.611 42.498 645.076 41.2093 645.082 39.3724C645.095 37.5181 643.655 36.206 641.758 36.206C639.842 36.2002 638.502 37.4131 638.483 39.3141C638.465 41.1976 639.905 42.498 641.745 42.4805Z" fill="#47BCCA"/>
<path d="M693.815 35.3255C693.858 34.859 693.896 34.4392 693.94 33.996C694.848 33.996 695.737 33.996 696.626 33.996C696.694 34.2409 696.713 44.2649 696.651 44.679C696.394 44.7489 694.359 44.7606 693.965 44.6906C693.927 44.2475 693.883 43.7984 693.833 43.2736C693.733 43.3728 693.671 43.4311 693.62 43.4894C693.088 44.1367 692.393 44.5507 691.567 44.7956C690.885 44.9997 690.196 45.0872 689.488 45.0347C687.642 44.8889 686.083 44.2416 685.056 42.7255C684.618 42.0782 684.367 41.3726 684.23 40.6204C684.104 39.9323 684.073 39.25 684.154 38.5619C684.286 37.4132 684.674 36.3577 685.507 35.4713C686.214 34.7191 687.091 34.2176 688.13 33.9552C688.862 33.7686 689.601 33.6695 690.352 33.7103C691.692 33.7919 692.857 34.2118 693.689 35.2556C693.708 35.2731 693.733 35.2789 693.815 35.3255ZM690.409 42.5972C691.191 42.6089 691.899 42.4106 692.506 41.9616C693.671 41.0985 694.084 39.4949 693.558 38.1537C693.057 36.8767 692.068 36.1711 690.609 36.1128C689.232 36.0545 688.124 36.521 687.416 37.6697C687.122 38.1537 687.009 38.6902 686.997 39.2325C686.978 39.9439 687.122 40.6262 687.554 41.2268C688.23 42.1773 689.219 42.5739 690.409 42.5972Z" fill="#0282A6"/>
<path d="M634.909 40.2997C633.381 40.2997 631.891 40.2997 630.407 40.2997C628.917 40.2997 627.427 40.2997 625.912 40.2997C625.918 40.6496 626.056 40.9353 626.225 41.2094C626.638 41.8625 627.277 42.2299 628.034 42.4223C629.312 42.743 630.539 42.5623 631.716 42.0316C631.96 41.9208 632.173 41.7576 632.442 41.5943C633.024 42.1308 633.625 42.6789 634.233 43.2387C634.176 43.3029 634.139 43.3553 634.089 43.3962C633.218 44.1251 632.204 44.5682 631.065 44.8073C629.988 45.0289 628.911 45.0522 627.834 44.8948C626.557 44.7024 625.418 44.2125 624.51 43.3378C623.896 42.7489 623.47 42.0433 623.22 41.2561C622.945 40.3872 622.844 39.495 622.951 38.5911C623.082 37.5124 623.445 36.521 624.178 35.658C624.885 34.8299 625.787 34.2701 626.876 33.9436C628.003 33.6054 629.155 33.5704 630.307 33.722C631.616 33.8911 632.774 34.3809 633.644 35.3548C634.145 35.9146 634.47 36.556 634.683 37.2674C634.971 38.2529 634.952 39.2443 634.909 40.2997ZM632.11 38.0838C632.116 38.008 632.129 37.9614 632.116 37.9205C631.941 37.1741 631.515 36.6085 630.739 36.2994C629.875 35.9496 628.986 35.9321 628.085 36.142C627.108 36.3694 626.426 36.9234 626.037 37.7923C626 37.8797 625.987 37.973 625.956 38.0838C628.034 38.0838 630.057 38.0838 632.11 38.0838Z" fill="#47BCCA"/>
<path d="M596.218 40.9351C596.224 40.0953 596.174 39.139 596.018 38.1943C595.661 36.0542 594.991 34.0075 593.927 32.0773C593.131 30.6428 592.18 29.3074 591.04 28.0945C590.921 27.972 590.809 27.8438 590.709 27.7038C590.402 27.2665 590.502 26.6483 590.94 26.3218C591.454 25.9369 592.117 26.0827 592.437 26.4034C593.401 27.3772 594.24 28.4327 594.985 29.5582C595.648 30.5553 596.237 31.5991 596.706 32.6896C597.145 33.7042 597.514 34.748 597.802 35.8152C598.29 37.6462 598.484 39.5064 598.472 41.3899C598.465 42.4804 598.359 43.565 598.171 44.6379C597.896 46.1716 597.439 47.6586 596.825 49.1047C596.061 50.9183 595.035 52.5977 593.795 54.1663C593.444 54.6095 593.038 55.0235 592.668 55.455C592.255 55.939 591.141 55.9682 590.802 55.181C590.627 54.7728 590.696 54.3821 591.015 54.0322C591.391 53.6182 591.76 53.1983 592.105 52.761C593.344 51.1865 594.321 49.4896 595.016 47.6469C595.417 46.5798 595.711 45.4835 595.924 44.3697C596.13 43.2618 596.218 42.1596 596.218 40.9351Z" fill="#0282A6"/>
<path d="M663.288 35.1094C662.762 35.6925 662.249 36.2523 661.754 36.8005C661.353 36.5847 660.99 36.3514 660.596 36.1765C659.957 35.8966 659.262 35.8674 658.567 35.8908C658.148 35.9083 657.741 35.9607 657.359 36.1357C657.002 36.299 656.771 36.5439 656.758 36.9346C656.752 37.3486 656.99 37.6168 657.365 37.7976C657.797 38.0075 658.267 38.0775 658.743 38.095C659.481 38.1242 660.214 38.2116 660.934 38.3691C661.616 38.5207 662.242 38.7714 662.787 39.1855C663.463 39.7044 663.757 40.4042 663.832 41.1914C664.008 43.0808 662.681 44.3287 661.065 44.7952C659.907 45.1276 658.736 45.1276 657.559 45.0226C656.025 44.8827 654.711 44.282 653.621 43.2557C653.596 43.2324 653.584 43.2032 653.54 43.1449C653.991 42.5385 654.454 41.9203 654.911 41.3022C655.243 41.518 655.55 41.7454 655.888 41.9262C656.752 42.3927 657.691 42.6726 658.686 42.7484C659.268 42.7892 659.826 42.7192 660.339 42.4335C660.834 42.1594 661.059 41.7221 660.965 41.2672C660.896 40.9524 660.683 40.7599 660.383 40.6433C659.901 40.4567 659.4 40.3925 658.887 40.3634C657.835 40.3051 656.808 40.136 655.844 39.7044C655.068 39.3604 654.435 38.8647 654.141 38.0892C653.722 36.9929 653.872 35.9724 654.692 35.0686C655.212 34.5029 655.894 34.1822 656.639 33.9489C657.741 33.6107 658.868 33.5932 660.001 33.704C661.203 33.8148 662.28 34.2288 663.194 34.9811C663.231 35.0219 663.244 35.0569 663.288 35.1094Z" fill="#0282A6"/>
<path d="M709.861 36.3048C709.128 36.3048 708.452 36.3048 707.738 36.3048C707.701 35.5351 707.726 34.7828 707.726 34.0014C708.433 34.0014 709.116 34.0014 709.848 34.0014C709.88 33.0743 709.842 32.1821 709.867 31.2491C710.806 31.1149 711.739 31.0391 712.716 30.9517C712.741 31.3132 712.728 31.6398 712.728 31.9663C712.728 32.287 712.728 32.6078 712.728 32.9343C712.728 33.2667 712.728 33.5991 712.728 33.9723C713.085 33.9956 713.423 33.9839 713.767 33.9839C714.124 33.9839 714.481 33.9839 714.838 33.9839C715.182 33.9839 715.527 33.9839 715.89 33.9839C715.89 34.7653 715.89 35.5176 715.89 36.3048C714.825 36.3048 713.786 36.3048 712.722 36.3048C712.716 36.4506 712.703 36.5614 712.703 36.6663C712.703 38.0309 712.697 39.3954 712.703 40.7658C712.703 41.0632 712.703 41.3606 712.828 41.6463C713.054 42.1594 713.473 42.3869 714.037 42.4393C714.45 42.4802 714.838 42.3694 715.22 42.2469C715.326 42.2119 715.439 42.1828 715.583 42.1361C715.846 42.8884 716.096 43.6114 716.359 44.3637C716.265 44.4045 716.178 44.457 716.084 44.492C715.076 44.836 714.043 44.9002 712.985 44.7894C711.902 44.6727 711.063 44.1829 710.474 43.3315C710.186 42.9175 710.024 42.4452 709.948 41.967C709.88 41.5297 709.861 41.0806 709.855 40.6375C709.842 39.3254 709.848 38.0192 709.848 36.7072C709.861 36.5964 709.861 36.4739 709.861 36.3048Z" fill="#0282A6"/>
<path d="M700.996 44.7143C700.025 44.7143 699.099 44.7143 698.178 44.7143C698.11 44.4577 698.085 34.4804 698.147 34.0255C698.404 33.9614 700.119 33.938 700.77 33.9964C700.839 34.3521 700.908 34.7136 700.983 35.1393C701.102 35.011 701.177 34.9352 701.246 34.8536C701.866 34.0897 702.711 33.7573 703.713 33.7048C704.47 33.664 705.209 33.7165 705.929 33.973C706.386 34.1363 706.887 34.4046 707.206 34.7369C706.787 35.4833 706.361 36.2472 705.929 37.0053C705.723 36.8829 705.547 36.7662 705.359 36.6788C704.264 36.1481 703.174 36.2239 702.123 36.7721C701.603 37.0461 701.315 37.5126 701.14 38.0316C701.027 38.364 700.99 38.7022 700.99 39.0463C700.996 40.8015 700.99 42.5567 700.99 44.3061C700.996 44.4344 700.996 44.551 700.996 44.7143Z" fill="#0282A6"/>
<path d="M587.297 40.4456C587.278 42.195 587.09 43.5187 586.689 44.8191C586.188 46.4344 585.393 47.9039 584.316 49.2509C584.035 49.6008 583.659 49.7699 583.196 49.6824C582.751 49.6008 582.451 49.3442 582.313 48.9419C582.2 48.5978 582.301 48.2946 582.507 48.003C582.858 47.5132 583.221 47.035 583.515 46.5219C584.091 45.5364 584.492 44.4867 584.755 43.3846C585.049 42.1425 585.112 40.8946 584.974 39.6467C584.742 37.5125 583.941 35.5648 582.57 33.8329C582.05 33.1798 582.301 32.3868 583.089 32.136C583.521 32.0019 583.997 32.136 584.304 32.4917C584.936 33.2323 585.425 34.0545 585.869 34.9001C586.439 35.9905 586.827 37.1451 587.04 38.3405C587.19 39.1627 587.246 40.0083 587.297 40.4456Z" fill="#0282A6"/>
<path d="M652.513 44.7137C651.568 44.7137 650.641 44.7137 649.696 44.7137C649.696 41.1274 649.696 37.5586 649.696 33.9432C650.629 33.9199 651.561 33.9374 652.513 33.9315C652.513 37.5353 652.513 41.1041 652.513 44.7137Z" fill="#47BCCA"/>
<path d="M739.805 42.4983C738.221 42.4983 736.687 42.4983 735.128 42.4983C735.166 42.9531 735.429 43.2389 735.804 43.4371C736.355 43.7228 736.95 43.7462 737.539 43.5946C737.877 43.5071 738.196 43.3496 738.553 43.2097C738.809 43.4663 739.104 43.752 739.417 44.0611C739.241 44.2885 738.953 44.4459 738.659 44.5742C737.62 45.0232 736.549 45.0874 735.466 44.7258C734.64 44.4518 734.064 43.9269 733.776 43.163C733.444 42.2825 733.444 41.3962 733.889 40.539C734.333 39.6818 735.103 39.2269 736.086 39.052C736.693 38.9412 737.294 38.982 737.889 39.1453C738.903 39.4252 739.486 40.0725 739.742 40.9996C739.855 41.4778 739.824 41.9676 739.805 42.4983ZM735.153 41.3029C736.236 41.3029 737.282 41.3029 738.34 41.3029C738.302 40.8947 738.089 40.6089 737.726 40.4398C737.069 40.1366 736.412 40.1599 735.779 40.4981C735.46 40.6672 735.235 40.9238 735.153 41.3029Z" fill="#47BCCA"/>
<path d="M727.378 39.1802C727.985 39.1802 728.536 39.1802 729.15 39.1802C729.557 40.5389 729.97 41.9092 730.377 43.2621C730.759 41.9209 731.141 40.5564 731.535 39.1802C732.08 39.1802 732.599 39.1802 733.175 39.1802C732.549 41.0695 731.911 42.9297 731.272 44.8132C730.671 44.8132 730.076 44.8132 729.438 44.8132C728.762 42.9589 728.079 41.087 727.378 39.1802Z" fill="#47BCCA"/>
<path d="M721.386 36.9287C721.9 36.9287 722.35 36.9287 722.845 36.9287C722.845 37.0628 722.845 37.1795 722.845 37.2961C722.845 39.1271 722.845 40.964 722.845 42.795C722.845 42.8533 722.845 42.9058 722.845 42.9641C722.82 43.5997 723.102 43.7863 723.671 43.7105C723.703 43.7047 723.74 43.7164 723.79 43.7222C723.803 43.7747 723.822 43.8272 723.822 43.8796C723.822 44.1479 723.822 44.4103 723.822 44.6902C723.202 44.9001 722.607 44.9118 722.037 44.6319C721.649 44.4394 721.461 44.1071 721.411 43.7105C721.393 43.5589 721.392 43.4015 721.392 43.244C721.392 41.2555 721.392 39.2671 721.392 37.2786C721.386 37.1736 721.386 37.0628 721.386 36.9287Z" fill="#47BCCA"/>
<path d="M726.658 44.7782C726.157 44.7782 725.681 44.7782 725.212 44.7782C725.137 44.5333 725.118 39.5592 725.193 39.1743C725.669 39.1743 726.151 39.1743 726.658 39.1743C726.658 41.0403 726.658 42.8889 726.658 44.7782Z" fill="#47BCCA"/>
<path d="M649.427 30.9696C649.396 29.9725 650.141 29.401 651.086 29.3952C652.088 29.3835 652.789 29.9725 652.808 30.9288C652.827 31.7919 652.176 32.4916 651.136 32.5091C650.241 32.5149 649.408 31.9551 649.427 30.9696Z" fill="#47BCCA"/>
<path d="M725.925 38.3932C725.374 38.3932 725.042 38.1016 725.036 37.6118C725.03 37.1161 725.399 36.7779 725.931 36.7838C726.439 36.7896 726.814 37.1336 726.814 37.6001C726.814 38.0725 726.464 38.3874 725.925 38.3932Z" fill="#47BCCA"/>
<path d="M720.147 43.9735C720.147 44.4167 719.765 44.7724 719.276 44.7724C718.782 44.7783 718.394 44.4109 718.4 43.9444C718.406 43.4895 718.782 43.1455 719.264 43.1455C719.771 43.1455 720.153 43.5012 720.147 43.9735Z" fill="#47BCCA"/>
<g clip-path="url(#clip0_140_11903)">
<path d="M323.494 17H292.229V48.3109H323.494V17Z" fill="url(#paint0_linear_140_11903)"/>
<path d="M322.527 32.8348C322.527 39.3718 322.826 46.0616 322.826 46.0616C322.814 46.8134 322.333 47.2891 321.729 47.2891H294.668C294.064 47.2891 293.642 46.7488 293.572 46.0616C293.572 46.0616 292.792 40.3468 292.792 31.619C292.792 22.8912 293.577 18.7798 293.577 18.7798C293.671 18.0632 294.07 17.5464 294.674 17.5464H321.735C322.339 17.5464 322.843 18.1102 322.832 18.7798C322.832 18.7798 322.532 26.2977 322.532 32.8348H322.527Z" fill="url(#paint1_linear_140_11903)"/>
<path d="M316.509 25.4577C314.574 26.5912 313.988 26.6852 311.888 27.9421L311.988 27.7072C313.09 26.5031 313.565 25.998 314.293 24.9349C312.351 25.0407 309.542 25.2697 307.53 25.7161L307.636 25.4988C309.46 24.6119 312.844 23.725 314.574 23.5018C314.152 22.9086 310.721 21.0526 309.87 20.6944L309.97 20.4771C312.568 20.7707 316.017 21.9865 317.518 22.9086C318.152 22.7089 318.803 22.6913 319.976 22.5856C319.976 22.5856 319.8 23.2963 318.521 24.1773C318.838 25.0289 318.075 29.7511 317.448 31.0021C317.419 29.0287 317.243 26.5325 316.515 25.4518L316.509 25.4577Z" fill="url(#paint2_linear_140_11903)"/>
<path d="M302.381 42.3849L302.48 42.1676C301.454 41.7682 300.428 41.4511 299.595 40.6699C299.859 39.9416 300.158 39.3719 300.645 38.6495L300.75 38.4263C299.871 38.5614 299.067 38.8844 298.305 39.0312C297.701 37.974 297.472 36.5233 297.167 35.1431L297.067 35.3604C296.897 36.9344 296.827 38.0563 297.055 39.319C296.422 39.4952 295.865 39.5187 295.349 39.7419L295.249 39.9592C296.064 40.4643 296.727 40.8461 297.648 41.2807C298.14 42.3438 298.651 43.0545 299.478 43.8768L299.577 43.6595C299.431 43.0545 299.237 42.5553 299.308 41.8974C300.334 42.197 301.214 42.3556 302.381 42.3908V42.3849Z" fill="url(#paint3_linear_140_11903)"/>
<path d="M305.231 26.6558C305.231 26.6558 304.821 27.3899 304.486 28.3649H304.41C306.815 28.6879 309.09 29.6688 309.665 30.0036L309.565 30.2209C307.067 29.7804 305.753 29.8333 304.821 29.9155C303.894 30.0036 303.7 30.121 303.7 30.121C303.167 31.2957 302.85 33.2104 302.721 33.9152L302.621 34.1326C302.164 33.0342 301.507 30.8376 301.507 30.8376C300.246 31.513 297.343 34.2442 297.343 34.2442C298.944 31.049 300.563 29.5866 300.563 29.5866C300.005 29.0286 298.545 28.7408 297.484 28.6938L297.583 28.4765C298.252 28.2768 299.63 28.1946 300.551 28.1535C301.642 28.1182 302.304 28.1828 302.304 28.1828C303.278 27.4076 304.727 26.7262 305.237 26.6558H305.231Z" fill="url(#paint4_linear_140_11903)"/>
<path d="M308.293 40.3993C307.788 41.0865 307.354 41.6268 306.797 42.2494C305.976 42.4785 304.985 42.3727 304.228 42.4021L304.128 42.6194C304.703 42.9131 305.26 43.0952 305.859 43.2185C305.372 43.659 304.727 43.9997 304.269 44.3051L304.169 44.5224C305.149 44.2933 306.433 43.8763 307.389 43.3066C307.888 43.3301 308.351 43.2949 308.697 43.2303C308.697 43.2303 308.797 43.0071 308.797 43.0129C308.732 42.7898 308.539 42.6547 308.48 42.3493C309.378 41.6503 310.029 41.016 310.779 40.2583L310.885 40.041C310.146 40.552 309.243 41.2568 308.375 41.6679C308.339 41.2392 308.31 40.8809 308.293 40.3993V40.3993Z" fill="url(#paint5_linear_140_11903)"/>
<path d="M316.609 25.2345C314.679 26.368 314.087 26.4679 311.988 27.7248C313.207 26.3974 313.636 25.8336 314.392 24.7235C312.457 24.8233 309.647 25.0583 307.642 25.5047C309.389 24.5708 312.85 23.5312 314.679 23.2845C314.257 22.6972 310.826 20.8353 309.97 20.4771C312.685 20.6885 316.005 21.7046 317.618 22.6913C318.251 22.4916 318.908 22.4857 320.087 22.38C319.788 22.8969 319.776 23.1964 318.615 23.9658C318.937 24.8233 318.169 29.5455 317.536 30.7907C317.512 28.8172 317.342 26.3211 316.603 25.2404L316.609 25.2345Z" fill="white"/>
<path d="M302.48 42.1618C301.372 41.7506 300.574 41.269 299.695 40.4467C299.958 39.7184 300.258 39.1487 300.75 38.4204C299.847 38.5555 299.184 38.6554 298.41 38.8022C297.777 37.6921 297.489 36.6232 297.167 35.1372C296.997 36.7171 296.926 37.839 297.149 39.0959C296.434 39.2956 295.929 39.4659 295.343 39.7302C296.164 40.2353 296.827 40.6229 297.747 41.0517C298.24 42.1089 298.75 42.8254 299.577 43.6418C299.384 42.9488 299.331 42.3908 299.413 41.6625C300.439 41.9621 301.319 42.1206 302.48 42.1559V42.1618Z" fill="white"/>
<path d="M305.366 26.4678C305.02 26.9141 304.621 27.754 304.51 28.1417C307.366 28.5293 309.659 29.9977 309.659 29.9977C307.161 29.5513 305.841 29.61 304.908 29.6923C303.982 29.7804 303.794 29.8919 303.794 29.8919C303.12 31.372 302.715 33.9093 302.715 33.9093C302.263 32.811 301.601 30.6144 301.601 30.6144C300.34 31.2898 297.442 34.0209 297.442 34.0209C299.038 30.8199 300.656 29.3692 300.656 29.3692C300.099 28.8054 298.639 28.5235 297.571 28.4765C298.123 28.2474 299.548 27.9831 300.639 27.9361C301.735 27.9067 302.392 27.9655 302.392 27.9655C303.366 27.1961 304.85 26.5441 305.36 26.4678H305.366Z" fill="white"/>
<path d="M308.398 40.182C307.894 40.8692 307.46 41.4037 306.902 42.0321C305.941 42.3023 305.172 42.4021 304.234 42.4021C304.809 42.7017 305.366 42.8779 305.97 43.0012C305.372 43.5474 304.861 43.9351 304.281 44.3051C305.26 44.076 306.545 43.659 307.501 43.0893C307.999 43.1069 308.468 43.0776 308.809 43.0071C308.721 42.7193 308.662 42.502 308.592 42.1261C309.495 41.4271 310.146 40.7928 310.896 40.0352C310.099 40.5931 309.413 41.0101 308.486 41.4448C308.445 41.016 308.421 40.6577 308.404 40.1761L308.398 40.182Z" fill="white"/>
<path d="M295.73 58.7129C295.654 58.0433 295.484 57.3855 294.516 57.3855C293.912 57.3855 293.402 57.6791 293.402 58.3428C293.402 59.9286 296.979 59.9169 296.979 62.1958C296.979 63.6465 295.976 64.3748 294.516 64.3748C293.478 64.3748 292.569 63.9167 292 63.2588L292.598 62.3426C293.103 62.9241 293.859 63.2588 294.569 63.2588C295.278 63.2588 295.736 62.9887 295.736 62.3308C295.736 60.9154 292.17 60.8449 292.17 58.4368C292.17 56.9626 293.273 56.2695 294.522 56.2695C296.317 56.2695 296.827 57.5088 296.891 58.5249L295.724 58.7129H295.73Z" fill="#010101"/>
<path d="M299.296 61.5907C299.349 62.9651 299.906 63.3527 300.745 63.3527C301.39 63.3527 301.959 63.0297 302.293 62.7713L302.481 63.7227C301.947 64.0575 301.39 64.3688 300.498 64.3688C299.026 64.3688 298.023 63.4878 298.023 61.2677C298.023 59.0475 298.903 58.1548 300.416 58.1548C301.929 58.1548 302.557 59.1591 302.557 60.6451V61.5907H299.296V61.5907ZM301.39 60.6451C301.39 59.6407 301.103 59.1709 300.399 59.1709C299.695 59.1709 299.361 59.6055 299.308 60.6451H301.39Z" fill="#010101"/>
<path d="M308.504 59.3882L307.689 59.3412C307.9 59.6232 307.976 59.9579 307.976 60.4219C307.976 61.7611 307.108 62.6773 305.818 62.6773C305.56 62.6773 305.437 62.6656 305.237 62.6127C305.014 62.7713 304.868 62.8711 304.868 63.0708C304.868 63.6934 308.451 62.9592 308.451 65.0913C308.451 66.3775 307.102 67.0001 305.642 67.0001C304.182 67.0001 303.202 66.4656 303.202 65.5141C303.202 64.8916 303.601 64.4452 304.217 64.1104C303.947 63.9636 303.712 63.7404 303.712 63.2705C303.712 62.8006 304.047 62.4894 304.428 62.2192C303.929 61.8374 303.624 61.2266 303.624 60.3984C303.624 59.0241 304.492 58.1431 305.818 58.1431C306.129 58.1431 306.422 58.2018 306.662 58.2899H308.486V59.3823L308.504 59.3882ZM304.363 65.3791C304.363 65.9135 304.997 66.0486 305.689 66.0486C306.457 66.0486 307.261 65.7491 307.261 65.2322C307.261 64.5098 306.258 64.5157 305.343 64.3982C304.862 64.6214 304.363 64.9562 304.363 65.3791V65.3791ZM305.824 59.1298C305.179 59.1298 304.774 59.4998 304.774 60.4102C304.774 61.3206 305.173 61.6965 305.824 61.6965C306.475 61.6965 306.874 61.3264 306.874 60.4102C306.874 59.4939 306.475 59.1298 305.824 59.1298Z" fill="#010101"/>
<path d="M310.521 58.2959V62.3603C310.521 63.1179 310.99 63.3529 311.524 63.3529C312.058 63.3529 312.527 63.1179 312.527 62.3603V58.2959H313.741V62.325C313.741 63.7111 312.808 64.369 311.524 64.369C310.24 64.369 309.307 63.7111 309.307 62.325V58.2959H310.521Z" fill="#010101"/>
<path d="M316.433 58.2957V58.8772C316.926 58.3545 317.413 58.1548 317.935 58.1548C318.814 58.1548 318.984 58.9594 318.984 59.8287L317.946 59.952C317.935 59.5938 317.899 59.3471 317.565 59.3471C317.231 59.3471 316.896 59.6173 316.55 59.9697V64.222H315.336V58.2957H316.427H316.433Z" fill="#010101"/>
<path d="M324.31 61.2853C324.31 63.341 323.465 64.3629 321.87 64.3629C320.275 64.3629 319.418 63.4702 319.418 61.2618C319.418 59.0534 320.275 58.1489 321.87 58.1489C323.465 58.1489 324.31 59.0417 324.31 61.2853ZM320.668 61.2618C320.668 62.8711 321.066 63.3469 321.87 63.3469C322.673 63.3469 323.061 62.8652 323.061 61.2794C323.061 59.6936 322.673 59.1591 321.87 59.1591C321.066 59.1591 320.668 59.629 320.668 61.2559V61.2618Z" fill="#010101"/>
<path d="M328.216 60.0813C328.169 59.5585 327.94 59.165 327.301 59.165C326.832 59.165 326.48 59.3647 326.48 59.8111C326.48 60.9388 329.242 60.8389 329.242 62.6362C329.242 63.7051 328.486 64.3629 327.213 64.3629C326.286 64.3629 325.565 64.0047 325.131 63.5818L325.53 62.689C325.94 63.0884 326.556 63.3469 327.178 63.3469C327.647 63.3469 328.034 63.1707 328.034 62.7008C328.034 61.761 325.307 61.7728 325.307 59.8874C325.307 58.8361 326.052 58.1489 327.289 58.1489C328.662 58.1489 329.225 58.9418 329.225 59.8992L328.21 60.0754L328.216 60.0813Z" fill="#010101"/>
<path d="M334.831 64.0869V66.5185L333.617 66.7887V58.2958H334.708V58.8302C335.154 58.4602 335.711 58.1489 336.444 58.1489C337.447 58.1489 338.415 58.7539 338.415 61.1972C338.415 63.4996 337.365 64.3688 335.998 64.3688C335.629 64.3688 335.195 64.2572 334.831 64.0869ZM334.831 63.0179C335.177 63.2411 335.535 63.3527 335.881 63.3527C336.585 63.3527 337.142 62.8065 337.142 61.1972C337.142 59.5879 336.597 59.2472 336.028 59.2472C335.547 59.2472 335.224 59.4117 334.837 59.6584V63.0179H334.831Z" fill="#010101"/>
<path d="M342.474 59.9462C342.474 59.3882 342.104 59.165 341.606 59.165C341.107 59.165 340.65 59.4646 340.65 60.0813L339.582 59.9697C339.617 58.7656 340.573 58.1489 341.688 58.1489C342.914 58.1489 343.694 58.7715 343.694 59.8346V62.924C343.694 63.2059 343.828 63.3234 344.016 63.3234C344.204 63.3234 344.403 63.2353 344.597 63.0884L344.673 63.9694C344.45 64.2044 344.051 64.3629 343.647 64.3629C343.224 64.3629 342.714 64.1868 342.655 63.5348C342.21 64.0928 341.576 64.3629 340.949 64.3629C340.022 64.3629 339.365 63.8285 339.365 62.7536C339.365 61.2383 340.814 60.6099 342.474 60.6216V59.9403V59.9462ZM342.474 61.5437C341.436 61.5085 340.568 61.8903 340.568 62.6479C340.568 63.106 340.767 63.3527 341.236 63.3527C341.705 63.3527 342.139 63.0649 342.474 62.6949V61.5437Z" fill="#010101"/>
<path d="M346.573 58.2957V58.8772C347.065 58.3545 347.552 58.1548 348.074 58.1548C348.954 58.1548 349.124 58.9594 349.124 59.8287L348.086 59.952C348.074 59.5938 348.039 59.3471 347.705 59.3471C347.37 59.3471 347.036 59.6173 346.69 59.9697V64.222H345.476V58.2957H346.567H346.573Z" fill="#010101"/>
<path d="M352.772 59.9462C352.772 59.3882 352.402 59.165 351.904 59.165C351.405 59.165 350.948 59.4646 350.948 60.0813L349.881 59.9697C349.916 58.7656 350.872 58.1489 351.986 58.1489C353.212 58.1489 353.992 58.7715 353.992 59.8346V62.924C353.992 63.2059 354.127 63.3234 354.314 63.3234C354.502 63.3234 354.702 63.2353 354.895 63.0884L354.971 63.9694C354.748 64.2044 354.35 64.3629 353.945 64.3629C353.523 64.3629 353.012 64.1868 352.954 63.5348C352.508 64.0928 351.875 64.3629 351.247 64.3629C350.32 64.3629 349.664 63.8285 349.664 62.7536C349.664 61.2383 351.112 60.6099 352.772 60.6216V59.9403V59.9462ZM352.772 61.5437C351.734 61.5085 350.866 61.8903 350.866 62.6479C350.866 63.106 351.065 63.3527 351.534 63.3527C352.004 63.3527 352.438 63.0649 352.772 62.6949V61.5437Z" fill="#010101"/>
<path d="M359.834 58.2959V62.3603C359.834 63.1179 360.303 63.3529 360.837 63.3529C361.37 63.3529 361.839 63.1179 361.839 62.3603V58.2959H363.054V62.325C363.054 63.7111 362.121 64.369 360.837 64.369C359.552 64.369 358.62 63.7111 358.62 62.325V58.2959H359.834V58.2959Z" fill="#010101"/>
<path d="M365.745 58.8302C366.214 58.4837 366.795 58.1489 367.581 58.1489C368.648 58.1489 369.317 58.7421 369.317 60.0343V64.2161H368.103V60.2751C368.103 59.5468 367.857 59.2942 367.176 59.2942C366.73 59.2942 366.238 59.4822 365.862 59.7289V64.2161H364.648V58.2899H365.739V58.8244L365.745 58.8302Z" fill="#010101"/>
<path d="M375.012 58.8302C375.457 58.4837 376.062 58.1489 376.795 58.1489C377.463 58.1489 377.874 58.3604 378.179 58.842C378.777 58.4485 379.358 58.1489 380.073 58.1489C381.129 58.1489 381.733 58.7421 381.733 60.0343V64.2161H380.519V60.2457C380.519 59.5115 380.232 59.2942 379.627 59.2942C379.229 59.2942 378.759 59.5057 378.402 59.7289C378.425 59.8757 378.437 60.0402 378.437 60.2105V64.2161H377.223V60.4102C377.223 59.5762 377.064 59.2942 376.331 59.2942C375.921 59.2942 375.51 59.4939 375.141 59.7289V64.2161H373.927V58.2899H375.018V58.8244L375.012 58.8302Z" fill="#010101"/>
<path d="M384.413 58.2959V62.3603C384.413 63.1179 384.882 63.3529 385.416 63.3529C385.95 63.3529 386.419 63.1179 386.419 62.3603V58.2959H387.633V62.325C387.633 63.7111 386.701 64.369 385.416 64.369C384.132 64.369 383.199 63.7111 383.199 62.325V58.2959H384.413Z" fill="#010101"/>
<path d="M390.325 58.8302C390.794 58.4837 391.369 58.1489 392.161 58.1489C393.228 58.1489 393.897 58.7421 393.897 60.0343V64.2161H392.683V60.2751C392.683 59.5468 392.437 59.2942 391.756 59.2942C391.311 59.2942 390.824 59.4822 390.443 59.7289V64.2161H389.229V58.2899H390.319V58.8244L390.325 58.8302Z" fill="#010101"/>
<path d="M398.847 63.5173C398.413 64.0106 397.867 64.3631 397.14 64.3631C396.184 64.3631 395.111 63.6289 395.111 61.2737C395.111 58.9184 396.125 58.149 397.216 58.149C397.715 58.149 398.143 58.2724 398.653 58.519V56.0757L399.867 55.8525V62.9299C399.867 63.2119 400.002 63.3293 400.19 63.3293C400.378 63.3293 400.577 63.2412 400.77 63.0944L400.847 63.9754C400.624 64.2103 400.225 64.3689 399.82 64.3689C399.351 64.3689 398.9 64.1692 398.841 63.5232L398.847 63.5173ZM398.659 59.4999C398.301 59.3237 397.979 59.1651 397.48 59.1651C396.923 59.1651 396.389 59.5351 396.389 61.2208C396.389 62.6715 396.876 63.253 397.416 63.253C397.955 63.253 398.372 62.9182 398.665 62.5834V59.5058L398.659 59.4999Z" fill="#010101"/>
<path d="M406.242 61.2853C406.242 63.341 405.398 64.3629 403.803 64.3629C402.207 64.3629 401.351 63.4702 401.351 61.2618C401.351 59.0534 402.207 58.1489 403.803 58.1489C405.398 58.1489 406.242 59.0417 406.242 61.2853ZM402.6 61.2618C402.6 62.8711 402.999 63.3469 403.803 63.3469C404.606 63.3469 404.993 62.8652 404.993 61.2794C404.993 59.6936 404.606 59.1591 403.803 59.1591C402.999 59.1591 402.6 59.629 402.6 61.2559V61.2618Z" fill="#010101"/>
<path d="M411.433 61.5907C411.491 62.9651 412.043 63.3527 412.881 63.3527C413.527 63.3527 414.096 63.0297 414.43 62.7713L414.617 63.7227C414.084 64.0575 413.527 64.3688 412.635 64.3688C411.163 64.3688 410.16 63.4878 410.16 61.2677C410.16 59.0475 411.04 58.1548 412.553 58.1548C414.066 58.1548 414.694 59.1591 414.694 60.6451V61.5907H411.433ZM413.527 60.6451C413.527 59.6407 413.239 59.1709 412.535 59.1709C411.832 59.1709 411.497 59.6055 411.445 60.6451H413.527Z" fill="#010101"/>
<path d="M417.122 58.8302C417.591 58.4837 418.166 58.1489 418.958 58.1489C420.025 58.1489 420.694 58.7421 420.694 60.0343V64.2161H419.48V60.2751C419.48 59.5468 419.233 59.2942 418.553 59.2942C418.107 59.2942 417.615 59.4822 417.239 59.7289V64.2161H416.025V58.2899H417.116V58.8244L417.122 58.8302Z" fill="#010101"/>
<path d="M426.166 61.5907C426.224 62.9651 426.776 63.3527 427.614 63.3527C428.26 63.3527 428.828 63.0297 429.163 62.7713L429.35 63.7227C428.817 64.0575 428.26 64.3688 427.368 64.3688C425.896 64.3688 424.893 63.4878 424.893 61.2677C424.893 59.0475 425.773 58.1548 427.286 58.1548C428.799 58.1548 429.427 59.1591 429.427 60.6451V61.5907H426.166ZM428.26 60.6451C428.26 59.6407 427.972 59.1709 427.268 59.1709C426.565 59.1709 426.23 59.6055 426.177 60.6451H428.26Z" fill="#010101"/>
<path d="M431.245 58.2959L432.729 62.883L434.142 58.2959H435.356L433.386 64.2221H431.972L429.955 58.2959H431.245V58.2959Z" fill="#010101"/>
<path d="M440.763 61.2853C440.763 63.341 439.919 64.3629 438.324 64.3629C436.728 64.3629 435.872 63.4702 435.872 61.2618C435.872 59.0534 436.728 58.1489 438.324 58.1489C439.919 58.1489 440.763 59.0417 440.763 61.2853ZM437.121 61.2618C437.121 62.8711 437.52 63.3469 438.324 63.3469C439.127 63.3469 439.514 62.8652 439.514 61.2794C439.514 59.6936 439.127 59.1591 438.324 59.1591C437.52 59.1591 437.121 59.629 437.121 61.2559V61.2618Z" fill="#010101"/>
<path d="M443.303 55.8525V62.8595C443.303 63.1825 443.479 63.3058 443.713 63.3058C443.971 63.3058 444.206 63.206 444.441 63.0709L444.564 64.0107C444.106 64.2573 443.749 64.3689 443.326 64.3689C442.335 64.3689 442.089 63.6465 442.089 62.8653V56.0816L443.303 55.8584V55.8525Z" fill="#010101"/>
<path d="M446.446 58.2959V62.3603C446.446 63.1179 446.916 63.3529 447.449 63.3529C447.983 63.3529 448.452 63.1179 448.452 62.3603V58.2959H449.666V62.325C449.666 63.7111 448.734 64.369 447.449 64.369C446.165 64.369 445.232 63.7111 445.232 62.325V58.2959H446.446Z" fill="#010101"/>
<path d="M454.153 60.2927C454.118 59.7112 453.871 59.165 453.209 59.165C452.476 59.165 452.141 59.5879 452.141 61.2618C452.141 62.9357 452.646 63.3469 453.52 63.3469C454.223 63.3469 454.681 63.0473 455.009 62.8124L455.244 63.7169C454.745 64.0634 454.13 64.3629 453.273 64.3629C451.737 64.3629 450.869 63.3938 450.869 61.2501C450.869 59.1063 451.614 58.1489 453.256 58.1489C454.681 58.1489 455.226 59.0299 455.25 60.1811C454.88 60.2164 454.522 60.2457 454.159 60.2927H454.153Z" fill="#010101"/>
<path d="M457.772 56.1875V57.5031H456.558V56.1875H457.772ZM457.772 58.296V64.2223H456.558V58.296H457.772Z" fill="#010101"/>
<path d="M464 61.2854C464 63.3411 463.156 64.3631 461.56 64.3631C459.965 64.3631 459.109 63.4703 459.109 61.2619C459.109 59.0535 459.965 58.149 461.56 58.149C463.156 58.149 464 59.0418 464 61.2854ZM460.358 61.2619C460.358 62.8712 460.757 63.347 461.56 63.347C462.364 63.347 462.751 62.8653 462.751 61.2795C462.751 59.6937 462.364 59.1592 461.56 59.1592C460.757 59.1592 460.358 59.6291 460.358 61.256V61.2619ZM463.308 55.8525L462.018 57.6146H460.98L462.071 55.8525H463.308V55.8525Z" fill="#010101"/>
<path d="M466.428 58.8302C466.897 58.4837 467.472 58.1489 468.264 58.1489C469.331 58.1489 470 58.7421 470 60.0343V64.2161H468.786V60.2751C468.786 59.5468 468.54 59.2942 467.859 59.2942C467.414 59.2942 466.927 59.4822 466.546 59.7289V64.2161H465.332V58.2899H466.422V58.8244L466.428 58.8302Z" fill="#010101"/>
<path d="M331.318 21.323C331.4 22.4154 331.453 25.1466 331.453 26.1509C331.453 27.0671 331.442 30.1448 331.301 31.478L331.289 31.5838H336.087C338.427 31.5838 340.931 30.8379 340.931 28.7411C340.931 27.4254 339.981 26.4504 338.21 25.9218C339.512 25.5753 340.397 24.6649 340.397 23.6195C340.397 21.9103 338.433 21.2584 336.603 21.2231H331.307L331.318 21.323V21.323ZM335.025 22.3802C337.031 22.3802 337.776 22.8031 337.776 23.9014C337.776 24.1951 337.688 24.4535 337.506 24.6649C337.125 25.1289 336.362 25.3639 335.412 25.3169H335.365L334.814 26.7735H335.371C336.474 26.7382 337.435 27.0848 337.922 27.6956C338.151 27.9716 338.262 28.2888 338.262 28.6295C338.262 29.7865 337.26 30.3739 335.283 30.3739C334.955 30.3739 334.415 30.3739 334.069 30.3504C333.999 28.835 333.993 26.7676 333.993 26.1568C333.993 25.4344 334.022 23.8192 334.075 22.4448C334.298 22.4037 334.673 22.3743 335.019 22.3802H335.025Z" fill="#010101"/>
<path d="M351.998 21.2232H349.669L349.769 23.8251C349.81 25.1231 349.851 26.4505 349.939 27.7367C349.781 27.3491 349.652 27.1318 348.954 26.0981C348.93 26.0628 346.514 22.3097 345.67 21.2467L345.646 21.2173H342.931V21.3171C343.013 22.4037 343.071 25.1348 343.071 26.1451C343.071 27.0613 343.06 30.1389 342.919 31.4722L342.907 31.5779H345.318V31.4722C345.171 28.9349 345.171 26.3859 345.171 23.919C345.253 24.2068 345.37 24.477 345.746 25.0409C345.787 25.1055 349.928 31.1727 350.139 31.5309L350.162 31.5721H352.098L352.086 31.4663C351.945 30.1331 351.933 27.0554 351.933 26.1392C351.933 25.129 351.992 22.3978 352.068 21.3113V21.2114H351.992L351.998 21.2232Z" fill="#010101"/>
<path d="M354.801 21.3171C354.883 22.4155 354.936 25.1407 354.936 26.145C354.936 27.0613 354.924 30.1389 354.784 31.4663L354.772 31.572H357.646L357.634 31.4663C357.534 30.5207 357.499 28.7 357.487 27.2962C357.605 27.2962 358.015 27.3197 358.015 27.3197L358.42 27.3373C362.203 27.3373 364.044 26.3212 364.044 24.2186C364.044 21.8164 361.464 21.2584 359.306 21.2173H354.795V21.3171H354.801ZM358.326 22.4624C359.669 22.4389 360.619 22.7209 361.071 23.2788C361.276 23.5373 361.382 23.8544 361.382 24.2245C361.382 25.7222 359.71 26.0393 358.309 26.0393L357.74 26.0217C357.74 26.0217 357.599 26.0041 357.511 25.9865C357.505 25.6399 357.499 25.1936 357.499 24.6767C357.499 24.0189 357.505 23.2553 357.534 22.5388C357.71 22.5036 358.027 22.4742 358.332 22.4683L358.326 22.4624Z" fill="#010101"/>
<path d="M369.534 21.3171C369.616 22.4155 369.675 25.1407 369.675 26.145C369.675 27.0613 369.663 30.1389 369.522 31.4663L369.511 31.572H372.385L372.373 31.4663C372.273 30.5207 372.238 28.7 372.226 27.2962C372.349 27.2962 372.754 27.3197 372.754 27.3197L373.159 27.3373C376.942 27.3373 378.789 26.3212 378.789 24.2186C378.789 21.8164 376.208 21.2584 374.044 21.2173H369.54V21.3171H369.534ZM373.059 22.4624C374.402 22.4389 375.352 22.7209 375.804 23.2788C376.009 23.5373 376.115 23.8544 376.115 24.2245C376.115 25.7222 374.443 26.0393 373.036 26.0393L372.467 26.0217C372.467 26.0217 372.326 26.0041 372.244 25.9865C372.232 25.6399 372.226 25.1877 372.226 24.6708C372.226 24.0071 372.238 23.2553 372.261 22.5329C372.437 22.4977 372.748 22.4683 373.059 22.4624V22.4624Z" fill="#010101"/>
<path d="M382.63 21.2231H382.583L382.566 21.2819C382.032 22.7561 378.595 30.2916 378.056 31.4428L377.991 31.5838H380.454L380.472 31.525C380.689 30.8202 380.965 30.0156 381.287 29.1463C381.381 29.1463 383.322 29.117 383.322 29.117L385 29.1346C385 29.1346 385.299 29.1463 385.369 29.1463C385.815 30.2623 386.143 31.108 386.29 31.525L386.308 31.5838H389.164L384.566 21.2231H382.636H382.63ZM383.328 24.2773C383.557 24.7589 384.149 26.1509 384.812 27.7896C384.712 27.7896 384.595 27.7896 384.595 27.7896L383.334 27.8072C383.334 27.8072 382.026 27.7837 381.821 27.7778C382.355 26.4622 382.877 25.2758 383.334 24.2714L383.328 24.2773Z" fill="#010101"/>
<path d="M390.296 21.3171C390.372 22.4037 390.431 25.1407 390.431 26.145C390.431 27.0613 390.419 30.1389 390.272 31.4663L390.261 31.5779H393.135L393.123 31.4722C392.982 30.1389 392.97 27.0613 392.97 26.145C392.97 25.4226 393 23.8074 393.052 22.527C393.287 22.4977 393.61 22.4683 393.827 22.4624C395.17 22.4389 396.12 22.7209 396.571 23.2788C396.777 23.5314 396.882 23.8486 396.882 24.2186C396.882 25.4109 395.762 26.0158 394.718 26.0746C394.372 26.0922 394.108 26.0452 394.108 26.0452L393.909 26.01L394.038 26.192C395.047 27.6897 396.577 30.2916 397.217 31.5309L397.24 31.5779H400.319L400.225 31.4252C400.12 31.2549 398.102 28.2888 397.246 27.0202C397.246 27.0202 397.217 26.9791 397.193 26.9438C398.759 26.4681 399.533 25.5753 399.533 24.2186C399.533 21.8164 396.953 21.2643 394.788 21.2173H390.278L390.29 21.3113L390.296 21.3171Z" fill="#010101"/>
<path d="M404.413 21.2114H401.656L401.668 21.3113C401.744 22.4096 401.803 25.1407 401.803 26.1451C401.803 27.0613 401.791 30.1331 401.65 31.4663V31.572H404.512L404.501 31.4663C404.36 30.1331 404.348 27.0554 404.348 26.1451C404.348 25.1407 404.407 22.4096 404.483 21.3113V21.2114H404.413V21.2114Z" fill="#010101"/>
<path d="M407.099 21.323C407.181 22.4154 407.234 25.1466 407.234 26.1509C407.234 27.0671 407.222 30.1448 407.081 31.478L407.069 31.5838H411.867C414.213 31.5838 416.711 30.8379 416.711 28.7411C416.711 27.4254 415.761 26.4504 413.984 25.9218C415.286 25.5753 416.178 24.6649 416.178 23.6195C416.178 21.9103 414.219 21.2584 412.383 21.2231H407.093V21.323H407.099ZM410.811 22.3802C412.811 22.3802 413.562 22.8031 413.562 23.9014C413.562 24.1951 413.468 24.4535 413.292 24.6649C412.911 25.1289 412.148 25.3639 411.198 25.3169H411.151L410.6 26.7735H411.163C412.272 26.7382 413.222 27.0848 413.714 27.6956C413.943 27.9716 414.054 28.2888 414.054 28.6295C414.054 29.7865 413.052 30.3739 411.081 30.3739C410.741 30.3739 410.201 30.3739 409.861 30.3504C409.791 28.835 409.791 26.7676 409.791 26.1568C409.791 25.4285 409.82 23.8192 409.873 22.4448C410.09 22.4037 410.465 22.3743 410.811 22.3802V22.3802Z" fill="#010101"/>
<path d="M423.784 21.2114H421.849L421.831 21.2702C421.268 22.8383 417.626 30.7791 417.321 31.437L417.257 31.5779H419.726L419.744 31.5192C419.955 30.8144 420.236 30.0097 420.559 29.1405C420.647 29.1405 422.594 29.1111 422.594 29.1111L424.277 29.1346C424.277 29.1346 424.57 29.1346 424.647 29.1405C425.092 30.2564 425.421 31.0963 425.562 31.5192L425.579 31.5779H428.435L423.837 21.2173H423.79L423.784 21.2114ZM422.6 24.2656C422.828 24.7531 423.415 26.1392 424.084 27.772C423.984 27.772 423.867 27.7837 423.867 27.7837L422.6 27.8013C422.6 27.8013 421.298 27.772 421.092 27.772C421.62 26.4563 422.148 25.2758 422.606 24.2656H422.6Z" fill="#010101"/>
<path d="M429.221 23.9013C429.221 25.7221 431.051 26.4562 432.658 27.114C433.913 27.6191 435.203 28.1478 435.203 29.0111C435.203 29.2754 435.139 29.4869 435.004 29.6513C434.711 30.0096 434.089 30.1564 433.121 30.1153C432.177 30.0683 431.086 29.7571 429.89 29.1991L429.385 28.97V31.2313L429.714 31.3018L429.913 31.3429C430.517 31.4897 431.661 31.7599 432.822 31.7599C435.849 31.7599 437.661 30.5558 437.661 28.5413C437.661 26.6735 435.796 25.9276 434.148 25.2698C432.928 24.7823 431.673 24.2772 431.673 23.4843C431.673 23.2494 431.673 22.5563 433.227 22.5563C434.394 22.5563 435.532 23.032 436.148 23.2905L436.74 23.5372V21.2642L436.148 21.1584C435.567 21.0468 434.588 20.853 433.573 20.853C430.969 20.853 429.215 22.0747 429.215 23.9013H429.221Z" fill="#010101"/>
<path d="M338.514 36.999C338.016 36.7053 337.4 36.4586 336.608 36.4586C334.28 36.4586 333.471 38.3029 333.471 39.8828C333.471 42.0736 334.814 43.1778 336.62 43.1778C337.746 43.1778 338.591 42.6492 339.347 41.9855L339.359 43.8826C338.591 44.188 337.646 44.4582 336.221 44.4582C332.972 44.4582 330.937 42.4318 330.937 39.8534C330.937 37.1341 333.089 35.1724 336.632 35.1724C337.465 35.1724 338.268 35.3016 339.048 35.4954L338.509 36.9931L338.514 36.999Z" fill="#010101"/>
<path d="M346.362 35.3311C346.708 36.2532 349.652 42.8196 350.344 44.3056H347.875C347.734 43.8944 347.441 43.1544 347.054 42.1912C346.544 42.1794 346.016 42.1677 345.289 42.1677C344.608 42.1677 344.098 42.1794 343.511 42.1912C343.23 42.9488 343.001 43.6419 342.796 44.3056H340.644C341.154 43.1896 344.162 36.6526 344.638 35.3311H346.368H346.362ZM346.579 41.0106L345.3 37.9741C344.89 38.8433 344.444 39.8712 343.969 41.0106C344.35 41.0224 344.878 41.0341 345.3 41.0341C345.723 41.0341 346.145 41.0224 346.579 41.0106Z" fill="#010101"/>
<path d="M355.816 35.3311C357.699 35.3311 359.939 35.8597 359.939 37.933C359.939 39.1018 359.259 39.8829 357.916 40.2941C358.109 40.6758 360.274 43.9708 360.631 44.3056H357.957C357.37 43.1896 356.039 40.9342 355.065 39.4718C355.23 39.5129 355.476 39.5364 355.758 39.5364C356.538 39.5364 357.64 38.9725 357.64 37.933C357.64 36.6408 356.08 36.4059 355.3 36.4059C354.901 36.4059 354.52 36.4352 354.327 36.4587C354.274 37.5747 354.25 38.9725 354.25 39.601C354.25 40.3939 354.25 43.0487 354.391 44.3056H351.893C352.022 43.0663 352.045 41.4629 352.045 39.601C352.045 38.0387 352.033 36.1651 351.916 35.3311H355.822H355.816Z" fill="#010101"/>
<path d="M365.763 35.3311C369.54 35.3311 370.983 37.3163 370.983 39.8066C370.983 42.2969 369.575 44.3056 365.622 44.3056H362.291C362.42 43.1015 362.42 41.4511 362.42 39.6127C362.42 38.7435 362.42 36.4999 362.291 35.3311H365.757H365.763ZM364.713 36.4587C364.66 37.0461 364.649 38.5732 364.649 39.6127C364.649 40.9225 364.649 41.9445 364.701 43.1661C364.831 43.1779 365.036 43.2014 365.341 43.2014C367.505 43.2014 368.631 42.5201 368.631 39.7654C368.631 37.0108 367.481 36.3941 365.288 36.447L364.713 36.4587Z" fill="#010101"/>
<path d="M375.586 35.3311C375.51 36.3706 375.457 38.7259 375.457 39.6127C375.457 40.3939 375.469 43.0604 375.586 44.3056H373.105C373.234 43.0663 373.246 40.3998 373.246 39.6127C373.246 38.7435 373.193 36.3706 373.129 35.3311H375.586V35.3311Z" fill="#010101"/>
<path d="M385.082 35.3311V36.6291C384.378 36.588 382.624 36.541 382.032 36.541C381.598 36.541 381.111 36.541 380.613 36.5762C380.577 37.1283 380.56 37.8214 380.56 38.4205C380.56 38.7141 380.56 38.9843 380.572 39.2016L383.692 39.1488V40.5466L380.572 40.4174C380.583 41.5568 380.595 43.3247 380.712 44.2997H378.202C378.355 43.0604 378.355 40.3939 378.355 39.6069C378.355 38.7376 378.29 36.3648 378.214 35.3252H385.076L385.082 35.3311Z" fill="#010101"/>
</g>
<path d="M200.996 0C205.989 0 210.052 4.05622 210.052 9.04357V73.9564C210.052 78.9423 205.989 83 200.996 83H94.4289C89.435 83 85.3735 78.9423 85.3735 73.9564V9.04357C85.3735 4.05622 89.435 0 94.4289 0H200.996Z" fill="#FF7D00"/>
<path d="M210.052 41.4979L204.558 36.0049V9.09283C204.558 7.10116 202.942 5.4873 200.946 5.4873H94.4823C92.4866 5.4873 90.8691 7.10116 90.8691 9.09283V73.8927C90.8691 75.8843 92.4866 77.4997 94.4823 77.4997H200.946C202.942 77.4997 204.558 75.8858 204.558 73.8927V47.0416L210.052 41.4979Z" fill="#F7F7F7"/>
<path d="M128.263 35.6505C128.263 35.2801 128.331 34.9202 128.464 34.6078C128.614 34.2717 128.805 33.9742 129.055 33.7302C129.308 33.4789 129.596 33.2795 129.925 33.1442C130.601 32.8541 131.389 32.8512 132.082 33.1457C132.405 33.278 132.701 33.4759 132.947 33.7362C133.196 33.9727 133.389 34.2702 133.532 34.6138C133.677 34.9291 133.751 35.2786 133.751 35.649V40.7925H136.148V35.649C136.148 34.9365 136.003 34.2702 135.738 33.6678C135.48 33.0371 135.102 32.4912 134.636 32.042C134.168 31.5705 133.619 31.1942 132.996 30.9413C131.79 30.3984 130.265 30.3895 129.009 30.9413C128.389 31.1927 127.834 31.5705 127.357 32.042C126.906 32.4912 126.538 33.0356 126.264 33.6678C126.006 34.2746 125.88 34.938 125.88 35.649V40.7925H128.267V35.6505H128.263Z" fill="#0069B9"/>
<path d="M124.395 32.0437C123.886 31.5424 123.314 31.1572 122.681 30.9207C121.428 30.406 120.083 30.406 118.811 30.9207C118.184 31.1557 117.614 31.5424 117.113 32.0437C116.616 32.5405 116.235 33.1102 115.998 33.7304C115.745 34.3596 115.623 35.0007 115.623 35.6507C115.623 36.3066 115.745 36.9522 115.998 37.5933C116.235 38.2135 116.614 38.7862 117.113 39.2889C117.599 39.7738 118.159 40.1531 118.779 40.4075C119.404 40.6648 120.065 40.7957 120.755 40.7957C121.441 40.7957 122.103 40.6663 122.719 40.4075C123.345 40.1531 123.903 39.7753 124.395 39.2889L125.224 38.45L123.533 36.7603L122.697 37.5933C122.259 38.035 121.762 38.2894 121.175 38.3846C121.044 38.4054 120.907 38.4143 120.777 38.4143C120.457 38.4143 120.153 38.3563 119.845 38.2433L125.223 32.8781L124.395 32.0437ZM121.008 33.7021L118.159 36.5506C118.047 36.2665 117.997 35.9601 117.997 35.6507C117.997 34.8906 118.263 34.257 118.811 33.7111C119.243 33.2842 119.741 33.0298 120.301 32.9436C120.441 32.9242 120.581 32.9168 120.719 32.9168C121.039 32.9168 121.351 32.9703 121.652 33.0789C121.48 33.2515 121.264 33.4597 121.008 33.7021Z" fill="#0069B9"/>
<path d="M108.565 33.7304C108.836 33.4716 109.144 33.2663 109.476 33.1265C110.149 32.8603 110.866 32.8603 111.539 33.1265C111.877 33.2663 112.182 33.4716 112.455 33.7378L113.322 34.5678L114.991 32.8751L114.15 32.0437C113.645 31.5424 113.065 31.1572 112.437 30.9207C111.186 30.406 109.835 30.406 108.566 30.9207C107.948 31.1572 107.375 31.5424 106.871 32.0437C106.363 32.533 105.997 33.1102 105.753 33.7304C105.507 34.3596 105.385 35.0126 105.385 35.676C105.385 36.326 105.507 36.973 105.753 37.5918C105.997 38.212 106.365 38.7877 106.871 39.2874C107.37 39.7828 107.942 40.168 108.572 40.4313C109.206 40.6752 109.862 40.7927 110.511 40.7927C111.161 40.7927 111.808 40.6752 112.429 40.4313C113.065 40.1695 113.645 39.7842 114.15 39.2874L114.991 38.447L113.322 36.7588L112.446 37.5918C112.196 37.8684 111.89 38.0678 111.564 38.2001C111.231 38.337 110.881 38.4039 110.511 38.4039C109.749 38.4039 109.11 38.1421 108.569 37.5918C108.292 37.3211 108.097 37.0221 107.961 36.6844C107.827 36.3513 107.754 36.0032 107.754 35.6492C107.754 35.3041 107.824 34.9531 107.961 34.6169C108.083 34.2882 108.289 33.9967 108.565 33.7304Z" fill="#0069B9"/>
<path d="M161.298 32.9255H167.448V30.5337H161.298C160.86 30.5337 160.44 30.6229 160.046 30.791C159.673 30.9531 159.343 31.1733 159.063 31.4499C158.775 31.7326 158.549 32.0747 158.377 32.4629C158.217 32.8362 158.141 33.2527 158.141 33.6856C158.141 34.1214 158.215 34.5378 158.377 34.9395C158.549 35.3068 158.775 35.643 159.064 35.942C159.338 36.2216 159.67 36.4551 160.046 36.6247C160.44 36.7809 160.86 36.8612 161.298 36.8612H165.233C165.47 36.8612 165.649 36.9341 165.802 37.0784C165.949 37.2256 166.021 37.4011 166.021 37.6243C166.021 37.8563 165.949 38.0407 165.802 38.188C165.649 38.3263 165.47 38.4052 165.233 38.4052H159.104V40.794H165.233C165.675 40.794 166.085 40.7107 166.465 40.5619C166.85 40.3894 167.197 40.1574 167.47 39.8777C167.772 39.5817 168 39.2411 168.157 38.8692C168.326 38.481 168.416 38.0571 168.416 37.6258C168.416 37.184 168.328 36.769 168.157 36.4031C167.999 36.0119 167.771 35.6653 167.47 35.3901C167.194 35.1075 166.849 34.8844 166.465 34.7372C166.089 34.5616 165.674 34.4739 165.233 34.4739H161.298C161.079 34.4739 160.899 34.3995 160.759 34.2567C160.606 34.0946 160.536 33.9161 160.536 33.687C160.536 33.4729 160.606 33.2944 160.746 33.1456C160.897 32.9954 161.073 32.9255 161.298 32.9255Z" fill="#0069B9"/>
<path d="M140.063 33.7304C140.34 33.4716 140.638 33.2664 140.97 33.1265C141.646 32.8588 142.369 32.8588 143.04 33.1265C143.377 33.2664 143.682 33.4701 143.955 33.7364L144.817 34.5664L146.482 32.8737L145.645 32.0422C145.145 31.5409 144.565 31.1557 143.934 30.9192C142.681 30.4045 141.341 30.4045 140.072 30.9192C139.438 31.1557 138.866 31.5409 138.365 32.0422C137.865 32.5405 137.491 33.1087 137.251 33.7289C137.007 34.3581 136.88 35.0111 136.88 35.6745C136.88 36.326 137.007 36.9715 137.251 37.5903C137.492 38.2106 137.865 38.7832 138.365 39.286C138.866 39.7858 139.438 40.1665 140.072 40.4298C140.702 40.6737 141.362 40.7927 142.014 40.7927C142.661 40.7927 143.308 40.6752 143.93 40.4298C144.565 40.168 145.145 39.7858 145.645 39.286L146.482 38.4471L144.817 36.7573L143.95 37.5903C143.693 37.867 143.399 38.0663 143.063 38.1987C142.726 38.3355 142.372 38.4024 142.013 38.4024C141.243 38.4024 140.61 38.1407 140.062 37.5903C139.792 37.3196 139.595 37.0206 139.455 36.683C139.32 36.3498 139.25 36.0017 139.25 35.6477C139.25 35.3026 139.32 34.9546 139.455 34.6155C139.597 34.2882 139.794 33.9967 140.063 33.7304Z" fill="#0069B9"/>
<path d="M177.029 35.6504C177.029 36.0253 176.953 36.3882 176.805 36.7273C176.676 37.0635 176.478 37.361 176.22 37.6183C175.98 37.8608 175.69 38.0571 175.353 38.2014C174.68 38.4736 173.859 38.4676 173.21 38.2103C172.882 38.0586 172.584 37.8578 172.334 37.6258C172.095 37.3625 171.892 37.065 171.746 36.7288C171.609 36.3986 171.543 36.0357 171.543 35.6519V30.5337H169.143V35.6519C169.143 36.3555 169.278 37.0248 169.537 37.6481C169.808 38.2668 170.182 38.8216 170.635 39.2902C171.107 39.7617 171.658 40.1365 172.288 40.4087C172.908 40.6661 173.578 40.7969 174.272 40.7969C174.99 40.7969 175.659 40.6661 176.271 40.4087C176.887 40.138 177.438 39.7617 177.916 39.2902C178.387 38.8216 178.755 38.2639 179.013 37.6481C179.29 37.0248 179.428 36.357 179.428 35.6519V30.5337H177.029V35.6504V35.6504Z" fill="#0069B9"/>
<path d="M188.041 26.5982L188.042 30.5324H185.314C184.611 30.5324 183.936 30.6722 183.324 30.9429C182.694 31.1973 182.14 31.5721 181.672 32.0436C181.2 32.4914 180.829 33.0372 180.549 33.6679C180.292 34.2748 180.155 34.9382 180.155 35.6492C180.155 36.3527 180.292 37.0221 180.549 37.6453C180.829 38.2641 181.2 38.8189 181.668 39.2874C182.142 39.7589 182.694 40.1338 183.324 40.406C183.936 40.6633 184.611 40.7942 185.314 40.7942C186.009 40.7942 186.675 40.6633 187.305 40.406C187.929 40.1353 188.476 39.7589 188.932 39.2874C189.402 38.8189 189.766 38.2656 190.023 37.6453C190.3 37.0221 190.436 36.3542 190.436 35.6492V26.5967H188.041V26.5982ZM188.042 35.6507C188.042 36.027 187.968 36.3884 187.816 36.7276C187.679 37.0637 187.488 37.3627 187.229 37.6185C186.988 37.861 186.695 38.0573 186.358 38.2016C185.721 38.4738 184.898 38.4678 184.237 38.2105C183.896 38.0588 183.597 37.858 183.342 37.626C183.102 37.3627 182.9 37.0652 182.757 36.729C182.62 36.3988 182.556 36.0359 182.556 35.6521C182.556 35.2773 182.62 34.9218 182.757 34.6095C182.901 34.2733 183.096 33.9758 183.342 33.7319C183.597 33.4805 183.896 33.2856 184.237 33.1458C184.574 33.006 184.939 32.9272 185.314 32.9272H188.042V35.6507Z" fill="#0069B9"/>
<path d="M150.269 40.4058C150.883 40.6631 151.555 40.794 152.255 40.794C152.967 40.794 153.637 40.6631 154.253 40.4058C154.866 40.1351 155.424 39.7558 155.887 39.2873C156.359 38.8187 156.732 38.261 156.989 37.6466C157.268 37.0219 157.402 36.3541 157.402 35.6505C157.402 34.938 157.268 34.2717 156.989 33.6693C156.732 33.0386 156.361 32.4927 155.887 32.0435C155.424 31.572 154.866 31.1957 154.253 30.9517C153.046 30.4058 151.521 30.3925 150.269 30.9428C149.639 31.1942 149.088 31.572 148.612 32.042C148.162 32.4912 147.785 33.0356 147.514 33.6678C147.261 34.2746 147.13 34.938 147.13 35.649C147.13 36.3526 147.261 37.0219 147.514 37.6452C147.787 38.2639 148.153 38.8187 148.612 39.2858C149.088 39.7558 149.633 40.1351 150.269 40.4058ZM149.702 34.6078C149.851 34.2717 150.046 33.9742 150.287 33.7302C150.541 33.4789 150.841 33.284 151.182 33.1442C151.521 33.0044 151.873 32.9255 152.253 32.9255C152.63 32.9255 152.988 33.0044 153.329 33.1472C153.662 33.284 153.956 33.4789 154.2 33.7377C154.458 33.9786 154.644 34.2717 154.785 34.6153C154.93 34.9306 155.004 35.2801 155.004 35.649C155.004 36.0239 154.93 36.3913 154.781 36.7259C154.645 37.0621 154.449 37.3596 154.195 37.6169C153.956 37.8564 153.662 38.0557 153.33 38.1985C152.655 38.4707 151.844 38.4647 151.184 38.2074C150.844 38.0557 150.539 37.8549 150.295 37.6228C150.049 37.3596 149.849 37.0621 149.701 36.7259C149.568 36.3957 149.498 36.0343 149.498 35.649C149.499 35.2801 149.569 34.9261 149.702 34.6078Z" fill="#0069B9"/>
<path d="M105.773 53.5755C106.508 53.9727 107.532 54.2776 108.712 54.2776C109.614 54.2776 110.471 54.0946 110.471 53.2393C110.471 51.2521 105.422 52.506 105.422 48.6239C105.422 46.0566 107.931 45.3545 110.073 45.3545C111.098 45.3545 112.109 45.5077 112.827 45.7516L112.644 47.9515C111.91 47.6154 111.083 47.4622 110.273 47.4622C109.553 47.4622 108.36 47.5232 108.36 48.4558C108.36 50.1827 113.409 49.021 113.409 52.872C113.409 55.6371 111.084 56.3867 108.712 56.3867C107.717 56.3867 106.478 56.2335 105.529 55.9286L105.773 53.5755Z" fill="#FC001B"/>
<path d="M121.079 50.5203C120.574 50.2153 120.07 50.077 119.411 50.077C118.218 50.077 117.299 50.9025 117.299 52.2769C117.299 53.5457 118.37 54.3697 119.565 54.3697C120.192 54.3697 120.819 54.2314 121.277 53.9875L121.338 56.0357C120.65 56.2647 119.824 56.3867 119.09 56.3867C116.458 56.3867 114.453 54.8591 114.453 52.2308C114.453 49.5876 116.458 48.0601 119.09 48.0601C119.916 48.0601 120.65 48.1984 121.277 48.5033L121.079 50.5203Z" fill="#FC001B"/>
<path d="M122.044 52.2308C122.044 49.5876 124.049 48.0601 126.681 48.0601C129.313 48.0601 131.317 49.5876 131.317 52.2308C131.317 54.8591 129.313 56.3867 126.681 56.3867C124.049 56.3882 122.044 54.8591 122.044 52.2308ZM128.471 52.2308C128.471 51.0394 127.951 49.9848 126.681 49.9848C125.41 49.9848 124.891 51.0394 124.891 52.2308C124.891 53.4074 125.41 54.462 126.681 54.462C127.951 54.462 128.471 53.4074 128.471 52.2308Z" fill="#FC001B"/>
<path d="M131.856 48.243H133.478V46.4551L136.186 45.6147V48.243H138.113V50.1678H136.186V53.101C136.186 54.0633 136.415 54.5527 137.287 54.5527C137.562 54.5527 137.853 54.4917 138.128 54.4456L138.22 56.2335C137.701 56.2945 137.179 56.3867 136.491 56.3867C134.028 56.3867 133.432 55.3024 133.432 53.4074V50.1678H131.856V48.243V48.243Z" fill="#FC001B"/>
<path d="M142.34 46.9447H139.586V44.9277H142.34V46.9447ZM139.586 48.2432H142.34V56.2039H139.586V48.2432Z" fill="#FC001B"/>
<path d="M149.361 56.2037C149.346 55.7768 149.3 55.3633 149.3 54.9513H149.27C148.643 55.9449 147.878 56.3882 146.746 56.3882C145.17 56.3882 143.763 55.6088 143.763 53.8819C143.763 51.4529 146.409 51.1613 147.879 51.1613C148.323 51.1613 148.813 51.2075 149.165 51.2684C149.15 50.1841 148.338 49.8926 147.343 49.8926C146.455 49.8926 145.568 50.0607 144.804 50.489L144.758 48.6253C145.736 48.2281 146.762 48.0601 147.94 48.0601C149.975 48.0601 151.735 48.9317 151.735 51.3607V54.3251C151.735 54.9513 151.767 55.5775 151.889 56.2037H149.361ZM147.464 54.5542C148.505 54.5542 149.162 53.6067 149.162 52.6741C148.81 52.6592 148.412 52.628 147.998 52.628C147.065 52.628 146.33 52.918 146.33 53.6825C146.33 54.2329 146.82 54.5542 147.464 54.5542Z" fill="#FC001B"/>
<path d="M153.39 44.7432H156.158V49.2664H156.19C156.893 48.3799 157.826 48.0586 158.929 48.0586C161.131 48.0586 162.341 50.1515 162.341 52.0777C162.341 54.4308 161.072 56.3868 158.699 56.3868C157.43 56.3868 156.312 55.6683 155.96 54.7818H155.929V56.2023H153.39V44.7432ZM157.826 50.1678C156.817 50.1678 156.143 51.0543 156.143 52.2458C156.143 53.4074 156.909 54.2776 157.826 54.2776C158.868 54.2776 159.495 53.4074 159.495 52.1387C159.495 51.0856 158.897 50.1678 157.826 50.1678Z" fill="#FC001B"/>
<path d="M168.769 56.2037C168.754 55.7768 168.708 55.3633 168.708 54.9513H168.677C168.05 55.9449 167.284 56.3882 166.152 56.3882C164.576 56.3882 163.169 55.6088 163.169 53.8819C163.169 51.4529 165.816 51.1613 167.286 51.1613C167.729 51.1613 168.219 51.2075 168.571 51.2684C168.556 50.1841 167.744 49.8926 166.751 49.8926C165.863 49.8926 164.976 50.0607 164.211 50.489L164.165 48.6253C165.145 48.2281 166.17 48.0601 167.348 48.0601C169.383 48.0601 171.143 48.9317 171.143 51.3607V54.3251C171.143 54.9513 171.173 55.5775 171.296 56.2037H168.769ZM166.871 54.5542C167.913 54.5542 168.569 53.6067 168.569 52.6741C168.218 52.6592 167.82 52.628 167.406 52.628C166.472 52.628 165.738 52.918 165.738 53.6825C165.74 54.2329 166.228 54.5542 166.871 54.5542Z" fill="#FC001B"/>
<path d="M172.829 48.243H175.338V49.7096H175.369C175.921 48.5628 177.021 48.0586 178.275 48.0586C180.448 48.0586 181.321 49.5862 181.321 51.2372V56.2037H178.567V52.3528C178.567 50.855 178.047 50.3507 177.297 50.3507C176.165 50.3507 175.584 51.1301 175.584 52.8422V56.2037H172.83V48.243H172.829Z" fill="#FC001B"/>
<path d="M183.009 44.7432H185.763V51.5898H185.794L188.088 48.2431H191.102L188.333 51.8947L191.331 56.2038H187.997L185.794 52.2621H185.763V56.2038H183.009V44.7432Z" fill="#FC001B"/>
<path d="M10.5342 34.8387V34.8238C10.5342 33.2814 11.6467 32.0186 13.2433 32.0186C14.2233 32.0186 14.8086 32.3592 15.2912 32.8545L14.5629 33.7306C14.1623 33.3513 13.7542 33.1193 13.2344 33.1193C12.3586 33.1193 11.7286 33.8778 11.7286 34.809V34.8238C11.7286 35.7535 12.3438 36.5284 13.2344 36.5284C13.8286 36.5284 14.1921 36.28 14.6001 35.8933L15.3284 36.6608C14.7938 37.2573 14.201 37.6291 13.1986 37.6291C11.6691 37.6291 10.5342 36.3975 10.5342 34.8387Z" fill="#0069B9"/>
<path d="M15.6738 34.8387V34.8238C15.6738 33.2814 16.84 32.0186 18.4426 32.0186C20.0451 32.0186 21.1949 33.2665 21.1949 34.8075V34.8224C21.1949 36.3648 20.0302 37.6276 18.4277 37.6276C16.8251 37.6276 15.6738 36.3812 15.6738 34.8387ZM20.0004 34.8387V34.8238C20.0004 33.8942 19.3481 33.1193 18.4277 33.1193C17.5072 33.1193 16.8698 33.8778 16.8698 34.809V34.8238C16.8698 35.7535 17.5221 36.5284 18.4426 36.5284C19.363 36.5284 20.0004 35.7698 20.0004 34.8387Z" fill="#0069B9"/>
<path d="M22.0874 32.1123H24.4614C25.1212 32.1123 25.6336 32.3057 25.9746 32.6627C26.2651 32.9646 26.42 33.39 26.42 33.9032V33.918C26.42 34.7941 25.9672 35.3445 25.3074 35.6003L26.5763 37.537H25.2404L24.1278 35.8011H23.2297V37.537H22.0874V32.1123ZM24.3885 34.7465C24.944 34.7465 25.2642 34.4372 25.2642 33.979V33.9642C25.2642 33.4525 24.9231 33.1892 24.3661 33.1892H23.2312V34.7465H24.3885Z" fill="#0069B9"/>
<path d="M27.3628 32.1123H29.7368C30.3966 32.1123 30.909 32.3057 31.25 32.6627C31.5405 32.9646 31.6953 33.39 31.6953 33.9032V33.918C31.6953 34.7941 31.2426 35.3445 30.5828 35.6003L31.8517 37.537H30.5158L29.4032 35.8011H28.5051V37.537H27.3628V32.1123V32.1123ZM29.6624 34.7465C30.2179 34.7465 30.5381 34.4372 30.5381 33.979V33.9642C30.5381 33.4525 30.197 33.1892 29.64 33.1892H28.5051V34.7465H29.6624Z" fill="#0069B9"/>
<path d="M32.6363 32.1123H36.5548V33.1743H33.7711V34.275H36.2197V35.337H33.7711V36.4764H36.5905V37.5384H32.6348V32.1123H32.6363Z" fill="#0069B9"/>
<path d="M37.5601 32.1123H39.5856C41.2179 32.1123 42.3454 33.2829 42.3454 34.809V34.8239C42.3454 36.35 41.2179 37.5355 39.5856 37.5355H37.5601V32.1123V32.1123ZM39.5856 36.4586C40.5209 36.4586 41.1509 35.7996 41.1509 34.8388V34.8239C41.1509 33.863 40.5209 33.1892 39.5856 33.1892H38.7024V36.4601H39.5856V36.4586Z" fill="#0069B9"/>
<path d="M42.9741 34.8387V34.8238C42.9741 33.2814 44.1403 32.0186 45.7428 32.0186C47.3454 32.0186 48.4952 33.2665 48.4952 34.8075V34.8224C48.4952 36.3648 47.3305 37.6276 45.7279 37.6276C44.1254 37.6291 42.9741 36.3812 42.9741 34.8387ZM47.3007 34.8387V34.8238C47.3007 33.8942 46.6484 33.1193 45.7279 33.1193C44.8075 33.1193 44.1701 33.8778 44.1701 34.809V34.8238C44.1701 35.7535 44.8224 36.5284 45.7428 36.5284C46.6633 36.5284 47.3007 35.7698 47.3007 34.8387Z" fill="#0069B9"/>
<path d="M49.3872 32.1123H51.7613C52.4225 32.1123 52.9334 32.3057 53.2759 32.6627C53.5649 32.9646 53.7213 33.39 53.7213 33.9032V33.918C53.7213 34.7941 53.2685 35.3445 52.6087 35.6003L53.8776 37.537H52.5417L51.4291 35.8011H50.531V37.537H49.3872V32.1123V32.1123ZM51.6868 34.7465C52.2438 34.7465 52.5625 34.4372 52.5625 33.979V33.9642C52.5625 33.4525 52.2215 33.1892 51.6644 33.1892H50.5295V34.7465H51.6868Z" fill="#0069B9"/>
<path d="M54.6611 32.1123H58.5796V33.1743H55.7975V34.275H58.246V35.337H55.7975V36.4764H58.6169V37.5384H54.6611V32.1123Z" fill="#0069B9"/>
<path d="M59.1782 36.7458L59.8529 35.901C60.3206 36.3041 60.8106 36.5599 61.4033 36.5599C61.871 36.5599 62.1525 36.3665 62.1525 36.0482V36.0334C62.1525 35.7314 61.9738 35.5767 61.1069 35.3432C60.0614 35.0636 59.3852 34.7616 59.3852 33.6847V33.6698C59.3852 32.6867 60.1418 32.0352 61.2038 32.0352C61.9604 32.0352 62.6067 32.2836 63.1325 32.7253L62.5382 33.6237C62.078 33.2905 61.6252 33.0897 61.1874 33.0897C60.7495 33.0897 60.5186 33.2995 60.5186 33.5627V33.5776C60.5186 33.9346 60.7421 34.0506 61.6401 34.2901C62.6946 34.5772 63.2874 34.9713 63.2874 35.9173V35.9322C63.2874 37.0091 62.501 37.6145 61.3795 37.6145C60.5961 37.6145 59.8023 37.3274 59.1782 36.7458Z" fill="#0069B9"/>
<path d="M66.2109 32.1123H68.2365C69.8688 32.1123 70.9963 33.2829 70.9963 34.809V34.8239C70.9963 36.35 69.8688 37.5355 68.2365 37.5355H66.2109V32.1123V32.1123ZM68.2365 36.4586C69.1718 36.4586 69.8018 35.7996 69.8018 34.8388V34.8239C69.8018 33.863 69.1718 33.1892 68.2365 33.1892H67.3533V36.4601H68.2365V36.4586Z" fill="#0069B9"/>
<path d="M71.8887 32.1123H75.8072V33.1743H73.0251V34.275H75.4736V35.337H73.0251V36.4764H75.8444V37.5384H71.8887V32.1123Z" fill="#0069B9"/>
<path d="M0 50.7529L1.4283 48.9665C2.41723 49.8188 3.45383 50.3602 4.70936 50.3602C5.6983 50.3602 6.29553 49.9497 6.29553 49.2774V49.2447C6.29553 48.6051 5.91872 48.2778 4.08085 47.7855C1.86766 47.195 0.439362 46.5554 0.439362 44.2766V44.2439C0.439362 42.1615 2.04043 40.7856 4.28638 40.7856C5.88745 40.7856 7.25319 41.3107 8.36872 42.2448L7.11319 44.1472C6.14064 43.4422 5.18298 43.0168 4.2566 43.0168C3.33021 43.0168 2.84319 43.46 2.84319 44.0163V44.0491C2.84319 44.8032 3.31383 45.0486 5.21425 45.5573C7.44383 46.1642 8.69936 47.0001 8.69936 48.9992V49.032C8.69936 51.3107 7.03574 52.5899 4.66468 52.5899C2.99809 52.5884 1.31809 51.9815 0 50.7529Z" fill="#0069B9"/>
<path d="M10.4883 40.9492H18.7781V43.1952H12.8906V45.5231H18.0706V47.7691H12.8906V50.1787H18.8555V52.4247H10.4883V40.9492Z" fill="#0069B9"/>
<path d="M20.0752 46.719V46.6863C20.0752 43.4244 22.5088 40.7515 25.836 40.7515C27.8139 40.7515 29.0069 41.3092 30.1537 42.3252L28.6316 44.2425C27.7841 43.5047 27.0305 43.0778 25.7586 43.0778C23.9997 43.0778 22.6026 44.7006 22.6026 46.6521V46.6848C22.6026 48.7836 23.9848 50.3246 25.9314 50.3246C26.8101 50.3246 27.595 50.0955 28.2086 49.6359V47.9967H25.775V45.8162H30.5484V50.8005C29.418 51.8001 27.8631 52.6197 25.8539 52.6197C22.4299 52.6211 20.0752 50.1133 20.0752 46.719Z" fill="#0069B9"/>
<path d="M32.4277 47.5058V40.9478H34.845V47.4404C34.845 49.3086 35.7401 50.2769 37.216 50.2769C38.692 50.2769 39.5871 49.3428 39.5871 47.5222V40.9478H42.0043V47.424C42.0043 50.9001 40.1367 52.6047 37.1848 52.6047C34.2328 52.6047 32.4277 50.8838 32.4277 47.5058Z" fill="#0069B9"/>
<path d="M44.2534 40.9478H49.277C50.6741 40.9478 51.7583 41.3583 52.4807 42.1124C53.0928 42.752 53.4219 43.6534 53.4219 44.7362V44.769C53.4219 46.6208 52.4643 47.7855 51.0672 48.3269L53.7526 52.4248H50.9272L48.5726 48.7523H46.6736V52.4248H44.2549L44.2534 40.9478ZM49.1207 46.5226C50.2972 46.5226 50.9734 45.8667 50.9734 44.8998V44.8671C50.9734 43.7843 50.2511 43.228 49.0745 43.228H46.6721V46.5226H49.1207Z" fill="#0069B9"/>
<path d="M54.6255 46.719V46.6863C54.6255 43.4244 57.0904 40.7515 60.4817 40.7515C63.8729 40.7515 66.3066 43.3902 66.3066 46.6536V46.6863C66.3066 49.9482 63.8417 52.6211 60.4504 52.6211C57.0591 52.6211 54.6255 49.9824 54.6255 46.719ZM63.7776 46.719V46.6863C63.7776 44.7184 62.3955 43.0793 60.4489 43.0793C58.5023 43.0793 57.1529 44.6857 57.1529 46.6536V46.6863C57.1529 48.6542 58.5351 50.2933 60.4817 50.2933C62.4283 50.2933 63.7776 48.6869 63.7776 46.719Z" fill="#0069B9"/>
<path d="M67.1465 50.7514L68.5748 48.965C69.5637 49.8173 70.6003 50.3588 71.8558 50.3588C72.8448 50.3588 73.442 49.9482 73.442 49.2759V49.2432C73.442 48.6036 73.0652 48.2764 71.2273 47.784C69.0141 47.1935 67.5858 46.5539 67.5858 44.2752V44.2425C67.5858 42.1601 69.1869 40.7842 71.4329 40.7842C73.0339 40.7842 74.3997 41.3092 75.5152 42.2433L74.2597 44.1458C73.2871 43.4407 72.3295 43.0153 71.4031 43.0153C70.4767 43.0153 69.9897 43.4586 69.9897 44.0149V44.0476C69.9897 44.8017 70.4603 45.0471 72.3607 45.5558C74.5903 46.1627 75.8458 46.9987 75.8458 48.9978V49.0305C75.8458 51.3092 74.1822 52.5884 71.8112 52.5884C70.1446 52.5884 68.4661 51.9815 67.1465 50.7514Z" fill="#0069B9"/>
<defs>
<linearGradient id="paint0_linear_140_11903" x1="307.858" y1="16.2306" x2="307.858" y2="49.28" gradientUnits="userSpaceOnUse">
<stop stop-color="#00784B"/>
<stop offset="0.6" stop-color="#8BC9AE"/>
<stop offset="1" stop-color="#029660"/>
</linearGradient>
<linearGradient id="paint1_linear_140_11903" x1="307.812" y1="9.22382" x2="307.812" y2="46.3611" gradientUnits="userSpaceOnUse">
<stop stop-color="#029660"/>
<stop offset="0.3" stop-color="#8BC9AE"/>
<stop offset="0.55" stop-color="#029660"/>
<stop offset="0.84" stop-color="#00784B"/>
<stop offset="0.89" stop-color="#008053"/>
<stop offset="0.98" stop-color="#00996C"/>
<stop offset="1" stop-color="#009E71"/>
</linearGradient>
<linearGradient id="paint2_linear_140_11903" x1="313.753" y1="44.3112" x2="313.753" y2="20.2774" gradientUnits="userSpaceOnUse">
<stop stop-color="#00A87D"/>
<stop offset="1" stop-color="#029660"/>
</linearGradient>
<linearGradient id="paint3_linear_140_11903" x1="298.862" y1="44.3114" x2="298.862" y2="20.2717" gradientUnits="userSpaceOnUse">
<stop stop-color="#00A87D"/>
<stop offset="1" stop-color="#029660"/>
</linearGradient>
<linearGradient id="paint4_linear_140_11903" x1="303.501" y1="44.3111" x2="303.501" y2="20.2832" gradientUnits="userSpaceOnUse">
<stop stop-color="#00A87D"/>
<stop offset="1" stop-color="#029660"/>
</linearGradient>
<linearGradient id="paint5_linear_140_11903" x1="307.512" y1="44.311" x2="307.512" y2="20.2771" gradientUnits="userSpaceOnUse">
<stop stop-color="#00A87D"/>
<stop offset="1" stop-color="#029660"/>
</linearGradient>
<clipPath id="clip0_140_11903">
<rect width="178" height="50" fill="white" transform="translate(292 17)"/>
</clipPath>
</defs>
</svg>
