<svg width="213" height="45" viewBox="0 0 213 45" fill="none" xmlns="http://www.w3.org/2000/svg">
<path d="M20.5745 40.1032C20.9081 39.7198 21.2417 39.3496 21.6959 39.0852C23.4135 38.1002 25.7414 38.8273 26.4157 40.7114C26.9338 42.1658 26.1815 43.7193 24.7691 44.3407C23.2644 45.0017 21.3694 44.5919 20.4823 42.9855C20.3687 42.7739 20.2551 42.7078 20.0067 42.6814C19.2473 42.5888 18.4737 42.5029 17.7356 42.3244C16.6923 42.0732 15.656 41.7823 14.6482 41.4254C12.668 40.7312 10.844 39.7661 9.16194 38.5695C7.49406 37.3928 6.032 36.031 4.75447 34.4973C3.3137 32.7521 2.18522 30.8416 1.38321 28.7791C0.893494 27.5297 0.538625 26.2406 0.304412 24.9184C0.0347114 23.3848 -0.0575545 21.8378 0.0347114 20.2909C0.0914905 19.3258 0.226341 18.3672 0.432165 17.4153C0.687671 16.2452 1.03544 15.0949 1.48258 13.9777C1.86584 13.0126 2.34846 12.0871 2.88076 11.1814C4.34992 8.68916 6.2946 6.58035 8.66512 4.80207C10.5388 3.4006 12.6113 2.30983 14.8611 1.50994C15.9683 1.1133 17.111 0.802595 18.275 0.584442C19.3183 0.386121 20.3758 0.267128 21.4475 0.1878C22.8315 0.0820285 24.2084 0.141525 25.5782 0.28035C26.9977 0.425785 28.3958 0.710045 29.7656 1.10669C31.5258 1.61571 33.1937 2.31645 34.7693 3.19567C35.2519 3.46671 35.7274 3.75097 36.1746 4.07489C36.7708 4.49798 36.8843 5.22515 36.4869 5.79367C36.0681 6.40186 35.2519 6.58035 34.5706 6.19693C33.9247 5.83334 33.293 5.44331 32.6401 5.09294C31.6464 4.55747 30.596 4.12117 29.503 3.80385C28.5804 3.53281 27.6435 3.28822 26.6925 3.0899C26.0608 2.95768 25.4078 2.89158 24.762 2.85191C23.4561 2.76597 22.143 2.75936 20.83 2.87836C18.6227 3.08329 16.5148 3.63198 14.5063 4.50459C11.4118 5.84656 8.84966 7.79011 6.80561 10.3352C5.40743 12.0672 4.37121 13.9777 3.68986 16.0469C3.27821 17.2963 3.02981 18.5788 2.90205 19.8877C2.7672 21.3288 2.83108 22.7567 3.02271 24.1846C3.12207 24.9449 3.3066 25.6985 3.52662 26.4323C3.94537 27.8271 4.52026 29.1625 5.26548 30.4384C6.73464 32.9372 8.70061 35.0262 11.1705 36.6987C12.6539 37.7101 14.2792 38.5034 16.0038 39.105C17.4304 39.5942 18.8925 39.9247 20.3971 40.09C20.4681 40.1032 20.5178 40.1032 20.5745 40.1032ZM23.3709 40.3544C22.5618 40.3214 21.9656 41.0023 21.9585 41.6303C21.9514 42.3376 22.5689 42.926 23.3354 42.9392C24.1232 42.9524 24.7691 42.3707 24.7691 41.6435C24.762 41.0948 24.2794 40.3412 23.3709 40.3544Z" fill="#0282A6"/>
<path d="M28.2608 30.2468C24.045 32.2433 20.0704 31.959 16.2378 29.4469C15.4429 29.7576 14.6054 29.7907 13.775 29.4998C13.1008 29.2618 12.5614 28.8454 12.1852 28.2702C11.4258 27.1001 11.5891 25.6127 12.6182 24.6145C13.6402 23.6229 15.2797 23.418 16.5643 24.1187C17.2953 24.5154 17.778 25.0971 18.0122 25.8573C18.2393 26.5977 18.1541 27.3183 17.8348 28.0124C20.546 30.0155 25.0457 30.2336 28.2608 27.8207C31.5114 25.3747 32.1005 21.4149 30.9081 18.8698C30.5036 18.8698 30.099 18.9029 29.7016 18.8632C28.6299 18.764 27.8279 18.2484 27.3098 17.3824C26.309 15.6967 27.1678 13.4689 29.4177 12.9929C31.5611 12.5434 33.2574 14.0572 33.3212 15.7496C33.3425 16.3577 33.2432 16.9329 32.8812 17.4419C32.7605 17.6138 32.7747 17.7592 32.8457 17.9311C33.4845 19.4185 33.74 20.9588 33.5555 22.552C33.3212 24.5616 32.5547 26.373 31.1352 27.9199C30.7733 28.3231 30.3758 28.6999 29.9855 29.1032C31.994 31.364 34.0026 33.6249 36.0395 35.9254C36.4725 35.5883 36.8983 35.2842 37.3029 34.9537C38.6727 33.8232 39.8366 32.5275 40.8161 31.0864C41.8168 29.6122 42.562 28.0322 43.0659 26.3531C43.7118 24.2113 43.9176 22.0231 43.6905 19.8085C43.5415 18.341 43.1795 16.913 42.6543 15.5182C41.9162 13.5548 40.8303 11.7765 39.4321 10.1635C39.0985 9.77348 38.9779 9.36362 39.1695 8.86781C39.4392 8.16047 40.6032 7.77044 41.2916 8.54389C41.8168 9.13224 42.2994 9.75365 42.7608 10.3883C43.9105 11.9682 44.748 13.6936 45.3584 15.5116C45.7417 16.6486 45.9759 17.8253 46.1462 19.0086C46.352 20.4762 46.3662 21.9504 46.2243 23.418C45.8907 26.796 44.7125 29.9031 42.7111 32.7391C41.682 34.1934 40.4754 35.509 39.0772 36.6658C38.4456 37.1881 37.7642 37.664 37.09 38.1532C36.948 38.259 36.7706 38.3317 36.5931 38.3978C36.0608 38.5962 35.5995 38.4507 35.2375 38.0805C34.7833 37.6178 34.3646 37.122 33.9316 36.6394C32.4412 34.9669 30.9507 33.301 29.4603 31.6285C29.1125 31.2451 28.7718 30.855 28.4311 30.4716C28.3744 30.3923 28.3105 30.3129 28.2608 30.2468ZM16.3301 26.6837C16.3301 26.0226 15.7978 25.3946 14.9319 25.3946C14.208 25.3946 13.5692 25.8705 13.5337 26.6903C13.4982 27.391 14.1938 27.9992 14.9674 27.9926C15.7339 27.986 16.3372 27.4108 16.3301 26.6837ZM28.7434 15.9214C28.7434 16.642 29.3467 17.2039 30.1203 17.2105C30.8868 17.2171 31.5114 16.642 31.5185 15.928C31.5256 15.2075 30.8939 14.6191 30.1132 14.6191C29.3467 14.6257 28.7434 15.2009 28.7434 15.9214Z" fill="#47BCCA"/>
<path d="M148.263 25.8776C147.199 25.8776 146.148 25.8776 145.048 25.8776C145.041 25.7255 145.034 25.5801 145.034 25.4347C145.034 23.6101 145.034 21.7856 145.027 19.9544C145.027 19.5049 145.013 19.0487 144.963 18.5992C144.878 17.9117 144.658 17.2572 144.04 16.8143C143.238 16.2392 142.344 16.1995 141.443 16.5895C140.378 17.0589 139.888 17.9051 139.775 18.9562C139.732 19.366 139.753 19.7891 139.753 20.199C139.753 21.9508 139.753 23.696 139.753 25.4479C139.753 25.5801 139.753 25.7189 139.753 25.8644C138.639 25.8644 137.582 25.8644 136.475 25.8644C136.475 25.6925 136.475 25.547 136.475 25.395C136.475 23.392 136.467 21.3889 136.475 19.3859C136.482 18.6785 136.347 18.0108 135.949 17.4027C134.927 15.8359 132.521 16.0012 131.599 17.4555C131.215 18.0571 131.052 18.705 131.059 19.3991C131.066 21.4021 131.059 23.4052 131.059 25.4082C131.059 25.5536 131.059 25.7057 131.059 25.871C129.945 25.871 128.88 25.871 127.802 25.871C127.802 21.812 127.802 17.7795 127.802 13.7469C128.107 13.6742 130.229 13.6544 130.797 13.7205C130.868 14.137 130.946 14.5667 131.031 15.0757C131.414 14.6129 131.783 14.2031 132.301 13.9519C132.834 13.6941 133.401 13.5486 133.998 13.5024C134.58 13.4561 135.154 13.4891 135.729 13.6147C136.318 13.7403 136.844 13.9915 137.305 14.3551C137.759 14.7121 138.071 15.1616 138.341 15.6905C138.511 15.4922 138.66 15.3071 138.817 15.1352C139.37 14.5336 140.009 14.0444 140.825 13.7932C141.365 13.628 141.925 13.542 142.5 13.5354C143.465 13.5222 144.409 13.6081 145.311 13.9717C146.638 14.5138 147.447 15.4657 147.887 16.7151C148.157 17.4886 148.27 18.2885 148.27 19.095C148.277 21.2501 148.27 23.3986 148.27 25.5536C148.285 25.6594 148.277 25.7586 148.263 25.8776Z" fill="#0282A6"/>
<path d="M78.773 25.8835C77.68 25.8835 76.6296 25.8835 75.5295 25.8835C75.5295 25.7182 75.5295 25.5727 75.5295 25.4207C75.5224 23.2788 75.5224 21.137 75.5153 19.0017C75.5153 18.4134 75.345 17.8581 75.0256 17.349C74.5217 16.5359 73.4925 16.1988 72.5344 16.4037C71.3562 16.6549 70.6678 17.3821 70.3626 18.453C70.2561 18.8232 70.2277 19.1934 70.2277 19.5702C70.2348 21.5204 70.2277 23.4705 70.2277 25.4273C70.2277 25.5661 70.2277 25.6984 70.2277 25.8901C69.156 25.9099 68.1056 25.8967 67.0126 25.8967C67.0055 25.738 66.9984 25.6058 66.9984 25.4736C66.9984 23.4705 66.9984 21.4675 66.9984 19.4711C66.9984 18.8232 66.8778 18.1952 66.5584 17.6135C65.6002 15.8352 63.102 16.0137 62.1793 17.3556C61.7819 17.9308 61.5405 18.5456 61.5405 19.2331C61.5405 21.2824 61.5334 23.3383 61.5334 25.3876C61.5334 25.5397 61.5334 25.6851 61.5334 25.8306C61.2283 25.9231 59.0281 25.9562 58.3325 25.8835C58.2545 25.6124 58.2261 14.2288 58.3112 13.7264C59.2836 13.7264 60.263 13.7264 61.2779 13.7264C61.356 14.1627 61.4341 14.5858 61.5193 15.1014C62.4987 13.7528 63.8685 13.4289 65.4015 13.5148C66.9771 13.6074 68.1198 14.3147 68.8296 15.6898C68.9289 15.5708 69.007 15.4914 69.078 15.4121C69.66 14.6981 70.3555 14.1164 71.2782 13.8189C71.8389 13.6338 72.4279 13.5545 73.0312 13.5479C73.9823 13.5413 74.912 13.6206 75.7992 13.9842C77.098 14.513 77.8929 15.4385 78.3543 16.6549C78.6736 17.4945 78.773 18.3737 78.7872 19.2529C78.8156 21.3551 78.7943 23.4573 78.7943 25.5595C78.7943 25.6521 78.7801 25.7512 78.773 25.8835Z" fill="#47BCCA"/>
<path d="M105.722 15.1678C105.722 12.9929 105.722 10.8312 105.722 8.64307C106.829 8.64307 107.886 8.64307 108.972 8.64307C108.972 14.3944 108.972 20.1258 108.972 25.8838C107.972 25.8838 106.985 25.8838 105.956 25.8838C105.892 25.3813 105.828 24.8855 105.757 24.3369C105.658 24.403 105.58 24.4426 105.53 24.5021C105.012 25.1632 104.316 25.6061 103.5 25.8772C102.961 26.0556 102.4 26.135 101.832 26.1548C100.356 26.2011 98.958 25.9565 97.6947 25.2029C96.4172 24.436 95.5797 23.3783 95.1325 22.0231C94.7777 20.9522 94.7422 19.8614 94.8557 18.7707C94.9693 17.6997 95.3029 16.6751 95.9913 15.7892C96.8146 14.7315 97.8934 14.0242 99.249 13.6936C99.9161 13.5284 100.59 13.416 101.286 13.416C102.478 13.416 103.585 13.6936 104.586 14.2952C104.969 14.5266 105.303 14.8439 105.722 15.1678ZM101.74 23.3519C103.855 23.3717 105.516 21.9107 105.523 19.8284C105.537 17.7262 103.905 16.2388 101.754 16.2388C99.5826 16.2321 98.0637 17.6072 98.0424 19.7623C98.0212 21.8975 99.6536 23.3717 101.74 23.3519Z" fill="#47BCCA"/>
<path d="M160.769 15.2404C160.819 14.7115 160.861 14.2356 160.911 13.7332C161.94 13.7332 162.948 13.7332 163.956 13.7332C164.034 14.0108 164.055 25.3746 163.984 25.844C163.693 25.9233 161.386 25.9365 160.939 25.8572C160.897 25.3548 160.847 24.8458 160.79 24.2508C160.677 24.3632 160.606 24.4293 160.549 24.4954C159.946 25.2292 159.158 25.6985 158.221 25.9762C157.447 26.2076 156.667 26.3067 155.865 26.2472C153.771 26.082 152.004 25.3482 150.84 23.6294C150.343 22.8956 150.059 22.0957 149.903 21.2429C149.761 20.4629 149.725 19.6894 149.818 18.9093C149.967 17.607 150.407 16.4105 151.351 15.4057C152.153 14.5529 153.146 13.9844 154.324 13.6869C155.155 13.4753 155.992 13.363 156.844 13.4092C158.363 13.5018 159.683 13.9778 160.627 15.1611C160.648 15.1809 160.677 15.1875 160.769 15.2404ZM156.908 23.484C157.795 23.4972 158.597 23.2724 159.286 22.7634C160.606 21.785 161.074 19.9671 160.478 18.4466C159.91 16.9989 158.789 16.199 157.135 16.1329C155.574 16.0667 154.317 16.5956 153.515 17.8979C153.182 18.4466 153.054 19.0548 153.04 19.6696C153.019 20.4761 153.182 21.2495 153.672 21.9304C154.438 23.008 155.559 23.4575 156.908 23.484Z" fill="#0282A6"/>
<path d="M93.99 20.8793C92.2582 20.8793 90.5691 20.8793 88.887 20.8793C87.1978 20.8793 85.5086 20.8793 83.791 20.8793C83.7981 21.2759 83.9543 21.5999 84.1459 21.9106C84.6143 22.651 85.3383 23.0674 86.1971 23.2856C87.6449 23.6492 89.036 23.4443 90.3703 22.8427C90.6471 22.7171 90.8884 22.532 91.1936 22.3469C91.8537 22.9551 92.535 23.5765 93.2235 24.2111C93.1596 24.2838 93.117 24.3433 93.0603 24.3896C92.0737 25.2159 90.9239 25.7183 89.6322 25.9894C88.4114 26.2406 87.1907 26.267 85.9699 26.0885C84.5221 25.8704 83.2303 25.3151 82.2012 24.3235C81.5057 23.6558 81.023 22.8559 80.7392 21.9635C80.4269 20.9785 80.3133 19.967 80.434 18.9424C80.583 17.7194 80.9947 16.5956 81.8251 15.6172C82.6271 14.6785 83.6491 14.0438 84.884 13.6736C86.1616 13.2902 87.4675 13.2505 88.7734 13.4224C90.2568 13.6141 91.5698 14.1694 92.5563 15.2734C93.1241 15.9081 93.4932 16.6352 93.7345 17.4417C94.061 18.5589 94.0397 19.6828 93.99 20.8793ZM90.8175 18.3672C90.8246 18.2813 90.8388 18.2284 90.8246 18.1821C90.6258 17.336 90.1432 16.6947 89.2631 16.3444C88.2837 15.9477 87.2759 15.9279 86.2538 16.1659C85.1466 16.4237 84.373 17.0517 83.933 18.0367C83.8904 18.1359 83.8762 18.2416 83.8407 18.3672C86.1971 18.3672 88.4895 18.3672 90.8175 18.3672Z" fill="#47BCCA"/>
<path d="M50.1279 21.5997C50.135 20.6477 50.0782 19.5636 49.9008 18.4926C49.4962 16.0665 48.7368 13.7462 47.5302 11.558C46.6289 9.93178 45.5501 8.41793 44.2583 7.0429C44.1235 6.90408 43.9957 6.75864 43.8822 6.59999C43.5344 6.10418 43.648 5.40345 44.1448 5.03325C44.7268 4.59694 45.4791 4.76221 45.8411 5.1258C46.9341 6.22979 47.8851 7.42632 48.7297 8.70219C49.482 9.83262 50.1492 11.0159 50.6815 12.2521C51.1783 13.4024 51.597 14.5857 51.9235 15.7955C52.4771 17.8712 52.6971 19.9801 52.6829 22.1153C52.6758 23.3515 52.5552 24.5811 52.3423 25.7975C52.03 27.5361 51.5119 29.2218 50.8163 30.8613C49.9504 32.9172 48.7865 34.8211 47.3812 36.5994C46.9837 37.1018 46.5224 37.5711 46.1037 38.0603C45.6352 38.609 44.3719 38.6421 43.9886 37.7496C43.7899 37.2869 43.868 36.844 44.2299 36.4473C44.6558 35.978 45.0745 35.502 45.4649 35.0062C46.8702 33.2213 47.9774 31.2976 48.7652 29.2086C49.2194 27.9988 49.553 26.756 49.7943 25.4934C50.0285 24.2373 50.1279 22.9879 50.1279 21.5997Z" fill="#0282A6"/>
<path d="M126.162 14.9958C125.566 15.6569 124.984 16.2915 124.423 16.9129C123.969 16.6683 123.557 16.4039 123.11 16.2055C122.386 15.8882 121.598 15.8552 120.811 15.8816C120.335 15.9015 119.874 15.9609 119.441 16.1593C119.036 16.3444 118.774 16.622 118.759 17.0649C118.752 17.5343 119.022 17.8384 119.448 18.0433C119.938 18.2813 120.47 18.3606 121.009 18.3805C121.847 18.4135 122.677 18.5127 123.493 18.6912C124.267 18.863 124.977 19.1473 125.594 19.6167C126.361 20.205 126.694 20.9983 126.779 21.8907C126.978 24.0326 125.473 25.4473 123.642 25.9762C122.329 26.353 121.002 26.353 119.668 26.234C117.929 26.0753 116.439 25.3944 115.204 24.2309C115.175 24.2045 115.161 24.1714 115.111 24.1053C115.622 23.4178 116.148 22.7171 116.666 22.0163C117.042 22.2609 117.39 22.5188 117.773 22.7237C118.752 23.2526 119.817 23.5699 120.945 23.6558C121.605 23.7021 122.237 23.6227 122.819 23.2988C123.38 22.9881 123.635 22.4923 123.529 21.9767C123.451 21.6197 123.209 21.4016 122.869 21.2693C122.322 21.0578 121.754 20.9851 121.172 20.952C119.98 20.8859 118.816 20.6942 117.723 20.205C116.843 19.815 116.126 19.2531 115.793 18.3739C115.317 17.131 115.487 15.9742 116.417 14.9495C117.006 14.3083 117.78 13.9447 118.625 13.6803C119.874 13.2968 121.151 13.277 122.436 13.4026C123.799 13.5282 125.019 13.9976 126.055 14.8504C126.098 14.8966 126.112 14.9363 126.162 14.9958Z" fill="#0282A6"/>
<path d="M178.96 16.3508C178.129 16.3508 177.363 16.3508 176.554 16.3508C176.511 15.4782 176.54 14.6255 176.54 13.7396C177.342 13.7396 178.115 13.7396 178.946 13.7396C178.981 12.6885 178.938 11.6771 178.967 10.6194C180.031 10.4673 181.089 10.3814 182.196 10.2822C182.225 10.6921 182.21 11.0623 182.21 11.4325C182.21 11.7961 182.21 12.1597 182.21 12.5299C182.21 12.9067 182.21 13.2835 182.21 13.7066C182.615 13.733 182.998 13.7198 183.389 13.7198C183.793 13.7198 184.198 13.7198 184.602 13.7198C184.993 13.7198 185.383 13.7198 185.795 13.7198C185.795 14.6056 185.795 15.4584 185.795 16.3508C184.588 16.3508 183.41 16.3508 182.203 16.3508C182.196 16.5161 182.182 16.6417 182.182 16.7607C182.182 18.3076 182.175 19.8545 182.182 21.408C182.182 21.7452 182.182 22.0823 182.324 22.4063C182.579 22.988 183.055 23.2458 183.694 23.3053C184.162 23.3516 184.602 23.226 185.035 23.0872C185.156 23.0475 185.284 23.0144 185.447 22.9615C185.745 23.8143 186.029 24.6341 186.327 25.4868C186.22 25.5331 186.121 25.5926 186.015 25.6323C184.872 26.0223 183.701 26.095 182.501 25.9694C181.273 25.8372 180.322 25.2819 179.655 24.3167C179.329 23.8474 179.144 23.3119 179.059 22.7698C178.981 22.274 178.96 21.765 178.953 21.2626C178.938 19.7752 178.946 18.2944 178.946 16.807C178.96 16.6814 178.96 16.5426 178.96 16.3508Z" fill="#0282A6"/>
<path d="M168.91 25.8837C167.81 25.8837 166.759 25.8837 165.716 25.8837C165.638 25.5929 165.61 14.282 165.681 13.7663C165.972 13.6936 167.916 13.6672 168.654 13.7333C168.732 14.1365 168.811 14.5464 168.896 15.029C169.031 14.8835 169.116 14.7976 169.194 14.7051C169.896 13.8391 170.855 13.4622 171.99 13.4027C172.849 13.3565 173.686 13.416 174.503 13.7068C175.021 13.8919 175.589 14.196 175.95 14.5728C175.475 15.419 174.992 16.285 174.503 17.1444C174.268 17.0056 174.07 16.8734 173.857 16.7742C172.615 16.1726 171.38 16.2586 170.187 16.88C169.598 17.1907 169.272 17.7195 169.073 18.3079C168.945 18.6847 168.903 19.0681 168.903 19.4581C168.91 21.448 168.903 23.4378 168.903 25.421C168.91 25.5664 168.91 25.6986 168.91 25.8837Z" fill="#0282A6"/>
<path d="M40.014 21.045C39.9928 23.0282 39.7798 24.5289 39.3256 26.0031C38.7578 27.8342 37.8564 29.5001 36.6357 31.0272C36.3163 31.4238 35.8904 31.6155 35.3652 31.5164C34.8613 31.4238 34.5206 31.133 34.3645 30.6768C34.2367 30.2868 34.3503 29.943 34.5845 29.6125C34.982 29.0572 35.3936 28.5151 35.7272 27.9334C36.3802 26.8162 36.8344 25.6262 37.1325 24.3768C37.4661 22.9687 37.537 21.554 37.3809 20.1394C37.1183 17.7198 36.2098 15.5119 34.6555 13.5485C34.0664 12.8081 34.3503 11.909 35.2446 11.6248C35.7343 11.4727 36.2737 11.6248 36.6215 12.028C37.3383 12.8676 37.8919 13.7997 38.3958 14.7582C39.0417 15.9944 39.4817 17.3034 39.7231 18.6586C39.8934 19.5907 39.9573 20.5492 40.014 21.045Z" fill="#0282A6"/>
<path d="M113.947 25.8834C112.876 25.8834 111.825 25.8834 110.753 25.8834C110.753 21.8178 110.753 17.772 110.753 13.6734C111.811 13.647 112.868 13.6668 113.947 13.6602C113.947 17.7456 113.947 21.7914 113.947 25.8834Z" fill="#47BCCA"/>
<path d="M212.906 23.3715C211.111 23.3715 209.372 23.3715 207.604 23.3715C207.647 23.8871 207.945 24.2111 208.371 24.4358C208.995 24.7598 209.67 24.7862 210.337 24.6143C210.72 24.5152 211.082 24.3367 211.487 24.178C211.778 24.4689 212.111 24.7928 212.466 25.1432C212.267 25.401 211.941 25.5795 211.607 25.7249C210.429 26.2339 209.216 26.3067 207.988 25.8968C207.051 25.5861 206.398 24.9911 206.071 24.1251C205.695 23.1269 205.695 22.1221 206.199 21.1503C206.703 20.1785 207.576 19.6629 208.69 19.4646C209.379 19.339 210.06 19.3853 210.734 19.5704C211.884 19.8877 212.544 20.6215 212.835 21.6726C212.963 22.2146 212.927 22.7699 212.906 23.3715ZM207.633 22.0163C208.861 22.0163 210.046 22.0163 211.245 22.0163C211.203 21.5536 210.961 21.2296 210.55 21.0379C209.805 20.6942 209.059 20.7206 208.343 21.104C207.981 21.2957 207.725 21.5866 207.633 22.0163Z" fill="#47BCCA"/>
<path d="M198.818 19.6104C199.507 19.6104 200.131 19.6104 200.827 19.6104C201.288 21.1506 201.756 22.7042 202.218 24.2378C202.651 22.7174 203.084 21.1705 203.531 19.6104C204.148 19.6104 204.737 19.6104 205.39 19.6104C204.681 21.7522 203.957 23.861 203.233 25.9963C202.551 25.9963 201.877 25.9963 201.153 25.9963C200.387 23.8941 199.613 21.7721 198.818 19.6104Z" fill="#47BCCA"/>
<path d="M192.026 17.0576C192.608 17.0576 193.119 17.0576 193.679 17.0576C193.679 17.2097 193.679 17.3419 193.679 17.4741C193.679 19.5499 193.679 21.6322 193.679 23.708C193.679 23.7741 193.679 23.8336 193.679 23.8997C193.651 24.6203 193.97 24.8318 194.616 24.7459C194.652 24.7393 194.694 24.7525 194.751 24.7591C194.765 24.8186 194.787 24.8781 194.787 24.9376C194.787 25.2417 194.787 25.5391 194.787 25.8565C194.084 26.0944 193.41 26.1077 192.764 25.7904C192.324 25.5722 192.111 25.1954 192.054 24.7459C192.033 24.574 192.033 24.3955 192.033 24.217C192.033 21.9628 192.033 19.7085 192.033 17.4543C192.026 17.3353 192.026 17.2097 192.026 17.0576Z" fill="#47BCCA"/>
<path d="M198.002 25.9569C197.434 25.9569 196.895 25.9569 196.362 25.9569C196.277 25.6792 196.256 20.0403 196.341 19.604C196.88 19.604 197.427 19.604 198.002 19.604C198.002 21.7194 198.002 23.815 198.002 25.9569Z" fill="#47BCCA"/>
<path d="M110.449 10.3022C110.413 9.17174 111.258 8.52389 112.33 8.51728C113.465 8.50406 114.26 9.17174 114.281 10.2559C114.303 11.2343 113.565 12.0276 112.386 12.0474C111.372 12.054 110.428 11.4194 110.449 10.3022Z" fill="#47BCCA"/>
<path d="M197.171 18.7177C196.547 18.7177 196.171 18.3872 196.163 17.8319C196.156 17.27 196.575 16.8865 197.178 16.8932C197.753 16.8998 198.179 17.2898 198.179 17.8186C198.179 18.3541 197.782 18.7111 197.171 18.7177Z" fill="#47BCCA"/>
<path d="M190.62 25.0442C190.62 25.5466 190.187 25.9498 189.634 25.9498C189.073 25.9564 188.633 25.54 188.64 25.0111C188.647 24.4955 189.073 24.1055 189.62 24.1055C190.195 24.1055 190.627 24.5087 190.62 25.0442Z" fill="#47BCCA"/>
</svg>
