<svg width="240" height="96" viewBox="0 0 240 96" fill="none" xmlns="http://www.w3.org/2000/svg">
<g clip-path="url(#clip0_1_479)">
<path d="M229.709 0C235.416 0 240.06 4.66631 240.06 10.4038V85.0801C240.06 90.8159 235.416 95.4839 229.709 95.4839H107.919C102.211 95.4839 97.5696 90.8159 97.5696 85.0801V10.4038C97.5696 4.66631 102.211 0 107.919 0H229.709Z" fill="#FF7D00"/>
<path d="M240.06 47.7394L233.781 41.4202V10.4603C233.781 8.1691 231.934 6.3125 229.653 6.3125H107.98C105.699 6.3125 103.85 8.1691 103.85 10.4603V85.0066C103.85 87.2978 105.699 89.1561 107.98 89.1561H229.653C231.934 89.1561 233.781 87.2995 233.781 85.0066V54.1169L240.06 47.7394Z" fill="white"/>
<path d="M146.586 41.0128C146.586 40.5868 146.664 40.1727 146.815 39.8133C146.987 39.4266 147.205 39.0844 147.491 38.8037C147.781 38.5146 148.109 38.2853 148.485 38.1295C149.258 37.7959 150.158 37.7924 150.95 38.1313C151.319 38.2835 151.658 38.5111 151.939 38.8106C152.223 39.0827 152.444 39.4249 152.608 39.8202C152.773 40.1829 152.858 40.585 152.858 41.0111V46.9283H155.597V41.0111C155.597 40.1915 155.432 39.4249 155.129 38.7319C154.834 38.0063 154.402 37.3783 153.869 36.8616C153.335 36.3191 152.707 35.8862 151.995 35.5953C150.616 34.9708 148.873 34.9605 147.438 35.5953C146.73 35.8845 146.095 36.3191 145.551 36.8616C145.035 37.3783 144.615 38.0046 144.301 38.7319C144.007 39.43 143.862 40.1932 143.862 41.0111V46.9283H146.591V41.0128H146.586Z" fill="#0069B9"/>
<path d="M142.165 36.8629C141.583 36.2863 140.93 35.8431 140.206 35.571C138.775 34.9789 137.238 34.9789 135.784 35.571C135.068 35.8414 134.416 36.2863 133.844 36.8629C133.275 37.4344 132.839 38.0898 132.569 38.8034C132.279 39.5272 132.14 40.2647 132.14 41.0125C132.14 41.7671 132.279 42.5097 132.569 43.2472C132.839 43.9608 133.274 44.6196 133.844 45.1979C134.399 45.7558 135.039 46.1921 135.747 46.4847C136.462 46.7807 137.217 46.9313 138.005 46.9313C138.79 46.9313 139.546 46.7824 140.251 46.4847C140.965 46.1921 141.604 45.7575 142.165 45.1979L143.114 44.2328L141.18 42.289L140.225 43.2472C139.725 43.7554 139.156 44.048 138.485 44.1575C138.336 44.1815 138.179 44.1918 138.031 44.1918C137.665 44.1918 137.318 44.125 136.965 43.995L143.112 37.8229L142.165 36.8629ZM138.295 38.7708L135.039 42.0477C134.911 41.7209 134.853 41.3684 134.853 41.0125C134.853 40.1381 135.158 39.4091 135.784 38.7811C136.278 38.29 136.846 37.9974 137.486 37.8982C137.646 37.8759 137.806 37.8674 137.965 37.8674C138.331 37.8674 138.686 37.929 139.03 38.0539C138.834 38.2524 138.588 38.4919 138.295 38.7708Z" fill="#0069B9"/>
<path d="M124.074 38.8034C124.383 38.5056 124.736 38.2695 125.115 38.1086C125.885 37.8023 126.703 37.8023 127.473 38.1086C127.859 38.2695 128.208 38.5056 128.519 38.8119L129.51 39.7667L131.418 37.8194L130.456 36.8629C129.879 36.2863 129.217 35.8431 128.499 35.571C127.069 34.9789 125.525 34.9789 124.075 35.571C123.369 35.8431 122.714 36.2863 122.138 36.8629C121.558 37.4259 121.139 38.0898 120.86 38.8034C120.579 39.5272 120.439 40.2784 120.439 41.0415C120.439 41.7893 120.579 42.5337 120.86 43.2455C121.139 43.9591 121.559 44.6213 122.138 45.1962C122.708 45.766 123.362 46.2092 124.082 46.5121C124.807 46.7927 125.556 46.9279 126.298 46.9279C127.04 46.9279 127.781 46.7927 128.491 46.5121C129.217 46.2109 129.879 45.7677 130.456 45.1962L131.418 44.2294L129.51 42.2873L128.509 43.2455C128.223 43.5638 127.874 43.7931 127.502 43.9454C127.12 44.1028 126.72 44.1798 126.298 44.1798C125.427 44.1798 124.696 43.8786 124.079 43.2455C123.762 42.9341 123.539 42.5901 123.384 42.2017C123.231 41.8184 123.148 41.418 123.148 41.0107C123.148 40.6138 123.228 40.2099 123.384 39.8232C123.524 39.445 123.759 39.1097 124.074 38.8034Z" fill="#0069B9"/>
<path d="M184.341 37.8785H191.369V35.127H184.341C183.84 35.127 183.36 35.2296 182.909 35.423C182.484 35.6095 182.106 35.8627 181.786 36.181C181.457 36.5061 181.199 36.8997 181.003 37.3463C180.819 37.7758 180.732 38.2549 180.732 38.7529C180.732 39.2542 180.817 39.7334 181.003 40.1954C181.199 40.618 181.457 41.0048 181.788 41.3487C182.101 41.6704 182.48 41.939 182.909 42.1341C183.36 42.3138 183.84 42.4062 184.341 42.4062H188.838C189.108 42.4062 189.313 42.49 189.488 42.656C189.656 42.8254 189.738 43.0273 189.738 43.284C189.738 43.5509 189.656 43.7631 189.488 43.9325C189.313 44.0917 189.108 44.1824 188.838 44.1824H181.833V46.9305H188.838C189.343 46.9305 189.811 46.8346 190.245 46.6635C190.686 46.465 191.083 46.1981 191.394 45.8764C191.74 45.5359 192 45.144 192.179 44.7162C192.373 44.2696 192.475 43.7819 192.475 43.2857C192.475 42.7775 192.375 42.3001 192.179 41.8792C191.999 41.4291 191.738 41.0304 191.394 40.7139C191.079 40.3887 190.685 40.1321 190.245 39.9627C189.816 39.7607 189.342 39.6598 188.838 39.6598H184.341C184.09 39.6598 183.885 39.5742 183.725 39.41C183.549 39.2234 183.469 39.0181 183.469 38.7546C183.469 38.5082 183.549 38.3028 183.709 38.1317C183.883 37.9589 184.084 37.8785 184.341 37.8785Z" fill="#0069B9"/>
<path d="M160.072 38.8041C160.388 38.5064 160.729 38.2702 161.108 38.1094C161.881 37.8014 162.707 37.8014 163.474 38.1094C163.859 38.2702 164.208 38.5046 164.519 38.8109L165.505 39.7658L167.408 37.8185L166.451 36.8619C165.879 36.2853 165.217 35.8421 164.496 35.57C163.064 34.978 161.532 34.978 160.082 35.57C159.357 35.8421 158.703 36.2853 158.131 36.8619C157.559 37.4352 157.132 38.0888 156.858 38.8024C156.579 39.5262 156.434 40.2774 156.434 41.0406C156.434 41.7901 156.579 42.5327 156.858 43.2445C157.134 43.9581 157.559 44.6169 158.131 45.1952C158.703 45.7702 159.357 46.2082 160.082 46.5111C160.802 46.7917 161.556 46.9286 162.302 46.9286C163.04 46.9286 163.781 46.7935 164.491 46.5111C165.217 46.21 165.879 45.7702 166.451 45.1952L167.408 44.2302L165.505 42.2863L164.514 43.2445C164.22 43.5628 163.885 43.7921 163.5 43.9444C163.115 44.1018 162.71 44.1788 162.3 44.1788C161.42 44.1788 160.696 43.8777 160.07 43.2445C159.762 42.9331 159.537 42.5892 159.377 42.2007C159.222 41.8174 159.142 41.417 159.142 41.0098C159.142 40.6128 159.222 40.2124 159.377 39.8222C159.539 39.4458 159.764 39.1104 160.072 38.8041Z" fill="#0069B9"/>
<path d="M202.318 41.0133C202.318 41.4445 202.232 41.862 202.063 42.2522C201.915 42.6389 201.689 42.9811 201.394 43.2772C201.12 43.5561 200.788 43.7819 200.404 43.9479C199.634 44.2611 198.696 44.2542 197.954 43.9582C197.58 43.7837 197.239 43.5527 196.953 43.2857C196.679 42.9828 196.448 42.6406 196.281 42.2539C196.124 41.874 196.049 41.4565 196.049 41.015V35.127H193.306V41.015C193.306 41.8244 193.461 42.5944 193.757 43.3114C194.067 44.0232 194.494 44.6615 195.011 45.2005C195.551 45.7429 196.181 46.1741 196.901 46.4873C197.609 46.7833 198.375 46.9339 199.168 46.9339C199.988 46.9339 200.752 46.7833 201.452 46.4873C202.157 46.1759 202.787 45.7429 203.333 45.2005C203.871 44.6615 204.291 44.0198 204.586 43.3114C204.902 42.5944 205.061 41.8261 205.061 41.015V35.127H202.318V41.0133V41.0133Z" fill="#0069B9"/>
<path d="M214.904 30.5984L214.906 35.1244H211.788C210.984 35.1244 210.213 35.2852 209.513 35.5967C208.793 35.8893 208.16 36.3205 207.626 36.8629C207.086 37.378 206.662 38.006 206.342 38.7315C206.048 39.4296 205.891 40.1928 205.891 41.0107C205.891 41.8201 206.048 42.5901 206.342 43.3071C206.662 44.0189 207.086 44.6572 207.621 45.1962C208.162 45.7386 208.793 46.1699 209.513 46.483C210.213 46.779 210.984 46.9296 211.788 46.9296C212.582 46.9296 213.343 46.779 214.063 46.483C214.776 46.1716 215.401 45.7386 215.922 45.1962C216.46 44.6572 216.875 44.0206 217.17 43.3071C217.486 42.5901 217.641 41.8218 217.641 41.0107V30.5967H214.904V30.5984ZM214.906 41.0124C214.906 41.4454 214.821 41.8612 214.647 42.2513C214.491 42.638 214.273 42.982 213.976 43.2763C213.701 43.5552 213.365 43.7811 212.981 43.9471C212.252 44.2602 211.313 44.2534 210.557 43.9573C210.167 43.7828 209.825 43.5518 209.534 43.2849C209.26 42.982 209.028 42.6398 208.865 42.253C208.708 41.8732 208.635 41.4556 208.635 41.0142C208.635 40.583 208.708 40.174 208.865 39.8146C209.03 39.4279 209.253 39.0857 209.534 38.8051C209.825 38.5159 210.167 38.2917 210.557 38.1309C210.942 37.97 211.359 37.8793 211.788 37.8793H214.906V41.0124Z" fill="#0069B9"/>
<path d="M171.737 46.4831C172.438 46.7791 173.205 46.9297 174.005 46.9297C174.819 46.9297 175.585 46.7791 176.29 46.4831C176.989 46.1716 177.628 45.7353 178.157 45.1963C178.697 44.6573 179.122 44.0156 179.417 43.3089C179.735 42.5902 179.888 41.8219 179.888 41.0125C179.888 40.1929 179.735 39.4263 179.417 38.7333C179.122 38.0078 178.698 37.3798 178.157 36.863C177.628 36.3206 176.989 35.8876 176.29 35.607C174.909 34.979 173.166 34.9636 171.737 35.5967C171.017 35.8859 170.387 36.3206 169.842 36.8613C169.328 37.378 168.897 38.0043 168.588 38.7316C168.298 39.4297 168.148 40.1929 168.148 41.0108C168.148 41.8202 168.298 42.5902 168.588 43.3072C168.899 44.019 169.318 44.6573 169.842 45.1946C170.387 45.7353 171.01 46.1716 171.737 46.4831ZM171.088 39.813C171.258 39.4263 171.481 39.0841 171.757 38.8034C172.046 38.5143 172.39 38.2901 172.78 38.1292C173.166 37.9684 173.57 37.8777 174.004 37.8777C174.434 37.8777 174.843 37.9684 175.233 38.1327C175.614 38.2901 175.949 38.5143 176.228 38.812C176.523 39.0892 176.736 39.4263 176.897 39.8216C177.062 40.1843 177.148 40.5865 177.148 41.0108C177.148 41.442 177.062 41.8647 176.892 42.2497C176.737 42.6364 176.513 42.9786 176.223 43.2747C175.949 43.5502 175.614 43.7795 175.234 43.9437C174.463 44.2569 173.536 44.25 172.782 43.954C172.394 43.7795 172.045 43.5485 171.765 43.2815C171.485 42.9786 171.257 42.6364 171.086 42.2497C170.935 41.8698 170.855 41.454 170.855 41.0108C170.857 40.5865 170.937 40.1792 171.088 39.813Z" fill="#0069B9"/>
<path d="M120.884 61.6343C121.723 62.0912 122.894 62.4419 124.242 62.4419C125.273 62.4419 126.252 62.2315 126.252 61.2476C126.252 58.9615 120.482 60.404 120.482 55.9379C120.482 52.9844 123.35 52.1768 125.798 52.1768C126.969 52.1768 128.124 52.353 128.945 52.6336L128.736 55.1644C127.896 54.7777 126.952 54.6015 126.026 54.6015C125.204 54.6015 123.84 54.6716 123.84 55.7445C123.84 57.7311 129.61 56.3947 129.61 60.8249C129.61 64.0059 126.953 64.8684 124.242 64.8684C123.105 64.8684 121.689 64.6921 120.604 64.3413L120.884 61.6343Z" fill="#FC001B"/>
<path d="M138.376 58.1193C137.799 57.7685 137.222 57.6094 136.47 57.6094C135.107 57.6094 134.056 58.5591 134.056 60.1402C134.056 61.5998 135.28 62.5478 136.645 62.5478C137.362 62.5478 138.079 62.3886 138.603 62.108L138.673 64.4643C137.886 64.7278 136.942 64.8681 136.102 64.8681C133.095 64.8681 130.804 63.1107 130.804 60.0871C130.804 57.0464 133.095 55.2891 136.102 55.2891C137.047 55.2891 137.886 55.4482 138.603 55.799L138.376 58.1193Z" fill="#FC001B"/>
<path d="M139.479 60.0871C139.479 57.0464 141.771 55.2891 144.778 55.2891C147.786 55.2891 150.077 57.0464 150.077 60.0871C150.077 63.1107 147.786 64.8681 144.778 64.8681C141.771 64.8698 139.479 63.1107 139.479 60.0871ZM146.824 60.0871C146.824 58.7165 146.23 57.5033 144.778 57.5033C143.326 57.5033 142.732 58.7165 142.732 60.0871C142.732 61.4406 143.326 62.6539 144.778 62.6539C146.23 62.6539 146.824 61.4406 146.824 60.0871Z" fill="#FC001B"/>
<path d="M150.693 55.4992H152.546V53.4424L155.641 52.4756V55.4992H157.844V57.7134H155.641V61.0878C155.641 62.1949 155.903 62.7579 156.899 62.7579C157.214 62.7579 157.546 62.6877 157.861 62.6347L157.966 64.6915C157.372 64.7616 156.776 64.8677 155.99 64.8677C153.175 64.8677 152.494 63.6203 152.494 61.4403V57.7134H150.693V55.4992V55.4992Z" fill="#FC001B"/>
<path d="M162.674 54.0059H159.527V51.6855H162.674V54.0059ZM159.527 55.4997H162.674V64.6578H159.527V55.4997Z" fill="#FC001B"/>
<path d="M170.698 64.6576C170.681 64.1665 170.628 63.6908 170.628 63.2168H170.594C169.878 64.3599 169.003 64.8698 167.709 64.8698C165.908 64.8698 164.3 63.9731 164.3 61.9865C164.3 59.1922 167.324 58.8568 169.004 58.8568C169.512 58.8568 170.072 58.9099 170.473 58.98C170.456 57.7326 169.529 57.3972 168.392 57.3972C167.377 57.3972 166.363 57.5906 165.49 58.0834L165.437 55.9393C166.555 55.4824 167.728 55.2891 169.074 55.2891C171.399 55.2891 173.411 56.2918 173.411 59.0861V62.4964C173.411 63.2168 173.447 63.9372 173.587 64.6576H170.698ZM168.53 62.7599C169.719 62.7599 170.47 61.6699 170.47 60.5971C170.068 60.5799 169.614 60.544 169.141 60.544C168.073 60.544 167.234 60.8777 167.234 61.7572C167.234 62.3903 167.794 62.7599 168.53 62.7599Z" fill="#FC001B"/>
<path d="M175.302 51.4727H178.466V56.6763H178.502C179.306 55.6564 180.373 55.2868 181.632 55.2868C184.15 55.2868 185.532 57.6944 185.532 59.9103C185.532 62.6174 184.082 64.8675 181.37 64.8675C179.92 64.8675 178.642 64.0411 178.24 63.0212H178.204V64.6554H175.302V51.4727ZM180.373 57.7132C179.219 57.7132 178.449 58.7331 178.449 60.1037C178.449 61.4401 179.324 62.4411 180.373 62.4411C181.563 62.4411 182.279 61.4401 182.279 59.9805C182.279 58.769 181.597 57.7132 180.373 57.7132Z" fill="#FC001B"/>
<path d="M192.879 64.6576C192.862 64.1665 192.809 63.6908 192.809 63.2168H192.773C192.056 64.3599 191.182 64.8698 189.888 64.8698C188.087 64.8698 186.479 63.9731 186.479 61.9865C186.479 59.1922 189.503 58.8568 191.183 58.8568C191.69 58.8568 192.25 58.9099 192.652 58.98C192.635 57.7326 191.707 57.3972 190.572 57.3972C189.558 57.3972 188.543 57.5906 187.67 58.0834L187.617 55.9393C188.737 55.4824 189.908 55.2891 191.255 55.2891C193.58 55.2891 195.592 56.2918 195.592 59.0861V62.4964C195.592 63.2168 195.626 63.9372 195.767 64.6576H192.879ZM190.71 62.7599C191.9 62.7599 192.65 61.6699 192.65 60.5971C192.249 60.5799 191.794 60.544 191.321 60.544C190.254 60.544 189.415 60.8777 189.415 61.7572C189.416 62.3903 189.975 62.7599 190.71 62.7599Z" fill="#FC001B"/>
<path d="M197.519 55.4993H200.387V57.1865H200.422C201.052 55.8672 202.31 55.2871 203.743 55.2871C206.227 55.2871 207.224 57.0445 207.224 58.9438V64.6574H204.077V60.2272C204.077 58.5041 203.483 57.924 202.625 57.924C201.331 57.924 200.667 58.8206 200.667 60.7902V64.6574H197.52V55.4993H197.519Z" fill="#FC001B"/>
<path d="M209.153 51.4727H212.3V59.3491H212.336L214.957 55.499H218.402L215.238 59.6999L218.664 64.6571H214.853L212.336 60.1225H212.3V64.6571H209.153V51.4727Z" fill="#FC001B"/>
<path d="M12.0391 40.0783V40.0612C12.0391 38.2868 13.3106 36.834 15.1352 36.834C16.2552 36.834 16.9242 37.2258 17.4757 37.7957L16.6433 38.8035C16.1854 38.3672 15.7191 38.1002 15.125 38.1002C14.1242 38.1002 13.4042 38.9729 13.4042 40.0441V40.0612C13.4042 41.1307 14.1071 42.0222 15.125 42.0222C15.8042 42.0222 16.2195 41.7364 16.6859 41.2915L17.5182 42.1745C16.9071 42.8607 16.2297 43.2884 15.0842 43.2884C13.3361 43.2884 12.0391 41.8716 12.0391 40.0783Z" fill="#0069B9"/>
<path d="M17.9131 40.0783V40.0612C17.9131 38.2868 19.2459 36.834 21.0773 36.834C22.9088 36.834 24.2229 38.2696 24.2229 40.0424V40.0595C24.2229 41.834 22.8918 43.2867 21.0603 43.2867C19.2288 43.2867 17.9131 41.8528 17.9131 40.0783ZM22.8578 40.0783V40.0612C22.8578 38.9917 22.1122 38.1002 21.0603 38.1002C20.0084 38.1002 19.2799 38.9729 19.2799 40.0441V40.0612C19.2799 41.1307 20.0254 42.0222 21.0773 42.0222C22.1293 42.0222 22.8578 41.1495 22.8578 40.0783Z" fill="#0069B9"/>
<path d="M25.2427 36.9414H27.9559C28.7099 36.9414 29.2954 37.1639 29.6852 37.5745C30.0171 37.9219 30.1942 38.4113 30.1942 39.0016V39.0187C30.1942 40.0266 29.6767 40.6597 28.9227 40.9541L30.3729 43.182H28.8461L27.5746 41.1851H26.5482V43.182H25.2427V36.9414ZM27.8725 39.9719C28.5074 39.9719 28.8733 39.6159 28.8733 39.0889V39.0718C28.8733 38.4832 28.4835 38.1803 27.8469 38.1803H26.5499V39.9719H27.8725Z" fill="#0069B9"/>
<path d="M31.2715 36.9414H33.9847C34.7387 36.9414 35.3243 37.1639 35.714 37.5745C36.046 37.9219 36.223 38.4113 36.223 39.0016V39.0187C36.223 40.0266 35.7055 40.6597 34.9515 40.9541L36.4017 43.182H34.8749L33.6034 41.1851H32.577V43.182H31.2715V36.9414V36.9414ZM33.8996 39.9719C34.5345 39.9719 34.9004 39.6159 34.9004 39.0889V39.0718C34.9004 38.4832 34.5106 38.1803 33.874 38.1803H32.577V39.9719H33.8996Z" fill="#0069B9"/>
<path d="M37.2988 36.9414H41.7771V38.1632H38.5958V39.4294H41.3941V40.6512H38.5958V41.9619H41.818V43.1837H37.2971V36.9414H37.2988Z" fill="#0069B9"/>
<path d="M42.926 36.9414H45.2409C47.1065 36.9414 48.395 38.2881 48.395 40.0437V40.0608C48.395 41.8165 47.1065 43.1803 45.2409 43.1803H42.926V36.9414V36.9414ZM45.2409 41.9414C46.3099 41.9414 47.0299 41.1833 47.0299 40.0779V40.0608C47.0299 38.9554 46.3099 38.1803 45.2409 38.1803H44.2316V41.9431H45.2409V41.9414Z" fill="#0069B9"/>
<path d="M49.1133 40.0783V40.0612C49.1133 38.2868 50.446 36.834 52.2775 36.834C54.109 36.834 55.4231 38.2696 55.4231 40.0424V40.0595C55.4231 41.834 54.092 43.2867 52.2605 43.2867C50.429 43.2884 49.1133 41.8528 49.1133 40.0783ZM54.058 40.0783V40.0612C54.058 38.9917 53.3124 38.1002 52.2605 38.1002C51.2086 38.1002 50.4801 38.9729 50.4801 40.0441V40.0612C50.4801 41.1307 51.2256 42.0222 52.2775 42.0222C53.3295 42.0222 54.058 41.1495 54.058 40.0783Z" fill="#0069B9"/>
<path d="M56.4426 36.9414H59.1558C59.9116 36.9414 60.4954 37.1639 60.8869 37.5745C61.2171 37.9219 61.3958 38.4113 61.3958 39.0016V39.0187C61.3958 40.0266 60.8784 40.6597 60.1243 40.9541L61.5745 43.182H60.0477L58.7762 41.1851H57.7499V43.182H56.4426V36.9414V36.9414ZM59.0707 39.9719C59.7073 39.9719 60.0716 39.6159 60.0716 39.0889V39.0718C60.0716 38.4832 59.6818 38.1803 59.0452 38.1803H57.7482V39.9719H59.0707Z" fill="#0069B9"/>
<path d="M62.4697 36.9414H66.948V38.1632H63.7684V39.4294H66.5667V40.6512H63.7684V41.9619H66.9906V43.1837H62.4697V36.9414Z" fill="#0069B9"/>
<path d="M67.6323 42.2718L68.4034 41.2998C68.9379 41.7635 69.4979 42.0579 70.1753 42.0579C70.7098 42.0579 71.0315 41.8354 71.0315 41.4692V41.4521C71.0315 41.1047 70.8272 40.9268 69.8366 40.6581C68.6417 40.3364 67.8689 39.9891 67.8689 38.7502V38.7331C67.8689 37.602 68.7336 36.8525 69.9472 36.8525C70.8119 36.8525 71.5506 37.1383 72.1515 37.6465L71.4723 38.68C70.9464 38.2968 70.4289 38.0657 69.9285 38.0657C69.4281 38.0657 69.1642 38.307 69.1642 38.6099V38.627C69.1642 39.0377 69.4196 39.1711 70.4459 39.4466C71.651 39.7769 72.3285 40.2304 72.3285 41.3186V41.3358C72.3285 42.5746 71.4298 43.2711 70.1481 43.2711C69.2527 43.2711 68.3455 42.9408 67.6323 42.2718Z" fill="#0069B9"/>
<path d="M75.6697 36.9414H77.9846C79.8501 36.9414 81.1386 38.2881 81.1386 40.0437V40.0608C81.1386 41.8165 79.8501 43.1803 77.9846 43.1803H75.6697V36.9414V36.9414ZM77.9846 41.9414C79.0535 41.9414 79.7735 41.1833 79.7735 40.0779V40.0608C79.7735 38.9554 79.0535 38.1803 77.9846 38.1803H76.9752V41.9431H77.9846V41.9414Z" fill="#0069B9"/>
<path d="M82.1582 36.9414H86.6365V38.1632H83.4569V39.4294H86.2552V40.6512H83.4569V41.9619H86.6791V43.1837H82.1582V36.9414Z" fill="#0069B9"/>
<path d="M0 58.3863L1.63234 56.3312C2.76255 57.3117 3.94723 57.9346 5.38213 57.9346C6.51234 57.9346 7.19489 57.4623 7.19489 56.6889V56.6512C7.19489 55.9154 6.76426 55.539 4.66383 54.9726C2.13447 54.2933 0.502128 53.5575 0.502128 50.936V50.8983C0.502128 48.5027 2.33192 46.9199 4.89872 46.9199C6.72851 46.9199 8.28936 47.524 9.56426 48.5986L8.12936 50.7871C7.01787 49.976 5.9234 49.4866 4.86468 49.4866C3.80596 49.4866 3.24936 49.9966 3.24936 50.6365V50.6742C3.24936 51.5417 3.78723 51.8241 5.95915 52.4093C8.50723 53.1074 9.94213 54.0691 9.94213 56.3689V56.4065C9.94213 59.028 8.04085 60.4996 5.33106 60.4996C3.42638 60.4979 1.50638 59.7997 0 58.3863Z" fill="#0069B9"/>
<path d="M11.9863 47.1074H21.4604V49.6913H14.7319V52.3692H20.6519V54.953H14.7319V57.7251H21.5489V60.3089H11.9863V47.1074Z" fill="#0069B9"/>
<path d="M22.9429 53.745V53.7074C22.9429 49.9548 25.7241 46.8799 29.5267 46.8799C31.7871 46.8799 33.1505 47.5216 34.4612 48.6903L32.7216 50.896C31.7531 50.0472 30.8918 49.5561 29.4382 49.5561C27.428 49.5561 25.8314 51.423 25.8314 53.668V53.7057C25.8314 56.1201 27.411 57.8928 29.6356 57.8928C30.6399 57.8928 31.5369 57.6293 32.2382 57.1006V55.2149H29.4569V52.7063H34.9122V58.4404C33.6203 59.5903 31.8433 60.5331 29.5471 60.5331C25.6339 60.5349 22.9429 57.6499 22.9429 53.745Z" fill="#0069B9"/>
<path d="M37.0605 54.6509V47.1064H39.8231V54.5756C39.8231 56.7248 40.8461 57.8388 42.5329 57.8388C44.2197 57.8388 45.2427 56.7642 45.2427 54.6697V47.1064H48.0052V54.5568C48.0052 58.5557 45.8708 60.5167 42.4971 60.5167C39.1235 60.5167 37.0605 58.5369 37.0605 54.6509Z" fill="#0069B9"/>
<path d="M50.5754 47.1064H56.3167C57.9133 47.1064 59.1525 47.5787 59.978 48.4463C60.6776 49.1821 61.0537 50.219 61.0537 51.4647V51.5024C61.0537 53.6328 59.9593 54.9726 58.3627 55.5955L61.4316 60.3097H58.2027L55.5116 56.0849H53.3414V60.3097H50.5771L50.5754 47.1064ZM56.138 53.5198C57.4827 53.5198 58.2554 52.7652 58.2554 51.653V51.6153C58.2554 50.3696 57.4299 49.7296 56.0852 49.7296H53.3397V53.5198H56.138Z" fill="#0069B9"/>
<path d="M62.429 53.745V53.7074C62.429 49.9548 65.246 46.8799 69.1217 46.8799C72.9975 46.8799 75.7787 49.9155 75.7787 53.6697V53.7074C75.7787 57.4599 72.9617 60.5349 69.086 60.5349C65.2102 60.5349 62.429 57.4993 62.429 53.745ZM72.8885 53.745V53.7074C72.8885 51.4435 71.309 49.5578 69.0843 49.5578C66.8596 49.5578 65.3175 51.4059 65.3175 53.6697V53.7074C65.3175 55.9712 66.897 57.8569 69.1217 57.8569C71.3464 57.8569 72.8885 56.0089 72.8885 53.745Z" fill="#0069B9"/>
<path d="M76.7388 58.3844L78.3711 56.3293C79.5013 57.3098 80.686 57.9326 82.1209 57.9326C83.2511 57.9326 83.9337 57.4604 83.9337 56.6869V56.6493C83.9337 55.9135 83.503 55.537 81.4026 54.9706C78.8732 54.2913 77.2409 53.5555 77.2409 50.934V50.8964C77.2409 48.5008 79.0707 46.918 81.6375 46.918C83.4673 46.918 85.0281 47.522 86.303 48.5966L84.8681 50.7852C83.7566 49.9741 82.6622 49.4847 81.6035 49.4847C80.5447 49.4847 79.9881 49.9946 79.9881 50.6346V50.6722C79.9881 51.5398 80.526 51.8221 82.6979 52.4073C85.246 53.1055 86.6809 54.0672 86.6809 56.3669V56.4046C86.6809 59.0261 84.7796 60.4976 82.0698 60.4976C80.1652 60.4976 78.2469 59.7995 76.7388 58.3844Z" fill="#0069B9"/>
</g>
<defs>
<clipPath id="clip0_1_479">
<rect width="240" height="95.4839" fill="white"/>
</clipPath>
</defs>
</svg>
