<svg width="70" height="76" viewBox="0 0 70 76" fill="none" xmlns="http://www.w3.org/2000/svg">
<path fill-rule="evenodd" clip-rule="evenodd" d="M29.0163 0C29.0163 0 8.06536 21.171 6.7673 22.289C5.48507 23.4149 -6.7673 33.1855 6.4507 47.6171C9.3555 50.1917 10.9227 51.8293 11.6904 52.5851C12.9806 53.8684 16.6056 59.4742 10.6377 65.568C4.67775 71.6697 0 76 0 76H17.5712C17.5712 76 25.1459 68.3 27.0771 66.5285C29.0084 64.7728 37.1529 57.1516 24.1723 47.6092C19.3363 43.6097 8.85685 34.3035 19.8191 22.2024C24.4968 17.5415 34.9683 6.08598 34.9683 6.08598L29.0163 0Z" fill="white"/>
<path fill-rule="evenodd" clip-rule="evenodd" d="M40.9837 0C40.9837 0 61.9346 21.171 63.2247 22.289C64.5069 23.4149 76.7593 33.1855 63.5492 47.6171C60.6444 50.1917 59.0773 51.8293 58.3095 52.5851C57.0194 53.8684 53.3943 59.4742 59.3543 65.568C65.3222 71.6697 69.9999 76 69.9999 76H52.4287C52.4287 76 44.8541 68.3 42.9228 66.5285C40.9837 64.7728 32.8471 57.1516 45.8197 47.6092C50.6557 43.6097 61.1352 34.3035 50.1809 22.2024C45.5031 17.5415 35.0237 6.08598 35.0237 6.08598L40.9837 0Z" fill="white"/>
<path fill-rule="evenodd" clip-rule="evenodd" d="M19.0435 31.4298C19.5104 23.1157 26.4281 16.518 34.8971 16.518C43.3662 16.518 50.2838 23.1157 50.7508 31.4298H19.0435ZM50.7113 33.7603C49.9752 41.7988 43.1841 48.0974 34.8971 48.0974C26.6102 48.0974 19.8191 41.7988 19.083 33.7603H50.7033H50.7113Z" fill="#DC911B"/>
</svg>
