<svg width="46" height="51" viewBox="0 0 46 51" fill="none" xmlns="http://www.w3.org/2000/svg">
<path fill-rule="evenodd" clip-rule="evenodd" d="M19.0678 0C19.0678 0 5.30009 14.2069 4.44708 14.9571C3.60448 15.7126 -4.44708 22.2692 4.23903 31.9536C6.1479 33.6812 7.17775 34.7802 7.68227 35.2874C8.53008 36.1486 10.9123 39.9103 6.9905 43.9996C3.07395 48.0942 0 51 0 51H11.5468C11.5468 51 16.5244 45.8329 17.7935 44.6442C19.0626 43.466 24.4147 38.3517 15.8847 31.9483C12.7067 29.2644 5.82022 23.0195 13.024 14.899C16.0979 11.7713 22.9792 4.08402 22.9792 4.08402L19.0678 0Z" fill="#124372"/>
<path fill-rule="evenodd" clip-rule="evenodd" d="M26.9322 0C26.9322 0 40.6999 14.2069 41.5477 14.9571C42.3903 15.7126 50.4419 22.2692 41.761 31.9536C39.8521 33.6812 38.8223 34.7802 38.3177 35.2874C37.4699 36.1486 35.0878 39.9103 39.0043 43.9996C42.9261 48.0942 46 51 46 51H34.4532C34.4532 51 29.4756 45.8329 28.2065 44.6442C26.9322 43.466 21.5853 38.3517 30.1102 31.9483C33.2881 29.2644 40.1746 23.0195 32.9761 14.899C29.9021 11.7713 23.0156 4.08402 23.0156 4.08402L26.9322 0Z" fill="#124372"/>
<path fill-rule="evenodd" clip-rule="evenodd" d="M12.5143 21.0911C12.8212 15.5119 17.3671 11.0844 22.9324 11.0844C28.4978 11.0844 33.0437 15.5119 33.3506 21.0911H12.5143ZM33.3246 22.6549C32.8408 28.0492 28.3781 32.2759 22.9324 32.2759C17.4867 32.2759 13.024 28.0492 12.5403 22.6549H33.3193H33.3246Z" fill="#DC911B"/>
</svg>
