<?xml version="1.0" encoding="UTF-8"?> <svg xmlns="http://www.w3.org/2000/svg" width="148" height="33" fill="none"><path d="M71.56 8.15a6.22 6.22 0 00-4.83-1.97c-2.31 0-4.06.85-5.23 2.54-1.03-1.7-2.62-2.54-4.77-2.54-2.2 0-3.82.79-4.88 2.36 0-1.03-.83-1.87-1.86-1.87h-2.67V24.3h4.53v-9.9c0-1.29.3-2.28.9-2.97.6-.69 1.49-1.06 2.4-1.02.93 0 1.66.3 2.18.88.51.58.77 1.42.77 2.48V24.3h4.53v-9.9c0-1.3.28-2.3.86-2.98.6-.7 1.49-1.07 2.4-1.02.82-.05 1.62.27 2.18.88.51.58.77 1.4.77 2.46V24.3h4.53V13.44c0-2.2-.6-3.97-1.81-5.29z" fill="#2839CC"></path><path fill-rule="evenodd" clip-rule="evenodd" d="M85.63 6.18a7.99 7.99 0 016.06 2.7 9.3 9.3 0 012.52 6.6c0 2.6-.84 4.8-2.52 6.6a8 8 0 01-6.06 2.7c-2.46 0-4.35-.86-5.69-2.57v9.11h-4.53V6.67h2.45c1.15 0 2.08.93 2.08 2.08 1.33-1.71 3.23-2.57 5.7-2.57zm-.85 14.27a4.74 4.74 0 003.5-1.4 4.85 4.85 0 001.4-3.56 4.74 4.74 0 00-4.9-4.97 4.68 4.68 0 00-3.47 1.4 4.87 4.87 0 00-1.37 3.57 4.68 4.68 0 004.84 4.97zM110.06 8.75c0-1.15.92-2.08 2.07-2.08h2.46v17.59h-4.53v-2.07c-1.36 1.7-3.27 2.56-5.73 2.56-2.34 0-4.35-.9-6.03-2.7a9.3 9.3 0 01-2.51-6.58c0-2.6.83-4.8 2.51-6.6a7.97 7.97 0 016.03-2.69c2.46 0 4.37.86 5.73 2.57zm-4.9 11.66a4.75 4.75 0 004.9-4.95 4.75 4.75 0 00-4.9-4.96 4.7 4.7 0 00-4.85 4.96 4.7 4.7 0 004.85 4.96zM143.27 7.28c.39-.39.91-.6 1.47-.6h2.46v17.58h-4.54v-2.07c-1.36 1.7-3.26 2.56-5.72 2.56-2.34 0-4.35-.9-6.02-2.7a9.3 9.3 0 01-2.52-6.58c0-2.6.84-4.8 2.52-6.6a7.96 7.96 0 016.02-2.69c2.46 0 4.36.86 5.72 2.57 0-.55.22-1.08.61-1.47zm-5.5 13.13a4.75 4.75 0 004.9-4.95 4.75 4.75 0 00-4.9-4.96 4.67 4.67 0 00-3.48 1.4 4.86 4.86 0 00-1.37 3.56 4.86 4.86 0 001.38 3.57 4.67 4.67 0 003.47 1.38z" fill="#2839CC"></path><path d="M36 6.28a9.24 9.24 0 00-8.85 5.76c2.33.25 4.69-.08 6.86-.96l.05-.02c1.2-.52 2.55-.5 3.75.02l.06.03a4.54 4.54 0 012.64 4.05l.02.45c0 .16 0 .29-.02.43v.15a4.44 4.44 0 01-2.7 3.82l-.2.09a4.8 4.8 0 01-4.09-.36l-.1-.06c-.14-.1-.29-.2-.43-.32a14.16 14.16 0 00-6.5-2.81 9.01 9.01 0 002.7 5.55c5.77 5.71 16.23 1.94 16.28-6.53.01-5.31-4.25-9.27-9.47-9.29zM22.67 16.52c.44-.06.9-.09 1.41-.1A12.35 12.35 0 01.1 10.92 12.38 12.38 0 0112.68.08a12.38 12.38 0 0112.01 11.49 16 16 0 01-.89-.27l-.05-.02-.13-.05h-.01a12.24 12.24 0 01-4.24-2.6l-.23-.23v-.02l-.06-.06-.16-.17-.08-.08-.2-.21-.05-.07-.1-.11-.1-.14C13.9 2.04 5.1 5.02 4.64 11.92a7.8 7.8 0 007.69 8.32h.34a7.04 7.04 0 002.24-.42l.06-.02c.62-.25 1.22-.56 1.79-.93.76-.5 1.54-.94 2.35-1.35 1.11-.52 2.17-.85 3.39-.98l.16-.02z" fill="#2839CC"></path><path opacity=".6" d="M31.37 15.54c0 1.73.62 3 1.6 3.8a14.09 14.09 0 00-6.48-2.8 9.35 9.35 0 01.66-4.5c2.33.25 4.72-.09 6.9-.97-1.49.69-2.67 2.16-2.68 4.47z" fill="#4168FF"></path><path opacity=".6" d="M15 19.79zM23.6 11.21z" fill="#fff"></path><path d="M121.5 8.36l-.36.34c0-1.02-.83-1.84-1.85-1.84h-2.66V24.3h4.51v-8.34a4.39 4.39 0 011.61-3.59c2-1.7 4.18-.62 4.51-.5l2.05-3.32a5.68 5.68 0 00-3.49-1.4 5.56 5.56 0 00-4.31 1.21z" fill="#2839CC"></path></svg> 