<svg width="1299" height="42" viewBox="0 0 1299 42" fill="none" xmlns="http://www.w3.org/2000/svg">
<path d="M27.4478 23.6008C28.0317 23.6008 28.5323 23.285 28.6991 22.7323L32.5364 13.7305L39.5435 40.2619C39.7103 40.8936 40.2108 41.2095 40.8782 41.2884C41.4621 41.2095 42.0461 40.8146 42.1295 40.2619L48.9698 7.80833L52.8905 22.5743C53.0573 23.127 53.6413 23.6008 54.1418 23.6008H1297.46C1297.87 23.6008 1298.12 23.2851 1298.12 22.9692V21.7058C1298.12 21.311 1297.87 21.0741 1297.46 21.0741L55.2263 21.074L50.1377 1.80717C49.9709 1.17547 49.4703 0.859619 48.803 0.859619C48.219 0.859619 47.6351 1.25443 47.5517 1.80717L40.7114 34.2608L34.1213 9.38758C33.9545 8.83484 33.4539 8.44003 32.9534 8.44003C32.286 8.36107 31.7856 8.67692 31.6187 9.22965L26.6136 21.074H0.667351C0.333676 21.074 3.64699e-08 21.3109 0 21.7057V22.9691C-2.91617e-08 23.285 0.333675 23.6008 0.66735 23.6008H27.4478Z" fill="#7F56D9"/>
</svg>
