<svg width="360" height="121" viewBox="0 0 360 121" fill="none" xmlns="http://www.w3.org/2000/svg">
<path d="M296.804 57.4407V51.331C296.804 51.0449 296.573 50.8122 296.288 50.8122H290.782C290.497 50.8122 290.266 50.5795 290.266 50.2934V45.0012C290.266 44.7151 290.497 44.4824 290.782 44.4824H296.288C296.573 44.4824 296.804 44.2497 296.804 43.9636V38.1494C296.804 37.8633 297.035 37.6306 297.319 37.6306H302.401C302.685 37.6306 302.916 37.8633 302.916 38.1494V43.9636C302.916 44.2497 303.147 44.4824 303.432 44.4824H309.526C309.81 44.4824 310.041 44.7151 310.041 45.0012V50.2934C310.041 50.5795 309.81 50.8122 309.526 50.8122H303.432C303.147 50.8122 302.916 51.0449 302.916 51.331V57.3998M169.632 74.883C171.9 74.883 173.877 74.5088 175.561 73.7605C177.244 73.0121 178.547 71.9775 179.468 70.6569C180.39 69.3362 180.849 67.8394 180.849 66.1634C180.814 64.2736 180.299 62.758 179.309 61.6134C178.316 60.472 177.138 59.6072 175.773 59.0192C174.408 58.4312 172.665 57.8495 170.538 57.2803C168.942 56.8181 167.737 56.4345 166.924 56.1295C166.109 55.8276 165.416 55.4062 164.85 54.8717C164.282 54.3371 164.001 53.6768 164.001 52.8907C164.001 51.8939 164.426 51.0889 165.275 50.482C166.125 49.8751 167.349 49.5733 168.942 49.5733C170.535 49.5733 171.866 49.9663 172.822 50.7524C173.777 51.5386 174.308 52.5888 174.418 53.9095H180.477C180.337 50.9851 179.246 48.674 177.207 46.9791C175.17 45.2842 172.484 44.4384 169.155 44.4384C166.921 44.4384 164.947 44.8126 163.226 45.5609C161.508 46.3093 160.187 47.3376 159.266 48.6394C158.344 49.9412 157.885 51.3782 157.885 52.9473C157.885 54.8748 158.391 56.425 159.4 57.6042C160.409 58.7802 161.605 59.6544 162.989 60.2267C164.373 60.7958 166.159 61.387 168.358 61.9907C170.626 62.6322 172.284 63.2234 173.328 63.7579C174.374 64.2925 174.895 65.1132 174.895 66.22C174.895 67.2546 174.424 68.1036 173.487 68.7608C172.547 69.4211 171.229 69.7513 169.526 69.7513C167.824 69.7513 166.54 69.3331 165.46 68.4935C164.379 67.6571 163.785 66.6131 163.679 65.3616H157.407C157.479 67.1445 158.044 68.7608 159.106 70.2041C160.168 71.6505 161.615 72.792 163.439 73.6284C165.263 74.4648 167.327 74.8862 169.629 74.8862L169.632 74.883ZM220.273 44.4352C218.112 44.4352 216.091 44.9604 214.213 46.0137C212.336 47.0671 210.953 48.4853 210.069 50.2682C209.075 48.3784 207.657 46.9319 205.818 45.932C203.975 44.9352 201.882 44.4352 199.546 44.4352C197.809 44.4352 196.179 44.7748 194.654 45.4509C193.13 46.1301 191.871 47.0734 190.881 48.2872V44.9163H184.822V74.4019H190.881V57.9187C190.881 55.2805 191.547 53.2554 192.874 51.8467C194.205 50.438 196.001 49.7336 198.268 49.7336C200.536 49.7336 202.326 50.438 203.637 51.8467C204.949 53.2554 205.605 55.2805 205.605 57.9187V74.4019H211.612V57.9187C211.612 55.2805 212.277 53.2554 213.604 51.8467C214.932 50.438 216.731 49.7336 218.999 49.7336C221.266 49.7336 223.056 50.438 224.368 51.8467C225.68 53.2554 226.336 55.2805 226.336 57.9187V74.4019H232.342V57.0099C232.342 54.334 231.817 52.0511 230.774 50.1613C229.728 48.2715 228.294 46.8439 226.467 45.8785C224.643 44.9163 222.578 44.4352 220.273 44.4352ZM236.865 59.5255C236.865 62.4876 237.477 65.1352 238.698 67.4715C239.919 69.8079 241.578 71.6285 243.668 72.9303C245.757 74.2321 248.062 74.883 250.577 74.883C252.844 74.883 254.865 74.4176 256.636 73.4932C258.407 72.5656 259.806 71.4053 260.834 70.0154V74.4051H266.947V44.9195H260.834V49.1991C259.806 47.8438 258.432 46.7118 256.714 45.7999C254.993 44.8912 252.985 44.4352 250.68 44.4352C248.128 44.4352 245.798 45.0704 243.689 46.3345C241.581 47.6017 239.916 49.3752 238.692 51.658C237.468 53.9409 236.858 56.5634 236.858 59.5255H236.865ZM260.84 59.6324C260.84 61.6669 260.425 63.4403 259.591 64.956C258.757 66.4716 257.67 67.6225 256.324 68.4086C254.978 69.1916 253.522 69.5846 251.963 69.5846C250.405 69.5846 248.996 69.1821 247.631 68.3803C246.266 67.5784 245.167 66.4087 244.336 64.8742C243.502 63.3397 243.087 61.5568 243.087 59.5223C243.087 57.4879 243.502 55.7333 244.336 54.2522C245.167 52.7712 246.257 51.6486 247.606 50.8814C248.952 50.1141 250.405 49.7305 251.967 49.7305C253.528 49.7305 254.978 50.1235 256.327 50.9097C257.673 51.6926 258.763 52.8341 259.594 54.334C260.425 55.8307 260.843 57.5979 260.843 59.6324H260.84ZM278.285 49.1959V44.9163H272.225V74.4019H278.285V58.884C278.285 55.8873 278.897 53.7837 280.118 52.5699C281.343 51.3562 283.139 50.7493 285.512 50.7493H287.055V44.4352C285.035 44.4352 283.289 44.8534 281.821 45.693C280.349 46.5326 279.172 47.6992 278.285 49.1991V49.1959ZM307.523 91.6587C306.977 90.7185 306.705 89.6148 306.705 88.3445C306.705 87.0741 306.98 85.9861 307.533 85.0459C307.567 84.9893 307.601 84.9327 307.642 84.8761H306.33C305.09 84.8761 304.213 84.5428 303.697 83.8699C303.182 83.2001 302.926 82.0933 302.926 80.5493V60.1921H296.813V80.5493C296.813 84.5774 297.541 87.4892 298.993 89.2752C300.446 91.0644 302.535 91.9606 305.265 91.9606H307.708C307.645 91.8631 307.583 91.7625 307.52 91.6587H307.523ZM261.374 78.7822H258.785V91.7751H265.625V89.7092H261.371V78.7822H261.374ZM268.586 80.2349C269.042 80.2349 269.42 80.0902 269.723 79.7978C270.026 79.5054 270.176 79.1438 270.176 78.7098C270.176 78.2759 270.026 77.9111 269.723 77.6219C269.42 77.3294 269.042 77.1848 268.586 77.1848C268.13 77.1848 267.753 77.3294 267.45 77.6219C267.147 77.9143 266.997 78.2759 266.997 78.7098C266.997 79.1438 267.147 79.5085 267.45 79.7978C267.753 80.0902 268.13 80.2349 268.586 80.2349ZM267.271 81.4644V91.7782H269.861V81.4644H267.271ZM274.096 81.4644H271.323L275.096 91.7782H278.238L282.03 81.4644H279.275L276.686 89.3758L274.096 81.4644ZM293.012 86.398C293.012 85.3918 292.799 84.5019 292.375 83.7252C291.95 82.9486 291.35 82.3511 290.582 81.9298C289.81 81.5084 288.939 81.2977 287.964 81.2977C286.99 81.2977 286.059 81.5147 285.284 81.9486C284.507 82.3826 283.904 83.002 283.473 83.8101C283.042 84.6183 282.826 85.5553 282.826 86.6213C282.826 87.6873 283.045 88.6054 283.482 89.4136C283.92 90.2217 284.529 90.8443 285.313 91.2845C286.097 91.7248 286.98 91.9449 287.967 91.9449C289.189 91.9449 290.216 91.6241 291.057 90.9858C291.894 90.3475 292.462 89.5299 292.759 88.5394H289.966C289.56 89.3695 288.876 89.7878 287.914 89.7878C287.249 89.7878 286.687 89.5771 286.231 89.1557C285.775 88.7344 285.516 88.1495 285.453 87.4074H292.943C292.993 87.1087 293.018 86.7754 293.018 86.4012L293.012 86.398ZM285.469 85.6528C285.569 84.9579 285.834 84.4139 286.271 84.024C286.709 83.6341 287.249 83.4391 287.889 83.4391C288.567 83.4391 289.139 83.6403 289.607 84.0428C290.076 84.4453 290.316 84.983 290.329 85.6528H285.466H285.469ZM328.566 79.4708C328.01 78.8985 327.098 78.8859 326.523 79.4456C325.955 80.0053 325.942 80.9235 326.498 81.5021C330.337 85.4673 330.259 91.8411 326.317 95.7056C326.033 95.9855 325.886 96.3534 325.88 96.7276C325.874 97.0986 326.014 97.4728 326.292 97.759C326.848 98.3313 327.76 98.3438 328.335 97.7841C333.417 92.8002 333.523 84.5805 328.566 79.4708ZM324.615 83.3479C324.059 82.7756 323.147 82.763 322.572 83.3228C322.004 83.8825 321.991 84.8006 322.547 85.3792C324.265 87.1496 324.231 89.9984 322.466 91.7247C322.182 92.0046 322.035 92.3725 322.029 92.7467C322.022 93.1209 322.163 93.4919 322.441 93.7781C322.997 94.3504 323.909 94.363 324.481 93.8032C327.389 90.9607 327.448 86.2691 324.618 83.3479H324.615ZM315.07 94.4856C316.275 94.4856 317.353 94.2309 318.312 93.7246C319.271 93.2184 320.027 92.4889 320.579 91.5455C321.129 90.5959 321.407 89.4922 321.407 88.2407C321.407 86.9892 321.132 85.8886 320.579 84.9516C320.027 84.0145 319.274 83.2945 318.321 82.7882C317.369 82.2819 316.291 82.0272 315.085 82.0272C313.88 82.0272 312.802 82.2819 311.849 82.7882C310.897 83.2945 310.141 84.0177 309.591 84.9516C309.041 85.8855 308.763 86.9892 308.763 88.2407C308.763 89.4922 309.038 90.6179 309.582 91.5518C310.125 92.4857 310.872 93.2089 311.824 93.7152C312.777 94.2215 313.855 94.4762 315.067 94.4824L315.07 94.4856ZM315.06 90.794C314.47 90.794 313.989 90.5802 313.62 90.1431C313.252 89.7154 313.061 89.0803 313.061 88.2407C313.061 87.4011 313.258 86.7911 313.642 86.354C314.026 85.9169 314.507 85.7031 315.082 85.7031C315.657 85.7031 316.138 85.9169 316.531 86.354C316.925 86.7911 317.122 87.4169 317.122 88.2407C317.122 89.0645 316.925 89.6903 316.531 90.1337C316.138 90.577 315.651 90.8003 315.06 90.7909V90.794Z" fill="url(#paint0_linear_2_73)"/>
<path d="M70.9407 45.9601C72.7117 46.9066 74.111 48.3248 75.1386 50.2146C76.1662 52.1044 76.6816 54.4062 76.6816 57.1167V74.4018H71.8964V57.8116C71.8964 54.8873 71.178 52.6484 69.7444 51.0951C68.3107 49.5417 66.3679 48.7681 63.9223 48.7681C61.4766 48.7681 59.4026 49.5794 57.9159 51.202C56.4291 52.8245 55.6826 55.1703 55.6826 58.2393V74.4018H50.8975V57.8116C50.8975 54.8873 50.1791 52.6484 48.7454 51.0951C47.3118 49.5417 45.369 48.7681 42.9265 48.7681C40.4839 48.7681 38.4068 49.5794 36.9201 51.202C35.4302 52.8245 34.6868 55.1703 34.6868 58.2393V74.4018H29.8486V45.0766H34.6868V49.3027C35.6426 47.7682 36.9263 46.5922 38.5411 45.7715C40.1528 44.9508 41.9332 44.542 43.8822 44.542C46.3279 44.542 48.4893 45.0954 50.3665 46.2023C52.2437 47.3091 53.643 48.9317 54.5644 51.073C55.3796 49.004 56.7259 47.4003 58.6031 46.2557C60.4803 45.1143 62.5698 44.542 64.8749 44.542C67.18 44.542 69.1634 45.0137 70.9344 45.9601H70.9407Z" fill="#36276F"/>
<path d="M109.106 61.5598H85.8236C86.0016 64.4496 86.9824 66.7073 88.7721 68.3298C90.5619 69.9524 92.7327 70.7637 95.2845 70.7637C97.3741 70.7637 99.1201 70.2731 100.519 69.2921C101.919 68.311 102.903 66.9997 103.468 65.3583H108.678C107.897 68.1758 106.338 70.4681 103.999 72.2353C101.659 74.0024 98.7547 74.8829 95.2814 74.8829C92.5171 74.8829 90.0465 74.2603 87.8663 73.0088C85.6862 71.7604 83.9776 69.9838 82.7376 67.6852C81.4976 65.3835 80.876 62.717 80.876 59.6857C80.876 56.6545 81.4789 53.9943 82.6845 51.7114C83.8902 49.4285 85.58 47.6707 87.7601 46.4413C89.9403 45.2118 92.4453 44.5955 95.2814 44.5955C98.1175 44.5955 100.491 45.2023 102.618 46.4161C104.745 47.6299 106.382 49.2964 107.535 51.4189C108.687 53.5415 109.262 55.9407 109.262 58.6166C109.262 59.5442 109.209 60.5253 109.103 61.5598H109.106ZM103.046 52.8088C102.231 51.4724 101.122 50.4536 99.7229 49.7587C98.3236 49.0637 96.7713 48.7147 95.0721 48.7147C92.6265 48.7147 90.5463 49.5008 88.8252 51.0699C87.1073 52.639 86.1234 54.815 85.8736 57.5978H104.264C104.264 55.7426 103.855 54.1452 103.043 52.8088H103.046Z" fill="#36276F"/>
<path d="M113.731 51.7398C114.937 49.4758 116.592 47.718 118.701 46.4697C120.809 45.2213 123.174 44.5956 125.797 44.5956C128.065 44.5956 130.173 45.1207 132.122 46.1741C134.071 47.2275 135.558 48.6079 136.589 50.3216V34.8037H141.48V74.405H136.589V68.8928C135.633 70.6411 134.215 72.0781 132.338 73.2007C130.461 74.3233 128.262 74.8861 125.747 74.8861C123.233 74.8861 120.812 74.2447 118.704 72.9586C116.596 71.6757 114.937 69.8739 113.735 67.5533C112.529 65.2358 111.926 62.5945 111.926 59.6324C111.926 56.6703 112.529 54.0038 113.735 51.7398H113.731ZM135.258 53.9063C134.371 52.2649 133.175 51.0071 131.669 50.133C130.164 49.2588 128.505 48.8217 126.7 48.8217C124.895 48.8217 123.245 49.2494 121.756 50.1047C120.266 50.9599 119.079 52.2114 118.195 53.8497C117.308 55.4911 116.867 57.4187 116.867 59.6292C116.867 61.8398 117.311 63.8302 118.195 65.4905C119.079 67.1508 120.269 68.4148 121.756 69.289C123.242 70.1632 124.891 70.6002 126.7 70.6002C128.508 70.6002 130.164 70.1632 131.669 69.289C133.175 68.4148 134.371 67.1476 135.258 65.4905C136.142 63.8302 136.586 61.8964 136.586 59.6858C136.586 57.4753 136.142 55.5477 135.258 53.9063Z" fill="#36276F"/>
<path d="M147.909 39.3506C147.271 38.7091 146.953 37.923 146.953 36.9954C146.953 36.0678 147.271 35.2817 147.909 34.6402C148.546 33.9987 149.327 33.678 150.248 33.678C151.169 33.678 151.888 33.9987 152.506 34.6402C153.125 35.2817 153.437 36.0678 153.437 36.9954C153.437 37.923 153.128 38.7091 152.506 39.3506C151.885 39.9921 151.132 40.3128 150.248 40.3128C149.364 40.3128 148.546 39.9921 147.909 39.3506ZM152.587 45.0766V74.4019H147.749V45.0766H152.587Z" fill="#36276F"/>
<defs>
<linearGradient id="paint0_linear_2_73" x1="157.41" y1="65.1824" x2="332.565" y2="68.1826" gradientUnits="userSpaceOnUse">
<stop stop-color="#330474"/>
<stop offset="0.51" stop-color="#805DEE"/>
<stop offset="1" stop-color="#45BBC9"/>
</linearGradient>
</defs>
</svg>
