<svg width="531" height="318" viewBox="0 0 531 318" fill="none" xmlns="http://www.w3.org/2000/svg">
<path d="M105.545 318V219.915C105.545 215.316 101.818 211.584 97.2239 211.584H8.32085C3.72723 211.584 0 207.853 0 203.254V118.315C0 113.716 3.72723 109.984 8.32085 109.984H97.2239C101.818 109.984 105.545 106.253 105.545 101.654V8.33038C105.545 3.7315 109.272 0 113.866 0H195.892C200.485 0 204.213 3.7315 204.213 8.33038V101.654C204.213 106.253 207.94 109.984 212.534 109.984H310.895C315.488 109.984 319.215 113.716 319.215 118.315V203.254C319.215 207.853 315.488 211.584 310.895 211.584H212.534C207.94 211.584 204.213 215.316 204.213 219.915V317.368" fill="url(#paint0_linear_6009_1046)" fill-opacity="0.1"/>
<path d="M472.077 15.3958C463.125 6.19808 448.36 6.00834 439.083 14.9712C429.895 23.934 429.706 38.7155 438.658 48.0036C500.65 111.665 499.35 213.979 435.761 276.041C431.168 280.522 428.776 286.458 428.704 292.431C428.632 298.394 430.861 304.393 435.346 308.992C444.299 318.19 459.063 318.379 468.341 309.417C550.394 229.42 552.073 97.4618 472.077 15.4049V15.3958Z" fill="url(#paint1_linear_6009_1046)" fill-opacity="0.1"/>
<path d="M408.308 77.6297C399.356 68.432 384.591 68.2422 375.314 77.2051C366.126 86.1679 365.937 100.949 374.889 110.237C402.641 138.644 402.054 184.407 373.59 212.099C368.996 216.581 366.605 222.517 366.532 228.489C366.46 234.452 368.689 240.452 373.175 245.05C382.127 254.248 396.892 254.438 406.079 245.466C453.008 199.848 453.965 124.513 408.299 77.6207L408.308 77.6297Z" fill="url(#paint2_linear_6009_1046)" fill-opacity="0.1"/>
<defs>
<linearGradient id="paint0_linear_6009_1046" x1="159.608" y1="0" x2="159.608" y2="318" gradientUnits="userSpaceOnUse">
<stop stop-color="#7B53E0"/>
<stop offset="0.305" stop-color="#5A90EE"/>
<stop offset="0.54" stop-color="#47BCCA"/>
<stop offset="0.995" stop-color="#47BCCA"/>
</linearGradient>
<linearGradient id="paint1_linear_6009_1046" x1="479.848" y1="8.37134" x2="479.848" y2="316.016" gradientUnits="userSpaceOnUse">
<stop stop-color="#7B53E0"/>
<stop offset="0.305" stop-color="#5A90EE"/>
<stop offset="0.54" stop-color="#47BCCA"/>
<stop offset="0.995" stop-color="#47BCCA"/>
</linearGradient>
<linearGradient id="paint2_linear_6009_1046" x1="404.226" y1="70.6052" x2="404.226" y2="252.074" gradientUnits="userSpaceOnUse">
<stop stop-color="#7B53E0"/>
<stop offset="0.305" stop-color="#5A90EE"/>
<stop offset="0.54" stop-color="#47BCCA"/>
<stop offset="0.995" stop-color="#47BCCA"/>
</linearGradient>
</defs>
</svg>
