<svg width="107" height="102" viewBox="0 0 107 102" fill="none" xmlns="http://www.w3.org/2000/svg">
<g clip-path="url(#clip0_37_574)">
<path d="M55.3455 33.7594C64.516 33.7594 72.1144 26.2921 72.1144 16.9905C72.1144 7.82007 64.516 0.22168 55.3455 0.22168C46.044 0.22168 38.5767 7.82007 38.5767 16.9905C38.5767 26.2921 46.044 33.7594 55.3455 33.7594ZM55.3455 4.4139C62.1579 4.4139 67.9222 10.1782 67.9222 16.9905C67.9222 23.9339 62.1579 29.5672 55.3455 29.5672C48.4022 29.5672 42.7689 23.9339 42.7689 16.9905C42.7689 10.1782 48.4022 4.4139 55.3455 4.4139ZM67.5291 38.0826C63.0749 37.9516 61.7648 40.0477 55.3455 40.0477C48.7952 40.0477 47.4851 37.9516 43.0308 38.0826C33.5983 38.3447 26 46.0741 26 55.6376V66.2491C26 66.9041 26.393 67.2971 27.0481 67.2971H29.1442C29.6682 67.2971 30.1922 66.9041 30.1922 66.2491V55.6376C30.1922 48.5632 35.6945 42.6679 42.7689 42.2748V53.0174C39.6247 53.9344 37.5286 56.6856 37.5286 59.9608C37.5286 64.022 40.8037 67.2971 44.865 67.2971C48.7952 67.2971 52.2014 64.022 52.2014 59.9608C52.2014 56.6856 49.9743 53.9344 46.9611 53.0174V42.9299C49.5812 43.8469 52.4633 44.24 55.3455 44.24C58.0966 44.24 60.9788 43.8469 63.7299 42.9299V51.9694C59.9308 52.8864 57.4416 56.4236 57.4416 60.3538V64.153C57.4416 64.808 57.5726 65.332 57.9657 65.7251L59.4068 67.0352C59.7997 67.4281 60.4548 67.4281 60.8478 67.0352L62.2889 65.5941C62.6819 65.201 62.6819 64.546 62.2889 64.022L61.5029 63.3669V59.9608C61.5029 57.4716 63.8609 55.5066 66.4811 55.8995C68.5772 56.1616 69.8873 58.1266 69.8873 60.2227V63.3669L69.2322 64.022C68.8392 64.546 68.8392 65.201 69.2322 65.5941L70.6733 67.0352C71.0663 67.4281 71.7213 67.4281 72.1144 67.0352L73.5555 65.7251C73.9485 65.332 74.0795 64.808 74.0795 64.153V59.9608C74.0795 56.1616 71.4594 52.8864 67.7912 51.9694V42.2748C74.8655 42.7989 80.3678 48.5632 80.3678 55.6376V66.2491C80.3678 66.9041 80.8919 67.2971 81.4159 67.2971H83.512C84.167 67.2971 84.5601 66.9041 84.5601 66.2491V55.6376C84.691 46.0741 77.0927 38.3447 67.5291 38.0826ZM48.0091 59.9608C48.0091 61.7949 46.568 63.1049 44.865 63.1049C43.0308 63.1049 41.7208 61.7949 41.7208 59.9608C41.7208 58.2577 43.0308 56.8166 44.865 56.8166C46.568 56.8166 48.0091 58.2577 48.0091 59.9608Z" fill="white"/>
</g>
<path d="M48.8711 98.7915V100H43.5215V98.9688L46.0513 96.2563C46.3055 95.9735 46.506 95.7246 46.6528 95.5098C46.7996 95.2913 46.9053 95.0962 46.9697 94.9243C47.0378 94.7489 47.0718 94.5824 47.0718 94.4248C47.0718 94.1885 47.0324 93.9862 46.9536 93.8179C46.8748 93.646 46.7585 93.5135 46.6045 93.4204C46.4541 93.3273 46.2679 93.2808 46.0459 93.2808C45.8096 93.2808 45.6055 93.3381 45.4336 93.4526C45.2653 93.5672 45.1364 93.7266 45.0469 93.9307C44.9609 94.1348 44.918 94.3657 44.918 94.6235H43.3657C43.3657 94.158 43.4767 93.7319 43.6987 93.3452C43.9207 92.9549 44.234 92.6452 44.6387 92.416C45.0433 92.1833 45.5231 92.0669 46.0781 92.0669C46.626 92.0669 47.0879 92.1564 47.4639 92.3354C47.8434 92.5109 48.1299 92.7651 48.3232 93.0981C48.5202 93.4276 48.6187 93.8215 48.6187 94.2798C48.6187 94.5376 48.5775 94.79 48.4951 95.0371C48.4128 95.2806 48.2946 95.5241 48.1406 95.7676C47.9902 96.0075 47.8076 96.251 47.5928 96.498C47.3779 96.7451 47.1398 97.0011 46.8784 97.2661L45.5195 98.7915H48.8711ZM55.3164 97.0781V98.292H49.6821L49.6069 97.3521L52.8672 92.1797H54.0972L52.7651 94.4087L51.1431 97.0781H55.3164ZM54.4302 92.1797V100H52.8833V92.1797H54.4302ZM59.5596 92.1797L56.6914 100.671H55.542L58.4102 92.1797H59.5596ZM65.5483 92.1797V93.0122L62.5244 100H60.8916L63.9155 93.3882H60.0215V92.1797H65.5483Z" fill="white"/>
<defs>
<clipPath id="clip0_37_574">
<rect width="106.203" height="95.9552" fill="white" transform="translate(0.63208 0.22168)"/>
</clipPath>
</defs>
</svg>
