<svg width="119" height="97" viewBox="0 0 119 97" fill="none" xmlns="http://www.w3.org/2000/svg">
<g clip-path="url(#clip0_37_575)">
<path d="M59.3455 33.7594C68.516 33.7594 76.1144 26.2921 76.1144 16.9905C76.1144 7.82007 68.516 0.22168 59.3455 0.22168C50.044 0.22168 42.5767 7.82007 42.5767 16.9905C42.5767 26.2921 50.044 33.7594 59.3455 33.7594ZM59.3455 4.4139C66.1579 4.4139 71.9222 10.1782 71.9222 16.9905C71.9222 23.9339 66.1579 29.5672 59.3455 29.5672C52.4022 29.5672 46.7689 23.9339 46.7689 16.9905C46.7689 10.1782 52.4022 4.4139 59.3455 4.4139ZM71.5291 38.0826C67.0749 37.9516 65.7648 40.0477 59.3455 40.0477C52.7952 40.0477 51.4851 37.9516 47.0308 38.0826C37.5983 38.3447 30 46.0741 30 55.6376V66.2491C30 66.9041 30.393 67.2971 31.0481 67.2971H33.1442C33.6682 67.2971 34.1922 66.9041 34.1922 66.2491V55.6376C34.1922 48.5632 39.6945 42.6679 46.7689 42.2748V53.0174C43.6247 53.9344 41.5286 56.6856 41.5286 59.9608C41.5286 64.022 44.8037 67.2971 48.865 67.2971C52.7952 67.2971 56.2014 64.022 56.2014 59.9608C56.2014 56.6856 53.9743 53.9344 50.9611 53.0174V42.9299C53.5812 43.8469 56.4633 44.24 59.3455 44.24C62.0966 44.24 64.9788 43.8469 67.7299 42.9299V51.9694C63.9308 52.8864 61.4416 56.4236 61.4416 60.3538V64.153C61.4416 64.808 61.5726 65.332 61.9657 65.7251L63.4068 67.0352C63.7997 67.4281 64.4548 67.4281 64.8478 67.0352L66.2889 65.5941C66.6819 65.201 66.6819 64.546 66.2889 64.022L65.5029 63.3669V59.9608C65.5029 57.4716 67.8609 55.5066 70.4811 55.8995C72.5772 56.1616 73.8873 58.1266 73.8873 60.2227V63.3669L73.2322 64.022C72.8392 64.546 72.8392 65.201 73.2322 65.5941L74.6733 67.0352C75.0663 67.4281 75.7213 67.4281 76.1144 67.0352L77.5555 65.7251C77.9485 65.332 78.0795 64.808 78.0795 64.153V59.9608C78.0795 56.1616 75.4594 52.8864 71.7912 51.9694V42.2748C78.8655 42.7989 84.3678 48.5632 84.3678 55.6376V66.2491C84.3678 66.9041 84.8919 67.2971 85.4159 67.2971H87.512C88.167 67.2971 88.5601 66.9041 88.5601 66.2491V55.6376C88.691 46.0741 81.0927 38.3447 71.5291 38.0826ZM52.0091 59.9608C52.0091 61.7949 50.568 63.1049 48.865 63.1049C47.0308 63.1049 45.7208 61.7949 45.7208 59.9608C45.7208 58.2577 47.0308 56.8166 48.865 56.8166C50.568 56.8166 52.0091 58.2577 52.0091 59.9608Z" fill="white"/>
</g>
<path d="M5.07569 86.3037H2.25048L1.71338 87.915H0L2.91113 80.0947H4.40429L7.33154 87.915H5.61817L5.07569 86.3037ZM2.68554 84.9985H4.64062L3.65771 82.0712L2.68554 84.9985ZM13.3042 81.3999H10.9087V87.915H9.29737V81.3999H6.93408V80.0947H13.3042V81.3999ZM18.9331 84.5258H15.8394V86.6206H19.4703V87.915H14.2281V80.0947H19.4595V81.3999H15.8394V83.2636H18.9331V84.5258ZM26.7749 87.915H25.1636L22.0269 82.7695V87.915H20.4156V80.0947H22.0269L25.169 85.2509V80.0947H26.7749V87.915ZM34.3213 85.31C34.2605 86.1515 33.9489 86.8139 33.3868 87.2973C32.8282 87.7807 32.0905 88.022 31.1739 88.022C30.1713 88.022 29.3817 87.6858 28.8052 87.0127C28.2323 86.3359 27.9458 85.4085 27.9458 84.2304V83.7524C27.9458 83.0004 28.0783 82.338 28.3433 81.7651C28.6083 81.1922 28.986 80.7535 29.4766 80.4492C29.9707 80.1412 30.5437 79.9873 31.1954 79.9873C32.0977 79.9873 32.8246 80.229 33.376 80.7124C33.9275 81.1958 34.2461 81.8743 34.3321 82.748H32.7207C32.6814 82.2431 32.5399 81.8779 32.2964 81.6523C32.0565 81.4231 31.6895 81.3086 31.1954 81.3086C30.6582 81.3086 30.2554 81.5019 29.9869 81.8886C29.7219 82.2718 29.5858 82.868 29.5787 83.6772V84.268C29.5787 85.1131 29.7058 85.7308 29.96 86.1211C30.2178 86.5114 30.6224 86.7065 31.1739 86.7065C31.6716 86.7065 32.0422 86.5937 32.2857 86.3681C32.5328 86.139 32.6742 85.7863 32.71 85.31H34.3213ZM37.0928 87.915H35.4815V80.0947H37.0928V87.915ZM45.0152 84.1821C45.0152 84.9519 44.8791 85.6269 44.607 86.207C44.3348 86.7871 43.9445 87.2347 43.4361 87.5498C42.9312 87.8649 42.3511 88.022 41.6958 88.022C41.0477 88.022 40.4694 87.8667 39.961 87.5551C39.4525 87.2436 39.0586 86.7996 38.7793 86.2231C38.5 85.643 38.3586 84.977 38.355 84.2251V83.8383C38.355 83.0685 38.4929 82.3917 38.7686 81.8081C39.0479 81.2208 39.44 80.7714 39.9449 80.4599C40.4533 80.1448 41.0334 79.9873 41.6851 79.9873C42.3368 79.9873 42.9151 80.1448 43.42 80.4599C43.9284 80.7714 44.3205 81.2208 44.5962 81.8081C44.8755 82.3917 45.0152 83.0667 45.0152 83.833V84.1821ZM43.3824 83.8276C43.3824 83.0076 43.2356 82.3846 42.9419 81.9585C42.6483 81.5324 42.2294 81.3193 41.6851 81.3193C41.1444 81.3193 40.7273 81.5306 40.4336 81.9531C40.14 82.372 39.9914 82.9879 39.9878 83.8007V84.1821C39.9878 84.9806 40.1346 85.6001 40.4283 86.0405C40.7219 86.4809 41.1444 86.7011 41.6958 86.7011C42.2365 86.7011 42.6519 86.4899 42.9419 86.0673C43.232 85.6412 43.3788 85.0218 43.3824 84.2089V83.8276ZM41.9966 78H43.6885L42.2007 79.665H40.9385L41.9966 78ZM52.5455 87.915H50.9341L47.7974 82.7695V87.915H46.1861V80.0947H47.7974L50.9395 85.2509V80.0947H52.5455V87.915ZM61.107 86.3037H58.2818L57.7447 87.915H56.0313L58.9424 80.0947H60.4356L63.3628 87.915H61.6495L61.107 86.3037ZM58.7168 84.9985H60.6719L59.689 82.0712L58.7168 84.9985ZM70.1626 86.9267C69.8726 87.274 69.4626 87.5444 68.9327 87.7378C68.4027 87.928 67.8155 88.022 67.1709 88.022C66.4942 88.022 65.8998 87.8756 65.3877 87.582C64.8793 87.2848 64.4854 86.8551 64.2061 86.2929C63.9304 85.7308 63.7889 85.0701 63.7818 84.311V83.7793C63.7818 82.9987 63.9125 82.3237 64.1739 81.7544C64.4388 81.1814 64.8184 80.7446 65.3125 80.4438C65.8103 80.1394 66.3921 79.9873 67.0581 79.9873C67.9855 79.9873 68.7107 80.2093 69.2334 80.6533C69.7561 81.0937 70.0659 81.7365 70.1626 82.5815H68.5943C68.5227 82.1339 68.3633 81.8063 68.1163 81.5986C67.8728 81.3909 67.5362 81.2871 67.1065 81.2871C66.5586 81.2871 66.1415 81.493 65.855 81.9047C65.5686 82.3165 65.4235 82.9288 65.42 83.7417V84.2412C65.42 85.0612 65.5757 85.6806 65.8873 86.0996C66.1988 86.5185 66.6553 86.728 67.2569 86.728C67.862 86.728 68.2935 86.5991 68.5513 86.3413V84.9931H67.085V83.8061H70.1626V86.9267ZM76.1783 84.5258H73.0845V86.6206H76.7154V87.915H71.4732V80.0947H76.7046V81.3999H73.0845V83.2636H76.1783V84.5258ZM84.0201 87.915H82.4087L79.272 82.7695V87.915H77.6607V80.0947H79.272L82.4141 85.2509V80.0947H84.0201V87.915ZM85.4273 87.915V80.0947H87.8335C88.521 80.0947 89.1351 80.2504 89.6758 80.562C90.2201 80.8699 90.6444 81.3103 90.9488 81.8833C91.2531 82.4526 91.4053 83.1007 91.4053 83.8276V84.1875C91.4053 84.9143 91.2549 85.5607 90.9541 86.1264C90.6569 86.6922 90.2362 87.1308 89.6919 87.4423C89.1477 87.7539 88.5336 87.9114 87.8497 87.915H85.4273ZM87.0386 81.3999V86.6206H87.8174C88.4476 86.6206 88.9292 86.4147 89.2623 86.0029C89.5953 85.5911 89.7653 85.0021 89.7725 84.2358V83.8222C89.7725 83.0273 89.6078 82.4257 89.2784 82.0175C88.9489 81.6058 88.4673 81.3999 87.8335 81.3999H87.0386ZM96.8785 86.3037H94.0533L93.5162 87.915H91.8028L94.7139 80.0947H96.2071L99.1343 87.915H97.4209L96.8785 86.3037ZM94.4883 84.9985H96.4434L95.4605 82.0712L94.4883 84.9985ZM99.8649 87.915V80.0947H102.604C103.553 80.0947 104.273 80.2773 104.763 80.6425C105.254 81.0042 105.499 81.5359 105.499 82.2378C105.499 82.6209 105.401 82.9593 105.204 83.2529C105.007 83.5429 104.733 83.756 104.382 83.8921C104.783 83.9923 105.098 84.1946 105.327 84.499C105.56 84.8033 105.676 85.1757 105.676 85.6162C105.676 86.3681 105.437 86.9375 104.957 87.3242C104.477 87.7109 103.793 87.9078 102.905 87.915H99.8649ZM101.476 84.5097V86.6206H102.857C103.236 86.6206 103.532 86.531 103.743 86.352C103.958 86.1694 104.065 85.9187 104.065 85.6001C104.065 84.8839 103.694 84.5205 102.953 84.5097H101.476ZM101.476 83.3711H102.669C103.481 83.3567 103.888 83.0327 103.888 82.3989C103.888 82.0444 103.784 81.7902 103.576 81.6362C103.372 81.4786 103.048 81.3999 102.604 81.3999H101.476V83.3711ZM108.502 86.6206H111.923V87.915H106.89V80.0947H108.502V86.6206ZM117.557 84.5258H114.464V86.6206H118.094V87.915H112.852V80.0947H118.084V81.3999H114.464V83.2636H117.557V84.5258Z" fill="white"/>
<defs>
<clipPath id="clip0_37_575">
<rect width="106.203" height="95.9552" fill="white" transform="translate(4.63208 0.22168)"/>
</clipPath>
</defs>
</svg>
