<svg width="111" height="107" viewBox="0 0 111 107" fill="none" xmlns="http://www.w3.org/2000/svg">
<path d="M4.75331 105.129H2.12134L1.62097 106.63H0.0247803L2.7368 99.3443H4.12784L6.85488 106.63H5.25868L4.75331 105.129ZM2.52664 103.913H4.348L3.43232 101.186L2.52664 103.913ZM12.419 100.56H10.1873V106.63H8.68624V100.56H6.4846V99.3443H12.419V100.56ZM17.6629 103.472H14.7808V105.424H18.1633V106.63H13.2797V99.3443H18.1533V100.56H14.7808V102.296H17.6629V103.472ZM24.9683 106.63H23.4672L20.5451 101.836V106.63H19.044V99.3443H20.5451L23.4723 104.148V99.3443H24.9683V106.63ZM31.9986 104.203C31.9419 104.987 31.6517 105.604 31.128 106.054C30.6076 106.505 29.9204 106.729 29.0665 106.729C28.1324 106.729 27.3968 106.416 26.8598 105.789C26.3261 105.159 26.0592 104.295 26.0592 103.197V102.752C26.0592 102.051 26.1826 101.434 26.4295 100.9C26.6763 100.367 27.0282 99.958 27.4853 99.6745C27.9456 99.3876 28.4794 99.2442 29.0865 99.2442C29.9271 99.2442 30.6043 99.4694 31.1179 99.9197C31.6317 100.37 31.9285 101.002 32.0087 101.816H30.5075C30.4709 101.346 30.339 101.005 30.1122 100.795C29.8887 100.582 29.5468 100.475 29.0865 100.475C28.586 100.475 28.2108 100.655 27.9606 101.015C27.7138 101.372 27.587 101.928 27.5804 102.682V103.232C27.5804 104.019 27.6988 104.595 27.9356 104.958C28.1758 105.322 28.5527 105.504 29.0665 105.504C29.5301 105.504 29.8754 105.399 30.1022 105.189C30.3324 104.975 30.4641 104.647 30.4975 104.203H31.9986ZM34.5805 106.63H33.0794V99.3443H34.5805V106.63ZM41.9611 103.152C41.9611 103.869 41.8343 104.498 41.5808 105.038C41.3272 105.579 40.9636 105.996 40.49 106.289C40.0196 106.583 39.4792 106.729 38.8687 106.729C38.2649 106.729 37.7262 106.585 37.2526 106.294C36.7788 106.004 36.4119 105.591 36.1517 105.053C35.8915 104.513 35.7598 103.893 35.7564 103.192V102.832C35.7564 102.115 35.8849 101.484 36.1417 100.94C36.4019 100.393 36.7672 99.9747 37.2376 99.6845C37.7112 99.3909 38.2516 99.2442 38.8587 99.2442C39.4659 99.2442 40.0046 99.3909 40.475 99.6845C40.9486 99.9747 41.3139 100.393 41.5707 100.94C41.8309 101.484 41.9611 102.113 41.9611 102.827V103.152ZM40.4399 102.822C40.4399 102.058 40.3032 101.478 40.0296 101.081C39.7561 100.684 39.3658 100.485 38.8587 100.485C38.355 100.485 37.9664 100.682 37.6928 101.076C37.4193 101.466 37.2809 102.04 37.2775 102.797V103.152C37.2775 103.896 37.4143 104.473 37.6879 104.883C37.9614 105.294 38.355 105.499 38.8687 105.499C39.3724 105.499 39.7594 105.302 40.0296 104.908C40.2998 104.511 40.4366 103.934 40.4399 103.177V102.822ZM39.1489 97.3928H40.7251L39.3391 98.9439H38.1632L39.1489 97.3928ZM48.9763 106.63H47.4751L44.553 101.836V106.63H43.0519V99.3443H44.553L47.4802 104.148V99.3443H48.9763V106.63ZM56.9523 105.129H54.3203L53.8199 106.63H52.2237L54.9357 99.3443H56.3268L59.0538 106.63H57.4576L56.9523 105.129ZM54.7255 103.913H56.5469L55.6312 101.186L54.7255 103.913ZM65.3885 105.709C65.1183 106.033 64.7364 106.284 64.2427 106.465C63.749 106.642 63.2019 106.729 62.6014 106.729C61.971 106.729 61.4172 106.593 60.9402 106.319C60.4665 106.043 60.0996 105.642 59.8394 105.119C59.5825 104.595 59.4507 103.979 59.4441 103.272V102.777C59.4441 102.05 59.5659 101.421 59.8094 100.89C60.0562 100.357 60.4098 99.9497 60.8701 99.6695C61.3339 99.3859 61.8759 99.2442 62.4963 99.2442C63.3604 99.2442 64.0359 99.451 64.5228 99.8646C65.0099 100.275 65.2985 100.874 65.3885 101.661H63.9274C63.8607 101.244 63.7122 100.939 63.4821 100.745C63.2553 100.552 62.9417 100.455 62.5414 100.455C62.031 100.455 61.6424 100.647 61.3755 101.03C61.1087 101.414 60.9735 101.985 60.9703 102.742V103.207C60.9703 103.971 61.1153 104.548 61.4056 104.938C61.6958 105.329 62.1211 105.524 62.6815 105.524C63.2452 105.524 63.6472 105.404 63.8874 105.164V103.908H62.5214V102.802H65.3885V105.709ZM70.9927 103.472H68.1105V105.424H71.4931V106.63H66.6094V99.3443H71.483V100.56H68.1105V102.296H70.9927V103.472ZM78.2982 106.63H76.797L73.8748 101.836V106.63H72.3737V99.3443H73.8748L76.802 104.148V99.3443H78.2982V106.63ZM79.6091 106.63V99.3443H81.8508C82.4912 99.3443 83.0633 99.4893 83.5671 99.7796C84.0741 100.066 84.4694 100.477 84.753 101.011C85.0365 101.541 85.1783 102.145 85.1783 102.822V103.157C85.1783 103.834 85.0381 104.436 84.7579 104.963C84.481 105.491 84.0891 105.899 83.5821 106.189C83.0751 106.48 82.503 106.626 81.8659 106.63H79.6091ZM81.1102 100.56V105.424H81.8358C82.4229 105.424 82.8715 105.232 83.1818 104.848C83.4921 104.465 83.6504 103.916 83.6571 103.202V102.817C83.6571 102.076 83.5037 101.516 83.1968 101.136C82.8899 100.752 82.4412 100.56 81.8508 100.56H81.1102ZM90.2771 105.129H87.6451L87.1448 106.63H85.5486L88.2606 99.3443H89.6516L92.3786 106.63H90.7824L90.2771 105.129ZM88.0504 103.913H89.8718L88.9561 101.186L88.0504 103.913ZM93.0593 106.63V99.3443H95.6109C96.495 99.3443 97.1658 99.5144 97.6223 99.8546C98.0797 100.192 98.3079 100.687 98.3079 101.341C98.3079 101.698 98.2166 102.013 98.0331 102.286C97.8496 102.557 97.5943 102.755 97.2673 102.882C97.6409 102.975 97.9343 103.164 98.1477 103.447C98.3647 103.731 98.4728 104.078 98.4728 104.488C98.4728 105.189 98.2502 105.719 97.803 106.079C97.3558 106.44 96.7186 106.623 95.8913 106.63H93.0593ZM94.5601 103.457V105.424H95.8466C96.1997 105.424 96.4754 105.34 96.672 105.174C96.8723 105.003 96.972 104.77 96.972 104.473C96.972 103.806 96.6264 103.467 95.9361 103.457H94.5601ZM94.5601 102.397H95.6715C96.4279 102.383 96.8071 102.081 96.8071 101.491C96.8071 101.161 96.7102 100.924 96.5164 100.78C96.3264 100.633 96.0246 100.56 95.6109 100.56H94.5601V102.397ZM101.106 105.424H104.293V106.63H99.6038V99.3443H101.106V105.424ZM109.541 103.472H106.66V105.424H110.041V106.63H105.158V99.3443H110.032V100.56H106.66V102.296H109.541V103.472Z" fill="white"/>
<g clip-path="url(#clip0_35_572)">
<path d="M48.2616 16.7545C52.4903 16.7545 55.9184 13.3137 55.9184 9.0692C55.9184 4.82473 52.4903 1.38391 48.2616 1.38391C44.0329 1.38391 40.6049 4.82473 40.6049 9.0692C40.6049 13.3137 44.0329 16.7545 48.2616 16.7545Z" stroke="white" stroke-width="3" stroke-miterlimit="10"/>
<path d="M14.0314 14.4849C14.0314 14.4849 15.6951 10.6838 23.9677 16.3024C23.9677 16.3024 32.9941 22.2993 48.9234 20.7955L49.6036 20.7125C52.1498 20.3157 67.7758 17.7509 75.0006 13.1748C75.1293 13.0918 75.2487 13.0272 75.3866 12.9626C76.6919 12.3537 83.6409 9.25372 85.8285 12.409C85.8285 12.409 88.8342 17.0036 78.1901 20.3157C69.0443 23.1574 61.2496 25.3808 59.2274 25.9528C58.9149 26.0451 58.6851 26.3219 58.6759 26.654C58.584 28.8037 59.1539 36.6551 71.6088 39.8473C71.7742 39.8934 71.9489 39.8749 72.1052 39.8104L84.5233 34.3393C85.3873 33.9611 85.5619 33.675 85.5527 33.3614L85.2678 21.5982C85.2678 21.3491 85.3781 21.1092 85.5803 20.9616C86.9867 19.9282 92.3823 15.4721 88.3011 10.5915C87.7588 9.93645 88.5033 9.02307 89.2478 9.42902C90.5255 10.1117 91.8032 11.6802 91.9227 15.1492L92.4282 32.8539C92.4282 32.9001 92.4282 32.937 92.4466 32.9831C92.5753 33.5828 93.5128 38.611 88.9169 40.8068C84.0269 43.141 75.5705 46.6007 75.5705 46.6007C75.5705 46.6007 73.2541 47.9108 73.5758 50.0697C73.8975 52.2286 74.5961 80.3034 74.6237 81.4013C74.6237 81.4198 74.6237 81.4382 74.6237 81.4659C74.688 81.9733 75.5521 89.0497 71.0205 88.6069C71.0205 88.6069 66.3787 88.856 66.5809 83.3296L65.1286 52.856C65.1102 52.5331 64.908 52.2563 64.5955 52.164C61.5897 51.223 46.1199 45.6689 44.4011 30.5474C44.3643 30.1968 44.0886 29.9108 43.7393 29.8831C40.66 29.5971 26.569 28.1302 21.3481 24.4306C21.3113 24.4029 21.2837 24.3936 21.247 24.3752C20.4565 24.0615 10.8235 20.0482 14.0222 14.5033L14.0314 14.4849Z" stroke="white" stroke-width="3" stroke-miterlimit="10"/>
</g>
<defs>
<clipPath id="clip0_35_572">
<rect width="82" height="90" fill="white" transform="translate(12)"/>
</clipPath>
</defs>
</svg>
