<svg width="114" height="101" viewBox="0 0 114 101" fill="none" xmlns="http://www.w3.org/2000/svg">
<path d="M5.09764 98.6194H2.39761L1.88429 100.159H0.246826L3.02899 92.6855H4.45599L7.25356 100.159H5.61609L5.09764 98.6194ZM2.81339 97.372H4.68185L3.74249 94.5744L2.81339 97.372ZM12.9616 93.9329H10.6722V100.159H9.13228V93.9329H6.8737V92.6855H12.9616V93.9329ZM18.3411 96.9203H15.3844V98.9223H18.8545V100.159H13.8445V92.6855H18.8442V93.9329H15.3844V95.714H18.3411V96.9203ZM25.8355 100.159H24.2955L21.2978 95.2418V100.159H19.7579V92.6855H21.2978L24.3007 97.6133V92.6855H25.8355V100.159ZM33.0475 97.6697C32.9894 98.4739 32.6916 99.107 32.1544 99.569C31.6206 100.031 30.9156 100.262 30.0396 100.262C29.0814 100.262 28.3268 99.9403 27.7758 99.297C27.2283 98.6502 26.9545 97.7639 26.9545 96.638V96.1811C26.9545 95.4625 27.0811 94.8294 27.3344 94.2819C27.5876 93.7344 27.9486 93.3151 28.4175 93.0243C28.8897 92.7299 29.4373 92.5829 30.0601 92.5829C30.9224 92.5829 31.6171 92.8138 32.1441 93.2758C32.6712 93.7378 32.9756 94.3862 33.0578 95.2212H31.5178C31.4803 94.7387 31.345 94.3897 31.1123 94.1741C30.8831 93.955 30.5323 93.8456 30.0601 93.8456C29.5467 93.8456 29.1618 94.0303 28.9051 94.3999C28.6519 94.7661 28.5218 95.3359 28.515 96.1093V96.6739C28.515 97.4816 28.6365 98.0719 28.8794 98.4449C29.1258 98.8179 29.5125 99.0044 30.0396 99.0044C30.5152 99.0044 30.8694 98.8966 31.1021 98.681C31.3383 98.462 31.4734 98.1249 31.5076 97.6697H33.0475ZM35.6962 100.159H34.1563V92.6855H35.6962V100.159ZM43.2676 96.5918C43.2676 97.3275 43.1376 97.9726 42.8775 98.527C42.6174 99.0814 42.2444 99.5092 41.7585 99.8103C41.276 100.111 40.7216 100.262 40.0953 100.262C39.4759 100.262 38.9232 100.113 38.4374 99.8154C37.9514 99.5177 37.5749 99.0933 37.308 98.5424C37.0411 97.988 36.9059 97.3515 36.9025 96.6329V96.2632C36.9025 95.5275 37.0343 94.8807 37.2978 94.323C37.5647 93.7617 37.9394 93.3322 38.422 93.0345C38.9078 92.7334 39.4622 92.5829 40.0851 92.5829C40.7079 92.5829 41.2606 92.7334 41.7431 93.0345C42.229 93.3322 42.6037 93.7617 42.8672 94.323C43.1341 94.8807 43.2676 95.5258 43.2676 96.2582V96.5918ZM41.7072 96.253C41.7072 95.4693 41.5669 94.8739 41.2862 94.4667C41.0056 94.0595 40.6053 93.8558 40.0851 93.8558C39.5683 93.8558 39.1697 94.0578 38.889 94.4616C38.6084 94.8619 38.4664 95.4505 38.463 96.2273V96.5918C38.463 97.3549 38.6033 97.947 38.884 98.3679C39.1645 98.7888 39.5683 98.9992 40.0953 98.9992C40.612 98.9992 41.009 98.7974 41.2862 98.3935C41.5634 97.9863 41.7037 97.3943 41.7072 96.6174V96.253ZM40.3828 90.6836H41.9997L40.5778 92.2748H39.3715L40.3828 90.6836ZM50.4643 100.159H48.9243L45.9266 95.2418V100.159H44.3867V92.6855H45.9266L48.9295 97.6133V92.6855H50.4643V100.159ZM58.6465 98.6194H55.9465L55.4332 100.159H53.7957L56.5778 92.6855H58.0049L60.8024 100.159H59.165L58.6465 98.6194ZM56.3622 97.372H58.2307L57.2913 94.5744L56.3622 97.372ZM67.3009 99.2148C67.0238 99.5467 66.6319 99.8051 66.1255 99.99C65.619 100.172 65.0578 100.262 64.4417 100.262C63.795 100.262 63.227 100.122 62.7376 99.8411C62.2517 99.557 61.8752 99.1464 61.6083 98.6091C61.3448 98.0719 61.2096 97.4405 61.2028 96.715V96.2069C61.2028 95.4608 61.3277 94.8157 61.5775 94.2717C61.8307 93.724 62.1935 93.3066 62.6657 93.0191C63.1414 92.7282 63.6975 92.5829 64.3339 92.5829C65.2204 92.5829 65.9133 92.795 66.4129 93.2193C66.9125 93.6402 67.2086 94.2545 67.3009 95.0621H65.8021C65.7337 94.6343 65.5813 94.3213 65.3453 94.1228C65.1126 93.9243 64.7909 93.8251 64.3802 93.8251C63.8566 93.8251 63.458 94.0218 63.1842 94.4153C62.9104 94.8089 62.7718 95.394 62.7684 96.1709V96.6483C62.7684 97.432 62.9172 98.0239 63.215 98.4244C63.5127 98.8247 63.949 99.0249 64.5239 99.0249C65.1022 99.0249 65.5146 98.9017 65.761 98.6553V97.3669H64.3597V96.2325H67.3009V99.2148ZM73.0501 96.9203H70.0934V98.9223H73.5634V100.159H68.5534V92.6855H73.5531V93.9329H70.0934V95.714H73.0501V96.9203ZM80.5445 100.159H79.0045L76.0067 95.2418V100.159H74.4668V92.6855H76.0067L79.0096 97.6133V92.6855H80.5445V100.159ZM81.8893 100.159V92.6855H84.1889C84.846 92.6855 85.4329 92.8343 85.9496 93.1321C86.4698 93.4264 86.8753 93.8472 87.1662 94.3948C87.457 94.9389 87.6025 95.5583 87.6025 96.253V96.597C87.6025 97.2916 87.4587 97.9093 87.1713 98.45C86.8872 98.9907 86.4852 99.4099 85.965 99.7076C85.4449 100.005 84.858 100.156 84.2044 100.159H81.8893ZM83.4292 93.9329V98.9223H84.1735C84.7758 98.9223 85.2361 98.7255 85.5544 98.3319C85.8727 97.9384 86.0351 97.3755 86.042 96.6431V96.2479C86.042 95.4882 85.8846 94.9132 85.5698 94.5231C85.2549 94.1296 84.7946 93.9329 84.1889 93.9329H83.4292ZM92.8332 98.6194H90.1332L89.6199 100.159H87.9824L90.7645 92.6855H92.1915L94.9891 100.159H93.3516L92.8332 98.6194ZM90.5489 97.372H92.4174L91.478 94.5744L90.5489 97.372ZM95.6873 100.159V92.6855H98.3049C99.2119 92.6855 99.9 92.86 100.368 93.209C100.838 93.5547 101.072 94.0628 101.072 94.7336C101.072 95.0998 100.978 95.4232 100.79 95.7038C100.601 95.9809 100.34 96.1846 100.004 96.3146C100.387 96.4104 100.688 96.6038 100.907 96.8947C101.13 97.1855 101.241 97.5414 101.241 97.9624C101.241 98.681 101.012 99.2251 100.554 99.5947C100.095 99.9643 99.4413 100.152 98.5926 100.159H95.6873ZM97.2269 96.9049V98.9223H98.5467C98.9089 98.9223 99.1918 98.8366 99.3935 98.6656C99.599 98.4911 99.7012 98.2515 99.7012 97.947C99.7012 97.2625 99.3466 96.9152 98.6385 96.9049H97.2269ZM97.2269 95.8167H98.3671C99.1431 95.803 99.5321 95.4933 99.5321 94.8876C99.5321 94.5488 99.4327 94.3059 99.2339 94.1587C99.0389 94.0081 98.7293 93.9329 98.3049 93.9329H97.2269V95.8167ZM103.942 98.9223H107.211V100.159H102.401V92.6855H103.942V98.9223ZM112.595 96.9203H109.639V98.9223H113.109V100.159H108.099V92.6855H113.099V93.9329H109.639V95.714H112.595V96.9203Z" fill="white"/>
<g clip-path="url(#clip0_37_576)">
<path d="M82.1015 18.9819C79.0386 17.8448 76.1406 18.0321 73.2975 18.701C73.4623 18.5271 73.6546 18.3666 73.8194 18.1793C76.9647 14.447 78.0497 8.85532 76.484 4.29368C76.4565 4.21342 76.4016 4.14653 76.3604 4.09302C76.3192 3.66495 76.0307 3.27701 75.4539 3.33052C68.0509 3.90574 61.623 9.09611 59.4941 15.7847C57.8322 10.9422 54.1238 6.43404 50.2094 3.59806C49.921 3.38403 49.6463 3.39741 49.3991 3.50442C49.3716 3.50442 49.3441 3.53118 49.3167 3.54456C49.2617 3.58469 49.2068 3.61144 49.1519 3.66495C49.1107 3.69171 49.0694 3.70508 49.042 3.74521C47.5449 5.37724 46.7757 7.8119 46.1989 9.872C46.1027 10.2198 46.1989 10.4873 46.4049 10.688C46.5148 10.8352 46.6521 10.9556 46.8719 11.0224C52.1872 12.601 56.1566 16.6676 57.6399 21.8313C51.734 20.8681 46.6933 17.2429 40.3067 18.0187C34.1398 18.7679 29.3464 22.9148 26.778 28.3059C20.1716 42.2182 27.7943 58.8996 37.1065 69.8422C41.9823 75.5811 46.5285 74.9523 53.2036 72.7852C58.052 71.2201 61.3346 72.1297 66.0456 73.2802C68.6552 73.9223 71.5944 74.5911 74.3002 74.1631C80.7967 73.1598 84.9721 65.4812 87.3207 60.224C90.7544 52.4919 93.4189 44.5458 93.158 36.0379C92.9519 28.9747 89.2161 21.6306 82.0878 18.9953L82.1015 18.9819ZM74.7534 5.27022C75.9483 9.35028 74.9182 14.4738 71.8416 17.5372C68.9986 20.3731 64.6172 21.3229 60.6616 21.8848C60.6753 21.8045 60.7028 21.7376 60.689 21.644C60.0847 13.6578 66.6087 6.30027 74.7534 5.2836V5.27022ZM48.2866 9.53756C48.6574 8.22659 49.1519 6.83536 49.921 5.72505C53.5195 8.56103 56.8433 13.0825 58.0245 17.6977C55.9506 13.9387 52.4894 11.0358 48.2866 9.55094V9.53756ZM78.5991 69.8288C72.24 75.6212 65.1528 69.4677 58.0245 69.7486C54.6183 69.8824 51.6104 71.6214 48.369 72.4107C42.5592 73.8153 39.1392 69.7352 36.2412 65.4679C31.3516 58.2575 26.8466 50.4452 26.2698 41.643C25.6929 32.8274 29.6348 21.7778 39.6611 19.9718C46.8444 18.6742 52.352 23.3563 59.1782 23.8512C59.3018 23.8914 59.4254 23.9047 59.5903 23.8914C61.5543 23.8646 63.4772 23.4365 65.3726 22.8613C66.2791 22.6339 67.1718 22.3396 68.0371 22.0052C72.0889 20.6407 76.0994 19.2227 80.3022 20.3464C91.7433 23.383 92.4163 37.2419 90.2462 46.4989C88.392 54.4316 84.8072 64.1569 78.5854 69.8155L78.5991 69.8288Z" fill="white" stroke="white" stroke-width="3" stroke-miterlimit="10"/>
</g>
<defs>
<clipPath id="clip0_37_576">
<rect width="94.6139" height="85.057" fill="white" transform="translate(12.6709 0.848145)"/>
</clipPath>
</defs>
</svg>
