<svg width="111" height="98" viewBox="0 0 111 98" fill="none" xmlns="http://www.w3.org/2000/svg">
<path d="M4.75331 96.1286H2.12134L1.62097 97.6297H0.0247803L2.7368 90.3443H4.12784L6.85488 97.6297H5.25868L4.75331 96.1286ZM2.52664 94.9127H4.348L3.43232 92.1856L2.52664 94.9127ZM12.419 91.5602H10.1873V97.6297H8.68624V91.5602H6.4846V90.3443H12.419V91.5602ZM17.6629 94.4723H14.7808V96.4238H18.1633V97.6297H13.2797V90.3443H18.1533V91.5602H14.7808V93.2964H17.6629V94.4723ZM24.9683 97.6297H23.4672L20.5451 92.8361V97.6297H19.044V90.3443H20.5451L23.4723 95.1478V90.3443H24.9683V97.6297ZM31.9986 95.2028C31.9419 95.9868 31.6517 96.6039 31.128 97.0542C30.6076 97.5046 29.9204 97.7294 29.0665 97.7294C28.1324 97.7294 27.3968 97.4162 26.8598 96.7891C26.3261 96.1586 26.0592 95.2946 26.0592 94.1971V93.7518C26.0592 93.0512 26.1826 92.4341 26.4295 91.9004C26.6763 91.3667 27.0282 90.958 27.4853 90.6745C27.9456 90.3876 28.4794 90.2442 29.0865 90.2442C29.9271 90.2442 30.6043 90.4694 31.1179 90.9197C31.6317 91.37 31.9285 92.0021 32.0087 92.8161H30.5075C30.4709 92.3457 30.339 92.0055 30.1122 91.7953C29.8887 91.5818 29.5468 91.4751 29.0865 91.4751C28.586 91.4751 28.2108 91.6552 27.9606 92.0155C27.7138 92.3725 27.587 92.9279 27.5804 93.6817V94.2321C27.5804 95.0194 27.6988 95.5949 27.9356 95.9585C28.1758 96.3221 28.5527 96.5038 29.0665 96.5038C29.5301 96.5038 29.8754 96.3987 30.1022 96.1886C30.3324 95.9751 30.4641 95.6466 30.4975 95.2028H31.9986ZM34.5805 97.6297H33.0794V90.3443H34.5805V97.6297ZM41.9611 94.1521C41.9611 94.8692 41.8343 95.4981 41.5808 96.0385C41.3272 96.5789 40.9636 96.9959 40.49 97.2895C40.0196 97.583 39.4792 97.7294 38.8687 97.7294C38.2649 97.7294 37.7262 97.5847 37.2526 97.2944C36.7788 97.0042 36.4119 96.5906 36.1517 96.0535C35.8915 95.5131 35.7598 94.8926 35.7564 94.1921V93.8318C35.7564 93.1147 35.8849 92.4841 36.1417 91.9405C36.4019 91.3933 36.7672 90.9747 37.2376 90.6845C37.7112 90.3909 38.2516 90.2442 38.8587 90.2442C39.4659 90.2442 40.0046 90.3909 40.475 90.6845C40.9486 90.9747 41.3139 91.3933 41.5707 91.9405C41.8309 92.4841 41.9611 93.113 41.9611 93.8269V94.1521ZM40.4399 93.8218C40.4399 93.0579 40.3032 92.4775 40.0296 92.0806C39.7561 91.6836 39.3658 91.4851 38.8587 91.4851C38.355 91.4851 37.9664 91.6819 37.6928 92.0755C37.4193 92.4658 37.2809 93.0396 37.2775 93.7968V94.1521C37.2775 94.896 37.4143 95.4731 37.6879 95.8834C37.9614 96.2937 38.355 96.4988 38.8687 96.4988C39.3724 96.4988 39.7594 96.302 40.0296 95.9083C40.2998 95.5114 40.4366 94.9344 40.4399 94.1771V93.8218ZM39.1489 88.3928H40.7251L39.3391 89.9439H38.1632L39.1489 88.3928ZM48.9763 97.6297H47.4751L44.553 92.8361V97.6297H43.0519V90.3443H44.553L47.4802 95.1478V90.3443H48.9763V97.6297ZM56.9523 96.1286H54.3203L53.8199 97.6297H52.2237L54.9357 90.3443H56.3268L59.0538 97.6297H57.4576L56.9523 96.1286ZM54.7255 94.9127H56.5469L55.6312 92.1856L54.7255 94.9127ZM65.3885 96.709C65.1183 97.0325 64.7364 97.2844 64.2427 97.4646C63.749 97.6418 63.2019 97.7294 62.6014 97.7294C61.971 97.7294 61.4172 97.593 60.9402 97.3195C60.4665 97.0426 60.0996 96.6423 59.8394 96.1185C59.5825 95.5949 59.4507 94.9794 59.4441 94.2722V93.7768C59.4441 93.0496 59.5659 92.4208 59.8094 91.8904C60.0562 91.3566 60.4098 90.9497 60.8701 90.6695C61.3339 90.3859 61.8759 90.2442 62.4963 90.2442C63.3604 90.2442 64.0359 90.451 64.5228 90.8646C65.0099 91.2749 65.2985 91.8738 65.3885 92.661H63.9274C63.8607 92.244 63.7122 91.9388 63.4821 91.7453C63.2553 91.5518 62.9417 91.4551 62.5414 91.4551C62.031 91.4551 61.6424 91.6469 61.3755 92.0305C61.1087 92.4141 60.9735 92.9845 60.9703 93.7418V94.2072C60.9703 94.9711 61.1153 95.5481 61.4056 95.9384C61.6958 96.3287 62.1211 96.5239 62.6815 96.5239C63.2452 96.5239 63.6472 96.4038 63.8874 96.1636V94.9076H62.5214V93.8018H65.3885V96.709ZM70.9927 94.4723H68.1105V96.4238H71.4931V97.6297H66.6094V90.3443H71.483V91.5602H68.1105V93.2964H70.9927V94.4723ZM78.2982 97.6297H76.797L73.8748 92.8361V97.6297H72.3737V90.3443H73.8748L76.802 95.1478V90.3443H78.2982V97.6297ZM79.6091 97.6297V90.3443H81.8508C82.4912 90.3443 83.0633 90.4893 83.5671 90.7796C84.0741 91.0664 84.4694 91.4767 84.753 92.0105C85.0365 92.5409 85.1783 93.1447 85.1783 93.8218V94.1571C85.1783 94.8342 85.0381 95.4364 84.7579 95.9634C84.481 96.4905 84.0891 96.8991 83.5821 97.1893C83.0751 97.4796 82.503 97.6263 81.8659 97.6297H79.6091ZM81.1102 91.5602V96.4238H81.8358C82.4229 96.4238 82.8715 96.232 83.1818 95.8484C83.4921 95.4647 83.6504 94.916 83.6571 94.2021V93.8168C83.6571 93.0763 83.5037 92.5158 83.1968 92.1355C82.8899 91.752 82.4412 91.5602 81.8508 91.5602H81.1102ZM90.2771 96.1286H87.6451L87.1448 97.6297H85.5486L88.2606 90.3443H89.6516L92.3786 97.6297H90.7824L90.2771 96.1286ZM88.0504 94.9127H89.8718L88.9561 92.1856L88.0504 94.9127ZM93.0593 97.6297V90.3443H95.6109C96.495 90.3443 97.1658 90.5144 97.6223 90.8546C98.0797 91.1915 98.3079 91.6869 98.3079 92.3408C98.3079 92.6977 98.2166 93.0129 98.0331 93.2864C97.8496 93.5566 97.5943 93.7551 97.2673 93.8819C97.6409 93.9753 97.9343 94.1637 98.1477 94.4473C98.3647 94.7308 98.4728 95.0777 98.4728 95.4881C98.4728 96.1886 98.2502 96.719 97.803 97.0793C97.3558 97.4395 96.7186 97.623 95.8913 97.6297H93.0593ZM94.5601 94.4573V96.4238H95.8466C96.1997 96.4238 96.4754 96.3403 96.672 96.1736C96.8723 96.0035 96.972 95.7699 96.972 95.4731C96.972 94.8059 96.6264 94.4673 95.9361 94.4573H94.5601ZM94.5601 93.3966H95.6715C96.4279 93.3831 96.8071 93.0813 96.8071 92.4909C96.8071 92.1606 96.7102 91.9238 96.5164 91.7803C96.3264 91.6335 96.0246 91.5602 95.6109 91.5602H94.5601V93.3966ZM101.106 96.4238H104.293V97.6297H99.6038V90.3443H101.106V96.4238ZM109.541 94.4723H106.66V96.4238H110.041V97.6297H105.158V90.3443H110.032V91.5602H106.66V93.2964H109.541V94.4723Z" fill="white"/>
<g clip-path="url(#clip0_35_573)">
<path d="M30.3004 14.8038C29.8996 15.4787 30.4388 16.1315 31.0582 16.1168C31.5063 16.1057 31.9691 16.1684 32.4318 16.3122C32.8945 16.4561 33.3098 16.6663 33.6778 16.9244C34.1842 17.2859 34.9894 17.0498 35.0332 16.2606C35.106 14.8407 34.4575 13.5941 33.3536 13.2548C32.2496 12.9119 31.0218 13.5794 30.3004 14.8001V14.8038Z" fill="white"/>
<path d="M76.7028 17.356C77.1218 17.1937 77.5809 17.0941 78.0618 17.072C78.5427 17.0498 79.0091 17.1052 79.439 17.2232C80.0365 17.3891 80.7178 16.8913 80.4919 16.1389C80.0875 14.7743 79.0637 13.8265 77.9088 13.8818C76.7538 13.9371 75.8247 14.9845 75.5515 16.3786C75.4021 17.1531 76.1235 17.5809 76.7028 17.356Z" fill="white"/>
<path d="M93.9946 71.902C94.6614 70.8472 95.0038 69.6302 95.0038 68.4168C95.0038 64.9427 92.3332 61.8005 87.6296 61.4796C87.564 61.4612 87.4948 61.4501 87.4256 61.4427C81.1334 54.9112 78.2515 39.0932 79.9602 29.5891C85.684 29.1355 89.71 25.7314 91.2147 19.9228C91.8778 17.3522 90.701 15.3717 88.2599 14.9033C87.0612 14.671 86.267 13.9518 85.8298 12.7053C85.8152 12.6647 85.8006 12.6278 85.7824 12.5872C83.4725 7.40555 79.4756 6.76383 76.8269 6.5278C76.8269 6.51673 76.8378 6.49829 76.8269 6.49829C75.8687 6.55361 74.6809 6.54992 75.3149 5.83813C77.0054 3.93879 77.3042 3.0426 77.4973 2.34925C77.9272 0.822397 76.3277 -0.173373 75.1291 0.0257807C68.5491 1.12482 62.0966 7.07732 58.6864 15.1431C58.2419 16.1978 57.484 18.005 56.5368 20.3284C55.3344 17.4038 52.8824 10.3523 45.8215 6.63844C42.71 5.00095 39.6532 4.48831 36.4579 4.69115C33.791 4.85711 28.2457 5.19641 25.2581 11.9787C25.167 12.0709 24.4383 12.6942 21.2904 13.0372C19.3594 13.2474 17.5705 13.229 17.5523 13.229H17.5341C16.6961 13.2253 16.0148 13.9039 16.0002 14.7558C15.8873 23.5444 19.8039 27.3726 22.7369 29.0064C22.7369 29.0064 22.7441 29.0101 22.7478 29.0138C24.5148 30.0907 26.7483 30.3452 28.8213 30.3452C29.9435 30.3452 30.9673 30.2714 31.7324 30.194C32.3081 33.8672 33.3756 48.73 26.107 61.487C21.4398 61.8373 18.8129 64.9832 18.8129 68.4205C18.8129 69.6339 19.1517 70.8509 19.8221 71.9057C19.8221 71.9057 21.4726 75.0036 26.5078 75.0036H42.9505C43.7958 75.0036 44.4807 74.3103 44.4807 73.4547C44.4807 72.599 43.7958 71.9057 42.9505 71.9057H26.005C23.1522 71.9057 21.877 70.1539 21.877 68.4205C21.877 66.215 23.7825 64.655 26.7118 64.5628C28.0562 64.8652 29.6812 65.636 30.3479 67.5649C30.6285 68.3726 31.5029 68.7967 32.2972 68.5127C33.0951 68.2287 33.5141 67.3473 33.2335 66.5396C32.5449 64.5517 31.1568 63.0507 29.2403 62.1656C36.0535 49.5709 35.5361 35.0585 34.7929 30.0907C34.6544 29.1724 34.301 28.0217 34.2282 27.8631C33.9513 27.2325 33.2809 26.8526 32.585 26.9669C31.2551 27.1882 27.6336 27.5718 25.1269 26.7235C25.0541 26.6977 24.9848 26.6719 24.9156 26.6461C22.1721 25.4364 20.3577 23.0576 19.5452 19.6646C20.5399 19.4359 21.979 18.6172 22.9154 15.9397C25.8046 15.475 27.4405 14.6194 28.0344 13.2695C29.4444 10.0462 31.4555 8.73693 33.678 8.17635C34.8293 7.88499 37.7878 7.47931 40.309 9.18687C41.0122 9.66263 41.5806 10.4445 41.923 11.444C42.4914 13.1109 42.0797 14.9734 40.7644 16.6883C37.3506 21.1361 36.4907 23.4006 36.8041 26.351C37.0044 28.2098 38.0027 29.7366 39.6241 30.6439C41.8502 31.8941 44.7613 31.9347 46.9874 30.5443C49.3811 29.047 50.7692 26.3842 51.4396 21.8959C51.4396 21.8885 51.4396 21.8811 51.4433 21.87C50.8603 20.3653 49.9385 18.2926 48.8054 16.8506C48.8929 18.1009 49.0714 19.6793 48.7071 21.3463C47.9747 24.6988 47.512 26.3805 45.6502 27.7488C44.2111 28.8072 42.3056 28.6007 41.1033 27.9258C40.3564 27.5091 39.9337 26.8637 39.8427 26.008C39.6714 24.4111 39.8499 22.9101 43.1764 18.5766C45.2713 15.8475 45.9344 12.3844 44.3386 9.32702C44.7212 9.52617 45.1657 9.78802 45.581 10.0904C45.581 10.0904 47.7161 11.4587 49.9495 14.3686C50.598 15.2131 52.8678 18.241 54.8899 24.3853C50.2628 36.0174 43.497 54.2953 43.497 61.723C43.497 69.1507 49.3738 74.9852 56.5987 74.9852C63.8236 74.9852 69.7004 69.0364 69.7004 61.723C69.7004 57.703 67.3322 49.1284 62.6686 36.2387C61.6011 33.2919 60.519 30.4152 59.5061 27.7894L57.9504 32.2666C62.0383 43.1168 66.6399 56.6593 66.6399 61.7193C66.6399 67.3251 62.1367 71.8836 56.5987 71.8836C51.0607 71.8836 46.5575 67.3215 46.5575 61.7193C46.5575 53.8712 55.2616 31.7356 58.1872 24.4185C58.1872 24.4185 58.1872 24.4185 58.1872 24.4148C59.8195 20.3321 61.0874 17.3153 61.4991 16.3454C63.6705 11.2116 68.0536 5.66479 73.3984 3.67325C69.4053 7.54201 70.8371 9.57043 72.2981 9.57043H76.2549C78.7142 9.77696 81.2828 10.0536 82.9697 13.7895C83.6328 15.6188 84.8715 16.9354 86.5256 17.5882C86.1686 18.4955 85.8917 20.0555 87.6697 20.8706C86.3253 24.0866 83.3741 27.0849 76.9836 26.4395C76.1383 26.3547 75.3914 26.9743 75.3076 27.8262C75.2238 28.6782 75.8359 29.4379 76.6775 29.5227C76.7394 29.5301 76.7977 29.5338 76.8597 29.5375C76.0727 34.4795 76.3569 40.9446 77.6576 47.111C79.0093 53.5171 81.301 58.85 84.1975 62.4164C82.558 63.3199 81.3629 64.7177 80.7399 66.5175C80.3901 67.528 81.137 68.5791 82.1827 68.5791C82.813 68.5791 83.4069 68.1808 83.6255 67.5427C84.2886 65.625 85.9026 64.8505 87.2434 64.5481C93.5683 64.8468 93.2951 71.8873 87.8118 71.8873H70.2615C69.4162 71.8873 68.7312 72.5806 68.7312 73.4362C68.7312 74.2919 69.4162 74.9852 70.2615 74.9852H87.8118C92.6502 74.9852 93.991 71.8873 93.991 71.8873L93.9946 71.902Z" fill="white"/>
</g>
<defs>
<clipPath id="clip0_35_573">
<rect width="79" height="75" fill="white" transform="translate(16)"/>
</clipPath>
</defs>
</svg>
