<svg width="111" height="98" viewBox="0 0 111 98" fill="none" xmlns="http://www.w3.org/2000/svg">
<path d="M4.75334 96.1286H2.12137L1.621 97.6297H0.0248108L2.73684 90.3443H4.12787L6.85491 97.6297H5.25871L4.75334 96.1286ZM2.52667 94.9127H4.34803L3.43235 92.1856L2.52667 94.9127ZM12.419 91.5602H10.1874V97.6297H8.68627V91.5602H6.48463V90.3443H12.419V91.5602ZM17.6629 94.4723H14.7808V96.4238H18.1634V97.6297H13.2797V90.3443H18.1533V91.5602H14.7808V93.2964H17.6629V94.4723ZM24.9684 97.6297H23.4673L20.5451 92.8361V97.6297H19.044V90.3443H20.5451L23.4723 95.1478V90.3443H24.9684V97.6297ZM31.9986 95.2028C31.942 95.9868 31.6517 96.6039 31.128 97.0542C30.6076 97.5046 29.9204 97.7294 29.0665 97.7294C28.1325 97.7294 27.3969 97.4162 26.8598 96.7891C26.3261 96.1586 26.0592 95.2946 26.0592 94.1971V93.7518C26.0592 93.0512 26.1826 92.4341 26.4295 91.9004C26.6764 91.3667 27.0282 90.958 27.4853 90.6745C27.9456 90.3876 28.4794 90.2442 29.0865 90.2442C29.9271 90.2442 30.6043 90.4694 31.118 90.9197C31.6318 91.37 31.9286 92.0021 32.0087 92.8161H30.5075C30.4709 92.3457 30.3391 92.0055 30.1122 91.7953C29.8887 91.5818 29.5468 91.4751 29.0865 91.4751C28.5861 91.4751 28.2108 91.6552 27.9607 92.0155C27.7138 92.3725 27.587 92.9279 27.5804 93.6817V94.2321C27.5804 95.0194 27.6988 95.5949 27.9356 95.9585C28.1758 96.3221 28.5527 96.5038 29.0665 96.5038C29.5302 96.5038 29.8754 96.3987 30.1023 96.1886C30.3324 95.9751 30.4642 95.6466 30.4975 95.2028H31.9986ZM34.5806 97.6297H33.0795V90.3443H34.5806V97.6297ZM41.9611 94.1521C41.9611 94.8692 41.8343 95.4981 41.5808 96.0385C41.3272 96.5789 40.9636 96.9959 40.49 97.2895C40.0196 97.583 39.4792 97.7294 38.8687 97.7294C38.265 97.7294 37.7262 97.5847 37.2526 97.2944C36.7789 97.0042 36.4119 96.5906 36.1517 96.0535C35.8915 95.5131 35.7598 94.8926 35.7564 94.1921V93.8318C35.7564 93.1147 35.8849 92.4841 36.1417 91.9405C36.4019 91.3933 36.7672 90.9747 37.2376 90.6845C37.7112 90.3909 38.2516 90.2442 38.8588 90.2442C39.4659 90.2442 40.0046 90.3909 40.475 90.6845C40.9486 90.9747 41.3139 91.3933 41.5708 91.9405C41.831 92.4841 41.9611 93.113 41.9611 93.8269V94.1521ZM40.44 93.8218C40.44 93.0579 40.3032 92.4775 40.0296 92.0806C39.7561 91.6836 39.3658 91.4851 38.8588 91.4851C38.355 91.4851 37.9665 91.6819 37.6929 92.0755C37.4193 92.4658 37.2809 93.0396 37.2776 93.7968V94.1521C37.2776 94.896 37.4143 95.4731 37.6879 95.8834C37.9614 96.2937 38.355 96.4988 38.8687 96.4988C39.3725 96.4988 39.7594 96.302 40.0296 95.9083C40.2999 95.5114 40.4366 94.9344 40.44 94.1771V93.8218ZM39.149 88.3928H40.7251L39.3391 89.9439H38.1632L39.149 88.3928ZM48.9764 97.6297H47.4752L44.553 92.8361V97.6297H43.0519V90.3443H44.553L47.4802 95.1478V90.3443H48.9764V97.6297ZM56.9523 96.1286H54.3203L53.82 97.6297H52.2237L54.9357 90.3443H56.3268L59.0538 97.6297H57.4577L56.9523 96.1286ZM54.7256 94.9127H56.5469L55.6313 92.1856L54.7256 94.9127ZM65.3885 96.709C65.1183 97.0325 64.7364 97.2844 64.2427 97.4646C63.749 97.6418 63.2019 97.7294 62.6014 97.7294C61.971 97.7294 61.4173 97.593 60.9402 97.3195C60.4666 97.0426 60.0996 96.6423 59.8394 96.1185C59.5826 95.5949 59.4507 94.9794 59.4441 94.2722V93.7768C59.4441 93.0496 59.5659 92.4208 59.8094 91.8904C60.0562 91.3566 60.4098 90.9497 60.8701 90.6695C61.3339 90.3859 61.8759 90.2442 62.4963 90.2442C63.3604 90.2442 64.0359 90.451 64.5229 90.8646C65.0099 91.2749 65.2985 91.8738 65.3885 92.661H63.9275C63.8608 92.244 63.7123 91.9388 63.4822 91.7453C63.2553 91.5518 62.9417 91.4551 62.5414 91.4551C62.031 91.4551 61.6424 91.6469 61.3755 92.0305C61.1087 92.4141 60.9735 92.9845 60.9703 93.7418V94.2072C60.9703 94.9711 61.1153 95.5481 61.4056 95.9384C61.6958 96.3287 62.1211 96.5239 62.6816 96.5239C63.2453 96.5239 63.6473 96.4038 63.8874 96.1636V94.9076H62.5214V93.8018H65.3885V96.709ZM70.9928 94.4723H68.1106V96.4238H71.4931V97.6297H66.6095V90.3443H71.4831V91.5602H68.1106V93.2964H70.9928V94.4723ZM78.2982 97.6297H76.797L73.8749 92.8361V97.6297H72.3738V90.3443H73.8749L76.8021 95.1478V90.3443H78.2982V97.6297ZM79.6092 97.6297V90.3443H81.8508C82.4913 90.3443 83.0634 90.4893 83.5671 90.7796C84.0742 91.0664 84.4694 91.4767 84.753 92.0105C85.0365 92.5409 85.1783 93.1447 85.1783 93.8218V94.1571C85.1783 94.8342 85.0382 95.4364 84.758 95.9634C84.4811 96.4905 84.0892 96.8991 83.5821 97.1893C83.0751 97.4796 82.503 97.6263 81.8659 97.6297H79.6092ZM81.1103 91.5602V96.4238H81.8358C82.4229 96.4238 82.8715 96.232 83.1819 95.8484C83.4921 95.4647 83.6505 94.916 83.6572 94.2021V93.8168C83.6572 93.0763 83.5037 92.5158 83.1969 92.1355C82.8899 91.752 82.4412 91.5602 81.8508 91.5602H81.1103ZM90.2771 96.1286H87.6452L87.1448 97.6297H85.5486L88.2606 90.3443H89.6517L92.3787 97.6297H90.7824L90.2771 96.1286ZM88.0504 94.9127H89.8718L88.9561 92.1856L88.0504 94.9127ZM93.0593 97.6297V90.3443H95.611C96.495 90.3443 97.1658 90.5144 97.6223 90.8546C98.0797 91.1915 98.3079 91.6869 98.3079 92.3408C98.3079 92.6977 98.2167 93.0129 98.0331 93.2864C97.8496 93.5566 97.5943 93.7551 97.2673 93.8819C97.6409 93.9753 97.9344 94.1637 98.1477 94.4473C98.3648 94.7308 98.4728 95.0777 98.4728 95.4881C98.4728 96.1886 98.2502 96.719 97.803 97.0793C97.3558 97.4395 96.7186 97.623 95.8914 97.6297H93.0593ZM94.5601 94.4573V96.4238H95.8466C96.1997 96.4238 96.4755 96.3403 96.6721 96.1736C96.8723 96.0035 96.972 95.7699 96.972 95.4731C96.972 94.8059 96.6264 94.4673 95.9361 94.4573H94.5601ZM94.5601 93.3966H95.6715C96.428 93.3831 96.8071 93.0813 96.8071 92.4909C96.8071 92.1606 96.7103 91.9238 96.5165 91.7803C96.3264 91.6335 96.0246 91.5602 95.611 91.5602H94.5601V93.3966ZM101.106 96.4238H104.293V97.6297H99.6038V90.3443H101.106V96.4238ZM109.541 94.4723H106.66V96.4238H110.041V97.6297H105.158V90.3443H110.032V91.5602H106.66V93.2964H109.541V94.4723Z" fill="white"/>
<g clip-path="url(#clip0_35_570)">
<path d="M29.8656 40.2517L25.9218 39.5573C29.9972 16.6881 45.7265 14.3659 53.2877 13.256C54.5584 13.0682 55.6574 12.9088 56.3672 12.7039C58.8227 11.9924 59.4809 9.7499 59.6527 8.81646C59.9789 7.02357 59.4695 5.23069 58.4106 4.44523C57.2028 3.55164 55.4399 4.12081 54.1806 4.75828C53.8887 4.90626 53.7342 5.07701 53.6483 5.3616C53.2992 6.45441 54.0433 8.41804 54.4554 9.1978L50.918 11.0704C50.7062 10.6776 48.8803 7.1431 49.8248 4.16634C50.2369 2.86294 51.1184 1.83844 52.3662 1.20666C56.6991 -0.978954 59.5096 0.295986 60.8032 1.25219C63.1042 2.95401 64.1974 6.19828 63.5964 9.52223C62.9668 12.9828 60.6887 15.601 57.489 16.5287C56.5217 16.8076 55.2968 16.9897 53.8773 17.2003C46.2302 18.3273 33.4373 20.2112 29.8656 40.2574V40.2517Z" fill="white"/>
<path d="M56.121 72C55.9321 72 55.7948 72 55.7146 71.9943C55.5486 71.9943 55.3884 71.9943 55.2281 71.9943C35.8585 71.9943 29.7282 56.7917 28.2515 51.8741C24.0158 51.3732 17.9599 49.0055 18 42.4999C18.0229 39.0507 19.0875 36.3585 21.1653 34.503C24.4565 31.5604 29.0414 31.9816 29.236 32.0044L28.841 35.9715C28.8124 35.9715 25.7788 35.7211 23.8212 37.4855C22.6249 38.5669 22.0182 40.263 22.001 42.5283C21.9724 47.7761 29.5336 47.9981 29.8542 48.0038L31.4797 48.0379L31.7888 49.6259C31.9376 50.3772 35.6009 68.0158 55.2281 68.0158C55.3884 68.0158 55.5486 68.0158 55.7089 68.0158H55.8406C56.5618 68.0499 73.7277 68.5793 80.0755 49.0624L80.5849 47.4972L82.2277 47.6964C82.2277 47.6964 85.0266 47.9753 86.9441 46.245C88.3465 44.9758 89.0391 42.8528 88.999 39.9386V39.8589C88.999 39.8589 88.9761 38.5214 87.8657 37.4627C86.7209 36.3756 84.7175 35.852 82.0617 35.9544L81.9128 31.9702C85.7936 31.8223 88.7586 32.7329 90.7276 34.6681C92.9141 36.8196 93.0114 39.4093 93.0057 39.8988C93.063 44.0196 91.9125 47.1557 89.6 49.2218C87.5337 51.0716 85.0324 51.5611 83.4182 51.6635C79.4916 62.4094 72.4169 67.3726 67.0594 69.6436C61.9937 71.7951 57.5635 71.9943 56.1268 71.9943L56.121 72Z" fill="white"/>
<path d="M80.4647 39.9785C79.8809 23.5978 63.15 18.6574 62.4402 18.4525L63.5335 14.6163C63.7338 14.6733 83.7845 20.5186 84.4714 39.8363L80.4647 39.9785Z" fill="white"/>
<path d="M47.1689 43.8887C48.4966 43.8887 49.5729 42.8184 49.5729 41.4982C49.5729 40.1779 48.4966 39.1077 47.1689 39.1077C45.8412 39.1077 44.7649 40.1779 44.7649 41.4982C44.7649 42.8184 45.8412 43.8887 47.1689 43.8887Z" fill="white"/>
<path d="M55.7719 59.2961C50.8265 59.2961 47.2319 55.8014 47.1746 55.7444L49.2009 53.7353L48.1877 54.7427L49.1952 53.7353C49.447 53.98 55.417 59.7059 62.0166 53.6954L63.9513 55.7957C61.0665 58.4252 58.2503 59.3018 55.7719 59.3018V59.2961Z" fill="white"/>
<path d="M61.7533 43.8887C63.081 43.8887 64.1574 42.8184 64.1574 41.4982C64.1574 40.1779 63.081 39.1077 61.7533 39.1077C60.4256 39.1077 59.3493 40.1779 59.3493 41.4982C59.3493 42.8184 60.4256 43.8887 61.7533 43.8887Z" fill="white"/>
</g>
<defs>
<clipPath id="clip0_35_570">
<rect width="75" height="72" fill="white" transform="translate(18)"/>
</clipPath>
</defs>
</svg>
