<svg width="111" height="97" viewBox="0 0 111 97" fill="none" xmlns="http://www.w3.org/2000/svg">
<path d="M4.75331 95.1286H2.12134L1.62097 96.6297H0.0247803L2.7368 89.3443H4.12784L6.85488 96.6297H5.25868L4.75331 95.1286ZM2.52664 93.9127H4.348L3.43232 91.1856L2.52664 93.9127ZM12.419 90.5602H10.1873V96.6297H8.68624V90.5602H6.4846V89.3443H12.419V90.5602ZM17.6629 93.4723H14.7808V95.4238H18.1633V96.6297H13.2797V89.3443H18.1533V90.5602H14.7808V92.2964H17.6629V93.4723ZM24.9683 96.6297H23.4672L20.5451 91.8361V96.6297H19.044V89.3443H20.5451L23.4723 94.1478V89.3443H24.9683V96.6297ZM31.9986 94.2028C31.9419 94.9868 31.6517 95.6039 31.128 96.0542C30.6076 96.5046 29.9204 96.7294 29.0665 96.7294C28.1324 96.7294 27.3968 96.4162 26.8598 95.7891C26.3261 95.1586 26.0592 94.2946 26.0592 93.1971V92.7518C26.0592 92.0512 26.1826 91.4341 26.4295 90.9004C26.6763 90.3667 27.0282 89.958 27.4853 89.6745C27.9456 89.3876 28.4794 89.2442 29.0865 89.2442C29.9271 89.2442 30.6043 89.4694 31.1179 89.9197C31.6317 90.37 31.9285 91.0021 32.0087 91.8161H30.5075C30.4709 91.3457 30.339 91.0055 30.1122 90.7953C29.8887 90.5818 29.5468 90.4751 29.0865 90.4751C28.586 90.4751 28.2108 90.6552 27.9606 91.0155C27.7138 91.3725 27.587 91.9279 27.5804 92.6817V93.2321C27.5804 94.0194 27.6988 94.5949 27.9356 94.9585C28.1758 95.3221 28.5527 95.5038 29.0665 95.5038C29.5301 95.5038 29.8754 95.3987 30.1022 95.1886C30.3324 94.9751 30.4641 94.6466 30.4975 94.2028H31.9986ZM34.5805 96.6297H33.0794V89.3443H34.5805V96.6297ZM41.9611 93.1521C41.9611 93.8692 41.8343 94.4981 41.5808 95.0385C41.3272 95.5789 40.9636 95.9959 40.49 96.2895C40.0196 96.583 39.4792 96.7294 38.8687 96.7294C38.2649 96.7294 37.7262 96.5847 37.2526 96.2944C36.7788 96.0042 36.4119 95.5906 36.1517 95.0535C35.8915 94.5131 35.7598 93.8926 35.7564 93.1921V92.8318C35.7564 92.1147 35.8849 91.4841 36.1417 90.9405C36.4019 90.3933 36.7672 89.9747 37.2376 89.6845C37.7112 89.3909 38.2516 89.2442 38.8587 89.2442C39.4659 89.2442 40.0046 89.3909 40.475 89.6845C40.9486 89.9747 41.3139 90.3933 41.5707 90.9405C41.8309 91.4841 41.9611 92.113 41.9611 92.8269V93.1521ZM40.4399 92.8218C40.4399 92.0579 40.3032 91.4775 40.0296 91.0806C39.7561 90.6836 39.3658 90.4851 38.8587 90.4851C38.355 90.4851 37.9664 90.6819 37.6928 91.0755C37.4193 91.4658 37.2809 92.0396 37.2775 92.7968V93.1521C37.2775 93.896 37.4143 94.4731 37.6879 94.8834C37.9614 95.2937 38.355 95.4988 38.8687 95.4988C39.3724 95.4988 39.7594 95.302 40.0296 94.9083C40.2998 94.5114 40.4366 93.9344 40.4399 93.1771V92.8218ZM39.1489 87.3928H40.7251L39.3391 88.9439H38.1632L39.1489 87.3928ZM48.9763 96.6297H47.4751L44.553 91.8361V96.6297H43.0519V89.3443H44.553L47.4802 94.1478V89.3443H48.9763V96.6297ZM56.9523 95.1286H54.3203L53.8199 96.6297H52.2237L54.9357 89.3443H56.3268L59.0538 96.6297H57.4576L56.9523 95.1286ZM54.7255 93.9127H56.5469L55.6312 91.1856L54.7255 93.9127ZM65.3885 95.709C65.1183 96.0325 64.7364 96.2844 64.2427 96.4646C63.749 96.6418 63.2019 96.7294 62.6014 96.7294C61.971 96.7294 61.4172 96.593 60.9402 96.3195C60.4665 96.0426 60.0996 95.6423 59.8394 95.1185C59.5825 94.5949 59.4507 93.9794 59.4441 93.2722V92.7768C59.4441 92.0496 59.5659 91.4208 59.8094 90.8904C60.0562 90.3566 60.4098 89.9497 60.8701 89.6695C61.3339 89.3859 61.8759 89.2442 62.4963 89.2442C63.3604 89.2442 64.0359 89.451 64.5228 89.8646C65.0099 90.2749 65.2985 90.8738 65.3885 91.661H63.9274C63.8607 91.244 63.7122 90.9388 63.4821 90.7453C63.2553 90.5518 62.9417 90.4551 62.5414 90.4551C62.031 90.4551 61.6424 90.6469 61.3755 91.0305C61.1087 91.4141 60.9735 91.9845 60.9703 92.7418V93.2072C60.9703 93.9711 61.1153 94.5481 61.4056 94.9384C61.6958 95.3287 62.1211 95.5239 62.6815 95.5239C63.2452 95.5239 63.6472 95.4038 63.8874 95.1636V93.9076H62.5214V92.8018H65.3885V95.709ZM70.9927 93.4723H68.1105V95.4238H71.4931V96.6297H66.6094V89.3443H71.483V90.5602H68.1105V92.2964H70.9927V93.4723ZM78.2982 96.6297H76.797L73.8748 91.8361V96.6297H72.3737V89.3443H73.8748L76.802 94.1478V89.3443H78.2982V96.6297ZM79.6091 96.6297V89.3443H81.8508C82.4912 89.3443 83.0633 89.4893 83.5671 89.7796C84.0741 90.0664 84.4694 90.4767 84.753 91.0105C85.0365 91.5409 85.1783 92.1447 85.1783 92.8218V93.1571C85.1783 93.8342 85.0381 94.4364 84.7579 94.9634C84.481 95.4905 84.0891 95.8991 83.5821 96.1893C83.0751 96.4796 82.503 96.6263 81.8659 96.6297H79.6091ZM81.1102 90.5602V95.4238H81.8358C82.4229 95.4238 82.8715 95.232 83.1818 94.8484C83.4921 94.4647 83.6504 93.916 83.6571 93.2021V92.8168C83.6571 92.0763 83.5037 91.5158 83.1968 91.1355C82.8899 90.752 82.4412 90.5602 81.8508 90.5602H81.1102ZM90.2771 95.1286H87.6451L87.1448 96.6297H85.5486L88.2606 89.3443H89.6516L92.3786 96.6297H90.7824L90.2771 95.1286ZM88.0504 93.9127H89.8718L88.9561 91.1856L88.0504 93.9127ZM93.0593 96.6297V89.3443H95.6109C96.495 89.3443 97.1658 89.5144 97.6223 89.8546C98.0797 90.1915 98.3079 90.6869 98.3079 91.3408C98.3079 91.6977 98.2166 92.0129 98.0331 92.2864C97.8496 92.5566 97.5943 92.7551 97.2673 92.8819C97.6409 92.9753 97.9343 93.1637 98.1477 93.4473C98.3647 93.7308 98.4728 94.0777 98.4728 94.4881C98.4728 95.1886 98.2502 95.719 97.803 96.0793C97.3558 96.4395 96.7186 96.623 95.8913 96.6297H93.0593ZM94.5601 93.4573V95.4238H95.8466C96.1997 95.4238 96.4754 95.3403 96.672 95.1736C96.8723 95.0035 96.972 94.7699 96.972 94.4731C96.972 93.8059 96.6264 93.4673 95.9361 93.4573H94.5601ZM94.5601 92.3966H95.6715C96.4279 92.3831 96.8071 92.0813 96.8071 91.4909C96.8071 91.1606 96.7102 90.9238 96.5164 90.7803C96.3264 90.6335 96.0246 90.5602 95.6109 90.5602H94.5601V92.3966ZM101.106 95.4238H104.293V96.6297H99.6038V89.3443H101.106V95.4238ZM109.541 93.4723H106.66V95.4238H110.041V96.6297H105.158V89.3443H110.032V90.5602H106.66V92.2964H109.541V93.4723Z" fill="white"/>
<path d="M37.0365 8.30742H38.5904L38.9744 6.80169C39.6835 4.02138 42.1463 2 45.0833 2C48.5657 2 51.4167 4.85082 51.4167 8.375V57.5781C51.4167 61.6912 48.11 65 44.0417 65C40.8096 65 38.0765 62.8879 37.0838 59.9261L36.5343 58.2865L34.8325 58.5935C34.3923 58.6729 33.9983 58.7188 33.625 58.7188C29.5567 58.7188 26.25 55.4099 26.25 51.2969C26.25 50.8078 26.3006 50.321 26.3954 49.8339L26.7073 48.2318L25.2003 47.6051C22.1488 46.3361 20 43.3081 20 39.7812C20 36.6489 21.7061 33.9394 24.2481 32.4705L25.8505 31.5445L25.0513 29.8753C24.4948 28.7128 24.1667 27.4757 24.1667 26.1719C24.1667 22.6369 26.3234 19.6081 29.4015 18.3368L30.9867 17.6821L30.5814 16.0156C30.4742 15.5749 30.4167 15.1185 30.4167 14.6562C30.4167 11.1612 33.2207 8.32836 36.6639 8.28183C36.7397 8.29195 36.8784 8.30742 37.0365 8.30742ZM36.5915 8.27169C36.5914 8.27165 36.5942 8.27197 36.6003 8.27281C36.5947 8.27216 36.5915 8.27173 36.5915 8.27169ZM85.9553 29.8616L85.1372 31.5374L86.7519 32.4705C89.2939 33.9394 91 36.6489 91 39.7812C91 43.3081 88.8512 46.3361 85.7997 47.6051L84.2927 48.2318L84.6046 49.8339C84.6994 50.321 84.75 50.8078 84.75 51.2969C84.75 55.4099 81.4433 58.7188 77.375 58.7188C77.0017 58.7188 76.6077 58.6729 76.1675 58.5935L74.4657 58.2865L73.9162 59.9261C72.9235 62.8879 70.1904 65 66.9583 65C62.89 65 59.5833 61.6912 59.5833 57.5781V8.375C59.5833 4.83977 62.4322 2 65.9167 2C68.8537 2 71.3165 4.02138 72.0256 6.80168L72.4096 8.30742H73.9635C74.0802 8.30742 74.1781 8.29911 74.2443 8.29204C74.2755 8.28871 74.3059 8.28491 74.3299 8.28175C77.7759 8.32498 80.5833 11.1591 80.5833 14.6562C80.5833 15.0944 80.5194 15.5578 80.4091 16.0565L80.0466 17.6959L81.5985 18.3368C84.6766 19.6081 86.8333 22.6369 86.8333 26.1719C86.8333 27.4854 86.5134 28.7181 85.9553 29.8616Z" stroke="white" stroke-width="4"/>
</svg>
