<svg width="84" height="74" viewBox="0 0 84 74" fill="none" xmlns="http://www.w3.org/2000/svg">
<g clip-path="url(#clip0_1_321)">
<path d="M82.5082 65.9589L57.5296 2.37692C57.2457 1.66731 56.5361 1.09961 55.8264 1.09961C55.4007 1.09961 55.1168 1.38346 54.2652 1.66731C53.2718 1.95115 52.846 2.80269 53.2718 4.22194C51.001 5.64118 44.8983 7.62811 42.6276 8.05388C42.4856 7.48619 42.3437 7.06042 41.6341 6.63465V5.64118C41.6341 3.22847 39.6471 1.09961 37.0925 1.09961H23.4678C22.7581 1.09961 21.9066 1.52538 21.197 1.80923C20.6293 1.52538 19.7777 1.09961 19.0681 1.09961H5.44342C2.88879 1.09961 0.901855 3.22847 0.901855 5.64118V69.2231C0.901855 71.7778 2.88879 73.7647 5.44342 73.7647H19.0681C19.7777 73.7647 20.6293 73.4808 21.3389 73.197C21.9066 73.4808 22.7581 73.7647 23.6097 73.7647H37.2344C39.6471 73.7647 41.776 71.7778 41.776 69.2231V17.9886L63.2065 72.6293C63.4903 73.339 64.0581 73.7647 64.7677 73.7647C65.1934 73.7647 65.4773 73.6228 66.4707 73.339C67.3223 73.0551 67.8899 72.2035 67.3223 70.7843C69.735 69.365 75.6959 67.3781 78.1085 66.9523C78.5343 68.5135 79.5277 68.7974 80.3793 68.5135L81.3728 68.0877C82.3662 67.8039 82.792 66.8105 82.5082 65.9589ZM19.0681 69.2231H5.44342V60.14H19.0681V69.2231ZM19.0681 55.5984H5.44342V19.2659H19.0681V55.5984ZM19.0681 14.7243H5.44342V5.64118H19.0681V14.7243ZM37.2344 69.2231H23.6097V60.14H37.2344V69.2231ZM37.2344 55.5984H23.6097V19.2659H37.2344V55.5984ZM37.2344 14.7243H23.6097V5.64118H37.2344V14.7243ZM66.045 66.9523L43.9049 11.7439C47.5949 11.1762 52.988 8.90543 54.6911 8.05388L76.6893 63.2624C73.1412 63.83 67.6062 66.1008 66.045 66.9523Z" fill="white"/>
</g>
<defs>
<clipPath id="clip0_1_321">
<rect width="82.9127" height="73.5967" fill="white" transform="translate(0.7854 0.400879)"/>
</clipPath>
</defs>
</svg>
