<svg width="81" height="64" viewBox="0 0 81 64" fill="none" xmlns="http://www.w3.org/2000/svg">
<path d="M28.5 31.9989C19.625 31.9989 12.5 24.8739 12.5 15.9989C12.5 7.2489 19.625 -0.00109863 28.5 -0.00109863C37.25 -0.00109863 44.5 7.2489 44.5 15.9989C44.5 24.8739 37.25 31.9989 28.5 31.9989ZM28.5 3.9989C21.875 3.9989 16.5 9.4989 16.5 15.9989C16.5 22.6239 21.875 27.9989 28.5 27.9989C35 27.9989 40.5 22.6239 40.5 15.9989C40.5 9.4989 35 3.9989 28.5 3.9989ZM49.75 60.8739C50.75 62.2489 49.75 63.9989 48.125 63.9989H4.75C2.375 63.9989 0.5 62.1239 0.5 59.7489C0.375 47.7489 10.125 37.9989 22.125 37.9989H34.75C36.25 37.9989 37.625 38.2489 38.875 38.4989C39.75 38.6239 40.375 39.3739 40.5 40.2489C40.5 40.3739 40.5 40.3739 40.5 40.3739C40.75 41.6239 39.5 42.7489 38.25 42.3739C37.125 42.2489 36 41.9989 34.75 41.9989H22.125C12.375 41.9989 4.375 49.9989 4.5 59.7489C4.5 59.8739 4.625 59.9989 4.75 59.9989H48.125C48.75 59.9989 49.375 60.3739 49.75 60.8739ZM78.25 33.9989C79.625 34.4989 80.5 35.7489 80.5 36.9989C80.5 52.6239 70.25 61.2489 63.75 63.7489C63.25 63.9989 62.75 63.9989 62.375 63.9989C62 63.9989 61.5 63.9989 61 63.6239C53 60.4989 44.5 50.8739 44.5 36.9989C44.5 35.7489 45.375 34.4989 46.625 33.9989L61 28.3739C61.375 28.1239 61.75 27.9989 62.375 27.9989C62.875 27.9989 63.375 28.1239 63.875 28.3739L78.25 33.9989ZM60.5 58.9989V32.8739L48.5 37.4989C48.625 48.1239 54.375 55.7489 60.5 58.9989ZM64.5 59.1239C69.25 56.3739 76.25 49.3739 76.5 37.4989L64.5 32.8739V59.1239Z" fill="#4F406C"/>
</svg>
