<svg width="422" height="170" viewBox="0 0 422 170" fill="none" xmlns="http://www.w3.org/2000/svg">
<g clip-path="url(#clip0_4_972)">
<path d="M128.483 94.0976H119.219V122.169H99.7068V36.7393H133.849C150.068 36.7393 163.111 49.7999 163.111 66.026C163.111 76.5193 156.773 86.0406 147.384 90.8013L165.551 122.163H144.576L128.483 94.0914V94.0976ZM119.219 77.0116H133.849C139.216 77.0116 143.605 72.2509 143.605 66.026C143.605 59.801 139.216 55.0403 133.849 55.0403H119.219V77.0054V77.0116Z" fill="#F8C158"/>
<path d="M230.543 61.147V122.169H212.251V116.437C208.958 120.954 202.863 123.883 194.813 123.883C182.498 123.883 172.014 115.097 172.014 98.6215V61.1532H190.305V95.9358C190.305 103.501 195.062 107.04 200.914 107.04C207.619 107.04 212.251 103.133 212.251 94.4715V61.1532H230.543V61.147Z" fill="#F8C158"/>
<path d="M306.504 61.1469V122.169H288.213V116.436C284.191 121.073 278.214 123.883 270.046 123.883C254.07 123.883 240.903 109.85 240.903 91.6612C240.903 73.4723 254.07 59.4458 270.046 59.4458C278.214 59.4458 284.191 62.2498 288.213 66.8921V61.1594H306.504V61.1469ZM288.213 91.6549C288.213 82.5013 282.118 76.7686 273.7 76.7686C265.283 76.7686 259.188 82.5013 259.188 91.6549C259.188 100.809 265.283 106.541 273.7 106.541C282.118 106.541 288.213 100.802 288.213 91.6549Z" fill="#F8C158"/>
<path d="M378.45 84.7009V122.169H360.159V87.3866C360.159 79.8219 355.402 76.2825 349.55 76.2825C342.845 76.2825 338.213 80.1895 338.213 88.8509V122.169H319.921V36.7393H338.213V66.8859C341.506 62.3682 347.601 59.4396 355.651 59.4396C367.966 59.4396 378.45 68.2256 378.45 84.7009Z" fill="#F8C158"/>
<path d="M12.4268 24.4139C19.1627 24.4139 24.6232 18.9487 24.6232 12.2069C24.6232 5.46524 19.1627 0 12.4268 0C5.69087 0 0.230347 5.46524 0.230347 12.2069C0.230347 18.9487 5.69087 24.4139 12.4268 24.4139Z" fill="#F8C158"/>
<path d="M12.4268 73.6218C19.1627 73.6218 24.6232 68.1565 24.6232 61.4148C24.6232 54.6731 19.1627 49.2079 12.4268 49.2079C5.69087 49.2079 0.230347 54.6731 0.230347 61.4148C0.230347 68.1565 5.69087 73.6218 12.4268 73.6218Z" fill="#F8C158"/>
<path d="M12.4268 122.082C19.1627 122.082 24.6232 116.617 24.6232 109.875C24.6232 103.133 19.1627 97.6681 12.4268 97.6681C5.69087 97.6681 0.230347 103.133 0.230347 109.875C0.230347 116.617 5.69087 122.082 12.4268 122.082Z" fill="#F8C158"/>
<path d="M81.1849 122.082H56.7921V108.704C56.7921 95.886 46.37 85.4549 33.5635 85.4549V61.041C59.8241 61.041 81.1849 82.4265 81.1849 108.704V122.082Z" fill="#F8C158"/>
<path d="M33.5635 78.6566V54.2427C41.6757 54.2427 48.2689 47.6377 48.2689 39.5246C48.2689 31.4116 41.6695 24.8065 33.5635 24.8065V0.386353C55.1236 0.386353 72.668 17.9459 72.668 39.5246C72.668 61.1033 55.1236 78.6629 33.5635 78.6629V78.6566Z" fill="#F8C158"/>
<path d="M400.39 61.2715C412.328 61.2715 422.006 51.5853 422.006 39.6367C422.006 27.6882 412.328 18.002 400.39 18.002C388.452 18.002 378.774 27.6882 378.774 39.6367C378.774 51.5853 388.452 61.2715 400.39 61.2715Z" fill="#8881DC"/>
<path d="M393.355 42.2103C393.355 45.4007 391.026 47.6439 387.64 47.6439C384.253 47.6439 381.924 45.4007 381.924 42.2103C381.924 41.0201 382.254 39.9421 382.827 39.0822L387.534 31.9288H391.58L388.237 36.7953C391.294 37.0384 393.361 39.2193 393.361 42.2103H393.355ZM389.837 42.2103C389.837 40.8706 388.804 40.073 387.64 40.073C386.475 40.073 385.442 40.8456 385.442 42.2103C385.442 43.5749 386.45 44.3476 387.64 44.3476C388.829 44.3476 389.837 43.5562 389.837 42.2103Z" fill="white"/>
<path d="M394.451 39.6368C394.451 34.8823 396.735 31.6234 400.72 31.6234C404.705 31.6234 406.989 34.8823 406.989 39.6368C406.989 44.3912 404.705 47.6501 400.72 47.6501C396.735 47.6501 394.451 44.3912 394.451 39.6368ZM403.466 39.6368C403.466 36.6645 402.563 35.0568 400.72 35.0568C398.877 35.0568 397.968 36.6645 397.968 39.6368C397.968 42.609 398.871 44.2167 400.72 44.2167C402.569 44.2167 403.466 42.609 403.466 39.6368Z" fill="white"/>
<path d="M418.856 41.1759H415.338V44.6965H412.263V41.1759H408.745V38.0977H412.263V34.577H415.338V38.0977H418.856V41.1759Z" fill="white"/>
<path d="M20.8566 149.942L12.2462 169.713H8.63524L0 149.942H3.97831L10.5528 165.196L17.1833 149.942H20.8503H20.8566Z" fill="#8881DC"/>
<path d="M45.349 149.942H49.016V169.713H45.349V149.942Z" fill="#8881DC"/>
<path d="M94.6764 149.942L86.0661 169.713H82.4551L73.8198 149.942H77.7981L84.3726 165.196L91.0031 149.942H94.6702H94.6764Z" fill="#8881DC"/>
<path d="M133.98 166.635V169.713H119.163V149.942H133.582V153.02H122.83V158.161H132.368V161.183H122.83V166.635H133.974H133.98Z" fill="#8881DC"/>
<path d="M207.208 156.977C207.208 161.326 203.99 164.012 198.797 164.012H194.34V169.72H190.673V149.948H198.804C203.996 149.948 207.215 152.602 207.215 156.983L207.208 156.977ZM203.51 156.977C203.51 154.49 201.848 153.051 198.629 153.051H194.34V160.902H198.629C201.848 160.902 203.51 159.463 203.51 156.977Z" fill="#8881DC"/>
<path d="M233.282 149.942H236.949V166.604H247.278V169.713H233.282V149.942Z" fill="#8881DC"/>
<path d="M287.41 166.635V169.713H272.592V149.942H287.011V153.02H276.259V158.161H285.797V161.183H276.259V166.635H287.404H287.41Z" fill="#8881DC"/>
<path d="M331.458 149.942V169.713H328.438L317.543 156.322V169.713H313.901V149.942H316.92L327.815 163.333V149.942H331.458Z" fill="#8881DC"/>
<path d="M357.755 159.831C357.755 153.986 362.269 149.661 368.395 149.661C374.522 149.661 379.035 153.955 379.035 159.831C379.035 165.707 374.522 170 368.395 170C362.269 170 357.755 165.675 357.755 159.831ZM375.337 159.831C375.337 155.793 372.374 152.883 368.395 152.883C364.417 152.883 361.454 155.793 361.454 159.831C361.454 163.868 364.417 166.778 368.395 166.778C372.374 166.778 375.337 163.868 375.337 159.831Z" fill="#8881DC"/>
</g>
<defs>
<clipPath id="clip0_4_972">
<rect width="422" height="170" fill="white"/>
</clipPath>
</defs>
</svg>
