<svg width="251" height="36" viewBox="0 0 251 36" fill="none" xmlns="http://www.w3.org/2000/svg">
<path fill-rule="evenodd" clip-rule="evenodd" d="M23.2786 17.3061C18.5618 20.0173 16.7251 25.8137 18.6946 26.5324C19.488 26.8224 20.7555 26.3541 22.441 24.647C25.2952 21.7567 27.2076 16.3279 30.3238 16.3464C24.0323 13.7553 20.1125 15.6988 17.9299 18.1707C19.1439 14.1303 15.8948 6.13543 8.26199 5.99318C10.9677 8.44476 7.30351 13.9253 7.40406 18.5642C7.4917 22.6204 9.58856 24.7043 11.6024 24.7394C14.274 24.7856 15.5867 20.4145 13.071 13.0634C16.2094 17.4373 16.7666 27.3175 10.8496 28.8389C8.99539 29.3156 7.29982 28.2708 6.03321 27.0035C3.24816 24.2147 1.69742 20.4671 1.69742 16.5219C1.69742 12.5766 3.24816 8.82903 6.03321 6.04028C8.81827 3.25154 12.5609 1.69874 16.5009 1.69874C20.441 1.69874 24.1836 3.25154 26.9686 6.04028C29.7537 8.82903 31.3044 12.5766 31.3044 16.5219C31.3044 20.4671 29.7537 24.2147 26.9686 27.0035C25.6079 28.366 24.0037 29.4236 22.2362 30.1802C19.6384 31.2914 16.7731 31.7182 13.9594 31.6212C12.7768 31.5806 11.5959 31.4466 10.4336 31.2277L10.1577 31.176C16.072 34.628 23.452 32.9264 28.167 28.2043C31.2712 25.096 33 20.9188 33 16.5219C33 12.1249 31.2712 7.94779 28.167 4.83943C25.0627 1.73107 20.8902 0 16.5 0C12.1098 0 7.93727 1.73107 4.83303 4.83943C1.72878 7.94779 0 12.1258 0 16.5219C0 20.9179 1.72878 25.096 4.83303 28.2043L4.83948 28.2108L4.84594 28.2173C6.53321 29.7192 8.58948 30.8213 10.9077 30.4499C13.3967 30.0509 14.7334 28.475 15.7961 26.5287C17.6172 23.194 17.9511 18.9725 23.2758 17.307L23.2786 17.3061Z" fill="#209CD4"/>
<path d="M45.36 18C45.36 17.1333 45.5533 16.3933 45.94 15.78C46.3267 15.1667 46.8333 14.7 47.46 14.38C48.1 14.06 48.8 13.9 49.56 13.9C50.2267 13.9 50.8133 13.9867 51.32 14.16C51.8267 14.32 52.28 14.5467 52.68 14.84C53.08 15.12 53.4333 15.42 53.74 15.74V12.1C53.18 11.66 52.5667 11.3133 51.9 11.06C51.2333 10.8067 50.3867 10.68 49.36 10.68C48.24 10.68 47.2067 10.8533 46.26 11.2C45.3133 11.5467 44.5 12.0467 43.82 12.7C43.14 13.3533 42.6133 14.1267 42.24 15.02C41.8667 15.9133 41.68 16.9067 41.68 18C41.68 19.0933 41.8667 20.0867 42.24 20.98C42.6133 21.8733 43.14 22.6467 43.82 23.3C44.5 23.9533 45.3133 24.4533 46.26 24.8C47.2067 25.1467 48.24 25.32 49.36 25.32C50.3867 25.32 51.2333 25.1933 51.9 24.94C52.5667 24.6867 53.18 24.34 53.74 23.9V20.26C53.4333 20.58 53.08 20.88 52.68 21.16C52.28 21.44 51.8267 21.6667 51.32 21.84C50.8133 22.0133 50.2267 22.1 49.56 22.1C48.8 22.1 48.1 21.94 47.46 21.62C46.8333 21.3 46.3267 20.8333 45.94 20.22C45.5533 19.5933 45.36 18.8533 45.36 18ZM55.6634 20.4C55.6634 21.36 55.8901 22.2 56.3434 22.92C56.7968 23.64 57.4234 24.2 58.2234 24.6C59.0234 25 59.9234 25.2 60.9234 25.2C61.9234 25.2 62.8168 25 63.6034 24.6C64.4034 24.2 65.0301 23.64 65.4834 22.92C65.9501 22.2 66.1834 21.36 66.1834 20.4C66.1834 19.4267 65.9501 18.58 65.4834 17.86C65.0301 17.14 64.4034 16.58 63.6034 16.18C62.8168 15.78 61.9234 15.58 60.9234 15.58C59.9234 15.58 59.0234 15.78 58.2234 16.18C57.4234 16.58 56.7968 17.14 56.3434 17.86C55.8901 18.58 55.6634 19.4267 55.6634 20.4ZM58.7634 20.4C58.7634 19.92 58.8634 19.5067 59.0634 19.16C59.2634 18.8133 59.5234 18.5467 59.8434 18.36C60.1634 18.1733 60.5234 18.08 60.9234 18.08C61.3101 18.08 61.6634 18.1733 61.9834 18.36C62.3168 18.5467 62.5768 18.8133 62.7634 19.16C62.9634 19.5067 63.0634 19.92 63.0634 20.4C63.0634 20.88 62.9634 21.2933 62.7634 21.64C62.5768 21.9733 62.3168 22.2333 61.9834 22.42C61.6634 22.6067 61.3101 22.7 60.9234 22.7C60.5234 22.7 60.1634 22.6067 59.8434 22.42C59.5234 22.2333 59.2634 21.9733 59.0634 21.64C58.8634 21.2933 58.7634 20.88 58.7634 20.4ZM73.9803 19.4V25H77.1203V19.08C77.1203 17.9733 76.8603 17.1133 76.3403 16.5C75.8203 15.8867 74.987 15.58 73.8403 15.58C73.1603 15.58 72.587 15.72 72.1203 16C71.667 16.28 71.307 16.6733 71.0403 17.18V15.8H68.0003V25H71.0403V19.4C71.0403 19.04 71.107 18.7333 71.2403 18.48C71.3736 18.2267 71.5603 18.0333 71.8003 17.9C72.0403 17.7667 72.3203 17.7 72.6403 17.7C73.1203 17.7 73.4603 17.8467 73.6603 18.14C73.8736 18.4333 73.9803 18.8533 73.9803 19.4ZM78.4242 15.8V18.3H84.5842V15.8H78.4242ZM80.0442 12.6V25H82.9442V12.6H80.0442ZM90.5514 25.2C91.7247 25.2 92.7181 24.9733 93.5314 24.52C94.3581 24.0667 95.0114 23.3867 95.4914 22.48L92.7914 21.82C92.5647 22.22 92.2581 22.52 91.8714 22.72C91.4981 22.92 91.0447 23.02 90.5114 23.02C90.0447 23.02 89.6514 22.92 89.3314 22.72C89.0114 22.5067 88.7714 22.2 88.6114 21.8C88.4514 21.4 88.3714 20.92 88.3714 20.36C88.3847 19.7467 88.4647 19.24 88.6114 18.84C88.7714 18.4267 89.0047 18.12 89.3114 17.92C89.6181 17.72 89.9981 17.62 90.4514 17.62C90.8114 17.62 91.1247 17.7 91.3914 17.86C91.6581 18.02 91.8647 18.2467 92.0114 18.54C92.1581 18.8333 92.2314 19.18 92.2314 19.58C92.2314 19.6733 92.2047 19.7933 92.1514 19.94C92.1114 20.0733 92.0581 20.1867 91.9914 20.28L92.7114 19.36H87.0314V21.04H95.4314C95.4581 20.9467 95.4714 20.8333 95.4714 20.7C95.4714 20.5533 95.4714 20.4067 95.4714 20.26C95.4714 19.2733 95.2781 18.4333 94.8914 17.74C94.5047 17.0467 93.9447 16.52 93.2114 16.16C92.4781 15.7867 91.5781 15.6 90.5114 15.6C89.4447 15.6 88.5181 15.7933 87.7314 16.18C86.9581 16.5667 86.3647 17.12 85.9514 17.84C85.5381 18.56 85.3314 19.4133 85.3314 20.4C85.3314 21.3733 85.5447 22.22 85.9714 22.94C86.3981 23.66 86.9981 24.22 87.7714 24.62C88.5581 25.0067 89.4847 25.2 90.5514 25.2ZM103.316 19.4V25H106.456V19.08C106.456 17.9733 106.196 17.1133 105.676 16.5C105.156 15.8867 104.323 15.58 103.176 15.58C102.496 15.58 101.923 15.72 101.456 16C101.003 16.28 100.643 16.6733 100.376 17.18V15.8H97.3363V25H100.376V19.4C100.376 19.04 100.443 18.7333 100.576 18.48C100.71 18.2267 100.896 18.0333 101.136 17.9C101.376 17.7667 101.656 17.7 101.976 17.7C102.456 17.7 102.796 17.8467 102.996 18.14C103.21 18.4333 103.316 18.8533 103.316 19.4ZM108.66 12.34C108.66 12.82 108.833 13.2133 109.18 13.52C109.527 13.8267 109.94 13.98 110.42 13.98C110.913 13.98 111.327 13.8267 111.66 13.52C112.007 13.2133 112.18 12.82 112.18 12.34C112.18 11.86 112.007 11.4733 111.66 11.18C111.327 10.8733 110.913 10.72 110.42 10.72C109.94 10.72 109.527 10.8733 109.18 11.18C108.833 11.4733 108.66 11.86 108.66 12.34ZM108.96 15.8V25H111.88V15.8H108.96ZM121.348 9.4V25H124.368V9.4H121.348ZM113.828 20.4C113.828 21.4267 114.034 22.3 114.448 23.02C114.874 23.7267 115.421 24.2667 116.088 24.64C116.754 25.0133 117.461 25.2 118.208 25.2C118.981 25.2 119.661 25.0067 120.248 24.62C120.848 24.2333 121.321 23.68 121.668 22.96C122.014 22.24 122.188 21.3867 122.188 20.4C122.188 19.4 122.014 18.5467 121.668 17.84C121.321 17.12 120.848 16.5667 120.248 16.18C119.661 15.7933 118.981 15.6 118.208 15.6C117.461 15.6 116.754 15.7867 116.088 16.16C115.421 16.5333 114.874 17.0733 114.448 17.78C114.034 18.4867 113.828 19.36 113.828 20.4ZM117.008 20.4C117.008 19.92 117.108 19.5067 117.308 19.16C117.508 18.8 117.774 18.5267 118.108 18.34C118.441 18.14 118.808 18.04 119.208 18.04C119.554 18.04 119.888 18.1333 120.208 18.32C120.541 18.5067 120.814 18.78 121.028 19.14C121.241 19.4867 121.348 19.9067 121.348 20.4C121.348 20.8933 121.241 21.32 121.028 21.68C120.814 22.0267 120.541 22.2933 120.208 22.48C119.888 22.6667 119.554 22.76 119.208 22.76C118.808 22.76 118.441 22.6667 118.108 22.48C117.774 22.28 117.508 22.0067 117.308 21.66C117.108 21.3 117.008 20.88 117.008 20.4ZM126.171 20.4C126.171 21.36 126.398 22.2 126.851 22.92C127.305 23.64 127.931 24.2 128.731 24.6C129.531 25 130.431 25.2 131.431 25.2C132.431 25.2 133.325 25 134.111 24.6C134.911 24.2 135.538 23.64 135.991 22.92C136.458 22.2 136.691 21.36 136.691 20.4C136.691 19.4267 136.458 18.58 135.991 17.86C135.538 17.14 134.911 16.58 134.111 16.18C133.325 15.78 132.431 15.58 131.431 15.58C130.431 15.58 129.531 15.78 128.731 16.18C127.931 16.58 127.305 17.14 126.851 17.86C126.398 18.58 126.171 19.4267 126.171 20.4ZM129.271 20.4C129.271 19.92 129.371 19.5067 129.571 19.16C129.771 18.8133 130.031 18.5467 130.351 18.36C130.671 18.1733 131.031 18.08 131.431 18.08C131.818 18.08 132.171 18.1733 132.491 18.36C132.825 18.5467 133.085 18.8133 133.271 19.16C133.471 19.5067 133.571 19.92 133.571 20.4C133.571 20.88 133.471 21.2933 133.271 21.64C133.085 21.9733 132.825 22.2333 132.491 22.42C132.171 22.6067 131.818 22.7 131.431 22.7C131.031 22.7 130.671 22.6067 130.351 22.42C130.031 22.2333 129.771 21.9733 129.571 21.64C129.371 21.2933 129.271 20.88 129.271 20.4ZM150.664 19.36L147.244 11H143.304L150.664 25.88L158.044 11H154.084L150.664 19.36ZM159.031 12.34C159.031 12.82 159.205 13.2133 159.551 13.52C159.898 13.8267 160.311 13.98 160.791 13.98C161.285 13.98 161.698 13.8267 162.031 13.52C162.378 13.2133 162.551 12.82 162.551 12.34C162.551 11.86 162.378 11.4733 162.031 11.18C161.698 10.8733 161.285 10.72 160.791 10.72C160.311 10.72 159.898 10.8733 159.551 11.18C159.205 11.4733 159.031 11.86 159.031 12.34ZM159.331 15.8V25H162.251V15.8H159.331ZM171.719 9.4V25H174.739V9.4H171.719ZM164.199 20.4C164.199 21.4267 164.405 22.3 164.819 23.02C165.245 23.7267 165.792 24.2667 166.459 24.64C167.125 25.0133 167.832 25.2 168.579 25.2C169.352 25.2 170.032 25.0067 170.619 24.62C171.219 24.2333 171.692 23.68 172.039 22.96C172.385 22.24 172.559 21.3867 172.559 20.4C172.559 19.4 172.385 18.5467 172.039 17.84C171.692 17.12 171.219 16.5667 170.619 16.18C170.032 15.7933 169.352 15.6 168.579 15.6C167.832 15.6 167.125 15.7867 166.459 16.16C165.792 16.5333 165.245 17.0733 164.819 17.78C164.405 18.4867 164.199 19.36 164.199 20.4ZM167.379 20.4C167.379 19.92 167.479 19.5067 167.679 19.16C167.879 18.8 168.145 18.5267 168.479 18.34C168.812 18.14 169.179 18.04 169.579 18.04C169.925 18.04 170.259 18.1333 170.579 18.32C170.912 18.5067 171.185 18.78 171.399 19.14C171.612 19.4867 171.719 19.9067 171.719 20.4C171.719 20.8933 171.612 21.32 171.399 21.68C171.185 22.0267 170.912 22.2933 170.579 22.48C170.259 22.6667 169.925 22.76 169.579 22.76C169.179 22.76 168.812 22.6667 168.479 22.48C168.145 22.28 167.879 22.0067 167.679 21.66C167.479 21.3 167.379 20.88 167.379 20.4ZM179.422 22.12C179.422 21.8933 179.476 21.7067 179.582 21.56C179.689 21.4 179.849 21.28 180.062 21.2C180.276 21.12 180.562 21.08 180.922 21.08C181.389 21.08 181.829 21.1467 182.242 21.28C182.669 21.4 183.042 21.58 183.362 21.82V20.48C183.202 20.3067 182.962 20.14 182.642 19.98C182.322 19.82 181.936 19.6867 181.482 19.58C181.042 19.4733 180.542 19.42 179.982 19.42C178.836 19.42 177.949 19.68 177.322 20.2C176.696 20.7067 176.382 21.4 176.382 22.28C176.382 22.9067 176.529 23.44 176.822 23.88C177.129 24.32 177.529 24.6533 178.022 24.88C178.529 25.0933 179.076 25.2 179.662 25.2C180.249 25.2 180.796 25.1 181.302 24.9C181.809 24.6867 182.222 24.38 182.542 23.98C182.862 23.5667 183.022 23.0667 183.022 22.48L182.702 21.28C182.702 21.7067 182.609 22.0667 182.422 22.36C182.236 22.6533 181.996 22.8733 181.702 23.02C181.409 23.1667 181.089 23.24 180.742 23.24C180.502 23.24 180.282 23.2 180.082 23.12C179.882 23.0267 179.722 22.9 179.602 22.74C179.482 22.5667 179.422 22.36 179.422 22.12ZM178.082 18.62C178.216 18.54 178.429 18.44 178.722 18.32C179.016 18.1867 179.356 18.0733 179.742 17.98C180.142 17.8867 180.549 17.84 180.962 17.84C181.242 17.84 181.489 17.8667 181.702 17.92C181.929 17.9733 182.116 18.06 182.262 18.18C182.409 18.3 182.516 18.4467 182.582 18.62C182.662 18.78 182.702 18.9733 182.702 19.2V25H185.602V18.52C185.602 17.88 185.416 17.34 185.042 16.9C184.669 16.46 184.162 16.1267 183.522 15.9C182.882 15.66 182.156 15.54 181.342 15.54C180.476 15.54 179.676 15.6533 178.942 15.88C178.209 16.1067 177.582 16.3467 177.062 16.6L178.082 18.62ZM195.7 20.08L193.34 21.78C193.66 22.4467 194.106 23.06 194.68 23.62C195.253 24.18 195.926 24.6267 196.7 24.96C197.486 25.28 198.333 25.44 199.24 25.44C199.893 25.44 200.526 25.34 201.14 25.14C201.766 24.9533 202.32 24.6733 202.8 24.3C203.293 23.9267 203.68 23.4667 203.96 22.92C204.253 22.36 204.4 21.7267 204.4 21.02C204.4 20.4333 204.306 19.9133 204.12 19.46C203.933 19.0067 203.673 18.6067 203.34 18.26C203.02 17.9133 202.646 17.62 202.22 17.38C201.793 17.1267 201.333 16.9067 200.84 16.72C200.186 16.4933 199.626 16.28 199.16 16.08C198.706 15.88 198.353 15.66 198.1 15.42C197.86 15.18 197.74 14.9 197.74 14.58C197.74 14.2733 197.866 14.02 198.12 13.82C198.373 13.6067 198.74 13.5 199.22 13.5C199.58 13.5 199.913 13.5733 200.22 13.72C200.54 13.8533 200.826 14.0467 201.08 14.3C201.346 14.54 201.58 14.8267 201.78 15.16L204.36 13.72C204.12 13.24 203.773 12.7667 203.32 12.3C202.866 11.8333 202.293 11.4467 201.6 11.14C200.92 10.8333 200.113 10.68 199.18 10.68C198.273 10.68 197.446 10.84 196.7 11.16C195.966 11.4667 195.38 11.92 194.94 12.52C194.513 13.12 194.3 13.8333 194.3 14.66C194.3 15.3533 194.426 15.9467 194.68 16.44C194.933 16.92 195.253 17.3333 195.64 17.68C196.026 18.0133 196.433 18.2867 196.86 18.5C197.3 18.7133 197.686 18.88 198.02 19C198.7 19.2533 199.246 19.48 199.66 19.68C200.073 19.88 200.373 20.0933 200.56 20.32C200.746 20.5333 200.84 20.82 200.84 21.18C200.84 21.6067 200.68 21.9467 200.36 22.2C200.04 22.44 199.633 22.56 199.14 22.56C198.673 22.56 198.226 22.46 197.8 22.26C197.386 22.06 197 21.7733 196.64 21.4C196.293 21.0267 195.98 20.5867 195.7 20.08ZM208.7 22.12C208.7 21.8933 208.753 21.7067 208.86 21.56C208.966 21.4 209.126 21.28 209.34 21.2C209.553 21.12 209.84 21.08 210.2 21.08C210.666 21.08 211.106 21.1467 211.52 21.28C211.946 21.4 212.32 21.58 212.64 21.82V20.48C212.48 20.3067 212.24 20.14 211.92 19.98C211.6 19.82 211.213 19.6867 210.76 19.58C210.32 19.4733 209.82 19.42 209.26 19.42C208.113 19.42 207.226 19.68 206.6 20.2C205.973 20.7067 205.66 21.4 205.66 22.28C205.66 22.9067 205.806 23.44 206.1 23.88C206.406 24.32 206.806 24.6533 207.3 24.88C207.806 25.0933 208.353 25.2 208.94 25.2C209.526 25.2 210.073 25.1 210.58 24.9C211.086 24.6867 211.5 24.38 211.82 23.98C212.14 23.5667 212.3 23.0667 212.3 22.48L211.98 21.28C211.98 21.7067 211.886 22.0667 211.7 22.36C211.513 22.6533 211.273 22.8733 210.98 23.02C210.686 23.1667 210.366 23.24 210.02 23.24C209.78 23.24 209.56 23.2 209.36 23.12C209.16 23.0267 209 22.9 208.88 22.74C208.76 22.5667 208.7 22.36 208.7 22.12ZM207.36 18.62C207.493 18.54 207.706 18.44 208 18.32C208.293 18.1867 208.633 18.0733 209.02 17.98C209.42 17.8867 209.826 17.84 210.24 17.84C210.52 17.84 210.766 17.8667 210.98 17.92C211.206 17.9733 211.393 18.06 211.54 18.18C211.686 18.3 211.793 18.4467 211.86 18.62C211.94 18.78 211.98 18.9733 211.98 19.2V25H214.88V18.52C214.88 17.88 214.693 17.34 214.32 16.9C213.946 16.46 213.44 16.1267 212.8 15.9C212.16 15.66 211.433 15.54 210.62 15.54C209.753 15.54 208.953 15.6533 208.22 15.88C207.486 16.1067 206.86 16.3467 206.34 16.6L207.36 18.62ZM223.121 19.4V25H226.261V19.08C226.261 17.9733 226.001 17.1133 225.481 16.5C224.961 15.8867 224.128 15.58 222.981 15.58C222.301 15.58 221.728 15.72 221.261 16C220.808 16.28 220.448 16.6733 220.181 17.18V15.8H217.141V25H220.181V19.4C220.181 19.04 220.248 18.7333 220.381 18.48C220.514 18.2267 220.701 18.0333 220.941 17.9C221.181 17.7667 221.461 17.7 221.781 17.7C222.261 17.7 222.601 17.8467 222.801 18.14C223.014 18.4333 223.121 18.8533 223.121 19.4ZM230.985 22.12C230.985 21.8933 231.038 21.7067 231.145 21.56C231.252 21.4 231.412 21.28 231.625 21.2C231.838 21.12 232.125 21.08 232.485 21.08C232.952 21.08 233.392 21.1467 233.805 21.28C234.232 21.4 234.605 21.58 234.925 21.82V20.48C234.765 20.3067 234.525 20.14 234.205 19.98C233.885 19.82 233.498 19.6867 233.045 19.58C232.605 19.4733 232.105 19.42 231.545 19.42C230.398 19.42 229.512 19.68 228.885 20.2C228.258 20.7067 227.945 21.4 227.945 22.28C227.945 22.9067 228.092 23.44 228.385 23.88C228.692 24.32 229.092 24.6533 229.585 24.88C230.092 25.0933 230.638 25.2 231.225 25.2C231.812 25.2 232.358 25.1 232.865 24.9C233.372 24.6867 233.785 24.38 234.105 23.98C234.425 23.5667 234.585 23.0667 234.585 22.48L234.265 21.28C234.265 21.7067 234.172 22.0667 233.985 22.36C233.798 22.6533 233.558 22.8733 233.265 23.02C232.972 23.1667 232.652 23.24 232.305 23.24C232.065 23.24 231.845 23.2 231.645 23.12C231.445 23.0267 231.285 22.9 231.165 22.74C231.045 22.5667 230.985 22.36 230.985 22.12ZM229.645 18.62C229.778 18.54 229.992 18.44 230.285 18.32C230.578 18.1867 230.918 18.0733 231.305 17.98C231.705 17.8867 232.112 17.84 232.525 17.84C232.805 17.84 233.052 17.8667 233.265 17.92C233.492 17.9733 233.678 18.06 233.825 18.18C233.972 18.3 234.078 18.4467 234.145 18.62C234.225 18.78 234.265 18.9733 234.265 19.2V25H237.165V18.52C237.165 17.88 236.978 17.34 236.605 16.9C236.232 16.46 235.725 16.1267 235.085 15.9C234.445 15.66 233.718 15.54 232.905 15.54C232.038 15.54 231.238 15.6533 230.505 15.88C229.772 16.1067 229.145 16.3467 228.625 16.6L229.645 18.62Z" fill="#696969"/>
</svg>
