<svg width="1351" height="42" viewBox="0 0 1351 42" fill="none" xmlns="http://www.w3.org/2000/svg">
<path d="M39.4478 23.6009C40.0317 23.6009 40.5323 23.2851 40.6991 22.7323L44.5364 13.7305L51.5435 40.2619C51.7103 40.8936 52.2108 41.2096 52.8782 41.2885C53.4621 41.2096 54.0461 40.8147 54.1295 40.2619L60.9698 7.80839L64.8905 22.5743C65.0573 23.1271 65.6413 23.6009 66.1418 23.6009H1349.46C1349.87 23.6009 1350.12 23.2852 1350.12 22.9693V21.7059C1350.12 21.311 1349.87 21.0742 1349.46 21.0742L67.2263 21.0741L62.1377 1.80723C61.9709 1.17553 61.4703 0.85968 60.803 0.85968C60.219 0.85968 59.6351 1.25449 59.5517 1.80723L52.7114 34.2608L46.1213 9.38764C45.9545 8.8349 45.4539 8.44009 44.9534 8.44009C44.286 8.36113 43.7856 8.67698 43.6187 9.22971L38.6136 21.0741H0.667351C0.333676 21.0741 1.53152e-07 21.3109 1.16682e-07 21.7058L0 22.9692C-2.91617e-08 23.2851 0.333674 23.6009 0.667349 23.6009H39.4478Z" fill="white"/>
</svg>
