<svg width="206" height="121" viewBox="0 0 206 121" fill="none" xmlns="http://www.w3.org/2000/svg">
<path d="M176.448 72.7471C178.096 72.7471 179.374 72.2525 180.24 71.2221C180.981 70.3566 181.352 69.1613 181.352 67.6775C181.352 66.1937 180.981 64.9984 180.24 64.1329C179.374 63.1025 178.096 62.6079 176.448 62.6079H153.572V72.8296H176.448V72.7471ZM177.396 57.0437C182.3 57.0437 185.68 58.6511 187.535 61.8248C188.442 63.4322 188.895 65.3694 188.895 67.5951C188.895 72.2113 187.123 75.3026 183.537 76.9512C181.765 77.7755 179.745 78.1877 177.354 78.1877H153.531V91.2121H146.318V57.0024H177.396V57.0437Z" fill="white"/>
<path d="M64.6683 83.8755C62.0304 83.8755 59.9284 83.1336 58.4034 81.691C56.8784 80.2485 56.1365 78.2289 56.1365 75.591C56.1365 72.9944 56.8784 70.9748 58.4034 69.5322C59.9284 68.0896 61.948 67.3477 64.5859 67.3477H88.6975V66.07C88.6975 64.2977 88.038 63.2261 86.7191 62.8551C86.3069 62.7315 85.6887 62.6902 84.8644 62.6902H57.8676V57.0436H86.6367C89.4806 57.0436 91.7475 57.7855 93.3962 59.2693C94.4266 60.176 95.1273 61.2889 95.4982 62.4842C95.7455 63.3909 95.8692 65.7815 95.8692 67.4301V83.8343L64.6683 83.8755ZM88.6975 78.1876V72.7471H65.6575C64.1325 72.7471 63.3906 73.6538 63.3906 75.5086C63.3906 77.3221 64.1325 78.1876 65.6575 78.1876H88.6975Z" fill="white"/>
<path d="M139.229 18.094C139.847 15.6623 112.974 16.0332 109.718 36.5178C106.462 56.9612 135.932 68.1309 136.468 65.9876C136.468 65.9876 132.593 60.918 132.058 57.0024C131.439 53.1281 131.274 51.2321 131.274 51.2321C131.274 51.2321 128.513 52.9632 122.33 49.5422C116.148 46.1212 115.653 41.7523 115.777 41.7523C115.901 41.7523 119.651 37.8367 122.743 36.559C125.875 35.2813 128.183 35.3225 128.183 35.3225C128.183 35.3225 127.441 32.3549 128.472 28.9752C130.244 23.3697 139.229 18.094 139.229 18.094Z" fill="white"/>
<path d="M138.817 24.7711C138.817 24.7711 142.32 29.8407 142.362 32.1488C142.362 34.5394 140.383 38.9495 140.589 39.6502C140.754 40.3097 144.917 35.7347 148.503 35.7347C152.583 35.8171 154.933 39.3205 154.933 39.3205C154.933 39.3205 151.553 46.4509 149.739 46.5746C147.885 46.6982 142.279 45.9151 141.908 46.2449C141.62 46.5746 145.164 51.2733 143.68 53.6226C142.279 56.0132 136.632 59.0632 136.632 59.0632C136.632 59.0632 134.489 55.3537 134.242 52.9631C133.995 50.655 134.53 45.3381 134.86 44.8023C135.231 44.2253 131.81 49.8719 127.936 48.2645C124.061 46.657 119.322 42.659 119.322 42.659C119.322 42.659 125.669 38.5374 127.029 38.4137C128.389 38.2076 132.47 38.084 132.47 38.084C132.47 38.084 130.862 34.0448 131.851 31.8603C131.769 29.0164 138.075 24.2765 138.817 24.7711Z" fill="white"/>
<path d="M150.357 29.882C152.748 29.882 154.768 27.8211 154.768 25.3069C154.768 22.7515 152.748 20.6907 150.357 20.6907C147.967 20.6907 145.947 22.7515 145.947 25.3069C145.947 27.8211 147.967 29.882 150.357 29.882Z" fill="white"/>
<path d="M50.4076 57.0436V62.649H32.1899C31.6541 62.649 31.1595 62.6902 30.7473 62.7315C30.4588 62.8139 30.1291 62.9788 29.7582 63.2673C29.1399 63.8443 28.8102 64.7511 28.8102 65.9876V67.1828L50.4076 67.1004V72.7471L28.8102 72.8295V91.1708H21.5973V72.8295H17.0635V67.1828H21.5973V64.2153C21.5973 62.9375 21.7209 61.9071 21.927 61.0828C22.1743 60.2173 22.6277 59.4341 23.3696 58.6922C24.0703 57.9916 24.8534 57.497 25.7189 57.3321C26.5433 57.126 27.5737 57.0436 28.8102 57.0436H50.4076Z" fill="white"/>
<path d="M21.8033 100.527C21.8033 102.712 21.1026 103.289 19.8249 103.289C19.3715 103.289 19.0418 103.206 18.7945 103.082L18.6296 103.659C18.8769 103.783 19.3715 103.907 19.8249 103.907C21.2263 103.907 22.504 103.206 22.504 100.692V93.85H21.8033V100.527Z" fill="white"/>
<path d="M30.129 96.6938H29.4283V101.104C29.4283 101.393 29.3871 101.681 29.3047 101.887C29.0162 102.588 28.2331 103.33 27.2026 103.33C25.8013 103.33 25.3479 102.217 25.3479 100.692V96.7351H24.6472V100.815C24.6472 103.453 26.1722 103.948 27.0378 103.948C28.2743 103.948 29.0986 103.165 29.4283 102.505H29.4695L29.5108 103.783H30.1702C30.129 103.247 30.129 102.67 30.129 102.052V96.6938V96.6938Z" fill="white"/>
<path d="M32.4784 103.742H33.1791V99.373C33.1791 99.1669 33.2203 98.9196 33.2615 98.7547C33.55 97.848 34.3743 97.1061 35.3635 97.1061C36.8061 97.1061 37.3007 98.2601 37.3007 99.5791V103.742H38.0014V99.4966C38.0014 96.8588 36.2291 96.5291 35.5284 96.5291C34.3743 96.5291 33.4676 97.1473 33.0966 97.9716H33.0554L33.0142 96.6939H32.3547C32.396 97.271 32.396 97.7243 32.396 98.3838V103.742H32.4784Z" fill="white"/>
<path d="M40.5569 95.375V96.6527H39.3616V97.2297H40.5569V101.681C40.5569 102.382 40.6805 103 41.0102 103.371C41.2575 103.701 41.7109 103.866 42.2055 103.866C42.6177 103.866 42.9474 103.783 43.1947 103.701L43.1123 103.165C42.9474 103.206 42.6589 103.247 42.2879 103.247C41.546 103.247 41.2575 102.67 41.2575 101.805V97.2709H43.2771V96.6939H41.2575V95.1277L40.5569 95.375Z" fill="white"/>
<path d="M47.3576 103.33C45.915 103.33 44.8022 102.011 44.8022 100.239C44.8022 98.7135 45.6265 97.1061 47.3988 97.1061C49.2536 97.1061 49.9955 98.8784 49.9955 100.156C49.9955 101.97 48.8414 103.33 47.3576 103.33ZM47.3576 103.907C48.9238 103.907 50.7374 102.794 50.7374 100.156C50.7374 98.0128 49.4184 96.5291 47.4813 96.5291C45.7502 96.5291 44.1427 97.848 44.1427 100.28C44.1015 102.464 45.5029 103.907 47.3576 103.907Z" fill="white"/>
<path d="M51.8914 103.412C52.3447 103.701 53.0042 103.907 53.6637 103.907C55.1062 103.907 56.0542 103.082 56.0542 101.887C56.0542 100.816 55.3948 100.238 54.2407 99.7851C53.2927 99.3729 52.7981 99.0844 52.7981 98.3425C52.7981 97.6831 53.2515 97.106 54.1583 97.106C54.8589 97.106 55.3123 97.3533 55.5596 97.5182L55.8069 96.9412C55.436 96.6939 54.9002 96.4878 54.2407 96.4878C52.8806 96.4878 52.0562 97.3533 52.0562 98.3837C52.0562 99.2493 52.6745 99.8675 53.8285 100.321C54.8589 100.733 55.3123 101.145 55.3123 101.928C55.3123 102.67 54.7765 103.247 53.6637 103.247C53.0454 103.247 52.4684 103 52.0562 102.753L51.8914 103.412Z" fill="white"/>
<path d="M65.6577 102.876C65.2868 103.041 64.751 103.289 63.8854 103.289C62.2368 103.289 61.0827 102.093 61.0827 100.239C61.0827 98.5899 62.0719 97.1473 63.9267 97.1473C64.7098 97.1473 65.2456 97.3534 65.5753 97.5595L65.8226 96.9824C65.5753 96.7764 64.8334 96.5291 63.9679 96.5291C61.8658 96.5291 60.3408 98.0541 60.3408 100.28C60.3408 102.382 61.701 103.866 63.7206 103.866C64.751 103.866 65.4929 103.577 65.7814 103.412L65.6577 102.876Z" fill="white"/>
<path d="M70.1503 103.33C68.7078 103.33 67.5949 102.011 67.5949 100.239C67.5949 98.7135 68.4193 97.1061 70.1916 97.1061C72.0463 97.1061 72.7882 98.8784 72.7882 100.156C72.7882 101.97 71.6341 103.33 70.1503 103.33ZM70.1503 103.907C71.7166 103.907 73.5301 102.794 73.5301 100.156C73.5301 98.0128 72.2112 96.5291 70.274 96.5291C68.5429 96.5291 66.9355 97.848 66.9355 100.28C66.8942 102.464 68.2956 103.907 70.1503 103.907Z" fill="white"/>
<path d="M75.2611 103.742H75.9618V99.373C75.9618 99.1669 76.003 98.9196 76.0442 98.7547C76.3327 97.848 77.1571 97.1061 78.1463 97.1061C79.5888 97.1061 80.0834 98.2601 80.0834 99.5791V103.742H80.7841V99.4966C80.7841 96.8588 79.0118 96.5291 78.3111 96.5291C77.1571 96.5291 76.2503 97.1473 75.8793 97.9716H75.8381L75.7969 96.6939H75.1375C75.1787 97.271 75.1787 97.7243 75.1787 98.3838V103.742H75.2611Z" fill="white"/>
<path d="M83.3396 95.375V96.6527H82.1443V97.2297H83.3396V101.681C83.3396 102.382 83.4632 103 83.7929 103.371C84.0402 103.701 84.4936 103.866 84.9882 103.866C85.4004 103.866 85.7301 103.783 85.9774 103.701L85.895 103.165C85.7301 103.206 85.4416 103.247 85.0707 103.247C84.3288 103.247 84.0402 102.67 84.0402 101.805V97.2709H86.0599V96.6939H84.0402V95.1277L83.3396 95.375Z" fill="white"/>
<path d="M87.5436 103.742H88.2443V99.8676C88.2443 99.6203 88.2443 99.4142 88.2855 99.2081C88.4916 98.0953 89.1511 97.2297 90.1403 97.2297C90.2639 97.2297 90.3876 97.2297 90.47 97.2297V96.5703C90.3876 96.5703 90.2639 96.5291 90.1815 96.5291C89.2335 96.5291 88.4916 97.2297 88.2031 98.0953H88.1619L88.1206 96.6527H87.4612C87.5024 97.3534 87.5024 98.0541 87.5024 98.7547V103.742H87.5436Z" fill="white"/>
<path d="M95.5397 101.475C95.5397 101.599 95.5397 101.764 95.4573 101.887C95.21 102.588 94.5505 103.289 93.3552 103.289C92.6133 103.289 91.9539 102.835 91.9539 101.805C91.9539 100.115 93.9735 99.8676 95.5397 99.9088V101.475ZM96.2404 99.2906C96.2404 98.0541 95.8282 96.5291 93.8086 96.5291C93.1904 96.5291 92.366 96.6939 91.7478 97.1473L91.9539 97.6419C92.4485 97.2709 93.1079 97.1061 93.7262 97.1061C95.416 97.1061 95.5397 98.5074 95.5397 99.1669V99.373C92.6545 99.3318 91.2532 100.321 91.2532 101.97C91.2532 102.918 91.9126 103.907 93.314 103.907C94.4268 103.907 95.21 103.289 95.5809 102.712H95.6221L95.7046 103.742H96.364C96.2816 103.206 96.2816 102.629 96.2816 102.052V99.2906H96.2404Z" fill="white"/>
<path d="M101.722 99.5791C101.846 98.5075 102.505 97.1061 104.071 97.1061C105.761 97.1061 106.173 98.5899 106.173 99.5791H101.722ZM106.874 100.156C106.915 100.032 106.915 99.9088 106.915 99.744C106.915 98.7136 106.462 96.5703 104.154 96.5703C102.34 96.5703 100.98 98.0541 100.98 100.403C100.98 102.464 102.258 103.948 104.278 103.948C105.514 103.948 106.215 103.66 106.503 103.495L106.338 102.959C105.926 103.165 105.432 103.371 104.401 103.371C102.959 103.371 101.722 102.464 101.722 100.239H106.874V100.156Z" fill="white"/>
<path d="M109.347 93.3141H108.646V103.742H109.347V93.3141Z" fill="white"/>
<path d="M119.528 102.505C119.157 102.67 118.662 102.835 117.961 102.835C116.56 102.835 115.488 101.805 115.488 100.156C115.488 98.6722 116.354 97.4769 118.003 97.4769C118.703 97.4769 119.198 97.6418 119.486 97.8067L119.775 96.8175C119.404 96.6114 118.744 96.4465 118.003 96.4465C115.694 96.4465 114.169 98.054 114.169 100.238C114.169 102.423 115.571 103.866 117.714 103.866C118.662 103.866 119.404 103.618 119.775 103.453L119.528 102.505Z" fill="white"/>
<path d="M124.185 93.5614L122.907 95.6634H123.814L125.586 93.5614H124.185ZM124.968 101.351C124.968 101.475 124.968 101.599 124.927 101.763C124.721 102.382 124.103 102.959 123.196 102.959C122.536 102.959 122 102.588 122 101.722C122 100.362 123.608 100.074 125.009 100.115V101.351H124.968ZM126.205 99.3729C126.205 97.9716 125.669 96.4878 123.484 96.4878C122.578 96.4878 121.712 96.7351 121.135 97.106L121.423 97.9716C121.918 97.6418 122.619 97.4357 123.278 97.4357C124.721 97.4357 124.886 98.5074 124.886 99.0844V99.2493C122.124 99.2493 120.599 100.156 120.599 101.887C120.599 102.918 121.341 103.948 122.784 103.948C123.814 103.948 124.556 103.453 124.968 102.876H125.009L125.092 103.783H126.246C126.163 103.288 126.163 102.711 126.163 102.093V99.3729H126.205Z" fill="white"/>
<path d="M128.266 103.742H129.543V99.4553C129.543 99.2493 129.584 99.002 129.626 98.8371C129.873 98.1364 130.532 97.5182 131.357 97.5182C132.593 97.5182 133.005 98.4661 133.005 99.6202V103.701H134.283V99.4553C134.283 97.0236 132.758 96.4465 131.769 96.4465C130.574 96.4465 129.791 97.106 129.42 97.7655L129.337 96.5702H128.183C128.224 97.1472 128.224 97.7655 128.224 98.5074V103.742H128.266Z" fill="white"/>
<path d="M141.208 102.505C140.837 102.67 140.342 102.835 139.641 102.835C138.24 102.835 137.168 101.805 137.168 100.156C137.168 98.6722 138.034 97.4769 139.682 97.4769C140.383 97.4769 140.878 97.6418 141.166 97.8067L141.455 96.8175C141.084 96.6114 140.424 96.4465 139.682 96.4465C137.374 96.4465 135.849 98.054 135.849 100.238C135.849 102.423 137.251 103.866 139.394 103.866C140.342 103.866 141.084 103.618 141.455 103.453L141.208 102.505Z" fill="white"/>
<path d="M143.516 99.4966C143.598 98.5898 144.175 97.3945 145.494 97.3945C146.937 97.3945 147.307 98.6722 147.266 99.4966H143.516ZM148.503 100.403C148.544 100.238 148.544 100.074 148.544 99.7851C148.544 98.4661 147.926 96.4465 145.618 96.4465C143.557 96.4465 142.279 98.1364 142.279 100.28C142.279 102.423 143.598 103.866 145.782 103.866C146.895 103.866 147.72 103.618 148.173 103.412L147.926 102.505C147.472 102.711 146.895 102.876 145.947 102.876C144.628 102.876 143.557 102.176 143.516 100.403H148.503V100.403Z" fill="white"/>
<path d="M150.11 103.742H151.388V99.9499C151.388 99.7439 151.388 99.5378 151.429 99.3317C151.594 98.3425 152.254 97.683 153.16 97.683C153.325 97.683 153.49 97.683 153.614 97.7242V96.4878C153.49 96.4878 153.408 96.4465 153.243 96.4465C152.377 96.4465 151.594 97.0648 151.264 98.0128H151.223L151.182 96.6114H150.028C150.069 97.2709 150.069 97.9715 150.069 98.8371V103.742H150.11Z" fill="white"/>
<path d="M115.035 83.8755C109.512 83.8755 105.967 81.6498 104.401 77.1572C103.783 75.4261 103.494 73.6126 103.494 71.7167V57.0436H111.326V70.9748C111.326 72.8295 111.903 74.3133 113.057 75.3849C113.963 76.2505 115.282 76.6626 117.013 76.6626H139.559V83.8755H115.035Z" fill="white"/>
</svg>
