<svg width="88" height="184" viewBox="0 0 88 184" fill="none" xmlns="http://www.w3.org/2000/svg">
<mask id="mask0_2_2" style="mask-type:luminance" maskUnits="userSpaceOnUse" x="15" y="144" width="24" height="24">
<path d="M39 144H15V168H39V144Z" fill="white"/>
</mask>
<g mask="url(#mask0_2_2)">
<path d="M15 156C15 149.373 20.3726 144 27 144C33.6274 144 39 149.373 39 156L27 157.043L15 156Z" fill="#FFDA44"/>
<path d="M16.6055 162.001C18.6804 165.588 22.5581 168.001 26.9997 168.001C31.4414 168.001 35.319 165.588 37.394 162.001L26.9997 161.218L16.6055 162.001Z" fill="#D80027"/>
<path d="M37.3942 162C38.4153 160.235 39 158.186 39 156H15C15 158.186 15.5847 160.235 16.6058 162H37.3942Z" fill="#0052B4"/>
<path d="M26.9996 160.174C29.3048 160.174 31.1735 158.306 31.1735 156.001C31.1735 153.695 29.3048 151.827 26.9996 151.827C24.6944 151.827 22.8257 153.695 22.8257 156.001C22.8257 158.306 24.6944 160.174 26.9996 160.174Z" fill="#FFDA44"/>
<path d="M27.0003 158.609C25.5618 158.609 24.3916 157.439 24.3916 156.001V154.435C24.3916 152.997 25.5619 151.827 27.0003 151.827C28.4387 151.827 29.609 152.997 29.609 154.435V156.001C29.609 157.439 28.4387 158.609 27.0003 158.609Z" fill="#338AF3"/>
<path d="M31.1736 149.74H28.0431C28.0431 149.164 27.5759 148.696 26.9996 148.696C26.4233 148.696 25.9561 149.164 25.9561 149.74H22.8257C22.8257 150.316 23.3277 150.783 23.9039 150.783H23.8692C23.8692 151.36 24.3363 151.827 24.9127 151.827C24.9127 152.403 25.3798 152.87 25.9561 152.87H28.0431C28.6194 152.87 29.0866 152.403 29.0866 151.827C29.6629 151.827 30.1301 151.36 30.1301 150.783H30.0953C30.6716 150.783 31.1736 150.316 31.1736 149.74Z" fill="black"/>
</g>
<path d="M76.9342 6H10.0658C7.26803 6 5 9.35786 5 13.5V171.5C5 175.642 7.26803 179 10.0658 179H76.9342C79.732 179 82 175.642 82 171.5V13.5C82 9.35786 79.732 6 76.9342 6Z" stroke="#D0D5DD"/>
<mask id="mask1_2_2" style="mask-type:luminance" maskUnits="userSpaceOnUse" x="14" y="112" width="24" height="24">
<path d="M38 112H14V136H38V112Z" fill="white"/>
</mask>
<g mask="url(#mask1_2_2)">
<path d="M14 124C14 117.373 19.3726 112 26 112C32.6274 112 38 117.373 38 124L26 125.043L14 124Z" fill="#FFDA44"/>
<path d="M15.6055 130.001C17.6804 133.588 21.5581 136.001 25.9997 136.001C30.4414 136.001 34.319 133.588 36.394 130.001L25.9997 129.218L15.6055 130.001Z" fill="#D80027"/>
<path d="M36.3942 130C37.4153 128.235 38 126.186 38 124H14C14 126.186 14.5847 128.235 15.6058 130H36.3942Z" fill="#0052B4"/>
<path d="M25.9996 128.174C28.3048 128.174 30.1735 126.306 30.1735 124.001C30.1735 121.695 28.3048 119.827 25.9996 119.827C23.6944 119.827 21.8257 121.695 21.8257 124.001C21.8257 126.306 23.6944 128.174 25.9996 128.174Z" fill="#FFDA44"/>
<path d="M26.0003 126.609C24.5618 126.609 23.3916 125.439 23.3916 124.001V122.435C23.3916 120.997 24.5619 119.827 26.0003 119.827C27.4387 119.827 28.609 120.997 28.609 122.435V124.001C28.609 125.439 27.4387 126.609 26.0003 126.609Z" fill="#338AF3"/>
<path d="M30.1736 117.74H27.0431C27.0431 117.164 26.5759 116.696 25.9996 116.696C25.4233 116.696 24.9561 117.164 24.9561 117.74H21.8257C21.8257 118.316 22.3277 118.783 22.9039 118.783H22.8692C22.8692 119.36 23.3363 119.827 23.9127 119.827C23.9127 120.403 24.3798 120.87 24.9561 120.87H27.0431C27.6194 120.87 28.0866 120.403 28.0866 119.827C28.6629 119.827 29.1301 119.36 29.1301 118.783H29.0953C29.6716 118.783 30.1736 118.316 30.1736 117.74Z" fill="black"/>
</g>
<mask id="mask2_2_2" style="mask-type:luminance" maskUnits="userSpaceOnUse" x="14" y="80" width="24" height="24">
<path d="M38 80H14V104H38V80Z" fill="white"/>
</mask>
<g mask="url(#mask2_2_2)">
<path d="M14 92C14 85.3726 19.3726 80 26 80C32.6274 80 38 85.3726 38 92L26 93.0435L14 92Z" fill="#FFDA44"/>
<path d="M15.606 98.0005C17.6809 101.587 21.5586 104.001 26.0002 104.001C30.4418 104.001 34.3195 101.587 36.3945 98.0005L26.0002 97.2178L15.606 98.0005Z" fill="#D80027"/>
<path d="M36.3938 97.9998C37.4148 96.2348 37.9995 94.1856 37.9995 91.9998H13.9995C13.9995 94.1856 14.5842 96.2348 15.6053 97.9998H36.3938Z" fill="#0052B4"/>
</g>
<mask id="mask3_2_2" style="mask-type:luminance" maskUnits="userSpaceOnUse" x="14" y="48" width="24" height="24">
<path d="M38 48H14V72H38V48Z" fill="white"/>
</mask>
<g mask="url(#mask3_2_2)">
<path d="M26 72C32.6274 72 38 66.6274 38 60C38 53.3726 32.6274 48 26 48C19.3726 48 14 53.3726 14 60C14 66.6274 19.3726 72 26 72Z" fill="#F0F0F0"/>
<path d="M37.9999 59.9997C37.9999 55.2422 35.2312 51.1314 31.2173 49.1904V70.8089C35.2312 68.868 37.9999 64.7572 37.9999 59.9997Z" fill="#D80027"/>
<path d="M14 59.9997C14 64.7572 16.7687 68.868 20.7826 70.809V49.1904C16.7687 51.1314 14 55.2422 14 59.9997Z" fill="#6DA544"/>
<path d="M22.8696 59.9992C22.8696 61.7281 24.2712 63.1297 26.0001 63.1297C27.729 63.1297 29.1305 61.7281 29.1305 59.9992V58.9557H22.8696V59.9992Z" fill="#6DA544"/>
<path d="M30.1736 57.9134H27.0431C27.0431 57.3371 26.5759 56.8699 25.9996 56.8699C25.4233 56.8699 24.9561 57.3371 24.9561 57.9134H21.8257C21.8257 58.4897 22.3277 58.9568 22.9039 58.9568H22.8692C22.8692 59.5332 23.3363 60.0003 23.9127 60.0003C23.9127 60.5766 24.3798 61.0438 24.9561 61.0438H27.0431C27.6194 61.0438 28.0866 60.5766 28.0866 60.0003C28.6629 60.0003 29.1301 59.5332 29.1301 58.9568H29.0953C29.6716 58.9568 30.1736 58.4897 30.1736 57.9134Z" fill="#FF9811"/>
</g>
<mask id="mask4_2_2" style="mask-type:luminance" maskUnits="userSpaceOnUse" x="14" y="16" width="24" height="24">
<path d="M38 16H14V40H38V16Z" fill="white"/>
</mask>
<g mask="url(#mask4_2_2)">
<path d="M26 40C32.6274 40 38 34.6274 38 28C38 21.3726 32.6274 16 26 16C19.3726 16 14 21.3726 14 28C14 34.6274 19.3726 40 26 40Z" fill="#F0F0F0"/>
<path d="M37.9999 28.0015C37.9999 22.842 34.7434 18.4434 30.1738 16.7479V39.2552C34.7434 37.5596 37.9999 33.1611 37.9999 28.0015Z" fill="#D80027"/>
<path d="M14.0002 28.0006C14.0002 33.1603 17.2567 37.5587 21.8264 39.2543V16.7471C17.2567 18.4425 14.0002 22.8411 14.0002 28.0006Z" fill="#D80027"/>
</g>
<path d="M48.996 33V24.54H51.924C52.876 24.54 53.68 24.704 54.336 25.032C55 25.36 55.5 25.84 55.836 26.472C56.18 27.096 56.352 27.86 56.352 28.764C56.352 29.66 56.18 30.424 55.836 31.056C55.5 31.688 55 32.172 54.336 32.508C53.68 32.836 52.876 33 51.924 33H48.996ZM50.244 31.956H51.852C52.94 31.956 53.748 31.692 54.276 31.164C54.812 30.636 55.08 29.836 55.08 28.764C55.08 27.692 54.812 26.896 54.276 26.376C53.748 25.848 52.94 25.584 51.852 25.584H50.244V31.956ZM58.0429 33V24.54H59.0029L64.1989 31.356H63.8989V24.54H65.0629V33H64.1149L58.9309 26.184H59.2069V33H58.0429ZM67.0429 33V24.54H68.2909V33H67.0429Z" fill="black"/>
<path d="M48.996 65V56.54H52.572C53.476 56.54 54.176 56.756 54.672 57.188C55.168 57.612 55.416 58.208 55.416 58.976C55.416 59.48 55.304 59.912 55.08 60.272C54.856 60.632 54.54 60.908 54.132 61.1C53.724 61.284 53.244 61.376 52.692 61.376L52.884 61.184H53.208C53.536 61.184 53.828 61.268 54.084 61.436C54.348 61.604 54.564 61.872 54.732 62.24L55.944 65H54.576L53.376 62.228C53.256 61.9 53.068 61.688 52.812 61.592C52.564 61.496 52.256 61.448 51.888 61.448H50.244V65H48.996ZM50.244 60.5H52.368C52.968 60.5 53.42 60.372 53.724 60.116C54.036 59.86 54.192 59.492 54.192 59.012C54.192 58.524 54.036 58.156 53.724 57.908C53.42 57.66 52.968 57.536 52.368 57.536H50.244V60.5ZM57.3632 65V56.54H62.7872V57.536H58.6112V60.248H62.5112V61.244H58.6112V65H57.3632ZM67.8 65.108C66.936 65.108 66.2 64.932 65.592 64.58C64.984 64.228 64.516 63.728 64.188 63.08C63.868 62.424 63.708 61.652 63.708 60.764C63.708 59.876 63.868 59.108 64.188 58.46C64.516 57.812 64.984 57.312 65.592 56.96C66.2 56.608 66.936 56.432 67.8 56.432C68.4 56.432 68.936 56.52 69.408 56.696C69.88 56.872 70.292 57.128 70.644 57.464L70.212 58.46C69.828 58.132 69.452 57.896 69.084 57.752C68.724 57.608 68.304 57.536 67.824 57.536C66.912 57.536 66.216 57.816 65.736 58.376C65.256 58.936 65.016 59.732 65.016 60.764C65.016 61.796 65.256 62.596 65.736 63.164C66.216 63.724 66.912 64.004 67.824 64.004C68.304 64.004 68.724 63.932 69.084 63.788C69.452 63.644 69.828 63.404 70.212 63.068L70.644 64.064C70.292 64.4 69.88 64.66 69.408 64.844C68.936 65.02 68.4 65.108 67.8 65.108Z" fill="black"/>
<path d="M52.8 97.108C51.936 97.108 51.2 96.932 50.592 96.58C49.984 96.228 49.516 95.728 49.188 95.08C48.868 94.424 48.708 93.652 48.708 92.764C48.708 91.876 48.868 91.108 49.188 90.46C49.516 89.812 49.984 89.312 50.592 88.96C51.2 88.608 51.936 88.432 52.8 88.432C53.4 88.432 53.936 88.52 54.408 88.696C54.88 88.872 55.292 89.128 55.644 89.464L55.212 90.46C54.828 90.132 54.452 89.896 54.084 89.752C53.724 89.608 53.304 89.536 52.824 89.536C51.912 89.536 51.216 89.816 50.736 90.376C50.256 90.936 50.016 91.732 50.016 92.764C50.016 93.796 50.256 94.596 50.736 95.164C51.216 95.724 51.912 96.004 52.824 96.004C53.304 96.004 53.724 95.932 54.084 95.788C54.452 95.644 54.828 95.404 55.212 95.068L55.644 96.064C55.292 96.4 54.88 96.66 54.408 96.844C53.936 97.02 53.4 97.108 52.8 97.108ZM60.757 97.108C59.893 97.108 59.157 96.932 58.549 96.58C57.941 96.228 57.473 95.728 57.145 95.08C56.825 94.424 56.665 93.652 56.665 92.764C56.665 91.876 56.825 91.108 57.145 90.46C57.473 89.812 57.941 89.312 58.549 88.96C59.157 88.608 59.893 88.432 60.757 88.432C61.357 88.432 61.893 88.52 62.365 88.696C62.837 88.872 63.249 89.128 63.601 89.464L63.169 90.46C62.785 90.132 62.409 89.896 62.041 89.752C61.681 89.608 61.261 89.536 60.781 89.536C59.869 89.536 59.173 89.816 58.693 90.376C58.213 90.936 57.973 91.732 57.973 92.764C57.973 93.796 58.213 94.596 58.693 95.164C59.173 95.724 59.869 96.004 60.781 96.004C61.261 96.004 61.681 95.932 62.041 95.788C62.409 95.644 62.785 95.404 63.169 95.068L63.601 96.064C63.249 96.4 62.837 96.66 62.365 96.844C61.893 97.02 61.357 97.108 60.757 97.108Z" fill="black"/>
<path d="M52.8 129.108C51.936 129.108 51.2 128.932 50.592 128.58C49.984 128.228 49.516 127.728 49.188 127.08C48.868 126.424 48.708 125.652 48.708 124.764C48.708 123.876 48.868 123.108 49.188 122.46C49.516 121.812 49.984 121.312 50.592 120.96C51.2 120.608 51.936 120.432 52.8 120.432C53.4 120.432 53.936 120.52 54.408 120.696C54.88 120.872 55.292 121.128 55.644 121.464L55.212 122.46C54.828 122.132 54.452 121.896 54.084 121.752C53.724 121.608 53.304 121.536 52.824 121.536C51.912 121.536 51.216 121.816 50.736 122.376C50.256 122.936 50.016 123.732 50.016 124.764C50.016 125.796 50.256 126.596 50.736 127.164C51.216 127.724 51.912 128.004 52.824 128.004C53.304 128.004 53.724 127.932 54.084 127.788C54.452 127.644 54.828 127.404 55.212 127.068L55.644 128.064C55.292 128.4 54.88 128.66 54.408 128.844C53.936 129.02 53.4 129.108 52.8 129.108ZM57.2108 129V120.54H58.4588V129H57.2108Z" fill="black"/>
<path d="M48.996 161V152.54H52.572C53.476 152.54 54.176 152.756 54.672 153.188C55.168 153.612 55.416 154.208 55.416 154.976C55.416 155.48 55.304 155.912 55.08 156.272C54.856 156.632 54.54 156.908 54.132 157.1C53.724 157.284 53.244 157.376 52.692 157.376L52.884 157.184H53.208C53.536 157.184 53.828 157.268 54.084 157.436C54.348 157.604 54.564 157.872 54.732 158.24L55.944 161H54.576L53.376 158.228C53.256 157.9 53.068 157.688 52.812 157.592C52.564 157.496 52.256 157.448 51.888 157.448H50.244V161H48.996ZM50.244 156.5H52.368C52.968 156.5 53.42 156.372 53.724 156.116C54.036 155.86 54.192 155.492 54.192 155.012C54.192 154.524 54.036 154.156 53.724 153.908C53.42 153.66 52.968 153.536 52.368 153.536H50.244V156.5ZM60.7952 161.108C59.6192 161.108 58.7432 160.812 58.1672 160.22C57.5992 159.628 57.3152 158.752 57.3152 157.592V152.54H58.5632V157.568C58.5632 158.384 58.7392 159 59.0912 159.416C59.4512 159.824 60.0192 160.028 60.7952 160.028C61.5312 160.028 62.0872 159.824 62.4632 159.416C62.8392 159 63.0272 158.384 63.0272 157.568V152.54H64.2512V157.592C64.2512 158.752 63.9592 159.628 63.3752 160.22C62.7912 160.812 61.9312 161.108 60.7952 161.108ZM68.2154 161V153.584H65.3234V152.54H72.3554V153.584H69.4634V161H68.2154Z" fill="black"/>
<mask id="mask5_2_2" style="mask-type:luminance" maskUnits="userSpaceOnUse" x="14" y="144" width="24" height="24">
<path d="M38 144H14V168H38V144Z" fill="white"/>
</mask>
<g mask="url(#mask5_2_2)">
<path d="M26 168C32.6274 168 38 162.627 38 156C38 149.373 32.6274 144 26 144C19.3726 144 14 149.373 14 156C14 162.627 19.3726 168 26 168Z" fill="#F0F0F0"/>
<path d="M38 156C38 162.628 32.6274 168 26 168C19.3726 168 14 162.628 14 156C14 149.373 26 156 26 156C26 156 35.0825 156 38 156Z" fill="#D80027"/>
<path d="M14 156C14 149.373 19.3726 144 26 144C26 148.564 26 156 26 156C26 156 18.1739 156 14 156Z" fill="#0052B4"/>
<path d="M21.1429 148.173L21.9199 150.565H24.4344L22.4002 152.043L23.1772 154.434L21.1429 152.956L19.1086 154.434L19.8856 152.043L17.8513 150.565H20.3658L21.1429 148.173Z" fill="#F0F0F0"/>
</g>
</svg>
