<svg width="277" height="59" viewBox="0 0 277 59" fill="none" xmlns="http://www.w3.org/2000/svg">
<rect x="0.5" y="0.5" width="276" height="58" rx="7.5" stroke="#D0D5DD"/>
<g clip-path="url(#clip0_16_72)">
<path d="M37 34C43.6274 34 49 28.6274 49 22C49 15.3726 43.6274 10 37 10C30.3726 10 25 15.3726 25 22C25 28.6274 30.3726 34 37 34Z" fill="#F0F0F0"/>
<path d="M48.9999 22.0015C48.9999 16.842 45.7434 12.4434 41.1738 10.7479V33.2552C45.7434 31.5596 48.9999 27.1611 48.9999 22.0015Z" fill="#D80027"/>
<path d="M25.0002 22.0006C25.0002 27.1603 28.2567 31.5587 32.8264 33.2543V10.7471C28.2567 12.4425 25.0002 16.8411 25.0002 22.0006Z" fill="#D80027"/>
</g>
<path d="M24.664 48V42.36H26.616C27.2507 42.36 27.7867 42.4693 28.224 42.688C28.6667 42.9067 29 43.2267 29.224 43.648C29.4533 44.064 29.568 44.5733 29.568 45.176C29.568 45.7733 29.4533 46.2827 29.224 46.704C29 47.1253 28.6667 47.448 28.224 47.672C27.7867 47.8907 27.2507 48 26.616 48H24.664ZM25.496 47.304H26.568C27.2933 47.304 27.832 47.128 28.184 46.776C28.5413 46.424 28.72 45.8907 28.72 45.176C28.72 44.4613 28.5413 43.9307 28.184 43.584C27.832 43.232 27.2933 43.056 26.568 43.056H25.496V47.304ZM30.6953 48V42.36H31.3353L34.7993 46.904H34.5993V42.36H35.3753V48H34.7433L31.2873 43.456H31.4713V48H30.6953ZM36.6953 48V42.36H37.5273V48H36.6953ZM38.6755 48.456H37.9955L40.0915 42H40.7715L38.6755 48.456ZM43.7078 48.072C43.1318 48.072 42.6411 47.9547 42.2358 47.72C41.8305 47.4853 41.5185 47.152 41.2998 46.72C41.0865 46.2827 40.9798 45.768 40.9798 45.176C40.9798 44.584 41.0865 44.072 41.2998 43.64C41.5185 43.208 41.8305 42.8747 42.2358 42.64C42.6411 42.4053 43.1318 42.288 43.7078 42.288C44.1078 42.288 44.4651 42.3467 44.7798 42.464C45.0945 42.5813 45.3691 42.752 45.6038 42.976L45.3158 43.64C45.0598 43.4213 44.8091 43.264 44.5638 43.168C44.3238 43.072 44.0438 43.024 43.7238 43.024C43.1158 43.024 42.6518 43.2107 42.3318 43.584C42.0118 43.9573 41.8518 44.488 41.8518 45.176C41.8518 45.864 42.0118 46.3973 42.3318 46.776C42.6518 47.1493 43.1158 47.336 43.7238 47.336C44.0438 47.336 44.3238 47.288 44.5638 47.192C44.8091 47.096 45.0598 46.936 45.3158 46.712L45.6038 47.376C45.3691 47.6 45.0945 47.7733 44.7798 47.896C44.4651 48.0133 44.1078 48.072 43.7078 48.072ZM46.6484 48V42.36H50.3444V43.024H47.4564V44.8H50.1604V45.472H47.4564V47.328H50.3444V48H46.6484Z" fill="black"/>
<g clip-path="url(#clip1_16_72)">
<path d="M83 34C89.6274 34 95 28.6274 95 22C95 15.3726 89.6274 10 83 10C76.3726 10 71 15.3726 71 22C71 28.6274 76.3726 34 83 34Z" fill="#F0F0F0"/>
<path d="M94.9999 21.9997C94.9999 17.2422 92.2312 13.1314 88.2173 11.1904V32.8089C92.2312 30.868 94.9999 26.7572 94.9999 21.9997Z" fill="#D80027"/>
<path d="M71 21.9997C71 26.7572 73.7687 30.868 77.7826 32.809V11.1904C73.7687 13.1314 71 17.2422 71 21.9997Z" fill="#6DA544"/>
<path d="M79.8696 21.9992C79.8696 23.7281 81.2712 25.1297 83.0001 25.1297C84.729 25.1297 86.1305 23.7281 86.1305 21.9992V20.9557H79.8696V21.9992Z" fill="#6DA544"/>
<path d="M87.1736 19.9134H84.0431C84.0431 19.3371 83.5759 18.8699 82.9996 18.8699C82.4233 18.8699 81.9561 19.3371 81.9561 19.9134H78.8257C78.8257 20.4897 79.3277 20.9568 79.9039 20.9568H79.8692C79.8692 21.5332 80.3363 22.0003 80.9127 22.0003C80.9127 22.5766 81.3798 23.0438 81.9561 23.0438H84.0431C84.6194 23.0438 85.0866 22.5766 85.0866 22.0003C85.6629 22.0003 86.1301 21.5332 86.1301 20.9568H86.0953C86.6716 20.9568 87.1736 20.4897 87.1736 19.9134Z" fill="#FF9811"/>
</g>
<path d="M75.664 47V41.36H78.048C78.6507 41.36 79.1173 41.504 79.448 41.792C79.7787 42.0747 79.944 42.472 79.944 42.984C79.944 43.32 79.8693 43.608 79.72 43.848C79.5707 44.088 79.36 44.272 79.088 44.4C78.816 44.5227 78.496 44.584 78.128 44.584L78.256 44.456H78.472C78.6907 44.456 78.8853 44.512 79.056 44.624C79.232 44.736 79.376 44.9147 79.488 45.16L80.296 47H79.384L78.584 45.152C78.504 44.9333 78.3787 44.792 78.208 44.728C78.0427 44.664 77.8373 44.632 77.592 44.632H76.496V47H75.664ZM76.496 44H77.912C78.312 44 78.6133 43.9147 78.816 43.744C79.024 43.5733 79.128 43.328 79.128 43.008C79.128 42.6827 79.024 42.4373 78.816 42.272C78.6133 42.1067 78.312 42.024 77.912 42.024H76.496V44ZM81.2421 47V41.36H84.8581V42.024H82.0741V43.832H84.6741V44.496H82.0741V47H81.2421ZM88.2 47.072C87.624 47.072 87.1333 46.9547 86.728 46.72C86.3227 46.4853 86.0107 46.152 85.792 45.72C85.5787 45.2827 85.472 44.768 85.472 44.176C85.472 43.584 85.5787 43.072 85.792 42.64C86.0107 42.208 86.3227 41.8747 86.728 41.64C87.1333 41.4053 87.624 41.288 88.2 41.288C88.6 41.288 88.9573 41.3467 89.272 41.464C89.5867 41.5813 89.8613 41.752 90.096 41.976L89.808 42.64C89.552 42.4213 89.3013 42.264 89.056 42.168C88.816 42.072 88.536 42.024 88.216 42.024C87.608 42.024 87.144 42.2107 86.824 42.584C86.504 42.9573 86.344 43.488 86.344 44.176C86.344 44.864 86.504 45.3973 86.824 45.776C87.144 46.1493 87.608 46.336 88.216 46.336C88.536 46.336 88.816 46.288 89.056 46.192C89.3013 46.096 89.552 45.936 89.808 45.712L90.096 46.376C89.8613 46.6 89.5867 46.7733 89.272 46.896C88.9573 47.0133 88.6 47.072 88.2 47.072Z" fill="black"/>
<g clip-path="url(#clip2_16_72)">
<path d="M124 22C124 15.3726 129.373 10 136 10C142.627 10 148 15.3726 148 22L136 23.0435L124 22Z" fill="#FFDA44"/>
<path d="M125.606 28.0005C127.681 31.5871 131.559 34.0005 136 34.0005C140.442 34.0005 144.32 31.5871 146.394 28.0005L136 27.2178L125.606 28.0005Z" fill="#D80027"/>
<path d="M146.394 27.9998C147.415 26.2348 148 24.1856 148 21.9998H124C124 24.1856 124.584 26.2348 125.605 27.9998H146.394Z" fill="#0052B4"/>
</g>
<path d="M118.2 47.072C117.624 47.072 117.133 46.9547 116.728 46.72C116.323 46.4853 116.011 46.152 115.792 45.72C115.579 45.2827 115.472 44.768 115.472 44.176C115.472 43.584 115.579 43.072 115.792 42.64C116.011 42.208 116.323 41.8747 116.728 41.64C117.133 41.4053 117.624 41.288 118.2 41.288C118.6 41.288 118.957 41.3467 119.272 41.464C119.587 41.5813 119.861 41.752 120.096 41.976L119.808 42.64C119.552 42.4213 119.301 42.264 119.056 42.168C118.816 42.072 118.536 42.024 118.216 42.024C117.608 42.024 117.144 42.2107 116.824 42.584C116.504 42.9573 116.344 43.488 116.344 44.176C116.344 44.864 116.504 45.3973 116.824 45.776C117.144 46.1493 117.608 46.336 118.216 46.336C118.536 46.336 118.816 46.288 119.056 46.192C119.301 46.096 119.552 45.936 119.808 45.712L120.096 46.376C119.861 46.6 119.587 46.7733 119.272 46.896C118.957 47.0133 118.6 47.072 118.2 47.072ZM123.505 47.072C122.929 47.072 122.438 46.9547 122.033 46.72C121.627 46.4853 121.315 46.152 121.097 45.72C120.883 45.2827 120.777 44.768 120.777 44.176C120.777 43.584 120.883 43.072 121.097 42.64C121.315 42.208 121.627 41.8747 122.033 41.64C122.438 41.4053 122.929 41.288 123.505 41.288C123.905 41.288 124.262 41.3467 124.577 41.464C124.891 41.5813 125.166 41.752 125.401 41.976L125.113 42.64C124.857 42.4213 124.606 42.264 124.361 42.168C124.121 42.072 123.841 42.024 123.521 42.024C122.913 42.024 122.449 42.2107 122.129 42.584C121.809 42.9573 121.649 43.488 121.649 44.176C121.649 44.864 121.809 45.3973 122.129 45.776C122.449 46.1493 122.913 46.336 123.521 46.336C123.841 46.336 124.121 46.288 124.361 46.192C124.606 46.096 124.857 45.936 125.113 45.712L125.401 46.376C125.166 46.6 124.891 46.7733 124.577 46.896C124.262 47.0133 123.905 47.072 123.505 47.072ZM126.418 47.456H125.738L127.834 41H128.514L126.418 47.456ZM131.45 47.072C130.874 47.072 130.383 46.9547 129.978 46.72C129.573 46.4853 129.261 46.152 129.042 45.72C128.829 45.2827 128.722 44.768 128.722 44.176C128.722 43.584 128.829 43.072 129.042 42.64C129.261 42.208 129.573 41.8747 129.978 41.64C130.383 41.4053 130.874 41.288 131.45 41.288C131.85 41.288 132.207 41.3467 132.522 41.464C132.837 41.5813 133.111 41.752 133.346 41.976L133.058 42.64C132.802 42.4213 132.551 42.264 132.306 42.168C132.066 42.072 131.786 42.024 131.466 42.024C130.858 42.024 130.394 42.2107 130.074 42.584C129.754 42.9573 129.594 43.488 129.594 44.176C129.594 44.864 129.754 45.3973 130.074 45.776C130.394 46.1493 130.858 46.336 131.466 46.336C131.786 46.336 132.066 46.288 132.306 46.192C132.551 46.096 132.802 45.936 133.058 45.712L133.346 46.376C133.111 46.6 132.837 46.7733 132.522 46.896C132.207 47.0133 131.85 47.072 131.45 47.072ZM134.391 47V41.36H138.087V42.024H135.199V43.8H137.903V44.472H135.199V46.328H138.087V47H134.391ZM139.215 47.456H138.535L140.631 41H141.311L139.215 47.456ZM141.789 47V41.36H144.181C144.784 41.36 145.245 41.5067 145.565 41.8C145.89 42.088 146.053 42.488 146.053 43C146.053 43.512 145.89 43.9147 145.565 44.208C145.245 44.5013 144.784 44.648 144.181 44.648H142.621V47H141.789ZM142.621 43.984H144.093C144.472 43.984 144.757 43.8987 144.949 43.728C145.141 43.5573 145.237 43.3147 145.237 43C145.237 42.6907 145.141 42.4507 144.949 42.28C144.757 42.1093 144.472 42.024 144.093 42.024H142.621V43.984ZM147.055 47V41.36H149.447C150.049 41.36 150.511 41.5067 150.831 41.8C151.156 42.088 151.319 42.488 151.319 43C151.319 43.512 151.156 43.9147 150.831 44.208C150.511 44.5013 150.049 44.648 149.447 44.648H147.887V47H147.055ZM147.887 43.984H149.359C149.737 43.984 150.023 43.8987 150.215 43.728C150.407 43.5573 150.503 43.3147 150.503 43C150.503 42.6907 150.407 42.4507 150.215 42.28C150.023 42.1093 149.737 42.024 149.359 42.024H147.887V43.984ZM153.524 47V42.056H151.596V41.36H156.284V42.056H154.356V47H153.524Z" fill="black"/>
<g clip-path="url(#clip3_16_72)">
<path d="M177 22C177 15.3726 182.373 10 189 10C195.627 10 201 15.3726 201 22L189 23.0435L177 22Z" fill="#FFDA44"/>
<path d="M178.605 28.0009C180.68 31.5876 184.558 34.0009 189 34.0009C193.441 34.0009 197.319 31.5876 199.394 28.0009L189 27.2183L178.605 28.0009Z" fill="#D80027"/>
<path d="M199.394 28.0002C200.415 26.2352 201 24.1861 201 22.0002H177C177 24.1861 177.585 26.2352 178.606 28.0002H199.394Z" fill="#0052B4"/>
<path d="M189 26.1744C191.305 26.1744 193.173 24.3057 193.173 22.0006C193.173 19.6954 191.305 17.8267 189 17.8267C186.694 17.8267 184.826 19.6954 184.826 22.0006C184.826 24.3057 186.694 26.1744 189 26.1744Z" fill="#FFDA44"/>
<path d="M189 24.6092C187.562 24.6092 186.392 23.439 186.392 22.0005V20.4353C186.392 18.9969 187.562 17.8267 189 17.8267C190.439 17.8267 191.609 18.9969 191.609 20.4353V22.0005C191.609 23.439 190.439 24.6092 189 24.6092Z" fill="#338AF3"/>
<path d="M193.174 15.74H190.043C190.043 15.1637 189.576 14.6965 189 14.6965C188.423 14.6965 187.956 15.1637 187.956 15.74H184.826C184.826 16.3163 185.328 16.7834 185.904 16.7834H185.869C185.869 17.3598 186.336 17.8269 186.913 17.8269C186.913 18.4033 187.38 18.8704 187.956 18.8704H190.043C190.619 18.8704 191.087 18.4033 191.087 17.8269C191.663 17.8269 192.13 17.3598 192.13 16.7834H192.095C192.672 16.7834 193.174 16.3162 193.174 15.74Z" fill="black"/>
</g>
<path d="M188.2 48.072C187.624 48.072 187.133 47.9547 186.728 47.72C186.323 47.4853 186.011 47.152 185.792 46.72C185.579 46.2827 185.472 45.768 185.472 45.176C185.472 44.584 185.579 44.072 185.792 43.64C186.011 43.208 186.323 42.8747 186.728 42.64C187.133 42.4053 187.624 42.288 188.2 42.288C188.6 42.288 188.957 42.3467 189.272 42.464C189.587 42.5813 189.861 42.752 190.096 42.976L189.808 43.64C189.552 43.4213 189.301 43.264 189.056 43.168C188.816 43.072 188.536 43.024 188.216 43.024C187.608 43.024 187.144 43.2107 186.824 43.584C186.504 43.9573 186.344 44.488 186.344 45.176C186.344 45.864 186.504 46.3973 186.824 46.776C187.144 47.1493 187.608 47.336 188.216 47.336C188.536 47.336 188.816 47.288 189.056 47.192C189.301 47.096 189.552 46.936 189.808 46.712L190.096 47.376C189.861 47.6 189.587 47.7733 189.272 47.896C188.957 48.0133 188.6 48.072 188.2 48.072ZM191.141 48V42.36H191.973V48H191.141Z" fill="black"/>
<path d="M225.664 49V43.36H228.048C228.651 43.36 229.117 43.504 229.448 43.792C229.779 44.0747 229.944 44.472 229.944 44.984C229.944 45.32 229.869 45.608 229.72 45.848C229.571 46.088 229.36 46.272 229.088 46.4C228.816 46.5227 228.496 46.584 228.128 46.584L228.256 46.456H228.472C228.691 46.456 228.885 46.512 229.056 46.624C229.232 46.736 229.376 46.9147 229.488 47.16L230.296 49H229.384L228.584 47.152C228.504 46.9333 228.379 46.792 228.208 46.728C228.043 46.664 227.837 46.632 227.592 46.632H226.496V49H225.664ZM226.496 46H227.912C228.312 46 228.613 45.9147 228.816 45.744C229.024 45.5733 229.128 45.328 229.128 45.008C229.128 44.6827 229.024 44.4373 228.816 44.272C228.613 44.1067 228.312 44.024 227.912 44.024H226.496V46ZM233.53 49.072C232.746 49.072 232.162 48.8747 231.778 48.48C231.399 48.0853 231.21 47.5013 231.21 46.728V43.36H232.042V46.712C232.042 47.256 232.159 47.6667 232.394 47.944C232.634 48.216 233.013 48.352 233.53 48.352C234.021 48.352 234.391 48.216 234.642 47.944C234.893 47.6667 235.018 47.256 235.018 46.712V43.36H235.834V46.728C235.834 47.5013 235.639 48.0853 235.25 48.48C234.861 48.8747 234.287 49.072 233.53 49.072ZM238.477 49V44.056H236.549V43.36H241.237V44.056H239.309V49H238.477Z" fill="black"/>
<g clip-path="url(#clip4_16_72)">
<path d="M233 34C239.627 34 245 28.6274 245 22C245 15.3726 239.627 10 233 10C226.373 10 221 15.3726 221 22C221 28.6274 226.373 34 233 34Z" fill="#F0F0F0"/>
<path d="M245 22.0002C245 28.6276 239.627 34.0003 233 34.0003C226.373 34.0003 221 28.6276 221 22.0002C221 15.3729 233 22.0002 233 22.0002C233 22.0002 242.083 22.0002 245 22.0002Z" fill="#D80027"/>
<path d="M221 22C221 15.3726 226.373 10 233 10C233 14.5635 233 22 233 22C233 22 225.174 22 221 22Z" fill="#0052B4"/>
<path d="M228.143 14.1735L228.92 16.5649H231.434L229.4 18.0429L230.177 20.4344L228.143 18.9564L226.109 20.4344L226.886 18.0429L224.851 16.5649H227.366L228.143 14.1735Z" fill="#F0F0F0"/>
</g>
<defs>
<clipPath id="clip0_16_72">
<rect width="24" height="24" fill="white" transform="translate(25 10)"/>
</clipPath>
<clipPath id="clip1_16_72">
<rect width="24" height="24" fill="white" transform="translate(71 10)"/>
</clipPath>
<clipPath id="clip2_16_72">
<rect width="24" height="24" fill="white" transform="translate(124 10)"/>
</clipPath>
<clipPath id="clip3_16_72">
<rect width="24" height="24" fill="white" transform="translate(177 10)"/>
</clipPath>
<clipPath id="clip4_16_72">
<rect width="24" height="24" fill="white" transform="translate(221 10)"/>
</clipPath>
</defs>
</svg>
