<svg width="324" height="67" viewBox="0 0 324 67" fill="none" xmlns="http://www.w3.org/2000/svg">
<path d="M36.3436 21.1121C36.3436 15.7129 32.7669 12.6211 24.9213 12.6211H10.4762L0 54.684H13.9605C26.2597 54.684 32.1208 48.8926 32.1208 40.7246C32.1208 36.7559 29.5825 34.1486 22.8445 33.8948L23.1676 32.9488C31.4977 32.4643 36.3436 27.5496 36.3436 21.1352V21.1121ZM14.6759 45.0854H14.0298L16.1758 36.9867H17.768C20.6293 36.9867 21.6677 38.025 21.6677 39.5247C21.6677 42.4551 18.6448 45.0854 14.6759 45.0854ZM18.1602 29.9262H17.8372L19.8217 22.3119H21.4139C24.1137 22.3119 24.9905 23.3503 24.9905 24.7808C24.9905 27.8034 21.8061 29.9493 18.1602 29.9493V29.9262Z" fill="#0F1C14"/>
<path d="M68.718 21.3661C68.718 16.5207 65.6259 11.9983 58.0803 11.9983C44.512 11.9983 34.2666 27.4806 34.2666 42.063C34.2666 50.0003 38.7894 55.238 46.2427 55.238C56.3958 55.238 62.0262 48.7312 64.1722 39.6172H52.4268C51.7115 42.7091 50.2808 44.6934 48.3887 44.6934C46.4965 44.6934 45.8504 43.3551 45.8504 40.3325C45.8504 39.4557 45.9196 38.5789 46.0119 37.6329C60.3647 37.1484 68.718 30.8032 68.718 21.3661ZM55.8651 21.9199C57.065 21.9199 57.9188 22.7044 57.9188 23.9734C57.9188 26.2808 54.7344 29.0496 48.3194 29.3726C50.1424 25.1732 52.8422 21.9199 55.8651 21.9199Z" fill="#0F1C14"/>
<path d="M94.8393 12.6211H73.1024L70.4949 23.4887H76.356L68.4873 54.6609H80.6249L88.4936 23.4887H92.2318L94.8393 12.6211Z" fill="#0F1C14"/>
<path d="M119.276 12.6211H97.6086L95.0011 23.4887H98.7393L90.8706 54.6609H103.008L110.877 23.4887H116.669L119.299 12.6211H119.276Z" fill="#0F1C14"/>
<path d="M131.806 39.6172C131.09 42.7091 129.66 44.6934 127.768 44.6934C125.875 44.6934 125.229 43.3551 125.229 40.3325C125.229 39.4557 125.299 38.5789 125.391 37.6329C139.744 37.1484 148.097 30.8032 148.097 21.3661C148.097 16.5207 145.005 11.9983 137.459 11.9983C123.891 11.9983 113.646 27.4806 113.646 42.063C113.646 50.0003 118.168 55.238 125.622 55.238C135.775 55.238 141.405 48.7312 143.551 39.6172H131.806ZM135.221 21.9199C136.421 21.9199 137.275 22.7044 137.275 23.9734C137.275 26.2808 134.09 29.0496 127.675 29.3726C129.498 25.1732 132.198 21.9199 135.221 21.9199Z" fill="#0F1C14"/>
<path d="M165.773 35.9484L166.096 35.0023C173.711 34.6793 179.179 29.5339 179.341 21.9889C179.503 16.1975 176.157 12.6211 167.203 12.6211H153.312L142.836 54.684H154.581L158.227 40.0785H160.212C162.519 40.0785 163.396 40.9553 162.75 43.5626L160.119 54.6609H172.257L173.918 44.1164C174.703 39.0402 172.095 36.1791 165.75 35.9484H165.773ZM160.765 31.1952H160.373L162.681 22.3119H164.273C167.203 22.3119 168.242 23.258 168.173 25.0115C168.011 28.6571 164.688 31.1952 160.788 31.1952H160.765Z" fill="#0F1C14"/>
<path d="M203.547 29.4416H193.071L194.571 23.4887H205.208L207.908 12.6211H185.364L174.887 54.684H186.794L190.371 40.4015H200.778L203.547 29.4416Z" fill="#0F1C14"/>
<path d="M222.515 12.6211H210.608L200.132 54.684H221.707L224.407 43.8164H214.715L222.492 12.6211H222.515Z" fill="#0F1C14"/>
<path d="M237.029 30.5724H236.083L238.391 12.6443H225.215L227.684 42.1552L224.499 54.6841H236.406L239.59 42.1552L256.574 12.6443H242.913L237.052 30.5724H237.029Z" fill="#0F1C14"/>
<path fill-rule="evenodd" clip-rule="evenodd" d="M290.541 66.913C309.024 66.913 324 51.9384 324 33.4565C324 14.9747 309.024 0 290.541 0C272.058 0 257.082 14.9747 257.082 33.4565C257.082 51.9384 272.058 66.913 290.541 66.913Z" fill="#26FE7E"/>
<path d="M290.541 4.61475C273.603 4.61475 261.697 17.5128 261.697 33.4566C261.697 49.4003 273.603 62.2984 290.541 62.2984C307.478 62.2984 319.385 49.4003 319.385 33.4566C319.385 17.5128 307.478 4.61475 290.541 4.61475ZM290.541 57.2453C276.395 57.2453 266.75 46.5161 266.75 33.4566C266.75 20.397 276.395 9.66783 290.541 9.66783C304.686 9.66783 314.331 20.397 314.331 33.4566C314.331 46.5161 304.686 57.2453 290.541 57.2453Z" fill="#0F1C14"/>
<path d="M275.934 39.2017C275.934 37.3327 277.342 35.6945 280.295 35.6945H281.772L282.857 31.1029H281.311C279.441 31.1029 278.518 30.5492 278.518 29.0032C278.518 27.1343 279.926 25.5884 282.88 25.5884H284.287L285.533 20.6045H282.349C275.819 20.6045 273.027 24.1809 273.027 28.611C273.027 31.2644 274.273 32.7411 277.457 33.0411L277.226 33.8256C272.404 34.2178 270.534 37.102 270.534 41.0476C270.534 44.4624 272.473 46.1699 276.142 46.1699H282.903L284.149 41.2783H278.795C276.926 41.2783 276.003 40.7245 276.003 39.1786L275.934 39.2017Z" fill="#0F1C14"/>
<path d="M296.217 35.7177L297.302 31.1261H293.656L295.063 25.6116H298.709L299.955 20.6277H287.518L286.272 25.6116H290.01L288.602 31.1261H284.864L283.78 35.7177H287.518L284.864 46.2162H289.918L292.571 35.7177H296.217Z" fill="#0F1C14"/>
<path d="M310.593 25.9115C310.593 22.4966 308.655 20.6277 304.986 20.6277H301.963L300.717 25.6116H302.355C304.224 25.6116 305.147 26.2345 305.147 27.7805C305.147 29.6494 303.74 31.1261 300.786 31.1261H299.309L298.225 35.7177H299.771C301.64 35.7177 302.563 36.4099 302.563 37.9789C302.563 39.8479 301.178 41.3246 298.202 41.3246H293.148L291.902 46.2162H298.755C305.286 46.2162 308.078 42.8013 308.078 38.3712C308.078 35.7177 306.832 34.241 303.647 33.8719L303.878 33.0874C308.701 32.6951 310.57 29.9032 310.57 25.9346L310.593 25.9115Z" fill="#0F1C14"/>
</svg>
