<svg width="1138" height="37" viewBox="0 0 1138 37" fill="none" xmlns="http://www.w3.org/2000/svg">
<g clip-path="url(#clip0_5_752)">
<path d="M33.25 20.3643C33.7422 20.3643 34.1641 20.0831 34.3047 19.5909L37.5391 11.5752L43.4453 35.2002C43.5859 35.7627 44.0078 36.044 44.5703 36.1143C45.0625 36.044 45.5547 35.6924 45.625 35.2002L51.3906 6.30176L54.6953 19.4502C54.8359 19.9424 55.3281 20.3643 55.75 20.3643H1137.44C1137.79 20.3643 1138 20.0832 1138 19.8019V18.6769C1138 18.3253 1137.79 18.1144 1137.44 18.1144L56.6641 18.1143L52.375 0.958009C52.2344 0.395509 51.8125 0.114258 51.25 0.114258C50.7578 0.114258 50.2656 0.465821 50.1953 0.958009L44.4297 29.8565L38.875 7.70801C38.7344 7.21582 38.3125 6.86426 37.8906 6.86426C37.3281 6.79395 36.9063 7.0752 36.7656 7.56738L32.5469 18.1143H0.562501C0.281251 18.1143 1.2909e-07 18.3252 9.835e-08 18.6768L0 19.8018C-2.458e-08 20.0831 0.28125 20.3643 0.5625 20.3643H33.25Z" fill="#53ACDD"/>
</g>
<defs>
<clipPath id="clip0_5_752">
<rect width="1138" height="36" fill="white" transform="translate(0 0.114258)"/>
</clipPath>
</defs>
</svg>
