<svg width="106" height="141" viewBox="0 0 106 141" fill="none" xmlns="http://www.w3.org/2000/svg">
<path d="M52.4117 105.434C31.3963 105.37 10.8124 91.1951 4.40372 72.3878C3.52808 69.8117 2.91894 67.1721 2.75396 64.4817C2.09406 54.177 9.14995 47.6541 21.3328 47.3876C30.1273 47.1973 38.2745 49.8242 46.1299 53.5171C52.9066 56.7024 59.4041 60.4715 66.46 63.073C67.0946 63.3015 68.0844 63.3522 68.0844 64.304C68.0844 65.1416 67.2088 65.3827 66.5996 65.7507C62.196 68.3015 57.564 68.6188 52.729 67.2482C48.2492 65.9792 44.0614 63.8345 39.404 63.0604C28.6552 61.271 21.7769 69.2152 25.5587 79.4437C28.9597 88.6316 36.3202 93.2509 45.47 95.1418C62.8559 98.7205 79.9246 90.9413 89.5693 75.3193C91.2572 72.5909 92.9577 69.9005 95.2927 67.6797C96.4603 66.5629 97.7039 65.5477 99.2522 65.0654C100.509 64.672 101.968 63.7076 103.11 64.6213C104.468 65.7 103.224 67.1594 102.856 68.3396C96.0542 90.3829 75.4576 105.523 52.4244 105.446L52.4117 105.434Z" fill="#00A7E5"/>
<path d="M36.347 41.3087C42.7049 36.4609 48.9486 36.664 55.3954 39.0244C59.3167 40.4711 63.1873 41.9305 67.3879 42.4381C76.2966 43.5168 82.5783 36.8416 80.4336 28.136C77.8956 17.8694 70.3701 12.6409 60.7254 10.4328C42.7811 6.33379 25.7505 14.0877 15.4712 30.5852C13.5803 33.6183 11.7402 36.702 8.79604 38.834C6.90516 40.2046 4.34169 41.9813 2.46351 40.7122C0.6107 39.4559 2.56503 36.8924 3.21224 35.0396C9.97625 15.5851 29.0119 1.0038 48.7963 0.064702C70.7381 -0.975915 90.751 10.6105 99.5708 29.4304C101.373 33.2629 102.363 37.2985 102.566 41.499C102.997 50.2301 96.9566 56.7783 87.8322 57.6032C79.4819 58.352 71.4488 57.0702 63.7076 53.8342C54.6593 50.0524 46.2836 44.8239 36.3597 41.3214L36.347 41.3087Z" fill="#00A7E5"/>
<path d="M40.2287 19.2783C34.4038 22.6793 30.2921 27.9332 25.6601 32.6413C23.2489 35.1033 20.8377 37.5906 17.3478 38.5297C16.5483 38.7454 15.6219 39.4053 14.9367 38.6312C14.226 37.8317 15.0636 37.0068 15.3935 36.2962C22.3859 21.3468 33.8581 12.7427 50.5588 11.7528C54.4674 11.5244 58.4268 11.4863 63.1477 13.0473C51.7009 15.027 46.0917 23.7834 38.8962 30.4839C36.3328 32.8697 33.7312 35.484 29.3657 34.5576C31.688 28.2504 36.9546 24.5829 41.079 20.0143C41.3201 19.5067 41.8658 19.3036 42.2084 18.9102C41.5739 19.2275 40.9521 19.5575 40.216 19.3036L40.2287 19.2783Z" fill="#00BAFF"/>
<path d="M65.3684 85.6363C70.178 83.4028 73.3507 79.2657 77.0182 75.687C79.5563 73.2124 82.0309 70.6362 84.734 68.3392C86.3076 67.0067 88.3254 66.3722 90.5462 66.5753C87.234 84.5576 64.645 96.9181 42.9443 92.4638C54.15 90.3318 59.8099 80.9535 67.4115 74.1134C69.7085 72.0575 73.0842 69.0626 75.2035 70.9027C77.069 72.5271 73.4395 75.5601 71.7897 77.5906C69.645 80.2302 66.9927 82.451 64.5435 84.8368C64.48 85.2556 63.7567 85.5602 64.0232 85.8267C64.2897 86.0805 64.9242 85.9155 65.3557 85.6363H65.3684Z" fill="#00BAFF"/>
<path d="M69.1148 126.322C69.1148 124.063 69.0894 122.223 69.1148 120.383C69.1402 119.063 68.8864 117.49 70.9041 117.388C72.8585 117.287 73.9499 118.378 73.9879 120.244C74.0895 124.165 74.0514 128.086 74.0514 132.008C74.0514 133.81 74.3179 135.472 76.2341 136.272C78.9499 137.388 81.4245 135.802 81.5514 132.68C81.7037 128.645 81.6276 124.584 81.6149 120.548C81.6149 118.848 81.6403 117.363 84.0261 117.338C86.3357 117.312 86.6276 118.645 86.5515 120.434C86.3484 124.952 87.0337 129.508 86.0946 134C85.1936 138.315 82.6301 140.295 77.9727 140.333C73.125 140.371 70.4981 138.366 69.4574 133.975C68.8229 131.297 69.2925 128.594 69.1148 126.335V126.322Z" fill="#00BAFF"/>
<path d="M35.2308 131.639C35.2308 130.535 35.1674 129.431 35.2435 128.34C35.4212 125.966 34.1522 121.944 39.1776 124.875C39.7233 125.192 40.9289 124.266 41.8679 124.012C45.5355 123.048 47.9467 124.659 48.2132 128.466C48.4289 131.512 48.2386 134.583 48.3655 137.642C48.4289 139.076 47.7817 139.774 46.5 139.761C45.1928 139.761 44.5583 138.898 44.5583 137.578C44.5583 135.129 44.5837 132.68 44.5203 130.23C44.4695 128.758 44.4314 126.994 42.3629 127.071C40.4085 127.134 39.2537 128.302 39.2918 130.433C39.3299 132.756 39.2664 135.091 39.2918 137.413C39.3172 138.936 38.7207 139.659 37.1217 139.609C35.6877 139.571 35.1928 138.835 35.2181 137.515C35.2435 135.56 35.2181 133.593 35.2181 131.639H35.2308Z" fill="#00BAFF"/>
<path d="M103.821 119.457C100.344 116.284 95.8389 116.855 91.9302 117.693C89.2018 118.276 90.9023 121.728 90.5977 123.873C90.382 125.434 90.5597 127.045 90.5597 128.632C90.5597 131.563 90.5977 134.507 90.5597 137.439C90.5343 139.178 91.0673 140.142 93.047 140.218C95.4074 140.307 95.6739 138.974 95.4962 137.198C95.1917 134.317 95.4962 132.363 99.3541 132.477C102.121 132.553 104.494 130.916 105.407 127.959C106.359 124.863 106.385 121.792 103.821 119.457ZM97.5521 128.911C95.1663 129.177 95.2932 127.426 95.5343 126.03C95.8262 124.317 94.1003 121.715 96.8795 121.132C99.8491 121.094 101.004 122.616 101.156 124.748C101.334 127.16 100.014 128.632 97.5394 128.898L97.5521 128.911Z" fill="#00BAFF"/>
<path d="M13.5797 129.532C12.095 128.162 12.5264 127.35 13.4148 125.903C15.1787 123.048 14.1254 119.786 11.067 118.606C7.7929 117.337 4.03653 117.159 1.02889 118.466C-0.900057 119.304 0.521273 122.743 0.280155 125.002C0.15325 126.207 0.254774 127.451 0.254774 128.669V131.614C0.254774 137.434 3.22011 140.087 9.15078 139.571C11.6635 139.355 13.6813 138.416 14.6711 135.992C15.6356 133.644 15.4326 131.271 13.5544 129.532H13.5797ZM3.98577 124.507C4.08729 122.324 3.61774 120.383 6.14314 120.548C8.12285 120.674 10.2802 121.017 10.3056 123.631C10.331 126.093 8.61778 126.791 6.37157 126.893C3.9477 127.007 3.89693 125.56 3.98577 124.507ZM6.44771 137.083C2.67865 137.248 4.3411 134.38 4.03653 132.68C3.57967 130.142 4.95024 129.418 7.06955 129.799C9.75992 129.634 11.3082 130.916 11.2955 133.365C11.2828 136.423 8.92235 136.969 6.44771 137.083V137.083Z" fill="#00BAFF"/>
<path d="M64.7348 128.72C64.684 125.535 64.7221 122.337 64.7221 119.139C64.7221 117.667 64.5444 116.335 62.5901 116.474C60.6865 116.601 61.1434 118.111 61.0672 119.253C61.0038 120.104 61.0038 120.979 61.0672 121.83C61.1561 123.429 60.4962 124.063 58.8718 123.835C55.5723 123.378 53.1484 124.888 52.387 127.959C51.4733 131.639 50.9656 135.561 53.9479 138.746C54.9885 139.863 56.4606 140.383 57.9961 140.002C59.9251 139.507 61.6129 138.2 63.8718 139.393C64.9251 139.952 65.3947 138.594 65.3312 137.375C64.3795 134.622 64.7729 131.652 64.7221 128.72H64.7348ZM61.0672 129.774C61.0165 130.383 61.0672 131.005 61.0672 131.614C61.0419 131.614 61.0292 131.614 61.0038 131.614C61.0038 132.591 61.0799 133.581 60.9911 134.558C60.8388 136.03 59.7221 136.677 58.453 136.804C57.0444 136.944 56.0037 136.056 55.8642 134.71C55.6738 132.896 55.623 131.017 55.8642 129.215C56.0672 127.693 56.9555 126.449 58.8591 126.639C60.788 126.842 61.2068 128.086 61.0672 129.774V129.774Z" fill="#00BAFF"/>
<path d="M24.7738 123.366C20.5986 123.378 18.0098 126.576 18.0098 131.729C18.0098 136.906 20.5479 140.079 24.7484 140.104C28.9743 140.142 32.0581 136.5 31.982 131.589C31.9058 126.843 28.8474 123.34 24.7865 123.353L24.7738 123.366ZM27.4515 135.142C26.8169 136.868 25.4083 137.845 23.6824 136.843C21.3981 135.523 21.7788 133.074 21.7915 130.878C21.7915 129.102 22.0834 127.363 23.9489 126.551C25.6748 125.802 26.8677 126.703 27.4261 128.251C27.8322 129.381 27.7941 130.65 27.9337 131.792C27.7814 132.985 27.8195 134.14 27.4515 135.142V135.142Z" fill="#00BAFF"/>
</svg>
