<svg width="85" height="88" viewBox="0 0 85 88" fill="none" xmlns="http://www.w3.org/2000/svg">
<path d="M42.2546 87.8232C24.7494 87.7704 7.60359 75.9628 2.26534 60.2969C1.53596 58.151 1.02856 55.9523 0.891143 53.7113C0.341462 45.1278 6.21882 39.6944 16.3668 39.4724C23.6923 39.3139 30.4788 41.502 37.0221 44.5781C42.6669 47.2314 48.0791 50.3709 53.9565 52.5379C54.485 52.7282 55.3095 52.7705 55.3095 53.5633C55.3095 54.261 54.5802 54.4618 54.0728 54.7684C50.4047 56.8931 46.5464 57.1574 42.5189 56.0157C38.7874 54.9587 35.2991 53.1722 31.4196 52.5274C22.4661 51.0369 16.7367 57.6542 19.8868 66.1743C22.7198 73.8275 28.8509 77.6753 36.4724 79.2503C50.9544 82.2313 65.1721 75.7514 73.2059 62.7387C74.6118 60.466 76.0283 58.225 77.9733 56.3751C78.9458 55.4449 79.9818 54.5992 81.2714 54.1976C82.3179 53.8699 83.5335 53.0665 84.4849 53.8276C85.616 54.7261 84.5801 55.9417 84.2735 56.9248C78.6076 75.2863 61.4512 87.8972 42.2652 87.8338L42.2546 87.8232Z" fill="white"/>
<path d="M28.872 34.409C34.168 30.3709 39.3688 30.54 44.7388 32.5062C48.0051 33.7113 51.2292 34.9269 54.7282 35.3498C62.1488 36.2483 67.3814 30.688 65.5949 23.4365C63.4808 14.8847 57.2123 10.5295 49.1785 8.69023C34.2314 5.27586 20.0454 11.7346 11.4831 25.4766C9.90803 28.0031 8.37526 30.5718 5.92284 32.3476C4.34779 33.4893 2.21249 34.9692 0.648018 33.9121C-0.895317 32.8656 0.732584 30.7303 1.27169 29.187C6.90592 12.982 22.7621 0.836133 39.242 0.0538949C57.5188 -0.81291 74.189 8.83822 81.5357 24.5147C83.0367 27.7071 83.8612 31.0686 84.0304 34.5675C84.3898 41.8402 79.3581 47.2947 71.7577 47.9818C64.8021 48.6055 58.1108 47.5379 51.6626 44.8423C44.1257 41.6922 37.1489 37.3371 28.8826 34.4195L28.872 34.409Z" fill="white"/>
<path d="M32.105 16.0583C27.253 18.8912 23.8281 23.2675 19.9698 27.1893C17.9613 29.24 15.9529 31.3119 13.0459 32.0941C12.3799 32.2739 11.6083 32.8235 11.0374 32.1787C10.4455 31.5128 11.1432 30.8257 11.418 30.2337C17.2425 17.7813 26.7985 10.6143 40.7096 9.78979C43.9654 9.59951 47.2635 9.5678 51.1959 10.868C41.661 12.517 36.9887 19.8109 30.9951 25.3923C28.8598 27.3796 26.6928 29.5572 23.0564 28.7855C24.9909 23.5318 29.3778 20.4769 32.8133 16.6714C33.0141 16.2485 33.4687 16.0794 33.7541 15.7517C33.2255 16.016 32.7076 16.2908 32.0944 16.0794L32.105 16.0583Z" fill="white"/>
<path d="M53.0452 71.3326C57.0515 69.4721 59.6942 66.0261 62.7491 63.0451C64.8633 60.9838 66.9246 58.8379 69.1762 56.9246C70.487 55.8147 72.1677 55.2861 74.0176 55.4553C71.2586 70.4341 52.4426 80.73 34.3666 77.0197C43.7006 75.2438 48.4152 67.432 54.7471 61.7343C56.6604 60.0219 59.4722 57.5272 61.2375 59.0599C62.7914 60.413 59.7682 62.9394 58.394 64.6307C56.6075 66.8294 54.3982 68.6793 52.3581 70.6666C52.3052 71.0155 51.7027 71.2692 51.9247 71.4912C52.1466 71.7026 52.6752 71.5652 53.0346 71.3326H53.0452Z" fill="white"/>
</svg>
