<svg width="60" height="96" viewBox="0 0 60 96" fill="none" xmlns="http://www.w3.org/2000/svg">
<path d="M33.1546 82.8102C33.0122 82.8361 32.9701 83.043 32.7921 83.0009C32.7694 83.0656 32.7208 83.1076 32.6561 83.127C32.6237 83.1432 32.5913 83.1593 32.559 83.1723C32.5201 83.1496 32.4424 83.1593 32.4133 83.14C32.4456 83.1593 32.5201 83.1529 32.559 83.1723C32.5039 83.2757 32.4262 83.3468 32.3032 83.3436H32.2708C32.2708 83.3436 32.2385 83.3371 32.2255 83.3307C32.2417 83.3339 32.2579 83.3371 32.2708 83.3468C32.1672 83.5472 31.8985 83.5602 31.7949 83.7606C31.8079 83.822 31.8273 83.8867 31.7949 83.9513C31.7949 84.2002 31.7949 84.4426 31.7982 84.6883C31.9018 84.7594 31.9892 84.7497 32.0604 84.6431C32.1413 84.5267 32.2255 84.4136 32.3097 84.3037C32.6917 83.7703 33.1352 83.279 33.4557 82.7036C33.3327 82.6777 33.2518 82.7617 33.1546 82.8102Z" fill="#003380"/>
<path d="M50.9992 72.0654V71.8294C50.9992 71.6581 50.9863 71.4932 50.9765 71.3284C50.9604 71.1764 50.9409 71.0277 50.915 70.8758C50.7337 69.8252 50.2384 68.807 49.4614 67.8599C47.8589 65.9107 45.4114 64.8536 42.8862 64.8633L31.1894 64.9086L19.2756 64.9603C16.8055 64.9733 14.4098 66.027 12.8655 67.9472C11.9623 69.0688 11.4508 70.2972 11.3795 71.5482C11.3666 71.7486 11.3731 71.9555 11.3795 72.1559C11.4184 72.8541 11.5803 73.3778 11.6612 73.617C15.0961 84.0935 16.6048 87.6267 20.5156 91.8774C21.9336 93.4226 24.0897 94.124 24.7825 94.3632C27.3206 95.2554 29.5577 95.0938 31.0502 95.1099H31.3092C32.8016 95.0938 35.0419 95.2619 37.5768 94.3632C38.2696 94.124 40.4225 93.4226 41.8438 91.8774C42.4815 91.1824 43.061 90.5068 43.5855 89.8151C43.9869 89.2979 44.3592 88.7678 44.7154 88.2182C46.7744 85.031 48.2441 81.0905 50.6949 73.617C50.7791 73.3648 50.9539 72.8056 50.983 72.0589H50.9992V72.0654ZM43.3135 79.5357C42.6207 79.5357 41.9279 79.5519 41.2351 79.5357C39.079 79.4808 37.4441 80.4085 36.188 82.1249C34.9254 83.8479 33.6304 85.5449 32.3451 87.2485C32.0538 87.6364 31.4354 87.8626 30.9919 87.7107C30.4512 87.5265 30.0207 87.1838 29.9851 86.5082C29.9397 85.6581 29.9689 84.8047 29.9656 83.9545C29.9656 83.8964 29.9818 83.8414 29.9883 83.7832C29.5771 83.4309 29.085 83.1949 28.6512 82.8749C28.5671 82.8135 28.4894 82.7521 28.4408 82.6551C28.4149 82.6486 28.3858 82.6389 28.3599 82.6357C28.1041 82.5226 27.8742 82.3739 27.7156 82.1379C27.6994 82.1217 27.6832 82.112 27.6638 82.0959C27.1135 81.7855 26.6893 81.3265 26.2555 80.8837C25.5854 80.1919 25.1062 79.3773 24.7339 78.4916C24.4199 78.6371 24.1091 78.7955 23.7918 78.9312C23.3257 79.1316 22.8465 79.2803 22.348 79.3902C21.0206 79.6909 19.6803 79.484 18.3465 79.5519C18.0227 79.568 17.5695 79.1607 17.4983 78.8924C17.3882 78.469 17.563 78.0423 17.8997 77.8289C18.1004 77.7029 18.3012 77.6544 18.5375 77.6544C19.3145 77.6673 20.0947 77.6609 20.8782 77.6544C22.1019 77.6479 23.1929 77.2568 24.1739 76.5327C24.2192 76.4971 24.2678 76.4681 24.3131 76.4357C24.2354 75.424 24.6012 74.5867 25.375 73.9435C25.7893 73.6008 26.275 73.3745 26.8318 73.3551C27.5602 72.3919 28.2854 71.4221 29.0203 70.4653C29.2761 70.1323 29.493 69.7671 29.9074 69.5699C30.5937 69.2466 31.3318 69.586 31.6556 70.1614C31.7753 70.378 31.8174 70.5946 31.8174 70.837C31.8174 72.1236 31.8207 73.4166 31.8239 74.7031C31.8951 74.6805 31.9631 74.6772 32.0182 74.6061C32.4099 74.1083 32.902 73.714 33.4847 73.4844C34.0577 73.2614 34.6567 73.1483 35.2847 73.3584C35.6797 73.4941 36.0585 73.6364 36.3887 73.9047C36.9876 74.3863 37.3178 75.0102 37.4667 75.7634C37.5833 76.3775 37.4991 76.9723 37.3858 77.5639C37.334 77.8257 37.2822 78.1166 37.1268 78.3558C37.0426 78.4819 37.0685 78.6306 37.0653 78.7696C37.0265 78.8439 36.9714 78.8698 36.9067 78.8827C36.9714 78.8698 37.0297 78.8439 37.0653 78.7696C37.716 78.3785 38.4088 78.0746 39.1502 77.9033C39.665 77.7837 40.1894 77.6738 40.7236 77.6705C41.5783 77.6673 42.4362 77.6673 43.2876 77.6705C43.8315 77.6705 44.2459 78.0843 44.2459 78.6144C44.2459 79.1446 43.8445 79.526 43.3006 79.526L43.3135 79.5325V79.5357Z" fill="#003380"/>
<path d="M32.5069 95.6014C32.3256 95.6014 32.154 95.6014 31.9857 95.6014C31.7494 95.6014 31.5227 95.5982 31.3123 95.6014H31.0468C30.8332 95.6014 30.613 95.6014 30.3767 95.6014C28.9037 95.6111 26.8803 95.6208 24.6173 94.8288L24.5364 94.7997C23.7335 94.525 21.6 93.7912 20.1529 92.2137C16.1935 87.908 14.6849 84.4169 11.1949 73.7755C11.0233 73.2648 10.9197 72.7314 10.8874 72.1884C10.8809 72.0009 10.8744 71.7649 10.8874 71.5257C10.9651 70.1874 11.5187 68.8459 12.4802 67.6467C14.0892 65.6457 16.5626 64.4917 19.2658 64.4788L42.8764 64.3818H42.9217C45.6541 64.3818 48.1696 65.5358 49.8304 67.5529C50.6689 68.5776 51.1901 69.667 51.3876 70.7919C51.4167 70.9503 51.4362 71.1152 51.4556 71.2768C51.4685 71.4707 51.4815 71.6485 51.4815 71.8295V72.6829L51.4135 72.6668C51.3617 73.0417 51.2743 73.4135 51.1513 73.7755C48.6779 81.3202 47.2178 85.238 45.1199 88.4834C44.7347 89.075 44.3559 89.6083 43.9642 90.1126C43.4591 90.7753 42.8796 91.4606 42.1965 92.2073C40.7429 93.788 38.6127 94.5185 37.8098 94.7965L37.7289 94.8256C35.7346 95.5303 33.9184 95.6014 32.5037 95.6014H32.5069ZM31.5454 94.6284C31.6878 94.6284 31.8368 94.6284 31.9922 94.6284C33.3972 94.6381 35.3202 94.6511 37.4116 93.9108L37.4958 93.8817C38.2339 93.6264 40.1958 92.954 41.4843 91.5543C42.148 90.8302 42.708 90.1676 43.1969 89.5243C43.5757 89.0362 43.9383 88.5255 44.3073 87.9565C46.3469 84.7984 47.7843 80.9355 50.2318 73.4684C50.3905 73.0062 50.4779 72.5278 50.4941 72.0429L50.507 71.6938C50.5038 71.5806 50.4941 71.4707 50.4876 71.3608C50.4746 71.238 50.4585 71.099 50.4326 70.96C50.2674 69.9967 49.811 69.056 49.0825 68.1671C47.5998 66.3666 45.3498 65.3387 42.8829 65.3484L19.2723 65.4453C16.8993 65.4583 14.6428 66.5056 13.2377 68.2512C12.3895 69.3049 11.9233 70.4234 11.8553 71.5774C11.8424 71.7746 11.8489 71.9782 11.8553 72.1366C11.8812 72.5827 11.9654 73.0288 12.1111 73.462C15.5493 83.9514 17.0255 87.3811 20.8619 91.5511C22.1439 92.9508 24.109 93.6231 24.8472 93.8785L24.9313 93.9076C27.0324 94.6478 28.9587 94.6349 30.3637 94.6284C30.6065 94.6284 30.8332 94.6284 31.0436 94.6284H31.2993C31.377 94.6284 31.4547 94.6284 31.5357 94.6284H31.5454ZM31.2896 88.2475C31.1342 88.2475 30.9788 88.2248 30.8396 88.1763C29.7875 87.8143 29.5317 87.087 29.5058 86.5407C29.4734 85.9394 29.4767 85.335 29.4832 84.7467C29.4832 84.501 29.4864 84.2521 29.4864 84.0064C29.3245 83.89 29.1529 83.7801 28.9716 83.667C28.7742 83.5441 28.5702 83.4181 28.3727 83.2694C28.3177 83.2306 28.2303 83.1659 28.1493 83.0722C27.8159 82.9235 27.5634 82.7296 27.3788 82.4871C26.8414 82.1703 26.4238 81.7436 26.0223 81.3299L25.922 81.2264C25.3651 80.6511 24.899 79.969 24.5072 79.1479C24.3389 79.2288 24.1673 79.3096 23.9957 79.3807C23.5328 79.5811 23.031 79.7427 22.4676 79.8688C21.5515 80.0757 20.6417 80.0563 19.7612 80.0369C19.2852 80.0272 18.8385 80.0175 18.3852 80.0401C17.8057 80.0595 17.1647 79.5003 17.0417 79.0154C16.8831 78.3948 17.1291 77.7547 17.6568 77.4218C17.9255 77.2537 18.2104 77.1729 18.5536 77.1729C19.3629 77.1858 20.1529 77.1793 20.8878 77.1729C21.9626 77.1664 22.9241 76.8464 23.8338 76.1967C23.8306 75.1623 24.2579 74.2604 25.0802 73.5751C25.5464 73.1904 26.0515 72.9609 26.5921 72.893L27.1522 72.1496C27.6508 71.4901 28.1493 70.8275 28.6511 70.1713C28.69 70.1195 28.7321 70.0646 28.7709 70.0129C29.0008 69.7025 29.2598 69.3502 29.7162 69.1336C30.6745 68.6778 31.6781 69.1789 32.0958 69.9256C32.2479 70.2004 32.3191 70.4913 32.3191 70.8372C32.3191 71.7649 32.3191 72.6926 32.3224 73.6203C32.6299 73.3714 32.9634 73.1743 33.326 73.0353C34.1224 72.7249 34.799 72.6797 35.4562 72.8995C35.8803 73.045 36.3206 73.2098 36.7123 73.5266C37.3728 74.06 37.7807 74.7614 37.9587 75.6698C38.0947 76.3906 37.9879 77.0727 37.8778 77.6545C37.8681 77.7127 37.8551 77.7709 37.8422 77.8323C38.2469 77.6578 38.6515 77.5252 39.053 77.4315C39.5516 77.3151 40.1343 77.1923 40.73 77.189C41.5879 77.1858 42.4458 77.1858 43.3005 77.189C44.1066 77.189 44.7411 77.8161 44.7411 78.6178C44.7411 79.0089 44.5825 79.3581 44.3268 79.6102L44.9516 80.0143L43.3232 80.0207C43.0933 80.0207 42.8634 80.0207 42.6336 80.024C42.1674 80.0272 41.7012 80.0304 41.2318 80.0207C39.3152 79.9658 37.8001 80.7545 36.5893 82.4128C35.5889 83.7801 34.553 85.1507 33.5494 86.476L32.7432 87.546C32.4163 87.9792 31.8335 88.2475 31.2961 88.2475H31.2896ZM28.8875 82.4483C28.8875 82.4483 28.9069 82.4613 28.9425 82.4871C29.1141 82.6132 29.2921 82.7263 29.4832 82.8427C29.7583 83.014 30.0465 83.1918 30.3119 83.4181L30.5127 83.5894L30.477 83.848C30.4738 83.8771 30.4673 83.903 30.4641 83.9321L30.4576 83.9676C30.4576 84.2198 30.4576 84.4848 30.4576 84.7531C30.4544 85.3253 30.4479 85.9136 30.4803 86.4857C30.4932 86.7702 30.5871 87.0611 31.1601 87.2551C31.39 87.3327 31.7979 87.184 31.9663 86.9577L32.7756 85.8877C33.776 84.5656 34.8087 83.1983 35.8058 81.8374C37.1979 79.9334 39.0336 79.0089 41.2577 79.051C41.4034 79.0542 41.549 79.0574 41.6947 79.0574L41.6721 79.0445H43.3134C43.5854 79.0445 43.7732 78.8699 43.7732 78.6178C43.7732 78.3527 43.5757 78.1588 43.3005 78.1588C42.4491 78.1556 41.5944 78.1556 40.7397 78.1588C40.2444 78.162 39.7426 78.2687 39.2764 78.3786C38.6548 78.5208 38.0462 78.7697 37.4181 79.1382C37.3372 79.232 37.2109 79.3257 37.0199 79.3613L36.9163 78.7665L36.6087 78.7568V78.6889C36.6055 78.5499 36.599 78.314 36.7512 78.0877C36.8483 77.9358 36.8936 77.7062 36.9357 77.4864C37.0361 76.9595 37.1235 76.4068 37.0199 75.854C36.8871 75.172 36.599 74.6709 36.1166 74.283C35.8479 74.0664 35.5242 73.9436 35.1584 73.8208C34.7278 73.6785 34.2745 73.7141 33.6918 73.9404C33.2094 74.1279 32.7853 74.4543 32.4292 74.9101C32.2868 75.0911 32.1119 75.1396 32.0245 75.1623L31.39 75.3724L31.3673 74.7097C31.3641 73.4232 31.3609 72.1302 31.3609 70.8436C31.3609 70.6626 31.3317 70.5301 31.2605 70.404C31.063 70.0484 30.5904 69.8028 30.1468 70.0161C29.9105 70.1292 29.7519 70.3426 29.5673 70.5947C29.5252 70.6529 29.4799 70.7111 29.4378 70.7693C28.936 71.4222 28.4407 72.0817 27.9421 72.7411L27.1101 73.8434L26.8803 73.8499C26.4659 73.8628 26.0871 74.0212 25.718 74.325C25.0576 74.8778 24.7662 75.5566 24.831 76.4068L24.8536 76.6912L24.6173 76.8496C24.5784 76.8755 24.5396 76.9013 24.5007 76.9304C23.4162 77.7321 22.2119 78.1394 20.9169 78.1491C20.1755 78.1556 19.3791 78.162 18.5665 78.1491C18.4144 78.1491 18.3075 78.1782 18.1942 78.2461C18.0259 78.3527 17.9482 78.5661 18.0032 78.7794C18.0421 78.8732 18.2687 79.0639 18.3691 79.0768C18.845 79.051 19.3338 79.0639 19.8032 79.0736C20.6612 79.0898 21.4738 79.1092 22.2734 78.9281C22.7784 78.815 23.222 78.6728 23.6331 78.495C23.8435 78.4045 24.0475 78.3075 24.2482 78.2105C24.3518 78.1588 24.4554 78.1103 24.559 78.0618L25.0187 77.8452L25.213 78.3107C25.5982 79.2288 26.0644 79.9625 26.6375 80.5541L26.7378 80.6575C27.1231 81.0551 27.4889 81.4301 27.9357 81.6822L28.0004 81.7275C28.0393 81.7598 28.0652 81.7824 28.0943 81.8083L28.1493 81.8762C28.2303 81.999 28.3565 82.096 28.5411 82.1833C28.5572 82.1865 28.5767 82.193 28.5961 82.1962L28.8065 82.2544L28.9101 82.4548L28.8875 82.4483ZM36.6476 78.5467L36.8807 78.6695L36.8354 78.4077C36.8354 78.4077 36.8062 78.4142 36.79 78.4206C36.7382 78.4433 36.6832 78.4853 36.6476 78.5467Z" fill="#003380"/>
<path d="M29.914 74.8033C29.914 74.8389 29.914 74.8745 29.9107 74.9035C29.9107 74.868 29.9107 74.8324 29.914 74.8033C29.9205 74.7872 29.9366 74.7678 29.9366 74.7516C29.9431 74.0566 29.9496 73.3616 29.9561 72.6634C29.9561 72.4727 29.8201 72.5277 29.7165 72.5212C29.7165 72.5923 29.7003 72.657 29.6518 72.7054C29.5287 72.8509 29.4543 73.0384 29.3021 73.1612C29.2374 73.3035 29.1661 73.4425 29.0205 73.5136C29.001 73.5912 28.9557 73.6364 28.8748 73.6493C28.8586 73.7366 28.8489 73.8271 28.8327 73.9176C28.8942 73.9241 28.933 73.9597 28.9589 74.0146C28.8456 74.2053 28.7388 74.396 28.6255 74.59C28.7388 74.3993 28.8456 74.2086 28.9589 74.0178C29.069 74.0437 29.1629 74.0922 29.2018 74.2118C29.2276 74.2183 29.2536 74.2247 29.2795 74.2312C29.3798 74.2861 29.4575 74.3573 29.5125 74.4607C29.6679 74.5544 29.6971 74.7936 29.9205 74.813V74.8066L29.914 74.8033Z" fill="#003380"/>
<path d="M38.0074 18.4706V16.1238C38.0074 15.1605 37.224 14.3782 36.256 14.3782H30.652V4.66128C31.5228 4.29277 32.1347 3.43293 32.1347 2.42761C32.1347 1.08612 31.0469 0 29.7034 0C28.3599 0 27.2721 1.08612 27.2721 2.42761C27.2721 3.43293 27.884 4.29601 28.7548 4.66128V14.3782H23.1509C22.1861 14.3782 21.3994 15.1605 21.3994 16.1238V18.4706C9.38854 19.9446 0 30.2272 0 42.6012V49.6998C0 57.2187 6.16083 63.3669 13.6943 63.3669H45.7125C53.2784 63.3669 59.4068 57.2477 59.4068 49.6998V42.6012C59.4068 30.2304 50.0183 19.9446 38.0042 18.4738L38.0074 18.4706ZM49.4873 45.0806C48.7104 45.462 47.8362 45.6657 46.9557 45.6657H11.2986C10.4116 45.6657 9.5407 45.4653 8.76696 45.0806C6.85687 44.1367 5.78205 42.236 6.04752 40.2835L6.06694 40.1413C6.9799 33.5308 12.9821 28.4493 20.3311 28.0711C23.4422 27.9095 26.7055 27.8287 30.1146 27.8481C32.7822 27.8642 35.3624 27.9418 37.8455 28.0679C45.2269 28.4461 51.2712 33.5082 52.1873 40.1413C52.1938 40.1866 52.2003 40.2383 52.2068 40.2835C52.4787 42.236 51.3974 44.1367 49.4873 45.0806Z" fill="#003380"/>
</svg>
