<svg width="280" height="18" viewBox="0 0 280 18" fill="none" xmlns="http://www.w3.org/2000/svg">
<path d="M0.261189 14.0278L0.260389 5.56785L1.80839 5.5677L1.80872 9.0957L6.14072 9.09529L6.14039 5.56729L7.68839 5.56715L7.68919 14.0271L6.14119 14.0273L6.14084 10.3793L1.80884 10.3797L1.80919 14.0277L0.261189 14.0278ZM11.7742 14.1468C11.2462 14.1468 10.7822 14.0229 10.3821 13.7749C9.98211 13.5189 9.67008 13.155 9.44603 12.683C9.22199 12.211 9.10993 11.647 9.10987 10.991C9.10981 10.335 9.22176 9.775 9.44571 9.31098C9.66967 8.83896 9.98163 8.47893 10.3816 8.23089C10.7816 7.97485 11.2456 7.84681 11.7736 7.84676C12.2856 7.84671 12.7336 7.97467 13.1176 8.23063C13.5096 8.4786 13.7697 8.81457 13.8977 9.23856L13.7657 9.23857L13.8976 7.96656L15.3376 7.96642C15.3136 8.21443 15.2896 8.46643 15.2657 8.72243C15.2497 8.97843 15.2417 9.23043 15.2417 9.47843L15.2422 14.0264L13.7542 14.0266L13.742 12.7786L13.886 12.7786C13.7581 13.1946 13.4981 13.5266 13.1061 13.7746C12.7142 14.0227 12.2702 14.1467 11.7742 14.1468ZM12.1941 12.9947C12.6661 12.9947 13.046 12.8306 13.334 12.5026C13.622 12.1666 13.7659 11.6626 13.7659 10.9906C13.7658 10.3186 13.6218 9.81859 13.3337 9.49061C13.0457 9.16264 12.6657 8.99868 12.1937 8.99872C11.7217 8.99877 11.3417 9.1628 11.0537 9.49083C10.7658 9.81886 10.6218 10.3189 10.6219 10.9909C10.6219 11.6629 10.762 12.1669 11.042 12.5028C11.33 12.8308 11.7141 12.9948 12.1941 12.9947ZM16.6356 14.0263L16.6355 13.0423L20.4271 8.73394L20.4271 9.09394L16.6351 9.0943L16.635 7.9663L21.783 7.96581L21.7831 8.94981L17.9555 13.2942L17.9435 12.8982L21.9155 12.8978L21.9156 14.0258L16.6356 14.0263ZM29.269 14.1451C28.645 14.1452 28.0969 14.0172 27.6249 13.7613C27.1609 13.5053 26.8009 13.1413 26.5448 12.6694C26.2888 12.1894 26.1607 11.6214 26.1606 10.9654C26.1606 10.3094 26.2885 9.74939 26.5445 9.28536C26.8084 8.82134 27.1724 8.4653 27.6364 8.21726C28.1004 7.96922 28.6444 7.84516 29.2684 7.84511C29.6684 7.84507 30.0564 7.90903 30.4324 8.037C30.8164 8.15696 31.1284 8.33293 31.3684 8.56491L30.9125 9.60895C30.6965 9.40897 30.4525 9.26099 30.1805 9.16502C29.9165 9.06104 29.6565 9.00907 29.4005 9.00909C28.8645 9.00914 28.4445 9.17718 28.1405 9.51321C27.8445 9.84924 27.6966 10.3373 27.6967 10.9773C27.6967 11.6173 27.8448 12.1092 28.1408 12.4532C28.4448 12.7972 28.8648 12.9691 29.4008 12.9691C29.6488 12.9691 29.9048 12.921 30.1688 12.825C30.4408 12.729 30.6888 12.581 30.9128 12.381L31.3689 13.4129C31.1209 13.6449 30.8049 13.825 30.4209 13.953C30.0449 14.081 29.661 14.1451 29.269 14.1451ZM32.5318 14.0248L32.531 5.1928L34.031 5.19265L34.0318 14.0247L32.5318 14.0248ZM35.6607 14.0245L35.6601 7.9645L37.1601 7.96436L37.1607 14.0244L35.6607 14.0245ZM35.576 6.82451L35.5759 5.36051L37.2439 5.36035L37.244 6.82435L35.576 6.82451ZM41.5736 14.1439C40.9496 14.144 40.4016 14.0161 39.9296 13.7601C39.4656 13.5041 39.1055 13.1402 38.8495 12.6682C38.5935 12.1882 38.4654 11.6202 38.4653 10.9642C38.4653 10.3082 38.5932 9.74822 38.8492 9.2842C39.1131 8.82017 39.4771 8.46414 39.9411 8.2161C40.4051 7.96805 40.949 7.844 41.573 7.84394C41.973 7.8439 42.361 7.90787 42.7371 8.03583C43.1211 8.1558 43.4331 8.33177 43.6731 8.56374L43.2172 9.60779C43.0012 9.40781 42.7572 9.25983 42.4852 9.16386C42.2212 9.05988 41.9612 9.00791 41.7052 9.00793C41.1692 9.00798 40.7492 9.17602 40.4452 9.51205C40.1492 9.84808 40.0013 10.3361 40.0013 10.9761C40.0014 11.6161 40.1494 12.1081 40.4455 12.452C40.7495 12.796 41.1695 12.968 41.7055 12.9679C41.9535 12.9679 42.2095 12.9199 42.4735 12.8239C42.7455 12.7278 42.9935 12.5798 43.2175 12.3798L43.6736 13.4117C43.4256 13.6438 43.1096 13.8238 42.7256 13.9518C42.3496 14.0799 41.9656 14.1439 41.5736 14.1439ZM48.1297 16.6153L48.129 9.47532C48.129 9.22732 48.121 8.97532 48.105 8.71932C48.0889 8.46333 48.0649 8.21133 48.0329 7.96333L49.4849 7.96319L49.617 9.23518L49.485 9.23519C49.605 8.81118 49.8569 8.47516 50.2409 8.22712C50.6329 7.97108 51.0849 7.84304 51.5969 7.84299C52.1329 7.84294 52.6009 7.9709 53.0009 8.22686C53.4009 8.47482 53.713 8.83479 53.937 9.30677C54.1611 9.77075 54.2731 10.3307 54.2732 10.9867C54.2732 11.6427 54.1613 12.2068 53.9373 12.6788C53.7134 13.1508 53.4014 13.5148 53.0014 13.7709C52.6015 14.0189 52.1335 14.1429 51.5975 14.143C51.0935 14.143 50.6495 14.0191 50.2654 13.7711C49.8814 13.5232 49.6254 13.1912 49.4974 12.7752L49.6294 12.7752L49.6297 16.6152L48.1297 16.6153ZM51.1774 12.991C51.6574 12.991 52.0414 12.827 52.3293 12.4989C52.6173 12.1629 52.7612 11.6589 52.7612 10.9869C52.7611 10.3149 52.6171 9.8149 52.329 9.48692C52.041 9.15895 51.657 8.99499 51.177 8.99503C50.705 8.99508 50.325 9.15911 50.037 9.48714C49.7491 9.81517 49.6051 10.3152 49.6052 10.9872C49.6052 11.6592 49.7493 12.1632 50.0373 12.4991C50.3254 12.8271 50.7054 12.9911 51.1774 12.991ZM57.9109 14.1424C57.3829 14.1424 56.9189 14.0185 56.5189 13.7705C56.1188 13.5146 55.8068 13.1506 55.5827 12.6786C55.3587 12.2066 55.2467 11.6426 55.2466 10.9866C55.2465 10.3306 55.3585 9.77064 55.5824 9.30662C55.8064 8.8346 56.1184 8.47457 56.5183 8.22653C56.9183 7.97049 57.3823 7.84245 57.9103 7.8424C58.4223 7.84235 58.8703 7.97031 59.2543 8.22627C59.6464 8.47423 59.9064 8.81021 60.0344 9.2342L59.9024 9.23421L60.0343 7.9622L61.4743 7.96206C61.4503 8.21006 61.4264 8.46206 61.4024 8.71807C61.3864 8.97407 61.3784 9.22607 61.3784 9.47407L61.3789 14.0221L59.8909 14.0222L59.8788 12.7742L60.0228 12.7742C59.8948 13.1902 59.6348 13.5222 59.2429 13.7703C58.8509 14.0183 58.4069 14.1424 57.9109 14.1424ZM58.3308 12.9904C58.8028 12.9903 59.1828 12.8263 59.4707 12.4982C59.7587 12.1622 59.9027 11.6582 59.9026 10.9862C59.9025 10.3142 59.7585 9.81422 59.4704 9.48625C59.1824 9.15828 58.8024 8.99431 58.3304 8.99436C57.8584 8.9944 57.4784 9.15844 57.1904 9.48646C56.9025 9.81449 56.7585 10.3145 56.7586 10.9865C56.7587 11.6585 56.8987 12.1625 57.1787 12.4985C57.4668 12.8264 57.8508 12.9904 58.3308 12.9904ZM63.0003 14.0219L62.9999 9.50992C62.9998 9.25392 62.9918 8.99392 62.9758 8.72992C62.9678 8.46592 62.9477 8.20992 62.9157 7.96192L64.3677 7.96179L64.5359 9.61777L64.2959 9.61779C64.3758 9.21779 64.5078 8.88577 64.6918 8.62176C64.8837 8.35774 65.1157 8.16172 65.3877 8.03369C65.6597 7.90566 65.9557 7.84164 66.2757 7.84161C66.4197 7.84159 66.5357 7.84958 66.6237 7.86557C66.7117 7.87356 66.7997 7.89356 66.8877 7.92555L66.8758 9.24555C66.7238 9.18156 66.5918 9.14158 66.4798 9.12559C66.3758 9.1096 66.2438 9.10161 66.0838 9.10162C65.7398 9.10166 65.4478 9.17368 65.2078 9.31771C64.9759 9.46173 64.7999 9.66175 64.6799 9.91776C64.5679 10.1738 64.5119 10.4658 64.512 10.7938L64.5123 14.0218L63.0003 14.0219ZM70.0046 14.1413C69.4766 14.1413 69.0126 14.0173 68.6126 13.7694C68.2126 13.5134 67.9005 13.1495 67.6765 12.6775C67.4525 12.2055 67.3404 11.6415 67.3403 10.9855C67.3403 10.3295 67.4522 9.76949 67.6762 9.30547C67.9001 8.83345 68.2121 8.47342 68.6121 8.22538C69.0121 7.96935 69.476 7.8413 70.004 7.84125C70.516 7.8412 70.9641 7.96916 71.3481 8.22513C71.7401 8.47309 72.0001 8.80906 72.1282 9.23305L71.9962 9.23306L72.1281 7.96105L73.5681 7.96092C73.5441 8.20892 73.5201 8.46092 73.4961 8.71692C73.4801 8.97292 73.4722 9.22493 73.4722 9.47293L73.4726 14.0209L71.9846 14.0211L71.9725 12.7731L72.1165 12.7731C71.9885 13.1891 71.7286 13.5211 71.3366 13.7691C70.9446 14.0172 70.5006 14.1412 70.0046 14.1413ZM70.4245 12.9892C70.8965 12.9892 71.2765 12.8251 71.5645 12.4971C71.8525 12.1611 71.9964 11.6571 71.9963 10.9851C71.9963 10.3131 71.8522 9.81308 71.5642 9.48511C71.2762 9.15713 70.8962 8.99317 70.4242 8.99321C69.9522 8.99326 69.5722 9.15729 69.2842 9.48532C68.9962 9.81335 68.8523 10.3134 68.8523 10.9854C68.8524 11.6574 68.9925 12.1613 69.2725 12.4973C69.5605 12.8253 69.9445 12.9893 70.4245 12.9892ZM78.399 14.0205L78.3984 7.96046L79.8984 7.96032L79.899 14.0203L78.399 14.0205ZM78.3143 6.82047L78.3142 5.35647L79.9822 5.35631L79.9823 6.82031L78.3143 6.82047ZM81.5279 14.0202L81.5275 9.47216C81.5275 9.22416 81.5194 8.97216 81.5034 8.71617C81.4874 8.46017 81.4634 8.20817 81.4313 7.96017L82.8833 7.96004L83.0034 9.16002L82.8594 9.16004C83.0514 8.73602 83.3354 8.41199 83.7114 8.18796C84.0873 7.95592 84.5233 7.83988 85.0193 7.83983C85.7313 7.83977 86.2673 8.03971 86.6274 8.43968C86.9874 8.83965 87.1675 9.46363 87.1676 10.3116L87.1679 14.0196L85.6679 14.0198L85.6676 10.3838C85.6675 9.89577 85.5715 9.54778 85.3795 9.3398C85.1954 9.12382 84.9154 9.01584 84.5394 9.01588C84.0754 9.01592 83.7074 9.15996 83.4355 9.44798C83.1635 9.73601 83.0275 10.12 83.0276 10.6L83.0279 14.02L81.5279 14.0202ZM91.5666 16.7072C91.0066 16.7073 90.4986 16.6473 90.0426 16.5274C89.5946 16.4074 89.1946 16.2234 88.8426 15.9755L89.1665 14.8954C89.3985 15.0474 89.6385 15.1714 89.8865 15.2674C90.1345 15.3633 90.3905 15.4353 90.6545 15.4833C90.9185 15.5313 91.1865 15.5553 91.4585 15.5552C92.0185 15.5552 92.4345 15.4151 92.7065 15.1351C92.9865 14.8631 93.1264 14.4711 93.1264 13.9591L93.1262 12.5071L93.2462 12.5071C93.1183 12.9231 92.8583 13.2551 92.4663 13.5031C92.0824 13.7512 91.6384 13.8752 91.1344 13.8753C90.5904 13.8753 90.1144 13.7554 89.7063 13.5154C89.3063 13.2674 88.9943 12.9155 88.7702 12.4595C88.5462 12.0035 88.4341 11.4675 88.4341 10.8515C88.434 10.2355 88.546 9.7035 88.7699 9.25548C88.9939 8.79946 89.3058 8.45143 89.7058 8.21139C90.1138 7.96335 90.5898 7.83931 91.1338 7.83925C91.6458 7.83921 92.0898 7.96316 92.4658 8.21113C92.8498 8.45109 93.1059 8.77907 93.2339 9.19506L93.1259 9.12307L93.2458 7.95906L94.6978 7.95892C94.6658 8.20692 94.6419 8.45892 94.6259 8.71492C94.6099 8.97093 94.6019 9.22293 94.6019 9.47093L94.6024 13.7789C94.6024 14.7309 94.3425 15.455 93.8226 15.951C93.3106 16.455 92.5586 16.7071 91.5666 16.7072ZM91.5423 12.7232C92.0223 12.7232 92.4022 12.5631 92.6822 12.2431C92.9702 11.9151 93.1141 11.4511 93.1141 10.8511C93.114 10.2511 92.97 9.79108 92.6819 9.47111C92.4019 9.15113 92.0219 8.99117 91.5419 8.99122C91.0539 8.99126 90.6659 9.1513 90.3779 9.47133C90.09 9.79135 89.946 10.2514 89.9461 10.8514C89.9461 11.4514 90.0902 11.9154 90.3782 12.2433C90.6662 12.5633 91.0543 12.7233 91.5423 12.7232ZM96.2112 14.0188L96.2108 9.50677C96.2108 9.25077 96.2027 8.99078 96.1867 8.72678C96.1787 8.46278 96.1587 8.20678 96.1266 7.95878L97.5786 7.95865L97.7468 9.61463L97.5068 9.61465C97.5868 9.21464 97.7187 8.88263 97.9027 8.61861C98.0947 8.3546 98.3267 8.15857 98.5987 8.03055C98.8706 7.90252 99.1666 7.83849 99.4866 7.83846C99.6306 7.83845 99.7466 7.84644 99.8346 7.86243C99.9226 7.87042 100.011 7.89042 100.099 7.92241L100.087 9.24241C99.9348 9.17842 99.8028 9.13843 99.6908 9.12245C99.5868 9.10646 99.4548 9.09847 99.2948 9.09848C98.9508 9.09852 98.6588 9.17054 98.4188 9.31457C98.1868 9.45859 98.0108 9.6586 97.8908 9.91462C97.7789 10.1706 97.7229 10.4626 97.7229 10.7906L97.7232 14.0186L96.2112 14.0188ZM103.768 14.1381C102.752 14.1382 101.956 13.8582 101.38 13.2983C100.804 12.7383 100.516 11.9704 100.516 10.9944C100.516 10.3624 100.64 9.81036 100.888 9.33833C101.136 8.86631 101.48 8.49828 101.92 8.23423C102.368 7.97019 102.888 7.83814 103.48 7.83809C104.064 7.83803 104.552 7.96199 104.944 8.20995C105.336 8.45791 105.632 8.80588 105.832 9.25386C106.04 9.70184 106.144 10.2258 106.144 10.8258L106.144 11.2218L101.728 11.2223L101.728 10.4303L105.076 10.4299L104.872 10.598C104.872 10.038 104.752 9.60997 104.512 9.31399C104.28 9.01801 103.94 8.87004 103.492 8.87009C102.996 8.87013 102.612 9.04617 102.34 9.39819C102.076 9.75022 101.944 10.2422 101.944 10.8742L101.944 11.0302C101.944 11.6862 102.104 12.1782 102.424 12.5062C102.752 12.8262 103.212 12.9861 103.804 12.9861C104.148 12.986 104.468 12.942 104.764 12.854C105.068 12.7579 105.356 12.6059 105.628 12.3979L106.072 13.4058C105.784 13.6379 105.44 13.8179 105.04 13.9459C104.64 14.074 104.216 14.138 103.768 14.1381ZM109.575 14.1375C109.055 14.1376 108.575 14.0776 108.135 13.9576C107.703 13.8297 107.339 13.6537 107.043 13.4298L107.462 12.4217C107.766 12.6297 108.103 12.7897 108.471 12.9016C108.839 13.0136 109.211 13.0695 109.587 13.0695C109.987 13.0695 110.283 13.0014 110.475 12.8654C110.675 12.7294 110.774 12.5454 110.774 12.3134C110.774 12.1294 110.71 11.9854 110.582 11.8814C110.462 11.7694 110.266 11.6854 109.994 11.6295L108.794 11.4016C108.282 11.2896 107.89 11.0977 107.618 10.8257C107.354 10.5537 107.222 10.1977 107.222 9.75773C107.222 9.38173 107.322 9.04972 107.522 8.7617C107.73 8.47368 108.022 8.24966 108.398 8.08962C108.782 7.92159 109.23 7.83754 109.742 7.83749C110.19 7.83745 110.61 7.89741 111.002 8.01738C111.402 8.13734 111.738 8.31731 112.01 8.55728L111.578 9.52932C111.33 9.32934 111.046 9.17337 110.726 9.0614C110.406 8.94943 110.094 8.89346 109.79 8.89349C109.374 8.89353 109.07 8.96956 108.878 9.12158C108.686 9.26559 108.59 9.4536 108.59 9.6856C108.59 9.8616 108.646 10.0096 108.758 10.1296C108.878 10.2416 109.062 10.3256 109.31 10.3815L110.51 10.6094C111.046 10.7134 111.45 10.8973 111.722 11.1613C112.002 11.4173 112.142 11.7693 112.142 12.2173C112.142 12.6173 112.035 12.9613 111.819 13.2493C111.603 13.5373 111.303 13.7573 110.919 13.9094C110.535 14.0614 110.087 14.1375 109.575 14.1375ZM115.766 14.1369C115.238 14.137 114.774 14.013 114.374 13.7651C113.974 13.5091 113.662 13.1451 113.438 12.6731C113.214 12.2012 113.102 11.6372 113.102 10.9812C113.102 10.3252 113.214 9.76517 113.438 9.30115C113.662 8.82912 113.974 8.46909 114.374 8.22106C114.774 7.96502 115.238 7.83697 115.766 7.83692C116.278 7.83688 116.726 7.96483 117.11 8.2208C117.502 8.46876 117.762 8.80474 117.89 9.22872L117.758 9.22874L117.89 7.95672L119.33 7.95659C119.306 8.20459 119.282 8.45659 119.258 8.71259C119.242 8.9686 119.234 9.2206 119.234 9.4686L119.234 14.0166L117.746 14.0167L117.734 12.7687L117.878 12.7687C117.75 13.1847 117.49 13.5168 117.098 13.7648C116.706 14.0128 116.262 14.1369 115.766 14.1369ZM116.186 12.9849C116.658 12.9848 117.038 12.8208 117.326 12.4928C117.614 12.1568 117.758 11.6527 117.758 10.9807C117.758 10.3087 117.614 9.80875 117.326 9.48078C117.038 9.1528 116.658 8.98884 116.186 8.98889C115.714 8.98893 115.334 9.15297 115.046 9.48099C114.758 9.80902 114.614 10.309 114.614 10.981C114.614 11.653 114.754 12.157 115.034 12.493C115.322 12.821 115.706 12.9849 116.186 12.9849ZM120.856 14.0164L120.855 9.50444C120.855 9.24844 120.847 8.98844 120.831 8.72445C120.823 8.46045 120.803 8.20445 120.771 7.95645L122.223 7.95631L122.391 9.6123L122.151 9.61232C122.231 9.21231 122.363 8.8803 122.547 8.61628C122.739 8.35227 122.971 8.15624 123.243 8.02822C123.515 7.90019 123.811 7.83616 124.131 7.83613C124.275 7.83612 124.391 7.84411 124.479 7.8601C124.567 7.86809 124.655 7.88808 124.743 7.92008L124.731 9.24008C124.579 9.17609 124.447 9.1361 124.335 9.12011C124.231 9.10412 124.099 9.09614 123.939 9.09615C123.595 9.09618 123.303 9.16821 123.063 9.31223C122.831 9.45626 122.655 9.65627 122.535 9.91229C122.423 10.1683 122.367 10.4603 122.367 10.7883L122.368 14.0163L120.856 14.0164ZM131.212 14.1355C130.684 14.1355 130.22 14.0116 129.82 13.7636C129.42 13.5076 129.108 13.1437 128.884 12.6717C128.659 12.1997 128.547 11.6357 128.547 10.9797C128.547 10.3237 128.659 9.76371 128.883 9.29968C129.107 8.82766 129.419 8.46763 129.819 8.2196C130.219 7.96356 130.683 7.83551 131.211 7.83546C131.723 7.83542 132.171 7.96337 132.555 8.21934C132.947 8.4673 133.207 8.80328 133.335 9.22726L133.203 9.22728L133.335 7.95526L134.775 7.95513C134.751 8.20313 134.727 8.45513 134.703 8.71113C134.687 8.96714 134.679 9.21914 134.679 9.46714L134.68 14.0151L133.192 14.0153L133.18 12.7673L133.324 12.7673C133.196 13.1833 132.936 13.5153 132.544 13.7633C132.152 14.0114 131.708 14.1354 131.212 14.1355ZM131.632 12.9834C132.104 12.9834 132.484 12.8193 132.772 12.4913C133.059 12.1553 133.203 11.6513 133.203 10.9793C133.203 10.3073 133.059 9.80729 132.771 9.47932C132.483 9.15134 132.103 8.98738 131.631 8.98742C131.159 8.98747 130.779 9.15151 130.491 9.47953C130.203 9.80756 130.059 10.3076 130.059 10.9796C130.059 11.6516 130.199 12.1556 130.48 12.4915C130.768 12.8195 131.152 12.9835 131.632 12.9834ZM139.606 14.0147L139.605 5.18267L141.105 5.18253L141.106 14.0145L139.606 14.0147ZM145.075 14.1342C144.547 14.1342 144.083 14.0102 143.683 13.7623C143.283 13.5063 142.971 13.1424 142.747 12.6704C142.523 12.1984 142.411 11.6344 142.411 10.9784C142.411 10.3224 142.523 9.76239 142.746 9.29837C142.97 8.82635 143.282 8.46632 143.682 8.21828C144.082 7.96225 144.546 7.8342 145.074 7.83415C145.586 7.8341 146.034 7.96206 146.418 8.21803C146.81 8.46599 147.07 8.80196 147.198 9.22595L147.066 9.22596L147.198 7.95395L148.638 7.95382C148.614 8.20182 148.59 8.45382 148.566 8.70982C148.55 8.96582 148.542 9.21783 148.543 9.46583L148.543 14.0138L147.055 14.014L147.043 12.766L147.187 12.766C147.059 13.182 146.799 13.514 146.407 13.762C146.015 14.0101 145.571 14.1341 145.075 14.1342ZM145.495 12.9821C145.967 12.9821 146.347 12.818 146.635 12.49C146.923 12.154 147.067 11.65 147.067 10.978C147.067 10.306 146.923 9.80598 146.635 9.47801C146.346 9.15003 145.966 8.98607 145.494 8.98611C145.022 8.98616 144.642 9.15019 144.355 9.47822C144.067 9.80625 143.923 10.3063 143.923 10.9783C143.923 11.6503 144.063 12.1542 144.343 12.4902C144.631 12.8182 145.015 12.9822 145.495 12.9821ZM153.47 16.6054L153.469 9.46536C153.469 9.21736 153.461 8.96536 153.445 8.70936C153.429 8.45336 153.405 8.20137 153.373 7.95337L154.825 7.95323L154.957 9.22522L154.825 9.22523C154.945 8.80122 155.197 8.4652 155.581 8.21716C155.973 7.96112 156.425 7.83308 156.937 7.83303C157.473 7.83298 157.941 7.96094 158.341 8.2169C158.741 8.46486 159.053 8.82483 159.277 9.29681C159.501 9.76079 159.613 10.3208 159.613 10.9768C159.613 11.6328 159.501 12.1968 159.277 12.6688C159.053 13.1408 158.741 13.5049 158.341 13.7609C157.941 14.0089 157.473 14.133 156.937 14.133C156.433 14.1331 155.989 14.0091 155.605 13.7612C155.221 13.5132 154.965 13.1812 154.837 12.7652L154.969 12.7652L154.97 16.6052L153.47 16.6054ZM156.517 12.9811C156.997 12.981 157.381 12.817 157.669 12.489C157.957 12.1529 158.101 11.6489 158.101 10.9769C158.101 10.3049 157.957 9.80493 157.669 9.47696C157.381 9.14899 156.997 8.98503 156.517 8.98507C156.045 8.98512 155.665 9.14915 155.377 9.47718C155.089 9.80521 154.945 10.3052 154.945 10.9772C154.945 11.6492 155.089 12.1532 155.377 12.4892C155.665 12.8172 156.045 12.9811 156.517 12.9811ZM160.911 14.0127L160.91 5.18066L162.41 5.18051L162.411 14.0125L160.911 14.0127ZM166.38 14.1321C165.852 14.1322 165.388 14.0082 164.988 13.7603C164.588 13.5043 164.276 13.1403 164.051 12.6684C163.827 12.1964 163.715 11.6324 163.715 10.9764C163.715 10.3204 163.827 9.76038 164.051 9.29636C164.275 8.82434 164.587 8.46431 164.987 8.21627C165.387 7.96023 165.851 7.83219 166.379 7.83214C166.891 7.83209 167.339 7.96005 167.723 8.21601C168.115 8.46397 168.375 8.79995 168.503 9.22394L168.371 9.22395L168.503 7.95194L169.943 7.9518C169.919 8.1998 169.895 8.45181 169.871 8.70781C169.855 8.96381 169.847 9.21581 169.847 9.46381L169.848 14.0118L168.36 14.012L168.348 12.764L168.492 12.7639C168.364 13.18 168.104 13.512 167.712 13.76C167.32 14.008 166.876 14.1321 166.38 14.1321ZM166.8 12.9801C167.272 12.9801 167.652 12.816 167.939 12.488C168.227 12.152 168.371 11.6479 168.371 10.9759C168.371 10.3039 168.227 9.80396 167.939 9.47599C167.651 9.14802 167.271 8.98405 166.799 8.9841C166.327 8.98414 165.947 9.14818 165.659 9.47621C165.371 9.80423 165.227 10.3042 165.227 10.9762C165.227 11.6482 165.367 12.1522 165.647 12.4882C165.936 12.8162 166.32 12.9801 166.8 12.9801ZM174.073 14.1314C173.353 14.1315 172.809 13.9435 172.441 13.5676C172.073 13.1916 171.889 12.6276 171.889 11.8756L171.889 9.07962L170.725 9.07973L170.724 7.95173L171.888 7.95162L171.888 6.40362L173.388 6.01948L173.388 7.95148L175.008 7.95132L175.009 9.07932L173.389 9.07948L173.389 11.7795C173.389 12.1955 173.469 12.4875 173.629 12.6555C173.789 12.8234 174.009 12.9074 174.289 12.9074C174.441 12.9074 174.569 12.8954 174.673 12.8714C174.785 12.8473 174.893 12.8153 174.997 12.7753L174.997 13.9633C174.861 14.0193 174.709 14.0594 174.541 14.0834C174.381 14.1154 174.225 14.1314 174.073 14.1314ZM178.368 14.131C177.84 14.1311 177.376 14.0071 176.976 13.7591C176.576 13.5032 176.264 13.1392 176.04 12.6672C175.816 12.1952 175.704 11.6313 175.704 10.9753C175.704 10.3193 175.816 9.75925 176.039 9.29522C176.263 8.8232 176.575 8.46317 176.975 8.21514C177.375 7.9591 177.839 7.83105 178.367 7.831C178.879 7.83096 179.327 7.95891 179.711 8.21488C180.103 8.46284 180.363 8.79882 180.491 9.2228L180.359 9.22282L180.491 7.9508L181.931 7.95067C181.907 8.19867 181.883 8.45067 181.859 8.70667C181.843 8.96268 181.835 9.21468 181.835 9.46268L181.836 14.0107L180.348 14.0108L180.336 12.7628L180.48 12.7628C180.352 13.1788 180.092 13.5108 179.7 13.7589C179.308 14.0069 178.864 14.131 178.368 14.131ZM178.788 12.979C179.26 12.9789 179.64 12.8149 179.928 12.4869C180.216 12.1508 180.36 11.6468 180.36 10.9748C180.36 10.3028 180.216 9.80283 179.927 9.47486C179.639 9.14688 179.259 8.98292 178.787 8.98296C178.315 8.98301 177.935 9.14705 177.647 9.47507C177.36 9.8031 177.216 10.3031 177.216 10.9751C177.216 11.6471 177.356 12.1511 177.636 12.4871C177.924 12.815 178.308 12.979 178.788 12.979ZM183.877 14.0105L183.877 9.07848L182.713 9.07859L182.713 7.95059L184.297 7.95044L183.877 8.33448L183.877 7.41048C183.877 6.65848 184.069 6.09046 184.453 5.70643C184.845 5.32239 185.416 5.13034 186.168 5.13027C186.344 5.13025 186.528 5.14223 186.72 5.16621C186.92 5.1902 187.092 5.23418 187.237 5.29817L187.237 6.47417C187.133 6.43418 187.009 6.40219 186.865 6.3782C186.721 6.35421 186.581 6.34223 186.445 6.34224C186.237 6.34226 186.049 6.38228 185.881 6.46229C185.721 6.54231 185.593 6.66632 185.497 6.83433C185.409 6.99434 185.365 7.21034 185.365 7.48234L185.365 8.21434L185.149 7.95036L186.961 7.95019L186.961 9.07819L185.377 9.07834L185.377 14.0103L183.877 14.0105ZM190.471 14.1299C189.847 14.1299 189.307 14.002 188.851 13.746C188.395 13.4901 188.039 13.1261 187.783 12.6541C187.535 12.1821 187.411 11.6221 187.411 10.9741C187.411 10.3261 187.535 9.77014 187.783 9.30611C188.038 8.83409 188.394 8.47006 188.85 8.21401C189.306 7.95797 189.846 7.82992 190.47 7.82986C191.094 7.8298 191.634 7.95775 192.09 8.21371C192.554 8.46966 192.91 8.83363 193.159 9.30561C193.415 9.76958 193.543 10.3256 193.543 10.9736C193.543 11.6216 193.415 12.1816 193.159 12.6536C192.911 13.1256 192.555 13.4897 192.091 13.7457C191.635 14.0018 191.095 14.1298 190.471 14.1299ZM190.471 12.9779C190.943 12.9778 191.319 12.8138 191.599 12.4858C191.879 12.1497 192.019 11.6457 192.019 10.9737C192.019 10.3017 191.879 9.80173 191.599 9.47375C191.318 9.14578 190.942 8.98182 190.47 8.98186C189.998 8.9819 189.622 9.14594 189.343 9.47397C189.063 9.80199 188.923 10.302 188.923 10.974C188.923 11.646 189.063 12.15 189.343 12.486C189.623 12.8139 189.999 12.9779 190.471 12.9779ZM194.825 14.0094L194.824 9.49745C194.824 9.24145 194.816 8.98145 194.8 8.71745C194.792 8.45345 194.772 8.19745 194.74 7.94946L196.192 7.94932L196.36 9.6053L196.12 9.60533C196.2 9.20532 196.332 8.87331 196.516 8.60929C196.708 8.34527 196.94 8.14925 197.212 8.02122C197.484 7.8932 197.78 7.82917 198.1 7.82914C198.244 7.82912 198.36 7.83711 198.448 7.85311C198.536 7.8611 198.624 7.88109 198.712 7.91308L198.7 9.23308C198.548 9.1691 198.416 9.12911 198.304 9.11312C198.2 9.09713 198.068 9.08914 197.908 9.08916C197.564 9.08919 197.272 9.16122 197.032 9.30524C196.8 9.44926 196.624 9.64928 196.504 9.90529C196.392 10.1613 196.336 10.4533 196.336 10.7813L196.337 14.0093L194.825 14.0094ZM199.547 14.009L199.547 9.461C199.547 9.213 199.539 8.961 199.523 8.705C199.507 8.44901 199.483 8.19701 199.451 7.94901L200.903 7.94887L201.023 9.14886L200.879 9.14888C201.047 8.73286 201.303 8.40884 201.647 8.1768C201.999 7.94477 202.415 7.82873 202.895 7.82868C203.375 7.82864 203.771 7.9446 204.083 8.17657C204.403 8.40054 204.627 8.75252 204.755 9.23251L204.563 9.23253C204.731 8.80051 205.007 8.46049 205.391 8.21245C205.775 7.95641 206.215 7.82837 206.711 7.82832C207.391 7.82826 207.899 8.02821 208.235 8.42818C208.571 8.82815 208.739 9.45213 208.739 10.3001L208.739 14.0081L207.239 14.0083L207.239 10.3603C207.239 9.88027 207.159 9.53628 206.999 9.3283C206.839 9.11231 206.583 9.00434 206.231 9.00437C205.815 9.00441 205.487 9.15244 205.247 9.44846C205.007 9.73649 204.887 10.1285 204.887 10.6245L204.887 14.0085L203.387 14.0086L203.387 10.3606C203.387 9.88064 203.307 9.53665 203.147 9.32866C202.987 9.11268 202.731 9.0047 202.379 9.00473C201.963 9.00477 201.635 9.1528 201.395 9.44883C201.163 9.73685 201.047 10.1289 201.047 10.6249L201.047 14.0089L199.547 14.009ZM212.68 14.1278C212.152 14.1278 211.688 14.0039 211.288 13.7559C210.888 13.4999 210.576 13.136 210.352 12.664C210.128 12.192 210.016 11.628 210.016 10.972C210.016 10.316 210.128 9.756 210.352 9.29198C210.576 8.81996 210.888 8.45993 211.288 8.21189C211.688 7.95585 212.152 7.82781 212.68 7.82776C213.192 7.82771 213.64 7.95567 214.024 8.21163C214.416 8.4596 214.676 8.79557 214.804 9.21956L214.672 9.21957L214.804 7.94756L216.244 7.94742C216.22 8.19542 216.196 8.44743 216.172 8.70343C216.156 8.95943 216.148 9.21143 216.148 9.45943L216.148 14.0074L214.66 14.0076L214.648 12.7596L214.792 12.7596C214.664 13.1756 214.404 13.5076 214.012 13.7556C213.62 14.0037 213.176 14.1277 212.68 14.1278ZM213.1 12.9757C213.572 12.9757 213.952 12.8116 214.24 12.4836C214.528 12.1476 214.672 11.6436 214.672 10.9716C214.672 10.2996 214.528 9.79958 214.24 9.47161C213.952 9.14364 213.572 8.97967 213.1 8.97972C212.628 8.97976 212.248 9.1438 211.96 9.47183C211.672 9.79985 211.528 10.2999 211.528 10.9719C211.528 11.6439 211.668 12.1479 211.948 12.4838C212.236 12.8118 212.62 12.9758 213.1 12.9757Z" fill="#565656"/>
<path d="M247.521 7.52527V3.78451H243.488V7.52464C242.631 15.5843 230.902 15.5843 230.045 7.52464V4.43078C230.045 3.95577 230.242 3.75826 230.718 3.75826H243.432V0H226.673C226.197 0 226 0.196882 226 0.672524V7.52527C226.513 13.0848 231.177 17.3375 236.76 17.3375C242.344 17.3375 247.007 13.0848 247.521 7.52527Z" fill="#FF7D41"/>
<path d="M270.934 3.37511H267.248V14.4649H270.934C273.989 14.4543 276.46 11.9754 276.46 8.92031C276.46 5.8652 273.989 3.38574 270.934 3.37511ZM270.913 13.008H268.721V4.83267H270.913C273.16 4.84017 274.923 6.69773 274.923 8.92031C274.923 11.1429 273.16 13.0005 270.913 13.008Z" fill="#0F1419"/>
<path d="M280 6.38335H278.561V14.4649H280V6.38335Z" fill="#0F1419"/>
<path d="M280 2.9026H278.561V4.51828H280V2.9026Z" fill="#0F1419"/>
<path d="M264.376 2.9026H262.937V4.51828H264.376V2.9026Z" fill="#0F1419"/>
<path d="M264.376 6.38335H262.937V14.4649H264.376V6.38335Z" fill="#0F1419"/>
<path d="M255.311 3.37511H251.625V14.4649H255.311C258.366 14.4543 260.837 11.9754 260.837 8.92031C260.837 5.8652 258.366 3.38574 255.311 3.37511ZM255.29 13.008H253.098V4.83267H255.29C257.536 4.84017 259.3 6.69773 259.3 8.92031C259.3 11.1429 257.536 13.0005 255.29 13.008Z" fill="#0F1419"/>
</svg>