<svg width="280" height="90" viewBox="0 0 280 90" fill="none" xmlns="http://www.w3.org/2000/svg">
<path d="M111.589 39.0199V19.6234H90.6791V39.0166C86.2326 80.8074 25.418 80.8074 20.9748 39.0166V22.9744C20.9748 20.5114 21.9957 19.4873 24.462 19.4873H90.3906V0H3.48716C1.02087 0 0 1.02087 0 3.48716V39.0199C2.66074 67.8473 26.844 89.898 55.7945 89.898C84.7451 89.898 108.925 67.8473 111.589 39.0199Z" fill="#FF7D41"/>
<path d="M232.991 17.5006H213.88V75.0031H232.991C248.832 74.948 261.647 62.0948 261.647 46.2535C261.647 30.4122 248.832 17.5557 232.991 17.5006ZM232.884 67.4486H221.515V25.0583H232.884C244.532 25.0972 253.674 34.729 253.674 46.2535C253.674 57.7779 244.532 67.4098 232.884 67.4486Z" fill="#FF7D41"/>
<path d="M280 33.0988H272.536V75.0031H280V33.0988Z" fill="#FF7D41"/>
<path d="M280 15.0505H272.536V23.4281H280V15.0505Z" fill="#FF7D41"/>
<path d="M198.988 15.0505H191.524V23.4281H198.988V15.0505Z" fill="#FF7D41"/>
<path d="M198.988 33.0988H191.524V75.0031H198.988V33.0988Z" fill="#FF7D41"/>
<path d="M151.983 17.5006H132.872V75.0031H151.983C167.825 74.948 180.636 62.0948 180.636 46.2535C180.636 30.4122 167.825 17.5557 151.983 17.5006ZM151.876 67.4486H140.508V25.0583H151.876C163.521 25.0972 172.667 34.729 172.667 46.2535C172.667 57.7779 163.521 67.4098 151.876 67.4486Z" fill="#FF7D41"/>
</svg>
