<svg width="181" height="58" viewBox="0 0 181 58" fill="none" xmlns="http://www.w3.org/2000/svg">
<path d="M71.9945 25.1747V12.6605H58.5039V25.1726C55.6352 52.135 16.3991 52.135 13.5324 25.1726V14.8225C13.5324 13.2334 14.1911 12.5727 15.7823 12.5727H58.3178V0H2.24983C0.658639 0 0 0.658639 0 2.24983V25.1747C1.71664 43.7734 17.3191 58 35.9973 58C54.6754 58 70.2758 43.7734 71.9945 25.1747Z" fill="white"/>
<path d="M150.32 11.291H137.99V48.3901H150.32C160.541 48.3546 168.808 40.062 168.808 29.8416C168.808 19.6212 160.541 11.3265 150.32 11.291ZM150.251 43.5162H142.916V16.167H150.251C157.766 16.1921 163.665 22.4063 163.665 29.8416C163.665 37.2769 157.766 43.4911 150.251 43.5162Z" fill="white"/>
<path d="M180.649 21.3546H175.834V48.3901H180.649V21.3546Z" fill="white"/>
<path d="M180.649 9.71021H175.834V15.1152H180.649V9.71021Z" fill="white"/>
<path d="M128.383 9.71021H123.567V15.1152H128.383V9.71021Z" fill="white"/>
<path d="M128.383 21.3546H123.567V48.3901H128.383V21.3546Z" fill="white"/>
<path d="M98.0557 11.291H85.7256V48.3901H98.0557C108.276 48.3546 116.542 40.062 116.542 29.8416C116.542 19.6212 108.276 11.3265 98.0557 11.291ZM97.9867 43.5162H90.6518V16.167H97.9867C105.499 16.1921 111.4 22.4063 111.4 29.8416C111.4 37.2769 105.499 43.4911 97.9867 43.5162Z" fill="white"/>
</svg>
