<svg width="173" height="97" viewBox="0 0 173 97" fill="none" xmlns="http://www.w3.org/2000/svg">
<path d="M72 0C73 0 74 1 74 2V8H98V2C98 1 98.875 0 100 0C101 0 102 1 102 2V8H106C110.375 8 114 11.625 114 16V24.125C113.25 24.125 112.625 24 112 24C111.25 24 110.625 24.125 110 24.125V24H62V56C62 58.25 63.75 60 66 60H95C96.25 61.625 97.625 62.875 99.25 64H66C61.5 64 58 60.5 58 56V16C58 11.625 61.5 8 66 8H70V2C70 1 70.875 0 72 0ZM106 12H66C63.75 12 62 13.875 62 16V20H110V16C110 13.875 108.125 12 106 12ZM111.875 36C113 36 113.875 37 113.875 38V44H118C119 44 120 45 120 46C120 47.125 119 48 118 48H111.875C110.875 48 109.875 47.125 109.875 46V38C109.875 37 110.875 36 111.875 36ZM94 46C94 36.125 102 28 112 28C121.875 28 130 36.125 130 46C130 56 121.875 64 112 64C102 64 94 56 94 46ZM112 60C119.625 60 126 53.75 126 46C126 38.375 119.625 32 112 32C104.25 32 98 38.375 98 46C98 53.75 104.25 60 112 60Z" fill="#00AEC7"/>
<path d="M34.7395 88.24H31.1395L30.3795 90H29.3295L32.4995 82.88H33.3695L36.5495 90H35.4995L34.7395 88.24ZM34.3895 87.42L32.9395 84.03L31.4895 87.42H34.3895ZM38.322 83.74H35.912V82.88H41.772V83.74H39.362V90H38.322V83.74ZM42.7255 82.88H47.3455V83.72H43.7455V85.96H47.1455V86.8H43.7455V89.16H47.3455V90H42.7255V82.88ZM54.4737 82.88V90H53.6837L49.6037 84.62V90H48.6337V82.88H49.4137L53.5037 88.27V82.88H54.4737ZM59.2637 90.08C58.577 90.08 57.977 89.9333 57.4637 89.64C56.957 89.34 56.567 88.9167 56.2937 88.37C56.0204 87.8233 55.8837 87.1767 55.8837 86.43C55.8837 85.69 56.0204 85.0467 56.2937 84.5C56.567 83.9533 56.957 83.5333 57.4637 83.24C57.977 82.9467 58.577 82.8 59.2637 82.8C59.7504 82.8 60.2004 82.8767 60.6137 83.03C61.0337 83.1767 61.387 83.3933 61.6737 83.68L61.3137 84.44C60.9804 84.1667 60.6504 83.97 60.3237 83.85C60.0037 83.7233 59.6537 83.66 59.2737 83.66C58.5337 83.66 57.9604 83.9 57.5537 84.38C57.1537 84.86 56.9537 85.5433 56.9537 86.43C56.9537 87.3233 57.1537 88.0133 57.5537 88.5C57.9604 88.98 58.5337 89.22 59.2737 89.22C59.6537 89.22 60.0037 89.16 60.3237 89.04C60.6504 88.9133 60.9804 88.7133 61.3137 88.44L61.6737 89.2C61.387 89.4867 61.0337 89.7067 60.6137 89.86C60.2004 90.0067 59.7504 90.08 59.2637 90.08ZM62.9696 82.88H63.9996V90H62.9696V82.88ZM68.7152 90.08C68.0419 90.08 67.4552 89.9333 66.9552 89.64C66.4619 89.34 66.0785 88.9167 65.8052 88.37C65.5385 87.8233 65.4052 87.18 65.4052 86.44C65.4052 85.6933 65.5385 85.0467 65.8052 84.5C66.0719 83.9533 66.4552 83.5333 66.9552 83.24C67.4552 82.9467 68.0419 82.8 68.7152 82.8C69.3952 82.8 69.9819 82.9467 70.4752 83.24C70.9752 83.5333 71.3585 83.9533 71.6252 84.5C71.8919 85.0467 72.0252 85.69 72.0252 86.43C72.0252 87.1767 71.8919 87.8233 71.6252 88.37C71.3585 88.9167 70.9752 89.34 70.4752 89.64C69.9752 89.9333 69.3885 90.08 68.7152 90.08ZM68.7152 89.24C69.4285 89.24 69.9819 88.9967 70.3752 88.51C70.7752 88.0233 70.9752 87.33 70.9752 86.43C70.9752 85.5367 70.7752 84.85 70.3752 84.37C69.9819 83.8833 69.4285 83.64 68.7152 83.64C68.0019 83.64 67.4485 83.8833 67.0552 84.37C66.6619 84.85 66.4652 85.5367 66.4652 86.43C66.4652 87.33 66.6619 88.0233 67.0552 88.51C67.4552 88.9967 68.0085 89.24 68.7152 89.24ZM68.3752 82.27L69.3952 80.73H70.4352L69.0452 82.27H68.3752ZM79.2882 82.88V90H78.4982L74.4182 84.62V90H73.4482V82.88H74.2282L78.3182 88.27V82.88H79.2882ZM88.2942 88.24H84.6942L83.9342 90H82.8842L86.0542 82.88H86.9242L90.1042 90H89.0542L88.2942 88.24ZM87.9442 87.42L86.4942 84.03L85.0442 87.42H87.9442ZM96.5619 86.22V89.58C96.2619 89.7333 95.8819 89.8567 95.4219 89.95C94.9686 90.0367 94.5052 90.08 94.0319 90.08C93.3119 90.08 92.6886 89.9367 92.1619 89.65C91.6352 89.3567 91.2319 88.9367 90.9519 88.39C90.6786 87.8433 90.5419 87.19 90.5419 86.43C90.5419 85.6833 90.6786 85.0367 90.9519 84.49C91.2319 83.9433 91.6286 83.5267 92.1419 83.24C92.6619 82.9467 93.2719 82.8 93.9719 82.8C94.4719 82.8 94.9319 82.8767 95.3519 83.03C95.7786 83.1767 96.1419 83.39 96.4419 83.67L96.0719 84.44C95.7319 84.16 95.3986 83.96 95.0719 83.84C94.7452 83.72 94.3819 83.66 93.9819 83.66C93.2086 83.66 92.6186 83.8967 92.2119 84.37C91.8119 84.8433 91.6119 85.53 91.6119 86.43C91.6119 87.3567 91.8186 88.06 92.2319 88.54C92.6452 89.0133 93.2552 89.25 94.0619 89.25C94.6019 89.25 95.1219 89.17 95.6219 89.01V87.01H93.9619V86.22H96.5619ZM98.1454 82.88H102.765V83.72H99.1654V85.96H102.565V86.8H99.1654V89.16H102.765V90H98.1454V82.88ZM109.894 82.88V90H109.104L105.024 84.62V90H104.054V82.88H104.834L108.924 88.27V82.88H109.894ZM111.554 82.88H114.044C115.197 82.88 116.09 83.19 116.724 83.81C117.357 84.43 117.674 85.3033 117.674 86.43C117.674 87.5633 117.357 88.4433 116.724 89.07C116.09 89.69 115.197 90 114.044 90H111.554V82.88ZM113.984 89.14C115.737 89.14 116.614 88.2367 116.614 86.43C116.614 84.6367 115.737 83.74 113.984 83.74H112.584V89.14H113.984ZM123.597 88.24H119.997L119.237 90H118.187L121.357 82.88H122.227L125.407 90H124.357L123.597 88.24ZM123.247 87.42L121.797 84.03L120.347 87.42H123.247ZM130.519 86.33C130.932 86.4433 131.252 86.65 131.479 86.95C131.706 87.25 131.819 87.62 131.819 88.06C131.819 88.6733 131.606 89.15 131.179 89.49C130.759 89.83 130.169 90 129.409 90H126.329V82.88H129.309C130.042 82.88 130.612 83.0433 131.019 83.37C131.432 83.6967 131.639 84.1533 131.639 84.74C131.639 85.12 131.539 85.45 131.339 85.73C131.146 86.0033 130.872 86.2033 130.519 86.33ZM127.349 85.97H129.149C130.142 85.97 130.639 85.5867 130.639 84.82C130.639 84.08 130.142 83.71 129.149 83.71H127.349V85.97ZM129.309 89.17C129.829 89.17 130.209 89.0767 130.449 88.89C130.689 88.6967 130.809 88.4 130.809 88C130.809 87.5933 130.686 87.2933 130.439 87.1C130.199 86.9 129.822 86.8 129.309 86.8H127.349V89.17H129.309ZM133.175 82.88H134.205V89.14H137.665V90H133.175V82.88ZM138.692 82.88H143.312V83.72H139.712V85.96H143.112V86.8H139.712V89.16H143.312V90H138.692V82.88Z" fill="#0033A0"/>
</svg>
