<svg width="173" height="98" viewBox="0 0 173 98" fill="none" xmlns="http://www.w3.org/2000/svg">
<path d="M71 0C72 0 73 1 73 2V8H97V2C97 1 97.875 0 99 0C100 0 101 1 101 2V8H105C109.375 8 113 11.625 113 16V24H61V56C61 58.25 62.75 60 65 60H94C95.25 61.625 96.625 62.875 98.25 64H65C60.5 64 57 60.5 57 56V16C57 11.625 60.5 8 65 8H69V2C69 1 69.875 0 71 0ZM105 12H65C62.75 12 61 13.875 61 16V20H109V16C109 13.875 107.125 12 105 12ZM111 36C112 36 113 37 113 38V44H119C120 44 121 45 121 46C121 47.125 120 48 119 48H113V54C113 55.125 112 56 111 56C109.875 56 109 55.125 109 54V48H103C101.875 48 101 47.125 101 46C101 45 101.875 44 103 44H109V38C109 37 109.875 36 111 36ZM93 46C93 36.125 101 28 111 28C120.875 28 129 36.125 129 46C129 56 120.875 64 111 64C101 64 93 56 93 46ZM111 60C118.625 60 125 53.75 125 46C125 38.375 118.625 32 111 32C103.25 32 97 38.375 97 46C97 53.75 103.25 60 111 60Z" fill="#00AEC7"/>
<path d="M38.2209 89.24H34.6209L33.8609 91H32.8109L35.9809 83.88H36.8509L40.0309 91H38.9809L38.2209 89.24ZM37.8709 88.42L36.4209 85.03L34.9709 88.42H37.8709ZM41.8034 84.74H39.3934V83.88H45.2534V84.74H42.8434V91H41.8034V84.74ZM46.207 83.88H50.827V84.72H47.227V86.96H50.627V87.8H47.227V90.16H50.827V91H46.207V83.88ZM57.9552 83.88V91H57.1652L53.0852 85.62V91H52.1152V83.88H52.8952L56.9852 89.27V83.88H57.9552ZM62.7452 91.08C62.0585 91.08 61.4585 90.9333 60.9452 90.64C60.4385 90.34 60.0485 89.9167 59.7752 89.37C59.5018 88.8233 59.3652 88.1767 59.3652 87.43C59.3652 86.69 59.5018 86.0467 59.7752 85.5C60.0485 84.9533 60.4385 84.5333 60.9452 84.24C61.4585 83.9467 62.0585 83.8 62.7452 83.8C63.2318 83.8 63.6818 83.8767 64.0952 84.03C64.5152 84.1767 64.8685 84.3933 65.1552 84.68L64.7952 85.44C64.4618 85.1667 64.1318 84.97 63.8052 84.85C63.4852 84.7233 63.1352 84.66 62.7552 84.66C62.0152 84.66 61.4418 84.9 61.0352 85.38C60.6352 85.86 60.4352 86.5433 60.4352 87.43C60.4352 88.3233 60.6352 89.0133 61.0352 89.5C61.4418 89.98 62.0152 90.22 62.7552 90.22C63.1352 90.22 63.4852 90.16 63.8052 90.04C64.1318 89.9133 64.4618 89.7133 64.7952 89.44L65.1552 90.2C64.8685 90.4867 64.5152 90.7067 64.0952 90.86C63.6818 91.0067 63.2318 91.08 62.7452 91.08ZM66.4511 83.88H67.4811V91H66.4511V83.88ZM72.1966 91.08C71.5233 91.08 70.9366 90.9333 70.4366 90.64C69.9433 90.34 69.56 89.9167 69.2866 89.37C69.02 88.8233 68.8866 88.18 68.8866 87.44C68.8866 86.6933 69.02 86.0467 69.2866 85.5C69.5533 84.9533 69.9366 84.5333 70.4366 84.24C70.9366 83.9467 71.5233 83.8 72.1966 83.8C72.8766 83.8 73.4633 83.9467 73.9566 84.24C74.4566 84.5333 74.84 84.9533 75.1066 85.5C75.3733 86.0467 75.5066 86.69 75.5066 87.43C75.5066 88.1767 75.3733 88.8233 75.1066 89.37C74.84 89.9167 74.4566 90.34 73.9566 90.64C73.4566 90.9333 72.87 91.08 72.1966 91.08ZM72.1966 90.24C72.91 90.24 73.4633 89.9967 73.8566 89.51C74.2566 89.0233 74.4566 88.33 74.4566 87.43C74.4566 86.5367 74.2566 85.85 73.8566 85.37C73.4633 84.8833 72.91 84.64 72.1966 84.64C71.4833 84.64 70.93 84.8833 70.5366 85.37C70.1433 85.85 69.9466 86.5367 69.9466 87.43C69.9466 88.33 70.1433 89.0233 70.5366 89.51C70.9366 89.9967 71.49 90.24 72.1966 90.24ZM71.8566 83.27L72.8766 81.73H73.9166L72.5266 83.27H71.8566ZM82.7696 83.88V91H81.9796L77.8996 85.62V91H76.9296V83.88H77.7096L81.7996 89.27V83.88H82.7696ZM87.0956 83.88H88.1256V91H87.0956V83.88ZM95.6212 83.88V91H94.8312L90.7512 85.62V91H89.7812V83.88H90.5612L94.6512 89.27V83.88H95.6212ZM104.101 83.88V91H103.171V86.11L101.061 91H100.351L98.2112 86.14L98.2212 91H97.2912V83.88H98.1212L100.711 89.76L103.271 83.88H104.101ZM105.768 83.88H110.388V84.72H106.788V86.96H110.188V87.8H106.788V90.16H110.388V91H105.768V83.88ZM111.676 83.88H114.166C115.319 83.88 116.212 84.19 116.846 84.81C117.479 85.43 117.796 86.3033 117.796 87.43C117.796 88.5633 117.479 89.4433 116.846 90.07C116.212 90.69 115.319 91 114.166 91H111.676V83.88ZM114.106 90.14C115.859 90.14 116.736 89.2367 116.736 87.43C116.736 85.6367 115.859 84.74 114.106 84.74H112.706V90.14H114.106ZM119.205 83.88H120.235V91H119.205V83.88ZM126.571 89.24H122.971L122.211 91H121.161L124.331 83.88H125.201L128.381 91H127.331L126.571 89.24ZM126.221 88.42L124.771 85.03L123.321 88.42H126.221ZM130.153 84.74H127.743V83.88H133.603V84.74H131.193V91H130.153V84.74ZM138.387 89.24H134.787L134.027 91H132.977L136.147 83.88H137.017L140.197 91H139.147L138.387 89.24ZM138.037 88.42L136.587 85.03L135.137 88.42H138.037Z" fill="#0033A0"/>
</svg>
