<svg width="79" height="71" viewBox="0 0 79 71" fill="none" xmlns="http://www.w3.org/2000/svg">
<path d="M0.125 9.5C0.125 4.71484 3.95312 0.75 8.875 0.75H35.125C39.9102 0.75 43.875 4.71484 43.875 9.5V46.6875C43.875 47.918 42.7812 48.875 41.6875 48.875C40.457 48.875 39.5 47.918 39.5 46.6875V9.5C39.5 7.17578 37.4492 5.125 35.125 5.125H8.875C6.41406 5.125 4.5 7.17578 4.5 9.5V35.75H19.8125C20.9062 35.75 22 36.8438 22 37.9375C22 39.168 20.9062 40.125 19.8125 40.125H4.5V48.875H19.8125C20.9062 48.875 22 49.9688 22 51.0625C22 52.293 20.9062 53.25 19.8125 53.25H4.5V62C4.5 64.4609 6.41406 66.375 8.875 66.375H32.9375C34.0312 66.375 35.125 67.4688 35.125 68.5625C35.125 69.793 34.0312 70.75 32.9375 70.75H8.875C3.95312 70.75 0.125 66.9219 0.125 62V9.5ZM19.8125 11.6875C19.8125 10.5938 20.7695 9.5 22 9.5C23.0938 9.5 24.1875 10.5938 24.1875 11.6875V16.0625H28.5625C29.6562 16.0625 30.75 17.1562 30.75 18.25C30.75 19.4805 29.6562 20.4375 28.5625 20.4375H24.1875V24.8125C24.1875 26.043 23.0938 27 22 27C20.7695 27 19.8125 26.043 19.8125 24.8125V20.4375H15.4375C14.207 20.4375 13.25 19.4805 13.25 18.25C13.25 17.1562 14.207 16.0625 15.4375 16.0625H19.8125V11.6875ZM70.125 37.9375C70.125 44.0898 65.2031 48.875 59.1875 48.875C53.0352 48.875 48.25 44.0898 48.25 37.9375C48.25 31.9219 53.0352 27 59.1875 27C65.2031 27 70.125 31.9219 70.125 37.9375ZM59.1875 31.375C55.4961 31.375 52.625 34.3828 52.625 37.9375C52.625 41.6289 55.4961 44.5 59.1875 44.5C62.7422 44.5 65.75 41.6289 65.75 37.9375C65.75 34.3828 62.7422 31.375 59.1875 31.375ZM66.0234 53.25C73.1328 53.25 78.875 58.9922 78.875 66.1016C78.875 68.6992 76.6875 70.75 74.0898 70.75H44.1484C41.5508 70.75 39.5 68.6992 39.5 66.1016C39.5 58.9922 45.1055 53.25 52.2148 53.25H66.0234ZM44.1484 66.375H74.0898C74.2266 66.375 74.5 66.2383 74.5 66.1016C74.5 61.4531 70.6719 57.625 66.0234 57.625H52.2148C47.5664 57.625 43.875 61.4531 43.875 66.1016C43.875 66.2383 44.0117 66.375 44.1484 66.375Z" fill="#00AEC7"/>
</svg>
