<svg width="325" height="111" viewBox="0 0 325 111" fill="none" xmlns="http://www.w3.org/2000/svg">
<g clip-path="url(#clip0_17_302)">
<path d="M220 13.7861L198.43 68.8333H180.277L171.2 38.0819L162.024 68.8333H143.871L127.922 27.7667H117.989V46.1903C117.989 54.8722 121.543 56.3014 126.396 56.3014C127.44 56.3014 128.858 56.1264 130.216 55.8153L135.188 68.6097C132.303 69.4167 127.401 70.0097 123.354 70.0097C106.727 70.0097 99.6286 63.2917 99.6286 47.5417V27.7764H92.058L75.9619 68.8431H57.8082L48.7314 38.0917L39.5561 68.8431H21.4024L0 13.7861H20.5952L31.3358 47.0458L41.5841 13.7861H55.8393L66.1861 47.0458L76.8282 13.7861H99.6187V3.88889L117.989 0V13.7861H143.093L153.834 47.0458L164.082 13.7861H178.337L188.684 47.0458L199.326 13.7861H220.02H220Z" fill="#7F35B2"/>
</g>
<g clip-path="url(#clip1_17_302)">
<path d="M235.35 66.0974C243.532 51.5381 237.581 50.1493 231.184 53.2105C222.6 57.2871 210.639 71.5628 207.99 82.7026C205.402 93.4541 211.293 97.8294 218.747 95.2012C225.427 92.8419 231.749 86.3611 236.272 80.8211C236.525 80.5523 236.971 80.8509 236.733 81.2242C233.044 86.7643 224.831 94.4994 218.419 96.6796C209.939 99.5765 203.914 93.6482 206.25 82.4636C208.704 70.5623 220.993 56.1373 230.857 52.001C238.593 48.7457 249.052 50.224 230.455 75.9978C228.58 78.3124 227.271 76.3711 228.551 75.3557C231.422 72.9067 233.252 69.7709 235.335 66.0825L235.35 66.0974Z" fill="#7F35B2" stroke="#7F35B2" stroke-miterlimit="10"/>
<path d="M244.96 81.493C246.403 81.6573 249.587 81.4632 250.911 80.7464C251.387 80.5523 251.744 81.3138 251.343 81.5229C249.304 82.4637 246.79 82.6727 244.663 82.5981C243.904 84.9873 242.625 87.3317 240.869 89.1236C238.712 91.3038 235.974 91.8414 234.918 88.7205C233.743 84.9276 235.364 78.9097 239.307 76.2815C243.815 73.295 246.344 76.7892 244.96 81.493ZM240.259 77.9241C237.492 80.6867 236.049 85.5249 236.525 88.3471C236.897 90.4676 239.158 89.5866 240.363 88.0485C241.479 86.6747 242.431 84.8529 243.116 82.4637C240.616 81.7917 240.765 79.4323 242.506 77.5209C242.253 76.2367 240.943 77.282 240.259 77.9241Z" fill="#7F35B2" stroke="#7F35B2" stroke-miterlimit="10"/>
<path d="M259.882 87.4662C261.191 91.3935 268.154 83.0312 269.657 80.9854C269.969 80.5524 270.668 80.7913 270.4 81.1497C269.032 82.8669 262.426 92.0356 259.019 88.9893C256.966 87.1377 258.424 81.7022 259.674 78.0288C259.882 77.3867 259.57 77.1179 258.975 77.7898C256.059 80.8809 252.518 85.958 251.03 89.8554C250.748 90.9306 248.695 91.7071 248.59 90.0197C248.308 85.749 250.019 80.4031 252.325 74.863C252.83 73.6535 254.645 73.8177 254.035 75.4006C253.009 78.1632 251.625 83.4344 251.134 86.5553C252.206 84.4349 255.612 78.7605 258.558 76.2966C260.864 74.5793 262.768 75.5947 261.697 78.2527C260.507 81.2094 259.168 85.3756 259.882 87.4662Z" fill="#7F35B2" stroke="#7F35B2" stroke-miterlimit="10"/>
<path d="M292.568 63.7977C292.687 64.3054 292.047 65.0371 291.407 64.8729C291.05 64.8131 290.723 64.5444 290.425 64.3652C289.845 64.0665 289.131 64.0665 288.03 64.0665C285.992 64.0665 279.461 63.8574 276.991 64.2009C274.462 70.5921 270.698 81.3436 269.91 86.9583C269.582 89.4073 270.282 91.7368 273.361 89.6163C276.337 87.5257 279.327 82.7622 280.889 80.8359C281.172 80.5671 281.603 80.9404 281.335 81.3138C279.699 83.7627 276.798 88.5113 273.48 90.5869C269.791 92.9015 268.481 90.6616 268.452 87.1972C268.481 81.3138 271.933 71.0251 274.551 64.2756C269.612 64.0068 265.58 65.0222 262.56 64.843C260.477 64.843 261.102 63.066 262.635 63.2601C263.929 63.4991 265.208 63.4991 266.622 63.4244C269.076 63.3497 271.992 63.1855 275.012 63.1556C275.563 61.7071 276.084 60.4677 276.515 59.527C277.527 57.75 279.967 58.0188 278.821 59.9302C278.464 60.632 277.958 61.7818 277.378 63.1556C281.782 63.0959 286.2 63.2153 290.931 63.2153C291.467 63.2153 292.345 63.1556 292.538 63.7828L292.568 63.7977Z" fill="#7F35B2" stroke="#7F35B2" stroke-miterlimit="10"/>
<path d="M280.487 88.9742C278.27 87.1226 280.487 78.2525 282.049 75.6692C283.091 74.1162 285.025 74.385 284.266 76.371C283.195 79.268 280.547 85.1813 281.35 87.466C282.674 91.3933 289.637 83.031 291.124 80.9852C291.437 80.5522 292.136 80.7911 291.868 81.1495C290.5 82.8667 283.894 92.0354 280.487 88.9891V88.9742ZM286.245 70.1142C286.274 70.7115 286.051 71.4283 285.575 71.8614C284.757 72.6677 283.359 72.6378 283.239 71.4582C283.195 70.9803 283.478 70.3084 283.835 69.8156C284.623 68.7703 286.23 68.7404 286.26 70.1142H286.245Z" fill="#7F35B2" stroke="#7F35B2" stroke-miterlimit="10"/>
<path d="M309.319 81.3138C307.013 82.598 304.246 84.2406 301.375 86.1222C300.021 92.0654 297.165 98.2624 293.788 103.564C288.476 111.866 282.258 111.836 282.377 106.729C282.57 99.7408 291.005 92.0803 298.801 86.7643C299.471 84.2705 299.932 81.8514 300.2 79.5667C300.289 78.8201 300.14 78.9246 300.051 79.059C298.355 81.8514 296.703 84.166 294.695 86.2566C292.344 88.7503 289.607 89.5119 289.518 85.7787C289.443 82.0157 292.121 77.2372 295.945 75.8634C297.165 75.4005 298.667 75.4005 299.634 76.0277C299.932 76.2367 300.259 76.4607 300.542 76.1621C301.762 74.7136 302.104 77.3417 302.149 78.0436C302.268 80.2237 302.059 82.5532 301.613 84.8977C304.41 83.1207 306.969 81.7021 308.858 80.836C309.379 80.5672 309.766 81.045 309.275 81.3138H309.319ZM298.444 88.1679C291.125 93.4093 284.028 100.099 283.388 106.55C283.016 110.955 288.238 109.402 292.776 101.682C295.037 97.7547 297.061 92.9016 298.429 88.1679H298.444ZM298.295 79.8355C298.652 79.2979 298.816 78.5961 298.533 78.1182C297.611 76.5354 296.034 76.9087 294.412 78.5214C292.731 80.2984 292.062 82.389 291.883 84.1361C291.645 86.8539 293.103 86.3611 294.665 84.6737C295.543 83.7031 296.703 82.2546 298.295 79.8355Z" fill="#7F35B2" stroke="#7F35B2" stroke-miterlimit="10"/>
<path d="M317.695 81.493C319.138 81.6573 322.322 81.4632 323.646 80.7464C324.122 80.5523 324.479 81.3138 324.078 81.5229C322.039 82.4637 319.525 82.6727 317.398 82.5981C316.639 84.9873 315.359 87.3317 313.604 89.1236C311.447 91.3038 308.709 91.8414 307.653 88.7205C306.478 84.9276 308.099 78.9097 312.042 76.2815C316.55 73.295 319.079 76.7892 317.695 81.493ZM312.994 77.9241C310.227 80.6867 308.784 85.5249 309.26 88.3471C309.632 90.4676 311.893 89.5866 313.098 88.0485C314.214 86.6747 315.166 84.8529 315.85 82.4637C313.351 81.7917 313.5 79.4323 315.24 77.5209C314.988 76.2367 313.678 77.282 312.994 77.9241Z" fill="#7F35B2" stroke="#7F35B2" stroke-miterlimit="10"/>
</g>
<defs>
<clipPath id="clip0_17_302">
<rect width="220" height="70" fill="white"/>
</clipPath>
<clipPath id="clip1_17_302">
<rect width="120" height="61" fill="white" transform="translate(205 50)"/>
</clipPath>
</defs>
</svg>
