<svg width="30" height="30" viewBox="0 0 30 30" fill="none" xmlns="http://www.w3.org/2000/svg">
<g clip-path="url(#clip0_2_670)">
<path fill-rule="evenodd" clip-rule="evenodd" d="M10 0C10.552 0 11 0.448 11 1V2H19V1C19 0.448 19.447 0 20 0H24C24.553 0 25 0.448 25 1V2H27C28.654 2 30 3.346 30 5V27C30 28.654 28.654 30 27 30H3C1.346 30 0 28.654 0 27V5C0 3.346 1.346 2 3 2H5V1C5 0.448 5.448 0 6 0H10ZM28 10H2V27C2 27.551 2.449 28 3 28H27C27.552 28 28 27.551 28 27V10ZM15 12C18.859 12 22 15.14 22 19C22 22.86 18.859 26 15 26C11.14 26 8 22.86 8 19C8 15.14 11.14 12 15 12ZM15 14C12.243 14 10 16.243 10 19C10 21.757 12.243 24 15 24C17.757 24 20 21.757 20 19C20 16.243 17.757 14 15 14ZM15 15C15.552 15 16 15.448 16 16V18.586L17.707 20.293C18.098 20.684 18.098 21.316 17.707 21.707C17.316 22.098 16.684 22.098 16.293 21.707L14.293 19.707C14.105 19.519 14 19.265 14 19V16C14 15.448 14.448 15 15 15ZM5 4H3C2.449 4 2 4.449 2 5V8H28V5C28 4.449 27.552 4 27 4H25V5C25 5.552 24.553 6 24 6H20C19.447 6 19 5.552 19 5V4H11V5C11 5.552 10.552 6 10 6H6C5.448 6 5 5.552 5 5V4ZM9 2H7V4H9V2ZM23 2H21V4H23V2Z" fill="#364F6B"/>
</g>
<defs>
<clipPath id="clip0_2_670">
<rect width="30" height="30" fill="white"/>
</clipPath>
</defs>
</svg>
