<svg width="24" height="24" viewBox="0 0 24 24" fill="none" xmlns="http://www.w3.org/2000/svg">
<g clip-path="url(#clip0_20_1942)">
<path fill-rule="evenodd" clip-rule="evenodd" d="M12.0088 0C5.37279 0 0.00878906 5.364 0.00878906 12C0.00878906 18.636 5.37279 24 12.0088 24C18.6448 24 24.0088 18.636 24.0088 12C24.0088 5.364 18.6448 0 12.0088 0ZM16.8241 16.8153C16.3874 17.252 15.6819 17.252 15.2451 16.8153L12.0088 13.579L8.77246 16.8153C8.33572 17.252 7.63022 17.252 7.19348 16.8153C6.75675 16.3786 6.75675 15.6731 7.19348 15.2363L10.4298 12L7.19348 8.76367C6.75675 8.32693 6.75675 7.62143 7.19348 7.1847C7.63022 6.74796 8.33572 6.74796 8.77246 7.1847L12.0088 10.421L15.2451 7.1847C15.6819 6.74796 16.3874 6.74796 16.8241 7.1847C17.2608 7.62143 17.2608 8.32693 16.8241 8.76367L13.5878 12L16.8241 15.2363C17.2496 15.6619 17.2496 16.3786 16.8241 16.8153Z" fill="#CC284E"/>
</g>
<defs>
<clipPath id="clip0_20_1942">
<rect width="24" height="24" fill="white"/>
</clipPath>
</defs>
</svg>
