<svg width="100" height="75" viewBox="0 0 100 75" fill="none" xmlns="http://www.w3.org/2000/svg">
<path d="M90.625 0H9.375C4.10156 0 0 4.29688 0 9.375V65.625C0 70.8984 4.10156 75 9.375 75H90.625C95.7031 75 100 70.8984 100 65.625V9.375C100 4.29688 95.7031 0 90.625 0ZM93.75 65.625C93.75 67.3828 92.1875 68.75 90.625 68.75H9.375C7.61719 68.75 6.25 67.3828 6.25 65.625V9.375C6.25 7.8125 7.61719 6.25 9.375 6.25H90.625C92.1875 6.25 93.75 7.8125 93.75 9.375V65.625ZM21.875 32.8125C27.7344 32.8125 32.8125 27.9297 32.8125 21.875C32.8125 16.0156 27.7344 10.9375 21.875 10.9375C15.8203 10.9375 10.9375 16.0156 10.9375 21.875C10.9375 27.9297 15.8203 32.8125 21.875 32.8125ZM21.875 17.1875C24.4141 17.1875 26.5625 19.3359 26.5625 21.875C26.5625 24.6094 24.4141 26.5625 21.875 26.5625C19.1406 26.5625 17.1875 24.6094 17.1875 21.875C17.1875 19.3359 19.1406 17.1875 21.875 17.1875ZM62.3047 21.875L43.75 40.4297L37.5 34.375C35.7422 32.4219 32.8125 32.4219 31.0547 34.375L13.8672 51.5625C12.8906 52.3438 12.5 53.5156 12.5 54.6875V60.1562C12.5 61.5234 13.4766 62.5 14.8438 62.5H85.1562C86.3281 62.5 87.5 61.5234 87.5 60.1562V42.1875C87.5 41.0156 86.9141 39.8438 85.9375 39.0625L68.75 21.875C66.9922 19.9219 64.0625 19.9219 62.3047 21.875ZM81.25 56.25H18.75V55.4688L34.375 39.8438L43.75 49.2188L65.625 27.3438L81.25 42.9688V56.25Z" fill="white"/>
</svg>
