<svg width="99" height="87" viewBox="0 0 99 87" fill="none" xmlns="http://www.w3.org/2000/svg">
<path d="M79.317 12.6539H78.1754V10.6542C78.1744 9.68566 77.7856 8.75661 77.0952 8.07169C76.4049 7.38679 75.4684 7.00107 74.4921 7H72.1443C71.4782 7 70.9381 7.53585 70.9381 8.1967V19.5045C70.9381 20.1654 71.4782 20.7012 72.1443 20.7012H74.4921C74.9267 20.698 75.3569 20.6174 75.763 20.4635V33.8383C75.7619 34.9126 75.3311 35.9422 74.5654 36.7019C73.7996 37.4616 72.762 37.889 71.679 37.89H69.8987C69.7555 37.2206 69.3861 36.6207 68.8508 36.1895C68.3155 35.7584 67.6473 35.5228 66.9575 35.5217H52.7654C52.0762 35.5228 51.4079 35.7584 50.8727 36.1895C50.3374 36.6206 49.9675 37.2206 49.8248 37.89H48.0327C46.9498 37.889 45.9121 37.4616 45.1463 36.7019C44.3805 35.9422 43.9497 34.9127 43.9487 33.8383V20.4635C44.3547 20.6174 44.7849 20.698 45.2195 20.7012H47.5673C48.2334 20.7012 48.7735 20.1654 48.7735 19.5045V8.1967C48.7735 7.87937 48.6465 7.57484 48.4203 7.35046C48.1941 7.12608 47.8872 7 47.5673 7H45.2195C44.2432 7.00107 43.3068 7.38679 42.6164 8.07169C41.9261 8.75658 41.5373 9.68566 41.5362 10.6542V12.6539H40.3946C39.4183 12.655 38.4819 13.0407 37.7915 13.7256C37.1012 14.4105 36.7124 15.3396 36.7113 16.3081V33.8388C36.7145 36.8166 37.9084 39.6716 40.0311 41.7772C42.1534 43.8831 45.0311 45.0676 48.0326 45.0708H49.8171C49.9496 45.7509 50.3157 46.3636 50.8537 46.805C51.3916 47.2463 52.0675 47.4883 52.7653 47.4893H53.8299V50.4901L53.8305 50.4906C53.8315 51.1777 54.0712 51.8439 54.51 52.376C54.9484 52.9086 55.558 53.2746 56.2369 53.4124V72.1466C56.2364 72.5179 55.9327 72.8193 55.5584 72.8198H43.7978C43.4236 72.8192 43.1198 72.5179 43.1193 72.1466V56.4842C43.1172 54.4022 42.2825 52.4058 40.7984 50.9334C39.3143 49.4615 37.302 48.633 35.2034 48.6308H32.7819C31.6419 46.014 29.3441 44.0693 26.5596 43.3658C23.7751 42.6617 20.8192 43.2787 18.5564 45.0359C16.2943 46.7925 14.9804 49.4909 15.0002 52.3417C15.0196 55.1924 16.3701 57.8726 18.6571 59.5987C20.9435 61.3249 23.9074 61.9013 26.6823 61.1603C29.4566 60.4188 31.7275 58.4432 32.8308 55.811H35.2034C35.5777 55.8115 35.8814 56.1128 35.882 56.4841V72.1466C35.8841 74.2286 36.7188 76.225 38.2029 77.6974C39.687 79.1698 41.6993 79.9978 43.7978 80H55.5584C57.657 79.9979 59.6693 79.1698 61.1534 77.6974C62.6375 76.225 63.4721 74.2286 63.4743 72.1466V53.4151C64.1555 53.2794 64.7683 52.914 65.2093 52.3814C65.6504 51.8487 65.8916 51.1809 65.8927 50.4918V47.4905H66.9578H66.9573C67.6557 47.4894 68.3315 47.2474 68.8695 46.8061C69.4069 46.3648 69.7736 45.752 69.9061 45.0719H71.6787C74.6802 45.0687 77.5579 43.8843 79.6802 41.7783C81.8029 39.6728 82.9968 36.8178 83 33.84V16.3093C82.9989 15.3407 82.6101 14.4116 81.9198 13.7267C81.2294 13.0418 80.293 12.6561 79.3167 12.655L79.317 12.6539ZM74.4921 18.3078H73.3505V9.3934H74.4921C75.1938 9.39393 75.7624 9.95809 75.763 10.6542V17.0469C75.7624 17.7431 75.1938 18.3072 74.4921 18.3078V18.3078ZM43.9492 10.6542C43.9497 9.95813 44.5183 9.39397 45.22 9.39342H46.3616V18.3078H45.22C44.5184 18.3073 43.9497 17.7432 43.9492 17.047V10.6542ZM39.1243 33.8389V16.3082C39.1248 15.612 39.6934 15.0484 40.3951 15.0473H41.5367V33.8376C41.5389 35.5461 42.2238 37.1847 43.4413 38.3932C44.6594 39.6011 46.3109 40.2807 48.0331 40.2828H49.76V42.6762H48.0331C45.6712 42.6735 43.4064 41.7418 41.7365 40.0846C40.0661 38.4279 39.1269 36.1809 39.1243 33.8376V33.8389ZM24.2732 59.0818C22.4537 59.0818 20.709 58.3648 19.422 57.0886C18.1355 55.8117 17.4129 54.0808 17.4129 52.2756C17.4129 50.4704 18.1356 48.7395 19.422 47.4627C20.709 46.1864 22.4537 45.4694 24.2732 45.4694C26.0928 45.4694 27.8374 46.1864 29.1244 47.4627C30.4109 48.7395 31.1335 50.4704 31.1335 52.2756C31.1314 54.0803 30.4082 55.8102 29.1217 57.086C27.8358 58.3623 26.0921 59.0797 24.2731 59.0819L24.2732 59.0818ZM55.5592 77.6054H43.7986C42.3393 77.6038 40.9409 77.0279 39.9091 76.0043C38.8772 74.9807 38.2969 73.5932 38.2952 72.1454V56.483C38.2941 55.6698 37.9683 54.8903 37.3889 54.3155C36.8095 53.7407 36.0238 53.4174 35.2042 53.4164H33.4666C33.5775 52.6219 33.5716 51.8158 33.4493 51.023H35.2042C36.6635 51.0246 38.0619 51.6005 39.0938 52.6241C40.1256 53.6477 40.706 55.0351 40.7076 56.4829V72.1454C40.7087 72.9585 41.0345 73.738 41.6139 74.3129C42.1933 74.8877 42.979 75.2109 43.7986 75.212H55.5592C56.3788 75.2109 57.1645 74.8877 57.7439 74.3129C58.3233 73.738 58.6492 72.9586 58.6502 72.1454V53.4713H61.0627V72.1454C61.0611 73.5932 60.4806 74.9806 59.4488 76.0043C58.4171 77.028 57.0186 77.6037 55.5593 77.6054L55.5592 77.6054ZM67.552 44.5066C67.5515 44.8314 67.286 45.0948 66.958 45.0954H64.6872C64.0211 45.0954 63.4809 45.6312 63.4809 46.2921V50.4901C63.4804 50.8149 63.2149 51.0783 62.887 51.0788H56.837C56.5096 51.0783 56.2436 50.8149 56.2436 50.4901V46.2921C56.2436 45.9747 56.1165 45.6702 55.8903 45.4458C55.6641 45.2214 55.3572 45.0954 55.0373 45.0954H52.7659C52.4385 45.0948 52.1725 44.8314 52.1725 44.5066V38.5033C52.173 38.1784 52.4385 37.9151 52.7659 37.9151H66.958C67.2859 37.9151 67.5514 38.1784 67.552 38.5033L67.552 44.5066ZM80.5883 33.8383C80.5856 36.1815 79.6465 38.4284 77.9761 40.0852C76.3063 41.7424 74.0414 42.6742 71.6795 42.6768H69.9644V40.2834H71.6795C73.4016 40.2813 75.0532 39.6017 76.2713 38.3938C77.4888 37.1854 78.1738 35.5469 78.1759 33.8383V15.048H79.3175C80.0191 15.0491 80.5878 15.6127 80.5883 16.3088V33.8383ZM26.0821 48.2439C24.8183 47.6845 23.3638 47.7401 22.1468 48.3946C20.9298 49.049 20.0892 50.2275 19.8722 51.5839C19.6547 52.9399 20.0855 54.3193 21.0381 55.3156C21.9907 56.312 23.3557 56.8125 24.7327 56.6694C26.1091 56.5262 27.3401 55.7558 28.0632 54.5848C28.787 53.4143 28.92 51.9761 28.424 50.6939C28.0045 49.5998 27.1613 48.7178 26.0822 48.2439H26.0821ZM26.1322 53.0969C25.856 53.7134 25.2879 54.1526 24.618 54.2669C23.9476 54.3818 23.2637 54.1568 22.7957 53.6675C22.3278 53.1781 22.1366 52.4889 22.2869 51.8307C22.4371 51.173 22.9088 50.6329 23.5437 50.3915C24.0472 50.197 24.6078 50.2115 25.101 50.4305C25.5932 50.649 25.9788 51.0524 26.1721 51.5524C26.3649 52.0519 26.3509 52.6075 26.1323 53.0969L26.1322 53.0969Z" fill="white"/>
</svg>
