<svg width="40" height="57" viewBox="0 0 40 57" fill="none" xmlns="http://www.w3.org/2000/svg">
<path d="M31.0455 14.5525H25.4254V13.3808C25.4252 13.0636 25.2988 12.7594 25.0738 12.5353C24.8491 12.3109 24.5441 12.1845 24.2262 12.1843H21.8642V11.7032C21.8642 11.0686 21.5248 10.4823 20.9739 10.1649C20.4231 9.84771 19.7442 9.84771 19.1933 10.1649C18.6425 10.4823 18.303 11.0686 18.303 11.7032V12.1843H15.9411C15.6231 12.1845 15.3181 12.3109 15.0935 12.5353C14.8685 12.7594 14.7421 13.0637 14.7418 13.3808V14.5525H9.12175C8.7235 14.5531 8.34167 14.7111 8.06003 14.9921C7.77837 15.2731 7.61991 15.6539 7.61938 16.0512V44.5445C7.61991 44.9418 7.77837 45.3227 8.06003 45.6036C8.34169 45.8846 8.72352 46.0427 9.12175 46.0432H31.0453C31.4436 46.0427 31.8254 45.8846 32.107 45.6036C32.3887 45.3227 32.5471 44.9418 32.5477 44.5445V16.0512C32.5471 15.6539 32.3887 15.273 32.107 14.9921C31.8254 14.7111 31.4435 14.5531 31.0453 14.5525H31.0455ZM11.1807 20.4733H28.9868V42.491H11.1807V20.4733ZM28.9868 19.2891H11.1807V18.105H28.9868V19.2891ZM19.4902 11.7031C19.4902 11.3762 19.756 11.1111 20.0837 11.1111C20.4115 11.1111 20.6773 11.3762 20.6773 11.7031V12.1842H19.4902V11.7031ZM15.9412 13.3683L24.2385 13.3807V16.9084C24.2388 16.9152 24.2332 16.9208 24.2263 16.9208L15.929 16.9084L15.9412 13.3683ZM31.3609 44.5446C31.3607 44.7183 31.2197 44.8589 31.0456 44.8591H9.12208C8.94799 44.8589 8.80703 44.7183 8.80676 44.5446V16.0513C8.80703 15.8776 8.94799 15.737 9.12208 15.7367H14.7422V16.9209H10.5874C10.43 16.9209 10.279 16.9832 10.1677 17.0943C10.0564 17.2053 9.99386 17.3559 9.99386 17.5129V43.0831C9.99386 43.2401 10.0564 43.3908 10.1677 43.5018C10.279 43.6128 10.43 43.6752 10.5874 43.6752H29.5806C29.738 43.6752 29.889 43.6128 30.0003 43.5018C30.1116 43.3908 30.1741 43.2401 30.1741 43.0831V17.5129C30.1741 17.3559 30.1116 17.2053 30.0003 17.0943C29.889 16.9833 29.738 16.9209 29.5806 16.9209H25.4258V15.7367H31.0459C31.22 15.737 31.3609 15.8776 31.3612 16.0513L31.3609 44.5446ZM24.0038 26.2086H21.8644V24.0747C21.8642 23.8033 21.7558 23.5429 21.5634 23.351C21.371 23.1591 21.11 23.0513 20.8379 23.051H19.3297C19.0576 23.0513 18.7966 23.1591 18.6043 23.351C18.4119 23.5429 18.3035 23.8033 18.3033 24.0747V26.2086H16.1639C15.8918 26.2088 15.631 26.3169 15.4387 26.5088C15.2463 26.7007 15.1382 26.9608 15.1379 27.2322V28.7373C15.1382 29.0087 15.2463 29.2688 15.4387 29.4607C15.6311 29.6526 15.8918 29.7607 16.1639 29.7609H18.3033V31.8948C18.3035 32.1662 18.4119 32.4266 18.6043 32.6185C18.7966 32.8104 19.0576 32.9182 19.3297 32.9185H20.8379C21.1101 32.9182 21.3711 32.8104 21.5634 32.6185C21.7558 32.4266 21.8642 32.1662 21.8644 31.8948V29.7609H24.0038C24.2759 29.7607 24.5367 29.6526 24.729 29.4607C24.9214 29.2688 25.0295 29.0087 25.0297 28.7373V27.2322C25.0295 26.9608 24.9214 26.7007 24.729 26.5088C24.5366 26.3169 24.2759 26.2088 24.0038 26.2086ZM23.8427 28.5769H21.2709C21.1135 28.5769 20.9625 28.6392 20.8512 28.7502C20.7399 28.8613 20.6773 29.0119 20.6773 29.1689V31.7344H19.4903V29.1689C19.4903 29.0119 19.4277 28.8613 19.3165 28.7502C19.2052 28.6392 19.0541 28.5769 18.8967 28.5769H16.3249V27.3927H18.8967C19.0541 27.3927 19.2052 27.3303 19.3165 27.2193C19.4277 27.1083 19.4903 26.9576 19.4903 26.8006V24.2352H20.6773V26.8006C20.6773 26.9576 20.7399 27.1083 20.8512 27.2193C20.9625 27.3303 21.1135 27.3927 21.2709 27.3927H23.8427V28.5769ZM23.9911 37.5568C23.9911 37.7138 23.9285 37.8644 23.8173 37.9755C23.706 38.0865 23.5549 38.1488 23.3975 38.1488H22.2105C21.8827 38.1488 21.6169 37.8837 21.6169 37.5568C21.6169 37.2298 21.8827 36.9647 22.2105 36.9647H23.3975C23.5549 36.9647 23.706 37.0271 23.8173 37.1381C23.9285 37.2491 23.9911 37.3998 23.9911 37.5568ZM27.5523 37.5568C27.5523 37.7138 27.4898 37.8644 27.3785 37.9755C27.2672 38.0865 27.1162 38.1488 26.9588 38.1488H25.7717C25.4439 38.1488 25.1782 37.8837 25.1782 37.5568C25.1782 37.2298 25.4439 36.9647 25.7717 36.9647H26.9588C27.1162 36.9647 27.2672 37.0271 27.3785 37.1381C27.4898 37.2491 27.5523 37.3998 27.5523 37.5568ZM16.8686 35.1885C16.8686 35.3455 16.8061 35.4961 16.6948 35.6072C16.5835 35.7182 16.4325 35.7805 16.2751 35.7805H15.088C14.7603 35.7805 14.4945 35.5154 14.4945 35.1885C14.4945 34.8615 14.7603 34.5964 15.088 34.5964H16.2751C16.4325 34.5964 16.5835 34.6588 16.6948 34.7698C16.8061 34.8808 16.8686 35.0315 16.8686 35.1885ZM20.4299 35.1885C20.4299 35.3455 20.3673 35.4961 20.256 35.6072C20.1448 35.7182 19.9937 35.7805 19.8363 35.7805H18.6493C18.3215 35.7805 18.0557 35.5154 18.0557 35.1885C18.0557 34.8615 18.3215 34.5964 18.6493 34.5964H19.8363C19.9937 34.5964 20.1448 34.6588 20.256 34.7698C20.3673 34.8808 20.4299 35.0315 20.4299 35.1885ZM23.9911 35.1885C23.9911 35.3455 23.9285 35.4961 23.8173 35.6072C23.706 35.7182 23.5549 35.7805 23.3975 35.7805H22.2105C21.8827 35.7805 21.6169 35.5154 21.6169 35.1885C21.6169 34.8615 21.8827 34.5964 22.2105 34.5964H23.3975C23.5549 34.5964 23.706 34.6588 23.8173 34.7698C23.9285 34.8808 23.9911 35.0315 23.9911 35.1885ZM27.5523 35.1885C27.5523 35.3455 27.4898 35.4961 27.3785 35.6072C27.2672 35.7182 27.1162 35.7805 26.9588 35.7805H25.7717C25.4439 35.7805 25.1782 35.5154 25.1782 35.1885C25.1782 34.8615 25.4439 34.5964 25.7717 34.5964H26.9588C27.1162 34.5964 27.2672 34.6588 27.3785 34.7698C27.4898 34.8808 27.5523 35.0315 27.5523 35.1885ZM27.5523 39.9251C27.5523 40.0821 27.4898 40.2327 27.3785 40.3438C27.2672 40.4548 27.1162 40.5171 26.9588 40.5171H25.7717C25.4439 40.5171 25.1782 40.252 25.1782 39.9251C25.1782 39.5981 25.4439 39.333 25.7717 39.333H26.9588C27.1162 39.333 27.2672 39.3954 27.3785 39.5064C27.4898 39.6174 27.5523 39.7681 27.5523 39.9251ZM23.9911 39.9251C23.9911 40.0821 23.9285 40.2327 23.8173 40.3438C23.706 40.4548 23.5549 40.5171 23.3975 40.5171H22.2105C21.8827 40.5171 21.6169 40.252 21.6169 39.9251C21.6169 39.5981 21.8827 39.333 22.2105 39.333H23.3975C23.5549 39.333 23.706 39.3954 23.8173 39.5064C23.9285 39.6174 23.9911 39.7681 23.9911 39.9251Z" fill="#999999"/>
</svg>
