<svg width="45" height="45" viewBox="0 0 45 45" fill="none" xmlns="http://www.w3.org/2000/svg">
<path d="M28.1383 24.049C23.0521 24.049 18.9146 19.9943 18.9146 15.0112H20.3455C20.3455 19.2059 23.8414 22.618 28.1383 22.618C32.4353 22.618 35.9311 19.2056 35.9311 15.0112H37.3621C37.3621 19.9946 33.2244 24.049 28.1383 24.049V24.049Z" fill="#9B9B9B"/>
<path d="M37.3622 15.0114H35.9313V9.33692C35.9313 8.89703 35.5582 8.53933 35.0998 8.53933H32.7793V7.1084H35.0998C36.3475 7.10868 37.3622 8.1084 37.3622 9.33692V15.0114Z" fill="#9B9B9B"/>
<path d="M19.63 39.9376C14.5438 39.9376 10.4062 35.883 10.4062 30.8999H11.8372C11.8372 35.0946 15.3331 38.5067 19.63 38.5067C23.927 38.5067 27.4228 35.0943 27.4228 30.8999H28.8538C28.8535 35.8832 24.7158 39.9376 19.63 39.9376V39.9376Z" fill="#9B9B9B"/>
<path d="M27.4229 23.7124H28.8538V30.8999H27.4229V23.7124Z" fill="#9B9B9B"/>
<path d="M10.4062 25.2256H11.8372V30.9001H10.4062V25.2256Z" fill="#9B9B9B"/>
<path d="M20.3455 15.0114H18.9146V9.33692C18.9146 8.10833 19.9294 7.1084 21.1769 7.1084H23.4975V8.53933L21.1769 8.5396C20.7186 8.5396 20.3455 8.89734 20.3455 9.3372V15.0114Z" fill="#9B9B9B"/>
<path d="M23.7682 9.9846C23.373 9.9846 23.0527 9.66432 23.0527 9.26914V6.34046C23.0527 5.94528 23.373 5.625 23.7682 5.625C24.1634 5.625 24.4837 5.94528 24.4837 6.34046V9.26914C24.4837 9.66432 24.1634 9.9846 23.7682 9.9846Z" fill="#9B9B9B"/>
<path d="M32.3536 9.98436C31.9585 9.98436 31.6382 9.66408 31.6382 9.2689V6.40003C31.6382 6.00485 31.9585 5.68457 32.3536 5.68457C32.7488 5.68457 33.0691 6.00485 33.0691 6.40003V9.2689C33.0691 9.66408 32.7488 9.98436 32.3536 9.98436Z" fill="#9B9B9B"/>
<path d="M11.1218 25.9406C9.02153 25.9406 7.3125 24.2621 7.3125 22.199C7.3125 20.1356 9.02153 18.457 11.1218 18.457C13.2223 18.457 14.9313 20.1356 14.9313 22.199C14.9313 24.2621 13.2223 25.9406 11.1218 25.9406V25.9406ZM11.1218 19.888C9.81018 19.888 8.74343 20.9245 8.74343 22.199C8.74343 23.4734 9.81018 24.51 11.1218 24.51C12.4334 24.51 13.5004 23.4734 13.5004 22.199C13.5004 20.9245 12.4334 19.888 11.1218 19.888Z" fill="#9B9B9B"/>
</svg>
