<svg width="46" height="45" viewBox="0 0 46 45" fill="none" xmlns="http://www.w3.org/2000/svg">
<path d="M29.5052 39.3637C28.3128 39.3637 26.9836 39.1246 25.552 38.6435C22.1471 37.5188 18.4957 35.1294 15.2744 31.9174C8.43313 25.0756 5.85376 16.9371 9.40214 13.388L13.2827 9.50773C13.9587 8.83076 15.0594 8.83076 15.7367 9.50773L21.26 15.0311C21.5876 15.3584 21.7682 15.7945 21.7682 16.2585C21.7682 16.7218 21.5876 17.1579 21.26 17.4853L18.1654 20.5799C17.2749 21.4706 18.0164 24.1971 20.5049 26.6855C21.6631 27.8518 23.024 28.7486 24.2404 29.1484C25.3058 29.5062 26.1688 29.4597 26.6136 29.0219L29.705 25.9305C30.381 25.2535 31.4817 25.2535 32.1589 25.9305L37.6823 31.4538C38.0099 31.7812 38.1905 32.2173 38.1905 32.6813C38.1905 33.1446 38.0099 33.5807 37.6823 33.908L33.8017 37.7891C32.7496 38.8341 31.2788 39.3634 29.5053 39.3634L29.5052 39.3637ZM14.5097 10.2652C14.3891 10.2652 14.2688 10.3109 14.1771 10.4023L10.2965 14.2826C7.35143 17.2285 10.0405 24.8942 16.1682 31.0226C19.2525 34.0974 22.7274 36.3779 25.9519 37.4438C29.0381 38.4808 31.5081 38.2858 32.9082 36.8933L36.7875 33.0135C36.8765 32.9246 36.9251 32.8067 36.9251 32.6812C36.9251 32.5552 36.8765 32.4371 36.7875 32.3482L31.2642 26.8248C31.0806 26.642 30.7824 26.642 30.5991 26.8248L27.5044 29.9195C26.6938 30.7188 25.3934 30.8702 23.8413 30.3494C22.4251 29.8836 20.9201 28.8995 19.6087 27.5792C16.7412 24.7106 15.7133 21.2427 17.2706 19.6855L20.3652 16.5908C20.4542 16.5019 20.5029 16.384 20.5029 16.2585C20.5029 16.1325 20.4542 16.0144 20.3652 15.9255L14.8419 10.4021C14.75 10.3112 14.6297 10.2655 14.5091 10.2655L14.5097 10.2652Z" fill="#9B9B9B"/>
<path d="M26.8203 28.8158L27.7147 27.9214L35.692 35.8986L34.7975 36.793L26.8203 28.8158Z" fill="#9B9B9B"/>
<path d="M10.3979 12.3935L11.2924 11.499L19.2696 19.4762L18.3752 20.3707L10.3979 12.3935Z" fill="#9B9B9B"/>
<path d="M29.3337 19.7523C28.9843 19.7523 28.7012 19.4694 28.7012 19.1198V14.0598C28.7012 13.7101 28.9843 13.4272 29.3337 13.4272C29.683 13.4272 29.9662 13.7101 29.9662 14.0598V19.1198C29.9662 19.4694 29.6828 19.7523 29.3337 19.7523Z" fill="#9B9B9B"/>
<path d="M31.864 17.222H26.8039C26.4545 17.222 26.1714 16.9391 26.1714 16.5895C26.1714 16.2399 26.4545 15.957 26.8039 15.957H31.864C32.2133 15.957 32.4965 16.2399 32.4965 16.5895C32.4965 16.9391 32.2131 17.222 31.864 17.222Z" fill="#9B9B9B"/>
<path d="M29.3337 22.2821C26.1949 22.2821 23.6411 19.7286 23.6411 16.5896C23.6411 13.4505 26.1949 10.897 29.3337 10.897C32.4725 10.897 35.0263 13.4505 35.0263 16.5896C35.0263 19.7286 32.4723 22.2821 29.3337 22.2821ZM29.3337 12.162C26.8923 12.162 24.9061 14.1485 24.9061 16.5896C24.9061 19.0307 26.8923 21.0171 29.3337 21.0171C31.7751 21.0171 33.7613 19.0307 33.7613 16.5896C33.7613 14.1485 31.7751 12.162 29.3337 12.162Z" fill="#9B9B9B"/>
</svg>
