<svg width="99" height="87" viewBox="0 0 99 87" fill="none" xmlns="http://www.w3.org/2000/svg">
<path d="M70.9871 16.3006H59.7146V13.9446C59.714 13.3069 59.4605 12.6952 59.0093 12.2445C58.5586 11.7933 57.9469 11.5392 57.3091 11.5387H52.5717V10.5714C52.5717 9.29536 51.8909 8.11656 50.786 7.47832C49.681 6.84056 48.3194 6.84056 47.2145 7.47832C46.1096 8.11661 45.4288 9.29535 45.4288 10.5714V11.5387H40.6913C40.0535 11.5392 39.4418 11.7933 38.9911 12.2445C38.5399 12.6952 38.2864 13.3069 38.2859 13.9446V16.3006H27.0134C26.2146 16.3016 25.4487 16.6195 24.8838 17.1844C24.3189 17.7494 24.0011 18.5152 24 19.314V76.6057C24.0011 77.4045 24.3189 78.1704 24.8838 78.7353C25.4488 79.3002 26.2146 79.618 27.0134 79.6191H70.9866C71.7854 79.618 72.5513 79.3002 73.1162 78.7353C73.6811 78.1703 73.9989 77.4045 74 76.6057V19.314C73.9989 18.5152 73.6811 17.7493 73.1162 17.1844C72.5512 16.6195 71.7854 16.3016 70.9866 16.3006H70.9871ZM31.1431 28.2055H66.8578V72.4767H31.1431V28.2055ZM66.8578 25.8245H31.1431V23.4435H66.8578V25.8245ZM47.8099 10.5713C47.8099 9.91384 48.343 9.38078 49.0004 9.38078C49.6579 9.38078 50.1909 9.91384 50.1909 10.5713V11.5385H47.8099V10.5713ZM40.6915 13.9195L57.3339 13.9444V21.0374C57.3344 21.0513 57.3232 21.0624 57.3094 21.0624L40.6671 21.0374L40.6915 13.9195ZM71.6197 76.6058C71.6192 76.955 71.3365 77.2377 70.9873 77.2383H27.014C26.6649 77.2377 26.3821 76.955 26.3816 76.6058V19.3141C26.3821 18.9649 26.6649 18.6822 27.014 18.6816H38.2865V21.0626H29.9531C29.6374 21.0626 29.3345 21.188 29.1113 21.4113C28.8881 21.6345 28.7626 21.9374 28.7626 22.2531V73.6672C28.7626 73.9829 28.888 74.2859 29.1113 74.5091C29.3345 74.7323 29.6374 74.8577 29.9531 74.8577H68.0487C68.3644 74.8577 68.6674 74.7323 68.8906 74.5091C69.1138 74.2859 69.2392 73.9829 69.2392 73.6672V22.2531C69.2392 21.9374 69.1138 21.6345 68.8906 21.4113C68.6674 21.188 68.3644 21.0626 68.0487 21.0626H59.7153V18.6816H70.9878C71.337 18.6822 71.6197 18.9649 71.6203 19.3141L71.6197 76.6058ZM56.8631 39.7374H52.572V35.4469C52.5715 34.9011 52.3541 34.3776 51.9683 33.9918C51.5825 33.6059 51.0589 33.3891 50.5132 33.3886H47.4881C46.9423 33.3891 46.4188 33.6059 46.033 33.9918C45.6472 34.3776 45.4298 34.9011 45.4292 35.4469V39.7374H41.1382C40.5924 39.738 40.0694 39.9553 39.6836 40.3412C39.2978 40.727 39.0809 41.25 39.0804 41.7957V44.8219C39.0809 45.3677 39.2978 45.8907 39.6836 46.2765C40.0694 46.6623 40.5924 46.8797 41.1382 46.8802H45.4292V51.1707C45.4298 51.7166 45.6472 52.2401 46.033 52.6259C46.4188 53.0117 46.9423 53.2285 47.4881 53.2291H50.5132C51.059 53.2285 51.5825 53.0117 51.9683 52.6259C52.3541 52.24 52.5715 51.7165 52.572 51.1707V46.8802H56.8631C57.4089 46.8797 57.9319 46.6623 58.3177 46.2765C58.7035 45.8906 58.9204 45.3677 58.9209 44.8219V41.7957C58.9204 41.2499 58.7035 40.727 58.3177 40.3412C57.9318 39.9553 57.4089 39.738 56.8631 39.7374ZM56.54 44.4994H51.3816C51.0659 44.4994 50.7629 44.6248 50.5397 44.848C50.3165 45.0712 50.1911 45.3742 50.1911 45.6899V50.8483H47.8101V45.6899C47.8101 45.3742 47.6847 45.0712 47.4614 44.848C47.2382 44.6248 46.9353 44.4994 46.6196 44.4994H41.4612V42.1184H46.6196C46.9353 42.1184 47.2382 41.993 47.4614 41.7698C47.6847 41.5465 47.8101 41.2436 47.8101 40.9279V35.7695H50.1911V40.9279C50.1911 41.2436 50.3165 41.5465 50.5397 41.7698C50.7629 41.993 51.0659 42.1184 51.3816 42.1184H56.54V44.4994ZM56.8376 62.5553C56.8376 62.871 56.7122 63.174 56.489 63.3972C56.2657 63.6204 55.9628 63.7458 55.6471 63.7458H53.2661C52.6087 63.7458 52.0756 63.2128 52.0756 62.5553C52.0756 61.8979 52.6087 61.3649 53.2661 61.3649H55.6471C55.9628 61.3649 56.2657 61.4903 56.489 61.7135C56.7122 61.9367 56.8376 62.2397 56.8376 62.5553ZM63.9805 62.5553C63.9805 62.871 63.8551 63.174 63.6319 63.3972C63.4087 63.6204 63.1057 63.7458 62.79 63.7458H60.4091C59.7516 63.7458 59.2186 63.2128 59.2186 62.5553C59.2186 61.8979 59.7516 61.3649 60.4091 61.3649H62.79C63.1057 61.3649 63.4087 61.4903 63.6319 61.7135C63.8551 61.9367 63.9805 62.2397 63.9805 62.5553ZM42.5517 57.7934C42.5517 58.1091 42.4263 58.412 42.2031 58.6352C41.9799 58.8585 41.6769 58.9839 41.3612 58.9839H38.9803C38.3228 58.9839 37.7898 58.4508 37.7898 57.7934C37.7898 57.136 38.3228 56.6029 38.9803 56.6029H41.3612C41.6769 56.6029 41.9799 56.7283 42.2031 56.9515C42.4263 57.1748 42.5517 57.4777 42.5517 57.7934ZM49.6947 57.7934C49.6947 58.1091 49.5692 58.412 49.346 58.6352C49.1228 58.8585 48.8199 58.9839 48.5042 58.9839H46.1232C45.4658 58.9839 44.9327 58.4508 44.9327 57.7934C44.9327 57.136 45.4658 56.6029 46.1232 56.6029H48.5042C48.8199 56.6029 49.1228 56.7283 49.346 56.9515C49.5692 57.1748 49.6947 57.4777 49.6947 57.7934ZM56.8376 57.7934C56.8376 58.1091 56.7122 58.412 56.489 58.6352C56.2657 58.8585 55.9628 58.9839 55.6471 58.9839H53.2661C52.6087 58.9839 52.0756 58.4508 52.0756 57.7934C52.0756 57.136 52.6087 56.6029 53.2661 56.6029H55.6471C55.9628 56.6029 56.2657 56.7283 56.489 56.9515C56.7122 57.1748 56.8376 57.4777 56.8376 57.7934ZM63.9805 57.7934C63.9805 58.1091 63.8551 58.412 63.6319 58.6352C63.4087 58.8585 63.1057 58.9839 62.79 58.9839H60.4091C59.7516 58.9839 59.2186 58.4508 59.2186 57.7934C59.2186 57.136 59.7516 56.6029 60.4091 56.6029H62.79C63.1057 56.6029 63.4087 56.7283 63.6319 56.9515C63.8551 57.1748 63.9805 57.4777 63.9805 57.7934ZM63.9805 67.3173C63.9805 67.633 63.8551 67.9359 63.6319 68.1592C63.4087 68.3824 63.1057 68.5078 62.79 68.5078H60.4091C59.7516 68.5078 59.2186 67.9747 59.2186 67.3173C59.2186 66.6599 59.7516 66.1268 60.4091 66.1268H62.79C63.1057 66.1268 63.4087 66.2522 63.6319 66.4755C63.8551 66.6987 63.9805 67.0016 63.9805 67.3173ZM56.8376 67.3173C56.8376 67.633 56.7122 67.9359 56.489 68.1592C56.2657 68.3824 55.9628 68.5078 55.6471 68.5078H53.2661C52.6087 68.5078 52.0756 67.9747 52.0756 67.3173C52.0756 66.6599 52.6087 66.1268 53.2661 66.1268H55.6471C55.9628 66.1268 56.2657 66.2522 56.489 66.4755C56.7122 66.6987 56.8376 67.0016 56.8376 67.3173Z" fill="white"/>
</svg>
