<svg width="80" height="80" viewBox="0 0 80 80" fill="none" xmlns="http://www.w3.org/2000/svg">
<path d="M72.2575 3.73633H44.1444C41.5335 3.73633 39.4092 5.86069 39.4092 8.47157V25.5892C39.4092 28.1994 41.5329 30.3244 44.1444 30.3244H46.3038V35.4718C46.3038 36.0639 46.6472 36.602 47.1847 36.8507C47.3889 36.9455 47.607 36.9919 47.8239 36.9919C48.1769 36.9919 48.5267 36.8685 48.8072 36.6313L56.2437 30.3251H72.2577C74.8686 30.3239 76.993 28.1988 76.993 25.5886V8.47094C76.993 5.86072 74.8686 3.73636 72.2571 3.73636L72.2575 3.73633ZM73.9538 25.5889C73.9538 26.5239 73.1925 27.2845 72.2575 27.2845H55.687C55.327 27.2845 54.9784 27.4124 54.7037 27.6452L49.3438 32.1902V28.8046C49.3438 27.9651 48.6633 27.2852 47.8244 27.2852H44.1455C43.2106 27.2852 42.4499 26.5245 42.4499 25.5895V8.47186C42.4499 7.53689 43.2106 6.77621 44.1455 6.77621H72.2587C73.1936 6.77685 73.955 7.53691 73.955 8.47186L73.9538 25.5889Z" fill="white"/>
<path d="M60.1884 10.0938H56.2215V14.787H51.5283V18.7532H56.2215V23.4464H60.1884V18.7532H64.8817V14.787H60.1884V10.0938Z" fill="white"/>
<path d="M4.04906 62.4352V75.145C4.04906 75.9846 4.72961 76.6645 5.56853 76.6645H45.3073C46.1468 76.6645 46.8267 75.9839 46.8267 75.145V62.4352C46.8267 57.4384 42.7675 53.373 37.7793 53.373H31.0661C30.6196 53.373 30.196 53.5696 29.9072 53.9105L25.4379 59.1839L20.9679 53.9105C20.6791 53.5696 20.2555 53.373 19.809 53.373H13.0963C8.10786 53.373 4.04883 57.4386 4.04883 62.4352H4.04906ZM7.08865 62.4352C7.08865 59.1139 9.78354 56.412 13.0972 56.412H19.1057L24.2797 62.5166C24.8572 63.1978 26.0205 63.1978 26.598 62.5166L31.7714 56.412H37.7806C41.0937 56.412 43.7891 59.1139 43.7891 62.4352V73.6249L7.08865 73.6255V62.4352Z" fill="white"/>
<path d="M25.438 51.8435C33.1111 51.8435 39.29 42.4003 39.29 34.5825C39.29 26.9438 33.076 20.7305 25.438 20.7305C17.7993 20.7305 11.5859 26.9445 11.5859 34.5825C11.5859 42.4007 17.7649 51.8435 25.438 51.8435ZM25.438 23.7694C31.4001 23.7694 36.2511 28.6198 36.2511 34.5825C36.2511 40.8512 31.1596 48.8042 25.438 48.8042C19.7164 48.8042 14.6249 40.8512 14.6249 34.5825C14.6255 28.6204 19.4759 23.7694 25.438 23.7694Z" fill="white"/>
<path d="M39.5896 64.4154H37.1643V61.9902C37.1643 61.1506 36.4838 60.4707 35.6449 60.4707C34.8053 60.4707 34.1254 61.1513 34.1254 61.9902V64.4154H31.7001C30.8606 64.4154 30.1807 65.096 30.1807 65.9349C30.1807 66.7745 30.8612 67.4544 31.7001 67.4544H34.1254L34.1248 69.8801C34.1248 70.7197 34.8053 71.3996 35.6442 71.3996C36.4838 71.3996 37.1637 70.719 37.1637 69.8801V67.4549H39.589C40.4285 67.4549 41.1084 66.7743 41.1084 65.9354C41.1091 65.0958 40.4285 64.4153 39.5896 64.4153V64.4154Z" fill="white"/>
</svg>
