<svg width="99" height="87" viewBox="0 0 99 87" fill="none" xmlns="http://www.w3.org/2000/svg">
<path d="M79.7831 26.3989H67.8036V23.061C67.8003 20.1282 66.6338 17.3167 64.5596 15.2436C62.4854 13.1699 59.673 12.0032 56.7399 12H41.2604C38.3273 12.0032 35.5149 13.17 33.4407 15.2436C31.3664 17.3167 30.1999 20.1282 30.1967 23.061V26.3989H18.2172C16.5686 26.4005 14.9883 27.0562 13.8229 28.2212C12.6574 29.3863 12.0015 30.9662 12 32.6142V67.7846C12.0016 69.4328 12.6575 71.0126 13.8229 72.1777C14.9883 73.3427 16.5687 73.9985 18.2172 74H79.7829C81.4314 73.9984 83.0117 73.3427 84.1771 72.1777C85.3426 71.0126 85.9985 69.4326 86 67.7846V32.6142C85.9984 30.9661 85.3425 29.3863 84.1771 28.2212C83.0117 27.0561 81.4316 26.4004 79.7831 26.3989ZM32.6224 23.061C32.6251 20.7713 33.536 18.5766 35.1554 16.9577C36.7748 15.3388 38.9703 14.4282 41.26 14.4254H56.7395C59.0293 14.4281 61.2248 15.3388 62.844 16.9577C64.4634 18.5766 65.3743 20.7715 65.377 23.061V26.3989H62.9508V23.061C62.9492 21.4146 62.2939 19.8363 61.1294 18.6718C59.9651 17.5077 58.3864 16.8532 56.7395 16.851H41.26C39.6131 16.8531 38.0343 17.5077 36.87 18.6718C35.7056 19.8364 35.0503 21.4146 35.0487 23.061V26.3989H32.6224V23.061ZM60.5243 26.3989H37.4749V23.061C37.476 22.0578 37.8751 21.0957 38.5846 20.3864C39.2946 19.6772 40.2565 19.2781 41.26 19.2765H56.7394C57.743 19.2782 58.7048 19.6772 59.4148 20.3864C60.1243 21.0957 60.5234 22.0578 60.5245 23.061L60.5243 26.3989ZM14.4256 32.6144C14.4266 31.6095 14.8269 30.6463 15.5374 29.936C16.2479 29.2257 17.2114 28.8256 18.2165 28.8245H79.7822C80.7874 28.8256 81.7508 29.2257 82.4614 29.936C83.1719 30.6463 83.5721 31.6095 83.5732 32.6144V45.2028C83.5721 46.2061 83.173 47.1676 82.4635 47.8774C81.7535 48.5867 80.7916 48.9857 79.7881 48.9868H63.8983C63.4926 43.9489 60.5677 39.4579 56.1235 37.0491C51.6787 34.6403 46.3183 34.6403 41.8738 37.0491C37.4296 39.4579 34.5046 43.9489 34.099 48.9868H18.2091C17.2056 48.9857 16.2437 48.5867 15.5337 47.8774C14.8243 47.1676 14.4251 46.206 14.4241 45.2028L14.4256 32.6144ZM61.535 50.2003C61.535 53.524 60.2141 56.7114 57.8637 59.0617C55.5127 61.4114 52.3245 62.7319 48.9997 62.7319C45.6749 62.7319 42.4867 61.4114 40.1357 59.0617C37.7853 56.7114 36.4645 53.5241 36.4645 50.2003C36.4645 46.8764 37.7854 43.6891 40.1357 41.3388C42.4867 38.9891 45.6749 37.6686 48.9997 37.6686C52.3234 37.6724 55.5094 38.994 57.8593 41.3433C60.2091 43.6925 61.5311 46.8777 61.535 50.2003ZM79.7831 71.5756H18.2174C17.2123 71.5745 16.2488 71.1744 15.5383 70.464C14.8278 69.7537 14.4275 68.7906 14.4265 67.7857V50.0917C15.5053 50.9428 16.8376 51.4079 18.2115 51.4133H34.1014C34.507 56.4512 37.432 60.9422 41.8762 63.351C46.3209 65.7598 51.6814 65.7598 56.1259 63.351C60.5701 60.9422 63.495 56.4512 63.9007 51.4133H79.7905C81.1645 51.4079 82.4969 50.9428 83.5756 50.0917V67.7857C83.5746 68.7906 83.1743 69.7537 82.4638 70.464C81.7532 71.1744 80.7898 71.5745 79.7847 71.5756H79.7831ZM16.8518 45.4254V32.6155C16.8518 31.9457 17.395 31.4027 18.0649 31.4027C18.7348 31.4027 19.2781 31.9457 19.2781 32.6155V45.4254C19.2781 46.0951 18.7348 46.6382 18.0649 46.6382C17.395 46.6382 16.8518 46.0951 16.8518 45.4254ZM78.7211 45.4254V32.6155C78.7211 31.9457 79.2643 31.4027 79.9342 31.4027C80.6042 31.4027 81.1474 31.9457 81.1474 32.6155V45.4254C81.1474 46.0951 80.6042 46.6382 79.9342 46.6382C79.2643 46.6382 78.7211 46.0951 78.7211 45.4254ZM52.6397 46.5624V42.1915C52.6391 41.6355 52.4176 41.1022 52.0244 40.7092C51.6312 40.3161 51.0978 40.0952 50.5416 40.0947H47.4591C46.9029 40.0952 46.3694 40.3161 45.9763 40.7092C45.5831 41.1023 45.3616 41.6356 45.361 42.1915V46.5624H40.9884C40.4322 46.5629 39.8993 46.7844 39.5062 47.1774C39.113 47.5705 38.892 48.1033 38.8915 48.6592V51.742C38.892 52.2981 39.113 52.8308 39.5062 53.2238C39.8993 53.6169 40.4323 53.8383 40.9884 53.8389H45.361V58.2097C45.3616 58.7657 45.5831 59.299 45.9763 59.6921C46.3695 60.0851 46.9029 60.306 47.4591 60.3066H50.5416C51.0978 60.306 51.6313 60.0851 52.0244 59.6921C52.4176 59.299 52.6391 58.7657 52.6397 58.2097V53.8389H57.0123C57.5685 53.8383 58.1014 53.6169 58.4945 53.2238C58.8877 52.8308 59.1087 52.298 59.1092 51.742V48.6592C59.1087 48.1032 58.8877 47.5704 58.4945 47.1774C58.1014 46.7844 57.5684 46.5629 57.0123 46.5624H52.6397ZM56.683 51.4135H51.4265C51.1048 51.4135 50.7961 51.5412 50.5687 51.7686C50.3412 51.996 50.2134 52.3046 50.2134 52.6262V57.8812H47.7872V52.6262C47.7872 52.3046 47.6593 51.996 47.4319 51.7686C47.2044 51.5412 46.8957 51.4135 46.574 51.4135H41.3175V48.9879H46.574C46.8957 48.9879 47.2044 48.8601 47.4319 48.6328C47.6593 48.4054 47.7872 48.0967 47.7872 47.7752V42.5202H50.2134V47.7752C50.2134 48.0967 50.3412 48.4054 50.5687 48.6328C50.7961 48.8601 51.1048 48.9879 51.4265 48.9879H56.683V51.4135Z" fill="white"/>
</svg>
