<svg width="57" height="58" viewBox="0 0 57 58" fill="none" xmlns="http://www.w3.org/2000/svg">
<path d="M5.52561 57.0354C4.30535 57.0354 3.15321 56.5575 2.28884 55.6903C1.43692 54.8412 0.95166 53.6584 0.95166 52.4535C0.95166 51.248 1.4375 50.0657 2.28884 49.2167L18.8425 32.6631L20.6399 34.4606L4.0863 51.0142C3.71001 51.3905 3.49377 51.9166 3.49377 52.4535C3.49377 52.9899 3.71001 53.5166 4.0863 53.8929C4.86159 54.6682 6.19136 54.6682 6.96724 53.8929L23.5223 37.3392L25.3198 39.1367L8.76471 55.6903C7.89804 56.5576 6.74872 57.0355 5.52561 57.0355V57.0354Z" fill="#F5BE0B"/>
<path d="M35.9028 43.1768C30.2657 43.1768 24.9669 40.9826 20.9823 36.9955C12.7543 28.7675 12.7543 15.3797 20.9823 7.1501C24.9666 3.16302 30.2682 0.96875 35.9057 0.96875C41.5432 0.96875 46.8416 3.16302 50.8291 7.1501C59.0571 15.3781 59.0571 28.7688 50.8291 36.9955C46.8403 40.9826 41.5409 43.1768 35.9042 43.1768H35.9028ZM35.9056 3.51086C30.9474 3.51086 26.2866 5.44054 22.7801 8.94699C15.5436 16.1862 15.5436 27.9605 22.7801 35.1977C26.2866 38.7042 30.9474 40.6339 35.9027 40.6339C40.861 40.6339 45.5241 38.7042 49.0306 35.1977C56.2671 27.9612 56.2671 16.1857 49.0306 8.94699C45.5241 5.44054 40.8639 3.51086 35.9056 3.51086Z" fill="#F5BE0B"/>
<path d="M40 13C40 12.7348 39.8946 12.4804 39.7071 12.2929C39.5196 12.1054 39.2652 12 39 12H33C32.7348 12 32.4804 12.1054 32.2929 12.2929C32.1054 12.4804 32 12.7348 32 13V18H27C26.7348 18 26.4804 18.1054 26.2929 18.2929C26.1054 18.4804 26 18.7348 26 19V25C26 25.2652 26.1054 25.5196 26.2929 25.7071C26.4804 25.8946 26.7348 26 27 26H32V31C32 31.2652 32.1054 31.5196 32.2929 31.7071C32.4804 31.8946 32.7348 32 33 32H39C39.2652 32 39.5196 31.8946 39.7071 31.7071C39.8946 31.5196 40 31.2652 40 31V26H45C45.2652 26 45.5196 25.8946 45.7071 25.7071C45.8946 25.5196 46 25.2652 46 25V19C46 18.7348 45.8946 18.4804 45.7071 18.2929C45.5196 18.1054 45.2652 18 45 18H40V13Z" stroke="#F5BE0B" stroke-width="2.3" stroke-linecap="round" stroke-linejoin="round"/>
</svg>
