<svg width="40" height="57" viewBox="0 0 40 57" fill="none" xmlns="http://www.w3.org/2000/svg">
<path d="M29.2039 18.6452H26.7123V15.9334C26.7123 15.6205 26.4009 15.3076 26.0894 15.3076H25.6741C25.3108 15.3076 25.0512 15.6205 25.0512 15.9334V18.6452H15.0848V15.9334C15.0848 15.6205 14.7733 15.3076 14.4618 15.3076H14.0466C13.6832 15.3076 13.4237 15.6205 13.4237 15.9334V18.6452H10.9321C9.53051 18.6452 8.44043 19.7924 8.44043 21.1483V39.5048C8.44043 40.9128 9.53051 42.008 10.9321 42.008H29.2039C30.5536 42.008 31.6956 40.9128 31.6956 39.5048V21.1483C31.6956 19.7924 30.5536 18.6452 29.2039 18.6452ZM10.9321 20.3139H29.2039C29.6192 20.3139 30.0345 20.7311 30.0345 21.1483V23.6515H10.1015V21.1483C10.1015 20.7311 10.4649 20.3139 10.9321 20.3139ZM29.2039 40.3392H10.9321C10.4649 40.3392 10.1015 39.9741 10.1015 39.5048V25.3202H30.0345V39.5048C30.0345 39.9741 29.6192 40.3392 29.2039 40.3392ZM16.1229 31.9953C16.4344 31.9953 16.7458 31.7346 16.7458 31.3695V29.2836C16.7458 28.9707 16.4344 28.6578 16.1229 28.6578H14.0466C13.6832 28.6578 13.4237 28.9707 13.4237 29.2836V31.3695C13.4237 31.7346 13.6832 31.9953 14.0466 31.9953H16.1229ZM21.1062 31.9953C21.4176 31.9953 21.7291 31.7346 21.7291 31.3695V29.2836C21.7291 28.9707 21.4176 28.6578 21.1062 28.6578H19.0298C18.6665 28.6578 18.4069 28.9707 18.4069 29.2836V31.3695C18.4069 31.7346 18.6665 31.9953 19.0298 31.9953H21.1062ZM26.0894 31.9953C26.4009 31.9953 26.7123 31.7346 26.7123 31.3695V29.2836C26.7123 28.9707 26.4009 28.6578 26.0894 28.6578H24.0131C23.6497 28.6578 23.3902 28.9707 23.3902 29.2836V31.3695C23.3902 31.7346 23.6497 31.9953 24.0131 31.9953H26.0894ZM21.1062 37.0016C21.4176 37.0016 21.7291 36.7409 21.7291 36.3759V34.2899C21.7291 33.977 21.4176 33.6641 21.1062 33.6641H19.0298C18.6665 33.6641 18.4069 33.977 18.4069 34.2899V36.3759C18.4069 36.7409 18.6665 37.0016 19.0298 37.0016H21.1062ZM16.1229 37.0016C16.4344 37.0016 16.7458 36.7409 16.7458 36.3759V34.2899C16.7458 33.977 16.4344 33.6641 16.1229 33.6641H14.0466C13.6832 33.6641 13.4237 33.977 13.4237 34.2899V36.3759C13.4237 36.7409 13.6832 37.0016 14.0466 37.0016H16.1229ZM26.0894 37.0016C26.4009 37.0016 26.7123 36.7409 26.7123 36.3759V34.2899C26.7123 33.977 26.4009 33.6641 26.0894 33.6641H24.0131C23.6497 33.6641 23.3902 33.977 23.3902 34.2899V36.3759C23.3902 36.7409 23.6497 37.0016 24.0131 37.0016H26.0894Z" fill="#999999"/>
</svg>
