<svg width="40" height="56" viewBox="0 0 40 56" fill="none" xmlns="http://www.w3.org/2000/svg">
<path d="M29.1349 8.71729H11.135C10.457 8.71804 9.80663 8.98713 9.32727 9.46556C8.84767 9.94373 8.57793 10.5925 8.57715 11.2689V40.754C8.57791 41.4304 8.84766 42.0792 9.32727 42.5574C9.80662 43.0358 10.457 43.3048 11.135 43.3056H29.1349C29.8129 43.3049 30.4633 43.0358 30.9426 42.5574C31.4222 42.0792 31.692 41.4304 31.6928 40.754V11.2689C31.692 10.5925 31.4222 9.94374 30.9426 9.46556C30.4633 8.98714 29.8129 8.71806 29.1349 8.71729ZM30.5559 40.7544C30.5557 41.1303 30.4057 41.4904 30.1392 41.7563C29.8728 42.0221 29.5117 42.1717 29.1349 42.1719H11.135C10.7582 42.1717 10.3971 42.0221 10.1307 41.7563C9.86421 41.4905 9.71423 41.1303 9.71398 40.7544V11.2692C9.71423 10.8933 9.86421 10.5331 10.1307 10.2673C10.3971 10.0015 10.7582 9.8519 11.135 9.85165H29.1349C29.5117 9.8519 29.8728 10.0015 30.1392 10.2673C30.4057 10.5331 30.5557 10.8933 30.5559 11.2692V40.7544ZM28.8507 10.9854H11.4193C11.2685 10.9854 11.1239 11.0451 11.0173 11.1514C10.9107 11.2577 10.8508 11.402 10.8508 11.5524V40.4705C10.8508 40.6209 10.9107 40.7652 11.0173 40.8715C11.1239 40.9778 11.2685 41.0375 11.4193 41.0375H28.8507C29.0014 41.0375 29.146 40.9778 29.2526 40.8715C29.3592 40.7652 29.4191 40.6209 29.4191 40.4705V11.5524C29.4191 11.402 29.3592 11.2577 29.2526 11.1514C29.146 11.0451 29.0014 10.9854 28.8507 10.9854ZM28.2822 39.9035H11.9877V12.1194H28.2822V39.9035ZM16.0381 20.0337C16.8108 20.0337 17.5518 19.7275 18.0981 19.1827C18.6445 18.6377 18.9513 17.8986 18.9513 17.1277C18.9513 16.3569 18.6445 15.6178 18.0981 15.0728C17.5518 14.5278 16.8108 14.2217 16.0381 14.2217C15.2654 14.2217 14.5244 14.5278 13.9781 15.0728C13.432 15.6178 13.1249 16.3569 13.1249 17.1277C13.1257 17.8983 13.433 18.6369 13.979 19.1817C14.5251 19.7264 15.2656 20.033 16.038 20.0337L16.0381 20.0337ZM16.0381 18.8997C15.7661 18.8979 15.4981 18.8331 15.2555 18.7104L17.6246 16.3471C17.7477 16.5891 17.8126 16.8564 17.8144 17.1278C17.8139 17.5976 17.6264 18.0479 17.2935 18.38C16.9605 18.7121 16.5091 18.8989 16.0381 18.8997L16.0381 18.8997ZM16.0381 15.3558C16.3101 15.3576 16.5781 15.4224 16.8207 15.5451L14.4516 17.9084C14.3285 17.6664 14.2635 17.3991 14.2618 17.1277C14.2625 16.6579 14.4498 16.2076 14.7827 15.8755C15.1157 15.5434 15.5671 15.3563 16.0381 15.3558L16.0381 15.3558ZM24.2325 20.0337C25.0052 20.0337 25.7462 19.7275 26.2925 19.1827C26.8386 18.6377 27.1456 17.8986 27.1456 17.1277C27.1456 16.3569 26.8386 15.6178 26.2925 15.0728C25.7461 14.5278 25.0052 14.2217 24.2325 14.2217C23.4597 14.2217 22.7188 14.5278 22.1724 15.0728C21.6261 15.6178 21.3193 16.3569 21.3193 17.1277C21.32 17.8983 21.6274 18.6369 22.1734 19.1817C22.7195 19.7264 23.46 20.033 24.2324 20.0337L24.2325 20.0337ZM24.2325 18.8997C23.9604 18.8979 23.6925 18.8331 23.4499 18.7104L25.819 16.3471C25.9421 16.5891 26.007 16.8564 26.0088 17.1278C26.008 17.5976 25.8208 18.0479 25.4878 18.38C25.1549 18.7121 24.7035 18.8989 24.2325 18.8997L24.2325 18.8997ZM24.2325 15.3558C24.5045 15.3576 24.7725 15.4224 25.0151 15.5451L22.646 17.9084C22.5229 17.6664 22.4579 17.3991 22.4561 17.1277C22.4566 16.6579 22.6442 16.2076 22.9771 15.8755C23.31 15.5434 23.7615 15.3563 24.2324 15.3558L24.2325 15.3558ZM16.0381 28.7744C16.8108 28.7744 17.5518 28.4681 18.0981 27.9231C18.6445 27.3781 18.9513 26.639 18.9513 25.8684C18.9513 25.0976 18.6445 24.3585 18.0981 23.8135C17.5518 23.2685 16.8108 22.9624 16.0381 22.9624C15.2654 22.9624 14.5244 23.2685 13.9781 23.8135C13.432 24.3585 13.1249 25.0976 13.1249 25.8684C13.1257 26.6387 13.433 27.3774 13.979 27.9224C14.5251 28.4671 15.2656 28.7734 16.038 28.7744L16.0381 28.7744ZM16.0381 27.6404C15.7661 27.6386 15.4981 27.5738 15.2555 27.4508L17.6249 25.0878C17.7477 25.3298 17.8126 25.5971 17.8144 25.8682C17.8139 26.338 17.6264 26.7883 17.2935 27.1207C16.9605 27.4528 16.5091 27.6396 16.0381 27.6404L16.0381 27.6404ZM16.0381 24.0965C16.3104 24.098 16.5783 24.163 16.8212 24.2858L14.4516 26.6491C14.3285 26.4071 14.2635 26.1398 14.2618 25.8684C14.2623 25.3986 14.4498 24.9483 14.7827 24.6162C15.1157 24.2838 15.5671 24.097 16.0381 24.0965L16.0381 24.0965ZM24.2325 28.7744C25.0052 28.7744 25.7462 28.4681 26.2925 27.9231C26.8386 27.3781 27.1456 26.639 27.1456 25.8684C27.1456 25.0976 26.8386 24.3585 26.2925 23.8135C25.7461 23.2685 25.0052 22.9624 24.2325 22.9624C23.4597 22.9624 22.7188 23.2685 22.1724 23.8135C21.6261 24.3585 21.3193 25.0976 21.3193 25.8684C21.32 26.6387 21.6274 27.3774 22.1734 27.9224C22.7195 28.4671 23.46 28.7734 24.2324 28.7744L24.2325 28.7744ZM24.2325 27.6404C23.9604 27.6386 23.6925 27.5738 23.4499 27.4508L25.8192 25.0878H25.819C25.9421 25.3298 26.007 25.5971 26.0088 25.8682C26.008 26.338 25.8208 26.7883 25.4878 27.1207C25.1549 27.4528 24.7035 27.6396 24.2325 27.6404L24.2325 27.6404ZM24.2325 24.0965C24.5048 24.098 24.7727 24.163 25.0153 24.2858L22.646 26.6488V26.6491C22.5229 26.4071 22.4579 26.1398 22.4561 25.8682C22.4569 25.3986 22.6442 24.9483 22.9771 24.6162C23.31 24.2838 23.7615 24.097 24.2324 24.0965L24.2325 24.0965ZM16.0381 37.5151V37.5149C16.8108 37.5149 17.5518 37.2088 18.0981 36.6638C18.6445 36.1188 18.9513 35.3797 18.9513 34.6089C18.9513 33.838 18.6445 33.0989 18.0981 32.5542C17.5518 32.0092 16.8108 31.7029 16.0381 31.7029C15.2654 31.7029 14.5244 32.0092 13.9781 32.5542C13.432 33.0989 13.1249 33.838 13.1249 34.6089C13.1257 35.3794 13.433 36.1181 13.979 36.6628C14.5251 37.2075 15.2656 37.5141 16.038 37.5148L16.0381 37.5151ZM16.0381 36.3811V36.3808C15.7658 36.3791 15.4976 36.3143 15.2547 36.191L17.6241 33.8274C17.7477 34.0697 17.8126 34.3373 17.8144 34.6089C17.8139 35.0787 17.6264 35.529 17.2934 35.8611C16.9605 36.1935 16.5091 36.3803 16.0381 36.3808L16.0381 36.3811ZM16.0381 32.8372V32.8369C16.3099 32.8387 16.5776 32.9032 16.8202 33.026L14.4513 35.389C14.3282 35.147 14.2635 34.88 14.2618 34.6089C14.2625 34.1391 14.4498 33.6887 14.7827 33.3566C15.1157 33.0245 15.5671 32.8377 16.0381 32.8369L16.0381 32.8372ZM24.2325 37.5151V37.5149C25.0052 37.5149 25.7462 37.2088 26.2925 36.6638C26.8386 36.1188 27.1456 35.3797 27.1456 34.6089C27.1456 33.838 26.8386 33.0989 26.2925 32.5542C25.7461 32.0092 25.0052 31.7029 24.2325 31.7029C23.4597 31.7029 22.7188 32.0092 22.1724 32.5542C21.6261 33.0989 21.3193 33.838 21.3193 34.6089C21.32 35.3794 21.6274 36.1181 22.1734 36.6628C22.7195 37.2075 23.46 37.5141 24.2324 37.5148L24.2325 37.5151ZM24.2325 36.3811V36.3808C23.9602 36.3791 23.692 36.3143 23.4491 36.191L25.8185 33.8274C25.9418 34.0697 26.007 34.3373 26.0088 34.6089C26.0083 35.0787 25.8207 35.529 25.4878 35.8611C25.1549 36.1935 24.7035 36.3803 24.2325 36.3808L24.2325 36.3811ZM24.2325 32.8372V32.8369C24.5042 32.8387 24.772 32.9032 25.0143 33.026L22.6454 35.389H22.6457C22.5226 35.147 22.4579 34.88 22.4561 34.6089C22.4566 34.1391 22.6442 33.6887 22.9771 33.3566C23.31 33.0245 23.7614 32.8377 24.2324 32.8369L24.2325 32.8372Z" fill="#999999"/>
</svg>
