<svg width="27" height="33" viewBox="0 0 27 33" fill="none" xmlns="http://www.w3.org/2000/svg">
<path d="M23.7227 30.6612C23.7227 29.4732 22.7601 28.5098 21.5733 28.5098C20.3871 28.5098 19.4245 29.4732 19.4245 30.6612C19.4245 31.8485 20.3871 32.8119 21.5733 32.8119C22.7601 32.8119 23.7227 31.8485 23.7227 30.6612Z" fill="#9B9B9B"/>
<path d="M14.2982 30.6612C14.2982 29.4732 13.3356 28.5098 12.1488 28.5098C10.9626 28.5098 10 29.4732 10 30.6612C10 31.8485 10.9626 32.8119 12.1488 32.8119C13.3356 32.8119 14.2982 31.8485 14.2982 30.6612Z" fill="#9B9B9B"/>
<path d="M19.383 12.628C19.7391 11.9859 19.7283 11.2405 19.4212 10.6316L15.7582 12.7932C15.9404 13.0603 16.1857 13.2918 16.4883 13.4595C17.5171 14.0296 18.8135 13.6572 19.383 12.628Z" fill="#9B9B9B"/>
<path d="M18.5536 9.72929C17.5248 9.15924 16.2284 9.53162 15.6588 10.5608C15.3161 11.1793 15.3142 11.8947 15.5907 12.4909L19.2416 10.3363C19.0645 10.094 18.8339 9.88487 18.5536 9.72929Z" fill="#9B9B9B"/>
<path d="M21.9217 4.26724C20.8928 3.69719 19.5971 4.06893 19.0269 5.09873C18.6842 5.71788 18.6823 6.43268 18.9575 7.02951L22.6103 4.87428C22.4326 4.63133 22.202 4.42282 21.9217 4.26724Z" fill="#9B9B9B"/>
<path d="M22.7511 7.16596C23.1072 6.52322 23.0964 5.77845 22.7893 5.16887L19.1269 7.33048C19.3145 7.60718 19.5646 7.83569 19.857 7.99745C20.8852 8.5675 22.1816 8.19512 22.7511 7.16596Z" fill="#9B9B9B"/>
<path d="M1 9.49992C1 9.49992 4 8.99992 4.5 10.4999C4.78896 11.3668 5.90211 15.5762 7 19.5C7.80186 22.3658 8.44478 25.1558 9.5 26C10.4782 26.7826 11.5 26.5 15.5 26.5C19.5 26.5 24 26.5 24 26.5" stroke="#9B9B9B" stroke-width="0.8" stroke-linecap="round"/>
<path fill-rule="evenodd" clip-rule="evenodd" d="M14.1764 12.6H5.5C5.37596 12.6 5.25894 12.6575 5.18321 12.7558C5.10748 12.854 5.08161 12.9818 5.11317 13.1018L7.61317 22.6018C7.65942 22.7775 7.81829 22.9 8 22.9H23.5C23.6817 22.9 23.8406 22.7775 23.8868 22.6018L26.3868 13.1018C26.4184 12.9818 26.3925 12.854 26.3168 12.7558C26.2411 12.6575 26.124 12.6 26 12.6H20.8237C20.7295 12.8846 20.5998 13.153 20.4399 13.4H25.4811L23.1916 22.1H8.30836L6.01888 13.4H14.5601C14.4002 13.153 14.2705 12.8846 14.1764 12.6Z" fill="#9B9B9B"/>
<path d="M12 16V19" stroke="#9B9B9B" stroke-linecap="round" stroke-linejoin="round"/>
<path d="M16 16V19" stroke="#9B9B9B" stroke-linecap="round" stroke-linejoin="round"/>
<path d="M20 16V19" stroke="#9B9B9B" stroke-linecap="round" stroke-linejoin="round"/>
<path d="M14.0425 1.10493C14.6503 0.0502681 16.0097 -0.313826 17.0621 0.295123C18.1152 0.903434 18.4789 2.26416 17.8718 3.31755C16.6149 5.49638 15.3612 7.65352 14.105 9.83171C13.8024 10.3565 13.3125 10.7091 12.7678 10.8558C12.2238 11.0018 11.623 10.9406 11.0987 10.6377C10.5751 10.3348 10.2221 9.84446 10.0756 9.29992C9.92974 8.75537 9.9909 8.15407 10.2941 7.62929C11.5504 5.44792 12.7837 3.28631 14.0425 1.10493ZM15.2899 6.80546L12.3384 5.1004L10.7369 7.87606C10.5031 8.28288 10.4559 8.74708 10.5693 9.17047C10.6827 9.59323 10.9554 9.97263 11.3606 10.2073C11.7664 10.4413 12.2308 10.4885 12.6531 10.3743C13.0748 10.2615 13.4545 9.98793 13.689 9.58175L15.2899 6.80546Z" fill="#9B9B9B"/>
</svg>
