<svg width="32" height="32" viewBox="0 0 32 32" fill="none" xmlns="http://www.w3.org/2000/svg">
<path d="M28.3427 14.6163C28.9747 15.443 28.9747 16.559 28.3427 17.3843C26.352 19.983 21.576 25.3337 16 25.3337C10.424 25.3337 5.64799 19.983 3.65733 17.3843C3.34984 16.9885 3.18292 16.5016 3.18292 16.0003C3.18292 15.4991 3.34984 15.0121 3.65733 14.6163C5.64799 12.0177 10.424 6.66699 16 6.66699C21.576 6.66699 26.352 12.0177 28.3427 14.6163V14.6163Z" stroke="#666666" stroke-width="2" stroke-linecap="round" stroke-linejoin="round"/>
<path d="M16 20C18.2091 20 20 18.2091 20 16C20 13.7909 18.2091 12 16 12C13.7909 12 12 13.7909 12 16C12 18.2091 13.7909 20 16 20Z" stroke="#666666" stroke-width="2" stroke-linecap="round" stroke-linejoin="round"/>
</svg>
