<svg width="99" height="42" viewBox="0 0 99 42" fill="none" xmlns="http://www.w3.org/2000/svg">
<path fill-rule="evenodd" clip-rule="evenodd" d="M76.7011 16.5804C76.5646 17.3212 76.3491 18.1765 76.0599 19.1192C75.7693 20.0618 75.3969 21.0563 74.9576 22.0644C74.4802 23.0808 73.985 24.0316 73.4884 24.8883C72.9973 25.7368 72.5062 26.4667 72.0356 27.0573C71.5759 27.633 71.1489 28.0587 70.7696 28.3233C70.4832 28.5225 70.3235 28.5443 70.269 28.5443C70.2433 28.5443 70.2225 28.5402 70.2007 28.5304C70.1528 28.5087 69.9934 28.4022 69.9238 27.896C69.8583 27.4322 69.894 26.8224 70.0261 26.0844C70.1626 25.3246 70.3768 24.461 70.6673 23.5238C70.9537 22.5866 71.3262 21.5922 71.7723 20.5704C72.2143 19.5568 72.6972 18.6114 73.2101 17.7588C73.7203 16.9076 74.2169 16.1859 74.6875 15.613C75.1446 15.0536 75.5715 14.6348 75.9562 14.3661C76.2441 14.1669 76.4023 14.1451 76.4569 14.1451C76.4845 14.1451 76.5048 14.1492 76.5237 14.159C76.5717 14.1796 76.7311 14.2872 76.802 14.7934C76.866 15.2572 76.8318 15.8574 76.701 16.5804M57.5506 16.5804C57.4142 17.3212 57.1987 18.1765 56.9095 19.1192C56.6176 20.0673 56.2451 21.0604 55.8072 22.0644C55.3284 23.0835 54.8332 24.0343 54.338 24.8883C53.8456 25.7382 53.3558 26.468 52.8851 27.0573C52.4254 27.633 51.9998 28.0587 51.6178 28.3233C51.3314 28.5225 51.1731 28.5443 51.1185 28.5443C51.0928 28.5443 51.0721 28.5402 51.0503 28.5309C51.0023 28.5092 50.843 28.4026 50.7734 27.8965C50.7079 27.4341 50.742 26.8256 50.8757 26.0849C51.0107 25.3264 51.2263 24.4656 51.5169 23.5243C51.8033 22.5858 52.1758 21.5927 52.6218 20.5709C53.0652 19.5546 53.5495 18.6092 54.0583 17.7593C54.5712 16.9067 55.0678 16.185 55.5371 15.6134C55.9955 15.0541 56.4238 14.634 56.8058 14.3666C57.0922 14.1674 57.2519 14.1456 57.3064 14.1456C57.334 14.1456 57.3544 14.1497 57.3732 14.159C57.4212 14.1796 57.5819 14.2872 57.6516 14.7934C57.7157 15.2572 57.6814 15.8574 57.5506 16.5804M36.8015 16.3895C36.7169 17.1425 36.5532 18.0019 36.3144 18.9459C36.0743 19.8872 35.7469 20.8776 35.339 21.8926C34.9325 22.9021 34.5001 23.8515 34.0512 24.7137C33.612 25.5568 33.1686 26.2757 32.7307 26.8514C32.3051 27.4107 31.9054 27.8281 31.5412 28.0914C31.2724 28.2865 31.1223 28.3083 31.0719 28.3083C31.0487 28.3083 31.028 28.3042 31.0064 28.2944C30.9574 28.2728 30.7881 28.1621 30.7008 27.6478C30.619 27.1771 30.6121 26.5701 30.6776 25.8416C30.7458 25.1022 30.9 24.2523 31.1373 23.3165C31.3747 22.3793 31.7034 21.3876 32.1127 20.3699C32.5246 19.3468 32.9585 18.3986 33.4018 17.5474C33.8384 16.7057 34.2831 15.9786 34.7237 15.3852C35.1466 14.8122 35.5477 14.3893 35.9106 14.126C36.1793 13.9309 36.3294 13.9091 36.3812 13.9091C36.4044 13.9091 36.425 13.9132 36.4439 13.923C36.4958 13.9447 36.6717 14.0595 36.7795 14.5806C36.875 15.0444 36.8819 15.6528 36.8003 16.3908M78.7583 10.1333C79.761 10.1333 80.6231 10.4403 81.3216 11.0473C81.9955 11.6326 82.477 12.4688 82.7512 13.5315C83.0172 14.5615 83.0719 15.807 82.9149 17.2353C82.758 18.6458 82.3461 20.2556 81.6872 22.0194C81.0665 23.6865 80.3544 25.153 79.5741 26.3766C79.1962 26.9714 78.8074 27.528 78.4131 28.0423C78.3626 28.1078 78.4381 28.1937 78.51 28.1542C78.7392 28.03 78.967 27.895 79.1921 27.7476C79.705 27.4162 80.1975 27.0587 80.6654 26.6808C81.9709 25.6236 82.919 24.1939 83.3801 22.5869C83.6557 21.6197 83.9612 20.6607 84.2941 19.7153C84.8398 18.1588 85.4223 16.706 86.0266 15.3963C86.6269 14.0908 87.1261 13.1141 87.5108 12.4906C87.9474 11.7813 88.5585 11.3393 89.332 11.1756C90.055 11.0228 90.7467 11.0337 91.3824 11.2055C92.0331 11.3828 92.5651 11.7048 92.9621 12.1658C93.3945 12.6692 93.4887 13.2422 93.2322 13.8233C93.1558 14.0238 92.9553 14.4822 92.6361 15.1875C92.3155 15.8969 91.9554 16.7249 91.5366 17.7235C91.1341 18.6825 90.7208 19.7207 90.3088 20.8066C89.9064 21.8734 89.5912 22.8692 89.373 23.7668C89.1602 24.6399 89.0769 25.3657 89.1247 25.9236C89.1711 26.457 89.3744 26.457 89.4848 26.457C89.6403 26.457 89.9159 26.3833 90.3443 26.0341C90.7562 25.693 91.1914 25.2824 91.6402 24.8077C92.0891 24.3316 92.5201 23.8187 92.9185 23.2839C93.2827 22.7969 93.5951 22.3658 93.8488 22.0016C94.0698 21.6837 94.4218 21.5023 94.8133 21.5023C95.2267 21.5023 95.6277 21.7097 95.8365 22.0302C96.0397 22.344 96.0343 22.7178 95.8187 23.0534C95.5486 23.4749 95.0766 24.1815 94.3754 25.217C93.681 26.2401 92.8502 27.2946 91.9062 28.3532C90.9458 29.4268 89.8968 30.3804 88.785 31.1866C87.6159 32.0365 86.4345 32.4662 85.2763 32.4662C84.2286 32.4662 83.4469 32.1033 82.9517 31.3858C82.5017 30.731 82.2725 29.8525 82.2725 28.7747V28.6028C82.2752 28.4746 82.1251 28.4023 82.0256 28.4828C81.8059 28.6588 81.5795 28.8334 81.3489 29.0053C79.9873 30.0189 78.4157 30.8783 76.675 31.5618C75.1212 32.1729 73.4092 32.4826 71.5866 32.4826L71.2156 32.4785L70.8432 32.4661C69.6018 32.4634 68.6809 32.0746 68.1039 31.3066C68.0016 31.1715 67.9074 31.0324 67.8242 30.8891C67.7574 30.7745 67.5841 30.7936 67.546 30.9216C67.3591 31.545 67.1818 32.1466 67.018 32.7223C66.6633 33.9596 66.3605 35.0305 66.0945 35.9964C65.8271 36.9649 65.5952 37.8475 65.4042 38.6238C65.22 39.3713 65.0918 39.977 65.0263 40.4259L65.0222 40.4425C64.8544 41.2924 64.28 41.5911 63.8258 41.6934C63.6239 41.7383 63.4138 41.7617 63.201 41.7617C62.8163 41.7617 62.4097 41.6866 61.9937 41.5407C61.3607 41.3169 60.7918 40.9309 60.3007 40.392C59.7919 39.8327 59.5341 39.1329 59.5341 38.3117C59.5341 38.1452 59.5763 37.781 59.9024 36.44C60.1466 35.451 60.4754 34.2205 60.8833 32.7813C61.1589 31.8059 61.4726 30.7445 61.8205 29.6095C61.8612 29.4731 61.7059 29.3599 61.5885 29.4404C60.3758 30.2657 59.0157 30.9792 57.5315 31.5617C55.9763 32.1728 54.2656 32.4825 52.4431 32.4825C52.1975 32.4825 51.9465 32.4768 51.6982 32.466C50.4582 32.4633 49.5374 32.0744 48.959 31.3064C48.8567 31.1714 48.7639 31.0336 48.6807 30.889C48.6125 30.7744 48.4406 30.7949 48.4024 30.9215C48.2141 31.5463 48.0368 32.1492 47.8731 32.7222C47.517 33.9636 47.2142 35.0358 46.9509 35.9962C46.6835 36.9648 46.4503 37.8474 46.2593 38.6236C46.0751 39.3726 45.9482 39.9783 45.8814 40.4257L45.8787 40.4424C45.7109 41.2922 45.1352 41.591 44.6809 41.6933C44.479 41.7382 44.2703 41.7615 44.0575 41.7615C43.6728 41.7615 43.2663 41.6865 42.8488 41.5405C42.2158 41.3168 41.6483 40.9307 41.1572 40.3919C40.6484 39.8326 40.3906 39.1327 40.3906 38.3115C40.3906 38.1437 40.4313 37.7795 40.7589 36.4398C41.0045 35.4413 41.3332 34.2108 41.7384 32.7811C41.9785 31.9312 42.2445 31.0254 42.5433 30.0473C42.5871 29.8999 42.4068 29.7881 42.2923 29.8931C41.7834 30.357 41.2596 30.7894 40.7221 31.185C39.5694 32.0349 38.3962 32.466 37.2366 32.466C36.1889 32.466 35.4059 32.1031 34.912 31.3855C34.7129 31.0962 34.5574 30.7619 34.4442 30.3868C34.3446 30.0526 33.9163 29.9502 33.6735 30.2026C33.3324 30.5573 32.9573 30.8806 32.5548 31.1657C32.031 31.5368 31.4457 31.8478 30.8128 32.0906C30.1607 32.3389 29.4554 32.4658 28.716 32.4658C27.7161 32.4658 26.8389 32.1616 26.1104 31.56C25.4011 30.9788 24.8758 30.1549 24.5471 29.1085C24.2279 28.095 24.1105 26.8495 24.1979 25.4048C24.2852 23.9779 24.6098 22.3763 25.1637 20.6424C26.3437 17.0465 27.8825 14.3767 29.7392 12.7029C31.6299 10.9977 33.548 10.1328 35.4401 10.1328C36.2409 10.1328 36.9189 10.2938 37.4522 10.6102C37.9775 10.924 38.3826 11.3387 38.6568 11.8434C38.8396 12.1831 38.9733 12.5474 39.0552 12.9348C39.0699 13.003 39.1629 13.0166 39.1971 12.9554C39.2926 12.7835 39.384 12.6294 39.4699 12.4889C39.9065 11.7822 40.5094 11.3402 41.2638 11.1752C41.9691 11.0224 42.6594 11.0319 43.3128 11.204C43.9826 11.3814 44.5242 11.7047 44.9225 12.1658C45.355 12.6692 45.4491 13.2421 45.1913 13.8233C45.1162 14.021 44.9225 14.4685 44.5965 15.1874C44.2786 15.8913 43.9076 16.7439 43.4969 17.7234C43.0904 18.6934 42.6771 19.7315 42.2692 20.8065C41.8654 21.8733 41.5503 22.8705 41.3333 23.7667C41.1206 24.6412 41.0373 25.3669 41.0851 25.9235C41.1315 26.4569 41.3348 26.4569 41.4439 26.4569C41.6009 26.4569 41.8764 26.3832 42.3034 26.034C42.5394 25.8389 42.7849 25.6193 43.0359 25.3779C44.0086 24.4407 44.6607 23.4175 45.0958 22.1448C45.6742 20.4559 46.2827 18.7889 46.9075 17.1819C47.5746 15.4725 48.2253 13.9378 48.8419 12.62C49.1638 11.938 49.674 11.4782 50.3534 11.2572C50.9905 11.0499 51.6439 11.0062 52.2864 11.1277C52.9276 11.2504 53.4896 11.5055 53.9562 11.8875C54.1635 12.0567 54.3286 12.2395 54.4514 12.4318C54.4839 12.4836 54.5223 12.4891 54.5673 12.4468C55.1184 11.9379 55.7269 11.4714 56.383 11.0553C57.3434 10.4428 58.4307 10.1331 59.6148 10.1331C60.6161 10.1331 61.4796 10.4401 62.1767 11.0471C62.852 11.6337 63.3335 12.4686 63.6077 13.5313C63.8738 14.5599 63.9284 15.8068 63.7714 17.2351C63.6145 18.6443 63.2012 20.2554 62.5437 22.0192C61.9216 23.6876 61.2095 25.1541 60.4292 26.3764C60.0513 26.9712 59.6625 27.5278 59.2683 28.0421C59.2177 28.1076 59.294 28.1935 59.3665 28.154C59.5943 28.0298 59.8221 27.8948 60.0486 27.7474C60.4156 27.5101 60.7716 27.2591 61.1154 26.9971C62.4223 26.004 63.3977 24.6453 63.9174 23.0983L64.122 22.494C64.7359 20.6796 65.3853 18.8925 66.051 17.1819C66.7194 15.4698 67.3702 13.9351 67.9868 12.62C68.3074 11.9379 68.8162 11.4796 69.4983 11.2572C70.1354 11.0498 70.7888 11.0062 71.4313 11.1276C72.0725 11.2504 72.6332 11.5055 73.0997 11.8861C73.3071 12.0566 73.4721 12.2395 73.5949 12.4318C73.6278 12.4836 73.6658 12.4891 73.7109 12.4468C74.262 11.9379 74.8704 11.4714 75.5266 11.0553C76.4883 10.4427 77.5755 10.1331 78.7583 10.1331V10.1333ZM16.0141 1.63584C17.452 1.63584 18.8926 1.80228 20.2977 2.12829C21.7123 2.45843 22.996 2.96043 24.1105 3.6207C25.2387 4.28915 26.165 5.12812 26.8635 6.11442C27.5756 7.11846 27.9357 8.29575 27.9357 9.61355C27.9357 11.0323 27.6192 12.3637 26.9944 13.5697C26.3751 14.7633 25.5225 15.8533 24.4625 16.8096C23.4121 17.7591 22.1666 18.5967 20.7601 19.2979C19.6006 19.8763 18.3687 20.3701 17.0891 20.7671C17.0072 20.7929 16.9786 20.8353 16.9827 20.9171C17.01 21.5447 17.055 22.1654 17.1191 22.7629C17.1914 23.4491 17.2869 24.1175 17.4042 24.7518C17.5188 25.3753 17.658 25.9823 17.8149 26.5567C17.9376 27.0014 18.0741 27.4338 18.22 27.8444C18.3128 28.1064 18.411 28.3628 18.5106 28.6029C18.7111 29.0872 18.9322 29.551 19.1668 29.9808C19.3973 30.4036 19.647 30.8047 19.9089 31.173C20.164 31.5319 20.4382 31.8688 20.7233 32.1771C21.0016 32.4772 21.2963 32.7528 21.5991 32.9983C21.8938 33.237 22.2048 33.454 22.5227 33.6395C22.8323 33.8223 23.157 33.9805 23.4885 34.1115C23.8146 34.2397 24.1515 34.3434 24.4912 34.4184C24.8322 34.4935 25.1828 34.5412 25.5375 34.5644C25.8909 34.5861 26.2592 34.582 26.6261 34.5494C26.9999 34.517 27.3819 34.4567 27.7611 34.368C28.1499 34.278 28.5455 34.1593 28.9398 34.0133C29.3436 33.8633 29.7515 33.6805 30.1539 33.4745C30.3081 33.3953 30.4636 33.3108 30.6177 33.2235C31.1198 32.937 31.7609 33.0734 32.0979 33.5372C32.4362 34.0011 32.3612 34.6422 31.9246 35.0187C31.7105 35.2029 31.4949 35.3829 31.2821 35.5548C30.7651 35.9723 30.2467 36.3597 29.7406 36.7049C29.2604 37.0322 28.772 37.3378 28.2891 37.6093C28.0476 37.7457 27.7939 37.8794 27.5361 38.0077C27.0409 38.2559 26.5402 38.4742 26.045 38.657C25.5526 38.8384 25.0573 38.9899 24.5744 39.1044C24.0929 39.219 23.6072 39.3022 23.1338 39.35C22.7955 39.384 22.4572 39.4018 22.1271 39.4018C21.9934 39.4018 21.8597 39.3991 21.726 39.3924C21.2676 39.3731 20.812 39.3201 20.37 39.2341C20.1517 39.1919 19.9307 39.14 19.7152 39.0799C19.5065 39.024 19.2923 38.9572 19.0781 38.8794C18.6675 38.7322 18.2596 38.5508 17.8694 38.3394C17.4875 38.132 17.111 37.8933 16.7535 37.6286C16.4644 37.4145 16.1806 37.1785 15.9118 36.9288C15.5885 36.6287 15.2734 36.2945 14.9747 35.9398C14.68 35.5892 14.3976 35.2099 14.1357 34.813C13.8724 34.4174 13.6241 33.9945 13.3949 33.5579C13.1671 33.1214 12.9502 32.6576 12.7538 32.1801C12.5587 31.7067 12.3772 31.2047 12.2122 30.685C12.0498 30.1747 11.9012 29.6345 11.7702 29.078C11.6405 28.5227 11.5273 27.9471 11.4332 27.3659C11.3487 26.8516 11.2777 26.3182 11.2218 25.7766C11.2053 25.6129 10.9694 25.5911 10.9217 25.7509C10.717 26.4575 10.5315 27.1423 10.3678 27.7971C10.1618 28.6184 9.97218 29.3659 9.80029 30.0371C9.63252 30.6946 9.51383 31.2239 9.44562 31.61C9.30919 32.2948 8.85492 32.7273 8.12645 32.8678C7.50029 32.9905 6.82775 32.9387 6.13475 32.7177C5.44993 32.4981 4.82786 32.1175 4.28355 31.5841C3.71332 31.0248 3.42412 30.3222 3.42412 29.4942C3.42412 28.8203 3.59602 27.7549 3.94797 26.2393C4.29171 24.7591 4.78694 23.0048 5.42264 21.0226C6.0529 19.0568 6.8182 16.8892 7.69537 14.5837C8.4484 12.6029 9.29419 10.6085 10.2109 8.64132C10.511 7.99743 11.1317 7.55407 11.8479 7.47222C13.4672 7.28671 14.8723 7.33306 16.0633 7.60865C16.7808 7.77508 17.1655 8.54311 16.8654 9.20474C16.0974 10.8936 15.3894 12.5784 14.7564 14.2181C14.2448 15.5455 13.7537 16.8592 13.2899 18.1374C13.245 18.2643 13.3758 18.3816 13.4986 18.3256C14.1166 18.046 14.7264 17.7158 15.3225 17.3393C16.2993 16.7214 17.1887 15.9833 17.9677 15.1471C18.7425 14.3109 19.3782 13.3682 19.857 12.3437C20.3291 11.3288 20.5691 10.2265 20.5691 9.06421C20.5691 7.57043 20.149 6.46681 19.3209 5.78609C18.4819 5.09717 17.3006 4.74658 15.8081 4.74658C14.2189 4.74658 12.766 5.11765 11.4905 5.8502C10.1809 6.6005 9.04863 7.52269 8.12508 8.5922C7.19471 9.66991 6.46078 10.8213 5.94648 12.0149C5.4363 13.1977 5.17708 14.2345 5.17708 15.098C5.17708 15.716 4.84561 16.162 4.24398 16.3544C3.71605 16.5236 3.13355 16.499 2.53603 16.2794C1.96171 16.0693 1.42968 15.6532 0.953579 15.0448C0.474745 14.4336 0.23193 13.6056 0.23193 12.5838C0.23193 11.6916 0.575679 10.6412 1.28235 9.37253C1.9699 8.13521 2.98757 6.93064 4.30401 5.79155C5.61908 4.65519 7.27793 3.66888 9.23962 2.86129C11.2122 2.04824 13.4918 1.63626 16.0141 1.63626L16.0141 1.63584ZM94.2731 0.691828C96.4735 0.691828 98.2565 2.45162 98.2565 4.62067C98.2565 6.78972 96.4735 8.54951 94.2731 8.54951C92.0727 8.54951 90.2897 6.78972 90.2897 4.62067C90.2897 2.45162 92.0727 0.691828 94.2731 0.691828V0.691828Z" fill="white"/>
</svg>
