<svg width="73" height="56" viewBox="0 0 73 56" fill="none" xmlns="http://www.w3.org/2000/svg">
<path d="M15.125 13C9.75 18 6.125 24 4.5 28C6.125 32 9.75 38 15.125 43C20.5 48 27.625 52 36.5 52C45.25 52 52.375 48 57.75 43C63.125 38 66.75 32 68.5 28C66.75 24 63.125 18 57.75 13C52.375 8 45.25 4 36.5 4C27.625 4 20.5 8 15.125 13ZM36.5 0C46.5 0 54.625 4.625 60.5 10.125C66.375 15.5 70.25 22 72.125 26.5C72.5 27.5 72.5 28.625 72.125 29.625C70.25 34 66.375 40.5 60.5 46C54.625 51.5 46.5 56 36.5 56C26.375 56 18.25 51.5 12.375 46C6.5 40.5 2.625 34 0.75 29.625C0.375 28.625 0.375 27.5 0.75 26.5C2.625 22 6.5 15.5 12.375 10.125C18.25 4.625 26.375 0 36.5 0ZM24.5 28C24.5 32.375 26.75 36.25 30.5 38.5C34.125 40.625 38.75 40.625 42.5 38.5C46.125 36.25 48.5 32.375 48.5 28C48.5 23.75 46.125 19.875 42.5 17.625C38.75 15.5 34.125 15.5 30.5 17.625C26.75 19.875 24.5 23.75 24.5 28ZM52.5 28C52.5 33.75 49.375 39 44.5 41.875C39.5 44.75 33.375 44.75 28.5 41.875C23.5 39 20.5 33.75 20.5 28C20.5 22.375 23.5 17.125 28.5 14.25C33.375 11.375 39.5 11.375 44.5 14.25C49.375 17.125 52.5 22.375 52.5 28Z" fill="#4F406C"/>
</svg>
