<svg width="62" height="64" viewBox="0 0 62 64" fill="none" xmlns="http://www.w3.org/2000/svg">
<path d="M14.5 12C16.625 12 18.5 10.25 18.5 8C18.5 5.875 16.625 4 14.5 4C12.25 4 10.5 5.875 10.5 8C10.5 10.25 12.25 12 14.5 12ZM14.5 0C17.25 0 19.875 1.625 21.375 4C22.75 6.5 22.75 9.625 21.375 12C19.875 14.5 17.25 16 14.5 16C11.625 16 9 14.5 7.5 12C6.125 9.625 6.125 6.5 7.5 4C9 1.625 11.625 0 14.5 0ZM11.625 24C8.5 24 5.875 26.5 5.625 29.5L5.125 35.75C5 38 6.75 40 9.125 40H16.625C16.5 40.75 16.5 41.375 16.5 42V44H10.5V62C10.5 63.125 9.5 64 8.5 64C7.375 64 6.5 63.125 6.5 62V43.625C3.125 42.375 0.875 39.125 1.125 35.375L1.625 29.25C2.125 24 6.5 20 11.625 20H17.25C18.125 20 19 20.125 19.75 20.375C19.5 21.25 19.5 22.125 19.5 23C19.5 23.5 19.5 24 19.5 24.5C18.875 24.25 18 24 17.25 24H11.625ZM50.5 48H44.25C44.375 47.375 44.5 46.75 44.5 46V44H57.125L52.25 27C51.75 25.25 50.25 24 48.375 24H44.5C43 24 41.75 24.875 41 26C41.25 25.125 41.5 24.125 41.5 23C41.5 22.25 41.375 21.5 41.25 20.75C42.25 20.25 43.375 20 44.5 20H48.375C52 20 55.125 22.375 56.125 25.875L61 43C61.75 45.5 59.75 48 57.125 48H54.5V62C54.5 63.125 53.5 64 52.5 64C51.375 64 50.5 63.125 50.5 62V48ZM46.5 12C48.625 12 50.5 10.25 50.5 8C50.5 5.875 48.625 4 46.5 4C44.25 4 42.5 5.875 42.5 8C42.5 10.25 44.25 12 46.5 12ZM46.5 0C49.25 0 51.875 1.625 53.375 4C54.75 6.5 54.75 9.625 53.375 12C51.875 14.5 49.25 16 46.5 16C43.625 16 41 14.5 39.5 12C38.125 9.625 38.125 6.5 39.5 4C41 1.625 43.625 0 46.5 0ZM30.5 26C32.125 26 33.5 24.75 33.5 23C33.5 21.375 32.125 20 30.5 20C28.75 20 27.5 21.375 27.5 23C27.5 24.75 28.75 26 30.5 26ZM30.5 16C33 16 35.25 17.375 36.5 19.5C37.75 21.75 37.75 24.375 36.5 26.5C35.25 28.75 33 30 30.5 30C27.875 30 25.625 28.75 24.375 26.5C23.125 24.375 23.125 21.75 24.375 19.5C25.625 17.375 27.875 16 30.5 16ZM30.5 36C27.125 36 24.5 38.75 24.5 42V46C24.5 47.125 25.375 48 26.5 48H34.5C35.5 48 36.5 47.125 36.5 46V42C36.5 38.75 33.75 36 30.5 36ZM24.5 51.75C22.125 50.875 20.5 48.625 20.5 46V42C20.5 36.5 24.875 32 30.5 32C36 32 40.5 36.5 40.5 42V46C40.5 48.625 38.75 50.875 36.5 51.75V62C36.5 63.125 35.5 64 34.5 64C33.375 64 32.5 63.125 32.5 62V52H28.5V62C28.5 63.125 27.5 64 26.5 64C25.375 64 24.5 63.125 24.5 62V51.75Z" fill="#4F406C"/>
</svg>
