<svg width="98" height="67" viewBox="0 0 98 67" fill="none" xmlns="http://www.w3.org/2000/svg">
<path fill-rule="evenodd" clip-rule="evenodd" d="M89.3096 27.4656C88.5106 26.3412 87.4298 25.4511 86.1778 24.8866C84.6057 24.1996 82.8809 24.1117 81.1951 24.0259L81.1782 24.025C79.4871 23.9388 77.9098 23.8354 76.5204 22.9164C75.3607 22.0414 74.4013 20.9247 73.7075 19.6424C73.546 19.378 73.3838 19.1072 73.2194 18.8328C71.645 16.204 69.8756 13.2498 66.715 12.5373C65.1605 12.1754 62.7632 12.4798 62.6095 14.5132C62.4557 16.5465 64.5796 17.2989 66.2253 17.5H66.3335C67.921 18.8531 69.1039 20.6251 69.75 22.6177C70.3922 24.5577 70.4153 26.5765 70.4386 28.5996C70.4555 30.0746 70.4725 31.5519 70.7294 33.0026C71.7942 39.1084 78.3995 43.3761 84.3214 41.3542C85.7445 40.8995 87.0472 40.1259 88.1319 39.0915C89.2166 38.057 90.0553 36.7884 90.5851 35.3806C91.0121 34.0541 91.1191 32.6439 90.8973 31.2673C90.6754 29.8907 90.1311 28.5874 89.3096 27.4656ZM88.0851 34.5019C88.3669 33.5941 88.4351 32.6319 88.2836 31.6921C88.1288 30.7311 87.749 29.8223 87.1766 29.0408L89.3096 27.4656L87.1543 29.0098C86.6305 28.2726 85.924 27.6896 85.1073 27.3184C84.0496 26.8601 82.818 26.7707 81.0441 26.6803C81.0088 26.6785 80.9732 26.6767 80.9372 26.6749C79.3423 26.5943 77.0958 26.4807 75.064 25.1368L74.9955 25.0915L74.9299 25.042C74.0229 24.3576 73.2133 23.5564 72.5205 22.6613C72.9789 24.4526 73.0488 26.2093 73.0748 27.7322C73.0801 28.0384 73.0837 28.3335 73.0872 28.6193C73.1054 30.0943 73.1206 31.3202 73.3361 32.5372L73.3367 32.5406L73.3373 32.544C74.1424 37.1606 79.1959 40.296 83.4692 38.837L83.4938 38.8286L83.5186 38.8207C84.5597 38.488 85.5136 37.9218 86.3086 37.1636C87.088 36.4203 87.6949 35.5114 88.0851 34.5019ZM65.1262 14.4208C65.1262 14.4208 65.1266 14.4212 65.1274 14.422C65.1266 14.4212 65.1262 14.4208 65.1262 14.4208ZM64.9672 15.1545C64.9672 15.1544 64.9681 15.154 64.9699 15.153C64.9682 15.154 64.9673 15.1545 64.9672 15.1545Z" fill="#4F406C"/>
<path fill-rule="evenodd" clip-rule="evenodd" d="M83.841 5.28842L83.8243 5.29163C81.7042 5.69973 79.6289 6.31741 77.6285 7.13579L77.5857 7.15331L77.5423 7.16931C76.9975 7.37022 76.5454 7.52359 76.1296 7.66465C75.5478 7.862 75.0371 8.03526 74.443 8.28087L74.3572 8.31633L74.2692 8.34567C74.0719 8.41145 73.8932 8.52278 73.7466 8.66968C74.5643 8.52595 75.376 8.35291 76.236 8.16955C76.9409 8.01928 77.6782 7.86208 78.478 7.70841C80.7251 7.27667 83.4456 6.94212 86.1842 7.83765L86.1881 7.8389L86.1919 7.84017C90.7919 9.35993 93.5042 14.3397 92.8267 19.0225C92.6631 20.2423 92.2486 21.4148 91.6093 22.4649L91.6077 22.4675L91.6061 22.47C90.2667 24.6589 88.0736 24.8332 86.8187 24.8044L86.8147 24.8043L86.8107 24.8042C86.7914 24.8037 86.7719 24.8032 86.7523 24.8026C87.0665 25.0772 87.4049 25.4777 87.6127 26.0392C88.0577 27.241 87.553 28.2438 87.4193 28.4981C87.3971 28.5403 87.3744 28.5815 87.3513 28.6216C87.5276 28.5737 87.7135 28.5342 87.9076 28.5074C88.3791 28.4422 89.1112 28.4481 89.8443 28.8777C90.0081 28.9736 90.1542 29.0803 90.2843 29.1938C90.7855 28.0375 91.4046 26.9853 91.9339 26.0869L91.9448 26.0684C92.5099 25.1093 92.975 24.3199 93.3369 23.5021L93.3383 23.4989L93.3397 23.4957C94.1458 21.6871 94.6609 19.76 94.8654 17.7872L94.8671 17.7706L94.8691 17.754C95.0658 16.0625 94.9216 14.3483 94.4451 12.7147C93.9687 11.0811 93.17 9.5623 92.0977 8.24922L94.1449 6.56329C95.4433 8.15315 96.4096 9.99133 96.986 11.9674C97.5623 13.9435 97.7368 16.0167 97.4988 18.0625C97.2652 20.3152 96.6771 22.5159 95.7564 24.5818C95.3312 25.5427 94.7975 26.4482 94.2625 27.3559C93.6942 28.3203 93.1244 29.2871 92.6815 30.3256C92.346 31.2378 92.139 32.1929 92.0665 33.1631C92.0185 33.9843 91.709 34.768 91.1839 35.3975C90.8757 35.6856 90.4729 35.849 90.0527 35.8565C89.6325 35.8639 89.2243 35.7148 88.9063 35.4377C88.6189 35.1289 88.4106 34.754 88.2995 34.3457C88.2731 34.2486 88.2524 34.1504 88.2373 34.0515C88.2241 33.9646 88.2153 33.8772 88.2108 33.7896C88.199 33.5571 88.2182 33.3232 88.2685 33.0942C88.2844 32.991 88.3382 32.8235 88.4006 32.6287C88.4169 32.5779 88.4338 32.5253 88.4508 32.4715C88.6477 31.8464 88.8554 31.0602 88.2685 31.1413C87.7999 31.206 87.3838 31.4606 86.9702 31.7136C86.6889 31.8856 86.4088 32.0569 86.1142 32.1674C86.0733 32.1827 86.0322 32.1968 85.9908 32.2096C85.9072 32.2424 85.8221 32.2702 85.7358 32.2929C85.4164 32.3772 85.0819 32.3926 84.7544 32.3369C84.3384 32.2661 83.9491 32.0832 83.6277 31.8076C83.3699 31.5413 83.1895 31.2087 83.1062 30.8461C83.0228 30.4835 83.0398 30.1048 83.1551 29.7513C83.2596 29.4984 83.3871 29.2567 83.5355 29.0292C83.5394 29.0233 83.5433 29.0173 83.5472 29.0114C83.757 28.6931 84.0078 28.4029 84.2939 28.1487C84.3266 28.1138 84.3755 28.0662 84.4336 28.0095C84.7199 27.7304 85.2304 27.2329 85.131 26.9655C85.0228 26.6732 84.4063 26.5079 83.9018 26.3726C83.6626 26.3084 83.4486 26.251 83.3259 26.1901C83.1407 26.1129 82.9672 26.0124 82.8092 25.8916C82.8073 25.8901 82.8053 25.8886 82.8033 25.8871C82.5892 25.7223 82.4038 25.5202 82.2568 25.2889C82.0002 24.8852 81.8725 24.4119 81.891 23.9327C82.1245 21.8733 84.568 22.017 86.2162 22.1139C86.4573 22.1281 86.6814 22.1413 86.8791 22.1464C87.8813 22.1694 88.781 22.0085 89.3504 21.078C89.8002 20.3393 90.0912 19.5135 90.2045 18.6541C90.7227 15.1216 88.6329 11.4456 85.3645 10.3657C83.2918 9.68795 81.128 9.90621 78.9756 10.3198C78.2917 10.4512 77.6113 10.5959 76.9314 10.7405C75.4714 11.0511 74.0138 11.3611 72.5297 11.5375C72.4601 11.5454 72.3897 11.5389 72.3227 11.5183C72.2557 11.4977 72.1936 11.4634 72.1403 11.4177C72.0869 11.3719 72.0434 11.3156 72.0125 11.2523C71.9815 11.1889 71.9638 11.1198 71.9603 11.0492C71.6955 10.956 71.4664 10.7812 71.3055 10.5495C71.0418 10.1397 70.8893 9.6673 70.8634 9.17946C70.8374 8.69161 70.9388 8.20543 71.1574 7.7695C71.6379 6.84729 72.4545 6.14922 73.4351 5.82233C74.0787 5.55627 74.7418 5.32965 75.4043 5.10323C75.8145 4.96303 76.2246 4.82291 76.6296 4.67356C78.7914 3.78911 81.0344 3.12152 83.3259 2.68044C85.3088 2.27222 87.3646 2.41814 89.2713 3.10244C91.178 3.78674 92.8632 4.98343 94.1449 6.56329L92.0923 8.24256C91.1149 7.03788 89.8311 6.12677 88.3803 5.60608C86.9296 5.08543 85.3659 4.9745 83.8577 5.285L83.841 5.28842ZM82.8541 25.8292C82.8542 25.8292 82.8514 25.8329 82.845 25.8405C82.8507 25.833 82.8539 25.8292 82.8541 25.8292ZM83.6646 29.0718C83.6646 29.0718 83.6638 29.0715 83.6621 29.0708C83.6639 29.0715 83.6647 29.0718 83.6646 29.0718ZM86.0192 31.3408C86.0192 31.3408 86.019 31.3423 86.0183 31.3454C86.0189 31.3423 86.0192 31.3407 86.0192 31.3408Z" fill="#4F406C"/>
<path fill-rule="evenodd" clip-rule="evenodd" d="M14.7103 38.8298L14.7276 38.8356C19.0189 40.2924 24.0596 37.1565 24.8699 32.5307C25.0831 31.3131 25.0985 30.0896 25.117 28.6216C25.1206 28.3305 25.1244 28.0298 25.1299 27.7176C25.1563 26.212 25.2262 24.4806 25.6704 22.7124C24.9752 23.5935 24.166 24.3812 23.2618 25.0535L23.2015 25.0983L23.1387 25.1396C21.0948 26.4861 18.7758 26.6007 17.2461 26.6763C17.217 26.6778 17.1881 26.6792 17.1595 26.6806C15.4628 26.765 14.1611 26.8604 13.0962 27.32C12.2811 27.6891 11.5761 28.2708 11.0547 29.0069L11.0447 29.021L11.0346 29.0348C10.4652 29.817 10.0887 30.7259 9.93742 31.6862C9.78907 32.6278 9.86163 33.591 10.1487 34.4984C10.5362 35.508 11.1403 36.4177 11.917 37.1625C12.7075 37.9205 13.6565 38.4882 14.6929 38.8242L14.7103 38.8298ZM7.65025 35.3807C7.21784 34.0566 7.10542 32.6475 7.32233 31.2707C7.53925 29.8939 8.07923 28.5893 8.89728 27.4657C9.6948 26.3399 10.776 25.4496 12.0291 24.8867C13.6121 24.1974 15.4114 24.1055 17.0286 24.0251C18.6457 23.9447 20.2914 23.8356 21.6865 22.9166C22.8585 22.0452 23.8298 20.9283 24.5336 19.6426C24.6989 19.3718 24.8648 19.0945 25.0329 18.8137C26.6007 16.1933 28.3506 13.2689 31.5033 12.5374C33.0749 12.1755 35.4436 12.411 35.5974 14.5018C35.7511 16.5926 33.6215 17.2876 31.9816 17.4886H31.8734C30.2859 18.8417 29.1029 20.6138 28.4569 22.6064C27.8132 24.5508 27.7895 26.5725 27.7657 28.5997C27.7484 30.0697 27.7312 31.5427 27.4775 32.9913C26.4069 39.1028 19.8188 43.3705 13.8797 41.3544C12.4629 40.8952 11.1671 40.1196 10.0885 39.0853C9.00998 38.0511 8.17655 36.7848 7.65025 35.3807ZM33.2604 15.1288C33.2604 15.1288 33.2598 15.1285 33.2587 15.128C33.2599 15.1285 33.2604 15.1288 33.2604 15.1288ZM33.0845 14.4292C33.0853 14.4285 33.0857 14.4282 33.0857 14.4282C33.0857 14.4282 33.0853 14.4285 33.0845 14.4292Z" fill="#4F406C"/>
<path fill-rule="evenodd" clip-rule="evenodd" d="M4.86038 23.4704L4.86228 23.4748C5.22892 24.3099 5.6997 25.1122 6.26642 26.074L6.28397 26.1038C6.80884 26.9946 7.42227 28.0357 7.91625 29.1702C8.03884 29.0615 8.17631 28.9585 8.33033 28.8647C9.08342 28.406 9.84384 28.404 10.3305 28.4782C10.5091 28.5054 10.6812 28.5439 10.8453 28.5898C10.8204 28.5465 10.7958 28.5019 10.772 28.4561C10.6375 28.1984 10.1397 27.198 10.5846 26.0011C10.7926 25.4414 11.1301 25.0423 11.4443 24.7681C11.4247 24.7687 11.4051 24.7692 11.3856 24.7697L11.3513 24.7706H11.3169C10.1291 24.7706 7.98303 24.6253 6.61471 22.4753L6.59558 22.4453L6.57726 22.4147C5.95314 21.3735 5.55127 20.2133 5.3966 19.0081C4.72363 14.3278 7.43544 9.35324 12.0326 7.83442L12.0354 7.83349L12.0382 7.83257C14.7756 6.93498 17.5577 7.28378 19.7401 7.70253C20.516 7.8514 21.2427 8.00628 21.9436 8.15567C22.8121 8.34079 23.6411 8.51746 24.4747 8.66375C24.3266 8.51635 24.1466 8.40433 23.9481 8.3375L23.872 8.31191L23.7977 8.28174C23.1986 8.03869 22.7215 7.87671 22.1855 7.6947C21.7513 7.54726 21.2784 7.38667 20.6705 7.15918L20.6357 7.14619L20.6014 7.13223C18.5868 6.3132 16.4971 5.6972 14.3626 5.29314C12.7264 4.98345 11.0377 5.13128 9.47885 5.72053C8.17564 6.28595 7.01833 7.14807 6.09799 8.24064C5.03164 9.54908 4.23667 11.0613 3.76108 12.6876C3.28383 14.3195 3.13818 16.032 3.33299 17.7224L0.702928 18.028C0.467321 15.9837 0.643447 13.9124 1.22074 11.9384C1.79804 9.96439 2.76462 8.12832 4.06251 6.5403C5.26207 5.11095 6.77752 3.9856 8.4869 3.25481C10.5159 2.47528 12.719 2.2765 14.853 2.68043C17.1598 3.11709 19.4181 3.78279 21.5949 4.6678C22.0336 4.83194 22.4771 4.98426 22.9206 5.13658C23.5481 5.35206 24.1756 5.56756 24.7894 5.81658C25.7686 6.14611 26.5843 6.84344 27.0671 7.76375C27.2857 8.19968 27.3871 8.68586 27.3611 9.17371C27.3352 9.66155 27.1827 10.134 26.919 10.5438C26.7581 10.7755 26.529 10.9503 26.2642 11.0435C26.2607 11.114 26.243 11.1831 26.212 11.2465C26.1811 11.3099 26.1376 11.3662 26.0842 11.4119C26.0309 11.4577 25.9688 11.4919 25.9018 11.5125C25.8348 11.5331 25.7644 11.5397 25.6948 11.5317C24.2016 11.3548 22.7112 11.0378 21.2471 10.7264C20.5728 10.583 19.904 10.4408 19.2432 10.314C17.1478 9.91195 14.927 9.6822 12.86 10.36C9.59158 11.4398 7.5018 15.1159 8.01998 18.6484C8.12599 19.4963 8.40727 20.3122 8.84563 21.0436C9.43783 21.9741 10.3147 22.1119 11.3169 22.1119C11.5164 22.1067 11.7431 22.0931 11.9874 22.0784C13.6328 21.9794 16.072 21.8327 16.305 23.8983C16.3211 24.3769 16.1924 24.8492 15.9361 25.2524C15.789 25.4839 15.6037 25.6864 15.3896 25.8519C15.388 25.8532 15.3863 25.8544 15.3846 25.8557C15.2273 25.9767 15.0546 26.0777 14.8701 26.1556C14.7422 26.223 14.5152 26.2839 14.2638 26.3514C13.7652 26.4852 13.171 26.6446 13.065 26.931C12.9636 27.204 13.4935 27.7168 13.7782 27.9922C13.8289 28.0414 13.8719 28.0829 13.9021 28.1143C14.1898 28.3676 14.4415 28.6579 14.6512 28.9768C14.6559 28.9838 14.6605 28.9908 14.665 28.9979C14.8121 29.2243 14.9381 29.4649 15.0409 29.7168C15.1583 30.0697 15.1768 30.4484 15.0944 30.8112C15.012 31.1741 14.8319 31.5069 14.574 31.7731C14.2526 32.0487 13.8633 32.2316 13.4473 32.3024C13.1205 32.358 12.7867 32.3428 12.468 32.259C12.381 32.2361 12.2952 32.2082 12.2109 32.1752C12.1743 32.1642 12.138 32.1522 12.1019 32.1394C11.7797 32.025 11.4755 31.8415 11.1741 31.6598C10.768 31.4148 10.3669 31.1729 9.93323 31.1068C9.39316 31.0245 9.56095 31.7578 9.74194 32.3726C9.76366 32.4463 9.78558 32.5184 9.80648 32.5872C9.86666 32.7851 9.91846 32.9554 9.93323 33.0597C9.98189 33.2888 9.99989 33.5226 9.9874 33.7549C9.98249 33.8462 9.97287 33.9373 9.95855 34.0277C9.94353 34.1226 9.92335 34.2169 9.898 34.31C9.787 34.7179 9.58034 35.0928 9.29548 35.4032C8.97741 35.6803 8.56923 35.8294 8.14902 35.822C7.72881 35.8146 7.32606 35.6512 7.0178 35.363C6.49024 34.735 6.18034 33.9505 6.1352 33.1286C6.06078 32.1582 5.85186 31.2031 5.51453 30.2912C5.08231 29.2855 4.52615 28.3416 3.9678 27.394C3.42276 26.4689 2.87563 25.5404 2.43966 24.5473C1.5234 22.4803 0.937241 20.2799 0.702928 18.028L3.33621 17.7517C3.54162 19.7259 4.05546 21.6546 4.85847 23.4661L4.86038 23.4704ZM12.2042 31.3251C12.2042 31.325 12.2044 31.3263 12.2048 31.3291C12.2044 31.3265 12.2042 31.3252 12.2042 31.3251ZM15.3439 25.7994C15.3441 25.7994 15.3473 25.8032 15.353 25.8107C15.3465 25.8031 15.3437 25.7994 15.3439 25.7994ZM13.8602 23.7039C13.8602 23.7039 13.858 23.7047 13.8533 23.7063C13.8577 23.7047 13.8601 23.7039 13.8602 23.7039Z" fill="#4F406C"/>
<path fill-rule="evenodd" clip-rule="evenodd" d="M74.568 4.45541H74.6079V4.49561C75.3005 4.78155 75.8782 5.29333 76.2488 5.94924C76.3265 6.08688 76.3942 6.2292 76.4516 6.37507C76.4637 6.40581 76.4754 6.43671 76.4865 6.46776C76.5816 6.73149 76.6435 7.00586 76.6712 7.28441C76.6985 7.55901 76.6925 7.83768 76.6521 8.11425C76.6462 8.15215 76.6396 8.18991 76.6325 8.22752C76.5797 8.50699 76.4948 8.7782 76.3829 9.03905C75.8736 10.2272 74.8069 11.2006 73.6854 11.7616C72.857 12.175 71.9507 12.3789 71.0503 12.5816C70.2117 12.7703 69.3782 12.9579 68.6176 13.3124C67.0403 14.0477 66.4879 15.5009 66.1918 17.1723C66.0351 18.0573 65.9597 18.9568 65.8838 19.863C65.8163 20.6685 65.7483 21.4793 65.6224 22.2901C65.1303 26.0317 63.6799 29.5792 61.4144 32.5831C61.1997 32.8545 60.9505 33.1325 60.6933 33.4194C59.8184 34.3956 58.8499 35.476 58.8235 36.7589C58.8091 37.3794 58.9878 38.0046 59.1653 38.6256C59.2671 38.9818 59.3685 39.3365 59.4328 39.6883C59.612 40.664 59.7035 41.654 59.7061 42.6463C59.7061 46.2293 58.642 49.6628 57.598 53.0312C57.4838 53.3996 57.3699 53.7671 57.2576 54.1341C56.6354 56.0591 56.1333 58.0216 55.7544 60.01C55.7092 60.2706 55.6674 60.5328 55.6256 60.7954C55.3724 62.3855 55.1171 63.988 54.086 65.2944C52.9927 66.6729 51.125 67.523 49.468 66.6385C49.3444 66.5706 49.2246 66.4958 49.1092 66.4144C48.9939 66.4958 48.8741 66.5706 48.7505 66.6385C47.0878 67.523 45.2201 66.6729 44.1325 65.2944C43.1 63.9863 42.8454 62.3856 42.5919 60.791C42.5504 60.5301 42.5089 60.2693 42.4641 60.01C42.0832 58.0215 41.5793 56.059 40.9551 54.1341C40.8395 53.7532 40.7222 53.372 40.6047 52.9902C39.5649 49.6119 38.5123 46.1917 38.5123 42.6463C38.5149 41.654 38.6064 40.664 38.7856 39.6883C38.8506 39.3334 38.9501 38.9754 39.0501 38.6161C39.2219 37.9982 39.3949 37.3763 39.3949 36.7589C39.3507 35.4559 38.3819 34.3678 37.5087 33.3869C37.2579 33.1053 37.0149 32.8324 36.8041 32.5659C34.5503 29.5662 33.1081 26.0272 32.6188 22.2958C32.4728 21.4384 32.3971 20.5446 32.322 19.6564C32.2506 18.8133 32.1797 17.9753 32.0494 17.1781C31.7818 15.5411 31.2465 14.0649 29.6294 13.3182C28.8475 12.9572 28.0111 12.7694 27.1742 12.5814C26.28 12.3807 25.3853 12.1797 24.5558 11.7673C23.1551 11.0666 21.8454 9.72253 21.5892 8.11999C21.4828 7.37788 21.6243 6.62115 21.9913 5.9691C22.3583 5.31704 22.93 4.80672 23.6163 4.51859V4.47838H23.6561C23.8413 4.39542 24.0315 4.32444 24.2256 4.26586C25.6161 3.85693 26.9431 4.20787 28.2827 4.56212C28.8246 4.70545 29.3687 4.84933 29.9198 4.94363C32.8948 5.45574 35.7702 4.06846 38.4734 2.76426C38.8022 2.60566 39.1284 2.44829 39.4519 2.29571C42.4356 0.888469 45.761 -0.541753 49.1092 0.204949C52.4346 -0.541753 55.8569 0.899956 58.7666 2.29571C59.0335 2.42374 59.3035 2.55538 59.5765 2.68845C62.2795 4.00615 65.2685 5.46323 68.3044 4.92066C68.8466 4.82704 69.3832 4.68457 69.9192 4.54228C71.2576 4.18696 72.5918 3.83275 73.9986 4.24288C74.1927 4.30146 74.3829 4.37245 74.568 4.45541ZM73.2486 6.79279C72.8686 6.68469 72.417 6.68597 71.6732 6.84444C71.3397 6.91549 71.0095 7.00307 70.6055 7.1102C70.536 7.12862 70.4644 7.14762 70.3902 7.16722C69.9188 7.29166 69.355 7.4366 68.7606 7.53964C66.4774 7.94581 64.3357 7.50282 62.5082 6.86843C61.034 6.35669 59.5849 5.64929 58.3677 5.05516C58.1091 4.92893 57.861 4.80782 57.6254 4.69479C54.638 3.26177 52.0077 2.27851 49.687 2.79961L49.1112 2.92889L48.5352 2.80044C46.19 2.27743 43.6636 3.24667 40.5774 4.70224C40.299 4.83355 40.0039 4.97607 39.6955 5.12502C38.4954 5.70467 37.0939 6.38158 35.6901 6.87323C33.8711 7.51026 31.7513 7.95625 29.4732 7.56427C29.4729 7.56423 29.4727 7.56419 29.4724 7.56414C28.8719 7.46125 28.3034 7.31608 27.8272 7.19094C27.7472 7.16992 27.6703 7.14959 27.5958 7.12992C27.196 7.0243 26.8688 6.93787 26.5381 6.86742C25.8465 6.72006 25.4154 6.70971 25.0643 6.79237L24.6376 6.97156C24.4955 7.0312 24.3747 7.13792 24.2962 7.27738C24.2209 7.41106 24.1894 7.56644 24.2071 7.72052C24.2957 8.19801 24.8211 8.92871 25.7335 9.38612C26.2094 9.6222 26.7705 9.76617 27.6667 9.96764C27.7141 9.97828 27.7626 9.98914 27.8124 10.0003C28.6034 10.177 29.6901 10.4199 30.7354 10.9026C33.6018 12.2261 34.3572 14.8826 34.662 16.7473C34.8095 17.6493 34.8881 18.5795 34.957 19.3948C34.96 19.4297 34.9629 19.4644 34.9658 19.4988C35.0404 20.3804 35.108 21.1402 35.2285 21.8476L35.2371 21.898L35.2438 21.9488C35.6719 25.2138 36.9308 28.3101 38.8965 30.9365C39.0524 31.1315 39.2368 31.3387 39.4891 31.6223C39.5168 31.6535 39.5453 31.6855 39.5747 31.7186C39.8575 32.0367 40.2089 32.4352 40.5394 32.8711C41.1773 33.7128 41.9845 35.005 42.041 36.6683L42.0425 36.7136V36.7589C42.0425 37.6126 41.8555 38.3837 41.7144 38.914C41.658 39.1261 41.6103 39.2974 41.5694 39.4441C41.4866 39.7415 41.4319 39.9381 41.3897 40.1686L41.3895 40.1696L41.3893 40.1705C41.2391 40.9884 41.1623 41.8184 41.1599 42.6503C41.1607 45.7686 42.0885 48.7934 43.1448 52.237C43.2555 52.5982 43.3677 52.9639 43.4804 53.3348C44.1351 55.3573 44.664 57.419 45.0641 59.5079L45.0686 59.5315L45.0727 59.5551C45.1284 59.8771 45.1776 60.1736 45.2232 60.4476C45.4944 62.0784 45.6337 62.916 46.2073 63.6428L46.2077 63.6433C46.4764 63.9838 46.8066 64.206 47.0711 64.2955C47.2844 64.3676 47.3999 64.3448 47.4971 64.2962C47.5282 64.2785 47.5585 64.2592 47.5878 64.2385L49.1092 63.1658L50.6306 64.2385C50.6605 64.2596 50.6914 64.2792 50.7231 64.2972C50.8154 64.3438 50.928 64.3682 51.1431 64.2955C51.4082 64.2058 51.7407 63.983 52.0131 63.6403C52.5838 62.9158 52.7233 62.078 52.9931 60.4582C53.0393 60.1808 53.0894 59.8804 53.146 59.5537L53.1498 59.532L53.1539 59.5103C53.5522 57.4202 54.0796 55.3572 54.7329 53.3334C54.8419 52.9771 54.9505 52.6255 55.0579 52.2779C56.1191 48.8425 57.058 45.8032 57.0585 42.649C57.0561 41.8175 56.9793 40.988 56.8291 40.1705L56.8288 40.1686C56.7887 39.9497 56.737 39.7692 56.6559 39.4862C56.6128 39.336 56.5615 39.157 56.4993 38.928C56.3539 38.3932 56.1564 37.593 56.1766 36.7009C56.2122 35.0166 57.0398 33.7112 57.6772 32.8775C58.0095 32.4428 58.3638 32.0446 58.6468 31.7286L58.7108 31.657C58.9755 31.3616 59.1655 31.1494 59.3234 30.9518C61.3003 28.3213 62.5668 25.2167 62.9976 21.9419L63.0017 21.9111L63.0064 21.8804C63.1174 21.1656 63.1782 20.442 63.2479 19.6113L63.2582 19.4882C63.3294 18.6414 63.413 17.6785 63.5851 16.7067C63.9192 14.8212 64.6969 12.2088 67.5028 10.9008C68.5313 10.4215 69.6213 10.1774 70.4098 10.0009C70.4623 9.98916 70.5135 9.97771 70.5632 9.9665C71.466 9.76306 72.0337 9.61656 72.5056 9.38144C73.2248 9.02147 73.7004 8.49658 73.9147 8.06186L72.0682 7.94932L73.2615 7.5492L72.0265 6.95977L73.261 6.79665C73.2569 6.79535 73.2527 6.79407 73.2486 6.79279ZM74.3972 8.09127C74.442 7.99655 74.4745 7.89737 74.4946 7.7961C74.496 7.78899 74.4974 7.78187 74.4987 7.77474C74.5361 7.56754 74.5216 7.35233 74.4541 7.14928L74.3972 8.09127ZM71.9997 6.96332C72.0017 6.95885 72.0038 6.9544 72.0059 6.94995L72.0265 6.95977L71.9997 6.96332ZM71.9997 6.96332C71.9943 6.97506 71.989 6.98686 71.984 6.99872C71.8565 7.29688 71.8366 7.62985 71.927 7.94071L71.7544 7.93019L71.8114 6.9882L71.9997 6.96332ZM71.927 7.94071L72.0682 7.94932L71.9428 7.99137C71.9372 7.97456 71.932 7.95767 71.927 7.94071Z" fill="#4F406C"/>
<path fill-rule="evenodd" clip-rule="evenodd" d="M72.8265 9.21108C71.7745 9.51005 70.6658 9.54358 69.5979 9.30872C69.2886 9.33118 68.9794 9.35256 68.6701 9.37191C68.2676 9.39709 67.8651 9.41885 67.4626 9.43509C67.2252 9.50763 66.9901 9.58671 66.7576 9.67219C65.2991 10.2084 63.942 10.9963 62.7478 12.0026C61.3752 13.1414 60.3342 14.6341 59.7355 16.322C59.4685 17.1459 59.3527 18.0121 59.3939 18.878C59.4264 19.4499 59.5216 20.0141 59.6169 20.5786C59.7054 21.1026 59.794 21.6268 59.8323 22.1577C59.9975 24.4668 58.8529 26.144 57.4635 27.8671C56.1947 29.411 55.1322 31.1162 54.3033 32.939C52.6709 36.6449 52.08 40.7322 52.595 44.7541C52.622 44.9826 52.65 45.2114 52.678 45.4402C52.9281 47.4832 53.1794 49.5364 52.7032 51.5663C52.382 53.0587 51.6149 54.4159 50.5052 55.4549C50.3544 55.6933 50.1465 55.8895 49.9007 56.0254C49.6549 56.1613 49.3791 56.2326 49.0988 56.2326C48.8184 56.2326 48.5426 56.1613 48.2968 56.0254C48.051 55.8895 47.8431 55.6933 47.6923 55.4549C46.5827 54.4159 45.8155 53.0587 45.4943 51.5663C45.0182 49.5582 45.263 47.5502 45.5113 45.5138C45.5421 45.261 45.573 45.0078 45.6025 44.7541C46.1146 40.7323 45.5238 36.6458 43.8943 32.939C43.0722 31.1193 42.0174 29.4161 40.7568 27.8729C39.3674 26.1842 38.2171 24.461 38.388 22.1635C38.4259 21.6391 38.5127 21.1212 38.5995 20.6036C38.6952 20.0327 38.7909 19.4622 38.8207 18.8837C38.8646 18.0177 38.7488 17.1511 38.4791 16.3277C37.8845 14.6391 36.8451 13.1459 35.4725 12.0083C34.2793 11.0027 32.9231 10.2155 31.4656 9.68021C31.3083 9.62247 31.1499 9.56766 30.9904 9.51583C30.9112 9.49009 30.8318 9.46509 30.752 9.44083H30.5926C30.5621 9.45731 30.5307 9.47178 30.4985 9.48418C30.4479 9.50363 30.3956 9.51799 30.3421 9.52699C29.4145 9.72792 28.4511 9.68239 27.5462 9.39488C26.6636 9.09045 25.5134 8.53904 25.371 7.48792C25.2002 6.20129 26.47 5.65562 27.5348 5.85666C27.7063 5.88695 27.8742 5.93508 28.0359 6.00026C28.9901 6.17526 29.9265 6.43698 30.8335 6.7821C30.9263 6.81738 31.0187 6.85353 31.1108 6.89055L31.3841 6.97671L32.5229 7.15477H34.5842C37.1466 7.05138 39.709 6.81014 41.9867 5.66137C46.9122 3.25469 52.5893 4.21391 56.188 5.66137C58.5526 6.58287 61.0565 7.08801 63.5905 7.15477C64.2795 7.18924 64.9685 7.18924 65.6518 7.15477L68.3224 6.73547L68.5786 6.59187C69.0646 6.31612 69.5688 6.07431 70.0876 5.86815C71.141 5.46033 72.5361 5.24781 73.5041 5.9543C73.7794 6.12923 74.0053 6.37288 74.16 6.66168C74.3146 6.95047 74.3927 7.27463 74.3867 7.60279C74.3184 8.51032 73.6294 8.98132 72.8265 9.21108ZM72.2062 6.61709C72.2062 6.61711 72.2052 6.61766 72.203 6.61868C72.2051 6.61758 72.2062 6.61707 72.2062 6.61709ZM72.0517 8.16069C72.0516 8.16077 72.0498 8.16036 72.0463 8.15926C72.05 8.16007 72.0518 8.16062 72.0517 8.16069ZM61.4124 9.66617C59.298 9.42769 57.2199 8.91544 55.2301 8.13999L55.2169 8.13481L55.2036 8.12949C51.9726 6.82993 47.1464 6.10389 43.1584 8.04561C41.0795 9.09038 38.8719 9.49745 36.8195 9.6811C36.9363 9.774 37.052 9.86858 37.1663 9.96484C38.906 11.4092 40.2222 13.3026 40.9752 15.4414L40.985 15.4691L40.9941 15.497C41.3658 16.6317 41.5254 17.8258 41.4649 19.0188L41.4648 19.0214C41.4274 19.746 41.313 20.4321 41.2239 20.9644L41.2204 20.985C41.1254 21.5526 41.0573 21.9592 41.0286 22.356L41.0284 22.3587L41.0282 22.3614C40.9402 23.5458 41.4602 24.5536 42.7978 26.1794L42.8008 26.183L42.8037 26.1866C44.2109 27.9092 45.3881 29.8101 46.3054 31.8406L46.3109 31.8529L46.3164 31.8652C48.1388 36.0108 48.8005 40.5798 48.2306 45.0768C48.2014 45.327 48.1725 45.5689 48.1445 45.8034C47.8914 47.9205 47.7105 49.4345 48.0699 50.9505L48.0763 50.9775L48.0822 51.0047C48.2483 51.7765 48.599 52.4911 49.0988 53.0883C49.5986 52.4911 49.9492 51.7765 50.1153 51.0047L50.1205 50.9806L50.1261 50.9567C50.4879 49.4143 50.2991 47.8432 50.0418 45.7035C50.0174 45.5008 49.9925 45.2929 49.9673 45.0796C49.3937 40.581 50.0558 36.0095 51.8819 31.8635L51.8883 31.849L51.8949 31.8346C52.8179 29.8047 54.0008 27.9053 55.4133 26.1848C56.7702 24.5008 57.2768 23.5433 57.1916 22.3487M61.4124 9.66617C61.2915 9.7621 61.1719 9.85983 61.0537 9.95935C59.3158 11.4036 57.9989 13.2942 57.2414 15.4299L57.2292 15.4644L57.2179 15.4992C56.8516 16.6295 56.6929 17.8174 56.7493 19.0047L56.7499 19.0171L56.7506 19.0294C56.7913 19.7472 56.9063 20.4285 56.9956 20.9578L56.9963 20.962C57.0932 21.5363 57.1625 21.9483 57.1915 22.3482" fill="#4F406C"/>
</svg>
