<svg width="56" height="64" viewBox="0 0 56 64" fill="none" xmlns="http://www.w3.org/2000/svg">
<path d="M48 48C50.125 48 52 46.25 52 44V18.125C52 18.125 52 18.125 52 18H42C39.75 18 38 16.25 38 14V4H20C17.75 4 16 5.875 16 8V44C16 46.25 17.75 48 20 48H48ZM48.75 14L42 7.25V14H48.75ZM12 8C12 3.625 15.5 0 20 0H38C39.5 0 41.125 0.75 42.25 1.875L54.25 13.875C55.375 15 56 16.625 56 18.125V44C56 48.5 52.375 52 48 52H20C15.5 52 12 48.5 12 44V8ZM2 12C3 12 4 13 4 14V48C4 54.625 9.375 60 16 60H42C43 60 44 61 44 62C44 63.125 43 64 42 64H16C7.125 64 0 56.875 0 48V14C0 13 0.875 12 2 12ZM32.625 20H35.25C37.5 20 39.25 21.875 39.25 24V26.75H42C44.125 26.75 46 28.5 46 30.75V33.375C46 35.625 44.125 37.375 42 37.375H39.25V40C39.25 42.25 37.5 44 35.25 44H32.625C30.375 44 28.625 42.25 28.625 40V37.375H26C23.75 37.375 22 35.625 22 33.375V30.75C22 28.5 23.75 26.75 26 26.75H28.625V24C28.625 21.875 30.375 20 32.625 20ZM32.625 24V28.75C32.625 29.25 32.375 29.75 32 30.125C31.625 30.5 31.125 30.75 30.625 30.75H26V33.375H30.625C31.75 33.375 32.625 34.25 32.625 35.375V40H35.25V35.375C35.25 34.25 36.125 33.375 37.25 33.375H41.875V30.75H37.25C36.125 30.75 35.25 29.875 35.25 28.75V24H32.625Z" fill="#4F406C"/>
</svg>
