<svg width="72" height="65" viewBox="0 0 72 65" fill="none" xmlns="http://www.w3.org/2000/svg">
<path d="M40 60C40.125 60 40.25 60 40.375 60C41.375 61.125 42.5 62.125 43.75 63.125C42.625 63.75 41.25 64.125 40 64.125H8C3.5 64.125 0 60.5 0 56.125V8C0 3.625 3.5 0 8 0H27.5C29 0 30.625 0.75 31.75 1.875L46.125 16.25C47.25 17.375 48 19 48 20.5V25.875L44 27.5V24H30C26.625 24 24 21.375 24 18V4H8C5.75 4 4 5.875 4 8V56C4 58.25 5.75 60 8 60H40ZM43.875 20C43.75 19.75 43.625 19.375 43.375 19.125L28.875 4.625C28.625 4.375 28.25 4.25 28 4.125V18C28 19.125 28.875 20 30 20H43.875ZM40 37.75C40.125 44.375 42.75 53.875 52 59V32.875L40 37.75ZM68 37.75L56 32.875V59C65.125 53.875 67.75 44.375 67.875 37.75H68ZM55.125 28.25L70.125 34.25C71.25 34.75 72 35.875 72 37C72 45 68.75 58.125 55.125 63.875C54.375 64.125 53.5 64.125 52.75 63.875C39.125 58.125 36 45 36 37C36 35.875 36.75 34.75 37.875 34.25L52.875 28.25C53.5 28 54.375 28 55 28.25H55.125Z" fill="#4F406C"/>
</svg>
