<svg width="48" height="64" viewBox="0 0 48 64" fill="none" xmlns="http://www.w3.org/2000/svg">
<path d="M40 60C42.125 60 44 58.25 44 56V24H30C26.625 24 24 21.375 24 18V4H8C5.75 4 4 5.875 4 8V56C4 58.25 5.75 60 8 60H40ZM30 20H43.875C43.75 19.75 43.625 19.375 43.375 19.125L28.875 4.625C28.625 4.375 28.25 4.25 28 4.125V18C28 19.125 28.875 20 30 20ZM8 0H27.5C29 0 30.625 0.75 31.75 1.875L46.125 16.25C47.25 17.375 48 19 48 20.5V56C48 60.5 44.375 64 40 64H8C3.5 64 0 60.5 0 56V8C0 3.625 3.5 0 8 0ZM22 52V44H14C12.875 44 12 43.125 12 42C12 41 12.875 40 14 40H22V32C22 31 22.875 30 24 30C25 30 26 31 26 32V40H34C35 40 36 41 36 42C36 43.125 35 44 34 44H26V52C26 53.125 25 54 24 54C22.875 54 22 53.125 22 52Z" fill="#4F406C"/>
</svg>
