<svg width="51" height="41" viewBox="0 0 51 41" fill="none" xmlns="http://www.w3.org/2000/svg">
<path d="M18.5 20.3115C12.9531 20.3115 8.5 15.8584 8.5 10.3115C8.5 4.84277 12.9531 0.311523 18.5 0.311523C23.9688 0.311523 28.5 4.84277 28.5 10.3115C28.5 15.8584 23.9688 20.3115 18.5 20.3115ZM18.5 2.81152C14.3594 2.81152 11 6.24902 11 10.3115C11 14.4521 14.3594 17.8115 18.5 17.8115C22.5625 17.8115 26 14.4521 26 10.3115C26 6.24902 22.5625 2.81152 18.5 2.81152ZM31.7812 38.3584C32.4062 39.2178 31.7812 40.3115 30.7656 40.3115H3.65625C2.17188 40.3115 1 39.1396 1 37.6553C0.921875 30.1553 7.01562 24.0615 14.5156 24.0615H22.4062C23.3438 24.0615 24.2031 24.2178 24.9844 24.374C25.5312 24.4521 25.9219 24.9209 26 25.4678C26 25.5459 26 25.5459 26 25.5459C26.1562 26.3271 25.375 27.0303 24.5938 26.7959C23.8906 26.7178 23.1875 26.5615 22.4062 26.5615H14.5156C8.42188 26.5615 3.42188 31.5615 3.5 37.6553C3.5 37.7334 3.57812 37.8115 3.65625 37.8115H30.7656C31.1562 37.8115 31.5469 38.0459 31.7812 38.3584ZM49.5938 21.5615C50.4531 21.874 51 22.6553 51 23.4365C51 33.2021 44.5938 38.5928 40.5312 40.1553C40.2188 40.3115 39.9062 40.3115 39.6719 40.3115C39.4375 40.3115 39.125 40.3115 38.8125 40.0771C33.8125 38.124 28.5 32.1084 28.5 23.4365C28.5 22.6553 29.0469 21.874 29.8281 21.5615L38.8125 18.0459C39.0469 17.8896 39.2812 17.8115 39.6719 17.8115C39.9844 17.8115 40.2969 17.8896 40.6094 18.0459L49.5938 21.5615ZM38.5 37.1865V20.8584L31 23.749C31.0781 30.3896 34.6719 35.1553 38.5 37.1865ZM41 37.2646C43.9688 35.5459 48.3438 31.1709 48.5 23.749L41 20.8584V37.2646Z" fill="url(#paint0_linear_1_4207)"/>
<defs>
<linearGradient id="paint0_linear_1_4207" x1="26" y1="0.311523" x2="26" y2="40.3115" gradientUnits="userSpaceOnUse">
<stop stop-color="#E0004D"/>
<stop offset="1"/>
</linearGradient>
</defs>
</svg>
