<svg width="15" height="17" viewBox="0 0 15 17" fill="none" xmlns="http://www.w3.org/2000/svg">
<path d="M6.03125 2.43652C5.96875 2.68652 5.78125 2.81152 5.5625 2.81152H5C4.71875 2.81152 4.5 3.06152 4.5 3.31152V4.31152H7.5H10.5V3.31152C10.5 3.06152 10.25 2.81152 10 2.81152H9.4375C9.1875 2.81152 9 2.68652 8.9375 2.43652C8.78125 1.81152 8.1875 1.31152 7.5 1.31152C6.78125 1.31152 6.1875 1.81152 6.03125 2.43652ZM7.5 0.311523C8.5 0.311523 9.40625 0.936523 9.78125 1.81152H10C10.625 1.81152 11.1875 2.24902 11.4062 2.81152H11.5C12.5938 2.81152 13.5 3.71777 13.5 4.81152V14.3115C13.5 15.4365 12.5938 16.3115 11.5 16.3115H3.5C2.375 16.3115 1.5 15.4365 1.5 14.3115V4.81152C1.5 3.71777 2.375 2.81152 3.5 2.81152H3.5625C3.78125 2.24902 4.34375 1.81152 5 1.81152H5.1875C5.59375 0.936523 6.46875 0.311523 7.5 0.311523ZM11.5 3.81152V4.31152C11.5 4.87402 11.0312 5.31152 10.5 5.31152H7.5H4.5C3.9375 5.31152 3.5 4.87402 3.5 4.31152V3.81152C2.9375 3.81152 2.5 4.28027 2.5 4.81152V14.3115C2.5 14.874 2.9375 15.3115 3.5 15.3115H11.5C12.0312 15.3115 12.5 14.874 12.5 14.3115V4.81152C12.5 4.28027 12.0312 3.81152 11.5 3.81152ZM8 2.81152C8 3.09277 7.75 3.31152 7.5 3.31152C7.21875 3.31152 7 3.09277 7 2.81152C7 2.56152 7.21875 2.31152 7.5 2.31152C7.75 2.31152 8 2.56152 8 2.81152ZM7.5 7.31152C6.9375 7.31152 6.5 7.78027 6.5 8.31152C6.5 8.87402 6.9375 9.31152 7.5 9.31152C8.03125 9.31152 8.5 8.87402 8.5 8.31152C8.5 7.78027 8.03125 7.31152 7.5 7.31152ZM7.5 10.3115C6.78125 10.3115 6.125 9.93652 5.75 9.31152C5.40625 8.71777 5.40625 7.93652 5.75 7.31152C6.125 6.71777 6.78125 6.31152 7.5 6.31152C8.1875 6.31152 8.84375 6.71777 9.21875 7.31152C9.5625 7.93652 9.5625 8.71777 9.21875 9.31152C8.84375 9.93652 8.1875 10.3115 7.5 10.3115ZM6.5 12.3115C5.65625 12.3115 5 12.999 5 13.8115C5 14.0928 4.75 14.3115 4.5 14.3115C4.21875 14.3115 4 14.0928 4 13.8115C4 12.4365 5.09375 11.3115 6.5 11.3115H8.5C9.875 11.3115 11 12.4365 11 13.8115C11 14.0928 10.75 14.3115 10.5 14.3115C10.2188 14.3115 10 14.0928 10 13.8115C10 12.999 9.3125 12.3115 8.5 12.3115H6.5Z" fill="url(#paint0_linear_1_4241)"/>
<defs>
<linearGradient id="paint0_linear_1_4241" x1="7.5" y1="0.311523" x2="7.5" y2="16.3115" gradientUnits="userSpaceOnUse">
<stop stop-color="#E0004D"/>
<stop offset="1"/>
</linearGradient>
</defs>
</svg>
