<svg width="19" height="17" viewBox="0 0 19 17" fill="none" xmlns="http://www.w3.org/2000/svg">
<path d="M5 2.31152C4.71875 2.31152 4.5 2.56152 4.5 2.81152V12.3115H14.5V2.81152C14.5 2.56152 14.25 2.31152 14 2.31152H5ZM15.5 2.81152V12.3115H16C16.25 12.3115 16.5 12.5615 16.5 12.8115C16.5 13.0928 16.25 13.3115 16 13.3115H15.5H14.5H4.5H3.5H3C2.71875 13.3115 2.5 13.0928 2.5 12.8115C2.5 12.5615 2.71875 12.3115 3 12.3115H3.5V2.81152C3.5 1.99902 4.15625 1.31152 5 1.31152H14C14.8125 1.31152 15.5 1.99902 15.5 2.81152ZM2 10.3115H2.5V11.3115H2C1.71875 11.3115 1.5 11.5615 1.5 11.8115V13.8115C1.5 14.0928 1.71875 14.3115 2 14.3115H17C17.25 14.3115 17.5 14.0928 17.5 13.8115V11.8115C17.5 11.5615 17.25 11.3115 17 11.3115H16.5V10.3115H17C17.8125 10.3115 18.5 10.999 18.5 11.8115V13.8115C18.5 14.6553 17.8125 15.3115 17 15.3115H2C1.15625 15.3115 0.5 14.6553 0.5 13.8115V11.8115C0.5 10.999 1.15625 10.3115 2 10.3115ZM12.3438 5.74902L9 9.09277C8.8125 9.28027 8.5 9.28027 8.3125 9.09277L6.625 7.43652C6.4375 7.24902 6.4375 6.90527 6.625 6.71777C6.8125 6.53027 7.15625 6.53027 7.34375 6.71777L8.65625 8.03027L11.625 5.06152C11.8125 4.87402 12.1562 4.87402 12.3438 5.06152C12.5312 5.24902 12.5312 5.56152 12.3438 5.74902Z" fill="url(#paint0_linear_1_4230)"/>
<defs>
<linearGradient id="paint0_linear_1_4230" x1="9.5" y1="0.311523" x2="9.5" y2="16.3115" gradientUnits="userSpaceOnUse">
<stop stop-color="#E0004D"/>
<stop offset="1"/>
</linearGradient>
</defs>
</svg>
