<svg width="640" height="512" viewBox="0 0 640 512" fill="none" xmlns="http://www.w3.org/2000/svg">
<path d="M192 80C192 67.2696 186.943 55.0606 177.941 46.0589C168.939 37.0571 156.73 32 144 32C131.27 32 119.061 37.0571 110.059 46.0589C101.057 55.0606 96 67.2696 96 80C96 92.7304 101.057 104.939 110.059 113.941C119.061 122.943 131.27 128 144 128C156.73 128 168.939 122.943 177.941 113.941C186.943 104.939 192 92.7304 192 80ZM64 80C64 58.7827 72.4285 38.4344 87.4315 23.4315C102.434 8.42855 122.783 0 144 0C165.217 0 185.566 8.42855 200.569 23.4315C215.571 38.4344 224 58.7827 224 80C224 101.217 215.571 121.566 200.569 136.569C185.566 151.571 165.217 160 144 160C122.783 160 102.434 151.571 87.4315 136.569C72.4285 121.566 64 101.217 64 80ZM320 288C336.974 288 353.252 281.257 365.255 269.255C377.257 257.252 384 240.974 384 224C384 207.026 377.257 190.747 365.255 178.745C353.252 166.743 336.974 160 320 160C303.026 160 286.748 166.743 274.745 178.745C262.743 190.747 256 207.026 256 224C256 240.974 262.743 257.252 274.745 269.255C286.748 281.257 303.026 288 320 288ZM320 128C332.607 128 345.09 130.483 356.738 135.308C368.385 140.132 378.968 147.203 387.882 156.118C396.797 165.032 403.868 175.615 408.692 187.262C413.517 198.91 416 211.393 416 224C416 236.607 413.517 249.09 408.692 260.738C403.868 272.385 396.797 282.968 387.882 291.882C378.968 300.797 368.385 307.868 356.738 312.692C345.09 317.517 332.607 320 320 320C307.393 320 294.91 317.517 283.262 312.692C271.615 307.868 261.032 300.797 252.118 291.882C243.203 282.968 236.132 272.385 231.308 260.738C226.483 249.09 224 236.607 224 224C224 211.393 226.483 198.91 231.308 187.262C236.132 175.615 243.203 165.032 252.118 156.118C261.032 147.203 271.615 140.132 283.262 135.308C294.91 130.483 307.393 128 320 128ZM261.3 384C207.1 384 162.9 426.5 160.1 480H448C448 491.7 451.1 502.6 456.6 512H154.7C140 512 128 500.1 128 485.3C128 411.7 187.7 352 261.3 352H378.7C383.3 352 387.8 352.2 392.2 352.7C387 362 384 372.6 384 384V384.1C382.2 384 380.5 384 378.7 384H261.3ZM512 128C524.73 128 536.939 122.943 545.941 113.941C554.943 104.939 560 92.7304 560 80C560 67.2696 554.943 55.0606 545.941 46.0589C536.939 37.0571 524.73 32 512 32C499.27 32 487.061 37.0571 478.059 46.0589C469.057 55.0606 464 67.2696 464 80C464 92.7304 469.057 104.939 478.059 113.941C487.061 122.943 499.27 128 512 128ZM512 0C533.217 0 553.566 8.42855 568.569 23.4315C583.571 38.4344 592 58.7827 592 80C592 101.217 583.571 121.566 568.569 136.569C553.566 151.571 533.217 160 512 160C490.783 160 470.434 151.571 455.431 136.569C440.429 121.566 432 101.217 432 80C432 58.7827 440.429 38.4344 455.431 23.4315C470.434 8.42855 490.783 0 512 0ZM528 224H448C448 213 446.6 202.2 444 192H528C589.9 192 640 242.1 640 304C640 312.8 632.8 320 624 320C615.2 320 608 312.8 608 304C608 259.8 572.2 224 528 224ZM192 224H112C67.8 224 32 259.8 32 304C32 312.8 24.8 320 16 320C7.2 320 0 312.8 0 304C0 242.1 50.1 192 112 192H196C193.4 202.2 192 213 192 224ZM512 288H544C561.7 288 576 302.3 576 320V352H608C625.7 352 640 366.3 640 384V416C640 433.7 625.7 448 608 448H576V480C576 497.7 561.7 512 544 512H512C494.3 512 480 497.7 480 480V448H448C430.3 448 416 433.7 416 416V384C416 366.3 430.3 352 448 352H480V320C480 302.3 494.3 288 512 288ZM512 368C512 376.8 504.8 384 496 384H448V416H496C504.8 416 512 423.2 512 432V480H544V432C544 423.2 551.2 416 560 416H608V384H560C551.2 384 544 376.8 544 368V320H512V368Z" fill="url(#paint0_linear_1_2078)"/>
<defs>
<linearGradient id="paint0_linear_1_2078" x1="320" y1="0" x2="320" y2="512" gradientUnits="userSpaceOnUse">
<stop stop-color="#E0004D"/>
<stop offset="1" stop-color="#020202"/>
</linearGradient>
</defs>
</svg>
