<svg width="41" height="33" viewBox="0 0 41 33" fill="none" xmlns="http://www.w3.org/2000/svg">
<path d="M37.9375 5.25C39.4844 5.25 40.75 6.51562 40.75 8.0625C40.75 9.67969 39.4844 10.875 37.9375 10.875C37.8672 10.875 37.8672 10.875 37.8672 10.875L34.2812 30.4219C34.1406 31.4766 33.1562 32.25 32.1016 32.25H8.82812C7.77344 32.25 6.78906 31.4766 6.57812 30.4219L2.99219 10.875C1.44531 10.875 0.179688 9.67969 0.179688 8.0625C0.179688 6.51562 1.44531 5.25 2.99219 5.25C4.53906 5.25 5.80469 6.51562 5.80469 8.0625C5.80469 8.69531 5.59375 9.25781 5.24219 9.75L11.5703 14.8125C11.9922 15.1641 12.4844 15.3047 12.9766 15.3047C13.75 15.3047 14.5938 14.8125 14.9453 14.0391L18.9531 5.95312C18.1797 5.46094 17.6172 4.61719 17.6172 3.5625C17.6172 2.01562 18.8828 0.75 20.5 0.75C22.0469 0.75 23.2422 2.01562 23.2422 3.5625C23.2422 4.61719 22.75 5.46094 21.9062 5.95312L25.9844 14.0391C26.3359 14.8125 27.1797 15.3047 27.9531 15.3047C28.4453 15.3047 28.9375 15.1641 29.3594 14.8125L35.6875 9.75C35.3359 9.25781 35.125 8.69531 35.125 8.0625C35.125 6.51562 36.3203 5.25 37.9375 5.25ZM31.1172 28.875L33.5078 15.7969L31.4688 17.4141C30.4844 18.2578 29.2891 18.6797 27.9531 18.6797C25.8438 18.6797 23.9453 17.4844 22.9609 15.5859L20.5 10.5938L17.9688 15.5859C17.0547 17.4844 15.0859 18.6797 12.9766 18.6797C11.7109 18.6797 10.4453 18.2578 9.46094 17.4141L7.42188 15.7969L9.8125 28.875H31.1172Z" fill="white"/>
</svg>
