<svg width="1138" height="36" viewBox="0 0 1138 36" fill="none" xmlns="http://www.w3.org/2000/svg">
<g clip-path="url(#clip0_33_136)">
<path d="M33.25 20.2498C33.7422 20.2498 34.1641 19.9686 34.3047 19.4764L37.5391 11.4607L43.4453 35.0857C43.5859 35.6482 44.0078 35.9295 44.5703 35.9998C45.0625 35.9295 45.5547 35.5779 45.625 35.0857L51.3906 6.18738L54.6953 19.3357C54.8359 19.8279 55.3281 20.2498 55.75 20.2498H1137.44C1137.79 20.2498 1138 19.9687 1138 19.6874V18.5624C1138 18.2108 1137.79 17.9999 1137.44 17.9999L56.6641 17.9998L52.375 0.843629C52.2344 0.281129 51.8125 -0.000122021 51.25 -0.00012207C50.7578 -0.000122113 50.2656 0.35144 50.1953 0.843629L44.4297 29.742L38.875 7.59363C38.7344 7.10144 38.3125 6.74988 37.8906 6.74988C37.3281 6.67957 36.9063 6.96082 36.7656 7.453L32.5469 17.9998H0.562501C0.281251 17.9998 1.2909e-07 18.2107 9.835e-08 18.5623L0 19.6873C-2.458e-08 19.9686 0.28125 20.2498 0.5625 20.2498H33.25Z" fill="#77BDFB" fill-opacity="0.5"/>
</g>
<defs>
<clipPath id="clip0_33_136">
<rect width="1138" height="36" fill="white"/>
</clipPath>
</defs>
</svg>
