<svg width="391" height="136" viewBox="0 0 391 136" fill="none" xmlns="http://www.w3.org/2000/svg">
<path d="M390.93 51.0199C380.77 51.0099 370.61 51.1799 360.46 50.8899C356.81 50.7799 354.92 52.1399 353.74 55.3199C350.02 65.3999 348.61 76.0099 346.61 86.6299C348.13 84.7099 349.51 82.6699 351.2 80.9099C354.75 77.1999 357.47 78.0099 359.1 82.7799C359.87 85.0399 358.68 88.8999 361.34 89.3299C364.11 89.7799 365.91 86.4799 367.57 84.1999C369.73 81.2499 371.81 78.2399 373.94 75.2699C374.43 74.5799 375.03 73.8499 375.97 74.3099C377.16 74.8899 376.95 75.9199 376.39 76.8299C373.08 82.2299 369.73 87.6599 364.57 91.4999C360.64 94.4299 358.29 92.9599 356.66 87.4099C356.14 85.6599 357.09 82.6499 354.77 82.3499C352.84 82.0999 351.88 84.7999 350.84 86.4599C347.55 91.6799 345.01 97.2699 342.95 103.08C342.45 104.47 342.04 106.59 340.35 106.22C338.14 105.73 338.97 103.51 339.31 101.99C342.85 86.3099 346.48 70.6499 349.96 54.9599C350.22 53.7899 352.47 51.5499 349.23 51.1699C347.16 50.9299 344.69 50.1299 343.84 53.7399C338.65 75.8499 333.81 98.0299 329.98 120.41C329.52 123.1 328.12 125.8 329.49 128.71C330.22 130.27 329.17 131.61 328.03 132.6C327.7 132.89 326.65 132.78 326.24 132.46C325.02 131.51 325.37 130.17 325.54 128.81C327.78 111.53 331.74 94.5799 335.29 77.5499C336.81 70.2499 338.53 62.9899 340.07 55.6999C340.39 54.1999 342.34 52.0599 339.41 51.2799C336.97 50.6299 334.7 51.4199 333.94 54.2499C332.6 59.2099 331.2 64.1599 330.11 69.1799C327.06 83.2699 324.12 97.3799 321.26 111.51C320.84 113.58 321.12 115.8 321.05 117.94C320.99 119.64 320.84 121.75 318.74 121.7C316.24 121.64 316.86 119.22 317.12 117.8C318.81 108.51 320.67 99.2499 322.47 89.9799C322.66 89.0199 322.82 88.0599 323.1 86.5299C319.56 88.6299 317.62 93.5399 312.99 91.3299C309.05 89.4499 309.42 84.8699 307.76 81.2299C305.15 82.5399 304.2 85.2299 302.28 86.8899C300.48 88.4499 298.45 90.2199 296.81 86.6799C295.78 84.4599 294.88 85.7699 293.91 86.6799C292.21 88.2699 290.65 90.0699 288.75 91.3799C286.33 93.0499 283.85 94.8699 280.49 93.3199C276.98 91.6999 276.21 88.3999 276.37 85.3999C276.78 77.9999 278.97 71.0199 283.71 65.1299C285.02 63.4999 286.82 61.4199 289.11 63.1899C291 64.6399 289.95 66.8099 289.01 68.6299C287.76 71.0499 285.93 73.0699 283.85 74.6599C279.83 77.7299 279.46 81.8999 279.76 86.3199C280.06 90.7999 282.27 92.0099 286 89.5999C291.41 86.1099 295.3 81.1199 298.76 75.7699C300.11 73.6799 301.32 71.4099 303.06 69.6999C305.66 67.1499 308.74 67.2299 311.62 69.4899C312.39 70.0899 313.09 70.9699 312.28 72.0499C311.68 72.8599 310.87 72.8599 310.11 72.2799C306.15 69.2499 304.35 72.2499 302.85 75.0999C301.49 77.6699 299.79 80.2399 300.1 83.8999C303.3 81.9599 304.63 78.8299 306.76 76.4599C307.61 75.5099 308.1 73.8199 309.75 74.3899C311.35 74.9399 310.76 76.6199 310.96 77.8799C311.38 80.4999 311.66 83.1599 312.37 85.6999C313.24 88.7999 314.92 89.8599 317.62 87.0899C321.29 83.3299 324.11 78.8999 325.73 74.0599C327.83 67.7999 328.89 61.1899 330.55 54.7699C331.17 52.3699 330.21 51.7799 328.09 51.8399C325.26 51.9199 322.43 51.9999 319.6 51.9399C318.25 51.9099 316.01 52.5599 316.11 50.3699C316.21 48.2699 318.44 49.1599 319.78 48.9999C321.92 48.7299 324.14 48.2499 326.23 48.5299C331.56 49.2599 333.02 46.2299 333.91 41.8299C334.93 36.7799 336.86 31.9699 339.44 27.4699C340.26 26.0299 341.38 24.4899 343.37 25.0799C345.57 25.7399 345.05 27.8199 344.85 29.3299C344.11 34.6699 341.66 39.4099 339.43 44.2399C338.94 45.3099 336.79 46.8499 339.01 47.8999C341.18 48.9199 342.3 47.1899 342.79 45.1899C343.66 41.6499 344.47 38.0899 345.44 34.5799C345.72 33.5599 345.99 31.9299 347.53 32.2899C349.4 32.7299 348.76 34.2599 348.41 35.5599C347.61 38.4399 346.7 41.2899 346.12 44.2099C345.84 45.5999 344.81 47.7899 347.63 47.9899C349.52 48.1299 351.56 48.6399 352.37 45.7899C353.87 40.5299 355.24 35.1699 357.99 30.3899C359.28 28.1399 360.2 23.8799 363.6 25.3899C366.66 26.7499 364.77 30.4499 363.89 32.9599C362.2 37.7799 360.14 42.4799 357.91 48.0399C369.17 48.0399 380.05 48.0399 390.92 48.0399C390.93 49.0199 390.93 50.0199 390.93 51.0199Z" fill="#47BBEB"/>
<path d="M220.15 79.93C227.65 78.95 230.65 74.6 231.65 67.16C233.02 57 235.73 47.03 237.84 36.97C238.04 36 238.07 34.98 238.07 33.99C238.07 33.06 238.5 31.87 237.34 31.35C236.21 30.84 235.5 31.86 234.81 32.5C228.9 37.89 224.77 44.47 222.34 52.05C221.4 54.97 221.01 58.14 225.46 58.87C226.34 59.01 227.06 59.59 226.83 60.58C226.55 61.8 225.48 62.03 224.46 61.83C221.49 61.23 219.23 59.94 218.9 56.43C218.46 51.67 220.39 47.58 222.53 43.67C225.41 38.42 228.69 33.35 233.45 29.54C235.03 28.27 236.79 26.36 239.22 27.8C241.59 29.2 241.74 31.6 241.28 33.96C239.46 43.4 237.58 52.83 235.67 62.26C234.82 66.48 233.87 70.67 232.76 75.8C238.86 73.98 244.33 71.74 250.01 70.8C258.91 69.33 262.43 64.68 263.37 55.72C264.46 45.23 267.5 34.93 269.75 24.57C270.04 23.26 269.7 20.92 271.85 21.35C273.84 21.74 272.94 23.83 272.68 25.15C270.32 37.02 267.89 48.87 265.44 60.72C264.32 66.14 264.5 66.36 269.57 64.81C272.11 64.03 274.63 63.2 277.18 62.46C278.56 62.06 280.58 61.13 281.17 62.78C281.85 64.7 279.61 64.82 278.26 65.25C274.62 66.4 271.02 67.74 267.32 68.62C264.38 69.32 263.37 71.04 262.88 73.79C260.96 84.56 258.87 95.3 256.84 106.05C256.81 106.21 256.83 106.4 256.75 106.54C256.13 107.71 256.39 110.02 254.26 109.4C252.62 108.93 253.36 107.29 253.63 105.96C255.34 97.34 257.05 88.72 258.55 80.07C259.04 77.22 260.23 74.38 259.71 70.94C251.07 73.58 242.86 76.19 234.59 78.56C232.4 79.19 231.8 80.53 231.48 82.43C228.82 98.07 224.06 113.34 223.32 129.32C223.26 130.69 222.74 132.5 221.34 132.38C219.07 132.19 219.47 130.23 219.7 128.5C221.43 115.17 224.47 102.08 226.96 88.88C228.56 80.38 228.5 80.37 220.16 83.18C220.18 82.05 220.17 80.99 220.15 79.93Z" fill="#47BBEB"/>
<path d="M89.7801 69.4599C95.7201 74.2299 97.2601 78.0499 95.5301 83.2699C93.8101 88.4799 89.6301 90.9599 82.4701 90.9899C77.9801 91.0099 73.4901 90.8799 69.0101 91.0399C66.6201 91.1299 65.8901 90.3199 65.9101 87.9399C66.0101 75.9899 66.0401 64.0299 65.9001 52.0799C65.8701 49.3399 66.8901 48.7099 69.3701 48.8099C73.5201 48.9699 77.6801 48.8999 81.8301 48.8499C87.3001 48.7799 91.76 50.6599 93.84 55.9299C95.91 61.1199 94.5201 65.7099 89.7801 69.4599ZM78.5701 72.9799C77.1801 73.6799 73.9101 71.6999 73.2701 73.8699C72.3701 76.8799 72.4401 80.5699 73.3401 83.5999C73.9801 85.7699 77.1501 84.5499 79.1601 84.5799C86.0601 84.6899 88.8801 83.0099 89.0401 79.0199C89.2001 74.7899 86.2601 72.9899 78.5701 72.9799ZM72.8801 60.2599C72.8801 66.8899 72.8801 66.8899 78.0601 66.8899C84.5501 66.8899 87.8001 64.8699 87.7201 60.8699C87.6401 57.0299 84.5401 55.4699 78.3201 55.0399C73.5201 54.7099 71.8601 56.3299 72.8801 60.2599Z" fill="#2554A2"/>
<path d="M14.05 47.73C12.52 37.4 22.53 25.85 35.09 26.18C47.23 26.5 56.55 34.26 56.72 47.36C56.9 61.21 45.79 69.06 35.15 69.26C24.83 69.45 12.52 59.47 14.05 47.73ZM35.22 64.1C44.69 64.17 52.02 56.97 52.05 47.59C52.08 38.75 44.15 31.04 35.01 31.03C27.1 31.02 18.62 38.19 18.43 45.06C18.12 56.63 24.63 64.02 35.22 64.1Z" fill="#47BBEB"/>
<path d="M220.15 79.93C220.16 80.99 220.18 82.05 220.19 83.12C220.27 84.26 220.94 84.98 221.99 85.2C225.39 85.92 224.52 88.93 223.77 90.26C222.28 92.91 219.26 91.63 217.79 90.29C215.01 87.76 213.03 87.82 210.05 89.99C206.77 92.37 202.77 91.59 199 90.82C197.82 90.11 196.63 89.39 195.45 88.68C190.69 84.21 188.7 78.89 190.66 72.48C192.37 66.87 196.26 63.58 201.99 62.51C203.27 62.27 204.66 62.2 205.94 62.41C209.28 62.96 212.24 65.29 216.08 63.06C218.27 61.8 220.32 63.01 220.08 66.48C219.78 70.94 220.1 75.44 220.15 79.93ZM213.31 76.94C213.32 72.28 209.87 68.76 205.23 68.66C200.33 68.56 196.73 72.15 196.81 77.07C196.89 81.62 200.22 85.08 204.55 85.09C209.63 85.11 213.3 81.7 213.31 76.94Z" fill="#2554A2"/>
<path d="M128.4 76.93C128.41 85.23 121.86 91.59 113.3 91.59C104.86 91.58 98.1201 85.06 98.1401 76.9C98.1601 68.75 104.92 62.22 113.33 62.21C121.8 62.21 128.39 68.64 128.4 76.93ZM121.76 76.74C121.64 72.04 117.71 68.47 112.89 68.68C108.24 68.88 104.92 72.43 105.01 77.11C105.1 81.96 108.81 85.37 113.75 85.16C118.34 84.96 121.88 81.24 121.76 76.74Z" fill="#2554A2"/>
<path d="M132.29 76.98C132.29 73.82 132.28 70.67 132.29 67.51C132.31 63.1 134.73 61.03 138.2 63.25C140.1 64.46 140.75 63.86 142.12 63.28C148.21 60.72 154.57 63.72 156.1 70.17C157.57 76.37 156.61 82.74 156.67 89.03C156.7 92.08 154.05 90.69 152.5 90.96C150.54 91.31 149.92 90.31 149.96 88.42C150.06 84.1 149.96 79.78 149.99 75.47C150.02 71.67 148.78 68.71 144.48 68.76C140.19 68.81 139.04 71.85 139.06 75.6C139.09 79.75 138.92 83.91 139.12 88.05C139.24 90.6 138.17 91.09 135.91 91.04C133.67 90.99 132.04 90.92 132.22 87.93C132.46 84.3 132.29 80.64 132.29 76.98Z" fill="#2554A2"/>
<path d="M162.06 76.75C162.06 73.6 162.04 70.44 162.06 67.29C162.09 63 164.05 61.13 167.61 63.19C169.93 64.53 170.94 63.59 172.54 62.99C178.48 60.78 185.27 64.46 185.95 70.87C186.58 76.78 186.21 82.8 186.37 88.76C186.44 91.51 184.52 90.9 182.96 90.98C181.2 91.07 179.68 91.11 179.76 88.53C179.9 84.22 179.83 79.9 179.78 75.59C179.74 71.94 178.75 68.77 174.36 68.75C170.04 68.73 168.84 71.62 168.92 75.46C169 79.44 168.78 83.43 168.99 87.4C169.14 90.21 168.21 91.03 165.38 91.08C162.23 91.14 161.9 89.69 162.01 87.18C162.17 83.73 162.06 80.24 162.06 76.75Z" fill="#2554A2"/>
<path d="M195.45 88.6699C196.63 89.3799 197.82 90.0999 199 90.8099C198.06 91.4399 196.67 91.8699 196.27 92.7499C195.54 94.3299 194.96 95.6599 193.14 94.3099C191.21 92.8799 192.15 91.4899 193.6 90.2799C194.23 89.7699 194.84 89.2099 195.45 88.6699Z" fill="#47BBEB"/>
<path d="M35.64 36.2C37.71 36.74 38.18 38.2899 37.99 40.0499C37.61 43.6199 38.4 45.83 42.71 45.2C44.3 44.97 46.36 45.2399 46.43 47.4399C46.51 49.8899 44.62 50.27 42.62 50.02C39.45 49.62 37.4 50.35 38.03 54.16C38.41 56.4799 36.96 57.6799 35.02 57.8499C32.14 58.1099 32.99 55.59 33.17 54.2999C33.76 50.0099 31.33 49.77 28.14 49.95C26.44 50.05 24.06 50.53 24.18 47.66C24.29 45.16 26.43 44.95 28.26 45.2C32.29 45.74 33.62 44.03 33.14 40.2C32.9 38.34 33.15 36.48 35.64 36.2Z" fill="#47BBEB"/>
</svg>
