<svg width="196" height="68" viewBox="0 0 196 68" fill="none" xmlns="http://www.w3.org/2000/svg">
<g clip-path="url(#clip0_1_173)">
<path d="M195.465 25.5102C190.385 25.5052 185.305 25.5902 180.23 25.4452C178.405 25.3902 177.46 26.0702 176.87 27.6602C175.01 32.7002 174.305 38.0052 173.305 43.3152C174.065 42.3552 174.755 41.3352 175.6 40.4552C177.375 38.6002 178.735 39.0052 179.55 41.3902C179.935 42.5202 179.34 44.4502 180.67 44.6652C182.055 44.8902 182.955 43.2402 183.785 42.1002C184.865 40.6252 185.905 39.1202 186.97 37.6352C187.215 37.2902 187.515 36.9252 187.985 37.1552C188.58 37.4452 188.475 37.9602 188.195 38.4152C186.54 41.1152 184.865 43.8302 182.285 45.7502C180.32 47.2152 179.145 46.4802 178.33 43.7052C178.07 42.8302 178.545 41.3252 177.385 41.1752C176.42 41.0502 175.94 42.4002 175.42 43.2302C173.775 45.8402 172.505 48.6352 171.475 51.5402C171.225 52.2352 171.02 53.2952 170.175 53.1102C169.07 52.8652 169.485 51.7552 169.655 50.9952C171.425 43.1552 173.24 35.3252 174.98 27.4802C175.11 26.8952 176.235 25.7752 174.615 25.5852C173.58 25.4652 172.345 25.0652 171.92 26.8702C169.325 37.9252 166.905 49.0152 164.99 60.2052C164.76 61.5502 164.06 62.9002 164.745 64.3552C165.11 65.1352 164.585 65.8052 164.015 66.3002C163.85 66.4452 163.325 66.3902 163.12 66.2302C162.51 65.7552 162.685 65.0852 162.77 64.4052C163.89 55.7652 165.87 47.2902 167.645 38.7752C168.405 35.1252 169.265 31.4952 170.035 27.8502C170.195 27.1002 171.17 26.0302 169.705 25.6402C168.485 25.3152 167.35 25.7102 166.97 27.1252C166.3 29.6052 165.6 32.0802 165.055 34.5902C163.53 41.6352 162.06 48.6902 160.63 55.7552C160.42 56.7902 160.56 57.9002 160.525 58.9702C160.495 59.8202 160.42 60.8752 159.37 60.8502C158.12 60.8202 158.43 59.6102 158.56 58.9002C159.405 54.2552 160.335 49.6252 161.235 44.9902C161.33 44.5102 161.41 44.0302 161.55 43.2652C159.78 44.3152 158.81 46.7702 156.495 45.6652C154.525 44.7252 154.71 42.4352 153.88 40.6152C152.575 41.2702 152.1 42.6152 151.14 43.4452C150.24 44.2252 149.225 45.1102 148.405 43.3402C147.89 42.2302 147.44 42.8852 146.955 43.3402C146.105 44.1352 145.325 45.0352 144.375 45.6902C143.165 46.5252 141.925 47.4352 140.245 46.6602C138.49 45.8502 138.105 44.2002 138.185 42.7002C138.39 39.0002 139.485 35.5102 141.855 32.5652C142.51 31.7502 143.41 30.7102 144.555 31.5952C145.5 32.3202 144.975 33.4052 144.505 34.3152C143.88 35.5252 142.965 36.5352 141.925 37.3302C139.915 38.8652 139.73 40.9502 139.88 43.1602C140.03 45.4002 141.135 46.0052 143 44.8002C145.705 43.0552 147.65 40.5602 149.38 37.8852C150.055 36.8402 150.66 35.7052 151.53 34.8502C152.83 33.5752 154.37 33.6152 155.81 34.7452C156.195 35.0452 156.545 35.4852 156.14 36.0252C155.84 36.4302 155.435 36.4302 155.055 36.1402C153.075 34.6252 152.175 36.1252 151.425 37.5502C150.745 38.8352 149.895 40.1202 150.05 41.9502C151.65 40.9802 152.315 39.4152 153.38 38.2302C153.805 37.7552 154.05 36.9102 154.875 37.1952C155.675 37.4702 155.38 38.3102 155.48 38.9402C155.69 40.2502 155.83 41.5802 156.185 42.8502C156.62 44.4002 157.46 44.9302 158.81 43.5452C160.645 41.6652 162.055 39.4502 162.865 37.0302C163.915 33.9002 164.445 30.5952 165.275 27.3852C165.585 26.1852 165.105 25.8902 164.045 25.9202C162.63 25.9602 161.215 26.0002 159.8 25.9702C159.125 25.9552 158.005 26.2802 158.055 25.1852C158.105 24.1352 159.22 24.5802 159.89 24.5002C160.96 24.3652 162.07 24.1252 163.115 24.2652C165.78 24.6302 166.51 23.1152 166.955 20.9152C167.465 18.3902 168.43 15.9852 169.72 13.7352C170.13 13.0152 170.69 12.2452 171.685 12.5402C172.785 12.8702 172.525 13.9102 172.425 14.6652C172.055 17.3352 170.83 19.7052 169.715 22.1202C169.47 22.6552 168.395 23.4252 169.505 23.9502C170.59 24.4602 171.15 23.5952 171.395 22.5952C171.83 20.8252 172.235 19.0452 172.72 17.2902C172.86 16.7802 172.995 15.9652 173.765 16.1452C174.7 16.3652 174.38 17.1302 174.205 17.7802C173.805 19.2202 173.35 20.6452 173.06 22.1052C172.92 22.8002 172.405 23.8952 173.815 23.9952C174.76 24.0652 175.78 24.3202 176.185 22.8952C176.935 20.2652 177.62 17.5852 178.995 15.1952C179.64 14.0702 180.1 11.9402 181.8 12.6952C183.33 13.3752 182.385 15.2252 181.945 16.4802C181.1 18.8902 180.07 21.2402 178.955 24.0202C184.585 24.0202 190.025 24.0202 195.46 24.0202C195.465 24.5102 195.465 25.0102 195.465 25.5102Z" fill="#47BBEB"/>
<path d="M110.075 39.9652C113.825 39.4752 115.325 37.3002 115.825 33.5802C116.51 28.5002 117.865 23.5152 118.92 18.4852C119.02 18.0002 119.035 17.4902 119.035 16.9952C119.035 16.5302 119.25 15.9352 118.67 15.6752C118.105 15.4202 117.75 15.9302 117.405 16.2502C114.45 18.9452 112.385 22.2352 111.17 26.0252C110.7 27.4852 110.505 29.0702 112.73 29.4352C113.17 29.5052 113.53 29.7952 113.415 30.2902C113.275 30.9002 112.74 31.0152 112.23 30.9152C110.745 30.6152 109.615 29.9702 109.45 28.2152C109.23 25.8352 110.195 23.7902 111.265 21.8352C112.705 19.2102 114.345 16.6752 116.725 14.7702C117.515 14.1352 118.395 13.1802 119.61 13.9002C120.795 14.6002 120.87 15.8002 120.64 16.9802C119.73 21.7002 118.79 26.4152 117.835 31.1302C117.41 33.2402 116.935 35.3352 116.38 37.9002C119.43 36.9902 122.165 35.8702 125.005 35.4002C129.455 34.6652 131.215 32.3402 131.685 27.8602C132.23 22.6152 133.75 17.4652 134.875 12.2852C135.02 11.6302 134.85 10.4602 135.925 10.6752C136.92 10.8702 136.47 11.9152 136.34 12.5752C135.16 18.5102 133.945 24.4352 132.72 30.3602C132.16 33.0702 132.25 33.1802 134.785 32.4052C136.055 32.0152 137.315 31.6002 138.59 31.2302C139.28 31.0302 140.29 30.5652 140.585 31.3902C140.925 32.3502 139.805 32.4102 139.13 32.6252C137.31 33.2002 135.51 33.8702 133.66 34.3102C132.19 34.6602 131.685 35.5202 131.44 36.8952C130.48 42.2802 129.435 47.6502 128.42 53.0252C128.405 53.1052 128.415 53.2002 128.375 53.2702C128.065 53.8552 128.195 55.0102 127.13 54.7002C126.31 54.4652 126.68 53.6452 126.815 52.9802C127.67 48.6702 128.525 44.3602 129.275 40.0352C129.52 38.6102 130.115 37.1902 129.855 35.4702C125.535 36.7902 121.43 38.0952 117.295 39.2802C116.2 39.5952 115.9 40.2652 115.74 41.2152C114.41 49.0352 112.03 56.6702 111.66 64.6602C111.63 65.3452 111.37 66.2502 110.67 66.1902C109.535 66.0952 109.735 65.1152 109.85 64.2502C110.715 57.5852 112.235 51.0402 113.48 44.4402C114.28 40.1902 114.25 40.1852 110.08 41.5902C110.09 41.0252 110.085 40.4952 110.075 39.9652Z" fill="#47BBEB"/>
<path d="M44.89 34.7302C47.86 37.1152 48.63 39.0252 47.765 41.6352C46.905 44.2402 44.815 45.4802 41.235 45.4952C38.99 45.5052 36.745 45.4402 34.505 45.5202C33.31 45.5652 32.945 45.1602 32.955 43.9702C33.005 37.9952 33.02 32.0152 32.95 26.0402C32.935 24.6702 33.445 24.3552 34.685 24.4052C36.76 24.4852 38.84 24.4502 40.915 24.4252C43.65 24.3902 45.88 25.3302 46.92 27.9652C47.955 30.5602 47.26 32.8552 44.89 34.7302ZM39.285 36.4902C38.59 36.8402 36.955 35.8502 36.635 36.9352C36.185 38.4402 36.22 40.2852 36.67 41.8002C36.99 42.8852 38.575 42.2752 39.58 42.2902C43.03 42.3452 44.44 41.5052 44.52 39.5102C44.6 37.3952 43.13 36.4952 39.285 36.4902ZM36.44 30.1302C36.44 33.4452 36.44 33.4452 39.03 33.4452C42.275 33.4452 43.9 32.4352 43.86 30.4352C43.82 28.5152 42.27 27.7352 39.16 27.5202C36.76 27.3552 35.93 28.1652 36.44 30.1302Z" fill="white"/>
<path d="M7.025 23.8651C6.26 18.7001 11.265 12.9251 17.545 13.0901C23.615 13.2501 28.275 17.1301 28.36 23.6801C28.45 30.6051 22.895 34.5301 17.575 34.6301C12.415 34.7251 6.26 29.7351 7.025 23.8651ZM17.61 32.0501C22.345 32.0851 26.01 28.4851 26.025 23.7951C26.04 19.3751 22.075 15.5201 17.505 15.5151C13.55 15.5101 9.31 19.0951 9.215 22.5301C9.06 28.3151 12.315 32.0101 17.61 32.0501Z" fill="#47BBEB"/>
<path d="M110.075 39.9652C110.08 40.4952 110.09 41.0252 110.095 41.5602C110.135 42.1302 110.47 42.4902 110.995 42.6002C112.695 42.9602 112.26 44.4652 111.885 45.1302C111.14 46.4552 109.63 45.8152 108.895 45.1452C107.505 43.8802 106.515 43.9102 105.025 44.9952C103.385 46.1852 101.385 45.7952 99.5 45.4102C98.91 45.0552 98.315 44.6952 97.725 44.3402C95.345 42.1052 94.35 39.4452 95.33 36.2402C96.185 33.4352 98.13 31.7902 100.995 31.2552C101.635 31.1352 102.33 31.1002 102.97 31.2052C104.64 31.4802 106.12 32.6452 108.04 31.5302C109.135 30.9002 110.16 31.5052 110.04 33.2402C109.89 35.4702 110.05 37.7202 110.075 39.9652ZM106.655 38.4702C106.66 36.1402 104.935 34.3802 102.615 34.3302C100.165 34.2802 98.365 36.0752 98.405 38.5352C98.445 40.8102 100.11 42.5402 102.275 42.5452C104.815 42.5552 106.65 40.8502 106.655 38.4702Z" fill="white"/>
<path d="M64.2 38.4652C64.205 42.6152 60.93 45.7952 56.65 45.7952C52.43 45.7902 49.06 42.5302 49.07 38.4502C49.08 34.3752 52.46 31.1102 56.665 31.1052C60.9 31.1052 64.195 34.3202 64.2 38.4652ZM60.88 38.3702C60.82 36.0202 58.855 34.2352 56.445 34.3402C54.12 34.4402 52.46 36.2152 52.505 38.5552C52.55 40.9802 54.405 42.6852 56.875 42.5802C59.17 42.4802 60.94 40.6202 60.88 38.3702Z" fill="white"/>
<path d="M66.145 38.4902C66.145 36.9102 66.14 35.3352 66.145 33.7552C66.155 31.5502 67.365 30.5152 69.1 31.6252C70.05 32.2302 70.375 31.9302 71.06 31.6402C74.105 30.3602 77.285 31.8602 78.05 35.0852C78.785 38.1852 78.305 41.3702 78.335 44.5152C78.35 46.0402 77.025 45.3452 76.25 45.4802C75.27 45.6552 74.96 45.1552 74.98 44.2102C75.03 42.0502 74.98 39.8902 74.995 37.7352C75.01 35.8352 74.39 34.3552 72.24 34.3802C70.095 34.4052 69.52 35.9252 69.53 37.8002C69.545 39.8752 69.46 41.9552 69.56 44.0252C69.62 45.3002 69.085 45.5452 67.955 45.5202C66.835 45.4952 66.02 45.4602 66.11 43.9652C66.23 42.1502 66.145 40.3202 66.145 38.4902Z" fill="white"/>
<path d="M81.03 38.3751C81.03 36.8001 81.02 35.2201 81.03 33.6451C81.045 31.5001 82.025 30.5651 83.805 31.5951C84.965 32.2651 85.47 31.7951 86.27 31.4951C89.24 30.3901 92.635 32.2301 92.975 35.4351C93.29 38.3901 93.105 41.4001 93.185 44.3801C93.22 45.7551 92.26 45.4501 91.48 45.4901C90.6 45.5351 89.84 45.5551 89.88 44.2651C89.95 42.1101 89.915 39.9501 89.89 37.7951C89.87 35.9701 89.375 34.3851 87.18 34.3751C85.02 34.3651 84.42 35.8101 84.46 37.7301C84.5 39.7201 84.39 41.7151 84.495 43.7001C84.57 45.1051 84.105 45.5151 82.69 45.5401C81.115 45.5701 80.95 44.8451 81.005 43.5901C81.085 41.8651 81.03 40.1201 81.03 38.3751Z" fill="white"/>
<path d="M97.725 44.3352C98.315 44.6902 98.91 45.0502 99.5 45.4052C99.03 45.7202 98.335 45.9352 98.135 46.3752C97.77 47.1652 97.48 47.8302 96.57 47.1552C95.605 46.4402 96.075 45.7452 96.8 45.1402C97.115 44.8852 97.42 44.6052 97.725 44.3352Z" fill="#47BBEB"/>
<path d="M17.82 18.1002C18.855 18.3702 19.09 19.1452 18.995 20.0252C18.805 21.8102 19.2 22.9152 21.355 22.6002C22.15 22.4852 23.18 22.6202 23.215 23.7202C23.255 24.9452 22.31 25.1352 21.31 25.0102C19.725 24.8102 18.7 25.1752 19.015 27.0802C19.205 28.2402 18.48 28.8402 17.51 28.9252C16.07 29.0552 16.495 27.7952 16.585 27.1502C16.88 25.0052 15.665 24.8852 14.07 24.9752C13.22 25.0252 12.03 25.2652 12.09 23.8302C12.145 22.5802 13.215 22.4752 14.13 22.6002C16.145 22.8702 16.81 22.0152 16.57 20.1002C16.45 19.1702 16.575 18.2402 17.82 18.1002Z" fill="#47BBEB"/>
</g>
<defs>
<clipPath id="clip0_1_173">
<rect width="195.5" height="68" fill="white"/>
</clipPath>
</defs>
</svg>
