<svg width="562" height="195" viewBox="0 0 562 195" fill="none" xmlns="http://www.w3.org/2000/svg">
<g opacity="0.3">
<g clip-path="url(#clip0_1_186)">
<path d="M561.399 73.1543C546.831 73.1399 532.264 73.3837 517.711 72.9679C512.477 72.8102 509.767 74.7602 508.075 79.3197C502.741 93.7727 500.72 108.986 497.852 124.213C500.031 121.46 502.01 118.535 504.433 116.011C509.523 110.692 513.423 111.853 515.761 118.693C516.865 121.933 515.158 127.468 518.972 128.084C522.944 128.729 525.525 123.998 527.905 120.729C531.002 116.499 533.984 112.183 537.038 107.924C537.741 106.935 538.601 105.888 539.949 106.548C541.655 107.38 541.354 108.856 540.551 110.161C535.805 117.904 531.002 125.69 523.604 131.195C517.969 135.397 514.599 133.289 512.262 125.331C511.516 122.822 512.879 118.506 509.552 118.076C506.785 117.718 505.408 121.589 503.917 123.969C499.2 131.454 495.558 139.469 492.604 147.799C491.887 149.792 491.3 152.832 488.876 152.301C485.708 151.599 486.898 148.416 487.385 146.236C492.461 123.754 497.666 101.3 502.655 78.8035C503.028 77.126 506.254 73.9142 501.609 73.3694C498.641 73.0252 495.099 71.8782 493.88 77.0543C486.439 108.756 479.499 140.558 474.008 172.647C473.348 176.504 471.341 180.376 473.305 184.548C474.352 186.785 472.846 188.706 471.212 190.126C470.738 190.541 469.233 190.384 468.645 189.925C466.896 188.563 467.398 186.641 467.641 184.691C470.853 159.915 476.531 135.612 481.621 111.194C483.801 100.727 486.267 90.3172 488.475 79.8646C488.934 77.7138 491.73 74.6455 487.529 73.5271C484.03 72.5951 480.775 73.7278 479.686 77.7855C477.764 84.8973 475.757 91.9947 474.194 99.1925C469.821 119.395 465.605 139.626 461.505 159.886C460.902 162.854 461.304 166.037 461.204 169.106C461.118 171.543 460.902 174.569 457.891 174.497C454.307 174.411 455.196 170.941 455.569 168.905C457.992 155.585 460.659 142.308 463.24 129.016C463.512 127.64 463.741 126.263 464.143 124.069C459.067 127.08 456.286 134.12 449.647 130.952C443.998 128.256 444.528 121.689 442.148 116.47C438.406 118.348 437.044 122.205 434.291 124.586C431.71 126.822 428.799 129.36 426.448 124.284C424.971 121.101 423.68 122.98 422.29 124.284C419.852 126.564 417.615 129.145 414.891 131.023C411.421 133.418 407.865 136.027 403.048 133.805C398.015 131.482 396.911 126.751 397.14 122.449C397.728 111.839 400.868 101.831 407.665 93.3855C409.543 91.0484 412.124 88.066 415.407 90.6039C418.117 92.683 416.612 95.7944 415.264 98.4039C413.472 101.874 410.848 104.77 407.865 107.05C402.101 111.452 401.571 117.431 402.001 123.768C402.431 130.192 405.6 131.927 410.948 128.471C418.705 123.467 424.283 116.312 429.244 108.641C431.179 105.645 432.914 102.39 435.409 99.9381C439.137 96.2819 443.553 96.3966 447.683 99.637C448.787 100.497 449.79 101.759 448.629 103.308C447.769 104.469 446.607 104.469 445.518 103.637C439.84 99.2929 437.259 103.594 435.108 107.681C433.158 111.366 430.72 115.051 431.165 120.298C435.753 117.517 437.66 113.029 440.714 109.631C441.933 108.269 442.636 105.845 445.001 106.663C447.295 107.451 446.449 109.86 446.736 111.667C447.338 115.423 447.74 119.237 448.758 122.879C450.005 127.324 452.414 128.844 456.286 124.872C461.548 119.481 465.591 113.129 467.914 106.19C470.925 97.2138 472.445 87.7363 474.825 78.5311C475.714 75.0899 474.337 74.244 471.298 74.33C467.24 74.4447 463.182 74.5594 459.125 74.4734C457.189 74.4304 453.977 75.3624 454.12 72.2223C454.264 69.2113 457.461 70.4874 459.383 70.258C462.451 69.8708 465.634 69.1826 468.631 69.5841C476.273 70.6308 478.366 66.2863 479.643 59.9774C481.105 52.7366 483.872 45.8399 487.572 39.3877C488.747 37.323 490.353 35.1149 493.206 35.9609C496.361 36.9072 495.615 39.8896 495.329 42.0546C494.268 49.7113 490.755 56.5076 487.557 63.433C486.855 64.9672 483.772 67.1752 486.955 68.6808C490.066 70.1433 491.672 67.6627 492.375 64.7951C493.622 59.7194 494.784 54.6149 496.175 49.5822C496.576 48.1197 496.963 45.7826 499.171 46.2988C501.852 46.9297 500.935 49.1234 500.433 50.9874C499.286 55.1168 497.981 59.2032 497.149 63.3899C496.748 65.383 495.271 68.523 499.315 68.8098C502.025 69.0105 504.949 69.7418 506.111 65.6554C508.262 58.1135 510.226 50.4282 514.169 43.5745C516.019 40.3484 517.338 34.2403 522.213 36.4054C526.6 38.3554 523.89 43.6605 522.629 47.2594C520.205 54.1705 517.252 60.9094 514.054 68.8815C530.199 68.8815 545.799 68.8815 561.385 68.8815C561.399 70.2866 561.399 71.7205 561.399 73.1543Z" fill="white"/>
<path d="M316.531 114.605C327.285 113.2 331.586 106.963 333.02 96.2954C334.985 81.7277 338.87 67.4325 341.896 53.0082C342.182 51.6174 342.225 50.1549 342.225 48.7354C342.225 47.402 342.842 45.6957 341.179 44.9501C339.558 44.2189 338.54 45.6814 337.551 46.599C329.077 54.3274 323.155 63.7619 319.671 74.6303C318.323 78.8171 317.764 83.3623 324.145 84.409C325.407 84.6097 326.439 85.4413 326.109 86.8608C325.708 88.6101 324.174 88.9399 322.711 88.6531C318.453 87.7928 315.212 85.9432 314.739 80.9104C314.108 74.0854 316.875 68.2211 319.944 62.6149C324.073 55.0873 328.776 47.8178 335.601 42.3549C337.867 40.534 340.39 37.7954 343.874 39.8601C347.272 41.8674 347.487 45.3086 346.828 48.6924C344.218 62.2277 341.523 75.7487 338.784 89.2696C337.565 95.3204 336.203 101.328 334.612 108.684C343.358 106.074 351.201 102.862 359.345 101.514C372.106 99.4068 377.153 92.7395 378.501 79.8924C380.064 64.8516 384.423 50.0832 387.649 35.2288C388.065 33.3505 387.577 29.9954 390.66 30.6119C393.513 31.1711 392.223 34.1678 391.85 36.0604C388.466 53.0799 384.982 70.0707 381.469 87.0615C379.863 94.8329 380.121 95.1483 387.391 92.9259C391.033 91.8075 394.646 90.6174 398.302 89.5564C400.281 88.9829 403.177 87.6494 404.023 90.0152C404.998 92.7682 401.786 92.9402 399.851 93.5568C394.632 95.2057 389.47 97.127 384.165 98.3888C379.949 99.3924 378.501 101.859 377.799 105.802C375.046 121.244 372.049 136.643 369.138 152.057C369.095 152.286 369.124 152.559 369.009 152.759C368.12 154.437 368.493 157.749 365.439 156.86C363.087 156.186 364.149 153.835 364.536 151.928C366.987 139.568 369.439 127.209 371.59 114.806C372.293 110.72 373.999 106.648 373.253 101.715C360.865 105.501 349.093 109.243 337.236 112.641C334.096 113.544 333.235 115.466 332.776 118.19C328.962 140.615 322.137 162.509 321.076 185.422C320.99 187.386 320.245 189.981 318.237 189.809C314.983 189.537 315.556 186.727 315.886 184.246C318.367 165.133 322.725 146.364 326.296 127.438C328.59 115.251 328.504 115.236 316.546 119.265C316.574 117.645 316.56 116.125 316.531 114.605Z" fill="white"/>
<path d="M129.604 99.5936C138.121 106.433 140.329 111.91 137.848 119.395C135.382 126.865 129.389 130.421 119.122 130.464C112.685 130.493 106.247 130.306 99.8231 130.536C96.3963 130.665 95.3496 129.503 95.3783 126.091C95.5217 108.956 95.5647 91.808 95.364 74.6738C95.3209 70.7451 96.7834 69.8418 100.339 69.9852C106.29 70.2146 112.254 70.1142 118.205 70.0425C126.048 69.9421 132.443 72.6377 135.425 80.194C138.393 87.6355 136.4 94.2168 129.604 99.5936ZM113.53 104.641C111.537 105.644 106.849 102.805 105.931 105.917C104.641 110.233 104.741 115.523 106.032 119.868C106.949 122.979 111.494 121.23 114.376 121.273C124.27 121.431 128.313 119.022 128.543 113.301C128.772 107.236 124.557 104.655 113.53 104.641ZM105.372 86.4024C105.372 95.9087 105.372 95.9087 112.799 95.9087C122.105 95.9087 126.765 93.0124 126.65 87.2771C126.535 81.7712 122.09 79.5344 113.172 78.9179C106.29 78.4447 103.91 80.7675 105.372 86.4024Z" fill="white"/>
<path d="M21.02 68.4361C18.8262 53.6247 33.1788 37.064 51.1876 37.5372C68.5942 37.996 81.9575 49.1225 82.2012 67.9055C82.4593 87.764 66.5295 99.0195 51.2736 99.3063C36.4766 99.5787 18.8262 85.2691 21.02 68.4361ZM51.374 91.9078C64.9523 92.0081 75.4622 81.6846 75.5052 68.2353C75.5483 55.5603 64.178 44.5055 51.0729 44.4912C39.7314 44.4769 27.5725 54.7574 27.3001 64.6078C26.8556 81.1971 36.1898 91.793 51.374 91.9078Z" fill="white"/>
<path d="M316.531 114.605C316.545 116.125 316.574 117.645 316.588 119.179C316.703 120.814 317.663 121.846 319.169 122.162C324.044 123.194 322.796 127.51 321.721 129.417C319.585 133.216 315.255 131.381 313.147 129.46C309.161 125.832 306.322 125.918 302.049 129.03C297.346 132.442 291.611 131.324 286.205 130.22C284.513 129.202 282.807 128.169 281.115 127.151C274.29 120.742 271.437 113.114 274.247 103.923C276.699 95.8795 282.277 91.1623 290.492 89.6281C292.328 89.2839 294.321 89.1836 296.156 89.4847C300.945 90.2733 305.189 93.6141 310.695 90.4167C313.835 88.61 316.774 90.345 316.43 95.3203C316 101.715 316.459 108.167 316.531 114.605ZM306.723 110.318C306.738 103.637 301.791 98.5895 295.138 98.4461C288.112 98.3027 282.951 103.45 283.065 110.505C283.18 117.028 287.955 121.989 294.163 122.004C301.447 122.032 306.709 117.143 306.723 110.318Z" fill="white"/>
<path d="M184.977 110.304C184.992 122.205 175.6 131.324 163.327 131.324C151.225 131.31 141.561 121.961 141.59 110.261C141.619 98.5753 151.311 89.2125 163.37 89.1981C175.514 89.1981 184.963 98.4176 184.977 110.304ZM175.457 110.032C175.285 103.293 169.65 98.1739 162.739 98.475C156.072 98.7617 151.311 103.852 151.44 110.562C151.569 117.516 156.889 122.405 163.972 122.104C170.553 121.818 175.629 116.484 175.457 110.032Z" fill="white"/>
<path d="M190.555 110.376C190.555 105.845 190.541 101.329 190.555 96.7979C190.584 90.4747 194.053 87.5067 199.029 90.6898C201.753 92.4247 202.685 91.5644 204.649 90.7328C213.381 87.0622 222.5 91.3637 224.694 100.612C226.802 109.502 225.425 118.635 225.512 127.654C225.555 132.027 221.755 130.034 219.532 130.421C216.722 130.923 215.833 129.489 215.891 126.779C216.034 120.585 215.891 114.391 215.934 108.211C215.977 102.763 214.199 98.5185 208.033 98.5902C201.882 98.6619 200.233 103.021 200.262 108.398C200.305 114.348 200.061 120.313 200.348 126.249C200.52 129.905 198.986 130.607 195.745 130.536C192.534 130.464 190.196 130.364 190.455 126.077C190.799 120.872 190.555 115.624 190.555 110.376Z" fill="white"/>
<path d="M233.24 110.046C233.24 105.53 233.211 100.999 233.24 96.4823C233.283 90.3312 236.093 87.65 241.198 90.6037C244.524 92.525 245.972 91.1772 248.266 90.3169C256.783 87.1482 266.519 92.4246 267.494 101.615C268.397 110.089 267.867 118.721 268.096 127.267C268.196 131.21 265.443 130.335 263.207 130.45C260.683 130.579 258.504 130.636 258.618 126.937C258.819 120.757 258.719 114.563 258.647 108.383C258.59 103.15 257.17 98.6044 250.876 98.5757C244.682 98.5471 242.961 102.691 243.076 108.197C243.191 113.903 242.875 119.624 243.176 125.317C243.391 129.346 242.058 130.521 238 130.593C233.484 130.679 233.01 128.6 233.168 125.001C233.398 120.054 233.24 115.05 233.24 110.046Z" fill="white"/>
<path d="M281.115 127.137C282.807 128.155 284.514 129.187 286.205 130.205C284.858 131.109 282.865 131.725 282.291 132.987C281.244 135.252 280.413 137.159 277.803 135.224C275.036 133.173 276.384 131.18 278.463 129.445C279.366 128.714 280.241 127.911 281.115 127.137Z" fill="white"/>
<path d="M51.9766 51.9047C54.9446 52.679 55.6185 54.9014 55.3461 57.4249C54.8012 62.5437 55.934 65.7124 62.1137 64.8091C64.3935 64.4793 67.3472 64.8665 67.4476 68.0209C67.5623 71.5337 64.8523 72.0786 61.9847 71.7201C57.4395 71.1466 54.5001 72.1933 55.4034 77.6562C55.9483 80.9826 53.8693 82.7032 51.0876 82.947C46.9582 83.3198 48.177 79.7065 48.4351 77.8569C49.281 71.7058 45.7968 71.3617 41.2229 71.6198C38.7854 71.7631 35.3729 72.4514 35.545 68.3363C35.7027 64.7518 38.7711 64.4506 41.395 64.8091C47.1733 65.5834 49.0803 63.1315 48.392 57.64C48.0479 54.9731 48.4064 52.3062 51.9766 51.9047Z" fill="white"/>
</g>
</g>
<defs>
<clipPath id="clip0_1_186">
<rect width="560.625" height="195" fill="white" transform="translate(0.875)"/>
</clipPath>
</defs>
</svg>
