<svg width="17" height="17" viewBox="0 0 17 17" fill="none" xmlns="http://www.w3.org/2000/svg">
<mask id="mask0_3_2111" style="mask-type:alpha" maskUnits="userSpaceOnUse" x="0" y="0" width="17" height="17">
<circle cx="8.67396" cy="8.26087" r="8.26087" fill="#C4C4C4"/>
</mask>
<g mask="url(#mask0_3_2111)">
<path d="M28.5449 0H0.413086V16.4084H28.5449V0Z" fill="white"/>
<path d="M8.61731 0H0.413086V16.4084H8.61731V0Z" fill="#2530A9"/>
<path d="M28.5449 8.20422H0.413086V16.4084H28.5449V8.20422Z" fill="#C22623"/>
<path d="M4.51995 2.04871L3.88504 4.00063L4.85982 4.31926L4.51995 2.04871Z" fill="white"/>
<path d="M4.51986 2.04871L5.15005 4.00063L4.17526 4.31926L4.51986 2.04871Z" fill="white"/>
<path d="M6.46718 3.46721H4.41849V4.49392L6.46718 3.46721Z" fill="white"/>
<path d="M6.46717 3.46721L4.80792 4.6733L4.20605 3.84249L6.46717 3.46721Z" fill="white"/>
<path d="M2.56552 3.46721L4.22714 4.6733L4.829 3.84249L2.56552 3.46721Z" fill="white"/>
<path d="M2.56552 3.46721H4.61894V4.49392L2.56552 3.46721Z" fill="white"/>
<path d="M5.72128 5.76136L5.0911 3.80943L4.11395 4.12807L5.72128 5.76136Z" fill="white"/>
<path d="M5.72127 5.76139L4.06201 4.5553L4.6686 3.72685L5.72127 5.76139Z" fill="white"/>
<path d="M3.3114 5.76139L4.97302 4.5553L4.36643 3.72685L3.3114 5.76139Z" fill="white"/>
<path d="M3.3114 5.76136L3.94395 3.80943L4.91873 4.12807L3.3114 5.76136Z" fill="white"/>
</g>
</svg>
