<svg width="510" height="534" viewBox="0 0 510 534" fill="none" xmlns="http://www.w3.org/2000/svg">
<rect x="0.5" y="0.5" width="509" height="533" rx="17.5" fill="url(#paint0_linear_13_1912)" fill-opacity="0.2" stroke="#209CD4"/>
<g clip-path="url(#clip0_13_1912)">
<path d="M371.038 428.488C371.038 432.523 367.765 435.793 363.729 435.793H136.841C132.805 435.793 129.531 432.523 129.531 428.488V113.237C129.531 109.202 132.805 105.934 136.841 105.934H363.729C367.765 105.934 371.038 109.205 371.038 113.237V428.488Z" fill="#2E3C75"/>
<path d="M360.782 138.602H151.163V422.153H360.782V138.602Z" fill="#212B57"/>
<path d="M372.164 105.934H363.729C367.764 105.934 371.038 109.205 371.038 113.237V428.488C371.038 432.523 367.764 435.793 363.729 435.793H372.164C376.2 435.793 379.471 432.523 379.471 428.488V113.237C379.471 109.202 376.2 105.934 372.164 105.934Z" fill="#212B57"/>
<path d="M355.094 132.459H145.473V416.008H355.094V132.459Z" fill="white"/>
<path d="M310.639 97.1816H189.928V144.326H310.639V97.1816Z" fill="#7CC2ED"/>
<g style="mix-blend-mode:soft-light" opacity="0.5">
<path d="M310.639 97.1816H282.605V144.326H310.639V97.1816Z" fill="white"/>
</g>
<path d="M206.679 129.508V97.1816H189.928V144.328H310.639V129.508H206.679Z" fill="#5DABDF"/>
<path d="M213.643 98.1695V85.5257C213.643 82.9818 215.713 80.9106 218.26 80.9106H282.313C284.857 80.9106 286.924 82.9793 286.924 85.5257V98.1695H294.84V85.5257C294.84 78.6181 289.223 73 282.313 73H218.26C211.35 73 205.73 78.6181 205.73 85.5257V98.1695H213.643Z" fill="#7CC2ED"/>
<path d="M196.128 191.101H186.819V224.244H196.128V191.101Z" fill="white"/>
<path d="M208.05 203.015H174.899V212.323H208.05V203.015Z" fill="white"/>
<path d="M86.8009 325.97C86.8009 329.881 83.6252 333.056 79.7077 333.056H49.6249C45.7074 333.056 42.5342 329.881 42.5342 325.97C42.5342 322.053 45.7074 318.879 49.6249 318.879H79.7077C83.6252 318.879 86.8009 322.051 86.8009 325.97Z" fill="#C4E1F7"/>
<path d="M50.2559 333.056V426.638C50.2559 434.596 56.7054 441.046 64.6686 441.046C72.6319 441.046 79.0789 434.596 79.0789 426.638V333.056H50.2559Z" fill="#C4E1F7"/>
<path d="M57.4595 318.879V423.606C57.4595 427.585 60.6856 430.811 64.6659 430.811C68.6463 430.811 71.8698 427.588 71.8698 423.606V318.879H57.457H57.4595Z" fill="#A6CFEA"/>
<path d="M57.4595 366.676V423.606C57.4595 427.586 60.6856 430.811 64.6659 430.811C68.6463 430.811 71.8698 427.588 71.8698 423.606V366.676H57.457H57.4595Z" fill="#D15063"/>
<g style="mix-blend-mode:multiply">
<path d="M62.8801 318.879H57.459V423.606C57.459 426.967 59.7672 429.76 62.8801 430.554V318.879Z" fill="#D1E1EB"/>
</g>
<g style="mix-blend-mode:soft-light" opacity="0.5">
<path d="M66.9287 318.879V430.413C69.7927 429.463 71.8721 426.794 71.8721 423.606V318.879H66.9287Z" fill="white"/>
</g>
<path d="M140.826 325.97C140.826 329.881 137.653 333.056 133.735 333.056H103.652C99.7348 333.056 96.5615 329.881 96.5615 325.97C96.5615 322.053 99.7348 318.879 103.652 318.879H133.735C137.653 318.879 140.826 322.051 140.826 325.97Z" fill="#C4E1F7"/>
<path d="M104.278 333.056V426.638C104.278 434.596 110.73 441.046 118.694 441.046C126.657 441.046 133.104 434.596 133.104 426.638V333.056H104.278Z" fill="#C4E1F7"/>
<path d="M111.487 318.879V423.606C111.487 427.585 114.711 430.811 118.694 430.811C122.677 430.811 125.9 427.588 125.9 423.606V318.879H111.487Z" fill="#A6CFEA"/>
<path d="M111.487 366.676V423.606C111.487 427.586 114.711 430.811 118.694 430.811C122.677 430.811 125.9 427.588 125.9 423.606V366.676H111.487Z" fill="#D15063"/>
<g style="mix-blend-mode:multiply">
<path d="M116.906 318.879H111.487V423.606C111.487 426.967 113.796 429.76 116.906 430.554V318.879Z" fill="#D1E1EB"/>
</g>
<g style="mix-blend-mode:soft-light" opacity="0.5">
<path d="M120.954 318.879V430.413C123.818 429.463 125.897 426.794 125.897 423.606V318.879H120.954Z" fill="white"/>
</g>
<path d="M194.851 325.97C194.851 329.881 191.675 333.056 187.76 333.056H157.675C153.76 333.056 150.584 329.881 150.584 325.97C150.584 322.053 153.757 318.879 157.675 318.879H187.76C191.675 318.879 194.851 322.051 194.851 325.97Z" fill="#C4E1F7"/>
<path d="M158.307 333.056V426.638C158.307 434.596 164.761 441.046 172.719 441.046C180.678 441.046 187.132 434.596 187.132 426.638V333.056H158.307Z" fill="#C4E1F7"/>
<path d="M165.513 318.879V423.606C165.513 427.585 168.736 430.811 172.719 430.811C176.702 430.811 179.925 427.588 179.925 423.606V318.879H165.513Z" fill="#A6CFEA"/>
<path d="M165.513 366.676V423.606C165.513 427.586 168.736 430.811 172.719 430.811C176.702 430.811 179.925 427.588 179.925 423.606V366.676H165.513Z" fill="#D15063"/>
<g style="mix-blend-mode:multiply">
<path d="M170.934 318.879H165.516V423.606C165.516 426.967 167.824 429.76 170.934 430.554V318.879Z" fill="#D1E1EB"/>
</g>
<g style="mix-blend-mode:soft-light" opacity="0.5">
<path d="M174.982 318.879V430.413C177.846 429.463 179.926 426.794 179.926 423.606V318.879H174.982Z" fill="white"/>
</g>
<path d="M206.385 441.049H31V461H206.385V441.049Z" fill="#C9DFEC"/>
<path d="M206.385 453.17H31V460.997H206.385V453.17Z" fill="#9ABFD3"/>
<path d="M37.3613 441.049V350.803H50.2554" stroke="#C0DCED" stroke-width="9.98" stroke-miterlimit="10"/>
<path d="M200.024 441.049V350.803H187.13" stroke="#C0DCED" stroke-width="9.98" stroke-miterlimit="10"/>
<path d="M79.0791 350.803H104.279" stroke="#C0DCED" stroke-width="9.98" stroke-miterlimit="10"/>
<path d="M133.104 350.803H158.307" stroke="#C0DCED" stroke-width="9.98" stroke-miterlimit="10"/>
<path d="M478 448.696C478 455.49 472.488 461 465.692 461H287.516C280.717 461 275.205 455.493 275.205 448.696V322.194C275.205 315.4 280.717 309.892 287.516 309.892H465.692C472.491 309.892 478 315.4 478 322.194V448.696Z" fill="#9FD3F4"/>
<path d="M342.798 309.892H287.516C280.717 309.892 275.205 315.4 275.205 322.194V448.696C275.205 455.49 280.717 461 287.516 461H342.798V309.892Z" fill="#8BCDF2"/>
<path d="M465.691 309.892H443.189V461H465.691C472.49 461 477.999 455.493 477.999 448.696V322.194C477.999 315.4 472.488 309.892 465.691 309.892Z" fill="#C4E1F7"/>
<path d="M478 448.696C478 455.49 472.488 461 465.692 461H287.516C280.717 461 275.205 455.493 275.205 448.696V322.194C275.205 315.4 280.717 309.892 287.516 309.892H295.212C295.082 310.531 295.014 311.194 295.014 311.871V424.843C295.014 430.31 299.447 434.745 304.918 434.745H478.002V448.696H478Z" fill="#6FB9E8"/>
<path d="M431.332 385.443C431.332 415.66 406.828 440.156 376.602 440.156C346.376 440.156 321.878 415.66 321.878 385.443C321.878 355.226 346.379 330.736 376.602 330.736C406.826 330.736 431.332 355.231 431.332 385.443Z" fill="#7AA5D8"/>
<path d="M387.536 346.529H365.678V424.36H387.536V346.529Z" fill="white"/>
<path d="M415.531 374.522H337.674V396.371H415.531V374.522Z" fill="white"/>
<path d="M432.408 301.969H406.994V310.134H432.408V301.969Z" fill="#6F72A9"/>
<path d="M346.213 301.969H320.8V310.134H346.213V301.969Z" fill="#6F72A9"/>
<path d="M424.822 304.77H414.578V287.619C414.578 283.541 411.261 280.223 407.183 280.223H346.024C341.946 280.223 338.627 283.541 338.627 287.619V304.77H328.383V287.619C328.383 277.896 336.296 269.983 346.024 269.983H407.183C416.909 269.983 424.822 277.893 424.822 287.619V304.77Z" fill="#6F72A9"/>
<path d="M176.838 194.621H317.341" stroke="black" stroke-opacity="0.5"/>
<path d="M176.838 223.691H317.341" stroke="black" stroke-opacity="0.5"/>
<path d="M176.838 247.422H317.341" stroke="black" stroke-opacity="0.5"/>
<path d="M176.838 276.492H317.341" stroke="black" stroke-opacity="0.5"/>
</g>
<defs>
<linearGradient id="paint0_linear_13_1912" x1="255" y1="0" x2="255" y2="534" gradientUnits="userSpaceOnUse">
<stop offset="0.338542" stop-color="#2FC1FF"/>
<stop offset="0.71875" stop-color="#A20DFE"/>
<stop offset="1" stop-color="#FF003D"/>
</linearGradient>
<clipPath id="clip0_13_1912">
<rect width="447" height="388" fill="white" transform="translate(31 73)"/>
</clipPath>
</defs>
</svg>
