<svg width="75" height="108" viewBox="0 0 75 108" fill="none" xmlns="http://www.w3.org/2000/svg">
<path d="M37.5295 42.5706C49.1175 42.5706 58.719 33.1123 58.719 21.3309C58.719 9.71552 49.1175 0.0913086 37.5295 0.0913086C25.7759 0.0913086 16.3399 9.71552 16.3399 21.3309C16.3399 33.1123 25.7759 42.5706 37.5295 42.5706ZM37.5295 5.40122C46.1377 5.40122 53.4216 12.7023 53.4216 21.3309C53.4216 30.1254 46.1377 37.2607 37.5295 37.2607C28.7557 37.2607 21.6373 30.1254 21.6373 21.3309C21.6373 12.7023 28.7557 5.40122 37.5295 5.40122ZM52.925 48.0464C47.2965 47.8805 45.6411 50.5354 37.5295 50.5354C29.2524 50.5354 27.5969 47.8805 21.9683 48.0464C10.0492 48.3783 0.447754 58.1685 0.447754 70.2817V83.7224C0.447754 84.552 0.944413 85.0498 1.7721 85.0498H4.42079C5.08297 85.0498 5.74514 84.552 5.74514 83.7224V70.2817C5.74514 61.3212 12.6979 53.8541 21.6373 53.3563V66.963C17.6643 68.1244 15.0156 71.6092 15.0156 75.7575C15.0156 80.9015 19.1541 85.0498 24.286 85.0498C29.2524 85.0498 33.5564 80.9015 33.5564 75.7575C33.5564 71.6092 30.7422 68.1244 26.9347 66.963V54.186C30.2456 55.3475 33.8874 55.8453 37.5295 55.8453C41.0058 55.8453 44.6479 55.3475 48.1242 54.186V65.6355C43.3235 66.797 40.1782 71.2772 40.1782 76.2553V81.0674C40.1782 81.897 40.3437 82.5608 40.8403 83.0586L42.6613 84.718C43.1579 85.2157 43.9857 85.2157 44.4822 84.718L46.3032 82.8927C46.7999 82.3949 46.7999 81.5652 46.3032 80.9015L45.31 80.0717V75.7575C45.31 72.6047 48.2897 70.1158 51.6006 70.6135C54.2493 70.9454 55.9048 73.4343 55.9048 76.0893V80.0717L55.077 80.9015C54.5804 81.5652 54.5804 82.3949 55.077 82.8927L56.898 84.718C57.3947 85.2157 58.2223 85.2157 58.719 84.718L60.54 83.0586C61.0367 82.5608 61.2022 81.897 61.2022 81.0674V75.7575C61.2022 70.9454 57.8913 66.797 53.2561 65.6355V53.3563C62.1954 54.02 69.1483 61.3212 69.1483 70.2817V83.7224C69.1483 84.552 69.8104 85.0498 70.4726 85.0498H73.1213C73.949 85.0498 74.4456 84.552 74.4456 83.7224V70.2817C74.6112 58.1685 65.0097 48.3783 52.925 48.0464ZM28.259 75.7575C28.259 78.0806 26.438 79.7399 24.286 79.7399C21.9683 79.7399 20.313 78.0806 20.313 75.7575C20.313 73.6004 21.9683 71.7751 24.286 71.7751C26.438 71.7751 28.259 73.6004 28.259 75.7575Z" fill="white"/>
<path d="M15.1426 96.2939H21.2214V98.1969H16.9033V100.783H20.7519V102.686H16.9033V105.585H21.2214V107.488H15.1426V96.2939Z" fill="white"/>
<path d="M24.8174 96.2939H28.0293C29.7117 96.2939 31.412 97.3077 31.412 99.5059C31.412 101.05 30.5547 102.17 29.1818 102.561L31.8175 107.488H29.822L27.2823 102.764H26.5816V107.488H24.8209V96.2939H24.8174V96.2939ZM26.5781 98.1969V100.957H28.2783C29.0573 100.957 29.6513 100.413 29.6513 99.5841C29.6513 98.7554 29.0893 98.1969 28.2783 98.1969H26.5781Z" fill="white"/>
<path d="M43.8827 96.2939H45.7216L47.2191 107.484H45.4584L44.3949 99.6126L41.56 107.484H39.8918L37.0249 99.6126L35.9969 107.484H34.158L35.6554 96.2939H37.4944L40.6743 104.802L43.8827 96.2939Z" fill="white"/>
<path d="M59.5047 107.484H57.6515L56.684 105.051H51.8217L50.872 107.484H48.969L53.3334 96.2939H55.1261L59.5047 107.484ZM52.5544 103.184H55.9513L54.2511 98.8336L52.5544 103.184Z" fill="white"/>
<path d="M8.04639 107.687C10.0845 107.687 11.6425 106.677 12.3361 105.78L11.7563 104.041C11.1089 104.984 9.86755 105.78 8.16021 105.78C5.85887 105.78 4.23334 104.29 4.23334 101.889C4.23334 99.4882 5.85531 97.9978 8.16021 97.9978C9.73238 97.9978 10.9915 98.7768 11.6567 99.7052L12.2685 97.9338C11.5927 97.0517 10.0525 96.0913 8.04639 96.0913C5.04788 96.0913 2.44775 98.4104 2.44775 101.889C2.44775 105.368 5.04788 107.687 8.04639 107.687Z" fill="white"/>
<path d="M66.4016 105.866C65.1424 105.866 64.0505 105.386 63.2537 104.294C63.7339 103.931 64.6445 103.401 65.8716 103.401C67.1806 103.401 68.3401 103.881 69.2507 104.56C68.5038 105.435 67.5114 105.866 66.4016 105.866V105.866ZM71.5698 104.176C71.8829 103.479 72.05 102.718 72.05 101.889C72.05 98.5598 69.4321 96.0913 66.3838 96.0913C63.3355 96.0913 60.7034 98.5918 60.7034 101.907C60.7034 102.27 60.7532 102.817 60.8528 103.266C61.4503 102.718 61.9945 102.323 62.5245 101.989C62.4071 99.7514 64.1145 97.9978 66.4016 97.9978C68.5536 97.9978 70.2609 99.6056 70.2609 101.889C70.2609 102.288 70.2111 102.668 70.0937 103.066C68.9662 102.238 67.5754 101.658 65.8681 101.644C63.7659 101.626 62.3396 102.672 61.0484 103.831C61.9092 106.218 63.9473 107.691 66.398 107.691C68.02 107.691 69.5282 106.979 70.6237 105.702C70.9545 106.015 71.4205 106.449 71.8153 106.88L73.0246 105.521C72.5124 105.005 71.9149 104.471 71.5698 104.176V104.176Z" fill="white"/>
</svg>
