<svg width="105" height="84" viewBox="0 0 105 84" fill="none" xmlns="http://www.w3.org/2000/svg">
<g clip-path="url(#clip0_16_304)">
<path d="M26.25 42C26.25 42.1633 26.0867 42.1633 26.0867 42.3267C33.7983 39.375 42.98 36.75 52.5 36.75C59.7217 36.75 67.1067 38.395 73.5 40.5183C73.3367 38.8733 73.5 37.24 74.6433 35.2683C67.7483 33.1333 60.2 31.5 52.5 31.5C42.3267 31.5 32.6433 34.125 24.605 37.24C25.585 38.7217 26.25 40.1917 26.25 42V42ZM81.375 42C82.6817 42 84 40.8567 84 39.375C84 38.0683 82.6933 36.75 81.375 36.75C79.8933 36.75 78.75 38.0567 78.75 39.375C78.75 40.8567 79.8933 42 81.375 42ZM95.8183 53.9817L92.8667 58.415C92.05 59.5583 90.5683 59.8967 89.425 59.0683C85.82 56.9333 77.6183 52.675 68.2617 49.875V72.8467C68.2617 73.3367 68.425 73.5 68.915 73.5H72.8583C73.185 73.5 73.5117 73.3367 73.5117 72.8467V57.26C79.5783 59.7217 84.5017 62.3467 86.8 63.6533C90.0783 65.625 94.8383 64.96 97.3 61.1917L100.252 56.9217C102.387 53.6433 102.06 48.3933 97.79 45.7683C95.655 44.625 92.7033 42.8167 89.0983 41.0083C88.6083 42.8167 87.6167 44.45 86.1467 45.605C90.09 47.4133 93.205 49.0467 95.0017 50.2017C96.3083 51.0183 96.6467 52.6633 95.8183 53.97V53.9817ZM68.25 15.75C68.25 7.22167 61.0283 0 52.5 0C43.9717 0 36.75 7.22167 36.75 15.75C36.75 24.2783 43.8083 31.5 52.5 31.5C61.1917 31.5 68.25 24.4417 68.25 15.75ZM52.5 26.25C46.5967 26.25 42 21.6533 42 15.75C42 9.84667 46.5967 5.25 52.5 5.25C58.4033 5.25 63 10.01 63 15.75C63 21.49 58.24 26.25 52.5 26.25ZM7.54833 61.1917C10.01 64.96 14.77 65.625 18.0483 63.6533C20.3467 62.3467 25.27 59.5467 31.5 57.26V72.8467C31.5 73.3367 31.6633 73.5 32.1533 73.5H36.0967C36.4233 73.5 36.75 73.3367 36.75 72.8467V49.875C27.23 52.6633 19.0283 56.9333 15.4233 59.2317C14.28 59.885 12.7983 59.5583 11.9817 58.415L9.03 53.9817C8.21333 52.675 8.54 51.03 9.84667 50.2133C10.8267 49.7233 11.9817 49.07 13.4517 48.2417C11.97 47.0983 10.99 45.6167 10.6633 43.8083C9.35667 44.4617 8.03833 45.29 7.05833 45.78C2.78833 48.405 2.46167 53.655 4.59667 56.9333L7.54833 61.2033V61.1917ZM103.693 78.75H1.30667C0.49 78.75 0 79.4033 0 80.0567V82.6817C0 83.4983 0.49 83.9883 1.30667 83.9883H103.693C104.347 83.9883 105 83.4983 105 82.6817V80.0567C105 79.4033 104.347 78.75 103.693 78.75ZM18.375 44.625C19.6817 44.625 21 43.4817 21 42C21 40.6933 19.6933 39.375 18.375 39.375C16.8933 39.375 15.75 40.6817 15.75 42C15.75 43.4817 16.8933 44.625 18.375 44.625ZM42 49.875C42 51.3567 43.1433 52.5 44.625 52.5C45.9317 52.5 47.25 51.3567 47.25 49.875C47.25 48.5683 45.9433 47.25 44.625 47.25C43.1433 47.25 42 48.5567 42 49.875ZM57.75 65.625C57.75 67.1067 58.8933 68.25 60.375 68.25C61.6817 68.25 63 67.1067 63 65.625C63 64.3183 61.6933 63 60.375 63C58.8933 63 57.75 64.3067 57.75 65.625Z" fill="white"/>
</g>
<defs>
<clipPath id="clip0_16_304">
<rect width="105" height="84" fill="white"/>
</clipPath>
</defs>
</svg>
