<svg width="302" height="187" viewBox="0 0 302 187" fill="none" xmlns="http://www.w3.org/2000/svg">
<g clip-path="url(#clip0_1_242)">
<path d="M29.15 185.54C28.65 185.54 28.43 185.53 28.21 185.54C24.02 185.87 23.09 184.54 22.26 180.66C21.02 174.84 19.75 169.05 17.86 163.39C16.9 160.52 17.46 158.74 21.06 158.41C26.06 157.96 31.12 157.95 36.01 156.57C42.49 154.74 47.76 151.36 50.45 144.89C51.82 141.59 51.17 138.45 49.18 135.57C46.19 131.26 41.87 128.62 37.29 126.35C32.05 123.76 26.45 122.06 21.09 119.77C16.21 117.68 11.95 114.7 8.44999 110.7C3.28999 104.81 0.819986 97.78 0.179986 90.09C-0.640014 80.32 1.32999 71.19 7.07999 63.07C11.19 57.28 16.64 53.06 23.05 50.17C28.41 47.75 33.9 45.59 39.56 43.95C40.24 43.75 40.95 43.61 41.65 43.56C45.01 43.31 45.52 43.66 46.89 46.71C49.22 51.94 51.64 57.13 53.92 62.38C56.28 67.8 55.13 69.19 50.22 70.7C46.88 71.73 43.4 72.2 40.05 73.19C35.96 74.39 32.5 76.58 30.02 80.12C27.06 84.35 27.89 89.19 32.1 92.2C35.44 94.6 39.21 96.24 42.87 98.04C48.34 100.73 53.96 103.14 59.35 105.98C67.18 110.11 72.17 116.83 75.28 124.96C78.4 133.13 78.99 141.6 77.28 150.13C75.48 159.1 70.99 166.51 63.73 172.22C57.45 177.15 50.65 181.04 42.91 183.21C38.32 184.49 33.65 185.33 29.16 185.53L29.15 185.54Z" fill="#FFFDFD"/>
<path d="M136.37 116.85C136.37 107.74 138.35 99.22 143.51 91.56C148.37 84.34 154.97 79.51 163.28 77.12C171.08 74.87 178.83 75.16 186.37 78.37C187.62 78.9 188.79 79.61 189.98 80.26C191.44 81.07 192.54 80.76 192.87 79.19C193.18 77.73 193.97 77.36 195.3 77.37C200.06 77.4 204.83 77.37 209.59 77.39C211.74 77.39 212.19 77.78 212.06 79.86C210.66 101.52 211.82 123.21 211.34 144.87C211.16 153.05 210.1 161.1 206.29 168.54C202.48 175.98 196.42 180.79 188.66 183.49C175.6 188.04 162.58 187.43 149.67 182.78C147.41 181.97 145.34 180.73 143.34 179.39C142.27 178.67 142.2 177.7 142.55 176.64C143.96 172.4 145.39 168.16 146.84 163.93C147.47 162.08 148.51 161.75 150.19 162.86C153.11 164.79 156.19 166.41 159.58 167.33C166.27 169.15 173.04 169.91 179.76 167.65C185 165.89 188.18 162.04 189.71 156.78C190.06 155.57 190.41 154.37 190.44 153.09C190.48 151.21 189.35 150.45 187.71 151.36C184.87 152.92 181.91 154.11 178.72 154.74C167 157.07 156.56 154.58 147.9 146.18C139.67 138.19 136.41 128.13 136.37 116.86V116.85ZM190.69 115.78C190.69 112.9 190.69 110.5 190.69 108.09C190.69 101.73 185.86 95.44 179.72 93.79C170.96 91.44 162.51 95.86 159.28 104.44C156.81 110.98 156.45 117.67 158.2 124.4C160.47 133.11 166.59 138.73 176.16 138.23C182.96 137.87 189.48 132.07 190.42 125.3C190.88 121.97 190.54 118.64 190.7 115.78H190.69Z" fill="#FFFDFD"/>
<path d="M294.27 114.45C294.25 125.95 291.89 135.13 285.62 143.05C280.62 149.36 274.14 153.56 266.44 155.75C257.36 158.34 248.31 158.15 239.43 154.7C230.07 151.06 223.41 144.56 219.32 135.45C215.97 128 215.17 120.15 215.94 112.07C216.71 103.96 219.3 96.55 224.38 90.13C229.77 83.32 236.71 78.97 245.19 76.95C251.37 75.48 257.57 75.21 263.72 76.49C278.08 79.47 287.69 87.94 292.23 101.97C293.71 106.53 294.38 111.21 294.27 114.45ZM273.22 116.29C273.05 110.63 271.81 105.07 268.55 100.06C262 90 247.22 90.91 241.5 99.71C234.98 109.76 234.59 120.4 239.93 130.91C246.21 143.28 261.68 143.16 268.68 132.49C271.88 127.61 273.08 122.22 273.23 116.28L273.22 116.29Z" fill="#FFFDFD"/>
<path d="M131.94 79.7C131.92 81.01 131.89 82.32 131.89 83.63C131.89 106.65 131.89 129.68 131.89 152.7C131.89 155.58 131.61 155.87 128.66 155.87C123.9 155.87 119.14 155.85 114.38 155.87C113.37 155.87 112.45 155.76 111.61 155.2C111.34 154.19 111.27 153.16 111.27 152.11C111.27 129.12 111.27 106.13 111.27 83.14C111.27 82.21 111.23 81.27 111.31 80.35C111.47 78.57 112.52 77.41 114.2 77.39C119.45 77.34 124.71 77.37 129.96 77.39C130.38 77.39 130.8 77.59 131.22 77.69C131.64 78.28 131.98 78.9 131.93 79.66L131.94 79.7Z" fill="#FFFDFD"/>
<path d="M102.23 155.22C101.2 155.75 100.11 155.91 98.95 155.9C94.87 155.86 90.79 155.89 86.72 155.88C83.65 155.88 82.76 155.03 82.56 151.98C82.58 151.71 82.61 151.44 82.61 151.16C82.61 128.12 82.61 105.07 82.61 82.03C82.61 81.76 82.64 81.48 82.6 81.21C82.28 78.99 83.59 77.42 85.88 77.41C90.53 77.38 95.19 77.38 99.84 77.41C102.03 77.42 103.15 78.54 103.25 80.75C103.29 81.68 103.23 82.61 103.23 83.54C103.23 106.31 103.22 129.08 103.23 151.85C103.23 153.1 103 154.23 102.23 155.23V155.22Z" fill="#FFFDFD"/>
<path d="M293.58 76.4C289.33 71.54 284.34 67.64 278.45 64.95C268.39 60.35 257.83 58.68 246.84 59.78C243.68 60.1 240.56 60.62 237.61 61.88C236.77 62.24 236.24 62 235.66 61.29C229.31 53.49 221.55 47.53 212.22 43.75C203 40.02 193.38 38.74 183.47 39.43C180.19 39.66 176.93 40.02 173.72 40.71C172.27 41.03 172.32 40.02 172.16 39.24C171.11 34.03 169.02 29.26 166.14 24.83C160.04 15.47 151.6 9.26001 140.91 5.99001C131.71 3.17001 122.42 3.11001 113.01 4.65001C100.5 6.70001 89.7 12.03 80.92 21.23C74.89 27.55 70.61 34.98 67.51 43.11C65.11 49.41 63.53 55.91 62.7 63.12C58.14 55.94 55.93 48.11 51.92 41.03C52.86 40.78 53.2 41.42 53.6 41.76C55.99 43.75 58.26 45.87 60.42 48.09C60.73 48.41 61 49.02 61.59 48.77C62.06 48.57 61.91 48 61.98 47.59C64.15 34.71 70.19 24 80.18 15.61C86.28 10.49 93.24 6.77001 100.76 4.12001C106.07 2.24001 111.47 0.580007 117.11 0.170007C123.79 -0.309993 130.43 0.140007 137.04 1.35001C145.42 2.89001 153.22 5.79001 160.22 10.67C166.59 15.11 171.63 20.76 175.3 27.62C176.75 30.32 178 33.11 178.72 36.08C178.98 37.14 179.64 37.01 180.32 36.92C183.31 36.52 186.3 36.29 189.32 36.28C203.04 36.22 215.6 40 226.95 47.71C230.65 50.23 234.07 53.12 237.01 56.52C237.8 57.43 238.52 57.61 239.67 57.35C251.6 54.68 263.29 55.98 274.65 60.11C282.52 62.97 289.13 67.76 294.13 74.59C294.63 75.27 295.04 76 295.5 76.7C295.35 77.05 295.54 77.9 294.69 77.21C294.33 76.92 294.14 76.39 293.57 76.38L293.58 76.4Z" fill="#FFFDFD"/>
<path d="M92.85 47.76C99.74 47.73 104.83 52.67 104.97 59.28C105.13 66.82 99.41 71.7 92.88 71.76C85.94 71.83 80.66 66.7 80.64 59.97C80.62 52.75 85.58 47.79 92.85 47.75V47.76Z" fill="#FFFDFD"/>
<path d="M109.39 59.42C109.57 52.43 114.83 47.56 122.02 47.74C128.88 47.92 133.89 53.16 133.76 60.03C133.63 66.89 128.05 71.97 120.87 71.78C114.25 71.6 109.22 66.19 109.39 59.42Z" fill="#FFFDFD"/>
<path d="M293.58 76.4C294.14 76.42 294.34 76.94 294.7 77.23C295.55 77.93 295.36 77.07 295.51 76.72C297.62 79.61 299.1 82.81 300.14 86.22C300.08 86.48 300.07 86.77 299.78 86.91C298.19 83.12 295.97 79.71 293.58 76.39V76.4Z" fill="#FFFDFD"/>
<path d="M299.78 86.92C300.06 86.77 300.08 86.49 300.14 86.23C301.15 87.74 301.39 89.45 301.24 91.3C300.75 89.84 300.27 88.38 299.78 86.92Z" fill="#FFFDFD"/>
<path d="M131.94 79.7C131.99 78.94 131.64 78.32 131.23 77.73C131.59 77.84 131.95 77.95 132.31 78.05C132.98 78.24 133.08 78.86 133.03 79.34C132.96 79.93 132.33 79.62 131.95 79.71L131.94 79.7Z" fill="#FFFDFD"/>
<path d="M132.51 76.43C132.82 76.44 133.1 76.49 133.06 76.86C133.03 77.09 132.84 77.24 132.6 77.19C132.35 77.14 132.04 77.06 132.05 76.73C132.05 76.45 132.33 76.46 132.51 76.44V76.43Z" fill="#FFFDFD"/>
</g>
<defs>
<clipPath id="clip0_1_242">
<rect width="301.27" height="186.6" fill="white"/>
</clipPath>
</defs>
</svg>
