<svg width="135" height="84" viewBox="0 0 135 84" fill="none" xmlns="http://www.w3.org/2000/svg">
<g clip-path="url(#clip0_1_78)">
<path d="M13.0622 83.5228C12.8381 83.5228 12.7395 83.5183 12.6409 83.5228C10.7634 83.6714 10.3467 83.0727 9.97473 81.326C9.41909 78.7061 8.84999 76.0997 8.00308 73.5518C7.5729 72.2598 7.82384 71.4585 9.43701 71.31C11.6775 71.1074 13.9449 71.1029 16.1361 70.4817C19.0399 69.6579 21.4014 68.1363 22.6068 65.2238C23.2207 63.7383 22.9294 62.3248 22.0377 61.0283C20.6978 59.0881 18.762 57.8997 16.7097 56.8778C14.3617 55.7119 11.8523 54.9466 9.45045 53.9158C7.26371 52.9749 5.35479 51.6334 3.78643 49.8328C1.47422 47.1813 0.367403 44.0167 0.0806169 40.555C-0.286828 36.1569 0.595935 32.0469 3.17253 28.3916C5.01423 25.7852 7.45639 23.8855 10.3287 22.5846C12.7306 21.4952 15.1907 20.5228 17.7269 19.7846C18.0316 19.6945 18.3498 19.6315 18.6635 19.609C20.1691 19.4965 20.3976 19.654 21.0115 21.027C22.0556 23.3813 23.14 25.7177 24.1617 28.081C25.2192 30.5209 24.7039 31.1466 22.5037 31.8264C21.007 32.29 19.4476 32.5016 17.9465 32.9473C16.1137 33.4875 14.5633 34.4733 13.452 36.0669C12.1256 37.9711 12.4976 40.1498 14.3841 41.5048C15.8807 42.5852 17.5701 43.3235 19.2101 44.1338C21.6613 45.3447 24.1796 46.4296 26.5949 47.708C30.1035 49.5672 32.3396 52.5923 33.7332 56.2521C35.1312 59.9299 35.3956 63.7428 34.6294 67.5826C33.8228 71.6206 31.8108 74.9563 28.5576 77.5267C25.7435 79.746 22.6964 81.4971 19.2281 82.474C17.1713 83.0502 15.0786 83.4283 13.0666 83.5183L13.0622 83.5228Z" fill="#FFFDFD"/>
<path d="M61.1079 52.6013C61.1079 48.5003 61.9952 44.6649 64.3074 41.2167C66.4851 37.9666 69.4426 35.7923 73.1664 34.7164C76.6616 33.7035 80.1344 33.8341 83.5131 35.2791C84.0732 35.5177 84.5975 35.8373 85.1307 36.1299C85.7849 36.4945 86.2779 36.355 86.4257 35.6482C86.5646 34.991 86.9187 34.8244 87.5146 34.8289C89.6476 34.8424 91.785 34.8289 93.918 34.8379C94.8814 34.8379 95.0831 35.0135 95.0248 35.9498C94.3975 45.7003 94.9173 55.4643 94.7022 65.2148C94.6215 68.8971 94.1465 72.5209 92.4393 75.8701C90.732 79.2193 88.0165 81.3846 84.5392 82.6C78.687 84.6482 72.8527 84.3736 67.0677 82.2804C66.055 81.9157 65.1274 81.3575 64.2312 80.7543C63.7517 80.4302 63.7204 79.9936 63.8772 79.5164C64.509 77.6077 65.1498 75.699 65.7995 73.7948C66.0819 72.962 66.5479 72.8135 67.3007 73.3132C68.6092 74.182 69.9893 74.9112 71.5084 75.3254C74.5062 76.1447 77.5398 76.4868 80.5511 75.4694C82.8992 74.6772 84.3241 72.944 85.0097 70.5762C85.1666 70.0315 85.3234 69.4913 85.3368 68.9151C85.3548 68.0688 84.8484 67.7267 84.1135 68.1363C82.8409 68.8386 81.5145 69.3743 80.0851 69.6579C74.8333 70.7067 70.1551 69.5858 66.2745 65.8045C62.5866 62.2077 61.1258 57.6791 61.1079 52.6058V52.6013ZM85.4489 52.1196C85.4489 50.8231 85.4489 49.7428 85.4489 48.6579C85.4489 45.7948 83.2845 42.9633 80.5332 42.2206C76.6078 41.1627 72.8213 43.1524 71.374 47.0148C70.2671 49.9588 70.1058 52.9704 70.89 56C71.9072 59.9209 74.6496 62.4508 78.9379 62.2257C81.985 62.0637 84.9067 59.4527 85.3279 56.4051C85.534 54.9061 85.3817 53.4071 85.4534 52.1196H85.4489Z" fill="#FFFDFD"/>
<path d="M131.863 51.5209C131.854 56.6977 130.797 60.8302 127.987 64.3955C125.747 67.236 122.843 69.1267 119.393 70.1125C115.324 71.2784 111.269 71.1929 107.289 69.6399C103.095 68.0013 100.111 65.0752 98.278 60.9743C96.7769 57.6206 96.4184 54.0868 96.7634 50.4495C97.1085 46.7987 98.269 43.463 100.545 40.573C102.961 37.5074 106.071 35.5492 109.87 34.6399C112.64 33.9781 115.418 33.8566 118.174 34.4328C124.609 35.7743 128.915 39.5871 130.949 45.9029C131.612 47.9556 131.913 50.0624 131.863 51.5209ZM122.431 52.3492C122.355 49.8013 121.799 47.2984 120.338 45.0431C117.403 40.5145 110.78 40.9241 108.217 44.8855C105.295 49.4096 105.121 54.1993 107.513 58.9305C110.327 64.499 117.26 64.445 120.396 59.6418C121.83 57.445 122.368 55.0186 122.435 52.3447L122.431 52.3492Z" fill="#FFFDFD"/>
<path d="M59.1227 35.8778C59.1138 36.4675 59.1003 37.0572 59.1003 37.6469C59.1003 48.0096 59.1003 58.3768 59.1003 68.7395C59.1003 70.036 58.9749 70.1666 57.653 70.1666C55.52 70.1666 53.387 70.1576 51.254 70.1666C50.8015 70.1666 50.3892 70.117 50.0128 69.8649C49.8918 69.4103 49.8604 68.9466 49.8604 68.474C49.8604 58.1248 49.8604 47.7756 49.8604 37.4264C49.8604 37.0077 49.8425 36.5846 49.8784 36.1704C49.9501 35.3691 50.4206 34.8469 51.1734 34.8379C53.5259 34.8154 55.8829 34.8289 58.2355 34.8379C58.4237 34.8379 58.6119 34.928 58.8001 34.973C58.9883 35.2386 59.1406 35.5177 59.1182 35.8598L59.1227 35.8778Z" fill="#FFFDFD"/>
<path d="M45.8096 69.874C45.3481 70.1125 44.8596 70.1846 44.3398 70.1801C42.5116 70.1621 40.6833 70.1756 38.8595 70.1711C37.4838 70.1711 37.085 69.7884 36.9954 68.4154C37.0044 68.2939 37.0178 68.1724 37.0178 68.0463C37.0178 57.6746 37.0178 47.2984 37.0178 36.9267C37.0178 36.8051 37.0313 36.6791 37.0133 36.5576C36.8699 35.5582 37.457 34.8515 38.4831 34.847C40.5668 34.8334 42.655 34.8334 44.7386 34.847C45.72 34.8515 46.2219 35.3556 46.2667 36.3505C46.2846 36.7691 46.2577 37.1878 46.2577 37.6064C46.2577 47.8566 46.2532 58.1068 46.2577 68.3569C46.2577 68.9196 46.1546 69.4283 45.8096 69.8785V69.874Z" fill="#FFFDFD"/>
<path d="M131.554 34.3923C129.65 32.2045 127.414 30.4489 124.774 29.2379C120.267 27.1672 115.535 26.4154 110.61 26.9106C109.194 27.0547 107.796 27.2887 106.474 27.8559C106.097 28.018 105.86 27.91 105.6 27.5903C102.755 24.0791 99.2774 21.3961 95.0965 19.6945C90.965 18.0154 86.6543 17.4392 82.2136 17.7498C80.7438 17.8534 79.283 18.0154 77.8446 18.326C77.1948 18.4701 77.2172 18.0154 77.1455 17.6643C76.675 15.319 75.7385 13.1717 74.448 11.1775C71.7145 6.96398 67.9325 4.16848 63.1423 2.69646C59.0198 1.42701 54.8569 1.4 50.6402 2.09324C45.0345 3.01607 40.195 5.41543 36.2606 9.55691C33.5586 12.4019 31.6407 15.7466 30.2516 19.4064C29.1761 22.2424 28.4681 25.1685 28.0962 28.4141C26.0528 25.182 25.0625 21.6572 23.2656 18.4701C23.6868 18.3576 23.8392 18.6457 24.0184 18.7987C25.0894 19.6945 26.1066 20.6489 27.0745 21.6482C27.2134 21.7923 27.3344 22.0669 27.5988 21.9543C27.8094 21.8643 27.7422 21.6077 27.7735 21.4231C28.7459 15.6251 31.4525 10.8039 35.929 7.02701C38.6624 4.72218 41.7812 3.04758 45.151 1.85466C47.5304 1.00836 49.9502 0.261089 52.4775 0.076523C55.4708 -0.139554 58.4462 0.0630181 61.4082 0.607713C65.1633 1.30096 68.6585 2.60643 71.7952 4.80321C74.6496 6.80193 76.908 9.34533 78.5526 12.4334C79.2023 13.6489 79.7625 14.9048 80.0851 16.2418C80.2016 16.719 80.4974 16.6604 80.8021 16.6199C82.1419 16.4399 83.4817 16.3363 84.835 16.3318C90.983 16.3048 96.6111 18.0064 101.697 21.4772C103.355 22.6116 104.888 23.9125 106.205 25.4431C106.559 25.8527 106.882 25.9338 107.397 25.8167C112.743 24.6148 117.981 25.2 123.072 27.0592C126.598 28.3466 129.56 30.5029 131.801 33.5775C132.025 33.8836 132.208 34.2122 132.415 34.5273C132.347 34.6849 132.432 35.0675 132.052 34.7569C131.89 34.6264 131.805 34.3878 131.55 34.3833L131.554 34.3923Z" fill="#FFFDFD"/>
<path d="M41.6064 21.4997C44.6938 21.4862 46.9747 23.71 47.0374 26.6855C47.1091 30.0797 44.5459 32.2765 41.6198 32.3035C38.51 32.335 36.144 30.0257 36.135 26.9961C36.1261 23.746 38.3487 21.5132 41.6064 21.4952V21.4997Z" fill="#FFFDFD"/>
<path d="M49.018 26.7485C49.0986 23.6019 51.4557 21.4096 54.6775 21.4907C57.7515 21.5717 59.9965 23.9305 59.9383 27.0231C59.88 30.1112 57.3796 32.3981 54.1622 32.3125C51.1958 32.2315 48.9418 29.7961 49.018 26.7485Z" fill="#FFFDFD"/>
<path d="M131.554 34.3923C131.805 34.4013 131.895 34.6354 132.056 34.7659C132.437 35.081 132.352 34.6939 132.419 34.5363C133.365 35.8373 134.028 37.2778 134.494 38.8129C134.467 38.9299 134.462 39.0605 134.332 39.1235C133.62 37.4174 132.625 35.8823 131.554 34.3878V34.3923Z" fill="#FFFDFD"/>
<path d="M134.332 39.128C134.458 39.0604 134.467 38.9344 134.494 38.8174C134.946 39.4971 135.054 40.2669 134.987 41.0997C134.767 40.4424 134.552 39.7852 134.332 39.128Z" fill="#FFFDFD"/>
<path d="M59.1226 35.8778C59.145 35.5357 58.9882 35.2566 58.8044 34.991C58.9658 35.0405 59.1271 35.09 59.2884 35.135C59.5886 35.2206 59.6334 35.4997 59.611 35.7158C59.5797 35.9813 59.2974 35.8418 59.1271 35.8823L59.1226 35.8778Z" fill="#FFFDFD"/>
<path d="M59.3781 34.4058C59.517 34.4103 59.6425 34.4328 59.6246 34.5994C59.6111 34.7029 59.526 34.7704 59.4184 34.7479C59.3064 34.7254 59.1675 34.6894 59.172 34.5408C59.172 34.4148 59.2974 34.4193 59.3781 34.4103V34.4058Z" fill="#FFFDFD"/>
</g>
<defs>
<clipPath id="clip0_1_78">
<rect width="135" height="84" fill="white"/>
</clipPath>
</defs>
</svg>
