<svg width="50" height="31" viewBox="0 0 50 31" fill="none" xmlns="http://www.w3.org/2000/svg">
<path d="M5.1536 30.7951C5.07281 30.7951 5.03726 30.7935 5.00171 30.7951C4.32467 30.8484 4.17439 30.6335 4.04028 30.0065C3.83991 29.0661 3.6347 28.1305 3.3293 27.216C3.17418 26.7522 3.26467 26.4646 3.84638 26.4113C4.6543 26.3385 5.47192 26.3369 6.26208 26.1139C7.30915 25.8182 8.1607 25.2721 8.59537 24.2266C8.81674 23.6934 8.71171 23.186 8.39015 22.7206C7.90701 22.0242 7.20897 21.5976 6.46891 21.2308C5.6222 20.8123 4.71732 20.5376 3.85122 20.1676C3.06269 19.8299 2.37433 19.3484 1.80878 18.702C0.973387 17.7487 0.574272 16.6111 0.470857 15.3701C0.338357 13.7914 0.65668 12.3162 1.5858 11.0041C2.24991 10.0685 3.13055 9.38662 4.16631 8.91964C5.03241 8.5286 5.91952 8.17958 6.83409 7.91458C6.94397 7.88226 7.05869 7.85964 7.1718 7.85156C7.71473 7.81116 7.79714 7.86772 8.01851 8.36055C8.395 9.20565 8.78604 10.0443 9.15445 10.8926C9.5358 11.7684 9.34997 11.993 8.55659 12.237C8.01689 12.4034 7.45458 12.4794 6.91326 12.6393C6.25238 12.8332 5.6933 13.1871 5.29256 13.7591C4.81427 14.4426 4.94839 15.2247 5.62866 15.7111C6.16836 16.0989 6.77753 16.3639 7.36894 16.6547C8.25281 17.0894 9.16092 17.4788 10.0319 17.9377C11.2971 18.6051 12.1034 19.6909 12.6059 21.0046C13.1101 22.3248 13.2054 23.6934 12.9291 25.0717C12.6382 26.5211 11.9127 27.7185 10.7396 28.6411C9.72485 29.4377 8.62607 30.0663 7.3754 30.417C6.63372 30.6238 5.87912 30.7595 5.1536 30.7918V30.7951Z" fill="#44B0FB"/>
<path d="M22.4788 19.6941C22.4788 18.2221 22.7987 16.8454 23.6325 15.6077C24.4178 14.441 25.4842 13.6605 26.827 13.2744C28.0874 12.9108 29.3397 12.9577 30.558 13.4763C30.76 13.562 30.9491 13.6767 31.1414 13.7817C31.3773 13.9126 31.555 13.8625 31.6083 13.6088C31.6584 13.3729 31.7861 13.3131 32.001 13.3148C32.7701 13.3196 33.5409 13.3148 34.31 13.318C34.6574 13.318 34.7302 13.381 34.7092 13.7171C34.4829 17.217 34.6704 20.7218 34.5928 24.2218C34.5637 25.5435 34.3925 26.8443 33.7768 28.0465C33.1612 29.2487 32.182 30.0259 30.9281 30.4622C28.8178 31.1974 26.7139 31.0988 24.6278 30.3475C24.2627 30.2166 23.9282 30.0162 23.605 29.7997C23.4321 29.6834 23.4208 29.5266 23.4774 29.3553C23.7052 28.6702 23.9363 27.9851 24.1706 27.3016C24.2724 27.0027 24.4404 26.9493 24.7119 27.1287C25.1837 27.4405 25.6814 27.7023 26.2292 27.851C27.3102 28.1451 28.4041 28.2679 29.49 27.9027C30.3367 27.6183 30.8505 26.9962 31.0977 26.1463C31.1543 25.9507 31.2108 25.7568 31.2157 25.55C31.2221 25.2462 31.0396 25.1234 30.7746 25.2705C30.3157 25.5225 29.8374 25.7148 29.3219 25.8166C27.4281 26.1931 25.7412 25.7908 24.3418 24.4334C23.012 23.1424 22.4852 21.5168 22.4788 19.6958V19.6941ZM31.2561 19.5213C31.2561 19.0559 31.2561 18.6681 31.2561 18.2787C31.2561 17.251 30.4756 16.2346 29.4835 15.968C28.068 15.5883 26.7026 16.3025 26.1807 17.6889C25.7816 18.7456 25.7234 19.8266 26.0062 20.9141C26.373 22.3215 27.3619 23.2296 28.9082 23.1488C30.007 23.0907 31.0606 22.1535 31.2124 21.0595C31.2868 20.5215 31.2318 19.9834 31.2577 19.5213H31.2561Z" fill="#44B0FB"/>
<path d="M47.9915 19.3079C47.9882 21.1662 47.6069 22.6495 46.5938 23.9293C45.7858 24.9489 44.7388 25.6276 43.4946 25.9814C42.0274 26.3999 40.565 26.3692 39.1301 25.8118C37.6177 25.2236 36.5415 24.1733 35.8807 22.7012C35.3393 21.4974 35.2101 20.229 35.3345 18.9234C35.4589 17.6129 35.8774 16.4156 36.6983 15.3782C37.5692 14.2778 38.6906 13.5749 40.0609 13.2485C41.0595 13.011 42.0613 12.9673 43.055 13.1742C45.3754 13.6557 46.9282 15.0243 47.6618 17.2914C47.901 18.0282 48.0093 18.7844 47.9915 19.3079ZM44.5901 19.6053C44.5626 18.6907 44.3623 17.7923 43.8355 16.9827C42.7771 15.3572 40.3889 15.5042 39.4646 16.9262C38.4111 18.5501 38.3481 20.2694 39.2109 21.9676C40.2257 23.9665 42.7254 23.9471 43.8565 22.2229C44.3736 21.4344 44.5675 20.5635 44.5917 19.6037L44.5901 19.6053Z" fill="#44B0FB"/>
<path d="M21.763 13.6929C21.7597 13.9045 21.7549 14.1162 21.7549 14.3279C21.7549 18.0476 21.7549 21.7689 21.7549 25.4886C21.7549 25.954 21.7096 26.0008 21.233 26.0008C20.4638 26.0008 19.6947 25.9976 18.9255 26.0008C18.7623 26.0008 18.6137 25.9831 18.4779 25.8926C18.4343 25.7294 18.423 25.5629 18.423 25.3933C18.423 21.6784 18.423 17.9636 18.423 14.2487C18.423 14.0984 18.4165 13.9466 18.4295 13.7979C18.4553 13.5103 18.625 13.3228 18.8964 13.3196C19.7448 13.3115 20.5947 13.3164 21.443 13.3196C21.5109 13.3196 21.5788 13.3519 21.6466 13.3681C21.7145 13.4634 21.7694 13.5636 21.7614 13.6864L21.763 13.6929Z" fill="#44B0FB"/>
<path d="M16.9606 25.8942C16.7942 25.9798 16.6181 26.0057 16.4306 26.004C15.7714 25.9976 15.1121 26.0024 14.4545 26.0008C13.9584 26.0008 13.8146 25.8635 13.7823 25.3706C13.7855 25.327 13.7903 25.2834 13.7903 25.2381C13.7903 21.5152 13.7903 17.7907 13.7903 14.0677C13.7903 14.0241 13.7952 13.9789 13.7887 13.9352C13.737 13.5765 13.9487 13.3228 14.3187 13.3212C15.0701 13.3164 15.8231 13.3164 16.5745 13.3212C16.9283 13.3228 17.1093 13.5038 17.1255 13.8609C17.1319 14.0112 17.1222 14.1614 17.1222 14.3117C17.1222 17.991 17.1206 21.6703 17.1222 25.3496C17.1222 25.5516 17.0851 25.7342 16.9606 25.8958V25.8942Z" fill="#44B0FB"/>
<path d="M47.8816 13.1596C47.1949 12.3743 46.3886 11.7441 45.4368 11.3095C43.8113 10.5662 42.1049 10.2963 40.3291 10.4741C39.8185 10.5258 39.3143 10.6098 38.8377 10.8134C38.7019 10.8716 38.6163 10.8328 38.5226 10.7181C37.4965 9.45771 36.2426 8.49466 34.735 7.88387C33.2452 7.28115 31.6907 7.07432 30.0894 7.18582C29.5594 7.22298 29.0327 7.28115 28.514 7.39265C28.2797 7.44435 28.2878 7.28115 28.2619 7.15512C28.0922 6.31326 27.7545 5.54249 27.2892 4.82667C26.3035 3.31423 24.9397 2.31079 23.2124 1.7824C21.7258 1.32673 20.2247 1.31704 18.7041 1.56588C16.6827 1.89713 14.9376 2.75838 13.5189 4.24496C12.5445 5.26618 11.8529 6.46676 11.352 7.78045C10.9642 8.79844 10.7089 9.84874 10.5748 11.0138C9.83795 9.85359 9.48084 8.58838 8.83289 7.44435C8.98478 7.40396 9.03972 7.50737 9.10435 7.56231C9.49054 7.88386 9.85734 8.22643 10.2064 8.58515C10.2565 8.63685 10.3001 8.73542 10.3954 8.69502C10.4714 8.66271 10.4471 8.5706 10.4584 8.50435C10.8091 6.42313 11.785 4.69256 13.3993 3.33685C14.385 2.50954 15.5096 1.90844 16.7247 1.48024C17.5827 1.17646 18.4553 0.908226 19.3666 0.841976C20.446 0.764415 21.519 0.837128 22.587 1.03265C23.9411 1.28149 25.2015 1.75009 26.3326 2.53862C27.3619 3.25606 28.1763 4.16902 28.7693 5.27749C29.0036 5.71377 29.2056 6.1646 29.3219 6.64451C29.3639 6.81579 29.4706 6.79478 29.5804 6.78024C30.0636 6.7156 30.5467 6.67844 31.0347 6.67682C33.2517 6.66713 35.2812 7.27792 37.1152 8.52374C37.713 8.93094 38.2657 9.39792 38.7407 9.94731C38.8684 10.0944 38.9847 10.1234 39.1705 10.0814C41.0983 9.64999 42.9872 9.86005 44.8228 10.5274C46.0945 10.9895 47.1625 11.7635 47.9705 12.8672C48.0513 12.977 48.1175 13.095 48.1918 13.2081C48.1676 13.2647 48.1983 13.402 48.061 13.2905C48.0028 13.2437 47.9721 13.158 47.88 13.1564L47.8816 13.1596Z" fill="#44B0FB"/>
<path d="M15.4466 8.53183C16.5599 8.52698 17.3824 9.32521 17.405 10.3933C17.4309 11.6116 16.5066 12.4002 15.4514 12.4099C14.33 12.4212 13.4769 11.5923 13.4736 10.5048C13.4704 9.33814 14.2719 8.53668 15.4466 8.53021V8.53183Z" fill="#44B0FB"/>
<path d="M18.1192 10.4143C18.1483 9.2848 18.9982 8.49788 20.16 8.52696C21.2685 8.55605 22.078 9.40276 22.057 10.5128C22.036 11.6213 21.1344 12.4422 19.9742 12.4115C18.9045 12.3824 18.0917 11.5082 18.1192 10.4143Z" fill="#44B0FB"/>
<path d="M47.8816 13.1596C47.9721 13.1629 48.0044 13.2469 48.0626 13.2938C48.1999 13.4069 48.1692 13.2679 48.1935 13.2113C48.5344 13.6783 48.7735 14.1954 48.9416 14.7464C48.9319 14.7884 48.9303 14.8353 48.8834 14.8579C48.6265 14.2455 48.2678 13.6945 47.8816 13.158V13.1596Z" fill="#44B0FB"/>
<path d="M48.8818 14.8595C48.9271 14.8353 48.9303 14.79 48.94 14.748C49.1032 14.992 49.142 15.2683 49.1178 15.5673C49.0386 15.3313 48.961 15.0954 48.8818 14.8595Z" fill="#44B0FB"/>
<path d="M21.763 13.6929C21.7711 13.5701 21.7145 13.4699 21.6483 13.3745C21.7064 13.3923 21.7646 13.4101 21.8228 13.4263C21.931 13.457 21.9472 13.5571 21.9391 13.6347C21.9278 13.73 21.826 13.6799 21.7646 13.6945L21.763 13.6929Z" fill="#44B0FB"/>
<path d="M21.8551 13.1645C21.9052 13.1661 21.9504 13.1742 21.9439 13.234C21.9391 13.2711 21.9084 13.2954 21.8696 13.2873C21.8292 13.2792 21.7791 13.2663 21.7807 13.213C21.7807 13.1677 21.826 13.1693 21.8551 13.1661V13.1645Z" fill="#44B0FB"/>
</svg>
