<svg width="245" height="152" viewBox="0 0 245 152" fill="none" xmlns="http://www.w3.org/2000/svg">
<g clip-path="url(#clip0_1_280)">
<path d="M23.7056 151.137C23.299 151.137 23.1201 151.128 22.9412 151.137C19.5337 151.405 18.7774 150.322 18.1025 147.161C17.0941 142.421 16.0613 137.704 14.5243 133.094C13.7436 130.756 14.199 129.306 17.1266 129.037C21.1927 128.671 25.3076 128.662 29.2843 127.538C34.554 126.048 38.8397 123.294 41.0273 118.024C42.1414 115.336 41.6128 112.778 39.9945 110.432C37.5629 106.921 34.0498 104.771 30.3252 102.922C26.0639 100.812 21.5099 99.4272 17.151 97.5618C13.1825 95.8594 9.71813 93.4319 6.87185 90.1736C2.67561 85.3758 0.666949 79.6493 0.146486 73.3852C-0.520358 65.4268 1.08169 57.9897 5.75773 51.3754C9.10008 46.659 13.5322 43.2214 18.7449 40.8673C23.1038 38.896 27.5684 37.1366 32.1712 35.8007C32.7242 35.6377 33.3016 35.5237 33.8709 35.483C36.6033 35.2793 37.0181 35.5644 38.1322 38.0489C40.027 42.3091 41.995 46.5368 43.8491 50.8133C45.7684 55.2283 44.8331 56.3606 40.8402 57.5906C38.1241 58.4296 35.294 58.8124 32.5697 59.6189C29.2436 60.5964 26.4299 62.3803 24.4131 65.2639C22.0059 68.7095 22.6809 72.6521 26.1046 75.104C28.8208 77.059 31.8866 78.3949 34.863 79.8611C39.3114 82.0523 43.8817 84.0154 48.265 86.3288C54.6325 89.693 58.6905 95.167 61.2196 101.789C63.7569 108.445 64.2367 115.344 62.8461 122.292C61.3823 129.599 57.7309 135.635 51.8269 140.286C46.7198 144.302 41.1899 147.471 34.8955 149.239C31.1629 150.281 27.3651 150.965 23.7137 151.128L23.7056 151.137Z" fill="#44B0FB"/>
<path d="M110.899 95.1833C110.899 87.7625 112.51 80.8223 116.706 74.5826C120.658 68.7014 126.025 64.767 132.783 62.8202C139.126 60.9874 145.429 61.2236 151.561 63.8384C152.577 64.2701 153.529 64.8485 154.496 65.3779C155.684 66.0377 156.578 65.7852 156.847 64.5063C157.099 63.317 157.741 63.0157 158.823 63.0238C162.694 63.0482 166.573 63.0238 170.444 63.0401C172.192 63.0401 172.558 63.3578 172.452 65.0521C171.314 82.6958 172.257 100.364 171.867 118.008C171.72 124.671 170.858 131.228 167.76 137.289C164.662 143.349 159.734 147.267 153.423 149.467C142.802 153.173 132.214 152.676 121.715 148.888C119.877 148.229 118.194 147.218 116.568 146.127C115.697 145.54 115.641 144.75 115.925 143.887C117.072 140.433 118.235 136.979 119.414 133.534C119.926 132.027 120.772 131.758 122.138 132.662C124.513 134.234 127.018 135.554 129.774 136.303C135.215 137.786 140.72 138.405 146.185 136.564C150.446 135.13 153.033 131.994 154.277 127.709C154.561 126.724 154.846 125.746 154.87 124.704C154.903 123.172 153.984 122.553 152.65 123.294C150.341 124.565 147.934 125.534 145.339 126.048C135.808 127.946 127.318 125.917 120.276 119.075C113.583 112.566 110.932 104.372 110.899 95.1914V95.1833ZM155.074 94.3117C155.074 91.9657 155.074 90.0107 155.074 88.0476C155.074 82.8669 151.146 77.7432 146.153 76.3991C139.029 74.4849 132.157 78.0853 129.53 85.0744C127.522 90.4017 127.229 95.8512 128.652 101.333C130.498 108.428 135.475 113.006 143.258 112.599C148.788 112.306 154.09 107.581 154.854 102.066C155.228 99.3539 154.952 96.6414 155.082 94.3117H155.074Z" fill="#44B0FB"/>
<path d="M239.308 93.2283C239.291 102.596 237.372 110.074 232.273 116.525C228.207 121.665 222.937 125.086 216.676 126.87C209.291 128.98 201.932 128.825 194.71 126.015C187.099 123.05 181.682 117.755 178.356 110.334C175.632 104.266 174.982 97.8714 175.608 91.2896C176.234 84.6834 178.34 78.6474 182.471 73.4178C186.855 67.8705 192.498 64.3271 199.394 62.6817C204.42 61.4842 209.462 61.2643 214.464 62.307C226.141 64.7344 233.957 71.6339 237.649 83.0624C238.852 86.7768 239.397 90.5891 239.308 93.2283ZM222.189 94.7271C222.051 90.1166 221.043 85.5876 218.391 81.5065C213.065 73.3119 201.045 74.0531 196.394 81.2214C191.091 89.4079 190.774 98.075 195.117 106.636C200.224 116.713 212.805 116.615 218.497 107.923C221.099 103.948 222.075 99.5575 222.197 94.719L222.189 94.7271Z" fill="#44B0FB"/>
<path d="M107.297 64.9218C107.28 65.9888 107.256 67.0559 107.256 68.123C107.256 86.8746 107.256 105.634 107.256 124.386C107.256 126.732 107.028 126.968 104.629 126.968C100.758 126.968 96.8875 126.952 93.0165 126.968C92.1952 126.968 91.447 126.878 90.7639 126.422C90.5443 125.6 90.4874 124.761 90.4874 123.905C90.4874 105.178 90.4874 86.451 90.4874 67.7239C90.4874 66.9663 90.4549 66.2006 90.5199 65.4512C90.65 64.0013 91.5039 63.0564 92.8701 63.0401C97.1396 62.9994 101.417 63.0238 105.687 63.0401C106.028 63.0401 106.37 63.203 106.711 63.2845C107.053 63.7651 107.329 64.2701 107.289 64.8892L107.297 64.9218Z" fill="#44B0FB"/>
<path d="M83.136 126.439C82.2983 126.87 81.4119 127.001 80.4686 126.992C77.1506 126.96 73.8327 126.984 70.5229 126.976C68.0263 126.976 67.3025 126.284 67.1398 123.799C67.1561 123.579 67.1805 123.359 67.1805 123.131C67.1805 104.364 67.1805 85.5876 67.1805 66.8197C67.1805 66.5998 67.2049 66.3717 67.1724 66.1518C66.9121 64.3434 67.9775 63.0645 69.8398 63.0564C73.6212 63.0319 77.4109 63.0319 81.1924 63.0564C82.9733 63.0645 83.8841 63.9769 83.9655 65.7771C83.998 66.5346 83.9492 67.2922 83.9492 68.0497C83.9492 86.5976 83.9411 105.146 83.9492 123.693C83.9492 124.712 83.7622 125.632 83.136 126.447V126.439Z" fill="#44B0FB"/>
<path d="M238.746 62.2336C235.29 58.2748 231.232 55.098 226.442 52.9067C218.261 49.1597 209.674 47.7993 200.736 48.6954C198.166 48.956 195.629 49.3796 193.23 50.406C192.547 50.6992 192.116 50.5037 191.644 49.9254C186.48 43.5717 180.17 38.7168 172.582 35.6377C165.085 32.5994 157.261 31.5567 149.202 32.1188C146.535 32.3061 143.884 32.5993 141.273 33.1614C140.094 33.4221 140.135 32.5994 140.005 31.964C139.151 27.72 137.451 23.8345 135.109 20.2259C130.148 12.6015 123.285 7.54297 114.591 4.87931C107.11 2.5822 99.555 2.53333 91.9025 3.78777C81.7291 5.45766 72.9463 9.79935 65.8062 17.2935C60.9024 22.4416 57.4218 28.4939 54.9008 35.1164C52.9491 40.2482 51.6642 45.543 50.9892 51.4161C47.2809 45.5674 45.4837 39.1893 42.2227 33.4221C42.9871 33.2184 43.2636 33.7398 43.5889 34.0167C45.5325 35.6377 47.3785 37.3646 49.1351 39.173C49.3872 39.4336 49.6067 39.9305 50.0865 39.7269C50.4687 39.564 50.3468 39.0997 50.4037 38.7657C52.1684 28.2739 57.0803 19.5498 65.2044 12.7155C70.165 8.5449 75.8251 5.51468 81.9405 3.35605C86.2587 1.82464 90.6501 0.472448 95.2367 0.138472C100.669 -0.252525 106.069 0.114034 111.444 1.09967C118.259 2.35412 124.602 4.71639 130.295 8.69153C135.475 12.3082 139.574 16.9106 142.558 22.4986C143.737 24.698 144.754 26.9706 145.339 29.3899C145.551 30.2534 146.088 30.1475 146.641 30.0742C149.072 29.7483 151.504 29.561 153.96 29.5528C165.117 29.504 175.331 32.5831 184.561 38.8634C187.57 40.9162 190.351 43.2703 192.742 46.0399C193.385 46.7811 193.97 46.9278 194.905 46.716C204.607 44.541 214.114 45.6 223.352 48.9642C229.752 51.2939 235.128 55.1957 239.194 60.7593C239.6 61.3132 239.934 61.9078 240.308 62.478C240.186 62.7631 240.34 63.4555 239.649 62.8935C239.356 62.6572 239.202 62.2255 238.738 62.2174L238.746 62.2336Z" fill="#44B0FB"/>
<path d="M75.5079 38.9042C81.111 38.8797 85.2503 42.9037 85.3642 48.2881C85.4943 54.43 80.8426 58.4051 75.5323 58.454C69.8885 58.511 65.5947 54.3323 65.5784 48.8502C65.5622 42.9689 69.5957 38.9286 75.5079 38.896V38.9042Z" fill="#44B0FB"/>
<path d="M88.9585 48.4021C89.1049 42.7082 93.3824 38.7413 99.2295 38.8879C104.808 39.0345 108.882 43.3029 108.777 48.899C108.671 54.487 104.133 58.6251 98.2943 58.4703C92.9108 58.3237 88.8202 53.9168 88.9585 48.4021Z" fill="#44B0FB"/>
<path d="M238.746 62.2336C239.202 62.2499 239.364 62.6735 239.657 62.9097C240.348 63.4799 240.194 62.7794 240.316 62.4943C242.032 64.8484 243.235 67.4551 244.081 70.2328C244.032 70.4446 244.024 70.6808 243.788 70.7948C242.495 67.7076 240.69 64.9299 238.746 62.2255V62.2336Z" fill="#44B0FB"/>
<path d="M243.788 70.803C244.016 70.6808 244.032 70.4527 244.081 70.2409C244.902 71.4709 245.098 72.8639 244.976 74.3708C244.577 73.1816 244.187 71.9923 243.788 70.803Z" fill="#44B0FB"/>
<path d="M107.297 64.9218C107.338 64.3027 107.053 63.7976 106.719 63.317C107.012 63.4067 107.305 63.4963 107.598 63.5777C108.143 63.7325 108.224 64.2375 108.183 64.6285C108.126 65.1091 107.614 64.8566 107.305 64.9299L107.297 64.9218Z" fill="#44B0FB"/>
<path d="M107.76 62.2581C108.012 62.2662 108.24 62.307 108.208 62.6084C108.183 62.7957 108.029 62.9179 107.833 62.8772C107.63 62.8364 107.378 62.7713 107.386 62.5025C107.386 62.2744 107.614 62.2825 107.76 62.2662V62.2581Z" fill="#44B0FB"/>
</g>
<defs>
<clipPath id="clip0_1_280">
<rect width="245" height="152" fill="white"/>
</clipPath>
</defs>
</svg>
