<svg width="298" height="114" viewBox="0 0 298 114" fill="none" xmlns="http://www.w3.org/2000/svg">
<g clip-path="url(#clip0_1_914)">
<path d="M74.5857 83.509C75.4533 83.509 76.2639 83.6689 77.0116 83.9946C77.7593 84.3202 78.4215 84.7602 78.9923 85.3258C79.563 85.8914 80.014 86.5484 80.3393 87.2968C80.6647 88.0452 80.8245 88.8565 80.8245 89.7249C80.8245 90.5933 80.6647 91.3817 80.3393 92.1415C80.014 92.9014 79.5688 93.5641 78.9923 94.1411C78.4215 94.7124 77.7593 95.1638 77.0116 95.4894C76.2639 95.8151 75.4533 95.975 74.5857 95.975H70.8413V100.968H68.3755V89.7306C68.3755 88.8622 68.5353 88.0509 68.8607 87.3025C69.186 86.5541 69.6255 85.8971 70.1906 85.3315C70.7557 84.7659 71.4121 84.326 72.1713 84.0003C72.9304 83.6747 73.7352 83.5147 74.5857 83.5147V83.509ZM76.0527 93.2099C76.515 93.0156 76.9146 92.7471 77.257 92.4043C77.5995 92.0615 77.8678 91.6616 78.0619 91.1989C78.2559 90.7361 78.353 90.2448 78.353 89.7306C78.353 89.2164 78.2559 88.7251 78.0619 88.2737C77.8678 87.8224 77.5995 87.4225 77.257 87.0797C76.9146 86.7369 76.515 86.4684 76.0527 86.2741C75.5903 86.0799 75.0994 85.9828 74.5857 85.9828C74.072 85.9828 73.5811 86.0799 73.1302 86.2741C72.6793 86.4684 72.2797 86.7369 71.9372 87.0797C71.5948 87.4225 71.3265 87.8224 71.1324 88.2737C70.9384 88.7251 70.8413 89.2107 70.8413 89.7306V93.507H74.5857C75.1051 93.507 75.596 93.4098 76.0527 93.2156V93.2099Z" fill="url(#paint0_linear_1_914)"/>
<path d="M89.729 83.4576V85.9256H88.479C87.9596 85.9256 87.4744 86.0228 87.0235 86.217C86.5726 86.4113 86.173 86.6798 85.8305 87.0226C85.488 87.3653 85.2198 87.7653 85.0257 88.2166C84.8316 88.6679 84.7346 89.1536 84.7346 89.6735V95.9179H82.2402V89.6735C82.2402 88.8051 82.4001 87.9938 82.7254 87.2454C83.0508 86.497 83.496 85.8399 84.0725 85.2743C84.6433 84.7087 85.3111 84.2688 86.0703 83.9432C86.8294 83.6175 87.6342 83.4576 88.4847 83.4576H89.7348H89.729Z" fill="url(#paint1_linear_1_914)"/>
<path d="M100.82 91.5302L102.566 93.2784L101.704 94.1411C101.111 94.7353 100.437 95.1866 99.678 95.5009C98.9189 95.8151 98.1255 95.975 97.2921 95.975C96.4588 95.975 95.6654 95.8208 94.9062 95.5009C94.147 95.1866 93.4735 94.7353 92.8799 94.1411C92.2691 93.5298 91.8182 92.8442 91.5214 92.073C91.2246 91.3074 91.0762 90.5247 91.0762 89.7249C91.0762 88.925 91.2246 88.1538 91.5214 87.3939C91.8182 86.6341 92.2691 85.9485 92.8799 85.3429C93.4906 84.7316 94.1756 84.2745 94.9462 83.9717C95.711 83.6689 96.493 83.5147 97.2864 83.5147C98.0798 83.5147 98.8618 83.6689 99.6267 83.9717C100.392 84.2745 101.082 84.7373 101.693 85.3429L102.555 86.2056L95.6482 93.1185C96.3503 93.4727 97.0923 93.587 97.88 93.467C98.6677 93.347 99.3527 92.9928 99.9463 92.3986L100.808 91.5359L100.82 91.5302ZM94.6379 87.0625C93.8959 87.8053 93.5306 88.6908 93.5306 89.7249C93.5306 90.2962 93.6619 90.8446 93.9187 91.3645C94.1413 91.1417 94.4781 90.8046 94.929 90.3533C95.38 89.902 95.8594 89.4221 96.3731 88.9079C96.8869 88.3937 97.372 87.9138 97.8401 87.451C98.3138 86.9883 98.6791 86.6283 98.936 86.3712C98.2339 86.017 97.4919 85.8971 96.7042 86.0113C95.9165 86.1199 95.2316 86.4741 94.6379 87.0683V87.0625Z" fill="url(#paint2_linear_1_914)"/>
<path d="M115.209 83.4576V85.9256H107.697C107.344 85.9256 107.052 86.0456 106.813 86.2856C106.573 86.5255 106.453 86.8226 106.453 87.1711C106.453 87.5196 106.573 87.8224 106.813 88.0738C107.052 88.3252 107.349 88.4508 107.697 88.4508H112.686C113.206 88.4508 113.691 88.548 114.142 88.7422C114.593 88.9365 114.992 89.1993 115.335 89.5306C115.677 89.862 115.945 90.2562 116.14 90.7075C116.334 91.1589 116.431 91.6445 116.431 92.1644C116.431 92.6843 116.334 93.1699 116.14 93.6212C115.945 94.0726 115.677 94.4725 115.335 94.8153C114.992 95.1581 114.593 95.4266 114.142 95.6208C113.691 95.8151 113.206 95.9122 112.686 95.9122H105.197V93.4441H112.686C113.057 93.4441 113.36 93.3241 113.599 93.0842C113.839 92.8442 113.959 92.5415 113.959 92.1701C113.959 91.7987 113.839 91.5245 113.599 91.2846C113.36 91.0446 113.052 90.9246 112.686 90.9246H107.697C107.178 90.9246 106.693 90.8275 106.242 90.6333C105.791 90.439 105.397 90.1705 105.066 89.8277C104.735 89.4849 104.467 89.085 104.278 88.6337C104.084 88.1823 103.987 87.6967 103.987 87.1768C103.987 86.6569 104.084 86.1713 104.278 85.72C104.472 85.2686 104.735 84.8744 105.066 84.5431C105.397 84.2117 105.791 83.9489 106.242 83.7546C106.693 83.5604 107.178 83.4633 107.697 83.4633H115.209V83.4576Z" fill="url(#paint3_linear_1_914)"/>
<path d="M125.272 93.4498V95.9179H124.051C123.2 95.9179 122.395 95.7579 121.636 95.4323C120.877 95.1066 120.215 94.661 119.638 94.084C119.068 93.5127 118.617 92.8442 118.291 92.0844C117.966 91.3245 117.806 90.519 117.806 89.6677V78.4529H120.272V85.9485H125.261V88.4166H120.272V89.6677C120.272 90.1876 120.369 90.679 120.563 91.136C120.757 91.5988 121.025 91.9987 121.368 92.3415C121.71 92.6843 122.11 92.9528 122.572 93.147C123.035 93.3413 123.526 93.4384 124.039 93.4384H125.261L125.272 93.4498Z" fill="url(#paint4_linear_1_914)"/>
<path d="M132.984 83.4576C133.851 83.4576 134.662 83.6175 135.41 83.9432C136.157 84.2688 136.814 84.7087 137.379 85.2743C137.944 85.8399 138.389 86.4969 138.709 87.2454C139.034 87.9938 139.194 88.8051 139.194 89.6735V95.9179H132.984C132.133 95.9179 131.328 95.7579 130.569 95.4323C129.81 95.1066 129.148 94.661 128.572 94.084C128.001 93.5127 127.55 92.8442 127.224 92.0844C126.899 91.3245 126.739 90.519 126.739 89.6677C126.739 88.8165 126.899 87.9881 127.224 87.2396C127.55 86.4912 127.995 85.8342 128.572 85.2686C129.142 84.703 129.81 84.2631 130.569 83.9375C131.328 83.6118 132.133 83.4518 132.984 83.4518V83.4576ZM136.728 93.4498V89.6735C136.728 89.1536 136.631 88.6679 136.437 88.2166C136.243 87.7653 135.975 87.3653 135.632 87.0226C135.29 86.6798 134.89 86.4112 134.439 86.217C133.988 86.0228 133.503 85.9256 132.984 85.9256C132.464 85.9256 131.973 86.0228 131.517 86.217C131.054 86.4112 130.649 86.6798 130.312 87.0226C129.976 87.3653 129.702 87.7653 129.508 88.2166C129.314 88.6679 129.217 89.1536 129.217 89.6735C129.217 90.1933 129.314 90.6847 129.508 91.1417C129.702 91.6045 129.97 92.0044 130.312 92.3472C130.655 92.69 131.054 92.9585 131.517 93.1528C131.979 93.347 132.47 93.4441 132.984 93.4441H136.728V93.4498Z" fill="url(#paint5_linear_1_914)"/>
<path d="M276.201 90.1134L278.793 92.7071L277.52 93.9812C276.641 94.861 275.642 95.5294 274.518 95.9979C273.393 96.4664 272.212 96.7006 270.979 96.7006C269.746 96.7006 268.564 96.4664 267.44 95.9979C266.315 95.5294 265.316 94.861 264.437 93.9812C263.536 93.0728 262.862 92.0558 262.423 90.9132C261.983 89.7763 261.766 88.6165 261.766 87.4339C261.766 86.2513 261.983 85.1029 262.423 83.9775C262.862 82.852 263.536 81.835 264.437 80.9324C265.339 80.0297 266.361 79.3498 267.503 78.8928C268.644 78.4357 269.797 78.2129 270.979 78.2129C272.16 78.2129 273.313 78.4414 274.455 78.8928C275.591 79.3441 276.612 80.024 277.52 80.9324L278.793 82.2064L268.553 92.4558C269.597 92.9756 270.699 93.147 271.863 92.9699C273.028 92.7928 274.05 92.2615 274.929 91.3874L276.201 90.1134ZM267.029 83.4861C265.933 84.583 265.385 85.9028 265.385 87.4396C265.385 88.2909 265.573 89.1021 265.961 89.8677C266.293 89.5363 266.789 89.0393 267.463 88.3651C268.136 87.691 268.844 86.9769 269.603 86.2227C270.357 85.4686 271.081 84.7487 271.784 84.0631C272.48 83.3776 273.022 82.8405 273.41 82.4578C272.366 81.9379 271.264 81.755 270.1 81.9207C268.935 82.0864 267.914 82.6063 267.035 83.4861H267.029Z" fill="#6B6B6A"/>
<path d="M283.645 80.8524C284.552 79.9497 285.568 79.2698 286.71 78.8128C287.846 78.3614 289.005 78.1329 290.186 78.1329C291.368 78.1329 292.521 78.3614 293.662 78.8128C294.798 79.2641 295.82 79.944 296.727 80.8524L298 82.1264L295.449 84.7202L294.13 83.4461C293.582 82.8977 292.966 82.4863 292.281 82.2121C291.596 81.9379 290.894 81.8007 290.186 81.8007C289.478 81.8007 288.776 81.9379 288.091 82.2121C287.406 82.4863 286.79 82.8977 286.242 83.4461C285.694 83.966 285.283 84.5716 285.009 85.2572C284.735 85.9428 284.598 86.6455 284.598 87.3539C284.598 88.0623 284.735 88.7651 285.009 89.4506C285.283 90.1362 285.694 90.7532 286.242 91.3017C287.338 92.3986 288.656 92.9471 290.192 92.9471C290.934 92.9471 291.642 92.81 292.332 92.5357C293.017 92.2615 293.622 91.8502 294.142 91.3017L295.46 90.0277L298.012 92.6214L296.739 93.8955C295.831 94.8039 294.809 95.478 293.674 95.9351C292.538 96.3864 291.379 96.6149 290.197 96.6149C289.016 96.6149 287.857 96.3864 286.721 95.9351C285.585 95.4837 284.564 94.8039 283.656 93.8955C282.754 92.9928 282.081 91.9758 281.641 90.8504C281.202 89.7249 280.985 88.5651 280.985 87.3711C280.985 86.177 281.202 85.0172 281.641 83.8918C282.081 82.7663 282.754 81.7493 283.656 80.8466L283.645 80.8524Z" fill="#6B6B6A"/>
<path d="M6.14174 17.3794C-1.99778 25.5606 -0.810531 38.0095 4.8232 46.9734C11.2675 57.2228 22.3294 64.9527 25.543 76.8075C25.9711 78.3957 28.6538 77.7387 28.2257 76.1505C25.5544 66.2781 17.6718 59.1767 11.2618 51.2526C7.89978 47.0934 4.78325 42.5458 3.53892 37.4382C2.0891 31.4965 3.52179 23.7781 8.11668 19.1619C9.31535 17.9564 7.35182 16.1625 6.14174 17.3737V17.3794Z" fill="white"/>
<path d="M26.7928 78.0072C26.125 78.0072 25.4743 77.6644 25.2631 76.8874C23.271 69.5232 18.0997 63.633 13.1052 57.937C10.1028 54.5148 6.99771 50.9784 4.57755 47.1334C-0.902071 38.4152 -2.60874 25.772 5.93033 17.1851C6.67807 16.4367 7.69408 16.6424 8.27629 17.2194C8.80142 17.745 9.03545 18.642 8.31054 19.3733C4.1095 23.601 2.25442 31.0052 3.81269 37.3811C5.1198 42.74 8.59594 47.5219 11.4784 51.0812C12.9054 52.8466 14.4294 54.6005 15.9078 56.2973C21.0678 62.2275 26.4047 68.3577 28.4938 76.0876C28.7621 77.076 28.0714 77.7444 27.318 77.9444C27.1467 77.9901 26.9698 78.0129 26.7928 78.0129V78.0072ZM6.3413 17.5793C-1.98087 25.9434 -0.29703 38.2952 5.06272 46.8192C7.45435 50.6241 10.5481 54.1491 13.5333 57.5542C18.5734 63.3016 23.7848 69.2375 25.8168 76.7332C25.9937 77.3845 26.6444 77.5273 27.1696 77.3845C27.6776 77.2474 28.1114 76.836 27.9458 76.2247C25.8853 68.6205 20.594 62.5417 15.4797 56.6629C14.0014 54.9604 12.4716 53.2065 11.0389 51.4354C8.11647 47.8247 4.59467 42.98 3.26472 37.5068C1.6665 30.9481 3.57866 23.321 7.91669 18.9619C8.40187 18.4763 8.20209 17.9335 7.88244 17.6136C7.50001 17.2365 6.86072 17.0594 6.34701 17.5793H6.3413Z" fill="#6B6B6A"/>
<path d="M25.6059 2.89657C25.3833 2.6909 25.0408 2.67376 24.784 2.83373L23.26 3.79925C21.8615 4.68479 21.4905 6.62154 22.4266 8.10125C23.3627 9.58095 25.2749 10.0723 26.6733 9.18674L28.2316 8.19837C28.4998 8.02697 28.6197 7.69561 28.517 7.39282C28.1973 6.46729 27.3525 4.49054 25.6059 2.89657Z" fill="#6B6B6A"/>
<path d="M28.9256 7.97826C29.6233 7.53007 29.3526 5.8622 28.3208 4.25297C27.289 2.64373 25.8869 1.70252 25.1892 2.15071C24.4914 2.5989 24.7622 4.26678 25.794 5.87601C26.8257 7.48524 28.2278 8.42645 28.9256 7.97826Z" fill="#7E7E7D"/>
<path d="M25.2234 2.38809C25.2691 2.94227 25.3946 3.4793 25.5716 3.9992C25.7485 4.51909 25.9769 5.02185 26.2794 5.4789C26.5705 5.94167 26.913 6.37586 27.3125 6.75293C27.7007 7.14714 28.1459 7.47279 28.5968 7.78701C28.1173 7.51849 27.6379 7.2157 27.2326 6.83292C26.8102 6.46727 26.462 6.02165 26.1595 5.55317C25.5716 4.60479 25.212 3.49644 25.2234 2.38809Z" fill="white"/>
<path d="M27.7579 6.28447C26.9702 5.55319 26.3994 4.72478 26.074 3.78782C25.9313 3.37077 26.1083 2.908 26.4907 2.6909L28.3629 1.62254C28.6769 1.44544 29.0707 1.46258 29.3618 1.67396C30.1609 2.2567 30.6975 3.03369 31.0285 4.20488C31.137 4.58766 30.9829 4.99901 30.6461 5.22182L28.8938 6.38159C28.5399 6.61583 28.0661 6.57584 27.7579 6.28447Z" fill="#6B6B6A"/>
<path d="M30.9078 4.79345C31.2649 4.56176 31.0832 3.64631 30.5019 2.74873C29.9207 1.85114 29.16 1.31132 28.8029 1.54301C28.4458 1.77469 28.6275 2.69014 29.2087 3.58773C29.79 4.48531 30.5507 5.02513 30.9078 4.79345Z" fill="#7E7E7D"/>
<path d="M30.4175 4.59908C36.5821 1.37687 43.1519 5.06184 46.4625 10.5179C49.7503 15.9454 50.167 22.4698 50.4809 28.64C51.0403 39.6949 52.7584 51.5554 59.1513 60.9249C60.2472 62.536 62.8843 61.0049 61.7769 59.3824C57.7985 53.5493 55.4982 46.0022 54.3623 39.0607C53.1979 31.9136 53.8543 24.5779 52.3246 17.4765C50.0814 7.03859 40.3379 -4.01634 28.8821 1.97103C27.1469 2.87942 28.688 5.50747 30.4232 4.59908H30.4175Z" fill="white"/>
<path d="M60.4072 61.8904C59.8592 61.8904 59.3055 61.6505 58.9117 61.0792C52.1363 51.1497 50.6922 38.5294 50.1957 28.6457C49.916 23.0868 49.5621 16.1682 46.2172 10.655C43.0151 5.37606 36.6051 1.67966 30.5489 4.84474C29.9553 5.15325 29.2989 5.13611 28.7509 4.78761C28.1687 4.41626 27.7977 3.73068 27.8262 3.07938C27.8491 2.49093 28.1744 2.00531 28.7395 1.71394C32.8093 -0.411347 37.0331 -0.565602 40.9545 1.27403C46.3942 3.8278 51.069 10.3122 52.5987 17.4079C53.4378 21.3043 53.6261 25.3206 53.8031 29.2113C53.9515 32.4392 54.1113 35.7757 54.6364 39.0093C55.5554 44.6482 57.5817 52.7323 62.0054 59.2167C62.6447 60.1537 62.2166 61.0735 61.5487 61.5305C61.2177 61.759 60.8124 61.8904 60.4014 61.8904H60.4072ZM35.2123 3.10795C39.8871 3.10795 44.2251 6.27874 46.7081 10.3693C50.1272 16.0082 50.481 23.0068 50.7664 28.6285C51.263 38.438 52.6957 50.9555 59.3854 60.765C59.8592 61.462 60.6754 61.4448 61.2348 61.062C61.6572 60.7764 61.9882 60.2051 61.5373 59.5423C57.0566 52.9722 55.0074 44.8024 54.077 39.1064C53.5462 35.8385 53.3864 32.4849 53.238 29.2456C53.0553 25.3835 52.8727 21.3843 52.045 17.5393C50.5553 10.6093 46.0003 4.28485 40.7205 1.79964C36.9704 0.0399914 32.9234 0.18282 29.0135 2.22812C28.534 2.4795 28.4199 2.84514 28.4085 3.11366C28.3913 3.57071 28.6539 4.05633 29.0649 4.31913C29.4416 4.55909 29.8754 4.57051 30.2921 4.35341C31.9303 3.49644 33.597 3.11366 35.218 3.11366L35.2123 3.10795Z" fill="#6B6B6A"/>
<path d="M165.136 82.1778C165.096 81.9779 165.039 81.7836 164.959 81.5894C164.834 81.3037 164.697 81.0295 164.548 80.7667C164.531 80.7324 164.503 80.6981 164.486 80.6638C164.383 80.4924 164.28 80.321 164.172 80.1611C164.126 80.0925 164.075 80.0297 164.023 79.9668C163.778 79.6412 163.515 79.327 163.218 79.0413C162.476 78.3215 161.62 77.7501 160.644 77.3331C159.662 76.916 158.618 76.7046 157.499 76.7046H146.711C145.952 76.7046 145.313 76.4361 144.793 75.8934C144.274 75.3506 144.011 74.705 144.011 73.9452C144.011 73.1853 144.274 72.5455 144.793 72.0256C145.313 71.5057 145.952 71.2486 146.711 71.2486H162.95V65.9068H146.711C145.592 65.9068 144.542 66.1182 143.566 66.541C142.584 66.958 141.739 67.5293 141.02 68.2492C140.301 68.969 139.73 69.8203 139.314 70.7972C138.891 71.7742 138.686 72.8254 138.686 73.9452C138.686 75.065 138.897 76.1162 139.314 77.0931C139.73 78.0758 140.301 78.9328 141.02 79.6697C141.739 80.4125 142.59 80.9895 143.566 81.4123C144.548 81.835 145.592 82.0407 146.711 82.0407H156.843C156.974 82.075 157.094 82.0978 157.197 82.0978C162.722 82.0121 161.62 86.337 158.418 90.7247C146.494 107.064 105.585 109.304 105.585 109.304C88.8839 110.149 63.5293 108.43 54.4594 91.7188C56.7311 90.1134 58.923 87.8395 60.6239 84.6173C61.0292 83.8689 61.3945 83.0748 61.7199 82.2235C64.5225 74.905 64.6652 70.7801 63.4665 64.17C63.1126 64.3185 62.7359 64.4042 62.3363 64.4157C61.4744 64.4385 60.6125 64.3928 59.7506 64.3928C59.3625 64.3928 58.9629 64.3928 58.5748 64.4328C58.6319 64.4385 58.4093 64.5128 58.2152 64.5642C58.8431 67.1808 59.0543 69.8317 58.8316 72.5055C58.5748 75.6534 57.7129 78.59 56.2345 81.3208C54.3623 84.7944 51.7652 87.3596 48.4717 89.0222C45.1725 90.6847 41.8505 90.6104 38.5 88.7993C35.7716 87.3254 33.8252 85.1544 32.6493 82.2692L32.6722 82.2235C32.6722 82.2235 32.6322 82.1664 32.6037 82.1435C32.1984 82.035 31.8502 81.8579 31.5648 81.6179C30.1721 81.995 28.9563 82.5835 27.9232 83.3776C27.7919 83.5204 27.6492 83.6575 27.5179 83.7946C27.5179 83.9717 27.5008 84.1431 27.4665 84.3202C27.4665 84.3317 27.4665 84.3374 27.4665 84.3488C27.4665 84.4802 27.4551 84.6116 27.438 84.743L27.6492 84.8573C28.1743 86.2627 29.2874 87.9081 30.9883 89.7877C32.7007 91.6731 34.2361 92.9871 35.5946 93.7241C37.8264 94.9295 40.0582 95.5351 42.3015 95.5466C42.3015 95.5466 45.4751 95.6837 49.385 94.3125C54.7448 103.219 66.1321 108.972 75.9897 111.463C87.3428 114.337 98.3648 114.4 109.986 113.423C126.048 112.075 145.758 107.059 154.925 100.083C165.016 92.1872 165.502 87.7196 165.621 86.1313C165.656 84.6059 165.479 83.2862 165.125 82.1721L165.136 82.1778ZM46.6966 91.4331C43.3517 92.5929 40.0697 92.2958 36.839 90.5476C33.9964 89.0107 31.8502 86.8912 30.4289 84.1946L31.4849 83.5661C31.9187 83.9546 32.5523 84.703 33.4028 85.7999C34.7898 87.6739 36.2339 89.0164 37.718 89.822C40.6918 91.4331 43.7684 91.7302 46.9534 90.7304C50.1385 89.7306 52.8155 87.811 54.9845 84.9715C52.8041 88.1195 50.0414 90.279 46.6909 91.4274L46.6966 91.4331Z" fill="#6B6B6A"/>
<mask id="mask0_1_914" style="mask-type:luminance" maskUnits="userSpaceOnUse" x="167" y="68" width="28" height="28">
<path d="M180.856 68.929C182.734 68.929 184.481 69.2833 186.102 69.9803C187.717 70.6773 189.138 71.6371 190.354 72.8597C191.57 74.0823 192.535 75.4992 193.231 77.116C193.927 78.7385 194.281 80.4867 194.281 82.3664V95.8608H180.856C179.018 95.8608 177.277 95.5123 175.645 94.8096C174.007 94.1069 172.568 93.1413 171.33 91.9016C170.091 90.6618 169.121 89.2221 168.424 87.5825C167.728 85.9428 167.374 84.206 167.374 82.3664C167.374 80.5267 167.722 78.7385 168.424 77.116C169.121 75.4934 170.091 74.0766 171.33 72.8597C172.568 71.6371 174.007 70.6773 175.645 69.9803C177.283 69.2833 179.018 68.929 180.856 68.929ZM188.944 90.519V82.3606C188.944 81.2409 188.733 80.1896 188.316 79.2127C187.894 78.23 187.318 77.3731 186.576 76.6361C185.839 75.8991 184.977 75.3163 183.996 74.8993C183.014 74.4822 181.969 74.2708 180.85 74.2708C179.732 74.2708 178.67 74.4822 177.677 74.8993C176.678 75.3163 175.81 75.8991 175.068 76.6361C174.326 77.3788 173.75 78.2357 173.327 79.2127C172.911 80.1896 172.7 81.2466 172.7 82.3606C172.7 83.4747 172.911 84.5373 173.327 85.5371C173.75 86.5369 174.326 87.4053 175.068 88.148C175.805 88.885 176.678 89.4678 177.677 89.8848C178.676 90.3019 179.737 90.5133 180.85 90.5133H188.939L188.944 90.519Z" fill="white"/>
</mask>
<g mask="url(#mask0_1_914)">
<path d="M188.944 74.2651H172.705V74.6936H188.944V74.2651Z" fill="#38B6CC"/>
<path d="M188.944 74.6993H172.705V75.1678H188.944V74.6993Z" fill="#39B6CB"/>
<path d="M188.944 75.1678H172.705V75.6363H188.944V75.1678Z" fill="#3BB5CA"/>
<path d="M188.944 75.6363H172.705V76.1048H188.944V75.6363Z" fill="#3CB5C9"/>
<path d="M188.944 76.1048H172.705V76.5732H188.944V76.1048Z" fill="#3DB4C8"/>
<path d="M188.944 76.5732H172.705V77.0417H188.944V76.5732Z" fill="#3EB4C7"/>
<path d="M188.944 77.0417H172.705V77.5102H188.944V77.0417Z" fill="#3FB4C6"/>
<path d="M188.944 77.5102H172.705V77.9787H188.944V77.5102Z" fill="#40B3C5"/>
<path d="M188.944 77.9787H172.705V78.4471H188.944V77.9787Z" fill="#41B3C5"/>
<path d="M188.944 78.4471H172.705V78.9156H188.944V78.4471Z" fill="#42B3C4"/>
<path d="M188.944 78.9156H172.705V79.3841H188.944V78.9156Z" fill="#43B2C3"/>
<path d="M188.944 79.3841H172.705V79.8526H188.944V79.3841Z" fill="#44B2C2"/>
<path d="M188.944 79.8526H172.705V80.321H188.944V79.8526Z" fill="#45B2C1"/>
<path d="M188.944 80.321H172.705V80.7895H188.944V80.321Z" fill="#46B1C0"/>
<path d="M188.944 80.7895H172.705V81.258H188.944V80.7895Z" fill="#46B1BF"/>
<path d="M188.944 81.258H172.705V81.7265H188.944V81.258Z" fill="#47B1BE"/>
<path d="M188.944 81.7265H172.705V82.195H188.944V81.7265Z" fill="#48B0BD"/>
<path d="M188.944 82.195H172.705V82.6634H188.944V82.195Z" fill="#49B0BC"/>
<path d="M188.944 82.6634H172.705V83.1319H188.944V82.6634Z" fill="#4AAFBC"/>
<path d="M188.944 83.1319H172.705V83.6004H188.944V83.1319Z" fill="#4BAFBB"/>
<path d="M188.944 83.6004H172.705V83.8003H188.944V83.6004Z" fill="#4BAFBB"/>
<path d="M188.944 83.7946H172.705V83.9946H188.944V83.7946Z" fill="#4BAFBB"/>
<path d="M188.944 83.9946H172.705V84.1946H188.944V83.9946Z" fill="#4AAEBA"/>
<path d="M188.944 84.1888H172.705V84.3888H188.944V84.1888Z" fill="#4AADBA"/>
<path d="M188.944 84.3888H172.705V84.5888H188.944V84.3888Z" fill="#4AADBA"/>
<path d="M188.944 84.5888H172.705V84.7887H188.944V84.5888Z" fill="#4AACBA"/>
<path d="M188.944 84.783H172.705V84.983H188.944V84.783Z" fill="#4AACBA"/>
<path d="M188.944 84.983H172.705V85.1829H188.944V84.983Z" fill="#4AABBA"/>
<path d="M188.944 85.1772H172.705V85.3772H188.944V85.1772Z" fill="#49ABBA"/>
<path d="M188.944 85.3772H172.705V85.5771H188.944V85.3772Z" fill="#49AABA"/>
<path d="M188.944 85.5771H172.705V85.7771H188.944V85.5771Z" fill="#49AABA"/>
<path d="M188.944 85.7714H172.705V85.9713H188.944V85.7714Z" fill="#49A9BA"/>
<path d="M188.944 85.9713H172.705V86.1713H188.944V85.9713Z" fill="#49A9BA"/>
<path d="M188.944 86.1713H172.705V86.3713H188.944V86.1713Z" fill="#49A8B9"/>
<path d="M188.944 86.3655H172.705V86.5655H188.944V86.3655Z" fill="#49A8B9"/>
<path d="M188.944 86.5655H172.705V86.7655H188.944V86.5655Z" fill="#48A7B9"/>
<path d="M188.944 86.7598H172.705V86.9597H188.944V86.7598Z" fill="#48A6B9"/>
<path d="M188.944 86.9597H172.705V87.1597H188.944V86.9597Z" fill="#48A6B9"/>
<path d="M188.944 87.1597H172.705V87.3596H188.944V87.1597Z" fill="#48A5B9"/>
<path d="M188.944 87.3539H172.705V87.5539H188.944V87.3539Z" fill="#48A5B9"/>
<path d="M188.944 87.5539H172.705V87.7538H188.944V87.5539Z" fill="#48A4B9"/>
<path d="M188.944 87.7538H172.705V87.9538H188.944V87.7538Z" fill="#48A4B8"/>
<path d="M188.944 87.9481H172.705V88.148H188.944V87.9481Z" fill="#48A3B8"/>
<path d="M188.944 88.148H172.705V88.348H188.944V88.148Z" fill="#47A3B8"/>
<path d="M188.944 88.3423H172.705V88.5423H188.944V88.3423Z" fill="#47A2B8"/>
<path d="M188.944 88.5423H172.705V88.7422H188.944V88.5423Z" fill="#47A2B8"/>
<path d="M188.944 88.7422H172.705V88.9422H188.944V88.7422Z" fill="#47A1B8"/>
<path d="M188.944 88.9365H172.705V89.1364H188.944V88.9365Z" fill="#47A0B8"/>
<path d="M188.944 89.1364H172.705V89.3364H188.944V89.1364Z" fill="#47A0B8"/>
<path d="M188.944 89.3307H172.705V89.5306H188.944V89.3307Z" fill="#479FB7"/>
<path d="M188.944 89.5306H172.705V89.7306H188.944V89.5306Z" fill="#479FB7"/>
<path d="M188.944 89.7306H172.705V89.9306H188.944V89.7306Z" fill="#479EB7"/>
<path d="M188.944 89.9248H172.705V90.1248H188.944V89.9248Z" fill="#469EB7"/>
<path d="M188.944 90.1248H172.705V90.3248H188.944V90.1248Z" fill="#469DB7"/>
<path d="M188.944 90.3248H172.705V90.5247H188.944V90.3248Z" fill="#469CB7"/>
<path d="M194.275 68.929H167.368V69.0776H194.275V68.929Z" fill="#29BAD5"/>
<path d="M194.276 69.0776H167.369V69.5461H194.276V69.0776Z" fill="#29BAD5"/>
<path d="M194.276 69.5461H167.369V70.0145H194.276V69.5461Z" fill="#2AB9D5"/>
<path d="M194.276 70.0145H167.369V70.483H194.276V70.0145Z" fill="#2CB9D4"/>
<path d="M194.276 70.483H167.369V70.9515H194.276V70.483Z" fill="#2EB9D3"/>
<path d="M194.276 70.9515H167.369V71.42H194.276V70.9515Z" fill="#2FB8D2"/>
<path d="M194.276 71.42H167.369V71.8885H194.276V71.42Z" fill="#31B8D1"/>
<path d="M194.276 71.8885H167.369V72.3569H194.276V71.8885Z" fill="#32B8D0"/>
<path d="M194.276 72.3569H167.369V72.8254H194.276V72.3569Z" fill="#33B7CF"/>
<path d="M194.276 72.8254H167.369V73.2939H194.276V72.8254Z" fill="#35B7CF"/>
<path d="M194.276 73.2939H167.369V73.7624H194.276V73.2939Z" fill="#36B7CE"/>
<path d="M194.276 73.7624H167.369V74.2308H194.276V73.7624Z" fill="#37B6CD"/>
<path d="M194.276 74.2308H167.369V74.6993H194.276V74.2308Z" fill="#38B6CC"/>
<path d="M194.276 74.6993H167.369V75.1678H194.276V74.6993Z" fill="#39B6CB"/>
<path d="M194.276 75.1678H167.369V75.6363H194.276V75.1678Z" fill="#3BB5CA"/>
<path d="M194.276 75.6363H167.369V76.1048H194.276V75.6363Z" fill="#3CB5C9"/>
<path d="M194.276 76.1048H167.369V76.5732H194.276V76.1048Z" fill="#3DB4C8"/>
<path d="M194.276 76.5732H167.369V77.0417H194.276V76.5732Z" fill="#3EB4C7"/>
<path d="M194.276 77.0417H167.369V77.5102H194.276V77.0417Z" fill="#3FB4C6"/>
<path d="M194.276 77.5102H167.369V77.9787H194.276V77.5102Z" fill="#40B3C5"/>
<path d="M194.276 77.9787H167.369V78.4471H194.276V77.9787Z" fill="#41B3C5"/>
<path d="M194.276 78.4471H167.369V78.9156H194.276V78.4471Z" fill="#42B3C4"/>
<path d="M194.276 78.9156H167.369V79.3841H194.276V78.9156Z" fill="#43B2C3"/>
<path d="M194.276 79.3841H167.369V79.8526H194.276V79.3841Z" fill="#44B2C2"/>
<path d="M194.276 79.8526H167.369V80.321H194.276V79.8526Z" fill="#45B2C1"/>
<path d="M194.276 80.321H167.369V80.7895H194.276V80.321Z" fill="#46B1C0"/>
<path d="M194.276 80.7895H167.369V81.258H194.276V80.7895Z" fill="#46B1BF"/>
<path d="M194.276 81.258H167.369V81.7265H194.276V81.258Z" fill="#47B1BE"/>
<path d="M194.276 81.7265H167.369V82.195H194.276V81.7265Z" fill="#48B0BD"/>
<path d="M194.276 82.195H167.369V82.6634H194.276V82.195Z" fill="#49B0BC"/>
<path d="M194.276 82.6634H167.369V83.1319H194.276V82.6634Z" fill="#4AAFBC"/>
<path d="M194.276 83.1319H167.369V83.6004H194.276V83.1319Z" fill="#4BAFBB"/>
<path d="M194.276 83.6004H167.369V83.8003H194.276V83.6004Z" fill="#4BAFBB"/>
<path d="M194.276 83.7946H167.369V83.9946H194.276V83.7946Z" fill="#4BAFBB"/>
<path d="M194.276 83.9946H167.369V84.1946H194.276V83.9946Z" fill="#4AAEBA"/>
<path d="M194.276 84.1888H167.369V84.3888H194.276V84.1888Z" fill="#4AADBA"/>
<path d="M194.276 84.3888H167.369V84.5888H194.276V84.3888Z" fill="#4AADBA"/>
<path d="M194.276 84.5888H167.369V84.7887H194.276V84.5888Z" fill="#4AACBA"/>
<path d="M194.276 84.783H167.369V84.983H194.276V84.783Z" fill="#4AACBA"/>
<path d="M194.276 84.983H167.369V85.1829H194.276V84.983Z" fill="#4AABBA"/>
<path d="M194.276 85.1772H167.369V85.3772H194.276V85.1772Z" fill="#49ABBA"/>
<path d="M194.276 85.3772H167.369V85.5771H194.276V85.3772Z" fill="#49AABA"/>
<path d="M194.276 85.5771H167.369V85.7771H194.276V85.5771Z" fill="#49AABA"/>
<path d="M194.276 85.7714H167.369V85.9713H194.276V85.7714Z" fill="#49A9BA"/>
<path d="M194.276 85.9713H167.369V86.1713H194.276V85.9713Z" fill="#49A9BA"/>
<path d="M194.276 86.1713H167.369V86.3713H194.276V86.1713Z" fill="#49A8B9"/>
<path d="M194.276 86.3655H167.369V86.5655H194.276V86.3655Z" fill="#49A8B9"/>
<path d="M194.276 86.5655H167.369V86.7655H194.276V86.5655Z" fill="#48A7B9"/>
<path d="M194.276 86.7598H167.369V86.9597H194.276V86.7598Z" fill="#48A6B9"/>
<path d="M194.276 86.9597H167.369V87.1597H194.276V86.9597Z" fill="#48A6B9"/>
<path d="M194.276 87.1597H167.369V87.3596H194.276V87.1597Z" fill="#48A5B9"/>
<path d="M194.276 87.3539H167.369V87.5539H194.276V87.3539Z" fill="#48A5B9"/>
<path d="M194.276 87.5539H167.369V87.7538H194.276V87.5539Z" fill="#48A4B9"/>
<path d="M194.276 87.7538H167.369V87.9538H194.276V87.7538Z" fill="#48A4B8"/>
<path d="M194.276 87.9481H167.369V88.148H194.276V87.9481Z" fill="#48A3B8"/>
<path d="M194.276 88.148H167.369V88.348H194.276V88.148Z" fill="#47A3B8"/>
<path d="M194.276 88.3423H167.369V88.5423H194.276V88.3423Z" fill="#47A2B8"/>
<path d="M194.276 88.5423H167.369V88.7422H194.276V88.5423Z" fill="#47A2B8"/>
<path d="M194.276 88.7422H167.369V88.9422H194.276V88.7422Z" fill="#47A1B8"/>
<path d="M194.276 88.9365H167.369V89.1364H194.276V88.9365Z" fill="#47A0B8"/>
<path d="M194.276 89.1364H167.369V89.3364H194.276V89.1364Z" fill="#47A0B8"/>
<path d="M194.276 89.3307H167.369V89.5306H194.276V89.3307Z" fill="#479FB7"/>
<path d="M194.276 89.5306H167.369V89.7306H194.276V89.5306Z" fill="#479FB7"/>
<path d="M194.276 89.7306H167.369V89.9306H194.276V89.7306Z" fill="#479EB7"/>
<path d="M194.276 89.9248H167.369V90.1248H194.276V89.9248Z" fill="#469EB7"/>
<path d="M194.276 90.1248H167.369V90.3248H194.276V90.1248Z" fill="#469DB7"/>
<path d="M194.276 90.3248H167.369V90.5247H194.276V90.3248Z" fill="#469CB7"/>
<path d="M194.276 90.519H167.369V90.719H194.276V90.519Z" fill="#469CB7"/>
<path d="M194.276 90.719H167.369V90.9189H194.276V90.719Z" fill="#469BB6"/>
<path d="M194.276 90.9132H167.369V91.1132H194.276V90.9132Z" fill="#469BB6"/>
<path d="M194.276 91.1132H167.369V91.3131H194.276V91.1132Z" fill="#469AB6"/>
<path d="M194.276 91.3131H167.369V91.5131H194.276V91.3131Z" fill="#469AB6"/>
<path d="M194.276 91.5074H167.369V91.7073H194.276V91.5074Z" fill="#4699B6"/>
<path d="M194.276 91.7073H167.369V91.9073H194.276V91.7073Z" fill="#4699B6"/>
<path d="M194.276 91.9016H167.369V92.1015H194.276V91.9016Z" fill="#4698B5"/>
<path d="M194.276 92.1015H167.369V92.3015H194.276V92.1015Z" fill="#4697B5"/>
<path d="M194.276 92.3015H167.369V92.5015H194.276V92.3015Z" fill="#4697B5"/>
<path d="M194.276 92.4957H167.369V92.6957H194.276V92.4957Z" fill="#4696B5"/>
<path d="M194.276 92.6957H167.369V92.8957H194.276V92.6957Z" fill="#4696B5"/>
<path d="M194.276 92.8957H167.369V93.0956H194.276V92.8957Z" fill="#4695B5"/>
<path d="M194.276 93.0899H167.369V93.2899H194.276V93.0899Z" fill="#4695B4"/>
<path d="M194.276 93.2899H167.369V93.4898H194.276V93.2899Z" fill="#4694B4"/>
<path d="M194.276 93.4841H167.369V93.6841H194.276V93.4841Z" fill="#4693B4"/>
<path d="M194.276 93.6841H167.369V93.884H194.276V93.6841Z" fill="#4693B4"/>
<path d="M194.276 93.884H167.369V94.084H194.276V93.884Z" fill="#4692B4"/>
<path d="M194.276 94.0783H167.369V94.2782H194.276V94.0783Z" fill="#4692B4"/>
<path d="M194.276 94.2783H167.369V94.4782H194.276V94.2783Z" fill="#4591B3"/>
<path d="M194.276 94.4782H167.369V94.6782H194.276V94.4782Z" fill="#4590B3"/>
<path d="M194.276 94.6725H167.369V94.8724H194.276V94.6725Z" fill="#4590B3"/>
<path d="M194.276 94.8724H167.369V95.0724H194.276V94.8724Z" fill="#458FB3"/>
<path d="M194.276 95.0667H167.369V95.2666H194.276V95.0667Z" fill="#458FB3"/>
<path d="M194.276 95.2666H167.369V95.4666H194.276V95.2666Z" fill="#458EB2"/>
<path d="M194.276 95.4666H167.369V95.6665H194.276V95.4666Z" fill="#458EB2"/>
<path d="M194.276 95.6608H167.369V95.8608H194.276V95.6608Z" fill="#458DB2"/>
</g>
<mask id="mask1_1_914" style="mask-type:luminance" maskUnits="userSpaceOnUse" x="195" y="58" width="7" height="38">
<path d="M201.228 58.1369V95.8608H195.891V58.1369H201.228Z" fill="white"/>
</mask>
<g mask="url(#mask1_1_914)">
<path d="M201.228 58.1369H195.891V58.3483H201.228V58.1369Z" fill="#29BAD5"/>
<path d="M201.228 58.3426H195.891V58.9996H201.228V58.3426Z" fill="#29BAD5"/>
<path d="M201.228 58.9996H195.891V59.6566H201.228V58.9996Z" fill="#2AB9D5"/>
<path d="M201.228 59.6566H195.891V60.3136H201.228V59.6566Z" fill="#2CB9D4"/>
<path d="M201.228 60.3136H195.891V60.9706H201.228V60.3136Z" fill="#2EB9D3"/>
<path d="M201.228 60.9706H195.891V61.6277H201.228V60.9706Z" fill="#2FB8D2"/>
<path d="M201.228 61.6277H195.891V62.2847H201.228V61.6277Z" fill="#31B8D1"/>
<path d="M201.228 62.279H195.891V62.936H201.228V62.279Z" fill="#32B8D0"/>
<path d="M201.228 62.936H195.891V63.593H201.228V62.936Z" fill="#33B7CF"/>
<path d="M201.228 63.593H195.891V64.25H201.228V63.593Z" fill="#35B7CF"/>
<path d="M201.228 64.25H195.891V64.907H201.228V64.25Z" fill="#36B7CE"/>
<path d="M201.228 64.907H195.891V65.564H201.228V64.907Z" fill="#37B6CD"/>
<path d="M201.228 65.564H195.891V66.221H201.228V65.564Z" fill="#38B6CC"/>
<path d="M201.228 66.2153H195.891V66.8723H201.228V66.2153Z" fill="#39B6CB"/>
<path d="M201.228 66.8723H195.891V67.5293H201.228V66.8723Z" fill="#3BB5CA"/>
<path d="M201.228 67.5293H195.891V68.1863H201.228V67.5293Z" fill="#3CB5C9"/>
<path d="M201.228 68.1863H195.891V68.8434H201.228V68.1863Z" fill="#3DB4C8"/>
<path d="M201.228 68.8433H195.891V69.5004H201.228V68.8433Z" fill="#3EB4C7"/>
<path d="M201.228 69.5004H195.891V70.1574H201.228V69.5004Z" fill="#3FB4C6"/>
<path d="M201.228 70.1517H195.891V70.8087H201.228V70.1517Z" fill="#40B3C5"/>
<path d="M201.228 70.8087H195.891V71.4657H201.228V70.8087Z" fill="#41B3C5"/>
<path d="M201.228 71.4657H195.891V72.1227H201.228V71.4657Z" fill="#42B3C4"/>
<path d="M201.228 72.1227H195.891V72.7797H201.228V72.1227Z" fill="#43B2C3"/>
<path d="M201.228 72.7797H195.891V73.4367H201.228V72.7797Z" fill="#44B2C2"/>
<path d="M201.228 73.4367H195.891V74.0937H201.228V73.4367Z" fill="#45B2C1"/>
<path d="M201.228 74.088H195.891V74.745H201.228V74.088Z" fill="#46B1C0"/>
<path d="M201.228 74.745H195.891V75.402H201.228V74.745Z" fill="#46B1BF"/>
<path d="M201.228 75.402H195.891V76.059H201.228V75.402Z" fill="#47B1BE"/>
<path d="M201.228 76.0591H195.891V76.7161H201.228V76.0591Z" fill="#48B0BD"/>
<path d="M201.228 76.7161H195.891V77.3731H201.228V76.7161Z" fill="#49B0BC"/>
<path d="M201.228 77.3731H195.891V78.0301H201.228V77.3731Z" fill="#4AAFBC"/>
<path d="M201.228 78.0244H195.891V78.6814H201.228V78.0244Z" fill="#4BAFBB"/>
<path d="M201.228 78.6814H195.891V78.9556H201.228V78.6814Z" fill="#4BAFBB"/>
<path d="M201.228 78.9613H195.891V79.2355H201.228V78.9613Z" fill="#4BAFBB"/>
<path d="M201.228 79.2355H195.891V79.5098H201.228V79.2355Z" fill="#4AAEBA"/>
<path d="M201.228 79.5155H195.891V79.7897H201.228V79.5155Z" fill="#4AADBA"/>
<path d="M201.228 79.7897H195.891V80.064H201.228V79.7897Z" fill="#4AADBA"/>
<path d="M201.228 80.0697H195.891V80.3439H201.228V80.0697Z" fill="#4AACBA"/>
<path d="M201.228 80.3439H195.891V80.6181H201.228V80.3439Z" fill="#4AACBA"/>
<path d="M201.228 80.6238H195.891V80.8981H201.228V80.6238Z" fill="#4AABBA"/>
<path d="M201.228 80.8981H195.891V81.1723H201.228V80.8981Z" fill="#49ABBA"/>
<path d="M201.228 81.178H195.891V81.4523H201.228V81.178Z" fill="#49AABA"/>
<path d="M201.228 81.4523H195.891V81.7265H201.228V81.4523Z" fill="#49AABA"/>
<path d="M201.228 81.7322H195.891V82.0064H201.228V81.7322Z" fill="#49A9BA"/>
<path d="M201.228 82.0064H195.891V82.2807H201.228V82.0064Z" fill="#49A9BA"/>
<path d="M201.228 82.2864H195.891V82.5606H201.228V82.2864Z" fill="#49A8B9"/>
<path d="M201.228 82.5606H195.891V82.8348H201.228V82.5606Z" fill="#49A8B9"/>
<path d="M201.228 82.8405H195.891V83.1148H201.228V82.8405Z" fill="#48A7B9"/>
<path d="M201.228 83.1148H195.891V83.389H201.228V83.1148Z" fill="#48A6B9"/>
<path d="M201.228 83.3947H195.891V83.6689H201.228V83.3947Z" fill="#48A6B9"/>
<path d="M201.228 83.6689H195.891V83.9432H201.228V83.6689Z" fill="#48A5B9"/>
<path d="M201.228 83.9489H195.891V84.2231H201.228V83.9489Z" fill="#48A5B9"/>
<path d="M201.228 84.2231H195.891V84.4973H201.228V84.2231Z" fill="#48A4B9"/>
<path d="M201.228 84.5031H195.891V84.7773H201.228V84.5031Z" fill="#48A4B8"/>
<path d="M201.228 84.7773H195.891V85.0515H201.228V84.7773Z" fill="#48A3B8"/>
<path d="M201.228 85.0572H195.891V85.3315H201.228V85.0572Z" fill="#47A3B8"/>
<path d="M201.228 85.3315H195.891V85.6057H201.228V85.3315Z" fill="#47A2B8"/>
<path d="M201.228 85.6114H195.891V85.8856H201.228V85.6114Z" fill="#47A2B8"/>
<path d="M201.228 85.8857H195.891V86.1599H201.228V85.8857Z" fill="#47A1B8"/>
<path d="M201.228 86.1656H195.891V86.4398H201.228V86.1656Z" fill="#47A0B8"/>
<path d="M201.228 86.4398H195.891V86.714H201.228V86.4398Z" fill="#47A0B8"/>
<path d="M201.228 86.7198H195.891V86.994H201.228V86.7198Z" fill="#479FB7"/>
<path d="M201.228 86.994H195.891V87.2682H201.228V86.994Z" fill="#479FB7"/>
<path d="M201.228 87.2739H195.891V87.5482H201.228V87.2739Z" fill="#479EB7"/>
<path d="M201.228 87.5482H195.891V87.8224H201.228V87.5482Z" fill="#469EB7"/>
<path d="M201.228 87.8281H195.891V88.1023H201.228V87.8281Z" fill="#469DB7"/>
<path d="M201.228 88.1023H195.891V88.3766H201.228V88.1023Z" fill="#469CB7"/>
<path d="M201.228 88.3823H195.891V88.6565H201.228V88.3823Z" fill="#469CB7"/>
<path d="M201.228 88.6565H195.891V88.9308H201.228V88.6565Z" fill="#469BB6"/>
<path d="M201.228 88.9365H195.891V89.2107H201.228V88.9365Z" fill="#469BB6"/>
<path d="M201.228 89.2107H195.891V89.4849H201.228V89.2107Z" fill="#469AB6"/>
<path d="M201.228 89.4906H195.891V89.7649H201.228V89.4906Z" fill="#469AB6"/>
<path d="M201.228 89.7649H195.891V90.0391H201.228V89.7649Z" fill="#4699B6"/>
<path d="M201.228 90.0448H195.891V90.319H201.228V90.0448Z" fill="#4699B6"/>
<path d="M201.228 90.319H195.891V90.5933H201.228V90.319Z" fill="#4698B5"/>
<path d="M201.228 90.5933H195.891V90.8675H201.228V90.5933Z" fill="#4697B5"/>
<path d="M201.228 90.8732H195.891V91.1474H201.228V90.8732Z" fill="#4697B5"/>
<path d="M201.228 91.1474H195.891V91.4217H201.228V91.1474Z" fill="#4696B5"/>
<path d="M201.228 91.4274H195.891V91.7016H201.228V91.4274Z" fill="#4696B5"/>
<path d="M201.228 91.7016H195.891V91.9759H201.228V91.7016Z" fill="#4695B5"/>
<path d="M201.228 91.9816H195.891V92.2558H201.228V91.9816Z" fill="#4695B4"/>
<path d="M201.228 92.2558H195.891V92.53H201.228V92.2558Z" fill="#4694B4"/>
<path d="M201.228 92.5357H195.891V92.81H201.228V92.5357Z" fill="#4693B4"/>
<path d="M201.228 92.81H195.891V93.0842H201.228V92.81Z" fill="#4693B4"/>
<path d="M201.228 93.0899H195.891V93.3641H201.228V93.0899Z" fill="#4692B4"/>
<path d="M201.228 93.3642H195.891V93.6384H201.228V93.3642Z" fill="#4692B4"/>
<path d="M201.228 93.6441H195.891V93.9183H201.228V93.6441Z" fill="#4591B3"/>
<path d="M201.228 93.9183H195.891V94.1925H201.228V93.9183Z" fill="#4590B3"/>
<path d="M201.228 94.1983H195.891V94.4725H201.228V94.1983Z" fill="#4590B3"/>
<path d="M201.228 94.4725H195.891V94.7467H201.228V94.4725Z" fill="#458FB3"/>
<path d="M201.228 94.7524H195.891V95.0267H201.228V94.7524Z" fill="#458FB3"/>
<path d="M201.228 95.0267H195.891V95.3009H201.228V95.0267Z" fill="#458EB2"/>
<path d="M201.228 95.3066H195.891V95.5809H201.228V95.3066Z" fill="#458EB2"/>
<path d="M201.228 95.5808H195.891V95.8551H201.228V95.5808Z" fill="#458DB2"/>
</g>
<mask id="mask2_1_914" style="mask-type:luminance" maskUnits="userSpaceOnUse" x="231" y="58" width="28" height="38">
<path d="M258.689 58.1369V82.3664C258.689 84.206 258.341 85.9485 257.639 87.5825C256.943 89.2221 255.978 90.6618 254.762 91.9016C253.541 93.1413 252.114 94.1069 250.476 94.8096C248.838 95.5123 247.102 95.8608 245.264 95.8608C243.426 95.8608 241.691 95.5123 240.053 94.8096C238.415 94.1069 236.976 93.1413 235.738 91.9016C234.499 90.6618 233.529 89.2221 232.832 87.5825C232.13 85.9428 231.782 84.206 231.782 82.3664C231.782 80.5267 232.13 78.7385 232.832 77.116C233.529 75.4934 234.499 74.0766 235.738 72.8597C236.976 71.6371 238.415 70.6773 240.053 69.9803C241.691 69.2833 243.432 68.929 245.264 68.929H253.353V58.1369H258.684H258.689ZM245.264 90.5247C246.383 90.5247 247.428 90.3133 248.409 89.8963C249.386 89.4792 250.247 88.8965 250.989 88.1595C251.726 87.4168 252.308 86.5484 252.725 85.5486C253.141 84.5488 253.353 83.4918 253.353 82.3721V74.2765H245.264C244.146 74.2765 243.09 74.4879 242.091 74.905C241.092 75.3221 240.224 75.9048 239.482 76.6418C238.74 77.3845 238.164 78.2415 237.747 79.2184C237.325 80.1954 237.119 81.2523 237.119 82.3664C237.119 83.4804 237.33 84.5431 237.747 85.5429C238.164 86.5427 238.746 87.4111 239.482 88.1538C240.219 88.8908 241.092 89.4735 242.091 89.8906C243.09 90.3076 244.146 90.519 245.264 90.519V90.5247Z" fill="white"/>
</mask>
<g mask="url(#mask2_1_914)">
<path d="M253.358 74.2651H237.119V74.745H253.358V74.2651Z" fill="#46B1C0"/>
<path d="M253.358 74.745H237.119V75.402H253.358V74.745Z" fill="#46B1BF"/>
<path d="M253.358 75.402H237.119V76.059H253.358V75.402Z" fill="#47B1BE"/>
<path d="M253.358 76.0591H237.119V76.7161H253.358V76.0591Z" fill="#48B0BD"/>
<path d="M253.358 76.7161H237.119V77.3731H253.358V76.7161Z" fill="#49B0BC"/>
<path d="M253.358 77.3731H237.119V78.0301H253.358V77.3731Z" fill="#4AAFBC"/>
<path d="M253.358 78.0244H237.119V78.6814H253.358V78.0244Z" fill="#4BAFBB"/>
<path d="M253.358 78.6814H237.119V78.9556H253.358V78.6814Z" fill="#4BAFBB"/>
<path d="M253.358 78.9613H237.119V79.2356H253.358V78.9613Z" fill="#4BAFBB"/>
<path d="M253.358 79.2355H237.119V79.5098H253.358V79.2355Z" fill="#4AAEBA"/>
<path d="M253.358 79.5155H237.119V79.7897H253.358V79.5155Z" fill="#4AADBA"/>
<path d="M253.358 79.7897H237.119V80.064H253.358V79.7897Z" fill="#4AADBA"/>
<path d="M253.358 80.0697H237.119V80.3439H253.358V80.0697Z" fill="#4AACBA"/>
<path d="M253.358 80.3439H237.119V80.6181H253.358V80.3439Z" fill="#4AACBA"/>
<path d="M253.358 80.6238H237.119V80.8981H253.358V80.6238Z" fill="#4AABBA"/>
<path d="M253.358 80.8981H237.119V81.1723H253.358V80.8981Z" fill="#49ABBA"/>
<path d="M253.358 81.178H237.119V81.4523H253.358V81.178Z" fill="#49AABA"/>
<path d="M253.358 81.4523H237.119V81.7265H253.358V81.4523Z" fill="#49AABA"/>
<path d="M253.358 81.7322H237.119V82.0064H253.358V81.7322Z" fill="#49A9BA"/>
<path d="M253.358 82.0064H237.119V82.2807H253.358V82.0064Z" fill="#49A9BA"/>
<path d="M253.358 82.2864H237.119V82.5606H253.358V82.2864Z" fill="#49A8B9"/>
<path d="M253.358 82.5606H237.119V82.8348H253.358V82.5606Z" fill="#49A8B9"/>
<path d="M253.358 82.8405H237.119V83.1148H253.358V82.8405Z" fill="#48A7B9"/>
<path d="M253.358 83.1148H237.119V83.389H253.358V83.1148Z" fill="#48A6B9"/>
<path d="M253.358 83.3947H237.119V83.6689H253.358V83.3947Z" fill="#48A6B9"/>
<path d="M253.358 83.6689H237.119V83.9432H253.358V83.6689Z" fill="#48A5B9"/>
<path d="M253.358 83.9489H237.119V84.2231H253.358V83.9489Z" fill="#48A5B9"/>
<path d="M253.358 84.2231H237.119V84.4973H253.358V84.2231Z" fill="#48A4B9"/>
<path d="M253.358 84.5031H237.119V84.7773H253.358V84.5031Z" fill="#48A4B8"/>
<path d="M253.358 84.7773H237.119V85.0515H253.358V84.7773Z" fill="#48A3B8"/>
<path d="M253.358 85.0572H237.119V85.3315H253.358V85.0572Z" fill="#47A3B8"/>
<path d="M253.358 85.3315H237.119V85.6057H253.358V85.3315Z" fill="#47A2B8"/>
<path d="M253.358 85.6114H237.119V85.8856H253.358V85.6114Z" fill="#47A2B8"/>
<path d="M253.358 85.8857H237.119V86.1599H253.358V85.8857Z" fill="#47A1B8"/>
<path d="M253.358 86.1656H237.119V86.4398H253.358V86.1656Z" fill="#47A0B8"/>
<path d="M253.358 86.4398H237.119V86.714H253.358V86.4398Z" fill="#47A0B8"/>
<path d="M253.358 86.7198H237.119V86.994H253.358V86.7198Z" fill="#479FB7"/>
<path d="M253.358 86.994H237.119V87.2682H253.358V86.994Z" fill="#479FB7"/>
<path d="M253.358 87.2739H237.119V87.5482H253.358V87.2739Z" fill="#479EB7"/>
<path d="M253.358 87.5482H237.119V87.8224H253.358V87.5482Z" fill="#469EB7"/>
<path d="M253.358 87.8281H237.119V88.1023H253.358V87.8281Z" fill="#469DB7"/>
<path d="M253.358 88.1023H237.119V88.3766H253.358V88.1023Z" fill="#469CB7"/>
<path d="M253.358 88.3823H237.119V88.6565H253.358V88.3823Z" fill="#469CB7"/>
<path d="M253.358 88.6565H237.119V88.9308H253.358V88.6565Z" fill="#469BB6"/>
<path d="M253.358 88.9365H237.119V89.2107H253.358V88.9365Z" fill="#469BB6"/>
<path d="M253.358 89.2107H237.119V89.4849H253.358V89.2107Z" fill="#469AB6"/>
<path d="M253.358 89.4906H237.119V89.7649H253.358V89.4906Z" fill="#469AB6"/>
<path d="M253.358 89.7649H237.119V90.0391H253.358V89.7649Z" fill="#4699B6"/>
<path d="M253.358 90.0448H237.119V90.319H253.358V90.0448Z" fill="#4699B6"/>
<path d="M253.358 90.319H237.119V90.519H253.358V90.319Z" fill="#4698B5"/>
<path d="M258.695 58.1369H231.788V58.3483H258.695V58.1369Z" fill="#29BAD5"/>
<path d="M258.695 58.3426H231.788V58.9996H258.695V58.3426Z" fill="#29BAD5"/>
<path d="M258.695 58.9996H231.788V59.6566H258.695V58.9996Z" fill="#2AB9D5"/>
<path d="M258.695 59.6566H231.788V60.3136H258.695V59.6566Z" fill="#2CB9D4"/>
<path d="M258.695 60.3136H231.788V60.9706H258.695V60.3136Z" fill="#2EB9D3"/>
<path d="M258.695 60.9706H231.788V61.6277H258.695V60.9706Z" fill="#2FB8D2"/>
<path d="M258.695 61.6277H231.788V62.2847H258.695V61.6277Z" fill="#31B8D1"/>
<path d="M258.695 62.279H231.788V62.936H258.695V62.279Z" fill="#32B8D0"/>
<path d="M258.695 62.936H231.788V63.593H258.695V62.936Z" fill="#33B7CF"/>
<path d="M258.695 63.593H231.788V64.25H258.695V63.593Z" fill="#35B7CF"/>
<path d="M258.695 64.25H231.788V64.907H258.695V64.25Z" fill="#36B7CE"/>
<path d="M258.695 64.907H231.788V65.564H258.695V64.907Z" fill="#37B6CD"/>
<path d="M258.695 65.564H231.788V66.221H258.695V65.564Z" fill="#38B6CC"/>
<path d="M258.695 66.2153H231.788V66.8723H258.695V66.2153Z" fill="#39B6CB"/>
<path d="M258.695 66.8723H231.788V67.5293H258.695V66.8723Z" fill="#3BB5CA"/>
<path d="M258.695 67.5293H231.788V68.1863H258.695V67.5293Z" fill="#3CB5C9"/>
<path d="M258.695 68.1863H231.788V68.8434H258.695V68.1863Z" fill="#3DB4C8"/>
<path d="M258.695 68.8434H231.788V69.5004H258.695V68.8434Z" fill="#3EB4C7"/>
<path d="M258.695 69.5004H231.788V70.1574H258.695V69.5004Z" fill="#3FB4C6"/>
<path d="M258.695 70.1517H231.788V70.8087H258.695V70.1517Z" fill="#40B3C5"/>
<path d="M258.695 70.8087H231.788V71.4657H258.695V70.8087Z" fill="#41B3C5"/>
<path d="M258.695 71.4657H231.788V72.1227H258.695V71.4657Z" fill="#42B3C4"/>
<path d="M258.695 72.1227H231.788V72.7797H258.695V72.1227Z" fill="#43B2C3"/>
<path d="M258.695 72.7797H231.788V73.4367H258.695V72.7797Z" fill="#44B2C2"/>
<path d="M258.695 73.4367H231.788V74.0937H258.695V73.4367Z" fill="#45B2C1"/>
<path d="M258.695 74.088H231.788V74.745H258.695V74.088Z" fill="#46B1C0"/>
<path d="M258.695 74.745H231.788V75.402H258.695V74.745Z" fill="#46B1BF"/>
<path d="M258.695 75.402H231.788V76.059H258.695V75.402Z" fill="#47B1BE"/>
<path d="M258.695 76.0591H231.788V76.7161H258.695V76.0591Z" fill="#48B0BD"/>
<path d="M258.695 76.7161H231.788V77.3731H258.695V76.7161Z" fill="#49B0BC"/>
<path d="M258.695 77.3731H231.788V78.0301H258.695V77.3731Z" fill="#4AAFBC"/>
<path d="M258.695 78.0244H231.788V78.6814H258.695V78.0244Z" fill="#4BAFBB"/>
<path d="M258.695 78.6814H231.788V78.9556H258.695V78.6814Z" fill="#4BAFBB"/>
<path d="M258.695 78.9613H231.788V79.2356H258.695V78.9613Z" fill="#4BAFBB"/>
<path d="M258.695 79.2355H231.788V79.5098H258.695V79.2355Z" fill="#4AAEBA"/>
<path d="M258.695 79.5155H231.788V79.7897H258.695V79.5155Z" fill="#4AADBA"/>
<path d="M258.695 79.7897H231.788V80.064H258.695V79.7897Z" fill="#4AADBA"/>
<path d="M258.695 80.0697H231.788V80.3439H258.695V80.0697Z" fill="#4AACBA"/>
<path d="M258.695 80.3439H231.788V80.6181H258.695V80.3439Z" fill="#4AACBA"/>
<path d="M258.695 80.6238H231.788V80.8981H258.695V80.6238Z" fill="#4AABBA"/>
<path d="M258.695 80.8981H231.788V81.1723H258.695V80.8981Z" fill="#49ABBA"/>
<path d="M258.695 81.178H231.788V81.4523H258.695V81.178Z" fill="#49AABA"/>
<path d="M258.695 81.4523H231.788V81.7265H258.695V81.4523Z" fill="#49AABA"/>
<path d="M258.695 81.7322H231.788V82.0064H258.695V81.7322Z" fill="#49A9BA"/>
<path d="M258.695 82.0064H231.788V82.2807H258.695V82.0064Z" fill="#49A9BA"/>
<path d="M258.695 82.2864H231.788V82.5606H258.695V82.2864Z" fill="#49A8B9"/>
<path d="M258.695 82.5606H231.788V82.8348H258.695V82.5606Z" fill="#49A8B9"/>
<path d="M258.695 82.8405H231.788V83.1148H258.695V82.8405Z" fill="#48A7B9"/>
<path d="M258.695 83.1148H231.788V83.389H258.695V83.1148Z" fill="#48A6B9"/>
<path d="M258.695 83.3947H231.788V83.6689H258.695V83.3947Z" fill="#48A6B9"/>
<path d="M258.695 83.6689H231.788V83.9432H258.695V83.6689Z" fill="#48A5B9"/>
<path d="M258.695 83.9489H231.788V84.2231H258.695V83.9489Z" fill="#48A5B9"/>
<path d="M258.695 84.2231H231.788V84.4973H258.695V84.2231Z" fill="#48A4B9"/>
<path d="M258.695 84.5031H231.788V84.7773H258.695V84.5031Z" fill="#48A4B8"/>
<path d="M258.695 84.7773H231.788V85.0515H258.695V84.7773Z" fill="#48A3B8"/>
<path d="M258.695 85.0572H231.788V85.3315H258.695V85.0572Z" fill="#47A3B8"/>
<path d="M258.695 85.3315H231.788V85.6057H258.695V85.3315Z" fill="#47A2B8"/>
<path d="M258.695 85.6114H231.788V85.8856H258.695V85.6114Z" fill="#47A2B8"/>
<path d="M258.695 85.8857H231.788V86.1599H258.695V85.8857Z" fill="#47A1B8"/>
<path d="M258.695 86.1656H231.788V86.4398H258.695V86.1656Z" fill="#47A0B8"/>
<path d="M258.695 86.4398H231.788V86.714H258.695V86.4398Z" fill="#47A0B8"/>
<path d="M258.695 86.7198H231.788V86.994H258.695V86.7198Z" fill="#479FB7"/>
<path d="M258.695 86.994H231.788V87.2682H258.695V86.994Z" fill="#479FB7"/>
<path d="M258.695 87.2739H231.788V87.5482H258.695V87.2739Z" fill="#479EB7"/>
<path d="M258.695 87.5482H231.788V87.8224H258.695V87.5482Z" fill="#469EB7"/>
<path d="M258.695 87.8281H231.788V88.1023H258.695V87.8281Z" fill="#469DB7"/>
<path d="M258.695 88.1023H231.788V88.3766H258.695V88.1023Z" fill="#469CB7"/>
<path d="M258.695 88.3823H231.788V88.6565H258.695V88.3823Z" fill="#469CB7"/>
<path d="M258.695 88.6565H231.788V88.9308H258.695V88.6565Z" fill="#469BB6"/>
<path d="M258.695 88.9365H231.788V89.2107H258.695V88.9365Z" fill="#469BB6"/>
<path d="M258.695 89.2107H231.788V89.4849H258.695V89.2107Z" fill="#469AB6"/>
<path d="M258.695 89.4906H231.788V89.7649H258.695V89.4906Z" fill="#469AB6"/>
<path d="M258.695 89.7649H231.788V90.0391H258.695V89.7649Z" fill="#4699B6"/>
<path d="M258.695 90.0448H231.788V90.319H258.695V90.0448Z" fill="#4699B6"/>
<path d="M258.695 90.319H231.788V90.5933H258.695V90.319Z" fill="#4698B5"/>
<path d="M258.695 90.5933H231.788V90.8675H258.695V90.5933Z" fill="#4697B5"/>
<path d="M258.695 90.8732H231.788V91.1474H258.695V90.8732Z" fill="#4697B5"/>
<path d="M258.695 91.1474H231.788V91.4217H258.695V91.1474Z" fill="#4696B5"/>
<path d="M258.695 91.4274H231.788V91.7016H258.695V91.4274Z" fill="#4696B5"/>
<path d="M258.695 91.7016H231.788V91.9759H258.695V91.7016Z" fill="#4695B5"/>
<path d="M258.695 91.9816H231.788V92.2558H258.695V91.9816Z" fill="#4695B4"/>
<path d="M258.695 92.2558H231.788V92.53H258.695V92.2558Z" fill="#4694B4"/>
<path d="M258.695 92.5357H231.788V92.81H258.695V92.5357Z" fill="#4693B4"/>
<path d="M258.695 92.81H231.788V93.0842H258.695V92.81Z" fill="#4693B4"/>
<path d="M258.695 93.0899H231.788V93.3641H258.695V93.0899Z" fill="#4692B4"/>
<path d="M258.695 93.3642H231.788V93.6384H258.695V93.3642Z" fill="#4692B4"/>
<path d="M258.695 93.6441H231.788V93.9183H258.695V93.6441Z" fill="#4591B3"/>
<path d="M258.695 93.9183H231.788V94.1925H258.695V93.9183Z" fill="#4590B3"/>
<path d="M258.695 94.1983H231.788V94.4725H258.695V94.1983Z" fill="#4590B3"/>
<path d="M258.695 94.4725H231.788V94.7467H258.695V94.4725Z" fill="#458FB3"/>
<path d="M258.695 94.7524H231.788V95.0267H258.695V94.7524Z" fill="#458FB3"/>
<path d="M258.695 95.0267H231.788V95.3009H258.695V95.0267Z" fill="#458EB2"/>
<path d="M258.695 95.3066H231.788V95.5809H258.695V95.3066Z" fill="#458EB2"/>
<path d="M258.695 95.5808H231.788V95.8551H258.695V95.5808Z" fill="#458DB2"/>
</g>
<path d="M253.986 45.4937C248.815 45.528 225.366 46.8877 224.847 68.7519H224.836V82.3606C224.836 83.4804 224.624 84.5373 224.208 85.5371C223.785 86.5369 223.209 87.4053 222.467 88.148C221.731 88.885 220.857 89.4678 219.858 89.8848C218.859 90.3019 217.798 90.5133 216.679 90.5133C215.56 90.5133 214.51 90.3019 213.534 89.8848C212.552 89.4678 211.696 88.885 210.954 88.148C210.212 87.4053 209.635 86.5369 209.213 85.5371C208.796 84.5373 208.585 83.4804 208.585 82.3606V68.9233H203.254V82.3606C203.254 84.2003 203.602 85.9428 204.304 87.5767C205.001 89.2164 205.965 90.6561 207.181 91.8959C208.397 93.1356 209.824 94.1011 211.468 94.8039C213.106 95.5066 214.841 95.8551 216.679 95.8551C218.517 95.8551 220.304 95.5066 221.925 94.8039C223.54 94.1011 224.973 93.1356 226.206 91.8959C227.444 90.6561 228.415 89.2164 229.111 87.5767C229.807 85.9371 230.161 84.2003 230.161 82.3606V68.9233H230.155C230.23 65.3926 231.851 50.2756 254.14 50.2756C254.14 50.2756 261.384 50.0414 266.344 50.8355C266.681 46.545 267.36 46.545 267.36 46.545C267.36 46.545 261.269 44.9624 253.98 45.4937H253.986Z" fill="#6B6B6A"/>
<path d="M10.836 16.2307L9.70787 14.911C9.12789 14.2325 8.10819 14.1531 7.43031 14.7336L6.18556 15.7996C5.50769 16.3801 5.42833 17.4007 6.00831 18.0792L7.13639 19.3989C7.71638 20.0774 8.73608 20.1568 9.41395 19.5763L10.6587 18.5104C11.3366 17.9298 11.4159 16.9092 10.836 16.2307Z" fill="#6B6B6A"/>
<path d="M11.727 18.9914C12.3596 18.455 11.8714 16.8374 10.6366 15.3785C9.40173 13.9196 7.88788 13.1717 7.25528 13.7081C6.62268 14.2445 7.1109 15.862 8.34573 17.321C9.58057 18.7799 11.0944 19.5278 11.727 18.9914Z" fill="#7E7E7D"/>
<path d="M11.2161 18.3106C11.4672 18.4877 11.804 18.4592 12.038 18.2649L13.4193 17.1051C14.6865 16.0425 14.8007 14.0715 13.6762 12.7289C12.5517 11.3863 10.5939 11.1521 9.32675 12.2147L7.91118 13.403C7.66574 13.6087 7.59154 13.9515 7.73424 14.2371C8.17375 15.1113 9.26967 16.9566 11.2104 18.3106H11.2161Z" fill="#6B6B6A"/>
<path d="M13.5471 13.986C13.6921 13.8644 13.5734 13.4835 13.2819 13.1352C12.9904 12.7869 12.6365 12.6031 12.4915 12.7246C12.3465 12.8462 12.4653 13.2271 12.7568 13.5754C13.0483 13.9237 13.4021 14.1076 13.5471 13.986Z" fill="white"/>
<path d="M7.43149 13.8258C7.54565 14.3686 7.74543 14.8884 7.99087 15.3798C8.23631 15.8711 8.52741 16.3396 8.88701 16.7509C9.2352 17.168 9.62904 17.5565 10.0743 17.8764C10.5081 18.2135 10.9932 18.4763 11.4841 18.7334C10.9704 18.5277 10.4624 18.2935 10.0058 17.9678C9.53772 17.6593 9.13816 17.2651 8.77285 16.8423C8.06507 15.9797 7.56277 14.9342 7.42578 13.8258H7.43149Z" fill="white"/>
<path d="M32.1301 83.7146L28.9108 85.2858C28.3115 85.5771 27.6037 85.2972 27.324 84.6573L24.1162 77.2474C23.9107 76.7675 23.9906 76.1962 24.3388 75.8248C25.3947 74.6936 26.7361 74.088 28.3115 73.9223C28.8195 73.8709 29.3047 74.168 29.5159 74.665L32.7066 82.035C32.9806 82.6749 32.7237 83.429 32.1244 83.7204L32.1301 83.7146Z" fill="white"/>
<path d="M28.4197 85.5428C28.2713 85.5428 28.1229 85.5143 27.9802 85.4629C27.632 85.3315 27.358 85.0687 27.2039 84.7144L23.9961 77.3045C23.762 76.7675 23.8648 76.1333 24.2472 75.7277C25.2918 74.6079 26.6617 73.9566 28.3113 73.7795C28.8763 73.7224 29.4243 74.0537 29.664 74.6079L32.8605 81.9779C33.1687 82.6863 32.8719 83.5261 32.2098 83.846L28.9905 85.4172C28.8136 85.5029 28.6252 85.5486 28.4311 85.5486L28.4197 85.5428ZM28.4368 74.0594C28.4026 74.0594 28.3683 74.0594 28.3341 74.0594C26.753 74.2251 25.4459 74.8536 24.4527 75.9219C24.1445 76.2476 24.0646 76.756 24.2529 77.1902L27.4608 84.6002C27.5806 84.8801 27.8033 85.0915 28.0772 85.1943C28.3341 85.2915 28.6081 85.2743 28.8535 85.1544L32.0728 83.5832C32.6036 83.3262 32.8319 82.652 32.5865 82.0864L29.3901 74.7164C29.2131 74.3108 28.8364 74.0537 28.4311 74.0537L28.4368 74.0594Z" fill="#6B6B6A"/>
<path d="M30.6565 84.8178C32.1251 84.163 33.1119 83.1742 32.8605 82.6093C32.6091 82.0444 31.2147 82.1172 29.7461 82.772C28.2775 83.4268 27.2907 84.4155 27.5421 84.9804C27.7935 85.5454 29.1879 85.4725 30.6565 84.8178Z" fill="#6B6B6A"/>
<path d="M63.2038 67.118L59.7676 68.1349C59.1283 68.3234 58.4776 67.9292 58.3064 67.2551L56.3542 59.4224C56.2287 58.9139 56.4056 58.3654 56.8109 58.0569C58.0381 57.1143 59.4594 56.7372 61.0405 56.8286C61.5485 56.8572 61.9766 57.2342 62.1078 57.7599L64.0485 65.5526C64.2141 66.2267 63.8373 66.9294 63.1981 67.118H63.2038Z" fill="white"/>
<path d="M59.4422 68.3292C59.2253 68.3292 59.0084 68.272 58.8143 68.1578C58.4947 67.9749 58.2607 67.6664 58.1693 67.2894L56.2172 59.4567C56.0745 58.8911 56.28 58.2797 56.7252 57.9427C57.941 57.0114 59.3965 56.5887 61.0518 56.6858C61.6226 56.7201 62.1021 57.1371 62.2505 57.7256L64.1912 65.5183C64.3796 66.2667 63.9515 67.0437 63.2437 67.2551L59.8075 68.272C59.6876 68.3063 59.5621 68.3234 59.4422 68.3234V68.3292ZM60.5895 56.96C59.1853 56.96 57.9467 57.3656 56.8965 58.1712C56.5426 58.4454 56.377 58.931 56.4912 59.3881L58.4433 67.2208C58.5175 67.5179 58.7002 67.7636 58.9513 67.9064C59.1853 68.0435 59.4593 68.0721 59.7219 67.9978L63.1581 66.9809C63.7231 66.8152 64.0599 66.1867 63.9115 65.5869L61.9708 57.7941C61.8566 57.3314 61.4799 57 61.0347 56.9714C60.8863 56.96 60.7379 56.96 60.5895 56.96Z" fill="#6B6B6A"/>
<path d="M61.5697 67.9572C63.1259 67.5529 64.2616 66.7399 64.1064 66.1413C63.9512 65.5427 62.5638 65.3852 61.0076 65.7894C59.4515 66.1937 58.3158 67.0067 58.471 67.6053C58.6262 68.2039 60.0136 68.3614 61.5697 67.9572Z" fill="#6B6B6A"/>
<path d="M62.9128 61.2677C60.8237 61.4163 58.923 61.9476 57.1878 62.7988L56.6455 60.765C58.4778 59.7537 60.3899 59.2567 62.3706 59.2338L62.9128 61.2677Z" fill="#6B6B6A"/>
<path d="M30.9941 78.0929C28.9506 78.5557 27.1526 79.3669 25.5601 80.4639L24.7153 78.5328C26.3763 77.2588 28.1915 76.4818 30.1493 76.1562L30.9941 78.0872V78.0929Z" fill="#6B6B6A"/>
<path d="M285.304 58.6845C286.108 55.7872 283.039 52.4043 278.449 51.1286C273.86 49.8529 269.487 51.1675 268.684 54.0648C267.88 56.9621 270.949 60.3451 275.538 61.6208C280.128 62.8964 284.5 61.5818 285.304 58.6845Z" fill="#6B6B6A"/>
<path d="M274.358 52.938L274.718 53.595L269.346 56.5601C269.346 56.5601 268.753 55.6574 268.913 55.2346C269.626 54.9376 274.358 52.9322 274.358 52.9322V52.938Z" fill="white"/>
<path d="M280.346 55.1946L280.768 55.1147L284.016 60.0222C284.016 60.0222 283.856 60.5364 283.491 60.4793C283.183 59.9708 280.346 55.2004 280.346 55.2004V55.1946Z" fill="white"/>
<path d="M281.927 53.8292C281.927 53.8292 281.835 54.6748 281.127 54.8747C281.824 55.686 284.592 59.3767 284.592 59.3767C284.592 59.3767 285.311 58.4511 285.077 57.5427C284.33 56.8115 281.927 53.8235 281.927 53.8235V53.8292Z" fill="white"/>
<path d="M281.682 54.2227C282.034 52.9519 280.69 51.4687 278.679 50.9097C276.669 50.3508 274.753 50.9279 274.4 52.1988C274.048 53.4696 275.392 54.9529 277.403 55.5118C279.413 56.0707 281.329 55.4936 281.682 54.2227Z" fill="#797979"/>
<path d="M280.168 54.8061C278.439 55.2632 276.881 54.829 275.477 53.5435C275.026 53.1265 274.854 52.4809 275.014 51.8867L276.595 45.9279C276.835 45.0252 277.76 44.4882 278.656 44.7282L281.715 45.5451C282.617 45.7851 283.154 46.7106 282.914 47.6076L281.316 53.6178C281.162 54.1891 280.728 54.6576 280.157 54.8061H280.168Z" fill="#E2E1E1"/>
<path d="M278.873 55.0518C277.64 55.0518 276.487 54.5662 275.431 53.595C274.963 53.1665 274.78 52.5038 274.946 51.8696L276.527 45.9108C276.778 44.9738 277.743 44.4139 278.679 44.6596L281.738 45.4766C282.189 45.5966 282.571 45.8879 282.805 46.2936C283.039 46.6992 283.102 47.1734 282.982 47.6304L281.39 53.6407C281.224 54.252 280.762 54.7262 280.18 54.8804C279.735 55.0004 279.295 55.0575 278.867 55.0575L278.873 55.0518ZM278.228 44.7453C277.514 44.7453 276.858 45.2252 276.664 45.9451L275.083 51.9039C274.929 52.4809 275.105 53.1036 275.522 53.4864C276.903 54.7604 278.462 55.1775 280.146 54.7376C280.676 54.5948 281.104 54.1606 281.253 53.6007L282.845 47.5905C282.954 47.1734 282.897 46.7392 282.68 46.3621C282.463 45.9908 282.115 45.7223 281.698 45.6137L278.639 44.7967C278.502 44.7624 278.359 44.7396 278.222 44.7396L278.228 44.7453Z" fill="#6B6B6A"/>
<path d="M264.312 52.2295C263.661 52.1038 263.456 50.2985 263.867 48.196C264.272 46.0936 265.134 44.4939 265.784 44.6196L267.211 44.8481L265.739 52.4581L264.312 52.2295Z" fill="#6B6B6A"/>
<path d="M265.796 52.538L264.3 52.3038C263.952 52.2352 263.712 51.761 263.621 50.9669C263.535 50.1956 263.598 49.213 263.792 48.1903C264.197 46.105 265.019 44.5511 265.71 44.5511C265.739 44.5511 265.767 44.5511 265.796 44.5568L267.297 44.791L267.285 44.8653L265.801 52.5437L265.796 52.538ZM264.323 52.161L265.682 52.3781L267.126 44.911L265.773 44.6939C265.225 44.5911 264.369 45.9793 263.935 48.2132C263.741 49.2244 263.678 50.1956 263.764 50.9498C263.844 51.6639 264.049 52.1095 264.329 52.161H264.323Z" fill="#6B6B6A"/>
<path d="M267.636 48.8671C268.042 46.7667 267.841 44.9616 267.188 44.8352C266.535 44.7089 265.677 46.3092 265.271 48.4096C264.865 50.51 265.066 52.3151 265.719 52.4414C266.372 52.5678 267.23 50.9675 267.636 48.8671Z" fill="#E0E0E0"/>
<path d="M265.808 52.5323C265.779 52.5323 265.751 52.5323 265.722 52.5266C265.374 52.4581 265.134 51.9839 265.043 51.1897C264.957 50.4185 265.02 49.4358 265.214 48.4131C265.414 47.3905 265.722 46.4535 266.087 45.768C266.464 45.0652 266.869 44.711 267.218 44.7796C267.566 44.8481 267.805 45.3223 267.897 46.1165C267.982 46.8877 267.92 47.8704 267.72 48.8931C267.315 50.9783 266.493 52.5323 265.802 52.5323H265.808ZM267.132 44.911C266.864 44.911 266.533 45.2424 266.219 45.8308C265.859 46.4992 265.557 47.4248 265.362 48.436C265.168 49.4472 265.106 50.4185 265.191 51.1726C265.271 51.8924 265.477 52.3324 265.756 52.3838C266.299 52.4866 267.16 51.0983 267.589 48.8645C267.783 47.8533 267.845 46.882 267.76 46.1279C267.68 45.408 267.474 44.9681 267.195 44.9167C267.178 44.9167 267.155 44.9167 267.138 44.9167L267.132 44.911Z" fill="#6B6B6A"/>
<path d="M266.019 49.7957C266.03 50.2985 266.378 50.7098 266.835 50.8184L274.678 52.6752C275.186 52.7951 275.739 52.5952 276.11 52.1324C276.772 51.3211 277.103 50.4756 276.801 49.5558C276.641 49.0702 276.264 48.7445 275.825 48.636L267.754 46.7278C267.286 46.6192 266.789 46.842 266.555 47.2991C266.275 47.8361 265.99 48.6645 266.019 49.7957Z" fill="#F8F8F8"/>
<path d="M274.974 52.7837C274.872 52.7837 274.769 52.7723 274.666 52.7494L266.823 50.8926C266.321 50.7727 265.962 50.327 265.95 49.8014C265.922 48.6245 266.23 47.7733 266.492 47.2705C266.738 46.7963 267.269 46.5449 267.771 46.6649L275.842 48.5731C276.327 48.6874 276.71 49.0473 276.869 49.5386C277.149 50.3956 276.921 51.264 276.167 52.1838C275.853 52.5723 275.414 52.7837 274.974 52.7837ZM267.514 46.7735C267.149 46.7735 266.795 46.9849 266.612 47.3334C266.355 47.8247 266.059 48.6474 266.087 49.7957C266.099 50.2585 266.412 50.647 266.852 50.7555L274.695 52.6123C275.186 52.7266 275.705 52.5266 276.059 52.0924C276.778 51.2126 277.001 50.3899 276.732 49.5786C276.59 49.1387 276.242 48.8131 275.808 48.7102L267.737 46.802C267.662 46.7849 267.588 46.7735 267.514 46.7735Z" fill="#6B6B6A"/>
<path d="M266.766 45.1509C266.766 45.1509 266.761 45.1509 266.755 45.1509L265.214 44.8881C265.174 44.8824 265.151 44.8424 265.157 44.8082C265.162 44.7682 265.197 44.7396 265.237 44.751L266.778 45.0138C266.818 45.0195 266.84 45.0595 266.835 45.0938C266.835 45.1281 266.801 45.1509 266.766 45.1509Z" fill="#E0E0E0"/>
<path d="M266.532 45.4137L264.985 45.1509L265.014 45.0081L266.555 45.2766L266.532 45.4137Z" fill="#6B6B6A"/>
<path d="M266.316 45.6766C266.316 45.6766 266.31 45.6766 266.304 45.6766L264.763 45.4137C264.723 45.408 264.7 45.368 264.706 45.3338C264.712 45.2938 264.746 45.2652 264.786 45.2766L266.327 45.5394C266.367 45.5451 266.39 45.5851 266.384 45.6194C266.384 45.6537 266.35 45.6766 266.316 45.6766Z" fill="#E0E0E0"/>
<path d="M266.115 46.0193L264.574 45.7508L264.597 45.6137L266.138 45.8765L266.115 46.0193Z" fill="#6B6B6A"/>
<path d="M265.967 46.505L264.426 46.2422L264.449 46.0993L265.99 46.3678L265.967 46.505Z" fill="#6B6B6A"/>
<path d="M265.716 47.0706C265.716 47.0706 265.71 47.0706 265.705 47.0706L264.163 46.8078C264.123 46.802 264.101 46.762 264.106 46.7278C264.112 46.6878 264.146 46.6592 264.186 46.6706L265.727 46.9334C265.767 46.9392 265.79 46.9791 265.784 47.0134C265.784 47.0477 265.75 47.0706 265.716 47.0706Z" fill="#E0E0E0"/>
<path d="M265.55 47.5962L264.009 47.3334L264.038 47.1905L265.579 47.4533L265.55 47.5962Z" fill="#6B6B6A"/>
<path d="M265.414 48.2018C265.414 48.2018 265.408 48.2018 265.402 48.2018L263.861 47.939C263.821 47.9332 263.798 47.8932 263.804 47.859C263.81 47.819 263.844 47.7904 263.884 47.8018L265.425 48.0646C265.465 48.0704 265.488 48.1103 265.482 48.1446C265.482 48.1789 265.448 48.2018 265.414 48.2018Z" fill="#E0E0E0"/>
<path d="M265.254 48.8759L263.712 48.6131L263.735 48.4703L265.276 48.7331L265.254 48.8759Z" fill="#6B6B6A"/>
<path d="M265.214 49.5558L263.672 49.2873L263.695 49.1501L265.236 49.4129L265.214 49.5558Z" fill="#6B6B6A"/>
<path d="M265.151 50.1956C265.151 50.1956 265.145 50.1956 265.14 50.1956L263.598 49.9328C263.559 49.9271 263.536 49.8871 263.541 49.8529C263.547 49.8129 263.581 49.7843 263.621 49.7957L265.162 50.0585C265.202 50.0642 265.225 50.1042 265.22 50.1385C265.22 50.1728 265.185 50.1956 265.151 50.1956Z" fill="#E0E0E0"/>
<path d="M265.1 50.6413L263.559 50.3785L263.587 50.2413L265.128 50.5042L265.1 50.6413Z" fill="#6B6B6A"/>
<path d="M265.111 51.0983C265.111 51.0983 265.105 51.0983 265.1 51.0983L263.558 50.8355C263.518 50.8298 263.496 50.7898 263.501 50.7555C263.507 50.7155 263.541 50.687 263.581 50.6984L265.122 50.9612C265.162 50.9669 265.185 51.0069 265.179 51.0412C265.179 51.0755 265.145 51.0983 265.111 51.0983Z" fill="#E0E0E0"/>
<path d="M265.225 51.4354C265.225 51.4354 265.22 51.4354 265.214 51.4354L263.673 51.1726C263.633 51.1669 263.61 51.1269 263.616 51.0926C263.621 51.0526 263.656 51.0241 263.696 51.0355L265.237 51.2983C265.277 51.304 265.299 51.344 265.294 51.3783C265.294 51.4125 265.26 51.4354 265.225 51.4354Z" fill="#E0E0E0"/>
<path d="M265.265 51.7725C265.265 51.7725 265.26 51.7725 265.254 51.7725L263.713 51.5097C263.673 51.504 263.65 51.464 263.656 51.4297C263.661 51.3897 263.696 51.3611 263.736 51.3725L265.277 51.6354C265.317 51.6411 265.339 51.6811 265.334 51.7153C265.334 51.7496 265.3 51.7725 265.265 51.7725Z" fill="#E0E0E0"/>
<path d="M265.328 52.0753L263.787 51.8125L263.809 51.6696L265.351 51.9324L265.328 52.0753Z" fill="#6B6B6A"/>
<path d="M265.453 52.2981C265.453 52.2981 265.448 52.2981 265.442 52.2981L263.901 52.0353C263.861 52.0296 263.838 51.9896 263.844 51.9553C263.849 51.9153 263.884 51.8924 263.924 51.8982L265.465 52.161C265.505 52.1667 265.527 52.2067 265.522 52.241C265.522 52.2752 265.488 52.2981 265.453 52.2981Z" fill="#E0E0E0"/>
<path d="M292.287 47.8729C293.323 43.8976 288.902 39.3026 282.414 37.6097C275.925 35.9169 269.826 37.7672 268.791 41.7426C267.756 45.7179 272.176 50.3129 278.665 52.0057C285.153 53.6986 291.252 51.8482 292.287 47.8729Z" fill="white"/>
<path d="M282.4 37.5982C284.9 38.2666 287.343 39.3464 289.33 41.0432C290.317 41.8887 291.219 42.8657 291.836 44.0369C292.441 45.1967 292.715 46.5792 292.412 47.8933C292.075 49.2016 291.179 50.3099 290.089 51.0698C288.987 51.8239 287.714 52.2924 286.424 52.5666C283.827 53.1094 281.133 52.8865 278.582 52.2695C276.053 51.5668 273.593 50.447 271.589 48.6988C270.596 47.8304 269.717 46.7963 269.124 45.6023C268.541 44.4082 268.302 43.0028 268.644 41.6945C269.015 40.3976 269.934 39.3235 271.03 38.6094C272.137 37.8895 273.399 37.4725 274.677 37.2211C277.24 36.7126 279.9 36.9583 282.406 37.5982H282.4ZM282.4 37.5982C279.883 36.9869 277.229 36.7698 274.683 37.3011C273.422 37.5696 272.183 38.0324 271.121 38.7579C270.071 39.4892 269.232 40.5404 268.912 41.7688C268.627 43.0028 268.884 44.3054 269.466 45.4252C270.06 46.5507 270.933 47.5048 271.903 48.3275C273.85 49.99 276.253 51.0526 278.719 51.7153C281.19 52.3438 283.81 52.5895 286.322 52.0867C287.572 51.841 288.799 51.4297 289.866 50.7441C290.917 50.0528 291.778 49.0416 292.132 47.819C292.452 46.5907 292.235 45.2652 291.676 44.1112C291.105 42.9571 290.249 41.9516 289.278 41.1003C287.321 39.3921 284.895 38.2838 282.4 37.5925V37.5982Z" fill="#6B6B6A"/>
<path d="M291.252 47.1209C292.139 43.7165 288.144 39.727 282.33 38.21C276.516 36.6931 271.084 38.2232 270.197 41.6275C269.311 45.0319 273.305 49.0214 279.119 50.5384C284.934 52.0553 290.366 50.5253 291.252 47.1209Z" fill="white"/>
<path d="M282.309 38.2038C284.524 38.7922 286.681 39.7235 288.474 41.1746C289.364 41.9002 290.186 42.74 290.774 43.7455C291.356 44.7453 291.636 45.9736 291.373 47.1448C291.071 48.3046 290.243 49.2815 289.25 49.91C288.251 50.5441 287.115 50.9269 285.968 51.144C283.656 51.5668 281.287 51.3497 279.027 50.8012C276.789 50.1785 274.615 49.2073 272.805 47.7104C271.903 46.962 271.104 46.0708 270.539 45.031C269.98 43.9969 269.734 42.74 270.037 41.5802C270.374 40.4262 271.218 39.4949 272.217 38.9065C273.222 38.3123 274.346 37.9752 275.477 37.781C277.754 37.3868 280.089 37.6325 282.309 38.1981V38.2038ZM282.309 38.2038C280.083 37.661 277.748 37.4496 275.494 37.8667C274.369 38.0781 273.273 38.4551 272.314 39.0607C271.361 39.6663 270.596 40.5804 270.317 41.6545C270.071 42.74 270.328 43.8826 270.887 44.8424C271.447 45.808 272.246 46.6249 273.114 47.3334C274.866 48.7559 276.995 49.67 279.17 50.2528C281.356 50.8127 283.656 51.0469 285.882 50.6641C286.99 50.4756 288.08 50.1499 289.044 49.5786C289.998 49.013 290.78 48.1389 291.099 47.0706C291.379 45.9965 291.156 44.8196 290.62 43.8255C290.077 42.8257 289.301 41.9573 288.428 41.2317C286.658 39.7635 284.518 38.8094 282.315 38.1981L282.309 38.2038Z" fill="#6B6B6A"/>
<path d="M282.333 45.1935C282.488 44.6011 281.794 43.9074 280.784 43.644C279.775 43.3805 278.831 43.6471 278.677 44.2395C278.523 44.8318 279.216 45.5255 280.226 45.789C281.235 46.0524 282.179 45.7858 282.333 45.1935Z" fill="#6B6B6A"/>
</g>
<defs>
<linearGradient id="paint0_linear_1_914" x1="74.6028" y1="83.509" x2="74.6028" y2="100.968" gradientUnits="userSpaceOnUse">
<stop stop-color="#29BAD5"/>
<stop offset="0.54" stop-color="#4BAFBB"/>
<stop offset="1" stop-color="#458DB2"/>
</linearGradient>
<linearGradient id="paint1_linear_1_914" x1="85.9846" y1="83.4576" x2="85.9846" y2="95.9179" gradientUnits="userSpaceOnUse">
<stop stop-color="#29BAD5"/>
<stop offset="0.54" stop-color="#4BAFBB"/>
<stop offset="1" stop-color="#458DB2"/>
</linearGradient>
<linearGradient id="paint2_linear_1_914" x1="96.8241" y1="-5.54209e-05" x2="96.8241" y2="95.975" gradientUnits="userSpaceOnUse">
<stop stop-color="#29BAD5"/>
<stop offset="0.54" stop-color="#4BAFBB"/>
<stop offset="1" stop-color="#458DB2"/>
</linearGradient>
<linearGradient id="paint3_linear_1_914" x1="110.203" y1="83.4576" x2="110.203" y2="95.9179" gradientUnits="userSpaceOnUse">
<stop stop-color="#29BAD5"/>
<stop offset="0.54" stop-color="#4BAFBB"/>
<stop offset="1" stop-color="#458DB2"/>
</linearGradient>
<linearGradient id="paint4_linear_1_914" x1="121.545" y1="78.4586" x2="121.545" y2="95.9179" gradientUnits="userSpaceOnUse">
<stop stop-color="#29BAD5"/>
<stop offset="0.54" stop-color="#4BAFBB"/>
<stop offset="1" stop-color="#458DB2"/>
</linearGradient>
<linearGradient id="paint5_linear_1_914" x1="132.967" y1="83.4576" x2="132.967" y2="95.9179" gradientUnits="userSpaceOnUse">
<stop stop-color="#29BAD5"/>
<stop offset="0.54" stop-color="#4BAFBB"/>
<stop offset="1" stop-color="#458DB2"/>
</linearGradient>
<clipPath id="clip0_1_914">
<rect width="298" height="114" fill="white"/>
</clipPath>
</defs>
</svg>
