<svg width="416" height="60" viewBox="0 0 416 60" fill="none" xmlns="http://www.w3.org/2000/svg">
<path d="M88.7842 21.0334C88.5194 20.7934 88.2316 20.5798 87.928 20.3927C87.446 20.0874 86.9375 19.8227 86.4114 19.6021C85.7847 19.332 85.1368 19.1132 84.4747 18.9455C83.7809 18.7655 83.0676 18.6737 82.3526 18.6737C81.3481 18.5996 80.3453 18.8484 79.4908 19.3814C78.8658 19.8456 78.5127 20.5904 78.548 21.367C78.5304 21.8047 78.6557 22.2353 78.9029 22.5971C79.1765 22.9554 79.5279 23.2484 79.9286 23.4566C80.4706 23.7408 81.0409 23.9649 81.6288 24.1291C82.312 24.3303 83.1029 24.5438 84.0016 24.7697C85.1738 25.0839 86.2349 25.4192 87.1847 25.7775C88.0604 26.0934 88.8796 26.5488 89.6105 27.1241C90.2602 27.6466 90.7827 28.3084 91.1411 29.0602C91.5278 29.9356 91.7114 30.8869 91.6814 31.8435C91.7131 32.9801 91.4642 34.1079 90.9558 35.1263C90.495 36.0105 89.8241 36.7676 89.0031 37.3324C88.1434 37.9113 87.1847 38.3278 86.1749 38.559C85.0767 38.822 83.9521 38.9526 82.824 38.9491C81.0197 38.9473 79.226 38.6737 77.5029 38.139C75.8186 37.6342 74.2262 36.8612 72.7873 35.8516L74.8388 31.8435C75.176 32.1453 75.5432 32.4101 75.9351 32.636C76.5371 32.9995 77.1604 33.3261 77.803 33.612C78.5745 33.9561 79.376 34.2315 80.1952 34.4379C81.0762 34.6621 81.9801 34.775 82.8893 34.7733C85.4475 34.7733 86.7257 33.9544 86.7274 32.3165C86.7416 31.8382 86.5862 31.3723 86.2878 30.9981C85.9436 30.5993 85.5181 30.278 85.0414 30.0557C84.4129 29.7521 83.7597 29.5032 83.0888 29.3144C82.3244 29.0903 81.4769 28.8432 80.5289 28.5731C79.512 28.3031 78.5162 27.9607 77.5488 27.5477C76.7826 27.223 76.0728 26.7782 75.4443 26.2293C74.8988 25.7457 74.468 25.1492 74.1803 24.4785C73.8819 23.7231 73.7389 22.9148 73.7601 22.1029C73.7389 20.9893 73.9702 19.8844 74.4345 18.8714C74.8652 17.9519 75.5061 17.1435 76.3059 16.5152C77.1356 15.8675 78.0802 15.3821 79.09 15.0839C80.1917 14.7521 81.3392 14.5862 82.4903 14.595C84.0739 14.5773 85.6487 14.8456 87.137 15.3857C88.4417 15.8587 89.6864 16.4852 90.841 17.253L88.7842 21.0316V21.0334Z" fill="#001689"/>
<path d="M102.759 39.0109C101.444 39.0303 100.139 38.7832 98.9213 38.2855C96.7215 37.3907 94.9861 35.6328 94.121 33.4214C93.6832 32.3183 93.4607 31.1411 93.4643 29.9533C93.4572 28.739 93.6743 27.5354 94.1051 26.4005C94.5182 25.3098 95.1485 24.3126 95.9589 23.4708C96.7939 22.6095 97.7967 21.9282 98.9037 21.4658C100.138 20.9575 101.46 20.7051 102.795 20.7246C104.117 20.7034 105.431 20.9558 106.652 21.4658C107.74 21.93 108.723 22.606 109.548 23.4531C110.344 24.2844 110.964 25.2692 111.366 26.3476C111.781 27.4454 111.991 28.6084 111.989 29.7821C111.989 30.0751 111.989 30.3539 111.973 30.6222C111.968 30.8499 111.94 31.074 111.889 31.2964H98.2487C98.3016 31.9388 98.4729 32.5671 98.7536 33.1496C99.2638 34.1926 100.155 34.9992 101.245 35.4051C101.783 35.6063 102.353 35.7087 102.927 35.7069C103.817 35.7105 104.691 35.4828 105.468 35.0504C106.2 34.6833 106.779 34.0709 107.103 33.3172L110.976 34.3938C110.286 35.7811 109.203 36.9353 107.86 37.7101C106.313 38.6049 104.55 39.055 102.763 39.0091L102.759 39.0109ZM107.341 28.3737C107.283 27.163 106.756 26.0228 105.876 25.1916C104.108 23.5643 101.388 23.5714 99.6293 25.2074C99.2162 25.6028 98.879 26.0705 98.6353 26.5876C98.3723 27.1489 98.2187 27.7542 98.1816 28.3719H107.343L107.341 28.3737Z" fill="#001689"/>
<path d="M121.484 38.7743C120.367 38.7902 119.26 38.5484 118.252 38.0683C117.291 37.6006 116.438 36.9423 115.743 36.1322C115.024 35.2956 114.47 34.3302 114.108 33.2872C113.335 31.014 113.347 28.5484 114.143 26.2822C114.523 25.2233 115.093 24.242 115.826 23.3878C117.312 21.6705 119.48 20.6963 121.753 20.7263C123.017 20.698 124.263 21.0192 125.356 21.6528C126.389 22.2688 127.266 23.116 127.916 24.1255V21.0281H131.856V37.8265C131.876 39.0337 131.622 40.2321 131.115 41.3281C130.635 42.3412 129.939 43.2378 129.077 43.9543C128.161 44.7009 127.109 45.2621 125.979 45.6045C124.708 45.9963 123.386 46.1905 122.056 46.1781C120.383 46.2311 118.718 45.9028 117.189 45.218C115.874 44.5773 114.717 43.6508 113.804 42.5071L116.262 40.1174C116.947 40.9575 117.817 41.6246 118.804 42.0694C119.823 42.5389 120.932 42.7807 122.053 42.7754C122.731 42.7754 123.405 42.6765 124.055 42.4824C124.676 42.3024 125.253 41.9988 125.755 41.5911C126.26 41.1746 126.657 40.6433 126.917 40.0415C127.213 39.3391 127.356 38.5819 127.339 37.8195V35.5974C126.763 36.5999 125.908 37.4135 124.881 37.9413C123.832 38.4919 122.665 38.7761 121.481 38.7708L121.484 38.7743ZM123.001 35.1703C123.483 35.1703 123.961 35.0927 124.417 34.9356C124.86 34.7821 125.28 34.565 125.663 34.2949C126.041 34.0284 126.382 33.7125 126.673 33.3525C126.955 33.0083 127.181 32.6218 127.346 32.207V28.0048C126.966 27.0076 126.304 26.1428 125.441 25.5145C124.662 24.9162 123.71 24.5861 122.729 24.572C122.072 24.5614 121.424 24.7185 120.843 25.0274C120.284 25.3292 119.791 25.7404 119.396 26.2381C118.984 26.7552 118.672 27.3447 118.471 27.973C118.257 28.6243 118.149 29.3055 118.151 29.9903C118.146 30.6804 118.271 31.3669 118.52 32.0111C118.757 32.62 119.104 33.1795 119.546 33.6613C119.978 34.1273 120.499 34.505 121.078 34.7715C121.682 35.0415 122.337 35.1756 122.999 35.165L123.001 35.1703Z" fill="#001689"/>
<path d="M140.555 39.0108C138.975 39.1132 137.439 38.4602 136.413 37.253C135.366 35.7351 134.866 33.9067 134.997 32.0694V21.0281H139.511V31.0952C139.511 33.8114 140.488 35.1686 142.442 35.1686C143.348 35.1598 144.232 34.8844 144.984 34.3779C145.865 33.7796 146.559 32.9466 146.99 31.9723V21.0298H151.504V33.4849C151.471 33.8414 151.561 34.1961 151.757 34.4962C151.972 34.7203 152.272 34.8421 152.581 34.8333V38.6702C152.209 38.7496 151.833 38.8061 151.453 38.8396C151.151 38.8608 150.876 38.8731 150.629 38.8731C149.929 38.9031 149.239 38.709 148.66 38.319C148.16 37.9572 147.836 37.4012 147.768 36.787L147.668 35.3716C146.926 36.5417 145.878 37.4859 144.635 38.0983C143.365 38.7143 141.969 39.0285 140.558 39.0143L140.555 39.0108Z" fill="#001689"/>
<path d="M165.42 24.9391C164.154 24.9391 162.904 25.2092 161.749 25.7298C160.725 26.1816 159.901 26.99 159.426 28.003V38.6737H154.912V21.0334H159.055V24.805C159.357 24.2173 159.731 23.6684 160.167 23.1724C160.579 22.703 161.041 22.2812 161.546 21.9123C162.007 21.5717 162.512 21.2928 163.047 21.0863C163.513 20.901 164.009 20.8022 164.512 20.7933H165.068C165.187 20.7933 165.303 20.8057 165.42 20.8269V24.9391Z" fill="#001689"/>
<path d="M175.052 39.0108C173.724 39.032 172.405 38.7796 171.178 38.2696C170.08 37.8089 169.09 37.1277 168.265 36.2682C167.467 35.4263 166.844 34.4379 166.428 33.356C165.999 32.2494 165.781 31.074 165.787 29.888C165.78 28.6914 165.997 27.5036 166.428 26.3864C166.842 25.3045 167.467 24.3161 168.265 23.4743C169.088 22.613 170.08 21.93 171.178 21.4693C172.405 20.9593 173.724 20.7069 175.052 20.7281C176.374 20.7069 177.688 20.9593 178.908 21.4693C179.999 21.9335 180.986 22.6165 181.803 23.4743C182.601 24.3144 183.224 25.3045 183.641 26.3864C184.07 27.5036 184.287 28.6914 184.282 29.888C184.285 31.074 184.068 32.2494 183.641 33.356C183.228 34.4344 182.61 35.4228 181.822 36.2682C181.007 37.1294 180.02 37.8125 178.925 38.2696C177.698 38.7796 176.38 39.032 175.052 39.0108ZM170.437 29.888C170.428 30.6169 170.546 31.3405 170.792 32.0253C171.011 32.636 171.343 33.2025 171.768 33.6914C172.174 34.1556 172.672 34.528 173.233 34.7839C174.392 35.301 175.714 35.301 176.87 34.7839C177.43 34.5262 177.93 34.1538 178.336 33.6914C178.763 33.1972 179.095 32.6254 179.312 32.0094C179.556 31.3176 179.676 30.5869 179.667 29.8545C179.674 29.1326 179.554 28.4143 179.312 27.7348C179.097 27.1171 178.765 26.547 178.336 26.0528C177.93 25.5886 177.43 25.2145 176.87 24.9568C176.3 24.6974 175.679 24.565 175.052 24.5703C174.423 24.565 173.8 24.7044 173.232 24.9745C172.672 25.241 172.174 25.6187 171.766 26.0864C171.337 26.5805 171.005 27.1524 170.79 27.7683C170.548 28.4478 170.426 29.1661 170.432 29.888H170.435H170.437Z" fill="#001689"/>
<path d="M193.512 39.0108C192.034 39.0108 190.567 38.7726 189.167 38.3049C187.833 37.8778 186.597 37.1912 185.53 36.2841L187.213 33.4567C188.186 34.1644 189.245 34.745 190.363 35.1898C191.334 35.5728 192.366 35.7705 193.41 35.7758C194.151 35.8146 194.887 35.6399 195.532 35.271C196.032 34.9639 196.328 34.4115 196.305 33.8238C196.321 33.2184 195.959 32.6677 195.398 32.4436C194.437 32.0288 193.447 31.6917 192.433 31.4323C191.289 31.1199 190.313 30.8163 189.503 30.5234C188.807 30.2904 188.149 29.9568 187.55 29.5315C187.089 29.2014 186.719 28.762 186.47 28.2519C186.233 27.7048 186.118 27.1118 186.134 26.517C186.122 25.6787 186.3 24.8492 186.655 24.092C187.001 23.379 187.501 22.7524 188.12 22.2565C188.777 21.7376 189.526 21.3423 190.326 21.0952C191.215 20.8181 192.14 20.6822 193.073 20.691C194.335 20.6822 195.59 20.8746 196.792 21.2646C197.97 21.6564 199.052 22.2865 199.976 23.116L198.157 25.8428C197.363 25.2269 196.483 24.7291 195.548 24.362C194.746 24.0549 193.897 23.8961 193.039 23.8908C192.368 23.8679 191.703 24.0302 191.118 24.362C190.597 24.6815 190.299 25.2657 190.343 25.8746C190.333 26.1446 190.396 26.4129 190.529 26.6494C190.675 26.8753 190.876 27.0606 191.115 27.1877C191.452 27.3748 191.809 27.5283 192.177 27.643C192.615 27.7913 193.159 27.9431 193.809 28.0984C195.023 28.4108 196.062 28.7249 196.923 29.0408C197.677 29.2985 198.392 29.6603 199.045 30.1174C199.557 30.4775 199.972 30.9575 200.256 31.5152C200.53 32.1118 200.662 32.763 200.643 33.4196C200.706 35.0133 199.991 36.5382 198.724 37.5089C197.206 38.5837 195.368 39.1132 193.509 39.0144L193.512 39.0108Z" fill="#001689"/>
<path d="M217.139 39.0108C215.977 39.0214 214.828 38.7814 213.77 38.3049C212.755 37.8478 211.85 37.1806 211.108 36.3493C210.352 35.4951 209.766 34.5085 209.374 33.4372C208.952 32.2883 208.741 31.074 208.751 29.8509C208.741 28.6367 208.938 27.4295 209.337 26.2823C209.705 25.2286 210.259 24.2491 210.97 23.3878C211.654 22.5689 212.501 21.9035 213.461 21.4358C214.448 20.9593 215.532 20.7157 216.629 20.7263C217.866 20.7104 219.083 21.0369 220.144 21.6705C221.155 22.2653 221.996 23.1125 222.585 24.1273V14.0938H227.1V33.4849C227.07 33.8379 227.151 34.1926 227.336 34.4962C227.543 34.7203 227.838 34.8439 228.143 34.8333V38.6702C227.511 38.8096 226.868 38.8891 226.222 38.9067C225.511 38.9367 224.81 38.7232 224.236 38.3013C223.731 37.9219 223.412 37.3465 223.357 36.7164L223.256 35.6063C222.644 36.6917 221.727 37.576 220.619 38.1478C219.545 38.7108 218.35 39.0073 217.139 39.0091V39.0108ZM218.311 35.1721C218.76 35.1704 219.205 35.0963 219.63 34.9551C220.075 34.8103 220.495 34.6003 220.876 34.332C221.256 34.062 221.6 33.7461 221.902 33.3896C222.199 33.0384 222.432 32.6395 222.592 32.2089V28.0013C222.414 27.5089 222.156 27.0482 221.833 26.637C221.514 26.2293 221.141 25.8657 220.723 25.5604C220.317 25.2621 219.874 25.0186 219.404 24.835C218.97 24.6621 218.509 24.5703 218.041 24.565C217.391 24.5597 216.751 24.7097 216.17 25.0045C215.601 25.2921 215.102 25.6998 214.704 26.1993C214.293 26.7182 213.973 27.3041 213.763 27.9325C213.537 28.5819 213.424 29.265 213.424 29.9533C213.417 30.654 213.543 31.3493 213.795 32.0041C214.028 32.6113 214.371 33.1707 214.805 33.6543C215.234 34.1273 215.755 34.505 216.337 34.7645C216.957 35.0398 217.63 35.1792 218.309 35.1721H218.311Z" fill="#001689"/>
<path d="M238.971 39.0109C237.656 39.0285 236.349 38.7832 235.131 38.2855C234.031 37.8337 233.034 37.163 232.2 36.3158C231.39 35.4846 230.754 34.5015 230.331 33.4214C229.893 32.3183 229.67 31.1411 229.674 29.9533C229.667 28.739 229.884 27.5354 230.315 26.4005C230.728 25.3098 231.358 24.3126 232.167 23.4708C233.004 22.6095 234.006 21.9282 235.113 21.4658C236.346 20.9575 237.67 20.7051 239.003 20.7246C240.325 20.7034 241.639 20.9558 242.858 21.4658C243.946 21.9282 244.931 22.6042 245.754 23.4531C246.552 24.2826 247.17 25.2675 247.572 26.3476C247.987 27.4454 248.199 28.6084 248.195 29.7821C248.195 30.0751 248.195 30.3539 248.18 30.6222C248.174 30.8499 248.146 31.074 248.095 31.2964H234.457C234.51 31.9406 234.681 32.5671 234.961 33.1496C235.472 34.1926 236.363 34.9992 237.453 35.4051C237.991 35.6063 238.561 35.7087 239.137 35.7069C240.027 35.7105 240.902 35.4846 241.679 35.0504C242.41 34.6833 242.989 34.0691 243.312 33.3172L247.186 34.3938C246.497 35.7828 245.411 36.9371 244.068 37.7101C242.521 38.6067 240.756 39.0567 238.969 39.0091L238.971 39.0109ZM243.549 28.3737C243.49 27.163 242.964 26.0228 242.083 25.1916C240.316 23.5643 237.596 23.5714 235.837 25.2074C235.424 25.6028 235.087 26.0705 234.843 26.5876C234.578 27.1489 234.425 27.7542 234.388 28.3719H243.549V28.3737Z" fill="#001689"/>
<path d="M250.757 14.0973H255.272V33.0189C255.238 33.5643 255.406 34.1026 255.743 34.5315C256.087 34.9056 256.582 35.1033 257.09 35.0715C257.392 35.0662 257.692 35.0203 257.982 34.9374C258.3 34.8491 258.609 34.738 258.907 34.6003L259.512 38.0331C258.836 38.349 258.123 38.5749 257.39 38.709C256.67 38.8555 255.937 38.9349 255.203 38.9455C254.001 39.0214 252.82 38.6155 251.919 37.816C251.1 36.9512 250.678 35.7828 250.757 34.595V14.099V14.0973Z" fill="#001689"/>
<path d="M267.71 38.6719V14.7697H277.847C278.903 14.7591 279.946 14.9974 280.895 15.4615C281.807 15.9063 282.625 16.524 283.303 17.2794C283.977 18.0313 284.512 18.8978 284.885 19.8368C285.257 20.751 285.453 21.7288 285.457 22.7171C285.457 23.7231 285.275 24.722 284.918 25.6627C284.57 26.5946 284.056 27.4559 283.402 28.2042C282.743 28.9508 281.941 29.5579 281.045 29.9886C280.098 30.4439 279.062 30.6733 278.012 30.6628H272.353V38.6755H267.71V38.6719ZM272.357 26.5876H277.747C278.585 26.5946 279.378 26.2081 279.886 25.5427C280.496 24.7309 280.799 23.7284 280.743 22.7153C280.752 22.1594 280.66 21.607 280.473 21.0828C280.314 20.6345 280.074 20.218 279.766 19.8562C279.487 19.5279 279.136 19.2702 278.741 19.099C278.365 18.9331 277.957 18.8484 277.545 18.8466H272.357V26.5876Z" fill="#001689"/>
<path d="M288.083 18.5767V14.0991H292.598V18.5767H288.083ZM288.083 38.672V21.0334H292.598V38.672H288.083Z" fill="#001689"/>
<path d="M294.793 29.8527C294.786 28.6561 295.003 27.4683 295.434 26.3511C295.847 25.271 296.477 24.2861 297.286 23.4566C298.123 22.6077 299.119 21.9317 300.217 21.4693C301.444 20.9593 302.762 20.7069 304.09 20.7281C305.819 20.6751 307.527 21.1075 309.025 21.9741C310.331 22.7507 311.389 23.8837 312.074 25.2392L307.66 26.5858C307.301 25.9575 306.779 25.4386 306.147 25.0856C305.506 24.7344 304.786 24.5562 304.057 24.565C303.43 24.5597 302.81 24.6921 302.238 24.9515C301.68 25.2074 301.182 25.5745 300.773 26.0316C300.34 26.517 300.01 27.0835 299.796 27.696C299.553 28.3878 299.433 29.1185 299.442 29.8509C299.431 30.5869 299.558 31.3176 299.812 32.0059C300.038 32.6218 300.376 33.1919 300.805 33.6878C301.211 34.1503 301.71 34.5227 302.27 34.7803C302.83 35.038 303.437 35.1704 304.053 35.1668C304.84 35.1721 305.615 34.9639 306.295 34.5615C306.913 34.2261 307.413 33.709 307.727 33.0789L312.137 34.4256C311.5 35.8057 310.453 36.9565 309.139 37.7242C307.619 38.6102 305.882 39.055 304.122 39.0038C302.794 39.025 301.475 38.7726 300.248 38.2625C298.042 37.3412 296.308 35.5604 295.45 33.3296C295.012 32.2194 294.791 31.0387 294.797 29.8456L294.793 29.8527Z" fill="#001689"/>
<path d="M330.835 38.672H326.321V28.7743C326.402 27.6924 326.13 26.6123 325.545 25.6981C325.021 25.0309 324.204 24.6603 323.356 24.7044C322.917 24.7132 322.482 24.8032 322.076 24.9744C321.614 25.1615 321.183 25.4174 320.796 25.7316C320.378 26.0705 320.005 26.4605 319.686 26.8929C319.35 27.3377 319.1 27.8407 318.944 28.3754V38.6755H314.427V14.0973H318.941V24.2985C319.557 23.1919 320.47 22.2776 321.578 21.6617C322.707 21.0404 323.978 20.721 325.267 20.7351C326.232 20.6945 327.194 20.8957 328.063 21.3211C328.752 21.6882 329.332 22.2265 329.747 22.8865C330.162 23.5696 330.448 24.3214 330.588 25.1086C330.747 25.9522 330.826 26.8082 330.824 27.6677L330.835 38.6737V38.672Z" fill="#001689"/>
<path d="M334.005 18.5767V14.0991H338.517V18.5767H334.005ZM334.005 38.672V21.0334H338.517V38.672H334.005Z" fill="#001689"/>
<path d="M358.228 38.6719H353.715V28.7743C353.802 27.6889 353.542 26.6052 352.974 25.6769C352.494 25.0327 351.726 24.6673 350.923 24.7009C350.449 24.7062 349.982 24.7979 349.542 24.9709C349.063 25.1562 348.615 25.4104 348.213 25.728C347.787 26.0634 347.407 26.4534 347.084 26.8894C346.752 27.3359 346.505 27.8371 346.352 28.3719V38.6737H341.837V21.0351H345.912V24.3002C346.576 23.1654 347.561 22.2529 348.74 21.674C350.038 21.0298 351.47 20.7069 352.919 20.7298C353.855 20.691 354.784 20.901 355.612 21.3369C356.277 21.7146 356.833 22.26 357.223 22.9183C357.617 23.6066 357.886 24.3585 358.014 25.1421C358.161 25.9751 358.233 26.8188 358.233 27.6659L358.228 38.6772V38.6719Z" fill="#001689"/>
<path d="M360.589 29.8526C360.582 28.656 360.799 27.4682 361.23 26.351C361.645 25.2709 362.275 24.2861 363.082 23.4566C363.919 22.6077 364.914 21.9317 366.013 21.4693C367.24 20.9592 368.558 20.7068 369.886 20.728C371.614 20.6768 373.323 21.1075 374.821 21.9741C376.127 22.7489 377.185 23.8837 377.87 25.2391L373.456 26.5858C373.097 25.9575 372.573 25.4386 371.941 25.0856C371.302 24.7361 370.583 24.5561 369.854 24.565C369.228 24.5597 368.608 24.692 368.036 24.9515C367.478 25.2074 366.98 25.5745 366.571 26.0316C366.14 26.517 365.808 27.0835 365.594 27.6959C365.351 28.3878 365.231 29.1184 365.239 29.8509C365.229 30.5868 365.356 31.3175 365.61 32.0058C365.836 32.6218 366.173 33.1919 366.602 33.6878C367.008 34.1502 367.508 34.5226 368.068 34.7803C368.627 35.038 369.236 35.1703 369.853 35.1668C370.64 35.1721 371.413 34.9638 372.091 34.5614C372.709 34.2261 373.209 33.709 373.523 33.0789L377.933 34.4255C377.296 35.8057 376.249 36.9582 374.935 37.7242C373.415 38.6102 371.678 39.0549 369.918 39.0037C368.59 39.0249 367.271 38.7725 366.044 38.2625C363.839 37.3394 362.107 35.5586 361.246 33.3295C360.81 32.2194 360.587 31.0387 360.591 29.8456L360.589 29.8526Z" fill="#001689"/>
<path d="M396.628 38.672H392.116V28.7743C392.197 27.6924 391.925 26.6123 391.341 25.6981C390.814 25.0309 389.999 24.6603 389.151 24.7044C388.712 24.7132 388.277 24.8032 387.871 24.9744C387.409 25.1615 386.978 25.4174 386.591 25.7316C386.173 26.0705 385.8 26.4605 385.481 26.8929C385.146 27.3377 384.895 27.8407 384.739 28.3754V38.6755H380.227V14.0973H384.739V24.2985C385.356 23.1919 386.268 22.2776 387.377 21.6617C388.505 21.0404 389.776 20.721 391.065 20.7351C392.031 20.6945 392.991 20.8957 393.858 21.3211C394.547 21.6864 395.127 22.2265 395.542 22.8865C395.959 23.5678 396.245 24.3214 396.386 25.1086C396.545 25.9522 396.623 26.8082 396.623 27.6677L396.628 38.6737V38.672Z" fill="#001689"/>
<path d="M404.617 39.0108C403.801 39.0161 402.989 38.8749 402.224 38.5908C401.515 38.3296 400.861 37.9324 400.305 37.4189C399.77 36.9194 399.343 36.3193 399.045 35.6504C398.734 34.9515 398.579 34.1944 398.589 33.4284C398.582 32.6253 398.773 31.8329 399.145 31.1216C399.518 30.4121 400.048 29.7944 400.694 29.3197C401.412 28.799 402.217 28.4054 403.07 28.1583C404.053 27.8689 405.074 27.7277 406.1 27.7383C406.873 27.7383 407.644 27.8036 408.407 27.9395C409.096 28.056 409.768 28.2484 410.413 28.5131V27.5018C410.476 26.5046 410.116 25.5251 409.419 24.8085C408.594 24.1255 407.538 23.7884 406.472 23.8661C405.529 23.8661 404.594 24.0373 403.711 24.3708C402.733 24.7485 401.804 25.2462 400.948 25.8516L399.567 22.9907C401.732 21.5187 404.29 20.7316 406.91 20.7333C409.043 20.601 411.149 21.2681 412.817 22.6041C414.286 24.0037 415.058 25.984 414.923 28.0083V33.4937C414.892 33.8484 414.98 34.2049 415.174 34.505C415.389 34.7274 415.69 34.8509 416 34.8421V38.679C415.347 38.8237 414.682 38.9032 414.012 38.9155C413.31 38.9614 412.612 38.7584 412.044 38.3437C411.583 37.9607 411.278 37.4206 411.188 36.8276L411.087 35.8516C410.335 36.8541 409.353 37.6624 408.225 38.2078C407.101 38.7443 405.868 39.0161 404.622 39.0073L404.617 39.0108ZM405.898 35.7104C406.64 35.7139 407.376 35.5763 408.068 35.3063C408.682 35.0856 409.233 34.715 409.669 34.2297C410.107 33.9473 410.384 33.4707 410.411 32.9501V30.9363C409.839 30.7263 409.251 30.5639 408.652 30.451C408.054 30.3292 407.445 30.2674 406.834 30.2657C405.821 30.2215 404.82 30.4986 403.972 31.0563C403.284 31.4905 402.863 32.2459 402.86 33.0595C402.848 33.7955 403.171 34.4962 403.739 34.9639C404.341 35.4722 405.111 35.7387 405.898 35.7122V35.7104Z" fill="#001689"/>
<path d="M2.22517 24.6497L24.1912 2.69588C27.2295 -0.32742 32.1393 -0.32742 35.1777 2.69588L39.3124 6.82932L6.3599 39.7609L2.22517 35.6275C-0.756711 32.5971 -0.726698 27.7083 2.22517 24.6497ZM57.1295 35.6345L35.1671 57.5901C32.1287 60.6134 27.2189 60.6134 24.1806 57.5901L20.0458 53.4566L44.7571 28.7531L42.4037 26.4005L42.0471 26.0422L41.6852 26.404L11.7022 56.3776L3.43275 48.1107L37.0685 14.4838C39.7979 11.757 44.2222 11.757 46.9516 14.4838L57.1242 24.6567C60.1414 27.6906 60.1432 32.5918 57.1278 35.6292V35.6345H57.1295Z" fill="#001689"/>
</svg>
