<svg width="1019" height="36" viewBox="0 0 1019 36" fill="none" xmlns="http://www.w3.org/2000/svg">
<g clip-path="url(#clip0_39_670)">
<path d="M29.7731 20.25C30.2138 20.25 30.5916 19.9688 30.7175 19.4766L33.6137 11.4609L38.9023 35.0859C39.0281 35.6484 39.4059 35.9297 39.9096 36C40.3503 35.9297 40.7911 35.5781 40.854 35.0859L46.0167 6.1875L48.9758 19.3359C49.1017 19.8281 49.5425 20.25 49.9203 20.25H1018.5C1018.81 20.25 1019 19.9689 1019 19.6876V18.5626C1019 18.211 1018.81 18.0001 1018.5 18.0001L50.7388 18L46.8982 0.84375C46.7723 0.28125 46.3945 4.92e-08 45.8908 0C45.4501 -4.3e-08 45.0094 0.351562 44.9464 0.84375L39.7837 29.7422L34.8099 7.59375C34.684 7.10156 34.3062 6.75 33.9284 6.75C33.4247 6.67969 33.047 6.96094 32.921 7.45312L29.1435 18H0.50368C0.25184 18 1.15591e-07 18.2109 8.80656e-08 18.5625L0 19.6875C-2.20097e-08 19.9688 0.251839 20.25 0.503679 20.25H29.7731Z" fill="black" fill-opacity="0.25"/>
</g>
<defs>
<clipPath id="clip0_39_670">
<rect width="1019" height="36" fill="white"/>
</clipPath>
</defs>
</svg>
