<svg width="61" height="65" viewBox="0 0 61 65" fill="none" xmlns="http://www.w3.org/2000/svg">
<path d="M61 16.293C60.9949 13.6168 59.7321 11.6994 57.304 10.6741C49.1728 7.24172 41.0134 3.87601 32.8643 0.489798C31.3371 -0.145918 29.7894 -0.171552 28.2546 0.464164C20.0644 3.86576 11.869 7.24684 3.69677 10.692C1.31491 11.6969 0.0829152 13.6143 0.00848213 16.2033C-0.0248844 17.3927 0.046982 18.5898 0.106015 19.7817C0.57828 29.3226 3.14237 38.2534 8.13709 46.4152C12.9393 54.2616 19.2199 60.5547 27.7489 64.3818C29.6175 65.22 31.4347 65.197 33.3083 64.3664C37.3354 62.5798 40.9056 60.1138 44.1011 57.1249C55.3148 46.6305 60.4071 33.4599 60.9974 18.3437C60.9974 17.6618 60.9974 16.9774 60.9974 16.2955L61 16.293ZM45.3331 33.1933C41.0699 37.7305 36.6783 42.1497 32.333 46.61C31.2704 47.702 30.1539 47.7404 29.0964 46.6587C24.6869 42.1395 20.2107 37.6817 15.9551 33.0241C13.273 30.0865 12.9265 26.526 14.4998 22.8757C15.9346 19.551 18.9941 17.6259 22.5874 17.6234C25.2002 17.6208 27.3922 18.6077 29.235 20.4303C30.2172 21.4009 31.1908 21.4086 32.1559 20.4533C34.5814 18.0566 37.5074 17.0799 40.8235 17.831C47.6046 19.3665 50.161 28.0563 45.3331 33.1933Z" fill="#009FDF"/>
</svg>
