<svg width="844" height="256" viewBox="0 0 844 256" fill="none" xmlns="http://www.w3.org/2000/svg">
<g clip-path="url(#clip0_0_323)">
<path d="M328.06 89.59C339.42 78.75 352.28 75.1 366.83 77.12C383.91 79.49 394.05 92.16 394.43 111.38C394.64 122.2 394.47 133.02 394.47 143.84C394.47 155.29 395.99 156.45 407.3 153.16C407.3 163.87 407.3 174.47 407.31 185.07C407.31 186.37 406.65 187.16 405.72 187.98C394.23 198.21 369.76 197.96 358.35 187.52C351 180.79 347.92 172.11 347.57 162.55C347.13 150.41 347.44 138.25 347.29 126.1C347.2 118.71 343.52 115 337.12 115.46C331.36 115.88 328.08 119.76 328.07 126.44C328.03 146.91 327.97 167.39 328.14 187.86C328.17 191.63 327.39 193 323.28 192.91C310.46 192.62 297.63 192.7 284.81 192.87C281.59 192.91 280.58 192.09 280.58 188.75C280.68 127.33 280.68 65.9 280.58 4.48001C280.58 0.970006 281.55 -0.0299939 285.05 0.0200061C297.87 0.220006 310.7 0.270006 323.52 6.12834e-06C327.5 -0.0799939 328.15 1.39001 328.13 4.90001C328.01 31.37 328.06 57.83 328.06 84.3V89.58V89.59Z" fill="#009FDF"/>
<path d="M693.74 29.35C701.05 29.35 701.94 30.61 699.68 37.78C697.97 43.23 693.84 46.5 687.95 47.01C680.02 47.69 672.92 46.33 668.66 38.64C664.86 31.79 666.26 22.55 671.73 17.49C677.3 12.33 687.48 11.1 693.56 15.06C694.97 15.98 697.86 16.77 696.6 19.15C695.31 21.61 693.21 21.21 690.78 19.63C686.13 16.6 679.82 17.53 676.05 21.22C672.21 24.97 671.43 31.53 674.24 36.44C677.9 42.84 688.82 44.29 693.21 38.98C694.1 37.9 694.73 36.73 694.49 35.34C694.2 33.64 692.7 34.37 691.68 34.08C689.83 33.55 686.28 35.73 686.67 31.51C687.02 27.77 690.31 29.94 692.24 29.38C692.7 29.25 693.23 29.36 693.73 29.36L693.74 29.35Z" fill="#02A0DF"/>
<path d="M495.22 26.02C495.02 29.83 495.1 33.69 494.55 37.46C493.53 44.46 489.18 47.22 480.14 47.08C472.45 46.96 468.29 43.83 467.35 37.26C466.36 30.31 467.08 23.3 466.85 16.32C466.78 14.21 467.61 13.36 469.76 13.32C471.95 13.28 472.68 14.14 472.64 16.26C472.55 21.75 472.54 27.24 472.64 32.74C472.75 39.21 475.44 42.1 481.07 42.06C486.61 42.02 489.19 39.08 489.27 32.53C489.33 27.21 489.32 21.88 489.27 16.55C489.25 14.7 489.41 13.33 491.85 13.31C494.21 13.29 495.16 14.15 495.06 16.53C494.94 19.69 495.03 22.85 495.03 26.01H495.22V26.02Z" fill="#03A0DF"/>
<path d="M356.42 47.07C352.72 47.23 349.46 46.29 347.31 43.04C346.54 41.88 345.15 40.41 346.92 39.18C348.27 38.25 349.97 36.94 351.49 39.48C352.1 40.51 353.45 41.42 354.63 41.73C357.34 42.44 360.12 42.28 361.45 39.26C362.73 36.37 360.99 34.51 358.65 33.17C355.92 31.6 353.04 30.28 350.38 28.6C347.45 26.74 346.29 23.86 346.84 20.42C347.38 17.03 349.28 14.56 352.57 13.5C356.51 12.23 360.47 12.26 364.05 14.64C365.33 15.49 367.37 16.64 366.02 18.46C365.07 19.74 363.24 20.98 361.28 19.24C360.57 18.61 359.61 18.05 358.7 17.91C356.5 17.56 354.28 17.59 353.17 20.08C352.12 22.45 353.61 23.95 355.3 25.04C357.24 26.29 359.43 27.16 361.47 28.26C367.09 31.28 368.84 34.66 367.54 39.91C366.37 44.63 362.49 47.13 356.43 47.06L356.42 47.07Z" fill="#02A0DF"/>
<path d="M752.22 32.27C752.22 30.11 752.05 27.93 752.25 25.79C752.71 20.85 752.57 16.65 745.63 18.07C744.05 18.39 743.18 17.63 743.21 15.85C743.24 14.23 743.75 13.35 745.49 13.35C751.65 13.37 757.81 13.38 763.96 13.33C765.88 13.31 766.59 14.11 766.57 16.02C766.55 17.96 765.38 18.34 763.97 18.06C757.91 16.88 757.7 20.42 757.91 24.95C758.19 30.93 757.96 36.93 757.99 42.91C758 44.89 757.94 46.45 755.21 46.56C752.14 46.68 752.14 44.92 752.19 42.75C752.26 39.26 752.21 35.76 752.21 32.27H752.22Z" fill="#07A2E0"/>
<path d="M825.77 29.59C825.77 25.94 825.64 22.28 825.82 18.63C825.92 16.48 824.44 13.26 828.83 13.31C832.97 13.36 831.44 16.42 831.5 18.35C831.67 23.99 831.88 29.66 831.46 35.28C831.12 39.96 832.37 42.18 837.35 41.34C838.64 41.12 840 41.36 841.33 41.31C843.25 41.23 844.02 42.15 843.97 44.02C843.93 45.62 843.32 46.51 841.62 46.5C837.13 46.48 832.65 46.48 828.16 46.5C825.65 46.5 825.77 44.74 825.77 43.04C825.77 38.56 825.77 34.07 825.77 29.59Z" fill="#09A3E0"/>
<path d="M438.06 27.42C438.06 28.58 438.04 29.74 438.06 30.9C438.13 34.04 437.15 37.83 438.56 40.16C440.24 42.93 444.37 40.9 447.4 41.28C449.01 41.48 450.27 41.58 450.34 43.71C450.41 46 449.27 46.61 447.3 46.51C447.13 46.51 446.97 46.51 446.8 46.51C437.113 47.0567 432.27 42.5167 432.27 32.89C432.27 27.42 432.31 21.95 432.25 16.49C432.23 14.62 432.46 13.31 434.85 13.29C437.19 13.28 438.15 14.11 438.07 16.48C437.95 20.12 438.04 23.77 438.04 27.42H438.06Z" fill="#08A2E0"/>
<path d="M640.81 30.32C640.81 25.84 640.84 21.36 640.79 16.88C640.77 14.87 640.92 13.33 643.61 13.28C646.14 13.23 646.65 14.37 646.63 16.59C646.55 25.55 646.56 34.51 646.62 43.46C646.63 45.43 646.21 46.54 643.9 46.56C641.45 46.58 640.73 45.52 640.78 43.25C640.88 38.94 640.81 34.62 640.81 30.31V30.32Z" fill="#09A3E0"/>
<path d="M725.41 30.36C725.41 34.69 725.37 39.02 725.43 43.34C725.46 45.2 725.31 46.59 722.86 46.53C720.68 46.48 719.48 46.01 719.51 43.46C719.62 34.47 719.62 25.48 719.51 16.49C719.48 14.06 720.44 13.33 722.74 13.29C725.09 13.25 725.48 14.39 725.44 16.37C725.36 21.03 725.41 25.69 725.41 30.35V30.36Z" fill="#05A1E0"/>
<path d="M237.66 65.52C237.64 55.08 232.72 47.6 223.26 43.6C191.58 30.21 159.79 17.08 128.04 3.87001C122.09 1.39001 116.06 1.29001 110.08 3.77001C78.1701 17.04 46.2401 30.23 14.4001 43.67C5.12012 47.59 0.320118 55.07 0.0301177 65.17C-0.0998823 69.81 0.180118 74.48 0.410118 79.13C2.25012 116.35 12.2401 151.19 31.7001 183.03C50.4101 213.64 74.8801 238.19 108.11 253.12C115.39 256.39 122.47 256.3 129.77 253.06C145.46 246.09 159.37 236.47 171.82 224.81C215.51 183.87 235.35 132.49 237.65 73.52C237.65 70.86 237.65 68.19 237.65 65.53L237.66 65.52ZM176.62 131.45C160.01 149.15 142.9 166.39 125.97 183.79C121.83 188.05 117.48 188.2 113.36 183.98C96.1801 166.35 78.7401 148.96 62.1601 130.79C51.7101 119.33 50.3601 105.44 56.4901 91.2C62.0801 78.23 74.0001 70.72 88.0001 70.71C98.1801 70.7 106.72 74.55 113.9 81.66C117.727 85.4467 121.52 85.4767 125.28 81.75C134.73 72.4 146.13 68.59 159.05 71.52C185.47 77.51 195.43 111.41 176.62 131.45Z" fill="#009FDF"/>
<path d="M686.96 107.76C677.07 84.09 652.57 71.96 628.65 77.86C622.06 79.48 616.67 83.2 611.4 87.91C611.21 86.71 610.93 86.06 611.03 85.47C611.93 80.37 609.84 79.02 604.79 79.18C592.48 79.57 580.14 79.38 567.82 79.26C564.71 79.23 563.5 79.96 563.51 83.42C563.62 138.85 563.62 194.28 563.51 249.72C563.51 253.07 564.53 253.88 567.74 253.84C580.73 253.67 593.72 253.63 606.71 253.86C610.35 253.92 611.08 252.69 611.06 249.32C610.92 229.35 610.97 209.37 611.02 189.39C611.02 187.81 610.52 186.12 611.72 184.25C616.86 188.86 622.27 192.85 629.08 194.46C650.56 199.54 674 189.41 684.37 169.89C695.1 149.71 695.68 128.64 686.95 107.76H686.96ZM637.73 153.67C631.28 158.07 624.21 157.89 617.38 154.23C612.98 151.87 610.28 148.37 610.94 142.93C611.22 140.64 610.99 138.28 610.99 135.95C610.99 134.79 610.99 133.62 610.99 132.46C610.99 119.37 620.39 112.32 633.04 116.14C640.28 118.32 644.33 123.61 645.41 130.95C646.7 139.75 645.8 148.17 637.72 153.68L637.73 153.67Z" fill="#009FDF"/>
<path d="M829.52 104.95C815.2 76.11 781.61 68.16 755.63 87.44C755.46 87.57 755.03 87.34 754.66 87.27C754.63 86.62 754.45 85.94 754.58 85.31C755.67 79.94 753.04 79.08 748.28 79.21C736.29 79.53 724.29 79.47 712.29 79.23C708.39 79.15 707.28 80.19 707.31 84.17C707.49 110.98 707.41 137.8 707.41 164.61C707.41 192.92 707.42 221.23 707.39 249.55C707.39 251.98 707.08 253.94 710.82 253.87C724.31 253.63 737.81 253.71 751.31 253.83C754.04 253.86 754.68 252.85 754.61 250.35C754.46 245.36 754.57 240.36 754.57 235.36C754.57 218.43 754.57 201.5 754.57 183.46C759.98 188.25 764.59 192.28 770.56 193.71C789.4 198.22 806.37 194.59 820.2 180.6C837.86 162.74 841.74 129.53 829.54 104.95H829.52ZM789.35 140.83C788.18 149.01 782.78 154.82 774.76 156.44C770.02 157.4 765.46 156.65 761.3 154.28C756.89 151.77 753.79 148.37 754.51 142.68C754.8 140.39 754.56 138.04 754.56 135.72V132.24C754.56 118.12 767.86 110.67 780.49 117.71C787.53 121.63 790.86 130.31 789.35 140.84V140.83Z" fill="#009FDF"/>
<path d="M554.42 152.89C543.79 156.74 541.44 155.03 541.44 144.15C541.44 124 541.36 103.85 541.52 83.71C541.55 80.25 540.64 79.17 537.1 79.24C525.61 79.46 514.11 79.32 502.62 79.32C497.3 79.32 494.4 82.3267 493.92 88.34C488.88 83.24 483.84 79.57 477.73 78.22C460.26 74.35 444.15 77.25 430.84 89.78C407.44 111.82 406.36 156.03 427.93 179.95C444.17 197.96 481.44 203.11 496.56 180.36C498.33 177.7 499.25 179.21 500.32 181C510.51 197.91 536.3 199.71 552.28 188.34C553.36 187.57 554.45 186.86 554.44 185.24C554.41 174.53 554.42 163.83 554.42 152.9V152.89ZM494.33 127.37C494.13 130.35 494.28 133.36 494.28 136.35V140.34C494.28 149.43 491.67 153.48 484.31 155.82C476.48 158.31 467.96 155.95 463.53 150.06C458.3 143.1 457.81 130.98 462.45 123.61C468.52 113.99 483.69 112.47 491.62 120.69C493.42 122.55 494.5 124.62 494.32 127.37H494.33Z" fill="#009FDF"/>
<path d="M532.99 14.1C528.42 13.43 523.73 13.65 519.1 13.34C516.3 13.15 515.78 14.61 515.84 16.98C515.95 21.29 515.87 25.61 515.87 29.92C515.87 42.2867 521.413 47.6167 532.5 45.91C539.86 44.78 544.49 38.96 544.61 30.68C544.74 21.42 540.6 15.21 533 14.1H532.99ZM538.47 32.91C537.55 37.65 534.83 40.66 529.76 41.05C529.26 41.09 528.76 41.12 528.26 41.16C523.827 41.52 521.607 39.5233 521.6 35.17C521.6 33.34 521.6 31.51 521.6 29.67C521.6 28.67 521.44 27.64 521.63 26.68C522.15 24.05 519.95 20.26 522.91 18.95C525.97 17.59 529.83 18.22 533.12 19.63C537.56 21.53 539.65 26.8 538.47 32.91Z" fill="#02A0DF"/>
<path d="M606.99 13.81C603.35 13.53 599.69 13.6 596.05 13.32C593.26 13.1 592.29 14.06 592.36 16.94C592.55 24.41 592.42 31.89 592.42 39.37C592.42 44.1233 594.783 46.5433 599.51 46.63C601.99 46.44 604.47 46.29 606.95 46.06C616.13 45.22 621.35 39.23 621.27 29.68C621.19 20.34 615.99 14.5 606.99 13.8V13.81ZM613.15 37.33C610.96 40.42 604.06 42.39 599.95 41.32C598.37 40.91 598.3 39.94 598.3 38.75C598.29 35.76 598.3 32.77 598.29 29.78C598.29 28.62 598.07 27.4 598.33 26.3C598.92 23.75 596.55 20.38 599.8 18.69C603.04 17.01 610.92 19.44 613.05 22.28C616 26.21 616.05 33.24 613.16 37.32L613.15 37.33Z" fill="#02A0DF"/>
<path d="M399.14 12C393.84 22.98 389.07 32.83 384.37 42.7C383.87 43.75 382.37 45.23 384.05 46.1C385.59 46.9 387.71 47.11 389.06 45.4C389.86 44.39 390.43 43.1 390.79 41.84C392.6 35.54 397.78 38.66 401.57 37.9C405.11 37.19 406.73 39.09 407.6 42.15C408.7 45.99 411.03 47.53 415.49 45.86C410.14 34.77 404.84 23.8 399.15 11.99L399.14 12ZM395.99 32.39C394.95 29.85 398.01 27.21 398.83 23.98C401.17 26.6 401.75 29.64 403.6 32.96C400.42 32.93 396.73 34.21 395.98 32.39H395.99Z" fill="#02A0DF"/>
<path d="M807.4 42.5C806.21 39.59 804.77 36.79 803.4 33.95C799.99 26.9 796.57 19.85 792.77 11.99C787.09 23.79 781.86 34.65 776.41 45.96C782.14 46.75 782.07 46.72 784.36 42.14C785.24 40.38 785.32 37.78 788.41 37.89C794.06 38.09 800.79 35.88 802.36 44.56C802.39 44.72 802.46 44.88 802.55 45.02C803.92 47.2 806.27 46.95 807.88 46.19C809.97 45.2 807.88 43.65 807.4 42.5ZM788.7 32.87C790.13 29.7 791.4 26.87 792.88 23.56C794.35 26.84 795.6 29.66 797.04 32.87H788.7Z" fill="#02A0DF"/>
</g>
<defs>
<clipPath id="clip0_0_323">
<rect width="843.98" height="255.53" fill="white"/>
</clipPath>
</defs>
</svg>
