<svg width="115" height="102" viewBox="0 0 115 102" fill="none" xmlns="http://www.w3.org/2000/svg">
<path d="M98.8317 70.898H94.2647L93.6938 69.899C93.4084 69.1854 92.4807 68.6145 91.6957 68.6145H86.7006L84.7739 66.6878C84.5598 66.4738 84.2744 66.3311 83.989 66.3311C83.989 66.3311 83.989 66.3311 83.9176 66.3311C83.3467 66.3311 82.8472 66.9019 82.8472 67.4728V80.032H74.855H74.7836C73.4278 80.032 72.1433 80.4602 71.0729 81.1738H69.1462C67.2195 81.1738 65.721 79.6752 65.721 77.7485C65.721 77.1777 65.1501 76.6068 64.5792 76.6068C63.937 76.6068 63.4375 77.1777 63.4375 77.7485C63.4375 80.8883 65.8637 83.3859 68.9321 83.4573C68.3613 84.4563 68.0045 85.6694 68.0045 86.8825V98.3C68.0045 99.5844 69.0035 100.583 70.288 100.583H74.855C76.0681 100.583 77.1385 99.5844 77.1385 98.3V91.4495H83.989V98.3C83.989 99.5844 84.988 100.583 86.2724 100.583H90.8394C92.0525 100.583 93.1229 99.5844 93.1229 98.3V81.1738H95.4064C97.904 81.1738 99.9734 79.1757 99.9734 76.6068V72.0398C99.9734 71.4689 99.4025 70.898 98.8317 70.898ZM90.8394 98.3H86.2724V89.166H74.855V98.3H70.288V86.8825C70.288 84.3849 72.286 82.3869 74.855 82.3155H83.2754L90.8394 84.2422V98.3ZM97.6899 76.6068C97.6899 77.8912 96.6195 78.8903 95.4064 78.8903H90.8394V81.8873L85.1307 80.4602V70.2558L85.7729 70.898H91.6957L92.8375 73.1815H97.6899V76.6068ZM90.8394 73.1815C90.8394 72.6107 90.2686 72.0398 89.6977 72.0398C89.0555 72.0398 88.5559 72.6107 88.5559 73.1815C88.5559 73.8238 89.0555 74.3233 89.6977 74.3233C90.2686 74.3233 90.8394 73.8238 90.8394 73.1815Z" fill="#E6007E"/>
<path d="M59.1094 14.9707C54.9972 30.2051 45.8317 23.9324 44.2644 23.5265L40.9618 25.4036L41.1856 24.5742L44.0629 22.9417C44.2648 21.6615 44.0336 18.6765 47.0892 16.4213C50.1465 14.1598 52.8339 15.0563 59.1094 14.9707ZM56.9558 17.1169C58.1334 15.7339 56.7072 16.8718 56.7072 16.8718C55.3228 18.045 53.788 18.3425 52.106 18.7166C49.9145 19.2031 46.9696 20.0337 45.5151 21.8724C44.0623 23.7047 44.8219 22.8557 45.7346 22.137C46.6536 21.42 49.0969 20.7106 50.6712 20.3553C52.858 19.8607 54.9795 19.4307 56.9558 17.1169Z" fill="#E6007E"/>
<path d="M37.9845 11.0865C37.9845 15.5263 34.3818 19.129 29.9419 19.129C25.5021 19.129 21.8994 15.5263 21.8994 11.0865C21.8994 6.64667 25.5021 3.04396 29.9419 3.04396C34.3818 3.04396 37.9845 6.64667 37.9845 11.0865ZM29.9419 25.6084C31.802 25.6084 33.5743 25.2203 35.1818 24.5339H38.5379C42.3868 24.5339 45.506 27.6531 45.506 31.5019V32.5764C45.506 33.457 44.791 34.172 43.9104 34.172H15.9735C15.0929 34.172 14.3779 33.457 14.3779 32.5764V31.5019C14.3779 27.6531 17.4971 24.5339 21.346 24.5339H24.7032C26.3135 25.2195 28.0799 25.6084 29.9419 25.6084Z" stroke="#E6007E" stroke-width="3.25588"/>
<path d="M21.0754 60.27L29.2709 61.874C29.8374 61.9848 30.2057 62.5325 30.0924 63.0953L29.8259 64.4572C29.715 65.0237 29.1674 65.392 28.6046 65.2787L22.7942 64.1478L21.6572 69.957C21.5464 70.5235 20.9988 70.8918 20.4359 70.7785L19.0704 70.5144C18.5039 70.4036 18.1356 69.8559 18.2489 69.2931L19.8529 61.0975C19.9613 60.5275 20.5089 60.1591 21.0754 60.27V60.27Z" fill="#E6007E"/>
<path d="M22.5293 62.7744C24.6042 70.3329 31.9552 84.9164 44.7602 82.7822" stroke="#E6007E" stroke-width="4.34118" stroke-linecap="round"/>
<path d="M93.6304 44.8815L85.7223 42.1981C85.1757 42.0126 84.8837 41.4207 85.0711 40.878L85.517 39.5639C85.7025 39.0173 86.2944 38.7253 86.8371 38.9127L92.4445 40.8089L94.3466 35.2034C94.5321 34.6568 95.1239 34.3649 95.6666 34.5523L96.9847 34.9963C97.5313 35.1817 97.8233 35.7736 97.6359 36.3163L94.9525 44.2245C94.7689 44.775 94.177 45.0669 93.6304 44.8815V44.8815Z" fill="#E6007E"/>
<path d="M92.5234 42.2061C91.4759 34.4383 86.1369 19.0042 73.1616 19.4104" stroke="#E6007E" stroke-width="4.34118" stroke-linecap="round"/>
</svg>
