<svg width="381" height="118" viewBox="0 0 381 118" fill="none" xmlns="http://www.w3.org/2000/svg">
<g clip-path="url(#clip0_8_983)">
<path d="M287.178 6.63165L268.246 111.352" stroke="#A6A8AC" stroke-width="2" stroke-miterlimit="10"/>
<path d="M141.95 88.6017C140.319 88.6017 139.235 87.2903 139.45 85.6635C139.773 84.0284 141.296 82.7253 142.927 82.7253H170.426C176.295 82.7253 181.949 78.0442 182.926 72.1595C183.903 66.3828 179.995 61.5937 174.126 61.5937H158.911C150.22 61.5937 144.351 54.5139 145.874 45.7907C147.397 37.0674 155.766 29.9876 164.458 29.9876H189.995C191.626 29.9876 192.603 31.1828 192.387 32.8179C192.065 34.453 190.649 35.7561 189.018 35.7561H163.481C157.935 35.7561 152.612 40.2214 151.635 45.7824C150.658 51.2271 154.458 55.8087 160.004 55.8087H175.219C179.565 55.8087 183.373 57.4437 185.98 60.606C188.588 63.6604 189.457 67.7938 188.695 72.1595C187.065 81.2064 178.48 88.61 169.458 88.61H141.958L141.95 88.6017Z" fill="#065EA7"/>
<path d="M207.379 88.6017C197.925 88.4938 191.51 80.8661 193.141 71.3876L197.487 47.0854C198.248 42.6201 200.748 38.2626 204.548 34.9925C208.24 31.8302 212.917 29.9793 217.37 29.9793H232.908C242.361 29.9793 248.669 37.6069 247.038 47.0854L242.692 71.3876C241.931 75.853 239.431 80.2104 235.739 83.4806C231.939 86.6429 227.37 88.4938 222.809 88.4938L207.379 88.6017ZM216.617 35.7561C210.317 35.7561 204.341 40.8771 203.248 47.0854L198.902 71.3876C197.818 77.596 202.056 82.717 208.356 82.717H223.678C229.87 82.717 235.847 77.596 236.939 71.3876L241.285 47.0854C242.37 40.8771 238.131 35.7561 231.939 35.7561H216.617Z" fill="#065EA7"/>
<path d="M247.262 85.6552L256.608 32.8096C256.823 31.1745 258.346 29.9793 259.869 29.9793C261.5 29.9793 262.584 31.1745 262.369 32.8096L253.023 85.6552C252.808 87.2903 251.285 88.5934 249.654 88.5934C248.131 88.5934 247.047 87.282 247.262 85.6552ZM258.677 14.7158C259.116 12.5412 261.069 10.7899 263.238 10.7899C265.407 10.7899 266.93 12.5329 266.5 14.7158C266.177 16.8987 264.107 18.6416 261.938 18.6416C259.77 18.6416 258.354 16.8987 258.677 14.7158Z" fill="#065EA7"/>
<path d="M76.2149 43.8153H97.6465L107.721 57.0951H63.3842V60.4151H118.813L111.719 75.355H98.9793V78.6749H113.913L123.234 60.4151H146.983C146.983 60.4151 144.756 58.7551 144.384 57.0951H112.199L99.8153 40.4953H76.9517L76.2315 43.8153H76.2149Z" fill="#8DC63F"/>
<path d="M59.8246 64.8888C63.066 64.8888 65.6937 62.2541 65.6937 59.0041C65.6937 55.7541 63.066 53.1195 59.8246 53.1195C56.5832 53.1195 53.9556 55.7541 53.9556 59.0041C53.9556 62.2541 56.5832 64.8888 59.8246 64.8888Z" fill="#8DC63F"/>
<path d="M71.4137 47.459C74.6551 47.459 77.2828 44.8243 77.2828 41.5743C77.2828 38.3243 74.6551 35.6897 71.4137 35.6897C68.1723 35.6897 65.5447 38.3243 65.5447 41.5743C65.5447 44.8243 68.1723 47.459 71.4137 47.459Z" fill="#8DC63F"/>
<path d="M71.4137 10.5907C74.0059 10.5907 76.1073 8.48373 76.1073 5.88465C76.1073 3.28556 74.0059 1.17859 71.4137 1.17859C68.8215 1.17859 66.7201 3.28556 66.7201 5.88465C66.7201 8.48373 68.8215 10.5907 71.4137 10.5907Z" fill="#8DC63F"/>
<path d="M71.4137 81.97C74.0059 81.97 76.1073 79.8631 76.1073 77.264C76.1073 74.6649 74.0059 72.5579 71.4137 72.5579C68.8215 72.5579 66.7201 74.6649 66.7201 77.264C66.7201 79.8631 68.8215 81.97 71.4137 81.97Z" fill="#8DC63F"/>
<path d="M71.4137 116.83C74.0059 116.83 76.1073 114.723 76.1073 112.124C76.1073 109.525 74.0059 107.418 71.4137 107.418C68.8215 107.418 66.7201 109.525 66.7201 112.124C66.7201 114.723 68.8215 116.83 71.4137 116.83Z" fill="#8DC63F"/>
<path d="M83.0028 29.1991C86.2442 29.1991 88.8719 26.5645 88.8719 23.3145C88.8719 20.0645 86.2442 17.4298 83.0028 17.4298C79.7615 17.4298 77.1338 20.0645 77.1338 23.3145C77.1338 26.5645 79.7615 29.1991 83.0028 29.1991Z" fill="#8DC63F"/>
<path d="M83.0028 98.5699C85.595 98.5699 87.6964 96.4629 87.6964 93.8638C87.6964 91.2647 85.595 89.1578 83.0028 89.1578C80.4106 89.1578 78.3092 91.2647 78.3092 93.8638C78.3092 96.4629 80.4106 98.5699 83.0028 98.5699Z" fill="#8DC63F"/>
<path d="M94.5919 11.7693C97.8333 11.7693 100.461 9.13465 100.461 5.88465C100.461 2.63465 97.8333 0 94.5919 0C91.3506 0 88.7229 2.63465 88.7229 5.88465C88.7229 9.13465 91.3506 11.7693 94.5919 11.7693Z" fill="#8DC63F"/>
<path d="M94.5919 83.1486C97.8333 83.1486 100.461 80.514 100.461 77.264C100.461 74.014 97.8333 71.3793 94.5919 71.3793C91.3506 71.3793 88.7229 74.014 88.7229 77.264C88.7229 80.514 91.3506 83.1486 94.5919 83.1486Z" fill="#8DC63F"/>
<path d="M94.5919 118.008C97.8333 118.008 100.461 115.374 100.461 112.124C100.461 108.874 97.8333 106.239 94.5919 106.239C91.3506 106.239 88.7229 108.874 88.7229 112.124C88.7229 115.374 91.3506 118.008 94.5919 118.008Z" fill="#8DC63F"/>
<path d="M106.181 29.1991C109.422 29.1991 112.05 26.5645 112.05 23.3145C112.05 20.0645 109.422 17.4298 106.181 17.4298C102.94 17.4298 100.312 20.0645 100.312 23.3145C100.312 26.5645 102.94 29.1991 106.181 29.1991Z" fill="#8DC63F"/>
<path d="M106.181 99.7485C109.422 99.7485 112.05 97.1138 112.05 93.8638C112.05 90.6138 109.422 87.9792 106.181 87.9792C102.94 87.9792 100.312 90.6138 100.312 93.8638C100.312 97.1138 102.94 99.7485 106.181 99.7485Z" fill="#8DC63F"/>
<path d="M48.2355 46.2804C50.8277 46.2804 52.929 44.1734 52.929 41.5743C52.929 38.9753 50.8277 36.8683 48.2355 36.8683C45.6433 36.8683 43.5419 38.9753 43.5419 41.5743C43.5419 44.1734 45.6433 46.2804 48.2355 46.2804Z" fill="#8DC63F"/>
<path d="M48.2355 9.41211C50.1785 9.41211 51.7536 7.83281 51.7536 5.88464C51.7536 3.93648 50.1785 2.35718 48.2355 2.35718C46.2925 2.35718 44.7174 3.93648 44.7174 5.88464C44.7174 7.83281 46.2925 9.41211 48.2355 9.41211Z" fill="#8DC63F"/>
<path d="M48.2355 114.821C50.1785 114.821 51.7536 113.242 51.7536 111.294C51.7536 109.345 50.1785 107.766 48.2355 107.766C46.2925 107.766 44.7174 109.345 44.7174 111.294C44.7174 113.242 46.2925 114.821 48.2355 114.821Z" fill="#8DC63F"/>
<path d="M48.2355 81.97C50.8277 81.97 52.929 79.8631 52.929 77.264C52.929 74.6649 50.8277 72.5579 48.2355 72.5579C45.6433 72.5579 43.5419 74.6649 43.5419 77.264C43.5419 79.8631 45.6433 81.97 48.2355 81.97Z" fill="#8DC63F"/>
<path d="M59.8246 28.0205C62.4168 28.0205 64.5182 25.9135 64.5182 23.3145C64.5182 20.7154 62.4168 18.6084 59.8246 18.6084C57.2324 18.6084 55.131 20.7154 55.131 23.3145C55.131 25.9135 57.2324 28.0205 59.8246 28.0205Z" fill="#8DC63F"/>
<path d="M25.0573 45.1018C27.0003 45.1018 28.5754 43.5225 28.5754 41.5743C28.5754 39.6262 27.0003 38.0469 25.0573 38.0469C23.1143 38.0469 21.5392 39.6262 21.5392 41.5743C21.5392 43.5225 23.1143 45.1018 25.0573 45.1018Z" fill="#8DC63F"/>
<path d="M36.6464 26.8419C38.5894 26.8419 40.1645 25.2626 40.1645 23.3145C40.1645 21.3663 38.5894 19.787 36.6464 19.787C34.7034 19.787 33.1283 21.3663 33.1283 23.3145C33.1283 25.2626 34.7034 26.8419 36.6464 26.8419Z" fill="#8DC63F"/>
<path d="M25.0573 80.7914C27.0003 80.7914 28.5754 79.2121 28.5754 77.264C28.5754 75.3158 27.0003 73.7365 25.0573 73.7365C23.1143 73.7365 21.5392 75.3158 21.5392 77.264C21.5392 79.2121 23.1143 80.7914 25.0573 80.7914Z" fill="#8DC63F"/>
<path d="M36.6464 96.6858C38.2008 96.6858 39.4609 95.4224 39.4609 93.8638C39.4609 92.3053 38.2008 91.0419 36.6464 91.0419C35.092 91.0419 33.8319 92.3053 33.8319 93.8638C33.8319 95.4224 35.092 96.6858 36.6464 96.6858Z" fill="#8DC63F"/>
<path d="M59.8246 97.3913C61.7676 97.3913 63.3428 95.812 63.3428 93.8638C63.3428 91.9157 61.7676 90.3364 59.8246 90.3364C57.8816 90.3364 56.3065 91.9157 56.3065 93.8638C56.3065 95.812 57.8816 97.3913 59.8246 97.3913Z" fill="#8DC63F"/>
<path d="M36.6463 63.7102C39.2385 63.7102 41.3399 61.6032 41.3399 59.0042C41.3399 56.4051 39.2385 54.2981 36.6463 54.2981C34.0542 54.2981 31.9528 56.4051 31.9528 59.0042C31.9528 61.6032 34.0542 63.7102 36.6463 63.7102Z" fill="#8DC63F"/>
<path d="M7.67365 43.4584C8.71144 43.4584 9.55274 42.6149 9.55274 41.5743C9.55274 40.5338 8.71144 39.6902 7.67365 39.6902C6.63585 39.6902 5.79456 40.5338 5.79456 41.5743C5.79456 42.6149 6.63585 43.4584 7.67365 43.4584Z" fill="#8DC63F"/>
<path d="M7.67365 79.148C8.71144 79.148 9.55274 78.3045 9.55274 77.264C9.55274 76.2234 8.71144 75.3799 7.67365 75.3799C6.63585 75.3799 5.79456 76.2234 5.79456 77.264C5.79456 78.3045 6.63585 79.148 7.67365 79.148Z" fill="#8DC63F"/>
<path d="M19.2628 25.1986C20.3006 25.1986 21.1418 24.3551 21.1418 23.3145C21.1418 22.274 20.3006 21.4304 19.2628 21.4304C18.225 21.4304 17.3837 22.274 17.3837 23.3145C17.3837 24.3551 18.225 25.1986 19.2628 25.1986Z" fill="#8DC63F"/>
<path d="M19.2627 62.5316C21.2058 62.5316 22.7809 60.9523 22.7809 59.0042C22.7809 57.056 21.2058 55.4767 19.2627 55.4767C17.3197 55.4767 15.7446 57.056 15.7446 59.0042C15.7446 60.9523 17.3197 62.5316 19.2627 62.5316Z" fill="#8DC63F"/>
<path d="M1.87909 60.8882C2.91688 60.8882 3.75818 60.0447 3.75818 59.0041C3.75818 57.9636 2.91688 57.1201 1.87909 57.1201C0.841297 57.1201 0 57.9636 0 59.0041C0 60.0447 0.841297 60.8882 1.87909 60.8882Z" fill="#8DC63F"/>
<path d="M19.2628 95.7479C20.3006 95.7479 21.1418 94.9044 21.1418 93.8638C21.1418 92.8233 20.3006 91.9797 19.2628 91.9797C18.225 91.9797 17.3837 92.8233 17.3837 93.8638C17.3837 94.9044 18.225 95.7479 19.2628 95.7479Z" fill="#8DC63F"/>
<path d="M301.896 41.0431L304.173 28.062C304.222 27.7715 304.495 27.5308 304.793 27.5308H311.184C312.186 27.5308 313.063 27.9292 313.643 28.643C314.222 29.3568 314.462 30.303 314.296 31.3073L314.189 31.8385C314.023 32.8594 313.444 33.8139 312.624 34.5194C311.788 35.2332 310.77 35.6149 309.76 35.6149H303.916L302.972 41.0431C302.914 41.3336 302.641 41.5743 302.335 41.5743C302.045 41.5743 301.846 41.3336 301.896 41.0431ZM304.098 34.5443H309.942C311.416 34.5443 312.856 33.3408 313.113 31.8385L313.22 31.3073C313.477 29.8133 312.475 28.6015 310.994 28.6015H305.149L304.09 34.536L304.098 34.5443Z" fill="#969696"/>
<path d="M316.921 41.5743C315.34 41.5743 314.263 40.2795 314.537 38.6859C314.826 37.1006 316.341 35.7976 317.922 35.7976H322.003L322.227 34.6107C322.409 33.5732 321.697 32.71 320.662 32.71H316.656C316.399 32.71 316.217 32.4942 316.275 32.2203C316.308 31.9464 316.565 31.7472 316.821 31.7472H320.828C322.409 31.7472 323.468 33.0254 323.195 34.619L322.045 41.0846C322.012 41.3585 321.771 41.5743 321.498 41.5743H316.929H316.921ZM317.757 36.7686C316.697 36.7686 315.695 37.6235 315.497 38.6859C315.315 39.7234 316.027 40.5866 317.078 40.5866H321.159L321.829 36.7686H317.748H317.757Z" fill="#969696"/>
<path d="M331.746 42.9189C331.473 44.5125 329.983 45.7907 328.41 45.7907H324.098C323.808 45.7907 323.626 45.55 323.675 45.2761C323.708 45.0022 323.99 44.7615 324.28 44.7615H328.592C329.594 44.7615 330.563 43.9398 330.72 42.9189L331.084 40.8937C330.521 41.317 329.842 41.566 329.155 41.566H326.821C325.24 41.566 324.18 40.2878 324.454 38.7025L325.182 34.6107C325.306 33.8471 325.728 33.1333 326.349 32.6021C326.987 32.0543 327.756 31.7472 328.501 31.7472H330.869C332.433 31.7472 333.493 33.0254 333.22 34.619L331.746 42.9272V42.9189ZM332.202 34.6107C332.384 33.5898 331.688 32.7681 330.687 32.7681H328.352C327.334 32.7681 326.382 33.5898 326.2 34.6107L325.472 38.7025C325.29 39.7234 325.968 40.5451 326.987 40.5451H329.321C330.323 40.5451 331.291 39.7234 331.473 38.7025L332.202 34.6107Z" fill="#969696"/>
<path d="M336.887 41.5743C335.306 41.5577 334.23 40.2795 334.503 38.6859L335.231 34.6107C335.355 33.8637 335.778 33.1333 336.415 32.5855C337.036 32.0543 337.814 31.7472 338.567 31.7472H341.175C342.756 31.7472 343.816 33.0254 343.542 34.619L342.814 38.6942C342.69 39.4412 342.268 40.1716 341.647 40.7194C341.009 41.2506 340.248 41.5577 339.478 41.5577L336.895 41.5743H336.887ZM338.435 32.7183C337.375 32.7183 336.374 33.5732 336.192 34.619L335.463 38.6942C335.281 39.7317 335.993 40.5949 337.044 40.5949H339.61C340.645 40.5949 341.647 39.74 341.829 38.6942L342.557 34.619C342.739 33.5815 342.027 32.7183 340.993 32.7183H338.427H338.435Z" fill="#969696"/>
<path d="M344.734 41.5743C344.461 41.5743 344.279 41.3585 344.312 41.0846C344.37 40.8107 344.627 40.5949 344.9 40.5949H349.511C350.496 40.5949 351.44 39.8064 351.605 38.827C351.771 37.8559 351.108 37.0591 350.132 37.0591H347.582C346.125 37.0591 345.14 35.8723 345.397 34.4115C345.653 32.9507 347.052 31.7638 348.509 31.7638H352.789C353.062 31.7638 353.228 31.963 353.186 32.2369C353.128 32.5108 352.896 32.7266 352.623 32.7266H348.344C347.416 32.7266 346.522 33.4736 346.357 34.4032C346.191 35.3162 346.829 36.0798 347.764 36.0798H350.314C351.042 36.0798 351.68 36.3536 352.118 36.8848C352.557 37.3994 352.706 38.0883 352.574 38.8187C352.3 40.3376 350.86 41.5743 349.353 41.5743H344.743H344.734Z" fill="#969696"/>
<path d="M363.947 31.7472H366.282C366.977 31.7472 367.573 32.0045 367.995 32.4195L368.757 28.0371C368.815 27.7632 369.088 27.5225 369.361 27.5225C369.651 27.5225 369.833 27.7632 369.783 28.0371L367.904 38.7025C367.631 40.2878 366.141 41.566 364.568 41.566H362.201C361.456 41.566 360.777 41.2589 360.363 40.7277C359.908 40.1799 359.742 39.4661 359.875 38.7025L360.603 34.6107C360.876 33.0171 362.366 31.7389 363.956 31.7389L363.947 31.7472ZM360.885 38.7025C360.702 39.7234 361.381 40.5451 362.399 40.5451H364.734C365.735 40.5451 366.704 39.7234 366.886 38.7025L367.615 34.6107C367.797 33.5898 367.101 32.7681 366.1 32.7681H363.765C362.747 32.7681 361.795 33.5898 361.613 34.6107L360.885 38.7025Z" fill="#969696"/>
<path d="M372.374 41.5743C370.793 41.5743 369.717 40.2795 369.99 38.6859L370.719 34.6107C370.992 33.0171 372.507 31.7389 374.088 31.7389H376.455C378.037 31.7389 379.113 33.0171 378.84 34.6107L378.459 36.7105C378.426 36.9844 378.169 37.2002 377.896 37.2002H371.232L370.959 38.6776C370.777 39.7151 371.489 40.5783 372.54 40.5783H377.151C377.407 40.5783 377.59 40.7941 377.532 41.068C377.498 41.3419 377.242 41.5411 376.985 41.5411L372.374 41.5577V41.5743ZM373.922 32.7183C372.863 32.7183 371.861 33.5732 371.679 34.619L371.389 36.2291H377.581L377.871 34.619C378.053 33.5815 377.341 32.7183 376.282 32.7183H373.914H373.922Z" fill="#969696"/>
<path d="M298.494 65.1461C298.188 65.1461 297.981 64.9054 298.039 64.6149C298.088 64.3078 298.361 64.0671 298.676 64.0671H304.686C306.234 64.0671 307.707 62.8055 307.98 61.27C308.253 59.7179 307.219 58.4729 305.687 58.4563H302.649C300.613 58.4563 299.264 56.8129 299.603 54.7878C299.967 52.746 301.896 51.0943 303.941 51.0943H309.586C309.876 51.0943 310.075 51.335 310.025 51.6255C309.975 51.9326 309.702 52.1733 309.404 52.1733H303.759C302.318 52.1733 300.936 53.3436 300.679 54.7878C300.439 56.2154 301.391 57.3773 302.831 57.3773H305.853C306.888 57.3773 307.798 57.7757 308.419 58.5061C309.007 59.2365 309.239 60.2242 309.056 61.2617C308.874 62.2826 308.295 63.2703 307.434 64.0007C306.557 64.7311 305.538 65.1295 304.504 65.1295H298.494V65.1461Z" fill="#969696"/>
<path d="M312.806 65.1461C311.225 65.1461 310.149 63.8513 310.422 62.2577L311.151 58.1824C311.424 56.5889 312.939 55.3107 314.52 55.3107H316.887C318.469 55.3107 319.545 56.5889 319.272 58.1824L318.891 60.2823C318.858 60.5562 318.601 60.772 318.328 60.772H311.664L311.391 62.2494C311.209 63.2869 311.921 64.1501 312.972 64.1501H317.583C317.839 64.1501 318.022 64.3659 317.964 64.6398C317.93 64.9137 317.674 65.1129 317.417 65.1129L312.806 65.1295V65.1461ZM314.354 56.2901C313.295 56.2901 312.293 57.145 312.111 58.1907L311.821 59.8009H318.013L318.303 58.1907C318.485 57.1533 317.773 56.2901 316.722 56.2901H314.354Z" fill="#969696"/>
<path d="M327.649 66.4907C327.376 68.0842 325.886 69.3624 324.313 69.3624H320C319.71 69.3624 319.528 69.1217 319.578 68.8478C319.611 68.5739 319.884 68.3332 320.174 68.3332H324.487C325.488 68.3332 326.457 67.5116 326.614 66.4907L326.978 64.4655C326.415 64.8888 325.737 65.1378 325.049 65.1378H322.715C321.126 65.1378 320.074 63.8596 320.348 62.2743L321.076 58.1824C321.2 57.4188 321.622 56.7051 322.243 56.1739C322.881 55.6261 323.642 55.319 324.395 55.319H326.763C328.327 55.319 329.387 56.5972 329.114 58.1907L327.64 66.499L327.649 66.4907ZM328.104 58.1824C328.286 57.1615 327.591 56.3399 326.589 56.3399H324.255C323.237 56.3399 322.285 57.1615 322.102 58.1824L321.374 62.2743C321.192 63.2952 321.862 64.1169 322.889 64.1169H325.223C326.225 64.1169 327.193 63.2952 327.376 62.2743L328.104 58.1824Z" fill="#969696"/>
<path d="M332.748 65.1461C332.003 65.1295 331.324 64.8141 330.894 64.2912C330.438 63.7434 330.273 63.013 330.405 62.266L331.548 55.8004C331.581 55.5265 331.837 55.3273 332.111 55.3273C332.367 55.3273 332.549 55.5265 332.508 55.8004L331.366 62.266C331.183 63.2869 331.879 64.1501 332.914 64.1667H335.173C336.192 64.1501 337.177 63.2869 337.359 62.266L338.509 55.8004C338.543 55.5265 338.799 55.3273 339.072 55.3273C339.345 55.3273 339.511 55.5265 339.47 55.8004L338.319 62.266C338.195 63.013 337.773 63.7434 337.152 64.2912C336.514 64.8224 335.753 65.1295 334.983 65.1461H332.74H332.748Z" fill="#969696"/>
<path d="M339.908 64.6647L341.059 58.199C341.183 57.4521 341.605 56.7217 342.243 56.1739C342.864 55.6427 343.65 55.3356 344.395 55.3356H346.638C346.912 55.3356 347.094 55.5348 347.061 55.8087C347.003 56.0826 346.746 56.2984 346.473 56.2984H344.229C343.195 56.315 342.193 57.1782 342.028 58.199L340.877 64.6647C340.827 64.9386 340.587 65.1378 340.331 65.1378C340.057 65.1378 339.859 64.9386 339.908 64.6647Z" fill="#969696"/>
<path d="M347.392 64.6481L348.956 55.792C348.989 55.5181 349.246 55.3189 349.502 55.3189C349.776 55.3189 349.958 55.5181 349.925 55.792L348.36 64.6481C348.327 64.922 348.07 65.1378 347.797 65.1378C347.541 65.1378 347.358 64.922 347.4 64.6481H347.392ZM349.304 52.7626C349.378 52.3974 349.701 52.1069 350.065 52.1069C350.43 52.1069 350.686 52.3974 350.612 52.7626C350.554 53.1278 350.214 53.4183 349.85 53.4183C349.486 53.4183 349.246 53.1278 349.304 52.7626Z" fill="#969696"/>
<path d="M355.115 55.319H357.449C358.145 55.319 358.741 55.5763 359.163 55.9913L359.924 51.6089C359.982 51.335 360.255 51.0943 360.529 51.0943C360.818 51.0943 361.001 51.335 360.951 51.6089L359.072 62.2743C358.799 63.8596 357.309 65.1378 355.736 65.1378H353.368C352.623 65.1378 351.944 64.8307 351.531 64.2995C351.075 63.7517 350.91 63.0379 351.042 62.2743L351.771 58.1824C352.044 56.5888 353.534 55.3107 355.123 55.3107L355.115 55.319ZM352.052 62.2743C351.87 63.2952 352.549 64.1169 353.567 64.1169H355.901C356.903 64.1169 357.871 63.2952 358.054 62.2743L358.782 58.1824C358.964 57.1615 358.269 56.3398 357.267 56.3398H354.933C353.915 56.3398 352.963 57.1615 352.781 58.1824L352.052 62.2743Z" fill="#969696"/>
<path d="M363.542 65.1461C361.961 65.1461 360.885 63.8513 361.158 62.2577C361.447 60.6724 362.962 59.3693 364.543 59.3693H368.624L368.848 58.1824C369.03 57.145 368.318 56.2818 367.283 56.2818H363.277C363.02 56.2818 362.838 56.066 362.896 55.7921C362.929 55.5182 363.186 55.319 363.442 55.319H367.449C369.03 55.319 370.09 56.5972 369.816 58.1907L368.666 64.6564C368.633 64.9303 368.393 65.1461 368.119 65.1461H363.55H363.542ZM364.378 60.3404C363.318 60.3404 362.317 61.1953 362.118 62.2577C361.936 63.2952 362.648 64.1584 363.699 64.1584H367.78L368.451 60.3404H364.37H364.378Z" fill="#969696"/>
<path d="M375.164 55.319H377.498C378.194 55.319 378.79 55.5763 379.212 55.9913L379.974 51.6089C380.032 51.335 380.305 51.0943 380.578 51.0943C380.868 51.0943 381.05 51.335 381 51.6089L379.121 62.2743C378.848 63.8596 377.358 65.1378 375.785 65.1378H373.417C372.672 65.1378 371.994 64.8307 371.58 64.2995C371.124 63.7517 370.959 63.0379 371.091 62.2743L371.82 58.1824C372.093 56.5888 373.583 55.3107 375.172 55.3107L375.164 55.319ZM372.101 62.2743C371.919 63.2952 372.598 64.1169 373.616 64.1169H375.951C376.952 64.1169 377.921 63.2952 378.103 62.2743L378.831 58.1824C379.013 57.1615 378.318 56.3398 377.316 56.3398H374.982C373.964 56.3398 373.012 57.1615 372.83 58.1824L372.101 62.2743Z" fill="#969696"/>
<path d="M294.123 88.7178C293.809 88.7178 293.61 88.4771 293.668 88.1867C293.726 87.8796 293.999 87.6389 294.305 87.6389H300.315C301.863 87.6389 303.336 86.3773 303.61 84.8418C303.883 83.2897 302.848 82.0447 301.317 82.0281H298.27C296.234 82.0281 294.885 80.3847 295.232 78.3595C295.597 76.3178 297.525 74.6661 299.57 74.6661H305.216C305.505 74.6661 305.704 74.9068 305.654 75.1973C305.596 75.5044 305.323 75.7451 305.033 75.7451H299.388C297.948 75.7451 296.565 76.9154 296.309 78.3595C296.068 79.7871 297.02 80.9491 298.461 80.9491H301.482C302.517 80.9491 303.436 81.3475 304.048 82.0779C304.628 82.8083 304.868 83.796 304.686 84.8335C304.504 85.8544 303.924 86.8421 303.063 87.5725C302.186 88.3029 301.168 88.7012 300.133 88.7012H294.123V88.7178Z" fill="#969696"/>
<path d="M308.709 88.7179C307.128 88.7013 306.052 87.4231 306.325 85.8295L307.053 81.7542C307.177 81.0072 307.6 80.2768 308.237 79.729C308.858 79.1978 309.644 78.8907 310.389 78.8907H312.997C314.578 78.8907 315.637 80.1689 315.364 81.7625L314.636 85.8378C314.512 86.5848 314.089 87.3152 313.469 87.863C312.831 88.3942 312.061 88.7013 311.3 88.7013L308.717 88.7179H308.709ZM310.257 79.8618C309.197 79.8618 308.196 80.7167 308.013 81.7625L307.285 85.8378C307.103 86.8753 307.815 87.7385 308.866 87.7385H311.432C312.467 87.7385 313.469 86.8836 313.659 85.8378L314.387 81.7625C314.57 80.725 313.858 79.8618 312.823 79.8618H310.257Z" fill="#969696"/>
<path d="M323.957 88.2365C323.899 88.5104 323.642 88.7262 323.369 88.7262L318.982 88.7096C318.237 88.7096 317.541 88.4025 317.127 87.8713C316.672 87.3235 316.507 86.5931 316.639 85.8461L317.368 81.7708C317.492 81.0238 317.914 80.2934 318.551 79.7456C319.172 79.2144 319.95 78.9073 320.704 78.9073H325.116C325.389 78.9073 325.571 79.1065 325.538 79.3804C325.48 79.6543 325.223 79.8701 324.95 79.8701H320.579C319.52 79.8701 318.518 80.725 318.336 81.7708L317.608 85.8461C317.425 86.8836 318.137 87.7468 319.189 87.7468H323.559C323.833 87.7468 324.015 87.9626 323.957 88.2365Z" fill="#969696"/>
<path d="M326.051 88.2198L327.616 79.3638C327.649 79.0899 327.905 78.8907 328.162 78.8907C328.435 78.8907 328.617 79.0899 328.584 79.3638L327.02 88.2198C326.987 88.4937 326.73 88.7095 326.457 88.7095C326.2 88.7095 326.018 88.4937 326.059 88.2198H326.051ZM327.963 76.3343C328.038 75.9691 328.361 75.6786 328.725 75.6786C329.089 75.6786 329.346 75.9691 329.271 76.3343C329.222 76.6995 328.874 76.99 328.51 76.99C328.145 76.99 327.905 76.6995 327.963 76.3343Z" fill="#969696"/>
<path d="M332.077 88.7179C330.496 88.7179 329.42 87.4231 329.693 85.8295C329.983 84.2442 331.498 82.9411 333.079 82.9411H337.16L337.375 81.7542C337.557 80.7167 336.846 79.8535 335.811 79.8535H331.804C331.548 79.8535 331.366 79.6377 331.423 79.3638C331.457 79.0899 331.713 78.8907 331.97 78.8907H335.976C337.557 78.8907 338.617 80.1689 338.344 81.7625L337.193 88.2282C337.16 88.5021 336.92 88.7179 336.647 88.7179H332.077ZM332.914 83.9122C331.854 83.9122 330.852 84.7671 330.654 85.8295C330.472 86.867 331.183 87.7302 332.235 87.7302H336.316L336.986 83.9122H332.905H332.914Z" fill="#969696"/>
<path d="M339.379 88.2199L341.671 75.1641C341.729 74.8902 341.986 74.6744 342.259 74.6744C342.532 74.6744 342.715 74.8902 342.657 75.1641L340.364 88.2199C340.33 88.4937 340.074 88.7095 339.801 88.7095C339.527 88.7095 339.345 88.4937 339.379 88.2199Z" fill="#969696"/>
<path d="M153.92 23.3145C152.082 23.3145 150.832 21.8122 151.147 19.9613C151.486 18.1187 153.241 16.6082 155.079 16.6082H159.822L160.079 15.2304C160.294 14.0186 159.466 13.0226 158.257 13.0226H153.605C153.307 13.0226 153.1 12.7653 153.158 12.4499C153.2 12.1345 153.498 11.9021 153.796 11.9021H158.448C160.286 11.9021 161.519 13.3878 161.196 15.2304L159.863 22.7418C159.822 23.0572 159.549 23.3145 159.226 23.3145H153.912H153.92ZM154.897 17.7369C153.672 17.7369 152.504 18.7329 152.273 19.9613C152.066 21.1731 152.885 22.1691 154.11 22.1691H158.853L159.64 17.7369H154.905H154.897Z" fill="#065EA7"/>
<path d="M169.921 22.7584C169.855 23.0738 169.565 23.3311 169.242 23.3311L164.143 23.3062C163.274 23.3062 162.471 22.9493 161.983 22.3268C161.453 21.6877 161.262 20.8411 161.411 19.9696L162.256 15.2387C162.405 14.3672 162.893 13.5206 163.63 12.8815C164.35 12.2673 165.261 11.9021 166.13 11.9021H171.246C171.56 11.9021 171.775 12.1345 171.734 12.4499C171.668 12.7653 171.378 13.0226 171.055 13.0226H165.981C164.756 13.0226 163.588 14.0186 163.382 15.2304L162.537 19.9613C162.33 21.1731 163.15 22.1691 164.375 22.1691H169.449C169.764 22.1691 169.979 22.4264 169.913 22.7418L169.921 22.7584Z" fill="#065EA7"/>
<path d="M181.535 15.2303L180.202 22.7169C180.161 23.0323 179.863 23.3145 179.523 23.3145C179.209 23.3145 178.977 23.0406 179.019 22.7169L180.351 15.2303C180.558 14.0435 179.755 13.089 178.596 13.089H175.889C174.706 13.089 173.605 14.0435 173.39 15.2303L172.057 22.7169C172.015 23.0323 171.701 23.3145 171.378 23.3145C171.055 23.3145 170.823 23.0406 170.873 22.7169L173.539 7.59442C173.605 7.27902 173.919 6.99683 174.234 6.99683C174.548 6.99683 174.789 7.27072 174.722 7.59442L173.837 12.6823C174.491 12.1926 175.293 11.8938 176.096 11.8938H178.803C180.624 11.8938 181.85 13.3795 181.535 15.222V15.2303Z" fill="#065EA7"/>
</g>
<defs>
<clipPath id="clip0_8_983">
<rect width="381" height="118" fill="white"/>
</clipPath>
</defs>
</svg>
