<svg width="148" height="24" viewBox="0 0 148 24" fill="none" xmlns="http://www.w3.org/2000/svg">
<path fill-rule="evenodd" clip-rule="evenodd" d="M12 0.75C18.2032 0.75 23.25 5.79675 23.25 12C23.25 18.2032 18.2032 23.25 12 23.25C5.79675 23.25 0.75 18.2032 0.75 12C0.75 5.79675 5.79675 0.75 12 0.75ZM12 2.25C6.624 2.25 2.25 6.624 2.25 12C2.25 17.376 6.624 21.75 12 21.75C17.376 21.75 21.75 17.376 21.75 12C21.75 6.624 17.376 2.25 12 2.25ZM12 7.5C12.4148 7.5 12.75 7.83525 12.75 8.25V11.25H15.75C16.1648 11.25 16.5 11.5852 16.5 12C16.5 12.4148 16.1648 12.75 15.75 12.75H12.75V15.75C12.75 16.1648 12.4148 16.5 12 16.5C11.5852 16.5 11.25 16.1648 11.25 15.75V12.75H8.25C7.83525 12.75 7.5 12.4148 7.5 12C7.5 11.5852 7.83525 11.25 8.25 11.25H11.25V8.25C11.25 7.83525 11.5852 7.5 12 7.5Z" fill="#007DB7"/>
<path d="M44.518 17.308C45.334 17.308 45.928 17.17 46.3 16.894C46.672 16.618 46.858 16.228 46.858 15.724C46.858 15.424 46.792 15.166 46.66 14.95C46.54 14.734 46.36 14.542 46.12 14.374C45.892 14.194 45.61 14.032 45.274 13.888C44.938 13.732 44.554 13.582 44.122 13.438C43.69 13.282 43.27 13.114 42.862 12.934C42.466 12.742 42.112 12.508 41.8 12.232C41.5 11.956 41.254 11.626 41.062 11.242C40.882 10.858 40.792 10.396 40.792 9.85598C40.792 8.72798 41.182 7.84598 41.962 7.20998C42.742 6.56198 43.804 6.23798 45.148 6.23798C45.928 6.23798 46.618 6.32798 47.218 6.50798C47.83 6.67598 48.31 6.86198 48.658 7.06598L47.956 8.90198C47.548 8.67398 47.098 8.49998 46.606 8.37998C46.126 8.25998 45.628 8.19998 45.112 8.19998C44.5 8.19998 44.02 8.32598 43.672 8.57798C43.336 8.82998 43.168 9.18398 43.168 9.63998C43.168 9.91598 43.222 10.156 43.33 10.36C43.45 10.552 43.612 10.726 43.816 10.882C44.032 11.038 44.278 11.182 44.554 11.314C44.842 11.446 45.154 11.572 45.49 11.692C46.078 11.908 46.6 12.13 47.056 12.358C47.524 12.574 47.914 12.838 48.226 13.15C48.55 13.45 48.796 13.81 48.964 14.23C49.132 14.638 49.216 15.136 49.216 15.724C49.216 16.852 48.814 17.728 48.01 18.352C47.218 18.964 46.054 19.27 44.518 19.27C44.002 19.27 43.528 19.234 43.096 19.162C42.676 19.102 42.298 19.024 41.962 18.928C41.638 18.832 41.356 18.736 41.116 18.64C40.876 18.532 40.684 18.436 40.54 18.352L41.206 16.498C41.53 16.678 41.968 16.858 42.52 17.038C43.072 17.218 43.738 17.308 44.518 17.308Z" fill="#007DB7"/>
<path d="M58.8287 18.712C58.4087 18.82 57.8627 18.928 57.1907 19.036C56.5187 19.156 55.7807 19.216 54.9767 19.216C54.2207 19.216 53.5847 19.108 53.0687 18.892C52.5647 18.676 52.1567 18.376 51.8447 17.992C51.5447 17.608 51.3287 17.152 51.1967 16.624C51.0647 16.084 50.9987 15.496 50.9987 14.86V9.58598H53.1767V14.518C53.1767 15.526 53.3207 16.246 53.6087 16.678C53.9087 17.11 54.4247 17.326 55.1567 17.326C55.4207 17.326 55.6967 17.314 55.9847 17.29C56.2847 17.266 56.5067 17.236 56.6507 17.2V9.58598H58.8287V18.712Z" fill="#007DB7"/>
<path d="M67.8468 14.266C67.8468 13.342 67.6608 12.61 67.2888 12.07C66.9288 11.53 66.3528 11.26 65.5608 11.26C65.2008 11.26 64.8588 11.314 64.5348 11.422C64.2228 11.53 63.9708 11.65 63.7788 11.782V17.2C63.9348 17.236 64.1328 17.272 64.3728 17.308C64.6248 17.332 64.9248 17.344 65.2728 17.344C66.0768 17.344 66.7068 17.074 67.1628 16.534C67.6188 15.982 67.8468 15.226 67.8468 14.266ZM70.0788 14.302C70.0788 15.058 69.9648 15.742 69.7368 16.354C69.5208 16.954 69.2028 17.47 68.7828 17.902C68.3748 18.334 67.8768 18.664 67.2888 18.892C66.7008 19.12 66.0348 19.234 65.2908 19.234C64.5708 19.234 63.8808 19.18 63.2208 19.072C62.5728 18.964 62.0328 18.844 61.6008 18.712V5.39198L63.7788 5.03198V9.90998C64.0308 9.77798 64.3368 9.65798 64.6968 9.54998C65.0688 9.44198 65.4768 9.38798 65.9208 9.38798C66.5808 9.38798 67.1688 9.50798 67.6848 9.74798C68.2128 9.97598 68.6508 10.306 68.9988 10.738C69.3468 11.17 69.6108 11.692 69.7908 12.304C69.9828 12.904 70.0788 13.57 70.0788 14.302Z" fill="#007DB7"/>
<path d="M74.5195 19H72.3415V9.58598H74.5195V19ZM74.7535 6.83198C74.7535 7.23998 74.6215 7.56398 74.3575 7.80398C74.0935 8.04398 73.7815 8.16398 73.4215 8.16398C73.0495 8.16398 72.7315 8.04398 72.4675 7.80398C72.2035 7.56398 72.0715 7.23998 72.0715 6.83198C72.0715 6.41198 72.2035 6.08198 72.4675 5.84198C72.7315 5.60198 73.0495 5.48198 73.4215 5.48198C73.7815 5.48198 74.0935 5.60198 74.3575 5.84198C74.6215 6.08198 74.7535 6.41198 74.7535 6.83198Z" fill="#007DB7"/>
<path d="M82.6621 11.548C82.4821 11.488 82.2301 11.428 81.9061 11.368C81.5941 11.296 81.2281 11.26 80.8081 11.26C80.5681 11.26 80.3101 11.284 80.0341 11.332C79.7701 11.38 79.5841 11.422 79.4761 11.458V19H77.2981V10.036C77.7181 9.87998 78.2401 9.73598 78.8641 9.60398C79.5001 9.45998 80.2021 9.38798 80.9701 9.38798C81.1141 9.38798 81.2821 9.39998 81.4741 9.42398C81.6661 9.43598 81.8581 9.45998 82.0501 9.49598C82.2421 9.51998 82.4281 9.55598 82.6081 9.60398C82.7881 9.63998 82.9321 9.67598 83.0401 9.71198L82.6621 11.548Z" fill="#007DB7"/>
<path d="M92.071 17.47C92.743 17.47 93.253 17.434 93.601 17.362V14.95C93.481 14.914 93.307 14.878 93.079 14.842C92.851 14.806 92.599 14.788 92.323 14.788C92.083 14.788 91.837 14.806 91.585 14.842C91.345 14.878 91.123 14.944 90.919 15.04C90.727 15.136 90.571 15.274 90.451 15.454C90.331 15.622 90.271 15.838 90.271 16.102C90.271 16.618 90.433 16.978 90.757 17.182C91.081 17.374 91.519 17.47 92.071 17.47ZM91.891 9.35198C92.611 9.35198 93.217 9.44198 93.709 9.62198C94.201 9.80198 94.591 10.054 94.879 10.378C95.179 10.702 95.389 11.098 95.509 11.566C95.641 12.022 95.707 12.526 95.707 13.078V18.784C95.371 18.856 94.861 18.94 94.177 19.036C93.505 19.144 92.743 19.198 91.891 19.198C91.327 19.198 90.811 19.144 90.343 19.036C89.875 18.928 89.473 18.754 89.137 18.514C88.813 18.274 88.555 17.962 88.363 17.578C88.183 17.194 88.093 16.72 88.093 16.156C88.093 15.616 88.195 15.16 88.399 14.788C88.615 14.416 88.903 14.116 89.263 13.888C89.623 13.648 90.037 13.48 90.505 13.384C90.985 13.276 91.483 13.222 91.999 13.222C92.239 13.222 92.491 13.24 92.755 13.276C93.019 13.3 93.301 13.348 93.601 13.42V13.06C93.601 12.808 93.571 12.568 93.511 12.34C93.451 12.112 93.343 11.914 93.187 11.746C93.043 11.566 92.845 11.428 92.593 11.332C92.353 11.236 92.047 11.188 91.675 11.188C91.171 11.188 90.709 11.224 90.289 11.296C89.869 11.368 89.527 11.452 89.263 11.548L88.993 9.78398C89.269 9.68798 89.671 9.59198 90.199 9.49598C90.727 9.39998 91.291 9.35198 91.891 9.35198Z" fill="#007DB7"/>
<path d="M103.738 11.548C103.558 11.488 103.306 11.428 102.982 11.368C102.67 11.296 102.304 11.26 101.884 11.26C101.644 11.26 101.386 11.284 101.11 11.332C100.846 11.38 100.66 11.422 100.552 11.458V19H98.3743V10.036C98.7943 9.87998 99.3163 9.73598 99.9403 9.60398C100.576 9.45998 101.278 9.38798 102.046 9.38798C102.19 9.38798 102.358 9.39998 102.55 9.42398C102.742 9.43598 102.934 9.45998 103.126 9.49598C103.318 9.51998 103.504 9.55598 103.684 9.60398C103.864 9.63998 104.008 9.67598 104.116 9.71198L103.738 11.548Z" fill="#007DB7"/>
<path d="M105.112 14.302C105.112 13.606 105.22 12.958 105.436 12.358C105.652 11.746 105.958 11.218 106.354 10.774C106.762 10.33 107.254 9.98198 107.83 9.72998C108.406 9.47798 109.054 9.35198 109.774 9.35198C110.662 9.35198 111.502 9.51398 112.294 9.83798L111.826 11.62C111.574 11.512 111.286 11.422 110.962 11.35C110.65 11.278 110.314 11.242 109.954 11.242C109.102 11.242 108.454 11.512 108.01 12.052C107.566 12.58 107.344 13.33 107.344 14.302C107.344 15.238 107.554 15.982 107.974 16.534C108.394 17.074 109.102 17.344 110.098 17.344C110.47 17.344 110.836 17.308 111.196 17.236C111.556 17.164 111.868 17.074 112.132 16.966L112.438 18.766C112.198 18.886 111.832 18.994 111.34 19.09C110.86 19.186 110.362 19.234 109.846 19.234C109.042 19.234 108.34 19.114 107.74 18.874C107.152 18.622 106.66 18.28 106.264 17.848C105.88 17.404 105.592 16.882 105.4 16.282C105.208 15.67 105.112 15.01 105.112 14.302Z" fill="#007DB7"/>
<path d="M114.124 19V5.39198L116.302 5.03198V9.69398C116.542 9.60998 116.818 9.53798 117.13 9.47798C117.454 9.41798 117.772 9.38798 118.084 9.38798C118.84 9.38798 119.464 9.49598 119.956 9.71198C120.46 9.91598 120.862 10.21 121.162 10.594C121.462 10.966 121.672 11.416 121.792 11.944C121.924 12.472 121.99 13.06 121.99 13.708V19H119.812V14.05C119.812 13.546 119.776 13.12 119.704 12.772C119.644 12.412 119.536 12.124 119.38 11.908C119.236 11.68 119.038 11.518 118.786 11.422C118.534 11.314 118.222 11.26 117.85 11.26C117.562 11.26 117.268 11.29 116.968 11.35C116.668 11.41 116.446 11.464 116.302 11.512V19H114.124Z" fill="#007DB7"/>
<path d="M126.797 19H124.619V9.58598H126.797V19ZM127.031 6.83198C127.031 7.23998 126.899 7.56398 126.635 7.80398C126.371 8.04398 126.059 8.16398 125.699 8.16398C125.327 8.16398 125.009 8.04398 124.745 7.80398C124.481 7.56398 124.349 7.23998 124.349 6.83198C124.349 6.41198 124.481 6.08198 124.745 5.84198C125.009 5.60198 125.327 5.48198 125.699 5.48198C126.059 5.48198 126.371 5.60198 126.635 5.84198C126.899 6.08198 127.031 6.41198 127.031 6.83198Z" fill="#007DB7"/>
<path d="M131.987 19C131.387 17.764 130.769 16.348 130.133 14.752C129.509 13.144 128.939 11.422 128.423 9.58598H130.745C130.877 10.114 131.027 10.684 131.195 11.296C131.375 11.896 131.561 12.502 131.753 13.114C131.957 13.714 132.161 14.302 132.365 14.878C132.581 15.442 132.779 15.952 132.959 16.408C133.139 15.952 133.331 15.442 133.535 14.878C133.739 14.302 133.937 13.714 134.129 13.114C134.333 12.502 134.525 11.896 134.705 11.296C134.885 10.684 135.041 10.114 135.173 9.58598H137.423C136.907 11.422 136.331 13.144 135.695 14.752C135.071 16.348 134.459 17.764 133.859 19H131.987Z" fill="#007DB7"/>
<path d="M147.353 14.284C147.353 15.028 147.245 15.706 147.029 16.318C146.813 16.93 146.507 17.452 146.111 17.884C145.715 18.316 145.235 18.652 144.671 18.892C144.119 19.132 143.507 19.252 142.835 19.252C142.163 19.252 141.551 19.132 140.999 18.892C140.447 18.652 139.973 18.316 139.577 17.884C139.181 17.452 138.869 16.93 138.641 16.318C138.425 15.706 138.317 15.028 138.317 14.284C138.317 13.54 138.425 12.868 138.641 12.268C138.869 11.656 139.181 11.134 139.577 10.702C139.985 10.27 140.465 9.93998 141.017 9.71198C141.569 9.47198 142.175 9.35198 142.835 9.35198C143.495 9.35198 144.101 9.47198 144.653 9.71198C145.217 9.93998 145.697 10.27 146.093 10.702C146.489 11.134 146.795 11.656 147.011 12.268C147.239 12.868 147.353 13.54 147.353 14.284ZM145.121 14.284C145.121 13.348 144.917 12.61 144.509 12.07C144.113 11.518 143.555 11.242 142.835 11.242C142.115 11.242 141.551 11.518 141.143 12.07C140.747 12.61 140.549 13.348 140.549 14.284C140.549 15.232 140.747 15.982 141.143 16.534C141.551 17.086 142.115 17.362 142.835 17.362C143.555 17.362 144.113 17.086 144.509 16.534C144.917 15.982 145.121 15.232 145.121 14.284Z" fill="#007DB7"/>
</svg>
