<svg width="24" height="14" viewBox="0 0 24 14" fill="none" xmlns="http://www.w3.org/2000/svg">
<g clip-path="url(#clip0_20_6621)">
<path fill-rule="evenodd" clip-rule="evenodd" d="M18.3574 0.452145C18.6412 0.169597 19.0999 0.169597 19.3837 0.452145L22.2869 3.34266C22.5707 3.62521 22.5707 4.08191 22.2869 4.36446L13.5773 13.036C13.4416 13.1719 13.2572 13.2477 13.0642 13.2477H1.45138C1.05074 13.2477 0.725586 12.9247 0.725586 12.5251C0.725586 12.1255 1.05074 11.8025 1.45138 11.8025H9.43517V9.6346C9.43517 9.44238 9.51211 9.25883 9.64783 9.1237L18.3574 0.452145ZM18.8706 1.98484L10.8868 9.93377V11.8025H12.7637L20.7475 3.85356L18.8706 1.98484ZM6.53205 8.18934C6.93269 8.18934 7.25785 8.51235 7.25785 8.91197C7.25785 9.31158 6.93269 9.6346 6.53205 9.6346H1.45146C1.05082 9.6346 0.725659 9.31158 0.725659 8.91197C0.725659 8.51235 1.05082 8.18934 1.45146 8.18934H6.53205ZM10.161 4.57619C10.5617 4.57619 10.8868 4.89921 10.8868 5.29882C10.8868 5.69843 10.5617 6.02145 10.161 6.02145H1.45146C1.05082 6.02145 0.725659 5.69843 0.725659 5.29882C0.725659 4.89921 1.05082 4.57619 1.45146 4.57619H10.161ZM6.53205 0.963044C6.93269 0.963044 7.25785 1.28606 7.25785 1.68567C7.25785 2.08529 6.93269 2.4083 6.53205 2.4083H1.45146C1.05082 2.4083 0.725659 2.08529 0.725659 1.68567C0.725659 1.28606 1.05082 0.963044 1.45146 0.963044H6.53205Z" fill="#E81E2B"/>
</g>
<defs>
<clipPath id="clip0_20_6621">
<rect width="23.2256" height="13.4891" fill="white"/>
</clipPath>
</defs>
</svg>
