<svg width="30" height="30" viewBox="0 0 30 30" fill="none" xmlns="http://www.w3.org/2000/svg">
<g clip-path="url(#clip0_2_2218)">
<path fill-rule="evenodd" clip-rule="evenodd" d="M18 28C16.346 28 15 26.654 15 25C15 23.346 16.346 22 18 22C19.654 22 21 23.346 21 25C21 26.654 19.654 28 18 28ZM5 9C6.654 9 8 10.346 8 12C8 13.654 6.654 15 5 15C3.346 15 2 13.654 2 12C2 10.346 3.346 9 5 9ZM18 20C15.479 20 13.408 21.883 13.069 24.312L5.687 16.931C8.117 16.591 10 14.521 10 12C10 9.243 7.757 7 5 7C2.243 7 0 9.243 0 12C0 13.371 0.557 14.614 1.453 15.518C1.458 15.523 1.46 15.53 1.465 15.536L14.465 28.536C14.471 28.541 14.478 28.542 14.483 28.548C15.388 29.444 16.63 30 18 30C20.757 30 23 27.757 23 25C23 22.243 20.757 20 18 20Z" fill="#364F6B"/>
<path fill-rule="evenodd" clip-rule="evenodd" d="M15 0C14.447 0 14 0.448 14 1C14 1.552 14.447 2 15 2C22.168 2 28 7.832 28 15C28 15.552 28.447 16 29 16C29.553 16 30 15.552 30 15C30 6.729 23.271 0 15 0Z" fill="#364F6B"/>
<path fill-rule="evenodd" clip-rule="evenodd" d="M15 5C14.447 5 14 5.448 14 6C14 6.552 14.447 7 15 7C19.411 7 23 10.589 23 15C23 15.552 23.447 16 24 16C24.553 16 25 15.552 25 15C25 9.486 20.514 5 15 5Z" fill="#364F6B"/>
<path fill-rule="evenodd" clip-rule="evenodd" d="M18 15C18 15.552 18.447 16 19 16C19.553 16 20 15.552 20 15C20 12.243 17.757 10 15 10C14.447 10 14 10.448 14 11C14 11.552 14.447 12 15 12C16.654 12 18 13.346 18 15Z" fill="#364F6B"/>
</g>
<defs>
<clipPath id="clip0_2_2218">
<rect width="30" height="30" fill="white"/>
</clipPath>
</defs>
</svg>
