<svg width="60" height="52" viewBox="0 0 60 52" fill="none" xmlns="http://www.w3.org/2000/svg">
<path fill-rule="evenodd" clip-rule="evenodd" d="M25.5362 45.454C31.7776 51.114 40.4577 52.7608 49.1366 49.1161L56.5768 51.9998L55.412 45.1018C62.3343 39.1369 60.7276 30.8485 55.2022 25.0153C54.7698 27.2707 53.9741 29.4118 52.8655 31.3982C51.205 34.3743 48.8272 37.0189 45.9151 39.1958C43.0944 41.3058 39.8015 42.9618 36.212 44.0312C32.912 45.014 29.3085 45.5222 25.5362 45.454ZM15.4722 26.1424C14.5698 26.1424 13.8374 25.4206 13.8374 24.5314C13.8374 23.6421 14.5698 22.9203 15.4722 22.9203H30.0175C30.9198 22.9203 31.6511 23.6421 31.6511 24.5314C31.6511 25.4206 30.9198 26.1424 30.0175 26.1424H15.4722ZM15.4722 17.8955C14.5698 17.8955 13.8374 17.1737 13.8374 16.2845C13.8374 15.3941 14.5698 14.6735 15.4722 14.6735H36.2554C37.1577 14.6735 37.889 15.3941 37.889 16.2845C37.889 17.1737 37.1577 17.8955 36.2554 17.8955H15.4722ZM26.4995 0.0136351L26.5241 0.01479C33.594 0.224975 39.9362 2.70215 44.4761 6.53861C49.1132 10.4559 51.894 15.7891 51.7206 21.6107L51.7194 21.6373C51.5366 27.4624 48.4323 32.6281 43.5608 36.2706C38.7866 39.8414 32.2968 41.9479 25.228 41.7434C23.4175 41.6903 21.6573 41.5079 19.9792 41.1868C18.5202 40.9073 17.1081 40.5228 15.7604 40.0262L3.30107 43.776L7.03349 35.0279C4.90068 33.1813 3.17333 31.0321 1.9663 28.675C0.619816 26.0431 -0.084481 23.1525 0.00809713 20.1325C0.186222 14.3016 3.29169 9.13128 8.16552 5.48653C12.9421 1.91569 19.4308 -0.190776 26.4995 0.0136351ZM26.4351 3.2126L26.4104 3.21145C20.0964 3.02898 14.3354 4.88485 10.1261 8.03185C6.0163 11.1049 3.40068 15.4114 3.25302 20.2203C3.17685 22.6905 3.7581 25.0638 4.86786 27.2326C6.04091 29.5215 7.79989 31.5864 9.9995 33.3049L10.9675 34.0601L8.97646 38.7246L15.9046 36.639L16.4319 36.848C17.7386 37.3654 19.1319 37.7603 20.5897 38.0386C22.1214 38.3331 23.7058 38.4983 25.3171 38.5456C31.6311 38.7281 37.3921 36.8722 41.6015 33.7252C45.7112 30.6521 48.3268 26.3457 48.4745 21.5368V21.5114C48.614 16.7106 46.269 12.2713 42.3632 8.97075C38.3577 5.587 32.7315 3.39969 26.4351 3.2126Z" fill="white"/>
</svg>
