<svg width="55" height="55" viewBox="0 0 55 55" fill="none" xmlns="http://www.w3.org/2000/svg">
<path d="M40.5714 13.5H37.1429V9.84375C37.1429 9.42187 36.7143 9 36.2857 9H35.7143C35.2143 9 34.8571 9.42187 34.8571 9.84375V13.5H21.1429V9.84375C21.1429 9.42187 20.7143 9 20.2857 9H19.7143C19.2143 9 18.8571 9.42187 18.8571 9.84375V13.5H15.4286C13.5 13.5 12 15.0469 12 16.875V41.625C12 43.5234 13.5 45 15.4286 45H40.5714C42.4286 45 44 43.5234 44 41.625V16.875C44 15.0469 42.4286 13.5 40.5714 13.5ZM15.4286 15.75H40.5714C41.1429 15.75 41.7143 16.3125 41.7143 16.875V20.25H14.2857V16.875C14.2857 16.3125 14.7857 15.75 15.4286 15.75ZM40.5714 42.75H15.4286C14.7857 42.75 14.2857 42.2578 14.2857 41.625V22.5H41.7143V41.625C41.7143 42.2578 41.1429 42.75 40.5714 42.75ZM22.5714 31.5C23 31.5 23.4286 31.1484 23.4286 30.6563V27.8437C23.4286 27.4219 23 27 22.5714 27H19.7143C19.2143 27 18.8571 27.4219 18.8571 27.8437V30.6563C18.8571 31.1484 19.2143 31.5 19.7143 31.5H22.5714ZM29.4286 31.5C29.8571 31.5 30.2857 31.1484 30.2857 30.6563V27.8437C30.2857 27.4219 29.8571 27 29.4286 27H26.5714C26.0714 27 25.7143 27.4219 25.7143 27.8437V30.6563C25.7143 31.1484 26.0714 31.5 26.5714 31.5H29.4286ZM36.2857 31.5C36.7143 31.5 37.1429 31.1484 37.1429 30.6563V27.8437C37.1429 27.4219 36.7143 27 36.2857 27H33.4286C32.9286 27 32.5714 27.4219 32.5714 27.8437V30.6563C32.5714 31.1484 32.9286 31.5 33.4286 31.5H36.2857ZM29.4286 38.25C29.8571 38.25 30.2857 37.8984 30.2857 37.4062V34.5937C30.2857 34.1719 29.8571 33.75 29.4286 33.75H26.5714C26.0714 33.75 25.7143 34.1719 25.7143 34.5937V37.4062C25.7143 37.8984 26.0714 38.25 26.5714 38.25H29.4286ZM22.5714 38.25C23 38.25 23.4286 37.8984 23.4286 37.4062V34.5937C23.4286 34.1719 23 33.75 22.5714 33.75H19.7143C19.2143 33.75 18.8571 34.1719 18.8571 34.5937V37.4062C18.8571 37.8984 19.2143 38.25 19.7143 38.25H22.5714ZM36.2857 38.25C36.7143 38.25 37.1429 37.8984 37.1429 37.4062V34.5937C37.1429 34.1719 36.7143 33.75 36.2857 33.75H33.4286C32.9286 33.75 32.5714 34.1719 32.5714 34.5937V37.4062C32.5714 37.8984 32.9286 38.25 33.4286 38.25H36.2857Z" fill="#564B52"/>
</svg>
