<svg width="55" height="55" viewBox="0 0 55 55" fill="none" xmlns="http://www.w3.org/2000/svg">
<path d="M41.9114 24.8311L28.1975 12.3032C27.7517 11.8959 27.1646 11.6755 26.5589 11.688C25.9532 11.7005 25.3759 11.945 24.9475 12.3704L12.3348 24.8944L11.6875 25.537V44H23.8415V32.4801H30.471V44H42.625V25.4831L41.9114 24.8311ZM26.6064 13.8818C26.6259 13.8818 26.6139 13.886 26.6055 13.8941C26.5969 13.886 26.5869 13.8818 26.6064 13.8818ZM40.4152 41.8057H32.6808V32.4801C32.6808 31.8982 32.448 31.3401 32.0336 30.9286C31.6191 30.5171 31.0571 30.2859 30.471 30.2859H23.8415C23.2554 30.2859 22.6934 30.5171 22.2789 30.9286C21.8645 31.3401 21.6317 31.8982 21.6317 32.4801V41.8057H13.8973V26.4459L26.6064 13.9219C26.6073 13.9211 26.6074 13.9203 26.6081 13.9195L40.4152 26.4459V41.8057Z" fill="#564B52"/>
</svg>
