<svg width="32" height="54" viewBox="0 0 32 54" fill="none" xmlns="http://www.w3.org/2000/svg">
<g clip-path="url(#clip0_1_577)">
<path fill-rule="evenodd" clip-rule="evenodd" d="M14.3972 19.6787L8.14284 8.05956C13.3155 7.12792 18.5405 7.1411 23.8092 8.0288C21.4496 13.3945 18.2222 18.5976 14.8377 23.7261C12.561 27.1714 10.6638 30.019 8.06433 33.227L0 42.7236C2.65613 46.4766 5.31225 50.2295 7.96838 53.978C10.2058 51.1963 12.3909 48.3838 14.5324 45.5317C16.7611 42.5654 18.9374 39.564 21.0702 36.5229C27.2329 28.1514 33.0467 21.2563 31.8081 15.9785C31.2411 13.1924 30.2205 10.4106 28.9121 7.6245C28.2012 6.11278 26.2821 1.9204 24.9911 1.00634C22.8671 -0.500986 12.4781 0.131826 9.43819 0.131826C7.50606 0.351553 5.997 1.33153 5.08982 3.41454C3.85989 5.51952 2.63432 7.89696 1.58757 10.6348C-2.10222 20.3071 1.26918 23.001 6.71664 30.7837C9.47744 27.2856 11.9635 23.5063 14.3972 19.6787ZM17.5156 45.8525L25.3008 35.1826C27.5077 37.8325 29.7233 40.4385 32 42.6797L23.9575 54C21.6285 51.4292 19.5044 48.6958 17.5156 45.8525Z" fill="white"/>
</g>
<defs>
<clipPath id="clip0_1_577">
<rect width="32" height="54" fill="white"/>
</clipPath>
</defs>
</svg>
