<svg width="55" height="55" viewBox="0 0 55 55" fill="none" xmlns="http://www.w3.org/2000/svg">
<g clip-path="url(#clip0_170_11678)">
<path fill-rule="evenodd" clip-rule="evenodd" d="M26.9982 23.0259L23.0893 15.9253C26.3222 15.356 29.5878 15.364 32.8807 15.9065C31.406 19.1855 29.3889 22.3652 27.2735 25.4993C25.8506 27.6047 24.6648 29.345 23.0402 31.3054L18 37.1089C19.6601 39.4023 21.3202 41.6958 22.9802 43.9866C24.3786 42.2866 25.7443 40.5679 27.0827 38.8249C28.4757 37.0122 29.8359 35.178 31.1689 33.3196C35.0206 28.2036 38.6542 23.99 37.8801 20.7646C37.5257 19.062 36.8878 17.3621 36.0701 15.6594C35.6257 14.7356 34.4263 12.1736 33.6195 11.615C32.2919 10.6938 25.7988 11.0806 23.8989 11.0806C22.6913 11.2148 21.7481 11.8137 21.1811 13.0867C20.4124 14.373 19.6464 15.8259 18.9922 17.499C16.6861 23.4099 18.7932 25.0561 22.1979 29.8123C23.9234 27.6746 25.4772 25.365 26.9982 23.0259ZM28.9473 39.021L33.813 32.5005C35.1923 34.1199 36.5771 35.7124 38 37.082L32.9734 44C31.5178 42.4289 30.1903 40.7585 28.9473 39.021Z" fill="#564B52"/>
</g>
<defs>
<clipPath id="clip0_170_11678">
<rect width="20" height="33" fill="white" transform="translate(18 11)"/>
</clipPath>
</defs>
</svg>
