<svg width="51" height="55" viewBox="0 0 51 55" fill="none" xmlns="http://www.w3.org/2000/svg">
<g clip-path="url(#clip0_364_11636)">
<path d="M15.0435 27.1108C14.9386 27.1434 14.8283 27.155 14.7189 27.145C14.6095 27.1351 14.5031 27.1037 14.4059 27.0526C13.7212 26.6368 12.956 26.3698 12.1606 26.2693C11.2922 26.2632 10.4439 26.5294 9.73563 27.0302C9.64099 27.0875 9.53582 27.1253 9.42632 27.1414C9.31681 27.1575 9.20517 27.1517 9.09796 27.1242C8.99015 27.0985 8.88856 27.0515 8.79912 26.9862C8.70969 26.9209 8.6342 26.8385 8.57705 26.7438C8.46299 26.553 8.42919 26.3251 8.48303 26.1096C8.53686 25.8942 8.67396 25.7086 8.86445 25.5935C9.36523 25.2917 9.90444 25.0583 10.4676 24.8997C10.9913 24.7584 11.5328 24.6936 12.0752 24.7073C12.6042 24.7228 13.1292 24.804 13.638 24.9489C14.1667 25.1044 14.6783 25.3128 15.1648 25.5711C15.2632 25.6214 15.3505 25.6909 15.4215 25.7755C15.4924 25.8601 15.5456 25.958 15.5779 26.0635C15.6123 26.1676 15.6253 26.2775 15.616 26.3867C15.6067 26.4959 15.5755 26.6022 15.524 26.699C15.4736 26.7971 15.4038 26.8841 15.319 26.9549C15.2341 27.0256 15.1359 27.0786 15.0301 27.1108H15.0435ZM39.7779 6.29335C41.2239 4.78497 42.2388 3.48248 44.4571 3.22735C48.6514 2.74843 52.5043 7.0274 50.3892 11.2392C49.8762 12.1705 49.2536 13.0375 48.5346 13.8218V13.7099H43.1099L42.9168 13.9069L42.0501 14.8021L40.2539 11.3825L39.6611 10.2456L39.0908 11.3959L37.4742 14.6678L35.8666 12.3493L35.3052 11.5346L34.7798 12.3761L34.0299 13.5891H30.7517C29.6291 12.0494 28.8387 10.3888 28.7759 8.59844C28.6546 5.31312 31.2547 3.22735 34.2454 3.25421C36.9129 3.28554 38.0355 4.59698 39.7779 6.29783V6.29335ZM47.4614 15.0079L47.2144 15.2631C44.8254 17.7293 42.2343 20.1418 39.7779 22.5588C37.2048 20.0881 34.0838 17.4876 31.8025 14.8826H34.7753L34.9684 14.5738L35.3861 13.8755L37.0566 16.2925L37.6853 17.1877L38.1703 16.2299L39.706 13.0967L41.3137 16.1941L41.7358 17.0087L42.3645 16.3642L43.6668 15.0214L47.4614 15.0079ZM17.8861 50.493C17.8861 50.7257 17.8861 50.9406 17.8861 51.1957C17.8861 51.4508 17.8547 51.7597 17.8277 52.0416C17.7918 52.4221 17.7379 52.8025 17.6706 53.174C17.6032 53.5456 17.5179 53.926 17.4191 54.2886C17.3867 54.4103 17.3306 54.5245 17.254 54.6245C17.1773 54.7246 17.0816 54.8087 16.9724 54.8719C16.8631 54.9351 16.7424 54.9762 16.6171 54.9928C16.4919 55.0095 16.3646 55.0013 16.2425 54.9689C15.9979 54.9014 15.7898 54.7406 15.6633 54.5213C15.5992 54.4131 15.5575 54.2932 15.5405 54.1687C15.5236 54.0442 15.5317 53.9175 15.5645 53.7962C15.6498 53.4739 15.7216 53.1517 15.78 52.8339C15.8384 52.5161 15.8878 52.1893 15.9192 51.8671C15.9192 51.7015 15.9462 51.5269 15.9551 51.3568V51.0793C15.542 51.1912 15.1334 51.2897 14.7292 51.3837C14.2263 51.4956 13.7278 51.5985 13.2428 51.6836C12.2953 51.8578 11.3362 51.9625 10.3733 51.9969C9.56602 52.0284 8.75766 51.9744 7.96183 51.8358C7.41714 51.7386 6.88734 51.5716 6.38563 51.3389C5.94612 51.134 5.54513 50.8554 5.2001 50.5154C4.83383 50.148 4.55593 49.7027 4.3873 49.2129C4.21658 48.6953 4.15094 48.1491 4.1942 47.606C4.22844 47.1506 4.31277 46.7003 4.44568 46.2632C4.59657 45.7667 4.78419 45.282 5.007 44.813C4.95312 44.5534 4.90372 44.2894 4.85881 44.0208C4.81391 43.7388 4.769 43.4434 4.72859 43.1256C4.68817 42.8078 4.64776 42.4453 4.61632 42.1096C4.58489 41.7739 4.56692 41.4337 4.55345 41.0801C4.55345 41.0488 4.55345 41.004 4.55345 40.9682C4.49507 40.3416 4.45915 39.7239 4.44119 39.1107C4.42322 38.4975 4.40975 37.8843 4.40077 37.2622V37.0921C3.79903 37.0608 3.16136 37.0429 2.5686 36.9847C2.3205 36.9751 2.07458 36.9345 1.83663 36.8638C1.60446 36.7945 1.38362 36.692 1.18099 36.5595C0.990114 36.435 0.817778 36.2843 0.669063 36.1119C0.517521 35.9398 0.389199 35.7487 0.28736 35.5434C0.185897 35.3372 0.110478 35.1192 0.0628291 34.8944C0.0152534 34.6588 -0.0058329 34.4186 -3.96147e-05 34.1783C0.011311 33.7974 0.0794148 33.4203 0.202038 33.0593C0.33707 32.67 0.519558 32.2987 0.745404 31.9538L2.79762 27.7732C3.14831 27.1181 3.43696 26.4318 3.65982 25.7233C3.75513 25.299 3.78091 24.8622 3.73616 24.4297C3.73616 23.9419 3.69125 23.3197 3.73616 22.3887C3.73616 21.8248 3.79454 21.2787 3.8619 20.7505C3.9244 20.2279 4.01736 19.7093 4.14031 19.1974C4.23013 18.8349 4.33341 18.4768 4.45466 18.1277C4.57591 17.7785 4.66572 17.5592 4.79145 17.2862L1.15405 15.7062C1.03861 15.6561 0.93423 15.5838 0.846887 15.4934C0.759544 15.4031 0.69096 15.2964 0.645067 15.1796C0.599175 15.0627 0.576878 14.938 0.579454 14.8125C0.582031 14.6871 0.609431 14.5633 0.660082 14.4485L0.704988 14.3545C0.722903 14.3251 0.74239 14.2967 0.763366 14.2694C4.96659 8.55816 9.43027 4.78497 13.867 2.56044C18.9055 0.0405014 23.908 -0.487656 28.4705 0.407526C28.6681 0.443333 28.8702 0.488093 29.0767 0.537328C29.2833 0.586563 29.4764 0.626846 29.683 0.680557C29.7229 0.690572 29.7584 0.713655 29.7836 0.746113C29.8088 0.778572 29.8224 0.818529 29.8222 0.859593L29.2878 2.31426C29.2878 2.36412 29.2679 2.41194 29.2326 2.44719C29.1972 2.48245 29.1492 2.50225 29.0992 2.50225C28.9869 2.50225 29.0049 2.50225 28.8477 2.44854C28.6007 2.39035 28.3493 2.33217 28.1023 2.28741C23.6267 1.4425 18.9963 2.10541 14.9403 4.17177C10.9391 6.12774 6.89307 9.43992 3.03113 14.4395C4.17175 14.9363 5.52343 15.4376 6.62363 16.0016C7.8581 16.3597 9.16332 16.4013 10.4182 16.1225C11.9074 15.8294 13.3771 15.4452 14.819 14.9721C15.9057 14.6454 16.9745 14.3187 17.9894 14.077C18.9483 13.8324 19.9322 13.6988 20.9218 13.6786C20.9831 13.6742 21.0446 13.6742 21.1059 13.6786C21.1687 13.687 21.2304 13.702 21.29 13.7234C21.4097 13.7619 21.5205 13.8236 21.616 13.9051C21.7116 13.9865 21.7901 14.086 21.8468 14.1978C21.9624 14.4237 21.9834 14.6861 21.9052 14.9274C21.4611 16.1711 21.2245 17.479 21.2047 18.799C21.1937 19.7905 21.4135 20.7711 21.8468 21.6636C22.2762 22.5178 22.8715 23.2785 23.5982 23.9016C24.4024 24.5943 25.2821 25.1949 26.2207 25.692C26.3294 25.7526 26.425 25.8341 26.502 25.9316C26.5791 26.0291 26.6361 26.1409 26.6698 26.2604C26.7274 26.4928 26.6951 26.7383 26.5795 26.9481C26.4638 27.1579 26.2732 27.3166 26.0456 27.3928C25.9222 27.4271 25.7933 27.4369 25.6662 27.4215C25.539 27.4062 25.4162 27.366 25.3046 27.3033C24.2097 26.7237 23.1851 26.0209 22.251 25.2086C21.3736 24.4428 20.6525 23.5159 20.1269 22.4782C19.6464 21.4986 19.3656 20.4337 19.3007 19.3451C19.2403 18.1171 19.3675 16.8871 19.6779 15.6972C19.0317 15.7997 18.3916 15.9372 17.7604 16.109C16.9835 16.3149 16.1797 16.5566 15.3669 16.8028C13.8622 17.2914 12.3297 17.6905 10.7775 17.9979C9.38732 18.2914 7.95089 18.2914 6.56076 17.9979C6.44849 18.2351 6.3497 18.4768 6.25989 18.7274C6.15296 19.0315 6.06153 19.3407 5.98596 19.6539C5.88081 20.0968 5.79986 20.5451 5.74347 20.9967C5.68509 21.4667 5.64916 21.9501 5.6312 22.4424C5.60426 23.3018 5.6312 23.8882 5.6312 24.3447C5.68711 24.9267 5.6538 25.5138 5.53241 26.0858C5.27093 26.9542 4.92187 27.794 4.49058 28.5923L2.42041 32.8847L2.3755 32.9564C2.23728 33.1638 2.1228 33.386 2.03421 33.6188C1.96161 33.8107 1.92214 34.0135 1.91746 34.2186C1.90822 34.3034 1.90822 34.3889 1.91746 34.4737C1.93321 34.5463 1.95732 34.6169 1.98931 34.6841C2.01439 34.7357 2.04609 34.7838 2.08361 34.8273C2.11977 34.8663 2.16047 34.9009 2.20486 34.9302C2.26221 34.9665 2.32411 34.9951 2.38897 35.0153C2.46247 35.0344 2.53767 35.0464 2.6135 35.0511C3.37242 35.0511 4.27054 35.1451 5.04293 35.1898H5.1507C5.19998 35.185 5.24962 35.185 5.2989 35.1898C6.00841 35.1898 6.8751 35.3107 7.59809 35.3778C7.84373 35.4097 8.06751 35.535 8.22274 35.7274C8.37797 35.9198 8.45266 36.1645 8.43122 36.4105C8.40979 36.6565 8.29388 36.8847 8.1077 37.0476C7.92151 37.2104 7.67942 37.2953 7.43194 37.2846C7.05473 37.2532 6.66854 37.2398 6.29132 37.2174V37.2532C6.29132 37.8038 6.29132 38.3498 6.32276 38.9048C6.35419 39.4599 6.36317 39.9209 6.40359 40.4446C6.64607 40.5573 6.89677 40.6515 7.15352 40.7265C7.41528 40.8082 7.68455 40.8637 7.95734 40.8921C8.55739 40.9564 9.16376 40.8591 9.71318 40.6102C9.94688 40.5105 10.2105 40.5062 10.4474 40.5983C10.6842 40.6903 10.8753 40.8714 10.9795 41.1025C11.0758 41.3347 11.0758 41.5954 10.9795 41.8276C10.8873 42.0648 10.705 42.2562 10.4721 42.3602C10.0424 42.5501 9.5894 42.6825 9.12491 42.7541C8.66875 42.8243 8.20549 42.8364 7.74628 42.7899C7.5003 42.7628 7.25595 42.7224 7.01431 42.6691C6.86163 42.6333 6.70446 42.593 6.56525 42.5438L6.60567 42.8839C6.64608 43.1749 6.69099 43.4792 6.74488 43.7791C6.79876 44.079 6.86163 44.3923 6.93348 44.7011C6.9559 44.8165 6.9559 44.935 6.93348 45.0503C6.91181 45.1673 6.86922 45.2795 6.80774 45.3815C6.60487 45.7875 6.43227 46.2079 6.29132 46.6392C6.1773 46.9845 6.10494 47.3421 6.07577 47.7045C6.05462 47.9866 6.08505 48.2702 6.16559 48.5415C6.23742 48.7746 6.36538 48.9866 6.53831 49.1592C6.74256 49.3496 6.97996 49.5013 7.23884 49.6067C7.57301 49.7546 7.92456 49.8599 8.28516 49.9201C8.96385 50.0388 9.65344 50.0838 10.3419 50.0543C11.1916 50.0189 12.0379 49.9247 12.8746 49.7724C13.7502 49.6112 14.6708 49.4053 15.6228 49.1502C16.4716 48.9175 17.3248 48.64 18.1466 48.3266C18.8553 48.0543 19.5467 47.7389 20.2167 47.3822C20.7802 47.0812 21.3166 46.7323 21.8199 46.3393C22.2776 45.9543 22.648 45.4768 22.9066 44.9384C23.1635 44.399 23.3869 43.8444 23.5757 43.2778L23.7643 42.7407L23.8766 42.4319C24.1191 41.7784 24.4424 40.8877 24.8466 40.0462C25.1749 39.2559 25.6731 38.547 26.306 37.9694C26.4049 37.8924 26.5181 37.8357 26.6392 37.8027C26.7602 37.7696 26.8866 37.7609 27.0111 37.7769C27.1362 37.7924 27.2571 37.8324 27.3668 37.8946C27.4764 37.9568 27.5726 38.04 27.6498 38.1395C27.727 38.2389 27.7837 38.3526 27.8167 38.4739C27.8496 38.5953 27.8582 38.722 27.8418 38.8467C27.8088 39.0978 27.6782 39.3261 27.4781 39.4822C27.0466 39.9253 26.7118 40.4526 26.4946 41.0309C26.1713 41.7381 25.8839 42.5214 25.6773 43.0943C25.5741 43.3539 25.4753 43.6448 25.381 43.9089C25.1536 44.6081 24.8729 45.289 24.5412 45.9454C24.1685 46.6797 23.6453 47.3278 23.0054 47.8477C22.426 48.3046 21.8068 48.709 21.1553 49.0562C20.4212 49.4614 19.6623 49.8202 18.883 50.1304C18.7034 50.202 18.5193 50.2692 18.3262 50.3363L17.8771 50.493H17.8861ZM47.8969 23.4719C48.0177 27.4461 46.9687 31.3687 44.8792 34.7557C42.8989 37.9873 39.8767 40.9727 35.6375 43.4479C35.5833 43.4828 35.5243 43.5099 35.4624 43.5285H35.4355C35.4355 44.0879 35.4355 44.6385 35.4938 45.189C35.5522 45.7396 35.5837 46.3617 35.6555 46.9391C35.7894 48.0376 35.9888 49.1272 36.2528 50.202C36.5091 51.2404 36.827 52.2627 37.2048 53.2636C37.2501 53.3813 37.2714 53.5069 37.2677 53.633C37.2639 53.7591 37.2351 53.8832 37.1829 53.9981C37.1307 54.113 37.0561 54.2164 36.9635 54.3024C36.8709 54.3884 36.7621 54.4552 36.6434 54.4989C36.4051 54.5862 36.1419 54.5765 35.9108 54.4718C35.6797 54.367 35.4992 54.1758 35.4085 53.9394C35.0042 52.8653 34.6638 51.7682 34.3891 50.6541C34.1067 49.5069 33.8923 48.3442 33.747 47.1718C33.5989 45.9464 33.5224 44.7135 33.518 43.4792C33.5102 42.1682 33.5747 40.8578 33.7111 39.5538C33.7394 39.3031 33.8654 39.0734 34.0619 38.9144C34.2585 38.7553 34.5098 38.6795 34.7619 38.7034C34.8857 38.7161 35.0058 38.753 35.1153 38.8122C35.2247 38.8713 35.3213 38.9515 35.3995 39.0481C35.5593 39.2458 35.6351 39.4981 35.6106 39.7508C35.5792 40.0641 35.5477 40.3819 35.5253 40.6997L35.4759 41.3039C38.6787 39.3867 41.376 36.7351 43.3434 33.5696C45.1736 30.5196 46.0883 27.0107 45.9794 23.4585C45.9788 23.4344 45.983 23.4104 45.9917 23.3879C46.0004 23.3654 46.0135 23.3448 46.0302 23.3274C46.0469 23.3099 46.0668 23.2959 46.0889 23.2861C46.1111 23.2764 46.1349 23.2711 46.1591 23.2705H47.7128C47.7374 23.2699 47.7618 23.2742 47.7847 23.2831C47.8075 23.2921 47.8284 23.3055 47.8459 23.3226C47.8635 23.3397 47.8775 23.3602 47.887 23.3827C47.8965 23.4053 47.9014 23.4295 47.9014 23.454L47.8969 23.4719ZM30.9448 29.6129C30.9908 29.8621 30.9358 30.1193 30.7918 30.3282C30.6479 30.5371 30.4268 30.6806 30.1769 30.7274C29.9267 30.7725 29.6687 30.7178 29.4584 30.5752C29.3546 30.5036 29.2662 30.4121 29.1983 30.3061C29.1305 30.2 29.0845 30.0815 29.0633 29.9575C29.0153 29.6993 28.9958 29.4366 29.0049 29.1742C29.0172 28.9169 29.0578 28.6617 29.1261 28.4133C29.2211 28.0963 29.3618 27.7948 29.5438 27.5181C29.7332 27.2303 29.9631 26.9711 30.2263 26.7483C30.7417 26.318 31.3609 26.0295 32.0226 25.9113C32.3083 25.8589 32.599 25.8379 32.8893 25.8486C33.1767 25.8617 33.4615 25.9082 33.738 25.9874C34.374 26.136 34.9614 26.4442 35.4444 26.8825C35.807 27.2465 36.0417 27.7175 36.1135 28.2253C36.166 28.6853 36.1247 29.1512 35.9923 29.5949C35.8457 30.0801 35.661 30.553 35.44 31.0093C35.2379 31.4256 34.7574 32.4282 34.1332 33.5696C33.5088 34.7609 32.791 35.9013 31.9867 36.9802C30.891 38.3901 29.7952 39.348 28.8971 39.2182C27.999 39.0884 27.3389 37.8261 27.1772 34.8362C27.154 34.5829 27.2314 34.3306 27.3928 34.1335C27.476 34.043 27.5764 33.9699 27.6881 33.9185C27.7999 33.867 27.9208 33.8381 28.0439 33.8336C28.2913 33.8295 28.5314 33.9173 28.7175 34.0798C28.9054 34.251 29.0183 34.4889 29.0318 34.7422C29.0947 35.897 29.2788 36.3983 29.5213 36.4878C29.7638 36.5774 30.0647 36.273 30.4194 35.8209C31.1628 34.8137 31.8278 33.7513 32.4088 32.643C32.9971 31.5599 33.4596 30.5976 33.6482 30.1992C33.804 29.883 33.939 29.5571 34.0524 29.2234C34.1395 28.9905 34.1762 28.7419 34.1601 28.4939C34.1332 28.3542 34.0526 28.2306 33.9356 28.1492C33.7222 27.9949 33.4837 27.8783 33.2306 27.8046C33.0839 27.7671 32.9329 27.749 32.7815 27.7509C32.6313 27.7427 32.4806 27.7517 32.3324 27.7777C32.1683 27.8094 32.0085 27.8605 31.8564 27.9299C31.7057 28.0002 31.5652 28.0906 31.4388 28.1985C31.3204 28.2989 31.2162 28.4149 31.129 28.5431C31.047 28.6655 30.9849 28.7999 30.9448 28.9415C30.9168 29.0514 30.9002 29.1639 30.8954 29.2772C30.8823 29.3932 30.8823 29.5103 30.8954 29.6263L30.9448 29.6129Z" fill="white"/>
</g>
<defs>
<clipPath id="clip0_364_11636">
<rect width="51" height="55" fill="white"/>
</clipPath>
</defs>
</svg>
