<svg width="66" height="66" viewBox="0 0 66 66" fill="none" xmlns="http://www.w3.org/2000/svg">
<rect width="66" height="66" rx="20" fill="#ADADAD"/>
<path d="M46.1035 17.435H42.4444V13.4785C42.4444 13.022 41.987 12.5654 41.5296 12.5654H40.9198C40.3862 12.5654 40.005 13.022 40.005 13.4785V17.435H25.3687V13.4785C25.3687 13.022 24.9113 12.5654 24.4539 12.5654H23.844C23.3104 12.5654 22.9293 13.022 22.9293 13.4785V17.435H19.2702C17.2119 17.435 15.6111 19.1089 15.6111 21.0872V47.8698C15.6111 49.9241 17.2119 51.522 19.2702 51.522H46.1035C48.0855 51.522 49.7626 49.9241 49.7626 47.8698V21.0872C49.7626 19.1089 48.0855 17.435 46.1035 17.435ZM19.2702 19.8698H46.1035C46.7134 19.8698 47.3232 20.4785 47.3232 21.0872V24.7393H18.0505V21.0872C18.0505 20.4785 18.5841 19.8698 19.2702 19.8698ZM46.1035 49.0872H19.2702C18.5841 49.0872 18.0505 48.5546 18.0505 47.8698V27.1741H47.3232V47.8698C47.3232 48.5546 46.7134 49.0872 46.1035 49.0872ZM35.05 33.1089C34.8975 32.9567 34.6688 32.9567 34.5164 33.1089L24.5301 43.0763L24.149 45.7393C24.0727 46.272 24.5301 46.7285 25.0637 46.6524L27.7318 46.272L37.7181 36.3046C37.8706 36.1524 37.8706 35.9241 37.7181 35.772L35.05 33.1089ZM40.7673 33.2611C41.3009 32.7285 41.3009 31.8915 40.7673 31.3589L39.4714 30.0654C38.9378 29.5328 38.0992 29.5328 37.5656 30.0654L36.1172 31.5111C35.9648 31.6633 35.9648 31.8915 36.1172 32.0437L38.7853 34.7067C38.9378 34.8589 39.1665 34.8589 39.3189 34.7067L40.7673 33.2611Z" fill="white"/>
</svg>
