<svg width="58" height="58" viewBox="0 0 58 58" fill="none" xmlns="http://www.w3.org/2000/svg">
<path d="M56.3328 48.2633L42.2045 34.134C41.8139 33.7613 41.2943 33.5532 40.7542 33.5532C40.2138 33.5532 39.6945 33.7613 39.3035 34.134L39.0351 34.4024L36.4921 31.8589C39.4369 27.7508 40.7287 22.685 40.1106 17.6687C39.4929 12.6521 37.0101 8.05164 33.1559 4.78169C29.3022 1.5113 24.359 -0.189869 19.3081 0.0168532C14.258 0.223185 9.4698 2.32178 5.89617 5.89616C2.32178 9.47012 0.223255 14.2583 0.016858 19.3081C-0.189897 24.3587 1.5113 29.3018 4.78169 33.1559C8.05208 37.0101 12.6526 39.4929 17.6687 40.1106C22.6853 40.7288 27.7512 39.4368 31.8589 36.4921L34.4019 39.0351L34.1336 39.3035C33.7498 39.6885 33.5346 40.2103 33.5346 40.7542C33.5346 41.2981 33.7502 41.8194 34.134 42.2045L48.2633 56.3338C49.7052 57.7722 51.805 58.3327 53.772 57.8049C55.7395 57.2768 57.2759 55.7399 57.8036 53.7728C58.3318 51.8054 57.771 49.706 56.3326 48.2642L56.3328 48.2633ZM32.6216 34.5633C32.2815 34.2229 31.7407 34.1902 31.3619 34.4869C27.7052 37.3476 23.095 38.705 18.4717 38.2821C13.8482 37.8596 9.56064 35.6885 6.48349 32.2125C3.40591 28.7363 1.77093 24.2169 1.91223 19.5766C2.05318 14.9362 3.95946 10.5246 7.24256 7.24172C10.5252 3.95861 14.9368 2.05235 19.5774 1.91138C24.2178 1.77 28.7373 3.40496 32.2134 6.48265C35.6892 9.55979 37.8604 13.8475 38.2829 18.4708C38.7058 23.0938 37.3484 27.7041 34.4878 31.3611C34.191 31.7398 34.2237 32.2807 34.5642 32.6208L37.6907 35.7473L35.7479 37.69L32.6216 34.5633ZM35.4802 40.6473L40.6484 35.4791C40.7099 35.4295 40.7978 35.4295 40.8598 35.4791L42.1016 36.721L36.7221 42.101L35.4802 40.8591H35.4806C35.4221 40.8006 35.4221 40.7059 35.4802 40.6473L35.4802 40.6473ZM54.9884 54.9875C54.2743 55.6999 53.3071 56.0998 52.2988 56.0998C51.2901 56.0998 50.3229 55.6998 49.6088 54.9875L38.0674 43.4449L43.4469 38.0649L54.9884 49.6075C55.7017 50.3211 56.1024 51.2887 56.1024 52.2975C56.1024 53.3066 55.7017 54.2743 54.9884 54.9875ZM26.457 17.322H23.0296V13.8941C23.0291 13.4581 22.8555 13.0399 22.5473 12.7317C22.239 12.4235 21.8208 12.2503 21.3849 12.2499H18.9679C18.5319 12.2503 18.1141 12.4235 17.8055 12.7317C17.4972 13.0404 17.324 13.4581 17.3236 13.8941V17.322H13.8957C13.4597 17.3224 13.0419 17.4957 12.7333 17.8039C12.4251 18.1125 12.2519 18.5303 12.2514 18.9663V21.3833C12.2519 21.8193 12.4251 22.2375 12.7333 22.5457C13.0415 22.8539 13.4597 23.0276 13.8957 23.028H17.3236V26.4554C17.324 26.8914 17.4972 27.3092 17.8055 27.6174C18.1141 27.926 18.5319 28.0993 18.9679 28.0997H21.3849C21.8209 28.0993 22.2391 27.926 22.5473 27.6178C22.8555 27.3092 23.0291 26.8914 23.0296 26.4554V23.028H26.457C26.893 23.0275 27.3108 22.8539 27.6194 22.5457C27.9276 22.2374 28.1009 21.8192 28.1013 21.3833V18.9663C28.1009 18.5303 27.9276 18.1125 27.619 17.8039C27.3108 17.4956 26.893 17.3224 26.457 17.322L26.457 17.322ZM26.1993 21.1261H22.0785C21.5534 21.1261 21.1275 21.5519 21.1275 22.0771V26.1978H19.2255V22.0771C19.2255 21.8249 19.1253 21.5829 18.947 21.4046C18.7687 21.2263 18.5267 21.1261 18.2745 21.1261H14.1533V19.224H18.2745C18.5267 19.224 18.7687 19.1238 18.947 18.9455C19.1253 18.7672 19.2255 18.5252 19.2255 18.273V14.1518H21.1275V18.273C21.1275 18.5252 21.2277 18.7672 21.406 18.9455C21.5843 19.1238 21.8264 19.224 22.0785 19.224H26.1993V21.1261ZM31.6506 8.70096L31.6502 8.70054C28.6078 5.66111 24.4828 3.9544 20.1826 3.9557C15.8819 3.9574 11.7581 5.66665 8.71723 8.70825C5.67693 11.7497 3.96891 15.874 3.96891 20.1747C3.96891 24.475 5.67693 28.5997 8.71723 31.6412C11.758 34.6827 15.8817 36.392 20.1826 36.3933C24.4829 36.395 28.608 34.6882 31.6502 31.6485C34.721 28.6201 36.4493 24.4874 36.4493 20.1744C36.4493 15.8617 34.721 11.7291 31.6502 8.70032L31.6506 8.70096ZM30.3056 30.3036C27.6198 32.9868 23.9784 34.4936 20.1816 34.4923C16.3852 34.491 12.7446 32.9817 10.0606 30.2967C7.37656 27.6118 5.86896 23.9708 5.86896 20.1744C5.86896 16.378 7.37656 12.7369 10.0606 10.052C12.7446 7.36716 16.3852 5.85782 20.1816 5.85652C23.9785 5.85524 27.6199 7.36205 30.3056 10.0452C32.9876 12.7339 34.4938 16.3766 34.4938 20.1743C34.4938 23.9719 32.9876 27.6147 30.3056 30.3034V30.3036Z" fill="#564B52"/>
</svg>
