<svg width="55" height="55" viewBox="0 0 55 55" fill="none" xmlns="http://www.w3.org/2000/svg">
<path fill-rule="evenodd" clip-rule="evenodd" d="M25.6194 37.4753C28.9482 40.523 33.5776 41.4098 38.2064 39.4472L42.1745 41L41.5533 37.2857C45.2452 34.0738 44.3883 29.6108 41.4414 26.4698C41.2108 27.6843 40.7864 28.8372 40.1951 29.9068C39.3095 31.5093 38.0414 32.9333 36.4882 34.1055C34.9838 35.2417 33.2276 36.1334 31.3132 36.7092C29.5532 37.2384 27.6313 37.512 25.6194 37.4753ZM20.2519 27.0767C19.7706 27.0767 19.38 26.6881 19.38 26.2093C19.38 25.7304 19.7706 25.3418 20.2519 25.3418H28.0094C28.4907 25.3418 28.8807 25.7304 28.8807 26.2093C28.8807 26.6881 28.4907 27.0767 28.0094 27.0767H20.2519ZM20.2519 22.6361C19.7706 22.6361 19.38 22.2474 19.38 21.7686C19.38 21.2892 19.7706 20.9011 20.2519 20.9011H31.3363C31.8176 20.9011 32.2076 21.2892 32.2076 21.7686C32.2076 22.2474 31.8176 22.6361 31.3363 22.6361H20.2519ZM26.1332 13.0073L26.1463 13.008C29.9169 13.1211 33.2995 14.455 35.7207 16.5208C38.1939 18.6301 39.677 21.5018 39.5845 24.6366L39.5839 24.6509C39.4864 27.7875 37.8307 30.5691 35.2326 32.5304C32.6863 34.4531 29.2251 35.5874 25.455 35.4773C24.4894 35.4487 23.5506 35.3505 22.6556 35.1776C21.8775 35.0271 21.1244 34.82 20.4056 34.5526L13.7606 36.5718L15.7512 31.8613C14.6137 30.8669 13.6925 29.7097 13.0487 28.4405C12.3306 27.0233 11.9549 25.4668 12.0043 23.8406C12.0993 20.7009 13.7556 17.9169 16.355 15.9543C18.9025 14.0315 22.3631 12.8973 26.1332 13.0073ZM26.0988 14.7299L26.0857 14.7292C22.7181 14.631 19.6456 15.6303 17.4006 17.3249C15.2087 18.9796 13.8137 21.2985 13.735 23.8879C13.6943 25.218 14.0043 26.4959 14.5962 27.6638C15.2218 28.8963 16.16 30.0082 17.3331 30.9335L17.8494 31.3402L16.7875 33.8518L20.4825 32.7288L20.7637 32.8413C21.4606 33.1199 22.2038 33.3326 22.9813 33.4824C23.7981 33.641 24.6431 33.7299 25.5025 33.7554C28.8701 33.8537 31.9426 32.8544 34.1876 31.1598C36.3795 29.5051 37.7745 27.1862 37.8532 24.5968V24.5831C37.9276 21.9981 36.677 19.6077 34.5938 17.8304C32.4576 16.0084 29.4569 14.8306 26.0988 14.7299Z" fill="#564B52"/>
</svg>
