<svg width="55" height="55" viewBox="0 0 55 55" fill="none" xmlns="http://www.w3.org/2000/svg">
<path d="M36.5 27.6875C39.3156 27.6875 41.6 25.4439 41.6 22.6786C41.6 19.9132 39.3156 17.6696 36.5 17.6696C33.6844 17.6696 31.4 19.9132 31.4 22.6786C31.4 25.4439 33.6844 27.6875 36.5 27.6875ZM36.5 19.3393C38.3594 19.3393 39.9 20.8524 39.9 22.6786C39.9 24.5569 38.3594 26.0179 36.5 26.0179C34.5875 26.0179 33.1 24.5569 33.1 22.6786C33.1 20.8524 34.5875 19.3393 36.5 19.3393ZM21.2 27.6875C24.4406 27.6875 27.15 25.0787 27.15 21.8437C27.15 18.661 24.4406 16 21.2 16C17.9062 16 15.25 18.661 15.25 21.8437C15.25 25.0787 17.9062 27.6875 21.2 27.6875ZM21.2 17.6696C23.5375 17.6696 25.45 19.548 25.45 21.8437C25.45 24.1917 23.5375 26.0179 21.2 26.0179C18.8094 26.0179 16.95 24.1917 16.95 21.8437C16.95 19.548 18.8094 17.6696 21.2 17.6696ZM25.45 28.731C23.6438 28.731 23.2187 29.3571 21.2 29.3571C19.1281 29.3571 18.7031 28.731 16.8969 28.731C14.9844 28.731 13.125 29.618 12.0094 31.1833C11.3719 32.1747 11 33.3225 11 34.5748V36.8705C11 38.2793 12.1156 39.375 13.55 39.375H28.85C30.2312 39.375 31.4 38.2793 31.4 36.8705V34.5748C31.4 33.3225 30.975 32.1747 30.3375 31.1833C29.2219 29.618 27.3625 28.731 25.45 28.731ZM29.7 36.8705C29.7 37.3401 29.275 37.7054 28.85 37.7054H13.55C13.0719 37.7054 12.7 37.3401 12.7 36.8705V34.5748C12.7 33.6878 12.9125 32.853 13.4438 32.1225C14.1344 31.079 15.4625 30.4007 16.8969 30.4007C18.3844 30.4007 18.9156 31.0268 21.2 31.0268C23.4844 31.0268 23.9625 30.4007 25.45 30.4007C26.8844 30.4007 28.2125 31.079 28.9031 32.1225C29.4344 32.853 29.6469 33.6878 29.6469 34.5748V36.8705H29.7ZM44.0969 30.9224C43.1938 29.5658 41.6531 28.8354 40.0063 28.8354C38.5719 28.8354 38.2 29.3571 36.5 29.3571C34.8 29.3571 34.4281 28.8354 32.9406 28.8354C32.25 28.8354 31.5594 28.9919 30.9219 29.305C31.7187 30.0876 31.8781 30.505 31.9844 30.6616C32.3031 30.6094 32.5688 30.5572 32.9406 30.5572C34.1094 30.5572 34.5344 31.079 36.5 31.079C38.4125 31.079 38.8906 30.5572 40.0063 30.5572C41.1219 30.5572 42.1313 31.0268 42.7156 31.8616C43.0875 32.3834 43.3 33.0095 43.3 33.6878V35.6183C43.3 35.8792 43.0875 36.0357 42.875 36.0357H33.1C33.1 36.9749 33.1 37.2358 32.9937 37.7054H42.875C44.0438 37.7054 45 36.8184 45 35.6183V33.6878C45 32.6443 44.6813 31.7051 44.0969 30.9224Z" fill="#564B52"/>
</svg>
