<svg width="55" height="55" viewBox="0 0 55 55" fill="none" xmlns="http://www.w3.org/2000/svg">
<path d="M32.7521 47.8982C31.6375 47.8982 30.8397 47.7993 29.995 47.6945C29.5176 47.6353 29.0239 47.5741 28.4365 47.5263C28.2556 47.5118 28.0515 47.5042 27.8311 47.5042C27.1033 47.5042 26.2668 47.5841 25.4573 47.6616C24.6253 47.7408 23.8397 47.8159 23.1254 47.8159C15.8362 47.8159 11 38.3961 11 32.1651C11 23.5295 18.5442 16.5039 27.8173 16.5039C37.089 16.5039 44.6318 23.5299 44.6318 32.1654C44.6318 37.4797 41.0445 47.8982 32.7521 47.8982ZM27.8311 45.4476C28.111 45.4476 28.3635 45.457 28.6029 45.4763C29.2339 45.5275 29.7493 45.5915 30.2478 45.6534C31.0618 45.7545 31.7648 45.8416 32.7521 45.8416C39.7489 45.8416 42.5752 36.19 42.5752 32.1651C42.5752 24.6635 35.9547 18.5601 27.8169 18.5601C19.6778 18.5601 13.0566 24.6631 13.0566 32.1647C13.0566 34.9014 14.1957 38.3892 15.9597 41.0501C17.1251 42.8088 19.6058 45.759 23.1254 45.759C23.7418 45.759 24.4801 45.6884 25.2619 45.614C26.1188 45.5324 27.0054 45.4476 27.8311 45.4476Z" fill="#564B52"/>
<path d="M27.2747 25.2524C27.1415 25.2524 27.008 25.2476 26.8748 25.2379C24.0959 25.0362 22.3728 22.7652 22.3005 22.6683C21.9612 22.2131 22.0552 21.5689 22.5105 21.2292C22.9647 20.8909 23.6068 20.9833 23.9468 21.4357C23.9721 21.4686 25.2143 23.0637 27.0395 23.1872C28.2956 23.2727 29.5997 22.6462 30.9195 21.3264C31.3215 20.9251 31.9722 20.9255 32.3738 21.3264C32.7754 21.7281 32.7754 22.3791 32.3738 22.7807C30.7323 24.4225 29.0189 25.2524 27.2747 25.2524Z" fill="#564B52"/>
<path d="M26.7564 24.7043C26.3921 24.7043 26.04 24.5102 25.8539 24.1678C25.8155 24.0972 24.9143 22.4121 24.7701 19.9809C24.6369 17.7372 25.1385 14.3954 28.283 11.217C28.6826 10.8133 29.3336 10.8102 29.7373 11.2097C30.141 11.6089 30.1445 12.2603 29.7449 12.6637C24.8026 17.6583 27.5438 22.9663 27.6631 23.1898C27.9295 23.6897 27.7423 24.3127 27.2435 24.5808C27.0885 24.6645 26.9211 24.7043 26.7564 24.7043Z" fill="#564B52"/>
<path d="M22.7892 19.9504C20.3008 19.9504 18.1218 19.0133 16.6536 17.3123C14.5946 14.9271 14.2667 11.3557 15.7971 7.99145L15.9933 7.56042L16.4485 7.42931C17.4379 7.1446 18.4338 7 19.4087 7C21.897 7 24.076 7.93679 25.5442 9.63776C27.6032 12.023 27.9311 15.5944 26.4007 18.9586L26.2046 19.39L25.7493 19.5211C24.7603 19.8058 23.7643 19.9504 22.7892 19.9504ZM17.4818 9.28456C16.5025 11.7704 16.7682 14.2975 18.2104 15.9687C19.2821 17.2099 20.908 17.8935 22.7892 17.8935C23.4212 17.8935 24.0674 17.817 24.716 17.6655C25.6957 15.1793 25.43 12.6529 23.9878 10.9817C22.9158 9.74015 21.2899 9.05658 19.4087 9.05658C18.7767 9.05624 18.1308 9.13304 17.4818 9.28456Z" fill="#564B52"/>
</svg>
