<svg width="66" height="66" viewBox="0 0 66 66" fill="none" xmlns="http://www.w3.org/2000/svg">
<rect width="66" height="66" rx="20" fill="#E30000"/>
<path d="M19.1288 18.7282C22.8387 15.0253 27.3109 13.1738 32.5454 13.1738C37.78 13.1738 42.2268 15.0253 45.8859 18.7282C49.5958 22.3803 51.4507 26.8188 51.4507 32.0434C51.4507 37.268 49.5958 41.7318 45.8859 45.4347C42.2268 49.0869 37.78 50.913 32.5454 50.913C27.3109 50.913 22.8387 49.0869 19.1288 45.4347C15.4697 41.7318 13.6401 37.268 13.6401 32.0434C13.6401 26.8188 15.4697 22.3803 19.1288 18.7282ZM32.5454 48.4782C37.1193 48.4782 41.0071 46.8803 44.2088 43.6847C47.4105 40.4383 49.0113 36.5579 49.0113 32.0434C49.0113 27.4782 47.3851 23.5977 44.1326 20.4021C40.9309 17.2064 37.0685 15.6086 32.5454 15.6086C27.9716 15.6086 24.0838 17.2318 20.8821 20.4782C17.6804 23.6738 16.0795 27.5289 16.0795 32.0434C16.0795 36.6086 17.6804 40.489 20.8821 43.6847C24.1346 46.8803 28.0224 48.4782 32.5454 48.4782ZM43.3702 27.5543L29.5724 41.1738C29.1659 41.6303 28.7339 41.6303 28.2765 41.1738L21.7206 34.5543C21.3141 34.1485 21.3141 33.7173 21.7206 33.2608L22.4067 32.6521C22.8133 32.2463 23.2452 32.2463 23.7026 32.6521L28.9626 37.9782L41.3882 25.576C41.8456 25.1702 42.2776 25.1956 42.6842 25.6521L43.3702 26.2608C43.7768 26.7173 43.7768 27.1485 43.3702 27.5543Z" fill="white"/>
</svg>
