<svg width="55" height="55" viewBox="0 0 55 55" fill="none" xmlns="http://www.w3.org/2000/svg">
<path d="M28 11C19.1613 11 12 18.3851 12 27.5C12 36.6149 19.1613 44 28 44C36.8387 44 44 36.6149 44 27.5C44 18.3851 36.8387 11 28 11ZM36.2581 39.0766C33.9355 40.873 31.0323 41.871 28 41.871C24.9032 41.871 22 40.873 19.7419 39.0766V38.1452C19.7419 35.8165 21.5484 33.8871 23.871 33.8871C24.5806 33.8871 25.6129 34.6855 28 34.6855C30.3226 34.6855 31.3548 33.8871 32.129 33.8871C34.3871 33.8871 36.2581 35.8165 36.2581 38.1452V39.0766ZM38.1935 37.2802C37.7419 34.1532 35.2258 31.7581 32.129 31.7581C30.7742 31.7581 30.129 32.5565 28 32.5565C25.8065 32.5565 25.1613 31.7581 23.871 31.7581C20.7097 31.7581 18.1935 34.1532 17.7419 37.2802C15.4194 34.6855 14.0645 31.2923 14.0645 27.5C14.0645 19.5827 20.2581 13.129 28 13.129C35.6774 13.129 41.9355 19.5827 41.9355 27.5C41.9355 31.2923 40.5161 34.6855 38.1935 37.2802ZM28 18.4516C24.8387 18.4516 22.3226 21.1129 22.3226 24.3065C22.3226 27.5665 24.8387 30.1613 28 30.1613C31.0968 30.1613 33.6774 27.5665 33.6774 24.3065C33.6774 21.1129 31.0968 18.4516 28 18.4516ZM28 28.0323C26 28.0323 24.3871 26.369 24.3871 24.3065C24.3871 22.3105 26 20.5806 28 20.5806C29.9355 20.5806 31.6129 22.3105 31.6129 24.3065C31.6129 26.369 29.9355 28.0323 28 28.0323Z" fill="#564B52"/>
</svg>
