<svg width="66" height="66" viewBox="0 0 66 66" fill="none" xmlns="http://www.w3.org/2000/svg">
<rect width="66" height="66" rx="20" fill="#E30000"/>
<path d="M46.1035 17.4348H42.4444V13.4782C42.4444 13.0217 41.987 12.5652 41.5296 12.5652H40.9198C40.3862 12.5652 40.005 13.0217 40.005 13.4782V17.4348H25.3687V13.4782C25.3687 13.0217 24.9113 12.5652 24.4539 12.5652H23.844C23.3104 12.5652 22.9293 13.0217 22.9293 13.4782V17.4348H19.2702C17.2119 17.4348 15.6111 19.1087 15.6111 21.0869V47.8695C15.6111 49.9239 17.2119 51.5217 19.2702 51.5217H46.1035C48.0855 51.5217 49.7626 49.9239 49.7626 47.8695V21.0869C49.7626 19.1087 48.0855 17.4348 46.1035 17.4348ZM19.2702 19.8695H46.1035C46.7134 19.8695 47.3232 20.4782 47.3232 21.0869V24.7391H18.0505V21.0869C18.0505 20.4782 18.5841 19.8695 19.2702 19.8695ZM46.1035 49.0869H19.2702C18.5841 49.0869 18.0505 48.5543 18.0505 47.8695V27.1739H47.3232V47.8695C47.3232 48.5543 46.7134 49.0869 46.1035 49.0869ZM35.05 33.1087C34.8975 32.9565 34.6688 32.9565 34.5164 33.1087L24.5301 43.0761L24.149 45.7391C24.0727 46.2717 24.5301 46.7282 25.0637 46.6521L27.7318 46.2717L37.7181 36.3043C37.8706 36.1521 37.8706 35.9239 37.7181 35.7717L35.05 33.1087ZM40.7673 33.2608C41.3009 32.7282 41.3009 31.8913 40.7673 31.3587L39.4714 30.0652C38.9378 29.5326 38.0992 29.5326 37.5656 30.0652L36.1172 31.5108C35.9648 31.663 35.9648 31.8913 36.1172 32.0434L38.7853 34.7065C38.9378 34.8587 39.1665 34.8587 39.3189 34.7065L40.7673 33.2608Z" fill="white"/>
</svg>
