<svg width="55" height="56" viewBox="0 0 55 56" fill="none" xmlns="http://www.w3.org/2000/svg">
<path d="M52.4764 45.1027L39.5662 32.1914C39.2093 31.8508 38.7344 31.6607 38.2409 31.6607C37.747 31.6607 37.2726 31.8508 36.9152 32.1914L36.67 32.4366L34.3462 30.1124C37.0371 26.3585 38.2176 21.7294 37.6528 17.1455C37.0883 12.5614 34.8195 8.35753 31.2976 5.36947C27.7762 2.38101 23.2591 0.826499 18.6436 1.0154C14.0289 1.20394 9.65343 3.12162 6.38788 6.38787C3.12163 9.65372 1.20401 14.0291 1.0154 18.6436C0.826473 23.2588 2.38102 27.7758 5.36948 31.2976C8.35793 34.8195 12.5618 37.0883 17.1455 37.6528C21.7296 38.2176 26.3588 37.0371 30.1124 34.3462L32.4362 36.67L32.191 36.9152C31.8403 37.2671 31.6436 37.7439 31.6436 38.2409C31.6436 38.7379 31.8407 39.2143 32.1914 39.5662L45.1027 52.4774C46.4202 53.7918 48.339 54.304 50.1365 53.8217C51.9343 53.3391 53.3383 51.9347 53.8205 50.1372C54.3032 48.3394 53.7907 46.421 52.4763 45.1034L52.4764 45.1027ZM30.8094 32.5837C30.4986 32.2726 30.0044 32.2427 29.6583 32.5139C26.3168 35.1279 22.104 36.3683 17.8793 35.9819C13.6544 35.5958 9.73644 33.6118 6.92457 30.4356C4.1123 27.259 2.61827 23.1292 2.74738 18.8889C2.87618 14.6486 4.61812 10.6173 7.6182 7.61743C10.6179 4.61735 14.6492 2.87542 18.8897 2.74661C23.1301 2.61742 27.2599 4.11143 30.4363 6.9238C33.6125 9.73567 35.5966 13.6537 35.9826 17.8785C36.369 22.103 35.1287 26.3158 32.5147 29.6575C32.2435 30.0036 32.2734 30.4978 32.5845 30.8086L35.4415 33.6656L33.6662 35.4409L30.8094 32.5837ZM33.4215 38.1432L38.1442 33.4206C38.2004 33.3752 38.2807 33.3752 38.3374 33.4206L39.4722 34.5554L34.5564 39.4716L33.4216 38.3368H33.4219C33.3684 38.2832 33.3684 38.1967 33.4216 38.1432L33.4215 38.1432ZM51.248 51.2471C50.5954 51.8981 49.7117 52.2635 48.7903 52.2635C47.8685 52.2635 46.9847 51.8981 46.3322 51.2471L35.7857 40.6996L40.7015 35.7834L51.248 46.3309C51.8998 46.9831 52.266 47.8673 52.266 48.789C52.266 49.7112 51.8998 50.5954 51.248 51.2471ZM25.1762 16.8287H22.0442V13.6964C22.0438 13.2979 21.8852 12.9158 21.6035 12.6342C21.3219 12.3525 20.9397 12.1942 20.5413 12.1938H18.3327C17.9343 12.1942 17.5525 12.3525 17.2705 12.6342C16.9888 12.9162 16.8306 13.298 16.8302 13.6964V16.8287H13.6978C13.2994 16.8291 12.9176 16.9874 12.6356 17.2691C12.3539 17.5511 12.1957 17.9329 12.1953 18.3313V20.5399C12.1957 20.9383 12.3539 21.3204 12.6356 21.6021C12.9173 21.8837 13.2994 22.0424 13.6978 22.0428H16.8302V25.1748C16.8306 25.5732 16.9888 25.9549 17.2705 26.2366C17.5525 26.5186 17.9343 26.6769 18.3327 26.6773H20.5413C20.9397 26.6769 21.3219 26.5186 21.6035 26.237C21.8852 25.9549 22.0438 25.5732 22.0442 25.1748V22.0428H25.1762C25.5746 22.0424 25.9564 21.8837 26.2384 21.6021C26.5201 21.3204 26.6784 20.9383 26.6787 20.5399V18.3312C26.6784 17.9328 26.5201 17.5511 26.238 17.269C25.9564 16.9874 25.5746 16.8291 25.1762 16.8287L25.1762 16.8287ZM24.9407 20.3048H21.1752C20.6953 20.3048 20.3062 20.694 20.3062 21.1739V24.9394H18.5681V21.1739C18.5681 20.9434 18.4766 20.7223 18.3136 20.5593C18.1507 20.3964 17.9295 20.3048 17.6991 20.3048H13.9332V18.5668H17.6991C17.9295 18.5668 18.1507 18.4752 18.3136 18.3123C18.4766 18.1493 18.5681 17.9282 18.5681 17.6977V13.9318H20.3062V17.6977C20.3062 17.9282 20.3977 18.1493 20.5607 18.3123C20.7236 18.4752 20.9448 18.5668 21.1752 18.5668H24.9407V20.3048ZM29.9221 8.95087L29.9217 8.95048C27.1416 6.17308 23.3722 4.6135 19.4427 4.61469C15.5127 4.61624 11.7444 6.17814 8.96573 8.95754C6.18753 11.7368 4.62676 15.5055 4.62676 19.4355C4.62676 23.3651 6.18753 27.1342 8.96573 29.9135C11.7443 32.6928 15.5125 34.2547 19.4427 34.2559C23.3723 34.2575 27.1418 32.6978 29.9217 29.9201C32.7278 27.1529 34.3071 23.3764 34.3071 19.4352C34.3071 15.4943 32.7278 11.718 29.9217 8.95029L29.9221 8.95087ZM28.693 28.6912C26.2388 31.1431 22.9113 32.52 19.4418 32.5188C15.9727 32.5176 12.6459 31.1385 10.1933 28.6849C7.74065 26.2315 6.36302 22.9044 6.36302 19.4352C6.36302 15.9661 7.74065 12.6389 10.1933 10.1855C12.6459 7.73205 15.9727 6.35283 19.4418 6.35164C22.9114 6.35048 26.2389 7.72738 28.693 10.1792C31.1438 12.6361 32.5202 15.9649 32.5202 19.4351C32.5202 22.9054 31.1438 26.2341 28.693 28.691V28.6912Z" fill="#564B52"/>
</svg>
