<svg width="40" height="56" viewBox="0 0 40 56" fill="none" xmlns="http://www.w3.org/2000/svg">
<path d="M34.6619 34.1072V18.4171C34.6619 18.2523 34.596 18.0942 34.4788 17.9777C34.3615 17.8612 34.2024 17.7957 34.0366 17.7957H6.31238C5.96704 17.7957 5.68702 18.074 5.68702 18.4171V34.1072C5.68702 34.2719 5.7529 34.4301 5.87016 34.5466C5.98741 34.6631 6.14655 34.7286 6.31238 34.7286H34.0366C34.2024 34.7286 34.3615 34.6631 34.4788 34.5466C34.596 34.4301 34.6619 34.2719 34.6619 34.1072ZM33.4112 33.4857H6.93775V19.0385H33.4112V33.4857ZM16.0445 28.1264H18.2984V30.3659C18.2986 30.6508 18.4126 30.9241 18.6152 31.1255C18.8179 31.3271 19.0929 31.4403 19.3796 31.4406H20.9693C21.256 31.4403 21.531 31.3271 21.7336 31.1255C21.9363 30.9241 22.0502 30.6508 22.0505 30.3659V28.1264H24.3043C24.5911 28.1261 24.8658 28.0126 25.0684 27.8112C25.2711 27.6098 25.3853 27.3368 25.3859 27.052L25.3856 25.4724C25.3853 25.1875 25.2714 24.9145 25.0684 24.7131C24.8658 24.5114 24.591 24.3983 24.3043 24.398H22.0505V22.1584C22.0502 21.8735 21.9363 21.6003 21.7336 21.3989C21.531 21.1975 21.256 21.084 20.9693 21.0837H19.3796C19.0929 21.084 18.8179 21.1975 18.6152 21.3989C18.4126 21.6003 18.2986 21.8735 18.2984 22.1584V24.398H16.0445C15.7578 24.398 15.4828 24.5112 15.2799 24.7126C15.0772 24.9142 14.9633 25.1875 14.9633 25.4724L14.963 27.0525C14.9636 27.3374 15.0777 27.6104 15.2804 27.8116C15.4831 28.013 15.7581 28.1261 16.0445 28.1264ZM16.214 25.6407H18.9237C19.2691 25.6407 19.5491 25.3625 19.5491 25.0193V22.3264H20.7998V25.0193C20.7998 25.3625 21.0799 25.6407 21.4252 25.6407H24.1349L24.1352 26.8835H21.4252C21.0799 26.8835 20.7998 27.1618 20.7998 27.505V30.1978H19.5491V27.505C19.5491 27.3402 19.4832 27.182 19.366 27.0655C19.2487 26.949 19.0896 26.8835 18.9237 26.8835H16.2137L16.214 25.6407ZM37.7102 35.971H37.1639V18.1284C37.163 17.3811 36.864 16.6645 36.3322 16.136C35.8003 15.6075 35.0792 15.3104 34.3271 15.3096H6.02254C5.27046 15.3104 4.54932 15.6075 4.01743 16.136C3.48559 16.6645 3.18659 17.381 3.18573 18.1284V35.971H2.63937C2.23149 35.9716 1.84062 36.1328 1.55223 36.4193C1.26383 36.7059 1.10163 37.0943 1.10107 37.4996V38.8306C1.10135 39.2359 1.26356 39.6246 1.55195 39.9111C1.84035 40.198 2.23148 40.3592 2.63938 40.3597H37.71C38.1179 40.3592 38.5091 40.198 38.7974 39.9111C39.0858 39.6246 39.248 39.2359 39.2483 38.8306V37.4996C39.2478 37.0943 39.0856 36.7059 38.7972 36.4193C38.5088 36.1328 38.1181 35.9716 37.7102 35.971ZM4.43636 18.1284C4.43692 17.7106 4.60415 17.3101 4.90147 17.0146C5.19881 16.7191 5.60194 16.553 6.02242 16.5524H34.3269C34.7474 16.553 35.1505 16.7191 35.4479 17.0146C35.7452 17.31 35.9124 17.7106 35.913 18.1284V35.971H4.43662L4.43636 18.1284ZM37.9975 38.8302C37.9984 38.9065 37.9685 38.9797 37.9143 39.0338C37.8602 39.0877 37.7865 39.1176 37.71 39.1168H2.63934C2.56284 39.1176 2.48913 39.0877 2.43497 39.0338C2.38081 38.9797 2.35094 38.9065 2.35177 38.8302V37.4995C2.35094 37.4235 2.38109 37.3502 2.43525 37.2967C2.48913 37.2429 2.56284 37.2129 2.63934 37.2137H13.9939L14.4344 37.8887L14.4347 37.8884C14.5497 38.0651 14.7474 38.1719 14.9593 38.1719H25.3904C25.6023 38.1719 25.8 38.0651 25.915 37.8884L26.3556 37.2135L37.7108 37.2137C37.7873 37.2129 37.861 37.2429 37.9149 37.2967C37.9691 37.3502 37.9992 37.4235 37.9984 37.4995L37.9975 38.8302Z" fill="#9F9F9F"/>
</svg>
