<svg width="99" height="87" viewBox="0 0 99 87" fill="none" xmlns="http://www.w3.org/2000/svg">
<path d="M69.3565 5H29.6435C28.1475 5.00169 26.7126 5.60072 25.655 6.6658C24.5968 7.73029 24.0017 9.17466 24 10.6803V76.3197C24.0017 77.8255 24.5968 79.2697 25.655 80.3342C26.7126 81.3993 28.1476 81.9983 29.6435 82H69.3565C70.8526 81.9983 72.2874 81.3993 73.345 80.3342C74.4032 79.2697 74.9983 77.8253 75 76.3197V10.6803C74.9983 9.17452 74.4032 7.73031 73.345 6.6658C72.2874 5.60074 70.8524 5.00173 69.3565 5V5ZM72.4918 76.3204C72.4912 77.1572 72.1603 77.9591 71.5725 78.5508C70.9846 79.1425 70.1879 79.4756 69.3565 79.4762H29.6435C28.8121 79.4756 28.0154 79.1425 27.4275 78.5508C26.8396 77.9591 26.5087 77.1572 26.5082 76.3204V10.681C26.5087 9.84421 26.8396 9.04237 27.4275 8.45061C28.0154 7.8589 28.8121 7.52586 29.6435 7.5253H69.3565C70.1879 7.52586 70.9845 7.8589 71.5725 8.45061C72.1603 9.04232 72.4912 9.84421 72.4918 10.681V76.3204ZM68.7295 10.0492H30.2706C29.938 10.0492 29.6189 10.1822 29.3837 10.4189C29.1486 10.6555 29.0164 10.9767 29.0164 11.3115V75.6885C29.0164 76.0233 29.1486 76.3445 29.3837 76.5811C29.6189 76.8178 29.938 76.9508 30.2706 76.9508H68.7295C69.062 76.9508 69.3812 76.8178 69.6163 76.5811C69.8514 76.3445 69.9836 76.0233 69.9836 75.6885V11.3115C69.9836 10.9767 69.8514 10.6555 69.6163 10.4189C69.3812 10.1822 69.062 10.0492 68.7295 10.0492ZM67.4753 74.4262H31.5247V12.5738H67.4753V74.4262ZM40.4611 30.1925C42.166 30.1925 43.8008 29.5107 45.0061 28.2979C46.2115 27.0847 46.8884 25.4392 46.8884 23.7232C46.8884 22.0072 46.2116 20.3618 45.0061 19.1485C43.8007 17.9353 42.166 17.2539 40.4611 17.2539C38.7562 17.2539 37.1214 17.9352 35.9161 19.1485C34.7112 20.3618 34.0337 22.0072 34.0337 23.7232C34.0354 25.4386 34.7134 27.083 35.9182 28.2956C37.123 29.5083 38.7568 30.1908 40.4609 30.1924L40.4611 30.1925ZM40.4611 27.6679C39.8609 27.664 39.2697 27.5197 38.7344 27.2464L43.9614 21.9853C44.233 22.524 44.3763 23.1191 44.3802 23.7232C44.3791 24.7691 43.9653 25.7716 43.2308 26.511C42.4962 27.2503 41.5003 27.6662 40.4611 27.6679L40.4611 27.6679ZM40.4611 19.7785C41.0613 19.7825 41.6525 19.9267 42.1878 20.2L36.9608 25.4611C36.6892 24.9224 36.5459 24.3273 36.542 23.7232C36.5437 22.6773 36.9568 21.6748 37.6914 20.9355C38.4259 20.1961 39.4219 19.7797 40.461 19.7786L40.4611 19.7785ZM58.5403 30.1925C60.2452 30.1925 61.88 29.5107 63.0854 28.2979C64.2902 27.0847 64.9677 25.4392 64.9677 23.7232C64.9677 22.0072 64.2902 20.3618 63.0854 19.1485C61.88 17.9352 60.2452 17.2539 58.5403 17.2539C56.8355 17.2539 55.2007 17.9352 53.9953 19.1485C52.7899 20.3618 52.113 22.0072 52.113 23.7232C52.1147 25.4386 52.7927 27.083 53.9975 28.2956C55.2022 29.5083 56.836 30.1908 58.5402 30.1924L58.5403 30.1925ZM58.5403 27.6679C57.9402 27.664 57.3489 27.5197 56.8137 27.2464L62.0407 21.9853C62.3122 22.524 62.4555 23.1191 62.4595 23.7232C62.4578 24.7691 62.0446 25.7716 61.3101 26.511C60.5755 27.2503 59.5795 27.6662 58.5404 27.6679L58.5403 27.6679ZM58.5403 19.7785C59.1405 19.7825 59.7318 19.9267 60.267 20.2L55.04 25.4611C54.7685 24.9224 54.6252 24.3273 54.6212 23.7232C54.6224 22.6773 55.0361 21.6748 55.7706 20.9355C56.5052 20.1961 57.5012 19.7797 58.5403 19.7786L58.5403 19.7785ZM40.4611 49.6509C42.166 49.6509 43.8008 48.969 45.0061 47.7557C46.2115 46.5424 46.8884 44.897 46.8884 43.1816C46.8884 41.4656 46.2116 39.8202 45.0061 38.6069C43.8007 37.3936 42.166 36.7123 40.4611 36.7123C38.7562 36.7123 37.1214 37.3936 35.9161 38.6069C34.7112 39.8202 34.0337 41.4656 34.0337 43.1816C34.0354 44.8965 34.7134 46.5408 35.9182 47.754C37.123 48.9667 38.7568 49.6486 40.4609 49.6508L40.4611 49.6509ZM40.4611 47.1263C39.8609 47.1224 39.2697 46.9781 38.7344 46.7042L43.962 41.4437C44.233 41.9824 44.3763 42.5775 44.3802 43.1811C44.3791 44.227 43.9654 45.2294 43.2308 45.9694C42.4963 46.7087 41.5003 47.1246 40.4612 47.1263L40.4611 47.1263ZM40.4611 39.2369C41.0618 39.2403 41.6531 39.3851 42.1889 39.6584L36.9608 44.9195C36.6892 44.3808 36.5459 43.7857 36.542 43.1816C36.5431 42.1357 36.9568 41.1332 37.6914 40.3939C38.4259 39.654 39.4219 39.2381 40.461 39.237L40.4611 39.2369ZM58.5403 49.6509C60.2452 49.6509 61.88 48.969 63.0854 47.7557C64.2902 46.5425 64.9677 44.897 64.9677 43.1816C64.9677 41.4656 64.2902 39.8202 63.0854 38.6069C61.88 37.3936 60.2452 36.7123 58.5403 36.7123C56.8355 36.7123 55.2007 37.3936 53.9953 38.6069C52.7899 39.8202 52.113 41.4656 52.113 43.1816C52.1147 44.8965 52.7927 46.5408 53.9975 47.754C55.2023 48.9667 56.836 49.6486 58.5402 49.6508L58.5403 49.6509ZM58.5403 47.1263C57.9402 47.1224 57.3489 46.9781 56.8137 46.7042L62.0413 41.4437H62.0407C62.3122 41.9824 62.4555 42.5775 62.4595 43.1811C62.4578 44.227 62.0446 45.2294 61.3101 45.9694C60.5755 46.7087 59.5795 47.1246 58.5404 47.1263L58.5403 47.1263ZM58.5403 39.2369C59.1411 39.2403 59.7323 39.3851 60.2676 39.6584L55.04 44.919V44.9195C54.7685 44.3808 54.6252 43.7857 54.6212 43.181C54.6229 42.1357 55.0361 41.1332 55.7706 40.3939C56.5052 39.654 57.5012 39.2381 58.5403 39.237L58.5403 39.2369ZM40.4611 69.1093V69.1087C42.166 69.1087 43.8008 68.4274 45.0061 67.2141C46.2115 66.0009 46.8884 64.3554 46.8884 62.6394C46.8884 60.9234 46.2116 59.278 45.0061 58.0653C43.8007 56.852 42.166 56.1701 40.4611 56.1701C38.7562 56.1701 37.1214 56.852 35.9161 58.0653C34.7112 59.278 34.0337 60.9234 34.0337 62.6394C34.0354 64.3549 34.7134 65.9992 35.9182 67.2118C37.123 68.4245 38.7568 69.107 40.4609 69.1086L40.4611 69.1093ZM40.4611 66.5847V66.5841C39.8604 66.5802 39.2686 66.4359 38.7327 66.1615L43.9603 60.8998C44.2329 61.4391 44.3763 62.0348 44.3802 62.6395C44.3791 63.6854 43.9653 64.6879 43.2308 65.4272C42.4962 66.1671 41.5002 66.583 40.4611 66.5841L40.4611 66.5847ZM40.4611 58.6953V58.6947C41.0607 58.6987 41.6514 58.8424 42.1866 59.1157L36.9602 64.3762C36.6887 63.8375 36.5459 63.243 36.542 62.6394C36.5436 61.5935 36.9568 60.5911 37.6914 59.8517C38.4259 59.1124 39.4219 58.6965 40.461 58.6948L40.4611 58.6953ZM58.5403 69.1093V69.1087C60.2452 69.1087 61.88 68.4274 63.0854 67.2141C64.2902 66.0009 64.9677 64.3554 64.9677 62.6394C64.9677 60.9234 64.2902 59.278 63.0854 58.0653C61.88 56.852 60.2452 56.1701 58.5403 56.1701C56.8355 56.1701 55.2007 56.852 53.9953 58.0653C52.7899 59.278 52.113 60.9234 52.113 62.6394C52.1147 64.3549 52.7927 65.9992 53.9975 67.2118C55.2022 68.4245 56.836 69.107 58.5402 69.1086L58.5403 69.1093ZM58.5403 66.5847V66.5841C57.9396 66.5802 57.3478 66.4359 56.812 66.1615L62.0395 60.8998C62.3116 61.4391 62.4555 62.0348 62.4594 62.6395C62.4583 63.6854 62.0446 64.6879 61.31 65.4272C60.5755 66.1671 59.5795 66.583 58.5404 66.5841L58.5403 66.5847ZM58.5403 58.6953V58.6947C59.14 58.6987 59.7306 58.8424 60.2653 59.1157L55.0389 64.3762H55.0394C54.7679 63.8375 54.6251 63.243 54.6212 62.6394C54.6223 61.5935 55.0361 60.5911 55.7706 59.8517C56.5052 59.1124 57.5011 58.6965 58.5403 58.6948L58.5403 58.6953Z" fill="white"/>
</svg>
