<svg width="55" height="55" viewBox="0 0 55 55" fill="none" xmlns="http://www.w3.org/2000/svg">
<path d="M37.0195 43.5386C37.182 43.5386 37.3444 43.4765 37.4682 43.3527L41.2759 39.545C41.3951 39.4263 41.4618 39.2645 41.4618 39.0964V13.7117C41.4618 13.3615 41.1781 13.0771 40.8272 13.0771H37.0195C36.6686 13.0771 36.3849 13.3615 36.3849 13.7117C36.3849 14.062 36.6686 14.3463 37.0195 14.3463H40.1926V38.8335L36.5708 42.4553C36.3227 42.7034 36.3227 43.1046 36.5708 43.3526C36.6946 43.4764 36.8571 43.5386 37.0195 43.5386Z" fill="#564B52"/>
<path d="M17.9804 14.3463C18.3313 14.3463 18.615 14.062 18.615 13.7117C18.615 13.3615 18.3313 13.0771 17.9804 13.0771H14.1727C13.8217 13.0771 13.5381 13.3615 13.5381 13.7117V41.0001C13.5381 42.4001 14.6766 43.5386 16.0765 43.5386H34.4804C34.8313 43.5386 35.115 43.2543 35.115 42.904V39.0963C35.115 38.8088 35.398 38.4617 35.7495 38.4617H38.288C38.6389 38.4617 38.9226 38.1774 38.9226 37.8271C38.9226 37.4768 38.6389 37.1925 38.288 37.1925H35.7495C34.7354 37.1925 33.8457 38.0823 33.8457 39.0964V42.2694H16.0765C15.3766 42.2694 14.8073 41.7002 14.8073 41.0001V14.3463H17.9804V14.3463Z" fill="#564B52"/>
<path d="M27.4997 10.5381C26.7998 10.5381 26.2305 11.1073 26.2305 11.8073C26.2305 12.5073 26.7997 13.0766 27.4997 13.0766C28.1997 13.0766 28.769 12.5074 28.769 11.8073C28.769 11.1074 28.1997 10.5381 27.4997 10.5381Z" fill="#564B52"/>
<path d="M40.8269 10.5381H37.0192C36.6683 10.5381 36.3846 10.8224 36.3846 11.1727C36.3846 11.523 36.6683 11.8073 37.0192 11.8073H40.8269C41.7522 11.8073 42.7307 12.7858 42.7307 13.7111V42.9033C42.7307 43.8286 41.7522 44.8072 40.8269 44.8072H14.1731C13.2478 44.8072 12.2693 43.8286 12.2693 42.9033V13.7112C12.2693 12.7859 13.2478 11.8073 14.1731 11.8073H17.9808C18.3317 11.8073 18.6154 11.523 18.6154 11.1727C18.6154 10.8225 18.3317 10.5382 17.9808 10.5382H14.1731C12.5421 10.5382 11 12.0803 11 13.7113V42.9035C11 44.5344 12.5421 46.0765 14.1731 46.0765H40.8269C42.4579 46.0765 44 44.5344 44 42.9034V13.7112C44 12.0802 42.4579 10.5381 40.8269 10.5381Z" fill="#564B52"/>
<path d="M16.0771 28.9424C16.0771 29.2927 16.3608 29.577 16.7117 29.577H19.2502C19.5237 29.577 19.7661 29.4025 19.8518 29.1429L21.7887 23.3337L26.264 36.7583C26.3484 37.0121 26.5826 37.1854 26.8504 37.1924H26.8656C27.1264 37.1924 27.3619 37.0325 27.4571 36.7875L31.3803 26.6991L32.6438 29.2261C32.7517 29.4413 32.9712 29.5771 33.2117 29.5771H35.233C35.4958 30.3145 36.1932 30.8463 37.0194 30.8463C38.0691 30.8463 38.9233 29.9921 38.9233 28.9424C38.9233 27.8928 38.0691 27.0386 37.0194 27.0386C36.1932 27.0386 35.4957 27.5704 35.233 28.3078H33.604L31.8759 24.8511C31.7636 24.6264 31.5129 24.4957 31.2787 24.5008C31.028 24.5129 30.8072 24.6709 30.7165 24.9051L26.9114 34.6889L22.3903 21.1265C22.3046 20.8669 22.0622 20.6924 21.7887 20.6924C21.5151 20.6924 21.2734 20.8669 21.187 21.1265L18.7927 28.3078H16.7117C16.3608 28.3078 16.0771 28.5921 16.0771 28.9424ZM37.0194 28.3078C37.3697 28.3078 37.654 28.5927 37.654 28.9424C37.654 29.2921 37.3697 29.577 37.0194 29.577C36.6691 29.577 36.3848 29.2921 36.3848 28.9424C36.3848 28.5927 36.6691 28.3078 37.0194 28.3078Z" fill="#564B52"/>
<path d="M20.5194 15.6154H34.4808C34.8318 15.6154 35.1154 15.3311 35.1154 14.9808V11.1731C35.1154 10.8228 34.8318 10.5385 34.4808 10.5385H31.0901C30.5603 9.04079 29.1254 8 27.5001 8C25.8749 8 24.44 9.04079 23.9101 10.5384H20.5194C20.1684 10.5384 19.8848 10.8227 19.8848 11.173V14.9807C19.8848 15.3311 20.1684 15.6154 20.5194 15.6154ZM21.154 11.8077H24.3912C24.6926 11.8077 24.9529 11.5951 25.0125 11.2994C25.2517 10.1228 26.2976 9.26925 27.5002 9.26925C28.7028 9.26925 29.7487 10.1228 29.9879 11.2994C30.0476 11.5951 30.3078 11.8077 30.6092 11.8077H33.8464V14.3461H21.154V11.8077Z" fill="#564B52"/>
</svg>
