<svg width="30" height="30" viewBox="0 0 30 30" fill="none" xmlns="http://www.w3.org/2000/svg">
<g clip-path="url(#clip0_2_658)">
<path fill-rule="evenodd" clip-rule="evenodd" d="M2.03812 28C2.55012 21.297 8.16812 16 15.0001 16C21.8321 16 27.4491 21.297 27.9621 28H2.03812ZM9.00012 8C9.00012 4.691 11.6911 2 15.0001 2C18.3091 2 21.0001 4.691 21.0001 8C21.0001 11.309 18.3091 14 15.0001 14C11.6911 14 9.00012 11.309 9.00012 8ZM19.4151 14.665C21.5731 13.23 23.0001 10.78 23.0001 8C23.0001 3.589 19.4111 0 15.0001 0C10.5891 0 7.00012 3.589 7.00012 8C7.00012 10.78 8.42712 13.231 10.5851 14.665C4.46212 16.555 0.00012207 22.265 0.00012207 29C0.00012207 29.552 0.448122 30 1.00012 30H29.0001C29.5531 30 30.0001 29.552 30.0001 29C30.0001 22.265 25.5381 16.555 19.4151 14.665Z" fill="#364F6B"/>
</g>
<defs>
<clipPath id="clip0_2_658">
<rect width="30" height="30" fill="white"/>
</clipPath>
</defs>
</svg>
