<svg width="52" height="40" viewBox="0 0 52 40" fill="none" xmlns="http://www.w3.org/2000/svg">
<path d="M2.9579 9.2152H3.4579V8.7152V4.57191C3.4579 4.27567 3.70044 4.02978 4.00737 4.02978H5.87359H6.37359V3.52978V1.04213C6.37359 0.745886 6.61613 0.5 6.92306 0.5H23.9602C24.2671 0.5 24.5097 0.745886 24.5097 1.04213V3.52978V4.02978H25.0097H47.9839C48.2909 4.02978 48.5334 4.27567 48.5334 4.57191V8.7152V9.2152H49.0334H50.9504C51.2573 9.2152 51.4999 9.46109 51.4999 9.75733C51.4999 9.79787 51.4951 9.83193 51.4896 9.85377L51.4829 9.88058L51.4791 9.90797L47.806 36.7175L47.8059 36.7182C47.7008 37.4933 47.3605 38.2 46.853 38.7039C46.3556 39.1978 45.7053 39.5 44.9371 39.5H6.22059C5.44755 39.5 4.77994 39.1931 4.27411 38.6946C3.76491 38.1885 3.43086 37.4826 3.345 36.7024C3.34496 36.7021 3.34492 36.7018 3.34488 36.7014L0.501454 9.81503C0.501439 9.81488 0.501424 9.81474 0.501409 9.81459C0.471192 9.5208 0.687216 9.25198 0.990185 9.22101L0.939341 8.72361L0.988745 9.22116C0.997692 9.22027 1.0063 9.21974 1.02638 9.2186L1.02806 9.21851C1.03997 9.21783 1.05715 9.21686 1.07708 9.2152H2.9579ZM26.422 30.1526C26.3191 30.2548 26.1687 30.3236 26.0002 30.3268H25.9957C25.8322 30.3268 25.6824 30.2607 25.5736 30.1526C25.4708 30.0506 25.4027 29.9028 25.3996 29.7385V26.0868V25.5868H24.8996H21.2222C21.0588 25.5868 20.909 25.5207 20.8001 25.4126C20.6974 25.3106 20.6293 25.1628 20.6262 24.9985V24.9942C20.6262 24.8352 20.6913 24.6881 20.8001 24.58C20.903 24.4779 21.0534 24.409 21.2219 24.4059H24.8996H25.3996V23.9059V20.2542C25.3996 20.0952 25.4647 19.9481 25.5736 19.84C25.6764 19.7379 25.8268 19.669 25.9954 19.6659H25.9999C26.1633 19.6659 26.3131 19.7319 26.422 19.84C26.5248 19.9421 26.5928 20.0898 26.5959 20.2541V23.9059V24.4059H27.0959H30.7776C30.941 24.4059 31.0908 24.4719 31.1997 24.58C31.3024 24.6821 31.3705 24.8298 31.3736 24.9941V24.9984C31.3736 25.1574 31.3085 25.3046 31.1997 25.4126C31.0968 25.5148 30.9464 25.5836 30.7778 25.5868H27.0959H26.5959V26.0868V29.7384C26.5959 29.8974 26.5308 30.0446 26.422 30.1526ZM4.00742 10.3037H4.00737H2.21734H1.6617L1.72011 10.8562L4.44098 36.597C4.44101 36.5972 4.44104 36.5975 4.44106 36.5977C4.49402 37.1115 4.70696 37.5865 5.04862 37.9315L5.05155 37.9344C5.34991 38.2306 5.75757 38.4199 6.22059 38.4199H44.9371C45.3989 38.4199 45.7889 38.2325 46.0807 37.9428C46.4361 37.5899 46.6478 37.0986 46.7188 36.5849L46.7189 36.5843L50.2397 10.8757L50.3175 10.3079L49.7444 10.3079L4.00742 10.3037ZM5.05685 5.11824H4.55685V5.61824V8.711V9.21629L5.06212 9.21097L46.9397 8.76975L47.4345 8.76454V8.26978V5.61824V5.11824H46.9345H23.9602C23.6532 5.11824 23.4107 4.87235 23.4107 4.57611V2.08845V1.58845H22.9107H7.97254H7.47254V2.08845V4.57611C7.47254 4.87235 7.23 5.11824 6.92306 5.11824H5.05685ZM26.0041 13.9468C29.0155 13.9468 31.7424 15.16 33.7176 17.1171C35.6923 19.078 36.9087 21.7799 36.9087 24.7673C36.9087 27.7548 35.688 30.4651 33.7176 32.4218C31.7428 34.3827 29.0202 35.592 26.0041 35.592C22.9926 35.592 20.2655 34.3787 18.2903 32.4214C16.3158 30.4606 15.0995 27.7588 15.0995 24.7673C15.0995 21.7802 16.3199 19.0742 18.2903 17.1174C20.2655 15.1601 22.9926 13.9468 26.0041 13.9468ZM33.0003 17.8068C31.209 16.028 28.7308 14.926 25.9999 14.926C23.2646 14.926 20.7907 16.0281 18.9995 17.8068C17.2081 19.5856 16.0969 22.048 16.0969 24.7631C16.0969 27.4825 17.2082 29.9407 18.9995 31.7194C20.7908 33.4982 23.2689 34.6002 25.9999 34.6002C28.7352 34.6002 31.2091 33.4981 33.0003 31.7194C34.7917 29.9406 35.9029 27.4782 35.9029 24.7631C35.9029 22.0487 34.7965 19.5861 33.0003 17.8068Z" fill="black" stroke="#8358DD"/>
</svg>
