<svg width="65" height="70" viewBox="0 0 65 70" fill="none" xmlns="http://www.w3.org/2000/svg">
<path d="M13.443 30.9082V43.4187C13.443 43.819 13.443 44.3195 13.543 44.7198C13.7432 44.4195 13.9434 44.1193 14.2436 43.819C16.4455 41.6172 19.9484 41.6172 22.1503 43.819L31.2579 52.9267C31.7583 53.5272 32.2587 54.0276 32.6591 54.6281C32.9593 54.0276 33.4597 53.5272 33.9601 52.9267L43.0678 43.819C45.2696 41.6172 48.7726 41.6172 50.9744 43.819C51.2747 44.1193 51.4748 44.4195 51.675 44.7198C51.7751 44.3195 51.8752 43.819 51.8752 43.4187V30.9082C51.8752 27.4053 54.6775 24.5028 58.2805 24.5028C61.7835 24.5028 64.6859 27.4053 64.6859 30.9082V52.6264C64.6859 55.5289 63.4849 58.4313 61.3831 60.533L52.9761 68.9401C52.3756 69.5406 51.2747 69.5406 50.6742 68.9401C50.0737 68.3396 50.0737 67.2387 50.6742 66.6382L59.0812 58.2311C60.5825 56.7299 61.4832 54.7282 61.4832 52.6264V30.9082C61.4832 29.2068 59.982 27.7055 58.2805 27.7055C56.479 27.7055 55.0778 29.2068 55.0778 30.9082V43.4187C55.0778 46.121 53.9769 48.7231 52.0753 50.6247L50.9744 51.7257L46.5707 56.1294L44.9694 57.7307C44.3689 58.3312 43.268 58.3312 42.6674 57.7307C42.0669 57.1302 42.0669 56.0293 42.6674 55.4288L44.2688 53.8274L48.6725 49.4237C49.5732 48.523 49.5732 47.0217 48.6725 46.121C47.7717 45.2202 46.2705 45.2202 45.3697 46.121L36.2621 55.2286C34.961 56.5297 34.2604 58.2311 34.2604 60.0326V67.7391C34.2604 68.6398 33.4597 69.3404 32.6591 69.3404C31.7583 69.3404 31.0577 68.6398 31.0577 67.7391V60.0326C31.0577 58.2311 30.257 56.5297 29.056 55.2286L19.8483 46.121C18.9476 45.2202 17.4463 45.2202 16.5456 46.121C15.6448 47.0217 15.6448 48.523 16.5456 49.4237L20.9492 53.8274L22.5506 55.4288C23.1511 56.0293 23.1511 57.1302 22.5506 57.7307C21.9501 58.3312 20.8492 58.3312 20.2487 57.7307L18.6473 56.1294L14.2436 51.7257L13.1427 50.6247C11.2411 48.7231 10.2403 46.121 10.2403 43.4187V30.9082C10.2403 29.2068 8.73901 27.7055 7.03759 27.7055C5.23608 27.7055 3.8349 29.2068 3.8349 30.9082V52.6264C3.8349 54.7282 4.63557 56.7299 6.13683 58.2311L14.5439 66.6382C15.1444 67.2387 15.1444 68.3396 14.5439 68.9401C13.9434 69.5406 12.8425 69.5406 12.2419 68.9401L3.8349 60.533C1.73314 58.4313 0.632217 55.5289 0.632217 52.6264V30.9082C0.632217 27.4053 3.43457 24.5028 7.03759 24.5028C10.5405 24.5028 13.443 27.4053 13.443 30.9082Z" fill="url(#paint0_linear_1756_5224)"/>
<path d="M29.9138 14.8365L27.9594 12.8821L26.5224 11.5026C25.6027 10.5829 24.3381 10.0081 22.9586 10.0081C20.1995 10.0081 17.9578 12.3073 17.9578 15.0664C17.9578 16.4459 18.4751 17.7105 19.3948 18.6302L20.7743 20.0672L29.9138 29.1491L30.1437 28.8617C30.3736 29.8389 30.776 30.8161 31.2358 31.6783L29.9138 33.0003L27.9594 31.1035L18.8775 21.9641L17.4405 20.5845C16.0035 19.1475 15.1987 17.1357 15.1987 15.0664C15.1987 10.7553 18.6476 7.24902 22.9586 7.24902C25.0279 7.24902 27.0397 8.11123 28.4767 9.54825L29.9138 10.9278L31.2933 9.54825C32.7303 8.11123 34.7421 7.3065 36.8114 7.3065C41.1225 7.24902 44.6288 10.7553 44.6288 15.0664C44.6288 15.8711 44.4564 16.6758 44.2264 17.4231C43.4217 17.0207 42.5595 16.7333 41.5823 16.6184C41.7548 16.101 41.8697 15.5837 41.8697 15.0664C41.8697 12.3073 39.5705 10.0081 36.8114 10.0081C35.4319 10.0081 34.1673 10.5829 33.2476 11.5026L31.8106 12.8821L29.9138 14.8365ZM40.0303 18.2853C42.9619 18.2853 45.6634 19.8948 47.1579 22.4239C48.6524 25.0105 48.6524 28.172 47.1579 30.7011C45.6634 33.2877 42.9619 34.8397 40.0303 34.8397C37.0414 34.8397 34.3398 33.2877 32.8453 30.7011C31.3508 28.172 31.3508 25.0105 32.8453 22.4239C34.3398 19.8948 37.0414 18.2853 40.0303 18.2853ZM40.95 21.9641H39.1107V25.6428H35.4319V27.4822H39.1107V31.161H40.95V27.4822H44.6288V25.6428H40.95V21.9641Z" fill="url(#paint1_linear_1756_5224)"/>
<defs>
<linearGradient id="paint0_linear_1756_5224" x1="32.7308" y1="17.9351" x2="32.7308" y2="68.9102" gradientUnits="userSpaceOnUse">
<stop stop-color="#E8721E"/>
<stop offset="1" stop-color="#5C67D8"/>
</linearGradient>
<linearGradient id="paint1_linear_1756_5224" x1="31.7388" y1="7.24902" x2="31.7388" y2="34.8397" gradientUnits="userSpaceOnUse">
<stop stop-color="#E57221"/>
<stop offset="1" stop-color="#5E67D4"/>
</linearGradient>
</defs>
</svg>
