<svg width="59" height="53" viewBox="0 0 59 53" fill="none" xmlns="http://www.w3.org/2000/svg">
<path d="M42.5876 0.213371H53.7842C54.584 0.213371 55.3838 1.01313 55.3838 1.81289V13.0096C55.3838 13.9093 54.584 14.6091 53.7842 14.6091C52.8845 14.6091 52.1847 13.9093 52.1847 13.0096V5.61176L35.5897 20.6073C35.0898 21.1071 34.1901 21.2071 33.5903 20.7073L20.0943 10.2104L3.49925 22.3068C2.79946 22.9066 1.79976 22.7067 1.29991 22.0069C0.70009 21.3071 0.90003 20.3074 1.59982 19.8075L19.1946 7.01134C19.7944 6.51149 20.5942 6.51149 21.094 7.01134L34.49 17.4082L49.7854 3.41242H42.5876C41.6879 3.41242 40.9881 2.71262 40.9881 1.81289C40.9881 1.01313 41.6879 0.213371 42.5876 0.213371ZM20.1943 45C20.994 45 21.7938 44.3002 21.7938 43.4005V27.4053C21.7938 26.6055 20.994 25.8057 20.1943 25.8057C19.2945 25.8057 18.5947 26.6055 18.5947 27.4053V43.4005C18.5947 44.3002 19.2945 45 20.1943 45ZM20.1943 22.6067C22.7935 22.6067 24.9928 24.806 24.9928 27.4053V43.4005C24.9928 46.0997 22.7935 48.199 20.1943 48.199C17.4951 48.199 15.3957 46.0997 15.3957 43.4005V27.4053C15.3957 24.806 17.4951 22.6067 20.1943 22.6067ZM8.99761 43.4005V37.0024C8.99761 36.2026 8.19785 35.4029 7.39809 35.4029C6.49836 35.4029 5.79857 36.2026 5.79857 37.0024V43.4005C5.79857 44.3002 6.49836 45 7.39809 45C8.19785 45 8.99761 44.3002 8.99761 43.4005ZM7.39809 32.2038C9.99731 32.2038 12.1967 34.4032 12.1967 37.0024V43.4005C12.1967 46.0997 9.99731 48.199 7.39809 48.199C4.6989 48.199 2.59952 46.0997 2.59952 43.4005V37.0024C2.59952 34.4032 4.6989 32.2038 7.39809 32.2038ZM32.9904 37.0024C32.9904 41.1012 35.0898 44.7001 38.5888 46.6995C41.9878 48.7989 46.2865 48.7989 49.7854 46.6995C53.1844 44.7001 55.3838 41.1012 55.3838 37.0024C55.3838 33.0036 53.1844 29.4047 49.7854 27.4053C46.2865 25.3059 41.9878 25.3059 38.5888 27.4053C35.0898 29.4047 32.9904 33.0036 32.9904 37.0024ZM58.5828 37.0024C58.5828 42.2008 55.7836 46.8994 51.385 49.4987C46.8863 52.0979 41.3879 52.0979 36.9893 49.4987C32.4906 46.8994 29.7914 42.2008 29.7914 37.0024C29.7914 31.9039 32.4906 27.2053 36.9893 24.6061C41.3879 22.0069 46.8863 22.0069 51.385 24.6061C55.7836 27.2053 58.5828 31.9039 58.5828 37.0024ZM41.7878 34.1033V34.2032C41.7878 34.2032 41.7878 34.3032 42.2877 34.6031C42.7875 34.903 43.5873 35.103 44.587 35.4029H44.687C45.5867 35.7028 46.7863 36.0027 47.6861 36.6025C48.6858 37.2023 49.6855 38.202 49.7854 39.8016C49.7854 41.601 48.7857 42.8007 47.5861 43.5004C46.9863 43.8004 46.3865 44.0003 45.7866 44.1003V45.1999C45.7866 46.0997 44.9869 46.7995 44.1871 46.7995C43.2874 46.7995 42.5876 46.0997 42.5876 45.1999V44.0003C41.6879 43.9003 40.8881 43.6004 40.1883 43.4005C39.9884 43.3005 39.8884 43.3005 39.6884 43.2005C38.8887 43.0006 38.3888 42.1009 38.5888 41.2011C38.8887 40.4014 39.7884 39.9015 40.5882 40.2014C40.7881 40.2014 40.9881 40.3014 41.188 40.3014C42.3876 40.7013 43.2874 41.0012 44.1871 41.0012C44.8869 41.0012 45.5867 40.9012 46.0865 40.7013C46.2865 40.6013 46.3865 40.4014 46.4864 40.3014C46.4864 40.3014 46.5864 40.1015 46.5864 39.9015C46.5864 39.7016 46.4864 39.6016 46.0865 39.3017C45.5867 39.0018 44.7869 38.8019 43.7872 38.5019L43.5873 38.402C42.6876 38.202 41.5879 37.9021 40.6882 37.4023C39.6884 36.9024 38.6887 35.9027 38.5888 34.3032C38.4888 32.5037 39.5885 31.3041 40.7881 30.6043C41.288 30.3044 41.8878 30.1044 42.5876 30.0045V29.0048C42.5876 28.205 43.2874 27.4053 44.1871 27.4053C44.9869 27.4053 45.7866 28.205 45.7866 29.0048V30.0045C46.3865 30.1044 46.9863 30.2044 47.4861 30.3044C48.3859 30.6043 48.8857 31.4041 48.6858 32.3038C48.4858 33.1036 47.5861 33.7034 46.7863 33.5034C45.7866 33.2035 44.9869 33.1036 44.0871 33.0036C43.4873 33.0036 42.7875 33.2035 42.2877 33.4035C41.9878 33.6034 41.8878 33.7034 41.7878 33.8033C41.7878 33.9033 41.7878 34.0033 41.7878 34.1033Z" fill="url(#paint0_linear_1755_5222)"/>
<defs>
<linearGradient id="paint0_linear_1755_5222" x1="30" y1="0" x2="30" y2="51" gradientUnits="userSpaceOnUse">
<stop stop-color="#F27312"/>
<stop offset="1" stop-color="#5C67D8"/>
</linearGradient>
</defs>
</svg>
