<svg width="56" height="56" viewBox="0 0 56 56" fill="none" xmlns="http://www.w3.org/2000/svg">
<path d="M20.8774 3.91037C18.1851 3.91037 15.9235 6.06427 15.7081 8.64895C15.6004 9.29512 15.0619 9.94129 14.4157 10.1567C12.1541 10.6951 10.431 12.7414 10.431 15.1106C10.431 15.4337 10.5387 15.7568 10.5387 16.0799C10.7541 16.9414 10.3233 17.803 9.46178 18.0184C7.52327 18.7723 6.12324 20.7108 6.12324 22.8647C6.12324 23.5108 6.23093 24.0493 6.44632 24.4801C6.66171 25.1263 6.44632 25.8801 5.90785 26.3109C4.50781 27.6032 3.64625 29.4341 3.64625 31.4803C3.64625 33.9572 4.93859 36.1111 6.8771 37.4035C7.52327 37.8342 7.84635 38.6958 7.52327 39.5574C7.20018 40.2035 7.09249 41.0651 7.09249 41.819C7.09249 45.1575 9.78486 47.8499 13.1234 47.8499C13.4465 47.8499 13.7696 47.8499 14.0927 47.8499C14.9542 47.6345 15.7081 48.173 16.0312 48.9268C16.785 50.8653 18.6158 52.1577 20.8774 52.1577C23.6775 52.1577 26.0468 49.8961 26.0468 46.9883V33.2034H20.8774C20.0159 33.2034 19.3697 33.7418 19.1543 34.4957C20.662 35.1419 21.739 36.6496 21.739 38.3727C21.739 40.8497 19.8005 42.6805 17.4312 42.6805C14.9542 42.6805 13.1234 40.8497 13.1234 38.3727C13.1234 36.6496 14.2003 35.1419 15.7081 34.4957C15.9235 31.8033 18.1851 29.7571 20.8774 29.7571H26.0468V17.6953H23.0313C22.3852 19.3107 20.8774 20.28 19.1543 20.28C16.6773 20.28 14.8465 18.4492 14.8465 15.9722C14.8465 13.6029 16.6773 11.6644 19.1543 11.6644C20.8774 11.6644 22.3852 12.7414 23.0313 14.2491H26.0468V9.07973C26.0468 6.27966 23.6775 3.91037 20.8774 3.91037ZM29.493 17.6953V38.3727H35.847C36.4932 36.865 38.0009 35.788 39.8317 35.788C42.201 35.788 44.1395 37.7266 44.1395 40.0958C44.1395 42.5728 42.201 44.4036 39.8317 44.4036C38.0009 44.4036 36.4932 43.4344 35.847 41.819H29.493V46.9883C29.493 49.8961 31.7546 52.1577 34.6624 52.1577C36.8163 52.1577 38.6471 50.8653 39.4009 48.9268C39.724 48.0653 40.4779 47.6345 41.3394 47.8499C41.6625 47.8499 41.9856 47.8499 42.3087 47.8499C45.6472 47.8499 48.3396 45.1575 48.3396 41.819C48.3396 41.0651 48.2319 40.2035 47.9088 39.5574C47.5857 38.6958 47.9088 37.8342 48.555 37.4035C50.6012 36.1111 51.8935 33.9572 51.8935 31.4803C51.8935 29.4341 50.9243 27.6032 49.5243 26.3109C48.9858 25.8801 48.7704 25.234 48.9858 24.4801C49.2012 24.0493 49.3089 23.5108 49.3089 22.8647C49.3089 20.7108 47.9088 18.7723 45.9703 18.1261C45.1088 17.803 44.678 16.9414 44.8934 16.1876C44.8934 15.8645 45.0011 15.5414 45.0011 15.1106C45.0011 12.7414 43.278 10.6951 41.0164 10.1567C40.3702 9.94129 39.8317 9.40281 39.724 8.64895C39.5086 6.06427 37.3547 3.91037 34.6624 3.91037C31.7546 3.91037 29.493 6.27966 29.493 9.07973V14.2491H34.6624C37.4624 14.2491 39.8317 16.6184 39.8317 19.4184V20.7108C41.3394 21.3569 42.4164 22.8647 42.4164 24.5878C42.4164 27.0648 40.4779 28.8956 38.1086 28.8956C35.6316 28.8956 33.8008 27.0648 33.8008 24.5878C33.8008 22.8647 34.7701 21.3569 36.3855 20.7108V19.4184C36.3855 18.5569 35.5239 17.6953 34.6624 17.6953H29.493ZM20.8774 55.6039C17.6466 55.6039 14.8465 53.8808 13.3388 51.2961C13.2311 51.2961 13.1234 51.2961 13.1234 51.2961C7.84635 51.2961 3.64625 47.096 3.64625 41.819C3.64625 41.0651 3.75395 40.2035 3.86164 39.4497C1.60005 37.6189 0.20002 34.7111 0.20002 31.4803C0.20002 28.7879 1.16927 26.3109 2.89239 24.4801C2.7847 24.0493 2.7847 23.5108 2.7847 22.8647C2.7847 19.7415 4.50781 16.9414 7.09249 15.4337C7.09249 15.326 7.09249 15.2183 7.09249 15.1106C7.09249 11.5567 9.24639 8.43356 12.4772 7.14122C13.3388 3.3719 16.785 0.46414 20.8774 0.46414C23.6775 0.46414 26.1545 1.86417 27.7699 3.91037C29.2776 1.86417 31.7546 0.46414 34.6624 0.46414C38.6471 0.46414 42.0933 3.3719 42.9549 7.14122C46.1857 8.43356 48.4473 11.5567 48.4473 15.1106C48.4473 15.2183 48.4473 15.326 48.4473 15.4337C50.9243 16.9414 52.7551 19.7415 52.7551 22.8647C52.7551 23.5108 52.6474 24.0493 52.5397 24.4801C54.2628 26.3109 55.3398 28.7879 55.3398 31.4803C55.3398 34.7111 53.832 37.6189 51.5705 39.4497C51.7858 40.2035 51.8935 41.0651 51.8935 41.819C51.8935 47.096 47.5857 51.2961 42.4164 51.2961C42.3087 51.2961 42.201 51.2961 42.0933 51.2961C40.5856 53.8808 37.7855 55.6039 34.6624 55.6039C31.7546 55.6039 29.2776 54.3116 27.7699 52.1577C26.1545 54.3116 23.6775 55.6039 20.8774 55.6039ZM19.1543 14.2491C18.1851 14.2491 17.4312 15.1106 17.4312 15.9722C17.4312 16.9414 18.1851 17.6953 19.1543 17.6953C20.0159 17.6953 20.8774 16.9414 20.8774 15.9722C20.8774 15.1106 20.0159 14.2491 19.1543 14.2491ZM17.4312 36.6496C16.4619 36.6496 15.7081 37.5112 15.7081 38.3727C15.7081 39.342 16.4619 40.0958 17.4312 40.0958C18.2928 40.0958 19.1543 39.342 19.1543 38.3727C19.1543 37.5112 18.2928 36.6496 17.4312 36.6496ZM36.3855 24.5878C36.3855 25.557 37.1393 26.3109 38.1086 26.3109C38.9702 26.3109 39.8317 25.557 39.8317 24.5878C39.8317 23.7262 38.9702 22.8647 38.1086 22.8647C37.1393 22.8647 36.3855 23.7262 36.3855 24.5878ZM39.8317 38.3727C38.8625 38.3727 38.1086 39.2343 38.1086 40.0958C38.1086 41.0651 38.8625 41.819 39.8317 41.819C40.6933 41.819 41.5548 41.0651 41.5548 40.0958C41.5548 39.2343 40.6933 38.3727 39.8317 38.3727Z" fill="url(#paint0_linear_1417_2885)"/>
<defs>
<linearGradient id="paint0_linear_1417_2885" x1="27.8317" y1="0.711426" x2="27.8317" y2="55.6846" gradientUnits="userSpaceOnUse">
<stop stop-color="#FF7500"/>
<stop offset="1" stop-color="#6E69BF"/>
</linearGradient>
</defs>
</svg>
