<svg width="59" height="59" viewBox="0 0 59 59" fill="none" xmlns="http://www.w3.org/2000/svg">
<path d="M4.14504 25.6515C4.14504 30.9058 5.85837 35.7031 8.94237 39.3582C10.313 41.1858 11.4553 43.4702 11.4553 45.9831V56.72C11.4553 57.748 10.5415 58.5475 9.6277 58.5475C8.5997 58.5475 7.80015 57.748 7.80015 56.72V45.9831C7.80015 44.4982 7.11481 43.0133 6.08681 41.6426C2.54593 37.3022 0.489929 31.7053 0.489929 25.6515C0.489929 11.6022 11.9121 0.065783 26.0757 0.065783H27.9032C36.8126 0.065783 45.0366 5.54845 48.6917 13.3156C49.1486 14.2293 49.6055 15.1431 49.9481 15.9427C50.6335 17.5418 51.3188 18.9124 52.0041 20.3973C53.2606 22.6818 54.517 24.6235 56.2303 26.1084L56.573 26.4511C58.0579 27.8218 58.9717 29.6493 58.9717 31.5911C58.9717 35.4746 55.8877 38.4444 52.0041 38.4444H51.6615V43.9271C51.6615 48.0391 48.349 51.2373 44.3512 51.2373H37.041V56.8342C37.041 57.748 36.1272 58.6617 35.2135 58.6617C34.1855 58.6617 33.3859 57.748 33.3859 56.8342V49.524C33.3859 48.496 34.1855 47.6964 35.2135 47.6964H44.3512C46.293 47.6964 48.0063 45.9831 48.0063 44.0413V36.7311C48.0063 35.7031 48.8059 34.9035 49.8339 34.9035H52.1183C53.8317 34.9035 55.3166 33.4186 55.3166 31.5911C55.3166 30.6773 54.8597 29.8778 54.1743 29.1924L53.8317 28.8498C51.6615 26.908 50.0623 24.5093 48.8059 22.1107C48.0063 20.6258 47.2068 18.9124 46.5215 17.3133C46.1788 16.5138 45.8361 15.6 45.3792 14.8004C42.4095 8.28978 35.4419 3.72089 27.9032 3.72089H26.0757C13.9681 3.72089 4.14504 13.544 4.14504 25.6515ZM23.677 14.3436C23.1059 15.1431 22.0779 15.4858 21.1641 15.0289C20.8215 14.8004 20.4788 14.6862 20.1361 14.6862C18.8797 14.6862 17.9659 15.6 17.8517 16.7422C17.7375 17.656 16.9379 18.3413 16.0241 18.3413C14.425 18.3413 13.2828 19.5978 13.2828 21.0827C13.2828 22.2249 13.8539 23.2529 14.8819 23.5955C15.5673 23.9382 16.0241 24.7378 16.0241 25.4231C16.0241 25.5373 16.0241 25.6515 16.0241 25.6515C16.0241 27.2507 17.1664 28.3929 18.7655 28.3929C19.1081 28.3929 19.4508 28.3929 19.7935 28.1644C20.3646 27.936 21.0499 28.0502 21.5068 28.3929C22.0779 28.7355 22.4206 29.3067 22.4206 29.8778V34.7893C22.4206 35.8173 21.5068 36.6169 20.593 36.6169C19.565 36.6169 18.7655 35.8173 18.7655 34.7893V32.048C15.453 32.048 12.7117 29.6493 12.369 26.4511C10.6557 25.3089 9.6277 23.3671 9.6277 21.0827C9.6277 18.1129 11.6837 15.6 14.5393 14.9147C15.3388 12.6302 17.509 11.0311 20.1361 11.0311C20.593 11.0311 20.9357 11.1453 21.3926 11.2596C22.5348 10.0031 24.2481 9.20355 26.0757 9.20355C27.789 9.20355 29.5024 10.0031 30.6446 11.2596C31.1015 11.1453 31.5584 11.0311 32.0152 11.0311C33.6144 11.0311 35.2135 11.7164 36.2415 12.8587C39.6681 12.9729 42.5237 15.8284 42.5237 19.2551C42.5237 22.796 39.5539 25.6515 36.1272 25.6515H33.3859C33.3859 28.7355 31.1015 31.3627 28.2459 31.9338C27.2179 32.1622 26.3041 31.4769 26.0757 30.5631C25.8472 29.5351 26.5326 28.6213 27.4464 28.3929C28.7028 28.1644 29.7308 27.0222 29.7308 25.6515C29.7308 25.3089 29.6166 24.9662 29.5024 24.6235C29.1597 24.0524 29.2739 23.3671 29.6166 22.9102C29.9592 22.3391 30.5304 21.9964 31.1015 21.9964H36.1272C37.6121 21.9964 38.8686 20.8542 38.8686 19.2551C38.8686 17.7702 37.6121 16.5138 36.1272 16.5138C35.8988 16.5138 35.7846 16.5138 35.6704 16.628C34.985 16.7422 34.2997 16.3995 33.8428 15.8284C33.5001 15.1431 32.8148 14.6862 32.0152 14.6862C31.5584 14.6862 31.2157 14.8004 30.873 15.0289C29.9592 15.4858 28.9312 15.1431 28.3601 14.3436C27.9032 13.4298 26.9895 12.8587 26.0757 12.8587C25.0477 12.8587 24.1339 13.4298 23.677 14.3436Z" fill="url(#paint0_linear_1417_2902)"/>
<defs>
<linearGradient id="paint0_linear_1417_2902" x1="30.3156" y1="0.237305" x2="30.3156" y2="53.2607" gradientUnits="userSpaceOnUse">
<stop stop-color="#FA7407"/>
<stop offset="1" stop-color="#5C67D8"/>
</linearGradient>
</defs>
</svg>
