<svg width="89" height="48" viewBox="0 0 89 48" fill="none" xmlns="http://www.w3.org/2000/svg">
<path d="M33.5025 37.1896H25.0712V41.4052C25.0712 42.1957 25.686 42.8104 26.4764 42.8104H32.0973C32.7999 42.8104 33.5025 42.1957 33.5025 41.4052V37.1896ZM32.0973 45.6209H26.4764C24.1051 45.6209 22.2607 43.7765 22.2607 41.4052V37.1896V35.7843V34.3791V11.8957V10.4904V9.08523V4.86958C22.2607 2.58611 24.1051 0.653933 26.4764 0.653933H32.0973C33.1512 0.653933 34.1173 1.09306 34.9077 1.79567C35.6103 1.09306 36.5764 0.653933 37.7181 0.653933H43.339C44.832 0.653933 46.0616 1.44437 46.852 2.67393C47.1155 2.49828 47.379 2.41045 47.7303 2.32263L52.912 0.829585C55.1077 0.214802 57.3912 1.53219 57.9181 3.81567L59.499 9.87567L59.8503 11.2809L65.4711 32.8861L65.8225 34.2035L67.052 38.9461C67.6668 41.1417 66.3494 43.513 64.1538 44.04L58.972 45.533C56.7764 46.1478 54.5807 44.8304 53.9659 42.547L52.3851 36.487L52.0338 35.0817L47.5546 17.6922V34.3791V35.7843V37.1896V41.4052C47.5546 43.7765 45.6225 45.6209 43.339 45.6209H37.7181C36.5764 45.6209 35.6103 45.2696 34.9077 44.567C34.1173 45.2696 33.1512 45.6209 32.0973 45.6209ZM47.5546 6.36263C47.5546 6.45045 47.5546 6.6261 47.5546 6.71393L48.7842 11.3687L56.4251 9.26088L55.1955 4.51828C55.0198 3.72784 54.3172 3.37654 53.7025 3.55219L48.4329 4.95741C47.9938 5.13306 47.5546 5.66002 47.5546 6.2748V6.36263ZM44.7442 6.36263V4.86958C44.7442 4.16697 44.0416 3.46437 43.339 3.46437H37.7181C36.9277 3.46437 36.3129 4.16697 36.3129 4.86958V9.08523H44.7442V6.36263ZM37.7181 42.8104H43.339C44.0416 42.8104 44.7442 42.1957 44.7442 41.4052V37.1896H36.3129V41.4052C36.3129 42.1957 36.9277 42.8104 37.7181 42.8104ZM33.5025 11.8957H25.0712V34.3791H33.5025V11.8957ZM33.5025 4.86958C33.5025 4.16697 32.7999 3.46437 32.0973 3.46437H26.4764C25.686 3.46437 25.0712 4.16697 25.0712 4.86958V9.08523H33.5025V4.86958ZM44.7442 34.3791V11.8957H36.3129V34.3791H44.7442ZM57.1277 11.9835L49.4868 14.0913L54.7564 34.3791L62.3972 32.2713L57.1277 11.9835ZM63.0998 34.9939L55.459 37.1017L56.6885 41.8443C56.8642 42.6348 57.5668 42.9861 58.1816 42.8104L63.4511 41.3174C64.0659 41.2296 64.5051 40.4391 64.3294 39.6487L63.0998 34.9939Z" fill="url(#paint0_linear_1442_3660)"/>
<defs>
<linearGradient id="paint0_linear_1442_3660" x1="0.740367" y1="24.0485" x2="46.9417" y2="-19.8999" gradientUnits="userSpaceOnUse">
<stop stop-color="#FF7500"/>
<stop offset="1" stop-color="#5867DD"/>
</linearGradient>
</defs>
</svg>
