<svg width="55" height="54" viewBox="0 0 55 54" fill="none" xmlns="http://www.w3.org/2000/svg">
<path d="M13.3066 49.4954C13.2022 49.4954 13.0977 49.4954 13.0977 49.4954C7.97902 49.4954 3.90496 45.4213 3.90496 40.3026C3.90496 39.5714 3.90496 38.7356 4.11388 38.0044C1.92016 36.2285 0.562134 33.408 0.562134 30.2741C0.562134 27.6625 1.5023 25.2599 3.17371 23.484C3.06925 23.0662 3.06925 22.5438 3.06925 21.9171C3.06925 18.8876 4.74066 16.1716 7.24778 14.7091C7.24778 14.6046 7.24778 14.5002 7.24778 14.3957C7.24778 10.9484 9.33704 7.919 12.4709 6.66544C13.3066 3.00923 16.6495 0.188721 20.6191 0.188721C23.3351 0.188721 25.7378 1.54674 27.3047 3.53154C28.7672 1.54674 31.1699 0.188721 33.9904 0.188721C37.8555 0.188721 41.1983 3.00923 42.034 6.66544C45.1679 7.919 47.3617 10.9484 47.3617 14.3957C47.3617 14.5002 47.2572 14.6046 47.2572 14.7091C49.7643 16.1716 51.5402 18.8876 51.5402 21.9171C51.5402 22.5438 51.4357 23.0662 51.3313 23.484C53.0027 25.2599 54.0473 27.6625 54.0473 30.2741C54.0473 33.408 52.5848 36.2285 50.3911 38.0044C50.6 38.7356 50.7045 39.5714 50.7045 40.3026C50.7045 45.4213 46.5259 49.4954 41.5117 49.4954C41.4072 49.4954 41.3028 49.4954 41.1983 49.4954C39.7358 52.0025 37.0198 53.6739 33.9904 53.6739C31.1699 53.6739 28.7672 52.4203 27.3047 50.3311C25.7378 52.4203 23.3351 53.6739 20.6191 53.6739C17.4852 53.6739 14.7691 52.0025 13.3066 49.4954ZM20.6191 3.53154C18.0075 3.53154 15.8138 5.62081 15.6048 8.12792L15.5004 9.27702L14.3513 9.59041C12.1575 10.1127 10.5906 12.0975 10.5906 14.3957C10.5906 14.8136 10.5906 15.127 10.5906 15.4403L10.904 16.7984L9.54597 17.3207C7.66563 17.9475 6.30761 19.8278 6.30761 21.9171C6.30761 22.5438 6.41207 23.0662 6.621 23.484L6.93439 24.5286L6.09868 25.2599C4.74066 26.5135 3.80049 28.2893 3.80049 30.2741C3.80049 32.6768 5.15852 34.766 7.03885 36.0196L8.18795 36.7508L7.66563 38.1089C7.35224 38.7356 7.14332 39.5714 7.14332 40.3026C7.14332 43.541 9.85936 46.1525 12.9933 46.1525C13.4111 46.1525 13.7245 46.1525 14.0379 46.1525L15.3959 45.8391L15.9182 47.1972C16.6495 49.0775 18.4253 50.3311 20.5146 50.3311C23.3351 50.3311 25.5288 48.1373 25.5288 45.3168V31.9455H20.5146C19.7834 31.9455 19.1566 32.4679 18.9477 33.1991C20.4101 33.8259 21.3503 35.2884 21.3503 36.9598C21.3503 39.3624 19.5744 41.1383 17.1718 41.1383C14.8736 41.1383 12.9933 39.3624 12.9933 36.9598C12.9933 35.2884 14.0379 33.8259 15.6048 33.1991C15.8138 30.5875 18.0075 28.6027 20.5146 28.6027H25.5288V16.9028H22.7083C22.0816 18.4698 20.6191 19.41 18.8432 19.41C16.545 19.41 14.6647 17.6341 14.6647 15.2314C14.6647 12.9332 16.545 11.0529 18.8432 11.0529C20.6191 11.0529 22.0816 12.0975 22.7083 13.56H25.5288V8.54578C25.5288 5.82973 23.3351 3.53154 20.5146 3.53154H20.6191ZM28.9761 36.9598H35.1395C35.7662 35.4973 37.2287 34.4527 39.0046 34.4527C41.3028 34.4527 43.1831 36.333 43.1831 38.6312C43.1831 41.0338 41.3028 42.8097 39.0046 42.8097C37.2287 42.8097 35.7662 41.8695 35.1395 40.3026H28.9761V45.3168C28.9761 48.1373 31.1699 50.3311 33.9904 50.3311C36.0796 50.3311 37.8555 49.0775 38.5867 47.1972L39.1091 45.8391L40.4671 46.1525C40.7805 46.1525 41.0939 46.1525 41.5117 46.1525C44.6456 46.1525 47.3617 43.541 47.3617 40.3026C47.3617 39.5714 47.1527 38.7356 46.8393 38.1089L46.317 36.7508L47.4661 36.0196C49.3465 34.766 50.7045 32.6768 50.7045 30.2741C50.7045 28.2893 49.7643 26.5135 48.4063 25.2599L47.5706 24.5286L47.884 23.484C48.0929 23.0662 48.1974 22.5438 48.1974 21.9171C48.1974 19.8278 46.8393 17.9475 44.959 17.3207L43.601 16.7984L43.9144 15.4403C43.9144 15.127 44.0188 14.8136 44.0188 14.3957C44.0188 12.0975 42.3474 10.1127 40.1537 9.59041L39.0046 9.27702L38.9001 8.12792C38.6912 5.62081 36.4975 3.53154 33.9904 3.53154C31.1699 3.53154 28.9761 5.82973 28.9761 8.54578V13.56H33.9904C36.7064 13.56 39.0046 15.8582 39.0046 18.5742V19.8278C40.4671 20.4546 41.5117 21.9171 41.5117 23.5885C41.5117 25.9911 39.6314 27.767 37.3332 27.767C34.9305 27.767 33.1547 25.9911 33.1547 23.5885C33.1547 21.9171 34.0948 20.4546 35.6618 19.8278V18.5742C35.6618 17.7385 34.8261 16.9028 33.9904 16.9028H28.9761V36.9598ZM18.9477 16.9028C19.7834 16.9028 20.6191 16.1716 20.6191 15.2314C20.6191 14.3957 19.7834 13.56 18.9477 13.56C18.0075 13.56 17.2762 14.3957 17.2762 15.2314C17.2762 16.1716 18.0075 16.9028 18.9477 16.9028ZM17.2762 38.6312C18.112 38.6312 18.9477 37.8999 18.9477 36.9598C18.9477 36.1241 18.112 35.2884 17.2762 35.2884C16.3361 35.2884 15.6048 36.1241 15.6048 36.9598C15.6048 37.8999 16.3361 38.6312 17.2762 38.6312ZM39.0046 23.5885C39.0046 22.7528 38.1689 21.9171 37.3332 21.9171C36.393 21.9171 35.6618 22.7528 35.6618 23.5885C35.6618 24.5286 36.393 25.2599 37.3332 25.2599C38.1689 25.2599 39.0046 24.5286 39.0046 23.5885ZM39.0046 40.3026C39.8403 40.3026 40.676 39.5714 40.676 38.6312C40.676 37.7955 39.8403 36.9598 39.0046 36.9598C38.0644 36.9598 37.3332 37.7955 37.3332 38.6312C37.3332 39.5714 38.0644 40.3026 39.0046 40.3026Z" fill="url(#paint0_linear_4_3)"/>
<defs>
<linearGradient id="paint0_linear_4_3" x1="27.3643" y1="-0.0117188" x2="27.3643" y2="52.9624" gradientUnits="userSpaceOnUse">
<stop stop-color="#FF7500"/>
<stop offset="1" stop-color="#5867DD"/>
</linearGradient>
</defs>
</svg>
