<svg width="68" height="54" viewBox="0 0 68 54" fill="none" xmlns="http://www.w3.org/2000/svg">
<path d="M43.8175 18.5743C43.8175 28.8117 33.998 36.9598 22.0892 36.9598C19.8955 36.9598 17.9107 36.7509 15.9259 36.2286C13.0009 38.2134 8.4045 40.3026 2.76349 40.3026C1.82332 40.3026 0.883152 39.7803 0.465299 38.8402C0.15191 37.9 0.256373 36.8553 0.987615 36.1241C0.987615 36.1241 3.49473 33.4081 5.06168 30.0652C2.13671 26.9313 0.360836 22.9617 0.360836 18.5743C0.360836 8.44136 10.0759 0.188762 22.0892 0.188762C33.998 0.188762 43.8175 8.44136 43.8175 18.5743ZM22.0892 33.617C32.2221 33.617 40.4747 26.9313 40.4747 18.5743C40.4747 10.3217 32.2221 3.53158 22.0892 3.53158C11.8518 3.53158 3.70366 10.3217 3.70366 18.5743C3.70366 21.9171 4.95722 25.1555 7.46433 27.7671L9.03128 29.4385L8.09111 31.5277C7.04648 33.7215 5.68846 35.6018 4.74829 36.9598C8.71789 36.542 11.9563 34.8705 14.15 33.5125L15.2991 32.6768L16.7616 32.9902C18.433 33.4081 20.3133 33.617 22.0892 33.617ZM63.6655 45.7347C65.0236 47.9285 66.486 49.4954 66.486 49.5999C67.1128 50.2266 67.3218 51.2713 67.0084 52.2114C66.5905 53.1516 65.6503 53.6739 64.7102 53.6739C61.2629 53.6739 58.3379 52.9427 55.8308 51.8981C53.1148 53.0471 50.1898 53.6739 47.1604 53.6739C37.6542 53.6739 29.8195 47.824 27.6257 39.7803C28.7748 39.5714 29.9239 39.258 30.9686 38.9446C32.7444 45.5258 39.2212 50.3311 47.1604 50.3311C49.6675 50.3311 52.0701 49.8088 54.4728 48.8686L55.7263 48.2418L57.0844 48.7642C58.9647 49.5999 60.845 50.1222 62.7254 50.3311C62.2031 49.5999 61.4718 48.5552 60.845 47.5106L59.5915 45.5258L60.9495 43.7499C62.8298 41.2428 63.8745 38.3178 63.8745 35.2884C63.8745 27.0358 56.3531 20.2457 47.1604 20.2457C47.0559 20.2457 47.0559 20.3502 47.0559 20.3502C47.0559 19.7234 47.1604 19.2011 47.1604 18.5743C47.1604 18.052 47.0559 17.5297 47.0559 17.0073C47.0559 17.0073 47.0559 16.9029 47.1604 16.9029C58.2335 16.9029 67.2173 25.1555 67.2173 35.2884C67.2173 39.1535 65.8593 42.8098 63.6655 45.7347Z" fill="url(#paint0_linear_395_191)"/>
<defs>
<linearGradient id="paint0_linear_395_191" x1="33.863" y1="-0.0117188" x2="33.863" y2="52.9624" gradientUnits="userSpaceOnUse">
<stop stop-color="#FF7500"/>
<stop offset="1" stop-color="#5867DD"/>
</linearGradient>
</defs>
</svg>
