<svg width="54" height="54" viewBox="0 0 54 54" fill="none" xmlns="http://www.w3.org/2000/svg">
<path d="M27 50.3428C25.4331 52.432 23.0304 53.6856 20.3144 53.6856C17.1805 53.6856 14.4644 52.0142 13.002 49.5071C12.8975 49.5071 12.793 49.5071 12.793 49.5071C7.67433 49.5071 3.60027 45.433 3.60027 40.3143C3.60027 39.5831 3.60027 38.7474 3.8092 38.0161C1.61547 36.2402 0.257446 33.4197 0.257446 30.2858C0.257446 27.6743 1.19762 25.2716 2.86903 23.4957C2.76456 23.0779 2.76456 22.5556 2.76456 21.9288C2.76456 18.8994 4.43597 16.1833 6.94309 14.7208C6.94309 14.6164 6.94309 14.5119 6.94309 14.4074C6.94309 10.9602 9.03236 7.93072 12.1663 6.67716C13.002 3.02095 16.3448 0.200439 20.3144 0.200439C23.0304 0.200439 25.4331 1.55846 27 3.54326C28.4625 1.55846 30.8652 0.200439 33.6857 0.200439C37.5508 0.200439 40.8936 3.02095 41.7293 6.67716C44.8632 7.93072 47.057 10.9602 47.057 14.4074C47.057 14.5119 46.9525 14.6164 46.9525 14.7208C49.4596 16.1833 51.2355 18.8994 51.2355 21.9288C51.2355 22.5556 51.131 23.0779 51.0266 23.4957C52.698 25.2716 53.7426 27.6743 53.7426 30.2858C53.7426 33.4197 52.2801 36.2402 50.0864 38.0161C50.2953 38.7474 50.3998 39.5831 50.3998 40.3143C50.3998 45.433 46.2213 49.5071 41.207 49.5071C41.1026 49.5071 40.9981 49.5071 40.8936 49.5071C39.4312 52.0142 36.7151 53.6856 33.6857 53.6856C30.8652 53.6856 28.4625 52.432 27 50.3428ZM15.1957 9.28874L14.0466 9.60213C11.8529 10.1244 10.2859 12.1092 10.2859 14.4074C10.2859 14.8253 10.2859 15.1387 10.2859 15.4521L10.5993 16.8101L9.24128 17.3324C7.36094 17.9592 6.00292 19.8395 6.00292 21.9288C6.00292 22.5556 6.10739 23.0779 6.31631 23.4957L6.6297 24.5404L5.794 25.2716C4.43597 26.5252 3.49581 28.301 3.49581 30.2858C3.49581 32.6885 4.85383 34.7778 6.73417 36.0313L7.88326 36.7626L7.36094 38.1206C7.04756 38.7474 6.83863 39.5831 6.83863 40.3143C6.83863 43.5527 9.55467 46.1643 12.6886 46.1643C13.1064 46.1643 13.4198 46.1643 13.7332 46.1643L15.0912 45.8509L15.6135 47.2089C16.3448 49.0892 18.1207 50.3428 20.2099 50.3428C23.0304 50.3428 25.2242 48.1491 25.2242 45.3285V8.5575C25.2242 5.84145 23.0304 3.54326 20.2099 3.54326C17.7028 3.54326 15.5091 5.63253 15.3001 8.13964L15.1957 9.28874ZM28.6714 45.3285C28.6714 48.1491 30.8652 50.3428 33.6857 50.3428C35.7749 50.3428 37.5508 49.0892 38.2821 47.2089L38.8044 45.8509L40.1624 46.1643C40.4758 46.1643 40.7892 46.1643 41.207 46.1643C44.3409 46.1643 47.057 43.5527 47.057 40.3143C47.057 39.5831 46.848 38.7474 46.5347 38.1206L46.0123 36.7626L47.1614 36.0313C49.0418 34.7778 50.3998 32.6885 50.3998 30.2858C50.3998 28.301 49.4596 26.5252 48.1016 25.2716L47.2659 24.5404L47.5793 23.4957C47.7882 23.0779 47.8927 22.5556 47.8927 21.9288C47.8927 19.8395 46.5346 17.9592 44.6543 17.3324L43.2963 16.8101L43.6097 15.4521C43.6097 15.1387 43.7141 14.8253 43.7141 14.4074C43.7141 12.1092 42.0427 10.1244 39.849 9.60213L38.6999 9.28874L38.5954 8.13964C38.3865 5.63253 36.1928 3.54326 33.5812 3.54326C30.8652 3.54326 28.567 5.84145 28.567 8.5575L28.6714 45.3285Z" fill="url(#paint0_linear_4_5)"/>
<defs>
<linearGradient id="paint0_linear_4_5" x1="27" y1="3.46046e-09" x2="27" y2="53" gradientUnits="userSpaceOnUse">
<stop stop-color="#FF7500"/>
<stop offset="1" stop-color="#5867DD"/>
</linearGradient>
</defs>
</svg>
