<svg width="89" height="79" viewBox="0 0 89 79" fill="none" xmlns="http://www.w3.org/2000/svg">
<path d="M87.7227 70.3711L60.9102 2.12109C60.6055 1.35938 59.8438 0.75 59.082 0.75C58.625 0.75 58.3203 1.05469 57.4062 1.35938C56.3398 1.66406 55.8828 2.57812 56.3398 4.10156C53.9023 5.625 47.3516 7.75781 44.9141 8.21484C44.7617 7.60547 44.6094 7.14844 43.8477 6.69141V5.625C43.8477 3.03516 41.7148 0.75 38.9727 0.75H24.3477C23.5859 0.75 22.6719 1.20703 21.9102 1.51172C21.3008 1.20703 20.3867 0.75 19.625 0.75H5C2.25781 0.75 0.125 3.03516 0.125 5.625V73.875C0.125 76.6172 2.25781 78.75 5 78.75H19.625C20.3867 78.75 21.3008 78.4453 22.0625 78.1406C22.6719 78.4453 23.5859 78.75 24.5 78.75H39.125C41.7148 78.75 44 76.6172 44 73.875V18.8789L67.0039 77.5312C67.3086 78.293 67.918 78.75 68.6797 78.75C69.1367 78.75 69.4414 78.5977 70.5078 78.293C71.4219 77.9883 72.0312 77.0742 71.4219 75.5508C74.0117 74.0273 80.4102 71.8945 83 71.4375C83.457 73.1133 84.5234 73.418 85.4375 73.1133L86.5039 72.6562C87.5703 72.3516 88.0273 71.2852 87.7227 70.3711ZM19.625 73.875H5V64.125H19.625V73.875ZM19.625 59.25H5V20.25H19.625V59.25ZM19.625 15.375H5V5.625H19.625V15.375ZM39.125 73.875H24.5V64.125H39.125V73.875ZM39.125 59.25H24.5V20.25H39.125V59.25ZM39.125 15.375H24.5V5.625H39.125V15.375ZM70.0508 71.4375L46.2852 12.1758C50.2461 11.5664 56.0352 9.12891 57.8633 8.21484L81.4766 67.4766C77.668 68.0859 71.7266 70.5234 70.0508 71.4375Z" fill="#176F9D"/>
<path d="M87.7227 70.3711L60.9102 2.12109C60.6055 1.35938 59.8438 0.75 59.082 0.75C58.625 0.75 58.3203 1.05469 57.4062 1.35938C56.3398 1.66406 55.8828 2.57812 56.3398 4.10156C53.9023 5.625 47.3516 7.75781 44.9141 8.21484C44.7617 7.60547 44.6094 7.14844 43.8477 6.69141V5.625C43.8477 3.03516 41.7148 0.75 38.9727 0.75H24.3477C23.5859 0.75 22.6719 1.20703 21.9102 1.51172C21.3008 1.20703 20.3867 0.75 19.625 0.75H5C2.25781 0.75 0.125 3.03516 0.125 5.625V73.875C0.125 76.6172 2.25781 78.75 5 78.75H19.625C20.3867 78.75 21.3008 78.4453 22.0625 78.1406C22.6719 78.4453 23.5859 78.75 24.5 78.75H39.125C41.7148 78.75 44 76.6172 44 73.875V18.8789L67.0039 77.5312C67.3086 78.293 67.918 78.75 68.6797 78.75C69.1367 78.75 69.4414 78.5977 70.5078 78.293C71.4219 77.9883 72.0312 77.0742 71.4219 75.5508C74.0117 74.0273 80.4102 71.8945 83 71.4375C83.457 73.1133 84.5234 73.418 85.4375 73.1133L86.5039 72.6562C87.5703 72.3516 88.0273 71.2852 87.7227 70.3711ZM19.625 73.875H5V64.125H19.625V73.875ZM19.625 59.25H5V20.25H19.625V59.25ZM19.625 15.375H5V5.625H19.625V15.375ZM39.125 73.875H24.5V64.125H39.125V73.875ZM39.125 59.25H24.5V20.25H39.125V59.25ZM39.125 15.375H24.5V5.625H39.125V15.375ZM70.0508 71.4375L46.2852 12.1758C50.2461 11.5664 56.0352 9.12891 57.8633 8.21484L81.4766 67.4766C77.668 68.0859 71.7266 70.5234 70.0508 71.4375Z" fill="#176F9D"/>
</svg>
