<svg width="49" height="49" viewBox="0 0 49 49" fill="none" xmlns="http://www.w3.org/2000/svg">
<path d="M14.2038 23.1762C17.266 28.537 20.8651 32.3382 26.4819 35.2034C26.969 34.7743 27.2291 34.4208 27.6321 33.9092C29.2253 31.8544 31.2097 29.3876 34.4597 30.8744C36.58 31.9253 40.7474 34.1343 42.5098 35.4142C43.1807 35.8759 43.6658 36.4584 43.9925 37.1203C44.6859 38.5295 44.5959 40.1456 44.1558 41.6084C43.9289 42.3614 43.5983 43.1076 43.2062 43.7839C41.7342 46.3168 39.2901 47.6378 36.4705 48.3554C33.0425 49.2242 29.9451 49.2482 26.5377 48.2193C23.9665 47.4405 21.5771 46.1817 19.2954 44.8023L19.001 44.6241C17.8939 43.9487 16.7046 43.2226 15.487 42.3355L15.4782 42.3278C13.1319 40.5978 10.77 38.4691 8.6281 36.0876C6.64467 33.8824 4.83728 31.4453 3.3947 28.8904C2.07241 26.5482 1.05917 24.0882 0.494853 21.5974C-0.308105 18.0501 -0.248445 13.9663 1.53351 10.6939C3.61964 6.86391 7.40557 5.29859 11.6443 5.66454L11.749 5.67699C12.4815 5.76704 13.1476 6.20483 13.5084 6.83709L18.3311 14.8217C18.8025 15.4463 19.0763 16.0891 19.1683 16.7492C19.5194 19.2849 17.3971 20.8445 15.5809 22.1483C14.9618 22.5889 14.2703 23.0804 14.2038 23.1762V23.1762ZM23.2867 18.1756C22.563 17.9926 22.1278 17.2674 22.3146 16.5585C22.5014 15.8487 23.2417 15.4224 23.9655 15.6063C28.2786 16.708 32.1985 20.1864 33.5384 24.3765C33.7604 25.0768 33.3623 25.823 32.6464 26.0405C31.9315 26.2589 31.1696 25.8681 30.9476 25.1668C29.8894 21.858 26.6883 19.0425 23.2867 18.1756V18.1756ZM23.4667 10.0377C22.7283 9.91503 22.2314 9.22721 22.3566 8.50395C22.4818 7.78068 23.184 7.29308 23.9224 7.41666C32.2699 8.83253 39.6481 15.7107 41.7284 23.7222C41.9132 24.434 41.4731 25.1592 40.7464 25.3402C40.0188 25.5213 39.2784 25.0902 39.0945 24.3775C37.2725 17.3594 30.7833 11.2801 23.4667 10.0377V10.0377ZM24.3391 2.65077C23.5948 2.56743 23.0598 1.90739 23.1449 1.17838C23.23 0.450322 23.9029 -0.0746442 24.6472 0.00869894C36.2553 1.33931 46.4307 10.441 48.9677 21.5946C49.1291 22.3102 48.6674 23.0181 47.9378 23.1762C47.2082 23.3342 46.4845 22.8821 46.3241 22.1674C44.0355 12.1107 34.8069 3.85015 24.3391 2.65077ZM11.6932 24.4282C11.6473 24.3545 11.6072 24.2769 11.5739 24.1945C10.7573 22.1655 12.4326 20.9738 13.928 19.9124C14.6469 19.4047 15.8987 18.5751 16.2704 17.733C16.4885 17.2435 16.3829 16.8785 16.067 16.4618L15.9398 16.2846L11.1798 8.4024C8.14496 8.19453 5.52092 9.22913 4.01574 11.99C2.56435 14.6541 2.58978 18.1286 3.24017 21.0025C3.73896 23.2068 4.6583 25.4216 5.86616 27.5617C8.55866 32.3324 12.7387 36.8492 17.1751 40.1264C18.2548 40.9148 19.4118 41.6228 20.4896 42.2799L20.7898 42.4639C24.6775 44.83 28.8742 46.7833 33.6244 46.0965C34.3501 45.9921 35.0778 45.8599 35.7634 45.6865C38.4745 44.9958 40.588 43.7102 41.4535 40.8305C41.7616 39.8055 41.9093 38.3916 40.9068 37.6817C38.7141 36.2792 35.5815 34.5721 33.244 33.3603C32.0381 32.8344 30.8469 34.3135 29.8747 35.5675C29.1744 36.4641 28.4214 37.4882 27.3045 37.8982C26.7568 38.0994 26.1895 38.0936 25.6496 37.8762L25.4677 37.8005C19.1712 34.6555 15.0977 30.4174 11.6932 24.4282Z" fill="white"/>
</svg>
