<svg width="80" height="80" viewBox="0 0 80 80" fill="none" xmlns="http://www.w3.org/2000/svg">
<g clip-path="url(#clip0_315_16590)">
<path d="M71.8047 28.6409C71.1656 24.0557 68.7742 19.8971 65.134 17.0377C62.6355 15.0923 59.5651 14.0257 56.3985 14.0025C53.2319 13.9794 50.1469 15.001 47.62 16.9096C45.9809 18.1202 44.6394 19.6885 43.6971 21.4952C42.7549 19.6884 41.4135 18.1201 39.7742 16.9096C37.2479 14.9999 34.1623 13.9773 30.9958 14.0004C27.8286 14.0235 24.7582 15.0913 22.2603 17.0377C18.62 19.8971 16.2287 24.0557 15.5895 28.6409C15.4577 29.5537 15.3926 30.4745 15.3936 31.3967C15.3931 32.7097 15.5296 34.0197 15.8001 35.3043C15.9561 36.0469 16.6841 36.5222 17.4268 36.3662C18.1689 36.2102 18.6442 35.4818 18.4882 34.7396C18.265 33.6393 18.1563 32.5189 18.1647 31.3966C18.1652 30.6077 18.2235 29.8204 18.3375 29.04C18.8801 25.1739 20.8953 21.667 23.9621 19.2515C25.9868 17.6722 28.4758 16.8051 31.0436 16.7845C33.6109 16.764 36.1135 17.5917 38.1629 19.1385C39.7122 20.2683 40.9209 21.8024 41.6566 23.5734C41.7244 23.7389 41.7695 23.8744 41.8147 24.0099C42.0075 24.5367 42.4087 24.9611 42.924 25.1832C43.4392 25.4049 44.0227 25.4049 44.538 25.1832C45.0532 24.9611 45.4545 24.5367 45.6472 24.0099C45.6924 23.8817 45.7376 23.7462 45.8053 23.5881C46.5396 21.8149 47.7486 20.2777 49.299 19.1459C51.3484 17.5991 53.851 16.7719 56.4183 16.7918C58.9862 16.8123 61.4751 17.6794 63.4999 19.2588C66.5667 21.6743 68.5819 25.1812 69.1244 29.0473C69.2384 29.8278 69.2967 30.6156 69.2972 31.4039C69.3172 35.2238 67.9406 38.9188 65.4275 41.7948H49.1865L47.176 35.8919C46.9659 35.3389 46.4297 34.9791 45.8383 34.9943C45.2469 35.0096 44.7295 35.3967 44.5483 35.9597L41.1974 46.6516L38.0503 28.5807V28.1291L38.0125 28.0687V28.0161L37.7415 27.9631V27.91L37.7037 27.8649L37.6512 27.8124H37.6134L37.5456 27.7598H37.5078L37.44 27.7147H36.0246L35.9569 27.7598H35.9117L35.8513 27.805L35.8061 27.8428L35.761 27.888L35.7158 27.9405V27.9857L35.6706 28.0461V28.0912L35.6255 28.159V28.4752L32.0866 41.78L9.37024 41.7795C8.6134 41.7795 8 42.3929 8 43.1497C8 43.9065 8.61345 44.5205 9.37024 44.5205H33.4648L33.5703 44.468H33.6081L33.6759 44.4302H33.7137L33.7741 44.385L33.8419 44.3246L33.917 44.2416C33.9711 44.176 34.0189 44.1056 34.0598 44.031V43.7521L36.2657 35.4694L39.2773 52.9459V53.3146L39.3224 53.3898L39.3749 53.4575L39.4275 53.5179V53.5557L39.48 53.6009L39.5252 53.6387L39.5856 53.6839L39.6685 53.7443H39.97L40.1507 53.7894H40.7983L40.8886 53.7443L41.5063 53.624L41.574 53.5862H41.6192L41.6796 53.541H41.7174L41.7852 53.4885C41.8461 53.4307 41.9013 53.3677 41.9506 53.2999L42.0032 53.217L42.041 53.1419V52.9764L45.8057 40.8387L46.7847 43.7074C46.8078 43.7699 46.8357 43.8303 46.8672 43.8881C46.8987 43.9432 46.9339 43.9963 46.9728 44.0462L47.093 44.1817L47.2212 44.2873L47.3793 44.385L47.5526 44.4527L47.7333 44.4979H47.9518L62.7016 44.4984C61.9484 45.2516 61.2557 46.0042 60.5556 46.7574L46.1822 62.0639L46.0845 62.1768H46.084C45.5488 62.931 44.6896 63.3885 43.7652 63.4121H43.637C42.7137 63.3974 41.8518 62.9478 41.3103 62.1999L41.2126 62.087L30.2119 50.3631C29.694 49.81 28.8264 49.7817 28.2733 50.299C27.7203 50.8169 27.6914 51.6851 28.2093 52.2381L39.1569 63.8939C40.2131 65.304 41.8676 66.1397 43.6297 66.1529H43.7652C45.5273 66.1397 47.1818 65.3041 48.2381 63.8939L62.5885 48.6385C63.7629 47.3885 64.9903 46.1463 66.1879 44.9415L66.888 44.2335V44.234C70.2001 40.7844 72.0341 36.1782 72.0005 31.3962C72.0015 30.4739 71.9364 29.5532 71.8046 28.6403L71.8047 28.6409Z" fill="white"/>
</g>
<defs>
<clipPath id="clip0_315_16590">
<rect width="80" height="80" fill="white"/>
</clipPath>
</defs>
</svg>
