<svg width="80" height="80" viewBox="0 0 80 80" fill="none" xmlns="http://www.w3.org/2000/svg">
<path d="M17.5516 29.3243C16.7169 29.3243 16 28.6078 16 27.7316C16 26.895 16.7169 26.1785 17.5516 26.1785H19.8597C21.2923 26.2182 22.5653 26.4971 23.6412 27.1738C25.7228 28.4945 26.0931 30.3808 26.6254 32.5108H40.9746C41.5012 33.8201 42.4514 34.9117 43.653 35.6202H36.7321V35.6191H27.5008L31.0423 48.9625H56.155L59.4574 35.6191H51.2704V35.6202H50.0948C51.2964 34.9117 52.2455 33.8201 52.7733 32.5108H61.4484C62.3227 32.5108 63 33.2283 63 34.066C63 34.2248 62.9592 34.3846 62.9196 34.5433L58.8606 50.9146C58.702 51.6321 58.0656 52.1105 57.3487 52.1105H31.8781C32.4364 54.1816 32.9925 55.297 33.749 55.8139C34.6652 56.4125 36.2564 56.451 38.9224 56.4125H56.9512C57.8255 56.4125 58.5027 57.1289 58.5027 57.9655C58.5027 58.8417 57.787 59.5185 56.9512 59.5185H38.9632C35.6596 59.5593 33.629 59.4788 31.9981 58.4042C30.3265 57.2887 29.4511 55.3764 28.5756 51.911L23.2425 31.715C23.2425 31.6753 23.2425 31.6753 23.2029 31.6356C22.9639 30.7582 22.5653 30.162 22.0092 29.8423C21.452 29.4841 20.6955 29.3243 19.82 29.3243H17.5516ZM39.9247 12.9643C41.0051 11.0894 43.422 10.4421 45.2929 11.5247C47.165 12.6061 47.8116 15.0252 46.7323 16.8979C44.4979 20.7713 42.269 24.6063 40.0357 28.4786C39.4977 29.4115 38.6268 30.0384 37.6585 30.2991C36.6913 30.5587 35.6233 30.4499 34.6913 29.9115C33.7603 29.373 33.1329 28.5013 32.8724 27.5332C32.6131 26.5651 32.7218 25.4961 33.2609 24.5632C35.4942 20.6852 37.6868 16.8423 39.9247 12.9643ZM42.1422 23.0986L36.8952 20.0674L34.048 25.0019C33.6324 25.7251 33.5486 26.5504 33.7501 27.3031C33.9517 28.0546 34.4365 28.7291 35.1567 29.1463C35.8782 29.5623 36.7038 29.6462 37.4547 29.4433C38.2044 29.2426 38.8794 28.7563 39.2961 28.0342L42.1422 23.0986ZM50.472 28.5727C51.0178 29.6553 51.0371 30.9804 50.404 32.1219C49.3915 33.9516 47.0868 34.6136 45.2578 33.6001C44.7198 33.302 44.2838 32.8905 43.9599 32.4155L50.472 28.5727ZM43.7832 28.4469C44.7957 26.6172 47.1004 25.9552 48.9294 26.9687C49.4278 27.2453 49.8377 27.6171 50.1526 28.0478L43.662 31.8782C43.1705 30.8183 43.1739 29.5464 43.7832 28.4469ZM49.7709 18.7365C50.7845 16.9058 53.0881 16.2449 54.9171 17.2583C55.4154 17.5349 55.8254 17.9056 56.1414 18.3375L49.6475 22.169C49.1582 21.108 49.1616 19.8373 49.7709 18.7365ZM56.4596 18.8612C57.0055 19.9449 57.0248 21.269 56.3917 22.4116C55.3792 24.2412 53.0745 24.9033 51.2466 23.8898C50.7268 23.6023 50.2822 23.196 49.9487 22.7041L56.4596 18.8612ZM48.2748 38.9031C48.2748 38.4111 48.7596 38.0132 49.3575 38.0132C49.9555 38.0132 50.4402 38.4111 50.4402 38.9031V44.9111C50.4402 45.4008 49.9555 45.7987 49.3575 45.7987C48.7596 45.7987 48.2748 45.4008 48.2748 44.9111V38.9031ZM41.7922 38.9031C41.7922 38.4111 42.277 38.0132 42.8749 38.0132C43.4729 38.0132 43.9576 38.4111 43.9576 38.9031V44.9111C43.9576 45.4008 43.4729 45.7987 42.8749 45.7987C42.277 45.7987 41.7922 45.4008 41.7922 44.9111V38.9031ZM35.3096 38.9031C35.3096 38.4111 35.7944 38.0132 36.3935 38.0132C36.9903 38.0132 37.475 38.4111 37.475 38.9031V44.9111C37.475 45.4008 36.9903 45.7987 36.3935 45.7987C35.7944 45.7987 35.3096 45.4008 35.3096 44.9111V38.9031ZM52.2942 61.3515C54.4041 61.3515 56.1153 63.0644 56.1153 65.1762C56.1153 67.287 54.4041 68.9998 52.2942 68.9998C50.1854 68.9998 48.4742 67.287 48.4742 65.1762C48.4742 63.0644 50.1854 61.3515 52.2942 61.3515ZM35.5395 61.3515C37.6494 61.3515 39.3607 63.0644 39.3607 65.1762C39.3607 67.287 37.6494 68.9998 35.5395 68.9998C33.4308 68.9998 31.7195 67.287 31.7195 65.1762C31.7195 63.0644 33.4308 61.3515 35.5395 61.3515Z" fill="white"/>
</svg>
