<svg width="326" height="34" viewBox="0 0 326 34" fill="none" xmlns="http://www.w3.org/2000/svg">
<path d="M205.135 0.732H174.077V5.349H205.135V0.732ZM205.135 9.965H174.077V14.582H205.135V9.965ZM205.135 19.18H174.077V23.797H205.135V19.18ZM205.135 28.414H174.077V33.03H205.135V28.414ZM233.313 26.863C235.627 26.863 237.324 25.152 237.324 22.923C237.324 20.749 235.679 19.127 233.279 19.127H227.4V26.863H233.313ZM231.873 13.619C233.827 13.619 235.216 12.175 235.216 10.197C235.216 8.29 233.827 6.864 231.925 6.864H227.383V13.619H231.873ZM220.664 0.732H233.005C237.958 0.732 241.866 4.208 241.866 8.985C241.866 12.086 240.392 14.546 237.907 15.473C242.003 16.222 244.146 19.448 244.146 23.494C244.146 28.966 240.135 33.03 234.702 33.03H220.664V0.732ZM259.006 0.732H252.15V33.012H259.006V0.732ZM283.877 0.233C288.916 0.233 293.373 2.55 296.441 6.258L291.761 10.375C289.808 8.111 286.996 6.721 283.877 6.721C278.358 6.721 274.038 11.071 274.038 16.917C274.038 22.745 278.358 27.059 283.877 27.059C286.996 27.059 289.842 25.669 291.813 23.351L296.492 27.469C293.424 31.212 288.916 33.529 283.877 33.529C274.656 33.529 267.165 26.542 267.165 16.899C267.165 7.274 274.656 0.233 283.877 0.233ZM303.691 0.732H324.894V7.22H310.564V13.298H323.968V19.644H310.564V26.542H325.219V33.03H303.691V0.732ZM10.37 30.945C14.278 30.945 17.243 27.897 17.243 23.868C17.243 19.84 14.329 16.845 10.199 16.845H2.331V30.945H10.371H10.37ZM9.154 14.617C12.514 14.617 14.982 12.14 14.982 8.771C14.982 5.349 12.565 2.817 9.188 2.817H2.331V14.617H9.154ZM0 0.572H9.325C13.85 0.572 17.312 3.94 17.312 8.682C17.312 11.872 15.786 14.528 13.044 15.472C17.038 16.043 19.557 19.59 19.557 23.904C19.557 29.198 15.649 33.226 10.49 33.226H0V0.572ZM45.816 22.05L38.909 4.315L32.001 22.068H45.816V22.05ZM38 0.572H39.834L52.706 33.208H50.186L46.69 24.314H31.076L27.63 33.209H25.11L38.001 0.572H38ZM60.848 0.572H62.871L82.788 28.806V0.572H85.118V33.208H83.199L63.179 4.778V33.208H60.849L60.848 0.572ZM110.161 0.00100002C114.96 0.00100002 119.176 2.069 122.09 5.473L120.513 7.024C118.045 4.029 114.411 2.247 110.143 2.247C102.208 2.247 96.277 8.521 96.277 16.899C96.277 25.241 102.208 31.515 110.143 31.515C114.411 31.515 118.131 29.679 120.548 26.649L122.159 28.199C119.245 31.711 114.943 33.779 110.126 33.779C101.111 33.779 93.929 26.559 93.929 16.917C93.963 7.22 101.093 0 110.161 0V0.00100002ZM144.63 31.462C152.531 31.462 158.41 25.187 158.41 16.899C158.41 8.61 152.446 2.283 144.63 2.283C136.779 2.283 130.763 8.61 130.763 16.899C130.763 25.187 136.677 31.462 144.63 31.462ZM144.63 0.002C153.611 0.002 160.776 7.22 160.776 16.899C160.776 26.595 153.594 33.761 144.63 33.761C135.614 33.761 128.484 26.595 128.484 16.899C128.466 7.22 135.597 0 144.63 0V0.002Z" fill="#326295"/>
</svg>
