<svg width="500" height="300" viewBox="0 0 500 300" fill="none" xmlns="http://www.w3.org/2000/svg">
<g clip-path="url(#clip0_33_200)">
<path d="M339.351 121.69L320.721 166.95L301.991 121.69H295.221L318.481 177.42H322.871L346.121 121.69H339.351Z" fill="#80BC00"/>
<path d="M366.749 121.69H360.539V177.42H366.749V121.69Z" fill="#80BC00"/>
<path d="M465.669 131.36L476.739 157.91H454.599L465.669 131.36ZM463.289 121.69L439.789 177.42H446.479L452.219 163.66H479.139L484.879 177.42H491.559L468.069 121.69H463.289Z" fill="#80BC00"/>
<path d="M161.679 122.06H149.449V177.42H161.679V122.06Z" fill="#003A70"/>
<path d="M206.001 121C214.981 121 222.911 124.97 228.401 131.33L220.061 138.4C216.561 134.51 211.561 132.13 206.001 132.13C196.161 132.13 188.451 139.6 188.451 149.61C188.451 159.62 196.161 167 206.001 167C211.561 167 216.641 164.62 220.141 160.65L228.481 167.71C223.001 174.15 214.981 178.12 206.001 178.12C189.561 178.12 176.221 166.13 176.221 149.61C176.221 133.09 189.561 121 206.001 121Z" fill="#003A70"/>
<path d="M241.34 122.07V177.42H279.7V166.31H253.57V154.47H277.47V143.59H253.57V133.18H279.14V122.07H241.34Z" fill="#003A70"/>
<path d="M403.151 171.67C418.601 171.67 426.011 162.55 426.011 149.59C426.011 136.63 418.601 127.44 403.081 127.44H391.931V171.67H403.151ZM385.711 121.69H403.551C421.551 121.69 432.221 133.12 432.221 149.59C432.221 166.06 421.631 177.42 403.631 177.42H385.711V121.69Z" fill="#80BC00"/>
<path d="M64.73 122.06H9V129.96H64.73V122.06Z" fill="#003A70"/>
<path d="M64.73 137.94H9V145.84H64.73V137.94Z" fill="#003A70"/>
<path d="M64.73 153.82H9V161.71H64.73V153.82Z" fill="#003A70"/>
<path d="M64.73 169.69H9V177.59H64.73V169.69Z" fill="#003A70"/>
<path d="M115.86 166.86C119.99 166.86 123.01 163.93 123.01 160.11C123.01 156.29 120.07 153.6 115.78 153.6H105.3V166.86H115.86ZM113.32 144.14C116.81 144.14 119.27 141.68 119.27 138.27C119.27 134.86 116.81 132.55 113.4 132.55H105.3V144.14H113.32ZM93.3096 122.06H115.31C124.13 122.06 131.12 128.01 131.12 136.2C131.12 141.52 128.5 145.73 124.04 147.32C131.36 148.59 135.17 154.15 135.17 161.07C135.17 170.44 128.02 177.43 118.34 177.43H93.3196V122.06H93.3096Z" fill="#003A70"/>
</g>
<defs>
<clipPath id="clip0_33_200">
<rect width="483" height="58" fill="white" transform="translate(9 121)"/>
</clipPath>
</defs>
</svg>
