<svg width="78" height="78" viewBox="0 0 78 78" fill="none" xmlns="http://www.w3.org/2000/svg">
<path d="M25.236 33.4043H4.81519V52.0098H25.236V33.4043Z" stroke="#5B398E" stroke-width="5" stroke-linecap="round" stroke-linejoin="round"/>
<path d="M11.6221 8.89934V15.7063" stroke="#5B398E" stroke-width="5" stroke-linecap="round" stroke-linejoin="round"/>
<path d="M20.2442 8.44554V15.2525" stroke="#5B398E" stroke-width="5" stroke-linecap="round" stroke-linejoin="round"/>
<path d="M7.53796 40.2112L19.3366 40.2112" stroke="#5B398E" stroke-width="5" stroke-linecap="round" stroke-linejoin="round"/>
<path d="M7.53796 46.5643L19.3366 46.5643" stroke="#5B398E" stroke-width="5" stroke-linecap="round" stroke-linejoin="round"/>
<path d="M60.1783 13.4373C55.6403 13.4373 30.2473 57.5173 61.0859 56.094C90.5825 54.7326 64.7162 13.4373 60.1783 13.4373Z" stroke="#5B398E" stroke-width="5" stroke-linecap="round" stroke-linejoin="round"/>
<path d="M28.4125 8.44554V15.2525" stroke="#5B398E" stroke-width="5" stroke-linecap="round" stroke-linejoin="round"/>
<path d="M3 21.1518V3H36.5808V21.1518H3Z" stroke="#5B398E" stroke-width="5" stroke-linecap="round" stroke-linejoin="round"/>
<path d="M4.36139 61.0857V22.967H34.3118V61.0857C33.8581 65.4724 30.3185 74.3366 19.7904 74.6996C9.26237 75.0626 5.11771 65.775 4.36139 61.0857Z" stroke="#5B398E" stroke-width="5" stroke-linecap="round" stroke-linejoin="round"/>
<path d="M59.2706 49.2871C62.4471 49.5896 68.891 48.198 69.2541 40.2112" stroke="#5B398E" stroke-width="5" stroke-linecap="round" stroke-linejoin="round"/>
</svg>
