<svg width="102" height="112" viewBox="0 0 102 112" fill="none" xmlns="http://www.w3.org/2000/svg">
<path d="M96.8029 78.1359H91.6671L91.0251 77.0124C90.7041 76.2099 89.6609 75.5679 88.7782 75.5679H83.1608L80.9941 73.4012C80.7534 73.1605 80.4324 73 80.1114 73C80.1114 73 80.1114 73 80.0312 73C79.3892 73 78.8274 73.642 78.8274 74.284V88.4076H69.8397H69.7594C68.2347 88.4076 66.7902 88.8891 65.5865 89.6916H63.4198C61.2531 89.6916 59.5679 88.0064 59.5679 85.8397C59.5679 85.1977 58.9259 84.5557 58.284 84.5557C57.5617 84.5557 57 85.1977 57 85.8397C57 89.3706 59.7284 92.1793 63.1791 92.2595C62.5371 93.383 62.1359 94.7472 62.1359 96.1114V108.951C62.1359 110.395 63.2594 111.519 64.7038 111.519H69.8397C71.2039 111.519 72.4076 110.395 72.4076 108.951V101.247H80.1114V108.951C80.1114 110.395 81.2349 111.519 82.6793 111.519H87.8152C89.1794 111.519 90.3831 110.395 90.3831 108.951V89.6916H92.9511C95.7597 89.6916 98.0869 87.4446 98.0869 84.5557V79.4198C98.0869 78.7778 97.4449 78.1359 96.8029 78.1359ZM87.8152 108.951H82.6793V98.6793H69.8397V108.951H64.7038V96.1114C64.7038 93.3027 66.9507 91.0558 69.8397 90.9755H79.3089L87.8152 93.1422V108.951ZM95.519 84.5557C95.519 86.0001 94.3152 87.1236 92.9511 87.1236H87.8152V90.494L81.3954 88.8891V77.4136L82.1176 78.1359H88.7782L90.0621 80.7038H95.519V84.5557ZM87.8152 80.7038C87.8152 80.0618 87.1732 79.4198 86.5312 79.4198C85.809 79.4198 85.2473 80.0618 85.2473 80.7038C85.2473 81.426 85.809 81.9878 86.5312 81.9878C87.1732 81.9878 87.8152 81.426 87.8152 80.7038Z" fill="#5B398E"/>
<path d="M96.8029 78.1359H91.6671L91.0251 77.0124C90.7041 76.2099 89.6609 75.5679 88.7782 75.5679H83.1608L80.9941 73.4012C80.7534 73.1605 80.4324 73 80.1114 73C80.1114 73 80.1114 73 80.0312 73C79.3892 73 78.8274 73.642 78.8274 74.284V88.4076H69.8397H69.7594C68.2347 88.4076 66.7902 88.8891 65.5865 89.6916H63.4198C61.2531 89.6916 59.5679 88.0064 59.5679 85.8397C59.5679 85.1977 58.9259 84.5557 58.284 84.5557C57.5617 84.5557 57 85.1977 57 85.8397C57 89.3706 59.7284 92.1793 63.1791 92.2595C62.5371 93.383 62.1359 94.7472 62.1359 96.1114V108.951C62.1359 110.395 63.2594 111.519 64.7038 111.519H69.8397C71.2039 111.519 72.4076 110.395 72.4076 108.951V101.247H80.1114V108.951C80.1114 110.395 81.2349 111.519 82.6793 111.519H87.8152C89.1794 111.519 90.3831 110.395 90.3831 108.951V89.6916H92.9511C95.7597 89.6916 98.0869 87.4446 98.0869 84.5557V79.4198C98.0869 78.7778 97.4449 78.1359 96.8029 78.1359ZM87.8152 108.951H82.6793V98.6793H69.8397V108.951H64.7038V96.1114C64.7038 93.3027 66.9507 91.0558 69.8397 90.9755H79.3089L87.8152 93.1422V108.951ZM95.519 84.5557C95.519 86.0001 94.3152 87.1236 92.9511 87.1236H87.8152V90.494L81.3954 88.8891V77.4136L82.1176 78.1359H88.7782L90.0621 80.7038H95.519V84.5557ZM87.8152 80.7038C87.8152 80.0618 87.1732 79.4198 86.5312 79.4198C85.809 79.4198 85.2473 80.0618 85.2473 80.7038C85.2473 81.426 85.809 81.9878 86.5312 81.9878C87.1732 81.9878 87.8152 81.426 87.8152 80.7038Z" fill="#5B398E"/>
<path d="M52.1349 15.2439C47.5104 32.3759 37.2033 25.3219 35.4408 24.8654L31.7268 26.9763L31.9785 26.0437L35.2142 24.2077C35.4412 22.7681 35.1812 19.4113 38.6174 16.8752C42.0556 14.332 45.0777 15.3402 52.1349 15.2439ZM49.7131 17.6574C51.0373 16.1022 49.4334 17.3818 49.4334 17.3818C47.8766 18.7011 46.1507 19.0357 44.2591 19.4564C41.7946 20.0035 38.483 20.9376 36.8473 23.0053C35.2135 25.0658 36.0677 24.111 37.0941 23.3028C38.1276 22.4965 40.8752 21.6988 42.6456 21.2992C45.1048 20.743 47.4906 20.2594 49.7131 17.6574Z" fill="#5B398E"/>
<path d="M28.7085 10.875C28.7085 16.0506 24.5089 20.2501 19.3334 20.2501C14.1579 20.2501 9.95837 16.0506 9.95837 10.875C9.95837 5.69954 14.1579 1.5 19.3334 1.5C24.5089 1.5 28.7085 5.69954 28.7085 10.875ZM19.3334 26.8751C21.4026 26.8751 23.3732 26.4384 25.1579 25.6668H29.0001C33.511 25.6668 37.1668 29.3226 37.1668 33.8335V35.0418C37.1668 36.2147 36.2147 37.1668 35.0418 37.1668H3.62502C2.45213 37.1668 1.5 36.2147 1.5 35.0418V33.8335C1.5 29.3226 5.15579 25.6668 9.66671 25.6668H13.51C15.2985 26.4376 17.2623 26.8751 19.3334 26.8751Z" stroke="#5B398E" stroke-width="3"/>
<path d="M28.7085 10.875C28.7085 16.0506 24.5089 20.2501 19.3334 20.2501C14.1579 20.2501 9.95837 16.0506 9.95837 10.875C9.95837 5.69954 14.1579 1.5 19.3334 1.5C24.5089 1.5 28.7085 5.69954 28.7085 10.875ZM19.3334 26.8751C21.4026 26.8751 23.3732 26.4384 25.1579 25.6668H29.0001C33.511 25.6668 37.1668 29.3226 37.1668 33.8335V35.0418C37.1668 36.2147 36.2147 37.1668 35.0418 37.1668H3.62502C2.45213 37.1668 1.5 36.2147 1.5 35.0418V33.8335C1.5 29.3226 5.15579 25.6668 9.66671 25.6668H13.51C15.2985 26.4376 17.2623 26.8751 19.3334 26.8751Z" stroke="#5B398E" stroke-width="3"/>
<path d="M28.7085 10.875C28.7085 16.0506 24.5089 20.2501 19.3334 20.2501C14.1579 20.2501 9.95837 16.0506 9.95837 10.875C9.95837 5.69954 14.1579 1.5 19.3334 1.5C24.5089 1.5 28.7085 5.69954 28.7085 10.875ZM19.3334 26.8751C21.4026 26.8751 23.3732 26.4384 25.1579 25.6668H29.0001C33.511 25.6668 37.1668 29.3226 37.1668 33.8335V35.0418C37.1668 36.2147 36.2147 37.1668 35.0418 37.1668H3.62502C2.45213 37.1668 1.5 36.2147 1.5 35.0418V33.8335C1.5 29.3226 5.15579 25.6668 9.66671 25.6668H13.51C15.2985 26.4376 17.2623 26.8751 19.3334 26.8751Z" stroke="#5B398E" stroke-width="3"/>
<path d="M52.1349 15.2438C47.5104 32.3759 37.2033 25.3219 35.4408 24.8654L31.7268 26.9763L31.9785 26.0436L35.2142 24.2077C35.4412 22.768 35.1812 19.4113 38.6174 16.8752C42.0556 14.3319 45.0777 15.3401 52.1349 15.2438ZM49.7131 17.6574C51.0373 16.1021 49.4334 17.3817 49.4334 17.3817C47.8766 18.701 46.1507 19.0356 44.2591 19.4564C41.7946 20.0034 38.483 20.9375 36.8473 23.0052C35.2135 25.0657 36.0677 24.111 37.0941 23.3027C38.1276 22.4964 40.8752 21.6987 42.6456 21.2991C45.1048 20.743 47.4906 20.2594 49.7131 17.6574Z" fill="#5B398E"/>
<path d="M9.36493 66.1836L18.5814 67.9874C19.2184 68.112 19.6326 68.728 19.5052 69.3609L19.2055 70.8925C19.0808 71.5295 18.465 71.9436 17.832 71.8162L11.2979 70.5445L10.0193 77.0773C9.8946 77.7144 9.27876 78.1285 8.6458 78.0011L7.1102 77.7042C6.47318 77.5795 6.05895 76.9636 6.18635 76.3306L7.99013 67.1142C8.11208 66.4731 8.72792 66.0589 9.36493 66.1836Z" fill="#5B398E"/>
<path d="M11 69C13.3333 77.5 21.6 93.9 36 91.5" stroke="#5B398E" stroke-width="4" stroke-linecap="round"/>
<path d="M90.9549 48.8798L82.0617 45.8621C81.447 45.6535 81.1187 44.9879 81.3294 44.3776L81.8309 42.8998C82.0394 42.2851 82.705 41.9568 83.3153 42.1675L89.6213 44.2999L91.7603 37.9962C91.9688 37.3815 92.6344 37.0532 93.2447 37.2639L94.727 37.7632C95.3417 37.9718 95.67 38.6374 95.4593 39.2477L92.4416 48.1409C92.2352 48.76 91.5696 49.0883 90.9549 48.8798Z" fill="#5B398E"/>
<path d="M89.7106 45.8704C88.5325 37.135 82.5285 19.7785 67.937 20.2352" stroke="#5B398E" stroke-width="4" stroke-linecap="round"/>
</svg>
