<svg width="119" height="101" viewBox="0 0 119 101" fill="none" xmlns="http://www.w3.org/2000/svg">
<path d="M5.07569 98.3887H2.25048L1.71338 100H0L2.91113 92.1797H4.40429L7.33154 100H5.61817L5.07569 98.3887ZM2.68554 97.0835H4.64062L3.65771 94.1562L2.68554 97.0835ZM13.3042 93.4849H10.9087V100H9.29737V93.4849H6.93408V92.1797H13.3042V93.4849ZM18.9331 96.6108H15.8394V98.7056H19.4703V100H14.2281V92.1797H19.4595V93.4849H15.8394V95.3486H18.9331V96.6108ZM26.7749 100H25.1636L22.0269 94.8545V100H20.4156V92.1797H22.0269L25.169 97.3359V92.1797H26.7749V100ZM34.3213 97.395C34.2605 98.2365 33.9489 98.8989 33.3868 99.3823C32.8282 99.8657 32.0905 100.107 31.1739 100.107C30.1713 100.107 29.3817 99.7708 28.8052 99.0977C28.2323 98.4209 27.9458 97.4935 27.9458 96.3154V95.8374C27.9458 95.0854 28.0783 94.423 28.3433 93.8501C28.6083 93.2772 28.986 92.8385 29.4766 92.5342C29.9707 92.2262 30.5437 92.0723 31.1954 92.0723C32.0977 92.0723 32.8246 92.314 33.376 92.7974C33.9275 93.2808 34.2461 93.9593 34.3321 94.833H32.7207C32.6814 94.3281 32.5399 93.9629 32.2964 93.7373C32.0565 93.5081 31.6895 93.3936 31.1954 93.3936C30.6582 93.3936 30.2554 93.5869 29.9869 93.9736C29.7219 94.3568 29.5858 94.953 29.5787 95.7622V96.353C29.5787 97.1981 29.7058 97.8158 29.96 98.2061C30.2178 98.5964 30.6224 98.7915 31.1739 98.7915C31.6716 98.7915 32.0422 98.6787 32.2857 98.4531C32.5328 98.224 32.6742 97.8713 32.71 97.395H34.3213ZM37.0928 100H35.4815V92.1797H37.0928V100ZM45.0152 96.2671C45.0152 97.0369 44.8791 97.7119 44.607 98.292C44.3348 98.8721 43.9445 99.3197 43.4361 99.6348C42.9312 99.9499 42.3511 100.107 41.6958 100.107C41.0477 100.107 40.4694 99.9517 39.961 99.6401C39.4525 99.3286 39.0586 98.8846 38.7793 98.3081C38.5 97.728 38.3586 97.062 38.355 96.3101V95.9233C38.355 95.1535 38.4929 94.4767 38.7686 93.8931C39.0479 93.3058 39.44 92.8564 39.9449 92.5449C40.4533 92.2298 41.0334 92.0723 41.6851 92.0723C42.3368 92.0723 42.9151 92.2298 43.42 92.5449C43.9284 92.8564 44.3205 93.3058 44.5962 93.8931C44.8755 94.4767 45.0152 95.1517 45.0152 95.918V96.2671ZM43.3824 95.9126C43.3824 95.0926 43.2356 94.4696 42.9419 94.0435C42.6483 93.6174 42.2294 93.4043 41.6851 93.4043C41.1444 93.4043 40.7273 93.6156 40.4336 94.0381C40.14 94.457 39.9914 95.0729 39.9878 95.8857V96.2671C39.9878 97.0656 40.1346 97.6851 40.4283 98.1255C40.7219 98.5659 41.1444 98.7861 41.6958 98.7861C42.2365 98.7861 42.6519 98.5749 42.9419 98.1523C43.232 97.7262 43.3788 97.1068 43.3824 96.2939V95.9126ZM41.9966 90.085H43.6885L42.2007 91.75H40.9385L41.9966 90.085ZM52.5455 100H50.9341L47.7974 94.8545V100H46.1861V92.1797H47.7974L50.9395 97.3359V92.1797H52.5455V100ZM61.107 98.3887H58.2818L57.7447 100H56.0313L58.9424 92.1797H60.4356L63.3628 100H61.6495L61.107 98.3887ZM58.7168 97.0835H60.6719L59.689 94.1562L58.7168 97.0835ZM70.1626 99.0117C69.8726 99.359 69.4626 99.6294 68.9327 99.8228C68.4027 100.013 67.8155 100.107 67.1709 100.107C66.4942 100.107 65.8998 99.9606 65.3877 99.667C64.8793 99.3698 64.4854 98.9401 64.2061 98.3779C63.9304 97.8158 63.7889 97.1551 63.7818 96.396V95.8643C63.7818 95.0837 63.9125 94.4087 64.1739 93.8394C64.4388 93.2664 64.8184 92.8296 65.3125 92.5288C65.8103 92.2244 66.3921 92.0723 67.0581 92.0723C67.9855 92.0723 68.7107 92.2943 69.2334 92.7383C69.7561 93.1787 70.0659 93.8215 70.1626 94.6665H68.5943C68.5227 94.2189 68.3633 93.8913 68.1163 93.6836C67.8728 93.4759 67.5362 93.3721 67.1065 93.3721C66.5586 93.3721 66.1415 93.578 65.855 93.9897C65.5686 94.4015 65.4235 95.0138 65.42 95.8267V96.3262C65.42 97.1462 65.5757 97.7656 65.8873 98.1846C66.1988 98.6035 66.6553 98.813 67.2569 98.813C67.862 98.813 68.2935 98.6841 68.5513 98.4263V97.0781H67.085V95.8911H70.1626V99.0117ZM76.1783 96.6108H73.0845V98.7056H76.7154V100H71.4732V92.1797H76.7046V93.4849H73.0845V95.3486H76.1783V96.6108ZM84.0201 100H82.4087L79.272 94.8545V100H77.6607V92.1797H79.272L82.4141 97.3359V92.1797H84.0201V100ZM85.4273 100V92.1797H87.8335C88.521 92.1797 89.1351 92.3354 89.6758 92.647C90.2201 92.9549 90.6444 93.3953 90.9488 93.9683C91.2531 94.5376 91.4053 95.1857 91.4053 95.9126V96.2725C91.4053 96.9993 91.2549 97.6457 90.9541 98.2114C90.6569 98.7772 90.2362 99.2158 89.6919 99.5273C89.1477 99.8389 88.5336 99.9964 87.8497 100H85.4273ZM87.0386 93.4849V98.7056H87.8174C88.4476 98.7056 88.9292 98.4997 89.2623 98.0879C89.5953 97.6761 89.7653 97.0871 89.7725 96.3208V95.9072C89.7725 95.1123 89.6078 94.5107 89.2784 94.1025C88.9489 93.6908 88.4673 93.4849 87.8335 93.4849H87.0386ZM96.8785 98.3887H94.0533L93.5162 100H91.8028L94.7139 92.1797H96.2071L99.1343 100H97.4209L96.8785 98.3887ZM94.4883 97.0835H96.4434L95.4605 94.1562L94.4883 97.0835ZM99.8649 100V92.1797H102.604C103.553 92.1797 104.273 92.3623 104.763 92.7275C105.254 93.0892 105.499 93.6209 105.499 94.3228C105.499 94.7059 105.401 95.0443 105.204 95.3379C105.007 95.6279 104.733 95.841 104.382 95.9771C104.783 96.0773 105.098 96.2796 105.327 96.584C105.56 96.8883 105.676 97.2607 105.676 97.7012C105.676 98.4531 105.437 99.0225 104.957 99.4092C104.477 99.7959 103.793 99.9928 102.905 100H99.8649ZM101.476 96.5947V98.7056H102.857C103.236 98.7056 103.532 98.616 103.743 98.437C103.958 98.2544 104.065 98.0037 104.065 97.6851C104.065 96.9689 103.694 96.6055 102.953 96.5947H101.476ZM101.476 95.4561H102.669C103.481 95.4417 103.888 95.1177 103.888 94.4839C103.888 94.1294 103.784 93.8752 103.576 93.7212C103.372 93.5636 103.048 93.4849 102.604 93.4849H101.476V95.4561ZM108.502 98.7056H111.923V100H106.89V92.1797H108.502V98.7056ZM117.557 96.6108H114.464V98.7056H118.094V100H112.852V92.1797H118.084V93.4849H114.464V95.3486H117.557V96.6108Z" fill="#00CC99"/>
<path d="M60.1523 36C69.9961 36 78.1523 27.9844 78.1523 18C78.1523 8.15625 69.9961 0 60.1523 0C50.1679 0 42.1523 8.15625 42.1523 18C42.1523 27.9844 50.1679 36 60.1523 36ZM60.1523 4.5C67.4648 4.5 73.6523 10.6875 73.6523 18C73.6523 25.4531 67.4648 31.5 60.1523 31.5C52.6992 31.5 46.6523 25.4531 46.6523 18C46.6523 10.6875 52.6992 4.5 60.1523 4.5ZM73.2304 40.6406C68.4492 40.5 67.0429 42.75 60.1523 42.75C53.1211 42.75 51.7148 40.5 46.9335 40.6406C36.8085 40.9219 28.6523 49.2188 28.6523 59.4844V70.875C28.6523 71.5781 29.0742 72 29.7773 72H32.0273C32.5898 72 33.1523 71.5781 33.1523 70.875V59.4844C33.1523 51.8906 39.0585 45.5625 46.6523 45.1406V56.6719C43.2773 57.6562 41.0273 60.6094 41.0273 64.125C41.0273 68.4844 44.5429 72 48.9023 72C53.1211 72 56.7773 68.4844 56.7773 64.125C56.7773 60.6094 54.3867 57.6562 51.1523 56.6719V45.8438C53.9648 46.8281 57.0585 47.25 60.1523 47.25C63.1054 47.25 66.1992 46.8281 69.1523 45.8438V55.5469C65.0742 56.5312 62.4023 60.3281 62.4023 64.5469V68.625C62.4023 69.3281 62.5429 69.8906 62.9648 70.3125L64.5117 71.7188C64.9335 72.1406 65.6367 72.1406 66.0585 71.7188L67.6054 70.1719C68.0273 69.75 68.0273 69.0469 67.6054 68.4844L66.7617 67.7812V64.125C66.7617 61.4531 69.2929 59.3438 72.1054 59.7656C74.3554 60.0469 75.7617 62.1562 75.7617 64.4062V67.7812L75.0585 68.4844C74.6367 69.0469 74.6367 69.75 75.0585 70.1719L76.6054 71.7188C77.0273 72.1406 77.7304 72.1406 78.1523 71.7188L79.6992 70.3125C80.1211 69.8906 80.2617 69.3281 80.2617 68.625V64.125C80.2617 60.0469 77.4492 56.5312 73.5117 55.5469V45.1406C81.1054 45.7031 87.0117 51.8906 87.0117 59.4844V70.875C87.0117 71.5781 87.5742 72 88.1367 72H90.3867C91.0898 72 91.5117 71.5781 91.5117 70.875V59.4844C91.6523 49.2188 83.4961 40.9219 73.2304 40.6406ZM52.2773 64.125C52.2773 66.0938 50.7304 67.5 48.9023 67.5C46.9335 67.5 45.5273 66.0938 45.5273 64.125C45.5273 62.2969 46.9335 60.75 48.9023 60.75C50.7304 60.75 52.2773 62.2969 52.2773 64.125Z" fill="#00CC99"/>
</svg>
