<svg width="67" height="66" viewBox="0 0 67 66" fill="none" xmlns="http://www.w3.org/2000/svg">
<path d="M6 6H61V60.7945H6V6Z" fill="#007F46" stroke="#007F46" stroke-width="10.1695" stroke-miterlimit="3.8637"/>
<path fill-rule="evenodd" clip-rule="evenodd" d="M17.9838 45.222C17.9838 44.619 17.8449 44.1316 17.5201 43.7609C17.242 43.3897 16.8481 43.2041 16.338 43.2041C15.8278 43.2041 15.4337 43.3666 15.1322 43.7375C14.8543 44.0854 14.7149 44.5726 14.6918 45.222L14.6918 48.9823L18.0201 48.9881L17.9838 45.222ZM12.2114 41.1629C11.1678 42.2297 10.6582 43.645 10.6582 45.4078V56.0747H14.692L14.691 52.6475L17.9889 52.6464L17.9838 56.0747H22.0408V45.4078C22.0173 43.645 21.5068 42.2297 20.4633 41.1628C19.397 40.073 18.0301 39.5395 16.3262 39.5512C14.6222 39.563 13.2547 40.096 12.2114 41.1629ZM34.4175 39.7996L34.4255 56.0686L38.424 56.0747V49.9109H41.6232V56.0747H45.6802V39.8178H41.6232V46.0138H38.424V39.8178L34.4175 39.7996ZM33.1081 39.8117L30.4371 39.8188C28.2577 39.8188 26.4725 40.6074 25.0587 42.1843C23.6212 43.7617 22.9249 45.686 22.9249 47.9588C22.9479 50.2315 23.6444 52.1331 25.0587 53.7102C26.519 55.2872 28.3043 56.0757 30.4371 56.0757L33.1666 56.0424L33.1474 52.1695L31.1779 52.1766C29.9723 52.1535 28.9991 51.8054 28.2569 51.1098C27.515 50.3677 27.1441 49.3243 27.1441 47.9558C27.1441 46.5412 27.515 45.4975 28.2569 44.8018C28.9991 44.0597 29.9723 43.7118 31.1779 43.7118H33.1081V39.8117ZM51.6069 39.8188C50.1695 39.8188 49.0103 40.1889 48.0832 40.9309C47.1558 41.6733 46.6922 42.8334 46.6922 44.4106C46.7152 45.5702 47.0399 46.4504 47.689 47.0998C48.3844 47.7725 49.335 48.5387 50.5869 49.4431C51.8851 50.3708 52.5111 51.0204 52.5111 51.4375C52.4879 52.0405 52.001 52.3187 51.0042 52.3187H46.8081V56.0747H51.1433C53.4616 56.0747 54.9914 55.6111 55.7334 54.6832C56.4983 53.7556 56.8694 52.5971 56.8694 51.2056C56.8462 50.0694 56.4752 49.164 55.7334 48.4448C54.9684 47.7028 53.9715 46.9145 52.7197 46.0794C51.4446 45.1982 50.8187 44.596 50.8187 44.2483C50.842 43.9929 50.9114 43.8297 51.0737 43.7371C51.2591 43.6213 51.4679 43.5757 51.746 43.5757H55.8262V39.8188H51.6069Z" fill="white"/>
</svg>
