<svg width="95" height="76" viewBox="0 0 95 76" fill="none" xmlns="http://www.w3.org/2000/svg">
<path d="M23.75 38C23.75 38.1484 23.6016 38.1484 23.6016 38.2968C30.5782 35.625 38.8907 33.25 47.5 33.25C54.0312 33.25 60.7109 34.7343 66.5 36.6641C66.3516 35.1797 66.5 33.6953 67.5391 31.9141C61.3047 29.9843 54.4766 28.5 47.5 28.5C38.2968 28.5 29.5391 30.875 22.2657 33.6953C23.1562 35.0312 23.75 36.3672 23.75 38ZM73.625 38C74.8125 38 76 36.9609 76 35.625C76 34.4375 74.8125 33.25 73.625 33.25C72.2891 33.25 71.25 34.4375 71.25 35.625C71.25 36.9609 72.2891 38 73.625 38ZM86.6875 48.8359L84.0157 52.8438C83.2734 53.8828 81.9375 54.1797 80.8984 53.4375C77.6328 51.5078 70.2109 47.6484 61.75 45.125V65.9062C61.75 66.3516 61.8984 66.5 62.3438 66.5H65.9062C66.2032 66.5 66.5 66.3516 66.5 65.9062V51.8047C71.9922 54.0312 76.4453 56.4062 78.5234 57.5938C81.4922 59.375 85.7968 58.7812 88.0234 55.3672L90.6953 51.5078C92.625 48.5391 92.3282 43.7891 88.4688 41.4141C86.5391 40.375 83.8672 38.7422 80.6016 37.1093C80.1562 38.7422 79.2657 40.2266 77.9297 41.2657C81.4922 42.8984 84.3125 44.3828 85.9453 45.4218C87.1328 46.1641 87.4297 47.6484 86.6875 48.8359ZM61.75 14.25C61.75 6.53125 55.2188 0 47.5 0C39.6328 0 33.25 6.53125 33.25 14.25C33.25 22.1172 39.6328 28.5 47.5 28.5C55.2188 28.5 61.75 22.1172 61.75 14.25ZM47.5 23.75C42.1562 23.75 38 19.5938 38 14.25C38 9.05468 42.1562 4.75 47.5 4.75C52.6953 4.75 57 9.05468 57 14.25C57 19.5938 52.6953 23.75 47.5 23.75ZM6.82812 55.3672C9.05468 58.7812 13.3593 59.375 16.3282 57.5938C18.4062 56.4062 22.8593 53.8828 28.5 51.8047V65.9062C28.5 66.3516 28.6484 66.5 29.0938 66.5H32.6562C32.9532 66.5 33.25 66.3516 33.25 65.9062V45.125C24.6407 47.6484 17.2188 51.5078 13.9532 53.5859C12.9141 54.1797 11.5782 53.8828 10.8359 52.8438L8.16407 48.8359C7.42188 47.6484 7.71875 46.1641 8.90625 45.4218C9.79688 44.9766 10.8359 44.3828 12.1718 43.6407C10.8359 42.6016 9.94532 41.2657 9.64843 39.6328C8.46093 40.2266 7.27343 40.9688 6.38282 41.4141C2.52343 43.7891 2.22657 48.5391 4.15625 51.5078L6.82812 55.3672ZM93.8125 71.25H1.1875C0.445312 71.25 0 71.8438 0 72.4375V74.8125C0 75.5547 0.445312 76 1.1875 76H93.8125C94.4062 76 95 75.5547 95 74.8125V72.4375C95 71.8438 94.4062 71.25 93.8125 71.25ZM16.625 40.375C17.8125 40.375 19 39.3359 19 38C19 36.8125 17.8125 35.625 16.625 35.625C15.2891 35.625 14.25 36.8125 14.25 38C14.25 39.3359 15.2891 40.375 16.625 40.375ZM38 45.125C38 46.4609 39.0391 47.5 40.375 47.5C41.5625 47.5 42.75 46.4609 42.75 45.125C42.75 43.9375 41.5625 42.75 40.375 42.75C39.0391 42.75 38 43.9375 38 45.125ZM52.25 59.375C52.25 60.7109 53.2891 61.75 54.625 61.75C55.8125 61.75 57 60.7109 57 59.375C57 58.1875 55.8125 57 54.625 57C53.2891 57 52.25 58.1875 52.25 59.375Z" fill="#FE5000"/>
</svg>
