<svg width="348" height="156" viewBox="0 0 348 156" fill="none" xmlns="http://www.w3.org/2000/svg">
<path d="M230.851 21.2109L218.427 51.2625L206.003 21.2109H201.515L216.996 58.2225H219.858L235.339 21.2109H230.851Z" fill="#80BC00"/>
<path d="M248.999 21.2109H244.901V58.2225H248.999V21.2109Z" fill="#80BC00"/>
<path d="M314.761 27.6506L322.111 45.2782H307.411L314.761 27.6506ZM313.2 21.2109L297.589 58.2225H302.012L305.85 49.0509H323.738L327.575 58.2225H331.999L316.387 21.2109H313.2Z" fill="#80BC00"/>
<path d="M273.262 54.4498C283.539 54.4498 288.482 48.4005 288.482 39.7493C288.482 31.098 283.539 25.0487 273.262 25.0487H265.846V54.4498H273.327H273.262ZM261.618 21.2109H273.457C285.425 21.2109 292.515 28.8214 292.515 39.7493C292.515 50.6771 285.49 58.2225 273.522 58.2225H261.618V21.2109Z" fill="#80BA27"/>
<path d="M48.3299 21.4688H11.3184V26.7375H48.3299V21.4688Z" fill="#003A70"/>
<path d="M48.3299 32.0078H11.3184V37.2766H48.3299V32.0078Z" fill="#003A70"/>
<path d="M48.3299 42.5469H11.3184V47.8157H48.3299V42.5469Z" fill="#003A70"/>
<path d="M48.3299 53.0781H11.3184V58.3469H48.3299V53.0781Z" fill="#003A70"/>
<path d="M112.792 21.2734H104.661V58.0899H112.792V21.2734Z" fill="#003A70"/>
<path d="M142.193 20.6875C148.177 20.6875 153.446 23.3544 157.088 27.5825L151.559 32.2658C149.218 29.6639 145.9 28.1028 142.193 28.1028C135.623 28.1028 130.549 33.0464 130.549 39.7462C130.549 46.446 135.688 51.3245 142.193 51.3245C148.697 51.3245 149.283 49.7634 151.559 47.0965L157.088 51.7798C153.446 56.0729 148.112 58.6748 142.128 58.6748C131.2 58.6748 122.354 50.7391 122.354 39.7462C122.354 28.7533 131.2 20.7525 142.128 20.7525" fill="#003A70"/>
<path d="M165.675 21.2734V58.0899H191.173V50.6746H173.806V42.8039H189.742V35.5837H173.806V28.6888H190.848V21.2734H165.675Z" fill="#003A70"/>
<path d="M82.35 51.0674C85.082 51.0674 87.0984 49.116 87.0984 46.5792C87.0984 44.0423 85.147 42.221 82.285 42.221H75.325V51.0674H82.35ZM80.6588 35.9765C83.0005 35.9765 84.6267 34.3504 84.6267 32.0737C84.6267 29.7971 83.0005 28.301 80.7238 28.301H75.325V35.9765H80.6588ZM67.3242 21.276H81.9597C87.8139 21.276 92.4323 25.2438 92.4323 30.6427C92.4323 36.0416 90.676 36.9522 87.7489 38.058C92.6274 38.9036 95.1642 42.6113 95.1642 47.1646C95.1642 51.7179 90.4158 58.0274 83.9762 58.0274H67.3242V21.2109V21.276Z" fill="#003A70"/>
<path d="M322.554 83.1797H20.2419C15.1696 83.1797 11.0576 87.2916 11.0576 92.364V125.312C11.0576 130.384 15.1696 134.496 20.2419 134.496H322.554C327.626 134.496 331.738 130.384 331.738 125.312V92.364C331.738 87.2916 327.626 83.1797 322.554 83.1797Z" fill="#17A638"/>
<path d="M47.9848 98.1141V100.839H42.5645V118.477H39.2245V100.839H33.775V98.1141H47.9848ZM59.9811 100.81V106.786H67.0128V109.511H59.9811V115.752H67.8918V118.477H56.6411V98.0848H67.8918V100.81H59.9811ZM80.6195 115.781H87.5046V118.477H77.2794V98.1141H80.6195V115.781ZM98.9116 100.81V106.786H105.943V109.511H98.9116V115.752H106.822V118.477H95.5716V98.0848H106.822V100.81H98.9116ZM122.919 118.682C121.552 118.682 120.321 118.447 119.228 117.978C118.134 117.49 117.274 116.807 116.649 115.928C116.024 115.049 115.712 114.023 115.712 112.851H119.286C119.364 113.73 119.706 114.453 120.312 115.019C120.937 115.586 121.806 115.869 122.919 115.869C124.072 115.869 124.97 115.596 125.615 115.049C126.259 114.482 126.582 113.759 126.582 112.881C126.582 112.197 126.376 111.64 125.966 111.211C125.576 110.781 125.078 110.449 124.472 110.214C123.886 109.98 123.066 109.726 122.011 109.453C120.683 109.101 119.599 108.749 118.759 108.398C117.938 108.027 117.235 107.46 116.649 106.699C116.063 105.937 115.77 104.921 115.77 103.651C115.77 102.48 116.063 101.454 116.649 100.575C117.235 99.6962 118.056 99.0223 119.11 98.5535C120.165 98.0848 121.386 97.8504 122.773 97.8504C124.746 97.8504 126.357 98.3485 127.607 99.3446C128.877 100.321 129.58 101.669 129.717 103.388H126.025C125.966 102.646 125.615 102.011 124.97 101.483C124.326 100.956 123.476 100.692 122.421 100.692C121.464 100.692 120.683 100.936 120.077 101.425C119.472 101.913 119.169 102.616 119.169 103.534C119.169 104.159 119.355 104.677 119.726 105.087C120.116 105.478 120.605 105.79 121.191 106.025C121.777 106.259 122.577 106.513 123.593 106.786C124.941 107.158 126.035 107.529 126.875 107.9C127.734 108.271 128.457 108.847 129.043 109.628C129.648 110.39 129.951 111.416 129.951 112.705C129.951 113.74 129.668 114.717 129.101 115.635C128.554 116.553 127.744 117.295 126.669 117.861C125.615 118.408 124.365 118.682 122.919 118.682ZM151.442 114.316H142.916L141.451 118.477H137.965L145.26 98.0848H149.127L156.423 118.477H152.907L151.442 114.316ZM150.504 111.591L147.194 102.128L143.854 111.591H150.504ZM168.208 115.781H175.094V118.477H164.868V98.1141H168.208V115.781ZM186.471 98.1141V111.093C186.471 112.636 186.872 113.799 187.672 114.58C188.493 115.361 189.626 115.752 191.071 115.752C192.536 115.752 193.669 115.361 194.47 114.58C195.29 113.799 195.7 112.636 195.7 111.093V98.1141H199.04V111.035C199.04 112.695 198.679 114.101 197.956 115.254C197.234 116.406 196.267 117.266 195.056 117.832C193.845 118.398 192.507 118.682 191.042 118.682C189.577 118.682 188.239 118.398 187.028 117.832C185.836 117.266 184.889 116.406 184.186 115.254C183.483 114.101 183.131 112.695 183.131 111.035V98.1141H186.471ZM215.314 98.1141C217.482 98.1141 219.376 98.534 220.998 99.3739C222.638 100.194 223.898 101.386 224.777 102.948C225.676 104.491 226.125 106.298 226.125 108.369C226.125 110.439 225.676 112.236 224.777 113.759C223.898 115.283 222.638 116.455 220.998 117.275C219.376 118.076 217.482 118.477 215.314 118.477H208.663V98.1141H215.314ZM215.314 115.752C217.697 115.752 219.523 115.107 220.792 113.818C222.062 112.529 222.697 110.712 222.697 108.369C222.697 106.005 222.062 104.159 220.792 102.831C219.523 101.503 217.697 100.839 215.314 100.839H212.003V115.752H215.314ZM247.095 102.392C247.212 100.575 247.906 99.1591 249.175 98.1434C250.465 97.1277 252.105 96.6198 254.098 96.6198C255.465 96.6198 256.647 96.864 257.643 97.3523C258.639 97.8406 259.391 98.5047 259.899 99.3446C260.406 100.185 260.66 101.132 260.66 102.187C260.66 103.398 260.338 104.433 259.694 105.292C259.049 106.152 258.277 106.728 257.379 107.021V107.138C258.531 107.49 259.43 108.134 260.074 109.072C260.719 109.99 261.041 111.171 261.041 112.617C261.041 113.769 260.778 114.795 260.25 115.693C259.723 116.592 258.942 117.305 257.906 117.832C256.871 118.34 255.631 118.594 254.185 118.594C252.076 118.594 250.338 118.057 248.97 116.982C247.623 115.889 246.9 114.326 246.802 112.295H250.025C250.103 113.33 250.504 114.179 251.226 114.844C251.949 115.488 252.926 115.81 254.156 115.81C255.348 115.81 256.266 115.488 256.91 114.844C257.555 114.179 257.877 113.33 257.877 112.295C257.877 110.927 257.438 109.96 256.559 109.394C255.699 108.808 254.371 108.515 252.574 108.515H251.812V105.761H252.603C254.185 105.741 255.387 105.478 256.207 104.97C257.047 104.462 257.467 103.661 257.467 102.567C257.467 101.63 257.164 100.888 256.559 100.341C255.953 99.7743 255.094 99.4911 253.98 99.4911C252.887 99.4911 252.037 99.7743 251.431 100.341C250.826 100.888 250.465 101.571 250.347 102.392H247.095ZM281.309 102.069C281.094 101.171 280.703 100.497 280.137 100.048C279.57 99.5985 278.779 99.3739 277.763 99.3739C276.22 99.3739 275.068 99.9696 274.306 101.161C273.544 102.333 273.144 104.286 273.105 107.021C273.613 106.161 274.355 105.497 275.332 105.029C276.308 104.56 277.363 104.325 278.496 104.325C279.785 104.325 280.918 104.609 281.895 105.175C282.891 105.722 283.662 106.523 284.209 107.578C284.776 108.632 285.059 109.892 285.059 111.357C285.059 112.724 284.785 113.945 284.238 115.019C283.711 116.094 282.92 116.943 281.865 117.568C280.81 118.174 279.541 118.477 278.056 118.477C276.045 118.477 274.462 118.037 273.31 117.158C272.177 116.26 271.376 115 270.908 113.379C270.458 111.757 270.234 109.736 270.234 107.314C270.234 100.165 272.753 96.5905 277.793 96.5905C279.746 96.5905 281.279 97.1179 282.393 98.1727C283.525 99.2274 284.19 100.526 284.385 102.069H281.309ZM277.763 107.138C276.572 107.138 275.556 107.499 274.716 108.222C273.896 108.925 273.486 109.951 273.486 111.298C273.486 112.646 273.867 113.72 274.629 114.521C275.41 115.303 276.494 115.693 277.881 115.693C279.111 115.693 280.078 115.312 280.781 114.551C281.504 113.789 281.865 112.773 281.865 111.504C281.865 110.175 281.514 109.121 280.81 108.339C280.127 107.538 279.111 107.138 277.763 107.138ZM293.895 107.519C293.895 104.14 294.462 101.503 295.595 99.6083C296.747 97.6941 298.72 96.737 301.513 96.737C304.306 96.737 306.269 97.6941 307.402 99.6083C308.554 101.503 309.131 104.14 309.131 107.519C309.131 110.937 308.554 113.613 307.402 115.547C306.269 117.461 304.306 118.418 301.513 118.418C298.72 118.418 296.747 117.461 295.595 115.547C294.462 113.613 293.895 110.937 293.895 107.519ZM305.849 107.519C305.849 105.937 305.742 104.599 305.527 103.505C305.331 102.411 304.921 101.522 304.296 100.839C303.671 100.136 302.743 99.7841 301.513 99.7841C300.282 99.7841 299.355 100.136 298.73 100.839C298.104 101.522 297.685 102.411 297.47 103.505C297.274 104.599 297.177 105.937 297.177 107.519C297.177 109.16 297.274 110.537 297.47 111.65C297.665 112.763 298.075 113.662 298.7 114.345C299.345 115.029 300.282 115.371 301.513 115.371C302.743 115.371 303.671 115.029 304.296 114.345C304.941 113.662 305.361 112.763 305.556 111.65C305.751 110.537 305.849 109.16 305.849 107.519Z" fill="white"/>
</svg>
