<svg width="447" height="57" viewBox="0 0 447 57" fill="none" xmlns="http://www.w3.org/2000/svg">
<path d="M143.285 18.3047L135.597 36.9212L127.91 18.3047H125.139L134.656 41.2616H136.486L146.056 18.3047H143.285Z" fill="white"/>
<path d="M154.527 18.3047H151.965V41.2093H154.527V18.3047Z" fill="white"/>
<path d="M195.212 22.279L199.761 33.2084H190.662L195.212 22.279ZM194.218 18.3047L184.544 41.2093H187.316L189.669 35.5616H200.755L203.108 41.2093H205.88L196.205 18.3047H194.218Z" fill="white"/>
<path d="M169.484 38.9108C175.864 38.9108 178.897 35.1456 178.897 29.8117C178.897 24.4777 175.864 20.7126 169.484 20.7126H164.882V38.9108H169.484ZM162.32 18.3594H169.641C177.067 18.3594 181.407 23.0658 181.407 29.8117C181.407 36.5575 177.067 41.264 169.641 41.264H162.268V18.3594H162.32Z" fill="white"/>
<path d="M30.2786 18.4688H7.37402V21.711H30.2786V18.4688Z" fill="white"/>
<path d="M30.2786 25.0078H7.37402V28.25H30.2786V25.0078Z" fill="white"/>
<path d="M30.2786 31.5391H7.37402V34.7813H30.2786V31.5391Z" fill="white"/>
<path d="M30.2786 38.0781H7.37402V41.3203H30.2786V38.0781Z" fill="white"/>
<path d="M70.1784 18.4141H65.1582V41.1618H70.1784V18.4141Z" fill="white"/>
<path d="M88.4296 18.0469C92.1425 18.0469 95.3847 19.668 97.6333 22.2827L94.1819 25.2111C92.7177 23.59 90.6782 22.6487 88.3773 22.6487C84.3507 22.6487 81.1608 25.734 81.1608 29.8129C81.1608 33.8918 84.3507 36.9771 88.3773 36.9771C92.4039 36.9771 92.77 35.9836 94.1819 34.3625L97.6333 37.2909C95.3847 39.9579 92.0902 41.579 88.3773 41.579C81.6314 41.579 76.1406 36.6634 76.1406 29.8652C76.1406 23.0671 81.6314 18.0992 88.3773 18.0992" fill="white"/>
<path d="M102.967 18.4141V41.1618H118.707V36.6122H107.987V31.6966H117.818V27.2517H107.987V22.9636H118.498V18.4141H102.967Z" fill="white"/>
<path d="M51.3532 36.8214C53.0789 36.8214 54.2816 35.6186 54.2816 34.0498C54.2816 32.481 53.0789 31.3829 51.3009 31.3829H47.0128V36.8214H51.3532ZM50.3073 27.4609C51.7192 27.4609 52.7651 26.4673 52.7651 25.0553C52.7651 23.6434 51.7715 22.7021 50.3596 22.7021H47.0128V27.4609H50.3073ZM42.0449 18.4141H51.0917C54.7 18.4141 57.5761 20.8719 57.5761 24.2186C57.5761 27.5654 56.4779 28.1407 54.6477 28.7682C57.6807 29.2911 59.2495 31.592 59.2495 34.4159C59.2495 37.2397 56.3211 41.1618 52.3468 41.1618H42.0449V18.4141Z" fill="white"/>
<path d="M422.366 13.0469H228.116C224.857 13.0469 222.215 15.689 222.215 18.9482V40.1188C222.215 43.378 224.857 46.0202 228.116 46.0202H422.366C425.625 46.0202 428.267 43.378 428.267 40.1188V18.9482C428.267 15.689 425.625 13.0469 422.366 13.0469Z" fill="#17A638"/>
<path d="M245.807 23.0802V24.831H242.324V36.1641H240.178V24.831H236.677V23.0802H245.807ZM253.515 24.8122V28.6526H258.034V30.4034H253.515V34.4133H258.598V36.1641H251.369V23.0614H258.598V24.8122H253.515ZM266.777 34.4321H271.201V36.1641H264.63V23.0802H266.777V34.4321ZM278.53 24.8122V28.6526H283.048V30.4034H278.53V34.4133H283.613V36.1641H276.384V23.0614H283.613V24.8122H278.53ZM293.956 36.2958C293.078 36.2958 292.287 36.1452 291.584 35.844C290.881 35.5303 290.329 35.091 289.927 34.5262C289.526 33.9615 289.325 33.3026 289.325 32.5495H291.622C291.672 33.1143 291.892 33.5787 292.281 33.9426C292.682 34.3066 293.241 34.4886 293.956 34.4886C294.697 34.4886 295.274 34.3129 295.688 33.9615C296.102 33.5975 296.309 33.1331 296.309 32.5684C296.309 32.1291 296.178 31.7714 295.914 31.4953C295.663 31.2192 295.343 31.0058 294.954 30.8552C294.577 30.7046 294.05 30.5415 293.373 30.3658C292.519 30.1398 291.823 29.9139 291.283 29.688C290.756 29.4496 290.304 29.0856 289.927 28.5961C289.551 28.1067 289.363 27.454 289.363 26.6383C289.363 25.8852 289.551 25.2263 289.927 24.6616C290.304 24.0968 290.831 23.6638 291.509 23.3626C292.187 23.0614 292.971 22.9108 293.862 22.9108C295.13 22.9108 296.165 23.2308 296.968 23.8709C297.784 24.4984 298.236 25.3644 298.324 26.4688H295.952C295.914 25.9919 295.688 25.584 295.274 25.2452C294.86 24.9063 294.314 24.7369 293.636 24.7369C293.021 24.7369 292.519 24.8938 292.13 25.2075C291.741 25.5213 291.546 25.9731 291.546 26.563C291.546 26.9646 291.666 27.2972 291.904 27.5607C292.155 27.8117 292.469 28.0125 292.845 28.1631C293.222 28.3138 293.736 28.4769 294.389 28.6526C295.255 28.8911 295.958 29.1295 296.498 29.368C297.05 29.6064 297.514 29.9767 297.891 30.4787C298.28 30.9682 298.474 31.6271 298.474 32.4554C298.474 33.1206 298.292 33.7481 297.928 34.338C297.577 34.9278 297.056 35.4048 296.366 35.7687C295.688 36.1201 294.885 36.2958 293.956 36.2958ZM312.283 33.4908H306.805L305.864 36.1641H303.623L308.311 23.0614H310.796L315.484 36.1641H313.225L312.283 33.4908ZM311.681 31.74L309.554 25.6593L307.407 31.74H311.681ZM323.057 34.4321H327.481V36.1641H320.91V23.0802H323.057V34.4321ZM334.791 23.0802V31.42C334.791 32.4115 335.049 33.1582 335.563 33.6602C336.09 34.1623 336.818 34.4133 337.747 34.4133C338.688 34.4133 339.416 34.1623 339.931 33.6602C340.458 33.1582 340.721 32.4115 340.721 31.42V23.0802H342.867V31.3823C342.867 32.4491 342.635 33.3528 342.171 34.0932C341.707 34.8337 341.085 35.3859 340.307 35.7499C339.529 36.1139 338.669 36.2958 337.728 36.2958C336.787 36.2958 335.927 36.1139 335.149 35.7499C334.383 35.3859 333.775 34.8337 333.323 34.0932C332.871 33.3528 332.645 32.4491 332.645 31.3823V23.0802H334.791ZM353.324 23.0802C354.717 23.0802 355.934 23.35 356.976 23.8897C358.03 24.4168 358.84 25.1824 359.405 26.1864C359.982 27.1779 360.27 28.3389 360.27 29.6692C360.27 30.9995 359.982 32.1542 359.405 33.1331C358.84 34.1121 358.03 34.8651 356.976 35.3922C355.934 35.9068 354.717 36.1641 353.324 36.1641H349.05V23.0802H353.324ZM353.324 34.4133C354.855 34.4133 356.028 33.9991 356.844 33.1708C357.66 32.3424 358.068 31.1753 358.068 29.6692C358.068 28.1506 357.66 26.9646 356.844 26.1111C356.028 25.2577 354.855 24.831 353.324 24.831H351.197V34.4133H353.324ZM373.745 25.8288C373.82 24.6616 374.266 23.7517 375.082 23.099C375.91 22.4464 376.964 22.1201 378.244 22.1201C379.123 22.1201 379.882 22.277 380.522 22.5907C381.162 22.9045 381.645 23.3312 381.972 23.8709C382.298 24.4106 382.461 25.0193 382.461 25.697C382.461 26.4751 382.254 27.1403 381.84 27.6925C381.426 28.2447 380.93 28.615 380.353 28.8032V28.8785C381.093 29.1044 381.671 29.5186 382.085 30.121C382.499 30.7109 382.706 31.4702 382.706 32.3989C382.706 33.1394 382.537 33.7983 382.198 34.3756C381.859 34.9529 381.357 35.411 380.692 35.7499C380.026 36.0762 379.23 36.2394 378.301 36.2394C376.945 36.2394 375.828 35.8942 374.95 35.204C374.084 34.5011 373.619 33.4971 373.557 32.1918H375.628C375.678 32.857 375.935 33.403 376.399 33.8297C376.864 34.2438 377.491 34.4509 378.282 34.4509C379.048 34.4509 379.637 34.2438 380.052 33.8297C380.466 33.403 380.673 32.857 380.673 32.1918C380.673 31.3133 380.39 30.6921 379.826 30.3281C379.273 29.9516 378.42 29.7633 377.265 29.7633H376.776V27.9937H377.284C378.301 27.9812 379.073 27.8117 379.6 27.4854C380.139 27.1591 380.409 26.6445 380.409 25.9417C380.409 25.3393 380.215 24.8624 379.826 24.511C379.437 24.147 378.884 23.965 378.169 23.965C377.466 23.965 376.92 24.147 376.531 24.511C376.142 24.8624 375.91 25.3016 375.835 25.8288H373.745ZM395.729 25.6217C395.591 25.0444 395.34 24.6114 394.976 24.3227C394.612 24.034 394.103 23.8897 393.451 23.8897C392.459 23.8897 391.719 24.2725 391.229 25.0381C390.74 25.7911 390.483 27.0462 390.457 28.8032C390.784 28.251 391.261 27.8243 391.888 27.5231C392.516 27.2219 393.193 27.0713 393.921 27.0713C394.75 27.0713 395.478 27.2532 396.105 27.6172C396.745 27.9686 397.241 28.4832 397.592 29.1609C397.956 29.8386 398.138 30.6481 398.138 31.5894C398.138 32.468 397.963 33.2524 397.611 33.9426C397.272 34.6329 396.764 35.1789 396.086 35.5805C395.409 35.9695 394.593 36.1641 393.639 36.1641C392.346 36.1641 391.33 35.8817 390.589 35.3169C389.861 34.7396 389.347 33.9301 389.046 32.8884C388.757 31.8467 388.613 30.5477 388.613 28.9915C388.613 24.398 390.232 22.1013 393.47 22.1013C394.725 22.1013 395.71 22.4401 396.425 23.1179C397.153 23.7956 397.58 24.6302 397.705 25.6217H395.729ZM393.451 28.8785C392.685 28.8785 392.033 29.1107 391.493 29.5751C390.966 30.0269 390.702 30.6858 390.702 31.5518C390.702 32.4178 390.947 33.108 391.436 33.6226C391.938 34.1246 392.635 34.3756 393.526 34.3756C394.317 34.3756 394.938 34.1309 395.39 33.6414C395.854 33.152 396.086 32.4993 396.086 31.6835C396.086 30.8301 395.86 30.1524 395.409 29.6504C394.969 29.1358 394.317 28.8785 393.451 28.8785ZM403.816 29.1233C403.816 26.952 404.18 25.2577 404.908 24.0403C405.649 22.8104 406.916 22.1954 408.711 22.1954C410.506 22.1954 411.767 22.8104 412.495 24.0403C413.235 25.2577 413.606 26.952 413.606 29.1233C413.606 31.3196 413.235 33.039 412.495 34.2815C411.767 35.5114 410.506 36.1264 408.711 36.1264C406.916 36.1264 405.649 35.5114 404.908 34.2815C404.18 33.039 403.816 31.3196 403.816 29.1233ZM411.497 29.1233C411.497 28.1067 411.428 27.247 411.29 26.5441C411.165 25.8413 410.901 25.2703 410.499 24.831C410.098 24.3792 409.502 24.1533 408.711 24.1533C407.92 24.1533 407.324 24.3792 406.922 24.831C406.521 25.2703 406.251 25.8413 406.113 26.5441C405.987 27.247 405.925 28.1067 405.925 29.1233C405.925 30.1775 405.987 31.0623 406.113 31.7777C406.238 32.4931 406.502 33.0704 406.904 33.5096C407.318 33.9489 407.92 34.1685 408.711 34.1685C409.502 34.1685 410.098 33.9489 410.499 33.5096C410.914 33.0704 411.183 32.4931 411.309 31.7777C411.434 31.0623 411.497 30.1775 411.497 29.1233Z" fill="white"/>
</svg>
