<svg width="97" height="130" viewBox="0 0 97 130" fill="none" xmlns="http://www.w3.org/2000/svg">
<path fill-rule="evenodd" clip-rule="evenodd" d="M69.984 33.1945V26.7849H73.5658V33.194C73.5656 33.4615 73.6181 33.7264 73.7204 33.9736C73.8227 34.2208 73.9727 34.4454 74.1619 34.6345C74.351 34.8237 74.5756 34.9736 74.8228 35.0759C75.07 35.1781 75.3349 35.2307 75.6024 35.2304H82.0113V38.8122H75.6024C75.3349 38.8119 75.07 38.8645 74.8228 38.9667C74.5756 39.069 74.351 39.2189 74.1619 39.4081C73.9727 39.5972 73.8227 39.8218 73.7204 40.069C73.6181 40.3162 73.5656 40.5811 73.5658 40.8486V47.2696H69.984V40.8491C69.9842 40.5816 69.9317 40.3167 69.8295 40.0695C69.7272 39.8223 69.5772 39.5978 69.3881 39.4086C69.1989 39.2195 68.9744 39.0695 68.7272 38.9672C68.48 38.865 68.2151 38.8125 67.9476 38.8127H61.5387V35.2309H67.9476C68.2151 35.2312 68.48 35.1787 68.7272 35.0764C68.9744 34.9741 69.1989 34.8242 69.3881 34.635C69.5772 34.4459 69.7272 34.2213 69.8295 33.9741C69.9317 33.7269 69.9842 33.462 69.984 33.1945ZM66.9413 25.7672V32.1883H60.5205C59.981 32.1899 59.4641 32.405 59.0826 32.7866C58.7012 33.1681 58.4862 33.6851 58.4846 34.2247V39.819C58.4862 40.3586 58.7012 40.8756 59.0828 41.2572C59.4644 41.6388 59.9814 41.8538 60.521 41.8554H66.9418V48.2764C66.9416 48.5439 66.9942 48.8088 67.0965 49.056C67.1987 49.3031 67.3487 49.5277 67.5378 49.7168C67.727 49.906 67.9516 50.056 68.1987 50.1582C68.4459 50.2605 68.7108 50.313 68.9782 50.3128H74.5725C74.8401 50.3131 75.105 50.2605 75.3522 50.1583C75.5993 50.056 75.824 49.906 76.0131 49.7169C76.2023 49.5278 76.3523 49.3032 76.4546 49.056C76.5569 48.8088 76.6094 48.5439 76.6092 48.2764V41.8554H83.03C83.2975 41.8556 83.5624 41.8031 83.8096 41.7008C84.0568 41.5986 84.2813 41.4486 84.4705 41.2594C84.6596 41.0703 84.8096 40.8457 84.9119 40.5985C85.0141 40.3514 85.0667 40.0864 85.0664 39.819V34.2247C85.0667 33.9572 85.0141 33.6923 84.9119 33.4451C84.8096 33.1979 84.6596 32.9733 84.4705 32.7842C84.2813 32.595 84.0568 32.445 83.8096 32.3428C83.5624 32.2405 83.2975 32.188 83.03 32.1883H76.6087V25.7672C76.6071 25.2276 76.392 24.7105 76.0104 24.3289C75.6288 23.9474 75.1117 23.7323 74.572 23.7308H68.9778C68.4382 23.7324 67.9211 23.9475 67.5396 24.329C67.158 24.7106 66.9429 25.2276 66.9413 25.7672ZM36.6458 52.5046C41.3664 52.5035 45.9814 53.9023 49.9071 56.524C53.8327 59.1457 56.8929 62.8726 58.7004 67.2335C60.508 71.5943 60.9819 76.3932 60.0621 81.0234C59.1423 85.6535 56.8701 89.907 53.533 93.2458C50.1959 96.5847 45.9436 98.859 41.3139 99.7811C36.6842 100.703 31.885 100.232 27.5233 98.4265C23.1615 96.6212 19.433 93.563 16.8093 89.6386C14.1856 85.7143 12.7845 81.1 12.7832 76.3794C12.7901 70.0517 15.306 63.9849 19.7793 59.5093C24.2525 55.0338 30.318 52.5148 36.6458 52.5046ZM36.6458 103.297C31.322 103.297 26.1177 101.718 21.6911 98.7605C17.2645 95.8028 13.8144 91.5989 11.7771 86.6804C9.73973 81.7618 9.20665 76.3496 10.2453 71.1281C11.2839 65.9066 13.8475 61.1104 17.612 57.3459C21.3765 53.5814 26.1727 51.0178 31.3942 49.9791C36.6157 48.9405 42.028 49.4736 46.9465 51.511C51.865 53.5483 56.069 56.9984 59.0267 61.425C61.9844 65.8516 63.563 71.0559 63.563 76.3797C63.5576 83.5169 60.72 90.3603 55.6732 95.4071C50.6264 100.454 43.783 103.292 36.6458 103.297V103.297ZM30.4286 70.7254C30.4274 71.9568 30.7915 73.1608 31.4749 74.1852C32.1582 75.2095 33.1301 76.0081 34.2675 76.4799C35.4049 76.9517 36.6567 77.0754 37.8645 76.8355C39.0722 76.5956 40.1817 76.0027 41.0524 75.132C41.9231 74.2613 42.5159 73.1519 42.7558 71.9441C42.9958 70.7364 42.872 69.4846 42.4002 68.3472C41.9284 67.2098 41.1298 66.2379 40.1055 65.5546C39.0812 64.8712 37.8771 64.5071 36.6458 64.5083C34.9979 64.5116 33.4184 65.1676 32.2532 66.3329C31.088 67.4981 30.4319 69.0776 30.4286 70.7254ZM23.8268 89.7725C23.8242 89.9739 23.8616 90.1739 23.9369 90.3607C24.0122 90.5476 24.1238 90.7176 24.2654 90.861C24.4069 91.0044 24.5755 91.1182 24.7613 91.1959C24.9472 91.2736 25.1467 91.3136 25.3481 91.3136C25.5496 91.3136 25.749 91.2736 25.9349 91.1959C26.1208 91.1182 26.2894 91.0044 26.4309 90.861C26.5724 90.7176 26.6841 90.5476 26.7594 90.3607C26.8346 90.1739 26.8721 89.9739 26.8695 89.7725C26.9016 87.2011 27.9456 84.746 29.7753 82.939C31.6049 81.132 34.0729 80.1187 36.6445 80.1187C39.2161 80.1187 41.6841 81.132 43.5137 82.939C45.3434 84.746 46.3874 87.2011 46.4195 89.7725C46.4247 90.1742 46.5879 90.5577 46.8738 90.8399C47.1597 91.1221 47.5452 91.2804 47.947 91.2804C48.3487 91.2804 48.7342 91.1221 49.0201 90.8399C49.306 90.5577 49.4692 90.1742 49.4744 89.7725C49.4705 87.3465 48.78 84.9711 47.4826 82.9212C46.1852 80.8712 44.334 79.2304 42.1431 78.1886C43.7151 77.0315 44.8816 75.4077 45.4762 73.5485C46.0707 71.6894 46.063 69.69 45.4541 67.8355C44.8453 65.981 43.6663 64.3662 42.0854 63.2213C40.5045 62.0764 38.6025 61.46 36.6506 61.46C34.6987 61.46 32.7967 62.0764 31.2158 63.2213C29.6349 64.3662 28.4559 65.981 27.847 67.8355C27.2382 69.69 27.2304 71.6894 27.825 73.5485C28.4196 75.4077 29.5861 77.0315 31.1581 78.1886C28.9656 79.2284 27.113 80.8687 25.8154 82.9191C24.5177 84.9695 23.8281 87.3459 23.8268 89.7725ZM38.1779 121.577C38.1791 121.879 38.0907 122.175 37.9239 122.427C37.7571 122.679 37.5193 122.875 37.2407 122.992C36.9621 123.109 36.6551 123.14 36.3586 123.083C36.0621 123.025 35.7894 122.88 35.575 122.668C35.3605 122.455 35.214 122.183 35.1538 121.887C35.0937 121.591 35.1227 121.284 35.2372 121.005C35.3517 120.725 35.5465 120.486 35.797 120.317C36.0475 120.148 36.3424 120.057 36.6445 120.056H36.6564C37.0597 120.057 37.4464 120.217 37.7316 120.502C38.0168 120.787 38.1773 121.174 38.1779 121.577ZM93.092 37.0157C93.0884 32.8001 91.835 28.6802 89.4902 25.1769C87.1454 21.6735 83.8145 18.9441 79.9187 17.3336C76.0228 15.7231 71.7369 15.3039 67.6029 16.1289C63.4688 16.954 59.6721 18.9863 56.6929 21.9688C53.7137 24.9514 51.6857 28.7503 50.8654 32.8854C50.045 37.0204 50.4691 41.3058 52.084 45.1998C53.6989 49.0938 56.4321 52.4216 59.9381 54.7624C63.4441 57.1033 67.5654 58.352 71.781 58.3508C77.4353 58.3446 82.8559 56.0941 86.8518 52.0936C90.8477 48.0931 93.0922 42.67 93.092 37.0157ZM66.7019 126.955C67.6436 126.953 68.5459 126.577 69.2107 125.91C69.8755 125.242 70.2484 124.339 70.2476 123.397V116.199H3.04395V123.398C3.04436 124.342 3.41937 125.246 4.08654 125.913C4.75371 126.58 5.65844 126.955 6.60183 126.955H66.7019ZM6.60183 3.0437C5.65844 3.04383 4.75371 3.41858 4.08654 4.08557C3.41937 4.75255 3.04436 5.65717 3.04395 6.60056V113.156H70.2476V61.3458C64.0606 60.9569 58.2543 58.225 54.0105 53.7061C49.7667 49.1873 47.4043 43.221 47.4043 37.0218C47.4043 30.8226 49.7667 24.8564 54.0105 20.3375C58.2543 15.8186 64.0606 13.0867 70.2476 12.6979V6.60056C70.2481 5.65899 69.8751 4.75567 69.2103 4.08883C68.5456 3.42199 67.6435 3.04612 66.7019 3.0437H56.8547L55.1299 7.54793C54.8902 8.17078 54.1475 10.0995 52.123 10.0995H21.1685C19.144 10.0995 18.4135 8.16977 18.1619 7.54793L16.436 3.0437H6.60183ZM53.5965 3.0437L52.2908 6.44618C52.2159 6.65905 52.1195 6.86375 52.0032 7.05711H21.2884C21.1781 6.86231 21.0859 6.65781 21.0129 6.44618L19.7072 3.0437H53.5965ZM66.7019 0H6.60183C4.85143 0.000941553 3.17296 0.696618 1.93512 1.93422C0.697278 3.17183 0.0012782 4.85016 0 6.60056V123.398C0.000941884 125.149 0.696794 126.827 1.93467 128.065C3.17255 129.303 4.85121 129.999 6.60183 130H66.7019C68.4523 129.999 70.1306 129.303 71.3681 128.065C72.6057 126.827 73.3013 125.149 73.3022 123.398V61.3458C79.4892 60.9569 85.2955 58.225 89.5393 53.7061C93.7831 49.1873 96.1454 43.221 96.1454 37.0218C96.1454 30.8226 93.7831 24.8564 89.5393 20.3375C85.2955 15.8186 79.4892 13.0867 73.3022 12.6979V6.60056C73.301 4.8504 72.6052 3.17226 71.3677 1.93469C70.1302 0.697111 68.4521 0.00127791 66.7019 0Z" fill="white" fill-opacity="0.8"/>
</svg>
