<svg width="42" height="57" viewBox="0 0 42 57" fill="none" xmlns="http://www.w3.org/2000/svg">
<g clip-path="url(#clip0_1_159)">
<path d="M36.165 40.0052C36.8591 39.3112 37.5584 38.4944 38.0229 37.6829C38.1403 37.5654 38.1403 37.4533 38.1403 37.3359C38.9518 32.9262 37.9108 30.6038 36.165 27.2352C34.0776 24.1014 32.9138 18.9923 32.6842 18.1808L34.1951 4.13484C34.1951 3.67038 33.9655 3.08847 33.501 2.97636C24.9058 -0.269539 16.8979 -0.269539 9.69603 2.9817C9.23157 3.21126 9.00201 3.67572 9.00201 4.14018L10.5128 17.8391C9.93093 21.2078 7.96097 25.6176 7.14416 27.4754C5.28631 31.1911 3.77547 34.4423 5.05675 37.6882C5.52121 38.6172 6.10312 39.4286 6.79714 40.128C3.08145 43.1443 0.876587 47.3245 0.876587 51.7342C0.876587 52.1987 1.10615 52.5457 1.57061 52.7806C18.051 59.2831 36.2771 54.868 41.2688 52.7806C41.7332 52.551 41.9628 52.1987 41.9628 51.7342C42.0803 47.207 39.8754 43.0269 36.1597 40.0105L36.165 40.0052ZM31.75 4.7221L30.474 16.7928H12.7177L11.3243 4.7221C17.5919 2.05277 24.3239 2.05277 31.7553 4.7221H31.75ZM31.1681 22.3663C31.1681 27.5875 26.8758 31.8851 21.5318 31.8851C16.1878 31.8851 12.013 27.5929 12.013 22.3663C12.013 21.2078 12.2426 20.1615 12.5949 19.1151H30.7089C30.9438 20.1615 31.1734 21.3199 31.1734 22.3663H31.1681ZM20.3733 53.8216C13.6413 53.7042 7.49117 52.7752 3.31101 50.9174C3.65802 45.4613 8.06774 40.5871 14.6877 38.4997L20.3733 44.6498V53.8216ZM21.5318 42.445L15.8461 36.407C15.4991 36.0599 15.1521 35.9425 14.6877 36.0599C12.4828 36.6419 10.5075 37.5708 8.76711 38.7293C8.07308 38.1474 7.49117 37.4533 7.14416 36.754C6.21523 34.5491 7.60862 31.8798 9.23157 28.5111C9.57858 27.8171 9.92559 27.0003 10.2779 26.3062C11.9009 30.9509 16.316 34.4317 21.5371 34.4317C26.7583 34.4317 31.5204 30.8334 32.9138 25.9592C33.3783 26.8882 33.7253 27.6996 34.0723 28.399C35.6952 31.6502 36.3946 33.3906 35.8127 36.8714C35.3482 37.5654 34.8838 38.1474 34.1897 38.7293C32.4493 37.6829 30.474 36.754 28.3866 36.1774C27.9222 36.0599 27.4577 36.1774 27.2281 36.5244L21.5425 42.445H21.5318ZM22.6903 53.8216V44.7673L28.3759 38.6172C34.8784 40.7046 39.2881 45.5841 39.7526 51.0348C35.2254 52.6578 29.1874 53.5867 22.6903 53.8216Z" fill="white" fill-opacity="0.8"/>
<path d="M18.9853 10.9896H20.3787V12.383C20.3787 13.077 20.8431 13.5415 21.5371 13.5415C22.2312 13.5415 22.6956 13.077 22.6956 12.383V10.9896H24.089C24.783 10.9896 25.2475 10.5251 25.2475 9.83111C25.2475 9.13708 24.783 8.67262 24.089 8.67262H22.6956V7.16178C22.6956 6.46776 22.2312 6.0033 21.5371 6.0033C20.8431 6.0033 20.3787 6.46776 20.3787 7.16178V8.55517H18.9853C18.2912 8.55517 17.8268 9.01963 17.8268 9.71366C17.8268 10.4077 18.2912 10.9896 18.9853 10.9896Z" fill="white" fill-opacity="0.8"/>
</g>
<defs>
<clipPath id="clip0_1_159">
<rect width="41.0969" height="55.6447" fill="white" transform="translate(0.876587 0.54187)"/>
</clipPath>
</defs>
</svg>
