<svg width="55" height="56" viewBox="0 0 55 56" fill="none" xmlns="http://www.w3.org/2000/svg">
<path d="M46.868 38.2346C51.1816 37.4392 54.4702 33.5847 54.4702 29.0415C54.4702 23.9377 50.274 19.7362 45.1649 19.7362C40.0559 19.7362 36.3135 23.4786 35.8597 28.246H35.6355V14.9741C35.6355 13.159 34.3862 11.5681 32.6832 11.0022V8.84537H33.2491C33.9324 8.84537 34.3862 8.39159 34.3862 7.70824V1.81438C34.3862 1.13103 33.9324 0.677246 33.2491 0.677246H2.38637C1.70303 0.677246 1.24924 1.13103 1.24924 1.81438V7.71358C1.24924 8.39693 1.70303 8.85071 2.38637 8.85071H2.95227V11.0075C2.26892 11.2317 1.70303 11.5734 1.13713 12.1393C0.341673 12.9348 0 13.9545 0 14.9741V51.058C0 53.327 1.81514 55.1421 4.08406 55.1421H31.5514C33.8203 55.1421 35.6355 53.327 35.6355 51.058V45.6126L43.2377 53.2149C44.4869 54.4641 46.0725 55.1421 47.8876 55.1421C49.5907 55.1421 51.2937 54.4588 52.5376 53.2149C55.1482 50.6043 55.1482 46.5202 52.5376 43.9096L46.8626 38.2346H46.868ZM45.1649 22.0105C49.0248 22.0105 52.2013 25.187 52.2013 29.0468C52.2013 30.6377 51.7475 31.9991 50.8399 33.1309L40.9688 23.3718C42.218 22.5764 43.5794 22.0105 45.1649 22.0105ZM39.3778 24.9627L49.249 34.8339C48.1119 35.6294 46.6384 36.1953 45.1649 36.1953C44.9407 36.1953 38.4703 36.0831 38.1286 29.1589C38.1286 27.568 38.5824 26.0945 39.3778 24.9627ZM3.52351 2.94617H32.2294V6.57645H4.0894H3.52351V2.94617ZM2.27426 14.9741C2.27426 14.5204 2.49849 14.0666 2.84016 13.7249C3.18183 13.3832 3.63562 13.159 4.0894 13.159C4.77275 13.159 5.22653 12.7052 5.22653 12.0219V8.84537H30.4143V12.0219C30.4143 12.7052 30.868 13.159 31.5514 13.159C32.5711 13.159 33.3665 13.9545 33.3665 14.9741V22.8059H2.27426V14.9741ZM2.27426 25.0749H33.3665V28.0271C30.7559 28.2513 29.5067 29.618 29.1704 29.9544C27.9211 31.2036 27.2431 32.7892 27.2431 34.6043C27.2431 36.3074 27.9265 38.0104 29.1704 39.2543L30.4196 40.5035H2.27426V25.0749ZM33.3665 51.058C33.3665 52.0777 32.5711 52.8732 31.5514 52.8732H4.0894C3.06972 52.8732 2.27426 52.0777 2.27426 51.058V42.6604H32.6832L33.3665 43.3437V51.058ZM30.7559 37.5566C29.9605 36.7612 29.5067 35.6294 29.5067 34.4922C29.7309 30.6324 32.9127 30.1786 33.8203 30.1786C34.6158 30.1786 35.2938 30.4028 35.9771 30.7445C36.8847 36.0778 41.7642 37.7808 42.1059 37.8929C42.218 37.8929 42.218 38.0051 42.3301 38.0051C42.4422 38.0051 42.5543 38.1172 42.7839 38.1172L37.1089 43.7921L30.7559 37.5513V37.5566ZM50.952 51.6239C49.3611 53.2149 46.5263 53.2149 44.9407 51.6239L38.6998 45.3831L44.7112 39.3717L50.952 45.6126C52.6551 47.2035 52.6551 49.9262 50.952 51.6239Z" fill="white" fill-opacity="0.8"/>
</svg>
