<svg width="46" height="66" viewBox="0 0 46 66" fill="none" xmlns="http://www.w3.org/2000/svg">
<path d="M44.535 8.51734H36.6605V5.26077C36.6605 4.44396 36.1159 3.90475 35.3045 3.90475H29.0582C27.8357 1.59846 25.5294 0.103638 22.9508 0.103638C20.3723 0.103638 18.0606 1.59846 16.8434 3.90475H10.5972C9.7804 3.90475 9.2412 4.44929 9.2412 5.26077V8.51734H1.35602C0.539203 8.51734 0 9.06188 0 9.87336V63.9111C0 64.7279 0.544542 65.2671 1.35602 65.2671H44.4015C45.2183 65.2671 45.7575 64.7226 45.7575 63.9111V9.87336C45.891 9.05655 45.213 8.51734 44.535 8.51734ZM11.9479 6.61678H17.7884C18.3329 6.61678 18.8721 6.21105 19.1444 5.66651C19.6889 4.03822 21.3172 2.94914 23.0843 2.94914C24.8514 2.94914 26.3409 4.03288 27.0242 5.79997C27.1577 6.34451 27.7022 6.75025 28.2468 6.75025H34.0872V13.2687H11.9479V6.61678ZM43.179 62.5551H2.71737V11.2347H9.23586V14.4913C9.23586 15.3081 9.7804 15.8473 10.5919 15.8473H35.3045C36.1213 15.8473 36.6605 15.3028 36.6605 14.4913V11.2347H43.179V62.5551Z" fill="white" fill-opacity="0.8"/>
<path d="M31.4981 25.8945H7.46881C6.652 25.8945 6.11279 26.4391 6.11279 27.2505C6.11279 28.062 6.65733 28.6066 7.46881 28.6066H31.3646C32.1814 28.6066 32.7206 28.062 32.7206 27.2505C32.8541 26.4337 32.1761 25.8945 31.4981 25.8945Z" fill="white" fill-opacity="0.8"/>
<path d="M31.4981 34.6147H7.46881C6.652 34.6147 6.11279 35.1593 6.11279 35.9708C6.11279 36.7822 6.65733 37.3268 7.46881 37.3268H31.3646C32.1814 37.3268 32.7206 36.7822 32.7206 35.9708C32.8541 35.1539 32.1761 34.6147 31.4981 34.6147Z" fill="white" fill-opacity="0.8"/>
<path d="M31.4981 43.7927H7.46881C6.652 43.7927 6.11279 44.3373 6.11279 45.1487C6.11279 45.9602 6.65733 46.5048 7.46881 46.5048H31.3646C32.1814 46.5048 32.7206 45.9602 32.7206 45.1487C32.8541 44.3319 32.1761 43.7927 31.4981 43.7927Z" fill="white" fill-opacity="0.8"/>
<path d="M31.4981 52.9708H7.46881C6.652 52.9708 6.11279 53.5154 6.11279 54.3268C6.11279 55.1383 6.65733 55.6829 7.46881 55.6829H31.3646C32.1814 55.6829 32.7206 55.1383 32.7206 54.3268C32.8541 53.51 32.1761 52.9708 31.4981 52.9708Z" fill="white" fill-opacity="0.8"/>
<path d="M35.71 27.256C35.71 28.0729 36.2545 28.6121 37.066 28.6121H38.6943C39.5111 28.6121 40.0503 28.0675 40.0503 27.256C40.0503 26.4446 39.5057 25.9 38.6943 25.9H37.066C36.2492 25.9 35.71 26.4446 35.71 27.256Z" fill="white" fill-opacity="0.8"/>
<path d="M35.71 35.976C35.71 36.7928 36.2545 37.332 37.066 37.332H38.6943C39.5111 37.332 40.0503 36.7875 40.0503 35.976C40.0503 35.1645 39.5057 34.62 38.6943 34.62H37.066C36.2492 34.62 35.71 35.1645 35.71 35.976Z" fill="white" fill-opacity="0.8"/>
<path d="M35.71 45.154C35.71 45.9708 36.2545 46.51 37.066 46.51H38.6943C39.5111 46.51 40.0503 45.9655 40.0503 45.154C40.0503 44.3425 39.5057 43.798 38.6943 43.798H37.066C36.2492 43.798 35.71 44.3425 35.71 45.154Z" fill="white" fill-opacity="0.8"/>
<path d="M35.71 54.332C35.71 55.1488 36.2545 55.688 37.066 55.688H38.6943C39.5111 55.688 40.0503 55.1434 40.0503 54.332C40.0503 53.5205 39.5057 52.976 38.6943 52.976H37.066C36.2492 52.976 35.71 53.5205 35.71 54.332Z" fill="white" fill-opacity="0.8"/>
</svg>
