<svg width="55" height="31" viewBox="0 0 55 31" fill="none" xmlns="http://www.w3.org/2000/svg">
<path d="M53.7646 14.7713C46.7763 5.66888 37.343 0.677246 27.3544 0.677246C17.3658 0.677246 7.93771 5.66888 0.949419 14.6592C0.618423 15.1023 0.618423 15.6575 0.949419 15.9885C7.93771 25.1976 17.3711 30.1946 27.3597 30.1946C37.3483 30.1946 46.7764 25.203 53.77 16.2127C54.101 15.7696 54.101 15.1023 53.77 14.7713H53.7646ZM27.3544 27.9737C18.3641 27.9737 9.82225 23.5373 3.27707 15.4333C9.82759 7.33454 18.3694 2.89812 27.3544 2.89812C36.3393 2.89812 44.8865 7.33454 51.4316 15.4386C44.8865 23.5373 36.3393 27.9791 27.3544 27.9791V27.9737Z" fill="white" fill-opacity="0.8"/>
<path d="M27.3545 5.22583C21.6955 5.22583 17.147 9.77436 17.147 15.4333C17.147 21.0923 21.6955 25.6408 27.3545 25.6408C33.0134 25.6408 37.562 21.0923 37.562 15.4333C37.562 9.77436 33.0134 5.22583 27.3545 5.22583ZM27.3545 23.4253C22.918 23.4253 19.3679 19.763 19.3679 15.4387C19.3679 11.1144 23.0302 7.45204 27.3545 7.45204C31.6788 7.45204 35.3411 11.1144 35.3411 15.4387C35.3411 19.763 31.7909 23.4253 27.3545 23.4253Z" fill="white" fill-opacity="0.8"/>
<path d="M28.577 10.4417C26.4683 10.4417 24.8026 12.1073 24.8026 14.2161C24.8026 16.3248 26.4683 17.9905 28.577 17.9905C30.6858 17.9905 32.3515 16.3248 32.3515 14.2161C32.3515 12.1073 30.6858 10.4417 28.577 10.4417ZM28.577 15.7696C27.6908 15.7696 27.0235 15.1023 27.0235 14.2161C27.0235 13.3299 27.6908 12.6625 28.577 12.6625C29.4632 12.6625 30.1306 13.3299 30.1306 14.2161C30.1306 15.1023 29.4632 15.7696 28.577 15.7696Z" fill="white" fill-opacity="0.8"/>
</svg>
