<svg width="59" height="54" viewBox="0 0 59 54" fill="none" xmlns="http://www.w3.org/2000/svg">
<g clip-path="url(#clip0_1_162)">
<path d="M58.5508 31.9281C58.5508 29.8674 57.2215 28.0522 55.2836 27.2087C56.0096 26.3599 56.3727 25.2708 56.3727 24.1817C56.3727 21.395 53.9489 19.0993 51.0447 19.0993H37.7248C43.1755 13.5311 42.0811 5.05335 41.9636 4.69033V4.45009C41.6006 2.27192 39.9029 0.819809 37.8476 0.574231C35.6694 0.333992 33.7315 1.66331 33.0054 3.72403C31.6761 7.59989 29.4926 10.0183 27.8002 11.353C25.9851 12.8051 24.533 14.743 23.6841 16.8037L23.5613 16.9265C21.9864 20.4393 19.0822 23.2208 15.4519 24.6729V21.5231C15.4519 20.797 14.9661 20.3112 14.2401 20.3112H1.6462C0.920143 20.3112 0.434326 20.797 0.434326 21.5231V51.6704C0.434326 52.3965 0.920143 52.8823 1.6462 52.8823H14.3575C15.0836 52.8823 15.5694 52.3965 15.5694 51.6704V49.7325C17.3845 49.8553 19.1997 50.4585 20.7746 51.3074C22.3495 52.1562 24.0418 52.7595 25.857 52.9997C29.1242 53.4856 32.0338 53.7258 35.301 53.7258C39.2943 53.7258 43.5332 53.3628 48.984 52.5139C51.8882 52.5139 54.1891 50.213 54.1891 47.4315C54.1891 46.2197 53.8261 45.2534 53.1001 44.4045C55.038 43.6785 56.3673 41.8633 56.3673 39.6852C56.3673 38.4733 56.0043 37.507 55.2782 36.6581C57.2162 35.8093 58.5455 33.9942 58.5455 31.9388L58.5508 31.9281ZM13.1456 50.3304H2.85807V22.6068H13.1456V50.3304ZM53.2229 34.5921H51.0447C50.3186 34.5921 49.8328 35.0779 49.8328 35.804C49.8328 36.53 50.3186 37.0158 51.0447 37.0158C52.6196 37.0158 53.9489 38.2277 53.9489 39.6798C53.9489 41.1319 52.6196 42.3438 51.0447 42.3438H48.8665C48.1405 42.3438 47.6546 42.8296 47.6546 43.5557C47.6546 44.2817 48.1405 44.7675 48.8665 44.7675C50.4414 44.7675 51.7707 45.9794 51.7707 47.4315C51.7707 48.8836 50.4414 50.0955 48.8665 50.0955H48.7437C39.1769 51.5476 33.2456 51.6704 26.3481 50.5813C24.896 50.3411 23.4439 49.8553 21.9918 49.1292C20.0538 48.0401 17.8757 47.4369 15.5747 47.3141V27.2034C20.1766 25.6285 23.9297 22.3612 25.8676 17.8821L25.9904 17.7593C26.7165 16.067 27.9284 14.4921 29.5033 13.2802C31.3184 11.7053 33.8596 9.04132 35.4345 4.43941C35.6747 3.22754 36.7638 2.86451 37.6127 2.86451C38.4615 2.9873 39.4278 3.46778 39.5506 4.67965V4.91989C39.5506 5.04268 40.8799 14.727 33.6193 19.2061C33.1335 19.4463 32.8933 20.055 33.1335 20.5354C33.2563 21.0212 33.7368 21.3843 34.3454 21.3843H51.0554C52.6303 21.3843 53.9596 22.5961 53.9596 24.0483C53.9596 25.5004 52.6303 26.7122 51.0554 26.7122C50.3293 26.7122 49.8435 27.1981 49.8435 27.9241C49.8435 28.6502 50.3293 29.136 51.0554 29.136H53.2335C54.8084 29.136 56.1378 30.3479 56.1378 31.8C56.1378 33.3749 54.8031 34.5814 53.2335 34.5814L53.2229 34.5921Z" fill="white" fill-opacity="0.8"/>
<path d="M7.94051 43.6729C7.21445 43.6729 6.72864 44.1587 6.72864 44.8847V46.9454C6.72864 47.6715 7.21445 48.1573 7.94051 48.1573C8.66657 48.1573 9.15238 47.6715 9.15238 46.9454V44.8847C9.15238 44.1587 8.66657 43.6729 7.94051 43.6729Z" fill="white" fill-opacity="0.8"/>
</g>
<defs>
<clipPath id="clip0_1_162">
<rect width="58.1165" height="53.1782" fill="white" transform="translate(0.434326 0.54187)"/>
</clipPath>
</defs>
</svg>
