<svg width="76" height="86" viewBox="0 0 76 86" fill="none" xmlns="http://www.w3.org/2000/svg">
<path d="M71.9888 67.5155C71.0631 61.9455 67.1649 57.3741 61.8176 55.5885L49.9449 51.6223V49.8541H47.1853V52.4472L45.1259 60.7035L39.553 54.002H35.5003L29.9275 60.7035L27.8696 52.4472V49.8541H25.11V51.6223L13.2373 55.5869C7.88998 57.3725 3.9934 61.9439 3.06617 67.5139L0.0227051 85.8026H75.0306L71.9888 67.5155ZM62.2323 83.0374L60.9771 70.4562L58.2317 70.7311L59.4601 83.0374H38.9065V59.5342H36.1469V83.0389H15.5948L16.8232 70.7327L14.0778 70.4578L12.8226 83.0389H3.28221L5.78794 67.9738C6.54486 63.415 9.73655 59.6764 14.1109 58.2131L25.5121 54.4034L28.5697 66.6575L36.7934 56.7657H38.2599L46.4852 66.6559L49.5428 54.4018L60.944 58.2116C65.3199 59.6732 68.5085 63.4134 69.267 67.9722L71.7727 83.0374H62.2308H62.2323Z" fill="white"/>
<path d="M41.666 67.8285H44.4256V70.5938H41.666V67.8285Z" fill="white"/>
<path d="M41.666 77.5068H44.4256V80.2721H41.666V77.5068Z" fill="white"/>
<path d="M15.4498 37.4105H20.2184C20.9281 39.806 22.2211 42.004 24.0346 43.8212L29.4151 49.2127C30.7176 50.5179 32.4491 51.2368 34.2925 51.2368H40.7594C42.6013 51.2368 44.3343 50.5179 45.6369 49.2127L49.1345 45.7063H51.3232C55.1268 45.7063 58.2223 42.606 58.2223 38.7931V37.4105H59.6021C63.4056 37.4105 66.5011 34.3102 66.5011 30.4973V24.9668C66.5011 21.1554 63.4072 18.0536 59.6021 18.0536H57.9968C56.6327 7.87899 47.8934 0.0793457 37.5267 0.0793457C27.1601 0.0793457 18.4207 7.87899 17.0551 18.0536H15.4498C11.6463 18.0536 8.55078 21.1539 8.55078 24.9668V30.4973C8.55078 34.3086 11.6447 37.4105 15.4498 37.4105ZM19.5892 34.6452H16.8296V20.8189H19.5892V34.6452ZM43.6862 47.258C42.9167 48.0291 41.8507 48.4716 40.7594 48.4716H34.2925C33.2028 48.4716 32.1368 48.0291 31.3657 47.258L25.9852 41.8665C23.6388 39.5153 22.3473 36.3913 22.3473 33.0682V26.351H27.7687C33.8415 26.351 39.5831 24.1893 44.1199 20.2311L44.5425 20.9358C46.3023 23.8765 49.3489 25.8311 52.7062 26.2578V33.0666C52.7062 36.3913 51.4147 39.5153 49.0682 41.8649L47.9959 42.9426H33.3889V45.7079H45.2363L43.6878 47.2596L43.6862 47.258ZM55.4642 20.8189H58.2239V34.6452H55.4642V20.8189ZM55.4642 38.7931C55.4642 40.8947 53.8905 42.6187 51.8641 42.8873C53.236 41.2692 54.2437 39.4125 54.8351 37.4105H55.4642V38.7931ZM63.7431 24.9668V30.4973C63.7431 32.2971 62.5856 33.8188 60.9835 34.3908V21.0749C62.5856 21.6453 63.7431 23.167 63.7431 24.9668ZM37.5267 2.84462C46.3859 2.84462 53.881 9.41648 55.2214 18.0536H52.7046V23.453C50.3187 23.0469 48.1726 21.6216 46.9079 19.5121L44.6986 15.824L43.4481 17.0771C39.2598 21.274 33.6917 23.5857 27.7687 23.5857H22.3473V18.0552H19.8305C21.1709 9.41806 28.6676 2.8462 37.5252 2.8462L37.5267 2.84462ZM11.3104 24.9668C11.3104 23.167 12.4679 21.6453 14.07 21.0733V34.3892C12.4679 33.8172 11.3104 32.2955 11.3104 30.4957V24.9668Z" fill="white"/>
</svg>
