<svg width="51" height="72" viewBox="0 0 51 72" fill="none" xmlns="http://www.w3.org/2000/svg">
<g clip-path="url(#clip0_1_156)">
<path d="M6.67322 21.6028H8.00788V21.9018C8.00788 30.0592 15.5727 39.8503 25.0649 39.8503C34.557 39.8503 42.1218 30.0592 42.1218 21.9018V21.6028H43.4565C43.8996 21.6028 44.1986 21.3039 44.4975 21.0102C44.7965 20.7166 44.7965 20.2682 44.7965 19.9692C43.4618 8.99829 35.0054 0.54187 25.0702 0.54187C15.135 0.54187 6.67322 8.99829 5.48804 19.9745C5.48804 20.4177 5.48804 20.7166 5.787 21.0156C5.93648 21.4587 6.37959 21.6082 6.67856 21.6082L6.67322 21.6028ZM25.0649 37.0262C17.5 37.0262 10.9762 28.7192 10.9762 22.0459V21.6028C12.6098 21.3039 14.0886 21.0102 15.7222 20.4177C19.5767 18.9335 22.844 16.5631 25.0649 13.5949C27.2911 16.4137 30.553 18.9335 34.4075 20.4177C36.0411 21.0102 37.5199 21.4587 39.1535 21.6028V22.0459C39.1535 28.7192 32.6297 37.0262 25.0649 37.0262ZM24.6217 3.50482H25.5133C33.2276 3.6543 39.9009 10.1781 41.5346 18.784C39.6073 18.784 37.5306 18.3409 35.4539 17.5988C31.4499 16.1147 28.0385 13.2959 26.2554 10.1835C25.6628 9.29191 24.1786 9.29191 23.7355 10.1835C21.9578 13.2959 18.5464 16.1147 14.537 17.5988C12.4603 18.3409 10.3836 18.784 8.45632 18.784C10.2341 10.1835 16.9074 3.80378 24.6217 3.50482Z" fill="white" fill-opacity="0.8"/>
<path d="M36.7833 46.0806H13.352C6.08606 46.0806 0 52.0118 0 59.4325V70.2593C0 71.1508 0.59259 71.7434 1.48414 71.7434C2.3757 71.7434 2.96829 71.1508 2.96829 70.2593V59.4325C2.96829 53.7949 7.56486 49.0489 13.352 49.0489H13.6509V54.537C10.8321 55.2791 8.90486 57.6494 8.90486 60.6177C8.90486 64.0291 11.7237 66.8479 15.1351 66.8479C18.5465 66.8479 21.3653 64.0291 21.3653 60.6177C21.3653 57.6494 19.2885 55.1296 16.6192 54.537V49.0489H23.5915V56.4642C23.5915 57.3558 24.1841 57.9484 25.0756 57.9484C25.9672 57.9484 26.5598 57.3558 26.5598 56.4642V49.0489H34.4182V54.3875H31.8984C31.0068 54.3875 30.4143 54.9801 30.4143 55.8716V63.7301C30.4143 64.6217 31.0068 65.2143 31.8984 65.2143C32.79 65.2143 33.3825 64.6217 33.3825 63.7301V57.3504H38.4276V63.7301C38.4276 64.6217 39.0202 65.2143 39.9117 65.2143C40.8033 65.2143 41.3959 64.6217 41.3959 63.7301V55.8716C41.3959 54.9801 40.8033 54.3875 39.9117 54.3875H37.3919V49.1983C42.88 49.4973 47.1829 53.9444 47.1829 59.582V70.2593C47.1829 71.1508 47.7755 71.7434 48.6671 71.7434C49.5586 71.7434 50.1512 71.1508 50.1512 70.2593V59.4325C50.1512 52.0171 44.22 46.0806 36.7993 46.0806H36.7833ZM18.3916 60.6177C18.3916 62.3955 16.9075 63.8796 15.1297 63.8796C13.352 63.8796 11.8678 62.3955 11.8678 60.6177C11.8678 58.8399 13.352 57.3558 15.1297 57.3558C16.9075 57.3558 18.3916 58.8399 18.3916 60.6177Z" fill="white" fill-opacity="0.8"/>
</g>
<defs>
<clipPath id="clip0_1_156">
<rect width="50.1352" height="71.1962" fill="white" transform="translate(0 0.54187)"/>
</clipPath>
</defs>
</svg>
