<svg width="64" height="90" viewBox="0 0 64 90" fill="none" xmlns="http://www.w3.org/2000/svg">
<path d="M9.23944 26.6947H10.9066V27.0682C10.9066 37.2576 20.3559 49.4877 32.2125 49.4877C44.0691 49.4877 53.5184 37.2576 53.5184 27.0682V26.6947H55.1855C55.739 26.6947 56.1124 26.3213 56.4858 25.9545C56.8593 25.5878 56.8593 25.0276 56.8593 24.6542C55.1922 10.9504 44.6292 0.387451 32.2191 0.387451C19.809 0.387451 9.23944 10.9504 7.75903 24.6608C7.75903 25.2143 7.75903 25.5878 8.13247 25.9612C8.31919 26.5147 8.87267 26.7014 9.24611 26.7014L9.23944 26.6947ZM32.2125 45.96C22.7632 45.96 14.6143 35.5838 14.6143 27.2482V26.6947C16.6548 26.3213 18.502 25.9545 20.5426 25.2143C25.3572 23.3605 29.4384 20.3997 32.2125 16.692C34.9932 20.2129 39.0677 23.3605 43.8824 25.2143C45.9229 25.9545 47.7701 26.5147 49.8107 26.6947V27.2482C49.8107 35.5838 41.6617 45.96 32.2125 45.96ZM31.659 4.08847H32.7726C42.4086 4.27519 50.7443 12.4241 52.7848 23.1737C50.3775 23.1737 47.7834 22.6203 45.1894 21.6933C40.188 19.8395 35.9268 16.3185 33.6995 12.4308C32.9593 11.3171 31.1055 11.3171 30.552 12.4308C28.3314 16.3185 24.0702 19.8395 19.0622 21.6933C16.4681 22.6203 13.8741 23.1737 11.4667 23.1737C13.6873 12.4308 22.023 4.46191 31.659 4.08847Z" fill="white"/>
<path d="M46.8496 57.2699H17.5815C8.50567 57.2699 0.903564 64.6786 0.903564 73.9478V87.4716C0.903564 88.5852 1.64377 89.3254 2.75741 89.3254C3.87105 89.3254 4.61126 88.5852 4.61126 87.4716V73.9478C4.61126 66.9059 10.3528 60.9776 17.5815 60.9776H17.9549V67.8328C14.434 68.7597 12.0266 71.7206 12.0266 75.4282C12.0266 79.6894 15.5476 83.2104 19.8088 83.2104C24.07 83.2104 27.5909 79.6894 27.5909 75.4282C27.5909 71.7206 24.9969 68.573 21.6626 67.8328V60.9776H30.3717V70.2401C30.3717 71.3538 31.1119 72.094 32.2256 72.094C33.3392 72.094 34.0794 71.3538 34.0794 70.2401V60.9776H43.8955V67.6461H40.7479C39.6343 67.6461 38.8941 68.3863 38.8941 69.4999V79.316C38.8941 80.4296 39.6343 81.1698 40.7479 81.1698C41.8616 81.1698 42.6018 80.4296 42.6018 79.316V71.3471H48.9035V79.316C48.9035 80.4296 49.6437 81.1698 50.7574 81.1698C51.871 81.1698 52.6112 80.4296 52.6112 79.316V69.4999C52.6112 68.3863 51.871 67.6461 50.7574 67.6461H47.6098V61.1643C54.465 61.5377 59.8399 67.0926 59.8399 74.1346V87.4716C59.8399 88.5852 60.5801 89.3254 61.6937 89.3254C62.8074 89.3254 63.5476 88.5852 63.5476 87.4716V73.9478C63.5476 64.6853 56.1388 57.2699 46.8696 57.2699H46.8496ZM23.8766 75.4282C23.8766 77.6489 22.0227 79.5027 19.8021 79.5027C17.5815 79.5027 15.7277 77.6489 15.7277 75.4282C15.7277 73.2076 17.5815 71.3538 19.8021 71.3538C22.0227 71.3538 23.8766 73.2076 23.8766 75.4282Z" fill="white"/>
</svg>
