<svg width="466" height="422" viewBox="0 0 466 422" fill="none" xmlns="http://www.w3.org/2000/svg">
<rect width="466" height="422" fill="#F5F5F5"/>
<g id="home Regalariza" clip-path="url(#clip0_0_1)">
<rect width="1920" height="812" transform="translate(-1452 -349)" fill="url(#paint0_linear_0_1)"/>
<g id="Group 643">
<g id="logo" style="mix-blend-mode:soft-light" opacity="0.8">
<g id="isotipo 3">
<g id="Capa_1" clip-path="url(#clip1_0_1)">
<path id="Vector" d="M126.214 158.962V106.799H74.4134V56.9908H126.214V3.07495H174.638V56.9908H231.075V106.799H174.638V158.654" fill="#43BAC9"/>
<path id="Vector_2" d="M126.312 176.538V282.543C126.312 314.246 132.068 337.142 143.575 351.219C155.081 365.308 171.649 372.35 193.266 372.35H222.773C220.331 363.924 219.114 354.472 219.114 343.987C219.114 333.501 220.313 324.799 222.644 316.589H201.697C191.864 316.589 184.914 313.944 180.849 308.662C176.772 303.379 174.736 294.677 174.736 282.543V175.573" fill="white"/>
<path id="Vector_3" d="M228.99 381.79C221.42 377.811 215.473 372.122 211.156 364.724C206.826 357.326 204.668 348.624 204.668 338.612C204.668 328.6 206.857 320.07 211.236 312.671C215.614 305.279 221.586 299.591 229.156 295.606C236.721 291.627 245.281 289.628 254.838 289.628C264.395 289.628 272.956 291.62 280.526 295.606C288.09 299.585 294.062 305.279 298.447 312.671C302.826 320.07 305.015 328.716 305.015 338.612C305.015 348.507 302.826 357.19 298.447 364.638C294.062 372.091 288.066 377.805 280.44 381.79C272.82 385.769 264.229 387.761 254.672 387.761C245.115 387.761 236.555 385.769 228.99 381.79ZM266.363 353.543C269.493 350.075 271.055 345.094 271.055 338.612C271.055 332.13 269.487 327.179 266.363 323.766C263.233 320.353 259.395 318.643 254.844 318.643C250.293 318.643 246.48 320.353 243.412 323.766C240.343 327.179 238.799 332.13 238.799 338.612C238.799 345.094 240.275 350.216 243.239 353.63C246.198 357.037 250.004 358.746 254.672 358.746C259.34 358.746 263.233 357.012 266.363 353.543Z" fill="white"/>
<path id="Vector_4" d="M362.061 271.443C357.664 266.935 350.419 266.843 345.869 271.234C341.361 275.631 341.268 282.875 345.659 287.426C376.083 318.637 375.443 368.789 344.239 399.212C341.982 401.408 340.813 404.323 340.776 407.244C340.74 410.172 341.834 413.105 344.036 415.362C348.433 419.87 355.678 419.962 360.228 415.571C400.498 376.36 401.322 311.669 362.061 271.443Z" fill="#45BBC9"/>
<path id="Vector_5" d="M330.764 301.952C326.367 297.444 319.123 297.352 314.572 301.743C310.064 306.14 309.972 313.385 314.363 317.936C327.979 331.859 327.696 354.294 313.729 367.873C311.472 370.068 310.304 372.983 310.267 375.904C310.23 378.832 311.325 381.765 313.526 384.022C317.923 388.53 325.168 388.622 329.676 384.225C352.707 361.858 353.175 324.934 330.764 301.946V301.952Z" fill="#45BBC9"/>
</g>
</g>
</g>
</g>
</g>
<defs>
<linearGradient id="paint0_linear_0_1" x1="1281.5" y1="976" x2="1278.5" y2="-219.5" gradientUnits="userSpaceOnUse">
<stop offset="0.015625" stop-color="#DDDDDD"/>
</linearGradient>
<clipPath id="clip0_0_1">
<rect width="1920" height="812" fill="white" transform="translate(-1452 -349)"/>
</clipPath>
<clipPath id="clip1_0_1">
<rect width="316.564" height="415.731" fill="white" transform="translate(74.4134 3.07495)"/>
</clipPath>
</defs>
</svg>
