<svg width="253" height="70" viewBox="0 0 253 70" fill="none" xmlns="http://www.w3.org/2000/svg">
<g style="mix-blend-mode:multiply" opacity="0.6" clip-path="url(#clip0_1_1411)">
<path d="M35.1152 70C54.5087 70 70.2303 54.33 70.2303 35C70.2303 15.67 54.5087 0 35.1152 0C15.7216 0 0 15.67 0 35C0 54.33 15.7216 70 35.1152 70Z" fill="#4C89DB"/>
<path d="M11.3909 27.5831L16.1541 19.6829C21.0359 16.1484 26.0397 13.6615 31.1724 12.2254C36.3254 10.8062 40.7597 10.1 44.4787 10.1C47.4417 10.1 50.2996 10.7082 53.049 11.9213C55.8391 13.1546 57.9105 14.7124 59.2666 16.5877C60.6226 18.4834 61.3007 20.2168 61.3007 21.7813C61.3007 23.5485 60.5548 25.6672 59.0632 28.1339C57.5342 30.6377 54.4458 33.0875 49.7979 35.4799C45.0924 37.9297 39.241 39.6597 32.2505 40.6734C38.1188 43.9883 42.6582 47.5599 45.8755 51.3884C45.489 52.6758 44.1431 56.2035 41.8378 61.9647C40.3868 60.6942 38.8341 59.3831 37.1899 58.0281C35.5423 56.6765 33.8506 55.3114 32.1047 53.9395C30.3622 52.5676 27.3788 50.253 23.1581 46.9922C18.4899 53.2907 14.8116 56.4366 12.1198 56.4366C10.6078 56.4366 8.95337 55.5074 7.15321 53.6455C6.64807 53.1117 6.0209 52.5879 5.26489 52.0709C5.67171 51.2599 6.34974 50.0469 7.29898 48.4249C8.05499 47.1173 8.65504 46.0224 9.09915 45.1371L17.0287 49.0298C18.5983 47.2997 20.6223 44.833 23.1005 41.6297C25.3481 38.7204 27.7789 35.3515 30.3927 31.5196L38.4104 19.6424L36.2305 19.5883C34.3897 19.5883 32.4844 19.764 30.5079 20.112C28.5315 20.4635 26.4703 20.9669 24.3209 21.6326C19.9646 22.9944 15.6523 24.9745 11.3943 27.5696L11.3909 27.5831ZM45.089 20.7878C41.8175 23.954 36.8984 29.597 30.3317 37.7168C36.5492 37.0714 43.1634 33.0504 50.1742 25.6469C49.2046 23.5485 47.5095 21.9266 45.089 20.7845V20.7878Z" fill="white"/>
<path d="M93.307 36.5172H80.8889V43.309C80.8889 44.7282 80.9906 45.644 81.1974 46.0528C81.4042 46.4617 81.7975 46.6678 82.384 46.6678C83.1129 46.6678 83.5976 46.3941 83.8451 45.8501C84.0892 45.3061 84.2147 44.2518 84.2147 42.6907V38.548H93.3104V40.866C93.3104 42.8056 93.1884 44.2991 92.9409 45.3398C92.6968 46.3806 92.1205 47.4923 91.2187 48.6783C90.3169 49.861 89.1711 50.7497 87.7879 51.341C86.4013 51.9323 84.6655 52.2297 82.5738 52.2297C80.4821 52.2297 78.7599 51.9391 77.2072 51.3545C75.6545 50.7699 74.4476 49.9691 73.5865 48.952C72.7221 47.9349 72.1254 46.8131 71.7932 45.5899C71.4609 44.3667 71.2948 42.5893 71.2948 40.2544V31.0938C71.2948 28.3501 71.6677 26.1841 72.4102 24.596C73.1526 23.0112 74.3731 21.7948 76.0681 20.95C77.7632 20.1052 79.7091 19.6829 81.9094 19.6829C84.6011 19.6829 86.8217 20.1931 88.571 21.2102C90.3203 22.2273 91.5475 23.5755 92.2527 25.2583C92.9578 26.9376 93.3104 29.303 93.3104 32.3475V36.5138L93.307 36.5172ZM83.6892 31.4047V29.1104C83.6892 27.485 83.601 26.4375 83.4281 25.9611C83.2552 25.488 82.8993 25.2515 82.3602 25.2515C81.6958 25.2515 81.2822 25.4542 81.1262 25.8563C80.9669 26.2585 80.8889 27.3431 80.8889 29.1104V31.4047H83.6926H83.6892Z" fill="#090400"/>
<path d="M118.242 20.2572V44.4477C118.242 47.7152 118.167 49.8238 118.014 50.78C117.865 51.7329 117.33 52.7432 116.411 53.811C115.492 54.8754 114.214 55.6898 112.577 56.2473C110.939 56.8082 108.875 57.0887 106.39 57.0887C103.335 57.0887 100.881 56.5717 99.0296 55.5377C97.1786 54.5037 96.2192 52.4729 96.1548 49.4419H105.464C105.464 50.8307 105.969 51.5234 106.983 51.5234C107.712 51.5234 108.193 51.3105 108.431 50.8848C108.668 50.459 108.786 49.567 108.786 48.2086V45.8399C107.963 46.5833 107.098 47.1442 106.186 47.526C105.274 47.9045 104.322 48.0971 103.325 48.0971C101.599 48.0971 100.179 47.749 99.0635 47.0563C97.9482 46.3636 97.182 45.4513 96.7718 44.3227C96.3616 43.1941 96.1548 41.5891 96.1548 39.5076V28.1C96.1548 25.1163 96.6938 22.9706 97.7685 21.6629C98.8432 20.3519 100.484 19.6997 102.684 19.6997C103.888 19.6997 104.983 19.9464 105.973 20.4363C106.963 20.9263 107.844 21.6629 108.62 22.6428L109.309 20.2708H118.238L118.242 20.2572ZM108.624 28.5899C108.624 27.1538 108.542 26.2381 108.376 25.8428C108.21 25.4474 107.841 25.2515 107.271 25.2515C106.702 25.2515 106.325 25.4779 106.095 25.9273C105.864 26.3767 105.749 27.2654 105.749 28.5899V39.146C105.749 40.5517 105.837 41.4607 106.01 41.8797C106.183 42.2987 106.549 42.5082 107.102 42.5082C107.736 42.5082 108.146 42.2547 108.336 41.7513C108.525 41.2478 108.62 40.1023 108.62 38.3182V28.5899H108.624Z" fill="#090400"/>
<path d="M133.867 39.5008H142.868V41.606C142.868 44.0355 142.586 45.9109 142.023 47.2287C141.461 48.5465 140.335 49.7089 138.64 50.7192C136.945 51.7295 134.745 52.233 132.039 52.233C128.795 52.233 126.347 51.662 124.703 50.5165C123.056 49.371 122.066 47.9687 121.733 46.3028C121.401 44.637 121.235 41.2106 121.235 36.0204V20.2573H130.568V23.0551C131.155 21.9333 131.911 21.0919 132.836 20.531C133.762 19.97 134.867 19.6896 136.148 19.6896C137.826 19.6896 139.366 20.1593 140.766 21.0986C142.166 22.038 142.868 24.0925 142.868 27.2654V29.8469C142.868 32.1987 142.495 33.8004 141.752 34.6519C141.01 35.5034 139.166 36.4969 136.22 37.6356C133.07 38.8656 131.382 39.6934 131.161 40.1192C130.941 40.545 130.829 41.4134 130.829 42.7244C130.829 44.3666 130.951 45.4344 131.199 45.9311C131.443 46.4278 131.853 46.6779 132.423 46.6779C133.073 46.6779 133.477 46.4684 133.633 46.0494C133.792 45.6304 133.87 44.5457 133.87 42.7954V39.5042L133.867 39.5008ZM130.826 35.1926C132.362 34.0707 133.253 33.1347 133.497 32.3778C133.741 31.6209 133.867 30.5329 133.867 29.1103C133.867 27.485 133.758 26.4341 133.545 25.9611C133.331 25.488 132.907 25.2515 132.273 25.2515C131.639 25.2515 131.28 25.4373 131.097 25.809C130.914 26.1807 130.822 27.1539 130.822 28.7319V35.1926H130.826Z" fill="#090400"/>
<path d="M156.045 13.3472V51.6654H146.166V13.3472H156.045Z" fill="#090400"/>
<path d="M168.06 32.4252H159.059V30.32C159.059 27.8905 159.34 26.0152 159.903 24.6973C160.466 23.3795 161.591 22.2171 163.286 21.2068C164.982 20.1965 167.182 19.693 169.887 19.693C173.131 19.693 175.579 20.264 177.223 21.4095C178.871 22.555 179.861 23.9573 180.193 25.6232C180.525 27.2891 180.691 30.7154 180.691 35.9056V51.6688H171.358V48.8709C170.772 49.9928 170.016 50.8341 169.09 51.3951C168.165 51.956 167.06 52.2364 165.778 52.2364C164.1 52.2364 162.561 51.7668 161.161 50.8274C159.761 49.888 159.059 47.8336 159.059 44.6606V42.0791C159.059 39.7273 159.432 38.1256 160.174 37.2741C160.917 36.4226 162.761 35.4291 165.707 34.2904C168.856 33.0604 170.545 32.2326 170.765 31.8068C170.986 31.3811 171.097 30.5126 171.097 29.2016C171.097 27.5594 170.975 26.4916 170.728 25.9949C170.484 25.4982 170.074 25.2481 169.504 25.2481C168.853 25.2481 168.45 25.4576 168.294 25.8766C168.134 26.2956 168.056 27.3803 168.056 29.1306V32.4218L168.06 32.4252ZM171.101 36.7334C169.565 37.8553 168.673 38.7913 168.429 39.5482C168.185 40.3051 168.06 41.3931 168.06 42.8157C168.06 44.441 168.168 45.4919 168.382 45.965C168.595 46.438 169.019 46.6746 169.653 46.6746C170.287 46.6746 170.646 46.4887 170.83 46.117C171.013 45.7453 171.104 44.7722 171.104 43.1942V36.7334H171.101Z" fill="#090400"/>
<path d="M193.588 20.2573L193.208 24.3864C194.601 21.4298 196.618 19.8619 199.263 19.6896V30.7424C197.507 30.7424 196.215 30.9789 195.391 31.452C194.567 31.925 194.062 32.584 193.872 33.4287C193.683 34.2735 193.588 36.2164 193.588 39.2643V51.6653H183.994V20.2573H193.588Z" fill="#090400"/>
<path d="M211.277 13.3472V18.3414H201.399V13.3472H211.277ZM211.277 20.2573V51.6654H201.399V20.2573H211.277Z" fill="#090400"/>
<path d="M229.659 20.2573V27.2147L222.584 45.3669H229.659V51.662H213.298V45.0831L220.522 26.5525H214.034V20.2573H229.659Z" fill="#090400"/>
<path d="M240.368 32.4252H231.367V30.32C231.367 27.8905 231.649 26.0152 232.212 24.6973C232.774 23.3795 233.9 22.2171 235.595 21.2068C237.29 20.1965 239.49 19.693 242.196 19.693C245.44 19.693 247.888 20.264 249.532 21.4095C251.179 22.555 252.169 23.9573 252.502 25.6232C252.834 27.2891 253 30.7154 253 35.9056V51.6688H243.667V48.8709C243.08 49.9928 242.324 50.8341 241.399 51.3951C240.473 51.956 239.368 52.2364 238.087 52.2364C236.409 52.2364 234.869 51.7668 233.469 50.8274C232.069 49.888 231.367 47.8336 231.367 44.6606V42.0791C231.367 39.7273 231.74 38.1256 232.483 37.2741C233.225 36.4226 235.069 35.4291 238.016 34.2904C241.165 33.0604 242.853 32.2326 243.074 31.8068C243.294 31.3811 243.406 30.5126 243.406 29.2016C243.406 27.5594 243.284 26.4916 243.036 25.9949C242.792 25.4982 242.382 25.2481 241.812 25.2481C241.162 25.2481 240.758 25.4576 240.602 25.8766C240.443 26.2956 240.365 27.3803 240.365 29.1306V32.4218L240.368 32.4252ZM243.409 36.7334C241.874 37.8553 240.982 38.7913 240.738 39.5482C240.494 40.3051 240.368 41.3931 240.368 42.8157C240.368 44.441 240.477 45.4919 240.69 45.965C240.904 46.438 241.328 46.6746 241.962 46.6746C242.596 46.6746 242.955 46.4887 243.138 46.117C243.321 45.7453 243.413 44.7722 243.413 43.1942V36.7334H243.409Z" fill="#090400"/>
</g>
<defs>
<clipPath id="clip0_1_1411">
<rect width="253" height="70" fill="white"/>
</clipPath>
</defs>
</svg>
