<svg id="Layer_1" xmlns="http://www.w3.org/2000/svg" viewBox="0 0 150 50">
    <style>.st0{fill:#0af}.st2{fill:#022a3b}</style>
    <path class="st0" d="M22.1 29.9c-.9 0-1.8-.4-2.4-1.2l-3-3.9c-1-1.3-.8-3.3.6-4.3.5-.4 1.2-.6 1.9-.6 1 0 1.9.4 2.4 1.2l3 3.9c1 1.3.7 3.3-.6 4.3-.6.3-1.2.6-1.9.6m-3-8.5c-.3 0-.6.1-.9.3-.6.5-.7 1.4-.3 2l3 3.9c.5.6 1.4.7 2 .2s.8-1.4.3-2l-3-3.9c-.2-.2-.6-.5-1.1-.5"/><path class="st0" d="M18.9 27c-.2 0-.5-.1-.7-.3-.3-.4-.2-.9.2-1.1l3.5-2.7c.4-.3.9-.2 1.1.2.3.4.2.9-.2 1.1l-3.5 2.7c-.1 0-.2.1-.4.1"/><path class="st0" d="M6.7 35.2H3.8c-.8 0-1.5-.3-2-.8-1-1-.9-2.6-.9-3.9v-1.2c0-1.1 0-2.1.4-3.2.7-1.8 1.8-2.7 3.9-3.1 1.2-.2 2.2-.6 2.6-1.2.4-.5.7-1 1-1.6.4-.8.8-1.6 1.5-2.3 1.2-1.1 2.8-1.1 4-1.1h18.9c2 .1 3.3 1.6 3.3 3.7v9.4c0 .5-.3.8-.8.8s-.8-.4-.8-.8v-9.4c0-.6-.2-2-1.7-2-2-.1-4.1 0-6 0H14.3c-1.1 0-2.2 0-2.9.6-.5.5-.8 1.2-1.2 1.9-.3.7-.7 1.4-1.2 2-.9 1-2.4 1.5-3.6 1.7-1.5.3-2.1.8-2.6 2-.3.8-.3 1.7-.3 2.7v1.3c0 1-.1 2.2.4 2.7.1.1.3.3.8.3h2.9c.5 0 .8.4.8.8.1.3-.2.7-.7.7"/><path class="st0" d="M29.1 37c-2.2 0-4.1-1.8-4.1-4.1 0-2.2 1.8-4.1 4.1-4.1 2.2 0 4.1 1.8 4.1 4.1-.1 2.3-1.9 4.1-4.1 4.1m0-6.5c-1.3 0-2.4 1.1-2.4 2.4 0 1.3 1.1 2.4 2.4 2.4s2.4-1.1 2.4-2.4-1.1-2.4-2.4-2.4M13.5 37c-2.2 0-4.1-1.8-4.1-4.1 0-2.2 1.8-4.1 4.1-4.1 2.2 0 4.1 1.8 4.1 4.1S15.8 37 13.5 37m0-6.5c-1.3 0-2.4 1.1-2.4 2.4 0 1.3 1.1 2.4 2.4 2.4s2.4-1.1 2.4-2.4-1-2.4-2.4-2.4m32-8.9h-5.3c-.5 0-.8-.3-.8-.8s.4-.8.8-.8h5.3c.5 0 .8.3.8.8s-.3.8-.8.8m-1.6 3.8h-3.7c-.5 0-.8-.4-.8-.8 0-.5.4-.8.8-.8h3.7c.5 0 .8.4.8.8s-.4.8-.8.8m-.8 3.2h-2.9c-.5 0-.8-.4-.8-.8s.4-.8.8-.8h2.9c.5 0 .8.4.8.8s-.4.8-.8.8M23 35.2h-3.3c-.5 0-.8-.4-.8-.8 0-.5.4-.8.8-.8H23c.5 0 .8.4.8.8.1.4-.3.8-.8.8"/><g><path class="st2" d="M65.9 37h-6.6l-8.4-20.3h6.8l4.9 12.5 4.8-12.5h6.8L65.9 37zM84.2 10.8c0 2.1-1.6 3.6-3.8 3.6-2.2 0-3.7-1.5-3.7-3.6 0-2 1.5-3.7 3.7-3.7s3.8 1.7 3.8 3.7zm-7 26.2V16.8h6.5V37h-6.5zM103.7 36.1c-1.6.8-3.2 1.5-5.5 1.5-5 0-8.1-2.7-8.1-8.1v-7.7h-3.7v-5.1h3.7V10h6.5v6.8h6v5.1h-6v7c0 2.1 1 2.9 2.7 2.9.9 0 2.1-.3 2.9-.8l1.5 5.1zM125 24.2V37h-6.2v-1.5c-1.4 1.2-3.4 2.1-6.1 2.1-4.5 0-7.6-2.6-7.6-6.6 0-4 3-6.5 8.4-6.5h5.2v-.4c0-1.7-1.2-2.8-2.9-2.8-1.9 0-3.1.8-3.4 2.5l-6.1-1.3c.9-3.9 4.4-6.4 9.3-6.4 5.8.1 9.4 2.9 9.4 8.1zm-6.2 4.8v-.4h-4.4c-1.6 0-2.6.8-2.6 2.1s1.1 2.1 2.8 2.1c2.1 0 4.2-1.5 4.2-3.8zM149.1 37h-6.5v-1.9c-1.5 1.6-3.7 2.5-6.2 2.5-4.7 0-7.9-3.4-7.9-8.4V16.8h6.4v11.1c0 2.4 1.4 4 3.5 4 2.5 0 4.2-1.7 4.2-5.7v-9.4h6.5V37z"/></g></svg>
