<svg width="40" height="35" viewBox="0 0 40 35" fill="none" xmlns="http://www.w3.org/2000/svg">
<path d="M33.5591 7.50708C33.5471 7.23364 33.5404 6.95896 33.5338 6.69228C33.5289 6.4895 33.5241 6.29134 33.5171 6.10188C33.4967 5.54897 33.4578 5.03153 33.353 4.53807C33.0597 3.18598 32.4102 2.1953 31.5394 1.5373C30.6646 0.876268 29.5338 0.526631 28.244 0.519318C22.91 0.493727 17.5768 0.499103 12.2418 0.504481C10.0183 0.506722 7.79453 0.508963 5.57025 0.508963C2.89242 0.508963 0.449354 2.52056 0.500807 5.54371C0.567567 9.29029 0.551099 13.0415 0.534665 16.7848C0.529391 17.9862 0.52412 19.1868 0.521605 20.3861L0.521603 20.3874C0.516773 21.4158 0.727802 22.3305 1.27525 23.1749L1.27528 23.175C2.21817 24.6296 3.53078 25.3789 5.25466 25.4549C5.5812 25.468 5.89495 25.4638 6.23237 25.4593C6.41236 25.4569 6.59909 25.4544 6.7981 25.4544H7.2981V25.9544V26.6383C7.2981 27.2984 7.29894 27.9594 7.29979 28.621C7.3019 30.2777 7.30402 31.9378 7.29291 33.5943L7.29289 33.5961C7.28869 34.0036 7.41906 34.1945 7.58491 34.2726C7.66745 34.3109 7.73525 34.3092 7.82234 34.2719C7.92782 34.2266 8.054 34.1284 8.19046 33.9744L8.19825 33.9656L8.19836 33.9657C8.25157 33.9083 8.31817 33.8432 8.37177 33.7908C8.3935 33.7696 8.41309 33.7504 8.42879 33.7347C9.20177 32.9618 9.97536 32.1896 10.7489 31.4175C12.5531 29.6165 14.3569 27.816 16.151 26.0074C16.323 25.8323 16.5134 25.6865 16.7423 25.5879C16.9724 25.4887 17.2134 25.4492 17.4706 25.4492H17.4726C21.259 25.4648 25.0489 25.47 28.833 25.4389M33.5591 7.50708L28.8372 25.9389M33.5591 7.50708L32.1357 8.29571H34.0699H34.075H34.6074L34.5937 8.07701L33.5591 7.50708ZM28.833 25.4389C28.8331 25.4389 28.8331 25.4389 28.8331 25.4389L28.8372 25.9389M28.833 25.4389C28.8329 25.4389 28.8327 25.4389 28.8325 25.4389L28.8372 25.9389M28.833 25.4389C29.3025 25.4344 29.8129 25.3088 30.2762 25.115L30.2772 25.1146C31.4509 24.6263 32.2402 23.923 32.746 23.059C33.2557 22.1881 33.498 21.1186 33.5129 19.8719M28.8372 25.9389C29.3864 25.9337 29.9615 25.7886 30.4692 25.5762C32.9974 24.5245 33.9818 22.4885 34.0129 19.8773M33.5129 19.8719C33.5129 19.8721 33.5129 19.8723 33.5129 19.8724L34.0129 19.8773M33.5129 19.8719C33.5163 19.5242 33.5152 19.1769 33.514 18.8205C33.5135 18.6385 33.5129 18.4541 33.5129 18.2661V17.7277L34.0498 17.7675C34.0765 17.7695 34.0923 17.769 34.1221 17.7682C34.138 17.7677 34.158 17.7672 34.1858 17.7668C34.2169 17.7664 34.2704 17.7663 34.3294 17.7746C34.3912 17.7833 34.4767 17.8033 34.5653 17.8549L34.5662 17.8555C35.0069 18.1138 35.442 18.3734 35.8751 18.6317C36.7844 19.1742 37.6848 19.7113 38.6095 20.2208L34.0129 19.8773M33.5129 19.8719C33.5129 19.8718 33.5129 19.8716 33.5129 19.8714L34.0129 19.8773M34.0129 18.2661H34.3254H34.3255H34.5129C34.5129 18.3121 34.5129 18.3581 34.513 18.4042C34.4465 18.365 34.3799 18.3259 34.3134 18.2868C34.2748 18.2643 34.2222 18.2658 34.1545 18.2676C34.113 18.2688 34.0659 18.27 34.0129 18.2661ZM34.0129 18.2661L33.9759 18.7647C33.989 18.7657 34.0016 18.7665 34.0139 18.767C34.0133 18.6013 34.0129 18.4345 34.0129 18.2661ZM20.6127 5.6912L20.6128 5.69325C20.6197 6.51087 20.6174 7.32855 20.6151 8.14368C20.6139 8.54996 20.6128 8.95562 20.6128 9.36031V9.3615V9.36268V9.36387V9.36505V9.36623V9.36742V9.3686V9.36979V9.37097V9.37215V9.37334V9.37452V9.37571V9.37689V9.37807V9.37926V9.38044V9.38163V9.38281V9.384V9.38518V9.38637V9.38755V9.38874V9.38992V9.3911V9.39229V9.39348V9.39466V9.39585V9.39703V9.39822V9.3994V9.40059V9.40177V9.40296V9.40415V9.40533V9.40652V9.4077V9.40889V9.41008V9.41126V9.41245V9.41364V9.41483V9.41601V9.4172V9.41839V9.41958V9.42076V9.42195V9.42314V9.42433V9.42552V9.42671V9.4279V9.42909V9.43027V9.43147V9.43265V9.43384V9.43503V9.43622V9.43742V9.43861V9.4398V9.44099V9.44218V9.44337V9.44456V9.44576V9.44695V9.44814V9.44933V9.45053V9.45172V9.45291V9.45411V9.4553V9.4565V9.45769V9.45889V9.46008V9.46128V9.46247V9.46367V9.46487V9.46606V9.46726V9.46846V9.46965V9.47085V9.47205V9.47325V9.47445V9.47565V9.47684V9.47804V9.47924V9.48044V9.48164V9.48285V9.48405V9.48525V9.48645V9.48765V9.48886V9.49006V9.49126V9.49247V9.49367V9.49487V9.49608V9.49728V9.49849V9.4997V9.5009V9.50211V9.50332V9.50452V9.50573V9.50694V9.50815V9.50936V9.51057V9.51178V9.51299V9.5142V9.51541V9.51662V9.51783V9.51904V9.52026V9.52147V9.52268V9.5239V9.52511V9.52633V9.52754V9.52876V9.52997V9.53119V9.53241V9.53363V9.53484V9.53606V9.53728V9.5385V9.53972V9.54094V9.54216V9.54339V9.54461V9.54583V9.54705V9.54828V9.5495V9.55073V9.55195V9.55318V9.5544V9.55563V9.55686V9.55808V9.55931V9.56054V9.56177V9.563V9.56423V9.56546V9.56669V9.56793V9.56916V9.57039V9.57163V9.57286V9.5741V9.57533V9.57657V9.5778V9.57904V9.58028V9.58152V9.58276V9.584V9.58524V9.58648V9.58772V9.58896V9.5902V9.59145V9.59269V9.59394V9.59518V9.59643V9.59767V9.59892V9.60017V9.60142V9.60267V9.60392V9.60517V9.60642V9.60767V9.60892V9.61017V9.61143V9.61268V9.61394V9.61519V9.61645V9.61771V9.61896V9.62022V9.62148V9.62274V9.624V9.62526V9.62652V9.62779V9.62905V9.63032V9.63158V9.63285V9.63411V9.63538V9.63665V9.63792V9.63918V9.64046V9.64173V9.643V9.64427V9.64554V9.64682V9.64809V9.64937V9.65064V9.65192V9.6532V9.65448V9.65576V9.65703V9.65832V9.6596V9.66088V9.66216V9.66345V9.66473V9.66602V9.6673V9.66859V9.66988V9.67117V9.67246V9.67375V9.67504V9.67633V9.67762V9.67892V9.68021V9.68151V9.68281V9.6841V9.6854V9.6867V9.688V9.6893V9.6906V9.69191V9.69321V9.69451V9.69582V9.69712V9.69843V9.69974V9.70105V9.70236V9.70367V9.70498V9.70629V9.7076V9.70892V9.71023V9.71155V9.71287V9.71418V9.7155V9.71682V9.71814V9.71947V9.72079V9.72211V9.72344V9.72476V9.72609V9.72742V9.72874V9.73007V9.7314V9.73273V9.73407V9.7354V9.73673V9.73807V9.73941V9.74074V9.74208V9.74342V9.74476V9.7461V9.74744V9.74879V9.75013V9.75148V9.75282V9.75417V9.75552V9.75687V9.75822V9.75957V9.76092V9.76228V9.76363V9.76499V9.76634V9.7677V9.76906V9.77042V9.77178V9.77314V9.77451V9.77587V9.77724V9.7786V9.77997V9.78134V9.78271V9.78408V9.78545V9.78682V9.7882V9.78957V9.79095V9.79233V9.7937V9.79508V9.79646V9.79785V9.79923V9.80061V9.802V9.80339V9.80477V9.80616V9.80755V9.80894V9.81034V9.81173V9.81312V9.81452V9.81592V9.81732V9.81871V9.82011V9.82152V9.82292V9.82432V9.82573V9.82713V9.82854V9.82995V9.83136V9.83277V9.83418V9.8356V9.83701V9.83843V9.83985V9.84127V9.84269V9.84411V9.84553V9.84695V9.84838V9.8498V9.85123V9.85266V9.85409V9.85552V9.85695V9.85839V9.85982V9.86126V9.86269V9.86413V9.86557V9.86701V9.86846V9.8699V9.87135V9.87279V9.87424V9.87569V9.87714V9.87859V9.88005V9.8815V9.88296V9.88441V9.88587V9.88733V9.88879V9.89025V9.89172V9.89318V9.89465V9.89612V9.89759V9.89906V9.90053V9.902V9.90348V9.90495V9.90643V9.90791V9.90939V9.91087V9.91235V9.91384V9.91532V9.91681V9.9183V9.91979V9.92128V9.92277V9.92427V9.92576V9.92726V9.92876V9.93026V9.93176V9.93326V9.93477V9.93627V9.93778V9.93929V9.9408V9.94231V9.94382V9.94534V9.94685V9.94837V9.94989V9.95141V9.95293V9.95446V9.95598V9.95751V9.95903V9.96056V9.96209V9.96363V9.96516V9.96669V9.96823V9.96977V9.97131V9.97285V9.97439V9.97594V9.97748V9.97903V9.98058V9.98213V9.98368V9.98524V9.98679V9.98835V9.98991V9.99147V9.99303V9.99459V9.99615V9.99772V9.99929V10.0009V10.0024V10.004V10.0056V10.0071V10.0087V10.0103V10.0119V10.0135V10.0151V10.0166V10.0182V10.0198V10.0214V10.023V10.0235L20.6127 5.6912ZM20.6127 5.6912C20.6062 5.17535 20.4389 4.70254 20.1082 4.35152C19.7755 3.99823 19.3134 3.80705 18.7942 3.79365L18.7931 3.79363C17.6869 3.76754 16.5807 3.76754 15.4796 3.79362L15.4774 3.79369C15.0006 3.80712 14.5739 3.97195 14.2582 4.29061C13.9451 4.60651 13.7818 5.03229 13.7493 5.49682L14.2481 5.5317M20.6127 5.6912L20.6128 16.3989V16.4042V16.4124V16.4205V16.4286V16.4367V16.4448V16.4529V16.4611V16.4692V16.4773V16.4854V16.4935V16.5016V16.5097V16.5178V16.5259V16.534V16.5421V16.5502V16.5583V16.5664V16.5745V16.5826V16.5907V16.5988V16.6069V16.615V16.6231V16.6311V16.6392V16.6473V16.6554V16.6635V16.6716V16.6797V16.6877V16.6958V16.7039V16.712V16.7201V16.7281V16.7362V16.7443V16.7523V16.7604V16.7685V16.7766V16.7846V16.7927V16.8008V16.8088V16.8169V16.825V16.833V16.8411V16.8491V16.8572V16.8653V16.8733V16.8814V16.8894V16.8975V16.9055V16.9136V16.9216V16.9297V16.9377V16.9458V16.9538V16.9619V16.9699V16.978V16.986V16.994V17.0021V17.0101V17.0182V17.0262V17.0342V17.0423V17.0503V17.0583V17.0664V17.0744V17.0824V17.0905V17.0985V17.1065V17.1145V17.1226V17.1306V17.1386V17.1466V17.1547V17.1627V17.1707V17.1787V17.1867V17.1948V17.2028V17.2108V17.2188V17.2268V17.2348V17.2429V17.2509V17.2589V17.2669V17.2749V17.2829V17.2909V17.2989V17.3069V17.3149V17.3229V17.3309V17.3389V17.3469V17.3549V17.3629V17.3709V17.3789V17.3869V17.3949V17.4029V17.4109V17.4189V17.4269V17.4349V17.4429V17.4508V17.4588V17.4668V17.4748V17.4828V17.4908V17.4988V17.5067V17.5147V17.5227V17.5307V17.5387V17.5466V17.5546V17.5626V17.5706V17.5786V17.5865V17.5945V17.6025V17.6104V17.6184V17.6264V17.6344V17.6423V17.6503V17.6583V17.6662V17.6742V17.6822V17.6901V17.6981V17.7061V17.714V17.722V17.7299V17.7379V17.7459V17.7538V17.7618V17.7697V17.7777V17.7856V17.7936V17.8015V17.8095V17.8174V17.8254V17.8333V17.8413V17.8492V17.8572V17.8651V17.8731V17.881V17.889V17.8969V17.9049V17.9128V17.9207V17.9287V17.9366V17.9446V17.9525V17.9604V17.9684V17.9763V17.9843V17.9922V18.0001V18.0081V18.016V18.0239V18.0319V18.0398V18.0477V18.0557V18.0636V18.0715V18.0794V18.0874V18.0953V18.1032V18.1111V18.1191V18.127V18.1349V18.1428V18.1508V18.1587V18.1666V18.1745V18.1824V18.1904V18.1983V18.2062V18.2141V18.222V18.23V18.2379V18.2458V18.2537V18.2616V18.2695V18.2774V18.2853V18.2933V18.3012V18.3091V18.317V18.3249V18.3328V18.3407V18.3486V18.3565V18.3644V18.3723V18.3802V18.3881V18.396V18.4039V18.4118V18.4197V18.4276V18.4355V18.4434V18.4513V18.4592V18.4671V18.475V18.4829V18.4908V18.4987V18.5066V18.5145V18.5224V18.5303V18.5382V18.5461V18.554V18.5619V18.5698V18.5776V18.5855V18.5934V18.6013V18.6092V18.6171V18.625V18.6329V18.6407V18.6486V18.6565V18.6644V18.6723V18.6802V18.6881V18.6959V18.7038V18.7117V18.7196V18.7275V18.7353V18.7432V18.7511V18.759V18.7669V18.7747V18.7826V18.7905V18.7984V18.8062V18.8141V18.822V18.8299V18.8377V18.8456V18.8535V18.8613V18.8692V18.8771V18.885V18.8928V18.9007V18.9086V18.9164V18.9243V18.9322V18.94V18.9479V18.9558V18.9636V18.9715V18.9794V18.9872V18.9951V19.003V19.0108V19.0187V19.0266V19.0344V19.0423V19.0502V19.058V19.0659V19.0737V19.0816V19.0895V19.0973V19.1052V19.113V19.1209V19.1288V19.1366V19.1445V19.1523V19.1602V19.168V19.1759V19.1838V19.1916V19.1995V19.2073V19.2152V19.223V19.2309V19.2387V19.2466V19.2544V19.2623V19.2701V19.278V19.2859V19.2937V19.3016V19.3094V19.3173V19.3251V19.333V19.3408V19.3487V19.3565V19.3643V19.3722V19.38V19.3879V19.3957V19.4036V19.4114V19.4193V19.4271V19.435V19.4428V19.4507V19.4585V19.4664V19.4742V19.482V19.4899V19.4977V19.5056V19.5134V19.5213V19.5291V19.5369V19.5448V19.5526V19.5605V19.5683V19.5761V19.584V19.5918V19.5997V19.6075V19.6154V19.6232V19.631V19.6389V19.6467V19.6545V19.6624V19.6702V19.6781V19.6859V19.6937V19.7016V19.7094V19.7173V19.7251V19.7329V19.7408V19.7486V19.7564V19.7643V19.7721V19.7799V19.7878V19.7956V19.8034V19.8113V19.8191V19.827V19.8348V19.8426V19.8505V19.8583V19.8661V19.874V19.8818V19.8896V19.8975V19.9053V19.9131V19.921V19.9288V19.9366V19.9445V19.9523V19.9601V19.968V19.9758C20.6128 20.6142 20.4778 21.1886 20.0768 21.5963C19.6749 22.005 19.1048 22.146 18.4695 22.1492C17.5439 22.1595 16.6035 22.17 15.6617 22.1491L15.6599 22.149C15.0975 22.1344 14.5848 21.9988 14.2209 21.6237C13.8579 21.2497 13.7355 20.7328 13.7326 20.17L13.7326 20.1693C13.7291 19.2399 13.7302 18.3072 13.7314 17.3584C13.7318 17.0424 13.7322 16.7245 13.7324 16.4044C13.4892 16.4051 13.2472 16.4061 13.006 16.4071C11.9986 16.4113 11.0071 16.4155 10.0163 16.3932C9.58242 16.3864 9.14453 16.2591 8.78008 16.0858L8.77753 16.0846C8.0429 15.7303 7.98725 14.9645 7.98704 14.5281C7.98618 14.4386 7.98528 14.349 7.98438 14.2593C7.9745 13.2738 7.96447 12.2744 8.00296 11.2786C8.02221 10.7629 8.18986 10.303 8.55354 9.97823C8.91121 9.65878 9.38737 9.53382 9.89622 9.53382H9.90454H9.91286H9.92117H9.92949H9.93781H9.94613H9.95445H9.96276H9.97108H9.9794H9.98772H9.99604H10.0044H10.0127H10.021H10.0293H10.0376H10.046H10.0543H10.0626H10.0709H10.0792H10.0876H10.0959H10.1042H10.1125H10.1208H10.1292H10.1375H10.1458H10.1541H10.1625H10.1708H10.1791H10.1874H10.1958H10.2041H10.2124H10.2207H10.2291H10.2374H10.2457H10.254H10.2624H10.2707H10.279H10.2873H10.2957H10.304H10.3123H10.3206H10.329H10.3373H10.3456H10.354H10.3623H10.3706H10.3789H10.3873H10.3956H10.4039H10.4123H10.4206H10.4289H10.4373H10.4456H10.4539H10.4622H10.4706H10.4789H10.4872H10.4956H10.5039H10.5123H10.5206H10.5289H10.5373H10.5456H10.5539H10.5623H10.5706H10.5789H10.5873H10.5956H10.604H10.6123H10.6206H10.629H10.6373H10.6457H10.654H10.6623H10.6707H10.679H10.6874H10.6957H10.704H10.7124H10.7207H10.7291H10.7374H10.7458H10.7541H10.7625H10.7708H10.7792H10.7875H10.7958H10.8042H10.8125H10.8209H10.8292H10.8376H10.8459H10.8543H10.8626H10.871H10.8793H10.8877H10.8961H10.9044H10.9128H10.9211H10.9295H10.9378H10.9462H10.9545H10.9629H10.9713H10.9796H10.988H10.9963H11.0047H11.0131H11.0214H11.0298H11.0381H11.0465H11.0549H11.0632H11.0716H11.08H11.0883H11.0967H11.1051H11.1134H11.1218H11.1302H11.1385H11.1469H11.1553H11.1636H11.172H11.1804H11.1887H11.1971H11.2055H11.2139H11.2222H11.2306H11.239H11.2474H11.2557H11.2641H11.2725H11.2809H11.2893H11.2976H11.306H11.3144H11.3228H11.3312H11.3395H11.3479H11.3563H11.3647H11.3731H11.3815H11.3899H11.3982H11.4066H11.415H11.4234H11.4318H11.4402H11.4486H11.457H11.4654H11.4738H11.4821H11.4905H11.4989H11.5073H11.5157H11.5241H11.5325H11.5409H11.5493H11.5577H11.5661H11.5745H11.5829H11.5913H11.5997H11.6081H11.6166H11.625H11.6334H11.6418H11.6502H11.6586H11.667H11.6754H11.6838H11.6922H11.7006H11.7091H11.7175H11.7259H11.7343H11.7427H11.7511H11.7596H11.768H11.7764H11.7848H11.7932H11.8017H11.8101H11.8185H11.8269H11.8354H11.8438H11.8522H11.8606H11.8691H11.8775H11.8859H11.8944H11.9028H11.9112H11.9197H11.9281H11.9365H11.945H11.9534H11.9619H11.9703H11.9787H11.9872H11.9956H12.0041H12.0125H12.0209H12.0294H12.0378H12.0463H12.0547H12.0632H12.0716H12.0801H12.0885H12.097H12.1054H12.1139H12.1223H12.1308H12.1393H12.1477H12.1562H12.1646H12.1731H12.1816H12.19H12.1985H12.2069H12.2154H12.2239H12.2323H12.2408H12.2493H12.2578H12.2662H12.2747H12.2832H12.2916H12.3001H12.3086H12.3171H12.3256H12.334H12.3425H12.351H12.3595H12.368H12.3764H12.3849H12.3934H12.4019H12.4104H12.4189H12.4274H12.4359H12.4444H12.4528H12.4613H12.4698H12.4783H12.4868H12.4953H12.5038H12.5123H12.5208H12.5293H12.5378H12.5463H12.5548H12.5634H12.5719H12.5804H12.5889H12.5974H12.6059H12.6144H12.6229H12.6314H12.64H12.6485H12.657H12.6655H12.674H12.6826H12.6911H12.6996H12.7081H12.7167H12.7252H12.7337H12.7423H12.7508H12.7593H12.7679H12.7764H12.7849H12.7935H12.802H12.8105H12.8191H12.8276H12.8362H12.8447H12.8533H12.8618H12.8703H12.8789H12.8874H12.896H12.9045H12.9131H12.9217H12.9302H12.9388H12.9473H12.9559H12.9644H12.973H12.9816H12.9901H12.9987H13.0073H13.0158H13.0244H13.033H13.0416H13.0501H13.0587H13.0673H13.0759H13.0844H13.093H13.1016H13.1102H13.1188H13.1273H13.1359H13.1445H13.1531H13.1617H13.1703H13.1789H13.1875H13.1961H13.2047H13.2133H13.2219H13.2305H13.2391H13.2477H13.2563H13.2649H13.2735H13.2821H13.2907H13.2993H13.3079H13.3165H13.3251H13.3338H13.3424H13.351H13.3596H13.3682H13.3769H13.3855H13.3941H13.4027H13.4114H13.42H13.4286H13.4373H13.4459H13.4545H13.4632H13.4718H13.4804H13.4891H13.4977H13.5064H13.515H13.5237H13.5323H13.541H13.5496H13.5583H13.5669H13.5756H13.5842H13.5929H13.6015H13.6102H13.6189H13.6275H13.6362H13.6449H13.6535H13.6622H13.6709H13.6795H13.6882H13.6969H13.7056H13.7142H13.7229H13.7316H13.7377V9.53199V9.52476V9.51753V9.5103V9.50307V9.49585V9.48862V9.48139V9.47417V9.46695V9.45973V9.45251V9.44529V9.43807V9.43085V9.42364V9.41642V9.40921V9.402V9.39478V9.38758V9.38037V9.37316V9.36595V9.35874V9.35154V9.34433V9.33713V9.32993V9.32273V9.31553V9.30833V9.30113V9.29394V9.28674V9.27955V9.27235V9.26516V9.25797V9.25078V9.24359V9.2364V9.22921V9.22203V9.21484V9.20766V9.20047V9.19329V9.18611V9.17893V9.17175V9.16457V9.1574V9.15022V9.14305V9.13587V9.1287V9.12153V9.11436V9.10718V9.10002V9.09285V9.08568V9.07851V9.07135V9.06418V9.05702V9.04986V9.0427V9.03553V9.02838V9.02122V9.01406V9.0069V8.99975V8.99259V8.98544V8.97828V8.97113V8.96398V8.95683V8.94968V8.94253V8.93539V8.92824V8.92109V8.91395V8.90681V8.89966V8.89252V8.88538V8.87824V8.8711V8.86396V8.85682V8.84969V8.84255V8.83542V8.82828V8.82115V8.81402V8.80689V8.79976V8.79263V8.7855V8.77837V8.77124V8.76412V8.75699V8.74987V8.74274V8.73562V8.7285V8.72138V8.71426V8.70714V8.70002V8.6929V8.68578V8.67867V8.67155V8.66444V8.65732V8.65021V8.6431V8.63599V8.62888V8.62177V8.61466V8.60755V8.60044V8.59334V8.58623V8.57913V8.57202V8.56492V8.55782V8.55072V8.54362V8.53652V8.52942V8.52232V8.51522V8.50812V8.50103V8.49393V8.48684V8.47974V8.47265V8.46556V8.45847V8.45138V8.44428V8.43719V8.43011V8.42302V8.41593V8.40884V8.40176V8.39467V8.38759V8.38051V8.37342V8.36634V8.35926V8.35218V8.3451V8.33802V8.33094V8.32386V8.31679V8.30971V8.30263V8.29556V8.28848V8.28141V8.27434V8.26726V8.26019V8.25312V8.24605V8.23898V8.23191V8.22484V8.21778V8.21071V8.20364V8.19658V8.18951V8.18245V8.17538V8.16832V8.16126V8.1542V8.14713V8.14007V8.13301V8.12595V8.1189V8.11184V8.10478V8.09772V8.09067V8.08361V8.07656V8.0695V8.06245V8.0554V8.04834V8.04129V8.03424V8.02719V8.02014V8.01309V8.00604V7.99899V7.99194V7.9849V7.97785V7.9708V7.96376V7.95671V7.94967V7.94262V7.93558V7.92854V7.9215V7.91445V7.90741V7.90037V7.89333V7.88629V7.87925V7.87222V7.86518V7.85814V7.8511V7.84407V7.83703V7.83V7.82296V7.81593V7.80889V7.80186V7.79483V7.7878V7.78076V7.77373V7.7667V7.75967V7.75264V7.74561V7.73859V7.73156V7.72453V7.7175V7.71048V7.70345V7.69642V7.6894V7.68237V7.67535V7.66832V7.6613V7.65428V7.64726V7.64023V7.63321V7.62619V7.61917V7.61215V7.60513V7.59811V7.59109V7.58407V7.57706V7.57004V7.56302V7.556V7.54899V7.54197V7.53496V7.52794V7.52093V7.51391V7.5069V7.49988V7.49287V7.48586V7.47885V7.47183V7.46482V7.45781V7.4508V7.44379V7.43678V7.42977V7.42276V7.41575V7.40874V7.40173V7.39473V7.38772V7.38071V7.37371V7.3667V7.35969V7.35269V7.34568V7.33868V7.33167V7.32467V7.31766V7.31066V7.30366V7.29665V7.28965V7.28265V7.27565V7.26865V7.26164V7.25464V7.24764V7.24064V7.23364V7.22664V7.21964V7.21264V7.20564V7.19865V7.19165V7.18465V7.17765V7.17065V7.16366V7.15666V7.14966V7.14267V7.13567V7.12867V7.12168V7.11468V7.10769V7.10069V7.0937V7.08671V7.07971V7.07272V7.06572V7.05873V7.05174V7.04474V7.03775V7.03076V7.02377V7.01678V7.00978V7.00279V6.9958V6.98881V6.98182V6.97483V6.96784V6.96085V6.95386V6.94687V6.93988V6.93289V6.9259V6.91891V6.91192V6.90493V6.89795V6.89096V6.88397V6.87698V6.86999V6.86301V6.85602V6.84903V6.84204V6.83506V6.82807V6.82108V6.8141V6.80711V6.80012V6.79314V6.78615V6.77917V6.77218V6.7652V6.75821V6.75123V6.74424V6.73726V6.73027V6.72329V6.7163V6.70932V6.70233V6.69535V6.68836V6.68138V6.6744V6.66741V6.66043V6.65345V6.64646V6.63948V6.63249V6.62551V6.61853V6.61155V6.60456V6.59758V6.5906V6.58361V6.57663V6.56965V6.56266V6.55568V6.5487V6.54172V6.53474V6.52775V6.52077V6.51379V6.50681V6.49982V6.49284V6.48586V6.47888V6.4719V6.46491V6.45793V6.45095V6.44397V6.43699V6.43V6.42302V6.41604V6.40906V6.40208C13.7377 6.33911 13.7371 6.27283 13.7365 6.20417C13.7345 5.98236 13.7322 5.73573 13.7494 5.49608L14.2481 5.5317M14.2481 5.5317C14.2999 4.79085 14.7558 4.31421 15.4915 4.29349M14.2481 5.5317C14.2326 5.74929 14.2345 5.96689 14.2364 6.18448C14.2371 6.25701 14.2377 6.32954 14.2377 6.40208V9.53382L15.4915 4.29349M15.4915 4.29349C16.5846 4.26758 17.683 4.26758 18.7813 4.29349H15.4915Z" fill="#0282A6" stroke="#0282A6"/>
</svg>
