<svg width="48" height="48" viewBox="0 0 48 48" fill="none" xmlns="http://www.w3.org/2000/svg">
<path d="M24 0C37.2188 0 48 10.7812 48 24C48 37.3125 37.2188 48 24 48C10.6875 48 0 37.3125 0 24C0 10.7812 10.6875 0 24 0ZM24 43.5C34.6875 43.5 43.5 34.7812 43.5 24C43.5 13.3125 34.6875 4.5 24 4.5C13.2188 4.5 4.5 13.3125 4.5 24C4.5 34.7812 13.2188 43.5 24 43.5ZM24 28.5C22.6875 28.5 21.75 27.5625 21.75 26.25V14.25C21.75 13.0312 22.6875 12 24 12C25.2188 12 26.25 13.0312 26.25 14.25V26.25C26.25 27.5625 25.2188 28.5 24 28.5ZM24 31.6875C25.5938 31.6875 26.9062 33 26.9062 34.5938C26.9062 36.1875 25.5938 37.5 24 37.5C22.3125 37.5 21 36.1875 21 34.5938C21 33 22.3125 31.6875 24 31.6875Z" fill="url(#paint0_linear_1_180)"/>
<defs>
<linearGradient id="paint0_linear_1_180" x1="25" y1="0" x2="25" y2="51" gradientUnits="userSpaceOnUse">
<stop stop-color="#0081A4"/>
<stop offset="1" stop-color="#646C9A"/>
</linearGradient>
</defs>
</svg>
