<svg width="17" height="14" viewBox="0 0 17 14" fill="none" xmlns="http://www.w3.org/2000/svg">
<path d="M4.96875 5.3125C4.84375 5.4375 4.65625 5.5 4.5 5.5H1.75C1.59375 5.5 1.5 5.625 1.5 5.75V8.25C1.5 8.40625 1.59375 8.5 1.75 8.5H4.5C4.65625 8.5 4.84375 8.59375 4.96875 8.71875L8.5 11.8125V2.21875L4.96875 5.3125ZM9.0625 0C9.5625 0 10 0.4375 10 0.9375V13.0938C10 13.5938 9.5625 14 9.0625 14C8.8125 14 8.59375 13.9375 8.4375 13.7812L4.1875 10H1.75C0.78125 10 0 9.21875 0 8.25V5.75C0 4.8125 0.78125 4 1.75 4H4.1875L8.4375 0.25C8.59375 0.09375 8.8125 0 9.0625 0ZM14.7812 2.34375V2.375C16.125 3.46875 17 5.125 17 7.03125C17 8.90625 16.125 10.5625 14.7812 11.6875C14.4375 11.9375 13.9688 11.875 13.7188 11.5625C13.4688 11.25 13.5 10.7812 13.8125 10.5C14.8438 9.6875 15.5 8.4375 15.5 7C15.5 5.59375 14.8438 4.34375 13.8125 3.53125C13.5 3.25 13.4375 2.78125 13.7188 2.46875C13.9688 2.15625 14.4375 2.09375 14.7812 2.34375ZM12.875 4.6875C13.5625 5.25 14 6.0625 14 7C14 7.96875 13.5625 8.78125 12.875 9.34375C12.5625 9.59375 12.0938 9.5625 11.8125 9.25C11.5625 8.90625 11.625 8.4375 11.9375 8.1875C12.2812 7.90625 12.5 7.46875 12.5 7C12.5 6.53125 12.2812 6.125 11.9375 5.84375C11.625 5.59375 11.5625 5.125 11.8125 4.78125C12.0938 4.46875 12.5625 4.4375 12.875 4.6875Z" fill="#3BC1CD"/>
</svg>
