<svg width="20" height="19" viewBox="0 0 20 19" fill="none" xmlns="http://www.w3.org/2000/svg">
<path d="M7.46094 0.75H12.5C13.3203 0.75 14.0234 1.29688 14.2969 2.03906L14.6875 3.25H17.5C18.8672 3.25 20 4.38281 20 5.75V15.75C20 17.1562 18.8672 18.25 17.5 18.25H2.5C1.09375 18.25 0 17.1562 0 15.75V5.75C0 4.38281 1.09375 3.25 2.5 3.25H5.27344L5.66406 2.03906C5.9375 1.29688 6.64062 0.75 7.46094 0.75ZM6.83594 2.42969L6.28906 4.10938C6.21094 4.34375 5.97656 4.5 5.70312 4.5H2.5C1.79688 4.5 1.25 5.08594 1.25 5.75V15.75C1.25 16.4531 1.79688 17 2.5 17H17.5C18.1641 17 18.75 16.4531 18.75 15.75V5.75C18.75 5.08594 18.1641 4.5 17.5 4.5H14.2578C13.9844 4.5 13.75 4.34375 13.6719 4.07031L13.125 2.42969C13.0078 2.19531 12.7734 2 12.5 2H7.46094C7.1875 2 6.95312 2.19531 6.83594 2.42969ZM10 15.125C8.39844 15.125 6.99219 14.3047 6.21094 12.9375C5.39062 11.6094 5.39062 9.92969 6.21094 8.5625C6.99219 7.23438 8.39844 6.375 10 6.375C11.5625 6.375 12.9688 7.23438 13.75 8.5625C14.5703 9.92969 14.5703 11.6094 13.75 12.9375C12.9688 14.3047 11.5625 15.125 10 15.125ZM6.875 10.75C6.875 11.8828 7.46094 12.8984 8.4375 13.4844C9.375 14.0312 10.5859 14.0312 11.5625 13.4844C12.5 12.8984 13.125 11.8828 13.125 10.75C13.125 9.65625 12.5 8.64062 11.5625 8.05469C10.5859 7.50781 9.375 7.50781 8.4375 8.05469C7.46094 8.64062 6.875 9.65625 6.875 10.75Z" fill="#3BC1CD"/>
</svg>
