<svg width="24" height="25" viewBox="0 0 24 25" fill="none" xmlns="http://www.w3.org/2000/svg">
<path d="M0 12.2366C0 5.62726 5.34375 0.236633 12 0.236633C18.6094 0.236633 24 5.62726 24 12.2366C24 18.8929 18.6094 24.2366 12 24.2366C5.34375 24.2366 0 18.8929 0 12.2366ZM17.3906 10.1741C17.9062 9.65851 17.9062 8.86163 17.3906 8.34601C16.875 7.83038 16.0781 7.83038 15.5625 8.34601L10.5 13.4085L8.39062 11.346C7.875 10.8304 7.07812 10.8304 6.5625 11.346C6.04688 11.8616 6.04688 12.6585 6.5625 13.1741L9.5625 16.1741C10.0781 16.6898 10.875 16.6898 11.3906 16.1741L17.3906 10.1741Z" fill="#1DA70C"/>
</svg>
