<svg width="13" height="21" viewBox="0 0 13 21" fill="none" xmlns="http://www.w3.org/2000/svg">
<path d="M9 4.48663C9 3.11945 7.86719 1.98663 6.5 1.98663C5.09375 1.98663 4 3.11945 4 4.48663V10.7366C4 12.1429 5.09375 13.2366 6.5 13.2366C7.86719 13.2366 9 12.1429 9 10.7366V4.48663ZM2.75 4.48663C2.75 2.41632 4.42969 0.736633 6.5 0.736633C8.57031 0.736633 10.25 2.41632 10.25 4.48663V10.7366C10.25 12.8069 8.57031 14.4866 6.5 14.4866C4.42969 14.4866 2.75 12.8069 2.75 10.7366V4.48663ZM1.5 8.86163V10.7366C1.5 13.5101 3.72656 15.7366 6.5 15.7366C9.23438 15.7366 11.5 13.5101 11.5 10.7366V8.86163C11.5 8.54913 11.7734 8.23663 12.125 8.23663C12.4375 8.23663 12.75 8.54913 12.75 8.86163V10.7366C12.75 13.9788 10.25 16.6741 7.125 16.9866V19.4866H9.625C9.9375 19.4866 10.25 19.7991 10.25 20.1116C10.25 20.4632 9.9375 20.7366 9.625 20.7366H6.5H3.375C3.02344 20.7366 2.75 20.4632 2.75 20.1116C2.75 19.7991 3.02344 19.4866 3.375 19.4866H5.875V16.9866C2.71094 16.6741 0.25 13.9788 0.25 10.7366V8.86163C0.25 8.54913 0.523438 8.23663 0.875 8.23663C1.1875 8.23663 1.5 8.54913 1.5 8.86163Z" fill="#0282A6"/>
</svg>
