<svg width="24" height="25" viewBox="0 0 24 25" fill="none" xmlns="http://www.w3.org/2000/svg">
<path d="M0 12.2367C0 5.62732 5.34375 0.236694 12 0.236694C18.6094 0.236694 24 5.62732 24 12.2367C24 18.8929 18.6094 24.2367 12 24.2367C5.34375 24.2367 0 18.8929 0 12.2367ZM8.20312 10.0336L10.4062 12.2367L8.20312 14.4398C7.73438 14.9086 7.73438 15.6117 8.20312 16.0336C8.625 16.5023 9.32812 16.5023 9.75 16.0336L11.9531 13.8304L14.2031 16.0336C14.625 16.5023 15.3281 16.5023 15.75 16.0336C16.2188 15.6117 16.2188 14.9086 15.75 14.4398L13.5469 12.2367L15.75 10.0336C16.2188 9.61169 16.2188 8.90857 15.75 8.43982C15.3281 8.01794 14.625 8.01794 14.2031 8.43982L11.9531 10.6898L9.75 8.43982C9.32812 8.01794 8.625 8.01794 8.20312 8.43982C7.73438 8.90857 7.73438 9.61169 8.20312 10.0336Z" fill="#E15241"/>
</svg>
