<svg width="114" height="20" viewBox="0 0 114 20" fill="none" xmlns="http://www.w3.org/2000/svg">
<rect y="0.236633" width="1.85065" height="18.5065" rx="0.925325" fill="#646C9A" fill-opacity="0.5"/>
<rect x="5.552" y="3.93787" width="1.85065" height="11.1039" rx="0.925325" fill="#646C9A" fill-opacity="0.5"/>
<rect x="11.1039" y="1.99475" width="1.85065" height="14.9903" rx="0.925325" fill="#646C9A" fill-opacity="0.5"/>
<rect x="16.8408" y="4.30811" width="1.85065" height="11.1039" rx="0.925325" fill="#646C9A" fill-opacity="0.5"/>
<rect x="22.3928" y="0.60675" width="1.85065" height="18.5065" rx="0.925325" fill="#646C9A" fill-opacity="0.5"/>
<rect x="27.9448" y="7.2691" width="1.85065" height="5.18182" rx="0.925325" fill="#646C9A" fill-opacity="0.5"/>
<rect x="33.6818" y="4.86322" width="1.85065" height="9.25325" rx="0.925325" fill="#646C9A" fill-opacity="0.5"/>
<rect x="39.2338" y="3.01263" width="1.85065" height="12.9545" rx="0.925325" fill="#646C9A" fill-opacity="0.5"/>
<rect x="44.7858" y="0.236633" width="1.85065" height="18.5065" rx="0.925325" fill="#646C9A" fill-opacity="0.5"/>
<rect x="50.5227" y="0.60675" width="1.85065" height="18.5065" rx="0.925325" fill="#646C9A" fill-opacity="0.5"/>
<rect x="56.0747" y="4.30811" width="1.85065" height="11.1039" rx="0.925325" fill="#646C9A" fill-opacity="0.5"/>
<rect x="61.6266" y="2.36481" width="1.85065" height="14.9903" rx="0.925325" fill="#646C9A" fill-opacity="0.5"/>
<rect x="67.3636" y="6.52881" width="1.85065" height="7.4026" rx="0.925325" fill="#646C9A" fill-opacity="0.5"/>
<rect x="72.9155" y="0.976868" width="1.85065" height="18.5065" rx="0.925325" fill="#646C9A" fill-opacity="0.5"/>
<rect x="78.4675" y="4.67816" width="1.85065" height="11.1039" rx="0.925325" fill="#646C9A" fill-opacity="0.5"/>
<rect x="84.2046" y="3.75281" width="1.85065" height="12.9545" rx="0.925325" fill="#646C9A" fill-opacity="0.5"/>
<rect x="89.7565" y="7.45416" width="1.85065" height="5.55195" rx="0.925325" fill="#646C9A" fill-opacity="0.5"/>
<rect x="95.3085" y="0.976868" width="1.85065" height="18.5065" rx="0.925325" fill="#646C9A" fill-opacity="0.5"/>
<rect x="101.046" y="0.976868" width="1.85065" height="18.5065" rx="0.925325" fill="#646C9A" fill-opacity="0.5"/>
<rect x="106.597" y="4.67816" width="1.85065" height="11.1039" rx="0.925325" fill="#646C9A" fill-opacity="0.5"/>
<rect x="112.149" y="6.52881" width="1.85065" height="7.4026" rx="0.925325" fill="#646C9A" fill-opacity="0.5"/>
</svg>
