<svg width="444" height="350" viewBox="0 0 444 350" fill="none" xmlns="http://www.w3.org/2000/svg">
<g clip-path="url(#clip0_50_14725)" filter="url(#filter0_d_50_14725)">
<path d="M11.4605 204.06C18.1705 184.39 36.4205 170.97 57.1405 164.68C62.5305 163.04 68.3105 162.3 73.1605 159.5C84.7505 152.81 88.2805 137.97 88.6105 124.96C90.4505 52.2103 163.03 42.3703 176.96 43.6603C232.23 48.7703 224.79 91.7003 257.09 115.66C277.96 131.14 310.68 106.57 333.76 118.63C353.35 128.86 353.28 157.83 371.2 170.58C384.05 179.73 393.98 167.1 415.87 186.61C444.03 211.71 451.62 280.91 412.61 320.53L49.4705 322.08C36.0905 319.83 -14.9095 281.39 11.4605 204.06Z" fill="#CBEDFD"/>
<path d="M45.9007 238.601C44.0207 228.081 43.5607 216.391 49.6507 207.611C54.7107 200.311 63.5207 196.381 72.2907 195.001C78.9807 193.941 159.651 187.391 162.611 190.331C165.341 193.051 173.811 198.061 177.201 212.151C181.271 229.061 193.601 301.211 190.121 316.311C180.491 318.711 88.4707 319.171 74.1507 319.301C73.5707 313.951 48.9607 255.741 45.9007 238.601Z" fill="#1F4B74"/>
<path d="M202.561 167.44C224.891 172.52 233.681 219.29 237.071 230.65C240.791 243.07 246.101 255.01 252.851 266.08C256.241 271.65 260.081 278.6 256.781 284.22C254.691 287.77 250.311 289.35 246.201 289.54C238.011 289.92 230.111 285.8 224.261 280.05C218.411 274.3 214.341 267.03 210.561 259.75C199.391 238.2 192.831 221.89 187.731 198.16C187.451 196.86 185.331 163.51 202.561 167.44Z" fill="#F4B000"/>
<path d="M251.141 294.42C253.991 297.33 266.171 298.81 267.171 298.12C266.111 291.78 259.881 295.38 259.111 290.49C261.011 289.17 263.251 289.57 265.111 289.57C266.731 289.57 268.241 291.01 268.931 292.75C269.971 295.38 269.581 296.2 269.991 299C270.391 301.76 273.191 303.78 273.201 302.02C273.201 298.79 273.211 293.79 273.211 290.55C274.011 293.43 274.571 302.52 278.451 301.66C279.391 297.31 277.381 293.48 277.361 289.03C278.461 292.81 278.451 301.66 282.321 300.41C282.481 296.35 280.971 292.25 281.131 288.19C282.001 291.77 283.381 299.53 285.521 298.28C286.171 294.37 285.101 290.24 284.261 286.37C283.751 284.02 283.871 281.74 282.161 280.04C281.111 279 266.271 276.12 260.121 276.48C256.241 276.71 251.301 276.11 248.851 278.06C239.341 285.61 247.941 291.16 251.141 294.42Z" fill="#FFD0B0"/>
<path d="M101.241 212.86C106.321 237.57 123.091 240.73 126.221 265.76C128.301 282.46 121.321 303.16 116.571 319.31C155.171 320.67 194.251 319.96 222.781 318.73C221.741 295.34 212.391 264.27 214.561 240.96C215.801 227.59 218.751 215.19 216.861 201.9C214.971 188.61 209.231 169.36 202.571 167.45C189.631 163.73 178.751 160.38 163.841 158.76C157.331 158.05 138.211 156.06 121.721 158.38C111.361 159.84 102.581 161.78 98.8611 163.29C74.2511 173.26 96.8411 191.48 101.241 212.86Z" fill="#FFC632"/>
<path d="M165.061 186.08C167.501 185.9 177.961 167.2 177.161 164.89C174.351 158.46 169.161 164.95 167.481 160.19C166.141 156.38 172.751 139.05 169.041 134.61C166.821 131.96 144.681 123.75 140.751 131.24C138.901 134.77 131.951 150.61 131.951 154.73C131.941 157.13 158.231 186.59 165.061 186.08Z" fill="#FFD0B0"/>
<path d="M184.911 278.05C186.331 279.72 188.881 285.41 190.471 290.22C191.001 291.81 191.751 296.88 191.751 296.88C187.731 298.82 186.301 289.06 184.921 286.31C184.511 289.33 185.101 300.58 184.041 300.48C180.171 299.52 180.581 291.06 180.871 287.01C180.521 289.7 179.771 292.14 178.981 294.73C178.171 297.38 177.221 299.87 175.961 301.16C173.471 300.75 175.141 292.97 175.591 289.5C174.171 295.47 170.521 301.66 170.521 301.66C168.011 301.66 168.231 298.05 169.041 296C169.851 293.94 171.831 291.43 170.661 289.56C170.911 291.36 167.251 293.96 165.501 294.44C163.751 294.93 158.851 293.23 157.101 292.73C148.751 290.35 129.421 291.2 132.001 281.9C133.771 275.53 141.901 270.26 147.761 271.15C152.911 271.93 160.101 278.04 165.901 278.04C176.281 278.05 180.751 276.46 184.911 278.05Z" fill="#FFD0B0"/>
<path d="M157.781 273.22C147.311 267.29 103.731 248.17 103.351 247.2C101.891 243.52 122.621 208.76 123.931 198.5C125.231 188.24 125.041 179.27 117.701 171.98C107.941 162.29 98.8609 163.26 98.8609 163.26C92.0809 165.63 90.2909 167.87 86.8309 171.23C81.9209 175.99 79.0909 182.44 76.3709 188.71C68.3609 207.23 60.3109 225.86 55.5709 245.48C54.2709 250.84 53.2609 256.62 55.2309 261.77C56.5609 265.23 59.1409 268.09 62.0009 270.45C73.5409 280 89.2709 282.3 104.121 284.23C119.531 286.23 135.511 290.71 150.921 292.71C154.081 293.15 161.101 275.1 157.781 273.22Z" fill="#F4B000"/>
<path d="M121.641 159.491C121.631 163.591 124.881 167.481 126.591 171.201C129.481 177.491 132.371 183.791 135.261 190.081C138.961 185.241 142.661 180.391 146.361 175.551C151.601 181.341 158.181 185.921 165.431 188.811C168.871 184.361 172.311 179.911 175.761 175.461C177.161 179.651 179.021 183.691 181.291 187.481C183.301 177.651 185.021 166.451 179.001 158.431C176.151 154.631 171.711 152.051 166.991 151.451C165.181 157.451 169.251 163.651 169.211 169.911C169.171 175.001 166.441 179.631 163.801 183.981C160.351 181.801 157.031 179.421 153.861 176.851C152.271 175.571 150.681 174.171 149.861 172.301C149.161 170.701 149.081 168.851 148.161 167.371C147.211 165.851 145.531 164.971 144.151 163.821C138.511 159.061 134.921 149.791 134.921 144.561C130.571 144.561 121.671 151.641 121.641 159.491Z" fill="#F4B000"/>
<path d="M165.441 193.53C170.991 219.55 176.171 246.01 174.611 272.75C174.541 274.04 176.541 274.03 176.611 272.75C178.171 245.84 172.951 219.19 167.361 193C167.101 191.74 165.171 192.28 165.441 193.53Z" fill="#E7A705"/>
<path d="M175.94 117.06C175.27 121.2 175.49 125.69 177.79 129.2C180.09 132.7 184.91 134.75 188.67 132.9C193.51 130.53 193.97 123.89 193.38 118.54C193.01 115.16 192.42 111.64 190.38 108.93C183.56 99.8704 177.04 110.23 175.94 117.06Z" fill="#0090D7"/>
<path d="M143.54 135.021C147.71 143.541 155.84 150.331 165.23 151.691C168.95 152.231 172.97 151.861 176.07 149.741C178.15 148.321 179.66 146.221 181 144.101C186.99 134.621 190.46 123.571 190.97 112.361C191.37 103.521 189.32 93.571 181.98 88.631C176.4 84.881 169.18 84.941 162.46 85.151C159 85.251 155.41 85.391 152.32 86.971C149.12 88.611 146.86 91.611 144.74 94.521C137.04 105.081 137.81 123.331 143.54 135.021Z" fill="#F7C6A6"/>
<path d="M164.321 138.631C167.201 141.331 171.331 142.191 175.011 140.691C176.191 140.211 175.671 138.281 174.481 138.761C171.451 139.991 168.141 139.471 165.741 137.211C164.791 136.331 163.381 137.751 164.321 138.631Z" fill="#E28E60"/>
<path d="M159.881 99.1006C160.451 100.191 160.471 101.481 160.801 102.671C161.531 105.221 163.881 107.231 166.521 107.541C169.151 107.851 171.911 106.451 173.211 104.141C173.671 103.331 173.981 102.391 174.691 101.791C176.291 100.441 178.791 101.591 180.181 103.151C181.571 104.721 182.451 107.181 184.501 107.631C190.391 108.931 191.751 104.811 192.661 101.001C193.551 103.681 199.741 102.691 201.631 100.591C203.511 98.4906 203.221 95.0606 201.591 92.7506C199.971 90.4406 197.331 89.0706 194.691 88.0806C193.721 87.7206 192.711 87.3806 191.941 86.6906C189.191 84.1806 191.521 79.5806 190.691 75.9506C189.761 71.9006 184.341 69.9306 180.691 71.9206C177.971 73.4106 176.231 76.4906 173.281 77.4506C173.191 76.7706 163.701 73.0806 163.591 75.6206C163.591 75.6206 159.541 72.8006 153.161 74.4106C150.061 75.1906 147.191 78.0206 147.161 81.2206C144.271 80.6106 143.691 80.6706 140.861 81.5106C138.031 82.3506 135.461 84.6806 135.161 87.6306C135.051 88.6806 135.231 89.7706 134.991 90.8006C134.361 93.4606 131.081 94.4006 130.281 96.7506C129.131 100.181 130.641 103.311 131.121 106.941C131.911 112.881 130.681 118.071 138.291 117.601C143.341 117.291 147.351 119.771 149.061 115.631C149.871 113.671 154.581 88.8806 159.881 99.1006Z" fill="#1B1B1F"/>
<path d="M128.071 114.211C127.401 118.351 127.951 123.841 130.251 127.341C132.551 130.841 137.371 132.891 141.131 131.041C145.971 128.671 146.431 122.031 145.841 116.681C145.471 113.301 144.881 109.781 142.841 107.071C136.011 98.0205 129.171 107.381 128.071 114.211Z" fill="#0090D7"/>
<path d="M139.171 107.1C139.311 98.5802 141.271 88.9102 148.581 83.5802C153.731 79.8202 163.771 76.1602 173.281 77.4602C173.281 77.4602 170.681 75.0502 167.991 74.6102C160.211 73.3402 152.301 75.5802 145.991 80.2302C137.631 86.3802 135.111 97.2502 134.941 107.1C134.901 109.82 139.121 109.82 139.171 107.1Z" fill="#0090D7"/>
<path d="M136.911 123.82C138.591 134.36 147.541 143.66 158.321 144.64C159.601 144.76 159.591 142.76 158.321 142.64C148.381 141.73 140.371 132.88 138.841 123.29C138.641 122.02 136.711 122.55 136.911 123.82Z" fill="#0090D7"/>
<path d="M166.39 142.871C166.39 145.471 164.29 147.571 161.69 147.571C159.09 147.571 156.99 145.471 156.99 142.871C156.99 140.271 159.09 138.171 161.69 138.171C164.29 138.171 166.39 140.271 166.39 142.871Z" fill="#0090D7"/>
<path d="M176.21 127.411C176.45 129.341 177.38 131.191 178.82 132.621C179.25 133.051 179.77 133.531 179.71 134.111C179.61 135.111 178.09 135.291 177.01 135.111C174.81 134.741 172.68 134.041 170.73 133.061C170.56 132.971 170.38 132.881 170.25 132.751C170.03 132.531 169.93 132.231 169.88 131.931C169.59 130.201 170.49 128.511 171.06 126.841C171.69 124.951 171.5 115.621 174.72 116.311C178.33 117.101 175.94 125.271 176.21 127.411Z" fill="#E28E60"/>
<path d="M129.991 120.86C130.031 122.99 130.251 125.37 131.841 126.79C133.661 128.42 136.951 127.86 138.131 125.72C138.701 124.69 138.791 123.47 138.871 122.3C139.061 119.24 139.171 116.13 138.511 113.13C137.961 110.63 136.451 107.92 133.911 107.6C129.871 107.08 129.951 118.48 129.991 120.86Z" fill="#066793"/>
<path d="M167.56 118.671C167.56 120.341 166.73 121.701 165.71 121.701C164.69 121.701 163.86 120.341 163.86 118.671C163.86 117.001 164.69 115.641 165.71 115.641C166.73 115.641 167.56 117.001 167.56 118.671Z" fill="#1B1B1F"/>
<path d="M183.18 122.521C184.202 122.521 185.03 121.164 185.03 119.491C185.03 117.818 184.202 116.461 183.18 116.461C182.158 116.461 181.33 117.818 181.33 119.491C181.33 121.164 182.158 122.521 183.18 122.521Z" fill="#1B1B1F"/>
<path d="M160.791 112.561C162.321 111.001 164.461 110.551 166.511 111.281C167.721 111.721 168.251 109.781 167.041 109.351C164.351 108.381 161.371 109.111 159.381 111.141C158.471 112.071 159.891 113.481 160.791 112.561Z" fill="#1B1B1F"/>
<path d="M182.1 112.06C183.64 112.21 185.03 112.78 186.29 113.66C187.34 114.4 188.34 112.67 187.3 111.93C185.75 110.83 183.99 110.24 182.11 110.05C180.81 109.93 180.82 111.93 182.1 112.06Z" fill="#1B1B1F"/>
<path d="M426.991 329.121H29.3106C24.5206 329.121 20.6406 325.241 20.6406 320.451V319.461C20.6406 314.671 24.5206 310.791 29.3106 310.791H426.991C431.781 310.791 435.661 314.671 435.661 319.461V320.451C435.661 325.241 431.781 329.121 426.991 329.121Z" fill="#01AEE4"/>
<path d="M414.821 329.121H41.4707V329.811C41.4707 336.541 46.9307 342.001 53.6607 342.001H402.631C409.361 342.001 414.821 336.541 414.821 329.811V329.121Z" fill="#0290BD"/>
<path d="M356.161 272.75H216.071C210.621 272.75 206.371 268.02 206.951 262.6L215.561 181.95C216.061 177.29 219.991 173.75 224.681 173.75H364.771C370.221 173.75 374.471 178.48 373.891 183.9L365.281 264.55C364.781 269.21 360.851 272.75 356.161 272.75Z" fill="#0379B1"/>
<path d="M361.451 272.75H221.361C215.911 272.75 211.661 268.02 212.241 262.6L220.851 181.95C221.351 177.29 225.281 173.75 229.971 173.75H370.061C375.511 173.75 379.761 178.48 379.181 183.9L370.571 264.55C370.071 269.21 366.131 272.75 361.451 272.75Z" fill="#1F4B74"/>
<path d="M297.86 231.61H288.62C285.14 231.61 282.32 234.43 282.32 237.91V305.16H304.16V237.91C304.16 234.43 301.34 231.61 297.86 231.61Z" fill="#0379B1"/>
<path d="M327.41 305.161H256.95V310.801H327.41V305.161Z" fill="#1F4B74"/>
<path d="M266.121 305.161H183.181V310.801H266.121V305.161Z" fill="#0379B1"/>
<path d="M149.46 298.121H141.62C136.29 298.121 131.98 302.441 131.98 307.761C131.98 309.441 133.34 310.801 135.02 310.801H156.07C157.75 310.801 159.11 309.441 159.11 307.761C159.1 302.431 154.79 298.121 149.46 298.121Z" fill="#0379B1"/>
<path d="M59.7004 83.2002H15.8204C10.5004 83.2002 6.19043 87.5102 6.19043 92.8302V123.9C6.19043 129.22 10.5004 133.53 15.8204 133.53H37.2404L49.5104 142.51V133.53H59.7004C65.0204 133.53 69.3304 129.22 69.3304 123.9V92.8302C69.3304 87.5102 65.0204 83.2002 59.7004 83.2002Z" fill="#209CD4"/>
<path d="M39.3407 95.47C39.3407 96.28 38.6807 96.94 37.8707 96.94H15.4007C14.5907 96.94 13.9307 96.28 13.9307 95.47C13.9307 94.66 14.5907 94 15.4007 94H37.8707C38.6807 94 39.3407 94.66 39.3407 95.47Z" fill="#A9D0FF"/>
<path d="M63.4107 103.5C63.4107 104.31 62.7507 104.97 61.9407 104.97H15.4007C14.5907 104.97 13.9307 104.31 13.9307 103.5C13.9307 102.69 14.5907 102.03 15.4007 102.03H61.9407C62.7507 102.03 63.4107 102.68 63.4107 103.5Z" fill="#A9D0FF"/>
<path d="M63.4107 111.52C63.4107 112.33 62.7507 112.99 61.9407 112.99H15.4007C14.5907 112.99 13.9307 112.33 13.9307 111.52C13.9307 110.71 14.5907 110.05 15.4007 110.05H61.9407C62.7507 110.05 63.4107 110.71 63.4107 111.52Z" fill="#A9D0FF"/>
<path d="M55.3907 119.54C55.3907 120.35 54.7307 121.01 53.9207 121.01H15.4007C14.5907 121.01 13.9307 120.35 13.9307 119.54C13.9307 118.73 14.5907 118.07 15.4007 118.07H53.9107C54.7307 118.07 55.3907 118.73 55.3907 119.54Z" fill="#A9D0FF"/>
<path opacity="0.1" d="M59.7002 83.2002H58.9102C59.3102 109.17 39.0202 125.14 23.4902 133.53H37.2402L49.5102 141.53V133.53H59.7002C65.0202 133.53 69.3302 129.22 69.3302 123.9V92.8302C69.3302 87.5102 65.0202 83.2002 59.7002 83.2002Z" fill="#114068"/>
<path d="M262.841 9.7002H325.871C333.511 9.7002 339.701 15.8902 339.701 23.5302V68.1702C339.701 75.8102 333.511 82.0002 325.871 82.0002H295.101L277.481 94.9002V82.0002H262.841C255.201 82.0002 249.011 75.8102 249.011 68.1702V23.5302C249.011 15.8902 255.201 9.7002 262.841 9.7002Z" fill="#209CD4"/>
<path opacity="0.1" d="M262.841 9.7002H263.971C263.391 47.0102 292.551 69.9402 314.851 82.0002H295.101L277.481 93.5002V82.0002H262.841C255.201 82.0002 249.011 75.8102 249.011 68.1702V23.5302C249.011 15.8902 255.201 9.7002 262.841 9.7002Z" fill="#114068"/>
<path d="M292.851 106.5H340.141C343.281 106.5 345.821 109.04 345.821 112.18V130.51C345.821 133.65 343.281 136.19 340.141 136.19H316.801L309.571 144.95V136.19H292.851C289.711 136.19 287.171 133.65 287.171 130.51V112.18C287.181 109.05 289.721 106.5 292.851 106.5Z" fill="#F5BE0B"/>
<path d="M328.24 120.81C328.24 122.6 329.69 124.06 331.49 124.06C333.28 124.06 334.74 122.61 334.74 120.81C334.74 119.02 333.29 117.56 331.49 117.56C329.69 117.57 328.24 119.02 328.24 120.81Z" fill="white"/>
<path d="M313.251 120.81C313.251 122.6 314.701 124.06 316.501 124.06C318.291 124.06 319.751 122.61 319.751 120.81C319.751 119.02 318.301 117.56 316.501 117.56C314.711 117.57 313.251 119.02 313.251 120.81Z" fill="white"/>
<path d="M298.271 120.81C298.271 122.6 299.721 124.06 301.521 124.06C303.311 124.06 304.771 122.61 304.771 120.81C304.771 119.02 303.321 117.56 301.521 117.56C299.721 117.57 298.271 119.02 298.271 120.81Z" fill="white"/>
<path opacity="0.1" d="M292.851 106.5H299.801C298.771 123.2 315.171 131.86 329.101 136.19H316.801L309.571 144.95V136.19H292.851C289.711 136.19 287.171 133.65 287.171 130.51V112.18C287.181 109.05 289.721 106.5 292.851 106.5Z" fill="#114068"/>
<path d="M112.752 25.8452C113.1 11.9262 102.099 0.36056 88.1797 0.0124829C74.2608 -0.335595 62.6951 10.6657 62.347 24.5847C61.999 38.5036 73.0003 50.0693 86.9192 50.4174C100.838 50.7654 112.404 39.7641 112.752 25.8452Z" fill="#68C1EA"/>
<path d="M100.101 14.4306C95.4107 18.6606 90.7207 22.8906 86.0207 27.1206C83.0307 25.6206 80.0407 24.1306 77.0607 22.6306C75.2307 21.7206 73.6307 24.4506 75.4607 25.3706C78.8007 27.0406 82.1407 28.7206 85.4807 30.3906C86.1507 30.7306 86.8407 30.6506 87.4007 30.1406C92.3807 25.6506 97.3607 21.1606 102.341 16.6706C103.871 15.3006 101.611 13.0706 100.101 14.4306Z" fill="white"/>
<path d="M87.5512 5.54969C88.2747 5.54969 88.8612 4.96318 88.8612 4.23969C88.8612 3.51619 88.2747 2.92969 87.5512 2.92969C86.8277 2.92969 86.2412 3.51619 86.2412 4.23969C86.2412 4.96318 86.8277 5.54969 87.5512 5.54969Z" fill="#0282A6"/>
<path d="M88.8612 46.4702C88.8612 47.1902 88.2712 47.7802 87.5512 47.7802C86.8312 47.7802 86.2412 47.1902 86.2412 46.4702C86.2412 45.7502 86.8212 45.1602 87.5512 45.1602C88.2712 45.1602 88.8612 45.7502 88.8612 46.4702Z" fill="#0282A6"/>
<path d="M108.671 26.66C107.951 26.66 107.361 26.07 107.361 25.35C107.361 24.63 107.941 24.04 108.671 24.04C109.391 24.04 109.981 24.63 109.981 25.35C109.981 26.08 109.391 26.66 108.671 26.66Z" fill="#0282A6"/>
<path d="M66.4409 26.66C65.7209 26.66 65.1309 26.07 65.1309 25.35C65.1309 24.63 65.7109 24.04 66.4409 24.04C67.1609 24.04 67.7509 24.63 67.7509 25.35C67.7409 26.08 67.1609 26.66 66.4409 26.66Z" fill="#0282A6"/>
<path d="M99.3412 7.79015C98.9812 8.41015 98.1712 8.62015 97.5512 8.26015C96.9312 7.90015 96.7212 7.09015 97.0812 6.47015C97.4512 5.85015 98.2512 5.64015 98.8712 6.00015C99.5012 6.36015 99.7112 7.16015 99.3412 7.79015Z" fill="#0282A6"/>
<path d="M78.0209 44.2403C77.6509 44.8603 76.8509 45.0703 76.2309 44.7103C75.6109 44.3403 75.4009 43.5403 75.7609 42.9203C76.1209 42.3003 76.9309 42.0903 77.5509 42.4503C78.1809 42.8103 78.3909 43.6203 78.0209 44.2403Z" fill="#0282A6"/>
<path d="M105.112 37.14C104.492 36.77 104.282 35.97 104.642 35.35C105.012 34.73 105.812 34.52 106.432 34.88C107.062 35.25 107.262 36.05 106.902 36.67C106.542 37.3 105.742 37.51 105.112 37.14Z" fill="#0282A6"/>
<path d="M68.6713 15.8197C68.0513 15.4497 67.8413 14.6497 68.2013 14.0297C68.5713 13.4097 69.3713 13.1997 69.9913 13.5597C70.6113 13.9297 70.8213 14.7297 70.4613 15.3497C70.0913 15.9797 69.2913 16.1897 68.6713 15.8197Z" fill="#0282A6"/>
<path d="M75.7609 7.78998C76.1309 8.40998 76.9309 8.61998 77.5509 8.25998C78.1709 7.89998 78.3809 7.08998 78.0209 6.46998C77.6609 5.83998 76.8609 5.62998 76.2309 5.99998C75.6109 6.35998 75.4009 7.15998 75.7609 7.78998Z" fill="#0282A6"/>
<path d="M97.0812 44.2403C97.4512 44.8603 98.2512 45.0703 98.8712 44.7103C99.4912 44.3403 99.7012 43.5403 99.3412 42.9203C98.9812 42.3003 98.1712 42.0903 97.5512 42.4503C96.9312 42.8103 96.7212 43.6203 97.0812 44.2403Z" fill="#0282A6"/>
<path d="M69.9911 37.14C70.6111 36.77 70.8212 35.97 70.4612 35.35C70.1012 34.73 69.2911 34.52 68.6711 34.88C68.0411 35.25 67.8311 36.05 68.2011 36.67C68.5611 37.3 69.3611 37.51 69.9911 37.14Z" fill="#0282A6"/>
<path d="M106.442 15.8197C107.062 15.4497 107.272 14.6497 106.912 14.0297C106.542 13.4097 105.742 13.1997 105.122 13.5597C104.502 13.9297 104.292 14.7297 104.652 15.3497C105.012 15.9797 105.822 16.1897 106.442 15.8197Z" fill="#0282A6"/>
<path d="M323.929 29.525L265.698 24.2686L261.878 66.5843L320.109 71.8408L323.929 29.525Z" fill="white"/>
<path d="M270.161 29.1803C269.521 29.1203 269.051 28.5603 269.111 27.9203L269.621 22.3003C269.681 21.6603 270.241 21.1903 270.881 21.2503C271.521 21.3103 271.991 21.8703 271.931 22.5103L271.421 28.1303C271.371 28.7703 270.801 29.2403 270.161 29.1803Z" fill="#455A64"/>
<path d="M277.09 29.8102C276.45 29.7502 275.98 29.1902 276.04 28.5502L276.55 22.9302C276.61 22.2902 277.17 21.8202 277.81 21.8802C278.45 21.9402 278.92 22.5002 278.86 23.1402L278.35 28.7602C278.3 29.3902 277.73 29.8702 277.09 29.8102Z" fill="#455A64"/>
<path d="M284.031 30.4303C283.391 30.3703 282.921 29.8103 282.981 29.1703L283.491 23.5503C283.551 22.9103 284.111 22.4403 284.751 22.5003C285.391 22.5603 285.861 23.1203 285.801 23.7603L285.291 29.3803C285.231 30.0203 284.671 30.4903 284.031 30.4303Z" fill="#455A64"/>
<path d="M290.96 31.0602C290.32 31.0002 289.85 30.4402 289.91 29.8002L290.42 24.1802C290.48 23.5402 291.04 23.0702 291.68 23.1302C292.32 23.1902 292.79 23.7502 292.73 24.3902L292.22 30.0102C292.16 30.6502 291.6 31.1202 290.96 31.0602Z" fill="#455A64"/>
<path d="M297.891 31.69C297.251 31.63 296.781 31.07 296.841 30.43L297.351 24.81C297.411 24.17 297.971 23.7 298.611 23.76C299.251 23.82 299.721 24.38 299.661 25.02L299.151 30.64C299.101 31.27 298.531 31.74 297.891 31.69Z" fill="#455A64"/>
<path d="M304.821 32.3102C304.181 32.2502 303.711 31.6902 303.771 31.0502L304.281 25.4302C304.341 24.7902 304.901 24.3202 305.541 24.3802C306.181 24.4402 306.651 25.0002 306.591 25.6402L306.081 31.2602C306.031 31.9002 305.461 32.3702 304.821 32.3102Z" fill="#455A64"/>
<path d="M311.76 32.94C311.12 32.88 310.65 32.32 310.71 31.68L311.22 26.06C311.28 25.42 311.84 24.95 312.48 25.01C313.12 25.07 313.59 25.63 313.53 26.27L313.02 31.89C312.96 32.52 312.4 33 311.76 32.94Z" fill="#455A64"/>
<path d="M318.691 33.5699C318.051 33.5099 317.581 32.9499 317.641 32.3099L318.151 26.6899C318.211 26.0499 318.771 25.5799 319.411 25.6399C320.051 25.6999 320.521 26.2599 320.461 26.8999L319.951 32.5199C319.901 33.1499 319.331 33.6199 318.691 33.5699Z" fill="#455A64"/>
<path d="M287.334 35.9696L281.418 35.4355L280.884 41.3512L286.8 41.8852L287.334 35.9696Z" fill="#62C9F8"/>
<path d="M296.603 36.8084L290.688 36.2744L290.153 42.1901L296.069 42.7241L296.603 36.8084Z" fill="#62C9F8"/>
<path d="M305.882 37.6492L299.967 37.1152L299.433 43.0309L305.348 43.5649L305.882 37.6492Z" fill="#62C9F8"/>
<path d="M315.152 38.4881L309.236 37.9541L308.702 43.8697L314.618 44.4038L315.152 38.4881Z" fill="#FCC436"/>
<path d="M277.283 43.6697L271.367 43.1357L270.833 49.0514L276.749 49.5854L277.283 43.6697Z" fill="#FCC436"/>
<path d="M286.563 44.4998L280.647 43.9658L280.113 49.8815L286.029 50.4155L286.563 44.4998Z" fill="#62C9F8"/>
<path d="M295.833 45.3387L289.917 44.8047L289.383 50.7203L295.299 51.2543L295.833 45.3387Z" fill="#62C9F8"/>
<path d="M305.112 46.1795L299.196 45.6455L298.662 51.5612L304.578 52.0952L305.112 46.1795Z" fill="#62C9F8"/>
<path d="M314.381 47.0184L308.466 46.4844L307.932 52.4L313.847 52.934L314.381 47.0184Z" fill="#FCC436"/>
<path d="M276.513 52.199L270.598 51.665L270.064 57.5807L275.979 58.1147L276.513 52.199Z" fill="#FCC436"/>
<path d="M285.794 53.0291L279.878 52.4951L279.344 58.4108L285.26 58.9448L285.794 53.0291Z" fill="#62C9F8"/>
<path d="M295.063 53.868L289.147 53.334L288.613 59.2496L294.529 59.7836L295.063 53.868Z" fill="#62C9F8"/>
<path d="M304.342 54.7088L298.427 54.1748L297.893 60.0905L303.808 60.6245L304.342 54.7088Z" fill="#62C9F8"/>
</g>
<defs>
<filter id="filter0_d_50_14725" x="0" y="0" width="443.45" height="350" filterUnits="userSpaceOnUse" color-interpolation-filters="sRGB">
<feFlood flood-opacity="0" result="BackgroundImageFix"/>
<feColorMatrix in="SourceAlpha" type="matrix" values="0 0 0 0 0 0 0 0 0 0 0 0 0 0 0 0 0 0 127 0" result="hardAlpha"/>
<feOffset dy="4"/>
<feGaussianBlur stdDeviation="2"/>
<feComposite in2="hardAlpha" operator="out"/>
<feColorMatrix type="matrix" values="0 0 0 0 0 0 0 0 0 0 0 0 0 0 0 0 0 0 0.25 0"/>
<feBlend mode="normal" in2="BackgroundImageFix" result="effect1_dropShadow_50_14725"/>
<feBlend mode="normal" in="SourceGraphic" in2="effect1_dropShadow_50_14725" result="shape"/>
</filter>
<clipPath id="clip0_50_14725">
<rect width="435.45" height="342" fill="white" transform="translate(4)"/>
</clipPath>
</defs>
</svg>
