<svg width="583" height="584" viewBox="0 0 583 584" fill="none" xmlns="http://www.w3.org/2000/svg">
<g clip-path="url(#clip0_163_16324)">
<path d="M6.80117 511.924C6.80117 511.924 3.16689 527.835 19.8964 532.083C42.7809 537.895 172.171 553.489 139.537 565.092C121.116 571.643 153.881 580.213 243.608 583.49C333.335 586.764 487.299 573.933 435.523 554.945C383.747 535.958 595.286 551.419 582.436 511.924H6.80117Z" fill="#D8F1FF"/>
<path d="M9.15911 511.652C9.15911 511.652 -30.4101 346.008 54.9415 286.068C93.1967 259.202 134.798 331.421 184.19 301.449C228.163 274.764 200.014 212.419 242.827 182.359C295.486 145.388 383.443 328.939 445.237 300.465C542.441 255.675 597.144 327.031 579.822 511.924L9.15911 511.652Z" fill="#C3E2F4"/>
<path d="M553.926 62.0105L510.959 384.232C510.221 389.771 505.134 393.663 499.598 392.924L251.772 359.796C246.215 359.079 242.331 353.863 243.087 348.424L286.054 26.203C286.792 20.6634 291.88 16.772 297.416 17.5106L545.241 50.6383C550.777 51.3769 554.667 56.4709 553.926 62.0105Z" fill="#3BBDF8"/>
<path d="M553.927 62.0105L510.96 384.232C510.222 389.771 505.134 393.663 499.598 392.924L251.773 359.796C246.636 359.11 242.92 354.678 242.999 349.617C243.511 348.952 243.783 348.601 243.783 348.601C243.783 348.601 493.715 370.112 536.353 50.3575L537.508 49.6067C545.605 50.2873 554.771 51.5326 553.927 62.0105Z" fill="#209CD4"/>
<path d="M304.125 33.9692L263.733 336.958L494.023 367.733L534.415 64.7444L304.125 33.9692Z" fill="#E9F4FF"/>
<path d="M426.043 334.488C388.52 328.784 395.989 272.823 433.685 277.179C471.208 282.883 463.736 338.847 426.043 334.488ZM433.069 281.787C401.43 278.134 395.172 325.1 426.659 329.883C458.298 333.533 464.553 286.567 433.069 281.787Z" fill="#FFB822"/>
<path d="M495.092 37.6394L468.025 34.0226L470.122 18.292C470.628 14.4891 467.961 10.9975 464.163 10.4908L386.179 0.0617304C382.38 -0.444921 378.893 2.22263 378.384 6.02557L376.287 21.7562C341.574 18.7285 342.727 8.48863 338.788 43.9145C338.282 47.7175 340.946 51.2091 344.745 51.7188L490.614 71.2188C494.412 71.7254 497.899 69.0548 498.405 65.2519L501.048 45.4406C501.554 41.6407 498.887 38.146 495.092 37.6394ZM422.744 23.4715C416.861 22.5833 418.034 13.8024 423.942 14.4891C429.823 15.3772 428.652 24.1582 422.744 23.4715Z" fill="#026BA6"/>
<path d="M501.045 45.4405L498.402 65.2518C497.896 69.0547 494.409 71.7253 490.611 71.2187L344.742 51.7187C340.944 51.2121 338.279 47.7174 338.785 43.9144C338.785 43.9144 456.713 66.3414 464.163 10.4846C467.961 10.9913 470.629 14.4829 470.122 18.2858L468.025 34.0164L495.092 37.6332C498.887 38.146 501.555 41.6406 501.045 45.4405Z" fill="#117FBD"/>
<path d="M425.171 5.27474C382.497 -0.42966 376.287 21.7562 376.287 21.7562L378.384 6.02557C378.89 2.22263 382.381 -0.444921 386.179 0.0617304L425.171 5.27474Z" fill="#208ECC"/>
<path d="M381.616 324.914C380.863 324.853 380.131 324.679 379.427 324.383C375.906 322.905 373.608 318.754 372.55 312C370.529 313.957 368.066 315.974 365.069 317.97C364.386 318.425 363.46 318.239 363.005 317.555C362.551 316.871 362.737 315.943 363.42 315.489C367.136 313.013 369.962 310.526 372.108 308.191C371.91 305.722 371.84 302.984 371.901 299.981C372.071 291.533 374.016 286.347 377.235 285.752C378.598 285.502 380.427 286.155 381.473 288.746C382.793 292.012 382.332 296.752 380.238 301.428C379.278 303.573 377.717 306.265 375.193 309.201C375.47 311.854 375.918 314.134 376.534 316.02C377.507 318.993 378.903 320.934 380.573 321.636C382.796 322.57 385.841 321.37 388.713 318.425C389.548 317.57 390.301 316.636 390.956 315.666C388.773 312.205 388.682 308.356 389.484 305.649C390.164 303.344 391.49 301.873 393.026 301.714C393.748 301.641 395.111 301.8 396.132 303.704C396.151 303.735 396.166 303.769 396.181 303.802C397.687 307.175 396.669 311.609 394.544 315.476C394.913 315.885 395.334 316.285 395.815 316.673C397.205 317.796 398.333 318.294 399.071 318.114C400.251 317.827 401.235 315.58 402.104 313.596C403.006 311.542 403.939 309.415 405.46 308.072C406.033 307.565 407.78 306.021 409.698 306.659C411.95 307.41 412.588 310.502 413.264 313.776C413.591 315.357 413.929 316.987 414.404 318.08C415.609 316.96 417.797 313.221 419.306 310.645C421.565 306.79 423.9 302.801 425.991 301.009C427.138 300.027 428.159 299.798 429.018 300.332C430.671 301.357 430.04 303.86 428.656 309.339C427.781 312.806 426.58 317.552 427.01 319.411C427.025 319.472 427.037 319.521 427.052 319.563C427.915 319.368 429.951 317.778 431.204 316.801C433.759 314.808 436.17 312.925 438.289 313.093C439.109 313.157 439.718 313.877 439.654 314.695C439.59 315.516 438.871 316.127 438.054 316.063C437.091 315.986 434.652 317.891 433.036 319.148C430.308 321.276 427.952 323.116 425.952 322.405C425.302 322.173 424.458 321.584 424.111 320.079C423.522 317.521 424.665 312.989 425.772 308.609C426.095 307.333 426.482 305.798 426.741 304.547C425.229 306.427 423.47 309.433 421.873 312.156C418.331 318.199 416.38 321.352 414.13 321.337C413.63 321.33 412.691 321.153 412.036 320C411.207 318.535 410.771 316.426 410.35 314.384C410.018 312.778 409.402 309.793 408.753 309.488C408.756 309.491 408.366 309.482 407.43 310.309C406.399 311.219 405.601 313.038 404.829 314.799C403.625 317.54 402.382 320.375 399.775 321.013C398.053 321.434 396.148 320.775 393.944 318.999C393.569 318.696 393.221 318.385 392.895 318.068C392.252 318.95 391.557 319.774 390.837 320.512C387.813 323.62 384.558 325.149 381.616 324.914ZM393.276 304.742C392.971 305.005 392.361 305.896 392.111 307.562C391.993 308.347 391.837 310.325 392.703 312.519C393.931 309.708 394.3 306.934 393.492 305.066C393.407 304.907 393.331 304.803 393.276 304.742ZM377.808 288.682C377.796 288.682 377.787 288.682 377.778 288.682C377.211 288.786 375.062 291.02 374.879 300.039C374.845 301.693 374.854 303.265 374.903 304.748C376.098 303.06 376.937 301.516 377.525 300.204C379.607 295.555 379.506 291.813 378.717 289.86C378.378 289.027 377.979 288.697 377.808 288.682Z" fill="#878787"/>
<path d="M502.527 163.313L374.339 146.179C373.016 146.002 372.086 144.784 372.263 143.462C372.44 142.138 373.656 141.207 374.976 141.384L503.164 158.518C504.487 158.695 505.417 159.913 505.24 161.235C505.063 162.559 503.85 163.49 502.527 163.313Z" fill="#878787"/>
<path d="M359.954 144.256L308.933 137.434C307.609 137.257 306.68 136.04 306.857 134.718C307.033 133.393 308.25 132.462 309.57 132.64L360.591 139.461C361.914 139.638 362.843 140.856 362.667 142.177C362.49 143.502 361.274 144.433 359.954 144.256Z" fill="#878787"/>
<path d="M499.845 183.43L306.25 157.551C304.927 157.374 303.997 156.156 304.174 154.834C304.351 153.51 305.567 152.579 306.887 152.756L500.482 178.635C501.805 178.812 502.734 180.03 502.558 181.351C502.381 182.676 501.168 183.607 499.845 183.43Z" fill="#878787"/>
<path d="M497.815 103.141L329.427 80.6314C327.409 80.3628 325.992 78.5041 326.26 76.4836C326.528 74.4631 328.385 73.0438 330.403 73.3124L498.79 95.8218C500.808 96.0904 502.226 97.9491 501.958 99.9696C501.689 101.99 499.836 103.409 497.815 103.141Z" fill="#026BA6"/>
<path d="M469.925 119.885L351.955 104.115C349.937 103.846 348.519 101.987 348.787 99.9667C349.056 97.9462 350.912 96.527 352.93 96.7956L470.9 112.566C472.918 112.834 474.336 114.693 474.068 116.714C473.799 118.734 471.943 120.153 469.925 119.885Z" fill="#026BA6"/>
<path d="M497.162 203.543L434.551 195.174C433.228 194.997 432.298 193.78 432.475 192.458C432.651 191.133 433.868 190.202 435.188 190.38L497.799 198.748C499.122 198.925 500.052 200.143 499.875 201.465C499.698 202.789 498.485 203.72 497.162 203.543Z" fill="#878787"/>
<path d="M415.828 192.672L303.567 177.664C302.244 177.487 301.314 176.27 301.491 174.948C301.668 173.623 302.884 172.692 304.204 172.869L416.465 187.877C417.788 188.054 418.717 189.272 418.541 190.593C418.367 191.918 417.151 192.849 415.828 192.672Z" fill="#878787"/>
<path d="M494.48 223.66L433.81 215.55C432.487 215.373 431.558 214.155 431.734 212.834C431.911 211.512 433.128 210.578 434.448 210.755L495.117 218.865C496.44 219.042 497.37 220.26 497.193 221.581C497.019 222.906 495.803 223.837 494.48 223.66Z" fill="#878787"/>
<path d="M414.69 212.993L354.451 204.941C353.128 204.764 352.198 203.546 352.375 202.225C352.552 200.903 353.768 199.969 355.088 200.146L415.328 208.198C416.651 208.375 417.58 209.593 417.404 210.914C417.227 212.239 416.013 213.17 414.69 212.993Z" fill="#878787"/>
<path d="M337.974 202.737L300.888 197.781C299.565 197.604 298.635 196.386 298.812 195.064C298.988 193.743 300.205 192.809 301.525 192.986L338.612 197.943C339.935 198.12 340.864 199.337 340.687 200.659C340.511 201.984 339.294 202.914 337.974 202.737Z" fill="#878787"/>
<path d="M491.797 243.773L298.202 217.894C296.879 217.717 295.949 216.5 296.126 215.178C296.303 213.853 297.519 212.922 298.839 213.099L492.434 238.978C493.757 239.155 494.687 240.373 494.51 241.695C494.336 243.019 493.12 243.95 491.797 243.773Z" fill="#878787"/>
<path d="M489.114 263.89L407.78 253.018C406.457 252.841 405.527 251.623 405.704 250.302C405.881 248.977 407.097 248.046 408.417 248.223L489.752 259.095C491.075 259.272 492.004 260.49 491.828 261.811C491.654 263.136 490.437 264.064 489.114 263.89Z" fill="#878787"/>
<path d="M387.989 250.372L295.522 238.011C294.199 237.834 293.27 236.616 293.446 235.294C293.623 233.97 294.839 233.039 296.159 233.216L388.627 245.577C389.95 245.754 390.879 246.972 390.702 248.293C390.526 249.618 389.309 250.546 387.989 250.372Z" fill="#878787"/>
<path d="M194.165 166.353L74.6073 199.029C60.8285 202.795 52.7076 217.031 56.4693 230.829L118.212 457.299C121.973 471.095 136.191 479.226 149.973 475.462L269.531 442.786C283.31 439.02 291.431 424.782 287.669 410.986L225.927 184.516C222.165 170.721 207.944 162.59 194.165 166.353Z" fill="#42ACDC"/>
<path d="M156.332 413.584C156.332 413.587 147.187 431.756 147.208 431.759L166.386 441.422C174.174 445.68 183.838 437.512 180.774 429.226C179.957 426.754 178.201 424.593 175.695 423.329C175.689 423.329 156.335 413.562 156.332 413.584Z" fill="#016692"/>
<path d="M123.3 408.407C120.831 413.416 122.855 419.487 127.845 422.001L147.193 431.75C147.218 431.759 156.341 413.581 156.329 413.572C147.519 410.406 130.323 394.984 123.3 408.407Z" fill="white"/>
<path d="M245.488 389.371C245.488 389.374 236.343 407.544 236.364 407.547L255.542 417.21C263.33 421.467 272.994 413.3 269.93 405.013C269.113 402.541 267.357 400.38 264.852 399.117C264.845 399.117 245.488 389.35 245.488 389.371Z" fill="#016692"/>
<path d="M212.453 384.195C209.984 389.204 212.008 395.274 216.998 397.789L236.347 407.538C236.371 407.547 245.495 389.368 245.483 389.359C236.676 386.194 219.48 370.775 212.453 384.195Z" fill="white"/>
<path d="M107.765 234.309C107.765 234.312 98.6193 252.481 98.6407 252.484L117.818 262.147C125.607 266.405 135.27 258.237 132.207 249.951C131.39 247.479 129.634 245.318 127.128 244.054C127.125 244.054 107.768 234.287 107.765 234.309Z" fill="#016692"/>
<path d="M74.7325 229.132C72.2633 234.141 74.2874 240.211 79.2776 242.726L98.6258 252.475C98.6502 252.484 107.774 234.306 107.762 234.296C98.955 231.131 81.756 215.709 74.7325 229.132Z" fill="white"/>
<path d="M196.921 210.096C196.921 210.099 187.776 228.269 187.797 228.272L206.974 237.935C214.763 242.192 224.426 234.025 221.363 225.738C220.546 223.266 218.79 221.105 216.284 219.842C216.278 219.842 196.924 210.075 196.921 210.096Z" fill="#016692"/>
<path d="M163.886 204.92C161.417 209.928 163.441 215.999 168.431 218.514L187.779 228.262C187.804 228.271 196.927 210.093 196.915 210.084C188.108 206.919 170.912 191.5 163.886 204.92Z" fill="white"/>
<path d="M123.955 294.066C123.955 294.069 114.81 312.238 114.831 312.241L134.009 321.904C141.797 326.162 151.461 317.995 148.397 309.708C147.58 307.236 145.824 305.075 143.318 303.811C143.312 303.811 123.958 294.045 123.955 294.066Z" fill="#016692"/>
<path d="M90.9219 288.89C88.4527 293.898 90.4769 299.969 95.4671 302.484L114.815 312.232C114.84 312.241 123.964 294.063 123.951 294.054C115.141 290.889 97.9454 275.469 90.9219 288.89Z" fill="white"/>
<path d="M213.108 269.856C213.108 269.86 203.963 288.029 203.984 288.032L223.162 297.695C230.951 301.953 240.614 293.785 237.55 285.499C236.733 283.026 234.977 280.865 232.472 279.602C232.469 279.599 213.111 269.832 213.108 269.856Z" fill="#016692"/>
<path d="M180.076 264.68C177.607 269.689 179.631 275.759 184.621 278.274L203.97 288.023C203.994 288.032 213.118 269.854 213.106 269.844C204.296 266.679 187.1 251.257 180.076 264.68Z" fill="white"/>
<path d="M140.144 353.826C140.144 353.83 130.999 371.999 131.021 372.002L150.198 381.665C157.987 385.923 167.65 377.755 164.586 369.469C163.769 366.996 162.014 364.835 159.508 363.572C159.502 363.569 140.144 353.802 140.144 353.826Z" fill="#016692"/>
<path d="M107.109 348.65C104.64 353.659 106.664 359.729 111.655 362.244L131.003 371.993C131.027 372.002 140.151 353.823 140.139 353.814C131.332 350.649 114.136 335.227 107.109 348.65Z" fill="white"/>
<path d="M229.299 329.614C229.299 329.617 220.154 347.786 220.175 347.789L239.352 357.452C247.141 361.71 256.804 353.542 253.741 345.256C252.924 342.784 251.168 340.623 248.662 339.359C248.656 339.359 229.302 329.592 229.299 329.614Z" fill="#016692"/>
<path d="M196.266 324.438C193.796 329.446 195.821 335.517 200.811 338.032L220.159 347.78C220.183 347.789 229.307 329.611 229.295 329.602C220.485 326.437 203.289 311.014 196.266 324.438Z" fill="white"/>
<path d="M138.502 197.003C136.432 197.564 135.209 199.698 135.773 201.77L200.875 442.081C201.436 444.154 203.567 445.378 205.636 444.816C207.706 444.254 208.926 442.121 208.365 440.049L143.263 199.734C142.702 197.662 140.571 196.441 138.502 197.003Z" fill="#309ACA"/>
<path d="M382.382 372.276V503.829C382.382 519.19 369.942 531.646 354.596 531.646H241.656C226.314 531.646 213.873 519.19 213.873 503.829V372.276C213.873 361.176 218.159 351.125 225.091 343.852C232.02 336.576 241.592 332.077 252.17 332.077C255.054 332.077 257.392 329.623 257.392 326.599V311.021H338.87V326.599C338.87 329.626 341.205 332.077 344.088 332.077C365.235 332.077 382.382 350.075 382.382 372.276Z" fill="#0090D7"/>
<path d="M382.382 372.276V503.829C382.382 519.19 369.942 531.646 354.596 531.646H241.656C226.314 531.646 213.873 519.19 213.873 503.829C379.825 503.829 382.382 372.276 382.382 372.276Z" fill="#0975AA"/>
<path d="M333.895 322.142H262.361C255.014 322.142 249.058 316.179 249.058 308.823V289.424C249.058 282.068 255.014 276.104 262.361 276.104H333.895C341.241 276.104 347.198 282.068 347.198 289.424V308.823C347.198 316.179 341.241 322.142 333.895 322.142Z" fill="#0975AA"/>
<path d="M360.623 369.111H235.63V497.038H360.623V369.111Z" fill="white"/>
<path d="M276.597 409.341C276.341 408.743 275.856 407.928 275.113 406.848C274.366 405.761 273.799 405.062 273.387 404.714C272.988 404.373 272.451 404.043 271.762 403.71C272.777 403.359 273.622 402.947 274.286 402.477C275.719 401.467 276.862 400.13 277.679 398.503C278.496 396.883 278.908 394.935 278.908 392.717C278.908 390.171 278.368 387.974 277.298 386.185C276.219 384.378 274.774 383.124 273.003 382.452C271.281 381.799 268.775 381.469 265.559 381.469H248.436C248.18 381.469 247.973 381.677 247.973 381.933V420.778C247.973 421.034 248.18 421.242 248.436 421.242H258.755C259.011 421.242 259.218 421.034 259.218 420.778V405.477H259.66C260.495 405.477 261.224 405.74 261.879 406.268C262.215 406.552 262.788 407.272 263.617 409.103L269.11 420.973C269.186 421.138 269.351 421.242 269.531 421.242H281.139C281.298 421.242 281.441 421.162 281.529 421.031C281.615 420.9 281.627 420.732 281.566 420.588L276.597 409.341ZM259.224 390.244H263.273C265.013 390.244 266.193 390.537 266.781 391.117C267.376 391.703 267.662 392.54 267.662 393.675C267.662 394.438 267.476 395.091 267.092 395.671C266.726 396.226 266.272 396.562 265.696 396.696C264.077 397.121 263.385 397.212 263.093 397.212H259.224V390.244Z" fill="#7CCFF4"/>
<path d="M319.954 420.552L308.758 400.747L318.982 382.162C319.061 382.019 319.058 381.842 318.976 381.701C318.894 381.561 318.741 381.473 318.577 381.473H307.374C307.194 381.473 307.032 381.576 306.956 381.735L301.643 392.823L296.18 381.729C296.101 381.57 295.939 381.469 295.762 381.469H284.444C284.279 381.469 284.127 381.558 284.044 381.698C283.962 381.842 283.959 382.016 284.041 382.159L294.339 400.53L282.999 420.546C282.916 420.689 282.919 420.866 283.002 421.01C283.084 421.153 283.236 421.242 283.404 421.242H294.881C295.052 421.242 295.211 421.147 295.293 420.994L301.448 409.296L307.602 420.994C307.682 421.147 307.84 421.242 308.014 421.242H319.558C319.723 421.242 319.875 421.153 319.957 421.01C320.037 420.872 320.037 420.695 319.954 420.552Z" fill="#7CCFF4"/>
<path d="M349.051 436.163H246.585C245.732 436.163 245.043 435.471 245.043 434.619C245.043 433.764 245.735 433.075 246.585 433.075H349.048C349.902 433.075 350.591 433.768 350.591 434.619C350.594 435.474 349.902 436.163 349.051 436.163Z" fill="#8A9EDD"/>
<path d="M349.051 449.065H291.924C291.071 449.065 290.382 448.372 290.382 447.52C290.382 446.666 291.074 445.976 291.924 445.976H349.051C349.905 445.976 350.594 446.669 350.594 447.52C350.594 448.375 349.902 449.065 349.051 449.065Z" fill="#8A9EDD"/>
<path d="M280.596 449.065H246.585C245.732 449.065 245.043 448.372 245.043 447.52C245.043 446.666 245.735 445.976 246.585 445.976H280.593C281.447 445.976 282.136 446.669 282.136 447.52C282.139 448.375 281.447 449.065 280.596 449.065Z" fill="#8A9EDD"/>
<path d="M349.051 461.966H246.585C245.732 461.966 245.043 461.273 245.043 460.422C245.043 459.57 245.735 458.877 246.585 458.877H349.048C349.902 458.877 350.591 459.57 350.591 460.422C350.591 461.273 349.902 461.966 349.051 461.966Z" fill="#8A9EDD"/>
<path d="M349.051 474.867H320.015C319.162 474.867 318.473 474.174 318.473 473.323C318.473 472.468 319.165 471.778 320.015 471.778H349.051C349.905 471.778 350.594 472.471 350.594 473.323C350.594 474.174 349.902 474.867 349.051 474.867Z" fill="#8A9EDD"/>
<path d="M308.956 474.867H246.585C245.732 474.867 245.043 474.174 245.043 473.323C245.043 472.468 245.735 471.778 246.585 471.778H308.953C309.806 471.778 310.495 472.471 310.495 473.323C310.498 474.174 309.806 474.867 308.956 474.867Z" fill="#8A9EDD"/>
<path d="M349.051 487.768H276.987C276.133 487.768 275.444 487.076 275.444 486.224C275.444 485.373 276.136 484.68 276.987 484.68H349.051C349.905 484.68 350.593 485.373 350.593 486.224C350.593 487.076 349.901 487.768 349.051 487.768Z" fill="#8A9EDD"/>
<path d="M266.281 487.768H246.585C245.732 487.768 245.043 487.076 245.043 486.224C245.043 485.373 245.735 484.68 246.585 484.68H266.281C267.135 484.68 267.824 485.373 267.824 486.224C267.824 487.076 267.135 487.768 266.281 487.768Z" fill="#8A9EDD"/>
<path d="M260.818 316.856C258.803 316.856 257.166 315.22 257.166 313.2V285.041C257.166 283.024 258.8 281.385 260.818 281.385C262.833 281.385 264.47 283.02 264.47 285.041V313.2C264.47 315.22 262.836 316.856 260.818 316.856Z" fill="#0090D7"/>
<path d="M290.666 316.856C288.651 316.856 287.014 315.22 287.014 313.2V285.041C287.014 283.024 288.648 281.385 290.666 281.385C292.681 281.385 294.318 283.02 294.318 285.041V313.2C294.318 315.22 292.684 316.856 290.666 316.856Z" fill="#0090D7"/>
<path d="M275.744 316.856C273.729 316.856 272.092 315.22 272.092 313.2V285.041C272.092 283.024 273.726 281.385 275.744 281.385C277.759 281.385 279.396 283.02 279.396 285.041V313.2C279.393 315.22 277.759 316.856 275.744 316.856Z" fill="#0090D7"/>
<path d="M305.59 316.856C303.575 316.856 301.938 315.22 301.938 313.2V285.041C301.938 283.024 303.572 281.385 305.59 281.385C307.605 281.385 309.242 283.02 309.242 285.041V313.2C309.239 315.22 307.605 316.856 305.59 316.856Z" fill="#0090D7"/>
<path d="M320.512 316.856C318.497 316.856 316.86 315.22 316.86 313.2V285.041C316.86 283.024 318.494 281.385 320.512 281.385C322.527 281.385 324.164 283.02 324.164 285.041V313.2C324.164 315.22 322.527 316.856 320.512 316.856Z" fill="#0090D7"/>
<path d="M335.434 316.856C333.419 316.856 331.782 315.22 331.782 313.2V285.041C331.782 283.024 333.416 281.385 335.434 281.385C337.449 281.385 339.086 283.02 339.086 285.041V313.2C339.086 315.22 337.452 316.856 335.434 316.856Z" fill="#0090D7"/>
<path d="M429.63 518.156V532.162C429.63 543.464 410.138 552.626 386.096 552.626C373.969 552.626 362.998 550.294 355.106 546.534C347.348 542.838 342.562 537.762 342.562 532.162V518.156H429.63Z" fill="#DCAA07"/>
<path d="M429.63 518.155C429.221 542.643 347.789 547.84 342.729 519.984C342.543 518.961 342.491 517.972 342.561 517.014C343.768 500.795 380.508 494.08 405.916 499.913C418.491 502.797 428.285 508.755 429.63 518.155Z" fill="#F5BE0B"/>
<path d="M406.044 499.962L367.848 538.242C366.857 538.043 366.107 537.469 365.156 537.237L402.554 499.19C403.545 499.388 405.093 499.733 406.044 499.962Z" fill="#DCAA07"/>
<path d="M218.376 540.534C218.379 540.527 221.937 509.848 221.967 509.863L254.341 513.647C267.766 514.761 273.208 533.196 262.407 541.141C259.31 543.592 255.28 544.864 251.049 544.37C251.049 544.367 218.361 540.564 218.376 540.534Z" fill="#F5BE0B"/>
<path d="M172.177 519.477C173.223 511.062 180.856 505.059 189.279 506.042L221.94 509.86C221.976 509.866 218.382 540.543 218.361 540.546C204.555 537.195 169.888 542.368 172.177 519.477Z" fill="#F2AC18"/>
<path d="M89.1601 473.072C87.0964 504.357 83.2127 535.571 78.9388 566.629C77.9451 573.985 69.184 575.389 68.37 567.361C67.6415 559.386 67.8671 551.902 67.233 543.888C65.7728 520.511 63.6999 497.099 61.1118 473.817C59.3346 453.615 89.8674 452.767 89.1601 473.072Z" fill="#F99370"/>
<path d="M66.6292 475.874L41.0562 568.64C40.2331 571.741 38.1815 572.858 35.0935 572.031C32.3378 571.293 30.5849 572.196 30.8258 569.44L38.9955 471.012C41.3 450.951 71.2384 456.191 66.6292 475.874Z" fill="#F99370"/>
<path d="M78.9388 566.626C90.855 567.2 94.324 571.268 95.2995 573.997C95.3056 574.012 95.3087 574.024 95.3148 574.04C95.7355 575.233 94.827 576.481 93.568 576.484L67.6414 576.57C67.2024 575.807 66.9616 574.961 66.8519 574.091C66.4099 570.56 68.1871 566.663 68.1871 566.663C68.1871 566.663 73.5645 568.051 78.9388 566.626Z" fill="#1D3F70"/>
<path d="M95.2992 574L66.8516 574.092C66.9583 574.961 67.2021 575.81 67.6411 576.57L93.5677 576.484C94.8298 576.481 95.7382 575.233 95.3145 574.04L95.2992 574Z" fill="#395B96"/>
<path d="M43.5228 573.817V576.149H28.4668V573.817C28.4668 569.641 31.8383 566.257 35.9933 566.257C40.1513 566.257 43.5228 569.641 43.5228 573.817Z" fill="#1D3F70"/>
<path d="M43.5228 573.817H28.4668V576.149H43.5228V573.817Z" fill="#395B96"/>
<path d="M37.1845 340.193C34.3129 345.171 35.4774 351.223 39.7848 353.714C44.0921 356.204 49.9085 354.187 52.7801 349.209C55.6517 344.231 54.4872 338.178 50.1798 335.688C45.8724 333.197 40.0561 335.215 37.1845 340.193Z" fill="#481D05"/>
<path d="M49.1625 345.399C49.1625 345.399 39.0174 341.398 38.051 326.87C37.039 311.622 51.9426 308.557 57.948 312.891L49.1625 345.399Z" fill="#481D05"/>
<path d="M67.2568 356.741C67.2568 356.741 92.3909 362.153 101.972 396.941L77.6885 402.474L67.2568 356.741Z" fill="white"/>
<path d="M78.0518 365.992C78.0518 365.992 85.4258 372.869 86.9897 377.169C88.5504 381.469 82.7402 381.729 82.7402 381.729L78.0518 365.992Z" fill="#D1E0F2"/>
<path d="M55.1064 311.594C69.7906 307.456 79.5576 328.82 72.5128 339.951L55.1064 311.594Z" fill="#481D05"/>
<path d="M39.0137 433.413H84.8524C85.0902 415.265 82.996 396.919 78.7404 379.296C76.198 369.011 74.7379 360.788 64.9494 355.291C65.6475 349.199 64.6964 340.418 63.8459 336.799C63.4009 334.845 62.0016 333.368 60.4348 332.877C56.42 331.482 51.6645 334.906 52.9022 339.439C53.2649 339.21 54.4325 352.129 53.6277 355.716C33.7308 362.073 43.8728 384.705 42.5132 399.889C42.4065 411.044 41.3335 422.508 39.0137 433.413Z" fill="#F99370"/>
<path d="M52.7927 338.846C52.8201 339.042 52.8567 339.243 52.9024 339.436C53.1646 339.262 53.8992 346.391 53.9053 351.565C58.7614 353.774 64.1601 352.779 65.1509 352.575C65.4313 345.497 65.7148 334.802 60.435 332.873C56.6458 331.253 52.1251 334.711 52.7927 338.846Z" fill="#E57D61"/>
<path d="M45.1621 334.082C45.9791 339.149 47.6862 344.859 51.6826 348.207H51.6887C53.3044 349.55 55.2706 350.405 57.3557 350.817C69.1622 354.122 83.008 340.382 73.7805 330.374C70.4272 327.273 69.717 321.776 67.0435 318.693C63.1568 313.047 54.6304 313.34 50.0243 317.946C45.8632 322.106 44.4396 327.844 45.1621 334.082Z" fill="#F99370"/>
<path d="M64.4716 330.96C64.9349 330.081 63.5418 329.373 63.1059 330.264C62.6425 331.146 64.0356 331.854 64.4716 330.96Z" fill="#C16256"/>
<path d="M70.9091 329.876C71.3724 328.997 69.9793 328.289 69.5434 329.18C69.0831 330.059 70.4732 330.768 70.9091 329.876Z" fill="#C16256"/>
<path d="M68.4763 336.545C69.8785 336.53 72.0581 335.581 70.287 334.335C68.8421 333.551 67.7751 330.548 67.766 330.517C66.2692 329.388 68.4001 334.064 70.0096 334.845C71.1436 335.541 68.7811 336.216 67.8026 335.871C67.6502 335.822 67.4855 335.904 67.4368 336.06C67.3545 336.579 68.1135 336.506 68.4763 336.545Z" fill="#C16256"/>
<path d="M97.3271 529.436C97.3271 529.436 63.1516 548.307 24.3271 529.595C24.3271 529.595 24.5863 525.88 25.0496 519.773C27.0707 492.682 32.8779 418.47 36.2799 411.719C41.5384 413.089 46.9371 414.02 52.3175 414.637C64.1209 416.01 78.2929 415.931 89.4287 414.68C90.9316 422.484 96.7205 495.301 97.2814 525.2C97.315 526.729 97.3271 528.145 97.3271 529.436Z" fill="#FFB822"/>
<path d="M36.7705 410.007C36.7705 410.007 59.2585 429.961 89.4316 414.676C89.392 414.621 85.176 367.097 64.9499 355.291C64.9499 355.291 67.3886 364.53 53.6251 355.716C36.6486 361.295 43.0472 388.681 36.7705 410.007Z" fill="#D2C099"/>
<path d="M89.4346 414.676C89.4346 414.676 62.3435 425.682 36.7735 410.007L33.9873 416.91C33.9873 416.91 54.8688 434.732 90.2973 422.871L89.4346 414.676Z" fill="#C99A03"/>
<path d="M52.3168 414.637C52.3107 414.676 52.3076 414.722 52.3015 414.765C51.2315 423.189 49.9268 468.497 49.9268 508.944C49.9268 508.944 48.4514 509.115 46.098 509.213C39.7726 509.481 27.1126 509.216 19.8574 503.64C19.8574 503.64 24.1496 425.344 25.436 418.473C28.9295 397.707 39.6232 376.818 49.4391 359.427C49.9512 358.524 50.4572 357.626 50.9633 356.741C63.3062 373.812 56.3224 394.435 52.3168 414.637Z" fill="white"/>
<path d="M45.1622 334.082C45.9792 339.149 47.6863 344.859 51.6828 348.207H51.6889C49.4727 345.454 48.0918 339.295 48.0918 339.295L49.1374 336.554C66.7053 330.878 65.2116 316.703 65.2116 316.703C62.5899 314.411 59.0386 313.993 55.6731 314.833C47.4272 316.969 44.1258 325.887 45.1622 334.082Z" fill="#E57D61"/>
<path d="M63.4285 315.418C63.4285 315.418 64.7484 329.428 49.0248 335.144L43.3822 332.025C37.8798 321.217 47.9365 305.264 63.4285 315.418Z" fill="#481D05"/>
<path d="M99.4327 506.988C98.0548 508.147 95.7289 508.721 93.7657 509.002V509.005C91.8574 509.28 90.2936 509.28 90.2936 509.28C87.3671 489.178 81.9532 400.731 78.0269 380.813C78.0116 380.734 77.9964 380.657 77.9811 380.581C75.8777 371.373 69.598 363.108 64.9492 355.291C65.1047 355.34 65.2571 355.392 65.4126 355.441C84.9284 361.911 88.4585 394.001 91.8422 435.8C94.2809 465.943 99.4327 506.988 99.4327 506.988Z" fill="white"/>
<path d="M50.5065 429.491C50.5065 429.491 35.2676 432.424 24.7354 425.197C24.7354 425.197 24.7506 421.339 25.4365 418.476C26.1193 415.61 50.7565 427.312 50.7565 427.312L50.5065 429.491Z" fill="#D1E0F2"/>
<path d="M52.3174 414.637C52.3113 414.676 52.3082 414.722 52.3021 414.765C51.2321 423.189 49.9274 468.497 49.9274 508.944C49.9274 508.944 48.452 509.115 46.0986 509.213L49.0556 417.091C54.3659 395.018 61.7034 373.4 50.9608 356.741C50.9608 356.741 51.5949 356.369 52.2808 356.103C52.9179 355.856 53.6068 355.716 53.6251 355.716C65.9742 372.786 56.323 394.435 52.3174 414.637Z" fill="#D1E0F2"/>
<path d="M93.7657 509.002V509.005C91.8574 509.28 90.2936 509.28 90.2936 509.28C87.3671 489.178 81.9532 400.731 78.0269 380.813C78.0116 380.734 77.9964 380.657 77.9811 380.581C75.8777 371.373 69.598 363.108 64.9492 355.291C65.1047 355.34 65.2571 355.392 65.4126 355.441C66.3881 355.774 67.3971 356.167 68.3207 356.653C69.2444 357.657 70.2992 359.036 71.2838 360.376C76.396 367.265 80.7613 376.284 81.8831 385.584C83.9377 402.123 91.7081 492.115 93.7657 509.002Z" fill="#D1E0F2"/>
<path d="M54.1762 381.176C54.1762 381.176 52.6886 386.963 47.9727 393.598C43.2538 400.234 35.5932 413.849 52.3777 414.182L51.7192 419.248L32.9746 417.005L36.7699 391.111L54.1762 381.176Z" fill="#D1E0F2"/>
<path d="M45.4882 359.995C33.0111 369.233 21.1346 386.432 19.903 401.699C18.6135 430.657 45.537 432.968 66.0497 421.806C70.3754 419.606 66.7782 412.952 62.1386 414.182C58.7579 415.052 56.368 415.812 53.0361 415.906C23.4575 416.734 41.2571 392.875 52.7251 382.144C52.7251 382.144 53.8287 354.138 45.4882 359.995Z" fill="#F99370"/>
<path d="M24.6011 423.222C27.4696 424.913 31.0088 426.192 35.304 426.946C35.304 426.946 35.3558 417.481 41.8184 414.383C41.8184 414.383 35.8009 406.036 44.062 394.795C48.5462 388.694 54.3961 384.561 55.3594 376.495C55.9417 371.626 50.9636 356.741 50.9636 356.741C45.9307 358.06 32.4507 362.952 23.5158 376.894C13.1818 393.022 9.16398 414.121 24.6011 423.222Z" fill="white"/>
<path d="M68.6143 432.809L101.781 430.258L111.978 373.412L78.8081 375.963L68.6143 432.809Z" fill="#194163"/>
<path d="M104.235 410.379C105.689 410.663 108.579 409.051 106.369 407.748C105.527 407.296 104.741 407.699 104.061 407.974L104.131 407.977C101.888 407.873 102.253 410.272 104.235 410.379Z" fill="#F99370"/>
<path d="M105.036 408.179C106.026 408.066 107.133 407.696 107.606 406.744C108.237 405.215 105.088 404.345 104.533 405.7C104.539 405.67 104.569 405.67 104.505 405.703C104.441 405.734 104.322 405.767 104.24 405.78C104.237 405.78 104.197 405.786 104.252 405.78C101.987 406.103 103.271 408.426 105.036 408.179Z" fill="#F99370"/>
<path d="M105.963 405.905L107.338 405.395C109.31 404.47 106.987 402.547 105.606 403.204L104.231 403.713C102.259 404.635 104.582 406.561 105.963 405.905Z" fill="#F99370"/>
<path d="M106.405 403.799L107.78 403.289C109.752 402.364 107.433 400.441 106.049 401.097L104.674 401.607C102.701 402.532 105.024 404.455 106.405 403.799Z" fill="#F99370"/>
<path d="M61.7367 417.86C61.7428 417.533 61.8434 417.234 62.008 416.978C61.5569 416.431 61.2033 414.915 61.691 414.301C64.0779 411.307 70.1046 409.555 73.5584 409.064C74.9333 408.868 76.3233 408.819 77.6982 408.902C79.0364 408.951 79.0577 411.054 77.7012 411.112C76.2319 411.203 74.7869 411.46 73.3908 411.902C75.1527 411.713 76.9726 411.634 78.7438 411.688C80.0515 411.676 80.21 413.715 78.8962 413.889C76.4087 414.243 73.9425 414.884 71.5678 415.714C73.909 415.436 76.2288 415.024 78.5304 414.506C79.8656 414.188 80.4143 416.273 79.0821 416.645C76.5702 417.417 74.0157 418.055 71.4337 418.55C72.7415 418.47 74.0888 418.327 75.3875 418.165C76.7013 417.976 77.1098 420.018 75.802 420.335C75.3234 420.463 74.8448 420.595 74.3663 420.717C70.9673 421.559 67.4891 422.203 63.9743 422.252C62.2976 422.438 61.124 420.396 62.2214 419.084C61.9135 418.769 61.7245 418.336 61.7367 417.86Z" fill="#F99370"/>
<path d="M55.5364 336.148C55.6645 336.148 55.7742 336.054 55.7894 335.923C55.8047 335.782 55.7041 335.657 55.5639 335.639L49.0555 334.891C48.9153 334.876 48.7903 334.976 48.772 335.117C48.7568 335.257 48.8574 335.382 48.9976 335.401L55.5059 336.148C55.5151 336.148 55.5242 336.148 55.5364 336.148Z" fill="#C16256"/>
<path d="M53.2345 344.371C53.3199 344.371 53.4052 344.325 53.454 344.246C53.5271 344.124 53.4875 343.968 53.3656 343.895L46.7506 339.942C46.6286 339.869 46.4732 339.909 46.4 340.031C46.3268 340.153 46.3665 340.309 46.4884 340.382L53.1034 344.334C53.1461 344.359 53.1888 344.371 53.2345 344.371Z" fill="#C16256"/>
<path d="M41.9495 336.643C43.1932 342.399 50.2167 340.913 49.0248 335.144C47.781 329.388 40.7606 330.875 41.9495 336.643Z" fill="#F99370"/>
<path d="M43.7754 337.833C43.9674 337.836 44.1107 337.641 44.0528 337.458C42.9584 334.397 44.3119 333.109 46.3757 333.957C46.7232 334.101 46.9396 333.548 46.586 333.417C44.1717 332.428 42.1902 333.96 43.498 337.626C43.5346 337.751 43.6504 337.833 43.7754 337.833Z" fill="#C16256"/>
<path d="M46.4795 337.427C47.3788 337.354 45.6656 334.574 43.4646 334.427C43.3092 334.418 43.1659 334.537 43.1567 334.699C43.1476 334.857 43.2665 334.998 43.4281 335.007C45.6778 335.236 45.9491 337.351 46.4795 337.427Z" fill="#C16256"/>
<path d="M45.1173 339.298C45.1051 340.144 46.4311 340.144 46.4189 339.298C46.4311 338.453 45.1051 338.453 45.1173 339.298Z" fill="#F4D4BE"/>
<path d="M75.3537 332.468C75.3537 332.468 70.5129 336.606 55.1063 335.148C55.1063 335.148 55.5513 341.041 52.7285 344.203C52.7285 344.203 60.569 350.329 69.452 348.9C69.452 348.9 75.6189 346.138 76.8292 340.605C78.0394 335.068 75.3537 332.468 75.3537 332.468Z" fill="white"/>
<path d="M60.3283 329.535C60.4137 329.535 60.4991 329.492 60.5478 329.413C62.2092 326.672 64.5595 326.473 64.5839 326.473C64.7241 326.464 64.8308 326.342 64.8217 326.202C64.8125 326.061 64.6906 325.958 64.5504 325.964C64.4437 325.97 61.9196 326.168 60.115 329.147C60.0418 329.266 60.0814 329.425 60.2003 329.498C60.2399 329.525 60.2826 329.535 60.3283 329.535Z" fill="#C16256"/>
<path d="M70.6438 326.962C70.7291 326.962 70.8114 326.919 70.8602 326.843C70.9334 326.724 70.8968 326.565 70.7779 326.492C70.7047 326.446 68.9428 325.365 66.9765 325.808C66.8394 325.838 66.754 325.976 66.7845 326.113C66.815 326.25 66.9522 326.339 67.0893 326.305C68.8544 325.909 70.4944 326.916 70.5096 326.925C70.5493 326.949 70.598 326.962 70.6438 326.962Z" fill="#C16256"/>
<path d="M60.8096 414.533C60.8096 414.533 59.9896 419.267 63.5105 423.106C63.5105 423.106 63.2117 424.037 61.5473 423.998C61.5473 423.998 58.5965 420.002 58.9226 415.021C58.9196 415.021 59.6725 414.093 60.8096 414.533Z" fill="#1D3F70"/>
<path d="M97.3271 529.436C97.3271 529.436 63.1516 548.307 24.3271 529.595C24.3271 529.595 24.5863 525.88 25.0496 519.773C28.4699 520.365 32.6584 522.09 37.542 525.92C52.281 537.481 61.3469 527.705 70.9494 525.92C79.6952 524.293 82.5942 532.137 97.2814 525.197C97.315 526.729 97.3271 528.145 97.3271 529.436Z" fill="#C99A03"/>
<path d="M252.097 135.423H238.62V121.93H229.551V135.423H216.074V144.506H229.551V157.997H238.62V144.506H252.097V135.423Z" fill="#209CD4"/>
<path d="M472.128 438.068H451.734V417.671H438.01V438.068H417.616V451.798H438.01V472.19H451.734V451.798H472.128V438.068Z" fill="#209CD4"/>
</g>
<defs>
<clipPath id="clip0_163_16324">
<rect width="583" height="584" fill="white"/>
</clipPath>
</defs>
</svg>
