<svg width="66" height="35" viewBox="0 0 66 35" fill="none" xmlns="http://www.w3.org/2000/svg">
<path d="M0 0H50C58.8366 0 66 7.16344 66 16V35H8C3.58172 35 0 31.4183 0 27V0Z" fill="#FFD686"/>
<path d="M10.92 22.108C10.032 22.108 9.256 21.928 8.592 21.568C7.936 21.2 7.428 20.684 7.068 20.02C6.716 19.356 6.54 18.588 6.54 17.716C6.54 16.852 6.716 16.092 7.068 15.436C7.428 14.772 7.936 14.26 8.592 13.9C9.256 13.532 10.032 13.348 10.92 13.348C11.48 13.348 12.02 13.432 12.54 13.6C13.068 13.768 13.492 13.996 13.812 14.284L13.128 15.88C12.432 15.376 11.712 15.124 10.968 15.124C10.28 15.124 9.752 15.344 9.384 15.784C9.016 16.216 8.832 16.86 8.832 17.716C8.832 18.58 9.016 19.232 9.384 19.672C9.752 20.112 10.28 20.332 10.968 20.332C11.712 20.332 12.432 20.08 13.128 19.576L13.812 21.172C13.492 21.46 13.068 21.688 12.54 21.856C12.02 22.024 11.48 22.108 10.92 22.108ZM18.8633 22.108C17.9913 22.108 17.2313 21.932 16.5833 21.58C15.9353 21.22 15.4353 20.708 15.0833 20.044C14.7393 19.38 14.5673 18.604 14.5673 17.716C14.5673 16.828 14.7433 16.056 15.0953 15.4C15.4473 14.744 15.9433 14.24 16.5833 13.888C17.2313 13.528 17.9913 13.348 18.8633 13.348C19.7353 13.348 20.4913 13.528 21.1313 13.888C21.7793 14.24 22.2753 14.744 22.6193 15.4C22.9633 16.056 23.1353 16.828 23.1353 17.716C23.1353 18.604 22.9633 19.38 22.6193 20.044C22.2753 20.708 21.7793 21.22 21.1313 21.58C20.4913 21.932 19.7353 22.108 18.8633 22.108ZM18.8633 20.392C19.5033 20.392 20.0033 20.164 20.3633 19.708C20.7313 19.252 20.9153 18.588 20.9153 17.716C20.9153 16.852 20.7313 16.196 20.3633 15.748C20.0033 15.292 19.5033 15.064 18.8633 15.064C18.2233 15.064 17.7233 15.288 17.3633 15.736C17.0033 16.184 16.8233 16.844 16.8233 17.716C16.8233 18.596 17.0033 19.264 17.3633 19.72C17.7233 20.168 18.2233 20.392 18.8633 20.392ZM27.5476 22.108C26.9076 22.108 26.2756 22.024 25.6516 21.856C25.0276 21.688 24.5196 21.46 24.1276 21.172L24.8356 19.576C25.2516 19.84 25.6916 20.044 26.1556 20.188C26.6276 20.324 27.0996 20.392 27.5716 20.392C28.0516 20.392 28.4196 20.328 28.6756 20.2C28.9316 20.064 29.0596 19.876 29.0596 19.636C29.0596 19.42 28.9436 19.244 28.7116 19.108C28.4796 18.964 28.0436 18.824 27.4036 18.688C26.5956 18.528 25.9676 18.332 25.5196 18.1C25.0716 17.86 24.7556 17.58 24.5716 17.26C24.3956 16.94 24.3076 16.552 24.3076 16.096C24.3076 15.576 24.4556 15.108 24.7516 14.692C25.0476 14.268 25.4636 13.94 25.9996 13.708C26.5356 13.468 27.1476 13.348 27.8356 13.348C28.4516 13.348 29.0476 13.436 29.6236 13.612C30.2076 13.78 30.6636 14.004 30.9916 14.284L30.2956 15.88C29.9196 15.616 29.5236 15.416 29.1076 15.28C28.6916 15.136 28.2756 15.064 27.8596 15.064C27.4516 15.064 27.1236 15.144 26.8756 15.304C26.6276 15.456 26.5036 15.664 26.5036 15.928C26.5036 16.072 26.5476 16.192 26.6356 16.288C26.7236 16.384 26.8876 16.48 27.1276 16.576C27.3676 16.664 27.7276 16.76 28.2076 16.864C28.9836 17.032 29.5916 17.236 30.0316 17.476C30.4796 17.708 30.7956 17.984 30.9796 18.304C31.1636 18.616 31.2556 18.992 31.2556 19.432C31.2556 20.264 30.9316 20.92 30.2836 21.4C29.6356 21.872 28.7236 22.108 27.5476 22.108ZM34.2583 15.28H31.7143V13.456L39.0823 13.456V15.28H36.5383V22H34.2583V15.28ZM43.5899 22.108C42.7179 22.108 41.9579 21.932 41.3099 21.58C40.6619 21.22 40.1619 20.708 39.8099 20.044C39.4659 19.38 39.2939 18.604 39.2939 17.716C39.2939 16.828 39.4699 16.056 39.8219 15.4C40.1739 14.744 40.6699 14.24 41.3099 13.888C41.9579 13.528 42.7179 13.348 43.5899 13.348C44.4619 13.348 45.2179 13.528 45.8579 13.888C46.5059 14.24 47.0019 14.744 47.3459 15.4C47.6899 16.056 47.8619 16.828 47.8619 17.716C47.8619 18.604 47.6899 19.38 47.3459 20.044C47.0019 20.708 46.5059 21.22 45.8579 21.58C45.2179 21.932 44.4619 22.108 43.5899 22.108ZM43.5899 20.392C44.2299 20.392 44.7299 20.164 45.0899 19.708C45.4579 19.252 45.6419 18.588 45.6419 17.716C45.6419 16.852 45.4579 16.196 45.0899 15.748C44.7299 15.292 44.2299 15.064 43.5899 15.064C42.9499 15.064 42.4499 15.288 42.0899 15.736C41.7299 16.184 41.5499 16.844 41.5499 17.716C41.5499 18.596 41.7299 19.264 42.0899 19.72C42.4499 20.168 42.9499 20.392 43.5899 20.392ZM55.4906 22.108C54.4346 22.108 53.6226 21.732 53.0546 20.98C52.4946 20.228 52.2146 19.14 52.2146 17.716C52.2146 16.316 52.4946 15.244 53.0546 14.5C53.6226 13.748 54.4346 13.372 55.4906 13.372C56.5466 13.372 57.3546 13.748 57.9146 14.5C58.4826 15.244 58.7666 16.316 58.7666 17.716C58.7666 19.14 58.4826 20.228 57.9146 20.98C57.3546 21.732 56.5466 22.108 55.4906 22.108ZM55.4906 20.416C55.8746 20.416 56.1506 20.208 56.3186 19.792C56.4866 19.368 56.5706 18.676 56.5706 17.716C56.5706 16.78 56.4866 16.104 56.3186 15.688C56.1506 15.272 55.8746 15.064 55.4906 15.064C55.1066 15.064 54.8306 15.272 54.6626 15.688C54.4946 16.104 54.4106 16.78 54.4106 17.716C54.4106 18.676 54.4946 19.368 54.6626 19.792C54.8306 20.208 55.1066 20.416 55.4906 20.416Z" fill="#09566A"/>
</svg>
