<?xml version="1.0" encoding="utf-8"?>
<!-- Generator: Adobe Illustrator 25.1.0, SVG Export Plug-In . SVG Version: 6.00 Build 0)  -->
<svg version="1.1" id="Layer_1" xmlns="http://www.w3.org/2000/svg" xmlns:xlink="http://www.w3.org/1999/xlink" x="0px" y="0px"
	 viewBox="0 0 835.1 213.6" style="enable-background:new 0 0 835.1 213.6;" xml:space="preserve">
<style type="text/css">
	.st0{fill:#FFFFFF;}
	.st1{fill:#FFFFFF;stroke:#097B98;stroke-width:5.6693;stroke-linecap:round;stroke-linejoin:round;stroke-miterlimit:10;}
	.st2{fill:#FFFFFF;stroke:#097B98;stroke-miterlimit:10;}
</style>
<g>
	<path class="st0" d="M301.3,123.9V92.5c0-7.7-4-14.7-12-14.7c-7.8,0-12.5,7-12.5,14.7v31.3h-14.5V65.2h13.4l1.1,7.1
		c3.1-5.9,9.8-8.1,15.4-8.1c7,0,14,2.8,17.3,10.9c5.2-8.3,12-10.7,19.6-10.7c16.6,0,24.8,10.2,24.8,27.8v31.6h-14.5V92.3
		c0-7.7-3.2-14.2-11-14.2c-7.8,0-12.7,6.8-12.7,14.5v31.3H301.3z"/>
	<path class="st0" d="M376.3,99.8c0.9,7.2,7.2,12.5,17.4,12.5c5.3,0,12.3-2,15.7-5.5l9.3,9.1c-6.2,6.4-16.3,9.5-25.2,9.5
		c-20.2,0-32.2-12.5-32.2-31.2c0-17.8,12.1-30.6,31.1-30.6c19.6,0,31.8,12.1,29.5,36.2H376.3z M408.1,87.8
		c-0.9-7.6-6.9-11.4-15.2-11.4c-7.8,0-14.2,3.8-16.4,11.4H408.1z"/>
	<path class="st0" d="M489.2,40.9v82.9h-13.5l-0.9-8.1c-4.5,7-11.7,9.4-18.9,9.4c-17.2,0-30.1-11.4-30.1-30.6
		c0-20.2,12.7-30.6,29.8-30.6c6.2,0,15.8,3.3,19.2,9.4V40.9H489.2z M440.2,94.6c0,10.2,7.4,17.2,16.6,17.2c9.1,0,17-6.6,17-17.2
		c0-10.2-7.8-17.1-17-17.1C447.5,77.5,440.2,84,440.2,94.6z"/>
	<path class="st0" d="M512.8,48.9c0,11.3-17.1,11.3-17.1,0C495.7,37.6,512.8,37.6,512.8,48.9z M497,65.1v58.7h14.5V65.1H497z"/>
	<path class="st0" d="M558,80.9c-4.2-3.9-8.9-5.2-14.5-5.2c-6.9,0-10.7,2.1-10.7,5.8c0,3.8,3.4,5.9,10.9,6.4c11,0.7,25,3.2,25,18.7
		c0,10.3-8.4,19.2-25.2,19.2c-9.3,0-18.5-1.5-27.1-10.4l7.1-10.3c4.2,4.6,13.6,8.1,20.2,8.2c5.5,0.1,10.6-2.7,10.6-7
		c0-4-3.3-5.7-11.6-6.2c-11-0.8-24.2-4.9-24.2-18.2c0-13.5,14-18.3,24.7-18.3c9.1,0,16,1.8,22.8,7.7L558,80.9z"/>
	<path class="st0" d="M612.2,123.9V92.5c0-7.7-4-14.7-12-14.7c-7.8,0-12.5,7-12.5,14.7v31.3h-14.5V65.2h13.4l1.1,7.1
		c3.1-5.9,9.8-8.1,15.4-8.1c7,0,14,2.8,17.3,10.9c5.2-8.3,12-10.7,19.6-10.7c16.6,0,24.8,10.2,24.8,27.8v31.6h-14.5V92.3
		c0-7.7-3.2-14.2-11-14.2c-7.8,0-12.7,6.8-12.7,14.5v31.3H612.2z"/>
	<path class="st0" d="M721.3,65.4h13.9v58.5h-13.6l-0.7-8.5c-3.3,6.9-12.5,10.2-19,10.3c-17.3,0.1-30.1-10.6-30.1-31.1
		c0-20.2,13.4-30.7,30.5-30.6c7.8,0,15.3,3.7,18.6,9.5L721.3,65.4z M686.1,94.6c0,11.2,7.7,17.8,17.3,17.8c22.8,0,22.8-35.5,0-35.5
		C693.8,76.9,686.1,83.4,686.1,94.6z"/>
	<path class="st0" d="M756,65.4l1.1,6.8c4.5-7.2,10.6-8.3,16.5-8.3c6.1,0,11.9,2.4,15.1,5.6L782.1,82c-3-2.5-5.7-3.8-10.4-3.8
		c-7.6,0-14.6,4-14.6,14.8v30.8h-14.5V65.4H756z"/>
</g>
<g>
	<path class="st0" d="M816.6,48.9v16.6h16.1v12.5h-16.3v25.3c0,5.6,3.1,8.3,7.6,8.3c2.3,0,4.9-0.7,7-1.8l4,12.3
		c-4.2,1.7-7.6,2.4-12,2.5c-12.7,0.5-21-6.8-21-21.4V77.9h-10.9V65.5h10.9V50.4L816.6,48.9z"/>
</g>
<path class="st1" d="M178.2,49.8"/>
<path class="st0" d="M161.4,18.5C144.1,6.4,123.8,0,102.6,0C46,0,0,46,0,102.6c0,51.2,38.2,94.9,88.9,101.7c0.3,0,0.6,0.1,0.8,0.1
	c0.4,0,0.8,0,1.2-0.1c1.8,4.8,6.1,8.5,11.5,9.3c0.7,0.1,1.3,0.1,2,0.1c7.1,0,13.2-5.3,14.2-12.4c0.5-3.8-0.4-7.6-2.7-10.6
	c-2.3-3.1-5.7-5.1-9.5-5.6c-0.7-0.1-1.3-0.1-2-0.1c-5.3,0-9.9,2.9-12.5,7.3c-0.4-0.2-0.9-0.3-1.4-0.4c-44.5-5.9-78-44.3-78-89.2
	c0-49.6,40.4-90,90-90c18.6,0,36.4,5.6,51.6,16.3c2.8,2,6.8,1.3,8.7-1.5C164.9,24.4,164.2,20.5,161.4,18.5z M98.2,198.4
	c0.4-3.1,3.1-5.4,6.2-5.4c0.3,0,0.6,0,0.9,0.1c3.4,0.5,5.8,3.7,5.3,7.1c-0.4,3.1-3.1,5.4-6.2,5.4c-0.3,0-0.6,0-0.9-0.1
	C100.1,205,97.7,201.8,98.2,198.4z"/>
<path class="st1" d="M163.3,66.3"/>
<path class="st2" d="M163.3,66.3"/>
<path class="st0" d="M181.8,39.2 M162,172.9l-28.1-34c10-8.8,16.3-21.7,16.3-36c0-6.7-1.4-13-3.9-18.8c1.3-1.8,2.2-4,2.6-6.4
	c1.1-7.8-4.4-15.1-12.2-16.2c-0.7-0.1-1.3-0.1-2-0.1c-7.1,0-13.2,5.3-14.2,12.4c-0.5,3.8,0.4,7.6,2.8,10.7c2.3,3.1,5.7,5.1,9.5,5.6
	c0.7,0.1,1.3,0.1,2,0.1c1.3,0,2.5-0.2,3.7-0.5c1.5,4.2,2.4,8.6,2.4,13.3c0,21.2-17.3,38.5-38.5,38.5c-8.5,0-16.3-2.8-22.7-7.5
	c0.7-1.4,1.2-2.8,1.4-4.4c0.5-3.8-0.4-7.6-2.7-10.6c-2.3-3.1-5.7-5.1-9.5-5.6c-0.7-0.1-1.3-0.1-2-0.1c-7.1,0-13.2,5.3-14.2,12.4
	c-1.1,7.8,4.4,15.1,12.2,16.2c0.7,0.1,1.3,0.1,2,0.1c2.1,0,4.1-0.5,6-1.3c8.1,6.4,18.4,10.3,29.6,10.3c8.7,0,16.8-2.3,23.9-6.4
	l31.3,37.7 M133.8,81.9c-3.4-0.5-5.8-3.7-5.3-7.1c0.4-3.1,3.1-5.4,6.2-5.4c0.3,0,0.6,0,0.9,0.1c3.4,0.5,5.8,3.7,5.3,7.1
	c-0.4,3.1-3.1,5.4-6.2,5.4C134.4,82,134.1,81.9,133.8,81.9z M65.8,133.7c-3.4-0.5-5.8-3.7-5.3-7.1c0.4-3.1,3.1-5.4,6.2-5.4
	c0.3,0,0.6,0,0.9,0.1c3.4,0.5,5.8,3.7,5.3,7.1c-0.4,3.1-3.1,5.4-6.2,5.4C66.4,133.7,66.1,133.7,65.8,133.7z"/>
<g>
	<path class="st0" d="M201.8,183.9c-1.3,0-2.7-0.5-3.7-1.4c-2.4-2.1-2.6-5.6-0.5-8c17.2-19.6,26.6-44.8,26.6-70.9
		c0-26.6-9.8-52.1-27.5-71.9c-2.1-2.3-1.9-5.9,0.4-8c2.3-2.1,5.9-1.9,8,0.4c19.6,21.9,30.4,50.1,30.4,79.5
		c0,28.9-10.5,56.7-29.4,78.4C204.9,183.2,203.4,183.9,201.8,183.9z"/>
	<path class="st0" d="M159.1,150.6c-1.2,0-2.4-0.4-3.4-1.1c-2.5-1.9-3-5.4-1.2-7.9c8.5-11.3,12.9-24.8,12.9-39
		c0-14.1-4.4-27.5-12.8-38.8c-1.9-2.5-1.3-6.1,1.2-7.9c2.5-1.9,6.1-1.3,7.9,1.2c9.8,13.3,15,29,15,45.5c0,16.6-5.3,32.5-15.2,45.8
		C162.5,149.9,160.8,150.6,159.1,150.6z"/>
</g>
<g>
	<path class="st0" d="M161.7,184c-1.8,0-3.6-0.8-4.7-2.4c-1.8-2.6-1.1-6.1,1.4-7.9c23.3-16.2,37.2-42.8,37.2-71.1
		c0-20.1-7-39.6-19.8-55c-2-2.4-1.7-6,0.8-8c2.4-2,6-1.7,8,0.8c14.4,17.5,22.4,39.6,22.4,62.2c0,32-15.7,62.1-42.1,80.4
		C164,183.7,162.8,184,161.7,184z"/>
</g>
</svg>
