<svg width="66" height="35" viewBox="0 0 66 35" fill="none" xmlns="http://www.w3.org/2000/svg">
<path d="M0 0H50C58.8366 0 66 7.16344 66 16V35H8C3.58172 35 0 31.4183 0 27V0Z" fill="#FFD686"/>
<path d="M7.768 13.456H11.836C12.812 13.456 13.568 13.692 14.104 14.164C14.64 14.628 14.908 15.26 14.908 16.06C14.908 16.852 14.636 17.484 14.092 17.956C13.548 18.428 12.796 18.664 11.836 18.664H10.024V22H7.768L7.768 13.456ZM11.536 16.984C12.384 16.984 12.808 16.684 12.808 16.084C12.808 15.78 12.704 15.552 12.496 15.4C12.296 15.24 11.976 15.16 11.536 15.16H10.024L10.024 16.984H11.536ZM23.4108 22H21.0228L19.9188 19.156C19.7908 18.836 19.4908 18.676 19.0188 18.676H18.2028V22H15.9828L15.9828 13.456H19.9548C20.9868 13.456 21.7628 13.68 22.2828 14.128C22.8028 14.568 23.0628 15.2 23.0628 16.024C23.0628 16.6 22.9068 17.1 22.5948 17.524C22.2908 17.94 21.8588 18.236 21.2988 18.412C21.5388 18.46 21.7548 18.572 21.9468 18.748C22.1388 18.924 22.2908 19.16 22.4028 19.456L23.4108 22ZM19.5948 16.996C20.0748 16.996 20.4228 16.924 20.6388 16.78C20.8548 16.628 20.9628 16.396 20.9628 16.084C20.9628 15.756 20.8548 15.52 20.6388 15.376C20.4308 15.232 20.0828 15.16 19.5948 15.16H18.1788V16.996H19.5948ZM28.5587 22.108C27.6867 22.108 26.9267 21.932 26.2787 21.58C25.6307 21.22 25.1307 20.708 24.7787 20.044C24.4347 19.38 24.2627 18.604 24.2627 17.716C24.2627 16.828 24.4387 16.056 24.7907 15.4C25.1427 14.744 25.6387 14.24 26.2787 13.888C26.9267 13.528 27.6867 13.348 28.5587 13.348C29.4307 13.348 30.1867 13.528 30.8267 13.888C31.4747 14.24 31.9707 14.744 32.3147 15.4C32.6587 16.056 32.8307 16.828 32.8307 17.716C32.8307 18.604 32.6587 19.38 32.3147 20.044C31.9707 20.708 31.4747 21.22 30.8267 21.58C30.1867 21.932 29.4307 22.108 28.5587 22.108ZM28.5587 20.392C29.1987 20.392 29.6987 20.164 30.0587 19.708C30.4267 19.252 30.6107 18.588 30.6107 17.716C30.6107 16.852 30.4267 16.196 30.0587 15.748C29.6987 15.292 29.1987 15.064 28.5587 15.064C27.9187 15.064 27.4187 15.288 27.0587 15.736C26.6987 16.184 26.5187 16.844 26.5187 17.716C26.5187 18.596 26.6987 19.264 27.0587 19.72C27.4187 20.168 27.9187 20.392 28.5587 20.392ZM41.7909 13.456V22H40.1229L36.2469 17.152V22L34.1469 22V13.456H35.7909L39.6669 18.28V13.456H41.7909ZM45.2544 15.28L42.7104 15.28V13.456L50.0784 13.456V15.28H47.5344V22H45.2544V15.28ZM54.586 22.108C53.714 22.108 52.954 21.932 52.306 21.58C51.658 21.22 51.158 20.708 50.806 20.044C50.462 19.38 50.29 18.604 50.29 17.716C50.29 16.828 50.466 16.056 50.818 15.4C51.17 14.744 51.666 14.24 52.306 13.888C52.954 13.528 53.714 13.348 54.586 13.348C55.458 13.348 56.214 13.528 56.854 13.888C57.502 14.24 57.998 14.744 58.342 15.4C58.686 16.056 58.858 16.828 58.858 17.716C58.858 18.604 58.686 19.38 58.342 20.044C57.998 20.708 57.502 21.22 56.854 21.58C56.214 21.932 55.458 22.108 54.586 22.108ZM54.586 20.392C55.226 20.392 55.726 20.164 56.086 19.708C56.454 19.252 56.638 18.588 56.638 17.716C56.638 16.852 56.454 16.196 56.086 15.748C55.726 15.292 55.226 15.064 54.586 15.064C53.946 15.064 53.446 15.288 53.086 15.736C52.726 16.184 52.546 16.844 52.546 17.716C52.546 18.596 52.726 19.264 53.086 19.72C53.446 20.168 53.946 20.392 54.586 20.392Z" fill="#09566A"/>
</svg>
