<svg width="34" height="25" viewBox="0 0 34 25" fill="none" xmlns="http://www.w3.org/2000/svg">
<g clip-path="url(#clip0_1_273)">
<path fill-rule="evenodd" clip-rule="evenodd" d="M28.88 0H5.12C4.375 0 3.73 0.143394 3.13 0.380736C2.535 0.618078 1.94 0.993869 1.49 1.41911C0.989995 1.89379 0.644995 2.41297 0.344995 3.02611C0.144995 3.59474 -0.00500488 4.20787 -0.00500488 4.87045V14.7004C-0.00500488 15.3629 0.144995 15.9761 0.344995 16.5447C0.644995 17.1578 0.989995 17.7265 1.49 18.1517C1.935 18.5769 2.535 18.9527 3.13 19.1901C3.73 19.4719 4.375 19.5659 5.12 19.5659H5.42L4.475 22.9678C4.425 23.0617 4.425 23.2051 4.375 23.3436V24.0556C4.425 24.199 4.475 24.2929 4.525 24.3869C4.575 24.4808 4.625 24.5303 4.675 24.5748V24.8121L5.175 24.9061C5.225 24.9061 5.225 24.9555 5.225 24.9555H5.425C5.475 24.9555 5.525 25 5.575 25C5.675 25 5.825 24.9555 5.925 24.9061C6.075 24.9061 6.175 24.8616 6.275 24.8121C6.375 24.7627 6.525 24.6687 6.575 24.6242C6.675 24.5797 6.825 24.4808 6.875 24.4363L12.99 19.5659H28.895C29.59 19.5659 30.24 19.4719 30.835 19.1901C31.485 18.9527 32.03 18.5769 32.525 18.1517C32.975 17.7265 33.37 17.1578 33.62 16.5447C33.87 15.9761 34.015 15.3629 34.015 14.7004V4.87045C34.015 4.20787 33.865 3.59474 33.62 3.02611C33.37 2.41297 32.975 1.89379 32.525 1.41911C32.03 0.993869 31.48 0.618078 30.835 0.380736C30.24 0.143394 29.595 0 28.895 0L28.88 0ZM5.12 1.607H28.88C29.825 1.607 30.67 1.98279 31.315 2.55142C31.66 2.88271 31.91 3.214 32.06 3.63924C32.21 3.97053 32.31 4.44521 32.31 4.87045V14.7004C32.31 15.5953 31.96 16.4508 31.315 17.0144C30.965 17.3457 30.62 17.5831 30.17 17.7215C29.775 17.9094 29.325 18.0034 28.875 18.0034H12.675L12.425 18.0528H12.375L12.125 18.1468L6.21 22.8738L7.305 18.9972L7.355 18.9033L7.605 18.0034H5.12C4.125 18.0034 3.28 17.6276 2.635 17.0095C2.335 16.7277 2.09 16.3469 1.89 15.9711C1.74 15.5459 1.64 15.1206 1.64 14.6954V4.87045C1.64 3.97547 2.035 3.1695 2.635 2.55637C2.98 2.27453 3.33 1.98774 3.78 1.84434C4.175 1.65645 4.625 1.607 5.12 1.607Z" fill="#00915A"/>
<path d="M4.5 8.52954H29" stroke="#00915A" stroke-width="2" stroke-miterlimit="10"/>
<path d="M4.5 12.0598L18.115 12.2527" stroke="#00915A" stroke-width="2" stroke-miterlimit="10"/>
</g>
<defs>
<clipPath id="clip0_1_273">
<rect width="34" height="25" fill="white"/>
</clipPath>
</defs>
</svg>
