<svg width="20" height="24" viewBox="0 0 20 24" fill="none" xmlns="http://www.w3.org/2000/svg">
<path fill-rule="evenodd" clip-rule="evenodd" d="M6.66 0.684175C6.86448 0.841914 6.95424 1.2059 7.15616 1.75671C7.35772 2.31056 8.32798 5.02774 8.44703 5.52731C8.56625 6.02538 8.61258 6.38732 8.0458 6.67101C7.47866 6.95773 6.17644 7.81874 5.78967 8.08365C5.40172 8.34535 5.32435 8.64511 5.52609 9.19744C5.72766 9.75129 6.0865 11.5007 7.64123 13.7042C8.85418 15.4189 10.4507 16.67 10.9409 17.0381C11.4313 17.4031 11.7465 17.1635 12.04 16.9353C12.3046 16.7283 12.7154 16.4846 13.0522 16.2599C13.3907 16.0339 13.6224 15.9736 13.9936 15.8405C14.3649 15.7075 14.6609 15.8299 14.9084 15.9927C15.1563 16.1525 17.6209 17.5026 18.6236 18.0616C19.6218 18.6184 19.532 19.0504 19.496 19.3566C19.4599 19.6628 19.3017 20.2127 19.3017 20.2127C19.3017 20.2127 19.0477 21.2446 18.4654 21.6602C17.8832 22.0757 16.4522 23.275 13.8662 22.9709C11.2801 22.6667 8.99698 20.5035 8.6786 20.2002C8.35715 19.8966 3.2681 15.9036 1.78806 10.3466C0.307842 4.79126 1.00935 4.87377 1.21125 3.92637C1.40989 2.98011 2.84528 0.986903 4.12563 0.696483C5.40443 0.405883 6.45824 0.52983 6.66153 0.684356L6.66 0.684175Z" fill="#00915A"/>
</svg>
