<svg width="192" height="146" viewBox="0 0 192 146" fill="none" xmlns="http://www.w3.org/2000/svg">
<g opacity="0.3" clip-path="url(#clip0_1_72)">
<path d="M129.92 47.2047C129.387 48.6539 128.832 50.0969 128.323 51.5542C125.182 60.5414 121.617 69.3466 116.15 77.2178C114.44 79.6807 112.395 82.0374 110.085 83.9403C106.032 87.2801 96.9732 86.0149 93.7959 81.8493C93.0396 80.858 92.4683 79.4579 92.4436 78.2336C92.3696 74.6956 92.1045 71.041 92.8382 67.6297C95.0249 57.4571 97.7192 47.3928 100.06 37.2487C100.578 35.0004 101.567 33.7393 103.877 33.4552C105.971 33.1977 108.046 32.5886 110.139 32.5538C111.752 32.5273 113.376 33.1466 115.404 33.5635C114.937 35.6116 114.596 37.1138 114.251 38.6182C111.627 50.0437 108.947 61.455 106.411 72.899C105.613 76.4983 105.804 77.3282 106.686 80.7191C107.903 79.6296 109.07 78.8243 109.921 77.7656C111.324 76.0221 112.636 74.1826 113.789 72.2654C120.651 60.8745 125.526 48.6661 128.615 35.7587C129.41 32.4353 130.051 29.0321 127.766 25.9806C132.534 23.0107 137.744 24.327 140.794 29.1589C143.196 32.9667 144.123 37.2774 143.995 41.6411C143.825 47.4153 143.636 53.2834 142.508 58.9226C134.536 98.7874 111.018 126.013 73.5505 141.503C65.8148 144.702 57.5797 146.209 49.096 145.98C36.9294 145.653 27.0338 140.811 19.6516 131.208C12.4421 121.831 8.83731 111.071 8.02757 99.3454C6.57251 78.2909 9.00583 57.5061 12.4729 36.797C12.8182 34.7408 13.1881 32.6887 13.6608 29.9703C11.2665 30.6244 9.30178 31.1497 7.34526 31.7015C6.45331 31.9529 5.58192 32.2718 4.69409 32.5395C1.78397 33.4205 0.9804 33.2467 0.347408 31.6259C-0.532204 29.3755 0.285753 27.0597 2.50533 26.05C6.11832 24.4067 9.76419 22.8247 13.445 21.3408C15.0727 20.6847 15.9544 19.7118 16.3633 17.9683C17.2347 14.2504 18.2644 10.5632 19.4009 6.91681C19.7215 5.88872 20.4634 4.45388 21.306 4.21065C26.4727 2.71449 31.7237 1.50653 37.7515 0.00219727C36.3622 4.56221 35.2031 8.36392 33.7994 12.975C36.8965 11.8733 39.3011 11.021 41.7015 10.1626C47.2094 8.19223 52.3781 9.86007 55.4999 14.6204C57.3866 17.4982 56.8502 19.2744 53.492 20.1901C50.9539 20.8809 48.2924 21.114 45.6885 21.5779C41.9111 22.2504 38.1502 23.0393 34.3563 23.6035C31.4791 24.0306 30.0549 25.4123 29.5493 28.3658C28.1908 36.284 26.3104 44.1163 25.0649 52.0509C23.0817 64.6762 21.2814 77.3343 19.7133 90.0148C18.2931 101.498 18.6055 112.923 22.6809 123.967C26.9906 135.639 35.2955 142.595 47.6862 144.449C57.6476 145.941 66.8897 143.617 75.4885 138.589C82.4103 134.542 88.4258 129.338 93.5904 123.288C98.3851 117.671 103.085 111.911 107.189 105.792C115.961 92.7149 123.781 79.1064 127.729 63.6665C129.098 58.3155 130.368 52.9543 130.717 47.4357C130.452 47.358 130.185 47.2804 129.92 47.2047Z" fill="#ED1C29"/>
<path d="M63.8007 46.017C58.523 62.4298 53.3049 78.9284 52.228 96.4245C52.9103 94.9038 53.605 93.3872 54.2729 91.8604C60.3007 78.0965 66.31 64.3245 72.3604 50.5709C73.6326 47.6767 74.9828 44.8111 76.4153 41.9925C78.5033 37.8863 79.1795 37.5204 83.5673 38.477C86.5062 39.1188 89.5273 39.7176 92.0017 42.0028C86.1568 56.3573 78.902 70.4236 83.6433 86.6013C80.2441 88.3305 78.082 87.9646 76.7523 84.9396C75.7679 82.7015 75.137 80.1568 75.0342 77.7204C74.7917 71.9463 74.9561 66.1538 74.9561 59.7441C74.3149 61.1278 73.8134 62.1437 73.3654 63.184C68.2008 75.1655 63.0731 87.1614 57.8571 99.1204C56.9672 101.162 55.7259 103.057 54.6182 105.003C53.5906 106.804 51.9834 107.474 49.9468 107.339C46.157 107.09 42.6941 105.933 39.5723 103.772C36.9088 101.929 35.9428 99.1919 36.1052 96.1955C36.3991 90.8139 36.5471 85.3607 37.5644 80.0934C39.5846 69.6347 42.2132 59.2924 44.4554 48.8745C45.0205 46.246 46.4941 45.0462 49.0096 44.7866C51.9012 44.4882 54.7867 44.0487 57.6845 43.9486C59.7807 43.875 61.9037 44.2266 63.7945 46.0191L63.8007 46.017Z" fill="#ED1C29"/>
<path d="M180.438 45.1055C183.208 44.4596 183.983 42.5117 184.585 40.7335C185.892 36.8766 186.916 32.9257 188.038 29.0095C188.328 27.9978 188.488 26.9472 188.819 25.9518C189.369 24.3003 190.481 24.705 192 25.2507C191.379 29.9007 190.42 34.3748 188.833 38.6609C187.791 41.4734 186.55 44.3124 184.846 46.759C182.123 50.669 178.389 51.2577 174.513 48.5454C173.224 47.644 172.244 46.0334 171.617 44.5413C170.869 42.7611 170.651 40.758 170.018 38.0539C168.962 42.4974 168.285 46.2153 167.172 49.7983C165.77 54.3093 164.298 58.8407 162.321 63.1207C160.266 67.5662 157.27 68.02 153.423 65.0236C150.681 62.8877 148.967 60.1283 148.911 56.6026C148.726 44.5863 150.971 33.0217 155.994 22.0888C158.515 16.6029 162.965 14.9616 168.801 16.8195C173.939 18.4567 177.098 22.3115 179.667 26.7019C180.212 27.6319 180.125 28.9993 180.119 30.1623C180.101 33.8475 179.932 37.5327 179.928 41.2179C179.928 42.4545 180.242 43.6931 180.438 45.1095V45.1055ZM161.3 55.8034C162.009 54.25 162.751 53.0482 163.125 51.7401C165.357 43.9179 167.509 36.0733 169.675 28.2328C169.847 27.6053 170.234 26.7857 169.991 26.3422C169.404 25.2712 168.688 24.0244 167.681 23.4868C166.403 22.8062 165.56 24.0264 164.958 25.0995C164.701 25.5573 164.455 26.0274 164.274 26.518C161.39 34.3401 159.746 42.4136 159.442 50.7385C159.38 52.4002 159.487 54.1131 161.302 55.8034H161.3Z" fill="#ED1C29"/>
</g>
<defs>
<clipPath id="clip0_1_72">
<rect width="192" height="146" fill="white"/>
</clipPath>
</defs>
</svg>
