<svg width="48" height="42" viewBox="0 0 48 42" fill="none" xmlns="http://www.w3.org/2000/svg">
<path d="M7.21227 32.2283C7.37688 31.5552 7.18139 30.8449 6.69557 30.3508C3.71982 27.3247 2 23.5551 2 19.5C2 10.1777 11.3192 2 23.6667 2C36.0141 2 45.3333 10.1777 45.3333 19.5C45.3333 28.8223 36.0141 37 23.6667 37C20.3675 37 17.2528 36.3815 14.4506 35.3126C13.7851 35.0587 13.0348 35.178 12.4808 35.6256C10.7471 37.0264 7.6263 39.0829 3.5247 39.7682C3.67201 39.5624 3.82324 39.3458 3.97658 39.1193C5.15325 37.3813 6.55379 34.9207 7.21227 32.2283Z" stroke="url(#paint0_linear_1_394)" stroke-width="4" stroke-linejoin="round"/>
<path d="M33.9999 17.9692C33.9999 12.2357 27.4761 9.16752 23.6666 13.1044C19.857 9.16752 13.3333 12.2357 13.3333 17.9692C13.3333 20.689 15.0084 23.5333 18.3105 26.4237C20.6435 28.4656 22.9478 29.7799 23.0443 29.8356C23.4312 30.0549 23.9008 30.0549 24.2877 29.8356C24.3842 29.7799 26.6885 28.4656 29.0216 26.4237C32.3236 23.5345 33.9988 20.689 33.9988 17.9692H33.9999Z" fill="url(#paint1_linear_1_394)"/>
<defs>
<linearGradient id="paint0_linear_1_394" x1="-12.6667" y1="42" x2="63.3333" y2="14" gradientUnits="userSpaceOnUse">
<stop stop-color="#5867DD"/>
<stop offset="1" stop-color="#56B3F7"/>
</linearGradient>
<linearGradient id="paint1_linear_1_394" x1="1.69032" y1="33.5477" x2="36.0633" y2="20.5873" gradientUnits="userSpaceOnUse">
<stop stop-color="#5867DD"/>
<stop offset="1" stop-color="#56B3F7"/>
</linearGradient>
</defs>
</svg>
