<svg width="463" height="78" viewBox="0 0 463 78" fill="none" xmlns="http://www.w3.org/2000/svg">
<path d="M30.3617 76.1507C23.3551 76.1507 18.0678 74.4817 14.4996 71.1439C10.9964 67.7405 9.24474 62.6028 9.24474 55.7307V41.0596C9.24474 39.4027 7.90159 38.0596 6.24474 38.0596H3C1.34314 38.0596 0 36.7164 0 35.0596V28.1989C0 26.5421 1.34315 25.1989 3 25.1989H6.24474C7.90159 25.1989 9.24474 23.8558 9.24474 22.1989V15.7879C9.24474 14.3986 10.1986 13.1911 11.55 12.8694L22.8718 10.1744C24.7568 9.72568 26.5665 11.1551 26.5665 13.0929V22.1989C26.5665 23.8558 27.9096 25.1989 29.5665 25.1989H35.6333C37.2901 25.1989 38.6333 26.5421 38.6333 28.1989V35.0596C38.6333 36.7164 37.2901 38.0596 35.6333 38.0596H29.5665C27.9096 38.0596 26.5665 39.4027 26.5665 41.0596V55.0435C26.5665 57.9232 27.2152 59.854 28.5127 60.8357C29.8102 61.752 31.3672 62.2101 33.1838 62.2101C34.2866 62.2101 35.2273 62.1447 36.0058 62.0138C37.3066 61.711 38.6333 62.6368 38.6333 63.9723V72.6708C38.6333 73.8856 37.907 75.0046 36.7407 75.3441C35.9443 75.5759 35.1479 75.7466 34.3515 75.8562C32.9891 76.0525 31.6592 76.1507 30.3617 76.1507Z" fill="url(#paint0_linear_1_319)" fill-opacity="0.2"/>
<path d="M257.316 75.942C254.555 75.942 252.316 73.7034 252.316 70.942V39.618C252.316 37.3928 252.251 35.1348 252.122 32.8441C252.099 32.4495 252.075 32.0559 252.049 31.6632C251.85 28.6789 254.164 26.0701 257.155 26.0701H264.415C266.614 26.0701 268.462 27.7215 268.708 29.9062L269.199 34.2685C269.226 34.5035 269.042 34.7094 268.805 34.7094C268.514 34.7094 268.323 34.4063 268.456 34.1477C269.874 31.4042 271.89 29.2353 274.504 27.6409C277.293 25.8738 280.569 24.9902 284.332 24.9902C287.965 24.9902 291.047 25.8738 293.577 27.6409C296.001 29.2302 297.802 31.7044 298.98 35.0635C299.106 35.4212 298.836 35.7893 298.457 35.7893C298.044 35.7893 297.773 35.3589 297.966 34.9938C299.564 31.9702 301.766 29.5847 304.573 27.8373C307.687 25.9392 311.158 24.9902 314.986 24.9902C320.63 24.9902 324.847 26.7246 327.637 30.1934C330.426 33.5967 331.821 38.9308 331.821 46.1956V70.942C331.821 73.7034 329.582 75.942 326.821 75.942H319.402C316.641 75.942 314.402 73.7034 314.402 70.942V46.7846C314.402 43.7085 313.948 41.5487 313.04 40.3052C312.131 38.9962 310.672 38.3418 308.66 38.3418C306.13 38.3418 304.152 39.258 302.724 41.0906C301.362 42.9232 300.681 45.4429 300.681 48.6499V70.942C300.681 73.7034 298.442 75.942 295.681 75.942H288.359C285.598 75.942 283.359 73.7034 283.359 70.942V46.7846C283.359 43.7085 282.873 41.5487 281.899 40.3052C280.991 38.9962 279.564 38.3418 277.618 38.3418C275.087 38.3418 273.109 39.258 271.682 41.0906C270.319 42.9232 269.638 45.4429 269.638 48.6499V70.942C269.638 73.7034 267.399 75.942 264.638 75.942H257.316Z" fill="url(#paint1_linear_1_319)" fill-opacity="0.8"/>
<path d="M50.1174 75.942C47.3559 75.942 45.1174 73.7034 45.1174 70.942V39.7162C45.1174 37.4255 45.0525 35.1348 44.9227 32.8441C44.9004 32.4495 44.8761 32.0559 44.8499 31.6632C44.6508 28.6789 46.9649 26.0701 49.9558 26.0701H56.644C59.1737 26.0701 61.3048 27.9595 61.608 30.4709L62.7723 40.1152C62.8539 40.7905 62.3267 41.3851 61.6465 41.3851C60.9425 41.3851 60.4073 40.7498 60.5506 40.0606C61.2037 36.9202 62.1575 34.2856 63.4122 32.1569C64.8395 29.7353 66.6235 27.9354 68.7644 26.7573C70.9053 25.5793 73.4355 24.9902 76.3548 24.9902C77.7172 24.9902 78.7228 25.0557 79.3716 25.1866C80.7735 25.3152 81.6098 26.6913 81.6098 28.0991V36.9552C81.6098 38.9005 79.6241 40.1009 77.7172 39.7162C76.7441 39.5198 75.479 39.4217 73.922 39.4217C71.2621 39.4217 69.0888 39.9125 67.402 40.8942C65.7153 41.8105 64.4827 43.2504 63.7042 45.2139C62.9905 47.1773 62.6337 49.6971 62.6337 52.7732V70.942C62.6337 73.7034 60.3951 75.942 57.6337 75.942H50.1174Z" fill="url(#paint2_linear_1_319)" fill-opacity="0.3"/>
<path d="M106.115 76.1506C101.833 76.1506 98.0706 75.1362 94.8268 73.1073C91.583 71.0129 89.0205 68.0023 87.1391 64.0753C85.3226 60.1484 84.4143 55.5016 84.4143 50.1348C84.4143 44.7025 85.3226 40.0557 87.1391 36.1942C89.0205 32.2673 91.583 29.2894 94.8268 27.2605C98.0706 25.1661 101.833 24.119 106.115 24.119C109.943 24.119 113.381 25.0352 116.43 26.8678C119.364 28.5945 121.348 30.815 122.382 33.5294C122.475 33.7761 122.289 34.0344 122.025 34.0344C121.793 34.0344 121.613 33.8312 121.64 33.6005L122.187 29.0853C122.456 26.8672 124.339 25.1989 126.573 25.1989H133.842C136.776 25.1989 139.079 27.7123 138.829 30.635C138.791 31.0797 138.753 31.5256 138.715 31.9728C138.585 34.2635 138.52 36.5215 138.52 38.7467V70.0707C138.52 72.8321 136.282 75.0707 133.52 75.0707H125.519C123.225 75.0707 121.351 73.2395 121.298 70.9466L121.21 67.1222C121.204 66.851 121.422 66.6278 121.693 66.6278C122.024 66.6278 122.256 66.9526 122.132 67.2591C121.084 69.849 119.119 71.962 116.236 73.5981C113.187 75.2998 109.813 76.1506 106.115 76.1506ZM111.662 63.1918C114.581 63.1918 116.949 62.1773 118.766 60.1484C120.582 58.0541 121.491 54.7162 121.491 50.1348C121.491 45.5534 120.582 42.2482 118.766 40.2193C116.949 38.125 114.581 37.0778 111.662 37.0778C108.743 37.0778 106.375 38.125 104.558 40.2193C102.742 42.2482 101.833 45.5534 101.833 50.1348C101.833 54.7162 102.709 58.0541 104.461 60.1484C106.277 62.1773 108.678 63.1918 111.662 63.1918ZM114.608 20.3884C110.911 20.3884 108.493 16.5158 110.115 13.1942L115.06 3.06878C115.899 1.35187 117.642 0.262939 119.553 0.262939H122.724C126.837 0.262939 129.191 4.95085 126.735 8.24917L119.195 18.3746C118.251 19.6417 116.764 20.3884 115.185 20.3884H114.608Z" fill="url(#paint3_linear_1_319)" fill-opacity="0.4"/>
<path d="M174.463 76.4981C167.456 76.4981 162.169 74.8291 158.601 71.4913C155.098 68.0879 153.346 62.9502 153.346 56.0781V41.407C153.346 39.7501 152.003 38.407 150.346 38.407H147.101C145.444 38.407 144.101 37.0639 144.101 35.407V28.5463C144.101 26.8895 145.444 25.5463 147.101 25.5463H150.346C152.003 25.5463 153.346 24.2032 153.346 22.5463V16.1353C153.346 14.7461 154.3 13.5386 155.651 13.2168L166.973 10.5218C168.858 10.0731 170.668 11.5025 170.668 13.4403V22.5463C170.668 24.2032 172.011 25.5463 173.668 25.5463H179.735C181.391 25.5463 182.735 26.8895 182.735 28.5463V35.407C182.735 37.0639 181.391 38.407 179.735 38.407H173.668C172.011 38.407 170.668 39.7501 170.668 41.407V55.3909C170.668 58.2707 171.317 60.2014 172.614 61.1831C173.912 62.0994 175.469 62.5575 177.285 62.5575C178.388 62.5575 179.329 62.4921 180.107 62.3612C181.408 62.0584 182.735 62.9842 182.735 64.3197V73.0182C182.735 74.233 182.008 75.352 180.842 75.6915C180.046 75.9233 179.249 76.094 178.453 76.2036C177.09 76.3999 175.761 76.4981 174.463 76.4981Z" fill="url(#paint4_linear_1_319)" fill-opacity="0.6"/>
<path d="M209.288 76.1505C205.007 76.1505 201.244 75.1361 198 73.1072C194.756 71.0128 192.194 68.0022 190.312 64.0753C188.496 60.1484 187.588 55.5015 187.588 50.1347C187.588 44.7025 188.496 40.0556 190.312 36.1942C192.194 32.2673 194.756 29.2893 198 27.2604C201.244 25.1661 205.007 24.1189 209.288 24.1189C213.116 24.1189 216.554 25.0352 219.604 26.8677C222.538 28.5944 224.521 30.8149 225.555 33.5293C225.649 33.776 225.462 34.0344 225.198 34.0344C224.966 34.0344 224.786 33.8311 224.814 33.6004L225.361 29.0852C225.629 26.8671 227.512 25.1988 229.746 25.1988H237.016C239.949 25.1988 242.252 27.7122 242.002 30.6349C241.964 31.0796 241.926 31.5255 241.888 31.9727C241.758 34.2634 241.694 36.5214 241.694 38.7467V70.0706C241.694 72.8321 239.455 75.0706 236.694 75.0706H228.692C226.398 75.0706 224.524 73.2394 224.471 70.9465L224.383 67.1221C224.377 66.851 224.595 66.6278 224.866 66.6278C225.197 66.6278 225.43 66.9526 225.306 67.2591C224.258 69.849 222.292 71.9619 219.409 73.5981C216.36 75.2997 212.986 76.1505 209.288 76.1505ZM214.835 63.1917C217.755 63.1917 220.123 62.1773 221.939 60.1484C223.756 58.054 224.664 54.7161 224.664 50.1347C224.664 45.5533 223.756 42.2482 221.939 40.2193C220.123 38.1249 217.755 37.0777 214.835 37.0777C211.916 37.0777 209.548 38.1249 207.731 40.2193C205.915 42.2482 205.007 45.5533 205.007 50.1347C205.007 54.7161 205.882 58.054 207.634 60.1484C209.451 62.1773 211.851 63.1917 214.835 63.1917Z" fill="url(#paint5_linear_1_319)" fill-opacity="0.7"/>
<path d="M368.534 77.0219C359.581 77.0219 352.607 74.6985 347.611 70.0516C342.681 65.4048 340.215 59.0235 340.215 50.9079C340.215 45.8683 341.253 41.3851 343.329 37.4582C345.406 33.5313 348.325 30.4879 352.088 28.3281C355.85 26.1029 360.262 24.9902 365.322 24.9902C370.318 24.9902 374.47 26.1029 377.778 28.3281C381.152 30.4879 383.682 33.4986 385.369 37.36C387.055 41.156 387.899 45.5738 387.899 50.6134C387.899 52.6737 386.229 54.3439 384.168 54.3439H358.838C356.561 54.3439 354.715 52.4979 354.715 50.2207C354.715 47.9435 356.561 46.0974 358.838 46.0974H373.935C374.346 46.0974 374.532 46.6115 374.216 46.8741C373.93 47.1117 373.494 46.9077 373.481 46.536C373.369 43.2782 372.661 40.8413 371.356 39.2253C369.993 37.3928 368.047 36.4765 365.517 36.4765C362.597 36.4765 360.359 37.5891 358.802 39.8143C357.31 41.9742 356.564 45.2466 356.564 49.6316V51.3988C356.564 55.7838 357.634 58.9908 359.775 61.0197C361.916 63.0486 364.998 64.0631 369.02 64.0631C371.615 64.0631 374.048 63.7685 376.319 63.1795C376.705 63.0821 377.088 62.9748 377.467 62.8576C380.464 61.932 383.999 63.0361 385.146 65.9549L385.961 68.0295C386.811 70.1914 386.077 72.6972 383.987 73.7121C382.399 74.4832 380.686 75.1284 378.849 75.6475C375.605 76.5637 372.167 77.0219 368.534 77.0219Z" fill="url(#paint6_linear_1_319)" fill-opacity="0.9"/>
<path d="M401.292 48.7866C401.457 48.1135 401.261 47.4032 400.776 46.9091C396.111 42.1654 393.376 36.2115 393.376 29.7701C393.376 14.9198 408.132 2.26294 427.188 2.26294C446.244 2.26294 461 14.9198 461 29.7701C461 44.6205 446.244 57.2773 427.188 57.2773C422.067 57.2773 417.23 56.3172 412.876 54.6566C412.211 54.4027 411.461 54.5219 410.907 54.9696C407.882 57.4131 402.094 61.1837 394.434 61.7458C395.027 61.0055 395.766 60.0308 396.543 58.8824C398.293 56.2983 400.337 52.6914 401.292 48.7866ZM393.158 63.2525C393.152 63.2598 393.145 63.267 393.138 63.2741L393.138 63.2739C393.144 63.2675 393.151 63.2604 393.158 63.2525Z" stroke="url(#paint7_linear_1_319)" stroke-width="4" stroke-linejoin="round"/>
<path d="M442.824 27.4537C442.824 18.7778 432.953 14.135 427.188 20.0923C421.423 14.135 411.552 18.7778 411.552 27.4537C411.552 31.5692 414.086 35.8731 419.083 40.2469C422.613 43.3367 426.1 45.3255 426.246 45.4097C426.832 45.7415 427.542 45.7415 428.128 45.4097C428.274 45.3255 431.761 43.3367 435.291 40.2469C440.288 35.8749 442.822 31.5692 442.822 27.4537H442.824Z" fill="url(#paint8_linear_1_319)"/>
<defs>
<linearGradient id="paint0_linear_1_319" x1="29.8435" y1="86.3827" x2="28.1381" y2="9.64239" gradientUnits="userSpaceOnUse">
<stop offset="0.046875" stop-color="#5867DD"/>
<stop offset="1" stop-color="#56B3F7"/>
</linearGradient>
<linearGradient id="paint1_linear_1_319" x1="291.679" y1="24.9902" x2="291.679" y2="75.942" gradientUnits="userSpaceOnUse">
<stop stop-color="#5867DD"/>
<stop offset="1" stop-color="#56B3F7"/>
</linearGradient>
<linearGradient id="paint2_linear_1_319" x1="62.9743" y1="24.9902" x2="62.9743" y2="75.942" gradientUnits="userSpaceOnUse">
<stop stop-color="#5867DD"/>
<stop offset="1" stop-color="#56B3F7"/>
</linearGradient>
<linearGradient id="paint3_linear_1_319" x1="111.857" y1="0.262939" x2="111.857" y2="76.1506" gradientUnits="userSpaceOnUse">
<stop stop-color="#5867DD"/>
<stop offset="1" stop-color="#56B3F7"/>
</linearGradient>
<linearGradient id="paint4_linear_1_319" x1="163.418" y1="9.64233" x2="163.418" y2="76.4981" gradientUnits="userSpaceOnUse">
<stop stop-color="#5867DD"/>
<stop offset="1" stop-color="#56B3F7"/>
</linearGradient>
<linearGradient id="paint5_linear_1_319" x1="215.03" y1="24.1189" x2="215.03" y2="76.1505" gradientUnits="userSpaceOnUse">
<stop stop-color="#5867DD"/>
<stop offset="1" stop-color="#56B3F7"/>
</linearGradient>
<linearGradient id="paint6_linear_1_319" x1="364.057" y1="24.9902" x2="364.057" y2="77.0219" gradientUnits="userSpaceOnUse">
<stop stop-color="#5867DD"/>
<stop offset="1" stop-color="#56B3F7"/>
</linearGradient>
<linearGradient id="paint7_linear_1_319" x1="372.209" y1="63.8169" x2="487.211" y2="21.4476" gradientUnits="userSpaceOnUse">
<stop stop-color="#5867DD"/>
<stop offset="1" stop-color="#56B3F7"/>
</linearGradient>
<linearGradient id="paint8_linear_1_319" x1="393.934" y1="51.0268" x2="445.947" y2="31.4154" gradientUnits="userSpaceOnUse">
<stop stop-color="#5867DD"/>
<stop offset="1" stop-color="#56B3F7"/>
</linearGradient>
</defs>
</svg>
