<svg width="266" height="44" viewBox="0 0 266 44" fill="none" xmlns="http://www.w3.org/2000/svg">
<path d="M17.404 43.5004C13.3877 43.5004 10.3569 42.5438 8.31151 40.6304C6.30336 38.6796 5.29929 35.7345 5.29929 31.7953V24.3154C5.29929 22.8521 4.113 21.6658 2.64964 21.6658C1.18629 21.6658 0 20.4795 0 19.0161V16.9434C0 15.4801 1.18629 14.2938 2.64964 14.2938C4.113 14.2938 5.29929 13.1075 5.29929 11.6441V9.91049C5.29929 8.52125 6.2531 7.31375 7.60458 6.99204L11.5338 6.05673C13.4189 5.60801 15.2285 7.03743 15.2285 8.97519V11.2938C15.2285 12.9506 16.5716 14.2938 18.2285 14.2938H19.1454C20.8023 14.2938 22.1454 15.6369 22.1454 17.2938V18.6658C22.1454 20.3226 20.8023 21.6658 19.1454 21.6658H18.2285C16.5716 21.6658 15.2285 23.0089 15.2285 24.6658V31.4013C15.2285 33.0521 15.6004 34.1588 16.3441 34.7216C17.0879 35.2468 17.9804 35.5094 19.0217 35.5094C19.6539 35.5094 20.1931 35.4719 20.6393 35.3969C21.3849 35.2233 22.1454 35.754 22.1454 36.5195V40.649C22.1454 41.8638 21.4204 43.0057 20.2287 43.2415C20.0494 43.2769 19.8702 43.307 19.691 43.3316C18.9101 43.4442 18.1477 43.5004 17.404 43.5004Z" fill="white"/>
<path d="M149.598 43.381C146.856 43.381 144.633 41.1583 144.633 38.4164V22.5593C144.633 21.2837 144.596 19.9894 144.522 18.6763C144.404 16.604 146.009 14.7933 148.085 14.7933H151.569C152.829 14.7933 153.888 15.7399 154.029 16.9923L154.311 19.4928C154.326 19.6276 154.221 19.7455 154.085 19.7455C153.918 19.7455 153.809 19.5718 153.885 19.4236C154.698 17.8509 155.853 16.6077 157.352 15.6937C158.951 14.6808 160.829 14.1743 162.986 14.1743C165.068 14.1743 166.834 14.6808 168.285 15.6937C169.674 16.6048 170.707 18.023 171.382 19.9486C171.454 20.1536 171.299 20.3646 171.082 20.3646C170.845 20.3646 170.69 20.1178 170.801 19.9086C171.717 18.1754 172.979 16.808 174.588 15.8063C176.373 14.7183 178.363 14.1743 180.557 14.1743C183.792 14.1743 186.209 15.1685 187.809 17.1569C189.408 19.1078 190.207 22.1654 190.207 26.3297V38.3885C190.207 41.1458 187.972 43.381 185.215 43.381C182.457 43.381 180.222 41.1458 180.222 38.3885V26.6673C180.222 24.9041 179.962 23.666 179.441 22.9532C178.921 22.2029 178.084 21.8277 176.931 21.8277C175.481 21.8277 174.346 22.3529 173.528 23.4034C172.747 24.4539 172.357 25.8982 172.357 27.7366V38.4164C172.357 41.1582 170.134 43.381 167.392 43.381C164.65 43.381 162.428 41.1583 162.428 38.4164V26.6673C162.428 24.9041 162.149 23.666 161.591 22.9532C161.07 22.2029 160.252 21.8277 159.137 21.8277C157.686 21.8277 156.552 22.3529 155.734 23.4034C154.953 24.4539 154.562 25.8982 154.562 27.7366V38.4164C154.562 41.1583 152.34 43.381 149.598 43.381Z" fill="white"/>
<path d="M30.8826 43.381C28.1212 43.381 25.8623 41.1424 25.8623 38.381V22.6155C25.8623 21.3025 25.8251 19.9894 25.7507 18.6763C25.6333 16.604 27.2384 14.7933 29.314 14.7933H31.1191C33.3399 14.7933 35.2108 16.4519 35.4769 18.6567L35.9825 22.8443C36.0292 23.2314 35.727 23.5722 35.3371 23.5722C34.9336 23.5722 34.6268 23.208 34.7089 22.813C35.0833 21.0128 35.6301 19.5027 36.3493 18.2824C37.1674 16.8943 38.1901 15.8626 39.4173 15.1873C40.6445 14.512 42.0948 14.1743 43.7683 14.1743C44.5492 14.1743 45.1256 14.2118 45.4975 14.2869C46.3011 14.3606 46.7805 15.1494 46.7805 15.9564V21.0329C46.7805 22.148 45.6423 22.8361 44.5492 22.6155C43.9914 22.503 43.2662 22.4467 42.3737 22.4467C40.849 22.4467 39.6032 22.7281 38.6363 23.2908C37.6695 23.8161 36.9629 24.6414 36.5166 25.7669C36.1076 26.8924 35.903 28.3368 35.903 30.1001V38.381C35.903 41.1424 33.6441 43.381 30.8826 43.381Z" fill="white"/>
<path d="M60.8276 43.5005C58.3732 43.5005 56.2163 42.919 54.3569 41.756C52.4975 40.5554 51.0285 38.8297 49.9501 36.5787C48.9088 34.3277 48.3882 31.664 48.3882 28.5876C48.3882 25.4738 48.9088 22.8101 49.9501 20.5966C51.0285 18.3456 52.4975 16.6386 54.3569 15.4756C56.2163 14.2751 58.3732 13.6748 60.8276 13.6748C63.0217 13.6748 64.9926 14.2 66.7405 15.2505C68.4223 16.2402 69.5594 17.5131 70.1519 19.069C70.2057 19.2105 70.0988 19.3586 69.9475 19.3586C69.8143 19.3586 69.711 19.2421 69.727 19.1098L70.0406 16.5216C70.1946 15.2501 71.2738 14.2938 72.5546 14.2938H75.9519C78.0471 14.2938 79.6919 16.0891 79.5145 18.1768C79.4401 19.4899 79.403 20.7842 79.403 22.0598V37.9161C79.403 40.6584 77.1799 42.8815 74.4376 42.8815H71.95C70.6353 42.8815 69.5611 41.8318 69.5308 40.5174L69.4803 38.3252C69.4767 38.1697 69.6017 38.0418 69.7572 38.0418C69.9467 38.0418 70.0801 38.228 70.009 38.4037C69.4083 39.8883 68.2816 41.0995 66.6289 42.0373C64.8811 43.0128 62.9473 43.5005 60.8276 43.5005ZM64.0071 36.0722C65.6806 36.0722 67.038 35.4907 68.0792 34.3277C69.1205 33.1271 69.6411 31.2138 69.6411 28.5876C69.6411 25.9615 69.1205 24.0669 68.0792 22.9039C67.038 21.7033 65.6806 21.1031 64.0071 21.1031C62.3337 21.1031 60.9763 21.7033 59.9351 22.9039C58.8938 24.0669 58.3732 25.9615 58.3732 28.5876C58.3732 31.2138 58.8752 33.1271 59.8793 34.3277C60.9205 35.4907 62.2965 36.0722 64.0071 36.0722ZM65.9475 11.5363C63.7124 11.5363 62.25 9.19477 63.2309 7.18637L65.7645 1.99836C66.3617 0.775554 67.6036 0 68.9644 0C71.8932 0 73.5698 3.33881 71.8206 5.68792L68.3723 10.3187C67.8018 11.0849 66.9027 11.5363 65.9475 11.5363Z" fill="white"/>
<path d="M100.006 43.6997C95.9897 43.6997 92.9589 42.743 90.9136 40.8296C88.9054 38.8788 87.9013 35.9337 87.9013 31.9945V24.5147C87.9013 23.0513 86.7151 21.865 85.2517 21.865C83.7883 21.865 82.6021 20.6787 82.6021 19.2154V17.1426C82.6021 15.6793 83.7883 14.493 85.2517 14.493C86.7151 14.493 87.9013 13.3067 87.9013 11.8433V10.1097C87.9013 8.72047 88.8552 7.51296 90.2066 7.19126L94.1358 6.25595C96.0209 5.80723 97.8305 7.23665 97.8305 9.17441V11.493C97.8305 13.1498 99.1737 14.493 100.831 14.493H101.747C103.404 14.493 104.747 15.8361 104.747 17.493V18.865C104.747 20.5219 103.404 21.865 101.747 21.865H100.831C99.1737 21.865 97.8305 23.2081 97.8305 24.865V31.6006C97.8305 33.2513 98.2024 34.358 98.9462 34.9208C99.6899 35.446 100.582 35.7086 101.624 35.7086C102.256 35.7086 102.795 35.6711 103.241 35.5961C103.987 35.4225 104.747 35.9532 104.747 36.7187V40.8482C104.747 42.063 104.022 43.2049 102.831 43.4407C102.651 43.4761 102.472 43.5062 102.293 43.5308C101.512 43.6434 100.75 43.6997 100.006 43.6997Z" fill="white"/>
<path d="M119.969 43.5005C117.514 43.5005 115.357 42.919 113.498 41.756C111.639 40.5554 110.17 38.8297 109.091 36.5787C108.05 34.3277 107.529 31.664 107.529 28.5876C107.529 25.4738 108.05 22.8101 109.091 20.5966C110.17 18.3456 111.639 16.6386 113.498 15.4756C115.357 14.2751 117.514 13.6748 119.969 13.6748C122.163 13.6748 124.134 14.2 125.882 15.2505C127.563 16.2403 128.701 17.5131 129.293 19.0691C129.347 19.2105 129.24 19.3586 129.089 19.3586C128.955 19.3586 128.852 19.2421 128.868 19.1098L129.182 16.5216C129.336 15.2501 130.415 14.2938 131.696 14.2938H135.093C137.188 14.2938 138.833 16.0891 138.656 18.1768C138.581 19.4899 138.544 20.7842 138.544 22.0598V37.9161C138.544 40.6584 136.321 42.8815 133.579 42.8815H131.091C129.776 42.8815 128.702 41.8318 128.672 40.5174L128.621 38.3252C128.618 38.1698 128.743 38.0418 128.898 38.0418C129.088 38.0418 129.221 38.228 129.15 38.4037C128.549 39.8883 127.423 41.0995 125.77 42.0373C124.022 43.0128 122.088 43.5005 119.969 43.5005ZM123.148 36.0722C124.822 36.0722 126.179 35.4907 127.22 34.3277C128.262 33.1272 128.782 31.2138 128.782 28.5876C128.782 25.9615 128.262 24.0669 127.22 22.9039C126.179 21.7034 124.822 21.1031 123.148 21.1031C121.475 21.1031 120.117 21.7034 119.076 22.9039C118.035 24.0669 117.514 25.9615 117.514 28.5876C117.514 31.2138 118.016 33.1272 119.02 34.3277C120.062 35.4907 121.438 36.0722 123.148 36.0722Z" fill="white"/>
<path d="M211.252 44C206.12 44 202.122 42.6682 199.258 40.0045C196.432 37.3408 195.019 33.6829 195.019 29.0309C195.019 26.1421 195.614 23.5722 196.804 21.3212C197.994 19.0702 199.668 17.3257 201.824 16.0877C203.981 14.8121 206.51 14.1743 209.411 14.1743C212.274 14.1743 214.654 14.8121 216.551 16.0877C218.485 17.3257 219.935 19.0515 220.902 21.265C221.869 23.4409 222.352 25.9733 222.352 28.8621C222.352 30.0431 221.395 31.0005 220.214 31.0005H205.694C204.389 31.0005 203.331 29.9423 203.331 28.637C203.331 27.3316 204.389 26.2734 205.694 26.2734H214.348C214.584 26.2734 214.69 26.5681 214.509 26.7186C214.345 26.8548 214.095 26.7379 214.087 26.5248C214.023 24.6574 213.617 23.2605 212.869 22.3342C212.088 21.2837 210.973 20.7585 209.522 20.7585C207.849 20.7585 206.566 21.3963 205.673 22.6718C204.818 23.9099 204.39 25.7857 204.39 28.2993V29.3123C204.39 31.8259 205.004 33.6642 206.231 34.8272C207.458 35.9902 209.225 36.5717 211.531 36.5717C213.018 36.5717 214.413 36.4029 215.714 36.0652C217.801 35.5388 220.237 36.2891 221.024 38.2925L221.056 38.374C221.652 39.8894 221.137 41.6515 219.651 42.3168C218.872 42.6655 218.043 42.964 217.164 43.2122C215.305 43.7374 213.334 44 211.252 44Z" fill="white"/>
<path d="M230.859 28.0176C231.023 27.3445 230.828 26.6342 230.342 26.1402C227.803 23.5578 226.345 20.3526 226.345 16.9142C226.345 9.02025 234.26 2 244.874 2C255.488 2 263.402 9.02025 263.402 16.9142C263.402 24.8081 255.488 31.8284 244.874 31.8284C242.045 31.8284 239.375 31.2981 236.974 30.3821C236.309 30.1283 235.558 30.2475 235.004 30.6951C233.61 31.8219 231.176 33.4361 227.992 34.1129C227.999 34.1021 228.007 34.0913 228.014 34.0805C229.043 32.5612 230.277 30.3967 230.859 28.0176Z" stroke="white" stroke-width="4" stroke-linejoin="round"/>
<path d="M254.338 14.8882C254.338 9.80069 248.549 7.07819 245.169 10.5715C241.789 7.07819 236 9.80069 236 14.8882C236 17.3015 237.486 19.8253 240.416 22.39C242.487 24.2019 244.531 25.3681 244.617 25.4175C244.96 25.612 245.377 25.612 245.72 25.4175C245.806 25.3681 247.85 24.2019 249.921 22.39C252.851 19.8263 254.337 17.3015 254.337 14.8882H254.338Z" fill="white"/>
</svg>
