<svg width="119" height="103" viewBox="0 0 119 103" fill="none" xmlns="http://www.w3.org/2000/svg">
<path d="M5.42334 98.3887H2.59814L2.06103 100H0.347656L3.25879 92.1797H4.75195L7.6792 100H5.96582L5.42334 98.3887ZM3.0332 97.0835H4.98828L4.00537 94.1562L3.0332 97.0835ZM13.6518 93.4849H11.2563V100H9.64502V93.4849H7.28174V92.1797H13.6518V93.4849ZM19.2807 96.6108H16.187V98.7056H19.8179V100H14.5757V92.1797H19.8071V93.4849H16.187V95.3486H19.2807V96.6108ZM27.1225 100H25.5112L22.3745 94.8545V100H20.7632V92.1797H22.3745L25.5166 97.3359V92.1797H27.1225V100ZM34.6689 97.395C34.6081 98.2365 34.2965 98.8989 33.7344 99.3823C33.1758 99.8657 32.4381 100.107 31.5215 100.107C30.5189 100.107 29.7293 99.7708 29.1528 99.0977C28.5799 98.4209 28.2934 97.4935 28.2934 96.3154V95.8374C28.2934 95.0854 28.4259 94.423 28.6909 93.8501C28.9559 93.2772 29.3336 92.8385 29.8242 92.5342C30.3183 92.2262 30.8913 92.0723 31.543 92.0723C32.4453 92.0723 33.1722 92.314 33.7236 92.7974C34.2751 93.2808 34.5937 93.9593 34.6797 94.833H33.0683C33.029 94.3281 32.8875 93.9629 32.644 93.7373C32.4041 93.5081 32.0371 93.3936 31.543 93.3936C31.0058 93.3936 30.603 93.5869 30.3345 93.9736C30.0695 94.3568 29.9334 94.953 29.9263 95.7622V96.353C29.9263 97.1981 30.0534 97.8158 30.3076 98.2061C30.5654 98.5964 30.97 98.7915 31.5215 98.7915C32.0192 98.7915 32.3898 98.6787 32.6333 98.4531C32.8804 98.224 33.0218 97.8713 33.0576 97.395H34.6689ZM37.4404 100H35.8291V92.1797H37.4404V100ZM45.3628 96.2671C45.3628 97.0369 45.2267 97.7119 44.9546 98.292C44.6824 98.8721 44.2921 99.3197 43.7837 99.6348C43.2788 99.9499 42.6987 100.107 42.0434 100.107C41.3953 100.107 40.817 99.9517 40.3086 99.6401C39.8001 99.3286 39.4062 98.8846 39.1269 98.3081C38.8476 97.728 38.7062 97.062 38.7026 96.3101V95.9233C38.7026 95.1535 38.8405 94.4767 39.1162 93.8931C39.3955 93.3058 39.7876 92.8564 40.2925 92.5449C40.8009 92.2298 41.381 92.0723 42.0327 92.0723C42.6844 92.0723 43.2627 92.2298 43.7676 92.5449C44.276 92.8564 44.6681 93.3058 44.9438 93.8931C45.2231 94.4767 45.3628 95.1517 45.3628 95.918V96.2671ZM43.73 95.9126C43.73 95.0926 43.5832 94.4696 43.2895 94.0435C42.9959 93.6174 42.577 93.4043 42.0327 93.4043C41.492 93.4043 41.0749 93.6156 40.7812 94.0381C40.4876 94.457 40.339 95.0729 40.3354 95.8857V96.2671C40.3354 97.0656 40.4822 97.6851 40.7759 98.1255C41.0695 98.5659 41.492 98.7861 42.0434 98.7861C42.5841 98.7861 42.9995 98.5749 43.2895 98.1523C43.5796 97.7262 43.7264 97.1068 43.73 96.2939V95.9126ZM42.3442 90.085H44.0361L42.5483 91.75H41.2861L42.3442 90.085ZM52.8931 100H51.2817L48.145 94.8545V100H46.5337V92.1797H48.145L51.2871 97.3359V92.1797H52.8931V100ZM61.4546 98.3887H58.6294L58.0923 100H56.3789L59.29 92.1797H60.7832L63.7104 100H61.9971L61.4546 98.3887ZM59.0644 97.0835H61.0195L60.0366 94.1562L59.0644 97.0835ZM70.5102 99.0117C70.2202 99.359 69.8102 99.6294 69.2803 99.8228C68.7503 100.013 68.1631 100.107 67.5185 100.107C66.8418 100.107 66.2474 99.9606 65.7353 99.667C65.2269 99.3698 64.833 98.9401 64.5537 98.3779C64.278 97.8158 64.1365 97.1551 64.1294 96.396V95.8643C64.1294 95.0837 64.2601 94.4087 64.5215 93.8394C64.7864 93.2664 65.166 92.8296 65.6601 92.5288C66.1579 92.2244 66.7397 92.0723 67.4057 92.0723C68.3332 92.0723 69.0583 92.2943 69.581 92.7383C70.1038 93.1787 70.4136 93.8215 70.5102 94.6665H68.9419C68.8703 94.2189 68.7109 93.8913 68.4639 93.6836C68.2204 93.4759 67.8838 93.3721 67.4541 93.3721C66.9062 93.3721 66.4891 93.578 66.2026 93.9897C65.9162 94.4015 65.7711 95.0138 65.7676 95.8267V96.3262C65.7676 97.1462 65.9233 97.7656 66.2349 98.1846C66.5464 98.6035 67.0029 98.813 67.6045 98.813C68.2096 98.813 68.6411 98.6841 68.8989 98.4263V97.0781H67.4326V95.8911H70.5102V99.0117ZM76.5259 96.6108H73.4321V98.7056H77.063V100H71.8208V92.1797H77.0522V93.4849H73.4321V95.3486H76.5259V96.6108ZM84.3677 100H82.7563L79.6196 94.8545V100H78.0083V92.1797H79.6196L82.7617 97.3359V92.1797H84.3677V100ZM85.7749 100V92.1797H88.1811C88.8686 92.1797 89.4827 92.3354 90.0234 92.647C90.5677 92.9549 90.992 93.3953 91.2964 93.9683C91.6007 94.5376 91.7529 95.1857 91.7529 95.9126V96.2725C91.7529 96.9993 91.6025 97.6457 91.3017 98.2114C91.0045 98.7772 90.5838 99.2158 90.0395 99.5273C89.4953 99.8389 88.8812 99.9964 88.1973 100H85.7749ZM87.3862 93.4849V98.7056H88.165C88.7952 98.7056 89.2768 98.4997 89.6099 98.0879C89.9429 97.6761 90.1129 97.0871 90.1201 96.3208V95.9072C90.1201 95.1123 89.9554 94.5107 89.626 94.1025C89.2965 93.6908 88.8149 93.4849 88.1811 93.4849H87.3862ZM97.2261 98.3887H94.4009L93.8638 100H92.1504L95.0615 92.1797H96.5547L99.4819 100H97.7685L97.2261 98.3887ZM94.8359 97.0835H96.791L95.8081 94.1562L94.8359 97.0835ZM100.213 100V92.1797H102.952C103.901 92.1797 104.621 92.3623 105.111 92.7275C105.602 93.0892 105.847 93.6209 105.847 94.3228C105.847 94.7059 105.749 95.0443 105.552 95.3379C105.355 95.6279 105.081 95.841 104.73 95.9771C105.131 96.0773 105.446 96.2796 105.675 96.584C105.908 96.8883 106.024 97.2607 106.024 97.7012C106.024 98.4531 105.785 99.0225 105.305 99.4092C104.825 99.7959 104.141 99.9928 103.253 100H100.213ZM101.824 96.5947V98.7056H103.205C103.584 98.7056 103.88 98.616 104.091 98.437C104.306 98.2544 104.413 98.0037 104.413 97.6851C104.413 96.9689 104.042 96.6055 103.301 96.5947H101.824ZM101.824 95.4561H103.017C103.829 95.4417 104.236 95.1177 104.236 94.4839C104.236 94.1294 104.132 93.8752 103.924 93.7212C103.72 93.5636 103.396 93.4849 102.952 93.4849H101.824V95.4561ZM108.85 98.7056H112.271V100H107.238V92.1797H108.85V98.7056ZM117.905 96.6108H114.812V98.7056H118.442V100H113.2V92.1797H118.432V93.4849H114.812V95.3486H117.905V96.6108Z" fill="#124372"/>
<path d="M93.25 13.5H84.25L83.125 11.5312C82.5625 10.125 80.7344 9 79.1875 9H69.3438L65.5469 5.20312C65.125 4.78125 64.5625 4.5 64 4.5C64 4.5 64 4.5 63.8594 4.5C62.7344 4.5 61.75 5.625 61.75 6.75V31.5H46H45.8594C43.1875 31.5 40.6562 32.3438 38.5469 33.75H34.75C30.9531 33.75 28 30.7969 28 27C28 25.875 26.875 24.75 25.75 24.75C24.4844 24.75 23.5 25.875 23.5 27C23.5 33.1875 28.2812 38.1094 34.3281 38.25C33.2031 40.2188 32.5 42.6094 32.5 45V67.5C32.5 70.0312 34.4688 72 37 72H46C48.3906 72 50.5 70.0312 50.5 67.5V54H64V67.5C64 70.0312 65.9688 72 68.5 72H77.5C79.8906 72 82 70.0312 82 67.5V33.75H86.5C91.4219 33.75 95.5 29.8125 95.5 24.75V15.75C95.5 14.625 94.375 13.5 93.25 13.5ZM77.5 67.5H68.5V49.5H46V67.5H37V45C37 40.0781 40.9375 36.1406 46 36H62.5938L77.5 39.7969V67.5ZM91 24.75C91 27.2812 88.8906 29.25 86.5 29.25H77.5V35.1562L66.25 32.3438V12.2344L67.5156 13.5H79.1875L81.4375 18H91V24.75ZM77.5 18C77.5 16.875 76.375 15.75 75.25 15.75C73.9844 15.75 73 16.875 73 18C73 19.2656 73.9844 20.25 75.25 20.25C76.375 20.25 77.5 19.2656 77.5 18Z" fill="#124372"/>
<path d="M93.25 13.5H84.25L83.125 11.5312C82.5625 10.125 80.7344 9 79.1875 9H69.3438L65.5469 5.20312C65.125 4.78125 64.5625 4.5 64 4.5C64 4.5 64 4.5 63.8594 4.5C62.7344 4.5 61.75 5.625 61.75 6.75V31.5H46H45.8594C43.1875 31.5 40.6562 32.3438 38.5469 33.75H34.75C30.9531 33.75 28 30.7969 28 27C28 25.875 26.875 24.75 25.75 24.75C24.4844 24.75 23.5 25.875 23.5 27C23.5 33.1875 28.2812 38.1094 34.3281 38.25C33.2031 40.2188 32.5 42.6094 32.5 45V67.5C32.5 70.0312 34.4688 72 37 72H46C48.3906 72 50.5 70.0312 50.5 67.5V54H64V67.5C64 70.0312 65.9688 72 68.5 72H77.5C79.8906 72 82 70.0312 82 67.5V33.75H86.5C91.4219 33.75 95.5 29.8125 95.5 24.75V15.75C95.5 14.625 94.375 13.5 93.25 13.5ZM77.5 67.5H68.5V49.5H46V67.5H37V45C37 40.0781 40.9375 36.1406 46 36H62.5938L77.5 39.7969V67.5ZM91 24.75C91 27.2812 88.8906 29.25 86.5 29.25H77.5V35.1562L66.25 32.3438V12.2344L67.5156 13.5H79.1875L81.4375 18H91V24.75ZM77.5 18C77.5 16.875 76.375 15.75 75.25 15.75C73.9844 15.75 73 16.875 73 18C73 19.2656 73.9844 20.25 75.25 20.25C76.375 20.25 77.5 19.2656 77.5 18Z" fill="#124372"/>
</svg>
