<svg width="124" height="105" viewBox="0 0 124 105" fill="none" xmlns="http://www.w3.org/2000/svg">
<path d="M61.9891 33.1288C71.0479 33.1288 78.5537 25.7525 78.5537 16.5644C78.5537 7.50575 71.0479 0 61.9891 0C52.8009 0 45.4244 7.50575 45.4244 16.5644C45.4244 25.7525 52.8009 33.1288 61.9891 33.1288ZM61.9891 4.1411C68.7184 4.1411 74.4125 9.83512 74.4125 16.5644C74.4125 23.4231 68.7184 28.9877 61.9891 28.9877C55.1303 28.9877 49.5656 23.4231 49.5656 16.5644C49.5656 9.83512 55.1303 4.1411 61.9891 4.1411ZM74.0243 37.3993C69.6243 37.2699 68.3302 39.3405 61.9891 39.3405C55.5186 39.3405 54.2244 37.2699 49.8244 37.3993C40.5068 37.6582 33.001 45.2934 33.001 54.7402V65.2224C33.001 65.8694 33.3892 66.2577 34.0363 66.2577H36.1068C36.6245 66.2577 37.1421 65.8694 37.1421 65.2224V54.7402C37.1421 47.7521 42.5774 41.9287 49.5656 41.5404V52.1521C46.4597 53.0578 44.3892 55.7755 44.3892 59.0107C44.3892 63.0224 47.6244 66.2577 51.6362 66.2577C55.5186 66.2577 58.8832 63.0224 58.8832 59.0107C58.8832 55.7755 56.6832 53.0578 53.7068 52.1521V42.1875C56.295 43.0933 59.142 43.4816 61.9891 43.4816C64.7067 43.4816 67.5538 43.0933 70.2714 42.1875V51.1168C66.5185 52.0226 64.0596 55.5167 64.0596 59.399V63.1518C64.0596 63.7989 64.189 64.3165 64.5773 64.7048L66.0008 65.9989C66.389 66.3871 67.0361 66.3871 67.4243 65.9989L68.8478 64.5754C69.2361 64.1871 69.2361 63.5401 68.8478 63.0224L68.0714 62.3753V59.0107C68.0714 56.5519 70.4008 54.6109 72.989 54.999C75.0596 55.2579 76.3537 57.199 76.3537 59.2695V62.3753L75.7066 63.0224C75.3184 63.5401 75.3184 64.1871 75.7066 64.5754L77.1301 65.9989C77.5184 66.3871 78.1654 66.3871 78.5537 65.9989L79.9772 64.7048C80.3655 64.3165 80.4949 63.7989 80.4949 63.1518V59.0107C80.4949 55.2579 77.9066 52.0226 74.2831 51.1168V41.5404C81.2713 42.0581 86.7066 47.7521 86.7066 54.7402V65.2224C86.7066 65.8694 87.2242 66.2577 87.7419 66.2577H89.8125C90.4595 66.2577 90.8478 65.8694 90.8478 65.2224V54.7402C90.9771 45.2934 83.4714 37.6582 74.0243 37.3993ZM54.742 59.0107C54.742 60.8225 53.3185 62.1166 51.6362 62.1166C49.8244 62.1166 48.5303 60.8225 48.5303 59.0107C48.5303 57.3284 49.8244 55.9049 51.6362 55.9049C53.3185 55.9049 54.742 57.3284 54.742 59.0107Z" fill="white"/>
<path opacity="0.77" d="M4.2373 94.2168L1.91699 101.289H0.0478516L3.21777 92.7578H4.40723L4.2373 94.2168ZM6.16504 101.289L3.83887 94.2168L3.65137 92.7578H4.85254L8.04004 101.289H6.16504ZM6.05957 98.1133V99.4902H1.55371V98.1133H6.05957ZM11.9189 92.7578V101.289H10.167V92.7578H11.9189ZM14.5439 92.7578V94.1348H7.58301V92.7578H14.5439ZM21.2705 99.918V101.289H16.7295V99.918H21.2705ZM17.3037 92.7578V101.289H15.5459V92.7578H17.3037ZM20.6787 96.2324V97.5684H16.7295V96.2324H20.6787ZM21.2646 92.7578V94.1348H16.7295V92.7578H21.2646ZM29.2393 92.7578V101.289H27.4814L24.0537 95.5703V101.289H22.2959V92.7578H24.0537L27.4873 98.4824V92.7578H29.2393ZM35.7139 98.459H37.4658C37.4307 99.0332 37.2725 99.543 36.9912 99.9883C36.7139 100.434 36.3252 100.781 35.8252 101.031C35.3291 101.281 34.7314 101.406 34.0322 101.406C33.4854 101.406 32.9951 101.312 32.5615 101.125C32.1279 100.934 31.7568 100.66 31.4482 100.305C31.1436 99.9492 30.9111 99.5195 30.751 99.0156C30.5908 98.5117 30.5107 97.9473 30.5107 97.3223V96.7305C30.5107 96.1055 30.5928 95.541 30.7568 95.0371C30.9248 94.5293 31.1631 94.0977 31.4717 93.7422C31.7842 93.3867 32.1572 93.1133 32.5908 92.9219C33.0244 92.7305 33.5088 92.6348 34.0439 92.6348C34.7549 92.6348 35.3545 92.7637 35.8428 93.0215C36.335 93.2793 36.7158 93.6348 36.9854 94.0879C37.2588 94.541 37.4229 95.0566 37.4775 95.6348H35.7197C35.7002 95.291 35.6318 95 35.5146 94.7617C35.3975 94.5195 35.2197 94.3379 34.9814 94.2168C34.7471 94.0918 34.4346 94.0293 34.0439 94.0293C33.751 94.0293 33.4951 94.084 33.2764 94.1934C33.0576 94.3027 32.874 94.4688 32.7256 94.6914C32.5771 94.9141 32.4658 95.1953 32.3916 95.5352C32.3213 95.8711 32.2861 96.2656 32.2861 96.7188V97.3223C32.2861 97.7637 32.3193 98.1523 32.3857 98.4883C32.4521 98.8203 32.5537 99.1016 32.6904 99.332C32.8311 99.5586 33.0107 99.7305 33.2295 99.8477C33.4521 99.9609 33.7197 100.018 34.0322 100.018C34.3994 100.018 34.7021 99.959 34.9404 99.8418C35.1787 99.7246 35.3604 99.5508 35.4854 99.3203C35.6143 99.0898 35.6904 98.8027 35.7139 98.459ZM40.4893 92.7578V101.289H38.7373V92.7578H40.4893ZM49.1436 96.8242V97.2285C49.1436 97.877 49.0557 98.459 48.8799 98.9746C48.7041 99.4902 48.4561 99.9297 48.1357 100.293C47.8154 100.652 47.4326 100.928 46.9873 101.119C46.5459 101.311 46.0557 101.406 45.5166 101.406C44.9814 101.406 44.4912 101.311 44.0459 101.119C43.6045 100.928 43.2217 100.652 42.8975 100.293C42.5732 99.9297 42.3213 99.4902 42.1416 98.9746C41.9658 98.459 41.8779 97.877 41.8779 97.2285V96.8242C41.8779 96.1719 41.9658 95.5898 42.1416 95.0781C42.3174 94.5625 42.5654 94.123 42.8857 93.7598C43.21 93.3965 43.5928 93.1191 44.0342 92.9277C44.4795 92.7363 44.9697 92.6406 45.5049 92.6406C46.0439 92.6406 46.5342 92.7363 46.9756 92.9277C47.4209 93.1191 47.8037 93.3965 48.124 93.7598C48.4482 94.123 48.6982 94.5625 48.874 95.0781C49.0537 95.5898 49.1436 96.1719 49.1436 96.8242ZM47.3682 97.2285V96.8125C47.3682 96.3594 47.3271 95.9609 47.2451 95.6172C47.1631 95.2734 47.042 94.9844 46.8818 94.75C46.7217 94.5156 46.5264 94.3398 46.2959 94.2227C46.0654 94.1016 45.8018 94.041 45.5049 94.041C45.208 94.041 44.9443 94.1016 44.7139 94.2227C44.4873 94.3398 44.2939 94.5156 44.1338 94.75C43.9775 94.9844 43.8584 95.2734 43.7764 95.6172C43.6943 95.9609 43.6533 96.3594 43.6533 96.8125V97.2285C43.6533 97.6777 43.6943 98.0762 43.7764 98.4238C43.8584 98.7676 43.9795 99.0586 44.1396 99.2969C44.2998 99.5312 44.4951 99.709 44.7256 99.8301C44.9561 99.9512 45.2197 100.012 45.5166 100.012C45.8135 100.012 46.0771 99.9512 46.3076 99.8301C46.5381 99.709 46.7314 99.5312 46.8877 99.2969C47.0439 99.0586 47.1631 98.7676 47.2451 98.4238C47.3271 98.0762 47.3682 97.6777 47.3682 97.2285ZM44.7021 92.2715L45.8506 90.4668H47.6846L46.0732 92.2715H44.7021ZM57.3525 92.7578V101.289H55.5947L52.167 95.5703V101.289H50.4092V92.7578H52.167L55.6006 98.4824V92.7578H57.3525ZM63.7393 92.7578V101.289H61.9873V92.7578H63.7393ZM72.3291 92.7578V101.289H70.5713L67.1436 95.5703V101.289H65.3857V92.7578H67.1436L70.5771 98.4824V92.7578H72.3291ZM74.6611 92.7578H76.1494L78.3408 99.0215L80.5322 92.7578H82.0205L78.9385 101.289H77.7432L74.6611 92.7578ZM73.8584 92.7578H75.3408L75.6104 98.8633V101.289H73.8584V92.7578ZM81.3408 92.7578H82.8291V101.289H81.0713V98.8633L81.3408 92.7578ZM90.0947 99.918V101.289H85.5537V99.918H90.0947ZM86.1279 92.7578V101.289H84.3701V92.7578H86.1279ZM89.5029 96.2324V97.5684H85.5537V96.2324H89.5029ZM90.0889 92.7578V94.1348H85.5537V92.7578H90.0889ZM93.7393 101.289H91.8818L91.8936 99.918H93.7393C94.2002 99.918 94.5889 99.8145 94.9053 99.6074C95.2217 99.3965 95.46 99.0898 95.6201 98.6875C95.7842 98.2852 95.8662 97.7988 95.8662 97.2285V96.8125C95.8662 96.375 95.8193 95.9902 95.7256 95.6582C95.6357 95.3262 95.501 95.0469 95.3213 94.8203C95.1416 94.5938 94.9209 94.4238 94.6592 94.3105C94.3975 94.1934 94.0967 94.1348 93.7568 94.1348H91.8467V92.7578H93.7568C94.3271 92.7578 94.8486 92.8555 95.3213 93.0508C95.7979 93.2422 96.21 93.5176 96.5576 93.877C96.9053 94.2363 97.1729 94.666 97.3604 95.166C97.5518 95.6621 97.6475 96.2148 97.6475 96.8242V97.2285C97.6475 97.834 97.5518 98.3867 97.3604 98.8867C97.1729 99.3867 96.9053 99.8164 96.5576 100.176C96.2139 100.531 95.8018 100.807 95.3213 101.002C94.8447 101.193 94.3174 101.289 93.7393 101.289ZM92.8779 92.7578V101.289H91.1201V92.7578H92.8779ZM100.794 92.7578V101.289H99.042V92.7578H100.794ZM106.015 94.2168L103.694 101.289H101.825L104.995 92.7578H106.185L106.015 94.2168ZM107.942 101.289L105.616 94.2168L105.429 92.7578H106.63L109.817 101.289H107.942ZM107.837 98.1133V99.4902H103.331V98.1133H107.837ZM113.696 92.7578V101.289H111.944V92.7578H113.696ZM116.321 92.7578V94.1348H109.36V92.7578H116.321ZM120.159 94.2168L117.839 101.289H115.97L119.14 92.7578H120.329L120.159 94.2168ZM122.087 101.289L119.761 94.2168L119.573 92.7578H120.774L123.962 101.289H122.087ZM121.981 98.1133V99.4902H117.476V98.1133H121.981Z" fill="white"/>
</svg>
