<svg width="130" height="105" viewBox="0 0 130 105" fill="none" xmlns="http://www.w3.org/2000/svg">
<path d="M64.9876 33.1288C74.0463 33.1288 81.552 25.7525 81.552 16.5644C81.552 7.50575 74.0463 0 64.9876 0C55.7995 0 48.4232 7.50575 48.4232 16.5644C48.4232 25.7525 55.7995 33.1288 64.9876 33.1288ZM64.9876 4.1411C71.7169 4.1411 77.4109 9.83512 77.4109 16.5644C77.4109 23.4231 71.7169 28.9877 64.9876 28.9877C58.1289 28.9877 52.5643 23.4231 52.5643 16.5644C52.5643 9.83512 58.1289 4.1411 64.9876 4.1411ZM77.0227 37.3993C72.6228 37.2699 71.3287 39.3405 64.9876 39.3405C58.5172 39.3405 57.223 37.2699 52.8231 37.3993C43.5056 37.6582 35.9999 45.2934 35.9999 54.7402V65.2224C35.9999 65.8694 36.3881 66.2577 37.0352 66.2577H39.1057C39.6233 66.2577 40.141 65.8694 40.141 65.2224V54.7402C40.141 47.7521 45.5761 41.9287 52.5643 41.5404V52.1521C49.4585 53.0578 47.3879 55.7755 47.3879 59.0107C47.3879 63.0224 50.6231 66.2577 54.6348 66.2577C58.5172 66.2577 61.8818 63.0224 61.8818 59.0107C61.8818 55.7755 59.6818 53.0578 56.7054 52.1521V42.1875C59.2936 43.0933 62.1406 43.4816 64.9876 43.4816C67.7052 43.4816 70.5522 43.0933 73.2698 42.1875V51.1168C69.517 52.0226 67.0582 55.5167 67.0582 59.399V63.1518C67.0582 63.7989 67.1875 64.3165 67.5758 64.7048L68.9993 65.9989C69.3875 66.3871 70.0346 66.3871 70.4228 65.9989L71.8463 64.5754C72.2345 64.1871 72.2345 63.5401 71.8463 63.0224L71.0699 62.3753V59.0107C71.0699 56.5519 73.3992 54.6109 75.9874 54.999C78.0579 55.2579 79.3521 57.199 79.3521 59.2695V62.3753L78.705 63.0224C78.3168 63.5401 78.3168 64.1871 78.705 64.5754L80.1285 65.9989C80.5168 66.3871 81.1638 66.3871 81.552 65.9989L82.9756 64.7048C83.3638 64.3165 83.4932 63.7989 83.4932 63.1518V59.0107C83.4932 55.2579 80.905 52.0226 77.2815 51.1168V41.5404C84.2696 42.0581 89.7048 47.7521 89.7048 54.7402V65.2224C89.7048 65.8694 90.2225 66.2577 90.7401 66.2577H92.8107C93.4577 66.2577 93.846 65.8694 93.846 65.2224V54.7402C93.9753 45.2934 86.4696 37.6582 77.0227 37.3993ZM57.7407 59.0107C57.7407 60.8225 56.3172 62.1166 54.6348 62.1166C52.8231 62.1166 51.529 60.8225 51.529 59.0107C51.529 57.3284 52.8231 55.9049 54.6348 55.9049C56.3172 55.9049 57.7407 57.3284 57.7407 59.0107Z" fill="white"/>
<path opacity="0.77" d="M4.67725 94.2168L2.35693 101.289H0.487793L3.65771 92.7578H4.84717L4.67725 94.2168ZM6.60498 101.289L4.27881 94.2168L4.09131 92.7578H5.29248L8.47998 101.289H6.60498ZM6.49951 98.1133V99.4902H1.99365V98.1133H6.49951ZM12.3589 92.7578V101.289H10.6069V92.7578H12.3589ZM14.9839 92.7578V94.1348H8.02295V92.7578H14.9839ZM21.7104 99.918V101.289H17.1694V99.918H21.7104ZM17.7437 92.7578V101.289H15.9858V92.7578H17.7437ZM21.1187 96.2324V97.5684H17.1694V96.2324H21.1187ZM21.7046 92.7578V94.1348H17.1694V92.7578H21.7046ZM29.6792 92.7578V101.289H27.9214L24.4937 95.5703V101.289H22.7358V92.7578H24.4937L27.9272 98.4824V92.7578H29.6792ZM36.1538 98.459H37.9058C37.8706 99.0332 37.7124 99.543 37.4312 99.9883C37.1538 100.434 36.7651 100.781 36.2651 101.031C35.769 101.281 35.1714 101.406 34.4722 101.406C33.9253 101.406 33.4351 101.312 33.0015 101.125C32.5679 100.934 32.1968 100.66 31.8882 100.305C31.5835 99.9492 31.3511 99.5195 31.1909 99.0156C31.0308 98.5117 30.9507 97.9473 30.9507 97.3223V96.7305C30.9507 96.1055 31.0327 95.541 31.1968 95.0371C31.3647 94.5293 31.603 94.0977 31.9116 93.7422C32.2241 93.3867 32.5972 93.1133 33.0308 92.9219C33.4644 92.7305 33.9487 92.6348 34.4839 92.6348C35.1948 92.6348 35.7944 92.7637 36.2827 93.0215C36.7749 93.2793 37.1558 93.6348 37.4253 94.0879C37.6987 94.541 37.8628 95.0566 37.9175 95.6348H36.1597C36.1401 95.291 36.0718 95 35.9546 94.7617C35.8374 94.5195 35.6597 94.3379 35.4214 94.2168C35.187 94.0918 34.8745 94.0293 34.4839 94.0293C34.1909 94.0293 33.9351 94.084 33.7163 94.1934C33.4976 94.3027 33.314 94.4688 33.1655 94.6914C33.0171 94.9141 32.9058 95.1953 32.8315 95.5352C32.7612 95.8711 32.7261 96.2656 32.7261 96.7188V97.3223C32.7261 97.7637 32.7593 98.1523 32.8257 98.4883C32.8921 98.8203 32.9937 99.1016 33.1304 99.332C33.271 99.5586 33.4507 99.7305 33.6694 99.8477C33.8921 99.9609 34.1597 100.018 34.4722 100.018C34.8394 100.018 35.1421 99.959 35.3804 99.8418C35.6187 99.7246 35.8003 99.5508 35.9253 99.3203C36.0542 99.0898 36.1304 98.8027 36.1538 98.459ZM40.9292 92.7578V101.289H39.1772V92.7578H40.9292ZM49.5835 96.8242V97.2285C49.5835 97.877 49.4956 98.459 49.3198 98.9746C49.144 99.4902 48.896 99.9297 48.5757 100.293C48.2554 100.652 47.8726 100.928 47.4272 101.119C46.9858 101.311 46.4956 101.406 45.9565 101.406C45.4214 101.406 44.9312 101.311 44.4858 101.119C44.0444 100.928 43.6616 100.652 43.3374 100.293C43.0132 99.9297 42.7612 99.4902 42.5815 98.9746C42.4058 98.459 42.3179 97.877 42.3179 97.2285V96.8242C42.3179 96.1719 42.4058 95.5898 42.5815 95.0781C42.7573 94.5625 43.0054 94.123 43.3257 93.7598C43.6499 93.3965 44.0327 93.1191 44.4741 92.9277C44.9194 92.7363 45.4097 92.6406 45.9448 92.6406C46.4839 92.6406 46.9741 92.7363 47.4155 92.9277C47.8608 93.1191 48.2437 93.3965 48.564 93.7598C48.8882 94.123 49.1382 94.5625 49.314 95.0781C49.4937 95.5898 49.5835 96.1719 49.5835 96.8242ZM47.8081 97.2285V96.8125C47.8081 96.3594 47.7671 95.9609 47.6851 95.6172C47.603 95.2734 47.4819 94.9844 47.3218 94.75C47.1616 94.5156 46.9663 94.3398 46.7358 94.2227C46.5054 94.1016 46.2417 94.041 45.9448 94.041C45.6479 94.041 45.3843 94.1016 45.1538 94.2227C44.9272 94.3398 44.7339 94.5156 44.5737 94.75C44.4175 94.9844 44.2983 95.2734 44.2163 95.6172C44.1343 95.9609 44.0933 96.3594 44.0933 96.8125V97.2285C44.0933 97.6777 44.1343 98.0762 44.2163 98.4238C44.2983 98.7676 44.4194 99.0586 44.5796 99.2969C44.7397 99.5312 44.9351 99.709 45.1655 99.8301C45.396 99.9512 45.6597 100.012 45.9565 100.012C46.2534 100.012 46.5171 99.9512 46.7476 99.8301C46.978 99.709 47.1714 99.5312 47.3276 99.2969C47.4839 99.0586 47.603 98.7676 47.6851 98.4238C47.7671 98.0762 47.8081 97.6777 47.8081 97.2285ZM45.1421 92.2715L46.2905 90.4668H48.1245L46.5132 92.2715H45.1421ZM57.7925 92.7578V101.289H56.0347L52.6069 95.5703V101.289H50.8491V92.7578H52.6069L56.0405 98.4824V92.7578H57.7925ZM65.7788 94.2168L63.4585 101.289H61.5894L64.7593 92.7578H65.9487L65.7788 94.2168ZM67.7065 101.289L65.3804 94.2168L65.1929 92.7578H66.394L69.5815 101.289H67.7065ZM67.6011 98.1133V99.4902H63.0952V98.1133H67.6011ZM77.0288 96.8301V100.211C76.896 100.371 76.6909 100.545 76.4136 100.732C76.1362 100.916 75.7788 101.074 75.3413 101.207C74.9038 101.34 74.3745 101.406 73.7534 101.406C73.2026 101.406 72.7007 101.316 72.2476 101.137C71.7944 100.953 71.4038 100.686 71.0757 100.334C70.7515 99.9824 70.5015 99.5527 70.3257 99.0449C70.1499 98.5332 70.062 97.9492 70.062 97.293V96.7598C70.062 96.1035 70.146 95.5195 70.314 95.0078C70.4858 94.4961 70.73 94.0645 71.0464 93.7129C71.3628 93.3613 71.7397 93.0938 72.1772 92.9102C72.6147 92.7266 73.1011 92.6348 73.6362 92.6348C74.3784 92.6348 74.9878 92.7559 75.4644 92.998C75.9409 93.2363 76.3042 93.5684 76.5542 93.9941C76.8081 94.416 76.9644 94.9004 77.0229 95.4473H75.3179C75.2749 95.1582 75.1929 94.9062 75.0718 94.6914C74.9507 94.4766 74.7769 94.3086 74.5503 94.1875C74.3276 94.0664 74.0386 94.0059 73.6831 94.0059C73.3901 94.0059 73.1284 94.0664 72.8979 94.1875C72.6714 94.3047 72.48 94.4785 72.3237 94.709C72.1675 94.9395 72.0483 95.2246 71.9663 95.5645C71.8843 95.9043 71.8433 96.2988 71.8433 96.748V97.293C71.8433 97.7383 71.8862 98.1328 71.9722 98.4766C72.0581 98.8164 72.1851 99.1035 72.353 99.3379C72.5249 99.5684 72.7358 99.7422 72.9858 99.8594C73.2358 99.9766 73.5269 100.035 73.8589 100.035C74.1362 100.035 74.3667 100.012 74.5503 99.9648C74.7378 99.918 74.8882 99.8613 75.0015 99.7949C75.1187 99.7246 75.2085 99.6582 75.271 99.5957V98.084H73.6655V96.8301H77.0288ZM84.1714 99.918V101.289H79.6304V99.918H84.1714ZM80.2046 92.7578V101.289H78.4468V92.7578H80.2046ZM83.5796 96.2324V97.5684H79.6304V96.2324H83.5796ZM84.1655 92.7578V94.1348H79.6304V92.7578H84.1655ZM92.1401 92.7578V101.289H90.3823L86.9546 95.5703V101.289H85.1968V92.7578H86.9546L90.3882 98.4824V92.7578H92.1401ZM96.2886 101.289H94.4312L94.4429 99.918H96.2886C96.7495 99.918 97.1382 99.8145 97.4546 99.6074C97.771 99.3965 98.0093 99.0898 98.1694 98.6875C98.3335 98.2852 98.4155 97.7988 98.4155 97.2285V96.8125C98.4155 96.375 98.3687 95.9902 98.2749 95.6582C98.1851 95.3262 98.0503 95.0469 97.8706 94.8203C97.6909 94.5938 97.4702 94.4238 97.2085 94.3105C96.9468 94.1934 96.646 94.1348 96.3062 94.1348H94.396V92.7578H96.3062C96.8765 92.7578 97.3979 92.8555 97.8706 93.0508C98.3472 93.2422 98.7593 93.5176 99.1069 93.877C99.4546 94.2363 99.7222 94.666 99.9097 95.166C100.101 95.6621 100.197 96.2148 100.197 96.8242V97.2285C100.197 97.834 100.101 98.3867 99.9097 98.8867C99.7222 99.3867 99.4546 99.8164 99.1069 100.176C98.7632 100.531 98.3511 100.807 97.8706 101.002C97.394 101.193 96.8667 101.289 96.2886 101.289ZM95.4272 92.7578V101.289H93.6694V92.7578H95.4272ZM104.814 94.2168L102.494 101.289H100.625L103.794 92.7578H104.984L104.814 94.2168ZM106.742 101.289L104.416 94.2168L104.228 92.7578H105.429L108.617 101.289H106.742ZM106.636 98.1133V99.4902H102.13V98.1133H106.636ZM112.748 97.5449H110.556L110.544 96.3379H112.384C112.708 96.3379 112.974 96.2969 113.181 96.2148C113.388 96.1289 113.542 96.0059 113.644 95.8457C113.75 95.6816 113.802 95.4824 113.802 95.248C113.802 94.9824 113.751 94.7676 113.65 94.6035C113.552 94.4395 113.398 94.3203 113.187 94.2461C112.98 94.1719 112.712 94.1348 112.384 94.1348H111.166V101.289H109.408V92.7578H112.384C112.88 92.7578 113.324 92.8047 113.714 92.8984C114.109 92.9922 114.443 93.1348 114.716 93.3262C114.99 93.5176 115.199 93.7598 115.343 94.0527C115.488 94.3418 115.56 94.6855 115.56 95.084C115.56 95.4355 115.48 95.7598 115.32 96.0566C115.164 96.3535 114.916 96.5957 114.576 96.7832C114.24 96.9707 113.8 97.0742 113.257 97.0938L112.748 97.5449ZM112.671 101.289H110.076L110.761 99.918H112.671C112.98 99.918 113.232 99.8691 113.427 99.7715C113.623 99.6699 113.767 99.5332 113.861 99.3613C113.955 99.1895 114.001 98.9922 114.001 98.7695C114.001 98.5195 113.958 98.3027 113.873 98.1191C113.791 97.9355 113.658 97.7949 113.474 97.6973C113.291 97.5957 113.048 97.5449 112.748 97.5449H111.054L111.066 96.3379H113.175L113.58 96.8125C114.099 96.8047 114.517 96.8965 114.833 97.0879C115.154 97.2754 115.386 97.5195 115.531 97.8203C115.679 98.1211 115.753 98.4434 115.753 98.7871C115.753 99.334 115.634 99.7949 115.396 100.17C115.158 100.541 114.808 100.82 114.347 101.008C113.89 101.195 113.332 101.289 112.671 101.289ZM122.556 99.918V101.289H118.261V99.918H122.556ZM118.83 92.7578V101.289H117.072V92.7578H118.83ZM129.289 99.918V101.289H124.748V99.918H129.289ZM125.322 92.7578V101.289H123.564V92.7578H125.322ZM128.697 96.2324V97.5684H124.748V96.2324H128.697ZM129.283 92.7578V94.1348H124.748V92.7578H129.283Z" fill="white"/>
</svg>
