<svg width="83" height="63" viewBox="0 0 83 63" fill="none" xmlns="http://www.w3.org/2000/svg">
<g clip-path="url(#clip0_4007_546)">
<path d="M38.3056 21.166H31.0586V13.919C31.0586 13.4014 30.541 12.8838 30.0234 12.8838H23.8117C23.1647 12.8838 22.7764 13.4014 22.7764 13.919V21.166H15.5295C14.8825 21.166 14.4942 21.6836 14.4942 22.2012V28.4129C14.4942 29.0599 14.8825 29.4482 15.5295 29.4482H22.7764V36.6951C22.7764 37.3421 23.1647 37.7304 23.8117 37.7304H30.0234C30.541 37.7304 31.0586 37.3421 31.0586 36.6951V29.4482H38.3056C38.8232 29.4482 39.3409 29.0599 39.3409 28.4129V22.2012C39.3409 21.6836 38.8232 21.166 38.3056 21.166ZM81.7872 46.0126H78.6813V32.0364C78.6813 29.9658 77.7755 27.7659 76.2225 26.213L65.3521 15.3426C63.7992 13.7897 61.7287 12.8838 59.5287 12.8838H53.8347V6.5427C53.8347 3.17804 50.8583 0.460449 47.3643 0.460449H6.34143C2.84738 0.460449 0.000366211 3.17804 0.000366211 6.5427V44.2008C0.000366211 47.5655 2.84738 50.1537 6.34143 50.1537H8.41198C8.28257 50.9302 8.28257 51.5772 8.28257 52.2243C8.28257 58.0477 12.8119 62.577 18.6353 62.577C24.3294 62.577 28.9881 58.0477 28.9881 52.2243C28.9881 51.5772 28.8587 50.9302 28.7293 50.1537H53.9641C53.8347 50.9302 53.8347 51.5772 53.8347 52.2243C53.8347 58.0477 58.3641 62.577 64.1875 62.577C69.8815 62.577 74.5402 58.0477 74.5402 52.2243C74.5402 51.5772 74.4109 50.9302 74.2815 50.1537H81.7872C82.3048 50.1537 82.8224 49.7654 82.8224 49.1184V47.0479C82.8224 46.5302 82.3048 46.0126 81.7872 46.0126ZM18.6353 58.4359C15.1413 58.4359 12.4237 55.7183 12.4237 52.2243C12.4237 48.8597 15.1413 46.0126 18.6353 46.0126C21.9999 46.0126 24.847 48.8597 24.847 52.2243C24.847 55.7183 21.9999 58.4359 18.6353 58.4359ZM49.6936 46.0126H26.7882C24.9764 43.5538 21.9999 41.8715 18.6353 41.8715C15.2707 41.8715 12.2943 43.5538 10.3531 46.0126H6.34143C5.04734 46.0126 4.14147 45.2361 4.14147 44.2008V6.5427C4.14147 5.50742 5.04734 4.60155 6.34143 4.60155H47.3643C48.6583 4.60155 49.6936 5.50742 49.6936 6.5427V46.0126ZM53.8347 17.0249H59.5287C60.564 17.0249 61.5993 17.5425 62.3757 18.3189L73.2462 29.1894C73.3756 29.3188 73.3756 29.4482 73.505 29.5776H53.8347V17.0249ZM64.1875 58.4359C60.6934 58.4359 57.9758 55.7183 57.9758 52.2243C57.9758 48.8597 60.6934 46.0126 64.1875 46.0126C67.5521 46.0126 70.3991 48.8597 70.3991 52.2243C70.3991 55.7183 67.5521 58.4359 64.1875 58.4359ZM74.5402 46.0126H72.3403C70.5285 43.5538 67.5521 41.8715 64.1875 41.8715C60.8229 41.8715 57.8464 43.5538 55.9053 46.0126H53.8347V33.5893H74.5402V46.0126Z" fill="#1C1C1A"/>
<path d="M38.3056 21.166H31.0586V13.919C31.0586 13.4014 30.541 12.8838 30.0234 12.8838H23.8117C23.1647 12.8838 22.7764 13.4014 22.7764 13.919V21.166H15.5295C14.8825 21.166 14.4942 21.6836 14.4942 22.2012V28.4129C14.4942 29.0599 14.8825 29.4482 15.5295 29.4482H22.7764V36.6951C22.7764 37.3421 23.1647 37.7304 23.8117 37.7304H30.0234C30.541 37.7304 31.0586 37.3421 31.0586 36.6951V29.4482H38.3056C38.8232 29.4482 39.3409 29.0599 39.3409 28.4129V22.2012C39.3409 21.6836 38.8232 21.166 38.3056 21.166ZM81.7872 46.0126H78.6813V32.0364C78.6813 29.9658 77.7755 27.7659 76.2225 26.213L65.3521 15.3426C63.7992 13.7897 61.7287 12.8838 59.5287 12.8838H53.8347V6.5427C53.8347 3.17804 50.8583 0.460449 47.3643 0.460449H6.34143C2.84738 0.460449 0.000366211 3.17804 0.000366211 6.5427V44.2008C0.000366211 47.5655 2.84738 50.1537 6.34143 50.1537H8.41198C8.28257 50.9302 8.28257 51.5772 8.28257 52.2243C8.28257 58.0477 12.8119 62.577 18.6353 62.577C24.3294 62.577 28.9881 58.0477 28.9881 52.2243C28.9881 51.5772 28.8587 50.9302 28.7293 50.1537H53.9641C53.8347 50.9302 53.8347 51.5772 53.8347 52.2243C53.8347 58.0477 58.3641 62.577 64.1875 62.577C69.8815 62.577 74.5402 58.0477 74.5402 52.2243C74.5402 51.5772 74.4109 50.9302 74.2815 50.1537H81.7872C82.3048 50.1537 82.8224 49.7654 82.8224 49.1184V47.0479C82.8224 46.5302 82.3048 46.0126 81.7872 46.0126ZM18.6353 58.4359C15.1413 58.4359 12.4237 55.7183 12.4237 52.2243C12.4237 48.8597 15.1413 46.0126 18.6353 46.0126C21.9999 46.0126 24.847 48.8597 24.847 52.2243C24.847 55.7183 21.9999 58.4359 18.6353 58.4359ZM49.6936 46.0126H26.7882C24.9764 43.5538 21.9999 41.8715 18.6353 41.8715C15.2707 41.8715 12.2943 43.5538 10.3531 46.0126H6.34143C5.04734 46.0126 4.14147 45.2361 4.14147 44.2008V6.5427C4.14147 5.50742 5.04734 4.60155 6.34143 4.60155H47.3643C48.6583 4.60155 49.6936 5.50742 49.6936 6.5427V46.0126ZM53.8347 17.0249H59.5287C60.564 17.0249 61.5993 17.5425 62.3757 18.3189L73.2462 29.1894C73.3756 29.3188 73.3756 29.4482 73.505 29.5776H53.8347V17.0249ZM64.1875 58.4359C60.6934 58.4359 57.9758 55.7183 57.9758 52.2243C57.9758 48.8597 60.6934 46.0126 64.1875 46.0126C67.5521 46.0126 70.3991 48.8597 70.3991 52.2243C70.3991 55.7183 67.5521 58.4359 64.1875 58.4359ZM74.5402 46.0126H72.3403C70.5285 43.5538 67.5521 41.8715 64.1875 41.8715C60.8229 41.8715 57.8464 43.5538 55.9053 46.0126H53.8347V33.5893H74.5402V46.0126Z" fill="white"/>
</g>
<defs>
<clipPath id="clip0_4007_546">
<rect width="82.8221" height="62.5767" fill="white"/>
</clipPath>
</defs>
</svg>
