<svg width="84" height="74" viewBox="0 0 84 74" fill="none" xmlns="http://www.w3.org/2000/svg">
<path d="M21.3264 37.5137C21.3264 37.6401 21.1995 37.6401 21.1995 37.7666C27.1623 35.4902 34.2668 33.4668 41.625 33.4668C47.2071 33.4668 52.9161 34.7314 57.8639 36.3755C57.737 35.1108 57.8639 33.8462 58.752 32.3286C53.4235 30.6845 47.5877 29.4199 41.625 29.4199C33.7592 29.4199 26.2742 31.4434 20.0578 33.8462C20.8189 34.9844 21.3264 36.1225 21.3264 37.5137ZM63.9535 37.5137C64.9684 37.5137 65.9833 36.6284 65.9833 35.4902C65.9833 34.4785 64.9684 33.4668 63.9535 33.4668C62.8117 33.4668 61.9236 34.4785 61.9236 35.4902C61.9236 36.6284 62.8117 37.5137 63.9535 37.5137ZM75.1177 46.7456L72.8342 50.1602C72.1998 51.0454 71.058 51.2983 70.1699 50.666C67.3789 49.022 61.0355 45.7339 53.8042 43.584V61.2891C53.8042 61.6685 53.931 61.7949 54.3116 61.7949H57.3564C57.6102 61.7949 57.8639 61.6685 57.8639 61.2891V49.2749C62.5579 51.1719 66.3639 53.1953 68.14 54.207C70.6774 55.7246 74.3565 55.2188 76.2595 52.31L78.5431 49.022C80.1924 46.4927 79.9387 42.4458 76.6401 40.4224C74.9909 39.5371 72.7072 38.146 69.9162 36.7548C69.5356 38.146 68.7744 39.4107 67.6326 40.2959C70.6774 41.687 73.0878 42.9517 74.4834 43.8369C75.4983 44.4693 75.752 45.7339 75.1177 46.7456ZM53.8042 17.2793C53.8042 10.7031 48.222 5.13867 41.625 5.13867C34.9011 5.13867 29.4458 10.7031 29.4458 17.2793C29.4458 23.9819 34.9011 29.4199 41.625 29.4199C48.222 29.4199 53.8042 23.9819 53.8042 17.2793ZM41.625 25.373C37.0578 25.373 33.5055 21.832 33.5055 17.2793C33.5055 12.853 37.0578 9.18555 41.625 9.18555C46.0653 9.18555 49.7444 12.853 49.7444 17.2793C49.7444 21.832 46.0653 25.373 41.625 25.373ZM6.86362 52.31C8.76661 55.2188 12.4457 55.7246 14.9831 54.207C16.7592 53.1953 20.5651 51.0454 25.3861 49.2749V61.2891C25.3861 61.6685 25.5129 61.7949 25.8936 61.7949H28.9384C29.1921 61.7949 29.4458 61.6685 29.4458 61.2891V43.584C22.0876 45.7339 15.7443 49.022 12.9532 50.7925C12.0652 51.2983 10.9234 51.0454 10.289 50.1602L8.00542 46.7456C7.37109 45.7339 7.62482 44.4693 8.63975 43.8369C9.40095 43.4575 10.289 42.9517 11.4308 42.3194C10.289 41.4341 9.52782 40.2959 9.27408 38.9048C8.25915 39.4107 7.24422 40.043 6.48303 40.4224C3.18449 42.4458 2.93077 46.4927 4.58003 49.022L6.86362 52.31ZM81.2073 65.8418H2.0427C1.40837 65.8418 1.02777 66.3477 1.02777 66.8535V68.877C1.02777 69.5093 1.40837 69.8887 2.0427 69.8887H81.2073C81.7147 69.8887 82.2222 69.5093 82.2222 68.877V66.8535C82.2222 66.3477 81.7147 65.8418 81.2073 65.8418ZM15.2368 39.5371C16.2517 39.5371 17.2667 38.6518 17.2667 37.5137C17.2667 36.502 16.2517 35.4902 15.2368 35.4902C14.095 35.4902 13.2069 36.502 13.2069 37.5137C13.2069 38.6518 14.095 39.5371 15.2368 39.5371ZM33.5055 43.584C33.5055 44.7221 34.3936 45.6074 35.5354 45.6074C36.5503 45.6074 37.5653 44.7221 37.5653 43.584C37.5653 42.5723 36.5503 41.5605 35.5354 41.5605C34.3936 41.5605 33.5055 42.5723 33.5055 43.584ZM45.6847 55.7246C45.6847 56.8628 46.5728 57.748 47.7146 57.748C48.7295 57.748 49.7444 56.8628 49.7444 55.7246C49.7444 54.7129 48.7295 53.7012 47.7146 53.7012C46.5728 53.7012 45.6847 54.7129 45.6847 55.7246Z" fill="white"/>
</svg>
