<svg width="75" height="67" viewBox="0 0 75 67" fill="none" xmlns="http://www.w3.org/2000/svg">
<g clip-path="url(#clip0_4007_555)">
<path d="M74.1515 28.4701L40.1169 1.03528C39.3404 0.388229 38.3051 0 37.2698 0C36.1052 0 35.0699 0.388229 34.2934 1.03528L0.258697 28.4701C-0.00012207 28.729 -0.00012207 28.9877 -0.00012207 29.2465C-0.00012207 29.376 -0.00012207 29.6348 0.129287 29.7642L1.94103 31.9642C2.07043 32.2229 2.32925 32.3523 2.71747 32.3523C2.84689 32.3523 3.10571 32.2229 3.23511 32.0936L8.28209 28.0818V64.1871C8.28209 65.3518 9.18796 66.2577 10.3526 66.2577H64.187C65.2223 66.2577 66.2575 65.3518 66.2575 64.1871V28.0818L71.1752 32.2229C71.3045 32.3523 71.5633 32.3523 71.8222 32.3523C72.0809 32.3523 72.3398 32.2229 72.4692 32.0936L74.281 29.7642C74.4104 29.6348 74.4104 29.376 74.4104 29.2465C74.4104 28.9877 74.4104 28.729 74.1515 28.4701ZM62.1164 62.1166H12.4232V24.7172L36.6228 5.17638C36.7522 5.04698 37.011 5.04698 37.1404 5.04698C37.3992 5.04698 37.5286 5.04698 37.7875 5.17638L62.1164 24.7172V62.1166ZM33.1287 27.9525V35.1994H25.8818C25.2348 35.1994 24.8465 35.717 24.8465 36.2347V42.4463C24.8465 43.0933 25.2348 43.4816 25.8818 43.4816H33.1287V50.7285C33.1287 51.3756 33.517 51.7638 34.164 51.7638H40.3756C40.8933 51.7638 41.4109 51.3756 41.4109 50.7285V43.4816H48.6579C49.1755 43.4816 49.6931 43.0933 49.6931 42.4463V36.2347C49.6931 35.717 49.1755 35.1994 48.6579 35.1994H41.4109V27.9525C41.4109 27.4348 40.8933 26.9172 40.3756 26.9172H34.164C33.517 26.9172 33.1287 27.4348 33.1287 27.9525Z" fill="#1C1C1A"/>
<path d="M74.1515 28.4701L40.1169 1.03528C39.3404 0.388229 38.3051 0 37.2698 0C36.1052 0 35.0699 0.388229 34.2934 1.03528L0.258697 28.4701C-0.00012207 28.729 -0.00012207 28.9877 -0.00012207 29.2465C-0.00012207 29.376 -0.00012207 29.6348 0.129287 29.7642L1.94103 31.9642C2.07043 32.2229 2.32925 32.3523 2.71747 32.3523C2.84689 32.3523 3.10571 32.2229 3.23511 32.0936L8.28209 28.0818V64.1871C8.28209 65.3518 9.18796 66.2577 10.3526 66.2577H64.187C65.2223 66.2577 66.2575 65.3518 66.2575 64.1871V28.0818L71.1752 32.2229C71.3045 32.3523 71.5633 32.3523 71.8222 32.3523C72.0809 32.3523 72.3398 32.2229 72.4692 32.0936L74.281 29.7642C74.4104 29.6348 74.4104 29.376 74.4104 29.2465C74.4104 28.9877 74.4104 28.729 74.1515 28.4701ZM62.1164 62.1166H12.4232V24.7172L36.6228 5.17638C36.7522 5.04698 37.011 5.04698 37.1404 5.04698C37.3992 5.04698 37.5286 5.04698 37.7875 5.17638L62.1164 24.7172V62.1166ZM33.1287 27.9525V35.1994H25.8818C25.2348 35.1994 24.8465 35.717 24.8465 36.2347V42.4463C24.8465 43.0933 25.2348 43.4816 25.8818 43.4816H33.1287V50.7285C33.1287 51.3756 33.517 51.7638 34.164 51.7638H40.3756C40.8933 51.7638 41.4109 51.3756 41.4109 50.7285V43.4816H48.6579C49.1755 43.4816 49.6931 43.0933 49.6931 42.4463V36.2347C49.6931 35.717 49.1755 35.1994 48.6579 35.1994H41.4109V27.9525C41.4109 27.4348 40.8933 26.9172 40.3756 26.9172H34.164C33.517 26.9172 33.1287 27.4348 33.1287 27.9525Z" fill="white"/>
</g>
<defs>
<clipPath id="clip0_4007_555">
<rect width="74.5399" height="66.2577" fill="white"/>
</clipPath>
</defs>
</svg>
