<svg width="90" height="86" viewBox="0 0 90 86" fill="none" xmlns="http://www.w3.org/2000/svg">
<path fill-rule="evenodd" clip-rule="evenodd" d="M3.70973 3.53167V81.817H85.9422V3.53167H3.70973ZM3.09145 0C1.38409 0 0 1.31765 0 2.94306V82.4056C0 84.031 1.38409 85.3486 3.09145 85.3486H86.5605C88.2678 85.3486 89.6519 84.031 89.6519 82.4056V2.94306C89.6519 1.31765 88.2678 0 86.5605 0H3.09145Z" fill="white"/>
<path fill-rule="evenodd" clip-rule="evenodd" d="M75.3742 10C77.4231 10 79.084 11.5812 79.084 13.5317L79.084 22.9494C79.084 23.9247 78.2535 24.7153 77.2291 24.7153C76.2047 24.7153 75.3742 23.9247 75.3742 22.9494L75.3742 13.5317L65.4816 13.5317C64.4572 13.5317 63.6268 12.7411 63.6268 11.7658C63.6268 10.7906 64.4572 10 65.4816 10L75.3742 10Z" fill="white"/>
<path fill-rule="evenodd" clip-rule="evenodd" d="M12 13.5317C12 11.5812 13.6609 10 15.7097 10H25.6024C26.6268 10 27.4572 10.7906 27.4572 11.7658C27.4572 12.7411 26.6268 13.5317 25.6024 13.5317H15.7097V22.9494C15.7097 23.9247 14.8793 24.7153 13.8549 24.7153C12.8305 24.7153 12 23.9247 12 22.9494V13.5317Z" fill="white"/>
<path fill-rule="evenodd" clip-rule="evenodd" d="M15.4573 75.3418C13.4085 75.3418 11.7476 73.7606 11.7476 71.8101L11.7476 62.3923C11.7476 61.4171 12.578 60.6265 13.6024 60.6265C14.6268 60.6265 15.4573 61.4171 15.4573 62.3923L15.4573 71.8101L25.3499 71.8101C26.3743 71.8101 27.2048 72.6007 27.2048 73.576C27.2048 74.5512 26.3743 75.3418 25.3499 75.3418L15.4573 75.3418Z" fill="white"/>
<path fill-rule="evenodd" clip-rule="evenodd" d="M79.084 71.5103C79.084 73.4608 77.4231 75.042 75.3742 75.042L65.4816 75.042C64.4572 75.042 63.6268 74.2514 63.6268 73.2762C63.6268 72.3009 64.4572 71.5103 65.4816 71.5103L75.3742 71.5103L75.3743 62.0925C75.3743 61.1173 76.2047 60.3267 77.2291 60.3267C78.2535 60.3267 79.084 61.1173 79.084 62.0925L79.084 71.5103Z" fill="white"/>
<path d="M45.3421 54.1331C36.2702 54.1331 27.1983 50.4352 18.1905 43.0421L17 42.0659L18.1905 41.0896C36.206 26.3035 54.4782 26.3035 72.4937 41.0896L73.6842 42.0659L72.4937 43.0421C63.4859 50.4352 54.414 54.1331 45.3421 54.1331ZM21.6274 42.0659C37.5698 54.5339 53.1144 54.5339 69.0568 42.0659C53.1144 29.5978 37.5698 29.5978 21.6274 42.0659Z" fill="white"/>
<path d="M45.3416 49.804C50.3714 49.804 54.4488 46.3389 54.4488 42.0646C54.4488 37.7902 50.3714 34.3252 45.3416 34.3252C40.3118 34.3252 36.2344 37.7902 36.2344 42.0646C36.2344 46.3389 40.3118 49.804 45.3416 49.804Z" fill="white"/>
<path d="M52.7864 41.5445C54.1014 41.5445 55.1675 40.6386 55.1675 39.521C55.1675 38.4035 54.1014 37.4976 52.7864 37.4976C51.4713 37.4976 50.4053 38.4035 50.4053 39.521C50.4053 40.6386 51.4713 41.5445 52.7864 41.5445Z" fill="#A29D9D"/>
</svg>
