<svg width="77" height="79" viewBox="0 0 77 79" fill="none" xmlns="http://www.w3.org/2000/svg">
<g clip-path="url(#clip0_4007_519)">
<path d="M75.1558 51.3983H70.9611L70.4368 50.4806C70.1746 49.8253 69.3226 49.301 68.6016 49.301H64.0137L62.2441 47.5313C62.0474 47.3347 61.7852 47.2036 61.5231 47.2036C61.5231 47.2036 61.5231 47.2036 61.4576 47.2036C60.9332 47.2036 60.4744 47.7279 60.4744 48.2523V59.7877H53.1337H53.0682C51.8229 59.7877 50.6431 60.1809 49.66 60.8364H47.8903C46.1207 60.8364 44.7443 59.4599 44.7443 57.6903C44.7443 57.166 44.22 56.6417 43.6956 56.6417C43.1058 56.6417 42.647 57.166 42.647 57.6903C42.647 60.5742 44.8754 62.8681 47.6937 62.9337C47.1693 63.8513 46.8417 64.9655 46.8417 66.0797V76.5664C46.8417 77.7459 47.7593 78.6638 48.939 78.6638H53.1337C54.2479 78.6638 55.231 77.7459 55.231 76.5664V70.2744H61.5231V76.5664C61.5231 77.7459 62.4407 78.6638 63.6204 78.6638H67.8151C68.9293 78.6638 69.9125 77.7459 69.9125 76.5664V60.8364H72.0098C74.3036 60.8364 76.2045 59.0012 76.2045 56.6417V52.447C76.2045 51.9226 75.6802 51.3983 75.1558 51.3983ZM67.8151 76.5664H63.6204V68.1771H53.1337V76.5664H48.939V66.0797C48.939 63.7857 50.7742 61.9505 53.1337 61.885H60.8677L67.8151 63.6547V76.5664ZM74.1071 56.6417C74.1071 57.8214 73.1242 58.739 72.0098 58.739H67.8151V61.4917L62.5718 60.1809V50.8084L63.1616 51.3983H68.6016L69.6503 53.4956H74.1071V56.6417ZM67.8151 53.4956C67.8151 52.9713 67.2908 52.447 66.7664 52.447C66.1766 52.447 65.7178 52.9713 65.7178 53.4956C65.7178 54.0855 66.1766 54.5443 66.7664 54.5443C67.2908 54.5443 67.8151 54.0855 67.8151 53.4956Z" fill="white"/>
<path d="M75.1558 51.3983H70.9611L70.4368 50.4806C70.1746 49.8253 69.3226 49.301 68.6016 49.301H64.0137L62.2441 47.5313C62.0474 47.3347 61.7852 47.2036 61.5231 47.2036C61.5231 47.2036 61.5231 47.2036 61.4576 47.2036C60.9332 47.2036 60.4744 47.7279 60.4744 48.2523V59.7877H53.1337H53.0682C51.8229 59.7877 50.6431 60.1809 49.66 60.8364H47.8903C46.1207 60.8364 44.7443 59.4599 44.7443 57.6903C44.7443 57.166 44.22 56.6417 43.6956 56.6417C43.1058 56.6417 42.647 57.166 42.647 57.6903C42.647 60.5742 44.8754 62.8681 47.6937 62.9337C47.1693 63.8513 46.8417 64.9655 46.8417 66.0797V76.5664C46.8417 77.7459 47.7593 78.6638 48.939 78.6638H53.1337C54.2479 78.6638 55.231 77.7459 55.231 76.5664V70.2744H61.5231V76.5664C61.5231 77.7459 62.4407 78.6638 63.6204 78.6638H67.8151C68.9293 78.6638 69.9125 77.7459 69.9125 76.5664V60.8364H72.0098C74.3036 60.8364 76.2045 59.0012 76.2045 56.6417V52.447C76.2045 51.9226 75.6802 51.3983 75.1558 51.3983ZM67.8151 76.5664H63.6204V68.1771H53.1337V76.5664H48.939V66.0797C48.939 63.7857 50.7742 61.9505 53.1337 61.885H60.8677L67.8151 63.6547V76.5664ZM74.1071 56.6417C74.1071 57.8214 73.1242 58.739 72.0098 58.739H67.8151V61.4917L62.5718 60.1809V50.8084L63.1616 51.3983H68.6016L69.6503 53.4956H74.1071V56.6417ZM67.8151 53.4956C67.8151 52.9713 67.2908 52.447 66.7664 52.447C66.1766 52.447 65.7178 52.9713 65.7178 53.4956C65.7178 54.0855 66.1766 54.5443 66.7664 54.5443C67.2908 54.5443 67.8151 54.0855 67.8151 53.4956Z" fill="white"/>
<path d="M38.648 11.3001C35.2199 24.0001 27.5792 18.7709 26.2727 18.4326L23.5195 19.9973L23.7061 19.306L26.1047 17.945C26.2729 16.8778 26.0802 14.3894 28.6275 12.5094C31.1762 10.6241 33.4165 11.3715 38.648 11.3001ZM36.8527 13.0892C37.8343 11.9363 36.6454 12.8849 36.6454 12.8849C35.4913 13.8629 34.2119 14.111 32.8097 14.4229C30.9828 14.8284 28.5279 15.5208 27.3153 17.0536C26.1042 18.5811 26.7374 17.8733 27.4983 17.2741C28.2644 16.6765 30.3012 16.0851 31.6136 15.7889C33.4366 15.3766 35.2052 15.0181 36.8527 13.0892Z" fill="white"/>
<path d="M21.3449 8.06179C21.3449 11.9334 18.2035 15.0748 14.332 15.0748C10.4604 15.0748 7.31899 11.9334 7.31899 8.06179C7.31899 4.19028 10.4604 1.04883 14.332 1.04883C18.2035 1.04883 21.3449 4.19028 21.3449 8.06179ZM14.332 19.8594C15.8615 19.8594 17.318 19.5356 18.6365 18.9637H21.4979C24.8768 18.9637 27.6151 21.702 27.6151 25.0809V25.9766C27.6151 26.8811 26.881 27.6152 25.9766 27.6152H2.68732C1.78291 27.6152 1.04877 26.8811 1.04877 25.9766V25.0809C1.04877 21.702 3.78713 18.9637 7.16602 18.9637H10.0281C11.3497 19.535 12.801 19.8594 14.332 19.8594Z" stroke="white" stroke-width="2.76074"/>
<path d="M21.3449 8.06179C21.3449 11.9334 18.2035 15.0748 14.332 15.0748C10.4604 15.0748 7.31899 11.9334 7.31899 8.06179C7.31899 4.19028 10.4604 1.04883 14.332 1.04883C18.2035 1.04883 21.3449 4.19028 21.3449 8.06179ZM14.332 19.8594C15.8615 19.8594 17.318 19.5356 18.6365 18.9637H21.4979C24.8768 18.9637 27.6151 21.702 27.6151 25.0809V25.9766C27.6151 26.8811 26.881 27.6152 25.9766 27.6152H2.68732C1.78291 27.6152 1.04877 26.8811 1.04877 25.9766V25.0809C1.04877 21.702 3.78713 18.9637 7.16602 18.9637H10.0281C11.3497 19.535 12.801 19.8594 14.332 19.8594Z" stroke="white" stroke-width="2.76074"/>
<path d="M21.3449 8.06179C21.3449 11.9334 18.2035 15.0748 14.332 15.0748C10.4604 15.0748 7.31899 11.9334 7.31899 8.06179C7.31899 4.19028 10.4604 1.04883 14.332 1.04883C18.2035 1.04883 21.3449 4.19028 21.3449 8.06179ZM14.332 19.8594C15.8615 19.8594 17.318 19.5356 18.6365 18.9637H21.4979C24.8768 18.9637 27.6151 21.702 27.6151 25.0809V25.9766C27.6151 26.8811 26.881 27.6152 25.9766 27.6152H2.68732C1.78291 27.6152 1.04877 26.8811 1.04877 25.9766V25.0809C1.04877 21.702 3.78713 18.9637 7.16602 18.9637H10.0281C11.3497 19.535 12.801 19.8594 14.332 19.8594Z" stroke="white" stroke-width="2.76074"/>
<path d="M38.648 11.3002C35.2199 24.0001 27.5792 18.771 26.2727 18.4325L23.5195 19.9974L23.7061 19.306L26.1047 17.945C26.2729 16.8778 26.0802 14.3895 28.6275 12.5094C31.1762 10.6241 33.4165 11.3715 38.648 11.3002ZM36.8527 13.0893C37.8343 11.9363 36.6454 12.885 36.6454 12.885C35.4913 13.863 34.2119 14.111 32.8097 14.4229C30.9828 14.8284 28.5279 15.5209 27.3153 17.0537C26.1042 18.5811 26.7374 17.8733 27.4983 17.2742C28.2644 16.6765 30.3012 16.0851 31.6136 15.789C33.4366 15.3766 35.2052 15.0181 36.8527 13.0893Z" fill="white"/>
<path d="M9.34389 46.9691L15.7873 48.2302C16.2326 48.3173 16.5222 48.7479 16.4331 49.1903L16.2236 50.2611C16.1364 50.7064 15.7058 50.996 15.2634 50.9069L10.6953 50.0178L9.80139 54.585C9.71421 55.0304 9.28369 55.32 8.84115 55.2309L7.76759 55.0233C7.32225 54.9361 7.03268 54.5056 7.12175 54.063L8.38274 47.6197C8.46803 47.1715 8.89855 46.8819 9.34389 46.9691Z" fill="white"/>
<path d="M10.4871 48.938C12.1183 54.8805 17.8977 66.346 27.9649 64.6681" stroke="white" stroke-width="3.68098" stroke-linecap="round"/>
<path d="M66.3848 34.8715L60.1674 32.7618C59.7377 32.616 59.5081 32.1507 59.6554 31.724L60.006 30.6908C60.1519 30.2611 60.6172 30.0315 61.0439 30.1789L65.4524 31.6697L66.9478 27.2626C67.0937 26.8329 67.559 26.6033 67.9857 26.7507L69.0219 27.0998C69.4516 27.2456 69.6812 27.7109 69.5339 28.1376L67.4242 34.355C67.2799 34.7878 66.8145 35.0173 66.3848 34.8715Z" fill="white"/>
<path d="M65.5148 32.7675C64.6912 26.6604 60.4937 14.5262 50.2925 14.8455" stroke="white" stroke-width="3.68098" stroke-linecap="round"/>
</g>
<defs>
<clipPath id="clip0_4007_519">
<rect width="76.2036" height="79" fill="white"/>
</clipPath>
</defs>
</svg>
