<svg width="82" height="72" viewBox="0 0 82 72" fill="none" xmlns="http://www.w3.org/2000/svg">
<path d="M81.1644 64.2656L56.3976 1.26562C56.1161 0.562505 55.4126 0 54.7089 0C54.2868 0 54.0053 0.281252 53.1609 0.562505C52.1759 0.843748 51.7538 1.6875 52.1759 3.09375C49.9244 4.5 43.8735 6.46875 41.6219 6.89062C41.4811 6.32813 41.3405 5.90625 40.6369 5.48438V4.5C40.6369 2.10938 38.6667 0 36.1338 0H22.6246C21.921 0 21.0767 0.421874 20.3731 0.703126C19.8102 0.421874 18.9658 0 18.2622 0H4.75306C2.22009 0 0.25 2.10938 0.25 4.5V67.5C0.25 70.0313 2.22009 72 4.75306 72H18.2622C18.9658 72 19.8102 71.7187 20.5138 71.4375C21.0767 71.7187 21.921 72 22.7653 72H36.2745C38.6667 72 40.7776 70.0313 40.7776 67.5V16.7344L62.0264 70.875C62.3078 71.5781 62.8707 72 63.5743 72C63.9965 72 64.2779 71.8594 65.2629 71.5782C66.1073 71.2969 66.6701 70.4531 66.1073 69.0469C68.4995 67.6406 74.4099 65.6718 76.8021 65.25C77.2242 66.7969 78.2092 67.0781 79.0536 66.7969L80.0386 66.375C81.0237 66.0938 81.4458 65.1094 81.1644 64.2656ZM18.2622 67.5H4.75306V58.5H18.2622V67.5ZM18.2622 54H4.75306V18H18.2622V54ZM18.2622 13.5H4.75306V4.5H18.2622V13.5ZM36.2745 67.5H22.7653V58.5H36.2745V67.5ZM36.2745 54H22.7653V18H36.2745V54ZM36.2745 13.5H22.7653V4.5H36.2745V13.5ZM64.8408 65.25L42.8884 10.5469C46.5471 9.98437 51.8945 7.73438 53.5832 6.89062L75.3949 61.5938C71.8769 62.1562 66.3888 64.4062 64.8408 65.25Z" fill="white"/>
</svg>
