<svg width="279" height="59" viewBox="0 0 279 59" fill="none" xmlns="http://www.w3.org/2000/svg">
<path d="M217.288 55.4456C217.551 54.5598 217.912 53.6412 218.305 52.7553C218.962 53.674 219.683 54.5598 220.438 55.4456C219.683 56.3314 218.962 57.2172 218.305 58.1359C217.912 57.25 217.584 56.3642 217.288 55.4456ZM220.438 15.8791C219.683 14.9933 218.962 14.1075 218.305 13.1888C217.912 14.0747 217.584 14.9933 217.288 15.8791C217.551 16.7649 217.912 17.6835 218.305 18.5694C218.962 17.6507 219.683 16.7649 220.438 15.8791ZM220.438 2.69026C219.683 1.80444 218.962 0.918625 218.305 0C217.912 0.885817 217.584 1.80444 217.288 2.69026C217.551 3.57608 217.912 4.4947 218.305 5.38052C218.962 4.46189 219.683 3.57608 220.438 2.69026M223.161 12.992C224.44 11.7453 225.884 10.4986 227.393 9.28468C225.851 8.07078 224.44 6.85688 223.161 5.57737C222.144 6.79127 221.225 8.03797 220.405 9.28468C221.225 10.5314 222.144 11.7781 223.161 12.992ZM220.438 29.0679C219.683 28.1821 218.962 27.2963 218.305 26.3777C217.912 27.2635 217.584 28.1493 217.288 29.0679C217.551 29.9537 217.912 30.8724 218.305 31.7582C218.962 30.8396 219.683 29.9537 220.438 29.0679ZM220.438 42.2568C219.683 41.3709 218.962 40.4851 218.305 39.5665C217.912 40.4523 217.584 41.3381 217.288 42.2568C217.551 43.1426 217.912 44.0612 218.305 44.947C218.962 44.0284 219.683 43.1426 220.438 42.2568ZM223.161 39.3697C224.44 38.123 225.884 36.8762 227.393 35.6623C225.851 34.4485 224.44 33.2346 223.161 31.955C222.144 33.1689 221.225 34.4156 220.405 35.6623C221.225 36.9419 222.144 38.1558 223.161 39.3697M223.161 52.5585C224.44 51.3118 225.884 50.0651 227.393 48.8512C225.851 47.6373 224.44 46.3906 223.161 45.1439C222.144 46.3578 221.225 47.6045 220.405 48.8512C221.225 50.0979 222.144 51.3446 223.161 52.5585ZM230.707 46.3906C232.807 44.947 235.037 43.5691 237.432 42.2568C235.037 40.9444 232.774 39.5665 230.707 38.123C228.935 39.4681 227.295 40.8788 225.851 42.2568C227.295 43.6675 228.935 45.0455 230.707 46.3906ZM223.161 18.7662C222.144 19.9801 221.225 21.2268 220.405 22.4735C221.225 23.7202 222.144 24.9669 223.161 26.1808C224.44 24.9341 225.884 23.6874 227.393 22.4735C225.851 21.2596 224.44 20.0129 223.161 18.7662ZM230.707 33.2017C232.807 31.7582 235.037 30.3803 237.432 29.0351C235.037 27.7228 232.774 26.3449 230.707 24.9013C228.935 26.2464 227.295 27.6244 225.851 29.0351C227.295 30.4459 228.935 31.8238 230.707 33.2017ZM241.73 40.0258C245.044 38.4182 248.554 36.9747 252.262 35.6295C248.554 34.3172 245.044 32.8409 241.73 31.2333C239.04 32.6112 236.481 34.0876 234.152 35.6295C236.481 37.1715 239.007 38.6151 241.73 39.993M230.707 19.9801C232.807 18.5365 235.037 17.1586 237.432 15.8463C235.037 14.534 232.774 13.156 230.707 11.7125C228.935 13.0576 227.295 14.4355 225.851 15.8463C227.295 17.257 228.935 18.635 230.707 19.9801ZM241.73 26.8042C245.044 25.1966 248.554 23.753 252.262 22.4079C248.554 21.0956 245.044 19.6192 241.73 18.0444C239.04 19.4224 236.481 20.8987 234.152 22.4079C236.481 23.9499 239.007 25.4262 241.73 26.8042ZM258.594 33.5298C265.024 31.5942 271.881 30.085 279 29.0023C271.881 27.9196 265.024 26.4105 258.594 24.4748C254.296 25.7871 250.228 27.3291 246.422 29.0023C250.228 30.6755 254.296 32.1847 258.594 33.5298Z" fill="#425462"/>
<path d="M24.9013 38.6468C23.4578 38.2531 22.9656 37.4986 22.4079 36.0878L14.8949 16.3374C14.5668 15.4844 14.0747 13.4831 14.0418 13.4503V13.319H11.614V13.4503C11.614 13.4503 10.9907 15.4516 10.6626 16.3374L2.52622 36.1206C1.96848 37.4658 1.54198 38.1875 0.131232 38.6797H0V39.5655H0.196848C0.557737 39.5655 1.24671 39.5655 1.93567 39.5327C2.55903 39.5327 3.14957 39.4999 3.37923 39.4999C3.64169 39.4999 4.23224 39.4999 4.78998 39.5327C5.3149 39.5327 5.87264 39.5327 6.1023 39.5327H6.29915V38.6797H6.16791C5.15086 38.3188 4.72436 37.7938 4.85559 37.0721C4.8884 36.8752 5.2821 35.4973 5.44614 35.1692L6.79127 31.9868H16.8305L18.3069 35.7269C18.4381 35.9894 18.7334 36.908 18.7662 37.2033C18.8646 37.6954 18.8318 38.286 17.6835 38.6468H17.5523V39.5327H17.7492C18.0444 39.5327 18.799 39.5327 19.5208 39.4999C20.2426 39.4999 20.9643 39.467 21.2596 39.467C21.5549 39.467 22.3095 39.467 23.0641 39.4999C23.8186 39.4999 24.5404 39.5327 24.8685 39.5327H25.0653V38.6797H24.9341L24.9013 38.6468ZM7.51304 29.8543L11.8765 19.2573L15.9447 29.8543H7.54585H7.51304Z" fill="#425462"/>
<path d="M70.7326 20.3068H70.9295V21.1598H70.7982C69.4203 21.5535 69.2563 22.1441 69.2563 22.6034V32.4786C69.2563 37.1702 66.1395 39.6636 60.2012 39.6636C55.0176 39.6636 52.1961 37.1045 52.1961 32.4786V22.6034C52.1961 22.0457 51.6711 21.3895 50.7197 21.1598H50.5557V20.274H50.7525C51.0806 20.274 51.7368 20.274 52.3929 20.274C53.0491 20.274 53.6724 20.3068 53.9349 20.3068C54.1646 20.3068 54.7223 20.3068 55.3128 20.274C55.969 20.274 56.658 20.274 56.986 20.274H57.1829V21.127H57.0188C56.0674 21.3239 55.6409 22.1113 55.6409 22.6034V33.1676C55.6409 36.3828 58.2984 37.8591 60.7918 37.8591C63.9085 37.8591 67.0581 36.4156 67.0581 33.1676V22.5706C67.0581 21.8488 66.5332 21.3567 65.5161 21.1598H65.3521V20.274H65.5489C65.7786 20.274 66.2379 20.274 66.73 20.274C67.2878 20.274 67.8455 20.3068 68.1408 20.3068C68.4032 20.3068 68.961 20.3068 69.4859 20.274C70.0108 20.274 70.503 20.274 70.7326 20.274" fill="#425462"/>
<path d="M118.761 34.0531H119.614L119.352 38.5478H119.089C119.089 38.5478 118.4 38.6462 117.383 38.8758C117.252 38.8758 117.088 38.9415 116.891 39.0071C115.579 39.3351 113.085 39.9257 110.658 39.9257C102.324 39.9257 96.9111 34.6764 96.9111 26.54C96.9111 18.4036 102.587 13.1543 110.658 13.1543C112.79 13.1543 115.12 13.7121 116.366 14.0401C116.596 14.1058 116.793 14.1386 116.957 14.1714C118.04 14.401 118.597 14.4338 118.728 14.4338H118.925L119.188 18.9614H118.302V18.8629C117.744 17.8459 116.924 16.9929 115.874 16.3695C114.529 15.5821 112.626 15.1228 110.658 15.1228C104.883 15.1228 101.012 19.7159 101.012 26.5072C101.012 31.9861 104.687 37.9244 110.658 37.9244C113.02 37.9244 114.89 37.4979 116.301 36.6777C117.351 36.0543 118.171 35.2013 118.696 34.1515L118.761 34.0531V34.0531Z" fill="#425462"/>
<path d="M144.293 20.4724H144.49V21.3254H144.326C143.539 21.5222 143.079 22.244 143.079 22.7689V37.2701C143.079 37.795 143.539 38.4512 144.359 38.6808H144.49V39.5666H144.293C144.064 39.5666 143.506 39.5666 142.882 39.5666C142.292 39.5666 141.669 39.5338 141.406 39.5338C141.111 39.5338 140.422 39.5338 139.766 39.5666C139.175 39.5666 138.617 39.5666 138.421 39.5666H138.224V38.7136H138.355C139.11 38.484 139.602 37.8278 139.602 37.2701V30.4788H128.316V37.2701C128.316 37.795 128.775 38.4512 129.595 38.6808H129.726V39.5666H129.53C129.333 39.5666 128.775 39.5666 128.152 39.5666C127.496 39.5666 126.807 39.5338 126.511 39.5338C126.249 39.5338 125.625 39.5338 125.035 39.5666C124.444 39.5666 123.887 39.5666 123.69 39.5666H123.493V38.7136H123.657C124.412 38.484 124.871 37.8278 124.871 37.2701V22.7689C124.871 22.244 124.444 21.555 123.657 21.3582H123.493V20.4724H123.69C123.887 20.4724 124.477 20.4724 125.035 20.4724C125.625 20.4724 126.249 20.5052 126.511 20.5052C126.807 20.5052 127.496 20.5052 128.152 20.4724C128.742 20.4724 129.3 20.4724 129.53 20.4724H129.726V21.3254H129.562C128.775 21.5222 128.316 22.244 128.316 22.7689V28.4775H139.602V22.7689C139.602 22.2112 139.175 21.5222 138.388 21.3582H138.257V20.4724H138.453C138.65 20.4724 139.208 20.4724 139.799 20.4724C140.455 20.4724 141.144 20.5052 141.439 20.5052C141.669 20.5052 142.292 20.5052 142.915 20.4724C143.506 20.4724 144.096 20.4724 144.326 20.4724" fill="#425462"/>
<path d="M157.544 20.4724H157.741V21.3254H157.61C156.495 21.6206 156.002 22.0799 156.002 22.7689V37.2701C156.002 37.959 156.527 38.4184 157.577 38.6808H157.741V39.5666H157.544C157.315 39.5666 156.659 39.5666 156.002 39.5666C155.313 39.5666 154.592 39.5338 154.362 39.5338C154.067 39.5338 153.279 39.5338 152.525 39.5666C151.869 39.5666 151.245 39.5666 151.048 39.5666H150.852V38.7136H151.016C152.033 38.484 152.558 38.0247 152.558 37.2701V22.7689C152.558 22.0471 152.033 21.555 151.016 21.3582H150.852V20.4724H151.048C151.278 20.4724 151.869 20.4724 152.525 20.4724C153.279 20.4724 154.067 20.5052 154.362 20.5052C154.624 20.5052 155.313 20.5052 156.002 20.4724C156.691 20.4724 157.348 20.4724 157.544 20.4724" fill="#425462"/>
<path d="M178.538 35.1036L179.391 35.3333L178.801 39.5655H178.604C176.799 39.4015 175.684 39.4015 173.65 39.4015H167.482C167.219 39.4015 166.596 39.4015 166.005 39.4343C165.349 39.4343 164.693 39.4671 164.398 39.4671H164.201V38.5813H164.365C165.317 38.3845 165.743 37.6627 165.743 37.0721V22.6694C165.743 21.9148 165.251 21.4555 164.234 21.2587H164.07V20.3728H164.267C164.496 20.3728 165.087 20.3728 165.743 20.3728C166.465 20.3728 167.219 20.4056 167.482 20.4056C167.744 20.4056 168.466 20.4056 169.155 20.3728C169.811 20.3728 170.467 20.3728 170.664 20.3728H170.861V21.2258H170.73C169.352 21.6195 169.188 22.2101 169.188 22.6694V37.4002H174.864C176.668 37.4002 177.62 36.8425 178.44 35.2349L178.505 35.1036H178.538Z" fill="#425462"/>
<path d="M199.113 35.9891L198.555 39.6636H198.359C196.554 39.4995 195.504 39.4995 193.405 39.4995H187.237C186.974 39.4995 186.351 39.4995 185.728 39.4995C185.071 39.4995 184.415 39.5323 184.12 39.5323H183.923V38.6793H184.087C185.039 38.4825 185.465 37.7607 185.465 37.1702V22.7674C185.465 22.3081 185.104 21.5207 184.087 21.3567H183.923V20.4709H196.554C196.981 20.4709 197.538 20.4052 197.867 20.274H198.687L198.588 24.3094H197.702V24.1782C197.243 22.9971 196.128 22.3081 194.684 22.3081H188.943V28.6729H193.995C194.783 28.6729 195.373 28.3776 195.767 27.7543L195.832 27.6558H196.685V27.8527C196.653 28.312 196.653 29.2306 196.653 29.5587C196.653 29.7227 196.653 29.9524 196.653 30.2149C196.653 30.5757 196.653 30.9694 196.653 31.2647V31.4616H195.832L195.767 31.3631C195.373 30.7726 194.783 30.4773 193.995 30.4773H188.943V37.6951H194.586C196.423 37.6951 197.571 37.1374 198.195 35.9235L198.26 35.7922L199.113 35.9891V35.9891Z" fill="#425462"/>
<path d="M93.5666 38.7125C92.3855 38.4173 91.9918 37.7283 91.5653 36.8097L85.5614 22.6694C85.3318 22.0789 84.8724 20.5041 84.8724 20.5041V20.3728H82.5431V20.5041C82.5431 20.5041 82.1166 22.0789 81.8213 22.6694L75.1941 36.7769C74.7348 37.7611 74.3083 38.4829 73.324 38.7453H73.2256V39.5655H76.1127C76.3095 39.5655 76.6704 39.5655 77.0641 39.5655C77.5562 39.5655 78.114 39.5655 78.4421 39.5655H78.6389V38.7453H78.5077C77.6547 38.4501 77.425 37.9579 77.4906 37.6955C77.5234 37.5314 77.7531 36.9081 77.8515 36.7112L78.9998 34.185H86.6769L87.858 36.7112C88.1204 37.4002 88.1861 37.6299 88.2189 37.6955C88.2845 37.9579 88.2189 38.4501 87.3987 38.7125H87.2674V39.5655H87.4643C87.8252 39.5655 88.5469 39.5655 89.1703 39.5655C89.6952 39.5655 90.1873 39.5655 90.417 39.5655C90.6467 39.5655 91.1716 39.5655 91.7293 39.5655C92.4183 39.5655 93.1401 39.5655 93.501 39.5655H93.6978V38.7453H93.5338L93.5666 38.7125ZM79.8856 32.2165L82.9696 25.4581L85.8895 32.2165H79.9184H79.8856Z" fill="#425462"/>
<path d="M43.4359 41.8978L40.7784 38.8467C42.222 38.3546 43.5015 37.5672 44.5513 36.5501C46.3886 34.7457 47.4056 32.2851 47.4056 29.6604C47.4056 27.0358 46.3886 24.608 44.5513 22.8036C42.6157 20.9007 39.9582 19.9164 36.9071 19.9164C33.8559 19.9164 31.1328 20.9335 29.1972 22.8036C27.3271 24.608 26.3101 27.0358 26.3101 29.6604C26.3101 32.2851 27.3271 34.7457 29.1972 36.5501C31.1328 38.4202 33.8231 39.4372 36.8414 39.47L40.1222 43.2102C41.5002 44.7849 42.4844 44.9162 44.5185 44.9162C44.7154 44.9162 44.9122 44.9162 45.1419 44.9162H46.0933V44.1616H45.9949C45.2731 43.7351 44.3873 43.0461 43.403 41.8978M36.8742 37.764C31.7562 37.764 29.9518 33.4006 29.9518 29.6604C29.9518 25.9203 31.7562 21.5897 36.8742 21.5897C41.9923 21.5897 43.7311 25.9203 43.7311 29.6604C43.7311 33.4006 41.9267 37.764 36.8742 37.764Z" fill="#425462"/>
</svg>
