<svg width="114" height="103" viewBox="0 0 114 103" fill="none" xmlns="http://www.w3.org/2000/svg">
<path d="M7.5 48C7.5 42.5312 11.9531 38 17.5 38C22.9688 38 27.5 42.5312 27.5 48C27.5 53.5469 22.9688 58 17.5 58C11.9531 58 7.5 53.5469 7.5 48ZM25 48C25 43.8594 21.6406 40.5 17.5 40.5C13.2812 40.5 10 43.8594 10 48C10 52.1406 13.2812 55.5 17.5 55.5C21.6406 55.5 25 52.1406 25 48ZM20 61.75C20.625 61.75 21.25 62.375 21.25 63C21.25 63.7031 20.625 64.25 20 64.25H19.2188L20.7812 68.9375L23.6719 63.0781C30 63.7812 35 69.0938 35 75.6562C35 76.9844 33.9062 78 32.5781 78H2.34375C1.01562 78 0 76.9844 0 75.6562C0 69.0938 4.92188 63.7812 11.25 63.0781L14.1406 68.9375L15.7031 64.25H14.9219C14.2969 64.25 13.6719 63.7031 13.6719 63C13.6719 62.375 14.2969 61.75 14.9219 61.75H20ZM17.5 75.5L19.1406 72.1406L17.5 66.9844L15.7812 72.1406L17.5 75.5ZM32.4219 75.5C32.4219 70.9688 29.2969 67.0625 25.0781 65.8906L20.2344 75.5H32.4219ZM14.6875 75.5L9.84375 65.8906C5.625 67.0625 2.5 70.9688 2.5 75.5H14.6875Z" fill="#0081A4"/>
<path d="M7.5 48C7.5 42.5312 11.9531 38 17.5 38C22.9688 38 27.5 42.5312 27.5 48C27.5 53.5469 22.9688 58 17.5 58C11.9531 58 7.5 53.5469 7.5 48ZM25 48C25 43.8594 21.6406 40.5 17.5 40.5C13.2812 40.5 10 43.8594 10 48C10 52.1406 13.2812 55.5 17.5 55.5C21.6406 55.5 25 52.1406 25 48ZM20 61.75C20.625 61.75 21.25 62.375 21.25 63C21.25 63.7031 20.625 64.25 20 64.25H19.2188L20.7812 68.9375L23.6719 63.0781C30 63.7812 35 69.0938 35 75.6562C35 76.9844 33.9062 78 32.5781 78H2.34375C1.01562 78 0 76.9844 0 75.6562C0 69.0938 4.92188 63.7812 11.25 63.0781L14.1406 68.9375L15.7031 64.25H14.9219C14.2969 64.25 13.6719 63.7031 13.6719 63C13.6719 62.375 14.2969 61.75 14.9219 61.75H20ZM17.5 75.5L19.1406 72.1406L17.5 66.9844L15.7812 72.1406L17.5 75.5ZM32.4219 75.5C32.4219 70.9688 29.2969 67.0625 25.0781 65.8906L20.2344 75.5H32.4219ZM14.6875 75.5L9.84375 65.8906C5.625 67.0625 2.5 70.9688 2.5 75.5H14.6875Z" fill="url(#paint0_linear_1_2813)"/>
<path d="M86.5 58C91.9688 58 96.5 53.5469 96.5 48C96.5 42.5312 91.9688 38 86.5 38C80.9531 38 76.5 42.5312 76.5 48C76.5 53.5469 80.9531 58 86.5 58ZM86.5 40.5C90.5625 40.5 94 43.9375 94 48C94 52.1406 90.5625 55.5 86.5 55.5C82.3594 55.5 79 52.1406 79 48C79 43.9375 82.3594 40.5 86.5 40.5ZM90.4062 61.75H82.5156C75.0156 61.75 69 67.8438 69 75.3438C69 76.8281 70.1719 78 71.6562 78H101.266C102.75 78 104 76.8281 104 75.3438C104 67.8438 97.9062 61.75 90.4062 61.75ZM101.266 75.5H71.6562C71.5781 75.5 71.5 75.4219 71.5 75.3438C71.5 69.25 76.4219 64.25 82.5156 64.25H90.4062C96.5 64.25 101.5 69.25 101.5 75.3438C101.5 75.4219 101.344 75.5 101.266 75.5Z" fill="#0081A4"/>
<path d="M86.5 58C91.9688 58 96.5 53.5469 96.5 48C96.5 42.5312 91.9688 38 86.5 38C80.9531 38 76.5 42.5312 76.5 48C76.5 53.5469 80.9531 58 86.5 58ZM86.5 40.5C90.5625 40.5 94 43.9375 94 48C94 52.1406 90.5625 55.5 86.5 55.5C82.3594 55.5 79 52.1406 79 48C79 43.9375 82.3594 40.5 86.5 40.5ZM90.4062 61.75H82.5156C75.0156 61.75 69 67.8438 69 75.3438C69 76.8281 70.1719 78 71.6562 78H101.266C102.75 78 104 76.8281 104 75.3438C104 67.8438 97.9062 61.75 90.4062 61.75ZM101.266 75.5H71.6562C71.5781 75.5 71.5 75.4219 71.5 75.3438C71.5 69.25 76.4219 64.25 82.5156 64.25H90.4062C96.5 64.25 101.5 69.25 101.5 75.3438C101.5 75.4219 101.344 75.5 101.266 75.5Z" fill="url(#paint1_linear_1_2813)"/>
<path d="M52.0906 52.4747L61.6442 55.0346L58.2061 56.6368C57.8163 56.8236 57.695 57.2763 57.8365 57.6539C57.9359 57.8262 58.138 57.9774 58.3644 58.038C58.5003 58.0744 58.6935 58.0777 58.8536 58.0235L64.1708 55.566C64.3431 55.4666 64.5396 55.2766 64.6002 55.0502C64.673 54.7785 64.5857 54.561 64.4863 54.3888L61.1102 49.6019C60.8539 49.2906 60.389 49.2145 60.0445 49.4134C59.7332 49.6697 59.6119 50.1224 59.856 50.479L62.0324 53.5857L52.4788 51.0258C48.0416 49.8368 43.5515 52.4675 42.3746 56.8594C42.2655 57.2669 42.4975 57.6688 42.905 57.778C43.2672 57.875 43.7143 57.6551 43.8235 57.2476C44.782 53.6707 48.4683 51.5041 52.0906 52.4747ZM65.0265 62.1525C64.619 62.0433 64.1598 62.3085 64.0627 62.6707C63.0921 66.2929 59.4179 68.4143 55.8409 67.4558L46.2421 64.8838L49.668 63.3268C50.0578 63.1401 50.1791 62.6873 50.0376 62.3097C49.8509 61.92 49.3981 61.7986 49.0205 61.9401L43.7032 64.3976C43.531 64.4971 43.3798 64.6992 43.3313 64.8803C43.2949 65.0162 43.3126 65.3121 43.4121 65.4843L46.7882 70.2712C46.8876 70.4435 47.0566 70.5373 47.1924 70.5737C47.3735 70.6222 47.6121 70.6376 47.7964 70.4929C48.153 70.2487 48.2291 69.7838 47.9849 69.4272L45.8538 66.3327L55.4527 68.9047C59.8447 70.0815 64.3679 67.5083 65.5569 63.0711C65.6539 62.7089 65.3888 62.2496 65.0265 62.1525Z" fill="#0081A4"/>
<path d="M52.0906 52.4747L61.6442 55.0346L58.2061 56.6368C57.8163 56.8236 57.695 57.2763 57.8365 57.6539C57.9359 57.8262 58.138 57.9774 58.3644 58.038C58.5003 58.0744 58.6935 58.0777 58.8536 58.0235L64.1708 55.566C64.3431 55.4666 64.5396 55.2766 64.6002 55.0502C64.673 54.7785 64.5857 54.561 64.4863 54.3888L61.1102 49.6019C60.8539 49.2906 60.389 49.2145 60.0445 49.4134C59.7332 49.6697 59.6119 50.1224 59.856 50.479L62.0324 53.5857L52.4788 51.0258C48.0416 49.8368 43.5515 52.4675 42.3746 56.8594C42.2655 57.2669 42.4975 57.6688 42.905 57.778C43.2672 57.875 43.7143 57.6551 43.8235 57.2476C44.782 53.6707 48.4683 51.5041 52.0906 52.4747ZM65.0265 62.1525C64.619 62.0433 64.1598 62.3085 64.0627 62.6707C63.0921 66.2929 59.4179 68.4143 55.8409 67.4558L46.2421 64.8838L49.668 63.3268C50.0578 63.1401 50.1791 62.6873 50.0376 62.3097C49.8509 61.92 49.3981 61.7986 49.0205 61.9401L43.7032 64.3976C43.531 64.4971 43.3798 64.6992 43.3313 64.8803C43.2949 65.0162 43.3126 65.3121 43.4121 65.4843L46.7882 70.2712C46.8876 70.4435 47.0566 70.5373 47.1924 70.5737C47.3735 70.6222 47.6121 70.6376 47.7964 70.4929C48.153 70.2487 48.2291 69.7838 47.9849 69.4272L45.8538 66.3327L55.4527 68.9047C59.8447 70.0815 64.3679 67.5083 65.5569 63.0711C65.6539 62.7089 65.3888 62.2496 65.0265 62.1525Z" fill="url(#paint2_linear_1_2813)"/>
<path d="M30.75 98.1699H32.502C32.4668 98.7441 32.3086 99.2539 32.0273 99.6992C31.75 100.145 31.3613 100.492 30.8613 100.742C30.3652 100.992 29.7676 101.117 29.0684 101.117C28.5215 101.117 28.0312 101.023 27.5977 100.836C27.1641 100.645 26.793 100.371 26.4844 100.016C26.1797 99.6602 25.9473 99.2305 25.7871 98.7266C25.627 98.2227 25.5469 97.6582 25.5469 97.0332V96.4414C25.5469 95.8164 25.6289 95.252 25.793 94.748C25.9609 94.2402 26.1992 93.8086 26.5078 93.4531C26.8203 93.0977 27.1934 92.8242 27.627 92.6328C28.0605 92.4414 28.5449 92.3457 29.0801 92.3457C29.791 92.3457 30.3906 92.4746 30.8789 92.7324C31.3711 92.9902 31.752 93.3457 32.0215 93.7988C32.2949 94.252 32.459 94.7676 32.5137 95.3457H30.7559C30.7363 95.002 30.668 94.7109 30.5508 94.4727C30.4336 94.2305 30.2559 94.0488 30.0176 93.9277C29.7832 93.8027 29.4707 93.7402 29.0801 93.7402C28.7871 93.7402 28.5312 93.7949 28.3125 93.9043C28.0938 94.0137 27.9102 94.1797 27.7617 94.4023C27.6133 94.625 27.502 94.9062 27.4277 95.2461C27.3574 95.582 27.3223 95.9766 27.3223 96.4297V97.0332C27.3223 97.4746 27.3555 97.8633 27.4219 98.1992C27.4883 98.5312 27.5898 98.8125 27.7266 99.043C27.8672 99.2695 28.0469 99.4414 28.2656 99.5586C28.4883 99.6719 28.7559 99.7285 29.0684 99.7285C29.4355 99.7285 29.7383 99.6699 29.9766 99.5527C30.2148 99.4355 30.3965 99.2617 30.5215 99.0312C30.6504 98.8008 30.7266 98.5137 30.75 98.1699Z" fill="#0081A4"/>
<path d="M40.6641 96.5352V96.9395C40.6641 97.5879 40.5762 98.1699 40.4004 98.6855C40.2246 99.2012 39.9766 99.6406 39.6562 100.004C39.3359 100.363 38.9531 100.639 38.5078 100.83C38.0664 101.021 37.5762 101.117 37.0371 101.117C36.502 101.117 36.0117 101.021 35.5664 100.83C35.125 100.639 34.7422 100.363 34.418 100.004C34.0938 99.6406 33.8418 99.2012 33.6621 98.6855C33.4863 98.1699 33.3984 97.5879 33.3984 96.9395V96.5352C33.3984 95.8828 33.4863 95.3008 33.6621 94.7891C33.8379 94.2734 34.0859 93.834 34.4062 93.4707C34.7305 93.1074 35.1133 92.8301 35.5547 92.6387C36 92.4473 36.4902 92.3516 37.0254 92.3516C37.5645 92.3516 38.0547 92.4473 38.4961 92.6387C38.9414 92.8301 39.3242 93.1074 39.6445 93.4707C39.9688 93.834 40.2188 94.2734 40.3945 94.7891C40.5742 95.3008 40.6641 95.8828 40.6641 96.5352ZM38.8887 96.9395V96.5234C38.8887 96.0703 38.8477 95.6719 38.7656 95.3281C38.6836 94.9844 38.5625 94.6953 38.4023 94.4609C38.2422 94.2266 38.0469 94.0508 37.8164 93.9336C37.5859 93.8125 37.3223 93.752 37.0254 93.752C36.7285 93.752 36.4648 93.8125 36.2344 93.9336C36.0078 94.0508 35.8145 94.2266 35.6543 94.4609C35.498 94.6953 35.3789 94.9844 35.2969 95.3281C35.2148 95.6719 35.1738 96.0703 35.1738 96.5234V96.9395C35.1738 97.3887 35.2148 97.7871 35.2969 98.1348C35.3789 98.4785 35.5 98.7695 35.6602 99.0078C35.8203 99.2422 36.0156 99.4199 36.2461 99.541C36.4766 99.6621 36.7402 99.7227 37.0371 99.7227C37.334 99.7227 37.5977 99.6621 37.8281 99.541C38.0586 99.4199 38.252 99.2422 38.4082 99.0078C38.5645 98.7695 38.6836 98.4785 38.7656 98.1348C38.8477 97.7871 38.8887 97.3887 38.8887 96.9395Z" fill="#0081A4"/>
<path d="M45.2695 93.9277L42.9492 101H41.0801L44.25 92.4688H45.4395L45.2695 93.9277ZM47.1973 101L44.8711 93.9277L44.6836 92.4688H45.8848L49.0723 101H47.1973ZM47.0918 97.8242V99.2012H42.5859V97.8242H47.0918Z" fill="#0081A4"/>
<path d="M54.7031 98.1699H56.4551C56.4199 98.7441 56.2617 99.2539 55.9805 99.6992C55.7031 100.145 55.3145 100.492 54.8145 100.742C54.3184 100.992 53.7207 101.117 53.0215 101.117C52.4746 101.117 51.9844 101.023 51.5508 100.836C51.1172 100.645 50.7461 100.371 50.4375 100.016C50.1328 99.6602 49.9004 99.2305 49.7402 98.7266C49.5801 98.2227 49.5 97.6582 49.5 97.0332V96.4414C49.5 95.8164 49.582 95.252 49.7461 94.748C49.9141 94.2402 50.1523 93.8086 50.4609 93.4531C50.7734 93.0977 51.1465 92.8242 51.5801 92.6328C52.0137 92.4414 52.498 92.3457 53.0332 92.3457C53.7441 92.3457 54.3438 92.4746 54.832 92.7324C55.3242 92.9902 55.7051 93.3457 55.9746 93.7988C56.248 94.252 56.4121 94.7676 56.4668 95.3457H54.709C54.6895 95.002 54.6211 94.7109 54.5039 94.4727C54.3867 94.2305 54.209 94.0488 53.9707 93.9277C53.7363 93.8027 53.4238 93.7402 53.0332 93.7402C52.7402 93.7402 52.4844 93.7949 52.2656 93.9043C52.0469 94.0137 51.8633 94.1797 51.7148 94.4023C51.5664 94.625 51.4551 94.9062 51.3809 95.2461C51.3105 95.582 51.2754 95.9766 51.2754 96.4297V97.0332C51.2754 97.4746 51.3086 97.8633 51.375 98.1992C51.4414 98.5312 51.543 98.8125 51.6797 99.043C51.8203 99.2695 52 99.4414 52.2188 99.5586C52.4414 99.6719 52.709 99.7285 53.0215 99.7285C53.3887 99.7285 53.6914 99.6699 53.9297 99.5527C54.168 99.4355 54.3496 99.2617 54.4746 99.0312C54.6035 98.8008 54.6797 98.5137 54.7031 98.1699Z" fill="#0081A4"/>
<path d="M63.2988 95.9434V97.3145H58.8457V95.9434H63.2988ZM59.3672 92.4688V101H57.6094V92.4688H59.3672ZM64.5527 92.4688V101H62.8008V92.4688H64.5527Z" fill="#0081A4"/>
<path d="M69.6562 93.9277L67.3359 101H65.4668L68.6367 92.4688H69.8262L69.6562 93.9277ZM71.584 101L69.2578 93.9277L69.0703 92.4688H70.2715L73.459 101H71.584ZM71.4785 97.8242V99.2012H66.9727V97.8242H71.4785Z" fill="#0081A4"/>
<path d="M77.5723 97.959H75.3984V96.5879H77.5723C77.9082 96.5879 78.1816 96.5332 78.3926 96.4238C78.6035 96.3105 78.7578 96.1543 78.8555 95.9551C78.9531 95.7559 79.002 95.5312 79.002 95.2812C79.002 95.0273 78.9531 94.791 78.8555 94.5723C78.7578 94.3535 78.6035 94.1777 78.3926 94.0449C78.1816 93.9121 77.9082 93.8457 77.5723 93.8457H76.0078V101H74.25V92.4688H77.5723C78.2402 92.4688 78.8125 92.5898 79.2891 92.832C79.7695 93.0703 80.1367 93.4004 80.3906 93.8223C80.6445 94.2441 80.7715 94.7266 80.7715 95.2695C80.7715 95.8203 80.6445 96.2969 80.3906 96.6992C80.1367 97.1016 79.7695 97.4121 79.2891 97.6309C78.8125 97.8496 78.2402 97.959 77.5723 97.959Z" fill="#0081A4"/>
<path d="M85.3066 97.959H83.1328V96.5879H85.3066C85.6426 96.5879 85.916 96.5332 86.127 96.4238C86.3379 96.3105 86.4922 96.1543 86.5898 95.9551C86.6875 95.7559 86.7363 95.5312 86.7363 95.2812C86.7363 95.0273 86.6875 94.791 86.5898 94.5723C86.4922 94.3535 86.3379 94.1777 86.127 94.0449C85.916 93.9121 85.6426 93.8457 85.3066 93.8457H83.7422V101H81.9844V92.4688H85.3066C85.9746 92.4688 86.5469 92.5898 87.0234 92.832C87.5039 93.0703 87.8711 93.4004 88.125 93.8223C88.3789 94.2441 88.5059 94.7266 88.5059 95.2695C88.5059 95.8203 88.3789 96.2969 88.125 96.6992C87.8711 97.1016 87.5039 97.4121 87.0234 97.6309C86.5469 97.8496 85.9746 97.959 85.3066 97.959Z" fill="#0081A4"/>
<defs>
<linearGradient id="paint0_linear_1_2813" x1="17.5" y1="38" x2="17.5" y2="78" gradientUnits="userSpaceOnUse">
<stop stop-color="#3BC1CD"/>
<stop offset="1" stop-color="#0081A4" stop-opacity="0"/>
</linearGradient>
<linearGradient id="paint1_linear_1_2813" x1="86.5" y1="38" x2="86.5" y2="78" gradientUnits="userSpaceOnUse">
<stop stop-color="#3BC1CD"/>
<stop offset="1" stop-color="#0081A4" stop-opacity="0"/>
</linearGradient>
<linearGradient id="paint2_linear_1_2813" x1="57.0716" y1="48.3741" x2="50.8599" y2="71.5564" gradientUnits="userSpaceOnUse">
<stop stop-color="#3BC1CD"/>
<stop offset="1" stop-color="#0081A4" stop-opacity="0"/>
</linearGradient>
</defs>
</svg>
