<svg width="22" height="22" viewBox="0 0 22 22" fill="none" xmlns="http://www.w3.org/2000/svg">
<path d="M9.78955 14.7943C9.5083 15.0756 8.99268 15.0756 8.71143 14.7943L5.71143 11.7943C5.43018 11.5131 5.43018 10.9974 5.71143 10.7162C5.99268 10.4349 6.5083 10.4349 6.78955 10.7162L9.27393 13.2006L14.7114 7.71619C14.9927 7.43494 15.5083 7.43494 15.7896 7.71619C16.0708 7.99744 16.0708 8.51306 15.7896 8.79431L9.78955 14.7943ZM0.273926 3.73181C0.273926 2.09119 1.58643 0.731812 3.27393 0.731812H18.2739C19.9146 0.731812 21.2739 2.09119 21.2739 3.73181V18.7318C21.2739 20.4193 19.9146 21.7318 18.2739 21.7318H3.27393C1.58643 21.7318 0.273926 20.4193 0.273926 18.7318V3.73181ZM1.77393 3.73181V18.7318C1.77393 19.5756 2.43018 20.2318 3.27393 20.2318H18.2739C19.0708 20.2318 19.7739 19.5756 19.7739 18.7318V3.73181C19.7739 2.93494 19.0708 2.23181 18.2739 2.23181H3.27393C2.43018 2.23181 1.77393 2.93494 1.77393 3.73181Z" fill="#47BCCA"/>
</svg>
