<svg width="26" height="27" viewBox="0 0 26 27" fill="none" xmlns="http://www.w3.org/2000/svg">
<path d="M3.70908 24.9604H6.12007V26.5677H3.70908C1.90084 26.5677 0.494428 25.1613 0.494428 23.353V4.06513C0.494428 2.30712 1.90084 0.850478 3.70908 0.850478H11.5448C12.1475 0.850478 12.8005 1.15185 13.2526 1.60391L19.0289 7.38024C19.481 7.8323 19.7823 8.48527 19.7823 9.08802V16.1201H18.175V10.4944H12.5494C11.1932 10.4944 10.1384 9.43962 10.1384 8.08344V2.4578H3.70908C2.80496 2.4578 2.10175 3.21124 2.10175 4.06513V23.353C2.10175 24.2571 2.80496 24.9604 3.70908 24.9604ZM18.1248 8.8871C18.0745 8.78664 18.0243 8.63596 17.9239 8.5355L12.0973 2.70895C11.9968 2.60849 11.8462 2.55826 11.7457 2.50803V8.08344C11.7457 8.5355 12.0973 8.8871 12.5494 8.8871H18.1248ZM9.33471 18.5311H10.942C12.4489 18.5311 13.7549 19.837 13.7549 21.3439C13.7549 22.901 12.4489 24.1567 10.942 24.1567H10.1384V25.764C10.1384 26.2161 9.73655 26.5677 9.33471 26.5677C8.88265 26.5677 8.53105 26.2161 8.53105 25.764V23.353V19.3347C8.53105 18.9329 8.88265 18.5311 9.33471 18.5311ZM10.942 22.5494C11.595 22.5494 12.1475 22.0471 12.1475 21.3439C12.1475 20.6909 11.595 20.1384 10.942 20.1384H10.1384V22.5494H10.942ZM15.764 18.5311H17.3713C18.6773 18.5311 19.7823 19.6361 19.7823 20.942V24.1567C19.7823 25.5129 18.6773 26.5677 17.3713 26.5677H15.764C15.312 26.5677 14.9604 26.2161 14.9604 25.764V19.3347C14.9604 18.9329 15.312 18.5311 15.764 18.5311ZM17.3713 24.9604C17.7732 24.9604 18.175 24.6087 18.175 24.1567V20.942C18.175 20.5402 17.7732 20.1384 17.3713 20.1384H16.5677V24.9604H17.3713ZM21.3897 19.3347C21.3897 18.9329 21.7413 18.5311 22.1933 18.5311H24.6043C25.0061 18.5311 25.408 18.9329 25.408 19.3347C25.408 19.7868 25.0061 20.1384 24.6043 20.1384H22.997V21.7457H24.6043C25.0061 21.7457 25.408 22.1475 25.408 22.5494C25.408 23.0014 25.0061 23.353 24.6043 23.353H22.997V25.764C22.997 26.2161 22.5951 26.5677 22.1933 26.5677C21.7413 26.5677 21.3897 26.2161 21.3897 25.764V22.5494V19.3347Z" fill="white"/>
</svg>
