<svg width="1035" height="36" viewBox="0 0 1035 36" fill="none" xmlns="http://www.w3.org/2000/svg">
<path d="M30.2248 20.0312C30.6722 20.0312 31.0557 19.7618 31.1835 19.2901L34.1237 11.6084L39.4925 34.249C39.6203 34.788 40.0038 35.0576 40.5151 35.125C40.9625 35.0576 41.41 34.7207 41.4739 34.249L46.7149 6.55469L49.7189 19.1552C49.8467 19.6269 50.2941 20.0312 50.6777 20.0312H1033.95C1034.27 20.0312 1034.46 19.7619 1034.46 19.4923V18.4142C1034.46 18.0772 1034.27 17.8751 1033.95 17.8751L51.5086 17.875L47.6097 1.43359C47.4819 0.894531 47.0984 0.625 46.5871 0.625C46.1397 0.625 45.6922 0.961914 45.6283 1.43359L40.3873 29.1279L35.338 7.90235C35.2102 7.43066 34.8267 7.09375 34.4432 7.09375C33.9318 7.02637 33.5484 7.2959 33.4205 7.76758L29.5857 17.875H0.511322C0.255661 17.875 1.17345e-07 18.0771 8.94018e-08 18.4141L0 19.4922C-2.23436e-08 19.7618 0.25566 20.0312 0.511321 20.0312H30.2248Z" fill="#7B53E0"/>
</svg>
