<svg width="63" height="34" viewBox="0 0 63 34" fill="none" xmlns="http://www.w3.org/2000/svg">
<path d="M12.4561 34.0036V23.5145C12.4561 23.0227 12.0163 22.6236 11.4741 22.6236H0.981977C0.43985 22.6236 0 22.2246 0 21.7328V12.6495C0 12.1577 0.43985 11.7587 0.981977 11.7587H11.4741C12.0163 11.7587 12.4561 11.3596 12.4561 10.8678V0.887907C12.4561 0.39611 12.896 -0.00292969 13.4381 -0.00292969H23.1187C23.6608 -0.00292969 24.1007 0.39611 24.1007 0.887907V10.8678C24.1007 11.3596 24.5406 11.7587 25.0827 11.7587H36.691C37.2331 11.7587 37.673 12.1577 37.673 12.6495V21.7328C37.673 22.2246 37.2331 22.6236 36.691 22.6236H25.0827C24.5406 22.6236 24.1007 23.0227 24.1007 23.5145V33.936M55.7134 1.64349C54.6568 0.65989 52.9144 0.639602 51.8195 1.59808C50.7352 2.55655 50.7129 4.13725 51.7694 5.13051C59.0855 11.9384 58.9321 22.8797 51.4275 29.5165C50.8854 29.9958 50.6031 30.6306 50.5946 31.2692C50.5861 31.9069 50.8492 32.5485 51.3785 33.0403C52.4351 34.0239 54.1775 34.0442 55.2725 33.0857C64.9562 24.5309 65.1543 10.4185 55.7134 1.64349ZM48.1875 8.2987C47.131 7.3151 45.3885 7.29481 44.2936 8.25329C43.2094 9.21176 43.187 10.7925 44.2435 11.7857C47.5187 14.8235 47.4494 19.7173 44.0902 22.6787C43.548 23.158 43.2658 23.7927 43.2573 24.4314C43.2488 25.0691 43.5118 25.7107 44.0412 26.2025C45.0977 27.1861 46.8402 27.2063 47.9245 26.2469C53.4629 21.3685 53.5758 13.3123 48.1865 8.29773L48.1875 8.2987Z" fill="url(#paint0_linear_56_2811)"/>
<defs>
<linearGradient id="paint0_linear_56_2811" x1="14.2945" y1="-1.07832" x2="48.6506" y2="38.7915" gradientUnits="userSpaceOnUse">
<stop stop-color="#69BAC8"/>
<stop offset="0.29" stop-color="#0B9DE0"/>
<stop offset="0.62" stop-color="#7B53E0"/>
<stop offset="1" stop-color="#CB3A8D"/>
</linearGradient>
</defs>
</svg>
