<svg width="531" height="318" viewBox="0 0 531 318" fill="none" xmlns="http://www.w3.org/2000/svg">
<path d="M105.545 318V219.915C105.545 215.316 101.818 211.584 97.2239 211.584H8.32085C3.72723 211.584 0 207.853 0 203.254V118.315C0 113.716 3.72723 109.984 8.32085 109.984H97.2239C101.818 109.984 105.545 106.253 105.545 101.654V8.33038C105.545 3.7315 109.272 0 113.866 0H195.892C200.485 0 204.213 3.7315 204.213 8.33038V101.654C204.213 106.253 207.94 109.984 212.534 109.984H310.895C315.488 109.984 319.215 113.716 319.215 118.315V203.254C319.215 207.853 315.488 211.584 310.895 211.584H212.534C207.94 211.584 204.213 215.316 204.213 219.915V317.368" fill="url(#paint0_linear_56_2980)" fill-opacity="0.1"/>
<path d="M472.077 15.3956C463.124 6.19784 448.36 6.0081 439.082 14.9709C429.895 23.9338 429.706 38.7152 438.658 48.0033C500.649 111.665 499.35 213.978 435.761 276.041C431.168 280.522 428.776 286.458 428.704 292.43C428.632 298.394 430.861 304.393 435.346 308.992C444.299 318.189 459.063 318.379 468.341 309.416C550.394 229.419 552.073 97.4616 472.077 15.4046V15.3956Z" fill="url(#paint1_linear_56_2980)" fill-opacity="0.1"/>
<path d="M408.309 77.63C399.356 68.4322 384.592 68.2425 375.314 77.2053C366.127 86.1681 365.937 100.95 374.89 110.238C402.641 138.644 402.054 184.407 373.59 212.1C368.997 216.581 366.605 222.517 366.533 228.489C366.461 234.453 368.69 240.452 373.175 245.051C382.128 254.248 396.892 254.438 406.08 245.466C453.008 199.848 453.965 124.513 408.3 77.6209L408.309 77.63Z" fill="url(#paint2_linear_56_2980)" fill-opacity="0.1"/>
<defs>
<linearGradient id="paint0_linear_56_2980" x1="159.608" y1="0" x2="159.608" y2="318" gradientUnits="userSpaceOnUse">
<stop stop-color="#7B53E0"/>
<stop offset="0.305" stop-color="#5A90EE"/>
<stop offset="0.54" stop-color="#47BCCA"/>
<stop offset="0.995" stop-color="#47BCCA"/>
</linearGradient>
<linearGradient id="paint1_linear_56_2980" x1="479.848" y1="8.37109" x2="479.848" y2="316.016" gradientUnits="userSpaceOnUse">
<stop stop-color="#7B53E0"/>
<stop offset="0.305" stop-color="#5A90EE"/>
<stop offset="0.54" stop-color="#47BCCA"/>
<stop offset="0.995" stop-color="#47BCCA"/>
</linearGradient>
<linearGradient id="paint2_linear_56_2980" x1="404.227" y1="70.6055" x2="404.227" y2="252.074" gradientUnits="userSpaceOnUse">
<stop stop-color="#7B53E0"/>
<stop offset="0.305" stop-color="#5A90EE"/>
<stop offset="0.54" stop-color="#47BCCA"/>
<stop offset="0.995" stop-color="#47BCCA"/>
</linearGradient>
</defs>
</svg>
