<svg width="360" height="76" viewBox="0 0 360 76" fill="none" xmlns="http://www.w3.org/2000/svg">
<g clip-path="url(#clip0_56_3589)">
<mask id="mask0_56_3589" style="mask-type:luminance" maskUnits="userSpaceOnUse" x="0" y="0" width="360" height="76">
<path d="M360 0H0V76H360V0Z" fill="white"/>
</mask>
<g mask="url(#mask0_56_3589)">
<mask id="mask1_56_3589" style="mask-type:luminance" maskUnits="userSpaceOnUse" x="151" y="4" width="209" height="73">
<path d="M348.523 58.4836C347.855 59.1484 347.83 60.2224 348.497 60.9129C350.551 63.0098 350.5 66.3597 348.394 68.3799C348.061 68.7124 347.881 69.1471 347.881 69.5818C347.881 70.0165 348.035 70.4513 348.369 70.8093C349.036 71.4741 350.115 71.4997 350.808 70.8348C354.274 67.4849 354.351 61.9613 350.962 58.5091C350.628 58.1767 350.192 57.9977 349.73 57.9977C349.267 57.9977 348.857 58.1511 348.523 58.4836ZM339.588 67.2803C338.894 67.2803 338.304 67.0246 337.867 66.5132C337.431 66.0017 337.2 65.2601 337.2 64.2628C337.2 63.2655 337.431 62.5495 337.893 62.0381C338.355 61.5266 338.92 61.2709 339.613 61.2709C340.307 61.2709 340.871 61.5266 341.334 62.0381C341.796 62.5495 342.027 63.2911 342.027 64.2628C342.027 65.2346 341.796 65.9762 341.334 66.4876C340.871 66.999 340.307 67.2548 339.613 67.2548C339.613 67.2548 339.613 67.2548 339.588 67.2548M335.762 57.8443C334.632 58.4324 333.734 59.3019 333.066 60.4015C332.398 61.5011 332.09 62.8052 332.09 64.2628C332.09 65.7204 332.424 67.0502 333.066 68.1753C333.708 69.2749 334.607 70.1188 335.736 70.7325C336.866 71.3207 338.15 71.6276 339.588 71.6276C341.026 71.6276 342.309 71.3207 343.439 70.7325C344.594 70.1444 345.493 69.2749 346.135 68.1753C346.803 67.0502 347.111 65.746 347.111 64.2884C347.111 62.8308 346.777 61.5266 346.135 60.427C345.467 59.3274 344.569 58.4836 343.439 57.8698C342.309 57.2817 341.026 56.9748 339.588 56.9748C338.15 56.9748 336.866 57.2817 335.736 57.8698M282.69 68.4311H285.771V56.2844H282.69V68.4311ZM296.966 56.2844L293.885 65.5926L290.804 56.2844H287.492L291.985 68.4311H295.733L300.252 56.2844H296.966ZM305.311 59.3019C305.824 58.8416 306.466 58.6114 307.236 58.6114C308.032 58.6114 308.725 58.8416 309.29 59.3274C309.855 59.8133 310.138 60.427 310.138 61.2198H304.335C304.463 60.4015 304.771 59.7622 305.285 59.3019M304.129 56.8469C303.205 57.3584 302.486 58.1 301.973 59.0461C301.459 59.9923 301.202 61.0919 301.202 62.3449C301.202 63.598 301.459 64.672 301.973 65.6437C302.486 66.5899 303.231 67.3315 304.155 67.8429C305.079 68.3544 306.132 68.6101 307.313 68.6101C308.777 68.6101 309.984 68.2265 310.985 67.4849C311.986 66.7433 312.654 65.7716 313.013 64.5953H309.701C309.213 65.567 308.392 66.0529 307.262 66.0529C306.466 66.0529 305.798 65.7971 305.259 65.3113C304.72 64.8254 304.412 64.135 304.335 63.2399H313.244C313.296 62.8819 313.321 62.4984 313.321 62.0636C313.321 60.8873 313.065 59.8389 312.551 58.9183C312.038 57.9977 311.344 57.3072 310.42 56.7958C309.496 56.3099 308.469 56.0542 307.313 56.0542C306.158 56.0542 305.054 56.3099 304.129 56.8214M353.222 53.9062C352.554 54.571 352.528 55.6451 353.196 56.3355C357.766 61.0152 357.663 68.5078 352.99 73.0596C352.657 73.392 352.477 73.8268 352.477 74.2615C352.477 74.6962 352.631 75.1309 352.965 75.4889C353.299 75.8214 353.735 76.0004 354.197 76.0004C354.634 76.0004 355.07 75.8469 355.378 75.5145C358.434 72.5482 360 68.5845 360 64.6464V64.5697C360 60.7339 358.536 56.9237 355.661 53.9573C355.327 53.6249 354.89 53.4459 354.428 53.4459C353.966 53.4459 353.555 53.5993 353.222 53.9317M272.574 53.139V68.4311H280.713V66.0017H275.655V53.139H272.574ZM282.896 51.7581C282.536 52.0906 282.356 52.5253 282.356 53.0367C282.356 53.5482 282.536 53.9829 282.896 54.3153C283.255 54.6478 283.717 54.8268 284.256 54.8268C284.796 54.8268 285.258 54.6478 285.617 54.3153C285.977 53.9829 286.156 53.5482 286.156 53.0367C286.156 52.5253 285.977 52.0906 285.617 51.7581C285.258 51.4257 284.796 51.2467 284.256 51.2467C283.717 51.2467 283.255 51.4257 282.896 51.7581ZM317.866 31.2238V55.2103C317.866 59.9667 318.739 63.3934 320.459 65.4903C322.18 67.5872 324.67 68.6612 327.931 68.6612H330.832C330.832 68.6612 330.678 68.4311 330.601 68.3032C329.959 67.2036 329.626 65.8994 329.626 64.3907C329.626 62.8819 329.959 61.6033 330.601 60.5037C330.653 60.427 330.678 60.3759 330.73 60.2992H329.163C327.7 60.2992 326.647 59.9156 326.031 59.1229C325.415 58.3301 325.107 57.0259 325.107 55.2103V31.2238H317.84H317.866ZM158.805 13.9883C156.751 14.8833 155.184 16.0852 154.08 17.6195C152.976 19.1538 152.437 20.8416 152.437 22.6827C152.437 24.9587 153.028 26.7743 154.234 28.1552C155.441 29.536 156.853 30.5589 158.496 31.2494C160.14 31.9142 162.271 32.6047 164.89 33.3207C167.586 34.0879 169.563 34.7783 170.795 35.392C172.028 36.0313 172.67 36.9775 172.67 38.2817C172.67 39.5091 172.105 40.5064 171.001 41.2736C169.871 42.0408 168.305 42.4499 166.276 42.4499C164.248 42.4499 162.733 41.964 161.424 40.9667C160.14 39.9694 159.421 38.742 159.292 37.2844H151.821C151.898 39.3813 152.591 41.2992 153.849 42.9869C155.107 44.7002 156.828 46.03 159.01 47.0273C161.192 48.0246 163.632 48.5105 166.379 48.5105C169.126 48.5105 171.437 48.0757 173.44 47.1807C175.443 46.2857 176.983 45.0838 178.087 43.5239C179.191 41.964 179.73 40.1996 179.73 38.2305C179.679 36.0058 179.088 34.2157 177.907 32.8604C176.726 31.5051 175.314 30.5078 173.697 29.7918C172.079 29.1013 169.999 28.4109 167.457 27.746C165.557 27.209 164.119 26.7487 163.144 26.3907C162.168 26.0327 161.347 25.5468 160.679 24.9075C160.011 24.2682 159.678 23.501 159.678 22.5805C159.678 21.4041 160.191 20.458 161.192 19.742C162.194 19.0259 163.657 18.6679 165.557 18.6679C167.457 18.6679 169.049 19.1282 170.179 20.0488C171.309 20.9694 171.951 22.2224 172.079 23.7568H179.294C179.114 20.3045 177.83 17.5939 175.391 15.5993C172.978 13.6047 169.768 12.6074 165.814 12.6074C163.169 12.6074 160.807 13.0421 158.753 13.9371M219.502 14.5253C217.268 15.7527 215.625 17.4405 214.572 19.5374C213.391 17.3126 211.697 15.5993 209.514 14.423C207.332 13.2467 204.841 12.6585 202.043 12.6585C199.963 12.6585 198.037 13.0677 196.214 13.8604C194.391 14.6531 192.902 15.7783 191.721 17.2103V13.2467H184.506V47.9735H191.721V28.5643C191.721 25.4445 192.517 23.0663 194.083 21.4041C195.675 19.742 197.806 18.9237 200.502 18.9237C203.198 18.9237 205.329 19.742 206.895 21.4041C208.462 23.0663 209.232 25.4445 209.232 28.5643V47.9735H216.395V28.5643C216.395 25.4445 217.191 23.0663 218.758 21.4041C220.349 19.742 222.481 18.9237 225.176 18.9237C227.872 18.9237 230.004 19.742 231.57 21.4041C233.136 23.0663 233.906 25.4445 233.906 28.5643V47.9735H241.07V27.4903C241.07 24.3449 240.454 21.6599 239.195 19.4095C237.963 17.1848 236.243 15.497 234.06 14.3718C231.878 13.2467 229.439 12.6585 226.691 12.6585C224.124 12.6585 221.71 13.2722 219.476 14.5253M259.3 40.89C257.682 39.9438 256.373 38.563 255.371 36.7729C254.37 34.9573 253.882 32.8604 253.882 30.4566C253.882 28.0529 254.37 25.9815 255.371 24.2426C256.373 22.5037 257.656 21.174 259.274 20.279C260.866 19.384 262.612 18.9237 264.46 18.9237C266.309 18.9237 268.055 19.384 269.647 20.3045C271.239 21.2251 272.548 22.5805 273.55 24.3449C274.551 26.1094 275.039 28.1807 275.039 30.5845C275.039 32.9883 274.551 35.0596 273.55 36.8496C272.548 38.6397 271.264 39.995 269.647 40.9156C268.055 41.8362 266.309 42.2965 264.46 42.2965C262.612 42.2965 260.917 41.8362 259.3 40.89ZM254.601 14.9089C252.085 16.392 250.108 18.4889 248.644 21.174C247.181 23.8591 246.462 26.9533 246.462 30.4311C246.462 33.9089 247.181 37.0286 248.644 39.7904C250.108 42.5522 252.059 44.6747 254.55 46.209C257.04 47.7433 259.787 48.5105 262.766 48.5105C265.462 48.5105 267.875 47.9735 269.981 46.8739C272.086 45.7743 273.755 44.4189 274.987 42.7823V47.9479H282.254V13.2467H274.987V18.2844C273.755 16.6989 272.137 15.3436 270.083 14.2696C268.029 13.1955 265.641 12.6585 262.894 12.6585C259.864 12.6585 257.091 13.4001 254.575 14.8833M299.996 14.1417C298.25 15.139 296.838 16.4943 295.785 18.2588V13.2211H288.57V47.9479H295.785V29.6639C295.785 26.135 296.504 23.6545 297.967 22.2224C299.431 20.7904 301.562 20.0744 304.386 20.0744H306.235V12.6329C303.821 12.6329 301.742 13.1188 299.996 14.1161M318.457 4.65448C318.123 4.65448 317.84 4.93577 317.84 5.26821V12.1215C317.84 12.4539 317.558 12.7352 317.224 12.7352H310.677C310.343 12.7352 310.061 13.0165 310.061 13.349V19.5885C310.061 19.921 310.343 20.2023 310.677 20.2023H317.224C317.558 20.2023 317.84 20.4836 317.84 20.816V28.0017L325.107 27.9506V20.7904C325.107 20.458 325.389 20.1767 325.723 20.1767H332.989C333.323 20.1767 333.605 19.8954 333.605 19.563V13.3234C333.605 12.991 333.323 12.7097 332.989 12.7097H325.723C325.389 12.7097 325.107 12.4284 325.107 12.0959V5.24263C325.107 4.9102 324.824 4.62891 324.49 4.62891H318.431L318.457 4.65448Z" fill="white"/>
</mask>
<g mask="url(#mask1_56_3589)">
<path d="M151.947 1.06194L150.647 75.9512L359.951 79.5534L361.25 4.66419L151.947 1.06194Z" fill="url(#paint0_linear_56_3589)"/>
</g>
<mask id="mask2_56_3589" style="mask-type:luminance" maskUnits="userSpaceOnUse" x="0" y="0" width="360" height="76">
<path d="M360 0H0V76H360V0Z" fill="white"/>
</mask>
<g mask="url(#mask2_56_3589)">
<path d="M48.9123 14.4731C51.0178 15.5983 52.6867 17.2604 53.9191 19.4852C55.1516 21.71 55.7421 24.4206 55.7421 27.6171V47.9724H50.0421V28.4354C50.0421 24.9832 49.1948 22.3493 47.4745 20.5337C45.7542 18.718 43.4434 17.7975 40.542 17.7975C37.6407 17.7975 35.1501 18.7436 33.3785 20.6615C31.6069 22.5794 30.7082 25.3412 30.7082 28.9468V47.9724H25.0082V28.4354C25.0082 24.9832 24.1609 22.3493 22.4406 20.5337C20.7203 18.718 18.4095 17.7975 15.5082 17.7975C12.6068 17.7975 10.1163 18.7436 8.34462 20.6615C6.573 22.5794 5.67435 25.3412 5.67435 28.9468V47.9724H0V13.4246H5.75137V18.4112C6.88111 16.5956 8.42165 15.2147 10.3473 14.2429C12.273 13.2712 14.3784 12.7853 16.7149 12.7853C19.6163 12.7853 22.2095 13.4246 24.4433 14.7288C26.6771 16.033 28.346 17.9509 29.4501 20.4569C30.4258 18.0276 32.0177 16.1353 34.2515 14.78C36.4853 13.4246 38.9758 12.7598 41.7231 12.7598C44.4704 12.7598 46.8326 13.3223 48.938 14.4219" fill="#2D2766"/>
<path d="M94.3583 32.834H66.6285C66.8339 36.2351 68.015 38.8946 70.1461 40.8125C72.2772 42.7304 74.8704 43.6766 77.9002 43.6766C80.3907 43.6766 82.4704 43.0884 84.1394 41.9377C85.8083 40.7869 86.9637 39.227 87.6569 37.3091H93.8705C92.9462 40.6335 91.0975 43.3186 88.2988 45.4155C85.5259 47.4868 82.0596 48.5353 77.9258 48.5353C74.6393 48.5353 71.6866 47.7937 69.0934 46.3361C66.5001 44.8785 64.4717 42.7816 62.9825 40.0709C61.4933 37.3603 60.7744 34.2149 60.7744 30.6348C60.7744 27.0548 61.4933 23.935 62.9312 21.2499C64.369 18.5649 66.3717 16.4935 68.965 15.0359C71.5582 13.5783 74.5366 12.8623 77.9258 12.8623C81.315 12.8623 84.1394 13.5783 86.6556 15.0104C89.1975 16.4424 91.1488 18.4114 92.5097 20.8919C93.8705 23.398 94.5637 26.2109 94.5637 29.3818C94.5637 30.4814 94.5124 31.6322 94.384 32.8596M87.1434 22.5285C86.1677 20.9431 84.8583 19.7667 83.1894 18.9484C81.5204 18.1301 79.6718 17.721 77.6434 17.721C74.742 17.721 72.2515 18.6416 70.1974 20.4828C68.1434 22.3239 66.9879 24.9067 66.6798 28.1799H88.5813C88.5813 26.0063 88.0934 24.114 87.1178 22.5285" fill="#2D2766"/>
<path d="M99.8787 21.2753C101.317 18.6158 103.294 16.5444 105.784 15.0613C108.3 13.5781 111.099 12.8621 114.231 12.8621C116.927 12.8621 119.444 13.4758 121.754 14.7288C124.065 15.9563 125.837 17.5929 127.069 19.6131V1.3291H132.898V47.9724H127.069V41.4771C125.94 43.5485 124.245 45.2362 122.011 46.5404C119.777 47.8702 117.159 48.535 114.154 48.535C111.15 48.535 108.275 47.7679 105.758 46.2591C103.242 44.7504 101.265 42.6279 99.8531 39.8917C98.4152 37.1555 97.6963 34.0613 97.6963 30.5579C97.6963 27.0545 98.4152 23.9348 99.8531 21.2497M125.503 23.8325C124.45 21.889 123.013 20.4314 121.241 19.3829C119.444 18.3601 117.467 17.8486 115.336 17.8486C113.204 17.8486 111.227 18.3601 109.456 19.3574C107.684 20.3547 106.272 21.8379 105.219 23.7813C104.167 25.7248 103.627 27.9751 103.627 30.5835C103.627 33.1918 104.167 35.5189 105.219 37.4879C106.272 39.4314 107.684 40.9401 109.456 41.963C111.227 42.9859 113.179 43.4973 115.336 43.4973C117.492 43.4973 119.469 42.9859 121.241 41.963C123.038 40.9401 124.45 39.4314 125.503 37.4879C126.556 35.5444 127.095 33.243 127.095 30.6602C127.095 28.0774 126.556 25.7759 125.503 23.858" fill="#2D2766"/>
<path d="M140.575 6.67411C139.805 5.90695 139.445 4.98636 139.445 3.91234C139.445 2.83831 139.83 1.89215 140.575 1.15056C141.345 0.383399 142.27 0.0253906 143.348 0.0253906C144.426 0.0253906 145.299 0.408971 146.044 1.15056C146.789 1.91772 147.148 2.83831 147.148 3.91234C147.148 4.98636 146.789 5.93252 146.044 6.67411C145.299 7.44127 144.401 7.79928 143.348 7.79928C142.295 7.79928 141.32 7.4157 140.575 6.67411ZM146.147 47.9729H140.395V13.4251H146.147V47.9729Z" fill="#2D2766"/>
</g>
</g>
</g>
<defs>
<linearGradient id="paint0_linear_56_3589" x1="142.111" y1="40.5326" x2="358.086" y2="44.2799" gradientUnits="userSpaceOnUse">
<stop stop-color="#2A235F"/>
<stop offset="0.51" stop-color="#6057A2"/>
<stop offset="1" stop-color="#3EBAC8"/>
</linearGradient>
<clipPath id="clip0_56_3589">
<rect width="360" height="76" fill="white"/>
</clipPath>
</defs>
</svg>
