<svg width="40" height="303" viewBox="0 0 40 303" fill="none" xmlns="http://www.w3.org/2000/svg">
<path d="M10.8182 293.634L18.8324 290.984L18.8324 290.879L10.8182 288.234L10.8182 286.206L21 289.795L21 292.072L10.8182 295.657L10.8182 293.634ZM10.8182 280.22L21 280.22L21 282.065L10.8182 282.065L10.8182 280.22ZM14.0696 268.602C13.8011 268.685 13.5608 268.799 13.3487 268.945C13.1333 269.088 12.9493 269.26 12.7969 269.462C12.6444 269.661 12.5301 269.89 12.4538 270.148C12.3743 270.407 12.3345 270.688 12.3345 270.993C12.3345 271.54 12.4721 272.027 12.7472 272.455C13.0223 272.883 13.4266 273.219 13.9602 273.464C14.4905 273.706 15.1368 273.827 15.8991 273.827C16.6681 273.827 17.3194 273.706 17.853 273.464C18.3866 273.222 18.7926 272.886 19.071 272.455C19.3461 272.024 19.4837 271.524 19.4837 270.954C19.4837 270.437 19.3842 269.989 19.1854 269.611C18.9865 269.23 18.7048 268.937 18.3402 268.731C17.9723 268.526 17.5414 268.423 17.0476 268.423L17.1122 268.005L17.1122 270.77L15.6705 270.77L15.6705 266.638L16.8935 266.638C17.7652 266.638 18.5192 266.824 19.1555 267.195C19.7919 267.566 20.2824 268.077 20.6271 268.726C20.9685 269.376 21.1392 270.122 21.1392 270.964C21.1392 271.902 20.9287 272.725 20.5078 273.434C20.0836 274.14 19.482 274.692 18.7031 275.09C17.9209 275.484 16.9929 275.682 15.919 275.682C15.0971 275.682 14.3629 275.566 13.7166 275.334C13.0703 275.098 12.5218 274.77 12.071 274.349C11.6169 273.928 11.2723 273.434 11.0369 272.868C10.7983 272.301 10.679 271.684 10.679 271.018C10.679 270.455 10.7618 269.929 10.9276 269.442C11.09 268.955 11.322 268.523 11.6236 268.145C11.9252 267.764 12.2831 267.45 12.6974 267.205C13.1117 266.96 13.5691 266.799 14.0696 266.723L14.0696 268.602ZM10.8182 260.21L21 260.21L21 262.055L10.8182 262.055L10.8182 260.21ZM21 255.413L10.8182 255.413L10.8182 253.568L19.4538 253.568L19.4538 249.084L21 249.084L21 255.413ZM21 242.993L21 244.962L10.8182 241.377L10.8182 239.1L21 235.511L21 237.479L12.9062 240.199L12.9062 240.278L21 242.993ZM17.0078 242.928L17.0078 237.559L18.4893 237.559L18.4893 242.928L17.0078 242.928ZM21 227.919L21 231.37L10.8182 231.37L10.8182 227.85C10.8182 226.839 11.022 225.97 11.4297 225.245C11.834 224.515 12.4157 223.955 13.1747 223.564C13.9337 223.173 14.8419 222.978 15.8991 222.978C16.9598 222.978 17.8712 223.175 18.6335 223.569C19.3958 223.96 19.9808 224.525 20.3885 225.264C20.7962 226 21 226.885 21 227.919ZM19.4041 229.525L19.4041 228.009C19.4041 227.299 19.2749 226.708 19.0163 226.234C18.7545 225.76 18.3651 225.404 17.848 225.165C17.3276 224.926 16.678 224.807 15.8991 224.807C15.1203 224.807 14.474 224.926 13.9602 225.165C13.4432 225.404 13.0571 225.757 12.8018 226.224C12.5433 226.688 12.4141 227.265 12.4141 227.954L12.4141 229.525L19.4041 229.525ZM15.9091 209.327C17.0062 209.327 17.9458 209.533 18.728 209.944C19.5069 210.351 20.1035 210.908 20.5178 211.614C20.9321 212.317 21.1392 213.114 21.1392 214.005C21.1392 214.897 20.9321 215.696 20.5178 216.402C20.1001 217.104 19.5019 217.661 18.723 218.072C17.9408 218.48 17.0028 218.684 15.9091 218.684C14.812 218.684 13.874 218.48 13.0952 218.072C12.313 217.661 11.7147 217.104 11.3004 216.402C10.8861 215.696 10.679 214.897 10.679 214.005C10.679 213.114 10.8861 212.317 11.3004 211.614C11.7147 210.908 12.313 210.351 13.0952 209.944C13.874 209.533 14.812 209.327 15.9091 209.327ZM15.9091 211.181C15.1368 211.181 14.4856 211.302 13.9553 211.544C13.4216 211.783 13.0189 212.114 12.7472 212.539C12.4721 212.963 12.3345 213.452 12.3345 214.005C12.3345 214.559 12.4721 215.048 12.7472 215.472C13.0189 215.896 13.4216 216.229 13.9553 216.471C14.4856 216.71 15.1368 216.829 15.9091 216.829C16.6813 216.829 17.3343 216.71 17.8679 216.471C18.3982 216.229 18.8009 215.896 19.076 215.472C19.3478 215.048 19.4837 214.559 19.4837 214.005C19.4837 213.452 19.3478 212.963 19.076 212.539C18.8009 212.114 18.3982 211.783 17.8679 211.544C17.3343 211.302 16.6813 211.181 15.9091 211.181Z" fill="black"/>
<path d="M15.5653 187.943C15.1619 187.989 14.8494 188.176 14.6278 188.506C14.4034 188.835 14.2912 189.25 14.2912 189.75C14.2912 190.108 14.348 190.418 14.4616 190.679C14.5724 190.941 14.7259 191.144 14.9219 191.289C15.1151 191.431 15.3352 191.502 15.5824 191.502C15.7898 191.502 15.9687 191.453 16.1193 191.357C16.2699 191.257 16.3963 191.128 16.4986 190.969C16.598 190.807 16.6818 190.634 16.75 190.449C16.8153 190.264 16.8693 190.087 16.9119 189.916L17.1335 189.064C17.2017 188.786 17.294 188.5 17.4105 188.208C17.527 187.915 17.6804 187.644 17.8707 187.394C18.0611 187.144 18.2969 186.942 18.5781 186.789C18.8594 186.632 19.196 186.554 19.5881 186.554C20.0824 186.554 20.5213 186.682 20.9048 186.938C21.2884 187.191 21.5909 187.558 21.8125 188.041C22.0341 188.521 22.1449 189.102 22.1449 189.784C22.1449 190.438 22.0412 191.003 21.8338 191.48C21.6264 191.958 21.3324 192.331 20.9517 192.601C20.5682 192.871 20.1136 193.02 19.5881 193.048L19.5881 191.727C19.9034 191.702 20.1662 191.6 20.3764 191.421C20.5838 191.239 20.7386 191.007 20.8409 190.726C20.9403 190.442 20.9901 190.131 20.9901 189.793C20.9901 189.421 20.9318 189.09 20.8153 188.8C20.696 188.507 20.5312 188.277 20.321 188.11C20.108 187.942 19.8594 187.858 19.5753 187.858C19.3168 187.858 19.1051 187.932 18.9403 188.08C18.7756 188.225 18.6392 188.422 18.5312 188.672C18.4233 188.919 18.3281 189.199 18.2457 189.512L17.9645 190.543C17.7741 191.242 17.4943 191.796 17.125 192.205C16.7557 192.611 16.267 192.814 15.6591 192.814C15.1562 192.814 14.7173 192.678 14.3423 192.405C13.9673 192.132 13.6761 191.763 13.4687 191.297C13.2585 190.831 13.1534 190.306 13.1534 189.72C13.1534 189.129 13.2571 188.608 13.4645 188.156C13.6719 187.702 13.9574 187.344 14.321 187.083C14.6818 186.821 15.0966 186.685 15.5653 186.673L15.5653 187.943ZM13.2727 179.368L13.2727 178.047L19.0128 178.047C19.6236 178.047 20.1648 178.191 20.6364 178.478C21.1051 178.765 21.4744 179.168 21.7443 179.688C22.0114 180.208 22.1449 180.817 22.1449 181.516C22.1449 182.212 22.0114 182.82 21.7443 183.34C21.4744 183.86 21.1051 184.263 20.6364 184.55C20.1648 184.837 19.6236 184.981 19.0128 184.981L13.2727 184.981L13.2727 183.664L18.9062 183.664C19.3011 183.664 19.652 183.577 19.9588 183.404C20.2656 183.228 20.5071 182.979 20.6832 182.658C20.8565 182.337 20.9432 181.956 20.9432 181.516C20.9432 181.073 20.8565 180.691 20.6832 180.37C20.5071 180.046 20.2656 179.799 19.9588 179.628C19.652 179.455 19.3011 179.368 18.9062 179.368L13.2727 179.368ZM22 176.133L13.2727 176.133L13.2727 173.022C13.2727 172.343 13.3963 171.781 13.6435 171.335C13.8906 170.889 14.2287 170.555 14.6577 170.333C15.0838 170.112 15.5639 170.001 16.098 170.001C16.6349 170.001 17.1179 170.113 17.5469 170.338C17.973 170.559 18.3111 170.894 18.5611 171.343C18.8082 171.789 18.9318 172.35 18.9318 173.026L18.9318 175.166L17.8153 175.166L17.8153 173.146C17.8153 172.717 17.7415 172.369 17.5937 172.102C17.4432 171.835 17.2386 171.639 16.9801 171.514C16.7216 171.389 16.4276 171.326 16.098 171.326C15.7685 171.326 15.4759 171.389 15.2202 171.514C14.9645 171.639 14.7642 171.836 14.6193 172.106C14.4744 172.373 14.402 172.725 14.402 173.163L14.402 174.816L22 174.816L22 176.133ZM22 168.457L13.2727 168.457L13.2727 162.986L14.4062 162.986L14.4062 167.14L17.0653 167.14L17.0653 163.271L18.1946 163.271L18.1946 167.14L20.8665 167.14L20.8665 162.934L22 162.934L22 168.457ZM22 161.227L13.2727 161.227L13.2727 158.116C13.2727 157.44 13.3892 156.879 13.6222 156.433C13.8551 155.984 14.1776 155.649 14.5895 155.427C14.9986 155.205 15.4716 155.095 16.0085 155.095C16.5426 155.095 17.0128 155.207 17.419 155.431C17.8224 155.653 18.1364 155.988 18.3608 156.437C18.5852 156.883 18.6974 157.444 18.6974 158.12L18.6974 160.477L17.5639 160.477L17.5639 158.24C17.5639 157.813 17.5028 157.467 17.3807 157.2C17.2585 156.93 17.081 156.732 16.848 156.607C16.6151 156.482 16.3352 156.42 16.0085 156.42C15.679 156.42 15.3935 156.484 15.152 156.612C14.9105 156.737 14.7259 156.934 14.598 157.204C14.4673 157.471 14.402 157.822 14.402 158.257L14.402 159.91L22 159.91L22 161.227ZM18.0625 156.919L22 154.762L22 156.262L18.0625 158.376L18.0625 156.919ZM13.2727 149L22 149L22 150.317L13.2727 150.317L13.2727 149ZM13.2727 140.038L22 140.038L22 141.248L15.5994 145.684L15.5994 145.765L22 145.765L22 147.082L13.2727 147.082L13.2727 145.863L19.6818 141.423L19.6818 141.342L13.2727 141.342L13.2727 140.038ZM14.4062 138.548L13.2727 138.548L13.2727 131.794L14.4062 131.794L14.4062 134.517L22 134.517L22 135.829L14.4062 135.829L14.4062 138.548ZM22 130.301L13.2727 130.301L13.2727 124.829L14.4062 124.829L14.4062 128.984L17.0653 128.984L17.0653 125.115L18.1946 125.115L18.1946 128.984L20.8665 128.984L20.8665 124.778L22 124.778L22 130.301ZM13.2727 116.026L22 116.026L22 117.237L15.5994 121.673L15.5994 121.754L22 121.754L22 123.07L13.2727 123.07L13.2727 121.852L19.6818 117.411L19.6818 117.33L13.2727 117.33L13.2727 116.026ZM22 111.28L22 114.106L13.2727 114.106L13.2727 111.191C13.2727 110.336 13.4474 109.601 13.7969 108.988C14.1435 108.374 14.642 107.904 15.2926 107.577C15.9403 107.248 16.7173 107.083 17.6236 107.083C18.5327 107.083 19.3139 107.249 19.9673 107.581C20.6207 107.911 21.1236 108.388 21.4758 109.013C21.8253 109.638 22 110.394 22 111.28ZM20.8494 112.789L20.8494 111.353C20.8494 110.688 20.7244 110.135 20.4744 109.695C20.2216 109.255 19.8565 108.925 19.3793 108.706C18.8991 108.488 18.3139 108.378 17.6236 108.378C16.9389 108.378 16.358 108.488 15.8807 108.706C15.4034 108.922 15.0412 109.245 14.794 109.674C14.5469 110.103 14.4233 110.635 14.4233 111.272L14.4233 112.789L20.8494 112.789ZM22 105.445L13.2727 105.445L13.2727 99.9739L14.4062 99.9739L14.4062 104.129L17.0653 104.129L17.0653 100.259L18.1946 100.259L18.1946 104.129L20.8665 104.129L20.8665 99.9228L22 99.9228L22 105.445ZM16.1108 90.9664L16.1108 92.296C15.8267 92.3471 15.5767 92.4423 15.3608 92.5815C15.1449 92.7207 14.9616 92.8912 14.8111 93.0929C14.6605 93.2946 14.5469 93.5204 14.4702 93.7704C14.3935 94.0176 14.3551 94.2804 14.3551 94.5588C14.3551 95.0616 14.4815 95.5119 14.7344 95.9096C14.9872 96.3045 15.358 96.617 15.8466 96.8471C16.3352 97.0744 16.9318 97.188 17.6364 97.188C18.3466 97.188 18.946 97.0744 19.4347 96.8471C19.9233 96.617 20.2926 96.3031 20.5426 95.9054C20.7926 95.5076 20.9176 95.0602 20.9176 94.563C20.9176 94.2875 20.8807 94.0261 20.8068 93.7789C20.7301 93.5289 20.6179 93.3031 20.4702 93.1014C20.3224 92.8997 20.142 92.7292 19.929 92.59C19.7131 92.448 19.4659 92.35 19.1875 92.296L19.1918 90.9664C19.6207 91.0375 20.0156 91.1752 20.3764 91.3798C20.7344 91.5815 21.044 91.8414 21.3054 92.1596C21.5639 92.475 21.7642 92.8358 21.9062 93.242C22.0483 93.6483 22.1193 94.0914 22.1193 94.5716C22.1193 95.3272 21.9403 96.0005 21.5824 96.5914C21.2216 97.1824 20.706 97.6483 20.0355 97.9892C19.3651 98.3272 18.5653 98.4963 17.6364 98.4963C16.7045 98.4963 15.9048 98.3258 15.2372 97.9849C14.5668 97.644 14.0526 97.1781 13.6946 96.5872C13.3338 95.9963 13.1534 95.3244 13.1534 94.5716C13.1534 94.1085 13.2202 93.6767 13.3537 93.2761C13.4844 92.8727 13.6776 92.5105 13.9332 92.1895C14.1861 91.8684 14.4957 91.6028 14.8622 91.3926C15.2258 91.1824 15.642 91.0403 16.1108 90.9664ZM13.2727 88.074L22 88.074L22 89.3908L13.2727 89.3908L13.2727 88.074ZM22 85.4192L22 86.8169L13.2727 83.6763L13.2727 82.155L22 79.0144L22 80.4121L14.8579 82.8794L14.8579 82.9476L22 85.4192ZM18.5824 85.1848L18.5824 80.6507L19.6903 80.6507L19.6903 85.1848L18.5824 85.1848ZM22 74.5783L13.2727 74.5783L13.2727 69.1664L14.4062 69.1664L14.4062 73.2615L17.0653 73.2615L17.0653 69.5542L18.1946 69.5542L18.1946 73.2615L22 73.2615L22 74.5783ZM13.2727 66.2303L22 66.2303L22 67.5471L13.2727 67.5471L13.2727 66.2303ZM13.2727 57.2686L22 57.2686L22 58.4789L15.5994 62.915L15.5994 62.9959L22 62.9959L22 64.3127L13.2727 64.3127L13.2727 63.0939L19.6818 58.6536L19.6818 58.5726L13.2727 58.5726L13.2727 57.2686ZM22 54.6106L22 56.0083L13.2727 52.8677L13.2727 51.3464L22 48.2058L22 49.6035L14.8579 52.0708L14.8579 52.139L22 54.6106ZM18.5824 54.3762L18.5824 49.8422L19.6903 49.8422L19.6903 54.3762L18.5824 54.3762ZM13.2727 39.9015L22 39.9015L22 41.1117L15.5994 45.5478L15.5994 45.6287L22 45.6287L22 46.9455L13.2727 46.9455L13.2727 45.7267L19.6818 41.2864L19.6818 41.2054L13.2727 41.2054L13.2727 39.9015ZM16.1108 30.7321L16.1108 32.0616C15.8267 32.1127 15.5767 32.2079 15.3608 32.3471C15.1449 32.4863 14.9616 32.6568 14.8111 32.8585C14.6605 33.0602 14.5469 33.286 14.4702 33.536C14.3935 33.7832 14.3551 34.046 14.3551 34.3244C14.3551 34.8272 14.4815 35.2775 14.7344 35.6752C14.9872 36.0701 15.3579 36.3826 15.8466 36.6127C16.3352 36.84 16.9318 36.9537 17.6364 36.9537C18.3466 36.9537 18.946 36.84 19.4347 36.6127C19.9233 36.3826 20.2926 36.0687 20.5426 35.671C20.7926 35.2733 20.9176 34.8258 20.9176 34.3287C20.9176 34.0531 20.8807 33.7917 20.8068 33.5446C20.7301 33.2946 20.6179 33.0687 20.4702 32.867C20.3224 32.6653 20.142 32.4949 19.929 32.3556C19.7131 32.2136 19.4659 32.1156 19.1875 32.0616L19.1918 30.7321C19.6207 30.8031 20.0156 30.9409 20.3764 31.1454C20.7344 31.3471 21.044 31.6071 21.3054 31.9252C21.5639 32.2406 21.7642 32.6014 21.9062 33.0076C22.0483 33.4139 22.1193 33.8571 22.1193 34.3372C22.1193 35.0929 21.9403 35.7662 21.5824 36.3571C21.2216 36.948 20.706 37.4139 20.0355 37.7548C19.365 38.0929 18.5653 38.2619 17.6364 38.2619C16.7045 38.2619 15.9048 38.0914 15.2372 37.7505C14.5668 37.4096 14.0525 36.9437 13.6946 36.3528C13.3338 35.7619 13.1534 35.09 13.1534 34.3372C13.1534 33.8741 13.2202 33.4423 13.3537 33.0417C13.4844 32.6383 13.6775 32.2761 13.9332 31.9551C14.1861 31.6341 14.4957 31.3684 14.8622 31.1582C15.2258 30.948 15.642 30.8059 16.1108 30.7321ZM13.2727 27.8397L22 27.8397L22 29.1564L13.2727 29.1564L13.2727 27.8397ZM22 25.9221L13.2727 25.9221L13.2727 20.4505L14.4062 20.4505L14.4062 24.6053L17.0653 24.6053L17.0653 20.736L18.1946 20.736L18.1946 24.6053L20.8665 24.6053L20.8665 20.3993L22 20.3993L22 25.9221ZM22 18.6916L13.2727 18.6916L13.2727 15.5808C13.2727 14.9047 13.3892 14.3436 13.6222 13.8975C13.8551 13.4487 14.1775 13.1135 14.5895 12.8919C14.9986 12.6703 15.4716 12.5595 16.0085 12.5595C16.5426 12.5595 17.0128 12.6717 17.419 12.8961C17.8224 13.1177 18.1364 13.4529 18.3608 13.9018C18.5852 14.3478 18.6974 14.9089 18.6974 15.585L18.6974 17.9416L17.5639 17.9416L17.5639 15.7044C17.5639 15.2782 17.5028 14.9316 17.3807 14.6646C17.2585 14.3947 17.081 14.1973 16.848 14.0723C16.615 13.9473 16.3352 13.8848 16.0085 13.8848C15.679 13.8848 15.3935 13.9487 15.152 14.0765C14.9105 14.2015 14.7258 14.399 14.598 14.6689C14.4673 14.9359 14.402 15.2868 14.402 15.7214L14.402 17.3748L22 17.3748L22 18.6916ZM18.0625 14.3833L22 12.2271L22 13.7271L18.0625 15.8407L18.0625 14.3833ZM22 10.22L22 11.6177L13.2727 8.47709L13.2727 6.95579L22 3.81516L22 5.21289L14.8579 7.68022L14.8579 7.7484L22 10.22ZM18.5824 9.98562L18.5824 5.45153L19.6903 5.45153L19.6903 9.98562L18.5824 9.98562ZM37 134.73L37 137.555L28.2727 137.555L28.2727 134.64C28.2727 133.785 28.4474 133.051 28.7969 132.437C29.1435 131.823 29.642 131.353 30.2926 131.026C30.9403 130.697 31.7173 130.532 32.6236 130.532C33.5327 130.532 34.3139 130.698 34.9673 131.031C35.6207 131.36 36.1236 131.838 36.4758 132.463C36.8253 133.088 37 133.843 37 134.73ZM35.8494 136.238L35.8494 134.802C35.8494 134.137 35.7244 133.585 35.4744 133.144C35.2216 132.704 34.8565 132.374 34.3793 132.156C33.8991 131.937 33.3139 131.828 32.6236 131.828C31.9389 131.828 31.358 131.937 30.8807 132.156C30.4034 132.372 30.0412 132.694 29.794 133.123C29.5469 133.552 29.4233 134.085 29.4233 134.721L29.4233 136.238L35.8494 136.238ZM37 128.895L28.2727 128.895L28.2727 123.423L29.4062 123.423L29.4062 127.578L32.0653 127.578L32.0653 123.709L33.1946 123.709L33.1946 127.578L35.8665 127.578L35.8665 123.372L37 123.372L37 128.895ZM31.1108 111.24L31.1108 112.569C30.8267 112.621 30.5767 112.716 30.3608 112.855C30.1449 112.994 29.9616 113.165 29.8111 113.366C29.6605 113.568 29.5469 113.794 29.4702 114.044C29.3935 114.291 29.3551 114.554 29.3551 114.832C29.3551 115.335 29.4815 115.785 29.7344 116.183C29.9872 116.578 30.358 116.89 30.8466 117.121C31.3352 117.348 31.9318 117.461 32.6364 117.461C33.3466 117.461 33.946 117.348 34.4347 117.121C34.9233 116.89 35.2926 116.577 35.5426 116.179C35.7926 115.781 35.9176 115.334 35.9176 114.836C35.9176 114.561 35.8807 114.3 35.8068 114.052C35.7301 113.802 35.6179 113.577 35.4702 113.375C35.3224 113.173 35.142 113.003 34.929 112.863C34.7131 112.721 34.4659 112.623 34.1875 112.569L34.1918 111.24C34.6207 111.311 35.0156 111.449 35.3764 111.653C35.7344 111.855 36.044 112.115 36.3054 112.433C36.5639 112.748 36.7642 113.109 36.9062 113.515C37.0483 113.922 37.1193 114.365 37.1193 114.845C37.1193 115.601 36.9403 116.274 36.5824 116.865C36.2216 117.456 35.706 117.922 35.0355 118.263C34.3651 118.601 33.5653 118.77 32.6364 118.77C31.7045 118.77 30.9048 118.599 30.2372 118.258C29.5668 117.917 29.0526 117.452 28.6946 116.861C28.3338 116.27 28.1534 115.598 28.1534 114.845C28.1534 114.382 28.2202 113.95 28.3537 113.55C28.4844 113.146 28.6776 112.784 28.9332 112.463C29.1861 112.142 29.4957 111.876 29.8622 111.666C30.2258 111.456 30.642 111.314 31.1108 111.24ZM32.6364 102.083C33.5682 102.083 34.3693 102.254 35.0398 102.595C35.7074 102.936 36.2216 103.403 36.5824 103.997C36.9403 104.588 37.1193 105.259 37.1193 106.012C37.1193 106.768 36.9403 107.443 36.5824 108.036C36.2216 108.627 35.706 109.093 35.0355 109.434C34.3651 109.775 33.5653 109.945 32.6364 109.945C31.7045 109.945 30.9048 109.775 30.2372 109.434C29.5668 109.093 29.0526 108.627 28.6946 108.036C28.3338 107.443 28.1534 106.768 28.1534 106.012C28.1534 105.259 28.3338 104.588 28.6946 103.997C29.0526 103.403 29.5668 102.936 30.2372 102.595C30.9048 102.254 31.7045 102.083 32.6364 102.083ZM32.6364 103.387C31.9261 103.387 31.3281 103.502 30.8423 103.732C30.3537 103.96 29.9844 104.272 29.7344 104.67C29.4815 105.065 29.3551 105.512 29.3551 106.012C29.3551 106.515 29.4815 106.964 29.7344 107.359C29.9844 107.754 30.3537 108.066 30.8423 108.296C31.3281 108.524 31.9261 108.637 32.6364 108.637C33.3466 108.637 33.946 108.524 34.4347 108.296C34.9205 108.066 35.2898 107.754 35.5426 107.359C35.7926 106.964 35.9176 106.515 35.9176 106.012C35.9176 105.512 35.7926 105.065 35.5426 104.67C35.2898 104.272 34.9205 103.96 34.4347 103.732C33.946 103.502 33.3466 103.387 32.6364 103.387ZM37 100.442L28.2727 100.442L28.2727 99.1248L35.8665 99.1248L35.8665 95.1703L37 95.1703L37 100.442ZM32.6364 86.427C33.5682 86.427 34.3693 86.5975 35.0398 86.9384C35.7074 87.2793 36.2216 87.7466 36.5824 88.3404C36.9403 88.9313 37.1193 89.6032 37.1193 90.356C37.1193 91.1117 36.9403 91.7864 36.5824 92.3801C36.2216 92.9711 35.706 93.437 35.0355 93.7779C34.3651 94.1188 33.5653 94.2892 32.6364 94.2892C31.7045 94.2892 30.9048 94.1188 30.2372 93.7779C29.5668 93.437 29.0526 92.9711 28.6946 92.3801C28.3338 91.7864 28.1534 91.1117 28.1534 90.356C28.1534 89.6032 28.3338 88.9313 28.6946 88.3404C29.0526 87.7466 29.5668 87.2793 30.2372 86.9384C30.9048 86.5975 31.7045 86.427 32.6364 86.427ZM32.6364 87.731C31.9261 87.731 31.3281 87.8461 30.8423 88.0762C30.3537 88.3034 29.9844 88.6159 29.7344 89.0137C29.4815 89.4086 29.3551 89.856 29.3551 90.356C29.3551 90.8588 29.4815 91.3077 29.7344 91.7026C29.9844 92.0975 30.3537 92.41 30.8423 92.6401C31.3281 92.8674 31.9261 92.981 32.6364 92.981C33.3466 92.981 33.946 92.8674 34.4347 92.6401C34.9205 92.41 35.2898 92.0975 35.5426 91.7026C35.7926 91.3077 35.9176 90.8588 35.9176 90.356C35.9176 89.856 35.7926 89.4086 35.5426 89.0137C35.2898 88.6159 34.9204 88.3034 34.4347 88.0762C33.946 87.8461 33.3466 87.731 32.6364 87.731ZM28.2727 84.7853L28.2727 83.1873L35.0568 80.4089L35.0568 80.3066L28.2727 77.5282L28.2727 75.9302L37 75.9302L37 77.1831L30.6847 77.1831L30.6847 77.264L36.9872 79.8379L36.9872 80.8777L30.6804 83.4515L30.6804 83.5325L37 83.5325L37 84.7853L28.2727 84.7853ZM37 74.0158L28.2727 74.0158L28.2727 70.8198C28.2727 70.2005 28.375 69.6877 28.5795 69.2814C28.7812 68.8752 29.0554 68.5712 29.402 68.3695C29.7457 68.1678 30.1335 68.0669 30.5653 68.0669C30.929 68.0669 31.2358 68.1337 31.4858 68.2672C31.7329 68.4007 31.9318 68.5797 32.0824 68.8042C32.2301 69.0257 32.3381 69.2701 32.4062 69.5371L32.4915 69.5371C32.5057 69.2473 32.5994 68.9647 32.7727 68.6891C32.9432 68.4107 33.1861 68.1806 33.5014 67.9988C33.8168 67.8169 34.2003 67.726 34.652 67.726C35.098 67.726 35.4986 67.8311 35.8537 68.0414C36.206 68.2488 36.4858 68.5698 36.6932 69.0044C36.8977 69.4391 37 69.9945 37 70.6706L37 74.0158ZM35.8707 72.699L35.8707 70.7985C35.8707 70.1678 35.7486 69.7161 35.5043 69.4434C35.2599 69.1706 34.9545 69.0343 34.5881 69.0343C34.3125 69.0343 34.0597 69.1039 33.8295 69.2431C33.5994 69.3823 33.4162 69.5811 33.2798 69.8397C33.1435 70.0953 33.0753 70.3993 33.0753 70.7516L33.0753 72.699L35.8707 72.699ZM32.0483 72.699L32.0483 70.9348C32.0483 70.6394 31.9915 70.3738 31.8778 70.138C31.7642 69.8993 31.6051 69.7104 31.4006 69.5712C31.1932 69.4292 30.9489 69.3581 30.6676 69.3581C30.3068 69.3581 30.0043 69.4846 29.7599 69.7374C29.5156 69.9902 29.3935 70.378 29.3935 70.9007L29.3935 72.699L32.0483 72.699ZM28.2727 64.8475L37 64.8475L37 66.1642L28.2727 66.1642L28.2727 64.8475ZM37 62.1926L37 63.5904L28.2727 60.4498L28.2727 58.9284L37 55.7878L37 57.1855L29.8579 59.6529L29.8579 59.7211L37 62.1926ZM33.5824 61.9583L33.5824 57.4242L34.6903 57.4242L34.6903 61.9583L33.5824 61.9583Z" fill="black"/>
<line x1="30" y1="206" x2="30" y2="303" stroke="black" stroke-width="2"/>
<line x1="1" y1="206" x2="0.999996" y2="303" stroke="black" stroke-width="2"/>
</svg>
