<svg width="52" height="32" viewBox="0 0 52 32" fill="none" xmlns="http://www.w3.org/2000/svg">
<g clip-path="url(#clip0_0_810)">
<path d="M42.25 14.0274C46.1309 14.0274 49.277 10.8873 49.277 7.0137C49.277 3.14014 46.1309 0 42.25 0C38.3691 0 35.223 3.14014 35.223 7.0137C35.223 10.8873 38.3691 14.0274 42.25 14.0274Z" fill="white"/>
<path d="M32.6757 32H52C51.4773 26.9282 50.4013 21.931 48.7895 17.0959H35.8905L35.8817 17.1178C34.2743 21.9485 33.1983 26.937 32.6757 32Z" fill="white"/>
<path d="M9.74999 14.0274C13.6309 14.0274 16.777 10.8873 16.777 7.0137C16.777 3.14014 13.6309 0 9.74999 0C5.86907 0 2.72296 3.14014 2.72296 7.0137C2.72296 10.8873 5.86907 14.0274 9.74999 14.0274Z" fill="white"/>
<path d="M0 32H19.3243C18.8017 26.9282 17.7257 21.931 16.1138 17.0959H3.21047L3.20169 17.1178C1.59865 21.9485 0.522635 26.937 0 32Z" fill="white"/>
<path d="M26 17.3151C29.2745 17.3151 31.929 14.6656 31.929 11.3973C31.929 8.12895 29.2745 5.47946 26 5.47946C22.7255 5.47946 20.0709 8.12895 20.0709 11.3973C20.0709 14.6656 22.7255 17.3151 26 17.3151Z" fill="#45BBC9"/>
<path d="M18.0946 32H33.9054C33.4794 27.8268 32.5966 23.7107 31.2791 19.726H20.7253V19.7435C19.4034 23.7238 18.525 27.8312 18.099 32H18.0946Z" fill="#45BBC9"/>
</g>
<defs>
<clipPath id="clip0_0_810">
<rect width="52" height="32" fill="white"/>
</clipPath>
</defs>
</svg>
