<svg width="53" height="30" viewBox="0 0 53 30" fill="none" xmlns="http://www.w3.org/2000/svg">
<path d="M52.8097 19.226C43.1114 14.2971 31.2457 18.1588 26.3113 27.8571C36.0096 32.786 47.8753 28.9243 52.8097 19.226Z" fill="#45BBC9"/>
<path d="M0 19.226C9.69827 14.2971 21.5639 18.1588 26.4983 27.8571C16.8001 32.786 4.9344 28.9243 0 19.226Z" fill="#45BBC9"/>
<path d="M9.38475 5.86957C20.1777 7.21181 27.8406 17.0476 26.5039 27.8406C26.5039 27.8516 26.5039 27.8626 26.5039 27.8736C15.7054 26.5313 8.0425 16.69 9.38475 5.89157C9.38475 5.88607 9.38475 5.87507 9.38475 5.86957Z" fill="#36276F"/>
<path d="M43.579 5.86957C32.786 7.21181 25.1231 17.0476 26.4598 27.8406C26.4598 27.8516 26.4598 27.8626 26.4598 27.8736C37.2583 26.5313 44.9212 16.69 43.579 5.89157C43.579 5.88607 43.579 5.87507 43.579 5.86957Z" fill="#36276F"/>
<path d="M26.3058 0C18.6594 7.72341 18.7199 20.1887 26.4433 27.8351C26.4488 27.8406 26.4598 27.8516 26.4653 27.8571C34.1117 20.1227 34.0457 7.6574 26.3113 0.00550101C26.3113 0.00550101 26.3113 0.00550101 26.3058 0Z" fill="#45BBC9"/>
</svg>
