<svg width="47" height="44" viewBox="0 0 47 44" fill="none" xmlns="http://www.w3.org/2000/svg">
<path d="M33.3091 8.60675C29.6561 5.47529 25.053 3.76286 20.1812 3.76286C14.7881 3.76286 9.72116 5.85476 5.91139 9.65589C2.09841 13.4506 0 18.505 0 23.8814C0 34.9755 9.05261 44 20.1812 44C25.5744 44 30.6413 41.9081 34.4511 38.107C38.2641 34.309 40.3657 29.2579 40.3657 23.8814C40.3657 20.4215 39.4892 17.0955 37.8546 14.1522L47 5.03522L41.9491 0L33.3123 8.60994L33.3091 8.60675ZM36.7926 23.8814C36.7926 28.3044 35.0653 32.4627 31.9272 35.5878C28.7924 38.716 24.6212 40.438 20.1844 40.438C11.0263 40.438 3.57306 33.0112 3.57306 23.8782C3.57306 19.4553 5.30042 15.297 8.43844 12.1719C11.5733 9.04363 15.7445 7.32164 20.1812 7.32164C24.0966 7.32164 27.804 8.66415 30.7757 11.1291L19.823 22.0478L14.1323 16.3748L9.0814 21.4101L19.823 32.1183L35.1996 16.7894C36.2392 18.977 36.7894 21.3845 36.7894 23.8782L36.7926 23.8814Z" fill="white"/>
</svg>
