<svg width="650" height="36" viewBox="0 0 650 36" fill="none" xmlns="http://www.w3.org/2000/svg">
<g clip-path="url(#clip0_0_836)">
<path d="M25.5267 20.2499C25.9045 20.2499 26.2284 19.9687 26.3364 19.4765L28.8195 11.4608L33.3538 35.0858C33.4617 35.6483 33.7856 35.9296 34.2175 35.9999C34.5954 35.9296 34.9732 35.578 35.0272 35.0858L39.4536 6.18744L41.9906 19.3358C42.0986 19.828 42.4765 20.2499 42.8004 20.2499H873.235C873.503 20.2499 873.665 19.9688 873.665 19.6875V18.5625C873.665 18.2109 873.503 18 873.235 18L43.5021 17.9999L40.2093 0.843689C40.1014 0.281189 39.7775 -6.0986e-05 39.3456 -6.10352e-05C38.9677 -6.10782e-05 38.5899 0.351501 38.5359 0.843689L34.1095 29.7421L29.8451 7.59369C29.7371 7.1015 29.4132 6.74994 29.0893 6.74994C28.6575 6.67963 28.3337 6.96088 28.2257 7.45306L24.9869 17.9999H0.431843C0.215922 17.9999 9.91049e-08 18.2108 7.55052e-08 18.5624L0 19.6874C-1.88705e-08 19.9687 0.215921 20.2499 0.431842 20.2499H25.5267Z" fill="#36276F"/>
</g>
<defs>
<clipPath id="clip0_0_836">
<rect width="650" height="36" fill="white"/>
</clipPath>
</defs>
</svg>
