<svg width="333" height="92" viewBox="0 0 333 92" fill="none" xmlns="http://www.w3.org/2000/svg">
<g clip-path="url(#clip0_9_6144)">
<mask id="mask0_9_6144" style="mask-type:luminance" maskUnits="userSpaceOnUse" x="0" y="19" width="333" height="73">
<path d="M333 19H0V92H333V19Z" fill="white"/>
</mask>
<g mask="url(#mask0_9_6144)">
<path d="M295.951 45.1334V37.8435H288.705V30.8819H295.951V23.3479H302.728V30.8819H310.627V37.8435H302.728V45.0871" fill="#43BAC9"/>
<mask id="mask1_9_6144" style="mask-type:luminance" maskUnits="userSpaceOnUse" x="0" y="19" width="333" height="73">
<path d="M333 19H0V92H333V19Z" fill="white"/>
</mask>
<g mask="url(#mask1_9_6144)">
<path d="M45.5555 32.5066C47.5196 33.5462 49.0708 35.1077 50.2088 37.1869C51.3468 39.2662 51.9201 41.7957 51.9201 44.7799V63.7875H46.6176V45.5459C46.6176 42.3303 45.821 39.868 44.232 38.1592C42.6429 36.4546 40.4891 35.6002 37.7788 35.6002C35.0686 35.6002 32.7714 36.4925 31.1192 38.2771C29.4711 40.0617 28.645 42.6417 28.645 46.0173V63.7875H23.3425V45.5459C23.3425 42.3303 22.5459 39.868 20.9569 38.1592C19.3678 36.4546 17.214 35.6002 14.5037 35.6002C11.7935 35.6002 9.49634 36.4925 7.84407 38.2771C6.19602 40.0617 5.36988 42.6417 5.36988 46.0173V63.7875H0V31.5343H5.36145V36.1852C6.42362 34.4974 7.84407 33.2053 9.63544 32.3004C11.4226 31.3996 13.3952 30.9451 15.5575 30.9451C18.2677 30.9451 20.666 31.5554 22.7482 32.7675C24.8304 33.9839 26.3815 35.7685 27.4016 38.1213C28.3036 35.8485 29.7957 34.0807 31.8821 32.8265C33.9643 31.5722 36.2825 30.9451 38.8368 30.9451C41.3911 30.9451 43.5913 31.467 45.5555 32.5066Z" fill="#36276F"/>
<path d="M87.8659 49.6581H62.0534C62.2473 52.8358 63.3389 55.3191 65.3242 57.1037C67.3095 58.8883 69.7162 59.7806 72.5445 59.7806C74.8627 59.7806 76.7974 59.2419 78.3485 58.1644C79.8996 57.0869 80.9913 55.6432 81.6193 53.8376H87.3938C86.5297 56.9354 84.8016 59.4565 82.2094 61.4011C79.6172 63.3414 76.3927 64.3137 72.5445 64.3137C69.4802 64.3137 66.7404 63.6276 64.3253 62.2555C61.9101 60.8834 60.0133 58.9304 58.6392 56.4008C57.2652 53.8712 56.5781 50.9376 56.5781 47.6041C56.5781 44.2706 57.2441 41.3454 58.5802 38.8369C59.9164 36.3284 61.7921 34.3922 64.2072 33.0412C66.6224 31.6859 69.4001 31.0125 72.5445 31.0125C75.6888 31.0125 78.319 31.6817 80.6751 33.0117C83.0313 34.3459 84.848 36.181 86.1251 38.5128C87.4023 40.8488 88.0387 43.4836 88.0387 46.4298C88.0387 47.4526 87.9797 48.5301 87.8617 49.6665M81.143 40.0449C80.2368 38.5717 79.0102 37.4564 77.4591 36.6903C75.908 35.9243 74.1883 35.5413 72.3042 35.5413C69.594 35.5413 67.2842 36.4041 65.379 38.1298C63.4738 39.8555 62.3822 42.2503 62.1082 45.3102H82.5002C82.5002 43.2689 82.0492 41.5138 81.1472 40.0449" fill="#36276F"/>
<path d="M92.9904 38.8621C94.3265 36.3704 96.1643 34.4385 98.4994 33.0664C100.834 31.6943 103.46 31.0082 106.369 31.0082C108.881 31.0082 111.22 31.5891 113.382 32.7423C115.541 33.8998 117.193 35.4192 118.331 37.3048V20.2375H123.751V63.7833H118.331V57.7224C117.269 59.6459 115.701 61.2243 113.618 62.4575C111.536 63.6949 109.1 64.3094 106.31 64.3094C103.519 64.3094 100.839 63.6023 98.4994 62.1923C96.1601 60.7824 94.3265 58.7999 92.9904 56.2493C91.6542 53.6987 90.9883 50.7987 90.9883 47.541C90.9883 44.2833 91.6542 41.3538 92.9904 38.8621ZM116.856 41.2444C115.874 39.4388 114.546 38.0582 112.877 37.0944C111.208 36.1347 109.37 35.6507 107.368 35.6507C105.366 35.6507 103.536 36.1221 101.888 37.0607C100.236 38.0035 98.9209 39.3756 97.9388 41.1813C96.9567 42.9869 96.4678 45.104 96.4678 47.5368C96.4678 49.9696 96.9567 52.1582 97.9388 53.9807C98.9209 55.8032 100.236 57.1963 101.888 58.1602C103.536 59.124 105.366 59.6038 107.368 59.6038C109.37 59.6038 111.208 59.124 112.877 58.1602C114.546 57.2005 115.874 55.8074 116.856 53.9807C117.838 52.1582 118.327 50.0285 118.327 47.5957C118.327 45.1629 117.833 43.0458 116.856 41.2402" fill="#36276F"/>
<path d="M130.882 25.2377C130.174 24.5306 129.82 23.6677 129.82 22.6492C129.82 21.6306 130.174 20.7678 130.882 20.0607C131.591 19.3536 132.455 19 133.475 19C134.495 19 135.291 19.3536 135.978 20.0607C136.665 20.7678 137.011 21.6306 137.011 22.6492C137.011 23.6677 136.665 24.5306 135.978 25.2377C135.291 25.9448 134.457 26.2983 133.475 26.2983C132.493 26.2983 131.591 25.9448 130.882 25.2377ZM136.067 63.7832H130.705V31.5342H136.067V63.7832Z" fill="#36276F"/>
<path d="M148.101 62.9288C146.078 62.007 144.476 60.7528 143.296 59.1618C142.116 57.5708 141.488 55.7988 141.412 53.8375H148.367C148.485 55.2096 149.142 56.3586 150.339 57.2804C151.536 58.2021 153.041 58.6609 154.849 58.6609C156.658 58.6609 158.2 58.299 159.237 57.5708C160.278 56.8469 160.801 55.9125 160.801 54.7761C160.801 53.5597 160.219 52.659 159.06 52.0697C157.901 51.4805 156.063 50.8323 153.551 50.1294C151.115 49.4644 149.134 48.8162 147.6 48.1891C146.07 47.5619 144.742 46.6023 143.621 45.3059C142.5 44.0096 141.943 42.305 141.943 40.1879C141.943 38.4622 142.453 36.8838 143.473 35.4486C144.493 34.0175 145.96 32.8895 147.865 32.0646C149.77 31.2396 151.962 30.8271 154.436 30.8271C158.129 30.8271 161.104 31.7573 163.364 33.6219C165.623 35.4865 166.833 38.0244 166.989 41.2443H160.27C160.152 39.7922 159.562 38.6347 158.5 37.7719C157.437 36.9091 156.004 36.4756 154.196 36.4756C152.388 36.4756 151.073 36.8081 150.129 37.4773C149.185 38.1465 148.717 39.0262 148.717 40.1247C148.717 40.9875 149.029 41.7157 149.661 42.3007C150.289 42.89 151.056 43.3488 151.958 43.6813C152.86 44.0138 154.196 44.4389 155.966 44.9482C158.323 45.5753 160.257 46.2151 161.77 46.859C163.284 47.5072 164.59 48.4584 165.69 49.7127C166.79 50.967 167.36 52.6337 167.397 54.7129C167.397 56.5565 166.887 58.2064 165.867 59.6542C164.843 61.1063 163.402 62.2427 161.534 63.0677C159.667 63.8926 157.48 64.3051 154.963 64.3051C152.447 64.3051 150.12 63.8421 148.097 62.9204" fill="#45BBC9"/>
<path d="M217.973 32.4181C219.996 33.4788 221.586 35.0487 222.749 37.1279C223.908 39.2072 224.485 41.7199 224.485 44.662V63.7874H217.826V45.6637C217.826 42.7595 217.097 40.5372 215.647 38.9841C214.192 37.4352 212.207 36.6608 209.695 36.6608C207.183 36.6608 205.185 37.4352 203.714 38.9841C202.239 40.533 201.505 42.7595 201.505 45.6637V63.7874H194.846V45.6637C194.846 42.7595 194.121 40.5372 192.667 38.9841C191.212 37.4352 189.227 36.6608 186.715 36.6608C184.203 36.6608 182.205 37.4352 180.734 38.9841C179.263 40.533 178.525 42.7595 178.525 45.6637V63.7874H171.807V31.3575H178.525V35.0656C179.625 33.7313 181.021 32.6917 182.711 31.9467C184.401 31.2017 186.205 30.8271 188.131 30.8271C190.723 30.8271 193.042 31.3785 195.086 32.4728C197.13 33.5714 198.698 35.1624 199.798 37.2416C200.78 35.2802 202.31 33.7187 204.393 32.5612C206.475 31.4038 208.713 30.8271 211.111 30.8271C213.666 30.8271 215.954 31.3575 217.978 32.4139" fill="#45BBC9"/>
<path d="M231.537 38.7736C232.89 36.2651 234.736 34.3121 237.076 32.9189C239.411 31.5258 241.995 30.8313 244.827 30.8313C247.381 30.8313 249.611 31.3322 251.516 32.3297C253.421 33.3314 254.943 34.5773 256.081 36.0672V31.3616H262.859V63.7874H256.081V58.9639C254.943 60.496 253.392 61.7713 251.428 62.7898C249.463 63.8084 247.221 64.3177 244.709 64.3177C241.919 64.3177 239.364 63.6022 237.05 62.1711C234.732 60.7401 232.894 58.7408 231.541 56.1692C230.184 53.6017 229.51 50.6891 229.51 47.4314C229.51 44.1737 230.188 41.2905 231.541 38.782M254.703 41.7241C253.78 40.0742 252.57 38.8199 251.078 37.957C249.581 37.0942 247.971 36.6607 246.243 36.6607C244.515 36.6607 242.905 37.0816 241.413 37.9276C239.921 38.7736 238.711 40.0068 237.788 41.6357C236.865 43.2645 236.401 45.1964 236.401 47.4314C236.401 49.6663 236.861 51.6319 237.788 53.3155C238.711 55.0033 239.929 56.287 241.442 57.1709C242.956 58.0548 244.553 58.4967 246.243 58.4967C247.933 58.4967 249.581 58.0632 251.078 57.2046C252.57 56.3417 253.78 55.0748 254.703 53.4081C255.626 51.7414 256.085 49.7884 256.085 47.5534C256.085 45.3185 255.622 43.374 254.703 41.7283" fill="#45BBC9"/>
<path d="M279.34 32.2119C280.971 31.2901 282.906 30.8271 285.144 30.8271V37.7719H283.433C280.798 37.7719 278.809 38.4411 277.451 39.7712C276.094 41.1054 275.42 43.4203 275.42 46.7159V63.779H268.701V31.3575H275.42V36.0631C276.402 34.4132 277.709 33.1294 279.34 32.2077" fill="#45BBC9"/>
<path d="M309.446 75.665H306.517C305.143 75.665 304.169 75.2946 303.6 74.558C303.031 73.8215 302.744 72.6051 302.744 70.9089V48.5215H295.967V70.9089C295.967 75.3367 296.772 78.5397 298.382 80.5053C299.992 82.4751 302.31 83.46 305.337 83.46H309.467C309.126 82.2815 308.953 80.9598 308.953 79.4951C308.953 78.0304 309.122 76.814 309.446 75.665Z" fill="#37276E"/>
<path d="M310.331 84.7732C309.273 84.2176 308.439 83.4221 307.836 82.3867C307.229 81.3555 306.93 80.1391 306.93 78.7375C306.93 77.336 307.237 76.1448 307.849 75.1136C308.46 74.0825 309.299 73.287 310.356 72.7272C311.414 72.1716 312.611 71.8938 313.952 71.8938C315.292 71.8938 316.489 72.1716 317.547 72.7272C318.605 73.2828 319.44 74.0782 320.055 75.1136C320.666 76.149 320.974 77.357 320.974 78.7375C320.974 80.1181 320.666 81.3345 320.055 82.3741C319.444 83.4137 318.601 84.2134 317.535 84.769C316.468 85.3246 315.267 85.6023 313.931 85.6023C312.595 85.6023 311.393 85.3246 310.335 84.769M315.566 80.821C316.005 80.337 316.224 79.6383 316.224 78.7333C316.224 77.8284 316.005 77.1339 315.566 76.6583C315.128 76.1827 314.593 75.9428 313.952 75.9428C313.311 75.9428 312.784 76.1827 312.354 76.6583C311.924 77.1339 311.709 77.8284 311.709 78.7333C311.709 79.6383 311.916 80.3538 312.329 80.8336C312.742 81.3092 313.277 81.5491 313.931 81.5491C314.584 81.5491 315.128 81.305 315.566 80.821Z" fill="#37276E"/>
<path d="M256.675 80.6147H261.392V82.8875H253.805V68.5981H256.675V80.6147Z" fill="#45BBC9"/>
<path d="M263.412 69.7136C263.079 69.3937 262.91 68.9938 262.91 68.5182C262.91 68.0426 263.079 67.6428 263.412 67.3187C263.745 66.9988 264.166 66.8389 264.672 66.8389C265.178 66.8389 265.599 66.9988 265.932 67.3187C266.265 67.6386 266.434 68.0384 266.434 68.5182C266.434 68.9981 266.265 69.3937 265.932 69.7136C265.599 70.0335 265.178 70.1934 264.672 70.1934C264.166 70.1934 263.745 70.0335 263.412 69.7136ZM266.088 82.8876H263.218V71.5487H266.088V82.8876Z" fill="#45BBC9"/>
<path d="M273.648 80.2487L276.519 71.5488H279.571L275.368 82.8877H271.887L267.701 71.5488H270.778L273.648 80.2487Z" fill="#45BBC9"/>
<path d="M291.667 78.0769H283.364C283.431 78.8976 283.718 79.5374 284.224 80.0003C284.729 80.4633 285.349 80.6948 286.091 80.6948C287.157 80.6948 287.916 80.236 288.367 79.3227H291.461C291.132 80.4128 290.504 81.3135 289.577 82.0164C288.649 82.7193 287.507 83.0687 286.154 83.0687C285.062 83.0687 284.08 82.8246 283.212 82.3405C282.344 81.8565 281.669 81.1704 281.18 80.2823C280.696 79.3943 280.451 78.3715 280.451 77.2098C280.451 76.0481 280.691 75.0043 281.168 74.1204C281.644 73.2324 282.314 72.5505 283.178 72.0749C284.038 71.5993 285.029 71.3594 286.15 71.3594C287.271 71.3594 288.194 71.5909 289.05 72.0539C289.905 72.5168 290.567 73.1776 291.039 74.0278C291.511 74.8823 291.747 75.8587 291.747 76.9657C291.747 77.374 291.718 77.7444 291.663 78.0726M288.772 76.1492C288.759 75.4126 288.493 74.8233 287.971 74.3772C287.452 73.9353 286.816 73.7122 286.066 73.7122C285.353 73.7122 284.759 73.9268 284.27 74.3561C283.785 74.7855 283.486 75.3831 283.376 76.1492H288.767H288.772Z" fill="#45BBC9"/>
<path d="M328.953 69.3558C328.337 68.7245 327.326 68.7119 326.685 69.3264C326.053 69.9409 326.04 70.951 326.656 71.5908C330.913 75.9513 330.824 82.9592 326.457 87.2102C326.141 87.5174 325.977 87.9257 325.973 88.334C325.969 88.7423 326.12 89.1547 326.428 89.4662C327.043 90.0975 328.055 90.1102 328.696 89.4957C334.331 84.0156 334.445 74.979 328.953 69.3558Z" fill="#45BBC9"/>
<path d="M324.574 73.6195C323.958 72.9882 322.947 72.9755 322.306 73.59C321.674 74.2046 321.661 75.2147 322.276 75.8545C324.182 77.799 324.144 80.9347 322.188 82.8329C321.872 83.1402 321.707 83.5484 321.703 83.9567C321.699 84.365 321.851 84.7774 322.158 85.0889C322.774 85.7202 323.785 85.7329 324.418 85.1184C327.642 81.9953 327.705 76.8351 324.569 73.6195" fill="#45BBC9"/>
</g>
</g>
</g>
<path d="M9.12216 8.27273C9.12216 9.26989 8.94212 10.1316 8.58203 10.858C8.22195 11.5843 7.72798 12.1444 7.10014 12.5384C6.4723 12.9323 5.75521 13.1293 4.94886 13.1293C4.14252 13.1293 3.42543 12.9323 2.79759 12.5384C2.16974 12.1444 1.67578 11.5843 1.3157 10.858C0.955611 10.1316 0.775568 9.26989 0.775568 8.27273C0.775568 7.27557 0.955611 6.41383 1.3157 5.6875C1.67578 4.96117 2.16974 4.40104 2.79759 4.0071C3.42543 3.61316 4.14252 3.41619 4.94886 3.41619C5.75521 3.41619 6.4723 3.61316 7.10014 4.0071C7.72798 4.40104 8.22195 4.96117 8.58203 5.6875C8.94212 6.41383 9.12216 7.27557 9.12216 8.27273ZM8.01421 8.27273C8.01421 7.45407 7.87725 6.76314 7.60334 6.19993C7.33251 5.63672 6.96473 5.21046 6.5 4.92116C6.03835 4.63187 5.52131 4.48722 4.94886 4.48722C4.37642 4.48722 3.85784 4.63187 3.39311 4.92116C2.93146 5.21046 2.56368 5.63672 2.28977 6.19993C2.01894 6.76314 1.88352 7.45407 1.88352 8.27273C1.88352 9.09138 2.01894 9.78232 2.28977 10.3455C2.56368 10.9087 2.93146 11.335 3.39311 11.6243C3.85784 11.9136 4.37642 12.0582 4.94886 12.0582C5.52131 12.0582 6.03835 11.9136 6.5 11.6243C6.96473 11.335 7.33251 10.9087 7.60334 10.3455C7.87725 9.78232 8.01421 9.09138 8.01421 8.27273ZM10.8995 15.6591V5.90909H11.9521V7.03551H12.0813C12.1613 6.91241 12.2721 6.75544 12.4137 6.56463C12.5584 6.37074 12.7646 6.19839 13.0323 6.04759C13.3031 5.8937 13.6694 5.81676 14.131 5.81676C14.7281 5.81676 15.2544 5.96603 15.7099 6.26456C16.1654 6.56309 16.5208 6.98627 16.7763 7.53409C17.0317 8.08191 17.1594 8.72822 17.1594 9.47301C17.1594 10.224 17.0317 10.8749 16.7763 11.4258C16.5208 11.9736 16.1669 12.3983 15.7145 12.6999C15.2621 12.9985 14.7404 13.1477 14.1495 13.1477C13.694 13.1477 13.3293 13.0723 13.0554 12.9215C12.7815 12.7676 12.5707 12.5937 12.4229 12.3999C12.2752 12.2029 12.1613 12.0398 12.0813 11.9105H11.989V15.6591H10.8995ZM11.9705 9.45455C11.9705 9.99006 12.049 10.4625 12.206 10.8718C12.3629 11.2781 12.5922 11.5966 12.8938 11.8274C13.1954 12.0552 13.5647 12.169 14.0018 12.169C14.4573 12.169 14.8374 12.049 15.142 11.8089C15.4498 11.5658 15.6806 11.2396 15.8345 10.8303C15.9915 10.4179 16.07 9.95928 16.07 9.45455C16.07 8.95597 15.993 8.50663 15.8391 8.10653C15.6883 7.70336 15.459 7.38482 15.1513 7.15092C14.8466 6.91394 14.4634 6.79545 14.0018 6.79545C13.5586 6.79545 13.1862 6.90779 12.8846 7.13246C12.583 7.35405 12.3552 7.66489 12.2013 8.06499C12.0475 8.462 11.9705 8.92519 11.9705 9.45455ZM21.7944 13.1477C21.1112 13.1477 20.5218 12.9969 20.0263 12.6953C19.5339 12.3906 19.1538 11.9659 18.886 11.4212C18.6213 10.8733 18.489 10.2363 18.489 9.50994C18.489 8.78362 18.6213 8.14347 18.886 7.58949C19.1538 7.03243 19.5262 6.59848 20.0032 6.28764C20.4833 5.97372 21.0434 5.81676 21.6836 5.81676C22.0529 5.81676 22.4176 5.87831 22.7777 6.00142C23.1378 6.12453 23.4656 6.32457 23.761 6.60156C24.0565 6.87547 24.2919 7.23864 24.4673 7.69105C24.6428 8.14347 24.7305 8.70052 24.7305 9.36222V9.82386H19.2646V8.8821H23.6225C23.6225 8.48201 23.5425 8.125 23.3825 7.81108C23.2255 7.49716 23.0008 7.24941 22.7085 7.06783C22.4192 6.88625 22.0775 6.79545 21.6836 6.79545C21.2496 6.79545 20.8742 6.90317 20.5572 7.11861C20.2433 7.33097 20.0017 7.60795 19.8324 7.94957C19.6631 8.29119 19.5785 8.65743 19.5785 9.0483V9.67614C19.5785 10.2116 19.6708 10.6656 19.8555 11.038C20.0432 11.4073 20.3033 11.6889 20.6357 11.8828C20.968 12.0736 21.3543 12.169 21.7944 12.169C22.0806 12.169 22.3391 12.129 22.57 12.049C22.8039 11.9659 23.0054 11.8428 23.1747 11.6797C23.344 11.5135 23.4748 11.3073 23.5671 11.0611L24.6197 11.3565C24.5089 11.7135 24.3227 12.0275 24.0611 12.2983C23.7995 12.5661 23.4763 12.7753 23.0916 12.9261C22.7069 13.0739 22.2745 13.1477 21.7944 13.1477ZM26.3878 13V5.90909H27.4403V6.98011H27.5142C27.6435 6.62926 27.8774 6.34458 28.2159 6.12606C28.5545 5.90755 28.9361 5.79829 29.3608 5.79829C29.4408 5.79829 29.5408 5.79983 29.6609 5.80291C29.7809 5.80599 29.8717 5.81061 29.9332 5.81676V6.92472C29.8963 6.91548 29.8117 6.90163 29.6793 6.88317C29.5501 6.86162 29.4131 6.85085 29.2685 6.85085C28.9238 6.85085 28.616 6.92318 28.3452 7.06783C28.0774 7.2094 27.8651 7.40637 27.7081 7.65874C27.5542 7.90803 27.4773 8.19271 27.4773 8.51278V13H26.3878ZM33.3113 13.1662C32.862 13.1662 32.4542 13.0816 32.088 12.9123C31.7217 12.7399 31.4309 12.4922 31.2155 12.169C31 11.8428 30.8923 11.4489 30.8923 10.9872C30.8923 10.581 30.9723 10.2517 31.1324 9.99929C31.2924 9.74384 31.5063 9.5438 31.7741 9.39915C32.0418 9.2545 32.3373 9.14678 32.6604 9.07599C32.9867 9.00213 33.3144 8.94366 33.6437 8.90057C34.0746 8.84517 34.4239 8.80362 34.6917 8.77592C34.9625 8.74515 35.1595 8.69437 35.2826 8.62358C35.4088 8.55279 35.4719 8.42969 35.4719 8.25426V8.21733C35.4719 7.76184 35.3472 7.40791 35.0979 7.15554C34.8517 6.90317 34.4778 6.77699 33.9761 6.77699C33.456 6.77699 33.0482 6.89086 32.7528 7.11861C32.4573 7.34635 32.2496 7.58949 32.1295 7.84801L31.0954 7.47869C31.2801 7.04782 31.5263 6.71236 31.8341 6.4723C32.1449 6.22917 32.4835 6.0599 32.8497 5.96449C33.219 5.866 33.5822 5.81676 33.9392 5.81676C34.1669 5.81676 34.4285 5.84446 34.724 5.89986C35.0225 5.95218 35.3103 6.06143 35.5873 6.22763C35.8673 6.39382 36.0997 6.64465 36.2844 6.98011C36.469 7.31558 36.5613 7.76491 36.5613 8.32812V13H35.4719V12.0398H35.4165C35.3426 12.1937 35.2195 12.3583 35.0471 12.5337C34.8748 12.7092 34.6455 12.8584 34.3593 12.9815C34.0731 13.1046 33.7238 13.1662 33.3113 13.1662ZM33.4775 12.1875C33.9084 12.1875 34.2716 12.1029 34.567 11.9336C34.8656 11.7643 35.0902 11.5458 35.241 11.2781C35.3949 11.0103 35.4719 10.7287 35.4719 10.4332V9.43608C35.4257 9.49148 35.3241 9.54226 35.1672 9.58842C35.0133 9.63151 34.8348 9.66998 34.6317 9.70383C34.4316 9.73461 34.2362 9.76231 34.0454 9.78693C33.8576 9.80848 33.7053 9.82694 33.5883 9.84233C33.3052 9.87926 33.0405 9.93928 32.7943 10.0224C32.5512 10.1024 32.3542 10.224 32.2034 10.3871C32.0557 10.5471 31.9818 10.7656 31.9818 11.0426C31.9818 11.4212 32.1218 11.7074 32.4019 11.9013C32.685 12.0921 33.0436 12.1875 33.4775 12.1875ZM41.2275 13.1477C40.6365 13.1477 40.1149 12.9985 39.6625 12.6999C39.21 12.3983 38.8561 11.9736 38.6007 11.4258C38.3452 10.8749 38.2175 10.224 38.2175 9.47301C38.2175 8.72822 38.3452 8.08191 38.6007 7.53409C38.8561 6.98627 39.2116 6.56309 39.6671 6.26456C40.1226 5.96603 40.6489 5.81676 41.2459 5.81676C41.7076 5.81676 42.0723 5.8937 42.34 6.04759C42.6109 6.19839 42.8171 6.37074 42.9586 6.56463C43.1033 6.75544 43.2156 6.91241 43.2956 7.03551H43.388V3.54545H44.4775V13H43.4249V11.9105H43.2956C43.2156 12.0398 43.1017 12.2029 42.954 12.3999C42.8063 12.5937 42.5955 12.7676 42.3216 12.9215C42.0476 13.0723 41.6829 13.1477 41.2275 13.1477ZM41.3752 12.169C41.8122 12.169 42.1815 12.0552 42.4831 11.8274C42.7847 11.5966 43.014 11.2781 43.171 10.8718C43.3279 10.4625 43.4064 9.99006 43.4064 9.45455C43.4064 8.92519 43.3295 8.462 43.1756 8.06499C43.0217 7.66489 42.794 7.35405 42.4924 7.13246C42.1908 6.90779 41.8184 6.79545 41.3752 6.79545C40.9135 6.79545 40.5288 6.91394 40.2211 7.15092C39.9164 7.38482 39.6871 7.70336 39.5332 8.10653C39.3824 8.50663 39.307 8.95597 39.307 9.45455C39.307 9.95928 39.3839 10.4179 39.5378 10.8303C39.6948 11.2396 39.9256 11.5658 40.2303 11.8089C40.5381 12.049 40.9197 12.169 41.3752 12.169ZM49.5048 13.1477C48.8646 13.1477 48.303 12.9954 47.8198 12.6907C47.3397 12.386 46.9642 11.9598 46.6934 11.4119C46.4256 10.8641 46.2917 10.224 46.2917 9.49148C46.2917 8.75284 46.4256 8.10807 46.6934 7.55717C46.9642 7.00627 47.3397 6.57848 47.8198 6.27379C48.303 5.96911 48.8646 5.81676 49.5048 5.81676C50.1449 5.81676 50.7051 5.96911 51.1852 6.27379C51.6684 6.57848 52.0439 7.00627 52.3116 7.55717C52.5824 8.10807 52.7179 8.75284 52.7179 9.49148C52.7179 10.224 52.5824 10.8641 52.3116 11.4119C52.0439 11.9598 51.6684 12.386 51.1852 12.6907C50.7051 12.9954 50.1449 13.1477 49.5048 13.1477ZM49.5048 12.169C49.9911 12.169 50.3912 12.0444 50.7051 11.7951C51.019 11.5458 51.2514 11.218 51.4022 10.8118C51.553 10.4055 51.6284 9.96544 51.6284 9.49148C51.6284 9.01752 51.553 8.57588 51.4022 8.16655C51.2514 7.75722 51.019 7.42637 50.7051 7.17401C50.3912 6.92164 49.9911 6.79545 49.5048 6.79545C49.0185 6.79545 48.6184 6.92164 48.3045 7.17401C47.9906 7.42637 47.7582 7.75722 47.6074 8.16655C47.4566 8.57588 47.3812 9.01752 47.3812 9.49148C47.3812 9.96544 47.4566 10.4055 47.6074 10.8118C47.7582 11.218 47.9906 11.5458 48.3045 11.7951C48.6184 12.0444 49.0185 12.169 49.5048 12.169ZM58.0372 15.6591V5.90909H59.0898V7.03551H59.219C59.299 6.91241 59.4098 6.75544 59.5514 6.56463C59.6961 6.37074 59.9023 6.19839 60.17 6.04759C60.4408 5.8937 60.8071 5.81676 61.2687 5.81676C61.8658 5.81676 62.3921 5.96603 62.8476 6.26456C63.3031 6.56309 63.6585 6.98627 63.914 7.53409C64.1694 8.08191 64.2971 8.72822 64.2971 9.47301C64.2971 10.224 64.1694 10.8749 63.914 11.4258C63.6585 11.9736 63.3046 12.3983 62.8522 12.6999C62.3998 12.9985 61.8781 13.1477 61.2872 13.1477C60.8317 13.1477 60.467 13.0723 60.1931 12.9215C59.9192 12.7676 59.7084 12.5937 59.5606 12.3999C59.4129 12.2029 59.299 12.0398 59.219 11.9105H59.1267V15.6591H58.0372ZM59.1082 9.45455C59.1082 9.99006 59.1867 10.4625 59.3437 10.8718C59.5006 11.2781 59.7299 11.5966 60.0315 11.8274C60.3331 12.0552 60.7024 12.169 61.1395 12.169C61.595 12.169 61.9751 12.049 62.2797 11.8089C62.5875 11.5658 62.8183 11.2396 62.9722 10.8303C63.1292 10.4179 63.2077 9.95928 63.2077 9.45455C63.2077 8.95597 63.1307 8.50663 62.9768 8.10653C62.826 7.70336 62.5967 7.38482 62.289 7.15092C61.9843 6.91394 61.6011 6.79545 61.1395 6.79545C60.6963 6.79545 60.3239 6.90779 60.0223 7.13246C59.7207 7.35405 59.4929 7.66489 59.339 8.06499C59.1852 8.462 59.1082 8.92519 59.1082 9.45455ZM68.8398 13.1477C68.1996 13.1477 67.6379 12.9954 67.1547 12.6907C66.6746 12.386 66.2992 11.9598 66.0283 11.4119C65.7606 10.8641 65.6267 10.224 65.6267 9.49148C65.6267 8.75284 65.7606 8.10807 66.0283 7.55717C66.2992 7.00627 66.6746 6.57848 67.1547 6.27379C67.6379 5.96911 68.1996 5.81676 68.8398 5.81676C69.4799 5.81676 70.04 5.96911 70.5202 6.27379C71.0033 6.57848 71.3788 7.00627 71.6466 7.55717C71.9174 8.10807 72.0528 8.75284 72.0528 9.49148C72.0528 10.224 71.9174 10.8641 71.6466 11.4119C71.3788 11.9598 71.0033 12.386 70.5202 12.6907C70.04 12.9954 69.4799 13.1477 68.8398 13.1477ZM68.8398 12.169C69.326 12.169 69.7261 12.0444 70.04 11.7951C70.354 11.5458 70.5863 11.218 70.7371 10.8118C70.8879 10.4055 70.9633 9.96544 70.9633 9.49148C70.9633 9.01752 70.8879 8.57588 70.7371 8.16655C70.5863 7.75722 70.354 7.42637 70.04 7.17401C69.7261 6.92164 69.326 6.79545 68.8398 6.79545C68.3535 6.79545 67.9534 6.92164 67.6395 7.17401C67.3256 7.42637 67.0932 7.75722 66.9424 8.16655C66.7916 8.57588 66.7162 9.01752 66.7162 9.49148C66.7162 9.96544 66.7916 10.4055 66.9424 10.8118C67.0932 11.218 67.3256 11.5458 67.6395 11.7951C67.9534 12.0444 68.3535 12.169 68.8398 12.169ZM73.7159 13V5.90909H74.7685V6.98011H74.8423C74.9716 6.62926 75.2055 6.34458 75.544 6.12606C75.8826 5.90755 76.2642 5.79829 76.6889 5.79829C76.7689 5.79829 76.869 5.79983 76.989 5.80291C77.109 5.80599 77.1998 5.81061 77.2614 5.81676V6.92472C77.2244 6.91548 77.1398 6.90163 77.0075 6.88317C76.8782 6.86162 76.7412 6.85085 76.5966 6.85085C76.2519 6.85085 75.9441 6.92318 75.6733 7.06783C75.4055 7.2094 75.1932 7.40637 75.0362 7.65874C74.8823 7.90803 74.8054 8.19271 74.8054 8.51278V13H73.7159ZM79.3469 13.0739C79.1191 13.0739 78.9237 12.9923 78.7606 12.8292C78.5974 12.6661 78.5159 12.4706 78.5159 12.2429C78.5159 12.0152 78.5974 11.8197 78.7606 11.6566C78.9237 11.4935 79.1191 11.4119 79.3469 11.4119C79.5746 11.4119 79.77 11.4935 79.9331 11.6566C80.0963 11.8197 80.1778 12.0152 80.1778 12.2429C80.1778 12.3937 80.1394 12.5322 80.0624 12.6584C79.9885 12.7846 79.8885 12.8861 79.7623 12.9631C79.6392 13.0369 79.5007 13.0739 79.3469 13.0739ZM79.3469 7.81108C79.1191 7.81108 78.9237 7.72952 78.7606 7.56641C78.5974 7.40329 78.5159 7.20786 78.5159 6.98011C78.5159 6.75237 78.5974 6.55694 78.7606 6.39382C78.9237 6.23071 79.1191 6.14915 79.3469 6.14915C79.5746 6.14915 79.77 6.23071 79.9331 6.39382C80.0963 6.55694 80.1778 6.75237 80.1778 6.98011C80.1778 7.13092 80.1394 7.26941 80.0624 7.3956C79.9885 7.52178 79.8885 7.62334 79.7623 7.70028C79.6392 7.77415 79.5007 7.81108 79.3469 7.81108Z" fill="#37276E"/>
<defs>
<clipPath id="clip0_9_6144">
<rect width="333" height="73" fill="white" transform="translate(0 19)"/>
</clipPath>
</defs>
</svg>
