<svg width="17" height="16" viewBox="0 0 17 16" fill="none" xmlns="http://www.w3.org/2000/svg">
<path d="M16.5296 8C16.5296 12.4183 13.0281 16 8.70877 16C4.38943 16 0.887939 12.4183 0.887939 8C0.887939 3.58171 4.38943 0 8.70877 0C13.0281 0 16.5296 3.58171 16.5296 8ZM7.80414 12.2359L13.6067 6.30045C13.8037 6.0989 13.8037 5.7721 13.6067 5.57055L12.8931 4.84064C12.6961 4.63906 12.3766 4.63906 12.1796 4.84064L7.44735 9.68123L5.23799 7.42126C5.04096 7.21971 4.72147 7.21971 4.52441 7.42126L3.81085 8.15116C3.61382 8.35271 3.61382 8.67952 3.81085 8.88106L7.09055 12.2359C7.28762 12.4375 7.60708 12.4375 7.80414 12.2359Z" fill="#0090DA"/>
</svg>
