<svg width="114" height="101" viewBox="0 0 114 101" fill="none" xmlns="http://www.w3.org/2000/svg">
<path d="M5.30322 98.3887H2.47803L1.94092 100H0.227539L3.13867 92.1797H4.63184L7.55908 100H5.8457L5.30322 98.3887ZM2.91309 97.0835H4.86816L3.88525 94.1562L2.91309 97.0835ZM13.5317 93.4849H11.1362V100H9.5249V93.4849H7.16162V92.1797H13.5317V93.4849ZM19.1606 96.6108H16.0669V98.7056H19.6978V100H14.4556V92.1797H19.687V93.4849H16.0669V95.3486H19.1606V96.6108ZM27.0024 100H25.3911L22.2544 94.8545V100H20.6431V92.1797H22.2544L25.3965 97.3359V92.1797H27.0024V100ZM34.5488 97.395C34.488 98.2365 34.1764 98.8989 33.6143 99.3823C33.0557 99.8657 32.318 100.107 31.4014 100.107C30.3988 100.107 29.6092 99.7708 29.0327 99.0977C28.4598 98.4209 28.1733 97.4935 28.1733 96.3154V95.8374C28.1733 95.0854 28.3058 94.423 28.5708 93.8501C28.8358 93.2772 29.2135 92.8385 29.7041 92.5342C30.1982 92.2262 30.7712 92.0723 31.4229 92.0723C32.3252 92.0723 33.0521 92.314 33.6035 92.7974C34.1549 93.2808 34.4736 93.9593 34.5596 94.833H32.9482C32.9089 94.3281 32.7674 93.9629 32.5239 93.7373C32.284 93.5081 31.917 93.3936 31.4229 93.3936C30.8857 93.3936 30.4829 93.5869 30.2144 93.9736C29.9494 94.3568 29.8133 94.953 29.8062 95.7622V96.353C29.8062 97.1981 29.9333 97.8158 30.1875 98.2061C30.4453 98.5964 30.8499 98.7915 31.4014 98.7915C31.8991 98.7915 32.2697 98.6787 32.5132 98.4531C32.7603 98.224 32.9017 97.8713 32.9375 97.395H34.5488ZM37.3203 100H35.709V92.1797H37.3203V100ZM45.2427 96.2671C45.2427 97.0369 45.1066 97.7119 44.8345 98.292C44.5623 98.8721 44.172 99.3197 43.6636 99.6348C43.1587 99.9499 42.5786 100.107 41.9233 100.107C41.2752 100.107 40.6969 99.9517 40.1885 99.6401C39.68 99.3286 39.2861 98.8846 39.0068 98.3081C38.7275 97.728 38.5861 97.062 38.5825 96.3101V95.9233C38.5825 95.1535 38.7204 94.4767 38.9961 93.8931C39.2754 93.3058 39.6675 92.8564 40.1724 92.5449C40.6808 92.2298 41.2609 92.0723 41.9126 92.0723C42.5643 92.0723 43.1426 92.2298 43.6475 92.5449C44.1559 92.8564 44.548 93.3058 44.8237 93.8931C45.103 94.4767 45.2427 95.1517 45.2427 95.918V96.2671ZM43.6099 95.9126C43.6099 95.0926 43.4631 94.4696 43.1694 94.0435C42.8758 93.6174 42.4569 93.4043 41.9126 93.4043C41.3719 93.4043 40.9548 93.6156 40.6611 94.0381C40.3675 94.457 40.2189 95.0729 40.2153 95.8857V96.2671C40.2153 97.0656 40.3621 97.6851 40.6558 98.1255C40.9494 98.5659 41.3719 98.7861 41.9233 98.7861C42.464 98.7861 42.8794 98.5749 43.1694 98.1523C43.4595 97.7262 43.6063 97.1068 43.6099 96.2939V95.9126ZM42.2241 90.085H43.916L42.4282 91.75H41.166L42.2241 90.085ZM52.7729 100H51.1616L48.0249 94.8545V100H46.4136V92.1797H48.0249L51.167 97.3359V92.1797H52.7729V100ZM58.6328 100H57.0215V92.1797H58.6328V100ZM66.4907 100H64.8794L61.7427 94.8545V100H60.1313V92.1797H61.7427L64.8848 97.3359V92.1797H66.4907V100ZM70.0034 92.1797L72.0122 97.8516L74.0103 92.1797H76.1265V100H74.5098V97.8623L74.6709 94.1724L72.5601 100H71.4536L69.3481 94.1777L69.5093 97.8623V100H67.8979V92.1797H70.0034ZM82.2388 96.6108H79.145V98.7056H82.7759V100H77.5337V92.1797H82.7651V93.4849H79.145V95.3486H82.2388V96.6108ZM83.7212 100V92.1797H86.1274C86.8149 92.1797 87.429 92.3354 87.9697 92.647C88.514 92.9549 88.9383 93.3953 89.2427 93.9683C89.547 94.5376 89.6992 95.1857 89.6992 95.9126V96.2725C89.6992 96.9993 89.5488 97.6457 89.248 98.2114C88.9508 98.7772 88.5301 99.2158 87.9858 99.5273C87.4416 99.8389 86.8275 99.9964 86.1436 100H83.7212ZM85.3325 93.4849V98.7056H86.1113C86.7415 98.7056 87.2231 98.4997 87.5562 98.0879C87.8892 97.6761 88.0592 97.0871 88.0664 96.3208V95.9072C88.0664 95.1123 87.9017 94.5107 87.5723 94.1025C87.2428 93.6908 86.7612 93.4849 86.1274 93.4849H85.3325ZM92.5889 100H90.9775V92.1797H92.5889V100ZM98.5991 98.3887H95.7739L95.2368 100H93.5234L96.4346 92.1797H97.9277L100.855 100H99.1416L98.5991 98.3887ZM96.209 97.0835H98.1641L97.1812 94.1562L96.209 97.0835ZM106.828 93.4849H104.432V100H102.821V93.4849H100.458V92.1797H106.828V93.4849ZM111.522 98.3887H108.697L108.16 100H106.446L109.357 92.1797H110.851L113.778 100H112.064L111.522 98.3887ZM109.132 97.0835H111.087L110.104 94.1562L109.132 97.0835Z" fill="#009740"/>
<path d="M56.5 36C66.3438 36 74.5 27.9844 74.5 18C74.5 8.15625 66.3438 0 56.5 0C46.5156 0 38.5 8.15625 38.5 18C38.5 27.9844 46.5156 36 56.5 36ZM56.5 4.5C63.8125 4.5 70 10.6875 70 18C70 25.4531 63.8125 31.5 56.5 31.5C49.0469 31.5 43 25.4531 43 18C43 10.6875 49.0469 4.5 56.5 4.5ZM69.5781 40.6406C64.7969 40.5 63.3906 42.75 56.5 42.75C49.4688 42.75 48.0625 40.5 43.2812 40.6406C33.1562 40.9219 25 49.2188 25 59.4844V70.875C25 71.5781 25.4219 72 26.125 72H28.375C28.9375 72 29.5 71.5781 29.5 70.875V59.4844C29.5 51.8906 35.4062 45.5625 43 45.1406V56.6719C39.625 57.6562 37.375 60.6094 37.375 64.125C37.375 68.4844 40.8906 72 45.25 72C49.4688 72 53.125 68.4844 53.125 64.125C53.125 60.6094 50.7344 57.6562 47.5 56.6719V45.8438C50.3125 46.8281 53.4062 47.25 56.5 47.25C59.4531 47.25 62.5469 46.8281 65.5 45.8438V55.5469C61.4219 56.5312 58.75 60.3281 58.75 64.5469V68.625C58.75 69.3281 58.8906 69.8906 59.3125 70.3125L60.8594 71.7188C61.2812 72.1406 61.9844 72.1406 62.4062 71.7188L63.9531 70.1719C64.375 69.75 64.375 69.0469 63.9531 68.4844L63.1094 67.7812V64.125C63.1094 61.4531 65.6406 59.3438 68.4531 59.7656C70.7031 60.0469 72.1094 62.1562 72.1094 64.4062V67.7812L71.4062 68.4844C70.9844 69.0469 70.9844 69.75 71.4062 70.1719L72.9531 71.7188C73.375 72.1406 74.0781 72.1406 74.5 71.7188L76.0469 70.3125C76.4688 69.8906 76.6094 69.3281 76.6094 68.625V64.125C76.6094 60.0469 73.7969 56.5312 69.8594 55.5469V45.1406C77.4531 45.7031 83.3594 51.8906 83.3594 59.4844V70.875C83.3594 71.5781 83.9219 72 84.4844 72H86.7344C87.4375 72 87.8594 71.5781 87.8594 70.875V59.4844C88 49.2188 79.8438 40.9219 69.5781 40.6406ZM48.625 64.125C48.625 66.0938 47.0781 67.5 45.25 67.5C43.2812 67.5 41.875 66.0938 41.875 64.125C41.875 62.2969 43.2812 60.75 45.25 60.75C47.0781 60.75 48.625 62.2969 48.625 64.125Z" fill="#009740"/>
</svg>
