<svg width="93" height="87" viewBox="0 0 93 87" fill="none" xmlns="http://www.w3.org/2000/svg">
<g clip-path="url(#clip0_7_188)">
<path d="M75.55 46.65C76.8092 46.65 77.83 45.6292 77.83 44.37C77.83 43.1108 76.8092 42.09 75.55 42.09C74.2908 42.09 73.27 43.1108 73.27 44.37C73.27 45.6292 74.2908 46.65 75.55 46.65Z" fill="#009740"/>
<path d="M44.0001 28.8C51.2626 28.8 57.1501 22.9125 57.1501 15.65C57.1501 8.38745 51.2626 2.5 44.0001 2.5C36.7376 2.5 30.8501 8.38745 30.8501 15.65C30.8501 22.9125 36.7376 28.8 44.0001 28.8Z" stroke="#009740" stroke-width="5" stroke-miterlimit="10"/>
<path d="M23.4001 39.27C23.4001 39.27 43.9901 28.81 66.7801 39.27" stroke="#009740" stroke-width="5" stroke-miterlimit="10"/>
<path d="M6.56006 48.69C6.56006 48.69 -0.429936 52.62 3.94006 58.3C8.31006 63.98 8.75006 63.98 27.9801 56.11V73.15" stroke="#009740" stroke-width="5" stroke-miterlimit="10"/>
<path d="M84.2301 48.69C84.2301 48.69 91.2201 52.62 86.8501 58.3C82.4801 63.98 82.0401 63.98 62.8101 56.11V73.15" stroke="#009740" stroke-width="5" stroke-miterlimit="10"/>
<path d="M14.24 46.65C15.4992 46.65 16.52 45.6292 16.52 44.37C16.52 43.1108 15.4992 42.09 14.24 42.09C12.9808 42.09 11.96 43.1108 11.96 44.37C11.96 45.6292 12.9808 46.65 14.24 46.65Z" fill="#009740"/>
<path d="M38.29 54.54C39.5492 54.54 40.57 53.5192 40.57 52.26C40.57 51.0008 39.5492 49.98 38.29 49.98C37.0308 49.98 36.01 51.0008 36.01 52.26C36.01 53.5192 37.0308 54.54 38.29 54.54Z" fill="#009740"/>
<path d="M52.0002 68.07C53.2594 68.07 54.2802 67.0492 54.2802 65.79C54.2802 64.5308 53.2594 63.51 52.0002 63.51C50.741 63.51 49.7202 64.5308 49.7202 65.79C49.7202 67.0492 50.741 68.07 52.0002 68.07Z" fill="#009740"/>
<path d="M0.0900879 80H92.0901" stroke="#009740" stroke-width="4" stroke-miterlimit="10"/>
</g>
<defs>
<clipPath id="clip0_7_188">
<rect width="92.09" height="86.77" fill="white"/>
</clipPath>
</defs>
</svg>
