<svg width="90" height="73" viewBox="0 0 90 73" fill="none" xmlns="http://www.w3.org/2000/svg">
<path d="M87.083 7.45142C90.193 41.7898 66.7607 35.8018 63.257 36.1455L57.9364 42.4752L57.7671 40.6058L62.4045 35.0971C61.85 32.3194 59.1253 26.3697 63.6566 19.4498C68.1865 12.5156 74.3456 12.3375 87.083 7.45142ZM84.3097 13.4706C85.668 9.74965 83.6174 13.1545 83.6174 13.1545C81.6787 16.6002 78.7724 18.3626 75.6234 20.3926C71.5199 23.0355 66.1393 26.9499 64.5599 31.8135C62.9792 36.6627 63.888 34.3509 65.2073 32.1915C66.541 30.0308 70.9899 26.7417 73.9333 24.8311C78.0212 22.1751 82.0244 19.7005 84.3097 13.4706Z" fill="white"/>
<path d="M55.1517 20.2663C55.1517 30.0184 47.0311 38.0325 36.8971 38.0325C26.7631 38.0325 18.6425 30.0184 18.6425 20.2663C18.6425 10.5141 26.7631 2.5 36.8971 2.5C47.0311 2.5 55.1517 10.5141 55.1517 20.2663ZM36.8971 49.7879C40.8155 49.7879 44.5476 48.9744 47.9263 47.5361H55.3456C64.2113 47.5361 71.2942 54.5369 71.2942 63.0506V65.3024C71.2942 67.5955 69.3711 69.5578 66.876 69.5578H6.9182C4.42304 69.5578 2.5 67.5955 2.5 65.3024V63.0506C2.5 54.5369 9.58287 47.5361 18.4485 47.5361H25.8697C29.2566 48.9731 32.9754 49.7879 36.8971 49.7879Z" stroke="white" stroke-width="5"/>
</svg>
