<svg width="54" height="54" viewBox="0 0 54 54" fill="none" xmlns="http://www.w3.org/2000/svg">
<path d="M24.75 5.75C11.4919 5.75 0.75 16.5887 0.75 29.75C0.75 43.0081 11.4919 53.75 24.75 53.75C37.9113 53.75 48.75 43.0081 48.75 29.75C48.75 16.5887 37.9113 5.75 24.75 5.75ZM24.75 50.6532C13.2339 50.6532 3.84677 41.3629 3.84677 29.75C3.84677 18.3306 13.1371 8.84677 24.75 8.84677C36.1694 8.84677 45.6532 18.2339 45.6532 29.75C45.6532 41.2661 36.2661 50.6532 24.75 50.6532ZM38.3952 24.1371C38.879 23.6532 38.879 22.879 38.3952 22.4919L37.621 21.621C37.1371 21.1371 36.3629 21.1371 35.9758 21.621L20.1048 37.2984L13.4274 30.621C13.0403 30.1371 12.2661 30.1371 11.7823 30.621L11.0081 31.3952C10.5242 31.879 10.5242 32.5565 11.0081 33.0403L19.3306 41.4597C19.7177 41.8468 20.4919 41.8468 20.9758 41.4597L38.3952 24.1371Z" fill="#0282A6"/>
<circle cx="42" cy="12" r="12" fill="#0282A6"/>
<path d="M48.9062 5.875L40.1562 14.625L37.0625 11.5312C36.9062 11.4062 36.6875 11.4062 36.5312 11.5312L36.1875 11.9062C36.0312 12.0312 36.0312 12.2812 36.1875 12.4375L39.9062 16.1562C40.0312 16.2812 40.2812 16.2812 40.4062 16.1562L49.7812 6.78125C49.9375 6.625 49.9375 6.375 49.7812 6.25L49.4375 5.875C49.2812 5.75 49.0625 5.75 48.9062 5.875Z" fill="white"/>
</svg>
