<svg width="58" height="53" viewBox="0 0 58 53" fill="none" xmlns="http://www.w3.org/2000/svg">
<path fill-rule="evenodd" clip-rule="evenodd" d="M2.88611 6.57996V50.6075H46.9137V6.57996H2.88611ZM2.55507 4.59375C1.64095 4.59375 0.899902 5.3348 0.899902 6.24892V50.9386C0.899902 51.8527 1.64095 52.5937 2.55508 52.5937H47.2447C48.1589 52.5937 48.8999 51.8527 48.8999 50.9386V6.24892C48.8999 5.3348 48.1589 4.59375 47.2447 4.59375H2.55507Z" fill="#47BCCA"/>
<path fill-rule="evenodd" clip-rule="evenodd" d="M41.1212 10.3867C42.2182 10.3867 43.1074 11.276 43.1074 12.3729L43.1074 17.6695C43.1074 18.218 42.6628 18.6626 42.1143 18.6626C41.5658 18.6626 41.1212 18.218 41.1212 17.6695L41.1212 12.3729L35.8247 12.3729C35.2762 12.3729 34.8316 11.9283 34.8316 11.3798C34.8316 10.8313 35.2762 10.3867 35.8247 10.3867L41.1212 10.3867Z" fill="#47BCCA"/>
<path fill-rule="evenodd" clip-rule="evenodd" d="M7.18945 12.3729C7.18945 11.276 8.07871 10.3867 9.17566 10.3867H14.4722C15.0207 10.3867 15.4653 10.8313 15.4653 11.3798C15.4653 11.9283 15.0207 12.3729 14.4722 12.3729H9.17566V17.6695C9.17566 18.218 8.73103 18.6626 8.18256 18.6626C7.63408 18.6626 7.18945 18.218 7.18945 17.6695V12.3729Z" fill="#47BCCA"/>
<path fill-rule="evenodd" clip-rule="evenodd" d="M9.17566 46.9663C8.07871 46.9663 7.18945 46.0771 7.18945 44.9801L7.18945 39.6836C7.18945 39.1351 7.63408 38.6904 8.18256 38.6904C8.73103 38.6904 9.17566 39.1351 9.17566 39.6836L9.17566 44.9801L14.4722 44.9801C15.0207 44.9801 15.4653 45.4247 15.4653 45.9732C15.4653 46.5217 15.0207 46.9663 14.4722 46.9663L9.17566 46.9663Z" fill="#47BCCA"/>
<path fill-rule="evenodd" clip-rule="evenodd" d="M43.1074 44.9801C43.1074 46.0771 42.2182 46.9663 41.1212 46.9663L35.8247 46.9663C35.2762 46.9663 34.8316 46.5217 34.8316 45.9732C34.8316 45.4247 35.2762 44.9801 35.8247 44.9801L41.1212 44.9801L41.1212 39.6835C41.1212 39.1351 41.5658 38.6904 42.1143 38.6904C42.6628 38.6904 43.1074 39.1351 43.1074 39.6836L43.1074 44.9801Z" fill="#47BCCA"/>
<path d="M37.8157 28.5932C29.5185 36.6067 21.2212 36.6067 12.9224 28.5932C21.2196 20.5796 29.5169 20.5796 37.8157 28.5932Z" fill="#F9F8F7"/>
<path d="M25.3698 35.3805C21.034 35.3805 16.6983 33.3008 12.3932 29.143L11.8242 28.5939L12.3932 28.0449C21.0034 19.7292 29.7362 19.7292 38.3464 28.0449L38.9154 28.5939L38.3464 29.143C34.0413 33.3008 29.7055 35.3805 25.3698 35.3805V35.3805ZM14.0358 28.5939C21.6552 35.606 29.0844 35.606 36.7038 28.5939C29.0844 21.5819 21.6552 21.5819 14.0358 28.5939Z" fill="#47BCCA"/>
<path d="M25.3697 32.946C27.7736 32.946 29.7223 30.9972 29.7223 28.5933C29.7223 26.1895 27.7736 24.2407 25.3697 24.2407C22.9658 24.2407 21.0171 26.1895 21.0171 28.5933C21.0171 30.9972 22.9658 32.946 25.3697 32.946Z" fill="#47BCCA"/>
<path d="M24.2313 27.9581C24.8598 27.9581 25.3693 27.4486 25.3693 26.8201C25.3693 26.1916 24.8598 25.6821 24.2313 25.6821C23.6028 25.6821 23.0933 26.1916 23.0933 26.8201C23.0933 27.4486 23.6028 27.9581 24.2313 27.9581Z" fill="white"/>
<circle cx="46" cy="12" r="12" fill="#0282A6"/>
<path d="M52.9062 5.875L44.1562 14.625L41.0625 11.5312C40.9062 11.4062 40.6875 11.4062 40.5312 11.5312L40.1875 11.9062C40.0312 12.0312 40.0312 12.2812 40.1875 12.4375L43.9062 16.1562C44.0312 16.2812 44.2812 16.2812 44.4062 16.1562L53.7812 6.78125C53.9375 6.625 53.9375 6.375 53.7812 6.25L53.4375 5.875C53.2812 5.75 53.0625 5.75 52.9062 5.875Z" fill="white"/>
</svg>
