<svg width="1440" height="2552" viewBox="0 0 1440 2552" fill="none" xmlns="http://www.w3.org/2000/svg">
<g opacity="0.2">
<path d="M1718.57 2182.43C1718.57 2182.43 2263.96 2580.3 1114.71 1913.75C-34.5483 1247.21 -189.509 1646.83 -191.368 1923.49C-193.284 2200.17 720.11 501.278 1688.82 1320.08C2657.53 2138.88 657.15 1615.13 545.928 1916.99C434.646 2218.82 1718.57 2182.43 1718.57 2182.43Z" stroke="#5E5384" stroke-opacity="0.5" stroke-width="1.12318" stroke-miterlimit="10"/>
<path d="M1709.57 2176.03C1713.9 2176.6 2231.63 2561.83 1111.08 1898.14C-9.46613 1234.45 -180.443 1640.3 -178.115 1915.49C-175.787 2190.67 733.987 501.246 1693.13 1311.97C2652.28 2122.69 680.437 1601.85 554.508 1905.79C428.579 2209.72 1705.28 2175.43 1709.57 2176.03Z" stroke="#5E5384" stroke-opacity="0.5" stroke-width="1.12318" stroke-miterlimit="10"/>
<path d="M1700.61 2169.54C1709.23 2170.72 2199.35 2543.29 1107.5 1882.42C15.6559 1221.55 -171.333 1633.67 -164.819 1907.38C-158.304 2181.09 747.915 501.177 1697.43 1303.77C2646.95 2106.36 703.768 1588.47 563.083 1894.56C422.397 2200.64 1691.99 2168.39 1700.61 2169.54Z" stroke="#5E5384" stroke-opacity="0.5" stroke-width="1.12318" stroke-miterlimit="10"/>
<path d="M1691.65 2163.01C1704.6 2164.76 2167.01 2524.73 1103.92 1866.68C40.8322 1208.63 -162.226 1627.01 -151.467 1899.23C-140.709 2171.45 761.838 501.044 1701.78 1295.53C2641.73 2090.01 727.097 1575.06 571.764 1883.25C416.432 2191.44 1678.75 2161.26 1691.65 2163.01Z" stroke="#5E5384" stroke-opacity="0.5" stroke-width="1.12318" stroke-miterlimit="10"/>
<path d="M1682.68 2156.43C1699.91 2158.78 2134.71 2506.1 1100.33 1850.87C65.9432 1195.64 -153.127 1620.29 -138.182 1891.03C-123.237 2161.77 775.809 500.844 1706.13 1287.22C2636.45 2073.6 750.417 1561.58 580.38 1871.89C410.344 2182.2 1665.44 2154.07 1682.68 2156.43Z" stroke="#5E5384" stroke-opacity="0.5" stroke-width="1.12318" stroke-miterlimit="10"/>
<path d="M1673.75 2149.77C1695.33 2152.7 2102.47 2487.4 1096.73 1835C90.9899 1182.6 -144.036 1613.51 -124.904 1882.77C-105.772 2152.03 789.711 500.558 1710.46 1278.83C2631.21 2057.1 773.725 1548.02 588.985 1860.44C404.245 2172.86 1652.18 2146.84 1673.75 2149.77Z" stroke="#5E5384" stroke-opacity="0.5" stroke-width="1.12318" stroke-miterlimit="10"/>
<path d="M1664.77 2143.03C1690.67 2146.52 2070.1 2468.63 1093.12 1819.04C116.138 1169.46 -134.96 1606.6 -111.581 1874.41C-88.2052 2142.18 803.609 500.241 1714.79 1270.4C2625.97 2040.56 797.086 1534.41 597.586 1848.95C398.086 2163.49 1638.91 2139.52 1664.77 2143.03Z" stroke="#5E5384" stroke-opacity="0.5" stroke-width="1.12318" stroke-miterlimit="10"/>
<path d="M1655.83 2136.22C1686.02 2140.32 2037.84 2449.77 1089.56 1803.01C141.279 1156.25 -125.832 1599.66 -98.265 1865.98C-70.6984 2132.31 817.606 499.786 1719.16 1261.84C2620.72 2023.9 820.432 1520.68 606.289 1837.36C392.146 2154.04 1625.63 2132.11 1655.83 2136.22Z" stroke="#5E5384" stroke-opacity="0.5" stroke-width="1.12318" stroke-miterlimit="10"/>
<path d="M1646.88 2129.34C1681.4 2134.02 2005.51 2430.86 1085.99 1786.92C166.467 1142.97 -116.769 1592.66 -84.9587 1857.5C-53.1526 2122.31 831.488 499.346 1723.47 1253.3C2615.46 2007.25 843.716 1506.93 614.873 1825.75C386.031 2144.58 1612.34 2124.64 1646.88 2129.34Z" stroke="#5E5384" stroke-opacity="0.5" stroke-width="1.12318" stroke-miterlimit="10"/>
<path d="M1637.91 2122.38C1676.73 2127.66 1973.22 2411.83 1082.4 1770.73C191.592 1129.64 -107.66 1585.56 -71.6066 1848.91C-35.5529 2112.26 845.46 498.706 1727.82 1244.55C2610.18 1990.4 867.037 1493.02 623.491 1813.95C379.945 2134.89 1599.1 2117.1 1637.91 2122.38Z" stroke="#5E5384" stroke-opacity="0.5" stroke-width="1.12318" stroke-miterlimit="10"/>
<path d="M1629 2115.31C1672.15 2121.17 1940.98 2392.72 1078.81 1754.46C216.644 1116.2 -98.5641 1578.37 -58.3274 1840.21C-18.0907 2102.05 859.371 498.042 1732.16 1235.78C2604.96 1973.52 890.411 1479.07 632.105 1802.12C373.798 2125.18 1585.85 2109.46 1629 2115.31Z" stroke="#5E5384" stroke-opacity="0.5" stroke-width="1.12318" stroke-miterlimit="10"/>
<path d="M1620.07 2108.16C1667.49 2114.59 1908.67 2373.53 1075.26 1738.08C241.852 1102.64 -89.4252 1571.08 -44.9449 1831.43C-0.464573 2091.79 873.382 497.272 1736.55 1226.91C2599.71 1956.55 913.771 1465.02 640.818 1790.19C367.865 2115.35 1572.64 2101.73 1620.07 2108.16Z" stroke="#5E5384" stroke-opacity="0.5" stroke-width="1.12318" stroke-miterlimit="10"/>
<path d="M1611.19 2100.9C1662.95 2107.93 1876.46 2354.23 1071.76 1721.6C267.05 1088.98 -80.239 1563.69 -31.5717 1822.56C17.0955 2081.44 887.383 496.409 1740.98 1217.94C2594.58 1939.46 937.179 1450.88 649.522 1778.16C361.865 2105.43 1559.42 2093.9 1611.19 2100.9Z" stroke="#5E5384" stroke-opacity="0.5" stroke-width="1.12318" stroke-miterlimit="10"/>
<path d="M1602.29 2093.55C1658.39 2101.15 1844.18 2334.84 1068.24 1705.04C292.291 1075.23 -71.0669 1556.21 -18.2128 1813.6C34.6414 2071 901.371 495.454 1745.34 1208.88C2589.31 1922.31 960.515 1436.65 658.155 1766.04C355.794 2095.43 1546.19 2085.95 1602.29 2093.55Z" stroke="#5E5384" stroke-opacity="0.5" stroke-width="1.12318" stroke-miterlimit="10"/>
<path d="M1593.38 2086.11C1653.77 2094.32 1811.95 2315.36 1064.71 1688.37C317.467 1061.39 -61.9034 1548.63 -4.80558 1804.54C52.2922 2060.45 915.349 494.406 1749.81 1199.71C2584.27 1905.02 984.013 1422.31 666.896 1753.85C349.78 2085.39 1533 2077.9 1593.38 2086.11Z" stroke="#5E5384" stroke-opacity="0.5" stroke-width="1.12318" stroke-miterlimit="10"/>
<path d="M1584.52 2078.54C1649.24 2087.32 1779.76 2295.74 1061.22 1671.58C342.681 1047.42 -52.7021 1540.93 8.58261 1795.35C69.8673 2049.78 929.366 493.227 1754.2 1190.43C2579.03 1887.64 1007.38 1407.83 675.615 1741.5C343.856 2075.18 1519.8 2069.76 1584.52 2078.54Z" stroke="#5E5384" stroke-opacity="0.5" stroke-width="1.12318" stroke-miterlimit="10"/>
<path d="M1575.58 2070.88C1644.58 2080.24 1747.45 2276.05 1057.61 1654.71C367.77 1033.38 -43.6249 1533.14 21.8468 1786.09C87.3751 2039.03 943.258 491.971 1758.52 1181.07C2573.78 1870.17 1030.67 1393.29 684.21 1729.08C337.747 2064.87 1506.58 2061.49 1575.58 2070.88Z" stroke="#5E5384" stroke-opacity="0.5" stroke-width="1.12318" stroke-miterlimit="10"/>
<path d="M1566.68 2063.06C1640.02 2073.02 1715.22 2256.15 1054.09 1637.67C392.959 1019.19 -34.4516 1525.19 35.2636 1776.65C104.979 2028.11 957.36 490.53 1763 1171.53C2568.63 1852.52 1054.12 1378.57 692.957 1716.48C331.79 2054.38 1493.35 2053.1 1566.68 2063.06Z" stroke="#5E5384" stroke-opacity="0.5" stroke-width="1.12318" stroke-miterlimit="10"/>
<path d="M1557.83 2055.14C1635.5 2065.67 1683.04 2236.19 1050.61 1620.53C418.184 1004.88 -25.2385 1517.14 48.6637 1767.12C122.622 2017.09 971.331 489.013 1767.4 1161.9C2563.47 1834.79 1077.5 1363.75 701.627 1703.76C325.757 2043.78 1480.15 2044.61 1557.83 2055.14Z" stroke="#5E5384" stroke-opacity="0.5" stroke-width="1.12318" stroke-miterlimit="10"/>
<path d="M1548.9 2047.07C1630.86 2058.21 1650.73 2216.09 1047.06 1603.25C443.395 990.406 -16.0974 1508.94 62.0484 1757.43C140.194 2005.93 985.344 487.333 1771.79 1152.12C2558.23 1816.9 1100.92 1348.82 710.346 1690.95C319.772 2033.08 1466.95 2035.97 1548.9 2047.07Z" stroke="#5E5384" stroke-opacity="0.5" stroke-width="1.12318" stroke-miterlimit="10"/>
<path d="M1539.96 2038.92C1626.25 2050.62 1618.47 2195.89 1043.5 1585.87C468.532 975.851 -7.02894 1500.65 75.3604 1747.66C157.75 1994.67 999.284 485.569 1776.16 1142.25C2553.03 1798.92 1124.27 1333.77 718.993 1678.05C313.719 2022.32 1453.72 2027.2 1539.96 2038.92Z" stroke="#5E5384" stroke-opacity="0.5" stroke-width="1.12318" stroke-miterlimit="10"/>
<path d="M1531.05 2030.6C1621.62 2042.88 1586.18 2175.53 1039.92 1568.34C493.651 961.142 2.07818 1492.21 88.6545 1737.74C175.231 1983.26 1013.21 483.65 1780.45 1132.19C2547.69 1780.74 1147.53 1318.55 727.557 1664.94C307.58 2011.33 1440.47 2018.28 1531.05 2030.6Z" stroke="#5E5384" stroke-opacity="0.5" stroke-width="1.12318" stroke-miterlimit="10"/>
<path d="M1522.07 2022.13C1616.98 2035.01 1553.88 2155.02 1036.32 1550.65C518.752 946.278 11.1671 1483.61 101.987 1727.65C192.807 1971.69 1027.16 481.538 1784.84 1122C2542.52 1762.47 1170.9 1303.16 736.22 1651.69C301.543 2000.22 1427.22 2009.27 1522.07 2022.13Z" stroke="#5E5384" stroke-opacity="0.5" stroke-width="1.12318" stroke-miterlimit="10"/>
<path d="M1513.13 2013.56C1612.32 2027.02 1521.61 2134.41 1032.75 1532.86C543.894 931.315 20.2926 1474.88 115.299 1717.44C210.306 1960 1041.05 479.373 1789.16 1111.7C2537.26 1744.02 1194.25 1287.7 744.863 1638.32C295.479 1988.93 1413.94 2000.1 1513.13 2013.56Z" stroke="#5E5384" stroke-opacity="0.5" stroke-width="1.12318" stroke-miterlimit="10"/>
<path d="M1504.18 2004.84C1607.71 2018.9 1489.28 2113.66 1029.18 1514.92C569.077 916.191 29.4111 1466.05 128.601 1707.1C227.795 1948.18 1054.98 477.046 1793.52 1101.26C2532.05 1725.48 1217.58 1272.06 753.495 1624.82C289.411 1977.58 1400.65 1990.81 1504.18 2004.84Z" stroke="#5E5384" stroke-opacity="0.5" stroke-width="1.12318" stroke-miterlimit="10"/>
<path d="M1495.21 1996.03C1603.08 2010.66 1456.98 2092.77 1025.59 1496.89C594.195 901.012 38.512 1457.11 141.945 1696.67C245.379 1936.23 1068.89 474.596 1797.86 1090.73C2526.83 1706.87 1240.9 1256.36 762.114 1611.24C283.326 1966.11 1387.34 1981.39 1495.21 1996.03Z" stroke="#5E5384" stroke-opacity="0.5" stroke-width="1.12318" stroke-miterlimit="10"/>
<path d="M1486.16 1987.07C1598.31 2002.28 1424.61 2071.77 1021.86 1478.72C619.116 885.67 47.478 1448.02 155.098 1686.11C262.719 1924.19 1082.73 472.03 1802.08 1080.07C2521.42 1688.1 1264.09 1240.53 770.597 1597.51C277.106 1954.5 1374.02 1971.86 1486.16 1987.07Z" stroke="#5E5384" stroke-opacity="0.5" stroke-width="1.12318" stroke-miterlimit="10"/>
<path d="M1477.16 1978.01C1593.65 1993.82 1392.23 2050.67 1018.24 1460.44C644.253 870.206 56.5464 1438.83 168.41 1675.42C280.274 1912.02 1096.67 469.357 1806.39 1069.29C2516.11 1669.23 1287.43 1224.57 779.244 1583.7C271.053 1942.83 1360.68 1962.2 1477.16 1978.01Z" stroke="#5E5384" stroke-opacity="0.5" stroke-width="1.12318" stroke-miterlimit="10"/>
<path d="M1468.15 1968.85C1588.92 1985.24 1359.9 2029.48 1014.61 1442.07C669.322 854.658 65.6028 1429.54 181.654 1664.66C297.704 1899.78 1110.54 466.598 1810.69 1058.42C2510.84 1650.25 1310.71 1208.53 787.817 1569.78C264.923 1931.02 1347.38 1952.47 1468.15 1968.85Z" stroke="#5E5384" stroke-opacity="0.5" stroke-width="1.12318" stroke-miterlimit="10"/>
<path d="M1459.13 1959.61C1584.23 1976.6 1327.49 2008.2 1010.96 1423.6C694.436 839.008 74.6474 1420.16 194.885 1653.8C315.123 1887.44 1124.4 463.747 1814.93 1047.47C2505.45 1631.19 1333.92 1192.38 796.323 1555.76C258.729 1919.15 1334.02 1942.65 1459.13 1959.61Z" stroke="#5E5384" stroke-opacity="0.5" stroke-width="1.12318" stroke-miterlimit="10"/>
<path d="M1450.03 1950.31C1579.48 1967.87 1295.08 1986.85 1007.25 1405.08C719.426 823.313 83.6223 1410.7 208.108 1642.88C332.589 1875.03 1138.25 460.834 1819.2 1036.42C2500.15 1612 1357.17 1176.15 804.872 1541.65C252.574 1907.16 1320.65 1932.74 1450.03 1950.31Z" stroke="#5E5384" stroke-opacity="0.5" stroke-width="1.12318" stroke-miterlimit="10"/>
<path d="M1440.99 1940.94C1574.71 1959.08 1262.71 1965.44 1003.59 1386.49C744.467 807.548 92.5935 1401.21 221.322 1631.9C350.051 1862.59 1152.04 457.836 1823.42 1025.34C2494.8 1592.85 1380.36 1159.9 813.417 1527.51C246.473 1895.12 1307.27 1922.77 1440.99 1940.94Z" stroke="#5E5384" stroke-opacity="0.5" stroke-width="1.12318" stroke-miterlimit="10"/>
<path d="M1431.95 1931.51C1570.01 1950.25 1230.28 1943.98 999.864 1367.85C769.444 791.729 101.558 1391.65 234.474 1620.86C367.39 1850.08 1165.82 454.838 1827.63 1014.2C2489.44 1573.57 1403.6 1143.59 821.9 1513.32C240.195 1883.05 1293.89 1912.77 1431.95 1931.51Z" stroke="#5E5384" stroke-opacity="0.5" stroke-width="1.12318" stroke-miterlimit="10"/>
<path d="M1422.83 1922.03C1565.17 1941.34 1197.84 1922.42 996.13 1349.15C794.417 775.878 110.515 1382.03 247.675 1609.76C384.834 1837.49 1179.7 451.733 1831.89 1003C2484.08 1554.26 1426.84 1127.21 830.431 1499.05C234.022 1870.89 1280.5 1902.71 1422.83 1922.03Z" stroke="#5E5384" stroke-opacity="0.5" stroke-width="1.12318" stroke-miterlimit="10"/>
<path d="M1413.78 1912.53C1560.46 1932.45 1165.46 1900.88 992.453 1330.44C819.438 759.959 119.528 1372.41 260.874 1598.65C402.221 1824.9 1193.48 448.642 1836.09 991.796C2478.71 1534.95 1450.02 1110.84 838.908 1484.82C227.801 1858.81 1267.1 1892.62 1413.78 1912.53Z" stroke="#5E5384" stroke-opacity="0.5" stroke-width="1.12318" stroke-miterlimit="10"/>
<path d="M1404.66 1903.02C1555.68 1923.5 1132.97 1879.33 988.715 1311.7C844.463 744.071 128.48 1362.76 274.014 1587.53C419.543 1812.26 1207.24 445.521 1840.29 980.566C2473.34 1515.61 1473.19 1094.44 847.435 1470.53C221.68 1846.62 1253.7 1882.53 1404.66 1903.02Z" stroke="#5E5384" stroke-opacity="0.5" stroke-width="1.12318" stroke-miterlimit="10"/>
<path d="M1395.6 1893.47C1550.89 1914.53 1100.58 1857.74 985.029 1292.93C869.48 728.121 137.428 1353.08 287.201 1576.33C436.974 1799.58 1221.06 442.331 1844.48 969.274C2467.9 1496.22 1496.41 1077.97 855.896 1456.18C215.381 1834.39 1240.3 1872.4 1395.6 1893.47Z" stroke="#5E5384" stroke-opacity="0.5" stroke-width="1.12318" stroke-miterlimit="10"/>
<path d="M1386.47 1883.89C1546.11 1905.55 1068.08 1836.12 981.229 1274.14C894.382 712.155 146.375 1343.37 300.339 1565.17C454.299 1786.94 1234.82 439.178 1848.68 958.012C2462.53 1476.85 1519.58 1061.5 864.365 1441.86C209.15 1822.22 1226.85 1862.26 1386.47 1883.89Z" stroke="#5E5384" stroke-opacity="0.5" stroke-width="1.12318" stroke-miterlimit="10"/>
<path d="M1377.35 1874.34C1541.26 1896.58 1035.63 1814.53 977.484 1255.37C919.339 696.213 155.32 1333.69 313.527 1554C471.731 1774.29 1248.64 436.019 1852.87 946.751C2457.09 1457.48 1542.75 1045.07 872.827 1427.54C202.909 1810.01 1213.44 1852.1 1377.35 1874.34Z" stroke="#5E5384" stroke-opacity="0.5" stroke-width="1.12318" stroke-miterlimit="10"/>
<path d="M1368.23 1864.77C1536.48 1887.61 1003.18 1792.91 973.739 1236.58C944.297 680.239 164.265 1323.98 326.655 1542.78C489.046 1761.58 1262.4 432.805 1857.05 935.428C2451.71 1438.05 1565.91 1028.57 881.342 1413.15C196.777 1797.73 1199.97 1841.92 1368.23 1864.77Z" stroke="#5E5384" stroke-opacity="0.5" stroke-width="1.12318" stroke-miterlimit="10"/>
<path d="M1359.1 1855.16C1531.63 1878.58 970.671 1771.27 969.988 1217.75C969.305 664.228 173.205 1314.24 339.782 1531.56C506.416 1748.88 1276.15 429.56 1861.18 924.112C2446.22 1418.66 1589.07 1012.08 889.743 1398.78C190.418 1785.47 1186.57 1831.74 1359.1 1855.16Z" stroke="#5E5384" stroke-opacity="0.5" stroke-width="1.12318" stroke-miterlimit="10"/>
<path d="M1349.97 1845.58C1526.84 1869.57 938.221 1749.62 966.244 1198.95C994.264 648.255 182.152 1304.53 352.973 1520.36C523.794 1736.2 1289.91 426.377 1865.43 912.813C2440.95 1399.25 1612.29 995.609 898.268 1384.45C184.243 1773.29 1173.11 1821.59 1349.97 1845.58Z" stroke="#5E5384" stroke-opacity="0.5" stroke-width="1.12318" stroke-miterlimit="10"/>
<path d="M1340.85 1836C1522.06 1860.59 905.717 1728.01 962.443 1180.16C1019.17 632.288 191.04 1294.83 366.048 1509.18C541.113 1723.53 1303.61 423.201 1869.51 901.535C2435.41 1379.87 1635.35 979.159 906.617 1370.11C177.889 1761.07 1159.64 1811.41 1340.85 1836Z" stroke="#5E5384" stroke-opacity="0.5" stroke-width="1.12318" stroke-miterlimit="10"/>
<path d="M1331.66 1826.4C1517.15 1851.57 873.205 1706.36 958.634 1161.34C1044.06 616.292 199.865 1285.1 379.116 1497.97C558.368 1710.84 1317.31 419.995 1873.64 890.22C2429.96 1360.44 1658.44 962.642 915.069 1355.7C171.693 1748.76 1146.18 1801.24 1331.66 1826.4Z" stroke="#5E5384" stroke-opacity="0.5" stroke-width="1.12318" stroke-miterlimit="10"/>
<path d="M1322.48 1816.83C1512.3 1842.57 840.699 1684.75 954.831 1142.55C1068.96 600.356 208.752 1275.4 392.247 1486.78C575.685 1698.17 1331.07 416.812 1877.77 878.904C2424.46 1341 1681.55 946.154 923.473 1341.36C165.398 1736.57 1132.66 1791.06 1322.48 1816.83Z" stroke="#5E5384" stroke-opacity="0.5" stroke-width="1.12318" stroke-miterlimit="10"/>
<path d="M1313.3 1807.23C1507.4 1833.58 808.133 1663.12 951.024 1123.73C1093.91 584.352 217.635 1265.66 405.317 1475.57C592.999 1685.47 1344.77 413.605 1881.9 867.588C2419.02 1321.57 1704.71 929.66 931.874 1326.99C159.039 1724.31 1119.19 1780.89 1313.3 1807.23Z" stroke="#5E5384" stroke-opacity="0.5" stroke-width="1.12318" stroke-miterlimit="10"/>
<path d="M1304.12 1797.66C1502.56 1824.58 775.631 1641.5 947.224 1104.94C1118.82 568.385 226.526 1255.96 418.451 1464.37C610.32 1672.8 1358.53 410.422 1886.03 856.303C2413.53 1302.18 1727.82 913.203 940.282 1312.64C152.743 1712.08 1105.68 1770.75 1304.12 1797.66Z" stroke="#5E5384" stroke-opacity="0.5" stroke-width="1.12318" stroke-miterlimit="10"/>
<path d="M1294.94 1788.09C1497.72 1815.61 743.126 1619.89 943.421 1086.15C1143.72 552.419 235.413 1246.26 431.526 1453.19C627.638 1660.13 1372.23 407.247 1890.17 845.018C2408.1 1282.79 1750.93 896.747 948.744 1298.29C146.558 1699.84 1092.16 1760.58 1294.94 1788.09Z" stroke="#5E5384" stroke-opacity="0.5" stroke-width="1.12318" stroke-miterlimit="10"/>
<path d="M1285.7 1778.53C1492.76 1806.62 710.507 1598.29 939.505 1067.38C1168.5 536.468 244.187 1236.57 444.487 1442.02C644.839 1647.44 1385.82 404.054 1894.18 833.717C2402.54 1263.38 1773.92 880.274 957.035 1283.96C140.15 1687.65 1078.64 1750.44 1285.7 1778.53Z" stroke="#5E5384" stroke-opacity="0.5" stroke-width="1.12318" stroke-miterlimit="10"/>
<path d="M1276.46 1768.97C1487.85 1797.63 677.94 1576.66 935.645 1048.6C1193.35 520.54 253.017 1226.87 457.56 1430.84C662.104 1634.81 1399.46 400.886 1898.2 822.447C2396.94 1244.01 1796.97 863.825 965.326 1269.64C133.681 1675.45 1065.06 1740.3 1276.46 1768.97Z" stroke="#5E5384" stroke-opacity="0.5" stroke-width="1.12318" stroke-miterlimit="10"/>
<path d="M1267.22 1759.4C1482.9 1788.68 645.323 1555.06 931.786 1029.82C1218.25 504.574 261.849 1217.18 470.579 1419.67C679.309 1622.15 1413.11 397.748 1902.28 811.2C2391.45 1224.65 1820.03 847.406 973.68 1255.33C127.33 1663.25 1051.49 1730.17 1267.22 1759.4Z" stroke="#5E5384" stroke-opacity="0.5" stroke-width="1.12318" stroke-miterlimit="10"/>
<path d="M1257.93 1749.88C1477.95 1779.72 612.709 1533.49 927.875 1011.07C1243.04 488.653 270.628 1207.52 483.545 1408.53C696.462 1609.54 1426.76 394.58 1906.3 799.93C2385.85 1205.28 1843.02 830.934 982.028 1241C121.036 1651.06 1037.92 1720.04 1257.93 1749.88Z" stroke="#5E5384" stroke-opacity="0.5" stroke-width="1.12318" stroke-miterlimit="10"/>
<path d="M1248.64 1740.36C1472.94 1770.81 580.092 1511.92 923.961 992.329C1267.83 472.733 279.404 1197.86 496.565 1397.38C713.725 1596.91 1440.35 391.45 1910.27 788.698C2380.19 1185.95 1865.96 814.53 990.266 1226.71C114.57 1638.88 1024.34 1709.91 1248.64 1740.36Z" stroke="#5E5384" stroke-opacity="0.5" stroke-width="1.12318" stroke-miterlimit="10"/>
<path d="M1239.35 1730.83C1467.98 1761.85 547.423 1490.36 919.994 973.591C1292.57 456.819 288.128 1188.21 509.476 1386.25C730.823 1584.3 1453.89 388.326 1914.3 777.458C2374.7 1166.59 1889.02 798.112 998.564 1212.41C108.108 1626.7 1010.72 1699.81 1239.35 1730.83Z" stroke="#5E5384" stroke-opacity="0.5" stroke-width="1.12318" stroke-miterlimit="10"/>
<path d="M1230.31 1723.69C1463.28 1755.28 515.057 1471.18 916.33 957.23C1317.6 443.28 297.093 1180.91 522.684 1377.47C748.276 1574.02 1467.78 387.54 1918.56 768.57C2369.34 1149.6 1912.26 784.052 1007.1 1200.46C101.944 1616.87 997.334 1692.07 1230.31 1723.69Z" stroke="#5E5384" stroke-opacity="0.5" stroke-width="1.12318" stroke-miterlimit="10"/>
<path d="M1221.42 1717.75C1458.67 1749.95 482.847 1453.2 912.823 942.07C1342.8 430.944 306.277 1174.84 536.111 1369.91C765.946 1564.98 1481.78 387.994 1922.99 760.914C2364.2 1133.83 1935.67 771.225 1015.86 1189.77C96.0621 1608.32 984.169 1685.55 1221.42 1717.75Z" stroke="#5E5384" stroke-opacity="0.5" stroke-width="1.12318" stroke-miterlimit="10"/>
<path d="M1212.48 1711.85C1454.07 1744.62 450.527 1435.26 909.262 926.949C1368 418.639 315.406 1168.81 549.427 1362.39C783.449 1555.98 1495.73 388.486 1927.31 753.305C2358.89 1118.12 1958.96 758.444 1024.45 1179.1C89.9486 1599.76 970.89 1679.05 1212.48 1711.85Z" stroke="#5E5384" stroke-opacity="0.5" stroke-width="1.12318" stroke-miterlimit="10"/>
<path d="M1203.54 1705.95C1449.41 1739.32 418.265 1417.31 905.703 911.827C1393.14 406.34 324.537 1162.77 562.802 1354.87C801.068 1546.97 1509.73 388.971 1931.74 745.68C2353.76 1102.39 1982.37 745.648 1033.16 1168.42C83.9507 1591.19 957.677 1672.6 1203.54 1705.95Z" stroke="#5E5384" stroke-opacity="0.5" stroke-width="1.12318" stroke-miterlimit="10"/>
<path d="M1194.55 1700.11C1444.76 1734.06 385.89 1399.41 902.035 896.782C1418.18 394.149 333.559 1156.81 576.011 1347.43C818.463 1538.05 1523.57 389.54 1936.01 738.14C2348.46 1086.74 2005.67 732.898 1041.7 1157.82C77.7336 1582.75 944.347 1666.17 1194.55 1700.11Z" stroke="#5E5384" stroke-opacity="0.5" stroke-width="1.12318" stroke-miterlimit="10"/>
<path d="M1185.57 1694.31C1440.11 1728.83 353.583 1381.57 898.429 881.761C1443.28 381.951 342.644 1150.88 589.284 1340.02C835.923 1529.16 1537.47 390.132 1940.28 730.599C2343.1 1071.07 2028.91 720.186 1050.3 1147.22C71.6854 1574.25 931.023 1659.76 1185.57 1694.31Z" stroke="#5E5384" stroke-opacity="0.5" stroke-width="1.12318" stroke-miterlimit="10"/>
<path d="M1178.17 1688.3C1437 1723.43 322.863 1363.52 896.412 866.535C1469.96 369.548 353.317 1144.74 604.2 1332.39C855.082 1520.05 1552.96 390.519 1946.21 722.908C2339.45 1055.3 2053.81 707.324 1060.49 1136.47C67.1761 1565.61 919.348 1653.18 1178.17 1688.3Z" stroke="#5E5384" stroke-opacity="0.5" stroke-width="1.12318" stroke-miterlimit="10"/>
<path d="M1177.35 1681.48C1440.51 1717.18 298.66 1344.66 900.968 850.493C1503.28 356.322 370.564 1137.78 625.633 1323.96C880.703 1510.13 1575.07 390.084 1958.7 714.371C2342.32 1038.66 2085.28 693.615 1077.26 1124.87C69.2366 1556.13 914.246 1645.78 1177.35 1681.48Z" stroke="#5E5384" stroke-opacity="0.5" stroke-width="1.12318" stroke-miterlimit="10"/>
<path d="M1176.59 1674.71C1444.04 1711.02 274.58 1325.85 905.591 834.505C1536.6 343.158 387.877 1130.88 647.133 1315.58C906.39 1500.27 1597.14 389.687 1971.2 705.865C2345.25 1022.04 2116.81 679.93 1094.03 1113.34C71.2544 1546.75 909.151 1638.41 1176.59 1674.71Z" stroke="#5E5384" stroke-opacity="0.5" stroke-width="1.12318" stroke-miterlimit="10"/>
<path d="M1175.84 1667.95C1447.62 1704.82 250.496 1307.01 910.153 818.495C1569.81 329.978 405.128 1123.96 668.629 1307.16C932.129 1490.37 1619.27 389.313 1983.75 697.382C2348.24 1005.45 2148.34 666.275 1110.92 1101.79C73.4938 1537.3 904.058 1631.07 1175.84 1667.95Z" stroke="#5E5384" stroke-opacity="0.5" stroke-width="1.12318" stroke-miterlimit="10"/>
<path d="M1175.09 1661.21C1451.15 1698.66 226.368 1288.27 914.783 802.569C1603.2 316.868 422.45 1117.12 690.137 1298.84C957.824 1480.57 1641.41 389 1996.26 688.968C2351.12 988.935 2179.83 652.69 1127.7 1090.32C75.5725 1527.95 899.023 1623.73 1175.09 1661.21Z" stroke="#5E5384" stroke-opacity="0.5" stroke-width="1.12318" stroke-miterlimit="10"/>
<path d="M1174.34 1654.5C1454.73 1692.55 202.294 1269.52 919.412 786.643C1636.53 303.765 439.769 1110.28 711.699 1290.52C983.63 1470.76 1663.59 388.65 2008.88 680.508C2354.17 972.366 2211.42 639.058 1144.59 1078.8C77.7582 1518.54 893.937 1616.45 1174.34 1654.5Z" stroke="#5E5384" stroke-opacity="0.5" stroke-width="1.12318" stroke-miterlimit="10"/>
<path d="M1173.65 1647.82C1458.38 1686.44 178.22 1250.77 924.102 770.741C1669.98 290.71 457.092 1103.47 733.266 1282.22C1009.44 1460.98 1685.73 388.369 2021.45 672.087C2357.16 955.805 2243.01 625.428 1161.43 1067.32C79.8384 1509.21 888.908 1609.17 1173.65 1647.82Z" stroke="#5E5384" stroke-opacity="0.5" stroke-width="1.12318" stroke-miterlimit="10"/>
<path d="M1172.91 1641.18C1461.93 1680.41 154.157 1232.08 928.741 754.877C1703.33 277.669 474.422 1096.69 754.783 1273.97C1035.14 1451.24 1707.87 388.088 2033.97 663.735C2360.06 939.382 2274.51 611.904 1178.27 1055.9C82.0389 1499.9 883.89 1601.95 1172.91 1641.18Z" stroke="#5E5384" stroke-opacity="0.5" stroke-width="1.12318" stroke-miterlimit="10"/>
<path d="M1172.17 1634.53C1465.52 1674.33 130.091 1213.4 933.378 739.013C1736.66 264.629 491.749 1089.91 776.354 1265.7C1060.96 1441.49 1730.07 387.862 2046.54 655.407C2363.01 922.952 2306.06 598.404 1195.12 1044.52C84.1836 1490.63 878.812 1594.73 1172.17 1634.53Z" stroke="#5E5384" stroke-opacity="0.5" stroke-width="1.12318" stroke-miterlimit="10"/>
<path d="M1171.44 1627.95C1469.07 1668.33 105.982 1194.78 937.971 723.218C1769.96 251.657 509.032 1083.21 797.82 1257.48C1086.61 1431.76 1752.23 387.672 2059.13 647.108C2366.03 906.544 2337.62 584.934 1211.98 1033.19C86.3455 1481.45 873.804 1587.57 1171.44 1627.95Z" stroke="#5E5384" stroke-opacity="0.5" stroke-width="1.12318" stroke-miterlimit="10"/>
<path d="M1170.7 1621.4C1472.68 1662.38 81.9256 1176.18 942.617 707.447C1803.31 238.709 526.365 1076.49 819.343 1249.32C1112.32 1422.14 1774.38 387.484 2071.71 638.811C2369.04 890.138 2369.17 571.466 1228.83 1021.84C88.4921 1472.21 868.732 1580.42 1170.7 1621.4Z" stroke="#5E5384" stroke-opacity="0.5" stroke-width="1.12318" stroke-miterlimit="10"/>
<path d="M1169.92 1614.88C1476.23 1656.43 57.764 1157.63 947.215 691.713C1836.67 225.791 543.656 1069.87 840.875 1241.18C1138.09 1412.49 1796.48 387.364 2084.24 630.581C2372 873.799 2400.74 558.057 1245.69 1010.54C90.6505 1463.02 863.668 1573.3 1169.92 1614.88Z" stroke="#5E5384" stroke-opacity="0.5" stroke-width="1.12318" stroke-miterlimit="10"/>
<path d="M1169.2 1608.36C1479.79 1650.52 33.719 1139.07 951.872 675.972C1870.03 212.873 560.948 1063.23 862.353 1233.06C1163.76 1402.89 1818.59 387.274 2096.78 622.352C2374.97 857.43 2432.25 544.657 1262.5 999.254C92.7556 1453.85 858.558 1566.24 1169.2 1608.36Z" stroke="#5E5384" stroke-opacity="0.5" stroke-width="1.12318" stroke-miterlimit="10"/>
<path d="M1168.37 1601.92C1483.3 1644.64 9.56267 1120.58 956.418 660.308C1903.27 200.033 578.241 1056.64 883.889 1224.98C1189.54 1393.33 1840.69 387.186 2109.26 614.193C2377.83 841.199 2463.7 531.295 1279.26 988.036C94.8098 1444.78 853.499 1559.18 1168.37 1601.92Z" stroke="#5E5384" stroke-opacity="0.5" stroke-width="1.12318" stroke-miterlimit="10"/>
<path d="M1167.6 1595.5C1486.81 1638.8 -14.5908 1102.1 960.971 644.674C1936.53 187.253 595.484 1050.09 905.32 1216.96C1215.16 1383.82 1862.81 387.159 2121.75 606.033C2380.68 824.907 2495.16 517.963 1296.01 976.818C96.8632 1435.67 848.334 1552.17 1167.6 1595.5Z" stroke="#5E5384" stroke-opacity="0.5" stroke-width="1.12318" stroke-miterlimit="10"/>
<path d="M1166.72 1589.09C1490.26 1632.99 -38.7982 1083.65 965.467 629.048C1969.73 174.45 612.669 1043.55 926.692 1208.94C1240.71 1374.32 1884.81 387.146 2134.18 597.942C2383.55 808.737 2526.63 504.693 1312.78 965.662C98.9231 1426.63 843.228 1545.18 1166.72 1589.09Z" stroke="#5E5384" stroke-opacity="0.5" stroke-width="1.12318" stroke-miterlimit="10"/>
<path d="M1165.9 1582.74C1493.72 1627.22 -62.9976 1065.26 970.026 613.477C2003.05 161.694 629.919 1037.07 948.186 1200.97C1266.45 1364.86 1906.93 387.181 2146.68 589.875C2386.42 792.568 2558.1 491.455 1329.55 954.567C100.995 1417.68 838.016 1538.26 1165.9 1582.74Z" stroke="#5E5384" stroke-opacity="0.5" stroke-width="1.12318" stroke-miterlimit="10"/>
<path d="M1164.97 1576.4C1497.13 1621.48 -87.2513 1046.88 974.475 597.919C2036.2 148.96 647.058 1030.6 969.512 1193.01C1291.96 1355.43 1928.89 387.237 2159.06 581.821C2389.24 776.406 2589.46 478.23 1346.21 943.456C102.948 1408.68 832.807 1531.35 1164.97 1576.4Z" stroke="#5E5384" stroke-opacity="0.5" stroke-width="1.12318" stroke-miterlimit="10"/>
<path d="M1165.63 1569.92C1502.13 1615.57 -109.913 1028.35 980.516 582.219C2070.94 136.083 665.733 1023.99 992.43 1184.92C1319.13 1345.85 1952.38 387.158 2172.98 573.602C2393.58 760.047 2622.35 464.84 1364.39 932.179C106.432 1399.52 829.129 1524.27 1165.63 1569.92Z" stroke="#5E5384" stroke-opacity="0.5" stroke-width="1.12318" stroke-miterlimit="10"/>
<path d="M1169.3 1563.08C1510.08 1609.31 -129.624 1009.48 989.507 566.17C2108.64 122.858 687.411 1017 1018.36 1176.47C1349.3 1335.94 1978.98 386.677 2189.96 565.02C2400.94 743.363 2658.37 451.078 1385.7 920.531C113.037 1389.98 828.516 1516.82 1169.3 1563.08Z" stroke="#5E5384" stroke-opacity="0.5" stroke-width="1.12318" stroke-miterlimit="10"/>
<path d="M1172.91 1556.25C1518.03 1603.08 -149.334 990.611 998.5 550.121C2146.33 109.632 709.094 1010.04 1044.23 1168.03C1379.36 1326.02 2005.43 386.28 2206.84 556.514C2408.24 726.747 2694.21 437.37 1406.91 908.96C119.599 1380.55 827.798 1509.45 1172.91 1556.25Z" stroke="#5E5384" stroke-opacity="0.5" stroke-width="1.12318" stroke-miterlimit="10"/>
<path d="M1176.48 1549.49C1525.88 1596.9 -169.092 971.808 1007.44 534.142C2183.98 96.4764 730.728 1003.14 1070.05 1159.66C1409.36 1316.17 2031.88 385.914 2223.71 548.039C2415.55 710.164 2730.07 423.724 1428 897.434C125.934 1371.14 827.023 1502.09 1176.48 1549.49Z" stroke="#5E5384" stroke-opacity="0.5" stroke-width="1.12318" stroke-miterlimit="10"/>
<path d="M1179.93 1542.78C1533.67 1590.79 -189.021 953.027 1016.28 518.207C2221.58 83.3883 752.252 996.296 1095.81 1151.32C1439.38 1306.35 2058.27 385.555 2240.48 539.578C2422.69 693.601 2765.81 410.091 1449.04 885.915C132.268 1361.74 826.195 1494.77 1179.93 1542.78Z" stroke="#5E5384" stroke-opacity="0.5" stroke-width="1.12318" stroke-miterlimit="10"/>
<path d="M1183.33 1536.07C1541.41 1584.65 -208.948 934.277 1025.05 502.281C2259.06 70.285 773.719 989.456 1121.47 1143C1469.22 1296.55 2084.55 385.273 2257.2 531.187C2429.84 677.1 2801.5 396.528 1470.09 874.489C138.674 1352.45 825.314 1487.48 1183.33 1536.07Z" stroke="#5E5384" stroke-opacity="0.5" stroke-width="1.12318" stroke-miterlimit="10"/>
<path d="M1186.68 1529.43C1549.03 1578.59 -228.923 915.595 1033.78 486.423C2296.49 57.2501 795.137 982.684 1147.13 1134.71C1499.11 1286.74 2110.84 384.99 2273.86 522.802C2436.93 660.607 2837.19 382.965 1491.02 863.046C144.845 1343.13 824.327 1480.28 1186.68 1529.43Z" stroke="#5E5384" stroke-opacity="0.5" stroke-width="1.12318" stroke-miterlimit="10"/>
<path d="M1189.98 1522.83C1556.67 1572.59 -249.005 896.96 1042.4 470.61C2333.81 44.2608 816.447 975.958 1172.62 1126.51C1528.8 1277.06 2136.96 384.761 2290.41 514.494C2443.86 644.197 2872.73 369.485 1511.85 851.68C150.97 1333.88 823.285 1473.07 1189.98 1522.83Z" stroke="#5E5384" stroke-opacity="0.5" stroke-width="1.12318" stroke-miterlimit="10"/>
<path d="M1193.16 1516.25C1564.13 1566.58 -269.146 878.331 1050.96 454.805C2371.07 31.2787 837.699 969.239 1198.06 1118.31C1558.42 1267.38 2163.03 384.6 2306.91 506.193C2450.79 627.786 2908.2 356.013 1532.62 840.321C157.035 1324.63 822.188 1465.91 1193.16 1516.25Z" stroke="#5E5384" stroke-opacity="0.5" stroke-width="1.12318" stroke-miterlimit="10"/>
<path d="M1196.29 1509.73C1571.61 1560.67 -289.393 859.779 1059.48 439.069C2408.34 18.3584 858.901 962.589 1223.51 1110.17C1588.11 1257.75 2189.05 384.446 2323.3 497.969C2457.56 611.491 2943.57 342.617 1553.34 829.031C163.108 1315.45 820.987 1458.83 1196.29 1509.73Z" stroke="#5E5384" stroke-opacity="0.5" stroke-width="1.12318" stroke-miterlimit="10"/>
<path d="M1199.38 1503.25C1579.03 1554.76 -309.632 841.258 1067.94 423.371C2445.51 5.48367 880.055 955.977 1248.85 1102.08C1617.64 1248.18 2215.02 384.362 2339.7 489.744C2464.38 595.127 2978.99 329.183 1574 817.749C169.019 1306.31 819.731 1451.75 1199.38 1503.25Z" stroke="#5E5384" stroke-opacity="0.5" stroke-width="1.12318" stroke-miterlimit="10"/>
<path d="M1202.35 1496.82C1586.28 1548.9 -329.984 822.782 1076.29 407.718C2482.56 -7.34574 901.039 949.419 1274.08 1094.03C1647.11 1238.65 2240.93 384.316 2355.98 481.596C2471.1 578.869 3014.25 315.863 1594.56 806.543C174.873 1297.22 818.42 1444.7 1202.35 1496.82Z" stroke="#5E5384" stroke-opacity="0.5" stroke-width="1.12318" stroke-miterlimit="10"/>
<path d="M1205.33 1490.42C1593.59 1543.1 -350.392 804.313 1084.59 392.103C2519.57 -20.1066 922.028 942.89 1299.31 1086.02C1676.59 1229.15 2266.73 384.314 2372.22 473.486C2477.71 562.657 3049.46 302.581 1615.07 795.405C180.685 1288.23 817.061 1437.73 1205.33 1490.42Z" stroke="#5E5384" stroke-opacity="0.5" stroke-width="1.12318" stroke-miterlimit="10"/>
<path d="M1208.2 1484.06C1600.74 1537.32 -370.848 785.913 1092.84 376.527C2556.52 -32.8597 942.965 936.4 1324.43 1078.05C1705.9 1219.7 2292.48 384.321 2388.4 465.414C2484.32 546.476 3084.62 289.338 1635.58 784.268C186.549 1279.2 815.65 1430.8 1208.2 1484.06Z" stroke="#5E5384" stroke-opacity="0.5" stroke-width="1.12318" stroke-miterlimit="10"/>
<path d="M1211.01 1477.74C1607.9 1531.6 -391.357 767.552 1101.03 360.989C2593.41 -45.5747 963.849 929.949 1349.56 1070.11C1735.27 1210.27 2318.18 384.396 2404.53 457.349C2490.83 530.34 3119.72 276.102 1655.98 773.145C192.243 1270.19 814.125 1423.88 1211.01 1477.74Z" stroke="#5E5384" stroke-opacity="0.5" stroke-width="1.12318" stroke-miterlimit="10"/>
<path d="M1213.77 1471.46C1614.94 1525.9 -411.974 749.235 1109.17 345.488C2630.32 -58.2594 984.681 923.535 1374.58 1062.22C1764.48 1200.9 2343.83 384.509 2420.55 449.36C2497.27 514.212 3154.77 262.934 1676.27 762.098C197.775 1261.26 812.552 1417.03 1213.77 1471.46Z" stroke="#5E5384" stroke-opacity="0.5" stroke-width="1.12318" stroke-miterlimit="10"/>
<path d="M1216.48 1465.22C1621.98 1520.23 -432.59 730.951 1117.26 330.027C2667.1 -70.8975 1005.46 917.159 1399.54 1054.36C1793.63 1191.56 2369.42 384.661 2436.57 441.403C2503.73 498.145 3189.77 249.806 1696.57 751.083C203.366 1252.36 810.977 1410.18 1216.48 1465.22Z" stroke="#5E5384" stroke-opacity="0.5" stroke-width="1.12318" stroke-miterlimit="10"/>
<path d="M1219.08 1459.02C1628.92 1514.63 -453.372 712.718 1125.18 314.617C2703.73 -83.4836 1026.07 910.837 1424.4 1046.55C1822.73 1182.27 2394.96 384.851 2452.49 433.491C2510.02 482.132 3224.66 236.691 1716.81 740.105C208.965 1243.52 809.297 1403.4 1219.08 1459.02Z" stroke="#5E5384" stroke-opacity="0.5" stroke-width="1.12318" stroke-miterlimit="10"/>
<path d="M1221.68 1452.85C1635.8 1509.04 -474.092 694.509 1133.16 299.232C2740.41 -96.0459 1046.74 904.538 1449.26 1038.77C1851.77 1173.01 2420.45 385.079 2468.41 425.61C2516.36 466.141 3259.55 223.639 1737 729.166C214.452 1234.69 807.565 1396.67 1221.68 1452.85Z" stroke="#5E5384" stroke-opacity="0.5" stroke-width="1.12318" stroke-miterlimit="10"/>
<path d="M1224.24 1446.76C1642.7 1503.55 -494.856 676.369 1141.1 283.914C2777.05 -108.54 1067.37 898.307 1474.07 1031.06C1880.77 1163.82 2445.88 385.345 2484.22 417.805C2522.61 450.227 3294.4 210.654 1757.09 718.334C219.789 1226.01 805.784 1389.97 1224.24 1446.76Z" stroke="#5E5384" stroke-opacity="0.5" stroke-width="1.12318" stroke-miterlimit="10"/>
<path d="M1226.74 1440.67C1649.48 1498.03 -515.744 658.213 1148.97 268.605C2813.69 -121.003 1087.94 892.084 1498.88 1023.32C1909.82 1154.56 2471.21 385.687 2500.03 410C2528.86 434.313 3329.19 197.678 1777.18 707.471C225.168 1217.26 803.945 1383.31 1226.74 1440.67Z" stroke="#5E5384" stroke-opacity="0.5" stroke-width="1.12318" stroke-miterlimit="10"/>
<path d="M1229.13 1434.62C1656.2 1492.56 -536.678 640.125 1156.74 253.341C2850.16 -133.444 1108.39 885.906 1523.52 1015.66C1938.65 1145.42 2496.54 386.029 2515.74 402.24C2534.93 418.451 3363.87 184.746 1797.21 696.645C230.554 1208.54 802.056 1376.69 1229.13 1434.62Z" stroke="#5E5384" stroke-opacity="0.5" stroke-width="1.12318" stroke-miterlimit="10"/>
<path d="M1231.53 1428.64C1662.94 1487.18 -557.602 622.1 1164.52 238.139C2886.64 -145.822 1128.86 879.79 1548.24 1008.06C1967.61 1136.33 2521.82 386.409 2531.45 394.511C2541.02 402.62 3398.55 171.846 1817.19 685.859C235.833 1199.87 800.172 1370.1 1231.53 1428.64Z" stroke="#5E5384" stroke-opacity="0.5" stroke-width="1.12318" stroke-miterlimit="10"/>
<path d="M2547.05 386.859C2547.05 386.859 3433.18 159.015 1837.06 675.148C240.945 1191.28 798.175 1363.55 1233.87 1422.66C1669.56 1481.78 -578.644 604.089 1172.18 222.951C2923.01 -158.187 1149.16 873.696 1572.77 1000.48C1996.39 1127.26 2547.05 386.859 2547.05 386.859Z" stroke="#5E5384" stroke-opacity="0.5" stroke-width="1.12318" stroke-miterlimit="10"/>
</g>
</svg>
