<svg width="885" height="1295" viewBox="0 0 885 1295" fill="none" xmlns="http://www.w3.org/2000/svg">
<g opacity="0.2">
<path d="M279.311 80.2643C279.311 80.2643 120.161 -196.931 462.652 285.418C805.143 767.766 871.63 542.955 883.707 379.27C895.802 215.585 531.143 1151.9 253.117 593.167C-24.9089 34.4333 597.63 497.143 645.974 326.887C694.337 156.649 279.311 80.2643 279.311 80.2643Z" stroke="#5E5384" stroke-opacity="0.5" stroke-width="1.12318" stroke-miterlimit="10"/>
<path d="M281.946 84.7378C280.573 84.0695 129.808 -183.529 463.172 294.94C796.535 773.409 868.439 546.129 879.106 383.001C889.773 219.873 526.672 1150.86 251.392 597.64C-23.8884 44.4199 589.579 503.231 642.746 332.864C695.914 162.496 283.3 85.4246 281.946 84.7378Z" stroke="#5E5384" stroke-opacity="0.5" stroke-width="1.12318" stroke-miterlimit="10"/>
<path d="M284.562 89.267C281.835 87.912 139.436 -170.089 463.673 304.519C787.909 779.126 865.231 549.359 874.488 386.788C883.745 224.217 522.183 1149.84 249.667 602.169C-22.8492 54.4993 581.51 509.375 639.519 338.859C697.528 168.344 287.289 90.6035 284.562 89.267Z" stroke="#5E5384" stroke-opacity="0.5" stroke-width="1.12318" stroke-miterlimit="10"/>
<path d="M287.177 93.815C283.077 91.7917 149.082 -156.631 464.173 314.116C779.264 784.863 862.021 552.608 869.85 390.593C877.678 228.579 517.693 1148.86 247.923 606.718C-21.8477 64.579 573.44 515.538 636.254 344.892C699.068 174.247 291.258 95.8383 287.177 93.815Z" stroke="#5E5384" stroke-opacity="0.5" stroke-width="1.12318" stroke-miterlimit="10"/>
<path d="M289.793 98.4C284.339 95.6899 158.711 -143.136 464.675 323.75C770.638 790.635 858.812 555.893 865.231 394.436C871.649 232.979 513.186 1147.91 246.179 611.302C-20.8271 74.6956 565.37 521.738 633.008 350.962C700.645 180.187 295.247 101.11 289.793 98.4Z" stroke="#5E5384" stroke-opacity="0.5" stroke-width="1.12318" stroke-miterlimit="10"/>
<path d="M292.39 103.022C285.563 99.6435 168.32 -129.604 465.175 333.42C762.031 796.445 855.603 559.216 860.611 398.315C865.62 237.415 508.696 1147.02 244.435 615.943C-19.8254 84.8676 557.3 527.993 629.761 357.088C702.222 186.182 299.217 106.4 292.39 103.022Z" stroke="#5E5384" stroke-opacity="0.5" stroke-width="1.12318" stroke-miterlimit="10"/>
<path d="M295.006 107.7C286.806 103.653 177.967 -116.017 465.676 343.147C753.386 802.311 852.393 562.613 855.973 402.251C859.554 241.907 504.207 1146.15 242.691 620.602C-18.8239 95.0585 549.212 534.268 626.514 363.232C703.817 192.196 303.187 111.746 295.006 107.7Z" stroke="#5E5384" stroke-opacity="0.5" stroke-width="1.12318" stroke-miterlimit="10"/>
<path d="M297.602 112.415C288.049 107.681 187.576 -102.392 466.158 352.911C744.74 808.214 849.165 566.028 851.335 406.223C853.506 246.418 499.68 1145.35 240.929 625.336C-17.8224 105.324 541.123 540.616 623.231 369.432C705.338 198.248 307.156 117.148 297.602 112.415Z" stroke="#5E5384" stroke-opacity="0.5" stroke-width="1.12318" stroke-miterlimit="10"/>
<path d="M300.2 117.167C289.273 111.765 197.204 -88.7295 466.641 362.712C736.077 814.154 845.956 569.481 846.698 410.232C847.44 251.003 495.191 1144.55 239.185 630.069C-16.8205 115.589 533.054 546.983 619.984 375.65C706.915 204.318 311.126 122.587 300.2 117.167Z" stroke="#5E5384" stroke-opacity="0.5" stroke-width="1.12318" stroke-miterlimit="10"/>
<path d="M302.797 121.974C290.516 115.886 206.813 -74.993 467.123 372.569C727.432 820.131 842.728 572.989 842.041 414.298C841.355 255.606 490.664 1143.86 237.423 634.914C-15.8187 125.965 524.965 553.443 616.719 381.98C708.473 210.518 315.078 128.063 302.797 121.974Z" stroke="#5E5384" stroke-opacity="0.5" stroke-width="1.12318" stroke-miterlimit="10"/>
<path d="M305.375 126.838C291.722 120.081 216.404 -61.2196 467.605 382.482C718.806 826.183 839.5 576.553 837.403 418.437C835.307 260.321 486.156 1143.19 235.66 639.777C-14.8357 136.36 516.858 559.921 613.454 388.329C710.05 216.736 319.029 133.595 305.375 126.838Z" stroke="#5E5384" stroke-opacity="0.5" stroke-width="1.12318" stroke-miterlimit="10"/>
<path d="M307.955 131.757C292.947 124.332 226.014 -47.3904 468.069 392.45C710.125 832.29 836.254 580.173 832.729 422.614C829.204 265.055 481.612 1142.58 233.88 644.697C-13.8518 146.811 508.752 566.455 610.153 394.733C711.553 223.011 322.963 139.182 307.955 131.757Z" stroke="#5E5384" stroke-opacity="0.5" stroke-width="1.12318" stroke-miterlimit="10"/>
<path d="M310.514 136.732C294.134 128.62 235.586 -33.5058 468.514 402.473C701.442 838.453 832.989 583.848 828.054 426.846C823.119 269.844 477.067 1142.02 232.08 649.671C-12.9059 157.318 500.626 573.045 606.85 401.193C713.074 229.34 326.895 144.825 310.514 136.732Z" stroke="#5E5384" stroke-opacity="0.5" stroke-width="1.12318" stroke-miterlimit="10"/>
<path d="M313.075 141.762C295.322 132.982 245.178 -19.5653 468.96 412.553C692.743 844.671 829.724 587.579 823.38 431.134C817.035 274.689 472.522 1141.52 230.3 654.702C-11.9222 167.88 492.52 579.69 603.567 407.708C714.614 235.726 330.829 150.542 313.075 141.762Z" stroke="#5E5384" stroke-opacity="0.5" stroke-width="1.12318" stroke-miterlimit="10"/>
<path d="M315.634 146.848C296.527 137.381 254.75 -5.56905 469.405 422.688C684.06 850.945 826.458 591.366 818.685 435.478C810.913 279.589 467.976 1141.08 228.481 659.788C-11.0139 178.497 484.357 586.391 600.246 414.261C716.135 242.13 334.742 156.315 315.634 146.848Z" stroke="#5E5384" stroke-opacity="0.5" stroke-width="1.12318" stroke-miterlimit="10"/>
<path d="M318.176 152.009C297.696 141.873 264.304 8.50135 469.832 432.897C675.36 857.294 823.175 595.227 813.992 439.896C804.81 284.564 463.413 1140.71 226.682 664.948C-10.049 189.189 476.232 593.185 596.926 420.906C717.619 248.627 338.657 162.144 318.176 152.009Z" stroke="#5E5384" stroke-opacity="0.5" stroke-width="1.12318" stroke-miterlimit="10"/>
<path d="M320.736 157.225C298.902 146.421 273.895 22.6274 470.296 443.162C666.696 863.698 819.929 599.144 809.336 444.369C798.725 289.594 458.887 1140.39 224.901 670.164C-9.08412 199.937 468.125 600.016 593.642 427.607C719.159 255.198 342.571 168.047 320.736 157.225Z" stroke="#5E5384" stroke-opacity="0.5" stroke-width="1.12318" stroke-miterlimit="10"/>
<path d="M323.277 162.533C300.07 151.043 283.448 36.8649 470.722 453.52C657.995 870.176 816.644 603.153 804.623 448.935C792.602 294.718 454.285 1140.17 223.064 675.473C-8.15732 210.778 459.962 606.94 590.302 434.401C720.642 261.862 346.485 174.024 323.277 162.533Z" stroke="#5E5384" stroke-opacity="0.5" stroke-width="1.12318" stroke-miterlimit="10"/>
<path d="M325.801 167.898C301.221 155.74 292.984 51.1395 471.13 463.934C649.277 876.728 813.343 607.219 799.912 453.558C786.463 299.897 449.722 1140 221.247 680.838C-7.22901 221.674 451.819 613.938 586.982 441.269C722.146 268.6 350.381 180.057 325.801 167.898Z" stroke="#5E5384" stroke-opacity="0.5" stroke-width="1.12318" stroke-miterlimit="10"/>
<path d="M328.342 173.356C302.407 160.51 302.556 65.5071 471.556 474.441C640.557 883.374 810.059 611.377 795.199 458.273C780.34 305.169 445.14 1139.93 219.428 686.295C-6.28371 232.663 443.655 620.992 583.642 448.193C723.629 275.394 354.276 186.182 328.342 173.356Z" stroke="#5E5384" stroke-opacity="0.5" stroke-width="1.12318" stroke-miterlimit="10"/>
<path d="M330.884 178.868C303.577 165.355 312.11 79.93 471.984 485.002C631.857 890.075 806.795 615.59 790.507 463.043C774.219 310.496 440.577 1139.91 217.611 691.808C-5.35546 243.708 435.512 628.12 580.322 455.172C725.132 282.225 358.173 192.382 330.884 178.868Z" stroke="#5E5384" stroke-opacity="0.5" stroke-width="1.12318" stroke-miterlimit="10"/>
<path d="M333.407 184.474C304.745 170.293 321.664 94.446 472.41 495.657C623.157 896.869 803.511 619.897 785.813 467.906C768.115 315.916 436.013 1139.98 215.811 697.433C-4.39084 254.882 427.387 635.359 577.02 462.282C726.654 289.205 362.068 198.675 333.407 184.474Z" stroke="#5E5384" stroke-opacity="0.5" stroke-width="1.12318" stroke-miterlimit="10"/>
<path d="M335.948 190.173C305.913 175.305 331.217 109.055 472.837 506.405C614.456 903.756 800.227 624.296 781.101 472.863C761.974 321.429 431.43 1140.17 213.974 703.132C-3.48239 266.094 419.224 642.692 573.681 469.466C728.137 296.24 365.963 205.024 335.948 190.173Z" stroke="#5E5384" stroke-opacity="0.5" stroke-width="1.12318" stroke-miterlimit="10"/>
<path d="M338.471 195.928C307.083 180.391 340.753 123.719 473.245 517.209C605.738 910.698 796.925 628.77 776.389 477.893C755.853 327.017 426.868 1140.39 212.157 708.905C-2.55409 277.418 411.062 650.061 570.342 476.724C729.622 303.387 369.86 211.465 338.471 195.928Z" stroke="#5E5384" stroke-opacity="0.5" stroke-width="1.12318" stroke-miterlimit="10"/>
<path d="M340.994 201.775C308.232 185.551 350.306 138.477 473.653 528.105C596.999 917.733 793.623 633.299 771.677 482.998C749.731 332.678 422.285 1140.71 210.32 714.752C-1.64572 288.796 402.899 657.542 567.002 484.056C731.106 310.57 373.755 217.98 340.994 201.775Z" stroke="#5E5384" stroke-opacity="0.5" stroke-width="1.12318" stroke-miterlimit="10"/>
<path d="M343.516 207.678C309.382 190.786 359.841 153.308 474.061 539.057C588.28 924.806 790.32 637.903 766.946 488.158C743.572 338.414 417.702 1141.1 208.483 720.655C-0.736954 300.212 394.736 665.06 563.663 491.444C732.589 317.828 377.651 224.57 343.516 207.678Z" stroke="#5E5384" stroke-opacity="0.5" stroke-width="1.12318" stroke-miterlimit="10"/>
<path d="M346.058 213.673C310.57 196.113 369.396 168.214 474.506 550.101C579.617 931.989 787.056 642.599 762.271 493.411C737.487 344.224 413.139 1141.56 206.684 726.65C0.227966 311.739 386.611 672.67 560.361 498.924C734.111 325.179 381.547 231.234 346.058 213.673Z" stroke="#5E5384" stroke-opacity="0.5" stroke-width="1.12318" stroke-miterlimit="10"/>
<path d="M348.581 219.725C311.72 201.478 378.949 183.175 474.914 561.202C570.879 939.229 783.754 647.351 757.541 498.72C731.328 350.09 408.539 1142.08 204.847 732.701C1.1557 323.323 378.43 680.337 557.003 506.442C735.576 332.548 385.442 237.972 348.581 219.725Z" stroke="#5E5384" stroke-opacity="0.5" stroke-width="1.12318" stroke-miterlimit="10"/>
<path d="M351.104 225.832C312.889 206.916 388.485 198.192 475.323 572.358C562.161 946.524 780.452 652.158 752.829 504.085C725.206 356.011 403.956 1142.66 203.011 738.808C2.06467 334.961 370.268 688.058 553.664 514.034C737.061 340.01 389.32 244.747 351.104 225.832Z" stroke="#5E5384" stroke-opacity="0.5" stroke-width="1.12318" stroke-miterlimit="10"/>
<path d="M353.627 231.995C314.039 212.393 398.039 213.265 475.731 583.57C553.423 953.874 777.15 657.022 748.117 509.505C719.084 361.988 399.374 1143.29 201.193 744.971C3.0108 346.656 362.124 695.855 550.343 521.682C738.563 347.51 393.215 251.578 353.627 231.995Z" stroke="#5E5384" stroke-opacity="0.5" stroke-width="1.12318" stroke-miterlimit="10"/>
<path d="M356.169 238.195C315.208 217.924 407.593 228.375 476.158 594.819C544.723 961.263 773.866 661.941 743.405 514.963C712.945 368.003 394.793 1143.96 199.356 751.19C3.92029 358.424 353.962 703.688 547.005 529.386C740.048 355.083 397.112 258.465 356.169 238.195Z" stroke="#5E5384" stroke-opacity="0.5" stroke-width="1.12318" stroke-miterlimit="10"/>
<path d="M358.692 244.432C316.377 223.493 417.128 243.522 476.566 606.105C536.004 968.688 770.583 666.879 738.694 520.457C706.804 374.036 390.229 1144.68 197.539 757.427C4.84801 370.175 345.818 711.54 543.666 537.108C741.514 362.675 401.007 265.389 358.692 244.432Z" stroke="#5E5384" stroke-opacity="0.5" stroke-width="1.12318" stroke-miterlimit="10"/>
<path d="M361.215 250.706C317.527 229.08 426.682 258.706 476.993 617.428C527.303 976.15 767.299 671.853 734 525.989C700.701 380.124 385.665 1145.4 195.72 763.701C5.77533 381.999 337.655 719.429 540.345 544.867C743.035 370.304 404.903 272.331 361.215 250.706Z" stroke="#5E5384" stroke-opacity="0.5" stroke-width="1.12318" stroke-miterlimit="10"/>
<path d="M363.756 257.017C318.714 234.723 436.236 273.946 477.419 628.788C518.603 983.631 764.016 676.865 729.288 531.558C694.56 386.25 381.065 1146.18 193.884 770.012C6.70283 393.842 329.492 727.356 537.005 552.663C744.518 377.971 408.799 279.311 363.756 257.017Z" stroke="#5E5384" stroke-opacity="0.5" stroke-width="1.12318" stroke-miterlimit="10"/>
<path d="M366.279 263.328C319.864 240.348 445.771 289.167 477.827 640.149C509.884 991.148 760.714 681.877 724.576 537.126C688.438 392.375 376.501 1146.96 192.066 776.324C7.63035 405.685 321.349 735.282 533.685 560.441C746.021 385.6 412.694 286.309 366.279 263.328Z" stroke="#5E5384" stroke-opacity="0.5" stroke-width="1.12318" stroke-miterlimit="10"/>
<path d="M368.821 269.658C321.033 246.009 455.343 304.407 478.254 651.527C501.165 998.648 757.43 686.908 719.883 542.714C682.335 398.538 371.937 1147.76 190.248 782.653C8.55783 417.546 313.205 743.227 530.346 568.256C747.487 393.285 416.59 293.307 368.821 269.658Z" stroke="#5E5384" stroke-opacity="0.5" stroke-width="1.12318" stroke-miterlimit="10"/>
<path d="M371.344 276.006C322.202 251.69 464.879 319.666 478.662 662.925C492.446 1006.18 754.146 691.957 715.171 548.338C676.195 404.719 367.355 1148.6 188.43 789.02C9.50404 429.445 305.042 751.208 527.025 576.108C749.008 401.007 420.486 300.323 371.344 276.006Z" stroke="#5E5384" stroke-opacity="0.5" stroke-width="1.12318" stroke-miterlimit="10"/>
<path d="M373.885 282.374C323.37 257.37 474.45 334.943 479.107 674.341C483.763 1013.74 750.862 697.024 710.476 553.944C670.09 410.882 362.791 1149.41 186.611 795.369C10.4308 441.325 296.897 759.19 523.704 583.941C750.51 408.692 424.399 307.359 373.885 282.374Z" stroke="#5E5384" stroke-opacity="0.5" stroke-width="1.12318" stroke-miterlimit="10"/>
<path d="M376.427 288.722C324.558 263.05 484.005 350.201 479.534 685.738C475.064 1021.28 747.58 702.073 705.765 559.55C663.951 417.045 358.21 1150.23 184.794 801.717C11.3781 453.205 288.755 767.154 520.384 591.774C752.013 416.395 428.296 314.394 376.427 288.722Z" stroke="#5E5384" stroke-opacity="0.5" stroke-width="1.12318" stroke-miterlimit="10"/>
<path d="M378.968 295.089C325.727 268.73 493.559 365.478 479.961 697.154C466.363 1028.83 744.296 707.141 701.072 565.193C657.848 423.245 353.646 1151.08 182.976 808.103C12.3053 465.122 280.61 775.154 517.045 599.645C753.479 424.136 432.21 321.448 378.968 295.089Z" stroke="#5E5384" stroke-opacity="0.5" stroke-width="1.12318" stroke-miterlimit="10"/>
<path d="M381.51 301.475C326.914 274.447 503.131 380.774 480.388 708.589C457.644 1036.4 741.012 712.227 696.378 570.836C651.726 429.445 349.083 1151.96 181.176 814.488C13.2701 477.021 272.467 783.155 513.743 607.516C755.019 431.877 436.106 328.502 381.51 301.475Z" stroke="#5E5384" stroke-opacity="0.5" stroke-width="1.12318" stroke-miterlimit="10"/>
<path d="M384.051 307.841C328.082 280.146 512.685 396.069 480.814 720.004C448.943 1043.96 737.728 717.294 691.666 576.46C645.603 435.626 344.518 1152.79 179.339 820.855C14.1599 488.919 264.303 791.136 510.403 615.349C756.502 439.561 440.02 335.536 384.051 307.841Z" stroke="#5E5384" stroke-opacity="0.5" stroke-width="1.12318" stroke-miterlimit="10"/>
<path d="M386.592 314.208C329.25 285.826 522.256 411.346 481.258 731.421C440.26 1051.51 734.463 722.362 686.99 582.085C639.5 441.807 339.973 1153.63 177.558 827.222C15.1427 500.818 256.196 799.118 507.119 623.201C758.041 447.283 443.934 342.59 386.592 314.208Z" stroke="#5E5384" stroke-opacity="0.5" stroke-width="1.12318" stroke-miterlimit="10"/>
<path d="M389.153 320.594C330.457 291.543 531.83 426.642 481.705 742.855C431.579 1059.09 731.217 727.448 682.316 587.728C633.416 448.007 335.429 1154.48 175.759 833.608C16.0897 512.735 248.072 807.137 503.799 631.09C759.526 455.042 447.849 349.644 389.153 320.594Z" stroke="#5E5384" stroke-opacity="0.5" stroke-width="1.12318" stroke-miterlimit="10"/>
<path d="M391.713 326.961C331.645 297.242 541.402 441.919 482.15 754.271C422.898 1066.62 727.952 732.516 677.623 593.352C627.312 454.189 330.865 1155.32 173.96 839.993C17.0544 524.671 239.946 815.138 500.497 638.942C761.048 462.746 451.782 356.698 391.713 326.961Z" stroke="#5E5384" stroke-opacity="0.5" stroke-width="1.12318" stroke-miterlimit="10"/>
<path d="M394.273 333.346C332.85 302.941 550.993 457.214 482.595 765.706C414.197 1074.2 724.687 737.602 672.948 598.995C621.209 460.389 326.32 1156.17 172.161 846.379C18.0006 536.588 231.802 823.138 497.195 646.813C762.587 470.487 455.696 363.752 394.273 333.346Z" stroke="#5E5384" stroke-opacity="0.5" stroke-width="1.12318" stroke-miterlimit="10"/>
<path d="M396.832 339.713C334.037 308.64 560.565 472.491 483.04 777.122C405.514 1081.75 721.422 742.67 668.254 604.62C615.105 466.57 321.756 1157 170.36 852.746C18.9644 548.487 223.676 831.12 493.892 654.664C764.108 478.209 459.628 370.787 396.832 339.713Z" stroke="#5E5384" stroke-opacity="0.5" stroke-width="1.12318" stroke-miterlimit="10"/>
<path d="M399.392 346.08C335.224 314.32 570.137 487.768 483.485 788.538C396.832 1089.31 718.157 747.737 663.579 610.244C609.002 472.751 317.211 1157.84 168.561 859.113C19.9105 560.385 215.551 839.102 490.571 662.516C765.592 485.931 463.561 377.841 399.392 346.08Z" stroke="#5E5384" stroke-opacity="0.5" stroke-width="1.12318" stroke-miterlimit="10"/>
<path d="M401.971 352.447C336.449 320.018 579.747 503.045 483.967 799.954C388.188 1096.86 714.929 752.805 658.941 615.869C602.936 478.951 312.703 1158.69 166.798 865.498C20.8939 572.302 207.463 847.103 487.306 670.368C767.15 493.634 467.494 384.876 401.971 352.447Z" stroke="#5E5384" stroke-opacity="0.5" stroke-width="1.12318" stroke-miterlimit="10"/>
<path d="M404.55 358.814C337.655 325.717 589.338 518.341 484.431 811.37C379.524 1104.4 711.683 757.872 654.267 621.493C596.851 485.114 308.177 1159.53 165.036 871.865C21.8958 584.201 199.356 855.085 484.042 678.22C768.727 501.356 471.445 391.911 404.55 358.814Z" stroke="#5E5384" stroke-opacity="0.5" stroke-width="1.12318" stroke-miterlimit="10"/>
<path d="M407.128 365.181C338.879 331.397 598.947 533.618 484.895 822.786C370.842 1111.95 708.436 762.94 649.61 627.118C590.785 491.295 303.65 1160.35 163.255 878.214C22.8603 596.081 191.249 863.048 480.758 686.054C770.267 509.06 475.397 398.946 407.128 365.181Z" stroke="#5E5384" stroke-opacity="0.5" stroke-width="1.12318" stroke-miterlimit="10"/>
<path d="M409.725 371.529C340.103 337.077 608.556 548.876 485.377 834.183C362.197 1119.49 705.208 767.989 644.972 632.723C584.737 497.458 299.124 1161.18 161.493 884.58C23.8619 607.979 183.16 871.048 477.474 693.906C771.788 516.763 479.348 405.982 409.725 371.529Z" stroke="#5E5384" stroke-opacity="0.5" stroke-width="1.12318" stroke-miterlimit="10"/>
<path d="M412.323 377.878C341.347 342.739 618.167 564.135 485.86 845.581C353.553 1127.03 701.981 773.038 640.317 638.329C578.653 503.621 294.616 1162 159.75 890.929C24.8828 619.86 175.091 879.012 474.228 701.739C773.365 524.467 483.3 413.017 412.323 377.878Z" stroke="#5E5384" stroke-opacity="0.5" stroke-width="1.12318" stroke-miterlimit="10"/>
<path d="M414.92 384.226C342.57 348.419 627.794 579.393 486.36 856.978C344.926 1134.56 698.77 778.087 635.697 643.935C572.623 509.784 290.126 1162.82 157.986 897.277C25.8467 631.74 166.984 886.975 470.963 709.573C774.941 532.17 487.269 420.034 414.92 384.226Z" stroke="#5E5384" stroke-opacity="0.5" stroke-width="1.12318" stroke-miterlimit="10"/>
<path d="M417.536 389.146C343.814 352.67 637.422 593.222 486.861 866.946C336.3 1140.67 695.58 781.725 631.078 648.131C566.576 514.536 285.619 1162.22 156.243 902.215C26.8675 642.209 158.914 893.528 467.717 715.995C776.519 538.463 491.258 425.64 417.536 389.146Z" stroke="#5E5384" stroke-opacity="0.5" stroke-width="1.12318" stroke-miterlimit="10"/>
<path d="M420.151 393.341C345.075 356.178 647.05 606.328 487.362 876.19C327.674 1146.05 692.371 784.621 626.44 651.583C560.509 518.545 281.129 1160.88 154.499 906.41C27.8691 651.936 150.844 899.338 464.451 721.657C778.058 543.976 495.228 430.503 420.151 393.341Z" stroke="#5E5384" stroke-opacity="0.5" stroke-width="1.12318" stroke-miterlimit="10"/>
<path d="M422.786 397.517C346.336 359.687 656.715 619.414 487.882 885.416C319.048 1151.42 689.18 787.498 621.839 655.017C554.499 522.536 276.658 1159.53 152.792 910.587C28.9265 661.644 142.812 905.129 461.242 727.318C779.672 549.507 499.235 435.366 422.786 397.517Z" stroke="#5E5384" stroke-opacity="0.5" stroke-width="1.12318" stroke-miterlimit="10"/>
<path d="M425.419 401.694C347.616 363.176 666.362 632.501 488.4 894.641C310.439 1156.78 685.989 790.375 617.22 658.451C548.451 526.527 272.169 1158.17 151.048 914.763C29.9278 671.352 134.742 910.921 457.995 732.98C781.249 555.039 503.223 440.192 425.419 401.694Z" stroke="#5E5384" stroke-opacity="0.5" stroke-width="1.12318" stroke-miterlimit="10"/>
<path d="M428.073 405.833C348.897 366.648 676.046 645.569 488.958 903.83C301.87 1162.09 682.836 793.216 612.657 661.848C542.478 530.481 267.736 1156.78 149.361 918.903C30.9861 681.023 126.71 916.694 454.805 738.604C782.9 560.515 507.249 445.019 428.073 405.833Z" stroke="#5E5384" stroke-opacity="0.5" stroke-width="1.12318" stroke-miterlimit="10"/>
<path d="M430.726 409.954C350.177 370.1 685.711 658.6 489.496 913C293.28 1167.4 679.663 796.037 608.075 665.226C536.486 534.416 263.283 1155.37 147.673 923.042C32.062 690.713 118.696 922.448 451.596 744.229C784.496 566.009 511.275 449.826 430.726 409.954Z" stroke="#5E5384" stroke-opacity="0.5" stroke-width="1.12318" stroke-miterlimit="10"/>
<path d="M432.859 414.075C350.955 373.534 694.856 671.631 489.514 922.17C284.171 1172.71 675.971 798.858 602.954 668.605C529.937 538.351 258.311 1153.96 145.446 927.144C32.5809 700.328 110.143 928.165 447.867 749.816C785.59 571.467 514.762 454.616 432.859 414.075Z" stroke="#5E5384" stroke-opacity="0.5" stroke-width="1.12318" stroke-miterlimit="10"/>
<path d="M432.841 418.177C349.565 376.968 701.869 684.643 487.381 931.321C272.893 1178 670.128 801.662 595.701 671.965C521.274 542.268 251.169 1152.53 141.068 931.247C30.9674 709.962 99.4396 933.883 441.986 755.404C784.533 576.924 516.098 459.386 432.841 418.177Z" stroke="#5E5384" stroke-opacity="0.5" stroke-width="1.12318" stroke-miterlimit="10"/>
<path d="M432.803 422.243C348.173 380.347 708.844 697.618 485.229 940.435C261.613 1183.25 664.266 804.427 588.429 675.288C512.592 546.148 244.045 1151.08 136.69 935.331C29.3346 719.578 88.7168 939.581 436.105 760.954C783.494 582.326 517.433 464.138 432.803 422.243Z" stroke="#5E5384" stroke-opacity="0.5" stroke-width="1.12318" stroke-miterlimit="10"/>
<path d="M432.766 426.308C346.763 383.744 715.819 710.612 483.095 949.568C250.371 1188.52 658.422 807.212 581.157 678.629C503.891 550.046 236.903 1149.62 132.293 939.396C27.6836 729.175 77.9943 945.261 430.188 766.504C782.381 587.746 518.769 468.872 432.766 426.308Z" stroke="#5E5384" stroke-opacity="0.5" stroke-width="1.12318" stroke-miterlimit="10"/>
<path d="M432.729 430.354C345.372 387.122 722.813 723.55 480.943 958.645C239.074 1193.74 652.56 809.94 573.884 681.914C495.209 553.888 229.761 1148.11 127.915 943.424C26.0696 738.734 67.2902 950.905 424.307 772.017C781.323 593.13 520.086 473.605 432.729 430.354Z" stroke="#5E5384" stroke-opacity="0.5" stroke-width="1.12318" stroke-miterlimit="10"/>
<path d="M432.692 434.383C343.962 390.464 729.789 736.489 478.792 967.723C227.795 1198.96 646.698 812.669 566.594 685.2C486.491 557.731 222.601 1146.63 123.501 947.471C24.4004 748.313 56.5495 956.567 418.389 777.549C780.229 598.532 521.422 478.302 432.692 434.383Z" stroke="#5E5384" stroke-opacity="0.5" stroke-width="1.12318" stroke-miterlimit="10"/>
<path d="M432.637 438.392C342.534 393.805 736.764 749.426 476.622 976.781C216.479 1204.14 640.836 815.379 559.304 688.467C477.772 561.555 215.459 1145.11 119.104 951.499C22.7495 757.891 45.8086 962.228 412.49 783.062C779.172 603.896 522.74 482.998 432.637 438.392Z" stroke="#5E5384" stroke-opacity="0.5" stroke-width="1.12318" stroke-miterlimit="10"/>
<path d="M432.599 442.383C341.142 397.109 743.739 762.327 474.469 985.821C205.2 1209.31 634.974 818.071 552.031 691.715C469.089 565.36 208.316 1143.58 114.726 955.489C21.1352 767.395 35.1042 967.834 406.591 788.538C778.077 609.242 524.056 487.657 432.599 442.383Z" stroke="#5E5384" stroke-opacity="0.5" stroke-width="1.12318" stroke-miterlimit="10"/>
<path d="M432.563 446.374C339.733 400.431 750.715 775.228 472.318 994.861C193.921 1214.49 629.112 820.762 544.741 694.964C460.371 569.165 201.156 1142.02 110.33 959.462C19.5032 776.899 24.3821 973.421 400.692 793.995C777.002 614.569 525.393 492.316 432.563 446.374Z" stroke="#5E5384" stroke-opacity="0.5" stroke-width="1.12318" stroke-miterlimit="10"/>
<path d="M432.524 450.328C338.34 403.717 757.707 788.092 470.183 1003.86C182.659 1219.63 623.267 823.417 537.487 698.194C451.706 572.971 194.012 1140.45 105.932 963.416C17.8509 786.385 13.6584 978.99 394.791 799.415C775.924 619.841 526.709 496.938 432.524 450.328Z" stroke="#5E5384" stroke-opacity="0.5" stroke-width="1.12318" stroke-miterlimit="10"/>
<path d="M432.488 454.263C336.932 406.965 764.684 800.937 468.032 1012.85C171.381 1224.76 617.406 826.071 530.216 701.386C443.026 576.702 186.872 1138.87 101.536 967.369C16.2011 795.87 2.93703 984.558 388.893 804.854C774.85 625.15 528.045 501.56 432.488 454.263Z" stroke="#5E5384" stroke-opacity="0.5" stroke-width="1.12318" stroke-miterlimit="10"/>
<path d="M432.47 458.18C335.54 410.214 771.696 813.765 465.899 1021.81C160.102 1229.86 611.562 828.67 522.944 704.561C434.325 580.451 179.748 1137.25 97.1581 971.286C14.5685 805.318 -7.78564 990.09 382.994 810.256C773.774 630.422 529.381 506.164 432.47 458.18Z" stroke="#5E5384" stroke-opacity="0.5" stroke-width="1.12318" stroke-miterlimit="10"/>
<path d="M432.432 462.096C334.148 413.444 778.67 826.591 463.746 1030.78C148.822 1234.97 605.718 831.287 515.689 707.735C425.66 584.182 172.623 1135.62 92.779 975.203C12.9349 814.785 -18.4907 995.622 377.112 815.658C772.715 635.694 530.734 510.73 432.432 462.096Z" stroke="#5E5384" stroke-opacity="0.5" stroke-width="1.12318" stroke-miterlimit="10"/>
<path d="M432.432 465.976C332.776 416.655 785.683 839.381 461.632 1039.71C137.581 1240.04 599.875 833.868 508.418 710.872C416.961 587.876 165.5 1133.99 88.4202 979.083C11.3402 824.178 -29.1755 1001.13 371.251 821.022C771.677 640.91 532.071 515.297 432.432 465.976Z" stroke="#5E5384" stroke-opacity="0.5" stroke-width="1.12318" stroke-miterlimit="10"/>
<path d="M432.414 469.837C331.403 419.848 792.695 852.17 459.517 1048.62C126.339 1245.07 594.05 836.429 501.183 713.99C408.316 591.552 158.376 1132.32 84.0606 982.962C9.74473 833.607 -39.861 1006.63 365.388 826.387C770.638 646.144 533.443 519.844 432.414 469.837Z" stroke="#5E5384" stroke-opacity="0.5" stroke-width="1.12318" stroke-miterlimit="10"/>
<path d="M432.432 473.698C330.049 423.022 799.726 864.941 457.421 1057.53C115.115 1250.11 588.243 838.991 493.966 717.109C399.69 595.227 151.29 1130.65 79.7196 986.805C8.14934 842.963 -50.5464 1012.09 359.526 831.714C769.599 651.342 534.798 524.374 432.432 473.698Z" stroke="#5E5384" stroke-opacity="0.5" stroke-width="1.12318" stroke-miterlimit="10"/>
<path d="M432.433 477.522C328.695 426.178 806.757 877.675 455.306 1066.4C103.855 1255.13 582.419 841.515 486.713 720.19C391.008 598.865 144.167 1128.94 75.3605 990.628C6.5544 852.319 -61.2314 1017.53 353.665 837.005C768.561 656.484 536.189 528.866 432.433 477.522Z" stroke="#5E5384" stroke-opacity="0.5" stroke-width="1.12318" stroke-miterlimit="10"/>
<path d="M432.469 481.346C327.359 429.315 813.806 890.409 453.228 1075.27C92.6496 1260.14 576.63 844.04 479.515 723.272C382.4 602.504 137.098 1127.23 71.0376 994.452C4.97698 861.674 -71.8804 1022.96 347.839 842.314C767.558 661.663 537.58 533.358 432.469 481.346Z" stroke="#5E5384" stroke-opacity="0.5" stroke-width="1.12318" stroke-miterlimit="10"/>
<path d="M431.987 485.132C325.504 432.433 820.337 903.106 450.631 1084.11C80.9257 1265.11 570.342 846.527 471.798 726.316C373.254 606.105 129.53 1125.49 66.2146 998.258C2.89962 871.03 -83.0293 1028.38 341.513 847.604C766.056 666.823 538.471 537.832 431.987 485.132Z" stroke="#5E5384" stroke-opacity="0.5" stroke-width="1.12318" stroke-miterlimit="10"/>
<path d="M430.522 488.901C322.684 435.533 825.902 915.784 447.069 1092.93C68.2366 1270.07 563.07 849.015 463.097 729.342C363.125 609.669 120.94 1123.74 60.3895 1002.04C-0.161431 880.348 -95.1989 1033.79 334.167 852.876C763.533 671.965 538.359 542.287 430.522 488.901Z" stroke="#5E5384" stroke-opacity="0.5" stroke-width="1.12318" stroke-miterlimit="10"/>
<path d="M429.074 492.669C319.864 438.615 831.467 928.463 443.507 1101.74C55.5473 1275.03 555.797 851.484 454.415 732.368C353.033 613.252 112.406 1121.96 54.6012 1005.79C-3.20417 889.63 -107.313 1039.17 326.858 858.11C761.028 677.051 538.285 546.705 429.074 492.669Z" stroke="#5E5384" stroke-opacity="0.5" stroke-width="1.12318" stroke-miterlimit="10"/>
<path d="M427.646 496.4C317.081 441.677 837.051 941.103 439.964 1110.52C42.8768 1279.94 548.543 853.915 445.752 735.356C342.96 616.797 103.873 1120.16 48.8132 1009.52C-6.24653 898.892 -119.427 1044.52 319.586 863.326C758.598 682.137 538.229 551.122 427.646 496.4Z" stroke="#5E5384" stroke-opacity="0.5" stroke-width="1.12318" stroke-miterlimit="10"/>
<path d="M426.254 500.113C314.317 444.703 842.69 953.745 436.458 1119.29C30.2249 1284.83 541.327 856.328 437.107 738.326C332.887 620.324 95.3579 1118.36 43.0622 1013.26C-9.23342 908.155 -131.504 1049.86 312.332 868.543C756.168 687.223 538.192 555.522 426.254 500.113Z" stroke="#5E5384" stroke-opacity="0.5" stroke-width="1.12318" stroke-miterlimit="10"/>
<path d="M424.882 503.825C311.571 447.747 848.33 966.367 432.97 1128.05C17.6103 1289.73 534.129 858.741 428.499 741.296C322.869 623.85 86.8802 1116.52 37.3301 1016.95C-12.22 917.38 -143.562 1055.17 305.079 873.703C753.719 692.235 538.174 559.902 424.882 503.825Z" stroke="#5E5384" stroke-opacity="0.5" stroke-width="1.12318" stroke-miterlimit="10"/>
<path d="M423.528 507.5C308.863 450.754 853.988 978.953 429.501 1136.77C5.01435 1294.59 526.95 861.117 419.892 744.247C312.833 627.377 78.4026 1114.68 31.6166 1020.64C-15.1879 926.606 -155.62 1060.48 297.863 878.882C751.345 697.284 538.192 564.246 423.528 507.5Z" stroke="#5E5384" stroke-opacity="0.5" stroke-width="1.12318" stroke-miterlimit="10"/>
<path d="M422.192 511.157C306.155 453.725 859.683 991.52 426.069 1145.48C-7.54513 1299.44 519.808 863.475 411.339 747.162C302.871 630.849 69.98 1112.83 25.9397 1024.3C-18.1007 935.795 -167.623 1065.75 290.683 884.024C748.989 702.296 538.229 568.59 422.192 511.157Z" stroke="#5E5384" stroke-opacity="0.5" stroke-width="1.12318" stroke-miterlimit="10"/>
<path d="M420.894 514.814C303.502 456.713 865.397 1004.09 422.656 1154.18C-20.0853 1304.28 512.685 865.832 402.806 750.076C292.928 634.32 61.5768 1110.93 20.282 1027.96C-21.0128 944.983 -179.606 1071.02 283.523 889.166C746.652 707.308 538.285 572.915 420.894 514.814Z" stroke="#5E5384" stroke-opacity="0.5" stroke-width="1.12318" stroke-miterlimit="10"/>
<path d="M419.614 518.434C300.85 459.646 871.149 1016.62 419.262 1162.85C-32.6255 1309.09 505.58 868.153 394.273 752.953C282.966 637.754 53.1921 1109.04 14.6614 1031.58C-23.8693 954.116 -191.553 1076.26 276.381 894.27C744.314 712.283 538.378 577.203 419.614 518.434Z" stroke="#5E5384" stroke-opacity="0.5" stroke-width="1.12318" stroke-miterlimit="10"/>
<path d="M418.352 522.035C298.215 462.579 876.899 1029.13 415.885 1171.5C-45.1296 1313.88 498.493 870.454 385.776 755.812C273.059 641.169 44.8248 1107.11 9.03964 1035.2C-26.7455 963.286 -203.519 1081.51 269.256 899.375C742.032 717.239 538.489 581.491 418.352 522.035Z" stroke="#5E5384" stroke-opacity="0.5" stroke-width="1.12318" stroke-miterlimit="10"/>
<path d="M417.128 525.617C295.636 465.493 882.687 1041.62 412.546 1180.13C-57.5957 1318.65 491.462 872.738 377.317 758.652C263.172 644.566 36.4771 1105.16 3.45613 1038.78C-29.5834 972.4 -215.429 1086.71 262.17 904.442C739.769 722.176 538.619 585.76 417.128 525.617Z" stroke="#5E5384" stroke-opacity="0.5" stroke-width="1.12318" stroke-miterlimit="10"/>
<path d="M415.903 529.182C293.039 468.371 888.494 1054.11 409.225 1188.75C-70.0435 1323.38 484.431 875.002 368.858 761.474C253.284 647.945 28.1662 1103.19 -2.10928 1042.34C-32.3847 981.496 -227.32 1091.89 255.102 909.473C737.524 727.059 538.768 589.993 415.903 529.182Z" stroke="#5E5384" stroke-opacity="0.5" stroke-width="1.12318" stroke-miterlimit="10"/>
<path d="M414.716 532.727C290.498 471.248 894.318 1066.57 405.923 1197.34C-82.473 1328.11 477.419 877.248 360.435 764.277C243.452 651.305 19.8736 1101.22 -7.65628 1045.89C-35.1862 990.573 -239.193 1097.05 248.034 914.503C735.261 731.959 538.934 594.206 414.716 532.727Z" stroke="#5E5384" stroke-opacity="0.5" stroke-width="1.12318" stroke-miterlimit="10"/>
<path d="M413.547 536.254C287.956 474.088 900.162 1079 402.639 1205.92C-94.8837 1332.83 470.425 879.476 352.013 767.061C233.601 654.646 11.5999 1099.22 -13.1845 1049.43C-37.9502 999.631 -251.047 1102.21 241.003 919.534C733.053 736.86 539.138 598.42 413.547 536.254Z" stroke="#5E5384" stroke-opacity="0.5" stroke-width="1.12318" stroke-miterlimit="10"/>
<path d="M412.397 539.762C285.451 476.928 906.042 1091.42 399.374 1214.47C-107.295 1337.53 463.45 881.685 343.628 769.827C223.806 657.969 3.34433 1097.2 -18.6759 1052.94C-40.6961 1008.69 -262.883 1107.33 234.009 924.527C730.901 741.723 539.361 602.596 412.397 539.762Z" stroke="#5E5384" stroke-opacity="0.5" stroke-width="1.12318" stroke-miterlimit="10"/>
<path d="M411.266 543.252C282.948 479.749 911.924 1103.82 396.128 1223.01C-119.668 1342.2 456.494 883.875 335.262 772.574C214.03 661.273 -4.89168 1095.15 -24.1663 1056.43C-43.4409 1017.71 -274.699 1112.44 227.016 929.502C728.731 746.568 539.584 606.773 411.266 543.252Z" stroke="#5E5384" stroke-opacity="0.5" stroke-width="1.12318" stroke-miterlimit="10"/>
<path d="M410.172 546.723C280.481 482.534 917.86 1116.2 392.938 1231.53C-131.985 1346.86 449.593 886.047 326.933 775.303C204.273 664.558 -13.1096 1093.09 -29.6201 1059.9C-46.1306 1026.71 -286.479 1117.54 220.041 934.458C726.561 751.376 539.844 610.912 410.172 546.723Z" stroke="#5E5384" stroke-opacity="0.5" stroke-width="1.12318" stroke-miterlimit="10"/>
<path d="M409.077 550.176C278.032 485.318 923.778 1128.57 389.728 1240.04C-144.322 1351.5 442.673 888.2 318.603 778.013C194.533 667.825 -21.3091 1091.01 -35.0741 1063.36C-48.839 1035.7 -298.259 1122.61 213.084 939.396C724.428 756.183 540.122 615.033 409.077 550.176Z" stroke="#5E5384" stroke-opacity="0.5" stroke-width="1.12318" stroke-miterlimit="10"/>
<path d="M408 553.591C275.582 488.047 929.714 1140.89 386.536 1248.5C-156.641 1356.11 435.771 890.316 310.291 780.686C184.811 671.055 -29.4913 1088.92 -40.4921 1066.77C-51.5115 1044.65 -310.022 1127.64 206.164 944.278C722.349 760.917 540.418 619.136 408 553.591Z" stroke="#5E5384" stroke-opacity="0.5" stroke-width="1.12318" stroke-miterlimit="10"/>
<path d="M406.943 557.007C273.171 490.794 935.688 1153.24 383.365 1256.96C-168.958 1360.69 428.889 892.432 301.981 783.377C175.073 674.322 -37.6346 1086.78 -45.9084 1070.19C-54.1822 1053.59 -321.764 1132.67 199.245 949.178C720.253 765.687 540.734 623.219 406.943 557.007Z" stroke="#5E5384" stroke-opacity="0.5" stroke-width="1.12318" stroke-miterlimit="10"/>
<path d="M405.923 560.404C270.778 493.523 941.68 1165.54 380.23 1265.41C-181.221 1365.28 422.044 894.53 293.726 786.032C165.407 677.534 -45.7787 1084.65 -51.2884 1073.58C-56.7981 1062.52 -333.47 1137.68 192.344 954.06C718.157 770.439 541.068 627.285 405.923 560.404Z" stroke="#5E5384" stroke-opacity="0.5" stroke-width="1.12318" stroke-miterlimit="10"/>
<path d="M404.902 563.763C268.384 496.196 947.671 1177.81 377.094 1273.82C-193.483 1369.82 415.198 896.59 285.451 788.649C155.704 680.708 -53.9047 1082.49 -56.6689 1076.96C-59.4144 1071.43 -345.176 1142.67 185.461 958.923C716.097 775.173 541.401 631.331 404.902 563.763Z" stroke="#5E5384" stroke-opacity="0.5" stroke-width="1.12318" stroke-miterlimit="10"/>
<path d="M-62.0109 1080.3C-62.0109 1080.3 -356.863 1147.63 178.616 963.75C714.094 779.869 541.773 635.359 403.901 567.123C266.029 498.887 953.701 1190.08 373.996 1282.23C-205.708 1374.37 408.409 898.651 277.234 791.266C146.059 683.882 -62.0109 1080.3 -62.0109 1080.3Z" stroke="#5E5384" stroke-opacity="0.5" stroke-width="1.12318" stroke-miterlimit="10"/>
</g>
</svg>
