<svg width="37" height="37" viewBox="0 0 37 37" fill="none" xmlns="http://www.w3.org/2000/svg">
<path fill-rule="evenodd" clip-rule="evenodd" d="M1.69402 1.94134V34.8002H34.5528V1.94134H1.69402ZM1.44696 0.458984C0.76473 0.458984 0.21167 1.01205 0.21167 1.69428V35.0472C0.21167 35.7295 0.764731 36.2825 1.44696 36.2825H34.7999C35.4821 36.2825 36.0352 35.7295 36.0352 35.0472V1.69428C36.0352 1.01204 35.4821 0.458984 34.7999 0.458984H1.44696Z" fill="#47BCCA"/>
<path fill-rule="evenodd" clip-rule="evenodd" d="M30.2293 4.78223C31.048 4.78223 31.7117 5.4459 31.7117 6.26458L31.7117 10.2175C31.7117 10.6269 31.3798 10.9587 30.9705 10.9587C30.5612 10.9587 30.2293 10.6269 30.2293 10.2175L30.2293 6.26458L26.2764 6.26458C25.867 6.26458 25.5352 5.93274 25.5352 5.5234C25.5352 5.11406 25.867 4.78223 26.2764 4.78223L30.2293 4.78223Z" fill="#47BCCA"/>
<path fill-rule="evenodd" clip-rule="evenodd" d="M4.90576 6.26458C4.90576 5.4459 5.56943 4.78223 6.38811 4.78223H10.3411C10.7504 4.78223 11.0822 5.11406 11.0822 5.5234C11.0822 5.93274 10.7504 6.26458 10.3411 6.26458H6.38811V10.2175C6.38811 10.6269 6.05628 10.9587 5.64694 10.9587C5.2376 10.9587 4.90576 10.6269 4.90576 10.2175V6.26458Z" fill="#47BCCA"/>
<path fill-rule="evenodd" clip-rule="evenodd" d="M6.38811 32.082C5.56943 32.082 4.90576 31.4184 4.90576 30.5997L4.90576 26.6467C4.90576 26.2374 5.2376 25.9056 5.64694 25.9056C6.05628 25.9056 6.38812 26.2374 6.38812 26.6467L6.38811 30.5997L10.3411 30.5997C10.7504 30.5997 11.0822 30.9315 11.0822 31.3409C11.0822 31.7502 10.7504 32.082 10.3411 32.082L6.38811 32.082Z" fill="#47BCCA"/>
<path fill-rule="evenodd" clip-rule="evenodd" d="M31.7117 30.5997C31.7117 31.4184 31.048 32.082 30.2293 32.082L26.2764 32.082C25.867 32.082 25.5352 31.7502 25.5352 31.3409C25.5352 30.9315 25.867 30.5997 26.2764 30.5997L30.2293 30.5997L30.2293 26.6467C30.2293 26.2374 30.5612 25.9056 30.9705 25.9056C31.3798 25.9056 31.7117 26.2374 31.7117 26.6467L31.7117 30.5997Z" fill="#47BCCA"/>
<path d="M27.7626 18.3703C21.5701 24.351 15.3777 24.351 9.18408 18.3703C15.3765 12.3896 21.569 12.3896 27.7626 18.3703Z" fill="#F9F8F7"/>
<path d="M18.4739 23.4361C15.238 23.4361 12.0021 21.8839 8.78916 18.7808L8.3645 18.3711L8.78916 17.9613C15.2151 11.7551 21.7326 11.7551 28.1586 17.9613L28.5833 18.3711L28.1586 18.7808C24.9456 21.8839 21.7098 23.4361 18.4739 23.4361ZM10.0151 18.3711C15.7016 23.6043 21.2462 23.6043 26.9327 18.3711C21.2462 13.1378 15.7016 13.1378 10.0151 18.3711Z" fill="#47BCCA"/>
<path d="M18.474 21.619C20.2681 21.619 21.7225 20.1646 21.7225 18.3705C21.7225 16.5765 20.2681 15.1221 18.474 15.1221C16.68 15.1221 15.2256 16.5765 15.2256 18.3705C15.2256 20.1646 16.68 21.619 18.474 21.619Z" fill="#47BCCA"/>
<path d="M17.6247 17.8969C18.0938 17.8969 18.474 17.5166 18.474 17.0476C18.474 16.5785 18.0938 16.1982 17.6247 16.1982C17.1556 16.1982 16.7754 16.5785 16.7754 17.0476C16.7754 17.5166 17.1556 17.8969 17.6247 17.8969Z" fill="white"/>
</svg>
