<svg width="200" height="24" viewBox="0 0 200 24" fill="none" xmlns="http://www.w3.org/2000/svg">
<path d="M136.916 0.286133L129.195 19.0445L121.432 0.286133H118.626L128.266 23.3838H130.086L139.722 0.286133H136.916Z" fill="white"/>
<path d="M148.272 0.286133H145.698V23.3838H148.272V0.286133Z" fill="white"/>
<path d="M189.27 4.29393L193.858 15.2978H184.682L189.27 4.29393V4.29393ZM188.283 0.286133L178.544 23.3838H181.316L183.695 17.6809H194.852L197.231 23.3838H200L190.264 0.286133H188.283V0.286133Z" fill="white"/>
<path d="M63.279 0.439148H58.2101V23.3835H63.279V0.439148Z" fill="white"/>
<path d="M81.6483 0C85.3701 0 88.6568 1.64539 90.9322 4.28134L87.4756 7.21155C86.025 5.59931 83.9527 4.61291 81.6483 4.61291C77.5701 4.61291 74.3746 7.7089 74.3746 11.8576C74.3746 16.0063 77.5701 19.065 81.6483 19.065C83.9527 19.065 86.0581 18.0786 87.5087 16.4332L90.9653 19.3593C88.6941 22.0284 85.3701 23.6738 81.6483 23.6738C74.8346 23.6738 69.3058 18.7044 69.3058 11.8576C69.3058 5.01079 74.8346 0 81.6483 0Z" fill="white"/>
<path d="M96.2949 0.443604V23.3838H112.193V18.7792H101.364V13.872H111.269V9.36272H101.364V5.04822H111.961V0.443604H96.2949Z" fill="white"/>
<path d="M163.359 21.0007C169.762 21.0007 172.833 17.2208 172.833 11.8495C172.833 6.47812 169.762 2.66926 163.33 2.66926H158.708V21.0007H163.359V21.0007ZM156.13 0.286133H163.524C170.985 0.286133 175.407 5.02338 175.407 11.8495C175.407 18.6756 171.018 23.3838 163.558 23.3838H156.13V0.286133Z" fill="white"/>
<path d="M23.0977 0.439148H0V3.71336H23.0977V0.439148Z" fill="white"/>
<path d="M23.0977 7.02106H0V10.2953H23.0977V7.02106Z" fill="white"/>
<path d="M23.0977 13.6026H0V16.8727H23.0977V13.6026Z" fill="white"/>
<path d="M23.0977 20.1801H0V23.4543H23.0977V20.1801Z" fill="white"/>
<path d="M44.2883 19.0068C46 19.0068 47.2516 17.7925 47.2516 16.2092C47.2516 14.626 46.0331 13.5111 44.2551 13.5111H39.9116V19.0068H44.2883ZM43.2355 9.59036C44.682 9.59036 45.7016 8.5708 45.7016 7.1575C45.7016 5.7442 44.682 4.7868 43.2687 4.7868H39.9116V9.59036H43.2355ZM34.9423 0.439148H44.0603C47.7158 0.439148 50.6129 2.90517 50.6129 6.29957C50.6129 8.50448 49.527 10.2493 47.6785 10.9083C50.7124 11.4347 52.2914 13.7391 52.2914 16.6071C52.2914 20.4906 49.3281 23.3876 45.3161 23.3876H34.9464V0.439148H34.9423Z" fill="white"/>
</svg>
