<svg width="18" height="18" viewBox="0 0 18 18" fill="none" xmlns="http://www.w3.org/2000/svg">
<path fill-rule="evenodd" clip-rule="evenodd" d="M13.0944 0.5625C13.5799 0.5625 14.0085 0.871875 14.1621 1.332L15.0306 3.9375H16.875C17.1861 3.9375 17.4375 4.1895 17.4375 4.5C17.4375 4.8105 17.1861 5.0625 16.875 5.0625H15.1161L13.5613 16.4649C13.4859 17.019 13.0067 17.4375 12.4464 17.4375H5.55356C4.99388 17.4375 4.51463 17.0196 4.43869 16.4649L2.88394 5.0625H1.125C0.8145 5.0625 0.5625 4.8105 0.5625 4.5C0.5625 4.1895 0.8145 3.9375 1.125 3.9375H2.96944L3.83794 1.33144C3.9915 0.871312 4.42069 0.5625 4.90556 0.5625H13.0944ZM13.9809 5.0625H4.01962L5.55356 16.3125H12.4464L13.9809 5.0625ZM7.3125 6.1875C7.623 6.1875 7.875 6.4395 7.875 6.75V14.625C7.875 14.9355 7.623 15.1875 7.3125 15.1875C7.002 15.1875 6.75 14.9355 6.75 14.625V6.75C6.75 6.4395 7.002 6.1875 7.3125 6.1875ZM10.6875 6.1875C10.9986 6.1875 11.25 6.4395 11.25 6.75V14.625C11.25 14.9355 10.9986 15.1875 10.6875 15.1875C10.3764 15.1875 10.125 14.9355 10.125 14.625V6.75C10.125 6.4395 10.3764 6.1875 10.6875 6.1875ZM13.0944 1.6875H4.90556L4.15519 3.9375H13.8442L13.0944 1.6875Z" fill="#E81E2B"/>
</svg>
