<svg width="30" height="40" viewBox="0 0 30 40" fill="none" xmlns="http://www.w3.org/2000/svg">
<path d="M28.8281 7.65625L22.3438 1.09375C21.6406 0.390625 20.625 0 19.6875 0H3.75C1.64063 0 0 1.71875 0 3.75V36.25C0 38.3594 1.64063 40 3.75 40H26.25C28.2813 40 30 38.3594 30 36.25V10.3125C30 9.375 29.5313 8.35938 28.8281 7.65625ZM27.1094 9.45312C27.2656 9.60937 27.3438 9.84375 27.4219 10H20V2.57812C20.1563 2.65625 20.3906 2.73437 20.5469 2.89062L27.1094 9.45312ZM26.25 37.5H3.75C3.04688 37.5 2.5 36.9531 2.5 36.25V3.75C2.5 3.125 3.04688 2.5 3.75 2.5H17.5V10.625C17.5 11.7187 18.2813 12.5 19.375 12.5H27.5V36.25C27.5 36.9531 26.875 37.5 26.25 37.5ZM22.5 18.4375C22.5 17.9687 22.0313 17.5 21.5625 17.5H8.4375C7.89062 17.5 7.5 17.9687 7.5 18.4375V19.0625C7.5 19.6094 7.89062 20 8.4375 20H21.5625C22.0313 20 22.5 19.6094 22.5 19.0625V18.4375ZM22.5 23.4375C22.5 22.9687 22.0313 22.5 21.5625 22.5H8.4375C7.89062 22.5 7.5 22.9687 7.5 23.4375V24.0625C7.5 24.6094 7.89062 25 8.4375 25H21.5625C22.0313 25 22.5 24.6094 22.5 24.0625V23.4375ZM22.5 28.4375C22.5 27.9687 22.0313 27.5 21.5625 27.5H8.4375C7.89062 27.5 7.5 27.9687 7.5 28.4375V29.0625C7.5 29.6094 7.89062 30 8.4375 30H21.5625C22.0313 30 22.5 29.6094 22.5 29.0625V28.4375Z" fill="#8358DD"/>
</svg>
