<svg width="78" height="78" viewBox="0 0 78 78" fill="none" xmlns="http://www.w3.org/2000/svg">
<rect width="78" height="78" rx="20" fill="#F5BE0B"/>
<path d="M62.0935 21.2339H56.441V19.7684C56.441 17.675 54.7659 16 52.6726 16C50.5792 16 48.9042 17.675 48.9042 19.7684V21.2339H29.3295V19.7684C29.3295 17.675 27.6545 16 25.5611 16C23.4677 16 21.8975 17.7794 21.8975 19.7684V21.2339H16.2449C14.4655 21.2339 13 22.6994 13 24.4788V59.7551C13 61.5345 14.4655 63 16.2449 63H62.1983C63.9777 63 65.4432 61.5345 65.4432 59.7551L65.4436 32.4343V24.4787C65.3388 22.6993 63.8733 21.2338 62.0939 21.2338L62.0935 21.2339ZM51.2071 19.7684C51.2071 18.9309 51.9398 18.1981 52.7773 18.1981C53.6148 18.1981 54.3476 18.9309 54.3476 19.7684L54.3472 24.8975C54.3472 25.735 53.6145 26.4677 52.777 26.4677C51.9395 26.4677 51.2067 25.735 51.2067 24.8975L51.2071 19.7684ZM23.9909 19.7684C23.9909 18.9309 24.7237 18.1981 25.5612 18.1981C26.3987 18.1981 27.1315 18.9309 27.1315 19.7684L27.1311 24.8975C27.1311 25.735 26.3984 26.4677 25.5608 26.4677C24.7233 26.4677 23.9906 25.735 23.9906 24.8975L23.9909 19.7684ZM15.0931 24.4787C15.0931 23.8507 15.6166 23.432 16.1398 23.432H21.7923V24.8975C21.7923 26.9909 23.4674 28.6659 25.5607 28.6659C27.6541 28.6659 29.3291 26.9909 29.3291 24.8975V23.432H49.0085L49.0089 24.8975C49.0089 26.9909 50.6839 28.6659 52.7772 28.6659C54.8706 28.6659 56.5456 26.9909 56.5456 24.8975V23.432H62.1982C62.8262 23.432 63.2449 23.9555 63.2449 24.4787V31.3876H15.0933L15.0931 24.4787ZM63.2447 59.8597C63.2447 60.4876 62.7212 60.9064 62.198 60.9064H16.2446C15.6167 60.9064 15.1979 60.3828 15.1979 59.8597V33.5856H63.2449L63.2447 59.8597Z" fill="white"/>
<path d="M31.2137 51.4856H35.7148V55.9868C35.7148 56.6147 36.2383 57.0335 36.7615 57.0335H41.5767C42.2046 57.0335 42.6233 56.5099 42.6233 55.9868V51.4856H47.1245C47.7524 51.4856 48.1711 50.9621 48.1711 50.439V45.6238C48.1711 44.9958 47.6476 44.5771 47.1245 44.5771H42.6233V40.076C42.6233 39.448 42.0998 39.0293 41.5767 39.0293H36.7615C36.1335 39.0293 35.7148 39.5528 35.7148 40.076V44.5771H31.2137C30.5857 44.5771 30.167 45.1006 30.167 45.6238V50.439C30.167 50.9621 30.5857 51.4856 31.2137 51.4856V51.4856ZM32.2604 46.6705H36.7615C37.3894 46.6705 37.8082 46.1469 37.8082 45.6238V41.1227H40.4251V45.6238C40.4251 46.2517 40.9486 46.6705 41.4718 46.6705H45.9729V49.2874H41.4718C40.8438 49.2874 40.4251 49.8109 40.4251 50.3341V54.8352H37.8082V50.3341C37.8082 49.7061 37.2846 49.2874 36.7615 49.2874H32.2604V46.6705Z" fill="white"/>
</svg>
