<svg width="78" height="78" viewBox="0 0 78 78" fill="none" xmlns="http://www.w3.org/2000/svg">
<rect width="78" height="78" rx="20" fill="#F5BE0B"/>
<path d="M35.3772 54.2178V60.5063C35.3772 63.301 36.4607 65.9188 38.4268 67.8778C40.3934 69.8444 43.0107 70.9278 45.7982 70.9278C49.8537 70.9278 53.4629 68.632 55.1923 65.0199C59.1672 65.0165 62.3999 61.7819 62.3999 57.8065C62.3999 53.8287 59.1644 50.5932 55.1866 50.5932C51.2088 50.5932 47.9732 53.8287 47.9732 57.8065C47.9732 61.0343 50.1047 63.7735 53.034 64.6916C51.5543 67.2303 48.7831 68.8668 45.7982 68.8668C43.5614 68.8668 41.4615 67.9975 39.8825 66.4191C38.3059 64.8478 37.4377 62.7484 37.4377 60.5063V54.2169C47.7126 53.6768 55.9062 45.1486 55.9062 34.7412V34.0267C55.9062 32.0016 54.4897 30.3038 52.5964 29.8644C52.3655 28.2907 51.5029 26.9418 50.2939 26.2269C50.3619 25.6298 50.4299 25.0366 50.509 24.4208C50.5378 24.15 50.5727 23.8769 50.6077 23.6028L50.6585 23.1911C50.7294 22.711 50.7644 22.2083 50.7644 21.6975C50.7644 14.8277 44.3236 9.17616 36.3858 9.1001C31.8436 9.14466 27.6684 11.0025 24.9292 14.1953C22.6746 16.8238 21.6846 20.0181 22.1389 23.1736C22.2707 24.1991 22.3957 25.2145 22.5208 26.2246C21.3075 26.9362 20.4421 28.2856 20.2111 29.8641C18.3173 30.304 16.8999 32.0013 16.8999 34.0274V34.7419C16.8989 45.1513 25.0974 53.6827 35.3758 54.2188L35.3772 54.2178ZM50.0343 57.8075C50.0343 54.9664 52.3454 52.6552 55.1866 52.6552C58.0277 52.6552 60.3389 54.9664 60.3389 57.8075C60.3389 60.6486 58.0277 62.9598 55.1866 62.9598C52.3454 62.9598 50.0343 60.6486 50.0343 57.8075ZM23.9391 27.8224C23.9406 27.8219 23.942 27.821 23.9434 27.8205C23.9971 27.8032 24.047 27.7797 24.0958 27.7553C24.1073 27.7491 24.1212 27.7457 24.1323 27.7395C24.1509 27.7289 24.1668 27.7155 24.1845 27.7036C24.6316 27.7337 25.0801 27.7553 25.5397 27.7553C25.6729 27.7553 25.8071 27.7548 25.9417 27.752C28.9807 27.6743 31.8894 26.8726 34.5874 25.3679C35.0848 25.0909 35.2626 24.4632 34.9856 23.9658C34.7072 23.4683 34.0804 23.292 33.5834 23.5675C31.1798 24.9079 28.5912 25.6223 25.8962 25.6909C25.4304 25.699 24.9776 25.6847 24.5272 25.6588C24.4136 24.7411 24.301 23.8259 24.1817 22.8943C23.8108 20.3197 24.6316 17.7061 26.4938 15.5364C28.8452 12.7944 32.4583 11.2001 36.3863 11.1609C43.1784 11.226 48.704 15.9532 48.704 21.6979C48.704 22.1095 48.6757 22.5111 48.6158 22.9179L48.6019 23.0286C45.8187 22.2078 43.4655 20.4703 41.7513 17.9463C41.7418 17.9324 41.7303 17.9213 41.7197 17.9084C41.6991 17.8811 41.6771 17.8557 41.6536 17.8303C41.6282 17.802 41.6014 17.7766 41.5731 17.7522C41.5621 17.7426 41.553 17.7311 41.5415 17.721C41.529 17.7114 41.5156 17.7052 41.5031 17.6961C41.472 17.6736 41.4399 17.653 41.4068 17.6338C41.3795 17.618 41.3512 17.6036 41.3229 17.5907C41.2918 17.5768 41.2611 17.5648 41.229 17.5538C41.1969 17.5428 41.1643 17.5332 41.1313 17.5255C41.1001 17.5179 41.0695 17.5131 41.0378 17.5083C41.0043 17.5035 40.9707 17.5001 40.9367 17.4987C40.9037 17.4973 40.8715 17.4987 40.8385 17.5001C40.8054 17.502 40.7738 17.5049 40.7407 17.5097C40.7077 17.5145 40.6756 17.5222 40.6425 17.5303C40.6094 17.5385 40.5778 17.548 40.5457 17.56C40.516 17.571 40.4872 17.5835 40.4575 17.5969C40.423 17.6127 40.3909 17.6305 40.3579 17.6506C40.3449 17.6587 40.3305 17.6635 40.3171 17.6726C40.3042 17.6817 40.2946 17.6928 40.2821 17.7014C40.2524 17.7234 40.2251 17.7469 40.1978 17.7723C40.1719 17.7963 40.147 17.8212 40.1245 17.848C40.1139 17.8605 40.101 17.8691 40.0909 17.8825C39.1335 19.08 38.1133 20.1592 37.0572 21.0893C36.6307 21.466 36.5895 22.1172 36.9657 22.5436C37.1689 22.7746 37.4535 22.8925 37.7391 22.8925C37.9811 22.8925 38.2241 22.8072 38.4201 22.6347C39.2562 21.8977 40.0694 21.0754 40.8501 20.1827C42.8215 22.6213 45.3842 24.2908 48.3518 25.0891C48.2847 25.6354 48.2143 26.1827 48.1568 26.7246C48.1487 26.796 48.1477 26.8674 48.1549 26.9374C48.1568 26.9551 48.1626 26.9724 48.1654 26.9901C48.1731 27.038 48.1798 27.0864 48.1937 27.1324C48.2042 27.1684 48.2205 27.2009 48.2349 27.235C48.2459 27.2618 48.255 27.2901 48.2685 27.316C48.2857 27.349 48.3078 27.3783 48.3284 27.4089C48.3447 27.4329 48.3585 27.4592 48.3763 27.4818C48.3988 27.51 48.4256 27.534 48.451 27.5594C48.4721 27.5805 48.4918 27.6049 48.5143 27.6241C48.5512 27.6557 48.5924 27.6811 48.6336 27.707C48.6489 27.7166 48.6619 27.7281 48.6777 27.7372C48.7376 27.7707 48.8013 27.7985 48.8689 27.8196C49.8857 28.143 50.5954 29.3339 50.5954 30.7666C50.5743 32.3599 49.6015 33.658 48.4107 33.6863C48.4011 33.6849 48.392 33.6892 48.3824 33.6878C48.2665 33.6772 48.1524 33.6825 48.0446 33.7084C48.0412 33.7089 48.0384 33.7103 48.035 33.7113C47.9238 33.7395 47.8213 33.7884 47.7274 33.8502C47.7192 33.8555 47.7111 33.8593 47.7025 33.8646C47.6119 33.9278 47.5333 34.0069 47.4667 34.097C47.4576 34.1085 47.449 34.119 47.4408 34.1315C47.379 34.2221 47.333 34.3237 47.3028 34.4344C47.2999 34.4439 47.2932 34.4516 47.2903 34.4612C47.287 34.4756 47.287 34.4909 47.2841 34.5053C47.2808 34.5206 47.275 34.534 47.2726 34.5498C46.3152 40.5815 41.6382 45.1304 36.3926 45.1304C31.1559 45.1304 26.4852 40.5815 25.5274 34.5498C25.5245 34.534 25.5183 34.5201 25.5159 34.5053C25.513 34.4909 25.513 34.4765 25.5096 34.4622C25.5077 34.4526 25.5 34.4459 25.4981 34.4363C25.467 34.3251 25.4205 34.2221 25.3582 34.1305C25.352 34.121 25.3443 34.1128 25.3376 34.1037C25.1301 33.8205 24.7865 33.6557 24.4156 33.6902C24.4065 33.6906 24.3979 33.6873 24.3883 33.6883C23.2033 33.6691 22.2272 32.3667 22.2066 30.7162C22.2099 29.353 22.9373 28.1358 23.9398 27.8224L23.9391 27.8224ZM18.9603 34.0265C18.9603 33.1203 19.5085 32.3422 20.2891 31.9991C20.7022 33.8919 22.0037 35.3251 23.6545 35.6673C25.0475 42.2888 30.3948 47.1918 36.3954 47.1918C42.4059 47.1918 47.7586 42.2882 49.1523 35.6663C50.8031 35.3222 52.104 33.89 52.5177 31.9989C53.2973 32.3425 53.845 33.1203 53.845 34.0264V34.7408C53.845 44.3473 46.0374 52.1642 36.4352 52.1826C36.4256 52.1826 36.4165 52.1797 36.4069 52.1797C36.3963 52.1797 36.3868 52.1826 36.3767 52.1826C26.7707 52.1682 18.9607 44.3496 18.9607 34.7408L18.9603 34.0265Z" fill="white"/>
<path d="M55.2086 61.0093L55.2129 59.9791V61.0093C55.7817 61.0093 56.2302 60.5483 56.2302 59.9791C56.2302 59.4098 55.7563 58.9488 55.1865 58.9488C54.5574 58.9488 54.0446 58.4365 54.0446 57.8064C54.0446 57.1806 54.5535 56.6683 55.1794 56.6645C55.7482 56.6611 56.2072 56.1968 56.2034 55.628C56.2 55.0587 55.7429 54.5872 55.1669 54.6039C53.4112 54.6145 51.9827 56.0506 51.9827 57.8063C51.9846 59.5726 53.4208 61.0092 55.2086 61.0092C55.2077 61.0092 55.2077 61.0092 55.2086 61.0092L55.2086 61.0093Z" fill="white"/>
</svg>
