<svg id="SvgjsSvg1001" width="288" height="288" xmlns="http://www.w3.org/2000/svg" version="1.1" xmlns:xlink="http://www.w3.org/1999/xlink" xmlns:svgjs="http://svgjs.com/svgjs"><defs id="SvgjsDefs1002"></defs><g id="SvgjsG1008"><svg xmlns="http://www.w3.org/2000/svg" fill="none" viewBox="0 0 80 80" width="288" height="288"><path fill="#9b9b9b" stroke="#9b9b9b" stroke-width=".6" d="M30.3911 14H49.4781C52.6627 14 55.2533 16.5912 55.2533 19.7759V23.9127H63.9673C67.7726 23.9127 70.8682 27.0087 70.8682 30.8142V59.7951C70.8682 63.6005 67.7726 66.6966 63.9673 66.6966H15.9009C12.0956 66.6966 9.00006 63.6006 9.00006 59.7951L9.00067 30.8142C9.00067 27.0088 12.0962 23.9127 15.9015 23.9127H24.6155V19.7759C24.6155 16.5912 27.2061 14 30.3908 14H30.3911ZM53.2809 19.7759C53.2809 17.679 51.5755 15.9736 49.4792 15.9736H30.3922C28.2959 15.9736 26.5905 17.679 26.5905 19.7759V23.9127H29.5509V19.9202C29.5509 19.3751 29.9926 18.9334 30.5377 18.9334L49.3329 18.934C49.8781 18.934 50.3197 19.3757 50.3197 19.9208V23.9133H53.2802L53.2809 19.7759ZM31.5234 20.9076V23.9133L48.3474 23.9126V20.907L31.5234 20.9076ZM15.9024 25.8863C13.1854 25.8863 10.9752 28.0967 10.9752 30.8141V59.7951C10.9752 62.5127 13.1855 64.7229 15.9024 64.7229L63.9671 64.7235C66.6841 64.7235 68.8943 62.5132 68.8943 59.7957L68.8949 30.8148C68.8949 28.0971 66.6846 25.887 63.9677 25.887L15.9024 25.8863Z" class="colorfff svgShape colorStrokefff svgStroke"></path><path fill="#9b9b9b" stroke="#9b9b9b" stroke-width=".6" d="M49.8774 49.2378H43.8686V55.2466C43.8686 55.7918 43.4269 56.2335 42.8818 56.2335H36.9863C36.4412 56.2335 35.9995 55.7918 35.9995 55.2466V49.2378H29.9907C29.4455 49.2378 29.0039 48.7961 29.0039 48.251V42.3555C29.0039 41.8104 29.4455 41.3687 29.9907 41.3687H35.9995V35.3599C35.9995 34.8147 36.4412 34.373 36.9863 34.373H42.8818C43.4269 34.373 43.8686 34.8147 43.8686 35.3599V41.3687L49.8774 41.3693C50.4226 41.3693 50.8643 41.811 50.8643 42.3561V48.2516C50.8643 48.7961 50.4226 49.2378 49.8774 49.2378V49.2378ZM48.8906 43.3423H42.8818C42.3367 43.3423 41.895 42.9006 41.895 42.3555V36.3467H37.9732V42.3555C37.9732 42.9006 37.5315 43.3423 36.9864 43.3423H30.9776V47.2641H36.9864C37.5315 47.2641 37.9732 47.7058 37.9732 48.2509V54.2597H41.895V48.2509C41.895 47.7058 42.3367 47.2641 42.8818 47.2641L48.8906 47.2647V43.3423Z" class="colorfff svgShape colorStrokefff svgStroke"></path></svg></g></svg>