<svg width="57" height="51" viewBox="0 0 57 51" fill="none" xmlns="http://www.w3.org/2000/svg">
<path d="M52.87 5.86719H46.7826V4.28898C46.7826 2.03459 44.9787 0.230713 42.7243 0.230713C40.4699 0.230713 38.666 2.03459 38.666 4.28898V5.86719H17.5856V4.28898C17.5856 2.03459 15.7817 0.230713 13.5273 0.230713C11.273 0.230713 9.58191 2.14702 9.58191 4.28898V5.86719H3.49452C1.57821 5.86719 0 7.44541 0 9.36171V47.3516C0 49.2679 1.57821 50.8461 3.49452 50.8461H52.9828C54.8991 50.8461 56.4773 49.2679 56.4773 47.3516L56.4777 17.9292V9.36161C56.3649 7.44531 54.7867 5.86709 52.8704 5.86709L52.87 5.86719ZM41.1461 4.28898C41.1461 3.38705 41.9352 2.59793 42.8371 2.59793C43.7391 2.59793 44.5282 3.38702 44.5282 4.28898L44.5278 9.81263C44.5278 10.7146 43.7387 11.5037 42.8368 11.5037C41.9348 11.5037 41.1457 10.7146 41.1457 9.81263L41.1461 4.28898ZM11.8364 4.28898C11.8364 3.38705 12.6255 2.59793 13.5275 2.59793C14.4294 2.59793 15.2185 3.38702 15.2185 4.28898L15.2181 9.81263C15.2181 10.7146 14.429 11.5037 13.5271 11.5037C12.6251 11.5037 11.836 10.7146 11.836 9.81263L11.8364 4.28898ZM2.25409 9.36161C2.25409 8.68535 2.8179 8.23441 3.38128 8.23441H9.46868V9.81263C9.46868 12.067 11.2726 13.8709 13.5269 13.8709C15.7813 13.8709 17.5852 12.067 17.5852 9.81263V8.23441H38.7784L38.7788 9.81263C38.7788 12.067 40.5826 13.8709 42.837 13.8709C45.0914 13.8709 46.8953 12.067 46.8953 9.81263V8.23441H52.9827C53.659 8.23441 54.1099 8.79822 54.1099 9.36161V16.802H2.25428L2.25409 9.36161ZM54.1097 47.4642C54.1097 48.1405 53.5459 48.5914 52.9825 48.5914H3.49422C2.81796 48.5914 2.36702 48.0276 2.36702 47.4642V19.1691H54.1099L54.1097 47.4642Z" fill="#564B52"/>
<path d="M19.615 38.4463H24.4624V43.2936C24.4624 43.9699 25.0262 44.4208 25.5896 44.4208H30.7751C31.4514 44.4208 31.9023 43.857 31.9023 43.2936V38.4463H36.7497C37.4259 38.4463 37.8769 37.8824 37.8769 37.3191V32.1335C37.8769 31.4572 37.3131 31.0063 36.7497 31.0063H31.9023V26.1589C31.9023 25.4827 31.3385 25.0317 30.7751 25.0317H25.5896C24.9133 25.0317 24.4624 25.5955 24.4624 26.1589V31.0063H19.615C18.9387 31.0063 18.4878 31.5701 18.4878 32.1335V37.3191C18.4878 37.8825 18.9388 38.4463 19.615 38.4463ZM20.7422 33.2607H25.5896C26.2658 33.2607 26.7168 32.6969 26.7168 32.1335V27.2861H29.535V32.1335C29.535 32.8098 30.0988 33.2607 30.6622 33.2607H35.5096V36.0789H30.6622C29.9859 36.0789 29.535 36.6427 29.535 37.2061V42.0535H26.7168V37.2061C26.7168 36.5299 26.1529 36.0789 25.5896 36.0789H20.7422V33.2607Z" fill="#564B52"/>
</svg>
