<svg width="20" height="24" viewBox="0 0 20 24" fill="none" xmlns="http://www.w3.org/2000/svg">
<path d="M1.2484 7.63301C0.913036 7.63301 0.625 7.33992 0.625 6.98145C0.625 6.63921 0.913036 6.34612 1.2484 6.34612H2.17576C2.75138 6.36235 3.26284 6.47644 3.69511 6.75329C4.53147 7.29352 4.68026 8.06523 4.89414 8.93657H10.6594C10.871 9.47221 11.2528 9.91876 11.7356 10.2086H8.95486V10.2081H5.24587L6.66876 15.6668H16.7587L18.0856 10.2081H14.7961V10.2086H14.3238C14.8066 9.91876 15.1879 9.47221 15.4 8.93657H18.8855C19.2368 8.93657 19.5089 9.2301 19.5089 9.57286C19.5089 9.63774 19.4926 9.70312 19.4766 9.76806L17.8458 16.4654C17.7821 16.759 17.5264 16.9547 17.2383 16.9547H7.00459C7.22893 17.8019 7.45236 18.2582 7.75629 18.4697C8.12443 18.7145 8.76371 18.7303 9.83493 18.7145H17.0786C17.4299 18.7145 17.702 19.0076 17.702 19.3499C17.702 19.7084 17.4144 19.9852 17.0786 19.9852H9.85129C8.52393 20.0019 7.70807 19.9689 7.05281 19.5293C6.38119 19.073 6.02944 18.2907 5.6777 16.873L3.53494 8.61105C3.53494 8.59483 3.53494 8.59483 3.51902 8.57854C3.42301 8.21963 3.26284 7.9757 3.03941 7.84494C2.81554 7.69839 2.51157 7.63301 2.15983 7.63301H1.2484ZM10.2376 0.940304C10.6717 0.173277 11.6427 -0.0915184 12.3945 0.351354C13.1466 0.793759 13.4064 1.78338 12.9728 2.54948C12.075 4.13409 11.1795 5.70292 10.2822 7.28705C10.0661 7.66872 9.71614 7.92516 9.32707 8.03185C8.9385 8.13803 8.50936 8.09352 8.13486 7.87323C7.76086 7.65294 7.50879 7.29636 7.40407 6.9003C7.29993 6.50426 7.34357 6.06695 7.56021 5.68529C8.4575 4.09884 9.33843 2.52676 10.2376 0.940304ZM11.1286 5.08614L9.02036 3.8461L7.87643 5.86476C7.70943 6.16063 7.67579 6.49823 7.75679 6.80615C7.83779 7.11361 8.0325 7.38952 8.32193 7.56021C8.61179 7.73039 8.9435 7.76472 9.24514 7.68166C9.54643 7.59963 9.81757 7.40065 9.98507 7.10526L11.1286 5.08614ZM14.4754 7.32552C14.6946 7.76843 14.7024 8.31054 14.448 8.77752C14.0412 9.52596 13.1152 9.79679 12.3804 9.38225C12.1642 9.26028 11.989 9.09192 11.8589 8.89759L14.4754 7.32552ZM11.7879 7.2741C12.1947 6.52559 13.1207 6.25477 13.8556 6.66935C14.0558 6.7825 14.2205 6.93461 14.347 7.11084L11.7392 8.67781C11.5417 8.24421 11.5431 7.72392 11.7879 7.2741ZM14.1936 3.30167C14.6009 2.55273 15.5265 2.28237 16.2614 2.69695C16.4616 2.81011 16.6263 2.96175 16.7532 3.13844L14.1441 4.70588C13.9475 4.27182 13.9489 3.75196 14.1936 3.30167ZM16.8811 3.35268C17.1004 3.79601 17.1081 4.33766 16.8538 4.80512C16.447 5.55359 15.521 5.82441 14.7866 5.40983C14.5777 5.29219 14.3991 5.126 14.2651 4.92476L16.8811 3.35268ZM13.5926 11.5516C13.5926 11.3503 13.7874 11.1876 14.0276 11.1876C14.2679 11.1876 14.4626 11.3503 14.4626 11.5516V14.0094C14.4626 14.2097 14.2679 14.3726 14.0276 14.3726C13.7874 14.3726 13.5926 14.2097 13.5926 14.0094V11.5516ZM10.9879 11.5516C10.9879 11.3503 11.1827 11.1876 11.423 11.1876C11.6632 11.1876 11.858 11.3503 11.858 11.5516V14.0094C11.858 14.2097 11.6632 14.3726 11.423 14.3726C11.1827 14.3726 10.9879 14.2097 10.9879 14.0094V11.5516ZM8.38336 11.5516C8.38336 11.3503 8.57807 11.1876 8.81879 11.1876C9.05864 11.1876 9.25336 11.3503 9.25336 11.5516V14.0094C9.25336 14.2097 9.05864 14.3726 8.81879 14.3726C8.57807 14.3726 8.38336 14.2097 8.38336 14.0094V11.5516ZM15.2075 20.735C16.0552 20.735 16.7428 21.4358 16.7428 22.2997C16.7428 23.1632 16.0552 23.8639 15.2075 23.8639C14.3602 23.8639 13.6726 23.1632 13.6726 22.2997C13.6726 21.4358 14.3602 20.735 15.2075 20.735ZM8.47571 20.735C9.32343 20.735 10.011 21.4358 10.011 22.2997C10.011 23.1632 9.32343 23.8639 8.47571 23.8639C7.62843 23.8639 6.94088 23.1632 6.94088 22.2997C6.94088 21.4358 7.62843 20.735 8.47571 20.735Z" fill="#9B9B9B"/>
</svg>
