<svg width="31" height="30" viewBox="0 0 31 30" fill="none" xmlns="http://www.w3.org/2000/svg">
<path d="M0.620133 14.7859C0.620945 11.6066 1.68683 8.51501 3.65476 5.98405C5.62269 3.4531 8.38432 1.6221 11.5173 0.771108C14.6502 -0.0798885 17.9821 0.0959649 21.0031 1.27177C24.0242 2.44758 26.5682 4.55861 28.2461 7.28199C29.9239 10.0054 30.6432 13.1912 30.294 16.3521C29.9448 19.5131 28.5463 22.4752 26.3123 24.7854C24.0784 27.0956 21.132 28.6267 17.9238 29.1446C14.7156 29.6624 11.4223 29.1385 8.54744 27.653L1.77705 29.308C1.62123 29.3463 1.45792 29.3444 1.30304 29.3027C1.14816 29.2609 1.00699 29.1806 0.893284 29.0696C0.779582 28.9586 0.697227 28.8207 0.654247 28.6693C0.611266 28.518 0.609125 28.3583 0.648033 28.2059L2.34063 21.5841C1.20732 19.4897 0.616574 17.1554 0.620133 14.7859ZM15.5001 2.05527C13.2279 2.05459 10.9951 2.63535 9.02352 3.73984C7.05197 4.84432 5.41037 6.43407 4.26185 8.35109C3.11334 10.2681 2.49791 12.4456 2.47673 14.6673C2.45554 16.8889 3.02935 19.0772 4.14111 21.0149C4.25787 21.217 4.29114 21.4551 4.23411 21.6805L2.82795 27.1765L8.44886 25.8016C8.67934 25.7458 8.92289 25.7784 9.12962 25.8925C10.8655 26.8434 12.8011 27.3925 14.7879 27.4979C16.7747 27.6033 18.7597 27.262 20.5905 26.5003C22.4214 25.7386 24.0494 24.5768 25.3494 23.104C26.6495 21.6313 27.587 19.8868 28.09 18.0045C28.5931 16.1222 28.6482 14.1523 28.2512 12.2459C27.8543 10.3396 27.0157 8.54753 25.8 7.00744C24.5843 5.46735 23.0238 4.22018 21.2383 3.36172C19.4528 2.50325 17.4898 2.05633 15.5001 2.05527Z" fill="#209CD4"/>
</svg>
