<svg width="55" height="56" viewBox="0 0 55 56" fill="none" xmlns="http://www.w3.org/2000/svg">
<path d="M48.9051 6.03032H48.1081V4.60488C48.1073 3.91444 47.8359 3.25218 47.3539 2.76394C46.8719 2.27572 46.2181 2.00076 45.5364 2H43.8972C43.4322 2 43.0551 2.38197 43.0551 2.85306V10.9137C43.0551 11.3848 43.4322 11.7668 43.8972 11.7668H45.5364C45.8398 11.7645 46.1402 11.707 46.4237 11.5973V21.1313C46.423 21.8972 46.1222 22.6311 45.5876 23.1726C45.0529 23.7142 44.3284 24.0188 43.5723 24.0196H42.3294C42.2294 23.5424 41.9715 23.1147 41.5978 22.8074C41.224 22.5001 40.7575 22.3321 40.2759 22.3313H30.3672C29.886 22.3321 29.4194 22.5001 29.0457 22.8074C28.672 23.1147 28.4137 23.5424 28.3141 24.0196H27.0629C26.3068 24.0188 25.5823 23.7142 25.0476 23.1726C24.513 22.6311 24.2122 21.8972 24.2115 21.1313V11.5973C24.495 11.707 24.7954 11.7645 25.0988 11.7668H26.738C27.203 11.7668 27.5801 11.3848 27.5801 10.9137V2.85306C27.5801 2.62685 27.4914 2.40977 27.3335 2.24982C27.1756 2.08988 26.9613 2 26.738 2H25.0988C24.4171 2.00076 23.7633 2.27572 23.2813 2.76394C22.7993 3.25216 22.5279 3.91444 22.5271 4.60488V6.03032H21.7301C21.0485 6.03108 20.3947 6.30603 19.9127 6.79425C19.4307 7.28247 19.1592 7.94476 19.1585 8.6352V21.1317C19.1607 23.2544 19.9942 25.2896 21.4763 26.7905C22.958 28.2917 24.9672 29.136 27.0628 29.1383H28.3087C28.4012 29.6231 28.6569 30.0599 29.0325 30.3745C29.408 30.6891 29.8799 30.8616 30.3671 30.8623H31.1104V33.0014L31.1108 33.0018C31.1115 33.4915 31.2789 33.9664 31.5853 34.3457C31.8913 34.7254 32.3169 34.9863 32.791 35.0845V48.439C32.7906 48.7037 32.5785 48.9185 32.3172 48.9188H24.1062C23.8449 48.9185 23.6328 48.7037 23.6324 48.439V37.2742C23.6309 35.7901 23.0482 34.367 22.012 33.3174C20.9758 32.2682 19.5709 31.6776 18.1057 31.676H16.415C15.6191 29.8107 14.0148 28.4244 12.0707 27.9229C10.1266 27.421 8.06286 27.8609 6.48305 29.1134C4.90363 30.3656 3.9863 32.2891 4.00015 34.3212C4.01369 36.3534 4.95661 38.2639 6.55331 39.4944C8.14968 40.7248 10.219 41.1358 12.1564 40.6075C14.0933 40.0789 15.6788 38.6707 16.4492 36.7943H18.1057C18.367 36.7947 18.5791 37.0095 18.5794 37.2742V48.439C18.5809 49.9231 19.1637 51.3462 20.1999 52.3958C21.2361 53.4454 22.641 54.0356 24.1062 54.0372H32.3172C33.7824 54.0356 35.1873 53.4454 36.2235 52.3958C37.2597 51.3462 37.8424 49.9231 37.844 48.439V35.0865C38.3196 34.9897 38.7474 34.7292 39.0553 34.3495C39.3633 33.9699 39.5317 33.4938 39.5324 33.0026V30.8631H40.2761H40.2757C40.7634 30.8624 41.2352 30.6899 41.6108 30.3753C41.986 30.0607 42.242 29.6239 42.3345 29.1391H43.5722C45.6678 29.1368 47.6769 28.2925 49.1587 26.7913C50.6407 25.2904 51.4743 23.2552 51.4765 21.1325V8.63601C51.4757 7.94557 51.2043 7.2833 50.7223 6.79506C50.2403 6.30684 49.5865 6.03189 48.9049 6.03112L48.9051 6.03032ZM45.5364 10.0606H44.7394V3.7061H45.5364C46.0263 3.70648 46.4233 4.10864 46.4237 4.60486V9.16184C46.4233 9.65806 46.0263 10.0602 45.5364 10.0606V10.0606ZM24.2118 4.60488C24.2122 4.10867 24.6092 3.70651 25.0991 3.70612H25.8962V10.0607H25.0991C24.6092 10.0603 24.2122 9.65812 24.2118 9.1619V4.60488ZM20.8432 21.1317V8.63521C20.8435 8.13899 21.2406 7.73722 21.7304 7.73645H22.5275V21.1309C22.529 22.3488 23.0072 23.5168 23.8572 24.3783C24.7077 25.2393 25.8607 25.7237 27.0632 25.7252H28.2689V27.4313H27.0632C25.4141 27.4294 23.8329 26.7653 22.667 25.5839C21.5007 24.403 20.845 22.8012 20.8432 21.1309V21.1317ZM10.4744 39.1259C9.20404 39.1259 7.98593 38.6148 7.08736 37.705C6.18918 36.7948 5.68465 35.561 5.68465 34.2742C5.68465 32.9874 6.1892 31.7535 7.08736 30.8433C7.98592 29.9335 9.20404 29.4225 10.4744 29.4225C11.7448 29.4225 12.9629 29.9336 13.8615 30.8433C14.7596 31.7535 15.2642 32.9874 15.2642 34.2742C15.2627 35.5606 14.7577 36.7938 13.8595 37.7032C12.9617 38.613 11.7443 39.1244 10.4743 39.126L10.4744 39.1259ZM32.3178 52.3302H24.1067C23.0878 52.3291 22.1115 51.9185 21.3911 51.1889C20.6707 50.4592 20.2655 49.4702 20.2643 48.4381V37.2733C20.2636 36.6937 20.0361 36.138 19.6316 35.7283C19.227 35.3185 18.6785 35.0881 18.1062 35.0873H16.893C16.9705 34.521 16.9664 33.9464 16.881 33.3812H18.1062C19.1251 33.3824 20.1015 33.7929 20.8219 34.5226C21.5423 35.2522 21.9475 36.2413 21.9486 37.2733V48.4381C21.9494 49.0177 22.1769 49.5734 22.5814 49.9832C22.9859 50.3929 23.5345 50.6233 24.1067 50.6241H32.3178C32.89 50.6233 33.4386 50.3929 33.8431 49.9832C34.2477 49.5734 34.4751 49.0178 34.4759 48.4381V35.1265H36.1602V48.4381C36.1591 49.4702 35.7538 50.4591 35.0334 51.1888C34.3131 51.9186 33.3367 52.329 32.3178 52.3302L32.3178 52.3302ZM40.6909 28.7361C40.6906 28.9677 40.5052 29.1554 40.2763 29.1558H38.6908C38.2257 29.1558 37.8486 29.5378 37.8486 30.0089V33.0014C37.8482 33.2329 37.6629 33.4207 37.4339 33.4211H33.2099C32.9813 33.4207 32.7956 33.2329 32.7956 33.0014V30.0089C32.7956 29.7827 32.7068 29.5656 32.5489 29.4056C32.391 29.2457 32.1767 29.1558 31.9534 29.1558H30.3675C30.139 29.1554 29.9532 28.9677 29.9532 28.7361V24.4567C29.9536 24.2252 30.139 24.0374 30.3675 24.0374H40.2762C40.5052 24.0374 40.6905 24.2252 40.6909 24.4567L40.6909 28.7361ZM49.7927 21.1314C49.7908 22.8017 49.1351 24.4034 47.9689 25.5844C46.8031 26.7657 45.2217 27.4299 43.5727 27.4318H42.3753V25.7257H43.5727C44.775 25.7242 45.9282 25.2397 46.7786 24.3787C47.6287 23.5173 48.1069 22.3493 48.1084 21.1314V7.73692H48.9054C49.3953 7.73768 49.7923 8.13945 49.7927 8.63568V21.1314ZM11.7374 31.4002C10.855 31.0015 9.83947 31.0411 8.98979 31.5076C8.14011 31.9741 7.5532 32.8142 7.40171 33.7811C7.24982 34.7477 7.55059 35.731 8.21567 36.4412C8.88076 37.1514 9.83379 37.5082 10.7952 37.4062C11.7562 37.3041 12.6156 36.755 13.1205 35.9202C13.6258 35.0858 13.7187 34.0607 13.3724 33.1467C13.0796 32.3667 12.4908 31.738 11.7374 31.4002H11.7374ZM11.7723 34.8596C11.5795 35.2991 11.1828 35.6121 10.7152 35.6936C10.2471 35.7755 9.7696 35.6152 9.44286 35.2663C9.11614 34.9175 8.98268 34.4262 9.08757 33.957C9.19246 33.4882 9.52181 33.1032 9.96508 32.9311C10.3166 32.7925 10.708 32.8028 11.0524 32.9589C11.396 33.1147 11.6652 33.4022 11.8002 33.7587C11.9348 34.1147 11.925 34.5108 11.7724 34.8596L11.7723 34.8596Z" fill="white"/>
</svg>
