<svg width="99" height="87" viewBox="0 0 99 87" fill="none" xmlns="http://www.w3.org/2000/svg">
<path d="M41.3968 24.2638C42.3439 24.2638 43.1109 23.4987 43.1109 22.554C43.1109 11.2207 33.8683 2 22.508 2C21.5609 2 20.7939 2.7651 20.7939 3.70984C20.7939 9.20946 22.942 14.3698 26.838 18.2339C30.7354 22.1217 35.9062 24.2631 41.3972 24.2631L41.3968 24.2638ZM39.588 20.7496C35.6943 20.3423 32.0796 18.6268 29.2585 15.8134C26.4409 13.0178 24.7219 9.41412 24.3158 5.51422C32.3452 6.35591 38.7437 12.7407 39.588 20.7496Z" fill="white"/>
<path d="M87.9827 54.1513C87.7854 45.6809 81.6538 38.8558 74.128 38.8558C71.3808 38.8558 68.7663 39.7526 66.5277 41.418C64.6493 32.3957 58.8277 26.5161 51.4068 26.5161C46.9218 26.5161 42.6141 28.619 39.0969 32.483C35.592 28.6188 31.2828 26.5161 26.7827 26.5161C22.4584 26.5161 18.6672 28.4163 15.821 32.0106C11.3002 37.7184 9.82359 46.8487 11.968 55.8369C14.6535 67.0394 22.6392 75.1707 30.9564 75.1707C33.8895 75.1707 36.6755 74.1601 39.0934 72.2312C41.5142 74.16 44.3044 75.1707 47.2455 75.1707C49.0098 75.1707 50.7819 74.7813 52.5311 74.0506C58.0981 79.8329 64.1063 83.5496 64.5732 83.8343C64.848 84.0011 65.1573 84.0848 65.4672 84.0848C65.7772 84.0848 66.0864 84.0011 66.3612 83.8343C67.2451 83.2947 88 70.4575 88 54.5681C88 54.4786 87.9892 54.392 87.9885 54.3025C87.9892 54.2818 88 54.2646 88 54.2439C88 54.2116 87.9828 54.1845 87.9814 54.1522L87.9827 54.1513ZM74.1273 42.2762C79.2961 42.2762 83.5888 46.7231 84.4168 52.5331H78.0592C77.4781 52.5331 76.9364 52.8272 76.62 53.3132L74.6455 56.3529L73.3619 53.193C73.1065 52.5617 72.5009 52.1423 71.8193 52.1244C71.1348 52.1209 70.5099 52.4937 70.2215 53.1078L68.3395 57.1072L66.9799 51.6012C66.8299 50.9964 66.3621 50.519 65.7588 50.3587C65.1546 50.1948 64.5111 50.3773 64.0777 50.8261L59.1644 55.9364H46.4656C46.424 55.4804 46.3623 55.0267 46.3623 54.5672C46.3623 47.7901 51.0482 42.2762 56.8081 42.2762C59.5741 42.2762 62.187 43.5438 64.166 45.8469C64.1789 45.8619 64.199 45.8662 64.2119 45.8805C64.8748 46.5948 66.1304 46.5905 66.769 45.8469C68.7485 43.5438 71.3609 42.2762 74.1274 42.2762L74.1273 42.2762ZM40.2943 68.7282C39.6277 68.0769 38.5623 68.0769 37.8944 68.7282C35.8717 70.7057 33.4733 71.7506 30.9577 71.7506C24.3167 71.7506 17.5866 64.5677 15.3035 55.0436C13.4258 47.1714 14.6851 38.9628 18.5122 34.1323C20.6854 31.3869 23.5453 29.9374 26.7833 29.9374C30.7861 29.9374 34.6727 32.1583 37.727 36.1936C38.0499 36.6209 38.5557 36.8735 39.0931 36.8735H39.0945C39.6305 36.8735 40.1356 36.623 40.4599 36.1972C43.5308 32.1606 47.4196 29.9383 51.4073 29.9383C57.6035 29.9383 61.1565 34.9089 62.7335 40.3598C60.9054 39.3821 58.8964 38.8582 56.81 38.8582C49.1603 38.8582 42.936 45.9059 42.936 54.5696C42.936 60.7999 46.1303 66.5565 50.0636 71.2909C46.5392 72.3237 43.0624 71.4341 40.2942 68.7287L40.2943 68.7282ZM65.467 80.3377C62.0942 78.0925 50.2133 69.5798 47.1174 59.3568H59.895C60.3621 59.3568 60.8091 59.1665 61.132 58.8308L64.3959 55.4375L66.1688 62.6182C66.3431 63.321 66.9422 63.8392 67.6647 63.9108C67.7214 63.9158 67.7788 63.9194 67.8347 63.9194C68.4934 63.9194 69.1011 63.54 69.3859 62.936L71.6575 58.1064L72.7028 60.6816C72.9425 61.2728 73.4921 61.6822 74.1285 61.7423C74.7835 61.806 75.3833 61.5054 75.7306 60.9708L78.9901 55.9543H84.4673C83.3918 67.6298 69.2065 77.844 65.4661 80.3376L65.467 80.3377Z" fill="white"/>
</svg>
