<svg width="542" height="431" viewBox="0 0 542 431" fill="none" xmlns="http://www.w3.org/2000/svg">
<g clip-path="url(#clip0_50_14578)">
<path d="M516.58 408.331H10.7157L10.31 407.84C10.0722 407.56 -12.6616 379.822 10.2261 346.833C33.0577 313.942 37.5205 300.836 25.4332 271.404C23.3347 266.279 20.6486 260.734 17.8226 254.867C3.58081 225.337 -14.1445 188.595 18.3682 160.283C20.9564 158.028 23.4746 155.844 25.9368 153.702C59.121 124.941 81.0434 105.926 89.4373 72.013C92.8789 58.1229 100.364 38.2539 116.578 22.4454C131.841 7.56116 150.979 0 173.475 0C190.977 0 210.381 4.70472 231.128 13.9741C292.39 41.3343 314.033 49.2875 339.396 49.2875C347.832 49.2875 356.828 48.4474 368.608 47.2712C373.322 46.7952 378.163 46.5571 382.975 46.5571C413.809 46.5571 440.572 56.0366 456.381 72.5451C468.902 85.6231 474.791 102.832 473.91 123.681C473.378 136.227 472.525 146.854 471.77 156.236C468.72 194.336 467.573 208.604 496 233.164C537.201 268.785 564.355 333.335 517.027 407.686L516.58 408.331ZM12.0168 405.586H515.069C560.914 332.985 534.389 270.017 494.168 235.25C464.691 209.78 465.95 194.042 469 156.026C469.755 146.672 470.594 136.059 471.14 123.569C472.007 103.504 466.356 86.9673 454.38 74.4494C439.089 58.473 413.054 49.3015 382.961 49.3015C378.233 49.3015 373.504 49.5396 368.873 50.0017C357.01 51.1918 347.958 52.032 339.396 52.032C313.515 52.032 291.677 44.0227 230.009 16.4665C209.611 7.35113 190.599 2.74442 173.475 2.74442C158.45 2.74442 108.156 7.78519 92.0955 72.6851C83.4916 107.452 61.3035 126.677 27.7275 155.788C25.2653 157.916 22.7471 160.101 20.1589 162.355C-10.7729 189.295 6.44876 224.986 20.2849 253.677C23.1388 259.586 25.8249 265.159 27.9654 270.367C41.1579 302.502 34.5966 316.518 12.4784 348.401C-7.59719 377.344 9.20478 401.862 12.0168 405.586Z" fill="#E3F5FC"/>
<path d="M21.2502 406.959C21.2502 406.959 -0.448257 381.153 21.2502 349.872C42.9487 318.591 48.1669 305.653 36.0096 276.066C23.8523 246.48 -7.80699 202.611 28.8608 170.672C65.5285 138.747 88.8778 120.531 97.6495 85.0912C109.093 38.8281 150.42 -6.35678 232.107 30.1328C313.795 66.6224 321.601 66.6224 365.012 62.2817C408.409 57.9411 467.447 73.6095 464.845 134.407C462.242 195.204 451.82 210.774 486.543 240.781C521.266 270.788 554.255 331.963 506.507 406.93H21.2502V406.959Z" fill="#E3F5FC"/>
<path d="M211.01 140.022C211.01 140.022 190.109 269.164 269.95 269.164C349.791 269.164 331.128 134.995 331.128 134.995L213.472 140.022" fill="#814C4A"/>
<g opacity="0.2">
<path d="M218.705 158.225C218.705 158.225 218.691 159.625 218.677 162.089C218.649 164.54 218.733 168.04 218.873 172.241C219.026 176.427 219.292 181.314 219.768 186.509C219.978 189.113 220.328 191.788 220.649 194.504C221.013 197.221 221.419 199.965 221.936 202.695C222.398 205.426 223 208.142 223.643 210.789C223.951 212.119 224.343 213.407 224.664 214.709C225.028 215.997 225.42 217.258 225.798 218.504C226.217 219.736 226.637 220.94 227.043 222.116C227.49 223.279 227.91 224.427 228.372 225.519C228.847 226.611 229.323 227.661 229.771 228.683C230.26 229.692 230.75 230.658 231.198 231.582C232.219 233.388 233.128 235.068 234.066 236.483C234.933 237.953 235.884 239.073 236.584 240.081C238.109 241.985 239.018 243.064 239.018 243.064C239.018 243.064 238.752 242.826 238.263 242.392C237.787 241.943 237.032 241.327 236.178 240.431C235.367 239.507 234.262 238.457 233.226 237.085C232.695 236.399 232.079 235.712 231.534 234.914C230.988 234.116 230.414 233.262 229.813 232.38C229.267 231.47 228.694 230.518 228.106 229.524C227.546 228.515 227.029 227.451 226.469 226.359C225.938 225.253 225.448 224.105 224.902 222.943C224.399 221.766 223.951 220.534 223.475 219.288C222.608 216.768 221.713 214.163 221.041 211.447C220.342 208.744 219.712 205.972 219.208 203.185C218.705 200.399 218.327 197.585 217.991 194.826C217.669 192.068 217.474 189.323 217.334 186.691C217.166 184.045 217.138 181.482 217.124 179.06C217.11 176.637 217.18 174.341 217.278 172.241C217.46 168.012 217.851 164.512 218.117 162.061C218.439 159.611 218.705 158.225 218.705 158.225Z" fill="#B76A6A"/>
<path d="M228.553 158.225C228.553 158.225 228.637 159.527 228.791 161.809C228.875 162.943 228.973 164.33 229.085 165.912C229.211 167.494 229.351 169.286 229.505 171.233C229.687 173.179 229.882 175.279 230.092 177.506C230.316 179.732 230.568 182.07 230.862 184.493C231.114 186.915 231.505 189.407 231.827 191.928C232.121 194.462 232.624 197.011 233.03 199.573C233.464 202.135 233.981 204.67 234.443 207.176C235.059 209.654 235.52 212.119 236.122 214.471C236.793 216.796 237.311 219.092 237.969 221.22C238.654 223.335 239.298 225.337 239.899 227.185C240.599 228.991 241.242 230.658 241.816 232.142C241.956 232.52 242.096 232.87 242.222 233.22C242.375 233.556 242.529 233.878 242.683 234.186C242.977 234.802 243.243 235.376 243.481 235.895C244.432 237.981 244.978 239.171 244.978 239.171C244.978 239.171 244.264 238.079 243.005 236.161C242.697 235.67 242.347 235.138 241.984 234.55C241.802 234.256 241.606 233.948 241.41 233.64C241.242 233.304 241.06 232.968 240.879 232.604C240.151 231.176 239.326 229.566 238.458 227.787C237.675 225.981 236.891 223.993 236.052 221.878C235.255 219.764 234.569 217.468 233.814 215.115C233.128 212.749 232.513 210.271 231.883 207.75C231.379 205.216 230.806 202.639 230.358 200.049C229.994 197.445 229.505 194.854 229.239 192.292C228.917 189.729 228.665 187.195 228.497 184.731C228.274 182.28 228.19 179.9 228.092 177.646C227.966 175.391 227.994 173.263 227.966 171.303C227.938 163.433 228.553 158.225 228.553 158.225Z" fill="#B76A6A"/>
<path d="M243.607 161.768C243.607 161.768 243.887 166.626 244.307 173.907C244.516 177.534 244.768 181.777 245.02 186.313C245.174 188.582 245.328 190.92 245.482 193.3C245.65 195.681 245.831 198.089 246.055 200.498C246.237 202.906 246.461 205.314 246.727 207.681C246.993 210.047 247.23 212.371 247.538 214.612C247.846 216.852 248.154 219.008 248.504 221.067C248.867 223.097 249.231 225.029 249.609 226.794C250.014 228.544 250.42 230.154 250.826 231.568C251.274 232.968 251.623 234.201 252.029 235.181C252.393 236.175 252.729 236.945 252.966 237.449C253.204 237.967 253.33 238.247 253.33 238.247C253.33 238.247 253.162 237.995 252.84 237.519C252.519 237.043 252.029 236.357 251.539 235.405C250.994 234.481 250.448 233.291 249.847 231.918C249.567 231.218 249.273 230.476 248.951 229.706C248.671 228.908 248.392 228.068 248.098 227.2C247.832 226.317 247.552 225.393 247.272 224.441C247.021 223.475 246.769 222.481 246.517 221.459C246.041 219.4 245.552 217.23 245.174 214.976C244.796 212.707 244.39 210.369 244.125 207.975C243.831 205.58 243.565 203.158 243.355 200.722C243.159 198.285 243.005 195.849 242.88 193.454C242.74 191.06 242.698 188.694 242.642 186.411C242.558 181.833 242.628 177.576 242.768 173.921C242.991 166.612 243.607 161.768 243.607 161.768Z" fill="#B76A6A"/>
<path d="M321.209 158.225C321.209 158.225 321.223 159.625 321.237 162.089C321.279 164.54 321.181 168.04 321.041 172.241C320.887 176.427 320.621 181.314 320.146 186.509C319.936 189.113 319.586 191.788 319.264 194.504C318.901 197.221 318.495 199.965 317.977 202.695C317.516 205.426 316.914 208.142 316.271 210.789C315.963 212.119 315.571 213.407 315.249 214.709C314.885 215.997 314.494 217.258 314.116 218.504C313.696 219.736 313.277 220.94 312.871 222.116C312.423 223.279 312.004 224.427 311.542 225.519C311.066 226.611 310.591 227.661 310.143 228.683C309.653 229.692 309.178 230.658 308.716 231.582C307.695 233.388 306.785 235.068 305.848 236.483C304.981 237.953 304.029 239.073 303.33 240.081C301.805 241.985 300.896 243.064 300.896 243.064C300.896 243.064 301.161 242.826 301.651 242.392C302.127 241.943 302.882 241.327 303.735 240.431C304.547 239.507 305.652 238.457 306.687 237.085C307.219 236.399 307.835 235.712 308.38 234.914C308.926 234.116 309.499 233.262 310.101 232.38C310.647 231.47 311.22 230.518 311.808 229.524C312.367 228.515 312.885 227.451 313.445 226.359C313.976 225.253 314.466 224.105 315.011 222.943C315.515 221.766 315.963 220.534 316.438 219.288C317.306 216.768 318.201 214.163 318.873 211.447C319.572 208.744 320.202 205.972 320.705 203.185C321.209 200.399 321.587 197.585 321.922 194.826C322.244 192.068 322.44 189.323 322.594 186.691C322.762 184.045 322.79 181.482 322.804 179.06C322.818 176.637 322.748 174.341 322.65 172.241C322.468 168.012 322.076 164.512 321.811 162.061C321.475 159.611 321.209 158.225 321.209 158.225Z" fill="#B76A6A"/>
<path d="M311.36 158.225C311.36 158.225 311.276 159.527 311.122 161.809C311.038 162.943 310.94 164.33 310.828 165.912C310.702 167.494 310.562 169.286 310.408 171.233C310.227 173.179 310.031 175.279 309.821 177.506C309.597 179.732 309.345 182.07 309.051 184.493C308.8 186.915 308.408 189.407 308.086 191.928C307.792 194.462 307.289 197.011 306.883 199.573C306.449 202.135 305.932 204.67 305.47 207.176C304.854 209.654 304.393 212.119 303.791 214.471C303.12 216.796 302.602 219.092 301.945 221.22C301.259 223.335 300.615 225.337 300.014 227.185C299.314 228.991 298.671 230.658 298.097 232.142C297.957 232.52 297.817 232.87 297.692 233.22C297.538 233.556 297.384 233.878 297.23 234.186C296.936 234.802 296.67 235.376 296.432 235.895C295.481 237.981 294.936 239.171 294.936 239.171C294.936 239.171 295.649 238.079 296.908 236.161C297.216 235.67 297.566 235.138 297.929 234.55C298.111 234.256 298.307 233.948 298.503 233.64C298.671 233.304 298.853 232.968 299.035 232.604C299.762 231.176 300.587 229.566 301.455 227.787C302.238 225.981 303.022 223.993 303.861 221.878C304.659 219.764 305.344 217.468 306.1 215.115C306.785 212.749 307.401 210.271 308.03 207.75C308.534 205.216 309.107 202.639 309.555 200.049C309.919 197.445 310.408 194.854 310.674 192.292C310.996 189.729 311.248 187.195 311.416 184.731C311.64 182.28 311.724 179.9 311.821 177.646C311.947 175.391 311.919 173.263 311.947 171.303C311.975 163.433 311.36 158.225 311.36 158.225Z" fill="#B76A6A"/>
<path d="M296.307 161.768C296.307 161.768 296.027 166.626 295.608 173.907C295.398 177.534 295.146 181.777 294.894 186.313C294.74 188.582 294.586 190.92 294.432 193.3C294.264 195.681 294.083 198.089 293.859 200.498C293.677 202.906 293.453 205.314 293.187 207.681C292.921 210.047 292.684 212.371 292.376 214.612C292.068 216.852 291.746 219.008 291.411 221.067C291.047 223.097 290.683 225.029 290.305 226.794C289.9 228.544 289.494 230.154 289.088 231.568C288.641 232.968 288.291 234.201 287.885 235.181C287.521 236.175 287.186 236.945 286.948 237.449C286.71 237.967 286.584 238.247 286.584 238.247C286.584 238.247 286.752 237.995 287.074 237.519C287.395 237.043 287.885 236.357 288.375 235.405C288.92 234.481 289.466 233.291 290.067 231.918C290.347 231.218 290.641 230.476 290.963 229.706C291.229 228.908 291.522 228.068 291.816 227.2C292.082 226.317 292.362 225.393 292.642 224.441C292.879 223.475 293.145 222.481 293.397 221.459C293.873 219.4 294.348 217.23 294.74 214.976C295.118 212.707 295.524 210.369 295.789 207.975C296.083 205.58 296.349 203.158 296.559 200.722C296.755 198.285 296.909 195.849 297.035 193.454C297.174 191.06 297.216 188.694 297.258 186.411C297.342 181.833 297.286 177.576 297.132 173.921C296.923 166.612 296.307 161.768 296.307 161.768Z" fill="#B76A6A"/>
</g>
<path d="M283.785 185.529H269.949H256.113L244.306 233.571L269.949 269.164L295.607 230.63L283.785 185.529Z" fill="#FFAE8A"/>
<path d="M283.785 185.529H269.963H256.127L253.245 197.235C261.429 205.468 278.413 210.915 288.892 205.02L283.785 185.529Z" fill="#F79B77"/>
<path d="M220.887 138.216C220.887 138.216 212.563 124.802 207.568 131.187C202.56 137.558 210.618 152.932 220.887 150.314V138.216Z" fill="#FFAE8A"/>
<path d="M319.026 138.216C319.026 138.216 327.35 124.802 332.331 131.187C337.325 137.558 329.281 152.932 319.026 150.314V138.216Z" fill="#FFAE8A"/>
<path d="M270.132 65.3486C213.5 65.3486 217.949 137.754 219.054 155.41C220.16 173.067 230.988 179.13 245.146 190.248C259.303 201.351 270.132 200.189 270.132 200.189C270.132 200.189 280.96 201.365 295.118 190.248C309.276 179.13 320.09 173.067 321.195 155.41C322.314 137.754 326.763 65.3486 270.132 65.3486Z" fill="#FFAE8A"/>
<path opacity="0.5" d="M321.447 129.492C321.797 139 321.293 147.065 321.013 151.56C319.908 169.216 309.08 175.279 294.936 186.397C280.778 197.501 269.95 196.338 269.95 196.338C269.95 196.338 259.121 197.501 244.964 186.397C230.806 175.279 219.991 169.216 218.872 151.56C218.816 150.663 218.746 149.613 218.69 148.437C218.802 151.238 218.956 153.604 219.068 155.396C220.173 173.053 231.002 179.116 245.159 190.233C259.317 201.337 270.146 200.175 270.146 200.175C270.146 200.175 280.974 201.351 295.132 190.233C309.29 179.116 320.104 173.053 321.209 155.396C321.517 150.313 322.104 140.652 321.447 129.492Z" fill="#FFBCA1"/>
<path d="M341.676 223.167L290.543 211.321C290.543 227.354 272.524 227.298 271.069 227.018V227.004C271.069 227.004 271.055 227.004 271.013 227.018C270.985 227.018 270.957 227.004 270.957 227.004V227.018C269.502 227.312 249.776 227.354 249.776 211.321L200.35 223.167L210.898 271.993C210.898 271.993 197.314 301.761 220.985 322.806L225.322 395.393H270.971H271.069H318.215L321.055 322.806C344.712 301.761 331.142 271.993 331.142 271.993L341.676 223.167Z" fill="#F5BE0B"/>
<path d="M270.944 231.96V231.932C270.944 231.932 270.971 231.932 271.013 231.946C271.055 231.932 271.083 231.932 271.083 231.932V231.96C272.902 232.325 295.384 232.381 295.664 212.511L290.543 211.321C290.543 227.354 272.524 227.298 271.069 227.018V227.004C271.069 227.004 271.055 227.004 271.013 227.018C270.985 227.018 270.957 227.004 270.957 227.004V227.018C269.503 227.312 249.777 227.354 249.777 211.321L244.223 212.651C244.642 232.367 269.125 232.325 270.944 231.96Z" fill="#F9B212"/>
<path d="M284.416 130.781C284.416 130.781 284.066 126.692 285.465 125.866C286.864 125.04 299.315 124.634 303.876 125.866C308.437 127.098 310.367 132.769 310.367 132.769C310.367 132.769 308.716 130.403 301.693 129.675C296.545 129.157 286.165 131.607 284.416 130.781Z" fill="#AA6868"/>
<path d="M255.848 130.781C255.848 130.781 256.198 126.692 254.799 125.866C253.4 125.04 240.949 124.634 236.388 125.866C231.827 127.098 229.896 132.769 229.896 132.769C229.896 132.769 231.547 130.403 238.57 129.675C243.719 129.157 254.085 131.607 255.848 130.781Z" fill="#AA6868"/>
<path d="M300.77 144.685C300.77 147.696 299.12 150.146 297.077 150.146C295.035 150.146 293.384 147.696 293.384 144.685C293.384 141.675 295.035 139.225 297.077 139.225C299.12 139.225 300.77 141.675 300.77 144.685Z" fill="#111B24"/>
<path d="M247.664 144.685C247.664 147.696 246.013 150.146 243.971 150.146C241.928 150.146 240.277 147.696 240.277 144.685C240.277 141.675 241.928 139.225 243.971 139.225C246.013 139.225 247.664 141.675 247.664 144.685Z" fill="#111B24"/>
<path d="M253.777 172.787C253.777 172.787 258.604 184.227 270.132 184.227C281.659 184.227 286.458 172.787 286.458 172.787C286.458 172.787 272.986 178.822 253.777 172.787Z" fill="#F4472A"/>
<path d="M253.806 172.871C253.806 172.871 261.752 179.424 270.342 179.424C278.932 179.424 286.262 172.871 286.262 172.871C286.262 172.871 272.79 180.46 253.806 172.871Z" fill="white"/>
<path d="M286.906 172.479C286.906 172.479 275.546 171.779 273.349 172.479C271.181 173.165 271.055 173.235 270.342 173.235C269.586 173.235 269.502 173.179 267.334 172.479C265.137 171.779 253.777 172.479 253.777 172.479C267.138 179.158 284.443 174.986 286.906 172.479Z" fill="#F4472A"/>
<path d="M251.105 171.597C262.451 177.464 277.924 177.856 289.158 171.597C289.41 171.457 289.158 171.135 288.906 171.275C277.826 177.464 262.563 177.072 251.357 171.275C251.091 171.135 250.839 171.471 251.105 171.597Z" fill="#F4472A"/>
<path d="M264.214 161.768C264.214 161.768 265.039 162.048 266.27 162.468C266.858 162.636 267.515 162.86 268.187 163C268.523 163.084 268.859 163.126 269.194 163.196C269.53 163.21 269.866 163.294 270.202 163.266C270.537 163.308 270.859 163.266 271.195 163.238C271.531 163.252 271.838 163.126 272.174 163.098C272.496 163.042 272.804 162.916 273.125 162.846C273.447 162.79 273.727 162.622 274.021 162.538C274.301 162.426 274.594 162.356 274.818 162.23C275.042 162.118 275.266 162.034 275.448 161.964C275.812 161.824 276.063 161.754 276.063 161.754C276.063 161.754 276.007 161.978 275.84 162.356C275.672 162.72 275.448 163.294 274.972 163.798C274.734 164.05 274.51 164.4 274.161 164.638C273.825 164.876 273.475 165.17 273.056 165.366C272.622 165.534 272.188 165.801 271.671 165.857C271.181 165.969 270.663 166.039 270.146 165.997C269.628 165.997 269.138 165.885 268.649 165.773C268.173 165.633 267.725 165.464 267.334 165.24C266.522 164.82 265.893 164.274 265.431 163.742C264.452 162.72 264.214 161.768 264.214 161.768Z" fill="#F89675"/>
<g opacity="0.1">
<path d="M245.439 159.667C245.439 164.68 240.822 168.741 235.142 168.741C229.448 168.741 224.846 164.68 224.846 159.667C224.846 154.654 229.462 150.594 235.142 150.594C240.836 150.594 245.439 154.654 245.439 159.667Z" fill="#F4472A"/>
<path d="M316.732 159.667C316.732 164.68 312.115 168.741 306.435 168.741C300.755 168.741 296.139 164.68 296.139 159.667C296.139 154.654 300.755 150.594 306.435 150.594C312.115 150.594 316.732 154.654 316.732 159.667Z" fill="#F4472A"/>
</g>
<path d="M341.425 223.167C341.425 223.167 359.696 229.44 368.454 250.303C377.212 271.152 398.644 333.994 395.161 347.968C391.412 362.964 318.915 391.865 318.915 391.865L307.947 372.906C307.947 372.906 352.799 341.485 360.27 335.492L331.115 271.992L341.425 223.167Z" fill="#E7A91F"/>
<path d="M200.532 223.167C200.532 223.167 182.261 229.44 173.503 250.303C164.745 271.152 143.313 333.994 146.796 347.968C150.546 362.964 223.042 391.865 223.042 391.865L234.01 372.906C234.01 372.906 189.158 341.485 181.687 335.492L210.898 271.992L200.532 223.167Z" fill="#E7A91F"/>
<path d="M295.342 321.826C285.451 318.759 276.078 316.169 270.986 316.169C265.879 316.169 256.52 318.759 246.629 321.826C236.724 324.892 229.659 323.24 229.659 323.24C236.682 327.595 246.405 328.211 256.058 324.654C264.564 321.518 270.986 321.588 270.986 321.588C270.986 321.588 277.323 321.756 285.913 324.654C295.734 327.973 305.289 327.595 312.312 323.24C312.312 323.254 305.233 324.906 295.342 321.826Z" fill="#F4B425"/>
<path d="M332.247 133.833C330.135 131.985 328.4 132.153 326.987 133.343C326.819 133.427 326.693 133.553 326.609 133.693C324.147 136.199 322.79 141.814 322.37 144.447C322.202 145.525 323.853 145.987 324.021 144.909C324.315 143.102 325.364 137.782 327.295 135.401C328.428 137.46 328.54 139.91 327.253 141.996C326.679 142.948 328.162 143.803 328.736 142.864C330.345 140.218 330.219 136.941 328.666 134.351C329.379 134.099 330.163 134.267 331.044 135.037C331.856 135.765 333.073 134.561 332.247 133.833Z" fill="#F4885D"/>
<path d="M208.66 133.833C210.772 131.985 212.507 132.153 213.92 133.343C214.088 133.427 214.214 133.553 214.298 133.693C216.76 136.199 218.117 141.814 218.537 144.447C218.718 145.525 217.068 145.987 216.886 144.909C216.592 143.102 215.543 137.782 213.612 135.401C212.479 137.46 212.367 139.91 213.654 141.996C214.228 142.948 212.745 143.803 212.171 142.864C210.562 140.218 210.688 136.941 212.255 134.351C211.542 134.099 210.758 134.267 209.877 135.037C209.037 135.765 207.82 134.561 208.66 133.833Z" fill="#F4885D"/>
<path d="M310.493 377.288C310.493 377.288 294.74 377.05 292.222 379.333C289.704 381.615 282.163 395.575 283.31 396.947C284.457 398.32 302.267 395.113 306.841 393.293C311.416 391.459 317.46 389.344 317.46 389.344L310.493 377.288Z" fill="#FFAE8A"/>
<path d="M230.834 377.288C230.834 377.288 246.587 377.05 249.105 379.333C251.623 381.615 259.164 395.575 258.017 396.947C256.87 398.32 239.06 395.113 234.486 393.293C229.911 391.459 223.867 389.344 223.867 389.344L230.834 377.288Z" fill="#FFAE8A"/>
<path d="M218.565 134.995C218.565 134.995 245.775 120.951 253.232 94.1931C253.232 94.1931 275.504 131.887 321.671 134.995C321.671 134.995 326.106 128.834 331.1 130.039C331.1 130.039 334.262 57.6055 269.95 57.6055C205.638 57.6055 211.122 129.478 211.122 129.478C211.122 129.478 214.662 130.501 218.565 134.995Z" fill="#814C4A"/>
<g opacity="0.2">
<path d="M261.612 82.543C261.612 82.543 262.256 83.3551 263.417 84.6993C264.592 86.0575 266.271 87.9618 268.397 90.1461C269.433 91.2523 270.636 92.4005 271.867 93.6187C273.112 94.8369 274.497 96.041 275.868 97.3432C277.323 98.5614 278.764 99.8916 280.331 101.11C281.1 101.74 281.884 102.356 282.667 102.986C283.465 103.602 284.29 104.162 285.115 104.764C285.941 105.352 286.724 105.983 287.564 106.543C288.403 107.089 289.243 107.635 290.068 108.181C291.705 109.301 293.412 110.267 295.034 111.219C296.643 112.214 298.294 112.998 299.833 113.81C300.602 114.202 301.358 114.594 302.085 114.972C302.827 115.308 303.554 115.63 304.254 115.924C305.653 116.512 306.912 117.156 308.059 117.618C309.22 118.052 310.241 118.444 311.067 118.753C312.732 119.425 313.697 119.803 313.697 119.803C313.697 119.803 312.69 119.635 310.927 119.285C310.046 119.103 308.968 118.879 307.737 118.626C306.52 118.332 305.177 117.87 303.694 117.408C302.953 117.17 302.183 116.932 301.386 116.666C300.602 116.372 299.819 116.022 298.994 115.672C297.357 114.972 295.594 114.314 293.901 113.348C292.194 112.424 290.362 111.569 288.669 110.421C287.802 109.875 286.934 109.329 286.053 108.769C285.185 108.209 284.36 107.579 283.507 106.977C282.681 106.347 281.828 105.759 281.016 105.114C280.219 104.456 279.422 103.798 278.638 103.154C277.841 102.524 277.085 101.852 276.372 101.152C275.644 100.466 274.931 99.7796 274.217 99.1215C272.846 97.7493 271.545 96.3911 270.384 95.0469C269.209 93.7167 268.132 92.4285 267.194 91.1823C266.229 89.9781 265.432 88.8019 264.704 87.7658C264.005 86.7296 263.417 85.7915 262.955 85.0213C262.06 83.4671 261.612 82.543 261.612 82.543Z" fill="#B76A6A"/>
<path d="M268.243 72.9375C268.243 72.9375 270.929 75.3599 275.042 78.8044C276.078 79.6585 277.197 80.5827 278.372 81.5628C279.561 82.529 280.82 83.5371 282.135 84.5733C284.793 86.6036 287.577 88.8019 290.501 90.8182L292.656 92.3725C293.397 92.8626 294.125 93.3526 294.852 93.8427C296.307 94.8228 297.734 95.775 299.147 96.6571C300.546 97.5673 301.917 98.4074 303.232 99.1775C304.547 99.9616 305.778 100.718 306.967 101.348C308.129 102.006 309.206 102.608 310.157 103.14C311.122 103.644 311.976 104.078 312.675 104.442C314.06 105.184 314.858 105.633 314.858 105.633C314.858 105.633 313.99 105.394 312.466 104.946C311.71 104.708 310.787 104.428 309.737 104.106C308.702 103.728 307.541 103.28 306.282 102.762C305.652 102.496 304.981 102.258 304.323 101.964C303.666 101.642 302.98 101.32 302.281 100.984C300.868 100.312 299.385 99.6116 297.93 98.7434C296.447 97.9033 294.894 97.0772 293.425 96.069C292.67 95.593 291.914 95.1029 291.159 94.6128L288.934 93.0586C287.451 92.0084 286.024 90.8882 284.625 89.7961C283.198 88.7179 281.925 87.5137 280.61 86.4356C278.092 84.1672 275.812 81.9549 273.993 79.9526C272.132 77.9783 270.719 76.214 269.74 74.9678C268.733 73.6936 268.243 72.9375 268.243 72.9375Z" fill="#B76A6A"/>
<path d="M272.356 65.6143C272.356 65.6143 275.938 65.6983 281.17 66.9585C282.471 67.2945 283.884 67.6166 285.353 68.1206C286.081 68.3587 286.836 68.5967 287.606 68.8487C288.361 69.1428 289.13 69.4368 289.914 69.7449C291.495 70.333 293.062 71.1031 294.67 71.8592C296.237 72.6993 297.818 73.5535 299.371 74.4916L301.61 76.0038L302.729 76.76L303.778 77.6001C305.177 78.7063 306.548 79.8124 307.709 81.0446C308.311 81.6467 308.912 82.2208 309.472 82.8229C310.059 83.383 310.493 84.0831 310.997 84.6712C311.948 85.9034 312.913 87.0095 313.557 88.2137C314.256 89.3759 314.872 90.4541 315.418 91.3922C315.865 92.3864 316.201 93.2965 316.495 94.0106C317.068 95.4668 317.362 96.2929 317.362 96.2929C317.362 96.2929 316.845 95.5508 316.005 94.2486C315.586 93.6045 315.082 92.8204 314.508 91.9243C313.837 91.0842 313.067 90.16 312.284 89.1239C311.542 88.0597 310.465 87.1075 309.472 86.0154C308.493 84.8952 307.275 83.9011 306.072 82.8089C304.911 81.6747 303.512 80.7506 302.183 79.7004L301.176 78.9163L300.099 78.2162L297.93 76.802C296.461 75.8778 294.95 75.0237 293.467 74.1976C291.928 73.4695 290.487 72.5733 288.977 71.9432C288.235 71.6072 287.508 71.2571 286.794 70.9351C286.067 70.627 285.367 70.319 284.668 70.0249C283.283 69.4228 281.954 68.9468 280.736 68.4427C278.274 67.5326 276.19 66.7904 274.707 66.3284C273.21 65.8523 272.356 65.6143 272.356 65.6143Z" fill="#B76A6A"/>
<path d="M249.959 82.543C249.959 82.543 249.805 83.3551 249.413 84.7413C249.021 86.1275 248.406 88.1018 247.468 90.3842C246.573 92.6945 245.314 95.2989 243.845 98.0153C243.048 99.3455 242.334 100.774 241.397 102.118C240.515 103.476 239.606 104.862 238.613 106.193C238.109 106.851 237.619 107.523 237.116 108.167C236.584 108.797 236.067 109.427 235.549 110.057C234.542 111.345 233.394 112.466 232.331 113.586C231.296 114.734 230.149 115.714 229.086 116.666C228.554 117.142 228.036 117.59 227.547 118.038C227.015 118.444 226.497 118.837 226.008 119.215C225.014 119.957 224.119 120.643 223.294 121.203C222.44 121.735 221.685 122.183 221.083 122.575C219.852 123.317 219.139 123.709 219.139 123.709C219.139 123.709 219.726 123.121 220.762 122.141C221.279 121.665 221.923 121.077 222.65 120.405C223.35 119.705 224.133 118.907 224.986 118.038C225.42 117.604 225.854 117.17 226.316 116.708C226.749 116.232 227.211 115.728 227.673 115.21C228.61 114.188 229.603 113.124 230.568 111.961C231.562 110.827 232.555 109.637 233.52 108.377C234.01 107.761 234.514 107.131 235.003 106.515L236.416 104.568C237.41 103.308 238.319 101.978 239.2 100.662C240.11 99.3735 240.935 98.0433 241.774 96.7832C242.558 95.495 243.369 94.2768 244.069 93.0726C244.768 91.8684 245.454 90.7482 246.055 89.6981C248.49 85.4834 249.959 82.543 249.959 82.543Z" fill="#B76A6A"/>
<path d="M255.876 68.1348C255.876 68.1348 255.68 68.1908 255.303 68.3168C254.925 68.4288 254.407 68.6528 253.722 68.8909C253.064 69.1849 252.239 69.479 251.343 69.927C250.434 70.3331 249.455 70.8792 248.378 71.4533C247.832 71.7193 247.314 72.0974 246.755 72.4474C246.209 72.7975 245.608 73.1195 245.062 73.5536C244.502 73.9597 243.915 74.3657 243.327 74.7998C242.768 75.2619 242.18 75.7239 241.592 76.2C240.375 77.0961 239.34 78.2863 238.165 79.3225C237.06 80.4567 235.996 81.6608 234.961 82.879C234.01 84.1672 232.919 85.3714 232.065 86.7156C231.254 88.0738 230.26 89.306 229.547 90.6502C228.834 91.9944 228.092 93.2686 227.393 94.4868C226.791 95.761 226.217 96.9652 225.7 98.0714C225.434 98.6314 225.168 99.1635 224.93 99.6676C224.692 100.186 224.511 100.69 224.329 101.152C223.951 102.09 223.615 102.902 223.335 103.56C222.762 104.904 222.412 105.661 222.412 105.661C222.412 105.661 222.538 104.848 222.818 103.406C222.958 102.692 223.14 101.824 223.335 100.816C223.447 100.312 223.545 99.7796 223.685 99.2195C223.867 98.6734 224.049 98.0993 224.231 97.4973C224.623 96.3071 225.028 94.9909 225.532 93.6327C226.119 92.3165 226.735 90.9163 227.421 89.488C227.728 88.7599 228.176 88.0878 228.582 87.3737C228.987 86.6596 229.421 85.9595 229.855 85.2454C230.722 83.8172 231.841 82.515 232.835 81.1428C233.954 79.8686 235.115 78.6084 236.318 77.4322C237.577 76.326 238.794 75.1918 240.123 74.2957C240.781 73.8336 241.397 73.3436 242.054 72.9515C242.712 72.5734 243.369 72.1954 243.999 71.8173C245.258 71.0892 246.531 70.5431 247.706 70.0531C248.895 69.591 249.986 69.2129 250.98 68.9609C251.959 68.6528 252.854 68.5268 253.568 68.3868C255.051 68.1348 255.876 68.1348 255.876 68.1348Z" fill="#B76A6A"/>
</g>
<path d="M215.376 120.055L207.149 120.013C207.149 119.341 208.185 52.3545 271.07 52.3545C333.773 52.3545 334.5 119.355 334.5 120.041H326.274C326.274 117.618 325.505 60.5878 271.07 60.5878C248.112 60.5878 231.786 70.4873 222.566 90.0203C215.529 104.905 215.376 119.901 215.376 120.055Z" fill="#0090D7"/>
<path opacity="0.5" d="M215.375 120.055C215.375 119.901 215.529 104.904 222.566 90.0201C231.8 70.4871 248.112 60.5876 271.069 60.5876C325.518 60.5876 326.274 117.618 326.274 120.041H330.597C330.205 111.471 325.546 57.6191 271.055 57.6191C216.383 57.6191 211.486 111.527 211.066 120.041L215.375 120.055Z" fill="#52B6EF"/>
<path d="M325.239 152.372C317.726 158.799 310.213 165.24 302.701 171.667C300.882 173.221 303.19 176.162 305.023 174.593C312.536 168.166 320.048 161.725 327.561 155.298C329.38 153.744 327.071 150.804 325.239 152.372Z" fill="#0090D7"/>
<path d="M311.305 167.326C312.69 169.076 312.396 171.611 310.661 172.997L304.38 177.996C302.631 179.382 300.099 179.088 298.728 177.351C297.343 175.615 297.637 173.067 299.372 171.681L305.653 166.682C307.388 165.296 309.92 165.59 311.305 167.326Z" fill="#52B6EF"/>
<path opacity="0.5" d="M311.305 167.326C310.353 166.136 308.884 165.646 307.485 165.884C307.709 166.066 307.905 166.262 308.087 166.5C309.472 168.236 309.178 170.784 307.443 172.171L301.162 177.169C300.616 177.603 299.973 177.856 299.329 177.968C300.77 179.144 302.869 179.2 304.379 177.996L310.661 172.997C312.41 171.611 312.69 169.076 311.305 167.326Z" fill="#0952AA"/>
<path d="M214.354 115.7H211.262V117.296C208.101 120.643 205.862 128.932 205.862 138.664C205.862 148.395 208.101 156.684 211.262 160.031V161.627H214.354C219.055 161.627 222.86 151.35 222.86 138.664C222.86 125.978 219.055 115.7 214.354 115.7Z" fill="#52B6EF"/>
<path d="M211.262 115.7C210.493 115.7 209.765 115.994 209.066 116.512C205.862 118.207 200.294 123.345 200.294 138.664C200.294 152.456 204.799 157.819 208.03 159.905C209.024 161.011 210.115 161.627 211.262 161.627C215.963 161.627 219.768 151.35 219.768 138.664C219.768 125.978 215.963 115.7 211.262 115.7Z" fill="#0090D7"/>
<path opacity="0.2" d="M213.711 116.666C215.865 120.825 217.278 127.63 217.278 135.331C217.278 148.017 213.473 158.294 208.772 158.294C207.625 158.294 206.534 157.678 205.54 156.572C204.953 156.194 204.323 155.704 203.68 155.074C205.065 157.524 206.66 159.009 208.031 159.891C209.024 160.997 210.115 161.613 211.262 161.613C215.963 161.613 219.768 151.335 219.768 138.649C219.768 128.274 217.208 119.508 213.711 116.666Z" fill="#814C4A"/>
<path opacity="0.2" d="M208.296 121.861C208.296 121.861 208.198 122.281 208.03 123.01C207.876 123.738 207.666 124.732 207.456 125.908C207.358 126.51 207.232 127.126 207.135 127.798C207.023 128.456 206.911 129.156 206.813 129.885C206.687 130.599 206.631 131.355 206.519 132.111C206.435 132.867 206.351 133.637 206.267 134.407C206.197 135.177 206.127 135.961 206.057 136.718C206.029 137.488 205.931 138.244 205.889 138.986C205.861 139.728 205.806 140.456 205.736 141.142C205.694 141.842 205.652 142.5 205.61 143.117C205.484 144.363 205.456 145.399 205.358 146.155C205.288 146.911 205.204 147.359 205.204 147.359C205.204 147.359 205.022 146.981 204.756 146.309C204.504 145.623 204.099 144.643 203.833 143.397C203.693 142.781 203.525 142.094 203.413 141.352C203.315 140.61 203.217 139.84 203.147 139.014C203.091 138.202 203.077 137.348 203.063 136.48C203.063 135.611 203.147 134.729 203.203 133.861C203.315 132.993 203.427 132.111 203.595 131.271C203.777 130.431 203.945 129.605 204.211 128.834C204.435 128.064 204.7 127.336 204.994 126.664C205.26 125.992 205.582 125.404 205.875 124.858C206.491 123.794 207.093 123.024 207.554 122.533C207.988 122.071 208.296 121.861 208.296 121.861Z" fill="white"/>
<path d="M326.064 115.7H329.155V117.296C332.317 120.643 334.555 128.932 334.555 138.664C334.555 148.395 332.317 156.684 329.155 160.031V161.627H326.064C321.363 161.627 317.558 151.35 317.558 138.664C317.558 125.978 321.363 115.7 326.064 115.7Z" fill="#52B6EF"/>
<path d="M329.155 115.7C329.911 115.7 330.652 115.994 331.352 116.512C334.555 118.207 340.123 123.345 340.123 138.664C340.123 152.456 335.619 157.819 332.387 159.905C331.394 161.011 330.303 161.627 329.155 161.627C324.455 161.627 320.649 151.35 320.649 138.664C320.663 125.978 324.469 115.7 329.155 115.7Z" fill="#0090D7"/>
<path opacity="0.2" d="M326.721 116.666C324.566 120.825 323.153 127.63 323.153 135.331C323.153 148.017 326.959 158.294 331.659 158.294C332.806 158.294 333.898 157.678 334.891 156.572C335.478 156.194 336.108 155.704 336.752 155.074C335.367 157.524 333.772 159.009 332.401 159.891C331.407 160.997 330.316 161.613 329.169 161.613C324.468 161.613 320.663 151.335 320.663 138.649C320.663 128.274 323.209 119.508 326.721 116.666Z" fill="#814C4A"/>
<path opacity="0.2" d="M332.135 121.861C332.135 121.861 332.233 122.281 332.401 123.01C332.554 123.738 332.764 124.732 332.974 125.908C333.072 126.51 333.198 127.126 333.296 127.798C333.408 128.456 333.52 129.156 333.618 129.885C333.744 130.599 333.8 131.355 333.911 132.111C333.995 132.867 334.079 133.637 334.163 134.407C334.233 135.177 334.303 135.961 334.373 136.718C334.415 137.488 334.499 138.244 334.541 138.986C334.569 139.728 334.625 140.456 334.695 141.142C334.737 141.842 334.779 142.5 334.821 143.117C334.947 144.363 334.975 145.399 335.073 146.155C335.143 146.911 335.227 147.359 335.227 147.359C335.227 147.359 335.408 146.981 335.674 146.309C335.926 145.623 336.332 144.643 336.598 143.397C336.737 142.781 336.891 142.094 337.017 141.352C337.115 140.61 337.213 139.84 337.283 139.014C337.339 138.202 337.353 137.348 337.367 136.48C337.367 135.611 337.283 134.729 337.227 133.861C337.115 132.993 337.003 132.111 336.835 131.271C336.654 130.431 336.486 129.605 336.22 128.834C335.996 128.064 335.73 127.336 335.436 126.664C335.171 125.992 334.849 125.404 334.555 124.858C333.939 123.794 333.338 123.024 332.876 122.533C332.429 122.071 332.135 121.861 332.135 121.861Z" fill="white"/>
<path d="M515.656 406.958H26.3145V431H515.656V406.958Z" fill="#0291BD"/>
<path d="M537.928 413.497C537.928 417.096 534.85 420.036 531.073 420.036H10.8834C7.12011 420.036 4.02832 417.096 4.02832 413.497C4.02832 409.898 7.12011 406.958 10.8834 406.958H531.073C534.85 406.958 537.928 409.898 537.928 413.497Z" fill="#01AEE4"/>
<path d="M392.069 401.176C392.069 404.368 389.481 406.959 386.277 406.959H155.68C152.49 406.959 149.902 404.368 149.902 401.176C149.902 397.983 152.49 395.379 155.68 395.379H386.277C389.467 395.379 392.069 397.969 392.069 401.176Z" fill="#184A7C"/>
<path d="M373.784 386.305C373.784 392.34 368.846 397.283 362.816 397.283H179.127C173.098 397.283 168.159 392.34 168.159 386.305V285.588C168.159 279.553 173.098 274.61 179.127 274.61H362.816C368.846 274.61 373.784 279.553 373.784 285.588V386.305Z" fill="#1D5393"/>
<path d="M279.086 335.086C279.086 339.567 275.448 343.207 270.972 343.207C266.495 343.207 262.857 339.567 262.857 335.086C262.857 330.605 266.495 326.965 270.972 326.965C275.462 326.979 279.086 330.605 279.086 335.086Z" fill="#5D93F4"/>
<path opacity="0.6" d="M362.816 274.61H323.252C320.944 349.13 219.6 384.233 174.427 396.191C175.854 396.877 177.449 397.269 179.127 397.269H362.816C368.846 397.269 373.784 392.326 373.784 386.291V285.574C373.784 279.553 368.86 274.61 362.816 274.61Z" fill="#114068"/>
<path d="M143.565 97.707H82.1765C74.7338 97.707 68.7041 103.742 68.7041 111.191V154.696C68.7041 162.145 74.7338 168.18 82.1765 168.18H112.143L129.309 180.754V168.18H143.565C151.007 168.18 157.037 162.145 157.037 154.696V111.177C157.037 103.742 150.993 97.707 143.565 97.707Z" fill="#76CCF2"/>
<path d="M115.081 114.874C115.081 116.008 114.157 116.932 113.024 116.932H81.5888C80.4556 116.932 79.5322 116.008 79.5322 114.874C79.5322 113.74 80.4556 112.815 81.5888 112.815H113.024C114.157 112.815 115.081 113.74 115.081 114.874Z" fill="#209CD4"/>
<path d="M148.755 126.118C148.755 127.252 147.831 128.176 146.698 128.176H81.5888C80.4556 128.176 79.5322 127.252 79.5322 126.118C79.5322 124.984 80.4556 124.06 81.5888 124.06H146.698C147.831 124.06 148.755 124.984 148.755 126.118Z" fill="#209CD4"/>
<path d="M148.755 137.347C148.755 138.482 147.831 139.406 146.698 139.406H81.5888C80.4556 139.406 79.5322 138.482 79.5322 137.347C79.5322 136.213 80.4556 135.289 81.5888 135.289H146.698C147.831 135.289 148.755 136.213 148.755 137.347Z" fill="#209CD4"/>
<path d="M137.535 148.591C137.535 149.725 136.611 150.649 135.478 150.649H81.5888C80.4556 150.649 79.5322 149.725 79.5322 148.591C79.5322 147.457 80.4556 146.532 81.5888 146.532H135.464C136.611 146.518 137.535 147.443 137.535 148.591Z" fill="#209CD4"/>
<path opacity="0.1" d="M143.565 97.707H142.46C143.019 134.071 114.634 156.432 92.9072 168.18H112.143L129.309 179.382V168.18H143.565C151.008 168.18 157.037 162.145 157.037 154.696V111.177C157.037 103.742 150.994 97.707 143.565 97.707Z" fill="#114068"/>
<path d="M373.938 165.379H428.121C431.717 165.379 434.627 168.291 434.627 171.89V192.907C434.627 196.506 431.717 199.418 428.121 199.418H401.372L393.09 209.472V199.418H373.938C370.343 199.418 367.433 196.506 367.433 192.907V171.89C367.419 168.291 370.343 165.379 373.938 165.379Z" fill="#F5BE0B"/>
<path d="M414.467 181.775C414.467 183.834 416.132 185.5 418.188 185.5C420.245 185.5 421.909 183.834 421.909 181.775C421.909 179.717 420.245 178.051 418.188 178.051C416.132 178.051 414.467 179.731 414.467 181.775Z" fill="white"/>
<path d="M397.302 181.775C397.302 183.834 398.967 185.5 401.023 185.5C403.08 185.5 404.744 183.834 404.744 181.775C404.744 179.717 403.08 178.051 401.023 178.051C398.967 178.051 397.302 179.731 397.302 181.775Z" fill="white"/>
<path d="M380.136 181.775C380.136 183.834 381.801 185.5 383.857 185.5C385.914 185.5 387.578 183.834 387.578 181.775C387.578 179.717 385.914 178.051 383.857 178.051C381.801 178.051 380.136 179.731 380.136 181.775Z" fill="white"/>
<path opacity="0.1" d="M373.938 165.379H381.898C380.723 184.534 399.512 194.461 415.474 199.418H401.372L393.09 209.472V199.418H373.938C370.343 199.418 367.433 196.506 367.433 192.907V171.89C367.419 168.291 370.343 165.379 373.938 165.379Z" fill="#114068"/>
<path d="M454.329 76.9156C454.816 57.4261 439.425 41.2317 419.952 40.7443C400.48 40.2569 384.299 55.6612 383.812 75.1506C383.325 94.6401 398.716 110.835 418.189 111.322C437.661 111.809 453.842 96.4051 454.329 76.9156Z" fill="#76CCF2"/>
<path d="M436.628 60.9515C430.066 66.8744 423.505 72.7973 416.93 78.7202C412.747 76.6199 408.564 74.5335 404.395 72.4332C401.835 71.159 399.596 74.9816 402.156 76.2698C406.829 78.6082 411.502 80.9605 416.174 83.2989C417.112 83.775 418.077 83.6629 418.86 82.9488C425.827 76.6619 432.794 70.3749 439.761 64.0879C441.888 62.1696 438.74 59.0332 436.628 60.9515Z" fill="#209CD4"/>
<path d="M419.07 48.5035C420.082 48.5035 420.903 47.6823 420.903 46.6692C420.903 45.6562 420.082 44.835 419.07 44.835C418.058 44.835 417.237 45.6562 417.237 46.6692C417.237 47.6823 418.058 48.5035 419.07 48.5035Z" fill="#209CD4"/>
<path d="M420.903 105.8C420.903 106.808 420.077 107.634 419.07 107.634C418.063 107.634 417.237 106.808 417.237 105.8C417.237 104.792 418.049 103.966 419.07 103.966C420.077 103.966 420.903 104.792 420.903 105.8Z" fill="#209CD4"/>
<path d="M448.603 78.0758C447.596 78.0758 446.771 77.2497 446.771 76.2415C446.771 75.2334 447.582 74.4072 448.603 74.4072C449.61 74.4072 450.436 75.2334 450.436 76.2415C450.436 77.2497 449.624 78.0758 448.603 78.0758Z" fill="#209CD4"/>
<path d="M389.523 78.0758C388.516 78.0758 387.69 77.2497 387.69 76.2415C387.69 75.2334 388.502 74.4072 389.523 74.4072C390.53 74.4072 391.356 75.2334 391.356 76.2415C391.356 77.2497 390.544 78.0758 389.523 78.0758Z" fill="#209CD4"/>
<path d="M435.564 51.6404C435.06 52.5086 433.927 52.8026 433.06 52.2985C432.193 51.7944 431.899 50.6603 432.402 49.7921C432.92 48.924 434.039 48.63 434.907 49.134C435.774 49.6381 436.068 50.7723 435.564 51.6404Z" fill="#209CD4"/>
<path d="M405.738 102.679C405.22 103.547 404.101 103.841 403.234 103.337C402.366 102.819 402.073 101.698 402.576 100.83C403.08 99.9621 404.213 99.668 405.08 100.172C405.948 100.69 406.242 101.81 405.738 102.679Z" fill="#209CD4"/>
<path d="M443.636 92.7507C442.769 92.2326 442.475 91.1124 442.979 90.2443C443.496 89.3762 444.615 89.0821 445.483 89.5862C446.364 90.1043 446.644 91.2244 446.14 92.0926C445.637 92.9607 444.517 93.2547 443.636 92.7507Z" fill="#209CD4"/>
<path d="M392.643 62.8981C391.776 62.3801 391.482 61.2599 391.985 60.3918C392.503 59.5236 393.622 59.2296 394.49 59.7336C395.357 60.2517 395.651 61.3719 395.147 62.24C394.643 63.1082 393.51 63.4022 392.643 62.8981Z" fill="#209CD4"/>
<path d="M402.576 51.6404C403.093 52.5086 404.213 52.8026 405.08 52.2985C405.947 51.7944 406.241 50.6603 405.737 49.7921C405.22 48.924 404.101 48.63 403.233 49.134C402.352 49.6381 402.058 50.7723 402.576 51.6404Z" fill="#209CD4"/>
<path d="M432.402 102.679C432.92 103.547 434.039 103.841 434.906 103.337C435.774 102.819 436.067 101.698 435.564 100.83C435.06 99.9621 433.927 99.668 433.059 100.172C432.178 100.69 431.884 101.81 432.402 102.679Z" fill="#209CD4"/>
<path d="M394.489 92.7507C395.357 92.2326 395.65 91.1124 395.147 90.2443C394.643 89.3762 393.51 89.0821 392.642 89.5862C391.761 90.1043 391.467 91.2244 391.985 92.0926C392.503 92.9607 393.622 93.2547 394.489 92.7507Z" fill="#209CD4"/>
<path d="M445.496 62.8981C446.364 62.3801 446.658 61.2599 446.154 60.3918C445.636 59.5236 444.517 59.2296 443.65 59.7336C442.782 60.2517 442.489 61.3719 442.992 62.24C443.496 63.1082 444.615 63.4022 445.496 62.8981Z" fill="#209CD4"/>
</g>
<defs>
<clipPath id="clip0_50_14578">
<rect width="542" height="431" fill="white"/>
</clipPath>
</defs>
</svg>
