<svg width="30" height="30" viewBox="0 0 30 30" fill="none" xmlns="http://www.w3.org/2000/svg">
<g clip-path="url(#clip0_2_637)">
<path fill-rule="evenodd" clip-rule="evenodd" d="M20 28V17C20 16.448 19.552 16 19 16H11C10.448 16 9.99997 16.448 9.99997 17V28H5.99997V8.658L15 2.229L24 8.658V28H20ZM12 28H18V18H12V28ZM29.581 10.186L15.581 0.186C15.233 -0.062 14.767 -0.062 14.419 0.186L0.418967 10.186C-0.0310331 10.507 -0.135033 11.132 0.185967 11.581C0.506967 12.031 1.13197 12.134 1.58097 11.814L3.99997 10.086V29C3.99997 29.552 4.44797 30 4.99997 30H25C25.552 30 26 29.552 26 29V10.086L28.419 11.814C28.867 12.134 29.493 12.031 29.814 11.581C30.135 11.132 30.031 10.507 29.581 10.186Z" fill="#364F6B"/>
</g>
<defs>
<clipPath id="clip0_2_637">
<rect width="30" height="30" fill="white"/>
</clipPath>
</defs>
</svg>
