<svg width="72" height="82" viewBox="0 0 72 82" fill="none" xmlns="http://www.w3.org/2000/svg">
<path d="M34.7304 65.3598C33.3643 66.9934 30.9214 66.9934 29.4107 65.3598L19.125 55.1098C17.6304 53.7484 17.6304 51.3141 19.125 49.8086C20.6357 48.3191 23.0786 48.3191 24.4446 49.8086L32.1429 57.352L47.4107 42.1211C48.9214 40.6316 51.3643 40.6316 52.7304 42.1211C54.3696 43.6266 54.3696 46.0609 52.7304 47.4223L34.7304 65.3598ZM20.5714 0C22.7089 0 24.4286 1.72168 24.4286 3.84375V10.25H47.5714V3.84375C47.5714 1.72168 49.2911 0 51.4286 0C53.5661 0 55.2857 1.72168 55.2857 3.84375V10.25H61.7143C67.3875 10.25 72 14.8385 72 20.5V71.75C72 77.4035 67.3875 82 61.7143 82H10.2857C4.60446 82 0 77.4035 0 71.75V20.5C0 14.8385 4.60446 10.25 10.2857 10.25H16.7143V3.84375C16.7143 1.72168 18.4339 0 20.5714 0ZM64.2857 30.75H7.71429V71.75C7.71429 73.1594 8.865 74.3125 10.2857 74.3125H61.7143C63.1286 74.3125 64.2857 73.1594 64.2857 71.75V30.75Z" fill="#209CD4"/>
</svg>
