<svg width="114" height="114" viewBox="0 0 114 114" fill="none" xmlns="http://www.w3.org/2000/svg">
<path d="M45.125 44.5788V69.426C45.125 72.1335 48.0225 73.8483 50.3975 72.5515L73.131 60.1255C73.6919 59.8187 74.1599 59.3667 74.4859 58.8167C74.8119 58.2668 74.9839 57.6393 74.9839 57C74.9839 56.3607 74.8119 55.7332 74.4859 55.1833C74.1599 54.6333 73.6919 54.1813 73.131 53.8745L50.3975 41.4485C49.8546 41.1515 49.2437 41.001 48.625 41.0118C48.0062 41.0227 47.401 41.1945 46.8688 41.5105C46.3367 41.8264 45.896 42.2755 45.5903 42.8135C45.2845 43.3515 45.1241 43.9599 45.125 44.5788ZM24.9375 14.25C20.8432 14.25 16.9166 15.8764 14.0215 18.7715C11.1264 21.6666 9.5 25.5932 9.5 29.6875V84.3125C9.5 88.4068 11.1264 92.3334 14.0215 95.2285C16.9166 98.1236 20.8432 99.75 24.9375 99.75H89.0625C91.0898 99.75 93.0972 99.3507 94.9702 98.5749C96.8431 97.7991 98.545 96.662 99.9785 95.2285C101.412 93.795 102.549 92.0931 103.325 90.2202C104.101 88.3472 104.5 86.3398 104.5 84.3125V29.6875C104.5 27.6602 104.101 25.6528 103.325 23.7798C102.549 21.9069 101.412 20.205 99.9785 18.7715C98.545 17.338 96.8431 16.2009 94.9702 15.4251C93.0972 14.6493 91.0898 14.25 89.0625 14.25H24.9375ZM16.625 29.6875C16.625 25.099 20.349 21.375 24.9375 21.375H89.0625C93.651 21.375 97.375 25.099 97.375 29.6875V84.3125C97.375 86.5171 96.4992 88.6314 94.9403 90.1903C93.3814 91.7492 91.2671 92.625 89.0625 92.625H24.9375C22.7329 92.625 20.6186 91.7492 19.0597 90.1903C17.5008 88.6314 16.625 86.5171 16.625 84.3125V29.6875Z" fill="white"/>
</svg>
