<svg width="62" height="62" viewBox="0 0 62 62" fill="none" xmlns="http://www.w3.org/2000/svg">
<path d="M31.0007 0.333008C24.9354 0.333008 19.0063 2.13158 13.9632 5.50127C8.92007 8.87097 4.98945 13.6604 2.66836 19.264C0.347272 24.8676 -0.260031 31.0337 0.92325 36.9824C2.10653 42.9312 5.02725 48.3955 9.31606 52.6843C13.6049 56.9731 19.0691 59.8938 25.0179 61.0771C30.9666 62.2604 37.1327 61.6531 42.7363 59.332C48.3399 57.0109 53.1294 53.0803 56.4991 48.0372C59.8688 42.9941 61.6673 37.065 61.6673 30.9997C61.6673 22.8664 58.4364 15.0662 52.6853 9.31507C46.9342 3.56395 39.134 0.333008 31.0007 0.333008V0.333008ZM31.0007 56.5552C25.9463 56.5552 21.0053 55.0564 16.8028 52.2483C12.6002 49.4403 9.32465 45.449 7.39041 40.7794C5.45617 36.1097 4.95009 30.9713 5.93615 26.014C6.92222 21.0567 9.35615 16.5032 12.9302 12.9292C16.5042 9.35516 21.0577 6.92123 26.015 5.93516C30.9723 4.94909 36.1107 5.45518 40.7804 7.38942C45.45 9.32366 49.4413 12.5992 52.2493 16.8018C55.0574 21.0044 56.5562 25.9453 56.5562 30.9997C56.5562 34.3557 55.8952 37.6788 54.6109 40.7794C53.3266 43.8799 51.4442 46.6971 49.0712 49.0702C46.6981 51.4432 43.8809 53.3256 40.7804 54.6099C37.6798 55.8942 34.3567 56.5552 31.0007 56.5552V56.5552Z" fill="#209CD4"/>
<path d="M26.7575 45.6693L13.9797 32.8915C13.5611 32.4027 13.3423 31.7738 13.3671 31.1306C13.392 30.4875 13.6586 29.8773 14.1137 29.4222C14.5689 28.9671 15.179 28.7005 15.8222 28.6756C16.4653 28.6508 17.0942 28.8695 17.5831 29.2882L26.7575 38.4627L44.0842 21.136C44.5731 20.7173 45.2019 20.4985 45.8451 20.5234C46.4883 20.5482 47.0984 20.8149 47.5535 21.27C48.0086 21.7251 48.2753 22.3352 48.3001 22.9784C48.325 23.6216 48.1062 24.2504 47.6875 24.7393L26.7575 45.6693Z" fill="#209CD4"/>
</svg>
