<svg width="17" height="17" viewBox="0 0 17 17" fill="none" xmlns="http://www.w3.org/2000/svg">
<path d="M16.3209 8.5C16.3209 12.9183 12.8194 16.5 8.50003 16.5C4.18069 16.5 0.679199 12.9183 0.679199 8.5C0.679199 4.08171 4.18069 0.5 8.50003 0.5C12.8194 0.5 16.3209 4.08171 16.3209 8.5ZM7.5954 12.7359L13.398 6.80045C13.595 6.5989 13.595 6.2721 13.398 6.07055L12.6844 5.34064C12.4874 5.13906 12.1679 5.13906 11.9708 5.34064L7.23861 10.1812L5.02925 7.92126C4.83222 7.71971 4.51273 7.71971 4.31567 7.92126L3.60211 8.65116C3.40507 8.85271 3.40507 9.17952 3.60211 9.38106L6.88181 12.7359C7.07888 12.9375 7.39834 12.9375 7.5954 12.7359V12.7359Z" fill="#008FF7"/>
</svg>
