<svg width="46" height="45" viewBox="0 0 46 45" fill="none" xmlns="http://www.w3.org/2000/svg">
<path d="M32.5084 38.945H13.4682C12.2108 38.945 11.1875 37.9172 11.1875 36.6542V12.7056C11.1875 11.4423 12.2108 10.4146 13.4682 10.4146H17.3357V12.8094H28.6409V10.4146H32.5084C33.7657 10.4148 34.7891 11.4425 34.7891 12.7056V36.6542C34.7891 37.9172 33.7657 38.945 32.5084 38.945ZM13.4682 11.8032C12.976 11.8032 12.5758 12.208 12.5758 12.7056V36.6542C12.5758 37.1521 12.9761 37.5566 13.4682 37.5566H32.5084C33.0008 37.5566 33.401 37.1521 33.401 36.6542V12.7056C33.401 12.208 33.0008 11.8029 32.5087 11.8029H30.0295V14.1977L15.9477 14.198V11.8031L13.4682 11.8032Z" fill="#9B9B9B"/>
<path d="M30.0296 14.1981H15.9478V10.4065C15.9478 9.09084 17.0136 8.02002 18.3239 8.02002H21.3028V8.71418C21.3028 9.65158 22.0591 10.4146 22.9886 10.4146C23.9184 10.4146 24.6744 9.65158 24.6744 8.71418V8.02002H27.6533C28.9633 8.02002 30.0294 9.09084 30.0294 10.4065L30.0296 14.1981ZM17.3361 12.8097H28.6412V10.4065C28.6412 9.85603 28.1982 9.40835 27.6534 9.40835H25.9847C25.6705 10.7782 24.4467 11.8029 22.9887 11.8029C21.531 11.8029 20.307 10.7782 19.9927 9.40835H18.3237C17.779 9.40835 17.3359 9.85603 17.3359 10.4065L17.3361 12.8097Z" fill="#9B9B9B"/>
<path d="M22.9887 11.8031C21.2936 11.8031 19.9146 10.4174 19.9146 8.71431C19.9146 7.0109 21.2936 5.625 22.9887 5.625C24.6837 5.625 26.0628 7.0109 26.0628 8.71403C26.0628 10.4174 24.6837 11.8031 22.9887 11.8031ZM22.9887 7.01333C22.0588 7.01333 21.3029 7.77635 21.3029 8.71403C21.3029 9.65143 22.0592 10.4145 22.9887 10.4145C23.9185 10.4145 24.6744 9.65143 24.6744 8.71403C24.6744 7.77635 23.9184 7.01333 22.9887 7.01333Z" fill="#9B9B9B"/>
<path d="M22.9886 22.2849C22.6052 22.2849 22.2944 21.9741 22.2944 21.5907V16.0374C22.2944 15.654 22.6052 15.3433 22.9886 15.3433C23.372 15.3433 23.6828 15.654 23.6828 16.0374V21.5907C23.6828 21.9741 23.372 22.2849 22.9886 22.2849Z" fill="#9B9B9B"/>
<path d="M25.7655 19.5084H20.2122C19.8288 19.5084 19.5181 19.1977 19.5181 18.8143C19.5181 18.4309 19.8288 18.1201 20.2122 18.1201H25.7655C26.149 18.1201 26.4597 18.4309 26.4597 18.8143C26.4597 19.1977 26.149 19.5084 25.7655 19.5084Z" fill="#9B9B9B"/>
<path d="M31.3184 27.1442H14.6585C14.2751 27.1442 13.9644 26.8334 13.9644 26.45C13.9644 26.0666 14.2751 25.7559 14.6585 25.7559H31.3184C31.7019 25.7559 32.0126 26.0666 32.0126 26.45C32.0126 26.8334 31.7016 27.1442 31.3184 27.1442Z" fill="#9B9B9B"/>
<path d="M31.3184 31.3092H14.6585C14.2751 31.3092 13.9644 30.9985 13.9644 30.6151C13.9644 30.2316 14.2751 29.9209 14.6585 29.9209H31.3184C31.7019 29.9209 32.0126 30.2316 32.0126 30.6151C32.0126 30.9985 31.7016 31.3092 31.3184 31.3092Z" fill="#9B9B9B"/>
<path d="M31.3184 35.4738H14.6585C14.2751 35.4738 13.9644 35.163 13.9644 34.7796C13.9644 34.3962 14.2751 34.0854 14.6585 34.0854H31.3184C31.7019 34.0854 32.0126 34.3962 32.0126 34.7796C32.0126 35.163 31.7016 35.4738 31.3184 35.4738Z" fill="#9B9B9B"/>
</svg>
