<svg width="58" height="64" viewBox="0 0 58 64" fill="none" xmlns="http://www.w3.org/2000/svg">
<path d="M12.1274 1C11.5664 1 11.1374 1.43115 11.1374 2.00127V4.06127H3.9907C2.27736 4.06127 1 5.30712 1 6.72805V22.689C1 28.6873 5.08289 33.9585 11.1713 36.5312L11.5273 36.6789L15.2293 43.2446C15.8088 44.2667 16.6825 44.9889 17.7115 45.3485L18.4029 45.5909L18.4738 46.3246C18.8433 50.1059 20.4425 53.9676 22.9744 57.0755C26.1317 60.9515 30.1075 63 34.2159 63C42.9482 63 50.0405 55.7721 50.0405 46.8514V41.5615L50.905 41.3449C54.3907 40.4662 56.9957 37.2478 57 33.402C57 28.871 53.405 25.2096 48.9704 25.2096C44.5357 25.2096 40.9387 28.8711 40.9387 33.402C40.9387 37.2987 43.6144 40.5493 47.1705 41.3821L48.0534 41.5851V46.8569C48.0534 54.6406 41.8421 61.0067 34.2113 61.0067C30.6207 61.0067 27.1696 59.0917 24.4938 55.8066C22.2881 53.1005 20.8534 49.7229 20.4655 46.3892L20.3676 45.5472L21.1293 45.2014C21.996 44.8091 22.7306 44.147 23.2371 43.2541L23.4151 42.9379L23.4194 42.9335V42.9242C23.4032 42.9494 23.4081 42.9428 23.4378 42.8919L23.4194 42.9335L26.7065 36.8821L27.0944 36.73C33.4545 34.2383 37.7565 28.8467 37.7565 22.6894V6.72852C37.7565 5.30752 36.477 4.06174 34.7658 4.06174H27.619V2.00608C27.619 1.43869 27.1927 1.00481 26.629 1.00481C26.0658 1.00481 25.639 1.43596 25.639 2.00608V8.11493C25.639 8.68232 26.0653 9.1162 26.629 9.1162C27.1922 9.1162 27.619 8.68505 27.619 8.11493V6.06417H35.7762V22.6904C35.7762 26.2594 34.0402 29.637 31.0316 32.1445C29.499 33.4205 27.7239 34.4031 25.8099 35.0816L25.7482 35.1002C25.7184 35.1095 25.6935 35.1188 25.6503 35.1369L25.6183 35.1462L25.5864 35.1599C23.6339 35.8219 21.5354 36.1655 19.3751 36.1655C17.005 36.1655 14.7128 35.7481 12.6023 34.9542L12.5748 34.9449C12.6521 34.9771 12.5861 34.952 12.486 34.9126C10.7407 34.2434 9.12803 33.3138 7.71869 32.1419C4.70528 29.6343 2.97407 26.2567 2.97407 22.6877V6.06151H11.1313V8.11717C11.1313 8.68456 11.5576 9.11844 12.1213 9.11844C12.6845 9.11844 13.1156 8.68236 13.1156 8.11717V2.00342C13.1156 1.43822 12.6845 1.00215 12.1213 1.00215L12.1274 1ZM48.9718 27.2168C52.3065 27.2168 55.0213 30.0105 55.0213 33.4045C55.0213 36.7979 52.3044 39.5922 48.9718 39.5922C45.637 39.5922 42.9222 36.7985 42.9222 33.4045C42.9222 30.011 45.6391 27.2168 48.9718 27.2168ZM14.3808 37.7116L16.6438 37.9956C17.5359 38.1088 18.4502 38.1663 19.3791 38.1663C20.1912 38.1663 20.9919 38.1225 21.7768 38.035L23.9598 37.7882L21.6876 41.9619L21.5231 42.2546C20.882 43.3921 19.7119 43.6066 19.2374 43.6066C18.7586 43.6066 17.5905 43.3921 16.9473 42.2546L15.5127 39.712L14.3808 37.7116Z" fill="white" stroke="white"/>
</svg>
