<svg width="114" height="35" viewBox="0 0 114 35" fill="none" xmlns="http://www.w3.org/2000/svg">
<path d="M17.5324 35C7.86501 34.9972 -0.0528368 27.1352 0.000265556 17.4902C0.0589577 7.14358 8.64757 -0.162192 17.9684 0.00270524C27.3424 0.170397 35.1624 8.02396 35.1261 17.5516C35.0898 27.2275 27.2502 35.0028 17.5324 34.9972V35Z" fill="black"/>
<path d="M104.447 19.6676C105.12 17.8034 105.766 16.1545 106.303 14.4664C106.526 13.7565 106.862 13.558 107.572 13.6056C108.608 13.6726 109.657 13.6223 110.791 13.6223C109.961 15.5005 109.17 17.3004 108.368 19.0947C107.39 21.2802 106.518 23.5161 105.411 25.643C104.718 26.9734 103.818 28.1165 102.295 28.5832C101.342 28.8767 100.355 28.8348 99.3743 28.8571C99.0556 28.8655 99.0137 28.7034 99.0137 28.4435C99.0221 27.5966 99.0305 26.7526 99.0109 25.9057C99.0025 25.562 99.1591 25.4921 99.4553 25.5061C99.7907 25.5228 100.126 25.5201 100.461 25.5061C101.484 25.4642 102.057 25.0114 102.401 24.0583C102.521 23.7313 102.365 23.4966 102.25 23.2422C100.9 20.2489 99.542 17.2584 98.1864 14.2679C97.9908 13.8357 98.1399 13.6186 98.6336 13.6167C99.6174 13.6167 100.601 13.6363 101.582 13.6083C101.979 13.5972 102.166 13.7257 102.306 14.1002C102.98 15.9001 103.681 17.6861 104.444 19.662L104.447 19.6676Z" fill="white"/>
<path d="M54.0091 14.6144C55.2528 13.5105 56.667 13.0829 58.2489 13.3596C60.1717 13.6949 61.4909 15.098 61.6502 17.0348C61.8487 19.4551 61.6921 21.8839 61.7369 24.307C61.7424 24.6228 61.5971 24.6704 61.3316 24.6676C60.3031 24.6564 59.2746 24.6452 58.2489 24.6732C57.8408 24.6843 57.838 24.4747 57.838 24.1785C57.8464 22.3311 57.8436 20.4837 57.838 18.6363C57.838 18.4155 57.838 18.1919 57.8101 17.9711C57.7346 17.3087 57.4887 16.7665 56.7508 16.6128C55.9822 16.4507 55.2164 16.7749 54.8615 17.4317C54.6267 17.8705 54.5485 18.3484 54.5485 18.8487C54.5541 20.629 54.5401 22.4093 54.5597 24.1896C54.5652 24.5865 54.4842 24.7374 54.051 24.7207C53.0923 24.6871 52.1281 24.6955 51.1695 24.7179C50.7978 24.7263 50.672 24.6201 50.6748 24.2316C50.6888 20.847 50.6916 17.4652 50.6748 14.0806C50.6748 13.6698 50.8369 13.6027 51.1862 13.6139C51.8794 13.6335 52.5753 13.6586 53.2628 13.6083C53.8274 13.5664 54.0398 13.7536 53.9504 14.3042C53.9392 14.3825 53.9755 14.4663 54.0007 14.6117L54.0091 14.6144Z" fill="white"/>
<path d="M113.057 22.9348C113.066 24.1422 112.174 25.0561 110.975 25.0673C109.745 25.0813 108.806 24.159 108.809 22.9376C108.809 21.7582 109.743 20.8387 110.939 20.8359C112.138 20.8303 113.052 21.7386 113.06 22.9348H113.057Z" fill="white"/>
<path d="M8.821 14.5138C10.7215 12.6413 13.9524 12.6776 15.4001 14.3266C15.6824 14.648 15.7998 14.3908 15.9703 14.2399C17.2978 13.0717 18.8266 12.6329 20.565 13.0297C22.3761 13.4434 23.6366 15.0001 23.6897 17.0348C23.7512 19.3936 23.7008 21.7525 23.7148 24.1114C23.7148 24.4356 23.6142 24.525 23.2984 24.5194C22.3146 24.4999 21.3308 24.4915 20.3498 24.5222C19.9306 24.5362 19.8272 24.4048 19.8328 23.9968C19.8551 22.1717 19.8411 20.3467 19.8411 18.5217C19.8411 18.3204 19.8467 18.122 19.8411 17.9208C19.8048 16.7693 19.3381 16.1963 18.4297 16.1824C17.3984 16.1656 16.6215 16.9062 16.6075 17.9878C16.5851 19.7905 16.6019 21.5932 16.6019 23.3959C16.6019 24.1263 16.2246 24.4915 15.47 24.4915C14.7545 24.4915 14.039 24.4635 13.3263 24.5027C12.8596 24.5278 12.717 24.3909 12.7254 23.9129C12.7534 22.1326 12.7366 20.3523 12.7366 18.572C12.7366 18.326 12.7366 18.0829 12.717 17.8397C12.6416 17.0096 12.2447 16.5094 11.5739 16.392C10.8333 16.2606 10.0787 16.6435 9.72933 17.3115C9.5281 17.6972 9.4722 18.108 9.475 18.5384C9.48059 20.3411 9.45823 22.1438 9.48897 23.9465C9.49736 24.43 9.34364 24.5418 8.88808 24.525C7.9518 24.4915 7.00993 24.4999 6.07365 24.525C5.71032 24.5334 5.57617 24.4468 5.57896 24.0555C5.59294 20.6737 5.59294 17.2891 5.57896 13.9073C5.57896 13.5328 5.67399 13.4071 6.05968 13.4238C6.75001 13.4546 7.44593 13.4657 8.13626 13.4238C8.66169 13.3903 8.94957 13.4937 8.83218 14.0862C8.81262 14.1868 8.82939 14.2958 8.82939 14.525L8.821 14.5138Z" fill="#FEFEFE"/>
<path d="M29.0498 19.2285C29.0498 20.8048 29.0358 22.3839 29.0581 23.9602C29.0637 24.3878 28.9603 24.5387 28.5104 24.5192C27.5741 24.4828 26.6378 24.4968 25.7015 24.5164C25.3801 24.522 25.2879 24.4214 25.2879 24.1027C25.2991 20.8579 25.2991 17.6159 25.2879 14.371C25.2879 14.0664 25.355 13.9406 25.6903 13.949C26.6713 13.9686 27.6523 13.9742 28.6333 13.949C29.0246 13.9378 29.0554 14.1223 29.0526 14.4297C29.0414 16.0284 29.047 17.6298 29.047 19.2285H29.0498Z" fill="#FEFEFE"/>
<path d="M27.275 7.65521C28.611 7.66639 29.6311 8.6949 29.6311 10.0308C29.6311 11.3947 28.5718 12.44 27.2107 12.4205C25.8916 12.4037 24.8379 11.3388 24.8463 10.0336C24.8547 8.66975 25.9055 7.64403 27.275 7.65521Z" fill="#FEFEFE"/>
<path d="M96.743 13.6553C96.3853 13.3283 95.5105 13.5603 94.8649 13.5575C93.786 13.5519 93.786 13.5575 93.7246 14.5832C93.7246 14.6083 93.6687 14.6335 93.6184 14.6754C92.4529 13.795 91.1114 13.5239 89.6636 13.5463C87.4752 13.5798 85.2841 13.5575 83.0929 13.5547C81.9945 13.5547 80.9045 13.5798 79.8928 14.4239C80.0772 13.6609 79.7391 13.5714 79.208 13.6106C78.6071 13.6553 78.0007 13.6329 77.3998 13.6161C77.0756 13.605 76.9218 13.6665 76.9246 14.0466C76.9386 17.5849 76.9358 21.1259 76.9246 24.6642C76.9246 25.0108 77.0197 25.1282 77.3746 25.1198C78.3137 25.0974 79.2528 25.0891 80.189 25.1226C80.6418 25.1394 80.7452 24.9884 80.7396 24.5608C80.7173 22.7805 80.7256 21.0002 80.7312 19.2198C80.734 17.8392 81.4579 17.1125 82.8246 17.0985C83.3612 17.093 83.9006 17.1349 84.4316 17.0874C84.971 17.0399 84.971 17.2439 84.8648 17.6799C83.9789 21.3439 86.5166 24.5133 90.2981 24.5161C91.3014 24.5161 92.2125 24.2003 93.1181 23.7839C93.16 24.8403 92.7408 25.5223 91.8576 25.88C90.8486 26.2908 89.5798 26.0617 88.9481 25.3378C88.786 25.1533 88.6798 24.9661 88.3724 24.9717C87.3662 24.994 86.3601 24.9884 85.3567 24.9745C85.0381 24.9717 84.985 25.0555 85.0745 25.3602C85.421 26.5396 86.075 27.4815 87.1203 28.1438C88.6966 29.1388 90.4378 29.273 92.2181 29.027C94.9208 28.6553 96.6955 26.8219 96.8017 24.122C96.9135 21.2769 96.8604 18.4261 96.8604 15.5781C96.8604 14.9158 97.1511 14.0326 96.7374 13.6553H96.743ZM90.8654 21.4138C89.5406 21.3943 88.5736 20.4077 88.5569 19.0633C88.5401 17.6966 89.5323 16.6961 90.9017 16.6933C92.2628 16.6933 93.2718 17.7106 93.2494 19.0605C93.2271 20.4188 92.2014 21.4306 90.8654 21.411V21.4138Z" fill="white"/>
<path d="M75.2049 17.7611C75.1909 17.6745 75.1573 17.5906 75.135 17.504C74.3524 14.6365 71.7895 13.0155 68.4776 13.2894C65.6884 13.5213 63.5335 15.6622 63.254 18.4794C62.955 21.4727 64.5592 23.9601 67.3317 24.8014C70.2496 25.6874 73.3044 24.5331 74.6571 22.0233C74.8387 21.6879 75.0344 21.3469 75.0316 20.9249C73.9388 20.9249 72.8907 20.9333 71.8398 20.9193C71.4905 20.9137 71.239 20.9808 70.979 21.2715C70.339 21.9842 69.4838 22.1099 68.5838 21.8891C67.6839 21.6684 67.2283 21.0311 67.0187 20.1004C69.1791 20.1004 71.2557 20.1144 73.3323 20.0921C73.9639 20.0865 74.8415 20.3995 75.1769 19.9579C75.6157 19.385 75.3306 18.5046 75.2021 17.7583L75.2049 17.7611ZM71.1188 17.9484C70.5179 17.9344 69.9142 17.9456 69.3105 17.9456C68.7068 17.9456 68.1059 17.9316 67.5022 17.9512C67.1193 17.9624 67.1026 17.8254 67.2395 17.518C67.5749 16.769 68.3938 16.2547 69.2853 16.2631C70.2076 16.2743 71.0573 16.8165 71.3787 17.5683C71.5128 17.8813 71.429 17.9568 71.1188 17.9484Z" fill="white"/>
<path d="M48.2386 15.9473C46.8496 13.8288 44.787 13.1245 42.3443 13.2894C39.4208 13.4879 37.0927 15.8747 36.9837 18.7869C36.8328 22.8255 40.1196 25.6958 44.133 25.0027C46.2571 24.6366 47.811 23.513 48.6802 21.5007C48.8954 21.006 48.7725 20.8998 48.2722 20.9194C47.4253 20.9501 46.5757 20.9445 45.7261 20.9194C45.3012 20.9082 45.0078 21.0116 44.6892 21.3386C43.9821 22.0597 43.0709 22.1491 42.1458 21.8221C41.3689 21.5482 40.9496 20.9585 40.835 20.1033H41.5449C43.8675 20.1033 46.19 20.0921 48.5125 20.1145C48.9429 20.1173 49.0547 19.9971 49.0883 19.5751C49.1889 18.2671 48.9513 17.0401 48.2358 15.9473H48.2386ZM40.9077 17.9233C41.2515 16.8137 42.0312 16.2324 43.0877 16.2632C44.1889 16.2939 44.9742 16.9004 45.2146 17.9233H40.9077Z" fill="white"/>
</svg>
