<svg width="280" height="87" viewBox="0 0 280 87" fill="none" xmlns="http://www.w3.org/2000/svg">
<path d="M43.4199 86.6791C19.4781 86.6722 -0.130853 67.2017 0.000657662 43.3153C0.146011 17.6915 21.4161 -0.4016 44.4997 0.00677523C67.7147 0.422072 87.0814 19.8718 86.9914 43.4675C86.9014 67.4301 67.4863 86.686 43.4199 86.6722V86.6791Z" fill="#F90002"/>
<path d="M258.667 48.7071C260.335 44.0904 261.934 40.0066 263.263 35.826C263.817 34.0679 264.647 33.5764 266.406 33.6941C268.973 33.8602 271.569 33.7356 274.379 33.7356C272.324 38.387 270.365 42.8445 268.378 47.2881C265.956 52.7008 263.796 58.2381 261.055 63.5055C259.339 66.8001 257.11 69.6311 253.338 70.787C250.977 71.5138 248.534 71.4099 246.104 71.4653C245.315 71.4861 245.212 71.0846 245.212 70.4409C245.232 68.3437 245.253 66.2533 245.205 64.1561C245.184 63.3047 245.572 63.1317 246.305 63.1663C247.136 63.2078 247.966 63.2009 248.797 63.1663C251.33 63.0625 252.749 61.9412 253.601 59.5809C253.898 58.7711 253.511 58.1897 253.227 57.5598C249.884 50.1468 246.52 42.7406 243.163 35.3345C242.678 34.264 243.047 33.7264 244.27 33.7218C246.707 33.7218 249.143 33.7702 251.573 33.701C252.555 33.6733 253.019 33.9917 253.365 34.9192C255.033 39.3767 256.771 43.7996 258.66 48.6932L258.667 48.7071Z" fill="black"/>
<path d="M133.754 36.1929C136.834 33.4589 140.336 32.3999 144.254 33.0851C149.016 33.9157 152.283 37.3904 152.677 42.187C153.169 48.1811 152.781 54.196 152.892 60.1971C152.906 60.9792 152.546 61.0969 151.888 61.0899C149.341 61.0623 146.794 61.0346 144.254 61.1038C143.243 61.1315 143.236 60.6124 143.236 59.8787C143.257 55.3035 143.25 50.7283 143.236 46.1531C143.236 45.6063 143.236 45.0526 143.167 44.5058C142.98 42.8654 142.371 41.5226 140.544 41.1419C138.64 40.7404 136.744 41.5433 135.865 43.1699C135.283 44.2566 135.09 45.4402 135.09 46.6792C135.103 51.0882 135.069 55.4973 135.117 59.9064C135.131 60.8892 134.93 61.263 133.858 61.2215C131.483 61.1384 129.095 61.1592 126.721 61.2145C125.801 61.2353 125.489 60.9723 125.496 60.0102C125.531 51.6281 125.538 43.253 125.496 34.8709C125.496 33.8534 125.898 33.6873 126.763 33.715C128.479 33.7634 130.203 33.8257 131.906 33.7011C133.304 33.5973 133.83 34.0611 133.608 35.4246C133.581 35.6184 133.671 35.8261 133.733 36.186L133.754 36.1929Z" fill="black"/>
<path d="M279.993 56.7986C280.014 59.7888 277.806 62.0521 274.836 62.0798C271.791 62.1144 269.465 59.8303 269.472 56.8056C269.472 53.8846 271.784 51.6074 274.746 51.6005C277.716 51.5867 279.979 53.8362 280 56.7986H279.993Z" fill="#F90002"/>
<path d="M21.8441 35.9438C26.5508 31.3063 34.5522 31.3963 38.1376 35.4801C38.8367 36.2761 39.1274 35.6393 39.5496 35.2655C42.8373 32.3723 46.6235 31.2856 50.9287 32.2684C55.4139 33.2928 58.5355 37.1482 58.6671 42.1871C58.8193 48.0289 58.6947 53.8708 58.7294 59.7126C58.7294 60.5155 58.4802 60.737 57.698 60.7232C55.2616 60.6747 52.8252 60.654 50.3957 60.7301C49.3575 60.7647 49.1014 60.4394 49.1152 59.4288C49.1706 54.909 49.136 50.3892 49.136 45.8694C49.136 45.371 49.1498 44.8796 49.136 44.3813C49.046 41.5296 47.8901 40.1106 45.6406 40.076C43.0865 40.0345 41.1623 41.8687 41.1277 44.5474C41.0723 49.0118 41.1139 53.4762 41.1139 57.9407C41.1139 59.7495 40.1794 60.654 38.3106 60.654C36.5387 60.654 34.7668 60.5847 33.0017 60.6816C31.8458 60.7439 31.4928 60.4048 31.5136 59.2212C31.5828 54.8121 31.5413 50.4031 31.5413 45.994C31.5413 45.3849 31.5413 44.7827 31.4928 44.1805C31.3059 42.1248 30.3231 40.8858 28.6619 40.5951C26.8277 40.2698 24.9588 41.2181 24.0936 42.8723C23.5953 43.8275 23.4568 44.845 23.4638 45.9109C23.4776 50.3754 23.4222 54.8398 23.4984 59.3042C23.5191 60.5017 23.1385 60.7785 22.0102 60.737C19.6915 60.654 17.3589 60.6747 15.0402 60.737C14.1404 60.7578 13.8081 60.5432 13.815 59.5742C13.8497 51.199 13.8497 42.817 13.815 34.4418C13.815 33.5143 14.0504 33.2029 15.0056 33.2444C16.7152 33.3205 18.4387 33.3482 20.1483 33.2444C21.4496 33.1613 22.1625 33.4174 21.8718 34.8848C21.8233 35.134 21.8649 35.4039 21.8649 35.9715L21.8441 35.9438Z" fill="#FEFEFE"/>
<path d="M71.9434 47.6206C71.9434 51.5244 71.9088 55.4351 71.9642 59.3389C71.978 60.3979 71.7219 60.7717 70.6076 60.7232C68.2888 60.6332 65.9701 60.6678 63.6513 60.7163C62.8554 60.7301 62.627 60.4809 62.627 59.6919C62.6546 51.6559 62.6546 43.6268 62.627 35.5908C62.627 34.8364 62.7931 34.5249 63.6237 34.5457C66.0531 34.5941 68.4826 34.608 70.9121 34.5457C71.8811 34.518 71.9573 34.9748 71.9504 35.7362C71.9227 39.6954 71.9365 43.6614 71.9365 47.6206H71.9434Z" fill="#FEFEFE"/>
<path d="M67.5484 18.9583C70.857 18.9859 73.3834 21.5331 73.3834 24.8416C73.3834 28.2194 70.7601 30.8081 67.3892 30.7596C64.1223 30.7181 61.5128 28.0809 61.5336 24.8486C61.5543 21.4708 64.1569 18.9306 67.5484 18.9583V18.9583Z" fill="#FEFEFE"/>
<path d="M239.592 33.8188C238.706 33.0089 236.539 33.5834 234.94 33.5765C232.269 33.5627 232.269 33.5765 232.116 36.1167C232.116 36.179 231.978 36.2413 231.853 36.3451C228.967 34.1648 225.645 33.4934 222.059 33.5488C216.64 33.6319 211.213 33.5765 205.787 33.5696C203.066 33.5696 200.367 33.6319 197.861 35.7222C198.318 33.8326 197.481 33.6111 196.166 33.708C194.677 33.8188 193.175 33.7634 191.687 33.7218C190.884 33.6942 190.504 33.8464 190.511 34.7878C190.545 43.5505 190.538 52.3202 190.511 61.083C190.511 61.9412 190.746 62.232 191.625 62.2112C193.951 62.1558 196.276 62.135 198.595 62.2181C199.716 62.2596 199.972 61.8859 199.959 60.8269C199.903 56.4178 199.924 52.0087 199.938 47.5997C199.945 44.1804 201.737 42.3808 205.122 42.3462C206.451 42.3323 207.787 42.4362 209.102 42.3185C210.438 42.2008 210.438 42.7061 210.175 43.7859C207.981 52.8601 214.266 60.7092 223.63 60.7161C226.115 60.7161 228.372 59.934 230.614 58.9027C230.718 61.519 229.68 63.2079 227.493 64.0939C224.994 65.1113 221.852 64.5438 220.287 62.7511C219.886 62.2942 219.623 61.8305 218.862 61.8443C216.37 61.8997 213.878 61.8859 211.393 61.8513C210.604 61.8443 210.473 62.052 210.694 62.8064C211.552 65.7274 213.172 68.0599 215.761 69.7004C219.664 72.1645 223.977 72.4967 228.386 71.8876C235.079 70.967 239.474 66.4264 239.737 59.7402C240.014 52.694 239.882 45.6339 239.882 38.5808C239.882 36.9404 240.602 34.7532 239.578 33.8188H239.592ZM225.036 53.0331C221.755 52.9847 219.36 50.5414 219.318 47.2121C219.277 43.8274 221.734 41.3495 225.126 41.3425C228.496 41.3425 230.995 43.862 230.94 47.2051C230.884 50.569 228.344 53.0747 225.036 53.0262V53.0331Z" fill="black"/>
<path d="M186.247 43.9868C186.213 43.7722 186.13 43.5646 186.074 43.35C184.136 36.2485 177.789 32.2339 169.587 32.9122C162.679 33.4867 157.343 38.7887 156.65 45.7657C155.91 53.1787 159.883 59.3389 166.749 61.4223C173.975 63.6165 181.541 60.7579 184.891 54.5423C185.34 53.7117 185.825 52.8672 185.818 51.8221C183.112 51.8221 180.516 51.8428 177.914 51.8082C177.048 51.7944 176.425 51.9605 175.782 52.6804C174.197 54.4454 172.079 54.7568 169.85 54.21C167.621 53.6632 166.493 52.0851 165.974 49.7802C171.324 49.7802 176.467 49.8148 181.61 49.7594C183.174 49.7456 185.347 50.5208 186.178 49.4272C187.265 48.0083 186.559 45.828 186.24 43.9799L186.247 43.9868ZM176.128 44.4506C174.64 44.416 173.145 44.4436 171.65 44.4436C170.154 44.4436 168.666 44.409 167.171 44.4575C166.223 44.4852 166.181 44.146 166.521 43.3846C167.351 41.5296 169.379 40.2561 171.587 40.2768C173.871 40.3045 175.976 41.6473 176.772 43.5092C177.104 44.2844 176.896 44.4713 176.128 44.4506Z" fill="black"/>
<path d="M119.467 39.4944C116.027 34.2479 110.919 32.5036 104.87 32.912C97.6296 33.4034 91.8639 39.3145 91.5939 46.5268C91.2202 56.5285 99.36 63.637 109.299 61.9204C114.56 61.0137 118.408 58.2312 120.561 53.2477C121.094 52.0225 120.789 51.7595 119.55 51.808C117.453 51.8841 115.349 51.8703 113.245 51.808C112.193 51.7803 111.466 52.0364 110.677 52.8462C108.926 54.632 106.669 54.8535 104.378 54.0437C102.454 53.3653 101.416 51.9049 101.132 49.7869H102.89C108.642 49.7869 114.394 49.7592 120.146 49.8146C121.211 49.8215 121.488 49.5238 121.571 48.4787C121.821 45.2394 121.232 42.2008 119.46 39.4944H119.467ZM101.312 44.388C102.163 41.6401 104.094 40.2004 106.711 40.2766C109.438 40.3527 111.383 41.8547 111.978 44.388H101.312V44.388Z" fill="black"/>
</svg>
