<svg width="1351" height="41" viewBox="0 0 1351 41" fill="none" xmlns="http://www.w3.org/2000/svg">
<path d="M39.4478 22.7412C40.0317 22.7412 40.5323 22.4254 40.6991 21.8727L44.5364 12.8708L51.5435 39.4023C51.7103 40.034 52.2108 40.3499 52.8782 40.4288C53.4621 40.3499 54.0461 39.955 54.1295 39.4023L60.9698 6.94871L64.8905 21.7147C65.0573 22.2674 65.6412 22.7412 66.1418 22.7412H1349.46C1349.87 22.7412 1350.12 22.4255 1350.12 22.1096V20.8462C1350.12 20.4514 1349.87 20.2145 1349.46 20.2145L67.2263 20.2144L62.1377 0.947551C61.9709 0.31585 61.4703 5.52527e-08 60.803 0C60.219 -4.829e-08 59.6351 0.394812 59.5517 0.947551L52.7114 33.4012L46.1213 8.52796C45.9545 7.97522 45.4539 7.58041 44.9534 7.58041C44.286 7.50145 43.7856 7.8173 43.6187 8.37003L38.6136 20.2144H0.667351C0.333676 20.2144 1.53152e-07 20.4513 1.16682e-07 20.8461L0 22.1095C-2.91617e-08 22.4254 0.333674 22.7412 0.667349 22.7412H39.4478Z" fill="#FBC139"/>
</svg>
