<svg width="81" height="82" viewBox="0 0 81 82" fill="none" xmlns="http://www.w3.org/2000/svg">
<path d="M54.3888 34.9272C58.2768 31.2336 60.7392 26.0496 60.7392 20.2608C60.7392 9.0936 51.6456 0 40.4784 0C29.3112 0 20.2176 9.0936 20.2176 20.2608C20.2176 26.028 22.68 31.2336 26.568 34.9272C11.1024 40.608 0 55.4688 0 72.9216V81.0216H81V72.9216C81 55.4688 69.8976 40.608 54.3888 34.9272ZM28.3608 20.2824C28.3608 13.5864 33.804 8.1216 40.5216 8.1216C47.2392 8.1216 52.6824 13.5648 52.6824 20.2824C52.6824 27 47.196 32.4216 40.5 32.4216C33.804 32.4216 28.3608 26.9784 28.3608 20.2824ZM8.1 72.9216C8.1 55.0584 22.6368 40.5216 40.5 40.5216C58.3632 40.5216 72.9 55.0584 72.9 72.9216H8.1Z" fill="#0077CB"/>
<path d="M54.3888 34.9272C58.2768 31.2336 60.7392 26.0496 60.7392 20.2608C60.7392 9.0936 51.6456 0 40.4784 0C29.3112 0 20.2176 9.0936 20.2176 20.2608C20.2176 26.028 22.68 31.2336 26.568 34.9272C11.1024 40.608 0 55.4688 0 72.9216V81.0216H81V72.9216C81 55.4688 69.8976 40.608 54.3888 34.9272ZM28.3608 20.2824C28.3608 13.5864 33.804 8.1216 40.5216 8.1216C47.2392 8.1216 52.6824 13.5648 52.6824 20.2824C52.6824 27 47.196 32.4216 40.5 32.4216C33.804 32.4216 28.3608 26.9784 28.3608 20.2824ZM8.1 72.9216C8.1 55.0584 22.6368 40.5216 40.5 40.5216C58.3632 40.5216 72.9 55.0584 72.9 72.9216H8.1Z" fill="url(#paint0_linear)"/>
<path d="M52.6609 44.5824H44.5609V52.6824H36.4609V60.7824H44.5609V68.8824H52.6609V60.7824H60.7609V52.6824H52.6609V44.5824Z" fill="#0077CB"/>
<path d="M52.6609 44.5824H44.5609V52.6824H36.4609V60.7824H44.5609V68.8824H52.6609V60.7824H60.7609V52.6824H52.6609V44.5824Z" fill="url(#paint1_linear)"/>
<defs>
<linearGradient id="paint0_linear" x1="40.5" y1="0" x2="40.5" y2="81.0216" gradientUnits="userSpaceOnUse">
<stop stop-color="#78C3F9"/>
<stop offset="1" stop-color="white" stop-opacity="0"/>
</linearGradient>
<linearGradient id="paint1_linear" x1="48.6109" y1="44.5824" x2="48.6109" y2="68.8824" gradientUnits="userSpaceOnUse">
<stop stop-color="#78C3F9"/>
<stop offset="1" stop-color="white" stop-opacity="0"/>
</linearGradient>
</defs>
</svg>
