<svg width="81" height="65" viewBox="0 0 81 65" fill="none" xmlns="http://www.w3.org/2000/svg">
<path d="M28.36 16.2H20.26V20.2608H16.1992V28.3608H20.26V32.4H28.36V28.3608H32.3992V20.2608H28.36V16.2Z" fill="#0077CB"/>
<path d="M28.36 16.2H20.26V20.2608H16.1992V28.3608H20.26V32.4H28.36V28.3608H32.3992V20.2608H28.36V16.2Z" fill="url(#paint0_linear)"/>
<path d="M81 28.3608C81 12.7224 68.2776 0 52.6392 0H0V52.6608H10.3248C11.3184 59.508 17.172 64.8 24.3 64.8C31.428 64.8 37.2816 59.508 38.2752 52.6392H44.7552C45.7488 59.4864 51.6024 64.8 58.7304 64.8C65.8584 64.8 71.712 59.508 72.7056 52.6392H81V28.3608V28.3608ZM72.4896 24.3H56.7V8.5104C64.6272 10.1304 70.8696 16.3728 72.4896 24.3ZM24.3 56.7C20.952 56.7 18.2304 53.9784 18.2304 50.6304C18.2304 50.22 18.2736 49.8312 18.36 49.4424V49.4208C18.4896 48.7728 18.7488 48.168 19.0728 47.628C19.116 47.5632 19.1376 47.4768 19.1808 47.412C19.5048 46.8936 19.9152 46.4616 20.3688 46.0512C20.4552 45.9864 20.52 45.9216 20.6064 45.8568C21.0816 45.4896 21.6 45.1872 22.1616 44.9712C22.248 44.9496 22.3344 44.928 22.3992 44.8848C23.004 44.6904 23.6304 44.5392 24.3 44.5392C24.9696 44.5392 25.596 44.6688 26.2008 44.8848C26.2872 44.9064 26.3736 44.928 26.4384 44.9712C27 45.1872 27.5184 45.4896 27.9936 45.8568C28.08 45.9216 28.1448 45.9864 28.2312 46.0512C28.6848 46.44 29.0952 46.8936 29.4192 47.412C29.4624 47.4768 29.5056 47.5632 29.5272 47.628C29.8512 48.1896 30.1104 48.7728 30.24 49.4208V49.4424C30.3264 49.8312 30.3696 50.22 30.3696 50.6304C30.3696 53.9784 27.648 56.7 24.3 56.7ZM58.7304 56.7C55.3824 56.7 52.6608 53.9784 52.6608 50.6304C52.6608 50.22 52.704 49.8312 52.7904 49.4424V49.4208C52.92 48.7728 53.1792 48.168 53.5032 47.628C53.5464 47.5632 53.568 47.4768 53.6112 47.412C53.9352 46.8936 54.3456 46.4616 54.7992 46.0512C54.8856 45.9864 54.9504 45.9216 55.0368 45.8568C55.512 45.4896 56.0304 45.1872 56.592 44.9712C56.6784 44.9496 56.7648 44.928 56.8296 44.8848C57.4344 44.6904 58.0608 44.5392 58.7304 44.5392C59.4 44.5392 60.0264 44.6688 60.6312 44.8848C60.7176 44.9064 60.804 44.928 60.8688 44.9712C61.4304 45.1872 61.9488 45.4896 62.424 45.8568C62.5104 45.9216 62.5752 45.9864 62.6616 46.0512C63.1152 46.44 63.5256 46.8936 63.8496 47.412C63.8928 47.4768 63.936 47.5632 63.9576 47.628C64.2816 48.1896 64.5408 48.7728 64.6704 49.4208V49.4424C64.7568 49.8312 64.8 50.22 64.8 50.6304C64.8 53.9784 62.0784 56.7 58.7304 56.7ZM71.5392 44.5608C71.2368 43.9344 70.8912 43.3296 70.5024 42.768C70.4376 42.6816 70.3728 42.6168 70.308 42.5304C69.8976 41.9472 69.444 41.4072 68.9688 40.8888C68.796 40.6944 68.6016 40.5216 68.4072 40.3488C67.9752 39.9384 67.5216 39.5712 67.0248 39.204C66.8304 39.0744 66.6576 38.9232 66.4632 38.7936C65.8152 38.3616 65.124 37.9944 64.4112 37.6704C64.1952 37.584 63.9792 37.4976 63.7416 37.4112C63.18 37.1952 62.5968 37.0008 61.992 36.8712C61.7328 36.8064 61.4952 36.7416 61.236 36.6984C60.4152 36.5472 59.5728 36.4392 58.7088 36.4392C57.8448 36.4392 57.0024 36.5472 56.1816 36.6984C55.9224 36.7416 55.6848 36.8064 55.4256 36.8712C54.8208 37.0224 54.2376 37.1952 53.676 37.4112C53.46 37.4976 53.2224 37.5624 53.0064 37.6704C52.2936 37.9944 51.6024 38.3616 50.9544 38.7936C50.76 38.9232 50.5872 39.0744 50.3928 39.204C49.9176 39.5496 49.4424 39.9384 49.0104 40.3488C48.816 40.5216 48.6432 40.716 48.4488 40.8888C47.952 41.4072 47.52 41.9472 47.1096 42.5304C47.0448 42.6168 46.98 42.6816 46.9152 42.768C46.5264 43.3296 46.1808 43.9344 45.8784 44.5608H37.0656C36.7632 43.9344 36.4176 43.3296 36.0288 42.768C35.964 42.6816 35.8992 42.6168 35.8344 42.5304C35.424 41.9472 34.9704 41.4072 34.4952 40.8888C34.3224 40.6944 34.128 40.5216 33.9336 40.3488C33.5016 39.9384 33.048 39.5712 32.5512 39.204C32.3568 39.0744 32.184 38.9232 31.9896 38.7936C31.3416 38.3616 30.6504 37.9944 29.9376 37.6704C29.7216 37.584 29.5056 37.4976 29.268 37.4112C28.7064 37.1952 28.1232 37.0008 27.5184 36.8712C27.2592 36.8064 27.0216 36.7416 26.7624 36.6984C25.9416 36.5472 25.0992 36.4392 24.2352 36.4392C23.3712 36.4392 22.5288 36.5472 21.708 36.6984C21.4488 36.7416 21.2112 36.8064 20.952 36.8712C20.3472 37.0224 19.764 37.1952 19.2024 37.4112C18.9864 37.4976 18.7488 37.5624 18.5328 37.6704C17.82 37.9944 17.1288 38.3616 16.4808 38.7936C16.2864 38.9232 16.1136 39.0744 15.9192 39.204C15.444 39.5496 14.9688 39.9384 14.5368 40.3488C14.3424 40.5216 14.1696 40.716 13.9752 40.8888C13.4784 41.4072 13.0464 41.9472 12.636 42.5304C12.5712 42.6168 12.5064 42.6816 12.4416 42.768C12.0528 43.3296 11.7072 43.9344 11.4048 44.5608H8.1V8.1H48.6V32.4H72.9V44.5608H71.5392Z" fill="#0077CB"/>
<path d="M81 28.3608C81 12.7224 68.2776 0 52.6392 0H0V52.6608H10.3248C11.3184 59.508 17.172 64.8 24.3 64.8C31.428 64.8 37.2816 59.508 38.2752 52.6392H44.7552C45.7488 59.4864 51.6024 64.8 58.7304 64.8C65.8584 64.8 71.712 59.508 72.7056 52.6392H81V28.3608V28.3608ZM72.4896 24.3H56.7V8.5104C64.6272 10.1304 70.8696 16.3728 72.4896 24.3ZM24.3 56.7C20.952 56.7 18.2304 53.9784 18.2304 50.6304C18.2304 50.22 18.2736 49.8312 18.36 49.4424V49.4208C18.4896 48.7728 18.7488 48.168 19.0728 47.628C19.116 47.5632 19.1376 47.4768 19.1808 47.412C19.5048 46.8936 19.9152 46.4616 20.3688 46.0512C20.4552 45.9864 20.52 45.9216 20.6064 45.8568C21.0816 45.4896 21.6 45.1872 22.1616 44.9712C22.248 44.9496 22.3344 44.928 22.3992 44.8848C23.004 44.6904 23.6304 44.5392 24.3 44.5392C24.9696 44.5392 25.596 44.6688 26.2008 44.8848C26.2872 44.9064 26.3736 44.928 26.4384 44.9712C27 45.1872 27.5184 45.4896 27.9936 45.8568C28.08 45.9216 28.1448 45.9864 28.2312 46.0512C28.6848 46.44 29.0952 46.8936 29.4192 47.412C29.4624 47.4768 29.5056 47.5632 29.5272 47.628C29.8512 48.1896 30.1104 48.7728 30.24 49.4208V49.4424C30.3264 49.8312 30.3696 50.22 30.3696 50.6304C30.3696 53.9784 27.648 56.7 24.3 56.7ZM58.7304 56.7C55.3824 56.7 52.6608 53.9784 52.6608 50.6304C52.6608 50.22 52.704 49.8312 52.7904 49.4424V49.4208C52.92 48.7728 53.1792 48.168 53.5032 47.628C53.5464 47.5632 53.568 47.4768 53.6112 47.412C53.9352 46.8936 54.3456 46.4616 54.7992 46.0512C54.8856 45.9864 54.9504 45.9216 55.0368 45.8568C55.512 45.4896 56.0304 45.1872 56.592 44.9712C56.6784 44.9496 56.7648 44.928 56.8296 44.8848C57.4344 44.6904 58.0608 44.5392 58.7304 44.5392C59.4 44.5392 60.0264 44.6688 60.6312 44.8848C60.7176 44.9064 60.804 44.928 60.8688 44.9712C61.4304 45.1872 61.9488 45.4896 62.424 45.8568C62.5104 45.9216 62.5752 45.9864 62.6616 46.0512C63.1152 46.44 63.5256 46.8936 63.8496 47.412C63.8928 47.4768 63.936 47.5632 63.9576 47.628C64.2816 48.1896 64.5408 48.7728 64.6704 49.4208V49.4424C64.7568 49.8312 64.8 50.22 64.8 50.6304C64.8 53.9784 62.0784 56.7 58.7304 56.7ZM71.5392 44.5608C71.2368 43.9344 70.8912 43.3296 70.5024 42.768C70.4376 42.6816 70.3728 42.6168 70.308 42.5304C69.8976 41.9472 69.444 41.4072 68.9688 40.8888C68.796 40.6944 68.6016 40.5216 68.4072 40.3488C67.9752 39.9384 67.5216 39.5712 67.0248 39.204C66.8304 39.0744 66.6576 38.9232 66.4632 38.7936C65.8152 38.3616 65.124 37.9944 64.4112 37.6704C64.1952 37.584 63.9792 37.4976 63.7416 37.4112C63.18 37.1952 62.5968 37.0008 61.992 36.8712C61.7328 36.8064 61.4952 36.7416 61.236 36.6984C60.4152 36.5472 59.5728 36.4392 58.7088 36.4392C57.8448 36.4392 57.0024 36.5472 56.1816 36.6984C55.9224 36.7416 55.6848 36.8064 55.4256 36.8712C54.8208 37.0224 54.2376 37.1952 53.676 37.4112C53.46 37.4976 53.2224 37.5624 53.0064 37.6704C52.2936 37.9944 51.6024 38.3616 50.9544 38.7936C50.76 38.9232 50.5872 39.0744 50.3928 39.204C49.9176 39.5496 49.4424 39.9384 49.0104 40.3488C48.816 40.5216 48.6432 40.716 48.4488 40.8888C47.952 41.4072 47.52 41.9472 47.1096 42.5304C47.0448 42.6168 46.98 42.6816 46.9152 42.768C46.5264 43.3296 46.1808 43.9344 45.8784 44.5608H37.0656C36.7632 43.9344 36.4176 43.3296 36.0288 42.768C35.964 42.6816 35.8992 42.6168 35.8344 42.5304C35.424 41.9472 34.9704 41.4072 34.4952 40.8888C34.3224 40.6944 34.128 40.5216 33.9336 40.3488C33.5016 39.9384 33.048 39.5712 32.5512 39.204C32.3568 39.0744 32.184 38.9232 31.9896 38.7936C31.3416 38.3616 30.6504 37.9944 29.9376 37.6704C29.7216 37.584 29.5056 37.4976 29.268 37.4112C28.7064 37.1952 28.1232 37.0008 27.5184 36.8712C27.2592 36.8064 27.0216 36.7416 26.7624 36.6984C25.9416 36.5472 25.0992 36.4392 24.2352 36.4392C23.3712 36.4392 22.5288 36.5472 21.708 36.6984C21.4488 36.7416 21.2112 36.8064 20.952 36.8712C20.3472 37.0224 19.764 37.1952 19.2024 37.4112C18.9864 37.4976 18.7488 37.5624 18.5328 37.6704C17.82 37.9944 17.1288 38.3616 16.4808 38.7936C16.2864 38.9232 16.1136 39.0744 15.9192 39.204C15.444 39.5496 14.9688 39.9384 14.5368 40.3488C14.3424 40.5216 14.1696 40.716 13.9752 40.8888C13.4784 41.4072 13.0464 41.9472 12.636 42.5304C12.5712 42.6168 12.5064 42.6816 12.4416 42.768C12.0528 43.3296 11.7072 43.9344 11.4048 44.5608H8.1V8.1H48.6V32.4H72.9V44.5608H71.5392Z" fill="url(#paint1_linear)"/>
<defs>
<linearGradient id="paint0_linear" x1="24.2992" y1="16.2" x2="24.2992" y2="32.4" gradientUnits="userSpaceOnUse">
<stop stop-color="#78C3F9"/>
<stop offset="1" stop-color="white" stop-opacity="0"/>
</linearGradient>
<linearGradient id="paint1_linear" x1="40.5" y1="0" x2="40.5" y2="64.8" gradientUnits="userSpaceOnUse">
<stop stop-color="#78C3F9"/>
<stop offset="1" stop-color="white" stop-opacity="0"/>
</linearGradient>
</defs>
</svg>
