<svg width="88" height="88" viewBox="0 0 88 88" fill="none" xmlns="http://www.w3.org/2000/svg">
<path d="M6.77516 34.0558L43.5113 9.57276L80.2475 34.079C80.9902 34.5664 81.8256 34.7984 82.661 34.7984C84.0766 34.7984 85.4458 34.1254 86.2813 32.8723C87.6041 30.8765 87.0703 28.1613 85.0745 26.8385L45.9248 0.731011C44.4628 -0.24367 42.5599 -0.24367 41.0979 0.731011L1.94817 26.8153C-0.0476064 28.1381 -0.581361 30.8533 0.74142 32.8491C2.0642 34.8681 4.75618 35.4018 6.77516 34.0558Z" fill="#0077CB"/>
<path d="M6.77516 34.0558L43.5113 9.57276L80.2475 34.079C80.9902 34.5664 81.8256 34.7984 82.661 34.7984C84.0766 34.7984 85.4458 34.1254 86.2813 32.8723C87.6041 30.8765 87.0703 28.1613 85.0745 26.8385L45.9248 0.731011C44.4628 -0.24367 42.5599 -0.24367 41.0979 0.731011L1.94817 26.8153C-0.0476064 28.1381 -0.581361 30.8533 0.74142 32.8491C2.0642 34.8681 4.75618 35.4018 6.77516 34.0558Z" fill="url(#paint0_linear)"/>
<path d="M39.1713 43.5009V52.2035H30.4688V60.906H39.1713V69.6085H47.8506V60.906H56.5531V52.2035H47.8506V43.5009H39.1713Z" fill="#0077CB"/>
<path d="M39.1713 43.5009V52.2035H30.4688V60.906H39.1713V69.6085H47.8506V60.906H56.5531V52.2035H47.8506V43.5009H39.1713Z" fill="url(#paint1_linear)"/>
<path d="M78.3226 78.311V41.2731L43.5125 16.3955L8.70251 41.2731V78.311H0V87.0135H8.70251H13.0422H73.9597H78.3226H87.0251V78.311H78.3226ZM69.6201 78.311H17.405V45.752L43.5125 27.0938L69.6201 45.752V78.311Z" fill="#0077CB"/>
<path d="M78.3226 78.311V41.2731L43.5125 16.3955L8.70251 41.2731V78.311H0V87.0135H8.70251H13.0422H73.9597H78.3226H87.0251V78.311H78.3226ZM69.6201 78.311H17.405V45.752L43.5125 27.0938L69.6201 45.752V78.311Z" fill="url(#paint2_linear)"/>
<defs>
<linearGradient id="paint0_linear" x1="43.5113" y1="0" x2="43.5113" y2="34.7984" gradientUnits="userSpaceOnUse">
<stop stop-color="#78C3F9"/>
<stop offset="1" stop-color="white" stop-opacity="0"/>
</linearGradient>
<linearGradient id="paint1_linear" x1="43.5109" y1="43.5009" x2="43.5109" y2="69.6085" gradientUnits="userSpaceOnUse">
<stop stop-color="#78C3F9"/>
<stop offset="1" stop-color="white" stop-opacity="0"/>
</linearGradient>
<linearGradient id="paint2_linear" x1="43.5125" y1="16.3955" x2="43.5125" y2="87.0135" gradientUnits="userSpaceOnUse">
<stop stop-color="#78C3F9"/>
<stop offset="1" stop-color="white" stop-opacity="0"/>
</linearGradient>
</defs>
</svg>
