<svg width="174" height="190" viewBox="0 0 174 190" fill="none" xmlns="http://www.w3.org/2000/svg">
<path d="M164.733 175.669L156.541 127.708C155.631 122.527 151.99 118.396 146.949 116.856L124.894 110.204C124.404 104.813 122.233 99.702 118.522 95.7111C115.582 92.4904 111.871 90.1099 107.81 88.8496C108.51 88.0794 109.14 87.3093 109.771 86.5391C115.022 79.8876 117.822 72.466 118.522 67.4949H120.203C124.614 67.4949 128.255 63.9241 128.255 59.4431V55.3122C128.255 52.3716 126.574 49.641 124.054 48.3107V38.3685C124.054 36.8981 122.863 35.6379 121.323 35.6379C119.853 35.6379 118.592 36.8281 118.592 38.3685V49.5009C117.542 49.711 116.282 49.991 115.022 50.5512C114.882 50.6212 114.742 50.6212 114.672 50.6912C114.392 50.8312 114.112 50.9713 113.831 51.1113V29.2665C113.831 23.2451 108.93 18.344 102.909 18.344H95.4174C92.8268 18.344 90.3063 19.2542 88.3458 20.8646L87.6457 21.4947C86.3154 22.615 84.565 23.1751 82.8846 23.1751C81.2043 23.1751 79.4539 22.545 78.1236 21.4947L77.4234 20.8646C75.393 19.2542 72.8724 18.344 70.3519 18.344H62.8602C56.8389 18.344 51.9378 23.2451 51.9378 29.2665V51.1113C51.6577 50.9713 51.3777 50.8312 51.0976 50.6912C50.9576 50.6212 50.8175 50.5512 50.7475 50.5512C49.4872 49.991 48.227 49.711 47.1767 49.5009V21.3547C47.1767 12.6028 54.3183 5.46121 63.0702 5.46121H103.049C111.801 5.46121 118.943 12.6028 118.943 21.3547V25.6257C118.943 27.096 120.133 28.3563 121.673 28.3563C123.144 28.3563 124.404 27.166 124.404 25.6257V21.3547C124.404 9.59212 114.812 0 103.049 0H63.0702C51.3077 0 41.7155 9.59212 41.7155 21.3547V48.3107C39.195 49.711 37.5146 52.3716 37.5146 55.3122V59.4431C37.5146 63.8541 41.1554 67.4949 45.5664 67.4949H47.2467C47.9469 72.536 50.7475 79.8876 55.9987 86.5391C56.5588 87.3093 57.259 88.0794 57.9591 88.8496C48.577 91.8603 41.7155 100.262 40.8753 110.274L18.7505 116.926C13.7093 118.466 10.0685 122.597 9.15835 127.778L5.7976 147.243C5.51754 148.713 6.56777 150.113 8.03809 150.393C9.50842 150.673 10.9087 149.623 11.1888 148.153L14.5495 128.688C15.1097 125.538 17.2801 123.087 20.3608 122.107L40.8053 115.946V121.337C36.1143 122.177 32.1234 125.398 30.5131 129.879C30.093 131.069 29.8129 132.329 29.7429 133.589L27.7825 158.935C27.6424 160.826 28.2726 162.716 29.6029 164.116C30.9331 165.517 32.7535 166.357 34.644 166.357H38.0047C39.475 166.357 40.7353 165.166 40.7353 163.626C40.7353 162.086 39.545 160.896 38.0047 160.896H34.644C34.2239 160.896 33.8738 160.755 33.5937 160.405C33.3137 160.125 33.1736 159.705 33.1736 159.285L35.1341 133.94C35.2041 133.169 35.3441 132.399 35.6242 131.699C36.7444 128.618 39.8251 126.518 43.3259 126.448H43.746H43.816C47.1767 126.448 50.1174 128.338 51.3777 131.279C51.7277 132.119 51.9378 132.959 52.0078 133.87L53.9682 159.215C53.9682 159.635 53.8282 160.055 53.5481 160.335C53.2681 160.615 52.848 160.826 52.4979 160.826H49.1372C47.6668 160.826 46.4066 162.016 46.4066 163.556C46.4066 165.026 47.5968 166.287 49.1372 166.287H52.4979C54.3883 166.287 56.2787 165.447 57.539 164.046C58.8693 162.646 59.4995 160.755 59.3594 158.865L57.399 133.519C57.259 132.049 56.9089 130.579 56.3488 129.249C54.5284 125.048 50.7475 122.107 46.2665 121.337V114.335L55.5786 111.535C56.4188 113.355 58.0991 117.206 61.4599 125.468C64.8206 133.87 68.9515 144.652 73.0124 155.084C73.0124 155.154 73.0825 155.224 73.0825 155.364C75.743 162.366 78.3336 169.157 80.5741 175.109C80.9942 176.159 81.9744 176.859 83.0947 176.859C84.2149 176.859 85.2651 176.159 85.6152 175.109C87.8557 169.227 90.4463 162.366 93.1069 155.364C93.1769 155.294 93.1769 155.224 93.1769 155.084C97.1678 144.652 101.369 133.87 104.659 125.468C108.02 117.136 109.701 113.285 110.541 111.465L119.853 114.265V130.299C113.411 131.559 108.51 137.23 108.51 144.092C108.51 151.794 114.812 158.095 122.513 158.095C130.215 158.095 136.516 151.794 136.516 144.092C136.516 137.3 131.685 131.629 125.244 130.369V116.016L145.688 122.177C148.699 123.087 150.94 125.608 151.5 128.758L159.692 176.719C159.832 177.489 159.622 178.259 159.061 178.889C158.571 179.52 157.801 179.87 157.031 179.87H8.73825C7.89806 179.87 7.19791 179.52 6.7078 178.889C6.2177 178.259 6.00765 177.489 6.07766 176.719L8.80827 160.896C9.08833 159.425 8.03809 158.025 6.56777 157.745C5.09745 157.465 3.69714 158.515 3.41707 159.985L0.686471 175.809C0.266378 178.189 0.966537 180.57 2.50688 182.39C4.04722 184.211 6.28771 185.261 8.73825 185.261H156.681C159.061 185.261 161.372 184.211 162.912 182.39C164.453 180.43 165.083 178.049 164.733 175.669ZM118.663 55.0321C120.133 54.6821 121.253 54.6821 121.253 54.6821C121.743 54.6821 122.163 54.6121 122.583 54.402C122.723 54.6821 122.793 55.0321 122.793 55.3822V59.5131C122.793 60.9835 121.603 62.1037 120.203 62.1037H118.663V55.0321ZM46.7566 62.0337H45.2163C43.746 62.0337 42.6257 60.8434 42.6257 59.4431V55.3122C42.6257 54.9621 42.6957 54.6821 42.8358 54.332C43.2559 54.542 43.676 54.6821 44.1661 54.6121C44.1661 54.6121 45.3563 54.6121 46.7566 54.9621V62.0337ZM52.2178 65.1144V57.9728C53.058 58.2529 53.9682 58.1828 54.7384 57.8328C56.1387 57.2726 57.0489 55.8723 57.0489 54.332V29.2665C57.0489 26.1858 59.4995 23.7352 62.5801 23.7352H70.0718C71.4021 23.7352 72.7324 24.2253 73.7126 25.0655L74.4128 25.6957C76.7233 27.5861 79.6639 28.6363 82.6046 28.6363C85.6152 28.6363 88.4858 27.5861 90.7964 25.6957L91.4965 25.0655C92.5467 24.2253 93.807 23.7352 95.1373 23.7352H102.629C105.71 23.7352 108.16 26.1858 108.16 29.2665V54.262C108.16 55.8023 109.07 57.2026 110.471 57.7627C110.961 57.9728 111.451 58.0428 111.941 58.0428C112.291 58.0428 112.641 57.9728 112.991 57.9028V65.1144C112.991 69.1053 110.261 76.7369 105.15 83.1784C103.469 85.3488 101.299 87.5893 98.6381 89.6198C98.5681 89.6898 98.4981 89.7598 98.428 89.8298C94.2971 92.8405 89.046 95.221 82.4645 95.221C75.8831 95.221 70.6319 92.9105 66.501 89.8298C66.431 89.7598 66.361 89.6898 66.291 89.6198C63.6304 87.5893 61.4599 85.3488 59.7795 83.1784C54.9485 76.7369 52.2178 69.0352 52.2178 65.1144ZM100.458 108.874L82.6746 122.177L64.8906 108.874C66.641 106.634 67.6213 103.763 67.6213 101.172V96.8314C71.8222 99.0719 76.7933 100.612 82.6046 100.612C88.4859 100.612 93.4569 99.0719 97.5879 96.8314V101.172C97.7279 103.763 98.7081 106.634 100.458 108.874ZM60.4097 105.863C58.9393 105.303 57.329 105.233 55.8587 105.653C55.7886 105.653 55.7186 105.653 55.6486 105.723L46.2665 108.524C47.8769 100.752 54.1783 94.5209 62.2301 93.3306V101.242C62.3001 102.923 61.5299 104.673 60.4097 105.863ZM67.7613 127.638C67.6212 127.218 67.4812 126.938 67.3412 126.588C67.3412 126.518 67.2712 126.448 67.2712 126.378C67.1311 126.028 66.9911 125.748 66.8511 125.398V125.328C66.431 124.347 66.0809 123.367 65.6608 122.387C65.6608 122.317 65.5908 122.247 65.5908 122.177C65.4508 121.897 65.3808 121.617 65.2407 121.407C65.1707 121.337 65.1707 121.197 65.1007 121.127C65.0307 120.847 64.8906 120.637 64.8206 120.357C64.8206 120.287 64.7506 120.217 64.7506 120.147C64.5406 119.726 64.4005 119.236 64.1905 118.816C64.1205 118.676 64.1205 118.606 64.0505 118.466C63.9804 118.326 63.9104 118.116 63.8404 117.976C63.7704 117.836 63.7004 117.626 63.6304 117.486C63.6304 117.416 63.5604 117.346 63.5604 117.276C63.5604 117.206 63.4903 117.206 63.4903 117.136C63.2103 116.366 62.8602 115.666 62.5801 114.965C62.4401 114.615 62.3001 114.265 62.16 113.915C62.09 113.775 62.02 113.565 61.95 113.425L77.2134 124.838L70.842 127.568L68.1814 128.688C68.1114 128.408 67.9713 127.988 67.7613 127.638ZM74.2727 144.232C73.7126 142.832 73.2225 141.431 72.6624 140.031C71.8222 137.86 70.982 135.76 70.2118 133.8L71.192 133.379L75.323 138.21L74.2727 144.232ZM82.7446 166.287C82.6746 166.147 82.6046 166.007 82.4645 165.797C81.2743 162.576 79.6639 158.445 77.9835 153.964L80.5041 140.101H84.9151L87.4356 153.964C85.6152 158.725 84.0049 162.926 82.7446 166.287ZM85.9653 134.71H79.5239L76.5132 131.209L82.7446 128.548L88.976 131.209L85.9653 134.71ZM92.8268 140.031C92.2667 141.431 91.7766 142.832 91.2165 144.232L90.0962 138.21L94.2271 133.379L95.2073 133.8C94.4372 135.76 93.667 137.86 92.8268 140.031ZM103.189 113.985C103.049 114.335 102.909 114.615 102.769 114.965C102.769 115.035 102.699 115.035 102.699 115.105C102.559 115.455 102.419 115.806 102.279 116.156V116.226C102.139 116.506 101.999 116.856 101.859 117.206C101.859 117.276 101.789 117.346 101.789 117.416C101.789 117.486 101.719 117.556 101.719 117.626C101.649 117.766 101.579 117.906 101.509 118.046C101.439 118.256 101.369 118.396 101.299 118.606C101.299 118.676 101.229 118.746 101.229 118.816C101.019 119.306 100.879 119.726 100.669 120.217C100.669 120.287 100.599 120.357 100.599 120.427C100.529 120.637 100.388 120.917 100.318 121.197C100.248 121.267 100.248 121.407 100.178 121.477C100.108 121.757 99.9684 121.967 99.8984 122.247C99.8984 122.317 99.8284 122.387 99.8284 122.457C99.4783 123.367 99.0582 124.347 98.7081 125.328C98.7081 125.328 98.7081 125.398 98.6381 125.398C98.4981 125.748 98.358 126.028 98.218 126.378C98.218 126.448 98.148 126.518 98.148 126.588C98.0079 126.938 97.8679 127.288 97.7279 127.638C97.5879 127.988 97.4478 128.408 97.3078 128.758L94.6472 127.638L88.2758 124.908L103.539 113.495C103.329 113.635 103.259 113.845 103.189 113.985ZM109.771 105.723C108.16 105.233 106.48 105.303 105.009 105.933C103.889 104.743 103.189 102.993 103.189 101.312V93.4006C111.311 94.5909 117.612 100.752 119.153 108.594L109.771 105.723ZM130.845 144.092C130.845 148.853 126.994 152.704 122.233 152.704C117.472 152.704 113.621 148.853 113.621 144.092C113.621 139.331 117.472 135.48 122.233 135.48C126.924 135.48 130.845 139.331 130.845 144.092Z" fill="#0075C9" fill-opacity="0.6"/>
<circle cx="143" cy="159" r="31" fill="#66ACDF"/>
<path d="M155.688 149.25L139.25 165.688L133.25 159.625C132.938 159.375 132.438 159.375 132.188 159.625L130.375 161.438C130.125 161.688 130.125 162.188 130.375 162.5L138.75 170.812C139.062 171.125 139.5 171.125 139.812 170.812L158.562 152.062C158.812 151.812 158.812 151.312 158.562 151L156.75 149.25C156.5 148.938 156 148.938 155.688 149.25Z" fill="white"/>
</svg>
