<svg width="22" height="24" viewBox="0 0 22 24" fill="none" xmlns="http://www.w3.org/2000/svg">
<path d="M19.2252 3H16.9752V0.5625C16.9752 0.28125 16.6939 0 16.4127 0H16.0377C15.7096 0 15.4752 0.28125 15.4752 0.5625V3H6.47518V0.5625C6.47518 0.28125 6.19393 0 5.91268 0H5.53768C5.20955 0 4.97518 0.28125 4.97518 0.5625V3H2.72518C1.45955 3 0.475178 4.03125 0.475178 5.25V21.75C0.475178 23.0156 1.45955 24 2.72518 24H19.2252C20.4439 24 21.4752 23.0156 21.4752 21.75V5.25C21.4752 4.03125 20.4439 3 19.2252 3ZM2.72518 4.5H19.2252C19.6002 4.5 19.9752 4.875 19.9752 5.25V7.5H1.97518V5.25C1.97518 4.875 2.3033 4.5 2.72518 4.5ZM19.2252 22.5H2.72518C2.3033 22.5 1.97518 22.1719 1.97518 21.75V9H19.9752V21.75C19.9752 22.1719 19.6002 22.5 19.2252 22.5ZM16.0846 13.4062C16.3189 13.1719 16.3189 12.7969 16.0846 12.6094L15.7096 12.1875C15.4752 11.9531 15.1002 11.9531 14.9127 12.1875L9.38143 17.6719L6.9908 15.2812C6.8033 15.0938 6.4283 15.0938 6.19393 15.2812L5.81893 15.7031C5.58455 15.8906 5.58455 16.2656 5.81893 16.5L8.95955 19.6406C9.19393 19.875 9.56893 19.875 9.75643 19.6406L16.0846 13.4062Z" fill="#0075C9"/>
</svg>
