<?xml version="1.0" encoding="utf-8"?>
<!-- Generator: Adobe Illustrator 25.4.1, SVG Export Plug-In . SVG Version: 6.00 Build 0)  -->
<svg version="1.1" id="Capa_1" xmlns="http://www.w3.org/2000/svg" xmlns:xlink="http://www.w3.org/1999/xlink" x="0px" y="0px"
	 viewBox="0 0 150 65" style="enable-background:new 0 0 150 65;" xml:space="preserve">
<style type="text/css">
	.st0{fill:#0075C9;}
	.st1{fill:url(#SVGID_1_);}
	.st2{fill:url(#SVGID_00000045576664499746380580000016774475827640576167_);}
	.st3{fill:url(#SVGID_00000017497810940910906010000015764634505926876843_);}
	.st4{fill:#FFFFFF;}
	.st5{fill:#9A9A9A;}
	.st6{fill:url(#SVGID_00000083085282146354671220000011135097766787304095_);}
	.st7{fill:url(#SVGID_00000053514693774034310980000016817105931513637026_);}
	.st8{fill:url(#SVGID_00000071518985838971856370000012622306967881146241_);}
	.st9{fill:url(#SVGID_00000163036120716780325310000008746937066465733528_);}
	.st10{fill:#F2F2F5;}
	.st11{fill:url(#SVGID_00000145027088190133801160000018432428973034384547_);}
	.st12{fill:url(#SVGID_00000127024951846418542220000011575512397723756470_);}
	.st13{fill:url(#SVGID_00000118376927094869475540000017428335953509453448_);}
</style>
<g>
	<g>
		<g>
			<path class="st0" d="M33.96,25.08h5.6c3.36,0,5.88,2.14,5.88,6.51c0,3.82-1.93,6.66-5.88,6.66h-5.6V25.08z M36.82,35.82h2.54
				c1.65,0,3.23-1.03,3.23-3.95c0-2.66-0.91-4.35-3.74-4.35h-2.03V35.82z"/>
			<path class="st0" d="M51.34,28.46c2.96,0,4.87,1.99,4.87,5.04c0,3.02-1.91,5.02-4.87,5.02c-2.94,0-4.85-1.99-4.85-5.02
				C46.49,30.45,48.4,28.46,51.34,28.46z M51.34,36.54c1.76,0,2.29-1.53,2.29-3.04c0-1.53-0.53-3.06-2.29-3.06
				c-1.74,0-2.27,1.53-2.27,3.06C49.07,35.01,49.6,36.54,51.34,36.54z"/>
			<path class="st0" d="M63.9,32.07C63.74,31,63.07,30.43,62,30.43c-1.65,0-2.2,1.7-2.2,3.1c0,1.36,0.53,3.01,2.14,3.01
				c1.2,0,1.89-0.77,2.05-1.94h2.49c-0.33,2.53-2.05,3.91-4.52,3.91c-2.84,0-4.74-2.03-4.74-4.89c0-2.97,1.74-5.16,4.8-5.16
				c2.22,0,4.25,1.18,4.41,3.61H63.9z"/>
			<path class="st0" d="M70.84,28.72h1.89v1.75h-1.89v4.72c0,0.89,0.22,1.11,1.09,1.11c0.27,0,0.53-0.02,0.8-0.07v2.05
				c-0.44,0.07-1,0.09-1.51,0.09c-1.58,0-2.96-0.37-2.96-2.27v-5.63h-1.56v-1.75h1.56v-2.86h2.58V28.72z"/>
			<path class="st0" d="M78.15,28.46c2.96,0,4.87,1.99,4.87,5.03c0,3.02-1.91,5.02-4.87,5.02c-2.94,0-4.85-1.99-4.85-5.02
				C73.3,30.45,75.21,28.46,78.15,28.46z M78.15,36.54c1.76,0,2.29-1.53,2.29-3.04c0-1.53-0.53-3.06-2.29-3.06
				c-1.74,0-2.27,1.53-2.27,3.06C75.88,35.01,76.41,36.54,78.15,36.54z"/>
			<path class="st0" d="M84.32,28.72h2.45v1.77h0.04c0.47-1.2,1.74-2.03,3-2.03c0.18,0,0.4,0.04,0.56,0.09v2.44
				c-0.24-0.06-0.62-0.09-0.93-0.09c-1.89,0-2.54,1.38-2.54,3.06v4.3h-2.58V28.72z"/>
			<path class="st0" d="M101.79,24.77c4.01,0,6.38,3.04,6.38,6.95c0,3.8-2.36,6.84-6.38,6.84c-4.01,0-6.38-3.04-6.38-6.84
				C95.41,27.81,97.78,24.77,101.79,24.77z M101.79,36.13c2.56,0,3.52-2.21,3.52-4.41c0-2.3-0.96-4.52-3.52-4.52
				c-2.56,0-3.52,2.21-3.52,4.52C98.27,33.92,99.23,36.13,101.79,36.13z"/>
			<path class="st0" d="M109.46,28.72h2.45v1.33h0.05c0.65-1.07,1.78-1.59,2.87-1.59c2.74,0,3.43,1.57,3.43,3.93v5.87h-2.58v-5.39
				c0-1.57-0.45-2.34-1.65-2.34c-1.4,0-2,0.79-2,2.73v5h-2.58V28.72z"/>
			<path class="st0" d="M119.94,25.08h2.58v13.17h-2.58V25.08z"/>
			<path class="st0" d="M126.84,27.24h-2.58v-2.16h2.58V27.24z M124.26,28.72h2.58v9.54h-2.58V28.72z"/>
			<path class="st0" d="M128.51,28.72h2.45v1.33h0.05c0.65-1.07,1.78-1.59,2.87-1.59c2.74,0,3.43,1.57,3.43,3.93v5.87h-2.58v-5.39
				c0-1.57-0.46-2.34-1.65-2.34c-1.4,0-2,0.79-2,2.73v5h-2.58V28.72z"/>
			<path class="st0" d="M141.03,34.12c0.07,1.66,0.87,2.42,2.31,2.42c1.03,0,1.87-0.64,2.03-1.23h2.27
				c-0.73,2.25-2.27,3.21-4.4,3.21c-2.96,0-4.8-2.07-4.8-5.02c0-2.86,1.94-5.03,4.8-5.03c3.2,0,4.74,2.73,4.56,5.66H141.03z
				 M145.23,32.46c-0.24-1.33-0.8-2.03-2.05-2.03c-1.63,0-2.11,1.29-2.14,2.03H145.23z"/>
		</g>
	</g>
	<g>
		<linearGradient id="SVGID_1_" gradientUnits="userSpaceOnUse" x1="26.2912" y1="38.8268" x2="5.2432" y2="25.8397">
			<stop  offset="0" style="stop-color:#FFFFFF;stop-opacity:0"/>
			<stop  offset="1" style="stop-color:#C4C2C1"/>
		</linearGradient>
		<path class="st1" d="M29.06,32.53c0,6.73-5.81,12.18-12.97,12.18c-7.17,0-12.98-5.45-12.98-12.18s5.81-12.18,12.98-12.18
			C23.25,20.34,29.06,25.8,29.06,32.53z"/>
		
			<linearGradient id="SVGID_00000049942541985504098390000002148035209497043862_" gradientUnits="userSpaceOnUse" x1="-1.9847" y1="21.2634" x2="30.9331" y2="41.8675">
			<stop  offset="0" style="stop-color:#0092C7"/>
			<stop  offset="1" style="stop-color:#3B3777"/>
		</linearGradient>
		<path style="fill:url(#SVGID_00000049942541985504098390000002148035209497043862_);" d="M20.96,20.35
			c-1.55-0.57-3.23-0.88-4.99-0.88c-7.6,0-13.79,5.85-13.79,13.03c0,7.19,6.19,13.03,13.79,13.03c3.02,0,5.9-0.91,8.3-2.63
			l-0.84-1.43c-2.16,1.54-4.74,2.35-7.46,2.35c-6.75,0-12.24-5.08-12.24-11.33c0-6.25,5.49-11.33,12.24-11.33
			c2.5,0,4.83,0.7,6.77,1.89c1.38,0.91,2.62,2.09,3.59,3.4c1.19,1.75,1.88,3.82,1.88,6.03h0.03c-0.02,0.07-0.04,0.13-0.06,0.2
			c-0.39,1.14-0.95,1.83-1.71,2.09c-1.68,0.59-3.82-0.98-3.84-0.99L22.2,34.5l-0.43,0.71c0.09,0.07,1.92,1.42,3.9,1.42
			c0.42,0,0.85-0.06,1.27-0.21c1.23-0.43,2.14-1.48,2.7-3.12c0.48-1.41,0.32-3.15-0.47-5.04c-0.41-0.98-0.96-1.94-1.63-2.84
			c-1.04-1.51-2.39-2.8-3.98-3.79C23.56,21.62,22.25,20.84,20.96,20.35z"/>
		
			<linearGradient id="SVGID_00000005262434336944439000000015074370120509367961_" gradientUnits="userSpaceOnUse" x1="-531.4431" y1="222.9328" x2="-515.1231" y2="222.9328" gradientTransform="matrix(0.6705 0.742 -0.742 0.6705 531.8526 271.8043)">
			<stop  offset="0" style="stop-color:#0092C7"/>
			<stop  offset="1" style="stop-color:#3B3777"/>
		</linearGradient>
		<path style="fill:url(#SVGID_00000005262434336944439000000015074370120509367961_);" d="M22.09,38.09
			c-2.57,2.74-7.58,2.69-11.18-0.12c-3.6-2.8-4.43-7.3-1.86-10.04c2.57-2.74,7.58-2.69,11.18,0.12
			C23.83,30.85,24.67,35.34,22.09,38.09z"/>
		<path class="st4" d="M22.06,37.77c-2.48,2.65-7.35,2.57-10.87-0.2c-3.52-2.76-4.37-7.15-1.88-9.8c2.48-2.65,7.35-2.57,10.88,0.2
			C23.7,30.73,24.54,35.11,22.06,37.77z"/>
		<path class="st5" d="M21.9,37.35c-2.41,2.56-7.07,2.54-10.41-0.06c-3.34-2.59-4.1-6.78-1.69-9.34c2.41-2.57,7.08-2.54,10.42,0.05
			C23.56,30.6,24.31,34.78,21.9,37.35z"/>
		
			<radialGradient id="SVGID_00000104677953249280441920000013260721378634584242_" cx="-1586.2644" cy="496.238" r="12.4944" gradientTransform="matrix(0.5395 0 0 0.5478 871.5715 -239.3067)" gradientUnits="userSpaceOnUse">
			<stop  offset="0.1163" style="stop-color:#C9DFF1"/>
			<stop  offset="1" style="stop-color:#1778B0"/>
		</radialGradient>
		<path style="fill:url(#SVGID_00000104677953249280441920000013260721378634584242_);" d="M21.61,37.05
			c-2.32,2.47-6.81,2.45-10.03-0.04c-3.22-2.5-3.94-6.52-1.62-8.99c2.32-2.47,6.82-2.45,10.03,0.04
			C23.21,30.55,23.93,34.58,21.61,37.05z"/>
		
			<linearGradient id="SVGID_00000179617156058934164420000010043274133022527652_" gradientUnits="userSpaceOnUse" x1="-492.2431" y1="326.4928" x2="-491.3755" y2="328.17" gradientTransform="matrix(0.5973 0.8585 -0.8209 0.5711 584.3954 269.5317)">
			<stop  offset="0" style="stop-color:#CCCBCB"/>
			<stop  offset="0.0282" style="stop-color:#B8B7B7"/>
			<stop  offset="0.072" style="stop-color:#9F9E9E"/>
			<stop  offset="0.1177" style="stop-color:#8D8D8C"/>
			<stop  offset="0.1662" style="stop-color:#828281"/>
			<stop  offset="0.2224" style="stop-color:#7F7F7E"/>
			<stop  offset="0.42" style="stop-color:#9EA09F"/>
			<stop  offset="0.6087" style="stop-color:#B8B8B7"/>
			<stop  offset="0.8521" style="stop-color:#D3D1D0"/>
			<stop  offset="0.9947" style="stop-color:#DDDBDA"/>
		</linearGradient>
		<path style="fill:url(#SVGID_00000179617156058934164420000010043274133022527652_);" d="M18.68,33.71l5.47,2.78
			c0,0,0.17-1.13,1.01-1.65l-4.86-2.07L18.68,33.71z"/>
		
			<linearGradient id="SVGID_00000127745962556994689270000011839194724545708422_" gradientUnits="userSpaceOnUse" x1="-528.1429" y1="223.1765" x2="-520.1521" y2="220.1032" gradientTransform="matrix(0.6705 0.742 -0.742 0.6705 531.8526 271.8043)">
			<stop  offset="0" style="stop-color:#A1A1A2"/>
			<stop  offset="0.1177" style="stop-color:#AAAAAB"/>
			<stop  offset="0.3135" style="stop-color:#C4C2C4"/>
			<stop  offset="0.5396" style="stop-color:#E9E6E9"/>
			<stop  offset="0.7209" style="stop-color:#C6C5C6"/>
			<stop  offset="0.8938" style="stop-color:#AAABAB"/>
			<stop  offset="0.9947" style="stop-color:#A0A2A1"/>
		</linearGradient>
		<path style="fill:url(#SVGID_00000127745962556994689270000011839194724545708422_);" d="M11.87,29.26c0,0-0.81,1.91,1.32,4.3
			c1.66,1.87,4.6,2.35,6.41,0.28c1.79-2.07,0.68-3.81,0.68-3.81l-5.82-3.14L11.87,29.26z"/>
		
			<linearGradient id="SVGID_00000155142338054735000760000014225322993783851947_" gradientUnits="userSpaceOnUse" x1="-525.8862" y1="214.7917" x2="-524.0873" y2="224.4899" gradientTransform="matrix(0.6705 0.742 -0.742 0.6705 531.8526 271.8043)">
			<stop  offset="0" style="stop-color:#E9E6E9"/>
			<stop  offset="0.1512" style="stop-color:#E4E1E4"/>
			<stop  offset="0.3319" style="stop-color:#D6D4D5"/>
			<stop  offset="0.5269" style="stop-color:#BFBDBD"/>
			<stop  offset="0.5967" style="stop-color:#B5B3B3"/>
			<stop  offset="0.6662" style="stop-color:#BAB8B8"/>
			<stop  offset="0.7493" style="stop-color:#C9C5C6"/>
			<stop  offset="0.839" style="stop-color:#E1DCDD"/>
			<stop  offset="0.8681" style="stop-color:#EAE5E6"/>
			<stop  offset="0.9019" style="stop-color:#E5E0E1"/>
			<stop  offset="0.9444" style="stop-color:#D5D2D2"/>
			<stop  offset="0.9914" style="stop-color:#BCBABA"/>
			<stop  offset="1" style="stop-color:#B6B5B5"/>
		</linearGradient>
		<path style="fill:url(#SVGID_00000155142338054735000760000014225322993783851947_);" d="M21.17,32.79
			c-1.67,1.78-4.93,1.74-7.28-0.09c-2.35-1.83-2.89-4.76-1.22-6.54c1.67-1.78,4.93-1.74,7.28,0.09
			C22.29,28.08,22.84,31.01,21.17,32.79z"/>
		<path class="st10" d="M21.17,32.58c0.26-0.28,0.46-0.58,0.62-0.9c-0.14,0.25-0.31,0.48-0.51,0.7c-1.64,1.75-4.83,1.71-7.13-0.09
			c-1.94-1.51-2.62-3.79-1.81-5.51c-0.96,1.74-0.3,4.14,1.71,5.71C16.34,34.29,19.53,34.32,21.17,32.58z"/>
		
			<linearGradient id="SVGID_00000042729539870833680110000001314466747570389902_" gradientUnits="userSpaceOnUse" x1="12.8726" y1="29.2919" x2="21.593" y2="29.2919">
			<stop  offset="0" style="stop-color:#1778B0"/>
			<stop  offset="0.0432" style="stop-color:#1E7CB3"/>
			<stop  offset="0.1075" style="stop-color:#3289BB"/>
			<stop  offset="0.1849" style="stop-color:#539CC9"/>
			<stop  offset="0.2719" style="stop-color:#81B8DB"/>
			<stop  offset="0.3271" style="stop-color:#68A9D1"/>
			<stop  offset="0.4375" style="stop-color:#3C8FBF"/>
			<stop  offset="0.5234" style="stop-color:#217EB4"/>
			<stop  offset="0.5736" style="stop-color:#1778B0"/>
			<stop  offset="0.6059" style="stop-color:#1E7CB3"/>
			<stop  offset="0.6538" style="stop-color:#3289BB"/>
			<stop  offset="0.7114" style="stop-color:#539CC9"/>
			<stop  offset="0.7763" style="stop-color:#81B8DB"/>
			<stop  offset="0.8172" style="stop-color:#68A9D1"/>
			<stop  offset="0.8991" style="stop-color:#3C8FBF"/>
			<stop  offset="0.9628" style="stop-color:#217EB4"/>
			<stop  offset="1" style="stop-color:#1778B0"/>
		</linearGradient>
		<path style="fill:url(#SVGID_00000042729539870833680110000001314466747570389902_);" d="M20.79,32.08
			c-1.39,1.49-4.11,1.44-6.08-0.1c-1.97-1.54-2.43-3.99-1.04-5.47c1.39-1.48,4.11-1.44,6.08,0.1
			C21.72,28.14,22.18,30.59,20.79,32.08z"/>
		
			<linearGradient id="SVGID_00000101812125658582094610000009632026459268035510_" gradientUnits="userSpaceOnUse" x1="-525.332" y1="215.3681" x2="-524.4729" y2="222.8656" gradientTransform="matrix(0.6705 0.742 -0.742 0.6705 531.8526 271.8043)">
			<stop  offset="0" style="stop-color:#E9E6E9"/>
			<stop  offset="0.259" style="stop-color:#E4E1E4"/>
			<stop  offset="0.5685" style="stop-color:#D6D4D5"/>
			<stop  offset="0.9026" style="stop-color:#BEBDBD"/>
			<stop  offset="1" style="stop-color:#B6B5B5"/>
		</linearGradient>
		<path style="fill:url(#SVGID_00000101812125658582094610000009632026459268035510_);" d="M20.38,31.82
			c-1.23,1.32-3.64,1.28-5.38-0.09c-1.74-1.36-2.16-3.54-0.92-4.85c1.23-1.31,3.64-1.27,5.38,0.09
			C21.2,28.33,21.62,30.5,20.38,31.82z"/>
		
			<linearGradient id="SVGID_00000090288324313009276120000017797721622295615928_" gradientUnits="userSpaceOnUse" x1="16.3222" y1="29.6947" x2="17.4966" y2="29.6947">
			<stop  offset="0" style="stop-color:#0092C7"/>
			<stop  offset="1" style="stop-color:#3B3777"/>
		</linearGradient>
		<path style="fill:url(#SVGID_00000090288324313009276120000017797721622295615928_);" d="M17.41,30.1
			c-0.17,0.19-0.53,0.16-0.81-0.07c-0.28-0.22-0.36-0.56-0.18-0.74c0.17-0.19,0.54-0.16,0.81,0.06
			C17.5,29.58,17.58,29.91,17.41,30.1z"/>
	</g>
</g>
</svg>
