<?xml version="1.0" encoding="utf-8"?>
<!-- Generator: Adobe Illustrator 25.4.1, SVG Export Plug-In . SVG Version: 6.00 Build 0)  -->
<svg version="1.1" id="Capa_1" xmlns="http://www.w3.org/2000/svg" xmlns:xlink="http://www.w3.org/1999/xlink" x="0px" y="0px"
	 viewBox="0 0 150 65" style="enable-background:new 0 0 150 65;" xml:space="preserve">
<style type="text/css">
	.st0{fill:#0075C9;}
</style>
<g>
	<g>
		<path class="st0" d="M50.36,42.58c-5.9,0-9.33-4.07-9.33-9.35c0-5.31,3.93-9.61,10.03-9.61c1.97,0,3.71,0.39,4.8,1.01l-0.03,3.09
			c-1.54-0.93-3.03-1.32-4.69-1.32c-4.3,0-6.43,3.12-6.43,6.6c0,3.74,2.36,6.63,6.18,6.63c1.68,0,3.15-0.48,4.55-1.23l0.93,2.44
			C54.32,42.08,52.35,42.58,50.36,42.58"/>
		<path class="st0" d="M64.03,31.38c-2.13,0-3.17,1.8-3.17,4.27c0,2.58,1.21,4.33,3.26,4.33c2.11,0,3.18-1.83,3.18-4.33
			C67.29,33.09,66.11,31.38,64.03,31.38 M68.86,40.67c-1.18,1.21-2.81,1.91-4.8,1.91c-1.85,0-3.43-0.59-4.58-1.66
			c-1.32-1.24-2.05-3.06-2.05-5.2c0-2.08,0.7-3.88,1.94-5.14c1.18-1.18,2.78-1.88,4.72-1.88c2.05,0,3.71,0.7,4.89,1.91
			c1.15,1.24,1.77,2.98,1.77,5C70.75,37.64,70.1,39.44,68.86,40.67"/>
		<path class="st0" d="M76.37,42.58c-2.22,0-3.06-1.26-3.06-2.92V22.42h3.37v15.76c0,0.98,0.2,1.38,0.9,1.38
			c0.22,0,0.51-0.03,0.98-0.14l0.42,2.5C78,42.44,77.12,42.58,76.37,42.58"/>
		<path class="st0" d="M98.21,42.3v-8.06c0-1.49-0.28-2.67-1.94-2.67c-1.21,0-2.33,0.65-3.2,1.35c0.03,0.11,0.03,0.31,0.03,0.48v8.9
			h-3.37V34.3c0-1.49-0.28-2.72-1.91-2.72c-1.21,0-2.33,0.65-3.2,1.35v9.38h-3.37V29.02h2.84l0.34,1.46
			c1.46-1.12,2.98-1.77,4.52-1.77c1.66,0,2.86,0.76,3.48,1.99c1.55-1.32,3.29-1.99,4.75-1.99c2.28,0,4.38,1.09,4.38,4.58v9.02
			L98.21,42.3L98.21,42.3z"/>
		<path class="st0" d="M109.98,31.24c-1.63,0-2.61,1.46-2.61,2.92h5.17C112.48,32.72,111.7,31.24,109.98,31.24 M107.45,36.54
			c0.06,1.97,1.68,3.34,3.74,3.34c1.26,0,2.3-0.31,3.46-0.93l0.81,2.16c-1.49,1.04-3.26,1.46-4.83,1.46c-4.64,0-6.6-3.37-6.6-6.94
			c0-3.79,2.25-6.94,6.04-6.94c3.6,0,5.96,2.72,5.96,6.85v0.98L107.45,36.54L107.45,36.54z"/>
		<path class="st0" d="M126.98,42.3v-7.81c0-1.38-0.25-2.89-1.97-2.89c-1.18,0-2.33,0.62-3.37,1.41v9.3h-3.37V29.02h2.87l0.36,1.43
			c1.43-1.07,2.87-1.74,4.66-1.74c2.02,0,4.19,1.21,4.19,4.78v8.82H126.98z"/>
		<path class="st0" d="M140.37,36.21l-1.91,0.06c-1.83,0.06-2.64,0.67-2.64,1.8c0,1.1,0.76,1.85,2.16,1.85
			c1.18,0,1.94-0.45,2.39-0.84V36.21z M141.21,42.3l-0.56-1.18c-0.87,0.79-2.08,1.46-3.85,1.46c-2.44,0-4.35-1.66-4.35-4.27
			c0-2.75,2.16-4.24,5.56-4.35l2.36-0.08v-0.34c0-1.6-1.12-2.25-2.53-2.25c-1.46,0-2.58,0.48-3.43,0.98l-1.1-2.11
			c1.77-1.18,3.43-1.46,5.2-1.46c3.29,0,5.28,1.35,5.28,4.83v5.25c0,1.91,0.06,2.89,0.25,3.51H141.21L141.21,42.3z"/>
		<path class="st0" d="M16.73,39.25v-2.65c0,0,0.07-1.17-1.04-1.73l-0.4-0.19l-4.54-2.14l-0.71-0.34c0,0-1.12-0.55-2.23-0.04
			l-2.35,1.11L4.7,33.63l-2.54,1.2c-1.11,0.56-1.04,1.73-1.04,1.73v2.65v-0.04v2.65c0,0-0.07,1.18,1.04,1.73l2.54,1.2l1.22,0.58
			l1.86,0.88c0,0,1.12,0.55,2.23,0.04l1.55-0.73l1.61-0.77l2.54-1.2c1.11-0.56,1.04-1.73,1.04-1.73v-2.65"/>
		<path class="st0" d="M34.64,39.25v-2.65c0,0,0.07-1.17-1.04-1.73l-0.4-0.19l-4.54-2.14l-0.72-0.34c0,0-1.11-0.55-2.23-0.04
			l-2.35,1.11l-0.76,0.35l-2.54,1.2c-1.11,0.56-1.04,1.73-1.04,1.73v2.65v-0.04v2.65c0,0-0.07,1.18,1.04,1.73l2.54,1.2l1.22,0.58
			l1.86,0.88c0,0,1.11,0.55,2.23,0.04l1.55-0.73l1.61-0.77l2.54-1.2c1.11-0.56,1.04-1.73,1.04-1.73v-2.65"/>
		<path class="st0" d="M17.84,29.72c-1.27,0-2.29-1.07-2.29-2.4c0-1.33,1.02-2.4,2.29-2.4c1.26,0,2.29,1.07,2.29,2.4
			C20.12,28.65,19.1,29.72,17.84,29.72 M25.69,25.84v-0.09V23.2c0,0,0.07-1.17-1.04-1.73l-0.4-0.19l-4.54-2.14l-0.71-0.34
			c0,0-1.12-0.55-2.23-0.04l-2.35,1.11l-0.76,0.35l-2.54,1.2c-1.11,0.56-1.04,1.73-1.04,1.73v2.61v0.04v2.61
			c0,0-0.07,1.18,1.04,1.73l2.54,1.2l1.22,0.58l1.86,0.88c0,0,1.12,0.55,2.23,0.04l1.55-0.73l1.61-0.77l2.53-1.2
			c1.11-0.56,1.04-1.73,1.04-1.73L25.69,25.84L25.69,25.84z"/>
	</g>
	<g>
		<g>
			<path class="st0" d="M146.35,41.64v-1.9h0.84c0.17,0,0.3,0.02,0.39,0.05c0.09,0.03,0.16,0.09,0.21,0.18
				c0.05,0.09,0.08,0.18,0.08,0.29c0,0.13-0.04,0.25-0.13,0.34c-0.09,0.09-0.22,0.15-0.4,0.18c0.07,0.03,0.12,0.06,0.15,0.09
				c0.07,0.07,0.14,0.15,0.21,0.25l0.33,0.52h-0.32l-0.25-0.39c-0.07-0.11-0.13-0.2-0.18-0.26c-0.05-0.06-0.09-0.1-0.13-0.13
				c-0.04-0.02-0.08-0.04-0.11-0.05c-0.03-0.01-0.08-0.01-0.14-0.01h-0.29v0.84H146.35z M146.6,40.58h0.54
				c0.11,0,0.2-0.01,0.27-0.04c0.06-0.02,0.11-0.06,0.15-0.11c0.03-0.05,0.05-0.11,0.05-0.17c0-0.09-0.03-0.16-0.1-0.22
				c-0.07-0.06-0.17-0.09-0.31-0.09h-0.6V40.58z"/>
		</g>
		<path class="st0" d="M147.05,38.92c-1.01,0-1.83,0.82-1.83,1.83c0,1.01,0.82,1.83,1.83,1.83c1.01,0,1.83-0.82,1.83-1.83
			C148.88,39.74,148.06,38.92,147.05,38.92z M147.05,42.41c-0.92,0-1.66-0.74-1.66-1.66c0-0.92,0.74-1.66,1.66-1.66
			c0.92,0,1.66,0.74,1.66,1.66C148.72,41.67,147.97,42.41,147.05,42.41z"/>
	</g>
</g>
</svg>
