<?xml version="1.0" encoding="utf-8"?>
<!-- Generator: Adobe Illustrator 25.4.1, SVG Export Plug-In . SVG Version: 6.00 Build 0)  -->
<svg version="1.1" id="Capa_1" xmlns="http://www.w3.org/2000/svg" xmlns:xlink="http://www.w3.org/1999/xlink" x="0px" y="0px"
	 viewBox="0 0 430 98" style="enable-background:new 0 0 430 98;" xml:space="preserve">
<style type="text/css">
	.st0{fill:#0075C9;}
</style>
<g>
	<g>
		<path class="st0" d="M144.53,77.84c-16.87,0-26.67-11.65-26.67-26.75c0-15.18,11.25-27.47,28.68-27.47
			c5.62,0,10.6,1.12,13.74,2.89l-0.08,8.84c-4.42-2.65-8.68-3.78-13.42-3.78c-12.29,0-18.39,8.92-18.39,18.88
			c0,10.68,6.75,18.96,17.67,18.96c4.82,0,9-1.36,13.01-3.53l2.65,6.98C155.85,76.39,150.23,77.84,144.53,77.84"/>
		<path class="st0" d="M183.64,45.79c-6.1,0-9.08,5.14-9.08,12.21c0,7.39,3.45,12.37,9.32,12.37c6.03,0,9.08-5.22,9.08-12.37
			C192.96,50.69,189.58,45.79,183.64,45.79 M197.45,72.38c-3.37,3.46-8.03,5.46-13.74,5.46c-5.3,0-9.8-1.69-13.09-4.74
			c-3.78-3.53-5.86-8.75-5.86-14.86c0-5.95,2.01-11.09,5.54-14.7c3.37-3.37,7.95-5.38,13.49-5.38c5.86,0,10.6,2.01,13.98,5.46
			c3.3,3.54,5.06,8.52,5.06,14.3C202.83,63.7,200.99,68.84,197.45,72.38"/>
		<path class="st0" d="M218.91,77.84c-6.35,0-8.75-3.62-8.75-8.36V20.16h9.64v45.06c0,2.81,0.56,3.94,2.57,3.94
			c0.64,0,1.45-0.08,2.81-0.4l1.2,7.15C223.57,77.44,221.07,77.84,218.91,77.84"/>
		<path class="st0" d="M281.37,77.03V53.98c0-4.26-0.8-7.63-5.54-7.63c-3.46,0-6.67,1.85-9.16,3.85c0.08,0.32,0.08,0.89,0.08,1.37
			v25.47h-9.64V54.14c0-4.26-0.81-7.79-5.46-7.79c-3.46,0-6.67,1.85-9.16,3.85v26.83h-9.64v-38h8.11l0.96,4.18
			c4.18-3.21,8.52-5.06,12.94-5.06c4.74,0,8.19,2.17,9.96,5.7c4.42-3.77,9.4-5.7,13.57-5.7c6.51,0,12.53,3.13,12.53,13.09v25.79
			L281.37,77.03L281.37,77.03z"/>
		<path class="st0" d="M315.04,45.38c-4.66,0-7.47,4.18-7.47,8.35h14.78C322.19,49.64,319.94,45.38,315.04,45.38 M307.81,60.57
			c0.16,5.62,4.82,9.56,10.68,9.56c3.61,0,6.59-0.88,9.88-2.65l2.33,6.19c-4.25,2.97-9.31,4.18-13.81,4.18
			c-13.26,0-18.88-9.64-18.88-19.84c0-10.84,6.43-19.84,17.27-19.84c10.28,0,17.03,7.79,17.03,19.6v2.81L307.81,60.57L307.81,60.57z
			"/>
		<path class="st0" d="M363.65,77.03V54.7c0-3.94-0.72-8.28-5.62-8.28c-3.37,0-6.67,1.77-9.64,4.02v26.59h-9.64v-38h8.2l1.04,4.1
			c4.1-3.05,8.2-4.98,13.34-4.98c5.78,0,11.97,3.46,11.97,13.66v25.22H363.65z"/>
		<path class="st0" d="M401.93,59.6l-5.46,0.16c-5.22,0.16-7.55,1.93-7.55,5.14c0,3.13,2.17,5.3,6.19,5.3
			c3.37,0,5.54-1.29,6.83-2.41V59.6z M404.34,77.03l-1.6-3.37c-2.49,2.25-5.95,4.18-11.01,4.18c-6.99,0-12.45-4.74-12.45-12.21
			c0-7.87,6.18-12.13,15.91-12.45l6.75-0.24v-0.96c0-4.58-3.21-6.43-7.23-6.43c-4.18,0-7.39,1.37-9.8,2.81l-3.13-6.03
			c5.06-3.37,9.8-4.18,14.86-4.18c9.4,0,15.11,3.86,15.11,13.82v15.02c0,5.46,0.16,8.27,0.72,10.04H404.34L404.34,77.03z"/>
		<path class="st0" d="M48.38,68.31v-7.57c0,0,0.19-3.36-2.97-4.95l-1.15-0.54l-12.99-6.13l-2.04-0.97c0,0-3.19-1.58-6.37-0.1
			l-6.72,3.18l-2.18,1.01L6.7,55.66c-3.17,1.6-2.98,4.96-2.98,4.96v7.57v-0.11v7.57c0,0-0.19,3.36,2.98,4.96l7.25,3.42l3.48,1.66
			l5.32,2.51c0,0,3.19,1.59,6.37,0.1l4.43-2.09l4.6-2.19l7.25-3.42c3.16-1.6,2.97-4.96,2.97-4.96v-7.57"/>
		<path class="st0" d="M99.58,68.31v-7.57c0,0,0.19-3.36-2.97-4.95l-1.16-0.54l-12.99-6.13l-2.05-0.97c0,0-3.18-1.58-6.37-0.1
			l-6.71,3.18l-2.18,1.01l-7.25,3.42c-3.17,1.6-2.98,4.96-2.98,4.96v7.57v-0.11v7.57c0,0-0.19,3.36,2.98,4.96l7.25,3.42l3.48,1.66
			l5.32,2.51c0,0,3.19,1.59,6.37,0.1l4.43-2.09l4.6-2.19l7.26-3.42c3.16-1.6,2.97-4.96,2.97-4.96v-7.57"/>
		<path class="st0" d="M51.53,41.05c-3.62,0-6.55-3.07-6.55-6.86c0-3.79,2.93-6.86,6.55-6.86c3.61,0,6.54,3.07,6.54,6.86
			C58.07,37.98,55.14,41.05,51.53,41.05 M73.98,29.97v-0.24V22.4c0,0,0.19-3.36-2.98-4.96l-1.15-0.55l-13-6.12l-2.04-0.97
			c0,0-3.19-1.58-6.37-0.1l-6.71,3.17l-2.18,1.01l-7.26,3.42c-3.16,1.6-2.97,4.96-2.97,4.96v7.46v0.11v7.45c0,0-0.19,3.36,2.97,4.96
			l7.26,3.42l3.48,1.66l5.32,2.51c0,0,3.19,1.58,6.37,0.11l4.42-2.09l4.6-2.19L71,42.25c3.17-1.6,2.98-4.96,2.98-4.96L73.98,29.97
			L73.98,29.97z"/>
	</g>
	<g>
		<g>
			<path class="st0" d="M419.03,75.13v-5.42h2.4c0.48,0,0.85,0.05,1.1,0.15c0.25,0.1,0.45,0.27,0.6,0.52
				c0.15,0.25,0.23,0.52,0.23,0.82c0,0.38-0.12,0.71-0.37,0.97c-0.25,0.26-0.63,0.43-1.15,0.5c0.19,0.09,0.33,0.18,0.43,0.27
				c0.21,0.19,0.41,0.43,0.6,0.72l0.94,1.48h-0.9L422.19,74c-0.21-0.33-0.38-0.57-0.52-0.75c-0.14-0.17-0.26-0.29-0.36-0.36
				c-0.11-0.07-0.22-0.12-0.33-0.14c-0.08-0.02-0.21-0.03-0.4-0.03h-0.83v2.41H419.03z M419.75,72.1h1.54c0.33,0,0.58-0.03,0.77-0.1
				c0.18-0.07,0.33-0.18,0.42-0.33c0.1-0.15,0.14-0.31,0.14-0.49c0-0.26-0.09-0.47-0.28-0.63c-0.19-0.17-0.48-0.25-0.88-0.25h-1.72
				V72.1z"/>
		</g>
		<path class="st0" d="M421.05,67.37c-2.89,0-5.23,2.34-5.23,5.23c0,2.89,2.34,5.23,5.23,5.23c2.89,0,5.23-2.34,5.23-5.23
			C426.28,69.71,423.94,67.37,421.05,67.37z M421.05,77.35c-2.63,0-4.76-2.13-4.76-4.76c0-2.63,2.13-4.76,4.76-4.76
			c2.63,0,4.76,2.13,4.76,4.76C425.81,75.22,423.68,77.35,421.05,77.35z"/>
	</g>
</g>
</svg>
