<svg width="191" height="154" viewBox="0 0 191 154" fill="none" xmlns="http://www.w3.org/2000/svg">
<path fill-rule="evenodd" clip-rule="evenodd" d="M51.1486 34.9221C51.1471 36.5669 51.1456 38.2124 51.1456 39.8593C51.1456 41.0741 51.1481 42.2881 51.1506 43.5019C51.1585 47.143 51.1664 50.7825 51.1045 54.4364C51.0634 58.9481 53.1099 62.1118 57.2984 64.0347C61.1703 65.8083 65.0386 67.5921 68.9075 69.376C75.3444 72.3436 81.7818 75.3117 88.2413 78.2382C92.8558 80.3208 97.5114 80.3741 102.181 78.2115C112.33 73.4991 122.493 68.8406 132.657 64.1949C137.092 62.1657 139.304 58.8419 139.29 54.0494C139.263 44.6783 139.263 35.2939 139.29 25.9228C139.304 21.2506 137.243 17.8999 132.877 15.8976C130.346 14.7357 127.817 13.5715 125.287 12.4072C117.354 8.75577 109.42 5.10361 101.453 1.52053C97.2093 -0.388406 92.8558 -0.588643 88.488 1.42708C78.119 6.21945 67.709 10.9717 57.3123 15.7107C53.2333 17.5795 51.1317 20.6365 51.1456 25.0551C51.1545 28.3473 51.1515 31.6337 51.1486 34.9221ZM108.183 48.5495C108.128 55.9585 102.264 61.752 94.8061 61.7386C87.4581 61.7253 81.4976 55.691 81.5664 48.3627C81.6487 41.0206 87.6775 34.9068 94.8745 34.8533C102.099 34.7999 108.238 41.1141 108.183 48.5495ZM0.0418204 114.043C0.0418204 112.395 0.0433473 110.75 0.0448738 109.105C0.0479253 105.818 0.0509748 102.531 0.0418204 99.2386C0.0280865 94.8199 2.12938 91.763 6.20836 89.8939C16.6049 85.1553 27.0152 80.4029 37.3844 75.6099C41.7518 73.5946 46.1054 73.7948 50.3489 75.7038C58.316 79.2869 66.251 82.9398 74.1839 86.5906L74.1978 86.5973C76.7227 87.7595 79.2471 88.9211 81.7725 90.0808C86.1398 92.0833 88.2002 95.4338 88.1863 100.106C88.1591 109.477 88.1591 118.861 88.1863 128.233C88.2002 133.025 85.9887 136.349 81.5526 138.378C71.3897 143.023 61.2263 147.682 51.0773 152.395C46.4076 154.557 41.7518 154.504 37.1372 152.422C30.6779 149.495 24.24 146.527 17.8035 143.559C13.9348 141.775 10.0667 139.992 6.19464 138.218C2.00577 136.296 -0.0405919 133.132 0.00060984 128.62C0.0624109 124.966 0.0546928 121.326 0.0469698 117.685C0.0443953 116.472 0.0418204 115.258 0.0418204 114.043ZM102.02 114.043C102.02 112.395 102.021 110.75 102.022 109.105V109.104C102.025 105.816 102.028 102.53 102.02 99.2386C102.006 94.8199 104.107 91.763 108.186 89.8939C118.583 85.1553 128.993 80.4029 139.362 75.6099C143.73 73.5946 148.083 73.7948 152.327 75.7038C160.293 79.2869 168.228 82.9393 176.161 86.5906C178.69 87.7548 181.22 88.9191 183.75 90.0808C188.117 92.0833 190.177 95.4338 190.164 100.106C190.136 109.477 190.136 118.861 190.164 128.233C190.177 133.025 187.966 136.349 183.531 138.378C173.367 143.023 163.204 147.682 153.055 152.395C148.385 154.557 143.73 154.504 139.115 152.422C132.656 149.495 126.219 146.527 119.783 143.56L119.781 143.559C115.912 141.775 112.044 139.992 108.172 138.218C103.983 136.296 101.937 133.132 101.978 128.62C102.04 124.966 102.032 121.327 102.024 117.686V117.685C102.022 116.472 102.02 115.258 102.02 114.043Z" fill="white"/>
</svg>
