<svg width="791" height="640" viewBox="0 0 791 640" fill="none" xmlns="http://www.w3.org/2000/svg">
<path fill-rule="evenodd" clip-rule="evenodd" d="M212.565 145.131C212.559 151.966 212.553 158.805 212.553 165.649C212.553 170.697 212.563 175.743 212.574 180.787C212.606 195.919 212.639 211.044 212.382 226.229C212.211 244.979 220.716 258.127 238.123 266.118C254.214 273.489 270.29 280.902 286.368 288.316C313.119 300.648 339.872 312.983 366.717 325.145C385.894 333.8 405.242 334.022 424.648 325.034C466.827 305.45 509.063 286.09 551.3 266.784C569.734 258.351 578.924 244.537 578.867 224.621C578.753 185.676 578.753 146.676 578.867 107.731C578.924 88.314 570.362 74.3891 552.214 66.0678C541.697 61.2392 531.185 56.4008 520.673 51.5622C487.705 36.3876 454.73 21.2098 421.621 6.31906C403.986 -1.61415 385.894 -2.44631 367.742 5.93071C324.65 25.847 281.388 45.5968 238.181 65.291C221.229 73.0577 212.495 85.7619 212.553 104.125C212.59 117.807 212.578 131.465 212.565 145.131ZM449.59 201.764C449.361 232.554 424.992 256.631 393.999 256.576C363.462 256.52 338.691 231.443 338.977 200.988C339.319 170.475 364.374 145.067 394.283 144.845C424.306 144.623 449.818 170.864 449.59 201.764ZM0.173799 473.943C0.173799 467.097 0.180145 460.26 0.186488 453.423C0.19917 439.761 0.211843 426.101 0.173799 412.42C0.116723 394.056 8.84935 381.352 25.8009 373.585C69.0075 353.892 112.271 334.142 155.364 314.223C173.514 305.847 191.607 306.679 209.242 314.613C242.352 329.504 275.329 344.685 308.297 359.857L308.354 359.885C318.847 364.714 329.338 369.542 339.834 374.361C357.983 382.683 366.546 396.608 366.488 416.025C366.375 454.969 366.375 493.969 366.488 532.915C366.546 552.832 357.356 566.645 338.919 575.078C296.684 594.382 254.447 613.745 212.269 633.329C192.863 642.316 173.514 642.094 154.336 633.439C127.492 621.277 100.738 608.942 73.9883 596.608C57.9108 589.196 41.8356 581.783 25.7439 574.412C8.33566 566.423 -0.168694 553.275 0.0025344 534.523C0.25937 519.338 0.227295 504.213 0.195199 489.081C0.1845 484.038 0.173799 478.993 0.173799 473.943ZM423.977 473.943C423.977 467.097 423.984 460.26 423.988 453.423V453.418C424.001 439.754 424.013 426.099 423.977 412.42C423.919 394.056 432.651 381.352 449.604 373.585C492.811 353.892 536.074 334.142 579.166 314.223C597.318 305.847 615.41 306.679 633.045 314.613C666.154 329.504 699.128 344.682 732.099 359.857C742.609 364.695 753.121 369.534 763.636 374.361C781.785 382.683 790.346 396.608 790.29 416.025C790.177 454.969 790.177 493.969 790.29 532.915C790.346 552.832 781.158 566.645 762.724 575.078C720.486 594.382 678.251 613.745 636.071 633.329C616.666 642.316 597.318 642.094 578.14 633.439C551.298 621.277 524.545 608.945 497.801 596.614L497.79 596.61C481.714 589.196 465.638 581.783 449.547 574.412C432.138 566.423 423.635 553.275 423.806 534.523C424.063 519.338 424.031 504.215 423.996 489.083V489.081C423.986 484.038 423.977 478.993 423.977 473.943Z" fill="white" fill-opacity="0.05"/>
</svg>
