<?xml version="1.0" encoding="utf-8"?>
<!-- Generator: Adobe Illustrator 24.0.1, SVG Export Plug-In . SVG Version: 6.00 Build 0)  -->
<svg version="1.0" id="Capa_1" xmlns="http://www.w3.org/2000/svg" xmlns:xlink="http://www.w3.org/1999/xlink" x="0px" y="0px"
	 viewBox="0 0 874 270" enable-background="new 0 0 874 270" xml:space="preserve">
<g>
	<g>
		<g>
			<path fill="#0076C2" d="M191.4,174.5v-34.7c0-4.3-3.4-7.7-7.7-7.7h-62.2H86.9c-0.5,0-1,0.1-1.5,0.2c-0.1,0-0.3,0.1-0.4,0.1
				c-0.3,0.1-0.7,0.2-1,0.3c-0.1,0-0.1,0.1-0.2,0.1c-2.7,1.2-4.6,3.9-4.6,7l0,0v34.7V223c0,4.3,3.5,7.7,7.7,7.7h34.6
				c4.2,0,7.7-3.5,7.7-7.7v-40.8h54.5C187.9,182.2,191.4,178.7,191.4,174.5"/>
			<path fill="#0076C2" d="M129.2,77.3L129.2,77.3V28.7c0-4.2-3.5-7.7-7.7-7.7H86.9c-4.2,0-7.7,3.5-7.7,7.7v40.9H24.7
				c-4.3,0-7.7,3.5-7.7,7.7V112c0,4.3,3.4,7.7,7.7,7.7h96.8c4.2,0,7.7-3.5,7.7-7.7V77.3z"/>
			<path fill="#1A206D" d="M191.4,112c0,4.3-3.4,7.7-7.7,7.7h-34.6c-4.3,0-7.7-3.5-7.7-7.7V77.4c0-4.3,3.5-7.7,7.7-7.7h34.6
				c4.2,0,7.7,3.5,7.7,7.7L191.4,112L191.4,112z"/>
			<path fill="#1A206D" d="M67,174.3c0,4.3-3.5,7.7-7.7,7.7H24.7c-4.3,0-7.7-3.5-7.7-7.7v-34.6c0-4.3,3.4-7.7,7.7-7.7h34.6
				c4.2,0,7.7,3.5,7.7,7.7V174.3z"/>
		</g>
		<g>
			<g>
				<path fill="#0076C2" d="M237,66.3h16.6l30.5,44.5c4.2,6.4,7.1,10.7,9.9,15.3h0.3c2.4-4.5,5.5-9.7,9.5-16.1l28.1-43.8h16.7v113.7
					h-18.1v-67.1c0-5,0-11.4,0.2-16.4h-0.2c-1.9,3.8-5.9,9.8-7.9,13.1l-24.3,38.1h-8.6l-26.7-39c-2.4-3.5-5.5-7.8-7.8-12.1h-0.3
					c0.3,4.8,0.3,11.4,0.3,15.9v67.5H237V66.3z"/>
				<path fill="#0076C2" d="M387.5,143.6c0.4,14,9.5,23.8,24.3,23.8c8.1,0,14.7-2.3,20.5-5.5l5.4,12.3c-7.9,5.2-18.1,7.6-27.8,7.6
					c-28.5,0-40.7-20.2-40.7-42.8c0-24.7,13.6-42.6,35.7-42.6c22.3,0,35,16.6,35,43v4.3h-52.4V143.6z M421.7,130.9
					c-0.3-10.4-5.3-20.5-16.9-20.5c-10.9,0-17.3,9.5-17.4,20.5H421.7z"/>
				<path fill="#0076C2" d="M452.4,140c0-25.9,18.8-43.7,44-43.7c3.6,0,8.3,0.3,11.9,1.2V57.9h18V176c-7.3,3.8-18.5,5.9-28.7,5.9
					C472.1,181.8,452.4,167.3,452.4,140z M508.3,165v-52.3c-3.4-0.9-6.2-1.4-10.9-1.4c-15,0-26.6,10.4-26.6,28.3
					c0,16.9,10.7,27.1,26.7,27.1C500.9,166.8,505.4,166.3,508.3,165z"/>
				<path fill="#0076C2" d="M546.3,72.4c0-6.2,4.7-11,11.2-11c6.6,0,11.2,4.7,11.2,11c0,6.2-4.8,11.1-11.2,11.1
					C550.9,83.4,546.3,78.6,546.3,72.4z M548.5,98.4h17.9V180h-17.9V98.4z"/>
				<path fill="#0076C2" d="M583.9,139.8c0-24.9,17.8-43.5,42.3-43.5c9.7,0,16.9,2.6,21.6,5.4V117c-5.7-3.8-11.9-6-19.9-6
					c-15.9,0-25.5,12.1-25.5,28.3c0,17.8,9.7,27.8,24.5,27.8c7.9,0,13.6-2.4,19.3-5.5l5.2,12.4c-6.2,4.3-16.2,7.8-26.9,7.8
					C598.4,181.8,583.9,163.3,583.9,139.8z"/>
				<path fill="#0076C2" d="M662.6,72.4c0-6.2,4.7-11,11.2-11c6.6,0,11.2,4.7,11.2,11c0,6.2-4.8,11.1-11.2,11.1
					C667.3,83.4,662.6,78.6,662.6,72.4z M664.9,98.4h17.9V180h-17.9V98.4z"/>
				<path fill="#0076C2" d="M718.7,143.6c0.3,14,9.5,23.8,24.3,23.8c8.1,0,14.7-2.3,20.5-5.5l5.3,12.3c-7.9,5.2-18.1,7.6-27.8,7.6
					c-28.5,0-40.7-20.2-40.7-42.8c0-24.7,13.6-42.6,35.7-42.6c22.3,0,35,16.6,35,43v4.3h-52.3V143.6z M752.8,130.9
					c-0.3-10.4-5.3-20.5-16.9-20.5c-10.9,0-17.3,9.5-17.4,20.5H752.8z"/>
				<path fill="#0076C2" d="M787.5,98.4h15.2l1.9,9.7c8.6-7.1,17.9-11.7,28.1-11.7c12.9,0,25.5,6.9,25.5,29.3v54.4h-17.9v-48.7
					c0-10.7-2.4-19.3-13.3-19.3c-7.6,0-15,4.3-21.6,9.8v58.2h-17.9V98.4z"/>
			</g>
		</g>
	</g>
	<g>
		<g>
			<path fill="#1A206D" d="M237.9,211h8.4c11.4,0,17.1,6.6,17.1,15.7c0,9.3-5.9,16.1-17.3,16.1H238L237.9,211L237.9,211z M246,239.2
				c9.5,0,12.8-5.7,12.8-12.5c0-7.1-4.1-12-12.9-12h-3.7v24.5H246z"/>
			<path fill="#1A206D" d="M272.1,232.3c0,4.3,2.7,7.5,7.2,7.5c2.2,0,4.1-0.7,5.7-1.5l1.3,2.9c-2.1,1.4-4.9,2.1-7.5,2.1
				c-7.6,0-11.1-5.6-11.1-12.1c0-7,3.8-11.8,9.7-11.8c6,0,9.4,4.6,9.4,11.9v1.1L272.1,232.3L272.1,232.3z M282.5,229.2
				c0-3.2-1.6-6.4-5-6.4c-3.3,0-5.3,2.9-5.3,6.4H282.5z"/>
			<path fill="#1A206D" d="M290.6,231.7c0-7.4,5.3-12.3,12-12.3c1.2,0,2.5,0.1,3.6,0.4v-11.2h4.3v33.1c-1.8,1-4.7,1.6-7.6,1.6
				C296.1,243.3,290.6,239.3,290.6,231.7z M306.2,239.2v-15.6c-1.1-0.3-1.9-0.5-3.3-0.5c-4.4,0-7.9,3.1-7.9,8.6c0,5,3,8.1,8,8.1
				C304,239.7,305.4,239.5,306.2,239.2z"/>
			<path fill="#1A206D" d="M316.5,212.5c0-1.5,1.1-2.7,2.7-2.7s2.8,1.2,2.8,2.7s-1.2,2.7-2.8,2.7
				C317.6,215.3,316.5,214.1,316.5,212.5z M317.1,220h4.2v22.8h-4.2V220z"/>
			<path fill="#1A206D" d="M326.6,231.6c0-6.8,4.6-12.2,11.6-12.2c2.5,0,4.5,0.7,5.8,1.4v3.7c-1.5-1-3.3-1.7-5.5-1.7
				c-4.7,0-7.5,3.6-7.5,8.5c0,5.4,2.9,8.4,7.3,8.4c2.3,0,4-0.8,5.5-1.6l1.3,3c-1.7,1.2-4.4,2.1-7.3,2.1
				C330.5,243.3,326.6,238.1,326.6,231.6z"/>
			<path fill="#1A206D" d="M361.6,240.4c-1.7,1.7-4,3-6.8,3c-4.2,0-7.3-2.8-7.3-7.1c0-3,1.5-5.1,3.8-6.2c1.6-0.8,3.4-1.1,5.8-1.2
				l4.2-0.1v-1.2c0-3.2-2-4.6-4.7-4.6c-2.6,0-4.6,0.8-6.2,1.8l-1.5-2.9c2.7-1.6,5.6-2.3,8.3-2.3c5.2,0,8.5,2.5,8.5,8v8.3
				c0,3.9,0.1,6,0.4,7.1h-3.7L361.6,240.4z M357.6,231.9c-1.8,0-3,0.3-4,0.8c-1.2,0.7-1.8,1.8-1.8,3.2c0,2.4,1.5,3.9,4,3.9
				c2.6,0,4.5-1.6,5.5-2.6v-5.5L357.6,231.9z"/>
			<path fill="#1A206D" d="M370.3,231.7c0-7.4,5.3-12.3,12-12.3c1.2,0,2.5,0.1,3.6,0.4v-11.2h4.3v33.1c-1.8,1-4.7,1.6-7.6,1.6
				C375.7,243.3,370.3,239.3,370.3,231.7z M385.9,239.2v-15.6c-1.1-0.3-1.9-0.5-3.3-0.5c-4.4,0-7.9,3.1-7.9,8.6c0,5,3,8.1,8,8.1
				C383.7,239.7,385.1,239.5,385.9,239.2z"/>
			<path fill="#1A206D" d="M395.3,231.4c0-6.8,4.3-12,10.9-12c6.5,0,10.8,5.2,10.8,12c0,6.7-4.3,11.9-10.9,11.9
				C399.6,243.3,395.3,238.1,395.3,231.4z M412.6,231.4c0-4.9-2.4-8.5-6.4-8.5c-4.1,0-6.5,3.5-6.5,8.5c0,4.9,2.4,8.4,6.4,8.4
				C410.1,239.8,412.6,236.3,412.6,231.4z"/>
			<path fill="#1A206D" d="M421.3,238.1c1.4,0.9,3.4,1.7,5.9,1.7c2.6,0,4.6-0.9,4.6-3.3c0-4.7-10.7-3.1-10.7-10.7
				c0-3.6,2.9-6.5,8-6.5c2.3,0,4.3,0.5,6,1.1v3.7c-1.7-0.7-3.5-1.3-5.8-1.3c-2.1,0-4,0.6-4,2.8c0,4.6,10.7,3,10.7,10.8
				c0,4.7-4,6.8-8.7,6.8c-3.2,0-5.8-1-7.4-2L421.3,238.1z"/>
			<path fill="#1A206D" d="M464.4,240.4c-1.7,1.7-4,3-6.8,3c-4.2,0-7.3-2.8-7.3-7.1c0-3,1.5-5.1,3.9-6.2c1.6-0.8,3.4-1.1,5.7-1.2
				l4.3-0.1v-1.2c0-3.2-2-4.6-4.7-4.6c-2.6,0-4.6,0.8-6.2,1.8l-1.5-2.9c2.6-1.6,5.6-2.3,8.3-2.3c5.2,0,8.5,2.5,8.5,8v8.3
				c0,3.9,0.1,6,0.4,7.1h-3.7L464.4,240.4z M460.4,231.9c-1.8,0-3.1,0.3-4,0.8c-1.2,0.7-1.8,1.8-1.8,3.2c0,2.4,1.5,3.9,4,3.9
				c2.7,0,4.5-1.6,5.6-2.6v-5.5L460.4,231.9z"/>
			<path fill="#0076C2" d="M499.5,242c-0.7,0.3-1.5,0.6-2.2,0.8s-1.4,0.3-2.1,0.4c-0.7,0.1-1.3,0.1-1.9,0.1c-2.2,0-3.7-0.5-4.6-1.6
				s-1.3-2.4-1.3-3.9v-13h-4.2V220h4.2v-5.3l6.6-2v7.3h7.1l-1.9,4.8H494v10.6c0,1.7,0.7,2.5,2.2,2.5c0.7,0,1.4-0.1,2.1-0.4
				c0.6-0.3,1.2-0.5,1.7-0.8l1.7,4C500.9,241.3,500.3,241.7,499.5,242z"/>
			<path fill="#0076C2" d="M520.3,242.8l-1-2.2c-0.8,0.7-1.7,1.3-2.9,1.9c-1.1,0.5-2.5,0.8-4,0.8c-0.7,0-1.6-0.1-2.5-0.4
				c-0.9-0.2-1.8-0.7-2.6-1.4c-0.8-0.6-1.5-1.6-2.1-2.8c-0.5-1.2-0.8-2.8-0.8-4.7v-14h6.5v13.8c0,1.3,0.3,2.3,1,3.2
				c0.7,0.8,1.7,1.2,3.1,1.2c0.8,0,1.4-0.2,2.1-0.5c0.6-0.3,1.2-0.7,1.8-1V220h6.6v17.6c0,1.2,0,2.2,0,3.1c0,0.9,0.2,1.6,0.3,2.2
				h-5.5V242.8z"/>
			<path fill="#0076C2" d="M558.1,239.4c-0.5,0.9-1.2,1.7-2.1,2.2c-0.9,0.6-1.9,1-3,1.3s-2.3,0.4-3.5,0.4c-2,0-3.8-0.2-5.3-0.7
				c-1.5-0.4-2.8-1-3.8-1.6l2.1-4.7c0.9,0.7,2,1.2,3,1.6c1.1,0.4,2.2,0.6,3.3,0.6s2-0.2,2.6-0.5c0.6-0.4,0.9-0.9,0.9-1.5
				s-0.3-1.1-0.8-1.4c-0.5-0.4-1.2-0.7-1.9-1c-0.8-0.3-1.6-0.6-2.5-1c-0.9-0.3-1.8-0.8-2.6-1.3s-1.4-1.2-2-2
				c-0.5-0.8-0.8-1.9-0.8-3.2c0-2.1,0.8-3.8,2.4-5.1c1.6-1.3,3.8-1.9,6.6-1.9c1.6,0,2.9,0.1,4,0.3s2.1,0.5,3,0.8v5.4
				c-1-0.4-2.1-0.8-3.2-1.1c-1.1-0.3-2.3-0.5-3.5-0.5c-1.9,0-2.9,0.5-2.9,1.6c0,0.5,0.3,0.9,0.8,1.3c0.5,0.3,1.2,0.6,2,0.9
				c0.8,0.3,1.7,0.6,2.6,1c0.9,0.3,1.8,0.8,2.6,1.4c0.8,0.6,1.5,1.3,2,2.1c0.5,0.9,0.8,2,0.8,3.3
				C558.9,237.4,558.6,238.5,558.1,239.4z"/>
			<path fill="#0076C2" d="M577.1,242.8l-1-2c-0.7,0.7-1.6,1.3-2.7,1.8c-1.1,0.5-2.3,0.7-3.8,0.7c-1.1,0-2.1-0.2-3-0.5
				c-0.9-0.4-1.7-0.9-2.4-1.5s-1.2-1.4-1.6-2.3c-0.4-0.9-0.6-1.9-0.6-3.1c0-2.4,0.9-4.3,2.7-5.5c1.8-1.3,4.1-1.9,7-2l3.9-0.2v-0.4
				c0-1.2-0.4-2.1-1.3-2.6c-0.9-0.5-1.8-0.8-2.9-0.8c-1.2,0-2.2,0.1-3.2,0.4c-1,0.3-1.9,0.7-2.6,1.1l-2-4c1.6-1,3.1-1.7,4.6-2
				s3-0.5,4.6-0.5c3.1,0,5.4,0.7,7,2s2.4,3.5,2.4,6.5v9.7c0,1.1,0,2.1,0.1,3c0,0.9,0.2,1.6,0.3,2.2L577.1,242.8L577.1,242.8z
				 M575.5,232.5l-2.8,0.1c-2.7,0.1-4.1,1-4.1,2.8c0,0.9,0.3,1.6,0.9,2.1c0.6,0.5,1.5,0.8,2.6,0.8c0.9,0,1.6-0.1,2.2-0.3
				c0.6-0.2,1-0.5,1.4-0.7v-4.8H575.5z"/>
			<path fill="#0076C2" d="M595.4,243.1c-0.8,0.2-1.6,0.2-2.3,0.2c-1,0-1.9-0.1-2.6-0.4c-0.7-0.3-1.3-0.7-1.7-1.1
				c-0.5-0.5-0.8-1.1-1-1.7c-0.2-0.6-0.3-1.3-0.3-2.1v-29.4h6.6v26.5c0,0.8,0.1,1.4,0.3,1.7c0.2,0.4,0.6,0.6,1.1,0.6
				c0.2,0,0.5,0,0.8,0s0.6-0.1,1.1-0.2l0.8,4.9C597.1,242.6,596.2,242.9,595.4,243.1z"/>
			<path fill="#0076C2" d="M617.1,242.8l-1-2.2c-0.8,0.7-1.7,1.3-2.9,1.9c-1.2,0.5-2.5,0.8-4,0.8c-0.7,0-1.6-0.1-2.5-0.4
				c-0.9-0.2-1.8-0.7-2.6-1.4c-0.8-0.6-1.5-1.6-2-2.8c-0.6-1.2-0.8-2.8-0.8-4.7v-14h6.5v13.8c0,1.3,0.3,2.3,0.9,3.2
				c0.7,0.8,1.7,1.2,3.1,1.2c0.8,0,1.4-0.2,2.1-0.5c0.6-0.3,1.2-0.7,1.7-1V220h6.6v17.6c0,1.2,0,2.2,0,3.1c0,0.9,0.2,1.6,0.4,2.2
				h-5.5V242.8z"/>
			<path fill="#0076C2" d="M644.6,242.8c-1.5,0.3-3.3,0.5-5.4,0.5c-1.8,0-3.4-0.3-4.9-0.8s-2.9-1.3-4-2.2c-1.2-1-2.1-2.2-2.7-3.7
				c-0.7-1.5-1-3.2-1-5.1c0-1.8,0.3-3.4,0.9-4.9c0.6-1.5,1.5-2.8,2.7-3.8c1.2-1.1,2.5-1.9,4.1-2.5s3.3-0.9,5.2-0.9
				c0.9,0,1.8,0,2.6,0.1v-11h6.6v32.8C647.4,242,646.1,242.5,644.6,242.8z M642.1,224.8c-0.3-0.1-0.7-0.1-1.1-0.2
				c-0.4,0-0.8-0.1-1.4-0.1c-2,0-3.6,0.6-4.8,1.7c-1.2,1.1-1.8,2.8-1.8,4.9c0,1,0.2,1.9,0.5,2.7s0.8,1.5,1.3,2.1
				c0.6,0.6,1.3,1.1,2.1,1.4c0.8,0.3,1.7,0.5,2.7,0.5c0.9,0,1.7-0.1,2.4-0.2L642.1,224.8L642.1,224.8z"/>
		</g>
	</g>
</g>
</svg>
