<svg width="83" height="83" viewBox="0 0 83 83" fill="none" xmlns="http://www.w3.org/2000/svg">
<path d="M41.5 0C18.6141 0 0 14.8957 0 33.2C0 51.5043 18.6141 66.4 41.5 66.4C43.9347 66.4 46.4136 66.2229 48.8704 65.8467L74.7 82.2475V53.1421C80.0563 47.4317 83 40.3491 83 33.2C83 14.8957 64.3859 0 41.5 0ZM68.6355 47.4539L66.4 49.8443V67.1304L50.7296 57.1704L47.6752 57.6131C26.8035 60.6675 8.3 48.4499 8.3 33.2C8.3 19.4773 23.1957 8.3 41.5 8.3C59.8043 8.3 74.7 19.4773 74.7 33.2C74.7 38.2243 72.5531 43.2928 68.6355 47.4539Z" fill="#0077CB"/>
<path d="M41.5 0C18.6141 0 0 14.8957 0 33.2C0 51.5043 18.6141 66.4 41.5 66.4C43.9347 66.4 46.4136 66.2229 48.8704 65.8467L74.7 82.2475V53.1421C80.0563 47.4317 83 40.3491 83 33.2C83 14.8957 64.3859 0 41.5 0ZM68.6355 47.4539L66.4 49.8443V67.1304L50.7296 57.1704L47.6752 57.6131C26.8035 60.6675 8.3 48.4499 8.3 33.2C8.3 19.4773 23.1957 8.3 41.5 8.3C59.8043 8.3 74.7 19.4773 74.7 33.2C74.7 38.2243 72.5531 43.2928 68.6355 47.4539Z" fill="url(#paint0_linear)"/>
<path d="M45.6625 20.7389H37.3625V29.0389H29.0625V37.3389H37.3625V45.6389H45.6625V37.3389H53.9625V29.0389H45.6625V20.7389Z" fill="#0077CB"/>
<path d="M45.6625 20.7389H37.3625V29.0389H29.0625V37.3389H37.3625V45.6389H45.6625V37.3389H53.9625V29.0389H45.6625V20.7389Z" fill="url(#paint1_linear)"/>
<defs>
<linearGradient id="paint0_linear" x1="41.5" y1="0" x2="41.5" y2="82.2475" gradientUnits="userSpaceOnUse">
<stop stop-color="#78C3F9"/>
<stop offset="1" stop-color="white" stop-opacity="0"/>
</linearGradient>
<linearGradient id="paint1_linear" x1="41.5125" y1="20.7389" x2="41.5125" y2="45.6389" gradientUnits="userSpaceOnUse">
<stop stop-color="#78C3F9"/>
<stop offset="1" stop-color="white" stop-opacity="0"/>
</linearGradient>
</defs>
</svg>
