<svg width="79" height="79" viewBox="0 0 79 79" fill="none" xmlns="http://www.w3.org/2000/svg">
<path d="M78.4335 21.6565L66.5934 1.91707C65.8771 0.737333 64.5919 0 63.2014 0H15.7986C14.4081 0 13.1229 0.737333 12.4066 1.91707L0.566458 21.6565C-0.17092 22.8784 -0.191987 24.3952 0.524323 25.6381C0.587527 25.7435 0.671798 25.8277 0.735002 25.912L0.713934 25.9331L36.2555 77.2936C36.9929 78.368 38.2149 79 39.5 79C40.8062 79 42.0071 78.368 42.7445 77.2936L78.2861 25.9331L78.265 25.912C78.3282 25.8067 78.4125 25.7435 78.4757 25.6381C79.192 24.4163 79.1709 22.8784 78.4335 21.6565ZM18.0318 7.9H60.9472L68.0471 19.7395H10.9319L18.0318 7.9ZM39.5 68.1085L11.4796 27.6395H67.5204L39.5 68.1085Z" fill="#0077CB"/>
<path d="M78.4335 21.6565L66.5934 1.91707C65.8771 0.737333 64.5919 0 63.2014 0H15.7986C14.4081 0 13.1229 0.737333 12.4066 1.91707L0.566458 21.6565C-0.17092 22.8784 -0.191987 24.3952 0.524323 25.6381C0.587527 25.7435 0.671798 25.8277 0.735002 25.912L0.713934 25.9331L36.2555 77.2936C36.9929 78.368 38.2149 79 39.5 79C40.8062 79 42.0071 78.368 42.7445 77.2936L78.2861 25.9331L78.265 25.912C78.3282 25.8067 78.4125 25.7435 78.4757 25.6381C79.192 24.4163 79.1709 22.8784 78.4335 21.6565ZM18.0318 7.9H60.9472L68.0471 19.7395H10.9319L18.0318 7.9ZM39.5 68.1085L11.4796 27.6395H67.5204L39.5 68.1085Z" fill="url(#paint0_linear)"/>
<defs>
<linearGradient id="paint0_linear" x1="39.5" y1="0" x2="39.5" y2="79" gradientUnits="userSpaceOnUse">
<stop stop-color="#78C3F9"/>
<stop offset="1" stop-color="white" stop-opacity="0"/>
</linearGradient>
</defs>
</svg>
