<svg width="392" height="368" viewBox="0 0 392 368" fill="none" xmlns="http://www.w3.org/2000/svg">
<path d="M379.75 49.0667H330.75L324.625 38.3333C321.563 30.6667 311.609 24.5333 303.188 24.5333H249.594L228.922 3.83333C226.625 2.3 222.797 0 220.5 0C213.609 0 208.25 6.13333 208.25 12.2667V147.2H122.5H121.734C110.25 147.2 91.875 153.333 81.9219 159.467H61.25C40.5781 159.467 24.5 143.367 24.5 122.667C24.5 116.533 18.375 110.4 12.25 110.4C5.35938 110.4 0 116.533 0 122.667C0 155.633 26.0313 183.233 58.9531 184C53.5938 193.967 49 210.067 49 220.8V343.467C49 357.267 59.7188 368 73.5 368H122.5C135.516 368 147 357.267 147 343.467V269.867H220.5V343.467C220.5 357.267 231.219 368 245 368H294C307.016 368 318.5 357.267 318.5 343.467V159.467H343C369.797 159.467 392 138 392 110.4V61.3333C392 55.2 385.875 49.0667 379.75 49.0667ZM294 343.467H245V245.333H122.5V343.467H73.5V220.8C73.5 193.967 94.9375 172.5 122.5 171.733H212.844L294 192.433V343.467ZM367.5 110.4C367.5 124.2 356.016 134.933 343 134.933H294V167.133L232.75 151.8V42.1667L239.641 49.0667H303.188L315.438 73.6H367.5V110.4ZM294 73.6C294 67.4667 287.875 61.3333 281.75 61.3333C274.859 61.3333 269.5 67.4667 269.5 73.6C269.5 80.5 274.859 85.8667 281.75 85.8667C287.875 85.8667 294 80.5 294 73.6Z" fill="#0077CB"/>
<path d="M379.75 49.0667H330.75L324.625 38.3333C321.563 30.6667 311.609 24.5333 303.188 24.5333H249.594L228.922 3.83333C226.625 2.3 222.797 0 220.5 0C213.609 0 208.25 6.13333 208.25 12.2667V147.2H122.5H121.734C110.25 147.2 91.875 153.333 81.9219 159.467H61.25C40.5781 159.467 24.5 143.367 24.5 122.667C24.5 116.533 18.375 110.4 12.25 110.4C5.35938 110.4 0 116.533 0 122.667C0 155.633 26.0313 183.233 58.9531 184C53.5938 193.967 49 210.067 49 220.8V343.467C49 357.267 59.7188 368 73.5 368H122.5C135.516 368 147 357.267 147 343.467V269.867H220.5V343.467C220.5 357.267 231.219 368 245 368H294C307.016 368 318.5 357.267 318.5 343.467V159.467H343C369.797 159.467 392 138 392 110.4V61.3333C392 55.2 385.875 49.0667 379.75 49.0667ZM294 343.467H245V245.333H122.5V343.467H73.5V220.8C73.5 193.967 94.9375 172.5 122.5 171.733H212.844L294 192.433V343.467ZM367.5 110.4C367.5 124.2 356.016 134.933 343 134.933H294V167.133L232.75 151.8V42.1667L239.641 49.0667H303.188L315.438 73.6H367.5V110.4ZM294 73.6C294 67.4667 287.875 61.3333 281.75 61.3333C274.859 61.3333 269.5 67.4667 269.5 73.6C269.5 80.5 274.859 85.8667 281.75 85.8667C287.875 85.8667 294 80.5 294 73.6Z" fill="url(#paint0_linear)"/>
<defs>
<linearGradient id="paint0_linear" x1="196" y1="0" x2="196" y2="368" gradientUnits="userSpaceOnUse">
<stop stop-color="#78C3F9"/>
<stop offset="1" stop-color="white" stop-opacity="0"/>
</linearGradient>
</defs>
</svg>
