<?xml version="1.0" encoding="utf-8"?>
<!-- Generator: Adobe Illustrator 26.3.1, SVG Export Plug-In . SVG Version: 6.00 Build 0)  -->
<svg version="1.1" id="Capa_1" xmlns="http://www.w3.org/2000/svg" xmlns:xlink="http://www.w3.org/1999/xlink" x="0px" y="0px"
	 viewBox="0 0 360 360" style="enable-background:new 0 0 360 360;" xml:space="preserve">
<style type="text/css">
	.st0{fill:#059DB5;}
	
		.st1{clip-path:url(#SVGID_00000175286966048150973220000001467375114200252032_);fill:url(#SVGID_00000018210518617370875960000001100144290297885060_);}
</style>
<g>
	<g>
		<path class="st0" d="M102.62,322.71h4.56l9.62,22.61h-5.16l-2.05-5.04h-9.49l-2.05,5.04H93L102.62,322.71z M107.82,335.93
			l-2.98-7.28l-2.98,7.28H107.82z"/>
		<path class="st0" d="M120.27,322.87h8.76c7.06,0,11.93,4.84,11.93,11.16v0.06c0,6.32-4.87,11.23-11.93,11.23h-8.76V322.87z
			 M129.02,340.87c4.04,0,6.77-2.73,6.77-6.7v-0.06c0-3.98-2.73-6.77-6.77-6.77h-3.82v13.54H129.02z"/>
		<path class="st0" d="M145.36,322.87h5.32l5.9,9.49l5.9-9.49h5.33v22.45h-4.91v-14.66l-6.32,9.59h-0.13l-6.25-9.49v14.56h-4.84
			V322.87z"/>
		<path class="st0" d="M173.43,322.87h4.94v22.45h-4.94V322.87z"/>
		<path class="st0" d="M182.45,342.05l2.92-3.5c2.02,1.67,4.14,2.73,6.7,2.73c2.02,0,3.24-0.8,3.24-2.12v-0.06
			c0-1.25-0.77-1.89-4.52-2.85c-4.52-1.16-7.44-2.41-7.44-6.86v-0.06c0-4.07,3.27-6.77,7.86-6.77c3.27,0,6.06,1.03,8.34,2.86
			l-2.57,3.72c-1.99-1.38-3.95-2.21-5.84-2.21c-1.89,0-2.89,0.87-2.89,1.96v0.06c0,1.48,0.96,1.96,4.84,2.95
			c4.55,1.19,7.12,2.82,7.12,6.73v0.06c0,4.46-3.4,6.96-8.24,6.96C188.57,345.65,185.14,344.46,182.45,342.05z"/>
		<path class="st0" d="M204.75,322.87h4.94v22.45h-4.94V322.87z"/>
		<path class="st0" d="M214.31,334.16v-0.06c0-6.38,5.04-11.61,11.96-11.61c6.93,0,11.9,5.16,11.9,11.55v0.06
			c0,6.38-5.04,11.61-11.96,11.61C219.28,345.71,214.31,340.55,214.31,334.16z M233.01,334.16v-0.06c0-3.85-2.82-7.06-6.8-7.06
			s-6.74,3.14-6.74,6.99v0.06c0,3.85,2.82,7.06,6.8,7.06S233.01,338.01,233.01,334.16z M228.13,315.75l4.2,1.83l-4.36,3.21h-3.72
			L228.13,315.75z"/>
		<path class="st0" d="M242.57,322.87h4.56l10.52,13.83v-13.83h4.88v22.45h-4.2l-10.87-14.27v14.27h-4.88V322.87z"/>
	</g>
	<g>
		<defs>
			<path id="SVGID_1_" d="M176.21,285.82c-4.52-4.53-7.01-10.56-7.01-16.96c0-6.4,2.49-12.41,7.01-16.93
				c4.54-4.53,10.56-7.02,16.94-7.02c6.41,0,12.43,2.49,16.95,7.02c4.52,4.51,7.02,10.53,7.03,16.93
				c-0.01,6.41-2.51,12.44-7.03,16.97l0,0c-4.51,4.52-10.53,7.01-16.95,7.01C186.76,292.83,180.74,290.34,176.21,285.82
				 M141.74,65.98c-4.53-4.54-7.02-10.56-7.02-16.95c0-6.38,2.5-12.4,7.02-16.95c4.54-4.52,10.57-7.02,16.95-7.02
				c6.39,0,12.41,2.49,16.94,7.01c4.53,4.54,7.03,10.56,7.03,16.95c-0.01,6.4-2.51,12.43-7.03,16.95
				c-4.52,4.52-10.54,7.01-16.94,7.01C152.29,72.99,146.27,70.5,141.74,65.98 M158.66,14.29c-9.29,0-18,3.61-24.54,10.17
				c-6.48,6.48-10.09,15.07-10.18,24.22h-1.1c-6.25,0-12.37,2.16-17.22,6.07c-4.67,3.77-8.03,9.05-9.44,14.88
				c-0.54,1.74-0.81,3.56-0.81,5.41v46.34c0,4.27,1.5,8.41,4.21,11.66l22.57,27.18c0.92,1.12,2.22,1.81,3.66,1.94
				c1.44,0.13,2.84-0.3,3.94-1.22c1.11-0.92,1.79-2.21,1.92-3.65c0.13-1.44-0.3-2.84-1.26-3.99l-22.53-27.14
				c-1.12-1.36-1.72-3.02-1.72-4.87l-0.02-46.26c0-0.79,0.11-1.52,0.37-2.35l0.07-0.3c0.84-3.61,2.9-6.89,5.81-9.24
				c3-2.41,6.61-3.68,10.45-3.68h2.7c1.69,5.33,4.63,10.18,8.58,14.11c6.54,6.58,15.27,10.2,24.57,10.2
				c9.3,0,18.03-3.62,24.58-10.19c3.96-3.96,6.9-8.82,8.57-14.11h6.21c3.84,0,7.45,1.27,10.44,3.68c2.91,2.34,4.97,5.62,5.82,9.28
				l0.1,0.37c0.23,0.71,0.34,1.44,0.34,2.23v46.34c0,1.76-0.6,3.42-1.72,4.78l-22.56,27.18c-0.76,0.9-1.64,1.58-2.66,2.02
				c-0.96,0.45-2.04,0.69-3.11,0.69c-1.75,0-3.41-0.6-4.77-1.72c-0.86-0.72-1.54-1.61-2.02-2.66c-0.45-0.95-0.68-2.03-0.68-3.13
				c0-1.76,0.6-3.41,1.72-4.77l19.59-23.6c0.82-0.96,1.28-2.19,1.28-3.47V98.26c0-2.98-2.43-5.4-5.41-5.4
				c-2.97,0-5.39,2.42-5.39,5.4v0.94c-0.49,0.1-0.97,0.28-1.43,0.52c-2.04,1.1-4.02,2-6.08,2.75c-5.73,2.13-12.09,3.21-18.88,3.21
				c-8.57,0-16.17-1.69-21.15-3.14l-0.14-0.04c-0.12-0.04-0.25-0.07-0.27-0.07c-2.04-0.6-4.02-1.26-5.84-1.95
				c-0.76-0.3-1.32-0.54-1.72-0.71l-0.48-0.22c-2.69-1.23-5.9-0.06-7.16,2.63c-0.61,1.3-0.67,2.77-0.17,4.13
				c0.5,1.36,1.49,2.44,2.87,3.07c0.99,0.45,4.65,2.01,10.04,3.56c13.75,3.93,27.22,4.63,39.53,1.77c3.81-0.9,7.45-2.14,10.86-3.68
				v3.74l-18.36,22.12c-2.72,3.27-4.21,7.41-4.21,11.66c0,0.84,0.06,1.68,0.18,2.52c-2.46,0.07-4.83,0.63-7.08,1.65
				c-2.5,1.17-4.66,2.82-6.42,4.93l-22.57,27.2c-2.72,3.26-4.21,7.39-4.21,11.73v46.28c0,1.86,0.27,3.68,0.81,5.39
				c1.41,5.82,4.76,11.1,9.44,14.88c4.86,3.91,10.98,6.07,17.22,6.07h4.61c0.09,9.17,3.7,17.76,10.18,24.22
				c6.56,6.57,15.29,10.19,24.56,10.19c9.28,0,18.01-3.62,24.58-10.19c6.48-6.47,10.09-15.06,10.18-24.23h1.11
				c6.25,0,12.36-2.15,17.21-6.07c4.68-3.78,8.04-9.09,9.46-14.94l0.13-0.31v-0.15c0.45-1.63,0.67-3.27,0.67-4.87l-0.01-46.36
				c0-4.26-1.49-8.39-4.2-11.64l-22.58-27.2c-1.88-2.29-5.29-2.62-7.62-0.71c-1.12,0.94-1.8,2.26-1.92,3.7
				c-0.11,1.34,0.28,2.64,1.09,3.7l22.72,27.4c1.12,1.35,1.72,2.99,1.73,4.87v46.25c0,0.75-0.11,1.51-0.37,2.34l-0.07,0.29
				c-0.85,3.63-2.91,6.91-5.79,9.25c-3.01,2.41-6.63,3.68-10.46,3.68h-2.71c-1.66-5.3-4.61-10.16-8.58-14.15
				c-6.57-6.57-15.3-10.18-24.58-10.18c-9.27,0-17.99,3.62-24.56,10.18c-3.97,3.98-6.91,8.84-8.58,14.14h-6.22
				c-3.83,0-7.45-1.27-10.45-3.68c-2.91-2.35-4.97-5.63-5.83-9.37l-0.08-0.28c-0.22-0.71-0.33-1.46-0.33-2.23v-46.35
				c0.01-1.78,0.6-3.42,1.72-4.77l22.57-27.2c0.71-0.85,1.61-1.54,2.62-2.02c0.99-0.44,2.08-0.68,3.13-0.68
				c1.78,0.01,3.43,0.6,4.78,1.71c0.88,0.74,1.56,1.62,2.03,2.64c0.45,0.98,0.68,2.04,0.68,3.14c0,1.76-0.6,3.41-1.72,4.77
				l-19.64,23.64c-0.78,0.98-1.2,2.2-1.2,3.43v18.46c0,2.97,2.41,5.39,5.38,5.39c2.97,0,5.4-2.42,5.4-5.39v-3.52
				c0.85,0.52,1.81,0.79,2.77,0.79c0.88,0,1.76-0.22,2.57-0.66c1.94-1.06,3.97-1.98,6.06-2.75c5.76-2.13,12.12-3.21,18.9-3.21
				c8.46,0,16.11,1.69,21.02,3.1l0.53,0.15c2.57,0.76,4.59,1.49,5.85,1.96c0.75,0.29,1.31,0.53,1.71,0.71
				c0.13,0.05,0.23,0.09,0.3,0.13l0.22,0.1c2.7,1.21,5.89,0.03,7.12-2.64c0.61-1.31,0.67-2.78,0.17-4.14
				c-0.49-1.35-1.49-2.43-2.71-2.99c-0.48-0.25-4.39-1.97-10.2-3.64c-14.7-4.21-29.37-4.66-41.98-1.14l0,0
				c-4.42,1.24-8.39,2.85-12.14,4.91c-0.06,0.03-0.11,0.08-0.17,0.11v-3.78L181.23,181c2.71-3.27,4.2-7.41,4.2-11.66
				c0-0.83-0.06-1.67-0.18-2.51c2.45-0.08,4.88-0.64,7.08-1.65c2.52-1.16,4.68-2.83,6.43-4.94l22.56-27.19
				c2.7-3.23,4.19-7.31,4.22-11.52l0.01-46.48c0-1.89-0.28-3.73-0.82-5.48l-0.03-0.08c-1.45-5.77-4.79-11-9.42-14.73
				c-4.85-3.91-10.97-6.07-17.21-6.07h-4.61c-0.09-9.15-3.69-17.74-10.17-24.22c-6.55-6.56-15.27-10.17-24.54-10.17
				C158.71,14.29,158.68,14.29,158.66,14.29"/>
		</defs>
		<clipPath id="SVGID_00000175304567573627369850000013044927449141068981_">
			<use xlink:href="#SVGID_1_"  style="overflow:visible;"/>
		</clipPath>
		
			<linearGradient id="SVGID_00000069365302247469789760000003593852311718477499_" gradientUnits="userSpaceOnUse" x1="0.7805" y1="360.5315" x2="2.1923" y2="360.5315" gradientTransform="matrix(114.1396 0 0 -114.1396 6.2729 41309.8945)">
			<stop  offset="0" style="stop-color:#0186AB"/>
			<stop  offset="1" style="stop-color:#4EBECE"/>
		</linearGradient>
		
			<rect x="95.36" y="14.29" style="clip-path:url(#SVGID_00000175304567573627369850000013044927449141068981_);fill:url(#SVGID_00000069365302247469789760000003593852311718477499_);" width="161.14" height="289.34"/>
	</g>
</g>
</svg>
