<?xml version="1.0" encoding="utf-8"?>
<!-- Generator: Adobe Illustrator 26.3.1, SVG Export Plug-In . SVG Version: 6.00 Build 0)  -->
<svg version="1.1" id="Capa_1" xmlns="http://www.w3.org/2000/svg" xmlns:xlink="http://www.w3.org/1999/xlink" x="0px" y="0px"
	 viewBox="0 0 187.7 210.9" style="enable-background:new 0 0 187.7 210.9;" xml:space="preserve">
<style type="text/css">
	.st0{enable-background:new    ;}
	.st1{fill:#059DB5;}
	
		.st2{clip-path:url(#SVGID_00000012448083787045705910000006442106080483891115_);fill:url(#SVGID_00000021110851653301834030000014794478505470210470_);}
	
		.st3{clip-path:url(#SVGID_00000018216449840956743040000010760710993525579668_);fill:url(#SVGID_00000005228079200678847130000015406983623060688822_);}
	
		.st4{clip-path:url(#SVGID_00000057834180053501273470000011784570277455315128_);fill:url(#SVGID_00000029752721958395814730000011584134232743899008_);}
	
		.st5{clip-path:url(#SVGID_00000178194291897621829840000017641899295218822026_);fill:url(#SVGID_00000141454670846424358510000000320166463071319976_);}
	
		.st6{clip-path:url(#SVGID_00000106119909495838379590000016803918848755600317_);fill:url(#SVGID_00000134958880213209652010000012189884677495437739_);}
	
		.st7{clip-path:url(#SVGID_00000064313050958705330480000011386568998368059033_);fill:url(#SVGID_00000070803635480202174080000002753636877082377650_);}
	
		.st8{clip-path:url(#SVGID_00000041255235269525272270000010181508174570703025_);fill:url(#SVGID_00000040573603017355786720000000061376683987086241_);}
	
		.st9{clip-path:url(#SVGID_00000171682601538607451760000015104409429586200490_);fill:url(#SVGID_00000073697562530030192630000013917439920764478111_);}
	
		.st10{clip-path:url(#SVGID_00000062873772229791751110000011915252201205007269_);fill:url(#SVGID_00000047031959043867403550000004943226417495045044_);}
	
		.st11{clip-path:url(#SVGID_00000175300402815718457010000017252211614913093544_);fill:url(#SVGID_00000174600810858757399710000014822653427418233791_);}
</style>
<g class="st0">
	<path class="st1" d="M11.95,184.3h3.2l6.8,16h-3.7l-1.5-3.6h-6.5l-1.5,3.6h-3.6L11.95,184.3z M15.65,193.7l-2.1-5.2l-2.1,5.2H15.65
		z"/>
	<path class="st1" d="M22.75,192.4L22.75,192.4c0-4.6,3.5-8.3,8.3-8.3c2.9,0,4.6,0.8,6.2,2.2l-2.2,2.7c-1.2-1-2.3-1.6-4.2-1.6
		c-2.5,0-4.6,2.2-4.6,5l0,0c0,2.9,2,5,4.8,5c1.3,0,2.4-0.3,3.3-1v-2.3h-3.3v-3h6.9v6.9c-1.6,1.4-3.9,2.5-6.8,2.5
		C26.15,200.6,22.75,197.2,22.75,192.4z"/>
	<path class="st1" d="M41.25,184.4h12v3.1h-8.5v3.2h7.5v3.1h-7.5v3.3h8.6v3.1h-12.1V184.4z"/>
	<path class="st1" d="M56.55,184.4h3.2l7.5,9.8v-9.8h3.5v15.9h-3l-7.7-10.1v10.1h-3.5C56.55,200.3,56.55,184.4,56.55,184.4z"/>
	<path class="st1" d="M74.45,184.4h6.2c5,0,8.5,3.4,8.5,7.9l0,0c0,4.5-3.5,8-8.5,8h-6.2V184.4z M80.65,197.2c2.9,0,4.8-1.9,4.8-4.7
		l0,0c0-2.8-1.9-4.8-4.8-4.8h-2.7v9.6h2.7V197.2z"/>
	<path class="st1" d="M96.55,184.3h3.2l6.8,16h-3.7l-1.5-3.6h-6.7l-1.5,3.6h-3.6L96.55,184.3z M100.25,193.7l-2.1-5.2l-2.1,5.2
		H100.25z"/>
	<path class="st1" d="M115.65,193.5v-9.1h3.5v9c0,2.6,1.3,3.9,3.4,3.9s3.4-1.3,3.4-3.8v-9.1h3.5v9c0,4.8-2.7,7.2-7,7.2
		S115.65,198.2,115.65,193.5z"/>
	<path class="st1" d="M133.05,184.4h3.2l7.5,9.8v-9.8h3.5v15.9h-3l-7.7-10.1v10.1h-3.5V184.4z"/>
	<path class="st1" d="M156.45,184.3h3.2l6.8,16h-3.7l-1.5-3.6h-6.7l-1.5,3.6h-3.6L156.45,184.3z M160.15,193.7l-2.1-5.2l-2.1,5.2
		H160.15z"/>
	<path class="st1" d="M168.95,184.4h7.4c1.8,0,3.2,0.5,4.2,1.4c0.7,0.7,1.1,1.6,1.1,2.7l0,0c0,1.8-1,2.8-2.1,3.4
		c1.8,0.7,3,1.8,3,3.9l0,0c0,2.9-2.4,4.4-6,4.4h-7.6L168.95,184.4L168.95,184.4z M175.65,190.9c1.5,0,2.5-0.5,2.5-1.7l0,0
		c0-1-0.8-1.6-2.3-1.6h-3.5v3.4h3.3V190.9z M176.55,197.3c1.5,0,2.5-0.5,2.5-1.7l0,0c0-1.1-0.8-1.7-2.6-1.7h-4v3.5h4.1V197.3z"/>
</g>
<g>
	<g>
		<g>
			<g>
				<defs>
					<path id="SVGID_1_" d="M27.7,59.4h132.4v72.2H27.7V59.4z M140.5,31.6v-2.3h19.6v19.6H27.7V29.3h19.6v2.3
						c0,7.1,5.7,12.8,12.8,12.8c7.1,0,12.8-5.7,12.8-12.8v-2.3H115v2.3c0,7.1,5.7,12.8,12.8,12.8C134.8,44.4,140.5,38.7,140.5,31.6
						 M57.8,31.6v-15c0-1.2,1-2.3,2.3-2.3s2.3,1,2.3,2.3v15c0,1.3-1,2.3-2.3,2.3S57.8,32.8,57.8,31.6 M125.4,31.6v-15
						c0-1.2,1-2.3,2.3-2.3c1.2,0,2.3,1,2.3,2.3v15c0,1.3-1,2.3-2.3,2.3C126.5,33.9,125.4,32.8,125.4,31.6 M114.9,16.6v2.3H72.8v-2.3
						c0-7-5.7-12.8-12.8-12.8S47.2,9.5,47.2,16.6v2.3H22.4c-2.9,0-5.3,2.4-5.3,5.3V137c0,2.9,2.4,5.3,5.3,5.3h142.9
						c2.9,0,5.3-2.4,5.3-5.3V24.1c0-2.9-2.4-5.3-5.3-5.3h-24.8v-2.3c0-7-5.7-12.8-12.8-12.8C120.7,3.8,114.9,9.5,114.9,16.6"/>
				</defs>
				<clipPath id="SVGID_00000178889230035213521390000003666097142304624530_">
					<use xlink:href="#SVGID_1_"  style="overflow:visible;"/>
				</clipPath>
				
					<linearGradient id="SVGID_00000050623847104193590680000005020035635679324084_" gradientUnits="userSpaceOnUse" x1="-2707.5474" y1="251.031" x2="-2706.5476" y2="251.031" gradientTransform="matrix(153.418 0 0 -153.418 415403.6875 38585.6758)">
					<stop  offset="0" style="stop-color:#0186AB"/>
					<stop  offset="1" style="stop-color:#4EBECE"/>
				</linearGradient>
				
					<rect x="17.2" y="3.8" style="clip-path:url(#SVGID_00000178889230035213521390000003666097142304624530_);fill:url(#SVGID_00000050623847104193590680000005020035635679324084_);" width="153.4" height="138.4"/>
			</g>
		</g>
	</g>
	<g>
		<g>
			<g>
				<defs>
					<path id="SVGID_00000004544804723925352890000000173124902465830799_" d="M82.6,71.5c-2.9,0-5.3,2.4-5.3,5.3s2.4,5.3,5.3,5.3
						h22.6c2.9,0,5.3-2.4,5.3-5.3s-2.4-5.3-5.3-5.3H82.6z"/>
				</defs>
				<clipPath id="SVGID_00000179645631182529099160000014194355727011825054_">
					<use xlink:href="#SVGID_00000004544804723925352890000000173124902465830799_"  style="overflow:visible;"/>
				</clipPath>
				
					<linearGradient id="SVGID_00000127723167195913725910000007116112699888837807_" gradientUnits="userSpaceOnUse" x1="-2645.0999" y1="121.7723" x2="-2644.0994" y2="121.7723" gradientTransform="matrix(33.084 0 0 -33.084 87587.7812 4105.4644)">
					<stop  offset="0" style="stop-color:#0186AB"/>
					<stop  offset="1" style="stop-color:#4EBECE"/>
				</linearGradient>
				
					<rect x="77.3" y="71.5" style="clip-path:url(#SVGID_00000179645631182529099160000014194355727011825054_);fill:url(#SVGID_00000127723167195913725910000007116112699888837807_);" width="33.1" height="10.5"/>
			</g>
		</g>
	</g>
	<g>
		<g>
			<g>
				<defs>
					<path id="SVGID_00000119824188732652188420000003817043583694917251_" d="M127.7,71.5c-2.9,0-5.3,2.4-5.3,5.3s2.4,5.3,5.3,5.3
						h15c2.9,0,5.3-2.4,5.3-5.3s-2.4-5.3-5.3-5.3H127.7z"/>
				</defs>
				<clipPath id="SVGID_00000099620323038783147700000005348268877641794950_">
					<use xlink:href="#SVGID_00000119824188732652188420000003817043583694917251_"  style="overflow:visible;"/>
				</clipPath>
				
					<linearGradient id="SVGID_00000176009199871596229890000003380399581158308994_" gradientUnits="userSpaceOnUse" x1="-2621.6763" y1="73.291" x2="-2620.6763" y2="73.291" gradientTransform="matrix(25.5635 0 0 -25.5635 67141.6719 1950.3234)">
					<stop  offset="0" style="stop-color:#0186AB"/>
					<stop  offset="1" style="stop-color:#4EBECE"/>
				</linearGradient>
				
					<rect x="122.4" y="71.5" style="clip-path:url(#SVGID_00000099620323038783147700000005348268877641794950_);fill:url(#SVGID_00000176009199871596229890000003380399581158308994_);" width="25.6" height="10.5"/>
			</g>
		</g>
	</g>
	<g>
		<g>
			<g>
				<defs>
					<path id="SVGID_00000125598907384329880520000011772915096190139832_" d="M45,71.5c-2.9,0-5.3,2.4-5.3,5.3S42.1,82,45,82h15
						c2.9,0,5.3-2.4,5.3-5.3s-2.4-5.3-5.3-5.3H45V71.5z"/>
				</defs>
				<clipPath id="SVGID_00000166677277117757576000000007156681050737521077_">
					<use xlink:href="#SVGID_00000125598907384329880520000011772915096190139832_"  style="overflow:visible;"/>
				</clipPath>
				
					<linearGradient id="SVGID_00000002380748941184333230000014106141797151540660_" gradientUnits="userSpaceOnUse" x1="-2621.6731" y1="73.2828" x2="-2620.6733" y2="73.2828" gradientTransform="matrix(25.5625 0 0 -25.5625 67056.2188 1950.0409)">
					<stop  offset="0" style="stop-color:#0186AB"/>
					<stop  offset="1" style="stop-color:#4EBECE"/>
				</linearGradient>
				
					<rect x="39.7" y="71.5" style="clip-path:url(#SVGID_00000166677277117757576000000007156681050737521077_);fill:url(#SVGID_00000002380748941184333230000014106141797151540660_);" width="25.6" height="10.5"/>
			</g>
		</g>
	</g>
	<g>
		<g>
			<g>
				<defs>
					<path id="SVGID_00000132791119526542096100000016716526468986681512_" d="M82.6,90.3c-2.9,0-5.3,2.4-5.3,5.3s2.4,5.3,5.3,5.3
						h22.6c2.9,0,5.3-2.4,5.3-5.3s-2.4-5.3-5.3-5.3H82.6z"/>
				</defs>
				<clipPath id="SVGID_00000065790716122459867560000005242424389026632623_">
					<use xlink:href="#SVGID_00000132791119526542096100000016716526468986681512_"  style="overflow:visible;"/>
				</clipPath>
				
					<linearGradient id="SVGID_00000152234915174312673410000009340013171828646059_" gradientUnits="userSpaceOnUse" x1="-2645.0999" y1="121.7724" x2="-2644.0994" y2="121.7724" gradientTransform="matrix(33.084 0 0 -33.084 87587.7812 4124.269)">
					<stop  offset="0" style="stop-color:#0186AB"/>
					<stop  offset="1" style="stop-color:#4EBECE"/>
				</linearGradient>
				
					<rect x="77.3" y="90.3" style="clip-path:url(#SVGID_00000065790716122459867560000005242424389026632623_);fill:url(#SVGID_00000152234915174312673410000009340013171828646059_);" width="33.1" height="10.5"/>
			</g>
		</g>
	</g>
	<g>
		<g>
			<g>
				<defs>
					<path id="SVGID_00000072247035591358197600000011323310332544036489_" d="M127.7,90.3c-2.9,0-5.3,2.4-5.3,5.3s2.4,5.3,5.3,5.3
						h15c2.9,0,5.3-2.4,5.3-5.3s-2.4-5.3-5.3-5.3H127.7z"/>
				</defs>
				<clipPath id="SVGID_00000038398107620457679570000002039689504996450713_">
					<use xlink:href="#SVGID_00000072247035591358197600000011323310332544036489_"  style="overflow:visible;"/>
				</clipPath>
				
					<linearGradient id="SVGID_00000041286569131882198830000015014317400710204045_" gradientUnits="userSpaceOnUse" x1="-2621.6763" y1="73.2911" x2="-2620.6763" y2="73.2911" gradientTransform="matrix(25.5635 0 0 -25.5635 67141.6719 1969.1281)">
					<stop  offset="0" style="stop-color:#0186AB"/>
					<stop  offset="1" style="stop-color:#4EBECE"/>
				</linearGradient>
				
					<rect x="122.4" y="90.3" style="clip-path:url(#SVGID_00000038398107620457679570000002039689504996450713_);fill:url(#SVGID_00000041286569131882198830000015014317400710204045_);" width="25.6" height="10.5"/>
			</g>
		</g>
	</g>
	<g>
		<g>
			<g>
				<defs>
					<path id="SVGID_00000006694799873514131750000006742920889408293780_" d="M45,90.3c-2.9,0-5.3,2.4-5.3,5.3s2.4,5.3,5.3,5.3h15
						c2.9,0,5.3-2.4,5.3-5.3s-2.4-5.3-5.3-5.3H45z"/>
				</defs>
				<clipPath id="SVGID_00000154393357879857414840000009080515715175430843_">
					<use xlink:href="#SVGID_00000006694799873514131750000006742920889408293780_"  style="overflow:visible;"/>
				</clipPath>
				
					<linearGradient id="SVGID_00000106858713215055541140000005177157897928986291_" gradientUnits="userSpaceOnUse" x1="-2621.6731" y1="73.283" x2="-2620.6733" y2="73.283" gradientTransform="matrix(25.5625 0 0 -25.5625 67056.2188 1968.8456)">
					<stop  offset="0" style="stop-color:#0186AB"/>
					<stop  offset="1" style="stop-color:#4EBECE"/>
				</linearGradient>
				
					<rect x="39.7" y="90.3" style="clip-path:url(#SVGID_00000154393357879857414840000009080515715175430843_);fill:url(#SVGID_00000106858713215055541140000005177157897928986291_);" width="25.6" height="10.5"/>
			</g>
		</g>
	</g>
	<g>
		<g>
			<g>
				<defs>
					<path id="SVGID_00000100376750581402674220000009134955373280831886_" d="M82.6,109.1c-2.9,0-5.3,2.4-5.3,5.3s2.4,5.3,5.3,5.3
						h22.6c2.9,0,5.3-2.4,5.3-5.3s-2.4-5.3-5.3-5.3H82.6z"/>
				</defs>
				<clipPath id="SVGID_00000103974288152465776160000013312388130318417082_">
					<use xlink:href="#SVGID_00000100376750581402674220000009134955373280831886_"  style="overflow:visible;"/>
				</clipPath>
				
					<linearGradient id="SVGID_00000090260718795156984000000013382348023225063070_" gradientUnits="userSpaceOnUse" x1="-2645.0999" y1="121.7723" x2="-2644.0994" y2="121.7723" gradientTransform="matrix(33.084 0 0 -33.084 87587.7812 4143.0659)">
					<stop  offset="0" style="stop-color:#0186AB"/>
					<stop  offset="1" style="stop-color:#4EBECE"/>
				</linearGradient>
				
					<rect x="77.3" y="109.1" style="clip-path:url(#SVGID_00000103974288152465776160000013312388130318417082_);fill:url(#SVGID_00000090260718795156984000000013382348023225063070_);" width="33.1" height="10.5"/>
			</g>
		</g>
	</g>
	<g>
		<g>
			<g>
				<defs>
					<path id="SVGID_00000054945994579873641900000007133625792595931778_" d="M127.7,109.1c-2.9,0-5.3,2.4-5.3,5.3s2.4,5.3,5.3,5.3
						h15c2.9,0,5.3-2.4,5.3-5.3s-2.4-5.3-5.3-5.3H127.7z"/>
				</defs>
				<clipPath id="SVGID_00000003103538916741942080000011480335264105543812_">
					<use xlink:href="#SVGID_00000054945994579873641900000007133625792595931778_"  style="overflow:visible;"/>
				</clipPath>
				
					<linearGradient id="SVGID_00000108298754717829834640000018130739394228050819_" gradientUnits="userSpaceOnUse" x1="-2621.6763" y1="73.291" x2="-2620.6763" y2="73.291" gradientTransform="matrix(25.5635 0 0 -25.5635 67141.6719 1987.9249)">
					<stop  offset="0" style="stop-color:#0186AB"/>
					<stop  offset="1" style="stop-color:#4EBECE"/>
				</linearGradient>
				
					<rect x="122.4" y="109.1" style="clip-path:url(#SVGID_00000003103538916741942080000011480335264105543812_);fill:url(#SVGID_00000108298754717829834640000018130739394228050819_);" width="25.6" height="10.5"/>
			</g>
		</g>
	</g>
	<g>
		<g>
			<g>
				<defs>
					<path id="SVGID_00000056413881930319568120000016039890451537347737_" d="M45,109.1c-2.9,0-5.3,2.4-5.3,5.3s2.4,5.3,5.3,5.3h15
						c2.9,0,5.3-2.4,5.3-5.3s-2.4-5.3-5.3-5.3H45z"/>
				</defs>
				<clipPath id="SVGID_00000020363219499025094470000012284893409687857803_">
					<use xlink:href="#SVGID_00000056413881930319568120000016039890451537347737_"  style="overflow:visible;"/>
				</clipPath>
				
					<linearGradient id="SVGID_00000010303388306380621030000011815933660579051649_" gradientUnits="userSpaceOnUse" x1="-2621.6731" y1="73.2831" x2="-2620.6733" y2="73.2831" gradientTransform="matrix(25.5625 0 0 -25.5625 67056.2188 1987.6503)">
					<stop  offset="0" style="stop-color:#0186AB"/>
					<stop  offset="1" style="stop-color:#4EBECE"/>
				</linearGradient>
				
					<rect x="39.7" y="109.1" style="clip-path:url(#SVGID_00000020363219499025094470000012284893409687857803_);fill:url(#SVGID_00000010303388306380621030000011815933660579051649_);" width="25.6" height="10.5"/>
			</g>
		</g>
	</g>
</g>
</svg>
