<?xml version="1.0" encoding="utf-8"?>
<!-- Generator: Adobe Illustrator 26.3.1, SVG Export Plug-In . SVG Version: 6.00 Build 0)  -->
<svg version="1.1" id="Capa_1" xmlns="http://www.w3.org/2000/svg" xmlns:xlink="http://www.w3.org/1999/xlink" x="0px" y="0px"
	 viewBox="0 0 196.7 241.9" style="enable-background:new 0 0 196.7 241.9;" xml:space="preserve">
<style type="text/css">
	.st0{enable-background:new    ;}
	.st1{fill:#059DB5;}
	
		.st2{clip-path:url(#SVGID_00000044891470567724113130000011643748076632485787_);fill:url(#SVGID_00000031888630182843042340000012103728244597889189_);}
	
		.st3{clip-path:url(#SVGID_00000157306870827297797040000014370796806744812692_);fill:url(#SVGID_00000049910473362235199930000008571366018009311677_);}
	
		.st4{clip-path:url(#SVGID_00000025424626367713004910000014755446750284256922_);fill:url(#SVGID_00000106110285046529228310000016109984768372009404_);}
	
		.st5{clip-path:url(#SVGID_00000078046761048384853320000001317628065299141301_);fill:url(#SVGID_00000029023124455618804860000004154639576724650139_);}
	
		.st6{clip-path:url(#SVGID_00000034785056521117239060000013009912263885354935_);fill:url(#SVGID_00000001621357479565293520000002237736015020042942_);}
	
		.st7{clip-path:url(#SVGID_00000049210591645094972050000007747309524286950812_);fill:url(#SVGID_00000055705520550018287200000015799982928048907708_);}
	
		.st8{clip-path:url(#SVGID_00000170968942775049297000000010825302453213815216_);fill:url(#SVGID_00000018199085111473049220000013678802633321637276_);}
	
		.st9{clip-path:url(#SVGID_00000162342025868248959640000008757364839619850166_);fill:url(#SVGID_00000057140774997108571630000011902956023724154517_);}
	
		.st10{clip-path:url(#SVGID_00000137836339610099567620000016022933400647576765_);fill:url(#SVGID_00000136375831505744074670000002968641085465959552_);}
	
		.st11{clip-path:url(#SVGID_00000023277586854126590590000012206420455338112427_);fill:url(#SVGID_00000153675203217770733200000011788206935407635104_);}
	
		.st12{clip-path:url(#SVGID_00000025423929668126346180000001859138107078479518_);fill:url(#SVGID_00000141455777410021574180000008028107002993976743_);}
	
		.st13{clip-path:url(#SVGID_00000126325743955209365700000006090168037596391580_);fill:url(#SVGID_00000103979518924686325870000018366100344112870845_);}
	
		.st14{clip-path:url(#SVGID_00000057857191883091889450000013654797122705729978_);fill:url(#SVGID_00000123424231516361411700000002384113736203357618_);}
</style>
<g class="st0">
	<path class="st1" d="M26.9,214.3h7.4c1.8,0,3.2,0.5,4.2,1.4c0.7,0.7,1.1,1.6,1.1,2.7l0,0c0,1.8-1,2.8-2.1,3.4c1.8,0.7,3,1.8,3,3.9
		l0,0c0,2.9-2.4,4.4-6,4.4h-7.6C26.9,230.1,26.9,214.3,26.9,214.3z M33.5,220.7c1.5,0,2.5-0.5,2.5-1.7l0,0c0-1-0.8-1.6-2.3-1.6h-3.5
		v3.4h3.3V220.7z M34.4,227.1c1.5,0,2.5-0.5,2.5-1.7l0,0c0-1.1-0.8-1.7-2.6-1.7h-4v3.5h4.1V227.1z"/>
	<path class="st1" d="M43.4,214.3h3.5v15.9h-3.5V214.3z"/>
	<path class="st1" d="M50.9,214.3h7.4c1.8,0,3.2,0.5,4.2,1.4c0.7,0.7,1.1,1.6,1.1,2.7l0,0c0,1.8-1,2.8-2.1,3.4c1.8,0.7,3,1.8,3,3.9
		l0,0c0,2.9-2.4,4.4-6,4.4h-7.6V214.3z M57.5,220.7c1.5,0,2.5-0.5,2.5-1.7l0,0c0-1-0.8-1.6-2.3-1.6h-3.5v3.4h3.3V220.7z M58.5,227.1
		c1.5,0,2.5-0.5,2.5-1.7l0,0c0-1.1-0.8-1.7-2.6-1.7h-4v3.5h4.1V227.1z"/>
	<path class="st1" d="M67.3,214.3h3.5V227h7.9v3.2H67.3V214.3z"/>
	<path class="st1" d="M81.5,214.3H85v15.9h-3.5V214.3z"/>
	<path class="st1" d="M88.3,222.3L88.3,222.3c0-4.6,3.6-8.3,8.5-8.3c4.9,0,8.4,3.7,8.4,8.2l0,0c0,4.5-3.6,8.2-8.5,8.2
		C91.8,230.5,88.3,226.8,88.3,222.3z M101.6,222.3L101.6,222.3c0-2.8-2-5-4.8-5s-4.8,2.2-4.8,5l0,0c0,2.7,2,5,4.8,5
		S101.6,225,101.6,222.3z"/>
	<path class="st1" d="M111.4,217.5h-4.9v-3.2h13.2v3.2h-4.8v12.7h-3.5C111.4,230.2,111.4,217.5,111.4,217.5z"/>
	<path class="st1" d="M122.4,214.3h12v3.1h-8.5v3.2h7.5v3.1h-7.5v3.3h8.6v3.1h-12.1V214.3z"/>
	<path class="st1" d="M136.9,222.3L136.9,222.3c0-4.6,3.4-8.3,8.3-8.3c3,0,4.8,1,6.3,2.5l-2.2,2.6c-1.2-1.1-2.5-1.8-4.1-1.8
		c-2.7,0-4.6,2.2-4.6,5l0,0c0,2.7,1.9,5,4.6,5c1.8,0,2.9-0.7,4.2-1.9l2.2,2.2c-1.6,1.8-3.5,2.8-6.5,2.8
		C140.4,230.5,136.9,226.9,136.9,222.3z"/>
	<path class="st1" d="M159.8,214.2h3.2l6.8,16h-3.7l-1.5-3.6h-6.7l-1.5,3.6h-3.6L159.8,214.2z M163.5,223.5l-2.1-5.2l-2.1,5.2H163.5
		z"/>
</g>
<g>
	<g>
		<g>
			<defs>
				<path id="SVGID_1_" d="M71.2,42.7c-1.7,0-3,1.3-3,3s1.3,3,3,3H77c1.7,0,3-1.3,3-3s-1.3-3-3-3H71.2z"/>
			</defs>
			<clipPath id="SVGID_00000170972431773826327890000013080129412064123321_">
				<use xlink:href="#SVGID_1_"  style="overflow:visible;"/>
			</clipPath>
			
				<linearGradient id="SVGID_00000166644076492913667260000014670063519035020699_" gradientUnits="userSpaceOnUse" x1="-2495.2708" y1="-156.3756" x2="-2494.2712" y2="-156.3756" gradientTransform="matrix(11.8545 0 0 -11.8545 29648.3477 -1808.0552)">
				<stop  offset="0" style="stop-color:#0186AB"/>
				<stop  offset="1" style="stop-color:#4EBECE"/>
			</linearGradient>
			
				<rect x="68.2" y="42.7" style="clip-path:url(#SVGID_00000170972431773826327890000013080129412064123321_);fill:url(#SVGID_00000166644076492913667260000014670063519035020699_);" width="11.8" height="6"/>
		</g>
	</g>
</g>
<g>
	<g>
		<g>
			<defs>
				<path id="SVGID_00000057841753877949796690000014400972547624044459_" d="M86.8,42.7c-1.7,0-3,1.3-3,3s1.3,3,3,3h44.1
					c1.7,0,3.1-1.3,3.1-3s-1.4-3-3.1-3H86.8z"/>
			</defs>
			<clipPath id="SVGID_00000118381356506797495460000015814442043520964027_">
				<use xlink:href="#SVGID_00000057841753877949796690000014400972547624044459_"  style="overflow:visible;"/>
			</clipPath>
			
				<linearGradient id="SVGID_00000116225048240835628370000004281107381072463254_" gradientUnits="userSpaceOnUse" x1="-2665.8918" y1="193.7998" x2="-2664.8921" y2="193.7998" gradientTransform="matrix(50.2012 0 0 -50.2012 133914.7656 9774.6807)">
				<stop  offset="0" style="stop-color:#0186AB"/>
				<stop  offset="1" style="stop-color:#4EBECE"/>
			</linearGradient>
			
				<rect x="83.8" y="42.7" style="clip-path:url(#SVGID_00000118381356506797495460000015814442043520964027_);fill:url(#SVGID_00000116225048240835628370000004281107381072463254_);" width="50.2" height="6"/>
		</g>
	</g>
</g>
<g>
	<g>
		<g>
			<defs>
				<path id="SVGID_00000118391225340751580040000005702193207770424755_" d="M42.6,151.5H170v28H42.6V151.5z M31.3,190.8
					c-2.1-2.2-3.3-5-3.3-7.9v-34.7c0-3,1.2-5.8,3.2-7.9c2.1-2.1,4.8-3.3,7.8-3.3h143.4c1.1,0,2.2,0.5,3,1.3s1.2,1.9,1.2,3
					s-0.4,2.1-1.2,3c-0.8,0.8-1.9,1.2-3,1.2h-143c-1.7,0-3,1.3-3,3v34.1c0,1.7,1.3,3,3,3h142.9c1.1,0,2.2,0.4,3,1.2s1.2,1.9,1.2,3
					s-0.4,2.2-1.2,3s-1.9,1.2-3,1.2h-143C36.3,194,33.5,192.9,31.3,190.8 M24.5,88.4h110.8v28H24.5V88.4z M13.3,127.7
					c-2.1-2.2-3.3-5-3.3-7.9V85.1c0-3,1.2-5.8,3.2-7.9c2.1-2.1,5-3.3,7.9-3.3h122.7c1.2,0.1,2.2,0.5,2.9,1.3
					c0.8,0.8,1.2,1.8,1.2,2.9s-0.4,2.2-1.2,3s-1.8,1.3-3,1.3H21.5c-1.7,0-3,1.3-3,3v34c0,1.7,1.3,3.1,3,3.1h122.4
					c1.2,0,2.2,0.4,3,1.2c0.8,0.8,1.2,1.9,1.2,3s-0.4,2.1-1.2,3c-0.8,0.8-1.8,1.2-3,1.2H21.2C18.2,131,15.4,129.8,13.3,127.7
					 M58.4,25.4h110.8v28H58.4V25.4z M47.2,64.6c-2.1-2.1-3.3-4.9-3.3-7.9V22.1c0-3,1.2-5.8,3.3-7.9c2.1-2.1,4.9-3.2,7.9-3.2h122.7
					c1.1,0,2.2,0.4,3,1.2c0.8,0.9,1.2,1.9,1.2,3s-0.4,2.2-1.2,3c-0.7,0.8-1.8,1.2-3,1.2H55.4c-1.7,0-3,1.4-3,3.1v34.1
					c0,1.7,1.3,3,3,3h122.4c1.1,0,2.2,0.5,3,1.3s1.2,1.9,1.2,3s-0.4,2.2-1.2,3c-0.8,0.8-1.9,1.2-3,1.2H54.9
					C52,67.9,49.2,66.7,47.2,64.6 M55.1,4.9c-4.6,0-9,1.8-12.2,5s-5,7.5-5,12.2v34.7c0,4.1,1.5,8.1,4.1,11.2H21.2
					c-4.6,0-9,1.8-12.2,5s-5,7.6-5,12.2v34.7c0,4.7,1.8,9,5,12.2c3.1,3.2,7.6,5,12.2,5h5c-2.6,3.1-4.1,7.1-4.1,11.2V183
					c0,4.6,1.8,8.9,5,12.2c3.2,3.2,7.6,5,12.2,5h143.2c2.7,0,5.3-1.1,7.2-3s3-4.5,3-7.3s-1.1-5.3-3-7.3c-1.9-1.9-4.5-3-7.2-3h-6.4
					v-28h6.4c2.8,0,5.3-1.1,7.2-3s3-4.4,3-7.2s-1.1-5.3-3-7.3c-1.9-1.9-4.4-3-7.2-3h-29.3c0.6-1.3,0.9-2.8,0.9-4.2
					c0-2.7-1.1-5.3-3-7.3c-2-1.9-4.6-3-7.3-3h-2.5V88.4h2.5c2.8,0,5.3-1.1,7.3-3s3-4.5,3-7.3c0-1.4-0.3-2.8-0.9-4.2h24.5
					c2.8,0,5.3-1.1,7.3-3c1.9-1.9,3-4.5,3-7.2c0-2.8-1.1-5.3-3-7.3c-1.9-1.9-4.5-3-7.3-3h-2.5v-28h2.5c2.8,0,5.3-1.1,7.3-3
					c1.9-2,3-4.6,3-7.3s-1.1-5.3-3-7.2s-4.5-3-7.3-3C177.7,4.9,55.1,4.9,55.1,4.9z"/>
			</defs>
			<clipPath id="SVGID_00000003792330596848980990000011443064809164045455_">
				<use xlink:href="#SVGID_00000118391225340751580040000005702193207770424755_"  style="overflow:visible;"/>
			</clipPath>
			
				<linearGradient id="SVGID_00000176740387019230144580000007662380986702856367_" gradientUnits="userSpaceOnUse" x1="-2704.6089" y1="273.26" x2="-2703.6091" y2="273.26" gradientTransform="matrix(188.7402 0 0 -188.7402 510472.4375 51677.6562)">
				<stop  offset="0" style="stop-color:#0186AB"/>
				<stop  offset="1" style="stop-color:#4EBECE"/>
			</linearGradient>
			
				<rect x="4" y="4.9" style="clip-path:url(#SVGID_00000003792330596848980990000011443064809164045455_);fill:url(#SVGID_00000176740387019230144580000007662380986702856367_);" width="188.7" height="195.2"/>
		</g>
	</g>
</g>
<g>
	<g>
		<g>
			<defs>
				<path id="SVGID_00000134939714074208857550000010579230369669564566_" d="M60.1,168.8c-1.7,0-3,1.4-3,3.1c0,1.7,1.3,3,3,3h5.8
					c1.7,0,3-1.4,3-3c0-1.7-1.3-3.1-3-3.1H60.1z"/>
			</defs>
			<clipPath id="SVGID_00000068648890658810191440000017682043997543585451_">
				<use xlink:href="#SVGID_00000134939714074208857550000010579230369669564566_"  style="overflow:visible;"/>
			</clipPath>
			
				<linearGradient id="SVGID_00000141446282652208250470000001964438221420185508_" gradientUnits="userSpaceOnUse" x1="-2495.2705" y1="-156.3794" x2="-2494.271" y2="-156.3794" gradientTransform="matrix(11.8545 0 0 -11.8545 29637.2539 -1681.9497)">
				<stop  offset="0" style="stop-color:#0186AB"/>
				<stop  offset="1" style="stop-color:#4EBECE"/>
			</linearGradient>
			
				<rect x="57.1" y="168.8" style="clip-path:url(#SVGID_00000068648890658810191440000017682043997543585451_);fill:url(#SVGID_00000141446282652208250470000001964438221420185508_);" width="11.8" height="6.1"/>
		</g>
	</g>
</g>
<g>
	<g>
		<g>
			<defs>
				<path id="SVGID_00000117639865435102164130000012114863690699133059_" d="M152.2,30.8c-1.7,0-3,1.4-3,3s1.4,3,3,3h5.8
					c1.7,0,3.1-1.3,3.1-3s-1.4-3-3.1-3H152.2z"/>
			</defs>
			<clipPath id="SVGID_00000003792077508267914310000017278528602126482829_">
				<use xlink:href="#SVGID_00000117639865435102164130000012114863690699133059_"  style="overflow:visible;"/>
			</clipPath>
			
				<linearGradient id="SVGID_00000108288268749279067830000006783841371600729993_" gradientUnits="userSpaceOnUse" x1="-2495.2712" y1="-156.3778" x2="-2494.2717" y2="-156.3778" gradientTransform="matrix(11.8545 0 0 -11.8545 29729.3945 -1819.981)">
				<stop  offset="0" style="stop-color:#0186AB"/>
				<stop  offset="1" style="stop-color:#4EBECE"/>
			</linearGradient>
			
				<rect x="149.2" y="30.8" style="clip-path:url(#SVGID_00000003792077508267914310000017278528602126482829_);fill:url(#SVGID_00000108288268749279067830000006783841371600729993_);" width="11.9" height="6"/>
		</g>
	</g>
</g>
<g>
	<g>
		<g>
			<defs>
				<path id="SVGID_00000167358096576297537120000011874801485999715261_" d="M98.2,30.8c-1.7,0-3,1.4-3,3s1.3,3,3,3h44.2
					c1.7,0,3-1.3,3-3s-1.4-3-3-3H98.2z"/>
			</defs>
			<clipPath id="SVGID_00000129166442063078291800000004374620373835803542_">
				<use xlink:href="#SVGID_00000167358096576297537120000011874801485999715261_"  style="overflow:visible;"/>
			</clipPath>
			
				<linearGradient id="SVGID_00000039844293246338030100000011951802741495773579_" gradientUnits="userSpaceOnUse" x1="-2665.8931" y1="193.7993" x2="-2664.8931" y2="193.7993" gradientTransform="matrix(50.2012 0 0 -50.2012 133926.2188 9762.7588)">
				<stop  offset="0" style="stop-color:#0186AB"/>
				<stop  offset="1" style="stop-color:#4EBECE"/>
			</linearGradient>
			
				<rect x="95.2" y="30.8" style="clip-path:url(#SVGID_00000129166442063078291800000004374620373835803542_);fill:url(#SVGID_00000039844293246338030100000011951802741495773579_);" width="50.2" height="6"/>
		</g>
	</g>
</g>
<g>
	<g>
		<g>
			<defs>
				<path id="SVGID_00000096050178976486678330000009617223852549056165_" d="M37.3,105.8c-1.7,0-3,1.3-3,3s1.3,3.1,3,3.1h5.8
					c1.7,0,3-1.4,3-3.1s-1.3-3-3-3H37.3z"/>
			</defs>
			<clipPath id="SVGID_00000093886569119635218830000003811080097995793798_">
				<use xlink:href="#SVGID_00000096050178976486678330000009617223852549056165_"  style="overflow:visible;"/>
			</clipPath>
			
				<linearGradient id="SVGID_00000151535575305879612800000006255966192478675360_" gradientUnits="userSpaceOnUse" x1="-2495.251" y1="-156.4204" x2="-2494.2512" y2="-156.4204" gradientTransform="matrix(11.8535 0 0 -11.8535 29611.7578 -1745.2794)">
				<stop  offset="0" style="stop-color:#0186AB"/>
				<stop  offset="1" style="stop-color:#4EBECE"/>
			</linearGradient>
			
				<rect x="34.3" y="105.8" style="clip-path:url(#SVGID_00000093886569119635218830000003811080097995793798_);fill:url(#SVGID_00000151535575305879612800000006255966192478675360_);" width="11.8" height="6.1"/>
		</g>
	</g>
</g>
<g>
	<g>
		<g>
			<defs>
				<path id="SVGID_00000057867067720999145100000001766611650016458128_" d="M158.5,156.9c-1.7,0-3,1.4-3,3c0,1.7,1.4,3.1,3,3.1
					h5.9c1.7,0,3-1.4,3-3.1c0-1.7-1.4-3-3-3H158.5z"/>
			</defs>
			<clipPath id="SVGID_00000049914361800101108770000005948869130987139982_">
				<use xlink:href="#SVGID_00000057867067720999145100000001766611650016458128_"  style="overflow:visible;"/>
			</clipPath>
			
				<linearGradient id="SVGID_00000106857993776573954080000002146772818738752958_" gradientUnits="userSpaceOnUse" x1="-2495.2708" y1="-156.3816" x2="-2494.271" y2="-156.3816" gradientTransform="matrix(11.8545 0 0 -11.8545 29735.6562 -1693.8755)">
				<stop  offset="0" style="stop-color:#0186AB"/>
				<stop  offset="1" style="stop-color:#4EBECE"/>
			</linearGradient>
			
				<rect x="155.5" y="156.9" style="clip-path:url(#SVGID_00000049914361800101108770000005948869130987139982_);fill:url(#SVGID_00000106857993776573954080000002146772818738752958_);" width="11.9" height="6.1"/>
		</g>
	</g>
</g>
<g>
	<g>
		<g>
			<defs>
				<path id="SVGID_00000093887031095593450490000009873380870781666177_" d="M75.7,168.8c-1.7,0-3,1.4-3,3.1c0,1.7,1.3,3,3,3h44.1
					c1.7,0,3.1-1.4,3.1-3c0-1.7-1.3-3.1-3.1-3.1H75.7z"/>
			</defs>
			<clipPath id="SVGID_00000178912297279582486780000000810997885680975272_">
				<use xlink:href="#SVGID_00000093887031095593450490000009873380870781666177_"  style="overflow:visible;"/>
			</clipPath>
			
				<linearGradient id="SVGID_00000111903699681288743640000008312238956427965066_" gradientUnits="userSpaceOnUse" x1="-2665.8923" y1="193.799" x2="-2664.8923" y2="193.799" gradientTransform="matrix(50.2012 0 0 -50.2012 133903.6875 9900.79)">
				<stop  offset="0" style="stop-color:#0186AB"/>
				<stop  offset="1" style="stop-color:#4EBECE"/>
			</linearGradient>
			
				<rect x="72.7" y="168.8" style="clip-path:url(#SVGID_00000178912297279582486780000000810997885680975272_);fill:url(#SVGID_00000111903699681288743640000008312238956427965066_);" width="50.2" height="6.1"/>
		</g>
	</g>
</g>
<g>
	<g>
		<g>
			<defs>
				<path id="SVGID_00000091697448943775858010000014214842819828561057_" d="M104.5,156.9c-1.7,0-3,1.4-3,3c0,1.7,1.3,3.1,3,3.1
					h44.2c1.7,0,3-1.4,3-3.1c0-1.7-1.4-3-3-3H104.5z"/>
			</defs>
			<clipPath id="SVGID_00000068648831740565080910000018169705151241805450_">
				<use xlink:href="#SVGID_00000091697448943775858010000014214842819828561057_"  style="overflow:visible;"/>
			</clipPath>
			
				<linearGradient id="SVGID_00000076598224918571001960000017335489558113409425_" gradientUnits="userSpaceOnUse" x1="-2665.8923" y1="193.7985" x2="-2664.8923" y2="193.7985" gradientTransform="matrix(50.2012 0 0 -50.2012 133932.4844 9888.8682)">
				<stop  offset="0" style="stop-color:#0186AB"/>
				<stop  offset="1" style="stop-color:#4EBECE"/>
			</linearGradient>
			
				<rect x="101.5" y="156.9" style="clip-path:url(#SVGID_00000068648831740565080910000018169705151241805450_);fill:url(#SVGID_00000076598224918571001960000017335489558113409425_);" width="50.2" height="6.1"/>
		</g>
	</g>
</g>
<g>
	<g>
		<g>
			<defs>
				<path id="SVGID_00000042730200692389701680000007841758392603832756_" d="M52.9,105.8c-1.7,0-3,1.3-3,3s1.3,3.1,3,3.1H97
					c1.7,0,3.1-1.3,3.1-3.1c0-1.7-1.4-3-3.1-3H52.9z"/>
			</defs>
			<clipPath id="SVGID_00000041996211833080219050000016881365827864842935_">
				<use xlink:href="#SVGID_00000042730200692389701680000007841758392603832756_"  style="overflow:visible;"/>
			</clipPath>
			
				<linearGradient id="SVGID_00000165221705161369252010000010361446417628001210_" gradientUnits="userSpaceOnUse" x1="-2665.8926" y1="193.7983" x2="-2664.8926" y2="193.7983" gradientTransform="matrix(50.2012 0 0 -50.2012 133880.9062 9837.7588)">
				<stop  offset="0" style="stop-color:#0186AB"/>
				<stop  offset="1" style="stop-color:#4EBECE"/>
			</linearGradient>
			
				<rect x="49.9" y="105.8" style="clip-path:url(#SVGID_00000041996211833080219050000016881365827864842935_);fill:url(#SVGID_00000165221705161369252010000010361446417628001210_);" width="50.2" height="6.1"/>
		</g>
	</g>
</g>
<g>
	<g>
		<g>
			<defs>
				<path id="SVGID_00000137821469568617090610000008687183614560346002_" d="M118.3,93.8c-1.7,0-3,1.3-3,3s1.3,3,3,3h5.8
					c1.7,0,3.1-1.3,3.1-3s-1.4-3-3.1-3H118.3z"/>
			</defs>
			<clipPath id="SVGID_00000042010061051774583320000018240246392042937234_">
				<use xlink:href="#SVGID_00000137821469568617090610000008687183614560346002_"  style="overflow:visible;"/>
			</clipPath>
			
				<linearGradient id="SVGID_00000143589869220916062980000007031052645203551639_" gradientUnits="userSpaceOnUse" x1="-2495.271" y1="-156.3748" x2="-2494.2715" y2="-156.3748" gradientTransform="matrix(11.8545 0 0 -11.8545 29695.5195 -1756.9458)">
				<stop  offset="0" style="stop-color:#0186AB"/>
				<stop  offset="1" style="stop-color:#4EBECE"/>
			</linearGradient>
			
				<rect x="115.3" y="93.8" style="clip-path:url(#SVGID_00000042010061051774583320000018240246392042937234_);fill:url(#SVGID_00000143589869220916062980000007031052645203551639_);" width="11.8" height="6"/>
		</g>
	</g>
</g>
<g>
	<g>
		<g>
			<defs>
				<path id="SVGID_00000151543875583663990790000002018929752237487777_" d="M64.4,93.8c-1.7,0-3,1.3-3,3s1.3,3,3,3h44.2
					c1.7,0,3-1.3,3-3s-1.3-3-3-3H64.4z"/>
			</defs>
			<clipPath id="SVGID_00000176006244526495710520000014092008876443667902_">
				<use xlink:href="#SVGID_00000151543875583663990790000002018929752237487777_"  style="overflow:visible;"/>
			</clipPath>
			
				<linearGradient id="SVGID_00000013888590652969505430000005163243927114838663_" gradientUnits="userSpaceOnUse" x1="-2665.8916" y1="193.8" x2="-2664.8916" y2="193.8" gradientTransform="matrix(50.2012 0 0 -50.2012 133892.3438 9825.79)">
				<stop  offset="0" style="stop-color:#0186AB"/>
				<stop  offset="1" style="stop-color:#4EBECE"/>
			</linearGradient>
			
				<rect x="61.4" y="93.8" style="clip-path:url(#SVGID_00000176006244526495710520000014092008876443667902_);fill:url(#SVGID_00000013888590652969505430000005163243927114838663_);" width="50.2" height="6"/>
		</g>
	</g>
</g>
</svg>
