<svg width="124" height="124" viewBox="0 0 124 124" fill="none" xmlns="http://www.w3.org/2000/svg">
<path d="M85.64 30.09C87.1 31.43 87.1 33.78 85.64 35.13L56.99 63.78C55.65 65.23 53.3 65.23 51.95 63.78L37.62 49.45C36.16 48.11 36.16 45.76 37.62 44.41C38.96 42.95 41.31 42.95 42.66 44.41L54.41 56.16L80.6 30.09C81.94 28.64 84.3 28.64 85.64 30.09Z" fill="white"/>
<path d="M23 95.25H25.31V84.47H23V95.25Z" fill="white"/>
<path d="M27.94 95.25H30.25V91.8H32.07L34.32 95.25H37.02L34.45 91.4C35.79 90.89 36.7 89.8 36.7 88.06V88.03C36.7 87.01 36.39 86.17 35.8 85.57C35.11 84.86 34.07 84.48 32.74 84.48H27.94V95.25ZM30.25 89.71V86.62H32.55C33.68 86.62 34.37 87.14 34.37 88.16V88.19C34.37 89.1 33.72 89.71 32.6 89.71H30.25Z" fill="white"/>
<path d="M42.38 95.25H44.74L45.7 92.83H50.14L51.1 95.25H53.52L49.02 84.4H46.89L42.38 95.25ZM46.52 90.74L47.92 87.25L49.32 90.74H46.52Z" fill="white"/>
<path d="M55.13 95.25H62.68V93.1H57.44V84.48H55.13V95.25Z" fill="white"/>
<path d="M68.92 95.25H73.92C76.29 95.25 77.85 94.26 77.85 92.29V92.26C77.85 90.81 77.1 90.09 75.88 89.61C76.63 89.18 77.26 88.5 77.26 87.29V87.26C77.26 86.52 77.02 85.92 76.54 85.43C75.94 84.81 74.99 84.48 73.79 84.48H68.91V95.25H68.92ZM71.17 88.83V86.55H73.45C74.43 86.55 74.97 86.95 74.97 87.66V87.69C74.97 88.49 74.32 88.83 73.3 88.83H71.17ZM71.17 93.17V90.8H73.84C75.03 90.8 75.55 91.25 75.55 91.97V92C75.55 92.8 74.93 93.17 73.91 93.17H71.17Z" fill="white"/>
<path d="M84.84 95.43C88.08 95.43 90.44 92.92 90.44 89.86V89.83C90.44 86.77 88.11 84.29 84.87 84.29C81.63 84.29 79.27 86.8 79.27 89.86V89.89C79.28 92.95 81.6 95.43 84.84 95.43ZM84.87 93.25C83.01 93.25 81.69 91.71 81.69 89.86V89.83C81.69 87.98 82.98 86.47 84.84 86.47C86.7 86.47 88.02 88.01 88.02 89.86V89.89C88.03 91.74 86.73 93.25 84.87 93.25Z" fill="white"/>
<path d="M90.95 95.25H93.58L95.95 91.56L98.31 95.25H101.01L97.35 89.74L100.86 84.48H98.23L95.99 87.97L93.8 84.48H91.1L94.61 89.77L90.95 95.25Z" fill="white"/>
</svg>
