<?xml version="1.0" encoding="utf-8"?>
<!-- Generator: Adobe Illustrator 26.3.1, SVG Export Plug-In . SVG Version: 6.00 Build 0)  -->
<svg version="1.1" id="Capa_1" xmlns="http://www.w3.org/2000/svg" xmlns:xlink="http://www.w3.org/1999/xlink" x="0px" y="0px"
	 viewBox="0 0 203.5 247.2" style="enable-background:new 0 0 203.5 247.2;" xml:space="preserve">
<style type="text/css">
	.st0{enable-background:new    ;}
	.st1{fill:#059DB5;}
	
		.st2{clip-path:url(#SVGID_00000031175978000376045760000001485935684978181016_);fill:url(#SVGID_00000044173803829017161100000012130879017658592643_);}
</style>
<g class="st0">
	<path class="st1" d="M20.05,216.4h6.5c3.8,0,6.1,2.2,6.1,5.5l0,0c0,3.7-2.9,5.6-6.4,5.6h-2.7v4.8h-3.5
		C20.05,232.3,20.05,216.4,20.05,216.4z M26.35,224.4c1.7,0,2.8-1,2.8-2.4l0,0c0-1.6-1.1-2.4-2.8-2.4h-2.7v4.9h2.7V224.4z"/>
	<path class="st1" d="M34.55,224.4L34.55,224.4c0-4.6,3.6-8.3,8.5-8.3s8.4,3.7,8.4,8.2l0,0c0,4.5-3.6,8.2-8.5,8.2
		C38.05,232.6,34.55,228.9,34.55,224.4z M47.85,224.4L47.85,224.4c0-2.8-2-5-4.8-5c-2.8,0-4.8,2.2-4.8,5l0,0c0,2.7,2,5,4.8,5
		C45.85,229.4,47.85,227.1,47.85,224.4z"/>
	<path class="st1" d="M53.35,230l2.1-2.5c1.4,1.2,2.9,1.9,4.7,1.9c1.4,0,2.3-0.6,2.3-1.5l0,0c0-0.9-0.5-1.3-3.2-2
		c-3.2-0.8-5.3-1.7-5.3-4.9l0,0c0-2.9,2.3-4.8,5.6-4.8c2.3,0,4.3,0.7,5.9,2l-1.8,2.6c-1.4-1-2.8-1.6-4.1-1.6c-1.3,0-2,0.6-2,1.4l0,0
		c0,1,0.7,1.4,3.4,2.1c3.2,0.8,5,2,5,4.8l0,0c0,3.2-2.4,4.9-5.8,4.9C57.75,232.5,55.35,231.7,53.35,230z"/>
	<path class="st1" d="M72.35,219.6h-4.8v-3.2h13.2v3.2h-4.8v12.7h-3.5v-12.7H72.35z"/>
	<path class="st1" d="M82.05,224.4L82.05,224.4c0-4.6,3.5-8.3,8.3-8.3c2.9,0,4.6,0.8,6.2,2.2l-2.2,2.7c-1.2-1-2.3-1.6-4.2-1.6
		c-2.5,0-4.6,2.2-4.6,5l0,0c0,2.9,2,5,4.8,5c1.3,0,2.4-0.3,3.3-1v-2.3h-3.4v-3h6.9v6.9c-1.6,1.4-3.9,2.5-6.8,2.5
		C85.45,232.6,82.05,229.1,82.05,224.4z"/>
	<path class="st1" d="M100.55,216.4h7.3c2,0,3.6,0.6,4.6,1.6c0.9,0.9,1.4,2.1,1.4,3.6l0,0c0,2.6-1.4,4.2-3.4,4.9l3.9,5.7h-4.1
		l-3.4-5.1h-2.8v5.1h-3.5C100.55,232.2,100.55,216.4,100.55,216.4z M107.55,224.1c1.7,0,2.7-0.9,2.7-2.2l0,0c0-1.5-1-2.3-2.7-2.3
		h-3.5v4.6h3.5V224.1z"/>
	<path class="st1" d="M122.45,216.3h3.2l6.8,16h-3.7l-1.5-3.6h-6.7l-1.5,3.6h-3.6L122.45,216.3z M126.15,225.7l-2.1-5.2l-2.1,5.2
		H126.15z"/>
	<path class="st1" d="M134.95,216.4h6.2c5,0,8.5,3.4,8.5,7.9l0,0c0,4.5-3.5,8-8.5,8h-6.2V216.4z M141.15,229.2
		c2.9,0,4.8-1.9,4.8-4.7l0,0c0-2.8-1.9-4.8-4.8-4.8h-2.7v9.6h2.7V229.2z"/>
	<path class="st1" d="M152.05,224.4L152.05,224.4c0-4.6,3.6-8.3,8.5-8.3s8.4,3.7,8.4,8.2l0,0c0,4.5-3.6,8.2-8.5,8.2
		C155.55,232.6,152.05,228.9,152.05,224.4z M165.25,224.4L165.25,224.4c0-2.8-2-5-4.8-5s-4.8,2.2-4.8,5l0,0c0,2.7,2,5,4.8,5
		S165.25,227.1,165.25,224.4z"/>
	<path class="st1" d="M170.85,230l2.1-2.5c1.4,1.2,2.9,1.9,4.7,1.9c1.4,0,2.3-0.6,2.3-1.5l0,0c0-0.9-0.5-1.3-3.2-2
		c-3.2-0.8-5.3-1.7-5.3-4.9l0,0c0-2.9,2.3-4.8,5.6-4.8c2.3,0,4.3,0.7,5.9,2l-1.8,2.6c-1.4-1-2.8-1.6-4.1-1.6s-2,0.6-2,1.4l0,0
		c0,1,0.7,1.4,3.4,2.1c3.2,0.8,5,2,5,4.8l0,0c0,3.2-2.4,4.9-5.8,4.9C175.15,232.5,172.75,231.7,170.85,230z"/>
</g>
<g>
	<g>
		<g>
			<defs>
				<path id="SVGID_1_" d="M104.1,178.4l46.5-34.2c3.9,1.6,7.5,3.5,10.8,5.6c0.8,0.5,1.6,1,2.3,1.5l-62,45.6l-62-45.7
					c0.7-0.5,1.4-0.9,2.2-1.4c3.4-2.1,7.1-4,11-5.7l46.5,34.2c0.7,0.5,1.5,0.8,2.3,0.8S103.4,178.9,104.1,178.4 M134,138.9
					c1.6,0.3,4.3,0.9,7.6,2l-39.9,29.4l-39.9-29.4c3.3-1,6-1.6,7.6-2c8.8,8.3,20.2,12.9,32.3,12.9S125.3,147.3,134,138.9
					 M33.2,117.1c0-7.8,3.2-12.9,5.6-15.7c2.4,2.8,5.6,7.9,5.6,15.7c-1.5,0.9-4.1,1.3-5.6,1.3C37.4,118.4,34.7,118,33.2,117.1
					 M62.9,105V81.5C74.7,74.6,88.1,71,101.8,71s27.1,3.7,38.9,10.6V105c0,21.4-17.4,38.9-38.9,38.9S62.9,126.5,62.9,105 M62.9,50.7
					c11.8-6.9,25.2-10.5,38.9-10.5s27.1,3.7,38.9,10.5v21.8c-12-6.2-25.4-9.4-38.9-9.4s-26.9,3.3-38.9,9.4L62.9,50.7L62.9,50.7z
					 M26.9,45.7l74.8-29.3l74.8,29.3l-28,11v-8.2c0-1.4-0.7-2.6-1.9-3.4c-13.5-8.4-29-12.9-45-12.9s-31.5,4.5-45,12.9
					c-1.2,0.7-1.9,2-1.9,3.4v8.2L26.9,45.7z M100.3,8.4L14.6,42c-1.5,0.6-2.5,2-2.5,3.7s1,3.1,2.5,3.7l20.2,7.9v36.8
					c-3.3,3.2-10.2,11.3-9.5,25c0,0.8,0.3,1.6,0.9,2.3c3.8,4.8,11.7,4.9,12.6,4.9s8.8-0.1,12.6-4.9c0.5-0.7,0.8-1.4,0.8-2.3
					c0.7-13.7-6.2-21.8-9.5-25V60.4l12.2,4.8V105c0,9.8,3,19.2,8.7,27.1c-5.8,1.5-15.8,4.7-25.7,10.9c-14.8,9.3-32.2,27-31.2,59
					c0.1,2.1,1.8,3.8,4,3.8h0.1c2.2-0.1,3.9-1.9,3.8-4.1c-0.6-18.7,5.6-34,18.6-45.4L99.4,205c1.4,1,3.3,1,4.7,0l66.2-48.7
					c13,11.4,19.2,26.6,18.6,45.4c0,1.1,0.3,2.1,1.1,2.8c0.7,0.8,1.7,1.2,2.8,1.3h0.1c2.1,0,3.9-1.7,4-3.8
					c1.1-32-16.4-49.7-31.2-58.9c-9.9-6.2-19.9-9.4-25.7-10.9c5.7-8,8.7-17.3,8.7-27.1V65.2L189,49.4c1.5-0.6,2.5-2,2.5-3.7
					s-1-3.1-2.5-3.7L103.2,8.4c-0.5-0.2-1-0.3-1.4-0.3C101.3,8.1,100.8,8.2,100.3,8.4"/>
			</defs>
			<clipPath id="SVGID_00000082341418436155267940000003372393118862769295_">
				<use xlink:href="#SVGID_1_"  style="overflow:visible;"/>
			</clipPath>
			
				<linearGradient id="SVGID_00000034079440444934018860000007563834000670068610_" gradientUnits="userSpaceOnUse" x1="-2693.4016" y1="276.1688" x2="-2692.4016" y2="276.1688" gradientTransform="matrix(190.1462 0 0 -190.1462 512146.7812 52619.4961)">
				<stop  offset="0" style="stop-color:#0186AB"/>
				<stop  offset="1" style="stop-color:#4EBECE"/>
			</linearGradient>
			
				<rect x="5.7" y="8.1" style="clip-path:url(#SVGID_00000082341418436155267940000003372393118862769295_);fill:url(#SVGID_00000034079440444934018860000007563834000670068610_);" width="192.2" height="197.9"/>
		</g>
	</g>
</g>
</svg>
