<?xml version="1.0" encoding="utf-8"?>
<!-- Generator: Adobe Illustrator 26.3.1, SVG Export Plug-In . SVG Version: 6.00 Build 0)  -->
<svg version="1.1" id="Capa_1" xmlns="http://www.w3.org/2000/svg" xmlns:xlink="http://www.w3.org/1999/xlink" x="0px" y="0px"
	 viewBox="0 0 259.52 125.1" style="enable-background:new 0 0 259.52 125.1;" xml:space="preserve">
<style type="text/css">
	.st0{fill:#626161;}
	.st1{fill:#E52521;}
	.st2{fill:#FFFFFF;}
	.st3{enable-background:new    ;}
</style>
<path class="st0" d="M36.1,39.27c0,4.62-1.27,7.94-3.81,9.95c1.33,1.18,2.18,3.07,2.56,5.68c0.15,0.99,0.25,2.22,0.29,3.69v20.17
	c0,2.73,0.38,5.4,1.14,8.01H26.9c-0.76-2.61-1.14-5.29-1.14-8.01V60.18c0-0.95-0.17-1.74-0.51-2.39c-0.26-0.49-0.65-0.87-1.14-1.14
	c-0.57-0.3-1.12-0.43-1.65-0.4h-1.59v30.52h-9.55V9.26h13.64c3.52,0,6.26,0.98,8.21,2.93s2.93,4.69,2.93,8.21V39.27z M20.87,45.58
	h2.33c0.87,0,1.63-0.32,2.27-0.97c0.61-0.61,0.91-1.34,0.91-2.22V22.33c0-0.87-0.3-1.61-0.91-2.22c-0.65-0.64-1.4-0.97-2.27-0.97
	h-2.33V45.58z"/>
<path class="st0" d="M51.39,28.36c3.56,0,6.59,1.25,9.09,3.75c2.54,2.54,3.81,5.57,3.81,9.09v45.58h-7.33
	c-1.78,0.87-3.64,1.31-5.57,1.31c-1.97,0-3.85-0.44-5.63-1.31c-2.16-1.06-3.9-2.62-5.23-4.66c-1.33-2.08-1.99-4.38-1.99-6.88V66.2
	c0-0.61,0.06-1.25,0.17-1.93c0.45-2.77,1.86-5.29,4.21-7.56c0.87-0.83,1.86-1.63,2.96-2.39c0.42-0.3,1.25-0.83,2.5-1.59l6.19-3.52
	v-9.15c0-0.87-0.31-1.61-0.91-2.22c-0.64-0.6-1.4-0.91-2.27-0.91s-1.61,0.3-2.22,0.91c-0.65,0.61-0.97,1.35-0.97,2.22v10.8h-9.66
	V41.2c0-3.52,1.25-6.55,3.75-9.09C44.83,29.61,47.86,28.36,51.39,28.36 M53.77,78.6c0.53-0.61,0.8-1.34,0.8-2.22V60.35L54,60.69
	l-0.62,0.34c-2.35,1.29-3.9,2.9-4.66,4.83c-0.34,0.95-0.51,1.78-0.51,2.5v8.01c0,0.87,0.32,1.61,0.97,2.22
	c0.61,0.61,1.34,0.91,2.22,0.91C52.45,79.51,53.24,79.2,53.77,78.6"/>
<path class="st0" d="M92.87,20.6v54.64c0,3.52-1.27,6.55-3.81,9.09c-2.5,2.5-5.53,3.75-9.09,3.75c-3.52,0-6.55-1.25-9.09-3.75
	c-2.5-2.54-3.75-5.57-3.75-9.09V41.2c0-3.52,1.06-6.56,3.18-9.09c2.54-2.5,5.1-3.75,7.67-3.75c2.42,0,4.21,0.53,5.34,1.59V20.6
	H92.87z M83.16,40.06c0-0.87-0.3-1.61-0.91-2.22c-0.65-0.61-1.4-0.91-2.27-0.91c-0.87,0-1.61,0.3-2.22,0.91s-0.91,1.35-0.91,2.22
	v36.31c0,0.87,0.3,1.61,0.91,2.22c0.6,0.61,1.34,0.91,2.22,0.91c0.87,0,1.63-0.3,2.27-0.91c0.61-0.6,0.91-1.34,0.91-2.22V40.06z"/>
<rect x="95.72" y="29.61" class="st0" width="9.55" height="57.17"/>
<path class="st0" d="M120.95,28.36c3.56,0,6.59,1.25,9.09,3.75c2.54,2.54,3.81,5.57,3.81,9.09v34.04c0,3.52-1.27,6.56-3.81,9.09
	c-2.5,2.5-5.53,3.75-9.09,3.75c-3.52,0-6.56-1.25-9.09-3.75c-2.5-2.54-3.75-5.57-3.75-9.09V41.2c0-3.52,1.25-6.56,3.75-9.09
	C114.39,29.61,117.43,28.36,120.95,28.36 M117.77,76.38c0,0.87,0.32,1.61,0.97,2.22c0.61,0.61,1.34,0.91,2.22,0.91
	c0.87,0,1.63-0.3,2.27-0.91c0.6-0.6,0.91-1.34,0.91-2.22V40.06c0-0.87-0.3-1.61-0.91-2.22c-0.65-0.61-1.4-0.91-2.27-0.91
	c-0.87,0-1.61,0.3-2.22,0.91c-0.64,0.61-0.97,1.35-0.97,2.22V76.38z"/>
<path class="st1" d="M145.73,88.09c-6.02,0-9.04-4.28-9.04-12.84V29.67h9.72v46.72c0,0.87,0.3,1.61,0.91,2.22s1.35,0.91,2.22,0.91
	s1.63-0.3,2.27-0.91c0.61-0.6,0.91-1.34,0.91-2.22V29.67h9.72v57.17h-9.55V85.3l-0.11,0.11c-0.08,0.11-0.19,0.23-0.34,0.34
	c-0.38,0.34-0.83,0.66-1.36,0.97C149.44,87.63,147.66,88.09,145.73,88.09"/>
<path class="st1" d="M174.88,31.03c0.08-0.08,0.19-0.17,0.34-0.28c0.42-0.34,0.87-0.66,1.36-0.97c1.63-0.95,3.41-1.42,5.34-1.42
	c6.06,0,9.09,4.3,9.09,12.9v45.52h-9.72V40.12c0-0.87-0.3-1.63-0.91-2.27c-0.64-0.61-1.4-0.91-2.27-0.91c-0.87,0-1.61,0.3-2.22,0.91
	c-0.64,0.64-0.97,1.4-0.97,2.27v46.66h-9.66V29.61h9.55v1.48L174.88,31.03z"/>
<path class="st1" d="M206.71,28.36c3.56,0,6.59,1.25,9.09,3.75c2.54,2.54,3.81,5.57,3.81,9.09v45.58h-7.33
	c-1.78,0.87-3.64,1.31-5.57,1.31c-1.97,0-3.84-0.44-5.63-1.31c-2.16-1.06-3.9-2.62-5.23-4.66c-1.33-2.08-1.99-4.38-1.99-6.88V66.2
	c0-0.61,0.06-1.25,0.17-1.93c0.45-2.77,1.86-5.29,4.21-7.56c0.87-0.83,1.86-1.63,2.96-2.39c0.42-0.3,1.25-0.83,2.5-1.59l6.19-3.52
	v-9.15c0-0.87-0.3-1.61-0.91-2.22c-0.64-0.6-1.4-0.91-2.27-0.91s-1.61,0.3-2.22,0.91c-0.64,0.61-0.97,1.35-0.97,2.22v10.8h-9.66
	V41.2c0-3.52,1.25-6.55,3.75-9.09C200.15,29.61,203.18,28.36,206.71,28.36 M209.09,78.6c0.53-0.61,0.8-1.34,0.8-2.22V60.35
	l-0.57,0.34l-0.62,0.34c-2.35,1.29-3.9,2.9-4.66,4.83c-0.34,0.95-0.51,1.78-0.51,2.5v8.01c0,0.87,0.32,1.61,0.97,2.22
	c0.61,0.61,1.34,0.91,2.22,0.91C207.77,79.51,208.56,79.2,209.09,78.6"/>
<path class="st1" d="M232,10.57v19.38c1.14-1.06,2.92-1.59,5.34-1.59c2.58,0,5.13,1.25,7.67,3.75c2.12,2.54,3.18,5.57,3.18,9.09
	v34.04c0,3.52-1.25,6.56-3.75,9.09c-2.54,2.5-5.57,3.75-9.09,3.75c-3.56,0-6.59-1.25-9.09-3.75c-2.54-2.54-3.81-5.57-3.81-9.09
	V10.57H232z M232.17,76.38c0,0.87,0.3,1.61,0.91,2.22c0.64,0.61,1.4,0.91,2.27,0.91c0.87,0,1.61-0.3,2.22-0.91
	c0.61-0.6,0.91-1.34,0.91-2.22V40.06c0-0.87-0.3-1.61-0.91-2.22s-1.35-0.91-2.22-0.91s-1.63,0.3-2.27,0.91
	c-0.61,0.61-0.91,1.35-0.91,2.22V76.38z"/>
<path class="st2" d="M104.45,25.33h-7.93c-0.45,0-0.81-0.36-0.81-0.81v-2.13c0-0.45,0.36-0.81,0.81-0.81h7.93
	c0.45,0,0.81,0.36,0.81,0.81v2.13C105.26,24.96,104.9,25.33,104.45,25.33"/>
<path class="st0" d="M92.07,19.15h-7.93c-0.45,0-0.81-0.36-0.81-0.81v-2.13c0-0.45,0.36-0.81,0.81-0.81h7.93
	c0.45,0,0.81,0.36,0.81,0.81v2.13C92.87,18.79,92.51,19.15,92.07,19.15"/>
<path class="st0" d="M92.07,14.18h-7.93c-0.45,0-0.81-0.36-0.81-0.81v-2.13c0-0.45,0.36-0.81,0.81-0.81h7.93
	c0.45,0,0.81,0.36,0.81,0.81v2.13C92.87,13.82,92.51,14.18,92.07,14.18"/>
<path class="st1" d="M92.07,9.21h-7.93c-0.45,0-0.81-0.36-0.81-0.81V6.27c0-0.45,0.36-0.81,0.81-0.81h7.93
	c0.45,0,0.81,0.36,0.81,0.81V8.4C92.87,8.85,92.51,9.21,92.07,9.21"/>
<path class="st0" d="M104.42,25.25h-7.93c-0.45,0-0.81-0.36-0.81-0.81v-2.13c0-0.45,0.36-0.81,0.81-0.81h7.93
	c0.45,0,0.81,0.36,0.81,0.81v2.13C105.23,24.89,104.87,25.25,104.42,25.25"/>
<path class="st0" d="M104.42,20.28h-7.93c-0.45,0-0.81-0.36-0.81-0.81v-2.13c0-0.45,0.36-0.81,0.81-0.81h7.93
	c0.45,0,0.81,0.36,0.81,0.81v2.13C105.23,19.92,104.87,20.28,104.42,20.28"/>
<path class="st1" d="M104.42,15.31h-7.93c-0.45,0-0.81-0.36-0.81-0.81v-2.13c0-0.45,0.36-0.81,0.81-0.81h7.93
	c0.45,0,0.81,0.36,0.81,0.81v2.13C105.23,14.94,104.87,15.31,104.42,15.31"/>
<path class="st1" d="M233.62,115.41H25.9c-8.05,0-14.58-6.53-14.58-14.58v-8.3h236.87v8.3
	C248.19,108.88,241.67,115.41,233.62,115.41"/>
<g class="st3">
	<path class="st2" d="M46.39,97.04h3.49v15.87h-3.49V97.04z"/>
	<path class="st2" d="M53.85,97.04h3.22l7.44,9.77v-9.77h3.45v15.87h-2.97l-7.69-10.09v10.09h-3.45V97.04z"/>
	<path class="st2" d="M71.76,97.04h12.09v3.17h-8.59v3.38h7.57v3.17h-7.57v6.14h-3.49V97.04z"/>
	<path class="st2" d="M85.93,105.02v-0.05c0-4.51,3.56-8.21,8.46-8.21c4.9,0,8.41,3.65,8.41,8.16v0.04c0,4.51-3.56,8.21-8.46,8.21
		C89.44,113.18,85.93,109.53,85.93,105.02z M99.15,105.02v-0.05c0-2.72-2-4.99-4.81-4.99c-2.81,0-4.76,2.22-4.76,4.94v0.04
		c0,2.72,2,4.99,4.81,4.99C97.2,109.96,99.15,107.74,99.15,105.02z"/>
	<path class="st2" d="M105.9,97.04h7.26c2.02,0,3.58,0.57,4.63,1.61c0.88,0.88,1.36,2.13,1.36,3.63v0.05c0,2.56-1.38,4.17-3.4,4.92
		l3.88,5.67h-4.08l-3.4-5.08h-2.74v5.08h-3.49V97.04z M112.93,104.75c1.7,0,2.68-0.91,2.68-2.24v-0.05c0-1.5-1.04-2.27-2.74-2.27
		h-3.47v4.56H112.93z"/>
	<path class="st2" d="M122.29,97.04h3.76l4.17,6.71l4.17-6.71h3.76v15.87h-3.47v-10.36l-4.47,6.78h-0.09l-4.42-6.71v10.29h-3.42
		V97.04z"/>
	<path class="st2" d="M147.41,96.93h3.22l6.8,15.99h-3.65l-1.45-3.56h-6.71l-1.45,3.56h-3.56L147.41,96.93z M151.08,106.27
		l-2.11-5.15l-2.11,5.15H151.08z"/>
	<path class="st2" d="M161.53,100.26h-4.83v-3.22h13.15v3.22h-4.83v12.65h-3.49V100.26z"/>
	<path class="st2" d="M172.68,97.04h3.49v15.87h-3.49V97.04z"/>
	<path class="st2" d="M178.78,97.04h3.86l4.15,11.18l4.15-11.18h3.76l-6.42,15.99h-3.08L178.78,97.04z"/>
	<path class="st2" d="M200.31,96.93h3.22l6.8,15.99h-3.65l-1.45-3.56h-6.71l-1.45,3.56h-3.56L200.31,96.93z M203.99,106.27
		l-2.11-5.15l-2.11,5.15H203.99z"/>
</g>
</svg>
