<svg width="124" height="124" viewBox="0 0 124 124" fill="none" xmlns="http://www.w3.org/2000/svg">
<path d="M57.7544 53.9051C59.278 53.9051 60.5673 52.2569 60.5673 50.1379C60.5673 48.1365 59.278 46.3706 57.7544 46.3706C56.1136 46.3706 54.9415 48.1365 54.9415 50.1379C54.9415 52.2569 56.1136 53.9051 57.7544 53.9051ZM98.0722 76.5085H84.0078V31.3017C84.0078 29.3004 82.2498 27.5345 80.2573 27.5345H69.0059V24.0027C69.0059 21.7659 67.2478 20 65.2554 20C64.9038 20 64.5522 20.1177 64.3178 20.2355L41.8148 26.004C40.0568 26.4749 39.002 28.0054 39.002 29.7713V76.5085H24.9376C24.3516 76.5085 24 76.9794 24 77.4503V79.3339C24 79.9226 24.3516 80.2757 24.9376 80.2757H98.0722C98.541 80.2757 99.0098 79.9226 99.0098 79.3339V77.4503C99.0098 76.9794 98.541 76.5085 98.0722 76.5085ZM65.2554 24.0027V76.5085H42.7524V29.6535L65.2554 23.885V24.0027ZM80.2573 76.5085H69.0059V31.3017H80.2573V76.5085Z" fill="url(#paint0_linear_218_910)"/>
<path d="M38.9459 103.28C41.7776 103.28 43.7653 101.817 43.7653 99.2108V99.1733C43.7653 96.8855 42.2651 95.9291 39.6023 95.2353C37.3332 94.654 36.7707 94.3727 36.7707 93.5101V93.4726C36.7707 92.835 37.352 92.3287 38.4584 92.3287C39.5648 92.3287 40.7087 92.8162 41.8713 93.6226L43.3715 91.4473C42.0401 90.3784 40.4086 89.7783 38.4959 89.7783C35.8143 89.7783 33.9015 91.3535 33.9015 93.7351V93.7726C33.9015 96.3792 35.608 97.1105 38.2521 97.7856C40.4461 98.3482 40.8962 98.7232 40.8962 99.4546V99.4921C40.8962 100.261 40.1836 100.73 39.0022 100.73C37.502 100.73 36.2643 100.111 35.0829 99.1358L33.3765 101.18C34.9517 102.586 36.9582 103.28 38.9459 103.28Z" fill="#059DB5"/>
<path d="M44.8717 103.093H47.8159L49.016 100.148H54.5667L55.7669 103.093H58.786L53.1603 89.8721H50.4975L44.8717 103.093ZM50.0474 97.5981L51.7914 93.3413L53.5353 97.5981H50.0474Z" fill="#059DB5"/>
<path d="M60.812 103.093H70.2445V100.467H63.6999V89.9658H60.812V103.093Z" fill="#059DB5"/>
<path d="M72.5537 103.093H75.4416V89.9658H72.5537V103.093Z" fill="#059DB5"/>
<path d="M78.7221 103.093H81.61V98.892H83.879L86.6919 103.093H90.0673L86.8606 98.4044C88.5296 97.7856 89.6735 96.4542 89.6735 94.3352V94.2977C89.6735 93.06 89.2797 92.0286 88.5484 91.2973C87.6858 90.4347 86.3918 89.9658 84.7229 89.9658H78.7221V103.093ZM81.61 96.3417V92.5724H84.4791C85.8855 92.5724 86.7481 93.21 86.7481 94.4477V94.4852C86.7481 95.5916 85.9418 96.3417 84.5353 96.3417H81.61Z" fill="#059DB5"/>
<defs>
<linearGradient id="paint0_linear_218_910" x1="24.0432" y1="50.0123" x2="99.0093" y2="50.0123" gradientUnits="userSpaceOnUse">
<stop stop-color="#0186AB"/>
<stop offset="1" stop-color="#4EBECE"/>
</linearGradient>
</defs>
</svg>
