<?xml version="1.0" encoding="utf-8"?>
<!-- Generator: Adobe Illustrator 26.3.1, SVG Export Plug-In . SVG Version: 6.00 Build 0)  -->
<svg version="1.1" id="Capa_1" xmlns="http://www.w3.org/2000/svg" xmlns:xlink="http://www.w3.org/1999/xlink" x="0px" y="0px"
	 viewBox="0 0 220.04 218.52" style="enable-background:new 0 0 220.04 218.52;" xml:space="preserve">
<style type="text/css">
	.st0{enable-background:new    ;}
	.st1{fill:#059DB5;}
	.st2{fill:#E52521;}
	.st3{fill:#FFFFFF;}
</style>
<g>
	<g class="st0">
		<path class="st1" d="M13.09,189.68v-0.04c0-4.27,3.22-7.76,7.83-7.76c2.83,0,4.52,0.94,5.92,2.32l-2.1,2.42
			c-1.16-1.05-2.34-1.69-3.84-1.69c-2.53,0-4.35,2.1-4.35,4.67v0.04c0,2.57,1.78,4.72,4.35,4.72c1.72,0,2.77-0.69,3.95-1.76
			l2.1,2.12c-1.54,1.65-3.26,2.68-6.15,2.68C16.37,197.4,13.09,193.99,13.09,189.68z"/>
		<path class="st1" d="M34.73,182.03h3.04l6.43,15.12h-3.45l-1.37-3.37h-6.35l-1.37,3.37H28.3L34.73,182.03z M38.2,190.86
			l-1.99-4.87l-1.99,4.87H38.2z"/>
		<path class="st1" d="M46.53,182.13h3.04l7.03,9.24v-9.24h3.26v15.01h-2.81l-7.27-9.54v9.54h-3.26V182.13z"/>
		<path class="st1" d="M68.62,182.03h3.04l6.43,15.12h-3.45l-1.37-3.37h-6.35l-1.37,3.37h-3.37L68.62,182.03z M72.09,190.86
			l-1.99-4.87l-1.99,4.87H72.09z"/>
		<path class="st1" d="M80.41,182.13h3.3v12.01h7.48v3H80.41V182.13z"/>
		<path class="st1" d="M104.35,191.22l-5.77-9.09h3.86l3.58,6.03l3.64-6.03h3.75l-5.77,9.03v5.98h-3.3V191.22z"/>
		<path class="st1" d="M113.53,189.68v-0.04c0-4.27,3.37-7.76,8-7.76c4.63,0,7.96,3.45,7.96,7.72v0.04c0,4.27-3.37,7.76-8,7.76
			C116.85,197.4,113.53,193.95,113.53,189.68z M126.03,189.68v-0.04c0-2.57-1.89-4.72-4.55-4.72s-4.5,2.1-4.5,4.67v0.04
			c0,2.57,1.89,4.72,4.55,4.72S126.03,192.25,126.03,189.68z"/>
		<path class="st1" d="M132.19,190.71v-8.58h3.3v8.49c0,2.44,1.22,3.71,3.24,3.71c2.02,0,3.24-1.22,3.24-3.6v-8.6h3.3v8.47
			c0,4.55-2.55,6.78-6.58,6.78C134.65,197.38,132.19,195.13,132.19,190.71z"/>
		<path class="st1" d="M152.13,185.18h-4.57v-3.04H160v3.04h-4.57v11.96h-3.3V185.18z"/>
		<path class="st1" d="M162.3,190.71v-8.58h3.3v8.49c0,2.44,1.22,3.71,3.24,3.71s3.24-1.22,3.24-3.6v-8.6h3.3v8.47
			c0,4.55-2.55,6.78-6.58,6.78C164.76,197.38,162.3,195.13,162.3,190.71z"/>
		<path class="st1" d="M178.75,182.13h6.97c1.72,0,3.07,0.47,3.92,1.33c0.69,0.69,1.03,1.52,1.03,2.55v0.04
			c0,1.69-0.9,2.64-1.97,3.24c1.74,0.66,2.81,1.67,2.81,3.69v0.04c0,2.74-2.23,4.12-5.62,4.12h-7.14V182.13z M185.01,188.2
			c1.46,0,2.38-0.47,2.38-1.59v-0.04c0-0.99-0.77-1.54-2.17-1.54h-3.26v3.17H185.01z M185.89,194.25c1.46,0,2.34-0.51,2.34-1.63
			v-0.04c0-1.01-0.75-1.63-2.44-1.63h-3.82v3.3H185.89z"/>
		<path class="st1" d="M194.23,182.13h11.32v2.94h-8.04v3.04h7.08v2.94h-7.08v3.15h8.15v2.94h-11.43V182.13z"/>
	</g>
	<path class="st2" d="M207.11,43.28c-2.33-8.72-9.2-15.59-17.92-17.92c-15.81-4.24-79.18-4.24-79.18-4.24s-63.37,0-79.18,4.24
		c-8.71,2.34-15.57,9.2-17.9,17.92C8.69,59.09,8.69,92.06,8.69,92.06s0,32.97,4.24,48.78c2.33,8.72,9.2,15.59,17.92,17.92
		C46.66,163,110.03,163,110.03,163s63.37,0,79.18-4.24c8.72-2.33,15.59-9.2,17.92-17.92c4.24-15.81,4.24-48.78,4.24-48.78
		S211.35,59.09,207.11,43.28"/>
	<polygon class="st3" points="89.76,122.46 142.41,92.06 89.76,61.66 	"/>
</g>
</svg>
