<svg width="102" height="97" viewBox="0 0 102 97" fill="none" xmlns="http://www.w3.org/2000/svg">
<path d="M86.0949 29.46C95.8723 46.3949 75.7535 71.9999 58.8185 81.7773C41.8836 91.5547 26.0675 85.037 16.2901 68.1021C6.51274 51.1671 9.03976 34.6676 25.9747 24.8902C42.9097 15.1128 76.3175 12.525 86.0949 29.46Z" fill="#F6F7F7"/>
<path d="M58.4483 72.0682H34.1768C32.574 72.0682 31.2695 70.7582 31.2695 69.1481V38.6197C31.2695 37.0093 32.574 35.6992 34.1768 35.6992H39.1069V38.7521H53.5181V35.6992H58.4483C60.051 35.6996 61.3555 37.0096 61.3555 38.6197V69.1481C61.3555 70.7582 60.051 72.0682 58.4483 72.0682ZM34.1768 37.4693C33.5494 37.4693 33.0393 37.9854 33.0393 38.6197V69.1481C33.0393 69.7828 33.5495 70.2985 34.1768 70.2985H58.4483C59.076 70.2985 59.5861 69.7828 59.5861 69.1481V38.6197C59.5861 37.9854 59.0759 37.469 58.4486 37.469H55.2882V40.5218L37.3375 40.5222V37.4693L34.1768 37.4693Z" fill="#326295"/>
<path d="M55.2886 40.5221H37.3379V35.6887C37.3379 34.0116 38.6966 32.6466 40.3668 32.6466H44.1642V33.5315C44.1642 34.7264 45.1283 35.6991 46.3132 35.6991C47.4985 35.6991 48.4621 34.7264 48.4621 33.5315V32.6466H52.2595C53.9293 32.6466 55.2884 34.0116 55.2884 35.6887L55.2886 40.5221ZM39.1077 38.7523H53.5188V35.6887C53.5188 34.9871 52.954 34.4164 52.2597 34.4164H50.1325C49.7319 36.1626 48.1719 37.4689 46.3133 37.4689C44.4551 37.4689 42.8948 36.1626 42.4942 34.4164H40.3667C39.6722 34.4164 39.1075 34.987 39.1075 35.6887L39.1077 38.7523Z" fill="#326295"/>
<path d="M46.3132 37.4692C44.1525 37.4692 42.3945 35.7029 42.3945 33.5318C42.3945 31.3604 44.1525 29.5938 46.3132 29.5938C48.4739 29.5938 50.2319 31.3604 50.2319 33.5315C50.2319 35.7029 48.4739 37.4692 46.3132 37.4692ZM46.3132 31.3635C45.1279 31.3635 44.1643 32.3362 44.1643 33.5315C44.1643 34.7264 45.1284 35.6991 46.3132 35.6991C47.4985 35.6991 48.4622 34.7264 48.4622 33.5315C48.4622 32.3362 47.4984 31.3635 46.3132 31.3635Z" fill="#326295"/>
<path d="M46.3126 50.8312C45.8239 50.8312 45.4277 50.4351 45.4277 49.9464V42.8673C45.4277 42.3785 45.8239 41.9824 46.3126 41.9824C46.8014 41.9824 47.1975 42.3785 47.1975 42.8673V49.9464C47.1975 50.4351 46.8014 50.8312 46.3126 50.8312Z" fill="#326295"/>
<path d="M49.8526 47.2914H42.7736C42.2848 47.2914 41.8887 46.8952 41.8887 46.4065C41.8887 45.9177 42.2848 45.5216 42.7736 45.5216H49.8526C50.3414 45.5216 50.7375 45.9177 50.7375 46.4065C50.7375 46.8952 50.3414 47.2914 49.8526 47.2914Z" fill="#326295"/>
<path d="M56.9307 57.0256H35.6935C35.2047 57.0256 34.8086 56.6295 34.8086 56.1407C34.8086 55.652 35.2047 55.2559 35.6935 55.2559H56.9307C57.4194 55.2559 57.8155 55.652 57.8155 56.1407C57.8155 56.6295 57.4191 57.0256 56.9307 57.0256Z" fill="#326295"/>
<path d="M56.9307 62.3352H35.6935C35.2047 62.3352 34.8086 61.9391 34.8086 61.4503C34.8086 60.9616 35.2047 60.5654 35.6935 60.5654H56.9307C57.4194 60.5654 57.8155 60.9616 57.8155 61.4503C57.8155 61.9391 57.4191 62.3352 56.9307 62.3352Z" fill="#326295"/>
<path d="M56.9307 67.6439H35.6935C35.2047 67.6439 34.8086 67.2478 34.8086 66.759C34.8086 66.2703 35.2047 65.8741 35.6935 65.8741H56.9307C57.4194 65.8741 57.8155 66.2703 57.8155 66.759C57.8155 67.2478 57.4191 67.6439 56.9307 67.6439Z" fill="#326295"/>
</svg>
