<svg width="103" height="98" viewBox="0 0 103 98" fill="none" xmlns="http://www.w3.org/2000/svg">
<path d="M86.3527 29.9375C96.1301 46.8725 76.0113 72.4775 59.0763 82.2549C42.1414 92.0323 26.3253 85.5145 16.5479 68.5796C6.77055 51.6447 9.29758 35.1451 26.2325 25.3677C43.1675 15.5904 76.5753 13.0026 86.3527 29.9375Z" fill="#F6F7F7"/>
<path d="M49.4259 48.9074C48.9371 48.9074 48.541 48.5113 48.541 48.0225V40.9435C48.541 40.4547 48.9371 40.0586 49.4259 40.0586C49.9147 40.0586 50.3108 40.4547 50.3108 40.9435V48.0225C50.3108 48.5113 49.9147 48.9074 49.4259 48.9074Z" fill="#326295"/>
<path d="M52.9659 45.3684H45.8868C45.3981 45.3684 45.002 44.9723 45.002 44.4835C45.002 43.9948 45.3981 43.5986 45.8868 43.5986H52.9659C53.4547 43.5986 53.8508 43.9948 53.8508 44.4835C53.8508 44.9723 53.4547 45.3684 52.9659 45.3684Z" fill="#326295"/>
<path d="M58.2327 54.0586H39.7712C39.3463 54.0586 39.002 53.6109 39.002 53.0586C39.002 52.5063 39.3463 52.0586 39.7712 52.0586H58.2327C58.6576 52.0586 59.002 52.5063 59.002 53.0586C59.002 53.6109 58.6573 54.0586 58.2327 54.0586Z" fill="#326295"/>
<path d="M58.2327 59.0586H39.7712C39.3463 59.0586 39.002 58.6109 39.002 58.0586C39.002 57.5063 39.3463 57.0586 39.7712 57.0586H58.2327C58.6576 57.0586 59.002 57.5063 59.002 58.0586C59.002 58.6109 58.6573 59.0586 58.2327 59.0586Z" fill="#326295"/>
<path d="M58.2327 64.0586H39.7712C39.3463 64.0586 39.002 63.6109 39.002 63.0586C39.002 62.5063 39.3463 62.0586 39.7712 62.0586H58.2327C58.6576 62.0586 59.002 62.5063 59.002 63.0586C59.002 63.6109 58.6573 64.0586 58.2327 64.0586Z" fill="#326295"/>
<path d="M63.8216 40.0721C63.8216 40.0043 63.814 39.9384 63.8001 39.8747C63.7986 39.8676 63.7956 39.8612 63.7929 39.854C63.7832 39.808 63.7696 39.7632 63.7523 39.7206C63.7523 39.7199 63.7515 39.7191 63.7515 39.7184C63.7477 39.7097 63.7436 39.7007 63.7406 39.692C63.7346 39.68 63.7274 39.669 63.7214 39.657C63.698 39.6118 63.675 39.5684 63.6456 39.5278C63.6362 39.5138 63.6242 39.5021 63.614 39.4886C63.5876 39.4558 63.5609 39.423 63.5307 39.394C63.5236 39.3884 63.5183 39.3823 63.5123 39.3767L63.5104 39.3756C63.5096 39.3752 63.5089 39.3744 63.5081 39.3737L54.6301 30.4926C54.6286 30.4907 54.6263 30.4892 54.6248 30.4869C54.5856 30.4263 54.5385 30.3709 54.4873 30.3212C54.4756 30.3103 54.4636 30.3016 54.4504 30.2914C54.4086 30.2549 54.3637 30.2221 54.3159 30.1935C54.2967 30.1825 54.2782 30.1727 54.2597 30.1629C54.2127 30.1392 54.1637 30.12 54.1121 30.1042C54.0928 30.0982 54.0744 30.091 54.0552 30.0865C53.9847 30.0699 53.912 30.0586 53.8374 30.0586C53.8374 30.0586 53.8374 30.0586 53.8367 30.0586H35.9438C35.4235 30.0586 35.002 30.4802 35.002 31.0004V68.8616C35.002 69.3819 35.4235 69.8034 35.9438 69.8034H62.8801C63.4004 69.8034 63.822 69.3819 63.822 68.8616V40.0755C63.8216 40.074 63.8216 40.0736 63.8216 40.0721ZM54.7785 33.3056L60.6032 39.1303H54.7785V33.3056ZM36.8852 67.9202V31.9426H52.8952V40.0721C52.8952 40.5924 53.3168 41.014 53.837 41.014H61.9379V67.9202H36.8852Z" fill="#326295"/>
</svg>
