<svg width="103" height="98" viewBox="0 0 103 98" fill="none" xmlns="http://www.w3.org/2000/svg">
<path d="M86.4699 30.0537C96.2473 46.9887 76.1285 72.5937 59.1935 82.3711C42.2586 92.1485 26.4425 85.6308 16.6651 68.6958C6.88774 51.7609 9.41476 35.2614 26.3497 25.484C43.2847 15.7066 76.6925 13.1188 86.4699 30.0537Z" fill="#F6F7F7"/>
<path d="M39.0597 49.6763C41.4638 53.8851 44.2895 56.8694 48.6993 59.119C49.0817 58.782 49.2859 58.5045 49.6023 58.1029C50.8531 56.4896 52.4111 54.5529 54.9626 55.7202C56.6273 56.5453 59.8992 58.2796 61.2828 59.2844C61.8096 59.647 62.1904 60.1042 62.4469 60.6239C62.9913 61.7303 62.9207 62.9991 62.5751 64.1476C62.397 64.7387 62.1374 65.3246 61.8295 65.8556C60.6739 67.8442 58.7551 68.8813 56.5413 69.4447C53.85 70.1268 51.4182 70.1456 48.7431 69.3379C46.7244 68.7264 44.8485 67.7381 43.0571 66.6551L42.826 66.5152C41.9568 65.985 41.0231 65.4149 40.0671 64.7184L40.0602 64.7124C38.2181 63.3541 36.3638 61.6829 34.6822 59.8132C33.125 58.0818 31.706 56.1685 30.5734 54.1626C29.5353 52.3237 28.7398 50.3923 28.2967 48.4368C27.6663 45.6517 27.7131 42.4455 29.1122 39.8763C30.75 36.8694 33.7224 35.6404 37.0502 35.9277L37.1324 35.9375C37.7075 36.0082 38.2304 36.3519 38.5137 36.8483L42.3 43.1171C42.6701 43.6075 42.8851 44.1122 42.9573 44.6304C43.233 46.6212 41.5667 47.8456 40.1408 48.8693C39.6548 49.2152 39.1119 49.6011 39.0597 49.6763V49.6763ZM46.1907 45.7503C45.6225 45.6066 45.2808 45.0373 45.4275 44.4807C45.5741 43.9234 46.1554 43.5887 46.7236 43.7331C50.1098 44.598 53.1874 47.3289 54.2393 50.6187C54.4136 51.1684 54.1011 51.7543 53.5391 51.9251C52.9778 52.0965 52.3796 51.7897 52.2053 51.2391C51.3745 48.6414 48.8613 46.4309 46.1907 45.7503V45.7503ZM46.332 39.3611C45.7523 39.2648 45.3622 38.7248 45.4605 38.157C45.5588 37.5891 46.1101 37.2063 46.6898 37.3033C53.2434 38.415 59.0361 43.8151 60.6693 50.105C60.8144 50.6638 60.4689 51.2331 59.8984 51.3753C59.3271 51.5174 58.7459 51.179 58.6015 50.6194C57.171 45.1095 52.0763 40.3366 46.332 39.3611V39.3611ZM47.0169 33.5616C46.4326 33.4962 46.0126 32.978 46.0794 32.4056C46.1462 31.834 46.6745 31.4219 47.2588 31.4873C56.3724 32.532 64.3611 39.6777 66.353 48.4345C66.4796 48.9964 66.1172 49.5522 65.5444 49.6763C64.9716 49.8004 64.4034 49.4454 64.2774 48.8843C62.4807 40.9887 55.2352 34.5032 47.0169 33.5616ZM37.0886 50.6593C37.0525 50.6014 37.021 50.5404 36.9949 50.4758C36.3538 48.8828 37.6691 47.9472 38.8431 47.1138C39.4075 46.7152 40.3904 46.0639 40.6822 45.4028C40.8534 45.0185 40.7705 44.7319 40.5224 44.4047L40.4226 44.2656L36.6855 38.0773C34.3028 37.9141 32.2427 38.7263 31.061 40.8939C29.9215 42.9855 29.9415 45.7134 30.4521 47.9697C30.8437 49.7003 31.5655 51.4392 32.5138 53.1194C34.6276 56.8649 37.9094 60.4111 41.3924 62.9841C42.2401 63.603 43.1485 64.1588 43.9947 64.6748L44.2304 64.8192C47.2826 66.6769 50.5774 68.2105 54.3069 67.6712C54.8766 67.5892 55.4479 67.4854 55.9862 67.3493C58.1147 66.807 59.774 65.7977 60.4536 63.5369C60.6954 62.7321 60.8114 61.622 60.0243 61.0647C58.3028 59.9636 55.8434 58.6233 54.0082 57.6719C53.0614 57.259 52.1262 58.4203 51.363 59.4048C50.8132 60.1087 50.2219 60.9128 49.345 61.2347C48.9151 61.3926 48.4697 61.3881 48.0458 61.2174L47.903 61.1579C42.9596 58.6888 39.7615 55.3614 37.0886 50.6593Z" fill="#326295"/>
</svg>
