<svg width="102" height="97" viewBox="0 0 102 97" fill="none" xmlns="http://www.w3.org/2000/svg">
<path d="M86.0949 29.46C95.8723 46.3949 75.7535 71.9999 58.8185 81.7773C41.8836 91.5547 26.0675 85.037 16.2901 68.1021C6.51274 51.1671 9.03976 34.6676 25.9747 24.8902C42.9097 15.1128 76.3175 12.525 86.0949 29.46Z" fill="#F6F7F7"/>
<path d="M54.6601 49.587C48.1486 49.587 42.8516 44.3961 42.8516 38.0166H44.6835C44.6835 43.3868 49.1591 47.7551 54.6601 47.7551C60.1613 47.7551 64.6368 43.3864 64.6368 38.0166H66.4687C66.4687 44.3964 61.1715 49.587 54.6601 49.587Z" fill="#326295"/>
<path d="M66.4707 38.0171H64.6388V30.7524C64.6388 30.1893 64.1611 29.7313 63.5743 29.7313H60.6035V27.8994H63.5743C65.1716 27.8998 66.4707 29.1797 66.4707 30.7524V38.0171Z" fill="#326295"/>
<path d="M43.7695 69.9278C37.2579 69.9278 31.9609 64.7369 31.9609 58.3574H33.7929C33.7929 63.7276 38.2685 68.0959 43.7695 68.0959C49.2707 68.0959 53.7461 63.7272 53.7461 58.3574H55.578C55.5777 64.7373 50.2805 69.9278 43.7695 69.9278Z" fill="#326295"/>
<path d="M53.7461 49.1553H55.578V58.357H53.7461V49.1553Z" fill="#326295"/>
<path d="M31.9609 51.0928H33.7929V58.3574H31.9609V51.0928Z" fill="#326295"/>
<path d="M44.6835 38.0171H42.8516V30.7524C42.8516 29.1796 44.1508 27.8994 45.7479 27.8994H48.7187V29.7313L45.7479 29.7317C45.1611 29.7317 44.6835 30.1897 44.6835 30.7528V38.0171Z" fill="#326295"/>
<path d="M49.0683 31.5813C48.5624 31.5813 48.1523 31.1713 48.1523 30.6653V26.916C48.1523 26.41 48.5624 26 49.0683 26C49.5742 26 49.9843 26.41 49.9843 26.916V30.6653C49.9843 31.1713 49.5742 31.5813 49.0683 31.5813Z" fill="#326295"/>
<path d="M60.0585 31.5809C59.5526 31.5809 59.1426 31.1709 59.1426 30.6649V26.9921C59.1426 26.4862 59.5526 26.0762 60.0585 26.0762C60.5645 26.0762 60.9745 26.4862 60.9745 26.9921V30.6649C60.9745 31.1709 60.5645 31.5809 60.0585 31.5809Z" fill="#326295"/>
<path d="M32.8768 52.0085C30.188 52.0085 28 49.8596 28 47.2183C28 44.5767 30.188 42.4277 32.8768 42.4277C35.5659 42.4277 37.7539 44.5767 37.7539 47.2183C37.7539 49.8596 35.5659 52.0085 32.8768 52.0085ZM32.8768 44.2597C31.1976 44.2597 29.8319 45.5867 29.8319 47.2183C29.8319 48.8499 31.1976 50.1769 32.8768 50.1769C34.5559 50.1769 35.922 48.8499 35.922 47.2183C35.922 45.5867 34.5559 44.2597 32.8768 44.2597Z" fill="#326295"/>
</svg>
