<svg width="27" height="29" viewBox="0 0 27 29" fill="none" xmlns="http://www.w3.org/2000/svg">
<path d="M26.0918 1.73296L20.5597 0.362932C19.9817 0.191678 19.3212 0.534185 19.0735 1.13357L16.5138 7.29871C16.2661 7.81247 16.4313 8.49749 16.8441 8.84L20.0643 11.5801C18.1652 15.7758 14.8625 19.2865 10.734 21.2559L8.09182 17.9164C7.76155 17.4883 7.10099 17.3171 6.60558 17.5739L0.660629 20.2284C0.0826471 20.4853 -0.247628 21.0846 -0.0824905 21.7697L1.15604 27.5067C1.32118 28.106 1.81659 28.5342 2.39457 28.5342C15.9359 28.5342 26.9175 17.1458 26.9175 3.10299C27.0001 2.41798 26.6698 1.81859 26.0918 1.73296Z" fill="#1C97D1"/>
</svg>
