<svg width="102" height="98" viewBox="0 0 102 98" fill="none" xmlns="http://www.w3.org/2000/svg">
<path d="M86.0949 29.8818C95.8723 46.8168 75.7535 72.4218 58.8185 82.1992C41.8836 91.9766 26.0675 85.4589 16.2901 68.5239C6.51274 51.589 9.03976 35.0895 25.9747 25.3121C42.9097 15.5347 76.3175 12.9469 86.0949 29.8818Z" fill="#F6F7F7"/>
<path d="M60.8196 41.494C60.8196 41.4262 60.8121 41.3603 60.7981 41.2966C60.7966 41.2894 60.7936 41.283 60.791 41.2759C60.7812 41.2299 60.7676 41.1851 60.7503 41.1425C60.7503 41.1418 60.7496 41.141 60.7496 41.1403C60.7458 41.1316 60.7416 41.1225 60.7386 41.1139C60.7326 41.1018 60.7254 41.0909 60.7194 41.0788C60.6961 41.0336 60.6731 40.9903 60.6437 40.9496C60.6343 40.9357 60.6222 40.924 60.612 40.9104C60.5857 40.8777 60.5589 40.8449 60.5288 40.8159C60.5216 40.8102 60.5164 40.8042 60.5103 40.7986L60.5084 40.7974C60.5077 40.7971 60.5069 40.7963 60.5062 40.7955L51.6281 31.9145C51.6266 31.9126 51.6243 31.9111 51.6228 31.9088C51.5837 31.8482 51.5366 31.7928 51.4853 31.7431C51.4737 31.7321 51.4616 31.7235 51.4484 31.7133C51.4066 31.6767 51.3618 31.644 51.3139 31.6153C51.2947 31.6044 51.2763 31.5946 51.2578 31.5848C51.2107 31.5611 51.1617 31.5419 51.1101 31.5261C51.0909 31.52 51.0724 31.5129 51.0532 31.5083C50.9828 31.4918 50.9101 31.4805 50.8355 31.4805C50.8355 31.4805 50.8355 31.4805 50.8347 31.4805H32.9418C32.4216 31.4805 32 31.902 32 32.4223V70.2835C32 70.8038 32.4216 71.2253 32.9418 71.2253H59.8782C60.3984 71.2253 60.82 70.8038 60.82 70.2835V41.4974C60.8196 41.4959 60.8196 41.4955 60.8196 41.494ZM51.7766 34.7275L57.6012 40.5522H51.7766V34.7275ZM33.8833 69.342V33.3645H49.8933V41.494C49.8933 42.0143 50.3148 42.4358 50.8351 42.4358H58.936V69.342H33.8833Z" fill="#326295"/>
<path d="M55.7006 65.2295H37.1152V66.3597H55.7006V65.2295Z" fill="#326295"/>
<path d="M55.7006 61.4619H37.1152V62.5921H55.7006V61.4619Z" fill="#326295"/>
<path d="M55.7006 57.6942H37.1152V58.8244H55.7006V57.6942Z" fill="#326295"/>
<path d="M55.7006 53.9268H37.1152V55.057H55.7006V53.9268Z" fill="#326295"/>
<path d="M55.7006 50.1593H37.1152V51.2895H55.7006V50.1593Z" fill="#326295"/>
</svg>
