<svg width="25" height="25" viewBox="0 0 25 25" fill="none" xmlns="http://www.w3.org/2000/svg">
<path d="M13.5419 18.7506C13.5419 19.3258 13.0756 19.7922 12.5003 19.7922C11.9251 19.7922 11.4587 19.3258 11.4587 18.7506C11.4587 18.1753 11.9251 17.709 12.5003 17.709C13.0756 17.709 13.5419 18.1753 13.5419 18.7506Z" fill="#081F41"/>
<path d="M12.5 25C5.60722 25 0 19.3928 0 12.5C0 5.60722 5.60722 0 12.5 0C19.3928 0 25 5.60722 25 12.5C25 19.3928 19.3928 25 12.5 25ZM12.5 1.5625C6.46877 1.5625 1.5625 6.46877 1.5625 12.5C1.5625 18.5312 6.46877 23.4375 12.5 23.4375C18.5312 23.4375 23.4375 18.5312 23.4375 12.5C23.4375 6.46877 18.5312 1.5625 12.5 1.5625Z" fill="#081F41"/>
<path d="M12.4997 15.3641C12.0684 15.3641 11.7184 15.0141 11.7184 14.5828V13.5307C11.7184 12.5391 12.3476 11.6505 13.283 11.3203C14.5277 10.8818 15.3643 9.55561 15.3643 8.59316C15.3643 7.01292 14.0799 5.72852 12.4997 5.72852C10.9194 5.72852 9.63501 7.01292 9.63501 8.59316C9.63501 9.02441 9.28501 9.37441 8.85376 9.37441C8.42251 9.37441 8.07251 9.02441 8.07251 8.59316C8.07251 6.15252 10.0581 4.16602 12.4997 4.16602C14.9413 4.16602 16.9268 6.15252 16.9268 8.59316C16.9268 10.3308 15.5548 12.1755 13.8028 12.7943C13.4903 12.9036 13.2809 13.2004 13.2809 13.5317V14.5828C13.2809 15.0141 12.9309 15.3641 12.4997 15.3641V15.3641Z" fill="#081F41"/>
</svg>
