<svg width="27" height="28" viewBox="0 0 27 28" fill="none" xmlns="http://www.w3.org/2000/svg">
<path d="M13.4613 18.0894C12.0688 18.0894 10.9857 19.2531 10.9857 20.572C10.9857 21.9686 12.1461 23.0547 13.4613 23.0547C14.8539 23.0547 15.937 21.891 15.937 20.572C16.0143 19.2531 14.8539 18.0894 13.4613 18.0894ZM13.8481 4.58972C10.9083 4.58972 8.97421 5.83107 7.5043 8.08101C7.34957 8.39134 7.34957 8.77926 7.65903 8.93443L9.51576 10.3309C9.82522 10.5637 10.212 10.4861 10.4441 10.2534C11.4499 9.01201 12.0688 8.31376 13.5387 8.31376C14.6218 8.31376 16.0143 9.01201 16.0143 10.0982C16.0143 10.9516 15.3181 11.3395 14.235 11.9602C12.9198 12.6585 11.2951 13.5895 11.2951 15.8394V16.0722C11.2951 16.4601 11.6046 16.6928 11.914 16.6928H14.9312C15.3181 16.6928 15.5501 16.3825 15.5501 16.0722V15.9946C15.5501 14.4429 20.0372 14.3653 20.0372 10.1758C20.192 6.99483 16.9427 4.58972 13.8481 4.58972ZM27 13.5895C27 21.0375 20.9656 27.0891 13.5387 27.0891C6.03438 27.1667 0 21.1151 0 13.5895C0 6.1414 6.03438 0.0898438 13.4613 0.0898438C20.9656 0.0898438 27 6.1414 27 13.5895Z" fill="#1C97D1"/>
</svg>
