<svg width="29" height="33" viewBox="0 0 29 33" fill="none" xmlns="http://www.w3.org/2000/svg">
<path d="M20.0291 17.7193C15.1375 17.7193 11.1582 13.8198 11.1582 9.02734H12.5344C12.5344 13.0616 15.8966 16.3432 20.0291 16.3432C24.1617 16.3432 27.5238 13.0613 27.5238 9.02734H28.9C28.9 13.8201 24.9206 17.7193 20.0291 17.7193Z" fill="#010101"/>
<path d="M28.8998 9.02745H27.5236V3.57003C27.5236 3.14697 27.1648 2.80295 26.724 2.80295H24.4922V1.42676H26.724C27.9239 1.42703 28.8998 2.38851 28.8998 3.57003V9.02745Z" fill="#010101"/>
<path d="M11.8494 32.9996C6.95776 32.9996 2.97852 29.1001 2.97852 24.3076H4.3547C4.3547 28.3418 7.71694 31.6234 11.8494 31.6234C15.982 31.6234 19.3441 28.3416 19.3441 24.3076H20.7203C20.7201 29.1003 16.7407 32.9996 11.8494 32.9996Z" fill="#010101"/>
<path d="M19.3418 17.3945H20.718V24.3071H19.3418V17.3945Z" fill="#010101"/>
<path d="M2.97852 18.8506H4.3547V24.308H2.97852V18.8506Z" fill="#010101"/>
<path d="M12.5344 9.02745H11.1582V3.57003C11.1582 2.38844 12.1342 1.42676 13.334 1.42676H15.5658V2.80295L13.334 2.80322C12.8932 2.80322 12.5344 3.14726 12.5344 3.5703V9.02745Z" fill="#010101"/>
<path d="M15.8268 4.19283C15.4467 4.19283 15.1387 3.8848 15.1387 3.50474V0.688094C15.1387 0.308032 15.4467 0 15.8268 0C16.2068 0 16.5149 0.308032 16.5149 0.688094V3.50474C16.5149 3.8848 16.2068 4.19283 15.8268 4.19283Z" fill="#010101"/>
<path d="M24.0826 4.19293C23.7026 4.19293 23.3945 3.88489 23.3945 3.50483V0.745711C23.3945 0.365649 23.7026 0.0576172 24.0826 0.0576172C24.4627 0.0576172 24.7707 0.365649 24.7707 0.745711V3.50483C24.7707 3.88489 24.4627 4.19293 24.0826 4.19293Z" fill="#010101"/>
<path d="M3.66355 19.5381C1.64365 19.5381 0 17.9238 0 15.9396C0 13.9552 1.64365 12.3408 3.66355 12.3408C5.68373 12.3408 7.32738 13.9552 7.32738 15.9396C7.32738 17.9238 5.68373 19.5381 3.66355 19.5381ZM3.66355 13.717C2.40214 13.717 1.37619 14.7139 1.37619 15.9396C1.37619 17.1653 2.40214 18.1622 3.66355 18.1622C4.92497 18.1622 5.95119 17.1653 5.95119 15.9396C5.95119 14.7139 4.92497 13.717 3.66355 13.717Z" fill="#010101"/>
</svg>
