<svg width="204" height="58" viewBox="0 0 204 58" fill="none" xmlns="http://www.w3.org/2000/svg">
<path d="M36.097 0.115356H0.264404V36.292H36.097V0.115356Z" fill="url(#paint0_linear_1_1673)"/>
<path d="M34.9876 18.4017C34.9876 25.9525 35.3347 33.6785 35.3347 33.6785C35.3491 33.8566 35.3275 34.0358 35.2712 34.2051C35.2149 34.3745 35.1251 34.5306 35.0073 34.6638C34.8894 34.7971 34.7459 34.9048 34.5855 34.9803C34.4252 35.0559 34.2513 35.0977 34.0744 35.1033H3.06422C2.3699 35.1033 1.8869 34.4785 1.80388 33.6785C1.17 28.1399 0.872604 22.5674 0.913351 16.9921C0.913351 6.91935 1.80388 2.1725 1.80388 2.1725C1.90954 1.34199 2.3699 0.747681 3.06422 0.747681H34.0744C34.4282 0.769301 34.7591 0.931182 34.9952 1.19806C35.2312 1.46494 35.3533 1.81518 35.3347 2.1725C35.3347 2.1725 34.9876 10.8586 34.9876 18.4017Z" fill="url(#paint1_linear_1_1673)"/>
<path d="M28.0899 9.88396C25.8711 11.1945 25.1994 11.3012 22.8071 12.7565L22.9203 12.4898C23.8858 11.4909 24.7645 10.4101 25.5466 9.25917C22.9474 9.37407 20.3597 9.67709 17.8035 10.1659V10.1659L17.9242 9.91443C20.4677 8.81885 23.1376 8.05088 25.8711 7.62863C25.3881 6.94289 21.4562 4.79423 20.4826 4.38279L20.5958 4.13135C23.6236 4.5502 26.5527 5.51271 29.2446 6.97337C30.168 6.75349 31.1112 6.62841 32.0595 6.60002C32.0595 6.60002 31.8633 7.42291 30.3917 8.43628C30.7539 9.4268 29.8785 14.8823 29.1615 16.3299C29.1238 14.0136 28.9276 11.1335 28.0899 9.88396Z" fill="url(#paint2_linear_1_1673)"/>
<path d="M11.894 29.4426L12.0072 29.1911C10.8035 28.8396 9.68022 28.2519 8.70169 27.4616V27.4616C8.99681 26.63 9.40307 25.843 9.9092 25.1224V25.1224L10.0224 24.871C9.01112 25.0234 8.09794 25.3967 7.2225 25.572C6.58036 24.1428 6.14084 22.6295 5.91689 21.0765L5.80369 21.3356C5.57331 22.8506 5.57331 24.3922 5.80369 25.9072V25.9072C5.14252 26.0243 4.48959 26.1846 3.84904 26.3872L3.73584 26.6387C4.6191 27.2041 5.53659 27.713 6.48291 28.1625V28.1625C6.98213 29.2893 7.69486 30.3065 8.58094 31.1569V31.1569L8.70169 30.9055C8.4687 30.2541 8.36361 29.5631 8.39227 28.8711C9.52768 29.2244 10.7062 29.4167 11.894 29.4426V29.4426Z" fill="url(#paint3_linear_1_1673)"/>
<path d="M15.1614 11.2695C14.8378 11.9052 14.5628 12.5649 14.3388 13.2429H14.2558C16.3567 13.5417 18.3956 14.1824 20.2933 15.1402L20.1801 15.384C18.3917 15.0094 16.5599 14.8914 14.7388 15.0335V15.0335C14.3008 15.0364 13.8667 15.1164 13.4558 15.2697V15.2697C12.928 16.6877 12.5535 18.1592 12.3389 19.6584L12.2182 19.9099C11.6974 18.6374 10.9427 16.1002 10.9427 16.1002C9.50127 16.8621 6.1731 20.0318 6.1731 20.0318C7.07756 18.045 8.30732 16.2265 9.8107 14.6525V14.6525C9.16921 14.0049 7.4938 13.6772 6.27875 13.6239L6.38441 13.3725C7.51336 13.1473 8.66006 13.0249 9.8107 13.0067V13.0067C10.4794 12.9704 11.1495 12.9704 11.8182 13.0067V13.0067C12.8131 12.2183 13.9478 11.6287 15.1614 11.2695V11.2695Z" fill="url(#paint4_linear_1_1673)"/>
<path d="M18.6786 27.1495C18.0975 27.9114 17.5994 28.5667 16.9654 29.2905C15.9944 29.4642 15.0066 29.523 14.0221 29.4658L13.9089 29.7172C14.5323 30.0415 15.198 30.275 15.8862 30.4106V30.4106C15.3111 30.8738 14.7032 31.294 14.0674 31.6678L13.9542 31.9116C15.2415 31.6186 16.4831 31.1495 17.6446 30.5172V30.5172C18.1496 30.543 18.6558 30.5123 19.154 30.4258V30.4258C19.154 30.4258 19.2748 30.1667 19.2748 30.1744C19.1993 29.9153 18.9729 29.7629 18.9125 29.4124C19.8421 28.6666 20.722 27.8598 21.5464 26.9971L21.6671 26.738C20.7561 27.4386 19.795 28.0701 18.7918 28.6276V28.6276C18.7314 28.1248 18.7012 27.7057 18.6786 27.1495Z" fill="url(#paint5_linear_1_1673)"/>
<path d="M28.2029 9.63252C25.9917 10.943 25.3125 11.0573 22.9201 12.505C23.9365 11.4366 24.8536 10.2761 25.6596 9.03821C23.0629 9.14716 20.4774 9.44765 17.9241 9.93729V9.93729C20.4835 8.71084 23.1983 7.84678 25.9917 7.36957C25.5087 6.69907 21.5692 4.54279 20.5957 4.13135C23.6561 4.38668 26.6351 5.2571 29.3576 6.69145C30.2866 6.47515 31.2347 6.35264 32.1877 6.32572V6.32572C31.8517 7.1125 31.2573 7.75832 30.5047 8.15437C30.8745 9.14488 29.9991 14.6003 29.2746 16.0404C29.2444 13.7622 29.0482 10.8821 28.2029 9.63252Z" fill="white"/>
<path d="M12.0068 29.1911C10.8153 28.7675 9.72696 28.0921 8.81449 27.2101V27.2101C9.11425 26.3806 9.52019 25.5942 10.022 24.871C8.98806 25.0234 8.22583 25.1453 7.3353 25.3129C6.63932 23.9872 6.1602 22.5566 5.91648 21.0765C5.69061 22.5919 5.69061 24.1328 5.91648 25.6481C5.20741 25.8436 4.51573 26.0985 3.84863 26.4101V26.4101C4.73282 26.9784 5.653 27.4874 6.60325 27.934V27.934C7.09989 29.0622 7.81296 30.0799 8.70128 30.9284C8.47725 30.1889 8.41039 29.4099 8.50506 28.6426V28.6426C9.64156 28.9881 10.8201 29.1727 12.0068 29.1911V29.1911Z" fill="white"/>
<path d="M15.3199 11.0576C14.8975 11.6487 14.5667 12.3013 14.3388 12.9929V12.9929C16.4252 13.3166 18.4296 14.0463 20.2404 15.1416V15.1416C18.4528 14.7616 16.6205 14.641 14.7991 14.7835V14.7835C14.3626 14.7949 13.9302 14.8719 13.5162 15.0121V15.0121C12.9463 16.5136 12.534 18.0714 12.286 19.6599V19.6599C11.7653 18.3874 11.0106 15.8502 11.0106 15.8502C9.5616 16.6121 6.24097 19.7894 6.24097 19.7894C7.1549 17.7969 8.40059 15.9774 9.92385 14.4101V14.4101C9.28236 13.7549 7.6145 13.4349 6.38436 13.3739C7.52818 13.0157 8.71248 12.8057 9.90876 12.7491V12.7491C10.5781 12.7222 11.2484 12.7349 11.9162 12.7872V12.7872C12.9301 11.9951 14.0857 11.4078 15.3199 11.0576V11.0576Z" fill="white"/>
<path d="M18.7914 26.8984C18.2103 27.6603 17.7197 28.3156 17.0782 29.0394C16.0856 29.3319 15.0558 29.4756 14.0217 29.4661C14.6481 29.7895 15.3162 30.0229 16.0066 30.1594V30.1594C15.4086 30.7275 14.7593 31.2377 14.067 31.6833V31.6833C15.3564 31.3936 16.5988 30.9216 17.7574 30.2813V30.2813C18.2624 30.3068 18.7685 30.2761 19.2668 30.1899C19.1617 29.8555 19.0785 29.5144 19.0178 29.1689V29.1689C19.9551 28.4268 20.8379 27.6171 21.6592 26.746V26.746C20.7787 27.3686 19.8441 27.9092 18.8668 28.3613C18.8668 27.8736 18.814 27.4546 18.7914 26.8984Z" fill="white"/>
<path d="M4.27909 48.3075C4.18852 47.5456 3.9923 46.7836 2.88291 46.7836C2.19615 46.7836 1.60749 47.1189 1.60749 47.8884C1.60749 49.7171 5.70545 49.7094 5.70545 52.3381C5.70545 54.0144 4.55832 54.8525 2.88291 54.8525C2.33871 54.8565 1.79995 54.743 1.30274 54.5196C0.805534 54.2962 0.361365 53.9681 0 53.5572L0.686767 52.4981C0.969441 52.8251 1.31711 53.0884 1.70718 53.2709C2.09724 53.4534 2.52098 53.5509 2.95083 53.5572C3.70552 53.5572 4.28663 53.2448 4.28663 52.4829C4.28663 50.8447 0.203766 50.7685 0.203766 47.9875C0.203766 46.2807 1.47164 45.4807 2.89801 45.4807C3.25318 45.4512 3.6105 45.4983 3.94627 45.6189C4.28203 45.7395 4.58855 45.9308 4.84549 46.1801C5.10243 46.4294 5.30391 46.731 5.43656 47.065C5.56921 47.3989 5.63 47.7575 5.61489 48.117L4.27909 48.3075Z" fill="#010101"/>
<path d="M8.3616 51.6375C8.42198 53.2223 9.06346 53.6718 10.0219 53.6718C10.669 53.6462 11.2908 53.4111 11.7954 53.0013L12.0068 54.0985C11.3492 54.5846 10.5576 54.8509 9.74268 54.8605C8.05973 54.8605 6.9126 53.8395 6.9126 51.2717C6.9126 48.704 7.92388 47.6754 9.65967 47.6754C11.3955 47.6754 12.0747 48.8259 12.0747 50.5403V51.6375H8.3616ZM10.7615 50.5403C10.7615 49.3745 10.4294 48.8336 9.62193 48.8336C8.81441 48.8336 8.43707 49.3364 8.36915 50.5403H10.7615Z" fill="#010101"/>
<path d="M18.9129 49.0917L17.9846 49.0383C18.2323 49.4077 18.3493 49.8507 18.3167 50.2955C18.3423 50.6343 18.297 50.9747 18.1835 51.2945C18.07 51.6143 17.8909 51.9064 17.658 52.1516C17.4251 52.3968 17.1436 52.5896 16.8318 52.7175C16.5201 52.8454 16.1851 52.9054 15.8488 52.8937C15.6248 52.9064 15.4002 52.8807 15.1847 52.8175C14.9281 53.0004 14.7621 53.1147 14.7621 53.3509C14.7621 54.0671 18.8751 53.2214 18.8751 55.6824C18.8751 57.1682 17.328 57.8844 15.6602 57.8844C13.9923 57.8844 12.8301 57.2596 12.8301 56.1701C12.8529 55.8165 12.974 55.4767 13.1796 55.1896C13.3852 54.9025 13.6669 54.6798 13.9923 54.5471C13.8112 54.463 13.6595 54.3256 13.5572 54.1529C13.4548 53.9802 13.4066 53.7803 13.4187 53.5795C13.4429 53.3247 13.5302 53.0801 13.6727 52.8684C13.8151 52.6567 14.0081 52.4846 14.2338 52.368C13.9262 52.1162 13.6823 51.7943 13.5223 51.4286C13.3622 51.063 13.2905 50.6642 13.3131 50.2651C13.2853 49.9197 13.3315 49.5723 13.4485 49.2465C13.5655 48.9208 13.7505 48.6242 13.991 48.377C14.2316 48.1298 14.522 47.9378 14.8425 47.814C15.1631 47.6901 15.5063 47.6373 15.8488 47.6592C16.1779 47.6602 16.5044 47.7169 16.8148 47.8269H18.9053L18.9129 49.0917ZM14.1659 56.0177C14.1659 56.6348 14.9206 56.7796 15.6753 56.7796C16.4299 56.7796 17.4714 56.4367 17.4714 55.8424C17.4714 55.0043 16.3243 55.0195 15.2753 54.8748C14.7394 55.1415 14.1659 55.53 14.1659 56.0177ZM15.8488 48.7945C15.0941 48.7945 14.6489 49.2212 14.6489 50.3184C14.6489 51.4156 15.0941 51.7585 15.8488 51.7585C16.6035 51.7585 17.0488 51.3394 17.0488 50.2803C17.0488 49.2212 16.6035 48.7945 15.8488 48.7945Z" fill="#010101"/>
<path d="M21.2292 47.8287V52.5223C21.2108 52.6785 21.2278 52.8369 21.2791 52.9855C21.3303 53.134 21.4144 53.2689 21.525 53.3798C21.6356 53.4907 21.7697 53.5747 21.9172 53.6254C22.0647 53.6762 22.2217 53.6924 22.3763 53.6728C22.5309 53.6924 22.6879 53.6762 22.8354 53.6254C22.9829 53.5747 23.117 53.4907 23.2276 53.3798C23.3381 53.2689 23.4222 53.134 23.4735 52.9855C23.5247 52.8369 23.5418 52.6785 23.5234 52.5223V47.8287H24.9045V52.4842C24.9045 54.0842 23.8328 54.8462 22.3687 54.8462C20.9046 54.8462 19.8254 54.0842 19.8254 52.4842V47.8287H21.2292Z" fill="#010101"/>
<path d="M28.0067 47.8273V48.4978C28.2157 48.2399 28.478 48.0313 28.7752 47.8865C29.0724 47.7417 29.3974 47.6643 29.7274 47.6597C30.7387 47.6597 30.9273 48.5892 30.9273 49.595L29.7425 49.7397C29.7425 49.3283 29.6896 49.0388 29.3048 49.0388C28.8365 49.1368 28.4218 49.4087 28.1425 49.8007V54.7152H26.7539V47.8578L28.0067 47.8273Z" fill="#010101"/>
<path d="M37.0248 51.2865C37.0248 53.6561 36.0588 54.8447 34.2325 54.8447C32.4061 54.8447 31.425 53.8161 31.425 51.256C31.425 48.6959 32.4061 47.6597 34.2325 47.6597C36.0588 47.6597 37.0248 48.6959 37.0248 51.2865ZM32.8514 51.2865C32.8514 53.1456 33.3118 53.7018 34.2325 53.7018C35.1532 53.7018 35.5985 53.1456 35.5985 51.317C35.5985 49.4883 35.1532 48.8635 34.2325 48.8635C33.3118 48.8635 32.8514 49.374 32.8514 51.256V51.2865Z" fill="#010101"/>
<path d="M41.5078 49.8918C41.4549 49.2899 41.1908 48.8327 40.4587 48.8327C39.9229 48.8327 39.5154 49.0689 39.5154 49.5947C39.5154 50.89 42.6851 50.7757 42.6851 52.8558C42.6851 54.0901 41.8172 54.852 40.3606 54.852C39.4767 54.8758 38.6184 54.5505 37.9683 53.9453L38.4286 52.9167C38.9415 53.404 39.6186 53.6763 40.3229 53.6786C40.8587 53.6786 41.304 53.4729 41.304 52.9167C41.304 51.8348 38.1796 51.8424 38.1796 49.6632C38.1796 48.4518 39.0324 47.6517 40.4436 47.6517C42.0134 47.6517 42.6624 48.5661 42.6624 49.6785L41.5078 49.8918Z" fill="#010101"/>
<path d="M49.0925 54.5258V57.3298L47.6963 57.6422V47.8284H48.9491V48.4532C49.5012 47.9662 50.2083 47.6958 50.9415 47.6913C52.0886 47.6913 53.2055 48.3923 53.2055 51.2114C53.2055 53.8706 52.0056 54.8763 50.4358 54.8763C49.969 54.8532 49.5119 54.7339 49.0925 54.5258ZM49.0925 53.2839C49.4461 53.5294 49.8634 53.6645 50.2924 53.6725C51.0924 53.6725 51.7339 53.0401 51.7339 51.1809C51.7339 49.3218 51.1075 48.8951 50.4585 48.8951C49.965 48.909 49.4878 49.0767 49.0925 49.3752V53.2839Z" fill="#010101"/>
<path d="M57.8467 49.7397C57.8467 49.0921 57.4241 48.833 56.8505 48.833C56.7068 48.8186 56.5617 48.8357 56.4251 48.883C56.2885 48.9304 56.1636 49.007 56.059 49.1075C55.9544 49.208 55.8725 49.3302 55.819 49.4656C55.7654 49.601 55.7414 49.7465 55.7487 49.8921L54.5261 49.7626C54.5261 48.3683 55.6656 47.6597 56.9411 47.6597C58.3448 47.6597 59.2051 48.4216 59.2051 49.6102V53.1837C59.2051 53.5037 59.3561 53.6485 59.5749 53.6485C59.8198 53.6316 60.0527 53.5354 60.2391 53.3742L60.3749 54.3952C60.0532 54.6904 59.6323 54.8511 59.1976 54.8447C59.0607 54.8605 58.9221 54.8481 58.7902 54.8082C58.6582 54.7684 58.5356 54.702 58.4298 54.6129C58.324 54.5239 58.2372 54.4141 58.1746 54.2903C58.1119 54.1664 58.0749 54.031 58.0656 53.8923C57.8313 54.1888 57.534 54.4284 57.1957 54.5933C56.8573 54.7581 56.4866 54.8441 56.1109 54.8447C55.8651 54.8662 55.6175 54.8327 55.386 54.7464C55.1545 54.6601 54.9448 54.5233 54.7717 54.3457C54.5987 54.1681 54.4667 53.954 54.385 53.7189C54.3034 53.4838 54.2743 53.2334 54.2997 52.9856C54.2997 51.2331 55.96 50.5093 57.8618 50.5245L57.8467 49.7397ZM57.8467 51.5836C56.6618 51.5836 55.6656 51.9798 55.6656 52.8561C55.6656 53.3894 55.8921 53.6713 56.4203 53.6713C56.6954 53.6472 56.9629 53.5673 57.2067 53.4364C57.4504 53.3054 57.6656 53.1262 57.8391 52.9094L57.8467 51.5836Z" fill="#010101"/>
<path d="M62.5406 47.8273V48.4978C62.7496 48.2399 63.0119 48.0313 63.3091 47.8865C63.6063 47.7417 63.9313 47.6643 64.2613 47.6597C65.2726 47.6597 65.4613 48.5892 65.4613 49.595L64.2764 49.7397C64.2764 49.3283 64.2236 49.0388 63.8462 49.0388C63.3771 49.1347 62.9617 49.4071 62.684 49.8007V54.7152H61.2878V47.8578L62.5406 47.8273Z" fill="#010101"/>
<path d="M69.6499 49.7397C69.6499 49.0921 69.2273 48.833 68.6538 48.833C68.5106 48.8198 68.3664 48.8377 68.2307 48.8856C68.095 48.9335 67.9711 49.0102 67.8674 49.1106C67.7636 49.211 67.6824 49.3328 67.6293 49.4676C67.5762 49.6024 67.5524 49.7472 67.5594 49.8921L66.3293 49.7626C66.3293 48.3683 67.4689 47.6597 68.7443 47.6597C70.148 47.6597 71.0084 48.4216 71.0084 49.6102V53.1837C71.0084 53.5037 71.1593 53.6485 71.3782 53.6485C71.6227 53.6301 71.8551 53.534 72.0423 53.3742L72.1253 54.3952C71.8076 54.692 71.3884 54.8531 70.9556 54.8447C70.8183 54.8605 70.6793 54.8481 70.5469 54.8084C70.4145 54.7686 70.2914 54.7023 70.185 54.6134C70.0786 54.5244 69.9911 54.4147 69.9277 54.2908C69.8642 54.1669 69.8263 54.0314 69.816 53.8923C69.5889 54.1817 69.3014 54.4171 68.974 54.5817C68.6466 54.7463 68.2873 54.8361 67.9217 54.8447C67.6759 54.8662 67.4283 54.8327 67.1968 54.7464C66.9653 54.6601 66.7556 54.5233 66.5825 54.3457C66.4095 54.1681 66.2774 53.9541 66.1958 53.7189C66.1142 53.4838 66.0851 53.2334 66.1104 52.9856C66.1104 51.2331 67.7708 50.5093 69.6726 50.5245L69.6499 49.7397ZM69.6499 51.5836C68.4651 51.5836 67.4689 51.9798 67.4689 52.8561C67.4689 53.3894 67.6953 53.6713 68.2236 53.6713C68.4989 53.6481 68.7666 53.5685 69.0105 53.4375C69.2544 53.3066 69.4694 53.1269 69.6424 52.9094L69.6499 51.5836Z" fill="#010101"/>
<path d="M77.733 47.8287V52.5223C77.7856 52.7863 77.9271 53.0238 78.1334 53.1944C78.3398 53.3651 78.5983 53.4583 78.865 53.4583C79.1318 53.4583 79.3903 53.3651 79.5967 53.1944C79.803 53.0238 79.9445 52.7863 79.9971 52.5223V47.8287H81.3857V52.4842C81.3857 54.0842 80.314 54.8462 78.8499 54.8462C77.3858 54.8462 76.3066 54.0842 76.3066 52.4842V47.8287H77.733Z" fill="#010101"/>
<path d="M84.5253 48.4532C85.125 47.967 85.8693 47.6986 86.6384 47.6913C87.861 47.6913 88.6232 48.377 88.6232 49.8704V54.7087H87.2346V50.1371C87.2346 49.299 86.9554 49.0018 86.178 49.0018C85.6383 49.0241 85.1155 49.1983 84.6687 49.5047V54.6858H83.28V47.8284H84.5253V48.4532Z" fill="#010101"/>
<path d="M95.144 48.4533C95.7188 47.9747 96.4368 47.7062 97.1817 47.6914C97.4935 47.6618 97.8073 47.7211 98.0874 47.8625C98.3676 48.0039 98.6028 48.2218 98.7665 48.4914C99.3929 48.0117 100.147 47.733 100.933 47.6914C102.148 47.6914 102.834 48.3771 102.834 49.8705V54.7088H101.446V50.1372C101.446 49.2838 101.114 49.04 100.427 49.04C99.9235 49.0813 99.4397 49.2546 99.0231 49.5429C99.0352 49.7255 99.0352 49.9088 99.0231 50.0915V54.724H97.627V50.2819C97.627 49.3143 97.4534 48.9943 96.6081 48.9943C96.1153 49.03 95.6421 49.2042 95.2421 49.4971V54.6783H93.8535V47.8209H95.1063L95.144 48.4533Z" fill="#010101"/>
<path d="M105.914 47.8287V52.5223C105.958 52.7933 106.096 53.0398 106.303 53.2177C106.51 53.3955 106.774 53.4931 107.046 53.4931C107.318 53.4931 107.581 53.3955 107.788 53.2177C107.996 53.0398 108.134 52.7933 108.178 52.5223V47.8287H109.574V52.4842C109.574 54.0842 108.502 54.8462 107.031 54.8462C105.559 54.8462 104.495 54.0842 104.495 52.4842V47.8287H105.914Z" fill="#010101"/>
<path d="M112.69 48.4532C113.287 47.9681 114.029 47.6997 114.795 47.6913C116.025 47.6913 116.788 48.377 116.788 49.8704V54.7087H115.399V50.1371C115.399 49.299 115.112 49.0018 114.335 49.0018C113.795 49.0229 113.272 49.1972 112.826 49.5047V54.6858H111.429V47.8284H112.682L112.69 48.4532Z" fill="#010101"/>
<path d="M122.456 53.8614C122.223 54.1611 121.926 54.4047 121.588 54.5747C121.25 54.7447 120.879 54.8368 120.502 54.8443C119.407 54.8443 118.177 53.9909 118.177 51.2708C118.177 48.5507 119.339 47.6593 120.592 47.6593C121.176 47.6748 121.748 47.8315 122.26 48.1164V45.2973L123.656 45.0382V53.1833C123.656 53.5033 123.807 53.6481 124.026 53.6481C124.271 53.6297 124.503 53.5336 124.69 53.3738L124.773 54.3948C124.455 54.6916 124.036 54.8527 123.603 54.8443C123.463 54.8636 123.32 54.8528 123.184 54.8126C123.047 54.7725 122.921 54.7038 122.813 54.6111C122.705 54.5184 122.617 54.4037 122.556 54.2745C122.494 54.1454 122.46 54.0046 122.456 53.8614V53.8614ZM122.26 49.2212C121.851 48.9763 121.385 48.8425 120.909 48.8326C120.268 48.8326 119.656 49.2593 119.656 51.2099C119.656 52.8861 120.215 53.5566 120.834 53.5566C121.112 53.542 121.384 53.4662 121.63 53.3346C121.877 53.203 122.092 53.0188 122.26 52.7947V49.2212Z" fill="#010101"/>
<path d="M130.931 51.2865C130.931 53.6561 129.957 54.8447 128.131 54.8447C126.305 54.8447 125.323 53.8161 125.323 51.256C125.323 48.6959 126.312 47.6597 128.131 47.6597C129.95 47.6597 130.931 48.6959 130.931 51.2865ZM126.757 51.2865C126.757 53.1456 127.218 53.7018 128.131 53.7018C129.044 53.7018 129.497 53.1456 129.497 51.317C129.497 49.4883 129.052 48.8635 128.131 48.8635C127.21 48.8635 126.788 49.374 126.788 51.256L126.757 51.2865Z" fill="#010101"/>
<path d="M136.878 51.6375C136.946 53.2223 137.58 53.6718 138.538 53.6718C139.185 53.6462 139.807 53.4111 140.312 53.0013L140.53 54.0985C139.872 54.5832 139.081 54.8494 138.266 54.8605C136.576 54.8605 135.429 53.8395 135.429 51.2717C135.429 48.704 136.44 47.6754 138.176 47.6754C139.912 47.6754 140.629 48.8412 140.629 50.5555V51.6527L136.878 51.6375ZM139.278 50.5403C139.278 49.3745 138.946 48.8336 138.138 48.8336C137.331 48.8336 136.953 49.3364 136.893 50.5403H139.278Z" fill="#010101"/>
<path d="M143.391 48.4532C143.988 47.9681 144.73 47.6997 145.496 47.6913C146.726 47.6913 147.489 48.377 147.489 49.8704V54.7087H146.108V50.1371C146.108 49.299 145.828 49.0018 145.044 49.0018C144.504 49.0229 143.98 49.1972 143.534 49.5047V54.6858H142.146V47.8284H143.391V48.4532Z" fill="#010101"/>
<path d="M153.76 51.6375C153.828 53.2223 154.462 53.6718 155.421 53.6718C156.07 53.6446 156.693 53.4098 157.202 53.0013L157.413 54.0985C156.755 54.5832 155.964 54.8494 155.149 54.8605C153.466 54.8605 152.319 53.8395 152.319 51.2717C152.319 48.704 153.323 47.6754 155.058 47.6754C156.794 47.6754 157.511 48.8412 157.511 50.5555V51.6527L153.76 51.6375ZM156.16 50.5403C156.16 49.3745 155.836 48.8336 155.028 48.8336C154.221 48.8336 153.843 49.3364 153.775 50.5403H156.16Z" fill="#010101"/>
<path d="M159.587 47.8287L161.285 53.1623L162.907 47.8287H164.296L162.032 54.6862H160.409L158.093 47.8287H159.587Z" fill="#010101"/>
<path d="M170.5 51.2865C170.5 53.6561 169.526 54.8447 167.7 54.8447C165.873 54.8447 164.892 53.8161 164.892 51.256C164.892 48.6959 165.873 47.6597 167.7 47.6597C169.526 47.6597 170.5 48.6959 170.5 51.2865ZM166.326 51.2865C166.326 53.1456 166.787 53.7018 167.7 53.7018C168.613 53.7018 169.066 53.1456 169.066 51.317C169.066 49.4883 168.621 48.8635 167.7 48.8635C166.779 48.8635 166.326 49.374 166.326 51.256V51.2865Z" fill="#010101"/>
<path d="M173.405 45.0087V53.1004C173.405 53.4814 173.609 53.6185 173.881 53.6185C174.176 53.6037 174.462 53.5118 174.711 53.3519L174.854 54.4338C174.425 54.6933 173.936 54.8351 173.435 54.8453C172.296 54.8453 172.017 54.0071 172.017 53.1004V45.2677L173.405 45.0087Z" fill="#010101"/>
<path d="M177.005 47.8287V52.5223C177.029 52.8142 177.16 53.0865 177.373 53.2851C177.586 53.4836 177.866 53.5938 178.156 53.5938C178.446 53.5938 178.726 53.4836 178.939 53.2851C179.152 53.0865 179.283 52.8142 179.307 52.5223V47.8287H180.696V52.4842C180.696 54.0842 179.624 54.8462 178.16 54.8462C176.696 54.8462 175.616 54.0842 175.616 52.4842V47.8287H177.005Z" fill="#010101"/>
<path d="M185.842 50.1365C185.805 49.466 185.518 48.8336 184.756 48.8336C183.993 48.8336 183.533 49.3288 183.533 51.2565C183.533 53.1842 184.107 53.6718 185.11 53.6718C185.733 53.6604 186.334 53.4436 186.823 53.0547L187.088 54.0985C186.433 54.5897 185.639 54.8567 184.823 54.8605C183.065 54.8605 182.069 53.7404 182.069 51.2641C182.069 48.7878 182.922 47.6754 184.801 47.6754C186.431 47.6754 187.065 48.6964 187.065 50.0222L185.842 50.1365Z" fill="#010101"/>
<path d="M189.985 45.3976V46.9215H188.596V45.3976H189.985ZM189.985 47.8282V54.6856H188.596V47.8282H189.985Z" fill="#010101"/>
<path d="M197.125 51.2861C197.125 53.6557 196.151 54.8443 194.325 54.8443C192.499 54.8443 191.518 53.8157 191.518 51.2556C191.518 48.6955 192.506 47.6593 194.325 47.6593C196.144 47.6593 197.125 48.6955 197.125 51.2861ZM192.951 51.2861C192.951 53.1452 193.412 53.7014 194.325 53.7014C195.238 53.7014 195.691 53.1452 195.691 51.3165C195.691 49.4879 195.246 48.8631 194.325 48.8631C193.404 48.8631 192.951 49.3736 192.951 51.2556V51.2861ZM196.333 45.0382L194.823 47.0726H193.638L194.884 45.0382H196.333Z" fill="#010101"/>
<path d="M199.91 48.4532C200.506 47.967 201.248 47.6985 202.015 47.6913C203.238 47.6913 204 48.377 204 49.8704V54.7087H202.611V50.1371C202.611 49.299 202.332 49.0018 201.555 49.0018C201.015 49.0241 200.492 49.1983 200.045 49.5047V54.6858H198.657V47.8284H199.91V48.4532Z" fill="#010101"/>
<path d="M45.0625 5.10575C45.153 6.37056 45.2209 9.53259 45.2209 10.6907C45.2209 11.8489 45.2209 15.2623 45.0474 16.8395V16.9615H50.5641C53.2433 16.9615 56.1187 16.1005 56.1187 13.6775C56.1187 12.1536 55.0244 11.026 52.9942 10.4164C54.5036 10.0126 55.4998 8.96114 55.4998 7.75728C55.4998 5.78387 53.2357 5.02955 51.1528 4.99146H45.1153L45.0625 5.10575ZM49.3114 6.32484C51.5754 6.32484 52.4584 6.81248 52.4584 8.08491C52.4647 8.40634 52.3577 8.71958 52.1565 8.96876C51.8384 9.27123 51.4565 9.49694 51.0395 9.62892C50.6225 9.76089 50.1813 9.79569 49.7491 9.73069H49.6963L49.0548 11.3993H49.6963C50.2322 11.3457 50.7733 11.4136 51.2799 11.5982C51.7865 11.7827 52.2459 12.0792 52.6245 12.466C52.8795 12.7675 53.0188 13.1515 53.0169 13.548C53.0169 14.8814 51.8698 15.5595 49.6057 15.5595C49.2283 15.5595 48.6095 15.5595 48.2171 15.5595C48.134 13.807 48.134 11.4222 48.134 10.7212C48.134 9.88308 48.134 8.02396 48.2246 6.43151C48.583 6.36362 48.9467 6.32792 49.3114 6.32484V6.32484Z" fill="#010101"/>
<path d="M68.7602 4.99146H66.0962L66.2094 8.0011C66.2546 9.52497 66.3075 11.0488 66.4056 12.5194C66.1005 11.8458 65.7208 11.2093 65.2735 10.6222C65.2735 10.6222 62.4736 6.24865 61.5001 5.02193H58.3757V5.13622C58.4662 6.39342 58.5266 9.54783 58.5266 10.7136C58.5266 11.8793 58.5266 15.3309 58.3606 16.87V16.9919H61.1303V16.8776C60.9643 13.9442 60.9643 10.9955 60.9643 8.15349C61.1085 8.62599 61.3332 9.06948 61.6284 9.46401C61.6737 9.54021 66.4207 16.5424 66.6622 16.9615V17.0072H68.881V16.8776C68.7149 15.3538 68.6998 11.7803 68.6998 10.7212C68.6998 9.66212 68.7678 6.40103 68.8583 5.14384V4.99146H68.7602Z" fill="#010101"/>
<path d="M71.9743 5.1061C72.0649 6.37091 72.1328 9.52533 72.1328 10.6835C72.1328 11.8416 72.1328 15.3008 71.9592 16.8323V16.9618H75.2497V16.8323C75.1365 15.7427 75.0912 13.6398 75.0761 12.0169H75.6798H76.1478C80.4872 12.0169 82.5928 10.8359 82.5928 8.40528C82.5928 5.63184 79.6344 4.99181 77.159 4.93848H71.9668L71.9743 5.1061ZM76.0119 6.43187C77.5213 6.43187 78.6382 6.72902 79.1514 7.36905C79.3906 7.68006 79.5159 8.06499 79.5061 8.45862C79.5061 10.1958 77.5892 10.5616 75.9817 10.5616H75.3327H75.0686C75.0686 10.1577 75.0686 9.63962 75.0686 9.03769C75.0686 8.27575 75.0686 7.39191 75.0686 6.5614C75.3795 6.49542 75.6948 6.45213 76.0119 6.43187V6.43187Z" fill="#010101"/>
<path d="M88.8574 5.1061C88.9555 6.37091 89.0159 9.52533 89.0159 10.6835C89.0159 11.8416 89.0159 15.3008 88.8423 16.8323V16.9618H92.1403V16.8323C92.0271 15.7427 91.9893 13.6398 91.9742 12.0169H92.5705H93.0384C97.3778 12.0169 99.491 10.8359 99.491 8.40528C99.491 5.63184 96.5326 4.99181 94.0496 4.93848H88.8876L88.8574 5.1061ZM92.895 6.43187C94.4043 6.43187 95.5213 6.72902 96.042 7.36905C96.2812 7.68006 96.4065 8.06499 96.3967 8.45862C96.3967 10.1958 94.4798 10.5616 92.8723 10.5616H92.2157H91.9591C91.9591 10.1577 91.9591 9.63962 91.9591 9.03769C91.9591 8.27575 91.9592 7.39953 92.0044 6.56902C92.2978 6.50253 92.5953 6.45671 92.895 6.43187V6.43187Z" fill="#010101"/>
<path d="M103.868 4.99939H103.815V5.06034C103.204 6.75946 99.2873 15.4684 98.6458 16.8018L98.5703 16.9694H101.393V16.9008C101.642 16.0855 101.951 15.156 102.329 14.1502H104.661H106.585H107.008C107.513 15.4379 107.891 16.436 108.057 16.9008V16.9694H111.325L106.042 4.99939H103.83H103.868ZM104.668 8.49667C104.932 9.0605 105.612 10.6682 106.374 12.5578H106.117H104.668H102.94C103.551 11.0568 104.147 9.68529 104.668 8.49667Z" fill="#010101"/>
<path d="M112.653 5.1052C112.736 6.36239 112.811 9.52442 112.811 10.6826C112.811 11.8407 112.811 15.2999 112.63 16.8314V16.9609H115.92V16.839C115.762 15.3151 115.747 11.7416 115.747 10.6826C115.747 9.85205 115.747 7.98531 115.845 6.49954C116.117 6.49954 116.479 6.43858 116.728 6.43096C118.237 6.43096 119.362 6.72812 119.875 7.37576C120.121 7.68053 120.25 8.06476 120.237 8.45771C120.237 9.83681 118.947 10.5378 117.754 10.6064C117.521 10.6279 117.286 10.6279 117.052 10.6064L116.833 10.5683L116.977 10.7816C118.132 12.5112 119.882 15.5208 120.622 16.9533V17.0066H124.154L124.048 16.8314C123.928 16.6333 121.618 13.2046 120.63 11.734L120.569 11.6502C122.365 11.1016 123.248 10.0654 123.248 8.49581C123.248 5.72236 120.29 5.08234 117.807 5.03662H112.645L112.653 5.1052Z" fill="#010101"/>
<path d="M128.832 4.98352H125.67V5.09781C125.761 6.36262 125.829 9.52465 125.829 10.6828C125.829 11.8409 125.829 15.2925 125.648 16.8316V16.9535H128.938V16.8316C128.78 15.3077 128.765 11.7343 128.765 10.6828C128.765 9.63133 128.832 6.36262 128.923 5.09781V4.98352H128.832Z" fill="#010101"/>
<path d="M131.912 5.10575C132.002 6.37056 132.07 9.53259 132.07 10.6907C132.07 11.8489 132.07 15.2623 131.896 16.8395V16.9615H137.353C140.04 16.9615 142.907 16.1005 142.907 13.6775C142.907 12.1536 141.821 11.026 139.783 10.4164C141.292 10.0126 142.289 8.96114 142.289 7.75728C142.289 5.78387 140.024 5.02955 137.942 4.99146H131.904L131.912 5.10575ZM136.16 6.32484C138.425 6.32484 139.315 6.81248 139.315 8.08491C139.315 8.40664 139.206 8.71871 139.006 8.96876C138.689 9.27061 138.308 9.49599 137.892 9.62796C137.477 9.75993 137.037 9.79506 136.606 9.73069H136.545L135.919 11.4146H136.598C137.133 11.3615 137.673 11.4298 138.178 11.6143C138.683 11.7989 139.141 12.0951 139.519 12.4813C139.774 12.7828 139.913 13.1667 139.911 13.5632C139.911 14.8966 138.764 15.5747 136.508 15.5747C136.115 15.5747 135.496 15.5747 135.111 15.5747C135.028 13.8223 135.028 11.4374 135.028 10.7364C135.028 9.89832 135.028 8.03158 135.119 6.44675C135.462 6.37637 135.811 6.33559 136.16 6.32484Z" fill="#010101"/>
<path d="M151.036 4.98352H148.817V5.04448C148.168 6.85788 143.994 16.0392 143.647 16.7935L143.572 16.9535H146.409V16.8849C146.658 16.0697 146.975 15.1401 147.345 14.1344H149.677H151.602H152.024C152.537 15.4297 152.907 16.4202 153.073 16.8926V16.9535H156.349L151.066 4.98352H151.036ZM149.677 8.49604C149.941 9.05987 150.605 10.6599 151.375 12.5419H151.126H149.67L147.919 12.5572C148.553 11.0333 149.156 9.67704 149.677 8.49604Z" fill="#010101"/>
<path d="M157.27 8.09326C157.27 10.1962 159.368 11.0419 161.21 11.8039C162.651 12.3906 164.13 13.0001 164.13 13.9983C164.152 14.2731 164.068 14.5459 163.896 14.7602C163.564 15.1716 162.855 15.3469 161.738 15.2935C160.448 15.1806 159.19 14.8212 158.032 14.2345L157.459 13.9678V16.5812L157.836 16.665L158.063 16.7107C159.152 17.0025 160.272 17.1662 161.398 17.1984C164.87 17.1984 166.945 15.804 166.945 13.4801C166.945 11.3239 164.802 10.4324 162.915 9.67047C161.519 9.10663 160.078 8.52756 160.078 7.60562C160.078 7.33133 160.078 6.53129 161.866 6.53129C163.024 6.59226 164.16 6.87948 165.21 7.37704L165.889 7.65896V5.0379L165.21 4.92361C164.24 4.70835 163.251 4.59094 162.259 4.57312C159.278 4.57312 157.27 5.9827 157.27 8.09326Z" fill="#010101"/>
<path d="M53.3037 23.2245C52.6484 22.8155 51.8931 22.5992 51.1227 22.5997C48.4511 22.5997 47.5303 24.7331 47.5303 26.5541C47.5303 29.0837 49.0397 30.3638 51.1377 30.3638C52.3143 30.3253 53.4319 29.8347 54.2622 28.9923V31.1791C53.1217 31.6446 51.8998 31.8726 50.6698 31.8496C46.9417 31.8496 44.6323 29.5104 44.6323 26.516C44.6323 23.3768 47.0926 21.1139 51.1604 21.1139C52.0948 21.1228 53.0248 21.2456 53.9301 21.4796L53.3037 23.2245Z" fill="#010101"/>
<path d="M62.3068 21.2964C62.6992 22.3631 66.0802 29.9443 66.8349 31.6587H64.035C63.8765 31.1863 63.5369 30.3329 63.0992 29.2205C62.5106 29.2205 61.9068 29.2205 61.0691 29.2205C60.2314 29.2205 59.7107 29.2205 59.0314 29.2205C58.7069 30.0891 58.4428 30.8891 58.2088 31.6587H55.7485C56.3372 30.371 59.7786 22.8203 60.322 21.2964H62.3068ZM62.5558 27.8566L61.0465 24.3441C60.5785 25.3499 60.0654 26.5385 59.5371 27.8566C59.9823 27.8566 60.5785 27.8566 61.0465 27.8566C61.5144 27.8566 62.0577 27.8719 62.5558 27.8566Z" fill="#010101"/>
<path d="M73.1371 21.2964C75.2955 21.2964 77.8614 21.9059 77.8614 24.2984C77.8614 25.647 77.1067 26.5842 75.5445 27.0261C76.499 28.6248 77.5369 30.1712 78.6539 31.6587H75.5823C74.9106 30.371 73.3861 27.7652 72.2692 26.0813C72.5174 26.1335 72.7704 26.159 73.0239 26.1575C73.922 26.1575 75.1823 25.5023 75.1823 24.2984C75.1823 22.7745 73.3937 22.5383 72.4956 22.5383C72.1224 22.5368 71.7495 22.5571 71.3787 22.5993C71.3258 23.887 71.2956 25.5023 71.2956 26.2261C71.2956 27.148 71.2956 30.211 71.4541 31.6587H68.6316C68.7825 30.2263 68.8052 28.3748 68.8052 26.2261C68.8052 24.4203 68.8052 22.2564 68.6618 21.2964H73.1371Z" fill="#010101"/>
<path d="M84.5255 21.2964C88.8499 21.2964 90.5102 23.5822 90.5102 26.4623C90.5102 29.3424 88.8952 31.6587 84.3671 31.6587H80.5483C80.6993 30.272 80.6993 28.3595 80.6993 26.2413C80.6993 25.2356 80.6993 22.645 80.5483 21.2964H84.5255ZM83.318 22.5993C83.2652 23.2774 83.2501 25.0451 83.2501 26.2413C83.2501 27.7652 83.2501 28.9386 83.3029 30.3482C83.4539 30.3482 83.6878 30.3482 84.0576 30.3482C86.533 30.3482 87.8311 29.5862 87.8311 26.3785C87.8311 23.3308 86.5104 22.485 84.0048 22.5688L83.318 22.5993Z" fill="#010101"/>
<path d="M95.7924 21.2964C95.7094 22.4926 95.649 25.2204 95.649 26.2413C95.649 27.2623 95.6491 30.2263 95.7924 31.6587H92.9473C93.0982 30.2263 93.1133 27.148 93.1133 26.2413C93.1133 25.3346 93.0529 22.4926 92.9774 21.2964H95.7924Z" fill="#010101"/>
<path d="M106.683 21.2964V22.8203C105.875 22.7745 103.868 22.7212 103.189 22.7212C102.691 22.7212 102.132 22.7212 101.559 22.7593C101.559 23.3993 101.506 24.1994 101.506 24.8927C101.506 25.2356 101.506 25.548 101.506 25.7994L105.083 25.7385V27.3538L101.506 27.209C101.506 28.5271 101.506 30.5691 101.664 31.6892H98.7888C98.9624 30.2567 98.9624 27.1785 98.9624 26.2718C98.9624 25.3651 98.8945 22.5231 98.8039 21.3269L106.683 21.2964Z" fill="#010101"/>
<defs>
<linearGradient id="paint0_linear_1_1673" x1="18.1807" y1="-0.776108" x2="18.1807" y2="37.4121" gradientUnits="userSpaceOnUse">
<stop stop-color="#00784B"/>
<stop offset="0.6" stop-color="#8BC9AE"/>
<stop offset="1" stop-color="#029660"/>
</linearGradient>
<linearGradient id="paint1_linear_1_1673" x1="18.1203" y1="-8.86794" x2="18.1203" y2="34.0442" gradientUnits="userSpaceOnUse">
<stop stop-color="#029660"/>
<stop offset="0.3" stop-color="#8BC9AE"/>
<stop offset="0.55" stop-color="#029660"/>
<stop offset="0.84" stop-color="#00784B"/>
<stop offset="0.89" stop-color="#008154"/>
<stop offset="0.98" stop-color="#00996C"/>
<stop offset="1" stop-color="#009E71"/>
</linearGradient>
<linearGradient id="paint2_linear_1_1673" x1="24.9277" y1="31.6753" x2="24.9277" y2="3.90277" gradientUnits="userSpaceOnUse">
<stop stop-color="#00A87D"/>
<stop offset="1" stop-color="#029660"/>
</linearGradient>
<linearGradient id="paint3_linear_1_1673" x1="89.9237" y1="438.607" x2="89.9237" y2="71.0753" gradientUnits="userSpaceOnUse">
<stop stop-color="#00A87D"/>
<stop offset="1" stop-color="#029660"/>
</linearGradient>
<linearGradient id="paint4_linear_1_1673" x1="252.854" y1="374.114" x2="252.854" y2="54.9055" gradientUnits="userSpaceOnUse">
<stop stop-color="#00A87D"/>
<stop offset="1" stop-color="#029660"/>
</linearGradient>
<linearGradient id="paint5_linear_1_1673" x1="196.692" y1="241.026" x2="196.692" y2="52.4505" gradientUnits="userSpaceOnUse">
<stop stop-color="#00A87D"/>
<stop offset="1" stop-color="#029660"/>
</linearGradient>
</defs>
</svg>
