<svg width="102" height="97" viewBox="0 0 102 97" fill="none" xmlns="http://www.w3.org/2000/svg">
<path d="M86.0949 29.4601C95.8723 46.395 75.7535 72 58.8185 81.7774C41.8836 91.5548 26.0675 85.0371 16.2901 68.1022C6.51274 51.1672 9.03976 34.6677 25.9747 24.8903C42.9097 15.1129 76.3175 12.5251 86.0949 29.4601Z" fill="#F6F7F7"/>
<path d="M41.0084 32.9562H53.7962C55.9298 32.9562 57.6654 34.6956 57.6654 36.8335V39.6104H63.5035C66.053 39.6104 68.127 41.6887 68.127 44.2433V63.6978C68.127 66.2523 66.053 68.3307 63.5035 68.3307H31.3003C28.7509 68.3307 26.677 66.2524 26.677 63.6978L26.6774 44.2433C26.6774 41.6888 28.7513 39.6104 31.3008 39.6104H37.1389V36.8335C37.1389 34.6956 38.8745 32.9562 41.0082 32.9562H41.0084ZM56.3439 36.8335C56.3439 35.4258 55.2014 34.281 53.7969 34.281H41.0091C39.6047 34.281 38.4621 35.4258 38.4621 36.8335V39.6104H40.4455V36.9303C40.4455 36.5644 40.7414 36.2679 41.1066 36.2679L53.6989 36.2683C54.0641 36.2683 54.36 36.5648 54.36 36.9307V39.6108H56.3435L56.3439 36.8335ZM41.767 37.5932V39.6108L53.0386 39.6104V37.5928L41.767 37.5932ZM31.3013 40.9353C29.481 40.9353 28.0002 42.4191 28.0002 44.2433V63.6978C28.0002 65.5221 29.4811 67.0058 31.3013 67.0058L63.5034 67.0062C65.3238 67.0062 66.8045 65.5224 66.8045 63.6982L66.8049 44.2437C66.8049 42.4194 65.3241 40.9357 63.5039 40.9357L31.3013 40.9353Z" fill="#326295" stroke="#326295" stroke-width="0.6"/>
<path d="M54.0654 56.6114H50.0397V60.6451C50.0397 61.011 49.7437 61.3075 49.3785 61.3075H45.4287C45.0635 61.3075 44.7676 61.011 44.7676 60.6451V56.6114H40.7418C40.3766 56.6114 40.0807 56.3149 40.0807 55.949V51.9915C40.0807 51.6255 40.3766 51.329 40.7418 51.329H44.7676V47.2954C44.7676 46.9294 45.0635 46.6329 45.4287 46.6329H49.3785C49.7437 46.6329 50.0397 46.9294 50.0397 47.2954V51.329L54.0654 51.3294C54.4306 51.3294 54.7266 51.6259 54.7266 51.9919V55.9494C54.7266 56.3149 54.4306 56.6114 54.0654 56.6114V56.6114ZM53.4043 52.6539H49.3785C49.0133 52.6539 48.7174 52.3574 48.7174 51.9915V47.9578H46.0899V51.9915C46.0899 52.3574 45.794 52.6539 45.4288 52.6539H41.403V55.2865H45.4288C45.794 55.2865 46.0899 55.583 46.0899 55.9489V59.9826H48.7174V55.9489C48.7174 55.583 49.0133 55.2865 49.3785 55.2865L53.4043 55.2869V52.6539Z" fill="#326295" stroke="#326295" stroke-width="0.6"/>
</svg>
