<svg width="102" height="98" viewBox="0 0 102 98" fill="none" xmlns="http://www.w3.org/2000/svg">
<path d="M86.0949 30.2451C95.8723 47.1801 75.7535 72.7851 58.8185 82.5625C41.8836 92.3399 26.0675 85.8222 16.2901 68.8872C6.51274 51.9523 9.03976 35.4528 25.9747 25.6754C42.9097 15.898 76.3175 13.3102 86.0949 30.2451Z" fill="#F6F7F7"/>
<path d="M58.4483 72.8534H34.1768C32.574 72.8534 31.2695 71.5433 31.2695 69.9333V39.4048C31.2695 37.7944 32.574 36.4844 34.1768 36.4844H39.1069V39.5372H53.5181V36.4844H58.4483C60.051 36.4847 61.3555 37.7948 61.3555 39.4048V69.9333C61.3555 71.5433 60.051 72.8534 58.4483 72.8534ZM34.1768 38.2545C33.5494 38.2545 33.0393 38.7706 33.0393 39.4048V69.9333C33.0393 70.5679 33.5495 71.0836 34.1768 71.0836H58.4483C59.076 71.0836 59.5861 70.5679 59.5861 69.9333V39.4048C59.5861 38.7706 59.0759 38.2541 58.4486 38.2541H55.2882V41.307L37.3375 41.3073V38.2545L34.1768 38.2545Z" fill="#326295"/>
<path d="M55.2867 41.307H37.3359V36.4737C37.3359 34.7965 38.6947 33.4315 40.3649 33.4315H44.1623V34.3164C44.1623 35.5113 45.1264 36.484 46.3112 36.484C47.4965 36.484 48.4601 35.5113 48.4601 34.3164V33.4315H52.2575C53.9274 33.4315 55.2865 34.7965 55.2865 36.4737L55.2867 41.307ZM39.1057 39.5372H53.5169V36.4737C53.5169 35.772 52.9521 35.2013 52.2577 35.2013H50.1305C49.7299 36.9475 48.17 38.2538 46.3114 38.2538C44.4531 38.2538 42.8928 36.9475 42.4922 35.2013H40.3647C39.6703 35.2013 39.1055 35.772 39.1055 36.4737L39.1057 39.5372Z" fill="#326295"/>
<path d="M46.3113 38.2544C44.1506 38.2544 42.3926 36.488 42.3926 34.317C42.3926 32.1456 44.1506 30.3789 46.3113 30.3789C48.472 30.3789 50.23 32.1456 50.23 34.3166C50.23 36.488 48.472 38.2544 46.3113 38.2544ZM46.3113 32.1487C45.126 32.1487 44.1623 33.1213 44.1623 34.3166C44.1623 35.5116 45.1264 36.4842 46.3113 36.4842C47.4966 36.4842 48.4602 35.5116 48.4602 34.3166C48.4602 33.1213 47.4965 32.1487 46.3113 32.1487Z" fill="#326295"/>
<path d="M46.5 61.7852C45.6715 61.7852 45 61.1137 45 60.2852V48.2852C45 47.4566 45.6715 46.7852 46.5 46.7852C47.3285 46.7852 48 47.4566 48 48.2852V60.2852C48 61.1137 47.3285 61.7852 46.5 61.7852Z" fill="#326295"/>
<path d="M52.5 55.7852H40.5C39.6715 55.7852 39 55.1137 39 54.2852C39 53.4566 39.6715 52.7852 40.5 52.7852H52.5C53.3285 52.7852 54 53.4566 54 54.2852C54 55.1137 53.3285 55.7852 52.5 55.7852Z" fill="#326295"/>
</svg>
