<svg width="103" height="97" viewBox="0 0 103 97" fill="none" xmlns="http://www.w3.org/2000/svg">
<path d="M86.7238 29.5186C96.5012 46.4535 76.3824 72.0585 59.4474 81.8359C42.5125 91.6133 26.6964 85.0956 16.919 68.1607C7.14164 51.2257 9.66867 34.7262 26.6036 24.9488C43.5386 15.1714 76.9464 12.5836 86.7238 29.5186Z" fill="#F6F7F7"/>
<mask id="mask0_3_1116" style="mask-type:alpha" maskUnits="userSpaceOnUse" x="28" y="27" width="38" height="42">
<path fill-rule="evenodd" clip-rule="evenodd" d="M56.3605 67.3257H42.6985V61.4053C42.6985 61.0495 42.4117 60.7608 42.0577 60.7605H37.6357C36.8381 60.7593 36.0733 60.4403 35.5094 59.8734C34.9454 59.3064 34.6281 58.5376 34.627 57.7358V52.1924C34.6264 51.9632 34.5048 51.7518 34.3079 51.6365L30.5054 49.391L34.5429 42.1171C34.5858 42.0404 34.6121 41.9557 34.621 41.8683C35.4097 34.0558 42.2636 28.3842 50.5648 28.6689C58.0825 28.9278 62.4491 34.4135 63.4416 39.7342C64.4998 45.4045 62.3406 48.982 60.0555 52.7692C57.6755 56.714 55.2174 60.7894 56.3631 67.3263L56.3605 67.3257ZM64.7033 39.4961C63.616 33.67 58.8364 27.6644 50.6091 27.3798C46.4322 27.2029 42.3314 28.5434 39.0571 31.1566C37.4699 32.4347 36.1495 34.0154 35.1718 35.8081C34.1944 37.6008 33.579 39.5701 33.3611 41.6027L29.0819 49.3109C28.9113 49.6171 29.0157 50.0042 29.3164 50.1816L33.3436 52.5609V57.735C33.3451 58.879 33.7976 59.9757 34.6022 60.7844C35.4069 61.5933 36.4979 62.0484 37.6355 62.0497H41.4163V67.9706C41.4169 68.3265 41.7041 68.6143 42.0581 68.6143H57.1388C57.3325 68.6143 57.5155 68.5266 57.6374 68.3752C57.7592 68.2239 57.8062 68.0253 57.7657 67.835C56.3853 61.3364 58.7011 57.4989 61.1524 53.437C63.4626 49.609 65.8508 45.6512 64.7026 39.4956L64.7033 39.4961ZM54.38 43.9838V40.7249H51.2509C51.0809 40.7249 50.9176 40.6571 50.7976 40.5361C50.6772 40.4151 50.6098 40.2513 50.6101 40.08V36.935H47.3683V40.08C47.3683 40.2513 47.3006 40.4151 47.1805 40.5361C47.0602 40.6571 46.8969 40.7249 46.7269 40.7249H43.5978V43.9838H46.7269C47.0809 43.9841 47.3677 44.2728 47.3677 44.6287V47.7737H50.6095V44.6287C50.6095 44.4577 50.6769 44.2936 50.797 44.1726C50.9173 44.0519 51.0803 43.9838 51.2503 43.9838H54.38ZM51.8918 39.4358V36.2907C51.8921 36.1197 51.8246 35.9556 51.7043 35.8346C51.5842 35.7136 51.421 35.6459 51.2509 35.6459H46.7269C46.5568 35.6456 46.3936 35.7136 46.2732 35.8346C46.1529 35.9553 46.0854 36.1195 46.0854 36.2907V39.4358H42.9572C42.7872 39.4358 42.6243 39.5036 42.5039 39.6243C42.3835 39.7453 42.3158 39.9091 42.3158 40.08V44.6287C42.3158 44.7996 42.3835 44.9634 42.5039 45.0844C42.6243 45.2051 42.7872 45.2732 42.9572 45.2729H46.0857V48.4186C46.0857 48.5895 46.1535 48.7534 46.2738 48.8744C46.3939 48.9951 46.5568 49.0628 46.7269 49.0628H51.2503C51.4204 49.0631 51.5836 48.9954 51.7037 48.8744C51.824 48.7537 51.8915 48.5895 51.8915 48.4186V45.2729H55.0235C55.3766 45.2717 55.662 44.9836 55.662 44.6287V40.08C55.662 39.7253 55.3766 39.437 55.0235 39.4358L51.8918 39.4358ZM48.9889 51.3877C51.3721 51.3877 53.6578 50.4361 55.3429 48.7421C57.0283 47.0481 57.9749 44.7503 57.9749 42.3544C57.9749 39.9587 57.0283 37.6609 55.3429 35.9669C53.6578 34.2726 51.3722 33.321 48.9889 33.3213C46.6057 33.3213 44.3202 34.2732 42.6352 35.9675C40.9501 37.6619 40.0035 39.9596 40.0038 42.3553C40.0064 44.7503 40.954 47.0463 42.6384 48.7397C44.3229 50.4331 46.6068 51.3851 48.9889 51.3877ZM48.9889 32.0335C46.2658 32.0332 43.6542 33.1207 41.7285 35.0565C39.803 36.9919 38.7212 39.6173 38.7209 42.3548C38.7209 45.0926 39.8024 47.718 41.7279 49.6537C43.6534 51.5897 46.265 52.6772 48.988 52.6772C51.7111 52.6775 54.3226 51.59 56.2484 49.6543C58.1739 47.7186 59.2556 45.0935 59.2559 42.3557C59.253 39.6191 58.1703 36.9955 56.2457 35.0604C54.3208 33.1253 51.7111 32.0366 48.9889 32.0335Z" fill="#209CD4" stroke="#209CD4" stroke-width="0.5"/>
</mask>
<g mask="url(#mask0_3_1116)">
<rect x="20.75" y="5.61426" width="87.75" height="85.5" fill="#326295"/>
</g>
</svg>
