<svg width="103" height="98" viewBox="0 0 103 98" fill="none" xmlns="http://www.w3.org/2000/svg">
<path d="M86.7238 29.8818C96.5012 46.8168 76.3824 72.4218 59.4474 82.1992C42.5125 91.9766 26.6964 85.4589 16.919 68.5239C7.14164 51.589 9.66867 35.0895 26.6036 25.3121C43.5386 15.5347 76.9464 12.9469 86.7238 29.8818Z" fill="#F6F7F7"/>
<path d="M69.6202 43.7276C69.1601 40.4233 67.4387 37.4264 64.8184 35.3659C63.0199 33.9639 60.8097 33.1953 58.5303 33.1786C56.2509 33.1619 54.0301 33.8981 52.2112 35.2735C51.0313 36.146 50.0657 37.2761 49.3874 38.5781C48.7091 37.2761 47.7436 36.1459 46.5636 35.2735C44.7451 33.8973 42.5239 33.1604 40.2445 33.177C37.9647 33.1937 35.7545 33.9632 33.9564 35.3659C31.3361 37.4264 29.6147 40.4233 29.1546 43.7276C29.0597 44.3854 29.0128 45.0489 29.0136 45.7135C29.0132 46.6597 29.1115 47.6037 29.3062 48.5295C29.4185 49.0646 29.9425 49.4072 30.4771 49.2948C31.0113 49.1823 31.3535 48.6574 31.2412 48.1225C31.0805 47.3296 31.0022 46.5222 31.0083 45.7135C31.0087 45.145 31.0506 44.5776 31.1327 44.0152C31.5232 41.2291 32.9739 38.7019 35.1814 36.9612C36.6389 35.8231 38.4305 35.1982 40.279 35.1834C42.127 35.1686 43.9285 35.7651 45.4037 36.8798C46.5189 37.6939 47.389 38.7995 47.9186 40.0758C47.9673 40.195 47.9998 40.2926 48.0324 40.3903C48.1711 40.7699 48.46 41.0757 48.8308 41.2358C49.2017 41.3956 49.6218 41.3956 49.9927 41.2358C50.3636 41.0757 50.6524 40.7699 50.7912 40.3903C50.8237 40.2979 50.8562 40.2003 50.905 40.0864C51.4335 38.8085 52.3038 37.7007 53.4198 36.8851C54.895 35.7704 56.6965 35.1743 58.5446 35.1886C60.393 35.2034 62.1846 35.8283 63.6421 36.9665C65.8497 38.7072 67.3003 41.2344 67.6908 44.0205C67.7729 44.5829 67.8148 45.1506 67.8152 45.7187C67.8296 48.4715 66.8386 51.1342 65.0296 53.2068H53.3388L51.8916 48.953C51.7404 48.5544 51.3544 48.2951 50.9287 48.3061C50.503 48.3171 50.1306 48.596 50.0001 49.0018L47.588 56.7068L45.3226 43.6842V43.3587L45.2954 43.3152V43.2773L45.1003 43.2391V43.2009L45.0731 43.1683L45.0353 43.1305H45.0081L44.9593 43.0926H44.9321L44.8833 43.0601H43.8645L43.8157 43.0926H43.7832L43.7397 43.1252L43.7072 43.1524L43.6747 43.185L43.6422 43.2228V43.2554L43.6097 43.2989V43.3315L43.5771 43.3803V43.6082L41.0297 53.1961L24.6778 53.1958C24.133 53.1958 23.6914 53.6378 23.6914 54.1832C23.6914 54.7286 24.133 55.171 24.6778 55.171H42.0218L42.0978 55.1332H42.125L42.1738 55.1059H42.201L42.2445 55.0734L42.2932 55.0299L42.3473 54.9701C42.3862 54.9228 42.4206 54.872 42.4501 54.8183V54.6173L44.038 48.6484L46.2058 61.2428V61.5085L46.2383 61.5626L46.2761 61.6114L46.3139 61.6549V61.6822L46.3518 61.7147L46.3843 61.742L46.4277 61.7745L46.4875 61.8181H46.7045L46.8346 61.8506H47.3007L47.3657 61.8181L47.8104 61.7314L47.8591 61.7041H47.8916L47.9351 61.6716H47.9623L48.0111 61.6337C48.055 61.5921 48.0947 61.5467 48.1302 61.4979L48.168 61.4381L48.1952 61.3839V61.2647L50.9052 52.5178L51.61 54.5851C51.6266 54.6301 51.6466 54.6737 51.6693 54.7153C51.692 54.7551 51.7173 54.7933 51.7453 54.8292L51.8319 54.9269L51.9241 55.003L52.0379 55.0734L52.1627 55.1222L52.2928 55.1547H52.45L63.0675 55.1551C62.5253 55.6979 62.0266 56.2402 61.5227 56.783L51.1762 67.8135L51.1059 67.8949H51.1055C50.7203 68.4384 50.1018 68.7681 49.4364 68.7851H49.3441C48.6795 68.7745 48.0591 68.4505 47.6692 67.9115L47.5989 67.8302L39.6803 59.3815C39.3075 58.9829 38.6829 58.9625 38.2848 59.3353C37.8867 59.7085 37.8659 60.3342 38.2387 60.7327L46.1192 69.1323C46.8795 70.1485 48.0704 70.7507 49.3389 70.7602H49.4364C50.7048 70.7507 51.8958 70.1485 52.6561 69.1323L62.9861 58.1386C63.8314 57.2378 64.715 56.3427 65.577 55.4744L66.081 54.9642V54.9646C68.4651 52.4787 69.7853 49.1593 69.7611 45.7131C69.7618 45.0485 69.715 44.385 69.6201 43.7272L69.6202 43.7276Z" fill="#326295"/>
</svg>
