<svg width="58" height="46" viewBox="0 0 58 46" fill="none" xmlns="http://www.w3.org/2000/svg">
<g clip-path="url(#clip0_2_3606)">
<path fill-rule="evenodd" clip-rule="evenodd" d="M56.2406 4.88626C56.7899 5.22939 57.1256 5.82939 57.1256 6.48001V44.0006C57.1256 45.4725 55.4999 46.3706 54.2587 45.5944C46.8881 41.0025 37.3631 41.0025 29.9906 45.5944C29.6887 45.7838 29.3437 45.8775 29.0006 45.8775V4.29939C37.4287 -0.449987 47.9962 -0.251237 56.2406 4.88626Z" fill="#1BB5EC"/>
<path fill-rule="evenodd" clip-rule="evenodd" d="M53.375 40.8647C45.6444 37.2928 36.4794 37.6116 29 41.8228C21.5544 37.6285 12.395 37.2741 4.625 40.8647V7.54783C11.8606 3.48658 20.9281 3.66095 28.01 8.07095C28.6138 8.4497 29.3862 8.4497 29.99 8.07095C37.0737 3.66095 46.1394 3.48658 53.375 7.54783V40.8647ZM56.24 4.8872C47.9956 -0.252175 37.4281 -0.447175 29 4.29845C20.5719 -0.44905 10.0044 -0.252175 1.76 4.8872C1.21062 5.22845 0.875 5.83033 0.875 6.47908V44.0035C0.875 44.686 1.24437 45.3141 1.84062 45.6441C2.43687 45.976 3.16438 45.9572 3.74 45.5953C11.1125 41.0034 20.6375 41.0034 28.01 45.5953C28.3119 45.7847 28.655 45.8805 29 45.8805C29.345 45.8805 29.6881 45.7847 29.99 45.5953C37.3625 41.0034 46.8875 41.0034 54.26 45.5953C54.8356 45.9572 55.5631 45.9741 56.1594 45.6441C56.7556 45.3141 57.125 44.686 57.125 44.0035V6.47908C57.125 5.83033 56.7894 5.22845 56.24 4.8872Z" fill="#364F6B"/>
<path fill-rule="evenodd" clip-rule="evenodd" d="M19.625 13.9849H12.125C11.0881 13.9849 10.25 14.823 10.25 15.8599C10.25 16.8986 11.0881 17.7367 12.125 17.7367H19.625C20.6619 17.7367 21.5 16.8986 21.5 15.8599C21.5 14.823 20.6619 13.9849 19.625 13.9849Z" fill="#364F6B"/>
<path fill-rule="evenodd" clip-rule="evenodd" d="M19.625 21.4883H12.125C11.0881 21.4883 10.25 22.3264 10.25 23.3652C10.25 24.402 11.0881 25.242 12.125 25.242H19.625C20.6619 25.242 21.5 24.402 21.5 23.3652C21.5 22.3264 20.6619 21.4883 19.625 21.4883Z" fill="#364F6B"/>
<path fill-rule="evenodd" clip-rule="evenodd" d="M19.625 28.9937H12.125C11.0881 28.9937 10.25 29.8318 10.25 30.8705C10.25 31.9074 11.0881 32.7455 12.125 32.7455H19.625C20.6619 32.7455 21.5 31.9074 21.5 30.8705C21.5 29.8318 20.6619 28.9937 19.625 28.9937Z" fill="#364F6B"/>
<path fill-rule="evenodd" clip-rule="evenodd" d="M36.5 15.8599C36.5 16.8986 37.3381 17.7367 38.375 17.7367H45.875C46.9119 17.7367 47.75 16.8986 47.75 15.8599C47.75 14.823 46.9119 13.9849 45.875 13.9849H38.375C37.3381 13.9849 36.5 14.823 36.5 15.8599Z" fill="#364F6B"/>
<path fill-rule="evenodd" clip-rule="evenodd" d="M45.875 21.4883H38.375C37.3381 21.4883 36.5 22.3264 36.5 23.3652C36.5 24.402 37.3381 25.242 38.375 25.242H45.875C46.9119 25.242 47.75 24.402 47.75 23.3652C47.75 22.3264 46.9119 21.4883 45.875 21.4883Z" fill="#364F6B"/>
<path fill-rule="evenodd" clip-rule="evenodd" d="M45.875 28.9937H38.375C37.3381 28.9937 36.5 29.8318 36.5 30.8705C36.5 31.9074 37.3381 32.7455 38.375 32.7455H45.875C46.9119 32.7455 47.75 31.9074 47.75 30.8705C47.75 29.8318 46.9119 28.9937 45.875 28.9937Z" fill="#364F6B"/>
</g>
<defs>
<clipPath id="clip0_2_3606">
<rect width="58" height="46" fill="white"/>
</clipPath>
</defs>
</svg>
