<svg width="58" height="58" viewBox="0 0 58 58" fill="none" xmlns="http://www.w3.org/2000/svg">
<g clip-path="url(#clip0_2_3307)">
<path fill-rule="evenodd" clip-rule="evenodd" d="M55.8432 8.4719L33.3432 0.971903C32.1282 0.566903 30.8757 1.47628 30.8757 2.75128V55.2494C30.8757 56.5207 32.1207 57.4319 33.3432 57.0269L55.8432 49.5288C56.6082 49.2738 57.1257 48.5575 57.1257 47.7494V10.2513C57.1257 9.44315 56.6082 8.7269 55.8432 8.4719Z" fill="#1BB5EC"/>
<path fill-rule="evenodd" clip-rule="evenodd" d="M53.375 46.3986L34.625 52.648V47.7505V10.2524V5.35302L53.375 11.6024V46.3986ZM55.8425 8.47114L33.3425 0.973019C32.1162 0.566144 30.875 1.48489 30.875 2.75239V8.37739H15.875C13.8069 8.37739 12.125 10.0593 12.125 12.1274V17.7505C12.125 18.7855 12.965 19.6255 14 19.6255C15.035 19.6255 15.875 18.7855 15.875 17.7505V12.1274H30.875V45.8755H15.875V40.2505C15.875 39.2136 15.035 38.3755 14 38.3755C12.965 38.3755 12.125 39.2136 12.125 40.2505V45.8755C12.125 47.9436 13.8069 49.6255 15.875 49.6255H30.875V55.2486C30.875 56.5199 32.12 57.4311 33.3425 57.028L55.8425 49.528C56.6094 49.273 57.125 48.5568 57.125 47.7505V10.2505C57.125 9.44427 56.6094 8.72802 55.8425 8.47114Z" fill="#364F6B"/>
<path fill-rule="evenodd" clip-rule="evenodd" d="M40.25 30.875H44C45.035 30.875 45.875 30.035 45.875 29C45.875 27.965 45.035 27.125 44 27.125H40.25C39.2131 27.125 38.375 27.965 38.375 29C38.375 30.035 39.2131 30.875 40.25 30.875Z" fill="#364F6B"/>
<path fill-rule="evenodd" clip-rule="evenodd" d="M9.69706 33.2989C10.4302 34.032 10.4302 35.2171 9.69706 35.9502C8.96394 36.6833 7.77894 36.6833 7.04581 35.9502L1.42081 30.327C0.689562 29.5939 0.697062 28.3977 1.42081 27.6739L7.04581 22.0489C7.77894 21.3177 8.96394 21.3177 9.69706 22.0489C10.4302 22.7821 10.4302 23.9689 9.69706 24.702L7.27269 27.1264H25.2464C26.2814 27.1264 27.1214 27.9646 27.1214 28.9996C27.1214 30.0346 26.2814 30.8745 25.2464 30.8745H7.27269L9.69706 33.2989Z" fill="#364F6B"/>
</g>
<defs>
<clipPath id="clip0_2_3307">
<rect width="58" height="58" fill="white"/>
</clipPath>
</defs>
</svg>
