<svg width="25" height="22" viewBox="0 0 25 22" fill="none" xmlns="http://www.w3.org/2000/svg">
<path d="M0 2.75C0 1.24609 1.21528 0 2.77778 0H11.1111C12.6302 0 13.8889 1.24609 13.8889 2.75V14.4375C13.8889 14.8242 13.5417 15.125 13.1944 15.125C12.8038 15.125 12.5 14.8242 12.5 14.4375V2.75C12.5 2.01953 11.849 1.375 11.1111 1.375H2.77778C1.99653 1.375 1.38889 2.01953 1.38889 2.75V11H6.25C6.59722 11 6.94444 11.3438 6.94444 11.6875C6.94444 12.0742 6.59722 12.375 6.25 12.375H1.38889V15.125H6.25C6.59722 15.125 6.94444 15.4688 6.94444 15.8125C6.94444 16.1992 6.59722 16.5 6.25 16.5H1.38889V19.25C1.38889 20.0234 1.99653 20.625 2.77778 20.625H10.4167C10.7639 20.625 11.1111 20.9688 11.1111 21.3125C11.1111 21.6992 10.7639 22 10.4167 22H2.77778C1.21528 22 0 20.7969 0 19.25V2.75ZM6.25 3.4375C6.25 3.09375 6.55382 2.75 6.94444 2.75C7.29167 2.75 7.63889 3.09375 7.63889 3.4375V4.8125H9.02778C9.375 4.8125 9.72222 5.15625 9.72222 5.5C9.72222 5.88672 9.375 6.1875 9.02778 6.1875H7.63889V7.5625C7.63889 7.94922 7.29167 8.25 6.94444 8.25C6.55382 8.25 6.25 7.94922 6.25 7.5625V6.1875H4.86111C4.47049 6.1875 4.16667 5.88672 4.16667 5.5C4.16667 5.15625 4.47049 4.8125 4.86111 4.8125H6.25V3.4375ZM22.2222 11.6875C22.2222 13.6211 20.6597 15.125 18.75 15.125C16.7969 15.125 15.2778 13.6211 15.2778 11.6875C15.2778 9.79688 16.7969 8.25 18.75 8.25C20.6597 8.25 22.2222 9.79688 22.2222 11.6875ZM18.75 9.625C17.5781 9.625 16.6667 10.5703 16.6667 11.6875C16.6667 12.8477 17.5781 13.75 18.75 13.75C19.8785 13.75 20.8333 12.8477 20.8333 11.6875C20.8333 10.5703 19.8785 9.625 18.75 9.625ZM20.9201 16.5C23.1771 16.5 25 18.3047 25 20.5391C25 21.3555 24.3056 22 23.4809 22H13.9757C13.151 22 12.5 21.3555 12.5 20.5391C12.5 18.3047 14.2795 16.5 16.5365 16.5H20.9201ZM13.9757 20.625H23.4809C23.5243 20.625 23.6111 20.582 23.6111 20.5391C23.6111 19.0781 22.3958 17.875 20.9201 17.875H16.5365C15.0608 17.875 13.8889 19.0781 13.8889 20.5391C13.8889 20.582 13.9323 20.625 13.9757 20.625Z" fill="#00AEC7"/>
</svg>
