<svg width="26" height="21" viewBox="0 0 26 21" fill="none" xmlns="http://www.w3.org/2000/svg">
<path d="M11.2202 12.375H7.2749C3.5249 12.375 0.51709 15.4219 0.51709 19.1719C0.51709 19.9141 1.10303 20.5 1.84521 20.5H16.6499C17.3921 20.5 18.0171 19.9141 18.0171 19.1719C18.0171 15.4219 14.9702 12.375 11.2202 12.375ZM16.6499 19.25H1.84521C1.80615 19.25 1.76709 19.2109 1.76709 19.1719C1.76709 16.125 4.22803 13.625 7.2749 13.625H11.2202C14.2671 13.625 16.7671 16.125 16.7671 19.1719C16.7671 19.2109 16.689 19.25 16.6499 19.25ZM9.26709 10.5C12.0015 10.5 14.2671 8.27344 14.2671 5.5C14.2671 2.76562 12.0015 0.5 9.26709 0.5C6.49365 0.5 4.26709 2.76562 4.26709 5.5C4.26709 8.27344 6.49365 10.5 9.26709 10.5ZM9.26709 1.75C11.2983 1.75 13.0171 3.46875 13.0171 5.5C13.0171 7.57031 11.2983 9.25 9.26709 9.25C7.19678 9.25 5.51709 7.57031 5.51709 5.5C5.51709 3.46875 7.19678 1.75 9.26709 1.75ZM15.1655 9.91406C15.8296 10.3047 16.6108 10.5 17.3921 10.5C19.7749 10.5 21.7671 8.54688 21.7671 6.125C21.7671 3.74219 19.7749 1.75 17.3921 1.75C16.8843 1.75 16.3765 1.86719 15.9077 2.02344C15.5952 2.14062 15.3999 2.49219 15.5171 2.80469C15.6343 3.15625 16.0249 3.3125 16.3374 3.19531C16.6499 3.07812 17.0015 3 17.3921 3C19.1108 3 20.5171 4.40625 20.5171 6.125C20.5171 7.88281 19.1108 9.25 17.3921 9.25C16.8062 9.25 16.2983 9.13281 15.8296 8.85938C15.5171 8.66406 15.1265 8.78125 14.9702 9.09375C14.7749 9.36719 14.8921 9.75781 15.1655 9.91406ZM19.6577 13H18.0171C17.6655 13 17.3921 13.3125 17.3921 13.625C17.3921 13.9766 17.6655 14.25 18.0171 14.25H19.6577C22.1968 14.25 24.2671 16.3203 24.2671 18.8594C24.2671 19.0938 24.0718 19.25 23.8374 19.25H19.8921C19.5405 19.25 19.2671 19.5625 19.2671 19.875C19.2671 20.2266 19.5405 20.5 19.8921 20.5H23.8374C24.7358 20.5 25.5171 19.7578 25.5171 18.8594C25.5171 15.6172 22.8999 13 19.6577 13Z" fill="#00AEC7"/>
</svg>
