<svg width="23" height="15" viewBox="0 0 23 15" fill="none" xmlns="http://www.w3.org/2000/svg">
<path d="M22.0469 1.40625C21.6562 1.21094 21.1484 1.21094 20.7578 1.48438L16.7344 4.29688C16.4609 4.49219 16.3828 4.88281 16.5781 5.19531C16.7734 5.46875 17.1641 5.50781 17.4766 5.3125L21.5 2.5V12.5L17.4766 9.6875C17.1641 9.49219 16.7734 9.57031 16.5781 9.84375C16.3828 10.1562 16.4609 10.5469 16.7344 10.7422L20.7578 13.5547C20.9922 13.7109 21.2266 13.75 21.5 13.75C21.6953 13.75 21.8906 13.7109 22.0469 13.6328C22.4766 13.3984 22.75 12.9688 22.75 12.5V2.5C22.75 2.03125 22.4766 1.64062 22.0469 1.40625ZM12.75 0H2.75C1.34375 0 0.25 1.13281 0.25 2.5V12.5C0.25 13.9062 1.34375 15 2.75 15H12.75C14.1172 15 15.25 13.9062 15.25 12.5V2.5C15.25 1.13281 14.1172 0 12.75 0ZM14 12.5C14 13.2031 13.4141 13.75 12.75 13.75H2.75C2.04688 13.75 1.5 13.2031 1.5 12.5V2.5C1.5 1.83594 2.04688 1.25 2.75 1.25H12.75C13.4141 1.25 14 1.83594 14 2.5V12.5Z" fill="#00AEC7"/>
</svg>
