<svg width="1080" height="37" viewBox="0 0 1080 37" fill="none" xmlns="http://www.w3.org/2000/svg">
<path d="M32.1778 20.9332C32.6523 20.9332 33.059 20.6481 33.1945 20.149L36.3124 12.022L42.006 35.9751C42.1415 36.5454 42.5482 36.8306 43.0905 36.9019C43.5649 36.8306 44.0394 36.4741 44.1072 35.9751L49.6652 6.6754L52.8509 20.0064C52.9864 20.5054 53.4609 20.9332 53.8676 20.9332L1078.9 20.9331C1079.24 20.9331 1079.44 20.6481 1079.44 20.3628V19.2222C1079.44 18.8657 1079.24 18.6519 1078.9 18.6519H54.7488L50.6141 1.25744C50.4786 0.687133 50.0719 0.401978 49.5296 0.401978C49.0552 0.401977 48.5807 0.758421 48.5129 1.25744L42.9549 30.5572L37.6002 8.10117C37.4647 7.60215 37.058 7.24571 36.6513 7.24571C36.109 7.17442 35.7024 7.45958 35.5668 7.95859L31.5 18.6519H0.667247C0.396124 18.6519 0.125 18.8657 0.125 19.2222L0.125 20.3628C0.125 20.6481 0.396123 20.9332 0.667246 20.9332H32.1778Z" fill="#00285F"/>
</svg>
