<svg width="1098" height="37" viewBox="0 0 1098 37" fill="none" xmlns="http://www.w3.org/2000/svg">
<path d="M42.1534 20.9199C42.6278 20.9199 43.0345 20.6347 43.1701 20.1357L46.288 12.0087L51.9816 35.9618C52.1171 36.5321 52.5238 36.8173 53.0661 36.8886C53.5405 36.8173 54.015 36.4608 54.0828 35.9618L59.6408 6.66209L62.8265 19.9931C62.962 20.4921 63.4365 20.9199 63.8432 20.9199L1088.87 20.9198C1089.21 20.9198 1089.41 20.6347 1089.41 20.3495V19.2089C1089.41 18.8524 1089.21 18.6386 1088.87 18.6386H64.7244L60.5897 1.24414C60.4542 0.673827 60.0475 0.388672 59.5052 0.388672C59.0308 0.388672 58.5563 0.745116 58.4885 1.24414L52.9305 30.5439L47.5758 8.08787C47.4403 7.58884 47.0336 7.2324 46.6269 7.2324C46.0846 7.16112 45.678 7.44627 45.5424 7.94529L41.4756 18.6386H10.6428C10.3717 18.6386 10.1006 18.8524 10.1006 19.2089L10.1006 20.3495C10.1006 20.6347 10.3717 20.9199 10.6428 20.9199H42.1534Z" fill="#00285F"/>
</svg>
