<svg width="76" height="71" viewBox="0 0 76 71" fill="none" xmlns="http://www.w3.org/2000/svg">
<path d="M63.1636 34.7301C64.0133 36.8072 62.5971 38.9787 60.0479 38.9787H57.121V45.1157C57.121 48.4202 54.4774 51.0638 51.1729 51.0638H45.1303V55.5958C45.1303 56.4455 44.4694 57.1064 43.6197 57.1064C42.8644 57.1064 42.2035 56.4455 42.2035 55.5958L42.2979 49.5532C42.2979 48.7979 42.9588 48.0426 43.8085 48.0426H51.3617C52.9668 48.0426 54.383 46.7208 54.383 45.0213V37.4681C54.383 36.7128 55.0439 35.9575 55.8936 35.9575H60.3311C59.5758 34.1636 58.7261 31.6144 57.6875 28.8763C56.3657 25.1942 54.8551 20.5678 53.7221 18.8684C50.6064 14.4309 45.508 11.7872 40.1263 11.7872H33.8949C25.492 11.7872 18.4109 18.3019 18.1277 26.3271C17.9388 30.8591 19.7327 35.1077 23.1316 38.129L23.9814 39.0732V55.5958C23.9814 56.4455 23.3205 57.1064 22.5652 57.1064C21.7154 57.1064 21.0545 56.4455 21.0545 55.5958L21.1489 40.395C17.2779 36.996 14.8231 31.8976 15.1064 26.2327C15.484 16.4136 24.0758 8.76597 33.9894 8.76597H40.2207C46.641 8.76597 52.5891 11.9761 56.2713 17.1689C58.5372 20.4734 61.1809 30.2926 63.1636 34.7301ZM46.0745 29.9149H43.7141C43.3364 32.5585 41.1649 34.4468 38.5213 34.4468C37.6715 34.4468 37.0106 33.7859 37.0106 32.9362C37.0106 32.1809 37.6715 31.4255 38.5213 31.4255C39.7487 31.4255 40.7872 30.4814 40.7872 29.1596C40.6928 29.1596 40.5984 28.7819 40.5984 28.7819C40.504 28.3099 40.5984 27.8378 40.8816 27.4601C41.1649 27.1769 41.637 26.8936 42.109 26.8936H46.0745C47.3019 26.8936 48.3404 25.9495 48.3404 24.6277C48.3404 23.4003 47.3019 22.3617 46.0745 22.3617C46.0745 22.3617 45.8856 22.4561 45.6024 22.5505C45.2247 22.645 44.7527 22.645 44.375 22.3617C43.9973 22.1729 43.7141 21.7952 43.6197 21.3232C43.5253 20.1902 42.5811 19.3404 41.5426 19.3404C41.1649 19.3404 40.7872 19.5293 40.3152 19.8125C40.0319 20.0013 39.5598 20.0958 39.1822 19.9069C38.7101 19.8125 38.4269 19.5293 38.238 19.1516C37.3883 17.5466 35.0279 17.5466 34.1782 19.1516C33.9894 19.5293 33.7061 19.8125 33.234 19.9069C32.8564 20.0958 32.3843 20.0013 32.1011 19.8125C31.629 19.5293 31.2513 19.3404 30.9681 19.3404C29.7407 19.3404 28.7021 20.2846 28.7021 21.512C28.7021 21.6064 28.7021 21.7008 28.7021 21.7008C28.7021 22.1729 28.5133 22.645 28.1356 22.9282C27.758 23.3059 27.2859 23.4003 26.8138 23.3059L26.5306 23.2115C25.1144 23.117 24.1702 24.1556 24.1702 25.383C24.1702 26.516 24.9255 27.3657 25.9641 27.5545C26.7194 27.7434 27.1915 28.4043 27.1915 29.0652C27.1915 29.1596 27.1915 29.254 27.1915 29.3484C27.1915 30.4814 28.2301 31.4255 29.4574 31.4255H31.7234C32.4787 31.4255 33.234 32.1809 33.234 32.9362V37.4681C33.234 38.3178 32.4787 38.9787 31.7234 38.9787C30.8737 38.9787 30.2128 38.3178 30.2128 37.4681V34.4468H29.4574C26.8138 34.4468 24.6423 32.6529 24.1702 30.1982C22.3763 29.3484 21.1489 27.5545 21.1489 25.383C21.1489 22.645 23.2261 20.379 25.8697 20.1902C26.7194 17.4521 29.5519 15.6583 32.2899 16.6024C34.2726 14.4309 38.1436 14.4309 40.1263 16.6024C42.5811 15.7527 45.1303 17.1689 46.1689 19.4349C49.0013 19.5293 51.3617 21.7952 51.3617 24.6277C51.3617 27.5545 48.9069 29.9149 46.0745 29.9149Z" fill="#0081A4"/>
<path d="M63.1636 34.7301C64.0133 36.8072 62.5971 38.9787 60.0479 38.9787H57.121V45.1157C57.121 48.4202 54.4774 51.0638 51.1729 51.0638H45.1303V55.5958C45.1303 56.4455 44.4694 57.1064 43.6197 57.1064C42.8644 57.1064 42.2035 56.4455 42.2035 55.5958L42.2979 49.5532C42.2979 48.7979 42.9588 48.0426 43.8085 48.0426H51.3617C52.9668 48.0426 54.383 46.7208 54.383 45.0213V37.4681C54.383 36.7128 55.0439 35.9575 55.8936 35.9575H60.3311C59.5758 34.1636 58.7261 31.6144 57.6875 28.8763C56.3657 25.1942 54.8551 20.5678 53.7221 18.8684C50.6064 14.4309 45.508 11.7872 40.1263 11.7872H33.8949C25.492 11.7872 18.4109 18.3019 18.1277 26.3271C17.9388 30.8591 19.7327 35.1077 23.1316 38.129L23.9814 39.0732V55.5958C23.9814 56.4455 23.3205 57.1064 22.5652 57.1064C21.7154 57.1064 21.0545 56.4455 21.0545 55.5958L21.1489 40.395C17.2779 36.996 14.8231 31.8976 15.1064 26.2327C15.484 16.4136 24.0758 8.76597 33.9894 8.76597H40.2207C46.641 8.76597 52.5891 11.9761 56.2713 17.1689C58.5372 20.4734 61.1809 30.2926 63.1636 34.7301ZM46.0745 29.9149H43.7141C43.3364 32.5585 41.1649 34.4468 38.5213 34.4468C37.6715 34.4468 37.0106 33.7859 37.0106 32.9362C37.0106 32.1809 37.6715 31.4255 38.5213 31.4255C39.7487 31.4255 40.7872 30.4814 40.7872 29.1596C40.6928 29.1596 40.5984 28.7819 40.5984 28.7819C40.504 28.3099 40.5984 27.8378 40.8816 27.4601C41.1649 27.1769 41.637 26.8936 42.109 26.8936H46.0745C47.3019 26.8936 48.3404 25.9495 48.3404 24.6277C48.3404 23.4003 47.3019 22.3617 46.0745 22.3617C46.0745 22.3617 45.8856 22.4561 45.6024 22.5505C45.2247 22.645 44.7527 22.645 44.375 22.3617C43.9973 22.1729 43.7141 21.7952 43.6197 21.3232C43.5253 20.1902 42.5811 19.3404 41.5426 19.3404C41.1649 19.3404 40.7872 19.5293 40.3152 19.8125C40.0319 20.0013 39.5598 20.0958 39.1822 19.9069C38.7101 19.8125 38.4269 19.5293 38.238 19.1516C37.3883 17.5466 35.0279 17.5466 34.1782 19.1516C33.9894 19.5293 33.7061 19.8125 33.234 19.9069C32.8564 20.0958 32.3843 20.0013 32.1011 19.8125C31.629 19.5293 31.2513 19.3404 30.9681 19.3404C29.7407 19.3404 28.7021 20.2846 28.7021 21.512C28.7021 21.6064 28.7021 21.7008 28.7021 21.7008C28.7021 22.1729 28.5133 22.645 28.1356 22.9282C27.758 23.3059 27.2859 23.4003 26.8138 23.3059L26.5306 23.2115C25.1144 23.117 24.1702 24.1556 24.1702 25.383C24.1702 26.516 24.9255 27.3657 25.9641 27.5545C26.7194 27.7434 27.1915 28.4043 27.1915 29.0652C27.1915 29.1596 27.1915 29.254 27.1915 29.3484C27.1915 30.4814 28.2301 31.4255 29.4574 31.4255H31.7234C32.4787 31.4255 33.234 32.1809 33.234 32.9362V37.4681C33.234 38.3178 32.4787 38.9787 31.7234 38.9787C30.8737 38.9787 30.2128 38.3178 30.2128 37.4681V34.4468H29.4574C26.8138 34.4468 24.6423 32.6529 24.1702 30.1982C22.3763 29.3484 21.1489 27.5545 21.1489 25.383C21.1489 22.645 23.2261 20.379 25.8697 20.1902C26.7194 17.4521 29.5519 15.6583 32.2899 16.6024C34.2726 14.4309 38.1436 14.4309 40.1263 16.6024C42.5811 15.7527 45.1303 17.1689 46.1689 19.4349C49.0013 19.5293 51.3617 21.7952 51.3617 24.6277C51.3617 27.5545 48.9069 29.9149 46.0745 29.9149Z" fill="url(#paint0_linear_0_6648)"/>
<rect x="1.13298" y="1.13298" width="73.266" height="68.734" rx="5.66489" stroke="url(#paint1_linear_0_6648)" stroke-width="2.26596"/>
<defs>
<linearGradient id="paint0_linear_0_6648" x1="33.9894" y1="9.06384" x2="33.9894" y2="47.5851" gradientUnits="userSpaceOnUse">
<stop stop-color="#3BC1CD"/>
<stop offset="1" stop-opacity="0"/>
</linearGradient>
<linearGradient id="paint1_linear_0_6648" x1="37.766" y1="0" x2="37.766" y2="71" gradientUnits="userSpaceOnUse">
<stop stop-color="#5867DD"/>
<stop offset="1" stop-color="#3BC1CD"/>
</linearGradient>
</defs>
</svg>
