<svg width="212" height="95" viewBox="0 0 212 95" fill="none" xmlns="http://www.w3.org/2000/svg">
<rect width="212" height="94.9033" rx="8" fill="#E9E9EA"/>
<path d="M93.2792 38.9033C92.9455 38.6514 92.9127 38.3055 92.9483 37.9241C93.2457 34.7077 94.7351 32.2631 97.6825 30.8042C98.6702 30.3153 99.7624 30.0755 100.804 29.7167C100.979 29.6566 101.091 29.5766 101.171 29.4097C101.413 28.9009 101.665 28.3965 101.93 27.8991C102.011 27.747 101.989 27.6599 101.874 27.5411C101.545 27.2015 101.243 26.83 101.053 26.3991C100.903 26.0588 100.707 25.9534 100.332 25.959C99.608 25.9689 99.0736 25.6095 98.7641 24.9501C98.599 24.5985 98.6047 24.2178 98.6211 23.8414C98.6282 23.6815 98.5776 23.6022 98.4275 23.5258C97.8426 23.2287 97.4968 22.7391 97.4925 22.0867C97.4839 20.6285 97.4099 19.1674 97.5316 17.7128C97.7095 15.5845 98.5933 13.7711 100.16 12.3115C102.054 10.5469 104.319 9.78912 106.895 10.0502C109.244 10.2886 111.169 11.3613 112.65 13.1888C113.946 14.7871 114.53 16.6352 114.519 18.68C114.514 19.7434 114.519 20.8068 114.518 21.8702C114.516 23.01 113.807 23.7091 112.655 23.7133C112.372 23.714 112.024 23.6249 111.823 23.7544C111.631 23.8789 111.695 24.2567 111.643 24.522C111.415 25.6852 110.902 26.7034 110.092 27.5722C110.001 27.6706 109.992 27.7456 110.053 27.863C110.33 28.3965 110.603 28.9321 110.865 29.474C110.931 29.6113 111.03 29.6601 111.16 29.7019C111.975 29.9679 112.793 30.2297 113.603 30.5113C115.734 31.2521 117.225 32.7011 118.21 34.69C118.742 35.7654 119.009 36.9116 119.061 38.1102C119.078 38.4852 118.975 38.7604 118.607 38.9019H93.2792V38.9033ZM102.142 25.9718C102.151 26.0213 102.148 26.0418 102.157 26.0553C103.115 27.609 104.9 28.4474 106.586 28.2097C108.549 27.933 110.004 26.392 110.422 24.7053C110.814 23.1218 110.935 21.4973 111.061 19.8757C111.082 19.6068 110.97 19.5644 110.761 19.541C110.112 19.4681 109.471 19.3514 108.845 19.1674C107.346 18.7281 106.009 17.9965 104.846 16.955C104.753 16.8715 104.677 16.7618 104.512 16.7802C103.794 16.863 103.139 17.0986 102.546 17.5132C101.881 17.9795 101.465 18.6609 100.979 19.2821C100.911 19.3684 100.934 19.4597 100.937 19.5516C100.969 20.332 101.035 21.1096 101.124 21.8851C101.231 22.8091 101.338 23.7324 101.549 24.6416C101.587 24.8072 101.651 24.8482 101.811 24.844C102.217 24.8326 102.625 24.8334 103.031 24.844C103.192 24.8482 103.273 24.8015 103.348 24.6508C103.588 24.1697 103.979 23.8598 104.516 23.7572C105.022 23.6603 105.536 23.7034 106.044 23.7197C106.989 23.7508 107.707 24.5015 107.702 25.4164C107.697 26.3298 106.97 27.0642 106.024 27.096C105.617 27.1095 105.21 27.1088 104.803 27.0946C104.285 27.0762 103.791 26.8916 103.549 26.4437C103.3 25.9803 102.968 25.9187 102.528 25.9689C102.407 25.9831 102.283 25.9711 102.142 25.9711V25.9718ZM104.979 37.7734C104.709 37.346 104.485 36.9435 104.215 36.5748C102.953 34.8499 101.926 33.0004 101.181 30.9981C101.12 30.8325 101.058 30.8155 100.896 30.8721C100.201 31.1134 99.502 31.3384 98.8032 31.5662C96.1227 32.4414 94.3921 35.0197 94.1217 37.5498C94.1011 37.7437 94.1502 37.7783 94.333 37.7776C96.2437 37.7713 98.155 37.7741 100.066 37.7741H104.978L104.979 37.7734ZM107.017 37.7734H117.246C117.929 37.7734 117.945 37.7706 117.81 37.0998C117.33 34.7084 116.069 32.8815 113.823 31.8174C112.963 31.4106 112.024 31.1976 111.128 30.8785C110.945 30.8134 110.877 30.8396 110.807 31.0285C110.083 32.977 109.086 34.7791 107.865 36.4637C107.57 36.872 107.316 37.31 107.017 37.7741V37.7734ZM111.087 18.4422C111.346 16.5071 110.086 14.4468 108.227 13.7103C107.29 13.3388 106.32 13.3607 105.348 13.3855C103.514 13.4322 101.862 14.6046 101.206 16.3111C101.07 16.6635 100.953 17.0236 100.942 17.463C101.024 17.3753 101.067 17.3293 101.112 17.2826C102.059 16.2744 103.233 15.7458 104.612 15.6425C104.929 15.6185 105.176 15.7076 105.405 15.9255C106.995 17.4397 108.911 18.2307 111.087 18.4415V18.4422ZM98.6531 17.8967C98.9434 17.8967 99.2088 17.8783 99.4707 17.9024C99.7069 17.9243 99.7525 17.8422 99.7752 17.6165C100.017 15.1621 101.288 13.4683 103.609 12.5782C104.707 12.1572 105.86 12.199 107 12.2825C108.484 12.3921 109.736 13.0282 110.741 14.1227C111.667 15.131 112.158 16.3267 112.233 17.688C112.242 17.8606 112.287 17.913 112.46 17.901C112.695 17.8847 112.933 17.8889 113.169 17.8995C113.316 17.9059 113.355 17.872 113.339 17.7149C113.251 16.8262 113.011 15.98 112.601 15.1897C111.055 12.2117 107.946 10.6509 104.637 11.2509C101.302 11.8558 98.8815 14.6506 98.6531 17.8967ZM105.999 37.2937C106.617 36.1899 107.369 35.2581 107.992 34.2407C108.07 34.1133 108.041 34.0497 107.947 33.957C107.322 33.3414 106.699 32.7237 106.083 32.099C105.974 31.9886 105.917 31.9971 105.817 32.1039C105.23 32.7301 104.639 33.352 104.042 33.969C103.942 34.0723 103.948 34.1423 104.018 34.2577C104.637 35.268 105.389 36.1906 105.999 37.2937ZM108.653 33.0584C109.155 32.128 109.552 31.1778 109.903 30.2085C109.924 30.1519 109.912 30.103 109.885 30.0479C109.643 29.5731 109.406 29.0969 109.155 28.5988C108.364 29.4316 107.593 30.2446 106.817 31.0547C106.751 31.124 106.743 31.1636 106.814 31.2337C107.423 31.8351 108.03 32.4393 108.652 33.0584H108.653ZM102.75 28.7885C102.538 29.208 102.353 29.588 102.153 29.9601C102.084 30.0903 102.087 30.2007 102.141 30.3309C102.318 30.7653 102.474 31.2082 102.662 31.6377C102.871 32.1124 103.077 32.5907 103.354 33.0527C103.921 32.4577 104.464 31.8804 105.017 31.3143C105.138 31.1905 105.104 31.1261 104.999 31.025C104.692 30.7313 104.396 30.4278 104.095 30.1278C103.655 29.6891 103.215 29.2512 102.75 28.7885ZM113.383 20.5776C113.383 20.3618 113.389 20.1453 113.381 19.9302C113.37 19.6337 113.512 19.2255 113.326 19.0712C113.147 18.9219 112.75 19.0408 112.451 19.0217C112.28 19.0111 112.229 19.0613 112.219 19.2325C112.172 20.1127 112.131 20.9943 112.027 21.8709C112 22.0987 111.855 22.42 112 22.5367C112.15 22.6577 112.466 22.5834 112.71 22.5813C113.167 22.5777 113.379 22.3619 113.382 21.9006C113.386 21.4591 113.383 21.0183 113.383 20.5768V20.5776ZM98.6175 20.6016C98.6175 21.0523 98.6118 21.503 98.6196 21.9537C98.6267 22.3457 98.8445 22.5664 99.2309 22.5813C99.4479 22.5898 99.6657 22.5728 99.882 22.5862C100.035 22.5961 100.053 22.531 100.036 22.4058C99.8962 21.3346 99.8315 20.2578 99.7752 19.1802C99.7688 19.0606 99.7354 19.0189 99.6116 19.0231C99.3476 19.0316 99.0822 19.0351 98.8189 19.0224C98.6609 19.0146 98.6104 19.0592 98.6139 19.2219C98.6253 19.6818 98.6182 20.1417 98.6182 20.6023L98.6175 20.6016ZM105.432 25.9704C105.611 25.9704 105.79 25.9774 105.969 25.9689C106.316 25.952 106.559 25.7213 106.564 25.4142C106.569 25.1086 106.328 24.8581 105.985 24.8461C105.617 24.8326 105.249 24.8326 104.882 24.8461C104.539 24.8581 104.296 25.1072 104.301 25.4128C104.305 25.7199 104.549 25.952 104.895 25.9689C105.074 25.9781 105.253 25.9704 105.432 25.9704H105.432ZM106.93 29.2908C106.195 29.4026 105.54 29.3814 104.826 29.2469C105.194 29.6156 105.525 29.9446 105.852 30.2771C105.921 30.3471 105.962 30.3132 106.012 30.2601C106.3 29.9545 106.59 29.6495 106.93 29.2908ZM99.9873 23.719C99.7653 23.6553 99.7325 23.7749 99.751 23.9567C99.7631 24.0777 99.7446 24.2022 99.7617 24.3218C99.7987 24.5907 99.9524 24.764 100.223 24.8263C100.349 24.8553 100.441 24.8701 100.391 24.6756C100.329 24.4315 100.293 24.1789 100.262 23.9284C100.241 23.7537 100.17 23.673 99.988 23.719H99.9873Z" fill="#54585A"/>
<path d="M20.2195 60.9033L15.7815 51.0333H18.1335L21.5075 58.9293H20.8215L24.1955 51.0333H26.4635L22.0255 60.9033H20.2195ZM25.2435 60.9033L29.7795 51.0333H31.5855L36.1775 60.9033H33.9655L32.7755 58.1593L33.6295 58.7613H27.7635L28.6315 58.1593L27.4415 60.9033H25.2435ZM30.6755 53.3293L28.8695 57.6133L28.4915 57.0813H32.9015L32.5795 57.6133L30.7315 53.3293H30.6755ZM37.0285 60.9033V51.0333H39.2125V59.0693H43.6645V60.9033H37.0285ZM44.1583 55.9613C44.1583 54.9347 44.3497 54.0433 44.7323 53.2873C45.1243 52.522 45.6843 51.9293 46.4123 51.5093C47.1403 51.0893 48.0037 50.8793 49.0023 50.8793C50.001 50.8793 50.8643 51.0893 51.5923 51.5093C52.3203 51.9293 52.8803 52.522 53.2723 53.2873C53.6737 54.0433 53.8743 54.93 53.8743 55.9473C53.8743 56.9833 53.6737 57.884 53.2723 58.6493C52.8803 59.4053 52.3203 59.998 51.5923 60.4273C50.8643 60.8473 50.001 61.0573 49.0023 61.0573C48.0037 61.0573 47.1403 60.8473 46.4123 60.4273C45.6937 59.998 45.1383 59.4007 44.7463 58.6353C44.3543 57.87 44.1583 56.9787 44.1583 55.9613ZM46.4403 55.9613C46.4403 56.9787 46.6503 57.7767 47.0703 58.3553C47.4997 58.9247 48.1437 59.2093 49.0023 59.2093C49.8423 59.2093 50.4817 58.9247 50.9203 58.3553C51.359 57.7767 51.5783 56.9787 51.5783 55.9613C51.5783 54.9347 51.359 54.1413 50.9203 53.5813C50.491 53.012 49.8517 52.7273 49.0023 52.7273C48.1437 52.7273 47.4997 53.012 47.0703 53.5813C46.6503 54.1413 46.4403 54.9347 46.4403 55.9613ZM55.5812 60.9033V51.0333H60.0612C61.1719 51.0333 62.0306 51.2993 62.6372 51.8313C63.2439 52.354 63.5472 53.0867 63.5472 54.0293C63.5472 54.6453 63.4072 55.1773 63.1272 55.6253C62.8566 56.064 62.4646 56.4047 61.9512 56.6473C61.4472 56.8807 60.8406 56.9973 60.1312 56.9973L60.2992 56.6893H60.8732C61.2746 56.6893 61.6292 56.7967 61.9372 57.0113C62.2546 57.226 62.5159 57.5387 62.7212 57.9493L64.1912 60.9033H61.7832L60.2572 57.7253C60.1452 57.4547 59.9679 57.2773 59.7252 57.1933C59.4919 57.1 59.2212 57.0533 58.9132 57.0533H57.7652V60.9033H55.5812ZM57.7652 55.4853H59.6832C60.2526 55.4853 60.6866 55.3687 60.9852 55.1353C61.2839 54.902 61.4332 54.5567 61.4332 54.0993C61.4332 53.642 61.2839 53.3013 60.9852 53.0773C60.6866 52.844 60.2526 52.7273 59.6832 52.7273H57.7652V55.4853ZM64.1399 60.9033L68.6759 51.0333H70.4819L75.0739 60.9033H72.8619L71.6719 58.1593L72.5259 58.7613H66.6599L67.5279 58.1593L66.3379 60.9033H64.1399ZM69.5719 53.3293L67.7659 57.6133L67.3879 57.0813H71.7979L71.4759 57.6133L69.6279 53.3293H69.5719ZM75.939 60.9033V51.0333H77.857L81.287 58.7333H80.839L84.269 51.0333H86.173V60.9033H84.185V54.1973H84.745L81.679 60.9033H80.419L77.339 54.1973H77.927V60.9033H75.939ZM87.9083 55.9613C87.9083 54.9347 88.0997 54.0433 88.4823 53.2873C88.8743 52.522 89.4343 51.9293 90.1623 51.5093C90.8903 51.0893 91.7537 50.8793 92.7523 50.8793C93.751 50.8793 94.6143 51.0893 95.3423 51.5093C96.0703 51.9293 96.6303 52.522 97.0223 53.2873C97.4237 54.0433 97.6243 54.93 97.6243 55.9473C97.6243 56.9833 97.4237 57.884 97.0223 58.6493C96.6303 59.4053 96.0703 59.998 95.3423 60.4273C94.6143 60.8473 93.751 61.0573 92.7523 61.0573C91.7537 61.0573 90.8903 60.8473 90.1623 60.4273C89.4437 59.998 88.8883 59.4007 88.4963 58.6353C88.1043 57.87 87.9083 56.9787 87.9083 55.9613ZM90.1903 55.9613C90.1903 56.9787 90.4003 57.7767 90.8203 58.3553C91.2497 58.9247 91.8937 59.2093 92.7523 59.2093C93.5923 59.2093 94.2317 58.9247 94.6703 58.3553C95.109 57.7767 95.3283 56.9787 95.3283 55.9613C95.3283 54.9347 95.109 54.1413 94.6703 53.5813C94.241 53.012 93.6017 52.7273 92.7523 52.7273C91.8937 52.7273 91.2497 53.012 90.8203 53.5813C90.4003 54.1413 90.1903 54.9347 90.1903 55.9613ZM102.901 61.0573C102.108 61.0573 101.366 60.9593 100.675 60.7633C99.9846 60.5673 99.3966 60.2967 98.9112 59.9513L99.5552 58.2433C99.8726 58.458 100.209 58.64 100.563 58.7893C100.918 58.9387 101.291 59.0553 101.683 59.1393C102.075 59.214 102.486 59.2513 102.915 59.2513C103.587 59.2513 104.063 59.1487 104.343 58.9433C104.633 58.738 104.777 58.4767 104.777 58.1593C104.777 57.87 104.679 57.6507 104.483 57.5013C104.297 57.3427 103.951 57.2073 103.447 57.0953L101.795 56.7593C100.89 56.5727 100.213 56.2553 99.7652 55.8073C99.3172 55.3593 99.0932 54.762 99.0932 54.0153C99.0932 53.3807 99.2612 52.83 99.5972 52.3633C99.9332 51.8967 100.405 51.5327 101.011 51.2713C101.627 51.01 102.346 50.8793 103.167 50.8793C103.867 50.8793 104.521 50.9773 105.127 51.1733C105.734 51.3693 106.233 51.6493 106.625 52.0133L105.981 53.6093C105.599 53.3013 105.169 53.0727 104.693 52.9233C104.227 52.7647 103.704 52.6853 103.125 52.6853C102.519 52.6853 102.052 52.7927 101.725 53.0073C101.408 53.222 101.249 53.516 101.249 53.8893C101.249 54.1693 101.347 54.398 101.543 54.5753C101.739 54.7433 102.085 54.8787 102.579 54.9813L104.203 55.3033C105.127 55.49 105.813 55.8027 106.261 56.2413C106.709 56.68 106.933 57.2633 106.933 57.9913C106.933 58.6073 106.765 59.144 106.429 59.6013C106.103 60.0587 105.636 60.418 105.029 60.6793C104.432 60.9313 103.723 61.0573 102.901 61.0573ZM114.779 60.9033V52.8113H111.643V51.0333H120.099V52.8113H116.963V60.9033H114.779ZM125.53 61.0573C124.084 61.0573 123.006 60.698 122.296 59.9793C121.587 59.2607 121.232 58.192 121.232 56.7733V51.0333H123.416V56.7873C123.416 57.5807 123.584 58.1827 123.92 58.5933C124.266 59.004 124.802 59.2093 125.53 59.2093C126.24 59.2093 126.767 59.004 127.112 58.5933C127.467 58.1827 127.644 57.5807 127.644 56.7873V51.0333H129.8V56.7733C129.8 58.192 129.441 59.2607 128.722 59.9793C128.013 60.698 126.949 61.0573 125.53 61.0573ZM135.391 55.9613C135.391 54.9347 135.582 54.0433 135.965 53.2873C136.357 52.522 136.917 51.9293 137.645 51.5093C138.373 51.0893 139.236 50.8793 140.235 50.8793C141.233 50.8793 142.097 51.0893 142.825 51.5093C143.553 51.9293 144.113 52.522 144.505 53.2873C144.906 54.0433 145.107 54.93 145.107 55.9473C145.107 56.9833 144.906 57.884 144.505 58.6493C144.113 59.4053 143.553 59.998 142.825 60.4273C142.097 60.8473 141.233 61.0573 140.235 61.0573C139.236 61.0573 138.373 60.8473 137.645 60.4273C136.926 59.998 136.371 59.4007 135.979 58.6353C135.587 57.87 135.391 56.9787 135.391 55.9613ZM137.673 55.9613C137.673 56.9787 137.883 57.7767 138.303 58.3553C138.732 58.9247 139.376 59.2093 140.235 59.2093C141.075 59.2093 141.714 58.9247 142.153 58.3553C142.591 57.7767 142.811 56.9787 142.811 55.9613C142.811 54.9347 142.591 54.1413 142.153 53.5813C141.723 53.012 141.084 52.7273 140.235 52.7273C139.376 52.7273 138.732 53.012 138.303 53.5813C137.883 54.1413 137.673 54.9347 137.673 55.9613ZM146.814 60.9033V51.0333H151.42C152.53 51.0333 153.37 51.304 153.94 51.8453C154.518 52.3773 154.808 53.11 154.808 54.0433C154.808 54.9673 154.518 55.7047 153.94 56.2553C153.37 56.7967 152.53 57.0673 151.42 57.0673H148.998V60.9033H146.814ZM148.998 55.3733H151.14C151.662 55.3733 152.05 55.2567 152.302 55.0233C152.563 54.79 152.694 54.4633 152.694 54.0433C152.694 53.6233 152.563 53.3013 152.302 53.0773C152.05 52.844 151.662 52.7273 151.14 52.7273H148.998V55.3733ZM156.261 60.9033V51.0333H158.445V60.9033H156.261ZM160.445 60.9033V51.0333H162.069L167.431 57.8513H167.053V51.0333H169.083V60.9033H167.459L162.111 54.0853H162.475V60.9033H160.445ZM171.081 60.9033V51.0333H173.265V60.9033H171.081ZM174.971 55.9613C174.971 54.9347 175.162 54.0433 175.545 53.2873C175.937 52.522 176.497 51.9293 177.225 51.5093C177.953 51.0893 178.816 50.8793 179.815 50.8793C180.814 50.8793 181.677 51.0893 182.405 51.5093C183.133 51.9293 183.693 52.522 184.085 53.2873C184.486 54.0433 184.687 54.93 184.687 55.9473C184.687 56.9833 184.486 57.884 184.085 58.6493C183.693 59.4053 183.133 59.998 182.405 60.4273C181.677 60.8473 180.814 61.0573 179.815 61.0573C178.816 61.0573 177.953 60.8473 177.225 60.4273C176.506 59.998 175.951 59.4007 175.559 58.6353C175.167 57.87 174.971 56.9787 174.971 55.9613ZM177.253 55.9613C177.253 56.9787 177.463 57.7767 177.883 58.3553C178.312 58.9247 178.956 59.2093 179.815 59.2093C180.655 59.2093 181.294 58.9247 181.733 58.3553C182.172 57.7767 182.391 56.9787 182.391 55.9613C182.391 54.9347 182.172 54.1413 181.733 53.5813C181.304 53.012 180.664 52.7273 179.815 52.7273C178.956 52.7273 178.312 53.012 177.883 53.5813C177.463 54.1413 177.253 54.9347 177.253 55.9613ZM179.073 50.1933L180.739 47.7433H182.881L180.557 50.1933H179.073ZM186.394 60.9033V51.0333H188.018L193.38 57.8513H193.002V51.0333H195.032V60.9033H193.408L188.06 54.0853H188.424V60.9033H186.394Z" fill="#43B12E"/>
<path d="M14.9349 81.9033V72.7383H18.2629C19.3116 72.7383 20.1956 72.9203 20.9149 73.2843C21.6429 73.6397 22.1932 74.1597 22.5659 74.8443C22.9386 75.5203 23.1249 76.3437 23.1249 77.3143C23.1249 78.2763 22.9386 79.0997 22.5659 79.7843C22.1932 80.469 21.6429 80.9933 20.9149 81.3573C20.1956 81.7213 19.3116 81.9033 18.2629 81.9033H14.9349ZM16.6119 80.5123H18.1589C19.2682 80.5123 20.0916 80.248 20.6289 79.7193C21.1662 79.1907 21.4349 78.389 21.4349 77.3143C21.4349 76.231 21.1662 75.4293 20.6289 74.9093C20.0916 74.3807 19.2682 74.1163 18.1589 74.1163H16.6119V80.5123ZM27.8792 82.0333C26.7786 82.0333 25.9162 81.73 25.2922 81.1233C24.6682 80.5167 24.3562 79.6847 24.3562 78.6273C24.3562 77.9427 24.4906 77.3447 24.7592 76.8333C25.0279 76.322 25.4006 75.9233 25.8772 75.6373C26.3626 75.3513 26.9259 75.2083 27.5672 75.2083C28.1999 75.2083 28.7286 75.3427 29.1532 75.6113C29.5779 75.88 29.8986 76.257 30.1152 76.7423C30.3406 77.2277 30.4532 77.7953 30.4532 78.4453V78.8743H25.6692V78.0163H29.2962L29.0752 78.1983C29.0752 77.5917 28.9452 77.128 28.6852 76.8073C28.4339 76.4867 28.0656 76.3263 27.5802 76.3263C27.0429 76.3263 26.6269 76.517 26.3322 76.8983C26.0462 77.2797 25.9032 77.8127 25.9032 78.4973V78.6663C25.9032 79.377 26.0766 79.91 26.4232 80.2653C26.7786 80.612 27.2769 80.7853 27.9182 80.7853C28.2909 80.7853 28.6376 80.7377 28.9582 80.6423C29.2876 80.5383 29.5996 80.3737 29.8942 80.1483L30.3752 81.2403C30.0632 81.4917 29.6906 81.6867 29.2572 81.8253C28.8239 81.964 28.3646 82.0333 27.8792 82.0333ZM27.0212 74.7013L28.3602 72.0623H29.9592L28.1132 74.7013H27.0212ZM31.1793 84.7893C31.0146 84.7893 30.837 84.7763 30.6463 84.7503C30.447 84.7243 30.2736 84.681 30.1263 84.6203V83.3333C30.239 83.368 30.3603 83.3983 30.4903 83.4243C30.6203 83.4503 30.746 83.4633 30.8673 83.4633C31.1793 83.4633 31.422 83.368 31.5953 83.1773C31.7773 82.9867 31.8683 82.666 31.8683 82.2153V75.3383H33.4933V82.3063C33.4933 83.121 33.307 83.7363 32.9343 84.1523C32.5616 84.577 31.9766 84.7893 31.1793 84.7893ZM31.7643 74.1033V72.5173H33.5713V74.1033H31.7643ZM37.754 82.0333C37.182 82.0333 36.6793 81.899 36.246 81.6303C35.8126 81.353 35.4746 80.9587 35.232 80.4473C34.9893 79.936 34.868 79.325 34.868 78.6143C34.868 77.9037 34.9893 77.297 35.232 76.7943C35.4746 76.283 35.8126 75.893 36.246 75.6243C36.6793 75.347 37.182 75.2083 37.754 75.2083C38.3086 75.2083 38.794 75.347 39.21 75.6243C39.6346 75.893 39.9163 76.257 40.055 76.7163H39.912L40.055 75.3383H41.615C41.589 75.607 41.563 75.88 41.537 76.1573C41.5196 76.4347 41.511 76.7077 41.511 76.9763V81.9033H39.899L39.886 80.5513H40.042C39.9033 81.002 39.6216 81.3617 39.197 81.6303C38.7723 81.899 38.2913 82.0333 37.754 82.0333ZM38.209 80.7853C38.7203 80.7853 39.132 80.6077 39.444 80.2523C39.756 79.8883 39.912 79.3423 39.912 78.6143C39.912 77.8863 39.756 77.3447 39.444 76.9893C39.132 76.634 38.7203 76.4563 38.209 76.4563C37.6976 76.4563 37.286 76.634 36.974 76.9893C36.662 77.3447 36.506 77.8863 36.506 78.6143C36.506 79.3423 36.6576 79.8883 36.961 80.2523C37.273 80.6077 37.689 80.7853 38.209 80.7853ZM43.2805 81.9033V76.9763C43.2805 76.7077 43.2718 76.4347 43.2545 76.1573C43.2372 75.88 43.2112 75.607 43.1765 75.3383H44.7495L44.8795 76.6383H44.7235C44.9315 76.179 45.2392 75.828 45.6465 75.5853C46.0538 75.334 46.5262 75.2083 47.0635 75.2083C47.8348 75.2083 48.4155 75.425 48.8055 75.8583C49.1955 76.2917 49.3905 76.9677 49.3905 77.8863V81.9033H47.7655V77.9643C47.7655 77.4357 47.6615 77.0587 47.4535 76.8333C47.2542 76.5993 46.9508 76.4823 46.5435 76.4823C46.0408 76.4823 45.6422 76.6383 45.3475 76.9503C45.0528 77.2623 44.9055 77.6783 44.9055 78.1983V81.9033H43.2805ZM54.0775 82.0333C53.4015 82.0333 52.8165 81.8947 52.3225 81.6173C51.8285 81.34 51.4428 80.9457 51.1655 80.4343C50.8968 79.923 50.7625 79.3163 50.7625 78.6143C50.7625 77.9123 50.8968 77.31 51.1655 76.8073C51.4428 76.296 51.8285 75.9017 52.3225 75.6243C52.8165 75.347 53.4015 75.2083 54.0775 75.2083C54.7535 75.2083 55.3385 75.347 55.8325 75.6243C56.3352 75.9017 56.7208 76.296 56.9895 76.8073C57.2668 77.31 57.4055 77.9123 57.4055 78.6143C57.4055 79.3163 57.2668 79.923 56.9895 80.4343C56.7208 80.9457 56.3352 81.34 55.8325 81.6173C55.3385 81.8947 54.7535 82.0333 54.0775 82.0333ZM54.0775 80.7853C54.5888 80.7853 54.9962 80.6077 55.2995 80.2523C55.6028 79.8883 55.7545 79.3423 55.7545 78.6143C55.7545 77.8863 55.6028 77.3447 55.2995 76.9893C54.9962 76.634 54.5888 76.4563 54.0775 76.4563C53.5662 76.4563 53.1588 76.634 52.8555 76.9893C52.5522 77.3447 52.4005 77.8863 52.4005 78.6143C52.4005 79.3423 52.5522 79.8883 52.8555 80.2523C53.1588 80.6077 53.5662 80.7853 54.0775 80.7853ZM61.1469 82.0333C60.5835 82.0333 60.0635 81.9683 59.5869 81.8383C59.1189 81.6997 58.7245 81.509 58.4039 81.2663L58.8589 80.1743C59.1882 80.3997 59.5522 80.573 59.9509 80.6943C60.3495 80.8157 60.7525 80.8763 61.1599 80.8763C61.5932 80.8763 61.9139 80.8027 62.1219 80.6553C62.3385 80.508 62.4469 80.3087 62.4469 80.0573C62.4469 79.858 62.3775 79.702 62.2389 79.5893C62.1089 79.468 61.8965 79.377 61.6019 79.3163L60.3019 79.0693C59.7472 78.948 59.3225 78.74 59.0279 78.4453C58.7419 78.1507 58.5989 77.765 58.5989 77.2883C58.5989 76.881 58.7072 76.5213 58.9239 76.2093C59.1492 75.8973 59.4655 75.6547 59.8729 75.4813C60.2889 75.2993 60.7742 75.2083 61.3289 75.2083C61.8142 75.2083 62.2692 75.2733 62.6939 75.4033C63.1272 75.5333 63.4912 75.7283 63.7859 75.9883L63.3179 77.0413C63.0492 76.8247 62.7415 76.6557 62.3949 76.5343C62.0482 76.413 61.7102 76.3523 61.3809 76.3523C60.9302 76.3523 60.6009 76.4347 60.3929 76.5993C60.1849 76.7553 60.0809 76.959 60.0809 77.2103C60.0809 77.401 60.1415 77.5613 60.2629 77.6913C60.3929 77.8127 60.5922 77.9037 60.8609 77.9643L62.1609 78.2113C62.7415 78.324 63.1792 78.5233 63.4739 78.8093C63.7772 79.0867 63.9289 79.468 63.9289 79.9533C63.9289 80.3867 63.8119 80.7593 63.5779 81.0713C63.3439 81.3833 63.0189 81.6217 62.6029 81.7863C62.1869 81.951 61.7015 82.0333 61.1469 82.0333ZM71.6949 82.0333C70.9149 82.0333 70.3256 81.8297 69.9269 81.4223C69.5283 81.015 69.3289 80.404 69.3289 79.5893V76.5603H68.0679V75.3383H69.3289V73.6613L70.9539 73.2453V75.3383H72.7089V76.5603H70.9539V79.4853C70.9539 79.936 71.0406 80.2523 71.2139 80.4343C71.3873 80.6163 71.6256 80.7073 71.9289 80.7073C72.0936 80.7073 72.2323 80.6943 72.3449 80.6683C72.4663 80.6423 72.5833 80.6077 72.6959 80.5643V81.8513C72.5486 81.912 72.3839 81.9553 72.2019 81.9813C72.0286 82.016 71.8596 82.0333 71.6949 82.0333ZM76.1787 82.0333C75.3727 82.0333 74.7704 81.8123 74.3717 81.3703C73.973 80.9283 73.7737 80.2523 73.7737 79.3423V75.3383H75.3987V79.3293C75.3987 79.8147 75.4984 80.1743 75.6977 80.4083C75.897 80.6337 76.2004 80.7463 76.6077 80.7463C77.067 80.7463 77.4397 80.5903 77.7257 80.2783C78.0204 79.9663 78.1677 79.5547 78.1677 79.0433V75.3383H79.7927V81.9033H78.2067V80.5643H78.3887C78.198 81.0323 77.9077 81.3963 77.5177 81.6563C77.1364 81.9077 76.69 82.0333 76.1787 82.0333ZM87.4642 82.0333C86.9009 82.0333 86.3809 81.9683 85.9042 81.8383C85.4362 81.6997 85.0419 81.509 84.7212 81.2663L85.1762 80.1743C85.5056 80.3997 85.8696 80.573 86.2682 80.6943C86.6669 80.8157 87.0699 80.8763 87.4772 80.8763C87.9106 80.8763 88.2312 80.8027 88.4392 80.6553C88.6559 80.508 88.7642 80.3087 88.7642 80.0573C88.7642 79.858 88.6949 79.702 88.5562 79.5893C88.4262 79.468 88.2139 79.377 87.9192 79.3163L86.6192 79.0693C86.0646 78.948 85.6399 78.74 85.3452 78.4453C85.0592 78.1507 84.9162 77.765 84.9162 77.2883C84.9162 76.881 85.0246 76.5213 85.2412 76.2093C85.4666 75.8973 85.7829 75.6547 86.1902 75.4813C86.6062 75.2993 87.0916 75.2083 87.6462 75.2083C88.1316 75.2083 88.5866 75.2733 89.0112 75.4033C89.4446 75.5333 89.8086 75.7283 90.1032 75.9883L89.6352 77.0413C89.3666 76.8247 89.0589 76.6557 88.7122 76.5343C88.3656 76.413 88.0276 76.3523 87.6982 76.3523C87.2476 76.3523 86.9182 76.4347 86.7102 76.5993C86.5022 76.7553 86.3982 76.959 86.3982 77.2103C86.3982 77.401 86.4589 77.5613 86.5802 77.6913C86.7102 77.8127 86.9096 77.9037 87.1782 77.9643L88.4782 78.2113C89.0589 78.324 89.4966 78.5233 89.7912 78.8093C90.0946 79.0867 90.2462 79.468 90.2462 79.9533C90.2462 80.3867 90.1292 80.7593 89.8952 81.0713C89.6612 81.3833 89.3362 81.6217 88.9202 81.7863C88.5042 81.951 88.0189 82.0333 87.4642 82.0333ZM94.0029 82.0333C93.1969 82.0333 92.5946 81.8123 92.1959 81.3703C91.7973 80.9283 91.5979 80.2523 91.5979 79.3423V75.3383H93.2229V79.3293C93.2229 79.8147 93.3226 80.1743 93.5219 80.4083C93.7213 80.6337 94.0246 80.7463 94.4319 80.7463C94.8913 80.7463 95.2639 80.5903 95.5499 80.2783C95.8446 79.9663 95.9919 79.5547 95.9919 79.0433V75.3383H97.6169V81.9033H96.0309V80.5643H96.2129C96.0223 81.0323 95.7319 81.3963 95.3419 81.6563C94.9606 81.9077 94.5143 82.0333 94.0029 82.0333ZM102.423 84.8153C101.816 84.8153 101.266 84.7503 100.772 84.6203C100.287 84.4903 99.8534 84.291 99.4721 84.0223L99.8231 82.8523C100.074 83.017 100.334 83.1513 100.603 83.2553C100.872 83.3593 101.149 83.4373 101.435 83.4893C101.721 83.5413 102.011 83.5673 102.306 83.5673C102.913 83.5673 103.363 83.4157 103.658 83.1123C103.961 82.8177 104.113 82.393 104.113 81.8383V80.2653H104.243C104.104 80.716 103.823 81.0757 103.398 81.3443C102.982 81.613 102.501 81.7473 101.955 81.7473C101.366 81.7473 100.85 81.6173 100.408 81.3573C99.9747 81.0887 99.6367 80.7073 99.3941 80.2133C99.1514 79.7193 99.0301 79.1387 99.0301 78.4713C99.0301 77.804 99.1514 77.2277 99.3941 76.7423C99.6367 76.2483 99.9747 75.8713 100.408 75.6113C100.85 75.3427 101.366 75.2083 101.955 75.2083C102.51 75.2083 102.991 75.3427 103.398 75.6113C103.814 75.8713 104.091 76.2267 104.23 76.6773L104.113 76.5993L104.243 75.3383H105.816C105.781 75.607 105.755 75.88 105.738 76.1573C105.721 76.4347 105.712 76.7077 105.712 76.9763V81.6433C105.712 82.6747 105.43 83.459 104.867 83.9963C104.312 84.5423 103.498 84.8153 102.423 84.8153ZM102.397 80.4993C102.917 80.4993 103.329 80.326 103.632 79.9793C103.944 79.624 104.1 79.1213 104.1 78.4713C104.1 77.8213 103.944 77.323 103.632 76.9763C103.329 76.6297 102.917 76.4563 102.397 76.4563C101.868 76.4563 101.448 76.6297 101.136 76.9763C100.824 77.323 100.668 77.8213 100.668 78.4713C100.668 79.1213 100.824 79.624 101.136 79.9793C101.448 80.326 101.868 80.4993 102.397 80.4993ZM110.64 82.0333C109.539 82.0333 108.677 81.73 108.053 81.1233C107.429 80.5167 107.117 79.6847 107.117 78.6273C107.117 77.9427 107.251 77.3447 107.52 76.8333C107.789 76.322 108.161 75.9233 108.638 75.6373C109.123 75.3513 109.687 75.2083 110.328 75.2083C110.961 75.2083 111.489 75.3427 111.914 75.6113C112.339 75.88 112.659 76.257 112.876 76.7423C113.101 77.2277 113.214 77.7953 113.214 78.4453V78.8743H108.43V78.0163H112.057L111.836 78.1983C111.836 77.5917 111.706 77.128 111.446 76.8073C111.195 76.4867 110.826 76.3263 110.341 76.3263C109.804 76.3263 109.388 76.517 109.093 76.8983C108.807 77.2797 108.664 77.8127 108.664 78.4973V78.6663C108.664 79.377 108.837 79.91 109.184 80.2653C109.539 80.612 110.038 80.7853 110.679 80.7853C111.052 80.7853 111.398 80.7377 111.719 80.6423C112.048 80.5383 112.36 80.3737 112.655 80.1483L113.136 81.2403C112.824 81.4917 112.451 81.6867 112.018 81.8253C111.585 81.964 111.125 82.0333 110.64 82.0333ZM114.577 81.9033V77.0153C114.577 76.738 114.568 76.4563 114.551 76.1703C114.542 75.8843 114.521 75.607 114.486 75.3383H116.059L116.241 77.1323H115.981C116.068 76.699 116.211 76.3393 116.41 76.0533C116.618 75.7673 116.869 75.555 117.164 75.4163C117.459 75.2777 117.779 75.2083 118.126 75.2083C118.282 75.2083 118.408 75.217 118.503 75.2343C118.598 75.243 118.694 75.2647 118.789 75.2993L118.776 76.7293C118.611 76.66 118.468 76.6167 118.347 76.5993C118.234 76.582 118.091 76.5733 117.918 76.5733C117.545 76.5733 117.229 76.6513 116.969 76.8073C116.718 76.9633 116.527 77.18 116.397 77.4573C116.276 77.7347 116.215 78.051 116.215 78.4063V81.9033H114.577ZM122.764 82.0333C121.663 82.0333 120.801 81.73 120.177 81.1233C119.553 80.5167 119.241 79.6847 119.241 78.6273C119.241 77.9427 119.375 77.3447 119.644 76.8333C119.913 76.322 120.285 75.9233 120.762 75.6373C121.247 75.3513 121.811 75.2083 122.452 75.2083C123.085 75.2083 123.613 75.3427 124.038 75.6113C124.463 75.88 124.783 76.257 125 76.7423C125.225 77.2277 125.338 77.7953 125.338 78.4453V78.8743H120.554V78.0163H124.181L123.96 78.1983C123.96 77.5917 123.83 77.128 123.57 76.8073C123.319 76.4867 122.95 76.3263 122.465 76.3263C121.928 76.3263 121.512 76.517 121.217 76.8983C120.931 77.2797 120.788 77.8127 120.788 78.4973V78.6663C120.788 79.377 120.961 79.91 121.308 80.2653C121.663 80.612 122.162 80.7853 122.803 80.7853C123.176 80.7853 123.522 80.7377 123.843 80.6423C124.172 80.5383 124.484 80.3737 124.779 80.1483L125.26 81.2403C124.948 81.4917 124.575 81.6867 124.142 81.8253C123.709 81.964 123.249 82.0333 122.764 82.0333ZM126.714 81.9033V76.9763C126.714 76.7077 126.705 76.4347 126.688 76.1573C126.671 75.88 126.645 75.607 126.61 75.3383H128.183L128.313 76.6383H128.157C128.365 76.179 128.673 75.828 129.08 75.5853C129.487 75.334 129.96 75.2083 130.497 75.2083C131.268 75.2083 131.849 75.425 132.239 75.8583C132.629 76.2917 132.824 76.9677 132.824 77.8863V81.9033H131.199V77.9643C131.199 77.4357 131.095 77.0587 130.887 76.8333C130.688 76.5993 130.384 76.4823 129.977 76.4823C129.474 76.4823 129.076 76.6383 128.781 76.9503C128.486 77.2623 128.339 77.6783 128.339 78.1983V81.9033H126.714ZM137.563 82.0333C136.887 82.0333 136.293 81.8947 135.782 81.6173C135.279 81.34 134.889 80.9457 134.612 80.4343C134.335 79.9143 134.196 79.299 134.196 78.5883C134.196 77.8777 134.335 77.271 134.612 76.7683C134.898 76.2657 135.292 75.88 135.795 75.6113C136.298 75.3427 136.887 75.2083 137.563 75.2083C137.996 75.2083 138.417 75.2777 138.824 75.4163C139.24 75.5463 139.578 75.737 139.838 75.9883L139.344 77.1193C139.11 76.9027 138.846 76.7423 138.551 76.6383C138.265 76.5257 137.983 76.4693 137.706 76.4693C137.125 76.4693 136.67 76.6513 136.341 77.0153C136.02 77.3793 135.86 77.908 135.86 78.6013C135.86 79.2947 136.02 79.8277 136.341 80.2003C136.67 80.573 137.125 80.7593 137.706 80.7593C137.975 80.7593 138.252 80.7073 138.538 80.6033C138.833 80.4993 139.101 80.339 139.344 80.1223L139.838 81.2403C139.569 81.4917 139.227 81.6867 138.811 81.8253C138.404 81.964 137.988 82.0333 137.563 82.0333ZM141.098 81.9033V75.3383H142.723V81.9033H141.098ZM141.007 74.1033V72.5173H142.814V74.1033H141.007ZM147.023 82.0333C146.451 82.0333 145.948 81.899 145.515 81.6303C145.081 81.353 144.743 80.9587 144.501 80.4473C144.258 79.936 144.137 79.325 144.137 78.6143C144.137 77.9037 144.258 77.297 144.501 76.7943C144.743 76.283 145.081 75.893 145.515 75.6243C145.948 75.347 146.451 75.2083 147.023 75.2083C147.577 75.2083 148.063 75.347 148.479 75.6243C148.903 75.893 149.185 76.257 149.324 76.7163H149.181L149.324 75.3383H150.884C150.858 75.607 150.832 75.88 150.806 76.1573C150.788 76.4347 150.78 76.7077 150.78 76.9763V81.9033H149.168L149.155 80.5513H149.311C149.172 81.002 148.89 81.3617 148.466 81.6303C148.041 81.899 147.56 82.0333 147.023 82.0333ZM147.478 80.7853C147.989 80.7853 148.401 80.6077 148.713 80.2523C149.025 79.8883 149.181 79.3423 149.181 78.6143C149.181 77.8863 149.025 77.3447 148.713 76.9893C148.401 76.634 147.989 76.4563 147.478 76.4563C146.966 76.4563 146.555 76.634 146.243 76.9893C145.931 77.3447 145.775 77.8863 145.775 78.6143C145.775 79.3423 145.926 79.8883 146.23 80.2523C146.542 80.6077 146.958 80.7853 147.478 80.7853ZM154.889 82.0333C154.326 82.0333 153.806 81.9683 153.329 81.8383C152.861 81.6997 152.467 81.509 152.146 81.2663L152.601 80.1743C152.93 80.3997 153.294 80.573 153.693 80.6943C154.092 80.8157 154.495 80.8763 154.902 80.8763C155.335 80.8763 155.656 80.8027 155.864 80.6553C156.081 80.508 156.189 80.3087 156.189 80.0573C156.189 79.858 156.12 79.702 155.981 79.5893C155.851 79.468 155.639 79.377 155.344 79.3163L154.044 79.0693C153.489 78.948 153.065 78.74 152.77 78.4453C152.484 78.1507 152.341 77.765 152.341 77.2883C152.341 76.881 152.449 76.5213 152.666 76.2093C152.891 75.8973 153.208 75.6547 153.615 75.4813C154.031 75.2993 154.516 75.2083 155.071 75.2083C155.556 75.2083 156.011 75.2733 156.436 75.4033C156.869 75.5333 157.233 75.7283 157.528 75.9883L157.06 77.0413C156.791 76.8247 156.484 76.6557 156.137 76.5343C155.79 76.413 155.452 76.3523 155.123 76.3523C154.672 76.3523 154.343 76.4347 154.135 76.5993C153.927 76.7553 153.823 76.959 153.823 77.2103C153.823 77.401 153.884 77.5613 154.005 77.6913C154.135 77.8127 154.334 77.9037 154.603 77.9643L155.903 78.2113C156.484 78.324 156.921 78.5233 157.216 78.8093C157.519 79.0867 157.671 79.468 157.671 79.9533C157.671 80.3867 157.554 80.7593 157.32 81.0713C157.086 81.3833 156.761 81.6217 156.345 81.7863C155.929 81.951 155.444 82.0333 154.889 82.0333ZM161.745 81.9033L165.892 72.7383H167.296L171.495 81.9033H169.792L168.674 79.3293L169.35 79.7843H163.851L164.553 79.3293L163.435 81.9033H161.745ZM166.581 74.5323L164.748 78.8743L164.41 78.4713H168.778L168.505 78.8743L166.633 74.5323H166.581ZM178.871 84.3993C178.593 84.2433 178.312 84.0353 178.026 83.7753C177.748 83.524 177.488 83.238 177.246 82.9173C177.003 82.5967 176.795 82.2717 176.622 81.9423L177.961 81.3703C178.177 81.821 178.472 82.2283 178.845 82.5923C179.217 82.9563 179.603 83.264 180.002 83.5153L178.871 84.3993ZM172.02 77.3143C172.02 76.3523 172.193 75.5203 172.54 74.8183C172.895 74.1163 173.402 73.5747 174.061 73.1933C174.719 72.8033 175.504 72.6083 176.414 72.6083C177.315 72.6083 178.095 72.8033 178.754 73.1933C179.412 73.5747 179.919 74.1163 180.275 74.8183C180.639 75.5203 180.821 76.348 180.821 77.3013C180.821 78.2633 180.639 79.0997 180.275 79.8103C179.919 80.5123 179.412 81.0583 178.754 81.4483C178.095 81.8383 177.315 82.0333 176.414 82.0333C175.504 82.0333 174.719 81.8383 174.061 81.4483C173.411 81.0583 172.908 80.5123 172.553 79.8103C172.197 79.0997 172.02 78.2677 172.02 77.3143ZM173.775 77.3143C173.775 78.3457 173.996 79.1517 174.438 79.7323C174.88 80.313 175.538 80.6033 176.414 80.6033C177.263 80.6033 177.917 80.313 178.377 79.7323C178.836 79.1517 179.066 78.3457 179.066 77.3143C179.066 76.2743 178.836 75.4683 178.377 74.8963C177.926 74.3243 177.272 74.0383 176.414 74.0383C175.538 74.0383 174.88 74.3243 174.438 74.8963C173.996 75.4683 173.775 76.2743 173.775 77.3143ZM186.373 82.0333C185.064 82.0333 184.089 81.7083 183.448 81.0583C182.815 80.3997 182.499 79.429 182.499 78.1463V72.7383H184.176V78.1333C184.176 78.948 184.349 79.5633 184.696 79.9793C185.051 80.3953 185.61 80.6033 186.373 80.6033C187.101 80.6033 187.647 80.3953 188.011 79.9793C188.384 79.5633 188.57 78.948 188.57 78.1333V72.7383H190.221V78.1463C190.221 79.429 189.896 80.3997 189.246 81.0583C188.605 81.7083 187.647 82.0333 186.373 82.0333ZM192.174 81.9033V72.7383H193.851V81.9033H192.174ZM192.421 71.9583L193.968 69.6963H195.658L193.591 71.9583H192.421ZM195.556 81.9033V80.0963H197.376V81.9033H195.556Z" fill="#54585A"/>
<path d="M13.9209 83.2943H198.078V83.8663H13.9209V83.2943Z" fill="#54585A"/>
<a href="https://segurosmundial.my.site.com/fspq/s/">
<rect fill="black" fill-opacity="0" x="0.420898" y="-0.1575" width="184.158" height="16.315"/>
</a>
</svg>
