<svg width="163" height="45" viewBox="0 0 163 45" fill="none" xmlns="http://www.w3.org/2000/svg">
<g style="mix-blend-mode:multiply" opacity="0.6" clip-path="url(#clip0_11_2108)">
<path d="M22.6236 45C35.1183 45 45.2472 34.9264 45.2472 22.5C45.2472 10.0736 35.1183 0 22.6236 0C10.1289 0 0 10.0736 0 22.5C0 34.9264 10.1289 45 22.6236 45Z" fill="#4C89DB"/>
<path d="M7.33888 17.7319L10.4076 12.6533C13.5528 10.3811 16.7767 8.78233 20.0835 7.85913C23.4034 6.9468 26.2603 6.4928 28.6563 6.4928C30.5653 6.4928 32.4066 6.8838 34.1779 7.66363C35.9755 8.4565 37.31 9.4579 38.1837 10.6635C39.0573 11.8821 39.4942 12.9965 39.4942 14.0022C39.4942 15.1383 39.0137 16.5003 38.0526 18.086C37.0676 19.6956 35.0778 21.2705 32.0833 22.8084C29.0517 24.3833 25.2818 25.4955 20.7781 26.1472C24.5588 28.2781 27.4834 30.5742 29.5562 33.0353C29.3072 33.8629 28.4401 36.1308 26.9549 39.8344C26.0201 39.0177 25.0197 38.1748 23.9604 37.3038C22.8989 36.4349 21.809 35.5573 20.6841 34.6754C19.5615 33.7934 17.6394 32.3055 14.9201 30.2093C11.9125 34.2583 9.5427 36.2806 7.80847 36.2806C6.83434 36.2806 5.76846 35.6833 4.60867 34.4864C4.28323 34.1432 3.87916 33.8065 3.39209 33.4741C3.65419 32.9528 4.09102 32.1729 4.70259 31.1303C5.18966 30.2896 5.57626 29.5858 5.86238 29.0167L10.9711 31.5191C11.9824 30.4069 13.2864 28.8212 14.883 26.7619C16.3311 24.8916 17.8971 22.7259 19.5811 20.2626L24.7467 12.6272L23.3423 12.5924C22.1563 12.5924 20.9288 12.7054 19.6554 12.9291C18.382 13.155 17.0541 13.4787 15.6693 13.9066C12.8626 14.782 10.0844 16.055 7.34106 17.7232L7.33888 17.7319ZM29.0495 13.3636C26.9418 15.399 23.7725 19.0266 19.5418 24.2465C23.5476 23.8316 27.8089 21.2466 32.3257 16.4872C31.7011 15.1383 30.609 14.0956 29.0495 13.3614V13.3636Z" fill="white"/>
<path d="M60.1149 23.4754H52.1143V27.8416C52.1143 28.7539 52.1798 29.3426 52.3131 29.6054C52.4463 29.8683 52.6997 30.0008 53.0775 30.0008C53.5471 30.0008 53.8594 29.8248 54.0189 29.4751C54.1762 29.1254 54.257 28.4476 54.257 27.4441V24.7809H60.1171V26.2711C60.1171 27.5179 60.0385 28.478 59.879 29.1471C59.7217 29.8161 59.3504 30.5308 58.7695 31.2933C58.1885 32.0535 57.4502 32.6248 56.5591 33.005C55.6658 33.3851 54.5475 33.5763 53.1998 33.5763C51.8522 33.5763 50.7426 33.3895 49.7423 33.0137C48.7419 32.6379 47.9644 32.1231 47.4096 31.4692C46.8526 30.8154 46.4682 30.0942 46.2542 29.3078C46.0401 28.5215 45.9331 27.3789 45.9331 25.8779V19.989C45.9331 18.2251 46.1734 16.8327 46.6517 15.8117C47.13 14.793 47.9163 14.011 49.0084 13.4679C50.1005 12.9248 51.3542 12.6533 52.7717 12.6533C54.506 12.6533 55.9366 12.9813 57.0636 13.6352C58.1907 14.289 58.9813 15.1557 59.4356 16.2375C59.8899 17.3171 60.1171 18.8377 60.1171 20.7949V23.4732L60.1149 23.4754ZM53.9184 20.1888V18.7139C53.9184 17.669 53.8616 16.9956 53.7502 16.6893C53.6388 16.3852 53.4095 16.2332 53.0622 16.2332C52.6341 16.2332 52.3677 16.3635 52.2672 16.622C52.1645 16.8805 52.1143 17.5778 52.1143 18.7139V20.1888H53.9206H53.9184Z" fill="#090400"/>
<path d="M76.1796 13.0225V28.5735C76.1796 30.6741 76.1315 32.0295 76.0332 32.6443C75.9371 33.2568 75.592 33.9063 75.0001 34.5928C74.4082 35.277 73.5848 35.8005 72.5298 36.1589C71.4749 36.5195 70.1447 36.6998 68.5437 36.6998C66.5758 36.6998 64.9944 36.3675 63.8019 35.7028C62.6093 35.0381 61.9912 33.7326 61.9497 31.7841H67.9474C67.9474 32.6769 68.2729 33.1222 68.9259 33.1222C69.3955 33.1222 69.7057 32.9853 69.8586 32.7116C70.0115 32.4379 70.0879 31.8644 70.0879 30.9912V29.4685C69.5572 29.9464 69.0002 30.3069 68.4127 30.5524C67.8251 30.7957 67.2114 30.9195 66.5692 30.9195C65.4575 30.9195 64.5423 30.6958 63.8237 30.2505C63.1051 29.8052 62.6115 29.2187 62.3472 28.4931C62.0829 27.7676 61.9497 26.7358 61.9497 25.3977V18.0642C61.9497 16.1462 62.297 14.7668 62.9894 13.9261C63.6818 13.0833 64.7389 12.6641 66.1564 12.6641C66.9318 12.6641 67.6373 12.8226 68.2751 13.1376C68.9128 13.4526 69.4807 13.9261 69.9809 14.5561L70.4243 13.0312H76.1774L76.1796 13.0225ZM69.9831 18.3792C69.9831 17.456 69.9306 16.8673 69.8236 16.6132C69.7166 16.359 69.4785 16.233 69.1116 16.233C68.7447 16.233 68.5022 16.3786 68.3537 16.6675C68.2052 16.9564 68.1309 17.5277 68.1309 18.3792V25.1653C68.1309 26.0689 68.1877 26.6532 68.2991 26.9226C68.4105 27.192 68.6464 27.3266 69.0024 27.3266C69.4108 27.3266 69.6751 27.1637 69.7974 26.8401C69.9197 26.5164 69.9809 25.78 69.9809 24.6331V18.3792H69.9831Z" fill="#090400"/>
<path d="M86.2464 25.3934H92.0453V26.7467C92.0453 28.3085 91.864 29.5141 91.5015 30.3613C91.1389 31.2085 90.4138 31.9557 89.3217 32.6052C88.2296 33.2547 86.8121 33.5784 85.0691 33.5784C82.9789 33.5784 81.4019 33.2113 80.3426 32.4749C79.2811 31.7385 78.6433 30.837 78.4292 29.7661C78.2152 28.6952 78.1082 26.4926 78.1082 23.156V13.0225H84.1212V14.8211C84.499 14.1 84.9861 13.5591 85.5824 13.1985C86.1787 12.8379 86.8907 12.6576 87.7163 12.6576C88.7975 12.6576 89.7891 12.9595 90.6911 13.5634C91.5932 14.1673 92.0453 15.488 92.0453 17.5277V19.1873C92.0453 20.6992 91.8051 21.7288 91.3267 22.2762C90.8484 22.8236 89.6602 23.4623 87.7622 24.1943C85.7331 24.985 84.6454 25.5172 84.5034 25.7909C84.3614 26.0646 84.2894 26.6229 84.2894 27.4657C84.2894 28.5214 84.368 29.2078 84.5274 29.5272C84.6847 29.8465 84.949 30.0072 85.3159 30.0072C85.7353 30.0072 85.9952 29.8725 86.0957 29.6032C86.1983 29.3338 86.2485 28.6365 86.2485 27.5113V25.3956L86.2464 25.3934ZM84.2872 22.6238C85.2766 21.9026 85.851 21.3009 86.0083 20.8143C86.1655 20.3278 86.2464 19.6283 86.2464 18.7138C86.2464 17.6689 86.1765 16.9934 86.0389 16.6893C85.9013 16.3851 85.6282 16.2331 85.2198 16.2331C84.8114 16.2331 84.5798 16.3526 84.4619 16.5915C84.344 16.8305 84.285 17.4561 84.285 18.4705V22.6238H84.2872Z" fill="#090400"/>
<path d="M100.535 8.58032V33.2135H94.1704V8.58032H100.535Z" fill="#090400"/>
<path d="M108.276 20.8448H102.477V19.4915C102.477 17.9296 102.658 16.724 103.021 15.8769C103.383 15.0297 104.108 14.2824 105.2 13.633C106.293 12.9835 107.71 12.6598 109.453 12.6598C111.543 12.6598 113.12 13.0269 114.18 13.7633C115.241 14.4997 115.879 15.4012 116.093 16.4721C116.307 17.543 116.414 19.7456 116.414 23.0822V33.2156H110.401V31.417C110.023 32.1382 109.536 32.6791 108.94 33.0397C108.343 33.4003 107.631 33.5806 106.806 33.5806C105.725 33.5806 104.733 33.2786 103.831 32.6748C102.929 32.0709 102.477 30.7502 102.477 28.7104V27.0508C102.477 25.539 102.717 24.5093 103.195 23.9619C103.674 23.4145 104.862 22.7759 106.76 22.0438C108.789 21.2531 109.877 20.721 110.019 20.4472C110.161 20.1735 110.233 19.6153 110.233 18.7725C110.233 17.7168 110.154 17.0303 109.995 16.711C109.837 16.3917 109.573 16.2309 109.206 16.2309C108.787 16.2309 108.527 16.3656 108.426 16.635C108.324 16.9043 108.274 17.6016 108.274 18.7268V20.8426L108.276 20.8448ZM110.235 23.6144C109.246 24.3355 108.671 24.9373 108.514 25.4238C108.357 25.9104 108.276 26.6099 108.276 27.5244C108.276 28.5692 108.346 29.2448 108.483 29.5489C108.621 29.853 108.894 30.0051 109.302 30.0051C109.711 30.0051 109.942 29.8856 110.06 29.6467C110.178 29.4077 110.237 28.7821 110.237 27.7677V23.6144H110.235Z" fill="#090400"/>
<path d="M124.722 13.0225L124.478 15.677C125.376 13.7763 126.675 12.7684 128.379 12.6576V19.763C127.247 19.763 126.415 19.915 125.884 20.2191C125.354 20.5233 125.028 20.9468 124.906 21.4899C124.784 22.033 124.722 23.282 124.722 25.2413V33.2134H118.541V13.0225H124.722Z" fill="#090400"/>
<path d="M136.12 8.58032V11.7909H129.755V8.58032H136.12ZM136.12 13.0225V33.2135H129.755V13.0225H136.12Z" fill="#090400"/>
<path d="M147.962 13.0226V17.4952L143.404 29.1645H147.962V33.2113H137.421V28.982L142.076 17.0695H137.895V13.0226H147.962Z" fill="#090400"/>
<path d="M154.862 20.8448H149.063V19.4915C149.063 17.9296 149.244 16.724 149.607 15.8769C149.969 15.0297 150.695 14.2824 151.787 13.633C152.879 12.9835 154.296 12.6598 156.039 12.6598C158.129 12.6598 159.706 13.0269 160.766 13.7633C161.827 14.4997 162.465 15.4012 162.679 16.4721C162.893 17.543 163 19.7456 163 23.0822V33.2156H156.987V31.417C156.609 32.1382 156.122 32.6791 155.526 33.0397C154.93 33.4003 154.218 33.5806 153.392 33.5806C152.311 33.5806 151.319 33.2786 150.417 32.6748C149.515 32.0709 149.063 30.7502 149.063 28.7104V27.0508C149.063 25.539 149.303 24.5093 149.782 23.9619C150.26 23.4145 151.448 22.7759 153.346 22.0438C155.375 21.2531 156.463 20.721 156.605 20.4472C156.747 20.1735 156.819 19.6153 156.819 18.7725C156.819 17.7168 156.74 17.0303 156.581 16.711C156.424 16.3917 156.159 16.2309 155.792 16.2309C155.373 16.2309 155.113 16.3656 155.013 16.635C154.91 16.9043 154.86 17.6016 154.86 18.7268V20.8426L154.862 20.8448ZM156.821 23.6144C155.832 24.3355 155.257 24.9373 155.1 25.4238C154.943 25.9104 154.862 26.6099 154.862 27.5244C154.862 28.5692 154.932 29.2448 155.069 29.5489C155.207 29.853 155.48 30.0051 155.889 30.0051C156.297 30.0051 156.528 29.8856 156.646 29.6467C156.764 29.4077 156.823 28.7821 156.823 27.7677V23.6144H156.821Z" fill="#090400"/>
</g>
<defs>
<clipPath id="clip0_11_2108">
<rect width="163" height="45" fill="white"/>
</clipPath>
</defs>
</svg>
