<svg width="583" height="584" viewBox="0 0 583 584" fill="none" xmlns="http://www.w3.org/2000/svg">
<g clip-path="url(#clip0_1445_15029)">
<path d="M6.80068 511.924C6.80068 511.924 3.1664 527.835 19.8959 532.083C42.7804 537.895 172.17 553.489 139.537 565.092C121.115 571.643 153.88 580.213 243.608 583.49C333.335 586.764 487.298 573.933 435.523 554.945C383.747 535.958 595.286 551.419 582.435 511.924H6.80068Z" fill="#D8F1FF"/>
<path d="M9.15911 511.652C9.15911 511.652 -30.4101 346.008 54.9415 286.068C93.1967 259.202 134.798 331.421 184.19 301.449C228.163 274.764 200.014 212.419 242.827 182.359C295.486 145.388 383.443 328.939 445.237 300.465C542.441 255.675 597.144 327.031 579.822 511.924L9.15911 511.652Z" fill="#C3E2F4"/>
<path d="M553.927 62.0105L510.96 384.232C510.222 389.771 505.134 393.663 499.598 392.924L251.773 359.796C246.215 359.079 242.332 353.863 243.088 348.424L286.055 26.203C286.793 20.6634 291.88 16.772 297.416 17.5106L545.242 50.6383C550.778 51.3769 554.668 56.4709 553.927 62.0105Z" fill="#3BBDF8"/>
<path d="M553.927 62.0105L510.96 384.232C510.222 389.771 505.134 393.663 499.598 392.924L251.773 359.796C246.636 359.11 242.92 354.678 242.999 349.617C243.511 348.952 243.783 348.601 243.783 348.601C243.783 348.601 493.715 370.112 536.353 50.3575L537.508 49.6067C545.605 50.2873 554.771 51.5326 553.927 62.0105Z" fill="#209CD4"/>
<path d="M304.125 33.9692L263.733 336.958L494.023 367.733L534.415 64.7444L304.125 33.9692Z" fill="#E9F4FF"/>
<path d="M426.043 334.488C388.521 328.784 395.989 272.823 433.686 277.179C471.208 282.883 463.737 338.847 426.043 334.488ZM433.07 281.787C401.431 278.134 395.172 325.1 426.659 329.883C458.298 333.533 464.554 286.567 433.07 281.787Z" fill="#FFB822"/>
<path d="M495.093 37.6394L468.026 34.0226L470.123 18.292C470.629 14.4891 467.962 10.9975 464.164 10.4908L386.18 0.0617304C382.381 -0.444921 378.894 2.22263 378.385 6.02557L376.288 21.7562C341.575 18.7285 342.728 8.48863 338.789 43.9145C338.283 47.7175 340.947 51.2091 344.746 51.7188L490.615 71.2188C494.413 71.7254 497.9 69.0548 498.406 65.2519L501.049 45.4406C501.555 41.6407 498.888 38.146 495.093 37.6394ZM422.745 23.4715C416.862 22.5833 418.035 13.8024 423.943 14.4891C429.824 15.3772 428.653 24.1582 422.745 23.4715Z" fill="#026BA6"/>
<path d="M501.046 45.4405L498.403 65.2518C497.897 69.0547 494.41 71.7253 490.612 71.2187L344.743 51.7187C340.945 51.2121 338.28 47.7174 338.786 43.9144C338.786 43.9144 456.714 66.3414 464.164 10.4846C467.962 10.9913 470.629 14.4829 470.123 18.2858L468.026 34.0164L495.093 37.6332C498.888 38.146 501.556 41.6406 501.046 45.4405Z" fill="#117FBD"/>
<path d="M425.172 5.27474C382.497 -0.42966 376.288 21.7562 376.288 21.7562L378.385 6.02557C378.891 2.22263 382.381 -0.444921 386.18 0.0617304L425.172 5.27474Z" fill="#208ECC"/>
<path d="M381.616 324.914C380.863 324.853 380.132 324.679 379.428 324.383C375.907 322.905 373.608 318.754 372.55 312C370.529 313.957 368.066 315.974 365.07 317.97C364.387 318.425 363.46 318.239 363.006 317.555C362.552 316.871 362.738 315.943 363.42 315.489C367.136 313.013 369.962 310.526 372.108 308.191C371.91 305.722 371.84 302.984 371.901 299.981C372.072 291.533 374.017 286.347 377.236 285.752C378.598 285.502 380.427 286.155 381.473 288.746C382.793 292.012 382.333 296.752 380.238 301.428C379.278 303.573 377.717 306.265 375.193 309.201C375.471 311.854 375.919 314.134 376.535 316.02C377.507 318.993 378.903 320.934 380.574 321.636C382.796 322.57 385.841 321.37 388.713 318.425C389.548 317.57 390.301 316.636 390.957 315.666C388.774 312.205 388.683 308.356 389.484 305.649C390.164 303.344 391.49 301.873 393.026 301.714C393.749 301.641 395.112 301.8 396.133 303.704C396.151 303.735 396.166 303.769 396.182 303.802C397.687 307.175 396.669 311.609 394.545 315.476C394.913 315.885 395.334 316.285 395.816 316.673C397.206 317.796 398.334 318.294 399.071 318.114C400.251 317.827 401.236 315.58 402.105 313.596C403.007 311.542 403.94 309.415 405.461 308.072C406.034 307.565 407.781 306.021 409.698 306.659C411.951 307.41 412.588 310.502 413.265 313.776C413.591 315.357 413.929 316.987 414.405 318.08C415.609 316.96 417.798 313.221 419.307 310.645C421.566 306.79 423.901 302.801 425.992 301.009C427.138 300.027 428.159 299.798 429.019 300.332C430.671 301.357 430.04 303.86 428.656 309.339C427.781 312.806 426.58 317.552 427.01 319.411C427.025 319.472 427.037 319.521 427.053 319.563C427.915 319.368 429.952 317.778 431.205 316.801C433.759 314.808 436.17 312.925 438.289 313.093C439.109 313.157 439.719 313.877 439.655 314.695C439.591 315.516 438.871 316.127 438.054 316.063C437.091 315.986 434.652 317.891 433.037 319.148C430.308 321.276 427.952 323.116 425.952 322.405C425.303 322.173 424.459 321.584 424.111 320.079C423.523 317.521 424.666 312.989 425.772 308.609C426.095 307.333 426.483 305.798 426.742 304.547C425.23 306.427 423.471 309.433 421.873 312.156C418.331 318.199 416.38 321.352 414.131 321.337C413.631 321.33 412.692 321.153 412.036 320C411.207 318.535 410.771 316.426 410.351 314.384C410.018 312.778 409.402 309.793 408.753 309.488C408.756 309.491 408.366 309.482 407.43 310.309C406.4 311.219 405.601 313.038 404.83 314.799C403.626 317.54 402.382 320.375 399.776 321.013C398.053 321.434 396.148 320.775 393.944 318.999C393.569 318.696 393.222 318.385 392.895 318.068C392.252 318.95 391.557 319.774 390.838 320.512C387.814 323.62 384.558 325.149 381.616 324.914ZM393.276 304.742C392.972 305.005 392.362 305.896 392.112 307.562C391.993 308.347 391.838 310.325 392.703 312.519C393.932 309.708 394.301 306.934 393.493 305.066C393.408 304.907 393.331 304.803 393.276 304.742ZM377.809 288.682C377.797 288.682 377.788 288.682 377.778 288.682C377.211 288.786 375.062 291.02 374.879 300.039C374.846 301.693 374.855 303.265 374.904 304.748C376.099 303.06 376.937 301.516 377.525 300.204C379.607 295.555 379.507 291.813 378.717 289.86C378.379 289.027 377.98 288.697 377.809 288.682Z" fill="#878787"/>
<path d="M502.528 163.313L374.34 146.179C373.017 146.002 372.087 144.784 372.264 143.462C372.441 142.138 373.657 141.207 374.977 141.384L503.165 158.518C504.488 158.695 505.418 159.913 505.241 161.235C505.064 162.559 503.851 163.49 502.528 163.313Z" fill="#878787"/>
<path d="M359.954 144.256L308.933 137.434C307.61 137.257 306.68 136.04 306.857 134.718C307.034 133.393 308.25 132.462 309.57 132.64L360.591 139.461C361.914 139.638 362.844 140.856 362.667 142.177C362.49 143.502 361.274 144.433 359.954 144.256Z" fill="#878787"/>
<path d="M499.845 183.43L306.25 157.551C304.927 157.374 303.998 156.156 304.174 154.834C304.351 153.51 305.568 152.579 306.887 152.756L500.482 178.635C501.805 178.812 502.735 180.03 502.558 181.351C502.381 182.676 501.168 183.607 499.845 183.43Z" fill="#878787"/>
<path d="M497.815 103.141L329.427 80.6314C327.409 80.3628 325.992 78.5041 326.26 76.4836C326.528 74.4631 328.385 73.0438 330.403 73.3124L498.79 95.8218C500.808 96.0904 502.226 97.9491 501.958 99.9696C501.689 101.99 499.836 103.409 497.815 103.141Z" fill="#026BA6"/>
<path d="M469.925 119.885L351.955 104.115C349.937 103.846 348.52 101.987 348.788 99.9667C349.056 97.9462 350.913 96.527 352.931 96.7956L470.901 112.566C472.919 112.834 474.336 114.693 474.068 116.714C473.8 118.734 471.943 120.153 469.925 119.885Z" fill="#026BA6"/>
<path d="M497.163 203.543L434.552 195.174C433.229 194.997 432.299 193.78 432.476 192.458C432.652 191.133 433.869 190.202 435.189 190.38L497.8 198.748C499.123 198.925 500.053 200.143 499.876 201.465C499.699 202.789 498.486 203.72 497.163 203.543Z" fill="#878787"/>
<path d="M415.828 192.672L303.568 177.664C302.245 177.487 301.315 176.27 301.492 174.948C301.669 173.623 302.885 172.692 304.205 172.869L416.465 187.877C417.788 188.054 418.718 189.272 418.541 190.593C418.367 191.918 417.151 192.849 415.828 192.672Z" fill="#878787"/>
<path d="M494.48 223.66L433.811 215.55C432.488 215.373 431.558 214.155 431.735 212.834C431.912 211.512 433.128 210.578 434.448 210.755L495.117 218.865C496.44 219.042 497.37 220.26 497.193 221.581C497.019 222.906 495.803 223.837 494.48 223.66Z" fill="#878787"/>
<path d="M414.691 212.993L354.452 204.941C353.129 204.764 352.199 203.546 352.376 202.225C352.553 200.903 353.769 199.969 355.089 200.146L415.329 208.198C416.652 208.375 417.581 209.593 417.405 210.914C417.228 212.239 416.014 213.17 414.691 212.993Z" fill="#878787"/>
<path d="M337.975 202.737L300.889 197.781C299.566 197.604 298.636 196.386 298.813 195.064C298.989 193.743 300.206 192.809 301.526 192.986L338.612 197.943C339.935 198.12 340.865 199.337 340.688 200.659C340.512 201.984 339.295 202.914 337.975 202.737Z" fill="#878787"/>
<path d="M491.798 243.773L298.203 217.894C296.88 217.717 295.95 216.5 296.127 215.178C296.304 213.853 297.52 212.922 298.84 213.099L492.435 238.978C493.758 239.155 494.688 240.373 494.511 241.695C494.337 243.019 493.121 243.95 491.798 243.773Z" fill="#878787"/>
<path d="M489.115 263.89L407.781 253.018C406.458 252.841 405.528 251.623 405.705 250.302C405.881 248.977 407.098 248.046 408.418 248.223L489.752 259.095C491.075 259.272 492.005 260.49 491.828 261.811C491.654 263.136 490.438 264.064 489.115 263.89Z" fill="#878787"/>
<path d="M387.99 250.372L295.523 238.011C294.2 237.834 293.271 236.616 293.447 235.294C293.624 233.97 294.84 233.039 296.16 233.216L388.627 245.577C389.951 245.754 390.88 246.972 390.703 248.293C390.527 249.618 389.31 250.546 387.99 250.372Z" fill="#878787"/>
<path d="M194.165 166.353L74.6068 199.029C60.828 202.795 52.7071 217.031 56.4688 230.829L118.211 457.299C121.973 471.095 136.191 479.226 149.972 475.462L269.531 442.786C283.309 439.02 291.43 424.782 287.669 410.986L225.926 184.516C222.165 170.721 207.944 162.59 194.165 166.353Z" fill="#42ACDC"/>
<path d="M156.331 413.584C156.331 413.587 147.186 431.756 147.208 431.759L166.385 441.422C174.174 445.68 183.837 437.512 180.773 429.226C179.957 426.754 178.201 424.593 175.695 423.329C175.689 423.329 156.334 413.562 156.331 413.584Z" fill="#016692"/>
<path d="M123.299 408.407C120.83 413.416 122.854 419.487 127.844 422.001L147.192 431.75C147.217 431.759 156.34 413.581 156.328 413.572C147.518 410.406 130.322 394.984 123.299 408.407Z" fill="white"/>
<path d="M245.488 389.371C245.488 389.374 236.342 407.544 236.364 407.547L255.541 417.21C263.33 421.467 272.993 413.3 269.93 405.013C269.113 402.541 267.357 400.38 264.851 399.117C264.845 399.117 245.488 389.35 245.488 389.371Z" fill="#016692"/>
<path d="M212.452 384.195C209.983 389.204 212.007 395.274 216.997 397.789L236.346 407.538C236.37 407.547 245.494 389.368 245.482 389.359C236.675 386.194 219.479 370.775 212.452 384.195Z" fill="white"/>
<path d="M107.764 234.309C107.764 234.312 98.6188 252.481 98.6402 252.484L117.818 262.147C125.606 266.405 135.27 258.237 132.206 249.951C131.389 247.479 129.633 245.318 127.127 244.054C127.124 244.054 107.767 234.287 107.764 234.309Z" fill="#016692"/>
<path d="M74.732 229.132C72.2628 234.141 74.2869 240.211 79.2771 242.726L98.6253 252.475C98.6497 252.484 107.774 234.306 107.761 234.296C98.9546 231.131 81.7555 215.709 74.732 229.132Z" fill="white"/>
<path d="M196.921 210.096C196.921 210.099 187.776 228.269 187.797 228.272L206.974 237.935C214.763 242.192 224.426 234.025 221.363 225.738C220.546 223.266 218.79 221.105 216.284 219.842C216.278 219.842 196.924 210.075 196.921 210.096Z" fill="#016692"/>
<path d="M163.885 204.92C161.416 209.928 163.44 215.999 168.43 218.514L187.779 228.262C187.803 228.271 196.927 210.093 196.915 210.084C188.108 206.919 170.912 191.5 163.885 204.92Z" fill="white"/>
<path d="M123.954 294.066C123.954 294.069 114.809 312.238 114.831 312.241L134.008 321.904C141.797 326.162 151.46 317.995 148.397 309.708C147.58 307.236 145.824 305.075 143.318 303.811C143.312 303.811 123.958 294.045 123.954 294.066Z" fill="#016692"/>
<path d="M90.9219 288.89C88.4527 293.898 90.4769 299.969 95.4671 302.484L114.815 312.232C114.84 312.241 123.964 294.063 123.951 294.054C115.141 290.889 97.9454 275.469 90.9219 288.89Z" fill="white"/>
<path d="M213.108 269.856C213.108 269.86 203.963 288.029 203.984 288.032L223.161 297.695C230.95 301.953 240.613 293.785 237.55 285.499C236.733 283.026 234.977 280.865 232.471 279.602C232.468 279.599 213.111 269.832 213.108 269.856Z" fill="#016692"/>
<path d="M180.075 264.68C177.606 269.689 179.63 275.759 184.62 278.274L203.969 288.023C203.993 288.032 213.117 269.854 213.105 269.844C204.295 266.679 187.099 251.257 180.075 264.68Z" fill="white"/>
<path d="M140.144 353.826C140.144 353.83 130.999 371.999 131.021 372.002L150.198 381.665C157.987 385.923 167.65 377.755 164.586 369.469C163.769 366.996 162.014 364.835 159.508 363.572C159.502 363.569 140.144 353.802 140.144 353.826Z" fill="#016692"/>
<path d="M107.109 348.65C104.64 353.659 106.664 359.729 111.654 362.244L131.002 371.993C131.027 372.002 140.151 353.823 140.138 353.814C131.332 350.649 114.135 335.227 107.109 348.65Z" fill="white"/>
<path d="M229.298 329.614C229.298 329.617 220.153 347.786 220.174 347.789L239.351 357.452C247.14 361.71 256.803 353.542 253.74 345.256C252.923 342.784 251.167 340.623 248.661 339.359C248.655 339.359 229.301 329.592 229.298 329.614Z" fill="#016692"/>
<path d="M196.265 324.438C193.796 329.446 195.82 335.517 200.81 338.032L220.159 347.78C220.183 347.789 229.307 329.611 229.295 329.602C220.485 326.437 203.289 311.014 196.265 324.438Z" fill="white"/>
<path d="M138.501 197.003C136.431 197.564 135.209 199.698 135.773 201.77L200.874 442.081C201.435 444.154 203.566 445.378 205.636 444.816C207.706 444.254 208.925 442.121 208.364 440.049L143.263 199.734C142.702 197.662 140.571 196.441 138.501 197.003Z" fill="#309ACA"/>
<path d="M382.382 372.276V503.829C382.382 519.19 369.942 531.646 354.596 531.646H241.656C226.314 531.646 213.873 519.19 213.873 503.829V372.276C213.873 361.176 218.159 351.125 225.091 343.852C232.02 336.576 241.592 332.077 252.17 332.077C255.054 332.077 257.392 329.623 257.392 326.599V311.021H338.87V326.599C338.87 329.626 341.205 332.077 344.088 332.077C365.235 332.077 382.382 350.075 382.382 372.276Z" fill="#0090D7"/>
<path d="M382.382 372.276V503.829C382.382 519.19 369.942 531.646 354.596 531.646H241.656C226.314 531.646 213.873 519.19 213.873 503.829C379.825 503.829 382.382 372.276 382.382 372.276Z" fill="#0975AA"/>
<path d="M333.895 322.142H262.361C255.014 322.142 249.058 316.179 249.058 308.823V289.424C249.058 282.068 255.014 276.104 262.361 276.104H333.895C341.241 276.104 347.198 282.068 347.198 289.424V308.823C347.198 316.179 341.241 322.142 333.895 322.142Z" fill="#0975AA"/>
<path d="M360.623 369.111H235.629V497.038H360.623V369.111Z" fill="white"/>
<path d="M276.597 409.341C276.341 408.743 275.856 407.928 275.113 406.848C274.366 405.761 273.799 405.062 273.387 404.714C272.988 404.373 272.451 404.043 271.762 403.71C272.777 403.359 273.622 402.947 274.286 402.477C275.719 401.467 276.862 400.13 277.679 398.503C278.496 396.883 278.908 394.935 278.908 392.717C278.908 390.171 278.368 387.974 277.298 386.185C276.219 384.378 274.774 383.124 273.003 382.452C271.281 381.799 268.775 381.469 265.559 381.469H248.436C248.18 381.469 247.973 381.677 247.973 381.933V420.778C247.973 421.034 248.18 421.242 248.436 421.242H258.755C259.011 421.242 259.218 421.034 259.218 420.778V405.477H259.66C260.495 405.477 261.224 405.74 261.879 406.268C262.215 406.552 262.788 407.272 263.617 409.103L269.11 420.973C269.186 421.138 269.351 421.242 269.531 421.242H281.139C281.298 421.242 281.441 421.162 281.529 421.031C281.615 420.9 281.627 420.732 281.566 420.588L276.597 409.341ZM259.224 390.244H263.273C265.013 390.244 266.193 390.537 266.781 391.117C267.376 391.703 267.662 392.54 267.662 393.675C267.662 394.438 267.476 395.091 267.092 395.671C266.726 396.226 266.272 396.562 265.696 396.696C264.077 397.121 263.385 397.212 263.093 397.212H259.224V390.244Z" fill="#7CCFF4"/>
<path d="M319.954 420.552L308.758 400.747L318.982 382.162C319.061 382.019 319.058 381.842 318.976 381.701C318.894 381.561 318.741 381.473 318.577 381.473H307.374C307.194 381.473 307.032 381.576 306.956 381.735L301.643 392.823L296.18 381.729C296.101 381.57 295.939 381.469 295.762 381.469H284.444C284.279 381.469 284.127 381.558 284.044 381.698C283.962 381.842 283.959 382.016 284.041 382.159L294.339 400.53L282.999 420.546C282.916 420.689 282.919 420.866 283.002 421.01C283.084 421.153 283.236 421.242 283.404 421.242H294.881C295.052 421.242 295.211 421.147 295.293 420.994L301.448 409.296L307.602 420.994C307.682 421.147 307.84 421.242 308.014 421.242H319.558C319.723 421.242 319.875 421.153 319.957 421.01C320.037 420.872 320.037 420.695 319.954 420.552Z" fill="#7CCFF4"/>
<path d="M349.051 436.163H246.585C245.732 436.163 245.043 435.471 245.043 434.619C245.043 433.764 245.735 433.075 246.585 433.075H349.048C349.902 433.075 350.591 433.768 350.591 434.619C350.594 435.474 349.902 436.163 349.051 436.163Z" fill="#8A9EDD"/>
<path d="M349.051 449.065H291.924C291.071 449.065 290.382 448.372 290.382 447.52C290.382 446.666 291.074 445.976 291.924 445.976H349.051C349.905 445.976 350.594 446.669 350.594 447.52C350.594 448.375 349.902 449.065 349.051 449.065Z" fill="#8A9EDD"/>
<path d="M280.596 449.065H246.585C245.732 449.065 245.043 448.372 245.043 447.52C245.043 446.666 245.735 445.976 246.585 445.976H280.593C281.447 445.976 282.136 446.669 282.136 447.52C282.139 448.375 281.447 449.065 280.596 449.065Z" fill="#8A9EDD"/>
<path d="M349.051 461.966H246.585C245.732 461.966 245.043 461.273 245.043 460.422C245.043 459.57 245.735 458.877 246.585 458.877H349.048C349.902 458.877 350.591 459.57 350.591 460.422C350.591 461.273 349.902 461.966 349.051 461.966Z" fill="#8A9EDD"/>
<path d="M349.051 474.867H320.015C319.162 474.867 318.473 474.174 318.473 473.323C318.473 472.468 319.165 471.778 320.015 471.778H349.051C349.905 471.778 350.594 472.471 350.594 473.323C350.594 474.174 349.902 474.867 349.051 474.867Z" fill="#8A9EDD"/>
<path d="M308.956 474.867H246.585C245.732 474.867 245.043 474.174 245.043 473.323C245.043 472.468 245.735 471.778 246.585 471.778H308.953C309.806 471.778 310.495 472.471 310.495 473.323C310.498 474.174 309.806 474.867 308.956 474.867Z" fill="#8A9EDD"/>
<path d="M349.051 487.768H276.987C276.134 487.768 275.445 487.076 275.445 486.224C275.445 485.373 276.137 484.68 276.987 484.68H349.051C349.905 484.68 350.594 485.373 350.594 486.224C350.594 487.076 349.902 487.768 349.051 487.768Z" fill="#8A9EDD"/>
<path d="M266.281 487.768H246.585C245.732 487.768 245.043 487.076 245.043 486.224C245.043 485.373 245.735 484.68 246.585 484.68H266.281C267.135 484.68 267.824 485.373 267.824 486.224C267.824 487.076 267.135 487.768 266.281 487.768Z" fill="#8A9EDD"/>
<path d="M260.818 316.856C258.804 316.856 257.167 315.22 257.167 313.2V285.041C257.167 283.024 258.8 281.385 260.818 281.385C262.833 281.385 264.47 283.02 264.47 285.041V313.2C264.47 315.22 262.837 316.856 260.818 316.856Z" fill="#0090D7"/>
<path d="M290.665 316.856C288.65 316.856 287.013 315.22 287.013 313.2V285.041C287.013 283.024 288.647 281.385 290.665 281.385C292.68 281.385 294.317 283.02 294.317 285.041V313.2C294.317 315.22 292.683 316.856 290.665 316.856Z" fill="#0090D7"/>
<path d="M275.743 316.856C273.728 316.856 272.091 315.22 272.091 313.2V285.041C272.091 283.024 273.725 281.385 275.743 281.385C277.758 281.385 279.395 283.02 279.395 285.041V313.2C279.392 315.22 277.758 316.856 275.743 316.856Z" fill="#0090D7"/>
<path d="M305.59 316.856C303.575 316.856 301.938 315.22 301.938 313.2V285.041C301.938 283.024 303.572 281.385 305.59 281.385C307.605 281.385 309.242 283.02 309.242 285.041V313.2C309.239 315.22 307.605 316.856 305.59 316.856Z" fill="#0090D7"/>
<path d="M320.512 316.856C318.497 316.856 316.86 315.22 316.86 313.2V285.041C316.86 283.024 318.494 281.385 320.512 281.385C322.527 281.385 324.164 283.02 324.164 285.041V313.2C324.164 315.22 322.527 316.856 320.512 316.856Z" fill="#0090D7"/>
<path d="M335.434 316.856C333.419 316.856 331.782 315.22 331.782 313.2V285.041C331.782 283.024 333.416 281.385 335.434 281.385C337.449 281.385 339.086 283.02 339.086 285.041V313.2C339.086 315.22 337.452 316.856 335.434 316.856Z" fill="#0090D7"/>
<path d="M429.629 518.156V532.162C429.629 543.464 410.138 552.626 386.095 552.626C373.969 552.626 362.998 550.294 355.105 546.534C347.347 542.838 342.561 537.762 342.561 532.162V518.156H429.629Z" fill="#DCAA07"/>
<path d="M429.63 518.155C429.221 542.643 347.789 547.84 342.729 519.984C342.543 518.961 342.491 517.972 342.561 517.014C343.768 500.795 380.508 494.08 405.916 499.913C418.491 502.797 428.285 508.755 429.63 518.155Z" fill="#302F7B"/>
<path d="M406.044 499.962L367.847 538.242C366.857 538.043 366.107 537.469 365.156 537.237L402.554 499.19C403.544 499.388 405.093 499.733 406.044 499.962Z" fill="#DCAA07"/>
<path d="M218.375 540.534C218.379 540.527 221.936 509.848 221.967 509.863L254.341 513.647C267.766 514.761 273.207 533.196 262.407 541.141C259.309 543.592 255.279 544.864 251.048 544.37C251.048 544.367 218.36 540.564 218.375 540.534Z" fill="#302F7B"/>
<path d="M172.177 519.477C173.223 511.062 180.856 505.059 189.279 506.042L221.939 509.86C221.976 509.866 218.382 540.543 218.36 540.546C204.554 537.195 169.888 542.368 172.177 519.477Z" fill="#F2AC18"/>
<path d="M89.1601 473.072C87.0964 504.357 83.2127 535.571 78.9388 566.629C77.9451 573.985 69.184 575.389 68.37 567.361C67.6415 559.386 67.8671 551.902 67.233 543.888C65.7728 520.511 63.6999 497.099 61.1118 473.817C59.3346 453.615 89.8674 452.767 89.1601 473.072Z" fill="#F99370"/>
<path d="M66.6292 475.874L41.0562 568.64C40.2331 571.741 38.1815 572.858 35.0935 572.031C32.3378 571.293 30.5849 572.196 30.8258 569.44L38.9955 471.012C41.3 450.951 71.2384 456.191 66.6292 475.874Z" fill="#F99370"/>
<path d="M78.9388 566.626C90.855 567.2 94.324 571.268 95.2995 573.997C95.3056 574.012 95.3087 574.024 95.3148 574.04C95.7355 575.233 94.827 576.481 93.568 576.484L67.6414 576.57C67.2024 575.807 66.9616 574.961 66.8519 574.091C66.4099 570.56 68.1871 566.663 68.1871 566.663C68.1871 566.663 73.5645 568.051 78.9388 566.626Z" fill="#1D3F70"/>
<path d="M95.2997 574L66.8521 574.092C66.9587 574.961 67.2026 575.81 67.6416 576.57L93.5682 576.484C94.8303 576.481 95.7387 575.233 95.315 574.04L95.2997 574Z" fill="#395B96"/>
<path d="M43.5224 573.817V576.149H28.4663V573.817C28.4663 569.641 31.8378 566.257 35.9928 566.257C40.1508 566.257 43.5224 569.641 43.5224 573.817Z" fill="#1D3F70"/>
<path d="M43.5224 573.817H28.4663V576.149H43.5224V573.817Z" fill="#395B96"/>
<path d="M37.185 340.193C34.3134 345.171 35.4779 351.223 39.7852 353.714C44.0926 356.204 49.909 354.187 52.7806 349.209C55.6522 344.231 54.4877 338.178 50.1803 335.688C45.8729 333.197 40.0566 335.215 37.185 340.193Z" fill="#481D05"/>
<path d="M49.162 345.399C49.162 345.399 39.0169 341.398 38.0506 326.87C37.0385 311.622 51.9421 308.557 57.9475 312.891L49.162 345.399Z" fill="#481D05"/>
<path d="M67.2573 356.741C67.2573 356.741 92.3914 362.153 101.972 396.941L77.6889 402.474L67.2573 356.741Z" fill="white"/>
<path d="M78.0518 365.992C78.0518 365.992 85.4258 372.869 86.9897 377.169C88.5504 381.469 82.7402 381.729 82.7402 381.729L78.0518 365.992Z" fill="#D1E0F2"/>
<path d="M55.1064 311.594C69.7906 307.456 79.5576 328.82 72.5128 339.951L55.1064 311.594Z" fill="#481D05"/>
<path d="M39.0137 433.413H84.8524C85.0902 415.265 82.996 396.919 78.7404 379.296C76.198 369.011 74.7379 360.788 64.9494 355.291C65.6475 349.199 64.6964 340.418 63.8459 336.799C63.4009 334.845 62.0016 333.368 60.4348 332.877C56.42 331.482 51.6645 334.906 52.9022 339.439C53.2649 339.21 54.4325 352.129 53.6277 355.716C33.7308 362.073 43.8728 384.705 42.5132 399.889C42.4065 411.044 41.3335 422.508 39.0137 433.413Z" fill="#F99370"/>
<path d="M52.7927 338.846C52.8201 339.042 52.8567 339.243 52.9024 339.436C53.1646 339.262 53.8992 346.391 53.9053 351.565C58.7614 353.774 64.1601 352.779 65.1509 352.575C65.4313 345.497 65.7148 334.802 60.435 332.873C56.6458 331.253 52.1251 334.711 52.7927 338.846Z" fill="#E57D61"/>
<path d="M45.1626 334.082C45.9796 339.149 47.6867 344.859 51.6831 348.207H51.6892C53.3049 349.55 55.2711 350.405 57.3562 350.817C69.1626 354.122 83.0085 340.382 73.781 330.374C70.4277 327.273 69.7174 321.776 67.044 318.693C63.1573 313.047 54.6309 313.34 50.0248 317.946C45.8637 322.106 44.4401 327.844 45.1626 334.082Z" fill="#F99370"/>
<path d="M64.4711 330.96C64.9344 330.081 63.5413 329.373 63.1054 330.264C62.642 331.146 64.0351 331.854 64.4711 330.96Z" fill="#C16256"/>
<path d="M70.9091 329.876C71.3724 328.997 69.9793 328.289 69.5434 329.18C69.0831 330.059 70.4732 330.768 70.9091 329.876Z" fill="#C16256"/>
<path d="M68.4768 336.545C69.879 336.53 72.0586 335.581 70.2875 334.335C68.8426 333.551 67.7756 330.548 67.7665 330.517C66.2697 329.388 68.4006 334.064 70.0101 334.845C71.1441 335.541 68.7816 336.216 67.8031 335.871C67.6506 335.822 67.486 335.904 67.4373 336.06C67.355 336.579 68.114 336.506 68.4768 336.545Z" fill="#C16256"/>
<path d="M97.3267 529.436C97.3267 529.436 63.1511 548.307 24.3267 529.595C24.3267 529.595 24.5858 525.88 25.0491 519.773C27.0702 492.682 32.8774 418.47 36.2794 411.719C41.5379 413.089 46.9366 414.02 52.3171 414.637C64.1205 416.01 78.2925 415.931 89.4283 414.68C90.9311 422.484 96.72 495.301 97.2809 525.2C97.3145 526.729 97.3267 528.145 97.3267 529.436Z" fill="#FFB822"/>
<path d="M36.7705 410.007C36.7705 410.007 59.2585 429.961 89.4316 414.676C89.392 414.621 85.176 367.097 64.9499 355.291C64.9499 355.291 67.3886 364.53 53.6251 355.716C36.6486 361.295 43.0472 388.681 36.7705 410.007Z" fill="#D2C099"/>
<path d="M89.4346 414.676C89.4346 414.676 62.3435 425.682 36.7735 410.007L33.9873 416.91C33.9873 416.91 54.8688 434.732 90.2973 422.871L89.4346 414.676Z" fill="#C99A03"/>
<path d="M52.3173 414.637C52.3112 414.676 52.3081 414.722 52.302 414.765C51.232 423.189 49.9273 468.497 49.9273 508.944C49.9273 508.944 48.4519 509.115 46.0985 509.213C39.7731 509.481 27.1131 509.216 19.8579 503.64C19.8579 503.64 24.1501 425.344 25.4365 418.473C28.9299 397.707 39.6237 376.818 49.4396 359.427C49.9517 358.524 50.4577 357.626 50.9638 356.741C63.3067 373.812 56.3229 394.435 52.3173 414.637Z" fill="white"/>
<path d="M45.1627 334.082C45.9797 339.149 47.6868 344.859 51.6833 348.207H51.6894C49.4732 345.454 48.0922 339.295 48.0922 339.295L49.1379 336.554C66.7058 330.878 65.2121 316.703 65.2121 316.703C62.5904 314.411 59.0391 313.993 55.6736 314.833C47.4277 316.969 44.1263 325.887 45.1627 334.082Z" fill="#E57D61"/>
<path d="M63.4285 315.418C63.4285 315.418 64.7484 329.428 49.0248 335.144L43.3822 332.025C37.8798 321.217 47.9365 305.264 63.4285 315.418Z" fill="#481D05"/>
<path d="M99.4332 506.988C98.0553 508.147 95.7294 508.721 93.7662 509.002V509.005C91.8579 509.28 90.2941 509.28 90.2941 509.28C87.3676 489.178 81.9537 400.731 78.0273 380.813C78.0121 380.734 77.9969 380.657 77.9816 380.581C75.8782 371.373 69.5985 363.108 64.9497 355.291C65.1052 355.34 65.2576 355.392 65.4131 355.441C84.9289 361.911 88.459 394.001 91.8427 435.8C94.2814 465.943 99.4332 506.988 99.4332 506.988Z" fill="white"/>
<path d="M50.5065 429.491C50.5065 429.491 35.2676 432.424 24.7354 425.197C24.7354 425.197 24.7506 421.339 25.4365 418.476C26.1193 415.61 50.7565 427.312 50.7565 427.312L50.5065 429.491Z" fill="#D1E0F2"/>
<path d="M52.3169 414.637C52.3108 414.676 52.3077 414.722 52.3016 414.765C51.2316 423.189 49.9269 468.497 49.9269 508.944C49.9269 508.944 48.4515 509.115 46.0981 509.213L49.0551 417.091C54.3654 395.018 61.7029 373.4 50.9603 356.741C50.9603 356.741 51.5944 356.369 52.2803 356.103C52.9174 355.856 53.6064 355.716 53.6246 355.716C65.9737 372.786 56.3225 394.435 52.3169 414.637Z" fill="#D1E0F2"/>
<path d="M93.7662 509.002V509.005C91.8579 509.28 90.2941 509.28 90.2941 509.28C87.3676 489.178 81.9537 400.731 78.0273 380.813C78.0121 380.734 77.9969 380.657 77.9816 380.581C75.8782 371.373 69.5985 363.108 64.9497 355.291C65.1052 355.34 65.2576 355.392 65.4131 355.441C66.3886 355.774 67.3976 356.167 68.3212 356.653C69.2449 357.657 70.2996 359.036 71.2843 360.376C76.3964 367.265 80.7617 376.284 81.8836 385.584C83.9382 402.123 91.7086 492.115 93.7662 509.002Z" fill="#D1E0F2"/>
<path d="M54.1767 381.176C54.1767 381.176 52.6891 386.963 47.9732 393.598C43.2543 400.234 35.5937 413.849 52.3782 414.182L51.7197 419.248L32.9751 417.005L36.7704 391.111L54.1767 381.176Z" fill="#D1E0F2"/>
<path d="M45.4887 359.995C33.0116 369.233 21.1351 386.432 19.9035 401.699C18.614 430.657 45.5375 432.968 66.0502 421.806C70.3758 419.606 66.7787 412.952 62.1391 414.182C58.7584 415.052 56.3685 415.812 53.0366 415.906C23.4579 416.734 41.2575 392.875 52.7256 382.144C52.7256 382.144 53.8291 354.138 45.4887 359.995Z" fill="#F99370"/>
<path d="M24.6011 423.222C27.4696 424.913 31.0088 426.192 35.304 426.946C35.304 426.946 35.3558 417.481 41.8184 414.383C41.8184 414.383 35.8009 406.036 44.062 394.795C48.5462 388.694 54.3961 384.561 55.3594 376.495C55.9417 371.626 50.9636 356.741 50.9636 356.741C45.9307 358.06 32.4507 362.952 23.5158 376.894C13.1818 393.022 9.16398 414.121 24.6011 423.222Z" fill="white"/>
<path d="M68.6138 432.809L101.78 430.258L111.977 373.412L78.8076 375.963L68.6138 432.809Z" fill="#194163"/>
<path d="M104.234 410.379C105.688 410.663 108.578 409.051 106.368 407.748C105.527 407.296 104.74 407.699 104.061 407.974L104.131 407.977C101.887 407.873 102.253 410.272 104.234 410.379Z" fill="#F99370"/>
<path d="M105.036 408.179C106.027 408.066 107.134 407.696 107.606 406.744C108.237 405.215 105.088 404.345 104.533 405.7C104.539 405.67 104.57 405.67 104.506 405.703C104.442 405.734 104.323 405.767 104.241 405.78C104.238 405.78 104.198 405.786 104.253 405.78C101.988 406.103 103.271 408.426 105.036 408.179Z" fill="#F99370"/>
<path d="M105.963 405.905L107.338 405.395C109.31 404.47 106.987 402.547 105.606 403.204L104.231 403.713C102.259 404.635 104.582 406.561 105.963 405.905Z" fill="#F99370"/>
<path d="M106.405 403.799L107.78 403.289C109.752 402.364 107.432 400.441 106.048 401.097L104.673 401.607C102.701 402.532 105.024 404.455 106.405 403.799Z" fill="#F99370"/>
<path d="M61.7367 417.86C61.7428 417.533 61.8434 417.234 62.008 416.978C61.5569 416.431 61.2033 414.915 61.691 414.301C64.0779 411.307 70.1046 409.555 73.5584 409.064C74.9333 408.868 76.3233 408.819 77.6982 408.902C79.0364 408.951 79.0577 411.054 77.7012 411.112C76.2319 411.203 74.7869 411.46 73.3908 411.902C75.1527 411.713 76.9726 411.634 78.7438 411.688C80.0515 411.676 80.21 413.715 78.8962 413.889C76.4087 414.243 73.9425 414.884 71.5678 415.714C73.909 415.436 76.2288 415.024 78.5304 414.506C79.8656 414.188 80.4143 416.273 79.0821 416.645C76.5702 417.417 74.0157 418.055 71.4337 418.55C72.7415 418.47 74.0888 418.327 75.3875 418.165C76.7013 417.976 77.1098 420.018 75.802 420.335C75.3234 420.463 74.8448 420.595 74.3663 420.717C70.9673 421.559 67.4891 422.203 63.9743 422.252C62.2976 422.438 61.124 420.396 62.2214 419.084C61.9135 418.769 61.7245 418.336 61.7367 417.86Z" fill="#F99370"/>
<path d="M55.5364 336.148C55.6645 336.148 55.7742 336.054 55.7894 335.923C55.8047 335.782 55.7041 335.657 55.5639 335.639L49.0555 334.891C48.9153 334.876 48.7903 334.976 48.772 335.117C48.7568 335.257 48.8574 335.382 48.9976 335.401L55.5059 336.148C55.5151 336.148 55.5242 336.148 55.5364 336.148Z" fill="#C16256"/>
<path d="M53.2345 344.371C53.3199 344.371 53.4052 344.325 53.454 344.246C53.5271 344.124 53.4875 343.968 53.3656 343.895L46.7506 339.942C46.6286 339.869 46.4732 339.909 46.4 340.031C46.3268 340.153 46.3665 340.309 46.4884 340.382L53.1034 344.334C53.1461 344.359 53.1888 344.371 53.2345 344.371Z" fill="#C16256"/>
<path d="M41.9495 336.643C43.1932 342.399 50.2167 340.913 49.0248 335.144C47.781 329.388 40.7606 330.875 41.9495 336.643Z" fill="#F99370"/>
<path d="M43.7754 337.833C43.9674 337.836 44.1107 337.641 44.0528 337.458C42.9584 334.397 44.3119 333.109 46.3757 333.957C46.7232 334.101 46.9396 333.548 46.586 333.417C44.1717 332.428 42.1902 333.96 43.498 337.626C43.5346 337.751 43.6504 337.833 43.7754 337.833Z" fill="#C16256"/>
<path d="M46.4795 337.427C47.3788 337.354 45.6656 334.574 43.4646 334.427C43.3092 334.418 43.1659 334.537 43.1567 334.699C43.1476 334.857 43.2665 334.998 43.4281 335.007C45.6778 335.236 45.9491 337.351 46.4795 337.427Z" fill="#C16256"/>
<path d="M45.1168 339.298C45.1046 340.144 46.4306 340.144 46.4185 339.298C46.4306 338.453 45.1046 338.453 45.1168 339.298Z" fill="#F4D4BE"/>
<path d="M75.3537 332.468C75.3537 332.468 70.5129 336.606 55.1063 335.148C55.1063 335.148 55.5513 341.041 52.7285 344.203C52.7285 344.203 60.569 350.329 69.452 348.9C69.452 348.9 75.6189 346.138 76.8292 340.605C78.0394 335.068 75.3537 332.468 75.3537 332.468Z" fill="white"/>
<path d="M60.3283 329.535C60.4137 329.535 60.4991 329.492 60.5478 329.413C62.2092 326.672 64.5595 326.473 64.5839 326.473C64.7241 326.464 64.8308 326.342 64.8217 326.202C64.8125 326.061 64.6906 325.958 64.5504 325.964C64.4437 325.97 61.9196 326.168 60.115 329.147C60.0418 329.266 60.0814 329.425 60.2003 329.498C60.2399 329.525 60.2826 329.535 60.3283 329.535Z" fill="#C16256"/>
<path d="M70.6443 326.962C70.7296 326.962 70.8119 326.919 70.8607 326.843C70.9338 326.724 70.8973 326.565 70.7784 326.492C70.7052 326.446 68.9432 325.365 66.977 325.808C66.8399 325.838 66.7545 325.976 66.785 326.113C66.8155 326.25 66.9526 326.339 67.0898 326.305C68.8548 325.909 70.4949 326.916 70.5101 326.925C70.5498 326.949 70.5985 326.962 70.6443 326.962Z" fill="#C16256"/>
<path d="M60.8101 414.533C60.8101 414.533 59.9901 419.267 63.511 423.106C63.511 423.106 63.2122 424.037 61.5478 423.998C61.5478 423.998 58.5969 420.002 58.9231 415.021C58.9201 415.021 59.673 414.093 60.8101 414.533Z" fill="#1D3F70"/>
<path d="M97.3267 529.436C97.3267 529.436 63.1511 548.307 24.3267 529.595C24.3267 529.595 24.5858 525.88 25.0491 519.773C28.4694 520.365 32.6579 522.09 37.5415 525.92C52.2805 537.481 61.3464 527.705 70.9489 525.92C79.6947 524.293 82.5938 532.137 97.2809 525.197C97.3145 526.729 97.3267 528.145 97.3267 529.436Z" fill="#C99A03"/>
<path d="M252.097 135.423H238.62V121.93H229.551V135.423H216.074V144.506H229.551V157.997H238.62V144.506H252.097V135.423Z" fill="#209CD4"/>
<path d="M472.128 438.068H451.734V417.671H438.01V438.068H417.616V451.798H438.01V472.19H451.734V451.798H472.128V438.068Z" fill="#209CD4"/>
</g>
<defs>
<clipPath id="clip0_1445_15029">
<rect width="583" height="584" fill="white"/>
</clipPath>
</defs>
</svg>
