<svg width="94" height="94" viewBox="0 0 94 94" fill="none" xmlns="http://www.w3.org/2000/svg">
<path d="M59.5017 45.8488V45.8534C59.5017 50.0396 55.9283 53.5934 51.3004 53.5934C46.7149 53.5934 43.0992 50.035 43.0992 45.8534C43.0992 41.6288 46.7097 38.1134 51.3004 38.1134C55.9378 38.1134 59.5146 41.6272 59.5017 45.8488ZM75.864 52.9261L76.7959 52.2459C77.1665 51.9873 77.3888 51.9531 77.4607 51.9504C77.4779 51.9886 77.5041 52.0712 77.4995 52.2131C77.4932 52.4041 77.4284 52.6812 77.2304 53.0055C74.5245 56.3804 69.2753 60.6456 61.1643 64.0216L59.9286 64.5359L60.2994 65.822C64.5843 80.6817 59.2742 88.7077 53.6702 91.3979C50.7815 92.7846 47.7807 92.8104 45.6135 91.7674C43.533 90.7661 42.019 88.6907 42.1236 85.3101L42.1244 85.2869V85.2637C42.1244 85.2493 42.1237 85.1123 42.1225 84.8717C42.1186 84.1152 42.1097 82.3338 42.1008 80.1132C42.089 77.1792 42.0772 73.4664 42.0772 70.2907V69.0482L40.8564 68.8169C40.4801 68.7456 40.1658 68.6681 39.7996 68.5778C39.5025 68.5045 39.1712 68.4228 38.7449 68.3292L36.9231 67.9289V69.7942C36.9231 72.994 36.9113 76.8311 36.8995 79.8832C36.8906 82.1965 36.8816 84.0655 36.8778 84.8566C36.8766 85.1069 36.8759 85.2493 36.8759 85.2637V85.2869L36.8766 85.3101C36.9813 88.6859 35.468 90.7582 33.3877 91.7577C31.2205 92.7989 28.2194 92.7718 25.3305 91.3841C19.726 88.6919 14.416 80.6655 18.7009 65.806L19.072 64.519L17.8351 64.0052C9.70855 60.6291 4.47403 56.3634 1.7683 52.9875C1.57153 52.6679 1.50688 52.3934 1.50054 52.2033C1.49596 52.0659 1.52044 51.984 1.53768 51.944C1.6142 51.9494 1.83208 51.9909 2.1891 52.2461L2.19074 52.2473C2.35851 52.3669 2.53638 52.4891 2.70141 52.6024L2.70751 52.6066C2.87882 52.7243 3.03669 52.8328 3.1813 52.9359L5.55207 54.6261V51.7145V19.9589C5.55207 16.2604 8.25212 13.5 11.2848 13.5H67.747C70.7796 13.5 73.4797 16.2604 73.4797 19.9589V51.7145V54.6665L75.864 52.9261ZM71.5109 55.6006H72.6432V54.1006V23.5781C72.6432 20.8703 72.2309 18.5695 70.85 16.9692C69.417 15.3085 67.2674 14.7597 64.7124 14.7597H14.7596C12.1814 14.7597 9.98795 15.1866 8.56152 16.8449C7.19871 18.4292 6.87597 20.7732 6.87597 23.5781V54.3888V55.2895L7.67088 55.7128C17.7684 61.0903 26.5902 60.6761 31.7989 60.4316C32.2877 60.4086 32.7446 60.3872 33.1678 60.3721C35.1208 60.3289 35.9246 60.7366 36.2855 61.1257L36.3155 61.1581L36.3474 61.1887C36.6256 61.4554 37.9798 62.7518 39.6685 64.0376L41.8838 65.7243L42.0737 62.9465C42.1436 61.9241 42.4398 61.3457 42.855 60.9993C43.2939 60.6331 44.1448 60.2915 45.8141 60.3554C46.1841 60.3718 46.5794 60.3926 46.9986 60.4147C52.24 60.6907 61.2321 61.1642 71.5109 55.6006ZM20.5521 45.8534C20.5521 41.6288 24.1626 38.1134 28.7533 38.1134C33.344 38.1134 36.9545 41.6288 36.9545 45.8534C36.9545 50.035 33.3388 53.5934 28.7533 53.5934C24.1678 53.5934 20.5521 50.035 20.5521 45.8534Z" stroke="#63666A" stroke-width="3"/>
<path d="M59.5017 45.8488V45.8534C59.5017 50.0396 55.9283 53.5934 51.3004 53.5934C46.7149 53.5934 43.0992 50.035 43.0992 45.8534C43.0992 41.6288 46.7097 38.1134 51.3004 38.1134C55.9378 38.1134 59.5146 41.6272 59.5017 45.8488ZM75.864 52.9261L76.7959 52.2459C77.1665 51.9873 77.3888 51.9531 77.4607 51.9504C77.4779 51.9886 77.5041 52.0712 77.4995 52.2131C77.4932 52.4041 77.4284 52.6812 77.2304 53.0055C74.5245 56.3804 69.2753 60.6456 61.1643 64.0216L59.9286 64.5359L60.2994 65.822C64.5843 80.6817 59.2742 88.7077 53.6702 91.3979C50.7815 92.7846 47.7807 92.8104 45.6135 91.7674C43.533 90.7661 42.019 88.6907 42.1236 85.3101L42.1244 85.2869V85.2637C42.1244 85.2493 42.1237 85.1123 42.1225 84.8717C42.1186 84.1152 42.1097 82.3338 42.1008 80.1132C42.089 77.1792 42.0772 73.4664 42.0772 70.2907V69.0482L40.8564 68.8169C40.4801 68.7456 40.1658 68.6681 39.7996 68.5778C39.5025 68.5045 39.1712 68.4228 38.7449 68.3292L36.9231 67.9289V69.7942C36.9231 72.994 36.9113 76.8311 36.8995 79.8832C36.8906 82.1965 36.8816 84.0655 36.8778 84.8566C36.8766 85.1069 36.8759 85.2493 36.8759 85.2637V85.2869L36.8766 85.3101C36.9813 88.6859 35.468 90.7582 33.3877 91.7577C31.2205 92.7989 28.2194 92.7718 25.3305 91.3841C19.726 88.6919 14.416 80.6655 18.7009 65.806L19.072 64.519L17.8351 64.0052C9.70855 60.6291 4.47403 56.3634 1.7683 52.9875C1.57153 52.6679 1.50688 52.3934 1.50054 52.2033C1.49596 52.0659 1.52044 51.984 1.53768 51.944C1.6142 51.9494 1.83208 51.9909 2.1891 52.2461L2.19074 52.2473C2.35851 52.3669 2.53638 52.4891 2.70141 52.6024L2.70751 52.6066C2.87882 52.7243 3.03669 52.8328 3.1813 52.9359L5.55207 54.6261V51.7145V19.9589C5.55207 16.2604 8.25212 13.5 11.2848 13.5H67.747C70.7796 13.5 73.4797 16.2604 73.4797 19.9589V51.7145V54.6665L75.864 52.9261ZM71.5109 55.6006H72.6432V54.1006V23.5781C72.6432 20.8703 72.2309 18.5695 70.85 16.9692C69.417 15.3085 67.2674 14.7597 64.7124 14.7597H14.7596C12.1814 14.7597 9.98795 15.1866 8.56152 16.8449C7.19871 18.4292 6.87597 20.7732 6.87597 23.5781V54.3888V55.2895L7.67088 55.7128C17.7684 61.0903 26.5902 60.6761 31.7989 60.4316C32.2877 60.4086 32.7446 60.3872 33.1678 60.3721C35.1208 60.3289 35.9246 60.7366 36.2855 61.1257L36.3155 61.1581L36.3474 61.1887C36.6256 61.4554 37.9798 62.7518 39.6685 64.0376L41.8838 65.7243L42.0737 62.9465C42.1436 61.9241 42.4398 61.3457 42.855 60.9993C43.2939 60.6331 44.1448 60.2915 45.8141 60.3554C46.1841 60.3718 46.5794 60.3926 46.9986 60.4147C52.24 60.6907 61.2321 61.1642 71.5109 55.6006ZM20.5521 45.8534C20.5521 41.6288 24.1626 38.1134 28.7533 38.1134C33.344 38.1134 36.9545 41.6288 36.9545 45.8534C36.9545 50.035 33.3388 53.5934 28.7533 53.5934C24.1678 53.5934 20.5521 50.035 20.5521 45.8534Z" stroke="#63666A" stroke-width="3"/>
<path d="M81.1094 0C74.4199 0 69 5.41992 69 12.1094C69 18.7988 74.4199 24.2188 81.1094 24.2188C87.7988 24.2188 93.2188 18.7988 93.2188 12.1094C93.2188 5.41992 87.7988 0 81.1094 0ZM88.1406 13.4766C88.1406 13.7988 87.877 14.0625 87.5547 14.0625H83.0625V18.5547C83.0625 18.877 82.7988 19.1406 82.4766 19.1406H79.7422C79.4199 19.1406 79.1562 18.877 79.1562 18.5547V14.0625H74.6641C74.3418 14.0625 74.0781 13.7988 74.0781 13.4766V10.7422C74.0781 10.4199 74.3418 10.1562 74.6641 10.1562H79.1562V5.66406C79.1562 5.3418 79.4199 5.07812 79.7422 5.07812H82.4766C82.7988 5.07812 83.0625 5.3418 83.0625 5.66406V10.1562H87.5547C87.877 10.1562 88.1406 10.4199 88.1406 10.7422V13.4766Z" fill="#63666A"/>
<path d="M81.1094 0C74.4199 0 69 5.41992 69 12.1094C69 18.7988 74.4199 24.2188 81.1094 24.2188C87.7988 24.2188 93.2188 18.7988 93.2188 12.1094C93.2188 5.41992 87.7988 0 81.1094 0ZM88.1406 13.4766C88.1406 13.7988 87.877 14.0625 87.5547 14.0625H83.0625V18.5547C83.0625 18.877 82.7988 19.1406 82.4766 19.1406H79.7422C79.4199 19.1406 79.1562 18.877 79.1562 18.5547V14.0625H74.6641C74.3418 14.0625 74.0781 13.7988 74.0781 13.4766V10.7422C74.0781 10.4199 74.3418 10.1562 74.6641 10.1562H79.1562V5.66406C79.1562 5.3418 79.4199 5.07812 79.7422 5.07812H82.4766C82.7988 5.07812 83.0625 5.3418 83.0625 5.66406V10.1562H87.5547C87.877 10.1562 88.1406 10.4199 88.1406 10.7422V13.4766Z" fill="#63666A"/>
</svg>
