<svg width="28" height="29" viewBox="0 0 28 29" fill="none" xmlns="http://www.w3.org/2000/svg">
<path fill-rule="evenodd" clip-rule="evenodd" d="M13.9995 3.93617e-07C12.1693 -0.000548913 10.3872 0.573847 8.91462 1.63888C7.44206 2.70392 6.35664 4.2035 5.81768 5.91752C5.27872 7.63155 5.3146 9.46975 5.92006 11.1623C6.52552 12.8549 7.66866 14.3127 9.18171 15.3218C6.55573 16.2656 4.27807 17.9581 2.64185 20.1812C1.00562 22.4044 0.0857211 25.0565 0.00052568 27.7963C-0.00876034 28.0997 0.105296 28.3942 0.317604 28.6151C0.529911 28.8361 0.823079 28.9653 1.13261 28.9744C1.44215 28.9835 1.74269 28.8717 1.96813 28.6637C2.19357 28.4556 2.32544 28.1683 2.33473 27.8649C2.42739 24.8934 3.69706 22.074 5.87466 20.0042C8.05226 17.9343 10.9667 16.7768 14.0003 16.7768C17.0339 16.7768 19.9483 17.9343 22.1259 20.0042C24.3035 22.074 25.5732 24.8934 25.6658 27.8649C25.667 28.0172 25.6992 28.1678 25.7606 28.3077C25.8219 28.4476 25.9111 28.5741 26.023 28.6798C26.1349 28.7855 26.2672 28.8682 26.4122 28.9231C26.5571 28.978 26.7118 29.004 26.8671 28.9995C27.0225 28.995 27.1753 28.9602 27.3168 28.8971C27.4582 28.8339 27.5853 28.7438 27.6907 28.6318C27.7961 28.5199 27.8776 28.3885 27.9304 28.2453C27.9833 28.1021 28.0064 27.9499 27.9985 27.7978C27.9136 25.0578 26.9938 22.4053 25.3576 20.1818C23.7213 17.9584 21.4435 16.2657 18.8173 15.3218C20.3303 14.3127 21.4735 12.8549 22.0789 11.1623C22.6844 9.46975 22.7203 7.63155 22.1813 5.91752C21.6424 4.2035 20.5569 2.70392 19.0844 1.63888C17.6118 0.573847 15.8297 -0.000548913 13.9995 3.93617e-07ZM7.77497 8.38754C7.77497 6.76972 8.43077 5.21815 9.59809 4.07417C10.7654 2.93019 12.3487 2.28751 13.9995 2.28751C15.6504 2.28751 17.2336 2.93019 18.4009 4.07417C19.5682 5.21815 20.224 6.76972 20.224 8.38754C20.224 10.0054 19.5682 11.5569 18.4009 12.7009C17.2336 13.8449 15.6504 14.4876 13.9995 14.4876C12.3487 14.4876 10.7654 13.8449 9.59809 12.7009C8.43077 11.5569 7.77497 10.0054 7.77497 8.38754Z" fill="white"/>
</svg>
