<svg width="50" height="50" viewBox="0 0 50 50" fill="none" xmlns="http://www.w3.org/2000/svg">
<path d="M45.153 38.6528C43.8137 37.4589 42.6411 36.0901 41.6669 34.5834C40.6033 32.5036 39.9658 30.2323 39.7919 27.9028V21.0417C39.8011 17.3828 38.4739 13.8465 36.0596 11.0972C33.6453 8.34793 30.3102 6.57486 26.6808 6.11117V4.3195C26.6808 3.82774 26.4854 3.35613 26.1377 3.00841C25.79 2.66068 25.3184 2.46533 24.8266 2.46533C24.3349 2.46533 23.8632 2.66068 23.5155 3.00841C23.1678 3.35613 22.9724 3.82774 22.9724 4.3195V6.13894C19.3756 6.63606 16.0807 8.41985 13.6982 11.1599C11.3156 13.9 10.0068 17.4107 10.0141 21.0417V27.9028C9.84015 30.2323 9.20269 32.5036 8.13911 34.5834C7.182 36.0867 6.02827 37.4552 4.70855 38.6528C4.5604 38.783 4.44166 38.9432 4.36024 39.1228C4.27882 39.3024 4.23658 39.4973 4.23633 39.6945V41.5834C4.23633 41.9517 4.38266 42.305 4.64312 42.5655C4.90359 42.8259 5.25686 42.9723 5.62522 42.9723H44.2363C44.6047 42.9723 44.958 42.8259 45.2184 42.5655C45.4789 42.305 45.6252 41.9517 45.6252 41.5834V39.6945C45.625 39.4973 45.5827 39.3024 45.5013 39.1228C45.4199 38.9432 45.3011 38.783 45.153 38.6528ZM7.12522 40.1945C8.41745 38.9462 9.55522 37.5473 10.5141 36.0278C11.8538 33.516 12.6355 30.7445 12.8058 27.9028V21.0417C12.7507 19.414 13.0237 17.7918 13.6086 16.2718C14.1935 14.7518 15.0783 13.365 16.2103 12.1941C17.3423 11.0231 18.6983 10.092 20.1977 9.45599C21.6971 8.82003 23.3091 8.49229 24.9377 8.49229C26.5664 8.49229 28.1784 8.82003 29.6777 9.45599C31.1771 10.092 32.5332 11.0231 33.6652 12.1941C34.7971 13.365 35.6819 14.7518 36.2668 16.2718C36.8517 17.7918 37.1247 19.414 37.0697 21.0417V27.9028C37.2399 30.7445 38.0216 33.516 39.3613 36.0278C40.3202 37.5473 41.458 38.9462 42.7502 40.1945H7.12522Z" fill="#564B52"/>
<path d="M25.0001 47.6111C25.875 47.591 26.7146 47.2621 27.3703 46.6825C28.0261 46.103 28.4558 45.3102 28.5834 44.4445H21.2778C21.409 45.3338 21.8588 46.1452 22.5435 46.7277C23.2282 47.3102 24.1012 47.6241 25.0001 47.6111V47.6111Z" fill="#564B52"/>
</svg>
