<svg width="36" height="37" viewBox="0 0 36 37" fill="none" xmlns="http://www.w3.org/2000/svg">
<path d="M35 25.4444L27.1 22.0444C26.4 21.7444 25.6 21.9444 25.1 22.5444L21.6 26.8444C16.1 24.2444 11.7 19.8444 9.1 14.3444L13.4 10.8444C14 10.3444 14.2 9.54444 13.9 8.84444L10.6 1.04444C10.3 0.344439 9.5 -0.155561 8.7 0.0444394L1.3 1.74444C0.5 1.94444 0 2.64444 0 3.44444C0 21.4444 14.6 36.0444 32.6 36.0444C33.4 36.0444 34.1 35.5444 34.2 34.7444L35.9 27.4444C36.1 26.6444 35.7 25.8444 35 25.4444Z" fill="white"/>
</svg>
