<svg width="50" height="50" viewBox="0 0 50 50" fill="none" xmlns="http://www.w3.org/2000/svg">
<path d="M22.75 17.5613C22.27 18.1011 22 18.8461 22 19.5941C22 19.9831 21.842 20.3562 21.5607 20.6312C21.2794 20.9063 20.8978 21.0608 20.5 21.0608C20.1022 21.0608 19.7206 20.9063 19.4393 20.6312C19.158 20.3562 19 19.9831 19 19.5941C19 18.2067 19.483 16.7488 20.5 15.6224C21.541 14.4667 23.08 13.7275 25 13.7275C26.92 13.7275 28.459 14.4667 29.5 15.6224C30.517 16.7517 31 18.2037 31 19.5941C31 21.0315 30.652 22.1461 30.094 23.0848C29.605 23.9032 28.966 24.5515 28.459 25.0707L28.333 25.1968C27.775 25.7688 27.346 26.2352 27.031 26.8219C26.731 27.3821 26.5 28.1243 26.5 29.2536C26.5 29.6426 26.342 30.0156 26.0607 30.2907C25.7794 30.5657 25.3978 30.7203 25 30.7203C24.6022 30.7203 24.2206 30.5657 23.9393 30.2907C23.658 30.0156 23.5 29.6426 23.5 29.2536C23.5 27.6931 23.83 26.4757 24.373 25.4608C24.904 24.4723 25.603 23.7477 26.167 23.1699L26.233 23.1024C26.797 22.5245 27.199 22.1139 27.502 21.6064C27.787 21.1283 28 20.524 28 19.5941C28 18.8461 27.733 18.0981 27.25 17.5613C26.791 17.0539 26.08 16.6608 25 16.6608C23.92 16.6608 23.209 17.0539 22.75 17.5613ZM25 37.816C25.2823 37.8264 25.5638 37.7811 25.8277 37.6827C26.0916 37.5843 26.3325 37.4348 26.5359 37.2432C26.7394 37.0517 26.9013 36.8219 27.0118 36.5678C27.1224 36.3136 27.1794 36.0403 27.1794 35.7641C27.1794 35.4879 27.1224 35.2146 27.0118 34.9605C26.9013 34.7063 26.7394 34.4766 26.5359 34.285C26.3325 34.0935 26.0916 33.944 25.8277 33.8456C25.5638 33.7472 25.2823 33.7018 25 33.7123C24.443 33.7123 23.9089 33.9286 23.5151 34.3137C23.1212 34.6987 22.9 35.221 22.9 35.7656C22.9 36.3102 23.1212 36.8324 23.5151 37.2175C23.9089 37.6026 24.443 37.8189 25 37.8189V37.816ZM1.00003 25.4608C1.00134 20.3328 2.7205 15.3464 5.89458 11.2642C9.06866 7.18204 13.5229 4.22882 18.5761 2.85625C23.6292 1.48367 29.0031 1.76731 33.8758 3.66377C38.7485 5.56024 42.8518 8.96512 45.558 13.3577C48.2642 17.7502 49.4244 22.8886 48.8612 27.9869C48.2979 33.0852 46.0422 37.8628 42.4391 41.589C38.8359 45.3151 34.0837 47.7847 28.9092 48.6199C23.7347 49.4552 18.4228 48.6102 13.786 46.2141L2.86602 48.8835C2.6147 48.9452 2.3513 48.9423 2.10149 48.8749C1.85168 48.8075 1.62398 48.678 1.44059 48.499C1.2572 48.32 1.12437 48.0975 1.05505 47.8534C0.985724 47.6092 0.982271 47.3517 1.04503 47.1059L3.77502 36.4256C1.94711 33.0475 0.994285 29.2826 1.00003 25.4608ZM25 4.92748C21.3351 4.92638 17.7338 5.8631 14.5539 7.64453C11.374 9.42595 8.72621 11.9901 6.87377 15.082C5.02132 18.174 4.02869 21.6861 3.99453 25.2694C3.96036 28.8526 4.88585 32.3823 6.67902 35.5075C6.86734 35.8335 6.92101 36.2176 6.82902 36.5811L4.56102 45.4456L13.627 43.228C13.9987 43.138 14.3916 43.1905 14.725 43.3747C17.5248 44.9083 20.6468 45.794 23.8512 45.964C27.0557 46.1339 30.2574 45.5835 33.2104 44.355C36.1634 43.1265 38.7891 41.2525 40.886 38.8771C42.9828 36.5017 44.495 33.688 45.3063 30.6521C46.1177 27.6161 46.2066 24.4388 45.5663 21.364C44.926 18.2892 43.5735 15.3989 41.6127 12.9149C39.6519 10.4308 37.1349 8.41928 34.2551 7.03465C31.3752 5.65003 28.2092 4.92918 25 4.92748Z" fill="#564B52"/>
</svg>
