<svg width="136" height="118" viewBox="0 0 136 118" fill="none" xmlns="http://www.w3.org/2000/svg">
<path d="M6.19873 112.717H2.96993L2.35609 114.563H0.397949L3.72496 105.604H5.43143L8.77686 114.563H6.81871L6.19873 112.717ZM3.46714 111.222H5.70152L4.57819 107.868L3.46714 111.222ZM15.6027 107.099H12.865V114.563H11.0235V107.099H8.32262V105.604H15.6027V107.099ZM22.0357 110.68H18.5001V113.08H22.6497V114.563H16.6586V105.604H22.6373V107.099H18.5001V109.234H22.0357V110.68ZM30.9978 114.563H29.1563L25.5715 108.668V114.563H23.73V105.604H25.5715L29.1625 111.511V105.604H30.9978V114.563ZM39.6222 111.579C39.5528 112.543 39.1966 113.302 38.5542 113.855C37.9158 114.409 37.0728 114.686 36.0252 114.686C34.8794 114.686 33.977 114.301 33.3181 113.529C32.6634 112.754 32.336 111.692 32.336 110.342V109.794C32.336 108.933 32.4874 108.174 32.7902 107.518C33.0931 106.861 33.5248 106.359 34.0854 106.01C34.6501 105.657 35.305 105.481 36.0498 105.481C37.081 105.481 37.9117 105.758 38.5419 106.312C39.1722 106.865 39.5363 107.643 39.6346 108.644H37.793C37.7481 108.065 37.5864 107.647 37.3081 107.388C37.0339 107.126 36.6145 106.995 36.0498 106.995C35.4358 106.995 34.9755 107.216 34.6686 107.659C34.3658 108.098 34.2102 108.781 34.2021 109.708V110.385C34.2021 111.353 34.3474 112.061 34.6379 112.508C34.9325 112.955 35.3949 113.179 36.0252 113.179C36.594 113.179 37.0176 113.049 37.2958 112.791C37.5782 112.528 37.7398 112.124 37.7808 111.579H39.6222ZM42.7897 114.563H40.9482V105.604H42.7897V114.563ZM51.8438 110.287C51.8438 111.168 51.6883 111.942 51.3773 112.606C51.0662 113.271 50.6202 113.784 50.0392 114.145C49.4621 114.506 48.7992 114.686 48.0502 114.686C47.3096 114.686 46.6486 114.508 46.0676 114.151C45.4865 113.794 45.0363 113.285 44.7171 112.625C44.3979 111.96 44.2363 111.197 44.2322 110.336V109.893C44.2322 109.011 44.3898 108.235 44.7049 107.567C45.0241 106.894 45.4722 106.379 46.0492 106.022C46.6302 105.661 47.2932 105.481 48.038 105.481C48.7828 105.481 49.4437 105.661 50.0208 106.022C50.6018 106.379 51.0499 106.894 51.365 107.567C51.6842 108.235 51.8438 109.009 51.8438 109.887V110.287ZM49.9778 109.88C49.9778 108.941 49.81 108.227 49.4744 107.739C49.1388 107.251 48.6601 107.007 48.038 107.007C47.4201 107.007 46.9434 107.249 46.6077 107.733C46.2722 108.213 46.1024 108.918 46.0982 109.85V110.287C46.0982 111.201 46.266 111.911 46.6017 112.416C46.9372 112.92 47.4201 113.172 48.0502 113.172C48.6682 113.172 49.1429 112.93 49.4744 112.446C49.8059 111.958 49.9737 111.249 49.9778 110.317V109.88ZM48.394 103.204H50.3276L48.6273 105.112H47.1848L48.394 103.204ZM60.4499 114.563H58.6083L55.0235 108.668V114.563H53.182V105.604H55.0235L58.6145 111.511V105.604H60.4499V114.563ZM70.2345 112.717H67.0057L66.3918 114.563H64.4337L67.7606 105.604H69.4672L72.8125 114.563H70.8545L70.2345 112.717ZM67.5028 111.222H69.7372L68.6139 107.868L67.5028 111.222ZM80.5837 113.431C80.2523 113.829 79.7837 114.139 79.1781 114.36C78.5724 114.578 77.9013 114.686 77.1646 114.686C76.3913 114.686 75.712 114.518 75.1267 114.182C74.5457 113.841 74.0955 113.349 73.7763 112.705C73.4612 112.061 73.2995 111.304 73.2914 110.434V109.825C73.2914 108.931 73.4408 108.158 73.7395 107.505C74.0422 106.849 74.4761 106.348 75.0407 106.004C75.6097 105.655 76.2746 105.481 77.0357 105.481C78.0957 105.481 78.9244 105.735 79.5218 106.244C80.1193 106.748 80.4733 107.485 80.5837 108.453H78.7914C78.7095 107.94 78.5274 107.565 78.2451 107.327C77.9668 107.089 77.5821 106.97 77.091 106.97C76.4649 106.97 75.9882 107.206 75.6608 107.678C75.3334 108.149 75.1676 108.851 75.1636 109.782V110.354C75.1636 111.294 75.3415 112.003 75.6977 112.483C76.0537 112.963 76.5754 113.203 77.2629 113.203C77.9545 113.203 78.4476 113.056 78.7422 112.76V111.216H77.0665V109.856H80.5837V113.431ZM87.4588 110.68H83.923V113.08H88.0726V114.563H82.0815V105.604H88.0603V107.099H83.923V109.234H87.4588V110.68ZM96.4209 114.563H94.5793L90.9945 108.668V114.563H89.153V105.604H90.9945L94.5854 111.511V105.604H96.4209V114.563ZM98.0291 114.563V105.604H100.779C101.565 105.604 102.267 105.782 102.885 106.139C103.507 106.492 103.991 106.997 104.339 107.653C104.687 108.305 104.861 109.048 104.861 109.88V110.293C104.861 111.125 104.689 111.866 104.345 112.514C104.006 113.162 103.525 113.665 102.903 114.022C102.281 114.379 101.579 114.559 100.798 114.563H98.0291ZM99.8706 107.099V113.08H100.761C101.481 113.08 102.031 112.844 102.412 112.373C102.793 111.901 102.987 111.226 102.995 110.348V109.874C102.995 108.964 102.807 108.274 102.43 107.807C102.054 107.335 101.503 107.099 100.779 107.099H99.8706ZM111.116 112.717H107.887L107.274 114.563H105.315L108.642 105.604H110.349L113.694 114.563H111.736L111.116 112.717ZM108.385 111.222H110.619L109.496 107.868L108.385 111.222ZM114.529 114.563V105.604H117.659C118.744 105.604 119.567 105.813 120.127 106.231C120.688 106.646 120.968 107.255 120.968 108.059C120.968 108.498 120.856 108.886 120.631 109.222C120.406 109.554 120.093 109.798 119.691 109.954C120.15 110.069 120.51 110.301 120.771 110.65C121.038 110.998 121.17 111.425 121.17 111.93C121.17 112.791 120.897 113.443 120.349 113.886C119.8 114.329 119.018 114.555 118.003 114.563H114.529ZM116.37 110.662V113.08H117.949C118.382 113.08 118.72 112.978 118.961 112.772C119.207 112.563 119.329 112.276 119.329 111.911C119.329 111.091 118.905 110.674 118.058 110.662H116.37ZM116.37 109.357H117.734C118.662 109.341 119.127 108.97 119.127 108.244C119.127 107.838 119.008 107.546 118.77 107.37C118.537 107.189 118.167 107.099 117.659 107.099H116.37V109.357ZM124.4 113.08H128.31V114.563H122.558V105.604H124.4V113.08ZM134.749 110.68H131.214V113.08H135.362V114.563H129.371V105.604H135.351V107.099H131.214V109.234H134.749V110.68Z" fill="#CC542D"/>
<path d="M51.7079 25.3319H53.2616L53.6458 23.8265C54.3317 21.1387 56.714 19.1844 59.5555 19.1844C62.9253 19.1844 65.6825 21.9412 65.6825 25.3471V73.3025C65.6825 77.2823 62.4808 80.4854 58.5396 80.4854C55.4093 80.4854 52.7624 78.4412 51.8009 75.5745L51.2512 73.9354L49.5499 74.2421C49.1223 74.3192 48.7411 74.3635 48.3809 74.3635C44.4398 74.3635 41.2381 71.1603 41.2381 67.1805C41.2381 66.7074 41.2871 66.2363 41.3789 65.7646L41.6911 64.162L40.1834 63.5353C37.2251 62.3059 35.1428 59.3725 35.1428 55.9569C35.1428 52.9237 36.7958 50.2991 39.2605 48.8757L40.864 47.9497L40.064 46.2798C39.524 45.1526 39.2063 43.9544 39.2063 42.6926C39.2063 39.2692 41.2962 36.3351 44.2805 35.1033L45.8664 34.4487L45.4607 32.7817C45.3571 32.356 45.3016 31.9153 45.3016 31.469C45.3016 28.0925 48.0116 25.3539 51.3417 25.307C51.4174 25.317 51.5533 25.3319 51.7079 25.3319ZM51.2673 25.2966C51.2673 25.2966 51.2703 25.2969 51.277 25.2979C51.2708 25.2972 51.2674 25.2967 51.2673 25.2966ZM99.3711 46.2661L98.5523 47.9426L100.168 48.8757C102.633 50.2991 104.286 52.9237 104.286 55.9569C104.286 59.3725 102.203 62.3059 99.2451 63.5353L97.7374 64.162L98.0496 65.7646C98.1414 66.2363 98.1904 66.7074 98.1904 67.1805C98.1904 71.1603 94.9887 74.3635 91.0476 74.3635C90.6874 74.3635 90.3062 74.3192 89.8786 74.2421L88.1773 73.9354L87.6276 75.5745C86.6662 78.4412 84.0192 80.4854 80.8889 80.4854C76.9477 80.4854 73.746 77.2823 73.746 73.3025V25.3471C73.746 21.9305 76.5012 19.1844 79.873 19.1844C82.7145 19.1844 85.0968 21.1387 85.7827 23.8265L86.1669 25.3319H87.7206C87.8366 25.3319 87.9339 25.3237 87.9996 25.3167C88.029 25.3135 88.0576 25.31 88.0808 25.3069C91.4137 25.3506 94.127 28.0904 94.127 31.469C94.127 31.8911 94.0653 32.3388 93.9583 32.8226L93.5955 34.4625L95.148 35.1033C98.1323 36.3351 100.222 39.2692 100.222 42.6926C100.222 43.9641 99.9124 45.1579 99.3711 46.2661Z" stroke="#3A5160" stroke-width="4"/>
</svg>
