<svg width="25" height="24" viewBox="0 0 25 24" fill="none" xmlns="http://www.w3.org/2000/svg">
<path d="M11.989 13.1828C12.6496 13.1828 13.1851 12.6473 13.1851 11.9868C13.1851 11.3262 12.6496 10.7907 11.989 10.7907C11.3285 10.7907 10.793 11.3262 10.793 11.9868C10.793 12.6473 11.3285 13.1828 11.989 13.1828Z" fill="#3A5160"/>
<path d="M16.7732 13.1828C17.4338 13.1828 17.9692 12.6473 17.9692 11.9868C17.9692 11.3262 17.4338 10.7907 16.7732 10.7907C16.1126 10.7907 15.5771 11.3262 15.5771 11.9868C15.5771 12.6473 16.1126 13.1828 16.7732 13.1828Z" fill="#3A5160"/>
<path d="M7.20484 13.1828C7.8654 13.1828 8.40089 12.6473 8.40089 11.9868C8.40089 11.3262 7.8654 10.7907 7.20484 10.7907C6.54428 10.7907 6.00879 11.3262 6.00879 11.9868C6.00879 12.6473 6.54428 13.1828 7.20484 13.1828Z" fill="#3A5160"/>
<path d="M20.4453 3.53074C18.4829 1.55546 15.8927 0.32677 13.1215 0.0564975C10.3502 -0.213775 7.57147 0.491305 5.26433 2.05018C2.95719 3.60906 1.26623 5.92404 0.482975 8.59602C-0.300285 11.268 -0.126758 14.1295 0.973638 16.6873C1.08833 16.925 1.12596 17.1926 1.08128 17.4528L0.0287578 22.5121C-0.0117929 22.706 -0.00351237 22.907 0.0528553 23.097C0.109223 23.287 0.211911 23.46 0.351691 23.6005C0.466278 23.7142 0.602711 23.8036 0.752768 23.8632C0.902825 23.9228 1.0634 23.9514 1.22481 23.9473H1.46402L6.58312 22.9187C6.84329 22.8874 7.10713 22.9245 7.34859 23.0264C9.90634 24.1268 12.7679 24.3003 15.4399 23.517C18.1118 22.7338 20.4268 21.0428 21.9857 18.7357C23.5446 16.4285 24.2497 13.6498 23.9794 10.8785C23.7091 8.10726 22.4804 5.51712 20.5051 3.55466L20.4453 3.53074ZM21.4381 13.5297C21.2042 14.9578 20.6495 16.3142 19.8157 17.4969C18.9819 18.6796 17.8906 19.6578 16.6241 20.3578C15.3576 21.0578 13.9489 21.4615 12.5038 21.5384C11.0588 21.6153 9.61514 21.3634 8.28151 20.8017C7.80852 20.6005 7.30042 20.4948 6.78644 20.4907C6.56192 20.4923 6.33791 20.5123 6.11666 20.5505L2.74379 21.2323L3.42554 17.8594C3.56132 17.129 3.47379 16.3745 3.17437 15.6946C2.6127 14.3609 2.36082 12.9173 2.43771 11.4722C2.5146 10.0272 2.91825 8.61843 3.61828 7.35194C4.3183 6.08544 5.29647 4.99422 6.47917 4.1604C7.66187 3.32657 9.0183 2.77186 10.4464 2.53801C11.9453 2.292 13.4813 2.40642 14.9273 2.87178C16.3733 3.33715 17.6877 4.1401 18.7619 5.21422C19.836 6.28834 20.6389 7.60275 21.1043 9.04874C21.5697 10.4947 21.6841 12.0307 21.4381 13.5297V13.5297Z" fill="#3A5160"/>
</svg>
