<svg width="100" height="131" viewBox="0 0 100 131" fill="none" xmlns="http://www.w3.org/2000/svg">
<rect x="0.324219" width="99" height="131" rx="12" fill="#CC542D"/>
<rect x="0.5" y="10.6051" width="98.6445" height="86.4239" fill="white" stroke="#CC542D"/>
<path d="M24.4743 111.169V104.119H27.0343C27.841 104.119 28.521 104.259 29.0743 104.539C29.6343 104.813 30.0576 105.213 30.3443 105.739C30.631 106.259 30.7743 106.893 30.7743 107.639C30.7743 108.379 30.631 109.013 30.3443 109.539C30.0576 110.066 29.6343 110.469 29.0743 110.749C28.521 111.029 27.841 111.169 27.0343 111.169H24.4743ZM25.7643 110.099H26.9543C27.8076 110.099 28.441 109.896 28.8543 109.489C29.2676 109.083 29.4743 108.466 29.4743 107.639C29.4743 106.806 29.2676 106.189 28.8543 105.789C28.441 105.383 27.8076 105.179 26.9543 105.179H25.7643V110.099ZM34.4315 111.269C33.5848 111.269 32.9215 111.036 32.4415 110.569C31.9615 110.103 31.7215 109.463 31.7215 108.649C31.7215 108.123 31.8248 107.663 32.0315 107.269C32.2382 106.876 32.5248 106.569 32.8915 106.349C33.2648 106.129 33.6982 106.019 34.1915 106.019C34.6782 106.019 35.0848 106.123 35.4115 106.329C35.7382 106.536 35.9848 106.826 36.1515 107.199C36.3248 107.573 36.4115 108.009 36.4115 108.509V108.839H32.7315V108.179H35.5215L35.3515 108.319C35.3515 107.853 35.2515 107.496 35.0515 107.249C34.8582 107.003 34.5748 106.879 34.2015 106.879C33.7882 106.879 33.4682 107.026 33.2415 107.319C33.0215 107.613 32.9115 108.023 32.9115 108.549V108.679C32.9115 109.226 33.0448 109.636 33.3115 109.909C33.5848 110.176 33.9682 110.309 34.4615 110.309C34.7482 110.309 35.0148 110.273 35.2615 110.199C35.5148 110.119 35.7548 109.993 35.9815 109.819L36.3515 110.659C36.1115 110.853 35.8248 111.003 35.4915 111.109C35.1582 111.216 34.8048 111.269 34.4315 111.269ZM39.27 111.269C38.8367 111.269 38.4367 111.219 38.07 111.119C37.71 111.013 37.4067 110.866 37.16 110.679L37.51 109.839C37.7633 110.013 38.0433 110.146 38.35 110.239C38.6567 110.333 38.9667 110.379 39.28 110.379C39.6133 110.379 39.86 110.323 40.02 110.209C40.1867 110.096 40.27 109.943 40.27 109.749C40.27 109.596 40.2167 109.476 40.11 109.389C40.01 109.296 39.8467 109.226 39.62 109.179L38.62 108.989C38.1933 108.896 37.8667 108.736 37.64 108.509C37.42 108.283 37.31 107.986 37.31 107.619C37.31 107.306 37.3933 107.029 37.56 106.789C37.7333 106.549 37.9767 106.363 38.29 106.229C38.61 106.089 38.9833 106.019 39.41 106.019C39.7833 106.019 40.1333 106.069 40.46 106.169C40.7933 106.269 41.0733 106.419 41.3 106.619L40.94 107.429C40.7333 107.263 40.4967 107.133 40.23 107.039C39.9633 106.946 39.7033 106.899 39.45 106.899C39.1033 106.899 38.85 106.963 38.69 107.089C38.53 107.209 38.45 107.366 38.45 107.559C38.45 107.706 38.4967 107.829 38.59 107.929C38.69 108.023 38.8433 108.093 39.05 108.139L40.05 108.329C40.4967 108.416 40.8333 108.569 41.06 108.789C41.2933 109.003 41.41 109.296 41.41 109.669C41.41 110.003 41.32 110.289 41.14 110.529C40.96 110.769 40.71 110.953 40.39 111.079C40.07 111.206 39.6967 111.269 39.27 111.269ZM44.7998 111.269C44.2798 111.269 43.8231 111.163 43.4298 110.949C43.0431 110.736 42.7431 110.433 42.5298 110.039C42.3164 109.639 42.2098 109.166 42.2098 108.619C42.2098 108.073 42.3164 107.606 42.5298 107.219C42.7498 106.833 43.0531 106.536 43.4398 106.329C43.8264 106.123 44.2798 106.019 44.7998 106.019C45.1331 106.019 45.4564 106.073 45.7698 106.179C46.0898 106.279 46.3498 106.426 46.5498 106.619L46.1698 107.489C45.9898 107.323 45.7864 107.199 45.5598 107.119C45.3398 107.033 45.1231 106.989 44.9098 106.989C44.4631 106.989 44.1131 107.129 43.8598 107.409C43.6131 107.689 43.4898 108.096 43.4898 108.629C43.4898 109.163 43.6131 109.573 43.8598 109.859C44.1131 110.146 44.4631 110.289 44.9098 110.289C45.1164 110.289 45.3298 110.249 45.5498 110.169C45.7764 110.089 45.9831 109.966 46.1698 109.799L46.5498 110.659C46.3431 110.853 46.0798 111.003 45.7598 111.109C45.4464 111.216 45.1264 111.269 44.7998 111.269ZM49.4395 111.269C48.9995 111.269 48.6129 111.166 48.2795 110.959C47.9462 110.746 47.6862 110.443 47.4995 110.049C47.3129 109.656 47.2195 109.186 47.2195 108.639C47.2195 108.093 47.3129 107.626 47.4995 107.239C47.6862 106.846 47.9462 106.546 48.2795 106.339C48.6129 106.126 48.9995 106.019 49.4395 106.019C49.8662 106.019 50.2395 106.126 50.5595 106.339C50.8862 106.546 51.1029 106.826 51.2095 107.179H51.0995L51.2095 106.119H52.4095C52.3895 106.326 52.3695 106.536 52.3495 106.749C52.3362 106.963 52.3295 107.173 52.3295 107.379V111.169H51.0895L51.0795 110.129H51.1995C51.0929 110.476 50.8762 110.753 50.5495 110.959C50.2229 111.166 49.8529 111.269 49.4395 111.269ZM49.7895 110.309C50.1829 110.309 50.4995 110.173 50.7395 109.899C50.9795 109.619 51.0995 109.199 51.0995 108.639C51.0995 108.079 50.9795 107.663 50.7395 107.389C50.4995 107.116 50.1829 106.979 49.7895 106.979C49.3962 106.979 49.0795 107.116 48.8395 107.389C48.5995 107.663 48.4795 108.079 48.4795 108.639C48.4795 109.199 48.5962 109.619 48.8295 109.899C49.0695 110.173 49.3895 110.309 49.7895 110.309ZM53.6807 111.169V107.409C53.6807 107.196 53.674 106.979 53.6607 106.759C53.654 106.539 53.6374 106.326 53.6107 106.119H54.8207L54.9607 107.499H54.7607C54.8274 107.166 54.9374 106.889 55.0907 106.669C55.2507 106.449 55.444 106.286 55.6707 106.179C55.8974 106.073 56.144 106.019 56.4107 106.019C56.5307 106.019 56.6274 106.026 56.7007 106.039C56.774 106.046 56.8474 106.063 56.9207 106.089L56.9107 107.189C56.784 107.136 56.674 107.103 56.5807 107.089C56.494 107.076 56.384 107.069 56.2507 107.069C55.964 107.069 55.7207 107.129 55.5207 107.249C55.3274 107.369 55.1807 107.536 55.0807 107.749C54.9874 107.963 54.9407 108.206 54.9407 108.479V111.169H53.6807ZM59.8784 113.409C59.4117 113.409 58.9884 113.359 58.6084 113.259C58.235 113.159 57.9017 113.006 57.6084 112.799L57.8784 111.899C58.0717 112.026 58.2717 112.129 58.4784 112.209C58.685 112.289 58.8984 112.349 59.1184 112.389C59.3384 112.429 59.5617 112.449 59.7884 112.449C60.255 112.449 60.6017 112.333 60.8284 112.099C61.0617 111.873 61.1784 111.546 61.1784 111.119V109.909H61.2784C61.1717 110.256 60.955 110.533 60.6284 110.739C60.3084 110.946 59.9384 111.049 59.5184 111.049C59.065 111.049 58.6684 110.949 58.3284 110.749C57.995 110.543 57.735 110.249 57.5484 109.869C57.3617 109.489 57.2684 109.043 57.2684 108.529C57.2684 108.016 57.3617 107.573 57.5484 107.199C57.735 106.819 57.995 106.529 58.3284 106.329C58.6684 106.123 59.065 106.019 59.5184 106.019C59.945 106.019 60.315 106.123 60.6284 106.329C60.9484 106.529 61.1617 106.803 61.2684 107.149L61.1784 107.089L61.2784 106.119H62.4884C62.4617 106.326 62.4417 106.536 62.4284 106.749C62.415 106.963 62.4084 107.173 62.4084 107.379V110.969C62.4084 111.763 62.1917 112.366 61.7584 112.779C61.3317 113.199 60.705 113.409 59.8784 113.409ZM59.8584 110.089C60.2584 110.089 60.575 109.956 60.8084 109.689C61.0484 109.416 61.1684 109.029 61.1684 108.529C61.1684 108.029 61.0484 107.646 60.8084 107.379C60.575 107.113 60.2584 106.979 59.8584 106.979C59.4517 106.979 59.1284 107.113 58.8884 107.379C58.6484 107.646 58.5284 108.029 58.5284 108.529C58.5284 109.029 58.6484 109.416 58.8884 109.689C59.1284 109.956 59.4517 110.089 59.8584 110.089ZM65.7091 111.269C65.2691 111.269 64.8824 111.166 64.5491 110.959C64.2157 110.746 63.9557 110.443 63.7691 110.049C63.5824 109.656 63.4891 109.186 63.4891 108.639C63.4891 108.093 63.5824 107.626 63.7691 107.239C63.9557 106.846 64.2157 106.546 64.5491 106.339C64.8824 106.126 65.2691 106.019 65.7091 106.019C66.1357 106.019 66.5091 106.126 66.8291 106.339C67.1557 106.546 67.3724 106.826 67.4791 107.179H67.3691L67.4791 106.119H68.6791C68.6591 106.326 68.6391 106.536 68.6191 106.749C68.6057 106.963 68.5991 107.173 68.5991 107.379V111.169H67.3591L67.3491 110.129H67.4691C67.3624 110.476 67.1457 110.753 66.8191 110.959C66.4924 111.166 66.1224 111.269 65.7091 111.269ZM66.0591 110.309C66.4524 110.309 66.7691 110.173 67.0091 109.899C67.2491 109.619 67.3691 109.199 67.3691 108.639C67.3691 108.079 67.2491 107.663 67.0091 107.389C66.7691 107.116 66.4524 106.979 66.0591 106.979C65.6657 106.979 65.3491 107.116 65.1091 107.389C64.8691 107.663 64.7491 108.079 64.7491 108.639C64.7491 109.199 64.8657 109.619 65.0991 109.899C65.3391 110.173 65.6591 110.309 66.0591 110.309ZM69.9502 111.169V107.409C69.9502 107.196 69.9436 106.979 69.9302 106.759C69.9236 106.539 69.9069 106.326 69.8802 106.119H71.0902L71.2302 107.499H71.0302C71.0969 107.166 71.2069 106.889 71.3602 106.669C71.5202 106.449 71.7136 106.286 71.9402 106.179C72.1669 106.073 72.4136 106.019 72.6802 106.019C72.8002 106.019 72.8969 106.026 72.9702 106.039C73.0436 106.046 73.1169 106.063 73.1902 106.089L73.1802 107.189C73.0536 107.136 72.9436 107.103 72.8502 107.089C72.7636 107.076 72.6536 107.069 72.5202 107.069C72.2336 107.069 71.9902 107.129 71.7902 107.249C71.5969 107.369 71.4502 107.536 71.3502 107.749C71.2569 107.963 71.2102 108.206 71.2102 108.479V111.169H69.9502ZM27.5097 124.269C26.9897 124.269 26.5331 124.163 26.1397 123.949C25.7531 123.736 25.4531 123.433 25.2397 123.039C25.0264 122.639 24.9197 122.166 24.9197 121.619C24.9197 121.073 25.0264 120.606 25.2397 120.219C25.4597 119.833 25.7631 119.536 26.1497 119.329C26.5364 119.123 26.9897 119.019 27.5097 119.019C27.8431 119.019 28.1664 119.073 28.4797 119.179C28.7997 119.279 29.0597 119.426 29.2597 119.619L28.8797 120.489C28.6997 120.323 28.4964 120.199 28.2697 120.119C28.0497 120.033 27.8331 119.989 27.6197 119.989C27.1731 119.989 26.8231 120.129 26.5697 120.409C26.3231 120.689 26.1997 121.096 26.1997 121.629C26.1997 122.163 26.3231 122.573 26.5697 122.859C26.8231 123.146 27.1731 123.289 27.6197 123.289C27.8264 123.289 28.0397 123.249 28.2597 123.169C28.4864 123.089 28.6931 122.966 28.8797 122.799L29.2597 123.659C29.0531 123.853 28.7897 124.003 28.4697 124.109C28.1564 124.216 27.8364 124.269 27.5097 124.269ZM32.5711 124.269C31.7245 124.269 31.0611 124.036 30.5811 123.569C30.1011 123.103 29.8611 122.463 29.8611 121.649C29.8611 121.123 29.9645 120.663 30.1711 120.269C30.3778 119.876 30.6645 119.569 31.0311 119.349C31.4045 119.129 31.8378 119.019 32.3311 119.019C32.8178 119.019 33.2245 119.123 33.5511 119.329C33.8778 119.536 34.1245 119.826 34.2911 120.199C34.4645 120.573 34.5511 121.009 34.5511 121.509V121.839H30.8711V121.179H33.6611L33.4911 121.319C33.4911 120.853 33.3911 120.496 33.1911 120.249C32.9978 120.003 32.7145 119.879 32.3411 119.879C31.9278 119.879 31.6078 120.026 31.3811 120.319C31.1611 120.613 31.0511 121.023 31.0511 121.549V121.679C31.0511 122.226 31.1845 122.636 31.4511 122.909C31.7245 123.176 32.1078 123.309 32.6011 123.309C32.8878 123.309 33.1545 123.273 33.4011 123.199C33.6545 123.119 33.8945 122.993 34.1211 122.819L34.4911 123.659C34.2511 123.853 33.9645 124.003 33.6311 124.109C33.2978 124.216 32.9445 124.269 32.5711 124.269ZM35.5997 124.169V120.409C35.5997 120.196 35.593 119.979 35.5797 119.759C35.573 119.539 35.5563 119.326 35.5297 119.119H36.7397L36.8797 120.499H36.6797C36.7463 120.166 36.8563 119.889 37.0097 119.669C37.1697 119.449 37.363 119.286 37.5897 119.179C37.8163 119.073 38.063 119.019 38.3297 119.019C38.4497 119.019 38.5463 119.026 38.6197 119.039C38.693 119.046 38.7663 119.063 38.8397 119.089L38.8297 120.189C38.703 120.136 38.593 120.103 38.4997 120.089C38.413 120.076 38.303 120.069 38.1697 120.069C37.883 120.069 37.6397 120.129 37.4397 120.249C37.2463 120.369 37.0997 120.536 36.9997 120.749C36.9063 120.963 36.8597 121.206 36.8597 121.479V124.169H35.5997ZM41.9786 124.269C41.3786 124.269 40.9253 124.113 40.6186 123.799C40.312 123.486 40.1586 123.016 40.1586 122.389V120.059H39.1886V119.119H40.1586V117.829L41.4086 117.509V119.119H42.7586V120.059H41.4086V122.309C41.4086 122.656 41.4753 122.899 41.6086 123.039C41.742 123.179 41.9253 123.249 42.1586 123.249C42.2853 123.249 42.392 123.239 42.4786 123.219C42.572 123.199 42.662 123.173 42.7486 123.139V124.129C42.6353 124.176 42.5086 124.209 42.3686 124.229C42.2353 124.256 42.1053 124.269 41.9786 124.269ZM43.6077 124.169V119.119H44.8577V124.169H43.6077ZM43.5377 118.169V116.949H44.9277V118.169H43.5377ZM46.5551 124.169V120.059H45.5851V119.119H46.9051L46.5551 119.439V118.669C46.5551 118.043 46.7118 117.569 47.0251 117.249C47.3451 116.929 47.8085 116.769 48.4151 116.769C48.5618 116.769 48.7151 116.779 48.8751 116.799C49.0418 116.819 49.1851 116.856 49.3051 116.909V117.889C49.2185 117.856 49.1151 117.829 48.9951 117.809C48.8751 117.789 48.7585 117.779 48.6451 117.779C48.3851 117.779 48.1785 117.856 48.0251 118.009C47.8718 118.156 47.7951 118.396 47.7951 118.729V119.339L47.6151 119.119H51.1251V124.169H49.8751V120.059H47.8051V124.169H46.5551ZM49.8051 118.169V116.949H51.1951V118.169H49.8051ZM54.8047 124.269C54.2847 124.269 53.828 124.163 53.4347 123.949C53.048 123.736 52.748 123.433 52.5347 123.039C52.3213 122.639 52.2147 122.166 52.2147 121.619C52.2147 121.073 52.3213 120.606 52.5347 120.219C52.7547 119.833 53.058 119.536 53.4447 119.329C53.8313 119.123 54.2847 119.019 54.8047 119.019C55.138 119.019 55.4613 119.073 55.7747 119.179C56.0947 119.279 56.3547 119.426 56.5547 119.619L56.1747 120.489C55.9947 120.323 55.7913 120.199 55.5647 120.119C55.3447 120.033 55.128 119.989 54.9147 119.989C54.468 119.989 54.118 120.129 53.8647 120.409C53.618 120.689 53.4947 121.096 53.4947 121.629C53.4947 122.163 53.618 122.573 53.8647 122.859C54.118 123.146 54.468 123.289 54.9147 123.289C55.1213 123.289 55.3347 123.249 55.5547 123.169C55.7813 123.089 55.988 122.966 56.1747 122.799L56.5547 123.659C56.348 123.853 56.0847 124.003 55.7647 124.109C55.4513 124.216 55.1313 124.269 54.8047 124.269ZM59.4444 124.269C59.0044 124.269 58.6178 124.166 58.2844 123.959C57.9511 123.746 57.6911 123.443 57.5044 123.049C57.3178 122.656 57.2244 122.186 57.2244 121.639C57.2244 121.093 57.3178 120.626 57.5044 120.239C57.6911 119.846 57.9511 119.546 58.2844 119.339C58.6178 119.126 59.0044 119.019 59.4444 119.019C59.8711 119.019 60.2444 119.126 60.5644 119.339C60.8911 119.546 61.1078 119.826 61.2144 120.179H61.1044L61.2144 119.119H62.4144C62.3944 119.326 62.3744 119.536 62.3544 119.749C62.3411 119.963 62.3344 120.173 62.3344 120.379V124.169H61.0944L61.0844 123.129H61.2044C61.0978 123.476 60.8811 123.753 60.5544 123.959C60.2278 124.166 59.8578 124.269 59.4444 124.269ZM59.7944 123.309C60.1878 123.309 60.5044 123.173 60.7444 122.899C60.9844 122.619 61.1044 122.199 61.1044 121.639C61.1044 121.079 60.9844 120.663 60.7444 120.389C60.5044 120.116 60.1878 119.979 59.7944 119.979C59.4011 119.979 59.0844 120.116 58.8444 120.389C58.6044 120.663 58.4844 121.079 58.4844 121.639C58.4844 122.199 58.6011 122.619 58.8344 122.899C59.0744 123.173 59.3944 123.309 59.7944 123.309ZM65.6556 124.269C65.2156 124.269 64.8256 124.166 64.4856 123.959C64.1523 123.746 63.8923 123.443 63.7056 123.049C63.5189 122.656 63.4256 122.186 63.4256 121.639C63.4256 121.093 63.5189 120.626 63.7056 120.239C63.8923 119.846 64.1523 119.546 64.4856 119.339C64.8256 119.126 65.2156 119.019 65.6556 119.019C66.0756 119.019 66.4456 119.123 66.7656 119.329C67.0923 119.529 67.3089 119.803 67.4156 120.149H67.2856V116.809H68.5356V124.169H67.3056V123.099H67.4256C67.3189 123.459 67.1023 123.746 66.7756 123.959C66.4556 124.166 66.0823 124.269 65.6556 124.269ZM66.0056 123.309C66.3989 123.309 66.7156 123.173 66.9556 122.899C67.1956 122.619 67.3156 122.199 67.3156 121.639C67.3156 121.079 67.1956 120.663 66.9556 120.389C66.7156 120.116 66.3989 119.979 66.0056 119.979C65.6123 119.979 65.2923 120.116 65.0456 120.389C64.8056 120.663 64.6856 121.079 64.6856 121.639C64.6856 122.199 64.8056 122.619 65.0456 122.899C65.2923 123.173 65.6123 123.309 66.0056 123.309ZM72.1768 124.269C71.6568 124.269 71.2068 124.163 70.8268 123.949C70.4468 123.736 70.1501 123.433 69.9368 123.039C69.7301 122.646 69.6268 122.179 69.6268 121.639C69.6268 121.099 69.7301 120.636 69.9368 120.249C70.1501 119.856 70.4468 119.553 70.8268 119.339C71.2068 119.126 71.6568 119.019 72.1768 119.019C72.6968 119.019 73.1468 119.126 73.5268 119.339C73.9134 119.553 74.2101 119.856 74.4168 120.249C74.6301 120.636 74.7368 121.099 74.7368 121.639C74.7368 122.179 74.6301 122.646 74.4168 123.039C74.2101 123.433 73.9134 123.736 73.5268 123.949C73.1468 124.163 72.6968 124.269 72.1768 124.269ZM72.1768 123.309C72.5701 123.309 72.8834 123.173 73.1168 122.899C73.3501 122.619 73.4668 122.199 73.4668 121.639C73.4668 121.079 73.3501 120.663 73.1168 120.389C72.8834 120.116 72.5701 119.979 72.1768 119.979C71.7834 119.979 71.4701 120.116 71.2368 120.389C71.0034 120.663 70.8868 121.079 70.8868 121.639C70.8868 122.199 71.0034 122.619 71.2368 122.899C71.4701 123.173 71.7834 123.309 72.1768 123.309Z" fill="white"/>
<path d="M52.779 64.5433C52.779 66.7988 51.841 68.1278 50.0584 68.1278H48.7259V61.3439H50.0727C51.9376 61.3439 52.779 62.6776 52.779 64.5417V64.5433ZM77.0833 56.5771V73.698C77.0817 74.6939 76.7268 75.6583 76.0787 76.4191C75.4323 77.1799 74.537 77.6881 73.5499 77.8539V84.3679C73.5499 85.7379 73.0017 87.0528 72.0272 88.0219C71.0544 88.991 69.7361 89.5356 68.3592 89.5387H30.815C29.4396 89.5371 28.1198 88.9926 27.1469 88.0219C26.174 87.0528 25.6274 85.7395 25.6242 84.3679V77.8539C24.6371 77.6881 23.7418 77.1799 23.0954 76.4191C22.4489 75.6583 22.094 74.6939 22.0908 73.698V56.5755C22.0924 55.5796 22.4473 54.6152 23.0954 53.8544C23.7418 53.0936 24.6371 52.5854 25.6242 52.4196V24.7914C25.6274 22.891 26.3848 21.0695 27.7347 19.7263C29.0831 18.3831 30.9116 17.6271 32.8193 17.6255H56.409C56.409 17.6255 56.4217 17.6271 56.428 17.6271C56.4819 17.6271 56.5374 17.6334 56.5897 17.6429H56.5928C56.6451 17.6539 56.6958 17.6697 56.7449 17.6886C56.7592 17.6949 56.7735 17.7013 56.7877 17.7076C56.8242 17.7233 56.8606 17.7423 56.8955 17.7644C56.9081 17.7723 56.9224 17.7802 56.9351 17.7896C56.981 17.8212 57.0238 17.8559 57.0618 17.8938L73.279 34.0487C73.3186 34.0881 73.3518 34.1308 73.3835 34.1765C73.3915 34.1892 73.401 34.2018 73.4089 34.216C73.4311 34.2507 73.4501 34.287 73.4659 34.3233C73.4723 34.3375 73.4786 34.3517 73.4849 34.3659C73.504 34.4149 73.5198 34.467 73.5309 34.5175V34.5206C73.542 34.5743 73.5467 34.628 73.5483 34.6832C73.5483 34.6895 73.5499 34.6958 73.5499 34.7021V52.4212C74.537 52.5869 75.4323 53.0952 76.0787 53.856C76.7252 54.6167 77.0801 55.5811 77.0833 56.5771ZM57.3344 33.7819H70.392L57.3344 20.7744V33.7819ZM71.7008 77.9139H27.4765V84.3695C27.4765 85.2518 27.8298 86.0962 28.4557 86.7197C29.0815 87.3432 29.9308 87.6936 30.8165 87.6952H68.3623C69.248 87.6952 70.0973 87.3432 70.7216 86.7197C71.3475 86.0962 71.7008 85.2502 71.7008 84.3695V77.9139ZM39.9431 69.7409V65.8707H41.423C43.6096 65.8707 45.1513 64.7958 45.1513 62.7108C45.1513 60.6257 43.4924 59.7118 41.5973 59.7118H37.8896V69.7425H39.9447L39.9431 69.7409ZM50.0806 69.7409C53.1339 69.7409 54.9022 67.7742 54.9022 64.5133C54.9022 61.5759 53.2211 59.7102 50.1614 59.7102H46.6629V69.7409H50.0822H50.0806ZM58.7113 63.9403V61.4007H63.151V59.7102H56.699V69.7409H58.7129V65.6055H62.8816V63.9419H58.7129L58.7113 63.9403ZM71.7008 35.6255H56.409C55.8972 35.6255 55.4837 35.212 55.4837 34.7037V19.4706H32.8193C31.4028 19.4706 30.0433 20.0341 29.0419 21.0317C28.0405 22.0292 27.4765 23.3835 27.4749 24.7946V52.3644H71.6992V35.6255H71.7008ZM43.0677 62.7502C43.0677 61.7479 42.3642 61.3344 41.3565 61.3344H39.9447V64.2576H41.2947C42.3896 64.2576 43.0677 63.8519 43.0677 62.7502Z" fill="#CC542D"/>
<path d="M55.6716 44.26C55.4778 44.2602 55.292 44.3374 55.1549 44.4743C55.018 44.6114 54.9408 44.7972 54.9406 44.9909V46.7457C54.9403 46.862 54.8939 46.9733 54.8117 47.0555C54.7295 47.1377 54.6182 47.1841 54.5019 47.1844H45.1431C45.0268 47.1841 44.9155 47.1377 44.8332 47.0555C44.751 46.9733 44.7046 46.862 44.7044 46.7457V44.9909C44.7044 44.7297 44.565 44.4883 44.3389 44.3577C44.1128 44.2271 43.834 44.2271 43.6077 44.3577C43.3816 44.4883 43.2422 44.7297 43.2422 44.9909V46.7457C43.2427 47.2495 43.4432 47.7328 43.7997 48.0891C44.1562 48.4455 44.6392 48.6461 45.1431 48.6466H54.5019C55.0058 48.6461 55.4891 48.4455 55.8453 48.0891C56.2017 47.7328 56.4023 47.2495 56.4028 46.7457V44.9909C56.4025 44.7972 56.3253 44.6114 56.1885 44.4743C56.0513 44.3374 55.8656 44.2602 55.6718 44.26H55.6716Z" fill="#CC542D"/>
<path d="M49.8227 35.4863C49.629 35.4865 49.4432 35.5637 49.3061 35.7006C49.169 35.8377 49.0918 36.0235 49.0915 36.2172V42.8452L46.7813 40.9202C46.6321 40.7964 46.4401 40.7367 46.2471 40.7543C46.054 40.7718 45.8758 40.8653 45.7517 41.014C45.6276 41.1631 45.568 41.3549 45.5855 41.5482C45.6031 41.7412 45.6966 41.9192 45.8452 42.0435L49.3547 44.9682C49.3916 44.9942 49.4309 45.017 49.4718 45.0361C49.4986 45.0539 49.5264 45.0699 49.5555 45.084C49.726 45.1557 49.918 45.1557 50.0885 45.084C50.1165 45.0699 50.1441 45.0541 50.1704 45.0366C50.2113 45.0175 50.2506 44.9947 50.2875 44.9687L53.797 42.044C53.9517 41.9152 54.0467 41.7284 54.0592 41.5276C54.0717 41.3266 54.001 41.1295 53.8634 40.9824C53.726 40.8355 53.534 40.7515 53.3325 40.7508C53.1615 40.751 52.9961 40.8112 52.8645 40.9205L50.5542 42.8454V36.2175C50.554 36.0237 50.4768 35.8377 50.3396 35.7008C50.2025 35.5637 50.0165 35.4865 49.8227 35.4863Z" fill="#CC542D"/>
</svg>
