<svg width="100" height="131" viewBox="0 0 100 131" fill="none" xmlns="http://www.w3.org/2000/svg">
<rect width="100" height="131" rx="12" fill="#CC542D"/>
<rect x="0.5" y="10.6051" width="98.6445" height="86.4239" fill="white" stroke="#CC542D"/>
<path d="M25.8464 111.169V104.119H28.4064C29.213 104.119 29.893 104.259 30.4464 104.539C31.0064 104.813 31.4297 105.213 31.7164 105.739C32.003 106.259 32.1464 106.893 32.1464 107.639C32.1464 108.379 32.003 109.013 31.7164 109.539C31.4297 110.066 31.0064 110.469 30.4464 110.749C29.893 111.029 29.213 111.169 28.4064 111.169H25.8464ZM27.1364 110.099H28.3264C29.1797 110.099 29.813 109.896 30.2264 109.489C30.6397 109.083 30.8464 108.466 30.8464 107.639C30.8464 106.806 30.6397 106.189 30.2264 105.789C29.813 105.383 29.1797 105.179 28.3264 105.179H27.1364V110.099ZM35.8036 111.269C34.9569 111.269 34.2936 111.036 33.8136 110.569C33.3336 110.103 33.0936 109.463 33.0936 108.649C33.0936 108.123 33.1969 107.663 33.4036 107.269C33.6102 106.876 33.8969 106.569 34.2636 106.349C34.6369 106.129 35.0702 106.019 35.5636 106.019C36.0502 106.019 36.4569 106.123 36.7836 106.329C37.1102 106.536 37.3569 106.826 37.5236 107.199C37.6969 107.573 37.7836 108.009 37.7836 108.509V108.839H34.1036V108.179H36.8936L36.7236 108.319C36.7236 107.853 36.6236 107.496 36.4236 107.249C36.2302 107.003 35.9469 106.879 35.5736 106.879C35.1602 106.879 34.8402 107.026 34.6136 107.319C34.3936 107.613 34.2836 108.023 34.2836 108.549V108.679C34.2836 109.226 34.4169 109.636 34.6836 109.909C34.9569 110.176 35.3402 110.309 35.8336 110.309C36.1202 110.309 36.3869 110.273 36.6336 110.199C36.8869 110.119 37.1269 109.993 37.3536 109.819L37.7236 110.659C37.4836 110.853 37.1969 111.003 36.8636 111.109C36.5302 111.216 36.1769 111.269 35.8036 111.269ZM40.6421 111.269C40.2087 111.269 39.8087 111.219 39.4421 111.119C39.0821 111.013 38.7787 110.866 38.5321 110.679L38.8821 109.839C39.1354 110.013 39.4154 110.146 39.7221 110.239C40.0287 110.333 40.3387 110.379 40.6521 110.379C40.9854 110.379 41.2321 110.323 41.3921 110.209C41.5587 110.096 41.6421 109.943 41.6421 109.749C41.6421 109.596 41.5887 109.476 41.4821 109.389C41.3821 109.296 41.2187 109.226 40.9921 109.179L39.9921 108.989C39.5654 108.896 39.2387 108.736 39.0121 108.509C38.7921 108.283 38.6821 107.986 38.6821 107.619C38.6821 107.306 38.7654 107.029 38.9321 106.789C39.1054 106.549 39.3487 106.363 39.6621 106.229C39.9821 106.089 40.3554 106.019 40.7821 106.019C41.1554 106.019 41.5054 106.069 41.8321 106.169C42.1654 106.269 42.4454 106.419 42.6721 106.619L42.3121 107.429C42.1054 107.263 41.8687 107.133 41.6021 107.039C41.3354 106.946 41.0754 106.899 40.8221 106.899C40.4754 106.899 40.2221 106.963 40.0621 107.089C39.9021 107.209 39.8221 107.366 39.8221 107.559C39.8221 107.706 39.8687 107.829 39.9621 107.929C40.0621 108.023 40.2154 108.093 40.4221 108.139L41.4221 108.329C41.8687 108.416 42.2054 108.569 42.4321 108.789C42.6654 109.003 42.7821 109.296 42.7821 109.669C42.7821 110.003 42.6921 110.289 42.5121 110.529C42.3321 110.769 42.0821 110.953 41.7621 111.079C41.4421 111.206 41.0687 111.269 40.6421 111.269ZM46.1718 111.269C45.6518 111.269 45.1952 111.163 44.8018 110.949C44.4152 110.736 44.1152 110.433 43.9018 110.039C43.6885 109.639 43.5818 109.166 43.5818 108.619C43.5818 108.073 43.6885 107.606 43.9018 107.219C44.1218 106.833 44.4252 106.536 44.8118 106.329C45.1985 106.123 45.6518 106.019 46.1718 106.019C46.5052 106.019 46.8285 106.073 47.1418 106.179C47.4618 106.279 47.7218 106.426 47.9218 106.619L47.5418 107.489C47.3618 107.323 47.1585 107.199 46.9318 107.119C46.7118 107.033 46.4952 106.989 46.2818 106.989C45.8352 106.989 45.4852 107.129 45.2318 107.409C44.9852 107.689 44.8618 108.096 44.8618 108.629C44.8618 109.163 44.9852 109.573 45.2318 109.859C45.4852 110.146 45.8352 110.289 46.2818 110.289C46.4885 110.289 46.7018 110.249 46.9218 110.169C47.1485 110.089 47.3552 109.966 47.5418 109.799L47.9218 110.659C47.7152 110.853 47.4518 111.003 47.1318 111.109C46.8185 111.216 46.4985 111.269 46.1718 111.269ZM50.8116 111.269C50.3716 111.269 49.9849 111.166 49.6516 110.959C49.3183 110.746 49.0583 110.443 48.8716 110.049C48.6849 109.656 48.5916 109.186 48.5916 108.639C48.5916 108.093 48.6849 107.626 48.8716 107.239C49.0583 106.846 49.3183 106.546 49.6516 106.339C49.9849 106.126 50.3716 106.019 50.8116 106.019C51.2383 106.019 51.6116 106.126 51.9316 106.339C52.2583 106.546 52.4749 106.826 52.5816 107.179H52.4716L52.5816 106.119H53.7816C53.7616 106.326 53.7416 106.536 53.7216 106.749C53.7083 106.963 53.7016 107.173 53.7016 107.379V111.169H52.4616L52.4516 110.129H52.5716C52.4649 110.476 52.2483 110.753 51.9216 110.959C51.5949 111.166 51.2249 111.269 50.8116 111.269ZM51.1616 110.309C51.5549 110.309 51.8716 110.173 52.1116 109.899C52.3516 109.619 52.4716 109.199 52.4716 108.639C52.4716 108.079 52.3516 107.663 52.1116 107.389C51.8716 107.116 51.5549 106.979 51.1616 106.979C50.7683 106.979 50.4516 107.116 50.2116 107.389C49.9716 107.663 49.8516 108.079 49.8516 108.639C49.8516 109.199 49.9683 109.619 50.2016 109.899C50.4416 110.173 50.7616 110.309 51.1616 110.309ZM55.0528 111.169V107.409C55.0528 107.196 55.0461 106.979 55.0328 106.759C55.0261 106.539 55.0095 106.326 54.9828 106.119H56.1928L56.3328 107.499H56.1328C56.1995 107.166 56.3095 106.889 56.4628 106.669C56.6228 106.449 56.8161 106.286 57.0428 106.179C57.2695 106.073 57.5161 106.019 57.7828 106.019C57.9028 106.019 57.9995 106.026 58.0728 106.039C58.1461 106.046 58.2195 106.063 58.2928 106.089L58.2828 107.189C58.1561 107.136 58.0461 107.103 57.9528 107.089C57.8661 107.076 57.7561 107.069 57.6228 107.069C57.3361 107.069 57.0928 107.129 56.8928 107.249C56.6995 107.369 56.5528 107.536 56.4528 107.749C56.3595 107.963 56.3128 108.206 56.3128 108.479V111.169H55.0528ZM61.2504 113.409C60.7838 113.409 60.3604 113.359 59.9804 113.259C59.6071 113.159 59.2738 113.006 58.9804 112.799L59.2504 111.899C59.4438 112.026 59.6438 112.129 59.8504 112.209C60.0571 112.289 60.2704 112.349 60.4904 112.389C60.7104 112.429 60.9338 112.449 61.1604 112.449C61.6271 112.449 61.9738 112.333 62.2004 112.099C62.4338 111.873 62.5504 111.546 62.5504 111.119V109.909H62.6504C62.5438 110.256 62.3271 110.533 62.0004 110.739C61.6804 110.946 61.3104 111.049 60.8904 111.049C60.4371 111.049 60.0404 110.949 59.7004 110.749C59.3671 110.543 59.1071 110.249 58.9204 109.869C58.7338 109.489 58.6404 109.043 58.6404 108.529C58.6404 108.016 58.7338 107.573 58.9204 107.199C59.1071 106.819 59.3671 106.529 59.7004 106.329C60.0404 106.123 60.4371 106.019 60.8904 106.019C61.3171 106.019 61.6871 106.123 62.0004 106.329C62.3204 106.529 62.5338 106.803 62.6404 107.149L62.5504 107.089L62.6504 106.119H63.8604C63.8338 106.326 63.8138 106.536 63.8004 106.749C63.7871 106.963 63.7804 107.173 63.7804 107.379V110.969C63.7804 111.763 63.5638 112.366 63.1304 112.779C62.7038 113.199 62.0771 113.409 61.2504 113.409ZM61.2304 110.089C61.6304 110.089 61.9471 109.956 62.1804 109.689C62.4204 109.416 62.5404 109.029 62.5404 108.529C62.5404 108.029 62.4204 107.646 62.1804 107.379C61.9471 107.113 61.6304 106.979 61.2304 106.979C60.8238 106.979 60.5004 107.113 60.2604 107.379C60.0204 107.646 59.9004 108.029 59.9004 108.529C59.9004 109.029 60.0204 109.416 60.2604 109.689C60.5004 109.956 60.8238 110.089 61.2304 110.089ZM67.0811 111.269C66.6411 111.269 66.2545 111.166 65.9211 110.959C65.5878 110.746 65.3278 110.443 65.1411 110.049C64.9545 109.656 64.8611 109.186 64.8611 108.639C64.8611 108.093 64.9545 107.626 65.1411 107.239C65.3278 106.846 65.5878 106.546 65.9211 106.339C66.2545 106.126 66.6411 106.019 67.0811 106.019C67.5078 106.019 67.8811 106.126 68.2011 106.339C68.5278 106.546 68.7445 106.826 68.8511 107.179H68.7411L68.8511 106.119H70.0511C70.0311 106.326 70.0111 106.536 69.9911 106.749C69.9778 106.963 69.9711 107.173 69.9711 107.379V111.169H68.7311L68.7211 110.129H68.8411C68.7345 110.476 68.5178 110.753 68.1911 110.959C67.8645 111.166 67.4945 111.269 67.0811 111.269ZM67.4311 110.309C67.8245 110.309 68.1411 110.173 68.3811 109.899C68.6211 109.619 68.7411 109.199 68.7411 108.639C68.7411 108.079 68.6211 107.663 68.3811 107.389C68.1411 107.116 67.8245 106.979 67.4311 106.979C67.0378 106.979 66.7211 107.116 66.4811 107.389C66.2411 107.663 66.1211 108.079 66.1211 108.639C66.1211 109.199 66.2378 109.619 66.4711 109.899C66.7111 110.173 67.0311 110.309 67.4311 110.309ZM71.3223 111.169V107.409C71.3223 107.196 71.3156 106.979 71.3023 106.759C71.2956 106.539 71.279 106.326 71.2523 106.119H72.4623L72.6023 107.499H72.4023C72.469 107.166 72.579 106.889 72.7323 106.669C72.8923 106.449 73.0856 106.286 73.3123 106.179C73.539 106.073 73.7856 106.019 74.0523 106.019C74.1723 106.019 74.269 106.026 74.3423 106.039C74.4156 106.046 74.489 106.063 74.5623 106.089L74.5523 107.189C74.4256 107.136 74.3156 107.103 74.2223 107.089C74.1356 107.076 74.0256 107.069 73.8923 107.069C73.6056 107.069 73.3623 107.129 73.1623 107.249C72.969 107.369 72.8223 107.536 72.7223 107.749C72.629 107.963 72.5823 108.206 72.5823 108.479V111.169H71.3223ZM21.3041 124.269C20.5708 124.269 19.9408 124.123 19.4141 123.829C18.8941 123.529 18.4941 123.109 18.2141 122.569C17.9341 122.023 17.7941 121.379 17.7941 120.639C17.7941 119.899 17.9341 119.259 18.2141 118.719C18.4941 118.179 18.8941 117.763 19.4141 117.469C19.9408 117.169 20.5708 117.019 21.3041 117.019C21.7974 117.019 22.2408 117.089 22.6341 117.229C23.0341 117.369 23.3774 117.576 23.6641 117.849L23.2441 118.869C22.9308 118.616 22.6274 118.436 22.3341 118.329C22.0474 118.216 21.7174 118.159 21.3441 118.159C20.6308 118.159 20.0841 118.376 19.7041 118.809C19.3308 119.236 19.1441 119.846 19.1441 120.639C19.1441 121.433 19.3308 122.046 19.7041 122.479C20.0841 122.913 20.6308 123.129 21.3441 123.129C21.7174 123.129 22.0474 123.076 22.3341 122.969C22.6274 122.856 22.9308 122.669 23.2441 122.409L23.6641 123.429C23.3774 123.696 23.0341 123.903 22.6341 124.049C22.2408 124.196 21.7974 124.269 21.3041 124.269ZM26.6983 124.269C26.1783 124.269 25.7283 124.163 25.3483 123.949C24.9683 123.736 24.6716 123.433 24.4583 123.039C24.2516 122.646 24.1483 122.179 24.1483 121.639C24.1483 121.099 24.2516 120.636 24.4583 120.249C24.6716 119.856 24.9683 119.553 25.3483 119.339C25.7283 119.126 26.1783 119.019 26.6983 119.019C27.2183 119.019 27.6683 119.126 28.0483 119.339C28.4349 119.553 28.7316 119.856 28.9383 120.249C29.1516 120.636 29.2583 121.099 29.2583 121.639C29.2583 122.179 29.1516 122.646 28.9383 123.039C28.7316 123.433 28.4349 123.736 28.0483 123.949C27.6683 124.163 27.2183 124.269 26.6983 124.269ZM26.6983 123.309C27.0916 123.309 27.4049 123.173 27.6383 122.899C27.8716 122.619 27.9883 122.199 27.9883 121.639C27.9883 121.079 27.8716 120.663 27.6383 120.389C27.4049 120.116 27.0916 119.979 26.6983 119.979C26.3049 119.979 25.9916 120.116 25.7583 120.389C25.5249 120.663 25.4083 121.079 25.4083 121.639C25.4083 122.199 25.5249 122.619 25.7583 122.899C25.9916 123.173 26.3049 123.309 26.6983 123.309ZM30.3362 124.169V120.379C30.3362 120.173 30.3296 119.963 30.3162 119.749C30.3029 119.536 30.2829 119.326 30.2562 119.119H31.4662L31.5662 120.119H31.4462C31.6062 119.766 31.8429 119.496 32.1562 119.309C32.4696 119.116 32.8329 119.019 33.2462 119.019C33.8396 119.019 34.2862 119.186 34.5862 119.519C34.8862 119.853 35.0362 120.373 35.0362 121.079V124.169H33.7862V121.139C33.7862 120.733 33.7062 120.443 33.5462 120.269C33.3929 120.089 33.1596 119.999 32.8462 119.999C32.4596 119.999 32.1529 120.119 31.9262 120.359C31.6996 120.599 31.5862 120.919 31.5862 121.319V124.169H30.3362ZM38.3216 124.269C37.8816 124.269 37.4916 124.166 37.1516 123.959C36.8183 123.746 36.5583 123.443 36.3716 123.049C36.1849 122.656 36.0916 122.186 36.0916 121.639C36.0916 121.093 36.1849 120.626 36.3716 120.239C36.5583 119.846 36.8183 119.546 37.1516 119.339C37.4916 119.126 37.8816 119.019 38.3216 119.019C38.7416 119.019 39.1116 119.123 39.4316 119.329C39.7583 119.529 39.9749 119.803 40.0816 120.149H39.9516V116.809H41.2016V124.169H39.9716V123.099H40.0916C39.9849 123.459 39.7683 123.746 39.4416 123.959C39.1216 124.166 38.7483 124.269 38.3216 124.269ZM38.6716 123.309C39.0649 123.309 39.3816 123.173 39.6216 122.899C39.8616 122.619 39.9816 122.199 39.9816 121.639C39.9816 121.079 39.8616 120.663 39.6216 120.389C39.3816 120.116 39.0649 119.979 38.6716 119.979C38.2783 119.979 37.9583 120.116 37.7116 120.389C37.4716 120.663 37.3516 121.079 37.3516 121.639C37.3516 122.199 37.4716 122.619 37.7116 122.899C37.9583 123.173 38.2783 123.309 38.6716 123.309ZM42.5628 124.169V119.119H43.8128V124.169H42.5628ZM42.4928 118.169V116.949H43.8828V118.169H42.4928ZM47.4902 124.269C46.9702 124.269 46.5135 124.163 46.1202 123.949C45.7335 123.736 45.4335 123.433 45.2202 123.039C45.0069 122.639 44.9002 122.166 44.9002 121.619C44.9002 121.073 45.0069 120.606 45.2202 120.219C45.4402 119.833 45.7435 119.536 46.1302 119.329C46.5169 119.123 46.9702 119.019 47.4902 119.019C47.8235 119.019 48.1469 119.073 48.4602 119.179C48.7802 119.279 49.0402 119.426 49.2402 119.619L48.8602 120.489C48.6802 120.323 48.4769 120.199 48.2502 120.119C48.0302 120.033 47.8135 119.989 47.6002 119.989C47.1535 119.989 46.8035 120.129 46.5502 120.409C46.3035 120.689 46.1802 121.096 46.1802 121.629C46.1802 122.163 46.3035 122.573 46.5502 122.859C46.8035 123.146 47.1535 123.289 47.6002 123.289C47.8069 123.289 48.0202 123.249 48.2402 123.169C48.4669 123.089 48.6735 122.966 48.8602 122.799L49.2402 123.659C49.0335 123.853 48.7702 124.003 48.4502 124.109C48.1369 124.216 47.8169 124.269 47.4902 124.269ZM50.2093 124.169V119.119H51.4593V124.169H50.2093ZM50.1393 118.169V116.949H51.5293V118.169H50.1393ZM55.0967 124.269C54.5767 124.269 54.1267 124.163 53.7467 123.949C53.3667 123.736 53.07 123.433 52.8567 123.039C52.65 122.646 52.5467 122.179 52.5467 121.639C52.5467 121.099 52.65 120.636 52.8567 120.249C53.07 119.856 53.3667 119.553 53.7467 119.339C54.1267 119.126 54.5767 119.019 55.0967 119.019C55.6167 119.019 56.0667 119.126 56.4467 119.339C56.8334 119.553 57.13 119.856 57.3367 120.249C57.55 120.636 57.6567 121.099 57.6567 121.639C57.6567 122.179 57.55 122.646 57.3367 123.039C57.13 123.433 56.8334 123.736 56.4467 123.949C56.0667 124.163 55.6167 124.269 55.0967 124.269ZM55.0967 123.309C55.49 123.309 55.8034 123.173 56.0367 122.899C56.27 122.619 56.3867 122.199 56.3867 121.639C56.3867 121.079 56.27 120.663 56.0367 120.389C55.8034 120.116 55.49 119.979 55.0967 119.979C54.7034 119.979 54.39 120.116 54.1567 120.389C53.9234 120.663 53.8067 121.079 53.8067 121.639C53.8067 122.199 53.9234 122.619 54.1567 122.899C54.39 123.173 54.7034 123.309 55.0967 123.309ZM58.7347 124.169V120.379C58.7347 120.173 58.728 119.963 58.7147 119.749C58.7013 119.536 58.6813 119.326 58.6547 119.119H59.8647L59.9647 120.119H59.8447C60.0047 119.766 60.2413 119.496 60.5547 119.309C60.868 119.116 61.2313 119.019 61.6447 119.019C62.238 119.019 62.6847 119.186 62.9847 119.519C63.2847 119.853 63.4347 120.373 63.4347 121.079V124.169H62.1847V121.139C62.1847 120.733 62.1047 120.443 61.9447 120.269C61.7913 120.089 61.558 119.999 61.2447 119.999C60.858 119.999 60.5513 120.119 60.3247 120.359C60.098 120.599 59.9847 120.919 59.9847 121.319V124.169H58.7347ZM66.71 124.269C66.27 124.269 65.8834 124.166 65.55 123.959C65.2167 123.746 64.9567 123.443 64.77 123.049C64.5834 122.656 64.49 122.186 64.49 121.639C64.49 121.093 64.5834 120.626 64.77 120.239C64.9567 119.846 65.2167 119.546 65.55 119.339C65.8834 119.126 66.27 119.019 66.71 119.019C67.1367 119.019 67.51 119.126 67.83 119.339C68.1567 119.546 68.3734 119.826 68.48 120.179H68.37L68.48 119.119H69.68C69.66 119.326 69.64 119.536 69.62 119.749C69.6067 119.963 69.6 120.173 69.6 120.379V124.169H68.36L68.35 123.129H68.47C68.3634 123.476 68.1467 123.753 67.82 123.959C67.4934 124.166 67.1234 124.269 66.71 124.269ZM67.06 123.309C67.4534 123.309 67.77 123.173 68.01 122.899C68.25 122.619 68.37 122.199 68.37 121.639C68.37 121.079 68.25 120.663 68.01 120.389C67.77 120.116 67.4534 119.979 67.06 119.979C66.6667 119.979 66.35 120.116 66.11 120.389C65.87 120.663 65.75 121.079 65.75 121.639C65.75 122.199 65.8667 122.619 66.1 122.899C66.34 123.173 66.66 123.309 67.06 123.309ZM72.9212 124.269C72.4812 124.269 72.0912 124.166 71.7512 123.959C71.4179 123.746 71.1579 123.443 70.9712 123.049C70.7846 122.656 70.6912 122.186 70.6912 121.639C70.6912 121.093 70.7846 120.626 70.9712 120.239C71.1579 119.846 71.4179 119.546 71.7512 119.339C72.0912 119.126 72.4812 119.019 72.9212 119.019C73.3412 119.019 73.7112 119.123 74.0312 119.329C74.3579 119.529 74.5746 119.803 74.6812 120.149H74.5512V116.809H75.8012V124.169H74.5712V123.099H74.6912C74.5846 123.459 74.3679 123.746 74.0412 123.959C73.7212 124.166 73.3479 124.269 72.9212 124.269ZM73.2712 123.309C73.6646 123.309 73.9812 123.173 74.2212 122.899C74.4612 122.619 74.5812 122.199 74.5812 121.639C74.5812 121.079 74.4612 120.663 74.2212 120.389C73.9812 120.116 73.6646 119.979 73.2712 119.979C72.8779 119.979 72.5579 120.116 72.3112 120.389C72.0712 120.663 71.9512 121.079 71.9512 121.639C71.9512 122.199 72.0712 122.619 72.3112 122.899C72.5579 123.173 72.8779 123.309 73.2712 123.309ZM79.4424 124.269C78.9224 124.269 78.4724 124.163 78.0924 123.949C77.7124 123.736 77.4157 123.433 77.2024 123.039C76.9957 122.646 76.8924 122.179 76.8924 121.639C76.8924 121.099 76.9957 120.636 77.2024 120.249C77.4157 119.856 77.7124 119.553 78.0924 119.339C78.4724 119.126 78.9224 119.019 79.4424 119.019C79.9624 119.019 80.4124 119.126 80.7924 119.339C81.1791 119.553 81.4757 119.856 81.6824 120.249C81.8957 120.636 82.0024 121.099 82.0024 121.639C82.0024 122.179 81.8957 122.646 81.6824 123.039C81.4757 123.433 81.1791 123.736 80.7924 123.949C80.4124 124.163 79.9624 124.269 79.4424 124.269ZM79.4424 123.309C79.8357 123.309 80.1491 123.173 80.3824 122.899C80.6157 122.619 80.7324 122.199 80.7324 121.639C80.7324 121.079 80.6157 120.663 80.3824 120.389C80.1491 120.116 79.8357 119.979 79.4424 119.979C79.0491 119.979 78.7357 120.116 78.5024 120.389C78.2691 120.663 78.1524 121.079 78.1524 121.639C78.1524 122.199 78.2691 122.619 78.5024 122.899C78.7357 123.173 79.0491 123.309 79.4424 123.309Z" fill="white"/>
<path d="M52.779 64.5433C52.779 66.7988 51.841 68.1278 50.0584 68.1278H48.7259V61.3439H50.0727C51.9376 61.3439 52.779 62.6776 52.779 64.5417V64.5433ZM77.0833 56.5771V73.698C77.0817 74.6939 76.7268 75.6583 76.0787 76.4191C75.4323 77.1799 74.537 77.6881 73.5499 77.8539V84.3679C73.5499 85.7379 73.0017 87.0528 72.0272 88.0219C71.0544 88.991 69.7361 89.5356 68.3592 89.5387H30.815C29.4396 89.5371 28.1198 88.9926 27.1469 88.0219C26.174 87.0528 25.6274 85.7395 25.6242 84.3679V77.8539C24.6371 77.6881 23.7418 77.1799 23.0954 76.4191C22.4489 75.6583 22.094 74.6939 22.0908 73.698V56.5755C22.0924 55.5796 22.4473 54.6152 23.0954 53.8544C23.7418 53.0936 24.6371 52.5854 25.6242 52.4196V24.7914C25.6274 22.891 26.3848 21.0695 27.7347 19.7263C29.0831 18.3831 30.9116 17.6271 32.8193 17.6255H56.409C56.409 17.6255 56.4217 17.6271 56.428 17.6271C56.4819 17.6271 56.5374 17.6334 56.5897 17.6429H56.5928C56.6451 17.6539 56.6958 17.6697 56.7449 17.6886C56.7592 17.6949 56.7735 17.7013 56.7877 17.7076C56.8242 17.7233 56.8606 17.7423 56.8955 17.7644C56.9081 17.7723 56.9224 17.7802 56.9351 17.7896C56.981 17.8212 57.0238 17.8559 57.0618 17.8938L73.279 34.0487C73.3186 34.0881 73.3518 34.1308 73.3835 34.1765C73.3915 34.1892 73.401 34.2018 73.4089 34.216C73.4311 34.2507 73.4501 34.287 73.4659 34.3233C73.4723 34.3375 73.4786 34.3517 73.4849 34.3659C73.504 34.4149 73.5198 34.467 73.5309 34.5175V34.5206C73.542 34.5743 73.5467 34.628 73.5483 34.6832C73.5483 34.6895 73.5499 34.6958 73.5499 34.7021V52.4212C74.537 52.5869 75.4323 53.0952 76.0787 53.856C76.7252 54.6167 77.0801 55.5811 77.0833 56.5771ZM57.3344 33.7819H70.392L57.3344 20.7744V33.7819ZM71.7008 77.9139H27.4765V84.3695C27.4765 85.2518 27.8298 86.0962 28.4557 86.7197C29.0815 87.3432 29.9308 87.6936 30.8165 87.6952H68.3623C69.248 87.6952 70.0973 87.3432 70.7216 86.7197C71.3475 86.0962 71.7008 85.2502 71.7008 84.3695V77.9139ZM39.9431 69.7409V65.8707H41.423C43.6096 65.8707 45.1513 64.7958 45.1513 62.7108C45.1513 60.6257 43.4924 59.7118 41.5973 59.7118H37.8896V69.7425H39.9447L39.9431 69.7409ZM50.0806 69.7409C53.1339 69.7409 54.9022 67.7742 54.9022 64.5133C54.9022 61.5759 53.2211 59.7102 50.1614 59.7102H46.6629V69.7409H50.0822H50.0806ZM58.7113 63.9403V61.4007H63.151V59.7102H56.699V69.7409H58.7129V65.6055H62.8816V63.9419H58.7129L58.7113 63.9403ZM71.7008 35.6255H56.409C55.8972 35.6255 55.4837 35.212 55.4837 34.7037V19.4706H32.8193C31.4028 19.4706 30.0433 20.0341 29.0419 21.0317C28.0405 22.0292 27.4765 23.3835 27.4749 24.7946V52.3644H71.6992V35.6255H71.7008ZM43.0677 62.7502C43.0677 61.7479 42.3642 61.3344 41.3565 61.3344H39.9447V64.2576H41.2947C42.3896 64.2576 43.0677 63.8519 43.0677 62.7502Z" fill="#CC542D"/>
<path d="M55.6716 44.26C55.4778 44.2602 55.292 44.3374 55.1549 44.4743C55.018 44.6114 54.9408 44.7972 54.9406 44.9909V46.7457C54.9403 46.862 54.8939 46.9733 54.8117 47.0555C54.7295 47.1377 54.6182 47.1841 54.5019 47.1844H45.1431C45.0268 47.1841 44.9155 47.1377 44.8332 47.0555C44.751 46.9733 44.7046 46.862 44.7044 46.7457V44.9909C44.7044 44.7297 44.565 44.4883 44.3389 44.3577C44.1128 44.2271 43.834 44.2271 43.6077 44.3577C43.3816 44.4883 43.2422 44.7297 43.2422 44.9909V46.7457C43.2427 47.2495 43.4432 47.7328 43.7997 48.0891C44.1562 48.4455 44.6392 48.6461 45.1431 48.6466H54.5019C55.0058 48.6461 55.4891 48.4455 55.8453 48.0891C56.2017 47.7328 56.4023 47.2495 56.4028 46.7457V44.9909C56.4025 44.7972 56.3253 44.6114 56.1885 44.4743C56.0513 44.3374 55.8656 44.2602 55.6718 44.26H55.6716Z" fill="#CC542D"/>
<path d="M49.8223 35.4863C49.6285 35.4865 49.4427 35.5637 49.3056 35.7006C49.1685 35.8377 49.0913 36.0235 49.091 36.2172V42.8452L46.7808 40.9202C46.6316 40.7964 46.4396 40.7367 46.2466 40.7543C46.0536 40.7718 45.8753 40.8653 45.7512 41.014C45.6272 41.1631 45.5675 41.3549 45.585 41.5482C45.6026 41.7412 45.6961 41.9192 45.8447 42.0435L49.3542 44.9682C49.3911 44.9942 49.4304 45.017 49.4713 45.0361C49.4981 45.0539 49.5259 45.0699 49.555 45.084C49.7255 45.1557 49.9175 45.1557 50.088 45.084C50.116 45.0699 50.1436 45.0541 50.1699 45.0366C50.2108 45.0175 50.2502 44.9947 50.287 44.9687L53.7965 42.044C53.9512 41.9152 54.0462 41.7284 54.0587 41.5276C54.0712 41.3266 54.0006 41.1295 53.8629 40.9824C53.7256 40.8355 53.5335 40.7515 53.332 40.7508C53.161 40.751 52.9956 40.8112 52.864 40.9205L50.5537 42.8454V36.2175C50.5535 36.0237 50.4763 35.8377 50.3391 35.7008C50.202 35.5637 50.016 35.4865 49.8223 35.4863Z" fill="#CC542D"/>
</svg>
