<svg width="26" height="32" viewBox="0 0 26 32" fill="none" xmlns="http://www.w3.org/2000/svg">
<path d="M24.9976 3.82272L12.8326 0.039098C12.7299 -0.0130327 12.6273 -0.0130327 12.5246 0.039098L0.359003 3.82272C0.153691 3.87485 0 4.08218 0 4.34106V8.17681C0 17.6622 5.33811 27.5629 12.4724 31.1913C12.524 31.2434 12.6261 31.2434 12.6777 31.2434C12.7293 31.2434 12.8314 31.2434 12.9347 31.1913C20.0179 27.5629 25.4071 17.7143 25.4071 8.17681V4.34106C25.3554 4.13372 25.2018 3.92638 24.9964 3.82272H24.9976ZM24.0043 8.17681C24.0043 17.0923 19.2489 26.3044 12.6789 29.8292C6.10891 26.3044 1.35346 17.0923 1.35346 8.17681V4.7042L12.6789 1.40124L24.0043 4.7042V8.17681Z" fill="#3A5160"/>
<path d="M10.9866 9.25415V12.2257H7.9824C7.71417 12.2257 7.55322 12.4379 7.55322 12.6502V15.1972C7.55322 15.4625 7.71417 15.6217 7.9824 15.6217H10.9866V18.5932C10.9866 18.8585 11.1476 19.0177 11.4158 19.0177H13.9908C14.2054 19.0177 14.42 18.8585 14.42 18.5932V15.6217H17.4242C17.6388 15.6217 17.8534 15.4625 17.8534 15.1972V12.6502C17.8534 12.4379 17.6388 12.2257 17.4242 12.2257H14.42V9.25415C14.42 9.0419 14.2054 8.82965 13.9908 8.82965H11.4158C11.1476 8.82965 10.9866 9.0419 10.9866 9.25415Z" fill="#3A5160"/>
</svg>
