<svg width="93" height="87" viewBox="0 0 93 87" fill="none" xmlns="http://www.w3.org/2000/svg">
<g clip-path="url(#clip0_138_143)">
<path d="M44 28.8C51.2626 28.8 57.15 22.9125 57.15 15.65C57.15 8.38745 51.2626 2.5 44 2.5C36.7375 2.5 30.85 8.38745 30.85 15.65C30.85 22.9125 36.7375 28.8 44 28.8Z" stroke="#3A5160" stroke-width="5" stroke-miterlimit="10"/>
<path d="M23.4 39.27C23.4 39.27 43.99 28.81 66.78 39.27" stroke="#3A5160" stroke-width="5" stroke-miterlimit="10"/>
<path d="M6.56 48.6899C6.56 48.6899 -0.429997 52.6199 3.94 58.2999C8.31 63.9799 8.75 63.9799 27.98 56.1099V73.1499" stroke="#3A5160" stroke-width="5" stroke-miterlimit="10"/>
<path d="M84.23 48.6899C84.23 48.6899 91.22 52.6199 86.85 58.2999C82.48 63.9799 82.04 63.9799 62.81 56.1099V73.1499" stroke="#3A5160" stroke-width="5" stroke-miterlimit="10"/>
<path d="M14.24 46.6501C15.4992 46.6501 16.52 45.6293 16.52 44.3701C16.52 43.1109 15.4992 42.0901 14.24 42.0901C12.9808 42.0901 11.96 43.1109 11.96 44.3701C11.96 45.6293 12.9808 46.6501 14.24 46.6501Z" fill="#3A5160"/>
<path d="M38.29 54.54C39.5492 54.54 40.57 53.5192 40.57 52.26C40.57 51.0008 39.5492 49.98 38.29 49.98C37.0308 49.98 36.01 51.0008 36.01 52.26C36.01 53.5192 37.0308 54.54 38.29 54.54Z" fill="#3A5160"/>
<path d="M52 68.07C53.2592 68.07 54.28 67.0492 54.28 65.79C54.28 64.5308 53.2592 63.51 52 63.51C50.7408 63.51 49.72 64.5308 49.72 65.79C49.72 67.0492 50.7408 68.07 52 68.07Z" fill="#3A5160"/>
<path d="M75.55 46.6501C76.8092 46.6501 77.83 45.6293 77.83 44.3701C77.83 43.1109 76.8092 42.0901 75.55 42.0901C74.2908 42.0901 73.27 43.1109 73.27 44.3701C73.27 45.6293 74.2908 46.6501 75.55 46.6501Z" fill="#3A5160"/>
<path d="M0.0899963 79.77H92.09" stroke="#3A5160" stroke-width="4" stroke-miterlimit="10"/>
</g>
<defs>
<clipPath id="clip0_138_143">
<rect width="92.09" height="86.77" fill="white"/>
</clipPath>
</defs>
</svg>
