<svg width="119" height="103" viewBox="0 0 119 103" fill="none" xmlns="http://www.w3.org/2000/svg">
<g clip-path="url(#clip0_1_290)">
<path d="M5.42383 98.3887H2.59863L2.06152 100H0.348145L3.25928 92.1797H4.75244L7.67969 100H5.96631L5.42383 98.3887ZM3.03369 97.0835H4.98877L4.00586 94.1562L3.03369 97.0835ZM13.6523 93.4849H11.2568V100H9.64551V93.4849H7.28223V92.1797H13.6523V93.4849ZM19.2812 96.6108H16.1875V98.7056H19.8184V100H14.5762V92.1797H19.8076V93.4849H16.1875V95.3486H19.2812V96.6108ZM27.123 100H25.5117L22.375 94.8545V100H20.7637V92.1797H22.375L25.5171 97.3359V92.1797H27.123V100ZM34.6694 97.395C34.6086 98.2365 34.297 98.8989 33.7349 99.3823C33.1763 99.8657 32.4386 100.107 31.522 100.107C30.5194 100.107 29.7298 99.7708 29.1533 99.0977C28.5804 98.4209 28.2939 97.4935 28.2939 96.3154V95.8374C28.2939 95.0854 28.4264 94.423 28.6914 93.8501C28.9564 93.2772 29.3341 92.8385 29.8247 92.5342C30.3188 92.2262 30.8918 92.0723 31.5435 92.0723C32.4458 92.0723 33.1727 92.314 33.7241 92.7974C34.2756 93.2808 34.5942 93.9593 34.6802 94.833H33.0688C33.0295 94.3281 32.888 93.9629 32.6445 93.7373C32.4046 93.5081 32.0376 93.3936 31.5435 93.3936C31.0063 93.3936 30.6035 93.5869 30.335 93.9736C30.07 94.3568 29.9339 94.953 29.9268 95.7622V96.353C29.9268 97.1981 30.0539 97.8158 30.3081 98.2061C30.5659 98.5964 30.9705 98.7915 31.522 98.7915C32.0197 98.7915 32.3903 98.6787 32.6338 98.4531C32.8809 98.224 33.0223 97.8713 33.0581 97.395H34.6694ZM37.4409 100H35.8296V92.1797H37.4409V100ZM45.3633 96.2671C45.3633 97.0369 45.2272 97.7119 44.9551 98.292C44.6829 98.8721 44.2926 99.3197 43.7842 99.6348C43.2793 99.9499 42.6992 100.107 42.0439 100.107C41.3958 100.107 40.8175 99.9517 40.3091 99.6401C39.8006 99.3286 39.4067 98.8846 39.1274 98.3081C38.8481 97.728 38.7067 97.062 38.7031 96.3101V95.9233C38.7031 95.1535 38.841 94.4767 39.1167 93.8931C39.396 93.3058 39.7881 92.8564 40.293 92.5449C40.8014 92.2298 41.3815 92.0723 42.0332 92.0723C42.6849 92.0723 43.2632 92.2298 43.7681 92.5449C44.2765 92.8564 44.6686 93.3058 44.9443 93.8931C45.2236 94.4767 45.3633 95.1517 45.3633 95.918V96.2671ZM43.7305 95.9126C43.7305 95.0926 43.5837 94.4696 43.29 94.0435C42.9964 93.6174 42.5775 93.4043 42.0332 93.4043C41.4925 93.4043 41.0754 93.6156 40.7817 94.0381C40.4881 94.457 40.3395 95.0729 40.3359 95.8857V96.2671C40.3359 97.0656 40.4827 97.6851 40.7764 98.1255C41.07 98.5659 41.4925 98.7861 42.0439 98.7861C42.5846 98.7861 43 98.5749 43.29 98.1523C43.5801 97.7262 43.7269 97.1068 43.7305 96.2939V95.9126ZM42.3447 90.085H44.0366L42.5488 91.75H41.2866L42.3447 90.085ZM52.8936 100H51.2822L48.1455 94.8545V100H46.5342V92.1797H48.1455L51.2876 97.3359V92.1797H52.8936V100ZM61.4551 98.3887H58.6299L58.0928 100H56.3794L59.2905 92.1797H60.7837L63.7109 100H61.9976L61.4551 98.3887ZM59.0649 97.0835H61.02L60.0371 94.1562L59.0649 97.0835ZM70.5107 99.0117C70.2207 99.359 69.8107 99.6294 69.2808 99.8228C68.7508 100.013 68.1636 100.107 67.519 100.107C66.8423 100.107 66.2479 99.9606 65.7358 99.667C65.2274 99.3698 64.8335 98.9401 64.5542 98.3779C64.2785 97.8158 64.137 97.1551 64.1299 96.396V95.8643C64.1299 95.0837 64.2606 94.4087 64.522 93.8394C64.7869 93.2664 65.1665 92.8296 65.6606 92.5288C66.1584 92.2244 66.7402 92.0723 67.4062 92.0723C68.3337 92.0723 69.0588 92.2943 69.5815 92.7383C70.1043 93.1787 70.4141 93.8215 70.5107 94.6665H68.9424C68.8708 94.2189 68.7114 93.8913 68.4644 93.6836C68.2209 93.4759 67.8843 93.3721 67.4546 93.3721C66.9067 93.3721 66.4896 93.578 66.2031 93.9897C65.9167 94.4015 65.7716 95.0138 65.7681 95.8267V96.3262C65.7681 97.1462 65.9238 97.7656 66.2354 98.1846C66.5469 98.6035 67.0034 98.813 67.605 98.813C68.2101 98.813 68.6416 98.6841 68.8994 98.4263V97.0781H67.4331V95.8911H70.5107V99.0117ZM76.5264 96.6108H73.4326V98.7056H77.0635V100H71.8213V92.1797H77.0527V93.4849H73.4326V95.3486H76.5264V96.6108ZM84.3682 100H82.7568L79.6201 94.8545V100H78.0088V92.1797H79.6201L82.7622 97.3359V92.1797H84.3682V100ZM85.7754 100V92.1797H88.1816C88.8691 92.1797 89.4832 92.3354 90.0239 92.647C90.5682 92.9549 90.9925 93.3953 91.2969 93.9683C91.6012 94.5376 91.7534 95.1857 91.7534 95.9126V96.2725C91.7534 96.9993 91.603 97.6457 91.3022 98.2114C91.005 98.7772 90.5843 99.2158 90.04 99.5273C89.4958 99.8389 88.8817 99.9964 88.1978 100H85.7754ZM87.3867 93.4849V98.7056H88.1655C88.7957 98.7056 89.2773 98.4997 89.6104 98.0879C89.9434 97.6761 90.1134 97.0871 90.1206 96.3208V95.9072C90.1206 95.1123 89.9559 94.5107 89.6265 94.1025C89.297 93.6908 88.8154 93.4849 88.1816 93.4849H87.3867ZM97.2266 98.3887H94.4014L93.8643 100H92.1509L95.062 92.1797H96.5552L99.4824 100H97.769L97.2266 98.3887ZM94.8364 97.0835H96.7915L95.8086 94.1562L94.8364 97.0835ZM100.213 100V92.1797H102.952C103.901 92.1797 104.621 92.3623 105.111 92.7275C105.602 93.0892 105.847 93.6209 105.847 94.3228C105.847 94.7059 105.749 95.0443 105.552 95.3379C105.355 95.6279 105.081 95.841 104.73 95.9771C105.131 96.0773 105.446 96.2796 105.675 96.584C105.908 96.8883 106.024 97.2607 106.024 97.7012C106.024 98.4531 105.785 99.0225 105.305 99.4092C104.825 99.7959 104.141 99.9928 103.253 100H100.213ZM101.824 96.5947V98.7056H103.205C103.584 98.7056 103.88 98.616 104.091 98.437C104.306 98.2544 104.413 98.0037 104.413 97.6851C104.413 96.9689 104.042 96.6055 103.301 96.5947H101.824ZM101.824 95.4561H103.017C103.829 95.4417 104.236 95.1177 104.236 94.4839C104.236 94.1294 104.132 93.8752 103.924 93.7212C103.72 93.5636 103.396 93.4849 102.952 93.4849H101.824V95.4561ZM108.85 98.7056H112.271V100H107.238V92.1797H108.85V98.7056ZM117.905 96.6108H114.812V98.7056H118.442V100H113.2V92.1797H118.432V93.4849H114.812V95.3486H117.905V96.6108Z" fill="#CC542D"/>
<path d="M81.4836 21.3704C78.5656 20.2775 75.8047 20.4575 73.0961 21.1004C73.2531 20.9332 73.4363 20.7789 73.5933 20.5989C76.5898 17.0118 77.6235 11.6374 76.1318 7.25306C76.1056 7.17592 76.0533 7.11163 76.014 7.0602C75.9748 6.64877 75.7 6.27591 75.1504 6.32734C68.0976 6.8802 61.9738 11.8688 59.9456 18.2975C58.3623 13.6431 54.8293 9.31023 51.1001 6.58448C50.8253 6.37876 50.5636 6.39162 50.3281 6.49448C50.3019 6.49448 50.2757 6.5202 50.2496 6.53305C50.1972 6.57162 50.1449 6.59734 50.0925 6.64877C50.0533 6.67448 50.014 6.68734 49.9879 6.72591C48.5616 8.2945 47.8288 10.6345 47.2792 12.6146C47.1877 12.9488 47.2792 13.206 47.4755 13.3989C47.5802 13.5403 47.7111 13.656 47.9204 13.7203C52.9843 15.2374 56.7659 19.1461 58.1791 24.109C52.5525 23.1833 47.7503 19.6989 41.6658 20.4447C35.7906 21.1647 31.2239 25.1504 28.777 30.3319C22.4831 43.7035 29.7453 59.7366 38.6169 70.2538C43.2621 75.7696 47.5933 75.1653 53.9526 73.0824C58.5716 71.5781 61.699 72.4524 66.1871 73.5582C68.6733 74.1753 71.4735 74.8182 74.0513 74.4067C80.2405 73.4424 84.2183 66.0624 86.4559 61.0094C89.7272 53.5779 92.2657 45.9407 92.017 37.7634C91.8208 30.9748 88.2616 23.9161 81.4705 21.3832L81.4836 21.3704ZM74.4831 8.19164C75.6215 12.1131 74.6401 17.0375 71.709 19.9818C69.0004 22.7075 64.8263 23.6204 61.0578 24.1604C61.0709 24.0833 61.0971 24.019 61.084 23.929C60.5082 16.2532 66.7236 9.18166 74.4831 8.2045V8.19164ZM49.2682 12.2931C49.6215 11.0331 50.0925 9.69595 50.8253 8.62879C54.2536 11.3545 57.4202 15.7003 58.5455 20.1361C56.5696 16.5232 53.2722 13.7331 49.2682 12.306V12.2931ZM78.1469 70.241C72.0885 75.8082 65.3366 69.8938 58.5455 70.1638C55.3004 70.2924 52.4348 71.9639 49.3467 72.7224C43.8117 74.0725 40.5535 70.151 37.7926 66.0495C33.1343 59.1194 28.8424 51.6107 28.2928 43.1506C27.7433 34.6777 31.4987 24.0576 41.0508 22.3218C47.8942 21.0747 53.1413 25.5747 59.6446 26.0504C59.7624 26.089 59.8802 26.1019 60.0372 26.089C61.9083 26.0633 63.7402 25.6519 65.546 25.099C66.4096 24.8804 67.2601 24.5976 68.0845 24.2761C71.9446 22.9647 75.7654 21.6018 79.7694 22.6818C90.6693 25.6004 91.3104 38.9206 89.243 47.8178C87.4765 55.4422 84.0613 64.7895 78.1338 70.2281L78.1469 70.241Z" fill="#3A5160" stroke="#3A5160" stroke-width="3" stroke-miterlimit="10"/>
<path d="M43.109 27.1608C36.3615 29.7776 32.9446 37.7766 34.0788 44.2243C34.2941 45.4113 36.2179 44.9122 36.0025 43.7252C35.0694 38.4105 37.9694 31.167 43.6402 28.9818C44.8174 28.5232 44.3006 26.7022 43.109 27.1743V27.1608Z" fill="#3A5160" stroke="#3A5160" stroke-width="3" stroke-miterlimit="10"/>
<path d="M35.3559 47.871C33.3672 47.871 33.3672 49.3548 35.3559 49.3548C37.3446 49.3548 37.3446 47.871 35.3559 47.871Z" fill="#3A5160" stroke="#3A5160" stroke-miterlimit="10"/>
</g>
<defs>
<clipPath id="clip0_1_290">
<rect width="119" height="103" fill="white"/>
</clipPath>
</defs>
</svg>
