<svg width="83" height="80" viewBox="0 0 83 80" fill="none" xmlns="http://www.w3.org/2000/svg">
<g clip-path="url(#clip0_138_118)">
<path d="M13.1313 44.724L8.76685 43.9525C13.277 18.5422 30.684 15.962 39.0517 14.7288C40.458 14.5201 41.6742 14.343 42.4597 14.1154C45.1771 13.3248 45.9056 10.8331 46.0956 9.79599C46.4567 7.80389 45.8929 5.8118 44.7211 4.93907C43.3845 3.94618 41.4335 4.57859 40.0399 5.28689C39.7169 5.45132 39.5458 5.64105 39.4508 5.95725C39.0644 7.17148 39.8879 9.3533 40.344 10.2197L36.4293 12.3003C36.1949 11.864 34.1742 7.9367 35.2194 4.62919C35.6755 3.18097 36.651 2.04263 38.0319 1.34065C42.8271 -1.08781 45.9373 0.328792 47.3688 1.39124C49.9153 3.28215 51.1252 6.88689 50.4601 10.5802C49.7633 14.4252 47.2422 17.3343 43.7012 18.3652C42.6307 18.675 41.2751 18.8774 39.7042 19.1114C31.2414 20.3636 17.0839 22.4569 13.1313 44.7304V44.724Z" fill="#3A5160"/>
<path d="M42.1873 80.0001C41.9782 80.0001 41.8262 80.0001 41.7375 79.9938C41.5538 79.9938 41.3765 79.9938 41.1991 79.9938C19.7634 79.9938 12.9792 63.1021 11.3449 57.638C6.65746 57.0815 -0.0443662 54.4507 -2.52463e-05 47.2222C0.0253125 43.3898 1.20352 40.3985 3.50291 38.3369C7.14521 35.0673 12.2191 35.5353 12.4345 35.5606L11.9974 39.9685C11.9657 39.9685 8.60846 39.6902 6.44209 41.6507C5.11819 42.8523 4.44674 44.7369 4.42774 47.2538C4.39607 53.0847 12.7638 53.3313 13.1186 53.3376L14.9175 53.3756L15.2596 55.14C15.4243 55.9748 19.4783 75.5732 41.1991 75.5732C41.3765 75.5732 41.5538 75.5732 41.7312 75.5732H41.8769C42.675 75.6112 61.672 76.1993 68.6968 54.5139L69.2606 52.7748L71.0786 52.9961C71.0786 52.9961 74.1761 53.306 76.2981 51.3835C77.8501 49.9732 78.6165 47.6143 78.5722 44.3764V44.2878C78.5722 44.2878 78.5469 42.8017 77.318 41.6254C76.0511 40.4175 73.8341 39.8357 70.8949 39.9495L70.7302 35.5226C75.0249 35.3582 78.3062 36.3701 80.4852 38.5203C82.905 40.9108 83.0126 43.7882 83.0063 44.3321C83.0696 48.9108 81.7964 52.3954 79.2373 54.691C76.9506 56.7463 74.1824 57.2902 72.3961 57.404C68.0507 69.344 60.2214 74.8586 54.2923 77.3819C48.6864 79.7724 43.7835 79.9938 42.1936 79.9938L42.1873 80.0001Z" fill="#3A5160"/>
<path d="M69.1276 44.4205C68.4815 26.2197 49.9659 20.7304 49.1805 20.5027L50.3904 16.2402C50.6121 16.3035 72.8016 22.7983 73.5617 44.2624L69.1276 44.4205Z" fill="#3A5160"/>
<path d="M32.2802 48.7651C33.7496 48.7651 34.9407 47.5759 34.9407 46.109C34.9407 44.6421 33.7496 43.4529 32.2802 43.4529C30.8109 43.4529 29.6198 44.6421 29.6198 46.109C29.6198 47.5759 30.8109 48.7651 32.2802 48.7651Z" fill="#3A5160"/>
<path d="M41.8009 65.8845C36.3279 65.8845 32.3499 62.0015 32.2866 61.9383L34.5289 59.7059L33.4078 60.8253L34.5226 59.7059C34.8013 59.9778 41.4081 66.3399 48.7117 59.6616L50.8528 61.9952C47.6602 64.917 44.5437 65.8909 41.8009 65.8909V65.8845Z" fill="#3A5160"/>
<path d="M48.4204 48.7651C49.8897 48.7651 51.0808 47.5759 51.0808 46.109C51.0808 44.6421 49.8897 43.4529 48.4204 43.4529C46.951 43.4529 45.7599 44.6421 45.7599 46.109C45.7599 47.5759 46.951 48.7651 48.4204 48.7651Z" fill="#3A5160"/>
</g>
<defs>
<clipPath id="clip0_138_118">
<rect width="83" height="80" fill="white"/>
</clipPath>
</defs>
</svg>
