<svg width="113" height="111" viewBox="0 0 113 111" fill="none" xmlns="http://www.w3.org/2000/svg">
<path d="M97.9731 58.3553H92.3667L91.6659 57.1268C91.3155 56.2493 90.1767 55.5474 89.2131 55.5474H83.0811L80.7159 53.1781C80.4531 52.9149 80.1027 52.7394 79.7523 52.7394C79.7523 52.7394 79.7523 52.7394 79.6647 52.7394C78.9639 52.7394 78.3507 53.4414 78.3507 54.1434V69.5872H68.5395H68.4519C66.7875 69.5872 65.2107 70.1137 63.8968 70.9912H61.5315C59.1663 70.9912 57.3268 69.1485 57.3268 66.7792C57.3268 66.0772 56.626 65.3753 55.9252 65.3753C55.1368 65.3753 54.5236 66.0772 54.5236 66.7792C54.5236 70.6402 57.5019 73.7114 61.2687 73.7992C60.5679 75.0277 60.1299 76.5194 60.1299 78.0111V92.051C60.1299 93.6304 61.3564 94.859 62.9331 94.859H68.5395C70.0287 94.859 71.3427 93.6304 71.3427 92.051V83.6271H79.7523V92.051C79.7523 93.6304 80.9787 94.859 82.5555 94.859H88.1619C89.6511 94.859 90.9651 93.6304 90.9651 92.051V70.9912H93.7683C96.8343 70.9912 99.3747 68.5342 99.3747 65.3753V59.7593C99.3747 59.0573 98.6739 58.3553 97.9731 58.3553ZM88.1619 92.051H82.5555V80.8191H68.5395V92.051H62.9331V78.0111C62.9331 74.9399 65.3859 72.4829 68.5395 72.3952H78.8763L88.1619 74.7644V92.051ZM96.5715 65.3753C96.5715 66.9547 95.2575 68.1832 93.7683 68.1832H88.1619V71.8687L81.1539 70.1137V57.5656L81.9423 58.3553H89.2131L90.6147 61.1633H96.5715V65.3753ZM88.1619 61.1633C88.1619 60.4613 87.4611 59.7593 86.7603 59.7593C85.9719 59.7593 85.3587 60.4613 85.3587 61.1633C85.3587 61.953 85.9719 62.5673 86.7603 62.5673C87.4611 62.5673 88.1619 61.953 88.1619 61.1633Z" fill="#3A5160"/>
<path d="M64.7805 2.60968C67.5355 27.3865 50.4571 23.4416 47.9214 23.7476L44.1555 28.4115L44.0055 27.0627L47.2881 23.0035C46.8455 21.0043 44.7831 16.7471 47.9681 11.6695C51.152 6.58143 55.6155 6.35156 64.7805 2.60968ZM62.8572 7.00725C63.7879 4.29461 62.3506 6.79007 62.3506 6.79007C60.9949 9.31327 58.9131 10.6352 56.6593 12.1547C53.7222 14.133 49.8776 17.0516 48.8032 20.594C47.7275 24.1261 48.3529 22.4397 49.2781 20.8567C50.2138 19.2726 53.3919 16.8214 55.4984 15.3917C58.4239 13.4042 61.2908 11.5492 62.8572 7.00725Z" fill="#3A5160"/>
<path d="M40.1219 15.1572C40.1219 20.3051 35.7527 24.5857 30.238 24.5857C24.7233 24.5857 20.3541 20.3051 20.3541 15.1572C20.3541 10.0093 24.7233 5.7287 30.238 5.7287C35.7527 5.7287 40.1219 10.0093 40.1219 15.1572ZM30.238 31.2286C32.3935 31.2286 34.4476 30.7902 36.309 30.0143H40.357C45.176 30.0143 48.976 33.7485 48.976 38.2285V39.4428C48.976 40.5684 48.0062 41.5856 46.6814 41.5856H13.7946C12.4698 41.5856 11.5 40.5684 11.5 39.4428V38.2285C11.5 33.7485 15.3 30.0143 20.119 30.0143H24.1681C26.0337 30.7895 28.0805 31.2286 30.238 31.2286Z" stroke="#3A5160" stroke-width="3"/>
<path d="M21.807 55.1559L29.8647 56.7356C30.4217 56.8448 30.7838 57.3841 30.6724 57.9385L30.4104 59.2798C30.3014 59.8377 29.763 60.2004 29.2096 60.0889L23.4969 58.9751L22.3791 64.6963C22.2701 65.2542 21.7317 65.617 21.1783 65.5054L19.8357 65.2453C19.2788 65.1361 18.9166 64.5968 19.028 64.0424L20.605 55.9709C20.7116 55.4095 21.2501 55.0467 21.807 55.1559V55.1559Z" fill="#3A5160"/>
<path d="M23.2362 57.6226C25.2762 65.0667 32.5036 79.4294 45.0933 77.3275" stroke="#3A5160" stroke-width="3" stroke-linecap="round"/>
<path d="M93.1404 40.0029L85.3649 37.3581C84.8274 37.1753 84.5403 36.5922 84.7244 36.0577L85.1625 34.7634C85.3447 34.225 85.9266 33.9375 86.4602 34.1222L91.9736 35.9912L93.8425 30.4703C94.0247 29.9319 94.6066 29.6445 95.1402 29.8291L96.4361 30.2668C96.9735 30.4496 97.2607 31.0326 97.0766 31.5671L94.4401 39.356C94.2597 39.8982 93.6779 40.1857 93.1404 40.0029V40.0029Z" fill="#3A5160"/>
<path d="M92.0555 37.3667C91.0238 29.7177 85.7705 14.5189 73.0116 14.9161" stroke="#3A5160" stroke-width="3" stroke-linecap="round"/>
<path d="M5.1724 109.361H2.47818L1.96597 110.898H0.332031L3.1082 103.44H4.53214L7.32368 110.898H5.68973L5.1724 109.361ZM2.89307 108.117H4.75751L3.82017 105.325L2.89307 108.117ZM13.0194 104.685H10.7349V110.898H9.19836V104.685H6.94464V103.44H13.0194V104.685ZM18.3873 107.666H15.4371V109.664H18.8996V110.898H13.9005V103.44H18.8893V104.685H15.4371V106.462H18.3873V107.666ZM25.8656 110.898H24.329L21.3377 105.991V110.898H19.8011V103.44H21.3377L24.3341 108.357V107.44L25.8656 103.44V110.898ZM33.0621 108.414C33.0041 109.216 32.707 109.848 32.1709 110.309C31.6382 110.77 30.9347 111 30.0606 111C29.1045 111 28.3515 110.679 27.8017 110.037C27.2554 109.392 26.9822 108.508 26.9822 107.384V106.928C26.9822 106.211 27.1085 105.58 27.3613 105.033C27.614 104.487 27.9742 104.068 28.442 103.778C28.9132 103.485 29.4596 103.338 30.0811 103.338C30.9416 103.338 31.6348 103.568 32.1606 104.029C32.6866 104.49 32.9904 105.137 33.0724 105.971H31.5357C31.4982 105.489 31.3633 105.141 31.1311 104.926C30.9023 104.707 30.5523 104.598 30.0811 104.598C29.5688 104.598 29.1847 104.782 28.9287 105.151C28.6759 105.516 28.5462 106.085 28.5394 106.857V107.42C28.5394 108.226 28.6606 108.815 28.903 109.187C29.1489 109.559 29.5347 109.745 30.0606 109.745C30.5353 109.745 30.8887 109.638 31.1209 109.423C31.3565 109.204 31.4914 108.868 31.5255 108.414H33.0621ZM35.7051 110.898H34.1685V103.44H35.7051V110.898ZM43.2602 107.338C43.2602 108.072 43.1304 108.716 42.871 109.269C42.6114 109.822 42.2392 110.249 41.7543 110.55C41.2728 110.85 40.7196 111 40.0947 111C39.4767 111 38.9252 110.852 38.4403 110.555C37.9554 110.258 37.5798 109.834 37.3134 109.284C37.0471 108.731 36.9122 108.096 36.9088 107.379V107.01C36.9088 106.276 37.0403 105.631 37.3032 105.074C37.5696 104.514 37.9435 104.086 38.425 103.788C38.9098 103.488 39.463 103.338 40.0845 103.338C40.706 103.338 41.2575 103.488 41.739 103.788C42.2238 104.086 42.5977 104.514 42.8607 105.074C43.127 105.631 43.2602 106.274 43.2602 107.005V107.338ZM41.7031 107C41.7031 106.218 41.5631 105.624 41.2831 105.218C41.0031 104.811 40.6036 104.608 40.0845 104.608C39.5689 104.608 39.1711 104.81 38.891 105.212C38.611 105.612 38.4693 106.199 38.4659 106.974V107.338C38.4659 108.1 38.6059 108.69 38.886 109.11C39.166 109.53 39.5689 109.74 40.0947 109.74C40.6104 109.74 41.0065 109.539 41.2831 109.136C41.5597 108.73 41.6997 108.139 41.7031 107.364V107ZM40.3816 101.443H41.995L40.5762 103.03H39.3725L40.3816 101.443ZM50.4414 110.898H48.9047L45.9134 105.991V110.898H44.3768V103.44H45.9134L48.9099 108.357V103.44H50.4414V110.898ZM58.606 109.361H55.9118L55.3996 110.898H53.7656L56.5417 103.44H57.9657L60.7572 110.898H59.1233L58.606 109.361ZM56.3266 108.117H58.1911L57.2537 105.325L56.3266 108.117ZM67.2418 109.955C66.9652 110.287 66.5742 110.545 66.0689 110.729C65.5634 110.91 65.0035 111 64.3888 111C63.7434 111 63.1766 110.86 62.6882 110.58C62.2034 110.297 61.8278 109.887 61.5614 109.351C61.2985 108.815 61.1636 108.185 61.1568 107.461V106.954C61.1568 106.21 61.2814 105.566 61.5307 105.023C61.7833 104.477 62.1453 104.06 62.6165 103.773C63.0912 103.483 63.6461 103.338 64.2812 103.338C65.1657 103.338 65.8572 103.549 66.3556 103.973C66.8542 104.393 67.1496 105.006 67.2418 105.812H65.7462C65.6779 105.385 65.5259 105.072 65.2903 104.874C65.0581 104.676 64.7371 104.577 64.3273 104.577C63.8048 104.577 63.4071 104.774 63.1339 105.166C62.8607 105.559 62.7224 106.143 62.719 106.918V107.394C62.719 108.176 62.8675 108.767 63.1647 109.167C63.4617 109.566 63.8971 109.766 64.4708 109.766C65.0478 109.766 65.4593 109.643 65.7052 109.397V108.112H64.3068V106.98H67.2418V109.955ZM72.9786 107.666H70.0282V109.664H73.4908V110.898H68.4916V103.44H73.4805V104.685H70.0282V106.462H72.9786V107.666ZM80.4568 110.898H78.9201L75.9288 105.991V110.898H74.3922V103.44H75.9288L78.9253 108.357V103.44H80.4568V110.898ZM81.7988 110.898V103.44H84.0934C84.749 103.44 85.3347 103.589 85.8503 103.886C86.3694 104.179 86.774 104.599 87.0643 105.146C87.3545 105.689 87.4996 106.307 87.4996 107V107.343C87.4996 108.036 87.3562 108.653 87.0693 109.192C86.7859 109.732 86.3847 110.15 85.8657 110.447C85.3467 110.744 84.7611 110.895 84.1089 110.898H81.7988ZM83.3354 104.685V109.664H84.0781C84.679 109.664 85.1383 109.467 85.456 109.075C85.7735 108.682 85.9357 108.12 85.9425 107.389V106.995C85.9425 106.237 85.7855 105.663 85.4713 105.274C85.1571 104.881 84.6978 104.685 84.0934 104.685H83.3354ZM92.7191 109.361H90.0249L89.5127 110.898H87.8787L90.6548 103.44H92.0788L94.8703 110.898H93.2363L92.7191 109.361ZM90.4397 108.117H92.3041L91.3668 105.325L90.4397 108.117ZM95.567 110.898V103.44H98.179C99.084 103.44 99.7707 103.614 100.238 103.963C100.706 104.308 100.94 104.815 100.94 105.484C100.94 105.849 100.846 106.172 100.659 106.452C100.471 106.729 100.209 106.932 99.8746 107.062C100.257 107.157 100.557 107.35 100.776 107.64C100.998 107.931 101.109 108.286 101.109 108.706C101.109 109.423 100.881 109.966 100.423 110.335C99.9652 110.703 99.3129 110.891 98.4661 110.898H95.567ZM97.1033 107.651V109.664H98.4203C98.7817 109.664 99.064 109.578 99.2652 109.407C99.4703 109.233 99.5723 108.994 99.5723 108.69C99.5723 108.007 99.2185 107.661 98.5119 107.651H97.1033ZM97.1033 106.565H98.241C99.0154 106.551 99.4035 106.242 99.4035 105.638C99.4035 105.3 99.3043 105.057 99.106 104.91C98.9114 104.76 98.6025 104.685 98.179 104.685H97.1033V106.565ZM103.804 109.664H107.066V110.898H102.266V103.44H103.804V109.664ZM112.439 107.666H109.489V109.664H112.951V110.898H107.952V103.44H112.941V104.685H109.489V106.462H112.439V107.666Z" fill="#CC542D"/>
</svg>
