<svg width="44" height="44" viewBox="0 0 44 44" fill="none" xmlns="http://www.w3.org/2000/svg">
<path d="M0 44C0.793896 41.0783 1.44231 38.3106 2.31934 35.6137C2.91372 33.7907 2.79318 32.2675 1.99513 30.4653C-3.46654 18.146 3.81153 3.77062 16.8547 0.620027C28.6634 -2.23507 40.9833 5.01088 43.5313 17.401C46.0667 29.7162 38.0447 41.07 26.024 43.3632C21.3687 44.2497 16.8505 43.6005 12.5776 41.532C11.8544 41.1824 11.2226 41.1324 10.4453 41.3488C7.2947 42.2187 4.12327 43.0136 0.956 43.8294C0.719079 43.8918 0.473844 43.9168 0 44H0ZM5.25385 38.8642C7.34042 38.3273 9.19007 37.8903 11.0189 37.3659C11.8004 37.1411 12.4072 37.2452 13.1221 37.6489C17.1124 39.8963 21.4103 40.5914 25.8702 39.6133C35.6006 37.4824 41.7481 28.2179 39.9608 18.5289C37.9698 7.76609 26.847 1.14859 16.4432 4.60301C5.25385 8.31547 0.461374 21.0885 6.49249 31.202C6.93724 31.947 7.0079 32.6004 6.76682 33.4078C6.2431 35.1392 5.79419 36.8956 5.25385 38.8683V38.8642Z" fill="#CC542D"/>
<path d="M32.9758 26.7936C33.235 29.8053 31.388 31.9276 28.484 31.9963C25.1973 32.0771 22.3015 30.824 19.6277 29.114C16.3617 27.024 13.9841 24.0892 12.0878 20.7946C11.117 19.1048 10.6193 17.2493 11.3474 15.3534C11.7094 14.4034 12.2976 13.4696 13.001 12.7298C14.198 11.4686 16.1683 11.9173 16.8676 13.4979C17.3407 14.5651 17.7561 15.6566 18.2456 16.7198C18.5336 17.3423 18.4595 17.884 18.0687 18.4136C17.9494 18.5753 17.826 18.737 17.6985 18.8946C16.8704 19.9322 16.8457 20.9819 17.6245 22.0437C19.2452 24.259 21.3225 25.8921 23.8893 26.9594C24.605 27.2585 25.1356 27.2221 25.6128 26.5996C26.0324 26.0538 26.5136 25.5526 26.9167 24.9947C27.254 24.5258 27.6818 24.3439 28.1878 24.5703C29.8208 25.3019 31.4374 26.0781 32.9717 26.7977L32.9758 26.7936Z" fill="#CC542D"/>
</svg>
