<svg width="1138" height="36" viewBox="0 0 1138 36" fill="none" xmlns="http://www.w3.org/2000/svg">
<g clip-path="url(#clip0_25_132)">
<path d="M33.25 20.2499C33.7422 20.2499 34.1641 19.9687 34.3047 19.4765L37.5391 11.4608L43.4453 35.0858C43.5859 35.6483 44.0078 35.9296 44.5703 35.9999C45.0625 35.9296 45.5547 35.578 45.625 35.0858L51.3906 6.18744L54.6953 19.3358C54.8359 19.828 55.3281 20.2499 55.75 20.2499H1137.44C1137.79 20.2499 1138 19.9688 1138 19.6875V18.5625C1138 18.2109 1137.79 18 1137.44 18L56.6641 17.9999L52.375 0.84369C52.2344 0.28119 51.8125 -6.0986e-05 51.25 -6.10352e-05C50.7578 -6.10782e-05 50.2656 0.351501 50.1953 0.84369L44.4297 29.7421L38.875 7.59369C38.7344 7.1015 38.3125 6.74994 37.8906 6.74994C37.3281 6.67963 36.9063 6.96088 36.7656 7.45306L32.5469 17.9999H0.562501C0.281251 17.9999 1.2909e-07 18.2108 9.835e-08 18.5624L0 19.6874C-2.458e-08 19.9687 0.28125 20.2499 0.5625 20.2499H33.25Z" fill="#87796B" fill-opacity="0.3"/>
</g>
<defs>
<clipPath id="clip0_25_132">
<rect width="1138" height="36" fill="white"/>
</clipPath>
</defs>
</svg>
