<svg width="2080" height="2072" viewBox="0 0 2080 2072" fill="none" xmlns="http://www.w3.org/2000/svg">
<path fill-rule="evenodd" clip-rule="evenodd" d="M1224.94 213.743C1238.36 213.743 1250.11 203.678 1250.11 190.242C1250.11 176.818 1238.36 166.74 1224.94 166.74C1211.51 166.74 1201.45 176.805 1201.45 190.242C1201.45 203.678 1211.51 213.743 1224.94 213.743ZM901.042 171.786C912.792 171.786 921.184 161.721 921.184 151.657C921.184 139.906 912.792 131.515 901.042 131.515C889.291 131.515 880.9 139.906 880.9 151.657C880.9 161.721 889.291 171.786 901.042 171.786ZM657.703 668.541L647.639 658.476C676.172 631.616 704.693 591.345 709.738 567.843C713.084 544.342 746.65 549.387 739.944 572.876C731.54 604.768 694.628 641.693 657.703 668.541ZM451.289 180.177C400.941 202.005 394.235 254.014 429.461 285.907C471.418 322.832 543.582 290.939 536.864 232.212C593.918 235.571 630.843 175.158 622.451 134.874C647.626 113.046 649.312 66.0691 619.092 47.6002C585.539 27.4582 555.32 34.1765 535.191 72.7745C483.169 69.4283 432.82 109.699 451.289 180.177L427.788 170.113C395.908 101.308 451.289 32.5034 520.094 49.2863C535.204 15.7335 585.552 -19.5183 642.606 14.0474C686.237 40.8948 696.301 111.386 649.325 144.951C671.14 208.724 625.823 262.431 558.692 255.713C550.301 339.627 473.104 349.692 421.083 311.094C392.549 287.593 380.812 257.386 375.766 233.898C369.048 208.737 369.048 186.908 345.56 161.747C327.104 143.278 293.538 143.278 293.538 143.278C293.538 82.865 238.157 27.4841 167.667 54.3445C142.505 32.5293 110.613 30.8432 88.7974 57.7036C77.0468 72.8134 68.6553 113.085 108.939 131.541C107.266 186.921 149.211 222.16 211.31 217.128C212.983 245.661 244.876 274.182 275.082 277.541L273.409 292.651C243.202 289.292 226.42 299.369 206.278 324.531C134.114 321.171 83.7651 354.737 85.4512 406.772C35.1026 415.15 25.038 468.858 53.5715 497.392C82.105 525.925 124.062 514.175 139.159 480.622C191.181 490.686 236.497 453.774 238.17 411.804C285.16 411.804 306.975 391.662 315.366 348.032L332.149 349.718C337.181 396.707 315.366 442.011 258.312 436.991C256.639 494.045 202.931 524.265 150.91 505.796C127.408 551.112 72.0275 567.895 26.7241 524.265C-18.5923 482.308 -1.80941 410.144 56.9306 391.675C56.9306 336.294 98.8878 284.272 177.757 304.402C177.757 304.402 187.822 279.24 212.996 277.554C196.213 270.849 184.462 262.457 181.116 243.988C120.703 257.412 70.3544 202.044 83.7781 146.663C30.0703 118.13 28.3972 64.435 55.2446 32.5423C83.7781 -1.02344 130.768 -7.72882 171.039 27.51C243.202 -11.088 322.085 37.5746 317.039 118.13C367.375 114.771 397.594 156.728 390.876 202.044C399.255 181.902 409.332 173.511 427.788 170.151L451.289 180.177V180.177Z" fill="#63513D"/>
<path fill-rule="evenodd" clip-rule="evenodd" d="M573.802 82.8521L585.552 91.2435C562.051 141.592 521.78 191.941 486.528 222.147L473.105 210.397C498.279 170.113 550.301 102.981 573.802 82.8521V82.8521ZM228.08 351.365L234.798 364.789C206.278 393.322 152.57 433.593 122.363 448.703L112.299 435.279C139.133 405.06 192.841 366.462 228.08 351.365ZM296.897 207.038L283.474 223.807C244.876 198.646 169.353 131.515 152.57 106.327L164.307 94.5897C201.232 113.046 271.71 176.818 296.897 207.038V207.038ZM226.407 848.107C231.439 869.935 226.407 895.096 246.549 918.598C253.267 926.989 291.852 977.325 320.386 1002.51C281.775 1017.62 206.265 1049.5 152.57 1056.21C140.819 1057.88 129.069 1064.59 119.004 1071.3C112.286 1083.05 105.58 1103.2 102.221 1126.7C100.535 1143.47 100.535 1161.94 100.535 1180.41C100.535 1197.18 108.927 1250.88 127.396 1286.11C145.852 1321.37 164.307 1338.14 186.136 1348.22C191.168 1346.52 201.245 1344.85 216.342 1344.85C256.613 1343.18 288.493 1366.66 303.616 1385.12C308.648 1393.5 320.399 1395.2 333.822 1395.2C367.375 1395.2 404.3 1383.45 437.866 1370.02C446.257 1364.98 466.386 1349.88 486.528 1334.78C508.356 1317.99 622.464 1220.66 672.813 1197.16C699.66 1210.59 743.304 1229.06 788.607 1229.06C790.28 1229.06 798.672 1230.73 808.749 1227.38C822.173 1224.01 840.642 1218.98 864.143 1213.96C904.414 1205.55 951.404 1198.84 966.513 1198.84C1003.44 1200.53 1112.5 1202.21 1139.39 1202.21C1166.21 1202.21 1204.82 1200.53 1219.92 1198.84C1243.42 1190.46 1295.45 1177.02 1344.12 1155.22C1392.78 1133.42 1495.15 1061.24 1511.93 1044.44C1520.31 1037.73 1528.7 1029.35 1533.75 1022.64C1535.42 1019.28 1537.12 1017.61 1537.12 1015.92C1537.12 1014.24 1535.42 943.759 1535.42 943.759C1535.42 943.759 1560.59 916.912 1570.68 906.834V903.475C1565.64 890.038 1562.28 846.421 1563.97 802.791L1540.46 791.04C1538.79 844.748 1518.65 891.737 1500.19 921.944C1463.28 926.976 1391.12 948.791 1365.93 978.998L1381.03 982.357C1404.53 968.933 1429.72 960.542 1459.91 960.542C1485.08 960.542 1496.85 967.247 1496.85 973.966C1496.85 978.998 1491.8 990.749 1490.13 995.781C1488.43 999.14 1486.76 1005.85 1481.72 1009.2C1446.49 1047.8 1407.89 1079.7 1359.22 1106.54C1327.33 1124.99 1295.47 1136.74 1248.48 1151.83C1233.35 1155.21 1213.21 1160.24 1201.49 1165.28C1183.02 1165.28 1089.04 1161.91 1033.66 1161.91C978.277 1161.91 864.169 1170.29 828.917 1178.68C812.134 1183.73 807.102 1190.43 788.646 1190.43C753.407 1190.43 706.418 1171.96 677.884 1158.54C672.852 1158.54 662.787 1163.58 652.723 1168.62C632.581 1178.67 587.264 1242.45 560.417 1222.32C546.993 1250.84 488.266 1276.03 469.797 1304.55C471.47 1291.13 494.959 1193.8 496.645 1173.66C496.645 1170.29 498.331 1166.94 494.972 1163.58C474.843 1128.34 414.416 1106.54 380.864 1099.82C372.472 1098.15 367.427 1096.45 360.722 1094.78L307.014 1079.68L258.351 1094.78L315.405 1104.83L243.241 1153.52C256.665 1148.47 333.861 1126.67 338.893 1124.97C345.612 1123.3 354.003 1121.63 362.395 1124.97C374.145 1128.34 402.679 1135.05 421.135 1141.77C431.199 1145.14 447.982 1163.58 453.014 1173.66C454.7 1178.68 454.701 1187.08 456.374 1207.23C456.374 1218.95 454.701 1237.42 451.341 1250.84C442.95 1286.08 426.167 1312.93 421.135 1323.01C414.416 1336.43 406.025 1341.48 395.96 1344.82C380.864 1353.2 360.722 1356.57 340.58 1358.25C325.47 1358.25 315.405 1356.57 308.687 1348.2C290.231 1321.35 241.568 1296.16 192.893 1306.23C162.686 1287.78 132.48 1229.04 132.48 1182.05C132.48 1153.53 145.903 1108.22 154.295 1086.4C202.97 1079.68 301.982 1042.76 348.971 1020.94C359.036 1020.94 387.582 1010.88 414.416 1010.88C478.189 1010.88 541.961 1066.27 580.559 1104.84C587.277 1094.79 599.015 1078 632.581 1078C677.897 1078 704.745 1119.97 716.495 1161.92L739.983 1145.15C736.624 1121.65 723.201 1094.79 704.745 1074.65C689.635 1059.55 659.441 1046.13 635.94 1046.13C620.83 1046.13 607.407 1049.48 597.342 1049.48C565.462 1049.48 552.026 1034.38 526.864 1017.6C501.69 1000.81 453.014 973.966 417.776 973.966C395.947 973.966 385.883 982.357 367.427 982.357C340.58 982.357 330.515 972.293 318.764 955.51C312.059 948.791 285.199 925.303 278.493 915.239C273.461 908.52 266.743 886.705 263.384 874.967L226.407 848.107V848.107Z" fill="#63513D"/>
<path fill-rule="evenodd" clip-rule="evenodd" d="M263.332 874.954C271.71 883.346 278.441 891.737 288.493 900.116C298.558 906.834 310.321 913.539 320.386 920.258C337.156 928.649 355.624 938.727 372.407 945.432C389.19 948.791 409.319 950.464 427.788 950.464C454.649 950.464 486.528 945.432 513.376 958.856C531.845 965.574 531.845 985.703 546.941 990.735C568.757 999.127 629.17 1000.8 662.749 1000.8C729.88 1000.8 802.031 992.409 845.674 982.344L825.532 958.843C795.326 963.875 708.052 973.953 667.781 973.953C612.4 973.953 558.692 963.888 558.692 942.073C558.692 925.29 575.475 901.802 609.041 901.802C644.28 901.802 697.987 923.617 708.052 926.976C718.116 928.649 721.476 928.649 728.194 925.303L748.336 915.238C721.489 901.815 625.824 869.935 592.271 869.935C577.161 869.935 567.097 871.608 557.019 885.032C545.281 901.815 510.03 916.912 456.322 916.912C426.115 916.912 382.485 910.193 374.093 906.847C357.311 900.129 325.431 881.673 305.289 866.576C278.441 848.12 254.94 826.305 239.843 801.13C234.798 794.412 231.452 786.021 231.452 777.629C231.452 770.911 234.811 765.879 234.811 760.846C239.856 767.565 244.889 772.597 251.594 777.629C280.128 806.163 322.085 826.292 365.715 834.683C379.152 838.042 389.216 839.716 402.64 839.716C421.096 839.716 437.879 829.651 449.629 819.574L431.173 799.431C426.128 801.105 414.391 801.105 407.672 801.105C343.9 801.105 263.345 760.833 244.889 712.158C243.216 707.126 239.856 705.44 243.216 700.407C244.889 695.375 246.575 686.984 248.248 678.592C251.594 681.951 259.998 688.657 268.39 695.375C291.878 710.485 337.194 730.614 347.259 737.332C369.074 730.614 385.857 722.222 399.281 715.517C412.717 708.799 431.173 702.093 451.315 702.093C498.305 702.093 552 728.941 602.361 754.115L635.914 740.691C590.598 708.812 494.946 665.181 441.251 665.181C409.358 665.181 379.152 688.67 357.337 688.67C332.175 688.67 258.325 651.745 258.325 621.538C258.325 598.05 305.315 584.613 384.197 576.222C370.76 594.691 357.337 616.493 345.599 636.635L365.728 648.386C486.554 472.178 614.099 358.057 719.841 287.567C758.439 262.405 766.831 247.296 780.255 220.435C813.82 151.631 845.7 101.282 899.408 101.282C924.582 101.282 944.724 114.706 959.821 131.489L998.419 143.226L958.148 170.074L998.419 186.856C946.397 201.966 874.233 253.988 844.027 329.511C788.633 331.184 761.786 378.174 743.33 415.098C729.906 441.946 711.45 452.023 681.23 470.492L451.289 631.616L483.169 636.648L696.301 494.006C738.258 465.473 758.401 443.658 768.465 425.189C786.934 384.918 808.736 354.698 850.693 354.698C870.835 354.698 892.651 364.763 911.12 381.546L948.032 393.296L907.76 418.471L941.326 438.6C844.001 468.806 783.575 539.297 748.336 673.547L773.51 678.579C786.934 634.949 800.358 594.678 822.173 557.753C879.227 557.753 936.294 556.08 993.348 556.08C1142.71 556.08 1266.91 562.798 1334.04 581.254L1310.54 540.983C1238.37 527.559 1134.33 522.514 993.348 522.514C944.685 522.514 897.696 524.2 849.02 524.2C880.9 492.307 924.543 463.787 993.348 443.645L944.685 416.797L998.393 386.591L924.556 359.743C912.806 347.993 896.023 336.242 875.894 331.21C899.395 259.046 979.937 217.089 1057.13 188.556L1003.44 166.74L1057.13 136.534L973.232 109.673C951.404 84.5121 931.275 72.7615 897.709 72.7615C820.513 72.7615 788.62 139.893 756.74 198.633C741.631 230.513 731.566 243.936 703.033 262.405C644.293 301.003 567.097 361.417 494.933 436.939C458.021 410.079 379.139 329.537 358.997 285.894C350.618 295.958 342.214 319.459 342.214 319.459C350.605 327.851 441.238 418.483 474.804 458.755C473.118 460.428 469.771 463.8 468.085 467.146C431.16 473.864 337.181 483.929 305.302 478.884L288.519 510.763C312.02 509.09 404.313 497.34 444.597 495.654C432.846 509.077 421.096 524.187 409.345 539.284C288.519 552.708 209.65 577.882 209.65 621.512C209.65 628.231 211.323 636.622 211.323 645.013C211.323 663.469 204.605 670.188 191.181 678.579C182.789 683.611 182.789 688.644 186.149 693.689C189.508 698.734 207.964 725.569 207.964 730.614C207.964 740.678 199.572 749.07 192.854 757.461C186.136 764.18 186.136 765.853 191.181 774.244L226.42 848.081L263.332 874.954V874.954ZM1748.54 463.8C1741.82 470.518 1735.11 480.583 1728.4 488.961L1709.93 462.114C1773.71 376.526 1944.87 336.255 2045.57 327.864V282.547C2032.15 285.894 2018.72 290.926 2005.3 294.285C1988.53 297.644 1971.74 302.676 1958.31 301.003C1943.21 301.003 1931.46 295.971 1926.44 287.58C1913 269.124 1926.44 240.59 1970.06 213.743L1934.82 183.523C1907.98 218.775 1882.79 257.36 1855.94 279.188C1830.77 301.003 1805.61 311.068 1785.46 295.958C1773.71 287.567 1770.34 284.22 1768.67 262.405C1770.34 230.513 1788.81 181.85 1805.61 149.97L1765.33 144.938C1758.59 193.601 1738.49 233.872 1716.65 267.438C1691.5 309.395 1657.93 339.601 1622.67 363.09L1599.18 341.275C1627.7 324.492 1662.94 297.631 1686.45 260.719C1714.97 217.089 1738.49 163.381 1738.49 116.392L1855.95 126.469C1839.16 148.284 1812.34 196.96 1802.25 230.513C1797.2 248.969 1797.2 264.078 1803.92 269.124C1815.67 277.502 1837.48 262.405 1859.31 240.59C1889.51 207.037 1919.73 158.362 1931.45 141.579L2018.72 212.07C1980.11 232.212 1943.21 255.7 1949.92 269.124C1956.64 280.861 1981.81 277.502 2008.66 269.124C2030.48 262.405 2053.95 252.341 2072.42 240.59V356.397C2030.48 356.397 1959.97 364.776 1892.84 384.918C1909.64 406.746 1954.95 415.124 1983.47 420.157L1970.05 514.136C1896.23 482.256 1839.15 465.486 1748.54 463.8L1778.73 436.952C1844.19 438.626 1911.32 458.768 1948.25 477.224L1953.27 441.985C1919.73 436.952 1877.76 418.496 1859.31 396.681C1830.77 406.746 1802.25 420.17 1778.73 436.952L1748.54 463.8V463.8Z" fill="#63513D"/>
<path fill-rule="evenodd" clip-rule="evenodd" d="M1396.12 762.52L1422.97 702.107C1390.54 663.956 1360.83 623.582 1334.04 581.28L1310.54 541.009C1255.16 436.966 1275.3 386.617 1246.75 339.628C1221.6 302.703 1104.11 326.204 1085.64 329.563L1119.21 274.182L1052.07 279.214L1109.14 212.083C1115.86 202.018 1117.52 195.3 1124.24 171.799C1134.32 134.887 1164.51 74.4736 1255.16 74.4736C1354.15 74.4736 1386.05 155.029 1427.99 190.268C1487.31 237.996 1544.43 288.396 1599.18 341.314L1622.67 363.129C1653.86 394.216 1683.01 427.289 1709.94 462.14L1728.41 488.987C1849.24 663.521 1996.92 997.493 2064.05 1150.2C2069.1 1165.32 2074.13 1180.42 2079.15 1192.14C2033.86 1166.99 1985.17 1136.76 1933.16 1101.54L1904.62 1081.39L1849.24 1041.12L1819.04 1015.95C1800.4 1002.33 1782.48 987.772 1765.33 972.319L1825.72 1319.7C1829.09 1341.54 1847.56 1338.17 1860.99 1319.7C1874.41 1301.26 1881.13 1296.21 1874.41 1272.71L1819.03 1015.96L1849.22 1041.14L1902.93 1257.61C1907.98 1277.76 1916.35 1284.46 1939.87 1284.46C1963.36 1286.13 1966.72 1277.74 1963.36 1262.65L1904.62 1081.39L1933.16 1101.54L1988.54 1264.32C2003.64 1306.26 1988.54 1311.31 1963.37 1311.31C1939.88 1311.31 1916.38 1304.59 1902.96 1312.98C1889.53 1323.06 1872.76 1346.55 1850.92 1366.69C1834.15 1385.16 1807.3 1381.81 1802.26 1346.55L1735.13 945.471C1693.18 906.873 1651.23 866.589 1614.3 824.645C1599.2 817.926 1580.74 809.535 1563.97 802.83L1540.46 791.079C1530.41 786.034 1523.69 784.361 1522 782.688C1503.55 804.503 1485.08 829.677 1464.95 846.46C1454.88 856.524 1446.49 861.57 1431.39 861.57C1426.34 861.57 1419.64 861.57 1414.59 858.211C1407.87 854.851 1402.87 848.146 1396.15 838.068C1391.1 831.35 1384.4 821.286 1377.68 811.221C1364.26 789.406 1350.83 760.873 1337.41 739.057C1323.99 713.883 1310.56 695.427 1308.89 692.068C1307.19 687.036 1300.48 682.003 1300.48 682.003C1292.11 692.068 1287.06 713.883 1287.06 727.32L1263.57 718.928C1265.25 702.145 1271.95 680.33 1277 670.266C1277 661.874 1266.95 650.124 1258.53 650.124C1246.78 650.124 1235.04 661.874 1230.01 685.363L1204.83 697.113C1206.53 658.515 1219.93 616.558 1258.54 616.558C1288.76 616.558 1308.9 640.059 1322.33 661.874C1337.38 683.638 1386.05 749.096 1396.12 762.52L1414.57 786.008C1417.94 801.118 1424.64 809.509 1427.99 814.541C1434.71 824.606 1441.41 824.606 1451.49 814.541C1456.54 811.182 1469.96 799.432 1485.06 784.335C1496.81 772.584 1508.55 755.801 1513.58 749.096C1527 754.128 1553.85 767.552 1573.99 775.943C1485.06 665.195 1397.78 530.932 1360.85 440.312C1345.75 401.714 1375.97 389.963 1389.39 426.888C1429.66 527.585 1545.46 707.139 1631.06 801.118C1728.38 908.52 1907.96 1066.28 2025.42 1128.37C2008.65 1094.8 1986.83 1047.82 1959.96 992.435C1817.32 911.879 1674.68 764.193 1607.54 636.648L1636.06 640.007C1698.18 750.769 1847.54 898.456 1936.47 940.413C1855.92 769.238 1750.19 552.747 1669.63 460.441C1567.26 344.647 1456.51 254.014 1402.82 208.711C1350.78 161.721 1328.98 104.667 1255.13 104.667C1193.02 104.667 1159.45 149.984 1147.73 193.614C1144.35 203.678 1142.68 208.724 1137.65 217.115L1107.46 252.354L1171.22 245.636L1134.3 295.971C1134.3 295.971 1233.3 274.156 1268.57 321.146C1305.48 371.494 1281.99 428.548 1344.08 540.996C1370.92 589.659 1436.38 676.919 1458.2 697.061L1414.55 785.995L1396.12 762.52V762.52ZM419.397 777.629L404.287 767.565C412.679 760.847 429.461 749.109 446.244 742.391C454.276 739.266 462.79 737.564 471.406 737.358C488.189 737.358 503.285 744.077 516.722 752.468C538.537 764.219 563.711 777.642 583.854 777.642C590.559 777.642 597.277 775.956 605.669 775.956C625.811 775.956 644.267 784.348 654.331 784.348C661.05 784.348 664.396 779.315 669.441 772.597C679.506 757.487 694.602 745.75 713.071 739.031C731.527 730.64 756.702 727.281 781.876 727.281C803.691 727.281 822.147 730.64 832.225 732.313C832.225 732.313 817.115 750.769 813.769 755.814C791.953 755.814 753.355 754.141 728.181 764.206C711.398 770.924 706.366 780.989 706.366 792.739C706.366 811.195 728.181 819.587 749.996 826.305C765.106 829.664 780.203 831.337 791.953 831.337C808.736 831.337 838.943 824.619 869.149 817.914C906.074 811.195 939.64 801.131 949.705 797.771L963.128 821.273C922.857 834.696 880.9 848.12 842.302 854.838C820.487 859.884 800.345 863.23 781.889 863.23C750.009 863.23 716.443 849.806 689.583 836.382C666.082 826.318 645.953 814.567 625.811 814.567C605.669 814.567 585.54 821.286 567.071 833.023C557.006 838.068 528.473 858.198 503.298 868.275C483.156 874.993 468.059 880.026 447.917 880.026C431.135 880.026 419.384 876.666 410.993 869.961L441.199 851.492C446.231 854.851 452.937 856.525 456.296 856.525C461.341 856.525 466.36 854.851 478.124 849.806C484.829 848.133 494.894 841.415 501.612 838.056C513.363 829.664 516.722 824.632 521.754 821.273C531.819 814.554 535.178 804.49 523.427 794.425C516.722 789.393 511.69 784.361 504.971 779.315C493.221 772.597 486.515 767.565 466.373 767.565C444.571 767.552 427.788 772.584 419.397 777.629V777.629Z" fill="#63513D"/>
<path fill-rule="evenodd" clip-rule="evenodd" d="M845.661 789.367C845.661 789.367 827.192 784.335 822.16 784.335C833.91 767.552 850.693 754.128 862.431 745.737C887.605 728.954 912.78 718.889 953.051 717.203C963.115 715.53 984.93 713.844 996.681 713.844C1008.43 715.517 1026.89 715.517 1043.67 718.876C1055.42 720.55 1067.17 723.909 1077.22 725.595C1082.27 727.268 1102.4 727.268 1109.12 725.595C1137.64 720.562 1171.2 710.485 1188 700.42L1194.72 727.268C1157.78 747.41 1115.83 765.866 1075.55 765.866C1057.08 765.866 1035.28 764.193 1015.14 762.507C981.571 759.148 951.365 754.115 941.3 754.115C912.793 754.128 872.508 767.552 845.661 789.367V789.367ZM818.814 938.727L783.575 921.944C832.237 898.443 906.074 873.281 937.967 868.236C968.173 863.204 1003.41 859.858 1023.55 853.126C1033.62 876.628 1052.07 900.116 1077.25 900.116C1087.33 900.116 1102.42 893.411 1119.19 886.692C1137.66 878.301 1154.46 869.922 1164.51 866.55C1174.59 861.518 1206.48 848.094 1235.01 834.671C1245.06 829.638 1273.6 816.214 1275.28 816.214L1293.73 826.279C1288.71 849.78 1278.63 879.987 1268.58 901.802C1265.21 910.18 1260.17 916.912 1256.83 921.944C1248.45 930.335 1235.01 943.759 1218.22 955.51C1199.77 968.933 1176.27 982.357 1152.76 995.781C1134.32 1005.85 1115.85 1017.6 1095.72 1025.99L1087.34 1007.53C1116.87 990.069 1145.44 971.023 1172.91 950.477C1184.23 942.371 1194.89 933.395 1204.81 923.63C1211.53 918.598 1214.88 913.553 1218.23 908.52C1226.61 898.456 1240.05 874.955 1243.4 864.89C1231.65 869.935 1191.37 890.051 1172.9 898.456C1151.09 910.193 1117.52 926.989 1097.39 937.067C1083.97 943.772 1070.54 947.131 1060.48 947.131C1038.65 947.131 1028.59 932.022 1023.55 921.957C1010.13 898.456 996.707 896.783 958.109 896.783C914.466 895.097 854.065 913.553 818.814 938.727V938.727ZM1025.23 827.965C1025.23 827.965 1020.2 807.823 1016.84 799.432C1016.84 799.432 1023.55 797.759 1031.95 797.759C1043.7 797.759 1077.25 801.118 1090.67 801.118C1141.03 801.118 1159.48 786.008 1174.6 772.584C1188.02 760.834 1201.45 750.769 1235.01 750.769C1265.21 750.769 1300.45 762.52 1310.52 767.552L1308.85 796.085C1293.73 787.694 1273.59 782.662 1255.14 782.662C1243.39 782.662 1231.64 782.662 1223.25 787.694C1214.86 792.726 1208.15 799.445 1199.76 806.15C1191.36 812.868 1179.59 819.574 1162.82 826.292C1147.73 832.997 1127.58 836.357 1097.37 836.357C1058.81 836.357 1036.98 829.651 1025.23 827.965V827.965Z" fill="#63513D"/>
<path fill-rule="evenodd" clip-rule="evenodd" d="M703.02 1037.74L726.521 1027.67C746.65 1036.06 778.542 1046.14 800.358 1046.14C813.781 1046.14 823.859 1041.1 832.237 1037.74C838.956 1034.39 917.825 995.794 956.423 982.37C968.173 977.325 981.597 975.652 986.629 975.652C996.694 975.652 996.694 979.011 1000.05 984.043C1006.77 995.794 1065.51 1078.01 1070.53 1083.05C1119.19 1067.96 1169.55 1046.14 1198.08 1019.28C1228.29 990.749 1253.46 957.183 1278.63 930.336C1287.01 920.258 1298.77 911.88 1303.8 908.52C1328.98 895.097 1407.84 893.411 1439.73 895.097L1421.26 921.944C1362.54 921.944 1330.65 928.662 1315.56 938.727C1310.51 943.759 1300.43 953.837 1292.05 965.574C1271.91 990.749 1250.11 1025.99 1241.72 1032.71C1258.49 1044.43 1276.96 1054.52 1307.15 1054.52C1355.84 1054.52 1391.08 1024.3 1409.55 1007.53L1426.32 1015.92C1414.4 1032.87 1399.64 1047.64 1382.7 1059.57C1362.56 1072.99 1337.38 1083.05 1323.96 1086.41C1295.44 1081.37 1233.33 1067.94 1218.23 1066.27C1164.52 1088.09 1075.59 1123.31 1047.06 1131.7C1040.57 1133.93 1033.77 1135.07 1026.91 1135.08C1003.41 1136.75 971.532 1136.75 941.326 1135.08C921.197 1135.08 901.055 1135.08 890.977 1133.4L864.13 1106.56C887.618 1111.57 896.01 1111.57 917.825 1111.57C968.173 1111.57 1001.74 1103.2 1011.8 1101.52C1021.87 1098.18 1023.55 1093.14 1020.2 1084.73C1015.16 1073 1008.44 1059.58 996.694 1046.14C989.976 1039.42 976.552 1027.67 971.52 1024.31C964.801 1019.28 958.096 1017.61 937.954 1024.31C921.184 1029.36 865.79 1059.57 842.302 1072.99C830.551 1078.01 820.487 1081.37 800.345 1076.34C776.856 1071.3 723.149 1051.19 703.02 1037.74V1037.74ZM855.725 426.888C865.79 426.888 875.868 416.824 875.868 406.746C875.868 394.995 865.803 386.604 855.725 386.604C843.988 386.604 835.583 394.982 835.583 406.746C835.596 416.811 843.988 426.888 855.725 426.888ZM1615.95 1586.51C1615.95 1571.42 1602.52 1557.99 1585.75 1557.99H1543.81C1527.01 1557.99 1513.59 1571.42 1513.59 1586.51L1515.26 2036.28C1515.26 2051.38 1527.01 2064.8 1543.81 2064.8H1585.75C1602.52 2064.8 1615.95 2051.38 1615.95 2036.28V1586.51V1586.51ZM1669.66 1599.94V1620.08C1669.66 1630.16 1676.37 1636.88 1686.45 1636.88H1981.81C1995.24 1636.88 2006.99 1625.13 2006.99 1611.7V1576.46C2006.99 1563.04 1995.24 1549.62 1981.81 1551.29C1981.81 1551.29 1696.5 1579.81 1686.45 1581.48C1676.36 1581.48 1669.66 1589.89 1669.66 1599.94V1599.94ZM1429.69 2064.8C1355.85 2064.8 1310.52 2009.42 1310.52 1947.33V1767.75H1288.71C1278.63 1767.75 1268.57 1757.7 1268.57 1747.61V1717.39C1268.57 1705.67 1278.62 1697.28 1288.71 1697.28H1310.52V1586.5C1310.52 1571.4 1322.27 1557.98 1339.04 1557.98H1380.99C1396.11 1557.98 1407.84 1571.4 1407.84 1586.5V1697.28H1473.29C1485.04 1697.28 1493.44 1705.65 1493.44 1717.39V1747.61C1493.44 1757.69 1485.06 1767.75 1473.29 1767.75H1407.84V1933.91C1407.84 1965.78 1427.98 1989.29 1463.23 1989.29H1469.95C1481.67 1989.29 1491.76 1997.67 1491.76 2011.11V2043C1491.76 2054.75 1481.69 2064.81 1469.95 2064.81H1429.69V2064.8V2064.8ZM926.216 1875.17C926.216 1779.52 869.162 1683.87 739.931 1683.87C620.778 1683.87 555.333 1777.84 555.333 1875.17C555.333 1979.2 625.811 2071.52 741.605 2071.52C820.487 2071.52 897.683 2031.25 912.779 1962.44C914.453 1954.07 907.747 1940.63 895.997 1940.63H838.943C828.878 1940.63 820.487 1945.67 815.441 1954.05C798.659 1977.54 775.17 1989.29 741.605 1989.29C691.256 1989.29 657.69 1950.68 654.331 1907.06H894.311C916.152 1907.06 926.216 1895.31 926.216 1875.17V1875.17ZM656.017 1834.9C659.376 1792.95 696.288 1761.06 739.931 1761.06C785.248 1761.06 822.16 1792.95 827.192 1834.9H656.017ZM2017.05 1875.17C2017.05 1779.52 1959.98 1683.87 1830.77 1683.87C1711.6 1683.87 1646.18 1777.84 1646.18 1875.17C1646.18 1979.2 1716.66 2071.52 1832.47 2071.52C1911.32 2071.52 1988.53 2031.25 2003.63 1962.44C2005.3 1954.07 1998.58 1940.63 1986.86 1940.63H1929.79C1925.04 1940.58 1920.35 1941.8 1916.22 1944.16C1912.1 1946.52 1908.67 1949.93 1906.29 1954.05C1889.52 1977.54 1866.03 1989.29 1830.78 1989.29C1782.12 1989.29 1748.55 1950.68 1745.2 1907.06H1985.17C2007 1907.06 2017.05 1895.31 2017.05 1875.17V1875.17ZM1746.86 1834.9C1750.21 1792.95 1787.14 1761.06 1830.77 1761.06C1876.08 1761.06 1912.99 1792.95 1916.37 1834.9H1746.86Z" fill="#63513D"/>
<path fill-rule="evenodd" clip-rule="evenodd" d="M1229.97 1563.04H454.636C436.18 1563.04 422.743 1578.14 422.743 1594.91L424.416 1900.36C424.416 1900.36 258.273 1598.28 249.882 1583.18C241.491 1568.06 223.022 1554.63 199.533 1554.63H135.761C117.305 1554.63 103.881 1569.76 103.881 1586.53V2032.92C103.881 2051.39 117.305 2064.81 135.761 2064.81H176.032C194.488 2064.81 207.912 2051.39 207.912 2032.92L206.239 1720.79C206.239 1720.79 374.055 2024.54 382.446 2036.29C390.837 2053.06 407.62 2064.81 431.109 2064.81H489.836C508.305 2064.81 521.728 2051.39 521.728 2032.92V1638.56H1229.93C1241.68 1638.56 1251.74 1628.48 1251.74 1616.75V1584.85C1251.78 1573.09 1241.73 1563.04 1229.97 1563.04V1563.04Z" fill="#63513D"/>
<path fill-rule="evenodd" clip-rule="evenodd" d="M1104.1 1757.7C1137.66 1757.7 1162.84 1769.43 1172.9 1791.27C1176.27 1801.32 1184.65 1802.99 1196.4 1802.99H1243.39C1250.11 1802.99 1260.16 1796.27 1260.16 1786.22C1260.16 1732.52 1194.73 1683.85 1104.1 1683.85C1010.12 1683.85 948.031 1729.14 948.031 1799.65C948.031 1855.03 991.662 1886.92 1043.68 1902.02C1068.86 1907.06 1110.8 1917.11 1130.94 1923.83C1151.09 1928.88 1171.22 1935.58 1171.22 1954.05C1171.22 1984.25 1141.02 1992.66 1105.76 1992.66C1073.89 1992.66 1042 1979.21 1033.61 1955.72C1028.56 1942.3 1018.5 1940.63 1005.07 1940.63H958.083C949.691 1940.63 939.627 1949.01 939.627 1959.1V1965.79C939.627 2017.82 1010.12 2071.52 1107.46 2071.52C1174.59 2071.52 1270.24 2043 1270.24 1952.38C1270.24 1898.64 1235 1861.75 1176.26 1846.65C1154.45 1841.6 1100.75 1826.51 1088.99 1824.83C1067.17 1818.12 1047.03 1811.41 1047.03 1794.61C1047.04 1766.09 1072.23 1757.7 1104.1 1757.7V1757.7Z" fill="#63513D"/>
</svg>
