<svg width="2079" height="2072" viewBox="0 0 2079 2072" fill="none" xmlns="http://www.w3.org/2000/svg">
<path fill-rule="evenodd" clip-rule="evenodd" d="M1224.09 213.743C1237.51 213.743 1249.27 203.678 1249.27 190.242C1249.27 176.818 1237.51 166.74 1224.09 166.74C1210.67 166.74 1200.6 176.805 1200.6 190.242C1200.6 203.678 1210.67 213.743 1224.09 213.743ZM900.197 171.786C911.947 171.786 920.339 161.721 920.339 151.657C920.339 139.906 911.947 131.515 900.197 131.515C888.446 131.515 880.055 139.906 880.055 151.657C880.055 161.721 888.446 171.786 900.197 171.786ZM656.858 668.541L646.794 658.476C675.327 631.616 703.848 591.345 708.893 567.843C712.239 544.342 745.805 549.387 739.099 572.876C730.695 604.768 693.783 641.693 656.858 668.541ZM450.444 180.177C400.096 202.005 393.39 254.014 428.616 285.907C470.573 322.832 542.737 290.939 536.019 232.212C593.073 235.571 629.998 175.158 621.606 134.874C646.781 113.046 648.467 66.0691 618.247 47.6002C584.694 27.4582 554.475 34.1765 534.346 72.7745C482.324 69.4283 431.975 109.699 450.444 180.177L426.943 170.113C395.063 101.308 450.444 32.5034 519.249 49.2863C534.359 15.7335 584.707 -19.5183 641.761 14.0474C685.392 40.8948 695.456 111.386 648.48 144.951C670.295 208.724 624.978 262.431 557.847 255.713C549.456 339.627 472.259 349.692 420.238 311.094C391.704 287.593 379.967 257.386 374.921 233.898C368.203 208.737 368.203 186.908 344.715 161.747C326.259 143.278 292.693 143.278 292.693 143.278C292.693 82.865 237.312 27.4841 166.822 54.3445C141.66 32.5293 109.768 30.8432 87.9524 57.7036C76.2018 72.8134 67.8104 113.085 108.094 131.541C106.421 186.921 148.366 222.16 210.465 217.128C212.138 245.661 244.031 274.182 274.237 277.541L272.564 292.651C242.357 289.292 225.575 299.369 205.433 324.531C133.269 321.171 82.9201 354.737 84.6062 406.772C34.2576 415.15 24.193 468.858 52.7265 497.392C81.26 525.925 123.217 514.175 138.314 480.622C190.336 490.686 235.652 453.774 237.325 411.804C284.315 411.804 306.13 391.662 314.521 348.032L331.304 349.718C336.336 396.707 314.521 442.011 257.467 436.991C255.794 494.045 202.086 524.265 150.065 505.796C126.563 551.112 71.1825 567.895 25.8791 524.265C-19.4372 482.308 -2.65439 410.144 56.0857 391.675C56.0857 336.294 98.0429 284.272 176.912 304.402C176.912 304.402 186.977 279.24 212.151 277.554C195.368 270.849 183.617 262.457 180.271 243.988C119.858 257.412 69.5094 202.044 82.9331 146.663C29.2253 118.13 27.5522 64.435 54.3996 32.5423C82.9331 -1.02344 129.923 -7.72882 170.194 27.51C242.357 -11.088 321.24 37.5746 316.194 118.13C366.53 114.771 396.75 156.728 390.031 202.044C398.41 181.902 408.487 173.511 426.943 170.151L450.444 180.177V180.177Z" fill="white"/>
<path fill-rule="evenodd" clip-rule="evenodd" d="M572.957 82.8521L584.708 91.2435C561.206 141.592 520.935 191.941 485.683 222.147L472.26 210.397C497.434 170.113 549.456 102.981 572.957 82.8521V82.8521ZM227.235 351.365L233.953 364.789C205.433 393.322 151.725 433.593 121.518 448.703L111.454 435.279C138.288 405.06 191.996 366.462 227.235 351.365ZM296.052 207.038L282.629 223.807C244.031 198.646 168.508 131.515 151.725 106.327L163.463 94.5897C200.387 113.046 270.865 176.818 296.052 207.038V207.038ZM225.562 848.107C230.594 869.935 225.562 895.096 245.704 918.598C252.422 926.989 291.007 977.325 319.541 1002.51C280.93 1017.62 205.42 1049.5 151.725 1056.21C139.974 1057.88 128.224 1064.59 118.159 1071.3C111.441 1083.05 104.735 1103.2 101.376 1126.7C99.6902 1143.47 99.6902 1161.94 99.6902 1180.41C99.6902 1197.18 108.082 1250.88 126.551 1286.11C145.007 1321.37 163.462 1338.14 185.291 1348.22C190.323 1346.52 200.4 1344.85 215.497 1344.85C255.768 1343.18 287.648 1366.66 302.771 1385.12C307.803 1393.5 319.554 1395.2 332.977 1395.2C366.53 1395.2 403.455 1383.45 437.021 1370.02C445.412 1364.98 465.541 1349.88 485.683 1334.78C507.511 1317.99 621.619 1220.66 671.968 1197.16C698.816 1210.59 742.459 1229.06 787.762 1229.06C789.435 1229.06 797.827 1230.73 807.904 1227.38C821.328 1224.01 839.797 1218.98 863.298 1213.96C903.569 1205.55 950.559 1198.84 965.668 1198.84C1002.59 1200.53 1111.66 1202.21 1138.54 1202.21C1165.36 1202.21 1203.97 1200.53 1219.07 1198.84C1242.57 1190.46 1294.61 1177.02 1343.27 1155.22C1391.93 1133.42 1494.3 1061.24 1511.09 1044.44C1519.46 1037.73 1527.86 1029.35 1532.9 1022.64C1534.57 1019.28 1536.27 1017.61 1536.27 1015.92C1536.27 1014.24 1534.57 943.759 1534.57 943.759C1534.57 943.759 1559.75 916.912 1569.84 906.834V903.475C1564.79 890.038 1561.43 846.421 1563.12 802.791L1539.62 791.04C1537.95 844.748 1517.8 891.737 1499.35 921.944C1462.44 926.976 1390.27 948.791 1365.09 978.998L1380.18 982.357C1403.68 968.933 1428.87 960.542 1459.06 960.542C1484.24 960.542 1496 967.247 1496 973.966C1496 978.998 1490.96 990.749 1489.28 995.781C1487.58 999.14 1485.91 1005.85 1480.88 1009.2C1445.64 1047.8 1407.04 1079.7 1358.38 1106.54C1326.49 1124.99 1294.62 1136.74 1247.63 1151.83C1232.51 1155.21 1212.37 1160.24 1200.64 1165.28C1182.17 1165.28 1088.19 1161.91 1032.81 1161.91C977.432 1161.91 863.324 1170.29 828.072 1178.68C811.289 1183.73 806.257 1190.43 787.801 1190.43C752.562 1190.43 705.573 1171.96 677.039 1158.54C672.007 1158.54 661.942 1163.58 651.878 1168.62C631.736 1178.67 586.42 1242.45 559.572 1222.32C546.148 1250.84 487.421 1276.03 468.952 1304.55C470.625 1291.13 494.114 1193.8 495.8 1173.66C495.8 1170.29 497.486 1166.94 494.127 1163.58C473.998 1128.34 413.571 1106.54 380.019 1099.82C371.627 1098.15 366.582 1096.45 359.877 1094.78L306.169 1079.68L257.506 1094.78L314.56 1104.83L242.396 1153.52C255.82 1148.47 333.016 1126.67 338.049 1124.97C344.767 1123.3 353.158 1121.63 361.55 1124.97C373.3 1128.34 401.834 1135.05 420.29 1141.77C430.354 1145.14 447.137 1163.58 452.169 1173.66C453.856 1178.68 453.856 1187.08 455.529 1207.23C455.529 1218.95 453.856 1237.42 450.496 1250.84C442.105 1286.08 425.322 1312.93 420.29 1323.01C413.571 1336.43 405.18 1341.48 395.115 1344.82C380.019 1353.2 359.877 1356.57 339.735 1358.25C324.625 1358.25 314.56 1356.57 307.842 1348.2C289.386 1321.35 240.723 1296.16 192.048 1306.23C161.841 1287.78 131.635 1229.04 131.635 1182.05C131.635 1153.53 145.058 1108.22 153.45 1086.4C202.125 1079.68 301.137 1042.76 348.126 1020.94C358.191 1020.94 386.737 1010.88 413.571 1010.88C477.344 1010.88 541.116 1066.27 579.714 1104.84C586.432 1094.79 598.17 1078 631.736 1078C677.052 1078 703.9 1119.97 715.65 1161.92L739.139 1145.15C735.779 1121.65 722.356 1094.79 703.9 1074.65C688.79 1059.55 658.596 1046.13 635.095 1046.13C619.985 1046.13 606.562 1049.48 596.497 1049.48C564.617 1049.48 551.181 1034.38 526.019 1017.6C500.845 1000.81 452.169 973.966 416.931 973.966C395.103 973.966 385.038 982.357 366.582 982.357C339.735 982.357 329.67 972.293 317.919 955.51C311.214 948.791 284.354 925.303 277.648 915.239C272.616 908.52 265.898 886.705 262.539 874.967L225.562 848.107V848.107Z" fill="white"/>
<path fill-rule="evenodd" clip-rule="evenodd" d="M262.487 874.954C270.865 883.346 277.596 891.737 287.648 900.116C297.713 906.834 309.476 913.539 319.541 920.258C336.311 928.649 354.78 938.727 371.562 945.432C388.345 948.791 408.474 950.464 426.943 950.464C453.804 950.464 485.683 945.432 512.531 958.856C531 965.574 531 985.703 546.097 990.735C567.912 999.127 628.325 1000.8 661.904 1000.8C729.035 1000.8 801.186 992.409 844.829 982.344L824.687 958.843C794.481 963.875 707.207 973.953 666.936 973.953C611.555 973.953 557.847 963.888 557.847 942.073C557.847 925.29 574.63 901.802 608.196 901.802C643.435 901.802 697.142 923.617 707.207 926.976C717.271 928.649 720.631 928.649 727.349 925.303L747.491 915.238C720.644 901.815 624.979 869.935 591.426 869.935C576.316 869.935 566.252 871.608 556.174 885.032C544.436 901.815 509.185 916.912 455.477 916.912C425.27 916.912 381.64 910.193 373.248 906.847C356.466 900.129 324.586 881.673 304.444 866.576C277.596 848.12 254.095 826.305 238.998 801.13C233.953 794.412 230.607 786.021 230.607 777.629C230.607 770.911 233.966 765.879 233.966 760.846C239.011 767.565 244.044 772.597 250.749 777.629C279.283 806.163 321.24 826.292 364.87 834.683C378.307 838.042 388.371 839.716 401.795 839.716C420.251 839.716 437.034 829.651 448.784 819.574L430.328 799.431C425.283 801.105 413.546 801.105 406.827 801.105C343.055 801.105 262.5 760.833 244.044 712.158C242.371 707.126 239.011 705.44 242.371 700.407C244.044 695.375 245.73 686.984 247.403 678.592C250.749 681.951 259.153 688.657 267.545 695.375C291.033 710.485 336.349 730.614 346.414 737.332C368.229 730.614 385.012 722.222 398.436 715.517C411.872 708.799 430.328 702.093 450.47 702.093C497.46 702.093 551.155 728.941 601.516 754.115L635.069 740.691C589.753 708.812 494.101 665.181 440.406 665.181C408.513 665.181 378.307 688.67 356.492 688.67C331.33 688.67 257.48 651.745 257.48 621.538C257.48 598.05 304.47 584.613 383.352 576.222C369.915 594.691 356.492 616.493 344.754 636.635L364.883 648.386C485.709 472.178 613.254 358.057 718.996 287.567C757.594 262.405 765.986 247.296 779.41 220.435C812.975 151.631 844.855 101.282 898.563 101.282C923.737 101.282 943.879 114.706 958.976 131.489L997.574 143.226L957.303 170.074L997.574 186.856C945.552 201.966 873.389 253.988 843.182 329.511C787.788 331.184 760.941 378.174 742.485 415.098C729.061 441.946 710.605 452.023 680.386 470.492L450.445 631.616L482.324 636.648L695.456 494.006C737.414 465.473 757.556 443.658 767.62 425.189C786.089 384.918 807.891 354.698 849.848 354.698C869.99 354.698 891.806 364.763 910.275 381.546L947.187 393.296L906.915 418.471L940.481 438.6C843.156 468.806 782.73 539.297 747.491 673.547L772.665 678.579C786.089 634.949 799.513 594.678 821.328 557.753C878.382 557.753 935.449 556.08 992.503 556.08C1141.86 556.08 1266.06 562.798 1333.19 581.254L1309.69 540.983C1237.53 527.559 1133.48 522.514 992.503 522.514C943.84 522.514 896.851 524.2 848.175 524.2C880.055 492.307 923.698 463.787 992.503 443.645L943.84 416.797L997.548 386.591L923.711 359.743C911.961 347.993 895.178 336.242 875.049 331.21C898.55 259.046 979.092 217.089 1056.29 188.556L1002.59 166.74L1056.29 136.534L972.387 109.673C950.559 84.5121 930.43 72.7615 896.864 72.7615C819.668 72.7615 787.775 139.893 755.895 198.633C740.786 230.513 730.721 243.936 702.188 262.405C643.448 301.003 566.252 361.417 494.088 436.939C457.176 410.079 378.294 329.537 358.152 285.894C349.773 295.958 341.369 319.459 341.369 319.459C349.76 327.851 440.393 418.483 473.959 458.755C472.273 460.428 468.926 463.8 467.24 467.146C430.315 473.864 336.337 483.929 304.457 478.884L287.674 510.763C311.175 509.09 403.468 497.34 443.752 495.654C432.002 509.077 420.251 524.187 408.5 539.284C287.674 552.708 208.805 577.882 208.805 621.512C208.805 628.231 210.478 636.622 210.478 645.013C210.478 663.469 203.76 670.188 190.336 678.579C181.944 683.611 181.944 688.644 185.304 693.689C188.663 698.734 207.119 725.569 207.119 730.614C207.119 740.678 198.727 749.07 192.009 757.461C185.291 764.18 185.291 765.853 190.336 774.244L225.575 848.081L262.487 874.954V874.954ZM1747.69 463.8C1740.98 470.518 1734.27 480.583 1727.55 488.961L1709.08 462.114C1772.87 376.526 1944.03 336.255 2044.73 327.864V282.547C2031.3 285.894 2017.88 290.926 2004.46 294.285C1987.69 297.644 1970.89 302.676 1957.47 301.003C1942.37 301.003 1930.62 295.971 1925.6 287.58C1912.15 269.124 1925.6 240.59 1969.22 213.743L1933.98 183.523C1907.13 218.775 1881.94 257.36 1855.1 279.188C1829.92 301.003 1804.76 311.068 1784.62 295.958C1772.87 287.567 1769.5 284.22 1767.82 262.405C1769.5 230.513 1787.96 181.85 1804.76 149.97L1764.49 144.938C1757.74 193.601 1737.64 233.872 1715.8 267.438C1690.65 309.395 1657.09 339.601 1621.82 363.09L1598.33 341.275C1626.85 324.492 1662.09 297.631 1685.61 260.719C1714.13 217.089 1737.64 163.381 1737.64 116.392L1855.11 126.469C1838.31 148.284 1811.49 196.96 1801.4 230.513C1796.36 248.969 1796.36 264.078 1803.07 269.124C1814.82 277.502 1836.64 262.405 1858.47 240.59C1888.66 207.037 1918.88 158.362 1930.61 141.579L2017.88 212.07C1979.27 232.212 1942.37 255.7 1949.07 269.124C1955.79 280.861 1980.97 277.502 2007.81 269.124C2029.63 262.405 2053.11 252.341 2071.57 240.59V356.397C2029.63 356.397 1959.13 364.776 1892 384.918C1908.79 406.746 1954.11 415.124 1982.63 420.157L1969.2 514.136C1895.38 482.256 1838.3 465.486 1747.69 463.8L1777.89 436.952C1843.35 438.626 1910.48 458.768 1947.4 477.224L1952.42 441.985C1918.88 436.952 1876.91 418.496 1858.47 396.681C1829.92 406.746 1801.4 420.17 1777.89 436.952L1747.69 463.8V463.8Z" fill="white"/>
<path fill-rule="evenodd" clip-rule="evenodd" d="M1395.28 762.52L1422.13 702.107C1389.7 663.956 1359.98 623.582 1333.19 581.28L1309.69 541.009C1254.31 436.966 1274.45 386.617 1245.91 339.628C1220.76 302.703 1103.26 326.204 1084.8 329.563L1118.36 274.182L1051.23 279.214L1108.3 212.083C1115.02 202.018 1116.68 195.3 1123.39 171.799C1133.47 134.887 1163.66 74.4736 1254.31 74.4736C1353.31 74.4736 1385.2 155.029 1427.15 190.268C1486.47 237.996 1543.59 288.396 1598.33 341.314L1621.82 363.129C1653.02 394.216 1682.17 427.289 1709.1 462.14L1727.56 488.987C1848.39 663.521 1996.08 997.493 2063.21 1150.2C2068.25 1165.32 2073.29 1180.42 2078.31 1192.14C2033.02 1166.99 1984.33 1136.76 1932.32 1101.54L1903.77 1081.39L1848.39 1041.12L1818.2 1015.95C1799.56 1002.33 1781.63 987.772 1764.49 972.319L1824.88 1319.7C1828.25 1341.54 1846.72 1338.17 1860.14 1319.7C1873.56 1301.26 1880.28 1296.21 1873.56 1272.71L1818.18 1015.96L1848.38 1041.14L1902.09 1257.61C1907.13 1277.76 1915.51 1284.46 1939.02 1284.46C1962.51 1286.13 1965.87 1277.74 1962.51 1262.65L1903.77 1081.39L1932.32 1101.54L1987.7 1264.32C2002.8 1306.26 1987.7 1311.31 1962.52 1311.31C1939.04 1311.31 1915.54 1304.59 1902.11 1312.98C1888.69 1323.06 1871.92 1346.55 1850.08 1366.69C1833.31 1385.16 1806.46 1381.81 1801.41 1346.55L1734.28 945.471C1692.34 906.873 1650.38 866.589 1613.46 824.645C1598.36 817.926 1579.89 809.535 1563.12 802.83L1539.62 791.079C1529.57 786.034 1522.85 784.361 1521.15 782.688C1502.71 804.503 1484.24 829.677 1464.11 846.46C1454.03 856.524 1445.64 861.57 1430.54 861.57C1425.5 861.57 1418.79 861.57 1413.75 858.211C1407.03 854.851 1402.02 848.146 1395.3 838.068C1390.26 831.35 1383.55 821.286 1376.84 811.221C1363.41 789.406 1349.99 760.873 1336.56 739.057C1323.14 713.883 1309.72 695.427 1308.04 692.068C1306.35 687.036 1299.64 682.003 1299.64 682.003C1291.26 692.068 1286.22 713.883 1286.22 727.32L1262.73 718.928C1264.4 702.145 1271.11 680.33 1276.15 670.266C1276.15 661.874 1266.1 650.124 1257.68 650.124C1245.93 650.124 1234.19 661.874 1229.16 685.363L1203.99 697.113C1205.69 658.515 1219.08 616.558 1257.7 616.558C1287.92 616.558 1308.06 640.059 1321.48 661.874C1336.54 683.638 1385.2 749.096 1395.28 762.52L1413.72 786.008C1417.09 801.118 1423.8 809.509 1427.15 814.541C1433.86 824.606 1440.57 824.606 1450.65 814.541C1455.69 811.182 1469.12 799.432 1484.21 784.335C1495.96 772.584 1507.7 755.801 1512.73 749.096C1526.16 754.128 1553 767.552 1573.15 775.943C1484.21 665.195 1396.94 530.932 1360 440.312C1344.9 401.714 1375.12 389.963 1388.55 426.888C1428.82 527.585 1544.61 707.139 1630.21 801.118C1727.54 908.52 1907.12 1066.28 2024.57 1128.37C2007.8 1094.8 1985.99 1047.82 1959.11 992.435C1816.47 911.879 1673.83 764.193 1606.7 636.648L1635.22 640.007C1697.33 750.769 1846.69 898.456 1935.63 940.413C1855.07 769.238 1749.34 552.747 1668.79 460.441C1566.41 344.647 1455.67 254.014 1401.97 208.711C1349.94 161.721 1328.13 104.667 1254.28 104.667C1192.17 104.667 1158.61 149.984 1146.88 193.614C1143.51 203.678 1141.84 208.724 1136.8 217.115L1106.61 252.354L1170.37 245.636L1133.46 295.971C1133.46 295.971 1232.46 274.156 1267.72 321.146C1304.63 371.494 1281.15 428.548 1343.23 540.996C1370.08 589.659 1435.54 676.919 1457.35 697.061L1413.71 785.995L1395.28 762.52V762.52ZM418.552 777.629L403.442 767.565C411.834 760.847 428.616 749.109 445.399 742.391C453.431 739.266 461.945 737.564 470.561 737.358C487.344 737.358 502.44 744.077 515.877 752.468C537.692 764.219 562.867 777.642 583.009 777.642C589.714 777.642 596.432 775.956 604.824 775.956C624.966 775.956 643.422 784.348 653.486 784.348C660.205 784.348 663.551 779.315 668.596 772.597C678.661 757.487 693.757 745.75 712.226 739.031C730.682 730.64 755.857 727.281 781.031 727.281C802.846 727.281 821.302 730.64 831.38 732.313C831.38 732.313 816.27 750.769 812.924 755.814C791.108 755.814 752.51 754.141 727.336 764.206C710.553 770.924 705.521 780.989 705.521 792.739C705.521 811.195 727.336 819.587 749.151 826.305C764.261 829.664 779.358 831.337 791.108 831.337C807.891 831.337 838.098 824.619 868.304 817.914C905.229 811.195 938.795 801.131 948.86 797.771L962.283 821.273C922.012 834.696 880.055 848.12 841.457 854.838C819.642 859.884 799.5 863.23 781.044 863.23C749.164 863.23 715.598 849.806 688.738 836.382C665.237 826.318 645.108 814.567 624.966 814.567C604.824 814.567 584.695 821.286 566.226 833.023C556.161 838.068 527.628 858.198 502.453 868.275C482.311 874.993 467.215 880.026 447.072 880.026C430.29 880.026 418.539 876.666 410.148 869.961L440.354 851.492C445.386 854.851 452.092 856.525 455.451 856.525C460.496 856.525 465.515 854.851 477.279 849.806C483.984 848.133 494.049 841.415 500.767 838.056C512.518 829.664 515.877 824.632 520.909 821.273C530.974 814.554 534.333 804.49 522.582 794.425C515.877 789.393 510.845 784.361 504.126 779.315C492.376 772.597 485.67 767.565 465.528 767.565C443.726 767.552 426.943 772.584 418.552 777.629V777.629Z" fill="white"/>
<path fill-rule="evenodd" clip-rule="evenodd" d="M844.816 789.367C844.816 789.367 826.347 784.335 821.315 784.335C833.066 767.552 849.848 754.128 861.586 745.737C886.76 728.954 911.935 718.889 952.206 717.203C962.27 715.53 984.086 713.844 995.836 713.844C1007.59 715.517 1026.04 715.517 1042.83 718.876C1054.58 720.55 1066.33 723.909 1076.38 725.595C1081.42 727.268 1101.55 727.268 1108.27 725.595C1136.79 720.562 1170.36 710.485 1187.15 700.42L1193.87 727.268C1156.93 747.41 1114.99 765.866 1074.71 765.866C1056.24 765.866 1034.43 764.193 1014.29 762.507C980.726 759.148 950.52 754.115 940.455 754.115C911.948 754.128 871.664 767.552 844.816 789.367V789.367ZM817.969 938.727L782.73 921.944C831.393 898.443 905.229 873.281 937.122 868.236C967.329 863.204 1002.57 859.858 1022.71 853.126C1032.77 876.628 1051.23 900.116 1076.4 900.116C1086.48 900.116 1101.58 893.411 1118.35 886.692C1136.82 878.301 1153.61 869.922 1163.66 866.55C1173.74 861.518 1205.64 848.094 1234.17 834.671C1244.22 829.638 1272.75 816.214 1274.44 816.214L1292.88 826.279C1287.86 849.78 1277.79 879.987 1267.73 901.802C1264.36 910.18 1259.33 916.912 1255.98 921.944C1247.61 930.335 1234.17 943.759 1217.37 955.51C1198.93 968.933 1175.43 982.357 1151.91 995.781C1133.47 1005.85 1115 1017.6 1094.87 1025.99L1086.49 1007.53C1116.03 990.069 1144.59 971.023 1172.07 950.477C1183.38 942.371 1194.05 933.395 1203.96 923.63C1210.68 918.598 1214.04 913.553 1217.39 908.52C1225.76 898.456 1239.2 874.955 1242.56 864.89C1230.81 869.935 1190.53 890.051 1172.06 898.456C1150.24 910.193 1116.68 926.989 1096.55 937.067C1083.12 943.772 1069.7 947.131 1059.63 947.131C1037.81 947.131 1027.74 932.022 1022.71 921.957C1009.29 898.456 995.862 896.783 957.264 896.783C913.621 895.097 853.221 913.553 817.969 938.727V938.727ZM1024.38 827.965C1024.38 827.965 1019.35 807.823 1015.99 799.432C1015.99 799.432 1022.71 797.759 1031.1 797.759C1042.85 797.759 1076.4 801.118 1089.83 801.118C1140.19 801.118 1158.63 786.008 1173.76 772.584C1187.18 760.834 1200.6 750.769 1234.17 750.769C1264.36 750.769 1299.6 762.52 1309.68 767.552L1308.01 796.085C1292.88 787.694 1272.74 782.662 1254.3 782.662C1242.55 782.662 1230.8 782.662 1222.41 787.694C1214.01 792.726 1207.31 799.445 1198.92 806.15C1190.51 812.868 1178.75 819.574 1161.98 826.292C1146.88 832.997 1126.74 836.357 1096.52 836.357C1057.96 836.357 1036.13 829.651 1024.38 827.965V827.965Z" fill="white"/>
<path fill-rule="evenodd" clip-rule="evenodd" d="M702.175 1037.74L725.676 1027.67C745.805 1036.06 777.697 1046.14 799.513 1046.14C812.936 1046.14 823.014 1041.1 831.392 1037.74C838.111 1034.39 916.98 995.794 955.578 982.37C967.328 977.325 980.752 975.652 985.784 975.652C995.849 975.652 995.849 979.011 999.208 984.043C1005.93 995.794 1064.67 1078.01 1069.69 1083.05C1118.35 1067.96 1168.71 1046.14 1197.23 1019.28C1227.45 990.749 1252.61 957.183 1277.79 930.336C1286.16 920.258 1297.93 911.88 1302.96 908.52C1328.13 895.097 1406.99 893.411 1438.88 895.097L1420.41 921.944C1361.7 921.944 1329.81 928.662 1314.71 938.727C1309.67 943.759 1299.59 953.837 1291.21 965.574C1271.07 990.749 1249.27 1025.99 1240.87 1032.71C1257.64 1044.43 1276.11 1054.52 1306.31 1054.52C1354.99 1054.52 1390.23 1024.3 1408.7 1007.53L1425.47 1015.92C1413.55 1032.87 1398.8 1047.64 1381.86 1059.57C1361.71 1072.99 1336.54 1083.05 1323.12 1086.41C1294.59 1081.37 1232.48 1067.94 1217.39 1066.27C1163.68 1088.09 1074.74 1123.31 1046.21 1131.7C1039.73 1133.93 1032.92 1135.07 1026.07 1135.08C1002.57 1136.75 970.688 1136.75 940.481 1135.08C920.352 1135.08 900.21 1135.08 890.132 1133.4L863.285 1106.56C886.773 1111.57 895.165 1111.57 916.98 1111.57C967.328 1111.57 1000.89 1103.2 1010.96 1101.52C1021.02 1098.18 1022.71 1093.14 1019.35 1084.73C1014.32 1073 1007.6 1059.58 995.849 1046.14C989.131 1039.42 975.707 1027.67 970.675 1024.31C963.956 1019.28 957.251 1017.61 937.109 1024.31C920.339 1029.36 864.945 1059.57 841.457 1072.99C829.706 1078.01 819.642 1081.37 799.5 1076.34C776.011 1071.3 722.304 1051.19 702.175 1037.74V1037.74ZM854.881 426.888C864.945 426.888 875.023 416.824 875.023 406.746C875.023 394.995 864.958 386.604 854.881 386.604C843.143 386.604 834.738 394.982 834.738 406.746C834.751 416.811 843.143 426.888 854.881 426.888ZM1615.1 1586.51C1615.1 1571.42 1601.68 1557.99 1584.91 1557.99H1542.97C1526.17 1557.99 1512.75 1571.42 1512.75 1586.51L1514.42 2036.28C1514.42 2051.38 1526.17 2064.8 1542.97 2064.8H1584.91C1601.68 2064.8 1615.1 2051.38 1615.1 2036.28V1586.51V1586.51ZM1668.81 1599.94V1620.08C1668.81 1630.16 1675.53 1636.88 1685.61 1636.88H1980.97C1994.39 1636.88 2006.14 1625.13 2006.14 1611.7V1576.46C2006.14 1563.04 1994.39 1549.62 1980.97 1551.29C1980.97 1551.29 1695.66 1579.81 1685.61 1581.48C1675.52 1581.48 1668.81 1589.89 1668.81 1599.94V1599.94ZM1428.84 2064.8C1355.01 2064.8 1309.68 2009.42 1309.68 1947.33V1767.75H1287.86C1277.79 1767.75 1267.72 1757.7 1267.72 1747.61V1717.39C1267.72 1705.67 1277.77 1697.28 1287.86 1697.28H1309.68V1586.5C1309.68 1571.4 1321.43 1557.98 1338.2 1557.98H1380.14C1395.27 1557.98 1406.99 1571.4 1406.99 1586.5V1697.28H1472.45C1484.2 1697.28 1492.59 1705.65 1492.59 1717.39V1747.61C1492.59 1757.69 1484.21 1767.75 1472.45 1767.75H1406.99V1933.91C1406.99 1965.78 1427.13 1989.29 1462.38 1989.29H1469.1C1480.83 1989.29 1490.92 1997.67 1490.92 2011.11V2043C1490.92 2054.75 1480.84 2064.81 1469.1 2064.81H1428.84V2064.8V2064.8ZM925.371 1875.17C925.371 1779.52 868.317 1683.87 739.086 1683.87C619.933 1683.87 554.488 1777.84 554.488 1875.17C554.488 1979.2 624.966 2071.52 740.76 2071.52C819.642 2071.52 896.838 2031.25 911.935 1962.44C913.608 1954.07 906.902 1940.63 895.152 1940.63H838.098C828.033 1940.63 819.642 1945.67 814.596 1954.05C797.814 1977.54 774.325 1989.29 740.76 1989.29C690.411 1989.29 656.845 1950.68 653.486 1907.06H893.466C915.307 1907.06 925.371 1895.31 925.371 1875.17V1875.17ZM655.172 1834.9C658.531 1792.95 695.443 1761.06 739.086 1761.06C784.403 1761.06 821.315 1792.95 826.347 1834.9H655.172ZM2016.21 1875.17C2016.21 1779.52 1959.14 1683.87 1829.92 1683.87C1710.76 1683.87 1645.34 1777.84 1645.34 1875.17C1645.34 1979.2 1715.81 2071.52 1831.62 2071.52C1910.48 2071.52 1987.69 2031.25 2002.78 1962.44C2004.46 1954.07 1997.74 1940.63 1986.01 1940.63H1928.95C1924.19 1940.58 1919.51 1941.8 1915.38 1944.16C1911.25 1946.52 1907.82 1949.93 1905.44 1954.05C1888.67 1977.54 1865.19 1989.29 1829.93 1989.29C1781.27 1989.29 1747.71 1950.68 1744.36 1907.06H1984.33C2006.15 1907.06 2016.21 1895.31 2016.21 1875.17V1875.17ZM1746.02 1834.9C1749.37 1792.95 1786.29 1761.06 1829.92 1761.06C1875.24 1761.06 1912.15 1792.95 1915.52 1834.9H1746.02Z" fill="white"/>
<path fill-rule="evenodd" clip-rule="evenodd" d="M1229.12 1563.04H453.791C435.335 1563.04 421.898 1578.14 421.898 1594.91L423.571 1900.36C423.571 1900.36 257.428 1598.28 249.037 1583.18C240.646 1568.06 222.177 1554.63 198.688 1554.63H134.916C116.46 1554.63 103.036 1569.76 103.036 1586.53V2032.92C103.036 2051.39 116.46 2064.81 134.916 2064.81H175.187C193.643 2064.81 207.067 2051.39 207.067 2032.92L205.394 1720.79C205.394 1720.79 373.21 2024.54 381.601 2036.29C389.992 2053.06 406.775 2064.81 430.264 2064.81H488.991C507.46 2064.81 520.883 2051.39 520.883 2032.92V1638.56H1229.08C1240.83 1638.56 1250.9 1628.48 1250.9 1616.75V1584.85C1250.94 1573.09 1240.89 1563.04 1229.12 1563.04V1563.04Z" fill="white"/>
<path fill-rule="evenodd" clip-rule="evenodd" d="M1103.25 1757.7C1136.82 1757.7 1161.99 1769.43 1172.06 1791.27C1175.43 1801.32 1183.81 1802.99 1195.56 1802.99H1242.55C1249.27 1802.99 1259.32 1796.27 1259.32 1786.22C1259.32 1732.52 1193.88 1683.85 1103.25 1683.85C1009.27 1683.85 947.186 1729.14 947.186 1799.65C947.186 1855.03 990.817 1886.92 1042.84 1902.02C1068.01 1907.06 1109.96 1917.11 1130.1 1923.83C1150.24 1928.88 1170.37 1935.58 1170.37 1954.05C1170.37 1984.25 1140.18 1992.66 1104.91 1992.66C1073.04 1992.66 1041.15 1979.21 1032.76 1955.72C1027.72 1942.3 1017.65 1940.63 1004.23 1940.63H957.238C948.846 1940.63 938.782 1949.01 938.782 1959.1V1965.79C938.782 2017.82 1009.27 2071.52 1106.61 2071.52C1173.74 2071.52 1269.39 2043 1269.39 1952.38C1269.39 1898.64 1234.16 1861.75 1175.42 1846.65C1153.6 1841.6 1099.91 1826.51 1088.14 1824.83C1066.33 1818.12 1046.18 1811.41 1046.18 1794.61C1046.2 1766.09 1071.38 1757.7 1103.25 1757.7V1757.7Z" fill="white"/>
</svg>
