<svg width="2492" height="654" viewBox="0 0 2492 654" fill="none" xmlns="http://www.w3.org/2000/svg">
<path d="M2198.3 192.9C2198.3 181.2 2188.9 171.7 2177.2 171.7H2145.9C2134.2 171.7 2124.8 181.2 2124.8 192.9V520.1C2124.8 531.8 2134.2 541.3 2145.9 541.3H2177.2C2188.9 541.3 2198.3 531.8 2198.3 520.1V192.9ZM2238.2 201.6V217.1C2238.2 223.5 2243.5 228.7 2249.9 228.7H2465.8C2475.6 228.7 2483.6 220.8 2483.6 210.9V184.6C2483.6 174.7 2475.5 165.8 2465.7 166.8C2465.7 166.8 2257 187.3 2250.3 188C2242.6 189 2238.2 195.2 2238.2 201.6ZM2063.4 541.4C2009.7 541.4 1975.9 500.7 1975.9 455.3V324.4H1960.5C1952.3 324.4 1945.7 317.8 1945.7 309.6V287.7C1945.7 279.5 1952.4 272.9 1960.6 272.9H1975.9V192.4C1975.9 181 1985.1 171.8 1996.5 171.8H2027C2038.4 171.8 2047.6 181.1 2047.6 192.5V272.9H2095.2C2103.4 272.9 2110.1 279.5 2110.1 287.7V309.6C2110.1 317.8 2103.5 324.4 2095.3 324.4H2047.7V445.5C2047.7 469.3 2062.1 485.5 2087.9 485.5H2092.2C2101.1 485.5 2108.3 492.7 2108.3 501.6V525.4C2108.3 534.3 2101.1 541.5 2092.2 541.5L2063.4 541.4ZM1560.6 319.5C1592.7 319.5 1620.3 342.3 1623.1 373.1H1498.6C1501.3 342.3 1528.5 319.5 1560.6 319.5V263.5C1473.8 263.5 1425.1 331.4 1425.1 403C1425.1 479.3 1477.2 546.5 1561.2 546.5C1618.6 546.5 1675.3 516.2 1685.9 466.5C1687.3 459.8 1682.8 451 1673.4 451H1632.4C1624.9 451 1618.8 454.6 1615.2 460C1603.5 477.2 1586.2 486.4 1560.8 486.4C1524.8 486.4 1499.9 458.1 1498.1 426.7H1672.6C1688.7 426.7 1695.9 418 1695.9 403.1C1695.9 333.3 1654.6 263.6 1560.7 263.6L1560.6 319.5ZM2355.9 319.5C2387.9 319.5 2415.6 342.3 2418.4 373.1H2293.9C2296.6 342.3 2323.8 319.5 2355.9 319.5V263.5C2269.1 263.5 2220.4 331.4 2220.4 403C2220.4 479.3 2272.6 546.5 2356.5 546.5C2413.9 546.5 2470.5 516.2 2481.2 466.5C2482.6 459.8 2478.1 451 2468.7 451H2427.7C2420.3 451 2414.2 454.6 2410.5 460C2398.8 477.2 2381.6 486.4 2356.1 486.4C2320.2 486.4 2295.2 458.1 2293.3 426.7H2467.9C2484 426.7 2491.2 418 2491.2 403.1C2491.2 333.3 2449.9 263.6 2356 263.6L2355.9 319.5Z" fill="#63513D"/>
<path d="M1917.2 175.4H1351.9C1339 175.4 1328.7 185.8 1328.7 198.7L1330.6 420.7C1330.6 420.7 1208.8 200.7 1202.4 189.4C1196.4 178.9 1183.6 169.1 1165.9 169.1H1119.4C1106.6 169.1 1096.1 179.5 1096.1 192.4V518C1096.1 530.8 1106.5 541.3 1119.4 541.3H1149.2C1162.1 541.3 1172.5 530.8 1172.5 518L1170.6 289.7C1170.6 289.7 1293.6 512 1298.8 520.7C1305.9 532.5 1317.9 541.3 1335.3 541.3H1378C1390.9 541.3 1401.3 530.8 1401.3 518V230.5H1917.3C1926.1 230.5 1933.2 223.4 1933.2 214.6V191.1C1933.1 182.5 1926 175.4 1917.2 175.4Z" fill="#63513D"/>
<path d="M1825.7 316.8C1850.3 316.8 1868.7 325.7 1875.3 341.1C1878.5 348.5 1884.6 349.9 1893.1 349.9H1926.9C1932.5 349.9 1938.9 345.1 1938.9 337.8C1938.9 298.5 1892.1 263.4 1825.7 263.4C1757 263.4 1712 296.1 1712 348.2C1712 388.1 1743.5 411.8 1782.2 421.9C1799.8 426.5 1830 434 1844.6 437.8C1860.4 442 1874.6 446.8 1874.6 460.3C1874.6 481.7 1852.1 489 1827.4 489C1804.1 489 1780.8 478.6 1774.2 462C1770.3 452.4 1763.6 451 1753.3 451H1719C1713 451 1706.1 456.2 1706.1 464V468.4C1706.1 506.4 1757.1 546.3 1827.5 546.3C1877.4 546.3 1946.9 525.6 1946.9 458.6C1946.9 419.8 1921 393 1878.8 382.3C1862.3 378.1 1822.6 368 1814 365.8C1798.6 361.8 1784.3 356.8 1784.3 343.7C1784.2 323.6 1802.7 316.8 1825.7 316.8ZM574.2 100.2C580.5 100.2 585.5 95.1 585.5 88.9C585.5 82.6 580.4 77.6 574.2 77.6C568 77.6 562.9 82.7 562.9 88.9C562.9 95.1 568 100.2 574.2 100.2ZM422.1 80.1C427.4 80.1 431.6 75.8 431.6 70.6C431.6 65.3 427.3 61.1 422.1 61.1C416.8 61.1 412.6 65.4 412.6 70.6C412.5 75.8 416.8 80.1 422.1 80.1ZM308 313.2L303.4 308.2C316.3 296.2 330 277 332.3 265.8C334.4 255.3 349.4 257 346.5 268.4C342.8 283 325 300.5 308 313.2ZM211.5 84.1C187.7 94.4 184.2 118.9 200.9 133.5C221 151.2 254.3 135.8 251.1 108.8C278.1 110.2 295.5 82.2 291.2 62.7C303.2 52.4 304.4 30.4 290 21.8C274.6 12.5 260 16.1 250.7 33.9C225.9 32 202.2 51.5 211.5 84.1L200 79.1C184.9 47.5 211.3 15.2 243.8 22.6C250.3 6.89998 274.5 -9.40002 300.6 6.39998C321.5 19 325.9 51.6 303.7 67.4C314.1 97.8 293.3 122.6 261.6 119.8C257.9 158.9 221 163.9 197.2 145.4C183.7 134.9 178.2 120.4 175.7 109.4C173 97.8 173 87.4 161.5 75.5C152.9 66.5 137.5 66.8 137.5 66.8C137.5 38.4 110.9 12.4 77.8999 25C66.1999 14.9 51.7999 13.9 41.3999 26.4C35.3999 33.6 32.0999 52.6 50.5999 61.3C49.5999 87.2 69.3999 103.7 98.1999 101.4C99.2999 115.2 114.6 127.9 128.1 129.8L128 136.7C113.6 135.3 105.8 140.4 96.1999 152.3C62.2999 150.7 38.4999 165.8 39.4999 190.1C15.6999 194.6 11.1999 219.6 24.6999 232.9C38.1999 246.2 57.9999 241 64.7999 225.1C88.8999 229.7 110.1 212.4 111.1 192.6C133.5 192.6 143.4 183.7 147.1 163.1L155.6 163.8C158.1 186 147.8 207.1 121 204.6C120.3 231.2 94.4999 246 70.4999 236.9C59.2999 257.9 33.5999 266.4 11.9999 245.8C-8.80008 225.9 -1.20008 191.9 25.9999 183.7C26.5999 157.7 45.8999 132.9 83.1999 142.5C83.1999 142.5 87.9999 130.9 99.6999 130.2C91.8999 127 85.9999 122.7 84.3999 114.7C56.1999 120.7 32.2999 94.8 38.6999 68.7C13.1999 55.1 12.7999 29.9 25.3999 15C38.4999 -0.600019 60.3999 -4.00002 79.9999 12.8C113.2 -5.60002 150.7 16.9 148.4 54.7C171.6 53.2 185.7 73.4 183.1 94.6C186.9 85.3 191.4 81 200 79.1L211.5 84.1Z" fill="#63513D"/>
<path d="M268.4 38.7L274 42.7C263.1 65.6 243.9 89.9999 227.4 103.4L221.1 98.6999C232.8 79.7999 257.9 48.4 268.4 38.7ZM106.2 164.8L110 170.4C96.1999 184.5 70.7999 203.3 57.2999 209.8L51.9999 204.1C65.0999 190 89.9999 171.6 106.2 164.8ZM139 96.5999L132.4 104.8C114.4 93 78.8999 61.2999 70.8999 49.7999L76.4999 44.0999C93.6999 52.8999 127.2 82.7999 139 96.5999ZM105.7 397.6C107.8 407.9 106 419.3 115.3 430.4C118.6 434.3 136.6 458 149.6 470.3C131.9 477.3 96.3999 491.7 70.7999 494.9C65.6999 495.5 59.8999 499.1 55.0999 501.9C51.8999 507.4 48.5999 517.1 47.1999 528.1C46.1999 536 46.2999 544.8 46.2999 553.7C46.2999 561.6 50.4999 586.4 59.2999 603C68.0999 619.6 76.5999 627.1 86.9999 631.9C89.0999 631 93.5999 630.3 100.7 630.2C120 629.8 135.1 640.4 141.7 649.6C144.2 653.1 149.4 653.8 156.1 653.8C171.7 653.8 188.8 648.7 205 642.5C208.5 639.6 218.3 633.1 227.9 625.6C237.5 618 291.1 572.6 314.8 561.1C327.3 567.9 347.8 576.6 369 576.6C370.2 576.6 374.3 576.6 378.6 575.7C385.2 574.2 393.7 571.2 404.4 569.2C423.5 565.5 445.9 562.2 452.5 562.3C470.1 562.6 521.6 563.9 533.8 563.9C546.6 563.9 564.9 562.8 571.9 562.1C582.7 558.6 606.7 551.9 629.7 541.3C652.7 531.1 701 497.5 708.9 489.9C712.7 486.4 716.1 482.7 718.7 479.3C719.7 478 720 477.5 720 476.5C720 475.5 719.8 442.6 719.8 442.6C719.8 442.6 731.4 429.7 735.8 425.3C736.2 424.9 736.3 424.3 736.2 423.9C734.2 417.3 732.2 396.9 733.4 376.1L721.7 370.6C721.3 396.4 711.8 418.4 703 432C685.6 434.7 652.4 445 640.4 458.7L647 460.6C658.2 454.4 670.3 450.1 684 450.1C696.1 450.1 701.5 453.3 701.5 456.7C701.5 459.1 699.2 464.9 698.3 466.7C697.2 468.8 696.6 471.4 694.5 473.6C678.1 491.4 659.6 506.6 636.9 519.2C621.7 527.7 607.3 533.5 584.7 539.8C578 541.7 568.7 544.4 562.7 546.5C554.2 546.3 509.9 545 484 545C458.1 545 404.8 548.8 387.8 553.1C380.1 555.1 378.2 558.1 369.2 558.1C352.5 558.1 330.5 549.6 317.1 543.1C315.1 543.7 310.3 545.8 305.4 548.3C295.9 553 274.6 582.5 262.2 573.6C255.9 586.5 228.6 598.8 219.3 612.2C220.4 605.2 231.3 559.6 232.4 550.5C232.6 548.9 232.7 547.6 231.7 545.9C221.7 529.3 194 518.7 178.3 515.6C173.7 514.7 171.4 514.1 168.3 513.4L143.6 505.9L120.7 513.4L147.2 518.5L113.6 540.7C119.4 538.5 155.6 528.4 158.3 527.6C161.3 526.7 165.2 525.9 169.5 527.4C174.4 529.1 188.4 532.3 196.7 535.2C201.6 536.9 209.6 545.9 211.7 550.7C212.5 552.7 212.9 556.9 213.4 566.1C213.7 571.9 212.2 580.1 210.8 586.4C207.1 602.9 199.6 615.8 197.2 620.4C193.9 626.8 189.4 628.8 184.9 630.9C177.6 634.4 168.6 636.5 158.7 636.6C151.9 636.7 147.3 636.3 144.4 632.4C135.2 620 112.6 608 89.3999 612.5C75.1999 603.9 61.0999 576.2 61.0999 554.1C61.0999 540.9 67.7999 520 71.3999 509.5C94.4999 506.4 140.7 488.8 163.2 478.6C167.9 478.4 180.8 473.8 193.2 473.8C223.4 473.8 253.5 500.3 271.7 518.1C274.7 513.2 280.3 505.7 295.7 505.7C317.1 505.7 329.4 525.2 335.5 545.2L346.7 537.1C344.7 525.6 338.8 513.1 329.7 504.1C322.3 496.7 308.2 490.6 297.2 490.6C290.6 490.6 283.7 492.1 279.3 492.1C264 492.1 257.8 485.3 246.5 477.5C234.3 469.1 211.6 456.9 195.4 456.9C185 456.9 180.3 461 171.7 461C159 461 154.4 455.8 148.3 448.2C145.7 444.9 132.8 433.6 129.4 429C127.4 426.4 123.9 415.6 122.7 410.3L105.7 397.6Z" fill="#63513D"/>
<path d="M123.1 410C126.8 413.9 130.3 418.3 134.9 421.8C139.4 425.2 144.9 428.1 150.2 431.1C157.6 435.3 166.1 440.1 174.4 442.8C181.7 445 191.2 445.9 200.1 445.9C212.8 445.9 227.8 443.3 240.2 449.1C248.5 453 249.1 461.8 255.7 464.3C266 468.3 294.6 469.2 310.5 469.2C341.9 469.2 376 465.2 396.1 460.4L386.3 449.6C372.4 451.9 331.6 456.3 312.9 456.3C286.5 456.3 261.6 452.1 261.6 441.2C261.6 433.6 269.7 422.7 285.2 422.7C301.8 422.7 326.9 432.7 331.6 434.1C336.2 435.5 338.1 435.1 341 433.8L350.7 428.8C337.8 422.8 292.9 407.3 277.3 407.3C269.9 407.3 265.9 408.4 261.1 414.6C255.1 422.3 239 429.4 213.5 429.4C199.5 429.4 179.4 426.9 175 425.1C167.3 421.9 152.2 413.2 142.5 406.2C130.1 397.2 119.2 387.3 111.8 375.6C109.5 372 108.5 368 108.5 364.4C108.5 361.4 109.4 358.6 109.7 356.3C111.9 359.4 114.3 361.6 117.4 364.5C130.9 377.7 150.9 387.5 171.4 391.5C177.2 392.6 182.4 393.5 188.2 393.5C197 393.5 205 388.8 210.2 384.2L202.1 374.8C199.5 375.6 194.1 375.6 190.6 375.6C160.8 375.6 123 356.1 114.3 333.6C113.4 331.4 112.4 330.2 113.3 328.1C114.2 326.1 115.2 321.7 115.9 317.6C117.6 319.6 121.3 322.6 125.8 325.6C136.9 332.7 158 342.5 162.1 345.1C172.7 342 180.7 338.5 187.1 335.2C193.3 332 201.8 329.1 211.6 329.1C233.4 329.1 258.4 341.5 281.8 353.1L297.9 346.8C277 332.1 231.7 311.6 206.5 311.6C191.6 311.6 177.6 322.5 167.7 322.5C155.5 322.5 120.5 305.4 120.5 291.2C120.5 280.3 143.1 274 179.6 269.6C173.3 279 167.3 288.6 161.7 298.4L171 303.6C228.1 220.9 287.4 167.3 337.4 134.6C355.5 122.7 359.7 115.8 366 102.8C381.5 71.2 396.1 46.9 421.5 46.9C433.3 46.9 443 53.6 449.7 61.8L468.1 67.3L449.5 79.9L468.5 87.5C443.7 94.4 409.8 118.6 396.1 154C369.7 155.4 356.9 176.8 348.3 194.7C342.5 206.8 333.2 211.6 319.7 220.8L211.6 296.2L226.5 298.3L326.4 231.4C346.1 218.1 355.5 208.3 360.2 198.9C369.5 180.4 379.4 166.6 399 166.6C408.6 166.6 418.9 170.7 427.2 178.5L444.7 184.2L425.6 195.9L441.6 205.8C395.8 220.1 367.4 253 350.9 315.7L363 318.4C369.1 297.6 375.1 278.6 385.8 261.7C412.3 261.4 439.2 260.4 465.6 260.4C536 260.4 594.4 263.4 626 272.7L614.8 253.3C581.1 247.6 532.1 244.6 465.6 244.6C443.3 244.6 420.7 245.4 398.3 245.7C412.8 230.4 433.6 217.5 465.7 207.5L442.9 195L468.2 181L433.3 168C427.3 162.6 419.8 157.6 410.3 155.2C421.3 121.3 459 101.5 495 87.8L469.8 77.5L495.3 63.6L456.1 51.1C445.8 39.1 436 33.6 420.9 33.6C384.5 33.6 369.3 65.2 354.8 93.2C347.2 107.9 342.4 114.2 329.5 122.6C301.5 140.9 265.9 168.9 231.8 204.7C214 191.9 177.7 154.4 167.8 133.9C163.9 138.7 160.1 149.2 160.1 149.2C163.8 153.1 206.6 196.4 222.5 214.7C221.3 216 220.1 217.4 218.9 218.7C201.9 222.1 157.9 226.3 142.9 224.3L134.5 239.3C145.7 238.2 189.5 233 207.6 232C202 238.7 196.6 245.6 191.4 252.6C135.1 259 97.4999 270.5 97.4999 291.3C97.4999 294.7 98.8999 298.6 98.8999 302.3C98.8999 311 95.5999 314.2 89.4999 318.1C85.4999 320.6 85.1999 322.4 86.8999 324.8C88.5999 327.2 97.2999 340.1 97.2999 342.6C97.2999 346.8 93.0999 350.9 89.7999 354.7C86.8999 358 86.9999 358.8 89.2999 362.9L105.6 397.6L123.1 410ZM820 216.9C816.4 220.7 813.2 224.7 810.6 229L801.5 216.3C831.8 175.9 911.8 157 958.6 153.7V132.1C952.7 133.9 946.2 136 940.3 137.4C931.9 139.4 924.1 141.3 917.6 141.1C911 141 905.7 138.3 903.3 134.8C897 125.8 902.8 112.2 923.4 99.5L907.2 86C894.6 102.3 882.3 120.2 869.7 130.9C858.3 140.6 846.3 145.5 836.7 138.3C831.5 134.4 829.5 132.6 829 122.5C829.7 107.6 838.7 84.8 846.7 70.2L827.5 68C824 90.5 814.9 109.6 805 125.4C792.7 145.1 776.9 158.9 760.6 170.2L749.9 159.7C763 151.9 779.5 139.3 790.8 121.9C803.9 101.7 814.6 76.7 814.6 54L870.3 59.3C862.5 69.3 849.6 91.9 844.7 108.2C842.2 116.7 842.3 123.4 845.4 125.7C851.3 130.1 861.6 123.1 871.7 112.3C885.8 97.1 899.7 74.2 905.8 66L946 99.4C928.1 108.9 910.8 119.7 914.2 125.8C917.4 131.4 928.8 129.7 941.4 125.8C951.7 122.6 962.6 117.9 971.3 112.8V167.2C951.9 166.9 919 170.6 887.4 180.1C894.9 190.7 916.5 194.6 930.3 196.5L923.4 240.7C888.7 226.2 862 217.7 820 216.9L833.9 205C864.8 205.6 895.8 214.6 913.4 223.5L915.9 206.8C900.1 204.7 880.1 195.7 871.7 185.5C857.9 190.7 844.9 197.1 833.9 205L820 216.9Z" fill="#63513D"/>
<path d="M654.1 357.2L667 329.4C653.5 313.4 638.3 293.2 625.5 272.6L614.3 253.2C588.5 204.2 597.9 180.9 584.1 159.3C572.7 141.5 517.5 152.6 508.4 154.5L524.4 128L492.9 130.5L519.6 98.8C522.5 94.7 523.9 90.9 527 79.9C531.7 63.2 546.1 34.7 588.1 34.7C634.8 34.7 649.2 72.5 669.6 88.9C692.7 107.5 723 133.6 749.9 159.7L760.6 170.2C774.4 184.3 788.5 198.8 801.5 216.3L810.6 229C866.8 311 936.5 467.7 967.4 539.5C970.4 546.5 972.5 553.5 974.4 558.9C953.4 547.3 930.3 533 906.6 516.6L892.7 506.9C884 500.6 875.4 494.2 866.9 487.7L852.7 476.5C844.1 469.6 835.7 462.6 827.4 455.5L855.5 619C857.6 628.6 865.8 627 872.4 618.6C879.1 610.1 881.6 607.8 879.1 596.6L852.7 476.5L866.9 487.7L892.2 589.8C894.6 599 898.5 601.9 909.3 602.4C920.1 602.9 922.4 598.7 920.1 591.6L892.7 506.9L906.6 516.6L932.5 592.7C939.2 612.2 932.5 614.5 920.8 614.5C909.1 614.5 898.6 611.8 892.2 615.9C885.8 620 877.8 631.3 868.1 641.1C859.6 649.8 847.2 647.5 844.8 631.2L813.8 443.4C793.6 425.2 774.3 406.1 757.1 386.6C749.5 383.4 741 379.5 733.5 376L721.8 370.5C717.7 368.6 714.6 367.2 713.4 366.9C704.8 377.2 696.6 388.7 687 397C681.9 401.4 678.4 403.9 670.8 403.9C668.5 403.9 665.6 403.9 662.9 402.4C660 400.8 657.3 397.5 654.3 393C652 389.5 648.6 385 645.7 380.1C639.6 369.8 632.9 356.9 627 346.4C620.3 334.7 614.6 325.9 613.8 324.4C612.6 322.2 609.3 319.4 609.3 319.4C606 324.7 603.6 335 603.6 340.7L591.9 336.8C593.4 329.1 596.5 319.1 598.3 314.3C598.3 310.2 593.7 304.7 589.9 304.7C584.6 304.7 579.1 310.5 576.3 321.7L564.5 326.9C565.9 308.9 572.1 289.1 589.9 289.1C604.3 289.1 613.2 300.1 620.1 310.4C626.8 320.5 649.3 351.2 654.1 357.2L663 368.5C664.5 375.5 667.6 379.6 669 381.9C672.1 386.7 675.5 386.4 680.2 382.1C682.3 380.2 689.1 374.6 695.7 367.7C701.4 361.7 707 354.5 709.2 350.8C715.8 353.7 727.9 359.6 737.8 363.9C695.6 311.9 655.3 248.9 637.7 206C630.5 188.3 644.6 182.3 651.5 199.8C670.1 247.2 724.3 331 764.2 375C810.3 425.8 894.7 499.4 949.7 528.9C941.7 513.3 931.2 491 919.1 465.1C852.3 427.4 784.7 358 753.2 298.4L767.1 300C796.4 351.8 866.4 421 907.8 441.1C870 360.8 820.8 259.1 782.3 215.4C734.6 161.1 682.6 119.2 657.8 97.3C633.3 75.8 623.2 48.7 588 48.7C558.9 48.7 543.6 69.7 537.8 90.8C536.6 94.9 535.9 97.5 533 101.8L519.2 118.3L548.9 114.7L531.7 138.8C531.7 138.8 578.3 128.3 594.6 150.5C612.2 174.4 600.8 201.2 629.6 253.2C642.3 276.1 672.9 317.2 683.2 326.4L663.1 368.6L654.1 357.2ZM196.4 364.4L189.4 359.6C193.3 356.3 201.1 351.2 208.8 347.9C212.8 346.2 217.3 345.4 220.6 345.4C228.5 345.4 235.3 348.7 241.9 352.2C252.4 357.8 264.2 364.4 273.2 364.4C276.7 364.4 280 363.6 283.8 363.6C292.7 363.6 301.3 367.6 306.2 367.6C309.2 367.6 311.2 364.9 313.2 362.1C318.1 355 324.9 349.7 333.6 346.1C342.9 342.2 354.2 340.6 366.4 340.6C376 340.6 385.2 342 390 343C390 343 382.7 351.8 380.8 353.8C371.1 353.8 352.6 353.5 340.7 358.3C333.4 361.3 330.8 365.5 330.8 371.6C330.8 380.4 340.6 383.8 351.5 387.1C357.9 389.1 365.1 389.5 371.2 389.5C378.7 389.5 393 386.7 407.2 383.6C424.3 379.8 440.2 375.4 444.8 373.6L451 384.7C432 391.2 412.5 397.3 394.4 400.9C384.2 403 374.5 404.3 365.8 404.3C351.3 404.3 335.6 398.2 322.6 392C311.7 386.8 301.9 381.6 293.3 381.6C283.5 381.6 274.3 385 265.2 390.2C260.8 392.7 247.4 401.9 235.5 406.6C226.4 410.2 218.9 412.2 209.6 412.2C201.4 412.2 196.4 411 192.1 407.7L206.5 398.9C208.3 400.7 211.6 401.1 213.7 401.1C215.8 401.1 218.3 400.9 223.9 398.5C227.1 397.2 231.8 394.3 234.5 392.5C240.2 388.9 242.1 386.7 244.3 384.9C248.7 381.5 250.2 376.9 244.7 372C242.1 369.7 239.4 367.3 235.9 365.2C231 362.2 227.4 359.3 218.4 359.3C207.9 359.4 200.5 362.3 196.4 364.4Z" fill="#63513D"/>
<path d="M396.3 370.1C396.3 370.1 387.8 367.8 384.8 367.5C390.6 359.6 398.1 353.1 404 349.1C415.6 341.2 427.8 336.9 446.3 335.8C451.3 335.5 461.6 334.5 467.2 334.8C472.4 335 481.1 335.4 489.1 336.9C494.8 338 500.1 339.5 504.4 340.2C507.1 340.6 516.4 340.5 519.6 340C532.7 337.9 548.4 332.9 556.6 328.4L560.1 340.9C542.5 349.9 522.5 358.6 504.3 358.6C495 358.6 485.1 357.9 475.9 357C459.7 355.5 445.6 353.3 440.8 353.3C427.8 353.3 408.9 359.4 396.3 370.1ZM383.3 439.9L366.7 432.3C389.7 420.7 424.9 409 439.3 406.7C453.7 404.4 470.2 402.7 479.7 399.5C484.1 410.5 492.6 422.3 505 422.3C509.5 422.3 516.9 418.9 524.4 415.6C532.8 411.9 541.2 407.9 545.5 405.9C550.2 403.8 565.5 397.1 578.4 391.3C583.4 389.1 597 382.6 597.7 382.2L606.4 386.9C603.8 398.4 599.5 412.4 594.6 422.5C592.7 426.4 590.8 429.7 588.7 432C584.9 436.3 578.8 441.9 570.8 447.6C562.1 453.8 551.5 460.1 540.2 466.6C531.4 471.6 522.6 476.8 513.7 480.9L509.1 472.5C522.9 464.7 536.9 454.8 549.2 445.7C555 441.4 560.7 437 564.7 433.3C567.7 430.6 569.6 428.3 571.1 426.1C574.8 420.7 580.7 410.2 582.6 405.2C577.5 407.7 558 416.9 549.3 421.5C539.5 426.7 523.5 434.8 514.6 439C507.6 442.3 501.3 444.1 496.8 444.1C486.8 444.1 482.3 436.9 479.8 432.6C473.5 421.4 466.7 420.3 449 420.1C428.4 419.7 400.1 428.3 383.3 439.9ZM480.1 388.2C480.1 388.2 477.7 378.4 476.5 374.8C476.5 374.8 479.4 373.9 483.2 373.9C489.4 373.9 504.6 375.6 511 375.6C534.9 375.6 543.7 368.1 550.7 361.8C556.7 356.4 562.8 352 579 352C593.3 352 609.7 357.8 614.4 360.1L613.4 373.1C606.4 369.2 596.8 366.6 588.3 366.6C582.4 366.6 577.1 367.1 573.3 369C569.1 371.2 566.5 374.5 562.6 377.7C558.4 381.2 552.6 384.5 545.1 387.3C537.6 390.1 528.2 392 514.3 392C495.8 391.9 485.8 388.9 480.1 388.2Z" fill="#63513D"/>
<path d="M329 486.5L340 481.9C350.1 485.8 364.7 490.2 374.8 490.2C380.9 490.2 385.9 488 390.1 486.2C393.3 484.8 430 466.8 448.2 460.2C454 458.1 459.8 456.9 462.7 456.9C467.1 456.9 467.3 458.9 468.5 460.8C471.9 466.3 499 504.9 501.7 507.9C524.7 500.8 548.2 490.5 561.7 477.5C575.8 463.9 587.5 448.1 598.9 435.9C603.3 431.2 608.7 426.9 611.4 425.5C623.1 419.3 659.6 418.7 675 419.4L665.9 432.3C638.9 432.3 623.8 435.1 617 440.2C614.1 442.4 609.8 446.7 605.6 452.1C596.4 464.1 586.3 480.6 582.3 483.8C590.2 489.3 598.8 494.1 612.6 494.1C635.5 494.1 651.9 479.8 660.9 471.7L668.6 476.3C662.9 483.7 656.4 491.3 648.1 496.9C638.9 503.1 627.3 507.2 620.4 509.1C607.1 506.6 577.9 500.7 571 499.3C545.7 509.6 504.5 526.3 490.6 530.5C488.6 531.1 485.4 531.6 481.3 532C470.3 532.6 455.1 532.5 441.3 532.3C431.5 532.2 422.1 532.3 417.5 531.4L405.3 518.6C416 520.7 420.3 521.3 430.3 521.3C454.1 521.3 469.5 517.3 474.5 516C478.7 514.9 479.4 512.4 478.2 508.6C476.2 502.5 472.7 496.7 467.3 490.5C464.4 487.1 458 481.4 455.3 479.6C452 477.4 448.8 476.8 439.8 479.9C431.5 482.7 405.6 496.7 394.4 502.6C388.9 505.5 384.6 506.4 374.7 504.1C364.1 501.8 339.1 492.7 329 486.5ZM400.7 199.6C405.9 199.6 410.1 195.4 410.1 190.2C410.1 185 405.9 180.8 400.7 180.8C395.5 180.8 391.3 185 391.3 190.2C391.3 195.4 395.5 199.6 400.7 199.6Z" fill="#63513D"/>
</svg>
