<svg width="605" height="713" viewBox="0 0 605 713" fill="none" xmlns="http://www.w3.org/2000/svg">
<g opacity="0.1">
<path d="M363.371 410.358C321.082 368.069 269.396 347.708 211.444 347.708C153.493 347.708 104.939 368.069 62.6501 410.358C20.3613 452.647 0 504.333 0 563.851C0 623.369 20.3613 673.489 62.6501 715.777C103.373 758.066 155.059 778.428 211.444 778.428C267.829 778.428 321.082 758.066 363.371 715.777C405.659 673.489 424.454 623.369 424.454 563.851C424.454 501.201 404.093 452.647 363.371 410.358ZM291.323 642.164C270.962 665.657 242.769 675.055 213.01 675.055C183.252 675.055 155.059 664.091 134.698 642.164C114.336 618.67 101.806 592.043 101.806 562.285C101.806 529.393 112.77 502.767 134.698 482.406C155.059 458.912 183.252 449.514 213.01 449.514C244.335 447.948 270.962 458.912 292.889 482.406C313.25 502.767 324.214 530.96 325.781 562.285C322.648 592.043 313.251 618.67 291.323 642.164Z" fill="white"/>
<path d="M623.998 50.3344L378.272 296.338L443.652 361.643L689.377 115.64L623.998 50.3344Z" fill="white"/>
<path d="M272.528 0H180.119V264.697H272.528V0Z" fill="white"/>
<path d="M756.5 463.611H487.104V556.02H756.5V463.611Z" fill="white"/>
</g>
</svg>
