<svg width="696" height="716" viewBox="0 0 696 716" fill="none" xmlns="http://www.w3.org/2000/svg">
<path d="M334.08 377.28C295.2 338.4 247.68 319.68 194.4 319.68C141.12 319.68 96.48 338.4 57.6 377.28C18.72 416.16 0 463.68 0 518.4C0 573.12 18.72 619.2 57.6 658.08C95.04 696.96 142.56 715.68 194.4 715.68C246.24 715.68 295.2 696.96 334.08 658.08C372.96 619.2 390.24 573.12 390.24 518.4C390.24 460.8 371.52 416.16 334.08 377.28ZM267.84 590.4C249.12 612 223.2 620.64 195.84 620.64C168.48 620.64 142.56 610.56 123.84 590.4C105.12 568.8 93.6 544.32 93.6 516.96C93.6 486.72 103.68 462.24 123.84 443.52C142.56 421.92 168.48 413.28 195.84 413.28C224.64 411.84 249.12 421.92 269.28 443.52C288 462.24 298.08 488.16 299.52 516.96C296.64 544.32 288 568.8 267.84 590.4Z" fill="#DA291C"/>
<path d="M573.698 46.2771L347.78 272.451L407.889 332.492L633.807 106.318L573.698 46.2771Z" fill="#DA291C"/>
<path d="M250.56 0H165.6V243.36H250.56V0Z" fill="#DA291C"/>
<path d="M695.52 426.24H447.84V511.2H695.52V426.24Z" fill="#DA291C"/>
</svg>
