<svg width="59" height="60" viewBox="0 0 59 60" fill="none" xmlns="http://www.w3.org/2000/svg">
<path d="M28.008 31.6298C24.7485 28.3702 20.7646 26.8008 16.2978 26.8008C11.831 26.8008 8.08853 28.3702 4.82897 31.6298C1.56941 34.8893 0 38.8732 0 43.4607C0 48.0483 1.56941 51.9114 4.82897 55.171C7.96781 58.4306 11.9517 60 16.2978 60C20.6439 60 24.7485 58.4306 28.008 55.171C31.2676 51.9114 32.7163 48.0483 32.7163 43.4607C32.7163 38.6318 31.1469 34.8893 28.008 31.6298ZM22.4547 49.497C20.8853 51.3078 18.7123 52.0322 16.4185 52.0322C14.1247 52.0322 11.9517 51.1871 10.3823 49.497C8.81288 47.6861 7.84708 45.6338 7.84708 43.34C7.84708 40.8048 8.69215 38.7525 10.3823 37.1831C11.9517 35.3722 14.1247 34.6479 16.4185 34.6479C18.833 34.5271 20.8853 35.3722 22.5754 37.1831C24.1449 38.7525 24.9899 40.9255 25.1107 43.34C24.8692 45.6338 24.1449 47.6861 22.4547 49.497Z" fill="white"/>
<path d="M48.0967 3.87961L29.1566 22.8412L34.1959 27.8748L53.1361 8.91325L48.0967 3.87961Z" fill="white"/>
<path d="M21.006 0H13.8832V20.4024H21.006V0Z" fill="white"/>
<path d="M58.3099 35.7344H37.5453V42.8571H58.3099V35.7344Z" fill="white"/>
</svg>
