<svg width="233" height="85" viewBox="0 0 233 85" fill="none" xmlns="http://www.w3.org/2000/svg">
<g clip-path="url(#clip0_308_398)">
<path d="M189.879 44.3785C185.306 39.8052 179.716 37.6032 173.449 37.6032C167.182 37.6032 161.931 39.8052 157.357 44.3785C152.784 48.9519 150.582 54.5415 150.582 60.9781C150.582 67.4147 152.784 72.835 157.357 77.4083C161.761 81.9817 167.351 84.1837 173.449 84.1837C179.547 84.1837 185.306 81.9817 189.879 77.4083C194.452 72.835 196.485 67.4147 196.485 60.9781C196.485 54.2028 194.283 48.9519 189.879 44.3785V44.3785ZM182.087 69.4473C179.885 71.9881 176.836 73.0044 173.618 73.0044C170.4 73.0044 167.351 71.8187 165.149 69.4473C162.947 66.9066 161.592 64.027 161.592 60.8087C161.592 57.2517 162.778 54.3722 165.149 52.1702C167.351 49.6294 170.4 48.6131 173.618 48.6131C177.006 48.4437 179.885 49.6294 182.257 52.1702C184.459 54.3722 185.644 57.4211 185.814 60.8087C185.475 64.027 184.459 66.9066 182.087 69.4473" fill="#DA291C"/>
<path d="M28.2871 26.0851C20.4954 25.9157 13.7201 28.7952 8.13041 34.5543C2.71014 40.1439 0 46.7499 0 54.8803C0 62.672 2.71014 69.6167 8.2998 75.2063C13.8895 80.796 20.326 83.5061 28.4565 83.5061C34.893 83.5061 40.6521 81.6429 45.5642 77.7471C50.4763 73.8513 53.864 68.6004 55.5578 62.6719H44.0397C42.5153 65.5515 40.4827 68.0922 37.7725 69.9554C34.893 71.8187 31.8441 72.6656 28.2871 72.6656C23.3749 72.6656 19.1404 70.8024 15.9221 67.4147C12.365 63.8576 10.6712 59.7924 10.6712 55.0497C10.6712 50.1376 12.365 45.903 15.9221 42.3459C19.3097 38.9582 23.3749 37.095 28.2871 37.095C31.6747 37.095 34.7236 38.1113 37.7725 39.9745C40.4827 41.8378 42.5153 44.3785 44.0397 47.258H55.5578C53.864 40.9909 50.6457 36.0787 45.5642 32.1829C40.6521 27.9483 34.5543 25.9157 28.2871 26.0851" fill="#DA291C"/>
<path d="M98.412 37.2644C90.9591 37.095 85.7082 39.1276 82.8286 43.0234C80.9654 45.5642 79.9491 48.6131 79.7797 52.6783H90.7897C90.9591 50.8151 91.6366 49.6294 92.4835 48.7825C93.6692 47.258 95.5324 46.5805 98.2426 46.7499C100.445 46.5805 102.308 47.0887 103.663 47.7662C104.849 48.4437 105.526 49.6294 105.526 51.4926C105.526 53.0171 104.679 54.2028 102.985 54.8803L94.5161 56.4048C90.6203 57.0823 87.402 57.9292 85.0306 59.2843C80.9654 61.825 78.7634 65.7209 79.1022 71.3105C78.9328 75.2063 80.2879 78.4246 82.8286 80.796C85.0306 82.6592 88.2489 83.6755 91.9754 83.8449C97.9038 83.6755 102.816 82.1511 106.204 79.2715V83.8449H117.214V51.1539C117.214 45.7336 115.35 42.0071 111.624 40.1439C107.22 38.1113 103.155 37.2644 98.412 37.2644ZM102.985 62.3332L105.018 61.1475V65.7209C105.018 69.4473 104.002 72.1574 101.969 73.5125C99.9364 75.037 97.565 75.7145 95.1937 75.7145C93.4998 75.7145 92.3141 75.3757 91.2978 74.5288C90.2815 73.5125 89.604 72.3268 89.604 70.1248C89.604 67.9228 90.4509 66.3984 92.3141 65.2127C93.3304 64.5352 95.1937 64.027 97.565 63.6883L102.985 62.3332Z" fill="#DA291C"/>
<path d="M72.1574 26.0851H61.1475V83.6755H72.1574V26.0851Z" fill="#DA291C"/>
<path d="M142.452 38.9582C139.572 40.1439 136.862 42.0071 134.66 45.2254V39.6358H124.158V83.6755H135.168V62.5026C135.168 58.9455 135.507 56.2354 136.693 54.8803C137.54 53.1865 138.725 51.8314 140.419 50.8151C142.282 49.6294 144.315 48.9519 146.347 48.9519L149.735 49.1213V37.9419L146.856 37.7726L142.452 38.9582Z" fill="#DA291C"/>
<path d="M218.065 5.44346L191.491 32.0477L198.561 39.1102L225.135 12.506L218.065 5.44346Z" fill="#DA291C"/>
<path d="M180.055 0H170.061V28.6258H180.055V0Z" fill="#DA291C"/>
<path d="M232.394 50.1376H203.26V60.1312H232.394V50.1376Z" fill="#DA291C"/>
</g>
<defs>
<clipPath id="clip0_308_398">
<rect width="232.394" height="84.1837" fill="white"/>
</clipPath>
</defs>
</svg>
