<?xml version="1.0" encoding="utf-8"?>
<!-- Generator: Adobe Illustrator 26.0.3, SVG Export Plug-In . SVG Version: 6.00 Build 0)  -->
<svg version="1.1" id="Capa_1" xmlns="http://www.w3.org/2000/svg" xmlns:xlink="http://www.w3.org/1999/xlink" x="0px" y="0px"
	 viewBox="0 0 401.1 87.3" style="enable-background:new 0 0 401.1 87.3;" xml:space="preserve">
<style type="text/css">
	.st0{fill:#E52A1B;}
</style>
<g>
	<g>
		<g>
			<g>
				<path d="M266.7,84.8c-8.6,0-19.3-4.6-19.3-22.1c0-17.5,10.7-22,19.3-22c6,0,10.4,1.8,14.2,5.8l-7.3,7.3
					c-2.2-2.4-4.1-3.4-6.9-3.4c-2.6,0-4.5,0.9-6.1,2.8c-1.6,2.1-2.4,5-2.4,9.5c0,4.5,0.7,7.5,2.4,9.6c1.6,1.9,3.6,2.8,6.1,2.8
					c2.8,0,4.7-1,6.9-3.4l7.3,7.2C277.1,82.9,272.7,84.8,266.7,84.8z"/>
			</g>
			<g>
				<path d="M298.1,84.3c-8.8,0-12.6-6.2-12.6-12.3V25.4h10.8v45.9c0,2.6,1.1,3.9,3.8,3.9h4.1v9.1H298.1z"/>
			</g>
			<g>
				<path d="M334.4,84.3v-4c-2.8,3-6.8,4.5-10.8,4.5c-4.3,0-7.8-1.4-10.2-3.8c-3.5-3.5-4.4-7.5-4.4-12.2V41.2h10.8v26.1
					c0,5.9,3.7,7.9,7.1,7.9c3.4,0,7.2-2,7.2-7.9V41.2h10.8v43.1H334.4z"/>
			</g>
			<g>
				<path d="M385.4,80.9c-2.4,2.4-6.3,3.9-10.5,3.9c-4.5,0-7.8-1.2-10.7-4.6v4.1h-10.4V25.4h10.8V45c2.8-3.1,6-4.3,10.4-4.3
					c4.2,0,8.1,1.5,10.5,3.9c4.3,4.3,4.4,11.7,4.4,18.1C389.8,69.2,389.7,76.6,385.4,80.9z M371.7,50.4c-6.5,0-7.3,5.3-7.3,12.3
					c0,7,0.8,12.4,7.3,12.4c6.5,0,7.3-5.4,7.3-12.4C379,55.7,378.2,50.4,371.7,50.4z"/>
			</g>
		</g>
		<g>
			<g>
				<polygon class="st0" points="205.5,40.8 231.5,14.7 224.7,7.9 198.6,33.9 				"/>
			</g>
			<g>
				<rect x="177.6" y="2.5" class="st0" width="9.6" height="27.9"/>
			</g>
			<g>
				<rect x="210.2" y="51.6" class="st0" width="28.5" height="9.7"/>
			</g>
			<g>
				<path class="st0" d="M189.5,70.3c-2.3,2.4-5.1,3.5-8.4,3.5c-3.2,0-6-1.1-8.3-3.5c-2.3-2.4-3.5-5.2-3.5-8.4
					c0-3.4,1.2-6.2,3.5-8.5c2.3-2.4,5.1-3.5,8.3-3.4c3.3-0.1,6.1,1,8.5,3.4c2.2,2.3,3.3,5.1,3.4,8.5
					C192.9,65.1,191.8,67.9,189.5,70.3 M197.1,45.8c-4.5-4.5-9.8-6.6-16-6.6c-6.1,0-11.4,2.2-15.8,6.6c-4.5,4.5-6.6,9.9-6.6,16.1
					c0,6.2,2.2,11.6,6.6,16c4.4,4.5,9.6,6.7,15.8,6.7c6.1,0,11.5-2.3,16-6.7c4.4-4.4,6.5-9.8,6.5-16
					C203.6,55.6,201.4,50.3,197.1,45.8"/>
			</g>
			<g>
				<path class="st0" d="M39.2,28c-7.8-0.1-14.2,2.6-19.6,8.2c-5.5,5.5-8.2,12-8.2,19.8c0,7.7,2.7,14.4,8.2,19.9
					c5.4,5.4,11.8,8.1,19.6,8.1c6.2,0,11.9-1.9,16.9-5.7c4.9-3.9,8.1-8.8,9.7-14.8H54.5c-1.5,2.9-3.5,5.3-6.1,7.2
					c-2.9,1.8-5.9,2.7-9.2,2.7c-4.8,0-8.8-1.8-12.1-5.1c-3.4-3.4-5.1-7.5-5-12.2c-0.1-4.8,1.6-8.8,5-12.2c3.3-3.3,7.4-5.1,12.1-5.1
					c3.3,0,6.3,0.9,9.2,2.8c2.6,1.8,4.7,4.3,6.1,7.2h11.3c-1.7-6-4.9-11-9.7-14.8C51.1,29.9,45.4,27.9,39.2,28"/>
			</g>
			<g>
				<path class="st0" d="M112.2,63.4l2.1-1.1v4.4c0,3.7-1,6.3-3,7.8c-2.1,1.4-4.3,2.2-6.7,2.2c-1.6,0-2.8-0.4-3.8-1.2
					c-1-0.9-1.6-2.3-1.6-4.3c0-2.2,0.8-3.7,2.6-4.9c1-0.6,2.8-1.1,5.1-1.5L112.2,63.4z M107.6,39c-7.3-0.1-12.3,1.9-15.2,5.7
					c-1.9,2.4-2.8,5.5-3.1,9.5H100c0.2-1.9,0.8-3.1,1.6-3.9c1.1-1.5,3-2.2,5.7-2.1c2.3-0.1,4,0.3,5.3,1c1.2,0.6,1.8,1.9,1.9,3.6
					c0,1.4-0.8,2.6-2.5,3.3l-8.3,1.3c-3.8,0.5-6.9,1.5-9.3,2.8c-4,2.4-6,6.2-5.9,11.7c-0.1,3.8,1.1,6.9,3.6,9.2
					c2.2,1.9,5.2,2.9,8.8,3c5.9-0.1,10.6-1.6,13.9-4.5v4.5h10.8V52.5c0-5.2-1.9-8.8-5.4-10.7C116.4,39.9,112.3,38.9,107.6,39"/>
			</g>
			<g>
				<rect x="71.3" y="28" class="st0" width="10.8" height="56.3"/>
			</g>
			<g>
				<path class="st0" d="M150.7,40.6c-2.9,1.1-5.5,3.1-7.7,6.1v-5.5l-10.3-0.1v43.2h10.7V63.7c0-3.5,0.4-6,1.4-7.6
					c0.7-1.7,2.1-3,3.7-4.1c1.9-1.3,3.8-1.9,5.9-1.9l3.3,0.2l-0.1-11l-2.8,0.2L150.7,40.6z"/>
			</g>
		</g>
	</g>
</g>
</svg>
