<svg width="507" height="519" viewBox="0 0 507 519" fill="none" xmlns="http://www.w3.org/2000/svg">
<ellipse cx="267" cy="274" rx="227" ry="192" fill="#FD6C75" fill-opacity="0.2"/>
<path d="M2.17905 492.573H78.6152L78.6152 364.875H2.17905L2.17905 492.573Z" fill="#B2B2B2"/>
<path d="M78.3138 492.573H154.75L154.75 364.875H78.3138L78.3138 492.573Z" fill="#D1D1D1"/>
<path d="M85.1794 244.121L94.3853 288.201L65.6323 291.903C65.6323 291.903 63.1396 246.096 65.6323 245.849C68.1251 245.627 85.1794 244.121 85.1794 244.121Z" fill="#A8754B"/>
<path d="M58.2773 199.844C58.2773 199.844 87.0057 203.892 92.164 247.601C92.164 247.601 83.0074 257.449 71.3334 254.413L58.2773 199.844Z" fill="#FFD686"/>
<path d="M45.8129 198.339C45.8129 198.339 17.825 195.574 7.97736 215.294C-1.89493 235.014 26.8828 255.549 17.0105 300.739L79.0578 297.457V257.597C79.0578 257.597 90.3616 241.11 74.3438 223.439C74.3438 223.439 73.3813 196.586 45.8129 198.339Z" fill="#FFD686"/>
<path d="M138.12 307.131C138.12 307.131 158.234 299.678 163.64 319.2C169.045 338.698 191.455 466.174 191.455 466.174H173.487L162.924 415.504C162.924 415.504 148.017 398.894 143.451 363.625L80.7617 356.147L138.12 307.131Z" fill="#B5845B"/>
<path d="M97.0015 353.778C97.0015 353.778 107.664 353.482 126.594 347.46C145.524 341.413 159.024 347.805 151.571 369.129C144.117 390.429 106.454 489.152 106.454 489.152L92.1888 484.882L104.504 420.959C104.504 420.959 107.392 389.244 120.769 370.659C120.769 370.659 92.633 372.066 83.0075 370.585C73.4314 369.129 97.0015 353.778 97.0015 353.778Z" fill="#A8754B"/>
<path d="M17.01 300.739C17.01 300.739 -5.74563 329.344 21.6253 357.431C21.6253 357.431 35.718 373.843 97.8393 371.276C97.8393 371.276 114.129 316.288 148.78 301.504L77.0582 291.903L17.01 300.739Z" fill="#0C2C40"/>
<path d="M47.3434 125.308C47.3434 125.308 54.7476 95.1733 29.1043 95.0005C10.1248 94.8771 4.47296 117.559 27.7469 132.737L47.3434 125.308Z" fill="#190D08"/>
<path d="M26.8834 138.216C26.8834 138.216 22.2434 126.37 35.4723 120.372C48.7012 114.375 52.9216 128.566 52.9216 128.566L26.8834 138.216Z" fill="#FD6C75"/>
<path d="M77.1331 165.168C77.1331 165.168 96.236 153.864 75.5783 131.158C62.6703 116.966 40.0627 117.756 27.4755 131.824C14.8884 145.892 26.7598 170.696 26.7598 170.696L35.324 156.456L42.8269 145.399L53.5631 141.104L61.9792 141.696L69.1119 142.61L74.8625 145.028L77.1331 165.168Z" fill="#27160C"/>
<path d="M61.5302 174.302L40.0605 171.544L35.7151 205.376L57.1848 208.134L61.5302 174.302Z" fill="#B5845B"/>
<path d="M37.8164 181.605C37.8164 181.605 40.1364 193.921 50.0334 196.414C53.1184 197.179 56.475 196.29 58.3508 193.748C58.8691 193.057 59.2393 192.267 59.3627 191.379C59.8316 187.825 50.4529 181.605 50.4529 181.605H37.8164Z" fill="#A8754B"/>
<path d="M52.9471 190.367L51.8365 190.219C39.5208 188.639 30.8085 177.36 32.3881 165.044L33.6468 155.271C35.2264 142.955 46.5055 134.243 58.8211 135.822L59.9318 135.97C72.2474 137.55 80.9597 148.829 79.3802 161.145L78.1215 170.918C76.5419 183.234 65.2628 191.946 52.9471 190.367Z" fill="#B5845B"/>
<path d="M34.8048 162.601C34.8048 162.601 50.2549 157.566 49.86 140.216C49.86 140.216 50.8473 127.283 37.3222 139.253C23.7972 151.223 34.8048 162.601 34.8048 162.601Z" fill="#27160C"/>
<path d="M38.2114 167.34C37.6684 171.486 33.8923 174.423 29.7213 173.88C25.5749 173.337 22.6379 169.561 23.1809 165.415C23.7238 161.268 27.5 158.331 31.671 158.874C35.8174 159.392 38.7544 163.193 38.2114 167.34Z" fill="#B5845B"/>
<path d="M43.1721 153.913L42.4811 159.393C40.9015 167.118 37.6437 164.773 36.459 161.441L43.1721 153.913Z" fill="#27160C"/>
<path d="M81.7491 151.124C81.7491 151.124 65.9782 162.947 42.8523 145.423C26.9086 133.354 51.0216 129.011 51.0216 129.011L73.5058 133.65L81.7491 151.124Z" fill="#27160C"/>
<path d="M35.7432 205.348C35.7432 205.348 49.2435 229.436 58.8197 222.032C69.1609 214.036 45.8129 198.339 45.8129 198.339L35.7432 205.348Z" fill="#B5845B"/>
<path d="M41.7161 254.413C41.7161 254.413 50.0581 269.789 55.7594 281.858L116.573 278.354C116.573 278.354 128.642 268.481 138.094 276.823L128.765 288.028L52.6249 304.885C49.7126 305.527 46.6769 304.688 44.5297 302.664C37.7918 296.296 23.1315 281.463 16.0234 266.334L41.7161 254.413Z" fill="#B5845B"/>
<path d="M210.508 230.695H135.775C133.307 230.695 131.184 232.423 130.69 234.817L116.622 300.838C115.931 304.071 118.399 307.131 121.707 307.131H197.699C200.191 307.131 202.339 305.354 202.808 302.911L215.642 236.89C216.234 233.682 213.766 230.695 210.508 230.695Z" fill="#B2B2B2"/>
<path d="M214.803 230.695H140.07C137.602 230.695 135.479 232.423 134.985 234.817L120.917 300.838C120.226 304.071 122.694 307.131 126.002 307.131H201.994C204.486 307.131 206.634 305.354 207.102 302.911L219.936 236.89C220.529 233.682 218.085 230.695 214.803 230.695Z" fill="#D1D1D1"/>
<path d="M118.598 301.504H67.5333C65.9784 301.504 64.7197 302.763 64.7197 304.318C64.7197 305.873 65.9784 307.131 67.5333 307.131H119.585L118.598 301.504Z" fill="#B2B2B2"/>
<path d="M168.525 267.198C168.525 271.69 172.178 275.343 176.67 275.343C181.162 275.343 184.815 271.69 184.815 267.198C184.815 262.706 181.162 259.053 176.67 259.053C172.178 259.053 168.525 262.681 168.525 267.198Z" fill="white"/>
<path d="M16.0233 205.693C15.0114 206.138 -18.4803 222.6 14.4684 273.615C14.4684 273.615 35.5211 273.96 47.7134 258.288C47.738 258.288 43.6904 193.551 16.0233 205.693Z" fill="#FFD686"/>
<path d="M88.3132 482.093C88.7574 480.76 90.2136 480.266 91.2008 481.13C93.1259 482.833 96.5812 484.931 101.665 484.413C106.972 483.895 108.946 480.76 109.711 478.514C110.106 477.329 111.242 476.737 112.253 477.231L144.388 493.372C146.338 494.359 147.868 496.185 148.608 498.456C149.324 500.603 147.892 502.899 145.869 502.849L90.3617 501.319C88.1651 501.27 86.5115 499.122 86.6843 496.63L87.5974 484.388C87.6221 484.191 87.6468 483.993 87.7209 483.796L88.3132 482.093Z" fill="#FD6C75"/>
<path d="M169.34 460.966C169.439 459.559 170.697 458.696 171.857 459.288C174.153 460.423 178.028 461.534 182.816 459.708C187.776 457.807 188.887 454.278 189.035 451.908C189.109 450.674 190.047 449.786 191.158 450.008L226.402 457.19C228.549 457.634 230.499 458.992 231.832 460.991C233.09 462.867 232.3 465.458 230.351 465.927L176.374 478.983C174.251 479.501 172.08 477.873 171.611 475.404L169.291 463.36C169.241 463.163 169.241 462.965 169.241 462.743L169.34 460.966Z" fill="#FD6C75"/>
<path d="M310.432 475.532L299.949 500.717L282.857 491.641L293.287 466.933L310.432 475.532Z" fill="#FCC9A7"/>
<path d="M305.709 499.231C305.709 497.718 304.408 496.737 303.108 497.294C300.56 498.382 296.367 499.311 291.351 497.055C286.149 494.72 285.194 490.871 285.167 488.35C285.167 487.023 284.212 486.015 283.017 486.2L244.88 491.694C242.571 492.039 240.395 493.366 238.856 495.436C237.396 497.373 238.086 500.187 240.13 500.824L297.057 518.127C299.286 518.817 301.728 517.198 302.391 514.597L305.602 501.859C305.655 501.646 305.682 501.434 305.682 501.222L305.709 499.231Z" fill="#1F252A"/>
<path d="M464.971 414.438L488.856 427.602L478.002 443.605L454.567 430.547L464.971 414.438Z" fill="#FCC9A7"/>
<path d="M488.006 421.71C486.493 421.551 485.379 422.745 485.777 424.072C486.573 426.699 487.051 430.999 484.264 435.723C481.371 440.632 477.443 441.19 474.922 440.898C473.595 440.765 472.507 441.588 472.534 442.782L473.834 481.291C473.914 483.626 475.002 485.935 476.886 487.687C478.638 489.332 481.53 488.987 482.38 486.997L505.761 432.299C506.69 430.149 505.336 427.548 502.842 426.62L490.527 422.028C490.315 421.949 490.103 421.896 489.89 421.869L488.006 421.71Z" fill="#1F252A"/>
<path d="M323.062 232.219L332.272 291.296L378.822 374.974L458.97 444.666L477.654 411.625L414.092 352.336L376.805 233.228L323.062 232.219Z" fill="#092330"/>
<path d="M398.7 228.849C398.7 228.849 407.962 246.365 393.577 274.337L348.912 359.581L314.862 488.775L281.051 476.965L305.334 346.312L348.381 244.348L323.063 232.219L398.7 228.849Z" fill="#0C2C40"/>
<path d="M301.329 62.6328C307.221 69.0819 317.226 69.533 323.649 63.6678C330.098 57.7761 330.549 47.7708 324.684 41.3217C318.792 34.8727 308.813 34.4215 302.338 40.2867C295.889 46.2049 295.437 56.1838 301.329 62.6328Z" fill="#FCC9A7"/>
<path d="M288.696 70.7538L302.444 54.1933L313.404 65.2071L300.506 80.9981L288.696 70.7538Z" fill="#FCC9A7"/>
<path d="M319.721 31.98L307.115 48.8589C305.469 51.0617 305.522 54.1137 307.247 56.2369L317.465 68.843C319.853 71.7889 324.312 71.8155 326.727 68.9227L340.979 51.9641C342.943 49.6286 342.837 46.1785 340.74 43.9491L328.877 31.4226C326.329 28.7421 321.95 28.981 319.721 31.98Z" fill="#1C2226"/>
<path d="M332.751 91.4811L282.777 116.561L310.219 74.2305L292.119 58.5723L234.9 136.97C229.699 143.71 231.716 153.53 239.173 157.644C242.968 159.74 247.533 159.953 251.514 158.201L325.612 128.769L332.751 91.4811Z" fill="#F7ECE7"/>
<path d="M314.863 115.552C314.863 115.552 323.701 184.846 323.064 232.219C323.064 232.219 349.577 243.896 405.787 226.832L391.88 97.9832L364.81 88.8802L332.751 91.4811L314.863 115.552Z" fill="#F7ECE7"/>
<path d="M341.829 84.74L342.519 89.2518C342.572 89.5702 342.466 89.9152 342.227 90.1541L335.301 97.5054C334.664 98.1689 333.549 97.7974 333.443 96.8951L332.726 91.481C332.673 91.136 332.806 90.791 333.071 90.5522L339.998 84.1031C340.662 83.5193 341.723 83.8642 341.829 84.74Z" fill="#FCF3F0"/>
<path d="M351.09 96.3909C359.317 95.7274 365.448 88.4821 364.785 80.2549L362.794 56.1572L332.964 58.5989L339.121 91.9057C340.103 96.152 342.837 97.0543 351.09 96.3909Z" fill="#FCC9A7"/>
<path d="M363.801 64.5967C363.801 64.5967 357.379 82.8558 344.348 80.5999C332.379 78.5299 332.963 58.5989 332.963 58.5989L363.801 64.5967Z" fill="#F4BE9A"/>
<path d="M346.421 73.9651L349.075 73.6732C362.292 72.2401 371.872 60.3504 370.439 47.1339L368.82 32.0595C367.387 18.843 355.498 9.26221 342.281 10.6953L339.627 10.9873C326.411 12.4204 316.83 24.3101 318.263 37.5266L319.882 52.6009C321.315 65.8441 333.205 75.3982 346.421 73.9651Z" fill="#FCC9A7"/>
<path d="M346.421 73.9651L349.075 73.6732C362.292 72.2401 371.872 60.3504 370.439 47.1339L368.82 32.0595C367.387 18.843 355.498 9.26221 342.281 10.6953L339.627 10.9873C326.411 12.4204 316.83 24.3101 318.263 37.5266L319.882 52.6009C321.315 65.8441 333.205 75.3982 346.421 73.9651Z" fill="#FCC9A7"/>
<path d="M369.907 42.3567C368.102 42.171 360.539 47.9035 358.575 45.4088C355.868 41.9587 353.4 35.6689 356.903 29.1402C357.487 28.0521 357.646 26.7782 357.274 25.584C356.584 23.4343 354.726 20.9396 349.604 22.7442C341.404 25.637 322.959 34.9257 317.624 21.6295C310.884 4.88322 363.909 9.55418 363.909 9.55418L375.984 27.017L370.809 51.9109L369.907 42.3567Z" fill="#1C2226"/>
<path d="M362.527 44.878C363.031 49.602 367.278 53.0256 372.002 52.4948C376.726 51.9905 380.149 47.7442 379.618 43.0202C379.114 38.2962 374.868 34.8727 370.144 35.4034C365.42 35.9342 362.023 40.154 362.527 44.878Z" fill="#FCC9A7"/>
<path d="M348.383 101.513L355.151 205.839L342.545 217.676L335.061 206.211L342.545 99.4428L348.383 101.513Z" fill="#0C2C40"/>
<path d="M338.297 94.3208L339.332 92.8876L339.067 91.6403H353.982L355.149 95.5416L345.224 104.3L338.297 94.3208Z" fill="#0C2C40"/>
<path d="M363.83 78.8483L349.711 88.4556C348.118 89.5437 347.906 91.8261 349.286 93.1796L360.38 104.087C361.627 105.308 363.671 105.255 364.838 103.928L376.011 91.3748C377.099 90.154 377.046 88.2698 375.879 87.1286L367.704 79.1403C366.669 78.1583 365.051 78.0256 363.83 78.8483Z" fill="#FCF3F0"/>
<path d="M304.009 83.8113L282.884 71.0723" stroke="#EADDD8" stroke-width="0.7599" stroke-miterlimit="10" stroke-linecap="round" stroke-linejoin="round"/>
<path d="M342.49 183.864L335.085 263.031C334.793 266.004 336.837 268.711 339.783 269.295L430.574 286.651C433.918 287.288 437.076 284.953 437.447 281.582L445.754 206.343C446.073 203.424 444.162 200.717 441.296 200.027L349.602 178.769C346.179 177.946 342.835 180.361 342.49 183.864Z" fill="#AFAFAF"/>
<path d="M348.939 185.271L341.534 264.438C341.269 267.41 343.286 270.117 346.232 270.701L437.023 288.058C440.367 288.695 443.525 286.359 443.896 282.989L452.203 207.75C452.522 204.831 450.611 202.123 447.745 201.433L356.051 180.149C352.601 179.353 349.257 181.768 348.939 185.271Z" fill="#D1D1D1"/>
<path d="M383.203 258.121C375.905 251.434 364.546 251.938 357.858 259.236C351.17 266.534 351.675 277.893 358.973 284.581C366.271 291.269 377.63 290.765 384.318 283.466C391.006 276.142 390.502 264.809 383.203 258.121Z" fill="#FCC9A7"/>
<path d="M396.659 247.665L382.805 267.782L369.323 256.423L382.274 237.288L396.659 247.665Z" fill="#FCC9A7"/>
<path d="M391.907 97.9832C391.907 97.9832 412.21 100.027 418.101 133.227L441.456 181.741C442.093 183.864 442.518 186.041 442.73 188.217L393.606 258.785L371.445 245.648L411.175 181.954L387.05 143.764L391.907 97.9832Z" fill="#F7ECE7"/>
<path d="M378.663 236.12L401.036 248.116" stroke="#EADDD8" stroke-width="0.7599" stroke-miterlimit="10" stroke-linecap="round" stroke-linejoin="round"/>
<path d="M398.859 162.474L384.555 137.58" stroke="#EADDD8" stroke-width="0.7599" stroke-miterlimit="10" stroke-linecap="round" stroke-linejoin="round"/>
<path d="M323.091 27.5478C312.953 22.9565 315.076 11.12 317.385 7.37793C317.385 7.37793 317.836 14.0393 322.374 12.5C322.374 12.5 321.764 2.57431 335.06 0C335.06 0 330.151 8.91722 347.64 7.2187C369.11 5.12209 370.358 18.7102 369.163 35.5892L362.582 30.8652L357.486 19.1083H340.103L323.091 27.5478Z" fill="#1C2226"/>
</svg>
