<?xml version="1.0" encoding="UTF-8" standalone="no"?>
<svg
   width="28.66909"
   height="20.670187"
   viewBox="0 0 28.66909 20.670187"
   fill="none"
   version="1.1"
   id="svg6"
   sodipodi:docname="video-recorder.svg"
   inkscape:version="1.2.2 (732a01da63, 2022-12-09)"
   xmlns:inkscape="http://www.inkscape.org/namespaces/inkscape"
   xmlns:sodipodi="http://sodipodi.sourceforge.net/DTD/sodipodi-0.dtd"
   xmlns="http://www.w3.org/2000/svg"
   xmlns:svg="http://www.w3.org/2000/svg">
  <defs
     id="defs10" />
  <sodipodi:namedview
     id="namedview8"
     pagecolor="#ffffff"
     bordercolor="#111111"
     borderopacity="1"
     inkscape:showpageshadow="0"
     inkscape:pageopacity="0"
     inkscape:pagecheckerboard="1"
     inkscape:deskcolor="#d1d1d1"
     showgrid="false"
     inkscape:zoom="26.03125"
     inkscape:cx="12.062425"
     inkscape:cy="10.352941"
     inkscape:window-width="1920"
     inkscape:window-height="991"
     inkscape:window-x="-9"
     inkscape:window-y="-9"
     inkscape:window-maximized="1"
     inkscape:current-layer="svg6" />
  <path
     id="path2"
     style="color:#000000;fill:#2c3948;stroke-linecap:round;stroke-linejoin:round;-inkscape-stroke:none"
     d="m 7.401497,0.00110764 c -2.2402055,0 -3.4997314,-0.051312 -4.6699218,0.5449219 C 1.7908981,1.0253418 1.0253366,1.7908701 0.54602832,2.7315764 -0.05020478,3.9017506 0.00110642,5.161302 0.00110642,7.401498 v 5.867188 c 0,2.240196 -0.051288,3.499709 0.5449219,4.669922 0.47931378,0.940654 1.24488238,1.706241 2.18554688,2.185546 1.1701986,0.596281 2.4297163,0.544922 4.6699218,0.544922 h 7.201172 c 2.240196,0 3.499751,0.05138 4.669922,-0.544922 0.940744,-0.479307 1.704281,-1.244919 2.183594,-2.185546 0.596255,-1.170221 0.544922,-2.429726 0.544922,-4.669922 v -0.519532 l 3.138672,3.138672 c 0.285599,0.2856 0.50441,0.509283 0.738281,0.705078 0.23387,0.195797 0.515193,0.423393 0.992187,0.460938 0.530779,0.04167 1.052561,-0.175059 1.398438,-0.580078 0.310746,-0.363868 0.348084,-0.723552 0.375,-1.027344 0.02691,-0.303792 0.02539,-0.615683 0.02539,-1.019531 V 6.243295 c 0,-0.403898 0.0015,-0.715729 -0.02539,-1.019531 -0.02691,-0.303803 -0.06425,-0.663476 -0.375,-1.0273439 a 1.0001,1.0001 0 0 0 0,-0.00195 C 27.922916,3.7898199 27.401605,3.574373 26.870247,3.616342 26.393253,3.653887 26.11192,3.8815085 25.87806,4.0772795 25.644199,4.2730505 25.425368,4.496818 25.139779,4.782358 L 22.001107,7.92103 V 7.401498 c 0,-2.240196 0.05136,-3.4997391 -0.544922,-4.6699216 C 20.976877,1.790897 20.213347,1.0253441 19.272591,0.54602954 18.102428,-0.05022566 16.842865,0.00110764 14.602669,0.00110764 Z m 0,1.99999996 h 7.201172 c 2.240196,0 3.220685,0.052442 3.761719,0.328125 0.56464,0.2876839 1.022855,0.7459292 1.310547,1.3105469 0.275719,0.5410941 0.326172,1.5215225 0.326172,3.7617185 v 5.867188 c 0,2.240196 -0.05043,3.220543 -0.326172,3.761718 -0.287686,0.564571 -0.745894,1.022858 -1.310547,1.310547 -0.541026,0.275698 -1.521523,0.328125 -3.761719,0.328125 H 7.401497 c -2.2402055,0 -3.2206208,-0.05241 -3.7617187,-0.328125 C 3.0751658,18.05326 2.6168961,17.594948 2.3292314,17.030404 2.0535038,16.489221 2.0011064,15.508882 2.0011064,13.268686 V 7.401498 c 0,-2.240196 0.05242,-3.2206162 0.328125,-3.7617185 C 2.6169015,3.0751888 3.0751783,2.6169188 3.6397783,2.3292326 4.1808845,2.0535287 5.1612915,2.0011076 7.401497,2.0011076 Z M 26.665169,6.088998 c 2.46e-4,0.06624 0.0039,0.08043 0.0039,0.154297 v 8.183594 c 0,0.07386 -0.0037,0.08806 -0.0039,0.154297 -0.04704,-0.04669 -0.05906,-0.05516 -0.111328,-0.107422 L 22.415169,10.335092 26.553841,6.19642 c 0.05227,-0.05226 0.06429,-0.06074 0.111328,-0.107422 z" />
</svg>
