<svg width="1138" height="36" viewBox="0 0 1138 36" fill="none" xmlns="http://www.w3.org/2000/svg">
<g clip-path="url(#clip0_20_163)">
<mask id="mask0_20_163" style="mask-type:luminance" maskUnits="userSpaceOnUse" x="0" y="0" width="1138" height="36">
<path d="M1138 0H0V36H1138V0Z" fill="white"/>
</mask>
<g mask="url(#mask0_20_163)">
<path d="M33.25 20.25C33.7422 20.25 34.1641 19.9688 34.3047 19.4766L37.5391 11.4609L43.4453 35.0859C43.5859 35.6484 44.0078 35.9297 44.5703 36C45.0625 35.9297 45.5547 35.5781 45.625 35.0859L51.3906 6.1875L54.6953 19.3359C54.8359 19.8281 55.3281 20.25 55.75 20.25H1137.44C1137.79 20.25 1138 19.9689 1138 19.6876V18.5626C1138 18.211 1137.79 18.0001 1137.44 18.0001L56.6641 18L52.375 0.843751C52.2344 0.281251 51.8125 4.92e-08 51.25 0C50.7578 -4.3e-08 50.2656 0.351563 50.1953 0.843751L44.4297 29.7422L38.875 7.59375C38.7344 7.10156 38.3125 6.75 37.8906 6.75C37.3281 6.67969 36.9063 6.96094 36.7656 7.45312L32.5469 18H0.562501C0.281251 18 1.2909e-07 18.2109 9.835e-08 18.5625L0 19.6875C-2.458e-08 19.9688 0.28125 20.25 0.5625 20.25H33.25Z" fill="#F39200"/>
</g>
</g>
<defs>
<clipPath id="clip0_20_163">
<rect width="1138" height="36" fill="white"/>
</clipPath>
</defs>
</svg>
