<svg width="58" height="28" viewBox="0 0 58 28" fill="none" xmlns="http://www.w3.org/2000/svg">
<g clip-path="url(#clip0_1_436)">
<path d="M31.3715 27.6593C30.6815 27.7677 29.9945 27.9037 29.3014 27.9756C28.3406 28.0764 27.4088 27.838 26.4755 27.6593C25.0158 27.1061 23.6908 26.3711 22.8141 25.0142C22.222 24.0989 21.8625 23.1133 21.8854 22.007C21.8931 21.625 21.8793 21.243 21.8885 20.8625C21.9512 17.9974 21.6299 15.1384 21.7278 12.2718C21.7584 11.387 21.1892 10.84 20.4686 10.4809C19.7005 10.0989 18.9401 10.2471 18.3465 10.8446C16.7889 12.4078 15.2757 14.0153 13.7228 15.5815C13.4366 15.8703 13.6003 16.043 13.7442 16.2661C16.0331 19.8249 18.3235 23.3838 20.6094 26.9441C20.6996 27.0847 20.7455 27.2543 20.8603 27.5248H20.0004C17.7819 27.5248 15.5649 27.5171 13.3464 27.5324C12.9608 27.5355 12.7588 27.4438 12.54 27.0755C11.0942 24.6276 9.59782 22.2087 8.10299 19.7577C7.08399 20.511 6.43985 21.3499 6.56073 22.7175C6.68619 24.131 6.57144 25.5643 6.59898 26.9884C6.60663 27.4255 6.47045 27.5401 6.04358 27.534C4.20909 27.5126 2.37306 27.5095 0.537037 27.534C0.0810911 27.5401 0.00153002 27.3781 0.00306004 26.9686C0.0122402 18.549 0.0122402 10.1279 0 1.70684C0 1.26371 0.0719109 1.08951 0.573758 1.09868C2.35776 1.1323 4.14329 1.13382 5.9273 1.09868C6.45822 1.08798 6.6051 1.21787 6.60204 1.76185C6.57756 6.08624 6.58827 10.4106 6.58827 14.926C7.18803 14.3285 7.70212 13.8365 8.19173 13.3231C10.6658 10.7285 12.9562 7.92143 15.9642 5.90898C18.628 4.12575 21.584 3.69942 24.566 4.99979C26.3898 5.79438 27.6306 7.25978 28.007 9.31348C28.3253 11.0493 28.1019 12.799 28.1508 14.5425C28.1876 15.8642 28.1065 17.1906 28.1692 18.5108C28.2885 21.029 29.2081 21.8572 31.4434 22.1277C32.1396 22.2118 32.7792 21.6617 33.3407 21.2063C34.3229 20.4102 34.7284 19.3375 34.733 18.1089C34.7452 14.955 34.7498 11.7996 34.7238 8.64572C34.7192 8.12313 34.8324 7.95657 35.3848 7.96727C37.1688 8.00547 38.9543 7.99936 40.7383 7.9688C41.2157 7.96115 41.3274 8.09562 41.3258 8.56168C41.309 14.6922 41.309 20.8243 41.3258 26.9548C41.3258 27.4453 41.1759 27.5385 40.723 27.5324C38.9895 27.5064 37.256 27.5064 35.5225 27.5324C35.0512 27.5385 34.8263 27.453 34.8768 26.9212C34.9273 26.3956 34.8875 25.8607 34.8875 25.1716C33.9435 26.4735 32.646 27.0496 31.37 27.6577L31.3715 27.6593Z" fill="#3A5160"/>
<path d="M52.0237 9.7826C52.8805 9.10567 53.5629 8.47 54.4289 8.07118C55.4647 7.59443 56.5342 7.50275 57.6435 7.51803C57.9908 7.52261 57.9939 7.70445 57.9923 7.95352C57.9877 9.60534 57.977 11.2587 58 12.9105C58.0061 13.3399 57.7842 13.3659 57.4813 13.3246C56.6184 13.2054 55.7692 13.2161 54.9216 13.4698C53.3059 13.9542 51.9962 15.5602 52.0161 17.4519C52.0467 20.6027 52.013 23.7551 52.036 26.9075C52.039 27.401 51.9136 27.5477 51.4087 27.5385C49.6522 27.5065 47.8942 27.5126 46.1362 27.5355C45.7001 27.5416 45.5885 27.4087 45.59 26.9823C45.6022 20.8319 45.6068 14.68 45.5854 8.5296C45.5839 8.00548 45.795 7.97339 46.2112 7.97644C47.9432 7.99325 49.6751 8.00242 51.4071 7.97186C51.9059 7.96269 52.091 8.09869 52.0329 8.59989C51.9931 8.93911 52.0253 9.28598 52.0253 9.78413L52.0237 9.7826Z" fill="#3A5160"/>
<path d="M38.0164 0.0442987C39.9795 -0.181853 41.3167 1.69459 41.3152 3.10498C41.3136 4.81029 39.8372 6.33375 38.0593 6.27875C36.3793 6.22679 34.8003 5.21369 34.7223 3.1004C34.6672 1.59833 36.1605 -0.166572 38.0164 0.0427707V0.0442987Z" fill="#73B4AB"/>
<path d="M52.0238 3.10655C52.0207 4.90659 50.7248 6.16418 48.7694 6.28948C47.0849 6.39797 45.3881 4.72322 45.4523 3.06223C45.5089 1.58308 46.8339 -0.119168 48.9637 0.00460429C50.3285 0.0840629 52.1324 1.25913 52.0238 3.10502V3.10655Z" fill="#CC552D"/>
</g>
<defs>
<clipPath id="clip0_1_436">
<rect width="58" height="28" fill="white"/>
</clipPath>
</defs>
</svg>
