<svg width="1299" height="42" viewBox="0 0 1299 42" fill="none" xmlns="http://www.w3.org/2000/svg">
<path d="M27.4478 23.6006C28.0317 23.6006 28.5323 23.2848 28.6991 22.732L32.5364 13.7302L39.5435 40.2616C39.7103 40.8933 40.2108 41.2092 40.8782 41.2882C41.4621 41.2092 42.0461 40.8144 42.1295 40.2616L48.9698 7.80808L52.8905 22.574C53.0573 23.1268 53.6413 23.6006 54.1418 23.6006H1297.46C1297.87 23.6006 1298.12 23.2849 1298.12 22.969V21.7056C1298.12 21.3107 1297.87 21.0739 1297.46 21.0739L55.2263 21.0738L50.1377 1.80693C49.9709 1.17523 49.4703 0.859375 48.803 0.859375C48.219 0.859375 47.6351 1.25419 47.5517 1.80693L40.7114 34.2605L34.1213 9.38733C33.9545 8.83459 33.4539 8.43978 32.9534 8.43978C32.286 8.36082 31.7856 8.67667 31.6187 9.2294L26.6136 21.0738H0.667351C0.333676 21.0738 3.64699e-08 21.3106 0 21.7055V22.9689C-2.91617e-08 23.2848 0.333675 23.6006 0.66735 23.6006H27.4478Z" fill="#2D387C"/>
</svg>
