<svg width="360" height="121" viewBox="0 0 360 121" fill="none" xmlns="http://www.w3.org/2000/svg">
<g clip-path="url(#clip0_584_958)">
<g clip-path="url(#clip1_584_958)">
<path d="M51.2343 27.2652C51.2343 29.07 49.7739 30.5304 47.9691 30.5304H22.4263C13.664 30.5304 6.53429 37.6601 6.53429 46.4224C6.53429 55.1846 13.664 62.3143 22.4263 62.3143H35.1977C36.9198 62.3143 38.3182 60.9159 38.3182 59.1938C38.3182 57.4716 36.9198 56.0733 35.1977 56.0733H22.4263C17.1083 56.0733 12.7753 51.7472 12.7753 46.4224C12.7753 41.1044 17.1014 36.7714 22.4263 36.7714H35.1977C38.2218 36.7714 41.1632 37.3639 43.9255 38.5349C46.5983 39.6646 48.9955 41.2766 51.0552 43.3363C53.1149 45.396 54.7268 47.7932 55.8566 50.466C57.0276 53.2352 57.62 56.1697 57.62 59.1938C57.62 62.2179 57.0276 65.1593 55.8566 67.9216C54.7268 70.5944 53.1149 72.9916 51.0552 75.0513C48.9955 77.111 46.5983 78.7229 43.9255 79.8527C41.1632 81.0237 38.2218 81.6161 35.1977 81.6161H9.65482C7.85001 81.6161 6.38963 80.1558 6.38963 78.351C6.38963 76.5461 7.85001 75.0858 9.65482 75.0858H35.1977C43.96 75.0858 51.0897 67.9561 51.0897 59.1938C51.0897 50.4315 43.96 43.3018 35.1977 43.3018H22.4263C20.7041 43.3018 19.3057 44.7002 19.3057 46.4224C19.3057 48.1445 20.7041 49.5429 22.4263 49.5429H35.1977C40.5157 49.5429 44.8486 53.8689 44.8486 59.1938C44.8486 64.5118 40.5226 68.8447 35.1977 68.8447H22.4263C19.4022 68.8447 16.4676 68.2523 13.6984 67.0812C11.0256 65.9515 8.62842 64.3396 6.56873 62.2799C4.50904 60.2202 2.89711 57.823 1.76738 55.1502C0.596325 52.381 0.00390625 49.4464 0.00390625 46.4224C0.00390625 43.3983 0.596325 40.4568 1.76738 37.6945C2.89711 35.0217 4.50904 32.6245 6.56873 30.5648C8.62842 28.5051 11.0256 26.8932 13.6984 25.7635C16.4676 24.5924 19.4022 24 22.4263 24H47.9691C49.7739 24 51.2343 25.4604 51.2343 27.2652Z" fill="#2C377C"/>
<path d="M77.4727 79.4864C77.4727 79.0593 77.8171 78.7148 78.2235 78.7148C78.6299 78.7148 78.995 79.0593 78.995 79.4864V91.6447C78.995 92.0718 78.6506 92.4162 78.2235 92.4162C77.7964 92.4162 77.4727 92.0718 77.4727 91.6447V79.4864Z" fill="#5B6670"/>
<path d="M82.2188 83.0008C82.2188 82.5943 82.5494 82.2499 82.9489 82.2499C83.3485 82.2499 83.6998 82.5806 83.6998 83.0008V84.0823C84.3542 83.0008 85.4013 82.1328 87.1165 82.1328C89.5275 82.1328 90.9397 83.7516 90.9397 86.1282V91.6666C90.9397 92.0937 90.609 92.4175 90.2095 92.4175C89.7824 92.4175 89.4587 92.0868 89.4587 91.6666V86.4933C89.4587 84.6403 88.4529 83.483 86.7032 83.483C84.9535 83.483 83.7136 84.7367 83.7136 86.6104V91.6666C83.7136 92.0937 83.4036 92.4175 82.9834 92.4175C82.5632 92.4175 82.2325 92.0868 82.2325 91.6666V83.0008H82.2188Z" fill="#5B6670"/>
<path d="M93.0821 91.2609C92.9444 91.1645 92.8135 90.9716 92.8135 90.7236C92.8135 90.3792 93.1028 90.0898 93.4679 90.0898C93.6057 90.0898 93.7366 90.1312 93.833 90.2069C94.8594 90.9027 95.9133 91.2678 96.9949 91.2678C98.1935 91.2678 99.0614 90.6478 99.0614 89.6834V89.6421C99.0614 88.6364 97.8835 88.2506 96.5747 87.8855C95.0109 87.4446 93.275 86.9004 93.275 85.0681V85.0267C93.275 83.3115 94.701 82.168 96.6711 82.168C97.7319 82.168 98.8892 82.4986 99.8536 83.0153C100.046 83.1324 100.219 83.3459 100.219 83.6352C100.219 83.9797 99.9294 84.269 99.5643 84.269C99.4265 84.269 99.3163 84.2277 99.2336 84.1932C98.3863 83.711 97.4771 83.4217 96.6298 83.4217C95.4518 83.4217 94.701 84.0417 94.701 84.8683V84.9096C94.701 85.8534 95.934 86.2185 97.2704 86.6249C98.8134 87.0864 100.474 87.6857 100.474 89.4836V89.525C100.474 91.4125 98.9099 92.5146 96.926 92.5146C95.6171 92.5146 94.1705 92.0324 93.089 91.2609H93.0821Z" fill="#5B6670"/>
<path d="M111.296 91.6667C111.296 92.0731 110.986 92.4176 110.559 92.4176C110.132 92.4176 109.829 92.0869 109.829 91.6667V90.5852C109.154 91.6667 108.127 92.5347 106.412 92.5347C104.001 92.5347 102.589 90.9158 102.589 88.5393V83.0009C102.589 82.5738 102.899 82.25 103.326 82.25C103.753 82.25 104.077 82.5807 104.077 83.0009V88.1742C104.077 90.0272 105.083 91.1845 106.832 91.1845C108.582 91.1845 109.822 89.9308 109.822 88.0571V83.0009C109.822 82.5738 110.132 82.25 110.552 82.25C110.972 82.25 111.289 82.5807 111.289 83.0009V91.6667H111.296Z" fill="#5B6670"/>
<path d="M114.147 82.9992C114.147 82.5928 114.478 82.2484 114.878 82.2484C115.277 82.2484 115.629 82.579 115.629 82.9992V84.8729C116.359 83.2128 117.812 82.207 119.066 82.207C119.507 82.207 119.796 82.5377 119.796 82.9579C119.796 83.3781 119.527 83.6536 119.142 83.7087C117.213 83.943 115.629 85.3896 115.629 88.2621V91.6582C115.629 92.0646 115.319 92.409 114.898 92.409C114.478 92.409 114.147 92.0784 114.147 91.6582V82.9923V82.9992Z" fill="#5B6670"/>
<path d="M120.237 89.4293V89.3879C120.237 87.2869 121.973 86.1641 124.501 86.1641C125.776 86.1641 126.685 86.3363 127.567 86.5912V86.2467C127.567 84.4557 126.465 83.5257 124.598 83.5257C123.592 83.5257 122.745 83.7599 122.015 84.0837C121.918 84.125 121.822 84.1388 121.746 84.1388C121.401 84.1388 121.091 83.8495 121.091 83.4982C121.091 83.1882 121.305 82.9609 121.498 82.8782C122.483 82.4511 123.489 82.2031 124.756 82.2031C126.161 82.2031 127.243 82.5682 127.98 83.3053C128.655 83.9804 129.006 84.9448 129.006 86.2192V91.6818C129.006 92.1089 128.696 92.412 128.29 92.412C127.863 92.412 127.574 92.102 127.574 91.7163V90.807C126.878 91.7163 125.721 92.5222 123.964 92.5222C122.111 92.5222 120.237 91.4614 120.237 89.4155V89.4293ZM127.594 88.6577V87.6933C126.864 87.4798 125.879 87.2662 124.66 87.2662C122.786 87.2662 121.746 88.0791 121.746 89.3328V89.3741C121.746 90.6279 122.903 91.3649 124.253 91.3649C126.086 91.3649 127.587 90.249 127.587 88.6646L127.594 88.6577Z" fill="#5B6670"/>
<path d="M131.679 83.0008C131.679 82.5943 132.009 82.2499 132.409 82.2499C132.808 82.2499 133.16 82.5806 133.16 83.0008V84.0823C133.814 83.0008 134.861 82.1328 136.576 82.1328C138.988 82.1328 140.4 83.7516 140.4 86.1282V91.6666C140.4 92.0937 140.069 92.4175 139.669 92.4175C139.242 92.4175 138.919 92.0868 138.919 91.6666V86.4933C138.919 84.6403 137.913 83.483 136.163 83.483C134.413 83.483 133.174 84.7367 133.174 86.6104V91.6666C133.174 92.0937 132.864 92.4175 132.443 92.4175C132.023 92.4175 131.692 92.0868 131.692 91.6666V83.0008H131.679Z" fill="#5B6670"/>
<path d="M142.467 87.3819V87.3406C142.467 84.5232 144.664 82.1328 147.578 82.1328C149.238 82.1328 150.354 82.7666 151.243 83.5794C151.36 83.6759 151.477 83.8687 151.477 84.1029C151.477 84.5094 151.146 84.8194 150.761 84.8194C150.568 84.8194 150.396 84.7436 150.278 84.6471C149.562 83.9927 148.756 83.4485 147.557 83.4485C145.532 83.4485 143.989 85.1638 143.989 87.3061V87.3475C143.989 89.5105 145.574 91.2257 147.654 91.2257C148.791 91.2257 149.7 90.7022 150.43 90.0134C150.526 89.9169 150.664 89.8205 150.857 89.8205C151.222 89.8205 151.532 90.1511 151.532 90.4956C151.532 90.6678 151.456 90.84 151.339 90.9571C150.396 91.9008 149.259 92.5552 147.578 92.5552C144.664 92.5552 142.467 90.1787 142.467 87.3819Z" fill="#5B6670"/>
<path d="M157.684 92.5562C154.942 92.5562 152.703 90.4551 152.703 87.3691V87.3277C152.703 84.4552 154.728 82.1406 157.484 82.1406C160.439 82.1406 162.113 84.5516 162.113 87.1968C162.113 87.6033 161.782 87.8926 161.417 87.8926H154.198C154.411 90.0556 155.934 91.268 157.711 91.268C158.944 91.268 159.853 90.7858 160.584 90.1107C160.701 90.0143 160.839 89.9385 161.011 89.9385C161.376 89.9385 161.665 90.2278 161.665 90.5723C161.665 90.7445 161.589 90.9167 161.431 91.0545C160.487 91.9637 159.364 92.5562 157.67 92.5562H157.684ZM160.639 86.7835C160.48 84.9718 159.44 83.3875 157.456 83.3875C155.72 83.3875 154.405 84.8341 154.212 86.7835H160.639Z" fill="#5B6670"/>
<path d="M169.222 85.6045V85.5632C169.222 81.74 172.08 78.5781 176.048 78.5781C178.232 78.5781 179.617 79.2945 180.87 80.3347C181.022 80.4725 181.18 80.6791 181.18 80.9547C181.18 81.3611 180.815 81.7055 180.409 81.7055C180.195 81.7055 180.023 81.6091 179.906 81.5333C178.866 80.6103 177.688 79.9903 176.028 79.9903C173.038 79.9903 170.799 82.422 170.799 85.5287V85.57C170.799 88.6975 173.059 91.1429 176.028 91.1429C177.708 91.1429 178.886 90.5643 180.044 89.5034C180.161 89.3863 180.333 89.2899 180.526 89.2899C180.912 89.2899 181.263 89.6343 181.263 90.0201C181.263 90.2543 181.146 90.4472 181.008 90.5574C179.679 91.7698 178.211 92.5482 175.993 92.5482C172.094 92.5482 169.222 89.4828 169.222 85.6045Z" fill="#5B6670"/>
<path d="M182.51 87.3819V87.3406C182.51 84.5232 184.707 82.1328 187.718 82.1328C190.728 82.1328 192.912 84.4887 192.912 87.3061V87.3475C192.912 90.1649 190.693 92.5552 187.683 92.5552C184.673 92.5552 182.51 90.1994 182.51 87.3819ZM191.382 87.3819V87.3406C191.382 85.1982 189.777 83.4416 187.676 83.4416C185.575 83.4416 184.032 85.1982 184.032 87.2993V87.3406C184.032 89.4829 185.617 91.2189 187.718 91.2189C189.819 91.2189 191.382 89.4829 191.382 87.3819Z" fill="#5B6670"/>
<path d="M195.109 83.0008C195.109 82.5943 195.44 82.2499 195.84 82.2499C196.239 82.2499 196.59 82.5806 196.59 83.0008V84.0203C197.245 83.0352 198.133 82.1328 199.814 82.1328C201.495 82.1328 202.48 83.0008 203.017 84.1167C203.734 83.0145 204.795 82.1328 206.531 82.1328C208.825 82.1328 210.237 83.6759 210.237 86.1489V91.6666C210.237 92.0937 209.906 92.4175 209.507 92.4175C209.107 92.4175 208.756 92.0868 208.756 91.6666V86.4933C208.756 84.5645 207.791 83.483 206.172 83.483C204.664 83.483 203.431 84.5989 203.431 86.5691V91.6597C203.431 92.0868 203.1 92.4106 202.68 92.4106C202.26 92.4106 201.95 92.0799 201.95 91.6597V86.452C201.95 84.5783 200.965 83.483 199.387 83.483C197.81 83.483 196.611 84.7987 196.611 86.6311V91.6666C196.611 92.0937 196.301 92.4175 195.881 92.4175C195.461 92.4175 195.13 92.0868 195.13 91.6666V83.0008H195.109Z" fill="#5B6670"/>
<path d="M212.971 83.0008C212.971 82.5737 213.301 82.2499 213.701 82.2499C214.1 82.2499 214.452 82.5806 214.452 83.0008V84.3509C215.265 83.1523 216.436 82.1328 218.275 82.1328C220.665 82.1328 223.042 84.0203 223.042 87.3061V87.3475C223.042 90.6058 220.686 92.5346 218.275 92.5346C216.422 92.5346 215.223 91.5288 214.452 90.4129V94.7527C214.452 95.1798 214.142 95.5036 213.722 95.5036C213.301 95.5036 212.971 95.1729 212.971 94.7527V83.0008ZM221.519 87.3613V87.3199C221.519 84.964 219.901 83.4623 218.006 83.4623C216.112 83.4623 214.397 85.026 214.397 87.2993V87.3406C214.397 89.6551 216.153 91.1982 218.006 91.1982C219.859 91.1982 221.519 89.7723 221.519 87.3613Z" fill="#5B6670"/>
<path d="M224.544 89.4293V89.3879C224.544 87.2869 226.28 86.1641 228.808 86.1641C230.082 86.1641 230.992 86.3363 231.873 86.5912V86.2467C231.873 84.4557 230.771 83.5257 228.904 83.5257C227.899 83.5257 227.051 83.7599 226.321 84.0837C226.225 84.125 226.128 84.1388 226.053 84.1388C225.708 84.1388 225.398 83.8495 225.398 83.4982C225.398 83.1882 225.612 82.9609 225.805 82.8782C226.79 82.4511 227.795 82.2031 229.063 82.2031C230.468 82.2031 231.55 82.5682 232.287 83.3053C232.962 83.9804 233.313 84.9448 233.313 86.2192V91.6818C233.313 92.1089 233.003 92.412 232.597 92.412C232.17 92.412 231.88 92.102 231.88 91.7163V90.807C231.185 91.7163 230.027 92.5222 228.271 92.5222C226.418 92.5222 224.544 91.4614 224.544 89.4155V89.4293ZM231.894 88.6577V87.6933C231.164 87.4798 230.179 87.2662 228.96 87.2662C227.086 87.2662 226.046 88.0791 226.046 89.3328V89.3741C226.046 90.6279 227.203 91.3649 228.553 91.3649C230.385 91.3649 231.887 90.249 231.887 88.6646L231.894 88.6577Z" fill="#5B6670"/>
<path d="M235.986 83.0008C235.986 82.5943 236.317 82.2499 236.717 82.2499C237.116 82.2499 237.467 82.5806 237.467 83.0008V84.0823C238.122 83.0008 239.169 82.1328 240.884 82.1328C243.295 82.1328 244.707 83.7516 244.707 86.1282V91.6666C244.707 92.0937 244.377 92.4175 243.977 92.4175C243.55 92.4175 243.226 92.0868 243.226 91.6666V86.4933C243.226 84.6403 242.22 83.483 240.471 83.483C238.721 83.483 237.481 84.7367 237.481 86.6104V91.6666C237.481 92.0937 237.171 92.4175 236.751 92.4175C236.331 92.4175 236 92.0868 236 91.6666V83.0008H235.986Z" fill="#5B6670"/>
<path d="M246.959 95.173C246.725 95.0766 246.498 94.8837 246.498 94.5392C246.498 94.1741 246.808 93.9055 247.132 93.9055C247.269 93.9055 247.38 93.9468 247.497 93.9813C247.786 94.0777 248.075 94.1535 248.578 94.1535C249.501 94.1535 250.045 93.5955 250.583 92.3762L250.659 92.2247L246.491 83.3866C246.436 83.2488 246.395 83.118 246.395 82.9802C246.395 82.5738 246.725 82.25 247.145 82.25C247.566 82.25 247.765 82.498 247.896 82.8286L251.368 90.661L254.454 82.808C254.571 82.498 254.785 82.25 255.171 82.25C255.556 82.25 255.901 82.5807 255.901 82.9802C255.901 83.0973 255.859 83.2282 255.825 83.3453L251.926 92.6449C251.058 94.7115 250.094 95.4623 248.592 95.4623C247.938 95.4623 247.455 95.3452 246.953 95.173H246.959Z" fill="#5B6670"/>
<path d="M77.4105 64.973C76.7836 64.5253 76.3428 63.7675 76.3428 62.8789C76.3428 61.453 77.5001 60.337 78.926 60.337C79.6837 60.337 80.1728 60.5575 80.531 60.8261C83.1143 62.872 85.8766 64.0362 89.2658 64.0362C92.6549 64.0362 94.7904 62.4312 94.7904 60.1166V60.027C94.7904 57.802 93.5436 56.5965 87.7503 55.2601C81.1097 53.6551 77.3692 51.6987 77.3692 45.9468V45.8572C77.3692 40.5117 81.8261 36.8125 88.0189 36.8125C91.9385 36.8125 95.1004 37.8389 97.9109 39.7057C98.5309 40.0639 99.1096 40.8217 99.1096 41.8894C99.1096 43.3153 97.9523 44.4313 96.5263 44.4313C95.989 44.4313 95.5482 44.3004 95.1004 44.0317C92.6963 42.4749 90.3748 41.669 87.9294 41.669C84.7193 41.669 82.8525 43.3153 82.8525 45.3681V45.4577C82.8525 47.8618 84.2784 48.9364 90.2922 50.3624C96.8845 51.9674 100.274 54.3302 100.274 59.4966V59.5862C100.274 65.4208 95.6859 68.8995 89.1349 68.8995C84.9053 68.8995 80.8892 67.5632 77.4174 64.9799L77.4105 64.973Z" fill="#5B6670"/>
<path d="M103.697 56.8154V56.7258C103.697 49.9957 109.043 44.4297 116.262 44.4297C123.481 44.4297 128.779 49.913 128.779 56.6363V56.7258C128.779 63.4077 123.433 68.9806 116.172 68.9806C108.912 68.9806 103.697 63.4973 103.697 56.8154ZM123.392 56.8154V56.7258C123.392 52.5858 120.409 49.1553 116.172 49.1553C111.936 49.1553 109.091 52.5444 109.091 56.6432V56.7327C109.091 60.8314 112.074 64.2619 116.262 64.2619C120.45 64.2619 123.392 60.8727 123.392 56.8223V56.8154Z" fill="#5B6670"/>
<path d="M154.039 66.0001C154.039 67.4673 152.833 68.6728 151.318 68.6728C149.802 68.6728 148.597 67.5156 148.597 66.0001V64.7946C147.081 67.0196 144.898 68.9346 141.247 68.9346C135.942 68.9346 132.87 65.3732 132.87 59.8899V47.3733C132.87 45.8578 134.076 44.6523 135.543 44.6523C137.01 44.6523 138.264 45.8578 138.264 47.3733V58.2917C138.264 61.9427 140.089 63.9955 143.299 63.9955C146.51 63.9955 148.604 61.86 148.604 58.2022V47.3733C148.604 45.8578 149.809 44.6523 151.325 44.6523C152.84 44.6523 154.046 45.8578 154.046 47.3733V65.9932L154.039 66.0001Z" fill="#5B6670"/>
<path d="M160.77 61.9428V49.5572H159.881C158.586 49.5572 157.566 48.5308 157.566 47.2426C157.566 45.9544 158.593 44.928 159.881 44.928H160.77V40.9189C160.77 39.4516 161.975 38.2461 163.491 38.2461C165.006 38.2461 166.163 39.4516 166.163 40.9189V44.928H170.393C171.688 44.928 172.756 45.9544 172.756 47.2426C172.756 48.5308 171.688 49.5572 170.393 49.5572H166.163V61.0955C166.163 63.1897 167.231 64.037 169.057 64.037C169.683 64.037 170.214 63.9061 170.393 63.9061C171.598 63.9061 172.666 64.8843 172.666 66.1311C172.666 67.1093 171.998 67.9152 171.24 68.2252C170.083 68.6248 168.967 68.8521 167.541 68.8521C163.573 68.8521 160.77 67.1162 160.77 61.9428Z" fill="#5B6670"/>
<path d="M176.855 38.3759C176.855 36.9086 178.012 35.7031 179.527 35.7031C181.043 35.7031 182.248 36.9086 182.248 38.3759V48.5366C183.764 46.3529 185.947 44.4379 189.598 44.4379C194.903 44.4379 197.975 47.9993 197.975 53.4412V66.006C197.975 67.5215 196.818 68.6788 195.302 68.6788C193.787 68.6788 192.581 67.5215 192.581 66.006V55.0876C192.581 51.4367 190.756 49.3425 187.546 49.3425C184.336 49.3425 182.241 51.5262 182.241 55.1772V66.006C182.241 67.5215 181.036 68.6788 179.52 68.6788C178.005 68.6788 176.848 67.5215 176.848 66.006V38.3759H176.855Z" fill="#5B6670"/>
<path d="M203.361 38.3759C203.361 36.8604 204.519 35.7031 206.034 35.7031C207.55 35.7031 208.755 36.8604 208.755 38.3759V48.8465C210.491 46.3942 212.943 44.4379 216.773 44.4379C222.298 44.4379 227.692 48.8052 227.692 56.6444V56.734C227.692 64.5319 222.346 68.9406 216.773 68.9406C212.854 68.9406 210.401 66.9773 208.755 64.8005V66.006C208.755 67.4733 207.55 68.6788 206.034 68.6788C204.519 68.6788 203.361 67.4733 203.361 66.006V38.3759ZM222.209 56.7271V56.6375C222.209 52.0911 219.136 49.1083 215.478 49.1083C211.821 49.1083 208.617 52.1393 208.617 56.6375V56.7271C208.617 61.2253 211.827 64.2563 215.478 64.2563C219.129 64.2563 222.209 61.3631 222.209 56.7271Z" fill="#5B6670"/>
<path d="M232.142 47.3717C232.142 45.8562 233.299 44.6507 234.814 44.6507C236.33 44.6507 237.535 45.8562 237.535 47.3717V49.7758C238.782 46.8344 241.097 44.6094 243.46 44.6094C245.154 44.6094 246.132 45.7253 246.132 47.2821C246.132 48.7081 245.195 49.6449 243.997 49.8654C240.167 50.5336 237.535 53.475 237.535 59.041V65.9916C237.535 67.4588 236.33 68.6643 234.814 68.6643C233.299 68.6643 232.142 67.507 232.142 65.9916V47.3717Z" fill="#5B6670"/>
<path d="M249.343 38.5963C249.343 36.9912 250.679 35.9648 252.415 35.9648C254.151 35.9648 255.487 36.9912 255.487 38.5963V38.8649C255.487 40.47 254.151 41.5377 252.415 41.5377C250.679 41.5377 249.343 40.47 249.343 38.8649V38.5963ZM249.742 47.3723C249.742 45.8569 250.9 44.6514 252.415 44.6514C253.931 44.6514 255.136 45.8569 255.136 47.3723V65.9922C255.136 67.5077 253.931 68.665 252.415 68.665C250.9 68.665 249.742 67.5077 249.742 65.9922V47.3723Z" fill="#5B6670"/>
<path d="M284.178 65.9991C284.178 67.5146 282.973 68.6719 281.505 68.6719C280.038 68.6719 278.784 67.5146 278.784 65.9991V64.5319C277.048 66.9842 274.596 68.9406 270.766 68.9406C265.241 68.9406 259.848 64.5319 259.848 56.734V56.6444C259.848 48.8465 265.152 44.4379 270.766 44.4379C274.644 44.4379 277.09 46.3529 278.784 48.5779V38.3759C278.784 36.8604 279.983 35.7031 281.457 35.7031C282.931 35.7031 284.178 36.8604 284.178 38.3759V65.9991ZM265.29 56.6375V56.7271C265.29 61.2736 268.41 64.2563 272.061 64.2563C275.712 64.2563 278.881 61.2253 278.881 56.7271V56.6375C278.881 52.0911 275.671 49.1083 272.061 49.1083C268.452 49.1083 265.29 51.9602 265.29 56.6375Z" fill="#5B6670"/>
<path d="M291.218 73.5684C290.281 73.2102 289.702 72.4525 289.702 71.433C289.702 70.2274 290.729 69.2079 291.976 69.2079C292.375 69.2079 292.685 69.2975 292.954 69.4284C295.089 70.6339 297.452 71.3021 300.173 71.3021C304.981 71.3021 307.613 68.8084 307.613 64.0828V62.2574C305.65 64.7992 303.204 66.5765 299.326 66.5765C293.801 66.5765 288.635 62.4778 288.635 55.5685V55.479C288.635 48.5284 293.849 44.4297 299.326 44.4297C303.294 44.4297 305.739 46.2552 307.571 48.4388V47.3229C307.571 45.8556 308.77 44.6501 310.244 44.6501C311.718 44.6501 312.965 45.8556 312.965 47.3711V63.6351C312.965 67.6029 311.939 70.5443 309.982 72.5007C307.847 74.6361 304.547 75.6625 300.318 75.6625C297.018 75.6625 294.084 74.953 291.232 73.5684H291.218ZM307.661 55.5272V55.4376C307.661 51.6076 304.499 48.9762 300.752 48.9762C297.004 48.9762 294.07 51.5594 294.07 55.4376V55.5272C294.07 59.3573 297.053 61.9887 300.752 61.9887C304.451 61.9887 307.661 59.3573 307.661 55.5272Z" fill="#5B6670"/>
<path d="M329.402 68.9806C322.582 68.9806 317.326 64.0346 317.326 56.774V56.6845C317.326 49.9543 322.093 44.4297 328.823 44.4297C336.311 44.4297 340.003 50.5812 340.003 56.0163C340.003 57.5318 338.846 58.5995 337.462 58.5995H322.713C323.292 62.4296 326.013 64.5719 329.485 64.5719C331.758 64.5719 333.542 63.7728 335.051 62.526C335.45 62.216 335.808 62.0369 336.428 62.0369C337.634 62.0369 338.564 62.9738 338.564 64.2206C338.564 64.8888 338.254 65.4674 337.854 65.867C335.719 67.782 333.039 68.9875 329.388 68.9875L329.402 68.9806ZM334.747 55.0381C334.389 51.5663 332.343 48.8453 328.775 48.8453C325.475 48.8453 323.161 51.3872 322.672 55.0381H334.747Z" fill="#5B6670"/>
<path d="M264.243 89.7115V89.6977C264.243 88.8573 264.939 88.4095 265.952 88.4095C266.461 88.4095 266.826 88.4784 267.178 88.5817V88.444C267.178 87.7276 266.737 87.3556 265.986 87.3556C265.587 87.3556 265.242 87.4451 264.953 87.5829C264.911 87.5967 264.877 87.6036 264.843 87.6036C264.705 87.6036 264.581 87.4864 264.581 87.3487C264.581 87.2247 264.663 87.1351 264.746 87.1007C265.139 86.9285 265.545 86.832 266.055 86.832C266.62 86.832 267.054 86.9767 267.343 87.2729C267.612 87.5416 267.75 87.9273 267.75 88.4371V90.6276C267.75 90.7999 267.626 90.9239 267.46 90.9239C267.295 90.9239 267.171 90.7999 267.171 90.6483V90.2832C266.895 90.6483 266.427 90.9721 265.724 90.9721C264.98 90.9721 264.229 90.545 264.229 89.7252L264.243 89.7115ZM267.192 89.4084V89.0226C266.895 88.9399 266.503 88.8504 266.014 88.8504C265.263 88.8504 264.849 89.1741 264.849 89.677V89.6908C264.849 90.1937 265.311 90.4899 265.855 90.4899C266.592 90.4899 267.192 90.0421 267.192 89.4084Z" fill="#5B6670"/>
<path d="M270.829 90.7163C271.001 90.675 271.346 90.6957 271.346 90.0206V86.9138C271.346 86.2388 270.994 86.2594 270.829 86.2181V86.0252C270.967 86.0252 271.098 86.039 271.236 86.0459C271.373 86.0528 271.511 86.0596 271.642 86.0596H273.419C274.012 86.0596 274.101 86.0596 274.28 85.9219H274.411C274.439 86.2801 274.494 86.6658 274.556 87.0103L274.294 87.086C274.067 86.5901 273.908 86.3834 272.882 86.3834H271.98V88.1607H272.82C273.695 88.1607 273.715 88.0573 273.826 87.5476H274.087C274.087 87.8025 274.046 88.0504 274.046 88.2984C274.046 88.5602 274.087 88.822 274.087 89.0837H273.826C273.757 88.6773 273.722 88.4775 272.854 88.4775H271.98V89.7795C271.98 90.6199 272.11 90.6612 272.779 90.7094V90.9023C272.407 90.8885 272.021 90.861 271.649 90.861C271.38 90.861 271.098 90.8885 270.829 90.9023V90.7094V90.7163Z" fill="#5B6670"/>
<path d="M275.3 90.9113C275.1 90.9045 274.907 90.87 274.707 90.87C274.521 90.87 274.335 90.8907 274.149 90.9113C274.211 90.3947 275.727 87.1157 275.727 86.5371C275.727 86.2822 275.479 86.2409 275.362 86.2202V86.0273C275.575 86.0342 275.789 86.0687 275.996 86.0687C276.202 86.0687 276.388 86.0411 276.588 86.0273L277.993 89.7472C278.227 90.3189 278.255 90.6083 278.723 90.7185V90.9113C278.434 90.9045 278.152 90.87 277.876 90.87C277.58 90.87 277.304 90.8976 277.015 90.9113V90.7185C277.27 90.6771 277.518 90.6771 277.518 90.3947C277.518 90.2432 277.456 90.0916 277.401 89.947L277.008 88.8861H275.293L274.893 89.9814C274.852 90.1123 274.769 90.2983 274.769 90.374C274.769 90.684 275.1 90.6909 275.3 90.7116V90.9045V90.9113ZM275.389 88.5623H276.898L276.14 86.544L275.389 88.5623Z" fill="#5B6670"/>
<path d="M278.978 90.7185C279.15 90.6771 279.494 90.6978 279.494 90.0227V86.916C279.494 86.2409 279.143 86.2616 278.978 86.2202V86.0273C279.246 86.0342 279.529 86.0687 279.797 86.0687C280.087 86.0687 280.369 86.0411 280.645 86.0273V86.2202C280.431 86.2616 280.128 86.2409 280.128 86.916V90.0227C280.128 90.6978 280.431 90.6771 280.645 90.7185V90.9113C280.369 90.9045 280.08 90.87 279.797 90.87C279.529 90.87 279.246 90.8976 278.978 90.9113V90.7185Z" fill="#5B6670"/>
<path d="M281.19 86.0246C281.327 86.0246 281.458 86.0383 281.596 86.0452C281.734 86.0521 281.871 86.059 282.002 86.059C282.209 86.059 282.423 86.0452 282.636 86.0315C282.843 86.0177 283.056 86.0039 283.263 86.0039C284.214 86.0039 284.964 86.2657 284.964 87.1612C284.964 88.0567 284.214 88.1807 283.952 88.2427V88.2565C284.958 88.6905 285.026 89.8615 285.405 90.3437C285.543 90.5228 285.743 90.6744 285.963 90.7157V90.9086C285.812 90.9017 285.653 90.8672 285.502 90.8672C285.316 90.8672 285.137 90.8948 284.958 90.9086C284.462 90.0613 284.379 88.3942 282.85 88.3942H282.34V89.8546C282.34 90.5228 282.388 90.6261 282.863 90.7157V90.9086C282.595 90.9017 282.278 90.8672 281.995 90.8672C281.734 90.8672 281.444 90.8672 281.183 90.9086V90.7157C281.355 90.6744 281.699 90.695 281.699 90.0199V86.9132C281.699 86.2381 281.348 86.2588 281.183 86.2175V86.0246H281.19ZM282.34 88.0774H282.891C283.663 88.0774 284.338 87.8983 284.338 87.1956C284.338 86.5412 283.793 86.3277 283.07 86.3277C282.829 86.3277 282.602 86.3552 282.34 86.4103V88.0705V88.0774Z" fill="#5B6670"/>
<path d="M286.121 90.7163C286.293 90.675 286.638 90.6957 286.638 90.0206V86.9138C286.638 86.2388 286.286 86.2594 286.121 86.2181V86.0252C286.259 86.0252 286.39 86.039 286.528 86.0459C286.665 86.0528 286.803 86.0596 286.934 86.0596H288.711C289.304 86.0596 289.393 86.0596 289.572 85.9219H289.703C289.731 86.2801 289.786 86.6658 289.848 87.0103L289.586 87.086C289.359 86.5901 289.2 86.3834 288.174 86.3834H287.271V88.1607H288.112C288.987 88.1607 289.007 88.0573 289.118 87.5476H289.379C289.379 87.8025 289.338 88.0504 289.338 88.2984C289.338 88.5602 289.379 88.822 289.379 89.0837H289.118C289.049 88.6773 289.014 88.4775 288.146 88.4775H287.271V89.7795C287.271 90.6199 287.402 90.6612 288.071 90.7094V90.9023C287.699 90.8885 287.313 90.861 286.941 90.861C286.672 90.861 286.39 90.8885 286.121 90.9023V90.7094V90.7163Z" fill="#5B6670"/>
<path d="M290.585 90.9113C290.385 90.9045 290.192 90.87 289.993 90.87C289.807 90.87 289.621 90.8907 289.435 90.9113C289.497 90.3947 291.012 87.1157 291.012 86.5371C291.012 86.2822 290.764 86.2409 290.647 86.2202V86.0273C290.861 86.0342 291.074 86.0687 291.281 86.0687C291.487 86.0687 291.673 86.0411 291.873 86.0273L293.278 89.7472C293.513 90.3189 293.54 90.6083 294.009 90.7185V90.9113C293.719 90.9045 293.437 90.87 293.161 90.87C292.865 90.87 292.59 90.8976 292.3 90.9113V90.7185C292.555 90.6771 292.803 90.6771 292.803 90.3947C292.803 90.2432 292.741 90.0916 292.686 89.947L292.293 88.8861H290.578L290.179 89.9814C290.137 90.1123 290.055 90.2983 290.055 90.374C290.055 90.684 290.385 90.6909 290.585 90.7116V90.9045V90.9113ZM290.681 88.5623H292.19L291.432 86.544L290.681 88.5623Z" fill="#5B6670"/>
<path d="M294.057 90.7175C294.539 90.6073 294.773 90.2629 295.179 89.7945L296.261 88.5063L295.228 87.0735C294.849 86.5568 294.684 86.2744 294.215 86.2124V86.0195C294.553 86.0264 294.897 86.0609 295.235 86.0609C295.531 86.0609 295.82 86.0333 296.109 86.0195V86.2124C295.917 86.2331 295.675 86.24 295.675 86.5224C295.675 86.7153 295.841 86.8875 295.965 87.039L296.661 87.9759L297.473 86.9839C297.597 86.8324 297.763 86.6602 297.763 86.4604C297.763 86.2606 297.529 86.2331 297.384 86.2124V86.0195C297.59 86.0264 297.804 86.0609 298.018 86.0609C298.204 86.0609 298.39 86.0333 298.576 86.0195C298.527 86.2193 298.403 86.4122 297.728 87.225L296.86 88.2721L297.666 89.3536C298.224 90.1114 298.472 90.6418 299.058 90.7175V90.9104C298.755 90.9035 298.445 90.8691 298.148 90.8691C297.818 90.8691 297.48 90.8966 297.15 90.9104V90.7175C297.267 90.7175 297.59 90.7175 297.59 90.4489C297.59 90.2698 297.439 90.1251 297.336 89.9805L296.468 88.7819L295.496 89.9736C295.379 90.1182 295.221 90.2698 295.221 90.442C295.221 90.7175 295.524 90.7107 295.662 90.7175V90.9104C295.393 90.9035 295.117 90.8691 294.849 90.8691C294.594 90.8691 294.332 90.8966 294.077 90.9104V90.7175H294.057Z" fill="#5B6670"/>
<path d="M301.807 88.1816V88.1679C301.807 86.6386 302.95 85.3711 304.541 85.3711C305.416 85.3711 305.974 85.6604 306.477 86.0737C306.539 86.1288 306.601 86.2115 306.601 86.3217C306.601 86.487 306.457 86.6248 306.291 86.6248C306.209 86.6248 306.14 86.5835 306.091 86.5559C305.671 86.1839 305.203 85.936 304.535 85.936C303.336 85.936 302.44 86.9072 302.44 88.1541V88.1679C302.44 89.4216 303.343 90.3998 304.535 90.3998C305.21 90.3998 305.678 90.1656 306.14 89.7454C306.188 89.6971 306.257 89.6627 306.333 89.6627C306.484 89.6627 306.629 89.8005 306.629 89.9589C306.629 90.0484 306.58 90.1311 306.525 90.1724C305.995 90.6615 305.403 90.9715 304.514 90.9715C302.95 90.9715 301.8 89.7453 301.8 88.1885L301.807 88.1816Z" fill="#5B6670"/>
<path d="M307.242 88.8979V88.8841C307.242 87.7544 308.124 86.7969 309.329 86.7969C310.535 86.7969 311.41 87.7406 311.41 88.8703V88.8841C311.41 90.0138 310.521 90.9714 309.316 90.9714C308.11 90.9714 307.242 90.0276 307.242 88.8979ZM310.804 88.8979V88.8841C310.804 88.023 310.163 87.3204 309.323 87.3204C308.482 87.3204 307.862 88.023 307.862 88.8635V88.8772C307.862 89.7383 308.496 90.434 309.336 90.434C310.177 90.434 310.804 89.7383 310.804 88.8979Z" fill="#5B6670"/>
<path d="M312.408 87.1404C312.408 86.9751 312.539 86.8373 312.705 86.8373C312.87 86.8373 313.008 86.9682 313.008 87.1404V87.5468C313.269 87.1542 313.628 86.7891 314.296 86.7891C314.964 86.7891 315.364 87.1404 315.577 87.5881C315.866 87.1473 316.287 86.7891 316.982 86.7891C317.905 86.7891 318.463 87.409 318.463 88.3941V90.6053C318.463 90.7776 318.332 90.9084 318.167 90.9084C318.002 90.9084 317.864 90.7776 317.864 90.6053V88.5319C317.864 87.7604 317.478 87.3264 316.831 87.3264C316.225 87.3264 315.736 87.7741 315.736 88.5663V90.6053C315.736 90.7776 315.605 90.9084 315.432 90.9084C315.26 90.9084 315.136 90.7776 315.136 90.6053V88.5181C315.136 87.7672 314.744 87.3264 314.11 87.3264C313.476 87.3264 312.994 87.8499 312.994 88.587V90.6053C312.994 90.7776 312.87 90.9084 312.698 90.9084C312.525 90.9084 312.395 90.7776 312.395 90.6053V87.1335L312.408 87.1404Z" fill="#5B6670"/>
<path d="M319.683 87.1413C319.683 86.9691 319.813 86.8382 319.979 86.8382C320.144 86.8382 320.282 86.9691 320.282 87.1413V87.6855C320.606 87.2033 321.081 86.7969 321.811 86.7969C322.769 86.7969 323.719 87.5546 323.719 88.8703V88.8841C323.719 90.1929 322.776 90.9645 321.811 90.9645C321.067 90.9645 320.592 90.5649 320.282 90.1172V91.86C320.282 92.0322 320.158 92.1631 319.986 92.1631C319.814 92.1631 319.683 92.0322 319.683 91.86V87.1551V87.1413ZM323.106 88.8841V88.8703C323.106 87.9266 322.459 87.3273 321.701 87.3273C320.943 87.3273 320.254 87.9542 320.254 88.8635V88.8772C320.254 89.8072 320.957 90.4203 321.701 90.4203C322.445 90.4203 323.106 89.8485 323.106 88.8841Z" fill="#5B6670"/>
<path d="M324.436 89.7115V89.6977C324.436 88.8573 325.131 88.4095 326.144 88.4095C326.654 88.4095 327.019 88.4784 327.37 88.5817V88.444C327.37 87.7276 326.929 87.3556 326.178 87.3556C325.779 87.3556 325.434 87.4451 325.145 87.5829C325.104 87.5967 325.069 87.6036 325.035 87.6036C324.897 87.6036 324.773 87.4864 324.773 87.3487C324.773 87.2247 324.856 87.1351 324.939 87.1007C325.331 86.9285 325.738 86.832 326.247 86.832C326.812 86.832 327.246 86.9767 327.536 87.2729C327.804 87.5416 327.942 87.9273 327.942 88.4371V90.6276C327.942 90.7999 327.818 90.9239 327.653 90.9239C327.487 90.9239 327.363 90.7999 327.363 90.6483V90.2832C327.088 90.6483 326.619 90.9721 325.917 90.9721C325.173 90.9721 324.422 90.545 324.422 89.7252L324.436 89.7115ZM327.384 89.4084V89.0226C327.088 88.9399 326.695 88.8504 326.206 88.8504C325.455 88.8504 325.042 89.1741 325.042 89.677V89.6908C325.042 90.1937 325.503 90.4899 326.048 90.4899C326.785 90.4899 327.384 90.0421 327.384 89.4084Z" fill="#5B6670"/>
<path d="M329.134 87.1413C329.134 86.976 329.265 86.8382 329.43 86.8382C329.595 86.8382 329.733 86.9691 329.733 87.1413V87.5753C329.995 87.1413 330.415 86.7969 331.104 86.7969C332.068 86.7969 332.633 87.4444 332.633 88.395V90.6131C332.633 90.7854 332.502 90.9162 332.337 90.9162C332.172 90.9162 332.034 90.7854 332.034 90.6131V88.5397C332.034 87.7957 331.634 87.3342 330.932 87.3342C330.229 87.3342 329.733 87.8371 329.733 88.5879V90.6131C329.733 90.7854 329.609 90.9162 329.437 90.9162C329.265 90.9162 329.134 90.7854 329.134 90.6131V87.1413Z" fill="#5B6670"/>
<path d="M333.653 92.0191C333.564 91.9778 333.467 91.902 333.467 91.7643C333.467 91.6196 333.591 91.5094 333.722 91.5094C333.777 91.5094 333.825 91.5232 333.867 91.5369C333.984 91.5783 334.101 91.6058 334.301 91.6058C334.673 91.6058 334.886 91.3785 335.107 90.8963L335.134 90.8343L333.467 87.2936C333.446 87.2385 333.426 87.1833 333.426 87.1282C333.426 86.9629 333.557 86.832 333.729 86.832C333.901 86.832 333.977 86.9354 334.032 87.0662L335.423 90.2074L336.663 87.0594C336.712 86.9354 336.794 86.832 336.953 86.832C337.118 86.832 337.249 86.9629 337.249 87.1282C337.249 87.1765 337.235 87.2316 337.221 87.2729L335.658 90.9996C335.306 91.8263 334.921 92.1294 334.321 92.1294C334.06 92.1294 333.867 92.0811 333.667 92.0123L333.653 92.0191Z" fill="#5B6670"/>
<path d="M299.045 92.4453H270.705V92.9275H299.045V92.4453Z" fill="#5B6670"/>
<path d="M299.045 83.9922H270.705V84.4744H299.045V83.9922Z" fill="#5B6670"/>
</g>
</g>
<defs>
<clipPath id="clip0_584_958">
<rect width="360" height="120.558" fill="white"/>
</clipPath>
<clipPath id="clip1_584_958">
<rect width="340" height="71.5035" fill="white" transform="translate(0.00390625 24)"/>
</clipPath>
</defs>
</svg>
