<svg width="106" height="101" viewBox="0 0 106 101" fill="none" xmlns="http://www.w3.org/2000/svg">
<path d="M53 6.75C37.1797 6.75 22.9219 15.1484 15.1094 28.625C7.10156 42.2969 7.10156 58.8984 15.1094 72.375C22.9219 86.0469 37.1797 94.25 53 94.25C68.625 94.25 82.8828 86.0469 90.6953 72.375C98.7031 58.8984 98.7031 42.2969 90.6953 28.625C82.8828 15.1484 68.625 6.75 53 6.75ZM53 100.5C35.0312 100.5 18.625 91.125 9.64062 75.5C0.65625 60.0703 0.65625 41.125 9.64062 25.5C18.625 10.0703 35.0312 0.5 53 0.5C70.7734 0.5 87.1797 10.0703 96.1641 25.5C105.148 41.125 105.148 60.0703 96.1641 75.5C87.1797 91.125 70.7734 100.5 53 100.5ZM53 25.5C54.5625 25.5 56.125 27.0625 56.125 28.625V53.625C56.125 55.3828 54.5625 56.75 53 56.75C51.2422 56.75 49.875 55.3828 49.875 53.625V28.625C49.875 27.0625 51.2422 25.5 53 25.5ZM57.6875 69.25C57.6875 71.9844 55.5391 73.9375 53 73.9375C50.2656 73.9375 48.3125 71.9844 48.3125 69.25C48.3125 66.7109 50.2656 64.5625 53 64.5625C55.5391 64.5625 57.6875 66.7109 57.6875 69.25Z" fill="#868686"/>
</svg>
