<?xml version="1.0" encoding="utf-8"?>
<!-- Generator: Adobe Illustrator 25.0.0, SVG Export Plug-In . SVG Version: 6.00 Build 0)  -->
<svg version="1.1" id="Layer_1" xmlns="http://www.w3.org/2000/svg" xmlns:xlink="http://www.w3.org/1999/xlink" x="0px" y="0px"
	 viewBox="0 0 69.5 69.5" style="enable-background:new 0 0 69.5 69.5;" xml:space="preserve">
<style type="text/css">
	.st0{fill:#3EC1CD;}
	.st1{fill:#FFFFFF;}
</style>
<g>
	<circle class="st0" cx="34.7" cy="34.7" r="34.7"/>
	<path id="XMLID_41_" class="st1" d="M54.3,38.9c-0.5,0-1,0.4-1,1c0,3.5-2.9,6.4-6.4,6.4c-3.4,0-6.3-2.7-6.4-6.2l7.1-13.3
		c0.2-0.3,0.2-0.7,0-1c-0.2-0.3-0.5-0.5-0.8-0.5h-3.1c0.8-1.5,1.2-3,1.3-4.4c0.1-1.4-0.2-2.8-0.8-3.9c-0.5-0.8-1.2-1.5-2.1-2
		c-0.8-0.4-1.8-0.7-2.7-0.6c-1.1,0-2.1,0.4-3,1c-0.6,0.4-1.1,0.8-1.5,1.3c-0.4-0.5-0.9-1-1.5-1.3c-0.9-0.6-2-0.9-3-1
		c-1,0-1.9,0.2-2.7,0.6c-0.9,0.5-1.6,1.1-2.1,2c-0.7,1.1-0.9,2.4-0.8,3.9c0.1,1.4,0.5,2.9,1.3,4.4h-3.1c-0.3,0-0.7,0.2-0.8,0.5
		c-0.2,0.3-0.2,0.7,0,1l7.1,13.3c-0.1,3.4-2.9,6.2-6.4,6.2c-3.5,0-6.4-2.9-6.4-6.4c0-0.5-0.4-1-1-1c-0.5,0-1,0.4-1,1
		c0,4.6,3.8,8.4,8.4,8.4s8.4-3.8,8.4-8.4c0-0.2,0-0.3-0.1-0.5l-6.4-12H27c2.5,4.3,5.6,9.9,6.8,12V53h-9.4c-0.5,0-1,0.4-1,1
		c0,0.5,0.4,1,1,1h10.3h0.1h10.3c0.5,0,1-0.4,1-1c0-0.5-0.4-1-1-1h-9.4V39.3c1.2-2.1,4.4-7.6,6.8-12h2.6l-6.4,12
		c-0.1,0.1-0.1,0.3-0.1,0.5c0,4.6,3.8,8.4,8.4,8.4s8.4-3.8,8.4-8.4C55.3,39.3,54.9,38.9,54.3,38.9z M43,20.8
		c-0.1,1.3-0.6,2.7-1.4,4.1c-0.1,0.1-0.1,0.3-0.2,0.4C41,26,35,36.5,34.7,37c-0.3-0.5-6.3-11-6.6-11.6C28,25.2,28,25.1,27.9,25
		c-0.8-1.5-1.3-2.9-1.4-4.1c-0.1-1,0.1-2,0.6-2.7c0.6-1.1,1.7-1.7,3-1.7c0,0,0.1,0,0.1,0c1.5,0,2.9,1,3.7,2.6
		c0.2,0.3,0.5,0.5,0.8,0.5v0c0,0,0,0,0,0c0,0,0,0,0,0v0c0.3,0,0.6-0.2,0.8-0.5c0.9-1.6,2.2-2.6,3.7-2.6c0,0,0.1,0,0.1,0
		c1.2,0,2.3,0.6,3,1.7C42.8,18.9,43,19.8,43,20.8z"/>
</g>
</svg>
