<?xml version="1.0" encoding="utf-8"?>
<!-- Generator: Adobe Illustrator 24.3.0, SVG Export Plug-In . SVG Version: 6.00 Build 0)  -->
<svg version="1.1" id="Layer_1" xmlns="http://www.w3.org/2000/svg" xmlns:xlink="http://www.w3.org/1999/xlink" x="0px" y="0px"
	 viewBox="0 0 399.1 108.2" style="enable-background:new 0 0 399.1 108.2;" xml:space="preserve">
<style type="text/css">
	.st0{fill:#592E8B;}
	.st1{fill:#38BFC0;}
</style>
<path id="XMLID_512_" class="st0" d="M107.2,65.1c-1.5,0-2.6,1.2-2.6,2.6c0,9.4-7.7,17.1-17.1,17.1c-9.2,0-16.7-7.3-17.1-16.4
	L89.4,33c0.4-0.8,0.4-1.8-0.1-2.6c-0.5-0.8-1.3-1.3-2.3-1.3h-8.4c2.1-4.1,3.3-8,3.6-11.7c0.3-3.9-0.5-7.4-2.3-10.3
	c-1.4-2.3-3.3-4.1-5.6-5.3C72.1,0.5,69.6-0.1,67,0c-2.8,0.1-5.6,1-8.1,2.6c-1.5,1-2.8,2.2-4,3.6c-1.2-1.4-2.5-2.6-4-3.6
	C48.5,1,45.7,0.1,42.8,0c-2.6-0.1-5.1,0.5-7.3,1.7C33.2,2.9,31.3,4.8,30,7c-1.7,2.9-2.5,6.5-2.3,10.3c0.3,3.7,1.4,7.6,3.6,11.7h-8.4
	c-0.9,0-1.8,0.5-2.3,1.3c-0.5,0.8-0.5,1.8-0.1,2.6l18.9,35.5c-0.3,9.1-7.9,16.4-17.1,16.4c-9.4,0-17.1-7.7-17.1-17.1
	c0-1.5-1.2-2.6-2.6-2.6S0,66.3,0,67.8c0,12.3,10,22.4,22.4,22.4s22.4-10,22.4-22.4c0-0.4-0.1-0.9-0.3-1.2L27.2,34.4h7
	c6.6,11.6,15,26.4,18.2,32v36.6H27.2c-1.5,0-2.6,1.2-2.6,2.6c0,1.5,1.2,2.6,2.6,2.6h27.6H55h27.6c1.5,0,2.6-1.2,2.6-2.6
	c0-1.5-1.2-2.6-2.6-2.6H57.5V66.3c3.2-5.6,11.6-20.4,18.2-32h7L65.5,66.5c-0.2,0.4-0.3,0.8-0.3,1.2c0,12.3,10,22.4,22.4,22.4
	s22.4-10,22.4-22.4C109.9,66.3,108.7,65.1,107.2,65.1z M76.9,17c-0.2,3.4-1.5,7.1-3.7,11c-0.2,0.3-0.4,0.7-0.6,1.1
	c-1,1.7-16.9,29.7-17.7,31c-0.8-1.3-16.7-29.3-17.7-31c-0.2-0.4-0.4-0.7-0.6-1.1c-2.2-3.9-3.5-7.7-3.7-11c-0.2-2.8,0.3-5.3,1.5-7.2
	c1.7-2.8,4.6-4.5,7.9-4.5c0.1,0,0.2,0,0.3,0c4.1,0.1,7.7,2.7,10,7c0.4,0.8,1.2,1.3,2.1,1.4v0c0,0,0.1,0,0.1,0c0,0,0.1,0,0.1,0v0
	c0.9-0.1,1.7-0.6,2.1-1.4c2.3-4.3,5.9-6.9,10-7c0.1,0,0.2,0,0.3,0c3.3,0,6.2,1.7,7.9,4.5C76.6,11.7,77.1,14.2,76.9,17z"/>
<g id="XMLID_274_">
	<g id="XMLID_364_">
		<g id="XMLID_365_">
			<g id="XMLID_408_">
				<path id="XMLID_451_" class="st1" d="M164.6,40.8c2.8,0,5.4,0.3,7.7,0.9c2.3,0.6,4.3,1.4,5.9,2.6c1.6,1.2,2.9,2.6,3.8,4.4
					c0.9,1.8,1.9,8,1.9,14.6c-0.1,10.1-0.9,11.6-1.7,12.5c-0.8,0.9-1.6,1.6-2.7,2.2c-3.4,2-8.1,3-14.3,3c-2.8,0-5.2-0.3-7.4-0.8
					c-2.2-0.5-4.1-1.3-5.7-2.3c-1.6-1-2.8-2.4-3.7-4c-0.9-1.6-1.3-3.5-1.3-5.6c0-3.6,1.1-6.3,3.2-8.3c2.1-1.9,5.4-3.1,9.9-3.6
					l10.2-1.1v-0.5c0-1.5-0.7-2.6-2-3.2c-1.3-0.6-3.2-1-5.7-1c-2,0-3.9,0.2-5.8,0.6c-1.9,0.4-3.6,0.9-5.1,1.6
					c-0.7-0.5-1.2-1.2-1.7-2.1c-0.5-1-0.7-2-0.7-3c0-1.3,0.3-2.4,1-3.2c0.6-0.8,1.6-1.5,3-2.1c1.5-0.6,3.3-1,5.3-1.2
					C160.8,40.9,162.8,40.8,164.6,40.8z M165.2,71.4c0.9,0,1.9-0.1,2.9-0.3c1.1-0.2,1.9-0.4,2.4-0.7v-6.2l-5.6,0.5
					c-1.5,0.1-2.6,0.4-3.6,0.9c-0.9,0.5-1.4,1.3-1.4,2.3c0,1,0.4,1.9,1.2,2.5C161.9,71.1,163.3,71.4,165.2,71.4z"/>
				<path id="XMLID_434_" class="st1" d="M183.8,29.1c0.5-0.2,1.3-0.3,2.5-0.5c1.1-0.2,2.3-0.3,3.5-0.3c1.1,0,2.2,0.1,3.1,0.2
					c0.9,0.2,1.7,0.5,2.3,0.9s1.1,1.1,1.4,1.9c0.3,0.8,0.5,1.9,0.5,3.2v7.6c1.3-0.5,2.5-0.9,3.7-1.1c1.2-0.2,2.5-0.3,3.9-0.3
					c2.5,0,4.9,0.4,7.1,1.3c2.2,0.9,4.2,2.2,5.9,3.9c1.7,1.7,3.1,3.8,4,6.3c1,2.5,1.5,5.4,1.5,8.6c0,3.4-0.5,6.3-1.5,8.8
					c-1,2.5-2.4,4.6-4.2,6.3c-1.8,1.7-4,2.9-6.7,3.8c-2.6,0.9-5.5,1.3-8.7,1.3c-3.4,0-6.3-0.4-8.7-1.2c-2.4-0.8-4.4-1.8-6.1-3
					c-2.3-1.6-3.4-3.7-3.4-6.2V29.1z M202,70.6c2.4,0,4.2-0.8,5.6-2.5c1.3-1.6,2-4.1,2-7.3c0-3.3-0.7-5.7-2-7.3
					c-1.4-1.6-3.2-2.4-5.5-2.4c-1,0-1.9,0.1-2.7,0.3c-0.8,0.2-1.6,0.5-2.5,0.9v17c0.6,0.4,1.3,0.7,2.1,0.9
					C199.8,70.5,200.8,70.6,202,70.6z"/>
				<path id="XMLID_431_" class="st1" d="M263.1,60.9c0,3.2-0.5,6.1-1.5,8.6c-1,2.5-2.4,4.6-4.2,6.3c-1.8,1.7-3.9,3-6.4,3.9
					c-2.5,0.9-5.3,1.3-8.3,1.3c-3.1,0-5.8-0.5-8.3-1.4c-2.5-0.9-4.6-2.3-6.4-4c-1.8-1.7-3.2-3.9-4.2-6.3c-1-2.5-1.5-5.3-1.5-8.4
					c0-3.1,0.5-5.8,1.5-8.3c1-2.5,2.4-4.6,4.2-6.3c1.8-1.7,3.9-3.1,6.4-4c2.5-0.9,5.3-1.4,8.3-1.4c3.1,0,5.8,0.5,8.3,1.4
					c2.5,1,4.6,2.3,6.4,4c1.8,1.7,3.2,3.9,4.2,6.3C262.6,55.1,263.1,57.9,263.1,60.9z M235.8,60.9c0,3.2,0.6,5.6,1.8,7.3
					c1.2,1.7,2.9,2.5,5.1,2.5c2.2,0,3.9-0.9,5-2.6c1.2-1.7,1.8-4.1,1.8-7.2s-0.6-5.5-1.8-7.2c-1.2-1.7-2.9-2.5-5.1-2.5
					c-2.2,0-3.9,0.8-5.1,2.5C236.4,55.4,235.8,57.8,235.8,60.9z"/>
				<path id="XMLID_419_" class="st1" d="M262.2,60.9c0-3.4,0.5-6.4,1.6-8.9c1-2.5,2.5-4.6,4.3-6.3c1.8-1.7,4-2.9,6.5-3.7
					c2.5-0.8,5.1-1.2,8-1.2c1,0,2.1,0.1,3,0.3c1,0.2,1.8,0.4,2.4,0.7V29.1c0.5-0.2,1.3-0.3,2.5-0.5c1.1-0.2,2.3-0.3,3.5-0.3
					c1.1,0,2.2,0.1,3.1,0.2c0.9,0.2,1.7,0.5,2.3,0.9s1.1,1.1,1.4,1.9c0.3,0.8,0.5,1.9,0.5,3.2v36.9c0,2.4-1.1,4.4-3.4,5.8
					c-1.5,1-3.5,1.9-5.8,2.6c-2.4,0.8-5.1,1.1-8.3,1.1c-3.4,0-6.4-0.5-9.1-1.4c-2.7-0.9-4.9-2.3-6.8-4c-1.8-1.8-3.2-3.9-4.2-6.3
					C262.7,66.8,262.2,64,262.2,60.9z M284.3,51.1c-2.8,0-5,0.8-6.5,2.4c-1.5,1.6-2.3,4-2.3,7.3c0,3.2,0.7,5.6,2.1,7.3
					c1.4,1.6,3.4,2.5,6.1,2.5c0.9,0,1.8-0.1,2.5-0.4c0.8-0.3,1.3-0.6,1.8-1V52.1C287,51.5,285.8,51.1,284.3,51.1z"/>
				<path id="XMLID_409_" class="st1" d="M341.5,60.9c0,3.2-0.5,6.1-1.5,8.6c-1,2.5-2.4,4.6-4.2,6.3c-1.8,1.7-3.9,3-6.4,3.9
					c-2.5,0.9-5.3,1.3-8.3,1.3c-3.1,0-5.8-0.5-8.3-1.4c-2.5-0.9-4.6-2.3-6.4-4c-1.8-1.7-3.2-3.9-4.2-6.3c-1-2.5-1.5-5.3-1.5-8.4
					c0-3.1,0.5-5.8,1.5-8.3c1-2.5,2.4-4.6,4.2-6.3c1.8-1.7,3.9-3.1,6.4-4c2.5-0.9,5.3-1.4,8.3-1.4c3.1,0,5.8,0.5,8.3,1.4
					c2.5,1,4.6,2.3,6.4,4c1.8,1.7,3.2,3.9,4.2,6.3C341,55.1,341.5,57.9,341.5,60.9z M314.3,60.9c0,3.2,0.6,5.6,1.8,7.3
					c1.2,1.7,2.9,2.5,5.1,2.5c2.2,0,3.9-0.9,5-2.6c1.2-1.7,1.8-4.1,1.8-7.2s-0.6-5.5-1.8-7.2c-1.2-1.7-2.9-2.5-5.1-2.5
					s-3.9,0.8-5.1,2.5C314.9,55.4,314.3,57.8,314.3,60.9z"/>
			</g>
			<g id="XMLID_378_">
				<path id="XMLID_389_" class="st1" d="M363.8,51.3c-1.3,0-2.5,0.2-3.7,0.6c-1.2,0.4-2.2,1-3,1.8c-0.9,0.8-1.5,1.8-2.1,3
					c-0.5,1.2-0.8,2.6-0.8,4.2c0,3.2,0.9,5.6,2.8,7.2c1.8,1.6,4.1,2.4,6.7,2.4c1.6,0,2.9-0.2,4-0.5c1.1-0.4,2.1-0.7,3-1.2
					c1,0.7,1.8,1.5,2.3,2.4c0.5,0.9,0.8,1.9,0.8,3.1c0,2.1-1,3.8-3,4.9c-2,1.2-4.8,1.7-8.4,1.7c-3.3,0-6.2-0.5-8.8-1.4
					c-2.6-1-4.9-2.3-6.8-4c-1.9-1.7-3.3-3.8-4.4-6.2c-1-2.4-1.6-5.1-1.6-8.1c0-3.4,0.6-6.4,1.7-9c1.1-2.6,2.6-4.7,4.5-6.3
					c1.9-1.7,4.1-2.9,6.6-3.7c2.5-0.8,5.2-1.2,7.9-1.2c3.7,0,6.6,0.7,8.6,2c2,1.3,3,3.1,3,5.2c0,1-0.2,1.9-0.7,2.8
					c-0.5,0.9-1,1.6-1.6,2.2c-0.9-0.4-1.9-0.8-3.2-1.2C366.6,51.4,365.2,51.3,363.8,51.3z"/>
			</g>
		</g>
	</g>
	<g id="XMLID_276_">
		<path id="XMLID_345_" class="st1" d="M380.9,78.1c0,1.1-0.8,1.9-1.9,1.9c-1.1,0-1.9-0.8-1.9-1.9c0-1.1,0.8-1.9,1.9-1.9
			C380.1,76.2,380.9,77,380.9,78.1z"/>
		<path id="XMLID_283_" class="st1" d="M393.5,70.2l-2.8,1.7c-0.6-0.8-1.4-1.3-2.5-1.3c-1.5,0-2.6,1.3-2.6,3.1c0,1.9,1,3.1,2.6,3.1
			c1.1,0,2-0.5,2.5-1.4l2.9,1.7c-1,1.8-3,2.9-5.6,2.9c-3.8,0-6.3-2.5-6.3-6.3c0-3.8,2.6-6.3,6.4-6.3
			C390.5,67.4,392.5,68.4,393.5,70.2z"/>
		<path id="XMLID_277_" class="st1" d="M395.1,79.9V62.9h3.9v16.9H395.1z"/>
	</g>
</g>
</svg>
