<?xml version="1.0" encoding="utf-8"?>
<!-- Generator: Adobe Illustrator 25.0.0, SVG Export Plug-In . SVG Version: 6.00 Build 0)  -->
<svg version="1.1" id="Layer_1" xmlns="http://www.w3.org/2000/svg" xmlns:xlink="http://www.w3.org/1999/xlink" x="0px" y="0px"
	 viewBox="0 0 528.8 154.7" style="enable-background:new 0 0 528.8 154.7;" xml:space="preserve">
<style type="text/css">
	.st0{fill:#FFFFFF;}
</style>
<path id="XMLID_32_" class="st0" d="M153.3,93.1c-2.1,0-3.8,1.7-3.8,3.8c0,13.5-10.9,24.4-24.4,24.4c-13.2,0-23.9-10.5-24.4-23.5
	l27-50.7c0.6-1.2,0.6-2.6-0.1-3.7c-0.7-1.1-1.9-1.8-3.2-1.8h-12c3-5.8,4.7-11.5,5.1-16.8c0.4-5.5-0.7-10.6-3.2-14.8
	c-1.9-3.2-4.7-5.8-8-7.6c-3.2-1.7-6.8-2.5-10.5-2.4c-4,0.1-8,1.4-11.6,3.7c-2.1,1.4-4,3.1-5.7,5.1c-1.7-2-3.6-3.7-5.7-5.1
	C69.3,1.4,65.3,0.1,61.3,0C57.6-0.1,54,0.8,50.8,2.4c-3.3,1.7-6,4.4-8,7.6c-2.5,4.2-3.6,9.3-3.2,14.8c0.4,5.3,2.1,10.9,5.1,16.8h-12
	c-1.3,0-2.6,0.7-3.2,1.8c-0.7,1.1-0.7,2.6-0.1,3.7l27,50.7c-0.5,13-11.2,23.5-24.4,23.5c-13.5,0-24.4-10.9-24.4-24.4
	c0-2.1-1.7-3.8-3.8-3.8S0,94.8,0,96.9c0,17.6,14.3,32,32,32s32-14.3,32-32c0-0.6-0.2-1.2-0.4-1.8L39,49.1h9.9
	c9.4,16.6,21.5,37.7,26,45.7v52.3H38.8c-2.1,0-3.8,1.7-3.8,3.8s1.7,3.8,3.8,3.8h39.5h0.3h39.5c2.1,0,3.8-1.7,3.8-3.8
	s-1.7-3.8-3.8-3.8H82.2V94.8c4.6-8,16.6-29.1,26-45.7h9.9l-24.5,46c-0.3,0.5-0.4,1.2-0.4,1.8c0,17.6,14.3,32,32,32s32-14.3,32-32
	C157.1,94.8,155.4,93.1,153.3,93.1z M110,24.3c-0.3,4.8-2.1,10.1-5.3,15.8c-0.3,0.5-0.6,1-0.9,1.5C102.4,44,79.6,84,78.5,85.9
	C77.5,84,54.7,44,53.3,41.6c-0.3-0.5-0.6-1-0.9-1.5c-3.2-5.6-5-10.9-5.3-15.8c-0.3-4,0.5-7.5,2.2-10.4c2.4-4,6.6-6.4,11.4-6.4
	c0.1,0,0.3,0,0.4,0c5.8,0.2,11,3.8,14.3,10c0.6,1.1,1.7,1.9,3,2v0c0.1,0,0.1,0,0.2,0c0.1,0,0.1,0,0.2,0v0c1.3-0.1,2.4-0.9,3-2
	c3.3-6.2,8.5-9.8,14.3-10c0.1,0,0.3,0,0.4,0c4.7,0,8.9,2.4,11.4,6.4C109.5,16.8,110.2,20.3,110,24.3z"/>
<g>
	<path class="st0" d="M198.6,111.7H194v-1.2h10.6v1.2H200v11.9h-1.4V111.7z"/>
	<path class="st0" d="M206.6,118.1v-7.5h1.4v7.5c0,3.1,1.5,4.5,4,4.5c2.6,0,4-1.4,4-4.5v-7.5h1.4v7.5c0,3.8-2,5.7-5.4,5.7
		S206.6,121.8,206.6,118.1z"/>
	<path class="st0" d="M235.5,123.7l-3-4.2c-0.3,0-0.7,0.1-1.1,0.1h-3.5v4.2h-1.4v-13.1h4.9c3.3,0,5.4,1.7,5.4,4.5
		c0,2.1-1.1,3.5-3,4.1l3.2,4.5H235.5z M235.5,115c0-2.1-1.4-3.3-4-3.3h-3.5v6.6h3.5C234.1,118.3,235.5,117.1,235.5,115z"/>
	<path class="st0" d="M249.2,122.5v1.2h-9.3v-13.1h9v1.2h-7.6v4.7h6.8v1.2h-6.8v4.9H249.2z"/>
	<path class="st0" d="M251.8,110.5h5.4c4.2,0,7,2.7,7,6.6s-2.8,6.6-7,6.6h-5.4V110.5z M257,122.5c3.5,0,5.7-2.2,5.7-5.4
		c0-3.2-2.3-5.4-5.7-5.4h-3.9v10.7H257z"/>
	<path class="st0" d="M272.2,110.5h5.4c4.2,0,7,2.7,7,6.6s-2.8,6.6-7,6.6h-5.4V110.5z M277.5,122.5c3.5,0,5.7-2.2,5.7-5.4
		c0-3.2-2.3-5.4-5.7-5.4h-3.9v10.7H277.5z"/>
	<path class="st0" d="M296.8,122.5v1.2h-9.3v-13.1h9v1.2h-7.6v4.7h6.8v1.2h-6.8v4.9H296.8z"/>
	<path class="st0" d="M313.3,120.2h-7.3l-1.6,3.5h-1.4l6-13.1h1.4l6,13.1h-1.5L313.3,120.2z M312.8,119.1l-3.2-7.1l-3.2,7.1H312.8z"
		/>
	<path class="st0" d="M328.6,115c0,2.8-2,4.5-5.4,4.5h-3.5v4.2h-1.4v-13.1h4.9C326.6,110.5,328.6,112.2,328.6,115z M327.2,115
		c0-2.1-1.4-3.3-4-3.3h-3.5v6.6h3.5C325.8,118.3,327.2,117.1,327.2,115z"/>
	<path class="st0" d="M330.5,117.1c0-3.8,2.9-6.7,6.9-6.7c3.9,0,6.9,2.8,6.9,6.7s-2.9,6.7-6.9,6.7
		C333.4,123.8,330.5,120.9,330.5,117.1z M342.9,117.1c0-3.1-2.3-5.4-5.5-5.4c-3.2,0-5.5,2.3-5.5,5.4s2.4,5.4,5.5,5.4
		C340.6,122.6,342.9,120.3,342.9,117.1z"/>
	<path class="st0" d="M351.1,119.1v4.5h-1.4v-4.5l-5.3-8.6h1.5l4.5,7.4l4.5-7.4h1.4L351.1,119.1z"/>
	<path class="st0" d="M356.4,117.1c0-3.8,2.9-6.7,6.9-6.7c3.9,0,6.9,2.8,6.9,6.7s-2.9,6.7-6.9,6.7
		C359.4,123.8,356.4,120.9,356.4,117.1z M368.8,117.1c0-3.1-2.3-5.4-5.5-5.4c-3.2,0-5.5,2.3-5.5,5.4s2.4,5.4,5.5,5.4
		C366.5,122.6,368.8,120.3,368.8,117.1z"/>
	<path class="st0" d="M387.6,122.5v1.2h-9.3v-13.1h9v1.2h-7.6v4.7h6.8v1.2h-6.8v4.9H387.6z"/>
	<path class="st0" d="M401.1,110.5v13.1H400l-8.5-10.7v10.7h-1.4v-13.1h1.1l8.5,10.7v-10.7H401.1z"/>
	<path class="st0" d="M424,110.5v13.1h-1.3v-10.5l-5.2,8.8h-0.7l-5.2-8.8v10.5h-1.3v-13.1h1.1l5.7,9.7l5.7-9.7H424z"/>
	<path class="st0" d="M437.2,122.5v1.2h-9.3v-13.1h9v1.2h-7.6v4.7h6.8v1.2h-6.8v4.9H437.2z"/>
	<path class="st0" d="M439.8,110.5h5.4c4.2,0,7,2.7,7,6.6s-2.8,6.6-7,6.6h-5.4V110.5z M445,122.5c3.5,0,5.7-2.2,5.7-5.4
		c0-3.2-2.3-5.4-5.7-5.4h-3.9v10.7H445z"/>
	<path class="st0" d="M455.1,110.5h1.4v13.1h-1.4V110.5z"/>
	<path class="st0" d="M459.4,117.1c0-3.9,2.9-6.7,6.9-6.7c1.9,0,3.6,0.6,4.8,1.9l-0.9,0.9c-1.1-1.1-2.4-1.6-3.9-1.6
		c-3.2,0-5.6,2.3-5.6,5.4s2.4,5.4,5.6,5.4c1.5,0,2.8-0.5,3.9-1.6l0.9,0.9c-1.2,1.3-2.9,1.9-4.8,1.9
		C462.3,123.8,459.4,121,459.4,117.1z"/>
	<path class="st0" d="M473.7,110.5h1.4v13.1h-1.4V110.5z"/>
	<path class="st0" d="M489.9,110.5v13.1h-1.1l-8.5-10.7v10.7h-1.4v-13.1h1.1l8.5,10.7v-10.7H489.9z"/>
	<path class="st0" d="M502.3,120.2H495l-1.6,3.5h-1.4l6-13.1h1.4l6,13.1h-1.5L502.3,120.2z M501.8,119.1l-3.2-7.1l-3.2,7.1H501.8z"
		/>
	<path class="st0" d="M200.6,141.7v4.5h-1.4v-4.5l-5.3-8.6h1.5l4.5,7.4l4.5-7.4h1.4L200.6,141.7z"/>
	<path class="st0" d="M211.7,144.6l0.5-1.1c0.9,0.9,2.6,1.6,4.3,1.6c2.5,0,3.5-1,3.5-2.3c0-3.6-8.1-1.4-8.1-6.3
		c0-1.9,1.5-3.6,4.8-3.6c1.5,0,3,0.4,4.1,1.2l-0.5,1.1c-1.1-0.7-2.4-1.1-3.6-1.1c-2.4,0-3.5,1.1-3.5,2.4c0,3.6,8.1,1.4,8.1,6.2
		c0,1.9-1.5,3.6-4.9,3.6C214.6,146.4,212.7,145.7,211.7,144.6z"/>
	<path class="st0" d="M233.6,145v1.2h-9.3v-13.1h9v1.2h-7.6v4.7h6.8v1.2h-6.8v4.9H233.6z"/>
	<path class="st0" d="M245.1,146.2l-3-4.2c-0.3,0-0.7,0.1-1.1,0.1h-3.5v4.2h-1.4v-13.1h4.9c3.3,0,5.4,1.7,5.4,4.5
		c0,2.1-1.1,3.5-3,4.1l3.2,4.5H245.1z M245.1,137.6c0-2.1-1.4-3.3-4-3.3h-3.5v6.6h3.5C243.7,140.9,245.1,139.7,245.1,137.6z"/>
	<path class="st0" d="M260.3,133.1l-5.8,13.1h-1.4l-5.8-13.1h1.5l5,11.4l5.1-11.4H260.3z"/>
	<path class="st0" d="M262.3,133.1h1.4v13.1h-1.4V133.1z"/>
	<path class="st0" d="M266.6,139.7c0-3.9,2.9-6.7,6.9-6.7c1.9,0,3.6,0.6,4.8,1.9l-0.9,0.9c-1.1-1.1-2.4-1.6-3.9-1.6
		c-3.2,0-5.6,2.3-5.6,5.4s2.4,5.4,5.6,5.4c1.5,0,2.8-0.5,3.9-1.6l0.9,0.9c-1.2,1.3-2.9,1.9-4.8,1.9
		C269.6,146.4,266.6,143.5,266.6,139.7z"/>
	<path class="st0" d="M280.9,133.1h1.4v13.1h-1.4V133.1z"/>
	<path class="st0" d="M285.2,139.7c0-3.8,2.9-6.7,6.9-6.7c3.9,0,6.9,2.8,6.9,6.7s-2.9,6.7-6.9,6.7
		C288.1,146.4,285.2,143.5,285.2,139.7z M297.6,139.7c0-3.1-2.3-5.4-5.5-5.4c-3.2,0-5.5,2.3-5.5,5.4s2.4,5.4,5.5,5.4
		C295.3,145.1,297.6,142.8,297.6,139.7z"/>
	<path class="st0" d="M300.7,144.6l0.5-1.1c0.9,0.9,2.6,1.6,4.3,1.6c2.5,0,3.5-1,3.5-2.3c0-3.6-8.1-1.4-8.1-6.3
		c0-1.9,1.5-3.6,4.8-3.6c1.5,0,3,0.4,4.1,1.2l-0.5,1.1c-1.1-0.7-2.4-1.1-3.6-1.1c-2.4,0-3.5,1.1-3.5,2.4c0,3.6,8.1,1.4,8.1,6.2
		c0,1.9-1.5,3.6-4.9,3.6C303.6,146.4,301.7,145.7,300.7,144.6z"/>
	<path class="st0" d="M318.4,133.1h1.4V145h7.4v1.2h-8.8V133.1z"/>
	<path class="st0" d="M338.5,145v1.2h-9.3v-13.1h9v1.2h-7.6v4.7h6.8v1.2h-6.8v4.9H338.5z"/>
	<path class="st0" d="M350.4,139.7h1.3v5c-1.2,1.1-3,1.7-4.8,1.7c-4,0-6.9-2.8-6.9-6.7s2.9-6.7,7-6.7c2,0,3.7,0.6,4.9,1.9l-0.9,0.9
		c-1.1-1.1-2.4-1.5-4-1.5c-3.3,0-5.6,2.3-5.6,5.4c0,3.1,2.4,5.4,5.6,5.4c1.3,0,2.4-0.3,3.4-1V139.7z"/>
	<path class="st0" d="M363.6,142.7h-7.3l-1.6,3.5h-1.4l6-13.1h1.4l6,13.1h-1.5L363.6,142.7z M363.1,141.6l-3.2-7.1l-3.2,7.1H363.1z"
		/>
	<path class="st0" d="M368.7,133.1h1.4V145h7.4v1.2h-8.8V133.1z"/>
	<path class="st0" d="M388.8,145v1.2h-9.3v-13.1h9v1.2h-7.6v4.7h6.8v1.2h-6.8v4.9H388.8z"/>
	<path class="st0" d="M390.7,144.6l0.5-1.1c0.9,0.9,2.6,1.6,4.3,1.6c2.5,0,3.5-1,3.5-2.3c0-3.6-8.1-1.4-8.1-6.3
		c0-1.9,1.5-3.6,4.8-3.6c1.5,0,3,0.4,4.1,1.2l-0.5,1.1c-1.1-0.7-2.4-1.1-3.6-1.1c-2.4,0-3.5,1.1-3.5,2.4c0,3.6,8.1,1.4,8.1,6.2
		c0,1.9-1.5,3.6-4.9,3.6C393.6,146.4,391.7,145.7,390.7,144.6z"/>
</g>
<g id="XMLID_1_">
	<g id="XMLID_10_">
		<g id="XMLID_11_">
			<g id="XMLID_15_">
				<path id="XMLID_28_" class="st0" d="M215.3,34.1c3.7,0,7.2,0.4,10.3,1.1c3.1,0.8,5.7,1.9,7.9,3.5c2.2,1.6,3.9,3.5,5,5.9
					c1.2,2.4,2.5,10.7,2.5,19.5c-0.1,13.5-1.2,15.6-2.2,16.7c-1,1.1-2.2,2.1-3.6,3c-4.5,2.7-10.9,4.1-19.1,4.1c-3.7,0-7-0.3-9.9-1
					c-3-0.7-5.5-1.7-7.6-3.1c-2.1-1.4-3.7-3.2-4.9-5.3c-1.1-2.2-1.7-4.6-1.7-7.5c0-4.8,1.4-8.5,4.3-11c2.8-2.6,7.3-4.2,13.2-4.8
					l13.6-1.5v-0.7c0-2-0.9-3.5-2.7-4.3c-1.8-0.9-4.3-1.3-7.7-1.3c-2.6,0-5.2,0.3-7.7,0.8c-2.5,0.6-4.8,1.2-6.8,2.1
					c-0.9-0.6-1.7-1.6-2.3-2.9c-0.6-1.3-0.9-2.6-0.9-4c0-1.8,0.4-3.2,1.3-4.3c0.9-1.1,2.2-2,4-2.8c2-0.8,4.4-1.3,7.1-1.7
					C210.3,34.3,212.9,34.1,215.3,34.1z M216.2,75c1.2,0,2.5-0.1,3.9-0.4c1.4-0.2,2.5-0.6,3.2-1v-8.3l-7.5,0.6
					c-1.9,0.1-3.5,0.6-4.8,1.2c-1.2,0.7-1.9,1.7-1.9,3.1c0,1.4,0.5,2.5,1.6,3.4C211.8,74.6,213.6,75,216.2,75z"/>
				<path id="XMLID_25_" class="st0" d="M240.9,18.5c0.7-0.2,1.8-0.4,3.3-0.7c1.5-0.2,3.1-0.4,4.7-0.4c1.5,0,2.9,0.1,4.1,0.3
					c1.2,0.2,2.2,0.6,3.1,1.2c0.8,0.6,1.5,1.5,1.9,2.6c0.4,1.1,0.6,2.5,0.6,4.2V36c1.7-0.7,3.4-1.2,4.9-1.5c1.6-0.3,3.3-0.4,5.2-0.4
					c3.3,0,6.5,0.6,9.5,1.8c3,1.2,5.6,2.9,7.9,5.2c2.3,2.3,4.1,5,5.4,8.4c1.3,3.3,2,7.2,2,11.6c0,4.5-0.7,8.5-2,11.8
					c-1.4,3.4-3.2,6.2-5.7,8.4c-2.4,2.2-5.4,3.9-8.9,5c-3.5,1.1-7.4,1.7-11.6,1.7c-4.6,0-8.5-0.5-11.7-1.6c-3.2-1.1-5.9-2.4-8.1-4
					c-3.1-2.2-4.6-4.9-4.6-8.3V18.5z M265.3,74c3.2,0,5.7-1.1,7.4-3.3c1.8-2.2,2.7-5.4,2.7-9.7c0-4.4-0.9-7.6-2.7-9.8
					c-1.8-2.2-4.2-3.2-7.3-3.2c-1.4,0-2.6,0.1-3.6,0.4c-1,0.3-2.1,0.7-3.3,1.2v22.7c0.8,0.5,1.7,0.9,2.8,1.2
					C262.3,73.8,263.7,74,265.3,74z"/>
				<path id="XMLID_22_" class="st0" d="M346.9,60.9c0,4.3-0.7,8.1-2,11.5c-1.3,3.4-3.2,6.2-5.6,8.5c-2.4,2.3-5.3,4-8.6,5.2
					c-3.3,1.2-7,1.8-11.1,1.8c-4.1,0-7.8-0.6-11.1-1.9c-3.3-1.2-6.2-3-8.6-5.4c-2.4-2.3-4.3-5.2-5.6-8.5c-1.3-3.3-2-7.1-2-11.2
					c0-4.1,0.7-7.8,2-11.1c1.3-3.3,3.2-6.2,5.6-8.5c2.4-2.3,5.3-4.1,8.6-5.4s7-1.9,11.1-1.9c4.1,0,7.8,0.6,11.1,1.9
					c3.3,1.3,6.2,3.1,8.6,5.4c2.4,2.3,4.3,5.2,5.6,8.5C346.3,53.2,346.9,56.9,346.9,60.9z M310.5,60.9c0,4.2,0.8,7.5,2.4,9.7
					c1.6,2.3,3.9,3.4,6.8,3.4c2.9,0,5.2-1.1,6.7-3.4c1.6-2.3,2.3-5.5,2.3-9.7s-0.8-7.4-2.4-9.6c-1.6-2.3-3.9-3.4-6.8-3.4
					c-2.9,0-5.2,1.1-6.8,3.4C311.3,53.6,310.5,56.8,310.5,60.9z"/>
				<path id="XMLID_19_" class="st0" d="M345.8,60.9c0-4.6,0.7-8.6,2.1-11.9c1.4-3.4,3.3-6.2,5.8-8.4c2.5-2.2,5.3-3.9,8.6-4.9
					c3.3-1.1,6.9-1.6,10.7-1.6c1.4,0,2.7,0.1,4.1,0.4c1.3,0.2,2.4,0.5,3.2,0.9V18.5c0.7-0.2,1.8-0.4,3.3-0.7
					c1.5-0.2,3.1-0.4,4.7-0.4c1.5,0,2.9,0.1,4.1,0.3c1.2,0.2,2.2,0.6,3.1,1.2c0.8,0.6,1.5,1.5,1.9,2.6c0.4,1.1,0.6,2.5,0.6,4.2v49.3
					c0,3.3-1.5,5.9-4.6,7.8c-2,1.3-4.6,2.5-7.8,3.5c-3.2,1-6.9,1.5-11,1.5c-4.5,0-8.6-0.6-12.1-1.9c-3.6-1.2-6.6-3.1-9.1-5.4
					c-2.5-2.4-4.3-5.2-5.6-8.5C346.5,68.8,345.8,65.1,345.8,60.9z M375.4,47.9c-3.7,0-6.6,1.1-8.6,3.2c-2,2.2-3,5.4-3,9.8
					c0,4.3,0.9,7.5,2.8,9.7c1.9,2.2,4.6,3.3,8.1,3.3c1.2,0,2.4-0.2,3.4-0.6c1-0.4,1.8-0.8,2.3-1.3V49.2
					C379,48.3,377.3,47.9,375.4,47.9z"/>
				<path id="XMLID_16_" class="st0" d="M451.8,60.9c0,4.3-0.7,8.1-2,11.5c-1.3,3.4-3.2,6.2-5.6,8.5c-2.4,2.3-5.3,4-8.6,5.2
					c-3.3,1.2-7,1.8-11.1,1.8c-4.1,0-7.8-0.6-11.1-1.9c-3.3-1.2-6.2-3-8.6-5.4c-2.4-2.3-4.3-5.2-5.6-8.5c-1.3-3.3-2-7.1-2-11.2
					c0-4.1,0.7-7.8,2-11.1c1.3-3.3,3.2-6.2,5.6-8.5c2.4-2.3,5.3-4.1,8.6-5.4c3.3-1.2,7-1.9,11.1-1.9c4.1,0,7.8,0.6,11.1,1.9
					c3.3,1.3,6.2,3.1,8.6,5.4c2.4,2.3,4.3,5.2,5.6,8.5C451.2,53.2,451.8,56.9,451.8,60.9z M415.4,60.9c0,4.2,0.8,7.5,2.4,9.7
					c1.6,2.3,3.9,3.4,6.8,3.4c2.9,0,5.2-1.1,6.7-3.4s2.3-5.5,2.3-9.7s-0.8-7.4-2.4-9.6c-1.6-2.3-3.9-3.4-6.8-3.4s-5.2,1.1-6.8,3.4
					C416.2,53.6,415.4,56.8,415.4,60.9z"/>
			</g>
			<g id="XMLID_12_">
				<path id="XMLID_13_" class="st0" d="M481.6,48.1c-1.7,0-3.4,0.3-4.9,0.8c-1.6,0.6-2.9,1.4-4,2.4c-1.1,1.1-2.1,2.4-2.7,4
					c-0.7,1.6-1,3.5-1,5.6c0,4.3,1.2,7.5,3.7,9.6c2.5,2.1,5.4,3.2,9,3.2c2.1,0,3.9-0.2,5.4-0.7c1.5-0.5,2.9-1,4-1.6
					c1.4,1,2.4,2,3.1,3.2c0.7,1.1,1,2.5,1,4.1c0,2.8-1.3,5-4,6.6c-2.7,1.6-6.4,2.3-11.2,2.3c-4.4,0-8.3-0.6-11.8-1.9
					c-3.5-1.3-6.5-3.1-9.1-5.4c-2.5-2.3-4.5-5.1-5.9-8.3c-1.4-3.2-2.1-6.8-2.1-10.8c0-4.6,0.7-8.6,2.2-12c1.5-3.4,3.5-6.2,6.1-8.4
					c2.6-2.2,5.5-3.9,8.9-5c3.4-1.1,6.9-1.7,10.6-1.7c5,0,8.8,0.9,11.5,2.7c2.7,1.8,4,4.1,4,6.9c0,1.3-0.3,2.5-0.9,3.7
					c-0.6,1.1-1.3,2.1-2.2,3c-1.2-0.6-2.6-1.1-4.3-1.6C485.3,48.3,483.5,48.1,481.6,48.1z"/>
			</g>
		</g>
	</g>
	<g id="XMLID_3_">
		<path id="XMLID_8_" class="st0" d="M504.4,84c0,1.5-1.1,2.6-2.6,2.6s-2.5-1-2.5-2.6c0-1.5,1-2.5,2.5-2.5S504.4,82.5,504.4,84z"/>
		<path id="XMLID_6_" class="st0" d="M521.4,73.4l-3.8,2.3c-0.8-1.1-1.9-1.7-3.3-1.7c-2,0-3.4,1.7-3.4,4.1c0,2.5,1.4,4.2,3.4,4.2
			c1.5,0,2.7-0.6,3.4-1.9l3.8,2.3c-1.3,2.4-4,3.8-7.5,3.8c-5.1,0-8.5-3.4-8.5-8.4c0-5.1,3.4-8.4,8.5-8.4
			C517.3,69.7,519.9,71,521.4,73.4z"/>
		<path id="XMLID_4_" class="st0" d="M523.5,86.3V63.7h5.3v22.6H523.5z"/>
	</g>
</g>
</svg>
