<svg width="98" height="112" viewBox="0 0 98 112" fill="none" xmlns="http://www.w3.org/2000/svg">
<path d="M49.0378 55.5728C64.1758 55.5728 76.7185 43.1992 76.7185 27.7864C76.7185 12.5907 64.1758 7.62939e-06 49.0378 7.62939e-06C33.6836 7.62939e-06 21.3571 12.5907 21.3571 27.7864C21.3571 43.1992 33.6836 55.5728 49.0378 55.5728ZM49.0378 6.94661C60.2831 6.94661 69.7983 16.4982 69.7983 27.7864C69.7983 39.2917 60.2831 48.6262 49.0378 48.6262C37.5763 48.6262 28.2773 39.2917 28.2773 27.7864C28.2773 16.4982 37.5763 6.94661 49.0378 6.94661ZM69.1495 62.7365C61.7969 62.5194 59.6343 65.9927 49.0378 65.9927C38.2251 65.9927 36.0625 62.5194 28.7097 62.7365C13.1394 63.1707 0.596634 75.9785 0.596634 91.8254V109.409C0.596634 110.494 1.24544 111.146 2.32668 111.146H5.78676C6.65178 111.146 7.5168 110.494 7.5168 109.409V91.8254C7.5168 80.103 16.5994 70.3343 28.2773 69.6831V87.4838C23.0872 89.0033 19.6271 93.5621 19.6271 98.9891C19.6271 105.719 25.0334 111.146 31.7374 111.146C38.2251 111.146 43.8477 105.719 43.8477 98.9891C43.8477 93.5621 40.1714 89.0033 35.1975 87.4838V70.7686C39.5226 72.288 44.2801 72.9393 49.0378 72.9393C53.5791 72.9393 58.3368 72.288 62.8781 70.7686V85.7472C56.6068 87.2666 52.4979 93.1278 52.4979 99.6404V105.936C52.4979 107.021 52.7141 107.889 53.3629 108.541L55.7418 110.712C56.3904 111.363 57.4718 111.363 58.1204 110.712L60.4993 108.324C61.1481 107.672 61.1481 106.587 60.4993 105.719L59.2018 104.633V98.9891C59.2018 94.8645 63.0944 91.6084 67.4195 92.2595C70.8796 92.6938 73.0422 95.9499 73.0422 99.4232V104.633L71.9608 105.719C71.3121 106.587 71.3121 107.672 71.9608 108.324L74.3396 110.712C74.9884 111.363 76.0697 111.363 76.7185 110.712L79.0973 108.541C79.7461 107.889 79.9623 107.021 79.9623 105.936V98.9891C79.9623 92.6938 75.6372 87.2666 69.5821 85.7472V69.6831C81.2598 70.5514 90.3426 80.103 90.3426 91.8254V109.409C90.3426 110.494 91.2076 111.146 92.0726 111.146H95.5327C96.614 111.146 97.2628 110.494 97.2628 109.409V91.8254C97.479 75.9785 84.9363 63.1707 69.1495 62.7365ZM36.9275 98.9891C36.9275 102.028 34.5487 104.199 31.7374 104.199C28.7097 104.199 26.5473 102.028 26.5473 98.9891C26.5473 96.1671 28.7097 93.7791 31.7374 93.7791C34.5487 93.7791 36.9275 96.1671 36.9275 98.9891Z" fill="#8881DC"/>
</svg>
