<svg width="97" height="111" viewBox="0 0 97 111" fill="none" xmlns="http://www.w3.org/2000/svg">
<path d="M48.7325 55.2233C63.8436 55.2233 76.364 42.9275 76.364 27.6117C76.364 12.5115 63.8436 0 48.7325 0C33.4055 0 21.1009 12.5115 21.1009 27.6117C21.1009 42.9275 33.4055 55.2233 48.7325 55.2233ZM48.7325 6.90291C59.9578 6.90291 69.4561 16.3944 69.4561 27.6117C69.4561 39.0446 59.9578 48.3204 48.7325 48.3204C37.2913 48.3204 28.0088 39.0446 28.0088 27.6117C28.0088 16.3944 37.2913 6.90291 48.7325 6.90291ZM68.8085 62.3419C61.4689 62.1262 59.3101 65.5777 48.7325 65.5777C37.9389 65.5777 35.7802 62.1262 28.4404 62.3419C12.8977 62.7734 0.377197 75.5007 0.377197 91.2479V108.721C0.377197 109.799 1.02485 110.447 2.10417 110.447H5.55812C6.42161 110.447 7.28509 109.799 7.28509 108.721V91.2479C7.28509 79.5992 16.3516 69.892 28.0088 69.2448V86.9336C22.8279 88.4435 19.3739 92.9736 19.3739 98.3665C19.3739 105.054 24.7707 110.447 31.4627 110.447C37.9389 110.447 43.5515 105.054 43.5515 98.3665C43.5515 92.9736 39.8818 88.4435 34.9167 86.9336V70.3235C39.2341 71.8334 43.9832 72.4806 48.7325 72.4806C53.2657 72.4806 58.015 71.8334 62.5482 70.3235V85.2079C56.288 86.7178 52.1864 92.5421 52.1864 99.0137V105.269C52.1864 106.348 52.4022 107.211 53.0499 107.858L55.4245 110.015C56.072 110.662 57.1515 110.662 57.799 110.015L60.1736 107.642C60.8213 106.995 60.8213 105.917 60.1736 105.054L58.8785 103.975V98.3665C58.8785 94.2679 62.7641 91.0322 67.0815 91.6793C70.5355 92.1108 72.6943 95.3464 72.6943 98.7979V103.975L71.6148 105.054C70.9673 105.917 70.9673 106.995 71.6148 107.642L73.9894 110.015C74.6371 110.662 75.7164 110.662 76.364 110.015L78.7387 107.858C79.3863 107.211 79.6021 106.348 79.6021 105.269V98.3665C79.6021 92.1108 75.2847 86.7178 69.2403 85.2079V69.2448C80.8973 70.1077 89.964 79.5992 89.964 91.2479V108.721C89.964 109.799 90.8275 110.447 91.691 110.447H95.1449C96.2242 110.447 96.8719 109.799 96.8719 108.721V91.2479C97.0877 75.5007 84.5672 62.7734 68.8085 62.3419ZM36.6436 98.3665C36.6436 101.387 34.269 103.544 31.4627 103.544C28.4404 103.544 26.2818 101.387 26.2818 98.3665C26.2818 95.5622 28.4404 93.1893 31.4627 93.1893C34.269 93.1893 36.6436 95.5622 36.6436 98.3665Z" fill="#8881DC"/>
</svg>
