<svg width="152" height="144" viewBox="0 0 152 144" fill="none" xmlns="http://www.w3.org/2000/svg">
<g clip-path="url(#clip0_2_449)">
<path d="M72.6246 47.7953C84.6119 47.7953 94.3295 38.0247 94.3295 25.9721C94.3295 13.9195 84.6119 4.14891 72.6246 4.14891C60.6373 4.14891 50.9198 13.9195 50.9198 25.9721C50.9198 38.0247 60.6373 47.7953 72.6246 47.7953Z" stroke="#8881DC" stroke-width="5" stroke-miterlimit="10"/>
<path d="M38.6231 65.1709C38.6231 65.1709 72.6081 47.8119 110.224 65.1709" stroke="#8881DC" stroke-width="5" stroke-miterlimit="10"/>
<path d="M10.8277 80.804C10.8277 80.804 -0.709742 87.326 6.5032 96.7523C13.7161 106.179 14.4424 106.179 46.1826 93.1179V121.397" stroke="#8881DC" stroke-width="5" stroke-miterlimit="10"/>
<path d="M139.027 80.804C139.027 80.804 150.564 87.326 143.351 96.7523C136.138 106.179 135.412 106.179 103.672 93.1179V121.397" stroke="#8881DC" stroke-width="5" stroke-miterlimit="10"/>
<path d="M23.504 77.4185C25.5824 77.4185 27.2672 75.7244 27.2672 73.6347C27.2672 71.5449 25.5824 69.8509 23.504 69.8509C21.4256 69.8509 19.7407 71.5449 19.7407 73.6347C19.7407 75.7244 21.4256 77.4185 23.504 77.4185Z" fill="#8881DC"/>
<path d="M63.1999 90.5124C65.2783 90.5124 66.9632 88.8183 66.9632 86.7286C66.9632 84.6389 65.2783 82.9448 63.1999 82.9448C61.1215 82.9448 59.4366 84.6389 59.4366 86.7286C59.4366 88.8183 61.1215 90.5124 63.1999 90.5124Z" fill="#8881DC"/>
<path d="M85.8291 112.966C87.9075 112.966 89.5924 111.272 89.5924 109.182C89.5924 107.093 87.9075 105.399 85.8291 105.399C83.7507 105.399 82.0658 107.093 82.0658 109.182C82.0658 111.272 83.7507 112.966 85.8291 112.966Z" fill="#8881DC"/>
<path d="M124.7 77.4185C126.778 77.4185 128.463 75.7244 128.463 73.6347C128.463 71.5449 126.778 69.8509 124.7 69.8509C122.621 69.8509 120.936 71.5449 120.936 73.6347C120.936 75.7244 122.621 77.4185 124.7 77.4185Z" fill="#8881DC"/>
<path d="M0.148552 132.383H152" stroke="#8881DC" stroke-width="4" stroke-miterlimit="10"/>
</g>
<defs>
<clipPath id="clip0_2_449">
<rect width="152" height="144" fill="white"/>
</clipPath>
</defs>
</svg>
