<svg width="133" height="119" viewBox="0 0 133 119" fill="none" xmlns="http://www.w3.org/2000/svg">
<path d="M131.091 106.002L91.0231 3.19506C90.5678 2.04767 89.4295 1.12975 88.2911 1.12975C87.6081 1.12975 87.1528 1.58871 85.7868 2.04767C84.1932 2.50662 83.5103 3.8835 84.1932 6.1783C80.5506 8.4731 70.7614 11.6858 67.1188 12.3743C66.8911 11.4563 66.6635 10.7679 65.5252 10.0795V8.4731C65.5252 4.57195 62.3378 1.12975 58.2401 1.12975H36.3848C35.2463 1.12975 33.8805 1.81818 32.7422 2.27715C31.8315 1.81818 30.4655 1.12975 29.3272 1.12975H7.47191C3.37403 1.12975 0.186798 4.57195 0.186798 8.4731V111.28C0.186798 115.411 3.37403 118.623 7.47191 118.623H29.3272C30.4655 118.623 31.8315 118.164 32.9698 117.705C33.8805 118.164 35.2463 118.623 36.6124 118.623H58.4677C62.3378 118.623 65.7528 115.411 65.7528 111.28V28.4378L100.129 116.788C100.585 117.935 101.495 118.623 102.634 118.623C103.317 118.623 103.772 118.394 105.366 117.935C106.732 117.476 107.642 116.099 106.732 113.804C110.602 111.509 120.164 108.297 124.034 107.608C124.717 110.133 126.31 110.592 127.676 110.133L129.27 109.444C130.863 108.985 131.546 107.379 131.091 106.002ZM29.3272 111.28H7.47191V96.5934H29.3272V111.28ZM29.3272 89.25H7.47191V30.5032H29.3272V89.25ZM29.3272 23.1598H7.47191V8.4731H29.3272V23.1598ZM58.4677 111.28H36.6124V96.5934H58.4677V111.28ZM58.4677 89.25H36.6124V30.5032H58.4677V89.25ZM58.4677 23.1598H36.6124V8.4731H58.4677V23.1598ZM104.683 107.608L69.1678 18.3408C75.0869 17.4228 83.738 13.7511 86.4699 12.3743L121.757 101.642C116.066 102.56 107.187 106.231 104.683 107.608Z" fill="#8881DC"/>
</svg>
