<svg width="53" height="47" viewBox="0 0 53 47" fill="none" xmlns="http://www.w3.org/2000/svg">
<path d="M49.0935 5.2339H43.441V3.7684C43.441 1.675 41.7659 0 39.6726 0C37.5792 0 35.9042 1.675 35.9042 3.7684V5.2339H16.3295V3.7684C16.3295 1.675 14.6545 0 12.5611 0C10.4677 0 8.8975 1.7794 8.8975 3.7684V5.2339H3.2449C1.4655 5.2339 0 6.6994 0 8.4788V43.7551C0 45.5345 1.4655 47 3.2449 47H49.1983C50.9777 47 52.4432 45.5345 52.4432 43.7551L52.4436 16.4343V8.4787C52.3388 6.6993 50.8729 5.2339 49.0935 5.2339ZM38.2071 3.7684C38.2071 2.9309 38.9398 2.1981 39.7773 2.1981C40.6148 2.1981 41.3476 2.9309 41.3476 3.7684L41.3472 8.8975C41.3472 9.735 40.6145 10.4677 39.777 10.4677C38.9395 10.4677 38.2067 9.735 38.2067 8.8975L38.2071 3.7684ZM10.9909 3.7684C10.9909 2.9309 11.7237 2.1981 12.5612 2.1981C13.3987 2.1981 14.1315 2.9309 14.1315 3.7684L14.1311 8.8975C14.1311 9.735 13.3984 10.4677 12.5608 10.4677C11.7233 10.4677 10.9906 9.735 10.9906 8.8975L10.9909 3.7684ZM2.0931 8.4787C2.0931 7.8507 2.6166 7.432 3.1398 7.432H8.7923V8.8975C8.7923 10.9909 10.4674 12.6659 12.5607 12.6659C14.6541 12.6659 16.3291 10.9909 16.3291 8.8975V7.432H36.0085L36.0089 8.8975C36.0089 10.9909 37.6839 12.6659 39.7772 12.6659C41.8706 12.6659 43.5456 10.9909 43.5456 8.8975V7.432H49.1982C49.8262 7.432 50.2449 7.9555 50.2449 8.4787V15.3876H2.0933L2.0931 8.4787ZM50.2447 43.8597C50.2447 44.4876 49.7212 44.9064 49.198 44.9064H3.2446C2.6167 44.9064 2.1979 44.3828 2.1979 43.8597V17.5856H50.2449L50.2447 43.8597Z" fill="white"/>
<path d="M18.2137 35.4856H22.7148V39.9868C22.7148 40.6147 23.2383 41.0335 23.7615 41.0335H28.5767C29.2046 41.0335 29.6233 40.5099 29.6233 39.9868V35.4856H34.1245C34.7524 35.4856 35.1711 34.9621 35.1711 34.439V29.6238C35.1711 28.9958 34.6476 28.5771 34.1245 28.5771H29.6233V24.076C29.6233 23.448 29.0998 23.0293 28.5767 23.0293H23.7615C23.1335 23.0293 22.7148 23.5528 22.7148 24.076V28.5771H18.2137C17.5857 28.5771 17.167 29.1006 17.167 29.6238V34.439C17.167 34.9621 17.5857 35.4856 18.2137 35.4856ZM19.2604 30.6705H23.7615C24.3894 30.6705 24.8082 30.1469 24.8082 29.6238V25.1227H27.4251V29.6238C27.4251 30.2517 27.9486 30.6705 28.4718 30.6705H32.9729V33.2874H28.4718C27.8438 33.2874 27.4251 33.8109 27.4251 34.3341V38.8352H24.8082V34.3341C24.8082 33.7061 24.2846 33.2874 23.7615 33.2874H19.2604V30.6705Z" fill="white"/>
</svg>
