<svg width="45" height="45" viewBox="0 0 45 45" fill="none" xmlns="http://www.w3.org/2000/svg">
<path d="M17.1691 7.2002H27.9056C29.6969 7.2002 31.1542 8.65777 31.1542 10.4491V12.7761H36.0558C38.1963 12.7761 39.9375 14.5176 39.9375 16.6582V32.96C39.9375 35.1005 38.1963 36.8421 36.0558 36.8421H9.01843C6.87792 36.8421 5.13669 35.1006 5.13669 32.96L5.13704 16.6582C5.13704 14.5177 6.87827 12.7761 9.01878 12.7761H13.9204V10.4491C13.9204 8.65777 15.3776 7.2002 17.169 7.2002H17.1691ZM30.0447 10.4491C30.0447 9.26961 29.0854 8.31032 27.9062 8.31032H17.1698C15.9906 8.31032 15.0313 9.26961 15.0313 10.4491V12.7761H16.6965V10.5303C16.6965 10.2237 16.945 9.97523 17.2516 9.97523L27.8239 9.97558C28.1306 9.97558 28.379 10.224 28.379 10.5307V12.7764H30.0442L30.0447 10.4491ZM17.8061 11.0857V12.7764L27.2696 12.7761V11.0854L17.8061 11.0857ZM9.01924 13.8863C7.49093 13.8863 6.24771 15.1296 6.24771 16.6581V32.9599C6.24771 34.4886 7.49102 35.7318 9.01924 35.7318L36.0557 35.7322C37.584 35.7322 38.8272 34.4889 38.8272 32.9603L38.8275 16.6585C38.8275 15.1298 37.5842 13.8866 36.056 13.8866L9.01924 13.8863Z" fill="#9B9B9B" stroke="#9B9B9B" stroke-width="0.4"/>
<path d="M28.1305 27.0221H24.7505V30.402C24.7505 30.7087 24.502 30.9571 24.1954 30.9571H20.8792C20.5726 30.9571 20.3241 30.7087 20.3241 30.402V27.0221H16.9441C16.6375 27.0221 16.3891 26.7736 16.3891 26.467V23.1508C16.3891 22.8441 16.6375 22.5957 16.9441 22.5957H20.3241V19.2157C20.3241 18.9091 20.5726 18.6606 20.8792 18.6606H24.1954C24.502 18.6606 24.7505 18.9091 24.7505 19.2157V22.5957L28.1305 22.5961C28.4371 22.5961 28.6855 22.8445 28.6855 23.1511V26.4673C28.6855 26.7736 28.4371 27.0221 28.1305 27.0221V27.0221ZM27.5754 23.7059H24.1954C23.8888 23.7059 23.6403 23.4574 23.6403 23.1508V19.7708H21.4343V23.1508C21.4343 23.4574 21.1859 23.7059 20.8793 23.7059H17.4993V25.9118H20.8793C21.1859 25.9118 21.4343 26.1603 21.4343 26.4669V29.8469H23.6403V26.4669C23.6403 26.1603 23.8888 25.9118 24.1954 25.9118L27.5754 25.9122V23.7059Z" fill="#9B9B9B" stroke="#9B9B9B" stroke-width="0.6"/>
</svg>
