<svg width="46" height="46" viewBox="0 0 46 46" fill="none" xmlns="http://www.w3.org/2000/svg">
<path fill-rule="evenodd" clip-rule="evenodd" d="M18.2344 10C18.778 10 19.2188 10.4407 19.2188 10.9844V12.5H27.25V10.9844C27.25 10.4407 27.6907 10 28.2344 10C28.778 10 29.2188 10.4407 29.2188 10.9844V12.5H31.9844C33.9087 12.5 35.4688 14.06 35.4688 15.9844V33.4844C35.4688 35.4087 33.9087 36.9687 31.9844 36.9687H14.4844C12.56 36.9687 11 35.4087 11 33.4844V15.9844C11 14.06 12.56 12.5 14.4844 12.5H17.25V10.9844C17.25 10.4407 17.6907 10 18.2344 10ZM17.25 14.4688H14.4844C13.6473 14.4688 12.9688 15.1473 12.9688 15.9844V20H33.5V15.9844C33.5 15.1473 32.8214 14.4688 31.9844 14.4688H29.2188V15.9844C29.2188 16.528 28.778 16.9688 28.2344 16.9688C27.6907 16.9688 27.25 16.528 27.25 15.9844V14.4688H19.2188V15.9844C19.2188 16.528 18.778 16.9688 18.2344 16.9688C17.6907 16.9688 17.25 16.528 17.25 15.9844V14.4688ZM33.5 21.9688H12.9688V33.4844C12.9688 34.3214 13.6473 35 14.4844 35H31.9844C32.8214 35 33.5 34.3214 33.5 33.4844V21.9688ZM17.25 25.9844C17.25 25.4407 17.6907 25 18.2344 25H18.2469C18.7905 25 19.2313 25.4407 19.2313 25.9844C19.2313 26.528 18.7905 26.9688 18.2469 26.9688H18.2344C17.6907 26.9688 17.25 26.528 17.25 25.9844ZM22.25 25.9844C22.25 25.4407 22.6907 25 23.2344 25H23.2469C23.7905 25 24.2313 25.4407 24.2313 25.9844C24.2313 26.528 23.7905 26.9688 23.2469 26.9688H23.2344C22.6907 26.9688 22.25 26.528 22.25 25.9844ZM27.25 25.9844C27.25 25.4407 27.6907 25 28.2344 25H28.2469C28.7905 25 29.2313 25.4407 29.2313 25.9844C29.2313 26.528 28.7905 26.9688 28.2469 26.9688H28.2344C27.6907 26.9688 27.25 26.528 27.25 25.9844ZM17.25 30.9844C17.25 30.4407 17.6907 30 18.2344 30H18.2469C18.7905 30 19.2313 30.4407 19.2313 30.9844C19.2313 31.528 18.7905 31.9688 18.2469 31.9688H18.2344C17.6907 31.9688 17.25 31.528 17.25 30.9844ZM22.25 30.9844C22.25 30.4407 22.6907 30 23.2344 30H23.2469C23.7905 30 24.2313 30.4407 24.2313 30.9844C24.2313 31.528 23.7905 31.9688 23.2469 31.9688H23.2344C22.6907 31.9688 22.25 31.528 22.25 30.9844ZM27.25 30.9844C27.25 30.4407 27.6907 30 28.2344 30H28.2469C28.7905 30 29.2313 30.4407 29.2313 30.9844C29.2313 31.528 28.7905 31.9688 28.2469 31.9688H28.2344C27.6907 31.9688 27.25 31.528 27.25 30.9844Z" fill="#302F7B"/>
</svg>
