<svg width="110" height="110" viewBox="0 0 110 110" fill="none" xmlns="http://www.w3.org/2000/svg">
<g clip-path="url(#clip0_210_15162)">
<path d="M6.875 19.4426C12.9594 16.8988 21.6838 14.1557 30.1675 13.3032C39.3112 12.3819 47.0662 13.7363 51.5625 18.4732V85.4769C45.1344 81.8332 36.9875 81.3313 29.4731 82.0876C21.3606 82.9126 13.1794 85.2569 6.875 87.6632V19.4426ZM58.4375 18.4732C62.9338 13.7363 70.6888 12.3819 79.8325 13.3032C88.3163 14.1557 97.0406 16.8988 103.125 19.4426V87.6632C96.8138 85.2569 88.6394 82.9057 80.5269 82.0944C73.0056 81.3313 64.8656 81.8263 58.4375 85.4769V18.4732ZM55 12.2582C48.2281 6.43507 38.4106 5.56882 29.4731 6.46257C19.0644 7.51444 8.55937 11.0826 2.01437 14.0594C1.41384 14.3326 0.90458 14.7727 0.547394 15.3274C0.190209 15.8821 0.000182679 16.5278 0 17.1876L0 92.8126C0.000159239 93.3877 0.14463 93.9536 0.42018 94.4585C0.69573 94.9633 1.09355 95.391 1.5772 95.7022C2.06085 96.0135 2.61487 96.1984 3.18851 96.2401C3.76215 96.2817 4.33708 96.1788 4.86063 95.9407C10.9244 93.1907 20.6938 89.8838 30.1606 88.9282C39.8475 87.9519 47.9669 89.5263 52.3188 94.9576C52.6409 95.359 53.049 95.6831 53.5131 95.9057C53.9771 96.1284 54.4853 96.2439 55 96.2439C55.5147 96.2439 56.0229 96.1284 56.4869 95.9057C56.951 95.6831 57.3592 95.359 57.6813 94.9576C62.0331 89.5263 70.1525 87.9519 79.8325 88.9282C89.3063 89.8838 99.0825 93.1907 105.139 95.9407C105.663 96.1788 106.238 96.2817 106.811 96.2401C107.385 96.1984 107.939 96.0135 108.423 95.7022C108.906 95.391 109.304 94.9633 109.58 94.4585C109.855 93.9536 110 93.3877 110 92.8126V17.1876C110 16.5278 109.81 15.8821 109.453 15.3274C109.095 14.7727 108.586 14.3326 107.986 14.0594C101.441 11.0826 90.9356 7.51444 80.5269 6.46257C71.5894 5.56194 61.7719 6.43507 55 12.2582Z" fill="white"/>
</g>
<defs>
<clipPath id="clip0_210_15162">
<rect width="110" height="110" fill="white"/>
</clipPath>
</defs>
</svg>
