<svg width="32" height="36" viewBox="0 0 32 36" fill="none" xmlns="http://www.w3.org/2000/svg">
<path fill-rule="evenodd" clip-rule="evenodd" d="M23.8004 33.8012H12.4154V28.8676C12.4154 28.571 12.1764 28.3304 11.8814 28.3302H8.19641C7.53177 28.3292 6.89445 28.0634 6.4245 27.5909C5.95454 27.1185 5.69009 26.4778 5.68914 25.8096V21.1901C5.68865 20.9991 5.58736 20.823 5.42323 20.7269L2.25448 18.8556L5.61912 12.794C5.65486 12.7301 5.67679 12.6595 5.68418 12.5867C6.34144 6.07628 12.053 1.34999 18.9706 1.5872C25.2354 1.80298 28.8743 6.37437 29.7014 10.8083C30.5832 15.5336 28.7839 18.5148 26.8796 21.6708C24.8962 24.9581 22.8479 28.3543 23.8026 33.8017L23.8004 33.8012ZM30.7528 10.6099C29.8466 5.75478 25.8637 0.750131 19.0076 0.512929C15.5268 0.365521 12.1095 1.4826 9.38088 3.6603C8.05823 4.72536 6.9579 6.0426 6.14317 7.53653C5.3287 9.03046 4.81585 10.6715 4.63422 12.3654L1.06827 18.7889C0.926071 19.044 1.01306 19.3666 1.2637 19.5145L4.61969 21.4972V25.809C4.62092 26.7623 4.99798 27.6762 5.66854 28.3501C6.33911 29.0242 7.24822 29.4035 8.19625 29.4045H11.347V34.3386C11.3474 34.6352 11.5867 34.875 11.8817 34.875H24.449C24.6104 34.875 24.7629 34.8019 24.8645 34.6758C24.966 34.5497 25.0052 34.3842 24.9714 34.2257C23.8211 28.8101 25.7509 25.6122 27.7936 22.2273C29.7188 19.0373 31.709 15.7391 30.7522 10.6094L30.7528 10.6099ZM22.15 14.3496V11.6339H19.5424C19.4007 11.6339 19.2647 11.5774 19.1646 11.4765C19.0643 11.3757 19.0081 11.2392 19.0084 11.0965V8.47559H16.3069V11.0965C16.3069 11.2392 16.2505 11.3757 16.1504 11.4765C16.0502 11.5774 15.9141 11.6339 15.7724 11.6339H13.1648V14.3496H15.7724C16.0674 14.3499 16.3064 14.5904 16.3064 14.887V17.5079H19.0079V14.887C19.0079 14.7445 19.0641 14.6078 19.1641 14.507C19.2644 14.4064 19.4002 14.3496 19.5419 14.3496H22.15ZM20.0765 10.5596V7.9387C20.0767 7.79624 20.0205 7.65949 19.9202 7.55865C19.8202 7.45782 19.6841 7.40133 19.5424 7.40133H15.7724C15.6307 7.40108 15.4947 7.45782 15.3943 7.55865C15.2941 7.65924 15.2379 7.79599 15.2379 7.9387V10.5596H12.631C12.4893 10.5596 12.3536 10.6161 12.2532 10.7167C12.1529 10.8175 12.0965 10.954 12.0965 11.0965V14.887C12.0965 15.0295 12.1529 15.166 12.2532 15.2668C12.3535 15.3674 12.4893 15.4241 12.631 15.4239H15.2381V18.0453C15.2381 18.1877 15.2945 18.3242 15.3948 18.4251C15.4949 18.5257 15.6307 18.5822 15.7724 18.5822H19.5419C19.6836 18.5824 19.8197 18.5259 19.9197 18.4251C20.02 18.3245 20.0762 18.1877 20.0762 18.0453V15.4239H22.6863C22.9805 15.4229 23.2183 15.1828 23.2183 14.887V11.0965C23.2183 10.8009 22.9805 10.5606 22.6863 10.5596L20.0765 10.5596ZM17.6574 20.5196C19.6434 20.5196 21.5482 19.7265 22.9524 18.3148C24.3569 16.9032 25.1458 14.9884 25.1458 12.9917C25.1458 10.9954 24.3569 9.08057 22.9524 7.66889C21.5482 6.25697 19.6435 5.46393 17.6574 5.46418C15.6714 5.46418 13.7669 6.25748 12.3626 7.6694C10.9584 9.08133 10.1696 10.9961 10.1698 12.9925C10.172 14.9884 10.9616 16.9017 12.3653 18.3129C13.7691 19.724 15.6723 20.5173 17.6574 20.5196ZM17.6574 4.39106C15.3882 4.39081 13.2119 5.29706 11.6071 6.91016C10.0025 8.52301 9.10102 10.7109 9.10077 12.9921C9.10077 15.2736 10.002 17.4615 11.6066 19.0745C13.2112 20.6879 15.3875 21.5941 17.6566 21.5941C19.9259 21.5944 22.1022 20.6881 23.707 19.075C25.3116 17.4619 26.213 15.2743 26.2133 12.9929C26.2108 10.7124 25.3086 8.52599 23.7048 6.91346C22.1007 5.30087 19.9259 4.3936 17.6574 4.39106Z" fill="white" stroke="white" stroke-width="0.5"/>
</svg>
