<svg width="60" height="60" viewBox="0 0 60 60" fill="none" xmlns="http://www.w3.org/2000/svg">
<path fill-rule="evenodd" clip-rule="evenodd" d="M17.5628 51.5755C17.8588 51.5755 18.1508 51.6125 18.4428 51.6865L18.8098 51.8255C22.3008 53.6195 26.0658 54.5295 30.0008 54.5295C43.5258 54.5295 54.5298 43.5255 54.5298 29.9995C54.5298 16.4745 43.5258 5.47051 30.0008 5.47051C16.4748 5.47051 5.4708 16.4745 5.4708 29.9995C5.4708 33.9575 6.3908 37.7425 8.2048 41.2485L8.3078 41.4485L8.3568 41.6685C8.4738 42.1925 8.4588 42.7365 8.3118 43.3295C7.3858 47.0335 6.4618 50.7345 5.5568 54.4415C5.5568 54.4405 5.5578 54.4405 5.5578 54.4405C9.2468 53.5405 12.9318 52.6265 16.6138 51.6985C16.9378 51.6165 17.2518 51.5755 17.5628 51.5755ZM30.0008 58.0005C25.6138 58.0005 21.4108 57.0095 17.5028 55.0545C17.4908 55.0565 17.4778 55.0595 17.4628 55.0635C13.7718 55.9935 10.0778 56.9095 6.3798 57.8125C5.0588 58.1355 3.8218 57.8415 2.9888 57.0085C2.1548 56.1745 1.8628 54.9385 2.1848 53.6175C3.0918 49.9065 4.0178 46.1995 4.9428 42.4925C2.9898 38.5865 1.9998 34.3865 1.9998 29.9995C1.9998 14.5605 14.5608 1.99951 30.0008 1.99951C45.4398 1.99951 57.9998 14.5605 57.9998 29.9995C57.9998 45.4395 45.4398 58.0005 30.0008 58.0005Z" fill="#364F6B"/>
<path fill-rule="evenodd" clip-rule="evenodd" d="M21.7547 16.1848C21.2377 16.1848 20.7087 16.3168 20.1807 16.5838C17.8087 17.7888 16.4407 20.1698 16.5217 22.9528C16.5647 24.4028 16.9007 25.8768 17.5227 27.3338C19.8607 32.8108 23.2857 36.9508 27.9907 39.9898C30.2187 41.4278 32.9177 42.9558 36.0407 43.3798C38.5017 43.7118 40.4757 43.1328 42.0757 41.6038C43.1867 40.5448 43.7647 39.5028 43.7967 38.5068C43.7937 37.3668 43.5457 36.8858 43.3017 36.5658C42.1317 35.0258 40.8767 33.9788 39.4657 33.3648C38.2117 32.8208 37.1947 33.0518 36.2657 34.0968C35.9337 34.4708 35.6307 34.8698 35.3257 35.2678L35.0337 35.6478C34.0087 36.9718 33.0707 37.1808 31.5767 36.4148C31.3597 36.3048 31.1467 36.1918 30.9437 36.0628C28.0757 34.2448 25.7117 31.8738 23.9167 29.0188C23.7627 28.7738 23.6357 28.5148 23.5117 28.2538L23.3957 28.0128C22.8767 26.9838 23.1437 25.8698 24.0767 25.1748C24.5777 24.8018 25.0727 24.4178 25.5597 24.0238C27.0947 22.7858 27.3147 21.5318 26.2937 19.8328C25.7677 18.9558 25.0497 18.1058 24.0367 17.1578C23.3457 16.5118 22.5657 16.1848 21.7547 16.1848ZM37.3497 46.9418C36.7737 46.9418 36.1817 46.9008 35.5737 46.8188C31.7757 46.3028 28.6577 44.5508 26.1087 42.9048C20.8757 39.5258 16.9137 34.7458 14.3307 28.6968C13.5377 26.8378 13.1077 24.9398 13.0527 23.0538C12.9327 18.9558 15.0627 15.2908 18.6097 13.4898C21.2827 12.1318 24.1977 12.5568 26.4077 14.6228C27.6627 15.7978 28.5717 16.8848 29.2697 18.0458C31.1837 21.2318 30.6257 24.3958 27.7397 26.7248C27.4827 26.9328 27.2237 27.1378 26.9627 27.3408C28.4367 29.6328 30.3517 31.5488 32.6607 33.0408C32.9757 32.6288 33.3047 32.2058 33.6717 31.7918C35.5977 29.6238 38.2147 29.0368 40.8497 30.1828C42.8197 31.0388 44.5257 32.4398 46.0657 34.4658C46.8857 35.5448 47.2677 36.8358 47.2677 38.5298V38.5728C47.2187 40.5258 46.2777 42.3908 44.4727 44.1148C42.5027 45.9948 40.1127 46.9418 37.3497 46.9418Z" fill="#364F6B"/>
<path fill-rule="evenodd" clip-rule="evenodd" d="M21.7547 16.1851C21.2377 16.1851 20.7087 16.3171 20.1807 16.5841C17.8087 17.7891 16.4407 20.1701 16.5217 22.9531C16.5647 24.4031 16.9007 25.8771 17.5227 27.3341C19.8607 32.8111 23.2857 36.9511 27.9907 39.9901C30.2187 41.4281 32.9177 42.9561 36.0407 43.3801C38.5017 43.7121 40.4757 43.1331 42.0757 41.6041C43.1867 40.5451 43.7647 39.5031 43.7967 38.5071C43.7937 37.3671 43.5457 36.8861 43.3017 36.5661C42.1317 35.0261 40.8767 33.9791 39.4657 33.3651C38.2117 32.8211 37.1947 33.0521 36.2657 34.0971C35.9337 34.4711 35.6307 34.8701 35.3257 35.2681L35.0337 35.6481C34.0087 36.9721 33.0707 37.1811 31.5767 36.4151C31.3597 36.3051 31.1467 36.1921 30.9437 36.0631C28.0757 34.2451 25.7117 31.8741 23.9167 29.0191C23.7627 28.7741 23.6357 28.5151 23.5117 28.2541L23.3957 28.0131C22.8767 26.9841 23.1437 25.8701 24.0767 25.1751C24.5777 24.8021 25.0727 24.4181 25.5597 24.0241C27.0947 22.7861 27.3147 21.5321 26.2937 19.8331C25.7677 18.9561 25.0497 18.1061 24.0367 17.1581C23.3457 16.5121 22.5657 16.1851 21.7547 16.1851Z" fill="#1BB5EC"/>
</svg>
