<svg width="58" height="42" viewBox="0 0 58 42" fill="none" xmlns="http://www.w3.org/2000/svg">
<g clip-path="url(#clip0_2_3589)">
<path fill-rule="evenodd" clip-rule="evenodd" d="M57.0041 30.4591L53.5728 8.726V8.72412C52.8434 4.106 48.7803 0.755371 43.9147 0.755371H28.9991V30.7554H35.5109C36.4878 33.9185 37.6128 42.0054 46.6503 42.0054C53.1172 42.0054 57.9603 36.4741 57.0041 30.4591Z" fill="#1BB5EC"/>
<path fill-rule="evenodd" clip-rule="evenodd" d="M46.6496 38.2549C40.9758 38.2549 40.3721 33.7999 38.6883 28.3286C38.4446 27.5411 37.7171 27.0049 36.8958 27.0049H21.1046C20.2814 27.0049 19.5558 27.5411 19.3121 28.3286C17.5927 33.9124 17.0264 38.2549 11.3508 38.2549C7.28769 38.2549 4.09456 34.8855 4.69831 31.0436L8.12956 9.31051C8.56456 6.57113 11.1239 4.50488 14.0864 4.50488H43.9139C46.8764 4.50488 49.4358 6.57113 49.8708 9.31051V9.30863L53.3021 31.0436C53.9096 34.9024 50.6921 38.2549 46.6496 38.2549ZM57.0033 30.4586L53.5721 8.72551V8.72363C52.8446 4.10738 48.7814 0.754883 43.9139 0.754883H14.0864C9.21894 0.754883 5.15581 4.10738 4.42644 8.72551L0.995187 30.4586C0.0408124 36.4811 4.88956 42.0049 11.3508 42.0049C20.3002 42.0049 21.4646 34.0755 22.4883 30.7549H35.5121C36.4871 33.9199 37.6121 42.0049 46.6496 42.0049C53.1071 42.0049 57.9596 36.4849 57.0033 30.4586Z" fill="#364F6B"/>
<path fill-rule="evenodd" clip-rule="evenodd" d="M44 13.8799C44 14.9149 43.1619 15.7549 42.125 15.7549C41.0881 15.7549 40.25 14.9149 40.25 13.8799C40.25 12.8449 41.0881 12.0049 42.125 12.0049C43.1619 12.0049 44 12.8449 44 13.8799Z" fill="#364F6B"/>
<path fill-rule="evenodd" clip-rule="evenodd" d="M44 21.3799C44 22.4149 43.1619 23.2549 42.125 23.2549C41.0881 23.2549 40.25 22.4149 40.25 21.3799C40.25 20.3449 41.0881 19.5049 42.125 19.5049C43.1619 19.5049 44 20.3449 44 21.3799Z" fill="#364F6B"/>
<path fill-rule="evenodd" clip-rule="evenodd" d="M40.25 17.6299C40.25 18.6649 39.4119 19.5049 38.375 19.5049C37.3381 19.5049 36.5 18.6649 36.5 17.6299C36.5 16.5949 37.3381 15.7549 38.375 15.7549C39.4119 15.7549 40.25 16.5949 40.25 17.6299Z" fill="#364F6B"/>
<path fill-rule="evenodd" clip-rule="evenodd" d="M47.75 17.6299C47.75 18.6649 46.9119 19.5049 45.875 19.5049C44.8381 19.5049 44 18.6649 44 17.6299C44 16.5949 44.8381 15.7549 45.875 15.7549C46.9119 15.7549 47.75 16.5949 47.75 17.6299Z" fill="#364F6B"/>
<path fill-rule="evenodd" clip-rule="evenodd" d="M30.875 17.6299H27.125C26.0881 17.6299 25.25 16.7899 25.25 15.7549C25.25 14.7199 26.0881 13.8799 27.125 13.8799H30.875C31.9119 13.8799 32.75 14.7199 32.75 15.7549C32.75 16.7899 31.9119 17.6299 30.875 17.6299Z" fill="#364F6B"/>
<path fill-rule="evenodd" clip-rule="evenodd" d="M19.625 15.7549H17.75V13.8799C17.75 12.8449 16.9119 12.0049 15.875 12.0049C14.8381 12.0049 14 12.8449 14 13.8799V15.7549H12.125C11.0881 15.7549 10.25 16.5949 10.25 17.6299C10.25 18.6649 11.0881 19.5049 12.125 19.5049H14V21.3799C14 22.4149 14.8381 23.2549 15.875 23.2549C16.9119 23.2549 17.75 22.4149 17.75 21.3799V19.5049H19.625C20.6619 19.5049 21.5 18.6649 21.5 17.6299C21.5 16.5949 20.6619 15.7549 19.625 15.7549Z" fill="#364F6B"/>
</g>
<defs>
<clipPath id="clip0_2_3589">
<rect width="58" height="42" fill="white"/>
</clipPath>
</defs>
</svg>
