<svg width="54" height="57" viewBox="0 0 54 57" fill="none" xmlns="http://www.w3.org/2000/svg">
<g clip-path="url(#clip0_2_3623)">
<path fill-rule="evenodd" clip-rule="evenodd" d="M0.75 28.3799V50.473C0.75 55.0518 5.6025 57.9355 9.56625 55.7718L50.1206 33.6786C52.2075 32.5424 53.25 30.4611 53.25 28.3799H0.75Z" fill="#1BB5EC"/>
<path fill-rule="evenodd" clip-rule="evenodd" d="M4.5 6.28644V50.4727C4.5 52.1996 6.29062 53.2814 7.77187 52.4808L48.3262 30.3877C49.8975 29.5289 49.8975 27.2302 48.3262 26.3733L7.77187 4.28019C6.28875 3.47394 4.5 4.56331 4.5 6.28644ZM0.75 50.4727V6.28644C0.75 1.70769 5.60063 -1.17606 9.56625 0.987687L50.1206 23.0808C54.2944 25.3552 54.2925 31.4058 50.1206 33.6783L9.56625 55.7714C5.60063 57.9371 0.75 55.0496 0.75 50.4727Z" fill="#364F6B"/>
</g>
<defs>
<clipPath id="clip0_2_3623">
<rect width="54" height="57" fill="white"/>
</clipPath>
</defs>
</svg>
