<svg width="361" height="40" viewBox="0 0 361 40" fill="none" xmlns="http://www.w3.org/2000/svg">
<path fill-rule="evenodd" clip-rule="evenodd" d="M79.1113 1.52757C77.884 1.52757 76.8372 1.96059 75.9709 2.82661C75.1046 3.69264 74.6714 4.73909 74.6714 5.96596C74.6714 7.19283 75.1046 8.23927 75.9709 9.1053C76.8372 9.97133 77.884 10.4043 79.1113 10.4043C80.3385 10.4043 81.3853 9.97133 82.2516 9.1053C83.118 8.23927 83.5511 7.19283 83.5511 5.96596C83.5511 4.73909 83.118 3.69264 82.2516 2.82661C81.3853 1.96059 80.3385 1.52757 79.1113 1.52757ZM87.618 38.5863H95.2704V0H87.618V38.5863ZM118.841 26.1853C118.841 24.3089 118.3 22.8053 117.229 21.6386C116.158 20.4839 114.654 19.9066 112.705 19.9066C110.756 19.9066 109.264 20.4839 108.181 21.6386C107.11 22.7933 106.569 24.3089 106.569 26.1853C106.569 28.0616 107.11 29.5772 108.181 30.7319C109.252 31.8866 110.756 32.4639 112.705 32.4639C114.654 32.4639 116.146 31.8866 117.229 30.7319C118.3 29.5772 118.841 28.0616 118.841 26.1853ZM125.423 20.8207C126.133 22.4204 126.494 24.2126 126.494 26.1853C126.494 28.1579 126.133 29.9501 125.423 31.5498C124.713 33.1495 123.726 34.5208 122.487 35.6634C121.248 36.8061 119.78 37.6842 118.095 38.2976C116.411 38.911 114.618 39.2117 112.705 39.2117C110.792 39.2117 108.999 38.911 107.315 38.2976C105.63 37.6842 104.162 36.8061 102.923 35.6634C101.684 34.5208 100.697 33.1495 99.987 31.5498C99.2771 29.9501 98.9161 28.1699 98.9161 26.1853C98.9161 24.2006 99.2771 22.4204 99.987 20.8207C100.697 19.221 101.684 17.8498 102.923 16.7071C104.162 15.5644 105.63 14.6864 107.315 14.0729C108.999 13.4595 110.792 13.1588 112.705 13.1588C114.618 13.1588 116.411 13.4595 118.095 14.0729C119.78 14.6864 121.248 15.5644 122.487 16.7071C123.726 17.8498 124.713 19.221 125.423 20.8207ZM145.336 13.1708C143.64 13.1708 142.22 13.5557 141.101 14.3135C139.982 15.0833 139.007 16.226 138.189 17.7535H138.093V13.7722H130.44V38.5742H138.093V28.218C138.093 26.9911 138.165 25.8725 138.297 24.8501C138.43 23.8277 138.73 22.9497 139.188 22.228C139.645 21.4943 140.307 20.929 141.149 20.52C142.003 20.111 143.158 19.9066 144.626 19.9066C145.204 19.9066 145.757 19.9547 146.287 20.0389C146.816 20.1231 147.345 20.2554 147.899 20.4238V13.4354C147.526 13.3392 147.117 13.267 146.672 13.231C146.226 13.1949 145.781 13.1828 145.348 13.1828L145.336 13.1708ZM75.285 38.5863H82.9375V13.7842H75.285V38.5863ZM7.96527 23.8879H23.6431V16.5387H7.96527V9.80293H24.5576V2.45374H0V38.5863H25.472V31.2371H7.96527V23.8879ZM45.5296 25.0666C44.555 24.5254 43.5202 24.1164 42.4133 23.8638C41.3063 23.6112 40.2715 23.3707 39.2969 23.1542C38.3223 22.9377 37.5282 22.673 36.9025 22.3844C36.2769 22.0957 35.964 21.6386 35.964 21.0372C35.964 20.2915 36.2648 19.7622 36.8785 19.4495C37.4921 19.1488 38.1178 18.9924 38.7675 18.9924C40.6084 18.9924 42.0884 19.6901 43.2074 21.0853L47.8999 16.4425C46.7448 15.2156 45.325 14.3616 43.6646 13.8925C41.9921 13.4114 40.3437 13.1828 38.7074 13.1828C37.4079 13.1828 36.1325 13.3392 34.8811 13.664C33.6178 13.9887 32.5108 14.4939 31.5362 15.1675C30.5616 15.8531 29.7795 16.7191 29.1899 17.7656C28.5883 18.824 28.2996 20.075 28.2996 21.5424C28.2996 23.1061 28.6124 24.357 29.2381 25.2952C29.8637 26.2334 30.6699 26.9551 31.6325 27.4602C32.6071 27.9654 33.6418 28.3503 34.7488 28.6029C35.8557 28.8555 36.8905 29.0961 37.8651 29.3126C38.8397 29.5291 39.6338 29.8057 40.2595 30.1305C40.8852 30.4552 41.21 30.9364 41.21 31.5859C41.21 32.2715 40.8491 32.7286 40.1392 32.9932C39.4293 33.2458 38.6231 33.3781 37.7448 33.3781C36.5897 33.3781 35.579 33.1495 34.7127 32.6925C33.8464 32.2354 33.0523 31.5618 32.3424 30.6718L27.698 35.8318C28.9252 37.0948 30.4172 37.9728 32.1859 38.454C33.9547 38.9471 35.7114 39.1997 37.444 39.1997C38.7675 39.1997 40.1151 39.0674 41.4748 38.8148C42.8344 38.5622 44.0617 38.1172 45.1566 37.4917C46.2395 36.8662 47.1419 36.0243 47.8397 34.9899C48.5376 33.9554 48.8865 32.6323 48.8865 31.0326C48.8865 29.4329 48.5737 28.218 47.936 27.2798C47.3103 26.3416 46.5042 25.6079 45.5416 25.0546L45.5296 25.0666ZM68.2222 25.0666C67.2476 24.5254 66.2128 24.1164 65.1059 23.8638C63.9989 23.6112 62.9641 23.3707 61.9895 23.1542C61.0149 22.9377 60.2208 22.673 59.5951 22.3844C58.9695 22.0957 58.6566 21.6386 58.6566 21.0372C58.6566 20.2915 58.9574 19.7622 59.5711 19.4495C60.1847 19.1488 60.8104 18.9924 61.4601 18.9924C63.301 18.9924 64.781 19.6901 65.9 21.0853L70.5925 16.4425C69.4374 15.2156 68.0176 14.3616 66.3572 13.8925C64.6847 13.4114 63.0363 13.1828 61.4 13.1828C60.1005 13.1828 58.8251 13.3392 57.5737 13.664C56.3104 13.9887 55.2034 14.4939 54.2288 15.1675C53.2542 15.8531 52.4721 16.7191 51.8825 17.7656C51.2809 18.824 50.9922 20.075 50.9922 21.5424C50.9922 23.1061 51.305 24.357 51.9307 25.2952C52.5563 26.2334 53.3625 26.9551 54.3251 27.4602C55.2997 27.9654 56.3344 28.3503 57.4414 28.6029C58.5483 28.8555 59.5831 29.0961 60.5577 29.3126C61.5323 29.5291 62.3264 29.8057 62.9521 30.1305C63.5778 30.4552 63.8906 30.9364 63.8906 31.5859C63.8906 32.2715 63.5296 32.7286 62.8197 32.9932C62.1099 33.2458 61.3037 33.3781 60.4254 33.3781C59.2703 33.3781 58.2596 33.1495 57.3933 32.6925C56.5269 32.2354 55.7328 31.5618 55.0229 30.6718L50.3785 35.8318C51.6058 37.0948 53.0978 37.9728 54.8665 38.454C56.6352 38.9471 58.3919 39.1997 60.1246 39.1997C61.4481 39.1997 62.7957 39.0674 64.1553 38.8148C65.5149 38.5622 66.7422 38.1172 67.8371 37.4917C68.92 36.8662 69.8224 36.0243 70.5203 34.9899C71.2182 33.9554 71.5671 32.6323 71.5671 31.0326C71.5671 29.4329 71.2543 28.218 70.6166 27.2798C69.9909 26.3416 69.1847 25.6079 68.2222 25.0546V25.0666ZM251.724 26.1853C251.724 24.3089 251.183 22.8053 250.112 21.6386C249.041 20.4839 247.537 19.9066 245.588 19.9066C243.639 19.9066 242.147 20.4839 241.076 21.6386C240.005 22.7933 239.463 24.3089 239.463 26.1853C239.463 28.0616 240.005 29.5652 241.076 30.7319C242.147 31.8866 243.651 32.4639 245.588 32.4639C247.525 32.4639 249.029 31.8866 250.112 30.7319C251.183 29.5772 251.724 28.0616 251.724 26.1853ZM258.306 20.8207C259.016 22.4204 259.377 24.2126 259.377 26.1853C259.377 28.1579 259.016 29.9501 258.306 31.5498C257.596 33.1495 256.609 34.5208 255.37 35.6634C254.131 36.8061 252.663 37.6842 250.978 38.2976C249.294 38.911 247.501 39.2117 245.588 39.2117C243.675 39.2117 241.882 38.911 240.197 38.2976C238.513 37.6842 237.045 36.8061 235.806 35.6634C234.566 34.5208 233.58 33.1495 232.87 31.5498C232.16 29.9501 231.799 28.1699 231.799 26.1853C231.799 24.2006 232.16 22.4204 232.87 20.8207C233.58 19.221 234.566 17.8498 235.806 16.7071C237.045 15.5644 238.513 14.6864 240.197 14.0849C241.882 13.4715 243.675 13.1708 245.588 13.1708C247.501 13.1708 249.294 13.4715 250.978 14.0849C252.663 14.6984 254.131 15.5764 255.37 16.7071C256.609 17.8498 257.596 19.221 258.306 20.8207ZM291.057 6.42303H283.393V13.7722H272.853V6.43505H265.2V13.7842H260.303V20.4839H265.2V31.6941C265.2 33.0533 265.429 34.208 265.886 35.1703C266.343 36.1205 266.981 36.9023 267.799 37.4917C268.617 38.0931 269.568 38.5261 270.663 38.7907C271.758 39.0674 272.949 39.1997 274.236 39.1997C275.115 39.1997 276.029 39.1516 276.944 39.0433C277.858 38.9471 278.748 38.7426 279.603 38.4299V32.055C279.266 32.3557 278.76 32.5602 278.099 32.6444C277.437 32.7286 276.895 32.7767 276.486 32.7767C275.668 32.7767 275.018 32.6684 274.525 32.4399C274.032 32.2234 273.659 31.8986 273.43 31.5017C273.19 31.0927 273.033 30.6116 272.973 30.0463C272.901 29.481 272.877 28.8675 272.877 28.1819V20.4959H283.417V31.7062C283.417 33.0654 283.645 34.2201 284.103 35.1823C284.56 36.1325 285.198 36.9144 286.016 37.5037C286.834 38.1051 287.784 38.5382 288.879 38.8028C289.974 39.0794 291.166 39.2117 292.453 39.2117C293.343 39.2117 294.246 39.1636 295.16 39.0554C296.075 38.9591 296.965 38.7547 297.819 38.4419V32.067C297.482 32.3677 296.977 32.5722 296.315 32.6564C295.653 32.7406 295.112 32.7887 294.703 32.7887C293.885 32.7887 293.235 32.6804 292.742 32.4519C292.248 32.2354 291.875 31.9106 291.647 31.5137C291.406 31.1048 291.25 30.6236 291.19 30.0583C291.117 29.493 291.093 28.8796 291.093 28.194V20.508H297.831V13.8083H291.093V6.43505L291.057 6.42303ZM326.745 19.8945C327.527 19.8945 328.261 20.075 328.934 20.4358C329.62 20.7966 330.138 21.2417 330.523 21.783L335.576 16.4785C334.385 15.2517 332.977 14.3977 331.365 13.9045C329.753 13.4114 328.212 13.1588 326.745 13.1588C324.843 13.1588 323.039 13.4595 321.354 14.0729C319.67 14.6864 318.202 15.5644 316.962 16.7071C315.723 17.8498 314.736 19.221 314.027 20.8207C313.317 22.4204 312.956 24.2126 312.956 26.1853C312.956 28.1579 313.317 29.9501 314.027 31.5498C314.736 33.1495 315.723 34.5208 316.962 35.6634C318.202 36.8061 319.67 37.6842 321.354 38.2976C323.039 38.911 324.831 39.2117 326.745 39.2117C328.212 39.2117 329.753 38.9591 331.365 38.466C332.977 37.9728 334.385 37.1188 335.576 35.892L330.523 30.5876C330.077 31.0927 329.548 31.5378 328.934 31.9106C328.321 32.2835 327.587 32.476 326.745 32.476C324.807 32.476 323.303 31.8986 322.22 30.7439C321.15 29.5892 320.608 28.0737 320.608 26.1973C320.608 24.3209 321.15 22.8174 322.22 21.6506C323.291 20.4959 324.795 19.9186 326.745 19.9186V19.8945ZM305.592 1.52757C304.365 1.52757 303.318 1.96059 302.452 2.82661C301.585 3.69264 301.152 4.73909 301.152 5.96596C301.152 7.19283 301.585 8.23927 302.452 9.1053C303.318 9.97133 304.365 10.4043 305.592 10.4043C306.819 10.4043 307.866 9.97133 308.732 9.1053C309.599 8.23927 310.032 7.19283 310.032 5.96596C310.032 4.73909 309.599 3.69264 308.732 2.82661C307.866 1.96059 306.819 1.52757 305.592 1.52757ZM301.766 38.5863H309.418V13.7842H301.766V38.5863ZM231.955 13.7842H223.425L219.189 20.52L214.798 13.7842H205.761L214.028 25.3192L204.221 38.5863H213.161L218.985 30.3229L224.399 38.5863H233.435L223.894 25.3192L231.955 13.7842ZM353.913 27.7128H352.024C351.446 27.7128 350.725 27.7369 349.858 27.785C348.992 27.8331 348.162 27.9774 347.356 28.218C346.549 28.4586 345.876 28.8194 345.31 29.2885C344.745 29.7696 344.468 30.4312 344.468 31.2732C344.468 32.1873 344.853 32.8729 345.647 33.3179C346.429 33.763 347.247 33.9795 348.102 33.9795C348.848 33.9795 349.569 33.8833 350.267 33.6788C350.965 33.4743 351.591 33.1856 352.132 32.8128C352.674 32.4399 353.107 31.9588 353.432 31.3814C353.757 30.8041 353.913 30.1185 353.913 29.3366V27.7008V27.7128ZM360.964 25.9808V38.5863H353.913V35.471H353.817C352.963 36.7941 351.831 37.7563 350.424 38.3337C349.016 38.911 347.524 39.1997 345.96 39.1997C344.805 39.1997 343.686 39.0433 342.615 38.7186C341.544 38.3938 340.593 37.9127 339.787 37.2632C338.969 36.6136 338.319 35.8198 337.85 34.8696C337.369 33.9193 337.14 32.8128 337.14 31.5498C337.14 30.1185 337.405 28.9156 337.934 27.9293C338.464 26.943 339.174 26.1251 340.076 25.4756C340.979 24.8261 342.013 24.3329 343.168 23.9721C344.323 23.6112 345.527 23.3466 346.766 23.1782C348.005 23.0098 349.245 22.9016 350.496 22.8775C351.735 22.8414 352.89 22.8294 353.937 22.8294C353.937 21.4702 353.456 20.3877 352.481 19.5938C351.507 18.8 350.364 18.391 349.04 18.391C347.717 18.391 346.634 18.6556 345.599 19.1849C344.564 19.7141 343.638 20.4358 342.819 21.3499L338.741 17.1642C340.172 15.8411 341.833 14.8427 343.746 14.1812C345.647 13.5196 347.632 13.1828 349.666 13.1828C351.916 13.1828 353.757 13.4595 355.2 14.0248C356.644 14.5901 357.799 15.408 358.678 16.5026C359.544 17.5972 360.146 18.9323 360.495 20.508C360.832 22.0957 361 23.924 361 25.9928L360.964 25.9808ZM159.245 2.45374H151.28V38.5863H173.997V31.2371H159.245V2.45374ZM193.657 13.7842H201.31V38.5863H193.958V35.2184H193.862C193.585 35.6995 193.236 36.1686 192.815 36.6497C192.394 37.1309 191.876 37.5518 191.263 37.9247C190.649 38.2976 189.951 38.6103 189.169 38.8389C188.387 39.0794 187.533 39.1997 186.618 39.1997C184.681 39.1997 183.105 38.899 181.902 38.3096C180.699 37.7202 179.76 36.8903 179.098 35.8318C178.436 34.7733 177.991 33.5344 177.775 32.1031C177.558 30.6718 177.438 29.1201 177.438 27.4602V13.7842H185.09V25.9327C185.09 26.6423 185.114 27.3881 185.162 28.1579C185.211 28.9277 185.367 29.6253 185.62 30.2748C185.872 30.9243 186.269 31.4536 186.799 31.8625C187.328 32.2715 188.086 32.476 189.073 32.476C190.06 32.476 190.866 32.2955 191.467 31.9347C192.081 31.5739 192.55 31.1048 192.875 30.5034C193.2 29.914 193.416 29.2404 193.513 28.4826C193.609 27.7369 193.669 26.9551 193.669 26.1371V13.7842H193.657Z" fill="black"/>
</svg>
