<svg width="88" height="78" viewBox="0 0 88 78" fill="none" xmlns="http://www.w3.org/2000/svg">
<path d="M87.5977 69.6211L60.7852 1.37109C60.4805 0.60938 59.7188 0 58.957 0C58.5 0 58.1953 0.30469 57.2812 0.60938C56.2148 0.91406 55.7578 1.82812 56.2148 3.35156C53.7773 4.875 47.2266 7.00781 44.7891 7.46484C44.6367 6.85547 44.4844 6.39844 43.7227 5.94141V4.875C43.7227 2.28516 41.5898 0 38.8477 0H24.2227C23.4609 0 22.5469 0.45703 21.7852 0.76172C21.1758 0.45703 20.2617 0 19.5 0H4.875C2.13281 0 0 2.28516 0 4.875V73.125C0 75.8672 2.13281 78 4.875 78H19.5C20.2617 78 21.1758 77.6953 21.9375 77.3906C22.5469 77.6953 23.4609 78 24.375 78H39C41.5898 78 43.875 75.8672 43.875 73.125V18.1289L66.8789 76.7812C67.1836 77.543 67.793 78 68.5547 78C69.0117 78 69.3164 77.8477 70.3828 77.543C71.2969 77.2383 71.9062 76.3242 71.2969 74.8008C73.8867 73.2773 80.2852 71.1445 82.875 70.6875C83.332 72.3633 84.3984 72.668 85.3125 72.3633L86.3789 71.9062C87.4453 71.6016 87.9023 70.5352 87.5977 69.6211ZM19.5 73.125H4.875V63.375H19.5V73.125ZM19.5 58.5H4.875V19.5H19.5V58.5ZM19.5 14.625H4.875V4.875H19.5V14.625ZM39 73.125H24.375V63.375H39V73.125ZM39 58.5H24.375V19.5H39V58.5ZM39 14.625H24.375V4.875H39V14.625ZM69.9258 70.6875L46.1602 11.4258C50.1211 10.8164 55.9102 8.37891 57.7383 7.46484L81.3516 66.7266C77.543 67.3359 71.6016 69.7734 69.9258 70.6875Z" fill="#124372"/>
</svg>
