<svg width="738" height="36" viewBox="0 0 738 36" fill="none" xmlns="http://www.w3.org/2000/svg">
<g clip-path="url(#clip0_0_332)">
<path d="M122.258 20.25C122.72 20.25 123.117 19.9688 123.249 19.4766L126.291 11.4609L131.845 35.0859C131.977 35.6484 132.374 35.9297 132.903 36C133.366 35.9297 133.828 35.5781 133.895 35.0859L139.316 6.1875L142.424 19.3359C142.556 19.8281 143.019 20.25 143.416 20.25H1160.59C1160.92 20.25 1161.12 19.9689 1161.12 19.6876V18.5626C1161.12 18.211 1160.92 18.0001 1160.59 18.0001L144.275 18L140.242 0.84375C140.11 0.28125 139.713 4.92e-08 139.184 0C138.721 -4.3e-08 138.258 0.351562 138.192 0.84375L132.771 29.7422L127.547 7.59375C127.415 7.10156 127.018 6.75 126.621 6.75C126.092 6.67969 125.696 6.96094 125.564 7.45312L121.596 18H0.528953C0.264477 18 2.89067e-08 18.2109 0 18.5625V19.6875C-2.3114e-08 19.9688 0.264476 20.25 0.528952 20.25H122.258Z" fill="#54585A"/>
</g>
<defs>
<clipPath id="clip0_0_332">
<rect width="738" height="36" fill="white"/>
</clipPath>
</defs>
</svg>
