<svg width="13" height="239" viewBox="0 0 13 239" fill="none" xmlns="http://www.w3.org/2000/svg">
<g clip-path="url(#clip0_0_259)">
<path d="M13 234.663C13 235.274 12.8814 235.853 12.6739 236.37C12.4516 236.886 12.1254 237.356 11.7104 237.732C11.2805 238.123 10.7765 238.421 10.1539 238.64C9.53137 238.875 8.81985 238.984 8.03422 238.984C7.24859 238.984 6.52225 238.859 5.91449 238.624C5.29192 238.374 4.7731 238.061 4.35805 237.654C3.92818 237.246 3.61689 236.777 3.40936 236.26C3.18701 235.728 3.08325 235.18 3.08325 234.6C3.08325 234.24 3.09808 233.927 3.15737 233.63C3.20184 233.348 3.26113 233.082 3.32042 232.863C3.39454 232.643 3.45383 232.455 3.52795 232.299C3.60207 232.142 3.66136 232.017 3.72065 231.939L4.53593 232.252C4.40252 232.487 4.25429 232.769 4.1357 233.113C4.00229 233.458 3.92818 233.896 3.92818 234.428C3.92818 235.023 4.03194 235.54 4.22464 235.978C4.43217 236.432 4.71381 236.792 5.08439 237.106C5.45497 237.403 5.88485 237.622 6.38884 237.779C6.89283 237.92 7.45611 237.998 8.06387 237.998C8.67162 237.998 9.26455 237.92 9.78337 237.779C10.2874 237.622 10.7321 237.403 11.073 237.106C11.4436 236.808 11.7104 236.464 11.9031 236.025C12.0958 235.602 12.1847 235.117 12.1847 234.569C12.1847 233.959 12.1254 233.458 12.0069 233.05C11.8883 232.643 11.7697 232.33 11.6511 232.127L12.4516 231.876C12.4516 231.876 12.5553 232.048 12.5998 232.205C12.6591 232.346 12.7332 232.549 12.7925 232.8C12.8518 233.035 12.9111 233.301 12.9555 233.614C13 233.927 13.0148 234.272 13.0148 234.647" fill="#153A4E"/>
<path d="M8.00456 222.858C7.35233 222.858 6.78905 222.936 6.27024 223.108C5.76625 223.265 5.32155 223.515 4.96579 223.813C4.61003 224.11 4.34321 224.471 4.15051 224.893C3.95781 225.316 3.86887 225.801 3.86887 226.334C3.86887 226.866 3.95781 227.336 4.15051 227.758C4.34321 228.181 4.61003 228.557 4.96579 228.854C5.32155 229.152 5.76625 229.387 6.27024 229.559C6.77423 229.731 7.35233 229.81 8.00456 229.81C8.65678 229.81 9.22007 229.731 9.73888 229.559C10.2429 229.387 10.6876 229.152 11.0285 228.854C11.3991 228.557 11.6659 228.197 11.8586 227.758C12.0513 227.336 12.1402 226.866 12.1402 226.334C12.1402 225.801 12.0513 225.332 11.8586 224.893C11.6511 224.471 11.3843 224.11 11.0285 223.813C10.6727 223.515 10.2429 223.281 9.73888 223.108C9.23489 222.952 8.65678 222.858 8.00456 222.858ZM8.00456 221.872C8.81984 221.872 9.54618 221.997 10.1688 222.232C10.7913 222.467 11.3101 222.795 11.7252 223.202C12.1402 223.609 12.4664 224.079 12.6591 224.611C12.8814 225.144 12.9704 225.723 12.9704 226.334C12.9704 226.944 12.8666 227.508 12.6591 228.04C12.4515 228.573 12.1402 229.058 11.7252 229.465C11.3101 229.872 10.7765 230.185 10.1688 230.436C9.54618 230.671 8.81984 230.796 8.00456 230.796C7.18928 230.796 6.46294 230.671 5.85519 230.436C5.23261 230.201 4.71379 229.872 4.29874 229.465C3.88369 229.058 3.5724 228.588 3.36488 228.04C3.15735 227.508 3.05359 226.929 3.05359 226.334C3.05359 225.739 3.15735 225.159 3.36488 224.611C3.5724 224.079 3.88369 223.594 4.29874 223.202C4.71379 222.795 5.23261 222.467 5.85519 222.232C6.47776 221.997 7.18928 221.872 8.00456 221.872Z" fill="#153A4E"/>
<path d="M11.4139 215.499C11.1767 215.593 10.8803 215.718 10.4949 215.891C10.1243 216.063 9.70922 216.251 9.26452 216.47C8.81982 216.689 8.3603 216.893 7.88596 217.112C7.41161 217.331 6.98174 217.55 6.56669 217.738C6.15164 217.942 5.79588 218.114 5.46977 218.271C5.15848 218.427 4.93613 218.537 4.80272 218.615C5.95893 218.74 7.18926 218.834 8.53818 218.897C9.8871 218.959 11.2953 219.038 12.7776 219.085V220.008C11.0433 219.93 9.38311 219.836 7.79702 219.727C6.21093 219.617 4.68413 219.492 3.24628 219.335V218.505C3.7058 218.224 4.23944 217.942 4.83237 217.629C5.44012 217.315 6.0627 217.002 6.7001 216.705C7.35232 216.407 7.98972 216.11 8.62712 215.812C9.2497 215.531 9.8278 215.28 10.3318 215.061C9.8278 214.842 9.26452 214.591 8.62712 214.294C8.00454 213.996 7.35232 213.699 6.7001 213.401C6.0627 213.088 5.44012 212.791 4.83237 212.478C4.23944 212.164 3.7058 211.867 3.24628 211.585V210.802C4.69896 210.646 6.21093 210.52 7.79702 210.411C9.38311 210.301 11.0433 210.207 12.7776 210.129V211.084C11.2953 211.131 9.8871 211.194 8.53818 211.256C7.18926 211.335 5.95893 211.413 4.80272 211.538C4.93613 211.616 5.15848 211.726 5.46977 211.883C5.78105 212.039 6.13681 212.211 6.56669 212.415C6.98174 212.618 7.41161 212.822 7.88596 213.041C8.3603 213.26 8.81982 213.48 9.26452 213.683C9.70922 213.902 10.1243 214.09 10.4949 214.247C10.8654 214.419 11.1767 214.544 11.4139 214.638V215.468V215.499Z" fill="#153A4E"/>
<path d="M3.97263 205.495C3.97263 205.839 3.97263 206.137 4.00227 206.371C4.03192 206.622 4.04674 206.825 4.06157 206.998H8.27137V205.823C8.27137 205.322 8.24173 204.868 8.18243 204.461C8.12314 204.054 8.01938 203.71 7.85632 203.412C7.69327 203.13 7.47092 202.896 7.18928 202.739C6.90763 202.582 6.53705 202.504 6.10718 202.504C5.6773 202.504 5.33637 202.582 5.06955 202.755C4.78791 202.927 4.58038 203.146 4.41733 203.428C4.25427 203.71 4.13568 204.023 4.07639 204.383C4.0171 204.743 3.98745 205.103 3.98745 205.479M3.17217 205.526C3.17217 204.179 3.42417 203.177 3.94298 202.52C4.4618 201.862 5.18814 201.533 6.122 201.533C6.67046 201.533 7.12998 201.627 7.51539 201.815C7.90079 202.003 8.19726 202.285 8.43443 202.629C8.6716 202.99 8.83466 203.428 8.93842 203.945C9.04218 204.461 9.08665 205.041 9.08665 205.682V206.966H12.7776V207.906H3.42417C3.33523 207.577 3.26111 207.201 3.21664 206.747C3.17217 206.309 3.15735 205.886 3.15735 205.51" fill="#153A4E"/>
<path d="M4.32837 197.212C5.11401 197.557 5.91446 197.885 6.74457 198.214C7.55985 198.543 8.43442 198.872 9.38311 199.216V195.161C8.43442 195.506 7.55985 195.85 6.74457 196.179C5.92929 196.508 5.11401 196.852 4.32837 197.197M12.7925 193.924C12.3181 194.112 11.8734 194.269 11.4435 194.425C11.0137 194.582 10.5838 194.723 10.1836 194.864V199.498C10.5986 199.655 11.0137 199.811 11.4435 199.968C11.8734 200.124 12.3181 200.281 12.7925 200.453V201.424C11.7993 201.064 10.8654 200.719 10.0057 200.406C9.14593 200.077 8.33066 199.78 7.57467 199.467C6.80386 199.154 6.07752 198.856 5.366 198.543C4.65449 198.23 3.95779 197.932 3.24628 197.588V196.774C3.94297 196.429 4.65449 196.116 5.366 195.819C6.0627 195.521 6.80386 195.208 7.57467 194.895C8.33066 194.598 9.14593 194.284 10.0057 193.956C10.8654 193.642 11.7845 193.282 12.7925 192.907V193.94V193.924Z" fill="#153A4E"/>
<path d="M12.7925 185.094C12.4664 185.266 12.0958 185.485 11.6659 185.751C11.236 186.018 10.7765 186.315 10.2873 186.628C9.79818 186.957 9.29419 187.301 8.77538 187.646C8.25656 188.006 7.75257 188.35 7.2634 188.711C6.77424 189.055 6.31472 189.399 5.88484 189.744C5.45497 190.073 5.08438 190.37 4.7731 190.636H12.8073V191.56H3.2463V190.824C3.76511 190.355 4.37287 189.854 5.06956 189.321C5.75143 188.789 6.44812 188.272 7.15964 187.756C7.87116 187.239 8.56785 186.769 9.2349 186.315C9.91677 185.877 10.5097 185.501 11.0137 185.219H3.2463V184.295H12.7925V185.078V185.094ZM1.98632 187.082C1.98632 187.286 1.95668 187.458 1.89738 187.63C1.83809 187.802 1.76397 187.959 1.68986 188.116C1.60092 188.288 1.54163 188.429 1.51198 188.538C1.46751 188.648 1.46751 188.742 1.46751 188.836C1.46751 189.024 1.5268 189.18 1.66021 189.29C1.79362 189.399 1.94185 189.493 2.09009 189.587L1.83809 190.104C1.7195 190.057 1.60092 189.994 1.48233 189.916C1.34892 189.838 1.23034 189.744 1.12657 189.634C1.02281 189.525 0.919049 189.399 0.859756 189.274C0.785639 189.133 0.74117 188.977 0.74117 188.789C0.74117 188.585 0.770816 188.397 0.844932 188.241C0.904225 188.069 0.978342 187.912 1.05246 187.771C1.1414 187.599 1.20069 187.442 1.24516 187.348C1.27481 187.239 1.28963 187.145 1.28963 187.051C1.28963 186.863 1.23034 186.722 1.09693 186.597C0.963518 186.487 0.830109 186.393 0.667053 186.284L0.919049 185.767C1.03763 185.814 1.1414 185.892 1.27481 185.955C1.40822 186.033 1.5268 186.127 1.63057 186.237C1.74915 186.346 1.83809 186.472 1.91221 186.613C1.98632 186.753 2.01597 186.91 2.01597 187.098" fill="#153A4E"/>
<path d="M3.24629 180.914H12.7925V181.853H3.24629V180.914ZM0.696693 179.473L2.60889 181.822L2.09008 182.276L0 180.115L0.696693 179.489V179.473Z" fill="#153A4E"/>
<path d="M4.32837 175.308C5.11401 175.653 5.91446 175.997 6.74457 176.31C7.55985 176.639 8.43442 176.968 9.38311 177.312V173.257C8.43442 173.618 7.55985 173.962 6.74457 174.291C5.92929 174.62 5.11401 174.964 4.32837 175.308ZM12.7925 172.052C12.3181 172.224 11.8734 172.396 11.4435 172.553C11.0137 172.709 10.5838 172.85 10.1836 172.991V177.626C10.5986 177.782 11.0137 177.939 11.4435 178.08C11.8734 178.236 12.3181 178.393 12.7925 178.565V179.536C11.7993 179.176 10.8654 178.831 10.0057 178.518C9.14593 178.189 8.33066 177.892 7.57467 177.579C6.80386 177.281 6.07752 176.968 5.366 176.655C4.65449 176.342 3.95779 176.029 3.24628 175.7V174.886C3.94297 174.541 4.65449 174.228 5.366 173.931C6.0627 173.633 6.80386 173.32 7.57467 173.007C8.33066 172.694 9.14593 172.381 10.0057 172.067C10.8654 171.754 11.7845 171.41 12.7925 171.018V172.052Z" fill="#153A4E"/>
<path d="M11.4139 162.251C11.1767 162.345 10.8803 162.486 10.4949 162.642C10.1243 162.814 9.70922 163.002 9.26452 163.221C8.81982 163.425 8.3603 163.644 7.88596 163.863C7.41161 164.083 6.98174 164.302 6.56669 164.49C6.15164 164.693 5.79588 164.865 5.46977 165.022C5.15848 165.179 4.93613 165.304 4.80272 165.366C5.95893 165.476 7.18926 165.586 8.53818 165.648C9.8871 165.727 11.2953 165.789 12.7776 165.836V166.744C11.0433 166.666 9.38311 166.572 7.79702 166.462C6.21093 166.368 4.68413 166.228 3.24628 166.071V165.241C3.7058 164.975 4.23944 164.678 4.83237 164.364C5.44012 164.051 6.0627 163.738 6.7001 163.441C7.35232 163.127 7.98972 162.83 8.62712 162.548C9.2497 162.251 9.8278 162 10.3318 161.781C9.8278 161.562 9.26452 161.311 8.62712 161.014C8.00454 160.732 7.35232 160.419 6.7001 160.121C6.0627 159.808 5.44012 159.511 4.83237 159.198C4.23944 158.885 3.7058 158.587 3.24628 158.321V157.538C4.69896 157.381 6.21093 157.256 7.79702 157.147C9.38311 157.037 11.0433 156.959 12.7776 156.865V157.804C11.2953 157.867 9.8871 157.929 8.53818 157.992C7.18926 158.055 5.95893 158.149 4.80272 158.274C4.93613 158.352 5.15848 158.462 5.46977 158.618C5.78105 158.775 6.13681 158.947 6.56669 159.151C6.98174 159.354 7.41161 159.558 7.88596 159.777C8.3603 159.996 8.81982 160.215 9.26452 160.419C9.70922 160.638 10.1243 160.81 10.4949 160.983C10.8654 161.155 11.1767 161.28 11.4139 161.374V162.204V162.251Z" fill="#153A4E"/>
<path d="M13 151.244C13 151.87 12.8962 152.418 12.7035 152.841C12.5108 153.295 12.244 153.655 11.9031 153.921C11.5621 154.187 11.1619 154.391 10.7024 154.516C10.2577 154.642 9.76851 154.704 9.23487 154.704H3.24628V153.765H9.13111C9.64992 153.765 10.1094 153.702 10.48 153.577C10.8654 153.452 11.1767 153.295 11.4287 153.06C11.6807 152.841 11.8586 152.575 11.9772 152.262C12.0958 151.949 12.1551 151.604 12.1551 151.228C12.1551 150.853 12.0958 150.492 11.9772 150.179C11.8586 149.866 11.6659 149.6 11.4287 149.381C11.1767 149.162 10.8654 148.989 10.48 148.864C10.1094 148.739 9.64992 148.692 9.13111 148.692H3.24628V147.753H9.2497C9.76851 147.753 10.2725 147.815 10.7172 147.94C11.1767 148.066 11.5769 148.269 11.9179 148.535C12.244 148.802 12.5108 149.177 12.7183 149.616C12.911 150.054 13.0148 150.602 13.0148 151.228" fill="#153A4E"/>
<path d="M12.7925 138.875C12.4812 139.063 12.0958 139.267 11.6659 139.533C11.236 139.799 10.7765 140.096 10.2873 140.425C9.79816 140.754 9.29417 141.083 8.77535 141.443C8.25654 141.803 7.75255 142.147 7.26338 142.508C6.77421 142.852 6.31469 143.196 5.88482 143.541C5.45494 143.87 5.08436 144.167 4.77307 144.433H12.8073V145.357H3.24628V144.621C3.76509 144.152 4.37284 143.651 5.06954 143.118C5.75141 142.586 6.4481 142.069 7.15962 141.553C7.87113 141.036 8.56783 140.566 9.2497 140.112C9.93157 139.674 10.5245 139.314 11.0285 139.032H3.24628V138.108H12.7925V138.891V138.875Z" fill="#153A4E"/>
<path d="M11.9624 134.695C11.9624 134.695 11.992 134.507 12.0068 134.272C12.0365 134.053 12.0513 133.693 12.0513 133.192C12.0513 132.503 11.9624 131.908 11.7697 131.407C11.577 130.89 11.3102 130.468 10.9692 130.123C10.6283 129.779 10.1984 129.512 9.69441 129.34C9.19042 129.168 8.62714 129.074 8.00456 129.074C7.38199 129.074 6.8187 129.152 6.32953 129.34C5.84037 129.512 5.41049 129.779 5.06956 130.123C4.72862 130.468 4.44698 130.906 4.2691 131.407C4.0764 131.924 3.98746 132.519 3.98746 133.192C3.98746 133.693 3.98746 134.053 4.03193 134.272C4.06158 134.491 4.0764 134.632 4.09122 134.695H11.9772H11.9624ZM8.00456 128.088C8.81984 128.088 9.53136 128.213 10.1391 128.479C10.7469 128.73 11.2509 129.09 11.6511 129.559C12.0513 130.014 12.3626 130.561 12.5553 131.219C12.7628 131.845 12.8666 132.566 12.8666 133.333C12.8666 133.724 12.8369 134.116 12.8073 134.538C12.7628 134.961 12.7035 135.337 12.6146 135.65H3.42418C3.33524 135.337 3.26112 134.961 3.23147 134.538C3.187 134.116 3.17218 133.708 3.17218 133.333C3.17218 132.566 3.27594 131.861 3.46865 131.219C3.66135 130.577 3.97264 130.029 4.37286 129.559C4.77309 129.105 5.29191 128.745 5.89966 128.479C6.50741 128.229 7.20411 128.088 8.01939 128.088" fill="#153A4E"/>
<path d="M12.7925 125.082H3.24628V126.021H12.7925V125.082Z" fill="#153A4E"/>
<path d="M4.32837 119.477C5.11401 119.821 5.91446 120.165 6.74457 120.479C7.55985 120.807 8.43442 121.136 9.38311 121.481V117.425C8.43442 117.77 7.55985 118.114 6.74457 118.443C5.92929 118.772 5.11401 119.116 4.32837 119.445M12.7925 116.189C12.3181 116.376 11.8734 116.533 11.4435 116.69C11.0137 116.846 10.5838 116.987 10.1836 117.128V121.762C10.5986 121.919 11.0137 122.076 11.4435 122.232C11.8734 122.373 12.3181 122.545 12.7925 122.717V123.688C11.7993 123.328 10.8654 122.984 10.0057 122.67C9.14593 122.342 8.33066 122.029 7.57467 121.715C6.80386 121.418 6.07752 121.105 5.366 120.792C4.65449 120.494 3.95779 120.165 3.24628 119.837V119.022C3.94297 118.694 4.65449 118.365 5.366 118.067C6.0627 117.77 6.80386 117.472 7.57467 117.159C8.33066 116.846 9.14593 116.533 10.0057 116.22C10.8654 115.907 11.7845 115.547 12.7925 115.171V116.204V116.189Z" fill="#153A4E"/>
<path d="M11.9772 108.423H12.7925V113.824H3.24628V112.901H11.9772V108.423Z" fill="#153A4E"/>
<path d="M11.9624 102.88C11.9624 102.88 11.992 102.677 12.0068 102.458C12.0365 102.238 12.0513 101.878 12.0513 101.377C12.0513 100.688 11.9624 100.093 11.7697 99.5768C11.577 99.0601 11.3102 98.6218 10.9692 98.293C10.6283 97.9485 10.1984 97.6823 9.69441 97.5101C9.19042 97.3379 8.62714 97.244 8.00456 97.244C7.38199 97.244 6.8187 97.3222 6.32953 97.5101C5.84037 97.6823 5.41049 97.9485 5.06956 98.293C4.72862 98.6374 4.44698 99.0758 4.2691 99.5768C4.0764 100.093 3.98746 100.688 3.98746 101.377C3.98746 101.878 3.98746 102.223 4.03193 102.458C4.06158 102.677 4.0764 102.818 4.09122 102.88H11.9772H11.9624ZM8.00456 96.2732C8.81984 96.2732 9.53136 96.3985 10.1391 96.649C10.7469 96.8995 11.2509 97.2596 11.6511 97.7293C12.0513 98.199 12.3626 98.747 12.5553 99.3733C12.7628 100.015 12.8666 100.72 12.8666 101.487C12.8666 101.878 12.8369 102.27 12.8073 102.692C12.7628 103.115 12.7035 103.491 12.6146 103.804H3.42418C3.33524 103.491 3.26112 103.115 3.23147 102.692C3.187 102.27 3.17218 101.878 3.17218 101.487C3.17218 100.72 3.27594 100.015 3.46865 99.3733C3.66135 98.7314 3.97264 98.1834 4.37286 97.7293C4.77309 97.2753 5.29191 96.9152 5.89966 96.649C6.50741 96.3985 7.20411 96.2732 8.01939 96.2732" fill="#153A4E"/>
<path d="M12.7925 94.1909H3.24628V88.711H4.06156V93.2672H7.36714V89.2121H8.18242V93.2672H11.9772V88.3509H12.7925V94.1909Z" fill="#153A4E"/>
<path d="M12.1847 81.415C12.1847 80.6791 12.0513 80.0998 11.7696 79.6928C11.5028 79.2857 11.0581 79.0821 10.4504 79.0821C10.1094 79.0821 9.81298 79.1448 9.57581 79.27C9.33863 79.4109 9.14593 79.5832 8.98288 79.8024C8.81982 80.0216 8.68641 80.2721 8.56783 80.5539C8.44924 80.8357 8.33065 81.1332 8.21207 81.4463C8.04901 81.8377 7.90078 82.1822 7.7229 82.4953C7.55984 82.8084 7.36714 83.0746 7.17444 83.2938C6.96691 83.513 6.72974 83.6852 6.46292 83.7948C6.1961 83.9044 5.88482 83.9671 5.52906 83.9671C4.71378 83.9671 4.0912 83.7009 3.66133 83.1686C3.24627 82.6362 3.02393 81.8847 3.02393 80.9296C3.02393 80.6791 3.03875 80.4286 3.08322 80.1781C3.11287 79.9276 3.17216 79.6928 3.23145 79.4736C3.29074 79.27 3.36486 79.0665 3.42415 78.8943C3.49827 78.722 3.57239 78.5655 3.66133 78.4559L4.44696 78.7847C4.25426 79.0508 4.10602 79.364 4.00226 79.7554C3.8985 80.1311 3.83921 80.5382 3.83921 80.9923C3.83921 81.2897 3.86885 81.5716 3.92814 81.8221C3.98744 82.0726 4.0912 82.2918 4.22461 82.4797C4.35802 82.6675 4.52108 82.8085 4.7286 82.918C4.93613 83.0276 5.1733 83.0746 5.45494 83.0746C5.73658 83.0746 6.0034 83.0276 6.1961 82.918C6.40363 82.8085 6.56669 82.6519 6.71492 82.464C6.84833 82.2605 6.99656 82.0413 7.11515 81.7595C7.23373 81.5089 7.35232 81.2115 7.48573 80.8983C7.64878 80.5226 7.79702 80.1625 7.96007 79.8337C8.12313 79.5049 8.30101 79.2074 8.50853 78.9569C8.71606 78.7064 8.98288 78.5028 9.27934 78.3619C9.57581 78.221 9.94639 78.1427 10.3911 78.1427C11.2508 78.1427 11.8882 78.4402 12.3329 79.0352C12.7628 79.6301 12.9852 80.4443 12.9852 81.462C12.9852 81.8221 12.9703 82.1509 12.911 82.464C12.8666 82.7615 12.8073 83.0276 12.7332 83.2782C12.6739 83.513 12.5998 83.7165 12.5256 83.8731C12.4515 84.0453 12.3922 84.1706 12.3329 84.2645L11.5177 83.9671C11.5769 83.8731 11.6362 83.7635 11.7104 83.6069C11.7845 83.4504 11.8586 83.2625 11.9179 83.059C11.9772 82.8554 12.0513 82.6206 12.0958 82.3544C12.1402 82.0882 12.1699 81.7908 12.1699 81.4776" fill="#153A4E"/>
<path d="M12.7925 76.3735H3.24628V70.8937H4.06156V75.4498H7.36714V71.3947H8.18242V75.4498H11.9772V70.5336H12.7925V76.3735Z" fill="#153A4E"/>
<path d="M8.27138 63.081V62.1416H12.5257C12.5998 62.3138 12.6887 62.6582 12.8073 63.1749C12.9259 63.6759 12.9852 64.3022 12.9852 65.0381C12.9852 65.6643 12.8814 66.2436 12.6591 66.776C12.4367 67.3083 12.1254 67.7623 11.6955 68.1538C11.2805 68.5452 10.7617 68.8426 10.1391 69.0775C9.53135 69.2967 8.80501 69.4063 8.01938 69.4063C7.23375 69.4063 6.50741 69.281 5.89966 69.0462C5.27708 68.8113 4.75826 68.4825 4.34321 68.0755C3.92816 67.6684 3.60205 67.1987 3.3797 66.6507C3.15735 66.1027 3.05359 65.5391 3.05359 64.9128C3.05359 64.2083 3.12771 63.629 3.27594 63.1749C3.42417 62.7209 3.5724 62.3921 3.70581 62.1729L4.50627 62.486C4.31357 62.7365 4.16533 63.081 4.06157 63.5194C3.94298 63.9577 3.88369 64.4275 3.88369 64.9441C3.88369 65.4138 3.97263 65.8679 4.15051 66.2906C4.32839 66.7133 4.58038 67.0734 4.93614 67.3866C5.2919 67.6997 5.72178 67.9346 6.22577 68.1224C6.74458 68.3103 7.33751 68.3886 8.01938 68.3886C8.65678 68.3886 9.22007 68.3103 9.73888 68.1694C10.2429 68.0285 10.6876 67.7937 11.0433 67.4962C11.4139 67.1987 11.6807 66.8229 11.8734 66.4002C12.0661 65.9618 12.1551 65.4451 12.1551 64.8815C12.1551 64.4118 12.1254 64.0204 12.081 63.7072C12.0365 63.3941 11.992 63.1749 11.9327 63.0653H8.27138V63.081Z" fill="#153A4E"/>
<path d="M13 56.5521C13 57.1784 12.8962 57.7264 12.7035 58.1648C12.5108 58.6031 12.244 58.9633 11.9031 59.2451C11.5621 59.5269 11.1619 59.7148 10.7024 59.84C10.2577 59.9653 9.76851 60.0279 9.23487 60.0279H3.24628V59.0885H9.13111C9.64992 59.0885 10.1094 59.0259 10.48 58.9006C10.8654 58.7754 11.1767 58.6031 11.4287 58.384C11.6807 58.1648 11.8586 57.8986 11.9772 57.5855C12.0958 57.2723 12.1551 56.9279 12.1551 56.5521C12.1551 56.1764 12.0958 55.8162 11.9772 55.5031C11.8586 55.19 11.6659 54.9238 11.4287 54.7046C11.1767 54.4854 10.8654 54.3132 10.48 54.1879C10.1094 54.0627 9.64992 54.0001 9.13111 54.0001H3.24628V53.0607H9.2497C9.76851 53.0607 10.2725 53.1233 10.7172 53.2485C11.1767 53.3738 11.5769 53.5773 11.9179 53.8435C12.244 54.1253 12.5108 54.4854 12.7183 54.9238C12.911 55.3622 13.0148 55.9102 13.0148 56.5365" fill="#153A4E"/>
<path d="M3.97263 48.1601C3.97263 48.5046 3.97263 48.802 4.00227 49.0682C4.0171 49.3344 4.04674 49.5536 4.06157 49.7258H8.12314V48.4263C8.12314 48.0035 8.10832 47.5965 8.06385 47.205C8.01938 46.8293 7.93044 46.5005 7.78221 46.203C7.6488 45.9212 7.44127 45.702 7.17445 45.5298C6.90763 45.3732 6.53705 45.2949 6.07753 45.2949C5.66248 45.2949 5.30672 45.3732 5.02508 45.5298C4.75826 45.702 4.53591 45.9055 4.37286 46.1717C4.2098 46.4379 4.10604 46.7353 4.04674 47.0798C3.98745 47.4242 3.9578 47.7843 3.9578 48.1444M6.09235 44.3085C6.80387 44.3085 7.36715 44.4964 7.78221 44.8722C8.18243 45.248 8.49372 45.7333 8.6716 46.3439C8.8643 46.203 9.10148 46.0151 9.41276 45.7803C9.72405 45.5454 10.065 45.3106 10.4356 45.0601C10.8061 44.8252 11.1916 44.5747 11.6066 44.3399C12.0068 44.105 12.3922 43.9015 12.7628 43.7449V44.7313C12.3922 44.9348 12.0217 45.1384 11.6511 45.3575C11.2805 45.5767 10.9247 45.8116 10.5838 46.0308C10.2429 46.2656 9.93158 46.5005 9.63511 46.7197C9.33865 46.9389 9.08665 47.1268 8.8643 47.299C8.89395 47.5965 8.90877 47.8783 8.90877 48.1758V49.7101H12.7628V50.6495H3.42417C3.3204 50.3207 3.26111 49.9293 3.21664 49.4909C3.17217 49.0525 3.15735 48.6455 3.15735 48.254C3.15735 46.9545 3.40934 45.9682 3.89851 45.2949C4.38768 44.6373 5.12884 44.3085 6.10718 44.3085" fill="#153A4E"/>
<path d="M8.00456 34.6483C7.35233 34.6483 6.78905 34.7266 6.27024 34.8989C5.76625 35.0554 5.32155 35.2903 4.96579 35.6034C4.61003 35.9009 4.34321 36.261 4.15051 36.6837C3.95781 37.1065 3.86887 37.5918 3.86887 38.1241C3.86887 38.6565 3.95781 39.1262 4.15051 39.5489C4.34321 39.9716 4.61003 40.3317 4.96579 40.6292C5.32155 40.9267 5.76625 41.1615 6.27024 41.3338C6.77423 41.506 7.35233 41.5843 8.00456 41.5843C8.65678 41.5843 9.22007 41.506 9.73888 41.3338C10.2429 41.1772 10.6876 40.9267 11.0285 40.6292C11.3991 40.3317 11.6659 39.9716 11.8586 39.5489C12.0513 39.1262 12.1402 38.6565 12.1402 38.1241C12.1402 37.5918 12.0513 37.1221 11.8586 36.6837C11.6511 36.261 11.3843 35.9009 11.0285 35.6034C10.6727 35.3059 10.2429 35.0711 9.73888 34.8989C9.23489 34.7266 8.65678 34.6483 8.00456 34.6483ZM8.00456 33.662C8.81984 33.662 9.54618 33.7716 10.1688 34.0221C10.7913 34.2569 11.3101 34.5857 11.7252 34.9928C12.1402 35.3999 12.4664 35.8696 12.6591 36.4019C12.8814 36.9342 12.9704 37.5135 12.9704 38.1241C12.9704 38.7348 12.8666 39.2984 12.6591 39.8307C12.4515 40.3787 12.1402 40.8484 11.7252 41.2555C11.3101 41.6626 10.7765 41.9757 10.1688 42.2262C9.54618 42.4611 8.81984 42.5707 8.00456 42.5707C7.18928 42.5707 6.46294 42.4454 5.85519 42.2262C5.23261 41.9914 4.71379 41.6626 4.29874 41.2555C3.88369 40.8484 3.5724 40.3787 3.36488 39.8307C3.15735 39.2984 3.05359 38.7191 3.05359 38.1241C3.05359 37.5292 3.15735 36.9499 3.36488 36.4019C3.5724 35.8696 3.88369 35.3999 4.29874 34.9928C4.71379 34.5857 5.23261 34.2726 5.85519 34.0221C6.47776 33.7872 7.18928 33.662 8.00456 33.662Z" fill="#153A4E"/>
<path d="M12.1847 29.5286C12.1847 28.7927 12.0513 28.2134 11.7696 27.8064C11.5028 27.3993 11.0581 27.1801 10.4504 27.1801C10.1094 27.1801 9.81298 27.2427 9.57581 27.3836C9.33863 27.5245 9.14593 27.6968 8.98288 27.916C8.81982 28.1352 8.68641 28.3857 8.56783 28.6675C8.44924 28.9493 8.33065 29.2468 8.21207 29.5599C8.04901 29.9513 7.90078 30.3114 7.7229 30.6089C7.55984 30.922 7.36714 31.1882 7.17444 31.4074C6.96691 31.6266 6.72974 31.7988 6.46292 31.9084C6.1961 32.018 5.88482 32.0806 5.52906 32.0806C4.71378 32.0806 4.0912 31.7988 3.66133 31.2665C3.24627 30.7185 3.02393 29.9826 3.02393 29.0119C3.02393 28.7614 3.03875 28.5109 3.08322 28.2604C3.11287 28.0099 3.17216 27.775 3.23145 27.5559C3.29074 27.3367 3.36486 27.1488 3.42415 26.9766C3.49827 26.7887 3.57239 26.6478 3.66133 26.5382L4.44696 26.867C4.25426 27.1331 4.10602 27.4463 4.00226 27.8377C3.8985 28.2134 3.83921 28.6205 3.83921 29.0589C3.83921 29.3564 3.86885 29.6382 3.92814 29.8887C3.98744 30.1392 4.0912 30.3584 4.22461 30.5463C4.35802 30.7342 4.52108 30.8751 4.7286 30.9847C4.93613 31.0943 5.1733 31.1412 5.45494 31.1412C5.73658 31.1412 6.0034 31.0943 6.1961 30.9847C6.40363 30.8751 6.56669 30.7342 6.71492 30.5306C6.84833 30.3427 6.99656 30.1079 7.11515 29.8417C7.23373 29.5756 7.35232 29.2937 7.48573 28.9806C7.64878 28.6049 7.79702 28.2447 7.96007 27.916C8.12313 27.5872 8.30101 27.2897 8.50853 27.0392C8.71606 26.7887 8.98288 26.6008 9.27934 26.4442C9.57581 26.3033 9.94639 26.225 10.3911 26.225C11.2508 26.225 11.8882 26.5225 12.3329 27.1331C12.7628 27.7281 12.9852 28.5422 12.9852 29.5599C12.9852 29.9357 12.9703 30.2645 12.911 30.5619C12.8666 30.8594 12.8073 31.1412 12.7332 31.3761C12.6739 31.6109 12.5998 31.8145 12.5256 31.971C12.4515 32.1276 12.3922 32.2685 12.3329 32.3625L11.5177 32.0493C11.5769 31.9554 11.6362 31.8458 11.7104 31.6892C11.7845 31.5327 11.8586 31.3448 11.9179 31.1412C11.9772 30.922 12.0513 30.6872 12.0958 30.421C12.1402 30.1549 12.1699 29.873 12.1699 29.5443" fill="#153A4E"/>
<path d="M12.1847 19.3204C12.1847 18.5845 12.0513 18.0052 11.7696 17.5982C11.5028 17.1911 11.0581 16.9876 10.4504 16.9876C10.1094 16.9876 9.81298 17.0502 9.57581 17.1911C9.33863 17.332 9.14593 17.5042 8.98288 17.7234C8.81982 17.9426 8.68641 18.1931 8.56783 18.4749C8.44924 18.7568 8.33065 19.0542 8.21207 19.3674C8.04901 19.7588 7.90078 20.1189 7.7229 20.4164C7.55984 20.7295 7.36714 20.9957 7.17444 21.2149C6.96691 21.4341 6.72974 21.6063 6.46292 21.7159C6.1961 21.8255 5.88482 21.8881 5.52906 21.8881C4.71378 21.8881 4.0912 21.6219 3.66133 21.074C3.24627 20.526 3.02393 19.7901 3.02393 18.8194C3.02393 18.5689 3.03875 18.3184 3.08322 18.0679C3.11287 17.8174 3.17216 17.5825 3.23145 17.3633C3.29074 17.1441 3.36486 16.9562 3.42415 16.784C3.49827 16.6118 3.57239 16.4552 3.66133 16.3456L4.44696 16.6744C4.25426 16.9406 4.10602 17.2694 4.00226 17.6451C3.8985 18.0209 3.83921 18.428 3.83921 18.882C3.83921 19.1795 3.86885 19.4613 3.92814 19.7118C3.98744 19.9623 4.0912 20.1815 4.22461 20.3694C4.35802 20.5416 4.52108 20.6982 4.7286 20.7921C4.93613 20.9017 5.1733 20.9487 5.45494 20.9487C5.73658 20.9487 6.0034 20.9017 6.1961 20.7921C6.38881 20.6825 6.56669 20.5416 6.71492 20.3381C6.84833 20.1502 6.99656 19.9154 7.11515 19.6492C7.23373 19.3987 7.35232 19.1012 7.48573 18.7881C7.64878 18.4123 7.79702 18.0679 7.96007 17.7234C8.12313 17.3946 8.30101 17.0972 8.50853 16.8466C8.71606 16.5961 8.98288 16.4083 9.27934 16.2517C9.57581 16.1108 9.94639 16.0325 10.3911 16.0325C11.2508 16.0325 11.8882 16.33 12.3329 16.9406C12.7628 17.5355 12.9852 18.3497 12.9852 19.3674C12.9852 19.7275 12.9703 20.0719 12.911 20.3694C12.8666 20.6669 12.8073 20.9331 12.7332 21.1836C12.6739 21.4184 12.5998 21.6219 12.5256 21.7942C12.4515 21.9507 12.3922 22.0916 12.3329 22.1699L11.5177 21.8725C11.5769 21.7785 11.6362 21.6533 11.7104 21.5123C11.7845 21.3558 11.8586 21.1679 11.9179 20.9644C11.9772 20.7452 12.0513 20.526 12.0958 20.2598C12.1402 19.9936 12.1699 19.7118 12.1699 19.383" fill="#153A4E"/>
<path d="M12.1995 12.8542C12.4071 12.8542 12.5849 12.9168 12.7332 13.0577C12.8814 13.183 12.9555 13.3865 12.9555 13.6057C12.9555 13.8249 12.8814 14.0284 12.7332 14.1693C12.5849 14.2946 12.4071 14.3729 12.1995 14.3729C11.992 14.3729 11.8141 14.3103 11.6659 14.1693C11.5177 14.0284 11.4435 13.8406 11.4435 13.6057C11.4435 13.3709 11.5177 13.183 11.6659 13.0577C11.8141 12.9168 11.992 12.8542 12.1995 12.8542Z" fill="#153A4E"/>
<path d="M4.32837 7.21775C5.11401 7.54655 5.91446 7.89099 6.74457 8.21978C7.55985 8.54858 8.43442 8.89302 9.38311 9.23747V5.18238C8.43442 5.54248 7.55985 5.88693 6.74457 6.21572C5.92929 6.54451 5.11401 6.88896 4.32837 7.23341M12.7925 3.96115C12.3181 4.14903 11.8734 4.3056 11.4435 4.46217C11.0137 4.61874 10.5838 4.75965 10.1836 4.90056V9.53495C10.5986 9.69152 11.0137 9.84808 11.4435 10.0047C11.8734 10.1612 12.3181 10.3178 12.7925 10.49V11.4607C11.7993 11.1006 10.8654 10.7562 10.0057 10.443C9.14593 10.1142 8.33066 9.80111 7.57467 9.48798C6.80386 9.1905 6.07752 8.87737 5.366 8.56423C4.65449 8.26675 3.95779 7.93796 3.24628 7.60917V6.79502C3.94297 6.45057 4.65449 6.13744 5.366 5.83996C6.0627 5.54248 6.80386 5.22935 7.57467 4.93187C8.33066 4.61874 9.14593 4.3056 10.0057 3.99247C10.8654 3.67933 11.7845 3.31923 12.7925 2.94347V3.97681V3.96115Z" fill="#153A4E"/>
<path d="M12.1995 0C12.4071 0 12.5849 0.0626269 12.7332 0.187881C12.8814 0.328791 12.9555 0.501015 12.9555 0.735866C12.9555 0.970717 12.8814 1.1586 12.7332 1.29951C12.5849 1.44042 12.4071 1.50305 12.1995 1.50305C11.992 1.50305 11.8141 1.44042 11.6659 1.29951C11.5177 1.1586 11.4435 0.986374 11.4435 0.735866C11.4435 0.485359 11.5177 0.313135 11.6659 0.187881C11.8141 0.0626269 11.992 0 12.1995 0Z" fill="#153A4E"/>
</g>
<defs>
<clipPath id="clip0_0_259">
<rect width="13" height="239" fill="white"/>
</clipPath>
</defs>
</svg>
