<svg width="1035" height="36" viewBox="0 0 1035 36" fill="none" xmlns="http://www.w3.org/2000/svg">
<path d="M30.2248 20.0311C30.6722 20.0311 31.0557 19.7616 31.1835 19.2899L34.1237 11.6082L39.4925 34.2489C39.6203 34.7879 40.0038 35.0575 40.5151 35.1249C40.9625 35.0575 41.41 34.7206 41.4739 34.2489L46.7149 6.55457L49.7189 19.1551C49.8467 19.6268 50.2941 20.0311 50.6777 20.0311H1033.95C1034.27 20.0311 1034.46 19.7617 1034.46 19.4922V18.414C1034.46 18.0771 1034.27 17.875 1033.95 17.875L51.5086 17.8749L47.6097 1.43347C47.4819 0.894409 47.0984 0.624878 46.5871 0.624878C46.1397 0.624878 45.6922 0.961792 45.6283 1.43347L40.3873 29.1278L35.338 7.90222C35.2102 7.43054 34.8267 7.09363 34.4432 7.09363C33.9318 7.02625 33.5484 7.29578 33.4205 7.76745L29.5857 17.8749H0.511322C0.255661 17.8749 1.17345e-07 18.077 8.94018e-08 18.4139L0 19.4921C-2.23436e-08 19.7616 0.25566 20.0311 0.511321 20.0311H30.2248Z" fill="#3DAE2B"/>
</svg>
