<svg width="21" height="37" viewBox="0 0 21 37" fill="none" xmlns="http://www.w3.org/2000/svg">
<circle cx="10.5" cy="10.5" r="10.5" fill="#DDDDDD"/>
<path d="M9.69194 12.5455V12.4943C9.69762 11.9517 9.75444 11.5199 9.86239 11.1989C9.97035 10.8778 10.1238 10.6179 10.3226 10.419C10.5215 10.2202 10.7601 10.0369 11.0385 9.86932C11.2061 9.76705 11.3567 9.64631 11.4902 9.5071C11.6238 9.36506 11.7289 9.2017 11.8056 9.01705C11.8851 8.83239 11.9249 8.62784 11.9249 8.40341C11.9249 8.125 11.8596 7.88352 11.7289 7.67898C11.5982 7.47443 11.4235 7.31676 11.2047 7.20597C10.986 7.09517 10.7431 7.03977 10.476 7.03977C10.2431 7.03977 10.0186 7.08807 9.80273 7.18466C9.58683 7.28125 9.40643 7.43324 9.26154 7.64062C9.11665 7.84801 9.03285 8.11932 9.01012 8.45455H7.93626C7.95898 7.97159 8.08398 7.55824 8.31126 7.21449C8.54137 6.87074 8.84393 6.60795 9.21893 6.42614C9.59677 6.24432 10.0158 6.15341 10.476 6.15341C10.976 6.15341 11.4107 6.25284 11.78 6.4517C12.1522 6.65057 12.4391 6.9233 12.6408 7.26989C12.8453 7.61648 12.9476 8.01136 12.9476 8.45455C12.9476 8.76705 12.8993 9.04972 12.8027 9.30256C12.709 9.5554 12.5726 9.78125 12.3936 9.98011C12.2175 10.179 12.0044 10.3551 11.7544 10.5085C11.5044 10.6648 11.3042 10.8295 11.1536 11.0028C11.003 11.1733 10.8936 11.3764 10.8255 11.6122C10.7573 11.848 10.7203 12.142 10.7147 12.4943V12.5455H9.69194ZM10.2374 15.0682C10.0272 15.0682 9.84677 14.9929 9.6962 14.8423C9.54563 14.6918 9.47035 14.5114 9.47035 14.3011C9.47035 14.0909 9.54563 13.9105 9.6962 13.7599C9.84677 13.6094 10.0272 13.5341 10.2374 13.5341C10.4476 13.5341 10.628 13.6094 10.7786 13.7599C10.9292 13.9105 11.0044 14.0909 11.0044 14.3011C11.0044 14.4403 10.9689 14.5682 10.8979 14.6847C10.8297 14.8011 10.7374 14.8949 10.6209 14.9659C10.5073 15.0341 10.3794 15.0682 10.2374 15.0682Z" fill="white"/>
</svg>
