<svg width="100" height="100" viewBox="0 0 100 100" fill="none" xmlns="http://www.w3.org/2000/svg">
<path d="M50 100C22.3786 100 0 77.6214 0 50C0 22.3786 22.3786 0 50 0C77.6214 0 100 22.3786 100 50C100 77.6214 77.6214 100 50 100Z" fill="white"/>
<path d="M49.4757 21.9923C35.6788 21.9923 24.2826 32.3952 22.7097 45.7506C31.4846 44.0122 40.4801 43.1292 49.4757 43.1292C58.4713 43.1292 67.4669 44.0122 76.2417 45.7506C74.6689 32.3952 63.2726 21.9923 49.4757 21.9923Z" fill="#43B12E"/>
<path d="M50 0C22.3786 0 0 22.3786 0 50C0 77.6214 22.4062 100 50 100C77.5938 100 100 77.5938 100 50C100 22.4062 77.5938 0 50 0ZM81.7053 52.3179L78.5044 51.6004C69.8951 49.6689 61.0099 48.6203 52.1247 48.4547V75.883C52.1247 78.2009 54.0011 80.0773 56.319 80.0773C58.6369 80.0773 60.5132 78.2009 60.5132 75.883C60.5132 74.4205 61.6998 73.2616 63.1347 73.2616C64.5695 73.2616 65.7561 74.4481 65.7561 75.883C65.7561 81.0982 61.5342 85.3201 56.319 85.3201C51.1038 85.3201 46.8819 81.0982 46.8819 75.883V48.4547C37.9967 48.6203 29.1115 49.6689 20.5022 51.6004L17.3013 52.3179V48.9514C17.3013 31.181 31.7605 16.7495 49.5033 16.7495C67.2461 16.7495 81.7053 31.181 81.7053 48.9514V52.3179Z" fill="#43B12E"/>
</svg>
