<svg width="1982" height="443" viewBox="0 0 1982 443" fill="none" xmlns="http://www.w3.org/2000/svg">
<path d="M1735.97 170.334V128.134H1693.8V87.9673H1735.97V44.2412H1774.58V87.9673H1820.3V128.134H1774.58V169.826" fill="#3DB2C0"/>
<path d="M294.671 97.1187C305.848 103.22 314.993 112.372 321.597 124.066C328.202 136.269 331.25 150.505 331.25 167.792V277.615H300.768V172.368C300.768 154.064 296.195 139.828 287.051 129.659C277.906 119.999 265.714 114.914 249.965 114.914C234.215 114.914 221.006 119.999 211.862 130.167C202.209 140.336 197.636 155.589 197.636 174.91V277.615H167.155V172.368C167.155 154.064 162.582 139.828 153.438 129.659C144.293 119.999 132.1 114.914 116.351 114.914C100.602 114.914 87.393 119.999 78.2487 130.167C68.5957 140.336 64.0235 155.589 64.0235 174.91V277.615H33.0333V91.5257H64.0235V118.473C70.1198 108.813 78.2487 101.186 88.4091 96.1018C98.5701 91.0179 110.255 88.4756 122.447 88.4756C138.196 88.4756 151.914 92.0341 163.598 99.1526C175.792 106.271 184.428 116.439 190.524 130.167C195.604 116.948 204.241 106.779 216.434 99.661C228.627 92.5426 241.836 88.984 256.569 88.984C270.794 88.4756 283.495 91.5257 294.671 97.1187Z" fill="#37286F"/>
<path d="M499.409 140.845C494.329 132.201 487.217 126.1 478.072 121.524C468.927 116.948 459.274 114.914 448.606 114.914C432.857 114.914 419.648 119.999 408.979 129.659C397.802 139.828 391.706 153.556 390.182 170.843H507.538C507.538 159.149 504.49 148.98 499.409 140.845ZM538.02 196.265H389.674C390.69 214.569 397.294 228.805 408.471 238.974C419.648 249.143 433.872 254.227 450.13 254.227C463.339 254.227 474.515 251.176 483.66 245.076C492.805 238.974 498.901 230.33 502.458 220.162H535.48C530.399 237.957 520.747 252.702 505.506 263.888C490.772 275.073 471.975 280.666 450.13 280.666C432.349 280.666 416.599 276.599 402.882 268.972C389.166 260.837 377.989 249.651 370.368 235.415C362.24 220.67 358.683 203.892 358.683 184.571C358.683 165.25 362.748 148.472 370.368 134.235C377.989 119.999 388.658 108.813 402.882 100.678C416.599 93.0511 432.857 88.9841 450.638 88.9841C468.927 88.9841 483.66 93.0511 497.377 100.678C511.094 108.305 521.255 118.982 528.875 132.201C535.988 145.929 540.052 160.674 540.052 177.961C539.036 183.554 539.036 189.655 538.02 196.265Z" fill="#37286F"/>
<path d="M705.163 147.454C699.573 137.286 691.956 129.15 682.303 123.557C672.651 117.965 661.981 115.423 650.804 115.423C639.119 115.423 628.959 117.965 619.306 123.557C609.653 129.15 602.032 136.777 596.445 147.454C590.856 157.623 587.808 170.334 587.808 184.062C587.808 198.298 590.856 210.501 596.445 221.178C602.032 231.856 609.653 239.482 619.306 245.075C628.959 250.668 639.119 253.21 650.804 253.21C662.49 253.21 672.651 250.668 682.303 245.075C691.956 239.482 699.573 231.347 705.163 221.178C710.752 210.501 713.797 198.298 713.797 184.57C713.295 170.334 710.752 158.131 705.163 147.454ZM567.486 133.727C575.107 119.49 585.775 108.304 598.985 100.169C612.194 92.0342 627.434 88.475 644.2 88.475C658.424 88.475 672.142 92.0342 684.332 98.6442C696.528 105.253 706.18 113.897 712.787 125.083V26.4453H743.772V277.615H712.787V242.533C706.689 253.718 697.545 262.87 685.858 269.989C673.669 277.106 659.949 280.666 643.692 280.666C627.434 280.666 612.194 276.598 598.985 268.463C585.267 260.328 575.107 249.143 567.486 234.397C559.866 219.653 555.802 202.874 555.802 184.062C556.31 165.25 559.866 148.471 567.486 133.727Z" fill="#37286F"/>
<path d="M815.408 91.5259V277.615H784.416V91.5259H815.408ZM785.942 55.4268C781.879 51.3592 779.844 46.2748 779.844 40.682C779.844 34.5807 781.879 30.0048 785.942 25.9372C790.005 21.8697 795.086 19.8359 800.675 19.8359C806.773 19.8359 811.345 21.8697 814.899 25.9372C818.962 30.0048 820.997 35.0892 820.997 40.682C820.997 46.7833 818.962 51.3592 814.899 55.4268C810.836 59.4943 806.264 61.5281 800.675 61.5281C795.086 61.5281 790.005 59.4943 785.942 55.4268Z" fill="#37286F"/>
<path d="M885.009 273.039C873.322 267.955 864.179 260.329 857.572 251.176C850.972 242.025 847.411 231.856 846.909 220.67H887.038C887.546 228.805 891.609 235.415 898.216 240.499C905.331 245.583 913.966 248.634 924.127 248.634C934.288 248.634 943.432 246.6 949.53 242.533C955.628 238.466 958.674 232.873 958.674 226.263C958.674 219.145 955.119 214.06 948.513 210.501C941.906 206.942 931.236 203.383 917.012 199.316C902.788 195.248 891.609 191.689 882.974 188.13C874.34 184.571 866.722 178.978 860.115 171.351C853.509 163.725 850.463 154.064 850.463 141.862C850.463 131.693 853.509 123.05 859.098 114.406C865.196 106.271 873.322 99.6612 884.501 95.085C895.679 90.5089 907.868 87.9673 922.093 87.9673C943.432 87.9673 960.709 93.5597 973.407 104.237C986.105 114.914 993.22 129.659 994.237 147.963H955.628C955.119 139.828 951.558 132.71 945.467 128.134C939.369 123.05 931.236 120.507 920.573 120.507C909.903 120.507 902.788 122.541 897.199 126.1C891.609 130.167 889.072 135.252 889.072 141.353C889.072 146.438 891.107 150.505 894.662 154.064C898.216 157.623 902.788 160.166 907.868 162.2C912.949 164.233 920.573 166.775 930.734 169.317C944.45 172.876 955.628 176.436 964.263 180.503C972.898 184.063 980.522 189.655 986.613 196.773C992.711 203.892 996.266 213.552 996.266 225.754C996.266 236.432 993.22 246.092 987.631 254.227C981.533 262.362 973.407 268.972 962.737 274.056C952.067 278.633 939.369 281.174 925.145 281.174C910.921 281.174 896.69 278.124 885.009 273.039Z" fill="#3DB2C0"/>
<path d="M1286.87 96.6103C1298.55 102.712 1307.69 111.863 1314.3 123.558C1320.9 135.76 1324.46 149.996 1324.46 166.775V277.107H1286.36V173.385C1286.36 156.606 1282.29 143.896 1273.65 134.743C1265.53 125.592 1253.84 121.524 1239.62 121.524C1225.39 121.524 1213.7 126.1 1205.07 134.743C1196.43 143.896 1192.37 156.606 1192.37 173.385V278.124H1154.26V173.385C1154.26 156.606 1150.2 143.896 1141.57 134.743C1133.44 125.592 1121.75 121.524 1107.53 121.524C1093.3 121.524 1081.62 126.1 1072.98 134.743C1064.35 143.896 1060.28 156.606 1060.28 173.385V278.124H1021.67V90.5088H1060.28V111.863C1066.38 104.237 1074.5 98.1357 1084.16 94.068C1093.81 90.0004 1104.48 87.4587 1115.15 87.4587C1129.88 87.4587 1143.6 90.5088 1155.28 97.1188C1166.97 103.22 1176.11 112.88 1182.21 124.575C1187.8 113.389 1196.43 104.237 1208.62 97.6272C1220.82 91.0173 1233.52 87.4587 1247.24 87.4587C1261.97 87.4587 1275.18 90.5088 1286.87 96.6103Z" fill="#3DB2C0"/>
<path d="M1498.21 150.505C1493.13 140.845 1486.01 133.726 1477.38 128.642C1468.74 123.558 1459.6 121.016 1449.44 121.016C1439.28 121.016 1430.13 123.558 1421.49 128.133C1412.86 133.218 1405.75 140.336 1400.67 149.488C1395.59 158.64 1392.53 169.826 1392.53 183.046C1392.53 195.756 1395.08 207.45 1400.67 217.111C1405.75 226.771 1412.86 234.398 1421.49 239.482C1430.13 244.566 1439.28 247.109 1448.93 247.109C1458.58 247.109 1468.23 244.566 1476.87 239.482C1485.5 234.398 1492.62 227.279 1497.7 217.619C1502.78 207.959 1505.82 196.773 1505.82 184.062C1506.33 171.351 1503.8 159.657 1498.21 150.505ZM1365.1 133.218C1372.72 118.982 1383.39 107.288 1397.11 99.6611C1410.32 91.5257 1425.56 87.4587 1441.81 87.4587C1456.55 87.4587 1469.25 90.5088 1480.43 96.1019C1491.6 101.695 1500.24 108.813 1506.84 117.456V90.5088H1545.96V277.615H1506.84V249.651C1500.24 258.295 1491.09 265.921 1479.92 271.514C1468.74 277.616 1455.53 280.157 1441.3 280.157C1425.05 280.157 1410.32 276.09 1397.11 267.955C1383.9 259.82 1373.23 248.126 1365.61 233.381C1357.99 218.636 1353.92 201.858 1353.92 183.046C1353.42 164.742 1357.48 147.963 1365.1 133.218Z" fill="#3DB2C0"/>
<path d="M1639.95 95.5934C1649.09 90.5088 1660.27 87.4587 1673.48 87.4587V127.625H1663.82C1648.59 127.625 1637.41 131.693 1629.28 139.319C1621.66 146.946 1617.6 160.166 1617.6 179.486V278.124H1578.99V90.5088H1617.6V117.456C1623.19 108.304 1630.8 100.678 1639.95 95.5934Z" fill="#3DB2C0"/>
<path d="M1813.19 346.255H1796.43C1788.29 346.255 1782.7 344.222 1779.66 339.645C1776.61 335.578 1774.58 328.459 1774.58 318.799V189.656H1735.46V318.799C1735.46 344.222 1740.03 363.034 1749.17 374.219C1758.32 385.405 1772.04 391.506 1789.31 391.506H1813.19C1811.16 384.897 1810.14 377.27 1810.14 368.626C1810.65 359.983 1811.67 352.865 1813.19 346.255Z" fill="#37286F"/>
<path d="M1848.75 376.252C1851.29 373.71 1852.3 369.642 1852.3 364.05C1852.3 358.966 1851.29 354.898 1848.75 351.847C1846.21 349.305 1843.16 347.779 1839.61 347.779C1836.05 347.779 1833 349.305 1830.46 351.847C1827.92 354.389 1826.91 358.457 1826.91 364.05C1826.91 369.134 1827.92 373.202 1830.46 376.252C1833 378.795 1836.05 380.32 1839.61 380.32C1843.16 380.32 1846.21 378.795 1848.75 376.252ZM1818.27 398.624C1812.17 395.573 1807.6 390.997 1804.04 384.896C1800.49 378.795 1798.96 372.185 1798.96 364.05C1798.96 355.915 1800.49 349.305 1804.04 343.204C1807.6 337.102 1812.17 332.526 1818.27 329.476C1824.37 326.426 1831.48 324.9 1839.1 324.9C1846.72 324.9 1853.83 326.426 1859.93 329.476C1866.03 332.526 1870.6 337.102 1874.15 343.204C1877.71 349.305 1879.23 355.915 1879.23 364.05C1879.23 372.185 1877.71 378.795 1874.15 384.896C1870.6 390.997 1866.03 395.573 1859.42 398.624C1853.32 401.675 1846.21 403.2 1838.59 403.2C1831.48 403.709 1824.37 402.183 1818.27 398.624Z" fill="#37286F"/>
<path d="M1509.89 374.727H1536.82V387.947H1493.13V305.579H1509.89V374.727Z" fill="#3DB2C0"/>
<path d="M1563.75 322.358V387.947H1546.98V322.358H1563.75ZM1548.5 311.681C1546.47 309.647 1545.45 307.613 1545.45 304.563C1545.45 302.02 1546.47 299.478 1548.5 297.444C1550.53 295.41 1553.08 294.902 1555.61 294.902C1558.66 294.902 1561.2 295.919 1562.73 297.444C1564.76 299.478 1565.77 301.512 1565.77 304.563C1565.77 307.105 1564.76 309.647 1562.73 311.681C1560.69 313.714 1558.16 314.223 1555.61 314.223C1552.57 314.731 1550.53 313.714 1548.5 311.681Z" fill="#3DB2C0"/>
<path d="M1607.44 372.694L1623.69 322.359H1641.47L1617.09 387.947H1597.27L1573.4 322.359H1590.67L1607.44 372.694Z" fill="#3DB2C0"/>
<path d="M1694.31 349.305C1694.31 345.238 1692.79 341.679 1689.73 339.136C1686.69 336.594 1683.13 335.069 1678.56 335.069C1674.49 335.069 1670.94 336.086 1668.39 338.628C1665.35 341.17 1663.82 344.729 1663.32 348.797H1694.31V349.305ZM1711.07 359.982H1663.32C1663.82 364.559 1665.35 368.626 1668.39 371.168C1671.45 373.71 1675 375.236 1679.06 375.236C1685.16 375.236 1689.73 372.693 1692.28 367.101H1710.06C1708.02 373.202 1704.47 378.795 1699.39 382.862C1693.8 386.93 1687.71 388.963 1679.57 388.963C1673.48 388.963 1667.89 387.438 1662.81 384.896C1657.73 382.354 1654.17 378.286 1651.12 373.202C1648.59 368.118 1647.06 362.016 1647.06 355.406C1647.06 348.797 1648.59 342.695 1651.12 337.611C1653.66 332.526 1657.73 328.459 1662.81 325.917C1667.89 323.375 1673.48 321.849 1680.08 321.849C1686.69 321.849 1691.77 323.375 1696.85 325.917C1701.93 328.459 1705.48 332.526 1708.53 337.102C1711.07 342.187 1712.6 347.78 1712.6 353.881C1711.58 355.915 1711.58 358.457 1711.07 359.982Z" fill="#3DB2C0"/>
<path d="M1925.47 309.647C1921.91 306.088 1916.32 306.088 1912.25 309.647C1908.7 313.206 1908.7 318.799 1912.25 322.866C1936.64 347.78 1936.13 388.455 1911.24 412.861C1909.21 414.386 1908.7 416.928 1908.7 419.47C1908.7 422.012 1909.72 424.046 1911.24 426.08C1914.8 429.639 1920.39 429.639 1924.45 426.08C1956.45 394.557 1957.47 342.187 1925.47 309.647Z" fill="#3DB2C0"/>
<path d="M1900.57 334.561C1897.01 331.002 1891.42 331.002 1887.36 334.561C1883.8 338.119 1883.8 343.712 1887.36 347.78C1898.54 358.965 1898.03 377.269 1886.85 387.947C1884.82 389.472 1884.31 392.014 1884.31 394.556C1884.31 397.098 1885.33 399.132 1886.85 401.166C1890.41 404.725 1896 404.725 1900.06 401.166C1918.35 382.862 1918.35 352.865 1900.57 334.561Z" fill="#3DB2C0"/>
</svg>
