<svg width="204" height="93" viewBox="0 0 204 93" fill="none" xmlns="http://www.w3.org/2000/svg">
<g clip-path="url(#clip0_6_374)">
<path d="M56.0081 32.7503C56.9175 32.7503 57.6713 32.6067 58.253 32.3071C58.847 31.9993 59.1419 31.4985 59.1419 30.7844C59.1419 30.4356 59.0887 30.1524 58.9904 29.9061C58.888 29.6599 58.7077 29.4341 58.4578 29.2494C58.2161 29.0524 57.8925 28.8636 57.4992 28.6831C57.11 28.5066 56.6185 28.2932 56.0286 28.051C55.5697 27.8581 55.115 27.6611 54.7013 27.4559C54.2793 27.2589 53.9066 27.0127 53.5911 26.75C53.2552 26.4873 52.9971 26.1713 52.8087 25.7896C52.6079 25.4202 52.5137 24.9606 52.5137 24.427C52.5137 23.3969 52.8947 22.5719 53.6689 21.9481C54.4268 21.3119 55.4878 21 56.8315 21C57.6959 21 58.4005 21.0698 58.9576 21.2216C59.5188 21.3653 59.8998 21.4966 60.1333 21.6033L59.7687 23.0193C59.5721 22.9208 59.2484 22.7935 58.7896 22.6212C58.3185 22.4652 57.6467 22.3831 56.7577 22.3831C56.4013 22.3831 56.0572 22.4159 55.75 22.4857C55.4264 22.5596 55.1437 22.6745 54.9061 22.8305C54.6603 22.9864 54.4719 23.1834 54.3244 23.4174C54.1769 23.6513 54.1032 23.9427 54.1032 24.2916C54.1032 24.6404 54.1687 24.9195 54.2998 25.1576C54.4309 25.4038 54.6153 25.6172 54.8692 25.806C55.1191 25.9948 55.4223 26.1672 55.7869 26.3273C56.1556 26.4955 56.5693 26.672 57.0404 26.8608C57.5238 27.0496 57.9949 27.2548 58.4455 27.4518C58.8839 27.657 59.2771 27.8992 59.613 28.1824C59.9572 28.4655 60.2275 28.8062 60.4446 29.2084C60.6495 29.6024 60.7601 30.1031 60.7601 30.7023C60.7601 31.8351 60.3422 32.697 59.4901 33.2839C58.6299 33.8667 57.4746 34.1581 55.9999 34.1581C54.8938 34.1581 54.0581 34.0637 53.4723 33.879C52.8865 33.6902 52.5014 33.5506 52.313 33.4521L52.7267 32.0198C52.7636 32.0444 52.8742 32.1019 53.034 32.1757C53.1978 32.2455 53.4191 32.3317 53.6853 32.4179C53.9762 32.5082 54.2916 32.5862 54.6726 32.6477C55.0495 32.7175 55.4878 32.7421 55.9958 32.7421" fill="#0899D7"/>
<path d="M70.7721 26.5694C70.7434 25.252 70.4443 24.2382 69.8585 23.5118C69.2727 22.7812 68.4493 22.4077 67.3801 22.4077C66.8107 22.4077 66.3027 22.5268 65.8603 22.7525C65.4097 22.9782 65.0205 23.2778 64.6928 23.6595C64.361 24.0453 64.0988 24.4886 63.9185 24.9934C63.726 25.4859 63.6195 26.0235 63.5867 26.5694H70.768H70.7721ZM61.8621 27.5667C61.8621 26.4668 62.0177 25.5023 62.3373 24.6897C62.6486 23.8688 63.0664 23.1834 63.5744 22.6294C64.0783 22.0794 64.6723 21.6731 65.3195 21.4063C65.9791 21.1354 66.655 21 67.3555 21C68.8876 21 70.1166 21.4966 71.0342 22.5062C71.9478 23.5159 72.4107 25.0632 72.4107 27.1563C72.4107 27.2876 72.3984 27.4108 72.3902 27.5462C72.382 27.6693 72.3779 27.7966 72.3533 27.9156H63.5498C63.5908 29.4506 63.9677 30.6367 64.6764 31.4698C65.3974 32.2907 66.5239 32.7052 68.0765 32.7052C68.9368 32.7052 69.625 32.6231 70.1207 32.4589C70.6246 32.303 70.9892 32.1675 71.2145 32.0526L71.5053 33.4152C71.28 33.5424 70.854 33.6984 70.2395 33.8749C69.6086 34.0596 68.8795 34.1293 68.0315 34.1293C66.9295 34.1293 65.9996 33.9734 65.2171 33.6574C64.4388 33.3249 63.7956 32.8694 63.2959 32.2866C62.792 31.7038 62.4315 31.0101 62.2021 30.2139C61.9727 29.4095 61.8621 28.5271 61.8621 27.5626" fill="#0899D7"/>
<path d="M82.8773 22.8263C82.5946 22.7442 82.2464 22.6662 81.8081 22.5883C81.3657 22.5226 80.7471 22.4815 79.936 22.4815C79.256 22.4815 78.6579 22.6006 78.1335 22.8345C77.5968 23.0767 77.1503 23.4009 76.7857 23.8318C76.4048 24.2546 76.1262 24.7676 75.9296 25.3627C75.7411 25.9537 75.6305 26.6145 75.6305 27.3245C75.6305 28.1536 75.7493 28.8554 75.9787 29.4505C76.2122 30.0497 76.499 30.534 76.8636 30.8993C77.2282 31.2727 77.6419 31.5477 78.113 31.7201C78.5841 31.8925 79.0593 31.9746 79.5386 31.9746C80.2596 31.9746 80.911 31.872 81.5009 31.6585C82.0908 31.4492 82.5455 31.2112 82.8773 30.928V22.8263ZM82.9019 32.4096C82.8036 32.4835 82.6561 32.5861 82.4635 32.6887C82.2669 32.7954 82.0293 32.9062 81.7467 33.0211C81.4599 33.1319 81.1404 33.2263 80.7717 33.2961C80.4112 33.37 80.0015 33.411 79.5386 33.411C78.8176 33.411 78.113 33.2961 77.433 33.0663C76.753 32.8364 76.159 32.4835 75.6469 31.9951C75.143 31.5108 74.7252 30.8828 74.4261 30.1072C74.1107 29.3397 73.9591 28.3998 73.9591 27.2999C73.9591 26.4052 74.0902 25.5761 74.3729 24.8127C74.6514 24.0535 75.0406 23.3927 75.5445 22.8304C76.0606 22.2681 76.6792 21.829 77.4207 21.5171C78.1581 21.201 78.9856 21.0369 79.9073 21.0369C81.0789 21.0369 82.0129 21.1107 82.7134 21.2749C83.418 21.4227 83.9916 21.5745 84.4545 21.7264V33.214C84.4545 35.0979 83.9711 36.4358 82.9961 37.2403C82.0211 38.0406 80.5668 38.4428 78.5964 38.4428C77.7853 38.4428 77.0561 38.3812 76.4007 38.254C75.7452 38.1309 75.184 37.9954 74.717 37.8313L75.0324 36.3989C75.4134 36.5795 75.9541 36.7272 76.6219 36.8504C77.2937 36.9899 77.9655 37.0515 78.6497 37.0515C80.1449 37.0515 81.2223 36.7601 81.89 36.1855C82.5701 35.615 82.906 34.6218 82.906 33.2263V32.4014L82.9019 32.4096Z" fill="#0899D7"/>
<path d="M97.0637 33.4358C96.5926 33.5672 95.9658 33.7149 95.167 33.875C94.3764 34.0392 93.4096 34.113 92.2462 34.113C91.3121 34.113 90.5256 33.9776 89.8988 33.7108C89.2639 33.4317 88.7559 33.0377 88.3626 32.5411C87.9776 32.0363 87.7031 31.4289 87.5351 30.7106C87.359 30.0006 87.2729 29.2167 87.2729 28.3507V21.2915H88.8542V27.8377C88.8542 28.7283 88.9198 29.4794 89.0509 30.1073C89.1778 30.7189 89.3868 31.2155 89.6817 31.6013C89.9767 31.9829 90.3495 32.2579 90.8042 32.4303C91.2712 32.6068 91.8365 32.6848 92.5002 32.6848C93.2416 32.6848 93.893 32.6519 94.4419 32.5657C94.9868 32.4837 95.3432 32.418 95.4824 32.3441V21.2915H97.0678V33.4358H97.0637Z" fill="#0899D7"/>
<path d="M104.298 21.0451C104.818 21.0451 105.306 21.0821 105.773 21.1724C106.24 21.2544 106.555 21.3283 106.727 21.4145L106.42 22.7812C106.281 22.7114 106.027 22.6458 105.625 22.5637C105.228 22.4898 104.708 22.457 104.052 22.457C103.397 22.457 102.827 22.5062 102.422 22.6047C102.004 22.6991 101.738 22.7894 101.603 22.8469V33.8749H100.03V21.8701C100.431 21.6936 100.992 21.513 101.705 21.3242C102.418 21.1395 103.282 21.041 104.298 21.041" fill="#0899D7"/>
<path d="M116.936 27.5955C116.936 26.0235 116.571 24.7759 115.838 23.836C115.121 22.9126 114.122 22.4324 112.876 22.4324C111.631 22.4324 110.644 22.9085 109.915 23.836C109.181 24.7759 108.821 26.0235 108.821 27.5955C108.821 29.1674 109.185 30.4191 109.915 31.3467C110.64 32.2701 111.627 32.7339 112.876 32.7339C114.126 32.7339 115.121 32.2701 115.838 31.3467C116.567 30.4191 116.936 29.1674 116.936 27.5955ZM118.607 27.5955C118.607 28.5887 118.472 29.4793 118.19 30.3001C117.903 31.1086 117.505 31.7982 116.993 32.3686C116.489 32.935 115.891 33.3742 115.195 33.6943C114.494 34.0103 113.72 34.1704 112.88 34.1704C112.041 34.1704 111.266 34.0144 110.578 33.6943C109.882 33.3742 109.275 32.9309 108.767 32.3686C108.255 31.7982 107.854 31.1045 107.575 30.3001C107.293 29.4834 107.153 28.5887 107.153 27.5955C107.153 26.6022 107.293 25.7034 107.575 24.899C107.854 24.0823 108.26 23.3886 108.767 22.8182C109.275 22.2354 109.882 21.7921 110.578 21.4802C111.266 21.1601 112.037 21 112.88 21C113.724 21 114.494 21.1601 115.195 21.4802C115.891 21.7921 116.489 22.2395 116.993 22.8182C117.505 23.3886 117.907 24.0823 118.19 24.899C118.472 25.7034 118.607 26.6063 118.607 27.5955Z" fill="#0899D7"/>
<path d="M123.4 32.7503C124.306 32.7503 125.051 32.6067 125.649 32.3071C126.239 31.9993 126.53 31.4985 126.53 30.7844C126.53 30.4356 126.473 30.1524 126.37 29.9061C126.264 29.6599 126.092 29.4341 125.854 29.2494C125.617 29.0524 125.285 28.8636 124.883 28.6831C124.494 28.5066 124.003 28.2932 123.425 28.051C122.95 27.8581 122.499 27.6611 122.077 27.4559C121.663 27.2589 121.295 27.0127 120.967 26.75C120.652 26.4873 120.385 26.1713 120.193 25.7896C119.992 25.4202 119.898 24.9606 119.898 24.427C119.898 23.3969 120.279 22.5719 121.057 21.9481C121.819 21.3119 122.88 21 124.22 21C125.084 21 125.793 21.0698 126.354 21.2216C126.911 21.3653 127.304 21.4966 127.521 21.6033L127.169 23.0193C126.968 22.9208 126.637 22.7935 126.178 22.6212C125.719 22.4652 125.047 22.3831 124.158 22.3831C123.79 22.3831 123.462 22.4159 123.142 22.4857C122.823 22.5596 122.548 22.6745 122.302 22.8305C122.061 22.9864 121.864 23.1834 121.721 23.4174C121.573 23.6513 121.508 23.9427 121.508 24.2916C121.508 24.6404 121.573 24.9195 121.704 25.1576C121.827 25.4038 122.02 25.6172 122.274 25.806C122.52 25.9948 122.827 26.1672 123.196 26.3273C123.564 26.4955 123.97 26.672 124.449 26.8608C124.932 27.0496 125.391 27.2548 125.83 27.4518C126.293 27.657 126.673 27.8992 127.026 28.1824C127.366 28.4655 127.64 28.8062 127.849 29.2084C128.058 29.6024 128.161 30.1031 128.161 30.7023C128.161 31.8351 127.739 32.697 126.882 33.2839C126.047 33.8667 124.879 34.1581 123.404 34.1581C122.307 34.1581 121.454 34.0637 120.873 33.879C120.291 33.6902 119.898 33.5506 119.701 33.4521L120.123 32.0198C120.168 32.0444 120.271 32.1019 120.434 32.1757C120.598 32.2455 120.811 32.3317 121.086 32.4179C121.364 32.5082 121.696 32.5862 122.069 32.6477C122.454 32.7175 122.896 32.7421 123.4 32.7421" fill="#0899D7"/>
<path d="M21.9985 58.8695C12.474 58.8695 2.03189 51.8965 2.03189 43.3064C2.03189 34.7163 12.474 27.7433 21.9985 27.7433C31.523 27.7433 41.9733 34.704 41.9733 43.3064C41.9733 51.9088 31.527 58.8695 21.9985 58.8695ZM21.9985 21.2668C9.84401 21.2668 0 31.1333 0 43.3064C0 55.4795 9.84401 65.346 21.9985 65.346C34.1529 65.346 44.001 55.4795 44.001 43.3064C44.001 31.1333 34.1488 21.2668 21.9985 21.2668Z" fill="#0899D7"/>
<path d="M193.402 66.3883C191.604 66.3637 190.137 66.1708 189.019 65.8096C187.888 65.4484 186.999 64.9354 186.348 64.2787C185.693 63.6303 185.246 62.8341 185.017 61.9024C184.775 60.9749 184.656 59.9201 184.656 58.7545V33.3372L190.854 34.3468V57.5027C190.854 58.065 190.907 58.5616 190.993 59.0089C191.075 59.4563 191.227 59.8298 191.473 60.1335C191.698 60.4413 192.038 60.6876 192.493 60.8928C192.931 61.0816 193.521 61.2088 194.279 61.258L193.398 66.3924L193.402 66.3883Z" fill="#0899D7"/>
<path d="M64.4551 53.0088C64.4551 51.0018 64.1929 49.5776 63.685 48.7568C63.1688 47.9154 62.2798 47.5009 61.0345 47.5009C60.6494 47.5009 60.248 47.5214 59.8342 47.5625C59.4164 47.6035 59.0067 47.6446 58.6175 47.7061V64.9397H52.4113V43.4542C52.9479 43.3187 53.5624 43.1669 54.2752 43.015C54.9839 42.8632 55.7254 42.7154 56.516 42.6005C57.3066 42.4733 58.1177 42.3748 58.9575 42.305C59.7932 42.2393 60.6085 42.2024 61.4114 42.2024C62.9885 42.2024 64.2749 42.4035 65.2662 42.8057C66.2453 43.2079 67.0605 43.6881 67.6955 44.2463C68.5926 43.606 69.6086 43.0971 70.7597 42.7483C71.9108 42.3871 72.9759 42.2024 73.9509 42.2024C75.7001 42.2024 77.1339 42.4445 78.2646 42.9288C79.3829 43.4172 80.2801 44.1067 80.9478 44.9932C81.6115 45.8839 82.0744 46.9427 82.3243 48.1576C82.5742 49.3971 82.7052 50.7473 82.7052 52.2577V64.9356H76.499V53.0088C76.499 51.0018 76.2409 49.5776 75.7247 48.7568C75.2127 47.9154 74.3278 47.5009 73.0743 47.5009C72.7506 47.5009 72.2754 47.5871 71.6814 47.7472C71.0874 47.9154 70.5958 48.1289 70.2067 48.3751C70.4033 49.0154 70.518 49.6844 70.5795 50.4026C70.6368 51.1126 70.6573 51.8637 70.6573 52.664V64.9356H64.4592V53.0088H64.4551Z" fill="#0899D7"/>
<path d="M104.663 64.9354H95.3431C93.4833 64.9354 91.9348 64.6892 90.6935 64.1844C89.4564 63.6877 88.4855 62.9818 87.7604 62.083C87.0435 61.176 86.5232 60.0966 86.2283 58.8448C85.9129 57.5971 85.7654 56.058 85.7654 54.5518V43.0354H91.9717V53.7966C91.9717 55.7954 92.2297 57.2524 92.7541 58.143C93.2907 59.0295 94.278 59.4768 95.7077 59.4768H98.4606V43.0354H104.663V64.9395V64.9354Z" fill="#0899D7"/>
<path d="M107.78 43.0312H117.104C118.972 43.0312 120.521 43.2816 121.754 43.7782C122.983 44.2871 123.962 44.989 124.691 45.8919C125.408 46.7989 125.924 47.8783 126.223 49.1219C126.542 50.3778 126.69 52.2985 126.69 53.7925V64.9354H120.475V54.5517C120.475 52.5489 120.213 50.7266 119.693 49.8319C119.169 48.9454 118.181 48.498 116.735 48.498H113.982V64.9354H107.784V43.0312H107.78Z" fill="#0899D7"/>
<path d="M159.634 64.9354H153.293V43.2488H159.634V64.9354ZM160.359 37.2198C160.359 38.4346 159.97 39.3909 159.188 40.0927C158.397 40.7822 157.471 41.1352 156.402 41.1352C155.333 41.1352 154.411 40.7822 153.621 40.0927C152.826 39.3909 152.441 38.4305 152.441 37.2198C152.441 36.009 152.826 35.0404 153.621 34.3468C154.407 33.6491 155.329 33.2961 156.402 33.2961C157.475 33.2961 158.397 33.6532 159.188 34.3468C159.966 35.0404 160.359 36.0049 160.359 37.2198Z" fill="#0899D7"/>
<path d="M175.918 60.0762H171.146C169.859 60.0762 168.847 59.1487 168.847 58.0364C168.847 56.9242 169.868 56.013 171.146 56.013H175.918V60.0762ZM172.657 43.1587H164.288L165.537 48.605H172.657C174.349 48.5557 176 49.3068 176 51.5764H169.941C165.652 51.5764 162.182 54.5684 162.182 58.2704C162.182 61.9723 165.652 64.9766 169.925 64.9766H181.432V51.5189C181.432 45.6212 177.077 43.0807 172.653 43.1628" fill="#0899D7"/>
<path d="M198.433 39.2022H198.834C199.199 39.2022 199.498 39.1571 199.711 39.0586C199.928 38.9601 200.035 38.7548 200.035 38.4552C200.035 38.1885 199.936 38.0038 199.727 37.893C199.522 37.7863 199.264 37.7288 198.953 37.7288H198.703C198.625 37.7288 198.535 37.737 198.429 37.7575V39.2022H198.433ZM200.309 42.0792C200.116 41.677 199.928 41.3159 199.74 40.9916C199.551 40.6633 199.371 40.3924 199.199 40.1749H198.433V42.0792H197.245V36.8874C197.54 36.8095 197.826 36.7602 198.109 36.7315C198.392 36.7027 198.646 36.6904 198.859 36.6904C199.649 36.6904 200.239 36.8382 200.641 37.1296C201.042 37.421 201.243 37.8683 201.243 38.4634C201.243 38.7877 201.169 39.0668 201.005 39.3089C200.854 39.5511 200.624 39.7399 200.334 39.8712C200.526 40.1503 200.723 40.4663 200.944 40.8234C201.165 41.1886 201.374 41.6032 201.583 42.0751H200.309V42.0792Z" fill="#0899D7"/>
<path d="M199.166 35.4426C196.962 35.4426 195.168 37.2444 195.168 39.4483C195.168 41.6523 196.962 43.4622 199.166 43.4622C201.37 43.4622 203.168 41.6646 203.168 39.4483C203.168 37.2321 201.374 35.4426 199.166 35.4426ZM199.166 44.2872C196.507 44.2872 194.34 42.1202 194.34 39.4483C194.34 36.7765 196.507 34.6177 199.166 34.6177C201.825 34.6177 203.996 36.7888 203.996 39.4483C203.996 42.1078 201.833 44.2872 199.166 44.2872Z" fill="#0899D7"/>
<path d="M143.494 59.7436H140.028C137.226 59.7436 134.953 57.2975 134.953 54.2768C134.953 51.2561 137.226 48.8141 140.028 48.8141H143.494V59.7436ZM143.494 34.2894V43.2406H139.402C133.486 43.2406 128.677 48.1164 128.677 54.1086C128.677 60.1007 133.486 64.9724 139.414 64.9724H150.094V33.5793L143.49 34.2853L143.494 34.2894Z" fill="#0899D7"/>
<path d="M14.9442 78.5366L17.4882 78.1262V80.7857H20.5565V82.9158H17.4882V86.0966C17.4882 86.6301 17.5824 87.0693 17.7749 87.3812C17.9634 87.7054 18.3403 87.8655 18.9138 87.8655C19.1882 87.8655 19.4709 87.8409 19.7618 87.7875C20.0485 87.7342 20.3189 87.6644 20.5565 87.57L20.917 89.5646C20.6097 89.6919 20.2656 89.7986 19.8887 89.8889C19.516 89.9792 19.049 90.0284 18.5 90.0284C17.7995 90.0284 17.226 89.9299 16.7713 89.7411C16.3166 89.5482 15.9479 89.2855 15.6775 88.949C15.403 88.6166 15.2105 88.202 15.104 87.7218C14.9934 87.2417 14.9483 86.7081 14.9483 86.1212V78.5284L14.9442 78.5366Z" fill="#0899D7"/>
<path d="M30.3308 89.5156C29.8925 89.6387 29.3354 89.7536 28.6471 89.8685C27.963 89.9711 27.242 90.0327 26.4883 90.0327C25.7345 90.0327 25.0872 89.9301 24.5793 89.7249C24.0713 89.5197 23.6657 89.2324 23.3667 88.8548C23.0676 88.4813 22.8546 88.0381 22.7317 87.525C22.6047 87.0079 22.5392 86.4456 22.5392 85.8259V80.79H25.0954V85.514C25.0954 86.3389 25.206 86.9381 25.4232 87.3034C25.6403 87.6728 26.054 87.8534 26.6439 87.8534C26.8283 87.8534 27.0167 87.8452 27.2215 87.8287C27.4305 87.8123 27.6189 87.7877 27.7746 87.7713V80.7941H30.3308V89.5238V89.5156Z" fill="#0899D7"/>
<path d="M36.4102 85.3087C36.4102 84.6561 36.5208 84.0405 36.7297 83.4618C36.9345 82.879 37.2459 82.3783 37.6473 81.9473C38.0406 81.5164 38.5322 81.1757 39.1016 80.9254C39.6751 80.675 40.3224 80.5437 41.0556 80.5437C41.5308 80.5437 41.9733 80.5888 42.3706 80.675C42.7762 80.7653 43.1654 80.8843 43.5382 81.0403L43.0056 83.0842C42.7639 82.9939 42.5017 82.9118 42.215 82.8462C41.9282 82.7805 41.6087 82.7477 41.2564 82.7477C40.5026 82.7477 39.9373 82.9816 39.5686 83.4495C39.204 83.9174 39.0115 84.5412 39.0115 85.3046C39.0115 86.1131 39.1876 86.7451 39.5358 87.1925C39.884 87.6399 40.4944 87.8615 41.3588 87.8615C41.666 87.8615 41.9979 87.8328 42.3543 87.7753C42.7066 87.7178 43.0343 87.6276 43.3292 87.5003L43.6938 89.5976C43.3948 89.7248 43.022 89.8356 42.5796 89.93C42.133 90.0244 41.6455 90.0654 41.1007 90.0654C40.2855 90.0654 39.5727 89.9382 38.9828 89.7002C38.3847 89.4498 37.8931 89.1174 37.5121 88.6946C37.1312 88.2678 36.8526 87.7671 36.6764 87.1884C36.4962 86.6097 36.4102 85.9818 36.4102 85.3087Z" fill="#0899D7"/>
<path d="M51.1332 85.2882C51.1332 84.5002 50.9734 83.8764 50.6621 83.4249C50.3466 82.9734 49.896 82.7477 49.3143 82.7477C48.7326 82.7477 48.282 82.9693 47.9625 83.4249C47.6429 83.8764 47.4832 84.5002 47.4832 85.2882C47.4832 86.0762 47.6429 86.7083 47.9625 87.172C48.282 87.6317 48.7326 87.8656 49.3143 87.8656C49.896 87.8656 50.3466 87.6317 50.6621 87.172C50.9734 86.7083 51.1332 86.0803 51.1332 85.2882ZM53.7345 85.2882C53.7345 85.9941 53.6321 86.6467 53.4273 87.2377C53.2224 87.8287 52.9275 88.3294 52.5301 88.7522C52.145 89.1708 51.678 89.495 51.1414 89.7207C50.5965 89.9506 49.9862 90.0655 49.3102 90.0655C48.6343 90.0655 48.0444 89.9506 47.5036 89.7207C46.9588 89.495 46.4959 89.1708 46.1067 88.7522C45.7175 88.3335 45.4144 87.8287 45.1973 87.2377C44.9802 86.6508 44.8737 85.9982 44.8737 85.2882C44.8737 84.5782 44.9884 83.9338 45.2096 83.3469C45.4308 82.7641 45.738 82.2634 46.1354 81.853C46.5287 81.4385 46.9957 81.1183 47.5364 80.8926C48.0813 80.6628 48.6753 80.5479 49.3102 80.5479C49.9452 80.5479 50.5597 80.6628 51.1045 80.8926C51.6494 81.1183 52.1123 81.4385 52.4973 81.853C52.8824 82.2634 53.1897 82.76 53.4109 83.3469C53.6198 83.9338 53.7304 84.5782 53.7304 85.2882" fill="#0899D7"/>
<path d="M60.592 85.0297C60.592 84.2088 60.4896 83.6219 60.2725 83.2772C60.0677 82.9365 59.699 82.7641 59.1787 82.7641C59.023 82.7641 58.8592 82.7765 58.6871 82.7929C58.5151 82.8134 58.3512 82.8339 58.1873 82.8544V89.8275H55.6311V81.1102C55.8482 81.0486 56.0981 80.987 56.3972 80.9255C56.688 80.8598 56.9912 80.8064 57.3189 80.7572C57.6507 80.6997 57.9784 80.6587 58.3266 80.6341C58.6585 80.6053 59.0026 80.593 59.3344 80.593C59.9816 80.593 60.5142 80.6792 60.9157 80.8434C61.3294 81.0075 61.6612 81.2045 61.9193 81.4385C62.288 81.1717 62.7058 80.9665 63.181 80.8187C63.6521 80.6751 64.0864 80.5971 64.4878 80.5971C65.2047 80.5971 65.7987 80.6956 66.2616 80.8967C66.7287 81.0937 67.0933 81.381 67.3718 81.7463C67.6463 82.1157 67.8306 82.5466 67.9371 83.0555C68.0396 83.5563 68.0928 84.1185 68.0928 84.7383V89.8398H65.5407V85.0461C65.5407 84.2252 65.4301 83.6383 65.2211 83.2936C65.0081 82.9529 64.6476 82.7806 64.1355 82.7806C63.9963 82.7806 63.8078 82.8175 63.5579 82.8873C63.3162 82.9529 63.1073 83.0391 62.9557 83.1458C63.0295 83.4085 63.0786 83.6876 63.1032 83.979C63.1278 84.2663 63.1401 84.5864 63.1401 84.9106V89.8398H60.5879V85.0461L60.592 85.0297Z" fill="#0899D7"/>
<path d="M76.2081 85.3743C76.2081 84.5822 76.0278 83.9501 75.6755 83.4781C75.3191 82.9979 74.7948 82.764 74.0984 82.764C73.8649 82.764 73.6518 82.7763 73.4634 82.7886C73.2668 82.8091 73.1111 82.8297 72.98 82.8502V87.4715C73.1398 87.5741 73.3487 87.6644 73.6109 87.7301C73.8649 87.7958 74.1229 87.8286 74.3851 87.8286C75.6018 87.8286 76.204 87.0119 76.204 85.3743M78.8094 85.3045C78.8094 86.0022 78.7193 86.6425 78.5513 87.2089C78.3793 87.7793 78.1294 88.2718 77.7935 88.6864C77.4698 89.0927 77.0561 89.4169 76.5604 89.6426C76.0729 89.8725 75.5076 89.9915 74.8644 89.9915C74.508 89.9915 74.1762 89.9546 73.8731 89.8848C73.5658 89.8191 73.2668 89.7206 72.98 89.5934V92.9958H70.4279V81.0977C70.6573 81.0279 70.9194 80.9582 71.2144 80.8966C71.5134 80.835 71.8207 80.7776 72.1484 80.7324C72.4679 80.6832 72.8039 80.6462 73.148 80.6216C73.4798 80.5929 73.8075 80.5806 74.1148 80.5806C74.8521 80.5806 75.524 80.6873 76.1016 80.913C76.6874 81.1346 77.179 81.4507 77.5722 81.8529C77.9696 82.2592 78.2809 82.7558 78.4899 83.3427C78.7029 83.9255 78.8094 84.5781 78.8094 85.3045Z" fill="#0899D7"/>
<path d="M84.2087 88.034C84.4627 88.034 84.7044 88.0299 84.9256 88.0175C85.1509 88.0052 85.3394 87.9888 85.4745 87.9642V86.027C85.3721 86.0024 85.2165 85.9778 85.0116 85.9613C84.8068 85.9367 84.6184 85.9203 84.4463 85.9203C84.2046 85.9203 83.9793 85.9367 83.7704 85.9654C83.5574 85.9983 83.373 86.0516 83.2092 86.1296C83.0494 86.2158 82.9306 86.3184 82.8323 86.4579C82.7421 86.5975 82.7012 86.7699 82.7012 86.9751C82.7012 87.3814 82.8282 87.6564 83.1026 87.8082C83.3689 87.9642 83.7376 88.0381 84.2046 88.0381M83.9998 80.552C84.7577 80.552 85.3844 80.6382 85.8801 80.8065C86.3922 80.9788 86.7854 81.221 87.0927 81.5493C87.3917 81.8694 87.6089 82.2593 87.7358 82.719C87.8628 83.1746 87.9284 83.6835 87.9284 84.2458V89.573C87.5556 89.6551 87.0517 89.7454 86.4004 89.8562C85.7449 89.9588 84.9625 90.0163 84.0326 90.0163C83.4509 90.0163 82.9224 89.967 82.4431 89.8685C81.972 89.7577 81.5623 89.5936 81.2264 89.3596C80.8782 89.1257 80.616 88.8179 80.4317 88.4362C80.2473 88.0586 80.1572 87.5989 80.1572 87.0489C80.1572 86.499 80.2637 86.0763 80.4809 85.7069C80.6939 85.3375 80.9683 85.0461 81.3247 84.8327C81.6811 84.6152 82.0908 84.4551 82.5455 84.3607C83.0043 84.2622 83.4795 84.2088 83.967 84.2088C84.2988 84.2088 84.5897 84.2212 84.8478 84.254C85.1059 84.2786 85.3189 84.3156 85.4786 84.3648V84.1227C85.4786 83.6876 85.3435 83.3387 85.0854 83.0802C84.8232 82.8134 84.3644 82.6862 83.7171 82.6862C83.2788 82.6862 82.8528 82.7149 82.4308 82.7765C82.0089 82.838 81.6443 82.9283 81.3288 83.0432L81.0052 80.9788C81.1568 80.9337 81.3452 80.8885 81.5664 80.8352C81.7877 80.7859 82.0334 80.7367 82.2956 80.6915C82.5578 80.6546 82.8364 80.6259 83.1272 80.593C83.4181 80.5602 83.713 80.552 84.0121 80.552" fill="#0899D7"/>
<path d="M97.2152 77.6419C97.1456 77.8143 97.0514 78.0031 96.9326 78.2083C96.8138 78.4135 96.6663 78.6105 96.4983 78.787C96.3304 78.9634 96.1337 79.1112 95.9084 79.2261C95.6954 79.341 95.4537 79.3985 95.1915 79.3985C94.9908 79.3985 94.7983 79.3657 94.618 79.3041C94.4419 79.2425 94.2657 79.1769 94.0977 79.103C93.9257 79.0291 93.7495 78.9552 93.5857 78.8978C93.4095 78.8321 93.2334 78.8034 93.0531 78.8034C92.8237 78.8034 92.6353 78.8772 92.4837 79.0209C92.3403 79.1728 92.2174 79.341 92.1232 79.5339L90.8738 78.7131C90.9434 78.5366 91.0417 78.3478 91.1564 78.1467C91.2752 77.9415 91.4186 77.7445 91.5907 77.568C91.7627 77.3956 91.9552 77.2479 92.1683 77.133C92.3854 77.0181 92.6271 76.9565 92.8893 76.9565C93.0941 76.9565 93.2866 76.9934 93.4628 77.055C93.643 77.1166 93.8151 77.1863 93.9871 77.2602C94.1592 77.3341 94.3271 77.4038 94.491 77.4654C94.659 77.527 94.8392 77.5598 95.0359 77.5598C95.2612 77.5598 95.4496 77.4859 95.5971 77.3382C95.7446 77.1904 95.8675 77.018 95.9576 76.821L97.207 77.646L97.2152 77.6419ZM90.1569 81.0976C90.5911 80.9663 91.1482 80.8473 91.8323 80.7406C92.5206 80.6297 93.2416 80.5764 93.9953 80.5764C94.7491 80.5764 95.3963 80.6749 95.9043 80.876C96.4164 81.0771 96.8179 81.3603 97.1169 81.7256C97.4119 82.0908 97.6249 82.53 97.7519 83.0348C97.8748 83.5355 97.9403 84.0978 97.9403 84.7175V89.819H95.3882V85.0253C95.3882 84.2004 95.2735 83.6176 95.0604 83.2728C94.8392 82.9322 94.4378 82.7598 93.8397 82.7598C93.6594 82.7598 93.4628 82.7721 93.262 82.7844C93.0572 82.805 92.8729 82.8255 92.7131 82.846V89.819H90.161V81.0976H90.1569Z" fill="#0899D7"/>
<path d="M102.799 89.8233H100.247V80.7899H102.799V89.8233ZM103.745 77.5476L100.923 79.928L99.7469 78.8774L102.176 76.0947L103.741 77.5435L103.745 77.5476Z" fill="#0899D7"/>
<path d="M108.624 88.034C108.882 88.034 109.128 88.0299 109.349 88.0175C109.574 88.0052 109.759 87.9888 109.898 87.9642V86.027C109.788 86.0024 109.636 85.9778 109.431 85.9613C109.222 85.9367 109.038 85.9203 108.87 85.9203C108.62 85.9203 108.399 85.9367 108.186 85.9654C107.977 85.9983 107.792 86.0516 107.637 86.1296C107.473 86.2158 107.35 86.3184 107.26 86.4579C107.166 86.5975 107.117 86.7699 107.117 86.9751C107.117 87.3814 107.248 87.6564 107.522 87.8082C107.792 87.9642 108.157 88.0381 108.624 88.0381M108.419 80.552C109.177 80.552 109.804 80.6382 110.304 80.8065C110.808 80.9788 111.209 81.221 111.516 81.5493C111.819 81.8694 112.032 82.2593 112.155 82.719C112.282 83.1746 112.348 83.6835 112.348 84.2458V89.573C111.983 89.6551 111.471 89.7454 110.82 89.8562C110.168 89.9588 109.382 90.0163 108.46 90.0163C107.874 90.0163 107.35 89.967 106.875 89.8685C106.404 89.7577 105.99 89.5936 105.65 89.3596C105.306 89.1257 105.04 88.8179 104.859 88.4362C104.675 88.0586 104.589 87.5989 104.589 87.0489C104.589 86.499 104.7 86.0763 104.909 85.7069C105.109 85.3375 105.404 85.0461 105.752 84.8327C106.105 84.6152 106.514 84.4551 106.965 84.3607C107.424 84.2622 107.903 84.2088 108.391 84.2088C108.722 84.2088 109.021 84.2212 109.271 84.254C109.529 84.2786 109.738 84.3156 109.906 84.3648V84.1227C109.906 83.6876 109.771 83.3387 109.509 83.0802C109.247 82.8134 108.792 82.6862 108.137 82.6862C107.706 82.6862 107.276 82.7149 106.854 82.7765C106.432 82.838 106.064 82.9283 105.757 83.0432L105.429 80.9788C105.576 80.9337 105.761 80.8885 105.986 80.8352C106.207 80.7859 106.449 80.7367 106.715 80.6915C106.977 80.6546 107.256 80.6259 107.547 80.593C107.842 80.5602 108.137 80.552 108.427 80.552" fill="#0899D7"/>
<path d="M121.36 87.9846C121.819 87.9846 122.155 87.9435 122.352 87.8491C122.544 87.7547 122.634 87.5865 122.634 87.3115C122.634 87.1104 122.516 86.9298 122.27 86.7697C122.016 86.622 121.631 86.4414 121.123 86.2485C120.725 86.1007 120.357 85.9407 120.033 85.7806C119.705 85.6247 119.423 85.4277 119.197 85.206C118.968 84.9803 118.796 84.7176 118.669 84.4098C118.546 84.0979 118.476 83.7244 118.476 83.2894C118.476 82.4439 118.796 81.7749 119.423 81.2783C120.049 80.7899 120.91 80.5396 122.008 80.5396C122.557 80.5396 123.085 80.5888 123.585 80.6832C124.093 80.7858 124.49 80.8925 124.789 81.0074L124.347 83.0021C124.048 82.8995 123.724 82.8051 123.38 82.7271C123.024 82.645 122.638 82.5999 122.192 82.5999C121.401 82.5999 121 82.8297 121 83.2771C121 83.3797 121.024 83.4741 121.057 83.552C121.09 83.6341 121.16 83.7121 121.254 83.786C121.364 83.8557 121.5 83.9378 121.68 84.0281C121.86 84.1102 122.081 84.2087 122.356 84.3113C122.917 84.5206 123.38 84.7258 123.745 84.9228C124.109 85.128 124.396 85.3456 124.613 85.5836C124.822 85.8176 124.973 86.0761 125.06 86.3593C125.141 86.6507 125.187 86.979 125.187 87.3566C125.187 88.2431 124.851 88.9203 124.187 89.38C123.515 89.8356 122.569 90.0654 121.344 90.0654C120.549 90.0654 119.877 89.9997 119.353 89.8643C118.82 89.7206 118.452 89.6057 118.247 89.5195L118.673 87.4387C119.107 87.6111 119.554 87.7465 120.013 87.845C120.471 87.9394 120.914 87.9887 121.364 87.9887" fill="#0899D7"/>
<path d="M129.631 89.8232H127.083V80.7898H129.631V89.8232ZM129.877 78.1795C129.877 78.6474 129.734 79.0209 129.426 79.2918C129.123 79.5585 128.763 79.6899 128.349 79.6899C127.935 79.6899 127.583 79.5544 127.284 79.2918C126.981 79.0209 126.829 78.6515 126.829 78.1795C126.829 77.7076 126.981 77.3382 127.284 77.0714C127.587 76.8046 127.952 76.6692 128.349 76.6692C128.746 76.6692 129.123 76.8046 129.426 77.0714C129.734 77.3423 129.877 77.7117 129.877 78.1795Z" fill="#0899D7"/>
<path d="M137.607 84.3934C137.591 84.1759 137.558 83.9666 137.497 83.7614C137.439 83.5521 137.333 83.3715 137.202 83.2114C137.071 83.0473 136.907 82.9159 136.706 82.8133C136.505 82.7148 136.259 82.6574 135.964 82.6574C135.669 82.6574 135.428 82.7107 135.223 82.8051C135.014 82.8995 134.842 83.0267 134.703 83.1827C134.568 83.3469 134.461 83.5357 134.387 83.7491C134.314 83.9584 134.26 84.1718 134.223 84.3893H137.603L137.607 84.3934ZM131.61 85.3743C131.61 84.5699 131.729 83.8763 131.979 83.2689C132.216 82.6697 132.544 82.169 132.941 81.7626C133.343 81.3645 133.806 81.0567 134.322 80.8515C134.846 80.6463 135.379 80.5437 135.928 80.5437C137.206 80.5437 138.213 80.9377 138.967 81.7175C139.705 82.5055 140.073 83.6588 140.073 85.1856C140.073 85.3292 140.073 85.4934 140.057 85.674C140.045 85.8504 140.036 86.0064 140.024 86.1418H134.228C134.285 86.6754 134.531 87.0858 134.969 87.3977C135.407 87.7055 135.989 87.8615 136.714 87.8615C137.181 87.8615 137.64 87.8204 138.091 87.7302C138.549 87.644 138.914 87.5414 139.201 87.41L139.545 89.4909C139.406 89.5606 139.217 89.6263 138.996 89.7002C138.762 89.7699 138.508 89.8274 138.23 89.8808C137.951 89.93 137.644 89.9752 137.329 90.008C137.005 90.0408 136.69 90.0613 136.366 90.0613C135.551 90.0613 134.854 89.9382 134.252 89.7002C133.65 89.458 133.15 89.1297 132.761 88.7111C132.368 88.2965 132.073 87.7999 131.884 87.2253C131.692 86.6549 131.606 86.0351 131.606 85.3702" fill="#0899D7"/>
<path d="M147.001 85.0297C147.001 84.2088 146.89 83.6219 146.681 83.2772C146.468 82.9365 146.108 82.7641 145.591 82.7641C145.432 82.7641 145.264 82.7765 145.096 82.7929C144.928 82.8134 144.756 82.8339 144.596 82.8544V89.8275H142.04V81.1102C142.257 81.0486 142.511 80.987 142.802 80.9255C143.092 80.8598 143.4 80.8064 143.727 80.7572C144.051 80.6997 144.387 80.6587 144.735 80.6341C145.075 80.6053 145.415 80.593 145.747 80.593C146.394 80.593 146.923 80.6792 147.328 80.8434C147.734 81.0075 148.07 81.2045 148.336 81.4385C148.697 81.1717 149.123 80.9665 149.598 80.8187C150.069 80.6751 150.503 80.5971 150.909 80.5971C151.626 80.5971 152.224 80.6956 152.683 80.8967C153.137 81.0937 153.506 81.381 153.784 81.7463C154.059 82.1157 154.247 82.5466 154.35 83.0555C154.452 83.5563 154.501 84.1185 154.501 84.7383V89.8398H151.953V85.0461C151.953 84.2252 151.847 83.6383 151.634 83.2936C151.425 82.9529 151.056 82.7806 150.548 82.7806C150.405 82.7806 150.216 82.8175 149.975 82.8873C149.729 82.9529 149.528 83.0391 149.368 83.1458C149.446 83.4085 149.495 83.6876 149.52 83.979C149.54 84.2663 149.553 84.5864 149.553 84.9106V89.8398H147.005V85.0461L147.001 85.0297Z" fill="#0899D7"/>
<path d="M162.592 85.3743C162.592 84.5822 162.408 83.9501 162.06 83.4781C161.703 82.9979 161.179 82.764 160.478 82.764C160.253 82.764 160.04 82.7763 159.847 82.7886C159.651 82.8091 159.499 82.8297 159.368 82.8502V87.4715C159.528 87.5741 159.737 87.6644 159.995 87.7301C160.253 87.7958 160.507 87.8286 160.769 87.8286C161.982 87.8286 162.588 87.0119 162.588 85.3743M165.189 85.3045C165.189 86.0022 165.103 86.6425 164.931 87.2089C164.763 87.7793 164.513 88.2718 164.177 88.6864C163.846 89.0927 163.436 89.4169 162.944 89.6426C162.457 89.8725 161.892 89.9915 161.248 89.9915C160.896 89.9915 160.56 89.9546 160.253 89.8848C159.95 89.8191 159.651 89.7206 159.368 89.5934V92.9958H156.816V81.0977C157.037 81.0279 157.303 80.9582 157.607 80.8966C157.897 80.835 158.209 80.7776 158.532 80.7324C158.864 80.6832 159.188 80.6462 159.532 80.6216C159.868 80.5929 160.187 80.5806 160.503 80.5806C161.24 80.5806 161.904 80.6873 162.49 80.913C163.075 81.1346 163.559 81.4507 163.96 81.8529C164.362 82.2592 164.665 82.7558 164.882 83.3427C165.095 83.9255 165.197 84.5781 165.197 85.3045" fill="#0899D7"/>
<path d="M172.596 83.0554C172.371 83.002 172.104 82.9446 171.801 82.8789C171.49 82.8173 171.158 82.7845 170.802 82.7845C170.642 82.7845 170.453 82.8009 170.224 82.8256C170.007 82.8543 169.835 82.8912 169.72 82.9199V89.8232H167.164V81.2742C167.623 81.11 168.159 80.9581 168.782 80.8145C169.405 80.675 170.101 80.6011 170.863 80.6011C171.002 80.6011 171.17 80.6134 171.363 80.6298C171.551 80.6462 171.752 80.6749 171.949 80.6955C172.145 80.7324 172.338 80.7652 172.526 80.8063C172.723 80.8432 172.891 80.8966 173.026 80.9499L172.596 83.0595V83.0554Z" fill="#0899D7"/>
<path d="M179.965 84.3934C179.961 84.1759 179.916 83.9666 179.855 83.7614C179.789 83.5521 179.695 83.3715 179.568 83.2114C179.433 83.0473 179.265 82.9159 179.064 82.8133C178.864 82.7148 178.614 82.6574 178.323 82.6574C178.032 82.6574 177.794 82.7107 177.581 82.8051C177.381 82.8995 177.204 83.0267 177.073 83.1827C176.93 83.3469 176.832 83.5357 176.754 83.7491C176.68 83.9584 176.623 84.1718 176.586 84.3893H179.965V84.3934ZM173.968 85.3743C173.968 84.5699 174.091 83.8763 174.341 83.2689C174.583 82.6697 174.902 82.169 175.308 81.7626C175.705 81.3645 176.168 81.0567 176.684 80.8515C177.2 80.6463 177.741 80.5437 178.294 80.5437C179.572 80.5437 180.576 80.9377 181.321 81.7175C182.063 82.5055 182.436 83.6588 182.436 85.1856C182.436 85.3292 182.436 85.4934 182.419 85.674C182.411 85.8504 182.399 86.0064 182.391 86.1418H176.59C176.651 86.6754 176.897 87.0858 177.331 87.3977C177.77 87.7055 178.356 87.8615 179.085 87.8615C179.548 87.8615 180.006 87.8204 180.461 87.7302C180.912 87.644 181.28 87.5414 181.563 87.41L181.911 89.4909C181.776 89.5606 181.592 89.6263 181.362 89.7002C181.141 89.7699 180.883 89.8274 180.6 89.8808C180.322 89.93 180.019 89.9752 179.699 90.008C179.38 90.0408 179.064 90.0613 178.741 90.0613C177.93 90.0613 177.225 89.9382 176.623 89.7002C176.029 89.458 175.525 89.1297 175.136 88.7111C174.738 88.2965 174.452 87.7999 174.267 87.2253C174.071 86.6549 173.98 86.0351 173.98 85.3702" fill="#0899D7"/>
<path d="M11.0484 41.1516C10.8108 41.0203 10.8313 40.8397 11.0934 40.7535L29.786 33.9734C30.0277 33.8831 30.1629 34.0185 30.0687 34.2689L23.3135 53.0004C23.2151 53.2549 23.0267 53.2672 22.8997 53.0292L18.7827 45.7032C18.6475 45.4733 18.3484 45.1778 18.119 45.0465L11.0525 41.1557L11.0484 41.1516Z" fill="#0899D7"/>
</g>
<path d="M53.4435 12V3.27273H56.3924C57.0742 3.27273 57.6339 3.3892 58.0714 3.62216C58.5089 3.85227 58.8327 4.16903 59.043 4.57244C59.2532 4.97585 59.3583 5.43466 59.3583 5.94886C59.3583 6.46307 59.2532 6.91903 59.043 7.31676C58.8327 7.71449 58.5103 8.02699 58.0756 8.25426C57.641 8.47869 57.0856 8.59091 56.4094 8.59091H54.0231V7.63636H56.3754C56.8413 7.63636 57.2163 7.56818 57.5004 7.43182C57.7873 7.29545 57.9947 7.10227 58.1225 6.85227C58.2532 6.59943 58.3185 6.2983 58.3185 5.94886C58.3185 5.59943 58.2532 5.29403 58.1225 5.03267C57.9918 4.77131 57.783 4.5696 57.4961 4.42756C57.2092 4.28267 56.8299 4.21023 56.3583 4.21023H54.5004V12H53.4435ZM57.5515 8.07955L59.6992 12H58.4719L56.3583 8.07955H57.5515ZM63.657 12.1364C63.0263 12.1364 62.4822 11.9972 62.0249 11.7188C61.5703 11.4375 61.2195 11.0455 60.9723 10.5426C60.728 10.0369 60.6058 9.44886 60.6058 8.77841C60.6058 8.10795 60.728 7.51705 60.9723 7.00568C61.2195 6.49148 61.5632 6.09091 62.0036 5.80398C62.4467 5.5142 62.9638 5.36932 63.5547 5.36932C63.8956 5.36932 64.2322 5.42614 64.5646 5.53977C64.897 5.65341 65.1996 5.83807 65.4723 6.09375C65.745 6.34659 65.9624 6.68182 66.1243 7.09943C66.2862 7.51705 66.3672 8.03125 66.3672 8.64205V9.06818H61.3217V8.19886H65.3445C65.3445 7.82955 65.2706 7.5 65.1229 7.21023C64.978 6.92045 64.7706 6.69176 64.5007 6.52415C64.2337 6.35653 63.9183 6.27273 63.5547 6.27273C63.1541 6.27273 62.8075 6.37216 62.5149 6.57102C62.2251 6.76705 62.0021 7.02273 61.8459 7.33807C61.6896 7.65341 61.6115 7.99148 61.6115 8.35227V8.93182C61.6115 9.42614 61.6967 9.84517 61.8672 10.1889C62.0405 10.5298 62.2805 10.7898 62.5874 10.9688C62.8942 11.1449 63.2507 11.233 63.657 11.233C63.9212 11.233 64.1598 11.196 64.3729 11.1222C64.5888 11.0455 64.7749 10.9318 64.9311 10.7812C65.0874 10.6278 65.2081 10.4375 65.2933 10.2102L66.2649 10.483C66.1626 10.8125 65.9908 11.1023 65.7493 11.3523C65.5078 11.5994 65.2095 11.7926 64.8544 11.9318C64.4993 12.0682 64.1001 12.1364 63.657 12.1364ZM72.5334 6.92045L71.63 7.17614C71.5732 7.02557 71.4893 6.87926 71.3786 6.73722C71.2706 6.59233 71.1229 6.47301 70.9354 6.37926C70.7479 6.28551 70.5078 6.23864 70.2152 6.23864C69.8146 6.23864 69.4808 6.33097 69.2138 6.51562C68.9496 6.69744 68.8175 6.92898 68.8175 7.21023C68.8175 7.46023 68.9084 7.65767 69.0902 7.80256C69.272 7.94744 69.5561 8.06818 69.9425 8.16477L70.9141 8.40341C71.4993 8.54545 71.9354 8.76278 72.2223 9.0554C72.5092 9.34517 72.6527 9.71875 72.6527 10.1761C72.6527 10.5511 72.5447 10.8864 72.3288 11.1818C72.1158 11.4773 71.8175 11.7102 71.4339 11.8807C71.0504 12.0511 70.6044 12.1364 70.0959 12.1364C69.4283 12.1364 68.8757 11.9915 68.4382 11.7017C68.0007 11.4119 67.7237 10.9886 67.6072 10.4318L68.5618 10.1932C68.6527 10.5455 68.8246 10.8097 69.0774 10.9858C69.3331 11.1619 69.6669 11.25 70.0788 11.25C70.5476 11.25 70.9197 11.1506 71.1953 10.9517C71.4737 10.75 71.6129 10.5085 71.6129 10.2273C71.6129 10 71.5334 9.80966 71.3743 9.65625C71.2152 9.5 70.9709 9.38352 70.6413 9.30682L69.5504 9.05114C68.951 8.90909 68.5107 8.68892 68.2294 8.39062C67.951 8.08949 67.8118 7.71307 67.8118 7.26136C67.8118 6.89205 67.9155 6.56534 68.1229 6.28125C68.3331 5.99716 68.6186 5.77415 68.9794 5.61222C69.343 5.45028 69.755 5.36932 70.2152 5.36932C70.8629 5.36932 71.3714 5.51136 71.7408 5.79545C72.1129 6.07955 72.3771 6.45455 72.5334 6.92045ZM74.1665 14.4545V5.45455H75.1381V6.49432H75.2575C75.3313 6.38068 75.4336 6.2358 75.5643 6.05966C75.6978 5.88068 75.8881 5.72159 76.1353 5.58239C76.3853 5.44034 76.7234 5.36932 77.1495 5.36932C77.7006 5.36932 78.1864 5.5071 78.6069 5.78267C79.0273 6.05824 79.3555 6.44886 79.5913 6.95455C79.8271 7.46023 79.945 8.05682 79.945 8.74432C79.945 9.4375 79.8271 10.0384 79.5913 10.5469C79.3555 11.0526 79.0288 11.4446 78.6112 11.723C78.1935 11.9986 77.712 12.1364 77.1665 12.1364C76.7461 12.1364 76.4094 12.0668 76.1566 11.9276C75.9038 11.7855 75.7092 11.625 75.5728 11.446C75.4364 11.2642 75.3313 11.1136 75.2575 10.9943H75.1722V14.4545H74.1665ZM75.1552 8.72727C75.1552 9.22159 75.2276 9.65767 75.3725 10.0355C75.5174 10.4105 75.729 10.7045 76.0075 10.9176C76.2859 11.1278 76.6268 11.233 77.0302 11.233C77.4506 11.233 77.8015 11.1222 78.0827 10.9006C78.3668 10.6761 78.5799 10.375 78.7219 9.99716C78.8668 9.61648 78.9393 9.19318 78.9393 8.72727C78.9393 8.26705 78.8683 7.85227 78.7262 7.48295C78.587 7.1108 78.3754 6.81676 78.0913 6.60085C77.81 6.3821 77.4563 6.27273 77.0302 6.27273C76.6211 6.27273 76.2773 6.37642 75.9989 6.58381C75.7205 6.78835 75.5103 7.07528 75.3683 7.4446C75.2262 7.81108 75.1552 8.23864 75.1552 8.72727ZM83.4052 12.1534C82.9904 12.1534 82.614 12.0753 82.2759 11.919C81.9379 11.7599 81.6694 11.5312 81.4705 11.233C81.2717 10.9318 81.1722 10.5682 81.1722 10.142C81.1722 9.76705 81.2461 9.46307 81.3938 9.23011C81.5415 8.99432 81.739 8.80966 81.9862 8.67614C82.2333 8.54261 82.506 8.44318 82.8043 8.37784C83.1055 8.30966 83.408 8.25568 83.712 8.21591C84.1097 8.16477 84.4322 8.12642 84.6793 8.10085C84.9293 8.07244 85.1112 8.02557 85.2248 7.96023C85.3413 7.89489 85.3995 7.78125 85.3995 7.61932V7.58523C85.3995 7.16477 85.2844 6.83807 85.0543 6.60511C84.8271 6.37216 84.4819 6.25568 84.0188 6.25568C83.5387 6.25568 83.1623 6.3608 82.8896 6.57102C82.6168 6.78125 82.4251 7.00568 82.3143 7.24432L81.3597 6.90341C81.5302 6.50568 81.7575 6.19602 82.0415 5.97443C82.3285 5.75 82.641 5.59375 82.979 5.50568C83.32 5.41477 83.6552 5.36932 83.9847 5.36932C84.195 5.36932 84.4364 5.39489 84.7092 5.44602C84.9847 5.49432 85.2504 5.59517 85.506 5.74858C85.7646 5.90199 85.979 6.13352 86.1495 6.44318C86.32 6.75284 86.4052 7.16761 86.4052 7.6875V12H85.3995V11.1136H85.3484C85.2802 11.2557 85.1665 11.4077 85.0075 11.5696C84.8484 11.7315 84.6367 11.8693 84.3725 11.983C84.1083 12.0966 83.7859 12.1534 83.4052 12.1534ZM83.5586 11.25C83.9563 11.25 84.2915 11.1719 84.5643 11.0156C84.8398 10.8594 85.0472 10.6577 85.1864 10.4105C85.3285 10.1634 85.3995 9.90341 85.3995 9.63068V8.71023C85.3569 8.76136 85.2631 8.80824 85.1183 8.85085C84.9762 8.89062 84.8114 8.92614 84.6239 8.95739C84.4393 8.9858 84.2589 9.01136 84.0827 9.03409C83.9094 9.05398 83.7688 9.07102 83.6609 9.08523C83.3995 9.11932 83.1552 9.17472 82.9279 9.25142C82.7035 9.32528 82.5217 9.4375 82.3825 9.58807C82.2461 9.7358 82.1779 9.9375 82.1779 10.1932C82.1779 10.5426 82.3072 10.8068 82.5657 10.9858C82.8271 11.1619 83.158 11.25 83.5586 11.25ZM89.2464 3.27273V12H88.2408V3.27273H89.2464ZM93.56 12.1364C93.0146 12.1364 92.533 11.9986 92.1154 11.723C91.6978 11.4446 91.3711 11.0526 91.1353 10.5469C90.8995 10.0384 90.7816 9.4375 90.7816 8.74432C90.7816 8.05682 90.8995 7.46023 91.1353 6.95455C91.3711 6.44886 91.6992 6.05824 92.1197 5.78267C92.5401 5.5071 93.0259 5.36932 93.5771 5.36932C94.0032 5.36932 94.3398 5.44034 94.587 5.58239C94.837 5.72159 95.0273 5.88068 95.158 6.05966C95.2915 6.2358 95.3952 6.38068 95.4691 6.49432H95.5543V3.27273H96.56V12H95.5884V10.9943H95.4691C95.3952 11.1136 95.2901 11.2642 95.1538 11.446C95.0174 11.625 94.8228 11.7855 94.57 11.9276C94.3171 12.0668 93.9805 12.1364 93.56 12.1364ZM93.6964 11.233C94.0998 11.233 94.4407 11.1278 94.7191 10.9176C94.9975 10.7045 95.2092 10.4105 95.354 10.0355C95.4989 9.65767 95.5714 9.22159 95.5714 8.72727C95.5714 8.23864 95.5004 7.81108 95.3583 7.4446C95.2163 7.07528 95.006 6.78835 94.7276 6.58381C94.4492 6.37642 94.1055 6.27273 93.6964 6.27273C93.2702 6.27273 92.9151 6.3821 92.631 6.60085C92.3498 6.81676 92.1381 7.1108 91.9961 7.48295C91.8569 7.85227 91.7873 8.26705 91.7873 8.72727C91.7873 9.19318 91.8583 9.61648 92.0004 9.99716C92.1452 10.375 92.3583 10.6761 92.6396 10.9006C92.9237 11.1222 93.2759 11.233 93.6964 11.233ZM100.468 12.1534C100.053 12.1534 99.6765 12.0753 99.3384 11.919C99.0004 11.7599 98.7319 11.5312 98.533 11.233C98.3342 10.9318 98.2347 10.5682 98.2347 10.142C98.2347 9.76705 98.3086 9.46307 98.4563 9.23011C98.604 8.99432 98.8015 8.80966 99.0487 8.67614C99.2958 8.54261 99.5685 8.44318 99.8668 8.37784C100.168 8.30966 100.471 8.25568 100.775 8.21591C101.172 8.16477 101.495 8.12642 101.742 8.10085C101.992 8.07244 102.174 8.02557 102.287 7.96023C102.404 7.89489 102.462 7.78125 102.462 7.61932V7.58523C102.462 7.16477 102.347 6.83807 102.117 6.60511C101.89 6.37216 101.544 6.25568 101.081 6.25568C100.601 6.25568 100.225 6.3608 99.9521 6.57102C99.6793 6.78125 99.4876 7.00568 99.3768 7.24432L98.4222 6.90341C98.5927 6.50568 98.82 6.19602 99.104 5.97443C99.391 5.75 99.7035 5.59375 100.042 5.50568C100.382 5.41477 100.718 5.36932 101.047 5.36932C101.257 5.36932 101.499 5.39489 101.772 5.44602C102.047 5.49432 102.313 5.59517 102.569 5.74858C102.827 5.90199 103.042 6.13352 103.212 6.44318C103.382 6.75284 103.468 7.16761 103.468 7.6875V12H102.462V11.1136H102.411C102.343 11.2557 102.229 11.4077 102.07 11.5696C101.911 11.7315 101.699 11.8693 101.435 11.983C101.171 12.0966 100.848 12.1534 100.468 12.1534ZM100.621 11.25C101.019 11.25 101.354 11.1719 101.627 11.0156C101.902 10.8594 102.11 10.6577 102.249 10.4105C102.391 10.1634 102.462 9.90341 102.462 9.63068V8.71023C102.419 8.76136 102.326 8.80824 102.181 8.85085C102.039 8.89062 101.874 8.92614 101.686 8.95739C101.502 8.9858 101.321 9.01136 101.145 9.03409C100.972 9.05398 100.831 9.07102 100.723 9.08523C100.462 9.11932 100.218 9.17472 99.9904 9.25142C99.766 9.32528 99.5842 9.4375 99.445 9.58807C99.3086 9.7358 99.2404 9.9375 99.2404 10.1932C99.2404 10.5426 99.3697 10.8068 99.6282 10.9858C99.8896 11.1619 100.221 11.25 100.621 11.25ZM107.775 12.1364C107.229 12.1364 106.748 11.9986 106.33 11.723C105.913 11.4446 105.586 11.0526 105.35 10.5469C105.114 10.0384 104.996 9.4375 104.996 8.74432C104.996 8.05682 105.114 7.46023 105.35 6.95455C105.586 6.44886 105.914 6.05824 106.335 5.78267C106.755 5.5071 107.241 5.36932 107.792 5.36932C108.218 5.36932 108.555 5.44034 108.802 5.58239C109.052 5.72159 109.242 5.88068 109.373 6.05966C109.506 6.2358 109.61 6.38068 109.684 6.49432H109.769V3.27273H110.775V12H109.803V10.9943H109.684C109.61 11.1136 109.505 11.2642 109.369 11.446C109.232 11.625 109.038 11.7855 108.785 11.9276C108.532 12.0668 108.195 12.1364 107.775 12.1364ZM107.911 11.233C108.315 11.233 108.656 11.1278 108.934 10.9176C109.212 10.7045 109.424 10.4105 109.569 10.0355C109.714 9.65767 109.786 9.22159 109.786 8.72727C109.786 8.23864 109.715 7.81108 109.573 7.4446C109.431 7.07528 109.221 6.78835 108.942 6.58381C108.664 6.37642 108.32 6.27273 107.911 6.27273C107.485 6.27273 107.13 6.3821 106.846 6.60085C106.565 6.81676 106.353 7.1108 106.211 7.48295C106.072 7.85227 106.002 8.26705 106.002 8.72727C106.002 9.19318 106.073 9.61648 106.215 9.99716C106.36 10.375 106.573 10.6761 106.854 10.9006C107.138 11.1222 107.491 11.233 107.911 11.233ZM115.415 12.1364C114.825 12.1364 114.306 11.9957 113.86 11.7145C113.417 11.4332 113.07 11.0398 112.82 10.5341C112.573 10.0284 112.45 9.4375 112.45 8.76136C112.45 8.07955 112.573 7.48437 112.82 6.97585C113.07 6.46733 113.417 6.07244 113.86 5.79119C114.306 5.50994 114.825 5.36932 115.415 5.36932C116.006 5.36932 116.523 5.50994 116.967 5.79119C117.413 6.07244 117.759 6.46733 118.006 6.97585C118.256 7.48437 118.381 8.07955 118.381 8.76136C118.381 9.4375 118.256 10.0284 118.006 10.5341C117.759 11.0398 117.413 11.4332 116.967 11.7145C116.523 11.9957 116.006 12.1364 115.415 12.1364ZM115.415 11.233C115.864 11.233 116.234 11.1179 116.523 10.8878C116.813 10.6577 117.028 10.3551 117.167 9.98011C117.306 9.60511 117.376 9.19886 117.376 8.76136C117.376 8.32386 117.306 7.91619 117.167 7.53835C117.028 7.16051 116.813 6.85511 116.523 6.62216C116.234 6.3892 115.864 6.27273 115.415 6.27273C114.967 6.27273 114.597 6.3892 114.308 6.62216C114.018 6.85511 113.803 7.16051 113.664 7.53835C113.525 7.91619 113.455 8.32386 113.455 8.76136C113.455 9.19886 113.525 9.60511 113.664 9.98011C113.803 10.3551 114.018 10.6577 114.308 10.8878C114.597 11.1179 114.967 11.233 115.415 11.233ZM123.292 14.4545V5.45455H124.263V6.49432H124.382C124.456 6.38068 124.559 6.2358 124.689 6.05966C124.823 5.88068 125.013 5.72159 125.26 5.58239C125.51 5.44034 125.848 5.36932 126.275 5.36932C126.826 5.36932 127.311 5.5071 127.732 5.78267C128.152 6.05824 128.48 6.44886 128.716 6.95455C128.952 7.46023 129.07 8.05682 129.07 8.74432C129.07 9.4375 128.952 10.0384 128.716 10.5469C128.48 11.0526 128.154 11.4446 127.736 11.723C127.319 11.9986 126.837 12.1364 126.292 12.1364C125.871 12.1364 125.534 12.0668 125.282 11.9276C125.029 11.7855 124.834 11.625 124.698 11.446C124.561 11.2642 124.456 11.1136 124.382 10.9943H124.297V14.4545H123.292ZM124.28 8.72727C124.28 9.22159 124.353 9.65767 124.498 10.0355C124.642 10.4105 124.854 10.7045 125.132 10.9176C125.411 11.1278 125.752 11.233 126.155 11.233C126.576 11.233 126.926 11.1222 127.208 10.9006C127.492 10.6761 127.705 10.375 127.847 9.99716C127.992 9.61648 128.064 9.19318 128.064 8.72727C128.064 8.26705 127.993 7.85227 127.851 7.48295C127.712 7.1108 127.5 6.81676 127.216 6.60085C126.935 6.3821 126.581 6.27273 126.155 6.27273C125.746 6.27273 125.402 6.37642 125.124 6.58381C124.846 6.78835 124.635 7.07528 124.493 7.4446C124.351 7.81108 124.28 8.23864 124.28 8.72727ZM133.263 12.1364C132.672 12.1364 132.154 11.9957 131.708 11.7145C131.265 11.4332 130.918 11.0398 130.668 10.5341C130.421 10.0284 130.297 9.4375 130.297 8.76136C130.297 8.07955 130.421 7.48437 130.668 6.97585C130.918 6.46733 131.265 6.07244 131.708 5.79119C132.154 5.50994 132.672 5.36932 133.263 5.36932C133.854 5.36932 134.371 5.50994 134.814 5.79119C135.26 6.07244 135.607 6.46733 135.854 6.97585C136.104 7.48437 136.229 8.07955 136.229 8.76136C136.229 9.4375 136.104 10.0284 135.854 10.5341C135.607 11.0398 135.26 11.4332 134.814 11.7145C134.371 11.9957 133.854 12.1364 133.263 12.1364ZM133.263 11.233C133.712 11.233 134.081 11.1179 134.371 10.8878C134.661 10.6577 134.875 10.3551 135.015 9.98011C135.154 9.60511 135.223 9.19886 135.223 8.76136C135.223 8.32386 135.154 7.91619 135.015 7.53835C134.875 7.16051 134.661 6.85511 134.371 6.62216C134.081 6.3892 133.712 6.27273 133.263 6.27273C132.814 6.27273 132.445 6.3892 132.155 6.62216C131.865 6.85511 131.651 7.16051 131.512 7.53835C131.373 7.91619 131.303 8.32386 131.303 8.76136C131.303 9.19886 131.373 9.60511 131.512 9.98011C131.651 10.3551 131.865 10.6577 132.155 10.8878C132.445 11.1179 132.814 11.233 133.263 11.233ZM137.764 12V5.45455H138.736V6.44318H138.804C138.923 6.11932 139.139 5.85653 139.452 5.65483C139.764 5.45312 140.116 5.35227 140.509 5.35227C140.582 5.35227 140.675 5.35369 140.786 5.35653C140.896 5.35937 140.98 5.36364 141.037 5.36932V6.39205C141.003 6.38352 140.925 6.37074 140.803 6.35369C140.683 6.33381 140.557 6.32386 140.423 6.32386C140.105 6.32386 139.821 6.39062 139.571 6.52415C139.324 6.65483 139.128 6.83665 138.983 7.0696C138.841 7.29972 138.77 7.5625 138.77 7.85795V12H137.764ZM142.962 12.0682C142.752 12.0682 142.571 11.9929 142.421 11.8423C142.27 11.6918 142.195 11.5114 142.195 11.3011C142.195 11.0909 142.27 10.9105 142.421 10.7599C142.571 10.6094 142.752 10.5341 142.962 10.5341C143.172 10.5341 143.353 10.6094 143.503 10.7599C143.654 10.9105 143.729 11.0909 143.729 11.3011C143.729 11.4403 143.694 11.5682 143.623 11.6847C143.554 11.8011 143.462 11.8949 143.346 11.9659C143.232 12.0341 143.104 12.0682 142.962 12.0682ZM142.962 7.21023C142.752 7.21023 142.571 7.13494 142.421 6.98438C142.27 6.83381 142.195 6.65341 142.195 6.44318C142.195 6.23295 142.27 6.05256 142.421 5.90199C142.571 5.75142 142.752 5.67614 142.962 5.67614C143.172 5.67614 143.353 5.75142 143.503 5.90199C143.654 6.05256 143.729 6.23295 143.729 6.44318C143.729 6.58239 143.694 6.71023 143.623 6.8267C143.554 6.94318 143.462 7.03693 143.346 7.10795C143.232 7.17614 143.104 7.21023 142.962 7.21023Z" fill="black"/>
<defs>
<clipPath id="clip0_6_374">
<rect width="204" height="72" fill="white" transform="translate(0 21)"/>
</clipPath>
</defs>
</svg>
