<svg width="25" height="245" viewBox="0 0 25 245" fill="none" xmlns="http://www.w3.org/2000/svg">
<g clip-path="url(#clip0_0_212)">
<path d="M17.8109 236.517L6.25 240.767V239.187L14.6535 236.338C15.3336 236.11 15.965 235.914 16.5641 235.768C15.9165 235.589 15.3012 235.393 14.6535 235.165L6.25 232.202V230.72L17.8109 235.003V236.501V236.517Z" fill="#153A4E"/>
<path d="M17.7947 226.21H6.23383V227.659H17.7947V226.21Z" fill="#153A4E"/>
<path d="M13.2772 216.978H11.9171V212.338H16.2079C16.807 213.054 17.2604 213.787 17.568 214.552C17.8757 215.301 18.0214 216.083 18.0214 216.88C18.0214 217.971 17.7785 218.932 17.2928 219.811C16.807 220.707 16.0946 221.358 15.1878 221.814C14.2811 222.27 13.2287 222.482 12.0952 222.482C10.9618 222.482 9.90935 222.27 8.93785 221.814C7.96635 221.374 7.23772 220.723 6.76816 219.893C6.2986 219.062 6.05573 218.085 6.05573 216.994C6.05573 216.197 6.18526 215.496 6.46052 214.845C6.71959 214.21 7.10819 213.705 7.59394 213.347C8.07969 212.989 8.71117 212.696 9.50456 212.517L9.87697 213.819C9.29407 213.982 8.82451 214.194 8.48448 214.438C8.14446 214.682 7.88539 215.041 7.69109 215.48C7.4806 215.936 7.38345 216.441 7.38345 216.994C7.38345 217.662 7.4806 218.232 7.70728 218.72C7.91777 219.193 8.20922 219.6 8.54925 219.893C8.88927 220.186 9.27787 220.414 9.69886 220.577C10.4113 220.853 11.1885 221 12.0305 221C13.0667 221 13.9249 220.837 14.6211 220.495C15.3174 220.153 15.8355 219.665 16.1594 219.03C16.4994 218.395 16.6613 217.695 16.6613 216.978C16.6613 216.343 16.5318 215.741 16.2889 215.138C16.0298 214.552 15.7546 214.096 15.4631 213.771H13.3096V216.994L13.2772 216.978Z" fill="#153A4E"/>
<path d="M17.7947 206.981H6.23383V208.43H17.7947V206.981Z" fill="#153A4E"/>
<path d="M17.8109 202.943H6.23383V201.494H16.4346V196.088H17.8109V202.943Z" fill="#153A4E"/>
<path d="M17.8109 194.036L6.25 189.819V188.256L17.8109 183.762V185.423L14.3135 186.709V191.285L17.8109 192.49V194.02V194.036ZM13.0667 190.878V187.149L9.86075 188.289C8.88925 188.631 8.07966 188.891 7.46438 189.07C8.2092 189.217 8.95402 189.412 9.68264 189.656L13.0667 190.861V190.878Z" fill="#153A4E"/>
<path d="M17.8109 181.076H6.23383V177.298C6.23383 176.435 6.29859 175.784 6.39574 175.344C6.54147 174.709 6.83292 174.172 7.22152 173.732C7.73965 173.162 8.40351 172.723 9.19691 172.43C9.9903 172.137 10.9132 171.99 11.9495 171.99C12.8239 171.99 13.6011 172.088 14.2811 172.283C14.9612 172.462 15.5279 172.723 15.965 173.016C16.4022 173.325 16.7584 173.651 17.0175 174.025C17.2766 174.384 17.4709 174.823 17.6004 175.328C17.7299 175.849 17.7947 176.435 17.7947 177.086V181.043L17.8109 181.076ZM16.4346 179.61V177.266C16.4346 176.533 16.3698 175.979 16.2241 175.556C16.0784 175.149 15.8841 174.823 15.6088 174.579C15.2526 174.237 14.7669 173.96 14.1516 173.765C13.5363 173.569 12.7915 173.488 11.9171 173.488C10.7027 173.488 9.77981 173.667 9.13214 174.042C8.48447 174.432 8.0473 174.872 7.82061 175.426C7.67489 175.8 7.59393 176.435 7.59393 177.298V179.594H16.4184L16.4346 179.61Z" fill="#153A4E"/>
<path d="M12.1761 168.929C10.2655 168.929 8.7597 168.441 7.67485 167.464C6.59001 166.47 6.03949 165.217 6.03949 163.67C6.03949 162.66 6.29856 161.749 6.8005 160.934C7.31863 160.12 8.03107 159.502 8.93781 159.078C9.86073 158.655 10.8808 158.443 12.0466 158.443C13.2124 158.443 14.2649 158.655 15.204 159.111C16.1269 159.567 16.8232 160.202 17.2927 161.016C17.7785 161.846 18.0214 162.725 18.0214 163.67C18.0214 164.712 17.7461 165.624 17.228 166.438C16.6936 167.252 15.9812 167.871 15.0745 168.294C14.1677 168.701 13.1962 168.929 12.1761 168.929ZM12.2085 167.431C13.5848 167.431 14.6859 167.073 15.4954 166.356C16.305 165.64 16.6936 164.744 16.6936 163.686C16.6936 162.628 16.2888 161.7 15.4793 161C14.6697 160.299 13.5201 159.941 12.0466 159.941C11.1075 159.941 10.2655 160.088 9.56928 160.397C8.87304 160.69 8.32252 161.13 7.93392 161.716C7.54532 162.302 7.36721 162.953 7.36721 163.67C7.36721 164.696 7.72343 165.575 8.48444 166.324C9.22926 167.073 10.476 167.431 12.2247 167.431" fill="#153A4E"/>
<path d="M4.80896 150.644L4.728 149.83C5.08421 149.781 5.35947 149.7 5.56997 149.569C5.81284 149.423 5.97476 149.211 6.12048 148.918C6.26621 148.625 6.33098 148.283 6.33098 147.909C6.33098 147.583 6.2824 147.29 6.18525 147.046C6.07191 146.785 5.92618 146.606 5.74807 146.476C5.56997 146.345 5.37567 146.297 5.14898 146.297C4.9223 146.297 4.74419 146.345 4.58227 146.476C4.42035 146.59 4.29082 146.801 4.17748 147.062C4.09652 147.241 3.98318 147.632 3.83745 148.234C3.67554 148.837 3.546 149.26 3.40028 149.488C3.23836 149.814 3.01168 150.042 2.75261 150.188C2.49354 150.335 2.20209 150.416 1.89445 150.416C1.53823 150.416 1.2144 150.318 0.906753 150.139C0.615302 149.944 0.372427 149.667 0.21051 149.309C0.0485925 148.951 -0.0161743 148.56 -0.0161743 148.104C-0.0161743 147.632 0.0647842 147.176 0.226701 146.818C0.388618 146.443 0.631494 146.166 0.955328 145.955C1.27916 145.759 1.63538 145.645 2.04017 145.629L2.10494 146.459C1.66776 146.508 1.34393 146.655 1.11725 146.915C0.890561 147.176 0.777219 147.55 0.777219 148.055C0.777219 148.576 0.890561 148.967 1.08486 149.195C1.27916 149.439 1.52204 149.569 1.81349 149.569C2.07256 149.569 2.26686 149.472 2.42877 149.293C2.59069 149.13 2.75261 148.69 2.93072 147.99C3.10883 147.274 3.25455 146.801 3.36789 146.541C3.56219 146.166 3.78888 145.873 4.08033 145.694C4.35559 145.499 4.69561 145.417 5.06802 145.417C5.42424 145.417 5.78046 145.531 6.10429 145.727C6.42813 145.922 6.68719 146.215 6.8653 146.59C7.04341 146.948 7.14056 147.371 7.14056 147.843C7.14056 148.43 7.04341 148.934 6.8653 149.341C6.68719 149.748 6.41193 150.058 6.03953 150.286C5.66712 150.514 5.26232 150.628 4.79276 150.628" fill="#153A4E"/>
<path d="M0.113342 139.963V139.1H4.0965C4.79275 139.1 5.34326 139.165 5.74806 139.328C6.15285 139.474 6.49288 139.735 6.73575 140.142C6.99482 140.533 7.12435 141.037 7.12435 141.656C7.12435 142.275 7.01101 142.78 6.78433 143.17C6.55764 143.561 6.25 143.838 5.81282 144.001C5.39184 144.164 4.82513 144.245 4.0965 144.245H0.113342V143.382H4.0965C4.6956 143.382 5.13277 143.333 5.42422 143.236C5.69948 143.122 5.92617 142.942 6.08808 142.682C6.23381 142.421 6.31477 142.112 6.31477 141.738C6.31477 141.103 6.16904 140.647 5.8614 140.37C5.55376 140.093 4.95466 139.963 4.0965 139.963H0.113342Z" fill="#153A4E"/>
<path d="M7.0272 137.651H0.113342V135.192C0.113342 134.752 0.129534 134.427 0.178109 134.199C0.242876 133.873 0.340026 133.613 0.518135 133.385C0.66386 133.157 0.874353 132.994 1.182 132.864C1.45725 132.733 1.78109 132.668 2.12111 132.668C2.70402 132.668 3.20596 132.847 3.61075 133.206C4.01554 133.564 4.22604 134.215 4.22604 135.143V136.82H7.04339V137.683L7.0272 137.651ZM3.40026 136.788V135.094C3.40026 134.541 3.28692 134.134 3.07643 133.906C2.84974 133.678 2.5421 133.564 2.1535 133.564C1.86205 133.564 1.61917 133.629 1.40868 133.759C1.19819 133.906 1.06865 134.085 0.987695 134.297C0.955311 134.443 0.93912 134.72 0.93912 135.127V136.804H3.40026V136.788Z" fill="#153A4E"/>
<path d="M7.0272 131.529H0.113342V126.774H0.922928V130.649H3.04404V127.035H3.85363V130.649H6.20143V126.628H7.0272V131.529Z" fill="#153A4E"/>
<path d="M7.0272 125.423H0.113342V122.524C0.113342 121.938 0.178109 121.499 0.291451 121.206C0.420985 120.896 0.631477 120.652 0.955311 120.457C1.26295 120.294 1.61917 120.196 1.99158 120.196C2.49352 120.196 2.89832 120.343 3.22215 120.636C3.56218 120.929 3.77267 121.401 3.85363 122.036C3.96697 121.808 4.08031 121.629 4.19365 121.515C4.45272 121.271 4.74417 121.026 5.11658 120.798L6.99482 119.659V120.75L5.55376 121.613C5.14896 121.857 4.82513 122.069 4.59845 122.231C4.37176 122.394 4.22604 122.541 4.12889 122.671C4.04793 122.785 3.98316 122.931 3.95078 123.062C3.93459 123.159 3.91839 123.322 3.91839 123.55V124.56H6.99482V125.423H7.0272ZM3.17358 124.56V122.687C3.17358 122.296 3.125 121.987 3.02785 121.759C2.96308 121.531 2.80117 121.368 2.62306 121.254C2.42876 121.14 2.21826 121.075 1.99158 121.075C1.66775 121.075 1.39249 121.189 1.182 121.417C0.971503 121.645 0.874353 122.003 0.874353 122.492V124.576H3.17358V124.56Z" fill="#153A4E"/>
<path d="M7.0272 117.819H0.113342V118.682H7.0272V117.819Z" fill="#153A4E"/>
<path d="M7.0272 116.288H0.113342V115.409L5.53757 111.957H0.113342V111.127H7.0272V112.022L1.58679 115.458H7.0272V116.288Z" fill="#153A4E"/>
<path d="M7.0272 108.001H0.922928V110.166H0.113342V104.972H0.922928V107.138H7.0272V108.001Z" fill="#153A4E"/>
<path d="M7.0272 104.077H0.113342V99.3221H0.922928V103.197H3.04404V99.5664H3.85363V103.197H6.20143V99.1756H7.0272V104.077Z" fill="#153A4E"/>
<path d="M7.0272 97.987H0.113342V97.1077L5.53757 93.6559H0.113342V92.8092H7.0272V93.721L1.58679 97.1566H7.0272V97.987Z" fill="#153A4E"/>
<path d="M7.0272 91.3601H0.113342V89.0968C0.113342 88.5758 0.145726 88.185 0.210493 87.9245C0.307643 87.55 0.46956 87.2406 0.696244 86.9638C1.00389 86.6219 1.39249 86.3614 1.87824 86.1986C2.36399 86.0358 2.89832 85.9381 3.5136 85.9381C4.04793 85.9381 4.51749 85.9869 4.90609 86.1172C5.31088 86.2311 5.63472 86.3777 5.90997 86.5568C6.16904 86.7359 6.37953 86.9313 6.54145 87.1592C6.68718 87.3709 6.81671 87.6314 6.89767 87.9408C6.96244 88.2501 7.01101 88.6084 7.01101 88.9991V91.3601H7.0272ZM6.20143 90.4971V89.0968C6.20143 88.6735 6.16904 88.3316 6.07189 88.071C5.99093 87.8268 5.87759 87.6314 5.71567 87.4849C5.48899 87.2732 5.21373 87.1104 4.84132 86.9964C4.46891 86.8824 4.03174 86.8336 3.5136 86.8336C2.78497 86.8336 2.23446 86.9476 1.84586 87.1755C1.45725 87.4035 1.19819 87.6803 1.06865 88.0059C0.987695 88.2339 0.93912 88.6084 0.93912 89.1294V90.5134H6.21762L6.20143 90.4971Z" fill="#153A4E"/>
<path d="M7.0272 84.7332H0.113342V79.995H0.922928V83.8702H3.04404V80.2555H3.85363V83.8702H6.20143V79.8485H7.0272V84.7332Z" fill="#153A4E"/>
<path d="M7.0272 78.6599H0.113342V77.7806L5.53757 74.3288H0.113342V73.4984H7.0272V74.3939L1.58679 77.8295H7.0272V78.6599Z" fill="#153A4E"/>
<path d="M4.59845 67.3762L4.84132 66.497C5.60233 66.6761 6.16904 67.0017 6.55764 67.4739C6.96244 67.9461 7.14054 68.5323 7.14054 69.1998C7.14054 69.8674 6.99482 70.4699 6.68718 70.9258C6.37953 71.3654 5.95855 71.7073 5.35946 71.9353C4.79275 72.1632 4.17746 72.2772 3.5136 72.2772C2.80117 72.2772 2.16969 72.1469 1.61917 71.8864C1.08484 71.6259 0.680052 71.2514 0.404793 70.7792C0.129534 70.307 0 69.786 0 69.1998C0 68.5486 0.178109 67.995 0.518135 67.5553C0.874352 67.0994 1.3601 66.7901 2.00777 66.6272L2.21826 67.4902C1.71632 67.6367 1.34391 67.8484 1.11723 68.1415C0.890544 68.4346 0.76101 68.7928 0.76101 69.2324C0.76101 69.7372 0.906736 70.1605 1.14961 70.5024C1.40868 70.8444 1.7487 71.0723 2.16969 71.2189C2.60687 71.3491 3.04404 71.4305 3.49741 71.4305C4.08031 71.4305 4.59845 71.3491 5.03562 71.1863C5.4728 71.0235 5.79663 70.7629 6.02332 70.4373C6.23381 70.0954 6.34715 69.7209 6.34715 69.3138C6.34715 68.8253 6.20143 68.4183 5.90997 68.0764C5.60233 67.7344 5.18135 67.5228 4.58225 67.4088" fill="#153A4E"/>
<path d="M7.0272 64.4128H0.113342V65.2921H7.0272V64.4128Z" fill="#153A4E"/>
<path d="M7.0272 63.5987L0.113342 61.0912V60.1469L7.0272 57.4766V58.4698L4.93847 59.2351V61.9542L7.0272 62.6869V63.5987ZM4.19365 61.71V59.4793L2.28303 60.1632C1.68394 60.3585 1.21438 60.5214 0.841969 60.6191C1.27915 60.7168 1.71632 60.8307 2.16969 60.9773L4.19365 61.6937V61.71Z" fill="#153A4E"/>
<path d="M7.0272 54.6923H0.113342V50.2798H0.922928V53.8293H3.07643V50.752H3.88601V53.8293H7.0272V54.6923Z" fill="#153A4E"/>
<path d="M7.0272 48.1468H0.113342V49.0098H7.0272V48.1468Z" fill="#153A4E"/>
<path d="M7.0272 46.6163H0.113342V45.737L5.53757 42.2852H0.113342V41.4548H7.0272V42.3503L1.58679 45.7859H7.0272V46.6163Z" fill="#153A4E"/>
<path d="M7.0272 40.7221L0.113342 38.1983V37.2702L7.0272 34.5836V35.5769L4.93847 36.3421V39.0776L7.0272 39.794V40.7221ZM4.19365 38.817V36.5864L2.28303 37.2702C1.68394 37.4819 1.21438 37.6284 0.841969 37.7424C1.27915 37.8238 1.71632 37.9541 2.16969 38.0843L4.19365 38.8008V38.817Z" fill="#153A4E"/>
<path d="M7.0272 33.8998H0.113342V33.0205L5.53757 29.585H0.113342V28.7383H7.0272V29.6338L1.58679 33.0694H7.0272V33.8998Z" fill="#153A4E"/>
<path d="M4.59845 22.6161L4.84132 21.7532C5.60233 21.9323 6.16904 22.2579 6.55764 22.7301C6.96244 23.2023 7.14054 23.7722 7.14054 24.4723C7.14054 25.1725 6.99482 25.7423 6.68718 26.182C6.37953 26.6216 5.95855 26.9635 5.35946 27.1915C4.79275 27.4194 4.17746 27.5334 3.5136 27.5334C2.80117 27.5334 2.16969 27.4031 1.61917 27.1426C1.08484 26.8821 0.680052 26.5076 0.404793 26.0354C0.129534 25.5632 0 25.0259 0 24.4398C0 23.7722 0.178109 23.2349 0.518135 22.779C0.874352 22.3393 1.3601 22.03 2.00777 21.8346L2.21826 22.6975C1.71632 22.8441 1.34391 23.072 1.11723 23.3488C0.890544 23.6419 0.76101 24.0001 0.76101 24.4398C0.76101 24.9445 0.906736 25.3678 1.14961 25.7098C1.40868 26.0517 1.7487 26.2797 2.16969 26.4262C2.60687 26.5565 3.04404 26.6379 3.49741 26.6379C4.08031 26.6379 4.59845 26.5565 5.03562 26.3936C5.4728 26.2308 5.79663 25.9703 6.02332 25.6446C6.23381 25.3027 6.34715 24.9282 6.34715 24.5212C6.34715 24.0327 6.20143 23.6256 5.90997 23.3C5.60233 22.9581 5.18135 22.7301 4.58225 22.6161" fill="#153A4E"/>
<path d="M7.0272 19.669H0.113342V20.532H7.0272V19.669Z" fill="#153A4E"/>
<path d="M7.0272 18.1222H0.113342V13.3841H0.922928V17.243H3.04404V13.6283H3.85363V17.243H6.20143V13.2212H7.0272V18.1222Z" fill="#153A4E"/>
<path d="M7.0272 12.0163H0.113342V9.1181C0.113342 8.53193 0.178109 8.09231 0.291451 7.78295C0.420985 7.47358 0.631477 7.24563 0.955311 7.05024C1.26295 6.87114 1.61917 6.77344 1.99158 6.77344C2.49352 6.77344 2.89832 6.91998 3.22215 7.22935C3.56218 7.52243 3.77267 7.99462 3.85363 8.62963C3.96697 8.40168 4.08031 8.22257 4.19365 8.10859C4.45272 7.84808 4.74417 7.62012 5.11658 7.39217L6.99482 6.26869V7.35961L5.55376 8.22257C5.14896 8.4668 4.82513 8.69476 4.59845 8.8413C4.37176 9.00412 4.22604 9.15066 4.12889 9.28092C4.04793 9.41118 3.98316 9.54144 3.95078 9.6717C3.93459 9.76939 3.91839 9.93221 3.91839 10.1602V11.1697H6.99482V12.0326L7.0272 12.0163ZM3.17358 11.1534V9.28092C3.17358 8.89014 3.125 8.58078 3.02785 8.35283C2.96308 8.12488 2.80117 7.96205 2.62306 7.83179C2.42876 7.71782 2.21826 7.65269 1.99158 7.65269C1.66775 7.65269 1.39249 7.76666 1.182 7.99462C0.971503 8.22257 0.874353 8.58078 0.874353 9.06925V11.1371H3.17358V11.1534Z" fill="#153A4E"/>
<path d="M7.0272 6.13843L0.113342 3.63096V2.68658L7.0272 0V0.993221L4.93847 1.75849V4.49392L7.0272 5.21034V6.13843ZM4.19365 4.24968V2.03529L2.28303 2.71915C1.68394 2.93082 1.21438 3.07736 0.841969 3.17505C1.27915 3.25646 1.71632 3.38672 2.16969 3.53326L4.19365 4.24968Z" fill="#153A4E"/>
<path d="M18.6043 105.347H11.6904V103.1C11.6904 102.579 11.739 102.188 11.7876 101.927C11.8685 101.553 12.0466 101.243 12.2895 100.967C12.5972 100.625 12.9858 100.364 13.4715 100.201C13.9573 100.022 14.5078 99.9408 15.1069 99.9408C15.6412 99.9408 16.1108 99.9897 16.5156 100.104C16.9204 100.218 17.2604 100.364 17.5194 100.543C17.7947 100.722 17.989 100.918 18.1347 101.146C18.2966 101.357 18.41 101.618 18.4909 101.911C18.5719 102.22 18.6043 102.562 18.6043 102.969V105.33V105.347ZM17.7947 104.484V103.083C17.7947 102.644 17.7461 102.318 17.649 102.058C17.568 101.813 17.4547 101.618 17.2928 101.471C17.0661 101.276 16.7908 101.113 16.4184 100.999C16.0622 100.885 15.6088 100.82 15.0907 100.82C14.3621 100.82 13.8115 100.934 13.4229 101.146C13.0343 101.374 12.7753 101.65 12.6457 101.976C12.5648 102.204 12.5 102.579 12.5 103.1V104.484H17.7947Z" fill="#153A4E"/>
<path d="M18.6043 98.7197H11.6904V93.9978H12.5162V97.8567H14.6211V94.242H15.4307V97.8567H17.7947V93.835H18.6043V98.7197Z" fill="#153A4E"/>
<path d="M16.1917 85.417L16.4184 84.5541C17.1794 84.7332 17.7461 85.0588 18.1347 85.531C18.5233 86.0032 18.7176 86.5894 18.7176 87.2569C18.7176 87.9245 18.5719 88.5432 18.2805 88.9829C17.9728 89.4388 17.5356 89.7644 16.9527 90.0086C16.386 90.2366 15.7545 90.3506 15.0907 90.3506C14.3783 90.3506 13.7468 90.2203 13.2124 89.9598C12.6781 89.6993 12.2895 89.3248 11.9981 88.8526C11.7228 88.3804 11.5771 87.8431 11.5771 87.2569C11.5771 86.5894 11.7552 86.052 12.0952 85.5961C12.4514 85.1565 12.9372 84.8309 13.5849 84.668L13.7954 85.5147C13.2934 85.6775 12.9372 85.8892 12.6943 86.1823C12.4676 86.4754 12.3543 86.8336 12.3543 87.2732C12.3543 87.7617 12.4838 88.2013 12.7429 88.5432C13.002 88.8689 13.342 89.1131 13.763 89.2597C14.184 89.3899 14.6373 89.455 15.0907 89.455C15.6736 89.455 16.1917 89.3736 16.6289 89.2108C17.0661 89.048 17.3899 88.8037 17.6166 88.4618C17.8271 88.1199 17.9404 87.7454 17.9404 87.3383C17.9404 86.8499 17.7947 86.4428 17.5033 86.1172C17.1956 85.7752 16.7584 85.5473 16.1755 85.4333" fill="#153A4E"/>
<path d="M15.2364 83.7399C14.0868 83.7399 13.1963 83.4469 12.5486 82.877C11.9009 82.2908 11.5771 81.5255 11.5771 80.6137C11.5771 80.0113 11.7228 79.474 12.0466 78.9855C12.3381 78.497 12.7753 78.1388 13.3096 77.8783C13.8601 77.6341 14.4754 77.5038 15.1716 77.5038C15.8679 77.5038 16.4994 77.6341 17.0499 77.9109C17.6004 78.1714 18.0214 78.5622 18.3128 79.0506C18.5881 79.5391 18.7338 80.0764 18.7338 80.6463C18.7338 81.265 18.5881 81.8186 18.2643 82.3071C17.9404 82.7956 17.5194 83.1538 16.9851 83.4143C16.4346 83.6748 15.8679 83.7888 15.2526 83.7888M15.2688 82.8933C16.0946 82.8933 16.7584 82.6816 17.228 82.2583C17.7137 81.8349 17.9566 81.2976 17.9566 80.6626C17.9566 80.0276 17.7137 79.474 17.228 79.0506C16.7422 78.6273 16.0622 78.4156 15.1716 78.4156C14.6049 78.4156 14.1192 78.5133 13.6982 78.6924C13.2772 78.8715 12.9696 79.1321 12.7105 79.474C12.4838 79.8159 12.3705 80.2067 12.3705 80.6463C12.3705 81.2487 12.5972 81.7861 13.0343 82.2257C13.4715 82.6653 14.2325 82.8933 15.2688 82.8933Z" fill="#153A4E"/>
<path d="M18.6043 76.4129H11.6904V75.5337H17.7947V72.3098H18.6043V76.4129Z" fill="#153A4E"/>
<path d="M15.2364 71.5445C14.0868 71.5445 13.1963 71.2514 12.5486 70.6652C11.9009 70.0791 11.5771 69.3301 11.5771 68.3857C11.5771 67.7833 11.7228 67.246 12.0466 66.7575C12.3381 66.269 12.7753 65.8945 13.3096 65.634C13.8601 65.3898 14.4754 65.2595 15.1716 65.2595C15.8679 65.2595 16.4994 65.4061 17.0499 65.6666C17.6004 65.9434 18.0214 66.3179 18.3128 66.8063C18.5881 67.2948 18.7338 67.8321 18.7338 68.402C18.7338 69.0207 18.5881 69.5743 18.2643 70.0465C17.9404 70.535 17.5194 70.9095 16.9851 71.1537C16.4346 71.398 15.8679 71.5282 15.2526 71.5282M15.2688 70.6327C16.0946 70.6327 16.7584 70.4373 17.228 69.9977C17.7137 69.5743 17.9566 69.037 17.9566 68.402C17.9566 67.767 17.7137 67.2134 17.228 66.7901C16.7422 66.3667 16.0622 66.155 15.1716 66.155C14.6049 66.155 14.1192 66.2527 13.6982 66.4318C13.2772 66.6109 12.9696 66.8715 12.7105 67.2134C12.4838 67.5553 12.3705 67.9461 12.3705 68.3857C12.3705 69.0045 12.5972 69.5255 13.0343 69.9651C13.4715 70.421 14.2325 70.6327 15.2688 70.6327Z" fill="#153A4E"/>
<path d="M18.6043 64.1849H11.6904V62.866L16.5803 61.3192C17.0337 61.1727 17.3737 61.075 17.6004 61.0098C17.3413 60.9284 16.9689 60.8144 16.4994 60.6679L11.6904 59.0885V57.9162H18.6043V58.7466H12.8238L18.6043 60.6516V61.4332L12.7267 63.3219H18.6043V64.1686V64.1849Z" fill="#153A4E"/>
<path d="M18.6043 56.5648H11.6904V54.1061C11.6904 53.6014 11.7552 53.1943 11.9009 52.9012C12.0466 52.5919 12.2571 52.3639 12.5486 52.1848C12.84 52.0057 13.1477 51.9243 13.4553 51.9243C13.763 51.9243 14.022 52.0057 14.2973 52.1685C14.5564 52.3151 14.7669 52.543 14.9288 52.8361C15.0421 52.4453 15.2526 52.136 15.5441 51.9243C15.8517 51.7126 16.1917 51.5987 16.5965 51.5987C16.9204 51.5987 17.228 51.6638 17.5033 51.8103C17.7785 51.9406 17.989 52.0871 18.1509 52.2825C18.2966 52.4616 18.41 52.7059 18.4909 52.9989C18.5719 53.2757 18.6043 53.6339 18.6043 54.0573V56.5648ZM14.5887 55.7018V54.2852C14.5887 53.8945 14.5887 53.6177 14.5078 53.4548C14.443 53.2432 14.3297 53.0803 14.1678 52.9664C14.0058 52.8524 13.7954 52.8036 13.5525 52.8036C13.3096 52.8036 13.1315 52.8524 12.9534 52.9664C12.7753 53.0803 12.6619 53.2106 12.5972 53.4223C12.5324 53.6177 12.5 53.9433 12.5 54.4155V55.7344H14.5887V55.7018ZM17.7947 55.7018V54.0573C17.7947 53.7805 17.7947 53.5851 17.7623 53.4711C17.7137 53.2595 17.6652 53.1129 17.5842 52.9827C17.4871 52.8361 17.3575 52.7384 17.2118 52.6407C17.0337 52.5593 16.8394 52.5105 16.6127 52.5105C16.3536 52.5105 16.127 52.5756 15.9489 52.6896C15.7707 52.8198 15.625 52.9989 15.5441 53.2106C15.4793 53.4223 15.4307 53.7479 15.4307 54.1713V55.6855H17.8109L17.7947 55.7018Z" fill="#153A4E"/>
<path d="M18.6043 49.4168H11.6904V50.2798H18.6043V49.4168Z" fill="#153A4E"/>
<path d="M18.6043 48.6027L11.6904 46.0952V45.1509L18.6043 42.4643V43.4575L16.5156 44.2228V46.9582L18.6043 47.6909V48.6027ZM15.7545 46.714V44.4996L13.8439 45.1834C13.2772 45.3788 12.7915 45.5416 12.4191 45.6393C12.8562 45.7207 13.3096 45.851 13.7306 45.9975L15.7545 46.714Z" fill="#153A4E"/>
<path d="M2.29921 155.691H0.356201V245.016H2.29921V155.691Z" fill="#153A4E"/>
<path d="M25 155.691H23.057V245.016H25V155.691Z" fill="#153A4E"/>
</g>
<defs>
<clipPath id="clip0_0_212">
<rect width="25" height="245" fill="white"/>
</clipPath>
</defs>
</svg>
