<svg width="143" height="145" viewBox="0 0 143 145" fill="none" xmlns="http://www.w3.org/2000/svg">
<circle cx="71.8674" cy="73.7206" r="37.6419" fill="#D3EEF3" stroke="#D3EEF3" stroke-width="3.8055"/>
<circle cx="71.8679" cy="73.7206" r="69.3657" stroke="#D3EEF3" stroke-width="3.35297"/>
<path d="M96.2655 64.9955C97.1939 66.4646 96.66 68.4572 95.1215 69.2653L64.3225 87.0471C62.8533 87.9755 60.8608 87.4416 60.0527 85.903L51.1618 70.5035C50.2334 69.0343 50.7673 67.0418 52.3059 66.2337C53.775 65.3053 55.7676 65.8392 56.5757 67.3778L63.869 80.0102L91.9957 63.8514C93.4649 62.923 95.4574 63.4569 96.2655 64.9955Z" fill="white"/>
<path d="M29.6376 104.274C28.9703 104.301 28.2878 104.121 27.651 103.707C27.0142 103.294 26.38 102.629 25.8777 101.766L24.8048 99.9617L20.6126 102.422L19.3012 100.217L30.1877 93.7538L32.5721 97.7633C33.0743 98.6261 33.3609 99.4001 33.3962 100.171C33.4316 100.943 33.3122 101.6 33.0026 102.229C32.6497 102.841 32.2031 103.312 31.5408 103.695C30.9393 104.053 30.305 104.246 29.6376 104.274ZM28.7627 101.744C29.2118 101.878 29.7066 101.779 30.1862 101.472C31.2495 100.851 31.4324 99.9173 30.6993 98.7576L29.6517 97.0142L26.505 98.8964L27.5526 100.64C27.9103 101.241 28.3136 101.609 28.7627 101.744Z" fill="#D3EEF3"/>
<path d="M33.3302 115.028L29.8242 111.414L27.5175 112.482L25.6834 110.566L37.9551 105.026L40.0125 107.135L34.0753 119.22L32.198 117.286L33.3302 115.028ZM34.3201 113.115L36.8406 108.099L31.7832 110.455L34.3201 113.115Z" fill="#D3EEF3"/>
<path d="M49.2078 118.492C49.2485 117.903 49.0812 117.33 48.792 116.807C48.5029 116.284 48.0564 115.898 47.4881 115.563C46.8335 115.193 46.1687 114.969 45.5192 114.954C44.8696 114.939 44.1921 115.113 43.6338 115.489C43.0324 115.847 42.5071 116.387 42.1009 117.128C41.6517 117.851 41.4536 118.576 41.4028 119.312C41.3696 120.005 41.5015 120.665 41.8591 121.266C42.1736 121.85 42.714 122.375 43.3686 122.746C44.221 123.248 45.0076 123.421 45.8145 123.299C46.6214 123.178 47.3446 122.769 47.9841 122.074L44.2648 119.836L45.2521 118.174L51.1153 121.699L49.9782 123.602C49.3996 124.272 48.6408 124.766 47.7704 125.165C46.9178 125.52 45.9891 125.692 45.0021 125.639C44.015 125.585 43.0306 125.28 42.1097 124.699C41.0593 124.065 40.2703 123.286 39.6743 122.283C39.0782 121.281 38.8373 120.273 38.8578 119.121C38.8783 117.97 39.2185 116.899 39.8531 115.848C40.4876 114.798 41.2845 113.966 42.2691 113.413C43.2537 112.86 44.322 112.594 45.474 112.614C46.6259 112.635 47.6966 112.975 48.7038 113.592C49.9089 114.341 50.7918 115.259 51.3777 116.409C51.9205 117.541 52.0293 118.746 51.7474 120.042L49.2078 118.492Z" fill="#D3EEF3"/>
<path d="M59.2436 129.034L54.3722 127.632L52.9128 129.705L50.3476 128.951L58.2308 118.021L61.0725 118.839L61.9301 132.31L59.3649 131.556L59.2436 129.034ZM59.1704 126.885L58.8645 121.259L55.6209 125.826L59.1704 126.885Z" fill="#D3EEF3"/>
<path d="M73.9569 121.12C74.9388 121.676 75.7277 122.455 76.2376 123.422C76.7474 124.389 76.9958 125.5 76.9651 126.799C76.9522 128.055 76.6374 129.187 76.0561 130.108C75.4749 131.029 74.6704 131.757 73.6605 132.249C72.6505 132.741 71.4528 132.954 70.1537 132.923L65.7108 132.808L66.0406 120.129L70.4834 120.244C71.7826 120.275 72.9573 120.607 73.9569 121.12ZM73.227 129.749C73.9706 129.047 74.3362 128.037 74.3847 126.695C74.4154 125.395 74.0883 124.353 73.4033 123.566C72.7006 122.822 71.6654 122.396 70.3663 122.365L68.5648 122.329L68.3399 130.713L70.1414 130.748C71.4228 130.822 72.4657 130.495 73.227 129.749Z" fill="#D3EEF3"/>
<path d="M83.1985 131.385C82.1101 131.088 81.146 130.489 80.357 129.71C79.568 128.931 78.9897 127.885 78.7337 126.67C78.4167 125.48 78.4373 124.328 78.7952 123.214C79.1532 122.1 79.7345 121.179 80.5567 120.408C81.379 119.637 82.4067 119.102 83.5359 118.81C84.7082 118.536 85.817 118.539 86.9055 118.836C87.994 119.133 88.9149 119.715 89.7292 120.555C90.5004 121.377 91.0534 122.361 91.3526 123.595C91.6517 124.828 91.6312 125.98 91.291 127.05C90.9508 128.121 90.3949 129.103 89.5296 129.856C88.7073 130.628 87.6796 131.163 86.5504 131.454C85.439 131.703 84.287 131.682 83.1985 131.385ZM87.8831 128.22C88.3729 127.765 88.6826 127.136 88.8629 126.454C89.0432 125.771 89.0078 125 88.7999 124.157C88.592 123.315 88.2521 122.67 87.7726 122.12C87.2932 121.569 86.7427 121.191 86.1033 121.028C85.4817 120.823 84.7712 120.833 84.0328 121.033C83.2944 121.233 82.6676 121.53 82.1778 121.984C81.688 122.438 81.353 123.007 81.198 123.75C81.0431 124.493 81.0531 125.204 81.261 126.046C81.4689 126.889 81.791 127.576 82.2705 128.127C82.7499 128.678 83.3005 129.056 83.9399 129.219C84.6046 129.442 85.2719 129.414 86.0535 129.232C86.7919 129.031 87.3755 128.717 87.8831 128.22Z" fill="#D3EEF3"/>
<path d="M47.5845 20.109L53.8294 31.1579L51.5988 32.4084L47.5404 25.237L48.645 34.0673L46.9981 35.0032L39.9681 29.5339L44.0265 36.7052L41.7959 37.9557L35.5511 26.9069L38.0608 25.4687L46.1918 31.6944L45.0494 21.4863L47.5845 20.109Z" fill="#D3EEF3"/>
<path d="M55.4174 19.9558L56.2262 23.0135L60.3522 21.9384L60.8694 23.8669L56.7435 24.942L57.5853 28.1646L62.2238 26.9475L62.7664 28.9369L55.6437 30.7955L52.4261 18.5216L59.5489 16.6631L60.0915 18.6525L55.4174 19.9558Z" fill="#D3EEF3"/>
<path d="M71.9643 16.531C72.9817 17.0006 73.7884 17.7366 74.3591 18.6781C74.9298 19.6196 75.2214 20.7487 75.2694 21.9794C75.2996 23.2531 75.0457 24.3594 74.5507 25.3159C74.0126 26.2546 73.2766 27.0613 72.2489 27.5965C71.2643 28.1495 70.092 28.4233 68.7573 28.4789L64.3118 28.615L63.9742 15.9637L68.4197 15.8275C69.7544 15.772 70.9215 16.0005 71.9643 16.531ZM71.6937 25.1479C72.4119 24.3843 72.7343 23.3567 72.7219 22.0398C72.7094 20.7229 72.2783 19.6876 71.5578 18.9871C70.7942 18.2689 69.7844 17.9033 68.4498 17.9589L66.6127 18.0093L66.8471 26.3801L68.641 26.3119C69.9579 26.2995 70.9754 25.9115 71.6937 25.1479Z" fill="#D3EEF3"/>
<path d="M81.2411 16.6699L79.2671 29.1762L76.7501 28.7951L78.7241 16.2888L81.2411 16.6699Z" fill="#D3EEF3"/>
<path d="M83.3242 29.7377C82.723 29.2377 82.3653 28.6363 82.1295 27.9841C81.9114 27.2889 81.9445 26.5962 82.1426 25.8705L84.7153 26.7286C84.6061 27.2386 84.6187 27.6979 84.8571 28.0988C85.0955 28.4998 85.4913 28.7638 86.0089 28.977C86.5874 29.1649 87.0467 29.1523 87.4552 29.0179C87.8637 28.8835 88.1531 28.5486 88.2876 28.0995C88.3867 27.7367 88.3639 27.4246 88.2371 27.1201C88.1103 26.8156 87.8616 26.5618 87.613 26.308C87.3035 26.0796 86.9255 25.7725 86.4181 25.4121C85.7128 24.9197 85.1369 24.4806 84.7335 24.1126C84.3302 23.7446 84.0232 23.265 83.8128 22.6738C83.6023 22.0825 83.6176 21.433 83.8766 20.682C84.1178 19.9741 84.4959 19.4235 85.0289 18.9872C85.544 18.594 86.1962 18.3582 86.9422 18.2619C87.6704 18.2087 88.4494 18.2774 89.2866 18.5719C90.5299 18.9832 91.433 19.6076 92.0393 20.4628C92.6024 21.3002 92.7393 22.3152 92.4853 23.4214L89.8263 22.5278C89.9431 22.1218 89.8696 21.6879 89.6134 21.3301C89.375 20.9291 88.9792 20.6652 88.4439 20.4951C87.9516 20.3427 87.5533 20.33 87.1879 20.4821C86.8225 20.6343 86.5509 20.926 86.4163 21.3751C86.3351 21.6948 86.3147 21.9892 86.4415 22.2937C86.5861 22.555 86.7738 22.8342 87.0834 23.0626C87.3497 23.2733 87.7709 23.5981 88.2783 23.9585C88.9836 24.4509 89.5595 24.89 89.9628 25.258C90.4093 25.6437 90.7163 26.1234 90.8836 26.6968C91.0941 27.2881 91.0788 27.9376 90.8198 28.6886C90.6142 29.3103 90.236 29.8608 89.7462 30.3149C89.2133 30.7512 88.5865 31.048 87.8405 31.1443C87.0945 31.2405 86.2724 31.1541 85.3742 30.885C84.6054 30.6692 83.8646 30.263 83.3242 29.7377Z" fill="#D3EEF3"/>
<path d="M109.677 29.697L102.621 40.2105L100.531 38.7942L105.114 31.9544L97.674 36.911L96.0909 35.8551L97.8357 27.0889L93.2519 33.9287L91.1614 32.5125L98.2173 21.999L100.635 23.6005L98.7555 33.6735L107.363 28.0879L109.677 29.697Z" fill="#D3EEF3"/>
<path d="M110.453 46.0605L107.279 42.1295L104.897 43.0146L103.22 40.9616L115.923 36.4576L117.805 38.7467L110.825 50.3005L109.105 48.2297L110.453 46.0605ZM111.615 44.2186L114.593 39.4413L109.315 41.3535L111.615 44.2186Z" fill="#D3EEF3"/>
<path d="M113.942 57.1849L117.246 52.5929L116.729 51.522L112.237 53.6069L111.17 51.3002L122.66 45.9435L124.669 50.2523C125.067 51.1227 125.275 51.9652 125.249 52.7619C125.241 53.5155 125.018 54.1802 124.622 54.7739C124.244 55.3244 123.711 55.7608 123.066 56.1007C122.318 56.4481 121.511 56.5698 120.724 56.3971C119.92 56.2675 119.215 55.7751 118.555 55.0493L115.169 59.961L113.942 57.1849ZM118.444 50.6647L119.36 52.606C119.657 53.2328 119.999 53.6261 120.474 53.8216C120.905 53.9993 121.425 53.9613 121.948 53.6722C122.453 53.4262 122.803 53.0659 122.981 52.6346C123.115 52.1855 123.077 51.6654 122.781 51.0386L121.865 49.0973L118.444 50.6647Z" fill="#D3EEF3"/>
<path d="M129.824 67.0076L127.827 67.4462L127.107 64.1728L116.731 66.457L116.194 63.9652L126.57 61.6811L125.85 58.4077L127.847 57.9691L129.824 67.0076Z" fill="#D3EEF3"/>
</svg>
