<?xml version="1.0" encoding="utf-8"?>
<!-- Generator: Adobe Illustrator 24.2.3, SVG Export Plug-In . SVG Version: 6.00 Build 0)  -->
<svg version="1.1" id="Layer_1" xmlns="http://www.w3.org/2000/svg" xmlns:xlink="http://www.w3.org/1999/xlink" x="0px" y="0px"
	 viewBox="0 0 191.91 233.82" style="enable-background:new 0 0 191.91 233.82;" xml:space="preserve">
<style type="text/css">
	.st0{clip-path:url(#SVGID_2_);}
	.st1{fill:#DDDDDD;}
	.st2{fill:#F9F9FA;}
	.st3{fill:#676463;}
	.st4{fill:#676462;}
	.st5{fill:#F8C7A2;}
	.st6{fill:#CD906A;}
	.st7{fill:#E9A77A;}
	.st8{fill:#CB9169;}
	.st9{fill:#47392E;}
	.st10{fill:#010101;}
	.st11{fill:#E6E6E5;stroke:#00A99A;stroke-width:2;stroke-miterlimit:10;}
</style>
<g>
	<defs>
		<rect id="SVGID_1_" width="191.91" height="233.82"/>
	</defs>
	<clipPath id="SVGID_2_">
		<use xlink:href="#SVGID_1_"  style="overflow:visible;"/>
	</clipPath>
	<g class="st0">
		<path class="st1" d="M100.72,140.11c0,0-47.17,0-78.78,18.3c0,0-15.39,3.74-21.63,78.18l34.93,46.58h67.13l10.4-9.98l-2.08-61.55
			L100.72,140.11z"/>
		<path class="st2" d="M96.06,140.11c0,0,42.92,0,74.53,18.3c0,0,15.39,3.74,21.63,78.18l-34.93,46.58H97.06v-7.49l-1.75-60.3
			L96.06,140.11z"/>
		<path class="st1" d="M160.56,219.22h-40.49v36.89c0,0,1.5,8.4,13.8,15.15c12.3,6.75,26.39-12.3,26.39-12.3L160.56,219.22z"/>
		<polygon class="st3" points="121.9,142.61 121.9,156.16 116.54,163.27 112.9,154.94 117.34,145.32 119.91,142.25 		"/>
		<path class="st4" d="M67.29,143.33c0,0-0.95,11.16,1.76,13.29c2.71,2.14,4.36,0,4.36,0l-0.9-6.87l-1.5-5.1v-1.93L67.29,143.33z"/>
		<path class="st5" d="M122.68,108.36c0,0,2.75,3.3,4.95,3.48c0,0,2.99-2.02,3.51-6.96c0,0,0.34-7.88,1.44-11.72
			c1.1-3.85,0-13.56-7.14-12.09c-7.14,1.47-5.68,9.71-5.68,9.71s-1.28,11.78-1.28,12.3C118.46,103.6,122.68,108.36,122.68,108.36z"
			/>
		<path class="st6" d="M66.8,109.46c0,0-2.56,3.66-4.95,3.48c0,0-3.05-1.1-3.36-6.78c0,0-0.12-7.88-1.59-11.54
			c0,0-0.96-14.41,7.03-12.06l7.07,15.06L66.8,109.46z"/>
		<path class="st7" d="M120.51,124.4v33.79c0,0-15.43,38.74-20.28,44.76l-1.83,2.74l-2.94-5.11l-9.3-26.13l-1.53-12.6v-11.69
			L90,132.08l19.36-1.64L120.51,124.4z"/>
		<path class="st8" d="M69.17,126.6l-0.73,25.58c0,0-0.55,5.3,6.03,17.9c6.58,12.61,7.13,15.35,7.86,17.36
			c0.73,2.01,6.76,14.07,8.22,15.16c1.46,1.1,4.02,7.49,3.84,10.6c0,0,4.02-7.38,5.85-10.23c0,0-10.5-47.13-7.85-63.94L69.17,126.6z
			"/>
		<path class="st7" d="M94.86,148.4c0,0-17.12,0.98-26.96-18.69c0,0-4.33-23.41-4.33-33.65l3.35-27.55l6.3-10.82l12.59-3.54
			l6.89,3.54l8.46,8.46l4.53,24.4l-5.9,40.73L94.86,148.4z"/>
		<path class="st5" d="M94.86,148.4c0,0,14.17,1.77,26.17-16.13c0,0,4.13-12,3.54-21.05L123,63.21l-15.15-5.51H92.7l-1.38,12.4
			l2.75,3.94C94.07,74.03,95.85,147.03,94.86,148.4z"/>
		<path class="st9" d="M121.68,97.32l3.88-2.75l1.25-12.13c0,0,5.38-5.63,3.88-16.75c0,0-2.5-18.88-11.25-21.13
			c0,0-6-11.88-18.25-11.13c0,0-9.62-1-13.75,3.25c0,0-19-1.63-27.88,23.13c0,0-3.42,11.26,0.32,19.96c0,0,2.18,3.41,2.3,5.66
			l1.39,10.62l3.11,2.26L66.31,81.7c0,0,2.13-7.5,4.5-8.75c0,0,3.75-3,3.63-4.38c0,0,1.75-2,8,1.75c0,0,12.13,8.5,18.63,8.25
			c0,0,10.37,0.13,14.25-9.13c0,0,5.9,4.51,6.79,9.64c0.04,0.2,0.06,0.41,0.08,0.61C122.68,85.07,121.68,97.32,121.68,97.32z"/>
		<g>
			<rect x="140.2" y="211.57" class="st10" width="6.5" height="9.75"/>
			<rect x="125.7" y="218.32" class="st11" width="36.25" height="22"/>
		</g>
	</g>
</g>
</svg>
