<?xml version="1.0" encoding="utf-8"?>
<!-- Generator: Adobe Illustrator 24.2.3, SVG Export Plug-In . SVG Version: 6.00 Build 0)  -->
<svg version="1.1" id="Layer_1" xmlns="http://www.w3.org/2000/svg" xmlns:xlink="http://www.w3.org/1999/xlink" x="0px" y="0px"
	 viewBox="0 0 191.91 233.82" style="enable-background:new 0 0 191.91 233.82;" xml:space="preserve">
<style type="text/css">
	.st0{clip-path:url(#SVGID_2_);}
	.st1{fill:#F9F9FA;}
	.st2{fill:#DDDDDD;}
	.st3{fill:#010101;}
	.st4{fill:#E9A77A;}
	.st5{fill:#CB9169;}
	.st6{fill:#377ABE;}
	.st7{fill:#CC9368;}
	.st8{fill:#F8C7A2;}
	.st9{fill:#4E4E4E;}
	.st10{fill:#989898;}
	.st11{fill:#818181;}
	.st12{fill:#676767;}
	.st13{fill:#9A9A9A;}
	.st14{fill:#EA1D27;}
	.st15{fill:#E6E6E5;stroke:#00A99A;stroke-width:2;stroke-miterlimit:10;}
</style>
<g>
	<defs>
		<rect id="SVGID_1_" width="191.91" height="233.82"/>
	</defs>
	<clipPath id="SVGID_2_">
		<use xlink:href="#SVGID_1_"  style="overflow:visible;"/>
	</clipPath>
	<g class="st0">
		<path class="st1" d="M99,138.93c0,0,52.47-1.23,77.53,29.3c0,0,7.79,23.29,12.13,68.19l-28.44,45.58l-91.2,0.49l5.62-8.93v-63.49
			L99,138.93z"/>
		<path class="st2" d="M103.66,138.93c0,0-47.17,0-78.78,18.3c0,0-15.39,3.74-21.63,78.18l34.93,46.58h41.75l11.9-4.47l6.51-72.91
			L103.66,138.93z"/>
		<path class="st3" d="M116.83,99.15l16.67,2.75l2.58,15.75L127,138.4l-11.96,5.75c0,0-5.46-27-5.46-27.75
			S116.83,99.15,116.83,99.15z"/>
		<path class="st3" d="M56.83,99.15l16.67,2.75l2.58,15.75L67,138.4l-11.96,5.75c0,0-5.46-27-5.46-27.75S56.83,99.15,56.83,99.15z"
			/>
		<path class="st4" d="M121.6,124.26v31.25c0,0-0.59,7.96-6.5,28.6l-11.86,10.27l-11.41,3.29V161.8l-7.33-21.65l8.32-10.93
			l18.35-4.96H121.6z"/>
		<path class="st5" d="M69.02,129.22c0,0,0.33,32.71,5.62,51.21C79.93,198.93,100,193.7,100,193.7s-12.13-51.58-7.67-61.01
			L69.02,129.22z"/>
		<path class="st6" d="M74.64,180.43c0,0,17.98,16.76,40.46,3.68c0,0-10.99,40.46-15.1,46.59c0,0-4.92,11.03-5.13,15.94
			c0,0-0.61-9.4-1.84-13.08C93.03,233.56,79.14,200.86,74.64,180.43z"/>
		<path class="st7" d="M69.02,105.89c0,0-7.94,7.76-11.56-3.36c-3.62-11.12,1.29-10.34,1.29-10.34l5.95-5.17l6.72,4.14L69.02,105.89
			z"/>
		<path class="st4" d="M94.87,144.15c0,0-31.98,1.55-29.65-36.45l-2.84-26.11l1.81-16.55l9.05-14.48c0,0,5.95-3.88,7.24-4.65
			c1.29-0.78,12.15-2.07,12.15-2.07l6.75,9.05l3.67,23.27l1.47,31.54v20.17l-5.14,11.18L94.87,144.15z"/>
		<path class="st8" d="M94.87,144.15c0,0,30.33,1.04,30.07-36.45c0,0,9.05-0.78,8.53-11.89c-0.52-11.12,0.02-20.42,0.02-20.42
			s-2.09-11.63-2.09-12.41c0-0.78-9.81-12.93-9.81-12.93l-18.54-6.2l-5.77,3.36l2.1,5.69c0,0-2.78,5.43-3.99,14.48L94.87,144.15z"/>
		<path class="st9" d="M121.6,46.16l1.58,10.95c0,0,5.39,3.78,4.1,23.95c0,0,2.59,5.95,2.59,9.05c0,0,1.44,8.78,2.14,12.92
			c0,0,0.59,10.86,0,14.22c0,0-6.28,13.7-7.05,14.48c-0.78,0.78-9.57,24.04-6.2,33.09c0,0,12.83-7.32,17.28-15.04V58.06L127,42.29
			L121.6,46.16z"/>
		<path class="st10" d="M119.5,31.53c0,0,14.37,0.77,19.41,30.51c0,0,4.05,15.08,2.64,39.46c0,0-0.39,35.94,0.3,41.16l-4.46,5.55
			c0,0-3.6-56.84-1.37-58.46c0,0-4.12-40.12-9.02-43.5c-4.9-3.38-6.67-11.84-6.67-11.84L119.5,31.53z"/>
		<path class="st11" d="M114.18,30.26c0,0,5.87,3.23,7.41,19.78c0,0,16.32,16.29,11.9,66.45c0,0-3.12,29.99-1.06,37.49
			c0,0,4.4-5.17,6.46-7.5c0,0-3.1-21.98-1.55-24.04c0,0,1.04-38.26,1.03-41.37C138.39,81.07,129.18,27.16,114.18,30.26z"/>
		<path class="st9" d="M104.52,26.65c0,0-6.69-8.88-24.69-1.69c0,0-15.38,8.69-23.69,28.44c0,0-4.06,18.75-9.06,32.5
			s-5,18.5-7,24.75s-4.16,18.02,0,28c4.16,9.98,13,18.81,31.75,28.03l-18-45.03l4.25-34.63l8.5-22.12l12.5-26.75l23.98-4.25
			L104.52,26.65z"/>
		<path class="st12" d="M112.6,54.56c0,0-8.53,4.66-24.78,0c-16.25-4.66-14.5,6.84-15,6.59s-2.25,14.75-6.75,24s-7.5,21.5-6.75,25.5
			s9.47,15.76,9.69,21c0.22,5.24,2.09,21.61,10.31,38.75c0,0-6.73,0.75-20.12-15c-13.38-15.75-12.13-26.75-12.38-27.75
			s-0.25-1-0.25-1s-1.5-14.75,6-42.25s11.2-32,11.2-32s8.55-22.75,33.55-29.5c0,0,14.22-0.5,16.86,11.75
			C116.83,46.9,112.6,54.56,112.6,54.56z"/>
		<path class="st13" d="M106.82,24.95c0,0,6.68,22.7,5.79,29.6c0,0,8.35-1.11,10.57,2.56C123.17,57.12,125.4,30.72,106.82,24.95z"/>
		<path class="st14" d="M131.41,107.79c0,1.79-1.23,3.24-2.75,3.24c-1.52,0-2.75-1.45-2.75-3.24c0-1.79,1.23-3.23,2.75-3.23
			C130.18,104.56,131.41,106.01,131.41,107.79z"/>
		<path class="st14" d="M65.41,108.79c0,1.79-1.23,3.24-2.75,3.24c-1.52,0-2.75-1.45-2.75-3.24c0-1.79,1.23-3.23,2.75-3.23
			C64.18,105.56,65.41,107.01,65.41,108.79z"/>
		<g>
			<rect x="141.33" y="210.73" class="st3" width="6.5" height="9.75"/>
			<rect x="126.83" y="217.48" class="st15" width="36.25" height="22"/>
		</g>
	</g>
</g>
</svg>
