<?xml version="1.0" encoding="UTF-8"?>
<svg width="110px" height="47px" viewBox="0 0 110 47" version="1.1" xmlns="http://www.w3.org/2000/svg" xmlns:xlink="http://www.w3.org/1999/xlink">
    <!-- Generator: Sketch 52.5 (67469) - http://www.bohemiancoding.com/sketch -->
    <title>Logo</title>
    <desc>Created with Sketch.</desc>
    <g id="Propuestas" stroke="none" stroke-width="1" fill="none" fill-rule="evenodd">
        <g id="Home-1-1" transform="translate(-70.000000, 0.000000)">
            <g id="Web-header">
                <g id="Logo" transform="translate(70.000000, 0.000000)">
                    <g id="Franjas">
                        <polygon id="Clip-2" points="0 31 89.1796875 31 110 31 110 0 0 0"></polygon>
                        <polygon id="Fill-10" fill="#E53F40" points="55 6 110 6 110 0 55 0"></polygon>
                        <polygon id="Fill-11" fill="#006FB3" points="0 6 55 6 55 0 0 0"></polygon>
                    </g>
                    <g transform="translate(0.000000, 9.000000)">
                        <path d="M18.0856359,21.0483935 C11.940801,10.3345662 -1.93620195,21.116512 3.16742177,35.6481481 C-8.4019179,18.3115227 15.0501161,1.63294071 20.3486916,17.7124532 C20.6099122,18.5044941 18.4309318,21.651009 18.0856359,21.0483935" id="Fill-1" fill="#00ADEE"></path>
                        <path d="M9.28078252,4.65497907 C8.72183613,7.45738722 10.2705,9.92493881 12.7380571,10.1660505 C15.2070708,10.4077247 17.6609729,8.33202655 18.2191911,5.52999338 C18.7781375,2.72777272 17.2300198,0.260783593 14.7617344,0.0191094039 C12.2929028,-0.222377296 9.83900065,1.8529459 9.28078252,4.65497907" id="Fill-3" fill="#00ADEE"></path>
                        <path d="M20.6746002,12.3427315 C19.8226094,9.60157851 20.821581,6.87010068 22.9036023,6.24121645 C24.9860387,5.61233223 27.3636825,7.32400893 28.2146353,10.0647502 C29.0657956,12.8054915 28.0676544,15.5371751 25.9856332,16.1662652 C23.9025739,16.7949436 21.5257605,15.0832669 20.6746002,12.3427315" id="Fill-5" fill="#A5CD38"></path>
                        <path d="M8.37263804,21.0358093 C7.01429866,20.2484846 6.72469944,18.4018536 7.7250069,16.9090017 C8.72531436,15.4167037 10.6388512,14.8443053 11.9973889,15.6303375 C13.3563233,16.4167391 13.6457242,18.2650319 12.64502,19.7565913 C11.6439191,21.2492585 9.73097742,21.8231341 8.37263804,21.0358093" id="Fill-7" fill="#006BB7"></path>
                        <path d="M5.41433024,22.9805095 C7.74415649,19.888025 12.3997085,19.5349628 16.2962963,21.9669542 C12.8341745,21.0628365 9.1532354,22.1469656 6.95108364,25.0718132 C5.52839853,26.9604832 4.97259518,29.2855505 5.21191494,31.5740741 C3.6798212,28.6519334 3.64440784,25.3309059 5.41433024,22.9805095" id="Fill-9" fill="#006BB7"></path>
                        <path d="M33.9776085,24.4710242 C33.9952394,20.1997491 30.5196333,17.1652794 26.2163451,17.6934782 C21.9130569,18.2208993 18.4105201,22.1107515 18.3934705,26.3824154 C18.3766146,30.6540793 21.8524145,33.6873825 26.1555089,33.1599614 C30.4595721,32.6321515 33.9615276,28.7419104 33.9776085,24.4710242 M26.4451589,33.540801 C21.3831621,34.1625086 17.2949317,30.592064 17.3148876,25.5684411 C17.3348434,20.5446238 21.454848,15.9685215 26.5170386,15.3479803 C31.5800041,14.7268559 35.6666845,18.2963285 35.6480849,23.3209234 C35.6273541,28.3443519 31.5073494,32.9204543 26.4451589,33.540801" id="Fill-11" fill="#A5CD38"></path>
                        <path d="M18.3333333,23.4259259 C18.3333333,23.4259259 21.6880943,27.6459451 28.7202702,26.758678 C28.7202702,26.758678 33.9661747,25.6909201 35.6481481,28.525424 C35.6481481,28.525424 29.2149683,30.9265164 23.6081351,28.3303304 C21.6082919,27.5530712 19.8493867,25.9175558 18.3333333,23.4259259" id="Fill-13" fill="#00ADEE"></path>
                        <path d="M22.8031803,22.4231423 C21.8819123,21.4432572 20.2728263,21.0992111 19.2106648,21.6540663 C18.1483243,22.207485 18.0351799,23.4500733 18.9564479,24.4299584 C19.879148,25.4087661 21.4868018,25.752094 22.5482472,25.1983161 C23.6104086,24.6452566 23.7244482,23.4023091 22.8031803,22.4231423" id="Fill-15" fill="#00ADEE"></path>
                        <path d="M41.7994588,18.336452 L49.9074074,18.336452 L49.9027011,18.4096167 L49.7187638,19.1210603 C49.5556126,19.4490265 49.3038264,19.6716591 49.0169391,19.8191655 L44.1163237,19.8191655 C41.9639827,19.7206971 41.5804204,21.4017204 41.5804204,21.4017204 L40.4089476,26.0250246 L47.4687674,26.0250246 L47.2160007,26.9626315 C47.0124538,27.30119 46.7069375,27.5100919 46.3714186,27.6332754 L40.0051876,27.6332754 L37.7691139,36.6666667 L36.6741183,36.6666667 C35.9326823,36.449134 35.6979563,35.9877844 35.6481481,35.5866534 L39.5355396,20.1279088 C39.8645873,18.1775688 41.7994588,18.336452 41.7994588,18.336452" id="Fill-17" fill="#006BB7"></path>
                        <path d="M63.4997299,31.5659117 L61.1111111,31.5659117 L63.014632,23.8032076 C63.3349082,22.604329 63.6075516,21.2572989 63.7532404,20.3703704 L65.9234256,20.3703704 L65.4923382,22.7813978 L65.5493382,22.7813978 C66.8318382,21.273144 68.7259919,20.4293933 70.795331,20.4293933 C72.4574988,20.4293933 74.3518519,21.1614361 74.3518519,23.4027231 C74.3518519,23.8913458 74.2344637,24.5800128 74.0895721,25.1341945 L72.4836072,31.5740323 C70.8527296,31.5801723 70.4459569,30.9075485 70.3849709,30.3569319 L71.6704603,25.2019323 C71.7577541,24.802042 71.8456457,24.2912361 71.8456457,23.8251926 C71.8456457,22.7594127 71.2907925,21.9614148 69.6304185,21.9614148 C67.9104535,21.9614148 65.4622438,23.5370102 64.8208942,26.1991822 L63.4997299,31.5659117 Z" id="Fill-19" fill="#006BB7"></path>
                        <path d="M87.5925926,30.8431529 C88.1832847,31.2193827 89.4196384,31.5517453 90.8183268,31.5740741 C93.5875753,31.5740741 95.7915022,30.3118074 95.7915022,28.0544287 C95.7915022,26.8360292 94.8241129,25.9059275 93.3713743,25.2188735 C92.1890708,24.6879232 91.570802,24.2016304 91.570802,23.4266445 C91.570802,22.5180812 92.538559,21.809884 93.9100384,21.809884 C94.8774278,21.809884 95.683034,22.0750627 96.1408066,22.2973624 L96.7592593,20.9032967 C96.2751969,20.6359443 95.226916,20.3703704 94.0701669,20.3703704 C91.3023892,20.3703704 89.33985,21.809884 89.33985,23.691428 C89.33985,24.798579 90.1726652,25.7290758 91.6779833,26.4149443 C93.0496465,27.0352096 93.5059484,27.5669504 93.5059484,28.4079346 C93.5059484,29.360365 92.538559,30.1568892 91.0332409,30.1568892 C89.9577511,30.1568892 88.8289463,29.8018026 88.2382542,29.4931519 L87.5925926,30.8431529 Z" id="Fill-21" fill="#006BB7"></path>
                        <path d="M85.1584642,25.2198349 C84.502555,28.0754485 82.1620851,30.0685091 80.1643038,30.0685091 C78.3667495,30.0685091 77.8244193,28.8953185 77.8244193,27.6992055 C77.8244193,24.710405 80.7634235,21.8318691 84.3312107,21.8318691 C85.1297767,21.8318691 85.6155126,21.8986601 85.9578109,21.9867927 L85.1584642,25.2198349 Z M84.2824224,30.2194806 C84.4715257,29.4494075 84.6608241,29.1939021 84.7587909,28.5629441 L84.7020014,28.5629441 C83.1903462,30.7990608 81.2770662,31.5740741 79.3370502,31.5740741 C76.8830013,31.5740741 75.3703704,30.0685091 75.3703704,28.0315798 C75.3703704,24.2893053 78.90947,20.3703704 84.9016429,20.3703704 C86.2146323,20.3703704 87.669693,20.5472283 88.6111111,20.7687454 L87.2134253,26.3703008 C86.7696474,28.1762279 86.2023376,30.2317322 86.2185353,31.481199 C84.6803394,31.4545221 84.3234045,30.763294 84.2824224,30.2194806 Z" id="Fill-23" fill="#006BB7"></path>
                        <path d="M106.547989,25.2188735 C105.8917,28.0763623 103.550874,30.0689574 101.553903,30.0689574 C99.7557894,30.0689574 99.2134672,28.8950177 99.2134672,27.6989469 C99.2134672,24.7098567 102.152623,21.8322127 105.719382,21.8322127 C106.518717,21.8322127 107.00386,21.8978158 107.345763,21.9867357 L106.547989,25.2188735 Z M105.674888,30.2782154 C105.864379,29.5081695 106.050552,29.1935908 106.147541,28.5634455 L106.090753,28.5634455 C104.577559,30.7990882 102.665868,31.5740741 100.726661,31.5740741 C98.2712824,31.5740741 96.7592593,30.0689574 96.7592593,28.0315072 C96.7592593,24.2895622 100.298502,20.3703704 106.290391,20.3703704 C107.603361,20.3703704 109.059376,20.5478149 110,20.7697193 L108.60214,26.3708796 C108.159149,28.1767429 107.595946,30.2904666 107.611948,31.5396917 C106.072994,31.5132134 105.716064,30.8218121 105.674888,30.2782154 Z" id="Fill-25" fill="#006BB7"></path>
                        <path d="M54.6133696,30.1128503 C52.6177589,30.1128503 51.3467284,28.8508034 51.3467284,27.1018796 C51.3467284,24.6437831 53.3405598,21.8323845 56.3476174,21.8323845 C58.8619999,21.8323845 59.6144563,23.580518 59.6144563,24.8206317 C59.6144563,27.3233849 57.4745226,30.1128503 54.6418388,30.1128503 L54.6133696,30.1128503 Z M54.3814644,31.5740741 C59.0658314,31.5740741 62.1296296,28.1422235 62.1296296,24.8206317 C62.1296296,22.5628976 60.4234556,20.3703704 56.6362633,20.3703704 C52.0981963,20.3703704 48.8888889,23.6253723 48.8888889,27.1678767 C48.8888889,29.5811189 50.8542511,31.5740741 54.3531929,31.5740741 L54.3814644,31.5740741 Z" id="Fill-27" fill="#006BB7"></path>
                        <polygon id="Clip-30" points="0 37.6851852 110 37.6851852 110 0 0 0"></polygon>
                        <polygon id="Fill-29" fill="#006BB7" points="49.9074074 37.6851852 75.3703704 37.6851852 75.3703704 35.6481481 49.9074074 35.6481481"></polygon>
                        <polygon id="Fill-31" fill="#EE4144" points="75.3703704 37.6851852 106.944444 37.6851852 106.944444 35.6481481 75.3703704 35.6481481"></polygon>
                    </g>
                </g>
            </g>
        </g>
    </g>
</svg>