<svg width="1138" height="36" viewBox="0 0 1138 36" fill="none" xmlns="http://www.w3.org/2000/svg">
<path d="M33.25 20.2499C33.7422 20.2499 34.1641 19.9687 34.3047 19.4765L37.5391 11.4608L43.4453 35.0858C43.5859 35.6483 44.0078 35.9296 44.5703 35.9999C45.0625 35.9296 45.5547 35.578 45.625 35.0858L51.3906 6.18741L54.6953 19.3358C54.8359 19.828 55.3281 20.2499 55.75 20.2499L1137.44 20.2499C1137.79 20.2499 1138 19.9688 1138 19.6875L1138 18.5625C1138 18.2109 1137.79 18 1137.44 18L56.6641 17.9999L52.375 0.843659C52.2344 0.281159 51.8125 -9.11428e-05 51.25 -9.1192e-05C50.7578 -9.1235e-05 50.2656 0.351471 50.1953 0.843659L44.4297 29.7421L38.875 7.59366C38.7344 7.10147 38.3125 6.74991 37.8906 6.74991C37.3281 6.6796 36.9063 6.96085 36.7656 7.45303L32.5469 17.9999L0.562502 17.9999C0.281252 17.9999 1.55517e-06 18.2108 1.52443e-06 18.5624L1.42608e-06 19.6874C1.4015e-06 19.9687 0.281251 20.2499 0.562501 20.2499L33.25 20.2499Z" fill="#3BC1CD" fill-opacity="0.5"/>
</svg>
