<svg width="184" height="184" viewBox="0 0 184 184" fill="none" xmlns="http://www.w3.org/2000/svg">
<circle cx="92" cy="92" r="91.5" fill="white" stroke="#3BC1CD"/>
<path d="M92.0994 92.4749C106.193 92.4749 117.87 81.0137 117.87 66.7374C117.87 52.6623 106.193 41 92.0994 41C77.8045 41 66.3283 52.6623 66.3283 66.7374C66.3283 81.0137 77.8045 92.4749 92.0994 92.4749ZM92.0994 47.4344C102.569 47.4344 111.428 56.2816 111.428 66.7374C111.428 77.3943 102.569 86.0405 92.0994 86.0405C81.4285 86.0405 72.7711 77.3943 72.7711 66.7374C72.7711 56.2816 81.4285 47.4344 92.0994 47.4344ZM110.824 99.1103C103.978 98.9092 101.965 102.126 92.0994 102.126C82.0326 102.126 80.0192 98.9092 73.1737 99.1103C58.6775 99.5124 47 111.376 47 126.054V142.341C47 143.347 47.604 143.95 48.6107 143.95H51.8321C52.6374 143.95 53.4428 143.347 53.4428 142.341V126.054C53.4428 115.196 61.8989 106.148 72.7711 105.545V122.033C67.939 123.44 64.7176 127.663 64.7176 132.69C64.7176 138.923 69.751 143.95 75.9925 143.95C82.0326 143.95 87.2673 138.923 87.2673 132.69C87.2673 127.663 83.8446 123.44 79.2138 122.033V106.55C83.2406 107.958 87.67 108.561 92.0994 108.561C96.3274 108.561 100.757 107.958 104.985 106.55V120.424C99.1462 121.832 95.3208 127.261 95.3208 133.293V139.124C95.3208 140.129 95.5221 140.934 96.1261 141.537L98.3408 143.548C98.9448 144.151 99.9515 144.151 100.556 143.548L102.77 141.336C103.374 140.733 103.374 139.727 102.77 138.923L101.562 137.918V132.69C101.562 128.869 105.186 125.853 109.213 126.456C112.434 126.858 114.448 129.875 114.448 133.092V137.918L113.441 138.923C112.837 139.727 112.837 140.733 113.441 141.336L115.656 143.548C116.26 144.151 117.266 144.151 117.87 143.548L120.085 141.537C120.689 140.934 120.891 140.129 120.891 139.124V132.69C120.891 126.858 116.864 121.832 111.226 120.424V105.545C122.099 106.349 130.555 115.196 130.555 126.054V142.341C130.555 143.347 131.36 143.95 132.165 143.95H135.387C136.393 143.95 136.997 143.347 136.997 142.341V126.054C137.199 111.376 125.521 99.5124 110.824 99.1103ZM80.8245 132.69C80.8245 135.505 78.6098 137.515 75.9925 137.515C73.1737 137.515 71.1604 135.505 71.1604 132.69C71.1604 130.076 73.1737 127.864 75.9925 127.864C78.6098 127.864 80.8245 130.076 80.8245 132.69Z" fill="#3BC1CD"/>
</svg>
