<svg width="65" height="74" viewBox="0 0 65 74" fill="none" xmlns="http://www.w3.org/2000/svg">
<path d="M32.5718 41.6047C44.0592 41.6047 53.5109 32.3592 53.5109 20.8023C53.5109 9.38995 44.0592 0 32.5718 0C20.939 0 11.6328 9.38995 11.6328 20.8023C11.6328 32.3592 20.939 41.6047 32.5718 41.6047ZM32.5718 6.93411C40.1331 6.93411 46.5312 13.2904 46.5312 20.8023C46.5312 28.4588 40.1331 34.6706 32.5718 34.6706C24.8651 34.6706 18.6125 28.4588 18.6125 20.8023C18.6125 13.2904 24.8651 6.93411 32.5718 6.93411ZM45.5133 43.9161C43.9138 43.9161 42.3143 44.3494 40.8602 44.9273C38.2428 45.794 35.48 46.2274 32.5718 46.2274C29.5182 46.2274 26.7554 45.794 24.138 44.9273C22.6839 44.3494 21.0844 43.9161 19.4849 43.9161C8.7246 43.9161 0 52.7282 0 63.4183V70.4968C0 72.5193 1.4541 73.9639 3.48984 73.9639C5.38017 73.9639 6.97968 72.5193 6.97968 70.4968V63.4183C6.97968 56.7731 12.069 51.428 18.6125 50.9946V58.2177C15.1226 59.2289 12.7961 62.2626 12.7961 65.8741C12.7961 70.3524 16.4313 73.9639 20.939 73.9639C25.3013 73.9639 29.082 70.3524 29.082 65.8741C29.082 62.2626 26.61 59.2289 23.2656 58.2177V51.7169C26.1738 52.7282 29.3728 53.1615 32.5718 53.1615C35.6254 53.1615 38.8245 52.7282 41.8781 51.7169V57.062C37.6612 58.0732 34.8984 61.9736 34.8984 66.3075V70.4968C34.8984 71.2191 35.0438 71.797 35.48 72.2304L37.0795 73.675C37.5158 74.1083 38.2428 74.1083 38.679 73.675L40.2785 72.0859C40.7148 71.6525 40.7148 70.9302 40.2785 70.3524L39.4061 69.6301V65.8741C39.4061 63.1293 42.0235 60.9624 44.9317 61.3958C47.2582 61.6847 48.7123 63.8516 48.7123 66.163V69.6301L47.9853 70.3524C47.549 70.9302 47.549 71.6525 47.9853 72.0859L49.5848 73.675C50.021 74.1083 50.7481 74.1083 51.1843 73.675L52.7838 72.2304C53.22 71.797 53.3654 71.2191 53.3654 70.4968V65.8741C53.3654 61.6847 50.4572 58.0732 46.3858 57.062V50.9946C52.9292 51.428 58.0186 56.7731 58.0186 63.4183V70.4968C58.0186 72.5193 59.6181 73.9639 61.5084 73.9639C63.5441 73.9639 64.9982 72.5193 64.9982 70.4968V63.4183C65.1436 52.7282 56.2736 43.9161 45.5133 43.9161ZM24.4289 65.8741C24.4289 67.8965 22.8294 69.3411 20.939 69.3411C18.9033 69.3411 17.4492 67.8965 17.4492 65.8741C17.4492 63.9961 18.9033 62.407 20.939 62.407C22.8294 62.407 24.4289 63.9961 24.4289 65.8741Z" fill="#3BC1CD" fill-opacity="0.3"/>
</svg>
