<svg width="65" height="77" viewBox="0 0 65 77" fill="none" xmlns="http://www.w3.org/2000/svg">
<path d="M50.9547 41.6611L55.201 36.6938C55.3612 36.5336 55.5215 36.3734 55.6817 36.2131V16.9048C55.6817 14.4212 53.6787 12.4182 51.1951 12.4182H45.667V17.1451H50.9547V41.6611Z" fill="#FFAF36"/>
<path d="M50.9548 65.456V71.3847H4.72694V17.1451H9.77434V12.4182H4.48658C2.00294 12.4182 0 14.4212 0 16.9048V71.545C0 74.0286 2.00294 76.0315 4.48658 76.0315H51.115C53.5986 76.0315 55.6016 74.0286 55.6016 71.545V60.4887L53.0378 63.5332C52.5571 64.2543 51.8361 64.8952 50.9548 65.456Z" fill="#FFAF36"/>
<path d="M26.8392 41.2605H29.0023C29.7234 41.2605 30.2842 40.6997 30.2842 39.9786V35.9727H34.2901C35.0112 35.9727 35.572 35.4119 35.572 34.6909V32.4476C35.572 31.7265 35.0112 31.1657 34.2901 31.1657H30.2842V27.1598C30.2842 26.4388 29.7234 25.8779 29.0023 25.8779H26.8392C26.1181 25.8779 25.5573 26.4388 25.5573 27.1598V31.1657H21.5514C20.8304 31.1657 20.2695 31.7265 20.2695 32.4476V34.6107C20.2695 35.3318 20.8304 35.8926 21.5514 35.8926H25.5573V39.8985C25.4772 40.6196 26.1181 41.2605 26.8392 41.2605Z" fill="#FFAF36"/>
<path d="M14.6618 52.3969H41.1006C41.8216 52.3969 42.3824 51.836 42.3824 51.115V48.9518C42.3824 48.2307 41.8216 47.6699 41.1006 47.6699H14.6618C13.9407 47.6699 13.3799 48.2307 13.3799 48.9518V51.115C13.3799 51.836 13.9407 52.3969 14.6618 52.3969Z" fill="#FFAF36"/>
<path d="M14.6618 63.5332H37.335C37.4151 63.373 37.4151 63.1327 37.4151 62.9724L38.4567 58.7262H14.6618C13.9407 58.7262 13.3799 59.287 13.3799 60.0081V62.1712C13.3799 62.9724 13.9407 63.5332 14.6618 63.5332Z" fill="#FFAF36"/>
<path d="M15.1425 18.7475H40.2994C41.2608 18.7475 42.062 17.9463 42.062 16.9849V9.85446C42.062 8.89305 41.2608 8.09187 40.2994 8.09187H36.1333C35.973 3.60529 32.2876 0 27.7209 0C23.1542 0 19.4688 3.60529 19.3086 8.09187H15.1425C14.1811 8.09187 13.3799 8.89305 13.3799 9.85446V16.9849C13.3799 17.9463 14.1811 18.7475 15.1425 18.7475ZM27.7209 5.20764C29.4835 5.20764 30.9256 6.64976 30.9256 8.41234C30.9256 10.1749 29.4835 11.617 27.7209 11.617C25.9583 11.617 24.5162 10.1749 24.5162 8.41234C24.5162 6.64976 25.9583 5.20764 27.7209 5.20764Z" fill="#FFAF36"/>
<path d="M41.18 63.8537C40.9397 64.8151 41.9011 65.5362 42.7824 65.2157L47.3491 63.2128C48.2304 62.8122 49.0315 62.2514 49.6725 61.6104L43.5034 56.4028C42.9426 57.2039 42.542 58.0852 42.3017 58.9665L41.18 63.8537Z" fill="#FFAF36"/>
<path d="M64.0949 40.6997L61.7715 38.7769C60.6498 37.8155 59.0475 37.9757 58.0861 39.0974L45.9082 53.5185L52.1574 58.8063L64.3352 44.3851C65.2966 43.2635 65.2165 41.6611 64.0949 40.6997Z" fill="#FFAF36"/>
</svg>
