<svg width="27" height="27" viewBox="0 0 27 27" fill="none" xmlns="http://www.w3.org/2000/svg">
<path d="M9.8 12.6C12.451 12.6 14.6 10.451 14.6 7.8C14.6 5.14903 12.451 3 9.8 3C7.14903 3 5 5.14903 5 7.8C5 10.451 7.14903 12.6 9.8 12.6Z" stroke="#43C3CF" stroke-width="1.57895" stroke-linecap="round" stroke-linejoin="round"/>
<path d="M11.4905 8.10695C11.6559 7.08779 10.9638 6.12749 9.94468 5.96205C8.92552 5.79662 7.96521 6.4887 7.79978 7.50787C7.63435 8.52703 8.32643 9.48734 9.3456 9.65277C10.3648 9.8182 11.3251 9.12612 11.4905 8.10695Z" stroke="#43C3CF" stroke-width="1.05263" stroke-linecap="round" stroke-linejoin="round"/>
<path d="M9.21478 8.17911L11.2991 19.3246C11.4103 19.9151 12.1004 20.1957 12.5976 19.8514L15.4224 17.8923L19.4919 23.6475C19.7561 24.0211 20.2759 24.1123 20.6531 23.8507L21.0356 23.5855L21.4441 23.3032C21.8213 23.0415 21.9134 22.5268 21.6492 22.1532L17.5797 16.3979L20.3767 14.4577C20.8739 14.1134 20.8444 13.3748 20.3211 13.0701L10.4577 7.3166C9.84233 6.95679 9.08441 7.48187 9.21478 8.17911Z" fill="#43C3CF"/>
</svg>
