<svg width="27" height="27" viewBox="0 0 27 27" fill="none" xmlns="http://www.w3.org/2000/svg">
<path fill-rule="evenodd" clip-rule="evenodd" d="M7.72861 2.06827C7.92938 2.18861 8.04872 2.50675 8.28879 2.98119C8.52887 3.45839 9.68993 5.80154 9.84998 6.23863C10.01 6.67434 10.0901 6.99524 9.60991 7.31061C9.12976 7.62875 8.04872 8.54167 7.72861 8.82107C7.40711 9.09771 7.3692 9.37574 7.60928 9.85156C7.84935 10.3288 8.35759 11.8655 9.99038 13.6844C11.2638 15.0994 12.8334 16.0566 13.3135 16.336C13.7937 16.6127 14.052 16.3637 14.2921 16.1272C14.5083 15.9128 14.8523 15.6499 15.1316 15.412C15.4124 15.1727 15.6146 15.0939 15.9347 14.9348C16.2548 14.7758 16.5342 14.8546 16.7743 14.9749C17.0143 15.0925 19.3758 16.0469 20.3375 16.4439C21.295 16.8395 21.2599 17.2379 21.2599 17.5173C21.2599 17.7967 21.1757 18.3085 21.1757 18.3085C21.1757 18.3085 21.0563 19.2643 20.5762 19.7C20.096 20.1357 18.9349 21.3667 16.5749 21.3667C14.2149 21.3667 11.9306 19.6612 11.6119 19.4219C11.2904 19.1827 6.28676 16.1272 4.36615 11.2818C2.44555 6.43781 3.08575 6.43781 3.16718 5.56363C3.2458 4.69083 4.32684 2.74466 5.4486 2.34768C6.56895 1.9507 7.53066 1.9507 7.73002 2.06827L7.72861 2.06827Z" fill="#43C3CF"/>
</svg>
