<svg width="107" height="100" viewBox="0 0 107 100" fill="none" xmlns="http://www.w3.org/2000/svg">
<path d="M64.0713 27.6424C55.2431 27.0609 40.0713 29.3869 30.5557 35.6248L31.2429 38.0566C31.2429 38.0566 43.8246 31.5014 59.2078 32.823C59.2078 32.823 59.1021 37.1578 59.0493 43.9244C46.3619 43.6601 35.4192 45.986 26.6437 51.3253L27.2254 53.5985C27.2254 53.5985 39.754 46.3561 58.9964 49.158C58.9964 52.8056 58.9964 56.7174 58.9964 60.5236C53.34 59.9421 33.5161 60.3122 22.9434 66.7088L23.4719 69.0877C23.4719 69.0877 39.9126 62.2153 58.9964 65.5985C59.0493 69.2991 59.2078 73.4224 59.4192 76.3299L64.0184 76.5413C63.067 49.9509 64.177 27.6424 64.0713 27.6424Z" fill="#84BD00"/>
<path d="M81.3575 13.8978C80.5646 13.845 78.8729 13.7392 76.5997 13.6864C77.0227 5.65112 77.7099 0.364739 77.7099 0.364739C66.397 -0.956854 52.2825 1.31629 38.8022 7.13129L37.3748 11.7833C50.8022 6.07403 62.5381 4.54098 72.7936 4.85816C72.7936 4.85816 72.2119 9.08725 71.8421 13.6864C61.2692 13.845 44.3529 15.4309 30.6612 22.6731L29.4452 26.5323C53.6039 16.2239 75.8068 19.3428 75.8068 19.3428C75.8068 19.3428 74.2208 55.6073 78.2384 81.7748L82.9433 82.3563C79.2957 50.2153 81.3575 13.8978 81.3575 13.8978Z" fill="#003DA5"/>
<path d="M53.4453 86.0042C23.6829 86.0042 5.86787 93.1936 1.21587 95.3081L0 99.2201C0 99.2201 18.4494 90.762 53.4453 90.762C88.5995 90.762 106.838 99.2201 106.838 99.2201L105.675 95.3081C101.076 93.1936 83.3661 86.0042 53.4453 86.0042Z" fill="#003DA5"/>
</svg>
