<svg width="110" height="109" viewBox="0 0 110 109" fill="none" xmlns="http://www.w3.org/2000/svg">
<path d="M107.2 65.1107C105.7 65.1107 104.6 66.3107 104.6 67.7107C104.6 77.1107 96.9 84.8108 87.5 84.8108C78.3 84.8108 70.8 77.5107 70.4 68.4108L89.4 33.0107C89.8 32.2108 89.8 31.2108 89.3 30.4108C88.8 29.6108 88 29.1108 87 29.1108H78.6C80.7 25.0108 81.9 21.1108 82.2 17.4108C82.5 13.5108 81.7 10.0108 79.9 7.11075C78.5 4.81075 76.6 3.01075 74.3 1.81075C72.1 0.510751 69.6 -0.089249 67 0.010751C64.2 0.110751 61.4 1.01075 58.9 2.61075C57.4 3.61075 56.1 4.81075 54.9 6.21075C53.7 4.81075 52.4 3.61075 50.9 2.61075C48.5 1.01075 45.7 0.110751 42.8 0.010751C40.2 -0.089249 37.7 0.510751 35.5 1.71075C33.2 2.91075 31.3 4.81075 30 7.01075C28.3 9.91075 27.5 13.5108 27.7 17.3108C28 21.0108 29.1 24.9108 31.3 29.0108H22.9C22 29.0108 21.1 29.5108 20.6 30.3108C20.1 31.1108 20.1 32.1108 20.5 32.9108L39.4 68.4108C39.1 77.5107 31.5 84.8108 22.3 84.8108C12.9 84.8108 5.2 77.1107 5.2 67.7107C5.2 66.2107 4 65.1107 2.6 65.1107C1.2 65.1107 0 66.3108 0 67.8108C0 80.1108 10 90.2107 22.4 90.2107C34.8 90.2107 44.8 80.2108 44.8 67.8108C44.8 67.4108 44.7 66.9108 44.5 66.6107L27.2 34.4108H34.2C40.8 46.0107 49.2 60.8108 52.4 66.4108V103.011H27.2C25.7 103.011 24.6 104.211 24.6 105.611C24.6 107.111 25.8 108.211 27.2 108.211H54.8H55H82.6C84.1 108.211 85.2 107.011 85.2 105.611C85.2 104.111 84 103.011 82.6 103.011H57.5V66.3108C60.7 60.7108 69.1 45.9108 75.7 34.3107H82.7L65.5 66.5107C65.3 66.9108 65.2 67.3107 65.2 67.7107C65.2 80.0107 75.2 90.1107 87.6 90.1107C100 90.1107 110 80.1107 110 67.7107C109.9 66.3107 108.7 65.1107 107.2 65.1107ZM76.9 17.0108C76.7 20.4108 75.4 24.1108 73.2 28.0108C73 28.3108 72.8 28.7108 72.6 29.1108C71.6 30.8108 55.7 58.8107 54.9 60.1107C54.1 58.8107 38.2 30.8108 37.2 29.1108C37 28.7108 36.8 28.4108 36.6 28.0108C34.4 24.1108 33.1 20.3108 32.9 17.0108C32.7 14.2108 33.2 11.7108 34.4 9.81075C36.1 7.01075 39 5.31075 42.3 5.31075C42.4 5.31075 42.5 5.31075 42.6 5.31075C46.7 5.41075 50.3 8.01075 52.6 12.3108C53 13.1108 53.8 13.6108 54.7 13.7108H54.8H54.9C55.8 13.6108 56.6 13.1108 57 12.3108C59.3 8.01075 62.9 5.41075 67 5.31075C67.1 5.31075 67.2 5.31075 67.3 5.31075C70.6 5.31075 73.5 7.01075 75.2 9.81075C76.6 11.7108 77.1 14.2108 76.9 17.0108Z" fill="#592E8B"/>
</svg>
