<?xml version="1.0" encoding="utf-8"?>
<!-- Generator: Adobe Illustrator 24.3.0, SVG Export Plug-In . SVG Version: 6.00 Build 0)  -->
<svg version="1.1" id="Layer_1" xmlns="http://www.w3.org/2000/svg" xmlns:xlink="http://www.w3.org/1999/xlink" x="0px" y="0px"
	 viewBox="0 0 283.1 278.7" style="enable-background:new 0 0 283.1 278.7;" xml:space="preserve">
<style type="text/css">
	.st0{fill:#FFFFFF;}
</style>
<path id="XMLID_350_" class="st0" d="M276.3,167.8c-3.8,0-6.8,3.1-6.8,6.8c0,24.3-19.7,44-44,44c-23.7,0-43.1-18.8-44-42.3
	l48.7-91.4c1.1-2.1,1.1-4.7-0.2-6.7c-1.2-2.1-3.4-3.3-5.8-3.3h-21.7c5.4-10.5,8.5-20.7,9.1-30.2c0.7-9.9-1.3-19.1-5.8-26.6
	c-3.5-5.8-8.5-10.5-14.4-13.7c-5.7-3.1-12.3-4.6-18.8-4.4c-7.3,0.2-14.5,2.5-20.8,6.6c-3.8,2.5-7.3,5.6-10.3,9.2
	c-3-3.6-6.5-6.7-10.3-9.2c-6.3-4.1-13.5-6.4-20.8-6.6c-6.6-0.2-13.1,1.3-18.8,4.4c-5.9,3.2-10.9,7.9-14.4,13.7
	c-4.5,7.5-6.5,16.7-5.8,26.6c0.7,9.5,3.7,19.7,9.1,30.2H58.8c-2.4,0-4.6,1.3-5.8,3.3c-1.2,2.1-1.3,4.6-0.2,6.7l48.7,91.4
	c-0.9,23.5-20.3,42.3-44,42.3c-24.3,0-44-19.7-44-44c0-3.8-3.1-6.8-6.8-6.8S0,170.9,0,174.7c0,31.8,25.8,57.6,57.6,57.6
	s57.6-25.8,57.6-57.6c0-1.1-0.3-2.2-0.8-3.2L70.2,88.6h17.9c16.9,29.9,38.7,67.9,46.9,82.3v94.2H70c-3.8,0-6.8,3.1-6.8,6.8
	c0,3.8,3.1,6.8,6.8,6.8h71.2h0.6h71.2c3.8,0,6.8-3.1,6.8-6.8c0-3.8-3.1-6.8-6.8-6.8h-65v-94.2c8.3-14.4,30-52.5,46.9-82.3h17.9
	l-44.2,82.9c-0.5,1-0.8,2.1-0.8,3.2c0,31.8,25.8,57.6,57.6,57.6s57.6-25.8,57.6-57.6C283.1,170.9,280,167.8,276.3,167.8z
	 M198.1,43.8c-0.6,8.7-3.8,18.2-9.6,28.4c-0.5,0.9-1,1.8-1.5,2.7c-2.5,4.3-43.5,76.5-45.5,79.9c-1.9-3.4-43-75.6-45.5-79.9
	c-0.5-0.9-1-1.8-1.5-2.7c-5.7-10.2-9-19.7-9.6-28.4c-0.5-7.1,0.9-13.6,3.9-18.7c4.4-7.2,12-11.5,20.5-11.5c0.2,0,0.5,0,0.7,0
	c10.5,0.3,19.9,6.9,25.8,18c1.1,2,3.1,3.4,5.4,3.6v0c0.1,0,0.2,0,0.3,0c0.1,0,0.2,0,0.3,0v0c2.3-0.2,4.3-1.5,5.4-3.6
	c5.9-11.2,15.3-17.7,25.8-18c0.2,0,0.5,0,0.7,0c8.5,0,16.1,4.3,20.5,11.5C197.3,30.2,198.6,36.7,198.1,43.8z"/>
</svg>
