<?xml version="1.0" encoding="utf-8"?>
<!-- Generator: Adobe Illustrator 25.3.1, SVG Export Plug-In . SVG Version: 6.00 Build 0)  -->
<svg version="1.1" id="Layer_1" xmlns="http://www.w3.org/2000/svg" xmlns:xlink="http://www.w3.org/1999/xlink" x="0px" y="0px"
	 viewBox="0 0 835.1 213.62" style="enable-background:new 0 0 835.1 213.62;" xml:space="preserve">
<style type="text/css">
	.st0{fill:#1ECAD3;}
	.st1{fill:#007DA5;}
	.st2{fill:none;stroke:#097B98;stroke-width:5.6693;stroke-linecap:round;stroke-linejoin:round;stroke-miterlimit:10;}
	.st3{fill:none;stroke:#097B98;stroke-miterlimit:10;}
</style>
<g>
	<g>
		<g>
			<g>
				<path class="st0" d="M301.34,123.86V92.54c0-7.71-4.03-14.71-11.98-14.71c-7.83,0-12.46,7-12.46,14.71v31.32h-14.48V65.25h13.41
					l1.07,7.12c3.08-5.93,9.85-8.07,15.42-8.07c7,0,14,2.85,17.32,10.92c5.22-8.31,11.98-10.68,19.58-10.68
					c16.61,0,24.8,10.21,24.8,27.77v31.56h-14.48V92.3c0-7.71-3.2-14.24-11.04-14.24c-7.83,0-12.7,6.76-12.7,14.47v31.32H301.34z"/>
				<path class="st0" d="M376.33,99.77c0.95,7.24,7.24,12.46,17.44,12.46c5.34,0,12.34-2.02,15.66-5.46l9.25,9.14
					c-6.17,6.41-16.25,9.49-25.15,9.49c-20.17,0-32.15-12.46-32.15-31.2c0-17.8,12.1-30.61,31.09-30.61
					c19.58,0,31.8,12.1,29.54,36.19H376.33z M408.13,87.79c-0.95-7.59-6.88-11.39-15.19-11.39c-7.83,0-14.24,3.8-16.37,11.39H408.13
					z"/>
				<path class="st0" d="M489.17,40.92v82.94h-13.53l-0.95-8.07c-4.51,7-11.75,9.38-18.87,9.38c-17.2,0-30.14-11.39-30.14-30.61
					c0-20.17,12.7-30.61,29.78-30.61c6.17,0,15.78,3.32,19.22,9.37V40.92H489.17z M440.16,94.55c0,10.21,7.36,17.2,16.61,17.2
					c9.14,0,16.97-6.64,16.97-17.2c0-10.2-7.83-17.09-16.97-17.09C447.52,77.47,440.16,83.99,440.16,94.55z"/>
				<path class="st0" d="M512.78,48.87c0,11.27-17.09,11.27-17.09,0C495.69,37.6,512.78,37.6,512.78,48.87z M497,65.13v58.73h14.48
					V65.13H497z"/>
				<path class="st1" d="M557.99,80.91c-4.15-3.92-8.9-5.22-14.48-5.22c-6.88,0-10.68,2.13-10.68,5.81c0,3.8,3.44,5.93,10.92,6.41
					c11.03,0.71,25.04,3.2,25.04,18.75c0,10.32-8.42,19.22-25.15,19.22c-9.26,0-18.51-1.54-27.05-10.44l7.12-10.32
					c4.15,4.63,13.64,8.07,20.17,8.19c5.46,0.12,10.56-2.73,10.56-7c0-4.03-3.32-5.7-11.63-6.17c-11.03-0.83-24.21-4.86-24.21-18.15
					c0-13.53,14-18.27,24.68-18.27c9.13,0,16.02,1.78,22.78,7.71L557.99,80.91z"/>
				<path class="st1" d="M612.21,123.86V92.54c0-7.71-4.04-14.71-11.98-14.71c-7.83,0-12.46,7-12.46,14.71v31.32h-14.47V65.25h13.41
					l1.07,7.12c3.09-5.93,9.85-8.07,15.43-8.07c7,0,14,2.85,17.32,10.92c5.22-8.31,11.98-10.68,19.58-10.68
					c16.61,0,24.8,10.21,24.8,27.77v31.56h-14.48V92.3c0-7.71-3.2-14.24-11.04-14.24c-7.83,0-12.7,6.76-12.7,14.47v31.32H612.21z"/>
				<path class="st1" d="M721.25,65.37h13.88v58.49h-13.65l-0.71-8.54c-3.32,6.88-12.46,10.21-18.98,10.32
					c-17.32,0.12-30.14-10.56-30.14-31.09c0-20.17,13.41-30.73,30.49-30.61c7.83,0,15.31,3.68,18.63,9.49L721.25,65.37z
					 M686.13,94.55c0,11.15,7.71,17.8,17.32,17.8c22.78,0,22.78-35.48,0-35.48C693.85,76.87,686.13,83.4,686.13,94.55z"/>
				<path class="st1" d="M756.02,65.37l1.07,6.76c4.51-7.24,10.56-8.3,16.49-8.3c6.05,0,11.87,2.37,15.07,5.58l-6.53,12.58
					c-2.97-2.49-5.7-3.8-10.44-3.8c-7.59,0-14.59,4.03-14.59,14.83v30.85h-14.48V65.37H756.02z"/>
			</g>
			<g>
				<path class="st1" d="M816.59,48.87v16.61h16.14v12.46h-16.26v25.27c0,5.58,3.09,8.3,7.59,8.3c2.26,0,4.87-0.71,7-1.78
					l4.03,12.34c-4.15,1.66-7.59,2.37-11.98,2.49c-12.7,0.47-21-6.76-21-21.36V77.94H791.2V65.48h10.92V50.41L816.59,48.87z"/>
			</g>
		</g>
		<g>
			<path class="st0" d="M320.44,163.92l0.97-1.96c1.1,0.94,2.22,1.6,3.37,2c1.14,0.39,2.47,0.59,3.99,0.59
				c1.79,0,3.17-0.35,4.13-1.04c0.97-0.7,1.45-1.68,1.45-2.95c0-0.75-0.23-1.36-0.7-1.82c-0.47-0.47-1.08-0.84-1.84-1.11
				c-0.76-0.27-1.77-0.55-3.04-0.84c-1.71-0.38-3.11-0.78-4.21-1.22c-1.1-0.44-2-1.06-2.68-1.89c-0.69-0.82-1.03-1.9-1.03-3.23
				c0-1.27,0.33-2.38,1-3.35c0.67-0.97,1.61-1.72,2.82-2.26c1.22-0.54,2.63-0.81,4.26-0.81c1.54,0,2.97,0.24,4.3,0.72
				c1.33,0.48,2.45,1.18,3.37,2.09l-1,1.96c-1.04-0.89-2.09-1.55-3.17-1.96c-1.07-0.42-2.24-0.62-3.51-0.62
				c-1.73,0-3.08,0.37-4.05,1.11c-0.98,0.74-1.47,1.75-1.47,3.04c0,1.12,0.43,1.96,1.28,2.53c0.85,0.56,2.16,1.05,3.93,1.46
				c1.91,0.46,3.42,0.88,4.51,1.26c1.09,0.38,2,0.97,2.73,1.75c0.73,0.78,1.09,1.81,1.09,3.1c0,1.25-0.33,2.34-1,3.29
				c-0.67,0.95-1.62,1.68-2.85,2.2c-1.24,0.52-2.69,0.78-4.35,0.78C325.26,166.72,322.5,165.79,320.44,163.92z"/>
			<path class="st0" d="M363.41,156.62v9.85h-2.53v-9.73c0-1.48-0.25-2.55-0.76-3.21c-0.51-0.66-1.34-1-2.48-1
				c-1.33,0-2.37,0.45-3.12,1.34c-0.75,0.89-1.12,2.11-1.12,3.65v8.95h-2.53v-9.73c0-1.46-0.26-2.52-0.78-3.2
				c-0.52-0.67-1.35-1.01-2.49-1.01c-1.33,0-2.38,0.45-3.13,1.34c-0.76,0.89-1.14,2.11-1.14,3.65v8.95h-2.53v-11.29
				c0-1.62-0.08-3.09-0.25-4.4h2.4l0.25,2.74c0.44-1,1.09-1.77,1.95-2.31c0.86-0.54,1.87-0.81,3.01-0.81c1.25,0,2.26,0.25,3.06,0.75
				c0.79,0.5,1.37,1.27,1.75,2.31c0.48-0.93,1.18-1.68,2.1-2.23c0.92-0.55,1.97-0.83,3.13-0.83
				C361.67,150.41,363.41,152.48,363.41,156.62z"/>
			<path class="st0" d="M382.02,150.79v15.69h-2.49v-2.84c-0.46,0.98-1.15,1.73-2.07,2.26c-0.92,0.53-2,0.8-3.23,0.8
				c-1.39,0-2.61-0.33-3.66-1c-1.05-0.67-1.86-1.61-2.43-2.82c-0.57-1.22-0.86-2.63-0.86-4.26c0-1.62,0.29-3.05,0.87-4.29
				c0.58-1.24,1.4-2.2,2.45-2.88c1.05-0.69,2.26-1.03,3.63-1.03c1.23,0,2.3,0.27,3.21,0.81c0.92,0.54,1.61,1.3,2.09,2.28v-2.71
				H382.02z M378.28,163.03c0.83-1.05,1.25-2.54,1.25-4.47c0-1.93-0.42-3.42-1.25-4.46c-0.83-1.04-2.02-1.56-3.55-1.56
				c-1.54,0-2.74,0.54-3.6,1.61c-0.86,1.07-1.29,2.56-1.29,4.47c0,1.91,0.43,3.39,1.28,4.43c0.85,1.04,2.06,1.56,3.62,1.56
				C376.26,164.6,377.45,164.08,378.28,163.03z"/>
			<path class="st0" d="M395.65,150.6l-0.06,2.31c-0.48-0.17-1.03-0.25-1.65-0.25c-1.52,0-2.65,0.47-3.38,1.42
				c-0.74,0.95-1.11,2.09-1.11,3.45v8.95h-2.53v-11.29c0-1.62-0.08-3.09-0.25-4.4h2.4l0.25,2.9c0.39-1.06,1.03-1.87,1.9-2.43
				c0.87-0.56,1.87-0.84,2.99-0.84C394.73,150.41,395.21,150.48,395.65,150.6z"/>
			<path class="st0" d="M402.79,152.78v8.58c0,1.16,0.24,1.98,0.72,2.45c0.48,0.47,1.15,0.7,2.03,0.7c0.58,0,1.14-0.09,1.68-0.28
				v2.15c-0.64,0.21-1.37,0.31-2.18,0.31c-1.5,0-2.67-0.42-3.51-1.26c-0.84-0.84-1.26-2.08-1.26-3.73v-8.92h-3.06v-2h3.06v-4.02
				l2.53-0.9v4.93h4.49v2H402.79z"/>
			<path class="st0" d="M418.78,144.27h7.45c3.55,0,6.3,0.96,8.25,2.88c1.94,1.92,2.92,4.65,2.92,8.18c0,3.55-0.97,6.3-2.92,8.23
				c-1.94,1.93-4.69,2.9-8.25,2.9h-7.45V144.27z M426.08,164.29c2.87,0,5.03-0.75,6.47-2.24c1.45-1.5,2.17-3.73,2.17-6.71
				c0-5.92-2.88-8.89-8.64-8.89h-4.74v17.84H426.08z"/>
			<path class="st0" d="M444.32,165.69c-1.12-0.67-1.99-1.61-2.6-2.84c-0.61-1.23-0.92-2.66-0.92-4.3c0-1.64,0.31-3.08,0.92-4.3
				c0.61-1.23,1.48-2.17,2.6-2.84c1.12-0.67,2.42-1,3.9-1c1.48,0,2.77,0.33,3.9,1c1.12,0.67,1.99,1.61,2.6,2.84
				c0.61,1.23,0.92,2.66,0.92,4.3c0,1.64-0.31,3.08-0.92,4.3c-0.61,1.23-1.48,2.17-2.6,2.84c-1.12,0.66-2.42,1-3.9,1
				C446.74,166.69,445.44,166.36,444.32,165.69z M451.8,163.06c0.83-1.03,1.25-2.53,1.25-4.51c0-1.91-0.43-3.39-1.28-4.44
				c-0.85-1.05-2.04-1.57-3.55-1.57c-1.54,0-2.73,0.52-3.59,1.57c-0.85,1.05-1.28,2.53-1.28,4.44c0,1.97,0.42,3.48,1.26,4.51
				c0.84,1.03,2.04,1.54,3.6,1.54C449.78,164.6,450.97,164.09,451.8,163.06z"/>
			<path class="st0" d="M462.17,165.69c-1.13-0.67-2.01-1.61-2.62-2.82c-0.61-1.22-0.92-2.63-0.92-4.26c0-1.62,0.31-3.05,0.94-4.29
				c0.62-1.24,1.51-2.2,2.67-2.88c1.15-0.69,2.5-1.03,4.04-1.03c1.06,0,2.08,0.18,3.07,0.54c0.99,0.37,1.8,0.87,2.45,1.51
				l-0.84,1.87c-0.79-0.62-1.55-1.08-2.29-1.37c-0.74-0.29-1.49-0.44-2.26-0.44c-1.6,0-2.86,0.54-3.77,1.61
				c-0.92,1.07-1.37,2.56-1.37,4.47c0,1.89,0.45,3.36,1.36,4.41c0.9,1.05,2.17,1.57,3.79,1.57c0.77,0,1.52-0.14,2.26-0.44
				c0.74-0.29,1.5-0.75,2.29-1.37l0.84,1.87c-0.67,0.62-1.5,1.12-2.51,1.48c-1.01,0.36-2.05,0.55-3.13,0.55
				C464.63,166.69,463.3,166.36,462.17,165.69z"/>
			<path class="st0" d="M478.4,152.78v8.58c0,1.16,0.24,1.98,0.72,2.45c0.48,0.47,1.15,0.7,2.03,0.7c0.58,0,1.14-0.09,1.68-0.28
				v2.15c-0.64,0.21-1.37,0.31-2.18,0.31c-1.5,0-2.67-0.42-3.51-1.26c-0.84-0.84-1.26-2.08-1.26-3.73v-8.92h-3.06v-2h3.06v-4.02
				l2.53-0.9v4.93h4.49v2H478.4z"/>
			<path class="st0" d="M488.53,165.69c-1.12-0.67-1.99-1.61-2.6-2.84c-0.61-1.23-0.92-2.66-0.92-4.3c0-1.64,0.31-3.08,0.92-4.3
				c0.61-1.23,1.48-2.17,2.6-2.84c1.12-0.67,2.42-1,3.9-1c1.48,0,2.78,0.33,3.9,1c1.12,0.67,1.99,1.61,2.6,2.84
				c0.61,1.23,0.92,2.66,0.92,4.3c0,1.64-0.31,3.08-0.92,4.3c-0.61,1.23-1.48,2.17-2.6,2.84c-1.12,0.66-2.42,1-3.9,1
				C490.96,166.69,489.66,166.36,488.53,165.69z M496.02,163.06c0.83-1.03,1.25-2.53,1.25-4.51c0-1.91-0.43-3.39-1.28-4.44
				c-0.85-1.05-2.04-1.57-3.55-1.57c-1.54,0-2.73,0.52-3.59,1.57c-0.85,1.05-1.28,2.53-1.28,4.44c0,1.97,0.42,3.48,1.26,4.51
				c0.84,1.03,2.04,1.54,3.6,1.54C493.99,164.6,495.19,164.09,496.02,163.06z"/>
			<path class="st0" d="M512.51,150.6l-0.06,2.31c-0.48-0.17-1.03-0.25-1.65-0.25c-1.52,0-2.64,0.47-3.38,1.42s-1.11,2.09-1.11,3.45
				v8.95h-2.53v-11.29c0-1.62-0.08-3.09-0.25-4.4h2.4l0.25,2.9c0.39-1.06,1.03-1.87,1.9-2.43c0.87-0.56,1.87-0.84,2.99-0.84
				C511.6,150.41,512.08,150.48,512.51,150.6z"/>
			<path class="st0" d="M513.95,164.66l0.84-1.87c0.85,0.67,1.71,1.14,2.59,1.43c0.87,0.29,1.85,0.44,2.93,0.44
				c1.18,0,2.08-0.2,2.7-0.61c0.61-0.4,0.92-0.99,0.92-1.76c0-0.62-0.21-1.12-0.62-1.5c-0.42-0.37-1.1-0.66-2.06-0.87l-2.65-0.62
				c-1.31-0.29-2.32-0.81-3.04-1.56c-0.72-0.75-1.08-1.64-1.08-2.68c0-1.37,0.55-2.49,1.65-3.35c1.1-0.86,2.56-1.29,4.37-1.29
				c1.1,0,2.14,0.18,3.12,0.53c0.98,0.35,1.8,0.86,2.46,1.53l-0.84,1.84c-1.48-1.23-3.06-1.84-4.74-1.84c-1.12,0-1.99,0.21-2.6,0.64
				c-0.61,0.43-0.92,1.02-0.92,1.79c0,0.64,0.19,1.15,0.58,1.53c0.38,0.38,1,0.67,1.86,0.87l2.65,0.65
				c1.45,0.33,2.54,0.85,3.24,1.54c0.71,0.7,1.06,1.61,1.06,2.73c0,1.35-0.55,2.43-1.65,3.24c-1.1,0.81-2.6,1.22-4.49,1.22
				C517.57,166.69,515.48,166.02,513.95,164.66z"/>
			<path class="st0" d="M542.59,146.28c-0.47,0.47-0.7,1.27-0.7,2.42v2.09h3.83v2h-3.83v13.69h-2.53v-13.69h-3.06v-2h3.06v-2.4
				c0-1.64,0.41-2.88,1.23-3.73s1.97-1.26,3.45-1.26c0.73,0,1.44,0.09,2.12,0.28v2.15c-0.58-0.17-1.12-0.25-1.62-0.25
				C543.7,145.58,543.05,145.81,542.59,146.28z"/>
			<path class="st0" d="M551.46,165.69c-1.12-0.67-1.99-1.61-2.6-2.84c-0.61-1.23-0.92-2.66-0.92-4.3c0-1.64,0.31-3.08,0.92-4.3
				c0.61-1.23,1.48-2.17,2.6-2.84c1.12-0.67,2.42-1,3.9-1c1.47,0,2.78,0.33,3.9,1c1.12,0.67,1.99,1.61,2.6,2.84
				c0.61,1.23,0.92,2.66,0.92,4.3c0,1.64-0.31,3.08-0.92,4.3c-0.61,1.23-1.48,2.17-2.6,2.84c-1.12,0.66-2.42,1-3.9,1
				C553.88,166.69,552.58,166.36,551.46,165.69z M558.94,163.06c0.83-1.03,1.25-2.53,1.25-4.51c0-1.91-0.43-3.39-1.28-4.44
				c-0.85-1.05-2.04-1.57-3.55-1.57c-1.54,0-2.73,0.52-3.59,1.57c-0.85,1.05-1.28,2.53-1.28,4.44c0,1.97,0.42,3.48,1.26,4.51
				c0.84,1.03,2.04,1.54,3.6,1.54S558.11,164.09,558.94,163.06z"/>
			<path class="st0" d="M575.44,150.6l-0.06,2.31c-0.48-0.17-1.03-0.25-1.65-0.25c-1.52,0-2.65,0.47-3.38,1.42
				c-0.74,0.95-1.11,2.09-1.11,3.45v8.95h-2.53v-11.29c0-1.62-0.08-3.09-0.25-4.4h2.4l0.25,2.9c0.39-1.06,1.03-1.87,1.9-2.43
				c0.87-0.56,1.87-0.84,2.99-0.84C574.52,150.41,575,150.48,575.44,150.6z"/>
			<path class="st0" d="M585.2,163.92l0.97-1.96c1.1,0.94,2.22,1.6,3.37,2c1.14,0.39,2.47,0.59,3.99,0.59
				c1.79,0,3.17-0.35,4.13-1.04c0.96-0.7,1.45-1.68,1.45-2.95c0-0.75-0.23-1.36-0.7-1.82c-0.47-0.47-1.08-0.84-1.84-1.11
				c-0.76-0.27-1.77-0.55-3.04-0.84c-1.71-0.38-3.11-0.78-4.21-1.22c-1.1-0.44-2-1.06-2.68-1.89c-0.69-0.82-1.03-1.9-1.03-3.23
				c0-1.27,0.33-2.38,1-3.35s1.61-1.72,2.82-2.26c1.22-0.54,2.63-0.81,4.26-0.81c1.54,0,2.97,0.24,4.3,0.72
				c1.33,0.48,2.45,1.18,3.37,2.09l-1,1.96c-1.04-0.89-2.1-1.55-3.17-1.96c-1.07-0.42-2.24-0.62-3.51-0.62
				c-1.72,0-3.08,0.37-4.05,1.11c-0.98,0.74-1.47,1.75-1.47,3.04c0,1.12,0.43,1.96,1.28,2.53c0.85,0.56,2.16,1.05,3.93,1.46
				c1.91,0.46,3.42,0.88,4.51,1.26c1.09,0.38,2,0.97,2.73,1.75c0.73,0.78,1.09,1.81,1.09,3.1c0,1.25-0.33,2.34-1,3.29
				c-0.67,0.95-1.62,1.68-2.85,2.2c-1.24,0.52-2.69,0.78-4.35,0.78C590.02,166.72,587.25,165.79,585.2,163.92z"/>
			<path class="st0" d="M628.16,156.62v9.85h-2.53v-9.73c0-1.48-0.26-2.55-0.76-3.21c-0.51-0.66-1.34-1-2.48-1
				c-1.33,0-2.37,0.45-3.12,1.34c-0.75,0.89-1.12,2.11-1.12,3.65v8.95h-2.53v-9.73c0-1.46-0.26-2.52-0.78-3.2
				c-0.52-0.67-1.35-1.01-2.49-1.01c-1.33,0-2.38,0.45-3.13,1.34c-0.76,0.89-1.14,2.11-1.14,3.65v8.95h-2.53v-11.29
				c0-1.62-0.08-3.09-0.25-4.4h2.4l0.25,2.74c0.44-1,1.09-1.77,1.95-2.31c0.86-0.54,1.87-0.81,3.01-0.81c1.25,0,2.27,0.25,3.06,0.75
				c0.79,0.5,1.37,1.27,1.75,2.31c0.48-0.93,1.18-1.68,2.1-2.23c0.93-0.55,1.97-0.83,3.13-0.83
				C626.43,150.41,628.16,152.48,628.16,156.62z"/>
			<path class="st0" d="M646.78,150.79v15.69h-2.49v-2.84c-0.46,0.98-1.15,1.73-2.07,2.26c-0.93,0.53-2,0.8-3.23,0.8
				c-1.39,0-2.62-0.33-3.66-1c-1.05-0.67-1.86-1.61-2.43-2.82c-0.57-1.22-0.86-2.63-0.86-4.26c0-1.62,0.29-3.05,0.87-4.29
				c0.58-1.24,1.4-2.2,2.45-2.88c1.05-0.69,2.26-1.03,3.63-1.03c1.22,0,2.29,0.27,3.21,0.81c0.91,0.54,1.61,1.3,2.09,2.28v-2.71
				H646.78z M643.04,163.03c0.83-1.05,1.25-2.54,1.25-4.47c0-1.93-0.42-3.42-1.25-4.46c-0.83-1.04-2.02-1.56-3.55-1.56
				c-1.54,0-2.74,0.54-3.6,1.61c-0.86,1.07-1.29,2.56-1.29,4.47c0,1.91,0.43,3.39,1.28,4.43c0.85,1.04,2.06,1.56,3.62,1.56
				C641.02,164.6,642.2,164.08,643.04,163.03z"/>
			<path class="st0" d="M660.4,150.6l-0.06,2.31c-0.48-0.17-1.03-0.25-1.65-0.25c-1.52,0-2.64,0.47-3.38,1.42
				c-0.74,0.95-1.11,2.09-1.11,3.45v8.95h-2.53v-11.29c0-1.62-0.08-3.09-0.25-4.4h2.4l0.25,2.9c0.39-1.06,1.03-1.87,1.9-2.43
				c0.87-0.56,1.87-0.84,2.99-0.84C659.49,150.41,659.97,150.48,660.4,150.6z"/>
			<path class="st0" d="M667.54,152.78v8.58c0,1.16,0.24,1.98,0.72,2.45c0.48,0.47,1.15,0.7,2.03,0.7c0.58,0,1.14-0.09,1.68-0.28
				v2.15c-0.64,0.21-1.37,0.31-2.18,0.31c-1.5,0-2.67-0.42-3.51-1.26c-0.84-0.84-1.26-2.08-1.26-3.73v-8.92h-3.05v-2h3.05v-4.02
				l2.53-0.9v4.93h4.49v2H667.54z"/>
			<path class="st0" d="M683.54,144.27h8.86c2.29,0,4.07,0.55,5.35,1.65c1.28,1.1,1.92,2.62,1.92,4.55c0,1.93-0.64,3.46-1.93,4.57
				c-1.29,1.11-3.07,1.67-5.33,1.67h-6.3v9.76h-2.56V144.27z M692.18,154.59c1.64,0,2.88-0.35,3.71-1.06
				c0.83-0.71,1.25-1.72,1.25-3.05c0-1.33-0.42-2.34-1.25-3.04c-0.83-0.7-2.07-1.04-3.71-1.04h-6.08v8.2H692.18z"/>
			<path class="st0" d="M716.15,158.55h-11.51c0.02,1.99,0.48,3.5,1.39,4.52c0.9,1.02,2.22,1.53,3.95,1.53
				c1.83,0,3.51-0.61,5.05-1.84l0.84,1.84c-0.69,0.64-1.56,1.15-2.63,1.53c-1.07,0.38-2.17,0.56-3.29,0.56
				c-2.45,0-4.38-0.72-5.77-2.17c-1.39-1.45-2.09-3.42-2.09-5.94c0-1.6,0.31-3.02,0.93-4.26c0.62-1.24,1.5-2.2,2.62-2.88
				c1.12-0.69,2.4-1.03,3.83-1.03c2.08,0,3.71,0.68,4.9,2.04c1.18,1.36,1.78,3.24,1.78,5.63V158.55z M706.32,153.56
				c-0.82,0.79-1.35,1.9-1.57,3.34h9.13c-0.12-1.48-0.56-2.6-1.29-3.37c-0.74-0.77-1.76-1.15-3.07-1.15
				C708.2,152.38,707.14,152.77,706.32,153.56z"/>
			<path class="st0" d="M722.58,165.69c-1.12-0.67-1.99-1.61-2.6-2.84c-0.61-1.23-0.92-2.66-0.92-4.3c0-1.64,0.31-3.08,0.92-4.3
				c0.61-1.23,1.48-2.17,2.6-2.84c1.12-0.67,2.42-1,3.9-1c1.47,0,2.78,0.33,3.9,1c1.12,0.67,1.99,1.61,2.6,2.84
				c0.61,1.23,0.92,2.66,0.92,4.3c0,1.64-0.31,3.08-0.92,4.3c-0.61,1.23-1.48,2.17-2.6,2.84c-1.12,0.66-2.42,1-3.9,1
				C725,166.69,723.7,166.36,722.58,165.69z M730.06,163.06c0.83-1.03,1.25-2.53,1.25-4.51c0-1.91-0.43-3.39-1.28-4.44
				c-0.85-1.05-2.04-1.57-3.55-1.57c-1.54,0-2.73,0.52-3.59,1.57c-0.85,1.05-1.28,2.53-1.28,4.44c0,1.97,0.42,3.48,1.26,4.51
				c0.84,1.03,2.04,1.54,3.6,1.54C728.03,164.6,729.23,164.09,730.06,163.06z"/>
			<path class="st0" d="M749.3,151.44c1.06,0.69,1.88,1.65,2.46,2.88c0.58,1.24,0.87,2.67,0.87,4.29c0,1.62-0.29,3.04-0.87,4.26
				c-0.58,1.21-1.4,2.16-2.45,2.82c-1.05,0.66-2.27,1-3.66,1c-1.23,0-2.3-0.27-3.21-0.81c-0.91-0.54-1.61-1.31-2.09-2.31v9.63h-2.53
				v-18.02c0-1.62-0.08-3.09-0.25-4.4h2.4l0.25,3.03c0.44-1.08,1.13-1.92,2.07-2.51c0.95-0.59,2.06-0.89,3.35-0.89
				C747.02,150.41,748.24,150.76,749.3,151.44z M748.75,163.04c0.84-1.04,1.26-2.52,1.26-4.43c0-1.91-0.43-3.4-1.28-4.47
				c-0.85-1.07-2.04-1.61-3.55-1.61c-1.56,0-2.75,0.52-3.59,1.56c-0.83,1.04-1.25,2.53-1.25,4.46c0,1.93,0.41,3.42,1.25,4.47
				c0.83,1.05,2.03,1.57,3.59,1.57C746.72,164.6,747.91,164.08,748.75,163.04z"/>
			<path class="st0" d="M756.53,166.47v-22.95h2.53v22.95H756.53z"/>
			<path class="st0" d="M777.08,158.55h-11.51c0.02,1.99,0.48,3.5,1.39,4.52c0.9,1.02,2.22,1.53,3.95,1.53
				c1.83,0,3.51-0.61,5.05-1.84l0.84,1.84c-0.69,0.64-1.56,1.15-2.63,1.53c-1.07,0.38-2.17,0.56-3.29,0.56
				c-2.45,0-4.38-0.72-5.77-2.17c-1.39-1.45-2.09-3.42-2.09-5.94c0-1.6,0.31-3.02,0.93-4.26c0.62-1.24,1.5-2.2,2.62-2.88
				c1.12-0.69,2.4-1.03,3.83-1.03c2.08,0,3.71,0.68,4.9,2.04c1.18,1.36,1.78,3.24,1.78,5.63V158.55z M767.24,153.56
				c-0.82,0.79-1.35,1.9-1.57,3.34h9.13c-0.12-1.48-0.56-2.6-1.29-3.37c-0.74-0.77-1.76-1.15-3.07-1.15
				C769.13,152.38,768.06,152.77,767.24,153.56z"/>
		</g>
	</g>
	<g>
		<path class="st2" d="M178.23,49.84"/>
		<path class="st1" d="M161.39,18.54C144.1,6.41,123.76,0,102.57,0C46.01,0,0,46.01,0,102.57c0,51.19,38.2,94.89,88.87,101.66
			c0.28,0.04,0.56,0.05,0.84,0.05c0.4,0,0.79-0.04,1.18-0.12c1.77,4.82,6.06,8.55,11.49,9.31c0.67,0.1,1.35,0.14,2.02,0.14
			c7.11,0,13.23-5.32,14.22-12.36c0.54-3.8-0.44-7.58-2.75-10.65c-2.31-3.07-5.67-5.05-9.47-5.59c-0.67-0.09-1.35-0.14-2.02-0.14
			c-5.25,0-9.95,2.9-12.45,7.25c-0.44-0.17-0.9-0.29-1.39-0.36c-44.45-5.94-77.97-44.29-77.97-89.21
			c0-49.63,40.38-90.01,90.01-90.01c18.6,0,36.45,5.62,51.62,16.26c2.85,1.99,6.76,1.3,8.75-1.54
			C164.92,24.44,164.23,20.53,161.39,18.54z M98.15,198.38c0.44-3.14,3.14-5.41,6.22-5.41c0.29,0,0.59,0.02,0.89,0.07
			c3.44,0.48,5.83,3.66,5.35,7.1c-0.44,3.14-3.13,5.41-6.22,5.41c-0.3,0-0.59-0.02-0.89-0.06
			C100.06,204.99,97.66,201.82,98.15,198.38z"/>
		<path class="st2" d="M163.34,66.3"/>
		<path class="st3" d="M163.34,66.3"/>
		<path class="st0" d="M181.79,39.16 M161.98,172.9l-28.15-34.05c10.01-8.79,16.34-21.66,16.34-35.99c0-6.69-1.39-13.05-3.87-18.83
			c1.33-1.84,2.24-3.99,2.58-6.35c1.11-7.85-4.37-15.13-12.22-16.24c-0.67-0.09-1.35-0.14-2.02-0.14c-7.12,0-13.23,5.31-14.22,12.36
			c-0.54,3.8,0.44,7.58,2.75,10.65c2.31,3.06,5.67,5.05,9.47,5.58c0.67,0.1,1.35,0.15,2.02,0.15c1.27,0,2.5-0.18,3.68-0.49
			c1.55,4.15,2.42,8.63,2.42,13.32c0,21.22-17.26,38.48-38.48,38.48c-8.5,0-16.34-2.79-22.71-7.47c0.69-1.36,1.18-2.84,1.4-4.41
			c0.54-3.8-0.44-7.58-2.75-10.65c-2.3-3.07-5.67-5.05-9.47-5.59c-0.67-0.1-1.35-0.14-2.02-0.14c-7.11,0-13.22,5.31-14.22,12.36
			c-1.11,7.85,4.37,15.13,12.22,16.24c0.67,0.09,1.35,0.14,2.02,0.14c2.11,0,4.13-0.48,5.96-1.32c8.15,6.42,18.42,10.26,29.58,10.26
			c8.69,0,16.85-2.34,23.88-6.41l31.28,37.67 M133.77,81.89c-3.44-0.49-5.84-3.67-5.35-7.11c0.44-3.14,3.13-5.41,6.22-5.41
			c0.29,0,0.59,0.02,0.89,0.06c3.44,0.48,5.83,3.66,5.35,7.11c-0.45,3.14-3.13,5.41-6.22,5.41
			C134.36,81.96,134.06,81.93,133.77,81.89z M65.85,133.67c-3.44-0.49-5.83-3.67-5.35-7.1c0.45-3.14,3.14-5.41,6.22-5.41
			c0.29,0,0.59,0.02,0.89,0.06c3.44,0.49,5.83,3.67,5.35,7.11c-0.44,3.14-3.13,5.41-6.21,5.41
			C66.44,133.73,66.15,133.71,65.85,133.67z"/>
		<g>
			<path class="st1" d="M201.8,183.87c-1.33,0-2.66-0.46-3.73-1.4c-2.36-2.06-2.59-5.64-0.53-8c17.18-19.62,26.64-44.81,26.64-70.92
				c0-26.58-9.77-52.11-27.5-71.88c-2.09-2.33-1.9-5.92,0.44-8.01c2.33-2.09,5.91-1.9,8.01,0.44c19.6,21.86,30.4,50.08,30.4,79.45
				c0,28.85-10.46,56.69-29.45,78.38C204.95,183.21,203.38,183.87,201.8,183.87z"/>
			<path class="st1" d="M159.07,150.65c-1.18,0-2.37-0.37-3.39-1.13c-2.51-1.87-3.02-5.43-1.15-7.93
				c8.46-11.32,12.93-24.8,12.93-38.98c0-14.09-4.42-27.5-12.79-38.79c-1.87-2.51-1.34-6.06,1.18-7.93
				c2.52-1.87,6.07-1.34,7.93,1.18c9.83,13.26,15.02,29,15.02,45.54c0,16.64-5.25,32.46-15.18,45.76
				C162.5,149.86,160.79,150.65,159.07,150.65z"/>
		</g>
		<g>
			<path class="st0" d="M161.73,184c-1.79,0-3.56-0.85-4.66-2.44c-1.79-2.57-1.15-6.1,1.43-7.89
				c23.31-16.18,37.23-42.75,37.23-71.07c0-20.05-7.02-39.59-19.77-55.03c-1.99-2.41-1.65-5.99,0.76-7.98
				c2.41-1.99,5.99-1.65,7.98,0.76c14.42,17.46,22.36,39.56,22.36,62.25c0,32.04-15.74,62.09-42.1,80.38
				C163.97,183.68,162.84,184,161.73,184z"/>
		</g>
	</g>
</g>
</svg>
