<svg width="300" height="67" viewBox="0 0 300 67" fill="none" xmlns="http://www.w3.org/2000/svg">
<path d="M262.76 25.7616V19.3792H256.377V13.3043H262.76V6.6911H268.604V13.3043H275.525V19.3792H268.604V25.6847" fill="#43BAC9"/>
<path d="M44.6021 14.6884C46.2939 15.6112 47.678 16.9953 48.6777 18.764C49.6774 20.6095 50.1387 22.7626 50.1387 25.3771V41.987H45.5249V26.0692C45.5249 23.3009 44.8328 21.1478 43.4487 19.6098C42.0645 18.1488 40.219 17.3798 37.8352 17.3798C35.4513 17.3798 33.452 18.1488 32.0679 19.6867C30.6068 21.2247 29.9147 23.5316 29.9147 26.4537V41.987H25.3009V26.0692C25.3009 23.3009 24.6088 21.1478 23.2247 19.6098C21.8405 18.1488 19.995 17.3798 17.6112 17.3798C15.2273 17.3798 13.228 18.1488 11.8439 19.6867C10.3828 21.2247 9.69074 23.5316 9.69074 26.4537V41.987H5V13.8425H9.69074V17.9181C10.6135 16.4571 11.8439 15.3036 13.3818 14.5346C14.9198 13.7657 16.6884 13.3812 18.5339 13.3812C20.9177 13.3812 22.994 13.9194 24.7626 14.996C26.6082 16.0726 27.9154 17.6105 28.8382 19.6867C29.6071 17.6874 30.9144 16.1495 32.7599 15.0729C34.6055 13.9963 36.6048 13.4581 38.8348 13.4581C40.988 13.3812 42.9104 13.8425 44.6021 14.6884Z" fill="#37286F"/>
<path d="M75.5917 21.3016C74.8227 19.9943 73.7462 19.0716 72.362 18.3795C70.9779 17.6874 69.5168 17.3798 67.902 17.3798C65.5182 17.3798 63.5188 18.1488 61.904 19.6099C60.2122 21.1478 59.2895 23.224 59.0588 25.8385H76.8221C76.8221 24.0699 76.3607 22.532 75.5917 21.3016ZM81.4359 29.6834H58.9819C59.1357 32.4517 60.1353 34.6048 61.8271 36.1428C63.5188 37.6807 65.6719 38.4497 68.1327 38.4497C70.132 38.4497 71.8237 37.9883 73.2079 37.0656C74.592 36.1428 75.5148 34.8355 76.0531 33.2976H81.0514C80.2824 35.989 78.8214 38.219 76.5145 39.9108C74.2844 41.6025 71.4392 42.4484 68.1327 42.4484C65.4413 42.4484 63.0574 41.8332 60.9812 40.6797C58.905 39.4494 57.2132 37.7576 56.0598 35.6045C54.8294 33.3745 54.2911 30.8369 54.2911 27.9148C54.2911 24.9927 54.9063 22.4551 56.0598 20.3019C57.2132 18.1488 58.8281 16.4571 60.9812 15.2267C63.0574 14.0732 65.5182 13.4581 68.2096 13.4581C70.9779 13.4581 73.2079 14.0732 75.2841 15.2267C77.3603 16.3802 78.8983 17.995 80.0517 19.9943C81.1283 22.0706 81.7435 24.3006 81.7435 26.9151C81.5897 27.761 81.5897 28.6837 81.4359 29.6834Z" fill="#37286F"/>
<path d="M106.735 22.3012C105.889 20.7633 104.736 19.5329 103.275 18.687C101.814 17.8412 100.199 17.4567 98.5072 17.4567C96.7385 17.4567 95.2006 17.8412 93.7395 18.687C92.2785 19.5329 91.125 20.6864 90.2792 22.3012C89.4333 23.8391 88.9719 25.7616 88.9719 27.8378C88.9719 29.9909 89.4333 31.8365 90.2792 33.4513C91.125 35.0662 92.2785 36.2196 93.7395 37.0655C95.2006 37.9114 96.7385 38.2958 98.5072 38.2958C100.276 38.2958 101.814 37.9114 103.275 37.0655C104.736 36.2196 105.889 34.9893 106.735 33.4513C107.581 31.8365 108.042 29.9909 108.042 27.9147C107.966 25.7616 107.581 23.916 106.735 22.3012ZM85.896 20.225C87.0495 18.0718 88.6643 16.3801 90.6637 15.1497C92.663 13.9194 94.9699 13.3811 97.5075 13.3811C99.6606 13.3811 101.737 13.9194 103.582 14.9191C105.428 15.9187 106.889 17.226 107.889 18.9177V3.99963H112.579V41.9869H107.889V36.681C106.966 38.3727 105.582 39.7569 103.813 40.8335C101.968 41.91 99.8913 42.4483 97.4306 42.4483C94.9699 42.4483 92.663 41.8331 90.6637 40.6028C88.5874 39.3724 87.0495 37.6807 85.896 35.4506C84.7426 33.2206 84.1274 30.683 84.1274 27.8378C84.2043 24.9926 84.7426 22.455 85.896 20.225Z" fill="#37286F"/>
<path d="M123.422 13.8425V41.9869H118.731V13.8425H123.422ZM118.962 8.38281C118.347 7.76763 118.039 6.99866 118.039 6.15279C118.039 5.23002 118.347 4.53795 118.962 3.92277C119.577 3.30759 120.346 3 121.192 3C122.115 3 122.807 3.30759 123.345 3.92277C123.96 4.53795 124.268 5.30692 124.268 6.15279C124.268 7.07556 123.96 7.76763 123.345 8.38281C122.73 8.99799 122.038 9.30558 121.192 9.30558C120.346 9.30558 119.577 8.99799 118.962 8.38281Z" fill="#37286F"/>
<path d="M133.957 41.2949C132.188 40.5259 130.804 39.3725 129.804 37.9883C128.805 36.6042 128.266 35.0662 128.19 33.3745H134.264C134.341 34.6048 134.956 35.6045 135.956 36.3735C137.033 37.1424 138.34 37.6038 139.878 37.6038C141.416 37.6038 142.8 37.2962 143.723 36.6811C144.646 36.0659 145.107 35.22 145.107 34.2203C145.107 33.1438 144.569 32.3748 143.569 31.8365C142.569 31.2982 140.954 30.76 138.801 30.1448C136.648 29.5296 134.956 28.9913 133.649 28.453C132.342 27.9148 131.189 27.0689 130.189 25.9154C129.189 24.762 128.728 23.3009 128.728 21.4554C128.728 19.9174 129.189 18.6102 130.035 17.3029C130.958 16.0726 132.188 15.0729 133.88 14.3808C135.572 13.6887 137.417 13.3043 139.57 13.3043C142.8 13.3043 145.415 14.1501 147.337 15.765C149.259 17.3798 150.336 19.6098 150.49 22.3781H144.646C144.569 21.1478 144.03 20.0712 143.108 19.3792C142.185 18.6102 140.954 18.2257 139.34 18.2257C137.725 18.2257 136.648 18.5333 135.802 19.0716C134.956 19.6867 134.572 20.4557 134.572 21.3785C134.572 22.1475 134.88 22.7626 135.418 23.3009C135.956 23.8392 136.648 24.2237 137.417 24.5313C138.186 24.8389 139.34 25.2233 140.878 25.6078C142.954 26.1461 144.646 26.6844 145.953 27.2996C147.26 27.8379 148.414 28.6837 149.336 29.7603C150.259 30.8369 150.797 32.2979 150.797 34.1434C150.797 35.7583 150.336 37.2193 149.49 38.4497C148.567 39.68 147.337 40.6797 145.722 41.4487C144.107 42.1408 142.185 42.5252 140.032 42.5252C137.879 42.5252 135.725 42.0639 133.957 41.2949Z" fill="#45BBC9"/>
<path d="M194.783 14.6115C196.551 15.5343 197.935 16.9184 198.935 18.6871C199.935 20.5326 200.473 22.6857 200.473 25.2233V41.9101H194.706V26.223C194.706 23.6854 194.09 21.763 192.783 20.3788C191.553 18.9947 189.784 18.3795 187.631 18.3795C185.478 18.3795 183.709 19.0716 182.402 20.3788C181.095 21.763 180.48 23.6854 180.48 26.223V42.0639H174.712V26.223C174.712 23.6854 174.097 21.763 172.79 20.3788C171.56 18.9947 169.791 18.3795 167.638 18.3795C165.485 18.3795 163.716 19.0716 162.409 20.3788C161.102 21.763 160.486 23.6854 160.486 26.223V42.0639H154.642V13.6887H160.486V16.9184C161.409 15.765 162.639 14.8422 164.101 14.227C165.562 13.6118 167.176 13.2274 168.791 13.2274C171.021 13.2274 173.098 13.6887 174.866 14.6884C176.635 15.6112 178.019 17.0722 178.942 18.8409C179.788 17.1491 181.095 15.765 182.94 14.7653C184.786 13.7656 186.708 13.2274 188.785 13.2274C191.015 13.2274 193.014 13.6887 194.783 14.6115Z" fill="#45BBC9"/>
<path d="M226.772 22.7626C226.003 21.3016 224.926 20.225 223.619 19.456C222.312 18.6871 220.928 18.3026 219.39 18.3026C217.852 18.3026 216.468 18.6871 215.16 19.3791C213.853 20.1481 212.777 21.2247 212.008 22.6088C211.239 23.993 210.777 25.6847 210.777 27.6841C210.777 29.6065 211.162 31.3751 212.008 32.8362C212.777 34.2972 213.853 35.4507 215.16 36.2197C216.468 36.9886 217.852 37.3731 219.313 37.3731C220.774 37.3731 222.235 36.9886 223.542 36.2197C224.849 35.4507 225.926 34.3741 226.695 32.9131C227.464 31.452 227.925 29.7603 227.925 27.8378C228.002 25.9154 227.618 24.1468 226.772 22.7626ZM206.625 20.1481C207.778 17.995 209.393 16.2264 211.469 15.0729C213.469 13.8425 215.776 13.2274 218.236 13.2274C220.466 13.2274 222.389 13.6887 224.081 14.5346C225.772 15.3805 227.08 16.457 228.079 17.7643V13.6887H234V41.987H228.079V37.7576C227.08 39.0649 225.695 40.2183 224.004 41.0642C222.312 41.987 220.313 42.3714 218.159 42.3714C215.699 42.3714 213.469 41.7563 211.469 40.5259C209.47 39.2956 207.855 37.5269 206.702 35.2969C205.548 33.0669 204.933 30.5293 204.933 27.6841C204.856 24.9158 205.471 22.3781 206.625 20.1481Z" fill="#45BBC9"/>
<path d="M248.226 14.4577C249.61 13.6887 251.302 13.2274 253.302 13.2274V19.3022H251.84C249.534 19.3022 247.842 19.9174 246.611 21.0709C245.458 22.2243 244.843 24.2237 244.843 27.1458V42.0639H238.999V13.6887H244.843V17.7643C245.689 16.3801 246.842 15.2267 248.226 14.4577Z" fill="#45BBC9"/>
<path d="M274.448 52.3682H271.911C270.68 52.3682 269.834 52.0606 269.373 51.3685C268.912 50.7533 268.604 49.6767 268.604 48.2157V28.6838H262.683V48.2157C262.683 52.0606 263.375 54.9058 264.759 56.5975C266.143 58.2893 268.22 59.212 270.834 59.212H274.448C274.141 58.2124 273.987 57.0589 273.987 55.7516C274.064 54.4444 274.218 53.3678 274.448 52.3682Z" fill="#39276E"/>
<path d="M279.831 56.905C280.216 56.5205 280.369 55.9053 280.369 55.0595C280.369 54.2905 280.216 53.6753 279.831 53.2139C279.447 52.8294 278.985 52.5987 278.447 52.5987C277.909 52.5987 277.447 52.8294 277.063 53.2139C276.678 53.5984 276.525 54.2136 276.525 55.0595C276.525 55.8284 276.678 56.4436 277.063 56.905C277.447 57.2895 277.909 57.5202 278.447 57.5202C278.985 57.5202 279.447 57.2895 279.831 56.905ZM275.217 60.2885C274.294 59.8271 273.602 59.135 273.064 58.2122C272.526 57.2895 272.295 56.2898 272.295 55.0595C272.295 53.8291 272.526 52.8294 273.064 51.9067C273.602 50.9839 274.294 50.2918 275.217 49.8304C276.14 49.3691 277.217 49.1384 278.37 49.1384C279.524 49.1384 280.6 49.3691 281.523 49.8304C282.446 50.2918 283.138 50.9839 283.676 51.9067C284.214 52.8294 284.445 53.8291 284.445 55.0595C284.445 56.2898 284.214 57.2895 283.676 58.2122C283.138 59.135 282.446 59.8271 281.446 60.2885C280.523 60.7499 279.447 60.9806 278.293 60.9806C277.217 61.0575 276.14 60.8268 275.217 60.2885Z" fill="#39276E"/>
<path d="M228.541 56.6743H232.616V58.6737H226.003V46.2163H228.541V56.6743Z" fill="#45BBC9"/>
<path d="M236.692 48.7539V58.6737H234.154V48.7539H236.692ZM234.385 47.1391C234.077 46.8315 233.923 46.5239 233.923 46.0625C233.923 45.678 234.077 45.2935 234.385 44.9859C234.692 44.6783 235.077 44.6014 235.461 44.6014C235.923 44.6014 236.307 44.7552 236.538 44.9859C236.845 45.2935 236.999 45.6011 236.999 46.0625C236.999 46.447 236.845 46.8315 236.538 47.1391C236.23 47.4466 235.846 47.5235 235.461 47.5235C235 47.6004 234.692 47.4466 234.385 47.1391Z" fill="#45BBC9"/>
<path d="M243.305 56.3668L245.766 48.754H248.457L244.766 58.6737H241.767L238.153 48.754H240.767L243.305 56.3668Z" fill="#45BBC9"/>
<path d="M256.454 52.8295C256.454 52.2143 256.224 51.676 255.762 51.2915C255.301 50.907 254.763 50.6763 254.07 50.6763C253.455 50.6763 252.917 50.8301 252.532 51.2146C252.071 51.5991 251.84 52.1374 251.764 52.7526H256.454V52.8295ZM258.992 54.4443H251.764C251.84 55.1364 252.071 55.7516 252.532 56.136C252.994 56.5205 253.532 56.7512 254.147 56.7512C255.07 56.7512 255.762 56.3667 256.147 55.5209H258.838C258.53 56.4436 257.992 57.2895 257.223 57.9047C256.377 58.5199 255.455 58.8274 254.224 58.8274C253.301 58.8274 252.456 58.5968 251.687 58.2123C250.918 57.8278 250.379 57.2126 249.918 56.4436C249.534 55.6747 249.303 54.7519 249.303 53.7522C249.303 52.7526 249.534 51.8298 249.918 51.0608C250.302 50.2918 250.918 49.6767 251.687 49.2922C252.456 48.9077 253.301 48.677 254.301 48.677C255.301 48.677 256.07 48.9077 256.839 49.2922C257.608 49.6767 258.146 50.2918 258.607 50.9839C258.992 51.7529 259.223 52.5988 259.223 53.5215C259.069 53.8291 259.069 54.2136 258.992 54.4443Z" fill="#45BBC9"/>
<path d="M291.443 46.8315C290.904 46.2932 290.058 46.2932 289.443 46.8315C288.905 47.3698 288.905 48.2157 289.443 48.8308C293.134 52.5988 293.057 58.7506 289.289 62.4417C288.982 62.6724 288.905 63.0568 288.905 63.4413C288.905 63.8258 289.059 64.1334 289.289 64.441C289.828 64.9793 290.674 64.9793 291.289 64.441C296.133 59.6734 296.287 51.7529 291.443 46.8315Z" fill="#45BBC9"/>
<path d="M287.675 50.5995C287.136 50.0612 286.29 50.0612 285.675 50.5995C285.137 51.1377 285.137 51.9836 285.675 52.5988C287.367 54.2905 287.29 57.0588 285.598 58.6737C285.291 58.9044 285.214 59.2888 285.214 59.6733C285.214 60.0578 285.368 60.3654 285.598 60.673C286.137 61.2113 286.983 61.2113 287.598 60.673C290.366 57.9047 290.366 53.3678 287.675 50.5995Z" fill="#45BBC9"/>
</svg>
