<svg width="162" height="54" viewBox="0 0 162 54" fill="none" xmlns="http://www.w3.org/2000/svg">
<path fill-rule="evenodd" clip-rule="evenodd" d="M36.2075 0.203125C45.2635 0.203125 52.6048 7.5137 52.6048 16.5318C52.6048 25.5498 45.2635 32.8604 36.2075 32.8604C32.51 32.8604 29.0983 31.6417 26.3555 29.5856C30.3308 26.606 32.9011 21.8678 32.9011 16.5318C32.9011 11.1958 30.3308 6.45754 26.3558 3.47791C29.0983 1.42184 32.51 0.203125 36.2075 0.203125Z" fill="#8C9AF8"/>
<path fill-rule="evenodd" clip-rule="evenodd" d="M36.0442 20.8242C45.1048 20.8242 52.4499 28.182 52.4499 37.2584C52.4499 46.3347 45.1048 53.6926 36.0442 53.6926C31.6943 53.6926 27.7398 51.9967 24.8037 49.2291C28.5749 46.2183 30.9917 41.5774 30.9917 36.3711C30.9917 31.6522 29.0062 27.3978 25.8264 24.4005C28.6293 22.1619 32.1808 20.8242 36.0442 20.8242Z" fill="#FFD592"/>
<path fill-rule="evenodd" clip-rule="evenodd" d="M17.0522 0C20.7456 0 24.1539 1.22258 26.8959 3.28579C22.9108 6.28407 20.3334 11.0576 20.3334 16.4342C20.3334 21.8108 22.9108 26.5843 26.8954 29.5826C24.1539 31.6458 20.7456 32.8684 17.0522 32.8684C7.99158 32.8684 0.646484 25.5105 0.646484 16.4342C0.646484 7.35784 7.99158 0 17.0522 0Z" fill="#78C8C5"/>
<path fill-rule="evenodd" clip-rule="evenodd" d="M16.4057 20.918C20.1951 20.918 23.6845 22.205 26.4619 24.3664C22.5479 27.3699 20.0243 32.0996 20.0243 37.4198C20.0243 42.7001 22.5103 47.3988 26.3738 50.4055C23.6112 52.5262 20.1554 53.7864 16.4057 53.7864C7.34509 53.7864 0 46.4285 0 37.3522C0 28.2758 7.34509 20.918 16.4057 20.918Z" fill="#DB6580"/>
<path fill-rule="evenodd" clip-rule="evenodd" d="M26.7608 3.15039C30.7454 6.14868 33.3228 10.9222 33.3228 16.2988C33.3228 21.6753 30.7454 26.4488 26.7608 29.4471C22.7757 26.4489 20.1982 21.6753 20.1982 16.2988C20.1982 10.9437 22.7551 6.18686 26.7125 3.18644L26.7608 3.15039Z" fill="#5684E0"/>
<path fill-rule="evenodd" clip-rule="evenodd" d="M16.9014 20.6094C11.6699 20.6094 7.06853 22.9398 4.06543 26.5857C7.12358 30.1655 11.7424 32.4457 16.9104 32.4457C18.3276 32.4457 19.7036 32.2742 21.0173 31.9515C21.6613 29.9535 22.6954 28.1221 24.0333 26.5406C22.6854 24.9514 21.6441 23.1083 20.9974 21.0965C19.6826 20.7784 18.3099 20.6094 16.9014 20.6094Z" fill="#B57894"/>
<path fill-rule="evenodd" clip-rule="evenodd" d="M23.8436 26.7692C21.6048 24.0302 20.9043 21.0645 20.9043 21.0645C20.9043 21.0645 23.8758 21.5449 26.5005 23.6332C26.0487 23.9572 24.4444 26.0377 23.8436 26.7692Z" fill="#996F82"/>
<path fill-rule="evenodd" clip-rule="evenodd" d="M35.8074 20.623C41.133 20.623 45.8654 23.0583 48.8598 26.831C45.8549 30.4636 41.2098 32.7934 35.9969 32.7934C34.6546 32.7934 33.3499 32.6389 32.1012 32.3475C31.5397 30.2875 30.5533 28.3924 29.2373 26.7532C30.6062 25.0772 31.6278 23.1281 32.1983 21.0053C33.3594 20.755 34.5673 20.623 35.8074 20.623Z" fill="#D1AC8F"/>
<path fill-rule="evenodd" clip-rule="evenodd" d="M29.5923 26.8425C31.1793 24.899 32.2149 22.9157 32.6992 20.8926C30.4484 21.2372 28.3928 22.1505 26.5322 23.6322C27.0126 23.977 28.9535 26.064 29.5923 26.8425Z" fill="#BCA485"/>
<path fill-rule="evenodd" clip-rule="evenodd" d="M26.5007 23.6309C30.5839 26.6924 33.2236 31.5575 33.2236 37.036C33.2236 42.5144 30.5839 47.3795 26.5007 50.441C22.4172 47.3795 19.7773 42.5144 19.7773 37.036C19.7773 31.5698 22.4053 26.7142 26.4729 23.6515L26.5007 23.6309Z" fill="#F7A871"/>
<path d="M37.2714 12.4553C37.2714 13.9782 37.2714 15.7267 37.2714 17.701C37.2714 23.271 34.9862 29.7417 26.4107 29.7417C17.8351 29.7417 15.7617 21.8914 15.7617 17.701C15.7617 14.9074 15.7617 11.7792 15.7617 8.31641" stroke="white" stroke-width="3.11862" stroke-linecap="round"/>
<path d="M26.4561 29.7422L26.5168 41.9691" stroke="white" stroke-width="3.11862" stroke-linecap="round"/>
<path d="M26.4537 44.349C28.5343 44.349 30.2209 42.6326 30.2209 40.5153C30.2209 38.398 28.5343 36.6816 26.4537 36.6816C24.3731 36.6816 22.6865 38.398 22.6865 40.5153C22.6865 42.6326 24.3731 44.349 26.4537 44.349Z" fill="white" stroke="white" stroke-width="1.01536"/>
<path d="M26.395 42.1586C27.234 42.1586 27.9141 41.4773 27.9141 40.6369C27.9141 39.7965 27.234 39.1152 26.395 39.1152C25.5561 39.1152 24.876 39.7965 24.876 40.6369C24.876 41.4773 25.5561 42.1586 26.395 42.1586Z" fill="#F7A871"/>
<path d="M75.6445 32.9434V38.1261" stroke="#282E55" stroke-width="3.11862" stroke-linecap="round"/>
<path d="M106.52 31.6035L99.8809 31.7518" stroke="#282E55" stroke-width="3.11862" stroke-linecap="round"/>
<path d="M107.823 38.0656V26.7606C107.824 19.3772 105.196 15.6855 99.9405 15.6855C94.6846 15.6855 92.057 19.3772 92.0576 26.7606V38.0656" stroke="#282E55" stroke-width="3.11862" stroke-linecap="round"/>
<path d="M117.266 15.6562H119.654H122.609C121.712 15.6562 122.232 15.6562 124.169 15.6562C127.075 15.6562 131.385 18.331 131.385 23.771C131.385 29.211 126.925 31.7346 124.169 31.7346C122.332 31.7346 121.975 31.7323 123.097 31.7275" stroke="#282E55" stroke-width="3.11862" stroke-linecap="round"/>
<path d="M137.738 15.6562H140.127H143.081C142.184 15.6562 142.704 15.6562 144.641 15.6562C147.547 15.6562 151.857 18.331 151.857 23.771C151.857 29.211 147.397 31.7346 144.641 31.7346C142.804 31.7346 142.447 31.7323 143.57 31.7276" stroke="#282E55" stroke-width="3.11862" stroke-linecap="round"/>
<path d="M117.266 15.7598V38.1233" stroke="#282E55" stroke-width="3.11862" stroke-linecap="round"/>
<path d="M137.738 15.7598V38.1233" stroke="#282E55" stroke-width="3.11862" stroke-linecap="round"/>
<path d="M83.7636 19.9004C83.7636 20.304 83.7636 21.2465 83.7636 22.7281C83.7636 26.908 82.0449 31.7639 75.5951 31.7639C69.1453 31.7639 67.5859 25.8727 67.5859 22.7281C67.5859 20.6316 67.5859 18.2841 67.5859 15.6855" stroke="#282E55" stroke-width="3.11862" stroke-linecap="round"/>
<path d="M159.506 16.705C159.524 16.734 159.534 16.7643 159.534 16.7959C159.534 16.8355 159.518 16.8684 159.486 16.8948C159.457 16.9185 159.423 16.9304 159.383 16.9304C159.323 16.9304 159.275 16.904 159.241 16.8513L158.711 16.013C158.643 15.905 158.571 15.8312 158.498 15.7916C158.424 15.7495 158.324 15.7284 158.197 15.7284H157.699V16.7603C157.699 16.8104 157.684 16.8513 157.655 16.8829C157.626 16.9119 157.588 16.9264 157.541 16.9264C157.491 16.9264 157.451 16.9119 157.422 16.8829C157.393 16.8513 157.379 16.8104 157.379 16.7603V14.2773C157.379 14.2298 157.393 14.1916 157.422 14.1626C157.454 14.1336 157.495 14.1191 157.545 14.1191H158.525C158.828 14.1191 159.059 14.1864 159.217 14.3208C159.378 14.4552 159.458 14.6529 159.458 14.9139C159.458 15.1353 159.394 15.3132 159.265 15.4476C159.138 15.5821 158.956 15.6638 158.719 15.6928C158.785 15.7139 158.844 15.7481 158.897 15.7956C158.95 15.843 159.002 15.9089 159.055 15.9933L159.506 16.705ZM158.498 15.4595C158.714 15.4595 158.875 15.4147 158.98 15.3251C159.088 15.2355 159.142 15.0997 159.142 14.9178C159.142 14.7386 159.089 14.6055 158.984 14.5185C158.878 14.4315 158.716 14.388 158.498 14.388H157.699V15.4595H158.498Z" fill="#282E55"/>
<path d="M158.332 18.3857C159.805 18.3857 160.999 17.1429 160.999 15.6098C160.999 14.0768 159.805 12.834 158.332 12.834C156.858 12.834 155.664 14.0768 155.664 15.6098C155.664 17.1429 156.858 18.3857 158.332 18.3857Z" stroke="#282E55" stroke-width="0.360501"/>
</svg>
