<svg width="207" height="41" viewBox="0 0 207 41" fill="none" xmlns="http://www.w3.org/2000/svg">
<g clip-path="url(#clip0_7_436)">
<path d="M50.9209 29.6434C47.6899 29.6434 45.2343 28.7299 43.5542 26.9246C41.874 25.1193 41.0125 22.5528 41.0125 19.2033C41.0125 17.5503 41.2709 16.0713 41.7879 14.7663C42.3048 13.4612 43.0157 12.3737 43.8988 11.4819C44.8035 10.5902 45.859 9.91598 47.1083 9.43741C48.3576 8.9807 49.6931 8.74146 51.1363 8.74146C51.9764 8.74146 52.7302 8.80665 53.4196 8.93721C54.1088 9.06769 54.7119 9.19816 55.2289 9.37221C55.7458 9.54618 56.1766 9.69844 56.5213 9.87241C56.8659 10.0465 57.1029 10.1769 57.2752 10.2857L55.9828 13.918C55.3797 13.5918 54.6689 13.309 53.8504 13.0697C53.0318 12.8304 52.1271 12.7218 51.0932 12.7218C50.4039 12.7218 49.7361 12.8304 49.0684 13.0697C48.4007 13.309 47.8191 13.6787 47.3236 14.179C46.8283 14.6792 46.419 15.3535 46.1175 16.1583C45.8159 16.963 45.6651 17.9418 45.6651 19.0945C45.6651 20.0298 45.7728 20.8781 45.9667 21.6828C46.1605 22.4876 46.4836 23.1618 46.936 23.7491C47.3883 24.3363 47.9699 24.7931 48.7023 25.1193C49.4346 25.4674 50.2962 25.6196 51.3301 25.6196C51.9764 25.6196 52.5579 25.5761 53.0749 25.5109C53.5918 25.4239 54.0442 25.3369 54.4534 25.2281C54.8627 25.1193 55.2073 25.0106 55.5089 24.8583C55.8105 24.7278 56.0905 24.5974 56.349 24.4886L57.5768 28.0992C56.9521 28.4907 56.0689 28.8386 54.9058 29.1431C53.7641 29.4912 52.4287 29.6434 50.9209 29.6434Z" fill="white"/>
<path d="M78.5138 19.2032C78.5138 20.9215 78.2552 22.4223 77.7599 23.7273C77.2644 25.0323 76.5536 26.1198 75.692 26.9898C74.8088 27.8598 73.775 28.5341 72.5687 28.9691C71.3625 29.4041 70.0485 29.6433 68.6699 29.6433C67.3129 29.6433 66.0421 29.4258 64.8358 28.9691C63.6296 28.5341 62.5741 27.8598 61.6909 26.9898C60.7863 26.1198 60.097 25.0323 59.58 23.7273C59.0631 22.4223 58.8046 20.9215 58.8046 19.2032C58.8046 17.485 59.0631 15.9842 59.6016 14.6792C60.1401 13.3741 60.8509 12.2867 61.7556 11.3949C62.6603 10.5032 63.7157 9.85064 64.9004 9.39385C66.0852 8.95885 67.356 8.7196 68.6699 8.7196C70.027 8.7196 71.2978 8.93715 72.5041 9.39385C73.7103 9.82885 74.7443 10.5032 75.6489 11.3949C76.5536 12.2867 77.2429 13.3741 77.7599 14.6792C78.2552 15.9842 78.5138 17.485 78.5138 19.2032ZM63.3711 19.2032C63.3711 20.182 63.5004 21.0738 63.7373 21.8568C63.9742 22.6397 64.3189 23.3358 64.7712 23.9013C65.2236 24.4668 65.7621 24.9018 66.4082 25.2063C67.0545 25.5108 67.8083 25.6631 68.6484 25.6631C69.4669 25.6631 70.1993 25.5108 70.867 25.2063C71.5347 24.9018 72.0733 24.4668 72.5256 23.9013C72.9779 23.3358 73.3226 22.6615 73.5595 21.8568C73.7965 21.0738 73.9258 20.182 73.9258 19.2032C73.9258 18.2244 73.7965 17.3327 73.5595 16.5279C73.3226 15.7232 72.9779 15.049 72.5256 14.4835C72.0733 13.9179 71.5347 13.4829 70.867 13.1784C70.1993 12.8739 69.4669 12.7217 68.6484 12.7217C67.8083 12.7217 67.0545 12.8739 66.4082 13.2002C65.7621 13.5264 65.202 13.9614 64.7712 14.527C64.3189 15.0925 63.9742 15.7885 63.7373 16.5714C63.5004 17.3544 63.3711 18.2462 63.3711 19.2032Z" fill="white"/>
<path d="M95.4653 29.2301C94.1946 26.9464 92.7942 24.6844 91.3085 22.4441C89.8221 20.2038 88.2282 18.0941 86.5475 16.1148V29.2301H82.1321V9.21997H85.7721C86.3971 9.85073 87.108 10.6337 87.862 11.5689C88.616 12.5042 89.4129 13.483 90.1884 14.527C90.9853 15.571 91.7608 16.6586 92.5577 17.7895C93.3332 18.9206 94.0656 20.008 94.7543 21.0303V9.21997H99.1921V29.2519H95.4653V29.2301Z" fill="white"/>
<path d="M108.842 25.7936C109.466 25.7936 109.984 25.7501 110.393 25.6413C110.802 25.5326 111.125 25.3804 111.384 25.2063C111.642 25.0324 111.793 24.8148 111.9 24.5539C111.987 24.3146 112.052 24.0319 112.052 23.7056C112.052 23.0531 111.75 22.5093 111.126 22.0743C110.522 21.6393 109.466 21.1825 107.98 20.6823C107.334 20.443 106.688 20.1821 106.041 19.8775C105.396 19.573 104.814 19.2033 104.297 18.7465C103.78 18.2898 103.371 17.746 103.048 17.0936C102.725 16.441 102.553 15.658 102.553 14.7445C102.553 13.8092 102.725 12.9827 103.069 12.2433C103.414 11.5037 103.909 10.873 104.534 10.351C105.158 9.82892 105.934 9.43741 106.817 9.15467C107.722 8.87193 108.734 8.74146 109.854 8.74146C111.19 8.74146 112.353 8.89372 113.322 9.17646C114.292 9.4592 115.089 9.78543 115.735 10.1334L114.442 13.6787C113.883 13.396 113.279 13.135 112.59 12.9175C111.923 12.7 111.103 12.5912 110.134 12.5912C109.057 12.5912 108.303 12.7435 107.83 13.048C107.356 13.3525 107.119 13.8092 107.119 14.4183C107.119 14.788 107.205 15.0925 107.377 15.3535C107.549 15.6145 107.787 15.832 108.11 16.0278C108.433 16.2235 108.777 16.4192 109.187 16.5715C109.596 16.7455 110.048 16.8978 110.544 17.0718C111.578 17.4633 112.461 17.833 113.236 18.2028C113.99 18.5725 114.636 19.0075 115.132 19.5078C115.627 20.008 116.015 20.5953 116.252 21.2695C116.51 21.9439 116.618 22.7704 116.618 23.7274C116.618 25.5978 115.972 27.0551 114.68 28.0774C113.387 29.0996 111.427 29.6216 108.821 29.6216C107.937 29.6216 107.14 29.5781 106.451 29.4694C105.74 29.3607 105.115 29.2301 104.577 29.0779C104.038 28.9257 103.565 28.7516 103.177 28.5777C102.789 28.4036 102.466 28.2514 102.186 28.0774L103.436 24.4886C104.017 24.8148 104.749 25.1193 105.632 25.3804C106.537 25.6631 107.592 25.7936 108.842 25.7936Z" fill="white"/>
<path d="M138.697 19.2032C138.697 20.9215 138.438 22.4223 137.943 23.7273C137.447 25.0323 136.737 26.1198 135.875 26.9898C134.992 27.8598 133.958 28.5341 132.751 28.9691C131.545 29.4041 130.232 29.6433 128.853 29.6433C127.496 29.6433 126.225 29.4258 125.019 28.9691C123.812 28.5341 122.757 27.8598 121.874 26.9898C120.969 26.1198 120.28 25.0323 119.763 23.7273C119.246 22.4223 118.988 20.9215 118.988 19.2032C118.988 17.485 119.246 15.9842 119.784 14.6792C120.323 13.3741 121.034 12.2867 121.939 11.3949C122.843 10.5032 123.899 9.85064 125.084 9.39385C126.268 8.95885 127.539 8.7196 128.853 8.7196C130.21 8.7196 131.481 8.93715 132.687 9.39385C133.893 9.82885 134.927 10.5032 135.832 11.3949C136.737 12.2867 137.426 13.3741 137.943 14.6792C138.438 15.9842 138.697 17.485 138.697 19.2032ZM123.554 19.2032C123.554 20.182 123.683 21.0738 123.921 21.8568C124.157 22.6397 124.502 23.3358 124.954 23.9013C125.407 24.4668 125.945 24.9018 126.592 25.2063C127.237 25.5108 127.991 25.6631 128.831 25.6631C129.65 25.6631 130.382 25.5108 131.05 25.2063C131.718 24.9018 132.256 24.4668 132.708 23.9013C133.161 23.3358 133.505 22.6615 133.743 21.8568C133.98 21.0738 134.109 20.182 134.109 19.2032C134.109 18.2244 133.98 17.3327 133.743 16.5279C133.505 15.7232 133.161 15.049 132.708 14.4835C132.256 13.9179 131.718 13.4829 131.05 13.1784C130.382 12.8739 129.65 12.7217 128.831 12.7217C127.991 12.7217 127.237 12.8739 126.592 13.2002C125.945 13.5264 125.385 13.9614 124.954 14.527C124.502 15.0925 124.157 15.7885 123.921 16.5714C123.662 17.3544 123.554 18.2462 123.554 19.2032Z" fill="white"/>
<path d="M147.959 8.98071C150.931 8.98071 153.214 9.52449 154.787 10.5902C156.381 11.656 157.156 13.3307 157.156 15.571C157.156 16.9848 156.834 18.1158 156.187 18.9858C155.541 19.8558 154.636 20.5518 153.43 21.0521C153.839 21.5524 154.248 22.1178 154.679 22.7704C155.11 23.4228 155.562 24.0971 155.971 24.7931C156.402 25.4891 156.811 26.2286 157.221 26.9899C157.631 27.7512 157.996 28.4907 158.341 29.2301H153.344C152.978 28.5777 152.612 27.9034 152.245 27.2292C151.879 26.5548 151.491 25.9024 151.104 25.2716C150.716 24.6409 150.328 24.0319 149.94 23.4663C149.553 22.9009 149.165 22.3789 148.799 21.9221H146.601V29.2301H142.164V9.5027C143.133 9.30694 144.146 9.17647 145.18 9.08948C146.214 9.02421 147.14 8.98071 147.959 8.98071ZM148.217 12.8305C147.894 12.8305 147.593 12.8305 147.334 12.8522C147.076 12.874 146.839 12.8957 146.601 12.9175V18.3551H147.851C149.531 18.3551 150.737 18.1375 151.448 17.7243C152.181 17.311 152.525 16.5715 152.525 15.5492C152.525 14.5705 152.159 13.8745 151.427 13.4612C150.737 13.0262 149.66 12.8305 148.217 12.8305Z" fill="white"/>
<path d="M169.305 29.6434C166.074 29.6434 163.618 28.7299 161.938 26.9246C160.258 25.1193 159.396 22.5528 159.396 19.2033C159.396 17.5503 159.655 16.0713 160.172 14.7663C160.689 13.4612 161.399 12.3737 162.282 11.4819C163.188 10.5902 164.243 9.91598 165.493 9.43741C166.742 8.9807 168.077 8.74146 169.52 8.74146C170.36 8.74146 171.114 8.80665 171.804 8.93721C172.493 9.06769 173.096 9.19816 173.612 9.37221C174.13 9.54618 174.561 9.69844 174.905 9.87241C175.25 10.0465 175.487 10.1769 175.659 10.2857L174.366 13.918C173.764 13.5918 173.053 13.309 172.234 13.0697C171.416 12.8304 170.511 12.7218 169.477 12.7218C168.788 12.7218 168.12 12.8304 167.453 13.0697C166.785 13.309 166.203 13.6787 165.707 14.179C165.212 14.6792 164.803 15.3535 164.501 16.1583C164.2 16.963 164.049 17.9418 164.049 19.0945C164.049 20.0298 164.157 20.8781 164.351 21.6828C164.544 22.4876 164.868 23.1618 165.32 23.7491C165.772 24.3363 166.354 24.7931 167.086 25.1193C167.819 25.4674 168.68 25.6196 169.714 25.6196C170.36 25.6196 170.942 25.5761 171.459 25.5109C171.976 25.4239 172.428 25.3369 172.837 25.2281C173.246 25.1193 173.591 25.0106 173.893 24.8583C174.194 24.7278 174.475 24.5974 174.733 24.4886L175.96 28.0992C175.336 28.4907 174.453 28.8386 173.29 29.1431C172.127 29.4912 170.812 29.6434 169.305 29.6434Z" fill="white"/>
<path d="M178.934 9.21997H183.392V29.2519H178.934V9.21997Z" fill="white"/>
<path d="M207 19.2032C207 20.9215 206.741 22.4223 206.246 23.7273C205.751 25.0323 205.04 26.1198 204.178 26.9898C203.296 27.8598 202.261 28.5341 201.055 28.9691C199.849 29.4041 198.535 29.6433 197.156 29.6433C195.799 29.6433 194.528 29.4258 193.322 28.9691C192.116 28.5341 191.06 27.8598 190.177 26.9898C189.273 26.1198 188.583 25.0323 188.067 23.7273C187.549 22.4223 187.291 20.9215 187.291 19.2032C187.291 17.485 187.549 15.9842 188.088 14.6792C188.626 13.3741 189.337 12.2867 190.242 11.3949C191.147 10.5032 192.202 9.85064 193.387 9.39385C194.571 8.95885 195.843 8.7196 197.156 8.7196C198.513 8.7196 199.785 8.93715 200.991 9.39385C202.197 9.82885 203.23 10.5032 204.135 11.3949C205.04 12.2867 205.729 13.3741 206.246 14.6792C206.741 15.9842 207 17.485 207 19.2032ZM191.879 19.2032C191.879 20.182 192.008 21.0738 192.245 21.8568C192.482 22.6397 192.827 23.3358 193.279 23.9013C193.731 24.4668 194.27 24.9018 194.916 25.2063C195.563 25.5108 196.316 25.6631 197.156 25.6631C197.975 25.6631 198.707 25.5108 199.375 25.2063C200.042 24.9018 200.581 24.4668 201.034 23.9013C201.486 23.3358 201.831 22.6615 202.067 21.8568C202.304 21.0738 202.433 20.182 202.433 19.2032C202.433 18.2244 202.304 17.3327 202.067 16.5279C201.831 15.7232 201.486 15.049 201.034 14.4835C200.581 13.9179 200.042 13.4829 199.375 13.1784C198.707 12.8739 197.975 12.7217 197.156 12.7217C196.316 12.7217 195.563 12.8739 194.916 13.2002C194.27 13.5264 193.71 13.9614 193.279 14.527C192.827 15.0925 192.482 15.7885 192.245 16.5714C191.987 17.3544 191.879 18.2462 191.879 19.2032Z" fill="white"/>
<path d="M26.1068 11.3731C22.5096 11.1339 16.3276 12.0909 12.4504 14.6574L12.7304 15.658C12.7304 15.658 17.857 12.9609 24.1251 13.5046C24.1251 13.5046 24.082 15.2881 24.0605 18.0722C18.8909 17.9634 14.4321 18.9204 10.8564 21.1172L11.0934 22.0525C11.0934 22.0525 16.1983 19.0727 24.0389 20.2255C24.0389 21.7263 24.0389 23.3357 24.0389 24.9018C21.7342 24.6625 13.6566 24.8148 9.34863 27.4466L9.56399 28.4254C9.56399 28.4254 16.263 25.5978 24.0389 26.9898C24.0605 28.5123 24.1251 30.2089 24.2112 31.4051L26.0852 31.4921C25.6976 20.5517 26.1499 11.3731 26.1068 11.3731Z" fill="white"/>
<path d="M33.1503 5.71813C32.8272 5.69637 32.1379 5.65287 31.2117 5.63112C31.384 2.32509 31.664 0.150068 31.664 0.150068C27.0545 -0.393688 21.3033 0.541572 15.8105 2.9341L15.229 4.84811C20.7001 2.49909 25.4821 1.86834 29.6608 1.99884C29.6608 1.99884 29.4238 3.73885 29.2731 5.63112C24.965 5.69637 18.0723 6.34888 12.4934 9.32863L11.9979 10.9165C21.8417 6.67514 30.8886 7.9584 30.8886 7.9584C30.8886 7.9584 30.2423 22.879 31.8794 33.6454L33.7965 33.8847C32.3102 20.6605 33.1503 5.71813 33.1503 5.71813Z" fill="white"/>
<path d="M21.777 35.3854C9.64994 35.3854 2.39095 38.3434 0.495422 39.2134L0 40.8229C0 40.8229 7.51748 37.3429 21.777 37.3429C36.1011 37.3429 43.5325 40.8229 43.5325 40.8229L43.0586 39.2134C41.1846 38.3434 33.9687 35.3854 21.777 35.3854Z" fill="white"/>
</g>
<defs>
<clipPath id="clip0_7_436">
<rect width="207" height="41" fill="white"/>
</clipPath>
</defs>
</svg>
