<svg width="260" height="51" viewBox="0 0 260 51" fill="none" xmlns="http://www.w3.org/2000/svg">
<g clip-path="url(#clip0_7_147)">
<path d="M63.9586 36.8735C59.9003 36.8735 56.816 35.7372 54.7057 33.4916C52.5954 31.246 51.5132 28.0535 51.5132 23.887C51.5132 21.8308 51.8378 19.9911 52.4872 18.3678C53.1365 16.7444 54.0293 15.3917 55.1386 14.2824C56.2749 13.1732 57.6006 12.3345 59.1698 11.7392C60.739 11.1711 62.4164 10.8735 64.2291 10.8735C65.2843 10.8735 66.2312 10.9546 67.097 11.117C67.9627 11.2793 68.7203 11.4416 69.3696 11.6581C70.0189 11.8745 70.56 12.0639 70.9929 12.2803C71.4258 12.4968 71.7234 12.6591 71.9398 12.7944L70.3165 17.3126C69.559 16.9068 68.6662 16.5551 67.6381 16.2574C66.61 15.9598 65.4736 15.8246 64.175 15.8246C63.3092 15.8246 62.4705 15.9598 61.6318 16.2574C60.7931 16.5551 60.0626 17.015 59.4403 17.6373C58.8181 18.2595 58.304 19.0982 57.9253 20.0993C57.5465 21.1003 57.3571 22.3178 57.3571 23.7517C57.3571 24.9151 57.4924 25.9703 57.7359 26.9713C57.9794 27.9723 58.3852 28.811 58.9534 29.5415C59.5215 30.272 60.252 30.8402 61.1719 31.246C62.0918 31.6789 63.174 31.8683 64.4726 31.8683C65.2843 31.8683 66.0147 31.8142 66.6641 31.733C67.3134 31.6248 67.8816 31.5166 68.3956 31.3813C68.9097 31.246 69.3425 31.1107 69.7213 30.9213C70.1001 30.759 70.4518 30.5967 70.7765 30.4614L72.3186 34.9526C71.534 35.4396 70.4247 35.8724 68.9638 36.2512C67.5298 36.6841 65.8524 36.8735 63.9586 36.8735Z" fill="#003DA5"/>
<path d="M98.6163 23.887C98.6163 26.0244 98.2916 27.8912 97.6694 29.5145C97.0471 31.1378 96.1543 32.4906 95.0721 33.5728C93.9628 34.655 92.6642 35.4937 91.1491 36.0348C89.634 36.5759 87.9836 36.8735 86.2521 36.8735C84.5476 36.8735 82.9514 36.6029 81.4363 36.0348C79.9212 35.4937 78.5955 34.655 77.4862 33.5728C76.3499 32.4906 75.4842 31.1378 74.8348 29.5145C74.1855 27.8912 73.8608 26.0244 73.8608 23.887C73.8608 21.7497 74.1855 19.8829 74.8619 18.2595C75.5383 16.6362 76.4311 15.2835 77.5674 14.1742C78.7037 13.065 80.0294 12.2533 81.5174 11.6851C83.0055 11.144 84.6017 10.8464 86.2521 10.8464C87.9566 10.8464 89.5528 11.117 91.0679 11.6851C92.583 12.2262 93.8817 13.065 95.018 14.1742C96.1543 15.2835 97.0201 16.6362 97.6694 18.2595C98.2916 19.8829 98.6163 21.7497 98.6163 23.887ZM79.5965 23.887C79.5965 25.1045 79.7589 26.2138 80.0565 27.1878C80.3541 28.1617 80.787 29.0275 81.3551 29.7309C81.9233 30.4344 82.5997 30.9755 83.4113 31.3542C84.223 31.733 85.1699 31.9224 86.2251 31.9224C87.2531 31.9224 88.173 31.733 89.0117 31.3542C89.8504 30.9755 90.5268 30.4344 91.095 29.7309C91.6631 29.0275 92.096 28.1888 92.3936 27.1878C92.6912 26.2138 92.8536 25.1045 92.8536 23.887C92.8536 22.6695 92.6912 21.5603 92.3936 20.5592C92.096 19.5582 91.6631 18.7195 91.095 18.0161C90.5268 17.3126 89.8504 16.7715 89.0117 16.3927C88.173 16.014 87.2531 15.8246 86.2251 15.8246C85.1699 15.8246 84.223 16.014 83.4113 16.4198C82.5997 16.8256 81.8962 17.3667 81.3551 18.0702C80.787 18.7736 80.3541 19.6394 80.0565 20.6133C79.7589 21.5873 79.5965 22.6966 79.5965 23.887Z" fill="#003DA5"/>
<path d="M119.908 36.3595C118.312 33.5187 116.553 30.7049 114.687 27.9182C112.82 25.1315 110.818 22.5072 108.707 20.0452V36.3595H103.161V11.4688H107.733C108.518 12.2534 109.411 13.2273 110.358 14.3906C111.305 15.554 112.306 16.7716 113.28 18.0702C114.281 19.3689 115.255 20.7217 116.256 22.1285C117.23 23.5354 118.15 24.888 119.015 26.1596V11.4688H124.589V36.3866H119.908V36.3595Z" fill="#003DA5"/>
<path d="M136.71 32.0847C137.494 32.0847 138.144 32.0306 138.658 31.8953C139.172 31.7601 139.577 31.5707 139.902 31.3542C140.227 31.1378 140.416 30.8672 140.551 30.5426C140.66 30.245 140.741 29.8933 140.741 29.4874C140.741 28.6758 140.362 27.9994 139.578 27.4583C138.82 26.9172 137.494 26.349 135.627 25.7268C134.816 25.4291 134.004 25.1045 133.192 24.7257C132.381 24.3469 131.65 23.887 131.001 23.3188C130.352 22.7507 129.838 22.0743 129.432 21.2627C129.026 20.451 128.81 19.477 128.81 18.3407C128.81 17.1773 129.026 16.1492 129.459 15.2294C129.892 14.3095 130.514 13.5249 131.299 12.8756C132.083 12.2262 133.057 11.7392 134.166 11.3875C135.303 11.0358 136.574 10.8735 137.981 10.8735C139.659 10.8735 141.12 11.0629 142.337 11.4146C143.555 11.7663 144.556 12.1721 145.367 12.605L143.744 17.015C143.041 16.6633 142.283 16.3386 141.417 16.0681C140.579 15.7975 139.55 15.6622 138.333 15.6622C136.98 15.6622 136.033 15.8516 135.438 16.2304C134.843 16.6092 134.545 17.1773 134.545 17.9349C134.545 18.3948 134.653 18.7736 134.87 19.0982C135.086 19.4229 135.384 19.6935 135.79 19.937C136.196 20.1804 136.628 20.4239 137.143 20.6133C137.657 20.8298 138.225 21.0192 138.847 21.2356C140.146 21.7226 141.255 22.1825 142.229 22.6425C143.176 23.1024 143.987 23.6435 144.61 24.2658C145.232 24.888 145.719 25.6185 146.017 26.4572C146.341 27.296 146.477 28.3241 146.477 29.5145C146.477 31.8412 145.665 33.6539 144.042 34.9255C142.418 36.1971 139.956 36.8464 136.683 36.8464C135.573 36.8464 134.572 36.7923 133.707 36.657C132.814 36.5218 132.029 36.3594 131.353 36.17C130.676 35.9807 130.081 35.7642 129.594 35.5478C129.107 35.3313 128.701 35.142 128.35 34.9255L129.919 30.4614C130.649 30.8672 131.569 31.246 132.678 31.5707C133.815 31.9224 135.14 32.0847 136.71 32.0847Z" fill="#003DA5"/>
<path d="M174.209 23.887C174.209 26.0244 173.884 27.8912 173.262 29.5145C172.639 31.1378 171.747 32.4906 170.664 33.5728C169.555 34.655 168.256 35.4937 166.741 36.0348C165.226 36.5759 163.576 36.8735 161.844 36.8735C160.14 36.8735 158.544 36.6029 157.029 36.0348C155.513 35.4937 154.188 34.655 153.079 33.5728C151.942 32.4906 151.076 31.1378 150.427 29.5145C149.778 27.8912 149.453 26.0244 149.453 23.887C149.453 21.7497 149.778 19.8829 150.454 18.2595C151.131 16.6362 152.023 15.2835 153.16 14.1742C154.296 13.065 155.622 12.2533 157.11 11.6851C158.598 11.144 160.194 10.8464 161.844 10.8464C163.549 10.8464 165.145 11.117 166.66 11.6851C168.175 12.2262 169.474 13.065 170.61 14.1742C171.747 15.2835 172.612 16.6362 173.262 18.2595C173.884 19.8829 174.209 21.7497 174.209 23.887ZM155.189 23.887C155.189 25.1045 155.351 26.2138 155.649 27.1878C155.946 28.1617 156.379 29.0275 156.947 29.7309C157.516 30.4344 158.192 30.9755 159.004 31.3542C159.815 31.733 160.762 31.9224 161.817 31.9224C162.845 31.9224 163.765 31.733 164.604 31.3542C165.443 30.9755 166.119 30.4344 166.687 29.7309C167.255 29.0275 167.688 28.1888 167.986 27.1878C168.284 26.2138 168.446 25.1045 168.446 23.887C168.446 22.6695 168.284 21.5603 167.986 20.5592C167.688 19.5582 167.255 18.7195 166.687 18.0161C166.119 17.3126 165.443 16.7715 164.604 16.3927C163.765 16.014 162.845 15.8246 161.817 15.8246C160.762 15.8246 159.815 16.014 159.004 16.4198C158.192 16.8256 157.488 17.3667 156.947 18.0702C156.379 18.7736 155.946 19.6394 155.649 20.6133C155.324 21.5873 155.189 22.6966 155.189 23.887Z" fill="#003DA5"/>
<path d="M185.842 11.1711C189.575 11.1711 192.443 11.8475 194.418 13.1732C196.42 14.4989 197.394 16.5821 197.394 19.3688C197.394 21.1274 196.989 22.5342 196.177 23.6165C195.365 24.6987 194.229 25.5644 192.714 26.1867C193.228 26.809 193.742 27.5124 194.283 28.3241C194.824 29.1357 195.392 29.9744 195.906 30.8402C196.447 31.7059 196.961 32.6258 197.476 33.5728C197.99 34.5197 198.449 35.4396 198.882 36.3594H192.606C192.146 35.5478 191.686 34.7091 191.226 33.8704C190.766 33.0316 190.279 32.22 189.792 31.4354C189.305 30.6508 188.818 29.8933 188.331 29.1898C187.844 28.4864 187.357 27.8371 186.897 27.2689H184.137V36.3594H178.564V11.8204C179.781 11.5769 181.053 11.4146 182.352 11.3064C183.65 11.2252 184.814 11.1711 185.842 11.1711ZM186.166 15.9598C185.761 15.9598 185.382 15.9598 185.057 15.9869C184.733 16.014 184.435 16.041 184.137 16.0681V22.8319H185.707C187.817 22.8319 189.332 22.5613 190.225 22.0473C191.145 21.5332 191.577 20.6133 191.577 19.3417C191.577 18.1243 191.118 17.2585 190.198 16.7444C189.332 16.2033 187.979 15.9598 186.166 15.9598Z" fill="#003DA5"/>
<path d="M212.653 36.8735C208.595 36.8735 205.511 35.7372 203.401 33.4916C201.29 31.246 200.208 28.0535 200.208 23.887C200.208 21.8308 200.533 19.9911 201.182 18.3678C201.831 16.7444 202.724 15.3917 203.833 14.2824C204.97 13.1732 206.295 12.3345 207.865 11.7392C209.434 11.1711 211.111 10.8735 212.924 10.8735C213.979 10.8735 214.926 10.9546 215.792 11.117C216.658 11.2793 217.415 11.4416 218.064 11.6581C218.714 11.8745 219.255 12.0639 219.688 12.2803C220.121 12.4968 220.418 12.6591 220.635 12.7944L219.011 17.3126C218.254 16.9068 217.361 16.5551 216.333 16.2574C215.305 15.9598 214.168 15.8246 212.87 15.8246C212.004 15.8246 211.165 15.9598 210.327 16.2574C209.488 16.5551 208.757 17.015 208.135 17.6373C207.513 18.2595 206.999 19.0982 206.62 20.0993C206.241 21.1003 206.052 22.3178 206.052 23.7517C206.052 24.9151 206.187 25.9703 206.431 26.9713C206.674 27.9723 207.08 28.811 207.648 29.5415C208.216 30.272 208.947 30.8402 209.867 31.246C210.787 31.6789 211.869 31.8683 213.167 31.8683C213.979 31.8683 214.71 31.8142 215.359 31.733C216.008 31.6248 216.576 31.5166 217.09 31.3813C217.604 31.246 218.037 31.1107 218.416 30.9213C218.795 30.759 219.147 30.5967 219.471 30.4614L221.013 34.9526C220.229 35.4396 219.12 35.8724 217.659 36.2512C216.198 36.6841 214.547 36.8735 212.653 36.8735Z" fill="#003DA5"/>
<path d="M224.748 11.4688H230.348V36.3866H224.748V11.4688Z" fill="#003DA5"/>
<path d="M260 23.887C260 26.0244 259.675 27.8912 259.053 29.5145C258.431 31.1378 257.538 32.4906 256.456 33.5728C255.347 34.655 254.048 35.4937 252.533 36.0348C251.018 36.5759 249.367 36.8735 247.636 36.8735C245.931 36.8735 244.335 36.6029 242.82 36.0348C241.305 35.4937 239.979 34.655 238.87 33.5728C237.734 32.4906 236.868 31.1378 236.219 29.5145C235.569 27.8912 235.245 26.0244 235.245 23.887C235.245 21.7497 235.569 19.8829 236.246 18.2595C236.922 16.6362 237.815 15.2835 238.951 14.1742C240.088 13.065 241.413 12.2533 242.901 11.6851C244.389 11.144 245.986 10.8464 247.636 10.8464C249.34 10.8464 250.937 11.117 252.452 11.6851C253.967 12.2262 255.265 13.065 256.402 14.1742C257.538 15.2835 258.404 16.6362 259.053 18.2595C259.675 19.8829 260 21.7497 260 23.887ZM241.007 23.887C241.007 25.1045 241.17 26.2138 241.467 27.1878C241.765 28.1617 242.198 29.0275 242.766 29.7309C243.334 30.4344 244.011 30.9755 244.822 31.3542C245.634 31.733 246.581 31.9224 247.636 31.9224C248.664 31.9224 249.584 31.733 250.423 31.3542C251.261 30.9755 251.938 30.4344 252.506 29.7309C253.074 29.0275 253.507 28.1888 253.804 27.1878C254.102 26.2138 254.264 25.1045 254.264 23.887C254.264 22.6695 254.102 21.5603 253.804 20.5592C253.507 19.5582 253.074 18.7195 252.506 18.0161C251.938 17.3126 251.261 16.7715 250.423 16.3927C249.584 16.014 248.664 15.8246 247.636 15.8246C246.581 15.8246 245.634 16.014 244.822 16.4198C244.011 16.8256 243.307 17.3667 242.766 18.0702C242.198 18.7736 241.765 19.6394 241.467 20.6133C241.143 21.5873 241.007 22.6966 241.007 23.887Z" fill="#003DA5"/>
<path d="M32.7911 14.147C28.2729 13.8494 20.5081 15.0398 15.6381 18.2323L15.9898 19.4769C15.9898 19.4769 22.429 16.122 30.302 16.7984C30.302 16.7984 30.2479 19.0169 30.2209 22.48C23.7276 22.3447 18.1272 23.5351 13.636 26.2677L13.9337 27.4311C13.9337 27.4311 20.3457 23.7245 30.1938 25.1585C30.1938 27.0253 30.1938 29.0273 30.1938 30.9753C27.2989 30.6777 17.1532 30.8671 11.7422 34.1408L12.0127 35.3583C12.0127 35.3583 20.4269 31.8411 30.1938 33.5726C30.2209 35.4665 30.302 37.5768 30.4102 39.0648L32.764 39.173C32.2771 25.5643 32.8452 14.147 32.7911 14.147Z" fill="#84BD00"/>
<path d="M41.638 7.11279C41.2322 7.08573 40.3664 7.03162 39.203 7.00457C39.4195 2.89219 39.7712 0.18667 39.7712 0.18667C33.9814 -0.489709 26.7577 0.673663 19.8586 3.64973L19.1281 6.03058C26.0001 3.10863 32.0064 2.32403 37.2551 2.48636C37.2551 2.48636 36.9574 4.65077 36.7681 7.00457C31.357 7.08573 22.6994 7.89739 15.6921 11.6039L15.0698 13.579C27.434 8.30322 38.7972 9.89947 38.7972 9.89947C38.7972 9.89947 37.9855 28.4593 40.0417 41.8516L42.4496 42.1492C40.5828 25.6997 41.638 7.11279 41.638 7.11279Z" fill="#003DA5"/>
<path d="M27.3528 44.016C12.1207 44.016 3.00312 47.6955 0.622269 48.7777L0 50.7798C0 50.7798 9.44225 46.451 27.3528 46.451C45.3444 46.451 54.6785 50.7798 54.6785 50.7798L54.0833 48.7777C51.7295 47.6955 42.666 44.016 27.3528 44.016Z" fill="#003DA5"/>
</g>
<defs>
<clipPath id="clip0_7_147">
<rect width="260" height="51" fill="white"/>
</clipPath>
</defs>
</svg>
