<svg width="88" height="85" viewBox="0 0 88 85" fill="none" xmlns="http://www.w3.org/2000/svg">
<g clip-path="url(#clip0_2_196)">
<circle cx="21" cy="75" r="8" fill="#007DB7"/>
<circle cx="67" cy="75" r="8" fill="#007DB7"/>
<rect x="23" y="13" width="12" height="10" fill="#007DB7"/>
<path d="M77.1076 76.1784C75.928 82.4648 71.2438 84.8534 67.5585 84.9914C65.0421 85.1153 62.5749 84.2628 60.6701 82.6114C58.7793 80.9866 57.5531 78.7208 57.2258 76.2474H30.9292C29.5515 81.9646 26.0556 85.2415 19.9851 84.9224C15.8779 84.7068 11.9342 81.7404 10.944 76.2301C10.6082 76.2301 10.2552 76.187 9.90215 76.187C7.61174 76.187 5.32133 76.187 3.0137 76.187C0.947162 76.187 0 75.2298 0 73.1344C0 56.934 0 40.7366 0 24.542C0 22.4206 0.998826 21.4721 3.14286 21.4721H21.1648C21.1648 21.0754 21.2164 20.7822 21.2164 20.489C21.2164 19.1093 21.2164 17.7209 21.2164 16.3412C21.1825 14.8702 21.7094 13.4416 22.6899 12.3458C23.6705 11.2501 25.031 10.5697 26.4947 10.4429C28.2715 10.2718 30.0615 10.295 31.8333 10.5118C33.1824 10.6987 34.4189 11.3667 35.3158 12.3932C36.2127 13.4197 36.7096 14.7358 36.7155 16.0998C36.7585 17.8244 36.7155 19.5491 36.7155 21.4635H37.9898C47.0223 21.4635 56.072 21.4635 65.0787 21.4635C65.6835 21.4282 66.2852 21.5732 66.8078 21.8801C67.3304 22.1871 67.7504 22.6422 68.0149 23.1881C72.1307 29.9948 76.2896 36.7727 80.4916 43.5219C82.6873 47.0747 84.9432 50.5844 87.1389 54.1458C87.4164 54.5962 87.5763 55.1092 87.6039 55.6376C87.7503 61.5101 87.8622 67.374 87.9742 73.2465C87.9742 75.1781 87.027 76.2043 85.0982 76.2301C82.8078 76.2301 80.5174 76.2301 78.2098 76.2301L77.1076 76.1784ZM84.8571 73.0395V71.8064C84.771 67.2188 84.6247 62.6312 84.616 58.0091C84.6728 56.4245 84.1967 54.8667 83.2642 53.5853C83.1114 53.3387 82.8943 53.1386 82.6364 53.0064C82.3785 52.8742 82.0894 52.815 81.8004 52.8351C73.5859 52.8351 65.3628 52.8351 57.1483 52.8351C53.4372 52.8351 49.7346 52.8351 46.0321 52.8351C44.4582 52.8564 42.9384 52.2603 41.7976 51.1742C40.6568 50.0882 39.9855 48.5982 39.9272 47.023C39.798 43.3149 39.8239 39.6069 39.9272 35.8989C39.9662 34.6036 40.4288 33.357 41.2439 32.3506C42.0591 31.3442 43.1816 30.6337 44.4391 30.3282C45.2568 30.134 46.0962 30.047 46.9362 30.0695C53.6438 30.0695 60.3429 30.0695 67.0505 30.0695H68.3679C68.144 29.647 68.0149 29.3883 67.8685 29.1382C67.1538 27.9223 66.3875 26.7237 65.7245 25.4733C65.6002 25.1857 65.3862 24.9462 65.1145 24.7907C64.8428 24.6352 64.5281 24.5721 64.2176 24.611C44.2411 24.611 24.2646 24.611 4.28806 24.611H3.19452V73.0395H10.944C12.8642 67.5637 16.1104 64.8991 20.8462 64.8991C25.582 64.8991 28.7679 67.4861 30.7397 73.0136H57.2775C58.5519 68.1759 61.9961 65.1837 66.508 64.925C68.636 64.7829 70.7522 65.3399 72.5354 66.5116C73.6674 67.2508 74.6405 68.209 75.3976 69.33C76.1547 70.451 76.6804 71.7122 76.944 73.0395H84.8571ZM80.4916 49.7565C80.3194 49.4202 80.2419 49.2392 80.1385 49.0753C76.9354 43.9789 73.7151 38.8912 70.5292 33.7689C70.4192 33.5668 70.2514 33.4022 70.0474 33.2961C69.8433 33.1901 69.6123 33.1476 69.384 33.1739C65.9397 33.1739 62.4438 33.1739 58.9824 33.1739C54.7374 33.1739 50.4924 33.1739 46.2474 33.1739C45.832 33.1493 45.416 33.2097 45.0247 33.3513C44.6334 33.4929 44.275 33.7128 43.9713 33.9976C43.6676 34.2824 43.425 34.6261 43.2582 35.0078C43.0914 35.3895 43.004 35.8013 43.0012 36.2179C43.0012 39.7276 43.0012 43.2373 43.0012 46.7384C43.005 47.3869 43.2209 48.0164 43.6159 48.5303C44.0109 49.0443 44.5632 49.4144 45.1883 49.5841C45.751 49.7246 46.3307 49.7856 46.9104 49.7652C57.7195 49.7652 68.5286 49.7652 79.3378 49.7652L80.4916 49.7565ZM13.9836 75.0229C13.9836 76.8582 14.7116 78.6184 16.0074 79.9162C17.3033 81.214 19.0609 81.9431 20.8935 81.9431C22.7262 81.9431 24.4838 81.214 25.7796 79.9162C27.0755 78.6184 27.8035 76.8582 27.8035 75.0229C27.8035 73.1932 27.0778 71.4385 25.7859 70.1448C24.4941 68.851 22.742 68.1242 20.9151 68.1242C19.0881 68.1242 17.336 68.851 16.0442 70.1448C14.7524 71.4385 14.0266 73.1932 14.0266 75.0229H13.9836ZM74.0509 74.9194C74.0305 73.5595 73.6093 72.2361 72.8401 71.1153C72.0709 69.9945 70.9881 69.1264 69.7277 68.6201C68.4674 68.1138 67.0857 67.9919 65.7563 68.2696C64.427 68.5474 63.2093 69.2124 62.2562 70.1812C61.3031 71.15 60.6573 72.3793 60.3997 73.7146C60.1422 75.0499 60.2845 76.4317 60.8088 77.6862C61.3331 78.9408 62.2159 80.0121 63.3464 80.7657C64.4768 81.5192 65.8045 81.9214 67.1624 81.9215C68.0758 81.9216 68.9801 81.7398 69.8226 81.3867C70.6652 81.0335 71.4292 80.5161 72.0702 79.8645C72.7112 79.2129 73.2164 78.4401 73.5565 77.5912C73.8965 76.7422 74.0646 75.834 74.0509 74.9194ZM33.6415 21.1961C33.6415 19.4715 33.719 17.7468 33.6415 16.0221C33.6136 15.3703 33.3408 14.7531 32.8777 14.2941C32.4147 13.8352 31.7956 13.5684 31.1444 13.5473C29.7323 13.4783 28.3202 13.4783 26.908 13.5473C26.2927 13.559 25.7031 13.7963 25.2508 14.2143C24.7985 14.6323 24.515 15.2019 24.454 15.8152C24.3507 17.5916 24.454 19.368 24.454 21.2048L33.6415 21.1961Z" fill="#09566A"/>
<path d="M46.058 10.0806C45.9366 10.41 45.7747 10.7229 45.5758 11.0119C44.3129 12.6331 43.0299 14.2428 41.7268 15.841C41.6107 16.0287 41.4562 16.1897 41.2734 16.3132C41.0906 16.4366 40.8837 16.5199 40.6665 16.5574C40.4492 16.5949 40.2264 16.5858 40.0129 16.5306C39.7994 16.4755 39.6 16.3757 39.4278 16.2377C39.2572 16.0984 39.1176 15.9248 39.0181 15.7282C38.9185 15.5315 38.8612 15.3162 38.8499 15.096C38.8385 14.8758 38.8734 14.6557 38.9521 14.4498C39.0309 14.244 39.1519 14.0569 39.3073 13.9008C40.6247 12.2278 41.9421 10.5722 43.294 8.9251C43.4838 8.64139 43.7681 8.43447 44.0962 8.34128C44.4242 8.24809 44.7747 8.27468 45.085 8.41633C45.4063 8.54937 45.6753 8.78406 45.851 9.08456C46.0267 9.38506 46.0994 9.73488 46.058 10.0806Z" fill="#09566A"/>
<path d="M19.1499 14.7545C19.2011 15.0691 19.1581 15.3917 19.0263 15.6818C18.8945 15.9719 18.6798 16.2163 18.4094 16.3843C18.181 16.5321 17.9149 16.6107 17.643 16.6107C17.3712 16.6107 17.1051 16.5321 16.8767 16.3843C16.6788 16.264 16.5014 16.1126 16.3515 15.9359C14.9996 14.263 13.6391 12.5987 12.3389 10.8826C12.0817 10.5021 11.9547 10.0482 11.9773 9.58915C12.0029 9.29812 12.1201 9.02275 12.3119 8.80269C12.5038 8.58263 12.7605 8.42925 13.045 8.36464C13.3172 8.26971 13.6119 8.26099 13.8892 8.33967C14.1665 8.41836 14.4129 8.58062 14.5949 8.80443C15.1976 9.48567 15.7487 10.21 16.317 10.9171C17.0747 11.8571 17.8411 12.7884 18.573 13.7542C18.79 14.0727 18.9829 14.4071 19.1499 14.7545Z" fill="#09566A"/>
<path d="M27.4419 4.07883C27.4419 3.27686 27.4419 2.46627 27.4419 1.65568C27.4315 1.44488 27.4634 1.23413 27.5358 1.03591C27.6081 0.837681 27.7195 0.656006 27.8632 0.501632C28.0069 0.347258 28.1801 0.223323 28.3724 0.13716C28.5648 0.0509976 28.7725 0.00435839 28.9832 2.75749e-06C29.1938 -0.000395941 29.4023 0.0424446 29.5958 0.12588C29.7892 0.209315 29.9635 0.331574 30.108 0.485109C30.2524 0.638645 30.3639 0.820198 30.4355 1.01856C30.5072 1.21693 30.5374 1.42789 30.5245 1.63843C30.5589 3.32285 30.5589 5.0044 30.5245 6.68307C30.5354 6.89324 30.5025 7.10338 30.4279 7.30014C30.3534 7.4969 30.2388 7.67598 30.0914 7.826C29.944 7.97603 29.7671 8.09372 29.5719 8.1716C29.3766 8.24947 29.1674 8.28584 28.9574 8.27838C28.7465 8.27202 28.5392 8.22286 28.3479 8.13389C28.1566 8.04491 27.9853 7.91797 27.8444 7.76076C27.7035 7.60354 27.596 7.41932 27.5283 7.21925C27.4606 7.01919 27.4341 6.80744 27.4505 6.59684C27.4161 5.76038 27.4419 4.91529 27.4419 4.07883Z" fill="#09566A"/>
<path d="M21 34V48" stroke="#09566A" stroke-width="4" stroke-linecap="round"/>
<path d="M28 41L14 41" stroke="#09566A" stroke-width="4" stroke-linecap="round"/>
</g>
<defs>
<clipPath id="clip0_2_196">
<rect width="88" height="85" fill="white"/>
</clipPath>
</defs>
</svg>
