<svg width="188" height="184" viewBox="0 0 188 184" fill="none" xmlns="http://www.w3.org/2000/svg">
<path fill-rule="evenodd" clip-rule="evenodd" d="M176.537 91.7072C176.537 137.291 139.584 174.244 94 174.244C48.4159 174.244 11.4634 137.291 11.4634 91.7072C11.4634 46.1232 48.4159 9.17065 94 9.17065C139.584 9.17065 176.537 46.1232 176.537 91.7072Z" fill="#D3F0C5"/>
<path fill-rule="evenodd" clip-rule="evenodd" d="M116.134 75.8724C115.08 75.5111 114.581 74.3593 115.007 73.3303C115.01 73.323 115.013 73.3156 115.016 73.3083C117.014 68.457 115.631 62.8693 111.601 59.51L107.368 55.9839L94.5293 56.901V80.7449H98.1976V82.678C98.1976 88.8646 101.712 94.655 107.395 97.0999C115.788 100.712 123.876 94.6532 123.876 86.7058C123.876 81.6784 120.637 77.4159 116.134 75.8724Z" fill="#702C7E"/>
<path fill-rule="evenodd" clip-rule="evenodd" d="M90.1016 56.9014L77.2625 55.9844L73.0312 59.5105C68.9997 62.8688 67.6158 68.4566 69.6141 73.3088L69.6334 73.3528C70.0598 74.3781 69.5472 75.5125 68.4962 75.8729C62.6086 77.8914 58.8826 84.5567 61.7301 91.5026C63.4102 95.5992 67.5223 98.1697 71.949 98.1697H72.192C80.0669 98.1697 86.4333 91.8052 86.4333 83.9551V80.7453H90.1016V56.9014Z" fill="#702C7E"/>
<path fill-rule="evenodd" clip-rule="evenodd" d="M109.204 54.1072H76.6475V43.3802C76.6475 36.6425 82.1095 31.1804 88.8482 31.1804H97.0037C103.741 31.1804 109.204 36.6425 109.204 43.3802V54.1072Z" fill="#702C7E"/>
<path fill-rule="evenodd" clip-rule="evenodd" d="M93.5831 71.902H92.6504C86.8306 71.902 82.1123 67.1837 82.1123 61.363V39.6687C82.1123 36.7047 84.515 34.302 87.479 34.302H97.2339C101.038 34.302 104.122 37.3852 104.122 41.1892V61.363C104.122 67.1837 99.4037 71.902 93.5831 71.902Z" fill="#F4B6A8"/>
<path fill-rule="evenodd" clip-rule="evenodd" d="M107.107 40.9503L104.489 41.5069L103.02 33.0579L90.5608 32.1409C82.7611 32.1409 76.4874 37.6387 76.6607 45.4366L76.8038 51.8579L81.8477 54.1506L84.5989 41.3116C84.5989 41.3116 91.7787 46.7709 101.81 45.0432L103.857 53.2336L107.163 52.3165C107.602 47.6733 107.486 43.9253 107.107 40.9503Z" fill="#702C7E"/>
<path fill-rule="evenodd" clip-rule="evenodd" d="M102.808 61.227L109.896 57.0654C111.461 56.1455 111.984 54.1316 111.065 52.5662C110.145 51.0008 108.131 50.4771 106.566 51.396L99.4785 55.5577L102.808 61.227Z" fill="#F4B6A8"/>
<path fill-rule="evenodd" clip-rule="evenodd" d="M106.781 59.2303C106.781 59.9906 106.166 60.606 105.406 60.606C104.647 60.606 104.03 59.9906 104.03 59.2303C104.03 58.471 104.647 57.8547 105.406 57.8547C106.166 57.8547 106.781 58.471 106.781 59.2303Z" fill="white"/>
<path fill-rule="evenodd" clip-rule="evenodd" d="M83.4268 61.227L76.3406 57.0654C74.7751 56.1455 74.2515 54.1316 75.1713 52.5662C76.0902 51.0008 78.1041 50.4771 79.6696 51.396L86.7567 55.5577L83.4268 61.227Z" fill="#F4B6A8"/>
<path fill-rule="evenodd" clip-rule="evenodd" d="M82.2161 59.1942C82.2161 59.9535 81.6007 60.5698 80.8405 60.5698C80.0811 60.5698 79.4648 59.9535 79.4648 59.1942C79.4648 58.434 80.0811 57.8186 80.8405 57.8186C81.6007 57.8186 82.2161 58.434 82.2161 59.1942Z" fill="white"/>
<path fill-rule="evenodd" clip-rule="evenodd" d="M141.295 78.5561L107.154 78.8679L111.498 95.8833L140.495 92.4993C143.31 92.1701 145.942 90.9357 147.994 88.9805L162.49 75.1373C167.472 70.3786 171.928 65.0972 175.781 59.3847L173.979 49.3914L166.568 50.9293L167.506 55.0094L162.963 57.0563L164.854 63.0108L141.295 78.5561Z" fill="#F4B6A8"/>
<path fill-rule="evenodd" clip-rule="evenodd" d="M169.673 61.1909L167.188 53.7809L168 53.5085L170.196 60.061L174.87 58.2058L175.186 59.0018L169.673 61.1909Z" fill="#EF8674"/>
<path fill-rule="evenodd" clip-rule="evenodd" d="M130.082 78.6443L109.684 78.8488L109.684 78.846L109.684 78.8488L107.774 78.8681H76.6864C65.2816 78.8681 56.0366 88.114 56.0366 99.5187V127.259H115.552L118.109 97.0527L130.082 95.6551V78.6443Z" fill="#3E872E"/>
<path fill-rule="evenodd" clip-rule="evenodd" d="M100.454 83.4621H85.7812L88.5325 66.9465H97.7032L100.454 83.4621Z" fill="#F4B6A8"/>
<path fill-rule="evenodd" clip-rule="evenodd" d="M110.623 78.9635C109.976 78.903 109.321 78.8682 108.657 78.8682H76.686C76.0229 78.8682 75.3682 78.903 74.7207 78.9635C76.4567 87.2878 83.8327 93.5413 92.6715 93.5413C101.51 93.5413 108.886 87.2878 110.623 78.9635Z" fill="#F4B6A8"/>
<path fill-rule="evenodd" clip-rule="evenodd" d="M69.5873 165.99C62.1031 165.99 56.0366 159.924 56.0366 152.439V107.503C56.0366 107.389 56.1283 107.297 56.2411 107.297H69.5873C69.7001 107.297 69.7927 107.389 69.7927 107.503V165.785C69.7927 165.897 69.7001 165.99 69.5873 165.99Z" fill="#F4B6A8"/>
<path fill-rule="evenodd" clip-rule="evenodd" d="M149.205 174.244H38.7944C38.7944 170.267 42.0189 167.043 45.9962 167.043H142.004C145.981 167.043 149.205 170.267 149.205 174.244Z" fill="#3E872E"/>
<path fill-rule="evenodd" clip-rule="evenodd" d="M133.417 167.043H54.5825V123.398C54.5825 120.106 57.2503 117.439 60.5417 117.439H127.458C130.749 117.439 133.417 120.106 133.417 123.398V167.043Z" fill="#F6F3F5"/>
<path fill-rule="evenodd" clip-rule="evenodd" d="M54.5825 167.043H133.417V162.481H54.5825V167.043Z" fill="#D4D0D5"/>
<path fill-rule="evenodd" clip-rule="evenodd" d="M59.4091 164.762C59.4091 165.549 58.8093 166.188 58.0683 166.188C57.3273 166.188 56.7275 165.549 56.7275 164.762C56.7275 163.975 57.3273 163.337 58.0683 163.337C58.8093 163.337 59.4091 163.975 59.4091 164.762Z" fill="#9C9A9F"/>
<path fill-rule="evenodd" clip-rule="evenodd" d="M64.2352 164.762C64.2352 165.549 63.6355 166.188 62.8945 166.188C62.1544 166.188 61.5537 165.549 61.5537 164.762C61.5537 163.975 62.1544 163.337 62.8945 163.337C63.6355 163.337 64.2352 163.975 64.2352 164.762Z" fill="#9C9A9F"/>
<path fill-rule="evenodd" clip-rule="evenodd" d="M102.62 141.312C97.7641 141.488 93.8482 145.405 93.6712 150.26C93.6638 150.446 93.8133 150.602 94.0013 150.602H100.992C102.08 150.602 102.961 149.721 102.961 148.632V141.642C102.961 141.454 102.806 141.305 102.62 141.312Z" fill="#D4D0D5"/>
<mask id="mask0_20_2057" style="mask-type:alpha" maskUnits="userSpaceOnUse" x="93" y="141" width="10" height="10">
<path d="M102.62 141.313C97.7642 141.489 93.8474 145.405 93.6722 150.261C93.6639 150.446 93.8143 150.603 94.0014 150.603H100.991C102.08 150.603 102.961 149.721 102.961 148.633V141.642C102.961 141.459 102.813 141.313 102.633 141.313C102.628 141.313 102.625 141.313 102.62 141.313Z" fill="white"/>
</mask>
<g mask="url(#mask0_20_2057)">
</g>
<mask id="mask1_20_2057" style="mask-type:alpha" maskUnits="userSpaceOnUse" x="93" y="141" width="10" height="10">
<path d="M102.62 141.313C97.7642 141.489 93.8474 145.405 93.6722 150.261C93.6639 150.446 93.8143 150.603 94.0014 150.603H100.991C102.08 150.603 102.961 149.721 102.961 148.633V141.642C102.961 141.459 102.813 141.313 102.632 141.313C102.628 141.313 102.625 141.313 102.62 141.313Z" fill="white"/>
</mask>
<g mask="url(#mask1_20_2057)">
<path fill-rule="evenodd" clip-rule="evenodd" d="M90.8105 153.461H105.821V138.452H90.8105V153.461Z" fill="#D4D0D5"/>
<path fill-rule="evenodd" clip-rule="evenodd" d="M101.017 133.88H92.4368C89.0134 133.88 86.2393 136.654 86.2393 140.078V148.658C86.2393 149.732 87.1096 150.602 88.1835 150.602H89.3426C89.5187 150.602 89.6609 150.461 89.6618 150.286C89.8287 143.2 95.5622 137.468 102.647 137.303C102.821 137.3 102.961 137.158 102.961 136.984V135.824C102.961 134.75 102.091 133.88 101.017 133.88Z" fill="#D4D0D5"/>
</g>
<mask id="mask2_20_2057" style="mask-type:alpha" maskUnits="userSpaceOnUse" x="86" y="133" width="17" height="18">
<path d="M92.4368 133.881C89.0134 133.881 86.2393 136.655 86.2393 140.078V148.658C86.2393 149.732 87.1096 150.603 88.1835 150.603H89.3417C89.5187 150.603 89.6618 150.461 89.6627 150.285C89.8287 143.2 95.5622 137.468 102.647 137.303C102.821 137.301 102.961 137.158 102.961 136.984V135.824C102.961 134.75 102.091 133.881 101.017 133.881H92.4368Z" fill="white"/>
</mask>
<g mask="url(#mask2_20_2057)">
<path fill-rule="evenodd" clip-rule="evenodd" d="M83.3789 153.462H105.822V131.02H83.3789V153.462Z" fill="#D4D0D5"/>
</g>
<path fill-rule="evenodd" clip-rule="evenodd" d="M105.033 56.4367C104.861 56.4367 104.697 56.3404 104.618 56.1744C104.51 55.9451 104.607 55.6719 104.837 55.5636L108.995 53.5965C109.221 53.4892 109.496 53.5855 109.605 53.8157C109.714 54.044 109.616 54.3173 109.387 54.4265L105.229 56.3927C105.166 56.4229 105.099 56.4367 105.033 56.4367Z" fill="#EF8674"/>
<path fill-rule="evenodd" clip-rule="evenodd" d="M81.2021 56.4365C81.1361 56.4365 81.0692 56.4228 81.0059 56.3925L76.8488 54.4263C76.6195 54.3172 76.5214 54.0439 76.6305 53.8155C76.7397 53.5854 77.013 53.49 77.2413 53.5964L81.3984 55.5635C81.6277 55.6717 81.7249 55.945 81.6167 56.1743C81.5378 56.3402 81.3736 56.4365 81.2021 56.4365Z" fill="#EF8674"/>
<path fill-rule="evenodd" clip-rule="evenodd" d="M93.118 66.4877C95.397 66.4877 97.2449 64.6398 97.2449 62.3608H88.9912C88.9912 64.6398 90.8391 66.4877 93.118 66.4877Z" fill="#1F1E1E"/>
<path fill-rule="evenodd" clip-rule="evenodd" d="M89.1013 63.2779H97.1339C97.2018 62.9817 97.2449 62.6772 97.2449 62.3608H88.9912C88.9912 62.6772 89.0343 62.9817 89.1013 63.2779Z" fill="white"/>
<path fill-rule="evenodd" clip-rule="evenodd" d="M91.5648 59.3841C91.3658 59.3841 91.1833 59.2548 91.1255 59.0549C91.0531 58.8118 91.1934 58.5569 91.4355 58.4854L94.1033 57.7031L92.459 51.9842C92.3883 51.7412 92.5296 51.4872 92.7726 51.4165C93.0147 51.3469 93.2696 51.4872 93.3403 51.7311L95.2368 58.3267L91.6941 59.3657C91.651 59.3786 91.607 59.3841 91.5648 59.3841Z" fill="#EF8674"/>
<path fill-rule="evenodd" clip-rule="evenodd" d="M89.527 51.662C89.6352 52.414 89.1134 53.1119 88.3614 53.2192C87.6094 53.3274 86.9115 52.8056 86.8042 52.0536C86.696 51.3016 87.2178 50.6046 87.9708 50.4964C88.7218 50.3882 89.4197 50.91 89.527 51.662Z" fill="#1F1E1E"/>
<path fill-rule="evenodd" clip-rule="evenodd" d="M86.4355 48.9162C86.2447 48.9162 86.0668 48.7961 86.0008 48.6053C85.9201 48.3651 86.0475 48.1055 86.2878 48.0239C88.5154 47.2664 90.035 47.9946 90.0983 48.0248C90.3257 48.1367 90.4192 48.4118 90.3073 48.6393C90.1964 48.8649 89.9231 48.9593 89.6957 48.8493C89.6425 48.8236 88.4264 48.2651 86.5831 48.8915C86.5336 48.9089 86.485 48.9162 86.4355 48.9162Z" fill="#702C7E"/>
<path fill-rule="evenodd" clip-rule="evenodd" d="M99.799 48.9161C99.7495 48.9161 99.7009 48.9088 99.6514 48.8914C97.8035 48.2641 96.5902 48.8253 96.5379 48.8492C96.3096 48.9555 96.0363 48.862 95.9272 48.6355C95.8171 48.409 95.9097 48.1366 96.1362 48.0247C96.1995 47.9935 97.7191 47.2654 99.9467 48.0238C100.187 48.1054 100.314 48.365 100.234 48.6052C100.168 48.796 99.9898 48.9161 99.799 48.9161Z" fill="#702C7E"/>
<path fill-rule="evenodd" clip-rule="evenodd" d="M98.069 53.1902C97.3096 53.1902 96.6934 52.5748 96.6934 51.8146C96.6934 51.0543 97.3096 50.439 98.069 50.439C98.8292 50.439 99.4446 51.0543 99.4446 51.8146C99.4446 52.5748 98.8292 53.1902 98.069 53.1902Z" fill="#1F1E1E"/>
<path d="M151.317 48.1462C158.914 48.1462 165.073 41.9874 165.073 34.3901C165.073 26.7928 158.914 20.634 151.317 20.634C143.719 20.634 137.561 26.7928 137.561 34.3901C137.561 41.9874 143.719 48.1462 151.317 48.1462Z" fill="white"/>
<path fill-rule="evenodd" clip-rule="evenodd" d="M151.317 19.2173C143.021 19.2173 136.271 25.9658 136.271 34.263C136.271 42.5592 143.021 49.3087 151.317 49.3087C159.613 49.3087 166.363 42.5592 166.363 34.263C166.363 25.9658 159.613 19.2173 151.317 19.2173ZM155.2 29.2599C155.747 28.6345 156.697 28.5711 157.323 29.1183C157.891 29.6158 157.995 30.4465 157.598 31.0633L157.464 31.2414L149.384 40.4761L144.235 35.3267C143.647 34.7391 143.647 33.7865 144.235 33.1989C144.769 32.6648 145.605 32.6162 146.194 33.0532L146.362 33.1989L149.236 36.0723L155.2 29.2599Z" fill="#006B14"/>
</svg>
