<svg width="70" height="70" viewBox="0 0 70 70" fill="none" xmlns="http://www.w3.org/2000/svg">
<path d="M54.1855 32.6675C42.6494 33.0901 33.3298 42.3994 32.9175 53.9355C32.8968 54.3788 33.2577 54.75 33.701 54.75H50.3195C52.9072 54.75 55 52.6572 55 50.0695V33.451C55 33.0077 54.6288 32.6468 54.1855 32.6675Z" fill="white"/>
<path d="M49.2548 16H29.3687C21.4401 16 15 22.4286 15 30.3651V50.246C15 52.7361 17.0144 54.75 19.5051 54.75H22.1943C22.6011 54.75 22.9286 54.4226 22.9286 54.0159C23.3156 37.5972 36.6027 24.3135 53.0256 23.9365C53.4324 23.9266 53.75 23.5992 53.75 23.2024V20.5139C53.7599 18.0139 51.7455 16 49.2548 16Z" fill="white"/>
</svg>
