<svg width="354" height="133" viewBox="0 0 354 133" fill="none" xmlns="http://www.w3.org/2000/svg">
<path fill-rule="evenodd" clip-rule="evenodd" d="M234.2 66.7585H16.818C7.56803 66.7585 0 59.1507 0 49.8526V16.9059C0 7.60785 7.56803 0 16.818 0H234.2C243.45 0 251.019 7.60785 251.019 16.9059V49.8526C251.019 59.1507 243.45 66.7585 234.2 66.7585Z" fill="#E81E2B"/>
<path fill-rule="evenodd" clip-rule="evenodd" d="M45.4391 108.566C42.0613 108.566 40.1205 107.121 38.611 105.098V94.0446C40.1205 92.0937 42.0613 90.6487 45.4391 90.6487C50.2545 90.6487 53.561 94.7669 53.561 99.6073C53.561 104.448 50.2545 108.566 45.4391 108.566ZM47.0924 80.751C43.4983 80.751 40.4804 82.0514 38.611 83.7855V81.546H27.7584V131.685H38.611V115.357C40.4804 117.164 43.4983 118.464 47.0924 118.464C57.7298 118.464 64.7731 109.65 64.7731 99.6073C64.7731 89.5651 57.7298 80.751 47.0924 80.751Z" fill="#E81E2B"/>
<path fill-rule="evenodd" clip-rule="evenodd" d="M45.4391 108.566C42.0613 108.566 40.1205 107.121 38.611 105.098V94.0446C40.1205 92.0937 42.0613 90.6487 45.4391 90.6487C50.2545 90.6487 53.561 94.7669 53.561 99.6073C53.561 104.448 50.2545 108.566 45.4391 108.566ZM47.0924 80.751C43.4983 80.751 40.4804 82.0514 38.611 83.7855V81.546H27.7584V131.685H38.611V115.357C40.4804 117.164 43.4983 118.464 47.0924 118.464C57.7298 118.464 64.7731 109.65 64.7731 99.6073C64.7731 89.5651 57.7298 80.751 47.0924 80.751Z" stroke="#E81E2B"/>
<path fill-rule="evenodd" clip-rule="evenodd" d="M90.5022 81.835C89.7832 81.5459 88.0585 81.1123 86.1177 81.1123C82.5241 81.1123 79.2896 83.0632 78.1396 85.5918V81.5459H67.287V117.67H78.1396V94.8396C79.9367 92.3832 83.3145 91.5882 85.8301 91.5882C87.3395 91.5882 88.5613 91.8773 88.8489 92.0218L90.5022 81.835Z" fill="#E81E2B"/>
<path fill-rule="evenodd" clip-rule="evenodd" d="M90.5022 81.835C89.7832 81.5459 88.0585 81.1123 86.1177 81.1123C82.5241 81.1123 79.2896 83.0632 78.1396 85.5918V81.5459H67.287V117.67H78.1396V94.8396C79.9367 92.3832 83.3145 91.5882 85.8301 91.5882C87.3395 91.5882 88.5613 91.8773 88.8489 92.0218L90.5022 81.835Z" stroke="#E81E2B"/>
<path fill-rule="evenodd" clip-rule="evenodd" d="M106.889 108.278C102.361 108.278 98.9105 104.738 98.9105 99.6083C98.9105 94.4787 102.361 90.9388 106.889 90.9388C111.416 90.9388 114.866 94.4787 114.866 99.6083C114.866 104.738 111.416 108.278 106.889 108.278ZM106.889 80.752C96.5388 80.752 87.986 88.9878 87.986 99.6083C87.986 110.229 96.5388 118.465 106.889 118.465C117.238 118.465 125.791 110.229 125.791 99.6083C125.791 88.9878 117.238 80.752 106.889 80.752Z" fill="#E81E2B"/>
<path fill-rule="evenodd" clip-rule="evenodd" d="M106.889 108.278C102.361 108.278 98.9105 104.738 98.9105 99.6083C98.9105 94.4787 102.361 90.9388 106.889 90.9388C111.416 90.9388 114.866 94.4787 114.866 99.6083C114.866 104.738 111.416 108.278 106.889 108.278ZM106.889 80.752C96.5388 80.752 87.986 88.9878 87.986 99.6083C87.986 110.229 96.5388 118.465 106.889 118.465C117.238 118.465 125.791 110.229 125.791 99.6083C125.791 88.9878 117.238 80.752 106.889 80.752Z" stroke="#E81E2B"/>
<path fill-rule="evenodd" clip-rule="evenodd" d="M148.647 108.205C144.982 108.205 143.256 106.543 143.256 102.209V91.0103H154.038V81.5462H143.256V70.5645H132.404V81.5462H123.779V91.0103H132.404V104.448C132.404 113.624 138.513 118.103 147.066 118.103C150.803 118.103 155.044 116.875 156.769 115.935L153.534 107.049C152.456 107.627 150.444 108.205 148.647 108.205Z" fill="#E81E2B"/>
<path fill-rule="evenodd" clip-rule="evenodd" d="M148.647 108.205C144.982 108.205 143.256 106.543 143.256 102.209V91.0103H154.038V81.5462H143.256V70.5645H132.404V81.5462H123.779V91.0103H132.404V104.448C132.404 113.624 138.513 118.103 147.066 118.103C150.803 118.103 155.044 116.875 156.769 115.935L153.534 107.049C152.456 107.627 150.444 108.205 148.647 108.205Z" stroke="#E81E2B"/>
<path fill-rule="evenodd" clip-rule="evenodd" d="M165.106 95.0565C166.041 91.0828 169.778 89.6378 172.941 89.6378C176.103 89.6378 179.409 91.2274 180.343 95.0565H165.106ZM173.228 80.752C162.303 80.752 154.325 88.8433 154.325 99.6078C154.325 111.24 162.878 118.465 173.443 118.465C180.99 118.465 186.956 115.286 190.334 110.517L182.284 104.449C180.918 106.544 177.756 108.566 173.587 108.566C169.49 108.566 165.465 106.544 164.819 102.209H190.909C191.124 100.475 191.124 99.3187 191.124 98.3801C191.124 86.676 182.715 80.752 173.228 80.752Z" fill="#E81E2B"/>
<path fill-rule="evenodd" clip-rule="evenodd" d="M165.106 95.0565C166.041 91.0828 169.778 89.6378 172.941 89.6378C176.103 89.6378 179.409 91.2274 180.343 95.0565H165.106ZM173.228 80.752C162.303 80.752 154.325 88.8433 154.325 99.6078C154.325 111.24 162.878 118.465 173.443 118.465C180.99 118.465 186.956 115.286 190.334 110.517L182.284 104.449C180.918 106.544 177.756 108.566 173.587 108.566C169.49 108.566 165.465 106.544 164.819 102.209H190.909C191.124 100.475 191.124 99.3187 191.124 98.3801C191.124 86.676 182.715 80.752 173.228 80.752Z" stroke="#E81E2B"/>
<path fill-rule="evenodd" clip-rule="evenodd" d="M210.601 108.278C206.073 108.278 202.408 104.738 202.408 99.6083C202.408 94.4787 206.073 90.9388 210.601 90.9388C214.195 90.9388 216.998 93.2506 218.291 96.3569L227.779 91.3001C224.688 85.0147 218.076 80.752 210.601 80.752C200.036 80.752 191.483 88.5547 191.483 99.6083C191.483 110.662 200.036 118.465 210.601 118.465C218.076 118.465 224.688 114.202 227.779 107.917L218.291 102.859C216.998 105.966 214.195 108.278 210.601 108.278Z" fill="#E81E2B"/>
<path fill-rule="evenodd" clip-rule="evenodd" d="M210.601 108.278C206.073 108.278 202.408 104.738 202.408 99.6083C202.408 94.4787 206.073 90.9388 210.601 90.9388C214.195 90.9388 216.998 93.2506 218.291 96.3569L227.779 91.3001C224.688 85.0147 218.076 80.752 210.601 80.752C200.036 80.752 191.483 88.5547 191.483 99.6083C191.483 110.662 200.036 118.465 210.601 118.465C218.076 118.465 224.688 114.202 227.779 107.917L218.291 102.859C216.998 105.966 214.195 108.278 210.601 108.278Z" stroke="#E81E2B"/>
<path fill-rule="evenodd" clip-rule="evenodd" d="M246.25 90.9378C249.843 90.9378 252.647 93.25 253.94 96.3564L263.427 91.2991C260.337 85.0137 253.725 80.751 246.25 80.751C235.684 80.751 227.131 88.5537 227.131 99.6073C227.131 110.661 235.684 118.464 246.25 118.464C253.725 118.464 260.337 114.201 263.427 107.916L253.94 102.859C252.647 105.965 249.843 108.277 246.25 108.277C241.722 108.277 238.056 104.737 238.056 99.6073C238.056 94.4778 241.722 90.9378 246.25 90.9378Z" fill="#E81E2B"/>
<path fill-rule="evenodd" clip-rule="evenodd" d="M246.25 90.9378C249.843 90.9378 252.647 93.25 253.94 96.3564L263.427 91.2991C260.337 85.0137 253.725 80.751 246.25 80.751C235.684 80.751 227.131 88.5537 227.131 99.6073C227.131 110.661 235.684 118.464 246.25 118.464C253.725 118.464 260.337 114.201 263.427 107.916L253.94 102.859C252.647 105.965 249.843 108.277 246.25 108.277C241.722 108.277 238.056 104.737 238.056 99.6073C238.056 94.4778 241.722 90.9378 246.25 90.9378Z" stroke="#E81E2B"/>
<path fill-rule="evenodd" clip-rule="evenodd" d="M270.327 64.4961C266.661 64.4961 263.571 67.5302 263.571 71.2874C263.571 75.0442 266.661 78.0783 270.327 78.0783C274.136 78.0783 277.155 75.0442 277.155 71.2874C277.155 67.5302 274.136 64.4961 270.327 64.4961Z" fill="#E81E2B"/>
<path fill-rule="evenodd" clip-rule="evenodd" d="M270.327 64.4961C266.661 64.4961 263.571 67.5302 263.571 71.2874C263.571 75.0442 266.661 78.0783 270.327 78.0783C274.136 78.0783 277.155 75.0442 277.155 71.2874C277.155 67.5302 274.136 64.4961 270.327 64.4961Z" stroke="#E81E2B"/>
<path fill-rule="evenodd" clip-rule="evenodd" d="M264.936 117.669H275.789V81.5459H264.936V117.669Z" fill="#E81E2B"/>
<path fill-rule="evenodd" clip-rule="evenodd" d="M264.936 117.669H275.789V81.5459H264.936V117.669Z" stroke="#E81E2B"/>
<path fill-rule="evenodd" clip-rule="evenodd" d="M297.063 108.278C292.535 108.278 289.085 104.738 289.085 99.6083C289.085 94.4787 292.535 90.9388 297.063 90.9388C301.591 90.9388 305.041 94.4787 305.041 99.6083C305.041 104.738 301.591 108.278 297.063 108.278ZM297.063 80.752C286.713 80.752 278.161 88.9878 278.161 99.6083C278.161 110.229 286.713 118.465 297.063 118.465C307.413 118.465 315.966 110.229 315.966 99.6083C315.966 88.9878 307.413 80.752 297.063 80.752Z" fill="#E81E2B"/>
<path fill-rule="evenodd" clip-rule="evenodd" d="M297.063 108.278C292.535 108.278 289.085 104.738 289.085 99.6083C289.085 94.4787 292.535 90.9388 297.063 90.9388C301.591 90.9388 305.041 94.4787 305.041 99.6083C305.041 104.738 301.591 108.278 297.063 108.278ZM297.063 80.752C286.713 80.752 278.161 88.9878 278.161 99.6083C278.161 110.229 286.713 118.465 297.063 118.465C307.413 118.465 315.966 110.229 315.966 99.6083C315.966 88.9878 307.413 80.752 297.063 80.752Z" stroke="#E81E2B"/>
<path fill-rule="evenodd" clip-rule="evenodd" d="M311.006 64.9297H298.573L292.823 77.5006H300.729L311.006 64.9297Z" fill="#E81E2B"/>
<path fill-rule="evenodd" clip-rule="evenodd" d="M311.006 64.9297H298.573L292.823 77.5006H300.729L311.006 64.9297Z" stroke="#E81E2B"/>
<path fill-rule="evenodd" clip-rule="evenodd" d="M338.533 80.752C334.724 80.752 331.418 82.0524 329.19 84.1474V81.5465H318.337V117.67H329.19V93.9728C330.699 92.0224 333.358 90.6497 336.162 90.6497C340.33 90.6497 342.271 94.1178 342.271 98.9583V117.67H353.124V97.0796C353.124 87.3265 347.877 80.752 338.533 80.752Z" fill="#E81E2B"/>
<path fill-rule="evenodd" clip-rule="evenodd" d="M338.533 80.752C334.724 80.752 331.418 82.0524 329.19 84.1474V81.5465H318.337V117.67H329.19V93.9728C330.699 92.0224 333.358 90.6497 336.162 90.6497C340.33 90.6497 342.271 94.1178 342.271 98.9583V117.67H353.124V97.0796C353.124 87.3265 347.877 80.752 338.533 80.752Z" stroke="#E81E2B"/>
<path fill-rule="evenodd" clip-rule="evenodd" d="M39.1897 28.4694L35.5806 27.1635C30.1668 25.2039 27.6404 23.9707 27.6404 21.2133C27.6404 18.5287 30.7443 17.2946 33.8482 17.2946C37.0969 17.2946 40.3446 18.6737 42.7273 21.5761L50.2343 13.5945C45.4699 8.44254 39.9119 6.4834 33.704 6.4834C23.4534 6.4834 16.0182 12.3608 16.0182 22.3743C16.0182 29.4126 20.6384 34.4196 28.9395 37.2492L32.549 38.4828C37.6739 40.2242 39.6952 42.0379 39.6952 44.6503C39.6952 47.1176 37.313 48.9313 33.4874 48.9313C29.7336 48.9313 25.33 46.7549 22.8759 43.0543L14.0692 50.5281C18.0396 56.3328 24.9692 59.7429 33.0542 59.7429C43.8822 59.7429 51.3174 53.2128 51.3893 43.8521C51.4616 36.0882 46.6248 31.154 39.1897 28.4694Z" fill="white"/>
<path fill-rule="evenodd" clip-rule="evenodd" d="M51.3893 43.8521C51.4616 36.0882 46.6248 31.154 39.1897 28.4694L35.5806 27.1635C30.1668 25.2039 27.6404 23.9707 27.6404 21.2133C27.6404 18.5287 30.7443 17.2946 33.8482 17.2946C37.0969 17.2946 40.3446 18.6737 42.7273 21.5761L50.2343 13.5945C45.4699 8.44254 39.9119 6.4834 33.704 6.4834C23.4534 6.4834 16.0182 12.3608 16.0182 22.3743C16.0182 29.4126 20.6384 34.4196 28.9395 37.2492L32.549 38.4828C37.6739 40.2242 39.6952 42.0379 39.6952 44.6503C39.6952 47.1176 37.313 48.9313 33.4874 48.9313C29.7336 48.9313 25.33 46.7549 22.8759 43.0543L14.0692 50.5281C18.0396 56.3328 24.9692 59.7429 33.0542 59.7429C43.8822 59.7429 51.3174 53.2128 51.3893 43.8521Z" stroke="white"/>
<path fill-rule="evenodd" clip-rule="evenodd" d="M71.2397 31.7346C74.6321 31.7346 76.5811 33.1861 78.0969 35.1452V46.2473C76.5811 48.2787 74.6321 49.7301 71.2397 49.7301C66.4029 49.7301 63.0824 45.5941 63.0824 40.7326C63.0824 35.8707 66.4029 31.7346 71.2397 31.7346ZM69.5797 59.6708C73.1887 59.6708 76.2203 58.3649 78.0969 56.5507V58.8726H88.9969V22.5921H78.0969V24.8417C76.2203 23.0999 73.1887 21.7939 69.5797 21.7939C58.8959 21.7939 51.8216 30.6464 51.8216 40.7326C51.8216 50.8183 58.8959 59.6708 69.5797 59.6708Z" fill="white"/>
<path fill-rule="evenodd" clip-rule="evenodd" d="M71.2397 31.7346C74.6321 31.7346 76.5811 33.1861 78.0969 35.1452V46.2473C76.5811 48.2787 74.6321 49.7301 71.2397 49.7301C66.4029 49.7301 63.0824 45.5941 63.0824 40.7326C63.0824 35.8707 66.4029 31.7346 71.2397 31.7346ZM69.5797 59.6708C73.1887 59.6708 76.2203 58.3649 78.0969 56.5507V58.8726H88.9969V22.5921H78.0969V24.8417C76.2203 23.0999 73.1887 21.7939 69.5797 21.7939C58.8959 21.7939 51.8216 30.6464 51.8216 40.7326C51.8216 50.8183 58.8959 59.6708 69.5797 59.6708Z" stroke="white"/>
<path fill-rule="evenodd" clip-rule="evenodd" d="M93.6161 58.8728H104.516V5.90332H93.6161V58.8728Z" fill="white"/>
<path fill-rule="evenodd" clip-rule="evenodd" d="M93.6161 58.8728H104.516V5.90332H93.6161V58.8728Z" stroke="white"/>
<path fill-rule="evenodd" clip-rule="evenodd" d="M123.573 59.6709C126.388 59.6709 129.708 58.51 131.946 56.4054V58.8727H142.846V22.5918H131.946V46.3924C130.286 48.4961 127.831 49.7302 125.883 49.7302C121.407 49.7302 119.603 46.2469 119.603 41.3855V22.5918H108.703V43.2719C108.703 53.0676 113.972 59.6709 123.573 59.6709Z" fill="white"/>
<path fill-rule="evenodd" clip-rule="evenodd" d="M123.573 59.6709C126.388 59.6709 129.708 58.51 131.946 56.4054V58.8727H142.846V22.5918H131.946V46.3924C130.286 48.4961 127.831 49.7302 125.883 49.7302C121.407 49.7302 119.603 46.2469 119.603 41.3855V22.5918H108.703V43.2719C108.703 53.0676 113.972 59.6709 123.573 59.6709Z" stroke="white"/>
<path fill-rule="evenodd" clip-rule="evenodd" d="M164.717 31.7349C168.11 31.7349 170.059 33.1863 171.574 35.1454V46.2475C170.059 48.2789 168.11 49.7303 164.717 49.7303C159.88 49.7303 156.56 45.5943 156.56 40.7328C156.56 35.8709 159.88 31.7349 164.717 31.7349ZM163.057 59.671C166.666 59.671 169.698 58.3651 171.574 56.551V58.8728H182.474V5.90332H171.574V24.842C169.698 23.1001 166.666 21.7942 163.057 21.7942C152.373 21.7942 145.299 30.6467 145.299 40.7328C145.299 50.8186 152.373 59.671 163.057 59.671Z" fill="white"/>
<path fill-rule="evenodd" clip-rule="evenodd" d="M164.717 31.7349C168.11 31.7349 170.059 33.1863 171.574 35.1454V46.2475C170.059 48.2789 168.11 49.7303 164.717 49.7303C159.88 49.7303 156.56 45.5943 156.56 40.7328C156.56 35.8709 159.88 31.7349 164.717 31.7349ZM163.057 59.671C166.666 59.671 169.698 58.3651 171.574 56.551V58.8728H182.474V5.90332H171.574V24.842C169.698 23.1001 166.666 21.7942 163.057 21.7942C152.373 21.7942 145.299 30.6467 145.299 40.7328C145.299 50.8186 152.373 59.671 163.057 59.671Z" stroke="white"/>
<path fill-rule="evenodd" clip-rule="evenodd" d="M205.139 24.7197C204.922 25.619 204.798 26.5412 204.77 27.4725C200.838 28.1669 197.841 31.6254 197.841 35.7738V60.2432C197.841 60.9828 197.244 61.5829 196.509 61.5829C195.773 61.5829 195.176 60.9828 195.176 60.2432V35.7738C195.176 35.4783 195.188 35.1842 195.211 34.8919C195.303 33.7044 195.583 32.5494 196.046 31.4498C196.602 30.1269 197.399 28.9399 198.413 27.9199C199.427 26.9003 200.609 26.0998 201.925 25.5403C202.954 25.1026 204.031 24.8277 205.139 24.7197Z" fill="white"/>
<path fill-rule="evenodd" clip-rule="evenodd" d="M195.211 34.8926C195.188 35.1849 195.177 35.4785 195.177 35.7745V35.1963C195.177 35.0925 195.189 34.9905 195.211 34.8926Z" fill="white"/>
<path fill-rule="evenodd" clip-rule="evenodd" d="M230.29 27.954V41.7073C230.29 44.5022 228.028 46.7756 225.248 46.7756C222.468 46.7756 220.206 44.5022 220.206 41.7073V41.6927L220.225 39.9678V33.8909C220.225 33.6242 220.235 33.3594 220.256 33.0968C220.44 30.764 221.432 28.5949 223.096 26.9216C223.919 26.0941 224.863 25.4318 225.888 24.9524C226.213 25.8224 226.397 26.7501 226.419 27.7001C224.308 28.9494 222.889 31.2571 222.889 33.8909V39.9746V39.9897L222.87 41.7142C222.874 43.0288 223.939 44.0978 225.248 44.0978C226.559 44.0978 227.626 43.0252 227.626 41.7073V27.954C227.626 22.6648 223.346 18.3628 218.085 18.3628C212.823 18.3628 208.544 22.6648 208.544 27.954V54.5284C208.544 56.1889 209.887 57.5392 211.539 57.5392C213.204 57.5392 214.611 56.1646 214.611 54.5371V35.7741C214.611 32.4249 212.658 29.5262 209.837 28.1676V27.8891C209.837 27.0396 209.967 26.2057 210.214 25.4126C210.319 25.4533 210.423 25.4963 210.528 25.5407C211.844 26.0996 213.025 26.9001 214.04 27.9202C215.054 28.9398 215.85 30.1272 216.407 31.4501C216.927 32.6851 217.216 33.9892 217.267 35.3322C217.273 35.4786 217.276 35.6259 217.276 35.7741V54.5371C217.276 56.0585 216.669 57.4902 215.566 58.5688C214.479 59.6319 213.049 60.2174 211.539 60.2174C208.418 60.2174 205.879 57.6654 205.879 54.5284V27.954C205.879 26.2977 206.201 24.6912 206.839 23.1776C207.453 21.7161 208.333 20.4043 209.454 19.2781C210.574 18.1514 211.88 17.2677 213.333 16.6493C214.839 16.0093 216.437 15.6846 218.085 15.6846C219.732 15.6846 221.33 16.0093 222.836 16.6493C224.289 17.2677 225.595 18.1514 226.715 19.2781C227.836 20.4043 228.715 21.7161 229.33 23.1776C229.968 24.6912 230.29 26.2977 230.29 27.954Z" fill="white"/>
<path fill-rule="evenodd" clip-rule="evenodd" d="M239.826 33.4868C239.727 31.0058 238.719 28.688 236.963 26.9215C235.33 25.2798 233.22 24.2885 230.948 24.0781C231.213 24.9815 231.383 25.9128 231.455 26.8574C234.712 27.523 237.17 30.4239 237.17 33.8912V33.894V55.7112C237.17 56.4508 237.767 57.0505 238.503 57.0505C239.238 57.0505 239.835 56.4508 239.835 55.7112V33.6392C239.835 33.5879 239.831 33.5367 239.826 33.4868Z" fill="white"/>
<path fill-rule="evenodd" clip-rule="evenodd" d="M220.256 33.0977C220.235 33.3602 220.225 33.6251 220.225 33.8917V33.3881C220.225 33.2884 220.236 33.191 220.256 33.0977Z" fill="white"/>
<path fill-rule="evenodd" clip-rule="evenodd" d="M217.276 35.4848V35.7739C217.276 35.6262 217.273 35.4784 217.267 35.332C217.273 35.3819 217.276 35.4336 217.276 35.4848Z" fill="white"/>
<path fill-rule="evenodd" clip-rule="evenodd" d="M204.764 13.4292C203.482 13.4292 202.439 14.4776 202.439 15.7657C202.439 17.0547 203.482 18.1031 204.764 18.1031C206.045 18.1031 207.088 17.0547 207.088 15.7657C207.088 14.4776 206.045 13.4292 204.764 13.4292ZM204.764 20.7809C202.012 20.7809 199.774 18.5313 199.774 15.7657C199.774 13.0006 202.012 10.751 204.764 10.751C207.514 10.751 209.753 13.0006 209.753 15.7657C209.753 18.5313 207.514 20.7809 204.764 20.7809Z" fill="white"/>
<path fill-rule="evenodd" clip-rule="evenodd" d="M218.085 6.07665C216.803 6.07665 215.76 7.12506 215.76 8.41316C215.76 9.70218 216.803 10.7506 218.085 10.7506C219.366 10.7506 220.409 9.70218 220.409 8.41316C220.409 7.12506 219.366 6.07665 218.085 6.07665ZM218.085 13.4288C215.333 13.4288 213.095 11.1787 213.095 8.41316C213.095 5.64804 215.333 3.39844 218.085 3.39844C220.836 3.39844 223.074 5.64804 223.074 8.41316C223.074 11.1787 220.836 13.4288 218.085 13.4288Z" fill="white"/>
<path fill-rule="evenodd" clip-rule="evenodd" d="M232.372 16.2563C231.477 16.2563 230.749 16.9878 230.749 17.8866C230.749 18.7859 231.477 19.5173 232.372 19.5173C233.266 19.5173 233.994 18.7859 233.994 17.8866C233.994 16.9878 233.266 16.2563 232.372 16.2563ZM232.372 22.1955C230.008 22.1955 228.085 20.2629 228.085 17.8866C228.085 15.5107 230.008 13.5781 232.372 13.5781C234.735 13.5781 236.658 15.5107 236.658 17.8866C236.658 20.2629 234.735 22.1955 232.372 22.1955Z" fill="white"/>
</svg>
