<svg width="75" height="69" viewBox="0 0 75 69" fill="none" xmlns="http://www.w3.org/2000/svg">
<g clip-path="url(#clip0_2_221)">
<path d="M63.815 68.4196C57.1318 63.7762 50.4525 59.1329 43.7771 54.4896C43.2755 54.1256 42.6677 53.9379 42.0483 53.9556H10.7209C9.31041 54.0133 7.90306 53.7805 6.58622 53.2714C5.26939 52.7624 4.07115 51.9881 3.06588 50.9965C2.0606 50.0048 1.26973 48.8171 0.742333 47.507C0.214939 46.1969 -0.037724 44.7923 2.169e-05 43.3804C2.169e-05 32.4453 2.169e-05 21.5064 2.169e-05 10.5636C-0.037075 8.67883 0.453221 6.82124 1.41555 5.20053C2.34402 3.55573 3.70873 2.1996 5.35901 1.28188C7.00929 0.36416 8.88095 -0.0794616 10.7673 -5.24148e-06H31.6523C42.4776 -5.24148e-06 53.3725 0.0812532 64.1747 -5.24148e-06C65.6097 -0.053629 67.0403 0.189442 68.3772 0.714018C69.7141 1.23859 70.9284 2.0334 71.9444 3.04876C72.9604 4.06412 73.7561 5.27822 74.2818 6.61517C74.8076 7.95213 75.0521 9.38321 75 10.819C74.8956 13.8604 75 16.9134 75 19.9547C75 28.0806 75 36.1019 75 44.1814C74.8955 46.6632 73.8825 49.02 72.1538 50.8031C70.425 52.5861 68.1014 53.671 65.625 53.8511C64.9173 53.8511 64.778 54.1297 64.778 54.7798C64.778 59.1561 64.778 63.5325 64.778 67.9088V69L63.815 68.4196ZM60.3342 49.5676C60.6591 49.5676 60.9259 49.5676 61.2044 49.5676C62.4807 49.5676 63.757 49.5676 65.0217 49.5676C66.4709 49.5113 67.8464 48.914 68.8773 47.8934C69.9082 46.8728 70.5196 45.5029 70.591 44.0537C70.591 43.8215 70.591 43.5893 70.591 43.3572V10.6913C70.6779 9.53064 70.4091 8.37106 69.8204 7.36722C69.2316 6.36338 68.351 5.563 67.2958 5.07284C66.3996 4.66514 65.4261 4.4553 64.4415 4.4576C46.5037 4.4576 28.5698 4.4576 10.6397 4.4576C9.81029 4.39415 8.97693 4.5099 8.19614 4.79699C7.41536 5.08409 6.70542 5.53583 6.11447 6.12156C5.52352 6.70729 5.06538 7.41332 4.77113 8.19176C4.47688 8.9702 4.3534 9.80285 4.40906 10.6332C4.40906 21.5219 4.40906 32.4066 4.40906 43.2875C4.40906 47.1067 6.93845 49.5212 10.8022 49.5212C21.7087 49.5212 32.6153 49.5212 43.5218 49.5212C44.0797 49.5315 44.623 49.7006 45.0882 50.0087C49.8917 53.3055 54.6604 56.6487 59.4408 59.9803L60.311 60.5607L60.3342 49.5676Z" fill="#09566A"/>
<path d="M20.1307 15.6248V19.8967H54.9389V15.6248H20.1307Z" fill="#09566A"/>
<path d="M20.1307 25.0044V29.2762H54.9389V25.0044H20.1307Z" fill="#09566A"/>
<path d="M54.8925 38.6558V34.3723H20.1539V38.6558H54.8925Z" fill="#09566A"/>
</g>
<defs>
<clipPath id="clip0_2_221">
<rect width="75" height="69" fill="white"/>
</clipPath>
</defs>
</svg>
