<svg width="684" height="471" viewBox="0 0 684 471" fill="none" xmlns="http://www.w3.org/2000/svg">
<g clip-path="url(#clip0_561_3509)">
<path d="M625.917 463.851H-22.2952C-22.2952 463.851 -38.4515 428.24 -39.8966 380.518C-39.8966 379.938 -39.9192 379.349 -39.9456 378.769C-40.5342 351.997 -36.4442 321.568 -22.2952 291.549C-18.491 283.382 -13.9042 275.602 -8.599 268.318C-8.15755 267.715 -7.71232 267.111 -7.27087 266.519C36.4174 208.937 112.06 210.17 205.202 112.909C219.845 97.6228 234.141 84.8251 248.083 74.1955C248.958 73.5319 249.845 72.8645 250.724 72.2009C267.031 60.0442 282.833 50.8286 298.053 44.0527C298.672 43.7699 299.298 43.4984 299.913 43.2307C317.503 35.58 334.316 31.1645 350.287 29.1019C350.868 29.0152 351.446 28.9511 352.027 28.8795C392.614 24.0643 427.631 34.4827 455.609 46.1718C502.074 65.572 533.024 126.729 554.199 179.277L554.901 181.049C560.36 194.684 565.156 207.693 569.385 219.186C569.631 219.812 569.853 220.442 570.087 221.071C570.272 221.603 570.465 222.108 570.653 222.625C587.353 267.892 620.276 251.063 639.7 339.852C653.721 403.923 625.917 463.851 625.917 463.851Z" fill="#F3F3FF"/>
<path d="M352.034 28.8799C351.453 28.9515 350.876 29.0156 350.295 29.1024C352.515 46.4105 353.627 63.8427 353.623 81.2924C353.623 256.693 242.129 406.574 86.2634 463.851H91.7607C145.044 443.599 193.913 412.117 235.435 370.617C312.783 293.337 355.351 190.586 355.351 81.2924C355.359 63.7689 354.251 46.2627 352.034 28.8799Z" fill="white"/>
<path d="M298.061 44.0529C277.686 220.11 136.698 359.987 -39.9381 378.784C-39.9117 379.365 -39.9004 379.953 -39.8891 380.534C47.0046 371.431 127.529 333.197 190.177 270.588C252.199 208.594 290.322 129.093 299.921 43.2158C299.306 43.4835 298.679 43.7701 298.061 44.0529Z" fill="white"/>
<path d="M248.083 74.1959C210.476 181.408 111.049 259.823 -7.27467 266.535C-7.71612 267.127 -8.16133 267.73 -8.60278 268.333C63.0854 264.661 129.944 235.027 181.069 183.934C213.053 151.955 236.646 113.822 250.72 72.2012C249.845 72.8648 248.958 73.5322 248.083 74.1959Z" fill="white"/>
<path d="M554.912 181.038L554.21 179.266C527.946 192.957 503.937 210.591 483.02 231.554C428.31 286.229 398.171 358.939 398.171 436.257C398.171 445.533 398.603 454.73 399.465 463.85H401.216C400.341 454.771 399.901 445.573 399.896 436.257C399.892 325.474 462.849 229.114 554.912 181.038Z" fill="white"/>
<path d="M570.095 221.045C569.861 220.431 569.638 219.801 569.393 219.16C563.66 224.072 558.093 229.225 552.69 234.62C497.98 289.295 467.83 362.009 467.83 439.338C467.83 447.566 468.17 455.735 468.852 463.847H470.603C469.914 455.768 469.569 447.598 469.569 439.338C469.569 352.13 508.59 273.85 570.095 221.045Z" fill="white"/>
<path d="M644.013 463.481H-35.1765V471H644.013V463.481Z" fill="#B1B7EF"/>
<path d="M570.382 401.118C569.023 404.293 567.62 407.483 566.19 410.651C553.776 438.056 539.469 463.482 539.469 463.482H473.218C472.995 462.58 484.333 443.207 500.037 420.296C500.184 420.085 500.319 419.877 500.467 419.666C523.652 385.953 556.116 344.924 575.173 343.842C591.194 342.929 582.95 371.616 570.382 401.118Z" fill="#09AAA2"/>
<path d="M568.355 362.318C567.888 362.921 524.995 419.357 507.232 463.481H505.9C523.633 419.112 566.922 362.182 567.378 361.564C567.427 361.499 567.489 361.445 567.559 361.405C567.629 361.364 567.707 361.338 567.787 361.328C567.868 361.318 567.949 361.324 568.027 361.345C568.106 361.367 568.179 361.404 568.242 361.454C568.369 361.556 568.451 361.702 568.472 361.863C568.493 362.024 568.452 362.187 568.355 362.318Z" fill="#00C9B9"/>
<g style="mix-blend-mode:multiply" opacity="0.45">
<path d="M570.382 401.118C569.023 404.293 567.62 407.483 566.19 410.65C553.776 438.056 539.469 463.482 539.469 463.482H473.218C472.995 462.58 484.333 443.207 500.037 420.296C516.427 422.622 546.083 422.815 570.382 401.118Z" fill="#09AAA2"/>
</g>
<path d="M616.364 390.763C602.671 409.13 595.235 430.525 582.063 463.858L557.806 463.696H556.474L525.833 463.5C525.833 463.5 546.283 433.84 566.175 410.669C575.147 400.224 584.021 391.084 590.85 386.601L602.77 388.546L604.162 388.78L616.364 390.763Z" fill="#00C9B9"/>
<path d="M604.162 388.762C604.136 388.827 604.098 388.886 604.049 388.935C603.732 389.293 574.026 422.785 557.806 463.689H556.474C571.781 424.851 599.279 392.555 602.769 388.539C602.992 388.279 603.113 388.162 603.147 388.121C603.244 388.013 603.377 387.943 603.521 387.923C603.665 387.904 603.812 387.936 603.934 388.015C604.057 388.093 604.148 388.212 604.191 388.351C604.234 388.49 604.226 388.639 604.169 388.773L604.162 388.762Z" fill="#36EAD9"/>
<path d="M590.854 386.582C590.854 386.582 613.696 399.274 621.605 394.7C629.513 390.126 622.046 380.609 611.281 379.568C600.517 378.528 590.854 386.582 590.854 386.582Z" fill="#19DDCA"/>
<path d="M500.467 419.666C494.572 434.862 487.376 449.521 478.96 463.481H430.521C430.521 463.481 473.534 343.298 499.471 327.865C520.113 315.558 522.271 363.498 500.467 419.666Z" fill="#00C9B9"/>
<path d="M502.564 349.124C494.033 390.549 466.954 446.321 458.314 463.481H456.948C465.249 447.06 492.766 390.62 501.357 348.879C501.39 348.719 501.484 348.578 501.621 348.488C501.757 348.398 501.923 348.366 502.083 348.398C502.243 348.431 502.384 348.525 502.474 348.661C502.565 348.798 502.597 348.964 502.564 349.124Z" fill="#36EAD9"/>
<path d="M312.836 463.481H260.39C260.39 463.481 259.258 458.738 257.617 451.076C250.173 416.672 231.772 323.517 254.376 337.876C282.01 355.443 312.836 463.481 312.836 463.481Z" fill="#00C9B9"/>
<path d="M287.447 463.481H286.175C273.902 409.802 256.523 362.721 256.312 362.155C256.257 362.001 256.266 361.831 256.337 361.683C256.408 361.536 256.534 361.422 256.689 361.367C256.765 361.339 256.847 361.326 256.928 361.33C257.01 361.333 257.09 361.353 257.163 361.389C257.237 361.424 257.303 361.473 257.357 361.535C257.411 361.596 257.452 361.667 257.477 361.744C257.681 362.302 275.132 409.617 287.447 463.481Z" fill="#36EAD9"/>
<path d="M265.065 463.482H202.696C202.696 463.482 199.161 456.412 194.018 445.707C190.947 439.297 187.314 431.604 183.529 423.324C183.28 422.807 183.046 422.291 182.812 421.774C180.926 417.626 179.005 413.362 177.096 409.048C176.662 408.053 176.221 407.042 175.776 406.032C163.166 377.084 152.073 347.401 158.042 344.192C176.443 334.313 215.317 386.258 240.793 424.738C247.551 434.919 253.354 444.176 257.606 451.072C262.292 458.712 265.065 463.482 265.065 463.482Z" fill="#09AAA2"/>
<path d="M234.066 463.481H232.76C223.995 441.408 211.065 418.47 199.482 399.885C197.817 397.223 196.189 394.66 194.599 392.196C182.669 373.671 173.18 361.035 172.931 360.704C172.831 360.573 172.787 360.407 172.809 360.244C172.831 360.08 172.917 359.933 173.048 359.833C173.179 359.733 173.344 359.689 173.508 359.711C173.671 359.733 173.819 359.818 173.919 359.949C174.176 360.293 184.518 374.063 197.199 393.969C197.199 393.969 197.199 393.995 197.225 394.006C197.497 394.425 197.769 394.855 198.052 395.3C198.063 395.327 198.08 395.353 198.101 395.375C210.375 414.753 224.648 439.609 234.066 463.481Z" fill="#00C9B9"/>
<g style="mix-blend-mode:multiply" opacity="0.45">
<path d="M265.065 463.481H202.696C202.696 463.481 199.161 456.411 194.018 445.706C190.947 439.296 187.314 431.604 183.529 423.324C183.28 422.807 183.046 422.29 182.812 421.774C180.926 417.626 179.005 413.362 177.096 409.048C193.32 420.36 219.396 434.089 240.778 424.741C247.536 434.922 253.338 444.179 257.591 451.076C262.292 458.712 265.065 463.481 265.065 463.481Z" fill="#09AAA2"/>
</g>
<path d="M160.506 463.481L145.731 463.579L133.985 463.651H132.702L104.536 463.835C104.536 463.835 103.133 457.425 101.333 447.772C95.6998 417.471 86.2407 355.013 104.536 356.929C119.195 358.437 136.721 397.479 148.194 427.855C150.055 432.757 151.756 437.463 153.262 441.735C157.759 454.488 160.506 463.481 160.506 463.481Z" fill="#00C9B9"/>
<path d="M133.985 463.651H132.702L107.8 382.389C107.754 382.235 107.771 382.069 107.848 381.927C107.924 381.786 108.054 381.681 108.208 381.634C108.284 381.611 108.364 381.603 108.444 381.61C108.523 381.618 108.6 381.641 108.671 381.679C108.741 381.717 108.803 381.769 108.853 381.831C108.903 381.893 108.94 381.965 108.962 382.042L133.985 463.651Z" fill="#36EAD9"/>
<g style="mix-blend-mode:multiply" opacity="0.45">
<path d="M160.506 463.481L145.731 463.579L133.985 463.651H132.702L104.536 463.835C104.536 463.835 103.133 457.425 101.333 447.772C122.99 445.63 139.162 435.257 148.194 427.855C150.055 432.757 151.756 437.463 153.262 441.735C157.759 454.488 160.506 463.481 160.506 463.481Z" fill="#09AAA2"/>
</g>
<path d="M194.033 445.706C191.566 456.102 189.264 463.851 189.264 463.851L167.558 463.715H166.226L145.731 463.594L141.935 463.568C141.935 463.568 146.568 453.96 153.254 441.766C159.638 430.163 167.894 416.208 175.783 406.046C182.465 397.438 188.872 391.537 193.667 392.042C193.979 392.08 194.287 392.136 194.592 392.212C195.622 392.526 196.529 393.15 197.191 393.999C197.191 393.999 197.191 394.025 197.218 394.037C197.535 394.44 197.812 394.873 198.044 395.33C198.056 395.358 198.072 395.383 198.093 395.405C198.771 396.828 199.237 398.342 199.474 399.9C201.376 410.835 197.531 430.948 194.033 445.706Z" fill="#0ED8C5"/>
<path d="M191.407 403.456L183.544 423.324L167.558 463.715H166.226L182.827 421.789L190.26 403.015C190.322 402.865 190.441 402.744 190.59 402.68C190.74 402.616 190.909 402.613 191.06 402.672C191.21 402.731 191.33 402.846 191.395 402.993C191.46 403.139 191.464 403.306 191.407 403.456Z" fill="#36EAD9"/>
<path d="M368.345 156.11C373.817 156.11 378.253 151.677 378.253 146.208C378.253 140.74 373.817 136.307 368.345 136.307C362.873 136.307 358.437 140.74 358.437 146.208C358.437 151.677 362.873 156.11 368.345 156.11Z" fill="#B5C1EA"/>
<path d="M407.166 153.682C408.129 148.7 408.122 143.579 407.144 138.599L415.067 131.952C413.396 124.41 409.645 118 403.925 112.665L394.236 116.352C390.403 113.021 385.963 110.46 381.159 108.811L379.351 98.6302C371.99 96.3112 364.561 96.3678 357.071 98.6302L355.422 108.849C350.625 110.511 346.194 113.081 342.371 116.42L332.641 112.891C326.951 118.106 323.268 124.554 321.499 132.178L329.532 138.713C328.569 143.695 328.577 148.816 329.554 153.795L321.631 160.443C323.302 167.984 327.053 174.395 332.773 179.73L342.466 176.042C346.298 179.373 350.737 181.934 355.539 183.584L357.347 193.765C364.708 196.084 372.137 196.027 379.608 193.765L381.257 183.546C386.055 181.885 390.488 179.314 394.311 175.974L404.038 179.504C409.732 174.289 413.411 167.841 415.18 160.217L407.166 153.682ZM341.289 146.209C341.288 140.861 342.874 135.632 345.847 131.185C348.819 126.738 353.045 123.272 357.988 121.225C362.932 119.178 368.373 118.642 373.621 119.684C378.87 120.727 383.692 123.302 387.476 127.084C391.26 130.865 393.837 135.683 394.882 140.928C395.926 146.174 395.39 151.611 393.343 156.552C391.295 161.493 387.827 165.716 383.378 168.687C378.928 171.659 373.697 173.245 368.345 173.245C361.17 173.245 354.289 170.396 349.215 165.326C344.141 160.256 341.29 153.379 341.289 146.209Z" fill="#B5C1EA"/>
<path opacity="0.67" d="M345.903 74.9046C345.5 73.8198 344.994 72.7757 344.394 71.7863C343.78 70.7789 343.068 69.8343 342.27 68.9658L343.779 64.441C341.346 61.9146 338.191 60.2023 334.746 59.5391L331.814 63.3097C329.503 62.9196 327.138 62.981 324.849 63.4907L321.688 59.9161C318.277 60.7518 315.209 62.6238 312.908 65.2743L314.719 69.6973C313.229 71.5062 312.103 73.5855 311.402 75.8209L306.716 76.7711C305.738 80.1405 305.828 83.7298 306.973 87.0462L311.712 87.691C312.531 89.8866 313.767 91.9033 315.353 93.6298L313.843 98.1547C316.282 100.685 319.446 102.397 322.899 103.057L325.827 99.2859C328.138 99.6723 330.503 99.6109 332.792 99.1049L335.954 102.679C339.364 101.844 342.432 99.9718 344.733 97.3213L342.922 92.8983C344.412 91.0886 345.539 89.0097 346.243 86.7747L350.925 85.8245C351.904 82.4555 351.816 78.8662 350.672 75.5494L345.903 74.9046ZM333.829 89.516C332.203 90.509 330.318 90.9976 328.414 90.9202C326.51 90.8428 324.671 90.2028 323.131 89.0812C321.59 87.9595 320.417 86.4065 319.76 84.6187C319.103 82.8308 318.991 80.8883 319.439 79.0369C319.886 77.1854 320.873 75.5082 322.274 74.2172C323.675 72.9262 325.428 72.0794 327.311 71.784C329.194 71.4886 331.122 71.7579 332.852 72.5576C334.582 73.3574 336.035 74.6518 337.029 76.2771C338.359 78.4573 338.77 81.0759 338.17 83.5581C337.57 86.0403 336.009 88.1831 333.829 89.516Z" fill="#B5C1EA"/>
<path d="M193.015 35.4105V145.292L225.916 170.85H193.015V218.658C193.013 222.208 191.6 225.611 189.088 228.12C186.575 230.629 183.168 232.038 179.617 232.037H53.8829C52.1251 232.037 50.3845 231.691 48.7606 231.018C47.1366 230.346 45.6611 229.36 44.4183 228.118C43.1756 226.876 42.1899 225.401 41.5175 223.778C40.8452 222.155 40.4994 220.415 40.4999 218.658V35.4029C40.4994 33.6464 40.8452 31.907 41.5176 30.2841C42.19 28.6612 43.1757 27.1866 44.4186 25.9446C45.6614 24.7025 47.1369 23.7173 48.7609 23.0454C50.3848 22.3734 52.1253 22.0278 53.8829 22.0283H179.617C181.376 22.0273 183.118 22.3727 184.743 23.0448C186.369 23.7169 187.846 24.7024 189.09 25.9452C190.334 27.1879 191.321 28.6635 191.995 30.2876C192.668 31.9117 193.015 33.6525 193.015 35.4105Z" fill="#CFD6F9"/>
<g style="mix-blend-mode:multiply" opacity="0.29">
<path d="M193.015 177.63V218.659C193.013 222.208 191.6 225.612 189.088 228.12C186.575 230.629 183.168 232.038 179.617 232.037H53.8829C52.1251 232.037 50.3846 231.691 48.7606 231.019C47.1366 230.346 45.6611 229.361 44.4183 228.118C43.1756 226.876 42.1899 225.401 41.5175 223.778C40.8452 222.155 40.4994 220.415 40.4999 218.659V93.0194L90.2553 64.4678L108.068 123.766L189.132 175.341L193.015 177.63Z" fill="#3F51BA"/>
</g>
<path d="M214.163 121.352C209.111 127.762 204.968 129.949 204.968 129.949C204.968 129.949 202.059 156.875 200.678 168.972C199.297 181.068 191.743 192.078 185.506 193.014C182.352 193.496 176.915 190.91 171.52 187.101C167.677 184.409 164.12 181.33 160.906 177.912C159.982 176.917 159.144 175.917 158.393 174.944C152.092 166.755 171.678 155.62 173.429 154.647C173.472 154.629 173.514 154.608 173.553 154.583L181.673 161.468L194.554 124.259C194.554 124.259 193.015 118.901 195.309 111.706C197.603 104.512 200.67 100.213 201.583 101.148C202.496 102.084 200.217 109.723 200.67 112.321C200.67 112.321 207.107 111.103 210.016 104.67C212.925 98.2374 213.231 92.4155 216.608 96.0995C219.985 99.7834 219.219 114.919 214.163 121.352Z" fill="#9B3D18"/>
<g style="mix-blend-mode:multiply" opacity="0.42">
<path d="M183.129 182.965L178.322 171.114C178.322 171.114 176.398 180.254 171.531 187.101C167.688 184.409 164.131 181.33 160.917 177.912L173.44 154.647C173.483 154.629 173.525 154.608 173.565 154.583L181.684 161.468L183.129 182.965Z" fill="#842715"/>
</g>
<path d="M179.152 155.096C178.424 174.817 159.849 183.101 159.849 183.101L149.145 174.326V232.018H74.5706L69.7637 189.009C62.3006 190.695 57.8861 188.847 57.8861 188.847C56.37 178.828 55.7388 168.695 55.9996 158.565C56.4184 145.843 58.6408 133.81 64.4626 128.901C71.5748 122.898 81.5621 119.474 87.5575 117.853C90.6779 117.004 92.7153 116.639 92.7153 116.639L97.4128 117.016L111.373 118.094C115.569 117.716 119.79 117.734 123.983 118.147C129.922 118.686 137.102 120.089 143.603 123.407C158.404 130.964 179.152 155.096 179.152 155.096Z" fill="#EA711F"/>
<g style="mix-blend-mode:multiply" opacity="0.29">
<path d="M149.145 212.41V232.048H74.5706L69.7637 189.009C62.3006 190.695 57.8861 188.847 57.8861 188.847C56.37 178.828 55.7388 168.695 55.9996 158.565C57.0674 158.256 79.204 148.007 79.204 148.007C80.0755 148.825 101.442 207.787 149.145 212.41Z" fill="#D84023"/>
</g>
<path d="M117.546 139.477C99.9068 143.497 87.5688 117.852 87.5688 117.852C87.8933 117.811 92.0399 117.381 97.4241 117.004L111.384 118.082C115.58 117.704 119.802 117.722 123.994 118.135C127.129 121.955 135.189 135.488 117.546 139.477Z" fill="#FF9A55"/>
<path d="M118.342 133.731C107.532 136.974 93.5945 117.234 93.5945 117.234C95.1558 108.79 95.7168 100.191 95.2659 91.6161C95.2659 91.5633 95.2659 91.5105 95.2659 91.4728C95.2612 91.412 95.2524 91.3515 95.2395 91.2918C95.2395 91.1222 95.2395 91.043 95.2395 91.043C95.2395 91.043 122.783 109.923 121.523 111.853C120.262 113.784 121.145 118.173 121.145 118.173C122.228 119.908 123.054 121.79 123.598 123.761C124.522 127.46 124.247 131.944 118.342 133.731Z" fill="#9B3D18"/>
<g style="mix-blend-mode:multiply" opacity="0.42">
<path d="M123.571 123.761C99.6049 123.512 95.7224 95.9411 95.2734 91.6161C95.2734 91.5633 95.2734 91.5105 95.2734 91.4728C95.2687 91.412 95.2599 91.3515 95.247 91.2918C95.247 91.1222 95.247 91.043 95.247 91.043C95.247 91.043 122.79 109.923 121.53 111.853C120.27 113.784 121.153 118.173 121.153 118.173C122.223 119.91 123.038 121.792 123.571 123.761Z" fill="#842715"/>
</g>
<path d="M91.357 82.8532C91.357 82.8532 87.6292 69.6558 90.2628 64.4674C92.8964 59.2789 96.9977 59.7238 96.9977 59.7238C96.9977 59.7238 97.0279 51.8431 103.223 48.129C109.419 44.4149 123.598 46.1795 131.272 51.7526C138.947 57.3257 143.508 55.1462 143.508 55.1462C143.508 55.1462 143.976 61.8807 139.637 63.1966C139.637 63.1966 143.821 62.7328 145.368 65.674C145.368 65.674 141.029 66.9899 139.482 71.4808C139.482 71.4808 141.109 80.4588 132.2 84.9497C123.292 89.4406 103.001 91.9142 103.001 91.9142L95.6432 89.3614L91.357 82.8532Z" fill="#020331"/>
<path d="M135.223 73.9693C135.223 73.9693 135.687 104.583 126.624 110.168C114.818 117.449 96.6506 103.219 95.7186 91.914C95.7186 91.914 90.4364 90.598 91.1495 83.9428C91.8626 77.2875 100.582 77.9097 100.986 86.1863L103.604 78.9278C103.604 78.9278 111.449 80.3908 114.309 70.1006C114.309 70.1006 127.941 74.9799 134.306 70.1006L135.223 73.9693Z" fill="#9B3D18"/>
<g style="mix-blend-mode:multiply" opacity="0.29">
<path d="M149.145 174.327C149.145 174.327 149.934 153.418 145.372 136.91C145.372 136.91 158.865 156.635 157.28 180.997L149.145 174.327Z" fill="#D84023"/>
</g>
<path d="M160.472 141.849L153.654 171.31C153.462 172.144 153.007 172.895 152.355 173.451C151.704 174.007 150.89 174.339 150.036 174.398L136.513 175.344C135.895 175.384 135.275 175.282 134.702 175.046C133.829 174.689 133.111 174.033 132.677 173.196C132.242 172.359 132.119 171.395 132.329 170.476L138.86 140.597C139.047 139.727 139.521 138.945 140.204 138.375C140.888 137.805 141.743 137.481 142.633 137.453L156.427 136.955C157.043 136.928 157.657 137.045 158.22 137.295C158.784 137.546 159.281 137.923 159.674 138.398C160.066 138.873 160.343 139.433 160.483 140.033C160.623 140.633 160.622 141.257 160.48 141.857L160.472 141.849Z" fill="#212572"/>
<path d="M160.472 141.849L153.654 171.309C153.462 172.144 153.007 172.894 152.355 173.45C151.704 174.007 150.89 174.339 150.036 174.398L136.513 175.344C135.895 175.384 135.275 175.282 134.702 175.046C134.392 174.294 134.322 173.464 134.502 172.671L141.033 142.78C141.224 141.912 141.698 141.132 142.381 140.563C143.064 139.994 143.917 139.668 144.806 139.636L158.601 139.138C159.18 139.115 159.757 139.22 160.291 139.447C160.598 140.21 160.661 141.049 160.472 141.849Z" fill="#393BC6"/>
<path d="M156.801 145.669C156.727 146.024 156.549 146.349 156.291 146.603C156.032 146.857 155.704 147.028 155.347 147.096C154.991 147.163 154.623 147.124 154.289 146.982C153.955 146.841 153.671 146.603 153.472 146.3C153.273 145.997 153.169 145.642 153.172 145.28C153.175 144.917 153.286 144.564 153.49 144.264C153.694 143.965 153.982 143.732 154.318 143.597C154.654 143.461 155.023 143.427 155.378 143.501C155.614 143.55 155.838 143.645 156.037 143.78C156.237 143.916 156.407 144.089 156.539 144.291C156.671 144.492 156.762 144.717 156.807 144.954C156.852 145.191 156.85 145.434 156.801 145.669Z" fill="#5E6DDD"/>
<path d="M158.601 160.484C156.854 166.408 149.307 172.494 143.048 173.625C136.788 174.756 130.22 170.499 130.22 170.499C130.22 170.499 109.219 201.042 96.5449 210.8C83.8712 220.559 79.9435 221.592 72.4502 213.063C70.0241 210.291 68.013 206.253 66.4359 202.041C63.1194 193.293 61.58 183.87 61.58 183.87L88.0405 179.722V188.221C88.0405 188.221 117.006 165.299 123.771 160.975C130.536 156.65 133.151 153.116 136.196 152.796L134.879 158.388C134.879 158.388 148.84 158.882 154.76 156.8C160.68 154.719 160.363 154.545 158.601 160.484Z" fill="#9B3D18"/>
<g style="mix-blend-mode:multiply" opacity="0.42">
<path d="M88.0367 179.711V188.21C88.0367 188.21 81.347 197.154 66.4321 202.045C63.1156 193.297 61.5762 183.874 61.5762 183.874L88.0367 179.711Z" fill="#842715"/>
</g>
<path d="M57.0485 188.847C57.0485 188.847 69.2355 194.616 88.6404 183.719C88.6404 183.719 86.9576 148.652 80.3019 135.635C73.6462 122.619 62.9458 124.636 58.237 136.789C53.5282 148.942 54.4828 165.446 57.0485 188.847Z" fill="#EA711F"/>
<path d="M405.197 447.414C405.197 447.414 391.991 456.257 384.554 459.383C377.118 462.509 376.778 463.851 376.778 463.851H423.341C423.394 459.478 422.698 455.128 421.285 450.989C418.961 444.379 405.197 447.414 405.197 447.414Z" fill="#D16115"/>
<path d="M399.032 435.718L405.638 447.626C405.638 447.626 410.381 454.473 421.285 450.989L416.38 435.718H399.032Z" fill="#EF8986"/>
<path d="M417.486 437.143C410.879 445.363 402.114 444.831 402.114 444.831L378.023 401.782L359.399 368.517V362.683L385.916 360.349L387.822 360.176C389.331 362.815 390.629 365.21 391.882 367.717C394.9 373.671 397.662 380.16 401.944 391.631C403.918 396.91 406.253 403.588 408.502 410.171C413.177 423.802 417.486 437.143 417.486 437.143Z" fill="#3F51BA"/>
<path opacity="0.75" d="M408.517 410.141C398.899 407.502 387.727 404.418 378.038 401.782L359.399 368.517V362.684L385.916 360.35L391.882 367.706C394.9 373.66 397.662 380.149 401.944 391.62C403.918 396.891 406.253 403.558 408.517 410.141Z" fill="#212572"/>
<path d="M305.599 447.414C305.599 447.414 292.393 456.257 284.957 459.383C277.52 462.509 277.18 463.851 277.18 463.851H323.744C323.796 459.478 323.101 455.128 321.688 450.989C319.363 444.379 305.599 447.414 305.599 447.414Z" fill="#EA711F"/>
<path d="M310.606 435.183L306.041 447.626C306.041 447.626 310.783 454.473 321.688 450.989L327.943 435.183H310.606Z" fill="#F9A993"/>
<path d="M446.625 326.205L446.248 331.047C445.737 337.817 442.827 344.184 438.041 349.002C433.254 353.82 426.905 356.774 420.134 357.332L364.346 362.004C364.346 362.004 364.58 365.258 356.237 384.576C347.895 403.893 327.396 443.176 327.396 443.176C326.294 443.353 325.242 443.508 324.246 443.613C323.868 443.651 323.514 443.696 323.148 443.723C309.565 444.986 306.169 439.854 306.169 439.854C306.169 439.854 334.78 346.718 341.443 341.25C346.201 337.333 374.341 324.463 390.116 317.401C390.365 317.284 390.614 317.175 390.848 317.069C396.817 314.396 400.827 312.635 400.827 312.635L405.612 314.053L446.625 326.205Z" fill="#636AEA"/>
<path d="M433.797 325.108C433.646 325.3 417.999 344.233 392.357 347.438C374.786 349.636 363.833 351.247 358.871 352.02C357.85 352.179 356.892 352.615 356.101 353.279C355.311 353.944 354.717 354.812 354.385 355.79L324.268 443.61C323.891 443.647 323.514 443.689 323.167 443.719L353.445 355.485C353.834 354.333 354.533 353.311 355.465 352.529C356.396 351.748 357.525 351.237 358.728 351.054C363.689 350.3 374.654 348.667 392.244 346.473C417.478 343.317 432.872 324.693 433.019 324.505L433.797 325.108Z" fill="#98A1F4"/>
<g style="mix-blend-mode:multiply" opacity="0.29">
<path d="M446.625 326.206L446.248 331.047C446.019 334.066 445.312 337.029 444.154 339.826C414.912 339.384 392.27 319.347 390.127 317.383C390.022 317.277 389.961 317.228 389.961 317.228L390.859 317.051L405.623 314.034L446.625 326.206Z" fill="#3F51BA"/>
</g>
<path d="M462.374 319.908L458.223 351.065C457.901 353.513 456.701 355.76 454.845 357.388C452.989 359.017 450.604 359.916 448.134 359.919V368.493C452.259 368.493 456.239 366.971 459.31 364.219C462.382 361.467 464.328 357.678 464.777 353.58L468.448 319.908H462.374Z" fill="#6A73A0"/>
<path d="M453.439 359.889V368.648C453.437 369.429 453.126 370.178 452.573 370.73C452.02 371.282 451.27 371.592 450.489 371.593H358.977C358.195 371.592 357.446 371.282 356.893 370.73C356.34 370.178 356.028 369.429 356.026 368.648V366.141C356.023 365.681 356.06 365.222 356.136 364.768C356.46 362.59 357.558 360.601 359.228 359.164C360.898 357.727 363.029 356.938 365.232 356.94H450.504C451.283 356.945 452.029 357.258 452.579 357.81C453.129 358.363 453.438 359.11 453.439 359.889Z" fill="#020331"/>
<path d="M453.439 359.889V363.991C453.44 364.379 453.364 364.762 453.216 365.12C453.067 365.478 452.85 365.804 452.576 366.078C452.302 366.351 451.976 366.569 451.618 366.717C451.26 366.865 450.876 366.941 450.489 366.94H358.977C358.329 366.942 357.699 366.729 357.185 366.336C356.671 365.942 356.302 365.39 356.136 364.764C356.46 362.586 357.558 360.597 359.228 359.16C360.898 357.723 363.029 356.934 365.232 356.937H450.504C451.284 356.942 452.031 357.255 452.58 357.808C453.13 358.361 453.439 359.109 453.439 359.889Z" fill="#1B1F5B"/>
<path d="M473.274 323.186C473.083 324.343 472.457 325.384 471.524 326.096C470.59 326.807 469.42 327.135 468.252 327.013L457.552 325.882C456.926 325.815 456.321 325.62 455.773 325.31C455.226 325 454.748 324.581 454.369 324.08C453.989 323.578 453.717 323.004 453.568 322.393C453.419 321.782 453.397 321.147 453.503 320.527C453.552 320.271 453.59 320.011 453.635 319.773C458.982 288.428 462.691 258.424 463.174 231.083C463.182 230.374 463.355 229.677 463.679 229.046C464.003 228.415 464.469 227.867 465.04 227.447C465.611 227.026 466.271 226.743 466.97 226.62C467.669 226.497 468.387 226.538 469.067 226.739L471.052 227.32C473.351 227.999 475.368 229.406 476.797 231.33C478.226 233.254 478.991 235.591 478.975 237.987C478.719 263.786 478.062 292.832 473.274 323.186Z" fill="#020331"/>
<path d="M470.471 317.318C470.286 318.477 469.663 319.522 468.731 320.236C467.799 320.95 466.628 321.28 465.46 321.157L454.748 320.026C454.361 319.987 453.98 319.897 453.616 319.758C458.963 288.412 462.672 258.409 463.155 231.068C463.165 230.358 463.34 229.66 463.666 229.029C463.992 228.398 464.459 227.852 465.032 227.432C465.606 227.012 466.268 226.732 466.968 226.611C467.668 226.491 468.387 226.535 469.067 226.739L471.052 227.32C472.969 227.886 474.696 228.962 476.047 230.434C476.133 230.996 476.171 231.563 476.161 232.131C475.93 257.919 475.259 286.976 470.471 317.318Z" fill="#1B1F5B"/>
<path d="M411.83 377.668V455.438C411.83 456.038 411.591 456.614 411.167 457.038C410.742 457.462 410.166 457.701 409.566 457.701H405.314C404.713 457.701 404.138 457.462 403.713 457.038C403.288 456.614 403.05 456.038 403.05 455.438V377.668H411.83Z" fill="#6A73A0"/>
<g style="mix-blend-mode:multiply" opacity="0.29">
<path d="M411.83 377.668V411.155L403.08 408.663V377.668H411.83Z" fill="#6A73A0"/>
</g>
<path d="M354.487 458.839L403.076 450.698V439.345L354.487 454.582V458.839Z" fill="#4B5275"/>
<path d="M361.089 458.694C361.875 455.362 359.811 452.023 356.476 451.236C353.142 450.45 349.801 452.514 349.014 455.846C348.227 459.178 350.292 462.516 353.627 463.303C356.961 464.089 360.302 462.026 361.089 458.694Z" fill="#1B1F5B"/>
<path d="M357.867 457.301C357.867 457.855 357.703 458.397 357.395 458.858C357.086 459.318 356.648 459.677 356.136 459.889C355.623 460.101 355.06 460.157 354.516 460.048C353.972 459.94 353.472 459.673 353.08 459.28C352.688 458.888 352.422 458.389 352.314 457.845C352.206 457.301 352.262 456.738 352.475 456.226C352.688 455.714 353.048 455.277 353.509 454.969C353.971 454.662 354.513 454.498 355.068 454.499C355.436 454.499 355.8 454.572 356.14 454.712C356.48 454.853 356.789 455.06 357.049 455.32C357.309 455.58 357.515 455.889 357.655 456.229C357.796 456.569 357.868 456.933 357.867 457.301Z" fill="#5B6189"/>
<path d="M460.419 458.839L411.83 450.698V439.345L460.419 454.582V458.839Z" fill="#4B5275"/>
<path d="M461.248 463.363C464.582 462.577 466.647 459.238 465.86 455.906C465.073 452.574 461.732 450.51 458.398 451.297C455.064 452.083 452.999 455.422 453.786 458.754C454.573 462.086 457.914 464.15 461.248 463.363Z" fill="#1B1F5B"/>
<path d="M457.039 457.301C457.042 457.854 457.209 458.394 457.518 458.852C457.828 459.311 458.267 459.667 458.779 459.876C459.291 460.085 459.854 460.138 460.396 460.028C460.939 459.917 461.436 459.649 461.826 459.256C462.216 458.864 462.48 458.365 462.586 457.822C462.692 457.279 462.635 456.717 462.421 456.207C462.208 455.697 461.848 455.261 461.387 454.955C460.926 454.649 460.384 454.487 459.831 454.488C459.462 454.489 459.098 454.563 458.758 454.705C458.418 454.847 458.11 455.054 457.851 455.316C457.591 455.577 457.386 455.887 457.247 456.228C457.107 456.568 457.037 456.933 457.039 457.301Z" fill="#5B6189"/>
<path d="M394.096 371.594H422.692V376.496C422.692 377.311 422.368 378.092 421.792 378.669C421.215 379.245 420.433 379.569 419.617 379.569H397.168C396.353 379.569 395.572 379.245 394.996 378.67C394.42 378.094 394.096 377.313 394.096 376.499V371.598V371.594Z" fill="#1B1F5B"/>
<path d="M348.589 295.734H151.771V302.163H348.589V295.734Z" fill="#933306"/>
<path d="M339.176 302.164H157.491V309.31H339.176V302.164Z" fill="#841807"/>
<path d="M173.338 309.313L172.036 321.678L157.133 463.847H151.771L161.479 320.754L162.26 309.313H173.338Z" fill="#DEE9FC"/>
<path d="M343.005 463.847H337.644L324.125 334.89L321.438 309.313H332.531L334.327 335.765L343.005 463.847Z" fill="#DEE9FC"/>
<g style="mix-blend-mode:multiply" opacity="0.29">
<path d="M162.26 309.313H173.338L172.036 321.678L161.479 320.754L162.26 309.313Z" fill="#6A73A0"/>
</g>
<g style="mix-blend-mode:multiply" opacity="0.29">
<path d="M334.327 335.765L324.125 334.89L321.438 309.313H332.531L334.327 335.765Z" fill="#6A73A0"/>
</g>
<path d="M246.92 295.742H204.907L209.148 267.869L212.838 243.616C213.043 242.27 213.553 240.989 214.329 239.869C215.104 238.75 216.125 237.822 217.313 237.157L233.036 228.345L234.922 237.04L222.765 243.654C222.47 243.813 222.217 244.039 222.025 244.314C221.834 244.589 221.71 244.906 221.664 245.237L219.109 263.616L215.502 289.547L245.309 292.763L246.92 295.742Z" fill="#6A73A0"/>
<g style="mix-blend-mode:multiply" opacity="0.29">
<path d="M234.956 237.033L222.799 243.647C222.504 243.806 222.251 244.032 222.059 244.307C221.868 244.582 221.744 244.899 221.698 245.231L219.109 263.616L209.148 267.862L212.838 243.609C213.043 242.263 213.553 240.982 214.329 239.863C215.104 238.743 216.125 237.815 217.313 237.15L233.036 228.338L234.956 237.033Z" fill="#6A73A0"/>
</g>
<path d="M232.677 219.224L229.7 222.591L235.537 245.124L241.706 245.63L232.677 219.224Z" fill="#212572"/>
<path d="M259.813 276.745H253.644C238.049 248.754 230.066 217.91 229.696 184.213H233.579C233.934 217.915 244.196 248.756 259.813 276.745Z" fill="#636AEA"/>
<path d="M264.133 276.745H259.813C244.196 248.756 233.934 217.923 233.579 184.213H235.179C237.427 217.938 247.358 248.673 264.133 276.745Z" fill="#86F7F5"/>
<path d="M287.371 291.568H337.236L338.606 295.735H285.225L287.371 291.568Z" fill="#636AEA"/>
<path d="M461.445 217.127C450.206 228.816 447.764 232.881 452.745 238.205C457.725 243.529 453.122 255.818 437.215 255.004C421.308 254.189 402.914 201.475 402.914 201.475L378.657 192.308L376.016 191.324C376.016 191.324 373.341 187.931 371.986 182.097C371.333 179.302 371.079 176.427 371.232 173.56C371.809 162.55 378.887 161.969 378.887 161.969C378.887 161.969 380.736 153.632 391.629 152.475C402.522 151.317 407.049 158.508 413.309 158.387C419.568 158.267 429.073 163.523 429.307 170.913C429.54 178.304 429.544 188.157 444.021 190.476C458.499 192.795 472.685 205.427 461.445 217.127Z" fill="#933306"/>
<path d="M378.657 192.32L376.016 191.336C376.016 191.336 373.341 187.942 371.986 182.109C373.156 178.587 374.548 175.446 374.548 175.446L378.657 192.32Z" fill="#6B1F10"/>
<path d="M385.52 179.533C385.52 179.533 394.734 187.508 408.562 184.371C408.562 184.371 417.75 194.02 427.737 193.176C437.724 192.331 450.424 196.098 446.602 217.617C442.78 239.136 449.798 236.599 449.168 244.197C448.496 252.281 434.929 250.207 434.929 250.207L397.869 203.552L400.258 188.259C400.258 188.259 389.154 187.523 385.52 179.533Z" fill="#6B1F10"/>
<path d="M417.606 208.447L402.182 224.582L399.737 227.15C399.737 227.15 401.793 214.88 392.255 211.905C383.577 209.186 404.231 196.679 407.981 194.473L408.551 194.134L417.606 208.447Z" fill="#F9A993"/>
<path d="M402.182 224.582L399.737 227.149C399.737 227.149 401.793 214.88 392.255 211.905C383.577 209.186 404.231 196.679 407.981 194.473C408.2 195.785 410.958 212.715 402.182 224.582Z" fill="#EA7B73"/>
<path d="M374.559 175.457C374.559 175.457 374.559 194.141 379.947 203.36C385.607 213.006 388.12 215.611 393.53 214.295C398.941 212.979 409.962 205.245 408.83 194.397C408.83 194.397 412.226 192.659 411.177 188.055C410.128 183.451 405.004 181.973 403.631 188.055C403.631 188.055 389.633 187.708 385.547 179.541C385.547 179.541 388.154 188.315 399.107 190.314C399.084 190.306 382.041 188.918 374.559 175.457Z" fill="#F9A993"/>
<path d="M416.063 188.681C416.068 190.033 415.671 191.357 414.922 192.483C414.174 193.61 413.108 194.49 411.86 195.011C410.611 195.533 409.236 195.672 407.908 195.412C406.58 195.152 405.359 194.504 404.399 193.551C403.439 192.597 402.784 191.38 402.517 190.055C402.25 188.729 402.382 187.354 402.896 186.103C403.411 184.852 404.285 183.782 405.409 183.028C406.532 182.274 407.854 181.87 409.207 181.867C411.02 181.863 412.761 182.579 414.046 183.856C415.332 185.134 416.057 186.869 416.063 188.681Z" fill="#5E6DDD"/>
<path d="M411.422 194.021C414.373 192.799 415.775 189.417 414.552 186.468C413.33 183.519 409.946 182.118 406.995 183.34C404.043 184.561 402.642 187.943 403.864 190.892C405.087 193.842 408.47 195.242 411.422 194.021Z" fill="#393BC6"/>
<path d="M385.879 218.499L385.671 216.855C405.729 214.295 408.362 188.862 408.385 188.605L410.038 188.76C410.026 189.032 407.257 215.769 385.879 218.499Z" fill="#DEE9FC"/>
<path d="M388.444 217.618C388.444 218.059 388.313 218.491 388.068 218.858C387.822 219.225 387.474 219.511 387.065 219.68C386.657 219.849 386.208 219.893 385.775 219.807C385.342 219.721 384.944 219.509 384.631 219.196C384.319 218.884 384.106 218.486 384.02 218.053C383.934 217.62 383.978 217.172 384.147 216.764C384.316 216.356 384.602 216.007 384.97 215.762C385.337 215.517 385.769 215.386 386.211 215.386C386.803 215.386 387.371 215.621 387.79 216.04C388.209 216.458 388.444 217.026 388.444 217.618Z" fill="#86F7F5"/>
<path d="M412.068 188.681C412.068 189.247 411.9 189.799 411.586 190.269C411.271 190.739 410.825 191.106 410.302 191.322C409.779 191.538 409.204 191.595 408.65 191.485C408.095 191.374 407.585 191.102 407.185 190.702C406.785 190.303 406.513 189.793 406.402 189.239C406.292 188.685 406.349 188.11 406.565 187.588C406.782 187.065 407.148 186.619 407.619 186.305C408.089 185.991 408.642 185.823 409.207 185.823C409.966 185.823 410.693 186.124 411.23 186.66C411.766 187.196 412.068 187.923 412.068 188.681Z" fill="#86F7F5"/>
<path d="M362.58 224.971L359.626 222.426C359.626 222.426 356.23 215.197 351.842 212.761C347.454 210.325 343.409 210.469 343.745 211.581C344.45 213.938 348.223 213.436 349.563 217.207C349.563 217.207 342.802 218.496 336.512 216.076C330.222 213.655 327.939 212.712 328.728 217.207C329.517 221.702 335.41 229.024 340.047 229.337C344.684 229.65 350.642 229.824 350.642 229.824L354.472 234.375L362.58 224.971Z" fill="#EF8986"/>
<path d="M396.673 257.809L361.425 222.591C361.425 222.591 354.373 225.803 350.917 233.526C350.917 233.526 376.657 268.774 381.302 271.753C385.947 274.732 395.904 271.037 403.797 263.895C411.69 256.753 396.673 257.809 396.673 257.809Z" fill="#212572"/>
<path d="M447.331 326.93C415.52 331.59 389.98 317.228 389.98 317.228C389.98 317.228 390.735 314.389 391.742 310.271C393.911 301.425 397.19 286.682 396.27 281.799C395.783 279.151 394.689 276.652 393.074 274.499C392.459 273.635 391.795 272.832 391.131 272.051C389.689 270.336 388.21 268.748 387.06 266.916C386.37 265.769 385.956 264.479 385.852 263.145C385.415 259.088 387.06 254.887 387.06 254.887L403.872 225.122L422.489 207.776C422.489 207.776 436.966 216.366 439.845 232.433C442.724 248.5 438.056 275.837 440.022 284.589C441.988 293.341 447.331 326.93 447.331 326.93Z" fill="#393BC6"/>
<path opacity="0.75" d="M404.514 247.692L391.135 272.051C389.693 270.335 388.214 268.748 387.063 266.915C386.374 265.769 385.96 264.478 385.856 263.145C392.451 256.316 404.038 248.036 404.514 247.692Z" fill="#212572"/>
<path opacity="0.75" d="M430.525 251.041C430.525 251.041 424.296 290.501 408.517 302.88C403.639 306.715 397.872 309.258 391.75 310.275C393.915 301.425 397.183 286.682 396.277 281.802C395.785 279.154 394.69 276.654 393.078 274.495L430.525 251.041Z" fill="#212572"/>
<path d="M346.529 280.913L337.851 281.716C337.851 281.716 322.48 276.893 320.069 276.814C317.658 276.735 304.248 288.337 304.248 289.317C304.248 290.298 308.361 289.762 308.361 289.762L321.767 284.404C321.767 284.404 326.411 290.388 330.611 291.105C333.216 291.529 335.872 291.529 338.478 291.105L348.574 293.337L346.529 280.913Z" fill="#F9A993"/>
<path d="M344.752 278.932C344.752 278.932 343.492 289.78 347.424 295.734C347.424 295.734 378.167 295.734 391.633 295.142C405.099 294.55 406.061 292.639 408.562 289.78C411.064 286.922 426.069 269.302 429.88 253.94C433.691 238.578 430.774 226.591 421.659 226.55C410.717 226.501 391.395 271.564 391.395 271.564C391.395 271.564 379 273.585 364.346 275.848C349.691 278.11 344.752 278.932 344.752 278.932Z" fill="#393BC6"/>
<path opacity="0.75" d="M386.211 257.7L412.056 236.678L407.415 227.964L416.871 228.745L422.492 207.795L403.476 223.643L386.211 257.7Z" fill="#212572"/>
<path d="M416.406 206.551C416.406 206.551 392.636 226.8 386.222 257.7C386.222 257.7 402.823 239.948 409.992 234.767L405.499 225.838L416.391 226.192L422.477 207.795C421.194 205.638 418.972 204.356 415.373 204.356L416.406 206.551Z" fill="#5E6DDD"/>
<path d="M269.408 0H177.956C175.014 0 172.629 2.38373 172.629 5.32421V67.6235C172.629 70.5639 175.014 72.9477 177.956 72.9477H269.408C272.35 72.9477 274.736 70.5639 274.736 67.6235V5.32421C274.736 2.38373 272.35 0 269.408 0Z" fill="#636AEA"/>
<path d="M187.11 70.0967L178.032 87.6907L205.198 71.1525L187.11 70.0967Z" fill="#636AEA"/>
<path d="M224.599 13.1973H185.793V17.0019H224.599V13.1973Z" fill="white"/>
<path d="M260.624 25.1992H185.793V29.0038H260.624V25.1992Z" fill="white"/>
<path d="M260.624 37.1982H185.793V41.0029H260.624V37.1982Z" fill="white"/>
<path d="M233.239 49.2002H185.793V53.0048H233.239V49.2002Z" fill="white"/>
<path d="M624.336 214.944H497.652C493.576 214.945 489.666 213.328 486.783 210.449C483.9 207.57 482.279 203.664 482.277 199.59C482.276 197.572 482.674 195.574 483.446 193.709C484.219 191.845 485.351 190.151 486.779 188.724C488.207 187.297 489.902 186.165 491.767 185.393C493.633 184.621 495.633 184.224 497.652 184.225H624.336C628.413 184.227 632.322 185.846 635.204 188.728C638.085 191.609 639.704 195.516 639.704 199.59C639.701 203.662 638.081 207.566 635.199 210.445C632.318 213.324 628.411 214.942 624.336 214.944Z" fill="#636AEA"/>
<path d="M514.944 192.018L516.804 195.789C516.866 195.914 516.956 196.021 517.069 196.103C517.181 196.184 517.312 196.237 517.449 196.257L521.6 196.86C521.758 196.883 521.906 196.95 522.028 197.053C522.15 197.155 522.241 197.29 522.291 197.442C522.34 197.594 522.346 197.756 522.308 197.911C522.27 198.066 522.189 198.208 522.075 198.319L519.056 201.253C518.957 201.349 518.883 201.468 518.84 201.6C518.798 201.731 518.788 201.871 518.811 202.007L519.521 206.155C519.548 206.312 519.531 206.474 519.471 206.622C519.411 206.77 519.311 206.899 519.182 206.993C519.052 207.087 518.899 207.143 518.74 207.155C518.58 207.167 518.421 207.134 518.279 207.06L514.555 205.103C514.433 205.038 514.296 205.004 514.157 205.004C514.018 205.004 513.882 205.038 513.759 205.103L510.039 207.06C509.897 207.134 509.738 207.167 509.578 207.155C509.419 207.143 509.266 207.087 509.137 206.993C509.007 206.899 508.907 206.77 508.847 206.622C508.787 206.474 508.77 206.312 508.798 206.155L509.507 202.007C509.53 201.871 509.519 201.731 509.476 201.6C509.434 201.469 509.36 201.35 509.262 201.253L506.243 198.319C506.129 198.208 506.048 198.067 506.01 197.912C505.971 197.758 505.977 197.595 506.026 197.444C506.075 197.292 506.166 197.157 506.287 197.054C506.409 196.951 506.557 196.884 506.715 196.86L510.865 196.257C511.003 196.237 511.133 196.184 511.246 196.103C511.358 196.021 511.449 195.914 511.51 195.789L513.37 192.018C513.437 191.865 513.546 191.734 513.686 191.642C513.826 191.55 513.99 191.501 514.157 191.501C514.325 191.501 514.488 191.55 514.628 191.642C514.768 191.734 514.878 191.865 514.944 192.018Z" fill="#F2A825"/>
<path d="M538.269 192.018L540.129 195.789C540.191 195.913 540.282 196.021 540.394 196.102C540.506 196.184 540.637 196.236 540.774 196.256L544.925 196.86C545.083 196.883 545.231 196.949 545.353 197.052C545.476 197.155 545.566 197.29 545.616 197.442C545.665 197.593 545.671 197.756 545.633 197.911C545.595 198.066 545.514 198.207 545.4 198.319L542.382 201.252C542.283 201.349 542.209 201.468 542.167 201.6C542.124 201.731 542.114 201.87 542.136 202.007L542.846 206.154C542.873 206.312 542.856 206.474 542.796 206.622C542.736 206.77 542.636 206.898 542.507 206.993C542.377 207.087 542.224 207.143 542.065 207.155C541.906 207.167 541.746 207.133 541.604 207.059L537.884 205.102C537.761 205.037 537.624 205.003 537.484 205.003C537.345 205.003 537.207 205.037 537.084 205.102L533.364 207.059C533.222 207.133 533.063 207.167 532.903 207.155C532.744 207.143 532.591 207.087 532.462 206.993C532.332 206.898 532.232 206.77 532.172 206.622C532.112 206.474 532.095 206.312 532.123 206.154L532.832 202.007C532.856 201.87 532.846 201.731 532.803 201.599C532.76 201.468 532.686 201.349 532.587 201.252L529.568 198.319C529.454 198.207 529.373 198.066 529.335 197.911C529.297 197.756 529.303 197.593 529.352 197.442C529.402 197.29 529.493 197.155 529.615 197.052C529.737 196.949 529.886 196.883 530.044 196.86L534.194 196.256C534.331 196.236 534.461 196.183 534.572 196.101C534.684 196.02 534.774 195.913 534.835 195.789L536.699 192.018C536.766 191.865 536.876 191.736 537.015 191.645C537.155 191.553 537.318 191.505 537.484 191.505C537.651 191.505 537.814 191.553 537.953 191.645C538.092 191.736 538.202 191.865 538.269 192.018Z" fill="#F2A825"/>
<path d="M561.647 192.018L563.507 195.789C563.569 195.913 563.659 196.021 563.772 196.102C563.884 196.184 564.015 196.236 564.152 196.256L568.303 196.86C568.461 196.883 568.609 196.949 568.731 197.052C568.853 197.155 568.944 197.29 568.994 197.442C569.043 197.593 569.049 197.756 569.011 197.911C568.973 198.066 568.892 198.207 568.778 198.319L565.76 201.252C565.661 201.349 565.587 201.468 565.545 201.6C565.502 201.731 565.492 201.87 565.514 202.007L566.224 206.154C566.251 206.312 566.234 206.474 566.174 206.622C566.114 206.77 566.014 206.898 565.885 206.993C565.755 207.087 565.602 207.143 565.443 207.155C565.283 207.167 565.124 207.133 564.982 207.059L561.262 205.102C561.139 205.037 561.003 205.003 560.864 205.003C560.725 205.003 560.588 205.037 560.466 205.102L556.742 207.059C556.6 207.133 556.441 207.167 556.281 207.155C556.122 207.143 555.969 207.087 555.84 206.993C555.71 206.898 555.61 206.77 555.55 206.622C555.49 206.474 555.473 206.312 555.501 206.154L556.21 202.007C556.233 201.87 556.224 201.731 556.181 201.599C556.138 201.468 556.064 201.349 555.965 201.252L552.946 198.319C552.832 198.207 552.751 198.066 552.713 197.911C552.675 197.756 552.681 197.593 552.73 197.442C552.78 197.29 552.871 197.155 552.993 197.052C553.115 196.949 553.263 196.883 553.422 196.86L557.572 196.256C557.709 196.236 557.839 196.183 557.952 196.101C558.064 196.02 558.155 195.913 558.217 195.789L560.077 192.018C560.144 191.865 560.254 191.736 560.393 191.645C560.533 191.553 560.695 191.505 560.862 191.505C561.029 191.505 561.192 191.553 561.331 191.645C561.47 191.736 561.58 191.865 561.647 192.018Z" fill="#F2A825"/>
<path d="M584.968 192.018L586.828 195.789C586.89 195.914 586.981 196.021 587.093 196.103C587.206 196.184 587.336 196.237 587.474 196.257L591.624 196.86C591.782 196.883 591.93 196.95 592.053 197.053C592.175 197.155 592.266 197.29 592.315 197.442C592.365 197.594 592.371 197.756 592.332 197.911C592.294 198.066 592.214 198.208 592.099 198.319L589.081 201.253C588.982 201.349 588.907 201.468 588.864 201.599C588.821 201.731 588.81 201.871 588.832 202.007L589.545 206.155C589.572 206.312 589.555 206.474 589.495 206.622C589.435 206.77 589.335 206.899 589.206 206.993C589.077 207.087 588.924 207.143 588.764 207.155C588.605 207.167 588.445 207.134 588.304 207.06L584.58 205.103C584.457 205.038 584.32 205.004 584.182 205.004C584.043 205.004 583.906 205.038 583.784 205.103L580.063 207.06C579.921 207.133 579.762 207.166 579.602 207.154C579.443 207.142 579.29 207.086 579.161 206.992C579.031 206.898 578.931 206.77 578.87 206.622C578.81 206.474 578.792 206.312 578.818 206.155L579.531 202.007C579.553 201.871 579.542 201.732 579.5 201.6C579.457 201.469 579.384 201.35 579.286 201.253L576.268 198.319C576.153 198.208 576.073 198.067 576.034 197.912C575.996 197.758 576.002 197.595 576.051 197.444C576.1 197.292 576.19 197.157 576.312 197.054C576.433 196.951 576.581 196.884 576.739 196.86L580.89 196.257C581.027 196.237 581.158 196.184 581.27 196.103C581.382 196.021 581.473 195.914 581.535 195.789L583.395 192.018C583.461 191.865 583.571 191.734 583.711 191.642C583.85 191.55 584.014 191.501 584.182 191.501C584.349 191.501 584.513 191.55 584.652 191.642C584.792 191.734 584.902 191.865 584.968 192.018Z" fill="#F2A825"/>
<path d="M608.569 192.018L610.429 195.789C610.49 195.913 610.581 196.021 610.694 196.102C610.806 196.184 610.937 196.236 611.074 196.256L615.224 196.86C615.382 196.883 615.531 196.949 615.653 197.052C615.775 197.155 615.866 197.29 615.916 197.442C615.965 197.593 615.971 197.756 615.933 197.911C615.895 198.066 615.814 198.207 615.7 198.319L612.681 201.252C612.582 201.349 612.508 201.468 612.465 201.599C612.422 201.731 612.412 201.87 612.436 202.007L613.145 206.154C613.173 206.312 613.156 206.474 613.096 206.622C613.036 206.77 612.936 206.898 612.806 206.993C612.677 207.087 612.524 207.143 612.365 207.155C612.205 207.167 612.046 207.133 611.904 207.059L608.18 205.102C608.057 205.037 607.921 205.003 607.782 205.003C607.643 205.003 607.507 205.037 607.384 205.102L603.664 207.059C603.522 207.133 603.362 207.167 603.203 207.155C603.044 207.143 602.891 207.087 602.761 206.993C602.632 206.898 602.532 206.77 602.472 206.622C602.412 206.474 602.395 206.312 602.422 206.154L603.132 202.007C603.154 201.87 603.144 201.731 603.101 201.6C603.059 201.468 602.985 201.349 602.886 201.252L599.868 198.319C599.754 198.207 599.673 198.066 599.635 197.911C599.597 197.756 599.603 197.593 599.652 197.442C599.702 197.29 599.793 197.155 599.915 197.052C600.037 196.949 600.185 196.883 600.343 196.86L604.494 196.256C604.631 196.236 604.762 196.184 604.874 196.102C604.986 196.021 605.077 195.913 605.139 195.789L606.999 192.018C607.066 191.865 607.176 191.736 607.315 191.645C607.454 191.553 607.617 191.505 607.784 191.505C607.95 191.505 608.113 191.553 608.253 191.645C608.392 191.736 608.502 191.865 608.569 192.018Z" fill="white"/>
<path d="M493.373 71.2846V109.369C493.373 110.158 493.06 110.914 492.501 111.472C491.943 112.03 491.186 112.344 490.396 112.344H430.657C430.266 112.344 429.879 112.268 429.518 112.118C429.156 111.969 428.828 111.75 428.551 111.473C428.275 111.197 428.056 110.869 427.906 110.508C427.757 110.146 427.68 109.759 427.681 109.369V71.2846C427.681 70.894 427.758 70.5071 427.907 70.1461C428.057 69.7852 428.276 69.4572 428.552 69.181C428.829 68.9047 429.157 68.6855 429.518 68.536C429.879 68.3865 430.267 68.3096 430.657 68.3096H490.393C491.182 68.3096 491.94 68.6229 492.499 69.1807C493.058 69.7386 493.372 70.4953 493.373 71.2846Z" fill="#F2A825"/>
<g style="mix-blend-mode:multiply" opacity="0.29">
<path d="M493.373 71.2846V77.0048L463 99.4743C462.297 100.033 461.424 100.335 460.525 100.332C459.627 100.328 458.757 100.019 458.057 99.4554L427.681 76.7748V71.2846C427.681 70.4956 427.994 69.7389 428.552 69.181C429.111 68.623 429.868 68.3096 430.657 68.3096H490.393C491.182 68.3096 491.94 68.6229 492.499 69.1807C493.058 69.7385 493.372 70.4953 493.373 71.2846Z" fill="#EA711F"/>
</g>
<path d="M493.373 71.2844V72.4156L462.593 96.8496C462.005 97.3247 461.273 97.584 460.517 97.584C459.762 97.584 459.029 97.3247 458.442 96.8496L427.661 72.1931V71.2768C427.661 70.8861 427.738 70.4993 427.888 70.1383C428.038 69.7774 428.257 69.4494 428.533 69.1731C428.81 68.8969 429.138 68.6777 429.499 68.5282C429.86 68.3787 430.248 68.3018 430.638 68.3018H490.392C490.784 68.3018 491.172 68.3789 491.534 68.5289C491.896 68.6788 492.225 68.8986 492.502 69.1756C492.778 69.4526 492.998 69.7814 493.147 70.1433C493.297 70.5051 493.374 70.8929 493.373 71.2844Z" fill="#F2A825"/>
<path d="M448.594 142.683C448.361 142.683 448.138 142.59 447.973 142.426C447.808 142.261 447.715 142.037 447.715 141.804V124.553C447.715 124.32 447.808 124.097 447.973 123.932C448.138 123.767 448.361 123.675 448.594 123.675C448.827 123.676 449.05 123.769 449.214 123.933C449.378 124.098 449.47 124.321 449.47 124.553V141.823C449.466 142.053 449.372 142.271 449.208 142.432C449.044 142.593 448.824 142.683 448.594 142.683Z" fill="#CFD6F9"/>
<path d="M456.499 159.923C456.267 159.923 456.044 159.831 455.88 159.667C455.716 159.502 455.624 159.28 455.624 159.048V129.942C455.623 129.827 455.645 129.713 455.689 129.606C455.733 129.5 455.797 129.403 455.879 129.321C455.96 129.239 456.057 129.175 456.163 129.13C456.27 129.086 456.384 129.063 456.499 129.063C456.732 129.063 456.956 129.156 457.121 129.321C457.286 129.486 457.378 129.709 457.378 129.942V159.048C457.378 159.163 457.355 159.277 457.311 159.384C457.267 159.49 457.202 159.587 457.121 159.668C457.039 159.749 456.942 159.813 456.835 159.857C456.729 159.901 456.614 159.923 456.499 159.923Z" fill="#CFD6F9"/>
<path d="M456.499 124.689C456.384 124.689 456.27 124.667 456.164 124.623C456.058 124.579 455.961 124.514 455.88 124.433C455.799 124.352 455.734 124.255 455.69 124.149C455.646 124.043 455.624 123.929 455.624 123.814V118.637C455.623 118.522 455.645 118.408 455.689 118.301C455.733 118.195 455.797 118.098 455.879 118.016C455.96 117.935 456.057 117.87 456.163 117.826C456.27 117.782 456.384 117.759 456.499 117.759C456.732 117.759 456.956 117.851 457.121 118.016C457.286 118.181 457.378 118.404 457.378 118.637V123.799C457.38 123.916 457.359 124.032 457.316 124.14C457.272 124.248 457.208 124.346 457.126 124.429C457.044 124.512 456.946 124.578 456.839 124.622C456.731 124.667 456.616 124.69 456.499 124.689Z" fill="#CFD6F9"/>
<path d="M472.463 136.306C472.347 136.306 472.233 136.283 472.126 136.239C472.02 136.195 471.923 136.13 471.841 136.049C471.76 135.967 471.695 135.87 471.651 135.764C471.607 135.657 471.584 135.543 471.584 135.428V125.002C471.584 124.886 471.607 124.772 471.651 124.665C471.695 124.559 471.76 124.462 471.841 124.38C471.923 124.299 472.02 124.234 472.126 124.19C472.233 124.146 472.347 124.123 472.463 124.123C472.578 124.123 472.693 124.146 472.799 124.19C472.906 124.234 473.003 124.299 473.085 124.38C473.166 124.462 473.231 124.559 473.275 124.665C473.319 124.772 473.342 124.886 473.342 125.002V135.428C473.342 135.661 473.249 135.884 473.085 136.049C472.92 136.214 472.696 136.306 472.463 136.306Z" fill="#CFD6F9"/>
<path d="M466.019 148.58C465.786 148.58 465.563 148.488 465.398 148.324C465.233 148.16 465.14 147.938 465.139 147.706V118.637C465.139 118.404 465.232 118.181 465.397 118.016C465.562 117.851 465.785 117.759 466.019 117.759C466.252 117.759 466.475 117.851 466.64 118.016C466.805 118.181 466.898 118.404 466.898 118.637V147.706C466.898 147.821 466.875 147.935 466.831 148.041C466.786 148.148 466.722 148.244 466.64 148.325C466.558 148.407 466.461 148.471 466.355 148.515C466.248 148.559 466.134 148.581 466.019 148.58Z" fill="#CFD6F9"/>
</g>
<defs>
<clipPath id="clip0_561_3509">
<rect width="684" height="471" fill="white"/>
</clipPath>
</defs>
</svg>
