<svg width="684" height="471" viewBox="0 0 684 471" fill="none" xmlns="http://www.w3.org/2000/svg">
<g clip-path="url(#clip0_561_4060)">
<path d="M324.5 490.393C450.615 490.393 552.851 388.157 552.851 262.042C552.851 135.928 450.615 33.6914 324.5 33.6914C198.385 33.6914 96.1491 135.928 96.1491 262.042C96.1491 388.157 198.385 490.393 324.5 490.393Z" fill="#F5F5FE"/>
<path d="M410.887 374.936C395.89 380.244 377.805 379.701 364.159 370.948C350.748 362.344 338.526 356.129 322.024 356.43C307.276 356.702 295.083 364.672 280.802 366.368C269.473 367.714 257.965 362.775 249.757 354.854C241.742 347.124 236.421 335.336 239.903 324.751C241.729 319.213 245.73 314.645 247.996 309.278C253.243 296.897 239.424 289.43 242.862 276.398C245.775 265.315 257.946 257.41 257.752 245.948C257.619 237.558 251.123 231.059 248.837 223.29C246.529 215.46 247.038 206.688 251.103 199.534C254.152 194.219 258.84 190.034 264.465 187.603C269.466 185.473 275.053 185.434 278.918 181.065C285.809 173.277 288.337 164.838 297.792 159.144C305.794 154.324 316.366 154.017 325.549 154.859C345.941 156.729 365.754 167.499 377.249 184.638C381.321 190.717 384.26 196.938 384.37 204.163C384.483 212.061 384.48 220.005 389.319 226.721C393.381 232.36 399.904 235.658 406.368 238.199C412.832 240.74 419.613 242.802 425.291 246.809C430.968 250.817 435.474 257.355 434.814 264.289C434.26 270.079 430.253 275.11 429.719 280.904C428.748 291.433 438.892 299.082 445.149 307.611C453.889 319.549 455.355 336.42 448.765 349.691C441.178 364.956 427.401 368.401 412.945 374.146C412.27 374.427 411.584 374.69 410.887 374.936Z" fill="#0B2D4E"/>
<path d="M301.855 178.045C306.814 175.131 312.578 173.817 318.305 173.591C324.061 173.419 329.812 174.061 335.389 175.497C346.687 178.384 356.706 184.941 363.874 194.138C367.419 198.755 370.079 203.989 371.717 209.575C373.335 215.182 373.659 221.047 373.601 226.783C373.542 232.518 373.135 238.251 373.326 243.906C373.445 246.716 373.792 249.519 374.646 252.137C375.501 254.756 376.944 257.155 379.1 258.728C381.256 260.301 383.956 261.023 386.723 261.356C389.491 261.689 392.388 261.699 395.278 262.084C400.991 262.855 406.805 264.214 411.787 267.493C414.234 269.128 416.435 271.403 417.506 274.291C418.578 277.178 418.39 280.305 417.649 283.173C416.784 286.086 415.143 288.501 414.001 291.035C412.847 293.579 412.127 296.298 411.871 299.079C411.343 304.676 412.777 310.282 414.784 315.587C416.791 320.892 419.082 326.207 420.455 331.827C421.156 334.635 421.503 337.52 421.488 340.414C421.443 343.308 420.935 346.175 419.982 348.908C418.084 354.373 414.598 359.147 409.971 362.619C414.486 359.068 417.84 354.25 419.604 348.782C421.413 343.36 421.17 337.475 419.678 332.021C418.244 326.518 415.859 321.31 413.816 315.946C411.774 310.583 410.155 304.854 410.631 298.969C410.862 296.036 411.583 293.163 412.764 290.469C413.958 287.789 415.554 285.397 416.308 282.771C416.972 280.124 417.147 277.308 416.163 274.802C415.179 272.297 413.25 270.251 410.984 268.736C406.342 265.694 400.674 264.36 395.123 263.645C392.333 263.282 389.487 263.279 386.571 262.952C383.655 262.625 380.644 261.913 378.155 260.039C375.666 258.164 374.047 255.449 373.157 252.636C372.311 249.821 371.853 246.903 371.794 243.964C371.626 238.177 372.066 232.46 372.144 226.766C372.222 221.073 371.93 215.385 370.386 209.957C368.808 204.531 366.274 199.431 362.903 194.896C355.986 185.795 346.247 179.244 335.211 176.267C329.721 174.723 324.04 173.96 318.337 174.002C312.634 174.079 306.882 175.261 301.855 178.045Z" fill="#73B8D4"/>
<path d="M374.041 304.971C374.572 317.918 371.571 327.629 359.737 334.032C350.311 339.13 339.021 340.803 328.621 341.059C311.174 341.49 291.72 336.99 278.685 324.735C276.315 322.512 274.043 319.783 273.872 316.539C273.716 313.591 275.338 310.81 275.49 307.861C275.733 302.886 271.865 298.766 270.133 294.095C267.867 287.925 269.405 281.037 271.454 274.787C273.503 268.536 276.076 262.224 275.765 255.653C275.367 247.127 270.243 239.686 266.142 232.202C262.041 224.718 258.804 215.616 262.309 207.825C264.617 202.697 270.126 198.761 275.752 198.13C281.698 197.483 287.039 204.264 290.849 208.006C295.98 213.051 301.678 217.485 307.83 221.219C316.324 226.375 325.633 230.179 333.641 236.086C338.477 239.647 343.675 244.567 345.97 250.261C348.56 256.676 344.028 262.884 349.531 268.789C353.092 272.598 358.543 273.893 362.838 276.836C372.024 283.138 373.62 294.752 374.041 304.971Z" fill="#061F33"/>
<path d="M277.691 377.384C289.94 358.506 297.562 335.339 286.919 314.024C285.842 311.865 284.544 309.509 282.252 308.748C277.325 307.107 270.641 308.871 266.355 311.383C251.492 320.123 242.402 336.514 234.048 351.116C225.373 366.284 217.837 382.074 209.124 397.219C205.592 403.369 202.025 409.571 200.132 416.388C198.474 422.364 198.293 429.203 200.556 435.049C210.341 460.32 237.249 429.365 245.442 420.014C257.194 406.591 267.972 392.344 277.691 377.384V377.384Z" fill="#26A8D1"/>
<path d="M388.532 356.266C392.051 341.357 393.88 326.101 385.898 315.947C382.295 311.36 375.863 308.178 370.623 305.893C360.375 301.465 349.906 295.509 338.927 293.593C327.358 291.557 314.495 290.304 302.968 293.214C295.646 295.062 288.797 298.484 282.252 302.177C276.571 305.378 269.602 308.136 266.844 314.099C260.124 328.622 254.269 343.53 249.31 358.745C245.193 371.408 240.677 384.679 247.161 397.51C249.265 401.67 252.317 405.227 254.719 409.199C257.399 413.627 258.396 417.783 258.749 422.888C259.548 434.541 259.237 446.216 259.205 457.879C259.205 461.242 259.237 464.735 260.71 467.758C263.623 473.717 271.499 473.798 277.176 473.788L333.343 473.691C341.131 473.691 347.084 474.633 354.383 476.135C360.533 477.401 365.819 474.293 368.771 468.567C371.568 463.148 371.781 456.817 372.079 450.725C373.248 427.007 376.607 403.448 382.114 380.348C383.677 373.8 386.409 365.251 388.532 356.266Z" fill="#3DC8E8"/>
<path d="M345.171 312.894C349.58 305.482 350.58 296.218 344.805 289.074C342.167 285.808 337.499 285.442 333.505 285.368C325.637 285.223 317.781 286.056 310.118 287.847C302.826 289.553 295.387 292.443 292.228 299.824C289.881 305.297 290.703 311.625 293.795 316.63C296.66 321.216 301.206 324.5 306.461 325.78C314.854 327.778 324.681 327.509 332.68 324.162C337.707 322.026 342.209 317.879 345.171 312.894Z" fill="#26A8D1"/>
<path d="M395.165 424.619L394.99 390.308C394.971 386.326 397.554 362.101 391.362 362.376C390.694 362.45 390.061 362.714 389.539 363.137C386.461 365.341 384.875 369.031 383.438 372.524C378.925 383.507 375.135 401.087 365.741 408.777C356.196 416.595 341.513 419.886 329.647 421.764C315.793 423.955 301.709 424.117 287.706 424.968C278.643 425.519 268.657 426.823 262.707 433.676C258.457 438.567 256.295 445.902 254.026 451.877C252.042 457.101 250.465 463.306 254.489 468.039C256.204 470.055 258.587 471.382 260.985 472.512C269.725 476.633 279.274 478.708 288.803 480.303C315.469 484.767 342.649 485.693 369.655 484.405C375.429 484.129 381.69 483.556 385.949 479.646C389.118 476.733 390.611 472.457 391.672 468.291C395.291 454.114 395.226 439.263 395.165 424.619Z" fill="#26A8D1"/>
<path d="M267.479 229.376C257.263 239.886 266.53 265.568 282.822 261.852C300.327 257.857 297.692 230.577 281.851 226.1C275.691 224.352 270.767 225.993 267.479 229.376Z" fill="#9B87FF"/>
<path d="M406.928 373.211C417.166 374.506 427.952 373.619 437.096 368.832C448.749 362.74 454.575 351.566 454.808 338.729C454.983 329.416 453.19 319.712 447.558 312.286C441.446 304.214 431.205 299.248 427.405 289.864C424.945 283.785 425.534 275.512 430.402 270.809C433.5 267.815 435.905 264.438 435.526 259.952C434.94 253.349 430.111 247.004 424.715 243.444C416.804 238.216 406.963 236.303 397.706 235.128C391.436 234.332 385.189 232.568 383.25 225.816C382.201 222.174 382.408 218.332 382.214 214.587C381.797 206.605 381.211 198.619 380.019 190.708C378.644 181.59 372.723 172.772 366.12 166.49C365.173 165.588 364.19 164.724 363.171 163.9C346.145 150.108 314.618 145.22 295.844 158.002C292.666 160.148 289.943 162.901 287.832 166.102C285.721 169.303 284.264 172.89 283.543 176.657C282.592 181.752 281.21 182.849 276.231 184.393C267.187 187.199 256.923 189.193 249.74 195.826C244.121 201.005 241.538 208.874 242.296 216.412C243.267 226.036 249.98 230.655 254.796 238.271C259.717 246.04 255.848 255.854 250.135 262.283C245.736 267.232 239.492 270.844 237.006 276.985C234.721 282.63 236.236 289.159 238.997 294.587C240.117 296.788 241.431 298.889 242.422 301.151C243.906 304.614 244.602 308.363 244.461 312.128C244.319 315.892 243.343 319.578 241.603 322.92" stroke="#0B2D4E" stroke-width="4" stroke-miterlimit="10"/>
<path d="M435.953 388.12C439.084 393.767 442.184 399.434 445.253 405.12C451.455 416.676 462.968 442.345 444.534 448.696C435.244 451.894 429.933 448.767 423.792 442.002C400.538 416.361 380.789 387.749 365.062 356.913C359.235 345.451 343.698 315.587 362.55 308.764C365.539 307.701 368.717 307.272 371.881 307.503C375.045 307.735 378.126 308.621 380.929 310.107C383.476 311.48 385.736 313.325 387.895 315.251C401.49 327.376 411.175 343.02 419.788 358.891C425.11 368.679 430.56 378.38 435.953 388.12Z" fill="#3DC8E8"/>
<path d="M329.193 316.675C334.803 314.875 339.425 311.386 341.17 305.844C342.74 300.811 340.264 295.162 339.823 290.077C339.398 285.211 339.345 280.32 339.665 275.446C339.959 270.941 340.39 266.25 339.697 261.761C339.306 259.194 337.894 259.634 335.298 258.615C332.702 257.595 329.796 257.585 326.973 257.592C321.198 257.592 306.143 257.187 302.573 262.256C300.935 264.58 300.806 267.51 300.728 270.277C300.634 273.624 300.042 277.952 299.495 282.619C299.252 284.694 299.401 286.766 299.084 288.828C298.728 291.139 297.851 293.36 297.083 295.564C294.17 303.931 296.899 311.888 305.946 315.72C312.439 318.468 321.707 319.08 329.193 316.675Z" fill="#F8A17A"/>
<path d="M339.668 261.761C339.276 259.194 337.865 259.634 335.269 258.615C332.673 257.595 329.766 257.585 326.944 257.592C321.169 257.592 306.114 257.187 302.544 262.256C300.906 264.58 300.777 267.51 300.699 270.277C300.605 273.621 300.013 277.952 299.466 282.619C299.223 284.694 299.372 286.766 299.055 288.828C298.734 290.585 298.252 292.309 297.614 293.978C303.293 296.098 309.474 296.482 315.372 295.081C325.895 292.492 333.861 285.947 339.542 277.431C339.574 276.783 339.59 276.107 339.636 275.446C339.93 270.944 340.361 266.25 339.668 261.761Z" fill="#E5785C"/>
<path d="M348.052 228.793C348.006 221.083 346.941 213.768 344.957 207.692C336.399 181.473 303.706 174.999 284.019 193.822C262.063 214.8 270.466 264.963 293.587 282.597C296.706 284.936 300.312 286.543 304.136 287.296C307.961 288.05 311.907 287.932 315.679 286.951C338.403 280.843 348.197 252.882 348.052 228.793Z" fill="#F8A17A"/>
<path d="M343.76 229.441C353.817 223.938 356.914 237.857 355.183 244.796C354.467 247.658 353.338 250.451 351.561 252.808C349.168 255.977 342.326 261.224 338.383 257.77C336.593 256.194 336.409 253.52 336.354 251.138C336.201 244.748 336.939 233.169 343.76 229.441Z" fill="#F8A17A"/>
<path d="M310.996 275.314C308.504 275.313 306.016 275.131 303.551 274.767L303.994 271.75C312.841 273.105 321.892 271.84 330.029 268.112C332.008 267.218 333.895 266.134 335.664 264.875C338.624 262.724 341.107 259.986 342.96 256.831L345.592 258.372C343.525 261.891 340.753 264.946 337.451 267.345C335.521 268.72 333.461 269.904 331.301 270.879C324.935 273.816 318.006 275.329 310.996 275.314Z" fill="#8070F2"/>
<path d="M294.743 269.345C298.42 266.189 306.6 266.457 309.309 269.736C311.31 272.164 310.698 275.239 308.497 277.301C305.907 279.729 302.67 279.589 299.433 278.855C295.348 277.939 290.312 273.148 294.743 269.345Z" fill="#8070F2"/>
<path d="M348.104 208.773C339.092 181.178 304.671 174.364 283.945 194.168C279.365 198.544 276.06 204.138 273.862 210.417C274.342 211.171 274.876 211.89 275.461 212.566C278.303 215.862 282.229 218.014 286.178 219.84C297.718 225.174 310.154 228.304 322.648 230.645C323.568 230.816 324.494 230.988 325.419 231.169C328.857 231.849 332.272 232.697 335.276 234.467C343.766 239.472 340.131 250.48 346.336 255.303C346.849 255.701 347.423 256.011 348.036 256.223C350.3 248 351.418 239.504 351.36 230.975C351.311 222.87 350.191 215.166 348.104 208.773Z" fill="#E5785C"/>
<path d="M326.309 228.02C329.595 229.237 332.832 230.609 335.515 232.846C343.099 239.142 337.736 249.426 343.109 255.181C347.867 260.279 355.086 253.543 356.989 248.833C360.478 240.158 360.271 230.503 360.015 221.154C359.873 215.943 359.718 210.657 358.19 205.669C356.523 200.231 353.273 195.379 349.408 191.206C338.244 179.162 321.399 172.899 305.088 173.928C292.332 174.731 269.958 185.448 279.957 201.675C282.239 205.381 285.783 208.129 289.38 210.563C299.919 217.684 311.695 222.744 323.658 227.046C324.539 227.376 325.426 227.693 326.309 228.02Z" fill="#0B2D4E"/>
<path d="M347.968 225.478C333.77 229.12 328.284 255.867 344.122 261.191C361.142 266.911 373.122 242.262 361.951 230.185C357.607 225.475 352.551 224.307 347.968 225.478Z" fill="#9B87FF"/>
<path d="M352.635 228.91C342.834 230.486 336.797 251.309 346.896 257.039C357.75 263.189 367.936 244.654 361.55 233.976C359.06 229.81 355.788 228.405 352.635 228.91Z" fill="#8070F2"/>
<path d="M354.613 227.349L350.826 226.912C353.396 204.713 352.302 176.352 332.502 167.291C323.115 163.003 296.274 158.244 284.456 174.189C283.035 175.788 282.084 177.125 282.084 177.125C289.412 154.512 323.966 159.196 334.088 163.825C355.969 173.836 357.325 203.898 354.613 227.349Z" fill="#9B87FF"/>
<path d="M283.553 436.907H205.699V452.15H283.553V436.907Z" fill="#B8D1CE"/>
<path d="M219.058 438.383L199.41 338.363C199.155 337.084 198.465 335.934 197.456 335.107C196.448 334.281 195.185 333.83 193.881 333.831H63.2654C62.3802 333.832 61.5078 334.042 60.72 334.446C59.9321 334.849 59.2513 335.434 58.7337 336.152L58.7175 336.136L52.6839 343.257L58.0345 342.082L77.3847 440.558C77.6395 441.837 78.3298 442.987 79.338 443.814C80.3462 444.64 81.6098 445.091 82.9134 445.09H213.532C214.363 445.09 215.183 444.905 215.934 444.551C216.685 444.196 217.348 443.68 217.876 443.039C218.404 442.398 218.784 441.648 218.988 440.843C219.192 440.038 219.216 439.198 219.058 438.383V438.383Z" fill="#B8D1CE"/>
<path d="M76.9413 452.147H207.56C208.392 452.147 209.213 451.963 209.965 451.608C210.717 451.253 211.381 450.736 211.91 450.094C212.438 449.451 212.818 448.7 213.021 447.894C213.224 447.087 213.246 446.246 213.086 445.43L193.438 345.41C193.183 344.131 192.493 342.981 191.484 342.154C190.476 341.328 189.213 340.877 187.909 340.878H57.2933C56.4612 340.878 55.6394 341.062 54.887 341.417C54.1345 341.772 53.4701 342.289 52.9415 342.932C52.4128 343.574 52.0331 344.326 51.8297 345.133C51.6262 345.94 51.604 346.781 51.7646 347.598L71.4127 447.618C71.6681 448.896 72.3586 450.046 73.3668 450.872C74.3749 451.697 75.6382 452.148 76.9413 452.147V452.147Z" fill="white"/>
<path d="M118.027 394.021C119.231 400.77 125.679 406.237 132.425 406.237C139.171 406.237 143.589 400.77 142.288 394.021C140.987 387.272 134.539 381.805 127.887 381.805C121.235 381.805 116.82 387.275 118.027 394.021Z" fill="#B8D1CE"/>
<path d="M492.945 392.428C494.386 389.45 494.127 386.323 493.221 383.485C492.347 380.571 490.79 378.089 489.103 375.357C487.417 372.625 485.659 369.728 484.594 366.193C483.529 362.658 483.824 358.615 484.818 355.226C486.964 348.312 491.356 343.218 494.383 338.006C495.901 335.371 497.14 332.691 497.62 329.726C498.17 326.793 497.982 323.667 496.538 320.718C499.041 322.906 500.251 326.45 500.423 329.885C500.594 333.319 499.704 336.873 498.374 339.968C495.745 346.244 491.809 351.342 490.281 356.851C489.414 359.58 489.2 362.221 489.815 364.866C490.333 367.578 491.758 370.317 493.026 373.282C494.379 376.195 495.674 379.532 495.962 382.976C496.25 386.369 495.473 390.204 492.945 392.428Z" fill="white"/>
<path d="M474.88 396.213H513.697V443.721C513.697 445.867 512.845 447.926 511.327 449.443C509.809 450.961 507.751 451.813 505.605 451.813H482.972C480.826 451.813 478.768 450.961 477.25 449.443C475.733 447.926 474.88 445.867 474.88 443.721V396.213Z" fill="#9B87FF"/>
<path d="M516.407 408.804C507.1 408.804 499.552 416.459 499.552 425.904C499.552 435.35 507.1 443.005 516.407 443.005C525.713 443.005 533.261 435.35 533.261 425.904C533.261 416.459 525.716 408.804 516.407 408.804ZM516.407 436.907C510.418 436.907 505.563 431.98 505.563 425.901C505.563 419.822 510.418 414.896 516.407 414.896C522.395 414.896 527.25 419.822 527.25 425.901C527.25 431.98 522.395 436.907 516.407 436.907Z" fill="#9B87FF"/>
<path opacity="0.2" d="M480.681 430.724C480.125 430.723 479.593 430.501 479.2 430.108C478.807 429.715 478.585 429.183 478.583 428.627V401.566C478.585 401.01 478.807 400.478 479.2 400.085C479.593 399.692 480.125 399.47 480.681 399.469V399.469C481.237 399.47 481.769 399.692 482.162 400.085C482.555 400.478 482.777 401.01 482.778 401.566V428.627C482.777 429.183 482.555 429.715 482.162 430.108C481.769 430.501 481.237 430.723 480.681 430.724V430.724Z" fill="white"/>
<path d="M504.731 396.229V441.998C504.731 444.606 503.695 447.106 501.852 448.95C500.008 450.793 497.508 451.829 494.901 451.829H503.867C506.474 451.829 508.974 450.793 510.818 448.95C512.662 447.106 513.697 444.606 513.697 441.998V396.229H504.731Z" fill="#8070F2"/>
<path d="M409.323 202.804L541.813 202.804C549.143 202.804 555.084 196.862 555.084 189.532V119.505C555.084 112.176 549.143 106.234 541.813 106.234L409.323 106.234C401.994 106.234 396.052 112.176 396.052 119.505V189.532C396.052 196.862 401.994 202.804 409.323 202.804Z" fill="#FFC73C"/>
<path d="M416.982 228.224V183.846L451.736 202.804L416.982 228.224Z" fill="#FFC73C"/>
<path d="M496.088 150.44H423.187C421.578 150.44 420.274 151.745 420.274 153.354V155.953C420.274 157.562 421.578 158.866 423.187 158.866H496.088C497.697 158.866 499.002 157.562 499.002 155.953V153.354C499.002 151.745 497.697 150.44 496.088 150.44Z" fill="white"/>
<path d="M527.946 150.44H507.968C506.359 150.44 505.055 151.745 505.055 153.354V155.953C505.055 157.562 506.359 158.866 507.968 158.866H527.946C529.555 158.866 530.859 157.562 530.859 155.953V153.354C530.859 151.745 529.555 150.44 527.946 150.44Z" fill="white"/>
<path d="M455.044 139.736H527.946C529.555 139.736 530.859 138.432 530.859 136.823V134.224C530.859 132.615 529.555 131.311 527.946 131.311H455.044C453.436 131.311 452.131 132.615 452.131 134.224V136.823C452.131 138.432 453.436 139.736 455.044 139.736Z" fill="white"/>
<path d="M423.184 139.736H443.162C444.771 139.736 446.075 138.432 446.075 136.823V134.224C446.075 132.615 444.771 131.311 443.162 131.311H423.184C421.575 131.311 420.27 132.615 420.27 134.224V136.823C420.27 138.432 421.575 139.736 423.184 139.736Z" fill="white"/>
<path d="M472.653 167.933H423.187C421.578 167.933 420.274 169.237 420.274 170.846V173.445C420.274 175.054 421.578 176.358 423.187 176.358H472.653C474.262 176.358 475.566 175.054 475.566 173.445V170.846C475.566 169.237 474.262 167.933 472.653 167.933Z" fill="white"/>
<path d="M548.549 230.16C544.988 230.14 541.531 229.68 539.091 226.188C534.3 219.329 526.991 213.172 518.795 220.148C514.066 224.168 517.62 232.448 513.552 236.423C509.955 239.941 505.378 239.362 503.537 245.205C500.831 253.799 509.363 261.328 512.101 268.76C514.4 274.997 509.23 277.373 506.922 282.232C505.132 285.98 506.052 290 508.004 293.561C511.444 299.876 519.071 304.961 517.303 313.141C515.83 319.964 514.458 326.046 520.482 331.222C524.609 334.783 532.267 337.997 531.685 344.562C531.478 346.886 529.872 348.863 529.419 351.155C528.72 354.777 531.066 358.305 533.792 360.791C539.997 366.45 545.445 371.797 550.09 378.918C552.074 381.961 560.024 388.83 556.845 392.989C562.62 385.428 568.721 378.099 573.968 370.149C578.283 363.611 584.789 354.049 580.361 345.999C578.982 343.493 576.422 341.626 575.72 338.855C574.454 333.854 579.371 329.215 581.196 324.959C584.068 318.275 581.96 310.513 576.908 305.495C574.516 303.123 571.92 300.514 571.57 297.16C571.185 293.503 573.48 290.091 574.519 286.715C575.46 283.565 576.099 280.333 576.429 277.062C576.675 274.78 576.772 272.446 576.234 270.213C575.211 265.969 571.379 263.61 568.56 260.596C561.824 253.426 565.365 244.998 562.409 236.662C559.781 229.188 554.042 230.195 548.549 230.16Z" fill="#3DC8E8"/>
<path d="M557.564 401.518C560.066 372.852 557.768 343.956 552.472 315.724C547.419 288.79 540.79 261.765 530.736 236.235C527.434 227.788 523.664 219.531 519.446 211.502" stroke="#26A8D1" stroke-width="5" stroke-miterlimit="10"/>
<path d="M496.814 249.943C510.943 254.935 524.364 261.739 536.741 270.187C539.874 272.327 541.622 272.984 544.234 275.735" stroke="#26A8D1" stroke-width="5" stroke-miterlimit="10"/>
<path d="M550.922 306.45C537.327 297.677 522.074 291.789 506.11 289.152" stroke="#26A8D1" stroke-width="5" stroke-miterlimit="10"/>
<path d="M556.282 343.432C543.602 332.47 528.393 324.835 512.027 321.217" stroke="#26A8D1" stroke-width="5" stroke-miterlimit="10"/>
<path d="M543.535 274.793C544.527 259.58 548.282 244.674 554.615 230.807" stroke="#26A8D1" stroke-width="5" stroke-miterlimit="10"/>
<path d="M550.753 305.201C557.19 291.457 566.378 279.18 577.749 269.129" stroke="#26A8D1" stroke-width="5" stroke-miterlimit="10"/>
<path d="M557.12 344.484C558.009 340.242 559.556 336.165 561.704 332.401C564.2 328.034 567.462 324.16 570.787 320.382C573.18 317.663 575.614 314.98 578.089 312.332" stroke="#26A8D1" stroke-width="5" stroke-miterlimit="10"/>
<path d="M592.289 282.416C594.879 282.892 597.449 283.037 599.702 280.843C604.123 276.531 610.28 273.074 615.262 279.269C618.133 282.83 614.41 288.352 616.809 291.803C618.932 294.852 622.331 295.062 622.859 299.571C623.632 306.181 616.385 310.464 613.384 315.474C610.856 319.682 614.278 322.12 615.288 325.965C616.068 328.93 614.844 331.714 612.934 334.057C609.565 338.162 603.327 340.793 603.476 346.969C603.602 352.126 603.754 356.729 598.669 359.645C595.186 361.649 589.182 362.931 588.696 367.773C588.525 369.485 589.418 371.146 589.418 372.868C589.418 375.59 587.233 377.824 584.912 379.251C579.63 382.488 574.94 385.615 570.583 390.137C568.721 392.079 562.005 395.963 563.733 399.41C560.594 393.124 557.182 386.961 554.476 380.471C552.249 375.13 548.857 367.297 553.181 362.066C554.528 360.448 556.645 359.441 557.535 357.535C559.153 354.078 556.24 350.035 555.489 346.694C554.33 341.447 556.933 336.11 561.293 333.17C563.358 331.779 565.601 330.257 566.32 327.862C567.103 325.272 565.912 322.469 565.624 319.876C565.379 317.462 565.363 315.03 565.575 312.613C565.711 310.923 565.967 309.214 566.666 307.67C567.993 304.734 571.091 303.549 573.561 301.756C579.439 297.49 578.037 290.883 581.329 285.248C584.278 280.153 588.302 281.678 592.289 282.416Z" fill="#26A8D1"/>
<path d="M562.034 405.463C564.187 384.323 569.854 363.681 577.604 343.933C584.997 325.097 593.545 306.411 604.373 289.284C607.936 283.613 611.813 278.145 615.984 272.905" stroke="#3DC8E8" stroke-width="5" stroke-miterlimit="10"/>
<path d="M627.08 303.925C616.139 305.587 605.462 308.665 595.316 313.082C592.746 314.199 591.389 314.432 589.114 316.07" stroke="#3DC8E8" stroke-width="5" stroke-miterlimit="10"/>
<path d="M580.009 337.42C591.085 332.939 602.964 330.779 614.909 331.076" stroke="#3DC8E8" stroke-width="5" stroke-miterlimit="10"/>
<path d="M570.991 363.519C581.707 357.325 593.796 353.894 606.169 353.533" stroke="#3DC8E8" stroke-width="5" stroke-miterlimit="10"/>
<path d="M589.765 315.481C591.15 304.311 590.492 292.983 587.822 282.05" stroke="#3DC8E8" stroke-width="5" stroke-miterlimit="10"/>
<path d="M580.306 336.536C577.54 325.676 572.575 315.5 565.718 306.637" stroke="#3DC8E8" stroke-width="5" stroke-miterlimit="10"/>
<path d="M570.249 364.167C570.192 360.971 569.635 357.803 568.598 354.78C567.394 351.264 565.562 348.005 563.675 344.803C562.311 342.499 560.916 340.216 559.49 337.954" stroke="#3DC8E8" stroke-width="5" stroke-miterlimit="10"/>
<path d="M536.886 398.142H589.739L580.468 451.036H546.16L536.886 398.142Z" fill="#EFB126"/>
<path d="M530.416 398.142H596.209V383.294H530.416V398.142Z" fill="#FFC73C"/>
<path opacity="0.1" d="M588.512 405.156H538.116L536.886 398.142H589.739L588.512 405.156Z" fill="#231F20"/>
<path d="M345.271 428.452C346.857 428.18 348.446 427.919 350.036 427.669C357.768 426.456 365.467 425.017 373.135 423.351C388.306 420.053 403.561 417.217 419.011 415.754C420.649 415.602 422.287 415.459 423.925 415.336C430.849 414.815 438.106 414.644 444.444 417.955C450.782 421.266 455.821 429.097 454.274 436.648C453.187 441.954 449.131 445.945 444.622 447.958C440.113 449.971 435.154 450.321 430.285 450.651L382.978 453.83C375.171 454.35 367.364 454.889 359.559 455.448C352.114 455.969 344.537 457.021 337.063 457.015C333.9 457.015 330.369 456.416 327.711 454.309C324.018 451.373 321.794 445.129 321.438 440.251C321.25 437.716 321.762 434.641 323.704 433.071C324.743 432.233 326.063 431.977 327.336 431.741C333.311 430.624 339.273 429.475 345.271 428.452Z" fill="#3DC8E8"/>
<path d="M327.575 452.48C323.762 453.266 320.778 456.616 316.984 457.736C314.278 458.536 311.378 458.109 308.775 457.134C306.383 456.234 303.949 455.755 301.492 454.969C299.579 454.357 296.993 453.065 294.937 453.493C289.548 454.616 284.171 458.452 279.287 460.938C278.186 461.498 276.985 462.074 275.772 461.844C274.558 461.614 273.551 460.148 274.241 459.125C272.836 460.436 270.975 463.064 268.705 462.038C267.78 461.621 267.22 460.394 267.734 459.517C266.954 460.371 266.135 461.255 265.057 461.679C263.98 462.103 262.571 461.918 261.937 460.951C261.663 460.476 261.52 459.938 261.523 459.39C261.429 457.519 261.995 455.671 262.775 453.969C266.624 445.572 275.325 439.341 282.731 434.337C284.026 433.453 285.376 432.556 286.887 432.094C288.24 431.679 289.674 431.634 291.095 431.627C300.3 431.596 309.447 433.083 318.169 436.026C320.049 436.674 322.124 436.12 323.995 435.767C325.384 435.508 326.837 435.25 328.203 435.644C329.721 436.091 330.899 437.292 331.825 438.577C333.525 440.937 334.826 444.08 334.622 447.029C334.47 449.294 334.298 451.709 331.65 452.182C330.576 452.373 329.469 452.253 328.384 452.366C328.113 452.39 327.843 452.428 327.575 452.48V452.48Z" fill="#F8A17A"/>
<path d="M606.855 470.639H46.8316C41.1282 470.639 36.5026 466.23 36.5026 460.792C36.5026 455.354 41.1282 450.945 46.8316 450.945H606.855C612.559 450.945 617.184 455.354 617.184 460.792C617.184 466.23 612.559 470.639 606.855 470.639Z" fill="#DBCDFE"/>
<path d="M169.824 119.305H148.898C144.608 119.314 140.497 121.022 137.464 124.055C134.431 127.089 132.723 131.2 132.713 135.489V135.489C132.718 138.109 133.359 140.688 134.58 143.005C135.801 145.322 137.566 147.308 139.724 148.793V160.174L151.377 151.661H169.828C174.117 151.651 178.228 149.943 181.261 146.91C184.295 143.877 186.003 139.766 186.012 135.476V135.476C185.999 131.188 184.289 127.08 181.256 124.05C178.222 121.019 174.112 119.313 169.824 119.305Z" fill="#DBCDFE"/>
<path d="M147.645 137.93C149 137.93 150.099 136.831 150.099 135.476C150.099 134.121 149 133.022 147.645 133.022C146.29 133.022 145.192 134.121 145.192 135.476C145.192 136.831 146.29 137.93 147.645 137.93Z" fill="white"/>
<path d="M159.363 137.93C160.718 137.93 161.816 136.831 161.816 135.476C161.816 134.121 160.718 133.022 159.363 133.022C158.008 133.022 156.909 134.121 156.909 135.476C156.909 136.831 158.008 137.93 159.363 137.93Z" fill="white"/>
<path d="M171.08 137.93C172.435 137.93 173.534 136.831 173.534 135.476C173.534 134.121 172.435 133.022 171.08 133.022C169.725 133.022 168.627 134.121 168.627 135.476C168.627 136.831 169.725 137.93 171.08 137.93Z" fill="white"/>
<path d="M486.057 260.965C482.82 255.446 474.689 252.675 466.817 261.871C458.948 252.675 450.807 255.446 447.58 260.965C439.634 274.56 466.817 290.57 466.817 290.57C466.817 290.57 494.004 274.566 486.057 260.965Z" fill="#DBCDFE"/>
<path d="M302.424 90.1465H261.976C259.831 90.1465 258.092 91.8855 258.092 94.0308V118.434C258.092 120.579 259.831 122.318 261.976 122.318H302.424C304.57 122.318 306.309 120.579 306.309 118.434V94.0308C306.309 91.8855 304.57 90.1465 302.424 90.1465Z" fill="#DBCDFE"/>
<path d="M258.872 91.1797L279.993 111.65C280.593 112.215 281.387 112.53 282.211 112.53C283.036 112.53 283.83 112.215 284.43 111.65L305.541 91.1797" stroke="white" stroke-width="4" stroke-miterlimit="10"/>
<path d="M258.872 121.283L276.192 107.976" stroke="white" stroke-width="4" stroke-miterlimit="10"/>
<path d="M305.532 121.283L288.211 107.976" stroke="white" stroke-width="4" stroke-miterlimit="10"/>
<path d="M220.42 209.174H172.488C170.343 209.174 168.604 210.913 168.604 213.058V243.977C168.604 246.122 170.343 247.861 172.488 247.861H220.42C222.566 247.861 224.305 246.122 224.305 243.977V213.058C224.305 210.913 222.566 209.174 220.42 209.174Z" fill="#DBCDFE"/>
<path d="M196.451 260.088L206.217 246.917H186.685L196.451 260.088Z" fill="#DBCDFE"/>
<path d="M211.105 233.493H208.696V226.896L208.719 225.812L208.758 224.627C208.36 225.028 208.081 225.291 207.926 225.414L206.615 226.469L205.453 225.019L209.127 222.105H211.105V233.493Z" fill="white"/>
<path d="M193.243 221.711H185.339C183.72 221.715 182.168 222.36 181.023 223.504C179.878 224.649 179.233 226.2 179.228 227.819V227.819C179.229 228.809 179.471 229.784 179.933 230.659C180.395 231.535 181.063 232.285 181.879 232.846V237.148L186.274 233.93H193.243C194.863 233.926 196.415 233.281 197.56 232.136C198.705 230.99 199.35 229.438 199.355 227.819V227.819C199.35 226.2 198.704 224.649 197.559 223.504C196.414 222.36 194.862 221.715 193.243 221.711V221.711Z" fill="white"/>
<path d="M649 470.639H0V560H649V470.639Z" fill="white"/>
<path d="M53.0335 17.7986C52.7098 15.9406 55.186 12.1955 57.8694 12.2538C58.9344 12.2797 59.9799 12.5548 61.0448 12.503C63.8836 12.3638 65.3564 10.153 66.4505 8.32416C67.5445 6.4953 69.723 4.40426 72.5067 4.87037C76.4913 5.53717 78.4982 10.7971 83.0267 6.84812C85.9917 4.25859 86.215 0.652682 89.5717 -1.85269C91.8764 -3.57148 95.6215 -4.59112 98.7127 -3.63946C102.743 -2.39973 104.241 1.59786 108.537 2.29055C113.292 3.06094 116.71 -0.554691 118.228 -3.16364C120.07 -6.32934 120.753 -9.75074 122.329 -12.9715C123.789 -15.9559 126.728 -19.9502 131.988 -19.8628C136.436 -19.7884 138.397 -16.9723 140.582 -14.7356C143.421 -11.8224 149.322 -1.38981 155.941 -2.64573C158.531 -3.13774 159.826 -5.18671 162.14 -6.10599C165.885 -7.58202 170.656 -5.55248 172.912 -3.00179C175.168 -0.45111 176.062 2.63043 178.613 5.04193C179.306 5.74283 180.164 6.2582 181.108 6.54062C184.669 7.51169 187.983 4.51755 191.79 4.2942C193.006 4.25194 194.218 4.45997 195.351 4.90542C196.483 5.35086 197.512 6.02422 198.374 6.88373C199.889 8.38889 200.711 10.1724 201.87 11.8233C202.184 12.3348 202.62 12.7607 203.139 13.063C204.812 13.9596 207.165 13.2022 209.214 12.8526C214.274 11.9786 220.026 14.3027 221.453 17.7953L53.0335 17.7986Z" fill="#F5F5FE"/>
</g>
<defs>
<clipPath id="clip0_561_4060">
<rect width="684" height="471" fill="white"/>
</clipPath>
</defs>
</svg>
