<svg width="1098" height="37" viewBox="0 0 1098 37" fill="none" xmlns="http://www.w3.org/2000/svg">
<path d="M41.1777 20.9332C41.6522 20.9332 42.0589 20.6481 42.1945 20.149L45.3124 12.022L51.0059 35.9751C51.1415 36.5454 51.5482 36.8306 52.0904 36.9019C52.5649 36.8306 53.0394 36.4741 53.1072 35.9751L58.6652 6.6754L61.8509 20.0064C61.9864 20.5054 62.4609 20.9332 62.8676 20.9332L1087.9 20.9331C1088.24 20.9331 1088.44 20.6481 1088.44 20.3628V19.2222C1088.44 18.8657 1088.24 18.6519 1087.9 18.6519H63.7488L59.6141 1.25744C59.4786 0.687133 59.0719 0.401978 58.5296 0.401978C58.0551 0.401977 57.5807 0.758421 57.5129 1.25744L51.9549 30.5572L46.6002 8.10117C46.4647 7.60215 46.058 7.24571 45.6512 7.24571C45.109 7.17442 44.7024 7.45958 44.5668 7.95859L40.5 18.6519H9.66722C9.39609 18.6519 9.12497 18.8657 9.12497 19.2222L9.12497 20.3628C9.12497 20.6481 9.39609 20.9332 9.66722 20.9332H41.1777Z" fill="#0071B9"/>
</svg>
