<svg width="135" height="101" viewBox="0 0 135 101" fill="none" xmlns="http://www.w3.org/2000/svg">
<path d="M114.21 7.30826C112.641 6.2246 110.23 6.40906 108.845 7.67719L99.9025 15.8508C98.5062 17.142 98.6217 19.1133 100.145 20.22C100.145 20.22 113.933 30.3188 113.933 52.0383C113.933 73.7579 99.4178 84.479 99.4178 84.479C97.9408 85.6895 97.8946 87.7186 99.2909 88.9983L108.153 97.0449C109.537 98.3133 111.972 98.4976 113.541 97.4255C113.541 97.4255 134.357 83.2918 134.357 52.1191C134.357 20.9463 114.222 7.33134 114.222 7.33134" fill="#FF3D00"/>
<path d="M28.0623 58.1722C28.0623 58.1722 25.4776 57.9301 25.4776 59.9935C25.4776 71.764 34.27 80.1337 48.0472 80.1337C58.2938 80.1337 62.667 77.7011 68.8631 73.0667C70.3057 71.9832 71.8286 70.98 73.0172 72.2483C73.8249 73.1245 84.6944 83.1424 84.6944 83.1424C86.0559 84.4108 85.6866 85.9323 84.2213 87.166C82.779 88.3879 66.5324 101 47.8627 101C23.4237 101 0 90.3824 0 50.402C0 18.1918 18.2774 0 45.0703 0C73.8711 0 90.1521 20.0824 90.1521 47.1741V54.0335C90.1521 56.8234 87.879 58.1836 86.0099 58.1836H28.0623V58.1722ZM62.3554 30.7C59.5976 24.8321 53.8283 20.4629 45.0933 20.4629C36.3586 20.4629 30.6123 24.8321 27.8199 30.7C26.2161 34.2968 25.6275 36.9599 25.4314 41.3062H64.7555C64.5591 36.9599 63.9478 34.3084 62.367 30.7" fill="#002EFF"/>
</svg>
