<svg width="73" height="55" viewBox="0 0 73 55" fill="none" xmlns="http://www.w3.org/2000/svg">
<path d="M61.8326 4.37991C60.9628 3.79976 59.6261 3.89851 58.8585 4.57742L53.9016 8.95325C53.1277 9.6445 53.1917 10.6999 54.0358 11.2924C54.0358 11.2924 61.6791 16.6989 61.6791 28.3267C61.6791 39.9545 53.633 45.6942 53.633 45.6942C52.8143 46.3422 52.7886 47.4285 53.5626 48.1136L58.4747 52.4215C59.2422 53.1005 60.5918 53.1991 61.4616 52.6252C61.4616 52.6252 73 45.0585 73 28.3699C73 11.6812 61.839 4.39226 61.839 4.39226" fill="white"/>
<path d="M15.2526 31.6779C15.2526 31.6779 13.8478 31.5461 13.8478 32.6697C13.8478 39.0794 18.6267 43.6371 26.1149 43.6371C31.6842 43.6371 34.0611 42.3125 37.4289 39.7888C38.213 39.1988 39.0407 38.6525 39.6867 39.3431C40.1257 39.8203 46.0336 45.2756 46.0336 45.2756C46.7736 45.9663 46.5729 46.7948 45.7765 47.4666C44.9925 48.132 36.1621 55 26.0146 55C12.7314 55 0 49.2181 0 27.4467C0 9.90641 9.93423 0 24.4969 0C40.1509 0 49 10.936 49 25.6889V29.4242C49 30.9434 47.7645 31.6841 46.7486 31.6841H15.2526V31.6779ZM33.8918 16.7178C32.3928 13.5224 29.2571 11.1431 24.5094 11.1431C19.7618 11.1431 16.6386 13.5224 15.1209 16.7178C14.2491 18.6765 13.9292 20.1267 13.8226 22.4935H35.1963C35.0896 20.1267 34.7573 18.6828 33.8981 16.7178" fill="white"/>
</svg>
