<svg width="34" height="34" viewBox="0 0 34 34" fill="none" xmlns="http://www.w3.org/2000/svg">
<path d="M15.4699 11.9418C15.1435 12.3089 14.9599 12.8155 14.9599 13.3241C14.9599 13.5886 14.8525 13.8423 14.6612 14.0293C14.4699 14.2164 14.2104 14.3215 13.9399 14.3215C13.6694 14.3215 13.4099 14.2164 13.2187 14.0293C13.0274 13.8423 12.9199 13.5886 12.9199 13.3241C12.9199 12.3807 13.2484 11.3893 13.9399 10.6233C14.6478 9.83746 15.6943 9.33481 16.9999 9.33481C18.3055 9.33481 19.352 9.83746 20.0599 10.6233C20.7515 11.3913 21.0799 12.3786 21.0799 13.3241C21.0799 14.3015 20.8433 15.0595 20.4638 15.6978C20.1313 16.2543 19.6968 16.6951 19.352 17.0482L19.2664 17.1339C18.8869 17.5229 18.5952 17.84 18.381 18.239C18.177 18.6199 18.0199 19.1246 18.0199 19.8926C18.0199 20.1571 17.9125 20.4107 17.7212 20.5978C17.5299 20.7848 17.2704 20.8899 16.9999 20.8899C16.7294 20.8899 16.4699 20.7848 16.2787 20.5978C16.0874 20.4107 15.9799 20.1571 15.9799 19.8926C15.9799 18.8314 16.2043 18.0036 16.5736 17.3135C16.9346 16.6413 17.41 16.1485 17.7935 15.7556L17.8384 15.7097C18.2219 15.3168 18.4952 15.0376 18.7013 14.6925C18.8951 14.3674 19.0399 13.9564 19.0399 13.3241C19.0399 12.8155 18.8584 12.3068 18.5299 11.9418C18.2178 11.5968 17.7343 11.3295 16.9999 11.3295C16.2655 11.3295 15.782 11.5968 15.4699 11.9418ZM16.9999 25.715C17.1919 25.7221 17.3833 25.6913 17.5628 25.6243C17.7422 25.5574 17.906 25.4558 18.0443 25.3255C18.1827 25.1953 18.2928 25.039 18.368 24.8662C18.4432 24.6934 18.4819 24.5075 18.4819 24.3197C18.4819 24.1319 18.4432 23.946 18.368 23.7732C18.2928 23.6004 18.1827 23.4442 18.0443 23.3139C17.906 23.1837 17.7422 23.082 17.5628 23.0151C17.3833 22.9482 17.1919 22.9173 16.9999 22.9245C16.6212 22.9245 16.258 23.0716 15.9902 23.3334C15.7223 23.5952 15.5719 23.9504 15.5719 24.3207C15.5719 24.691 15.7223 25.0461 15.9902 25.308C16.258 25.5699 16.6212 25.717 16.9999 25.717V25.715ZM0.679949 17.3135C0.68084 13.8264 1.84987 10.4357 4.00824 7.65976C6.16662 4.88389 9.1955 2.87571 12.6317 1.94236C16.0678 1.009 19.722 1.20188 23.0355 2.49147C26.3489 3.78107 29.1392 6.09639 30.9794 9.08334C32.8196 12.0702 33.6085 15.5644 33.2255 19.0312C32.8425 22.498 31.3086 25.7468 28.8585 28.2806C26.4083 30.8144 23.1768 32.4937 19.6582 33.0616C16.1395 33.6296 12.5274 33.055 9.37441 31.4257L1.94882 33.2409C1.77792 33.2828 1.59881 33.2809 1.42894 33.235C1.25907 33.1892 1.10424 33.1011 0.97953 32.9794C0.854825 32.8577 0.7645 32.7064 0.717363 32.5404C0.670221 32.3744 0.667873 32.1993 0.710549 32.0321L2.56694 24.7695C1.32396 22.4724 0.676043 19.9123 0.679949 17.3135ZM16.9999 3.35079C14.5078 3.35005 12.0589 3.98702 9.89658 5.19839C7.73425 6.40975 5.93375 8.15338 4.67409 10.2559C3.41443 12.3584 2.73944 14.7467 2.71621 17.1833C2.69297 19.6199 3.32231 22.0201 4.54166 24.1452C4.66972 24.3669 4.70622 24.6281 4.64366 24.8753L3.10142 30.9031L9.26629 29.3951C9.51905 29.3339 9.78622 29.3696 10.0129 29.4949C11.9168 30.5378 14.0398 31.14 16.2187 31.2556C18.3978 31.3712 20.575 30.9969 22.583 30.1615C24.591 29.3261 26.3765 28.0518 27.8024 26.4365C29.2282 24.8213 30.2565 22.9079 30.8082 20.8435C31.36 18.7791 31.4204 16.6185 30.985 14.5276C30.5496 12.4368 29.6299 10.4714 28.2966 8.78224C26.9632 7.09305 25.2517 5.72522 23.2934 4.78367C21.3351 3.84213 19.1822 3.35195 16.9999 3.35079Z" fill="#564B52"/>
</svg>
