<svg width="90" height="90" viewBox="0 0 90 90" fill="none" xmlns="http://www.w3.org/2000/svg">
<path d="M77.4143 36.5625L70.3831 24.3633C69.5463 22.9322 68.3629 21.7347 66.9419 20.8811C65.5208 20.0275 63.9078 19.5452 62.2514 19.4786C60.595 19.4121 58.9485 19.7635 57.4636 20.5004C55.9786 21.2372 54.703 22.336 53.7542 23.6953L47.6721 13.1484C46.3631 10.8867 44.2112 9.23569 41.6876 8.55702C39.1639 7.87834 36.4742 8.22725 34.2073 9.52734C32.796 10.3605 31.603 11.5173 30.7268 12.9023C29.5707 11.866 28.185 11.119 26.6839 10.7227C25.4395 10.3747 24.1375 10.2825 22.8565 10.4517C21.5755 10.6209 20.3421 11.0479 19.2307 11.707C18.1085 12.3485 17.1242 13.2055 16.3343 14.2286C15.5444 15.2518 14.9646 16.421 14.628 17.669C14.2915 18.917 14.205 20.2193 14.3735 21.5008C14.5419 22.7824 14.962 24.0181 15.6096 25.1367L16.8049 27.1758C15.3436 27.3005 13.9275 27.7446 12.6565 28.4766C10.4102 29.7913 8.77345 31.9394 8.10199 34.454C7.43054 36.9687 7.77861 39.6468 9.07057 41.9062L23.8362 67.5C25.8357 71.0791 28.5266 74.2251 31.7525 76.7551C34.9784 79.2852 38.675 81.1488 42.6275 82.2377C46.5799 83.3267 50.7094 83.6192 54.7759 83.0982C58.8424 82.5773 62.7648 81.2533 66.3151 79.2033C69.8655 77.1532 72.973 74.4179 75.457 71.1564C77.941 67.8949 79.752 64.1722 80.7847 60.2047C81.8174 56.2372 82.0513 52.104 81.4727 48.0453C80.8941 43.9866 79.5146 40.0834 77.4143 36.5625V36.5625ZM75.0588 58.5703C74.214 61.7848 72.7375 64.7988 70.7154 67.4365C68.6934 70.0743 66.1662 72.2829 63.2815 73.9336C57.4663 77.2875 50.5581 78.1976 44.0726 76.4642C37.5872 74.7307 32.0543 70.4954 28.6878 64.6875L13.9221 39.0937C13.3627 38.1241 13.2114 36.9718 13.5015 35.8906C13.7916 34.8093 14.4993 33.8876 15.469 33.3281C16.4387 32.7687 17.5909 32.6174 18.6722 32.9075C19.7535 33.1976 20.6752 33.9053 21.2346 34.875L28.969 48.2695L29.1799 48.5859V48.6562L29.3557 48.832L29.426 48.9023L29.6721 49.1133H29.7073L29.9534 49.2891H30.0589L30.2698 49.3945H30.3401L30.6565 49.5H30.6917L30.9729 49.5703H31.7464L32.0628 49.5H32.1682L32.3792 49.4297H32.4846L32.801 49.2891C33.4451 48.9078 33.9131 48.2883 34.1039 47.5646C34.2947 46.8408 34.1929 46.0711 33.8206 45.4219L26.0862 32.0273L20.4612 22.2891C19.9022 21.3207 19.7504 20.17 20.0393 19.0898C20.1789 18.552 20.4251 18.0477 20.7633 17.6069C21.1015 17.166 21.5248 16.7976 22.0081 16.5234C22.9764 15.9644 24.1271 15.8127 25.2073 16.1016C26.2819 16.4077 27.1996 17.1116 27.7737 18.0703L30.5862 22.9922H30.6214L39.762 38.8125C39.8976 39.0641 40.0761 39.2901 40.2893 39.4805C40.7861 39.9256 41.425 40.1797 42.0918 40.1973C42.7586 40.2149 43.41 39.995 43.9296 39.5768C44.4492 39.1585 44.8033 38.5692 44.9286 37.914C45.0539 37.2588 44.9422 36.5805 44.6135 36L35.4729 20.1797C35.1959 19.6995 35.0162 19.1695 34.944 18.6199C34.8718 18.0703 34.9086 17.5119 35.0523 16.9765C35.1959 16.4411 35.4436 15.9393 35.7812 15.4996C36.1188 15.0599 36.5396 14.6911 37.0198 14.4141C37.4999 14.1371 38.0299 13.9573 38.5795 13.8852C39.1291 13.813 39.6876 13.8498 40.223 13.9934C40.7584 14.137 41.2602 14.3847 41.6999 14.7223C42.1395 15.0599 42.5084 15.4808 42.7854 15.9609L53.3323 34.207L55.5471 38.0742C52.4834 40.6239 50.4188 44.1739 49.7177 48.0976C49.0165 52.0213 49.724 56.0666 51.7151 59.5195C52.1169 60.1024 52.7237 60.5123 53.4144 60.6675C54.1051 60.8226 54.8289 60.7116 55.4413 60.3565C56.0538 60.0015 56.5098 59.4286 56.7184 58.7521C56.927 58.0756 56.8728 57.3453 56.5667 56.707C55.0759 54.124 54.6717 51.0548 55.443 48.1739C56.2143 45.2931 58.098 42.8363 60.6799 41.3437L60.926 41.2031L61.1018 41.0625H61.137L61.3479 40.8516L61.5237 40.6758L61.6643 40.5L61.7698 40.2891H61.8049L61.8753 40.1133V40.043C61.9143 39.9662 61.9382 39.8827 61.9456 39.7969H61.9807C61.9807 39.7266 62.0159 39.6562 62.0159 39.5859C62.0159 39.5156 62.0159 39.5156 62.051 39.5156V38.7773C62.0323 38.694 62.0088 38.6119 61.9807 38.5312C61.9734 38.4455 61.9495 38.3619 61.9104 38.2852V38.2148C61.9104 38.1445 61.8753 38.1094 61.8401 38.0391L61.7346 37.793L58.219 31.6758C57.8119 30.9537 57.6266 30.1278 57.6861 29.301C57.7456 28.4743 58.0474 27.6834 58.5536 27.0271C59.0599 26.3708 59.7483 25.8782 60.5329 25.6108C61.3174 25.3434 62.1634 25.313 62.9651 25.5234C63.4936 25.6631 63.9893 25.9058 64.4237 26.2376C64.8581 26.5694 65.2226 26.9839 65.4964 27.457L72.5276 39.6563C74.1711 42.4882 75.2406 45.6161 75.6749 48.8615C76.1092 52.1068 75.8999 55.4059 75.0588 58.5703V58.5703ZM30.8323 85.9922C30.5668 86.3599 30.2183 86.6598 29.8152 86.8675C29.412 87.0752 28.9655 87.1848 28.512 87.1875C27.9371 87.1805 27.3761 87.0098 26.8948 86.6953C21.7814 83.1622 17.528 78.5243 14.4495 73.125C14.2294 72.8057 14.0777 72.4443 14.0039 72.0635C13.9302 71.6827 13.936 71.2908 14.021 70.9124C14.106 70.534 14.2684 70.1772 14.4979 69.8646C14.7274 69.5519 15.0191 69.2901 15.3546 69.0956C15.6901 68.9011 16.0623 68.7781 16.4476 68.7343C16.833 68.6905 17.2233 68.7269 17.5939 68.8412C17.9645 68.9555 18.3075 69.1452 18.6013 69.3984C18.8951 69.6516 19.1333 69.9628 19.301 70.3125C21.9876 74.9866 25.6876 78.999 30.1292 82.0547C30.7404 82.4869 31.1568 83.1423 31.2884 83.8792C31.42 84.6161 31.2561 85.3752 30.8323 85.9922V85.9922ZM59.0628 10.8984C59.0628 10.1525 59.3591 9.43715 59.8865 8.9097C60.414 8.38225 61.1293 8.08594 61.8753 8.08594C65.5789 8.09067 69.2164 9.0672 72.4244 10.918C75.6324 12.7687 78.2986 15.429 80.1565 18.6328C80.3433 18.9526 80.4643 19.3064 80.5124 19.6736C80.5604 20.0408 80.5346 20.4139 80.4363 20.771C80.338 21.128 80.1693 21.4618 79.9402 21.7527C79.711 22.0436 79.4259 22.2857 79.1018 22.4648C78.682 22.7309 78.1924 22.8655 77.6956 22.8516C77.2036 22.8498 76.7206 22.719 76.2949 22.4723C75.8693 22.2255 75.5158 21.8714 75.2698 21.4453C73.9123 19.094 71.9598 17.1415 69.6086 15.7838C67.2574 14.4262 64.5903 13.7113 61.8753 13.7109C61.1293 13.7109 60.414 13.4146 59.8865 12.8872C59.3591 12.3597 59.0628 11.6444 59.0628 10.8984Z" fill="#564B52"/>
</svg>
