<svg width="80" height="80" viewBox="0 0 80 80" fill="none" xmlns="http://www.w3.org/2000/svg">
<g clip-path="url(#clip0_8_72)">
<path d="M24.3556 14.654H24.2251L24.0962 14.6746C22.8674 14.8712 21.7671 15.5479 21.0372 16.5558C20.3074 17.5637 20.0078 18.8203 20.2044 20.0491C20.401 21.2778 21.0777 22.3782 22.0856 23.108C23.0544 23.8096 24.2531 24.1136 25.4359 23.9615H26.6896V30.4088C26.6005 30.5791 26.4871 30.7961 26.3524 31.054C24.6107 34.3878 19.3079 44.5376 16.9252 48.5803C15.9084 50.2344 14.6418 52.6546 14.6418 55.8127C14.6418 58.5621 15.6942 61.28 17.5925 63.1781C19.4907 65.0764 22.2086 66.1289 24.958 66.1289H55.8607C58.3625 66.1289 60.7169 65.173 62.5134 63.659H62.7453L63.2262 63.1781C65.1244 61.28 66.1769 58.5621 66.1769 55.8127C66.1769 52.6328 64.8256 50.1955 63.9091 48.6068L63.9051 48.6L63.9011 48.5933C61.5221 44.5593 56.2097 34.3911 54.4661 31.0538C54.3315 30.796 54.2181 30.5791 54.1291 30.4088V23.9615H55.4992C56.7335 23.9615 57.9172 23.4712 58.7899 22.5985C59.6627 21.7257 60.153 20.542 60.153 19.3078C60.153 18.0735 59.6627 16.8898 58.7899 16.0171C57.9172 15.1443 56.7335 14.654 55.4992 14.654H25.4457C25.235 14.6387 25.0236 14.6378 24.8128 14.6512C24.6859 14.6469 24.5589 14.6479 24.4321 14.654H24.3556ZM35.9971 32.1387V23.9615H44.7613V32.1387V32.6357L45.0371 33.0494L45.3464 33.5134L45.3471 33.5148L45.4736 33.7614C45.5843 33.9768 45.746 34.2916 45.9505 34.6889C46.3596 35.4835 46.9402 36.6088 47.6263 37.9319C48.6547 39.9154 49.9212 42.3453 51.2034 44.7736H29.555C30.8372 42.3453 32.1037 39.9154 33.1321 37.9319C33.8182 36.6088 34.3988 35.4835 34.8079 34.6889C35.0124 34.2916 35.1741 33.9768 35.2848 33.7614L35.4113 33.5148L35.412 33.5134L35.7213 33.0494L35.9971 32.6357V32.1387Z" stroke="#302F7B" stroke-width="3.28358"/>
</g>
<defs>
<clipPath id="clip0_8_72">
<rect width="55" height="55" fill="white" transform="translate(13 13)"/>
</clipPath>
</defs>
</svg>
