<svg width="98" height="60" viewBox="0 0 98 60" fill="none" xmlns="http://www.w3.org/2000/svg">
<g clip-path="url(#clip0_2318_518)">
<path d="M79.625 26.3014C86.939 26.3014 92.8682 20.4136 92.8682 13.1507C92.8682 5.88776 86.939 0 79.625 0C72.3109 0 66.3817 5.88776 66.3817 13.1507C66.3817 20.4136 72.3109 26.3014 79.625 26.3014Z" fill="#0090DA"/>
<path d="M61.5811 60H98C97.015 50.4904 94.9871 41.1206 91.9495 32.0548H67.6398L67.6233 32.0959C64.5939 41.1534 62.566 50.5069 61.5811 60Z" fill="#0090DA"/>
<path d="M18.375 26.3014C25.689 26.3014 31.6182 20.4136 31.6182 13.1507C31.6182 5.88776 25.689 0 18.375 0C11.0609 0 5.13171 5.88776 5.13171 13.1507C5.13171 20.4136 11.0609 26.3014 18.375 26.3014Z" fill="#0090DA"/>
<path d="M0 60H36.4189C35.434 50.4904 33.4061 41.1206 30.3684 32.0548H6.05051L6.03395 32.0959C3.01284 41.1534 0.984966 50.5069 0 60Z" fill="#0090DA"/>
<path d="M49 32.4657C55.1713 32.4657 60.174 27.4979 60.174 21.3698C60.174 15.2417 55.1713 10.2739 49 10.2739C42.8288 10.2739 37.826 15.2417 37.826 21.3698C37.826 27.4979 42.8288 32.4657 49 32.4657Z" fill="#A4CE4E"/>
<path d="M34.1013 60H63.8986C63.0957 52.1754 61.4321 44.4576 58.949 36.9863H39.0593V37.0192C36.5679 44.4822 34.9125 52.1836 34.1096 60H34.1013Z" fill="#A4CE4E"/>
</g>
<defs>
<clipPath id="clip0_2318_518">
<rect width="98" height="60" fill="white"/>
</clipPath>
</defs>
</svg>
