<svg width="84" height="74" viewBox="0 0 84 74" fill="none" xmlns="http://www.w3.org/2000/svg">
<g clip-path="url(#clip0_2318_424)">
<path d="M41.087 16.4444C41.087 25.5254 33.7278 32.8889 24.6522 32.8889C15.5765 32.8889 8.21741 25.5254 8.21741 16.4444C8.21741 7.36346 15.5765 0 24.6522 0C33.7278 0 41.087 7.36346 41.087 16.4444Z" fill="#A4CE4E"/>
<path d="M0 74H49.3043C48.1083 62.1965 45.643 50.5575 41.9452 39.2839H7.35913V39.3388C3.67044 50.5941 1.19609 62.2148 0 74Z" fill="#A4CE4E"/>
<path d="M38.3478 51.1606C38.3478 38.544 48.5647 28.321 61.1739 28.321C73.783 28.321 84 38.544 84 51.1606C84 63.7771 73.783 74.0001 61.1739 74.0001H38.3478V51.1606Z" fill="#0090DA"/>
<path d="M69.8296 51.9553C71.7379 50.0185 71.7379 46.9123 69.8296 44.9755C67.8939 43.057 64.7805 43.057 62.8448 44.9755L61.1739 46.6474L59.5031 44.9755C57.5765 43.057 54.4539 43.057 52.5274 44.9755C50.6009 46.9032 50.6009 50.0276 52.5274 51.9553L61.1739 60.6069L69.8296 51.9553Z" fill="white"/>
</g>
<defs>
<clipPath id="clip0_2318_424">
<rect width="84" height="74" fill="white"/>
</clipPath>
</defs>
</svg>
