<svg width="109" height="93" viewBox="0 0 109 93" fill="none" xmlns="http://www.w3.org/2000/svg">
<path d="M103 34.95C85.37 25.99 63.8 33.01 54.83 50.64C72.46 59.6 94.03 52.58 103 34.95Z" fill="#45BBC9"/>
<path d="M7 34.95C24.63 25.99 46.2 33.01 55.17 50.64C37.54 59.6 15.97 52.58 7 34.95Z" fill="#45BBC9"/>
<path d="M24.06 10.67C43.68 13.11 57.61 30.99 55.18 50.61C55.18 50.63 55.18 50.65 55.18 50.67C35.55 48.23 21.62 30.34 24.06 10.71C24.06 10.7 24.06 10.68 24.06 10.67Z" fill="#36276F"/>
<path d="M86.22 10.67C66.6 13.11 52.67 30.99 55.1 50.61C55.1 50.63 55.1 50.65 55.1 50.67C74.73 48.23 88.66 30.34 86.22 10.71C86.22 10.7 86.22 10.68 86.22 10.67Z" fill="#36276F"/>
<path d="M54.82 0C40.92 14.04 41.03 36.7 55.07 50.6C55.08 50.61 55.1 50.63 55.11 50.64C69.01 36.58 68.89 13.92 54.83 0.01C54.83 0.01 54.83 0.01 54.82 0Z" fill="#45BBC9"/>
<path d="M4.68483 91.4569H2.07719L1.58144 92.9039H0L2.68696 85.8811H4.06514L6.76698 92.9039H5.18554L4.68483 91.4569ZM2.47874 90.2848H4.28327L3.37605 87.656L2.47874 90.2848ZM12.2797 87.0532H10.0686V92.9039H8.58142V87.0532H6.40012V85.8811H12.2797V87.0532ZM17.4751 89.8603H14.6196V91.7415H17.9709V92.9039H13.1324V85.8811H17.961V87.0532H14.6196V88.7268H17.4751V89.8603ZM24.713 92.9039H23.2258L20.3307 88.2831V92.9039H18.8434V85.8811H20.3307L23.2308 90.5115V85.8811H24.713V92.9039ZM31.6783 90.5646C31.6222 91.3202 31.3346 91.9151 30.8158 92.3492C30.3002 92.7833 29.6193 93 28.7733 93C27.8479 93 27.1191 92.6981 26.587 92.0936C26.0582 91.4858 25.7938 90.653 25.7938 89.595V89.1658C25.7938 88.4905 25.9161 87.8956 26.1607 87.3811C26.4053 86.8667 26.7539 86.4727 27.2067 86.1994C27.6628 85.9229 28.1916 85.7846 28.7931 85.7846C29.626 85.7846 30.2969 86.0017 30.8058 86.4358C31.3149 86.8699 31.6089 87.4792 31.6883 88.2638H30.201C30.1647 87.8104 30.0341 87.4824 29.8094 87.2799C29.5879 87.074 29.2492 86.9712 28.7931 86.9712C28.2973 86.9712 27.9255 87.1448 27.6777 87.4921C27.4331 87.8362 27.3075 88.3716 27.3009 89.0983V89.6288C27.3009 90.3877 27.4183 90.9424 27.6529 91.2929C27.8908 91.6434 28.2643 91.8186 28.7733 91.8186C29.2327 91.8186 29.5747 91.7174 29.7995 91.5148C30.0276 91.309 30.1581 90.9923 30.1911 90.5646H31.6783ZM34.2364 92.9039H32.7492V85.8811H34.2364V92.9039ZM41.5487 89.5517C41.5487 90.243 41.4231 90.8491 41.172 91.3701C40.9207 91.891 40.5605 92.293 40.0912 92.576C39.6252 92.8589 39.0898 93 38.485 93C37.8868 93 37.353 92.8605 36.8838 92.5807C36.4144 92.301 36.0508 91.9023 35.793 91.3845C35.5353 90.8636 35.4047 90.2655 35.4014 89.5903V89.2429C35.4014 88.5516 35.5287 87.9439 35.7832 87.4198C36.041 86.8924 36.4029 86.4888 36.8689 86.209C37.3381 85.9261 37.8736 85.7846 38.4751 85.7846C39.0766 85.7846 39.6104 85.9261 40.0764 86.209C40.5456 86.4888 40.9075 86.8924 41.162 87.4198C41.4198 87.9439 41.5487 88.55 41.5487 89.2382V89.5517ZM40.0417 89.2333C40.0417 88.4969 39.9062 87.9375 39.6351 87.5548C39.3641 87.1722 38.9775 86.9808 38.4751 86.9808C37.976 86.9808 37.591 87.1706 37.32 87.55C37.049 87.9262 36.9118 88.4793 36.9085 89.2092V89.5517C36.9085 90.2687 37.044 90.8251 37.3151 91.2206C37.5861 91.6161 37.976 91.8138 38.485 91.8138C38.984 91.8138 39.3674 91.6241 39.6351 91.2446C39.9029 90.862 40.0384 90.3057 40.0417 89.5757V89.2333ZM38.7626 84H40.3242L38.951 85.4952H37.786L38.7626 84ZM48.4992 92.9039H47.0119L44.1167 88.2831V92.9039H42.6295V85.8811H44.1167L47.0168 90.5115V85.8811H48.4992V92.9039ZM56.4014 91.4569H53.7938L53.298 92.9039H51.7165L54.4035 85.8811H55.7817L58.4835 92.9039H56.9021L56.4014 91.4569ZM54.1953 90.2848H55.9998L55.0926 87.656L54.1953 90.2848ZM64.7597 92.0164C64.492 92.3283 64.1136 92.5711 63.6245 92.7448C63.1353 92.9156 62.5933 93 61.9983 93C61.3737 93 60.8251 92.8685 60.3525 92.6049C59.8832 92.338 59.5196 91.9521 59.2618 91.4472C59.0074 90.9424 58.8768 90.3491 58.8702 89.6674V89.19C58.8702 88.489 58.9909 87.8828 59.2321 87.3715C59.4766 86.857 59.827 86.4647 60.283 86.1946C60.7425 85.9212 61.2795 85.7846 61.8942 85.7846C62.7503 85.7846 63.4196 85.984 63.902 86.3827C64.3846 86.7782 64.6705 87.3555 64.7597 88.1143H63.3121C63.246 87.7123 63.0989 87.4182 62.8709 87.2316C62.6462 87.0451 62.3355 86.9519 61.9389 86.9519C61.4332 86.9519 61.0482 87.1368 60.7838 87.5065C60.5194 87.8763 60.3855 88.4262 60.3823 89.1562V89.6048C60.3823 90.3411 60.526 90.8974 60.8136 91.2736C61.1011 91.6498 61.5224 91.838 62.0777 91.838C62.6362 91.838 63.0345 91.7222 63.2724 91.4907V90.28H61.9191V89.214H64.7597V92.0164ZM70.3121 89.8603H67.4566V91.7415H70.8079V92.9039H65.9693V85.8811H70.7979V87.0532H67.4566V88.7268H70.3121V89.8603ZM77.5501 92.9039H76.0628L73.1676 88.2831V92.9039H71.6804V85.8811H73.1676L76.0677 90.5115V85.8811H77.5501V92.9039ZM78.8489 92.9039V85.8811H81.0698C81.7044 85.8811 82.2712 86.0209 82.7702 86.3007C83.2726 86.5772 83.6643 86.9727 83.9452 87.4873C84.2261 87.9985 84.3666 88.5806 84.3666 89.2333V89.5565C84.3666 90.2092 84.2277 90.7897 83.9501 91.2977C83.6758 91.8058 83.2875 92.1997 82.7851 92.4794C82.2828 92.7592 81.716 92.9007 81.0848 92.9039H78.8489ZM80.3361 87.0532V91.7415H81.0549C81.6366 91.7415 82.0811 91.5566 82.3886 91.1868C82.6959 90.817 82.8529 90.2881 82.8595 89.5999V89.2285C82.8595 88.5146 82.7075 87.9744 82.4035 87.6078C82.0993 87.2381 81.6548 87.0532 81.0698 87.0532H80.3361ZM89.4183 91.4569H86.8107L86.3149 92.9039H84.7335L87.4204 85.8811H88.7986L91.5004 92.9039H89.9189L89.4183 91.4569ZM87.2122 90.2848H89.0167L88.1095 87.656L87.2122 90.2848ZM92.1747 92.9039V85.8811H94.7028C95.5787 85.8811 96.2433 86.0451 96.6956 86.373C97.1488 86.6978 97.3749 87.1753 97.3749 87.8056C97.3749 88.1497 97.2844 88.4536 97.1026 88.7172C96.9208 88.9777 96.6679 89.169 96.3439 89.2912C96.714 89.3812 97.0048 89.5629 97.2161 89.8363C97.4312 90.1095 97.5383 90.444 97.5383 90.8395C97.5383 91.5148 97.3177 92.0261 96.8746 92.3734C96.4316 92.7206 95.8003 92.8974 94.9806 92.9039H92.1747ZM93.6617 89.8459V91.7415H94.9363C95.2861 91.7415 95.5594 91.661 95.7541 91.5003C95.9526 91.3363 96.0513 91.1112 96.0513 90.8251C96.0513 90.1819 95.7089 89.8556 95.0249 89.8459H93.6617ZM93.6617 88.8234H94.7628C95.5123 88.8104 95.8879 88.5195 95.8879 87.9503C95.8879 87.632 95.7919 87.4037 95.6 87.2654C95.4117 87.1239 95.1126 87.0532 94.7028 87.0532H93.6617V88.8234ZM100.147 91.7415H103.304V92.9039H98.6588V85.8811H100.147V91.7415ZM108.504 89.8603H105.65V91.7415H109V92.9039H104.162V85.8811H108.991V87.0532H105.65V88.7268H108.504V89.8603Z" fill="#36276F"/>
</svg>
