<svg width="109" height="97" viewBox="0 0 109 97" fill="none" xmlns="http://www.w3.org/2000/svg">
<g clip-path="url(#clip0_1_438)">
<path d="M52.5 0L15 26.9134V72H90V26.9134L52.5 0Z" fill="#45BBC9"/>
<path d="M52.5 0V72H90V26.9134L52.5 0Z" fill="#36276F"/>
<path d="M34.2946 43.9941C30.25 39.9526 30.2678 33.4153 34.3303 29.3916C38.3928 25.3679 44.9643 25.3857 49.0089 29.4271L52.5089 32.98L56.0803 29.4893C60.1428 25.4656 66.7143 25.4834 70.7589 29.5248C74.8036 33.5663 74.7857 40.1036 70.7232 44.1273L52.4375 62.6469L34.2946 43.9941Z" fill="white"/>
</g>
<path d="M4.68483 95.4569H2.07719L1.58144 96.9039H0L2.68696 89.8811H4.06514L6.76698 96.9039H5.18554L4.68483 95.4569ZM2.47874 94.2848H4.28327L3.37605 91.656L2.47874 94.2848ZM12.2797 91.0532H10.0686V96.9039H8.58142V91.0532H6.40012V89.8811H12.2797V91.0532ZM17.4751 93.8603H14.6196V95.7415H17.9709V96.9039H13.1324V89.8811H17.961V91.0532H14.6196V92.7268H17.4751V93.8603ZM24.713 96.9039H23.2258L20.3307 92.2831V96.9039H18.8434V89.8811H20.3307L23.2308 94.5115V89.8811H24.713V96.9039ZM31.6783 94.5646C31.6222 95.3202 31.3346 95.9151 30.8158 96.3492C30.3002 96.7833 29.6193 97 28.7733 97C27.8479 97 27.1191 96.6981 26.587 96.0936C26.0582 95.4858 25.7938 94.653 25.7938 93.595V93.1658C25.7938 92.4905 25.9161 91.8956 26.1607 91.3811C26.4053 90.8667 26.7539 90.4727 27.2067 90.1994C27.6628 89.9229 28.1916 89.7846 28.7931 89.7846C29.626 89.7846 30.2969 90.0017 30.8058 90.4358C31.3149 90.8699 31.6089 91.4792 31.6883 92.2638H30.201C30.1647 91.8104 30.0341 91.4824 29.8094 91.2799C29.5879 91.074 29.2492 90.9712 28.7931 90.9712C28.2973 90.9712 27.9255 91.1448 27.6777 91.4921C27.4331 91.8362 27.3075 92.3716 27.3009 93.0983V93.6288C27.3009 94.3877 27.4183 94.9424 27.6529 95.2929C27.8908 95.6434 28.2643 95.8186 28.7733 95.8186C29.2327 95.8186 29.5747 95.7174 29.7995 95.5148C30.0276 95.309 30.1581 94.9923 30.1911 94.5646H31.6783ZM34.2364 96.9039H32.7492V89.8811H34.2364V96.9039ZM41.5487 93.5517C41.5487 94.243 41.4231 94.8491 41.172 95.3701C40.9207 95.891 40.5605 96.293 40.0912 96.576C39.6252 96.8589 39.0898 97 38.485 97C37.8868 97 37.353 96.8605 36.8838 96.5807C36.4144 96.301 36.0508 95.9023 35.793 95.3845C35.5353 94.8636 35.4047 94.2655 35.4014 93.5903V93.2429C35.4014 92.5516 35.5287 91.9439 35.7832 91.4198C36.041 90.8924 36.4029 90.4888 36.8689 90.209C37.3381 89.9261 37.8736 89.7846 38.4751 89.7846C39.0766 89.7846 39.6104 89.9261 40.0764 90.209C40.5456 90.4888 40.9075 90.8924 41.162 91.4198C41.4198 91.9439 41.5487 92.55 41.5487 93.2382V93.5517ZM40.0417 93.2333C40.0417 92.4969 39.9062 91.9375 39.6351 91.5548C39.3641 91.1722 38.9775 90.9808 38.4751 90.9808C37.976 90.9808 37.591 91.1706 37.32 91.55C37.049 91.9262 36.9118 92.4793 36.9085 93.2092V93.5517C36.9085 94.2687 37.044 94.8251 37.3151 95.2206C37.5861 95.6161 37.976 95.8138 38.485 95.8138C38.984 95.8138 39.3674 95.6241 39.6351 95.2446C39.9029 94.862 40.0384 94.3057 40.0417 93.5757V93.2333ZM38.7626 88H40.3242L38.951 89.4952H37.786L38.7626 88ZM48.4992 96.9039H47.0119L44.1167 92.2831V96.9039H42.6295V89.8811H44.1167L47.0168 94.5115V89.8811H48.4992V96.9039ZM56.4014 95.4569H53.7938L53.298 96.9039H51.7165L54.4035 89.8811H55.7817L58.4835 96.9039H56.9021L56.4014 95.4569ZM54.1953 94.2848H55.9998L55.0926 91.656L54.1953 94.2848ZM64.7597 96.0164C64.492 96.3283 64.1136 96.5711 63.6245 96.7448C63.1353 96.9156 62.5933 97 61.9983 97C61.3737 97 60.8251 96.8685 60.3525 96.6049C59.8832 96.338 59.5196 95.9521 59.2618 95.4472C59.0074 94.9424 58.8768 94.3491 58.8702 93.6674V93.19C58.8702 92.489 58.9909 91.8828 59.2321 91.3715C59.4766 90.857 59.827 90.4647 60.283 90.1946C60.7425 89.9212 61.2795 89.7846 61.8942 89.7846C62.7503 89.7846 63.4196 89.984 63.902 90.3827C64.3846 90.7782 64.6705 91.3555 64.7597 92.1143H63.3121C63.246 91.7123 63.0989 91.4182 62.8709 91.2316C62.6462 91.0451 62.3355 90.9519 61.9389 90.9519C61.4332 90.9519 61.0482 91.1368 60.7838 91.5065C60.5194 91.8763 60.3855 92.4262 60.3823 93.1562V93.6048C60.3823 94.3411 60.526 94.8974 60.8136 95.2736C61.1011 95.6498 61.5224 95.838 62.0777 95.838C62.6362 95.838 63.0345 95.7222 63.2724 95.4907V94.28H61.9191V93.214H64.7597V96.0164ZM70.3121 93.8603H67.4566V95.7415H70.8079V96.9039H65.9693V89.8811H70.7979V91.0532H67.4566V92.7268H70.3121V93.8603ZM77.5501 96.9039H76.0628L73.1676 92.2831V96.9039H71.6804V89.8811H73.1676L76.0677 94.5115V89.8811H77.5501V96.9039ZM78.8489 96.9039V89.8811H81.0698C81.7044 89.8811 82.2712 90.0209 82.7702 90.3007C83.2726 90.5772 83.6643 90.9727 83.9452 91.4873C84.2261 91.9985 84.3666 92.5806 84.3666 93.2333V93.5565C84.3666 94.2092 84.2277 94.7897 83.9501 95.2977C83.6758 95.8058 83.2875 96.1997 82.7851 96.4794C82.2828 96.7592 81.716 96.9007 81.0848 96.9039H78.8489ZM80.3361 91.0532V95.7415H81.0549C81.6366 95.7415 82.0811 95.5566 82.3886 95.1868C82.6959 94.817 82.8529 94.2881 82.8595 93.5999V93.2285C82.8595 92.5146 82.7075 91.9744 82.4035 91.6078C82.0993 91.2381 81.6548 91.0532 81.0698 91.0532H80.3361ZM89.4183 95.4569H86.8107L86.3149 96.9039H84.7335L87.4204 89.8811H88.7986L91.5004 96.9039H89.9189L89.4183 95.4569ZM87.2122 94.2848H89.0167L88.1095 91.656L87.2122 94.2848ZM92.1747 96.9039V89.8811H94.7028C95.5787 89.8811 96.2433 90.0451 96.6956 90.373C97.1488 90.6978 97.3749 91.1753 97.3749 91.8056C97.3749 92.1497 97.2844 92.4536 97.1026 92.7172C96.9208 92.9777 96.6679 93.169 96.3439 93.2912C96.714 93.3812 97.0048 93.5629 97.2161 93.8363C97.4312 94.1095 97.5383 94.444 97.5383 94.8395C97.5383 95.5148 97.3177 96.0261 96.8746 96.3734C96.4316 96.7206 95.8003 96.8974 94.9806 96.9039H92.1747ZM93.6617 93.8459V95.7415H94.9363C95.2861 95.7415 95.5594 95.661 95.7541 95.5003C95.9526 95.3363 96.0513 95.1112 96.0513 94.8251C96.0513 94.1819 95.7089 93.8556 95.0249 93.8459H93.6617ZM93.6617 92.8234H94.7628C95.5123 92.8104 95.8879 92.5195 95.8879 91.9503C95.8879 91.632 95.7919 91.4037 95.6 91.2654C95.4117 91.1239 95.1126 91.0532 94.7028 91.0532H93.6617V92.8234ZM100.147 95.7415H103.304V96.9039H98.6588V89.8811H100.147V95.7415ZM108.504 93.8603H105.65V95.7415H109V96.9039H104.162V89.8811H108.991V91.0532H105.65V92.7268H108.504V93.8603Z" fill="#36276F"/>
<defs>
<clipPath id="clip0_1_438">
<rect width="75" height="72" fill="white" transform="translate(15)"/>
</clipPath>
</defs>
</svg>
