<svg width="74" height="102" viewBox="0 0 74 102" fill="none" xmlns="http://www.w3.org/2000/svg">
<g clip-path="url(#clip0_2318_416)">
<path d="M18.52 76H61.71V69.01H34.5V55.82C49.6 54.03 60.98 41.25 61 26.05V10.9H53.76V26.05C53.76 38.62 43.57 48.81 31 48.81C18.43 48.81 8.24 38.62 8.24 26.05V10.9H1V26.05C1.04 41.25 12.41 54.02 27.5 55.83V69.01H18.52C9.41 69.01 2.02 76.38 2.01 85.49C2 94.6 9.38 101.99 18.49 102C27.6 102 34.99 94.64 35 85.53V83H28V85.53C28 90.78 23.75 95.03 18.5 95.03C13.25 95.03 9 90.78 9 85.53C9.1 80.31 13.3 76.1 18.52 76Z" fill="#0090DA"/>
<path d="M19.63 3.37C17.48 1.2 14.55 0 11.5 0C5.15 0.01 0.01 5.15 0 11.5C0 17.85 5.15 23 11.5 23C17.85 23 23 17.85 23 11.5C23 8.45 21.79 5.53 19.64 3.38L19.63 3.37Z" fill="#A4CE4E"/>
<path d="M50.5 0C44.15 0 39.01 5.15 39 11.5C39 17.85 44.15 23 50.5 23C56.85 23 62 17.85 62 11.5C62 5.15 56.85 0 50.5 0Z" fill="#A4CE4E"/>
<path d="M70.63 71.37C68.48 69.21 65.55 68 62.51 68H62.5C56.15 68 51.01 73.15 51.01 79.5C51.01 85.85 56.16 90.99 62.51 90.99C68.86 90.99 74 85.84 74 79.49C74 76.44 72.79 73.52 70.63 71.37Z" fill="#A4CE4E"/>
</g>
<defs>
<clipPath id="clip0_2318_416">
<rect width="74" height="102" fill="white"/>
</clipPath>
</defs>
</svg>
