<svg width="75" height="102" viewBox="0 0 75 102" fill="none" xmlns="http://www.w3.org/2000/svg">
<g clip-path="url(#clip0_0_464)">
<path d="M19.204 76H62.394V69.01H35.184V55.82C50.284 54.03 61.664 41.25 61.684 26.05V10.9H54.444V26.05C54.444 38.62 44.254 48.81 31.684 48.81C19.114 48.81 8.92396 38.62 8.92396 26.05V10.9H1.68396V26.05C1.72396 41.25 13.094 54.02 28.184 55.83V69.01H19.204C10.094 69.01 2.70396 76.38 2.69396 85.49C2.68396 94.6 10.064 101.99 19.174 102C28.284 102 35.674 94.64 35.684 85.53V83H28.684V85.53C28.684 90.78 24.434 95.03 19.184 95.03C13.934 95.03 9.68396 90.78 9.68396 85.53C9.78396 80.31 13.984 76.1 19.204 76Z" fill="#36276F"/>
<path d="M20.314 3.37C18.164 1.2 15.234 0 12.184 0C5.83396 0.01 0.69396 5.15 0.68396 11.5C0.68396 17.85 5.83396 23 12.184 23C18.534 23 23.684 17.85 23.684 11.5C23.684 8.45 22.474 5.53 20.324 3.38L20.314 3.37Z" fill="#45BBC9"/>
<path d="M51.184 0C44.834 0 39.694 5.15 39.684 11.5C39.684 17.85 44.834 23 51.184 23C57.534 23 62.684 17.85 62.684 11.5C62.684 5.15 57.534 0 51.184 0Z" fill="#45BBC9"/>
<path d="M71.314 71.37C69.164 69.21 66.234 68 63.194 68H63.184C56.834 68 51.694 73.15 51.694 79.5C51.694 85.85 56.844 90.99 63.194 90.99C69.544 90.99 74.684 85.84 74.684 79.49C74.684 76.44 73.474 73.52 71.314 71.37Z" fill="#45BBC9"/>
</g>
<defs>
<clipPath id="clip0_0_464">
<rect width="74" height="102" fill="white" transform="translate(0.68396)"/>
</clipPath>
</defs>
</svg>
