<svg width="98" height="98" viewBox="0 0 98 98" fill="none" xmlns="http://www.w3.org/2000/svg">
<g clip-path="url(#clip0_2318_495)">
<path d="M63.7 64.1399C62.58 65.2599 60.76 65.2599 59.64 64.1399L33.84 38.3399C32.72 37.2199 32.72 35.3999 33.84 34.2799C34.96 33.1599 36.78 33.1599 37.9 34.2799L63.7 60.0799C64.82 61.1799 64.83 62.9899 63.73 64.1099C63.73 64.1099 63.71 64.1299 63.7 64.1399Z" fill="#A4CE4E"/>
<path d="M68.42 51.72C67.32 52.84 65.51 52.85 64.39 51.75C64.39 51.75 64.37 51.73 64.36 51.72L46.2 33.57C45.08 32.45 45.07 30.63 46.2 29.51C47.32 28.39 49.14 28.38 50.26 29.51L68.42 47.67C69.54 48.79 69.54 50.61 68.42 51.73V51.72Z" fill="#A4CE4E"/>
<path d="M84.9999 35.14C83.8799 36.26 82.0599 36.26 80.9399 35.14L62.7799 16.98C61.6599 15.86 61.6599 14.04 62.7799 12.92C63.8999 11.8 65.7199 11.8 66.8399 12.92L84.9999 31.08C86.1199 32.2 86.1199 34.02 84.9999 35.14Z" fill="#A4CE4E"/>
<path d="M35.1601 84.98C34.0401 86.1 32.2201 86.1 31.1001 84.98L12.9401 66.82C11.8201 65.7 11.8201 63.88 12.9401 62.76C14.0601 61.64 15.8801 61.64 17.0001 62.76L35.1601 80.92C36.2801 82.04 36.2801 83.86 35.1601 84.98Z" fill="#A4CE4E"/>
<path d="M51.29 68.8601C50.16 69.9801 48.35 69.9801 47.22 68.8601L29.07 50.7001C27.95 49.5801 27.95 47.76 29.07 46.64C30.19 45.52 32.01 45.52 33.13 46.64L51.29 64.7901C52.41 65.92 52.41 67.7301 51.29 68.8601Z" fill="#A4CE4E"/>
<path d="M93.1 26.62C87.88 31.84 74.67 30.96 68.1 29.9C67.04 23.31 66.16 10.1 71.38 4.9C72.5 3.78 72.5 1.96 71.38 0.84C70.26 -0.28 68.44 -0.28 67.32 0.84C63.32 4.84 61.42 11.49 61.56 20.73C61.6 23.56 61.82 26.38 62.2 29.18C59.4 28.81 56.58 28.59 53.75 28.54C44.51 28.4 37.82 30.34 33.86 34.3C29.9 38.26 28 44.98 28.08 54.17C28.12 56.82 28.32 59.46 28.66 62.09C26.03 61.75 23.38 61.56 20.73 61.52C11.49 61.38 4.8 63.32 0.84 67.28C-0.28 68.4 -0.28 70.22 0.84 71.34C1.96 72.46 3.78 72.46 4.9 71.34C10.06 66.18 23 66.98 29.68 68.03V68.25H29.9C31 74.98 31.81 87.9 26.64 93.08C25.52 94.2 25.52 96.02 26.64 97.14C27.76 98.26 29.58 98.26 30.7 97.14C34.7 93.14 36.6 86.49 36.46 77.25C36.42 74.6 36.23 71.95 35.89 69.32C38.52 69.66 41.16 69.86 43.81 69.9C53.05 70.03 59.75 68.1 63.7 64.14C67.65 60.18 69.6 53.49 69.46 44.25C69.41 41.42 69.19 38.6 68.82 35.8C71.62 36.18 74.44 36.4 77.27 36.44C86.51 36.58 93.2 34.64 97.16 30.68C98.28 29.56 98.28 27.74 97.16 26.62C96.04 25.5 94.22 25.5 93.1 26.62ZM59.64 60.08C54.48 65.24 41.52 64.43 34.86 63.39V63.17H34.64C33.64 56.51 32.79 43.55 37.95 38.39C43.11 33.23 56.38 34.05 62.95 35.11C64 41.65 64.86 54.86 59.64 60.08Z" fill="#0090DA"/>
</g>
<defs>
<clipPath id="clip0_2318_495">
<rect width="98" height="97.98" fill="white"/>
</clipPath>
</defs>
</svg>
