<svg width="87" height="87" viewBox="0 0 87 87" fill="none" xmlns="http://www.w3.org/2000/svg">
<path d="M56.55 56.9384C55.5557 57.9327 53.94 57.9327 52.9457 56.9384L30.0416 34.0343C29.0474 33.04 29.0474 31.4243 30.0416 30.43C31.0359 29.4358 32.6516 29.4358 33.6459 30.43L56.55 53.3341C57.5443 54.3107 57.5532 55.9175 56.5766 56.9118C56.5766 56.9118 56.5589 56.9295 56.55 56.9384Z" fill="#45BBC9"/>
<path d="M60.7402 45.9125C59.7636 46.9068 58.1568 46.9157 57.1625 45.9391C57.1625 45.9391 57.1448 45.9214 57.1359 45.9125L41.0142 29.7997C40.02 28.8055 40.0111 27.1897 41.0142 26.1955C42.0085 25.2012 43.6242 25.1923 44.6185 26.1955L60.7402 42.3171C61.7344 43.3114 61.7344 44.9271 60.7402 45.9214V45.9125Z" fill="#45BBC9"/>
<path d="M75.4591 31.1934C74.4648 32.1877 72.8491 32.1877 71.8548 31.1934L55.7332 15.0718C54.7389 14.0775 54.7389 12.4618 55.7332 11.4675C56.7275 10.4732 58.3432 10.4732 59.3375 11.4675L75.4591 27.5891C76.4534 28.5834 76.4534 30.1991 75.4591 31.1934Z" fill="#45BBC9"/>
<path d="M31.2135 75.4393C30.2193 76.4336 28.6035 76.4336 27.6093 75.4393L11.4876 59.3177C10.4933 58.3234 10.4933 56.7077 11.4876 55.7134C12.4819 54.7191 14.0976 54.7191 15.0919 55.7134L31.2135 71.835C32.2078 72.8293 32.2078 74.445 31.2135 75.4393Z" fill="#45BBC9"/>
<path d="M45.5329 61.1286C44.5298 62.1229 42.9229 62.1229 41.9198 61.1286L25.807 45.007C24.8127 44.0127 24.8127 42.397 25.807 41.4027C26.8013 40.4084 28.417 40.4084 29.4113 41.4027L45.5329 57.5155C46.5272 58.5186 46.5272 60.1255 45.5329 61.1286Z" fill="#45BBC9"/>
<path d="M82.65 23.6298C78.0159 28.2639 66.2887 27.4827 60.4561 26.5417C59.5151 20.6914 58.7339 8.96413 63.368 4.3478C64.3622 3.35352 64.3622 1.7378 63.368 0.743517C62.3737 -0.250769 60.758 -0.250769 59.7637 0.743517C56.2127 4.29454 54.5259 10.1981 54.6502 18.401C54.6857 20.9133 54.881 23.4168 55.2184 25.9025C52.7327 25.574 50.2292 25.3787 47.7168 25.3343C39.514 25.21 33.5749 26.9323 30.0594 30.4478C26.5439 33.9633 24.8571 39.929 24.9282 48.0875C24.9637 50.44 25.1412 52.7837 25.4431 55.1185C23.1083 54.8167 20.7557 54.648 18.4032 54.6125C10.2003 54.4882 4.26122 56.2105 0.745714 59.726C-0.248571 60.7202 -0.248571 62.336 0.745714 63.3302C1.74 64.3245 3.35571 64.3245 4.35 63.3302C8.93082 58.7494 20.4184 59.4596 26.3486 60.3918V60.5871H26.5439C27.5204 66.5617 28.2395 78.0315 23.6498 82.6301C22.6555 83.6243 22.6555 85.24 23.6498 86.2343C24.6441 87.2286 26.2598 87.2286 27.2541 86.2343C30.8051 82.6833 32.4918 76.7797 32.3675 68.5769C32.332 66.2243 32.1634 63.8718 31.8615 61.537C34.1963 61.8388 36.54 62.0164 38.8926 62.0519C47.0954 62.1673 53.0434 60.4539 56.55 56.9384C60.0566 53.4229 61.7878 47.4838 61.6635 39.281C61.6191 36.7686 61.4238 34.2651 61.0953 31.7794C63.581 32.1168 66.0845 32.3121 68.5968 32.3476C76.7997 32.4719 82.7388 30.7496 86.2543 27.2341C87.2486 26.2398 87.2486 24.6241 86.2543 23.6298C85.26 22.6356 83.6443 22.6356 82.65 23.6298ZM52.9457 53.3341C48.3649 57.9149 36.8596 57.1959 30.9471 56.2726V56.0773H30.7518C29.8641 50.1648 29.1095 38.6595 33.6903 34.0787C38.2711 29.4979 50.0516 30.2259 55.8842 31.1669C56.8163 36.9728 57.5798 48.7001 52.9457 53.3341Z" fill="#36276F"/>
</svg>
