<svg width="49" height="64" viewBox="0 0 49 64" fill="none" xmlns="http://www.w3.org/2000/svg">
<path d="M7.97341 23.9982V15.9679H0V8.30015H7.97341V0H15.4271V8.30015H24.1143V15.9679H15.4271V23.9509" fill="#43BAC9"/>
<path d="M7.98846 26.7039V43.023C7.98846 47.9035 8.8745 51.4283 10.6456 53.5954C12.4168 55.7644 14.967 56.8484 18.2944 56.8484H22.8363C22.4604 55.5514 22.273 54.0962 22.273 52.482C22.273 50.8678 22.4576 49.5282 22.8164 48.2643H19.5922C18.0785 48.2643 17.0088 47.8571 16.3831 47.0439C15.7555 46.2306 15.4422 44.891 15.4422 43.023V26.5553" fill="#37276E"/>
<path d="M23.7933 58.3017C22.628 57.6892 21.7127 56.8135 21.0481 55.6745C20.3817 54.5356 20.0494 53.1959 20.0494 51.6546C20.0494 50.1133 20.3864 48.8002 21.0604 47.6612C21.7344 46.5232 22.6536 45.6475 23.8189 45.034C24.9832 44.4215 26.3009 44.1138 27.772 44.1138C29.243 44.1138 30.5607 44.4205 31.726 45.034C32.8904 45.6466 33.8096 46.5232 34.4845 47.6612C35.1585 48.8002 35.4955 50.1313 35.4955 51.6546C35.4955 53.1779 35.1585 54.5148 34.4845 55.6613C33.8096 56.8087 32.8866 57.6883 31.7128 58.3017C30.539 58.9152 29.2175 59.221 27.7464 59.221C26.2754 59.221 24.9577 58.9143 23.7933 58.3017ZM29.546 53.9533C30.0278 53.4194 30.2682 52.6525 30.2682 51.6546C30.2682 50.6567 30.0268 49.8946 29.546 49.3692C29.0641 48.8437 28.4734 48.5805 27.7729 48.5805C27.0724 48.5805 26.4855 48.8437 26.0132 49.3692C25.5408 49.8946 25.3032 50.6567 25.3032 51.6546C25.3032 52.6525 25.5304 53.4411 25.9867 53.9666C26.442 54.4911 27.0279 54.7543 27.7464 54.7543C28.4649 54.7543 29.0641 54.4873 29.546 53.9533Z" fill="#37276E"/>
<path d="M44.2764 41.3142C43.5996 40.6202 42.4844 40.606 41.7839 41.282C41.0901 41.9589 41.0759 43.0742 41.7518 43.7748C46.4347 48.5796 46.3363 56.3003 41.5331 60.9839C41.1857 61.3219 41.0058 61.7706 41.0001 62.2203C40.9945 62.671 41.163 63.1226 41.5019 63.47C42.1787 64.164 43.2938 64.1782 43.9943 63.5022C50.1928 57.4657 50.3196 47.5069 44.2764 41.3142Z" fill="#45BBC9"/>
<path d="M39.459 46.0111C38.7822 45.3171 37.667 45.3029 36.9665 45.9789C36.2727 46.6558 36.2585 47.7711 36.9344 48.4717C39.0302 50.6151 38.9866 54.0688 36.8369 56.1593C36.4894 56.4972 36.3096 56.946 36.3039 57.3957C36.2982 57.8464 36.4667 58.298 36.8056 58.6454C37.4825 59.3394 38.5976 59.3536 39.2915 58.6767C42.8366 55.2333 42.9085 49.5491 39.459 46.0101V46.0111Z" fill="#45BBC9"/>
</svg>
