<svg width="84" height="74" viewBox="0 0 84 74" fill="none" xmlns="http://www.w3.org/2000/svg">
<g clip-path="url(#clip0_25_704)">
<path d="M41.0869 16.4444C41.0869 25.5254 33.7278 32.8889 24.6522 32.8889C15.5765 32.8889 8.21738 25.5254 8.21738 16.4444C8.21738 7.36346 15.5765 0 24.6522 0C33.7278 0 41.0869 7.36346 41.0869 16.4444Z" fill="#A4CE4E"/>
<path d="M0 74H49.3043C48.1083 62.1965 45.643 50.5575 41.9452 39.2839H7.35913V39.3388C3.67044 50.5941 1.19609 62.2148 0 74Z" fill="#A4CE4E"/>
<path d="M38.3478 51.1605C38.3478 38.5439 48.5648 28.321 61.1739 28.321C73.7831 28.321 84 38.5439 84 51.1605C84 63.777 73.7831 74 61.1739 74H38.3478V51.1605Z" fill="#0090DA"/>
<path d="M69.8296 51.9553C71.7378 50.0185 71.7378 46.9124 69.8296 44.9756C67.8939 43.0571 64.7804 43.0571 62.8448 44.9756L61.1739 46.6474L59.503 44.9756C57.5765 43.0571 54.4539 43.0571 52.5274 44.9756C50.6009 46.9032 50.6009 50.0277 52.5274 51.9553L61.1739 60.6069L69.8296 51.9553Z" fill="white"/>
</g>
<defs>
<clipPath id="clip0_25_704">
<rect width="84" height="74" fill="white"/>
</clipPath>
</defs>
</svg>
