<svg width="109" height="86" viewBox="0 0 109 86" fill="none" xmlns="http://www.w3.org/2000/svg">
<g clip-path="url(#clip0_1_437)">
<path d="M83.625 26.3014C90.9391 26.3014 96.8683 20.4136 96.8683 13.1507C96.8683 5.88776 90.9391 0 83.625 0C76.311 0 70.3818 5.88776 70.3818 13.1507C70.3818 20.4136 76.311 26.3014 83.625 26.3014Z" fill="#36276F"/>
<path d="M65.5811 60H102C101.015 50.4904 98.9871 41.1206 95.9495 32.0548H71.6398L71.6233 32.0959C68.5939 41.1534 66.566 50.5069 65.5811 60Z" fill="#36276F"/>
<path d="M22.375 26.3014C29.6891 26.3014 35.6183 20.4136 35.6183 13.1507C35.6183 5.88776 29.6891 0 22.375 0C15.061 0 9.13177 5.88776 9.13177 13.1507C9.13177 20.4136 15.061 26.3014 22.375 26.3014Z" fill="#36276F"/>
<path d="M4 60H40.4189C39.434 50.4904 37.4061 41.1206 34.3684 32.0548H10.0505L10.034 32.0959C7.01284 41.1534 4.98497 50.5069 4 60Z" fill="#36276F"/>
<path d="M53 32.4657C59.1712 32.4657 64.174 27.4979 64.174 21.3698C64.174 15.2417 59.1712 10.2739 53 10.2739C46.8288 10.2739 41.826 15.2417 41.826 21.3698C41.826 27.4979 46.8288 32.4657 53 32.4657Z" fill="#45BBC9"/>
<path d="M38.1014 60H67.8987C67.0958 52.1754 65.4321 44.4576 62.949 36.9863H43.0593V37.0192C40.5679 44.4822 38.9125 52.1836 38.1097 60H38.1014Z" fill="#45BBC9"/>
</g>
<path d="M4.68483 84.4569H2.07719L1.58144 85.9039H0L2.68696 78.8811H4.06514L6.76698 85.9039H5.18554L4.68483 84.4569ZM2.47874 83.2848H4.28327L3.37605 80.656L2.47874 83.2848ZM12.2797 80.0532H10.0686V85.9039H8.58142V80.0532H6.40012V78.8811H12.2797V80.0532ZM17.4751 82.8603H14.6196V84.7415H17.9709V85.9039H13.1324V78.8811H17.961V80.0532H14.6196V81.7268H17.4751V82.8603ZM24.713 85.9039H23.2258L20.3307 81.2831V85.9039H18.8434V78.8811H20.3307L23.2308 83.5115V78.8811H24.713V85.9039ZM31.6783 83.5646C31.6222 84.3202 31.3346 84.9151 30.8158 85.3492C30.3002 85.7833 29.6193 86 28.7733 86C27.8479 86 27.1191 85.6981 26.587 85.0936C26.0582 84.4858 25.7938 83.653 25.7938 82.595V82.1658C25.7938 81.4905 25.9161 80.8956 26.1607 80.3811C26.4053 79.8667 26.7539 79.4727 27.2067 79.1994C27.6628 78.9229 28.1916 78.7846 28.7931 78.7846C29.626 78.7846 30.2969 79.0017 30.8058 79.4358C31.3149 79.8699 31.6089 80.4792 31.6883 81.2638H30.201C30.1647 80.8104 30.0341 80.4824 29.8094 80.2799C29.5879 80.074 29.2492 79.9712 28.7931 79.9712C28.2973 79.9712 27.9255 80.1448 27.6777 80.4921C27.4331 80.8362 27.3075 81.3716 27.3009 82.0983V82.6288C27.3009 83.3877 27.4183 83.9424 27.6529 84.2929C27.8908 84.6434 28.2643 84.8186 28.7733 84.8186C29.2327 84.8186 29.5747 84.7174 29.7995 84.5148C30.0276 84.309 30.1581 83.9923 30.1911 83.5646H31.6783ZM34.2364 85.9039H32.7492V78.8811H34.2364V85.9039ZM41.5487 82.5517C41.5487 83.243 41.4231 83.8491 41.172 84.3701C40.9207 84.891 40.5605 85.293 40.0912 85.576C39.6252 85.8589 39.0898 86 38.485 86C37.8868 86 37.353 85.8605 36.8838 85.5807C36.4144 85.301 36.0508 84.9023 35.793 84.3845C35.5353 83.8636 35.4047 83.2655 35.4014 82.5903V82.2429C35.4014 81.5516 35.5287 80.9439 35.7832 80.4198C36.041 79.8924 36.4029 79.4888 36.8689 79.209C37.3381 78.9261 37.8736 78.7846 38.4751 78.7846C39.0766 78.7846 39.6104 78.9261 40.0764 79.209C40.5456 79.4888 40.9075 79.8924 41.162 80.4198C41.4198 80.9439 41.5487 81.55 41.5487 82.2382V82.5517ZM40.0417 82.2333C40.0417 81.4969 39.9062 80.9375 39.6351 80.5548C39.3641 80.1722 38.9775 79.9808 38.4751 79.9808C37.976 79.9808 37.591 80.1706 37.32 80.55C37.049 80.9262 36.9118 81.4793 36.9085 82.2092V82.5517C36.9085 83.2687 37.044 83.8251 37.3151 84.2206C37.5861 84.6161 37.976 84.8138 38.485 84.8138C38.984 84.8138 39.3674 84.6241 39.6351 84.2446C39.9029 83.862 40.0384 83.3057 40.0417 82.5757V82.2333ZM38.7626 77H40.3242L38.951 78.4952H37.786L38.7626 77ZM48.4992 85.9039H47.0119L44.1167 81.2831V85.9039H42.6295V78.8811H44.1167L47.0168 83.5115V78.8811H48.4992V85.9039ZM56.4014 84.4569H53.7938L53.298 85.9039H51.7165L54.4035 78.8811H55.7817L58.4835 85.9039H56.9021L56.4014 84.4569ZM54.1953 83.2848H55.9998L55.0926 80.656L54.1953 83.2848ZM64.7597 85.0164C64.492 85.3283 64.1136 85.5711 63.6245 85.7448C63.1353 85.9156 62.5933 86 61.9983 86C61.3738 86 60.8251 85.8685 60.3525 85.6049C59.8832 85.338 59.5196 84.9521 59.2618 84.4472C59.0074 83.9424 58.8768 83.3491 58.8702 82.6674V82.19C58.8702 81.489 58.9909 80.8828 59.2321 80.3715C59.4766 79.857 59.827 79.4647 60.283 79.1946C60.7425 78.9212 61.2795 78.7846 61.8942 78.7846C62.7503 78.7846 63.4196 78.984 63.902 79.3827C64.3846 79.7782 64.6705 80.3555 64.7597 81.1143H63.3121C63.246 80.7123 63.0989 80.4182 62.8709 80.2316C62.6462 80.0451 62.3355 79.9519 61.9389 79.9519C61.4332 79.9519 61.0482 80.1368 60.7838 80.5065C60.5194 80.8763 60.3855 81.4262 60.3823 82.1562V82.6048C60.3823 83.3411 60.526 83.8974 60.8136 84.2736C61.1011 84.6498 61.5224 84.838 62.0777 84.838C62.6362 84.838 63.0345 84.7222 63.2724 84.4907V83.28H61.9191V82.214H64.7597V85.0164ZM70.3121 82.8603H67.4566V84.7415H70.8079V85.9039H65.9693V78.8811H70.7979V80.0532H67.4566V81.7268H70.3121V82.8603ZM77.5501 85.9039H76.0628L73.1676 81.2831V85.9039H71.6804V78.8811H73.1676L76.0677 83.5115V78.8811H77.5501V85.9039ZM78.8489 85.9039V78.8811H81.0698C81.7044 78.8811 82.2712 79.0209 82.7702 79.3007C83.2726 79.5772 83.6643 79.9727 83.9452 80.4873C84.2261 80.9985 84.3666 81.5806 84.3666 82.2333V82.5565C84.3666 83.2092 84.2277 83.7897 83.9501 84.2977C83.6758 84.8058 83.2875 85.1997 82.7851 85.4794C82.2828 85.7592 81.716 85.9007 81.0848 85.9039H78.8489ZM80.3361 80.0532V84.7415H81.0549C81.6366 84.7415 82.0811 84.5566 82.3886 84.1868C82.6959 83.817 82.8529 83.2881 82.8595 82.5999V82.2285C82.8595 81.5146 82.7075 80.9744 82.4035 80.6078C82.0993 80.2381 81.6548 80.0532 81.0698 80.0532H80.3361ZM89.4183 84.4569H86.8107L86.3149 85.9039H84.7335L87.4204 78.8811H88.7986L91.5004 85.9039H89.9189L89.4183 84.4569ZM87.2122 83.2848H89.0167L88.1095 80.656L87.2122 83.2848ZM92.1747 85.9039V78.8811H94.7028C95.5787 78.8811 96.2433 79.0451 96.6956 79.373C97.1487 79.6978 97.3749 80.1753 97.3749 80.8056C97.3749 81.1497 97.2844 81.4536 97.1026 81.7172C96.9208 81.9777 96.6679 82.169 96.3439 82.2912C96.714 82.3812 97.0048 82.5629 97.2161 82.8363C97.4312 83.1095 97.5383 83.444 97.5383 83.8395C97.5383 84.5148 97.3177 85.0261 96.8746 85.3734C96.4316 85.7206 95.8002 85.8974 94.9806 85.9039H92.1747ZM93.6617 82.8459V84.7415H94.9363C95.2861 84.7415 95.5594 84.661 95.7541 84.5003C95.9525 84.3363 96.0513 84.1112 96.0513 83.8251C96.0513 83.1819 95.7089 82.8556 95.0249 82.8459H93.6617ZM93.6617 81.8234H94.7628C95.5123 81.8104 95.8879 81.5195 95.8879 80.9503C95.8879 80.632 95.792 80.4037 95.6 80.2654C95.4117 80.1239 95.1126 80.0532 94.7028 80.0532H93.6617V81.8234ZM100.147 84.7415H103.304V85.9039H98.6588V78.8811H100.147V84.7415ZM108.504 82.8603H105.65V84.7415H109V85.9039H104.162V78.8811H108.991V80.0532H105.65V81.7268H108.504V82.8603Z" fill="#36276F"/>
<defs>
<clipPath id="clip0_1_437">
<rect width="98" height="60" fill="white" transform="translate(4)"/>
</clipPath>
</defs>
</svg>
