<svg width="107" height="98" viewBox="0 0 107 98" fill="none" xmlns="http://www.w3.org/2000/svg">
<path d="M10.5147 96.4569H8.00175L7.52401 97.9039H6L8.58937 90.8811H9.9175L12.5212 97.9039H10.9972L10.5147 96.4569ZM8.38872 95.2848H10.1277L9.25343 92.656L8.38872 95.2848ZM17.8337 92.0532H15.703V97.9039H14.2697V92.0532H12.1677V90.8811H17.8337V92.0532ZM22.8404 94.8603H20.0887V96.7415H23.3183V97.9039H18.6555V90.8811H23.3087V92.0532H20.0887V93.7268H22.8404V94.8603ZM29.8155 97.9039H28.3823L25.5923 93.2831V97.9039H24.1591V90.8811H25.5923L28.3871 95.5115V90.8811H29.8155V97.9039ZM36.5278 95.5646C36.4737 96.3202 36.1966 96.9151 35.6966 97.3492C35.1997 97.7833 34.5436 98 33.7283 98C32.8365 98 32.1342 97.6981 31.6214 97.0936C31.1118 96.4858 30.857 95.653 30.857 94.595V94.1658C30.857 93.4905 30.9748 92.8956 31.2105 92.3811C31.4463 91.8667 31.7822 91.4727 32.2186 91.1994C32.6581 90.9229 33.1677 90.7846 33.7474 90.7846C34.55 90.7846 35.1965 91.0017 35.687 91.4358C36.1775 91.8699 36.4609 92.4792 36.5374 93.2638H35.1041C35.0692 92.8104 34.9433 92.4824 34.7267 92.2799C34.5133 92.074 34.1869 91.9712 33.7474 91.9712C33.2696 91.9712 32.9113 92.1448 32.6725 92.4921C32.4368 92.8362 32.3157 93.3716 32.3094 94.0983V94.6288C32.3094 95.3877 32.4225 95.9424 32.6486 96.2929C32.8779 96.6434 33.2377 96.8186 33.7283 96.8186C34.171 96.8186 34.5006 96.7174 34.7172 96.5148C34.937 96.309 35.0628 95.9923 35.0946 95.5646H36.5278ZM38.993 97.9039H37.5598V90.8811H38.993V97.9039ZM46.0397 94.5517C46.0397 95.243 45.9187 95.8491 45.6767 96.3701C45.4345 96.891 45.0874 97.293 44.6352 97.576C44.1861 97.8589 43.6701 98 43.0872 98C42.5108 98 41.9964 97.8605 41.5442 97.5807C41.0919 97.301 40.7415 96.9023 40.4931 96.3845C40.2447 95.8636 40.1189 95.2655 40.1157 94.5903V94.2429C40.1157 93.5516 40.2383 92.9439 40.4836 92.4198C40.732 91.8924 41.0808 91.4888 41.5299 91.209C41.9821 90.9261 42.498 90.7846 43.0777 90.7846C43.6574 90.7846 44.1718 90.9261 44.6209 91.209C45.0731 91.4888 45.4218 91.8924 45.6671 92.4198C45.9155 92.9439 46.0397 93.55 46.0397 94.2382V94.5517ZM44.5874 94.2333C44.5874 93.4969 44.4568 92.9375 44.1956 92.5548C43.9344 92.1722 43.5619 91.9808 43.0777 91.9808C42.5968 91.9808 42.2258 92.1706 41.9645 92.55C41.7034 92.9262 41.5712 93.4793 41.568 94.2092V94.5517C41.568 95.2687 41.6986 95.8251 41.9598 96.2206C42.221 96.6161 42.5968 96.8138 43.0872 96.8138C43.5682 96.8138 43.9377 96.6241 44.1956 96.2446C44.4536 95.862 44.5842 95.3057 44.5874 94.5757V94.2333ZM43.3548 89H44.8597L43.5363 90.4952H42.4136L43.3548 89ZM52.7376 97.9039H51.3044L48.5144 93.2831V97.9039H47.0812V90.8811H48.5144L51.3092 95.5115V90.8811H52.7376V97.9039ZM57.9499 97.9039H56.5167V90.8811H57.9499V97.9039ZM64.9393 97.9039H63.506L60.716 93.2831V97.9039H59.2827V90.8811H60.716L63.5108 95.5115V90.8811H64.9393V97.9039ZM68.0637 90.8811L69.8505 95.9746L71.6277 90.8811H73.51V97.9039H72.072V95.9842L72.2153 92.6706L70.3378 97.9039H69.3536L67.4808 92.6753L67.6242 95.9842V97.9039H66.1909V90.8811H68.0637ZM78.9467 94.8603H76.1949V96.7415H79.4245V97.9039H74.7617V90.8811H79.4149V92.0532H76.1949V93.7268H78.9467V94.8603ZM80.2653 97.9039V90.8811H82.4056C83.0171 90.8811 83.5633 91.0209 84.0442 91.3007C84.5284 91.5772 84.9058 91.9727 85.1765 92.4873C85.4472 92.9985 85.5826 93.5806 85.5826 94.2333V94.5565C85.5826 95.2092 85.4488 95.7897 85.1812 96.2977C84.9169 96.8058 84.5427 97.1997 84.0585 97.4794C83.5745 97.7592 83.0283 97.9007 82.42 97.9039H80.2653ZM81.6985 92.0532V96.7415H82.3912C82.9518 96.7415 83.3801 96.5566 83.6764 96.1868C83.9726 95.817 84.1238 95.2881 84.1302 94.5999V94.2285C84.1302 93.5146 83.9837 92.9744 83.6908 92.6078C83.3977 92.2381 82.9693 92.0532 82.4056 92.0532H81.6985ZM88.1529 97.9039H86.7196V90.8811H88.1529V97.9039ZM93.4988 96.4569H90.9858L90.5081 97.9039H88.9841L91.5735 90.8811H92.9016L95.5053 97.9039H93.9813L93.4988 96.4569ZM91.3729 95.2848H93.1119L92.2376 92.656L91.3729 95.2848ZM100.818 92.0532H98.687V97.9039H97.2541V92.0532H95.1522V90.8811H100.818V92.0532ZM104.993 96.4569H102.481L102.003 97.9039H100.478L103.068 90.8811H104.397L107 97.9039H105.475L104.993 96.4569ZM102.868 95.2848H104.606L103.732 92.656L102.868 95.2848Z" fill="#36276F"/>
<g clip-path="url(#clip0_1_436)">
<path d="M58.087 20.4444C58.087 29.5254 50.7278 36.8889 41.6522 36.8889C32.5765 36.8889 25.2174 29.5254 25.2174 20.4444C25.2174 11.3635 32.5765 4 41.6522 4C50.7278 4 58.087 11.3635 58.087 20.4444Z" fill="#45BBC9"/>
<path d="M17 78H66.3043C65.1083 66.1965 62.643 54.5575 58.9452 43.2839H24.3591V43.3388C20.6704 54.5941 18.1961 66.2148 17 78Z" fill="#45BBC9"/>
<path d="M55.3478 55.1606C55.3478 42.544 65.5647 32.321 78.1739 32.321C90.783 32.321 101 42.544 101 55.1606C101 67.7771 90.783 78.0001 78.1739 78.0001H55.3478V55.1606Z" fill="#36276F"/>
<path d="M86.8296 55.9553C88.7379 54.0185 88.7379 50.9123 86.8296 48.9755C84.8939 47.057 81.7805 47.057 79.8448 48.9755L78.1739 50.6474L76.5031 48.9755C74.5765 47.057 71.4539 47.057 69.5274 48.9755C67.6009 50.9032 67.6009 54.0276 69.5274 55.9553L78.1739 64.6069L86.8296 55.9553Z" fill="white"/>
</g>
<defs>
<clipPath id="clip0_1_436">
<rect width="84" height="74" fill="white" transform="translate(17 4)"/>
</clipPath>
</defs>
</svg>
