<svg width="109" height="98" viewBox="0 0 109 98" fill="none" xmlns="http://www.w3.org/2000/svg">
<g clip-path="url(#clip0_1_440)">
<path d="M22.8298 35.1177C27.7063 35.1177 31.6596 31.187 31.6596 26.3383C31.6596 21.4895 27.7063 17.5588 22.8298 17.5588C17.9532 17.5588 14 21.4895 14 26.3383C14 31.187 17.9532 35.1177 22.8298 35.1177Z" fill="#36276F"/>
<path d="M42.2553 17.5588C47.1319 17.5588 51.0851 13.6282 51.0851 8.77942C51.0851 3.93068 47.1319 0 42.2553 0C37.3788 0 33.4255 3.93068 33.4255 8.77942C33.4255 13.6282 37.3788 17.5588 42.2553 17.5588Z" fill="#36276F"/>
<path d="M88.1702 35.1177C93.0468 35.1177 97 31.187 97 26.3383C97 21.4895 93.0468 17.5588 88.1702 17.5588C83.2937 17.5588 79.3405 21.4895 79.3405 26.3383C79.3405 31.187 83.2937 35.1177 88.1702 35.1177Z" fill="#36276F"/>
<path d="M68.7447 17.5588C73.6213 17.5588 77.5745 13.6282 77.5745 8.77942C77.5745 3.93068 73.6213 0 68.7447 0C63.8681 0 59.9149 3.93068 59.9149 8.77942C59.9149 13.6282 63.8681 17.5588 68.7447 17.5588Z" fill="#36276F"/>
<path d="M55.3587 70.3846C64.2591 70.3846 84.1703 77.1448 86.2629 62.9748C87.4373 54.9768 81.1152 49.2701 75.9763 44.1078C72.5238 40.0869 69.6541 36.6629 66.237 32.6419C60.0473 25.3638 50.9968 25.4604 44.763 32.6419C41.3458 36.6629 38.485 40.0869 35.0237 44.1078C29.8759 49.2701 23.5538 54.9768 24.737 62.9748C26.8208 77.1448 46.7408 70.3846 55.6413 70.3846" fill="#45BBC9"/>
</g>
<path d="M4.68483 96.4569H2.07719L1.58144 97.9039H0L2.68696 90.8811H4.06514L6.76698 97.9039H5.18554L4.68483 96.4569ZM2.47874 95.2848H4.28327L3.37605 92.656L2.47874 95.2848ZM12.2797 92.0532H10.0686V97.9039H8.58142V92.0532H6.40012V90.8811H12.2797V92.0532ZM17.4751 94.8603H14.6196V96.7415H17.9709V97.9039H13.1324V90.8811H17.961V92.0532H14.6196V93.7268H17.4751V94.8603ZM24.713 97.9039H23.2258L20.3307 93.2831V97.9039H18.8434V90.8811H20.3307L23.2308 95.5115V90.8811H24.713V97.9039ZM31.6783 95.5646C31.6222 96.3202 31.3346 96.9151 30.8158 97.3492C30.3002 97.7833 29.6193 98 28.7733 98C27.8479 98 27.1191 97.6981 26.587 97.0936C26.0582 96.4858 25.7938 95.653 25.7938 94.595V94.1658C25.7938 93.4905 25.9161 92.8956 26.1607 92.3811C26.4053 91.8667 26.7539 91.4727 27.2067 91.1994C27.6628 90.9229 28.1916 90.7846 28.7931 90.7846C29.626 90.7846 30.2969 91.0017 30.8058 91.4358C31.3149 91.8699 31.6089 92.4792 31.6883 93.2638H30.201C30.1647 92.8104 30.0341 92.4824 29.8094 92.2799C29.5879 92.074 29.2492 91.9712 28.7931 91.9712C28.2973 91.9712 27.9255 92.1448 27.6777 92.4921C27.4331 92.8362 27.3075 93.3716 27.3009 94.0983V94.6288C27.3009 95.3877 27.4183 95.9424 27.6529 96.2929C27.8908 96.6434 28.2643 96.8186 28.7733 96.8186C29.2327 96.8186 29.5747 96.7174 29.7995 96.5148C30.0276 96.309 30.1581 95.9923 30.1911 95.5646H31.6783ZM34.2364 97.9039H32.7492V90.8811H34.2364V97.9039ZM41.5487 94.5517C41.5487 95.243 41.4231 95.8491 41.172 96.3701C40.9207 96.891 40.5605 97.293 40.0912 97.576C39.6252 97.8589 39.0898 98 38.485 98C37.8868 98 37.353 97.8605 36.8838 97.5807C36.4144 97.301 36.0508 96.9023 35.793 96.3845C35.5353 95.8636 35.4047 95.2655 35.4014 94.5903V94.2429C35.4014 93.5516 35.5287 92.9439 35.7832 92.4198C36.041 91.8924 36.4029 91.4888 36.8689 91.209C37.3381 90.9261 37.8736 90.7846 38.4751 90.7846C39.0766 90.7846 39.6104 90.9261 40.0764 91.209C40.5456 91.4888 40.9075 91.8924 41.162 92.4198C41.4198 92.9439 41.5487 93.55 41.5487 94.2382V94.5517ZM40.0417 94.2333C40.0417 93.4969 39.9062 92.9375 39.6351 92.5548C39.3641 92.1722 38.9775 91.9808 38.4751 91.9808C37.976 91.9808 37.591 92.1706 37.32 92.55C37.049 92.9262 36.9118 93.4793 36.9085 94.2092V94.5517C36.9085 95.2687 37.044 95.8251 37.3151 96.2206C37.5861 96.6161 37.976 96.8138 38.485 96.8138C38.984 96.8138 39.3674 96.6241 39.6351 96.2446C39.9029 95.862 40.0384 95.3057 40.0417 94.5757V94.2333ZM38.7626 89H40.3242L38.951 90.4952H37.786L38.7626 89ZM48.4992 97.9039H47.0119L44.1167 93.2831V97.9039H42.6295V90.8811H44.1167L47.0168 95.5115V90.8811H48.4992V97.9039ZM56.4014 96.4569H53.7938L53.298 97.9039H51.7165L54.4035 90.8811H55.7817L58.4835 97.9039H56.9021L56.4014 96.4569ZM54.1953 95.2848H55.9998L55.0926 92.656L54.1953 95.2848ZM64.7597 97.0164C64.492 97.3283 64.1136 97.5711 63.6245 97.7448C63.1353 97.9156 62.5933 98 61.9983 98C61.3737 98 60.8251 97.8685 60.3525 97.6049C59.8832 97.338 59.5196 96.9521 59.2618 96.4472C59.0074 95.9424 58.8768 95.3491 58.8702 94.6674V94.19C58.8702 93.489 58.9909 92.8828 59.2321 92.3715C59.4766 91.857 59.827 91.4647 60.283 91.1946C60.7425 90.9212 61.2795 90.7846 61.8942 90.7846C62.7503 90.7846 63.4196 90.984 63.902 91.3827C64.3846 91.7782 64.6705 92.3555 64.7597 93.1143H63.3121C63.246 92.7123 63.0989 92.4182 62.8709 92.2316C62.6462 92.0451 62.3355 91.9519 61.9389 91.9519C61.4332 91.9519 61.0482 92.1368 60.7838 92.5065C60.5194 92.8763 60.3855 93.4262 60.3823 94.1562V94.6048C60.3823 95.3411 60.526 95.8974 60.8136 96.2736C61.1011 96.6498 61.5224 96.838 62.0777 96.838C62.6362 96.838 63.0345 96.7222 63.2724 96.4907V95.28H61.9191V94.214H64.7597V97.0164ZM70.3121 94.8603H67.4566V96.7415H70.8079V97.9039H65.9693V90.8811H70.7979V92.0532H67.4566V93.7268H70.3121V94.8603ZM77.5501 97.9039H76.0628L73.1676 93.2831V97.9039H71.6804V90.8811H73.1676L76.0677 95.5115V90.8811H77.5501V97.9039ZM78.8489 97.9039V90.8811H81.0698C81.7044 90.8811 82.2712 91.0209 82.7702 91.3007C83.2726 91.5772 83.6643 91.9727 83.9452 92.4873C84.2261 92.9985 84.3666 93.5806 84.3666 94.2333V94.5565C84.3666 95.2092 84.2277 95.7897 83.9501 96.2977C83.6758 96.8058 83.2875 97.1997 82.7851 97.4794C82.2828 97.7592 81.716 97.9007 81.0848 97.9039H78.8489ZM80.3361 92.0532V96.7415H81.0549C81.6366 96.7415 82.0811 96.5566 82.3886 96.1868C82.6959 95.817 82.8529 95.2881 82.8595 94.5999V94.2285C82.8595 93.5146 82.7075 92.9744 82.4035 92.6078C82.0993 92.2381 81.6548 92.0532 81.0698 92.0532H80.3361ZM89.4183 96.4569H86.8107L86.3149 97.9039H84.7335L87.4204 90.8811H88.7986L91.5004 97.9039H89.9189L89.4183 96.4569ZM87.2122 95.2848H89.0167L88.1095 92.656L87.2122 95.2848ZM92.1747 97.9039V90.8811H94.7028C95.5787 90.8811 96.2433 91.0451 96.6956 91.373C97.1488 91.6978 97.3749 92.1753 97.3749 92.8056C97.3749 93.1497 97.2844 93.4536 97.1026 93.7172C96.9208 93.9777 96.6679 94.169 96.3439 94.2912C96.714 94.3812 97.0048 94.5629 97.2161 94.8363C97.4312 95.1095 97.5383 95.444 97.5383 95.8395C97.5383 96.5148 97.3177 97.0261 96.8746 97.3734C96.4316 97.7206 95.8003 97.8974 94.9806 97.9039H92.1747ZM93.6617 94.8459V96.7415H94.9363C95.2861 96.7415 95.5594 96.661 95.7541 96.5003C95.9526 96.3363 96.0513 96.1112 96.0513 95.8251C96.0513 95.1819 95.7089 94.8556 95.0249 94.8459H93.6617ZM93.6617 93.8234H94.7628C95.5123 93.8104 95.8879 93.5195 95.8879 92.9503C95.8879 92.632 95.7919 92.4037 95.6 92.2654C95.4117 92.1239 95.1126 92.0532 94.7028 92.0532H93.6617V93.8234ZM100.147 96.7415H103.304V97.9039H98.6588V90.8811H100.147V96.7415ZM108.504 94.8603H105.65V96.7415H109V97.9039H104.162V90.8811H108.991V92.0532H105.65V93.7268H108.504V94.8603Z" fill="#36276F"/>
<defs>
<clipPath id="clip0_1_440">
<rect width="83" height="72" fill="white" transform="translate(14)"/>
</clipPath>
</defs>
</svg>
