<svg width="78" height="75" viewBox="0 0 78 75" fill="none" xmlns="http://www.w3.org/2000/svg">
<g clip-path="url(#clip0_0_431)">
<path d="M9.28571 17.5927H68.7143C73.84 17.5927 78 21.7408 78 26.8519V65.7408H0V26.8519C0 21.7408 4.16 17.5927 9.28571 17.5927Z" fill="#45BBC9"/>
<path d="M42.7143 38.8889V28.7037H35.2857V38.8889H25.0714V46.2778L35.2857 46.2963V56.4815H42.7143V46.2963L52.9286 46.2778V38.8889H42.7143Z" fill="white"/>
<path d="M47.3571 0H30.6428C25.5171 0 21.3571 4.14815 21.3571 9.25926V18.5185H27.8571V11.1111C27.8571 8.55556 29.9371 6.48148 32.5 6.48148H45.5C48.0628 6.48148 50.1428 8.55556 50.1428 11.1111V18.5185H56.6428V9.25926C56.6428 4.14815 52.4828 0 47.3571 0Z" fill="#45BBC9"/>
<path d="M78 65.7407H0V75H78V65.7407Z" fill="#36276F"/>
</g>
<defs>
<clipPath id="clip0_0_431">
<rect width="78" height="75" fill="white"/>
</clipPath>
</defs>
</svg>
