<svg width="85" height="75" viewBox="0 0 85 75" fill="none" xmlns="http://www.w3.org/2000/svg">
<g clip-path="url(#clip0_25_588)">
<path d="M41.4549 17.2228C41.4549 26.3038 34.0958 33.6672 25.0201 33.6672C15.9445 33.6672 8.58533 26.3038 8.58533 17.2228C8.58533 8.14178 15.9445 0.77832 25.0201 0.77832C34.0958 0.77832 41.4549 8.14178 41.4549 17.2228Z" fill="#A4CE4E"/>
<path d="M0.36792 74.7783H49.6723C48.4762 62.9748 46.011 51.3358 42.3131 40.0623H7.72705V40.1171C4.03836 51.3724 1.56401 62.9931 0.36792 74.7783Z" fill="#A4CE4E"/>
<path d="M38.7157 51.9388C38.7157 39.3223 48.9327 29.0993 61.5418 29.0993C74.1509 29.0993 84.3679 39.3223 84.3679 51.9388C84.3679 64.5554 74.1509 74.7783 61.5418 74.7783H38.7157V51.9388Z" fill="#0090DA"/>
<path d="M70.1975 52.7336C72.1058 50.7969 72.1058 47.6907 70.1975 45.7539C68.2619 43.8354 65.1484 43.8354 63.2127 45.7539L61.5419 47.4257L59.871 45.7539C57.9445 43.8354 54.8219 43.8354 52.8953 45.7539C50.9688 47.6815 50.9688 50.806 52.8953 52.7336L61.5419 61.3852L70.1975 52.7336Z" fill="white"/>
</g>
<defs>
<clipPath id="clip0_25_588">
<rect width="84" height="74" fill="white" transform="translate(0.36792 0.77832)"/>
</clipPath>
</defs>
</svg>
