<svg width="121" height="69" viewBox="0 0 121 69" fill="none" xmlns="http://www.w3.org/2000/svg">
<g clip-path="url(#clip0_25_550)">
<path d="M121 44.2162C98.7789 32.8806 71.5917 41.7618 60.2858 64.066C82.5069 75.4015 109.694 66.5204 121 44.2162Z" fill="#A4CE4E"/>
<path d="M0 44.2162C22.2211 32.8806 49.4083 41.7618 60.7143 64.066C38.4931 75.4015 11.3059 66.5204 0 44.2162Z" fill="#A4CE4E"/>
<path d="M21.5027 13.4989C46.232 16.5858 63.7896 39.2063 60.7268 64.0281C60.7268 64.0534 60.7268 64.0787 60.7268 64.104C35.9848 61.0171 18.4272 38.3839 21.5027 13.5495C21.5027 13.5369 21.5027 13.5116 21.5027 13.4989Z" fill="#0090DA"/>
<path d="M99.8503 13.4989C75.1209 16.5858 57.5633 39.2063 60.6261 64.0281C60.6261 64.0534 60.6261 64.0787 60.6261 64.104C85.3681 61.0171 102.926 38.3839 99.8503 13.5495C99.8503 13.5369 99.8503 13.5116 99.8503 13.4989Z" fill="#0090DA"/>
<path d="M60.2731 0C42.7533 17.7624 42.892 46.4301 60.5882 64.0154C60.6008 64.028 60.626 64.0534 60.6387 64.066C78.1584 46.2783 78.0072 17.6106 60.2857 0.0126513C60.2857 0.0126513 60.2857 0.0126513 60.2731 0Z" fill="#A4CE4E"/>
</g>
<defs>
<clipPath id="clip0_25_550">
<rect width="121" height="69" fill="white"/>
</clipPath>
</defs>
</svg>
