<svg width="100" height="80" viewBox="0 0 100 80" fill="none" xmlns="http://www.w3.org/2000/svg">
<g clip-path="url(#clip0_25_664)">
<path d="M60.4799 16.23C78.07 16.21 92.35 30.45 92.37 48.04C92.37 54.82 90.22 61.42 86.22 66.89L99.33 80H60.4799C42.8699 79.69 28.85 65.16 29.16 47.55C29.46 30.38 43.3099 16.53 60.4799 16.23Z" fill="#0090DA"/>
<path d="M78.05 40.06H43.08V45.02H78.05V40.06Z" fill="white"/>
<path d="M78.05 52.42H43.08V57.38H78.05V52.42Z" fill="white"/>
<path d="M35.33 0C19.31 0.02 6.35 13.02 6.36 29.03C6.36 35.15 8.31 41.12 11.92 46.07L0 58H35.33C51.35 58 64.33 45.02 64.33 29C64.33 12.98 51.35 0 35.33 0Z" fill="#A4CE4E"/>
<path d="M52.96 19.16H17.73V24.16H52.96V19.16Z" fill="white"/>
<path d="M52.96 31.61H17.73V36.61H52.96V31.61Z" fill="white"/>
</g>
<defs>
<clipPath id="clip0_25_664">
<rect width="99.33" height="80" fill="white"/>
</clipPath>
</defs>
</svg>
