<svg width="109" height="102" viewBox="0 0 109 102" fill="none" xmlns="http://www.w3.org/2000/svg">
<path d="M4.68495 100.457H2.07731L1.58156 101.904H0.00012207L2.68708 94.8811H4.06526L6.7671 101.904H5.18566L4.68495 100.457ZM2.47887 99.2848H4.28339L3.37617 96.656L2.47887 99.2848ZM12.2798 96.0532H10.0688V101.904H8.58154V96.0532H6.40025V94.8811H12.2798V96.0532ZM17.4752 98.8603H14.6198V100.742H17.9711V101.904H13.1325V94.8811H17.9611V96.0532H14.6198V97.7268H17.4752V98.8603ZM24.7132 101.904H23.226L20.3308 97.2831V101.904H18.8436V94.8811H20.3308L23.2309 99.5115V94.8811H24.7132V101.904ZM31.6785 99.5646C31.6223 100.32 31.3347 100.915 30.8159 101.349C30.3003 101.783 29.6194 102 28.7734 102C27.848 102 27.1192 101.698 26.5871 101.094C26.0583 100.486 25.7939 99.653 25.7939 98.595V98.1658C25.7939 97.4905 25.9162 96.8956 26.1608 96.3811C26.4054 95.8667 26.754 95.4727 27.2068 95.1994C27.6629 94.9229 28.1918 94.7846 28.7933 94.7846C29.6261 94.7846 30.297 95.0017 30.806 95.4358C31.315 95.8699 31.609 96.4792 31.6884 97.2638H30.2011C30.1648 96.8104 30.0342 96.4824 29.8095 96.2799C29.5881 96.074 29.2493 95.9712 28.7933 95.9712C28.2974 95.9712 27.9257 96.1448 27.6778 96.4921C27.4332 96.8362 27.3076 97.3716 27.3011 98.0983V98.6288C27.3011 99.3877 27.4184 99.9424 27.653 100.293C27.8909 100.643 28.2644 100.819 28.7734 100.819C29.2328 100.819 29.5749 100.717 29.7996 100.515C30.0277 100.309 30.1582 99.9923 30.1912 99.5646H31.6785ZM34.2365 101.904H32.7493V94.8811H34.2365V101.904ZM41.5489 98.5517C41.5489 99.243 41.4233 99.8491 41.1721 100.37C40.9209 100.891 40.5606 101.293 40.0914 101.576C39.6253 101.859 39.0899 102 38.4851 102C37.8869 102 37.3531 101.861 36.8839 101.581C36.4145 101.301 36.051 100.902 35.7932 100.385C35.5354 99.8636 35.4049 99.2655 35.4015 98.5903V98.2429C35.4015 97.5516 35.5288 96.9439 35.7833 96.4198C36.0411 95.8924 36.403 95.4888 36.869 95.209C37.3383 94.9261 37.8737 94.7846 38.4752 94.7846C39.0767 94.7846 39.6105 94.9261 40.0765 95.209C40.5458 95.4888 40.9077 95.8924 41.1621 96.4198C41.4199 96.9439 41.5489 97.55 41.5489 98.2382V98.5517ZM40.0418 98.2333C40.0418 97.4969 39.9063 96.9375 39.6352 96.5548C39.3642 96.1722 38.9776 95.9808 38.4752 95.9808C37.9761 95.9808 37.5912 96.1706 37.3201 96.55C37.0491 96.9262 36.9119 97.4793 36.9086 98.2092V98.5517C36.9086 99.2687 37.0441 99.8251 37.3152 100.221C37.5862 100.616 37.9761 100.814 38.4851 100.814C38.9841 100.814 39.3676 100.624 39.6352 100.245C39.903 99.862 40.0385 99.3057 40.0418 98.5757V98.2333ZM38.7627 93H40.3243L38.9511 94.4952H37.7861L38.7627 93ZM48.4993 101.904H47.012L44.1168 97.2831V101.904H42.6296V94.8811H44.1168L47.017 99.5115V94.8811H48.4993V101.904ZM56.4015 100.457H53.7939L53.2981 101.904H51.7167L54.4036 94.8811H55.7818L58.4836 101.904H56.9022L56.4015 100.457ZM54.1954 99.2848H55.9999L55.0927 96.656L54.1954 99.2848ZM64.7598 101.016C64.4921 101.328 64.1137 101.571 63.6246 101.745C63.1354 101.916 62.5934 102 61.9985 102C61.3739 102 60.8252 101.869 60.3526 101.605C59.8833 101.338 59.5198 100.952 59.262 100.447C59.0075 99.9424 58.8769 99.3491 58.8703 98.6674V98.19C58.8703 97.489 58.991 96.8828 59.2323 96.3715C59.4768 95.857 59.8271 95.4647 60.2832 95.1946C60.7426 94.9212 61.2796 94.7846 61.8943 94.7846C62.7504 94.7846 63.4197 94.984 63.9021 95.3827C64.3847 95.7782 64.6706 96.3555 64.7598 97.1143H63.3123C63.2462 96.7123 63.099 96.4182 62.8711 96.2316C62.6463 96.0451 62.3356 95.9519 61.939 95.9519C61.4333 95.9519 61.0483 96.1368 60.7839 96.5065C60.5196 96.8763 60.3856 97.4262 60.3824 98.1562V98.6048C60.3824 99.3411 60.5261 99.8974 60.8137 100.274C61.1012 100.65 61.5226 100.838 62.0778 100.838C62.6363 100.838 63.0346 100.722 63.2726 100.491V99.28H61.9192V98.214H64.7598V101.016ZM70.3122 98.8603H67.4567V100.742H70.808V101.904H65.9695V94.8811H70.798V96.0532H67.4567V97.7268H70.3122V98.8603ZM77.5502 101.904H76.0629L73.1677 97.2831V101.904H71.6805V94.8811H73.1677L76.0679 99.5115V94.8811H77.5502V101.904ZM78.849 101.904V94.8811H81.0699C81.7045 94.8811 82.2713 95.0209 82.7704 95.3007C83.2728 95.5772 83.6644 95.9727 83.9453 96.4873C84.2262 96.9985 84.3667 97.5806 84.3667 98.2333V98.5565C84.3667 99.2092 84.2279 99.7897 83.9502 100.298C83.6759 100.806 83.2876 101.2 82.7852 101.479C82.2829 101.759 81.7161 101.901 81.0849 101.904H78.849ZM80.3363 96.0532V100.742H81.0551C81.6367 100.742 82.0813 100.557 82.3887 100.187C82.6961 99.817 82.853 99.2881 82.8596 98.5999V98.2285C82.8596 97.5146 82.7076 96.9744 82.4036 96.6078C82.0994 96.2381 81.6549 96.0532 81.0699 96.0532H80.3363ZM89.4184 100.457H86.8108L86.315 101.904H84.7336L87.4205 94.8811H88.7987L91.5005 101.904H89.9191L89.4184 100.457ZM87.2123 99.2848H89.0168L88.1096 96.656L87.2123 99.2848ZM92.1749 101.904V94.8811H94.7029C95.5789 94.8811 96.2434 95.0451 96.6957 95.373C97.1489 95.6978 97.375 96.1753 97.375 96.8056C97.375 97.1497 97.2846 97.4536 97.1027 97.7172C96.9209 97.9777 96.668 98.169 96.344 98.2912C96.7141 98.3812 97.0049 98.5629 97.2163 98.8363C97.4313 99.1095 97.5384 99.444 97.5384 99.8395C97.5384 100.515 97.3178 101.026 96.8747 101.373C96.4317 101.721 95.8004 101.897 94.9808 101.904H92.1749ZM93.6618 98.8459V100.742H94.9365C95.2863 100.742 95.5595 100.661 95.7542 100.5C95.9527 100.336 96.0514 100.111 96.0514 99.8251C96.0514 99.1819 95.709 98.8556 95.0251 98.8459H93.6618ZM93.6618 97.8234H94.7629C95.5124 97.8104 95.8881 97.5195 95.8881 96.9503C95.8881 96.632 95.7921 96.4037 95.6001 96.2654C95.4118 96.1239 95.1127 96.0532 94.7029 96.0532H93.6618V97.8234ZM100.147 100.742H103.304V101.904H98.6589V94.8811H100.147V100.742ZM108.504 98.8603H105.65V100.742H109V101.904H104.162V94.8811H108.991V96.0532H105.65V97.7268H108.504V98.8603Z" fill="#36276F"/>
<g clip-path="url(#clip0_1_439)">
<path d="M62.48 16.23C80.07 16.21 94.35 30.45 94.37 48.04C94.37 54.82 92.22 61.42 88.22 66.89L101.33 80H62.48C44.87 79.69 30.85 65.16 31.16 47.55C31.46 30.38 45.31 16.53 62.48 16.23Z" fill="#36276F"/>
<path d="M80.05 40.0601H45.08V45.0201H80.05V40.0601Z" fill="white"/>
<path d="M80.05 52.42H45.08V57.38H80.05V52.42Z" fill="white"/>
<path d="M37.33 0C21.31 0.02 8.35 13.02 8.36 29.03C8.36 35.15 10.31 41.12 13.92 46.07L2 58H37.33C53.35 58 66.33 45.02 66.33 29C66.33 12.98 53.35 0 37.33 0Z" fill="#45BBC9"/>
<path d="M54.96 19.16H19.73V24.16H54.96V19.16Z" fill="white"/>
<path d="M54.96 31.61H19.73V36.61H54.96V31.61Z" fill="white"/>
</g>
<defs>
<clipPath id="clip0_1_439">
<rect width="99.33" height="80" fill="white" transform="translate(2)"/>
</clipPath>
</defs>
</svg>
