<svg width="83" height="72" viewBox="0 0 83 72" fill="none" xmlns="http://www.w3.org/2000/svg">
<g clip-path="url(#clip0_2320_534)">
<path d="M8.82979 35.1177C13.7063 35.1177 17.6596 31.187 17.6596 26.3383C17.6596 21.4895 13.7063 17.5588 8.82979 17.5588C3.95323 17.5588 0 21.4895 0 26.3383C0 31.187 3.95323 35.1177 8.82979 35.1177Z" fill="#0090DA"/>
<path d="M28.2553 17.5588C33.1319 17.5588 37.0851 13.6282 37.0851 8.77942C37.0851 3.93068 33.1319 0 28.2553 0C23.3788 0 19.4255 3.93068 19.4255 8.77942C19.4255 13.6282 23.3788 17.5588 28.2553 17.5588Z" fill="#0090DA"/>
<path d="M74.1702 35.1177C79.0468 35.1177 83 31.187 83 26.3383C83 21.4895 79.0468 17.5588 74.1702 17.5588C69.2937 17.5588 65.3405 21.4895 65.3405 26.3383C65.3405 31.187 69.2937 35.1177 74.1702 35.1177Z" fill="#0090DA"/>
<path d="M54.7447 17.5588C59.6213 17.5588 63.5745 13.6282 63.5745 8.77942C63.5745 3.93068 59.6213 0 54.7447 0C49.8681 0 45.9149 3.93068 45.9149 8.77942C45.9149 13.6282 49.8681 17.5588 54.7447 17.5588Z" fill="#0090DA"/>
<path d="M41.3587 70.3846C50.2591 70.3846 70.1703 77.1447 72.2629 62.9748C73.4373 54.9767 67.1152 49.2701 61.9763 44.1078C58.5238 40.0868 55.6541 36.6628 52.237 32.6419C46.0473 25.3637 36.9968 25.4603 30.763 32.6419C27.3458 36.6628 24.485 40.0868 21.0237 44.1078C15.8759 49.2701 9.5538 54.9767 10.737 62.9748C12.8208 77.1447 32.7408 70.3846 41.6413 70.3846" fill="#A4CE4E"/>
</g>
<defs>
<clipPath id="clip0_2320_534">
<rect width="83" height="72" fill="white"/>
</clipPath>
</defs>
</svg>
