<svg width="70" height="87" viewBox="0 0 70 87" fill="none" xmlns="http://www.w3.org/2000/svg">
<g clip-path="url(#clip0_2318_454)">
<path d="M59 6.5V0H6.51C2.92 0 0.01 2.91 0 6.5V80.5V80.9C0.23 84.33 3.07 87 6.51 87H58.94V80.89L59 6.5Z" fill="#0090DA"/>
<path d="M0 7V81.1C0 84.36 2.65 87 5.91 87H70V13H5.89C2.62 12.94 0 10.27 0 7Z" fill="#A4CE4E"/>
<path d="M52.11 43.23V46.02L50.78 46.68V43.23H52.11Z" fill="white"/>
<path d="M51.44 54.07C52.1745 54.07 52.77 53.4746 52.77 52.74C52.77 52.0055 52.1745 51.41 51.44 51.41C50.7054 51.41 50.11 52.0055 50.11 52.74C50.11 53.4746 50.7054 54.07 51.44 54.07Z" fill="white"/>
<path d="M35 56.92L24.39 51.62V59.62C24.39 62.55 29.14 64.92 35 64.92C40.86 64.92 45.6 62.55 45.6 59.62V51.62L35 56.92Z" fill="white"/>
<path d="M52.11 46.02V43.23H50.78V46.68L45.59 49.28L34.99 54.58L13.77 43.98L34.99 33.37L56.19 43.98L52.11 46.02Z" fill="white"/>
<path d="M52.1 43.23H50.78V52.74H52.1V43.23Z" fill="white"/>
<path d="M51.44 52.51C49.23 54.17 48.78 57.3 50.44 59.51C50.72 59.89 51.06 60.23 51.44 60.51C53.65 58.85 54.1 55.72 52.44 53.51C52.16 53.13 51.82 52.79 51.44 52.51Z" fill="white"/>
</g>
<defs>
<clipPath id="clip0_2318_454">
<rect width="70" height="87" fill="white"/>
</clipPath>
</defs>
</svg>
