<svg width="183" height="39" viewBox="0 0 183 39" fill="none" xmlns="http://www.w3.org/2000/svg">
<g clip-path="url(#clip0_370_4308)">
<mask id="mask0_370_4308" style="mask-type:luminance" maskUnits="userSpaceOnUse" x="0" y="0" width="183" height="39">
<path d="M183 0H0V38.371H183V0Z" fill="white"/>
</mask>
<g mask="url(#mask0_370_4308)">
<path d="M161.569 14.1324V10.4987C161.569 10.3286 161.428 10.1902 161.256 10.1902H157.924C157.752 10.1902 157.612 10.0518 157.612 9.88164V6.73422C157.612 6.56403 157.752 6.42565 157.924 6.42565H161.256C161.428 6.42565 161.569 6.28726 161.569 6.11708V2.66111C161.569 2.49093 161.709 2.35254 161.881 2.35254H164.956C165.128 2.35254 165.268 2.49093 165.268 2.66111V6.11894C165.268 6.28913 165.408 6.42751 165.58 6.42751H169.269C169.441 6.42751 169.58 6.56591 169.58 6.73608V9.88348C169.58 10.0536 169.441 10.1921 169.269 10.1921H165.58C165.408 10.1921 165.268 10.3304 165.268 10.5006V14.11M84.6001 24.5059C85.9726 24.5059 87.1695 24.2834 88.1886 23.8383C89.2069 23.3932 89.9957 22.7779 90.5528 21.9925C91.1106 21.207 91.3888 20.3168 91.3888 19.3201C91.3682 18.1961 91.056 17.2948 90.4569 16.614C89.8555 15.9352 89.1427 15.4209 88.3169 15.0712C87.4905 14.7215 86.436 14.3755 85.1484 14.037C84.1825 13.7621 83.4527 13.534 82.9612 13.3525C82.4676 13.173 82.0485 12.9224 81.7061 12.6045C81.3622 12.2866 81.1918 11.8938 81.1918 11.4263C81.1918 10.8335 81.4485 10.3548 81.9629 9.9938C82.4772 9.63289 83.218 9.45336 84.1825 9.45336C85.1469 9.45336 85.952 9.68713 86.5305 10.1547C87.109 10.6222 87.43 11.2468 87.4964 12.0323H91.1638C91.0789 10.293 90.4192 8.91853 89.1847 7.91055C87.9517 6.90252 86.3261 6.39947 84.3109 6.39947C82.959 6.39947 81.7644 6.62201 80.7232 7.06709C79.6835 7.51216 78.8836 8.12373 78.3257 8.89794C77.7686 9.67215 77.4904 10.5268 77.4904 11.46C77.4904 12.6063 77.7967 13.5284 78.4069 14.2297C79.0179 14.929 79.7418 15.449 80.5793 15.7893C81.4168 16.1278 82.4978 16.4794 83.829 16.8384C85.2015 17.2199 86.2051 17.5715 86.8367 17.8894C87.4698 18.2073 87.7857 18.6954 87.7857 19.3537C87.7857 19.969 87.5001 20.4739 86.9326 20.8648C86.3637 21.2575 85.566 21.4539 84.5359 21.4539C83.5058 21.4539 82.7288 21.2051 82.0743 20.7058C81.4205 20.2084 81.0611 19.5875 80.9969 18.8432H77.2012C77.2447 19.9035 77.5871 20.8648 78.2298 21.7231C78.8725 22.5834 79.7477 23.2623 80.8516 23.7598C81.9555 24.2572 83.2048 24.5078 84.5987 24.5078L84.6001 24.5059ZM115.25 6.39759C113.941 6.39759 112.719 6.7099 111.582 7.33639C110.446 7.96287 109.608 8.80629 109.073 9.86666C108.473 8.74268 107.614 7.88244 106.5 7.28777C105.385 6.69494 104.119 6.39759 102.705 6.39759C101.654 6.39759 100.667 6.59956 99.7441 7.00164C98.8217 7.4056 98.0602 7.96663 97.461 8.68845V6.68372H93.7937V24.2198H97.461V14.4166C97.461 12.8476 97.8632 11.6432 98.6668 10.8054C99.4718 9.9676 100.559 9.54877 101.931 9.54877C103.304 9.54877 104.387 9.9676 105.181 10.8054C105.975 11.6432 106.372 12.8476 106.372 14.4166V24.2198H110.008V14.4166C110.008 12.8476 110.41 11.6432 111.213 10.8054C112.017 9.9676 113.106 9.54877 114.479 9.54877C115.851 9.54877 116.934 9.9676 117.728 10.8054C118.522 11.6432 118.919 12.8476 118.919 14.4166V24.2198H122.554V13.8762C122.554 12.2847 122.237 10.927 121.605 9.80305C120.972 8.67915 120.104 7.83012 118.998 7.25597C117.894 6.68372 116.645 6.39759 115.25 6.39759ZM125.292 15.3722C125.292 17.1339 125.662 18.7085 126.401 20.0981C127.14 21.4875 128.144 22.5703 129.409 23.3445C130.673 24.1187 132.069 24.5059 133.59 24.5059C134.963 24.5059 136.186 24.2291 137.258 23.6793C138.33 23.1276 139.177 22.4376 139.798 21.611V24.2216H143.498V6.68372H139.798V9.22896C139.177 8.42295 138.345 7.74969 137.305 7.20735C136.264 6.66689 135.048 6.39572 133.653 6.39572C132.109 6.39572 130.698 6.77349 129.422 7.52529C128.146 8.27891 127.139 9.33367 126.397 10.6913C125.656 12.0491 125.287 13.6087 125.287 15.3704L125.292 15.3722ZM139.8 15.4358C139.8 16.6458 139.549 17.7005 139.044 18.602C138.539 19.5033 137.882 20.1878 137.067 20.6553C136.252 21.121 135.371 21.3548 134.428 21.3548C133.485 21.3548 132.632 21.1154 131.806 20.6385C130.98 20.1616 130.314 19.466 129.811 18.5533C129.307 17.6407 129.055 16.5803 129.055 15.3704C129.055 14.1604 129.307 13.1169 129.811 12.2361C130.314 11.3552 130.974 10.6877 131.791 10.2313C132.605 9.77501 133.485 9.54685 134.43 9.54685C135.375 9.54685 136.252 9.78062 137.069 10.2482C137.883 10.7138 138.543 11.3926 139.046 12.2847C139.549 13.1749 139.803 14.2259 139.803 15.4358H139.8ZM150.358 9.22896V6.68372H146.691V24.2198H150.358V14.9907C150.358 13.2085 150.729 11.9574 151.468 11.2355C152.209 10.5137 153.296 10.1527 154.733 10.1527H155.667V6.39759C154.443 6.39759 153.387 6.64632 152.498 7.14564C151.608 7.64498 150.896 8.33876 150.358 9.23081V9.22896ZM168.055 34.481C167.723 33.9219 167.56 33.2655 167.56 32.51C167.56 31.7544 167.726 31.1074 168.06 30.5482C168.081 30.5146 168.102 30.4809 168.126 30.4472H167.332C166.582 30.4472 166.051 30.249 165.738 29.8488C165.427 29.4505 165.272 28.7922 165.272 27.8739V15.7669H161.572V27.8739C161.572 30.2696 162.013 32.0013 162.892 33.0635C163.771 34.1276 165.035 34.6606 166.688 34.6606H168.166C168.129 34.6027 168.09 34.5428 168.053 34.481H168.055ZM140.124 26.8249H138.556V34.5521H142.697V33.3235H140.121V26.8249H140.124ZM144.488 27.6888C144.764 27.6888 144.993 27.6028 145.177 27.4289C145.36 27.255 145.451 27.0399 145.451 26.7818C145.451 26.5237 145.36 26.3068 145.177 26.1348C144.993 25.9608 144.764 25.8748 144.488 25.8748C144.212 25.8748 143.984 25.9608 143.801 26.1348C143.617 26.3087 143.526 26.5237 143.526 26.7818C143.526 27.0399 143.617 27.2568 143.801 27.4289C143.984 27.6028 144.212 27.6888 144.488 27.6888ZM143.694 28.4201V34.554H145.262V28.4201H143.694ZM147.824 28.4201H146.145L148.428 34.554H150.33L152.625 28.4201H150.958L149.39 33.1252L147.824 28.4201ZM159.272 31.3543C159.272 30.7558 159.143 30.2266 158.886 29.7647C158.629 29.3027 158.266 28.9474 157.801 28.6968C157.334 28.4463 156.807 28.321 156.217 28.321C155.627 28.321 155.064 28.4499 154.595 28.7081C154.124 28.9661 153.759 29.3345 153.498 29.8151C153.238 30.2957 153.107 30.8531 153.107 31.487C153.107 32.121 153.239 32.6671 153.504 33.1477C153.769 33.6283 154.137 33.9986 154.612 34.2604C155.086 34.5222 155.621 34.6531 156.219 34.6531C156.958 34.6531 157.579 34.4624 158.089 34.0827C158.595 33.7031 158.939 33.2169 159.119 32.6278H157.428C157.183 33.1215 156.769 33.3702 156.186 33.3702C155.784 33.3702 155.444 33.2449 155.167 32.9943C154.891 32.7437 154.735 32.3959 154.697 31.9545H159.23C159.26 31.7769 159.275 31.5786 159.275 31.3561L159.272 31.3543ZM154.706 30.911C154.767 30.4977 154.927 30.1742 155.192 29.9423C155.457 29.7104 155.784 29.5945 156.172 29.5945C156.582 29.5945 156.928 29.7142 157.211 29.9535C157.495 30.1929 157.64 30.5127 157.648 30.911H154.705H154.706ZM180.79 27.2344C180.454 26.894 179.902 26.8865 179.554 27.2194C179.21 27.5523 179.202 28.0984 179.539 28.4425C181.862 30.8007 181.815 34.5914 179.43 36.8898C179.257 37.0562 179.168 37.275 179.165 37.4976C179.161 37.7182 179.246 37.9408 179.414 38.1109C179.751 38.4513 180.302 38.4588 180.651 38.1259C183.726 35.1618 183.791 30.2733 180.79 27.2344ZM178.399 29.5403C178.062 29.1999 177.51 29.1924 177.163 29.5253C176.819 29.8582 176.811 30.4042 177.147 30.7484C178.187 31.8012 178.166 33.4955 177.099 34.5222C176.927 34.6887 176.837 34.9075 176.834 35.13C176.83 35.3507 176.915 35.5732 177.083 35.7434C177.42 36.0838 177.971 36.0912 178.318 35.7584C180.077 34.0677 180.114 31.2776 178.401 29.5403H178.399ZM172.62 36.1642C173.35 36.1642 174.002 36.0127 174.582 35.7116C175.162 35.4105 175.62 34.9766 175.955 34.4156C176.288 33.8509 176.456 33.1944 176.456 32.4501C176.456 31.7058 176.289 31.0513 175.955 30.494C175.622 29.9386 175.164 29.5085 174.588 29.2073C174.011 28.9063 173.359 28.7548 172.63 28.7548C171.9 28.7548 171.248 28.9063 170.671 29.2073C170.094 29.5085 169.637 29.9386 169.304 30.494C168.971 31.0494 168.803 31.7058 168.803 32.4501C168.803 33.1944 168.97 33.8639 169.299 34.4194C169.627 34.9748 170.08 35.4049 170.656 35.706C171.232 36.0071 171.884 36.1586 172.618 36.1623L172.62 36.1642ZM172.614 33.9686C172.257 33.9686 171.966 33.8415 171.743 33.5815C171.52 33.3272 171.404 32.9495 171.404 32.4501C171.404 31.9508 171.524 31.588 171.756 31.3281C171.989 31.0681 172.28 30.941 172.628 30.941C172.975 30.941 173.267 31.0681 173.505 31.3281C173.743 31.588 173.862 31.9601 173.862 32.4501C173.862 32.9401 173.743 33.3123 173.505 33.5759C173.267 33.8396 172.971 33.9724 172.614 33.9668V33.9686Z" fill="url(#paint0_linear_370_4308)"/>
<path d="M24.8684 7.30435C25.9403 7.86729 26.7872 8.71071 27.4092 9.83461C28.0311 10.9586 28.343 12.3275 28.343 13.9395V24.2195H25.4469V14.3528C25.4469 12.6136 25.0121 11.2821 24.1444 10.3582C23.2767 9.43444 22.1009 8.97436 20.6207 8.97436C19.1405 8.97436 17.8852 9.45688 16.9854 10.4218C16.0856 11.3868 15.6337 12.7819 15.6337 14.6071V24.2195H12.7376V14.3528C12.7376 12.6136 12.3028 11.2821 11.4351 10.3582C10.5674 9.43444 9.39159 8.97436 7.91327 8.97436C6.43498 8.97436 5.17785 9.45688 4.27802 10.4218C3.37628 11.3868 2.92637 12.7819 2.92637 14.6071V24.2195H0V6.77886H2.92826V9.29225C3.50672 8.37968 4.28368 7.68023 5.26104 7.19215C6.23649 6.70405 7.31403 6.46094 8.49364 6.46094C9.97387 6.46094 11.282 6.79007 12.4182 7.44838C13.5543 8.10666 14.4012 9.07162 14.9588 10.3452C15.4523 9.11464 16.2671 8.1609 17.4032 7.48018C18.5393 6.80129 19.804 6.46094 21.1991 6.46094C22.5943 6.46094 23.7947 6.74145 24.8665 7.30435H24.8684Z" fill="#36276F"/>
<path d="M47.9684 16.5824H33.8772C33.985 18.3011 34.5786 19.6438 35.6618 20.6088C36.745 21.5738 38.0588 22.0563 39.6034 22.0563C40.868 22.0563 41.9248 21.7645 42.7717 21.181C43.6186 20.5976 44.2141 19.8177 44.5562 18.8415H47.7094C47.2368 20.5171 46.2936 21.8804 44.8776 22.9314C43.4617 23.9825 41.7036 24.5061 39.6014 24.5061C37.9284 24.5061 36.4331 24.1358 35.1136 23.3915C33.7941 22.6491 32.76 21.5924 32.0095 20.2254C31.259 18.8565 30.8828 17.2706 30.8828 15.4678C30.8828 13.6651 31.2477 12.0829 31.9774 10.7252C32.7071 9.3675 33.7298 8.32212 35.0493 7.59093C36.3688 6.8597 37.8849 6.49316 39.6014 6.49316C41.3179 6.49316 42.7546 6.85409 44.0421 7.57595C45.3294 8.29784 46.32 9.28899 47.0176 10.5513C47.7151 11.8137 48.063 13.2405 48.063 14.832C48.063 15.3837 48.0308 15.9672 47.9665 16.5824H47.9684ZM44.301 11.3798C43.8076 10.585 43.1365 9.97908 42.2896 9.56578C41.4427 9.15248 40.5032 8.94491 39.4748 8.94491C37.9946 8.94491 36.7356 9.41244 35.6939 10.3456C34.6542 11.2787 34.0587 12.5729 33.9075 14.2279H45.0383C45.0383 13.1246 44.7907 12.1746 44.2991 11.3798H44.301Z" fill="#36276F"/>
<path d="M50.7664 10.7423C51.4962 9.39575 52.4981 8.35036 53.7741 7.60796C55.0502 6.86553 56.4812 6.49337 58.0692 6.49337C59.4416 6.49337 60.7177 6.80568 61.8973 7.43219C63.0769 8.05867 63.9768 8.87966 64.6006 9.89885V0.667969H67.561V24.2202H64.6006V20.9419C64.0221 21.9817 63.1638 22.8363 62.0277 23.5039C60.8916 24.1715 59.5607 24.5063 58.0389 24.5063C56.5171 24.5063 55.052 24.1248 53.7761 23.3599C52.5 22.5969 51.4962 21.5253 50.7684 20.1452C50.0387 18.7669 49.6738 17.1961 49.6738 15.4344C49.6738 13.6727 50.0387 12.0869 50.7684 10.7404L50.7664 10.7423ZM63.7952 12.0308C63.2583 11.0546 62.5343 10.3065 61.6231 9.78662C60.712 9.26677 59.7081 9.0068 58.6155 9.0068C57.5228 9.0068 56.5247 9.26116 55.623 9.76979C54.7212 10.2785 54.0029 11.0228 53.4679 11.9971C52.931 12.9733 52.6645 14.1197 52.6645 15.4344C52.6645 16.749 52.9329 17.9328 53.4679 18.9202C54.0029 19.9077 54.7232 20.6595 55.623 21.1793C56.5228 21.6993 57.5209 21.9592 58.6155 21.9592C59.7101 21.9592 60.712 21.6993 61.6231 21.1793C62.5343 20.6595 63.2583 19.9058 63.7952 18.9202C64.3302 17.9328 64.5987 16.7828 64.5987 15.468C64.5987 14.1534 64.3302 13.007 63.7952 12.0308Z" fill="#36276F"/>
<path d="M71.4515 3.37369C71.0659 2.99218 70.873 2.52465 70.873 1.97297C70.873 1.42128 71.0659 0.953755 71.4515 0.572254C71.8371 0.190752 72.3097 0 72.8674 0C73.4251 0 73.8598 0.190752 74.2339 0.572254C74.6088 0.953755 74.7977 1.42128 74.7977 1.97297C74.7977 2.52465 74.6102 2.99218 74.2339 3.37369C73.8583 3.75518 73.4024 3.94594 72.8674 3.94594C72.3324 3.94594 71.8371 3.75518 71.4515 3.37369ZM74.2833 6.77915V24.2198H71.355V6.77915H74.2833Z" fill="#36276F"/>
</g>
</g>
<defs>
<linearGradient id="paint0_linear_370_4308" x1="77.2034" y1="18.7366" x2="183.211" y2="20.5845" gradientUnits="userSpaceOnUse">
<stop stop-color="#69BAC8"/>
<stop offset="0.29" stop-color="#0B9DE0"/>
<stop offset="0.44" stop-color="#0C9BE0"/>
<stop offset="0.49" stop-color="#1397E0"/>
<stop offset="0.53" stop-color="#1F8FE0"/>
<stop offset="0.56" stop-color="#3084E0"/>
<stop offset="0.59" stop-color="#4675E0"/>
<stop offset="0.61" stop-color="#6064E0"/>
<stop offset="0.62" stop-color="#7B53E0"/>
<stop offset="1" stop-color="#CB3A8D"/>
</linearGradient>
<clipPath id="clip0_370_4308">
<rect width="183" height="38.371" fill="white"/>
</clipPath>
</defs>
</svg>
