<svg width="334" height="169" viewBox="0 0 334 169" fill="none" xmlns="http://www.w3.org/2000/svg">
<path d="M309.617 108.257C312.818 108.257 315.299 107.296 316.98 105.295C318.42 103.615 319.141 101.294 319.141 98.4126C319.141 95.5315 318.42 93.2105 316.98 91.5299C315.299 89.5291 312.818 88.5687 309.617 88.5687H265.199V108.417H309.617V108.257ZM311.458 77.7644C320.981 77.7644 327.544 80.8856 331.146 87.0481C332.906 90.1693 333.787 93.9308 333.787 98.2526C333.787 107.216 330.345 113.219 323.382 116.42C319.941 118.02 316.019 118.821 311.378 118.821H265.119V144.111H251.114V77.6843H311.458V77.7644Z" fill="#004E91"/>
<path d="M92.5698 129.865C87.4477 129.865 83.3661 128.424 80.4049 125.623C77.4438 122.822 76.0032 118.901 76.0032 113.779C76.0032 108.737 77.4438 104.815 80.4049 102.014C83.3661 99.2128 87.2877 97.7722 92.4097 97.7722H139.228V95.2912C139.228 91.8499 137.948 89.769 135.387 89.0487C134.587 88.8086 133.386 88.7286 131.785 88.7286H79.3645V77.7642H135.227C140.749 77.7642 145.151 79.2048 148.352 82.086C150.353 83.8467 151.713 86.0075 152.434 88.3285C152.914 90.0892 153.154 94.731 153.154 97.9323V129.785L92.5698 129.865ZM139.228 118.821V108.256H94.4906C91.5294 108.256 90.0888 110.017 90.0888 113.619C90.0888 117.14 91.5294 118.821 94.4906 118.821H139.228Z" fill="#004E91"/>
<path d="M237.348 2.13404C238.548 -2.58785 186.368 -1.86757 180.045 37.9083C173.723 77.6042 230.945 99.2929 231.986 95.1313C231.986 95.1313 224.463 85.2873 223.422 77.6843C222.222 70.1613 221.902 66.4798 221.902 66.4798C221.902 66.4798 216.54 69.8411 204.535 63.1985C192.53 56.5558 191.57 48.0724 191.81 48.0724C192.05 48.0724 199.333 40.4694 205.335 37.9884C211.418 35.5074 215.899 35.5874 215.899 35.5874C215.899 35.5874 214.459 29.8251 216.46 23.2625C219.901 12.3781 237.348 2.13404 237.348 2.13404Z" fill="#FBB908"/>
<path d="M236.548 15.0991C236.548 15.0991 243.35 24.9431 243.43 29.4249C243.43 34.0667 239.589 42.6301 239.989 43.9907C240.309 45.2712 248.392 36.3876 255.355 36.3876C263.278 36.5477 267.84 43.3504 267.84 43.3504C267.84 43.3504 261.277 57.196 257.756 57.4361C254.155 57.6762 243.27 56.1556 242.55 56.7958C241.99 57.4361 248.872 66.5597 245.991 71.1216C243.27 75.7634 232.306 81.6858 232.306 81.6858C232.306 81.6858 228.144 74.4829 227.664 69.841C227.184 65.3592 228.224 55.0351 228.864 53.9947C229.585 52.8742 222.942 63.8386 215.419 60.7174C207.896 57.5961 198.692 49.833 198.692 49.833C198.692 49.833 211.017 41.8298 213.658 41.5897C216.299 41.1896 224.223 40.9495 224.223 40.9495C224.223 40.9495 221.101 33.1063 223.022 28.8646C222.862 23.3424 235.107 14.1388 236.548 15.0991Z" fill="#004E91"/>
<path d="M258.956 25.0232C263.598 25.0232 267.52 21.0216 267.52 16.1396C267.52 11.1776 263.598 7.17603 258.956 7.17603C254.315 7.17603 250.393 11.1776 250.393 16.1396C250.393 21.0216 254.315 25.0232 258.956 25.0232Z" fill="#FBB908"/>
<path d="M64.879 77.7642V88.6486H29.5048C28.4644 88.6486 27.504 88.7286 26.7037 88.8086C26.1435 88.9687 25.5032 89.2888 24.7829 89.8491C23.5824 90.9695 22.9422 92.7302 22.9422 95.1312V97.4521L64.879 97.292V108.256L22.9422 108.416V144.031H8.93658V108.416H0.133057V97.4521H8.93658V91.6898C8.93658 89.2088 9.17667 87.208 9.57683 85.6074C10.057 83.9267 10.9374 82.4061 12.378 80.9655C13.7385 79.605 15.2591 78.6446 16.9398 78.3245C18.5404 77.9243 20.5412 77.7642 22.9422 77.7642H64.879Z" fill="#004E91"/>
<path d="M9.33654 162.198C9.33654 166.44 7.97599 167.56 5.495 167.56C4.61465 167.56 3.97439 167.4 3.4942 167.16L3.17407 168.28C3.65426 168.521 4.61465 168.761 5.495 168.761C8.21609 168.761 10.6971 167.4 10.6971 162.518V149.233H9.33654V162.198Z" fill="#004E91"/>
<path d="M25.5031 154.755H24.1426V163.318C24.1426 163.879 24.0626 164.439 23.9025 164.839C23.3423 166.2 21.8217 167.64 19.8209 167.64C17.0998 167.64 16.2194 165.479 16.2194 162.518V154.835H14.8589V162.758C14.8589 167.88 17.8201 168.841 19.5007 168.841C21.9017 168.841 23.5023 167.32 24.1426 166.04H24.2226L24.3027 168.521H25.5832C25.5031 167.48 25.5031 166.36 25.5031 165.159V154.755V154.755Z" fill="#004E91"/>
<path d="M30.065 168.441H31.4256V159.957C31.4256 159.557 31.5056 159.077 31.5857 158.757C32.1459 156.996 33.7465 155.555 35.6673 155.555C38.4684 155.555 39.4288 157.796 39.4288 160.357V168.441H40.7893V160.197C40.7893 155.075 37.348 154.435 35.9874 154.435C33.7465 154.435 31.9858 155.635 31.2655 157.236H31.1855L31.1055 154.755H29.825C29.905 155.876 29.905 156.756 29.905 158.036V168.441H30.065Z" fill="#004E91"/>
<path d="M45.7513 152.194V154.675H43.4304V155.796H45.7513V164.439C45.7513 165.8 45.9914 167 46.6317 167.72C47.1119 168.361 47.9922 168.681 48.9526 168.681C49.7529 168.681 50.3932 168.521 50.8734 168.361L50.7133 167.32C50.3932 167.4 49.833 167.48 49.1127 167.48C47.6721 167.48 47.1119 166.36 47.1119 164.679V155.876H51.0335V154.755H47.1119V151.714L45.7513 152.194Z" fill="#004E91"/>
<path d="M58.9564 167.64C56.1553 167.64 53.9944 165.079 53.9944 161.638C53.9944 158.677 55.595 155.555 59.0364 155.555C62.6378 155.555 64.0784 158.997 64.0784 161.478C64.0784 164.999 61.8375 167.64 58.9564 167.64ZM58.9564 168.761C61.9976 168.761 65.519 166.6 65.519 161.478C65.519 157.316 62.958 154.435 59.1965 154.435C55.8351 154.435 52.7139 156.996 52.7139 161.718C52.6338 165.96 55.3549 168.761 58.9564 168.761Z" fill="#004E91"/>
<path d="M67.76 167.8C68.6404 168.36 69.9209 168.761 71.2014 168.761C74.0025 168.761 75.8432 167.16 75.8432 164.839C75.8432 162.758 74.5627 161.638 72.3218 160.757C70.4811 159.957 69.5207 159.397 69.5207 157.956C69.5207 156.676 70.4011 155.555 72.1618 155.555C73.5223 155.555 74.4027 156.036 74.8829 156.356L75.363 155.235C74.6428 154.755 73.6023 154.355 72.3218 154.355C69.6808 154.355 68.0801 156.036 68.0801 158.036C68.0801 159.717 69.2806 160.917 71.5215 161.798C73.5223 162.598 74.4027 163.398 74.4027 164.919C74.4027 166.36 73.3622 167.48 71.2014 167.48C70.0009 167.48 68.8805 167 68.0801 166.52L67.76 167.8Z" fill="#004E91"/>
<path d="M94.4906 166.76C93.7704 167.08 92.7299 167.56 91.0493 167.56C87.848 167.56 85.6071 165.239 85.6071 161.638C85.6071 158.437 87.5279 155.635 91.1293 155.635C92.6499 155.635 93.6903 156.036 94.3306 156.436L94.8108 155.315C94.3306 154.915 92.89 154.435 91.2093 154.435C87.1277 154.435 84.1665 157.396 84.1665 161.718C84.1665 165.799 86.8076 168.681 90.7291 168.681C92.7299 168.681 94.1705 168.12 94.7307 167.8L94.4906 166.76Z" fill="#004E91"/>
<path d="M103.214 167.64C100.413 167.64 98.2525 165.079 98.2525 161.638C98.2525 158.677 99.8531 155.555 103.294 155.555C106.896 155.555 108.336 158.997 108.336 161.478C108.336 164.999 106.096 167.64 103.214 167.64ZM103.214 168.761C106.256 168.761 109.777 166.6 109.777 161.478C109.777 157.316 107.216 154.435 103.455 154.435C100.093 154.435 96.9719 156.996 96.9719 161.718C96.8919 165.96 99.613 168.761 103.214 168.761Z" fill="#004E91"/>
<path d="M113.138 168.441H114.499V159.957C114.499 159.557 114.579 159.077 114.659 158.757C115.219 156.996 116.82 155.555 118.74 155.555C121.541 155.555 122.502 157.796 122.502 160.357V168.441H123.862V160.197C123.862 155.075 120.421 154.435 119.06 154.435C116.82 154.435 115.059 155.635 114.339 157.236H114.258L114.178 154.755H112.898C112.978 155.876 112.978 156.756 112.978 158.036V168.441H113.138Z" fill="#004E91"/>
<path d="M128.824 152.194V154.675H126.503V155.796H128.824V164.439C128.824 165.8 129.064 167 129.705 167.72C130.185 168.361 131.065 168.681 132.026 168.681C132.826 168.681 133.466 168.521 133.946 168.361L133.786 167.32C133.466 167.4 132.906 167.48 132.186 167.48C130.745 167.48 130.185 166.36 130.185 164.679V155.876H134.106V154.755H130.185V151.714L128.824 152.194Z" fill="#004E91"/>
<path d="M136.987 168.441H138.348V160.918C138.348 160.437 138.348 160.037 138.428 159.637C138.828 157.476 140.109 155.795 142.029 155.795C142.27 155.795 142.51 155.795 142.67 155.795V154.515C142.51 154.515 142.27 154.435 142.11 154.435C140.269 154.435 138.828 155.795 138.268 157.476H138.188L138.108 154.675H136.827C136.907 156.036 136.907 157.396 136.907 158.757V168.441H136.987Z" fill="#004E91"/>
<path d="M152.514 164.039C152.514 164.279 152.514 164.599 152.354 164.839C151.874 166.2 150.593 167.56 148.272 167.56C146.832 167.56 145.551 166.68 145.551 164.679C145.551 161.398 149.473 160.918 152.514 160.998V164.039ZM153.875 159.797C153.875 157.396 153.074 154.435 149.153 154.435C147.952 154.435 146.352 154.755 145.151 155.635L145.551 156.596C146.512 155.876 147.792 155.555 148.993 155.555C152.274 155.555 152.514 158.276 152.514 159.557V159.957C146.912 159.877 144.191 161.798 144.191 164.999C144.191 166.84 145.471 168.761 148.192 168.761C150.353 168.761 151.874 167.56 152.594 166.44H152.674L152.834 168.441H154.115C153.955 167.4 153.955 166.28 153.955 165.159V159.797H153.875Z" fill="#004E91"/>
<path d="M164.519 160.357C164.759 158.277 166.039 155.555 169.081 155.555C172.362 155.555 173.162 158.437 173.162 160.357H164.519ZM174.523 161.478C174.603 161.238 174.603 160.998 174.603 160.678C174.603 158.677 173.722 154.515 169.241 154.515C165.719 154.515 163.078 157.396 163.078 161.958C163.078 165.96 165.559 168.841 169.481 168.841C171.882 168.841 173.242 168.281 173.802 167.96L173.482 166.92C172.682 167.32 171.722 167.72 169.721 167.72C166.92 167.72 164.519 165.96 164.519 161.638H174.523V161.478Z" fill="#004E91"/>
<path d="M179.325 148.192H177.964V168.44H179.325V148.192Z" fill="#004E91"/>
<path d="M199.093 166.04C198.372 166.36 197.412 166.68 196.051 166.68C193.33 166.68 191.25 164.679 191.25 161.478C191.25 158.597 192.93 156.276 196.131 156.276C197.492 156.276 198.452 156.596 199.013 156.916L199.573 154.995C198.853 154.595 197.572 154.275 196.131 154.275C191.65 154.275 188.688 157.396 188.688 161.638C188.688 165.88 191.41 168.681 195.571 168.681C197.412 168.681 198.853 168.2 199.573 167.88L199.093 166.04Z" fill="#004E91"/>
<path d="M208.136 148.673L205.655 152.754H207.416L210.857 148.673H208.136ZM209.657 163.799C209.657 164.039 209.657 164.279 209.577 164.599C209.177 165.8 207.976 166.92 206.215 166.92C204.935 166.92 203.894 166.2 203.894 164.519C203.894 161.878 207.016 161.318 209.737 161.398V163.799H209.657ZM212.058 159.957C212.058 157.236 211.017 154.355 206.776 154.355C205.015 154.355 203.334 154.835 202.214 155.555L202.774 157.236C203.734 156.596 205.095 156.196 206.375 156.196C209.177 156.196 209.497 158.277 209.497 159.397V159.717C204.135 159.717 201.173 161.478 201.173 164.839C201.173 166.84 202.614 168.841 205.415 168.841C207.416 168.841 208.856 167.88 209.657 166.76H209.737L209.897 168.521H212.138C211.978 167.56 211.978 166.44 211.978 165.239V159.957H212.058Z" fill="#004E91"/>
<path d="M216.059 168.441H218.54V160.117C218.54 159.717 218.621 159.237 218.701 158.917C219.181 157.556 220.461 156.356 222.062 156.356C224.463 156.356 225.263 158.196 225.263 160.437V168.361H227.744V160.117C227.744 155.395 224.783 154.275 222.862 154.275C220.541 154.275 219.021 155.555 218.3 156.836L218.14 154.515H215.899C215.979 155.635 215.979 156.836 215.979 158.277V168.441H216.059Z" fill="#004E91"/>
<path d="M241.189 166.04C240.469 166.36 239.509 166.68 238.148 166.68C235.427 166.68 233.346 164.679 233.346 161.478C233.346 158.597 235.027 156.276 238.228 156.276C239.589 156.276 240.549 156.596 241.109 156.916L241.67 154.995C240.949 154.595 239.669 154.275 238.228 154.275C233.746 154.275 230.785 157.396 230.785 161.638C230.785 165.88 233.506 168.681 237.668 168.681C239.509 168.681 240.949 168.2 241.67 167.88L241.189 166.04Z" fill="#004E91"/>
<path d="M245.671 160.197C245.831 158.437 246.952 156.116 249.513 156.116C252.314 156.116 253.034 158.597 252.954 160.197H245.671ZM255.355 161.958C255.435 161.638 255.435 161.318 255.435 160.757C255.435 158.196 254.235 154.275 249.753 154.275C245.751 154.275 243.27 157.556 243.27 161.718C243.27 165.88 245.831 168.681 250.073 168.681C252.234 168.681 253.834 168.2 254.715 167.8L254.235 166.04C253.354 166.44 252.234 166.76 250.393 166.76C247.832 166.76 245.751 165.399 245.671 161.958H255.355V161.958Z" fill="#004E91"/>
<path d="M258.476 168.441H260.957V161.078C260.957 160.677 260.957 160.277 261.037 159.877C261.358 157.956 262.638 156.676 264.399 156.676C264.719 156.676 265.039 156.676 265.279 156.756V154.355C265.039 154.355 264.879 154.275 264.559 154.275C262.878 154.275 261.358 155.475 260.717 157.316H260.637L260.557 154.595H258.316C258.396 155.876 258.396 157.236 258.396 158.917V168.441H258.476Z" fill="#004E91"/>
<path d="M190.369 129.865C179.645 129.865 172.762 125.543 169.721 116.82C168.52 113.459 167.96 109.937 167.96 106.256V77.7642H183.166V104.815C183.166 108.416 184.287 111.298 186.528 113.378C188.288 115.059 190.849 115.859 194.211 115.859H237.988V129.865H190.369Z" fill="#004E91"/>
</svg>
