<svg width="81" height="72" viewBox="0 0 81 72" fill="none" xmlns="http://www.w3.org/2000/svg">
<g clip-path="url(#clip0_836_3437)">
<path d="M22 36.5C22 36.6191 21.8813 36.6191 21.8813 36.7382C27.4625 34.5937 34.1125 32.6875 41 32.6875C46.225 32.6875 51.5687 33.8789 56.2 35.4278C56.0813 34.2363 56.2 33.0449 57.0313 31.6153C52.0437 30.0664 46.5813 28.875 41 28.875C33.6375 28.875 26.6313 30.7812 20.8125 33.0449C21.525 34.1172 22 35.1894 22 36.5ZM61.9 36.5C62.85 36.5 63.8 35.666 63.8 34.5937C63.8 33.6406 62.85 32.6875 61.9 32.6875C60.8313 32.6875 60 33.6406 60 34.5937C60 35.666 60.8313 36.5 61.9 36.5ZM72.35 45.1972L70.2125 48.4141C69.6187 49.2481 68.55 49.4863 67.7187 48.8906C65.1063 47.3418 59.1687 44.2441 52.4 42.2187V58.8984C52.4 59.2559 52.5187 59.375 52.875 59.375H55.725C55.9625 59.375 56.2 59.2559 56.2 58.8984V47.5801C60.5937 49.3672 64.1563 51.2734 65.8187 52.2266C68.1937 53.6562 71.6375 53.1797 73.4187 50.4394L75.5563 47.3418C77.1 44.959 76.8625 41.1465 73.775 39.2403C72.2313 38.4063 70.0937 37.0957 67.4813 35.7851C67.125 37.0957 66.4125 38.2871 65.3437 39.1211C68.1937 40.4316 70.45 41.6231 71.7563 42.457C72.7063 43.0528 72.9437 44.2441 72.35 45.1972ZM52.4 17.4375C52.4 11.2422 47.175 6 41 6C34.7063 6 29.6 11.2422 29.6 17.4375C29.6 23.7519 34.7063 28.875 41 28.875C47.175 28.875 52.4 23.7519 52.4 17.4375ZM41 25.0625C36.725 25.0625 33.4 21.7266 33.4 17.4375C33.4 13.2676 36.725 9.8125 41 9.8125C45.1563 9.8125 48.6 13.2676 48.6 17.4375C48.6 21.7266 45.1563 25.0625 41 25.0625ZM8.4625 50.4394C10.2437 53.1797 13.6875 53.6562 16.0625 52.2266C17.725 51.2734 21.2875 49.2481 25.8 47.5801V58.8984C25.8 59.2559 25.9187 59.375 26.275 59.375H29.125C29.3625 59.375 29.6 59.2559 29.6 58.8984V42.2187C22.7125 44.2441 16.775 47.3418 14.1625 49.0097C13.3313 49.4863 12.2625 49.2481 11.6687 48.4141L9.53125 45.1972C8.9375 44.2441 9.175 43.0528 10.125 42.457C10.8375 42.0996 11.6687 41.6231 12.7375 41.0274C11.6687 40.1934 10.9563 39.1211 10.7187 37.8106C9.76875 38.2871 8.81875 38.8828 8.10625 39.2403C5.01875 41.1465 4.78125 44.959 6.325 47.3418L8.4625 50.4394ZM78.05 63.1875H3.95C3.35625 63.1875 3 63.6641 3 64.1406V66.0469C3 66.6426 3.35625 67 3.95 67H78.05C78.525 67 79 66.6426 79 66.0469V64.1406C79 63.6641 78.525 63.1875 78.05 63.1875ZM16.3 38.4062C17.25 38.4062 18.2 37.5722 18.2 36.5C18.2 35.5469 17.25 34.5937 16.3 34.5937C15.2313 34.5937 14.4 35.5469 14.4 36.5C14.4 37.5722 15.2313 38.4062 16.3 38.4062ZM33.4 42.2187C33.4 43.291 34.2313 44.125 35.3 44.125C36.25 44.125 37.2 43.291 37.2 42.2187C37.2 41.2656 36.25 40.3125 35.3 40.3125C34.2313 40.3125 33.4 41.2656 33.4 42.2187ZM44.8 53.6562C44.8 54.7285 45.6313 55.5625 46.7 55.5625C47.65 55.5625 48.6 54.7285 48.6 53.6562C48.6 52.7031 47.65 51.75 46.7 51.75C45.6313 51.75 44.8 52.7031 44.8 53.6562Z" fill="#7CDA24"/>
</g>
<defs>
<clipPath id="clip0_836_3437">
<rect width="76" height="61" fill="white" transform="translate(3 6)"/>
</clipPath>
</defs>
</svg>
