<svg width="81" height="72" viewBox="0 0 81 72" fill="none" xmlns="http://www.w3.org/2000/svg">
<g clip-path="url(#clip0_668_2512)">
<path d="M37.4625 26.6321H30.375V19.5677C30.375 19.0631 29.8687 18.5585 29.3625 18.5585H23.2875C22.6547 18.5585 22.275 19.0631 22.275 19.5677V26.6321H15.1875C14.5547 26.6321 14.175 27.1367 14.175 27.6413V33.6964C14.175 34.3271 14.5547 34.7056 15.1875 34.7056H22.275V41.7699C22.275 42.4007 22.6547 42.7791 23.2875 42.7791H29.3625C29.8687 42.7791 30.375 42.4007 30.375 41.7699V34.7056H37.4625C37.9687 34.7056 38.475 34.3271 38.475 33.6964V27.6413C38.475 27.1367 37.9687 26.6321 37.4625 26.6321ZM79.9875 50.8527H76.95V37.2286C76.95 35.2102 76.064 33.0657 74.5453 31.5519L63.914 20.9554C62.3953 19.4416 60.3703 18.5585 58.2187 18.5585H52.65V12.3772C52.65 9.09736 49.739 6.44824 46.3219 6.44824H6.20156C2.78438 6.44824 0 9.09736 0 12.3772V49.0865C0 52.3664 2.78438 54.8894 6.20156 54.8894H8.22656C8.1 55.6464 8.1 56.2771 8.1 56.9078C8.1 62.5845 12.5297 66.9997 18.225 66.9997C23.7937 66.9997 28.35 62.5845 28.35 56.9078C28.35 56.2771 28.2235 55.6464 28.0969 54.8894H52.7765C52.65 55.6464 52.65 56.2771 52.65 56.9078C52.65 62.5845 57.0797 66.9997 62.775 66.9997C68.3437 66.9997 72.9 62.5845 72.9 56.9078C72.9 56.2771 72.7735 55.6464 72.6469 54.8894H79.9875C80.4937 54.8894 81 54.511 81 53.8802V51.8618C81 51.3573 80.4937 50.8527 79.9875 50.8527ZM18.225 62.9629C14.8078 62.9629 12.15 60.3138 12.15 56.9078C12.15 53.628 14.8078 50.8527 18.225 50.8527C21.5156 50.8527 24.3 53.628 24.3 56.9078C24.3 60.3138 21.5156 62.9629 18.225 62.9629ZM48.6 50.8527H26.1985C24.4265 48.4558 21.5156 46.8159 18.225 46.8159C14.9344 46.8159 12.0235 48.4558 10.125 50.8527H6.20156C4.93594 50.8527 4.05 50.0957 4.05 49.0865V12.3772C4.05 11.3681 4.93594 10.485 6.20156 10.485H46.3219C47.5875 10.485 48.6 11.3681 48.6 12.3772V50.8527ZM52.65 22.5953H58.2187C59.2312 22.5953 60.2437 23.0999 61.0031 23.8567L71.6344 34.4533C71.761 34.5795 71.761 34.7056 71.8875 34.8317H52.65V22.5953ZM62.775 62.9629C59.3578 62.9629 56.7 60.3138 56.7 56.9078C56.7 53.628 59.3578 50.8527 62.775 50.8527C66.0656 50.8527 68.85 53.628 68.85 56.9078C68.85 60.3138 66.0656 62.9629 62.775 62.9629ZM72.9 50.8527H70.7485C68.9765 48.4558 66.0656 46.8159 62.775 46.8159C59.4844 46.8159 56.5735 48.4558 54.675 50.8527H52.65V38.7424H72.9V50.8527Z" fill="#08395B"/>
<path d="M37.4625 26.6321H30.375V19.5677C30.375 19.0631 29.8687 18.5585 29.3625 18.5585H23.2875C22.6547 18.5585 22.275 19.0631 22.275 19.5677V26.6321H15.1875C14.5547 26.6321 14.175 27.1367 14.175 27.6413V33.6964C14.175 34.3271 14.5547 34.7056 15.1875 34.7056H22.275V41.7699C22.275 42.4007 22.6547 42.7791 23.2875 42.7791H29.3625C29.8687 42.7791 30.375 42.4007 30.375 41.7699V34.7056H37.4625C37.9687 34.7056 38.475 34.3271 38.475 33.6964V27.6413C38.475 27.1367 37.9687 26.6321 37.4625 26.6321ZM79.9875 50.8527H76.95V37.2286C76.95 35.2102 76.064 33.0657 74.5453 31.5519L63.914 20.9554C62.3953 19.4416 60.3703 18.5585 58.2187 18.5585H52.65V12.3772C52.65 9.09736 49.739 6.44824 46.3219 6.44824H6.20156C2.78438 6.44824 0 9.09736 0 12.3772V49.0865C0 52.3664 2.78438 54.8894 6.20156 54.8894H8.22656C8.1 55.6464 8.1 56.2771 8.1 56.9078C8.1 62.5845 12.5297 66.9997 18.225 66.9997C23.7937 66.9997 28.35 62.5845 28.35 56.9078C28.35 56.2771 28.2235 55.6464 28.0969 54.8894H52.7765C52.65 55.6464 52.65 56.2771 52.65 56.9078C52.65 62.5845 57.0797 66.9997 62.775 66.9997C68.3437 66.9997 72.9 62.5845 72.9 56.9078C72.9 56.2771 72.7735 55.6464 72.6469 54.8894H79.9875C80.4937 54.8894 81 54.511 81 53.8802V51.8618C81 51.3573 80.4937 50.8527 79.9875 50.8527ZM18.225 62.9629C14.8078 62.9629 12.15 60.3138 12.15 56.9078C12.15 53.628 14.8078 50.8527 18.225 50.8527C21.5156 50.8527 24.3 53.628 24.3 56.9078C24.3 60.3138 21.5156 62.9629 18.225 62.9629ZM48.6 50.8527H26.1985C24.4265 48.4558 21.5156 46.8159 18.225 46.8159C14.9344 46.8159 12.0235 48.4558 10.125 50.8527H6.20156C4.93594 50.8527 4.05 50.0957 4.05 49.0865V12.3772C4.05 11.3681 4.93594 10.485 6.20156 10.485H46.3219C47.5875 10.485 48.6 11.3681 48.6 12.3772V50.8527ZM52.65 22.5953H58.2187C59.2312 22.5953 60.2437 23.0999 61.0031 23.8567L71.6344 34.4533C71.761 34.5795 71.761 34.7056 71.8875 34.8317H52.65V22.5953ZM62.775 62.9629C59.3578 62.9629 56.7 60.3138 56.7 56.9078C56.7 53.628 59.3578 50.8527 62.775 50.8527C66.0656 50.8527 68.85 53.628 68.85 56.9078C68.85 60.3138 66.0656 62.9629 62.775 62.9629ZM72.9 50.8527H70.7485C68.9765 48.4558 66.0656 46.8159 62.775 46.8159C59.4844 46.8159 56.5735 48.4558 54.675 50.8527H52.65V38.7424H72.9V50.8527Z" fill="#7CDA24"/>
</g>
<defs>
<clipPath id="clip0_668_2512">
<rect width="81" height="61" fill="white" transform="translate(0 6)"/>
</clipPath>
</defs>
</svg>
