<svg width="72" height="72" viewBox="0 0 72 72" fill="none" xmlns="http://www.w3.org/2000/svg">
<path d="M62.0128 48.4867H59.1472L58.789 47.8598C58.6099 47.4121 58.0279 47.0539 57.5354 47.0539H54.4012L53.1922 45.845C53.0579 45.7106 52.8788 45.6211 52.6997 45.6211C52.6997 45.6211 52.6997 45.6211 52.655 45.6211C52.2968 45.6211 51.9833 45.9793 51.9833 46.3375V54.2178H46.9686H46.9238C46.0731 54.2178 45.2671 54.4864 44.5956 54.9342H43.3866C42.1777 54.9342 41.2375 53.9939 41.2375 52.785C41.2375 52.4268 40.8793 52.0686 40.5211 52.0686C40.1181 52.0686 39.8047 52.4268 39.8047 52.785C39.8047 54.7551 41.327 56.3222 43.2523 56.367C42.8941 56.9938 42.6702 57.755 42.6702 58.5161V65.68C42.6702 66.486 43.2971 67.1128 44.103 67.1128H46.9686C47.7297 67.1128 48.4014 66.486 48.4014 65.68V61.3817H52.6997V65.68C52.6997 66.486 53.3266 67.1128 54.1325 67.1128H56.9981C57.7592 67.1128 58.4308 66.486 58.4308 65.68V54.9342H59.8636C61.4307 54.9342 62.7292 53.6805 62.7292 52.0686V49.203C62.7292 48.8449 62.371 48.4867 62.0128 48.4867ZM56.9981 65.68H54.1325V59.9489H46.9686V65.68H44.103V58.5161C44.103 56.949 45.3567 55.6953 46.9686 55.6506H52.252L56.9981 56.8595V65.68ZM61.2964 52.0686C61.2964 52.8745 60.6248 53.5014 59.8636 53.5014H56.9981V55.3819L53.4161 54.4864V48.0837L53.8191 48.4867H57.5354L58.2517 49.9194H61.2964V52.0686ZM56.9981 49.9194C56.9981 49.5612 56.6399 49.203 56.2817 49.203C55.8787 49.203 55.5653 49.5612 55.5653 49.9194C55.5653 50.3224 55.8787 50.6358 56.2817 50.6358C56.6399 50.6358 56.9981 50.3224 56.9981 49.9194Z" fill="#7CDA24"/>
<path d="M37.0879 13.3945C34.5077 22.9534 28.7568 19.0176 27.7734 18.7629L25.7012 19.9406L25.8416 19.4203L27.647 18.3959C27.7736 17.5927 27.6286 15.7198 29.5458 14.3047C31.4641 12.8857 33.1503 13.4482 37.0879 13.3945ZM35.7367 14.7412C36.4755 13.8734 35.5806 14.5874 35.5806 14.5874C34.712 15.3235 33.749 15.5102 32.6936 15.7449C31.3186 16.0501 29.4708 16.5713 28.5582 17.725C27.6466 18.8747 28.1232 18.342 28.6959 17.891C29.2725 17.4411 30.8056 16.996 31.7934 16.7731C33.1655 16.4628 34.4966 16.193 35.7367 14.7412Z" fill="#7CDA24"/>
<path d="M23.2269 10.9574C23.2269 13.4082 21.2379 15.3972 18.7871 15.3972C16.3363 15.3972 14.3473 13.4082 14.3473 10.9574C14.3473 8.50658 16.3363 6.51759 18.7871 6.51759C21.2379 6.51759 23.2269 8.50658 23.2269 10.9574ZM18.7871 20.6757C19.9945 20.6757 21.1467 20.4327 22.1967 20.0015H24.1807C26.2607 20.0015 27.9463 21.6871 27.9463 23.7671V24.4413C27.9463 24.6588 27.7692 24.8359 27.5516 24.8359H10.0226C9.80504 24.8359 9.62794 24.6588 9.62794 24.4413V23.7671C9.62794 21.6871 11.3135 20.0015 13.3936 20.0015H15.3785C16.4291 20.4319 17.5778 20.6757 18.7871 20.6757Z" stroke="#7CDA24" stroke-width="3.25588"/>
<path d="M13.2229 41.8176L18.3652 42.8241C18.7206 42.8936 18.9517 43.2372 18.8807 43.5904L18.7134 44.4449C18.6438 44.8003 18.3002 45.0315 17.9471 44.9604L14.3014 44.2508L13.588 47.8958C13.5184 48.2512 13.1748 48.4823 12.8216 48.4112L11.9649 48.2455C11.6094 48.1759 11.3783 47.8323 11.4494 47.4792L12.4558 42.3369C12.5239 41.9792 12.8675 41.7481 13.2229 41.8176V41.8176Z" fill="#7CDA24"/>
<path d="M14.1348 43.3896C15.4367 48.1322 20.049 57.2826 28.0835 55.9436" stroke="#7CDA24" stroke-width="4.34118" stroke-linecap="round"/>
<path d="M58.7501 32.1616L53.7881 30.4779C53.4452 30.3615 53.262 29.9901 53.3795 29.6496L53.6593 28.825C53.7757 28.4821 54.1471 28.2989 54.4876 28.4164L58.006 29.6062L59.1995 26.0891C59.3158 25.7461 59.6872 25.5629 60.0277 25.6805L60.8547 25.9591C61.1977 26.0754 61.3809 26.4468 61.2633 26.7873L59.5796 31.7493C59.4645 32.0947 59.0931 32.2779 58.7501 32.1616V32.1616Z" fill="#7CDA24"/>
<path d="M58.0547 30.4834C57.3974 25.6095 54.0474 15.9254 45.9061 16.1802" stroke="#7CDA24" stroke-width="4.34118" stroke-linecap="round"/>
</svg>
