<svg width="81" height="72" viewBox="0 0 81 72" fill="none" xmlns="http://www.w3.org/2000/svg">
<path d="M79.9176 63.5879L56.0681 3.21289C55.797 2.53907 55.1195 2 54.4419 2C54.0354 2 53.7644 2.26953 52.9513 2.53907C52.0027 2.80859 51.5962 3.61718 52.0027 4.96484C49.8346 6.3125 44.0078 8.19922 41.8396 8.60351C41.7041 8.06445 41.5686 7.66016 40.8911 7.25586V6.3125C40.8911 4.02149 38.9939 2 36.5548 2H23.5459C22.8683 2 22.0553 2.4043 21.3778 2.67383C20.8357 2.4043 20.0227 2 19.3451 2H6.33628C3.89712 2 2 4.02149 2 6.3125V66.6875C2 69.1133 3.89712 71 6.33628 71H19.3451C20.0227 71 20.8357 70.7305 21.5133 70.4609C22.0553 70.7305 22.8683 71 23.6814 71H36.6903C38.9939 71 41.0265 69.1133 41.0265 66.6875V18.0371L61.4884 69.9218C61.7594 70.5957 62.3015 71 62.979 71C63.3855 71 63.6565 70.8653 64.6051 70.5957C65.4181 70.3262 65.9601 69.5176 65.4182 68.1699C67.7218 66.8222 73.4132 64.9355 75.7168 64.5312C76.1233 66.0137 77.0719 66.2832 77.8849 66.0137L78.8335 65.6093C79.7821 65.3399 80.1886 64.3965 79.9176 63.5879ZM19.3451 66.6875H6.33628V58.0625H19.3451V66.6875ZM19.3451 53.75H6.33628V19.25H19.3451V53.75ZM19.3451 14.9375H6.33628V6.3125H19.3451V14.9375ZM36.6903 66.6875H23.6814V58.0625H36.6903V66.6875ZM36.6903 53.75H23.6814V19.25H36.6903V53.75ZM36.6903 14.9375H23.6814V6.3125H36.6903V14.9375ZM64.1986 64.5312L43.0592 12.1074C46.5824 11.5684 51.7318 9.41211 53.3579 8.60351L74.3617 61.0274C70.974 61.5664 65.6892 63.7226 64.1986 64.5312Z" fill="#7CDA24"/>
</svg>
