<svg width="72" height="64" viewBox="0 0 72 64" fill="none" xmlns="http://www.w3.org/2000/svg">
<path d="M14 0C15 0 16 1 16 2V8H40V2C40 1 40.875 0 42 0C43 0 44 1 44 2V8H48C52.375 8 56 11.625 56 16V24H4V56C4 58.25 5.75 60 8 60H37C38.25 61.625 39.625 62.875 41.25 64H8C3.5 64 0 60.5 0 56V16C0 11.625 3.5 8 8 8H12V2C12 1 12.875 0 14 0ZM48 12H8C5.75 12 4 13.875 4 16V20H52V16C52 13.875 50.125 12 48 12ZM54 36C55 36 56 37 56 38V44H62C63 44 64 45 64 46C64 47.125 63 48 62 48H56V54C56 55.125 55 56 54 56C52.875 56 52 55.125 52 54V48H46C44.875 48 44 47.125 44 46C44 45 44.875 44 46 44H52V38C52 37 52.875 36 54 36ZM36 46C36 36.125 44 28 54 28C63.875 28 72 36.125 72 46C72 56 63.875 64 54 64C44 64 36 56 36 46ZM54 60C61.625 60 68 53.75 68 46C68 38.375 61.625 32 54 32C46.25 32 40 38.375 40 46C40 53.75 46.25 60 54 60Z" fill="#003DA6"/>
</svg>
