<svg width="72" height="64" viewBox="0 0 72 64" fill="none" xmlns="http://www.w3.org/2000/svg">
<path d="M14 0C15 0 16 1 16 2V8H40V2C40 1 40.875 0 42 0C43 0 44 1 44 2V8H48C52.375 8 56 11.625 56 16V24H4V56C4 58.25 5.75 60 8 60H37C38.25 61.625 39.625 62.875 41.25 64H8C3.5 64 0 60.5 0 56V16C0 11.625 3.5 8 8 8H12V2C12 1 12.875 0 14 0ZM48 12H8C5.75 12 4 13.875 4 16V20H52V16C52 13.875 50.125 12 48 12ZM61 43C61 46.875 57.75 50 54 50C50.125 50 47 46.875 47 43C47 39.25 50.125 36 54 36C57.75 36 61 39.25 61 43ZM54 40C52.25 40 51 41.375 51 43C51 44.75 52.25 46 54 46C55.625 46 57 44.75 57 43C57 41.375 55.625 40 54 40ZM36 46C36 36.125 44 28 54 28C63.875 28 72 36.125 72 46C72 56 63.875 64 54 64C44 64 36 56 36 46ZM54 60C56.75 60 59.25 59.25 61.375 57.875C60.5 56.75 59 56 57.5 56H50.375C48.875 56 47.375 56.75 46.5 57.875C48.625 59.25 51.125 60 54 60ZM57.5 52C60.25 52 62.75 53.25 64.5 55.25C66.625 52.875 68 49.625 68 46C68 38.375 61.625 32 54 32C46.25 32 40 38.375 40 46C40 49.625 41.25 52.875 43.375 55.25C45.125 53.25 47.625 52 50.375 52H57.5Z" fill="#003DA6"/>
</svg>
