<svg width="106" height="96" viewBox="0 0 106 96" fill="none" xmlns="http://www.w3.org/2000/svg">
<g clip-path="url(#clip0_1_54)">
<path d="M5.12555 91.3883H2.52569L2.03141 92.871H0.454681L3.13364 85.6745H4.50772L7.2015 92.871H5.62477L5.12555 91.3883ZM2.92605 90.1872H4.72519L3.82067 87.4933L2.92605 90.1872ZM12.6978 86.8756H10.4933V92.871H9.01054V86.8756H6.83574V85.6745H12.6978V86.8756ZM17.8777 89.7522H15.0308V91.6799H18.3721V92.871H13.548V85.6745H18.3622V86.8756H15.0308V88.5906H17.8777V89.7522ZM25.0941 92.871H23.6113L20.7248 88.1359V92.871H19.242V85.6745H20.7248L23.6163 90.4194V85.6745H25.0941V92.871ZM32.0387 90.4738C31.9827 91.2482 31.696 91.8578 31.1787 92.3026C30.6646 92.7475 29.9858 92.9695 29.1423 92.9695C28.2196 92.9695 27.493 92.6601 26.9625 92.0407C26.4353 91.4179 26.1716 90.5644 26.1716 89.4803V89.0404C26.1716 88.3484 26.2936 87.7388 26.5374 87.2116C26.7813 86.6844 27.1289 86.2807 27.5804 86.0007C28.035 85.7172 28.5623 85.5756 29.1621 85.5756C29.9924 85.5756 30.6613 85.798 31.1688 86.2429C31.6762 86.6877 31.9695 87.3121 32.0486 88.1161H30.5657C30.5296 87.6515 30.3993 87.3154 30.1753 87.1078C29.9545 86.8969 29.6168 86.7915 29.1621 86.7915C28.6677 86.7915 28.297 86.9694 28.05 87.3253C27.8061 87.6779 27.6808 88.2266 27.6743 88.9712V89.5149C27.6743 90.2926 27.7913 90.861 28.0252 91.2202C28.2624 91.5794 28.6348 91.7589 29.1423 91.7589C29.6003 91.7589 29.9413 91.6551 30.1654 91.4475C30.3928 91.2367 30.5229 90.9121 30.5559 90.4738H32.0387ZM34.5891 92.871H33.1063V85.6745H34.5891V92.871ZM41.8797 89.4359C41.8797 90.1443 41.7544 90.7654 41.504 91.2993C41.2535 91.8331 40.8944 92.245 40.4265 92.535C39.9619 92.8249 39.4281 92.9695 38.825 92.9695C38.2286 92.9695 37.6964 92.8266 37.2286 92.5398C36.7606 92.2532 36.3981 91.8446 36.1411 91.3141C35.8841 90.7802 35.754 90.1674 35.7507 89.4754V89.1195C35.7507 88.4111 35.8776 87.7883 36.1313 87.2512C36.3883 86.7107 36.7491 86.2972 37.2138 86.0105C37.6816 85.7206 38.2154 85.5756 38.8152 85.5756C39.4149 85.5756 39.9471 85.7206 40.4117 86.0105C40.8796 86.2972 41.2404 86.7107 41.4941 87.2512C41.7511 87.7883 41.8797 88.4094 41.8797 89.1146V89.4359ZM40.3771 89.1096C40.3771 88.355 40.242 87.7817 39.9717 87.3896C39.7015 86.9975 39.3161 86.8014 38.8152 86.8014C38.3176 86.8014 37.9338 86.9958 37.6635 87.3846C37.3933 87.7701 37.2565 88.3369 37.2532 89.0849V89.4359C37.2532 90.1707 37.3883 90.7408 37.6586 91.146C37.9288 91.5513 38.3176 91.754 38.825 91.754C39.3226 91.754 39.7049 91.5596 39.9717 91.1707C40.2387 90.7786 40.3738 90.2086 40.3771 89.4605V89.1096ZM39.1018 83.7468H40.6588L39.2896 85.279H38.1281L39.1018 83.7468ZM48.8093 92.871H47.3265L44.44 88.1359V92.871H42.9572V85.6745H44.44L47.3315 90.4194V85.6745H48.8093V92.871ZM54.2019 92.871H52.7191V85.6745H54.2019V92.871ZM61.4331 92.871H59.9503L57.0637 88.1359V92.871H55.5808V85.6745H57.0637L59.9552 90.4194V85.6745H61.4331V92.871ZM64.6656 85.6745L66.5142 90.894L68.3529 85.6745H70.3004V92.871H68.8126V90.9038L68.9608 87.5082L67.0184 92.871H66.0001L64.0626 87.5131L64.2109 90.9038V92.871H62.728V85.6745H64.6656ZM75.9252 89.7522H73.0781V91.6799H76.4194V92.871H71.5953V85.6745H76.4095V86.8756H73.0781V88.5906H75.9252V89.7522ZM77.2893 92.871V85.6745H79.5036C80.1363 85.6745 80.7014 85.8177 81.199 86.1045C81.6999 86.3878 82.0904 86.7931 82.3705 87.3204C82.6505 87.8443 82.7906 88.4407 82.7906 89.1096V89.4408C82.7906 90.1097 82.6522 90.7045 82.3754 91.2251C82.1019 91.7458 81.7147 92.1494 81.2138 92.436C80.713 92.7228 80.1479 92.8677 79.5185 92.871H77.2893ZM78.7721 86.8756V91.6799H79.4888C80.0688 91.6799 80.5119 91.4904 80.8185 91.1114C81.1249 90.7325 81.2814 90.1905 81.288 89.4853V89.1047C81.288 88.3732 81.1364 87.8195 80.8333 87.4439C80.5301 87.065 80.0869 86.8756 79.5036 86.8756H78.7721ZM85.4498 92.871H83.9669V85.6745H85.4498V92.871ZM90.9807 91.3883H88.3808L87.8865 92.871H86.3098L88.9888 85.6745H90.3628L93.0566 92.871H91.4799L90.9807 91.3883ZM88.7812 90.1872H90.5804L89.6758 87.4933L88.7812 90.1872ZM98.5533 86.8756H96.3484V92.871H94.8658V86.8756H92.6913V85.6745H98.5533V86.8756ZM102.873 91.3883H100.273L99.779 92.871H98.2017L100.881 85.6745H102.255L104.949 92.871H103.372L102.873 91.3883ZM100.674 90.1872H102.473L101.568 87.4933L100.674 90.1872Z" fill="#0081A4"/>
<path d="M52.2396 33.9754C61.2983 33.9754 68.804 26.5991 68.804 17.411C68.804 8.35231 61.2983 0.846558 52.2396 0.846558C43.0515 0.846558 35.6752 8.35231 35.6752 17.411C35.6752 26.5991 43.0515 33.9754 52.2396 33.9754ZM52.2396 4.98766C58.9689 4.98766 64.6629 10.6817 64.6629 17.411C64.6629 24.2697 58.9689 29.8343 52.2396 29.8343C45.3809 29.8343 39.8163 24.2697 39.8163 17.411C39.8163 10.6817 45.3809 4.98766 52.2396 4.98766ZM64.2747 38.2459C59.8748 38.1165 58.5807 40.187 52.2396 40.187C45.7692 40.187 44.4751 38.1165 40.0751 38.2459C30.7576 38.5047 23.2519 46.1399 23.2519 55.5868V66.0689C23.2519 66.716 23.6401 67.1042 24.2872 67.1042H26.3577C26.8754 67.1042 27.393 66.716 27.393 66.0689V55.5868C27.393 48.5986 32.8282 42.7752 39.8163 42.387V52.9986C36.7105 53.9044 34.6399 56.6221 34.6399 59.8573C34.6399 63.869 37.8751 67.1042 41.8869 67.1042C45.7692 67.1042 49.1338 63.869 49.1338 59.8573C49.1338 56.6221 46.9339 53.9044 43.9574 52.9986V43.0341C46.5456 43.9399 49.3926 44.3282 52.2396 44.3282C54.9572 44.3282 57.8043 43.9399 60.5218 43.0341V51.9633C56.769 52.8691 54.3102 56.3632 54.3102 60.2455V63.9984C54.3102 64.6454 54.4396 65.1631 54.8278 65.5513L56.2513 66.8455C56.6395 67.2336 57.2866 67.2336 57.6748 66.8455L59.0983 65.4219C59.4866 65.0337 59.4866 64.3866 59.0983 63.869L58.3219 63.2219V59.8573C58.3219 57.3985 60.6512 55.4574 63.2394 55.8456C65.31 56.1044 66.6041 58.0455 66.6041 60.1161V63.2219L65.957 63.869C65.5688 64.3866 65.5688 65.0337 65.957 65.4219L67.3805 66.8455C67.7688 67.2336 68.4158 67.2336 68.804 66.8455L70.2276 65.5513C70.6158 65.1631 70.7452 64.6454 70.7452 63.9984V59.8573C70.7452 56.1044 68.157 52.8691 64.5335 51.9633V42.387C71.5216 42.9046 76.9569 48.5986 76.9569 55.5868V66.0689C76.9569 66.716 77.4745 67.1042 77.9921 67.1042H80.0627C80.7097 67.1042 81.098 66.716 81.098 66.0689V55.5868C81.2274 46.1399 73.7217 38.5047 64.2747 38.2459ZM44.9927 59.8573C44.9927 61.6691 43.5692 62.9631 41.8869 62.9631C40.0751 62.9631 38.781 61.6691 38.781 59.8573C38.781 58.175 40.0751 56.7515 41.8869 56.7515C43.5692 56.7515 44.9927 58.175 44.9927 59.8573Z" fill="#0081A4"/>
<path d="M52.2396 33.9754C61.2983 33.9754 68.804 26.5991 68.804 17.411C68.804 8.35231 61.2983 0.846558 52.2396 0.846558C43.0515 0.846558 35.6752 8.35231 35.6752 17.411C35.6752 26.5991 43.0515 33.9754 52.2396 33.9754ZM52.2396 4.98766C58.9689 4.98766 64.6629 10.6817 64.6629 17.411C64.6629 24.2697 58.9689 29.8343 52.2396 29.8343C45.3809 29.8343 39.8163 24.2697 39.8163 17.411C39.8163 10.6817 45.3809 4.98766 52.2396 4.98766ZM64.2747 38.2459C59.8748 38.1165 58.5807 40.187 52.2396 40.187C45.7692 40.187 44.4751 38.1165 40.0751 38.2459C30.7576 38.5047 23.2519 46.1399 23.2519 55.5868V66.0689C23.2519 66.716 23.6401 67.1042 24.2872 67.1042H26.3577C26.8754 67.1042 27.393 66.716 27.393 66.0689V55.5868C27.393 48.5986 32.8282 42.7752 39.8163 42.387V52.9986C36.7105 53.9044 34.6399 56.6221 34.6399 59.8573C34.6399 63.869 37.8751 67.1042 41.8869 67.1042C45.7692 67.1042 49.1338 63.869 49.1338 59.8573C49.1338 56.6221 46.9339 53.9044 43.9574 52.9986V43.0341C46.5456 43.9399 49.3926 44.3282 52.2396 44.3282C54.9572 44.3282 57.8043 43.9399 60.5218 43.0341V51.9633C56.769 52.8691 54.3102 56.3632 54.3102 60.2455V63.9984C54.3102 64.6454 54.4396 65.1631 54.8278 65.5513L56.2513 66.8455C56.6395 67.2336 57.2866 67.2336 57.6748 66.8455L59.0983 65.4219C59.4866 65.0337 59.4866 64.3866 59.0983 63.869L58.3219 63.2219V59.8573C58.3219 57.3985 60.6512 55.4574 63.2394 55.8456C65.31 56.1044 66.6041 58.0455 66.6041 60.1161V63.2219L65.957 63.869C65.5688 64.3866 65.5688 65.0337 65.957 65.4219L67.3805 66.8455C67.7688 67.2336 68.4158 67.2336 68.804 66.8455L70.2276 65.5513C70.6158 65.1631 70.7452 64.6454 70.7452 63.9984V59.8573C70.7452 56.1044 68.157 52.8691 64.5335 51.9633V42.387C71.5216 42.9046 76.9569 48.5986 76.9569 55.5868V66.0689C76.9569 66.716 77.4745 67.1042 77.9921 67.1042H80.0627C80.7097 67.1042 81.098 66.716 81.098 66.0689V55.5868C81.2274 46.1399 73.7217 38.5047 64.2747 38.2459ZM44.9927 59.8573C44.9927 61.6691 43.5692 62.9631 41.8869 62.9631C40.0751 62.9631 38.781 61.6691 38.781 59.8573C38.781 58.175 40.0751 56.7515 41.8869 56.7515C43.5692 56.7515 44.9927 58.175 44.9927 59.8573Z" fill="url(#paint0_linear_1_54)"/>
</g>
<defs>
<linearGradient id="paint0_linear_1_54" x1="52.2396" y1="0.846558" x2="52.2396" y2="67.1042" gradientUnits="userSpaceOnUse">
<stop stop-color="#3BC1CD"/>
<stop offset="1" stop-color="white" stop-opacity="0"/>
</linearGradient>
<clipPath id="clip0_1_54">
<rect width="104.908" height="94.7853" fill="white" transform="translate(0.244781 0.846619)"/>
</clipPath>
</defs>
</svg>
