<svg width="111" height="96" viewBox="0 0 111 96" fill="none" xmlns="http://www.w3.org/2000/svg">
<g clip-path="url(#clip0_1_58)">
<path d="M5.58775 91.3085H2.98787L2.4936 92.7913H0.91687L3.59583 85.5947H4.9699L7.66369 92.7913H6.08696L5.58775 91.3085ZM3.38823 90.1074H5.18738L4.28287 87.4135L3.38823 90.1074ZM13.16 86.7958H10.9555V92.7913H9.47273V86.7958H7.29793V85.5947H13.16V86.7958ZM18.3399 89.6724H15.493V91.6001H18.8343V92.7913H14.0102V85.5947H18.8243V86.7958H15.493V88.5108H18.3399V89.6724ZM25.5563 92.7913H24.0735L21.187 88.0561V92.7913H19.7042V85.5947H21.187L24.0785 90.3396V85.5947H25.5563V92.7913ZM32.5008 90.394C32.4449 91.1684 32.1581 91.778 31.6409 92.2228C31.1268 92.6677 30.448 92.8897 29.6045 92.8897C28.6818 92.8897 27.9552 92.5803 27.4247 91.9609C26.8975 91.3381 26.6338 90.4847 26.6338 89.4005V88.9606C26.6338 88.2686 26.7558 87.659 26.9996 87.1318C27.2435 86.6046 27.5911 86.2009 28.0425 85.9209C28.4972 85.6375 29.0245 85.4958 29.6243 85.4958C30.4546 85.4958 31.1235 85.7183 31.6309 86.1631C32.1385 86.6079 32.4316 87.2323 32.5108 88.0363H31.0279C30.9917 87.5717 30.8615 87.2356 30.6374 87.028C30.4167 86.8171 30.0789 86.7117 29.6243 86.7117C29.1299 86.7117 28.7592 86.8896 28.5121 87.2455C28.2683 87.5981 28.143 88.1468 28.1365 88.8914V89.4351C28.1365 90.2128 28.2535 90.7813 28.4874 91.1404C28.7246 91.4996 29.097 91.6791 29.6045 91.6791C30.0625 91.6791 30.4035 91.5753 30.6276 91.3677C30.855 91.1569 30.9851 90.8323 31.0181 90.394H32.5008ZM35.0513 92.7913H33.5685V85.5947H35.0513V92.7913ZM42.3419 89.3561C42.3419 90.0645 42.2166 90.6856 41.9662 91.2195C41.7157 91.7533 41.3566 92.1652 40.8887 92.4552C40.4241 92.7452 39.8902 92.8897 39.2872 92.8897C38.6908 92.8897 38.1586 92.7468 37.6908 92.4601C37.2228 92.1734 36.8603 91.7648 36.6033 91.2343C36.3463 90.7005 36.2162 90.0876 36.2128 89.3956V89.0397C36.2128 88.3313 36.3397 87.7085 36.5935 87.1714C36.8505 86.6309 37.2113 86.2174 37.6759 85.9307C38.1438 85.6408 38.6776 85.4958 39.2774 85.4958C39.8771 85.4958 40.4093 85.6408 40.8739 85.9307C41.3417 86.2174 41.7026 86.6309 41.9563 87.1714C42.2133 87.7085 42.3419 88.3296 42.3419 89.0348V89.3561ZM40.8393 89.0298C40.8393 88.2752 40.7042 87.7019 40.4339 87.3098C40.1637 86.9177 39.7782 86.7216 39.2774 86.7216C38.7798 86.7216 38.3959 86.916 38.1257 87.3048C37.8555 87.6903 37.7187 88.2571 37.7154 89.0051V89.3561C37.7154 90.0909 37.8505 90.661 38.1208 91.0663C38.391 91.4715 38.7798 91.6742 39.2872 91.6742C39.7848 91.6742 40.167 91.4798 40.4339 91.0909C40.7009 90.6988 40.836 90.1288 40.8393 89.3807V89.0298ZM39.564 83.667H41.121L39.7518 85.1992H38.5903L39.564 83.667ZM49.2716 92.7913H47.7887L44.9022 88.0561V92.7913H43.4194V85.5947H44.9022L47.7937 90.3396V85.5947H49.2716V92.7913ZM57.1503 91.3085H54.5504L54.0561 92.7913H52.4794L55.1583 85.5947H56.5324L59.2262 92.7913H57.6495L57.1503 91.3085ZM54.9507 90.1074H56.7499L55.8454 87.4135L54.9507 90.1074ZM65.4836 91.8818C65.2168 92.2014 64.8395 92.4502 64.3518 92.6282C63.8641 92.8032 63.3237 92.8897 62.7305 92.8897C62.1078 92.8897 61.5608 92.755 61.0896 92.4848C60.6217 92.2113 60.2592 91.8159 60.0022 91.2985C59.7485 90.7813 59.6183 90.1733 59.6117 89.4747V88.9854C59.6117 88.2671 59.732 87.6459 59.9726 87.122C60.2163 86.5947 60.5657 86.1927 61.0204 85.9159C61.4785 85.6358 62.0139 85.4958 62.6267 85.4958C63.4803 85.4958 64.1475 85.7001 64.6285 86.1087C65.1096 86.514 65.3947 87.1055 65.4836 87.8831H64.0404C63.9745 87.4712 63.8278 87.1698 63.6005 86.9786C63.3765 86.7875 63.0667 86.692 62.6713 86.692C62.1671 86.692 61.7832 86.8814 61.5196 87.2603C61.256 87.6393 61.1225 88.2027 61.1193 88.9508V89.4105C61.1193 90.1651 61.2626 90.7351 61.5493 91.1206C61.836 91.5061 62.2561 91.6989 62.8097 91.6989C63.3665 91.6989 63.7636 91.5803 64.0008 91.3431V90.1024H62.6515V89.0101H65.4836V91.8818ZM71.0196 89.6724H68.1725V91.6001H71.5138V92.7913H66.6897V85.5947H71.5039V86.7958H68.1725V88.5108H71.0196V89.6724ZM78.2359 92.7913H76.7531L73.8665 88.0561V92.7913H72.3837V85.5947H73.8665L76.758 90.3396V85.5947H78.2359V92.7913ZM79.5309 92.7913V85.5947H81.7452C82.3779 85.5947 82.943 85.7379 83.4406 86.0247C83.9415 86.308 84.3319 86.7133 84.612 87.2406C84.8921 87.7645 85.0321 88.3609 85.0321 89.0298V89.361C85.0321 90.0299 84.8937 90.6247 84.6169 91.1453C84.3434 91.666 83.9563 92.0696 83.4554 92.3563C82.9546 92.643 82.3895 92.7879 81.7601 92.7913H79.5309ZM81.0137 86.7958V91.6001H81.7304C82.3103 91.6001 82.7535 91.4106 83.06 91.0317C83.3665 90.6527 83.5229 90.1107 83.5296 89.4055V89.0249C83.5296 88.2934 83.378 87.7398 83.0749 87.3641C82.7716 86.9852 82.3285 86.7958 81.7452 86.7958H81.0137ZM90.0688 91.3085H87.4689L86.9747 92.7913H85.3979L88.0769 85.5947H89.451L92.1447 92.7913H90.568L90.0688 91.3085ZM87.8693 90.1074H89.6684L88.7639 87.4135L87.8693 90.1074ZM92.817 92.7913V85.5947H95.3376C96.2109 85.5947 96.8735 85.7627 97.3244 86.0988C97.7762 86.4316 98.0017 86.9209 98.0017 87.5668C98.0017 87.9194 97.9115 88.2308 97.7302 88.501C97.5489 88.7679 97.2968 88.964 96.9738 89.0892C97.3428 89.1814 97.6327 89.3676 97.8434 89.6477C98.0578 89.9277 98.1646 90.2704 98.1646 90.6758C98.1646 91.3677 97.9447 91.8917 97.5029 92.2476C97.0612 92.6034 96.4318 92.7846 95.6146 92.7913H92.817ZM94.2996 89.6575V91.6001H95.5704C95.9192 91.6001 96.1916 91.5176 96.3858 91.3529C96.5836 91.1849 96.6821 90.9542 96.6821 90.661C96.6821 90.0019 96.3407 89.6675 95.6588 89.6575H94.2996ZM94.2996 88.6098H95.3974C96.1447 88.5965 96.5192 88.2983 96.5192 87.7151C96.5192 87.3889 96.4235 87.1549 96.2321 87.0132C96.0443 86.8682 95.7462 86.7958 95.3376 86.7958H94.2996V88.6098ZM100.765 91.6001H103.913V92.7913H99.2818V85.5947H100.765V91.6001ZM109.098 89.6724H106.252V91.6001H109.592V92.7913H104.768V85.5947H109.583V86.7958H106.252V88.5108H109.098V89.6724Z" fill="#0081A4"/>
<path d="M56.2708 33.8956C65.3295 33.8956 72.8352 26.5193 72.8352 17.3312C72.8352 8.27254 65.3295 0.766785 56.2708 0.766785C47.0827 0.766785 39.7063 8.27254 39.7063 17.3312C39.7063 26.5193 47.0827 33.8956 56.2708 33.8956ZM56.2708 4.90789C63.0001 4.90789 68.6941 10.6019 68.6941 17.3312C68.6941 24.1899 63.0001 29.7545 56.2708 29.7545C49.4121 29.7545 43.8475 24.1899 43.8475 17.3312C43.8475 10.6019 49.4121 4.90789 56.2708 4.90789ZM68.3058 38.1661C63.906 38.0367 62.6118 40.1073 56.2708 40.1073C49.8003 40.1073 48.5062 38.0367 44.1062 38.1661C34.7887 38.425 27.283 46.0602 27.283 55.507V65.9892C27.283 66.6362 27.6713 67.0244 28.3183 67.0244H30.3889C30.9065 67.0244 31.4241 66.6362 31.4241 65.9892V55.507C31.4241 48.5189 36.8593 42.6955 43.8475 42.3072V52.9188C40.7416 53.8246 38.6711 56.5423 38.6711 59.7775C38.6711 63.7892 41.9063 67.0244 45.918 67.0244C49.8003 67.0244 53.1649 63.7892 53.1649 59.7775C53.1649 56.5423 50.965 53.8246 47.9886 52.9188V42.9543C50.5767 43.8601 53.4237 44.2484 56.2708 44.2484C58.9883 44.2484 61.8354 43.8601 64.553 42.9543V51.8836C60.8001 52.7894 58.3413 56.2834 58.3413 60.1658V63.9186C58.3413 64.5656 58.4707 65.0833 58.859 65.4715L60.2825 66.7657C60.6706 67.1538 61.3178 67.1538 61.7059 66.7657L63.1295 65.3421C63.5177 64.9539 63.5177 64.3069 63.1295 63.7892L62.353 63.1421V59.7775C62.353 57.3187 64.6824 55.3776 67.2706 55.7658C69.3411 56.0247 70.6352 57.9657 70.6352 60.0363V63.1421L69.9881 63.7892C69.6 64.3069 69.6 64.9539 69.9881 65.3421L71.4117 66.7657C71.7999 67.1538 72.4469 67.1538 72.8352 66.7657L74.2587 65.4715C74.647 65.0833 74.7763 64.5656 74.7763 63.9186V59.7775C74.7763 56.0247 72.1882 52.7894 68.5647 51.8836V42.3072C75.5528 42.8248 80.988 48.5189 80.988 55.507V65.9892C80.988 66.6362 81.5056 67.0244 82.0233 67.0244H84.0938C84.7409 67.0244 85.1291 66.6362 85.1291 65.9892V55.507C85.2585 46.0602 77.7528 38.425 68.3058 38.1661ZM49.0238 59.7775C49.0238 61.5893 47.6003 62.8833 45.918 62.8833C44.1062 62.8833 42.8122 61.5893 42.8122 59.7775C42.8122 58.0952 44.1062 56.6717 45.918 56.6717C47.6003 56.6717 49.0238 58.0952 49.0238 59.7775Z" fill="#0081A4"/>
<path d="M56.2708 33.8956C65.3295 33.8956 72.8352 26.5193 72.8352 17.3312C72.8352 8.27254 65.3295 0.766785 56.2708 0.766785C47.0827 0.766785 39.7063 8.27254 39.7063 17.3312C39.7063 26.5193 47.0827 33.8956 56.2708 33.8956ZM56.2708 4.90789C63.0001 4.90789 68.6941 10.6019 68.6941 17.3312C68.6941 24.1899 63.0001 29.7545 56.2708 29.7545C49.4121 29.7545 43.8475 24.1899 43.8475 17.3312C43.8475 10.6019 49.4121 4.90789 56.2708 4.90789ZM68.3058 38.1661C63.906 38.0367 62.6118 40.1073 56.2708 40.1073C49.8003 40.1073 48.5062 38.0367 44.1062 38.1661C34.7887 38.425 27.283 46.0602 27.283 55.507V65.9892C27.283 66.6362 27.6713 67.0245 28.3183 67.0245H30.3889C30.9065 67.0245 31.4241 66.6362 31.4241 65.9892V55.507C31.4241 48.5189 36.8593 42.6955 43.8475 42.3072V52.9188C40.7416 53.8246 38.6711 56.5423 38.6711 59.7775C38.6711 63.7892 41.9063 67.0245 45.918 67.0245C49.8003 67.0245 53.1649 63.7892 53.1649 59.7775C53.1649 56.5423 50.965 53.8246 47.9886 52.9188V42.9543C50.5767 43.8601 53.4237 44.2484 56.2708 44.2484C58.9883 44.2484 61.8354 43.8601 64.553 42.9543V51.8836C60.8001 52.7894 58.3413 56.2834 58.3413 60.1658V63.9186C58.3413 64.5656 58.4707 65.0833 58.859 65.4715L60.2825 66.7657C60.6706 67.1538 61.3178 67.1538 61.7059 66.7657L63.1294 65.3421C63.5177 64.9539 63.5177 64.3069 63.1294 63.7892L62.353 63.1421V59.7775C62.353 57.3187 64.6824 55.3776 67.2706 55.7658C69.3411 56.0247 70.6352 57.9657 70.6352 60.0363V63.1421L69.9881 63.7892C69.6 64.3069 69.6 64.9539 69.9881 65.3421L71.4117 66.7657C71.7999 67.1538 72.4469 67.1538 72.8352 66.7657L74.2587 65.4715C74.647 65.0833 74.7763 64.5656 74.7763 63.9186V59.7775C74.7763 56.0247 72.1882 52.7894 68.5647 51.8836V42.3072C75.5528 42.8248 80.988 48.5189 80.988 55.507V65.9892C80.988 66.6362 81.5056 67.0245 82.0233 67.0245H84.0938C84.7409 67.0245 85.1291 66.6362 85.1291 65.9892V55.507C85.2585 46.0602 77.7528 38.425 68.3058 38.1661ZM49.0238 59.7775C49.0238 61.5893 47.6003 62.8833 45.918 62.8833C44.1062 62.8833 42.8122 61.5893 42.8122 59.7775C42.8122 58.0952 44.1062 56.6717 45.918 56.6717C47.6003 56.6717 49.0238 58.0952 49.0238 59.7775Z" fill="url(#paint0_linear_1_58)"/>
</g>
<defs>
<linearGradient id="paint0_linear_1_58" x1="56.2708" y1="0.766785" x2="56.2708" y2="67.0245" gradientUnits="userSpaceOnUse">
<stop stop-color="#3BC1CD"/>
<stop offset="1" stop-color="white" stop-opacity="0"/>
</linearGradient>
<clipPath id="clip0_1_58">
<rect width="109.509" height="94.7853" fill="white" transform="translate(0.594788 0.766815)"/>
</clipPath>
</defs>
</svg>
