<svg width="81" height="72" viewBox="0 0 81 72" fill="none" xmlns="http://www.w3.org/2000/svg">
<path d="M20.75 36.5C20.75 36.623 20.6266 36.623 20.6266 36.7461C26.4282 34.5313 33.3407 32.5625 40.5 32.5625C45.9312 32.5625 51.4859 33.7929 56.3 35.3926C56.1766 34.1621 56.3 32.9317 57.1641 31.4551C51.9797 29.8554 46.3016 28.625 40.5 28.625C32.8468 28.625 25.5641 30.5937 19.5157 32.9317C20.2562 34.0391 20.75 35.1465 20.75 36.5ZM62.225 36.5C63.2125 36.5 64.2 35.6386 64.2 34.5312C64.2 33.5469 63.2125 32.5625 62.225 32.5625C61.1141 32.5625 60.25 33.5469 60.25 34.5312C60.25 35.6386 61.1141 36.5 62.225 36.5ZM73.0875 45.4824L70.8657 48.8047C70.2484 49.666 69.1375 49.9121 68.2734 49.2969C65.5578 47.6973 59.3859 44.498 52.35 42.4062V59.6328C52.35 60.002 52.4734 60.125 52.8437 60.125H55.8062C56.0532 60.125 56.3 60.002 56.3 59.6328V47.9433C60.8672 49.7891 64.5703 51.7578 66.2984 52.7422C68.7672 54.2188 72.3468 53.7266 74.1984 50.8965L76.4203 47.6973C78.025 45.2364 77.7782 41.2989 74.5687 39.3301C72.9641 38.4688 70.7422 37.1152 68.0266 35.7617C67.6562 37.1152 66.9157 38.3457 65.8047 39.2071C68.7672 40.5605 71.1125 41.791 72.4703 42.6523C73.4578 43.2676 73.7047 44.498 73.0875 45.4824ZM52.35 16.8125C52.35 10.4141 46.9187 5 40.5 5C33.9578 5 28.65 10.4141 28.65 16.8125C28.65 23.334 33.9578 28.625 40.5 28.625C46.9187 28.625 52.35 23.334 52.35 16.8125ZM40.5 24.6875C36.0562 24.6875 32.6 21.2422 32.6 16.8125C32.6 12.5059 36.0562 8.9375 40.5 8.9375C44.8203 8.9375 48.4 12.5059 48.4 16.8125C48.4 21.2422 44.8203 24.6875 40.5 24.6875ZM6.67812 50.8965C8.52968 53.7266 12.1093 54.2188 14.5782 52.7422C16.3062 51.7578 20.0093 49.666 24.7 47.9433V59.6328C24.7 60.002 24.8234 60.125 25.1937 60.125H28.1562C28.4032 60.125 28.65 60.002 28.65 59.6328V42.4062C21.4907 44.498 15.3187 47.6973 12.6032 49.4199C11.7391 49.9121 10.6282 49.666 10.0109 48.8047L7.78907 45.4824C7.17187 44.498 7.41875 43.2676 8.40625 42.6523C9.14687 42.2832 10.0109 41.791 11.1218 41.1758C10.0109 40.3145 9.27032 39.2071 9.02343 37.8535C8.03593 38.3457 7.04843 38.9609 6.30782 39.3301C3.09843 41.2989 2.85157 45.2364 4.45625 47.6973L6.67812 50.8965ZM79.0125 64.0625H1.9875C1.37031 64.0625 1 64.5547 1 65.0469V67.0156C1 67.6308 1.37031 68 1.9875 68H79.0125C79.5062 68 80 67.6308 80 67.0156V65.0469C80 64.5547 79.5062 64.0625 79.0125 64.0625ZM14.825 38.4688C15.8125 38.4688 16.8 37.6074 16.8 36.5C16.8 35.5156 15.8125 34.5312 14.825 34.5312C13.7141 34.5312 12.85 35.5156 12.85 36.5C12.85 37.6074 13.7141 38.4688 14.825 38.4688ZM32.6 42.4062C32.6 43.5136 33.4641 44.375 34.575 44.375C35.5625 44.375 36.55 43.5136 36.55 42.4062C36.55 41.4219 35.5625 40.4375 34.575 40.4375C33.4641 40.4375 32.6 41.4219 32.6 42.4062ZM44.45 54.2188C44.45 55.3261 45.3141 56.1875 46.425 56.1875C47.4125 56.1875 48.4 55.3261 48.4 54.2188C48.4 53.2344 47.4125 52.25 46.425 52.25C45.3141 52.25 44.45 53.2344 44.45 54.2188Z" fill="url(#paint0_linear_1_112)"/>
<defs>
<linearGradient id="paint0_linear_1_112" x1="40.5872" y1="5" x2="40.5872" y2="67.9693" gradientUnits="userSpaceOnUse">
<stop stop-color="#3BC1CD"/>
<stop offset="1" stop-color="#0081A4"/>
</linearGradient>
</defs>
</svg>
