<svg width="71" height="71" viewBox="0 0 71 71" fill="none" xmlns="http://www.w3.org/2000/svg">
<path fill-rule="evenodd" clip-rule="evenodd" d="M3.54949 3.73286V67.9398H67.7564V3.73286H3.54949ZM3.06673 0.836304C1.73363 0.836304 0.652939 1.917 0.652939 3.2501V68.4225C0.652939 69.7556 1.73363 70.8363 3.06673 70.8363H68.2391C69.5722 70.8363 70.6529 69.7556 70.6529 68.4225V3.2501C70.6529 1.917 69.5722 0.836304 68.2391 0.836304H3.06673Z" fill="url(#paint0_linear_2_281)"/>
<path d="M54.4883 35.8359C42.3881 47.5223 30.2879 47.5223 18.1854 35.8359C30.2856 24.1494 42.3858 24.1494 54.4883 35.8359Z" fill="#F9F8F7"/>
<path fill-rule="evenodd" clip-rule="evenodd" d="M59.3081 9.28406C60.9079 9.28406 62.2047 10.5809 62.2047 12.1806L62.2047 19.9047C62.2047 20.7046 61.5563 21.353 60.7564 21.353C59.9566 21.353 59.3081 20.7046 59.3081 19.9047L59.3081 12.1806L51.584 12.1806C50.7841 12.1806 50.1357 11.5322 50.1357 10.7323C50.1357 9.93247 50.7841 9.28406 51.584 9.28406L59.3081 9.28406Z" fill="url(#paint1_linear_2_281)"/>
<path fill-rule="evenodd" clip-rule="evenodd" d="M9.82542 12.1806C9.82542 10.5809 11.1223 9.28406 12.722 9.28406H20.4461C21.246 9.28406 21.8944 9.93247 21.8944 10.7323C21.8944 11.5322 21.246 12.1806 20.4461 12.1806H12.722V19.9047C12.722 20.7046 12.0736 21.353 11.2737 21.353C10.4738 21.353 9.82542 20.7046 9.82542 19.9047V12.1806Z" fill="url(#paint2_linear_2_281)"/>
<path fill-rule="evenodd" clip-rule="evenodd" d="M12.722 62.6293C11.1223 62.6293 9.82542 61.3324 9.82542 59.7327L9.82543 52.0086C9.82543 51.2087 10.4738 50.5603 11.2737 50.5603C12.0736 50.5603 12.722 51.2087 12.722 52.0086L12.722 59.7327L20.4461 59.7327C21.246 59.7327 21.8944 60.3811 21.8944 61.181C21.8944 61.9809 21.246 62.6293 20.4461 62.6293L12.722 62.6293Z" fill="url(#paint3_linear_2_281)"/>
<path fill-rule="evenodd" clip-rule="evenodd" d="M62.2047 59.7327C62.2047 61.3324 60.9079 62.6293 59.3081 62.6293L51.584 62.6293C50.7841 62.6293 50.1357 61.9809 50.1357 61.181C50.1357 60.3811 50.7841 59.7327 51.584 59.7327L59.3081 59.7327L59.3081 52.0086C59.3081 51.2087 59.9566 50.5603 60.7564 50.5603C61.5563 50.5603 62.2047 51.2087 62.2047 52.0086L62.2047 59.7327Z" fill="url(#paint4_linear_2_281)"/>
<path d="M36.3379 45.7341C30.015 45.7341 23.692 42.7013 17.4138 36.6377L16.584 35.837L17.4138 35.0363C29.9702 22.9093 42.7056 22.9093 55.2621 35.0363L56.0919 35.837L55.2621 36.6377C48.9839 42.7013 42.6609 45.7341 36.3379 45.7341V45.7341ZM19.8092 35.837C30.9208 46.0629 41.7551 46.0629 52.8667 35.837C41.7551 25.6111 30.9208 25.6111 19.8092 35.837Z" fill="url(#paint5_linear_2_281)"/>
<path d="M36.3379 42.1837C39.8436 42.1837 42.6855 39.3418 42.6855 35.8361C42.6855 32.3304 39.8436 29.4885 36.3379 29.4885C32.8322 29.4885 29.9903 32.3304 29.9903 35.8361C29.9903 39.3418 32.8322 42.1837 36.3379 42.1837Z" fill="url(#paint6_linear_2_281)"/>
<path d="M34.6784 34.9098C35.5949 34.9098 36.338 34.1668 36.338 33.2502C36.338 32.3337 35.5949 31.5906 34.6784 31.5906C33.7618 31.5906 33.0188 32.3337 33.0188 33.2502C33.0188 34.1668 33.7618 34.9098 34.6784 34.9098Z" fill="white"/>
<defs>
<linearGradient id="paint0_linear_2_281" x1="35.6529" y1="0.836304" x2="35.6529" y2="70.8363" gradientUnits="userSpaceOnUse">
<stop stop-color="#3BC1CD"/>
<stop offset="1" stop-color="#0081A4"/>
</linearGradient>
<linearGradient id="paint1_linear_2_281" x1="62.2047" y1="15.3185" x2="50.1357" y2="15.3185" gradientUnits="userSpaceOnUse">
<stop stop-color="#3BC1CD"/>
<stop offset="1" stop-color="#0081A4"/>
</linearGradient>
<linearGradient id="paint2_linear_2_281" x1="15.8599" y1="9.28406" x2="15.8599" y2="21.353" gradientUnits="userSpaceOnUse">
<stop stop-color="#3BC1CD"/>
<stop offset="1" stop-color="#0081A4"/>
</linearGradient>
<linearGradient id="paint3_linear_2_281" x1="9.82542" y1="56.5948" x2="21.8944" y2="56.5948" gradientUnits="userSpaceOnUse">
<stop stop-color="#3BC1CD"/>
<stop offset="1" stop-color="#0081A4"/>
</linearGradient>
<linearGradient id="paint4_linear_2_281" x1="56.1702" y1="62.6293" x2="56.1702" y2="50.5603" gradientUnits="userSpaceOnUse">
<stop stop-color="#3BC1CD"/>
<stop offset="1" stop-color="#0081A4"/>
</linearGradient>
<linearGradient id="paint5_linear_2_281" x1="36.3379" y1="25.941" x2="36.3379" y2="45.7341" gradientUnits="userSpaceOnUse">
<stop stop-color="#3BC1CD"/>
<stop offset="1" stop-color="#0081A4"/>
</linearGradient>
<linearGradient id="paint6_linear_2_281" x1="36.3379" y1="29.4885" x2="36.3379" y2="42.1837" gradientUnits="userSpaceOnUse">
<stop stop-color="#3BC1CD"/>
<stop offset="1" stop-color="#0081A4"/>
</linearGradient>
</defs>
</svg>
