<svg width="75" height="71" viewBox="0 0 75 71" fill="none" xmlns="http://www.w3.org/2000/svg">
<path d="M72.6303 9.37165H63.2586L62.0872 7.32155C61.5014 5.85728 59.5978 4.68582 57.9871 4.68582H47.7369L43.7832 0.732155C43.3439 0.292864 42.7581 0 42.1724 0C42.1724 0 42.1724 0 42.026 0C40.8546 0 39.8295 1.17146 39.8295 2.34291V28.1149H23.4291H23.2827C20.5005 28.1149 17.8647 28.9936 15.6682 30.4579H11.7146C7.76087 30.4579 4.68582 27.3828 4.68582 23.4291C4.68582 22.2577 3.51437 21.0862 2.34291 21.0862C1.02505 21.0862 0 22.2577 0 23.4291C0 29.8721 4.97863 34.9973 11.2752 35.1437C10.1038 37.1938 9.37165 39.6831 9.37165 42.1724V65.6015C9.37165 68.2373 11.4217 70.2874 14.0575 70.2874H23.4291C25.9184 70.2874 28.1149 68.2373 28.1149 65.6015V51.5441H42.1724V65.6015C42.1724 68.2373 44.2225 70.2874 46.8582 70.2874H56.2299C58.7192 70.2874 60.9157 68.2373 60.9157 65.6015V30.4579H65.6015C70.7267 30.4579 74.9732 26.3578 74.9732 21.0862V11.7146C74.9732 10.5431 73.8017 9.37165 72.6303 9.37165ZM56.2299 65.6015H46.8582V46.8582H23.4291V65.6015H14.0575V42.1724C14.0575 37.0473 18.1576 32.9472 23.4291 32.8008H40.7081L56.2299 36.7545V65.6015ZM70.2874 21.0862C70.2874 23.7219 68.0908 25.772 65.6015 25.772H56.2299V31.9221L44.5153 28.9936V8.05378L45.8332 9.37165H57.9871L60.33 14.0575H70.2874V21.0862ZM56.2299 14.0575C56.2299 12.886 55.0584 11.7146 53.887 11.7146C52.5691 11.7146 51.5441 12.886 51.5441 14.0575C51.5441 15.3753 52.5691 16.4004 53.887 16.4004C55.0584 16.4004 56.2299 15.3753 56.2299 14.0575Z" fill="url(#paint0_linear_1_110)"/>
<defs>
<linearGradient id="paint0_linear_1_110" x1="37.5694" y1="0" x2="37.5694" y2="70.2531" gradientUnits="userSpaceOnUse">
<stop stop-color="#3BC1CD"/>
<stop offset="1" stop-color="#0081A4"/>
</linearGradient>
</defs>
</svg>
