<svg width="103" height="46" viewBox="0 0 103 46" fill="none" xmlns="http://www.w3.org/2000/svg">
<path d="M0.00620313 41.3702C0.0942627 43.6624 1.80107 45.5841 4.06212 45.9416C4.37033 45.9908 4.6889 46.0089 5.00488 45.996C6.28951 45.9467 7.48091 45.4003 8.35374 44.4549C9.22915 43.5122 9.6824 42.2819 9.63319 41.0128C9.63319 37.5448 11.6171 35.1879 14.3573 32.528C17.2167 30.4275 21.2674 27.8634 27.0068 24.67C34.1319 20.8782 38.7628 16.4002 39.7858 12.7612L39.8169 12.6473C39.9438 12.1785 39.9956 11.7071 39.9645 11.2616C39.8765 8.96948 38.1697 7.04771 35.9086 6.69029C35.6004 6.64108 35.2818 6.62295 34.9659 6.6359C33.6812 6.68511 32.4898 7.2316 31.617 8.17694C30.7416 9.1197 30.2883 10.3499 30.3376 11.619C30.3376 15.2735 28.1335 17.6951 25.1653 20.5364C18.8225 25.4936 12.9639 27.9593 12.9639 27.9593C5.84145 31.751 1.21055 36.2291 0.187502 39.868L0.156422 39.982C0.029513 40.4508 -0.0222867 40.9222 0.00879312 41.3676L0.00620313 41.3702Z" fill="#EF3942"/>
<path d="M28.7084 26.7549C28.7084 26.7549 33.8832 28.1276 32.2671 35.4003C32.179 35.7836 32.1453 36.1876 32.1816 36.5994C32.3603 38.7465 34.2484 40.3394 36.3955 40.1581C38.54 39.9768 40.1355 38.0913 39.9542 35.9468C39.5967 30.8859 30.0682 24.6933 28.7732 24.859C28.7732 24.859 28.0324 24.8849 28.0091 25.8458C27.991 26.6047 28.7058 26.7575 28.7058 26.7575L28.7084 26.7549Z" fill="#0C9647"/>
<path d="M27.1104 29.1403C27.1104 29.1403 30.4956 30.039 29.4362 34.7917C29.4362 34.7917 28.32 39.2723 21.1612 40.4508C13.0468 41.7872 13.1763 38.8165 13.1763 38.8165C13.1115 37.3376 12.5495 35.5531 20.6044 30.671C20.6044 30.671 24.6707 28.1975 27.1104 29.1377V29.1403Z" fill="#FDD700"/>
<path d="M7.55344 7.13836C8.00928 13.6159 17.2789 21.3522 22.824 24.3618C24.3314 25.1802 26.2014 25.0041 26.7349 24.7969C29.2705 23.6418 26.5458 22.6602 26.5458 22.6602C26.5458 22.6602 17.8046 20.3421 20.5371 8.06039H20.5345C20.6847 7.41289 20.7391 6.73173 20.6795 6.03502C20.3713 2.40904 17.183 -0.281961 13.5622 0.0236579C9.93882 0.329277 7.24782 3.51237 7.55344 7.13836Z" fill="#2C70B8"/>
<path d="M95.5612 42.5875H101.715V16.0272H95.5612V42.5875ZM98.6252 13.2223C100.487 13.2223 102.003 11.7071 102.003 9.8475C102.003 7.98789 100.487 6.47015 98.6252 6.47015C96.763 6.47015 95.2479 7.9853 95.2479 9.8475C95.2479 11.7097 96.763 13.2223 98.6252 13.2223ZM67.478 32.2431C67.478 29.1766 66.3799 26.2007 63.8624 24.4602C65.6029 22.6757 66.4265 20.3862 66.4265 18.0526C66.4265 12.6965 63.5878 8.25725 55.1186 8.25725H43.1347V42.5875H55.3465C64.3648 42.5875 67.478 38.011 67.478 32.2431ZM49.3015 14.3411H55.2533C59.0994 14.3411 59.7391 16.1723 59.7391 18.05C59.7391 19.9277 58.9621 21.8055 55.6184 21.8055H49.2989V14.3437L49.3015 14.3411ZM49.3015 27.892H55.621C59.4205 27.892 60.8399 29.2646 60.8399 32.2405C60.8399 34.3462 59.9256 36.4959 55.5304 36.4959H49.3041V27.8894L49.3015 27.892ZM82.9454 37.0657C79.0164 37.0657 75.8204 33.6987 75.8204 29.5599V29.4744C75.8204 25.3123 78.9128 22.0541 82.8625 22.0541C84.9293 22.0541 86.5973 22.8337 88.3663 24.6104L92.5879 20.1582C90.5237 18.1329 87.5763 16.0272 82.904 16.0272C75.5821 16.0272 69.6251 22.08 69.6251 29.5185V29.6039C69.6251 37.0424 75.5639 43.0952 82.8625 43.0952C86.5481 43.0952 89.6716 41.7872 92.373 39.1118L88.0088 34.8849C86.416 36.3819 84.8206 37.0683 82.948 37.0683L82.9454 37.0657Z" fill="#231F20"/>
</svg>
