<?xml version="1.0" encoding="UTF-8" standalone="no"?>
<svg
   width="119"
   height="96"
   viewBox="0 0 119 96"
   fill="none"
   version="1.1"
   id="svg394"
   sodipodi:docname="bienestar-integral.svg"
   inkscape:version="1.2.2 (732a01da63, 2022-12-09)"
   xmlns:inkscape="http://www.inkscape.org/namespaces/inkscape"
   xmlns:sodipodi="http://sodipodi.sourceforge.net/DTD/sodipodi-0.dtd"
   xmlns="http://www.w3.org/2000/svg"
   xmlns:svg="http://www.w3.org/2000/svg">
  <defs
     id="defs398">
    <clipPath
       id="clip0_1001_176">
      <rect
         width="92.089996"
         height="86.769997"
         fill="#ffffff"
         id="rect22"
         x="0"
         y="0" />
    </clipPath>
  </defs>
  <sodipodi:namedview
     id="namedview396"
     pagecolor="#ffffff"
     bordercolor="#111111"
     borderopacity="1"
     inkscape:showpageshadow="0"
     inkscape:pageopacity="0"
     inkscape:pagecheckerboard="1"
     inkscape:deskcolor="#d1d1d1"
     showgrid="false"
     inkscape:zoom="3.0457151"
     inkscape:cx="-12.476544"
     inkscape:cy="41.041264"
     inkscape:window-width="1600"
     inkscape:window-height="900"
     inkscape:window-x="2019"
     inkscape:window-y="12"
     inkscape:window-maximized="0"
     inkscape:current-layer="svg394" />
  <path
     id="path388"
     style="fill:#4248b0;fill-opacity:1"
     d="M 58.896484 0 C 47.444396 0 38.142578 9.1257094 38.142578 20.265625 C 38.142578 31.405626 47.444399 40.533203 58.896484 40.533203 C 70.348484 40.533203 79.652344 31.405626 79.652344 20.265625 C 79.652344 9.1257094 70.348487 0 58.896484 0 z M 58.896484 5 C 67.712442 5 74.652344 11.901379 74.652344 20.265625 C 74.652344 28.629985 67.712446 35.533203 58.896484 35.533203 C 50.080411 35.533203 43.142578 28.629985 43.142578 20.265625 C 43.142578 11.901379 50.080414 5 58.896484 5 z M 109.08203 7.4511719 C 96.344244 12.337217 90.186245 12.514926 85.65625 19.449219 C 81.124955 26.369012 83.849697 32.320059 84.404297 35.097656 L 79.767578 40.605469 L 79.935547 42.474609 L 85.255859 36.146484 C 88.759556 35.802785 112.19203 41.789488 109.08203 7.4511719 z M 106.6875 11.736328 C 106.84895 11.682881 106.81822 12.07536 106.30859 13.470703 C 104.0236 19.700597 100.02169 22.176134 95.933594 24.832031 C 92.990197 26.742629 88.54063 30.030808 87.207031 32.191406 C 85.887633 34.350804 84.977895 36.663648 86.558594 31.814453 C 88.138092 26.950858 93.519651 23.035375 97.623047 20.392578 C 100.77204 18.36248 103.67819 16.599993 105.61719 13.154297 C 105.61719 13.154297 106.41841 11.825406 106.6875 11.736328 z M 40.449219 45.035156 C 30.267456 45.035156 22 53.150552 22 63.050781 L 22 65.302734 C 22 68.99346 25.111993 72.058594 28.917969 72.058594 L 88.875 72.058594 C 92.680976 72.058594 95.794922 68.99346 95.794922 65.302734 L 95.794922 63.050781 C 95.794922 53.150552 87.527466 45.035156 77.345703 45.035156 L 69.416016 45.035156 L 68.947266 45.236328 C 65.866452 46.547819 62.468861 47.287109 58.896484 47.287109 C 55.320962 47.287109 51.939676 46.547092 48.845703 45.234375 L 48.376953 45.035156 L 40.449219 45.035156 z M 40.449219 50.035156 L 47.523438 50.035156 C 51.040854 51.441313 54.86126 52.287109 58.896484 52.287109 C 62.926249 52.287109 66.755169 51.442972 70.269531 50.035156 L 77.345703 50.035156 C 84.895305 50.035156 90.794922 55.923645 90.794922 63.050781 L 90.794922 65.302734 C 90.794922 66.198 90.059414 67.058594 88.875 67.058594 L 28.917969 67.058594 C 27.733554 67.058594 27 66.198 27 65.302734 L 27 63.050781 C 27 55.923645 32.899617 50.035156 40.449219 50.035156 z M 41.996094 85 L 40.939453 86.664062 L 42.201172 86.664062 L 43.689453 85 L 41.996094 85 z M 31.195312 86.986328 C 30.543613 86.986328 29.970662 87.141219 29.476562 87.449219 C 28.985963 87.753518 28.60875 88.192726 28.34375 88.765625 C 28.07875 89.338524 27.945312 89.999954 27.945312 90.751953 L 27.945312 91.230469 C 27.945312 92.408568 28.231788 93.336873 28.804688 94.013672 C 29.381187 94.686771 30.171229 95.021484 31.173828 95.021484 C 32.090427 95.021484 32.828119 94.780275 33.386719 94.296875 C 33.948818 93.813475 34.261466 93.152046 34.322266 92.310547 L 32.710938 92.310547 C 32.675138 92.786846 32.532256 93.138088 32.285156 93.367188 C 32.041656 93.592787 31.671528 93.707031 31.173828 93.707031 C 30.622329 93.707031 30.218737 93.511393 29.960938 93.121094 C 29.706738 92.730794 29.578125 92.112677 29.578125 91.267578 L 29.578125 90.677734 C 29.585225 89.868535 29.721328 89.271871 29.986328 88.888672 C 30.254828 88.501972 30.658113 88.308594 31.195312 88.308594 C 31.689412 88.308594 32.056975 88.423144 32.296875 88.652344 C 32.540375 88.877944 32.681403 89.243147 32.720703 89.748047 L 34.332031 89.748047 C 34.246031 88.874348 33.928453 88.19629 33.376953 87.712891 C 32.825554 87.229491 32.097612 86.986328 31.195312 86.986328 z M 41.685547 86.986328 C 41.033848 86.986328 40.453712 87.143885 39.945312 87.458984 C 39.440413 87.770484 39.048831 88.221294 38.769531 88.808594 C 38.493832 89.392193 38.355469 90.068091 38.355469 90.837891 L 38.355469 91.224609 C 38.359069 91.976509 38.499997 92.642557 38.779297 93.222656 C 39.058597 93.799156 39.452438 94.243188 39.960938 94.554688 C 40.469337 94.866287 41.047213 95.021484 41.695312 95.021484 C 42.350612 95.021484 42.930647 94.863928 43.435547 94.548828 C 43.943946 94.233728 44.335222 93.787131 44.607422 93.207031 C 44.879522 92.626932 45.015625 91.95144 45.015625 91.181641 L 45.015625 90.832031 C 45.015625 90.065732 44.875003 89.392193 44.595703 88.808594 C 44.320003 88.221294 43.928321 87.770484 43.419922 87.458984 C 42.915022 87.143885 42.337246 86.986328 41.685547 86.986328 z M 67.058594 86.986328 C 66.392594 86.986328 65.8103 87.13896 65.3125 87.443359 C 64.8184 87.744159 64.438728 88.180907 64.173828 88.753906 C 63.912428 89.323206 63.78125 89.998698 63.78125 90.779297 L 63.78125 91.310547 C 63.78835 92.069646 63.931332 92.730869 64.207031 93.292969 C 64.486331 93.855168 64.880272 94.284832 65.388672 94.582031 C 65.900771 94.875631 66.495176 95.021484 67.171875 95.021484 C 67.816474 95.021484 68.403594 94.928481 68.933594 94.738281 C 69.463493 94.544881 69.87211 94.273081 70.162109 93.925781 L 70.162109 90.806641 L 67.085938 90.806641 L 67.085938 91.992188 L 68.550781 91.992188 L 68.550781 93.341797 C 68.292982 93.599597 67.862912 93.728516 67.257812 93.728516 C 66.656213 93.728516 66.198218 93.518509 65.886719 93.099609 C 65.575119 92.68061 65.419922 92.060234 65.419922 91.240234 L 65.419922 90.742188 C 65.423422 89.929288 65.569069 89.316096 65.855469 88.904297 C 66.141968 88.492597 66.559522 88.287109 67.107422 88.287109 C 67.537121 88.287109 67.873688 88.389956 68.117188 88.597656 C 68.364187 88.805356 68.52215 89.134432 68.59375 89.582031 L 70.162109 89.582031 C 70.065409 88.737032 69.757074 88.092743 69.234375 87.652344 C 68.711676 87.208344 67.985993 86.986328 67.058594 86.986328 z M 2.9101562 87.09375 L 0 94.914062 L 1.7128906 94.914062 L 2.25 93.302734 L 5.0761719 93.302734 L 5.6191406 94.914062 L 7.3320312 94.914062 L 4.4042969 87.09375 L 2.9101562 87.09375 z M 6.9335938 87.09375 L 6.9335938 88.400391 L 9.296875 88.400391 L 9.296875 94.914062 L 10.908203 94.914062 L 10.908203 88.400391 L 13.304688 88.400391 L 13.304688 87.09375 L 6.9335938 87.09375 z M 14.228516 87.09375 L 14.228516 94.914062 L 19.470703 94.914062 L 19.470703 93.621094 L 15.839844 93.621094 L 15.839844 91.525391 L 18.933594 91.525391 L 18.933594 90.263672 L 15.839844 90.263672 L 15.839844 88.400391 L 19.458984 88.400391 L 19.458984 87.09375 L 14.228516 87.09375 z M 20.416016 87.09375 L 20.416016 94.914062 L 22.027344 94.914062 L 22.027344 89.769531 L 25.164062 94.914062 L 26.775391 94.914062 L 26.775391 87.09375 L 25.169922 87.09375 L 25.169922 92.25 L 22.027344 87.09375 L 20.416016 87.09375 z M 35.482422 87.09375 L 35.482422 94.914062 L 37.09375 94.914062 L 37.09375 87.09375 L 35.482422 87.09375 z M 46.185547 87.09375 L 46.185547 94.914062 L 47.796875 94.914062 L 47.796875 89.769531 L 50.933594 94.914062 L 52.544922 94.914062 L 52.544922 87.09375 L 50.939453 87.09375 L 50.939453 92.25 L 47.796875 87.09375 L 46.185547 87.09375 z M 58.943359 87.09375 L 56.03125 94.914062 L 57.744141 94.914062 L 58.28125 93.302734 L 61.107422 93.302734 L 61.650391 94.914062 L 63.363281 94.914062 L 60.435547 87.09375 L 58.943359 87.09375 z M 71.472656 87.09375 L 71.472656 94.914062 L 76.714844 94.914062 L 76.714844 93.621094 L 73.083984 93.621094 L 73.083984 91.525391 L 76.177734 91.525391 L 76.177734 90.263672 L 73.083984 90.263672 L 73.083984 88.400391 L 76.705078 88.400391 L 76.705078 87.09375 L 71.472656 87.09375 z M 77.660156 87.09375 L 77.660156 94.914062 L 79.271484 94.914062 L 79.271484 89.769531 L 82.408203 94.914062 L 84.019531 94.914062 L 84.019531 87.09375 L 82.414062 87.09375 L 82.414062 92.25 L 79.271484 87.09375 L 77.660156 87.09375 z M 85.427734 87.09375 L 85.427734 94.914062 L 87.849609 94.914062 C 88.533509 94.910463 89.147207 94.753006 89.691406 94.441406 C 90.235706 94.129907 90.655925 93.692753 90.953125 93.126953 C 91.253925 92.561254 91.40625 91.914299 91.40625 91.1875 L 91.40625 90.828125 C 91.40625 90.101226 91.253518 89.452112 90.949219 88.882812 C 90.644819 88.309813 90.220081 87.8704 89.675781 87.5625 C 89.135082 87.2509 88.521484 87.09375 87.833984 87.09375 L 85.427734 87.09375 z M 94.714844 87.09375 L 91.802734 94.914062 L 93.515625 94.914062 L 94.052734 93.302734 L 96.878906 93.302734 L 97.421875 94.914062 L 99.134766 94.914062 L 96.207031 87.09375 L 94.714844 87.09375 z M 99.865234 87.09375 L 99.865234 94.914062 L 102.9043 94.914062 C 103.7923 94.906863 104.47703 94.710918 104.95703 94.324219 C 105.43703 93.937519 105.67578 93.367134 105.67578 92.615234 C 105.67578 92.174735 105.55917 91.802347 105.32617 91.498047 C 105.09717 91.193647 104.78381 90.992778 104.38281 90.892578 C 104.73381 90.756478 105.00613 90.541953 105.20312 90.251953 C 105.40012 89.958353 105.49805 89.621381 105.49805 89.238281 C 105.49805 88.536382 105.25467 88.004278 104.76367 87.642578 C 104.27367 87.277378 103.55251 87.09375 102.60352 87.09375 L 99.865234 87.09375 z M 106.89062 87.09375 L 106.89062 94.914062 L 111.92383 94.914062 L 111.92383 93.621094 L 108.50195 93.621094 L 108.50195 87.09375 L 106.89062 87.09375 z M 112.85156 87.09375 L 112.85156 94.914062 L 118.09375 94.914062 L 118.09375 93.621094 L 114.46484 93.621094 L 114.46484 91.525391 L 117.55664 91.525391 L 117.55664 90.263672 L 114.46484 90.263672 L 114.46484 88.400391 L 118.08398 88.400391 L 118.08398 87.09375 L 112.85156 87.09375 z M 41.685547 88.318359 C 42.229846 88.318359 42.647807 88.532885 42.941406 88.958984 C 43.235106 89.385084 43.382812 90.008126 43.382812 90.828125 L 43.382812 91.208984 C 43.379213 92.021884 43.231506 92.640307 42.941406 93.066406 C 42.651407 93.489006 42.236012 93.701172 41.695312 93.701172 C 41.143913 93.701172 40.721334 93.481415 40.427734 93.041016 C 40.134035 92.600616 39.988281 91.98014 39.988281 91.181641 L 39.988281 90.800781 C 39.991881 89.987982 40.139994 89.372025 40.433594 88.953125 C 40.727293 88.530625 41.144847 88.318359 41.685547 88.318359 z M 87.039062 88.400391 L 87.833984 88.400391 C 88.467784 88.400391 88.949797 88.605879 89.279297 89.017578 C 89.608697 89.425778 89.773438 90.027366 89.773438 90.822266 L 89.773438 91.236328 C 89.766238 92.002627 89.594718 92.590154 89.261719 93.001953 C 88.928619 93.413753 88.448559 93.621094 87.818359 93.621094 L 87.039062 93.621094 L 87.039062 88.400391 z M 101.47656 88.400391 L 102.60352 88.400391 C 103.04752 88.400391 103.37217 88.479119 103.57617 88.636719 C 103.78417 88.790719 103.88867 89.043938 103.88867 89.398438 C 103.88867 90.032237 103.48192 90.356694 102.66992 90.371094 L 101.47656 90.371094 L 101.47656 88.400391 z M 3.6582031 89.070312 L 4.640625 91.998047 L 2.6855469 91.998047 L 3.6582031 89.070312 z M 59.689453 89.070312 L 60.671875 91.998047 L 58.716797 91.998047 L 59.689453 89.070312 z M 95.460938 89.070312 L 96.443359 91.998047 L 94.488281 91.998047 L 95.460938 89.070312 z M 101.47656 91.509766 L 102.95312 91.509766 C 103.69412 91.520566 104.06445 91.88341 104.06445 92.599609 C 104.06445 92.918209 103.95719 93.168963 103.74219 93.351562 C 103.53119 93.530562 103.23642 93.621094 102.85742 93.621094 L 101.47656 93.621094 L 101.47656 91.509766 z " />
</svg>
