<svg width="60" height="66" viewBox="0 0 60 66" fill="none" xmlns="http://www.w3.org/2000/svg">
<g clip-path="url(#clip0_837_1499)">
<path d="M48.8073 12.2359H29.9913C19.3795 12.2212 10.4471 20.0998 9.27296 30.5311C3.71438 20.5692 7.38542 8.05458 17.4771 2.55282C20.5388 0.894953 23.9869 0.0146714 27.4944 0H59.9988L48.8073 12.2359Z" fill="white"/>
<path d="M11.1766 53.389H29.9926C40.6044 53.389 49.5219 45.5105 50.7109 35.1085C56.2992 45.0264 52.6728 57.5264 42.6257 63.0428C39.5194 64.7447 36.0119 65.6396 32.4597 65.625H0L11.1766 53.389Z" fill="white"/>
<path d="M29.9922 49.3398C39.2431 49.3398 46.7423 41.937 46.7423 32.8051C46.7423 23.6733 39.2431 16.2705 29.9922 16.2705C20.7414 16.2705 13.2422 23.6733 13.2422 32.8051C13.2422 41.937 20.7414 49.3398 29.9922 49.3398Z" fill="white"/>
</g>
<defs>
<clipPath id="clip0_837_1499">
<rect width="60" height="65.625" fill="white"/>
</clipPath>
</defs>
</svg>
