<svg width="589" height="644" viewBox="0 0 589 644" fill="none" xmlns="http://www.w3.org/2000/svg">
<g opacity="0.1" clip-path="url(#clip0_840_1513)">
<path d="M478.975 120.075H294.327C190.19 119.931 102.533 197.246 91.0112 299.612C36.463 201.853 72.4881 79.0423 171.521 25.0516C201.566 8.78247 235.404 0.143975 269.824 0H588.8L478.975 120.075Z" fill="white"/>
<path d="M109.68 523.925H294.327C398.465 523.925 485.975 446.61 497.643 344.532C552.483 441.859 516.896 564.526 418.3 618.66C387.817 635.362 353.397 644.144 318.538 644H0L109.68 523.925Z" fill="white"/>
<path d="M294.327 484.188C385.108 484.188 458.701 411.542 458.701 321.928C458.701 232.314 385.108 159.668 294.327 159.668C203.546 159.668 129.953 232.314 129.953 321.928C129.953 411.542 203.546 484.188 294.327 484.188Z" fill="white"/>
</g>
<defs>
<clipPath id="clip0_840_1513">
<rect width="588.8" height="644" fill="white"/>
</clipPath>
</defs>
</svg>
