<svg width="187" height="41" viewBox="0 0 187 41" fill="none" xmlns="http://www.w3.org/2000/svg">
<g clip-path="url(#clip0_837_1505)">
<path d="M81.2009 16.48C79.7701 16.478 78.3709 16.9006 77.1804 17.6943C75.9899 18.488 75.0617 19.617 74.5132 20.9386C73.9647 22.2601 73.8207 23.7146 74.0994 25.118C74.378 26.5214 75.0668 27.8106 76.0786 28.8224C77.0903 29.8341 78.3795 30.5229 79.7829 30.8015C81.1863 31.0802 82.6408 30.9362 83.9624 30.3877C85.2839 29.8393 86.4129 28.911 87.2066 27.7205C88.0003 26.53 88.4229 25.1308 88.4209 23.7C88.4183 21.7859 87.6568 19.951 86.3033 18.5976C84.9499 17.2442 83.115 16.4826 81.2009 16.48V16.48ZM81.2009 26.89C80.5692 26.8939 79.9505 26.7102 79.4233 26.3621C78.896 26.014 78.4841 25.5172 78.2395 24.9347C77.995 24.3521 77.929 23.7101 78.0498 23.09C78.1706 22.4699 78.4729 21.8996 78.9182 21.4515C79.3635 21.0034 79.9319 20.6975 80.5512 20.5728C81.1705 20.4481 81.813 20.5101 82.397 20.7509C82.9811 20.9918 83.4805 21.4006 83.8319 21.9257C84.1833 22.4507 84.3709 23.0682 84.3709 23.7C84.371 24.5426 84.0376 25.3509 83.4437 25.9486C82.8498 26.5463 82.0435 26.8847 81.2009 26.89V26.89Z" fill="#EC111A"/>
<path d="M97.6311 16.8201H95.6611V12.5601H91.3411V16.8201H89.3711V20.7301H91.3411V30.5801H95.6611V20.7301H97.6311V16.8201Z" fill="#EC111A"/>
<path d="M103.929 16.8199H99.6094V30.5799H103.929V16.8199Z" fill="#EC111A"/>
<path d="M101.772 10.15C101.294 10.1481 100.828 10.2877 100.43 10.5513C100.032 10.8149 99.7218 11.1906 99.5379 11.6308C99.354 12.071 99.3048 12.5559 99.3967 13.0241C99.4885 13.4922 99.7173 13.9226 100.054 14.2606C100.391 14.5987 100.82 14.8292 101.288 14.923C101.755 15.0168 102.241 14.9696 102.682 14.7875C103.122 14.6054 103.499 14.2965 103.765 13.9C104.03 13.5035 104.172 13.0371 104.172 12.56C104.172 11.9226 103.919 11.3111 103.469 10.8594C103.019 10.4078 102.409 10.1527 101.772 10.15V10.15Z" fill="#EC111A"/>
<path d="M163.689 20.53C164.371 20.53 165.026 20.8005 165.509 21.2821C165.993 21.7638 166.266 22.4175 166.269 23.1V30.58H170.589V22.51C170.589 18.84 168.469 16.51 165.129 16.51C164.296 16.5287 163.485 16.773 162.78 17.2168C162.076 17.6606 161.505 18.2873 161.129 19.03V16.82H156.809V30.58H161.129V23.1C161.131 22.4209 161.401 21.7703 161.881 21.2892C162.36 20.808 163.01 20.5353 163.689 20.53V20.53Z" fill="#EC111A"/>
<path d="M186.329 30.58L181.019 23.71L185.959 16.82H180.909L176.939 22.39V10.49H172.629V30.58H176.939V24.91L181.299 30.58H186.329Z" fill="#EC111A"/>
<path d="M59.1109 26.88C59.4308 26.0726 59.5806 25.2079 59.5509 24.34C59.6052 23.0704 59.1845 21.8261 58.3709 20.85C57.0521 19.6223 55.4354 18.7605 53.6809 18.35C53.2315 18.236 52.793 18.082 52.3709 17.89C52.024 17.7284 51.7142 17.4969 51.4609 17.21C51.3259 17.0599 51.2219 16.8845 51.155 16.694C51.088 16.5035 51.0595 16.3016 51.0709 16.1C51.076 15.8022 51.1625 15.5114 51.3212 15.2593C51.4799 15.0072 51.7046 14.8034 51.9709 14.67C52.5077 14.4316 53.0886 14.3084 53.6759 14.3084C54.2633 14.3084 54.8441 14.4316 55.3809 14.67C55.8637 14.8465 56.329 15.0675 56.7709 15.33L58.6109 11.68C57.7943 11.1622 56.909 10.7616 55.9809 10.49C55.0204 10.2435 54.0326 10.1192 53.0409 10.12C52.1299 10.1242 51.2264 10.2867 50.3709 10.6C49.5764 10.9176 48.855 11.394 48.2509 12C47.6506 12.5972 47.1747 13.3076 46.8509 14.09C46.5299 14.8877 46.3669 15.7401 46.3709 16.6C46.4212 17.9818 47.0055 19.2903 48.0009 20.25C48.9427 21.0806 50.0506 21.7011 51.2509 22.07C51.8209 22.29 52.4609 22.48 52.8609 22.64C53.2774 22.7908 53.6737 22.9923 54.0409 23.24C54.3093 23.4133 54.5268 23.6549 54.6709 23.94C54.8016 24.2137 54.8502 24.5193 54.8109 24.82C54.7691 25.2756 54.5544 25.6978 54.2109 26C53.6362 26.4263 52.9229 26.6224 52.2109 26.55C51.3849 26.5332 50.5712 26.3459 49.8209 26C49.1329 25.7113 48.4647 25.3773 47.8209 25L45.7109 28.7C47.4374 30.1187 49.5965 30.9054 51.8309 30.93C52.9349 30.9288 54.0317 30.7533 55.0809 30.41C55.9846 30.0972 56.8222 29.6191 57.5509 29C58.2092 28.4064 58.74 27.6851 59.1109 26.88V26.88Z" fill="#EC111A"/>
<path d="M70.9316 25.7C70.5177 26.2143 69.9544 26.5876 69.3193 26.7682C68.6843 26.9489 68.0089 26.928 67.3862 26.7086C66.7635 26.4892 66.2242 26.0819 65.8428 25.543C65.4613 25.0042 65.2565 24.3602 65.2565 23.7C65.2565 23.0397 65.4613 22.3958 65.8428 21.8569C66.2242 21.318 66.7635 20.9108 67.3862 20.6913C68.0089 20.4719 68.6843 20.4511 69.3193 20.6317C69.9544 20.8124 70.5177 21.1856 70.9316 21.7L73.8016 18.83C72.8204 17.7493 71.5351 16.9909 70.1147 16.6545C68.6944 16.3182 67.2054 16.4196 65.8438 16.9456C64.4822 17.4715 63.3116 18.3972 62.4861 19.601C61.6606 20.8048 61.2188 22.2303 61.2188 23.69C61.2188 25.1496 61.6606 26.5751 62.4861 27.7789C63.3116 28.9827 64.4822 29.9085 65.8438 30.4344C67.2054 30.9603 68.6944 31.0617 70.1147 30.7254C71.5351 30.3891 72.8204 29.6307 73.8016 28.55L70.9316 25.7Z" fill="#EC111A"/>
<path d="M120.821 30.58V16.82H116.611V18.27L116.221 17.92C115.241 16.9911 113.941 16.4754 112.591 16.48C110.755 16.5984 109.033 17.411 107.775 18.753C106.517 20.0949 105.816 21.8655 105.816 23.705C105.816 25.5445 106.517 27.3151 107.775 28.657C109.033 29.999 110.755 30.8117 112.591 30.93C113.942 30.9309 115.242 30.4117 116.221 29.48L116.611 29.13V30.58H120.821ZM113.261 27C112.618 27 111.989 26.8094 111.455 26.4523C110.921 26.0952 110.504 25.5876 110.258 24.9937C110.012 24.3999 109.948 23.7464 110.073 23.116C110.198 22.4855 110.508 21.9064 110.963 21.4519C111.417 20.9974 111.996 20.6879 112.627 20.5625C113.257 20.4371 113.91 20.5014 114.504 20.7474C115.098 20.9934 115.606 21.4099 115.963 21.9444C116.32 22.4789 116.511 23.1072 116.511 23.75C116.508 24.6112 116.165 25.4363 115.556 26.0452C114.947 26.6541 114.122 26.9974 113.261 27Z" fill="#EC111A"/>
<path d="M154.739 30.58V16.82H150.529V18.27L150.139 17.92C149.159 16.9911 147.859 16.4754 146.509 16.48C144.673 16.5984 142.951 17.411 141.693 18.753C140.435 20.0949 139.734 21.8655 139.734 23.705C139.734 25.5445 140.435 27.3151 141.693 28.657C142.951 29.999 144.673 30.8117 146.509 30.93C147.86 30.9309 149.16 30.4117 150.139 29.48L150.529 29.13V30.58H154.739ZM147.179 27C146.536 27 145.907 26.8094 145.373 26.4523C144.839 26.0952 144.422 25.5876 144.176 24.9937C143.93 24.3999 143.866 23.7464 143.991 23.116C144.116 22.4855 144.426 21.9064 144.88 21.4519C145.335 20.9974 145.914 20.6879 146.545 20.5625C147.175 20.4371 147.828 20.5014 148.422 20.7474C149.016 20.9934 149.524 21.4099 149.881 21.9444C150.238 22.4789 150.429 23.1072 150.429 23.75C150.426 24.6112 150.083 25.4363 149.474 26.0452C148.865 26.6541 148.04 26.9974 147.179 27V27Z" fill="#EC111A"/>
<path d="M127.261 30.58V29.13L127.651 29.48C128.63 30.4117 129.929 30.9309 131.281 30.93C133.117 30.8116 134.838 29.999 136.097 28.657C137.355 27.3151 138.055 25.5445 138.055 23.705C138.055 21.8655 137.355 20.0949 136.097 18.753C134.838 17.411 133.117 16.5983 131.281 16.48C129.931 16.4754 128.631 16.9911 127.651 17.92L127.261 18.27V10.49H123.051V30.58H127.261ZM127.371 23.7C127.379 23.0561 127.577 22.429 127.941 21.8978C128.305 21.3666 128.818 20.955 129.415 20.715C130.013 20.475 130.668 20.4173 131.298 20.5492C131.929 20.6811 132.506 20.9967 132.957 21.4561C133.408 21.9156 133.713 22.4984 133.833 23.1309C133.953 23.7635 133.884 24.4175 133.633 25.0105C133.382 25.6035 132.961 26.1089 132.423 26.463C131.885 26.817 131.255 27.0039 130.611 27C130.181 26.9974 129.756 26.9098 129.36 26.7423C128.964 26.5748 128.605 26.3307 128.304 26.024C128.003 25.7173 127.766 25.354 127.605 24.9552C127.445 24.5564 127.365 24.1298 127.371 23.7V23.7Z" fill="#EC111A"/>
<path d="M30.0999 7.64H18.4999C15.3368 7.64006 12.2848 8.80582 9.9271 10.9144C7.56944 13.023 6.07158 15.9266 5.71986 19.07V19.07C4.64057 17.1128 4.09001 14.9082 4.12245 12.6734C4.15489 10.4385 4.76921 8.25079 5.90484 6.32576C7.04048 4.40073 8.65821 2.80492 10.5985 1.69565C12.5389 0.586375 14.7348 0.00195281 16.9699 0H36.9699L30.0999 7.64Z" fill="#EC111A"/>
<path d="M6.89 33.3601H18.5C21.6624 33.3578 24.7133 32.1913 27.0705 30.0831C29.4277 27.9749 30.9262 25.0726 31.28 21.9301V21.9301C32.3597 23.888 32.9103 26.0936 32.8774 28.3292C32.8445 30.5648 32.2293 32.7533 31.0925 34.6786C29.9557 36.6039 28.3365 38.1996 26.3948 39.3081C24.4531 40.4167 22.2559 40.9998 20.02 41.0001H0L6.89 33.3601Z" fill="#EC111A"/>
<path d="M18.5019 30.83C24.207 30.83 28.8319 26.2051 28.8319 20.5C28.8319 14.7949 24.207 10.17 18.5019 10.17C12.7968 10.17 8.17188 14.7949 8.17188 20.5C8.17188 26.2051 12.7968 30.83 18.5019 30.83Z" fill="#EC111A"/>
</g>
<defs>
<clipPath id="clip0_837_1505">
<rect width="186.33" height="41" fill="white"/>
</clipPath>
</defs>
</svg>
