<svg width="100" height="100" viewBox="0 0 100 100" fill="none" xmlns="http://www.w3.org/2000/svg">
<g filter="url(#filter0_d_2_176)">
<rect x="10" y="6" width="80" height="80" rx="5" fill="#F7F7F7"/>
</g>
<path d="M72.1142 57.3366H69.5138L69.1887 56.7677C69.0262 56.3614 68.498 56.0364 68.0511 56.0364H65.2068L64.1098 54.9393C63.9879 54.8174 63.8253 54.7361 63.6628 54.7361C63.6628 54.7361 63.6628 54.7361 63.6222 54.7361C63.2971 54.7361 63.0127 55.0612 63.0127 55.3863V62.5375H58.4619H58.4213C57.6493 62.5375 56.9179 62.7813 56.3085 63.1876H55.2114C54.1143 63.1876 53.2611 62.3343 53.2611 61.2372C53.2611 60.9122 52.936 60.5871 52.611 60.5871C52.2453 60.5871 51.9608 60.9122 51.9608 61.2372C51.9608 63.025 53.3423 64.4472 55.0895 64.4878C54.7644 65.0566 54.5613 65.7474 54.5613 66.4381V72.9392C54.5613 73.6706 55.1301 74.2394 55.8615 74.2394H58.4619C59.1527 74.2394 59.7622 73.6706 59.7622 72.9392V69.0386H63.6628V72.9392C63.6628 73.6706 64.2317 74.2394 64.963 74.2394H67.5635C68.2542 74.2394 68.8637 73.6706 68.8637 72.9392V63.1876H70.1639C71.586 63.1876 72.7643 62.0499 72.7643 60.5871V57.9867C72.7643 57.6616 72.4393 57.3366 72.1142 57.3366ZM67.5635 72.9392H64.963V67.7383H58.4619V72.9392H55.8615V66.4381C55.8615 65.016 56.9992 63.8783 58.4619 63.8377H63.2565L67.5635 64.9347V72.9392ZM71.4641 60.5871C71.4641 61.3185 70.8546 61.8874 70.1639 61.8874H67.5635V63.5939L64.3129 62.7813V56.9709L64.6786 57.3366H68.0511L68.7012 58.6368H71.4641V60.5871ZM67.5635 58.6368C67.5635 58.3118 67.2384 57.9867 66.9134 57.9867C66.5477 57.9867 66.2633 58.3118 66.2633 58.6368C66.2633 59.0025 66.5477 59.2869 66.9134 59.2869C67.2384 59.2869 67.5635 59.0025 67.5635 58.6368Z" fill="#0081A4"/>
<path d="M72.1142 57.3366H69.5138L69.1887 56.7677C69.0262 56.3614 68.498 56.0364 68.0511 56.0364H65.2068L64.1098 54.9393C63.9879 54.8174 63.8253 54.7361 63.6628 54.7361C63.6628 54.7361 63.6628 54.7361 63.6222 54.7361C63.2971 54.7361 63.0127 55.0612 63.0127 55.3863V62.5375H58.4619H58.4213C57.6493 62.5375 56.9179 62.7813 56.3085 63.1876H55.2114C54.1143 63.1876 53.2611 62.3343 53.2611 61.2372C53.2611 60.9122 52.936 60.5871 52.611 60.5871C52.2453 60.5871 51.9608 60.9122 51.9608 61.2372C51.9608 63.025 53.3423 64.4472 55.0895 64.4878C54.7644 65.0566 54.5613 65.7474 54.5613 66.4381V72.9392C54.5613 73.6706 55.1301 74.2394 55.8615 74.2394H58.4619C59.1527 74.2394 59.7622 73.6706 59.7622 72.9392V69.0386H63.6628V72.9392C63.6628 73.6706 64.2317 74.2394 64.963 74.2394H67.5635C68.2542 74.2394 68.8637 73.6706 68.8637 72.9392V63.1876H70.1639C71.586 63.1876 72.7643 62.0499 72.7643 60.5871V57.9867C72.7643 57.6616 72.4393 57.3366 72.1142 57.3366ZM67.5635 72.9392H64.963V67.7383H58.4619V72.9392H55.8615V66.4381C55.8615 65.016 56.9992 63.8783 58.4619 63.8377H63.2565L67.5635 64.9347V72.9392ZM71.4641 60.5871C71.4641 61.3185 70.8546 61.8874 70.1639 61.8874H67.5635V63.5939L64.3129 62.7813V56.9709L64.6786 57.3366H68.0511L68.7012 58.6368H71.4641V60.5871ZM67.5635 58.6368C67.5635 58.3118 67.2384 57.9867 66.9134 57.9867C66.5477 57.9867 66.2633 58.3118 66.2633 58.6368C66.2633 59.0025 66.5477 59.2869 66.9134 59.2869C67.2384 59.2869 67.5635 59.0025 67.5635 58.6368Z" fill="url(#paint0_linear_2_176)"/>
<path d="M49.4974 25.4929C47.1559 34.1673 41.9371 30.5957 41.0447 30.3646L39.1642 31.4334L39.2917 30.9611L40.93 30.0316C41.0449 29.3026 40.9133 27.603 42.6531 26.3189C44.394 25.0312 45.9242 25.5416 49.4974 25.4929ZM48.2712 26.7149C48.9417 25.9275 48.1296 26.5754 48.1296 26.5754C47.3413 27.2434 46.4674 27.4128 45.5097 27.6258C44.2619 27.9028 42.5851 28.3758 41.7569 29.4227C40.9296 30.466 41.3622 29.9826 41.8818 29.5733C42.4051 29.1651 43.7963 28.7612 44.6927 28.5589C45.9379 28.2773 47.1459 28.0324 48.2712 26.7149Z" fill="#0081A4"/>
<path d="M37.8956 23.2809C37.8956 26.0447 35.653 28.2872 32.8892 28.2872C30.1254 28.2872 27.8829 26.0447 27.8829 23.2809C27.8829 20.517 30.1254 18.2745 32.8892 18.2745C35.653 18.2745 37.8956 20.517 37.8956 23.2809ZM32.8892 31.1227C33.919 31.1227 34.8989 30.9013 35.7841 30.5108H37.7837C40.2111 30.5108 42.1783 32.4781 42.1783 34.9054V35.5172C42.1783 36.2544 41.58 36.8526 40.8428 36.8526H24.9356C24.1984 36.8526 23.6001 36.2544 23.6001 35.5172V34.9054C23.6001 32.4781 25.5674 30.5108 27.9947 30.5108H29.9947C30.8825 30.901 31.8588 31.1227 32.8892 31.1227Z" stroke="#0081A4"/>
<path d="M37.8956 23.2809C37.8956 26.0447 35.653 28.2872 32.8892 28.2872C30.1254 28.2872 27.8829 26.0447 27.8829 23.2809C27.8829 20.517 30.1254 18.2745 32.8892 18.2745C35.653 18.2745 37.8956 20.517 37.8956 23.2809ZM32.8892 31.1227C33.919 31.1227 34.8989 30.9013 35.7841 30.5108H37.7837C40.2111 30.5108 42.1783 32.4781 42.1783 34.9054V35.5172C42.1783 36.2544 41.58 36.8526 40.8428 36.8526H24.9356C24.1984 36.8526 23.6001 36.2544 23.6001 35.5172V34.9054C23.6001 32.4781 25.5674 30.5108 27.9947 30.5108H29.9947C30.8825 30.901 31.8588 31.1227 32.8892 31.1227Z" stroke="url(#paint1_linear_2_176)"/>
<path d="M49.4975 25.4926C47.156 34.167 41.9372 30.5954 41.0448 30.3642L39.1643 31.433L39.2918 30.9608L40.9301 30.0312C41.045 29.3023 40.9134 27.6027 42.6532 26.3186C44.3941 25.0308 45.9243 25.5413 49.4975 25.4926ZM48.2713 26.7146C48.9418 25.9271 48.1297 26.5751 48.1297 26.5751C47.3414 27.243 46.4675 27.4125 45.5098 27.6255C44.262 27.9025 42.5852 28.3754 41.757 29.4224C40.9297 30.4657 41.3623 29.9822 41.8819 29.573C42.4052 29.1648 43.7964 28.7609 44.6928 28.5585C45.938 28.2769 47.146 28.0321 48.2713 26.7146Z" fill="url(#paint2_linear_2_176)"/>
<path d="M27.842 51.2851L32.5085 52.1984C32.831 52.2615 33.0408 52.5733 32.9763 52.8938L32.8245 53.6693C32.7614 53.9918 32.4496 54.2016 32.1291 54.1371L28.8207 53.4931L28.1733 56.8009C28.1102 57.1234 27.7983 57.3331 27.4778 57.2686L26.7003 57.1182C26.3778 57.0551 26.168 56.7433 26.2326 56.4228L27.1459 51.7563C27.2076 51.4317 27.5194 51.222 27.842 51.2851V51.2851Z" fill="#47BCCA"/>
<path d="M28.6697 52.7112C29.8512 57.015 34.0368 65.3188 41.328 64.1036" stroke="#47BCCA" stroke-width="2" stroke-linecap="round"/>
<path d="M69.1533 42.5239L64.6504 40.996C64.3392 40.8904 64.173 40.5534 64.2797 40.2444L64.5336 39.4961C64.6392 39.1849 64.9762 39.0186 65.2852 39.1253L68.4781 40.205L69.5611 37.0133C69.6667 36.702 70.0037 36.5358 70.3128 36.6425L71.0633 36.8953C71.3745 37.0009 71.5407 37.3379 71.434 37.6469L69.9061 42.1498C69.8016 42.4633 69.4646 42.6295 69.1533 42.5239V42.5239Z" fill="#47BCCA"/>
<path d="M68.5233 41.0002C67.9268 36.5773 64.8868 27.7892 57.4987 28.0204" stroke="#47BCCA" stroke-width="2" stroke-linecap="round"/>
<defs>
<filter id="filter0_d_2_176" x="0" y="0" width="100" height="100" filterUnits="userSpaceOnUse" color-interpolation-filters="sRGB">
<feFlood flood-opacity="0" result="BackgroundImageFix"/>
<feColorMatrix in="SourceAlpha" type="matrix" values="0 0 0 0 0 0 0 0 0 0 0 0 0 0 0 0 0 0 127 0" result="hardAlpha"/>
<feOffset dy="4"/>
<feGaussianBlur stdDeviation="5"/>
<feColorMatrix type="matrix" values="0 0 0 0 0 0 0 0 0 0 0 0 0 0 0 0 0 0 0.25 0"/>
<feBlend mode="normal" in2="BackgroundImageFix" result="effect1_dropShadow_2_176"/>
<feBlend mode="normal" in="SourceGraphic" in2="effect1_dropShadow_2_176" result="shape"/>
</filter>
<linearGradient id="paint0_linear_2_176" x1="62.3626" y1="53.4359" x2="62.3626" y2="74.2394" gradientUnits="userSpaceOnUse">
<stop stop-color="#3BC1CD"/>
<stop offset="1" stop-color="white" stop-opacity="0"/>
</linearGradient>
<linearGradient id="paint1_linear_2_176" x1="32.8892" y1="17.7745" x2="32.8892" y2="37.3526" gradientUnits="userSpaceOnUse">
<stop stop-color="#3BC1CD"/>
<stop offset="1" stop-color="#3BC1CD" stop-opacity="0"/>
</linearGradient>
<linearGradient id="paint2_linear_2_176" x1="48.3993" y1="29.561" x2="40.2625" y2="27.3646" gradientUnits="userSpaceOnUse">
<stop stop-color="#47BCCA"/>
<stop offset="1" stop-color="#47BCCA" stop-opacity="0"/>
</linearGradient>
</defs>
</svg>
