<svg width="28" height="33" viewBox="0 0 28 33" fill="none" xmlns="http://www.w3.org/2000/svg">
<g clip-path="url(#clip0_20_4608)">
<path fill-rule="evenodd" clip-rule="evenodd" d="M13.75 1.03125C14.3203 1.03125 14.7812 1.49325 14.7812 2.0625V5.20884C19.9849 5.72756 24.0625 10.13 24.0625 15.4688V21.6562C25.7682 21.6562 27.1562 23.0443 27.1562 24.75C27.1562 26.4557 25.7682 27.8438 24.0625 27.8438H16.653C16.7695 28.1676 16.8438 28.511 16.8438 28.875C16.8438 30.5807 15.4557 31.9688 13.75 31.9688C12.0443 31.9688 10.6562 30.5807 10.6562 28.875C10.6562 28.511 10.7305 28.1676 10.847 27.8438H3.4375C1.73181 27.8438 0.34375 26.4557 0.34375 24.75C0.34375 23.0443 1.73181 21.6562 3.4375 21.6562V15.4688C3.4375 10.13 7.51506 5.72756 12.7188 5.20884V2.0625C12.7188 1.49325 13.1797 1.03125 13.75 1.03125ZM13.75 27.8438C13.1807 27.8438 12.7188 28.3068 12.7188 28.875C12.7188 29.4432 13.1807 29.9062 13.75 29.9062C14.3193 29.9062 14.7812 29.4432 14.7812 28.875C14.7812 28.3068 14.3193 27.8438 13.75 27.8438ZM24.0625 23.7188H3.4375C2.86825 23.7188 2.40625 24.1818 2.40625 24.75C2.40625 25.3182 2.86825 25.7812 3.4375 25.7812H24.0625C24.6318 25.7812 25.0938 25.3182 25.0938 24.75C25.0938 24.1818 24.6318 23.7188 24.0625 23.7188ZM13.75 7.21875C9.20116 7.21875 5.5 10.9199 5.5 15.4688V21.6562H22V15.4688C22 10.9199 18.2988 7.21875 13.75 7.21875ZM22 2.0625C23.1385 2.0625 24.0625 2.9865 24.0625 4.125C24.0625 5.2635 23.1385 6.1875 22 6.1875C20.8615 6.1875 19.9375 5.2635 19.9375 4.125C19.9375 2.9865 20.8615 2.0625 22 2.0625Z" fill="white"/>
</g>
<defs>
<clipPath id="clip0_20_4608">
<rect width="27.5" height="33" fill="white"/>
</clipPath>
</defs>
</svg>
