<svg width="34" height="34" viewBox="0 0 34 34" fill="none" xmlns="http://www.w3.org/2000/svg">
<path fill-rule="evenodd" clip-rule="evenodd" d="M18.0624 2.12657C18.0624 1.40832 18.7658 0.887693 19.4606 1.11826L32.2106 5.36719C32.6452 5.51276 32.9374 5.91863 32.9374 6.37551V27.6255C32.9374 28.0824 32.6452 28.4883 32.2106 28.6328L19.4606 32.8828C18.7679 33.1112 18.0624 32.5948 18.0624 31.8744V28.688H9.5624C8.39046 28.688 7.4374 27.7349 7.4374 26.563V23.3755C7.4374 22.7879 7.9134 22.313 8.4999 22.313C9.0864 22.313 9.5624 22.7879 9.5624 23.3755V26.563H18.0624V7.43907H9.5624V10.6255C9.5624 11.212 9.0864 11.688 8.4999 11.688C7.9134 11.688 7.4374 11.212 7.4374 10.6255V7.43907C7.4374 6.26713 8.39046 5.31407 9.5624 5.31407H18.0624V2.12657ZM20.1874 3.60026V30.4008L30.8124 26.8594V7.14157L20.1874 3.60026ZM6.06156 13.0615C6.477 13.4769 6.477 14.1495 6.06156 14.5649L4.68775 15.9387H14.8729C15.4594 15.9387 15.9354 16.4137 15.9354 17.0002C15.9354 17.5867 15.4594 18.0627 14.8729 18.0627H4.68775L6.06156 19.4365C6.477 19.8519 6.477 20.5234 6.06156 20.9389C5.64613 21.3543 4.97463 21.3543 4.55919 20.9389L1.37169 17.7524C0.957315 17.337 0.961565 16.6591 1.37169 16.249L4.55919 13.0615C4.97463 12.6471 5.64613 12.6471 6.06156 13.0615ZM25.4999 15.9377C26.0875 15.9377 26.5624 16.4137 26.5624 17.0002C26.5624 17.5867 26.0875 18.0627 25.4999 18.0627H23.3749C22.7873 18.0627 22.3124 17.5867 22.3124 17.0002C22.3124 16.4137 22.7873 15.9377 23.3749 15.9377H25.4999Z" fill="#F6F6F6"/>
</svg>
