<svg width="66" height="66" viewBox="0 0 66 66" fill="none" xmlns="http://www.w3.org/2000/svg">
<g clip-path="url(#clip0_0_1003)">
<path d="M47.8458 4.95515L11.5487 41.2596L24.7494 54.463L61.0465 18.1585L47.8458 4.95515Z" fill="#36276F"/>
<path d="M39.6 52.7973L26.4 66V52.7973L39.6 39.6013V52.7973Z" fill="#45BBC9"/>
<path d="M13.2 39.6014L26.4 26.3987H13.2L0 39.6014H13.2Z" fill="#45BBC9"/>
<path d="M48.9276 17.2039C50.5574 18.834 50.5574 21.4813 48.9276 23.1182C47.2978 24.7483 44.651 24.7483 43.0145 23.1182C41.3847 21.4881 41.3847 18.8408 43.0145 17.2039C44.6443 15.5738 47.291 15.5738 48.9276 17.2039Z" fill="white"/>
<path d="M65.9124 0.0875991C53.5745 -0.781354 47.8365 4.95104 47.8365 4.95104L61.05 18.1605C61.05 18.1605 66.7812 12.455 65.9124 0.0875991Z" fill="#45BBC9"/>
</g>
<defs>
<clipPath id="clip0_0_1003">
<rect width="66" height="66" fill="white"/>
</clipPath>
</defs>
</svg>
