<svg width="58" height="49" viewBox="0 0 58 49" fill="none" xmlns="http://www.w3.org/2000/svg">
<g clip-path="url(#clip0_0_943)">
<path d="M58 20.0391H0V49H58V20.0391Z" fill="#36276F"/>
<path d="M29 8.90909C36.603 2.44364 46.7846 0 58 0V37.5455C46.7846 37.5455 36.603 41.3573 29 47.8227C21.397 41.3827 11.2154 37.5455 0 37.5455V0C11.2154 0 21.397 2.44364 29 8.90909Z" fill="#45BBC9"/>
<path d="M36.5211 19.3391C32.7574 15.1455 26.3396 14.8273 22.185 18.6264C21.9391 18.8555 21.6996 19.0909 21.4789 19.3391L15.7609 25.5182L21.4789 31.6973C25.2426 35.8909 31.6604 36.2091 35.815 32.41C36.0609 32.1809 36.3004 31.9455 36.5211 31.6973L42.2391 25.5182L36.5211 19.3391Z" fill="white"/>
<path d="M29 29.9727C31.4372 29.9727 33.413 27.9783 33.413 25.5181C33.413 23.058 31.4372 21.0636 29 21.0636C26.5627 21.0636 24.5869 23.058 24.5869 25.5181C24.5869 27.9783 26.5627 29.9727 29 29.9727Z" fill="#36276F"/>
</g>
<defs>
<clipPath id="clip0_0_943">
<rect width="58" height="49" fill="white"/>
</clipPath>
</defs>
</svg>
