<svg width="47" height="61" viewBox="0 0 47 61" fill="none" xmlns="http://www.w3.org/2000/svg">
<g clip-path="url(#clip0_0_992)">
<path d="M47 61L27.9957 54.8685V6.13788L47 0V61Z" fill="#0061A0"/>
<path d="M11.4128 9.17468C4.74627 14.8631 1.57354 23.6526 3.06357 32.288L5.67753 31.6011C5.83168 31.524 4.84903 23.2546 15.1508 14.4201" fill="#36276F"/>
<path d="M20.9311 61C19.2484 38.426 10.2054 37.5207 10.2054 37.5207L13.9626 26.6831C13.9626 26.6831 26.7113 33.1805 25.9278 61H20.9311Z" fill="#36276F"/>
<path d="M18.7538 17.3287C23.8918 28.5772 36.1267 28.8275 36.1267 28.8275L36.6084 26.1695C36.6084 25.9962 26.5636 24.3461 22.8578 11.8071" fill="#36276F"/>
<path d="M13.224 4.57773C13.224 2.0481 15.2728 0 17.8033 0C20.3337 0 22.3825 2.0481 22.3825 4.57773C22.3825 7.10736 20.3337 9.15546 17.8033 9.15546C15.2792 9.15546 13.2304 7.10736 13.2304 4.58415C13.2304 4.58415 13.2304 4.58415 13.2304 4.57773" fill="#36276F"/>
<path d="M18.7473 31.203C16.037 40.6795 11.8046 51.928 5.02883 61H0C5.2472 50.6568 8.00246 38.6314 9.56313 28.744L18.7473 31.203Z" fill="#36276F"/>
<path d="M11.4256 9.15552L22.8577 11.775C21.9778 18.3431 20.6034 24.8405 18.7473 31.2031L9.56311 28.7441C10.6164 22.2595 11.233 15.7171 11.4256 9.15552Z" fill="#36276F"/>
</g>
<defs>
<clipPath id="clip0_0_992">
<rect width="47" height="61" fill="white"/>
</clipPath>
</defs>
</svg>
