<svg width="66" height="48" viewBox="0 0 66 48" fill="none" xmlns="http://www.w3.org/2000/svg">
<g clip-path="url(#clip0_0_1011)">
<path d="M59.9637 1.47681H6.03624C3.51886 1.47681 1.47812 3.51574 1.47812 6.0309V41.9759C1.47812 44.4911 3.51886 46.53 6.03624 46.53H59.9637C62.4811 46.53 64.5219 44.4911 64.5219 41.9759V6.0309C64.5219 3.51574 62.4811 1.47681 59.9637 1.47681Z" fill="#45BBC9"/>
<path d="M59.9638 48H6.03625C2.70187 48 0.006875 45.3005 0 41.9691V6.03091C0 2.69948 2.70187 0 6.03625 0H59.9638C63.2981 0 65.9931 2.69948 66 6.03091V41.9691C66 45.3005 63.2981 47.9931 59.9638 48ZM6.03625 2.95364C4.33812 2.95364 2.96313 4.33429 2.95625 6.03091V41.9691C2.95625 43.6657 4.33812 45.0395 6.03625 45.0464H59.9638C61.6619 45.0464 63.0369 43.6657 63.0437 41.9691V6.03091C63.0437 4.33429 61.6619 2.9605 59.9638 2.95364H6.03625Z" fill="#36276F"/>
<path d="M42.9206 22.008L25.3756 11.8901C24.2756 11.2581 22.8731 11.6428 22.2406 12.7418C22.0412 13.0921 21.9381 13.4837 21.9381 13.8821V34.1179C21.9381 35.3818 22.9625 36.4121 24.2344 36.4121C24.6331 36.4121 25.0319 36.3091 25.3756 36.1099L42.9206 25.992C44.0206 25.36 44.4056 23.9588 43.7731 22.8597C43.5669 22.5026 43.2713 22.2072 42.9206 22.008Z" fill="white"/>
</g>
<defs>
<clipPath id="clip0_0_1011">
<rect width="66" height="48" fill="white"/>
</clipPath>
</defs>
</svg>
