<svg width="1138" height="36" viewBox="0 0 1138 36" fill="none" xmlns="http://www.w3.org/2000/svg">
<g clip-path="url(#clip0_1_398)">
<path d="M29.7731 20.2499C30.2138 20.2499 30.5916 19.9687 30.7175 19.4765L33.6137 11.4608L38.9023 35.0858C39.0281 35.6483 39.4059 35.9296 39.9096 35.9999C40.3503 35.9296 40.7911 35.578 40.854 35.0858L46.0167 6.18744L48.9758 19.3358C49.1017 19.828 49.5425 20.2499 49.9203 20.2499H1018.5C1018.81 20.2499 1019 19.9688 1019 19.6875V18.5625C1019 18.2109 1018.81 18 1018.5 18L50.7388 17.9999L46.8982 0.843689C46.7723 0.281189 46.3945 -6.0986e-05 45.8908 -6.10352e-05C45.4501 -6.10782e-05 45.0094 0.351501 44.9464 0.843689L39.7837 29.7421L34.8099 7.59369C34.684 7.1015 34.3062 6.74994 33.9284 6.74994C33.4247 6.67963 33.047 6.96088 32.921 7.45306L29.1435 17.9999H0.50368C0.25184 17.9999 1.15591e-07 18.2108 8.80656e-08 18.5624L0 19.6874C-2.20097e-08 19.9687 0.251839 20.2499 0.503679 20.2499H29.7731Z" fill="black" fill-opacity="0.25"/>
</g>
<defs>
<clipPath id="clip0_1_398">
<rect width="1138" height="36" fill="white"/>
</clipPath>
</defs>
</svg>
