<svg width="300" height="65" viewBox="0 0 300 65" fill="none" xmlns="http://www.w3.org/2000/svg">
<path d="M41.3628 31.5137H25.8084V47.1343H15.5496V31.5137H0V21.5212H15.6398V5.81763H25.8132V21.5212H41.3675L41.3628 31.5137Z" fill="#FBC000"/>
<path d="M66.1363 34.0954C65.1678 34.0954 64.159 34.0551 63.1502 33.9745V42.1534H56.656V15.4427C59.3596 15.2815 61.6169 15.1203 65.2889 15.1606C72.0656 15.2009 76.7843 17.619 76.8247 24.2664C76.8651 31.0751 72.227 34.0954 66.1363 34.0954ZM70.2593 24.6292C70.2593 22.1304 68.4434 20.7602 65.7494 20.7602C64.6195 20.7602 63.8125 20.7602 63.1669 20.8005V28.5361C64.0142 28.6167 64.7406 28.657 65.3031 28.657C68.4339 28.657 70.2593 27.5285 70.2593 24.6292Z" fill="#0090D7"/>
<path d="M102.156 41.9923L102.075 42.1535H95.0566L89.7729 33.453H87.4325V42.1535H80.9407V15.4428C83.884 15.2412 86.1033 15.1606 89.4857 15.1606C95.4554 15.1606 100.981 17.1354 100.981 24.1053C100.981 28.5765 98.9232 31.1961 96.139 32.4858L102.156 41.9923ZM87.4397 28.5362H89.8133C92.5145 28.5362 94.411 27.1137 94.411 24.6695C94.411 22.0618 92.7494 20.7603 90.0934 20.7603C89.2056 20.7421 88.3175 20.769 87.4325 20.8409L87.4397 28.5362Z" fill="#0090D7"/>
<path d="M104.736 28.7779C104.736 20.0774 110.786 14.8381 118.814 14.8381C126.113 14.8381 132.93 19.5132 132.93 28.7779C132.93 37.4404 126.839 42.637 118.814 42.637C111.513 42.637 104.736 38.045 104.736 28.7779ZM126.113 28.7779C126.113 23.7828 123.25 20.7602 118.814 20.7602C114.378 20.7602 111.56 23.7828 111.56 28.7779C111.56 33.7327 114.382 36.7553 118.821 36.7553C123.26 36.7553 126.113 33.7327 126.113 28.7779Z" fill="#0090D7"/>
<path d="M157.293 21.3364H149.265V42.1655H142.655V21.3364H134.307V15.4429H157.298L157.293 21.3364Z" fill="#0090D7"/>
<path d="M178.71 36.7958V42.1536H160.932V15.4429H178.356V20.8007H167.466V25.8408H177.59V31.0777H167.466V36.7982L178.71 36.7958Z" fill="#0090D7"/>
<path d="M181.896 29.1004C181.896 20.1581 187.744 14.8382 196.137 14.8382C198.491 14.8182 200.833 15.1711 203.076 15.8837V22.0096L202.955 22.0902C201.117 21.2102 199.104 20.7556 197.066 20.7602C191.661 20.7602 188.675 23.662 188.675 28.778C188.675 33.8133 191.701 36.7151 197.22 36.7151C199.179 36.7593 201.123 36.3741 202.917 35.5866L203.078 35.7075V41.6343C201.302 42.2388 198.722 42.6418 196.261 42.6418C188.027 42.6371 181.896 37.642 181.896 29.1004Z" fill="#0090D7"/>
<path d="M206.097 29.1004C206.097 20.1581 211.946 14.8382 220.339 14.8382C222.692 14.8182 225.034 15.1711 227.277 15.8837V22.0096L227.156 22.0902C225.318 21.2102 223.305 20.7556 221.267 20.7602C215.862 20.7602 212.876 23.662 212.876 28.778C212.876 33.8133 215.903 36.7151 221.421 36.7151C223.38 36.7593 225.324 36.3741 227.118 35.5866L227.279 35.7075V41.6343C225.504 42.2388 222.921 42.6418 220.462 42.6418C212.228 42.6371 206.097 37.642 206.097 29.1004Z" fill="#0090D7"/>
<path d="M232.195 15.4429H238.77V42.1536H232.195V15.4429Z" fill="#0090D7"/>
<path d="M243.534 28.7779C243.534 20.0775 249.584 14.8382 257.61 14.8382C264.911 14.8382 271.728 19.5132 271.728 28.7779C271.728 37.4405 265.637 42.6371 257.61 42.6371C250.306 42.6371 243.534 38.045 243.534 28.7779ZM264.911 28.7779C264.911 23.7829 262.048 20.7602 257.61 20.7602C253.171 20.7602 250.351 23.7829 250.351 28.7779C250.351 33.7327 253.173 36.7554 257.61 36.7554C262.046 36.7554 264.897 33.7327 264.897 28.7779H264.911ZM252.245 10.891L260.553 5.57349L263.456 10.4074L263.135 11.0522L253.503 13.9871L252.245 10.891Z" fill="#0090D7"/>
<path d="M276.442 15.4429H279.304L293.584 29.7856H293.705V15.4429H299.997V42.1536H297.135L282.815 27.5287H282.699V42.1536H276.446L276.442 15.4429Z" fill="#0090D7"/>
</svg>
