<svg width="100" height="100" viewBox="0 0 100 100" fill="none" xmlns="http://www.w3.org/2000/svg">
<path d="M74.4437 67.0138C71.9282 46.9834 75.6176 19.5838 60.4047 12.5033C52.8273 8.97909 44.7802 8.86924 37.2791 14.1556C26.4575 24.5321 27.9421 47.213 26.5399 67.012C18.9502 69.8839 17.2275 78.6203 18.2819 90.1377H81.5208C84.0684 80.1706 79.6625 70.1738 74.4428 67.0133L74.4437 67.0138ZM39.7543 23.2425C45.5438 29.567 54.7561 32.4687 62.8812 36.4563C62.9799 38.8349 62.2597 41.2381 63.5372 42.4392C62.1081 48.4443 56.3323 58.4474 49.3603 58.4474C36.6027 58.4486 34.314 33.0034 39.7544 23.2434L39.7543 23.2425ZM32.3224 67.0138C35.6913 63.9631 41.5448 61.9173 42.4129 56.3229C43.1651 57.0985 44.0234 57.7829 44.9889 58.3131C46.3145 59.0443 47.8706 59.4118 49.3799 59.36C50.9065 59.3144 52.4071 58.8914 53.7289 58.159C54.4145 57.773 55.0521 57.3155 55.6415 56.8087C57.4566 61.91 61.0177 65.2666 67.012 66.1877C59.7711 74.4016 40.5299 74.3113 32.3227 67.0139L32.3224 67.0138Z" fill="#B3B3B3"/>
</svg>
