<svg width="100" height="100" viewBox="0 0 100 100" fill="none" xmlns="http://www.w3.org/2000/svg">
<path d="M41.0471 11.8643C41.0471 14.1066 44.6142 14.5553 44.6142 15.6253C35.4674 11.183 29.129 29.9967 34.9775 41.3232C36.6686 36.9472 36.9661 31.1777 40.332 28.4742H57.4619C60.5092 31.139 59.403 37.9535 62.8164 40.2522C67.9459 25.317 64.9912 11.8643 41.0468 11.8643H41.0471Z" fill="#B3B3B3"/>
<path d="M48.7243 67.7809C45.442 67.7809 40.2398 65.1724 37.7415 63.2148C36.3228 68.8794 34.8279 81.0273 43.2735 93.0952H55.75C64.1481 81.0935 62.7159 69.0083 61.3045 63.3025C58.1222 65.2611 52.0501 67.7809 48.7243 67.7809Z" fill="#B3B3B3"/>
<path d="M80.9348 70.2949C78.9762 68.7875 74.8441 67.8176 71.5592 66.5477C69.7794 65.859 67.9784 65.1615 66.207 64.4566C65.8408 64.3103 65.4745 64.1641 65.1121 64.0166C66.1107 66.1939 67.7719 70.0949 67.9693 72.351L64.3223 74.5546L67.9921 76.6194C68.1071 80.5004 68.2171 89.2047 67.7208 93.0944H84.9471L84.9608 92.7031C85.3383 83.0187 82.8922 71.8023 80.9349 70.2949L80.9348 70.2949Z" fill="#B3B3B3"/>
<path d="M34.6985 74.5536L31.0514 72.35C31.2489 70.094 32.91 66.1931 33.9087 64.0156C33.5462 64.1619 33.18 64.3081 32.8138 64.4556C31.0426 65.1605 29.2415 65.858 27.4615 66.5467C24.1754 67.8166 21.0719 69.0178 18.2149 70.2376L18.0849 70.2939L18.0174 70.4176C15.1313 75.7286 13.6814 83.018 14.0589 92.7023L14.0727 93.0936H31.2989C30.8027 89.2039 30.914 80.4984 31.0277 76.6186L34.6985 74.5536Z" fill="#B3B3B3"/>
<path d="M55.5353 54.1902C54.8216 53.2828 53.9017 52.5953 52.8792 52.1079C52.8067 52.0379 52.6455 51.9541 52.3655 51.8504C50.2469 51.0667 49.3332 49.6931 49.3332 49.6931C49.3332 49.6931 49.202 51.4579 49.9194 52.4541C51.7193 52.6203 53.0854 53.4178 53.0854 54.3789C53.0854 55.4601 51.3556 56.3375 49.222 56.3375C47.0884 56.3375 45.3586 55.4614 45.3586 54.3789C45.3586 53.4165 46.7285 52.6191 48.5334 52.4541C49.2096 51.6692 49.2096 49.7205 49.2096 49.7205C49.2096 49.7205 47.9535 51.0404 45.8361 51.8254C45.7236 51.8666 45.6349 51.9054 45.5599 51.9416C44.3887 52.4303 43.3376 53.1778 42.5389 54.1927C38.2278 52.7266 38.2368 46.9433 34.957 44.4459C36.0945 54.8602 39.8728 61.5384 49.1534 63.7395C57.8366 61.6409 63.8586 53.0027 62.5249 44.4434C60.5238 47.2081 59.7338 52.4028 55.5353 54.1902L55.5353 54.1902Z" fill="#B3B3B3"/>
</svg>
