<svg width="224" height="54" viewBox="0 0 224 54" fill="none" xmlns="http://www.w3.org/2000/svg">
<path d="M26.9935 0C12.0971 0 0 12.0971 0 26.9935C0 32.892 1.94953 38.6406 5.49867 43.3895L27.9432 13.8966H23.1444C20.8949 13.8466 18.6455 14.0466 16.446 14.3965C15.4463 14.5965 14.5465 14.9464 13.6967 15.5462C12.547 16.446 11.6472 17.5458 10.9473 18.8454C10.8474 18.9954 10.7474 19.2453 10.5974 19.5453L9.29775 19.2453L11.4972 10.7474H39.5904L17.2958 40.5902C18.3456 40.4902 19.4453 40.4402 20.495 40.4402C21.3948 40.4402 22.7445 40.4902 24.594 40.5902L28.5931 40.8401C30.0427 40.9401 31.1924 40.9401 32.1422 40.9401C33.7418 41.0401 35.2914 40.8401 36.8411 40.3902C37.8408 40.0903 38.8406 39.5904 39.7404 38.9906C41.44 37.7908 42.7896 36.1912 43.7394 34.3917C43.8394 34.2417 43.9893 33.9418 44.1393 33.5919L45.339 33.8918C45.0891 35.0415 44.6892 36.1912 44.1893 37.241C42.9896 39.9403 41.6399 41.6899 39.7904 43.0896C37.8908 44.4892 35.5914 45.239 33.2419 45.239H32.842C30.9925 45.239 29.5428 45.0891 25.0939 44.4392C20.545 43.7894 18.2456 43.5395 15.9961 43.5395C14.4965 43.5395 13.0468 43.6394 11.5972 43.8894C10.0476 44.0893 8.54792 44.5392 7.14826 45.239C17.2458 56.2364 34.3417 56.9862 45.289 46.8886C56.2864 36.7911 57.0362 19.6952 46.9386 8.74788C41.7899 3.19922 34.5416 0 26.9935 0V0Z" fill="white"/>
<path d="M166.013 18.7459C166.013 16.9963 166.063 16.4964 166.263 15.7966C166.363 15.5466 166.513 15.2467 166.662 14.9968C166.912 14.5469 167.262 14.197 167.662 13.897H159.214C159.614 14.147 159.914 14.5469 160.214 14.9468C160.364 15.1967 160.514 15.4966 160.614 15.7966C160.814 16.4464 160.864 17.0463 160.864 18.5959V35.9417C160.864 36.7915 160.764 37.6413 160.414 38.4911C160.314 38.741 160.164 39.0409 159.964 39.2909C159.714 39.6408 159.464 39.9407 159.164 40.2407H167.512C167.212 39.9907 166.912 39.6408 166.712 39.2909C166.563 39.0409 166.413 38.791 166.263 38.4911C166.013 37.7413 165.913 36.9415 165.913 36.1916V20.2955L166.013 18.7459V18.7459Z" fill="white"/>
<path d="M222.25 18.7456C222.2 17.7958 222.35 16.846 222.5 15.9462C222.6 15.5963 222.75 15.2964 222.95 14.9465C223.2 14.4966 223.599 14.1467 223.999 13.8467H215.401C215.801 14.0967 216.101 14.4966 216.401 14.8965C216.601 15.1464 216.701 15.4963 216.851 15.7963C217.101 16.6961 217.151 17.6458 217.101 18.5956V24.994H205.304V20.1952C205.304 18.7456 205.304 17.7958 205.404 17.046C205.454 16.6461 205.504 16.2462 205.604 15.8962C205.854 15.2464 206.254 14.5966 206.704 14.0967C206.754 13.9967 206.854 13.9467 206.954 13.8467H198.456C198.755 14.1467 199.105 14.4966 199.305 14.8465C199.505 15.0964 199.655 15.4464 199.755 15.7463C200.005 16.3961 200.005 16.746 200.005 18.5456L200.055 20.2452V34.6417C200.105 35.5915 200.055 36.4913 199.955 37.441C199.905 37.7909 199.805 38.1409 199.705 38.4908C199.455 39.0406 199.155 39.5405 198.706 39.9904C198.606 40.0404 198.556 40.1404 198.456 40.2403H206.804C206.554 39.9904 206.304 39.6905 206.104 39.3906C205.954 39.1406 205.804 38.8407 205.654 38.5907C205.404 37.8409 205.254 37.0411 205.254 36.2913V28.3432H217.051V34.7417C217.101 35.6415 217.051 36.5412 216.951 37.391C216.901 37.7909 216.851 38.1908 216.701 38.5408C216.501 39.0406 216.151 39.5405 215.751 39.8904C215.651 39.9904 215.551 40.0904 215.401 40.1904H223.799C223.549 39.9404 223.3 39.6905 223.1 39.3906C222.9 39.1406 222.75 38.8407 222.65 38.5408C222.4 37.8909 222.35 37.441 222.3 36.1413V20.2952L222.25 18.7456V18.7456Z" fill="white"/>
<path d="M155.01 38.3908C154.061 37.541 153.261 36.6912 152.061 35.3415C151.261 34.5417 150.661 33.7919 150.162 33.1921L146.063 28.3932C146.462 28.2932 146.862 28.1433 147.212 27.9933C148.362 27.5434 149.462 26.9436 150.461 26.0938C152.011 24.8941 152.861 22.9945 152.861 21.045C152.861 19.4454 152.211 17.8958 151.111 16.746C149.962 15.5963 148.462 14.7465 146.862 14.3466C145.363 14.0467 143.913 13.8967 142.363 13.8967C141.564 13.8967 140.764 13.8467 139.964 13.8467H133.166C133.516 14.0967 133.816 14.4466 134.065 14.7965C134.265 15.0964 134.415 15.4464 134.515 15.7463C134.715 16.6461 134.815 17.6458 134.765 18.5456V35.8414C134.815 36.6912 134.715 37.541 134.465 38.3908C134.365 38.6907 134.215 38.9906 134.015 39.1906C133.766 39.5405 133.466 39.8404 133.116 40.0904H141.464C141.214 39.8404 140.964 39.5405 140.714 39.2406C140.514 38.9907 140.414 38.7407 140.264 38.4408C140.014 37.641 139.864 36.8412 139.964 36.0414V28.7431L144.863 34.5917C145.113 34.8417 145.463 35.2915 145.963 35.8914C146.562 36.5412 146.962 37.0411 147.262 37.2911C148.062 38.1409 148.962 38.8407 149.962 39.4405C150.761 39.8904 151.661 40.0904 152.561 40.0904C153.011 40.0904 153.461 40.1404 153.911 40.1404H157.21C156.76 39.7905 156.56 39.6405 156.21 39.3406C155.86 39.0406 155.41 38.7907 155.01 38.3908V38.3908ZM144.963 25.4939C143.963 26.0938 142.813 26.4437 141.664 26.5437C141.214 26.6436 140.764 26.6436 140.314 26.6436H139.864V16.896H140.564C141.714 16.896 142.963 16.996 144.063 17.3459C144.713 17.5458 145.313 17.8458 145.863 18.2957C146.812 19.0955 147.312 20.2952 147.262 21.4949C147.312 22.5946 146.962 23.6444 146.263 24.4442C145.863 24.8941 145.463 25.244 144.963 25.4939V25.4939Z" fill="white"/>
<path d="M191.255 36.4413C189.805 37.0912 188.255 37.4411 186.656 37.4411C184.106 37.5411 181.607 36.4413 179.907 34.6418C178.208 32.7922 177.308 30.2428 177.308 27.3935C177.308 24.5442 178.158 22.0948 179.708 20.2952C180.357 19.4954 181.207 18.8456 182.107 18.3457C183.657 17.4959 185.406 17.046 187.206 17.096C188.805 17.096 190.455 17.3959 191.955 18.0458C192.754 18.2957 193.454 18.6956 194.104 19.1955V14.2467C193.604 14.0468 193.054 13.9468 192.504 13.7968C190.955 13.4969 189.405 13.3469 187.856 13.3469C185.256 13.2969 182.757 13.7968 180.357 14.7466C179.058 15.2965 177.858 15.9963 176.708 16.8961C173.459 19.4954 171.709 23.2445 171.709 27.6435C171.709 32.0424 173.409 35.5415 176.508 37.941C179.058 39.9905 182.357 40.9902 186.306 40.9902C188.805 40.9902 191.305 40.5903 193.704 39.8405C193.804 39.7905 193.954 39.7405 194.154 39.6905V34.8917C193.504 35.3416 193.304 35.4416 192.954 35.6915C192.354 35.9414 191.805 36.1914 191.255 36.4413V36.4413Z" fill="white"/>
<path d="M121.315 14.9468C121.465 15.1967 121.615 15.5466 121.715 15.8466C121.915 16.4964 121.965 17.1462 121.965 18.5959V28.5935C122.015 30.0931 121.915 31.5428 121.715 33.0424C121.615 33.6922 121.415 34.3921 121.065 34.9419C120.315 36.0917 119.166 36.8915 117.816 37.1914C117.166 37.3414 116.566 37.4413 115.916 37.4413C113.667 37.4413 111.717 36.5915 110.818 35.1919C110.068 34.0921 109.868 33.0924 109.818 30.393V20.2955C109.818 18.7459 109.818 18.046 109.918 17.2462C109.918 16.8463 110.018 16.4464 110.118 16.0465C110.368 15.3467 110.718 14.6968 111.168 14.147C111.268 14.097 111.268 14.047 111.418 13.897H102.87C103.27 14.147 103.569 14.5469 103.819 14.9468C103.969 15.1967 104.119 15.5466 104.219 15.8466C104.319 16.2465 104.369 16.6464 104.419 17.0463V27.8437C104.419 30.643 104.419 31.3428 104.519 32.4425C104.619 34.1921 105.269 35.9417 106.369 37.2914C108.368 39.7908 111.568 41.1404 115.617 41.1404C117.416 41.1904 119.216 40.8905 120.915 40.3406C122.415 39.7908 123.715 38.891 124.814 37.7413C126.064 36.3416 126.814 34.542 126.914 32.6425C127.064 31.0929 127.114 29.4933 127.114 27.9436V18.4459C127.064 17.6461 127.164 16.8463 127.364 16.0465C127.614 15.1967 128.114 14.3969 128.863 13.897H120.465C120.715 14.197 121.065 14.5469 121.315 14.9468V14.9468Z" fill="white"/>
<path d="M92.4812 36.4916C91.1315 36.7415 89.7319 36.8415 88.3322 36.8915H82.1837L98.1299 13.897H77.4849L74.9355 19.4957C75.5853 19.1458 76.1852 18.8458 76.835 18.5959C78.0347 18.146 79.2844 17.7961 80.5341 17.5462C81.7338 17.3462 82.9835 17.2462 84.2332 17.2462C84.983 17.1962 85.6329 17.1962 86.2827 17.1962H89.382L73.2859 40.1907H96.0304L98.6298 34.1921C97.9799 34.592 97.38 34.8919 96.7302 35.1919C95.3805 35.8417 93.9809 36.2916 92.4812 36.4916V36.4916Z" fill="white"/>
</svg>
