<?xml version="1.0" encoding="utf-8"?>
<!-- Generator: Adobe Illustrator 26.3.1, SVG Export Plug-In . SVG Version: 6.00 Build 0)  -->
<svg version="1.1" id="Capa_1" xmlns="http://www.w3.org/2000/svg" xmlns:xlink="http://www.w3.org/1999/xlink" x="0px" y="0px"
	 viewBox="0 0 360 360" style="enable-background:new 0 0 360 360;" xml:space="preserve">
<style type="text/css">
	
		.st0{clip-path:url(#SVGID_00000160911665879230352700000004953608069689707938_);fill:url(#SVGID_00000022526464662996373920000016367677719596089785_);}
	
		.st1{clip-path:url(#SVGID_00000010288492334496085630000010224631001185991578_);fill:url(#SVGID_00000016042979520976495310000001803950341608059045_);}
	
		.st2{clip-path:url(#SVGID_00000074406900646568852150000001738067275702984328_);fill:url(#SVGID_00000140008148254486880380000003776562742691507877_);}
</style>
<g>
	<defs>
		<path id="SVGID_1_" d="M109.15,112.17l0.04,71.19c0,2.09,1.7,3.78,3.78,3.78h0c2.08,0,3.78-1.7,3.78-3.79l-0.04-71.19
			c0-34.76,27.36-63.04,60.99-63.04s60.99,28.28,60.99,63.04v71.17c0,2.09,1.7,3.78,3.78,3.78c2.09,0,3.78-1.7,3.78-3.78v-71.17
			c0-38.93-30.75-70.61-68.56-70.61C139.91,41.57,109.15,73.24,109.15,112.17"/>
	</defs>
	<clipPath id="SVGID_00000149374861708971083080000000229116423156050360_">
		<use xlink:href="#SVGID_1_"  style="overflow:visible;"/>
	</clipPath>
	
		<linearGradient id="SVGID_00000130645728886874988870000002257385294595737985_" gradientUnits="userSpaceOnUse" x1="4807.6797" y1="3034.9927" x2="4808.6797" y2="3034.9927" gradientTransform="matrix(137.1156 0 0 -137.1156 -659098.9375 416259.3438)">
		<stop  offset="0" style="stop-color:#0186AB"/>
		<stop  offset="1" style="stop-color:#4EBECE"/>
	</linearGradient>
	
		<rect x="109.15" y="41.57" style="clip-path:url(#SVGID_00000149374861708971083080000000229116423156050360_);fill:url(#SVGID_00000130645728886874988870000002257385294595737985_);" width="137.11" height="145.58"/>
</g>
<g>
	<defs>
		<path id="SVGID_00000037655874353987162830000015301673438473172927_" d="M232.02,285.85c0-6.14,5-11.14,11.15-11.14
			c6.14,0,11.14,5,11.14,11.14c0,6.14-5,11.14-11.14,11.14C237.02,296.99,232.02,291.99,232.02,285.85 M201.08,182.32l8.3,17.57
			l-30.18,73.19l-30.18-73.19l7.49-15.84c6.57,4.92,13.85,7.5,21.2,7.5C185.92,191.55,193.94,188.37,201.08,182.32 M222.67,111.22
			L222.67,111.22h-0.05C222.64,111.22,222.66,111.22,222.67,111.22 M146.89,81.4c-1.9,0.86-2.74,3.11-1.88,5.01
			c9.41,20.75,33.39,34.69,59.67,34.69c4.78,0,9.6-0.47,14.36-1.41c-1.48,35.71-19.67,64.29-41.33,64.29
			c-22.85,0-41.44-30.96-41.44-69.03c0-2.09-1.7-3.78-3.78-3.78c-2.09,0-3.78,1.7-3.78,3.78c0,25.91,8.16,49.63,21.91,63.87
			l-8.3,17.56l-62.04,10.44c-14.19,2.27-24.94,15.77-23.96,30.04l2.82,64.59c0.09,2.03,1.75,3.62,3.78,3.62l0.17,0
			c1.01-0.04,1.94-0.48,2.62-1.22s1.03-1.71,0.99-2.72l-2.83-64.68c-0.73-10.54,7.18-20.48,17.64-22.15l30.36-5.11v31.03
			c-14.82,1.87-26.14,14.5-26.14,29.65l0,27.62c0,4.18,3.4,7.59,7.59,7.59h3.93c2.09,0,3.78-1.7,3.78-3.78
			c0-2.09-1.7-3.78-3.78-3.78l-3.95-0.02l0-27.62c0-12.33,10.03-22.36,22.36-22.36s22.36,10.03,22.36,22.36l-0.02,27.64h-3.93
			c-2.09,0-3.78,1.7-3.78,3.78c0,2.09,1.7,3.78,3.78,3.78h3.93c4.18,0,7.59-3.4,7.59-7.59v-27.62c0-15.15-11.32-27.78-26.14-29.65
			v-32.3l23.11-3.89l33.16,80.42c0.17,0.41,0.41,0.79,0.74,1.13l0.25,0.23c0.2,0.18,0.42,0.34,0.64,0.46l0.76,0.36l0.11,0.01
			c0.67,0.19,1.34,0.19,2.02,0l0.77-0.29l0.1-0.08c0.22-0.13,0.43-0.27,0.6-0.43l0.28-0.26c0.32-0.35,0.56-0.72,0.73-1.12
			l33.17-80.43l23.52,3.96v59.56c-8.52,1.77-14.93,9.45-14.93,18.31c0,10.32,8.39,18.71,18.71,18.71c10.32,0,18.71-8.39,18.71-18.71
			c0-8.87-6.41-16.54-14.92-18.31v-58.29l29.98,5.04c10.43,1.67,18.33,11.62,17.6,22.24l-2.82,64.58c-0.05,1.01,0.31,1.98,0.99,2.72
			c0.68,0.75,1.61,1.18,2.62,1.22l0.17,0c2.03,0,3.69-1.59,3.78-3.62l2.82-64.49c0.98-14.34-9.76-27.85-23.94-30.13l-62.06-10.44
			l-9.08-19.22c-0.08-0.17-0.17-0.32-0.26-0.47c12.55-14.42,19.97-37.2,19.97-61.74l-0.02-0.44l-0.03-0.1
			c-0.01-0.12-0.03-0.27-0.07-0.43l-0.11-0.37l-0.09-0.15c-0.09-0.21-0.19-0.37-0.26-0.48c-0.12-0.19-0.24-0.37-0.36-0.51
			c-0.23-0.26-0.45-0.43-0.62-0.56c-0.17-0.13-0.34-0.24-0.52-0.33c-0.31-0.16-0.59-0.23-0.7-0.26c-0.16-0.04-0.31-0.08-0.47-0.11
			l-0.53-0.06c-0.18,0-0.35,0.02-0.48,0.04l-0.5,0.08c-5.56,1.48-11.38,2.24-17.28,2.24c-23.36,0-44.57-12.16-52.77-30.25
			c-0.42-0.92-1.17-1.62-2.12-1.98c-0.43-0.16-0.88-0.24-1.33-0.24C147.92,81.06,147.39,81.18,146.89,81.4"/>
	</defs>
	<clipPath id="SVGID_00000080179234421804196430000013717368673979304832_">
		<use xlink:href="#SVGID_00000037655874353987162830000015301673438473172927_"  style="overflow:visible;"/>
	</clipPath>
	
		<linearGradient id="SVGID_00000033348515461435889180000001599006971022893487_" gradientUnits="userSpaceOnUse" x1="4823.3052" y1="3026.4246" x2="4824.3052" y2="3026.4246" gradientTransform="matrix(245.9016 0 0 -245.9016 -1186002.25 744395.75)">
		<stop  offset="0" style="stop-color:#0186AB"/>
		<stop  offset="1" style="stop-color:#4EBECE"/>
	</linearGradient>
	
		<rect x="55.33" y="81.06" style="clip-path:url(#SVGID_00000080179234421804196430000013717368673979304832_);fill:url(#SVGID_00000033348515461435889180000001599006971022893487_);" width="247.74" height="224"/>
</g>
<g>
	<defs>
		<path id="SVGID_00000109013224661505187880000001478294566237107381_" d="M16.16,180.39c0-90.19,73.12-163.31,163.31-163.31
			S342.79,90.2,342.79,180.39c0,90.2-73.12,163.31-163.31,163.31S16.16,270.59,16.16,180.39 M110.84,17.94
			c-21,8.88-39.85,21.59-56.04,37.78c-16.19,16.19-28.9,35.04-37.78,56.04c-9.2,21.74-13.86,44.84-13.86,68.63
			s4.66,46.89,13.86,68.63c8.88,21,21.59,39.85,37.78,56.04c16.19,16.19,35.04,28.9,56.04,37.78c21.74,9.2,44.84,13.86,68.63,13.86
			s46.89-4.66,68.63-13.86c21-8.88,39.85-21.59,56.04-37.78c16.19-16.19,28.9-35.04,37.78-56.04c9.2-21.74,13.86-44.84,13.86-68.63
			s-4.66-46.89-13.86-68.63c-8.88-21-21.59-39.85-37.78-56.04c-16.19-16.19-35.04-28.9-56.04-37.78
			c-21.74-9.2-44.84-13.86-68.63-13.86S132.59,8.75,110.84,17.94"/>
	</defs>
	<clipPath id="SVGID_00000157304571857393898510000000973203335241621381_">
		<use xlink:href="#SVGID_00000109013224661505187880000001478294566237107381_"  style="overflow:visible;"/>
	</clipPath>
	
		<linearGradient id="SVGID_00000118357720542284883660000004679088765424790189_" gradientUnits="userSpaceOnUse" x1="4829.2656" y1="3023.156" x2="4830.2656" y2="3023.156" gradientTransform="matrix(352.6216 0 0 -352.6216 -1702900.125 1066210.5)">
		<stop  offset="0" style="stop-color:#0186AB"/>
		<stop  offset="1" style="stop-color:#4EBECE"/>
	</linearGradient>
	
		<rect x="3.16" y="4.08" style="clip-path:url(#SVGID_00000157304571857393898510000000973203335241621381_);fill:url(#SVGID_00000118357720542284883660000004679088765424790189_);" width="352.62" height="352.62"/>
</g>
</svg>
