<?xml version="1.0" encoding="utf-8"?>
<!-- Generator: Adobe Illustrator 26.3.1, SVG Export Plug-In . SVG Version: 6.00 Build 0)  -->
<svg version="1.1" id="Capa_1" xmlns="http://www.w3.org/2000/svg" xmlns:xlink="http://www.w3.org/1999/xlink" x="0px" y="0px"
	 viewBox="0 0 360 360" style="enable-background:new 0 0 360 360;" xml:space="preserve">
<style type="text/css">
	.st0{clip-path:url(#SVGID_00000003826241867089160320000017566507067529564087_);fill:#FFFFFF;}
	
		.st1{clip-path:url(#SVGID_00000167354718715589643660000016213926996717057711_);fill:url(#SVGID_00000162327084168747499300000012059555577883559095_);}
	
		.st2{clip-path:url(#SVGID_00000161600865827017348290000011861481222020010373_);fill:url(#SVGID_00000098914345005481387640000003841318283856310966_);}
	.st3{fill:none;}
</style>
<g>
	<g>
		<defs>
			<rect id="SVGID_1_" width="360" height="360"/>
		</defs>
		<clipPath id="SVGID_00000122686715743497311630000017969831183022131897_">
			<use xlink:href="#SVGID_1_"  style="overflow:visible;"/>
		</clipPath>
		<path style="clip-path:url(#SVGID_00000122686715743497311630000017969831183022131897_);fill:#FFFFFF;" d="M349.2,180.9
			c0,92.76-75.2,167.96-167.96,167.96c-92.76,0-167.96-75.2-167.96-167.96S88.48,12.95,181.24,12.95
			C274,12.95,349.2,88.14,349.2,180.9"/>
	</g>
	<g>
		<defs>
			<path id="SVGID_00000083771954085494769380000012999627231629964461_" d="M233.57,291.42c0-6.18,5.03-11.21,11.21-11.21
				c6.18,0,11.21,5.03,11.21,11.21c0,6.18-5.03,11.21-11.21,11.21C238.6,302.64,233.57,297.61,233.57,291.42 M202.47,187.35
				l8.32,17.59l-30.37,73.63l-30.36-73.63l7.73-16.35c6.67,4.85,14.06,7.4,21.54,7.4C187.43,195.98,195.38,193.01,202.47,187.35
				 M122.58,133.27l-0.02-0.04c-0.06-0.15-0.12-0.3-0.17-0.45l-0.06-0.16c-0.38-1.11-0.62-2.24-0.72-3.37
				c-0.02-0.2-0.06-0.38-0.11-0.52c-0.69-5.54-1.03-11.18-1.03-16.76c0-0.18-0.01-0.37-0.04-0.55
				c0.28-33.77,26.66-61.21,58.89-61.21c32.48,0,58.9,27.71,58.9,61.76c0,1.3-0.02,2.63-0.06,3.98c-3.2-3.01-7.41-4.87-11.92-5.13
				c-0.51-0.02-1.01,0.06-1.52,0.24c-5.37,1.4-10.96,2.11-16.6,2.11c-22.89,0-43.66-11.91-51.7-29.63
				c-0.42-0.93-1.18-1.64-2.13-1.99c-0.95-0.35-1.99-0.32-2.9,0.1c-1.91,0.87-2.76,3.12-1.9,5.04c9.25,20.39,32.81,34.1,58.63,34.1
				c6.23,0,12.38-0.78,18.32-2.3c5.69,0.64,10.1,5.5,10.1,11.23c0,1.83-0.43,3.59-1.21,5.1c-2.26,3.76-6.16,6.09-10.46,6.25
				c-0.43-0.02-0.92-0.08-1.51-0.17c-0.36-0.06-0.72-0.06-1.09-0.01c-6.07-1.06-10.6-6.49-10.6-12.78c0-2.1-1.71-3.8-3.81-3.8
				s-3.81,1.71-3.81,3.8c0,8.92,5.74,16.78,13.95,19.55c-7.16,24.83-22.17,40.73-38.66,40.73c-16.48,0-31.5-15.9-38.65-40.72
				c1.78-0.59,3.47-1.42,5.03-2.49c1.72-1.19,2.17-3.56,0.98-5.29c-1.18-1.73-3.55-2.17-5.29-0.99c-1.49,1.02-3.15,1.7-4.94,2.01
				c-0.39-0.06-0.78-0.06-1.15,0c-0.57,0.1-1.05,0.15-1.49,0.17C128.94,140.87,124.54,137.82,122.58,133.27 M112.82,111.97
				c0,0.19,0.01,0.38,0.04,0.57c0.03,6.16,0.44,12.3,1.23,18.27c0.18,1.42,0.54,2.87,1.05,4.27c0.08,0.24,0.17,0.47,0.25,0.7
				l0.17,0.43c3.03,7.45,9.86,12.31,17.49,12.48c3.99,14.39,10.44,26.33,18.76,34.73l-8.51,18l-62.42,10.5
				c-14.28,2.29-25.09,15.87-24.11,30.22l2.84,64.98c0.09,2.04,1.76,3.64,3.8,3.64l0.17,0c1.01-0.04,1.95-0.48,2.64-1.23
				c0.69-0.75,1.04-1.72,1-2.74l-2.85-65.08c-0.73-10.6,7.22-20.6,17.75-22.29l30.55-5.14v31.22c-14.91,1.88-26.3,14.59-26.3,29.83
				l0,27.79c0,4.21,3.43,7.63,7.64,7.63h3.96c2.1,0,3.81-1.71,3.81-3.8c0-2.1-1.71-3.81-3.81-3.81l-3.98-0.02l0-27.79
				c0-12.4,10.09-22.5,22.5-22.5c12.4,0,22.5,10.09,22.5,22.5l-0.02,27.81h-3.96c-2.1,0-3.81,1.71-3.81,3.81
				c0,2.1,1.71,3.8,3.81,3.8h3.96c4.21,0,7.63-3.42,7.63-7.63v-27.79c0-15.24-11.39-27.95-26.3-29.83V213l23.25-3.91l33.37,80.92
				c0.17,0.41,0.42,0.79,0.74,1.14l0.25,0.23c0.2,0.18,0.42,0.34,0.64,0.47l0.77,0.36l0.11,0.01c0.68,0.19,1.35,0.19,2.03,0
				l0.77-0.29l0.1-0.08c0.22-0.13,0.43-0.28,0.6-0.43l0.28-0.27c0.32-0.35,0.56-0.72,0.73-1.13l33.37-80.92l23.66,3.98V273
				c-8.57,1.79-15.02,9.51-15.02,18.43c0,10.38,8.44,18.82,18.82,18.82c10.38,0,18.82-8.44,18.82-18.82
				c0-8.92-6.45-16.64-15.02-18.43v-58.65l30.17,5.07c10.49,1.68,18.44,11.69,17.71,22.38l-2.84,64.98
				c-0.05,1.02,0.31,1.99,0.99,2.74c0.69,0.75,1.63,1.19,2.64,1.23l0.17,0c2.04,0,3.71-1.6,3.8-3.64l2.83-64.89
				c0.99-14.43-9.81-28.02-24.08-30.31l-62.44-10.51l-9.14-19.34c-0.03-0.06-0.06-0.13-0.1-0.19c7.62-8.3,13.56-19.69,17.3-33.2
				c6.9-0.16,13.15-4.04,16.32-10.11c1.42-2.41,2.33-5.02,2.68-7.75c0.81-6.14,1.23-12.48,1.23-18.85
				c0-38.25-29.83-69.37-66.51-69.37S112.82,73.72,112.82,111.97"/>
		</defs>
		<clipPath id="SVGID_00000067203033537987339470000001420617191489252481_">
			<use xlink:href="#SVGID_00000083771954085494769380000012999627231629964461_"  style="overflow:visible;"/>
		</clipPath>
		
			<linearGradient id="SVGID_00000155833297335128360200000001691325580157231747_" gradientUnits="userSpaceOnUse" x1="4444.9609" y1="3026.3589" x2="4445.9609" y2="3026.3589" gradientTransform="matrix(247.4069 0 0 -247.4069 -1099657.25 748918.6875)">
			<stop  offset="0" style="stop-color:#0186AB"/>
			<stop  offset="1" style="stop-color:#4EBECE"/>
		</linearGradient>
		
			<rect x="55.79" y="42.6" style="clip-path:url(#SVGID_00000067203033537987339470000001420617191489252481_);fill:url(#SVGID_00000155833297335128360200000001691325580157231747_);" width="249.26" height="268.16"/>
	</g>
	<g>
		<defs>
			<path id="SVGID_00000034062340657225670370000003871265248721520037_" d="M17.13,180.39c0-90.19,73.12-163.31,163.31-163.31
				S343.76,90.2,343.76,180.39c0,90.2-73.12,163.31-163.31,163.31S17.13,270.59,17.13,180.39 M111.81,17.94
				c-21,8.88-39.85,21.59-56.04,37.78C39.59,71.91,26.88,90.77,18,111.76C8.8,133.51,4.13,156.6,4.13,180.39S8.8,227.28,18,249.02
				c8.88,21,21.59,39.85,37.78,56.04c16.19,16.19,35.04,28.9,56.04,37.78c21.75,9.2,44.84,13.86,68.63,13.86s46.89-4.66,68.63-13.86
				c21-8.88,39.85-21.59,56.04-37.78c16.19-16.19,28.9-35.04,37.78-56.04c9.2-21.74,13.86-44.84,13.86-68.63
				s-4.66-46.89-13.86-68.63c-8.88-21-21.59-39.85-37.78-56.04c-16.19-16.19-35.04-28.9-56.04-37.78
				c-21.74-9.2-44.84-13.86-68.63-13.86S133.56,8.75,111.81,17.94"/>
		</defs>
		<clipPath id="SVGID_00000072986450691877142330000000183340227164051122_">
			<use xlink:href="#SVGID_00000034062340657225670370000003871265248721520037_"  style="overflow:visible;"/>
		</clipPath>
		
			<linearGradient id="SVGID_00000054239242349869816980000014784313774070306437_" gradientUnits="userSpaceOnUse" x1="4450.3433" y1="3023.156" x2="4451.3433" y2="3023.156" gradientTransform="matrix(352.6213 0 0 -352.6213 -1569281.875 1066209.75)">
			<stop  offset="0" style="stop-color:#0186AB"/>
			<stop  offset="1" style="stop-color:#4EBECE"/>
		</linearGradient>
		
			<rect x="4.13" y="4.08" style="clip-path:url(#SVGID_00000072986450691877142330000000183340227164051122_);fill:url(#SVGID_00000054239242349869816980000014784313774070306437_);" width="352.62" height="352.62"/>
	</g>
	<rect class="st3" width="360" height="360"/>
</g>
</svg>
