<?xml version="1.0" encoding="utf-8"?>
<!-- Generator: Adobe Illustrator 26.3.1, SVG Export Plug-In . SVG Version: 6.00 Build 0)  -->
<svg version="1.1" id="Capa_1" xmlns="http://www.w3.org/2000/svg" xmlns:xlink="http://www.w3.org/1999/xlink" x="0px" y="0px"
	 viewBox="0 0 370.63 370.63" style="enable-background:new 0 0 370.63 370.63;" xml:space="preserve">
<style type="text/css">
	.st0{fill:#FFFFFF;}
	.st1{fill:url(#SVGID_1_);}
	.st2{fill:url(#SVGID_00000046308602061823454590000014395877699270056611_);}
</style>
<circle class="st0" cx="185.27" cy="185.9" r="167.96"/>
<g>
	<linearGradient id="SVGID_1_" gradientUnits="userSpaceOnUse" x1="8.1644" y1="185.3937" x2="360.7858" y2="185.3937">
		<stop  offset="0" style="stop-color:#0186AB"/>
		<stop  offset="1" style="stop-color:#4EBECE"/>
	</linearGradient>
	<path class="st1" d="M184.48,22.08c90.19,0,163.31,73.12,163.31,163.31S274.67,348.7,184.48,348.7S21.16,275.59,21.16,185.39
		S94.28,22.08,184.48,22.08 M184.48,9.08c-23.8,0-46.89,4.66-68.63,13.86c-21,8.88-39.85,21.59-56.04,37.78
		c-16.19,16.19-28.9,35.04-37.78,56.04c-9.2,21.74-13.86,44.84-13.86,68.63s4.66,46.89,13.86,68.63c8.88,21,21.59,39.85,37.78,56.04
		c16.19,16.19,35.04,28.9,56.04,37.78c21.74,9.2,44.84,13.86,68.63,13.86s46.89-4.66,68.63-13.86c21-8.88,39.85-21.59,56.04-37.78
		c16.19-16.19,28.9-35.04,37.78-56.04c9.2-21.74,13.86-44.84,13.86-68.63s-4.66-46.89-13.86-68.63c-8.88-21-21.59-39.85-37.78-56.04
		c-16.19-16.19-35.04-28.9-56.04-37.78C231.36,13.75,208.27,9.08,184.48,9.08L184.48,9.08z"/>
</g>
<linearGradient id="SVGID_00000147933399468363973820000004909211589614912412_" gradientUnits="userSpaceOnUse" x1="61.2493" y1="181.3747" x2="307.1513" y2="181.3747">
	<stop  offset="0" style="stop-color:#0186AB"/>
	<stop  offset="1" style="stop-color:#4EBECE"/>
</linearGradient>
<path style="fill:url(#SVGID_00000147933399468363973820000004909211589614912412_);" d="M283.15,211.82l-62.06-10.44l-9.09-19.22
	c-0.08-0.17-0.17-0.32-0.26-0.47c12.3-14.12,19.65-36.29,19.94-60.25c0.09-0.33,0.15-0.67,0.15-1.03v-18.64
	c0-27.07-22.02-49.09-49.09-49.09h-0.25c-27.07,0-49.09,22.02-49.09,49.09v1.91c0,2.19,1.77,3.96,3.96,3.96s3.96-1.77,3.96-3.96
	v-1.91c0-22.7,18.47-41.16,41.16-41.16h0.25c22.7,0,41.16,18.47,41.16,41.16v15.25c-4.63,1-9.4,1.51-14.24,1.51
	c-23.36,0-44.57-12.16-52.77-30.25c-0.42-0.92-1.17-1.63-2.12-1.98c-0.95-0.36-1.98-0.32-2.89,0.1c-1.9,0.86-2.74,3.11-1.88,5.01
	c9.41,20.75,33.38,34.69,59.67,34.69c4.78,0,9.6-0.47,14.37-1.41c-1.48,35.71-19.67,64.29-41.33,64.29
	c-22.85,0-41.44-30.97-41.44-69.03c0-2.09-1.7-3.78-3.78-3.78s-3.78,1.7-3.78,3.78c0,25.92,8.16,49.63,21.91,63.87l-8.3,17.56
	l-62.04,10.44c-14.19,2.27-24.94,15.77-23.96,30.04l2.82,64.59c0.09,2.03,1.75,3.62,3.78,3.62l0.17,0c1.01-0.04,1.94-0.48,2.62-1.22
	s1.03-1.71,0.99-2.72l-2.83-64.68c-0.72-10.54,7.18-20.47,17.64-22.15l23.28-3.92l20.66-3.48l17.09-2.88l33.16,80.43
	c0.17,0.41,0.41,0.78,0.74,1.13l0.25,0.23c0.2,0.18,0.42,0.34,0.64,0.46l0.76,0.36l0.11,0.01c0.68,0.19,1.34,0.19,2.02,0l0.77-0.29
	l0.1-0.08c0.22-0.13,0.43-0.28,0.6-0.43l0.28-0.26c0.32-0.35,0.56-0.72,0.73-1.12l33.17-80.43l23.52,3.96v0l11.85,1.99l25.69,4.32
	c10.43,1.67,18.33,11.62,17.6,22.24l-2.82,64.58c-0.04,1.01,0.31,1.98,0.99,2.72s1.62,1.18,2.62,1.22l0.17,0
	c2.03,0,3.69-1.59,3.78-3.62l2.82-64.49C308.07,227.61,297.33,214.1,283.15,211.82z M184.2,278.08l-30.18-73.19l7.49-15.84
	c6.58,4.92,13.85,7.5,21.2,7.5c8.21,0,16.23-3.18,23.37-9.23l8.3,17.57L184.2,278.08z"/>
</svg>
