<svg xmlns="http://www.w3.org/2000/svg" viewBox="0 0 466.14 392"><defs><style>.cls-1{fill:#fefefe;}.cls-2{fill:#17212f;}.cls-3{fill:#921d2e;}</style></defs><g id="Capa_2" data-name="Capa 2"><g id="Capa_1-2" data-name="Capa 1"><path class="cls-1" d="M228.91,0H466.14V392H0V0H216.41a4.2,4.2,0,0,1-.66.21c-4.38.54-8.81.84-13.14,1.64a110.38,110.38,0,0,0-53.09,25.54C122.39,50.91,108,81,104.86,116.51A134.78,134.78,0,0,0,126,200.61c1.29,2,2.65,3.9,4,5.89l-1,.67c-3.46,2.18-6.93,4.33-10.37,6.55a11.62,11.62,0,0,0-5.66,9.83c-.15,6.14-.11,12.28,0,18.42a12.47,12.47,0,0,0,12.29,12.11q11.46,0,22.91,0a8.61,8.61,0,0,0,8.6-7.41,66.93,66.93,0,0,0,.18-9.29c0-1.55,1.16-1.7,2-2.23.3-.18,1,.14,1.46.41,24,15.81,50.27,21.9,78.75,17.81a109.88,109.88,0,0,0,45.79-17.83c.35-.24,1-.47,1.28-.3.75.49,1.91.59,1.87,2-.08,2.63-.06,5.26,0,7.89a8.86,8.86,0,0,0,9.16,9h22A12.46,12.46,0,0,0,332,241.48c.07-5.81.06-11.62,0-17.43a12,12,0,0,0-5.9-10.49c-3.35-2.14-6.73-4.24-10.09-6.36l-.89-.6c.21-.31.37-.56.54-.79A131.39,131.39,0,0,0,339.8,144a134,134,0,0,0-1.67-43.71C332.84,74.52,321.2,52,302.4,33.5,282.79,14.17,259.32,2.85,231.75.38,230.8.3,229.85.13,228.91,0ZM280,390.25h1.28c5.8,0,11.61,0,17.42,0a42.93,42.93,0,0,0,6.21-.45c5.81-.92,11.6-3.64,12.22-12.07.45-6.14-1.78-11.25-7.91-13.49-1-.36-2-.58-3.13-.9.34-.11.6-.21.87-.28a12.25,12.25,0,0,0,6.75-4.39,11.79,11.79,0,0,0-5.35-17.94A26.64,26.64,0,0,0,298.22,339c-5.74,0-11.47,0-17.21,0-.31,0-.63,0-1,.06Zm-231.94,0a5.63,5.63,0,0,0-.13-.65Q39,362.89,30.13,336.15c-.21-.64-.54-.72-1.11-.72-2.95,0-5.91.06-8.87,0a1.5,1.5,0,0,0-1.76,1.22q-7.68,22.83-15.47,45.62c-.9,2.63-1.78,5.27-2.69,8H9.15c.1-.31.21-.62.3-.92q1.92-6.21,3.82-12.43c.16-.53.29-.88,1-.88q9.75,0,19.5,0a.83.83,0,0,1,1,.75c.29,1.13.67,2.23,1,3.35q1.53,5.06,3.08,10.14H48.1ZM328.75,286.56c-7.14-2.15-9.17-2.51-13.43-2.43a16,16,0,0,0-15.6,11.52c-1.9,5.85-1.66,11.83-.56,17.77,1.33,7.18,5.35,12,12.79,13.3,8.41,1.47,16.57.23,24.55-2.57.71-.25.69-.7.69-1.27q0-24.6,0-49.22c0-.31,0-.62-.06-1.1l-8.37,1.15Zm92.28,0c-.35-.11-.63-.18-.89-.28a33.66,33.66,0,0,0-12.32-2.17c-7.92.13-13.78,4.53-16,12.15a35.63,35.63,0,0,0-.3,17.35c1.68,8.12,5.81,12.1,14,13.3,7.95,1.15,15.7-.1,23.25-2.78.79-.28.67-.82.67-1.39v-50.2L421,273.71ZM129.69,351.09l-.94-.3c-5.18-1.76-10.45-2.86-16-1.77a14.94,14.94,0,0,0-9.84,6.33,22,22,0,0,0-3.6,11.89,37.81,37.81,0,0,0,1.5,13.7,14.44,14.44,0,0,0,9.74,9.72c4.17,1.31,8.45,1.26,12.76,1A52.08,52.08,0,0,0,137,388.75a1.42,1.42,0,0,0,1.15-1.59q-.06-24.37,0-48.76v-1.35l-8.42,1.13ZM15.69,276c0,.32,0,.53,0,.75,0,10.05,0,20.1,0,30.14a37.38,37.38,0,0,0,.58,6.42c1.16,6.54,4.8,11,11.3,12.87a31.17,31.17,0,0,0,16.35.26A16.29,16.29,0,0,0,56.05,315.1,25.44,25.44,0,0,0,57.24,307V276H48.46v1.24c0,9.43,0,18.85,0,28.28a36.87,36.87,0,0,1-.45,5.55c-.81,5.11-3.57,8.23-8.14,9.14a19.78,19.78,0,0,1-4.68.29c-5.58-.28-9-3.21-10.15-8.66a36,36,0,0,1-.63-6.63c-.07-9.32,0-18.63,0-27.95V276Zm429.4,91.84c-.14-1.24-.26-3.62-.68-5.95-1.18-6.47-4.72-11-11.21-12.8a31.94,31.94,0,0,0-15.3-.37c-6.83,1.45-11.06,5.65-12.54,12.47a39.46,39.46,0,0,0,.57,19c1.56,5.7,5.44,9.08,11.19,10.31a36.22,36.22,0,0,0,14.26.17c6.21-1.17,10.34-4.76,12.22-10.87C444.69,376.24,445,372.62,445.09,367.83Zm-70.91-67.1H373c-4.38.09-8.77,0-13.13.33a20.73,20.73,0,0,0-10.7,3.76c-6.59,4.69-6.19,16.33,1.58,20.15a18,18,0,0,0,7.64,2.09,133.16,133.16,0,0,0,13.55-.29,84.6,84.6,0,0,0,9.75-1.87c.52-.11.88-.32.88-1,0-8.8.08-17.61-.08-26.41-.12-6.84-3-10.71-9.19-12.31-8.49-2.22-16.79-.83-24.95,1.85a.82.82,0,0,0-.46.61c0,1.81,0,3.62,0,5.54,1.24-.44,2.35-.86,3.48-1.23,5.18-1.72,10.44-2.69,15.92-1.68,4,.75,6.35,2.67,6.87,6A31.18,31.18,0,0,1,374.18,300.73Zm-166.76,6.63c-.31-3.12-.37-6.13-.94-9-1.16-5.89-4.29-10.41-10-12.78a22,22,0,0,0-9.68-1.38c-8.44.42-14.32,5.21-16.22,13.4a37.22,37.22,0,0,0,.59,18.63c1.71,6.16,6,9.59,12.17,10.67a37.17,37.17,0,0,0,13-.12,80.78,80.78,0,0,0,7.91-2.09c.37-.11.89-.57.91-.88.08-1.88,0-3.76,0-5.63-.2,0-.28,0-.34,0a29,29,0,0,1-15.43,3.27,11.81,11.81,0,0,1-11.08-14.05Zm4.79,63.87c-.3-3.11-.35-6.05-.91-8.89-1.25-6.32-4.66-11-11-13.23a23.56,23.56,0,0,0-9.41-1c-7.53.51-13.23,4.93-15.27,12.18a36.84,36.84,0,0,0,.13,19.27c1.61,6.34,5.76,10,12.21,11.16a35.9,35.9,0,0,0,12.32,0,90,90,0,0,0,8.76-2.24c.33-.09.8-.54.81-.83.08-1.88,0-3.77,0-5.72a2.74,2.74,0,0,0-.39.12,28.23,28.23,0,0,1-16,3.15c-6.91-.72-10.77-5.4-10.5-14Zm149.08,0c-.29-3-.33-6-.88-8.79-1.23-6.37-4.65-11.11-11-13.33a23.19,23.19,0,0,0-9.3-1c-7.67.51-13.35,4.92-15.38,12.3a36.38,36.38,0,0,0,.39,19.9c1.65,5.83,5.68,9.18,11.56,10.34a35,35,0,0,0,12.75.08,88.54,88.54,0,0,0,8.76-2.24c.33-.09.79-.54.8-.84.07-1.88,0-3.77,0-5.68-5.37,2.56-10.84,3.93-16.72,3.23a11.85,11.85,0,0,1-10.12-14ZM73.68,292.09c4.3-1.4,8.62-2.26,13.14-1.61a7.22,7.22,0,0,1,6.55,6,24.64,24.64,0,0,1,.49,5c0,7.89,0,15.78,0,23.67v1.17h8.43V299c0-1,0-2.05-.12-3.07A11,11,0,0,0,96,286.49a20.71,20.71,0,0,0-4.72-1.67,38.83,38.83,0,0,0-15.67.11c-3.45.65-6.86,1.56-10.23,2.34v39h8.3ZM62.12,390.21v-21q0-6.18,0-12.38c0-.57.08-.92.72-1.12a29.71,29.71,0,0,1,12-1.45,7.42,7.42,0,0,1,7,6.17,17.23,17.23,0,0,1,.46,3.79c0,8.25,0,16.51.07,24.77v1.17h8.28a1.07,1.07,0,0,0,.09-.24c0-9.75.08-19.51,0-29.26a11.15,11.15,0,0,0-6.23-10.33,21.23,21.23,0,0,0-8.52-2.21c-7.32-.55-14.38.82-21.34,2.94-.76.23-.89.61-.89,1.32q0,18.42,0,36.83c0,.31,0,.63.05,1Zm155.45-8.34c0,1.75.08,3.36,0,4.95a1.65,1.65,0,0,0,1.3,1.91,38.14,38.14,0,0,0,21.63,1.67,12.75,12.75,0,0,0,7.19-4.13c4.46-5.15,3.51-12.18-2.18-15.9a19.76,19.76,0,0,0-3.35-1.82c-3.54-1.45-7.15-2.74-10.67-4.21a17.28,17.28,0,0,1-4-2.26,3.69,3.69,0,0,1-.06-6,8.31,8.31,0,0,1,3.19-1.58c5.65-1.39,11.07-.35,16.35,1.81.59.25,1.17.52,1.84.82,0-1.7-.07-3.27,0-4.83a1.58,1.58,0,0,0-1.21-1.84,36.21,36.21,0,0,0-18.51-2.07,16.28,16.28,0,0,0-7.94,3.44c-4.47,3.65-5.57,11.68.58,15.81a19.58,19.58,0,0,0,3.31,1.91c3.37,1.39,6.81,2.59,10.16,4a23.27,23.27,0,0,1,4.92,2.76,4,4,0,0,1,.84,5.5,6.1,6.1,0,0,1-2.69,2.26,21,21,0,0,1-6,1.22A29.27,29.27,0,0,1,217.57,381.87ZM240.94,318c0,1.72.1,3.26,0,4.78a1.86,1.86,0,0,0,1.51,2.2,39.18,39.18,0,0,0,20.15,1.85,14.1,14.1,0,0,0,7.85-3.8,10.41,10.41,0,0,0-1.63-16.53,21.85,21.85,0,0,0-3.46-1.88c-3.2-1.31-6.47-2.45-9.65-3.78a22.74,22.74,0,0,1-4.79-2.57,3.69,3.69,0,0,1,.05-6.16,9.43,9.43,0,0,1,3.45-1.54,22.24,22.24,0,0,1,11.05.33c2.23.61,4.4,1.45,6.68,2.21,0-1.46-.1-3,0-4.49a1.76,1.76,0,0,0-1.38-2.06A37.51,37.51,0,0,0,255,284.2a18.26,18.26,0,0,0-10.09,3.47c-4.91,3.69-6,12.05.37,16.22a19.49,19.49,0,0,0,3,1.73c2.75,1.15,5.56,2.17,8.31,3.31,2,.82,4,1.68,5.85,2.68a4.62,4.62,0,0,1,2.45,3.08c.54,2.44-.89,4.75-3.71,5.81a19.81,19.81,0,0,1-9.51.78A29.21,29.21,0,0,1,240.94,318ZM126.61,285.1c.07.28.1.46.15.63q7,19.92,14.08,39.86a1,1,0,0,0,1.2.79c3,0,6-.06,9,0,.95,0,1.3-.31,1.6-1.17q5.83-16.75,11.75-33.49c.77-2.19,1.53-4.38,2.33-6.67-2.52,0-4.89,0-7.26,0a1.36,1.36,0,0,0-1.6,1.13q-5.22,16.5-10.55,33c-.11.33-.26.65-.47,1.15l-11.39-35.2Zm269.47,52.58-8.31,1.17v51.36h8.31ZM156.53,390.2V372.09c0-5.12,0-10.23,0-15.35,0-.37.25-1,.51-1.08a32,32,0,0,1,11.65-1.56c.74.07,1.48.16,2.27.25v-6c-.53-.08-1-.18-1.53-.22a53.05,53.05,0,0,0-20.27,2.73,1.33,1.33,0,0,0-1.1,1.53q.06,18.36,0,36.72v1.05Zm212.73-51.38V390.2h8.23V337.7Zm-145.59-12.5V291.88c4.74-1.33,9.45-2.38,14.34-1.39.07-.13.13-.19.13-.25,0-1.61,0-3.22,0-4.82,0-.82-.25-1-1-1.11-7.23-.7-14.17.61-21,2.74-.77.24-.85.7-.85,1.39q0,18.4,0,36.82c0,.35,0,.7.06,1.06Zm-102.9,0V285.11h-8.24v41.22Zm169.09,0V285.11h-8.25v41.21ZM457.61,356a7.64,7.64,0,1,0,7.66,7.59A7.51,7.51,0,0,0,457.61,356ZM121,274.49l-8.61,1.35v5.82H121Zm169.06,0c-2.76.46-5.45.89-8.13,1.36a.83.83,0,0,0-.52.53c0,1.77,0,3.54,0,5.3H290ZM203.48,335c-2.36.36-4.4.73-6.45,1a3.7,3.7,0,0,0-3.25,2.26,30.52,30.52,0,0,1-1.92,3.18l-1.32,2.18c2,0,3.71,0,5.46,0a1.88,1.88,0,0,0,1.22-.62c1.64-2,3.22-4.06,4.82-6.09Z"/><path class="cls-2" d="M228.91,0c.94.13,1.89.3,2.84.38,27.57,2.47,51,13.79,70.65,33.12,18.8,18.54,30.44,41,35.73,66.82A134,134,0,0,1,339.8,144a131.39,131.39,0,0,1-24.11,61.78c-.17.23-.33.48-.54.79l.89.6c3.36,2.12,6.74,4.22,10.09,6.36a12,12,0,0,1,5.9,10.49c.06,5.81.07,11.62,0,17.43a12.46,12.46,0,0,1-12.79,12.6h-22a8.86,8.86,0,0,1-9.16-9c-.05-2.63-.07-5.26,0-7.89,0-1.37-1.12-1.47-1.87-2-.25-.17-.93.06-1.28.3a109.88,109.88,0,0,1-45.79,17.83c-28.48,4.09-54.73-2-78.75-17.81-.42-.27-1.16-.59-1.46-.41-.83.53-2,.68-2,2.23a66.93,66.93,0,0,1-.18,9.29,8.61,8.61,0,0,1-8.6,7.41q-11.46,0-22.91,0A12.47,12.47,0,0,1,112.94,242c-.09-6.14-.13-12.28,0-18.42a11.62,11.62,0,0,1,5.66-9.83c3.44-2.22,6.91-4.37,10.37-6.55l1-.67c-1.36-2-2.72-3.91-4-5.89a134.78,134.78,0,0,1-21.13-84.1C108,81,122.39,50.91,149.52,27.39A110.38,110.38,0,0,1,202.61,1.85c4.33-.8,8.76-1.1,13.14-1.64a4.2,4.2,0,0,0,.66-.21ZM314,206.81l1-1.37c15-20.84,23.13-44.17,24.8-69.75a131.39,131.39,0,0,0-3.9-41.7c-7-27.17-21-50-42.85-67.84A109.88,109.88,0,0,0,228.87.94a107,107,0,0,0-46,7.3C160.2,17.15,142.2,32,128.4,51.89a129.93,129.93,0,0,0-22.76,64.42,134.36,134.36,0,0,0,2.09,37.28,129.76,129.76,0,0,0,22.72,52.1c.57.77.56,1.15-.29,1.68-3.67,2.25-7.31,4.55-10.94,6.86a10.8,10.8,0,0,0-5.46,9.1c-.16,6.31-.26,12.64,0,18.95.3,6.54,5.42,11,12,11h21.82c5.15,0,8.56-3.4,8.59-8.57,0-2.3.12-4.61,0-6.9a2.94,2.94,0,0,1,1.67-3,2.32,2.32,0,0,1,3,0c24.55,16.23,51.38,22.18,80.45,17.42a107.17,107.17,0,0,0,42.54-17c1.6-1.08,2.72-1.2,4.16,0a1.82,1.82,0,0,1,.86,1.58c-.05,2.63,0,5.26,0,7.89a8.16,8.16,0,0,0,8.57,8.51h21.92a12.38,12.38,0,0,0,2.51-.19,11.79,11.79,0,0,0,9.52-11.53c0-5.74,0-11.47,0-17.21a11.41,11.41,0,0,0-5.58-10.17c-3.29-2.09-6.6-4.16-9.9-6.24Z"/><path class="cls-2" d="M280,390.25V339c.34,0,.66-.06,1-.06,5.74,0,11.47,0,17.21,0a26.64,26.64,0,0,1,10.18,1.75,11.79,11.79,0,0,1,5.35,17.94A12.25,12.25,0,0,1,307,363c-.27.07-.53.17-.87.28,1.13.32,2.16.54,3.13.9,6.13,2.24,8.36,7.35,7.91,13.49-.62,8.43-6.41,11.15-12.22,12.07a42.93,42.93,0,0,1-6.21.45c-5.81.06-11.62,0-17.42,0Zm8.11-5.78c4.46-.13,8.87-.12,13.25-.44a7.58,7.58,0,0,0,6.23-3.56c3.35-5.48.45-12.65-5.85-13.6-4.46-.67-9.06-.51-13.63-.72Zm0-23.87c3.47,0,6.83.06,10.19,0a11.21,11.21,0,0,0,6.41-1.91c2.72-1.95,3.37-4.7,2.87-7.84a6.3,6.3,0,0,0-4.69-5.24,9.45,9.45,0,0,0-2.45-.5c-3.28-.13-6.57-.17-9.85-.23-.83,0-1.65,0-2.48,0Z"/><path class="cls-2" d="M48.1,390.25H38.82q-1.55-5.08-3.08-10.14c-.34-1.12-.72-2.22-1-3.35a.83.83,0,0,0-1-.75q-9.75,0-19.5,0c-.7,0-.83.35-1,.88q-1.89,6.22-3.82,12.43c-.09.3-.2.61-.3.92H.23c.91-2.7,1.79-5.34,2.69-8q7.74-22.81,15.47-45.62a1.5,1.5,0,0,1,1.76-1.22c3,.07,5.92,0,8.87,0,.57,0,.9.08,1.11.72Q39,362.88,48,389.6A5.63,5.63,0,0,1,48.1,390.25ZM24.16,341.91,24,342q-4.07,13.29-8.15,26.63H32.25Z"/><path class="cls-2" d="M328.75,286.56V273.71l8.37-1.15c0,.48.06.79.06,1.1q0,24.61,0,49.22c0,.57,0,1-.69,1.27-8,2.8-16.14,4-24.55,2.57-7.44-1.3-11.46-6.12-12.79-13.3-1.1-5.94-1.34-11.92.56-17.77a16,16,0,0,1,15.6-11.52C319.58,284.05,321.61,284.41,328.75,286.56Zm0,19.31q0-6.3,0-12.6c0-.58,0-1-.72-1.25a27.2,27.2,0,0,0-10.6-1.79c-5,.28-8.33,2.86-9.58,7.77a30.14,30.14,0,0,0,.46,16.42,9,9,0,0,0,8.42,6.83,28.29,28.29,0,0,0,11.1-1.47,1.13,1.13,0,0,0,.93-1.31C328.73,314.27,328.75,310.07,328.75,305.87Z"/><path class="cls-2" d="M421,286.58V273.71l8.43-1.15v50.2c0,.57.12,1.11-.67,1.39-7.55,2.68-15.3,3.93-23.25,2.78-8.22-1.2-12.35-5.18-14-13.3a35.63,35.63,0,0,1,.3-17.35c2.23-7.62,8.09-12,16-12.15a33.66,33.66,0,0,1,12.32,2.17C420.4,286.4,420.68,286.47,421,286.58Zm0,19.33c0-4.24,0-8.48,0-12.72,0-.56-.07-.94-.69-1.16a27.43,27.43,0,0,0-10.72-1.8c-4.88.29-8.16,2.81-9.45,7.54a30.11,30.11,0,0,0,.28,16.36c1.3,4.52,4.54,7.05,9,7.23a29.2,29.2,0,0,0,10.75-1.6,1.1,1.1,0,0,0,.87-1.25C421,314.31,421,310.11,421,305.91Z"/><path class="cls-2" d="M129.69,351.09V338.18l8.42-1.13v1.35q0,24.39,0,48.76a1.42,1.42,0,0,1-1.15,1.59,52.08,52.08,0,0,1-13.63,2.87c-4.31.3-8.59.35-12.76-1a14.44,14.44,0,0,1-9.74-9.72,37.81,37.81,0,0,1-1.5-13.7,22,22,0,0,1,3.6-11.89A14.94,14.94,0,0,1,112.8,349c5.5-1.09,10.77,0,16,1.77Zm0,19.29c0-4.13-.05-8.26,0-12.38a1.52,1.52,0,0,0-1.24-1.69,27.94,27.94,0,0,0-10.68-1.59,9.23,9.23,0,0,0-6.66,3c-2.43,2.78-3,6.28-3.23,9.79a30.65,30.65,0,0,0,.23,5.74,33,33,0,0,0,1.15,5.86,9,9,0,0,0,8.41,6.67,26.81,26.81,0,0,0,11.2-1.63,1,1,0,0,0,.8-1.2C129.68,378.78,129.69,374.58,129.69,370.38Z"/><path class="cls-2" d="M15.69,276h8.67v1.25c0,9.32,0,18.63,0,27.95a36,36,0,0,0,.63,6.63c1.1,5.45,4.57,8.38,10.15,8.66a19.78,19.78,0,0,0,4.68-.29c4.57-.91,7.33-4,8.14-9.14a36.87,36.87,0,0,0,.45-5.55c0-9.43,0-18.85,0-28.28V276h8.78v31a25.44,25.44,0,0,1-1.19,8.08,16.29,16.29,0,0,1-12.14,11.33,31.17,31.17,0,0,1-16.35-.26c-6.5-1.83-10.14-6.33-11.3-12.87a37.38,37.38,0,0,1-.58-6.42c-.06-10,0-20.09,0-30.14C15.65,276.52,15.67,276.31,15.69,276Z"/><path class="cls-2" d="M445.09,367.83c-.14,4.79-.4,8.41-1.49,11.94-1.88,6.11-6,9.7-12.22,10.87a36.22,36.22,0,0,1-14.26-.17c-5.75-1.23-9.63-4.61-11.19-10.31a39.46,39.46,0,0,1-.57-19c1.48-6.82,5.71-11,12.54-12.47a31.94,31.94,0,0,1,15.3.37c6.49,1.8,10,6.33,11.21,12.8C444.83,364.21,445,366.59,445.09,367.83ZM413,368.89c.33,2.81.49,5.52,1,8.15.79,3.95,2.84,7,7.09,7.83a21.83,21.83,0,0,0,4.57.32c4.7-.08,7.93-2.39,9.31-6.87a31,31,0,0,0,.45-17c-.88-3.52-3.05-6.05-6.69-6.77a22.9,22.9,0,0,0-6.51-.29c-4.49.41-7.22,2.82-8.23,7.22C413.45,364,413.31,366.48,413,368.89Z"/><path class="cls-2" d="M374.18,300.73a31.18,31.18,0,0,0,0-4.44c-.52-3.36-2.85-5.28-6.87-6-5.48-1-10.74,0-15.92,1.68-1.13.37-2.24.79-3.48,1.23,0-1.92,0-3.73,0-5.54a.82.82,0,0,1,.46-.61c8.16-2.68,16.46-4.07,24.95-1.85,6.16,1.6,9.07,5.47,9.19,12.31.16,8.8,0,17.61.08,26.41,0,.69-.36.9-.88,1a84.6,84.6,0,0,1-9.75,1.87,133.16,133.16,0,0,1-13.55.29,18,18,0,0,1-7.64-2.09c-7.77-3.82-8.17-15.46-1.58-20.15a20.73,20.73,0,0,1,10.7-3.76c4.36-.31,8.75-.24,13.13-.33Zm.11,5.14c-3.3,0-6.44-.08-9.57,0a19.55,19.55,0,0,0-7.46,1.49,7,7,0,0,0-4.1,8.35c.81,3.44,3.33,5,6.52,5.65,3.89.78,7.78.29,11.63-.36,3-.51,3-.55,3-3.52Z"/><path class="cls-2" d="M207.42,307.36H178.31a11.81,11.81,0,0,0,11.08,14.05,29,29,0,0,0,15.43-3.27c.06,0,.14,0,.34,0,0,1.87,0,3.75,0,5.63,0,.31-.54.77-.91.88a80.78,80.78,0,0,1-7.91,2.09,37.17,37.17,0,0,1-13,.12c-6.22-1.08-10.46-4.51-12.17-10.67a37.22,37.22,0,0,1-.59-18.63c1.9-8.19,7.78-13,16.22-13.4a22,22,0,0,1,9.68,1.38c5.72,2.37,8.85,6.89,10,12.78C207.05,301.23,207.11,304.24,207.42,307.36ZM199,302.11c0-8.14-4.5-12.81-11.77-12.27-6.43.48-9.18,6.24-8.88,12.27Z"/><path class="cls-2" d="M212.21,371.23H183.07c-.27,8.6,3.59,13.28,10.5,14a28.23,28.23,0,0,0,16-3.15,2.74,2.74,0,0,1,.39-.12c0,2,0,3.84,0,5.72,0,.29-.48.74-.81.83a90,90,0,0,1-8.76,2.24,35.9,35.9,0,0,1-12.32,0c-6.45-1.14-10.6-4.82-12.21-11.16a36.84,36.84,0,0,1-.13-19.27c2-7.25,7.74-11.67,15.27-12.18a23.56,23.56,0,0,1,9.41,1c6.29,2.2,9.7,6.91,11,13.23C211.86,365.18,211.91,368.12,212.21,371.23Zm-8.42-5.2c-.22-4.44-1.11-8.57-5.21-11a10.1,10.1,0,0,0-11.1.25c-3.8,2.48-4.31,6.55-4.54,10.72Z"/><path class="cls-2" d="M361.29,371.22H332.2a11.85,11.85,0,0,0,10.12,14c5.88.7,11.35-.67,16.72-3.23,0,1.91,0,3.8,0,5.68,0,.3-.47.75-.8.84a88.54,88.54,0,0,1-8.76,2.24,35,35,0,0,1-12.75-.08c-5.88-1.16-9.91-4.51-11.56-10.34a36.38,36.38,0,0,1-.39-19.9c2-7.38,7.71-11.79,15.38-12.3a23.19,23.19,0,0,1,9.3,1c6.34,2.22,9.76,7,11,13.33C361,365.27,361,368.2,361.29,371.22Zm-8.4-5.17c-.25-4.55-1.15-8.76-5.43-11.1a10.08,10.08,0,0,0-11.09.5c-3.63,2.52-4.13,6.51-4.33,10.6Z"/><path class="cls-2" d="M73.68,292.09V326.3h-8.3v-39c3.37-.78,6.78-1.69,10.23-2.34a38.83,38.83,0,0,1,15.67-.11A20.71,20.71,0,0,1,96,286.49a11,11,0,0,1,6.19,9.42c.09,1,.11,2,.12,3.07V326.3H93.88v-1.17c0-7.89,0-15.78,0-23.67a24.64,24.64,0,0,0-.49-5,7.22,7.22,0,0,0-6.55-6C82.3,289.83,78,290.69,73.68,292.09Z"/><path class="cls-2" d="M62.12,390.21H53.78c0-.33-.05-.65-.05-1q0-18.42,0-36.83c0-.71.13-1.09.89-1.32,7-2.12,14-3.49,21.34-2.94a21.23,21.23,0,0,1,8.52,2.21,11.15,11.15,0,0,1,6.23,10.33c.12,9.75,0,19.51,0,29.26a1.07,1.07,0,0,1-.09.24H82.36V389c0-8.26,0-16.52-.07-24.77a17.23,17.23,0,0,0-.46-3.79,7.42,7.42,0,0,0-7-6.17,29.71,29.71,0,0,0-12,1.45c-.64.2-.73.55-.72,1.12q0,6.19,0,12.38v21Z"/><path class="cls-2" d="M217.57,381.87a29.27,29.27,0,0,0,14.78,3.48,21,21,0,0,0,6-1.22,6.1,6.1,0,0,0,2.69-2.26,4,4,0,0,0-.84-5.5,23.27,23.27,0,0,0-4.92-2.76c-3.35-1.43-6.79-2.63-10.16-4a19.58,19.58,0,0,1-3.31-1.91c-6.15-4.13-5-12.16-.58-15.81a16.28,16.28,0,0,1,7.94-3.44,36.21,36.21,0,0,1,18.51,2.07,1.58,1.58,0,0,1,1.21,1.84c-.1,1.56,0,3.13,0,4.83-.67-.3-1.25-.57-1.84-.82-5.28-2.16-10.7-3.2-16.35-1.81a8.31,8.31,0,0,0-3.19,1.58,3.69,3.69,0,0,0,.06,6,17.28,17.28,0,0,0,4,2.26c3.52,1.47,7.13,2.76,10.67,4.21a19.76,19.76,0,0,1,3.35,1.82c5.69,3.72,6.64,10.75,2.18,15.9a12.75,12.75,0,0,1-7.19,4.13,38.14,38.14,0,0,1-21.63-1.67,1.65,1.65,0,0,1-1.3-1.91C217.65,385.23,217.57,383.62,217.57,381.87Z"/><path class="cls-2" d="M240.94,318a29.21,29.21,0,0,0,10.74,3.33,19.81,19.81,0,0,0,9.51-.78c2.82-1.06,4.25-3.37,3.71-5.81a4.62,4.62,0,0,0-2.45-3.08c-1.89-1-3.87-1.86-5.85-2.68-2.75-1.14-5.56-2.16-8.31-3.31a19.49,19.49,0,0,1-3-1.73c-6.39-4.17-5.28-12.53-.37-16.22A18.26,18.26,0,0,1,255,284.2a37.51,37.51,0,0,1,15.8,2.31,1.76,1.76,0,0,1,1.38,2.06c-.13,1.51,0,3,0,4.49-2.28-.76-4.45-1.6-6.68-2.21a22.24,22.24,0,0,0-11.05-.33,9.43,9.43,0,0,0-3.45,1.54,3.69,3.69,0,0,0-.05,6.16,22.74,22.74,0,0,0,4.79,2.57c3.18,1.33,6.45,2.47,9.65,3.78a21.85,21.85,0,0,1,3.46,1.88A10.41,10.41,0,0,1,270.42,323a14.1,14.1,0,0,1-7.85,3.8,39.18,39.18,0,0,1-20.15-1.85,1.86,1.86,0,0,1-1.51-2.2C241,321.21,240.94,319.67,240.94,318Z"/><path class="cls-2" d="M126.61,285.1h8.82l11.39,35.2c.21-.5.36-.82.47-1.15q5.29-16.48,10.55-33a1.36,1.36,0,0,1,1.6-1.13c2.37.06,4.74,0,7.26,0-.8,2.29-1.56,4.48-2.33,6.67q-5.88,16.74-11.75,33.49c-.3.86-.65,1.19-1.6,1.17-3-.07-6,0-9,0a1,1,0,0,1-1.2-.79q-7-19.95-14.08-39.86C126.71,285.56,126.68,285.38,126.61,285.1Z"/><path class="cls-2" d="M396.08,337.68v52.53h-8.31V338.85Z"/><path class="cls-2" d="M156.53,390.2h-8.42v-1.05q0-18.36,0-36.72a1.33,1.33,0,0,1,1.1-1.53,53.05,53.05,0,0,1,20.27-2.73c.5,0,1,.14,1.53.22v6c-.79-.09-1.53-.18-2.27-.25a32,32,0,0,0-11.65,1.56c-.26.08-.51.71-.51,1.08,0,5.12,0,10.23,0,15.35V390.2Z"/><path class="cls-2" d="M369.26,338.82l8.23-1.12v52.5h-8.23Z"/><path class="cls-2" d="M223.67,326.32h-8.31c0-.36-.06-.71-.06-1.06q0-18.4,0-36.82c0-.69.08-1.15.85-1.39,6.85-2.13,13.79-3.44,21-2.74.78.08,1.07.29,1,1.11-.07,1.6,0,3.21,0,4.82,0,.06-.06.12-.13.25-4.89-1-9.6.06-14.34,1.39Z"/><path class="cls-2" d="M120.77,326.33h-8.24V285.11h8.24Z"/><path class="cls-2" d="M289.86,326.32h-8.25V285.11h8.25Z"/><path class="cls-2" d="M457.61,356a7.51,7.51,0,0,1,7.66,7.59,7.58,7.58,0,0,1-7.71,7.69,7.64,7.64,0,1,1,.05-15.28Zm6,7.59a6.05,6.05,0,0,0-6.07-6.25,6.26,6.26,0,0,0,.17,12.51A5.94,5.94,0,0,0,463.57,363.63Z"/><path class="cls-2" d="M121,274.49v7.17h-8.61v-5.82Z"/><path class="cls-2" d="M290,274.47v7.19h-8.67c0-1.76,0-3.53,0-5.3a.83.83,0,0,1,.52-.53C284.58,275.36,287.27,274.93,290,274.47Z"/><path class="cls-2" d="M203.48,335,202,336.81c-1.6,2-3.18,4.08-4.82,6.09a1.88,1.88,0,0,1-1.22.62c-1.75.07-3.5,0-5.46,0l1.32-2.18a30.52,30.52,0,0,0,1.92-3.18,3.7,3.7,0,0,1,3.25-2.26C199.08,335.7,201.12,335.33,203.48,335Z"/><path class="cls-1" d="M314,206.81l1.78,1.15c3.3,2.08,6.61,4.15,9.9,6.24a11.41,11.41,0,0,1,5.58,10.17c0,5.74,0,11.47,0,17.21a11.79,11.79,0,0,1-9.52,11.53,12.38,12.38,0,0,1-2.51.19H297.34a8.16,8.16,0,0,1-8.57-8.51c0-2.63,0-5.26,0-7.89a1.82,1.82,0,0,0-.86-1.58c-1.44-1.22-2.56-1.1-4.16,0a107.17,107.17,0,0,1-42.54,17c-29.07,4.76-55.9-1.19-80.45-17.42a2.32,2.32,0,0,0-3,0,2.94,2.94,0,0,0-1.67,3c.15,2.29.05,4.6,0,6.9,0,5.17-3.44,8.57-8.59,8.57H125.76c-6.56,0-11.68-4.48-12-11-.28-6.31-.18-12.64,0-18.95a10.8,10.8,0,0,1,5.46-9.1c3.63-2.31,7.27-4.61,10.94-6.86.85-.53.86-.91.29-1.68a129.76,129.76,0,0,1-22.72-52.1,134.36,134.36,0,0,1-2.09-37.28A129.93,129.93,0,0,1,128.4,51.89C142.2,32,160.2,17.15,182.86,8.24a107,107,0,0,1,46-7.3,109.88,109.88,0,0,1,64.19,25.21C314.89,44,328.87,66.82,335.91,94a131.39,131.39,0,0,1,3.9,41.7c-1.67,25.58-9.76,48.91-24.8,69.75ZM159.52,227c18.78,13.73,39.7,21.06,63,21.09s44.28-7.27,63.11-21c2.72,1.71,5.42,3.44,8.16,5.1a1.49,1.49,0,0,1,.78,1.5c0,3.62,0,7.23,0,10.85,0,2.17.83,3,3,3,7.13,0,14.26-.13,21.38.05a6.32,6.32,0,0,0,6.7-6.68c-.08-5.44,0-10.89,0-16.33a6.15,6.15,0,0,0-3.11-5.64c-5.33-3.3-10.62-6.68-15.93-10-.33-.21-.64-.43-.9-.6,2.2-3,4.42-5.78,6.45-8.72a124.86,124.86,0,0,0,21.47-58.29,129.13,129.13,0,0,0-1.42-37.85,121.49,121.49,0,0,0-20.93-49.68C292.5,28,267.74,11.84,235.87,7.4a99.35,99.35,0,0,0-33,1,105.27,105.27,0,0,0-52.32,26.72C126.2,57.76,113.64,86,111.22,118.94a127.77,127.77,0,0,0,24.48,84.18c1.26,1.7,2.59,3.35,3.9,5-.36.24-.69.46-1,.67q-8.1,5.1-16.21,10.2a5.68,5.68,0,0,0-2.9,5.07c0,5.77,0,11.55,0,17.32a5.89,5.89,0,0,0,6.16,6.11h21.93c2,0,2.85-.84,2.86-2.86,0-3.73,0-7.45,0-11.18a1.34,1.34,0,0,1,.39-1C153.7,230.64,156.61,228.83,159.52,227Z"/><path class="cls-1" d="M288.15,384.47V366.15c4.57.21,9.17.05,13.63.72,6.3.95,9.2,8.12,5.85,13.6A7.58,7.58,0,0,1,301.4,384C297,384.35,292.61,384.34,288.15,384.47Z"/><path class="cls-1" d="M288.15,360.6V344.86c.83,0,1.65,0,2.48,0,3.28.06,6.57.1,9.85.23a9.45,9.45,0,0,1,2.45.5,6.3,6.3,0,0,1,4.69,5.24c.5,3.14-.15,5.89-2.87,7.84a11.21,11.21,0,0,1-6.41,1.91C295,360.66,291.62,360.6,288.15,360.6Z"/><path class="cls-1" d="M24.16,341.91l8.09,26.69H15.81Q19.9,355.24,24,342Z"/><path class="cls-1" d="M328.75,305.87c0,4.2,0,8.4,0,12.6a1.13,1.13,0,0,1-.93,1.31,28.29,28.29,0,0,1-11.1,1.47,9,9,0,0,1-8.42-6.83,30.14,30.14,0,0,1-.46-16.42c1.25-4.91,4.54-7.49,9.58-7.77A27.2,27.2,0,0,1,328,292c.69.24.72.67.72,1.25Q328.75,299.57,328.75,305.87Z"/><path class="cls-1" d="M421,305.91c0,4.2,0,8.4,0,12.6a1.1,1.1,0,0,1-.87,1.25,29.2,29.2,0,0,1-10.75,1.6c-4.43-.18-7.67-2.71-9-7.23a30.11,30.11,0,0,1-.28-16.36c1.29-4.73,4.57-7.25,9.45-7.54a27.43,27.43,0,0,1,10.72,1.8c.62.22.69.6.69,1.16C421,297.43,421,301.67,421,305.91Z"/><path class="cls-1" d="M129.69,370.38c0,4.2,0,8.4,0,12.6a1,1,0,0,1-.8,1.2,26.81,26.81,0,0,1-11.2,1.63,9,9,0,0,1-8.41-6.67,33,33,0,0,1-1.15-5.86,30.65,30.65,0,0,1-.23-5.74c.26-3.51.8-7,3.23-9.79a9.23,9.23,0,0,1,6.66-3,27.94,27.94,0,0,1,10.68,1.59,1.52,1.52,0,0,1,1.24,1.69C129.64,362.12,129.69,366.25,129.69,370.38Z"/><path class="cls-1" d="M413,368.89c.31-2.41.45-4.94,1-7.37,1-4.4,3.74-6.81,8.23-7.22a22.9,22.9,0,0,1,6.51.29c3.64.72,5.81,3.25,6.69,6.77a31,31,0,0,1-.45,17c-1.38,4.48-4.61,6.79-9.31,6.87a21.83,21.83,0,0,1-4.57-.32c-4.25-.85-6.3-3.88-7.09-7.83C413.49,374.41,413.33,371.7,413,368.89Z"/><path class="cls-1" d="M374.29,305.87V317.5c0,3,0,3-3,3.52-3.85.65-7.74,1.14-11.63.36-3.19-.64-5.71-2.21-6.52-5.65a7,7,0,0,1,4.1-8.35,19.55,19.55,0,0,1,7.46-1.49C367.85,305.79,371,305.87,374.29,305.87Z"/><path class="cls-1" d="M199,302.11H178.3c-.3-6,2.45-11.79,8.88-12.27C194.45,289.3,198.94,294,199,302.11Z"/><path class="cls-1" d="M203.79,366H182.94c.23-4.17.74-8.24,4.54-10.72a10.1,10.1,0,0,1,11.1-.25C202.68,357.46,203.57,361.59,203.79,366Z"/><path class="cls-1" d="M352.89,366.05H332c.2-4.09.7-8.08,4.33-10.6a10.08,10.08,0,0,1,11.09-.5C351.74,357.29,352.64,361.5,352.89,366.05Z"/><path class="cls-1" d="M463.57,363.63a5.94,5.94,0,0,1-5.9,6.26,6.26,6.26,0,0,1-.17-12.51A6.05,6.05,0,0,1,463.57,363.63Zm-8.76-3.94v8.17l1.45-.06v-3.22c2.05-.22,2.39,0,2.88,1.95.37,1.42.47,1.48,2,1.15l-1.55-4a1.86,1.86,0,0,0,1.13-2.14,2.13,2.13,0,0,0-2.15-1.83C457.36,359.63,456.12,359.69,454.81,359.69Z"/><path class="cls-2" d="M159.52,227c-2.91,1.84-5.82,3.65-8.69,5.51a1.34,1.34,0,0,0-.39,1c0,3.73,0,7.45,0,11.18,0,2-.84,2.86-2.86,2.86H125.63a5.89,5.89,0,0,1-6.16-6.11c0-5.77,0-11.55,0-17.32a5.68,5.68,0,0,1,2.9-5.07q8.11-5.08,16.21-10.2c.34-.21.67-.43,1-.67-1.31-1.7-2.64-3.35-3.9-5a127.77,127.77,0,0,1-24.48-84.18c2.42-32.92,15-61.18,39.29-83.81A105.27,105.27,0,0,1,202.83,8.41a99.35,99.35,0,0,1,33-1C267.74,11.84,292.5,28,311.19,53.78a121.49,121.49,0,0,1,20.93,49.68,129.13,129.13,0,0,1,1.42,37.85,124.86,124.86,0,0,1-21.47,58.29c-2,2.94-4.25,5.75-6.45,8.72.26.17.57.39.9.6,5.31,3.34,10.6,6.72,15.93,10a6.15,6.15,0,0,1,3.11,5.64c0,5.44-.07,10.89,0,16.33a6.32,6.32,0,0,1-6.7,6.68c-7.12-.18-14.25-.05-21.38-.05-2.13,0-2.95-.83-3-3,0-3.62,0-7.23,0-10.85a1.49,1.49,0,0,0-.78-1.5c-2.74-1.66-5.44-3.39-8.16-5.1-18.83,13.72-39.79,21-63.11,21S178.3,240.72,159.52,227Zm147-99.64A99.35,99.35,0,0,0,305,110.13c-3.82-20.85-13.2-38.72-29.09-52.86-16.82-15-36.56-22-59.14-20.47a74.72,74.72,0,0,0-36.26,12c-24.62,16.06-37.75,39.23-41.24,68.1a92.32,92.32,0,0,0,1.92,32.32c4.88,20.68,15.19,38.08,32,51.29,18.74,14.77,40,20.37,63.62,16.19,18.17-3.23,33.33-12.17,45.64-25.81C298.68,172.9,306.21,151.47,306.57,127.35Z"/><path class="cls-2" d="M454.81,359.69c1.31,0,2.55-.06,3.78,0a2.13,2.13,0,0,1,2.15,1.83,1.86,1.86,0,0,1-1.13,2.14l1.55,4c-1.55.33-1.65.27-2-1.15-.49-1.94-.83-2.17-2.88-1.95v3.22l-1.45.06Zm1.45,3.62c1.08,0,2.17.26,2.83-.77a1.25,1.25,0,0,0-.13-1.18c-.75-.83-1.74-.57-2.7-.48Z"/><path class="cls-1" d="M306.57,127.35c-.36,24.12-7.89,45.55-24.16,63.58-12.31,13.64-27.47,22.58-45.64,25.81-23.57,4.18-44.88-1.42-63.62-16.19-16.76-13.21-27.07-30.61-32-51.29a92.32,92.32,0,0,1-1.92-32.32c3.49-28.87,16.62-52,41.24-68.1a74.72,74.72,0,0,1,36.26-12c22.58-1.53,42.32,5.51,59.14,20.47,15.89,14.14,25.27,32,29.09,52.86A99.35,99.35,0,0,1,306.57,127.35ZM222.8,77.21a5.4,5.4,0,0,1-.38.55C216.8,84,211.16,90.13,205.56,96.34a2.51,2.51,0,0,0-.54,1.55q0,31.73,0,63.45c0,.35,0,.7.05,1h35.16c0-.19.06-.33.06-.47q0-32.16,0-64.32a1.91,1.91,0,0,0-.46-1.15c-1.15-1.37-2.36-2.7-3.54-4Zm26.81,85.14h32.27V97H249.61Zm-54,0V97H163.4v65.4Z"/><path class="cls-1" d="M456.26,363.31v-2.43c1-.09,1.95-.35,2.7.48a1.25,1.25,0,0,1,.13,1.18C458.43,363.57,457.34,363.27,456.26,363.31Z"/><path class="cls-3" d="M222.8,77.21,236.25,92.4c1.18,1.34,2.39,2.67,3.54,4a1.91,1.91,0,0,1,.46,1.15q0,32.16,0,64.32c0,.14,0,.28-.06.47H205.05c0-.34-.05-.69-.05-1q0-31.72,0-63.45a2.51,2.51,0,0,1,.54-1.55c5.6-6.21,11.24-12.39,16.86-18.58A5.4,5.4,0,0,0,222.8,77.21Z"/><path class="cls-3" d="M249.61,162.35V97h32.27v65.37Z"/><path class="cls-3" d="M195.57,162.37H163.4V97h32.17Z"/></g></g></svg>