<?xml version="1.0" encoding="utf-8"?>
<!-- Generator: Adobe Illustrator 26.3.1, SVG Export Plug-In . SVG Version: 6.00 Build 0)  -->
<svg version="1.1" id="Capa_1" xmlns="http://www.w3.org/2000/svg" xmlns:xlink="http://www.w3.org/1999/xlink" x="0px" y="0px"
	 viewBox="0 0 124.26 103.96" style="enable-background:new 0 0 124.26 103.96;" xml:space="preserve">
<style type="text/css">
	.st0{fill:#FFFFFF;}
	.st1{fill:#AF212D;}
	.st2{fill:#161E30;}
</style>
<g>
	<g>
		<g>
			<g>
				<polygon class="st0" points="78.97,72.87 78.98,72.88 78.98,72.87 				"/>
				<polygon class="st0" points="33.49,72.87 33.5,72.88 33.5,72.87 				"/>
				<path class="st0" d="M29.94,73.01v1.54h2.33v-1.9C31.43,72.72,30.62,72.86,29.94,73.01"/>
				<path class="st0" d="M75.13,73.01v1.54h2.33v-1.9C76.62,72.72,75.81,72.86,75.13,73.01"/>
				<path class="st0" d="M9.71,86.74c-4.24,0-5.58-2.15-5.58-5.49v-8.24h2.33v7.96c0,2.56,0.88,3.96,3.25,3.96
					c2.3,0,3.19-1.44,3.19-3.96v-7.96h2.35v8.22C15.24,84.61,13.47,86.74,9.71,86.74"/>
				<path class="st0" d="M25.03,86.48v-6.72c0-2.02-0.73-2.93-2.65-2.93c-1.23,0-2.37,0.34-2.76,0.5v9.15h-2.24V76.1
					c0.56-0.19,2.8-0.9,5.06-0.9c3.08,0,4.82,1.16,4.82,3.62v7.67H25.03z"/>
				<polygon class="st0" points="40.61,86.48 37.65,86.48 33.76,75.46 36.13,75.46 39.18,84.91 42.22,75.46 44.48,75.46 				"/>
				<path class="st0" d="M50.32,76.7c-1.79,0-2.73,1.16-2.78,3.32h5.58C53.07,78.1,52.15,76.7,50.32,76.7 M47.54,81.4
					c0.04,2.5,1.06,3.79,3.6,3.79c1.51,0,3.32-0.67,3.62-0.97v1.68c-0.26,0.19-1.9,0.84-4.31,0.84c-3.94,0-5.15-2.05-5.15-6.05
					c0-3.57,1.87-5.49,5.02-5.49c3.08,0,4.98,1.98,4.98,5.49v0.71H47.54z"/>
				<path class="st0" d="M62.46,76.79c-1.16,0-2.41,0.39-2.76,0.47v9.22h-2.24v-10.4c0.39-0.19,2.71-0.88,4.72-0.88
					c0.15,0,1.23,0.02,1.4,0.11v1.59C63.37,76.86,62.72,76.79,62.46,76.79"/>
				<path class="st0" d="M68.54,86.74c-2.33,0-3.81-0.58-4.22-0.84v-1.68c0.73,0.5,2.41,0.97,3.68,0.97c1.98,0,2.76-0.71,2.76-1.59
					c0-0.73-0.73-1.18-1.66-1.55c-2.26-0.88-4.8-1.42-4.8-3.68c0-2.05,1.92-3.17,4.37-3.17c2.2,0,3.77,0.67,3.98,0.82v1.64
					c-0.58-0.32-1.98-0.88-3.49-0.88c-1.94,0-2.61,0.67-2.61,1.42c0,0.69,0.75,1.1,1.68,1.46c1.83,0.73,4.85,1.42,4.85,3.6
					C73.08,85.38,71.6,86.74,68.54,86.74"/>
				<path class="st0" d="M99.96,80.99h-1.81c-2.45,0-3.9,0.54-3.9,2.2c0,1.31,1.08,2.07,2.71,2.07c1.46,0,2.71-0.26,2.99-0.39V80.99
					z M96.79,86.74c-3.1,0-4.78-1.23-4.78-3.49c0-2.65,2.65-3.62,5.38-3.62h2.56v-0.75c0-1.38-0.88-2.15-3.21-2.15
					c-1.62,0-3.53,0.75-3.85,0.9v-1.62c0.37-0.13,2.35-0.82,4.39-0.82c3.36,0,4.87,1.1,4.87,3.79v7.02
					C101.66,86.22,99.83,86.74,96.79,86.74"/>
				<rect x="29.99" y="75.46" class="st0" width="2.24" height="11.03"/>
				<path class="st0" d="M87.79,84.63c-0.3,0.13-1.38,0.52-2.78,0.52c-2.09,0-3.04-1.29-3.04-4.46c0-2.58,1.01-3.88,3.06-3.88
					c1.1,0,2.3,0.37,2.76,0.58V84.63z M87.79,75.89c-0.3-0.15-1.74-0.69-3.36-0.69c-2.84,0-4.76,1.87-4.76,5.49
					c0,4.07,1.38,6.05,5.32,6.05c2.28,0,4.2-0.56,5.04-0.93V72.13c-0.78,0.05-1.56,0.17-2.24,0.3V75.89z"/>
				<rect x="75.17" y="75.46" class="st0" width="2.24" height="11.03"/>
				<path class="st0" d="M112.45,84.63c-0.3,0.13-1.38,0.52-2.78,0.52c-2.09,0-3.04-1.29-3.04-4.46c0-2.58,1.01-3.88,3.06-3.88
					c1.1,0,2.3,0.37,2.76,0.58V84.63z M112.45,75.89c-0.3-0.15-1.74-0.69-3.36-0.69c-2.84,0-4.76,1.87-4.76,5.49
					c0,4.07,1.38,6.05,5.32,6.05c2.28,0,4.2-0.56,5.04-0.93V72.13c-0.78,0.05-1.56,0.17-2.24,0.3V75.89z"/>
				<path class="st0" d="M79.4,97.17h-2.48v4.82h2.52c1.94,0,3.02-0.63,3.02-2.38C82.46,97.97,81.44,97.17,79.4,97.17 M79.38,91.42
					h-2.46v4.21h2.52c1.51,0,2.74-0.67,2.74-2.14C82.18,91.97,81.15,91.42,79.38,91.42 M79.8,103.56h-5.04V89.85h4.78
					c3,0,4.82,1.15,4.82,3.43c0,1.65-1.13,2.8-2.76,3.08c1.96,0.28,3.1,1.45,3.1,3.47C84.7,102.39,82.99,103.56,79.8,103.56"/>
				<path class="st0" d="M91.44,93.78c-1.79,0-2.74,1.16-2.78,3.32h5.58C94.19,95.18,93.27,93.78,91.44,93.78 M88.66,98.47
					c0.04,2.5,1.05,3.79,3.6,3.79c1.51,0,3.32-0.67,3.62-0.97v1.68c-0.26,0.19-1.9,0.84-4.31,0.84c-3.94,0-5.15-2.05-5.15-6.05
					c0-3.57,1.87-5.49,5.02-5.49c3.08,0,4.97,1.98,4.97,5.49v0.71H88.66z"/>
				<path class="st0" d="M113.43,93.89c-2.22,0-3.08,1.16-3.08,3.88c0,3.27,0.86,4.46,3.08,4.46c2.13,0,3.1-1.27,3.1-4.46
					C116.53,95.07,115.62,93.89,113.43,93.89 M113.43,103.82c-4.2,0-5.38-1.94-5.38-6.05c0-3.9,1.92-5.49,5.38-5.49
					c3.53,0,5.43,1.53,5.43,5.49C118.85,102.37,116.96,103.82,113.43,103.82"/>
				<path class="st0" d="M121.84,96.36h0.27c0.28,0,0.55-0.09,0.55-0.33c0-0.2-0.14-0.36-0.51-0.36c-0.15,0-0.24,0.01-0.31,0.03
					V96.36z M121.84,97.56h-0.4v-2.13c0.22-0.04,0.45-0.06,0.74-0.06c0.36,0,0.54,0.06,0.66,0.17c0.13,0.09,0.22,0.25,0.22,0.46
					c0,0.25-0.19,0.42-0.41,0.5v0.03c0.18,0.08,0.28,0.24,0.34,0.52c0.06,0.32,0.11,0.45,0.17,0.52h-0.41
					c-0.06-0.08-0.12-0.27-0.18-0.55c-0.05-0.24-0.19-0.34-0.48-0.34h-0.25V97.56z M122.2,94.77c-0.92,0-1.62,0.75-1.62,1.67
					c0,0.94,0.7,1.68,1.64,1.68c0.91,0.01,1.59-0.74,1.59-1.67c0-0.93-0.69-1.68-1.61-1.68H122.2z M122.22,94.41
					c1.15,0,2.04,0.89,2.04,2.03c0,1.16-0.89,2.05-2.05,2.05c-1.16,0-2.08-0.89-2.08-2.05c0-1.13,0.92-2.03,2.08-2.03H122.22z"/>
				<path class="st0" d="M103.54,103.56h2.24V89.54c-0.78,0.05-1.56,0.17-2.24,0.3V103.56z"/>
				<path class="st0" d="M98.59,103.56h2.24V89.54c-0.78,0.05-1.56,0.17-2.24,0.3V103.56z"/>
				<path class="st0" d="M21.94,103.56v-6.72c0-2.02-0.73-2.93-2.65-2.93c-1.23,0-2.37,0.34-2.76,0.5v9.15H14.3V93.18
					c0.56-0.19,2.8-0.9,5.06-0.9c3.08,0,4.82,1.16,4.82,3.62v7.67H21.94z"/>
				<path class="st0" d="M44.51,93.87c-1.16,0-2.41,0.39-2.76,0.47v9.22h-2.24v-10.4c0.39-0.19,2.71-0.88,4.72-0.88
					c0.15,0,1.23,0.02,1.4,0.11v1.59C45.42,93.93,44.77,93.87,44.51,93.87"/>
				<path class="st0" d="M51.6,93.78c-1.79,0-2.73,1.16-2.78,3.32h5.58C54.36,95.18,53.43,93.78,51.6,93.78 M48.82,98.47
					c0.04,2.5,1.05,3.79,3.6,3.79c1.51,0,3.32-0.67,3.62-0.97v1.68c-0.26,0.19-1.9,0.84-4.31,0.84c-3.94,0-5.15-2.05-5.15-6.05
					c0-3.57,1.87-5.49,5.02-5.49c3.08,0,4.97,1.98,4.97,5.49v0.71H48.82z"/>
				<path class="st0" d="M62.3,103.82c-2.33,0-3.81-0.58-4.22-0.84v-1.68c0.73,0.5,2.41,0.97,3.68,0.97c1.98,0,2.76-0.71,2.76-1.59
					c0-0.73-0.73-1.18-1.66-1.55c-2.26-0.88-4.8-1.42-4.8-3.68c0-2.05,1.92-3.17,4.37-3.17c2.2,0,3.77,0.67,3.98,0.82v1.64
					c-0.58-0.32-1.98-0.88-3.49-0.88c-1.94,0-2.61,0.67-2.61,1.42c0,0.69,0.75,1.1,1.68,1.46c1.83,0.73,4.85,1.42,4.85,3.6
					C66.85,102.46,65.36,103.82,62.3,103.82"/>
				<path class="st0" d="M52.03,89.17l-1.17,1.91h1.66l1.78-2.27C53.48,88.88,52.69,89.02,52.03,89.17"/>
				<path class="st0" d="M4.16,97.79l2.22-7.23l2.19,7.23H4.16z M10.32,103.56h2.5L7.92,88.91H4.97L0,103.56h2.39l1.16-3.8h5.61
					L10.32,103.56z"/>
				<path class="st0" d="M34.6,101.85c-0.3,0.13-1.38,0.52-2.78,0.52c-2.09,0-3.04-1.29-3.04-4.46c0-2.58,1.01-3.88,3.06-3.88
					c1.1,0,2.3,0.37,2.76,0.58V101.85z M34.6,93.11c-0.3-0.15-1.74-0.69-3.36-0.69c-2.84,0-4.76,1.87-4.76,5.49
					c0,4.07,1.38,6.05,5.32,6.05c2.28,0,4.2-0.56,5.04-0.93V89.36c-0.78,0.05-1.56,0.17-2.24,0.3V93.11z"/>
			</g>
		</g>
		<g>
			<g>
				<g>
					<path class="st0" d="M42.53,61.16l0.34,0.23c4.94,3.4,10.67,5.2,16.56,5.2c5.88,0,11.59-1.79,16.53-5.18l0.34-0.23l1.33,0.84
						v2.75c0,0.92,0.74,1.68,1.64,1.68h6.11c1.41-0.01,2.57-1.2,2.57-2.66v-4.62c0-0.88-0.45-1.7-1.18-2.16l-3.68-2.32l0.4-0.54
						c4.38-5.88,6.8-13.29,6.8-20.85C90.29,14.94,76.44,0,59.43,0S28.56,14.94,28.56,33.3c0,7.54,2.41,14.94,6.78,20.81l0.4,0.54
						L32.01,57c-0.73,0.46-1.18,1.29-1.18,2.16v4.62c0,1.46,1.16,2.66,2.58,2.66h6.1c0.91,0,1.64-0.75,1.64-1.68v-2.75L42.53,61.16z
						"/>
				</g>
			</g>
			<g>
				<rect x="43.58" y="25.18" class="st1" width="8.65" height="17.5"/>
				<rect x="66.63" y="25.18" class="st1" width="8.65" height="17.5"/>
				<polygon class="st1" points="59.49,19.93 54.72,25.18 54.72,42.68 64.13,42.68 64.13,25.18 				"/>
			</g>
			<path class="st2" d="M59.43,57.55C47.04,57.55,37,46.69,37,33.3C37,19.9,47.04,9.04,59.43,9.04c12.38,0,22.42,10.86,22.42,24.25
				C81.85,46.69,71.81,57.55,59.43,57.55 M86.22,57.87l-4.66-2.93l0,0c4.78-5.72,7.7-13.31,7.7-21.64
				c0-17.82-13.36-32.27-29.84-32.27c-16.48,0-29.84,14.45-29.84,32.27c0,8.31,2.91,15.88,7.67,21.6v0l-4.71,2.97
				c-0.43,0.27-0.7,0.76-0.7,1.3v4.62c0,0.96,0.74,1.64,1.55,1.64h6.1c0.34,0,0.62-0.29,0.62-0.65v-3.31l2.44-1.53
				c4.8,3.56,10.6,5.64,16.86,5.64c6.24,0,12.03-2.08,16.82-5.62c0,0,0,0,0,0l2.4,1.51v3.31c0,0.36,0.28,0.65,0.62,0.65h6.1h0
				c0.81,0,1.55-0.69,1.55-1.64v-4.62C86.92,58.63,86.66,58.14,86.22,57.87"/>
		</g>
	</g>
</g>
</svg>
