<svg width="110" height="110" viewBox="0 0 110 110" fill="none" xmlns="http://www.w3.org/2000/svg">
<path d="M53.0917 17.6561C57.4308 17.6561 60.9483 14.1514 60.9483 9.82807C60.9483 5.50475 57.4308 2 53.0917 2C48.7526 2 45.2351 5.50475 45.2351 9.82807C45.2351 14.1514 48.7526 17.6561 53.0917 17.6561Z" stroke="white" stroke-width="3" stroke-miterlimit="10"/>
<path d="M56.1646 49.8071L48.7106 42.6279L54.495 47.9843C61.4931 54.8095 56.8099 58.9742 56.8099 58.9742C53.6543 62.5609 49.6283 60.9504 47.3371 59.5051C47.1255 59.3735 46.8852 59.2948 46.6365 59.2757C46.3879 59.2567 46.1383 59.2979 45.9091 59.3959C45.6799 59.4938 45.4779 59.6456 45.3203 59.8382C45.1628 60.0309 45.0544 60.2586 45.0044 60.5021L40.0488 83.9332C40.0023 84.1577 40.0065 84.3896 40.061 84.6123C40.1155 84.835 40.2191 85.0428 40.3642 85.2206C40.5093 85.3985 40.6922 85.542 40.8998 85.6407C41.1074 85.7394 41.3345 85.7909 41.5645 85.7914H66.567C66.9067 85.7914 67.237 85.6799 67.5067 85.4741C67.7764 85.2683 67.9705 84.9797 68.059 84.6529L72.1027 69.8462C72.1002 69.8168 72.1002 69.7872 72.1027 69.7577C83.5 53.8795 69.6812 46.4033 66.1289 43.9316C65.9554 43.8115 65.8082 43.6576 65.6962 43.479C65.5843 43.3005 65.51 43.1011 65.4779 42.8931C65.4458 42.685 65.4565 42.4726 65.5094 42.2688C65.5623 42.065 65.6562 41.8741 65.7855 41.7076C68.6688 37.9558 65.5664 34.3279 65.5664 34.3279C65.5664 34.3279 60.8892 28.4937 56.206 24.9956C51.5229 21.4974 48.681 24.9956 48.681 24.9956L37.2958 35.667C30.57 41.3183 36.1946 45.5479 36.3544 45.6954C37.5859 46.8457 43.5242 52.438 46.6562 55.9775C47.5338 57.0524 48.7395 57.8125 50.0901 58.1426C51.4408 58.4726 52.8626 58.3545 54.1398 57.8062C54.3555 57.6943 54.5547 57.5534 54.7318 57.3874C55.8923 56.5415 56.6862 55.2873 56.9523 53.8795C57.2184 52.4716 56.9368 51.0156 56.1646 49.8071ZM56.1646 49.8071C56.2297 49.872 56.1172 49.7363 56.1646 49.8071Z" stroke="white" stroke-width="3" stroke-miterlimit="10"/>
<path d="M50.5875 88.6643H55.0338C55.6729 88.6643 56.2858 88.9172 56.7377 89.3675C57.1896 89.8178 57.4435 90.4284 57.4435 91.0652V104.598C57.4455 104.901 57.3872 105.202 57.2718 105.483C56.949 106.357 56.3663 107.112 55.6014 107.647C54.8366 108.183 53.926 108.473 52.9912 108.479C52.8809 108.488 52.77 108.488 52.6597 108.479C51.8427 108.385 48.5153 107.748 48.2489 103.666C48.0121 100.398 48.1068 94.3392 48.1838 91.018C48.1946 90.39 48.4527 89.7914 48.9023 89.3511C49.3519 88.9108 49.9571 88.6642 50.5875 88.6643V88.6643Z" stroke="white" stroke-width="3" stroke-miterlimit="10"/>
</svg>
