<svg width="110" height="110" viewBox="0 0 110 110" fill="none" xmlns="http://www.w3.org/2000/svg">
<path d="M55.0707 54.9824C65.0928 54.9824 73.3968 46.9707 73.3968 36.9912C73.3968 27.1523 65.0928 19 55.0707 19C44.9054 19 36.7446 27.1523 36.7446 36.9912C36.7446 46.9707 44.9054 54.9824 55.0707 54.9824ZM55.0707 23.4978C62.5156 23.4978 68.8152 29.6823 68.8152 36.9912C68.8152 44.4407 62.5156 50.4846 55.0707 50.4846C47.4825 50.4846 41.3261 44.4407 41.3261 36.9912C41.3261 29.6823 47.4825 23.4978 55.0707 23.4978ZM68.3857 59.6208C63.5179 59.4802 62.0861 61.7291 55.0707 61.7291C47.9121 61.7291 46.4803 59.4802 41.6124 59.6208C31.304 59.9019 23 68.1948 23 78.4554V89.8404C23 90.5432 23.4295 90.9649 24.1454 90.9649H26.4361C27.0088 90.9649 27.5815 90.5432 27.5815 89.8404V78.4554C27.5815 70.8653 33.5947 64.5403 41.3261 64.1186V75.6442C37.89 76.6281 35.5992 79.5798 35.5992 83.0937C35.5992 87.451 39.1785 90.9649 43.6169 90.9649C47.9121 90.9649 51.6345 87.451 51.6345 83.0937C51.6345 79.5798 49.2006 76.6281 45.9076 75.6442V64.8214C48.7711 65.8052 51.9208 66.2269 55.0707 66.2269C58.0773 66.2269 61.2271 65.8052 64.2337 64.8214V74.5198C60.0817 75.5036 57.3614 79.2987 57.3614 83.5154V87.5915C57.3614 88.2943 57.5046 88.8565 57.9341 89.2782L59.509 90.6838C59.9385 91.1054 60.6544 91.1054 61.0839 90.6838L62.6588 89.1377C63.0883 88.716 63.0883 88.0132 62.6588 87.451L61.7998 86.7481V83.0937C61.7998 80.4231 64.3769 78.3148 67.2403 78.7364C69.5311 79.0176 70.9628 81.1259 70.9628 83.3748V86.7481L70.2469 87.451C69.8175 88.0132 69.8175 88.716 70.2469 89.1377L71.8218 90.6838C72.2514 91.1054 72.9672 91.1054 73.3968 90.6838L74.9717 89.2782C75.4012 88.8565 75.5444 88.2943 75.5444 87.5915V83.0937C75.5444 79.0176 72.6809 75.5036 68.6721 74.5198V64.1186C76.4034 64.6808 82.4167 70.8653 82.4167 78.4554V89.8404C82.4167 90.5432 82.9893 90.9649 83.562 90.9649H85.8528C86.5686 90.9649 86.9982 90.5432 86.9982 89.8404V78.4554C87.1413 68.1948 78.8374 59.9019 68.3857 59.6208ZM47.053 83.0937C47.053 85.0615 45.4781 86.4671 43.6169 86.4671C41.6124 86.4671 40.1807 85.0615 40.1807 83.0937C40.1807 81.2665 41.6124 79.7204 43.6169 79.7204C45.4781 79.7204 47.053 81.2665 47.053 83.0937Z" fill="white"/>
</svg>
