<svg width="110" height="110" viewBox="0 0 110 110" fill="none" xmlns="http://www.w3.org/2000/svg">
<path d="M60.0229 31.5412L60.0685 31.5293C62.0152 31.0227 63.4687 30.2575 64.5216 29.301C65.4809 28.252 66.2467 26.8049 66.7534 24.8655L66.7653 24.8199L66.7794 24.7748C67.1883 23.4658 67.4066 22.0056 67.4123 20.3777L67.3886 20.024L67.0291 20.0001C65.3944 20.0057 63.9298 20.2235 62.6159 20.6323L62.571 20.6463L62.5254 20.6582C60.5624 21.1691 59.1008 21.9429 58.0458 22.9107C56.6425 24.3253 55.6667 26.4854 55.3143 29.6391L60.0229 31.5412ZM60.0229 31.5412L59.978 31.5552M60.0229 31.5412L59.978 31.5552M59.978 31.5552C58.6641 31.964 57.1995 32.1818 55.5648 32.1874M59.978 31.5552L55.5648 32.1874M55.5648 32.1874L55.1844 32.1621C55.1707 31.3984 55.212 30.5588 55.3142 29.6399L55.5648 32.1874ZM85.4153 66.0517L85.4123 66.0677L85.4096 66.0838C84.2931 72.6718 82.0786 78.0916 78.8274 82.4152L78.8209 82.4239C74.9955 87.5692 70.3467 90 64.7754 90C63.6565 90 62.3065 89.6543 60.6868 88.8121C59.1167 87.8649 57.373 87.3984 55.5 87.3984C53.6262 87.3984 51.8842 87.8652 50.3136 88.8119C48.6937 89.6542 47.3436 90 46.2246 90C40.6533 90 36.0045 87.5692 32.1791 82.4239L32.1725 82.4152C28.9214 78.0916 26.7069 72.6718 25.5904 66.0838L25.5877 66.0677L25.5847 66.0517C24.8553 62.1357 24.8074 58.2288 25.4462 54.3177C26.1799 50.018 27.5372 46.5637 29.448 43.877C31.5852 40.8949 34.2316 39.1923 37.4346 38.6154C39.3343 38.3023 42.1872 38.5572 46.1386 39.5876C49.5 40.5203 52.285 41.6217 54.5237 42.8713L55.4985 43.4155L56.4734 42.8713C58.712 41.6217 61.497 40.5203 64.8584 39.5876C68.8113 38.5572 71.6656 38.3023 73.5654 38.6154C76.7683 39.1923 79.4147 40.8949 81.552 43.8769C83.4628 46.5636 84.8201 50.018 85.5539 54.3179C86.1926 58.2289 86.1447 62.1357 85.4153 66.0517Z" stroke="white" stroke-width="4"/>
</svg>
