<svg width="110" height="110" viewBox="0 0 110 110" fill="none" xmlns="http://www.w3.org/2000/svg">
<path d="M19.4483 36.5823C21.2461 35.841 22.9927 34.9634 24.7564 34.154C25.8725 33.6428 26.9972 33.1487 28.1219 32.663C28.369 32.5608 27.8407 32.7823 28.0793 32.68C28.1219 32.663 28.1645 32.646 28.2071 32.6289C28.3178 32.5863 28.4286 32.5352 28.5394 32.4926C28.7353 32.4159 28.9313 32.3392 29.1273 32.2625C29.2551 32.2199 29.3829 32.1688 29.5107 32.1262C29.5533 32.1092 29.6044 32.1007 29.647 32.0836C29.664 32.0751 29.6981 32.0751 29.7151 32.0666C29.5021 32.1688 29.2636 32.1347 29.8429 32.0495C30.4905 31.9558 31.1295 31.811 31.7856 31.7002C31.9049 31.6832 32.0241 31.6661 32.1349 31.6491C32.1775 31.6406 32.382 31.615 32.1605 31.6406C32.399 31.615 32.6291 31.5895 32.8677 31.5639C33.3874 31.5213 33.9156 31.4957 34.4353 31.5213C35.2703 31.5469 35.9434 31.6832 36.8209 31.9814C37.298 32.1433 37.7836 32.2966 38.2693 32.4415C41.081 33.302 43.9182 34.1029 46.7213 34.9805C47.9993 35.3809 49.2773 35.7899 50.5298 36.2585C50.7002 36.3267 51.0069 36.5312 51.1773 36.5141C51.0069 36.5226 50.9132 36.3948 51.1006 36.48C51.1347 36.4971 51.1688 36.5141 51.2114 36.5312C51.3051 36.5738 51.4073 36.6249 51.5011 36.6675C51.893 36.8634 52.2764 37.085 52.6513 37.332C53.0517 37.5962 53.1369 37.6558 53.5289 38.0307C53.6652 38.1585 53.793 38.2948 53.9123 38.4311C53.9804 38.5164 54.0571 38.593 54.1167 38.6782C53.9548 38.4737 54.0997 38.6612 54.1338 38.7208C54.236 38.8827 54.3468 39.0446 54.432 39.2065C54.4661 39.2661 54.5001 39.3258 54.5257 39.3939C54.5598 39.4536 54.5853 39.5217 54.6109 39.5814C54.5513 39.4365 54.5513 39.428 54.6024 39.5643C54.7132 39.8966 54.8239 40.2289 54.8836 40.5782C54.8921 40.6208 54.9517 40.9787 54.9006 40.6719C54.9176 40.7827 54.9347 40.902 54.9432 41.0127C54.9432 41.0383 54.9517 41.0639 54.9517 41.0894C55.0966 42.0607 55.2499 43.0321 55.4118 44.0033C55.5907 45.0939 55.7441 46.21 56.0423 47.2665C56.2383 47.9396 56.7239 48.519 57.0903 49.1068C57.7975 50.257 58.4791 51.4328 59.0413 52.6597C59.0839 52.7449 59.118 52.8386 59.1606 52.9238C59.1862 52.9835 59.3055 53.2817 59.1777 52.9664C59.2373 53.1113 59.2884 53.2476 59.3481 53.3925C59.4588 53.6821 59.5526 53.9718 59.6207 54.27C59.6463 54.3893 59.6718 54.5086 59.6974 54.6364C59.757 54.892 59.6889 54.3126 59.6889 54.5682C59.6889 54.6023 59.6889 54.662 59.6974 54.696C59.7485 54.9261 59.7741 54.3552 59.74 54.5001C59.6974 54.6449 59.9274 54.0996 59.8252 54.2956C59.7144 54.5171 59.6037 54.7301 59.4674 54.9431C59.4162 55.0198 59.3566 55.088 59.314 55.1647C59.4333 54.9772 59.4503 55.0028 59.2969 55.1817C59.1521 55.3436 58.9987 55.4969 58.8283 55.6418C58.5813 55.8548 59.0669 55.4969 58.7857 55.6759C58.692 55.7355 58.5983 55.7951 58.5046 55.8548C58.4449 55.8889 58.07 56.0507 58.283 55.9741C58.5046 55.8889 58.266 55.9741 58.2319 55.9826C58.1467 56.0081 58.07 56.0337 57.9848 56.0593C57.9252 56.0763 57.857 56.0848 57.7974 56.1019C57.6781 56.1274 57.5333 56.2297 57.823 56.1019C57.7122 56.1445 57.5162 56.1274 57.4055 56.1274C57.2521 56.1274 57.1073 56.1189 56.9539 56.1104C56.6387 56.0933 57.2351 56.1785 56.9113 56.1019C56.8091 56.0763 56.7068 56.0593 56.6131 56.0422C56.4342 55.9996 56.2638 55.9485 56.0849 55.8889C55.9741 55.8548 55.8633 55.8122 55.7526 55.7696C55.9911 55.8633 55.6077 55.7014 55.5992 55.7014C55.1221 55.4799 54.6705 55.2072 54.2275 54.9346C53.827 54.6875 53.4351 54.4234 53.0431 54.1593C52.8642 54.0315 52.6853 53.8951 52.4979 53.7673C52.1571 53.5203 52.6683 53.9122 52.3445 53.6481C52.2337 53.5543 52.1144 53.4606 52.0037 53.3669C51.3647 52.8301 50.7597 52.2422 50.2229 51.6033C50.1974 51.5777 49.9758 51.288 50.1462 51.5181C50.1036 51.4584 50.061 51.3988 50.0184 51.3476C49.8992 51.1858 49.7884 51.0239 49.6776 50.862C49.4561 50.5212 49.2516 50.1633 49.0727 49.797C48.996 49.6351 48.9193 49.4732 48.8512 49.3113C48.9619 49.5584 48.8597 49.3369 48.8341 49.2687C48.8001 49.1835 48.766 49.0983 48.7404 49.0131C48.6041 48.6382 48.4848 48.2463 48.3826 47.8629C48.2036 47.1983 47.4709 46.7894 46.8064 46.9683C46.1333 47.1557 45.7328 47.8714 45.9117 48.5445C46.3718 50.2741 47.1557 51.8418 48.2718 53.2391C49.4816 54.7472 51.0493 55.957 52.6766 56.9879C54.2869 58.0103 56.0933 58.905 58.0613 58.6408C59.2797 58.4789 60.3958 57.8484 61.1881 56.9027C61.6141 56.3915 62.1509 55.6928 62.2361 55.0112C62.3213 54.3466 62.1168 53.6138 61.9038 52.9919C61.6482 52.2506 61.3245 51.5264 60.9751 50.8193C60.3702 49.6094 59.6886 48.4421 58.9559 47.3004C58.8025 47.0619 58.6576 46.7466 58.4617 46.5507C58.3424 46.4314 58.5724 46.9085 58.5554 46.7807C58.5469 46.7126 58.5128 46.6444 58.4958 46.5762C58.4361 46.3462 58.385 46.1161 58.3339 45.8861C58.0697 44.6166 57.8653 43.3301 57.6608 42.0521C57.5841 41.592 57.5159 41.1234 57.4478 40.6633C57.4307 40.5696 57.4222 40.4758 57.4052 40.3821C57.4989 40.8933 57.3967 40.2969 57.3711 40.1521C57.3285 39.905 57.2774 39.6579 57.2177 39.4193C56.3061 36.1476 53.2388 34.5458 50.2653 33.5064C47.3344 32.4754 44.3437 31.632 41.3702 30.7544C40.1603 30.3965 38.9505 30.0472 37.7491 29.6553C36.9227 29.3826 36.1133 29.1696 35.2442 29.0674C34.2048 28.9481 33.1569 28.9992 32.1258 29.127C31.2738 29.2293 30.4302 29.3911 29.5868 29.5445C29.476 29.5615 29.2545 29.5615 29.1607 29.6212C29.2374 29.6127 29.3056 29.6041 29.3823 29.5956C29.2715 29.6127 29.1522 29.6297 29.0415 29.6382C29.0244 29.6382 29.0074 29.6467 28.9818 29.6467C28.8625 29.6723 28.7347 29.7149 28.624 29.7575C27.6101 30.1068 26.6217 30.5584 25.6334 30.9929C23.4267 31.9642 21.2456 32.9867 19.0558 33.992C18.928 34.0517 18.7917 34.1113 18.6554 34.1709C18.4935 34.2476 18.2379 34.3499 18.7236 34.1454C18.0845 34.4095 17.633 34.9974 17.8289 35.7216C18.0419 36.2924 18.8002 36.8463 19.4478 36.5821L19.4483 36.5823Z" fill="white"/>
<path d="M48.6121 69.7516C48.6632 69.8368 48.7229 69.9134 48.774 69.9986C48.9103 70.2287 48.8336 70.1264 48.8166 70.0753C48.8081 70.0498 48.9189 70.4587 48.8848 70.2883C48.8592 70.152 48.8933 70.4076 48.8933 70.4417C48.8933 70.5269 48.8933 70.6121 48.8848 70.6973C48.8677 70.9103 48.9274 70.5354 48.8677 70.7484C48.8166 70.9358 48.7399 71.2085 48.6888 71.3278C48.561 71.6345 48.3054 72.069 48.1009 72.4013C47.9816 72.5888 47.8624 72.7762 47.7431 72.9637C47.692 73.0489 47.6323 73.1255 47.5812 73.2107C47.3767 73.5089 47.7175 73.0829 47.4789 73.3385C47.3682 73.4493 47.2659 73.5686 47.1552 73.6793C47.0955 73.739 46.7803 73.9861 46.9763 73.8412C46.7036 74.0372 46.4225 74.1906 46.1242 74.3354C46.3713 74.2161 46.0135 74.3695 45.9368 74.395C45.792 74.4462 45.6386 74.4888 45.4852 74.5229C45.3489 74.5569 45.2126 74.574 45.0848 74.5995C44.9059 74.6421 45.3063 74.5995 45.1274 74.591C45.0337 74.591 44.9314 74.6081 44.8292 74.6166C44.5565 74.6336 44.2839 74.6251 44.0198 74.6081C43.9601 74.5995 43.9005 74.591 43.8409 74.591C43.8749 74.591 44.1391 74.6421 43.9175 74.5995C43.7812 74.574 43.6364 74.5484 43.5 74.5143C43.0826 74.4121 42.6906 74.2417 42.2731 74.1394C40.961 73.7901 39.5978 73.5516 38.2431 73.4408C37.6637 73.3897 37.0844 73.4152 36.5051 73.4238C36.1983 73.4238 35.8916 73.4238 35.5849 73.4067C35.1078 73.3812 34.98 73.3641 34.5539 73.2874C33.7701 73.1426 33.0033 72.9125 32.2023 72.9211C31.1288 72.9381 30.0637 73.0829 28.9903 73.1596C27.9934 73.2278 27.0051 73.2533 26.0081 73.2448C25.3095 73.2363 24.6023 73.2193 23.9036 73.1767C23.5543 73.1511 23.205 73.1255 22.8556 73.0915C22.6767 73.0744 22.4893 73.0574 22.3104 73.0318C22.2422 73.0233 22.1655 73.0148 22.0973 73.0063C22.4126 73.0489 22.0547 72.9977 22.0121 72.9892C21.3902 72.8955 20.7682 72.7677 20.1633 72.5888C20.0185 72.5462 19.8821 72.495 19.7373 72.4439C19.6862 72.4269 19.6265 72.4013 19.5754 72.3843C19.3028 72.282 19.8225 72.5121 19.5754 72.3843C19.3539 72.265 19.1323 72.1542 18.9193 72.0094C18.357 71.609 17.4965 71.9072 17.1727 72.4695C16.7978 73.1085 17.0705 73.8157 17.6328 74.2161C18.5785 74.8892 19.797 75.1874 20.9131 75.3919C22.2763 75.6305 23.6651 75.7498 25.0453 75.7838C26.2126 75.8179 27.3798 75.8094 28.5386 75.7412C29.6803 75.6816 30.8136 75.5368 31.9552 75.4856C32.1001 75.4771 32.2449 75.4771 32.3898 75.4771C32.4579 75.4771 32.5176 75.4856 32.5857 75.4856C32.9265 75.5027 32.4153 75.4516 32.5176 75.4686C32.918 75.5538 33.3185 75.639 33.7189 75.7157C34.5624 75.8776 35.423 75.9798 36.2835 75.9798C36.9055 75.9798 37.5189 75.9372 38.1323 75.9883C38.2942 76.0054 38.4561 76.0139 38.6265 76.0394C38.7032 76.048 38.7799 76.0565 38.8566 76.065C38.6095 76.0394 38.814 76.0565 38.8651 76.065C39.257 76.1246 39.6489 76.1843 40.0324 76.261C40.6458 76.3802 41.2507 76.508 41.8471 76.6785C42.2816 76.8063 42.6991 76.9767 43.1507 77.0619C43.8067 77.1811 44.4713 77.2323 45.1358 77.1641C46.9677 76.9767 48.5864 76.1502 49.6942 74.6592C50.9892 72.9125 52.2162 70.527 50.8444 68.4821C50.461 67.9113 49.7197 67.6642 49.0977 68.022C48.5013 68.3288 48.2287 69.1723 48.6121 69.7517L48.6121 69.7516Z" fill="white"/>
<path d="M52.8296 37.299C53.9798 37.5972 55.1301 37.9294 56.2717 38.2703C57.3708 38.6025 58.4443 38.9604 59.569 39.1819C62.2358 39.7187 64.9367 40.1021 67.6121 40.5877C68.7964 40.8007 69.9807 41.0223 71.1479 41.3205C72.5196 41.6783 73.8658 42.181 75.1865 42.6837C76.5241 43.1864 77.8533 43.7146 79.1824 44.2344C79.668 44.4218 80.1366 44.6178 80.6393 44.7371C82.3093 45.1205 83.9707 45.5635 85.5811 46.1855C85.7003 46.2281 85.8111 46.2792 85.9304 46.3218C85.9985 46.3474 86.0582 46.3729 86.1263 46.3985C86.2968 46.4667 85.8281 46.2707 86.0923 46.3815C86.3479 46.4922 86.595 46.603 86.8506 46.7308C87.3277 46.9693 87.7963 47.225 88.2479 47.5232C88.3416 47.5828 88.4353 47.651 88.529 47.7191C88.5631 47.7447 88.6654 47.7958 88.6824 47.8299C88.6824 47.8299 88.4353 47.6254 88.5972 47.7702C88.7761 47.9236 88.9551 48.077 89.1255 48.2474C89.2021 48.3326 89.2788 48.4178 89.3555 48.4945C89.577 48.7415 89.2192 48.2729 89.3981 48.5456C89.4748 48.6649 89.6026 49.0142 89.7048 49.0909C89.5685 48.9971 89.6026 48.8182 89.6452 48.9545C89.6622 49.0142 89.6878 49.0738 89.7048 49.125C89.7304 49.2016 89.7389 49.2868 89.7645 49.3635C89.8326 49.5936 89.756 49.0312 89.756 49.2698C89.756 49.3124 89.7645 49.355 89.7645 49.3891C89.773 49.4998 89.7389 49.6276 89.756 49.7384C89.773 49.8918 89.8326 49.3976 89.773 49.6276C89.756 49.6873 89.7474 49.7554 89.7304 49.8236C89.6878 50.0281 89.6367 50.224 89.5685 50.42C89.5429 50.4882 89.5174 50.5648 89.4918 50.633C89.3811 50.9653 89.6111 50.4285 89.4577 50.7182C89.3811 50.8631 89.3129 51.0079 89.2192 51.1442C89.2107 51.1613 89.0317 51.3998 89.1595 51.2379C89.2873 51.0761 89.1084 51.2891 89.0914 51.3061C89.0062 51.3998 88.9039 51.468 88.8187 51.5617C88.7165 51.681 89.0829 51.4169 88.8528 51.5276C88.8102 51.5532 88.7676 51.5873 88.7165 51.6128C88.6483 51.6554 88.5802 51.681 88.512 51.7236C88.3161 51.8429 88.7761 51.6554 88.5291 51.7151C88.4183 51.7406 88.3075 51.7832 88.1968 51.8088C88.1371 51.8258 88.069 51.8344 88.0093 51.8514C87.8304 51.894 88.086 51.8684 88.1116 51.8429C87.9923 51.9536 87.4555 51.877 87.3022 51.8684C87.1658 51.8599 87.021 51.8514 86.8847 51.8429C86.8165 51.8344 86.7484 51.8258 86.6717 51.8173C86.4842 51.8003 87.004 51.877 86.7143 51.8258C86.4331 51.7747 86.1604 51.7321 85.8793 51.6725C85.3681 51.5702 84.8569 51.4424 84.3371 51.3402C82.5735 50.9909 80.8097 50.6415 79.0461 50.2666C76.8905 49.8151 74.7263 49.4828 72.5537 49.142C70.0233 48.7501 67.4928 48.3752 64.9538 48.0429C64.6385 48.0003 64.3062 47.9236 63.9825 47.9236C63.3179 47.9236 62.6704 48.5115 62.7044 49.2016C62.7385 49.8917 63.2668 50.4796 63.9825 50.4796C64.3318 50.4796 64.7067 50.5648 65.0475 50.6074C65.1497 50.6245 65.2605 50.633 65.3627 50.65C65.6354 50.6841 65.039 50.6074 65.3201 50.6415C65.3712 50.65 65.4224 50.6586 65.4735 50.6586C65.7802 50.7012 66.0869 50.7438 66.3937 50.7864C67.7058 50.9738 69.0179 51.1612 70.3215 51.3572C72.5964 51.698 74.8798 52.0218 77.1376 52.4648C78.7735 52.7801 80.3924 53.155 82.0197 53.4787C83.3233 53.7343 84.6353 54.0581 85.9475 54.2626C87.2766 54.4756 88.6228 54.5182 89.8583 53.8877C91.2215 53.1891 92.0139 51.6299 92.2355 50.1645C92.6018 47.7107 90.7615 45.947 88.7848 44.8479C86.8763 43.7829 84.7377 43.1012 82.6248 42.5645C82.088 42.4282 81.5512 42.326 81.0145 42.1811C80.2221 41.9681 79.4468 41.5932 78.6884 41.295C76.0557 40.2555 73.3974 39.1564 70.6198 38.56C67.8337 37.9636 65.005 37.5631 62.2019 37.069C61.1028 36.873 59.9952 36.6941 58.9216 36.4044C57.4647 36.021 56.0419 35.5098 54.5848 35.1093C54.227 35.0071 53.8691 34.9134 53.5028 34.8196C52.8553 34.6492 52.0884 35.0326 51.9266 35.7143C51.7903 36.3959 52.1396 37.1116 52.8297 37.299L52.8296 37.299Z" fill="white"/>
<path d="M57.3711 48.4338C57.4308 48.4423 57.4989 48.4423 57.5586 48.4508C57.6353 48.4593 57.7034 48.4678 57.7801 48.4764C57.9505 48.4934 57.3882 48.4167 57.6012 48.4508C57.6608 48.4593 57.7205 48.4678 57.7801 48.4764C58.385 48.5701 58.9815 48.6894 59.5779 48.8342C60.3702 49.0302 61.1455 49.2773 61.9039 49.5755C61.955 49.5925 62.0062 49.6181 62.0573 49.6351C62.0317 49.6266 61.7761 49.5073 61.9806 49.601C62.0658 49.6436 62.1595 49.6777 62.2447 49.7203C62.4577 49.8226 62.6707 49.9248 62.8752 50.0356C63.2671 50.2486 63.642 50.4871 63.9999 50.7427C64.0425 50.7768 64.0851 50.8109 64.1362 50.845C64.1106 50.8279 63.9062 50.6575 64.0766 50.8024C64.1447 50.862 64.2214 50.9217 64.2981 50.9898C64.477 51.1432 64.6389 51.3051 64.8008 51.4755C64.8775 51.5522 64.9456 51.6374 65.0138 51.7225C65.0394 51.7566 65.0649 51.7907 65.0905 51.8163C65.2012 51.9356 64.9542 51.6118 65.0394 51.7566C65.1586 51.9611 65.3035 52.14 65.4142 52.3445C65.4654 52.4382 65.5165 52.5405 65.5676 52.6427C65.5846 52.6768 65.6017 52.7194 65.6187 52.7535C65.6954 52.8983 65.5506 52.5149 65.5846 52.6853C65.6443 52.9239 65.7465 53.1454 65.7976 53.384C65.9255 53.9208 65.951 54.449 65.9595 55.1051C65.9595 55.4033 65.951 55.71 65.9169 56.0082C65.9169 56.0508 65.8829 56.2894 65.9084 56.119C65.934 55.9571 65.8999 56.1786 65.8914 56.2212C65.8658 56.3746 65.8317 56.5365 65.7977 56.6898C65.738 56.9284 65.6443 57.1584 65.5761 57.397C65.525 57.5674 65.6784 57.1925 65.5932 57.3544C65.5676 57.4055 65.542 57.4652 65.5165 57.5248C65.4568 57.6441 65.3972 57.7634 65.3205 57.8827C65.2694 57.9679 65.2098 58.0531 65.1586 58.1383C65.1246 58.1894 65.0905 58.232 65.0564 58.2831C64.9627 58.4194 65.2183 58.1127 65.099 58.2235C64.9201 58.3768 64.7838 58.5728 64.6048 58.7347C64.5622 58.7773 64.3237 58.9562 64.477 58.8454C64.6474 58.7262 64.3407 58.9306 64.3066 58.9562C64.1106 59.084 63.8976 59.1777 63.7017 59.2885C63.5057 59.3993 63.9573 59.1948 63.6676 59.3055C63.5654 59.3396 63.4631 59.3822 63.3524 59.4163C63.1308 59.493 62.9008 59.5441 62.6622 59.5952C62.5685 59.6123 62.4663 59.6293 62.3725 59.6463C62.0488 59.706 62.6196 59.6293 62.2873 59.6549C62.0403 59.6719 61.8017 59.6889 61.5546 59.6975C60.7878 59.706 60.021 59.6208 59.2541 59.5356C59.1348 59.5185 59.024 59.51 58.9048 59.493C58.8622 59.4844 58.4702 59.4333 58.6662 59.4589C58.8536 59.4844 58.5299 59.4418 58.4617 59.4333C58.3169 59.4163 58.172 59.3907 58.0272 59.3737C57.4904 59.297 56.9451 59.2033 56.4083 59.1096C55.2496 58.9136 54.0994 58.6921 52.9491 58.4535C50.8532 58.019 48.7572 57.5418 46.7294 56.8687C46.363 56.7495 46.0052 56.6131 45.6559 56.4768C45.3917 56.3746 45.8859 56.5876 45.707 56.5024C45.6388 56.4683 45.5707 56.4427 45.5025 56.4087C45.1873 56.2638 44.8635 56.119 44.5482 55.9826C43.3128 55.4629 42.0433 55.0199 40.7909 54.5342C40.5097 54.4234 40.2285 54.3127 39.9474 54.1934C40.1774 54.2871 39.7599 54.1082 39.7088 54.0912C39.5554 54.023 39.4021 53.9548 39.2487 53.8782C38.7716 53.6481 38.32 53.3925 37.8855 53.1028C37.6981 52.9835 37.9025 53.1199 37.9281 53.1454C37.8855 53.1113 37.8429 53.0773 37.8003 53.0347C37.7236 52.958 37.6469 52.8898 37.5702 52.8131C37.5532 52.7961 37.468 52.7024 37.468 52.7024C37.4765 52.6853 37.6469 52.9835 37.5362 52.7876C37.485 52.7024 37.4339 52.6086 37.3828 52.5234C37.3572 52.4808 37.3402 52.4297 37.3146 52.3786C37.4595 52.6342 37.3743 52.5405 37.3487 52.4553C37.3232 52.3445 37.2806 52.2423 37.2465 52.1315C37.2209 52.0208 37.1954 51.91 37.1783 51.7907C37.1613 51.7055 37.1868 51.5777 37.1868 51.8674C37.1868 51.8077 37.1783 51.7481 37.1698 51.6885C37.1528 51.4414 37.1698 51.2028 37.1783 50.9557C37.1783 50.8876 37.2209 50.7172 37.1698 51.0154C37.1783 50.9557 37.1868 50.8876 37.2039 50.8279C37.2294 50.7087 37.255 50.5809 37.2891 50.4616C37.3232 50.3423 37.3572 50.223 37.3998 50.1037C37.4169 50.0441 37.4424 49.9844 37.468 49.9248C37.451 49.9674 37.3487 50.1719 37.451 49.9674C37.5702 49.7459 37.698 49.5329 37.8429 49.3199C37.664 49.5755 37.8855 49.2858 37.9451 49.2176C38.0303 49.1239 38.124 49.0472 38.2263 48.962C38.0218 49.1495 38.2689 48.9365 38.3541 48.8854C38.4649 48.8172 38.5841 48.7576 38.7034 48.7064C38.4393 48.8342 38.7886 48.6894 38.8738 48.6638C39.0187 48.6212 39.172 48.5957 39.3169 48.5701C39.0698 48.6127 39.5725 48.5531 39.6236 48.5446C39.8111 48.536 40.007 48.5275 40.1945 48.5275C40.9869 48.5275 41.7878 48.6809 42.5716 48.6809C43.2362 48.6809 43.8837 48.093 43.8497 47.4029C43.8156 46.7127 43.2873 46.1248 42.5716 46.1248C42.1712 46.1248 41.7537 46.0396 41.3533 46.0056C40.9187 45.98 40.4842 45.9544 40.0497 45.9629C39.2317 45.98 38.4138 46.0652 37.6555 46.389C36.3434 46.9343 35.4658 48.0248 34.9716 49.3284C34.5541 50.4275 34.4945 51.7481 34.8097 52.8814C35.1505 54.0997 35.977 54.9432 37.042 55.5823C38.2178 56.2894 39.5383 56.7751 40.8249 57.2607C41.498 57.5163 42.1796 57.7634 42.8528 58.0275C42.9976 58.0871 43.151 58.1468 43.2958 58.2064C43.3725 58.232 43.7474 58.3938 43.5259 58.3001C43.7985 58.4194 44.0541 58.5387 44.3268 58.658C46.2012 59.51 48.246 59.9956 50.2397 60.4643C52.6424 61.0266 55.0707 61.4952 57.5159 61.8531C59.5097 62.1428 61.597 62.4921 63.5908 62.0064C65.8742 61.4526 67.6379 59.757 68.2343 57.4737C68.9074 54.9261 68.5325 51.9782 66.82 49.9334C65.5164 48.3658 63.5568 47.4199 61.6567 46.7894C60.3361 46.3549 58.9728 46.0737 57.5926 45.9203C57.5244 45.9118 57.4563 45.9033 57.3796 45.8948C56.715 45.8351 56.076 46.5253 56.1015 47.1728C56.1271 47.897 56.6639 48.3741 57.371 48.4338L57.3711 48.4338Z" fill="white"/>
<path d="M46.8235 49.4309H46.832C47.0024 49.482 47.1728 49.4905 47.3432 49.4564C47.5136 49.4479 47.6755 49.3968 47.8203 49.3031C47.9652 49.2264 48.093 49.1156 48.1782 48.9708C48.289 48.8515 48.3656 48.7067 48.4082 48.5363C48.4253 48.4255 48.4423 48.3062 48.4508 48.1955C48.4508 47.9654 48.3912 47.7524 48.2804 47.5479C48.2123 47.4627 48.1441 47.3775 48.0845 47.2923C47.9226 47.1304 47.7351 47.0282 47.5221 46.96H47.5136C47.3432 46.9089 47.1728 46.9004 47.0024 46.9345C46.832 46.943 46.6701 46.9941 46.5253 47.0878C46.3804 47.1645 46.2526 47.2753 46.1674 47.4201C46.0567 47.5394 45.98 47.6843 45.9374 47.8547C45.9203 47.9654 45.9033 48.0847 45.8948 48.1955C45.8948 48.4255 45.9544 48.6385 46.0652 48.843C46.1333 48.9282 46.2015 49.0134 46.2612 49.0986C46.4145 49.2605 46.6105 49.3712 46.8235 49.4309V49.4309Z" fill="white"/>
<path d="M37.0333 52.243C34.6306 50.9394 31.1545 49.4314 28.5899 51.195C27.8742 51.6892 27.2267 52.2601 26.7836 53.0269C26.4598 53.5892 26.315 54.1857 26.2298 54.8247C26.2042 55.0291 26.1531 55.2421 26.1616 55.4552C26.1616 55.583 26.1957 55.7193 26.2127 55.8556C26.2383 56.0516 26.1957 55.5659 26.1872 55.6426C26.119 56.1027 26.2724 56.6906 26.4257 57.1251C26.6046 57.6363 26.8517 58.122 27.1755 58.5565C27.8571 59.4852 28.7347 60.2093 29.689 60.8484C31.1715 61.8282 32.833 62.544 34.3922 63.4044C35.568 64.052 36.7438 64.691 37.9621 65.2533C38.6437 65.5685 39.3424 65.8753 40.0495 66.1309C40.2114 66.1905 40.3818 66.2501 40.5437 66.3098C40.6033 66.3353 40.6629 66.3524 40.7141 66.3779C40.7482 66.395 40.7908 66.412 40.8248 66.4205C41.0208 66.4972 40.5778 66.3098 40.7141 66.3694C41.7876 66.8636 42.8186 67.4429 43.875 67.9797C44.7356 68.4143 45.6047 68.8232 46.4907 69.2066C47.8369 69.7945 49.2086 70.425 50.6229 70.8339C52.6252 71.4218 54.9511 71.473 56.7405 70.2546C58.1463 69.3003 59.0069 67.886 59.6288 66.3353C59.9611 65.5003 60.2167 64.6398 60.2848 63.7452C60.37 62.5694 60.0548 61.368 59.5266 60.3201C59.4413 60.1583 59.3561 59.9964 59.2539 59.8515C58.8535 59.2892 58.1378 59.0251 57.5073 59.3915C56.9535 59.7152 56.6467 60.5758 57.0472 61.1381C57.1409 61.2659 57.2176 61.4022 57.2943 61.5471C57.3369 61.6237 57.3709 61.7004 57.405 61.7686C57.4732 61.9049 57.4732 61.956 57.4135 61.7771C57.4817 61.9986 57.5754 62.2116 57.6351 62.4417C57.6606 62.5524 57.6862 62.6632 57.7118 62.7654C57.7288 62.8421 57.7373 62.9188 57.7544 62.9955C57.7544 62.9699 57.7373 62.8081 57.7458 62.9614C57.7629 63.2682 57.7714 63.5663 57.7373 63.8731C57.7203 64.0264 57.7288 63.9072 57.7373 63.8816C57.7203 63.9753 57.7032 64.069 57.6777 64.1628C57.6521 64.2735 57.618 64.3928 57.5839 64.5036C57.5413 64.6314 57.5073 64.7592 57.4647 64.887C57.3795 65.1596 57.2772 65.4237 57.175 65.6879C57.1579 65.739 57.0472 65.9435 57.1494 65.7475C57.2602 65.5345 57.1239 65.7901 57.1068 65.8412C57.0387 65.9861 56.9705 66.1309 56.8938 66.2758C56.749 66.5655 56.5786 66.8381 56.3996 67.1022C56.357 67.1619 56.3144 67.2215 56.2718 67.2811C56.1866 67.4175 56.4422 67.0767 56.34 67.1959C56.3144 67.2215 56.2974 67.2556 56.2718 67.2811C56.1611 67.4089 56.0418 67.5453 55.9225 67.6645C55.8032 67.7753 55.6754 67.8775 55.5647 67.9883C55.5135 68.0394 55.7862 67.8349 55.5817 67.9713C55.4965 68.0309 55.4113 68.0905 55.3261 68.1417C55.1812 68.2354 55.0279 68.3036 54.8745 68.3888C54.6786 68.508 55.1046 68.3121 54.8831 68.3888C54.7808 68.4228 54.6786 68.4654 54.5678 68.4995C54.3889 68.5592 54.2014 68.5932 54.0225 68.6358C53.9799 68.6444 53.9373 68.6529 53.8862 68.6614C53.8947 68.6614 54.1418 68.6444 53.997 68.6444C53.8692 68.6529 53.7414 68.6699 53.6221 68.6784C53.4006 68.687 53.1875 68.687 52.966 68.6784C52.8553 68.6699 52.753 68.6614 52.6423 68.6529C52.5911 68.6529 52.3952 68.6188 52.6508 68.6614C52.5741 68.6529 52.4974 68.6358 52.4207 68.6273C51.1597 68.4143 49.9839 67.9031 48.8081 67.4175C48.6803 67.3663 48.544 67.3067 48.4162 67.2556C48.4247 67.2556 48.2117 67.1704 48.3139 67.213C48.4332 67.2641 48.1861 67.1533 48.1606 67.1448C47.8965 67.034 47.6323 66.9148 47.3682 66.804C46.9337 66.6166 46.5077 66.4121 46.0817 66.2161C44.974 65.6879 43.9175 65.0744 42.8185 64.5291C42.2647 64.2565 41.7023 64.0094 41.1229 63.7964C40.0494 63.396 39.1974 63.0296 38.1153 62.4758C36.3856 61.5982 34.6986 60.6269 32.9606 59.7493C32.2108 59.3744 31.4695 58.9655 30.7794 58.4883C30.6857 58.4202 30.5834 58.352 30.4897 58.2838C30.4045 58.2242 30.2597 58.0964 30.4216 58.2327C30.2426 58.0794 30.0552 57.9345 29.8848 57.7726C29.7314 57.6278 29.5781 57.4659 29.4332 57.304C29.3651 57.2274 29.2117 57.0143 29.3565 57.2188C29.2884 57.1251 29.2287 57.0314 29.1606 56.9377C29.0498 56.7587 28.9561 56.5798 28.8624 56.3924C28.9731 56.6224 28.8794 56.4094 28.8453 56.2987C28.8112 56.1964 28.7942 56.0856 28.7601 55.9749C28.7431 55.8982 28.7431 55.7448 28.7601 56.0345C28.7601 55.9834 28.7516 55.9408 28.7516 55.8897C28.7516 55.813 28.7431 55.7448 28.7431 55.6682C28.7346 55.5489 28.6494 54.9525 28.7005 55.3188C28.7601 55.7363 28.726 55.2166 28.7346 55.2251C28.7431 55.2336 28.6834 55.5148 28.7175 55.3614C28.7346 55.2847 28.7431 55.2081 28.7516 55.1314C28.7772 54.978 28.8027 54.8332 28.8368 54.6798C28.8538 54.6031 28.8794 54.535 28.905 54.4583C28.8964 54.4753 28.8198 54.6372 28.8879 54.5009C28.939 54.3986 28.9902 54.3049 29.0498 54.2112C29.1009 54.126 29.2884 53.896 29.118 54.0919C29.1861 54.0067 29.2628 53.9215 29.3395 53.8448C29.4588 53.7256 29.5866 53.6148 29.7144 53.504C29.8763 53.3592 29.4503 53.683 29.6377 53.5637C29.6633 53.5466 29.6888 53.5296 29.7144 53.504C29.8678 53.3933 30.0211 53.291 30.183 53.1973C30.2341 53.1717 30.2852 53.1462 30.3449 53.1206C30.2938 53.1462 30.1404 53.1888 30.3704 53.1206C30.5068 53.078 30.6346 53.0354 30.7709 53.0099C30.8305 53.0013 30.8902 52.9843 30.9498 52.9758C30.7283 53.0184 30.9328 52.9758 30.9754 52.9758C31.1032 52.9673 31.2224 52.9587 31.3502 52.9587C31.5036 52.9587 31.6485 52.9673 31.8018 52.9843C31.87 52.9928 31.9296 52.9928 31.9978 53.0013C31.8529 52.9843 31.9978 53.0013 32.0574 53.0184C32.7049 53.1462 33.3269 53.3336 33.9404 53.5722C34.5112 53.7937 35.1502 54.126 35.7296 54.4412C36.3345 54.7735 37.1183 54.5946 37.4762 53.9812C37.8341 53.4103 37.6466 52.5753 37.0331 52.2431L37.0333 52.243Z" fill="white"/>
<path d="M43.5941 74.6856C42.4609 73.8081 41.3191 72.9476 40.1519 72.1211C38.9335 71.252 37.647 70.4852 36.4371 69.599C36.1303 69.369 35.8236 69.1389 35.5169 68.9089C35.3124 68.7555 35.5424 68.9344 35.4828 68.8833C35.4061 68.8237 35.338 68.764 35.2613 68.7129C35.0824 68.5766 34.9034 68.4317 34.7245 68.2869C34.0173 67.7245 33.3272 67.1367 32.6455 66.5402C31.9895 65.9609 31.342 65.3559 30.72 64.7255C30.4389 64.4358 30.1662 64.1461 29.9021 63.8479C29.7999 63.7287 29.6891 63.6009 29.5869 63.4731C29.408 63.2515 29.5954 63.4901 29.5783 63.4645C29.5272 63.3964 29.4761 63.3282 29.4335 63.2601C29.3398 63.1237 29.2461 62.9874 29.1694 62.8511C29.1353 62.8 29.016 62.4847 28.9734 62.4762C29.0416 62.4932 29.0842 62.817 29.0245 62.5784C29.0075 62.5188 28.999 62.4677 28.9819 62.408C28.9564 62.3228 28.999 62.5444 28.999 62.5358C28.9905 62.4336 28.9819 62.3399 28.9734 62.2376C28.9649 62.0502 28.9564 61.8627 28.9649 61.6668C28.9649 61.5986 28.9734 61.5304 28.9734 61.4623C28.9734 61.4367 28.999 61.1896 28.9819 61.3089C28.9649 61.4452 28.9905 61.2408 28.999 61.2322C29.016 61.1556 29.0331 61.0789 29.0501 61.0022C29.0842 60.8573 29.1353 60.7125 29.1779 60.5762C29.1864 60.5506 29.2546 60.3887 29.1949 60.5336C29.1268 60.6784 29.2205 60.4825 29.2375 60.4569C29.2972 60.3547 29.3909 60.2439 29.4335 60.1331C29.4761 60.0139 29.3824 60.1928 29.3653 60.2098C29.3994 60.1672 29.442 60.1246 29.4761 60.082C29.5102 60.0479 29.6636 59.852 29.7062 59.8605C29.7317 59.869 29.4676 60.0053 29.5954 59.9457C29.6465 59.9286 29.6976 59.8775 29.7488 59.852C30.3452 59.5112 30.5497 58.6932 30.2088 58.1053C29.8595 57.5004 29.0586 57.3044 28.4622 57.6452C27.5165 58.182 26.8946 59.1789 26.6219 60.2098C26.3237 61.326 26.2896 62.6466 26.7668 63.7117C27.3802 65.0919 28.6156 66.2421 29.6892 67.2646C31.1036 68.6108 32.6201 69.8548 34.1623 71.0391C35.3211 71.9338 36.5395 72.7006 37.7492 73.5185C38.712 74.1745 39.6578 74.8647 40.595 75.5633C40.9358 75.8189 41.2766 76.0745 41.6089 76.3302C41.7708 76.4494 42.3076 76.8669 41.7964 76.475C42.3417 76.901 43.0744 77.0032 43.6027 76.475C44.0372 76.0575 44.148 75.1118 43.5942 74.6858L43.5941 74.6856Z" fill="white"/>
<path d="M47.5138 46.9693C46.4061 46.7307 45.2729 46.5688 44.1568 46.3729C43.7904 46.3132 43.4326 46.2451 43.0662 46.1854C42.9554 46.1684 42.8532 46.1514 42.7424 46.1343C42.5124 46.1088 42.5124 46.1002 42.7424 46.1258C42.5465 46.1428 42.2909 46.0491 42.0949 46.015C41.4729 45.9128 40.851 45.802 40.2289 45.7083C39.1384 45.5379 38.4312 45.2652 37.545 44.6262C37.7836 44.7967 37.528 44.6092 37.4769 44.5666C37.3661 44.4729 37.2553 44.3792 37.1531 44.2769C36.9657 44.0895 36.7782 43.8935 36.6163 43.689C36.7697 43.885 36.5396 43.5697 36.5311 43.5612C36.4374 43.4249 36.3522 43.2801 36.2755 43.1352C36.2159 43.0244 36.1562 42.9052 36.1051 42.7859C36.1818 42.9478 36.0029 42.5132 35.9858 42.4621C35.7643 41.8061 35.1083 41.3801 34.4096 41.5675C33.7706 41.7464 33.2935 42.4792 33.515 43.1437C34.3329 45.572 36.4971 47.6254 39.0617 48.0939C39.6837 48.2046 40.3142 48.2898 40.9447 48.3921C41.3707 48.4602 41.7967 48.5454 42.2227 48.6136C42.3335 48.6306 42.4527 48.6477 42.5635 48.6562C42.3249 48.6306 42.3164 48.6306 42.5379 48.6647C42.7424 48.7073 42.9554 48.7329 43.1599 48.7755C44.3783 48.9885 45.6137 49.1674 46.8321 49.4315C47.4881 49.5678 48.2464 49.2356 48.4083 48.5369C48.5531 47.8979 48.2123 47.1226 47.5136 46.9693L47.5138 46.9693Z" fill="white"/>
<path d="M85.2059 72.8535C85.2059 73.0154 85.1974 73.1687 85.1889 73.3306C85.1889 73.3902 85.1292 73.8418 85.1718 73.5777C85.1207 73.9185 85.044 74.2593 84.9418 74.5916C84.8992 74.7364 84.8395 74.8813 84.7969 75.0176C84.7202 75.2476 84.7799 75.0772 84.7969 75.0261C84.7714 75.0943 84.7373 75.1624 84.7032 75.2306C84.5583 75.5373 84.3965 75.827 84.209 76.1082C84.1238 76.236 84.0386 76.3552 83.9534 76.4745C84.1068 76.2701 83.8427 76.6023 83.8001 76.645C83.5785 76.892 83.34 77.1306 83.0843 77.3436C83.0247 77.3947 82.9736 77.4373 82.9139 77.4885C82.9565 77.4544 83.1099 77.3521 82.9054 77.4885C82.7861 77.5737 82.6583 77.6589 82.539 77.7355C82.2664 77.9059 81.9938 78.0593 81.7041 78.1871C81.67 78.2041 81.457 78.2893 81.6018 78.2382C81.7722 78.1701 81.4314 78.2979 81.4399 78.2979C81.2951 78.349 81.1502 78.3916 81.0054 78.4342C80.8606 78.4768 80.7072 78.5109 80.5623 78.5449C80.4857 78.562 80.409 78.579 80.3323 78.5875C80.2982 78.5961 79.9915 78.6387 80.1534 78.6216C80.3153 78.6046 80.0682 78.6301 80.0341 78.6301C79.9574 78.6387 79.8807 78.6472 79.7955 78.6472C79.6336 78.6557 79.4803 78.6642 79.3184 78.6557C79.1565 78.6557 79.0032 78.6472 78.8413 78.6387C78.7646 78.6301 78.6879 78.6216 78.6027 78.6131C78.509 78.6046 78.526 78.6046 78.6538 78.6216C78.5942 78.6131 78.5431 78.6046 78.4834 78.5961C78.1852 78.5449 77.887 78.4683 77.5888 78.3831C77.444 78.3405 77.2991 78.2808 77.1628 78.2297C76.9754 78.1615 77.3332 78.3064 77.1543 78.2297C77.0691 78.1956 76.9839 78.153 76.8987 78.1104C76.6346 77.9826 76.3704 77.8292 76.1233 77.6674C76.0637 77.6248 75.9955 77.5822 75.9359 77.5396C75.9444 77.5481 75.6547 77.3265 75.7996 77.4373C75.9189 77.531 75.7399 77.3862 75.7144 77.3606C75.6462 77.301 75.5695 77.2413 75.5014 77.1817C75.2798 76.9857 75.0754 76.7727 74.8794 76.5427C74.8283 76.4831 74.7857 76.4319 74.7345 76.3723C74.8794 76.5512 74.7601 76.4064 74.7345 76.3638C74.6323 76.2104 74.5215 76.057 74.4278 75.9037C74.2745 75.6481 74.1381 75.384 74.0103 75.1113C73.9081 74.8898 73.9933 75.0602 74.0103 75.1028C73.9848 75.0346 73.9592 74.9579 73.9336 74.8898C73.8655 74.7109 73.8144 74.5319 73.7632 74.3445C73.7206 74.1996 73.6865 74.0463 73.661 73.8929C73.6439 73.8077 73.5843 73.3988 73.6184 73.6544C73.5843 73.3221 73.5673 72.9898 73.5758 72.6575C73.5758 72.4956 73.5843 72.3252 73.6013 72.1633C73.6099 72.0781 73.661 71.6692 73.6184 71.9589C73.6695 71.6521 73.7291 71.3454 73.8058 71.0387C73.874 70.749 73.9592 70.4678 74.0614 70.1867C74.1125 70.0503 74.1637 69.9055 74.2148 69.7692L74.317 69.5136C74.2489 69.684 74.3 69.5562 74.3426 69.4625C74.5982 68.9001 74.8794 68.3633 75.1946 67.8351C75.5099 67.3069 75.8592 66.7872 76.2256 66.293C76.3108 66.1822 76.396 66.063 76.4812 65.9522C76.3108 66.1737 76.5493 65.8585 76.6004 65.7988C76.7879 65.5603 76.9838 65.3302 77.1798 65.1002C78.1256 64.0011 79.165 62.936 80.3067 62.0328H78.5004C79.3268 62.6889 80.0937 63.4387 80.8093 64.197C81.1586 64.5634 81.4909 64.9383 81.8147 65.3217C81.9765 65.5177 82.1384 65.7136 82.3003 65.9096C82.4963 66.1567 82.2577 65.8414 82.3855 66.0203C82.4792 66.1481 82.5729 66.2759 82.6667 66.4037C83.3483 67.341 83.9532 68.3378 84.4303 69.3943C84.4644 69.4624 84.4899 69.5306 84.524 69.5988C84.4218 69.3602 84.524 69.6073 84.5411 69.6584C84.6007 69.8118 84.6603 69.9736 84.7115 70.127C84.8222 70.4422 84.916 70.7575 84.9926 71.0813C85.0267 71.2261 85.0608 71.3709 85.0864 71.5158C85.1034 71.584 85.1119 71.6606 85.129 71.7373C85.129 71.7373 85.1801 72.0696 85.1545 71.8907C85.129 71.7203 85.163 71.9588 85.163 71.9929C85.1716 72.0867 85.1801 72.1718 85.1886 72.2656C85.1971 72.4786 85.2056 72.666 85.2056 72.8535C85.2142 73.518 85.7935 74.1656 86.4837 74.1315C87.1738 74.0974 87.7702 73.5691 87.7617 72.8535C87.7276 68.2015 84.4899 64.035 81.2012 61.0359C80.903 60.7633 80.6048 60.4991 80.2896 60.2435C79.7017 59.7749 79.0797 59.7749 78.4832 60.2435C77.4012 61.0956 76.4214 62.101 75.5183 63.1319C73.695 65.2108 72.0421 67.6135 71.3519 70.3314C70.5851 73.3391 71.2412 76.5512 73.4734 78.7749C75.6801 80.9816 79.1138 81.8251 82.0703 80.7856C85.4443 79.6013 87.7362 76.4318 87.7618 72.8533C87.7703 72.1887 87.1739 71.5412 86.4837 71.5753C85.7851 71.6009 85.2142 72.1291 85.2057 72.8533L85.2059 72.8535Z" fill="white"/>
</svg>
