<svg width="110" height="110" viewBox="0 0 110 110" fill="none" xmlns="http://www.w3.org/2000/svg">
<path d="M77.6144 37.9876L76.7584 40.203L79.0871 40.6696C84.7511 41.8044 89 46.7742 89 52.6975C89 59.4639 83.4651 64.9765 76.6 64.9765H35.2C27.3449 64.9765 21 58.6608 21 50.9126C21 44.7927 24.9508 39.5699 30.4812 37.6407L31.8763 37.1541L31.8211 35.6777C31.8096 35.3702 31.8 35.1064 31.8 34.8487C31.8 26.1078 38.9436 19 47.8 19C53.7356 19 58.905 22.1928 61.6752 26.9527L62.7435 28.7883L64.5117 27.6117C65.9036 26.6856 67.59 26.1395 69.4 26.1395C74.2739 26.1395 78.2 30.0568 78.2 34.8487C78.2 35.9554 77.9897 37.0166 77.6144 37.9876Z" stroke="white" stroke-width="4"/>
<circle cx="70.5" cy="79.5" r="5.5" stroke="white" stroke-width="2"/>
<circle cx="82" cy="90" r="3" stroke="white" stroke-width="2"/>
</svg>
