<svg width="110" height="110" viewBox="0 0 110 110" fill="none" xmlns="http://www.w3.org/2000/svg">
<path d="M45.6047 71.881C54.4939 76.7605 66.0898 76.2151 75.2997 69.6761C84.5168 63.132 88.899 52.3136 87.3053 42.2448C94.8432 53.7918 91.9744 69.3507 80.6872 77.3716C69.4032 85.3903 53.8735 82.8928 45.6047 71.881ZM69.4902 42.4462C64.7192 36.2038 57.5806 32.8254 50.2938 32.6093C58.8406 29.2355 68.397 31.3493 73.6307 38.1747C78.2173 44.1954 78.3596 52.4037 74.5219 59.2211C74.9352 53.4275 73.3094 47.4531 69.4911 42.4473L69.4902 42.4462ZM31.3841 54.5C31.3841 69.4389 40.1493 82.2906 52.6154 87.4897C52.3396 87.4966 52.063 87.5 51.7857 87.5C33.3797 87.5 18.5 72.7186 18.5 54.5C18.5 36.281 33.3801 21.5 51.7717 21.5C52.0495 21.5 52.3264 21.5034 52.6024 21.5102C40.1389 26.7094 31.3841 39.5617 31.3841 54.5ZM55.7341 48.9355C55.7341 50.382 56.9145 51.5484 58.3517 51.5484H63.5574V57.4516H58.3517C56.9145 57.4516 55.7341 58.618 55.7341 60.0645V65.2419H49.7932V60.0645C49.7932 58.618 48.6127 57.4516 47.1755 57.4516H41.9699V51.5484H47.1755C48.6127 51.5484 49.7932 50.382 49.7932 48.9355V43.7581H55.7341V48.9355Z" stroke="white" stroke-width="3"/>
</svg>
