<svg width="110" height="110" viewBox="0 0 110 110" fill="none" xmlns="http://www.w3.org/2000/svg">
<path d="M31.4286 57H33.4286V55V20.5625C33.4286 19.6786 34.1237 19 34.9643 19H62.4286V37.1875C62.4286 40.2372 64.9009 42.75 67.9643 42.75H86V89.4375C86 90.3214 85.3049 91 84.4643 91H34.9643C34.1237 91 33.4286 90.3214 33.4286 89.4375V66.5H40.5164L45.0851 75.6933C45.0863 75.6959 45.0876 75.6985 45.0889 75.7011C46.2491 78.0643 49.6238 78.064 50.7835 75.7001C50.7846 75.6978 50.7857 75.6956 50.7868 75.6933L57.3579 62.4399L58.8214 65.389L59.3727 66.5H60.6129H73.8571C76.2723 66.5 78.2143 64.5216 78.2143 62.125C78.2143 59.7284 76.2723 57.75 73.8571 57.75H64.7562L60.2006 48.5567C60.1996 48.5545 60.1984 48.5522 60.1973 48.55C59.0376 46.1857 55.6621 46.1857 54.5023 48.5499C54.5011 48.5522 54.5 48.5544 54.4989 48.5567L47.9278 61.8101L46.7884 59.5141L46.7819 59.501L46.7752 59.488C46.2309 58.4303 45.1377 57.75 43.9362 57.75H24V57H31.4286ZM85.5485 33.9941L85.5492 33.9948C85.5509 33.9965 85.5526 33.9983 85.5543 34H71.1429V19.4645L85.5485 33.9941Z" stroke="white" stroke-width="4"/>
</svg>
