<svg width="83" height="80" viewBox="0 0 83 80" fill="none" xmlns="http://www.w3.org/2000/svg">
<path d="M72.8047 28.6409C72.1656 24.0557 69.7742 19.8971 66.134 17.0377C63.6355 15.0923 60.5651 14.0257 57.3985 14.0025C54.2319 13.9794 51.1469 15.001 48.62 16.9096C46.9809 18.1202 45.6394 19.6885 44.6971 21.4952C43.7549 19.6884 42.4135 18.1201 40.7742 16.9096C38.2479 14.9999 35.1623 13.9773 31.9958 14.0004C28.8286 14.0235 25.7582 15.0913 23.2603 17.0377C19.62 19.8971 17.2287 24.0557 16.5895 28.6409C16.4577 29.5537 16.3926 30.4745 16.3936 31.3967C16.3931 32.7097 16.5296 34.0197 16.8001 35.3043C16.9561 36.0469 17.6841 36.5222 18.4268 36.3662C19.1689 36.2102 19.6442 35.4818 19.4882 34.7396C19.265 33.6393 19.1563 32.5189 19.1647 31.3966C19.1652 30.6077 19.2235 29.8204 19.3375 29.04C19.8801 25.1739 21.8953 21.667 24.9621 19.2515C26.9868 17.6722 29.4758 16.8051 32.0436 16.7845C34.6109 16.764 37.1135 17.5917 39.1629 19.1385C40.7122 20.2683 41.9209 21.8024 42.6566 23.5734C42.7244 23.7389 42.7695 23.8744 42.8147 24.0099C43.0075 24.5367 43.4087 24.9611 43.924 25.1832C44.4392 25.4049 45.0227 25.4049 45.538 25.1832C46.0532 24.9611 46.4545 24.5367 46.6472 24.0099C46.6924 23.8817 46.7376 23.7462 46.8053 23.5881C47.5396 21.8149 48.7486 20.2777 50.299 19.1459C52.3484 17.5991 54.851 16.7719 57.4183 16.7918C59.9862 16.8123 62.4751 17.6794 64.4999 19.2588C67.5667 21.6743 69.5819 25.1812 70.1244 29.0473C70.2384 29.8278 70.2967 30.6156 70.2972 31.4039C70.3172 35.2238 68.9406 38.9188 66.4275 41.7948H50.1865L48.176 35.8919C47.9659 35.3389 47.4297 34.9791 46.8383 34.9943C46.2469 35.0096 45.7295 35.3967 45.5483 35.9597L42.1974 46.6516L39.0503 28.5807V28.1291L39.0125 28.0687V28.0161L38.7415 27.9631V27.91L38.7037 27.8649L38.6512 27.8124H38.6134L38.5456 27.7598H38.5078L38.44 27.7147H37.0246L36.9569 27.7598H36.9117L36.8513 27.805L36.8061 27.8428L36.761 27.888L36.7158 27.9405V27.9857L36.6706 28.0461V28.0912L36.6255 28.159V28.4752L33.0866 41.78L10.3702 41.7795C9.6134 41.7795 9 42.3929 9 43.1497C9 43.9065 9.61345 44.5205 10.3702 44.5205H34.4648L34.5703 44.468H34.6081L34.6759 44.4302H34.7137L34.7741 44.385L34.8419 44.3246L34.917 44.2416C34.9711 44.176 35.0189 44.1056 35.0598 44.031V43.7521L37.2657 35.4694L40.2773 52.9459V53.3146L40.3224 53.3898L40.3749 53.4575L40.4275 53.5179V53.5557L40.48 53.6009L40.5252 53.6387L40.5856 53.6839L40.6685 53.7443H40.97L41.1507 53.7894H41.7983L41.8886 53.7443L42.5063 53.624L42.574 53.5862H42.6192L42.6796 53.541H42.7174L42.7852 53.4885C42.8461 53.4307 42.9013 53.3677 42.9506 53.2999L43.0032 53.217L43.041 53.1419V52.9764L46.8057 40.8387L47.7847 43.7074C47.8078 43.7699 47.8357 43.8303 47.8672 43.8881C47.8987 43.9432 47.9339 43.9963 47.9728 44.0462L48.093 44.1817L48.2212 44.2873L48.3793 44.385L48.5526 44.4527L48.7333 44.4979H48.9518L63.7016 44.4984C62.9484 45.2516 62.2557 46.0042 61.5556 46.7574L47.1822 62.0639L47.0845 62.1768H47.084C46.5488 62.931 45.6896 63.3885 44.7652 63.4121H44.637C43.7137 63.3974 42.8518 62.9478 42.3103 62.1999L42.2126 62.087L31.2119 50.3631C30.694 49.81 29.8264 49.7817 29.2733 50.299C28.7203 50.8169 28.6914 51.6851 29.2093 52.2381L40.1569 63.8939C41.2131 65.304 42.8676 66.1397 44.6297 66.1529H44.7652C46.5273 66.1397 48.1818 65.3041 49.2381 63.8939L63.5885 48.6385C64.7629 47.3885 65.9903 46.1463 67.1879 44.9415L67.888 44.2335V44.234C71.2001 40.7844 73.0341 36.1782 73.0005 31.3962C73.0015 30.4739 72.9364 29.5532 72.8046 28.6403L72.8047 28.6409Z" fill="#209CD4"/>
</svg>
