<svg width="38" height="38" viewBox="0 0 38 38" fill="none" xmlns="http://www.w3.org/2000/svg">
<path d="M34.3162 29.376C33.2982 28.4687 32.4071 27.4284 31.6667 26.2833C30.8584 24.7026 30.3739 22.9764 30.2417 21.206V15.9916C30.2487 13.2108 29.24 10.5232 27.4051 8.43376C25.5703 6.34431 23.0356 4.99678 20.2772 4.64437V3.2827C20.2772 2.90897 20.1288 2.55054 19.8646 2.28628C19.6002 2.022 19.2418 1.87354 18.8681 1.87354C18.4944 1.87354 18.1359 2.022 17.8717 2.28628C17.6074 2.55054 17.4589 2.90897 17.4589 3.2827V4.66548C14.7253 5.0433 12.2212 6.39897 10.4105 8.48141C8.59977 10.5639 7.605 13.232 7.61063 15.9916V21.206C7.47839 22.9764 6.99392 24.7026 6.18559 26.2833C5.45819 27.4258 4.58136 28.4658 3.57838 29.376C3.46578 29.475 3.37554 29.5967 3.31366 29.7332C3.25177 29.8697 3.21967 30.0178 3.21948 30.1677V31.6033C3.21948 31.8832 3.33069 32.1517 3.52865 32.3497C3.72661 32.5476 3.99509 32.6588 4.27504 32.6588H33.6195C33.8994 32.6588 34.1679 32.5476 34.3659 32.3497C34.5638 32.1517 34.6751 31.8832 34.6751 31.6033V30.1677C34.6748 30.0178 34.6428 29.8697 34.5809 29.7332C34.519 29.5967 34.4287 29.475 34.3162 29.376ZM5.41504 30.5477C6.39714 29.599 7.26184 28.5358 7.99063 27.381C9.0088 25.472 9.60289 23.3657 9.73224 21.206V15.9916C9.69037 14.7545 9.89792 13.5217 10.3424 12.3665C10.787 11.2113 11.4593 10.1573 12.3197 9.2674C13.18 8.37744 14.2106 7.6698 15.3501 7.18644C16.4896 6.70311 17.7147 6.45402 18.9526 6.45402C20.1903 6.45402 21.4154 6.70311 22.555 7.18644C23.6945 7.6698 24.7251 8.37744 25.5854 9.2674C26.4457 10.1573 27.1182 11.2113 27.5627 12.3665C28.0072 13.5217 28.2147 14.7545 28.1728 15.9916V21.206C28.3022 23.3657 28.8962 25.472 29.9145 27.381C30.6433 28.5358 31.5079 29.599 32.4901 30.5477H5.41504Z" fill="#564B52"/>
<path d="M19.0001 36.1843C19.665 36.169 20.3031 35.919 20.8014 35.4785C21.2999 35.0381 21.6264 34.4356 21.7234 33.7776H16.1711C16.2709 34.4535 16.6127 35.0701 17.1331 35.5128C17.6534 35.9555 18.3169 36.1942 19.0001 36.1843Z" fill="#564B52"/>
</svg>
