<svg width="35" height="35" viewBox="0 0 35 35" fill="none" xmlns="http://www.w3.org/2000/svg">
<path d="M17.5 0C7.83264 0 0 7.90322 0 17.5C0 27.1674 7.83264 35 17.5 35C27.0968 35 35 27.1674 35 17.5C35 7.90322 27.0968 0 17.5 0ZM17.5 32.7419C9.10284 32.7419 2.25806 25.9677 2.25806 17.5C2.25806 9.17335 9.03226 2.25806 17.5 2.25806C25.8266 2.25806 32.7419 9.10284 32.7419 17.5C32.7419 25.8972 25.8972 32.7419 17.5 32.7419ZM27.3085 11.6431C27.1674 11.0081 26.6028 10.6552 25.9677 10.7964C18.5585 12.5605 16.371 12.5605 8.96168 10.7964C8.32665 10.6552 7.76213 11.0081 7.62096 11.6431C7.47986 12.2076 7.83264 12.8427 8.46774 12.9839C10.6552 13.4778 12.7016 13.9718 14.6774 14.1835C14.6774 22.2984 13.7601 24.0625 12.7722 26.6028C12.4899 27.379 12.8427 28.1552 13.5484 28.4375C14.3246 28.7198 15.1008 28.3669 15.3831 27.6613C16.0887 25.9677 16.7238 24.4859 17.1472 21.4516H17.7823C18.2056 24.4859 18.8407 25.9677 19.5464 27.6613C19.8286 28.3669 20.6049 28.7198 21.3811 28.4375C22.0867 28.1552 22.4395 27.379 22.1573 26.6028C21.1694 24.0625 20.252 22.2984 20.252 14.1835C22.2278 13.9718 24.2742 13.4778 26.4617 12.9839C27.0968 12.8427 27.4496 12.2076 27.3085 11.6431ZM14.748 8.60891C14.748 10.0907 15.9476 11.2903 17.5 11.2903C18.9819 11.2903 20.1814 10.0907 20.1814 8.60891C20.1814 7.12701 18.9819 5.92742 17.5 5.92742C15.9476 5.92742 14.748 7.12701 14.748 8.60891Z" fill="#564B52"/>
</svg>
