<svg width="30" height="30" viewBox="0 0 30 30" fill="none" xmlns="http://www.w3.org/2000/svg">
<path fill-rule="evenodd" clip-rule="evenodd" d="M26.6375 27.6073C26.1022 27.6073 25.6677 27.1719 25.6677 26.6375C25.6677 26.1032 26.1022 25.6677 26.6375 25.6677C27.1728 25.6677 27.6073 26.1032 27.6073 26.6375C27.6073 27.1719 27.1728 27.6073 26.6375 27.6073ZM27.6073 23.9065V12.575C27.6073 10.1688 25.6492 8.21077 23.2431 8.21077C20.837 8.21077 18.8789 10.1688 18.8789 12.575V22.7582C18.8789 25.432 16.7036 27.6073 14.0297 27.6073C11.3559 27.6073 9.18057 25.432 9.18057 22.7582V17.8422C13.0017 17.3621 15.9694 14.0996 15.9694 10.1504V1.42197C15.9694 0.886631 15.5349 0.452148 14.9996 0.452148H14.0297C13.4944 0.452148 13.0599 0.886631 13.0599 1.42197C13.0599 1.95732 13.4944 2.39181 14.0297 2.39181V10.1504C14.0297 13.3596 11.4199 15.9694 8.21077 15.9694C5.00161 15.9694 2.39181 13.3596 2.39181 10.1504V2.39181C2.92715 2.39181 3.36163 1.95732 3.36163 1.42197C3.36163 0.886631 2.92715 0.452148 2.39181 0.452148H1.42197C0.886631 0.452148 0.452148 0.886631 0.452148 1.42197V10.1504C0.452148 14.0996 3.41982 17.3621 7.24094 17.8422V22.7582C7.24094 26.5017 10.2862 29.547 14.0297 29.547C17.7723 29.547 20.8185 26.5017 20.8185 22.7582V12.575C20.8185 11.2386 21.9057 10.1504 23.2431 10.1504C24.5805 10.1504 25.6677 11.2386 25.6677 12.575V23.9065C24.5417 24.3089 23.728 25.3747 23.728 26.6375C23.728 28.2416 25.0334 29.547 26.6375 29.547C28.2416 29.547 29.547 28.2416 29.547 26.6375C29.547 25.3747 28.7333 24.3089 27.6073 23.9065Z" fill="#364F6B"/>
</svg>
