<svg width="32" height="32" viewBox="0 0 32 32" fill="none" xmlns="http://www.w3.org/2000/svg">
<path fill-rule="evenodd" clip-rule="evenodd" d="M23 1C23.265 1 23.519 1.105 23.707 1.293L30.707 8.293C30.894 8.48 31 8.734 31 9V23C31 23.266 30.894 23.52 30.707 23.707L23.707 30.707C23.519 30.895 23.265 31 23 31H9C8.735 31 8.48 30.895 8.293 30.707L1.293 23.707C1.105 23.52 1 23.266 1 23V9C1 8.734 1.105 8.48 1.293 8.293L8.293 1.293C8.48 1.105 8.735 1 9 1H23ZM22.586 3H9.414L3 9.414V22.586L9.414 29H22.586L29 22.586V9.414L22.586 3ZM15.9999 25C16.5519 25 16.9999 25.447 16.9999 26C16.9999 26.553 16.5519 27 15.9999 27C15.4479 27 14.9999 26.553 14.9999 26C14.9999 25.447 15.4479 25 15.9999 25ZM15.9999 5C19.3089 5 21.9999 7.691 21.9999 11C21.9999 13.968 19.8339 16.439 16.9999 16.917V22C16.9999 22.553 16.5519 23 15.9999 23C15.4479 23 14.9999 22.553 14.9999 22V16C14.9999 15.447 15.4479 15 15.9999 15C18.2059 15 19.9999 13.206 19.9999 11C19.9999 8.794 18.2059 7 15.9999 7C13.7939 7 11.9999 8.794 11.9999 11C11.9999 11.553 11.5519 12 10.9999 12C10.4479 12 9.9999 11.553 9.9999 11C9.9999 7.691 12.6909 5 15.9999 5Z" fill="#F6F6F6"/>
</svg>
