<svg width="56" height="56" viewBox="0 0 56 56" fill="none" xmlns="http://www.w3.org/2000/svg">
<path d="M52.023 0H30.7787C28.8058 0 27.2004 1.60532 27.2004 3.57828V16.5136C27.2004 18.4861 28.8053 20.0919 30.7787 20.0919H32.4105V23.9816C32.4105 24.429 32.67 24.8356 33.0762 25.0236C33.2305 25.0952 33.3953 25.1303 33.5592 25.1303C33.826 25.1303 34.0903 25.037 34.3023 24.8578L39.9218 20.0924H52.0231C53.9961 20.0914 55.6014 18.4856 55.6014 16.5131V3.57781C55.6014 1.60534 53.9961 2.34682e-05 52.0226 2.34682e-05L52.023 0ZM53.3048 16.5133C53.3048 17.2199 52.7295 17.7947 52.023 17.7947H39.5011C39.2291 17.7947 38.9657 17.8913 38.758 18.0672L34.7078 21.5018V18.9434C34.7078 18.309 34.1935 17.7952 33.5596 17.7952H30.7796C30.073 17.7952 29.4982 17.2203 29.4982 16.5138V3.5785C29.4982 2.87198 30.0731 2.29715 30.7796 2.29715H52.0238C52.7304 2.29763 53.3057 2.87199 53.3057 3.5785L53.3048 16.5133Z" fill="white"/>
<path d="M42.9033 4.80444H39.9057V8.35098H36.3591V11.3481H39.9057V14.8947H42.9033V11.3481H46.4499V8.35098H42.9033V4.80444Z" fill="white"/>
<path d="M0.479909 44.3575V53.962C0.479909 54.5964 0.994184 55.1102 1.62813 55.1102H31.6575C32.292 55.1102 32.8058 54.5959 32.8058 53.962V44.3575C32.8058 40.5816 29.7383 37.5095 25.9689 37.5095H20.8959C20.5585 37.5095 20.2384 37.658 20.0202 37.9157L16.6428 41.9006L13.265 37.9157C13.0468 37.658 12.7267 37.5095 12.3893 37.5095H7.31664C3.54703 37.5095 0.479736 40.5817 0.479736 44.3575H0.479909ZM2.77684 44.3575C2.77684 41.8477 4.81329 39.806 7.3173 39.806H11.8578L15.7676 44.419C16.2041 44.9338 17.0831 44.9338 17.5195 44.419L21.4289 39.806H25.9698C28.4735 39.806 30.5103 41.8477 30.5103 44.3575V52.8133L2.77684 52.8137V44.3575Z" fill="white"/>
<path d="M16.6426 36.3525C22.441 36.3525 27.1102 29.2166 27.1102 23.3089C27.1102 17.5366 22.4145 12.8413 16.6426 12.8413C10.8703 12.8413 6.17505 17.5371 6.17505 23.3089C6.17505 29.2169 10.8443 36.3525 16.6426 36.3525ZM16.6426 15.1377C21.148 15.1377 24.8138 18.803 24.8138 23.3089C24.8138 28.046 20.9663 34.0558 16.6426 34.0558C12.319 34.0558 8.47149 28.046 8.47149 23.3089C8.47197 18.8035 12.1372 15.1377 16.6426 15.1377Z" fill="white"/>
<path d="M27.3373 45.8549H25.5047V44.0222C25.5047 43.3878 24.9904 42.874 24.3564 42.874C23.722 42.874 23.2082 43.3883 23.2082 44.0222V45.8549H21.3755C20.7411 45.8549 20.2273 46.3692 20.2273 47.0032C20.2273 47.6376 20.7416 48.1514 21.3755 48.1514H23.2082L23.2077 49.9844C23.2077 50.6189 23.722 51.1327 24.356 51.1327C24.9904 51.1327 25.5042 50.6184 25.5042 49.9844V48.1517H27.3369C27.9713 48.1517 28.4851 47.6375 28.4851 47.0035C28.4856 46.3691 27.9713 45.8548 27.3373 45.8548V45.8549Z" fill="white"/>
</svg>
