<svg width="40" height="56" viewBox="0 0 40 56" fill="none" xmlns="http://www.w3.org/2000/svg">
<path d="M27.7621 27.7487C30.3491 27.7487 32.448 25.6459 32.448 23.0541C32.448 20.4623 30.3491 18.3595 27.7621 18.3595C25.1751 18.3595 23.0762 20.4623 23.0762 23.0541C23.0762 25.6459 25.1751 27.7487 27.7621 27.7487ZM27.7621 19.9244C29.4705 19.9244 30.886 21.3425 30.886 23.0541C30.886 24.8146 29.4705 26.1838 27.7621 26.1838C26.0049 26.1838 24.6382 24.8146 24.6382 23.0541C24.6382 21.3425 26.0049 19.9244 27.7621 19.9244ZM13.7045 27.7487C16.682 27.7487 19.1714 25.3036 19.1714 22.2717C19.1714 19.2887 16.682 16.7947 13.7045 16.7947C10.6782 16.7947 8.23766 19.2887 8.23766 22.2717C8.23766 25.3036 10.6782 27.7487 13.7045 27.7487ZM13.7045 18.3595C15.8522 18.3595 17.6094 20.12 17.6094 22.2717C17.6094 24.4722 15.8522 26.1838 13.7045 26.1838C11.508 26.1838 9.79961 24.4722 9.79961 22.2717C9.79961 20.12 11.508 18.3595 13.7045 18.3595ZM17.6094 28.7267C15.9498 28.7267 15.5593 29.3135 13.7045 29.3135C11.8009 29.3135 11.4104 28.7267 9.7508 28.7267C7.9936 28.7267 6.28521 29.558 5.26018 31.0251C4.67444 31.9542 4.33276 33.03 4.33276 34.2037V36.3554C4.33276 37.6757 5.3578 38.7026 6.6757 38.7026H20.7333C22.0024 38.7026 23.0762 37.6757 23.0762 36.3554V34.2037C23.0762 33.03 22.6858 31.9542 22.1 31.0251C21.075 29.558 19.3666 28.7267 17.6094 28.7267ZM21.5143 36.3554C21.5143 36.7955 21.1238 37.1378 20.7333 37.1378H6.6757C6.2364 37.1378 5.89472 36.7955 5.89472 36.3554V34.2037C5.89472 33.3724 6.08997 32.5899 6.57808 31.9053C7.21262 30.9273 8.4329 30.2916 9.7508 30.2916C11.1175 30.2916 11.6056 30.8784 13.7045 30.8784C15.8034 30.8784 16.2427 30.2916 17.6094 30.2916C18.9273 30.2916 20.1476 30.9273 20.7821 31.9053C21.2702 32.5899 21.4655 33.3724 21.4655 34.2037V36.3554H21.5143ZM34.7421 30.7806C33.9123 29.5091 32.4968 28.8245 30.9837 28.8245C29.6658 28.8245 29.3241 29.3135 27.7621 29.3135C26.2002 29.3135 25.8585 28.8245 24.4918 28.8245C23.8572 28.8245 23.2227 28.9712 22.6369 29.2646C23.3691 29.9981 23.5155 30.3894 23.6132 30.5361C23.906 30.4872 24.1501 30.4383 24.4918 30.4383C25.5656 30.4383 25.9561 30.9273 27.7621 30.9273C29.5193 30.9273 29.9586 30.4383 30.9837 30.4383C32.0087 30.4383 32.9361 30.8784 33.473 31.6608C33.8147 32.1498 34.0099 32.7366 34.0099 33.3724V35.1817C34.0099 35.4262 33.8147 35.5729 33.6195 35.5729H24.6382C24.6382 36.4532 24.6382 36.6977 24.5406 37.1378H33.6195C34.6933 37.1378 35.5719 36.3065 35.5719 35.1817V33.3724C35.5719 32.3943 35.279 31.5141 34.7421 30.7806Z" fill="#999999"/>
</svg>
