<svg width="40" height="57" viewBox="0 0 40 57" fill="none" xmlns="http://www.w3.org/2000/svg">
<path d="M16.9893 21.3781C17.342 21.3781 17.6276 21.0931 17.6276 20.7413C17.6276 16.521 14.1858 13.0874 9.95543 13.0874C9.60275 13.0874 9.31714 13.3723 9.31714 13.7241C9.31714 15.7721 10.117 17.6937 11.5678 19.1326C13.0192 20.5804 14.9447 21.3778 16.9894 21.3778L16.9893 21.3781ZM16.3157 20.0694C14.8658 19.9178 13.5197 19.2789 12.4692 18.2313C11.42 17.1902 10.7798 15.8483 10.6286 14.396C13.6186 14.7095 16.0013 17.0871 16.3157 20.0694Z" fill="#999999"/>
<path d="M10.2645 26.472C9.43945 27.5144 8.88419 29.7225 9.50408 32.3083C9.57435 32.6006 9.83565 32.7971 10.1245 32.7971C10.1736 32.7971 10.2236 32.7915 10.2736 32.7797C10.6163 32.6977 10.828 32.3544 10.7462 32.0124C10.1934 29.707 10.7547 27.908 11.2664 27.262C11.4849 26.9859 11.4379 26.5853 11.1614 26.367C10.8849 26.1493 10.4825 26.1959 10.2645 26.472L10.2645 26.472Z" fill="#999999"/>
<path d="M34.3372 32.5077C34.2637 29.3534 31.9804 26.8119 29.1779 26.8119C28.1549 26.8119 27.1814 27.1458 26.3477 27.766C25.6482 24.4063 23.4804 22.2168 20.717 22.2168C19.0468 22.2168 17.4427 22.9999 16.133 24.4387C14.8278 22.9998 13.2231 22.2168 11.5474 22.2168C9.93709 22.2168 8.5253 22.9244 7.46541 24.2629C5.78194 26.3883 5.23209 29.7883 6.03063 33.1354C7.03067 37.307 10.0044 40.3349 13.1016 40.3349C14.1938 40.3349 15.2313 39.9586 16.1317 39.2403C17.0331 39.9586 18.0722 40.3349 19.1673 40.3349C19.8243 40.3349 20.4843 40.1899 21.1356 39.9178C23.2087 42.071 25.446 43.4551 25.6199 43.5611C25.7222 43.6232 25.8374 43.6544 25.9528 43.6544C26.0682 43.6544 26.1834 43.6232 26.2857 43.5611C26.6149 43.3601 34.3436 38.5798 34.3436 32.6629C34.3436 32.6295 34.3396 32.5973 34.3394 32.564C34.3396 32.5563 34.3436 32.5499 34.3436 32.5421C34.3436 32.5301 34.3372 32.52 34.3367 32.508L34.3372 32.5077ZM29.1777 28.0856C31.1024 28.0856 32.701 29.7415 33.0093 31.9051H30.6419C30.4254 31.9051 30.2237 32.0146 30.1059 32.1956L29.3706 33.3275L28.8926 32.1508C28.7975 31.9157 28.572 31.7596 28.3182 31.7529C28.0633 31.7516 27.8306 31.8904 27.7232 32.1191L27.0224 33.6084L26.5161 31.558C26.4603 31.3328 26.2861 31.1551 26.0614 31.0954C25.8364 31.0343 25.5968 31.1023 25.4354 31.2694L23.6057 33.1724H18.8769C18.8614 33.0026 18.8385 32.8336 18.8385 32.6625C18.8385 30.1389 20.5834 28.0856 22.7283 28.0856C23.7583 28.0856 24.7313 28.5576 25.4682 29.4152C25.4731 29.4208 25.4805 29.4224 25.4853 29.4278C25.7322 29.6937 26.1998 29.6922 26.4376 29.4152C27.1747 28.5576 28.1475 28.0856 29.1777 28.0856L29.1777 28.0856ZM16.5788 37.9358C16.3306 37.6933 15.9339 37.6933 15.6852 37.9358C14.932 38.6722 14.0388 39.0613 13.1021 39.0613C10.6291 39.0613 8.12292 36.3866 7.27273 32.8399C6.5735 29.9085 7.04242 26.8517 8.46757 25.0529C9.27685 24.0306 10.3418 23.4908 11.5476 23.4908C13.0382 23.4908 14.4855 24.3178 15.6228 25.8205C15.7431 25.9796 15.9314 26.0737 16.1316 26.0737H16.1321C16.3317 26.0737 16.5198 25.9804 16.6405 25.8219C17.7841 24.3187 19.2322 23.4911 20.7172 23.4911C23.0245 23.4911 24.3476 25.3421 24.9348 27.372C24.2541 27.0079 23.5059 26.8128 22.729 26.8128C19.8804 26.8128 17.5626 29.4372 17.5626 32.6634C17.5626 34.9835 18.7521 37.1271 20.2168 38.8902C18.9044 39.2748 17.6097 38.9435 16.5788 37.9361L16.5788 37.9358ZM25.9527 42.259C24.6967 41.423 20.2725 38.253 19.1197 34.4461H23.8778C24.0518 34.4461 24.2182 34.3752 24.3384 34.2502L25.5539 32.9866L26.2141 35.6606C26.279 35.9223 26.5021 36.1153 26.7711 36.1419C26.7922 36.1438 26.8136 36.1451 26.8344 36.1451C27.0797 36.1451 27.306 36.0039 27.4121 35.7789L28.2579 33.9805L28.6472 34.9394C28.7365 35.1596 28.9411 35.312 29.1781 35.3344C29.422 35.3581 29.6454 35.2462 29.7747 35.0471L30.9885 33.1791H33.0281C32.6276 37.5268 27.3452 41.3304 25.9524 42.259L25.9527 42.259Z" fill="#999999"/>
</svg>
