<svg width="40" height="56" viewBox="0 0 40 56" fill="none" xmlns="http://www.w3.org/2000/svg">
<path d="M20.2157 14.5347C13.5216 14.5347 8.0979 20.0503 8.0979 26.8579C8.0979 33.6655 13.5216 39.1811 20.2157 39.1811C26.9099 39.1811 32.3336 33.6655 32.3336 26.8579C32.3336 20.0503 26.9099 14.5347 20.2157 14.5347ZM26.4701 35.504C24.7111 36.8457 22.5123 37.591 20.2157 37.591C17.8704 37.591 15.6716 36.8457 13.9614 35.504V34.8084C13.9614 33.0692 15.3295 31.6282 17.0886 31.6282C17.626 31.6282 18.4078 32.2245 20.2157 32.2245C21.9748 32.2245 22.7566 31.6282 23.3429 31.6282C25.0531 31.6282 26.4701 33.0692 26.4701 34.8084V35.504ZM27.936 34.1624C27.5939 31.8269 25.6883 30.0381 23.3429 30.0381C22.3168 30.0381 21.8282 30.6344 20.2157 30.6344C18.5544 30.6344 18.0658 30.0381 17.0886 30.0381C14.6943 30.0381 12.7887 31.8269 12.4466 34.1624C10.6876 32.2245 9.66149 29.6903 9.66149 26.8579C9.66149 20.9447 14.3523 16.1248 20.2157 16.1248C26.0304 16.1248 30.77 20.9447 30.77 26.8579C30.77 29.6903 29.695 32.2245 27.936 34.1624ZM20.2157 20.1C17.8215 20.1 15.9159 22.0876 15.9159 24.4728C15.9159 26.9076 17.8215 28.8455 20.2157 28.8455C22.5611 28.8455 24.5156 26.9076 24.5156 24.4728C24.5156 22.0876 22.5611 20.1 20.2157 20.1ZM20.2157 27.2554C18.701 27.2554 17.4795 26.0132 17.4795 24.4728C17.4795 22.982 18.701 21.6901 20.2157 21.6901C21.6816 21.6901 22.952 22.982 22.952 24.4728C22.952 26.0132 21.6816 27.2554 20.2157 27.2554Z" fill="#A6A6A6"/>
</svg>
