<svg width="66" height="66" viewBox="0 0 66 66" fill="none" xmlns="http://www.w3.org/2000/svg">
<rect width="66" height="66" rx="20" fill="#ADADAD"/>
<path d="M32.6868 32.0434C38.023 32.0434 42.4444 27.7065 42.4444 22.3043C42.4444 16.9782 38.023 12.5652 32.6868 12.5652C27.2744 12.5652 22.9293 16.9782 22.9293 22.3043C22.9293 27.7065 27.2744 32.0434 32.6868 32.0434ZM32.6868 15C36.6509 15 40.005 18.3478 40.005 22.3043C40.005 26.3369 36.6509 29.6087 32.6868 29.6087C28.6466 29.6087 25.3687 26.3369 25.3687 22.3043C25.3687 18.3478 28.6466 15 32.6868 15ZM39.7763 34.5543C37.1845 34.4782 36.4222 35.6956 32.6868 35.6956C28.8753 35.6956 28.113 34.4782 25.5211 34.5543C20.0325 34.7065 15.6111 39.1956 15.6111 44.75V50.913C15.6111 51.2934 15.8398 51.5217 16.2209 51.5217H17.4406C17.7456 51.5217 18.0505 51.2934 18.0505 50.913V44.75C18.0505 40.6413 21.2522 37.2174 25.3687 36.9891V43.2282C23.5391 43.7608 22.3194 45.3587 22.3194 47.2608C22.3194 49.6195 24.2252 51.5217 26.5884 51.5217C28.8753 51.5217 30.8573 49.6195 30.8573 47.2608C30.8573 45.3587 29.5614 43.7608 27.8081 43.2282V37.3695C29.3327 37.9021 31.0098 38.1304 32.6868 38.1304C34.2877 38.1304 35.9648 37.9021 37.5656 37.3695V42.6195C35.3549 43.1521 33.9065 45.2065 33.9065 47.4891V49.6956C33.9065 50.0761 33.9828 50.3804 34.2115 50.6087L35.05 51.3695C35.2787 51.5978 35.6599 51.5978 35.8885 51.3695L36.7271 50.5326C36.9558 50.3043 36.9558 49.9239 36.7271 49.6195L36.2697 49.2391V47.2608C36.2697 45.8152 37.6419 44.6739 39.1665 44.9021C40.3862 45.0543 41.1485 46.1956 41.1485 47.413V49.2391L40.7673 49.6195C40.5386 49.9239 40.5386 50.3043 40.7673 50.5326L41.6059 51.3695C41.8346 51.5978 42.2157 51.5978 42.4444 51.3695L43.283 50.6087C43.5117 50.3804 43.5879 50.0761 43.5879 49.6956V47.2608C43.5879 45.0543 42.0633 43.1521 39.9288 42.6195V36.9891C44.0453 37.2934 47.247 40.6413 47.247 44.75V50.913C47.247 51.2934 47.5519 51.5217 47.8568 51.5217H49.0765C49.4577 51.5217 49.6864 51.2934 49.6864 50.913V44.75C49.7626 39.1956 45.3412 34.7065 39.7763 34.5543ZM28.4179 47.2608C28.4179 48.3261 27.5794 49.0869 26.5884 49.0869C25.5211 49.0869 24.7588 48.3261 24.7588 47.2608C24.7588 46.2717 25.5211 45.4347 26.5884 45.4347C27.5794 45.4347 28.4179 46.2717 28.4179 47.2608Z" fill="white"/>
</svg>
