<svg width="99" height="87" viewBox="0 0 99 87" fill="none" xmlns="http://www.w3.org/2000/svg">
<path d="M80.9008 57.2719V22.8229C80.9008 22.4611 80.7557 22.1139 80.4975 21.8581C80.2393 21.6023 79.8889 21.4585 79.5237 21.4585H18.4753C17.7148 21.4585 17.0982 22.0695 17.0982 22.8229V57.2719C17.0982 57.6337 17.2433 57.9809 17.5015 58.2367C17.7597 58.4925 18.1101 58.6362 18.4753 58.6362H79.5237C79.8889 58.6362 80.2393 58.4925 80.4975 58.2367C80.7557 57.9809 80.9008 57.6337 80.9008 57.2719ZM78.1467 55.9075H19.8523V24.1873H78.1467V55.9075ZM39.9054 44.1405H44.8683V49.0576C44.8689 49.6832 45.1198 50.2831 45.5661 50.7253C46.0124 51.1681 46.6179 51.4166 47.2492 51.4172H50.7496C51.381 51.4166 51.9865 51.1681 52.4328 50.7253C52.8791 50.2831 53.1299 49.6831 53.1305 49.0576V44.1405H58.0935C58.7248 44.1399 59.3297 43.8907 59.776 43.4486C60.2223 43.0064 60.4737 42.407 60.475 41.7815L60.4743 38.3134C60.4737 37.6879 60.2229 37.0885 59.776 36.6464C59.3297 36.2036 58.7247 35.9551 58.0935 35.9545H53.1305V31.0373C53.1299 30.4118 52.8791 29.8118 52.4328 29.3697C51.9865 28.9275 51.3809 28.6783 50.7496 28.6777H47.2492C46.6179 28.6783 46.0123 28.9275 45.5661 29.3697C45.1198 29.8119 44.8689 30.4118 44.8683 31.0373V35.9545H39.9054C39.2741 35.9545 38.6685 36.203 38.2216 36.6452C37.7753 37.088 37.5245 37.6879 37.5245 38.3134L37.5239 41.7828C37.5251 42.4083 37.7765 43.0077 38.2229 43.4494C38.6692 43.8916 39.2747 44.1399 39.9054 44.1405ZM40.2786 38.683H46.2454C47.0059 38.683 47.6225 38.0721 47.6225 37.3187V31.4062H50.3766V37.3187C50.3766 38.0721 50.9932 38.683 51.7536 38.683H57.7204L57.7211 41.4118H51.7536C50.9932 41.4118 50.3766 42.0227 50.3766 42.7761V48.6886H47.6224V42.7761C47.6224 42.4143 47.4774 42.0671 47.2192 41.8113C46.961 41.5555 46.6106 41.4118 46.2454 41.4118H40.2779L40.2786 38.683ZM87.6131 61.3642H86.4101V22.1891C86.4082 20.5482 85.7498 18.9749 84.5786 17.8145C83.4075 16.6542 81.8197 16.0019 80.1634 16H17.837C16.181 16.0018 14.593 16.6542 13.4218 17.8145C12.2507 18.9748 11.5923 20.5481 11.5904 22.1891V61.3642H10.3873C9.48917 61.3654 8.62847 61.7193 7.99345 62.3485C7.3584 62.9777 7.00123 63.8304 7 64.7203V67.6427C7.00061 68.5325 7.35778 69.3859 7.99283 70.0151C8.62789 70.6449 9.48915 70.9988 10.3873 71H87.6127C88.5108 70.9988 89.3722 70.6449 90.0072 70.0151C90.6422 69.3859 90.9994 68.5326 91 67.6427V64.7203C90.9988 63.8304 90.6416 62.9776 90.0066 62.3485C89.3715 61.7193 88.5113 61.3654 87.6131 61.3642ZM14.3443 22.1891C14.3455 21.2718 14.7138 20.3923 15.3685 19.7435C16.0232 19.0948 16.9109 18.73 17.8368 18.7288H80.1631C81.089 18.73 81.9766 19.0948 82.6315 19.7435C83.2862 20.3922 83.6544 21.2717 83.6556 22.1891V61.3642H14.3448L14.3443 22.1891ZM88.2458 67.6418C88.2476 67.8093 88.1818 67.9701 88.0626 68.0889C87.9433 68.207 87.781 68.2728 87.6126 68.271H10.3872C10.2188 68.2728 10.0565 68.2071 9.93724 68.0889C9.81798 67.9701 9.75219 67.8093 9.75403 67.6418V64.7201C9.75219 64.5532 9.81858 64.3924 9.93785 64.2748C10.0565 64.1566 10.2188 64.0909 10.3872 64.0927H35.3899L36.36 65.5746L36.3606 65.574C36.6139 65.962 37.0491 66.1965 37.5157 66.1965H60.485C60.9516 66.1965 61.3869 65.962 61.6401 65.574L62.6102 64.0921L87.6144 64.0927C87.7829 64.0909 87.9452 64.1566 88.0638 64.2748C88.1831 64.3924 88.2495 64.5532 88.2476 64.7201L88.2458 67.6418Z" fill="white"/>
</svg>
