<svg width="66" height="66" viewBox="0 0 66 66" fill="none" xmlns="http://www.w3.org/2000/svg">
<rect width="66" height="66" rx="20" fill="#E30000"/>
<path d="M32.6868 32.0437C38.023 32.0437 42.4444 27.7067 42.4444 22.3046C42.4444 16.9785 38.023 12.5654 32.6868 12.5654C27.2744 12.5654 22.9293 16.9785 22.9293 22.3046C22.9293 27.7067 27.2744 32.0437 32.6868 32.0437ZM32.6868 15.0002C36.6509 15.0002 40.005 18.348 40.005 22.3046C40.005 26.3372 36.6509 29.6089 32.6868 29.6089C28.6466 29.6089 25.3687 26.3372 25.3687 22.3046C25.3687 18.348 28.6466 15.0002 32.6868 15.0002ZM39.7763 34.5546C37.1845 34.4785 36.4222 35.6959 32.6868 35.6959C28.8753 35.6959 28.113 34.4785 25.5211 34.5546C20.0325 34.7067 15.6111 39.1959 15.6111 44.7502V50.9133C15.6111 51.2937 15.8398 51.522 16.2209 51.522H17.4406C17.7456 51.522 18.0505 51.2937 18.0505 50.9133V44.7502C18.0505 40.6415 21.2522 37.2176 25.3687 36.9893V43.2285C23.5391 43.7611 22.3194 45.3589 22.3194 47.2611C22.3194 49.6198 24.2252 51.522 26.5884 51.522C28.8753 51.522 30.8573 49.6198 30.8573 47.2611C30.8573 45.3589 29.5614 43.7611 27.8081 43.2285V37.3698C29.3327 37.9024 31.0098 38.1306 32.6868 38.1306C34.2877 38.1306 35.9648 37.9024 37.5656 37.3698V42.6198C35.3549 43.1524 33.9065 45.2067 33.9065 47.4893V49.6959C33.9065 50.0763 33.9828 50.3806 34.2115 50.6089L35.05 51.3698C35.2787 51.598 35.6599 51.598 35.8885 51.3698L36.7271 50.5328C36.9558 50.3046 36.9558 49.9241 36.7271 49.6198L36.2697 49.2393V47.2611C36.2697 45.8154 37.6419 44.6741 39.1665 44.9024C40.3862 45.0546 41.1485 46.1959 41.1485 47.4133V49.2393L40.7673 49.6198C40.5386 49.9241 40.5386 50.3046 40.7673 50.5328L41.6059 51.3698C41.8346 51.598 42.2157 51.598 42.4444 51.3698L43.283 50.6089C43.5117 50.3806 43.5879 50.0763 43.5879 49.6959V47.2611C43.5879 45.0546 42.0633 43.1524 39.9288 42.6198V36.9893C44.0453 37.2937 47.247 40.6415 47.247 44.7502V50.9133C47.247 51.2937 47.5519 51.522 47.8568 51.522H49.0765C49.4577 51.522 49.6864 51.2937 49.6864 50.9133V44.7502C49.7626 39.1959 45.3412 34.7067 39.7763 34.5546ZM28.4179 47.2611C28.4179 48.3263 27.5794 49.0872 26.5884 49.0872C25.5211 49.0872 24.7588 48.3263 24.7588 47.2611C24.7588 46.2719 25.5211 45.435 26.5884 45.435C27.5794 45.435 28.4179 46.2719 28.4179 47.2611Z" fill="white"/>
</svg>
