<svg width="49" height="49" viewBox="0 0 49 49" fill="none" xmlns="http://www.w3.org/2000/svg">
<path d="M9.08578 22.4329H11.8008C13.6022 27.7223 18.6187 31.5375 24.5098 31.5375C28.7337 31.5375 32.5075 29.5756 34.9694 26.5158H38.4596C39.1073 26.5158 39.6322 25.9909 39.6322 25.3432V22.4329H40.1608C41.4327 22.4329 42.4674 21.3981 42.4674 20.1262V14.2286C42.4674 13.1047 41.6592 12.1664 40.5936 11.9632C39.8241 8.47753 37.929 5.51526 35.0845 3.36658C32.1685 1.16417 28.5118 0 24.5097 0C16.3864 0 9.97902 4.81127 8.4135 12.0221C7.46846 12.3106 6.77905 13.1905 6.77905 14.2286V20.1262C6.77905 21.3981 7.81383 22.4329 9.08578 22.4329ZM9.12432 20.0876V14.2672H11.652C11.2861 15.487 11.0886 16.779 11.0886 18.1163C11.0886 18.7859 11.1386 19.444 11.2337 20.0876H9.12432ZM24.5097 29.1923C18.4024 29.1923 13.4338 24.2236 13.4338 18.1163C13.4338 12.009 18.4024 7.0405 24.5097 7.0405C30.6171 7.0405 35.5857 12.0091 35.5857 18.1163C35.5857 20.3492 34.9208 22.4292 33.7799 24.1705H23.8293C23.1817 24.1705 22.6566 24.6956 22.6566 25.3432C22.6566 25.9909 23.1817 26.5158 23.8293 26.5158H31.7214C29.7822 28.1831 27.2617 29.1923 24.5097 29.1923ZM37.2868 24.1705H36.4857C36.7688 23.6124 37.0147 23.0323 37.2187 22.4329H37.2867V24.1705H37.2868ZM40.122 20.0876H37.786C37.8811 19.4441 37.9311 18.7859 37.9311 18.1163C37.9311 16.779 37.7334 15.487 37.3677 14.2672H40.1221V20.0876H40.122ZM24.5097 2.34527C31.2692 2.34527 36.619 6.14899 38.1687 11.9219H36.4132C34.1711 7.6311 29.6771 4.69523 24.5097 4.69523C19.3424 4.69523 14.8484 7.6311 12.6063 11.9219H10.8504C12.3986 6.15256 17.7594 2.34527 24.5097 2.34527Z" fill="white"/>
<path d="M36.5532 32.0537H12.4467C8.72426 32.0537 5.6958 35.0821 5.6958 38.8045V47.8271C5.6958 48.4748 6.22084 48.9997 6.86843 48.9997C7.51603 48.9997 8.04107 48.4748 8.04107 47.8271V38.8045C8.04107 36.3753 10.0174 34.399 12.4467 34.399H36.5532C38.9825 34.399 40.9589 36.3753 40.9589 38.8046V47.8272C40.9589 48.4749 41.4839 48.9998 42.1316 48.9998C42.7793 48.9998 43.3042 48.4749 43.3042 47.8272V38.8046C43.3042 35.0822 40.2758 32.0537 36.5532 32.0537Z" fill="white"/>
</svg>
