<svg width="94" height="94" viewBox="0 0 94 94" fill="none" xmlns="http://www.w3.org/2000/svg">
<g filter="url(#filter0_d_1_172)">
<rect x="10" y="6" width="74" height="74" rx="5" fill="#F7F7F7"/>
</g>
<path d="M31.1084 71V65.36H33.6124C34.231 65.36 34.703 65.5093 35.0284 65.808C35.3537 66.1067 35.5164 66.5173 35.5164 67.04C35.5164 67.5573 35.3537 67.968 35.0284 68.272C34.703 68.576 34.231 68.728 33.6124 68.728H32.1404V71H31.1084ZM32.1404 67.912H33.4924C33.8337 67.912 34.0897 67.8373 34.2604 67.688C34.431 67.5333 34.5164 67.3173 34.5164 67.04C34.5164 66.7627 34.431 66.5493 34.2604 66.4C34.0897 66.2453 33.8337 66.168 33.4924 66.168H32.1404V67.912ZM37.4365 71V65.36H41.2365V66.168H38.4285V67.728H41.0525V68.544H38.4285V70.184H41.2365V71H37.4365ZM43.1943 71V65.36H45.6583C46.277 65.36 46.7543 65.5067 47.0903 65.8C47.4316 66.0933 47.6023 66.5013 47.6023 67.024C47.6023 67.3707 47.525 67.6667 47.3703 67.912C47.221 68.1573 47.005 68.3467 46.7223 68.48C46.4396 68.608 46.1063 68.672 45.7223 68.672L45.8343 68.52H46.1063C46.3303 68.52 46.5303 68.5787 46.7063 68.696C46.8823 68.8133 47.0263 68.992 47.1383 69.232L47.9623 71H46.8263L45.9943 69.168C45.9196 68.9813 45.805 68.8587 45.6503 68.8C45.501 68.7413 45.3196 68.712 45.1063 68.712H44.2263V71H43.1943ZM44.2263 67.952H45.4903C45.853 67.952 46.1276 67.8773 46.3143 67.728C46.5063 67.5733 46.6023 67.3493 46.6023 67.056C46.6023 66.7627 46.5063 66.5413 46.3143 66.392C46.1276 66.2427 45.853 66.168 45.4903 66.168H44.2263V67.952ZM49.8115 71V65.36H53.5315V66.168H50.8435V67.768H53.3475V68.576H50.8435V71H49.8115ZM55.3896 71V65.36H56.4216V71H55.3896ZM58.6631 71V65.36H59.6951V70.128H62.3511V71H58.6631Z" fill="#3BC1CD"/>
<path d="M46 18.0625C36.3672 18.0625 28.5625 25.8672 28.5625 35.5C28.5625 45.1328 36.3672 52.9375 46 52.9375C55.6328 52.9375 63.4375 45.1328 63.4375 35.5C63.4375 25.8672 55.6328 18.0625 46 18.0625ZM55 47.7344C52.4688 49.6328 49.3047 50.6875 46 50.6875C42.625 50.6875 39.4609 49.6328 37 47.7344V46.75C37 44.2891 38.9688 42.25 41.5 42.25C42.2734 42.25 43.3984 43.0938 46 43.0938C48.5312 43.0938 49.6562 42.25 50.5 42.25C52.9609 42.25 55 44.2891 55 46.75V47.7344ZM57.1094 45.8359C56.6172 42.5312 53.875 40 50.5 40C49.0234 40 48.3203 40.8438 46 40.8438C43.6094 40.8438 42.9062 40 41.5 40C38.0547 40 35.3125 42.5312 34.8203 45.8359C32.2891 43.0938 30.8125 39.5078 30.8125 35.5C30.8125 27.1328 37.5625 20.3125 46 20.3125C54.3672 20.3125 61.1875 27.1328 61.1875 35.5C61.1875 39.5078 59.6406 43.0938 57.1094 45.8359ZM46 25.9375C42.5547 25.9375 39.8125 28.75 39.8125 32.125C39.8125 35.5703 42.5547 38.3125 46 38.3125C49.375 38.3125 52.1875 35.5703 52.1875 32.125C52.1875 28.75 49.375 25.9375 46 25.9375ZM46 36.0625C43.8203 36.0625 42.0625 34.3047 42.0625 32.125C42.0625 30.0156 43.8203 28.1875 46 28.1875C48.1094 28.1875 49.9375 30.0156 49.9375 32.125C49.9375 34.3047 48.1094 36.0625 46 36.0625Z" fill="#3BC1CD"/>
<defs>
<filter id="filter0_d_1_172" x="0" y="0" width="94" height="94" filterUnits="userSpaceOnUse" color-interpolation-filters="sRGB">
<feFlood flood-opacity="0" result="BackgroundImageFix"/>
<feColorMatrix in="SourceAlpha" type="matrix" values="0 0 0 0 0 0 0 0 0 0 0 0 0 0 0 0 0 0 127 0" result="hardAlpha"/>
<feOffset dy="4"/>
<feGaussianBlur stdDeviation="5"/>
<feColorMatrix type="matrix" values="0 0 0 0 0 0 0 0 0 0 0 0 0 0 0 0 0 0 0.25 0"/>
<feBlend mode="normal" in2="BackgroundImageFix" result="effect1_dropShadow_1_172"/>
<feBlend mode="normal" in="SourceGraphic" in2="effect1_dropShadow_1_172" result="shape"/>
</filter>
</defs>
</svg>
