<svg width="2220" height="36" viewBox="0 0 2220 36" fill="none" xmlns="http://www.w3.org/2000/svg">
<path d="M31.6138 20.25C32.0818 20.25 32.4829 19.9688 32.6166 19.4766L35.6918 11.4609L41.3074 35.0859C41.4411 35.6484 41.8422 35.9297 42.377 36C42.845 35.9297 43.313 35.5781 43.3798 35.0859L48.8617 6.1875L52.0038 19.3359C52.1375 19.8281 52.6055 20.25 53.0066 20.25H1081.47C1081.8 20.25 1082 19.9689 1082 19.6876V18.5626C1082 18.211 1081.8 18.0001 1081.47 18.0001L53.8757 18L49.7977 0.84375C49.664 0.28125 49.2629 4.92e-08 48.728 0C48.2601 -4.3e-08 47.7921 0.351562 47.7252 0.84375L42.2434 29.7422L36.962 7.59375C36.8283 7.10156 36.4272 6.75 36.026 6.75C35.4912 6.67969 35.0902 6.96094 34.9564 7.45312L30.9453 18H0.53482C0.267411 18 1.22738e-07 18.2109 9.35103e-08 18.5625L0 19.6875C-2.33704e-08 19.9688 0.26741 20.25 0.534819 20.25H31.6138Z" fill="#FFE624"/>
<path d="M1169.61 20.25C1170.08 20.25 1170.48 19.9688 1170.62 19.4766L1173.69 11.4609L1179.31 35.0859C1179.44 35.6484 1179.84 35.9297 1180.38 36C1180.85 35.9297 1181.31 35.5781 1181.38 35.0859L1186.86 6.1875L1190 19.3359C1190.14 19.8281 1190.61 20.25 1191.01 20.25H2219.47C2219.8 20.25 2220 19.9689 2220 19.6876V18.5626C2220 18.211 2219.8 18.0001 2219.47 18.0001L1191.88 18L1187.8 0.84375C1187.66 0.28125 1187.26 4.92e-08 1186.73 0C1186.26 -4.3e-08 1185.79 0.351562 1185.73 0.84375L1180.24 29.7422L1174.96 7.59375C1174.83 7.10156 1174.43 6.75 1174.03 6.75C1173.49 6.67969 1173.09 6.96094 1172.96 7.45312L1168.95 18H1046.53C1046.27 18 1046 18.2109 1046 18.5625V19.6875C1046 19.9688 1046.27 20.25 1046.53 20.25H1169.61Z" fill="#FFE624"/>
</svg>
