<svg width="119" height="103" viewBox="0 0 119 103" fill="none" xmlns="http://www.w3.org/2000/svg">
<path d="M5.42383 98.3887H2.59863L2.06152 100H0.348145L3.25928 92.1797H4.75244L7.67969 100H5.96631L5.42383 98.3887ZM3.03369 97.0835H4.98877L4.00586 94.1562L3.03369 97.0835ZM13.6523 93.4849H11.2568V100H9.64551V93.4849H7.28223V92.1797H13.6523V93.4849ZM19.2812 96.6108H16.1875V98.7056H19.8184V100H14.5762V92.1797H19.8076V93.4849H16.1875V95.3486H19.2812V96.6108ZM27.123 100H25.5117L22.375 94.8545V100H20.7637V92.1797H22.375L25.5171 97.3359V92.1797H27.123V100ZM34.6694 97.395C34.6086 98.2365 34.297 98.8989 33.7349 99.3823C33.1763 99.8657 32.4386 100.107 31.522 100.107C30.5194 100.107 29.7298 99.7708 29.1533 99.0977C28.5804 98.4209 28.2939 97.4935 28.2939 96.3154V95.8374C28.2939 95.0854 28.4264 94.423 28.6914 93.8501C28.9564 93.2772 29.3341 92.8385 29.8247 92.5342C30.3188 92.2262 30.8918 92.0723 31.5435 92.0723C32.4458 92.0723 33.1727 92.314 33.7241 92.7974C34.2756 93.2808 34.5942 93.9593 34.6802 94.833H33.0688C33.0295 94.3281 32.888 93.9629 32.6445 93.7373C32.4046 93.5081 32.0376 93.3936 31.5435 93.3936C31.0063 93.3936 30.6035 93.5869 30.335 93.9736C30.07 94.3568 29.9339 94.953 29.9268 95.7622V96.353C29.9268 97.1981 30.0539 97.8158 30.3081 98.2061C30.5659 98.5964 30.9705 98.7915 31.522 98.7915C32.0197 98.7915 32.3903 98.6787 32.6338 98.4531C32.8809 98.224 33.0223 97.8713 33.0581 97.395H34.6694ZM37.4409 100H35.8296V92.1797H37.4409V100ZM45.3633 96.2671C45.3633 97.0369 45.2272 97.7119 44.9551 98.292C44.6829 98.8721 44.2926 99.3197 43.7842 99.6348C43.2793 99.9499 42.6992 100.107 42.0439 100.107C41.3958 100.107 40.8175 99.9517 40.3091 99.6401C39.8006 99.3286 39.4067 98.8846 39.1274 98.3081C38.8481 97.728 38.7067 97.062 38.7031 96.3101V95.9233C38.7031 95.1535 38.841 94.4767 39.1167 93.8931C39.396 93.3058 39.7881 92.8564 40.293 92.5449C40.8014 92.2298 41.3815 92.0723 42.0332 92.0723C42.6849 92.0723 43.2632 92.2298 43.7681 92.5449C44.2765 92.8564 44.6686 93.3058 44.9443 93.8931C45.2236 94.4767 45.3633 95.1517 45.3633 95.918V96.2671ZM43.7305 95.9126C43.7305 95.0926 43.5837 94.4696 43.29 94.0435C42.9964 93.6174 42.5775 93.4043 42.0332 93.4043C41.4925 93.4043 41.0754 93.6156 40.7817 94.0381C40.4881 94.457 40.3395 95.0729 40.3359 95.8857V96.2671C40.3359 97.0656 40.4827 97.6851 40.7764 98.1255C41.07 98.5659 41.4925 98.7861 42.0439 98.7861C42.5846 98.7861 43 98.5749 43.29 98.1523C43.5801 97.7262 43.7269 97.1068 43.7305 96.2939V95.9126ZM42.3447 90.085H44.0366L42.5488 91.75H41.2866L42.3447 90.085ZM52.8936 100H51.2822L48.1455 94.8545V100H46.5342V92.1797H48.1455L51.2876 97.3359V92.1797H52.8936V100ZM61.4551 98.3887H58.6299L58.0928 100H56.3794L59.2905 92.1797H60.7837L63.7109 100H61.9976L61.4551 98.3887ZM59.0649 97.0835H61.02L60.0371 94.1562L59.0649 97.0835ZM70.5107 99.0117C70.2207 99.359 69.8107 99.6294 69.2808 99.8228C68.7508 100.013 68.1636 100.107 67.519 100.107C66.8423 100.107 66.2479 99.9606 65.7358 99.667C65.2274 99.3698 64.8335 98.9401 64.5542 98.3779C64.2785 97.8158 64.137 97.1551 64.1299 96.396V95.8643C64.1299 95.0837 64.2606 94.4087 64.522 93.8394C64.7869 93.2664 65.1665 92.8296 65.6606 92.5288C66.1584 92.2244 66.7402 92.0723 67.4062 92.0723C68.3337 92.0723 69.0588 92.2943 69.5815 92.7383C70.1043 93.1787 70.4141 93.8215 70.5107 94.6665H68.9424C68.8708 94.2189 68.7114 93.8913 68.4644 93.6836C68.2209 93.4759 67.8843 93.3721 67.4546 93.3721C66.9067 93.3721 66.4896 93.578 66.2031 93.9897C65.9167 94.4015 65.7716 95.0138 65.7681 95.8267V96.3262C65.7681 97.1462 65.9238 97.7656 66.2354 98.1846C66.5469 98.6035 67.0034 98.813 67.605 98.813C68.2101 98.813 68.6416 98.6841 68.8994 98.4263V97.0781H67.4331V95.8911H70.5107V99.0117ZM76.5264 96.6108H73.4326V98.7056H77.0635V100H71.8213V92.1797H77.0527V93.4849H73.4326V95.3486H76.5264V96.6108ZM84.3682 100H82.7568L79.6201 94.8545V100H78.0088V92.1797H79.6201L82.7622 97.3359V92.1797H84.3682V100ZM85.7754 100V92.1797H88.1816C88.8691 92.1797 89.4832 92.3354 90.0239 92.647C90.5682 92.9549 90.9925 93.3953 91.2969 93.9683C91.6012 94.5376 91.7534 95.1857 91.7534 95.9126V96.2725C91.7534 96.9993 91.603 97.6457 91.3022 98.2114C91.005 98.7772 90.5843 99.2158 90.04 99.5273C89.4958 99.8389 88.8817 99.9964 88.1978 100H85.7754ZM87.3867 93.4849V98.7056H88.1655C88.7957 98.7056 89.2773 98.4997 89.6104 98.0879C89.9434 97.6761 90.1134 97.0871 90.1206 96.3208V95.9072C90.1206 95.1123 89.9559 94.5107 89.6265 94.1025C89.297 93.6908 88.8154 93.4849 88.1816 93.4849H87.3867ZM97.2266 98.3887H94.4014L93.8643 100H92.1509L95.062 92.1797H96.5552L99.4824 100H97.769L97.2266 98.3887ZM94.8364 97.0835H96.7915L95.8086 94.1562L94.8364 97.0835ZM100.213 100V92.1797H102.952C103.901 92.1797 104.621 92.3623 105.111 92.7275C105.602 93.0892 105.847 93.6209 105.847 94.3228C105.847 94.7059 105.749 95.0443 105.552 95.3379C105.355 95.6279 105.081 95.841 104.73 95.9771C105.131 96.0773 105.446 96.2796 105.675 96.584C105.908 96.8883 106.024 97.2607 106.024 97.7012C106.024 98.4531 105.785 99.0225 105.305 99.4092C104.825 99.7959 104.141 99.9928 103.253 100H100.213ZM101.824 96.5947V98.7056H103.205C103.584 98.7056 103.88 98.616 104.091 98.437C104.306 98.2544 104.413 98.0037 104.413 97.6851C104.413 96.9689 104.042 96.6055 103.301 96.5947H101.824ZM101.824 95.4561H103.017C103.829 95.4417 104.236 95.1177 104.236 94.4839C104.236 94.1294 104.132 93.8752 103.924 93.7212C103.72 93.5636 103.396 93.4849 102.952 93.4849H101.824V95.4561ZM108.85 98.7056H112.271V100H107.238V92.1797H108.85V98.7056ZM117.905 96.6108H114.812V98.7056H118.442V100H113.2V92.1797H118.432V93.4849H114.812V95.3486H117.905V96.6108Z" fill="white"/>
<g clip-path="url(#clip0_2_171)">
<path d="M83.6494 18.9744C80.4446 17.7846 77.4122 17.9806 74.4373 18.6804C74.6098 18.4985 74.811 18.3305 74.9834 18.1345C78.2745 14.2293 79.4098 8.37835 77.7715 3.60524C77.7427 3.52125 77.6853 3.45127 77.6421 3.39528C77.599 2.94736 77.2972 2.54144 76.6936 2.59743C68.9474 3.19931 62.2216 8.6303 59.994 15.629C58.2551 10.5619 54.3748 5.84482 50.2789 2.87737C49.9771 2.65342 49.6897 2.66741 49.431 2.77939C49.4023 2.77939 49.3735 2.80739 49.3448 2.82139C49.2873 2.86338 49.2298 2.89137 49.1723 2.94736C49.1292 2.97536 49.0861 2.98935 49.0573 3.03135C47.4909 4.73903 46.6861 7.28655 46.0824 9.44215C45.9818 9.80608 46.0824 10.086 46.298 10.296C46.413 10.45 46.5567 10.5759 46.7866 10.6459C52.3484 12.2976 56.5017 16.5528 58.0539 21.9558C51.8741 20.948 46.5998 17.1547 39.9171 17.9666C33.4643 18.7504 28.4487 23.0896 25.7612 28.7306C18.8486 43.2878 26.8247 60.7426 36.5685 72.1925C41.6704 78.1973 46.4274 77.5395 53.4119 75.2719C58.485 73.6342 61.9198 74.586 66.8492 75.7898C69.5798 76.4617 72.6553 77.1615 75.4864 76.7136C82.2841 75.6638 86.653 67.6293 89.1106 62.1283C92.7034 54.0378 95.4915 45.7234 95.2184 36.821C95.0029 29.4304 91.0938 21.7459 83.635 18.9884L83.6494 18.9744ZM75.9607 4.62705C77.211 8.89625 76.1331 14.2573 72.9139 17.4627C69.9391 20.4301 65.3546 21.4239 61.2156 22.0118C61.23 21.9278 61.2587 21.8578 61.2443 21.7599C60.612 13.4034 67.4384 5.70485 75.9607 4.64105V4.62705ZM48.2669 9.09222C48.6549 7.72047 49.1723 6.26474 49.9771 5.10296C53.7424 8.07041 57.2203 12.8015 58.4563 17.6306C56.2862 13.6974 52.6646 10.6599 48.2669 9.10621V9.09222ZM79.9847 72.1785C73.3307 78.2393 65.915 71.8005 58.4563 72.0945C54.8921 72.2344 51.7448 74.0541 48.3531 74.88C42.274 76.3497 38.6955 72.0805 35.6631 67.6153C30.5469 60.0707 25.8331 51.8962 25.2295 42.686C24.6259 33.4617 28.7505 21.8998 39.2416 20.0102C46.7579 18.6524 52.5209 23.5515 59.6635 24.0694C59.7928 24.1114 59.9222 24.1254 60.0946 24.1114C62.1497 24.0834 64.1617 23.6355 66.145 23.0336C67.0935 22.7957 68.0276 22.4877 68.933 22.1378C73.1726 20.71 77.3691 19.2263 81.7668 20.4021C93.7382 23.5795 94.4424 38.0808 92.1717 47.767C90.2315 56.0675 86.4806 66.2436 79.9703 72.1645L79.9847 72.1785Z" fill="white" stroke="white" stroke-width="3" stroke-miterlimit="10"/>
</g>
<defs>
<clipPath id="clip0_2_171">
<rect width="99" height="89" fill="white" transform="translate(11)"/>
</clipPath>
</defs>
</svg>
