<svg width="90" height="68" viewBox="0 0 90 68" fill="none" xmlns="http://www.w3.org/2000/svg">
<g clip-path="url(#clip0_2_193)">
<path d="M41.625 23H33.75V15.125C33.75 14.5625 33.1875 14 32.625 14H25.875C25.1719 14 24.75 14.5625 24.75 15.125V23H16.875C16.1719 23 15.75 23.5625 15.75 24.125V30.875C15.75 31.5781 16.1719 32 16.875 32H24.75V39.875C24.75 40.5781 25.1719 41 25.875 41H32.625C33.1875 41 33.75 40.5781 33.75 39.875V32H41.625C42.1875 32 42.75 31.5781 42.75 30.875V24.125C42.75 23.5625 42.1875 23 41.625 23ZM88.875 50H85.5V34.8125C85.5 32.5625 84.5156 30.1719 82.8281 28.4844L71.0156 16.6719C69.3281 14.9844 67.0781 14 64.6875 14H58.5V7.10938C58.5 3.45312 55.2656 0.5 51.4688 0.5H6.89062C3.09375 0.5 0 3.45312 0 7.10938V48.0312C0 51.6875 3.09375 54.5 6.89062 54.5H9.14062C9 55.3438 9 56.0469 9 56.75C9 63.0781 13.9219 68 20.25 68C26.4375 68 31.5 63.0781 31.5 56.75C31.5 56.0469 31.3594 55.3438 31.2188 54.5H58.6406C58.5 55.3438 58.5 56.0469 58.5 56.75C58.5 63.0781 63.4219 68 69.75 68C75.9375 68 81 63.0781 81 56.75C81 56.0469 80.8594 55.3438 80.7188 54.5H88.875C89.4375 54.5 90 54.0781 90 53.375V51.125C90 50.5625 89.4375 50 88.875 50ZM20.25 63.5C16.4531 63.5 13.5 60.5469 13.5 56.75C13.5 53.0938 16.4531 50 20.25 50C23.9062 50 27 53.0938 27 56.75C27 60.5469 23.9062 63.5 20.25 63.5ZM54 50H29.1094C27.1406 47.3281 23.9062 45.5 20.25 45.5C16.5938 45.5 13.3594 47.3281 11.25 50H6.89062C5.48438 50 4.5 49.1562 4.5 48.0312V7.10938C4.5 5.98438 5.48438 5 6.89062 5H51.4688C52.875 5 54 5.98438 54 7.10938V50ZM58.5 18.5H64.6875C65.8125 18.5 66.9375 19.0625 67.7812 19.9062L79.5938 31.7188C79.7344 31.8594 79.7344 32 79.875 32.1406H58.5V18.5ZM69.75 63.5C65.9531 63.5 63 60.5469 63 56.75C63 53.0938 65.9531 50 69.75 50C73.4062 50 76.5 53.0938 76.5 56.75C76.5 60.5469 73.4062 63.5 69.75 63.5ZM81 50H78.6094C76.6406 47.3281 73.4062 45.5 69.75 45.5C66.0938 45.5 62.8594 47.3281 60.75 50H58.5V36.5H81V50Z" fill="white"/>
</g>
<defs>
<clipPath id="clip0_2_193">
<rect width="90" height="68" fill="white"/>
</clipPath>
</defs>
</svg>
