<svg width="106" height="90" viewBox="0 0 106 90" fill="none" xmlns="http://www.w3.org/2000/svg">
<g clip-path="url(#clip0_1_341)">
<path d="M47.7738 66.4589C46.3267 66.4589 17.4349 66.0593 0.800795 36.1458L0 34.7017L1.0326 33.4187C1.95282 32.276 23.8834 5.43307 53.7867 5.43307H53.9272C71.7695 5.48215 88.4738 15.1425 103.57 34.1338L104.321 35.0802L104.026 36.251C103.914 36.6996 101.132 47.3555 87.6239 55.2492L85.1372 51.0149C94.4868 45.5538 97.8656 38.7817 98.8842 36.1598C85.0037 19.0824 69.8869 10.3965 53.9413 10.3404H53.7938C29.791 10.3404 10.607 30.0327 5.94977 35.2415C21.3124 61.2081 46.692 61.5516 47.7878 61.5516V66.4589H47.7808H47.7738Z" fill="#3A5160"/>
<path d="M52.2976 59.4555C39.3093 59.4555 28.7444 48.9118 28.7444 35.9495C28.7444 22.9872 39.3093 12.4435 52.2976 12.4435C65.2859 12.4435 75.8508 22.9872 75.8508 35.9495C75.8508 48.9118 65.2859 59.4555 52.2976 59.4555ZM52.2976 17.3508C42.0207 17.3508 33.6615 25.6932 33.6615 35.9495C33.6615 46.2058 42.0207 54.5482 52.2976 54.5482C62.5745 54.5482 70.9337 46.2058 70.9337 35.9495C70.9337 25.6932 62.5745 17.3508 52.2976 17.3508Z" fill="#3A5160"/>
<path d="M52.2975 47.0961C46.137 47.0961 41.1285 42.0977 41.1285 35.9495C41.1285 29.8014 46.137 24.8029 52.2975 24.8029C58.458 24.8029 63.4665 29.8014 63.4665 35.9495C63.4665 42.0977 58.458 47.0961 52.2975 47.0961ZM52.2975 29.7032C48.8485 29.7032 46.0457 32.5004 46.0457 35.9425C46.0457 39.3846 48.8485 42.1818 52.2975 42.1818C55.7466 42.1818 58.5493 39.3846 58.5493 35.9425C58.5493 32.5004 55.7466 29.7032 52.2975 29.7032Z" fill="#3A5160"/>
<path d="M64.5905 65.6247C74.6618 65.6247 82.8262 57.4767 82.8262 47.4256C82.8262 37.3745 74.6618 29.2265 64.5905 29.2265C54.5192 29.2265 46.3549 37.3745 46.3549 47.4256C46.3549 57.4767 54.5192 65.6247 64.5905 65.6247Z" fill="white"/>
<path d="M64.5905 68.0713C53.1827 68.0713 43.8962 58.8105 43.8962 47.4186C43.8962 36.0266 53.1756 26.7658 64.5905 26.7658C76.0053 26.7658 85.2847 36.0266 85.2847 47.4186C85.2847 58.8105 76.0053 68.0713 64.5905 68.0713V68.0713ZM64.5905 31.6802C55.8941 31.6802 48.8134 38.7397 48.8134 47.4256C48.8134 56.1115 55.8871 63.171 64.5905 63.171C73.2939 63.171 80.3675 56.1115 80.3675 47.4256C80.3675 38.7397 73.2939 31.6802 64.5905 31.6802V31.6802Z" fill="#3A5160"/>
<path d="M97.0226 90L76.0052 69.0248L84.9826 60.0584L106.007 81.0407L97.0226 90ZM82.9525 69.0248L97.0226 83.0667L99.0527 81.0407L84.9826 66.9987L82.9525 69.0248V69.0248Z" fill="#3A5160"/>
<path d="M78.5208 58.9062L75.3752 62.6781L81.2495 67.5573L84.3951 63.7855L78.5208 58.9062Z" fill="#3A5160"/>
<path d="M96.6784 46.1217C96.4677 46.0656 91.5154 44.7476 89.7031 39.5599C87.7292 33.9165 90.3564 26.2751 97.5143 16.8461L101.434 19.8045C95.5404 27.572 93.0186 33.9866 94.3252 37.8774C95.2384 40.5834 97.8234 41.3405 97.9288 41.3686L96.6784 46.1146V46.1217Z" fill="#3A5160"/>
<path d="M77.583 3.51144L74.646 11.591L79.2684 13.2645L82.2054 5.185L77.583 3.51144Z" fill="#3A5160"/>
<path d="M54.7562 0H49.839V8.39149H54.7562V0Z" fill="#3A5160"/>
<path d="M28.2542 5.57978L23.7179 7.47354L26.9085 15.0857L31.4448 13.1919L28.2542 5.57978Z" fill="#3A5160"/>
<path d="M8.10142 19.4458L4.0249 22.1899L8.37327 28.6237L12.4498 25.8796L8.10142 19.4458Z" fill="#3A5160"/>
</g>
<defs>
<clipPath id="clip0_1_341">
<rect width="106" height="90" fill="white"/>
</clipPath>
</defs>
</svg>
