<svg width="119" height="103" viewBox="0 0 119 103" fill="none" xmlns="http://www.w3.org/2000/svg">
<g clip-path="url(#clip0_2_220)">
<path d="M31.1313 45.7241L26.7668 44.9526C31.277 19.5423 48.684 16.9621 57.0517 15.7289C58.458 15.5202 59.6742 15.3431 60.4597 15.1154C63.1771 14.3249 63.9056 11.8332 64.0956 10.796C64.4567 8.80395 63.8929 6.81186 62.7211 5.93913C61.3845 4.94624 59.4335 5.57866 58.0399 6.28696C57.7169 6.45138 57.5458 6.64111 57.4508 6.95731C57.0644 8.17154 57.8879 10.3534 58.344 11.2198L54.4293 13.3004C54.1949 12.864 52.1742 8.93676 53.2194 5.62925C53.6755 4.18103 54.651 3.04269 56.0319 2.34071C60.8271 -0.0877474 63.9373 1.32885 65.3688 2.3913C67.9153 4.28221 69.1252 7.88696 68.4601 11.5802C67.7633 15.4253 65.2422 18.3344 61.7012 19.3652C60.6307 19.6751 59.2751 19.8775 57.7042 20.1115C49.2414 21.3636 35.0839 23.4569 31.1313 45.7304V45.7241Z" fill="white"/>
<path d="M60.1873 81C59.9782 81 59.8262 81 59.7375 80.9937C59.5538 80.9937 59.3765 80.9937 59.1991 80.9937C37.7634 80.9937 30.9792 64.102 29.3449 58.6379C24.6575 58.0814 17.9556 55.4506 18 48.2221C18.0253 44.3897 19.2035 41.3984 21.5029 39.3368C25.1452 36.0672 30.2191 36.5352 30.4345 36.5605L29.9974 40.9684C29.9657 40.9684 26.6085 40.6901 24.4421 42.6506C23.1182 43.8522 22.4467 45.7368 22.4277 48.2538C22.3961 54.0846 30.7638 54.3312 31.1186 54.3375L32.9175 54.3755L33.2596 56.1399C33.4243 56.9747 37.4783 76.5731 59.1991 76.5731C59.3765 76.5731 59.5538 76.5731 59.7312 76.5731H59.8769C60.675 76.6111 79.672 77.1992 86.6968 55.5138L87.2606 53.7747L89.0786 53.9961C89.0786 53.9961 92.1761 54.3059 94.2981 52.3834C95.8501 50.9731 96.6165 48.6142 96.5722 45.3763V45.2877C96.5722 45.2877 96.5469 43.8016 95.318 42.6253C94.0511 41.4174 91.8341 40.8356 88.8949 40.9494L88.7302 36.5225C93.0249 36.3581 96.3062 37.37 98.4852 39.5202C100.905 41.9107 101.013 44.7881 101.006 45.332C101.07 49.9107 99.7964 53.3953 97.2373 55.6909C94.9506 57.7462 92.1824 58.2901 90.3961 58.404C86.0507 70.3439 78.2214 75.8585 72.2923 78.3818C66.6864 80.7723 61.7835 80.9937 60.1936 80.9937L60.1873 81Z" fill="white"/>
<path d="M87.1277 45.4205C86.4815 27.2198 67.966 21.7304 67.1805 21.5028L68.3904 17.2403C68.6121 17.3036 90.8016 23.7984 91.5618 45.2624L87.1277 45.4205Z" fill="white"/>
<path d="M50.2802 49.7652C51.7495 49.7652 52.9407 48.576 52.9407 47.1091C52.9407 45.6422 51.7495 44.453 50.2802 44.453C48.8109 44.453 47.6198 45.6422 47.6198 47.1091C47.6198 48.576 48.8109 49.7652 50.2802 49.7652Z" fill="white"/>
<path d="M59.8009 66.8846C54.328 66.8846 50.35 63.0016 50.2866 62.9383L52.529 60.7059L51.4078 61.8253L52.5227 60.7059C52.8014 60.9779 59.4082 67.3399 66.7118 60.6617L68.8528 62.9953C65.6603 65.917 62.5437 66.8909 59.8009 66.8909V66.8846Z" fill="white"/>
<path d="M66.4204 49.7652C67.8897 49.7652 69.0808 48.576 69.0808 47.1091C69.0808 45.6422 67.8897 44.453 66.4204 44.453C64.951 44.453 63.7599 45.6422 63.7599 47.1091C63.7599 48.576 64.951 49.7652 66.4204 49.7652Z" fill="white"/>
</g>
<defs>
<clipPath id="clip0_2_220">
<rect width="83" height="80" fill="white" transform="translate(18 1)"/>
</clipPath>
</defs>
</svg>
