<svg width="90" height="72" viewBox="0 0 90 72" fill="none" xmlns="http://www.w3.org/2000/svg">
<g clip-path="url(#clip0_35_186)">
<mask id="mask0_35_186" style="mask-type:alpha" maskUnits="userSpaceOnUse" x="0" y="0" width="90" height="72">
<path d="M90 0H0V72H90V0Z" fill="white"/>
</mask>
<g mask="url(#mask0_35_186)">
<path d="M22.5 36C22.5 36.1406 22.3594 36.1406 22.3594 36.2812C28.9688 33.75 36.8438 31.5 45 31.5C51.1875 31.5 57.5156 32.9062 63 34.7344C62.8594 33.3281 63 31.9219 63.9844 30.2344C58.0781 28.4062 51.6094 27 45 27C36.2812 27 27.9844 29.25 21.0938 31.9219C21.9375 33.1875 22.5 34.4531 22.5 36ZM69.75 36C70.875 36 72 35.0156 72 33.75C72 32.625 70.875 31.5 69.75 31.5C68.4844 31.5 67.5 32.625 67.5 33.75C67.5 35.0156 68.4844 36 69.75 36ZM82.125 46.2656L79.5938 50.0625C78.8906 51.0469 77.625 51.3281 76.6406 50.625C73.5469 48.7969 66.5156 45.1406 58.5 42.75V62.4375C58.5 62.8594 58.6406 63 59.0625 63H62.4375C62.7188 63 63 62.8594 63 62.4375V49.0781C68.2031 51.1875 72.4219 53.4375 74.3906 54.5625C77.2031 56.25 81.2812 55.6875 83.3906 52.4531L85.9219 48.7969C87.75 45.9844 87.4688 41.4844 83.8125 39.2344C81.9844 38.25 79.4531 36.7031 76.3594 35.1562C75.9375 36.7031 75.0938 38.1094 73.8281 39.0938C77.2031 40.6406 79.875 42.0469 81.4219 43.0312C82.5469 43.7344 82.8281 45.1406 82.125 46.2656ZM58.5 13.5C58.5 6.1875 52.3125 0 45 0C37.5469 0 31.5 6.1875 31.5 13.5C31.5 20.9531 37.5469 27 45 27C52.3125 27 58.5 20.9531 58.5 13.5ZM45 22.5C39.9375 22.5 36 18.5625 36 13.5C36 8.57812 39.9375 4.5 45 4.5C49.9219 4.5 54 8.57812 54 13.5C54 18.5625 49.9219 22.5 45 22.5ZM6.46875 52.4531C8.57812 55.6875 12.6562 56.25 15.4688 54.5625C17.4375 53.4375 21.6562 51.0469 27 49.0781V62.4375C27 62.8594 27.1406 63 27.5625 63H30.9375C31.2188 63 31.5 62.8594 31.5 62.4375V42.75C23.3438 45.1406 16.3125 48.7969 13.2188 50.7656C12.2344 51.3281 10.9688 51.0469 10.2656 50.0625L7.73438 46.2656C7.03125 45.1406 7.3125 43.7344 8.4375 43.0312C9.28125 42.6094 10.2656 42.0469 11.5312 41.3438C10.2656 40.3594 9.42188 39.0938 9.14062 37.5469C8.01562 38.1094 6.89062 38.8125 6.04688 39.2344C2.39062 41.4844 2.10938 45.9844 3.9375 48.7969L6.46875 52.4531ZM88.875 67.5H1.125C0.421875 67.5 0 68.0625 0 68.625V70.875C0 71.5781 0.421875 72 1.125 72H88.875C89.4375 72 90 71.5781 90 70.875V68.625C90 68.0625 89.4375 67.5 88.875 67.5ZM15.75 38.25C16.875 38.25 18 37.2656 18 36C18 34.875 16.875 33.75 15.75 33.75C14.4844 33.75 13.5 34.875 13.5 36C13.5 37.2656 14.4844 38.25 15.75 38.25ZM36 42.75C36 44.0156 36.9844 45 38.25 45C39.375 45 40.5 44.0156 40.5 42.75C40.5 41.625 39.375 40.5 38.25 40.5C36.9844 40.5 36 41.625 36 42.75ZM49.5 56.25C49.5 57.5156 50.4844 58.5 51.75 58.5C52.875 58.5 54 57.5156 54 56.25C54 55.125 52.875 54 51.75 54C50.4844 54 49.5 55.125 49.5 56.25Z" fill="#25A73A"/>
<path d="M22.5 36C22.5 36.1406 22.3594 36.1406 22.3594 36.2812C28.9688 33.75 36.8438 31.5 45 31.5C51.1875 31.5 57.5156 32.9062 63 34.7344C62.8594 33.3281 63 31.9219 63.9844 30.2344C58.0781 28.4062 51.6094 27 45 27C36.2812 27 27.9844 29.25 21.0938 31.9219C21.9375 33.1875 22.5 34.4531 22.5 36ZM69.75 36C70.875 36 72 35.0156 72 33.75C72 32.625 70.875 31.5 69.75 31.5C68.4844 31.5 67.5 32.625 67.5 33.75C67.5 35.0156 68.4844 36 69.75 36ZM82.125 46.2656L79.5938 50.0625C78.8906 51.0469 77.625 51.3281 76.6406 50.625C73.5469 48.7969 66.5156 45.1406 58.5 42.75V62.4375C58.5 62.8594 58.6406 63 59.0625 63H62.4375C62.7188 63 63 62.8594 63 62.4375V49.0781C68.2031 51.1875 72.4219 53.4375 74.3906 54.5625C77.2031 56.25 81.2812 55.6875 83.3906 52.4531L85.9219 48.7969C87.75 45.9844 87.4688 41.4844 83.8125 39.2344C81.9844 38.25 79.4531 36.7031 76.3594 35.1562C75.9375 36.7031 75.0938 38.1094 73.8281 39.0938C77.2031 40.6406 79.875 42.0469 81.4219 43.0312C82.5469 43.7344 82.8281 45.1406 82.125 46.2656ZM58.5 13.5C58.5 6.1875 52.3125 0 45 0C37.5469 0 31.5 6.1875 31.5 13.5C31.5 20.9531 37.5469 27 45 27C52.3125 27 58.5 20.9531 58.5 13.5ZM45 22.5C39.9375 22.5 36 18.5625 36 13.5C36 8.57812 39.9375 4.5 45 4.5C49.9219 4.5 54 8.57812 54 13.5C54 18.5625 49.9219 22.5 45 22.5ZM6.46875 52.4531C8.57812 55.6875 12.6562 56.25 15.4688 54.5625C17.4375 53.4375 21.6562 51.0469 27 49.0781V62.4375C27 62.8594 27.1406 63 27.5625 63H30.9375C31.2188 63 31.5 62.8594 31.5 62.4375V42.75C23.3438 45.1406 16.3125 48.7969 13.2188 50.7656C12.2344 51.3281 10.9688 51.0469 10.2656 50.0625L7.73438 46.2656C7.03125 45.1406 7.3125 43.7344 8.4375 43.0312C9.28125 42.6094 10.2656 42.0469 11.5312 41.3438C10.2656 40.3594 9.42188 39.0938 9.14062 37.5469C8.01562 38.1094 6.89062 38.8125 6.04688 39.2344C2.39062 41.4844 2.10938 45.9844 3.9375 48.7969L6.46875 52.4531ZM88.875 67.5H1.125C0.421875 67.5 0 68.0625 0 68.625V70.875C0 71.5781 0.421875 72 1.125 72H88.875C89.4375 72 90 71.5781 90 70.875V68.625C90 68.0625 89.4375 67.5 88.875 67.5ZM15.75 38.25C16.875 38.25 18 37.2656 18 36C18 34.875 16.875 33.75 15.75 33.75C14.4844 33.75 13.5 34.875 13.5 36C13.5 37.2656 14.4844 38.25 15.75 38.25ZM36 42.75C36 44.0156 36.9844 45 38.25 45C39.375 45 40.5 44.0156 40.5 42.75C40.5 41.625 39.375 40.5 38.25 40.5C36.9844 40.5 36 41.625 36 42.75ZM49.5 56.25C49.5 57.5156 50.4844 58.5 51.75 58.5C52.875 58.5 54 57.5156 54 56.25C54 55.125 52.875 54 51.75 54C50.4844 54 49.5 55.125 49.5 56.25Z" fill="#25A73A"/>
</g>
</g>
<defs>
<clipPath id="clip0_35_186">
<rect width="90" height="72" fill="white"/>
</clipPath>
</defs>
</svg>
