<svg width="118" height="88" viewBox="0 0 118 88" fill="none" xmlns="http://www.w3.org/2000/svg">
<path d="M5.47939 85.6414H2.56687L2.01316 87.1242H0.246826L3.24793 79.9276H4.78725L7.80497 87.1242H6.03863L5.47939 85.6414ZM3.01538 84.4403H5.03088L4.01759 81.7465L3.01538 84.4403ZM13.9622 81.1287H11.4927V87.1242H9.83155V81.1287H7.39523V79.9276H13.9622V81.1287ZM19.7651 84.0053H16.5757V85.9331H20.3189V87.1242H14.9146V79.9276H20.3077V81.1287H16.5757V82.8438H19.7651V84.0053ZM27.8492 87.1242H26.1881L22.9545 82.3891V87.1242H21.2934V79.9276H22.9545L26.1937 84.6726V79.9276H27.8492V87.1242ZM35.6289 84.727C35.5662 85.5014 35.245 86.111 34.6655 86.5558C34.0896 87.0006 33.3291 87.2227 32.3842 87.2227C31.3506 87.2227 30.5366 86.9133 29.9423 86.2939C29.3517 85.6711 29.0563 84.8176 29.0563 83.7335V83.2936C29.0563 82.6016 29.1929 81.992 29.4661 81.4648C29.7393 80.9376 30.1287 80.5339 30.6344 80.2539C31.1438 79.9704 31.7345 79.8288 32.4064 79.8288C33.3366 79.8288 34.0859 80.0512 34.6544 80.4961C35.2228 80.9409 35.5514 81.5653 35.64 82.3693H33.9788C33.9383 81.9047 33.7924 81.5686 33.5414 81.361C33.2941 81.1501 32.9157 81.0447 32.4064 81.0447C31.8526 81.0447 31.4373 81.2226 31.1605 81.5785C30.8873 81.9311 30.747 82.4798 30.7397 83.2244V83.7681C30.7397 84.5458 30.8707 85.1142 31.1328 85.4734C31.3986 85.8326 31.8157 86.0121 32.3842 86.0121C32.8973 86.0121 33.2793 85.9083 33.5304 85.7007C33.7851 85.4899 33.9309 85.1653 33.9678 84.727H35.6289ZM38.486 87.1242H36.8249V79.9276H38.486V87.1242ZM46.6533 83.689C46.6533 84.3975 46.513 85.0186 46.2325 85.5525C45.9519 86.0863 45.5495 86.4982 45.0254 86.7882C44.5049 87.0781 43.9069 87.2227 43.2313 87.2227C42.5632 87.2227 41.967 87.0798 41.4429 86.793C40.9187 86.5064 40.5126 86.0978 40.2247 85.5673C39.9367 85.0334 39.791 84.4206 39.7873 83.7286V83.3727C39.7873 82.6643 39.9294 82.0414 40.2136 81.5044C40.5016 80.9639 40.9058 80.5504 41.4263 80.2637C41.9504 79.9737 42.5484 79.8288 43.2203 79.8288C43.8921 79.8288 44.4883 79.9737 45.0088 80.2637C45.5329 80.5504 45.9371 80.9639 46.2214 81.5044C46.5093 82.0414 46.6533 82.6626 46.6533 83.3678V83.689ZM44.97 83.3628C44.97 82.6082 44.8187 82.0349 44.5159 81.6428C44.2133 81.2507 43.7814 81.0546 43.2203 81.0546C42.6629 81.0546 42.2329 81.249 41.9301 81.6378C41.6274 82.0233 41.4742 82.5901 41.4705 83.3381V83.689C41.4705 84.4239 41.6219 84.994 41.9246 85.3992C42.2273 85.8045 42.6629 86.0072 43.2313 86.0072C43.7887 86.0072 44.217 85.8128 44.5159 85.4239C44.815 85.0318 44.9663 84.4618 44.97 83.7137V83.3628ZM43.5414 78H45.2856L43.7518 79.5322H42.4506L43.5414 78ZM54.4163 87.1242H52.7551L49.5215 82.3891V87.1242H47.8604V79.9276H49.5215L52.7607 84.6726V79.9276H54.4163V87.1242ZM60.4573 87.1242H58.7962V79.9276H60.4573V87.1242ZM68.558 87.1242H66.8969L63.6633 82.3891V87.1242H62.0021V79.9276H63.6633L66.9025 84.6726V79.9276H68.558V87.1242ZM72.1793 79.9276L74.2502 85.1472L76.3101 79.9276H78.4917V87.1242H76.825V85.157L76.9911 81.7614L74.815 87.1242H73.6743L71.5038 81.7663L71.6699 85.157V87.1242H70.0087V79.9276H72.1793ZM84.7929 84.0053H81.6035V85.9331H85.3466V87.1242H79.9424V79.9276H85.3354V81.1287H81.6035V82.8438H84.7929V84.0053ZM86.3211 87.1242V79.9276H88.8017C89.5104 79.9276 90.1435 80.0709 90.7009 80.3577C91.262 80.641 91.6994 81.0463 92.0133 81.5736C92.327 82.0975 92.4839 82.6939 92.4839 83.3628V83.694C92.4839 84.3629 92.3288 84.9577 92.0187 85.4783C91.7123 85.999 91.2786 86.4026 90.7175 86.6892C90.1565 86.976 89.5234 87.1209 88.8184 87.1242H86.3211ZM87.9822 81.1287V85.9331H88.7851C89.4347 85.9331 89.9312 85.7436 90.2746 85.3646C90.6179 84.9857 90.7932 84.4437 90.8006 83.7385V83.3579C90.8006 82.6264 90.6308 82.0727 90.2912 81.6971C89.9515 81.3182 89.4551 81.1287 88.8017 81.1287H87.9822ZM95.4629 87.1242H93.8017V79.9276H95.4629V87.1242ZM101.659 85.6414H98.7463L98.1926 87.1242H96.4263L99.4274 79.9276H100.967L103.984 87.1242H102.218L101.659 85.6414ZM99.1949 84.4403H101.21L100.197 81.7465L99.1949 84.4403ZM110.142 81.1287H107.672V87.1242H106.011V81.1287H103.575V79.9276H110.142V81.1287ZM114.981 85.6414H112.069L111.515 87.1242H109.748L112.749 79.9276H114.289L117.307 87.1242H115.54L114.981 85.6414ZM112.517 84.4403H114.533L113.519 81.7465L112.517 84.4403Z" fill="#00539B"/>
<path d="M58.5639 33.1288C67.6226 33.1288 75.1283 25.7525 75.1283 16.5644C75.1283 7.50575 67.6226 0 58.5639 0C49.3758 0 41.9995 7.50575 41.9995 16.5644C41.9995 25.7525 49.3758 33.1288 58.5639 33.1288ZM58.5639 4.1411C65.2932 4.1411 70.9872 9.83512 70.9872 16.5644C70.9872 23.4231 65.2932 28.9877 58.5639 28.9877C51.7052 28.9877 46.1406 23.4231 46.1406 16.5644C46.1406 9.83512 51.7052 4.1411 58.5639 4.1411ZM70.599 37.3993C66.1991 37.2699 64.9049 39.3405 58.5639 39.3405C52.0935 39.3405 50.7993 37.2699 46.3994 37.3993C37.0819 37.6582 29.5762 45.2934 29.5762 54.7402V65.2224C29.5762 65.8694 29.9644 66.2577 30.6114 66.2577H32.682C33.1996 66.2577 33.7173 65.8694 33.7173 65.2224V54.7402C33.7173 47.7521 39.1524 41.9287 46.1406 41.5404V52.1521C43.0348 53.0578 40.9642 55.7755 40.9642 59.0107C40.9642 63.0224 44.1994 66.2577 48.2111 66.2577C52.0935 66.2577 55.4581 63.0224 55.4581 59.0107C55.4581 55.7755 53.2581 53.0578 50.2817 52.1521V42.1875C52.8699 43.0933 55.7168 43.4816 58.5639 43.4816C61.2815 43.4816 64.1285 43.0933 66.8461 42.1875V51.1168C63.0933 52.0226 60.6345 55.5167 60.6345 59.399V63.1518C60.6345 63.7989 60.7638 64.3165 61.1521 64.7048L62.5756 65.9989C62.9638 66.3871 63.6109 66.3871 63.9991 65.9989L65.4226 64.5754C65.8108 64.1871 65.8108 63.5401 65.4226 63.0224L64.6462 62.3753V59.0107C64.6462 56.5519 66.9755 54.6109 69.5637 54.999C71.6342 55.2579 72.9284 57.199 72.9284 59.2695V62.3753L72.2813 63.0224C71.8931 63.5401 71.8931 64.1871 72.2813 64.5754L73.7048 65.9989C74.093 66.3871 74.7401 66.3871 75.1283 65.9989L76.5518 64.7048C76.9401 64.3165 77.0695 63.7989 77.0695 63.1518V59.0107C77.0695 55.2579 74.4813 52.0226 70.8578 51.1168V41.5404C77.8459 42.0581 83.2811 47.7521 83.2811 54.7402V65.2224C83.2811 65.8694 83.7988 66.2577 84.3164 66.2577H86.387C87.034 66.2577 87.4222 65.8694 87.4222 65.2224V54.7402C87.5516 45.2934 80.0459 37.6582 70.599 37.3993ZM51.317 59.0107C51.317 60.8225 49.8934 62.1166 48.2111 62.1166C46.3994 62.1166 45.1053 60.8225 45.1053 59.0107C45.1053 57.3284 46.3994 55.9049 48.2111 55.9049C49.8934 55.9049 51.317 57.3284 51.317 59.0107Z" fill="#00539B"/>
</svg>
