<svg width="110" height="95" viewBox="0 0 110 95" fill="none" xmlns="http://www.w3.org/2000/svg">
<g clip-path="url(#clip0_39_1001)">
<path d="M4.9929 90.5416H2.39302L1.89875 92.0244H0.322021L3.00098 84.8278H4.37505L7.06884 92.0244H5.49211L4.9929 90.5416ZM2.79338 89.3405H4.59254L3.68802 86.6466L2.79338 89.3405ZM12.5651 86.0289H10.3607V92.0244H8.87788V86.0289H6.70308V84.8278H12.5651V86.0289ZM17.7451 88.9055H14.8981V90.8332H18.2394V92.0244H13.4153V84.8278H18.2295V86.0289H14.8981V87.744H17.7451V88.9055ZM24.9615 92.0244H23.4787L20.5921 87.2893V92.0244H19.1093V84.8278H20.5921L23.4836 89.5728V84.8278H24.9615V92.0244ZM31.906 89.6271C31.85 90.4015 31.5633 91.0111 31.046 91.4559C30.532 91.9008 29.8531 92.1228 29.0096 92.1228C28.087 92.1228 27.3604 91.8135 26.8298 91.194C26.3026 90.5712 26.039 89.7178 26.039 88.6336V88.1938C26.039 87.5017 26.1609 86.8922 26.4048 86.365C26.6486 85.8378 26.9962 85.434 27.4477 85.154C27.9024 84.8706 28.4297 84.729 29.0294 84.729C29.8597 84.729 30.5287 84.9514 31.0361 85.3962C31.5436 85.8411 31.8368 86.4655 31.9159 87.2695H30.4331C30.3969 86.8048 30.2667 86.4688 30.0426 86.2612C29.8218 86.0502 29.4841 85.9449 29.0294 85.9449C28.535 85.9449 28.1644 86.1228 27.9173 86.4786C27.6734 86.8313 27.5482 87.3799 27.5416 88.1246V88.6682C27.5416 89.4459 27.6586 90.0144 27.8925 90.3736C28.1298 90.7327 28.5021 90.9123 29.0096 90.9123C29.4676 90.9123 29.8087 90.8085 30.0327 90.6009C30.2601 90.39 30.3903 90.0655 30.4232 89.6271H31.906ZM34.4565 92.0244H32.9737V84.8278H34.4565V92.0244ZM41.747 88.5892C41.747 89.2976 41.6218 89.9188 41.3714 90.4526C41.1209 90.9864 40.7617 91.3983 40.2938 91.6883C39.8292 91.9783 39.2954 92.1228 38.6923 92.1228C38.0959 92.1228 37.5638 91.9799 37.0959 91.6932C36.628 91.4065 36.2655 90.9979 36.0085 90.4674C35.7514 89.9336 35.6213 89.3207 35.618 88.6288V88.2728C35.618 87.5644 35.7449 86.9416 35.9986 86.4045C36.2556 85.8641 36.6165 85.4505 37.0811 85.1639C37.5489 84.8739 38.0828 84.729 38.6825 84.729C39.2822 84.729 39.8144 84.8739 40.279 85.1639C40.7469 85.4505 41.1077 85.8641 41.3614 86.4045C41.6185 86.9416 41.747 87.5628 41.747 88.2679V88.5892ZM40.2444 88.263C40.2444 87.5084 40.1093 86.9351 39.8391 86.5429C39.5689 86.1508 39.1834 85.9547 38.6825 85.9547C38.1849 85.9547 37.8011 86.1492 37.5308 86.538C37.2606 86.9235 37.1239 87.4902 37.1206 88.2382V88.5892C37.1206 89.324 37.2557 89.8941 37.5259 90.2994C37.7961 90.7047 38.1849 90.9073 38.6923 90.9073C39.1899 90.9073 39.5722 90.7129 39.8391 90.324C40.106 89.9319 40.2411 89.3619 40.2444 88.6139V88.263ZM38.9692 82.9001H40.5261L39.157 84.4324H37.9954L38.9692 82.9001ZM48.6767 92.0244H47.1939L44.3073 87.2893V92.0244H42.8245V84.8278H44.3073L47.1988 89.5728V84.8278H48.6767V92.0244ZM56.5554 90.5416H53.9555L53.4613 92.0244H51.8845L54.5635 84.8278H55.9376L58.6313 92.0244H57.0546L56.5554 90.5416ZM54.3558 89.3405H56.155L55.2505 86.6466L54.3558 89.3405ZM64.8888 91.1149C64.6219 91.4345 64.2446 91.6833 63.757 91.8613C63.2693 92.0363 62.7289 92.1228 62.1357 92.1228C61.513 92.1228 60.966 91.9881 60.4947 91.7179C60.0269 91.4444 59.6644 91.049 59.4073 90.5317C59.1536 90.0144 59.0234 89.4064 59.0169 88.7078V88.2185C59.0169 87.5002 59.1372 86.879 59.3777 86.3551C59.6215 85.8278 59.9708 85.4259 60.4255 85.149C60.8836 84.8689 61.419 84.729 62.0319 84.729C62.8854 84.729 63.5527 84.9332 64.0337 85.3418C64.5148 85.7471 64.7999 86.3386 64.8888 87.1162H63.4456C63.3797 86.7043 63.233 86.4029 63.0057 86.2117C62.7816 86.0206 62.4719 85.9251 62.0764 85.9251C61.5722 85.9251 61.1884 86.1146 60.9247 86.4934C60.6612 86.8724 60.5277 87.4359 60.5244 88.1839V88.6436C60.5244 89.3982 60.6677 89.9682 60.9545 90.3538C61.2411 90.7393 61.6612 90.9321 62.2148 90.9321C62.7717 90.9321 63.1688 90.8134 63.406 90.5762V89.3355H62.0566V88.2432H64.8888V91.1149ZM70.4247 88.9055H67.5777V90.8332H70.919V92.0244H66.0949V84.8278H70.909V86.0289H67.5777V87.744H70.4247V88.9055ZM77.6411 92.0244H76.1582L73.2717 87.2893V92.0244H71.7889V84.8278H73.2717L76.1632 89.5728V84.8278H77.6411V92.0244ZM78.9361 92.0244V84.8278H81.1504C81.783 84.8278 82.3482 84.9711 82.8457 85.2578C83.3466 85.5412 83.7371 85.9464 84.0172 86.4737C84.2972 86.9976 84.4373 87.594 84.4373 88.263V88.5942C84.4373 89.263 84.2989 89.8579 84.0221 90.3784C83.7486 90.8991 83.3614 91.3027 82.8605 91.5894C82.3597 91.8761 81.7946 92.0211 81.1653 92.0244H78.9361ZM80.4189 86.0289V90.8332H81.1355C81.7155 90.8332 82.1587 90.6437 82.4652 90.2648C82.7716 89.8858 82.9281 89.3438 82.9347 88.6386V88.258C82.9347 87.5265 82.7831 86.9729 82.48 86.5972C82.1768 86.2184 81.7336 86.0289 81.1504 86.0289H80.4189ZM89.474 90.5416H86.8741L86.3798 92.0244H84.8031L87.482 84.8278H88.8561L91.5499 92.0244H89.9731L89.474 90.5416ZM87.2744 89.3405H89.0736L88.1691 86.6466L87.2744 89.3405ZM92.2222 92.0244V84.8278H94.7428C95.6161 84.8278 96.2786 84.9958 96.7296 85.3319C97.1814 85.6647 97.4069 86.154 97.4069 86.8C97.4069 87.1525 97.3167 87.4639 97.1354 87.7341C96.9541 88.001 96.702 88.1971 96.3789 88.3223C96.748 88.4145 97.0378 88.6007 97.2486 88.8808C97.463 89.1609 97.5697 89.5036 97.5697 89.9089C97.5697 90.6009 97.3498 91.1248 96.9081 91.4807C96.4664 91.8366 95.8369 92.0178 95.0197 92.0244H92.2222ZM93.7047 88.8907V90.8332H94.9756C95.3243 90.8332 95.5967 90.7508 95.7909 90.586C95.9888 90.418 96.0872 90.1873 96.0872 89.8941C96.0872 89.235 95.7458 88.9006 95.0639 88.8907H93.7047ZM93.7047 87.8429H94.8026C95.5498 87.8296 95.9243 87.5315 95.9243 86.9482C95.9243 86.622 95.8286 86.3881 95.6372 86.2463C95.4495 86.1013 95.1513 86.0289 94.7428 86.0289H93.7047V87.8429ZM100.17 90.8332H103.319V92.0244H98.6869V84.8278H100.17V90.8332ZM108.503 88.9055H105.657V90.8332H108.997V92.0244H104.173V84.8278H108.988V86.0289H105.657V87.744H108.503V88.9055Z" fill="#00539B"/>
<path d="M55.676 33.1288C64.7347 33.1288 72.2404 25.7525 72.2404 16.5644C72.2404 7.50575 64.7347 0 55.676 0C46.4879 0 39.1115 7.50575 39.1115 16.5644C39.1115 25.7525 46.4879 33.1288 55.676 33.1288ZM55.676 4.1411C62.4053 4.1411 68.0993 9.83512 68.0993 16.5644C68.0993 23.4231 62.4053 28.9877 55.676 28.9877C48.8173 28.9877 43.2527 23.4231 43.2527 16.5644C43.2527 9.83512 48.8173 4.1411 55.676 4.1411ZM67.711 37.3993C63.3111 37.2699 62.017 39.3405 55.676 39.3405C49.2055 39.3405 47.9114 37.2699 43.5114 37.3993C34.1939 37.6582 26.6882 45.2934 26.6882 54.7402V65.2224C26.6882 65.8694 27.0765 66.2577 27.7235 66.2577H29.7941C30.3117 66.2577 30.8293 65.8694 30.8293 65.2224V54.7402C30.8293 47.7521 36.2645 41.9287 43.2527 41.5404V52.1521C40.1468 53.0578 38.0763 55.7755 38.0763 59.0107C38.0763 63.0224 41.3115 66.2577 45.3232 66.2577C49.2055 66.2577 52.5701 63.0224 52.5701 59.0107C52.5701 55.7755 50.3702 53.0578 47.3938 52.1521V42.1875C49.9819 43.0933 52.8289 43.4816 55.676 43.4816C58.3935 43.4816 61.2406 43.0933 63.9582 42.1875V51.1168C60.2053 52.0226 57.7465 55.5167 57.7465 59.399V63.1518C57.7465 63.7989 57.8759 64.3165 58.2642 64.7048L59.6877 65.9989C60.0758 66.3871 60.723 66.3871 61.1111 65.9989L62.5346 64.5754C62.9229 64.1871 62.9229 63.5401 62.5346 63.0224L61.7582 62.3753V59.0107C61.7582 56.5519 64.0876 54.6109 66.6758 54.999C68.7463 55.2579 70.0404 57.199 70.0404 59.2695V62.3753L69.3933 63.0224C69.0052 63.5401 69.0052 64.1871 69.3933 64.5754L70.8169 65.9989C71.2051 66.3871 71.8521 66.3871 72.2404 65.9989L73.6639 64.7048C74.0522 64.3165 74.1815 63.7989 74.1815 63.1518V59.0107C74.1815 55.2579 71.5934 52.0226 67.9699 51.1168V41.5404C74.958 42.0581 80.3932 47.7521 80.3932 54.7402V65.2224C80.3932 65.8694 80.9108 66.2577 81.4285 66.2577H83.499C84.1461 66.2577 84.5343 65.8694 84.5343 65.2224V54.7402C84.6637 45.2934 77.158 37.6582 67.711 37.3993ZM48.429 59.0107C48.429 60.8225 47.0055 62.1166 45.3232 62.1166C43.5114 62.1166 42.2174 60.8225 42.2174 59.0107C42.2174 57.3284 43.5114 55.9049 45.3232 55.9049C47.0055 55.9049 48.429 57.3284 48.429 59.0107Z" fill="#00539B"/>
</g>
<defs>
<clipPath id="clip0_39_1001">
<rect width="109.509" height="94.7853" fill="white"/>
</clipPath>
</defs>
</svg>
