<svg width="83" height="63" viewBox="0 0 83 63" fill="none" xmlns="http://www.w3.org/2000/svg">
<g clip-path="url(#clip0_39_1030)">
<path d="M38.3055 21.1657H31.0585V13.9188C31.0585 13.4012 30.5409 12.8835 30.0232 12.8835H23.8116C23.1646 12.8835 22.7763 13.4012 22.7763 13.9188V21.1657H15.5294C14.8824 21.1657 14.4941 21.6834 14.4941 22.201V28.4127C14.4941 29.0597 14.8824 29.4479 15.5294 29.4479H22.7763V36.6949C22.7763 37.3419 23.1646 37.7301 23.8116 37.7301H30.0232C30.5409 37.7301 31.0585 37.3419 31.0585 36.6949V29.4479H38.3055C38.8231 29.4479 39.3407 29.0597 39.3407 28.4127V22.201C39.3407 21.6834 38.8231 21.1657 38.3055 21.1657ZM81.787 46.0124H78.6812V32.0361C78.6812 29.9656 77.7753 27.7656 76.2224 26.2127L65.352 15.3423C63.7991 13.7894 61.7286 12.8835 59.5286 12.8835H53.8346V6.54246C53.8346 3.1778 50.8582 0.460205 47.3642 0.460205H6.34131C2.84725 0.460205 0.000244141 3.1778 0.000244141 6.54246V44.2006C0.000244141 47.5653 2.84725 50.1535 6.34131 50.1535H8.41186C8.28245 50.93 8.28245 51.577 8.28245 52.224C8.28245 58.0474 12.8118 62.5768 18.6352 62.5768C24.3292 62.5768 28.988 58.0474 28.988 52.224C28.988 51.577 28.8586 50.93 28.7292 50.1535H53.964C53.8346 50.93 53.8346 51.577 53.8346 52.224C53.8346 58.0474 58.364 62.5768 64.1874 62.5768C69.8814 62.5768 74.5401 58.0474 74.5401 52.224C74.5401 51.577 74.4107 50.93 74.2813 50.1535H81.787C82.3047 50.1535 82.8223 49.7652 82.8223 49.1182V47.0476C82.8223 46.53 82.3047 46.0124 81.787 46.0124ZM18.6352 58.4357C15.1411 58.4357 12.4236 55.7181 12.4236 52.224C12.4236 48.8594 15.1411 46.0124 18.6352 46.0124C21.9998 46.0124 24.8469 48.8594 24.8469 52.224C24.8469 55.7181 21.9998 58.4357 18.6352 58.4357ZM49.6935 46.0124H26.788C24.9763 43.5536 21.9998 41.8713 18.6352 41.8713C15.2706 41.8713 12.2942 43.5536 10.353 46.0124H6.34131C5.04722 46.0124 4.14135 45.2359 4.14135 44.2006V6.54246C4.14135 5.50718 5.04722 4.60131 6.34131 4.60131H47.3642C48.6582 4.60131 49.6935 5.50718 49.6935 6.54246V46.0124ZM53.8346 17.0246H59.5286C60.5639 17.0246 61.5992 17.5423 62.3756 18.3187L73.2461 29.1892C73.3755 29.3185 73.3755 29.4479 73.5048 29.5773H53.8346V17.0246ZM64.1874 58.4357C60.6933 58.4357 57.9757 55.7181 57.9757 52.224C57.9757 48.8594 60.6933 46.0124 64.1874 46.0124C67.552 46.0124 70.399 48.8594 70.399 52.224C70.399 55.7181 67.552 58.4357 64.1874 58.4357ZM74.5401 46.0124H72.3402C70.5284 43.5536 67.552 41.8713 64.1874 41.8713C60.8228 41.8713 57.8463 43.5536 55.9051 46.0124H53.8346V33.589H74.5401V46.0124Z" fill="#0081A4"/>
<path d="M38.3055 21.1657H31.0585V13.9188C31.0585 13.4012 30.5409 12.8835 30.0232 12.8835H23.8116C23.1646 12.8835 22.7763 13.4012 22.7763 13.9188V21.1657H15.5294C14.8824 21.1657 14.4941 21.6834 14.4941 22.201V28.4127C14.4941 29.0597 14.8824 29.4479 15.5294 29.4479H22.7763V36.6949C22.7763 37.3419 23.1646 37.7301 23.8116 37.7301H30.0232C30.5409 37.7301 31.0585 37.3419 31.0585 36.6949V29.4479H38.3055C38.8231 29.4479 39.3407 29.0597 39.3407 28.4127V22.201C39.3407 21.6834 38.8231 21.1657 38.3055 21.1657ZM81.787 46.0124H78.6812V32.0361C78.6812 29.9656 77.7753 27.7656 76.2224 26.2127L65.352 15.3423C63.7991 13.7894 61.7286 12.8835 59.5286 12.8835H53.8346V6.54246C53.8346 3.1778 50.8582 0.460205 47.3642 0.460205H6.34131C2.84725 0.460205 0.000244141 3.1778 0.000244141 6.54246V44.2006C0.000244141 47.5653 2.84725 50.1535 6.34131 50.1535H8.41186C8.28245 50.93 8.28245 51.577 8.28245 52.224C8.28245 58.0474 12.8118 62.5768 18.6352 62.5768C24.3292 62.5768 28.988 58.0474 28.988 52.224C28.988 51.577 28.8586 50.93 28.7292 50.1535H53.964C53.8346 50.93 53.8346 51.577 53.8346 52.224C53.8346 58.0474 58.364 62.5768 64.1874 62.5768C69.8814 62.5768 74.5401 58.0474 74.5401 52.224C74.5401 51.577 74.4107 50.93 74.2813 50.1535H81.787C82.3047 50.1535 82.8223 49.7652 82.8223 49.1182V47.0476C82.8223 46.53 82.3047 46.0124 81.787 46.0124ZM18.6352 58.4357C15.1411 58.4357 12.4236 55.7181 12.4236 52.224C12.4236 48.8594 15.1411 46.0124 18.6352 46.0124C21.9998 46.0124 24.8469 48.8594 24.8469 52.224C24.8469 55.7181 21.9998 58.4357 18.6352 58.4357ZM49.6935 46.0124H26.788C24.9763 43.5536 21.9998 41.8713 18.6352 41.8713C15.2706 41.8713 12.2942 43.5536 10.353 46.0124H6.34131C5.04722 46.0124 4.14135 45.2359 4.14135 44.2006V6.54246C4.14135 5.50718 5.04722 4.60131 6.34131 4.60131H47.3642C48.6582 4.60131 49.6935 5.50718 49.6935 6.54246V46.0124ZM53.8346 17.0246H59.5286C60.5639 17.0246 61.5992 17.5423 62.3756 18.3187L73.2461 29.1892C73.3755 29.3185 73.3755 29.4479 73.5048 29.5773H53.8346V17.0246ZM64.1874 58.4357C60.6933 58.4357 57.9757 55.7181 57.9757 52.224C57.9757 48.8594 60.6933 46.0124 64.1874 46.0124C67.552 46.0124 70.399 48.8594 70.399 52.224C70.399 55.7181 67.552 58.4357 64.1874 58.4357ZM74.5401 46.0124H72.3402C70.5284 43.5536 67.552 41.8713 64.1874 41.8713C60.8228 41.8713 57.8463 43.5536 55.9051 46.0124H53.8346V33.589H74.5401V46.0124Z" fill="#00539B"/>
</g>
<defs>
<clipPath id="clip0_39_1030">
<rect width="82.8221" height="62.5767" fill="white"/>
</clipPath>
</defs>
</svg>
