<svg width="75" height="67" viewBox="0 0 75 67" fill="none" xmlns="http://www.w3.org/2000/svg">
<path d="M74.1516 29.0406L40.117 1.60583C39.3405 0.958785 38.3052 0.570557 37.2699 0.570557C36.1053 0.570557 35.07 0.958785 34.2935 1.60583L0.258819 29.0406C0 29.2995 0 29.5583 0 29.8171C0 29.9465 0 30.2053 0.12941 30.3348L1.94115 32.5347C2.07055 32.7935 2.32937 32.9229 2.71759 32.9229C2.84701 32.9229 3.10583 32.7935 3.23523 32.6641L8.28221 28.6524V64.7577C8.28221 65.9223 9.18808 66.8282 10.3528 66.8282H64.1871C65.2224 66.8282 66.2577 65.9223 66.2577 64.7577V28.6524L71.1753 32.7935C71.3047 32.9229 71.5634 32.9229 71.8223 32.9229C72.0811 32.9229 72.3399 32.7935 72.4693 32.6641L74.2811 30.3348C74.4105 30.2053 74.4105 29.9465 74.4105 29.8171C74.4105 29.5583 74.4105 29.2995 74.1516 29.0406ZM62.1166 62.6871H12.4233V25.2878L36.6229 5.74694C36.7523 5.61753 37.0112 5.61753 37.1406 5.61753C37.3993 5.61753 37.5287 5.61753 37.7876 5.74694L62.1166 25.2878V62.6871ZM33.1288 28.523V35.7699H25.8819C25.2349 35.7699 24.8466 36.2876 24.8466 36.8052V43.0169C24.8466 43.6639 25.2349 44.0522 25.8819 44.0522H33.1288V51.2991C33.1288 51.9461 33.5171 52.3344 34.1641 52.3344H40.3758C40.8934 52.3344 41.411 51.9461 41.411 51.2991V44.0522H48.658C49.1756 44.0522 49.6932 43.6639 49.6932 43.0169V36.8052C49.6932 36.2876 49.1756 35.7699 48.658 35.7699H41.411V28.523C41.411 28.0054 40.8934 27.4877 40.3758 27.4877H34.1641C33.5171 27.4877 33.1288 28.0054 33.1288 28.523Z" fill="#00539B"/>
</svg>
