<svg width="101" height="104" viewBox="0 0 101 104" fill="none" xmlns="http://www.w3.org/2000/svg">
<g clip-path="url(#clip0_39_1008)">
<path d="M98.9276 67.6555H93.4062L92.716 66.4476C92.3709 65.585 91.2494 64.8948 90.3003 64.8948H84.2612L81.9319 62.5654C81.673 62.3066 81.3279 62.134 80.9829 62.134C80.9829 62.134 80.9829 62.134 80.8966 62.134C80.2064 62.134 79.6025 62.8242 79.6025 63.5144V78.6985H69.9399H69.8537C68.2145 78.6985 66.6615 79.2161 65.3675 80.0788H63.0381C60.7087 80.0788 58.897 78.267 58.897 75.9377C58.897 75.2475 58.2068 74.5573 57.5166 74.5573C56.7402 74.5573 56.1362 75.2475 56.1362 75.9377C56.1362 79.7337 59.0695 82.7532 62.7792 82.8396C62.089 84.0474 61.6577 85.514 61.6577 86.9807V100.784C61.6577 102.337 62.8655 103.545 64.4184 103.545H69.9399C71.4065 103.545 72.7006 102.337 72.7006 100.784V92.5021H80.9829V100.784C80.9829 102.337 82.1907 103.545 83.7436 103.545H89.2651C90.7317 103.545 92.0258 102.337 92.0258 100.784V80.0788H94.7865C97.8059 80.0788 100.308 77.6632 100.308 74.5573V69.0359C100.308 68.3457 99.6178 67.6555 98.9276 67.6555ZM89.2651 100.784H83.7436V89.7414H69.9399V100.784H64.4184V86.9807C64.4184 83.9611 66.8341 81.5454 69.9399 81.4592H80.1201L89.2651 83.7886V100.784ZM97.5473 74.5573C97.5473 76.1102 96.2534 77.3181 94.7865 77.3181H89.2651V80.9415L82.3632 79.2161V66.879L83.1396 67.6555H90.3003L91.6807 70.4162H97.5473V74.5573ZM89.2651 70.4162C89.2651 69.7261 88.5749 69.0359 87.8847 69.0359C87.1083 69.0359 86.5043 69.7261 86.5043 70.4162C86.5043 71.1927 87.1083 71.7966 87.8847 71.7966C88.5749 71.7966 89.2651 71.1927 89.2651 70.4162Z" fill="#0081A4"/>
<path d="M98.9276 67.6555H93.4062L92.716 66.4476C92.3709 65.585 91.2494 64.8948 90.3003 64.8948H84.2612L81.9319 62.5654C81.673 62.3066 81.3279 62.134 80.9829 62.134C80.9829 62.134 80.9829 62.134 80.8966 62.134C80.2064 62.134 79.6025 62.8242 79.6025 63.5144V78.6985H69.9399H69.8537C68.2145 78.6985 66.6615 79.2161 65.3675 80.0788H63.0381C60.7087 80.0788 58.897 78.267 58.897 75.9377C58.897 75.2475 58.2068 74.5573 57.5166 74.5573C56.7402 74.5573 56.1362 75.2475 56.1362 75.9377C56.1362 79.7337 59.0695 82.7532 62.7792 82.8396C62.089 84.0474 61.6577 85.514 61.6577 86.9807V100.784C61.6577 102.337 62.8655 103.545 64.4184 103.545H69.9399C71.4065 103.545 72.7006 102.337 72.7006 100.784V92.5021H80.9829V100.784C80.9829 102.337 82.1907 103.545 83.7436 103.545H89.2651C90.7317 103.545 92.0258 102.337 92.0258 100.784V80.0788H94.7865C97.8059 80.0788 100.308 77.6632 100.308 74.5573V69.0359C100.308 68.3457 99.6178 67.6555 98.9276 67.6555ZM89.2651 100.784H83.7436V89.7414H69.9399V100.784H64.4184V86.9807C64.4184 83.9611 66.8341 81.5454 69.9399 81.4592H80.1201L89.2651 83.7886V100.784ZM97.5473 74.5573C97.5473 76.1102 96.2534 77.3181 94.7865 77.3181H89.2651V80.9415L82.3632 79.2161V66.879L83.1396 67.6555H90.3003L91.6807 70.4162H97.5473V74.5573ZM89.2651 70.4162C89.2651 69.7261 88.5749 69.0359 87.8847 69.0359C87.1083 69.0359 86.5043 69.7261 86.5043 70.4162C86.5043 71.1927 87.1083 71.7966 87.8847 71.7966C88.5749 71.7966 89.2651 71.1927 89.2651 70.4162Z" fill="#00539B"/>
<path d="M50.8724 14.8747C46.36 31.5917 36.3026 24.7086 34.5828 24.2632L30.9587 26.3229L31.2044 25.4128L34.3616 23.6214C34.5831 22.2166 34.3294 18.9412 37.6824 16.4665C41.0373 13.9849 43.9862 14.9687 50.8724 14.8747ZM48.5093 17.2297C49.8014 15.7122 48.2364 16.9609 48.2364 16.9609C46.7173 18.2482 45.0332 18.5747 43.1874 18.9852C40.7827 19.519 37.5513 20.4305 35.9552 22.4481C34.361 24.4586 35.1945 23.527 36.196 22.7383C37.2044 21.9516 39.8856 21.1732 41.6131 20.7834C44.0127 20.2406 46.3406 19.7687 48.5093 17.2297Z" fill="#0081A4"/>
<path d="M28.0962 10.6115C28.0962 15.7077 23.9612 19.8428 18.865 19.8428C13.7689 19.8428 9.63387 15.7077 9.63387 10.6115C9.63387 5.51547 13.7689 1.38037 18.865 1.38037C23.9612 1.38037 28.0962 5.51547 28.0962 10.6115ZM18.865 26.1407C20.8783 26.1407 22.7956 25.7145 24.5312 24.9617H28.2975C32.7452 24.9617 36.3497 28.5662 36.3497 33.0138V34.1928C36.3497 35.3833 35.3833 36.3497 34.1928 36.3497H3.5372C2.34673 36.3497 1.38037 35.3833 1.38037 34.1928V33.0138C1.38037 28.5662 4.98488 24.9617 9.43252 24.9617H13.1999C14.9395 25.7138 16.8499 26.1407 18.865 26.1407Z" stroke="#0081A4" stroke-width="2.76074"/>
<path d="M28.0962 10.6115C28.0962 15.7077 23.9612 19.8428 18.865 19.8428C13.7689 19.8428 9.63387 15.7077 9.63387 10.6115C9.63387 5.51547 13.7689 1.38037 18.865 1.38037C23.9612 1.38037 28.0962 5.51547 28.0962 10.6115ZM18.865 26.1407C20.8783 26.1407 22.7956 25.7145 24.5312 24.9617H28.2975C32.7452 24.9617 36.3497 28.5662 36.3497 33.0138V34.1928C36.3497 35.3833 35.3833 36.3497 34.1928 36.3497H3.5372C2.34673 36.3497 1.38037 35.3833 1.38037 34.1928V33.0138C1.38037 28.5662 4.98488 24.9617 9.43252 24.9617H13.1999C14.9395 25.7138 16.8499 26.1407 18.865 26.1407Z" stroke="#0081A4" stroke-width="2.76074"/>
<path d="M28.0962 10.6115C28.0962 15.7077 23.9612 19.8428 18.865 19.8428C13.7689 19.8428 9.63387 15.7077 9.63387 10.6115C9.63387 5.51547 13.7689 1.38037 18.865 1.38037C23.9612 1.38037 28.0962 5.51547 28.0962 10.6115ZM18.865 26.1408C20.8783 26.1408 22.7956 25.7145 24.5312 24.9617H28.2975C32.7452 24.9617 36.3497 28.5662 36.3497 33.0138V34.1928C36.3497 35.3833 35.3833 36.3497 34.1928 36.3497H3.5372C2.34673 36.3497 1.38037 35.3833 1.38037 34.1928V33.0138C1.38037 28.5662 4.98488 24.9617 9.43252 24.9617H13.1999C14.9395 25.7138 16.8499 26.1408 18.865 26.1408Z" stroke="#00539B" stroke-width="2.76074"/>
<path d="M50.8724 14.8748C46.36 31.5918 36.3026 24.7086 34.5828 24.2631L30.9587 26.3229L31.2044 25.4129L34.3617 23.6214C34.5831 22.2167 34.3294 18.9413 37.6824 16.4665C41.0373 13.9849 43.9862 14.9687 50.8724 14.8748ZM48.5093 17.2298C49.8014 15.7122 48.2364 16.9609 48.2364 16.9609C46.7173 18.2482 45.0332 18.5747 43.1874 18.9852C40.7827 19.519 37.5513 20.4305 35.9552 22.4481C34.361 24.4587 35.1945 23.527 36.196 22.7384C37.2044 21.9517 39.8856 21.1732 41.6131 20.7834C44.0127 20.2406 46.3406 19.7687 48.5093 17.2298Z" fill="#00539B"/>
<path d="M12.2995 61.8256L20.7809 63.4855C21.3671 63.6002 21.7483 64.1669 21.631 64.7494L21.3552 66.1588C21.2405 66.745 20.6737 67.1262 20.0913 67.0089L14.0783 65.8386L12.9017 71.8503C12.7869 72.4366 12.2202 72.8178 11.6377 72.7006L10.2246 72.4272C9.63839 72.3125 9.25722 71.7458 9.37446 71.1633L11.0343 62.6819C11.1466 62.092 11.7133 61.7108 12.2995 61.8256Z" fill="#00539B"/>
<path d="M13.8042 64.4172C15.9514 72.2393 23.5588 87.3313 36.8103 85.1228" stroke="#00539B" stroke-width="3.68098" stroke-linecap="round"/>
<path d="M87.3824 45.9017L79.1984 43.1248C78.6328 42.9328 78.3306 42.3203 78.5245 41.7587L78.986 40.3987C79.178 39.833 79.7905 39.5308 80.3521 39.7248L86.1551 41.6872L88.1235 35.8862C88.3155 35.3205 88.928 35.0183 89.4896 35.2123L90.8536 35.6718C91.4193 35.8638 91.7214 36.4763 91.5275 37.0379L88.7506 45.2218C88.5606 45.7915 87.948 46.0937 87.3824 45.9017Z" fill="#00539B"/>
<path d="M86.237 43.132C85.1529 35.0933 79.6277 19.1211 66.2 19.5413" stroke="#00539B" stroke-width="3.68098" stroke-linecap="round"/>
</g>
<defs>
<clipPath id="clip0_39_1008">
<rect width="100.307" height="103.988" fill="white"/>
</clipPath>
</defs>
</svg>
