<svg width="92" height="72" viewBox="0 0 92 72" fill="none" xmlns="http://www.w3.org/2000/svg">
<path d="M91.0939 64.2656L63.3487 1.26562C63.0334 0.562505 62.2453 0 61.457 0C60.9841 0 60.6688 0.281252 59.7229 0.562505C58.6194 0.843748 58.1465 1.6875 58.6194 3.09375C56.0971 4.5 49.3185 6.46875 46.7962 6.89062C46.6385 6.32813 46.4809 5.90625 45.6927 5.48438V4.5C45.6927 2.10938 43.4857 0 40.6482 0H25.5145C24.7262 0 23.7804 0.421874 22.9922 0.703126C22.3616 0.421874 21.4157 0 20.6275 0H5.49379C2.65622 0 0.449219 2.10938 0.449219 4.5V67.5C0.449219 70.0313 2.65622 72 5.49379 72H20.6275C21.4157 72 22.3616 71.7187 23.1498 71.4375C23.7804 71.7187 24.7262 72 25.6721 72H40.8058C43.4857 72 45.8503 70.0313 45.8503 67.5V16.7344L69.6544 70.875C69.9697 71.5781 70.6003 72 71.3885 72C71.8614 72 72.1767 71.8594 73.2802 71.5782C74.2261 71.2969 74.8566 70.4531 74.2261 69.0469C76.906 67.6406 83.527 65.6718 86.2069 65.25C86.6798 66.7969 87.7833 67.0781 88.7292 66.7969L89.8327 66.375C90.9362 66.0938 91.4091 65.1094 91.0939 64.2656ZM20.6275 67.5H5.49379V58.5H20.6275V67.5ZM20.6275 54H5.49379V18H20.6275V54ZM20.6275 13.5H5.49379V4.5H20.6275V13.5ZM40.8058 67.5H25.6721V58.5H40.8058V67.5ZM40.8058 54H25.6721V18H40.8058V54ZM40.8058 13.5H25.6721V4.5H40.8058V13.5ZM72.8073 65.25L48.215 10.5469C52.3137 9.98437 58.3042 7.73438 60.1959 6.89062L84.6305 61.5938C80.6894 62.1562 74.5414 64.4062 72.8073 65.25Z" fill="#00539B"/>
</svg>
