<svg width="83" height="83" viewBox="0 0 83 83" fill="none" xmlns="http://www.w3.org/2000/svg">
<g clip-path="url(#clip0_2_189)">
<rect x="2" y="16" width="22" height="7" fill="#007DB7"/>
<rect x="2" y="38" width="22" height="7" fill="#007DB7"/>
<rect x="2" y="60" width="22" height="7" fill="#007DB7"/>
<path d="M10.9648 69.8958C9.48395 69.8958 8.15794 69.8958 6.83193 69.8958C5.42465 69.9212 4.04336 69.5149 2.8741 68.7314C1.73591 67.959 0.871077 66.8466 0.403226 65.5532C-0.064624 64.2597 -0.111535 62.8515 0.269201 61.5298C0.635667 60.2051 1.41716 59.0327 2.49899 58.1848C3.58081 57.3368 4.90598 56.858 6.27999 56.8185C7.77427 56.7714 9.27528 56.8185 10.8571 56.8185V48.1228C10.6052 48.0832 10.3512 48.0585 10.0965 48.0487C8.93873 48.0487 7.781 48.0487 6.61654 48.0487C5.73938 48.079 4.86509 47.9327 4.0456 47.6185C3.2261 47.3043 2.47813 46.8286 1.84612 46.2196C1.2141 45.6107 0.710938 44.8809 0.366523 44.0737C0.022107 43.2665 -0.156536 42.3983 -0.158792 41.5207C-0.161048 40.6431 0.0131282 39.774 0.353389 38.965C0.69365 38.1561 1.19305 37.4237 1.82193 36.8116C2.4508 36.1994 3.19632 35.7198 4.01419 35.4014C4.83205 35.083 5.70559 34.9322 6.58288 34.958C7.9762 34.958 9.37625 34.958 10.8503 34.958V26.2488C10.5811 26.2488 10.2849 26.1815 9.9955 26.1815C8.7368 26.1815 7.47137 26.1815 6.21268 26.1815C4.591 26.1144 3.05273 25.4446 1.89899 24.3031C0.745255 23.1616 0.0591274 21.6307 -0.0250738 20.0099C-0.109275 18.3892 0.414513 16.7954 1.44375 15.5405C2.47299 14.2856 3.93358 13.46 5.53958 13.2253C6.15764 13.1431 6.78055 13.1026 7.40406 13.1042C8.52814 13.1042 9.65222 13.1042 10.8975 13.1042C10.8975 12.6802 10.8975 12.3235 10.9446 11.9667C10.9121 10.6677 10.9683 9.36793 11.1128 8.07653C11.9475 3.40559 15.7101 0.242279 20.5766 -1.77929e-05C20.7853 -1.77929e-05 20.9872 -1.77929e-05 21.1959 -1.77929e-05H72.7621C74.9611 -0.0649846 77.1205 0.59483 78.9075 1.87778C80.1738 2.78754 81.2046 3.98647 81.914 5.37487C82.6235 6.76326 82.9912 8.30097 82.9865 9.8601C82.9865 10.0957 82.9865 10.338 82.9865 10.5735C82.9865 31.2136 82.9865 51.8537 82.9865 72.4937C83.0873 74.8992 82.3524 77.2654 80.9066 79.1905C79.9971 80.3711 78.83 81.3285 77.4945 81.9898C76.1589 82.6511 74.69 82.9989 73.1996 83.0067H21.2363C19.9037 83.0566 18.5746 82.8393 17.3273 82.3677C16.08 81.8961 14.9397 81.1797 13.9735 80.2607C13.054 79.4149 12.3143 78.3926 11.7985 77.2548C11.2827 76.1169 11.0015 74.8868 10.9715 73.6379C10.9378 72.4466 10.9648 71.2553 10.9648 69.8958ZM15.3197 69.8958C15.3197 71.2957 15.2322 72.588 15.3197 73.8062C15.4364 74.935 15.9107 75.9971 16.6736 76.8373C17.4364 77.6776 18.4478 78.2521 19.5603 78.4771C20.201 78.5795 20.8504 78.6178 21.4988 78.5915H72.3515C72.7217 78.5915 73.0987 78.5915 73.4756 78.5915C74.5744 78.552 75.6328 78.1672 76.5004 77.4918C77.368 76.8164 78.0007 75.8847 78.3085 74.8292C78.5023 74.0367 78.5883 73.2217 78.5642 72.4062C78.5642 51.811 78.5642 31.2136 78.5642 10.6139C78.5642 10.237 78.5642 9.8601 78.5642 9.48993C78.5182 8.411 78.1398 7.37268 77.4806 6.51721C76.8215 5.66174 75.914 5.03096 74.8824 4.7113C74.1255 4.50944 73.3432 4.41875 72.5602 4.44208C55.4769 4.44208 38.3914 4.44208 21.3036 4.44208C20.994 4.44208 20.6911 4.44208 20.3814 4.44208C19.2837 4.49502 18.2292 4.88635 17.3627 5.56238C16.4962 6.23841 15.8601 7.16601 15.5418 8.21787C15.0774 9.81299 15.3534 11.4418 15.2995 13.1176C16.4909 13.1176 17.5477 13.1176 18.5977 13.1176C19.2454 13.1074 19.8931 13.1412 20.5363 13.2186C22.1528 13.4482 23.6242 14.2763 24.6592 15.539C25.6943 16.8018 26.2174 18.407 26.1252 20.0371C26.0329 21.6671 25.332 23.2031 24.1611 24.341C22.9902 25.4789 21.4347 26.1357 19.8026 26.1815C18.5775 26.2218 17.3525 26.1815 16.1207 26.1815C15.8682 26.1918 15.6165 26.2165 15.3668 26.2555V34.9378C16.9284 34.9378 18.4294 34.8974 19.9237 34.9378C21.5089 34.993 23.0197 35.6239 24.1733 36.7124C25.3268 37.801 26.0442 39.2725 26.1911 40.8517C26.3379 42.4309 25.9043 44.0095 24.9712 45.2921C24.0382 46.5747 22.6697 47.4733 21.1218 47.8199C20.3527 47.9528 19.5734 48.0181 18.7929 48.0151C17.6487 48.0151 16.4977 48.0151 15.3668 48.0151V56.7647C16.9284 56.7647 18.4227 56.7243 19.917 56.7647C21.3434 56.7994 22.7176 57.3086 23.822 58.2119C24.9265 59.1152 25.6983 60.3609 26.0153 61.7519C26.344 63.1051 26.2306 64.5279 25.6915 65.8118C25.1525 67.0958 24.2162 68.1732 23.02 68.8862C21.8934 69.5416 20.6075 69.8724 19.3045 69.8419C18.0121 69.9025 16.7198 69.8958 15.3197 69.8958ZM13.1389 39.2991C11.16 39.2991 9.18778 39.2991 7.20887 39.2991C6.75583 39.2858 6.30305 39.3333 5.86266 39.4405C5.43138 39.5581 5.05134 39.8156 4.78214 40.1725C4.51293 40.5294 4.36977 40.9655 4.37511 41.4125C4.34758 41.8809 4.47875 42.3449 4.74744 42.7296C5.01612 43.1143 5.40665 43.3972 5.85593 43.5326C6.21429 43.6381 6.58625 43.6903 6.95982 43.6874C11.0478 43.6874 15.1335 43.6874 19.217 43.6874C19.4557 43.692 19.6944 43.6763 19.9305 43.6403C20.4597 43.5747 20.9462 43.3163 21.2969 42.9145C21.6476 42.5126 21.8378 41.9957 21.8311 41.4624C21.8244 40.9292 21.6214 40.4171 21.2608 40.0242C20.9002 39.6313 20.4074 39.3851 19.8766 39.3328C19.573 39.2958 19.2669 39.2823 18.9612 39.2924L13.1389 39.2991ZM13.1389 17.4992C10.9311 17.4992 8.71661 17.4655 6.50211 17.4992C6.22726 17.4917 5.95378 17.5405 5.69844 17.6424C5.44309 17.7444 5.21126 17.8974 5.01716 18.0921C4.82305 18.2869 4.67076 18.5192 4.56962 18.7748C4.46847 19.0305 4.42061 19.3041 4.42896 19.5789C4.41353 19.8609 4.4539 20.1432 4.54778 20.4096C4.64165 20.6761 4.78717 20.9213 4.97601 21.1314C5.16484 21.3415 5.39328 21.5122 5.64822 21.6339C5.90317 21.7555 6.17962 21.8257 6.46172 21.8403C6.66365 21.8403 6.87232 21.8403 7.07425 21.8403H19.1295C19.4006 21.8605 19.6728 21.8605 19.9439 21.8403C20.4203 21.7727 20.8615 21.5514 21.2005 21.21C21.5395 20.8686 21.7577 20.4258 21.8219 19.9491C21.8842 19.4748 21.7854 18.9934 21.5413 18.5821C21.2971 18.1707 20.9219 17.8534 20.4757 17.6809C20.0791 17.5577 19.6659 17.4964 19.2506 17.4992C17.2111 17.4992 15.1649 17.4992 13.1187 17.4992H13.1389ZM13.1389 65.4941H18.0391C18.6516 65.4941 19.2708 65.4941 19.8766 65.4941C20.4115 65.4671 20.9166 65.2394 21.291 64.8564C21.6653 64.4733 21.8813 63.9632 21.8959 63.4278C21.9092 62.8954 21.7289 62.3762 21.3885 61.9666C21.0482 61.5569 20.5708 61.2846 20.0449 61.2C19.8411 61.1833 19.6362 61.1833 19.4324 61.2H6.80501C6.6 61.1933 6.39484 61.2069 6.19248 61.2404C5.68456 61.3275 5.2249 61.5943 4.89742 61.9922C4.56995 62.3901 4.39651 62.8925 4.40877 63.4076C4.40233 63.6985 4.45681 63.9876 4.56871 64.2561C4.68062 64.5247 4.84747 64.767 5.05855 64.9673C5.26963 65.1675 5.52028 65.3215 5.79439 65.4192C6.06849 65.5168 6.36 65.5561 6.65019 65.5344C8.79065 65.5143 10.9378 65.4941 13.085 65.4941H13.1389Z" fill="#364F6B"/>
</g>
<defs>
<clipPath id="clip0_2_189">
<rect width="83" height="83" fill="white"/>
</clipPath>
</defs>
</svg>
