<svg width="75" height="75" viewBox="0 0 75 75" fill="none" xmlns="http://www.w3.org/2000/svg">
<path d="M72.4918 33.001C51.0652 33.7999 33.7788 51.5071 33.0011 73.4551C32.9696 74.2978 33.6304 75 34.4553 75H65.3084C70.1094 75 74 71.0147 74 66.0969V34.4929C74 33.6479 73.3167 32.971 72.4918 33.001Z" fill="#7B2A83"/>
<path d="M66.2803 0H27.7961C12.4448 0 0 12.4448 0 27.7961V66.2803C0 71.0968 3.90547 75 8.71967 75H13.9195C14.7087 75 15.3468 74.3641 15.3513 73.5772C16.0999 41.8012 41.8125 16.0932 73.5884 15.3513C74.3709 15.34 75 14.7042 75 13.9217V8.72193C75 3.90548 71.0968 0 66.2803 0Z" fill="#E7293B"/>
</svg>
