<svg width="81" height="87" viewBox="0 0 81 87" fill="none" xmlns="http://www.w3.org/2000/svg">
<path d="M79.8424 18.4159C78.7171 15.5116 76.6762 13.0506 74.0271 11.4037C71.378 9.75679 68.2642 9.01313 65.1546 9.28471C58.4632 9.69188 52.481 14.8849 51.5777 21.1059C50.4268 29.0089 53.8327 35.1564 60.9457 37.9866C63.2476 38.901 64.2245 40.276 64.1978 42.5789C64.1978 45.4891 64.1978 48.4461 64.1978 51.3096C64.1978 55.8885 64.2513 60.6544 64.1041 65.2934C63.8097 74.5247 58.1688 81.1528 49.3829 82.5946C43.9427 83.489 39.2387 83.2621 35.003 81.847C31.8297 80.7966 29.0378 78.8352 26.9773 76.2087C24.9168 73.5821 23.6794 70.4074 23.4201 67.0822C23.119 62.5967 23.6409 61.9092 28.1041 60.9814C36.0602 59.3194 41.681 53.4121 42.1026 46.2968C42.7717 34.3154 42.7048 22.314 42.5442 11.0469C42.4907 7.12206 40.1621 4.2719 35.9866 3.03705C35.2477 2.76598 34.5667 2.35837 33.9792 1.83558C33.6534 1.55784 33.3016 1.31197 32.9286 1.10135L32.3732 0.800979C31.8513 0.50061 30.8543 -0.0534023 30.5331 -3.49805e-06C29.7387 0.492442 29.1621 1.26809 28.9204 2.16932C28.7259 3.15366 28.6763 4.16104 28.7732 5.15966C28.7732 5.63357 28.8134 6.10749 28.7732 6.56805C28.7732 8.57051 28.9874 9.54503 30.3323 9.93885C31.4498 10.2592 32.1457 9.82538 33.203 8.12996C33.4272 7.819 33.7542 7.59684 34.1264 7.50253L34.3472 7.40908L34.655 7.24888L34.9963 7.31563C38.2952 7.98312 38.2952 11.0068 38.2885 12.3017C38.2885 15.6169 38.2885 18.9321 38.2885 22.2473C38.2885 29.3827 38.2885 36.7517 38.2282 44.0073C38.1572 47.4129 36.7837 50.6626 34.3891 53.0911C31.9944 55.5195 28.7597 56.943 25.3472 57.07C23.3398 57.1567 21.2721 57.1367 19.2848 57.1167H18.6156C10.2245 57.0366 4.41636 51.6633 4.16208 43.767C3.9145 36.0842 3.96134 28.2947 4.01487 20.7655C4.01487 17.8485 4.05502 14.9316 4.05502 12.0147C4.05502 9.53168 5.30632 7.94307 7.87584 7.16211L8.62528 6.93517L9.02676 7.60265C9.11375 7.74282 9.19405 7.91637 9.28104 8.09659C9.34718 8.25708 9.42781 8.41123 9.52193 8.55715C9.66914 8.63058 9.8632 8.74405 10.0639 8.85752C10.8335 9.31141 11.7167 9.81203 12.2855 9.7653C12.6134 9.73193 13.4699 9.64516 13.4498 7.43578C13.4498 6.87509 13.4498 6.30773 13.49 5.74704C13.5874 4.59869 13.5515 3.44295 13.3829 2.30282C13.202 1.38613 12.6719 0.575075 11.9041 0.0400456C11.2765 0.229273 10.676 0.498489 10.1175 0.841028L9.67584 1.07465C9.32017 1.2862 8.98622 1.53213 8.67881 1.80888C8.16719 2.28402 7.57905 2.66987 6.93903 2.95028C1.76654 4.90601 0 7.39573 0 12.8024C0 20.919 0 31.6321 0 42.4988C0 52.1172 5.4803 58.8989 14.9688 61.0882C18.91 62.0027 19.2379 62.4232 19.3517 66.348C19.6796 77.7687 28.2111 86.4326 39.6335 86.9399C41.2729 87.0134 42.9792 87 44.5918 86.9866H45.9301C59.2193 86.9132 68.1725 77.9088 68.2059 64.5725V61.6356C68.2059 55.488 68.2394 49.1402 68.1658 42.8993C68.1658 41.0169 68.5204 38.9544 71.5115 37.9465C72.9653 37.3934 74.3208 36.6114 75.5264 35.6303C80.6052 31.7923 82.4052 24.5634 79.8424 18.4159ZM73.4052 31.7656C71.4238 33.7122 68.7714 34.8297 65.9911 34.8894H65.71C60.0691 34.7092 55.3918 29.7031 55.4922 23.9494C55.5111 22.5571 55.8079 21.1825 56.3651 19.9058C56.9223 18.6292 57.7288 17.476 58.7375 16.5136C59.7718 15.5299 60.9919 14.7612 62.3268 14.2524C63.6617 13.7436 65.0847 13.5048 66.513 13.5499C69.3138 13.6303 71.9701 14.8082 73.9064 16.8285C75.8427 18.8487 76.9031 21.5485 76.858 24.3432C76.799 25.7449 76.4637 27.1213 75.8712 28.3937C75.2788 29.6661 74.4408 30.8097 73.4052 31.7589V31.7656Z" fill="#364F6B"/>
</svg>
