<svg width="79" height="78" viewBox="0 0 79 78" fill="none" xmlns="http://www.w3.org/2000/svg">
<g clip-path="url(#clip0_2_213)">
<rect x="33" y="16" width="13" height="44" fill="#007DB7"/>
<rect x="61.5" y="31.5" width="13" height="44" transform="rotate(90 61.5 31.5)" fill="#007DB7"/>
<path d="M36.5691 0H41.4447C42.7728 0.172495 44.1085 0.305302 45.4274 0.526645C52.7256 1.77533 59.1873 4.81919 64.724 9.73149C71.5444 15.7765 75.8064 23.293 77.4077 32.2826C77.6596 33.7007 77.8092 35.1372 78.0061 36.5645V41.4401C77.8917 42.3682 77.794 43.2979 77.6627 44.2245C76.4415 52.7302 72.9442 60.1704 66.8504 66.2261C56.8472 76.1636 44.7908 79.8608 30.9561 77.1253C21.4749 75.2569 13.7829 70.2347 7.96382 62.535C1.22887 53.6262 -1.22118 43.5574 0.561783 32.533C1.86237 24.4821 5.47104 17.5442 11.1787 11.7297C17.0206 5.77631 24.0624 2.04857 32.2872 0.599918C33.7053 0.34957 35.1418 0.19692 36.5691 0ZM39.0313 4.57037C20.0568 4.55052 4.57955 20.0125 4.57955 38.9947C4.57955 57.9417 19.9774 73.3762 38.9474 73.4342C57.9173 73.4922 73.4052 58.0394 73.4465 39.045C73.4755 20.0751 58.0211 4.59174 39.0313 4.57037Z" fill="#09566A"/>
<path d="M48.1477 29.8616H61.4893C63.2296 29.8616 64.1394 30.7546 64.1409 32.4673C64.1409 36.8352 64.1409 41.2025 64.1409 45.5693C64.1409 47.2302 63.2143 48.14 61.5336 48.143C57.3693 48.143 53.205 48.143 49.0407 48.143H48.1477V49.0315C48.1477 53.1703 48.1477 57.3092 48.1477 61.4481C48.1477 63.2677 47.2669 64.1347 45.4274 64.1347H32.6277C30.7058 64.1347 29.8662 63.2845 29.8662 61.3366C29.8662 57.2487 29.8662 53.1607 29.8662 49.0727V48.143H16.6741C14.6897 48.143 13.8715 47.3065 13.8715 45.3068V32.7375C13.8715 30.6554 14.6759 29.8616 16.7856 29.8616H29.8662V28.9731C29.8662 24.8343 29.8662 20.6954 29.8662 16.5565C29.8662 14.7354 30.7455 13.8699 32.5864 13.8699C36.878 13.8699 41.169 13.8699 45.4595 13.8699C47.2791 13.8699 48.1461 14.7476 48.1477 16.5901C48.1477 20.7025 48.1477 24.816 48.1477 28.9304V29.8616ZM59.5553 34.4319H46.2533C44.4612 34.4319 43.5773 33.5557 43.5758 31.7819C43.5758 27.6207 43.5758 23.4584 43.5758 19.2951V18.4906H34.4366V31.6369C34.4366 33.5847 33.6 34.4319 31.6751 34.4319H18.4846V43.5727H31.7652C33.5558 43.5727 34.4396 44.4474 34.4396 46.2212C34.4396 50.3834 34.4396 54.5457 34.4396 58.708V59.5125H43.5804V46.3677C43.5804 44.4168 44.4123 43.5742 46.3403 43.5727H59.5583L59.5553 34.4319Z" fill="#09566A"/>
</g>
<defs>
<clipPath id="clip0_2_213">
<rect width="78.0092" height="78" fill="white"/>
</clipPath>
</defs>
</svg>
