<svg width="88" height="80" viewBox="0 0 88 80" fill="none" xmlns="http://www.w3.org/2000/svg">
<path d="M0 24.7253C4.83786 16.8978 9.65734 9.10736 14.4585 1.35406C14.6938 0.91516 15.0494 0.55403 15.4827 0.313891C15.9161 0.0737516 16.4088 -0.0352229 16.9019 1.05123e-05H71.1165C71.6001 -0.0235602 72.0803 0.0931748 72.5003 0.336413C72.9202 0.579651 73.2625 0.93922 73.4864 1.3726C78.0793 8.79203 82.6722 16.3228 87.357 23.7978C88.1837 25.1333 88.1653 25.4487 87.21 26.6543L45.5983 78.85C44.3858 80.3895 43.6142 80.3895 42.4017 78.85L0.643006 26.5245C0.404175 26.2277 0.220459 25.968 0 25.597V24.7253ZM39.3152 70.2064C39.2595 69.8749 39.1859 69.5467 39.0948 69.2233L27.4472 37.0972C26.1979 33.6286 24.9303 30.1785 23.7729 26.7285H4.5929L5.18079 27.489L32.7382 61.9337C34.9061 64.6974 37.0923 67.4426 39.3152 70.2064ZM47.6559 71.1338C47.9246 70.9977 48.1722 70.8228 48.3908 70.6144C59.8792 56.2578 71.3431 41.9012 82.7825 27.5446L83.4438 26.6543H82.3599C76.628 26.6543 70.9144 26.6543 65.1825 26.6543C64.8695 26.6039 64.5492 26.6755 64.2865 26.8546C64.0239 27.0337 63.8385 27.3069 63.7678 27.6188C59.2239 40.1206 54.6249 52.6099 49.9708 65.087C49.2175 67.1087 48.4276 69.112 47.6559 71.1338C47.648 71.1767 47.648 71.2207 47.6559 71.2636V71.1338ZM60.9937 26.6172H26.8042L43.7428 73.3967C49.6033 57.7603 55.2618 42.2722 60.9937 26.6914V26.6172ZM28.0718 23.6309H59.9098L44.0919 3.85811L28.0718 23.6309ZM18.243 3.04198L25.261 22.4252L40.8585 3.04198H18.243ZM62.6288 22.2583L69.8121 3.07907H47.1599L62.6288 22.2583ZM72.2004 4.84119L65.256 23.668H83.848L72.2004 4.84119ZM15.7812 4.84119L4.15198 23.6494H22.5236L15.7812 4.84119Z" fill="#364F6B"/>
</svg>
