<svg width="100" height="100" viewBox="0 0 100 100" fill="none" xmlns="http://www.w3.org/2000/svg">
<ellipse cx="47.5001" cy="50.5" rx="4.5" ry="5.5" transform="rotate(-19.6204 47.5001 50.5)" fill="#007DB7"/>
<ellipse cx="93.0855" cy="50.5" rx="4.5" ry="5.5" transform="rotate(8.34365 93.0855 50.5)" fill="#007DB7"/>
<ellipse cx="60.0001" cy="36" rx="6.1837" ry="8.41199" transform="rotate(-19.6204 60.0001 36)" fill="#007DB7"/>
<ellipse cx="80.3675" cy="35.8493" rx="6.1837" ry="8.41199" transform="rotate(16.9499 80.3675 35.8493)" fill="#007DB7"/>
<ellipse cx="68.8279" cy="62" rx="9.86639" ry="11.6288" transform="rotate(16.9499 68.8279 62)" fill="#007DB7"/>
<ellipse cx="63.08" cy="66.9813" rx="8.56102" ry="9.91619" transform="rotate(16.9499 63.08 66.9813)" fill="#007DB7"/>
<ellipse cx="78.0525" cy="66.7493" rx="8.56102" ry="9.91619" transform="rotate(-54.1007 78.0525 66.7493)" fill="#007DB7"/>
<path d="M55.0834 0C55.5803 0.126019 56.0771 0.259451 56.5666 0.363232C59.5978 1.01992 62.3491 2.60413 64.4382 4.89575C66.5274 7.18737 67.8506 10.0726 68.224 13.1505C68.3102 13.8268 68.3597 14.5073 68.3723 15.189C68.3723 22.3202 68.3723 29.449 68.3723 36.5752C68.4109 38.7979 67.8362 40.9883 66.7112 42.9059C66.1505 43.945 65.3368 44.826 64.3452 45.4674C63.3536 46.1088 62.2162 46.4898 61.0382 46.5752C59.9944 46.6536 58.9462 46.5009 57.9682 46.128C56.9902 45.7552 56.1065 45.1713 55.3801 44.4181C53.3629 42.3794 52.0637 39.7402 51.6784 36.8987C51.2932 34.0572 51.8428 31.1676 53.2443 28.6657C53.7516 27.7585 54.4537 26.975 55.3001 26.3714C56.1464 25.7678 57.1161 25.3592 58.1392 25.1749C59.1624 24.9907 60.2137 25.0353 61.2176 25.3056C62.2215 25.5759 63.153 26.0652 63.9451 26.7383C64.2714 26.9978 64.5755 27.2795 64.9833 27.6279C64.9833 27.3314 65.0204 27.146 65.0204 26.9681C65.0204 22.9652 65.0204 18.9622 65.0204 14.9592C65.0081 12.5658 64.2603 10.234 62.8781 8.27956C61.496 6.32514 59.5464 4.84256 57.2933 4.03262C56.0421 3.55669 54.7165 3.30573 53.3778 3.29133C51.1531 3.29133 48.8839 3.29133 46.637 3.29133C43.5502 3.30892 40.5953 4.54503 38.4161 6.73044C36.2368 8.91585 35.0096 11.8735 35.0019 14.9592C34.9574 20.3558 35.0019 25.7598 35.0019 31.1638C35.0089 31.618 34.9591 32.0712 34.8535 32.513C34.677 33.2315 34.2586 33.8676 33.6685 34.3143C33.0785 34.7611 32.3527 34.9914 31.6129 34.9666C29.0397 34.9666 26.4739 34.9666 23.9006 34.9666C21.0011 34.9666 18.1016 34.9666 15.2095 34.9666C12.5175 34.9237 9.89361 35.8136 7.78348 37.4851C5.67336 39.1567 4.20708 41.5068 3.63367 44.1364C3.44843 44.9614 3.35148 45.8038 3.34446 46.6494C3.29996 48.8732 3.34446 51.0971 3.34446 53.2839C3.34246 56.3786 4.56734 59.348 6.75087 61.5418C8.9344 63.7357 11.8986 64.9752 14.9944 64.9889C20.3634 65.0334 25.7397 64.9889 31.1086 64.9889C31.606 64.966 32.1043 65.0059 32.5918 65.1075C33.3083 65.2907 33.9398 65.715 34.3801 66.3091C34.8204 66.9031 35.0426 67.6306 35.0093 68.3692C35.0093 71.8829 35.0093 75.3966 35.0093 78.9103C35.0093 80.897 35.0093 82.8836 35.0093 84.8406C34.9965 86.3924 35.2923 87.9313 35.8796 89.3679C36.4668 90.8044 37.3339 92.11 38.4302 93.2087C39.5266 94.3074 40.8304 95.1773 42.266 95.768C43.7016 96.3587 45.2403 96.6583 46.7927 96.6494C48.9433 96.6494 51.0938 96.6494 53.2369 96.6494C54.7797 96.6572 56.3088 96.3605 57.7366 95.7764C59.1645 95.1924 60.463 94.3323 61.5576 93.2456C62.6523 92.1589 63.5217 90.8669 64.1159 89.4437C64.7101 88.0205 65.0175 86.494 65.0204 84.9518C65.0204 82.5426 65.0204 80.1408 65.0204 77.7317C65.0204 77.5167 65.0204 77.3017 65.0204 77.1535C63.8553 77.5766 62.6638 77.9233 61.4535 78.1913C57.7976 78.7695 54.8758 77.4944 53.0738 74.6924C52.3617 73.5208 51.9373 72.1973 51.8354 70.8302C51.5945 69.0187 51.7626 67.1762 52.3272 65.4381C52.8919 63.7 53.8387 62.1103 55.0983 60.7858C56.4833 59.3174 57.7065 57.7045 58.7468 55.9748C59.3252 55.0185 59.9184 54.1142 60.5339 53.1801C62.8624 49.7109 66.1772 48.2357 70.2855 48.3321C73.3407 48.3988 76.0697 49.2513 78.1683 51.5715C78.9345 52.414 79.6221 53.3246 80.2225 54.2921C81.7629 56.7829 83.4987 59.1477 85.4134 61.364C86.8005 62.9374 87.7455 64.8504 88.1519 66.908C88.5584 68.9655 88.4118 71.0939 87.7271 73.0764C87.2471 74.5572 86.3227 75.8545 85.0796 76.7921C83.8365 77.7297 82.3349 78.2622 80.7786 78.3173C78.3517 78.4401 75.9577 77.714 74.0082 76.2639C73.2084 75.6758 72.2875 75.2735 71.3125 75.0863C70.3375 74.8991 69.3331 74.9316 68.3723 75.1816V76.2713C68.3723 79.2365 68.3723 82.1349 68.3723 85.063C68.3526 88.3595 67.2442 91.5573 65.2192 94.1592C63.1943 96.7612 60.3663 98.6216 57.1746 99.4514C56.0106 99.7504 54.8166 99.917 53.6151 99.9481C51.2125 100.022 48.795 100 46.3923 99.9481C42.7935 99.8835 39.3385 98.5244 36.6608 96.12C33.9831 93.7155 32.262 90.4269 31.8131 86.8569C31.7157 86.0824 31.6662 85.3025 31.6648 84.5219C31.6648 79.5107 31.6648 74.4996 31.6648 69.4885V68.3247H30.5302C25.2874 68.3247 20.0519 68.3692 14.809 68.3247C11.6486 68.2813 8.5831 67.2387 6.05197 65.3463C3.52084 63.454 1.65408 60.8092 0.719318 57.791C0.407861 56.8866 0.229885 55.9674 0 55.063V44.9148C0.073727 44.7394 0.133244 44.5585 0.177976 44.3736C0.462209 42.372 1.17554 40.4553 2.26919 38.7546C3.57831 36.5847 5.4279 34.7912 7.63742 33.5491C9.84694 32.307 12.3409 31.6589 14.8758 31.6679C20.0667 31.5715 25.2577 31.6679 30.4931 31.6679H31.6351V30.5041C31.6351 25.493 31.6351 20.4893 31.6351 15.4781C31.6363 14.6975 31.6858 13.9176 31.7835 13.1431C32.1578 10.0675 33.4806 7.18467 35.5682 4.89461C37.6558 2.60456 40.4047 1.02084 43.4334 0.363232C43.9377 0.252039 44.4271 0.118606 44.9166 0H55.0834ZM69.9889 51.6976C68.6125 51.583 67.2321 51.864 66.0103 52.5075C64.7884 53.1511 63.776 54.1303 63.0923 55.3299C62.8105 55.7746 62.5065 56.1972 62.2469 56.642C60.8354 59.0227 59.1909 61.2575 57.3378 63.3136C56.2829 64.458 55.5529 65.8632 55.2231 67.384C54.8932 68.9048 54.9756 70.4861 55.4616 71.9644C55.7128 72.8135 56.2245 73.5623 56.9244 74.105C57.6243 74.6477 58.4771 74.9569 59.3623 74.9889C61.0005 75.0862 62.6228 74.6206 63.96 73.6694C65.7011 72.3531 67.8244 71.6409 70.0074 71.6409C72.1904 71.6409 74.3137 72.3531 76.0549 73.6694C77.3604 74.6054 78.944 75.073 80.5488 74.9963C81.484 74.983 82.3888 74.6621 83.1233 74.0833C83.8579 73.5044 84.3812 72.6999 84.6125 71.7939C85.0445 70.2845 85.0782 68.689 84.7104 67.1626C84.3427 65.6363 83.586 64.2311 82.5139 63.0838C81.498 61.8977 80.4746 60.7191 79.5476 59.4514C78.6207 58.1838 77.7901 56.7235 76.9225 55.3521C76.2371 54.1442 75.2197 53.158 73.9908 52.5103C72.762 51.8626 71.3731 51.5805 69.9889 51.6976ZM54.8758 34.4107C54.9129 37.6501 55.7583 39.9629 57.5528 41.9274C57.9691 42.4205 58.5034 42.8004 59.106 43.0316C59.7086 43.2628 60.3599 43.3379 60.9994 43.2499C61.6388 43.1618 62.2456 42.9135 62.7632 42.5281C63.2809 42.1426 63.6925 41.6325 63.96 41.0452C64.9764 39.0597 65.2775 36.7848 64.8128 34.6034C64.4991 32.6622 63.5435 30.8822 62.0986 29.5478C59.9555 27.6501 57.2117 28.169 55.914 30.6968C55.294 31.8414 54.9392 33.1106 54.8758 34.4107Z" fill="#364F6B"/>
<path d="M71.6797 35.9303C71.7159 34.2675 72.0887 32.6292 72.7756 31.1144C73.4626 29.5995 74.4495 28.2395 75.6767 27.1164C79.5106 23.662 84.8128 24.685 87.1191 29.2884C88.3085 31.6852 88.7405 34.387 88.3577 37.035C87.975 39.683 86.7955 42.152 84.9759 44.1142C80.9937 48.3247 75.2614 46.9163 73.0293 42.4018C72.0454 40.3913 71.5813 38.1664 71.6797 35.9303ZM75.0019 36.1824C74.9496 37.8467 75.3061 39.4985 76.0401 40.9933C76.3022 41.5912 76.713 42.1121 77.2335 42.5064C77.7539 42.9006 78.3666 43.1552 79.0133 43.2459C79.66 43.3365 80.3191 43.2602 80.928 43.0243C81.5368 42.7883 82.0752 42.4005 82.4917 41.8977C84.1111 40.1326 85.0495 37.8492 85.1391 35.4559C85.2324 33.7926 84.8655 32.1357 84.0786 30.6672C82.7809 28.1764 80.0668 27.6427 77.9756 29.5182C77.3548 30.0924 76.818 30.7512 76.3812 31.4752C75.5208 32.8981 75.0454 34.5203 75.0019 36.1824Z" fill="#364F6B"/>
<path d="M100 48.7546C99.9184 52.1497 98.1831 56.3899 93.9043 57.8799C90.1371 59.192 87.0152 57.0793 86.1846 53.5582C85.7629 51.4418 86.0518 49.2454 87.0065 47.3099C87.9612 45.3745 89.5283 43.8081 91.4645 42.854C94.2677 41.5789 97.2117 42.3202 98.806 44.7072C99.5825 45.9147 99.9968 47.3192 100 48.7546ZM96.7371 48.5915C96.5793 47.9569 96.3811 47.3329 96.1438 46.7235C95.9071 46.2963 95.5364 45.9588 95.0887 45.7632C94.6411 45.5676 94.1414 45.5247 93.667 45.6412C90.1149 46.4344 88.7133 50.934 89.5439 53.2098C89.6314 53.5423 89.7894 53.852 90.0074 54.118C90.2253 54.384 90.498 54.5999 90.8069 54.7512C91.1158 54.9024 91.4536 54.9853 91.7974 54.9944C92.1412 55.0034 92.483 54.9383 92.7994 54.8035C93.2274 54.6496 93.6299 54.4322 93.9933 54.1586C95.7063 52.8539 96.5368 51.0823 96.7371 48.5915Z" fill="#364F6B"/>
<path d="M40.0445 48.851C40.0309 47.7723 40.2484 46.7031 40.6823 45.7153C41.2075 44.4019 42.2144 43.3383 43.4975 42.7418C44.7806 42.1453 46.243 42.0608 47.5863 42.5055C50.6563 43.447 52.5102 45.656 53.5188 48.5915C54.2568 50.525 54.2568 52.6625 53.5188 54.596C53.1371 55.6956 52.4173 56.6463 51.4622 57.3121C50.5072 57.9778 49.3659 58.3245 48.2018 58.3024C46.3348 58.1859 44.5659 57.4262 43.1962 56.1527C42.2034 55.2125 41.4121 54.0805 40.8703 52.8253C40.3286 51.5702 40.0476 50.218 40.0445 48.851ZM43.3 48.7324C43.4187 49.4292 43.4632 49.9852 43.6115 50.5115C43.8222 51.3855 44.2169 52.2045 44.7693 52.914C45.3218 53.6234 46.0192 54.2069 46.815 54.6256C48.6244 55.53 50.2781 54.7146 50.6193 52.7279C50.7537 51.9927 50.7537 51.2393 50.6193 50.5041C50.0853 48.1838 48.9433 46.3528 46.4368 45.6857C45.9192 45.4971 45.3483 45.5187 44.8464 45.746C44.3446 45.9732 43.9518 46.388 43.7524 46.9014C43.5431 47.4979 43.382 48.1102 43.2704 48.7324H43.3Z" fill="#364F6B"/>
<path d="M6.67407 46.5159C6.74323 44.3892 7.61383 42.3672 9.11143 40.855C10.609 39.3428 12.623 38.4523 14.7497 38.3618C14.9763 38.3319 15.2066 38.3486 15.4265 38.411C15.6464 38.4734 15.8512 38.58 16.0283 38.7245C16.2054 38.8689 16.3511 39.048 16.4564 39.2508C16.5618 39.4536 16.6245 39.6757 16.6407 39.9036C16.6667 40.1315 16.6429 40.3623 16.571 40.58C16.4991 40.7978 16.3809 40.9974 16.2244 41.1651C16.0679 41.3328 15.8769 41.4646 15.6646 41.5514C15.4523 41.6382 15.2236 41.678 14.9944 41.6679C13.9429 41.6758 12.9207 42.0154 12.0738 42.6384C11.2268 43.2614 10.5984 44.1359 10.2781 45.1371C10.1245 45.7329 10.0203 46.3404 9.96662 46.9533C9.91867 47.3107 9.7498 47.6409 9.48807 47.8891C9.22635 48.1372 8.88754 48.2883 8.52798 48.3173C8.15309 48.3742 7.77025 48.2938 7.45 48.0908C7.12976 47.8878 6.89369 47.576 6.78531 47.2128C6.7239 46.985 6.68662 46.7515 6.67407 46.5159Z" fill="#364F6B"/>
<path d="M22.4397 41.616C22.1162 41.6346 21.7918 41.6346 21.4683 41.616C21.0906 41.58 20.738 41.4113 20.4732 41.1398C20.2084 40.8683 20.0486 40.5117 20.0222 40.1334C19.9603 39.7581 20.0451 39.3733 20.259 39.0587C20.473 38.7441 20.7997 38.5238 21.1716 38.4433C22.0349 38.321 22.9112 38.321 23.7745 38.4433C24.1458 38.517 24.4762 38.7265 24.7012 39.0309C24.9261 39.3352 25.0293 39.7125 24.9907 40.0889C24.9739 40.4825 24.814 40.8563 24.5408 41.1403C24.2677 41.4242 23.9003 41.5986 23.5076 41.6308C23.1518 41.6494 22.7954 41.6494 22.4397 41.6308V41.616Z" fill="#364F6B"/>
</svg>
