<svg width="205" height="31" viewBox="0 0 205 31" fill="none" xmlns="http://www.w3.org/2000/svg">
<g clip-path="url(#clip0_312_850)">
<path d="M0 0.195083C0.299754 0.132213 0.599507 0.0199462 0.900383 0.0165782C2.51815 -0.00138456 4.13705 0.0210689 5.75482 -0.000261892C6.27686 -0.00699793 6.58447 0.159158 6.86963 0.629557C8.53792 3.38347 10.259 6.10595 11.9486 8.8464C12.8097 10.243 13.6382 11.6598 14.4915 13.0609C14.6441 13.3113 14.8462 13.5324 15.1291 13.9018C15.5445 13.2293 15.8768 12.6916 16.2091 12.1538C18.3692 8.64768 20.5337 5.14495 22.6881 1.63547C23.8691 -0.289911 23.3808 0.037909 25.5868 0.00984216C26.769 -0.00475258 27.9512 -0.00138456 29.1334 0.00984216C29.9462 0.0177009 30.0371 0.120987 30.0618 0.919207C30.0663 1.07414 30.0618 1.22906 30.0618 1.38399C30.0618 10.5607 30.0618 19.7374 30.0618 28.9142C30.0618 29.2768 30.0618 29.6394 30.0618 29.9695C29.2176 30.1895 24.518 30.2064 23.5705 30.0043C23.4549 27.9947 23.5391 25.957 23.5234 23.9239C23.5076 21.9087 23.5907 19.8901 23.5009 17.8794C23.4111 15.8698 23.9163 13.8591 23.6233 11.854C23.5424 11.8316 23.4605 11.8103 23.3797 11.7878C23.1697 12.037 22.9205 12.2627 22.7555 12.5389C21.3106 14.9571 19.8792 17.3843 18.4455 19.8093C18.0043 20.5559 17.5519 21.2957 17.1387 22.0569C16.9479 22.4072 16.6986 22.5318 16.3158 22.5239C15.5378 22.5071 14.7587 22.4958 13.9829 22.5284C13.4855 22.5497 13.1723 22.3667 12.9276 21.9401C12.1731 20.6244 11.3962 19.3209 10.6216 18.0175C9.48322 16.1011 8.34033 14.1869 7.19745 12.2739C7.10539 12.119 6.992 11.9764 6.87637 11.8091C6.50701 11.9573 6.36443 12.1684 6.39923 12.5355C6.4621 13.2102 6.52273 13.8872 6.53283 14.5642C6.60356 19.3007 6.66531 24.0373 6.72032 28.7738C6.73604 30.1446 6.72144 30.1457 5.32147 30.1457C3.54765 30.1457 1.77382 30.1446 0.00112267 30.1435C0 20.1607 0 10.1779 0 0.195083Z" fill="white"/>
<path d="M49.8478 30.7028C49.4054 30.5895 48.9665 30.4637 48.5208 30.366C45.8803 29.7867 43.663 28.4912 41.9284 26.4277C40.561 24.801 39.8178 22.8711 39.3968 20.811C39.1117 19.4155 38.9983 18.0065 39.0061 16.5774C39.0308 11.5568 39.0151 6.53507 39.0151 1.51448C39.0151 1.2978 39.0084 1.08001 39.0174 0.86333C39.0465 0.124612 39.1409 0.0179577 39.9088 0.0123443C41.5568 -5.07454e-06 43.206 -5.07454e-06 44.8541 0.0123443C45.6422 0.0190804 45.7377 0.123489 45.7399 0.961003C45.7478 3.75084 45.7433 6.53956 45.7433 9.3294C45.7433 11.778 45.722 14.2265 45.7523 16.6751C45.7691 18.0357 45.9521 19.3773 46.3978 20.6807C47.0534 22.5994 48.3591 23.7771 50.326 24.2587C51.5789 24.5652 52.833 24.5764 54.087 24.2991C56.2122 23.8287 57.5953 22.532 58.2667 20.4843C58.6248 19.3919 58.8 18.2603 58.8022 17.114C58.8123 11.8453 58.8067 6.57661 58.8067 1.30679C58.8067 0.443825 59.2363 0.0115959 60.0955 0.010099C61.5887 0.00897631 63.0818 0.00224027 64.575 0.0123443C65.4395 0.0179577 65.5304 0.107772 65.5315 0.984579C65.536 6.78094 65.6022 12.5773 65.5034 18.3714C65.4541 21.269 64.5671 23.9938 62.7316 26.2986C60.7916 28.7337 58.1904 30.0753 55.1165 30.5311C54.9728 30.5524 54.8403 30.6445 54.7022 30.704H49.8478V30.7028Z" fill="white"/>
<path d="M168.062 10.0861C168.355 9.79084 168.645 9.55732 168.862 9.27104C170.192 7.52416 171.508 5.76718 172.824 4.00908C174.363 1.95459 176.408 0.664634 178.927 0.250368C180.047 0.0662498 181.223 0.178517 182.373 0.21332C182.944 0.23016 183.154 0.75108 182.823 1.31578C182.542 1.79404 182.195 2.23638 181.856 2.67759C180.482 4.46713 179.103 6.2533 177.719 8.0361C176.316 9.84248 174.922 11.6567 173.492 13.4418C172.48 14.7048 172.421 15.86 173.4 17.1533C175.322 19.6928 177.244 22.2312 179.176 24.7639C180.077 25.9439 181.006 27.1013 181.902 28.2846C182.177 28.6484 182.478 29.0166 182.405 29.5409C182.355 29.9035 182.197 30.1157 181.824 30.137C179.062 30.2942 176.455 29.9327 174.151 28.1926C173.006 27.3281 172.22 26.1976 171.38 25.0974C168.83 21.754 166.308 18.3894 163.765 15.0405C162.363 13.1948 160.944 11.3615 159.526 9.52701C157.599 7.03131 155.665 4.54122 153.737 2.04664C153.566 1.8266 153.391 1.60543 153.256 1.36406C152.871 0.673616 153.124 0.250368 153.912 0.194235C156.429 0.0146069 158.691 0.773533 160.815 2.04103C162.465 3.02561 163.735 4.40426 164.848 5.94569C165.735 7.17389 166.636 8.39199 167.541 9.60784C167.663 9.77175 167.844 9.89188 168.062 10.0906V10.0861Z" fill="white"/>
<path d="M110.903 30.0899H104.231C104.211 29.679 104.178 29.3197 104.178 28.9593C104.175 22.0482 104.176 15.137 104.176 8.22582C104.176 8.00914 104.182 7.79134 104.175 7.57467C104.15 6.8236 103.809 6.43965 103.066 6.34983C102.82 6.31952 102.568 6.33748 102.32 6.33748C100.267 6.33748 98.2148 6.33748 96.1614 6.33748C95.8291 6.33748 95.4968 6.33748 95.1364 6.33748C95.0859 6.07702 95.0342 5.93108 95.0331 5.78513C95.0264 4.14266 95.0174 2.50019 95.0309 0.857718C95.0365 0.124613 95.1532 0.0213274 95.9245 0.0123461C97.1684 -0.00112602 98.4123 0.00897803 99.6574 0.00897803C106.096 0.00897803 112.534 0.00897803 118.973 0.00897803C120.23 0.00897803 120.236 0.0157141 120.238 1.23494C120.24 2.56755 120.238 3.90016 120.238 5.23277C120.238 5.53926 120.238 5.84575 120.238 6.26226C119.843 6.29033 119.516 6.33299 119.191 6.33411C117.044 6.33973 114.899 6.33748 112.752 6.33748C112.503 6.33748 112.252 6.32064 112.007 6.35096C111.362 6.42954 110.996 6.78992 110.919 7.42984C110.885 7.7049 110.904 7.98669 110.904 8.26623C110.904 15.146 110.904 22.0268 110.904 28.9066V30.091L110.903 30.0899Z" fill="white"/>
<path d="M96.4701 23.8186V30.0708C96.1524 30.0989 95.883 30.1438 95.6147 30.1438C91.1049 30.1483 86.594 30.2167 82.0853 30.1191C79.6087 30.0652 77.6373 28.8909 76.3283 26.7331C75.5525 25.4544 75.2325 24.06 75.2337 22.5736C75.2393 15.4772 75.2359 8.38076 75.237 1.28323C75.237 0.434489 75.6737 0.00936996 76.5472 0.00787307C78.0089 0.00675039 79.4706 0.00450505 80.9323 0.0101184C81.2343 0.0112411 81.5363 0.0437986 81.9181 0.066252C81.9349 0.497358 81.9618 0.858859 81.963 1.22148C81.9652 7.69818 81.963 14.1749 81.9708 20.6516C81.9708 21.0793 82.0191 21.516 82.1145 21.9325C82.4289 23.3056 83.0755 23.8153 84.4553 23.8164C88.0939 23.8186 91.7336 23.8164 95.3722 23.8164C95.7056 23.8164 96.0401 23.8164 96.4701 23.8164V23.8186Z" fill="white"/>
<path d="M133.415 30.0854H126.84C126.811 29.7621 126.768 29.4937 126.768 29.2254C126.764 19.8376 126.763 10.4498 126.767 1.06206C126.767 0.0785985 126.837 0.0134836 127.831 0.00899289C129.386 0.00337952 130.941 0.00113418 132.496 0.00899289C133.413 0.0134836 133.491 0.0920707 133.491 1.03512C133.495 10.4543 133.494 19.8724 133.491 29.2917C133.491 29.5308 133.448 29.771 133.417 30.0843L133.415 30.0854Z" fill="white"/>
<path d="M189.781 0.190865C192.319 0.318849 194.547 1.21362 196.426 2.91896C197.858 4.21789 198.901 5.84352 200.074 7.35688C201.513 9.21378 202.891 11.1167 204.308 12.9905C205.235 14.2142 205.23 15.384 204.287 16.6279C202.065 19.5592 199.828 22.4782 197.644 25.4386C195.68 28.1027 193.063 29.6318 189.807 30.1135C189.411 30.1718 188.997 30.1707 188.598 30.1325C187.912 30.0663 187.636 29.5465 187.972 28.9335C188.194 28.5305 188.496 28.169 188.777 27.8019C190.134 26.0382 191.493 24.2767 192.857 22.5186C194.466 20.4428 196.08 18.3714 197.69 16.2956C197.823 16.125 197.94 15.9408 198.059 15.7601C198.59 14.954 198.57 14.734 197.974 13.9425C196.188 11.5725 194.414 9.19358 192.626 6.82586C191.378 5.17329 190.113 3.53306 188.856 1.88835C188.781 1.78955 188.689 1.70198 188.625 1.59757C188.407 1.24169 188.25 0.858855 188.477 0.461429C188.684 0.0965603 189.076 0.214441 189.406 0.19311C189.53 0.185251 189.654 0.191987 189.779 0.191987L189.781 0.190865Z" fill="white"/>
<path d="M153.395 30.0842C153.195 29.5712 153.413 29.258 153.639 28.9649C155.501 26.5433 157.359 24.1184 159.241 21.7114C160.125 20.5808 161.377 20.1576 162.757 20.1093C164.029 20.0644 165.303 20.1037 166.577 20.0969C167.002 20.0947 167.388 20.143 167.625 20.6886C167.44 20.9996 167.252 21.3858 167.002 21.7259C166.068 22.9934 165.169 24.2924 164.156 25.4948C162.093 27.9456 159.508 29.5218 156.275 29.9899C155.316 30.1292 154.38 30.1763 153.395 30.0854V30.0842Z" fill="white"/>
<path d="M188.003 12.5874C188.031 11.1515 189.139 10.0187 190.54 10.0603C192.203 10.1086 193.247 11.2761 193.205 12.7019C193.158 14.3309 191.935 15.2684 190.544 15.2425C189.229 15.2178 187.889 14.0884 188.002 12.5874H188.003Z" fill="white"/>
</g>
<defs>
<clipPath id="clip0_312_850">
<rect width="205" height="30.7028" fill="white"/>
</clipPath>
</defs>
</svg>
