<svg width="219" height="151" viewBox="0 0 219 151" fill="none" xmlns="http://www.w3.org/2000/svg">
<path d="M213.206 148.511H5.66849C5.66849 148.511 0.495751 137.11 0.0330791 121.83C0.0330791 121.645 0.0258304 121.456 0.0173742 121.27C-0.171077 112.699 1.13842 102.956 5.66849 93.3452C6.88647 90.7303 8.35503 88.2393 10.0536 85.9073C10.1949 85.7142 10.3375 85.521 10.4788 85.3315C24.4665 66.8954 48.6849 67.2902 78.5061 36.1502C83.1944 31.256 87.7716 27.1585 92.2352 23.7553C92.5155 23.5428 92.7993 23.3291 93.0808 23.1166C98.3019 19.2244 103.361 16.2739 108.234 14.1044C108.432 14.0139 108.633 13.927 108.83 13.8413C114.462 11.3917 119.844 9.97803 124.958 9.31766C125.144 9.28989 125.329 9.26937 125.515 9.24643C138.51 7.70476 149.721 11.0404 158.679 14.7829C173.555 20.9943 183.465 40.5748 190.244 57.3991L190.469 57.9665C192.217 62.332 193.752 66.497 195.107 70.1767C195.185 70.3772 195.256 70.5788 195.331 70.7804C195.39 70.9506 195.452 71.1124 195.512 71.2778C200.859 85.7709 211.4 80.3829 217.619 108.81C222.108 129.324 213.206 148.511 213.206 148.511Z" fill="#F3F3FF"/>
<path d="M125.518 9.24631C125.331 9.26925 125.147 9.28977 124.961 9.31754C125.671 14.8591 126.027 20.4403 126.026 26.0272C126.026 82.1852 90.3291 130.173 40.4258 148.511H42.1859C59.2455 142.027 74.8918 131.947 88.1861 118.66C112.95 93.9174 126.579 61.0196 126.579 26.0272C126.582 20.4167 126.227 14.8118 125.518 9.24631Z" fill="white"/>
<path d="M108.237 14.1043C101.713 70.4724 56.5732 115.257 0.0197754 121.275C0.0282315 121.461 0.0318562 121.649 0.0354802 121.835C27.8562 118.921 53.6377 106.679 73.6957 86.634C93.5531 66.7854 105.759 41.3316 108.832 13.8363C108.635 13.922 108.435 14.0138 108.237 14.1043Z" fill="white"/>
<path d="M92.2353 23.7551C80.195 58.0811 48.3612 83.1872 10.4777 85.3362C10.3364 85.5257 10.1938 85.7189 10.0525 85.912C33.0049 84.7362 54.411 75.2483 70.7797 58.89C81.02 48.6512 88.5738 36.4422 93.0797 23.1165C92.7995 23.329 92.5156 23.5426 92.2353 23.7551Z" fill="white"/>
<path d="M190.473 57.9629L190.248 57.3955C181.839 61.7791 174.152 67.425 167.455 74.1365C149.939 91.6418 140.289 114.921 140.289 139.676C140.289 142.646 140.427 145.591 140.703 148.511H141.264C140.984 145.604 140.843 142.659 140.841 139.676C140.84 104.207 160.997 73.3554 190.473 57.9629Z" fill="white"/>
<path d="M195.334 70.7718C195.259 70.575 195.188 70.3734 195.109 70.1682C193.274 71.7408 191.491 73.3907 189.761 75.1179C172.245 92.6232 162.592 115.904 162.592 140.662C162.592 143.297 162.701 145.912 162.919 148.51H163.479C163.259 145.923 163.148 143.307 163.148 140.662C163.148 112.741 175.642 87.6782 195.334 70.7718Z" fill="white"/>
<path d="M219 148.393H1.54443V150.8H219V148.393Z" fill="#B1B7EF"/>
<path d="M195.426 128.426C194.991 129.442 194.541 130.463 194.083 131.478C190.109 140.252 185.528 148.392 185.528 148.392H164.317C164.245 148.104 167.875 141.901 172.903 134.566C172.95 134.498 172.994 134.432 173.041 134.364C180.464 123.57 190.858 110.434 196.96 110.087C202.089 109.795 199.449 118.98 195.426 128.426Z" fill="#09AAA2"/>
<path d="M194.777 116.003C194.627 116.196 180.894 134.265 175.207 148.393H174.78C180.458 134.187 194.318 115.96 194.464 115.762C194.48 115.741 194.499 115.724 194.522 115.711C194.544 115.698 194.569 115.689 194.595 115.686C194.621 115.683 194.647 115.685 194.672 115.692C194.697 115.699 194.72 115.711 194.741 115.727C194.781 115.759 194.807 115.806 194.814 115.858C194.821 115.909 194.808 115.961 194.777 116.003Z" fill="#00C9B9"/>
<g style="mix-blend-mode:multiply" opacity="0.45">
<path d="M195.426 128.426C194.991 129.442 194.541 130.463 194.083 131.478C190.109 140.252 185.528 148.392 185.528 148.392H164.317C164.245 148.104 167.875 141.901 172.903 134.566C178.151 135.311 187.646 135.372 195.426 128.426Z" fill="#09AAA2"/>
</g>
<path d="M210.148 125.11C205.764 130.991 203.383 137.841 199.166 148.513L191.399 148.461H190.973L181.162 148.398C181.162 148.398 187.71 138.902 194.079 131.484C196.951 128.139 199.793 125.213 201.979 123.778L205.795 124.401L206.241 124.475L210.148 125.11Z" fill="#00C9B9"/>
<path d="M206.241 124.469C206.233 124.49 206.22 124.509 206.205 124.525C206.103 124.64 196.592 135.362 191.399 148.459H190.973C195.874 136.024 204.678 125.684 205.795 124.398C205.866 124.315 205.905 124.277 205.916 124.264C205.947 124.23 205.99 124.207 206.036 124.201C206.082 124.195 206.129 124.205 206.168 124.23C206.207 124.255 206.236 124.293 206.25 124.338C206.264 124.382 206.262 124.43 206.243 124.473L206.241 124.469Z" fill="#36EAD9"/>
<path d="M201.98 123.772C201.98 123.772 209.294 127.835 211.826 126.371C214.358 124.906 211.967 121.859 208.52 121.526C205.074 121.193 201.98 123.772 201.98 123.772Z" fill="#19DDCA"/>
<path d="M173.041 134.364C171.154 139.23 168.85 143.923 166.155 148.393H150.647C150.647 148.393 164.418 109.914 172.722 104.973C179.331 101.032 180.022 116.381 173.041 134.364Z" fill="#00C9B9"/>
<path d="M173.712 111.779C170.981 125.042 162.311 142.898 159.545 148.392H159.108C161.765 143.135 170.575 125.065 173.326 111.7C173.336 111.649 173.367 111.604 173.41 111.575C173.454 111.546 173.507 111.536 173.558 111.546C173.61 111.557 173.655 111.587 173.684 111.631C173.713 111.674 173.723 111.728 173.712 111.779Z" fill="#36EAD9"/>
<path d="M112.967 148.393H96.1757C96.1757 148.393 95.8132 146.874 95.2878 144.421C92.9043 133.406 87.0128 103.58 94.2501 108.178C103.098 113.802 112.967 148.393 112.967 148.393Z" fill="#00C9B9"/>
<path d="M104.838 148.392H104.431C100.502 131.206 94.9375 116.132 94.8699 115.951C94.8525 115.902 94.8554 115.847 94.878 115.8C94.9007 115.753 94.9412 115.716 94.9907 115.699C95.0151 115.69 95.0412 115.685 95.0673 115.687C95.0934 115.688 95.119 115.694 95.1425 115.705C95.1661 115.717 95.1872 115.733 95.2045 115.752C95.2217 115.772 95.2349 115.795 95.2431 115.819C95.3084 115.998 100.895 131.147 104.838 148.392Z" fill="#36EAD9"/>
<path d="M97.6726 148.393H77.704C77.704 148.393 76.5721 146.129 74.9256 142.701C73.9423 140.649 72.7789 138.186 71.5673 135.535C71.4876 135.37 71.4127 135.204 71.3378 135.039C70.7338 133.711 70.1189 132.346 69.5076 130.965C69.3687 130.646 69.2274 130.322 69.0848 129.999C65.0476 120.731 61.496 111.227 63.4071 110.2C69.2986 107.037 81.7449 123.668 89.9014 135.988C92.065 139.248 93.9229 142.211 95.2844 144.419C96.7847 146.865 97.6726 148.393 97.6726 148.393Z" fill="#09AAA2"/>
<path d="M87.7475 148.392H87.3295C84.5233 141.325 80.3834 133.981 76.6747 128.031C76.1416 127.178 75.6205 126.358 75.1116 125.569C71.2918 119.638 68.2536 115.592 68.1739 115.486C68.1419 115.444 68.1278 115.391 68.1348 115.339C68.1418 115.287 68.1694 115.239 68.2113 115.207C68.2533 115.175 68.3063 115.161 68.3586 115.168C68.411 115.175 68.4584 115.203 68.4904 115.245C68.5725 115.355 71.8837 119.763 75.9439 126.137C75.9439 126.137 75.9439 126.145 75.9523 126.149C76.0393 126.283 76.1263 126.42 76.2169 126.563C76.2206 126.572 76.226 126.58 76.2326 126.587C80.1623 132.791 84.7322 140.749 87.7475 148.392Z" fill="#00C9B9"/>
<g style="mix-blend-mode:multiply" opacity="0.45">
<path d="M97.6726 148.393H77.704C77.704 148.393 76.5721 146.129 74.9255 142.702C73.9422 140.649 72.7789 138.187 71.5672 135.535C71.4875 135.37 71.4126 135.205 71.3377 135.039C70.7337 133.711 70.1188 132.346 69.5076 130.965C74.7021 134.586 83.0507 138.982 89.8965 135.989C92.0601 139.249 93.918 142.213 95.2795 144.421C96.7847 146.865 97.6726 148.393 97.6726 148.393Z" fill="#09AAA2"/>
</g>
<path d="M64.1959 148.393L59.4653 148.424L55.7047 148.447H55.294L46.2761 148.506C46.2761 148.506 45.8267 146.454 45.2505 143.363C43.4469 133.662 40.4184 113.665 46.2761 114.278C50.9693 114.761 56.5805 127.261 60.2541 136.986C60.8497 138.556 61.3945 140.062 61.8765 141.43C63.3164 145.513 64.1959 148.393 64.1959 148.393Z" fill="#00C9B9"/>
<path d="M55.7047 148.447H55.294L47.321 122.429C47.3064 122.38 47.3119 122.327 47.3363 122.282C47.3608 122.237 47.4022 122.203 47.4515 122.188C47.4759 122.18 47.5016 122.178 47.5271 122.18C47.5525 122.183 47.5772 122.19 47.5997 122.202C47.6222 122.215 47.6421 122.231 47.6581 122.251C47.6742 122.271 47.686 122.294 47.6931 122.318L55.7047 148.447Z" fill="#36EAD9"/>
<g style="mix-blend-mode:multiply" opacity="0.45">
<path d="M64.1959 148.393L59.4653 148.424L55.7047 148.447H55.294L46.2761 148.506C46.2761 148.506 45.8267 146.454 45.2505 143.363C52.1845 142.678 57.3621 139.356 60.2541 136.987C60.8497 138.556 61.3945 140.063 61.8765 141.43C63.3164 145.513 64.1959 148.393 64.1959 148.393Z" fill="#09AAA2"/>
</g>
<path d="M74.9303 142.702C74.1403 146.03 73.4034 148.511 73.4034 148.511L66.4537 148.468H66.0272L59.4653 148.429L58.25 148.42C58.25 148.42 59.7334 145.344 61.8741 141.44C63.918 137.725 66.5612 133.257 69.0871 130.004C71.2265 127.248 73.2778 125.358 74.8132 125.52C74.9128 125.532 75.0117 125.55 75.1091 125.574C75.4388 125.675 75.7294 125.875 75.9414 126.146C75.9414 126.146 75.9414 126.155 75.9499 126.159C76.0514 126.288 76.1401 126.426 76.2145 126.573C76.2182 126.582 76.2235 126.59 76.2302 126.597C76.4473 127.052 76.5963 127.537 76.6723 128.036C77.2811 131.537 76.0502 137.976 74.9303 142.702Z" fill="#0ED8C5"/>
<path d="M74.0897 129.174L71.5722 135.535L66.4538 148.467H66.0273L71.3426 135.044L73.7224 129.033C73.7423 128.985 73.7802 128.946 73.8281 128.926C73.8759 128.905 73.9299 128.904 73.9785 128.923C74.0264 128.942 74.0648 128.979 74.0856 129.026C74.1064 129.073 74.1079 129.126 74.0897 129.174Z" fill="#36EAD9"/>
<path d="M130.74 49.9817C132.492 49.9817 133.912 48.5623 133.912 46.8114C133.912 45.0605 132.492 43.6412 130.74 43.6412C128.988 43.6412 127.567 45.0605 127.567 46.8114C127.567 48.5623 128.988 49.9817 130.74 49.9817Z" fill="#B5C1EA"/>
<path d="M143.169 49.204C143.477 47.6089 143.475 45.9692 143.162 44.375L145.699 42.2466C145.164 39.8321 143.963 37.7797 142.131 36.0715L139.029 37.2522C137.802 36.1855 136.38 35.3657 134.842 34.8377L134.264 31.5781C131.907 30.8356 129.528 30.8537 127.13 31.5781L126.602 34.8497C125.066 35.3818 123.648 36.2049 122.424 37.2739L119.308 36.1439C117.487 37.8136 116.308 39.878 115.741 42.319L118.313 44.4112C118.005 46.0064 118.007 47.646 118.32 49.2403L115.783 51.3686C116.318 53.7832 117.519 55.8355 119.351 57.5438L122.454 56.3631C123.681 57.4295 125.102 58.2493 126.64 58.7776L127.218 62.0372C129.575 62.7797 131.954 62.7615 134.346 62.0372L134.874 58.7655C136.41 58.2338 137.829 57.4107 139.053 56.3413L142.168 57.4713C143.991 55.8017 145.168 53.7373 145.735 51.2962L143.169 49.204ZM122.077 46.8112C122.077 45.099 122.585 43.425 123.536 42.0012C124.488 40.5774 125.841 39.4676 127.424 38.8121C129.007 38.1567 130.749 37.9851 132.429 38.319C134.11 38.6529 135.653 39.4773 136.865 40.688C138.076 41.8987 138.902 43.4413 139.236 45.1207C139.57 46.8 139.399 48.5408 138.743 50.1228C138.088 51.7047 136.977 53.0569 135.553 54.0082C134.128 54.9595 132.453 55.4673 130.74 55.4673C128.442 55.4673 126.239 54.5554 124.615 52.9321C122.99 51.3088 122.077 49.1071 122.077 46.8112Z" fill="#B5C1EA"/>
<path opacity="0.67" d="M123.554 23.9821C123.425 23.6348 123.264 23.3005 123.071 22.9837C122.875 22.6612 122.647 22.3587 122.391 22.0806L122.874 20.6319C122.096 19.8231 121.085 19.2748 119.982 19.0625L119.044 20.2698C118.304 20.1448 117.546 20.1645 116.814 20.3277L115.801 19.1832C114.709 19.4508 113.727 20.0501 112.99 20.8987L113.57 22.3149C113.093 22.894 112.733 23.5597 112.508 24.2754L111.008 24.5797C110.695 25.6584 110.724 26.8076 111.09 27.8695L112.607 28.0759C112.87 28.7789 113.266 29.4245 113.773 29.9773L113.29 31.426C114.071 32.236 115.084 32.7843 116.189 32.9955L117.127 31.7882C117.867 31.912 118.624 31.8923 119.357 31.7303L120.369 32.8747C121.461 32.6072 122.443 32.0078 123.18 31.1592L122.6 29.7431C123.077 29.1637 123.438 28.4981 123.663 27.7825L125.162 27.4783C125.476 26.3997 125.448 25.2505 125.081 24.1885L123.554 23.9821ZM119.689 28.6602C119.168 28.9781 118.565 29.1346 117.955 29.1098C117.345 29.085 116.757 28.8801 116.263 28.521C115.77 28.1619 115.395 27.6646 115.184 27.0922C114.974 26.5198 114.938 25.8979 115.081 25.3051C115.225 24.7123 115.541 24.1753 115.989 23.762C116.438 23.3486 116.999 23.0775 117.602 22.983C118.205 22.8884 118.822 22.9746 119.376 23.2306C119.93 23.4867 120.395 23.9011 120.713 24.4215C121.139 25.1195 121.271 25.9579 121.078 26.7527C120.886 27.5474 120.387 28.2334 119.689 28.6602Z" fill="#B5C1EA"/>
<path d="M74.6043 11.3372V46.518L85.1382 54.7008H74.6043V70.0076C74.6036 71.144 74.1514 72.2337 73.3469 73.0369C72.5425 73.8402 71.4517 74.2913 70.3146 74.2909H30.0585C29.4957 74.2909 28.9385 74.1801 28.4185 73.9649C27.8986 73.7496 27.4262 73.4341 27.0283 73.0363C26.6304 72.6385 26.3148 72.1663 26.0995 71.6467C25.8842 71.127 25.7735 70.57 25.7737 70.0076V11.3348C25.7735 10.7724 25.8842 10.2155 26.0995 9.69594C26.3148 9.17633 26.6304 8.70421 27.0283 8.30655C27.4262 7.90888 27.8987 7.59346 28.4186 7.37832C28.9385 7.16318 29.4958 7.05253 30.0585 7.05269H70.3146C70.8778 7.05237 71.4356 7.16296 71.956 7.37814C72.4764 7.59332 72.9493 7.90886 73.3477 8.30675C73.7461 8.70464 74.0621 9.17707 74.2777 9.69706C74.4933 10.217 74.6043 10.7744 74.6043 11.3372Z" fill="#CFD6F9"/>
<g style="mix-blend-mode:multiply" opacity="0.29">
<path d="M74.6043 56.8716V70.0077C74.6036 71.1442 74.1514 72.2339 73.3469 73.0371C72.5425 73.8404 71.4518 74.2914 70.3146 74.2911H30.0585C29.4957 74.2911 28.9385 74.1803 28.4185 73.965C27.8986 73.7497 27.4262 73.4342 27.0283 73.0365C26.6304 72.6387 26.3148 72.1665 26.0995 71.6468C25.8842 71.1271 25.7735 70.5702 25.7737 70.0077V29.7819L41.7038 20.6405L47.4069 39.6259L73.3612 56.1388L74.6043 56.8716Z" fill="#3F51BA"/>
</g>
<path d="M81.3751 38.8533C79.7575 40.9056 78.4311 41.6058 78.4311 41.6058C78.4311 41.6058 77.4997 50.2268 77.0576 54.0997C76.6155 57.9726 74.197 61.4978 72.2002 61.7972C71.1902 61.9517 69.4495 61.1236 67.722 59.9042C66.4916 59.0422 65.3529 58.0564 64.3239 56.9621C64.0279 56.6434 63.7597 56.3235 63.5193 56.012C61.5019 53.3899 67.7728 49.8248 68.3333 49.5134C68.3471 49.5077 68.3605 49.5008 68.3731 49.4928L70.9728 51.6973L75.097 39.7841C75.097 39.7841 74.6041 38.0686 75.3386 35.7651C76.0731 33.4617 77.0552 32.0854 77.3475 32.3848C77.6399 32.6842 76.9102 35.1301 77.0552 35.9619C77.0552 35.9619 79.1161 35.5719 80.0475 33.5124C80.9788 31.4528 81.0767 29.5888 82.1579 30.7683C83.239 31.9478 82.9938 36.7937 81.3751 38.8533Z" fill="#9B3D18"/>
<g style="mix-blend-mode:multiply" opacity="0.42">
<path d="M71.4393 58.5797L69.9002 54.7853C69.9002 54.7853 69.2842 57.7117 67.7258 59.9041C66.4954 59.0421 65.3567 58.0563 64.3276 56.962L68.3371 49.5132C68.3509 49.5076 68.3643 49.5007 68.3769 49.4927L70.9766 51.6972L71.4393 58.5797Z" fill="#842715"/>
</g>
<path d="M70.1659 49.6568C69.9327 55.9708 63.9856 58.6231 63.9856 58.6231L60.5585 55.8138V74.2849H36.682L35.143 60.5149C32.7535 61.0545 31.3401 60.463 31.3401 60.463C30.8547 57.2551 30.6526 54.0108 30.7361 50.7675C30.8702 46.6942 31.5817 42.8418 33.4457 41.27C35.7228 39.348 38.9204 38.2518 40.84 37.7327C41.839 37.4611 42.4913 37.344 42.4913 37.344L43.9953 37.4647L48.465 37.81C49.8083 37.689 51.16 37.6946 52.5022 37.8269C54.4036 37.9995 56.7025 38.4486 58.7839 39.511C63.523 41.9304 70.1659 49.6568 70.1659 49.6568Z" fill="#EA711F"/>
<g style="mix-blend-mode:multiply" opacity="0.29">
<path d="M60.5585 68.0073V74.2947H36.682L35.143 60.5151C32.7535 61.0547 31.3401 60.4632 31.3401 60.4632C30.8547 57.2553 30.6526 54.011 30.7361 50.7677C31.078 50.6687 38.1654 47.3874 38.1654 47.3874C38.4445 47.6493 45.2855 66.5272 60.5585 68.0073Z" fill="#D84023"/>
</g>
<path d="M50.4415 44.6565C44.794 45.9435 40.8438 37.7329 40.8438 37.7329C40.9476 37.7196 42.2753 37.582 43.9991 37.4613L48.4688 37.8065C49.8121 37.6855 51.1638 37.6912 52.506 37.8234C53.5098 39.0464 56.0902 43.3792 50.4415 44.6565Z" fill="#FF9A55"/>
<path d="M50.6963 42.8165C47.2354 43.8547 42.7729 37.5347 42.7729 37.5347C43.2728 34.8312 43.4524 32.0782 43.3081 29.3326C43.3081 29.3157 43.3081 29.2988 43.3081 29.2868C43.3066 29.2673 43.3038 29.2479 43.2996 29.2288C43.2996 29.1745 43.2996 29.1491 43.2996 29.1491C43.2996 29.1491 52.1182 35.1939 51.7147 35.812C51.3112 36.4301 51.5939 37.8354 51.5939 37.8354C51.9404 38.3909 52.2049 38.9935 52.3791 39.6245C52.6751 40.8088 52.5869 42.2443 50.6963 42.8165Z" fill="#9B3D18"/>
<g style="mix-blend-mode:multiply" opacity="0.42">
<path d="M52.3706 39.6245C44.6973 39.5448 43.4542 30.7174 43.3105 29.3326C43.3105 29.3157 43.3105 29.2988 43.3105 29.2868C43.3089 29.2673 43.3061 29.2479 43.302 29.2288C43.302 29.1745 43.302 29.1491 43.302 29.1491C43.302 29.1491 52.1206 35.1939 51.7171 35.812C51.3136 36.4301 51.5963 37.8354 51.5963 37.8354C51.939 38.3915 52.1998 38.9941 52.3706 39.6245Z" fill="#842715"/>
</g>
<path d="M42.0565 26.5269C42.0565 26.5269 40.863 22.3015 41.7062 20.6403C42.5494 18.9791 43.8625 19.1216 43.8625 19.1216C43.8625 19.1216 43.8722 16.5984 45.8558 15.4093C47.8393 14.2201 52.3791 14.7851 54.8362 16.5694C57.2933 18.3538 58.7538 17.656 58.7538 17.656C58.7538 17.656 58.9036 19.8121 57.5144 20.2335C57.5144 20.2335 58.8541 20.085 59.3493 21.0266C59.3493 21.0266 57.9601 21.448 57.4648 22.8858C57.4648 22.8858 57.9855 25.7603 55.1334 27.1981C52.2812 28.636 45.7845 29.4279 45.7845 29.4279L43.4289 28.6106L42.0565 26.5269Z" fill="#020331"/>
<path d="M56.1008 23.6827C56.1008 23.6827 56.2494 33.4844 53.3478 35.2723C49.5679 37.6036 43.7512 33.0474 43.4529 29.428C43.4529 29.428 41.7616 29.0067 41.9899 26.8759C42.2183 24.745 45.01 24.9442 45.1393 27.5942L45.9776 25.2702C45.9776 25.2702 48.4891 25.7386 49.4048 22.444C49.4048 22.444 53.7694 24.0062 55.8073 22.444L56.1008 23.6827Z" fill="#9B3D18"/>
<g style="mix-blend-mode:multiply" opacity="0.29">
<path d="M60.5586 55.8138C60.5586 55.8138 60.8111 49.1195 59.3506 43.8342C59.3506 43.8342 63.6705 50.1493 63.1631 57.9494L60.5586 55.8138Z" fill="#D84023"/>
</g>
<path d="M64.1849 45.4156L62.002 54.8479C61.9405 55.1151 61.7947 55.3554 61.5861 55.5334C61.3775 55.7114 61.1172 55.8178 60.8435 55.8367L56.514 56.1397C56.316 56.1525 56.1176 56.1198 55.9341 56.0443C55.6546 55.9298 55.4249 55.7199 55.2857 55.452C55.1466 55.184 55.1071 54.8754 55.1743 54.5811L57.2654 45.0148C57.3254 44.7363 57.4769 44.4859 57.6958 44.3034C57.9148 44.1209 58.1885 44.0169 58.4734 44.008L62.8899 43.8486C63.0871 43.8401 63.2836 43.8774 63.464 43.9576C63.6443 44.0378 63.8036 44.1587 63.9293 44.3107C64.0551 44.4628 64.1438 44.642 64.1885 44.8341C64.2333 45.0262 64.2329 45.2261 64.1873 45.418L64.1849 45.4156Z" fill="#212572"/>
<path d="M64.1849 45.4158L62.002 54.8481C61.9405 55.1152 61.7947 55.3556 61.5861 55.5336C61.3775 55.7116 61.1172 55.8179 60.8435 55.8368L56.514 56.1399C56.316 56.1526 56.1176 56.12 55.9341 56.0445C55.8349 55.8036 55.8125 55.538 55.8701 55.2839L57.9612 45.714C58.0224 45.4361 58.1742 45.1863 58.3929 45.0041C58.6116 44.8218 58.8847 44.7174 59.1692 44.7071L63.5858 44.5478C63.7713 44.5403 63.9561 44.5741 64.1269 44.6468C64.2253 44.891 64.2455 45.1596 64.1849 45.4158Z" fill="#393BC6"/>
<path d="M63.0095 46.6389C62.9858 46.7525 62.929 46.8565 62.8461 46.9378C62.7633 47.0191 62.6582 47.0741 62.5442 47.0957C62.4301 47.1173 62.3122 47.1046 62.2053 47.0593C62.0984 47.014 62.0074 46.938 61.9438 46.8409C61.8801 46.7439 61.8467 46.6302 61.8477 46.5142C61.8487 46.3982 61.8841 46.285 61.9494 46.1891C62.0147 46.0932 62.107 46.0188 62.2147 45.9753C62.3223 45.9318 62.4404 45.9212 62.5541 45.9448C62.6296 45.9604 62.7013 45.9908 62.7651 46.0342C62.8289 46.0776 62.8834 46.1331 62.9257 46.1975C62.968 46.262 62.9972 46.3342 63.0116 46.4099C63.0259 46.4856 63.0252 46.5635 63.0095 46.6389Z" fill="#5E6DDD"/>
<path d="M63.5857 51.3823C63.0264 53.2789 60.6104 55.2275 58.6063 55.5896C56.6022 55.9518 54.499 54.5888 54.499 54.5888C54.499 54.5888 47.7752 64.3676 43.7174 67.492C39.6597 70.6164 38.4021 70.9472 36.003 68.2163C35.2263 67.329 34.5824 66.036 34.0774 64.6875C33.0156 61.8867 32.5227 58.8698 32.5227 58.8698L40.9946 57.5418V60.2629C40.9946 60.2629 50.2685 52.924 52.4345 51.5393C54.6005 50.1546 55.4376 49.0234 56.4125 48.9207L55.9909 50.7111C55.9909 50.7111 60.4606 50.8693 62.356 50.2029C64.2514 49.5364 64.1499 49.4809 63.5857 51.3823Z" fill="#9B3D18"/>
<g style="mix-blend-mode:multiply" opacity="0.42">
<path d="M40.9933 57.5379V60.259C40.9933 60.259 38.8515 63.1226 34.0762 64.6885C33.0144 61.8876 32.5215 58.8707 32.5215 58.8707L40.9933 57.5379Z" fill="#842715"/>
</g>
<path d="M31.072 60.4632C31.072 60.4632 34.9739 62.3103 41.1868 58.8213C41.1868 58.8213 40.648 47.5938 38.5171 43.4264C36.3861 39.2589 32.9602 39.9048 31.4526 43.7958C29.945 47.6868 30.2506 52.9709 31.072 60.4632Z" fill="#EA711F"/>
<path d="M142.538 143.249C142.538 143.249 138.31 146.08 135.929 147.08C133.548 148.081 133.44 148.511 133.44 148.511H148.348C148.365 147.111 148.142 145.718 147.689 144.393C146.945 142.277 142.538 143.249 142.538 143.249Z" fill="#D16115"/>
<path d="M140.564 139.504L142.68 143.316C142.68 143.316 144.198 145.509 147.689 144.393L146.119 139.504H140.564Z" fill="#EF8986"/>
<path d="M146.473 139.96C144.358 142.592 141.552 142.421 141.552 142.421L133.838 128.638L127.875 117.988V116.12L136.365 115.373L136.976 115.317C137.459 116.162 137.874 116.929 138.275 117.732C139.242 119.638 140.126 121.716 141.497 125.388C142.129 127.078 142.877 129.216 143.597 131.324C145.093 135.688 146.473 139.96 146.473 139.96Z" fill="#3F51BA"/>
<path opacity="0.75" d="M143.602 131.315C140.522 130.469 136.945 129.482 133.843 128.638L127.875 117.988V116.12L136.365 115.373L138.275 117.728C139.242 119.634 140.126 121.712 141.497 125.384C142.129 127.072 142.877 129.207 143.602 131.315Z" fill="#212572"/>
<path d="M110.65 143.249C110.65 143.249 106.422 146.08 104.041 147.08C101.66 148.081 101.552 148.511 101.552 148.511H116.46C116.476 147.111 116.254 145.718 115.801 144.393C115.057 142.277 110.65 143.249 110.65 143.249Z" fill="#EA711F"/>
<path d="M112.253 139.332L110.792 143.316C110.792 143.316 112.31 145.508 115.801 144.393L117.804 139.332H112.253Z" fill="#F9A993"/>
<path d="M155.803 104.441L155.682 105.991C155.518 108.159 154.587 110.197 153.054 111.74C151.522 113.282 149.489 114.228 147.321 114.407L129.459 115.903C129.459 115.903 129.534 116.945 126.863 123.129C124.192 129.314 117.629 141.891 117.629 141.891C117.276 141.948 116.939 141.998 116.62 142.031C116.5 142.044 116.386 142.058 116.269 142.066C111.92 142.471 110.833 140.828 110.833 140.828C110.833 140.828 119.993 111.009 122.127 109.258C123.65 108.004 132.659 103.883 137.71 101.622C137.79 101.585 137.869 101.55 137.944 101.516C139.855 100.66 141.14 100.096 141.14 100.096L142.671 100.55L155.803 104.441Z" fill="#636AEA"/>
<path d="M151.695 104.09C151.647 104.151 146.637 110.213 138.428 111.239C132.802 111.943 129.295 112.458 127.706 112.706C127.38 112.757 127.073 112.896 126.82 113.109C126.566 113.322 126.376 113.6 126.27 113.913L116.628 142.03C116.507 142.042 116.386 142.055 116.275 142.065L125.969 113.815C126.094 113.447 126.317 113.119 126.616 112.869C126.914 112.619 127.276 112.455 127.66 112.397C129.249 112.155 132.76 111.633 138.391 110.93C146.471 109.919 151.399 103.957 151.446 103.896L151.695 104.09Z" fill="#98A1F4"/>
<g style="mix-blend-mode:multiply" opacity="0.29">
<path d="M155.802 104.441L155.682 105.991C155.608 106.958 155.382 107.906 155.011 108.802C145.649 108.661 138.4 102.245 137.714 101.616C137.68 101.582 137.66 101.567 137.66 101.567L137.948 101.51L142.675 100.544L155.802 104.441Z" fill="#3F51BA"/>
</g>
<path d="M160.845 102.425L159.516 112.4C159.413 113.184 159.028 113.903 158.434 114.425C157.84 114.946 157.076 115.234 156.286 115.235V117.98C157.606 117.98 158.881 117.493 159.864 116.612C160.847 115.731 161.47 114.518 161.614 113.206L162.79 102.425H160.845Z" fill="#6A73A0"/>
<path d="M157.984 115.226V118.03C157.984 118.28 157.884 118.52 157.707 118.696C157.53 118.873 157.29 118.973 157.039 118.973H127.74C127.49 118.973 127.25 118.873 127.073 118.696C126.896 118.52 126.796 118.28 126.795 118.03V117.227C126.794 117.08 126.806 116.933 126.831 116.788C126.935 116.09 127.286 115.454 127.821 114.993C128.355 114.533 129.038 114.281 129.743 114.281H157.044C157.294 114.283 157.533 114.383 157.709 114.56C157.885 114.737 157.984 114.976 157.984 115.226Z" fill="#020331"/>
<path d="M157.984 115.226V116.539C157.984 116.663 157.96 116.786 157.913 116.901C157.865 117.015 157.796 117.119 157.708 117.207C157.62 117.295 157.516 117.364 157.401 117.412C157.287 117.459 157.164 117.483 157.04 117.483H127.74C127.533 117.484 127.331 117.416 127.167 117.29C127.002 117.164 126.884 116.987 126.831 116.787C126.935 116.089 127.286 115.453 127.821 114.992C128.355 114.532 129.038 114.28 129.743 114.28H157.044C157.294 114.282 157.533 114.382 157.709 114.559C157.885 114.737 157.984 114.976 157.984 115.226Z" fill="#1B1F5B"/>
<path d="M164.335 103.474C164.274 103.845 164.073 104.178 163.774 104.406C163.475 104.634 163.101 104.739 162.727 104.699L159.301 104.337C159.101 104.316 158.907 104.253 158.732 104.154C158.556 104.055 158.403 103.921 158.282 103.76C158.16 103.6 158.073 103.416 158.025 103.22C157.978 103.025 157.971 102.821 158.005 102.623C158.02 102.541 158.032 102.458 158.047 102.381C159.759 92.3456 160.946 82.7394 161.101 73.9856C161.104 73.7586 161.159 73.5353 161.263 73.3333C161.366 73.1313 161.515 72.9561 161.698 72.8213C161.881 72.6866 162.093 72.596 162.316 72.5567C162.54 72.5174 162.77 72.5304 162.988 72.5948L163.623 72.7807C164.359 72.9981 165.005 73.4487 165.463 74.0648C165.92 74.6808 166.165 75.4289 166.16 76.1961C166.078 84.4561 165.868 93.7556 164.335 103.474Z" fill="#020331"/>
<path d="M163.437 101.596C163.378 101.967 163.179 102.301 162.88 102.53C162.582 102.758 162.207 102.864 161.833 102.825L158.403 102.462C158.279 102.45 158.157 102.421 158.041 102.377C159.753 92.3408 160.94 82.7346 161.095 73.9808C161.098 73.7535 161.154 73.5301 161.258 73.3282C161.363 73.1262 161.512 72.9511 161.696 72.8168C161.879 72.6825 162.092 72.5925 162.316 72.554C162.54 72.5155 162.77 72.5295 162.988 72.5949L163.623 72.7808C164.237 72.962 164.79 73.3068 165.223 73.778C165.25 73.9578 165.262 74.1395 165.259 74.3213C165.185 82.5777 164.97 91.8808 163.437 101.596Z" fill="#1B1F5B"/>
<path d="M144.662 120.918V145.818C144.662 146.01 144.586 146.194 144.45 146.33C144.314 146.466 144.13 146.542 143.937 146.542H142.576C142.384 146.542 142.199 146.466 142.063 146.33C141.927 146.194 141.851 146.01 141.851 145.818V120.918H144.662Z" fill="#6A73A0"/>
<g style="mix-blend-mode:multiply" opacity="0.29">
<path d="M144.662 120.918V131.639L141.861 130.841V120.918H144.662Z" fill="#6A73A0"/>
</g>
<path d="M126.303 146.907L141.86 144.3V140.665L126.303 145.544V146.907Z" fill="#4B5275"/>
<path d="M128.416 146.86C128.668 145.793 128.007 144.724 126.94 144.472C125.872 144.22 124.802 144.881 124.55 145.948C124.298 147.015 124.96 148.084 126.027 148.336C127.095 148.587 128.164 147.927 128.416 146.86Z" fill="#1B1F5B"/>
<path d="M127.385 146.414C127.385 146.591 127.332 146.765 127.234 146.912C127.135 147.06 126.995 147.175 126.831 147.243C126.667 147.31 126.486 147.328 126.312 147.293C126.138 147.259 125.978 147.173 125.852 147.048C125.727 146.922 125.641 146.762 125.607 146.588C125.572 146.414 125.59 146.234 125.659 146.07C125.727 145.906 125.842 145.766 125.99 145.667C126.137 145.569 126.311 145.517 126.489 145.517C126.606 145.517 126.723 145.54 126.832 145.585C126.941 145.63 127.04 145.696 127.123 145.78C127.206 145.863 127.272 145.962 127.317 146.071C127.362 146.179 127.385 146.296 127.385 146.414Z" fill="#5B6189"/>
<path d="M160.219 146.907L144.662 144.3V140.665L160.219 145.544V146.907Z" fill="#4B5275"/>
<path d="M160.484 148.355C161.552 148.103 162.213 147.034 161.961 145.967C161.709 144.9 160.639 144.24 159.572 144.491C158.504 144.743 157.843 145.812 158.095 146.879C158.347 147.946 159.417 148.606 160.484 148.355Z" fill="#1B1F5B"/>
<path d="M159.137 146.414C159.138 146.591 159.191 146.764 159.29 146.91C159.389 147.057 159.53 147.171 159.694 147.238C159.858 147.305 160.038 147.322 160.212 147.287C160.385 147.252 160.545 147.166 160.669 147.04C160.794 146.914 160.879 146.754 160.913 146.581C160.947 146.407 160.928 146.227 160.86 146.063C160.792 145.9 160.676 145.761 160.529 145.663C160.381 145.565 160.208 145.513 160.031 145.513C159.913 145.514 159.796 145.537 159.687 145.583C159.578 145.628 159.48 145.695 159.397 145.778C159.314 145.862 159.248 145.961 159.203 146.07C159.159 146.179 159.136 146.296 159.137 146.414Z" fill="#5B6189"/>
<path d="M138.984 118.973H148.14V120.542C148.14 120.803 148.036 121.053 147.852 121.238C147.667 121.422 147.417 121.526 147.155 121.526H139.968C139.707 121.526 139.457 121.422 139.272 121.238C139.088 121.054 138.984 120.804 138.984 120.543V118.974V118.973Z" fill="#1B1F5B"/>
<path d="M124.415 94.6854H61.3994V96.7438H124.415V94.6854Z" fill="#933306"/>
<path d="M121.4 96.7436H63.2307V99.0314H121.4V96.7436Z" fill="#841807"/>
<path d="M68.3045 99.0325L67.8877 102.991L63.116 148.51H61.3994L64.5076 102.695L64.7577 99.0325H68.3045Z" fill="#DEE9FC"/>
<path d="M122.627 148.51H120.91L116.582 107.221L115.722 99.0325H119.273L119.848 107.501L122.627 148.51Z" fill="#DEE9FC"/>
<g style="mix-blend-mode:multiply" opacity="0.29">
<path d="M64.7576 99.0325H68.3044L67.8876 102.991L64.5076 102.695L64.7576 99.0325Z" fill="#6A73A0"/>
</g>
<g style="mix-blend-mode:multiply" opacity="0.29">
<path d="M119.848 107.501L116.582 107.221L115.722 99.0325H119.273L119.848 107.501Z" fill="#6A73A0"/>
</g>
<path d="M91.8632 94.6878H78.4119L79.7697 85.7637L80.9511 77.9987C81.0168 77.5677 81.18 77.1575 81.4282 76.7991C81.6765 76.4407 82.0033 76.1437 82.3838 75.9306L87.4177 73.1093L88.0217 75.8932L84.1294 78.0107C84.0349 78.0616 83.9538 78.1341 83.8925 78.2222C83.8312 78.3102 83.7915 78.4115 83.7767 78.5178L82.9589 84.4019L81.804 92.7043L91.3473 93.7341L91.8632 94.6878Z" fill="#6A73A0"/>
<g style="mix-blend-mode:multiply" opacity="0.29">
<path d="M88.0326 75.8907L84.1404 78.0083C84.0459 78.0592 83.9647 78.1316 83.9034 78.2197C83.8422 78.3078 83.8025 78.4091 83.7876 78.5153L82.9589 84.4019L79.7698 85.7613L80.9512 77.9962C81.0169 77.5653 81.18 77.155 81.4283 76.7966C81.6766 76.4383 82.0034 76.1412 82.3839 75.9282L87.4178 73.1068L88.0326 75.8907Z" fill="#6A73A0"/>
</g>
<path d="M87.3027 70.1887L86.3496 71.2668L88.2184 78.4814L90.1935 78.6431L87.3027 70.1887Z" fill="#212572"/>
<path d="M95.991 88.6056H94.0159C89.0228 79.6437 86.467 69.7683 86.3486 58.9795H87.5917C87.7052 69.7699 90.991 79.6441 95.991 88.6056Z" fill="#636AEA"/>
<path d="M97.3741 88.6056H95.9909C90.9909 79.6441 87.7051 69.7723 87.5916 58.9795H88.1038C88.8237 69.7772 92.0032 79.6175 97.3741 88.6056Z" fill="#86F7F5"/>
<path d="M104.814 93.3513H120.779L121.218 94.6853H104.127L104.814 93.3513Z" fill="#636AEA"/>
<path d="M160.547 69.5177C156.949 73.2602 156.167 74.5616 157.762 76.2663C159.356 77.9709 157.883 81.9054 152.79 81.6446C147.697 81.3839 141.807 64.5064 141.807 64.5064L134.041 61.5715L133.195 61.2564C133.195 61.2564 132.339 60.1699 131.905 58.3023C131.696 57.4072 131.615 56.487 131.664 55.5691C131.849 52.0439 134.115 51.8579 134.115 51.8579C134.115 51.8579 134.707 49.1887 138.194 48.8181C141.682 48.4474 143.131 50.7497 145.136 50.711C147.14 50.6724 150.183 52.3553 150.258 54.7216C150.332 57.0878 150.334 60.2424 154.969 60.9848C159.604 61.7273 164.146 65.7716 160.547 69.5177Z" fill="#933306"/>
<path d="M134.041 61.5752L133.196 61.2601C133.196 61.2601 132.339 60.1736 131.906 58.3059C132.28 57.1784 132.726 56.1727 132.726 56.1727L134.041 61.5752Z" fill="#6B1F10"/>
<path d="M136.239 57.4813C136.239 57.4813 139.189 60.0347 143.616 59.0302C143.616 59.0302 146.557 62.1196 149.755 61.8492C152.953 61.5788 157.019 62.7848 155.795 69.6746C154.571 76.5645 156.818 75.752 156.617 78.1846C156.402 80.773 152.058 80.109 152.058 80.109L140.192 65.1716L140.957 60.2749C140.957 60.2749 137.402 60.0395 136.239 57.4813Z" fill="#6B1F10"/>
<path d="M146.511 66.7385L141.573 71.9044L140.79 72.7265C140.79 72.7265 141.449 68.7981 138.395 67.8456C135.616 66.9752 142.229 62.9707 143.43 62.2644L143.612 62.1558L146.511 66.7385Z" fill="#F9A993"/>
<path d="M141.573 71.9043L140.79 72.7264C140.79 72.7264 141.449 68.798 138.395 67.8455C135.616 66.975 142.229 62.9706 143.43 62.2643C143.5 62.6844 144.383 68.105 141.573 71.9043Z" fill="#EA7B73"/>
<path d="M132.729 56.1762C132.729 56.1762 132.729 62.1581 134.454 65.1099C136.266 68.1981 137.071 69.0323 138.803 68.6109C140.535 68.1896 144.064 65.7135 143.702 62.2402C143.702 62.2402 144.789 61.6837 144.453 60.2096C144.117 58.7356 142.477 58.2623 142.037 60.2096C142.037 60.2096 137.555 60.0986 136.247 57.4836C136.247 57.4836 137.082 60.2929 140.589 60.9328C140.581 60.9304 135.125 60.4861 132.729 56.1762Z" fill="#F9A993"/>
<path d="M146.017 60.41C146.019 60.843 145.892 61.2667 145.652 61.6275C145.413 61.9882 145.071 62.2699 144.672 62.4368C144.272 62.6037 143.831 62.6484 143.406 62.5652C142.981 62.4819 142.59 62.2745 142.283 61.9692C141.976 61.6638 141.766 61.2743 141.68 60.8499C141.595 60.4254 141.637 59.9851 141.802 59.5847C141.967 59.1842 142.247 58.8416 142.606 58.6002C142.966 58.3588 143.389 58.2294 143.822 58.2285C144.403 58.2272 144.96 58.4562 145.372 58.8653C145.783 59.2743 146.016 59.8299 146.017 60.41Z" fill="#5E6DDD"/>
<path d="M144.531 62.1195C145.476 61.7283 145.925 60.6457 145.534 59.7014C145.142 58.757 144.059 58.3086 143.114 58.6997C142.169 59.0909 141.72 60.1735 142.112 61.1178C142.503 62.0622 143.586 62.5106 144.531 62.1195Z" fill="#393BC6"/>
<path d="M136.353 69.9569L136.287 69.4306C142.709 68.6109 143.552 60.4679 143.559 60.3858L144.088 60.4353C144.085 60.5222 143.198 69.0829 136.353 69.9569Z" fill="#DEE9FC"/>
<path d="M137.175 69.6743C137.175 69.8157 137.133 69.9539 137.054 70.0714C136.976 70.1889 136.864 70.2805 136.733 70.3346C136.603 70.3887 136.459 70.4029 136.32 70.3753C136.181 70.3477 136.054 70.2797 135.954 70.1797C135.854 70.0798 135.786 69.9524 135.758 69.8138C135.731 69.6751 135.745 69.5314 135.799 69.4008C135.853 69.2702 135.945 69.1586 136.062 69.0801C136.18 69.0016 136.318 68.9597 136.46 68.9597C136.649 68.9597 136.831 69.0349 136.965 69.169C137.099 69.303 137.175 69.4848 137.175 69.6743Z" fill="#86F7F5"/>
<path d="M144.738 60.41C144.738 60.591 144.684 60.7679 144.584 60.9184C144.483 61.0689 144.34 61.1862 144.173 61.2554C144.006 61.3247 143.821 61.3428 143.644 61.3075C143.466 61.2722 143.303 61.1851 143.175 61.0571C143.047 60.9291 142.96 60.766 142.924 60.5885C142.889 60.411 142.907 60.227 142.976 60.0598C143.046 59.8926 143.163 59.7497 143.314 59.6491C143.464 59.5486 143.641 59.4949 143.822 59.4949C144.065 59.4949 144.298 59.5913 144.47 59.7629C144.642 59.9345 144.738 60.1673 144.738 60.41Z" fill="#86F7F5"/>
<path d="M128.894 72.0287L127.948 71.2138C127.948 71.2138 126.861 68.8995 125.456 68.1196C124.051 67.3397 122.756 67.3856 122.863 67.7418C123.089 68.4963 124.297 68.3357 124.726 69.543C124.726 69.543 122.561 69.9559 120.547 69.1808C118.534 68.4058 117.803 68.1039 118.055 69.543C118.308 70.982 120.195 73.3265 121.679 73.4267C123.164 73.5269 125.071 73.5825 125.071 73.5825L126.298 75.0396L128.894 72.0287Z" fill="#EF8986"/>
<path d="M139.81 82.5425L128.524 71.2667C128.524 71.2667 126.266 72.2953 125.16 74.7677C125.16 74.7677 133.401 86.0532 134.888 87.0069C136.375 87.9607 139.563 86.7775 142.09 84.491C144.618 82.2045 139.81 82.5425 139.81 82.5425Z" fill="#212572"/>
<path d="M156.028 104.673C145.843 106.165 137.666 101.567 137.666 101.567C137.666 101.567 137.908 100.657 138.23 99.3392C138.925 96.5069 139.975 91.7866 139.68 90.2232C139.524 89.3755 139.174 88.5755 138.657 87.8859C138.46 87.6095 138.247 87.3523 138.035 87.1024C137.573 86.5531 137.1 86.0448 136.731 85.4581C136.51 85.0911 136.378 84.6778 136.345 84.2509C136.205 82.9519 136.731 81.607 136.731 81.607L142.114 72.0769L148.075 66.5235C148.075 66.5235 152.71 69.2736 153.632 74.4177C154.553 79.5619 153.059 88.3145 153.688 91.1165C154.318 93.9186 156.028 104.673 156.028 104.673Z" fill="#393BC6"/>
<path opacity="0.75" d="M142.32 79.3035L138.036 87.1024C137.575 86.5531 137.101 86.0448 136.733 85.4581C136.512 85.0911 136.38 84.6778 136.346 84.2508C138.458 82.0645 142.168 79.4133 142.32 79.3035Z" fill="#212572"/>
<path opacity="0.75" d="M150.648 80.3755C150.648 80.3755 148.654 93.0095 143.602 96.9729C142.04 98.2007 140.193 99.0149 138.233 99.3403C138.927 96.5069 139.973 91.7865 139.683 90.2243C139.525 89.3763 139.175 88.5759 138.658 87.8847L150.648 80.3755Z" fill="#212572"/>
<path d="M123.755 89.9393L120.976 90.1965C120.976 90.1965 116.055 88.6524 115.283 88.6271C114.511 88.6017 110.218 92.3164 110.218 92.6303C110.218 92.9442 111.535 92.7728 111.535 92.7728L115.827 91.0573C115.827 91.0573 117.314 92.9732 118.658 93.2026C119.492 93.3383 120.343 93.3383 121.177 93.2026L124.41 93.9173L123.755 89.9393Z" fill="#F9A993"/>
<path d="M123.186 89.3058C123.186 89.3058 122.782 92.779 124.041 94.6853C124.041 94.6853 133.884 94.6853 138.195 94.4958C142.507 94.3062 142.815 93.6941 143.616 92.779C144.417 91.8639 149.221 86.2224 150.441 81.3041C151.661 76.3857 150.727 72.5478 147.809 72.5345C144.306 72.5188 138.119 86.9468 138.119 86.9468C138.119 86.9468 134.151 87.5939 129.459 88.3182C124.767 89.0426 123.186 89.3058 123.186 89.3058Z" fill="#393BC6"/>
<path opacity="0.75" d="M136.459 82.5075L144.734 75.777L143.249 72.987L146.276 73.2369L148.076 66.5294L141.987 71.6035L136.459 82.5075Z" fill="#212572"/>
<path d="M146.127 66.1311C146.127 66.1311 138.517 72.614 136.463 82.5075C136.463 82.5075 141.778 76.8237 144.074 75.165L142.635 72.3062L146.122 72.4197L148.071 66.5295C147.66 65.8389 146.949 65.4284 145.796 65.4284L146.127 66.1311Z" fill="#5E6DDD"/>
<path d="M99.0631 0H69.7831C68.8411 0 68.0774 0.763197 68.0774 1.70465V21.651C68.0774 22.5924 68.8411 23.3556 69.7831 23.3556H99.0631C100.005 23.3556 100.769 22.5924 100.769 21.651V1.70465C100.769 0.763197 100.005 0 99.0631 0Z" fill="#636AEA"/>
<path d="M72.7136 22.443L69.8071 28.076L78.5049 22.781L72.7136 22.443Z" fill="#636AEA"/>
<path d="M84.7165 4.22533H72.292V5.44345H84.7165V4.22533Z" fill="white"/>
<path d="M96.2507 8.06819H72.292V9.28631H96.2507V8.06819Z" fill="white"/>
<path d="M96.2507 11.9097H72.292V13.1278H96.2507V11.9097Z" fill="white"/>
<path d="M87.4828 15.7522H72.292V16.9703H87.4828V15.7522Z" fill="white"/>
<path d="M212.7 68.8185H172.14C170.835 68.8188 169.583 68.3011 168.66 67.3792C167.737 66.4573 167.218 65.2067 167.217 63.9025C167.217 63.2564 167.344 62.6166 167.591 62.0197C167.839 61.4227 168.201 60.8804 168.659 60.4235C169.116 59.9666 169.658 59.6043 170.256 59.3571C170.853 59.1099 171.493 58.9828 172.14 58.9829H212.7C214.005 58.9836 215.257 59.5022 216.18 60.4247C217.102 61.3472 217.62 62.5982 217.62 63.9025C217.62 65.2062 217.101 66.4562 216.178 67.378C215.256 68.2997 214.005 68.8178 212.7 68.8185Z" fill="#636AEA"/>
<path d="M177.676 61.4784L178.272 62.6856C178.291 62.7254 178.32 62.7599 178.356 62.786C178.392 62.812 178.434 62.829 178.478 62.8353L179.807 63.0285C179.858 63.0358 179.905 63.0572 179.944 63.0901C179.983 63.123 180.012 63.1662 180.028 63.2148C180.044 63.2634 180.046 63.3155 180.034 63.3651C180.022 63.4147 179.996 63.46 179.959 63.4957L178.993 64.4349C178.961 64.4658 178.937 64.5039 178.924 64.5459C178.91 64.588 178.907 64.6328 178.914 64.6764L179.141 66.0044C179.15 66.0548 179.145 66.1066 179.125 66.1541C179.106 66.2015 179.074 66.2426 179.033 66.2728C178.991 66.3029 178.942 66.3209 178.891 66.3247C178.84 66.3285 178.789 66.3179 178.744 66.2941L177.552 65.6676C177.512 65.6467 177.469 65.6358 177.424 65.6358C177.38 65.6358 177.336 65.6467 177.297 65.6676L176.106 66.2941C176.06 66.3179 176.009 66.3285 175.958 66.3247C175.907 66.3209 175.858 66.3029 175.817 66.2728C175.775 66.2426 175.743 66.2015 175.724 66.1541C175.705 66.1066 175.699 66.0548 175.708 66.0044L175.935 64.6764C175.943 64.6328 175.939 64.5881 175.926 64.5461C175.912 64.5041 175.888 64.4659 175.857 64.4349L174.89 63.4957C174.854 63.4601 174.828 63.4149 174.816 63.3654C174.803 63.3158 174.805 63.2639 174.821 63.2153C174.837 63.1667 174.866 63.1235 174.904 63.0905C174.943 63.0575 174.991 63.036 175.041 63.0285L176.37 62.8353C176.414 62.829 176.456 62.812 176.492 62.786C176.528 62.7599 176.557 62.7254 176.577 62.6856L177.172 61.4784C177.193 61.4292 177.229 61.3873 177.273 61.3578C177.318 61.3284 177.371 61.3127 177.424 61.3127C177.478 61.3127 177.53 61.3284 177.575 61.3578C177.62 61.3873 177.655 61.4292 177.676 61.4784Z" fill="#F2A825"/>
<path d="M185.144 61.4784L185.74 62.6856C185.759 62.7254 185.788 62.7599 185.824 62.7859C185.86 62.812 185.902 62.829 185.946 62.8353L187.275 63.0285C187.326 63.0358 187.373 63.0572 187.412 63.0901C187.451 63.123 187.48 63.1662 187.496 63.2148C187.512 63.2634 187.514 63.3155 187.502 63.3651C187.49 63.4147 187.464 63.46 187.427 63.4957L186.461 64.4349C186.429 64.4659 186.406 64.5041 186.392 64.5461C186.378 64.5881 186.375 64.6328 186.382 64.6764L186.609 66.0044C186.618 66.0548 186.613 66.1066 186.593 66.1541C186.574 66.2015 186.542 66.2426 186.501 66.2728C186.459 66.3029 186.41 66.3209 186.359 66.3247C186.308 66.3285 186.257 66.3179 186.212 66.2941L185.021 65.6676C184.981 65.6467 184.937 65.6358 184.893 65.6358C184.848 65.6358 184.804 65.6467 184.765 65.6676L183.574 66.2941C183.528 66.3179 183.477 66.3285 183.426 66.3247C183.375 66.3209 183.326 66.3029 183.285 66.2728C183.243 66.2426 183.211 66.2015 183.192 66.1541C183.173 66.1066 183.167 66.0548 183.176 66.0044L183.403 64.6764C183.411 64.6328 183.408 64.588 183.394 64.5459C183.38 64.5039 183.357 64.4657 183.325 64.4349L182.358 63.4957C182.322 63.46 182.296 63.4147 182.284 63.3651C182.271 63.3155 182.273 63.2634 182.289 63.2148C182.305 63.1662 182.334 63.123 182.373 63.0901C182.412 63.0572 182.46 63.0358 182.511 63.0285L183.839 62.8353C183.883 62.8288 183.925 62.8118 183.96 62.7857C183.996 62.7596 184.025 62.7253 184.045 62.6856L184.641 61.4784C184.663 61.4295 184.698 61.388 184.743 61.3588C184.787 61.3296 184.839 61.3141 184.893 61.3141C184.946 61.3141 184.998 61.3296 185.043 61.3588C185.088 61.388 185.123 61.4295 185.144 61.4784Z" fill="#F2A825"/>
<path d="M192.629 61.4784L193.225 62.6856C193.244 62.7254 193.273 62.7599 193.309 62.7859C193.345 62.812 193.387 62.829 193.431 62.8353L194.76 63.0285C194.811 63.0358 194.858 63.0572 194.897 63.0901C194.936 63.123 194.965 63.1662 194.981 63.2148C194.997 63.2634 194.999 63.3155 194.987 63.3651C194.975 63.4147 194.949 63.46 194.912 63.4957L193.946 64.4349C193.914 64.4659 193.891 64.5041 193.877 64.5461C193.863 64.5881 193.86 64.6328 193.867 64.6764L194.094 66.0044C194.103 66.0548 194.098 66.1066 194.078 66.1541C194.059 66.2015 194.027 66.2426 193.986 66.2728C193.944 66.3029 193.895 66.3209 193.844 66.3247C193.793 66.3285 193.742 66.3179 193.697 66.2941L192.506 65.6676C192.467 65.6467 192.423 65.6358 192.378 65.6358C192.334 65.6358 192.29 65.6467 192.251 65.6676L191.059 66.2941C191.013 66.3179 190.962 66.3285 190.911 66.3247C190.86 66.3209 190.811 66.3029 190.77 66.2728C190.728 66.2426 190.696 66.2015 190.677 66.1541C190.658 66.1066 190.652 66.0548 190.661 66.0044L190.888 64.6764C190.896 64.6328 190.893 64.588 190.879 64.5459C190.865 64.5039 190.842 64.4657 190.81 64.4349L189.843 63.4957C189.807 63.46 189.781 63.4147 189.769 63.3651C189.756 63.3155 189.758 63.2634 189.774 63.2148C189.79 63.1662 189.819 63.123 189.858 63.0901C189.897 63.0572 189.945 63.0358 189.996 63.0285L191.324 62.8353C191.368 62.8288 191.41 62.8118 191.446 62.7857C191.482 62.7596 191.511 62.7253 191.531 62.6856L192.126 61.4784C192.148 61.4295 192.183 61.388 192.228 61.3588C192.272 61.3296 192.324 61.3141 192.378 61.3141C192.431 61.3141 192.483 61.3296 192.528 61.3588C192.573 61.388 192.608 61.4295 192.629 61.4784Z" fill="#F2A825"/>
<path d="M200.096 61.4784L200.691 62.6856C200.711 62.7254 200.74 62.7599 200.776 62.786C200.812 62.812 200.854 62.829 200.898 62.8353L202.227 63.0285C202.277 63.0358 202.325 63.0572 202.364 63.0901C202.403 63.123 202.432 63.1662 202.448 63.2148C202.464 63.2634 202.466 63.3155 202.453 63.3651C202.441 63.4147 202.415 63.46 202.379 63.4957L201.412 64.4349C201.381 64.4658 201.357 64.5039 201.343 64.5459C201.329 64.588 201.326 64.6327 201.333 64.6764L201.561 66.0044C201.57 66.0548 201.564 66.1066 201.545 66.1541C201.526 66.2015 201.494 66.2426 201.452 66.2728C201.411 66.3029 201.362 66.3209 201.311 66.3247C201.26 66.3285 201.209 66.3179 201.164 66.2941L199.971 65.6676C199.932 65.6467 199.888 65.6358 199.844 65.6358C199.799 65.6358 199.756 65.6467 199.716 65.6676L198.525 66.2941C198.48 66.3177 198.429 66.3282 198.378 66.3244C198.327 66.3205 198.278 66.3026 198.236 66.2725C198.195 66.2424 198.163 66.2014 198.143 66.154C198.124 66.1067 198.118 66.0548 198.127 66.0044L198.355 64.6764C198.362 64.6328 198.358 64.5882 198.345 64.5462C198.331 64.5042 198.308 64.4661 198.276 64.4349L197.31 63.4957C197.273 63.4601 197.248 63.4149 197.235 63.3654C197.223 63.3158 197.225 63.2639 197.241 63.2153C197.256 63.1667 197.285 63.1235 197.324 63.0905C197.363 63.0575 197.411 63.036 197.461 63.0285L198.79 62.8353C198.834 62.829 198.876 62.812 198.912 62.786C198.948 62.7599 198.977 62.7254 198.996 62.6856L199.592 61.4784C199.613 61.4292 199.648 61.3873 199.693 61.3578C199.738 61.3284 199.79 61.3127 199.844 61.3127C199.897 61.3127 199.95 61.3284 199.995 61.3578C200.039 61.3873 200.075 61.4292 200.096 61.4784Z" fill="#F2A825"/>
<path d="M207.652 61.4784L208.247 62.6856C208.267 62.7254 208.296 62.7599 208.332 62.7859C208.368 62.812 208.41 62.829 208.454 62.8353L209.783 63.0285C209.833 63.0358 209.881 63.0572 209.92 63.0901C209.959 63.123 209.988 63.1662 210.004 63.2148C210.02 63.2634 210.022 63.3155 210.01 63.3651C209.997 63.4147 209.972 63.46 209.935 63.4957L208.969 64.4349C208.937 64.4657 208.913 64.5039 208.899 64.5459C208.886 64.588 208.882 64.6328 208.89 64.6764L209.117 66.0044C209.126 66.0548 209.12 66.1066 209.101 66.1541C209.082 66.2015 209.05 66.2426 209.009 66.2728C208.967 66.3029 208.918 66.3209 208.867 66.3247C208.816 66.3285 208.765 66.3179 208.72 66.2941L207.527 65.6676C207.488 65.6467 207.444 65.6358 207.4 65.6358C207.356 65.6358 207.312 65.6467 207.273 65.6676L206.081 66.2941C206.036 66.3179 205.985 66.3285 205.934 66.3247C205.883 66.3209 205.834 66.3029 205.793 66.2728C205.751 66.2426 205.719 66.2015 205.7 66.1541C205.681 66.1066 205.675 66.0548 205.684 66.0044L205.911 64.6764C205.918 64.6328 205.915 64.5881 205.901 64.5461C205.888 64.5041 205.864 64.4659 205.833 64.4349L204.866 63.4957C204.83 63.46 204.804 63.4147 204.791 63.3651C204.779 63.3155 204.781 63.2634 204.797 63.2148C204.813 63.1662 204.842 63.123 204.881 63.0901C204.92 63.0572 204.968 63.0358 205.018 63.0285L206.347 62.8353C206.391 62.829 206.433 62.812 206.469 62.7859C206.505 62.7599 206.534 62.7254 206.554 62.6856L207.149 61.4784C207.171 61.4295 207.206 61.388 207.25 61.3588C207.295 61.3296 207.347 61.3141 207.401 61.3141C207.454 61.3141 207.506 61.3296 207.551 61.3588C207.595 61.388 207.63 61.4295 207.652 61.4784Z" fill="white"/>
<path d="M170.77 22.8232V35.0165C170.77 35.2691 170.669 35.5114 170.491 35.69C170.312 35.8687 170.07 35.969 169.817 35.969H150.69C150.565 35.9692 150.441 35.9447 150.325 35.8969C150.21 35.849 150.104 35.7789 150.016 35.6904C149.927 35.6019 149.857 35.4968 149.809 35.3812C149.761 35.2656 149.737 35.1416 149.737 35.0165V22.8232C149.737 22.6981 149.762 22.5742 149.81 22.4587C149.858 22.3431 149.928 22.2381 150.016 22.1497C150.105 22.0612 150.21 21.991 150.325 21.9432C150.441 21.8953 150.565 21.8707 150.69 21.8707H169.816C170.068 21.8707 170.311 21.971 170.49 22.1496C170.669 22.3282 170.77 22.5705 170.77 22.8232Z" fill="#F2A825"/>
<g style="mix-blend-mode:multiply" opacity="0.29">
<path d="M170.77 22.8232V24.6546L161.045 31.8487C160.82 32.0275 160.541 32.1243 160.253 32.1232C159.965 32.1221 159.687 32.0231 159.463 31.8426L149.737 24.581V22.8232C149.737 22.5706 149.837 22.3283 150.016 22.1497C150.195 21.971 150.437 21.8707 150.69 21.8707H169.816C170.068 21.8707 170.311 21.971 170.49 22.1496C170.669 22.3282 170.77 22.5705 170.77 22.8232Z" fill="#EA711F"/>
</g>
<path d="M170.77 22.8232V23.1853L160.915 31.0084C160.727 31.1605 160.492 31.2435 160.25 31.2435C160.009 31.2435 159.774 31.1605 159.586 31.0084L149.731 23.1141V22.8207C149.731 22.6957 149.756 22.5718 149.804 22.4562C149.851 22.3407 149.922 22.2357 150.01 22.1472C150.099 22.0588 150.204 21.9886 150.319 21.9407C150.435 21.8929 150.559 21.8682 150.684 21.8682H169.816C169.941 21.8682 170.065 21.8929 170.181 21.9409C170.297 21.9889 170.402 22.0593 170.491 22.148C170.579 22.2367 170.65 22.342 170.698 22.4578C170.745 22.5737 170.77 22.6978 170.77 22.8232Z" fill="#F2A825"/>
<path d="M156.433 45.6828C156.358 45.6828 156.287 45.6531 156.234 45.6004C156.181 45.5476 156.151 45.4761 156.151 45.4015V39.8782C156.151 39.8036 156.181 39.7321 156.234 39.6793C156.287 39.6266 156.358 39.597 156.433 39.597C156.507 39.5973 156.579 39.6271 156.631 39.6798C156.684 39.7325 156.713 39.8039 156.713 39.8782V45.4075C156.712 45.4809 156.682 45.5509 156.629 45.6024C156.577 45.6539 156.506 45.6828 156.433 45.6828Z" fill="#CFD6F9"/>
<path d="M158.964 51.2021C158.89 51.2021 158.818 51.1726 158.766 51.1201C158.713 51.0675 158.684 50.9963 158.684 50.922V41.6032C158.683 41.5663 158.691 41.5298 158.705 41.4956C158.719 41.4615 158.739 41.4305 158.765 41.4044C158.791 41.3782 158.822 41.3575 158.856 41.3433C158.89 41.3292 158.927 41.3219 158.964 41.3219C159.039 41.3219 159.11 41.3515 159.163 41.4043C159.216 41.4571 159.245 41.5286 159.245 41.6032V50.922C159.245 50.9589 159.238 50.9954 159.224 51.0295C159.21 51.0635 159.189 51.0945 159.163 51.1205C159.137 51.1465 159.106 51.1671 159.071 51.1811C159.037 51.1951 159.001 51.2023 158.964 51.2021Z" fill="#CFD6F9"/>
<path d="M158.964 39.9217C158.927 39.9217 158.891 39.9144 158.857 39.9004C158.823 39.8863 158.792 39.8657 158.766 39.8396C158.74 39.8136 158.719 39.7828 158.705 39.7488C158.691 39.7148 158.684 39.6784 158.684 39.6416V37.984C158.683 37.9472 158.691 37.9106 158.705 37.8765C158.719 37.8424 158.739 37.8113 158.765 37.7852C158.791 37.7591 158.822 37.7383 158.856 37.7242C158.89 37.71 158.927 37.7027 158.964 37.7027C159.039 37.7027 159.11 37.7324 159.163 37.7851C159.216 37.8379 159.245 37.9094 159.245 37.984V39.6368C159.246 39.6741 159.239 39.7111 159.225 39.7457C159.211 39.7803 159.191 39.8118 159.165 39.8384C159.138 39.8649 159.107 39.886 159.073 39.9003C159.038 39.9146 159.001 39.9218 158.964 39.9217Z" fill="#CFD6F9"/>
<path d="M164.075 43.6414C164.038 43.6414 164.001 43.6341 163.967 43.62C163.933 43.6058 163.902 43.5851 163.876 43.559C163.85 43.5329 163.829 43.5019 163.815 43.4677C163.801 43.4336 163.793 43.397 163.793 43.3601V40.022C163.793 39.9851 163.801 39.9485 163.815 39.9144C163.829 39.8802 163.85 39.8492 163.876 39.8231C163.902 39.797 163.933 39.7763 163.967 39.7621C164.001 39.748 164.038 39.7407 164.075 39.7407C164.112 39.7407 164.148 39.748 164.183 39.7621C164.217 39.7763 164.248 39.797 164.274 39.8231C164.3 39.8492 164.321 39.8802 164.335 39.9144C164.349 39.9485 164.356 39.9851 164.356 40.022V43.3601C164.356 43.4347 164.327 43.5062 164.274 43.559C164.221 43.6117 164.15 43.6414 164.075 43.6414Z" fill="#CFD6F9"/>
<path d="M162.012 47.5709C161.937 47.5709 161.866 47.5414 161.813 47.4889C161.76 47.4364 161.731 47.3652 161.73 47.2908V37.984C161.73 37.9094 161.76 37.8379 161.813 37.7851C161.865 37.7324 161.937 37.7027 162.012 37.7027C162.086 37.7027 162.158 37.7324 162.211 37.7851C162.264 37.8379 162.293 37.9094 162.293 37.984V47.2908C162.293 47.3277 162.286 47.3642 162.272 47.3983C162.258 47.4323 162.237 47.4632 162.211 47.4893C162.185 47.5153 162.153 47.5359 162.119 47.5499C162.085 47.5639 162.049 47.571 162.012 47.5709Z" fill="#CFD6F9"/>
</svg>
