<svg width="84" height="96" viewBox="0 0 84 96" fill="none" xmlns="http://www.w3.org/2000/svg">
<path d="M42.0927 47.9766C55.2468 47.9766 66.1457 37.2943 66.1457 23.9883C66.1457 10.8697 55.2468 0 42.0927 0C28.7508 0 18.0397 10.8697 18.0397 23.9883C18.0397 37.2943 28.7508 47.9766 42.0927 47.9766ZM42.0927 5.99707C51.8643 5.99707 60.1325 14.243 60.1325 23.9883C60.1325 33.9209 51.8643 41.9795 42.0927 41.9795C32.1333 41.9795 24.053 33.9209 24.053 23.9883C24.053 14.243 32.1333 5.99707 42.0927 5.99707ZM59.5687 54.161C53.1797 53.9736 51.3005 56.9722 42.0927 56.9722C32.6971 56.9722 30.8179 53.9736 24.4288 54.161C10.8989 54.5359 0 65.593 0 79.2738V94.4539C0 95.3909 0.563776 95.9531 1.50331 95.9531H4.50994C5.26159 95.9531 6.01325 95.3909 6.01325 94.4539V79.2738C6.01325 69.1537 13.9056 60.7203 24.053 60.1581V75.5257C19.5431 76.8374 16.5364 80.7731 16.5364 85.4583C16.5364 91.268 21.2343 95.9531 27.0596 95.9531C32.6971 95.9531 37.5828 91.268 37.5828 85.4583C37.5828 80.7731 34.3883 76.8374 30.0662 75.5257V61.0952C33.8245 62.407 37.9586 62.9693 42.0927 62.9693C46.0389 62.9693 50.1731 62.407 54.1192 61.0952V74.0264C48.6698 75.3382 45.0994 80.3982 45.0994 86.0205V91.4553C45.0994 92.3924 45.2873 93.142 45.851 93.7042L47.9181 95.5784C48.4818 96.1405 49.4214 96.1405 49.9851 95.5784L52.0522 93.5169C52.6159 92.9546 52.6159 92.0176 52.0522 91.268L50.9247 90.3308V85.4583C50.9247 81.8975 54.3071 79.0864 58.0654 79.6486C61.072 80.0235 62.9512 82.8345 62.9512 85.833V90.3308L62.0116 91.268C61.4479 92.0176 61.4479 92.9546 62.0116 93.5169L64.0787 95.5784C64.6424 96.1405 65.582 96.1405 66.1457 95.5784L68.2128 93.7042C68.7766 93.142 68.9645 92.3924 68.9645 91.4553V85.4583C68.9645 80.0235 65.2062 75.3382 59.9446 74.0264V60.1581C70.0919 60.9077 77.9844 69.1537 77.9844 79.2738V94.4539C77.9844 95.3909 78.736 95.9531 79.4877 95.9531H82.4943C83.4338 95.9531 83.9976 95.3909 83.9976 94.4539V79.2738C84.1855 65.593 73.2865 54.5359 59.5687 54.161ZM31.5696 85.4583C31.5696 88.0821 29.5025 89.9561 27.0596 89.9561C24.4288 89.9561 22.5497 88.0821 22.5497 85.4583C22.5497 83.022 24.4288 80.9605 27.0596 80.9605C29.5025 80.9605 31.5696 83.022 31.5696 85.4583Z" fill="#3E5A6B"/>
</svg>
