<svg width="104" height="92" viewBox="0 0 104 92" fill="none" xmlns="http://www.w3.org/2000/svg">
<path d="M26.5139 46.6389C26.5139 46.7961 26.3562 46.7961 26.3562 46.9533C33.7693 44.1233 42.602 41.6077 51.75 41.6077C58.6899 41.6077 65.7876 43.1799 71.9389 45.2239C71.7812 43.6516 71.9389 42.0794 73.043 40.1927C66.4185 38.1486 59.1631 36.5764 51.75 36.5764C41.971 36.5764 32.6652 39.092 24.9367 42.0794C25.883 43.4944 26.5139 44.9094 26.5139 46.6389ZM79.5097 46.6389C80.7715 46.6389 82.0333 45.5383 82.0333 44.1233C82.0333 42.8655 80.7715 41.6077 79.5097 41.6077C78.0902 41.6077 76.9861 42.8655 76.9861 44.1233C76.9861 45.5383 78.0902 46.6389 79.5097 46.6389ZM93.3896 58.1164L90.5506 62.3616C89.7619 63.4622 88.3424 63.7766 87.2383 62.9905C83.7683 60.9466 75.882 56.8586 66.8917 54.1858V76.1975C66.8917 76.6692 67.0494 76.8264 67.5226 76.8264H71.308C71.6235 76.8264 71.9389 76.6692 71.9389 76.1975V61.261C77.7747 63.6194 82.5065 66.135 84.7146 67.3928C87.8692 69.2795 92.4432 68.6506 94.8091 65.0344L97.6482 60.9466C99.6986 57.802 99.3832 52.7708 95.2823 50.2552C93.2319 49.1545 90.3928 47.425 86.9229 45.6955C86.4497 47.425 85.5034 48.9973 84.0837 50.098C87.8692 51.8274 90.866 53.3997 92.601 54.5002C93.8628 55.2864 94.1782 56.8586 93.3896 58.1164ZM66.8917 21.4827C66.8917 13.3069 59.9517 6.38892 51.75 6.38892C43.3906 6.38892 36.6083 13.3069 36.6083 21.4827C36.6083 29.8156 43.3906 36.5764 51.75 36.5764C59.9517 36.5764 66.8917 29.8156 66.8917 21.4827ZM51.75 31.5452C46.0719 31.5452 41.6556 27.1428 41.6556 21.4827C41.6556 15.9797 46.0719 11.4202 51.75 11.4202C57.2704 11.4202 61.8444 15.9797 61.8444 21.4827C61.8444 27.1428 57.2704 31.5452 51.75 31.5452ZM8.53316 65.0344C10.899 68.6506 15.473 69.2795 18.6277 67.3928C20.8358 66.135 25.5675 63.4622 31.5611 61.261V76.1975C31.5611 76.6692 31.7188 76.8264 32.192 76.8264H35.9774C36.2929 76.8264 36.6083 76.6692 36.6083 76.1975V54.1858C27.4603 56.8586 19.574 60.9466 16.1041 63.1477C14.9999 63.7766 13.5804 63.4622 12.7917 62.3616L9.9527 58.1164C9.16406 56.8586 9.47952 55.2864 10.7413 54.5002C11.6877 54.0286 12.7917 53.3997 14.2112 52.6136C12.7917 51.513 11.8454 50.098 11.5299 48.3684C10.2681 48.9973 9.00633 49.7834 8.05999 50.2552C3.95911 52.7708 3.64367 57.802 5.6941 60.9466L8.53316 65.0344ZM100.96 81.8577H2.53959C1.75096 81.8577 1.27778 82.4866 1.27778 83.1155V85.6311C1.27778 86.4172 1.75096 86.8889 2.53959 86.8889H100.96C101.591 86.8889 102.222 86.4172 102.222 85.6311V83.1155C102.222 82.4866 101.591 81.8577 100.96 81.8577ZM18.9431 49.1545C20.2049 49.1545 21.4667 48.0539 21.4667 46.6389C21.4667 45.3811 20.2049 44.1233 18.9431 44.1233C17.5236 44.1233 16.4194 45.3811 16.4194 46.6389C16.4194 48.0539 17.5236 49.1545 18.9431 49.1545ZM41.6556 54.1858C41.6556 55.6008 42.7597 56.7014 44.1792 56.7014C45.441 56.7014 46.7028 55.6008 46.7028 54.1858C46.7028 52.928 45.441 51.6702 44.1792 51.6702C42.7597 51.6702 41.6556 52.928 41.6556 54.1858ZM56.7972 69.2795C56.7972 70.6945 57.9013 71.7952 59.3208 71.7952C60.5826 71.7952 61.8444 70.6945 61.8444 69.2795C61.8444 68.0217 60.5826 66.7639 59.3208 66.7639C57.9013 66.7639 56.7972 68.0217 56.7972 69.2795Z" fill="#3E5A6B"/>
</svg>
