<svg width="86" height="75" viewBox="0 0 86 75" fill="none" xmlns="http://www.w3.org/2000/svg">
<path d="M85.9092 66.9434L59.6135 1.31836C59.3147 0.585942 58.5677 0 57.8205 0C57.3724 0 57.0735 0.292971 56.177 0.585942C55.1312 0.878904 54.683 1.75781 55.1312 3.22265C52.7407 4.6875 46.3163 6.73828 43.9257 7.17773C43.7763 6.5918 43.6269 6.15235 42.8799 5.71289V4.6875C42.8799 2.19727 40.7881 0 38.0989 0H23.7558C23.0087 0 22.1123 0.439452 21.3653 0.732423C20.7676 0.439452 19.8711 0 19.1241 0H4.78103C2.0917 0 0 2.19727 0 4.6875V70.3125C0 72.9492 2.0917 75 4.78103 75H19.1241C19.8711 75 20.7676 74.707 21.5146 74.414C22.1123 74.707 23.0087 75 23.9051 75H38.2482C40.7881 75 43.0293 72.9492 43.0293 70.3125V17.4316L65.5897 73.8281C65.8886 74.5606 66.4862 75 67.2332 75C67.6814 75 67.9803 74.8536 69.0261 74.5606C69.9226 74.2676 70.5201 73.3886 69.9226 71.9238C72.4625 70.4589 78.7376 68.4082 81.2775 67.9688C81.7257 69.5801 82.7715 69.8731 83.668 69.5801L84.7139 69.1406C85.7597 68.8477 86.2079 67.8223 85.9092 66.9434ZM19.1241 70.3125H4.78103V60.9375H19.1241V70.3125ZM19.1241 56.25H4.78103V18.75H19.1241V56.25ZM19.1241 14.0625H4.78103V4.6875H19.1241V14.0625ZM38.2482 70.3125H23.9051V60.9375H38.2482V70.3125ZM38.2482 56.25H23.9051V18.75H38.2482V56.25ZM38.2482 14.0625H23.9051V4.6875H38.2482V14.0625ZM68.5779 67.9688L45.2704 10.9863C49.155 10.4004 54.8325 8.05664 56.6253 7.17773L79.7835 64.1602C76.0483 64.7461 70.2214 67.0898 68.5779 67.9688Z" fill="#3E5A6B"/>
</svg>
