<svg width="52" height="94" viewBox="0 0 52 94" fill="none" xmlns="http://www.w3.org/2000/svg">
<path fill-rule="evenodd" clip-rule="evenodd" d="M45.1508 4.65365e-05C47.3617 0.00772447 49.0975 0.96685 50.053 1.88424C50.0815 1.91159 50.1088 1.93993 50.1347 1.96921C51.6272 3.65128 52.332 6.09313 51.8493 8.22785C51.6023 9.32066 51.0292 10.3888 50.0189 11.2077C48.9982 12.035 47.6409 12.5183 46.0122 12.5963C42.1596 12.7808 38.9618 14.7485 36.6756 17.2253C35.539 18.4567 34.661 19.781 34.072 20.9979C33.4722 22.237 33.2157 23.2736 33.2157 23.9404C33.2157 27.431 30.0985 29.955 26.8095 30.3777C25.1156 30.5955 23.302 30.2742 21.7761 29.2171C20.253 28.162 19.1648 26.4788 18.6747 24.2086C18.0722 21.4183 16.0511 19.075 13.6032 17.244C11.2017 15.4478 8.52534 14.2492 6.80597 13.6962C4.92542 13.3111 2.79174 12.0923 1.43274 10.4233C-0.0120156 8.64903 -0.687924 6.1951 0.97088 3.6858C1.93913 2.22112 3.16066 1.25028 4.54879 0.736994C5.9274 0.227232 7.33184 0.219766 8.58065 0.464635C9.82045 0.707739 10.9473 1.20551 11.8509 1.7657C12.7043 2.29472 13.4533 2.93861 13.9221 3.58653C14.4734 4.21359 15.0225 4.93613 15.5584 5.64131C15.7402 5.88053 15.9205 6.11775 16.0988 6.34857C16.8482 7.31857 17.6203 8.25541 18.5171 9.08368C20.2614 10.6948 22.4836 11.9083 25.9308 11.9083C27.5799 11.9083 28.764 11.7196 29.6967 11.4032C30.6167 11.0911 31.3748 10.6269 32.135 9.97023C32.919 9.29313 33.6789 8.43658 34.6279 7.32794C34.747 7.18874 34.8687 7.04609 34.9932 6.90013C35.8429 5.90412 36.8244 4.75374 38.0269 3.48914C40.4032 0.990311 42.875 -0.00785698 45.1508 4.65365e-05ZM45.1385 2.83111C44.0173 2.82722 42.3716 3.29177 40.4403 5.32268C39.2958 6.52618 38.3665 7.6153 37.5156 8.6125C37.39 8.7597 37.2661 8.90491 37.1434 9.04819C36.2068 10.1425 35.3138 11.1615 34.3359 12.0061C33.3343 12.8712 32.2217 13.5748 30.8206 14.0501C29.4323 14.521 27.845 14.7394 25.9308 14.7394C21.4597 14.7394 18.4559 13.0982 16.241 11.0525C15.1582 10.0523 14.2674 8.96023 13.4926 7.95733C13.2775 7.67899 13.0747 7.41218 12.8801 7.15622C12.348 6.45623 11.8776 5.83743 11.3879 5.28621C11.3486 5.24204 11.3124 5.19582 11.2793 5.14779C11.1098 4.90159 10.6926 4.49301 10.0459 4.09204C9.41533 3.70116 8.6655 3.37968 7.90197 3.22996C7.14744 3.08201 6.42187 3.10816 5.75955 3.35307C5.10676 3.59445 4.37645 4.09932 3.69774 5.12602C2.82999 6.43868 3.10428 7.66517 3.9936 8.75734C4.94176 9.92177 6.46813 10.7404 7.56992 10.9478C7.63764 10.9605 7.70436 10.9772 7.76964 10.9978C9.80256 11.6376 12.8713 13.0051 15.6359 15.0729C18.3956 17.137 20.9934 20.0077 21.7846 23.6722C22.1655 25.4363 22.9382 26.4404 23.7163 26.9794C24.4916 27.5165 25.4197 27.6962 26.3587 27.5755C28.3354 27.3214 30.0484 25.8111 30.0484 23.9404C30.0484 22.7453 30.4702 21.3094 31.1651 19.8737C31.8707 18.4158 32.9039 16.863 34.2325 15.4236C36.8769 12.5587 40.8269 10.0095 45.8428 9.76927C46.8484 9.72111 47.4826 9.44173 47.8914 9.11039C48.3106 8.77056 48.6052 8.28413 48.7448 7.66707C49.0311 6.40069 48.6017 4.82936 47.6935 3.77463C47.2113 3.33277 46.2907 2.83511 45.1385 2.83111Z" fill="#4F406C"/>
<path fill-rule="evenodd" clip-rule="evenodd" d="M45.1508 22.0831C47.3617 22.0907 49.0975 23.0499 50.053 23.9672C50.0815 23.9946 50.1088 24.0229 50.1347 24.0522C51.6272 25.7343 52.332 28.1761 51.8493 30.3109C51.6023 31.4037 51.0292 32.4718 50.0189 33.2907C48.9982 34.118 47.6409 34.6013 46.0122 34.6793C42.1596 34.8638 38.9618 36.8315 36.6756 39.3083C35.539 40.5398 34.661 41.864 34.072 43.0809C33.4722 44.32 33.2157 45.3566 33.2157 46.0234C33.2157 49.514 30.0985 52.038 26.8095 52.4608C25.1156 52.6785 23.302 52.3572 21.7761 51.3001C20.253 50.245 19.1648 48.5618 18.6747 46.2916C18.0722 43.5013 16.0511 41.158 13.6032 39.3271C11.2017 37.5308 8.52534 36.3322 6.80597 35.7792C4.92542 35.3941 2.79174 34.1753 1.43274 32.5063C-0.0120156 30.732 -0.687924 28.2781 0.97088 25.7688C1.93913 24.3041 3.16066 23.3333 4.54879 22.82C5.9274 22.3102 7.33184 22.3028 8.58065 22.5476C9.82045 22.7907 10.9473 23.2885 11.8509 23.8487C12.7043 24.3777 13.4533 25.0216 13.9221 25.6695C14.4734 26.2966 15.0225 27.0191 15.5584 27.7243C15.7402 27.9635 15.9205 28.2008 16.0988 28.4316C16.8482 29.4016 17.6203 30.3384 18.5171 31.1667C20.2614 32.7778 22.4836 33.9913 25.9308 33.9913C27.5799 33.9913 28.764 33.8027 29.6967 33.4862C30.6167 33.1741 31.3748 32.7099 32.135 32.0532C32.919 31.3761 33.6789 30.5196 34.6279 29.4109C34.747 29.2717 34.8687 29.1291 34.9932 28.9831C35.8429 27.9871 36.8244 26.8368 38.0269 25.5721C40.4032 23.0733 42.875 22.0752 45.1508 22.0831ZM45.1385 24.9141C44.0173 24.9102 42.3716 25.3748 40.4403 27.4057C39.2958 28.6092 38.3665 29.6983 37.5156 30.6955C37.39 30.8427 37.2661 30.9879 37.1434 31.1312C36.2068 32.2255 35.3138 33.2445 34.3359 34.0891C33.3343 34.9542 32.2217 35.6578 30.8206 36.1331C29.4323 36.604 27.845 36.8224 25.9308 36.8224C21.4597 36.8224 18.4559 35.1812 16.241 33.1355C15.1582 32.1353 14.2674 31.0432 13.4926 30.0403C13.2775 29.762 13.0747 29.4952 12.8801 29.2392C12.348 28.5392 11.8776 27.9204 11.3879 27.3692C11.3486 27.3251 11.3124 27.2788 11.2793 27.2308C11.1098 26.9846 10.6926 26.576 10.0459 26.1751C9.41533 25.7842 8.6655 25.4627 7.90197 25.313C7.14744 25.165 6.42187 25.1912 5.75955 25.4361C5.10676 25.6775 4.37645 26.1823 3.69774 27.209C2.82999 28.5217 3.10428 29.7482 3.9936 30.8403C4.94176 32.0048 6.46813 32.8234 7.56992 33.0308C7.63764 33.0435 7.70436 33.0602 7.76964 33.0808C9.80256 33.7206 12.8713 35.0881 15.6359 37.1559C18.3956 39.22 20.9934 42.0907 21.7846 45.7552C22.1655 47.5193 22.9382 48.5234 23.7163 49.0624C24.4916 49.5995 25.4197 49.7792 26.3587 49.6585C28.3354 49.4044 30.0484 47.8942 30.0484 46.0234C30.0484 44.8283 30.4702 43.3924 31.1651 41.9567C31.8707 40.4988 32.9039 38.946 34.2325 37.5066C36.8769 34.6417 40.8269 32.0925 45.8428 31.8523C46.8484 31.8041 47.4826 31.5247 47.8914 31.1934C48.3106 30.8536 48.6052 30.3671 48.7448 29.7501C49.0311 28.4837 48.6017 26.9124 47.6935 25.8576C47.2113 25.4158 46.2907 24.9181 45.1385 24.9141Z" fill="#4F406C"/>
<path fill-rule="evenodd" clip-rule="evenodd" d="M45.1508 43.1739C47.3617 43.1816 49.0975 44.1407 50.053 45.0581C50.0815 45.0854 50.1088 45.1138 50.1347 45.143C51.6272 46.8251 52.332 49.267 51.8493 51.4017C51.6023 52.4945 51.0292 53.5626 50.0189 54.3815C48.9982 55.2088 47.6409 55.6921 46.0122 55.7701C42.1596 55.9546 38.9618 57.9223 36.6756 60.3991C35.539 61.6306 34.661 62.9548 34.072 64.1717C33.4722 65.4108 33.2157 66.4475 33.2157 67.1142C33.2157 70.6048 30.0985 73.1288 26.8095 73.5516C25.1156 73.7693 23.302 73.448 21.7761 72.391C20.253 71.3359 19.1648 69.6526 18.6747 67.3824C18.0722 64.5921 16.0511 62.2488 13.6032 60.4179C11.2017 58.6216 8.52534 57.423 6.80597 56.8701C4.92542 56.485 2.79174 55.2661 1.43274 53.5972C-0.0120156 51.8229 -0.687924 49.3689 0.97088 46.8596C1.93913 45.3949 3.16066 44.4241 4.54879 43.9108C5.9274 43.4011 7.33184 43.3936 8.58065 43.6385C9.82045 43.8816 10.9473 44.3793 11.8509 44.9395C12.7043 45.4686 13.4533 46.1124 13.9221 46.7604C14.4734 47.3874 15.0225 48.11 15.5584 48.8151C15.7402 49.0544 15.9205 49.2916 16.0988 49.5224C16.8482 50.4924 17.6203 51.4292 18.5171 52.2575C20.2614 53.8686 22.4836 55.0821 25.9308 55.0821C27.5799 55.0821 28.764 54.8935 29.6967 54.577C30.6167 54.2649 31.3748 53.8007 32.135 53.1441C32.919 52.467 33.6789 51.6104 34.6279 50.5018C34.747 50.3626 34.8687 50.2199 34.9932 50.074C35.8429 49.0779 36.8244 47.9276 38.0269 46.663C40.4032 44.1641 42.875 43.166 45.1508 43.1739ZM45.1385 46.0049C44.0173 46.001 42.3716 46.4656 40.4403 48.4965C39.2958 49.7 38.3665 50.7891 37.5156 51.7863C37.39 51.9335 37.2661 52.0787 37.1434 52.222C36.2068 53.3163 35.3138 54.3354 34.3359 55.18C33.3343 56.045 32.2217 56.7486 30.8206 57.2239C29.4323 57.6949 27.845 57.9132 25.9308 57.9132C21.4597 57.9132 18.4559 56.272 16.241 54.2263C15.1582 53.2262 14.2674 52.1341 13.4926 51.1312C13.2775 50.8528 13.0747 50.586 12.8801 50.33C12.348 49.6301 11.8776 49.0113 11.3879 48.46C11.3486 48.4159 11.3124 48.3697 11.2793 48.3216C11.1098 48.0754 10.6926 47.6668 10.0459 47.2659C9.41533 46.875 8.6655 46.5535 7.90197 46.4038C7.14744 46.2558 6.42187 46.282 5.75955 46.5269C5.10676 46.7683 4.37645 47.2732 3.69774 48.2998C2.82999 49.6125 3.10428 50.839 3.9936 51.9312C4.94176 53.0956 6.46813 53.9143 7.56992 54.1216C7.63764 54.1343 7.70436 54.151 7.76964 54.1716C9.80256 54.8114 12.8713 56.1789 15.6359 58.2467C18.3956 60.3109 20.9934 63.1815 21.7846 66.846C22.1655 68.6101 22.9382 69.6142 23.7163 70.1532C24.4916 70.6903 25.4197 70.87 26.3587 70.7493C28.3354 70.4952 30.0484 68.985 30.0484 67.1142C30.0484 65.9191 30.4702 64.4832 31.1651 63.0475C31.8707 61.5897 32.9039 60.0368 34.2325 58.5974C36.8769 55.7325 40.8269 53.1833 45.8428 52.9431C46.8484 52.8949 47.4826 52.6156 47.8914 52.2842C48.3106 51.9444 48.6052 51.458 48.7448 50.8409C49.0311 49.5745 48.6017 48.0032 47.6935 46.9485C47.2113 46.5066 46.2907 46.0089 45.1385 46.0049Z" fill="#4F406C"/>
<path fill-rule="evenodd" clip-rule="evenodd" d="M45.1508 63.5577C47.3617 63.5653 49.0975 64.5245 50.053 65.4419C50.0815 65.4692 50.1088 65.4975 50.1347 65.5268C51.6272 67.2089 52.332 69.6507 51.8493 71.7855C51.6023 72.8783 51.0292 73.9464 50.0189 74.7653C48.9982 75.5926 47.6409 76.0759 46.0122 76.1539C42.1596 76.3384 38.9618 78.3061 36.6756 80.7829C35.539 82.0144 34.661 83.3386 34.072 84.5555C33.4722 85.7946 33.2157 86.8312 33.2157 87.498C33.2157 90.9886 30.0985 93.5126 26.8095 93.9354C25.1156 94.1531 23.302 93.8318 21.7761 92.7748C20.253 91.7196 19.1648 90.0364 18.6747 87.7662C18.0722 84.9759 16.0511 82.6326 13.6032 80.8017C11.2017 79.0054 8.52534 77.8068 6.80597 77.2538C4.92542 76.8687 2.79174 75.6499 1.43274 73.9809C-0.0120156 72.2066 -0.687924 69.7527 0.97088 67.2434C1.93913 65.7787 3.16066 64.8079 4.54879 64.2946C5.9274 63.7848 7.33184 63.7774 8.58065 64.0223C9.82045 64.2654 10.9473 64.7631 11.8509 65.3233C12.7043 65.8523 13.4533 66.4962 13.9221 67.1441C14.4734 67.7712 15.0225 68.4937 15.5584 69.1989C15.7402 69.4381 15.9205 69.6754 16.0988 69.9062C16.8482 70.8762 17.6203 71.813 18.5171 72.6413C20.2614 74.2524 22.4836 75.4659 25.9308 75.4659C27.5799 75.4659 28.764 75.2773 29.6967 74.9608C30.6167 74.6487 31.3748 74.1845 32.135 73.5279C32.919 72.8507 33.6789 71.9942 34.6279 70.8856C34.747 70.7464 34.8687 70.6037 34.9932 70.4577C35.8429 69.4617 36.8244 68.3114 38.0269 67.0468C40.4032 64.5479 42.875 63.5498 45.1508 63.5577ZM45.1385 66.3887C44.0173 66.3848 42.3716 66.8494 40.4403 68.8803C39.2958 70.0838 38.3665 71.1729 37.5156 72.1701C37.39 72.3173 37.2661 72.4625 37.1434 72.6058C36.2068 73.7001 35.3138 74.7191 34.3359 75.5637C33.3343 76.4288 32.2217 77.1324 30.8206 77.6077C29.4323 78.0787 27.845 78.297 25.9308 78.297C21.4597 78.297 18.4559 76.6558 16.241 74.6101C15.1582 73.61 14.2674 72.5178 13.4926 71.5149C13.2775 71.2366 13.0747 70.9698 12.8801 70.7138C12.348 70.0138 11.8776 69.395 11.3879 68.8438C11.3486 68.7997 11.3124 68.7534 11.2793 68.7054C11.1098 68.4592 10.6926 68.0506 10.0459 67.6497C9.41533 67.2588 8.6655 66.9373 7.90197 66.7876C7.14744 66.6396 6.42187 66.6658 5.75955 66.9107C5.10676 67.1521 4.37645 67.6569 3.69774 68.6836C2.82999 69.9963 3.10428 71.2228 3.9936 72.315C4.94176 73.4794 6.46813 74.2981 7.56992 74.5054C7.63764 74.5181 7.70436 74.5348 7.76964 74.5554C9.80256 75.1952 12.8713 76.5627 15.6359 78.6305C18.3956 80.6946 20.9934 83.5653 21.7846 87.2298C22.1655 88.9939 22.9382 89.998 23.7163 90.537C24.4916 91.0741 25.4197 91.2538 26.3587 91.1331C28.3354 90.879 30.0484 89.3688 30.0484 87.498C30.0484 86.3029 30.4702 84.867 31.1651 83.4313C31.8707 81.9735 32.9039 80.4206 34.2325 78.9812C36.8769 76.1163 40.8269 73.5671 45.8428 73.3269C46.8484 73.2787 47.4826 72.9993 47.8914 72.668C48.3106 72.3282 48.6052 71.8417 48.7448 71.2247C49.0311 69.9583 48.6017 68.387 47.6935 67.3322C47.2113 66.8904 46.2907 66.3927 45.1385 66.3887Z" fill="#4F406C"/>
</svg>
