<svg width="51" height="65" viewBox="0 0 51 65" fill="none" xmlns="http://www.w3.org/2000/svg">
<path d="M25.5 16C27.625 16 29.5 14.875 30.625 13C31.75 11.25 31.75 8.875 30.625 7C29.5 5.25 27.625 4 25.5 4C23.25 4 21.375 5.25 20.25 7C19.125 8.875 19.125 11.25 20.25 13C21.375 14.875 23.25 16 25.5 16ZM25.5 0C29 0 32.25 2 34.125 5C35.875 8.125 35.875 12 34.125 15C32.25 18.125 29 20 25.5 20C21.875 20 18.625 18.125 16.75 15C15 12 15 8.125 16.75 5C18.625 2 21.875 0 25.5 0ZM3.25 18.375C5.75 15.5 10.25 15.25 13.125 17.875L16.125 20.5C18.625 22.75 22 24 25.5 24C28.875 24 32.25 22.75 34.75 20.5L37.75 17.875C40.625 15.25 45.125 15.5 47.625 18.375C50.25 21.25 50 25.75 47.125 28.25L44.125 31C42 32.75 39.875 34.25 37.5 35.375V39.375L43.625 46.375C45.75 48.75 46 52.25 44.25 55L40.25 61C38.125 64.125 33.75 65 30.5 62.875C27.375 60.75 26.5 56.375 28.625 53.125L29.625 51.625L27.25 49H23.625L21.25 51.625L22.25 53.125C24.375 56.375 23.5 60.75 20.375 62.875C17.125 65 12.75 64.125 10.625 61L6.625 55C4.875 52.25 5.125 48.75 7.25 46.375L13.5 39.375V36.125C13.5 36.125 13.5 36.125 13.5 36V35.375C11 34.25 8.875 32.75 6.875 31L3.75 28.25C0.875 25.75 0.625 21.25 3.25 18.375ZM17.5 38V40.125V40.25L22.25 45.125C22.375 45.125 22.5 45 22.625 45H28.25C28.375 45 28.5 45.125 28.625 45.125L33.5 40.25V40.125V38H17.5ZM33.5 34C33.5 33.25 33.875 32.5 34.625 32.25C37.125 31.25 39.375 29.75 41.375 28L44.5 25.25C45.625 24.25 45.75 22.25 44.75 21.125C43.625 19.875 41.75 19.75 40.5 20.875L37.375 23.5C34.125 26.375 29.875 28 25.5 28C21 28 16.75 26.375 13.5 23.5L10.375 20.75C9.25 19.75 7.25 19.875 6.25 21C5.125 22.25 5.25 24.25 6.5 25.25L9.5 28C11.5 29.75 13.75 31.25 16.25 32.25C17 32.5 17.375 33.25 17.5 34H33.5ZM35.75 43.5L31.5 47.75L33.625 50.125C34.25 50.875 34.25 51.875 33.75 52.625L32 55.375C31 56.75 31.375 58.625 32.75 59.5C34.125 60.5 36 60.125 37 58.75L41 52.75C41.75 51.625 41.625 50.125 40.75 49L35.75 43.5ZM19.375 47.75L15.125 43.5L10.25 49C9.25 50.125 9.25 51.625 10 52.75L14 58.75C14.875 60.125 16.75 60.5 18.125 59.5C19.5 58.625 19.875 56.75 19 55.375L17.125 52.625C16.625 51.875 16.625 50.875 17.25 50.125L19.375 47.75Z" fill="#4F406C"/>
</svg>
