<svg width="88" height="71" viewBox="0 0 88 71" fill="none" xmlns="http://www.w3.org/2000/svg">
<path d="M15.9727 48.875C22.6719 48.875 28.0039 43.1328 27.3203 36.4336C27.3203 36.1602 27.3203 36.0234 27.3203 35.75C26.9102 32.4688 26.3633 27.1367 30.3281 22.625C33.3359 19.207 34.5664 15.2422 33.7461 12.3711C32.5156 8.26953 27.457 5.125 21.9883 5.125C16.9297 5.125 12.6914 8.40625 9.41016 13.7383C6.26562 19.207 4.625 26.043 4.625 31.375C4.625 36.1602 5.30859 40.8086 7.22266 44.0898C8.86328 46.9609 11.4609 48.875 15.9727 48.875ZM15.9727 53.25C3.53125 53.25 0.25 41.6289 0.25 31.375C0.25 19.3438 7.49609 0.75 21.9883 0.75C28.5508 0.75 36.0703 4.44141 37.9844 11.2773C39.3516 16.0625 37.1641 21.5312 33.4727 25.6328C32.7891 26.4531 32.2422 27.4102 31.832 28.3672L35.9336 30.418C38.1211 31.5117 39.625 33.8359 39.625 36.2969V68.5625C39.625 69.793 38.5312 70.75 37.4375 70.75C36.207 70.75 35.25 69.793 35.25 68.5625V36.2969C35.25 35.4766 34.7031 34.793 34.0195 34.3828L31.4219 33.1523C31.4219 33.9727 31.5586 34.793 31.6953 35.6133V36.0234C32.6523 45.3203 25.2695 53.25 15.9727 53.25ZM54.1172 12.6445C53.1602 15.2422 54.3906 19.0703 57.6719 22.7617C61.5 27.1367 60.9531 32.4688 60.6797 35.75C60.543 36.0234 60.543 36.1602 60.543 36.4336C59.8594 43.1328 65.1914 48.875 71.8906 48.875C76.4023 48.875 79 46.9609 80.6406 44.0898C82.5547 40.8086 83.375 36.1602 83.375 31.375C83.375 26.043 81.5977 19.207 78.4531 13.7383C75.1719 8.40625 70.9336 5.125 65.875 5.125C60.4062 5.125 55.3477 8.26953 54.1172 12.3711C54.1172 12.5078 54.1172 12.5078 54.1172 12.6445ZM49.8789 11.2773C51.793 4.44141 59.3125 0.75 65.875 0.75C80.3672 0.75 87.75 19.3438 87.75 31.375C87.75 41.6289 84.332 53.25 71.8906 53.25C62.5938 53.25 55.3477 45.3203 56.168 36.0234L56.3047 35.6133C56.3047 34.793 56.4414 33.9727 56.4414 33.1523L53.8438 34.3828C53.1602 34.793 52.75 35.4766 52.75 36.2969V68.5625C52.75 69.793 51.6562 70.75 50.5625 70.75C49.332 70.75 48.375 69.793 48.375 68.5625V36.2969C48.375 33.8359 49.7422 31.5117 51.9297 30.418L56.0312 28.3672C55.6211 27.4102 55.2109 26.4531 54.3906 25.6328C50.6992 21.5312 48.375 16.0625 49.8789 11.2773Z" fill="#4F406C"/>
</svg>
