<svg width="73" height="61" viewBox="0 0 73 61" fill="none" xmlns="http://www.w3.org/2000/svg">
<path d="M31 12.375L29.5 10.75L28.875 10.125C25.625 6.5 20.75 4.75 16 5.625C9.25 6.875 4.5 12.625 4.5 19.375V19.875C4.5 23.875 6.125 27.75 9.125 30.5L32.125 51.875C32.125 52 32.25 52 32.5 52C32.625 52 32.75 52 32.875 51.875L34.125 50.625C34.75 51.875 35.375 53.125 36.125 54.25L35.5 54.875C35.375 54.875 35.375 55 35.25 55.125C34.375 55.75 33.5 56 32.5 56C31.25 56 30.25 55.625 29.375 54.875L6.375 33.375C5.875 33 5.375 32.5 5 32C2.125 28.625 0.5 24.375 0.5 19.875V19.375C0.5 10.75 6.625 3.25 15.25 1.75C20.375 0.75 25.5 2.125 29.625 5.25C30.375 5.875 31.25 6.625 31.875 7.5L32.375 8L33 7.5C33.5 6.875 34 6.25 34.625 5.75C34.875 5.625 35.125 5.375 35.25 5.25C39.375 2.125 44.5 0.75 49.625 1.75C58.25 3.25 64.5 10.75 64.5 19.375V19.875C64.5 20.75 64.375 21.5 64.25 22.375C63 21.75 61.75 21.25 60.375 20.875C60.375 20.5 60.5 20.25 60.5 19.875V19.375C60.5 12.625 55.625 6.875 49 5.625C44.125 4.75 39.25 6.5 36 10.125L35.5 10.75L34 12.375C33.625 12.75 33 13 32.5 13C31.875 13 31.375 12.75 31 12.375ZM68.5 42C68.5 37 65.75 32.5 61.5 30C57.125 27.375 51.75 27.375 47.5 30C43.125 32.5 40.5 37 40.5 42C40.5 47.125 43.125 51.625 47.5 54.125C51.75 56.75 57.125 56.75 61.5 54.125C65.75 51.625 68.5 47.125 68.5 42ZM36.5 42C36.5 35.625 39.875 29.75 45.5 26.5C51 23.25 57.875 23.25 63.5 26.5C69 29.75 72.5 35.625 72.5 42C72.5 48.5 69 54.375 63.5 57.625C57.875 60.875 51 60.875 45.5 57.625C39.875 54.375 36.5 48.5 36.5 42ZM56.5 34V40H62.5C63.5 40 64.5 41 64.5 42C64.5 43.125 63.5 44 62.5 44H56.5V50C56.5 51.125 55.5 52 54.5 52C53.375 52 52.5 51.125 52.5 50V44H46.5C45.375 44 44.5 43.125 44.5 42C44.5 41 45.375 40 46.5 40H52.5V34C52.5 33 53.375 32 54.5 32C55.5 32 56.5 33 56.5 34Z" fill="#4F406C"/>
</svg>
