<svg width="39" height="61" viewBox="0 0 39 61" fill="none" xmlns="http://www.w3.org/2000/svg">
<g clip-path="url(#clip0_241_3754)">
<path d="M16.1815 61C15.4775 60.6966 14.8715 60.301 14.5931 59.5163C14.5409 59.3686 14.2719 59.232 14.0884 59.2081C12.8006 59.0366 11.5017 58.9413 10.2186 58.7379C3.8618 57.7308 -0.422488 52.2313 0.0331523 45.777C0.25148 42.6778 1.39216 39.9185 3.02013 37.3561C5.35529 33.6819 7.77588 30.0632 10.1743 26.4286C11.9858 23.6836 13.6786 20.8639 15.0171 17.8568C15.4142 16.9656 15.4379 15.8965 15.574 14.9021C16.1546 10.6798 16.7257 6.45742 17.27 2.23031C17.4155 1.10404 17.9803 0.378073 19.0229 0H19.9706C21.4799 0.737083 21.7758 1.33755 21.5384 3.08336C20.8518 8.13016 20.1779 13.1801 19.4802 18.2253C19.4185 18.667 19.2523 19.107 19.0656 19.5136C16.7115 24.6287 13.5125 29.2292 10.4259 33.9027C8.684 36.5412 7.05445 39.2608 5.49768 42.0153C4.2858 44.1599 3.9947 46.5109 4.6386 48.9223C5.5135 52.1963 8.13343 54.2789 11.6061 54.5823C13.0743 54.711 14.5361 54.9286 15.9901 55.178C16.4789 55.2622 16.9599 55.5148 17.3918 55.7769C18.4328 56.4059 19.0055 57.3257 18.9153 58.5902C18.8315 59.7752 18.2445 60.587 17.1292 60.9984H16.1815V61Z" fill="#4F406C"/>
<path d="M38.9998 43.0797C38.9586 46.727 38.2831 49.3973 36.2074 51.5577C35.2281 52.5776 33.9292 52.665 33.0084 51.7738C32.0955 50.8906 32.1335 49.5832 33.1002 48.5506C34.2219 47.3545 34.6079 45.8787 34.6459 44.2949C34.7139 41.3657 33.926 38.6191 32.8391 35.936C32.654 35.4785 32.5369 34.9321 32.5923 34.4491C32.7031 33.477 33.5131 32.7764 34.4671 32.6636C35.4005 32.554 36.3419 33.0417 36.6868 33.9948C37.3243 35.7597 37.9603 37.5341 38.4207 39.3498C38.7878 40.7986 38.889 42.3156 39.0014 43.0781L38.9998 43.0797Z" fill="#4F406C"/>
<path d="M26.6909 50.4381C23.6248 50.5604 20.7818 50.9782 18.1034 52.2443C17.0165 52.7574 15.7666 52.2062 15.2936 51.1101C14.8221 50.0172 15.273 48.794 16.3947 48.265C18.1334 47.4437 19.9639 46.8575 21.8608 46.6097C23.9065 46.3429 25.9742 46.2142 28.0357 46.1125C29.3552 46.0474 30.2902 47.0021 30.2997 48.2475C30.3092 49.5231 29.3805 50.4175 28.0167 50.4381C27.5247 50.4461 27.0311 50.4381 26.6909 50.4381Z" fill="#4F406C"/>
</g>
<defs>
<clipPath id="clip0_241_3754">
<rect width="39" height="61" fill="white"/>
</clipPath>
</defs>
</svg>
