<svg width="41" height="64" viewBox="0 0 41 64" fill="none" xmlns="http://www.w3.org/2000/svg">
<path d="M21 10C22.625 10 24 8.75 24 7C24 5.375 22.625 4 21 4C19.25 4 18 5.375 18 7C18 8.75 19.25 10 21 10ZM21 0C23.5 0 25.75 1.375 27 3.5C28.25 5.75 28.25 8.375 27 10.5C25.75 12.75 23.5 14 21 14C18.375 14 16.125 12.75 14.875 10.5C13.625 8.375 13.625 5.75 14.875 3.5C16.125 1.375 18.375 0 21 0ZM21 44H27H35H37V40C37 36.125 34.125 32.875 30.5 32.25C28.875 31.875 27.625 30.625 27.25 29L26.5 25C26 22.125 23.5 20 20.625 20H19C15.625 20 13 22.75 13 26V44H15H21ZM21.125 16.125C25.75 16.375 29.625 19.625 30.5 24.25L31.25 28.25C36.75 29.375 41 34.25 41 40V44C41 46.25 39.125 48 37 48H35H29V62C29 63.125 28 64 27 64C25.875 64 25 63.125 25 62V48H21H17V62C17 63.125 16 64 15 64C13.875 64 13 63.125 13 62V48C10.75 48 9 46.25 9 44V29.125L4.75 37C4.125 38 3 38.375 2 37.875C1 37.25 0.625 36.125 1.125 35.125L8 22.375C10 18.5 14.125 16 18.5 16H19H20.625H21C21 16 21.125 16 21.125 16.125Z" fill="#4F406C"/>
</svg>
