<svg width="45" height="41" viewBox="0 0 45 41" fill="none" xmlns="http://www.w3.org/2000/svg">
<path d="M25 37.812C25.0781 37.812 25.1562 37.812 25.2344 37.812C25.8594 38.5151 26.5625 39.1401 27.3438 39.7651C26.6406 40.1558 25.7812 40.3901 25 40.3901H5C2.1875 40.3901 0 38.1245 0 35.3901V5.31201C0 2.57764 2.1875 0.312012 5 0.312012H17.1875C18.125 0.312012 19.1406 0.780762 19.8438 1.48389L28.8281 10.4683C29.5312 11.1714 30 12.187 30 13.1245V16.4839L27.5 17.4995V15.312H18.75C16.6406 15.312 15 13.6714 15 11.562V2.81201H5C3.59375 2.81201 2.5 3.98389 2.5 5.31201V35.312C2.5 36.7183 3.59375 37.812 5 37.812H25ZM27.4219 12.812C27.3438 12.6558 27.2656 12.4214 27.1094 12.2651L18.0469 3.20264C17.8906 3.04639 17.6562 2.96826 17.5 2.89014V11.562C17.5 12.2651 18.0469 12.812 18.75 12.812H27.4219ZM25 23.9058C25.0781 28.0464 26.7188 33.9839 32.5 37.187V20.8589L25 23.9058ZM42.5 23.9058L35 20.8589V37.187C40.7031 33.9839 42.3438 28.0464 42.4219 23.9058H42.5ZM34.4531 17.9683L43.8281 21.7183C44.5312 22.0308 45 22.7339 45 23.437C45 28.437 42.9688 36.6401 34.4531 40.2339C33.9844 40.3901 33.4375 40.3901 32.9688 40.2339C24.4531 36.6401 22.5 28.437 22.5 23.437C22.5 22.7339 22.9688 22.0308 23.6719 21.7183L33.0469 17.9683C33.4375 17.812 33.9844 17.812 34.375 17.9683H34.4531Z" fill="url(#paint0_linear_1_16733)"/>
<defs>
<linearGradient id="paint0_linear_1_16733" x1="22.5" y1="0.312012" x2="22.5" y2="40.312" gradientUnits="userSpaceOnUse">
<stop stop-color="#6B569F"/>
<stop offset="1" stop-color="#4F406C"/>
</linearGradient>
</defs>
</svg>
