<svg width="19" height="16" viewBox="0 0 19 16" fill="none" xmlns="http://www.w3.org/2000/svg">
<path d="M11.5938 4.21875C11.75 4 12.0625 3.9375 12.2812 4.125C12.5 4.28125 12.5625 4.59375 12.375 4.8125L9.3125 8.8125C9.25 8.9375 9.125 9 8.96875 9C8.96875 9.03125 8.9375 9 8.9375 9C8.8125 9 8.6875 8.96875 8.59375 8.875L6.65625 7.1875C6.4375 7 6.4375 6.6875 6.625 6.46875C6.78125 6.25 7.09375 6.25 7.3125 6.4375L8.84375 7.78125L11.5938 4.21875ZM17 10C17.8125 10 18.5 10.6875 18.5 11.5V13.5C18.5 14.3438 17.8125 15 17 15H2C1.15625 15 0.5 14.3438 0.5 13.5V11.5C0.5 10.6875 1.15625 10 2 10C2.25 10 2.5 10.25 2.5 10.5C2.5 10.7812 2.25 11 2 11C1.71875 11 1.5 11.25 1.5 11.5V13.5C1.5 13.7812 1.71875 14 2 14H17C17.25 14 17.5 13.7812 17.5 13.5V11.5C17.5 11.25 17.25 11 17 11C16.7188 11 16.5 10.7812 16.5 10.5C16.5 10.25 16.7188 10 17 10ZM3 13C2.71875 13 2.5 12.7812 2.5 12.5C2.5 12.25 2.71875 12 3 12H3.5V2.5C3.5 1.6875 4.15625 1 5 1H14C14.8125 1 15.5 1.6875 15.5 2.5V12H16C16.25 12 16.5 12.25 16.5 12.5C16.5 12.7812 16.25 13 16 13H3ZM4.5 2.5V12H14.5V2.5C14.5 2.25 14.25 2 14 2H5C4.71875 2 4.5 2.25 4.5 2.5Z" fill="url(#paint0_linear_1_4540)"/>
<defs>
<linearGradient id="paint0_linear_1_4540" x1="9.5" y1="0" x2="9.5" y2="16" gradientUnits="userSpaceOnUse">
<stop stop-color="#6B569F"/>
<stop offset="1"/>
</linearGradient>
</defs>
</svg>
