<svg width="51" height="41" viewBox="0 0 51 41" fill="none" xmlns="http://www.w3.org/2000/svg">
<path d="M18.5 20.8115C12.9531 20.8115 8.5 16.3584 8.5 10.8115C8.5 5.34277 12.9531 0.811523 18.5 0.811523C23.9688 0.811523 28.5 5.34277 28.5 10.8115C28.5 16.3584 23.9688 20.8115 18.5 20.8115ZM18.5 3.31152C14.3594 3.31152 11 6.74902 11 10.8115C11 14.9521 14.3594 18.3115 18.5 18.3115C22.5625 18.3115 26 14.9521 26 10.8115C26 6.74902 22.5625 3.31152 18.5 3.31152ZM31.7812 38.8584C32.4062 39.7178 31.7812 40.8115 30.7656 40.8115H3.65625C2.17188 40.8115 1 39.6396 1 38.1553C0.921875 30.6553 7.01562 24.5615 14.5156 24.5615H22.4062C23.3438 24.5615 24.2031 24.7178 24.9844 24.874C25.5312 24.9521 25.9219 25.4209 26 25.9678C26 26.0459 26 26.0459 26 26.0459C26.1562 26.8271 25.375 27.5303 24.5938 27.2959C23.8906 27.2178 23.1875 27.0615 22.4062 27.0615H14.5156C8.42188 27.0615 3.42188 32.0615 3.5 38.1553C3.5 38.2334 3.57812 38.3115 3.65625 38.3115H30.7656C31.1562 38.3115 31.5469 38.5459 31.7812 38.8584ZM49.5938 22.0615C50.4531 22.374 51 23.1553 51 23.9365C51 33.7021 44.5938 39.0928 40.5312 40.6553C40.2188 40.8115 39.9062 40.8115 39.6719 40.8115C39.4375 40.8115 39.125 40.8115 38.8125 40.5771C33.8125 38.624 28.5 32.6084 28.5 23.9365C28.5 23.1553 29.0469 22.374 29.8281 22.0615L38.8125 18.5459C39.0469 18.3896 39.2812 18.3115 39.6719 18.3115C39.9844 18.3115 40.2969 18.3896 40.6094 18.5459L49.5938 22.0615ZM38.5 37.6865V21.3584L31 24.249C31.0781 30.8896 34.6719 35.6553 38.5 37.6865ZM41 37.7646C43.9688 36.0459 48.3438 31.6709 48.5 24.249L41 21.3584V37.7646Z" fill="url(#paint0_linear_1_4518)"/>
<defs>
<linearGradient id="paint0_linear_1_4518" x1="26" y1="0.811523" x2="26" y2="40.8115" gradientUnits="userSpaceOnUse">
<stop stop-color="#6B569F"/>
<stop offset="1"/>
</linearGradient>
</defs>
</svg>
