<svg width="15" height="16" viewBox="0 0 15 16" fill="none" xmlns="http://www.w3.org/2000/svg">
<path d="M11.5 2C12.5938 2 13.5 2.90625 13.5 4V14C13.5 15.125 12.5938 16 11.5 16H3.5C2.375 16 1.5 15.125 1.5 14V4C1.5 2.90625 2.375 2 3.5 2C3.75 2 4 2.25 4 2.5C4 2.78125 3.75 3 3.5 3C2.9375 3 2.5 3.46875 2.5 4V14C2.5 14.5625 2.9375 15 3.5 15H11.5C12.0312 15 12.5 14.5625 12.5 14V4C12.5 3.46875 12.0312 3 11.5 3C11.2188 3 11 2.78125 11 2.5C11 2.25 11.2188 2 11.5 2ZM5 4C4.71875 4 4.5 3.78125 4.5 3.5C4.5 3.25 4.71875 3 5 3H5.75C5.59375 2.71875 5.5 2.375 5.5 2C5.5 0.90625 6.375 0 7.5 0C8.59375 0 9.5 0.90625 9.5 2C9.5 2.375 9.375 2.71875 9.21875 3H10C10.25 3 10.5 3.25 10.5 3.5C10.5 3.78125 10.25 4 10 4H5ZM7.5 1C6.9375 1 6.5 1.46875 6.5 2C6.5 2.5625 6.9375 3 7.5 3C8.03125 3 8.5 2.5625 8.5 2C8.5 1.46875 8.03125 1 7.5 1ZM4 13C4 11.625 5.09375 10.5 6.5 10.5H8.5C9.875 10.5 11 11.625 11 13C11 13.2812 10.75 13.5 10.5 13.5C10.2188 13.5 10 13.2812 10 13C10 12.1875 9.3125 11.5 8.5 11.5H6.5C5.65625 11.5 5 12.1875 5 13C5 13.2812 4.75 13.5 4.5 13.5C4.21875 13.5 4 13.2812 4 13ZM9.5 7.5C9.5 8.625 8.59375 9.5 7.5 9.5C6.375 9.5 5.5 8.625 5.5 7.5C5.5 6.40625 6.375 5.5 7.5 5.5C8.59375 5.5 9.5 6.40625 9.5 7.5ZM6.5 7.5C6.5 8.0625 6.9375 8.5 7.5 8.5C8.03125 8.5 8.5 8.0625 8.5 7.5C8.5 6.96875 8.03125 6.5 7.5 6.5C6.9375 6.5 6.5 6.96875 6.5 7.5Z" fill="url(#paint0_linear_1_4552)"/>
<defs>
<linearGradient id="paint0_linear_1_4552" x1="7.5" y1="0" x2="7.5" y2="16" gradientUnits="userSpaceOnUse">
<stop stop-color="#6B569F"/>
<stop offset="1"/>
</linearGradient>
</defs>
</svg>
