<svg width="87" height="70" viewBox="0 0 87 70" fill="none" xmlns="http://www.w3.org/2000/svg">
<path fill-rule="evenodd" clip-rule="evenodd" d="M52.9001 65.0413C47.7852 59.4863 43.8985 51.6087 43.4744 41.9856C43.4489 41.4074 43.4359 40.823 43.4359 40.2324C43.4359 40.0259 43.4768 39.8296 43.5174 39.6341L43.5175 39.634C43.5426 39.513 43.5677 39.3923 43.583 39.2696C43.4302 39.2635 43.2802 39.2406 43.1291 39.2176L43.1291 39.2176C42.9497 39.1902 42.7688 39.1627 42.5801 39.1627H40.3469C40.0344 39.3063 39.7181 39.4434 39.3983 39.5737C36.6808 40.6814 33.7092 41.3022 30.5985 41.3022C27.1217 41.3022 23.8321 40.5266 20.8501 39.1627H18.6169C8.69466 39.1627 0.644531 47.2128 0.644531 57.135V62.6979C0.644531 66.2416 3.51958 69.1166 7.06324 69.1166H54.1338C55.0431 69.1166 55.9123 68.9161 56.7013 68.5817C55.8252 67.8858 54.9665 67.129 54.1338 66.3136C53.7156 65.9042 53.304 65.48 52.9001 65.0413ZM47.588 65.0413C43.3355 59.4678 40.2205 52.2968 39.5128 43.8828C36.7197 44.8457 33.7193 45.3776 30.5985 45.3776C26.8338 45.3776 23.2605 44.6036 19.9983 43.238H18.6169C10.9454 43.238 4.7199 49.4636 4.7199 57.135V62.6979C4.7199 63.9908 5.77035 65.0413 7.06324 65.0413H47.588ZM66.9918 34.6887L66.9861 34.6875L66.9816 34.6868L66.9755 34.6859L66.9689 34.6853C66.9644 34.685 66.9618 34.6851 66.9607 34.6851L66.9553 34.6869L66.9525 34.6879L51.7927 40.6098C51.9454 53.5936 59.9638 62.2928 66.9559 65.0344L66.9605 65.0359L66.963 65.0358C66.9696 65.0353 66.9794 65.034 66.9908 65.0312C66.9964 65.0299 67.0006 65.0287 67.0032 65.0279C72.5619 62.8468 81.9876 55.0061 82.1499 40.6098L66.9918 34.6887ZM68.4556 68.8358C67.8939 69.0498 66.7706 69.3306 65.4869 68.8358C56.9019 65.4794 47.7151 55.1559 47.7151 40.2324C47.7151 38.7749 48.6511 37.4644 50.082 36.9027L65.4869 30.8852C66.7706 30.3904 67.9073 30.6712 68.4556 30.8852L83.8605 36.9027C85.2913 37.4644 86.2274 38.7749 86.2274 40.2324C86.2274 56.881 75.3155 66.1614 68.4556 68.8358ZM30.5985 30.8081C37.802 30.8081 43.6397 24.9704 43.6397 17.767C43.6397 10.5635 37.802 4.72576 30.5985 4.72576C23.3951 4.72576 17.5573 10.5635 17.5573 17.767C17.5573 24.9704 23.3951 30.8081 30.5985 30.8081ZM47.7151 17.767C47.7151 27.2212 40.0527 34.8835 30.5985 34.8835C21.1443 34.8835 13.482 27.2212 13.482 17.767C13.482 8.31273 21.1443 0.650391 30.5985 0.650391C40.0527 0.650391 47.7151 8.31273 47.7151 17.767ZM66.6664 42.2191C67.5667 42.2191 68.2966 42.949 68.2966 43.8493V48.332H72.7777C73.678 48.332 74.4079 49.0618 74.4079 49.9621C74.4079 50.8624 73.678 51.5923 72.7777 51.5923H68.2966V56.0754C68.2966 56.9757 67.5667 57.7055 66.6664 57.7055C65.7661 57.7055 65.0363 56.9757 65.0363 56.0754V51.5923H60.5516C59.6513 51.5923 58.9214 50.8624 58.9214 49.9621C58.9214 49.0618 59.6513 48.332 60.5516 48.332H65.0363V43.8493C65.0363 42.949 65.7661 42.2191 66.6664 42.2191Z" fill="url(#paint0_linear_1_15589)"/>
<defs>
<linearGradient id="paint0_linear_1_15589" x1="43.4359" y1="0.650391" x2="43.4359" y2="69.1166" gradientUnits="userSpaceOnUse">
<stop stop-color="#4F406C"/>
<stop offset="1" stop-color="#0081A4" stop-opacity="0"/>
</linearGradient>
</defs>
</svg>
