<svg width="18" height="16" viewBox="0 0 18 16" fill="none" xmlns="http://www.w3.org/2000/svg">
<path d="M5.25 3.24951C5.25 2.78467 4.97656 2.37451 4.59375 2.12842C4.18359 1.88232 3.66406 1.88232 3.28125 2.12842C2.87109 2.37451 2.625 2.78467 2.625 3.24951C2.625 3.7417 2.87109 4.15186 3.28125 4.39795C3.66406 4.64404 4.18359 4.64404 4.59375 4.39795C4.97656 4.15186 5.25 3.7417 5.25 3.24951ZM1.75 3.24951C1.75 2.48389 2.16016 1.77295 2.84375 1.36279C3.5 0.97998 4.34766 0.97998 5.03125 1.36279C5.6875 1.77295 6.125 2.48389 6.125 3.24951C6.125 4.04248 5.6875 4.75342 5.03125 5.16357C4.34766 5.54639 3.5 5.54639 2.84375 5.16357C2.16016 4.75342 1.75 4.04248 1.75 3.24951ZM8.75 8.93701C9.35156 8.93701 9.92578 8.60889 10.2539 8.06201C10.5547 7.54248 10.5547 6.85889 10.2539 6.31201C9.92578 5.79248 9.35156 5.43701 8.75 5.43701C8.12109 5.43701 7.54688 5.79248 7.21875 6.31201C6.91797 6.85889 6.91797 7.54248 7.21875 8.06201C7.54688 8.60889 8.12109 8.93701 8.75 8.93701ZM8.75 4.56201C9.67969 4.56201 10.5273 5.08154 11.0195 5.87451C11.4844 6.69482 11.4844 7.70654 11.0195 8.49951C10.5273 9.31982 9.67969 9.81201 8.75 9.81201C7.79297 9.81201 6.94531 9.31982 6.45312 8.49951C5.98828 7.70654 5.98828 6.69482 6.45312 5.87451C6.94531 5.08154 7.79297 4.56201 8.75 4.56201ZM7.13672 11.562C5.66016 11.562 4.42969 12.7378 4.375 14.187H12.25C12.25 14.5151 12.332 14.8159 12.4688 15.062H4.21094C3.82812 15.062 3.5 14.7612 3.5 14.3511C3.5 12.3276 5.11328 10.687 7.13672 10.687H10.3359C10.4727 10.687 10.582 10.7144 10.7188 10.7144C10.582 10.9604 10.5 11.2612 10.5 11.562V11.5894C10.4453 11.562 10.3906 11.562 10.3359 11.562H7.13672ZM14 4.56201C14.4648 4.56201 14.875 4.31592 15.1211 3.90576C15.3672 3.52295 15.3672 3.00342 15.1211 2.59326C14.875 2.21045 14.4648 1.93701 14 1.93701C13.5078 1.93701 13.0977 2.21045 12.8516 2.59326C12.6055 3.00342 12.6055 3.52295 12.8516 3.90576C13.0977 4.31592 13.5078 4.56201 14 4.56201ZM14 1.06201C14.7656 1.06201 15.4766 1.49951 15.8867 2.15576C16.2695 2.83936 16.2695 3.68701 15.8867 4.34326C15.4766 5.02686 14.7656 5.43701 14 5.43701C13.207 5.43701 12.4961 5.02686 12.0859 4.34326C11.7031 3.68701 11.7031 2.83936 12.0859 2.15576C12.4961 1.49951 13.207 1.06201 14 1.06201ZM14.4375 7.18701H12.25C12.25 6.88623 12.1953 6.61279 12.1406 6.31201H14.4375C16.1055 6.31201 17.5 7.70654 17.5 9.37451C17.5 9.62061 17.2812 9.81201 17.0625 9.81201C16.8164 9.81201 16.625 9.62061 16.625 9.37451C16.625 8.17139 15.6406 7.18701 14.4375 7.18701ZM5.25 7.18701H3.0625C1.83203 7.18701 0.875 8.17139 0.875 9.37451C0.875 9.62061 0.65625 9.81201 0.4375 9.81201C0.191406 9.81201 0 9.62061 0 9.37451C0 7.70654 1.36719 6.31201 3.0625 6.31201H5.35938C5.27734 6.61279 5.25 6.88623 5.25 7.18701ZM14 8.93701H14.875C15.3398 8.93701 15.75 9.34717 15.75 9.81201V10.687H16.625C17.0898 10.687 17.5 11.0972 17.5 11.562V12.437C17.5 12.9292 17.0898 13.312 16.625 13.312H15.75V14.187C15.75 14.6792 15.3398 15.062 14.875 15.062H14C13.5078 15.062 13.125 14.6792 13.125 14.187V13.312H12.25C11.7578 13.312 11.375 12.9292 11.375 12.437V11.562C11.375 11.0972 11.7578 10.687 12.25 10.687H13.125V9.81201C13.125 9.34717 13.5078 8.93701 14 8.93701ZM14 11.1245C14 11.3706 13.7812 11.562 13.5625 11.562H12.25V12.437H13.5625C13.7812 12.437 14 12.6558 14 12.8745V14.187H14.875V12.8745C14.875 12.6558 15.0664 12.437 15.3125 12.437H16.625V11.562H15.3125C15.0664 11.562 14.875 11.3706 14.875 11.1245V9.81201H14V11.1245Z" fill="url(#paint0_linear_1_16739)"/>
<defs>
<linearGradient id="paint0_linear_1_16739" x1="9" y1="-1.68799" x2="9" y2="18.312" gradientUnits="userSpaceOnUse">
<stop stop-color="#6B569F"/>
<stop offset="1" stop-color="#020202"/>
</linearGradient>
</defs>
</svg>
