<svg width="16" height="16" viewBox="0 0 16 16" fill="none" xmlns="http://www.w3.org/2000/svg">
<path d="M15.6417 8C15.6417 12.4183 12.1402 16 7.82083 16C3.50149 16 0 12.4183 0 8C0 3.58171 3.50149 0 7.82083 0C12.1402 0 15.6417 3.58171 15.6417 8ZM6.9162 12.2359L12.7188 6.30045C12.9158 6.0989 12.9158 5.7721 12.7188 5.57055L12.0052 4.84064C11.8082 4.63906 11.4887 4.63906 11.2916 4.84064L6.55941 9.68123L4.35005 7.42126C4.15302 7.21971 3.83353 7.21971 3.63647 7.42126L2.92291 8.15116C2.72588 8.35271 2.72588 8.67951 2.92291 8.88106L6.20261 12.2359C6.39968 12.4375 6.71914 12.4375 6.9162 12.2359Z" fill="#00539B"/>
</svg>
