<svg width="54" height="61" viewBox="0 0 54 61" fill="none" xmlns="http://www.w3.org/2000/svg">
<path d="M37.0238 32.7546C27.9816 32.7546 20.626 25.5463 20.626 16.6875H23.1698C23.1698 24.1447 29.3849 30.2107 37.0238 30.2107C44.6629 30.2107 50.8777 24.1442 50.8777 16.6875H53.4215C53.4215 25.5468 46.0657 32.7546 37.0238 32.7546V32.7546Z" fill="#302F7B"/>
<path d="M53.4218 16.6865H50.8779V6.59854C50.8779 5.8165 50.2146 5.18059 49.3998 5.18059H45.2744V2.63672H49.3998C51.6178 2.63722 53.4218 4.4145 53.4218 6.59854V16.6865Z" fill="#302F7B"/>
<path d="M21.8978 61.0007C12.8556 61.0007 5.5 53.7924 5.5 44.9336H8.04387C8.04387 52.3908 14.2589 58.4568 21.8978 58.4568C29.5369 58.4568 35.7517 52.3903 35.7517 44.9336H38.2956C38.2951 53.7929 30.9392 61.0007 21.8978 61.0007V61.0007Z" fill="#302F7B"/>
<path d="M35.752 32.1543H38.2958V44.9322H35.752V32.1543Z" fill="#302F7B"/>
<path d="M5.5 34.8457H8.04387V44.9337H5.5V34.8457Z" fill="#302F7B"/>
<path d="M23.1698 16.6865H20.626V6.59854C20.626 4.41437 22.4301 2.63672 24.648 2.63672H28.7734V5.18059L24.648 5.18109C23.8331 5.18109 23.1698 5.81705 23.1698 6.59904V16.6865Z" fill="#302F7B"/>
<path d="M29.2544 7.75041C28.5518 7.75041 27.9824 7.18101 27.9824 6.47847V1.27193C27.9824 0.569394 28.5518 0 29.2544 0C29.9569 0 30.5263 0.569394 30.5263 1.27193V6.47847C30.5263 7.18101 29.9569 7.75041 29.2544 7.75041Z" fill="#302F7B"/>
<path d="M44.518 7.74954C43.8155 7.74954 43.2461 7.18015 43.2461 6.47761V1.3774C43.2461 0.674863 43.8155 0.105469 44.518 0.105469C45.2206 0.105469 45.79 0.674863 45.79 1.3774V6.47761C45.79 7.18015 45.2206 7.74954 44.518 7.74954Z" fill="#302F7B"/>
<path d="M6.77204 36.1167C3.03827 36.1167 0 33.1326 0 29.4648C0 25.7966 3.03827 22.8125 6.77204 22.8125C10.5063 22.8125 13.5446 25.7966 13.5446 29.4648C13.5446 33.1326 10.5063 36.1167 6.77204 36.1167V36.1167ZM6.77204 25.3564C4.44032 25.3564 2.54387 27.1991 2.54387 29.4648C2.54387 31.7305 4.44032 33.5733 6.77204 33.5733C9.10375 33.5733 11.0007 31.7305 11.0007 29.4648C11.0007 27.1991 9.10375 25.3564 6.77204 25.3564Z" fill="#302F7B"/>
</svg>
