<svg width="64" height="54" viewBox="0 0 64 54" fill="none" xmlns="http://www.w3.org/2000/svg">
<path d="M22.5229 0.800781H41.6099C44.7946 0.800781 47.3852 3.39202 47.3852 6.57667V10.7135H56.0991C59.9045 10.7135 63 13.8095 63 17.615V46.5959C63 50.4013 59.9045 53.4974 56.0991 53.4974H8.03276C4.22741 53.4974 1.1319 50.4014 1.1319 46.5959L1.13251 17.615C1.13251 13.8096 4.22803 10.7135 8.03338 10.7135H16.7473V6.57667C16.7473 3.39202 19.3379 0.800781 22.5226 0.800781H22.5229ZM45.4127 6.57667C45.4127 4.47974 43.7073 2.77434 41.611 2.77434H22.524C20.4277 2.77434 18.7223 4.47974 18.7223 6.57667V10.7135H21.6828V6.72098C21.6828 6.17586 22.1244 5.73417 22.6696 5.73417L41.4648 5.73479C42.0099 5.73479 42.4516 6.17648 42.4516 6.7216V10.7141H45.412L45.4127 6.57667ZM23.6552 7.70843V10.714L40.4792 10.7134V7.70781L23.6552 7.70843ZM8.03419 12.6871C5.3172 12.6871 3.10703 14.8974 3.10703 17.6149V46.5959C3.10703 49.3135 5.31736 51.5237 8.03419 51.5237L56.099 51.5243C58.816 51.5243 61.0261 49.314 61.0261 46.5965L61.0267 17.6155C61.0267 14.8979 58.8164 12.6877 56.0996 12.6877L8.03419 12.6871Z" fill="#302F7B" stroke="#302F7B" stroke-width="0.6"/>
<path d="M42.0093 36.0386H36.0004V42.0474C36.0004 42.5925 35.5587 43.0342 35.0136 43.0342H29.1182C28.573 43.0342 28.1313 42.5925 28.1313 42.0474V36.0386H22.1225C21.5774 36.0386 21.1357 35.5969 21.1357 35.0518V29.1563C21.1357 28.6112 21.5774 28.1695 22.1225 28.1695H28.1313V22.1606C28.1313 21.6155 28.573 21.1738 29.1182 21.1738H35.0136C35.5587 21.1738 36.0004 21.6155 36.0004 22.1606V28.1695L42.0093 28.1701C42.5544 28.1701 42.9961 28.6118 42.9961 29.1569V35.0524C42.9961 35.5969 42.5544 36.0386 42.0093 36.0386V36.0386ZM41.0225 30.1431H35.0136C34.4685 30.1431 34.0268 29.7014 34.0268 29.1563V23.1474H30.1051V29.1563C30.1051 29.7014 29.6634 30.1431 29.1183 30.1431H23.1094V34.0649H29.1183C29.6634 34.0649 30.1051 34.5065 30.1051 35.0517V41.0605H34.0268V35.0517C34.0268 34.5065 34.4685 34.0649 35.0136 34.0649L41.0225 34.0655V30.1431Z" fill="#302F7B" stroke="#302F7B" stroke-width="0.6"/>
</svg>
