<svg width="80" height="80" viewBox="0 0 80 80" fill="none" xmlns="http://www.w3.org/2000/svg">
<path d="M30.5229 12.8008H49.6099C52.7946 12.8008 55.3852 15.392 55.3852 18.5767V22.7135H64.0991C67.9045 22.7135 71 25.8095 71 29.615V58.5959C71 62.4013 67.9045 65.4974 64.0991 65.4974H16.0328C12.2274 65.4974 9.1319 62.4014 9.1319 58.5959L9.13251 29.615C9.13251 25.8096 12.228 22.7135 16.0334 22.7135H24.7473V18.5767C24.7473 15.392 27.3379 12.8008 30.5226 12.8008H30.5229ZM53.4127 18.5767C53.4127 16.4797 51.7073 14.7743 49.611 14.7743H30.524C28.4277 14.7743 26.7223 16.4797 26.7223 18.5767V22.7135H29.6828V18.721C29.6828 18.1759 30.1244 17.7342 30.6696 17.7342L49.4648 17.7348C50.0099 17.7348 50.4516 18.1765 50.4516 18.7216V22.7141H53.412L53.4127 18.5767ZM31.6552 19.7084V22.714L48.4792 22.7134V19.7078L31.6552 19.7084ZM16.0342 24.6871C13.3172 24.6871 11.107 26.8974 11.107 29.6149V58.5959C11.107 61.3135 13.3174 63.5237 16.0342 63.5237L64.099 63.5243C66.816 63.5243 69.0261 61.314 69.0261 58.5965L69.0267 29.6155C69.0267 26.8979 66.8164 24.6877 64.0996 24.6877L16.0342 24.6871Z" fill="#302F7B" stroke="#302F7B" stroke-width="0.6"/>
<path d="M50.0093 48.0386H44.0004V54.0474C44.0004 54.5925 43.5587 55.0342 43.0136 55.0342H37.1182C36.573 55.0342 36.1313 54.5925 36.1313 54.0474V48.0386H30.1225C29.5774 48.0386 29.1357 47.5969 29.1357 47.0518V41.1563C29.1357 40.6112 29.5774 40.1695 30.1225 40.1695H36.1313V34.1606C36.1313 33.6155 36.573 33.1738 37.1182 33.1738H43.0136C43.5587 33.1738 44.0004 33.6155 44.0004 34.1606V40.1695L50.0093 40.1701C50.5544 40.1701 50.9961 40.6118 50.9961 41.1569V47.0524C50.9961 47.5969 50.5544 48.0386 50.0093 48.0386V48.0386ZM49.0225 42.1431H43.0136C42.4685 42.1431 42.0268 41.7014 42.0268 41.1563V35.1474H38.1051V41.1563C38.1051 41.7014 37.6634 42.1431 37.1183 42.1431H31.1094V46.0649H37.1183C37.6634 46.0649 38.1051 46.5065 38.1051 47.0517V53.0605H42.0268V47.0517C42.0268 46.5065 42.4685 46.0649 43.0136 46.0649L49.0225 46.0655V42.1431Z" fill="#302F7B" stroke="#302F7B" stroke-width="0.6"/>
</svg>
