<svg width="36" height="36" viewBox="0 0 36 36" fill="none" xmlns="http://www.w3.org/2000/svg">
<g clip-path="url(#clip0_1_1642)">
<path d="M35 25.3995L27.1 21.9995C26.4 21.6995 25.6 21.8995 25.1 22.4995L21.6 26.7995C16.1 24.1995 11.7 19.7995 9.1 14.2995L13.4 10.7995C14 10.2995 14.2 9.49952 13.9 8.79952L10.6 0.999518C10.3 0.299518 9.5 -0.200483 8.7 -0.0004825L1.3 1.69952C0.5 1.89952 0 2.59952 0 3.39952C0 21.3995 14.6 35.9995 32.6 35.9995C33.4 35.9995 34.1 35.4995 34.2 34.6995L35.9 27.3995C36.1 26.5995 35.7 25.7995 35 25.3995Z" fill="#302F7B"/>
</g>
<defs>
<clipPath id="clip0_1_1642">
<rect width="36" height="36" fill="white"/>
</clipPath>
</defs>
</svg>
