<svg width="80" height="80" viewBox="0 0 80 80" fill="none" xmlns="http://www.w3.org/2000/svg">
<path d="M50.0238 42.7546C40.9816 42.7546 33.626 35.5463 33.626 26.6875H36.1698C36.1698 34.1447 42.3849 40.2107 50.0238 40.2107C57.6629 40.2107 63.8777 34.1442 63.8777 26.6875H66.4215C66.4215 35.5468 59.0657 42.7546 50.0238 42.7546V42.7546Z" fill="#302F7B"/>
<path d="M66.4218 26.6865H63.8779V16.5985C63.8779 15.8165 63.2146 15.1806 62.3998 15.1806H58.2744V12.6367H62.3998C64.6178 12.6372 66.4218 14.4145 66.4218 16.5985V26.6865Z" fill="#302F7B"/>
<path d="M34.8978 71.0007C25.8556 71.0007 18.5 63.7924 18.5 54.9336H21.0439C21.0439 62.3908 27.2589 68.4568 34.8978 68.4568C42.5369 68.4568 48.7517 62.3903 48.7517 54.9336H51.2956C51.2951 63.7929 43.9392 71.0007 34.8978 71.0007V71.0007Z" fill="#302F7B"/>
<path d="M48.752 42.1543H51.2958V54.9322H48.752V42.1543Z" fill="#302F7B"/>
<path d="M18.5 44.8457H21.0439V54.9337H18.5V44.8457Z" fill="#302F7B"/>
<path d="M36.1698 26.6865H33.626V16.5985C33.626 14.4144 35.4301 12.6367 37.648 12.6367H41.7734V15.1806L37.648 15.1811C36.8331 15.1811 36.1698 15.8171 36.1698 16.599V26.6865Z" fill="#302F7B"/>
<path d="M42.2544 17.7504C41.5518 17.7504 40.9824 17.181 40.9824 16.4785V11.2719C40.9824 10.5694 41.5518 10 42.2544 10C42.9569 10 43.5263 10.5694 43.5263 11.2719V16.4785C43.5263 17.181 42.9569 17.7504 42.2544 17.7504Z" fill="#302F7B"/>
<path d="M57.518 17.7495C56.8155 17.7495 56.2461 17.1801 56.2461 16.4776V11.3774C56.2461 10.6749 56.8155 10.1055 57.518 10.1055C58.2206 10.1055 58.79 10.6749 58.79 11.3774V16.4776C58.79 17.1801 58.2206 17.7495 57.518 17.7495Z" fill="#302F7B"/>
<path d="M19.772 46.1167C16.0383 46.1167 13 43.1326 13 39.4648C13 35.7966 16.0383 32.8125 19.772 32.8125C23.5063 32.8125 26.5446 35.7966 26.5446 39.4648C26.5446 43.1326 23.5063 46.1167 19.772 46.1167V46.1167ZM19.772 35.3564C17.4403 35.3564 15.5439 37.1991 15.5439 39.4648C15.5439 41.7305 17.4403 43.5733 19.772 43.5733C22.1037 43.5733 24.0007 41.7305 24.0007 39.4648C24.0007 37.1991 22.1037 35.3564 19.772 35.3564Z" fill="#302F7B"/>
</svg>
