<svg width="83" height="80" viewBox="0 0 83 80" fill="none" xmlns="http://www.w3.org/2000/svg">
<path d="M31.5229 14H50.6099C53.7946 14 56.3852 16.5912 56.3852 19.7759V23.9127H65.0991C68.9045 23.9127 72 27.0087 72 30.8142V59.7951C72 63.6005 68.9045 66.6966 65.0991 66.6966H17.0328C13.2274 66.6966 10.1319 63.6006 10.1319 59.7951L10.1325 30.8142C10.1325 27.0088 13.228 23.9127 17.0334 23.9127H25.7473V19.7759C25.7473 16.5912 28.3379 14 31.5226 14H31.5229ZM54.4127 19.7759C54.4127 17.679 52.7073 15.9736 50.611 15.9736H31.524C29.4277 15.9736 27.7223 17.679 27.7223 19.7759V23.9127H30.6828V19.9202C30.6828 19.3751 31.1244 18.9334 31.6696 18.9334L50.4648 18.934C51.0099 18.934 51.4516 19.3757 51.4516 19.9208V23.9133H54.412L54.4127 19.7759ZM32.6552 20.9076V23.9133L49.4792 23.9126V20.907L32.6552 20.9076ZM17.0342 25.8863C14.3172 25.8863 12.107 28.0967 12.107 30.8141V59.7951C12.107 62.5127 14.3174 64.7229 17.0342 64.7229L65.099 64.7235C67.816 64.7235 70.0261 62.5132 70.0261 59.7957L70.0267 30.8148C70.0267 28.0971 67.8164 25.887 65.0996 25.887L17.0342 25.8863Z" fill="#209CD4" stroke="#209CD4" stroke-width="0.6"/>
<path d="M51.0095 49.2388H45.0007V55.2476C45.0007 55.7927 44.559 56.2344 44.0139 56.2344H38.1184C37.5733 56.2344 37.1316 55.7927 37.1316 55.2476V49.2388H31.1227C30.5776 49.2388 30.1359 48.7971 30.1359 48.252V42.3565C30.1359 41.8114 30.5776 41.3697 31.1227 41.3697H37.1316V35.3608C37.1316 34.8157 37.5733 34.374 38.1184 34.374H44.0139C44.559 34.374 45.0007 34.8157 45.0007 35.3608V41.3697L51.0095 41.3703C51.5547 41.3703 51.9963 41.812 51.9963 42.3571V48.2526C51.9963 48.7971 51.5547 49.2388 51.0095 49.2388V49.2388ZM50.0227 43.3433H44.0139C43.4687 43.3433 43.0271 42.9016 43.0271 42.3565V36.3476H39.1053V42.3565C39.1053 42.9016 38.6636 43.3433 38.1185 43.3433H32.1096V47.2651H38.1185C38.6636 47.2651 39.1053 47.7067 39.1053 48.2519V54.2607H43.0271V48.2519C43.0271 47.7067 43.4687 47.2651 44.0139 47.2651L50.0227 47.2657V43.3433Z" fill="#209CD4" stroke="#209CD4" stroke-width="0.6"/>
</svg>
