<svg width="64" height="53" viewBox="0 0 64 53" fill="none" xmlns="http://www.w3.org/2000/svg">
<path d="M63.8047 15.1409C63.1656 10.5557 60.7742 6.39709 57.134 3.53774C54.6355 1.5923 51.5651 0.525662 48.3985 0.502536C45.2319 0.479426 42.1469 1.50098 39.62 3.40961C37.9809 4.62024 36.6394 6.18854 35.6971 7.99523C34.7549 6.18841 33.4135 4.62011 31.7742 3.40961C29.2479 1.49993 26.1623 0.477257 22.9958 0.500384C19.8286 0.523494 16.7582 1.59127 14.2603 3.53774C10.62 6.39709 8.22872 10.5557 7.58952 15.1409C7.45769 16.0537 7.39256 16.9745 7.39361 17.8967C7.39309 19.2097 7.52964 20.5197 7.80013 21.8043C7.95612 22.5469 8.68407 23.0222 9.42678 22.8662C10.1689 22.7102 10.6442 21.9818 10.4882 21.2396C10.265 20.1393 10.1563 19.0189 10.1647 17.8966C10.1652 17.1077 10.2235 16.3204 10.3375 15.54C10.8801 11.6739 12.8953 8.16698 15.9621 5.75148C17.9868 4.17216 20.4758 3.30506 23.0436 3.28448C25.6109 3.264 28.1135 4.09174 30.1629 5.63854C31.7122 6.76828 32.9209 8.30238 33.6566 10.0734C33.7244 10.2389 33.7695 10.3744 33.8147 10.5099C34.0075 11.0367 34.4087 11.4611 34.924 11.6832C35.4392 11.9049 36.0227 11.9049 36.538 11.6832C37.0532 11.4611 37.4545 11.0367 37.6472 10.5099C37.6924 10.3817 37.7376 10.2462 37.8053 10.0881C38.5396 8.31494 39.7486 6.7777 41.299 5.64585C43.3484 4.09907 45.851 3.2719 48.4183 3.2918C50.9862 3.31228 53.4751 4.17942 55.4999 5.7588C58.5667 8.1743 60.5819 11.6812 61.1244 15.5473C61.2384 16.3278 61.2967 17.1156 61.2972 17.9039C61.3172 21.7238 59.9406 25.4188 57.4275 28.2948H41.1865L39.176 22.3919C38.9659 21.8389 38.4297 21.4791 37.8383 21.4943C37.2469 21.5096 36.7295 21.8967 36.5483 22.4597L33.1974 33.1516L30.0503 15.0807V14.6291L30.0125 14.5687V14.5161L29.7415 14.4631V14.41L29.7037 14.3649L29.6512 14.3124H29.6134L29.5456 14.2598H29.5078L29.44 14.2147H28.0246L27.9569 14.2598H27.9117L27.8513 14.305L27.8061 14.3428L27.761 14.388L27.7158 14.4405V14.4857L27.6706 14.5461V14.5912L27.6255 14.659V14.9752L24.0866 28.28L1.37024 28.2795C0.613401 28.2795 0 28.8929 0 29.6497C0 30.4065 0.613455 31.0205 1.37024 31.0205H25.4648L25.5703 30.968H25.6081L25.6759 30.9302H25.7137L25.7741 30.885L25.8419 30.8246L25.917 30.7416C25.9711 30.676 26.0189 30.6056 26.0598 30.531V30.2521L28.2657 21.9694L31.2773 39.4459V39.8146L31.3224 39.8898L31.3749 39.9575L31.4275 40.0179V40.0557L31.48 40.1009L31.5252 40.1387L31.5856 40.1839L31.6685 40.2443H31.97L32.1507 40.2894H32.7983L32.8886 40.2443L33.5063 40.124L33.574 40.0862H33.6192L33.6796 40.041H33.7174L33.7852 39.9885C33.8461 39.9307 33.9013 39.8677 33.9506 39.7999L34.0032 39.717L34.041 39.6419V39.4764L37.8057 27.3387L38.7847 30.2074C38.8078 30.2699 38.8357 30.3303 38.8672 30.3881C38.8987 30.4432 38.9339 30.4963 38.9728 30.5462L39.093 30.6817L39.2212 30.7873L39.3793 30.885L39.5526 30.9527L39.7333 30.9979H39.9518L54.7016 30.9984C53.9484 31.7516 53.2557 32.5042 52.5556 33.2574L38.1822 48.5639L38.0845 48.6768H38.084C37.5488 49.431 36.6896 49.8885 35.7652 49.9121H35.637C34.7137 49.8974 33.8518 49.4478 33.3103 48.6999L33.2126 48.587L22.2119 36.8631C21.694 36.31 20.8264 36.2817 20.2733 36.799C19.7203 37.3169 19.6914 38.1851 20.2093 38.7381L31.1569 50.3939C32.2131 51.804 33.8676 52.6397 35.6297 52.6529H35.7652C37.5273 52.6397 39.1818 51.8041 40.2381 50.3939L54.5885 35.1385C55.7629 33.8885 56.9903 32.6463 58.1879 31.4415L58.888 30.7335V30.734C62.2001 27.2844 64.0341 22.6782 64.0005 17.8962C64.0015 16.9739 63.9364 16.0532 63.8046 15.1403L63.8047 15.1409Z" fill="#302F7B"/>
</svg>
