<svg width="447" height="117" viewBox="0 0 447 117" fill="none" xmlns="http://www.w3.org/2000/svg">
<path d="M9.68118 0C10.2765 6.08795 9.83002 12.1901 9.92215 18.278C10.0001 23.6502 9.93633 29.0294 9.93633 35.2803C20.0498 23.473 32.2966 18.604 47.031 20.5459C55.6845 21.687 63.0553 25.5495 69.0369 31.9281C68.8739 32.2966 68.6471 32.7502 68.2715 32.7927C64.2388 33.2463 60.3621 34.7559 56.2302 34.5078C47.6901 29.8728 38.746 28.4128 29.4971 31.9281C19.2419 35.819 12.6933 43.1543 10.7514 54.019C8.41257 67.0737 12.2326 77.9456 23.1611 85.9613C26.0173 88.0591 29.3908 89.193 32.6297 90.5609C34.7346 93.9557 37.0025 97.2654 38.1081 101.17C21.283 100.441 4.71302 90.4262 0.630765 69.0723C0.212618 66.9036 0 64.7349 0 62.5166C0.0212618 41.6801 0 20.8365 0 0H9.68118Z" fill="#395382"/>
<path d="M44.4866 75.3295C65.4649 75.3011 86.4361 75.3153 107.414 75.3153C111.062 75.3153 112.786 73.5057 112.588 69.8865C111.319 42.2958 81.4821 26.3849 56.4074 33.9116C34.5786 41.1406 21.4318 70.2763 32.5375 90.8718C43.2605 122.793 92.0421 125.989 108.024 96.8818C110.405 92.9909 110.334 92.9484 106.316 90.7442C101.737 88.2283 101.702 88.207 98.697 92.6082C83.7642 117.279 42.5093 109.547 40.5603 79.7094C40.2059 74.7341 39.3555 75.3436 44.4866 75.3366V75.3295ZM52.7929 48.0719C68.2714 37.0725 96.7976 41.9769 100.993 65.9318L100.944 64.1741C101.227 65.0317 101.263 65.5916 100.993 65.9318C100.724 66.279 100.15 66.4066 99.2285 66.3924C80.8867 66.3287 62.5449 66.3145 44.196 66.3924C36.6056 66.5129 50.5108 48.5893 52.7858 48.0648L52.7929 48.0719Z" fill="#62B5E5"/>
<path d="M227.068 78.1148C227.068 86.3361 227.005 92.4807 227.104 98.6253C227.132 100.44 226.593 101.021 224.737 101.028C219.315 101.049 219.379 101.127 219.301 95.6416C219.145 84.38 219.747 73.1183 218.861 61.8638C218.188 53.3449 214.432 49.3123 205.977 48.0365C200.243 47.1719 194.8 47.746 189.789 50.8785C185.686 53.437 183.857 57.0586 183.297 61.9205C181.88 74.1814 182.482 86.4636 182.376 98.7316C182.362 100.631 181.731 101.028 179.974 101.021C174.488 101.014 174.502 101.085 174.488 95.6416C174.474 87.1723 174.488 78.696 174.403 70.2267C174.36 66.2862 174.849 62.4237 175.7 58.6107C178.081 47.9657 186.203 40.9564 197.337 39.8862C201.157 39.5177 205.013 39.2767 208.797 40.1059C219.669 42.466 225.778 49.9005 226.629 61.4882C227.09 67.7178 227.09 73.9475 227.061 78.1078" fill="#646566"/>
<path d="M294.199 61.0413C294.114 65.4921 294.22 71.2611 294.575 77.0231C295.12 85.7546 300.202 91.5661 308.813 93.2671C318.806 95.2302 328.033 90.0778 330.223 81.1833C330.939 78.2917 331.095 75.3009 331.102 72.31C331.109 62.2532 331.18 52.1964 331.088 42.1396C331.067 40.1481 331.683 39.6591 333.611 39.6803C339.061 39.737 339.068 39.652 339.054 45.0383C339.026 54.7195 338.997 64.4078 338.941 74.0889C338.92 77.3633 338.409 80.588 337.573 83.7347C334.766 94.3089 326.807 100.191 314.249 101.049C300.4 101.999 290.138 94.6065 287.48 81.7219C286.63 77.6042 286.445 73.4015 286.403 69.22C286.311 60.1908 286.424 51.1546 286.311 42.1254C286.283 40.0843 287.005 39.6662 288.884 39.6874C294.199 39.737 294.199 39.6591 294.199 44.9036V61.0342V61.0413Z" fill="#646566"/>
<path d="M258.855 38.1719C263.327 38.2427 268.338 41.2832 272.923 45.33C273.802 46.1025 273.731 46.6341 272.923 47.2861C272.852 47.3428 272.788 47.4207 272.732 47.4845C269.408 51.2337 269.436 51.1982 265.326 48.42C261.817 46.0529 258.054 44.4937 253.724 45.9253C247.806 47.8885 245.977 54.0473 249.833 58.9092C251.98 61.6165 254.971 63.204 257.926 64.7987C261.378 66.6626 264.865 68.4486 267.912 70.9646C273.504 75.5784 275.099 81.5175 273.263 88.2787C271.414 95.0825 266.693 99.3419 259.79 100.611C251.945 102.049 245.014 99.8168 239.301 94.1115C238.224 93.0343 238.011 92.1909 239.28 91.2058C239.351 91.1491 239.408 91.0711 239.464 91.0002C242.597 87.3999 242.576 87.4212 246.311 90.2844C250.79 93.7147 255.701 95.0116 260.96 92.3823C267.834 88.9379 268.508 80.8442 262.448 76.1595C259.854 74.1468 256.927 72.6726 254.036 71.163C251.548 69.8661 249.138 68.4415 246.948 66.6768C241.25 62.0772 239.245 55.1317 241.683 48.3846C243.922 42.1903 249.897 38.2002 258.855 38.1719Z" fill="#646566"/>
<path d="M149.321 60.531C149.321 47.8803 149.378 35.2366 149.265 22.5859C149.243 20.318 149.952 19.7722 152.114 19.8148C157.55 19.9211 157.557 19.8218 157.557 25.194C157.557 49.4678 157.521 73.7417 157.613 98.0155C157.62 100.368 156.983 100.971 154.672 100.9C149.321 100.737 149.314 100.865 149.314 95.4074V60.531H149.321Z" fill="#646566"/>
<path d="M353.002 81.5048C353.391 76.2602 352.087 69.7683 353.625 63.4748C356.127 53.2763 361.336 45.0054 371.513 40.661C374.972 39.1868 378.374 39.0734 381.776 40.746C382.258 40.987 382.917 41.2634 383.08 41.6886C383.526 42.8155 379.239 47.8049 377.977 47.6419C374.866 47.2521 372.314 48.3435 370.046 50.3705C364.731 55.1119 361.747 60.888 361.315 68.1099C360.72 78.0604 360.932 88.0038 360.946 97.9472C360.946 100.187 360.507 100.995 358.083 100.903C352.994 100.718 352.994 100.86 352.994 95.7573V81.4977L353.002 81.5048Z" fill="#646566"/>
<path d="M447 68.142C446.22 47.6811 427.737 33.9602 407.8 39.1481C392.775 43.0603 383.123 58.3262 385.461 74.4993C387.368 87.7029 396.532 97.7384 409.09 100.375C423.002 103.295 436.008 98.0502 443.144 86.6327C445.285 83.2095 445.186 83.3725 441.784 81.2747C439.36 79.7864 437.836 79.9423 436.653 82.6C436.284 83.4292 435.604 84.1309 435.03 84.8609C429.048 92.4726 418.396 95.8461 409.111 93.0679C400.189 90.4031 394.115 82.437 393.193 72.5007C393.009 70.5375 393.569 70.1336 395.391 70.1477C403.527 70.2257 411.663 70.1832 419.799 70.1832C427.935 70.1832 436.447 70.1548 444.767 70.2044C446.312 70.2115 447.064 70.0698 446.993 68.1279L447 68.142ZM436.504 63.5566C422.747 63.4928 408.998 63.5211 395.242 63.507C394.887 63.507 394.54 63.3723 394.186 63.2944C396.404 52.8619 404.484 46.0582 415.157 45.555C425.582 45.0659 434.81 51.4232 437.872 61.1398C438.311 62.5431 438.786 63.5637 436.504 63.5495V63.5566Z" fill="#646566"/>
</svg>
