<svg width="148" height="101" viewBox="0 0 148 101" fill="none" xmlns="http://www.w3.org/2000/svg">
<path d="M22.1637 96.4782H19.4128L18.8898 98.0583H17.2216L20.0561 90.3898H21.51L24.3602 98.0583H22.6919L22.1637 96.4782ZM19.8364 95.1984H21.7401L20.783 92.3279L19.8364 95.1984ZM30.1756 91.6697H27.8431V98.0583H26.2743V91.6697H23.9732V90.3898H30.1756V91.6697ZM35.6564 94.7349H32.6441V96.789H36.1794V98.0583H31.0752V90.3898H36.1689V91.6697H32.6441V93.4972H35.6564V94.7349ZM43.2918 98.0583H41.7229L38.6688 93.0127V98.0583H37.0999V90.3898H38.6688L41.7282 95.4459V90.3898H43.2918V98.0583ZM50.6396 95.5038C50.5804 96.329 50.277 96.9785 49.7297 97.4525C49.1858 97.9266 48.4675 98.1632 47.5751 98.1632C46.5988 98.1632 45.83 97.8335 45.2687 97.1735C44.7109 96.5098 44.4319 95.6004 44.4319 94.4452V93.9765C44.4319 93.2391 44.5609 92.5895 44.8189 92.0278C45.077 91.466 45.4447 91.0358 45.9224 90.7374C46.4035 90.4354 46.9614 90.2845 47.596 90.2845C48.4745 90.2845 49.1823 90.5215 49.7192 90.9955C50.2561 91.4695 50.5664 92.1348 50.6501 92.9916H49.0812C49.0429 92.4965 48.9051 92.1384 48.668 91.9172C48.4344 91.6924 48.0771 91.5801 47.596 91.5801C47.0729 91.5801 46.6807 91.7697 46.4193 92.1489C46.1613 92.5246 46.0287 93.1093 46.0218 93.9027V94.4821C46.0218 95.3108 46.1456 95.9165 46.3931 96.2992C46.6441 96.6819 47.0381 96.8732 47.5751 96.8732C48.0597 96.8732 48.4205 96.7626 48.6576 96.5414C48.8982 96.3167 49.0359 95.9709 49.0707 95.5038H50.6396ZM53.3382 98.0583H51.7693V90.3898H53.3382V98.0583ZM61.0521 94.3978C61.0521 95.1527 60.9196 95.8146 60.6547 96.3834C60.3896 96.9523 60.0096 97.3912 59.5146 97.7001C59.023 98.0091 58.4581 98.1632 57.8201 98.1632C57.189 98.1632 56.6259 98.0109 56.1309 97.7053C55.6358 97.3999 55.2523 96.9645 54.9803 96.3992C54.7084 95.8304 54.5707 95.1773 54.5672 94.44V94.0607C54.5672 93.3059 54.7015 92.6422 54.9699 92.0699C55.2418 91.494 55.6236 91.0534 56.1152 90.7479C56.6103 90.4389 57.1751 90.2845 57.8096 90.2845C58.4442 90.2845 59.0073 90.4389 59.4989 90.7479C59.9939 91.0534 60.3757 91.494 60.6441 92.0699C60.9161 92.6422 61.0521 93.3041 61.0521 94.0555V94.3978ZM59.4623 94.0502C59.4623 93.2461 59.3193 92.6352 59.0334 92.2174C58.7475 91.7996 58.3396 91.5906 57.8096 91.5906C57.2832 91.5906 56.877 91.7978 56.5911 92.2121C56.3052 92.6229 56.1605 93.2268 56.157 94.0238V94.3978C56.157 95.1808 56.2999 95.7883 56.5859 96.2202C56.8718 96.652 57.2832 96.8679 57.8201 96.8679C58.3465 96.8679 58.751 96.6608 59.0334 96.2464C59.3158 95.8286 59.4588 95.2212 59.4623 94.4241V94.0502ZM58.1129 88.3358H59.7603L58.3117 89.9684H57.0827L58.1129 88.3358ZM68.3841 98.0583H66.8152L63.7611 93.0127V98.0583H62.1922V90.3898H63.7611L66.8205 95.4459V90.3898H68.3841V98.0583ZM74.0898 98.0583H72.5209V90.3898H74.0898V98.0583ZM81.741 98.0583H80.1721L77.1179 93.0127V98.0583H75.5489V90.3898H77.1179L80.1773 95.4459V90.3898H81.741V98.0583ZM85.1612 90.3898L87.1172 95.9516L89.0627 90.3898H91.1232V98.0583H89.549V95.9621L89.7059 92.3438L87.6506 98.0583H86.5732L84.5232 92.349L84.6801 95.9621V98.0583H83.1111V90.3898H85.1612ZM97.0746 94.7349H94.0622V96.789H97.5976V98.0583H92.4933V90.3898H97.5871V91.6697H94.0622V93.4972H97.0746V94.7349ZM98.518 98.0583V90.3898H100.861C101.53 90.3898 102.128 90.5425 102.655 90.848C103.185 91.15 103.598 91.5818 103.894 92.1437C104.191 92.7019 104.339 93.3374 104.339 94.0502V94.4031C104.339 95.1158 104.192 95.7497 103.899 96.3044C103.61 96.8592 103.2 97.2893 102.67 97.5947C102.141 97.9003 101.543 98.0547 100.877 98.0583H98.518ZM100.087 91.6697V96.789H100.845C101.459 96.789 101.928 96.5871 102.252 96.1833C102.576 95.7795 102.742 95.2019 102.749 94.4505V94.0449C102.749 93.2655 102.589 92.6755 102.268 92.2753C101.947 91.8716 101.478 91.6697 100.861 91.6697H100.087ZM107.152 98.0583H105.583V90.3898H107.152V98.0583ZM113.004 96.4782H110.254L109.731 98.0583H108.062L110.897 90.3898H112.351L115.201 98.0583H113.533L113.004 96.4782ZM110.677 95.1984H112.581L111.624 92.3279L110.677 95.1984ZM121.017 91.6697H118.684V98.0583H117.115V91.6697H114.814V90.3898H121.017V91.6697ZM125.587 96.4782H122.837L122.314 98.0583H120.645L123.479 90.3898H124.934L127.784 98.0583H126.115L125.587 96.4782ZM123.26 95.1984H125.164L124.207 92.3279L123.26 95.1984Z" fill="#555555"/>
<path fill-rule="evenodd" clip-rule="evenodd" d="M32.357 39.6248C31.8551 39.6248 31.4269 39.8019 31.0726 40.1561C30.7183 40.5103 30.5411 40.9383 30.5411 41.4401C30.5411 41.9419 30.7183 42.3699 31.0726 42.7241C31.4269 43.0783 31.8551 43.2554 32.357 43.2554C32.859 43.2554 33.2872 43.0783 33.6415 42.7241C33.9958 42.3699 34.173 41.9419 34.173 41.4401C34.173 40.9383 33.9958 40.5103 33.6415 40.1561C33.2872 39.8019 32.859 39.6248 32.357 39.6248ZM35.8363 54.782H38.9662V39H35.8363V54.782ZM48.6069 49.7099C48.6069 48.9425 48.3855 48.3275 47.9475 47.8503C47.5095 47.3781 46.8943 47.1419 46.0971 47.1419C45.2999 47.1419 44.6896 47.3781 44.2467 47.8503C43.8087 48.3226 43.5873 48.9425 43.5873 49.7099C43.5873 50.4774 43.8087 51.0973 44.2467 51.5696C44.6847 52.0418 45.2999 52.278 46.0971 52.278C46.8943 52.278 47.5046 52.0418 47.9475 51.5696C48.3855 51.0973 48.6069 50.4774 48.6069 49.7099ZM51.2988 47.5158C51.5892 48.1701 51.7368 48.9031 51.7368 49.7099C51.7368 50.5168 51.5892 51.2498 51.2988 51.9041C51.0085 52.5584 50.6049 53.1192 50.098 53.5866C49.5912 54.0539 48.9908 54.4131 48.3018 54.664C47.6128 54.9149 46.8796 55.0379 46.0971 55.0379C45.3146 55.0379 44.5814 54.9149 43.8924 54.664C43.2034 54.4131 42.603 54.0539 42.0961 53.5866C41.5893 53.1192 41.1857 52.5584 40.8954 51.9041C40.605 51.2498 40.4574 50.5217 40.4574 49.7099C40.4574 48.8982 40.605 48.1701 40.8954 47.5158C41.1857 46.8615 41.5893 46.3007 42.0961 45.8333C42.603 45.3659 43.2034 45.0068 43.8924 44.7559C44.5814 44.505 45.3146 44.382 46.0971 44.382C46.8796 44.382 47.6128 44.505 48.3018 44.7559C48.9908 45.0068 49.5912 45.3659 50.098 45.8333C50.6049 46.3007 51.0085 46.8615 51.2988 47.5158ZM59.4434 44.387C58.7496 44.387 58.1688 44.5444 57.7112 44.8543C57.2535 45.1692 56.8549 45.6365 56.5202 46.2613H56.4809V44.6329H53.351V54.7771H56.4809V50.5414C56.4809 50.0396 56.5104 49.582 56.5645 49.1639C56.6187 48.7457 56.7417 48.3866 56.9287 48.0914C57.1157 47.7913 57.3864 47.5601 57.7309 47.3928C58.0803 47.2256 58.5527 47.1419 59.1531 47.1419C59.3893 47.1419 59.6157 47.1616 59.8322 47.196C60.0488 47.2305 60.2653 47.2846 60.4917 47.3535V44.4952C60.3391 44.4558 60.1718 44.4263 59.9897 44.4115C59.8076 44.3968 59.6255 44.3919 59.4484 44.3919L59.4434 44.387ZM30.7921 54.782H33.922V44.6378H30.7921V54.782ZM3.25785 48.7703H9.6702V45.7644H3.25785V43.0095H10.0442V40.0036H0V54.782H10.4182V51.7762H3.25785V48.7703ZM18.6219 49.2524C18.2233 49.031 17.8001 48.8638 17.3473 48.7605C16.8946 48.6572 16.4713 48.5588 16.0727 48.4702C15.6741 48.3817 15.3493 48.2734 15.0934 48.1554C14.8375 48.0373 14.7095 47.8503 14.7095 47.6044C14.7095 47.2993 14.8326 47.0829 15.0835 46.955C15.3345 46.832 15.5904 46.768 15.8562 46.768C16.6091 46.768 17.2144 47.0534 17.6721 47.624L19.5914 45.7251C19.119 45.2233 18.5382 44.874 17.8591 44.6821C17.1751 44.4853 16.5009 44.3919 15.8316 44.3919C15.3001 44.3919 14.7784 44.4558 14.2666 44.5887C13.7499 44.7215 13.2971 44.9281 12.8985 45.2036C12.4999 45.484 12.18 45.8382 11.9389 46.2662C11.6928 46.6992 11.5747 47.2108 11.5747 47.811C11.5747 48.4505 11.7027 48.9622 11.9586 49.3459C12.2145 49.7296 12.5442 50.0248 12.9379 50.2314C13.3365 50.438 13.7597 50.5955 14.2125 50.6988C14.6652 50.8021 15.0885 50.9005 15.4871 50.989C15.8857 51.0776 16.2105 51.1907 16.4664 51.3236C16.7223 51.4564 16.8552 51.6532 16.8552 51.9188C16.8552 52.1993 16.7076 52.3862 16.4172 52.4944C16.1268 52.5977 15.7971 52.6519 15.4379 52.6519C14.9654 52.6519 14.5521 52.5584 14.1977 52.3714C13.8434 52.1845 13.5186 51.909 13.2282 51.545L11.3287 53.6555C11.8306 54.172 12.4409 54.5311 13.1643 54.7279C13.8877 54.9296 14.6062 55.0329 15.3148 55.0329C15.8562 55.0329 16.4074 54.9788 16.9635 54.8755C17.5196 54.7722 18.0215 54.5902 18.4693 54.3344C18.9123 54.0785 19.2813 53.7342 19.5668 53.3111C19.8522 52.888 19.9949 52.3468 19.9949 51.6925C19.9949 51.0382 19.867 50.5414 19.6062 50.1576C19.3502 49.7739 19.0205 49.4738 18.6268 49.2475L18.6219 49.2524ZM27.9033 49.2524C27.5047 49.031 27.0815 48.8638 26.6287 48.7605C26.176 48.6572 25.7528 48.5588 25.3541 48.4702C24.9555 48.3817 24.6307 48.2734 24.3748 48.1554C24.1189 48.0373 23.991 47.8503 23.991 47.6044C23.991 47.2993 24.114 47.0829 24.365 46.955C24.616 46.832 24.8719 46.768 25.1376 46.768C25.8906 46.768 26.4959 47.0534 26.9535 47.624L28.8728 45.7251C28.4004 45.2233 27.8197 44.874 27.1405 44.6821C26.4565 44.4853 25.7823 44.3919 25.113 44.3919C24.5815 44.3919 24.0599 44.4558 23.548 44.5887C23.0313 44.7215 22.5786 44.9281 22.18 45.2036C21.7813 45.484 21.4615 45.8382 21.2203 46.2662C20.9743 46.6992 20.8561 47.2108 20.8561 47.811C20.8561 48.4505 20.9841 48.9622 21.24 49.3459C21.4959 49.7296 21.8256 50.0248 22.2193 50.2314C22.6179 50.438 23.0412 50.5955 23.4939 50.6988C23.9467 50.8021 24.3699 50.9005 24.7685 50.989C25.1671 51.0776 25.4919 51.1907 25.7478 51.3236C26.0037 51.4564 26.1317 51.6532 26.1317 51.9188C26.1317 52.1993 25.9841 52.3862 25.6937 52.4944C25.4034 52.5977 25.0736 52.6519 24.7144 52.6519C24.2419 52.6519 23.8286 52.5584 23.4742 52.3714C23.1199 52.1845 22.7951 51.909 22.5048 51.545L20.6052 53.6555C21.1071 54.172 21.7174 54.5311 22.4408 54.7279C23.1642 54.9296 23.8827 55.0329 24.5914 55.0329C25.1327 55.0329 25.6839 54.9788 26.24 54.8755C26.7961 54.7722 27.298 54.5902 27.7459 54.3344C28.1888 54.0785 28.5579 53.7342 28.8433 53.3111C29.1287 52.888 29.2714 52.3468 29.2714 51.6925C29.2714 51.0382 29.1435 50.5414 28.8827 50.1576C28.6268 49.7739 28.297 49.4738 27.9033 49.2475V49.2524ZM102.957 49.7099C102.957 48.9425 102.735 48.3275 102.297 47.8503C101.859 47.3781 101.244 47.1419 100.447 47.1419C99.6498 47.1419 99.0396 47.3781 98.6016 47.8503C98.1636 48.3226 97.9422 48.9425 97.9422 49.7099C97.9422 50.4774 98.1636 51.0924 98.6016 51.5696C99.0396 52.0418 99.6548 52.278 100.447 52.278C101.239 52.278 101.855 52.0418 102.297 51.5696C102.735 51.0973 102.957 50.4774 102.957 49.7099ZM105.649 47.5158C105.939 48.1701 106.087 48.9031 106.087 49.7099C106.087 50.5168 105.939 51.2498 105.649 51.9041C105.358 52.5584 104.955 53.1192 104.448 53.5866C103.941 54.0539 103.341 54.4131 102.652 54.664C101.963 54.9149 101.23 55.0379 100.447 55.0379C99.6646 55.0379 98.9313 54.9149 98.2424 54.664C97.5534 54.4131 96.953 54.0539 96.4461 53.5866C95.9392 53.1192 95.5357 52.5584 95.2453 51.9041C94.955 51.2498 94.8074 50.5217 94.8074 49.7099C94.8074 48.8982 94.955 48.1701 95.2453 47.5158C95.5357 46.8615 95.9392 46.3007 96.4461 45.8333C96.953 45.3659 97.5534 45.0068 98.2424 44.7608C98.9313 44.5099 99.6646 44.387 100.447 44.387C101.23 44.387 101.963 44.5099 102.652 44.7608C103.341 45.0117 103.941 45.3709 104.448 45.8333C104.955 46.3007 105.358 46.8615 105.649 47.5158ZM119.044 41.6271H115.91V44.6329H111.599V41.632H108.469V44.6378H106.466V47.3781H108.469V51.9631C108.469 52.519 108.562 52.9913 108.749 53.3849C108.936 53.7735 109.197 54.0933 109.532 54.3344C109.866 54.5803 110.255 54.7574 110.703 54.8657C111.151 54.9788 111.638 55.0329 112.165 55.0329C112.524 55.0329 112.898 55.0133 113.272 54.969C113.646 54.9296 114.01 54.846 114.359 54.7181V52.1107C114.222 52.2337 114.015 52.3173 113.744 52.3518C113.474 52.3862 113.252 52.4059 113.085 52.4059C112.75 52.4059 112.484 52.3616 112.283 52.2681C112.081 52.1796 111.928 52.0468 111.835 51.8844C111.736 51.7171 111.672 51.5204 111.648 51.2891C111.618 51.0579 111.608 50.807 111.608 50.5266V47.383H115.919V51.968C115.919 52.524 116.013 52.9962 116.2 53.3898C116.387 53.7784 116.648 54.0982 116.982 54.3393C117.317 54.5853 117.706 54.7624 118.154 54.8706C118.601 54.9837 119.089 55.0379 119.615 55.0379C119.979 55.0379 120.348 55.0182 120.723 54.9739C121.097 54.9346 121.461 54.8509 121.81 54.723V52.1156C121.672 52.2386 121.466 52.3222 121.195 52.3567C120.924 52.3911 120.703 52.4108 120.536 52.4108C120.201 52.4108 119.935 52.3665 119.733 52.2731C119.532 52.1845 119.379 52.0517 119.286 51.8893C119.187 51.7221 119.123 51.5253 119.099 51.2941C119.069 51.0628 119.059 50.8119 119.059 50.5315V47.3879H121.815V44.6477H119.059V41.632L119.044 41.6271ZM133.641 47.137C133.961 47.137 134.261 47.2108 134.536 47.3584C134.817 47.506 135.029 47.688 135.186 47.9094L137.253 45.7398C136.766 45.238 136.19 44.8887 135.53 44.687C134.871 44.4853 134.241 44.382 133.641 44.382C132.863 44.382 132.125 44.505 131.436 44.7559C130.747 45.0068 130.147 45.3659 129.64 45.8333C129.133 46.3007 128.729 46.8615 128.439 47.5158C128.149 48.1701 128.001 48.9031 128.001 49.7099C128.001 50.5168 128.149 51.2498 128.439 51.9041C128.729 52.5584 129.133 53.1192 129.64 53.5866C130.147 54.0539 130.747 54.4131 131.436 54.664C132.125 54.9149 132.858 55.0379 133.641 55.0379C134.241 55.0379 134.871 54.9346 135.53 54.7328C136.19 54.5311 136.766 54.1819 137.253 53.6801L135.186 51.5105C135.004 51.7171 134.787 51.8992 134.536 52.0517C134.285 52.2042 133.985 52.2829 133.641 52.2829C132.848 52.2829 132.233 52.0468 131.79 51.5745C131.352 51.1022 131.131 50.4823 131.131 49.7149C131.131 48.9474 131.352 48.3325 131.79 47.8553C132.228 47.383 132.843 47.1468 133.641 47.1468V47.137ZM124.989 39.6248C124.487 39.6248 124.059 39.8019 123.705 40.1561C123.35 40.5103 123.173 40.9383 123.173 41.4401C123.173 41.9419 123.35 42.3699 123.705 42.7241C124.059 43.0783 124.487 43.2554 124.989 43.2554C125.491 43.2554 125.919 43.0783 126.274 42.7241C126.628 42.3699 126.805 41.9419 126.805 41.4401C126.805 40.9383 126.628 40.5103 126.274 40.1561C125.919 39.8019 125.491 39.6248 124.989 39.6248ZM123.424 54.782H126.554V44.6378H123.424V54.782ZM94.8713 44.6378H91.3822L89.6499 47.3928L87.8537 44.6378H84.1578L87.5387 49.3557L83.5279 54.782H87.1844L89.5663 51.4023L91.7808 54.782H95.4766L91.5741 49.3557L94.8713 44.6378ZM144.753 50.3347H143.98C143.744 50.3347 143.449 50.3446 143.094 50.3643C142.74 50.3839 142.4 50.443 142.071 50.5414C141.741 50.6397 141.465 50.7873 141.234 50.9792C141.003 51.176 140.89 51.4466 140.89 51.7909C140.89 52.1648 141.047 52.4452 141.372 52.6273C141.692 52.8093 142.026 52.8978 142.376 52.8978C142.681 52.8978 142.976 52.8585 143.262 52.7749C143.547 52.6912 143.803 52.5731 144.025 52.4206C144.246 52.2681 144.423 52.0713 144.556 51.8352C144.689 51.5991 144.753 51.3187 144.753 50.9989V50.3298V50.3347ZM147.637 49.6263V54.782H144.753V53.5079H144.713C144.364 54.049 143.901 54.4426 143.326 54.6787C142.75 54.9149 142.14 55.0329 141.5 55.0329C141.027 55.0329 140.57 54.969 140.132 54.8362C139.694 54.7033 139.305 54.5065 138.975 54.2409C138.641 53.9752 138.375 53.6505 138.183 53.2619C137.986 52.8732 137.893 52.4206 137.893 51.9041C137.893 51.3187 138.001 50.8267 138.217 50.4233C138.434 50.0199 138.724 49.6853 139.093 49.4197C139.463 49.154 139.886 48.9523 140.358 48.8047C140.831 48.6572 141.323 48.5489 141.83 48.48C142.337 48.4112 142.843 48.3669 143.355 48.3571C143.862 48.3423 144.335 48.3374 144.763 48.3374C144.763 47.7815 144.566 47.3387 144.167 47.014C143.769 46.6893 143.301 46.5221 142.76 46.5221C142.218 46.5221 141.776 46.6303 141.352 46.8467C140.929 47.0632 140.55 47.3584 140.215 47.7323L138.547 46.0203C139.133 45.4791 139.812 45.0708 140.594 44.8002C141.372 44.5296 142.184 44.3919 143.016 44.3919C143.936 44.3919 144.689 44.505 145.279 44.7362C145.87 44.9675 146.342 45.302 146.702 45.7497C147.056 46.1974 147.302 46.7434 147.445 47.3879C147.583 48.0373 147.651 48.7851 147.651 49.6312L147.637 49.6263ZM65.1324 40.0036H61.8745V54.782H71.1658V51.7762H65.1324V40.0036ZM79.2071 44.6378H82.337V54.782H79.3301V53.4046H79.2907C79.1775 53.6013 79.0348 53.7932 78.8626 53.99C78.6903 54.1868 78.4787 54.359 78.2278 54.5115C77.9768 54.664 77.6913 54.7919 77.3715 54.8854C77.0516 54.9837 76.7022 55.0329 76.3282 55.0329C75.5358 55.0329 74.8912 54.91 74.399 54.6689C73.9069 54.4278 73.5231 54.0884 73.2524 53.6555C72.9817 53.2225 72.7996 52.7158 72.7111 52.1304C72.6225 51.545 72.5733 50.9103 72.5733 50.2314V44.6378H75.7032V49.6066C75.7032 49.8969 75.713 50.2019 75.7327 50.5168C75.7524 50.8316 75.8164 51.1169 75.9197 51.3826C76.023 51.6483 76.1854 51.8647 76.402 52.032C76.6185 52.1993 76.9286 52.2829 77.3321 52.2829C77.7356 52.2829 78.0654 52.2091 78.3114 52.0615C78.5624 51.9139 78.7543 51.7221 78.8872 51.4761C79.0201 51.235 79.1087 50.9595 79.148 50.6496C79.1874 50.3446 79.212 50.0248 79.212 49.6903V44.6378H79.2071Z" fill="black"/>
</svg>
