<svg width="148" height="101" viewBox="0 0 148 101" fill="none" xmlns="http://www.w3.org/2000/svg">
<path d="M20.2871 96.4782H17.5331L17.0096 98.0583H15.3394L18.1771 90.3898H19.6326L22.4861 98.0583H20.8159L20.2871 96.4782ZM17.9572 95.1984H19.863L18.9049 92.3279L17.9572 95.1984ZM28.3081 91.6697H25.973V98.0583H24.4023V91.6697H22.0986V90.3898H28.3081V91.6697ZM33.7951 94.7349H30.7794V96.789H34.3188V98.0583H29.2087V90.3898H34.3083V91.6697H30.7794V93.4972H33.7951V94.7349ZM41.4392 98.0583H39.8686L36.8109 93.0127V98.0583H35.2402V90.3898H36.8109L39.8738 95.4459V90.3898H41.4392V98.0583ZM48.7954 95.5038C48.7361 96.329 48.4324 96.9785 47.8844 97.4525C47.3399 97.9266 46.6208 98.1632 45.7273 98.1632C44.75 98.1632 43.9803 97.8335 43.4183 97.1735C42.8599 96.5098 42.5806 95.6004 42.5806 94.4452V93.9765C42.5806 93.2391 42.7098 92.5895 42.9681 92.0278C43.2264 91.466 43.5946 91.0358 44.0728 90.7374C44.5545 90.4354 45.113 90.2845 45.7483 90.2845C46.6278 90.2845 47.3364 90.5215 47.8739 90.9955C48.4115 91.4695 48.7221 92.1348 48.8059 92.9916H47.2351C47.1968 92.4965 47.0589 92.1384 46.8215 91.9172C46.5877 91.6924 46.2299 91.5801 45.7483 91.5801C45.2246 91.5801 44.832 91.7697 44.5703 92.1489C44.3119 92.5246 44.1793 93.1093 44.1723 93.9027V94.4821C44.1723 95.3108 44.2962 95.9165 44.544 96.2992C44.7953 96.6819 45.1897 96.8732 45.7273 96.8732C46.2125 96.8732 46.5737 96.7626 46.8111 96.5414C47.052 96.3167 47.1898 95.9709 47.2247 95.5038H48.7954ZM51.497 98.0583H49.9263V90.3898H51.497V98.0583ZM59.2197 94.3978C59.2197 95.1527 59.087 95.8146 58.8218 96.3834C58.5564 96.9523 58.176 97.3912 57.6804 97.7001C57.1882 98.0091 56.6228 98.1632 55.984 98.1632C55.3522 98.1632 54.7885 98.0109 54.2929 97.7053C53.7972 97.3999 53.4133 96.9645 53.141 96.3992C52.8687 95.8304 52.7309 95.1773 52.7274 94.44V94.0607C52.7274 93.3059 52.8618 92.6422 53.1306 92.0699C53.4028 91.494 53.785 91.0534 54.2772 90.7479C54.7728 90.4389 55.3383 90.2845 55.9735 90.2845C56.6088 90.2845 57.1725 90.4389 57.6647 90.7479C58.1603 91.0534 58.5425 91.494 58.8113 92.0699C59.0835 92.6422 59.2197 93.3041 59.2197 94.0555V94.3978ZM57.6281 94.0502C57.6281 93.2461 57.485 92.6352 57.1987 92.2174C56.9125 91.7996 56.5041 91.5906 55.9735 91.5906C55.4465 91.5906 55.0399 91.7978 54.7536 92.2121C54.4674 92.6229 54.3225 93.2268 54.319 94.0238V94.3978C54.319 95.1808 54.4621 95.7883 54.7484 96.2202C55.0346 96.652 55.4465 96.8679 55.984 96.8679C56.511 96.8679 56.916 96.6608 57.1987 96.2464C57.4814 95.8286 57.6245 95.2212 57.6281 94.4241V94.0502ZM56.2772 88.3358H57.9264L56.4761 89.9684H55.2458L56.2772 88.3358ZM66.5602 98.0583H64.9894L61.9318 93.0127V98.0583H60.3611V90.3898H61.9318L64.9946 95.4459V90.3898H66.5602V98.0583ZM74.9058 96.4782H72.1518L71.6283 98.0583H69.9581L72.7958 90.3898H74.2513L77.1047 98.0583H75.4346L74.9058 96.4782ZM72.5759 95.1984H74.4817L73.5236 92.3279L72.5759 95.1984ZM83.7331 97.0891C83.4504 97.4297 83.0508 97.6948 82.5342 97.8845C82.0176 98.071 81.4452 98.1632 80.8168 98.1632C80.1572 98.1632 79.5778 98.0196 79.0786 97.7317C78.583 97.4403 78.199 97.0189 77.9268 96.4677C77.658 95.9165 77.5201 95.2686 77.5132 94.5242V94.0029C77.5132 93.2374 77.6406 92.5755 77.8954 92.0173C78.1536 91.4554 78.5236 91.0271 79.0053 90.7321C79.4905 90.4336 80.0577 90.2845 80.7069 90.2845C81.611 90.2845 82.3178 90.5022 82.8273 90.9376C83.337 91.3694 83.639 91.9997 83.7331 92.8283H82.2044C82.1346 92.3894 81.9792 92.0682 81.7384 91.8645C81.501 91.6608 81.1729 91.5591 80.7541 91.5591C80.22 91.5591 79.8134 91.761 79.5341 92.1647C79.2549 92.5685 79.1135 93.1689 79.1101 93.966V94.4558C79.1101 95.2599 79.2619 95.8672 79.5656 96.2781C79.8692 96.6889 80.3142 96.8943 80.9007 96.8943C81.4905 96.8943 81.9111 96.7679 82.1624 96.5151V95.1931H80.7331V94.0291H83.7331V97.0891ZM89.5972 94.7349H86.5814V96.789H90.1207V98.0583H85.0107V90.3898H90.1102V91.6697H86.5814V93.4972H89.5972V94.7349ZM97.2413 98.0583H95.6705L92.6129 93.0127V98.0583H91.0422V90.3898H92.6129L95.6758 95.4459V90.3898H97.2413V98.0583ZM98.613 98.0583V90.3898H100.959C101.629 90.3898 102.227 90.5425 102.754 90.848C103.285 91.15 103.699 91.5818 103.995 92.1437C104.292 92.7019 104.44 93.3374 104.44 94.0502V94.4031C104.44 95.1158 104.294 95.7497 104 96.3044C103.711 96.8592 103.301 97.2893 102.77 97.5947C102.24 97.9003 101.641 98.0547 100.974 98.0583H98.613ZM100.184 91.6697V96.789H100.943C101.557 96.789 102.027 96.5871 102.351 96.1833C102.676 95.7795 102.842 95.2019 102.849 94.4505V94.0449C102.849 93.2655 102.688 92.6755 102.367 92.2753C102.046 91.8716 101.576 91.6697 100.959 91.6697H100.184ZM109.776 96.4782H107.022L106.498 98.0583H104.828L107.665 90.3898H109.121L111.974 98.0583H110.304L109.776 96.4782ZM107.446 95.1984H109.351L108.393 92.3279L107.446 95.1984ZM112.687 98.0583V90.3898H115.357C116.282 90.3898 116.983 90.5689 117.461 90.927C117.94 91.2816 118.179 91.803 118.179 92.4913C118.179 92.867 118.083 93.1988 117.891 93.4867C117.699 93.771 117.432 93.98 117.09 94.1135C117.481 94.2117 117.788 94.4101 118.011 94.7086C118.238 95.007 118.351 95.3721 118.351 95.8041C118.351 96.5414 118.118 97.0997 117.65 97.4789C117.182 97.8581 116.516 98.0512 115.65 98.0583H112.687ZM114.257 94.7191V96.789H115.603C115.973 96.789 116.261 96.7011 116.467 96.5256C116.676 96.3465 116.781 96.1007 116.781 95.7883C116.781 95.086 116.419 94.7297 115.697 94.7191H114.257ZM114.257 93.6026H115.42C116.211 93.5885 116.608 93.2708 116.608 92.6493C116.608 92.3016 116.507 92.0524 116.304 91.9014C116.105 91.7468 115.789 91.6697 115.357 91.6697H114.257V93.6026ZM121.106 96.789H124.441V98.0583H119.535V90.3898H121.106V96.789ZM129.933 94.7349H126.918V96.789H130.456V98.0583H125.346V90.3898H130.446V91.6697H126.918V93.4972H129.933V94.7349Z" fill="#555555"/>
<path fill-rule="evenodd" clip-rule="evenodd" d="M32.357 38.6248C31.8551 38.6248 31.4269 38.8019 31.0726 39.1561C30.7183 39.5103 30.5411 39.9383 30.5411 40.4401C30.5411 40.9419 30.7183 41.3699 31.0726 41.7241C31.4269 42.0783 31.8551 42.2554 32.357 42.2554C32.859 42.2554 33.2872 42.0783 33.6415 41.7241C33.9958 41.3699 34.173 40.9419 34.173 40.4401C34.173 39.9383 33.9958 39.5103 33.6415 39.1561C33.2872 38.8019 32.859 38.6248 32.357 38.6248ZM35.8363 53.782H38.9662V38H35.8363V53.782ZM48.6069 48.7099C48.6069 47.9425 48.3855 47.3275 47.9475 46.8503C47.5095 46.3781 46.8943 46.1419 46.0971 46.1419C45.2999 46.1419 44.6896 46.3781 44.2467 46.8503C43.8087 47.3226 43.5873 47.9425 43.5873 48.7099C43.5873 49.4774 43.8087 50.0973 44.2467 50.5696C44.6847 51.0418 45.2999 51.278 46.0971 51.278C46.8943 51.278 47.5046 51.0418 47.9475 50.5696C48.3855 50.0973 48.6069 49.4774 48.6069 48.7099ZM51.2988 46.5158C51.5892 47.1701 51.7368 47.9031 51.7368 48.7099C51.7368 49.5168 51.5892 50.2498 51.2988 50.9041C51.0085 51.5584 50.6049 52.1192 50.098 52.5866C49.5912 53.0539 48.9908 53.4131 48.3018 53.664C47.6128 53.9149 46.8796 54.0379 46.0971 54.0379C45.3146 54.0379 44.5814 53.9149 43.8924 53.664C43.2034 53.4131 42.603 53.0539 42.0961 52.5866C41.5893 52.1192 41.1857 51.5584 40.8954 50.9041C40.605 50.2498 40.4574 49.5217 40.4574 48.7099C40.4574 47.8982 40.605 47.1701 40.8954 46.5158C41.1857 45.8615 41.5893 45.3007 42.0961 44.8333C42.603 44.3659 43.2034 44.0068 43.8924 43.7559C44.5814 43.505 45.3146 43.382 46.0971 43.382C46.8796 43.382 47.6128 43.505 48.3018 43.7559C48.9908 44.0068 49.5912 44.3659 50.098 44.8333C50.6049 45.3007 51.0085 45.8615 51.2988 46.5158ZM59.4434 43.387C58.7496 43.387 58.1688 43.5444 57.7112 43.8543C57.2535 44.1692 56.8549 44.6365 56.5202 45.2613H56.4809V43.6329H53.351V53.7771H56.4809V49.5414C56.4809 49.0396 56.5104 48.582 56.5645 48.1639C56.6187 47.7457 56.7417 47.3866 56.9287 47.0914C57.1157 46.7913 57.3864 46.5601 57.7309 46.3928C58.0803 46.2256 58.5527 46.1419 59.1531 46.1419C59.3893 46.1419 59.6157 46.1616 59.8322 46.196C60.0488 46.2305 60.2653 46.2846 60.4917 46.3535V43.4952C60.3391 43.4558 60.1718 43.4263 59.9897 43.4115C59.8076 43.3968 59.6255 43.3919 59.4484 43.3919L59.4434 43.387ZM30.7921 53.782H33.922V43.6378H30.7921V53.782ZM3.25785 47.7703H9.6702V44.7644H3.25785V42.0095H10.0442V39.0036H0V53.782H10.4182V50.7762H3.25785V47.7703ZM18.6219 48.2524C18.2233 48.031 17.8001 47.8638 17.3473 47.7605C16.8946 47.6572 16.4713 47.5588 16.0727 47.4702C15.6741 47.3817 15.3493 47.2734 15.0934 47.1554C14.8375 47.0373 14.7095 46.8503 14.7095 46.6044C14.7095 46.2993 14.8326 46.0829 15.0835 45.955C15.3345 45.832 15.5904 45.768 15.8562 45.768C16.6091 45.768 17.2144 46.0534 17.6721 46.624L19.5914 44.7251C19.119 44.2233 18.5382 43.874 17.8591 43.6821C17.1751 43.4853 16.5009 43.3919 15.8316 43.3919C15.3001 43.3919 14.7784 43.4558 14.2666 43.5887C13.7499 43.7215 13.2971 43.9281 12.8985 44.2036C12.4999 44.484 12.18 44.8382 11.9389 45.2662C11.6928 45.6992 11.5747 46.2108 11.5747 46.811C11.5747 47.4505 11.7027 47.9622 11.9586 48.3459C12.2145 48.7296 12.5442 49.0248 12.9379 49.2314C13.3365 49.438 13.7597 49.5955 14.2125 49.6988C14.6652 49.8021 15.0885 49.9005 15.4871 49.989C15.8857 50.0776 16.2105 50.1907 16.4664 50.3236C16.7223 50.4564 16.8552 50.6532 16.8552 50.9188C16.8552 51.1993 16.7076 51.3862 16.4172 51.4944C16.1268 51.5977 15.7971 51.6519 15.4379 51.6519C14.9654 51.6519 14.5521 51.5584 14.1977 51.3714C13.8434 51.1845 13.5186 50.909 13.2282 50.545L11.3287 52.6555C11.8306 53.172 12.4409 53.5311 13.1643 53.7279C13.8877 53.9296 14.6062 54.0329 15.3148 54.0329C15.8562 54.0329 16.4074 53.9788 16.9635 53.8755C17.5196 53.7722 18.0215 53.5902 18.4693 53.3344C18.9123 53.0785 19.2813 52.7342 19.5668 52.3111C19.8522 51.888 19.9949 51.3468 19.9949 50.6925C19.9949 50.0382 19.867 49.5414 19.6062 49.1576C19.3502 48.7739 19.0205 48.4738 18.6268 48.2475L18.6219 48.2524ZM27.9033 48.2524C27.5047 48.031 27.0815 47.8638 26.6287 47.7605C26.176 47.6572 25.7528 47.5588 25.3541 47.4702C24.9555 47.3817 24.6307 47.2734 24.3748 47.1554C24.1189 47.0373 23.991 46.8503 23.991 46.6044C23.991 46.2993 24.114 46.0829 24.365 45.955C24.616 45.832 24.8719 45.768 25.1376 45.768C25.8906 45.768 26.4959 46.0534 26.9535 46.624L28.8728 44.7251C28.4004 44.2233 27.8197 43.874 27.1405 43.6821C26.4565 43.4853 25.7823 43.3919 25.113 43.3919C24.5815 43.3919 24.0599 43.4558 23.548 43.5887C23.0313 43.7215 22.5786 43.9281 22.18 44.2036C21.7813 44.484 21.4615 44.8382 21.2203 45.2662C20.9743 45.6992 20.8561 46.2108 20.8561 46.811C20.8561 47.4505 20.9841 47.9622 21.24 48.3459C21.4959 48.7296 21.8256 49.0248 22.2193 49.2314C22.6179 49.438 23.0412 49.5955 23.4939 49.6988C23.9467 49.8021 24.3699 49.9005 24.7685 49.989C25.1671 50.0776 25.4919 50.1907 25.7478 50.3236C26.0037 50.4564 26.1317 50.6532 26.1317 50.9188C26.1317 51.1993 25.9841 51.3862 25.6937 51.4944C25.4034 51.5977 25.0736 51.6519 24.7144 51.6519C24.2419 51.6519 23.8286 51.5584 23.4742 51.3714C23.1199 51.1845 22.7951 50.909 22.5048 50.545L20.6052 52.6555C21.1071 53.172 21.7174 53.5311 22.4408 53.7279C23.1642 53.9296 23.8827 54.0329 24.5914 54.0329C25.1327 54.0329 25.6839 53.9788 26.24 53.8755C26.7961 53.7722 27.298 53.5902 27.7459 53.3344C28.1888 53.0785 28.5579 52.7342 28.8433 52.3111C29.1287 51.888 29.2714 51.3468 29.2714 50.6925C29.2714 50.0382 29.1435 49.5414 28.8827 49.1576C28.6268 48.7739 28.297 48.4738 27.9033 48.2475V48.2524ZM102.957 48.7099C102.957 47.9425 102.735 47.3275 102.297 46.8503C101.859 46.3781 101.244 46.1419 100.447 46.1419C99.6498 46.1419 99.0396 46.3781 98.6016 46.8503C98.1636 47.3226 97.9422 47.9425 97.9422 48.7099C97.9422 49.4774 98.1636 50.0924 98.6016 50.5696C99.0396 51.0418 99.6548 51.278 100.447 51.278C101.239 51.278 101.855 51.0418 102.297 50.5696C102.735 50.0973 102.957 49.4774 102.957 48.7099ZM105.649 46.5158C105.939 47.1701 106.087 47.9031 106.087 48.7099C106.087 49.5168 105.939 50.2498 105.649 50.9041C105.358 51.5584 104.955 52.1192 104.448 52.5866C103.941 53.0539 103.341 53.4131 102.652 53.664C101.963 53.9149 101.23 54.0379 100.447 54.0379C99.6646 54.0379 98.9313 53.9149 98.2424 53.664C97.5534 53.4131 96.953 53.0539 96.4461 52.5866C95.9392 52.1192 95.5357 51.5584 95.2453 50.9041C94.955 50.2498 94.8074 49.5217 94.8074 48.7099C94.8074 47.8982 94.955 47.1701 95.2453 46.5158C95.5357 45.8615 95.9392 45.3007 96.4461 44.8333C96.953 44.3659 97.5534 44.0068 98.2424 43.7608C98.9313 43.5099 99.6646 43.387 100.447 43.387C101.23 43.387 101.963 43.5099 102.652 43.7608C103.341 44.0117 103.941 44.3709 104.448 44.8333C104.955 45.3007 105.358 45.8615 105.649 46.5158ZM119.044 40.6271H115.91V43.6329H111.599V40.632H108.469V43.6378H106.466V46.3781H108.469V50.9631C108.469 51.519 108.562 51.9913 108.749 52.3849C108.936 52.7735 109.197 53.0933 109.532 53.3344C109.866 53.5803 110.255 53.7574 110.703 53.8657C111.151 53.9788 111.638 54.0329 112.165 54.0329C112.524 54.0329 112.898 54.0133 113.272 53.969C113.646 53.9296 114.01 53.846 114.359 53.7181V51.1107C114.222 51.2337 114.015 51.3173 113.744 51.3518C113.474 51.3862 113.252 51.4059 113.085 51.4059C112.75 51.4059 112.484 51.3616 112.283 51.2681C112.081 51.1796 111.928 51.0468 111.835 50.8844C111.736 50.7171 111.672 50.5204 111.648 50.2891C111.618 50.0579 111.608 49.807 111.608 49.5266V46.383H115.919V50.968C115.919 51.524 116.013 51.9962 116.2 52.3898C116.387 52.7784 116.648 53.0982 116.982 53.3393C117.317 53.5853 117.706 53.7624 118.154 53.8706C118.601 53.9837 119.089 54.0379 119.615 54.0379C119.979 54.0379 120.348 54.0182 120.723 53.9739C121.097 53.9346 121.461 53.8509 121.81 53.723V51.1156C121.672 51.2386 121.466 51.3222 121.195 51.3567C120.924 51.3911 120.703 51.4108 120.536 51.4108C120.201 51.4108 119.935 51.3665 119.733 51.2731C119.532 51.1845 119.379 51.0517 119.286 50.8893C119.187 50.7221 119.123 50.5253 119.099 50.2941C119.069 50.0628 119.059 49.8119 119.059 49.5315V46.3879H121.815V43.6477H119.059V40.632L119.044 40.6271ZM133.641 46.137C133.961 46.137 134.261 46.2108 134.536 46.3584C134.817 46.506 135.029 46.688 135.186 46.9094L137.253 44.7398C136.766 44.238 136.19 43.8887 135.53 43.687C134.871 43.4853 134.241 43.382 133.641 43.382C132.863 43.382 132.125 43.505 131.436 43.7559C130.747 44.0068 130.147 44.3659 129.64 44.8333C129.133 45.3007 128.729 45.8615 128.439 46.5158C128.149 47.1701 128.001 47.9031 128.001 48.7099C128.001 49.5168 128.149 50.2498 128.439 50.9041C128.729 51.5584 129.133 52.1192 129.64 52.5866C130.147 53.0539 130.747 53.4131 131.436 53.664C132.125 53.9149 132.858 54.0379 133.641 54.0379C134.241 54.0379 134.871 53.9346 135.53 53.7328C136.19 53.5311 136.766 53.1819 137.253 52.6801L135.186 50.5105C135.004 50.7171 134.787 50.8992 134.536 51.0517C134.285 51.2042 133.985 51.2829 133.641 51.2829C132.848 51.2829 132.233 51.0468 131.79 50.5745C131.352 50.1022 131.131 49.4823 131.131 48.7149C131.131 47.9474 131.352 47.3325 131.79 46.8553C132.228 46.383 132.843 46.1468 133.641 46.1468V46.137ZM124.989 38.6248C124.487 38.6248 124.059 38.8019 123.705 39.1561C123.35 39.5103 123.173 39.9383 123.173 40.4401C123.173 40.9419 123.35 41.3699 123.705 41.7241C124.059 42.0783 124.487 42.2554 124.989 42.2554C125.491 42.2554 125.919 42.0783 126.274 41.7241C126.628 41.3699 126.805 40.9419 126.805 40.4401C126.805 39.9383 126.628 39.5103 126.274 39.1561C125.919 38.8019 125.491 38.6248 124.989 38.6248ZM123.424 53.782H126.554V43.6378H123.424V53.782ZM94.8713 43.6378H91.3822L89.6499 46.3928L87.8537 43.6378H84.1578L87.5387 48.3557L83.5279 53.782H87.1844L89.5663 50.4023L91.7808 53.782H95.4766L91.5741 48.3557L94.8713 43.6378ZM144.753 49.3347H143.98C143.744 49.3347 143.449 49.3446 143.094 49.3643C142.74 49.3839 142.4 49.443 142.071 49.5414C141.741 49.6397 141.465 49.7873 141.234 49.9792C141.003 50.176 140.89 50.4466 140.89 50.7909C140.89 51.1648 141.047 51.4452 141.372 51.6273C141.692 51.8093 142.026 51.8978 142.376 51.8978C142.681 51.8978 142.976 51.8585 143.262 51.7749C143.547 51.6912 143.803 51.5731 144.025 51.4206C144.246 51.2681 144.423 51.0713 144.556 50.8352C144.689 50.5991 144.753 50.3187 144.753 49.9989V49.3298V49.3347ZM147.637 48.6263V53.782H144.753V52.5079H144.713C144.364 53.049 143.901 53.4426 143.326 53.6787C142.75 53.9149 142.14 54.0329 141.5 54.0329C141.027 54.0329 140.57 53.969 140.132 53.8362C139.694 53.7033 139.305 53.5065 138.975 53.2409C138.641 52.9752 138.375 52.6505 138.183 52.2619C137.986 51.8732 137.893 51.4206 137.893 50.9041C137.893 50.3187 138.001 49.8267 138.217 49.4233C138.434 49.0199 138.724 48.6853 139.093 48.4197C139.463 48.154 139.886 47.9523 140.358 47.8047C140.831 47.6572 141.323 47.5489 141.83 47.48C142.337 47.4112 142.843 47.3669 143.355 47.3571C143.862 47.3423 144.335 47.3374 144.763 47.3374C144.763 46.7815 144.566 46.3387 144.167 46.014C143.769 45.6893 143.301 45.5221 142.76 45.5221C142.218 45.5221 141.776 45.6303 141.352 45.8467C140.929 46.0632 140.55 46.3584 140.215 46.7323L138.547 45.0203C139.133 44.4791 139.812 44.0708 140.594 43.8002C141.372 43.5296 142.184 43.3919 143.016 43.3919C143.936 43.3919 144.689 43.505 145.279 43.7362C145.87 43.9675 146.342 44.302 146.702 44.7497C147.056 45.1974 147.302 45.7434 147.445 46.3879C147.583 47.0373 147.651 47.7851 147.651 48.6312L147.637 48.6263ZM65.1324 39.0036H61.8745V53.782H71.1658V50.7762H65.1324V39.0036ZM79.2071 43.6378H82.337V53.782H79.3301V52.4046H79.2907C79.1775 52.6013 79.0348 52.7932 78.8626 52.99C78.6903 53.1868 78.4787 53.359 78.2278 53.5115C77.9768 53.664 77.6913 53.7919 77.3715 53.8854C77.0516 53.9837 76.7022 54.0329 76.3282 54.0329C75.5358 54.0329 74.8912 53.91 74.399 53.6689C73.9069 53.4278 73.5231 53.0884 73.2524 52.6555C72.9817 52.2225 72.7996 51.7158 72.7111 51.1304C72.6225 50.545 72.5733 49.9103 72.5733 49.2314V43.6378H75.7032V48.6066C75.7032 48.8969 75.713 49.2019 75.7327 49.5168C75.7524 49.8316 75.8164 50.1169 75.9197 50.3826C76.023 50.6483 76.1854 50.8647 76.402 51.032C76.6185 51.1993 76.9286 51.2829 77.3321 51.2829C77.7356 51.2829 78.0654 51.2091 78.3114 51.0615C78.5624 50.9139 78.7543 50.7221 78.8872 50.4761C79.0201 50.235 79.1087 49.9595 79.148 49.6496C79.1874 49.3446 79.212 49.0248 79.212 48.6903V43.6378H79.2071Z" fill="black"/>
</svg>
