<svg width="80" height="72" viewBox="0 0 80 72" fill="none" xmlns="http://www.w3.org/2000/svg">
<g clip-path="url(#clip0_1_87)">
<path d="M78.9063 30.9999L42.8656 1.9481C42.0434 1.26292 40.9471 0.851807 39.8508 0.851807C38.6175 0.851807 37.5212 1.26292 36.6989 1.9481L0.658229 30.9999C0.384155 31.2741 0.384155 31.5481 0.384155 31.8221C0.384155 31.9592 0.384155 32.2332 0.521192 32.3703L2.43971 34.7C2.57675 34.974 2.85082 35.111 3.26193 35.111C3.39897 35.111 3.67304 34.974 3.81007 34.837L9.15452 30.5888V68.8221C9.15452 70.0554 10.1138 71.0147 11.3471 71.0147H68.3545C69.4508 71.0147 70.5471 70.0554 70.5471 68.8221V30.5888L75.7545 34.974C75.8915 35.111 76.1655 35.111 76.4397 35.111C76.7137 35.111 76.9878 34.974 77.1248 34.837L79.0434 32.3703C79.1804 32.2332 79.1804 31.9592 79.1804 31.8221C79.1804 31.5481 79.1804 31.2741 78.9063 30.9999ZM66.1619 66.6295H13.5397V27.0259L39.1656 6.33328C39.3026 6.19625 39.5768 6.19625 39.7138 6.19625C39.9878 6.19625 40.1248 6.19625 40.3989 6.33328L66.1619 27.0259V66.6295ZM35.4656 30.4518V38.1258H27.7915C27.1064 38.1258 26.6952 38.674 26.6952 39.2221V45.7999C26.6952 46.4851 27.1064 46.8962 27.7915 46.8962H35.4656V54.5703C35.4656 55.2554 35.8767 55.6666 36.5619 55.6666H43.1397C43.6878 55.6666 44.236 55.2554 44.236 54.5703V46.8962H51.91C52.4582 46.8962 53.0063 46.4851 53.0063 45.7999V39.2221C53.0063 38.674 52.4582 38.1258 51.91 38.1258H44.236V30.4518C44.236 29.9036 43.6878 29.3555 43.1397 29.3555H36.5619C35.8767 29.3555 35.4656 29.9036 35.4656 30.4518Z" fill="#555555"/>
</g>
<defs>
<clipPath id="clip0_1_87">
<rect width="78.9333" height="70.1629" fill="white" transform="translate(0.384155 0.851807)"/>
</clipPath>
</defs>
</svg>
