<svg width="102" height="91" viewBox="0 0 102 91" fill="none" xmlns="http://www.w3.org/2000/svg">
<path d="M98.4214 58.8164C96.6636 57.2344 94.5542 56.5312 92.269 56.5312C89.9839 56.5312 87.8745 57.2344 86.1167 58.6406L75.394 67.2539C75.0425 67.6055 74.5151 67.6055 74.1636 67.6055H66.7808C67.6597 66.0234 68.0112 64.0898 67.6597 61.9805C66.9565 57.0586 62.3862 53.543 57.4644 53.543H32.1519C28.4604 53.543 25.1206 54.7734 21.9565 57.0586L15.2769 61.9805H3.14795C1.56592 61.9805 0.335449 63.3867 0.335449 64.793C0.335449 66.375 1.56592 67.6055 2.97217 67.6055H17.0347L25.1206 61.2773C27.23 59.8711 29.5151 59.168 31.9761 59.168H57.8159C60.1011 59.168 62.0347 60.9258 62.0347 63.3867C62.0347 65.6719 60.1011 67.6055 57.8159 67.6055H42.3472C40.7651 67.6055 39.5347 68.8359 39.5347 70.418C39.5347 71.8242 40.7651 73.2305 42.3472 73.2305H73.9878C75.5698 73.2305 77.3276 72.5273 78.5581 71.4727L89.4565 62.8594C90.1597 62.332 91.2144 61.9805 92.0933 61.9805C92.9722 61.9805 93.8511 62.332 94.3784 62.8594C96.312 64.4414 96.1362 67.2539 94.3784 68.6602L76.6245 82.7227C75.2183 83.7773 73.6362 84.4805 71.8784 84.4805H3.14795C1.56592 84.4805 0.335449 85.7109 0.335449 87.293C0.335449 88.6992 1.56592 90.1055 2.97217 90.1055H71.8784C74.8667 90.1055 77.6792 89.2266 80.1401 87.293L97.894 73.0547C100.003 71.4727 101.234 68.8359 101.234 66.0234C101.585 63.3867 100.355 60.75 98.4214 58.8164ZM34.0854 33.8555H39.7104V39.4805C39.7104 42.6445 42.1714 45.1055 45.3354 45.1055H56.5854C59.5737 45.1055 62.2104 42.6445 62.2104 39.4805V33.8555H67.8354C70.8237 33.8555 73.4604 31.3945 73.4604 28.2305V16.9805C73.4604 13.9922 70.8237 11.3555 67.8354 11.3555H62.2104V5.73047C62.2104 2.74219 59.5737 0.105469 56.5854 0.105469H45.3354C42.1714 0.105469 39.7104 2.74219 39.7104 5.73047V11.3555H34.0854C30.9214 11.3555 28.4604 13.9922 28.4604 16.9805V28.2305C28.4604 31.3945 30.9214 33.8555 34.0854 33.8555ZM34.0854 16.9805H45.3354V5.73047H56.5854V16.9805H67.8354V28.2305H56.5854V39.4805H45.3354V28.2305H34.0854V16.9805Z" fill="#555555"/>
</svg>
