<svg width="86" height="91" viewBox="0 0 86 91" fill="none" xmlns="http://www.w3.org/2000/svg">
<path d="M80.0979 15.0254L46.3479 0.962891C45.2932 0.611328 44.2385 0.435547 43.1838 0.435547C41.9534 0.435547 40.8987 0.611328 39.844 0.962891L6.09399 15.0254C2.92993 16.4316 0.996338 19.4199 0.996338 22.7598C0.996338 68.1113 34.219 90.2598 43.0081 90.2598C51.7971 90.2598 85.3713 68.4629 85.3713 22.7598C85.3713 19.4199 83.262 16.4316 80.0979 15.0254ZM79.5706 22.9355C79.5706 62.4863 50.3909 84.6348 43.1838 84.6348C35.6252 84.6348 6.62134 62.3105 6.62134 22.7598C6.62134 21.7051 7.14868 20.6504 8.20337 20.2988L41.9534 6.23633C42.3049 6.06055 42.6565 5.88477 43.1838 5.88477C43.5354 5.88477 43.887 6.06055 44.2385 6.23633L77.9885 20.2988C79.5706 21.002 79.5706 22.4082 79.5706 22.9355ZM57.2463 32.252C56.3674 32.252 55.6643 32.4277 55.137 32.9551L38.4377 49.8301L31.0549 42.4473C30.5276 41.9199 29.8245 41.5684 29.1213 41.5684C27.3635 41.5684 26.3088 42.9746 26.3088 44.3809C26.3088 45.084 26.4846 45.7871 27.012 46.4902L36.5042 55.8066C37.0315 56.334 37.7346 56.5098 38.4377 56.5098C39.1409 56.5098 39.844 56.334 40.3713 55.8066L59.1799 36.998C59.7073 36.4707 60.0588 35.7676 60.0588 35.0645C60.0588 33.4824 58.8284 32.252 57.2463 32.252Z" fill="#555555"/>
</svg>
