<svg width="91" height="91" viewBox="0 0 91 91" fill="none" xmlns="http://www.w3.org/2000/svg">
<path d="M45.5588 19.8438C43.9768 19.8438 42.7463 18.6133 42.7463 17.0312V2.96875C42.7463 1.5625 43.9768 0.15625 45.5588 0.15625C46.9651 0.15625 48.3713 1.5625 48.3713 2.96875V17.0312C48.3713 18.6133 46.9651 19.8438 45.5588 19.8438ZM48.3713 87.3438V73.2812C48.3713 71.875 46.9651 70.4688 45.5588 70.4688C43.9768 70.4688 42.7463 71.875 42.7463 73.2812V87.3438C42.7463 88.9258 43.9768 90.1562 45.5588 90.1562C46.9651 90.1562 48.3713 88.9258 48.3713 87.3438ZM90.5588 45.1562C90.5588 43.75 89.1526 42.3438 87.7463 42.3438H73.6838C72.1018 42.3438 70.8713 43.75 70.8713 45.1562C70.8713 46.7383 72.1018 47.9688 73.6838 47.9688H87.7463C89.1526 47.9688 90.5588 46.7383 90.5588 45.1562ZM20.2463 45.1562C20.2463 43.75 18.8401 42.3438 17.4338 42.3438H3.37134C1.78931 42.3438 0.558838 43.75 0.558838 45.1562C0.558838 46.7383 1.78931 47.9688 3.37134 47.9688H17.4338C18.8401 47.9688 20.2463 46.7383 20.2463 45.1562ZM67.3557 27.4023L77.3752 17.3828C78.4299 16.3281 78.4299 14.5703 77.3752 13.3398C76.1448 12.2852 74.387 12.2852 73.3323 13.3398L63.3127 23.3594C62.2581 24.4141 62.2581 26.1719 63.3127 27.4023C64.0159 27.9297 64.719 28.1055 65.4221 28.1055C66.1252 28.1055 66.8284 27.9297 67.3557 27.4023ZM17.6096 76.9727L27.6292 67.1289C28.6838 66.0742 28.6838 64.3164 27.6292 63.0859C26.3987 62.0312 24.6409 62.0312 23.5862 63.0859L13.5667 73.1055C12.512 74.1602 12.512 75.918 13.5667 76.9727C14.2698 77.6758 14.9729 77.8516 15.676 77.8516C16.3792 77.8516 17.0823 77.6758 17.6096 76.9727ZM77.3752 76.9727C78.4299 75.918 78.4299 74.1602 77.3752 73.1055L67.3557 63.0859C66.301 62.0312 64.5432 62.0312 63.3127 63.0859C62.2581 64.3164 62.2581 66.0742 63.3127 67.1289L73.3323 77.1484C73.8596 77.6758 74.5627 77.8516 75.2659 77.8516C75.969 77.8516 76.6721 77.6758 77.3752 76.9727ZM27.6292 27.4023C28.6838 26.1719 28.6838 24.4141 27.6292 23.3594L17.6096 13.3398C16.5549 12.2852 14.7971 12.2852 13.5667 13.3398C12.512 14.5703 12.512 16.3281 13.5667 17.3828L23.5862 27.4023C24.1135 27.9297 24.8167 28.1055 25.5198 28.1055C26.2229 28.1055 27.1018 27.9297 27.6292 27.4023ZM65.2463 45.1562C65.2463 34.4336 56.2815 25.4688 45.5588 25.4688C34.6604 25.4688 25.8713 34.4336 25.8713 45.1562C25.8713 56.0547 34.6604 64.8438 45.5588 64.8438C56.2815 64.8438 65.2463 56.0547 65.2463 45.1562ZM59.6213 45.1562C59.6213 53.0664 53.2932 59.2188 45.5588 59.2188C37.6487 59.2188 31.4963 53.0664 31.4963 45.1562C31.4963 37.4219 37.6487 31.0938 45.5588 31.0938C53.2932 31.0938 59.6213 37.4219 59.6213 45.1562Z" fill="#555555"/>
</svg>
