<svg width="197" height="22" viewBox="0 0 197 22" fill="none" xmlns="http://www.w3.org/2000/svg">
<path fill-rule="evenodd" clip-rule="evenodd" d="M43.1715 0.833606C42.5018 0.833606 41.9305 1.0699 41.4578 1.5425C40.985 2.0151 40.7487 2.58615 40.7487 3.25566C40.7487 3.92517 40.985 4.49622 41.4578 4.96882C41.9305 5.44142 42.5018 5.67771 43.1715 5.67771C43.8412 5.67771 44.4125 5.44142 44.8852 4.96882C45.358 4.49622 45.5944 3.92517 45.5944 3.25566C45.5944 2.58615 45.358 2.0151 44.8852 1.5425C44.4125 1.0699 43.8412 0.833606 43.1715 0.833606ZM47.8137 21.0568H51.9897V0H47.8137V21.0568ZM64.8525 14.2895C64.8525 13.2655 64.557 12.445 63.9726 11.8083C63.3883 11.1782 62.5675 10.8631 61.5038 10.8631C60.4401 10.8631 59.6259 11.1782 59.035 11.8083C58.4506 12.4385 58.1552 13.2655 58.1552 14.2895C58.1552 15.3134 58.4506 16.1405 59.035 16.7706C59.6194 17.4007 60.4401 17.7158 61.5038 17.7158C62.5675 17.7158 63.3817 17.4007 63.9726 16.7706C64.557 16.1405 64.8525 15.3134 64.8525 14.2895ZM68.4441 11.362C68.8315 12.235 69.0285 13.213 69.0285 14.2895C69.0285 15.3659 68.8315 16.3439 68.4441 17.2169C68.0567 18.0899 67.5183 18.8382 66.842 19.4618C66.1657 20.0853 65.3646 20.5645 64.4454 20.8992C63.5261 21.234 62.5478 21.3981 61.5038 21.3981C60.4598 21.3981 59.4815 21.234 58.5622 20.8992C57.643 20.5645 56.8419 20.0853 56.1656 19.4618C55.4894 18.8382 54.9509 18.0899 54.5635 17.2169C54.1761 16.3439 53.9792 15.3725 53.9792 14.2895C53.9792 13.2064 54.1761 12.235 54.5635 11.362C54.9509 10.489 55.4894 9.74072 56.1656 9.11716C56.8419 8.4936 57.643 8.01444 58.5622 7.67968C59.4815 7.34493 60.4598 7.18083 61.5038 7.18083C62.5478 7.18083 63.5261 7.34493 64.4454 7.67968C65.3646 8.01444 66.1657 8.4936 66.842 9.11716C67.5183 9.74072 68.0567 10.489 68.4441 11.362ZM79.3108 7.18739C78.385 7.18739 77.6102 7.39744 76.9996 7.81096C76.389 8.23104 75.8571 8.85461 75.4106 9.68821H75.3581V7.51559H71.1821V21.0502H75.3581V15.3987C75.3581 14.7292 75.3975 14.1188 75.4697 13.5609C75.5419 13.0029 75.7061 12.5238 75.9556 12.13C76.2051 11.7296 76.5662 11.4211 77.0259 11.1979C77.4921 10.9747 78.1224 10.8631 78.9234 10.8631C79.2386 10.8631 79.5406 10.8894 79.8296 10.9353C80.1185 10.9813 80.4074 11.0535 80.7094 11.1454V7.3318C80.5059 7.27929 80.2826 7.2399 80.0397 7.22021C79.7967 7.20052 79.5538 7.19396 79.3174 7.19396L79.3108 7.18739ZM41.0835 21.0568H45.2595V7.52215H41.0835V21.0568ZM4.3467 13.0358H12.9022V9.02527H4.3467V5.34952H13.4012V1.33902H0V21.0568H13.9002V17.0463H4.3467V13.0358ZM24.8458 13.679C24.3139 13.3837 23.7493 13.1605 23.1452 13.0226C22.5411 12.8848 21.9764 12.7535 21.4446 12.6354C20.9127 12.5172 20.4794 12.3728 20.138 12.2153C19.7965 12.0578 19.6258 11.8083 19.6258 11.4801C19.6258 11.0732 19.79 10.7844 20.1248 10.6137C20.4597 10.4496 20.8011 10.3643 21.1557 10.3643C22.1603 10.3643 22.9679 10.745 23.5785 11.5064L26.1393 8.97276C25.509 8.30325 24.7342 7.83721 23.8281 7.58122C22.9154 7.31867 22.0158 7.19396 21.1229 7.19396C20.4137 7.19396 19.7177 7.27929 19.0349 7.45651C18.3454 7.63373 17.7414 7.90942 17.2095 8.27699C16.6777 8.65113 16.2509 9.12372 15.9291 9.69478C15.6008 10.2724 15.4433 10.955 15.4433 11.7558C15.4433 12.6091 15.614 13.2918 15.9554 13.8037C16.2968 14.3157 16.7368 14.7095 17.262 14.9852C17.7939 15.2609 18.3586 15.4709 18.9626 15.6088C19.5667 15.7466 20.1314 15.8779 20.6632 15.9961C21.1951 16.1142 21.6284 16.2652 21.9699 16.4424C22.3113 16.6196 22.4886 16.8822 22.4886 17.2366C22.4886 17.6108 22.2916 17.8602 21.9042 18.0046C21.5168 18.1424 21.0769 18.2146 20.5976 18.2146C19.9672 18.2146 19.4157 18.0899 18.9429 17.8405C18.4702 17.5911 18.0368 17.2235 17.6494 16.7378L15.115 19.5537C15.7847 20.2429 16.5989 20.722 17.5641 20.9846C18.5293 21.2537 19.4879 21.3915 20.4334 21.3915C21.1557 21.3915 21.8911 21.3193 22.633 21.1815C23.375 21.0436 24.0447 20.8008 24.6422 20.4595C25.2332 20.1181 25.7256 19.6587 26.1065 19.0942C26.4873 18.5297 26.6777 17.8077 26.6777 16.9347C26.6777 16.0617 26.507 15.3987 26.159 14.8868C25.8176 14.3748 25.3776 13.9744 24.8523 13.6725L24.8458 13.679ZM37.2293 13.679C36.6974 13.3837 36.1328 13.1605 35.5287 13.0226C34.9246 12.8848 34.3599 12.7535 33.8281 12.6354C33.2962 12.5172 32.8629 12.3728 32.5214 12.2153C32.18 12.0578 32.0093 11.8083 32.0093 11.4801C32.0093 11.0732 32.1734 10.7844 32.5083 10.6137C32.8432 10.4496 33.1846 10.3643 33.5392 10.3643C34.5438 10.3643 35.3514 10.745 35.962 11.5064L38.5228 8.97276C37.8924 8.30325 37.1177 7.83721 36.2115 7.58122C35.2989 7.31867 34.3993 7.19396 33.5063 7.19396C32.7972 7.19396 32.1012 7.27929 31.4184 7.45651C30.7289 7.63373 30.1249 7.90942 29.593 8.27699C29.0612 8.65113 28.6344 9.12372 28.3126 9.69478C27.9843 10.2724 27.8268 10.955 27.8268 11.7558C27.8268 12.6091 27.9975 13.2918 28.3389 13.8037C28.6803 14.3157 29.1203 14.7095 29.6455 14.9852C30.1774 15.2609 30.7421 15.4709 31.3461 15.6088C31.9502 15.7466 32.5149 15.8779 33.0467 15.9961C33.5786 16.1142 34.0119 16.2652 34.3534 16.4424C34.6948 16.6196 34.8655 16.8822 34.8655 17.2366C34.8655 17.6108 34.6685 17.8602 34.2811 18.0046C33.8937 18.1424 33.4538 18.2146 32.9745 18.2146C32.3442 18.2146 31.7926 18.0899 31.3199 17.8405C30.8471 17.5911 30.4138 17.2235 30.0264 16.7378L27.4919 19.5537C28.1616 20.2429 28.9758 20.722 29.941 20.9846C30.9062 21.2537 31.8648 21.3915 32.8104 21.3915C33.5326 21.3915 34.268 21.3193 35.01 21.1815C35.7519 21.0436 36.4217 20.8008 37.0192 20.4595C37.6101 20.1181 38.1026 19.6587 38.4834 19.0942C38.8642 18.5297 39.0546 17.8077 39.0546 16.9347C39.0546 16.0617 38.8839 15.3987 38.5359 14.8868C38.1945 14.3748 37.7546 13.9744 37.2293 13.6725V13.679ZM137.368 14.2895C137.368 13.2655 137.072 12.445 136.488 11.8083C135.903 11.1782 135.083 10.8631 134.019 10.8631C132.955 10.8631 132.141 11.1782 131.557 11.8083C130.972 12.4385 130.677 13.2655 130.677 14.2895C130.677 15.3134 130.972 16.1339 131.557 16.7706C132.141 17.4007 132.962 17.7158 134.019 17.7158C135.076 17.7158 135.897 17.4007 136.488 16.7706C137.072 16.1405 137.368 15.3134 137.368 14.2895ZM140.959 11.362C141.347 12.235 141.543 13.213 141.543 14.2895C141.543 15.3659 141.347 16.3439 140.959 17.2169C140.572 18.0899 140.033 18.8382 139.357 19.4618C138.681 20.0853 137.88 20.5645 136.96 20.8992C136.041 21.234 135.063 21.3981 134.019 21.3981C132.975 21.3981 131.997 21.234 131.077 20.8992C130.158 20.5645 129.357 20.0853 128.681 19.4618C128.004 18.8382 127.466 18.0899 127.079 17.2169C126.691 16.3439 126.494 15.3725 126.494 14.2895C126.494 13.2064 126.691 12.235 127.079 11.362C127.466 10.489 128.004 9.74072 128.681 9.11716C129.357 8.4936 130.158 8.01444 131.077 7.68625C131.997 7.35149 132.975 7.18739 134.019 7.18739C135.063 7.18739 136.041 7.35149 136.96 7.68625C137.88 8.021 138.681 8.50016 139.357 9.11716C140.033 9.74072 140.572 10.489 140.959 11.362ZM158.832 3.50509H154.649V7.51559H148.897V3.51165H144.721V7.52215H142.049V11.1782H144.721V17.2957C144.721 18.0374 144.846 18.6675 145.096 19.1926C145.345 19.7112 145.693 20.1378 146.14 20.4595C146.586 20.7877 147.105 21.0239 147.702 21.1684C148.3 21.3193 148.95 21.3915 149.652 21.3915C150.132 21.3915 150.631 21.3653 151.13 21.3062C151.629 21.2537 152.115 21.1421 152.581 20.9714V17.4926C152.397 17.6567 152.121 17.7683 151.76 17.8142C151.399 17.8602 151.104 17.8864 150.88 17.8864C150.434 17.8864 150.079 17.8274 149.81 17.7027C149.541 17.5845 149.337 17.4073 149.213 17.1907C149.081 16.9675 148.996 16.7049 148.963 16.3964C148.924 16.0879 148.911 15.7532 148.911 15.3791V11.1848H154.662V17.3023C154.662 18.044 154.787 18.6741 155.037 19.1992C155.286 19.7177 155.634 20.1444 156.081 20.466C156.527 20.7942 157.046 21.0305 157.643 21.1749C158.241 21.3259 158.891 21.3981 159.593 21.3981C160.079 21.3981 160.572 21.3718 161.071 21.3128C161.57 21.2602 162.056 21.1487 162.522 20.978V17.4992C162.338 17.6633 162.062 17.7749 161.701 17.8208C161.34 17.8667 161.045 17.893 160.821 17.893C160.375 17.893 160.02 17.8339 159.751 17.7092C159.482 17.5911 159.278 17.4138 159.154 17.1972C159.022 16.9741 158.937 16.7115 158.904 16.403C158.865 16.0945 158.851 15.7598 158.851 15.3856V11.1913H162.528V7.53528H158.851V3.51165L158.832 3.50509ZM178.307 10.8566C178.733 10.8566 179.134 10.955 179.502 11.1519C179.876 11.3489 180.158 11.5917 180.368 11.8871L183.126 8.99245C182.476 8.32294 181.708 7.85691 180.828 7.58779C179.948 7.31867 179.108 7.18083 178.307 7.18083C177.269 7.18083 176.284 7.34493 175.365 7.67968C174.446 8.01444 173.645 8.4936 172.968 9.11716C172.292 9.74072 171.754 10.489 171.366 11.362C170.979 12.235 170.782 13.213 170.782 14.2895C170.782 15.3659 170.979 16.3439 171.366 17.2169C171.754 18.0899 172.292 18.8382 172.968 19.4618C173.645 20.0853 174.446 20.5645 175.365 20.8992C176.284 21.234 177.263 21.3981 178.307 21.3981C179.108 21.3981 179.948 21.2602 180.828 20.9911C181.708 20.722 182.476 20.256 183.126 19.5865L180.368 16.6918C180.125 16.9675 179.836 17.2104 179.502 17.4138C179.167 17.6173 178.766 17.7223 178.307 17.7223C177.249 17.7223 176.429 17.4073 175.838 16.7771C175.253 16.147 174.958 15.32 174.958 14.296C174.958 13.2721 175.253 12.4516 175.838 11.8149C176.422 11.1848 177.243 10.8697 178.307 10.8697V10.8566ZM166.764 0.833606C166.094 0.833606 165.523 1.0699 165.05 1.5425C164.577 2.0151 164.341 2.58615 164.341 3.25566C164.341 3.92517 164.577 4.49622 165.05 4.96882C165.523 5.44142 166.094 5.67771 166.764 5.67771C167.433 5.67771 168.004 5.44142 168.477 4.96882C168.95 4.49622 169.186 3.92517 169.186 3.25566C169.186 2.58615 168.95 2.0151 168.477 1.5425C168.004 1.0699 167.433 0.833606 166.764 0.833606ZM164.676 21.0568H168.852V7.52215H164.676V21.0568ZM126.58 7.52215H121.924L119.613 11.1979L117.216 7.52215H112.285L116.796 13.8169L111.445 21.0568H116.323L119.501 16.5474L122.456 21.0568H127.387L122.18 13.8169L126.58 7.52215ZM193.133 15.1231H192.102C191.787 15.1231 191.393 15.1362 190.92 15.1624C190.447 15.1887 189.994 15.2675 189.554 15.3987C189.114 15.53 188.747 15.7269 188.438 15.9829C188.129 16.2455 187.978 16.6065 187.978 17.066C187.978 17.5648 188.188 17.9389 188.622 18.1818C189.049 18.4247 189.495 18.5428 189.961 18.5428C190.368 18.5428 190.762 18.4903 191.143 18.3787C191.524 18.2671 191.865 18.1096 192.161 17.9061C192.456 17.7027 192.693 17.4401 192.87 17.125C193.047 16.81 193.133 16.4358 193.133 16.0092V15.1165V15.1231ZM196.98 14.1779V21.0568H193.133V19.3567H193.08C192.614 20.0788 191.997 20.6039 191.228 20.9189C190.46 21.234 189.646 21.3915 188.792 21.3915C188.162 21.3915 187.552 21.3062 186.967 21.129C186.383 20.9517 185.864 20.6892 185.424 20.3347C184.978 19.9803 184.623 19.5471 184.367 19.0285C184.104 18.51 183.98 17.9061 183.98 17.2169C183.98 16.4358 184.124 15.7794 184.413 15.2412C184.702 14.703 185.089 14.2566 185.582 13.9022C186.074 13.5477 186.639 13.2786 187.269 13.0817C187.9 12.8848 188.556 12.7404 189.232 12.6485C189.909 12.5566 190.585 12.4975 191.268 12.4844C191.944 12.4647 192.575 12.4581 193.146 12.4581C193.146 11.7164 192.883 11.1257 192.351 10.6925C191.819 10.2593 191.196 10.0361 190.473 10.0361C189.751 10.0361 189.16 10.1805 188.596 10.4693C188.031 10.7581 187.525 11.1519 187.079 11.6508L184.853 9.36659C185.634 8.64457 186.54 8.09977 187.584 7.73876C188.622 7.37775 189.705 7.19396 190.815 7.19396C192.043 7.19396 193.047 7.34493 193.835 7.65343C194.623 7.96193 195.253 8.40827 195.733 9.00558C196.206 9.60288 196.534 10.3315 196.724 11.1913C196.908 12.0578 197 13.0555 197 14.1844L196.98 14.1779ZM86.9011 1.33902H82.5545V21.0568H94.9511V17.0463H86.9011V1.33902ZM105.68 7.52215H109.856V21.0568H105.844V19.2189H105.792C105.641 19.4814 105.45 19.7374 105.22 20C104.991 20.2625 104.708 20.4923 104.373 20.6958C104.038 20.8992 103.658 21.0699 103.231 21.1946C102.804 21.3259 102.338 21.3915 101.839 21.3915C100.782 21.3915 99.9215 21.2274 99.2649 20.9058C98.6083 20.5842 98.0962 20.1313 97.7351 19.5537C97.3739 18.976 97.131 18.3 97.0128 17.5189C96.8946 16.7378 96.8289 15.891 96.8289 14.9852V7.52215H101.005V14.1516C101.005 14.5389 101.018 14.9458 101.044 15.3659C101.071 15.786 101.156 16.1667 101.294 16.5212C101.432 16.8756 101.648 17.1644 101.937 17.3876C102.226 17.6108 102.64 17.7223 103.178 17.7223C103.717 17.7223 104.157 17.6239 104.485 17.427C104.82 17.2301 105.076 16.9741 105.253 16.6459C105.43 16.3242 105.549 15.9567 105.601 15.5432C105.654 15.1362 105.687 14.7095 105.687 14.2632V7.52215H105.68Z" fill="white"/>
</svg>
