<svg width="413" height="158" viewBox="0 0 413 158" fill="none" xmlns="http://www.w3.org/2000/svg">
<path fill-rule="evenodd" clip-rule="evenodd" d="M390.092 41.1548C387.531 39.68 384.286 38.9777 380.374 38.9777H367.902C362.868 38.9777 358.904 39.8731 355.94 41.664C353.045 43.4548 351.589 45.8953 351.589 48.9679V60.5032C351.589 63.1895 352.782 65.5597 355.378 67.5437C356.501 68.5094 358.202 69.2117 360.36 69.7209C362.5 70.23 365.078 70.4934 368.166 70.4934H379.462C380.83 70.4934 381.953 69.3697 381.953 68.0002V67.5262C381.953 65.788 381.093 64.8574 379.304 64.8574H366.657C360.5 64.8574 357.395 62.6101 357.395 58.0978H392.407C393.056 58.0978 393.495 57.852 393.88 57.2726C394.196 56.6932 394.319 55.9909 394.319 55.2886V47.6686C394.319 44.9121 392.916 42.6823 390.092 41.1372V41.1548ZM387.566 52.4794H358.325V49.1083C358.325 47.9847 359.325 47.0892 361.412 46.5098C363.237 45.9831 365.622 45.7373 368.586 45.7373H378.392C380.918 45.7373 383.04 46.0358 384.864 46.6854C386.689 47.335 387.566 48.0549 387.566 48.8801V52.4969V52.4794Z" fill="#4D4D4F"/>
<path fill-rule="evenodd" clip-rule="evenodd" d="M270.971 41.1548C268.481 39.68 265.376 38.9777 261.587 38.9777H250.712L204.105 39.0479C198.948 39.0479 195.089 39.8731 192.669 41.5411C190.687 42.8754 189.687 44.7365 189.687 47.1068V48.4938C189.687 51.4786 190.809 54.1298 193.02 55.5871C195.44 57.097 199.264 58.0978 204.579 58.0978H215.402C217.384 58.0978 218.875 58.0978 219.734 58.4841C220.664 58.9581 221.155 59.7482 221.155 60.8017V61.5391C221.155 62.8032 220.541 63.6635 219.419 64.1903C218.436 64.6643 216.945 64.8574 214.841 64.8574H157.149C151.395 64.8574 148.483 62.6101 148.483 58.0978H182.074C182.706 58.0978 183.232 57.852 183.53 57.2726C183.846 56.6932 184.039 55.9909 184.039 55.2886V47.6686C184.039 44.9121 181.215 42.6823 178.426 41.1372C175.812 39.6624 172.602 38.9601 168.708 38.9601H157.377C152.413 38.9601 148.518 39.8555 145.607 41.6464C142.765 43.4373 141.327 45.8778 141.327 48.9503V60.4856C141.327 63.1719 142.572 65.5422 145.045 67.5262C146.168 68.4918 147.834 69.1941 149.939 69.7033C152.044 70.2125 154.588 70.4758 157.622 70.4758H214.63C219.349 70.4758 222.751 69.6331 224.927 68.1056C226.891 66.6307 227.891 64.4536 227.891 61.4513V60.0467C227.891 57.5886 226.909 55.6573 224.804 54.2878C222.716 52.9359 219.647 52.4618 215.647 52.4618H204.632C201.808 52.4618 199.773 52.1107 198.615 51.8122C197.142 51.4084 196.405 50.2847 196.405 49.2839V48.2129C196.405 47.335 197.265 46.2816 198.37 46.0533C199.475 45.7549 201.194 45.7022 204.141 45.7022H233.504C232.75 46.8785 232.364 48.1778 232.364 49.6702V60.8192C232.364 63.4177 233.627 65.7002 236.135 67.6315C237.328 68.5621 238.977 69.2293 241.099 69.7384C243.239 70.23 245.87 70.4934 248.887 70.4934H260.201C261.833 70.4934 262.71 69.6331 262.71 67.9476V67.3682C262.71 65.9811 261.587 64.875 260.219 64.875H247.431C241.204 64.875 238.152 62.6276 238.152 58.1153H273.217C273.778 58.1153 274.269 57.8695 274.585 57.2902C274.9 56.7108 275.076 56.0085 275.076 55.3062V47.6862C275.076 44.9297 273.708 42.6999 270.919 41.1548H270.971ZM148.08 49.1083C148.08 47.9847 149.08 47.0892 151.167 46.5098C152.991 45.9831 155.377 45.7373 158.324 45.7373H168.129C170.637 45.7373 172.777 46.0358 174.602 46.6854C176.426 47.335 177.303 48.0549 177.303 48.8801V52.4969H148.062V49.1259L148.08 49.1083ZM268.393 52.4794H239.152V49.1083C239.152 47.9847 240.222 47.0892 242.292 46.5098C244.046 45.9831 246.379 45.7373 249.203 45.7373H259.236C261.692 45.7373 263.885 46.0358 265.639 46.6854C267.446 47.335 268.393 48.0549 268.393 48.8801V52.4969V52.4794Z" fill="#4D4D4F"/>
<path fill-rule="evenodd" clip-rule="evenodd" d="M317.455 42.2785C314.911 40.8563 311.123 40.1013 305.966 40.1013H294.967C289.635 40.1013 285.653 40.8388 283.11 42.4014C280.812 43.8235 279.637 45.9304 279.637 48.7045V67.93C279.637 69.3346 280.777 70.4934 282.198 70.4934H283.917C285.53 70.4934 286.39 69.6331 286.39 67.9476V48.6343C286.39 47.4579 287.144 46.5976 288.635 46.2114C289.81 45.8427 291.985 45.7198 295.09 45.7198H306.018C308.983 45.7198 311.105 45.9129 312.28 46.2114C313.771 46.6503 314.508 47.4404 314.508 48.6343V67.93C314.508 69.3346 315.648 70.4934 317.069 70.4934H318.718C320.121 70.4934 321.261 69.3522 321.261 67.9476V48.6519C321.261 45.8602 319.963 43.7006 317.472 42.2785H317.455Z" fill="#4D4D4F"/>
<path fill-rule="evenodd" clip-rule="evenodd" d="M346.853 40.1189H335.855V33.7455C335.855 31.9722 334.978 31.1119 333.364 31.1119H331.593C330.224 31.1119 329.102 32.218 329.102 33.6051V40.1189H327.155C325.751 40.1189 324.611 41.2601 324.611 42.6647V43.1915C324.611 44.5961 325.751 45.7373 327.155 45.7373H329.102V67.9476C329.102 69.3522 330.242 70.511 331.663 70.511H333.364C334.978 70.511 335.855 69.6331 335.855 67.9476V45.7549H346.853C348.221 45.7549 349.344 44.6487 349.344 43.2617V42.6121C349.344 41.2426 348.239 40.1189 346.853 40.1189Z" fill="#4D4D4F"/>
<path fill-rule="evenodd" clip-rule="evenodd" d="M135.468 40.1189H132.469C127.908 40.1189 124.347 40.9265 121.646 42.5945C119.015 44.2625 117.717 46.5625 117.717 49.5297L117.664 67.9651C117.664 69.6331 118.471 70.5109 120.155 70.5109H121.979C123.347 70.5109 124.47 69.3873 124.47 68.0178V49.5297C124.47 48.3534 124.979 47.4755 125.943 46.861C127.154 46.1236 129.276 45.7549 132.205 45.7549H135.398C137.117 45.7549 137.959 44.8945 137.959 43.2792V42.6121C137.959 41.2426 136.836 40.1189 135.468 40.1189Z" fill="#4D4D4F"/>
<path fill-rule="evenodd" clip-rule="evenodd" d="M59.2703 0C88.7916 0 112.945 24.1065 112.945 53.726C112.945 62.1536 110.963 70.1598 107.455 77.253H11.0855C7.57734 70.1598 5.59522 62.1536 5.59522 53.726C5.57768 24.1065 29.7315 0 59.2703 0Z" fill="#FFE800"/>
<path fill-rule="evenodd" clip-rule="evenodd" d="M117.997 77.253H78.2496C79.5476 77.253 80.6001 76.1996 80.6001 74.9003V69.3873H100.509C104.947 69.3873 108.297 68.6674 110.613 67.1575C113.103 65.6651 114.331 63.3124 114.331 60.1871V48.7747C114.331 45.948 113.156 43.7884 110.841 42.4014C108.367 40.8388 104.35 40.1189 98.9829 40.1189H89.2477C83.547 40.1189 79.4249 40.8914 76.9867 42.4892C74.9168 43.8586 73.8644 45.9304 73.8644 48.7747V74.8828C73.8644 76.182 74.9168 77.253 76.2324 77.253H0.525941C0.350532 77.253 0.210205 77.5164 0.210205 77.8149C0.210205 78.1133 0.350532 78.3767 0.525941 78.3767H117.997C118.173 78.3767 118.313 78.1309 118.313 77.8149C118.313 77.4988 118.173 77.253 117.997 77.253ZM80.6001 49.1435C80.6001 47.8442 81.3719 46.9663 82.8979 46.3869C84.1258 45.9655 86.1781 45.7373 88.9846 45.7373H98.8777C102.158 45.7373 104.438 45.9655 105.719 46.5098C106.964 46.9839 107.596 47.8442 107.596 49.0206V60.1696C107.596 61.4513 106.964 62.3994 105.684 62.9788C104.561 63.5055 102.807 63.7513 100.351 63.7513H80.6176V49.161L80.6001 49.1435Z" fill="#4D4D4F"/>
<path d="M412.649 115.932C412.421 115.651 412.105 115.528 411.649 115.528C411.474 115.528 411.228 115.581 410.878 115.669C409.369 116.371 407.843 117.038 406.334 117.723C404.773 118.39 403.23 119.128 401.669 119.918C401.283 118.46 400.949 117.038 400.669 115.669C400.388 114.334 400.23 112.93 400.23 111.437C400.23 108.681 400.616 105.889 401.423 103.063C401.423 102.167 401.213 101.5 400.774 101.043C400.353 100.569 399.809 100.359 399.143 100.359C399.02 100.359 398.827 100.411 398.546 100.464C398.336 100.517 397.459 100.938 396.897 101.886C396.371 102.694 395.705 103.818 394.705 105.082C394.582 105.24 394.442 105.415 394.319 105.573C394.056 105.363 393.67 105.257 393.179 105.257C390.6 105.889 387.952 106.592 385.25 107.382C382.531 108.172 379.953 109.12 377.497 110.261C377.427 110.191 377.427 110.138 377.427 110.086V109.506L376.989 108.382C376.655 107.873 376.217 107.61 375.726 107.61C374.954 107.61 374.129 108.207 373.287 109.383C372.41 110.542 371.586 111.947 370.779 113.562C369.972 115.195 369.306 116.88 368.762 118.601C368.218 120.339 367.937 121.814 367.937 123.025C367.937 123.412 367.955 123.78 368.008 124.132C367.359 124.377 366.71 124.641 366.061 124.887C364.745 125.396 363.412 125.8 362.026 126.08C362.5 123.693 362.868 121.726 363.201 120.181C363.517 118.654 363.657 117.267 363.657 116.002C363.657 114.967 363.552 114.018 363.342 113.141C363.114 112.263 362.728 111.35 362.237 110.384C361.71 109.436 361.061 108.418 360.272 107.311C359.465 106.205 358.483 104.871 357.343 103.343C356.729 103.01 356.132 102.852 355.641 102.852C354.992 102.852 354.466 103.08 354.01 103.519C353.536 104.256 352.905 105.433 352.133 107.066C351.309 108.663 350.502 110.419 349.66 112.245C348.8 114.071 347.958 115.827 347.134 117.53C346.713 118.443 345.345 120.585 344.064 122.551C343.082 124.044 342.152 125.413 341.661 126.045C341.574 126.098 341.503 126.151 341.416 126.203C340.854 126.625 340.363 126.835 339.942 126.835C339.644 126.835 339.434 126.607 339.276 126.151C339.1 125.694 338.96 125.15 338.837 124.535C338.732 123.886 338.662 123.289 338.644 122.639C338.627 122.025 338.592 121.498 338.592 121.094C338.592 119.461 338.749 117.881 339.013 116.406C339.258 114.914 339.381 113.685 339.381 112.737C339.381 111.947 339.135 111.279 338.697 110.805C338.241 110.314 337.697 110.068 337.101 110.068C336.381 110.068 335.75 110.489 335.136 111.315C334.487 112.14 333.873 113.141 333.277 114.317C332.68 115.476 332.084 116.705 331.452 117.986C330.821 119.251 330.225 120.304 329.646 121.182C329.137 121.99 328.47 122.745 327.681 123.499C326.892 124.237 326.225 125.009 325.734 125.8C325.734 125.8 325.366 126.344 324.875 126.625C324.471 125.203 324.278 123.517 324.278 121.551C324.278 118.829 324.576 116.02 325.12 113.105C325.664 110.191 326.295 107.698 326.997 105.608C327.102 105.257 327.172 105.029 327.172 104.906C327.172 104.45 327.015 104.116 326.734 103.853C326.453 103.607 326.12 103.484 325.804 103.484C325.296 103.484 324.875 103.765 324.541 104.344C324.033 105.187 323.471 106.469 322.892 108.154C322.296 109.84 321.752 111.648 321.244 113.615C321.016 114.528 320.805 115.423 320.612 116.318C320.472 116.406 320.332 116.494 320.191 116.582C319.647 116.933 319.156 117.337 318.718 117.723C318.262 118.109 317.928 118.425 317.683 118.671L317.876 119.251V118.987C317.876 118.987 317.174 115.581 317.314 113.878C317.437 112.21 317.525 110.507 317.525 108.821C317.174 107.452 316.385 106.785 315.157 106.785C314.368 106.785 313.824 107.031 313.526 107.505C313.245 107.979 312.736 108.699 311.982 109.664C311.368 108.558 310.421 107.979 309.123 107.979C307.93 107.979 306.79 108.382 305.65 109.243C304.878 109.805 303.948 110.665 302.913 111.824C301.949 113 300.966 114.264 300.019 115.651C299.089 117.038 298.318 118.443 297.686 119.9C297.107 121.322 296.792 122.604 296.757 123.745C296.581 123.903 296.388 124.061 296.213 124.202C295.459 124.799 294.722 125.325 294.09 125.782C293.441 126.203 292.95 126.519 292.617 126.695C292.196 126.976 291.863 127.151 291.547 127.204C291.231 127.257 290.933 127.292 290.652 127.292C289.582 127.292 288.881 126.73 288.547 125.554C288.197 124.395 288.039 123.219 288.039 122.042C289.284 121.691 290.389 121.147 291.371 120.374C292.371 119.619 293.266 118.724 294.09 117.706C294.915 116.687 295.616 115.581 296.318 114.405C296.967 113.211 297.563 112.017 298.125 110.858C298.37 110.402 298.598 109.787 298.739 109.015C298.914 108.242 298.967 107.487 298.967 106.697C298.967 105.327 298.721 104.116 298.142 103.098C297.581 102.062 296.493 101.535 294.915 101.535C293.336 101.535 291.915 102.062 290.67 103.098C289.424 104.134 288.372 105.415 287.442 106.908C286.548 108.4 285.794 109.963 285.197 111.596C284.741 112.895 284.355 114.054 284.039 115.054C282.32 114.44 280.514 113.86 278.602 113.299C277.953 111.315 276.988 109.524 275.795 107.873C274.567 106.258 273.252 104.713 271.831 103.308C270.375 101.869 268.937 100.569 267.446 99.3053C265.99 98.0762 264.657 96.8472 263.481 95.6884C262.271 94.5472 261.324 93.4059 260.535 92.2647C259.763 91.141 259.394 89.9822 259.394 88.7883C259.43 87.77 259.886 86.7867 260.64 85.8211C261.377 84.8554 262.306 84.0302 263.394 83.3104C264.481 82.6256 265.604 82.0462 266.762 81.6073C267.954 81.1859 269.024 80.9752 270.007 80.9752C270.726 80.9752 271.322 81.0279 271.778 81.0981C272.234 81.1859 272.655 81.2912 273.094 81.4317C273.515 81.5897 273.953 81.7653 274.462 81.9935C274.936 82.2394 275.55 82.5203 276.269 82.8539C277.497 82.8539 278.04 82.4149 278.04 81.5019C278.04 81.0454 277.795 80.6065 277.304 80.1325C274.059 78.6049 270.919 77.85 267.726 77.85C266.078 77.85 264.516 78.1133 262.955 78.6576C261.377 79.2019 259.991 79.9218 258.763 80.8699C257.518 81.8004 256.535 82.8539 255.799 84.0302C255.062 85.2417 254.676 86.5058 254.676 87.8578C254.676 89.2799 255.027 90.6845 255.693 92.054C256.377 93.441 257.254 94.8105 258.36 96.1625C259.465 97.5144 260.675 98.8488 261.973 100.166C263.253 101.5 264.534 102.782 265.779 104.028C267.025 105.257 268.147 106.486 269.165 107.715C270.182 108.927 270.919 110.068 271.375 111.157C269.007 110.647 266.867 110.226 265.043 109.91C263.166 109.612 261.359 109.453 259.622 109.453C257.412 109.453 255.307 109.752 253.308 110.366C251.308 110.981 249.554 111.894 248.01 113.088C246.484 114.282 245.274 115.739 244.362 117.46C243.467 119.18 243.029 121.112 243.029 123.271C243.029 125.132 243.432 126.783 244.309 128.17C245.134 129.592 246.309 130.768 247.8 131.699C249.291 132.629 251.027 133.332 252.992 133.806C254.974 134.297 257.079 134.526 259.359 134.526C262.043 134.526 264.639 134.262 267.165 133.718C269.656 133.174 271.919 132.331 273.848 131.19C275.813 129.996 277.374 128.521 278.514 126.695C279.689 124.851 280.233 122.639 280.233 120.023C280.233 119.567 280.215 119.093 280.145 118.548C280.023 118.004 280.005 117.512 280.005 117.038C281.128 117.389 282.25 117.741 283.39 118.074C283.32 118.741 283.32 119.391 283.285 120.006C283.25 120.796 283.25 121.129 283.39 121.972C283.513 123.148 283.513 124.29 283.794 125.396C284.057 126.519 284.531 127.467 285.109 128.31C285.688 129.171 286.443 129.838 287.355 130.347C288.267 130.874 289.319 131.137 290.582 131.137C291.108 131.137 291.828 130.891 292.652 130.452C293.459 129.996 293.968 129.732 294.125 129.68C294.652 129.451 295.353 128.942 296.3 128.152C296.879 127.661 297.458 127.116 298.019 126.59C298.3 126.73 298.598 126.818 298.932 126.818C299.212 126.818 299.475 126.8 299.703 126.73C302.107 125.835 304.334 124.448 306.299 122.587C308.281 120.725 310.175 118.829 312.21 116.915V121.656C311.947 122.516 312 123.341 312.07 124.114L310.877 125.642C309.807 126.941 308.684 128.433 307.474 130.136C306.299 131.839 305.176 133.613 304.159 135.456C303.071 137.335 302.194 139.178 301.387 141.057C300.598 142.918 300.072 144.621 299.774 146.149C299.686 146.939 299.563 147.711 299.44 148.449C299.335 149.169 299.265 149.924 299.265 150.661C299.265 151.451 299.388 152.276 299.616 153.137C299.844 154.014 300.247 154.787 300.791 155.507C301.352 156.209 302.107 156.806 303.071 157.263C304.036 157.702 305.299 157.912 306.807 157.912C308.158 157.912 309.404 157.614 310.579 156.982C311.719 156.367 312.719 155.559 313.613 154.541C314.49 153.523 315.21 152.399 315.823 151.135C316.402 149.924 316.788 148.695 317.034 147.518C317.367 145.604 317.613 143.761 317.753 142.023C317.876 140.267 317.928 138.529 317.928 136.755C317.928 134.613 317.876 132.471 317.683 130.329C317.507 128.187 317.367 126.01 317.279 123.816C317.841 123.131 318.42 122.464 318.998 121.814C319.226 121.568 319.472 121.305 319.7 121.059C319.56 122.288 319.472 123.412 319.472 124.395C319.472 125.8 319.63 126.993 319.928 127.942C320.244 128.907 320.647 129.68 321.138 130.277C321.594 130.874 322.138 131.295 322.735 131.558C323.313 131.804 323.892 131.927 324.471 131.927C325.436 131.927 326.401 131.646 327.453 131.119C328.488 130.593 329.488 129.89 330.4 129.048C331.365 128.187 332.242 127.257 333.049 126.203C333.873 125.167 334.505 124.132 335.048 123.131C335.154 123.517 335.294 124.096 335.487 124.869C335.645 125.642 335.89 126.379 336.241 127.116C336.557 127.854 337.013 128.468 337.539 129.013C338.065 129.557 338.732 129.82 339.504 129.82C339.819 129.82 340.223 129.75 340.732 129.61C341.24 129.469 341.749 129.258 342.24 128.942C342.521 128.767 342.766 128.591 343.012 128.398C343.503 128.1 345.713 125.747 346.485 124.693C347.801 122.92 349.327 120.708 349.695 120.076C350.291 119.075 350.888 117.969 351.519 116.828C352.133 115.651 352.73 114.563 353.256 113.474C353.782 112.421 354.291 111.455 354.747 110.647C355.185 109.822 355.519 109.243 355.764 108.909C356.729 110.437 357.378 111.841 357.764 113.158C358.185 114.457 358.378 115.88 358.378 117.389C358.378 118.408 358.29 119.514 358.132 120.778C358.009 121.744 357.799 122.709 357.536 123.658C357.255 124.641 357.115 125.571 357.115 126.537C357.115 127.38 357.43 128.31 357.992 129.293C358.588 130.277 360.43 131.242 360.43 131.242H361.377C362.096 130.961 363.079 130.54 364.306 130.013C365.534 129.487 366.71 128.907 367.885 128.275C368.411 127.977 368.902 127.696 369.376 127.415C370.165 128.433 371.025 128.995 371.954 129.118C372.621 128.995 373.27 128.96 373.901 128.96C374.533 128.96 375.164 128.855 375.726 128.591C377.059 128.1 378.252 127.292 379.304 126.186C380.391 125.097 381.233 123.903 381.953 122.569C382.654 121.287 383.18 119.953 383.584 118.636C383.97 117.302 384.163 116.213 384.163 115.37C384.163 114.317 383.917 113.351 383.426 112.473C385.163 111.648 386.882 110.823 388.601 110.086C389.671 109.612 390.758 109.155 391.846 108.681C391.688 108.874 391.548 109.067 391.39 109.278C390.197 110.788 389.039 112.386 387.934 114.054C386.811 115.704 385.934 117.302 385.25 118.829V119.251C385.25 119.69 385.373 120.058 385.636 120.339C385.882 120.638 386.198 120.796 386.583 120.796C387.04 120.796 387.408 120.567 387.741 120.111C388.706 118.46 389.846 116.933 391.179 115.528C392.547 114.106 393.863 112.737 395.214 111.367C395.214 113.141 395.354 114.896 395.652 116.722C395.915 118.531 396.231 120.444 396.564 122.499C396.055 122.78 395.442 123.183 394.687 123.675C393.933 124.184 393.161 124.781 392.425 125.448C391.653 126.133 391.021 126.835 390.477 127.573C389.951 128.31 389.671 128.995 389.671 129.68C389.671 130.803 390.092 131.716 390.916 132.436C391.758 133.139 392.846 133.49 394.126 133.49C394.95 133.49 395.88 133.332 396.845 132.998C397.757 132.665 398.652 132.103 399.441 131.277C400.265 130.505 400.914 129.451 401.476 128.187C402.037 126.906 402.265 125.378 402.265 123.57C403.16 123.008 404.212 122.411 405.457 121.779C406.685 121.164 407.825 120.567 408.931 119.97C410.018 119.391 410.948 118.794 411.737 118.25C412.526 117.688 412.912 117.214 412.912 116.81C412.912 116.476 412.79 116.143 412.561 115.88L412.649 115.932ZM274.146 123.816C273.69 124.922 272.883 125.817 271.796 126.572C270.322 127.52 268.446 128.345 266.165 128.995C263.867 129.645 261.534 129.978 259.096 129.978C257.746 129.978 256.377 129.855 255.027 129.592C253.659 129.329 252.431 128.925 251.326 128.328C250.238 127.713 249.344 126.941 248.659 125.993C247.993 125.045 247.66 123.903 247.66 122.534C247.66 120.778 248.186 119.373 249.256 118.285C250.326 117.231 251.606 116.371 253.062 115.757C254.536 115.125 256.062 114.703 257.553 114.492C259.096 114.264 260.307 114.141 261.201 114.141C262.955 114.141 264.674 114.229 266.376 114.44C268.06 114.633 269.709 114.879 271.305 115.16L273.813 115.669C274.111 116.424 274.339 117.161 274.55 118.022C274.743 118.829 274.83 119.637 274.83 120.444C274.83 121.638 274.585 122.762 274.146 123.868V123.816ZM290.828 112.157C291.284 111.157 291.775 110.208 292.371 109.331C292.933 108.453 293.476 107.786 294.055 107.347C294.055 107.926 293.95 108.523 293.704 109.208C293.476 109.892 293.248 110.56 292.95 111.297C292.67 111.999 292.371 112.649 292.021 113.246C291.652 113.843 291.371 114.334 291.161 114.738C290.565 115.739 290.038 116.547 289.565 117.179C289.372 117.109 289.179 117.038 288.986 116.951C289.144 116.424 289.319 115.88 289.53 115.3C289.933 114.229 290.372 113.176 290.828 112.157ZM310.123 112.333C308.772 113.983 307.264 115.563 305.597 117.126C304.176 118.443 303.001 119.514 302.071 120.357C302.019 120.269 301.949 120.181 301.878 120.093C302.124 119.531 302.422 118.864 302.773 118.092C303.247 116.968 303.861 115.862 304.527 114.791C305.246 113.702 305.966 112.789 306.79 112.034C307.597 111.279 308.491 110.911 309.474 110.911C309.807 110.911 310.438 111.437 310.14 112.333H310.123ZM312.701 138.897C312.666 139.67 312.631 140.442 312.578 141.233C312.438 142.198 312.333 143.339 312.193 144.656C312.052 145.991 311.772 147.255 311.333 148.431C310.912 149.625 310.298 150.643 309.509 151.486C308.737 152.329 307.667 152.75 306.299 152.75C305.457 152.75 304.86 152.504 304.492 151.995C304.194 151.469 304.001 150.819 304.001 150.029C304.001 149.344 304.089 148.642 304.264 147.869C304.422 147.097 304.597 146.377 304.825 145.675C305.001 144.972 305.211 144.323 305.404 143.761C305.58 143.199 305.773 142.795 305.86 142.585C306.72 140.39 307.685 138.178 308.755 135.965C309.807 133.771 311.052 131.699 312.456 129.715C312.649 131.997 312.701 134.297 312.701 136.562C312.701 137.352 312.701 138.142 312.666 138.88L312.701 138.897ZM378.55 115.195C378.55 115.335 378.409 115.809 378.076 116.652C377.76 117.495 377.357 118.408 376.866 119.373C376.34 120.339 375.708 121.217 375.006 122.042C374.252 122.867 373.41 123.324 372.551 123.447C372.551 121.691 372.656 119.883 372.954 118.039C373.217 116.231 373.761 114.475 374.568 112.842C374.726 113.632 375.287 114.264 376.252 114.791C376.533 114.914 376.901 114.967 377.357 114.914C377.795 114.896 378.199 114.914 378.532 115.054V115.195H378.55Z" fill="#8DC63F"/>
</svg>
