<svg width="590" height="558" viewBox="0 0 590 558" fill="none" xmlns="http://www.w3.org/2000/svg">
<g style="mix-blend-mode:difference" opacity="0.1">
<path d="M397.592 62.4354C357.006 32.6545 309.155 16.9803 259.049 16.9803C126.017 16.9803 17.7876 129.834 17.7876 268.55C17.7876 394.205 107.728 501.312 226.981 518.031C227.732 518.031 228.233 518.292 228.985 518.292C229.987 518.292 230.739 518.292 231.741 518.031C236 529.786 246.021 538.929 258.798 540.758C260.301 541.019 262.055 541.019 263.558 541.019C280.344 541.019 294.624 527.958 297.129 510.716C298.382 501.312 296.127 492.168 290.615 484.592C285.104 477.017 277.337 472.314 268.318 471.008C266.815 470.747 265.061 470.747 263.558 470.747C251.282 470.747 240.259 477.8 234.246 488.511C233.244 487.989 232.242 487.727 230.989 487.727C126.267 472.837 47.6007 378.792 47.6007 268.55C47.6007 146.815 142.552 47.8062 259.299 47.8062C303.142 47.8062 344.981 61.6517 380.806 87.7752C387.571 92.7387 396.59 90.9101 401.35 84.118C406.11 77.0646 404.356 67.3989 397.592 62.4354ZM248.777 503.663C249.779 496.087 256.042 490.34 263.308 490.34C264.059 490.34 264.811 490.34 265.312 490.601C273.329 491.907 279.091 499.483 277.838 508.104C276.836 515.68 270.573 521.427 263.308 521.427C262.556 521.427 261.804 521.427 261.303 521.165C253.286 519.859 247.775 512.022 248.777 503.663Z" fill="#959595"/>
<path d="M492.793 468.135C489.786 468.135 486.53 467.09 484.024 464.739C478.513 459.775 478.012 450.893 482.772 445.146C523.107 397.079 545.404 335.166 545.404 271.163C545.404 205.854 522.355 143.418 480.767 94.8286C475.757 89.0814 476.258 80.1994 481.77 75.2359C487.281 70.0112 495.799 70.5336 500.559 76.2808C546.657 129.834 571.96 199.062 571.96 271.163C571.96 341.958 547.408 410.14 502.564 463.433C500.058 466.567 496.551 468.135 492.793 468.135Z" fill="#959595"/>
<path d="M392.329 386.629C389.574 386.629 386.818 385.846 384.312 383.756C378.3 379.053 377.298 370.433 381.557 364.163C401.349 336.472 411.871 303.295 411.871 268.551C411.871 234.067 401.348 201.152 381.807 173.461C377.298 167.191 378.55 158.57 384.563 154.129C390.576 149.427 398.843 150.733 403.102 157.003C426.151 189.657 438.427 228.059 438.427 268.812C438.427 309.565 426.151 348.489 402.601 381.143C400.346 384.539 396.338 386.629 392.329 386.629Z" fill="#959595"/>
<path d="M452.459 115.989C447.699 109.98 439.431 109.197 433.669 114.16C427.907 119.124 427.155 127.744 431.915 133.753C461.979 171.632 478.514 219.438 478.514 268.812C478.514 335.689 448.2 398.647 397.092 438.616L332.956 357.632C356.506 335.95 371.287 304.601 371.287 269.335C371.287 252.877 368.03 237.202 362.268 223.096C365.274 218.655 367.529 213.169 368.281 207.421C370.786 188.09 358.009 170.326 339.47 167.452C337.966 167.191 336.213 167.191 334.709 167.191C317.924 167.191 303.644 180.253 301.138 197.494C299.886 206.899 302.14 216.042 307.652 223.618C313.164 231.194 320.93 235.896 329.949 237.202C331.453 237.464 333.206 237.464 334.709 237.464C337.716 237.464 340.472 236.941 343.478 236.157C347.236 246.346 349.24 257.318 349.24 268.812C349.24 320.798 308.654 363.118 258.799 363.118C238.756 363.118 220.217 356.326 205.436 344.832C206.939 341.436 208.191 337.778 208.693 334.121C209.945 324.717 207.69 315.573 202.179 307.998C196.667 300.422 188.901 295.719 179.882 294.413C178.378 294.152 176.625 294.152 175.121 294.152C158.336 294.152 144.056 307.214 141.55 324.455C139.045 343.787 151.822 361.551 170.361 364.425C171.865 364.686 173.618 364.686 175.121 364.686C180.132 364.686 184.892 363.641 189.151 361.551C208.442 377.225 232.493 386.63 258.799 386.63C279.342 386.63 298.382 380.882 314.918 370.955L388.323 463.172C390.828 466.568 394.837 468.397 398.595 468.397C401.1 468.397 403.856 467.613 406.111 465.784C468.242 420.852 505.07 347.183 505.07 268.551C505.07 213.169 486.531 158.832 452.459 115.989ZM334.709 218.132C333.958 218.132 333.206 218.132 332.705 217.871C324.688 216.565 318.926 208.989 320.179 200.368C321.181 192.792 327.444 187.045 334.709 187.045C335.461 187.045 336.213 187.045 336.714 187.306C344.731 188.612 350.493 196.188 349.24 204.809C348.238 212.385 341.975 218.132 334.709 218.132ZM189.652 331.77C188.65 339.346 182.387 345.093 175.121 345.093C174.37 345.093 173.618 345.093 173.117 344.832C165.1 343.526 159.338 335.95 160.591 327.329C161.593 319.753 167.856 314.006 175.121 314.006C175.873 314.006 176.625 314.006 177.126 314.267C185.143 315.573 190.654 323.41 189.652 331.77Z" fill="#959595"/>
</g>
</svg>
