<svg width="14" height="14" viewBox="0 0 14 14" fill="none" xmlns="http://www.w3.org/2000/svg">
<path d="M6.34375 9.375C6.15625 9.5625 5.8125 9.5625 5.625 9.375L3.625 7.375C3.4375 7.1875 3.4375 6.84375 3.625 6.65625C3.8125 6.46875 4.15625 6.46875 4.34375 6.65625L6 8.3125L9.625 4.65625C9.8125 4.46875 10.1562 4.46875 10.3438 4.65625C10.5312 4.84375 10.5312 5.1875 10.3438 5.375L6.34375 9.375ZM0 2C0 0.90625 0.875 0 2 0H12C13.0938 0 14 0.90625 14 2V12C14 13.125 13.0938 14 12 14H2C0.875 14 0 13.125 0 12V2ZM1 2V12C1 12.5625 1.4375 13 2 13H12C12.5312 13 13 12.5625 13 12V2C13 1.46875 12.5312 1 12 1H2C1.4375 1 1 1.46875 1 2Z" fill="#47BCCA"/>
</svg>
