<svg width="82" height="29" viewBox="0 0 82 29" fill="none" xmlns="http://www.w3.org/2000/svg">
<path d="M24.4093 6.96157C26.3933 6.96157 27.285 7.80209 27.285 10.1871V19.019C27.285 22.0611 24.2472 23.5544 21.1453 23.5544C18.0435 23.5544 15.2147 22.0611 15.2147 19.019V6.96157C16.5417 6.96157 18.0606 7.39677 18.0606 9.8202L18.0862 18.3193C18.0862 19.9747 19.332 20.8025 21.2392 20.8025C23.1464 20.8025 24.4178 19.9747 24.4178 18.3193L24.405 6.96157H24.4093ZM31.1335 23.3411H33.9921V13.1226C33.9921 10.9509 35.1611 9.6538 37.367 9.6538H38.2203C40.7248 9.6538 41.1387 8.35675 41.1387 6.95731H37.1281C33.5825 6.95731 31.1335 9.00101 31.1335 13.2164V23.3368V23.3411ZM4.93647 13.3359C3.97648 13.0714 3.09756 12.649 3.09756 11.4756C3.09756 10.3023 3.83995 9.65807 5.393 9.65807H8.50336C9.88574 9.65807 11.5199 9.20154 11.5241 6.96157H5.66606C2.05651 6.96584 0 8.78768 0 11.3946C0 13.8266 1.53598 15.1919 4.29221 15.9215L7.34284 16.7236C8.59722 17.0649 9.04948 17.8542 9.04948 18.6606C9.04948 19.8894 8.26869 20.6318 6.37858 20.6403L0.537594 20.6873V23.3326H6.47672C10.082 23.3326 12.147 21.3955 12.147 18.8484C12.147 16.3012 11.1444 15.0212 8.44362 14.2873L4.94074 13.3274L4.93647 13.3359ZM55.6963 9.29114V23.3411C53.8916 23.3411 52.9828 22.8248 52.7737 21.1523C52.7737 21.1523 51.5151 23.6526 47.9226 23.6526C43.5536 23.6526 40.9637 20.1795 41.1045 15.2175C41.2581 9.76474 44.8378 6.96157 48.6351 6.95731H49.3604H55.6963V9.28688V9.29114ZM52.6116 9.58981H49.3135V9.58127C49.1386 9.59834 48.9508 9.60687 48.7546 9.60687C46.2629 9.60687 44.3813 11.3306 44.2661 15.2473C44.1509 19.3347 45.9599 21.0329 48.4815 21.0329C51.306 21.0329 52.6116 18.874 52.6116 16.6084V9.58981Z" fill="#0033A0"/>
<path fill-rule="evenodd" clip-rule="evenodd" d="M70.9022 24.4205C70.9364 24.4291 70.9577 24.4504 70.9534 24.5101C70.6505 24.9112 70.1385 25.372 69.4857 25.8413C68.8329 26.3021 68.0649 26.7458 67.2671 27.1298C66.4266 27.5309 65.6884 27.868 64.9119 28.077C64.0415 28.2989 63.2821 28.3799 62.6549 28.3074C62.1472 28.2562 61.7248 28.1026 61.409 27.8381C61.392 27.8296 61.3877 27.7954 61.3877 27.7741C61.3962 27.74 61.4261 27.7101 61.4688 27.7016C63.4186 27.3858 65.2148 26.908 66.8788 26.332C68.53 25.7688 69.8996 25.116 70.9108 24.4248" fill="#00AEC7"/>
<path fill-rule="evenodd" clip-rule="evenodd" d="M70.7529 23.4776C69.6863 24.1048 67.5274 25.0307 65.6287 25.5555C63.3717 26.1954 61.5669 26.5069 60.3594 26.3362C59.2928 26.1826 58.768 25.6749 58.6059 25.4957C58.5803 25.4787 58.5547 25.4531 58.5632 25.4189C58.576 25.3805 58.5973 25.3507 58.6485 25.3421L59.0581 25.3123C59.9541 25.2525 61.5669 25.2099 63.457 24.9368C65.6287 24.6211 69.1188 24.0024 70.7188 23.3752C70.7529 23.3837 70.77 23.4136 70.7486 23.4733" fill="#00AEC7"/>
<path fill-rule="evenodd" clip-rule="evenodd" d="M70.5611 26.2552C70.5867 26.2595 70.6208 26.2808 70.608 26.3405C70.2155 27.2792 69.7675 27.9874 68.8928 28.4269C67.3568 29.1949 66.5504 28.7554 66.4438 28.7042C66.4224 28.6872 66.3926 28.6573 66.3926 28.6189C66.4054 28.5848 66.431 28.5549 66.4651 28.5549C67.135 28.3458 69.1488 27.5992 70.5099 26.268C70.5269 26.2595 70.544 26.2552 70.5611 26.2552Z" fill="#00AEC7"/>
<path fill-rule="evenodd" clip-rule="evenodd" d="M80.7156 11.7871C80.7412 11.7999 80.754 11.8212 80.754 11.8426C80.7454 11.8767 80.7241 11.8938 80.6772 11.8895C80.2164 11.7572 79.2479 11.4884 78.0105 11.1514C75.2031 10.3834 64.5792 7.53329 64.4 7.48636L64.3488 7.46929C63.7174 7.26876 63.1926 6.95303 62.7873 6.51783C62.6721 6.39837 62.5654 6.25757 62.4673 6.10824C62.1131 5.56211 62.0235 4.77706 62.0107 4.62346C62.0107 4.60639 62.0107 4.57226 62.0363 4.55946C62.0534 4.53813 62.0833 4.52533 62.1387 4.54239L63.8753 5.22078C68.0011 6.82076 78.9321 11.066 80.7156 11.7914" fill="#00AEC7"/>
<path fill-rule="evenodd" clip-rule="evenodd" d="M78.9319 10.1061C78.9489 10.1743 78.9148 10.1957 78.8636 10.1829C78.2364 9.86713 76.8284 9.19727 75.4076 8.48475C74.213 7.89169 66.0083 4.02614 65.4536 3.74454L64.4808 3.24108C64.3315 3.17282 64.1992 3.08748 64.0712 3.00215C63.6872 2.77175 63.4825 2.60109 63.2734 2.33229C63.107 2.11043 62.9619 1.83737 62.8595 1.5771C62.6249 0.98831 62.6377 0.216054 62.6462 0.0752554C62.6462 0.0539224 62.6547 0.0283229 62.6931 0.0112564C62.7102 -0.00154341 62.7401 -0.00581002 62.787 0.0112564L63.8153 0.629915L64.3614 0.975511L67.3651 2.80162C71.5549 5.41705 77.4172 9.13754 78.9361 10.1018" fill="#00AEC7"/>
<path fill-rule="evenodd" clip-rule="evenodd" d="M81.9524 12.9263C81.978 12.9263 81.9993 12.9562 81.9993 12.986C81.9993 13.0159 81.9652 13.033 81.9311 13.033C80.314 12.9135 65.7521 11.898 65.7521 11.898C65.6283 11.881 65.5131 11.8724 65.3851 11.8298C64.2289 11.4628 63.559 10.5754 63.286 9.68366C63.2817 9.64953 63.2689 9.61966 63.286 9.58553C63.303 9.55993 63.35 9.54287 63.3798 9.54713C63.3798 9.54713 80.5359 12.666 81.9524 12.9263Z" fill="#00AEC7"/>
<path fill-rule="evenodd" clip-rule="evenodd" d="M81.2273 13.9034C81.2572 13.9034 81.2871 13.9375 81.2871 13.9673C81.2743 13.9887 81.2572 14.0057 81.2273 14.0143C80.63 14.1081 69.5624 15.6185 69.4899 15.6271C69.4174 15.6356 69.3619 15.6441 69.2894 15.6441C69.2382 15.6441 69.1742 15.6441 69.1059 15.6356C68.5896 15.5801 68.0734 15.3284 67.6126 14.842C67.3736 14.5945 67.1646 14.1892 67.1134 14.0313C67.0963 14.0057 67.0963 13.9887 67.1134 13.9588C67.1347 13.9332 67.1603 13.9204 67.1774 13.9204C67.1774 13.9204 70.8936 13.9076 73.236 13.9119C74.9767 13.9204 76.8455 13.9204 78.3474 13.9204C79.67 13.9204 80.7153 13.9204 81.2273 13.9076" fill="#00AEC7"/>
<path fill-rule="evenodd" clip-rule="evenodd" d="M80.3952 15.0383C80.4166 15.0383 80.4592 15.034 80.4678 15.0553C80.4678 15.0724 80.5019 15.1022 80.4464 15.1321C80.088 15.3753 72.1265 18.6521 72.0497 18.6819C71.6103 18.827 71.1239 18.9038 70.7698 18.3022C70.6204 18.0547 70.4924 17.8542 70.4284 17.7561C70.4114 17.7219 70.3218 17.6238 70.5564 17.5684C70.5564 17.5684 72.7964 16.9668 74.7932 16.4633C77.0929 15.8873 79.6998 15.2302 80.3867 15.0383" fill="#00AEC7"/>
<path fill-rule="evenodd" clip-rule="evenodd" d="M76.8837 20.5294C76.9136 20.5379 76.9306 20.5635 76.9221 20.6233C76.1456 21.5107 73.3125 24.6296 72.024 25.9992C71.8918 26.1357 71.8278 26.0717 71.8747 25.9352C71.8747 25.9352 72.1222 25.3251 72.2246 24.8557C72.28 24.5699 72.3483 24.3352 72.5104 24.2072C74.1701 22.8078 75.7786 21.4168 76.8325 20.5465L76.8794 20.5294H76.8837Z" fill="#00AEC7"/>
<path fill-rule="evenodd" clip-rule="evenodd" d="M79.4992 16.5828C79.5376 16.5913 79.559 16.6169 79.5376 16.6852C78.7654 17.3294 75.2028 20.2947 73.287 21.8648L73.2188 21.9203C72.6598 22.347 72.2887 22.4408 72.2332 21.5192C72.2119 21.3059 72.182 21.1182 72.182 21.1182C72.1436 20.9262 72.2119 20.9262 72.2801 20.8835C72.9073 20.4995 74.1062 19.8339 75.0534 19.2665C76.7515 18.251 78.7398 17.0521 79.5078 16.587" fill="#00AEC7"/>
</svg>
