<svg width="148" height="53" viewBox="0 0 148 53" fill="none" xmlns="http://www.w3.org/2000/svg">
<path d="M44.0622 12.572C47.6417 12.572 49.2533 14.0906 49.2533 18.3906V34.328C49.2533 39.8135 43.7755 42.5175 38.1738 42.5175C32.5721 42.5175 27.474 39.8213 27.474 34.328V12.5642C29.8681 12.5642 32.6108 13.3468 32.6108 17.7243L32.6573 33.0651C32.6573 36.0558 34.9042 37.5434 38.3443 37.5434C41.7843 37.5434 44.0777 36.0481 44.0777 33.0651L44.0544 12.5642L44.0622 12.572ZM56.2031 42.1379H61.3632V23.6902C61.3632 19.7698 63.4706 17.4299 67.453 17.4299H68.9949C73.5119 17.4299 74.2634 15.09 74.2634 12.5642H67.0192C60.6194 12.5642 56.2031 16.2522 56.2031 23.8684V42.1302V42.1379ZM8.91779 24.0776C7.18227 23.5972 5.59397 22.8379 5.59397 20.715C5.59397 18.5921 6.93436 17.4299 9.73909 17.4299H15.3486C17.8434 17.4299 20.7876 16.6009 20.8031 12.5642H10.2272C3.71122 12.572 0 15.8648 0 20.5678C0 24.9608 2.77373 27.4169 7.74013 28.7418L13.2411 30.1907C15.5035 30.8027 16.3248 32.2284 16.3248 33.685C16.3248 35.9009 14.9224 37.2412 11.5056 37.2567L0.968485 37.342V42.1224H11.6838C18.192 42.1224 21.9187 38.6281 21.9187 34.0259C21.9187 29.4236 20.1058 27.1148 15.2323 25.7976L8.91006 24.0621L8.91779 24.0776ZM100.537 16.7791V42.1379C97.2747 42.1379 95.6399 41.2082 95.2602 38.1865C95.2602 38.1865 92.9823 42.6957 86.4974 42.6957C78.61 42.6957 73.938 36.4277 74.1937 27.4712C74.4726 17.6236 80.9344 12.572 87.7912 12.5642H89.1006H100.537V16.7713V16.7791ZM94.9658 17.3214H89.0154V17.3059C88.6978 17.3369 88.3568 17.3524 88.0082 17.3524C83.5144 17.3524 80.1131 20.4593 79.9039 27.5331C79.6947 34.9169 82.9566 37.9695 87.5123 37.9695C92.6104 37.9695 94.9658 34.0801 94.9658 29.9815V17.3137V17.3214Z" fill="white"/>
<path fill-rule="evenodd" clip-rule="evenodd" d="M127.972 44.0826C128.034 44.0904 128.073 44.1368 128.057 44.2453C127.507 44.9736 126.585 45.8026 125.407 46.6472C124.23 47.4762 122.843 48.282 121.402 48.9715C119.883 49.6998 118.551 50.3042 117.156 50.6761C115.591 51.0789 114.212 51.2184 113.081 51.0867C112.159 50.9937 111.407 50.7148 110.834 50.2422C110.803 50.2267 110.795 50.1647 110.795 50.126C110.81 50.064 110.865 50.0097 110.934 49.9942C114.452 49.4286 117.698 48.5609 120.697 47.5227C123.68 46.5077 126.151 45.3223 127.972 44.0826Z" fill="white"/>
<path fill-rule="evenodd" clip-rule="evenodd" d="M127.701 42.3781C125.779 43.5093 121.874 45.1828 118.457 46.1358C114.39 47.298 111.128 47.8558 108.951 47.5459C107.029 47.267 106.076 46.3527 105.789 46.0273C105.743 45.9963 105.697 45.9576 105.712 45.8879C105.735 45.8181 105.774 45.7639 105.867 45.7484L106.603 45.6942C108.222 45.5857 111.128 45.5082 114.545 45.0201C118.465 44.4467 124.764 43.3311 127.654 42.1999C127.716 42.2154 127.747 42.2696 127.708 42.3781" fill="white"/>
<path fill-rule="evenodd" clip-rule="evenodd" d="M127.359 47.391C127.406 47.3987 127.468 47.4374 127.444 47.5382C126.739 49.2272 125.926 50.5056 124.353 51.3036C121.579 52.6905 120.13 51.8925 119.929 51.8072C119.89 51.7763 119.844 51.722 119.844 51.6523C119.867 51.5903 119.913 51.5361 119.975 51.5361C121.184 51.1642 124.818 49.8083 127.282 47.4065C127.313 47.3987 127.344 47.3832 127.367 47.3832" fill="white"/>
<path fill-rule="evenodd" clip-rule="evenodd" d="M145.683 21.2806C145.73 21.3038 145.753 21.3426 145.753 21.3813C145.737 21.4433 145.699 21.4743 145.613 21.4665C144.784 21.2264 143.033 20.746 140.802 20.1339C135.735 18.747 116.559 13.6024 116.233 13.5172L116.14 13.4862C115.002 13.1298 114.056 12.5565 113.32 11.7662C113.119 11.5493 112.917 11.2936 112.739 11.0224C112.096 10.0384 111.941 8.61281 111.91 8.34163C111.91 8.31064 111.91 8.24866 111.957 8.22542C111.988 8.18668 112.042 8.17118 112.143 8.19442L115.28 9.41859C122.726 12.3008 142.46 19.9635 145.675 21.2728" fill="white"/>
<path fill-rule="evenodd" clip-rule="evenodd" d="M142.461 18.2434C142.484 18.3674 142.437 18.4061 142.337 18.3829C141.205 17.8095 138.664 16.6009 136.1 15.3147C133.946 14.2378 119.132 7.26468 118.132 6.76107L116.373 5.85456C116.102 5.7306 115.87 5.57564 115.63 5.42843C114.932 5.01004 114.568 4.70013 114.189 4.21201C113.886 3.81687 113.631 3.31326 113.445 2.84839C113.019 1.78693 113.05 0.392308 113.057 0.136628C113.057 0.0978889 113.073 0.0514019 113.143 0.0204104C113.174 -0.00283324 113.228 -0.0105811 113.313 0.0204104L115.165 1.1361L116.149 1.75594L121.565 5.05653C129.126 9.77499 139.71 16.4924 142.453 18.2279" fill="white"/>
<path fill-rule="evenodd" clip-rule="evenodd" d="M147.923 23.3338C147.969 23.3338 148 23.388 148 23.4422C148 23.4965 147.938 23.5274 147.876 23.5274C144.955 23.3105 118.674 21.482 118.674 21.482C118.45 21.451 118.24 21.4355 118.008 21.358C115.924 20.6995 114.707 19.0957 114.219 17.4841C114.212 17.4221 114.196 17.3679 114.219 17.3059C114.25 17.2594 114.336 17.2284 114.39 17.2362C114.39 17.2362 145.35 22.8689 147.915 23.3415" fill="white"/>
<path fill-rule="evenodd" clip-rule="evenodd" d="M146.613 25.1003C146.668 25.1003 146.722 25.1546 146.722 25.2088C146.699 25.2476 146.668 25.2785 146.613 25.294C145.536 25.4645 125.555 28.184 125.423 28.2072C125.291 28.2227 125.19 28.2382 125.059 28.2382C124.966 28.2382 124.85 28.2382 124.726 28.2227C123.788 28.122 122.866 27.6649 122.029 26.7894C121.603 26.34 121.216 25.6117 121.123 25.325C121.092 25.2785 121.092 25.2476 121.123 25.1933C121.162 25.1468 121.208 25.1236 121.239 25.1236C121.239 25.1236 127.949 25.1003 132.179 25.1158C135.325 25.1236 138.695 25.1236 141.407 25.1236C143.793 25.1236 145.676 25.1236 146.606 25.1003" fill="white"/>
<path fill-rule="evenodd" clip-rule="evenodd" d="M145.11 27.1535C145.149 27.1535 145.227 27.1457 145.242 27.1845C145.242 27.2155 145.304 27.2697 145.203 27.3239C144.552 27.7656 130.188 33.6772 130.048 33.7314C129.25 33.9871 128.375 34.1343 127.74 33.0419C127.468 32.5925 127.244 32.2283 127.128 32.0579C127.097 31.9959 126.934 31.8177 127.36 31.717C127.36 31.717 131.404 30.6323 135.007 29.718C139.16 28.6798 143.863 27.4944 145.11 27.1457" fill="white"/>
<path fill-rule="evenodd" clip-rule="evenodd" d="M138.772 37.063C138.826 37.0785 138.857 37.125 138.842 37.2335C137.447 38.8373 132.326 44.4622 130.001 46.9416C129.769 47.1895 129.645 47.0733 129.73 46.8253C129.73 46.8253 130.172 45.7252 130.365 44.8729C130.466 44.3538 130.59 43.9354 130.885 43.703C133.883 41.1771 136.781 38.6668 138.687 37.094L138.772 37.063Z" fill="white"/>
<path fill-rule="evenodd" clip-rule="evenodd" d="M143.491 29.935C143.553 29.9505 143.599 29.997 143.553 30.1209C142.158 31.2831 135.728 36.6369 132.264 39.4649L132.14 39.5578C131.133 40.3249 130.467 40.5031 130.358 38.8373C130.319 38.4499 130.265 38.1167 130.265 38.1167C130.196 37.7758 130.319 37.7758 130.443 37.6906C131.575 37.001 133.736 35.8001 135.449 34.7696C138.517 32.9411 142.104 30.7717 143.491 29.935Z" fill="white"/>
</svg>
