<svg width="181" height="64" viewBox="0 0 181 64" fill="none" xmlns="http://www.w3.org/2000/svg">
<path d="M53.879 15.3664C58.2583 15.3664 60.2266 17.2217 60.2266 22.4862V41.981C60.2266 48.6958 53.5211 51.9921 46.6744 51.9921C39.8277 51.9921 33.5837 48.6958 33.5837 41.981V15.3664C36.5127 15.3664 39.8654 16.327 39.8654 21.6763L39.9219 40.4365C39.9219 44.0906 42.6719 45.9176 46.8816 45.9176C51.0914 45.9176 53.8979 44.0906 53.8979 40.4365L53.8696 15.3664H53.879ZM68.7214 51.5212H75.0313V28.9656C75.0313 24.172 77.6118 21.309 82.4808 21.309H84.3643C89.8925 21.309 90.8061 18.446 90.8061 15.357H81.9534C74.1272 15.357 68.7214 19.8681 68.7214 29.1728V51.5118V51.5212ZM10.8964 29.4365C8.77735 28.8526 6.8373 27.9203 6.8373 25.3304C6.8373 22.7405 8.47599 21.3184 11.9041 21.3184H18.7696C21.821 21.3184 25.428 20.3107 25.4374 15.3664H12.5068C4.53936 15.3758 0 19.3972 0 25.1514C0 30.5196 3.39039 33.5332 9.47427 35.1437L16.208 36.9142C18.9768 37.6676 19.9751 39.4099 19.9751 41.1899C19.9751 43.9022 18.2516 45.5409 14.0796 45.5597L1.18664 45.6633V51.5023H14.2962C22.2542 51.5023 26.8124 47.2267 26.8124 41.6043C26.8124 35.9819 24.5992 33.1565 18.6378 31.5367L10.9058 29.4177L10.8964 29.4365ZM122.939 20.5085V51.5212C118.956 51.5212 116.95 50.3816 116.488 46.6899C116.488 46.6899 113.71 52.2087 105.78 52.2087C96.1365 52.2087 90.4199 44.5426 90.7307 33.5898C91.0698 21.5539 98.9713 15.3664 107.353 15.357H108.954H122.939V20.4991V20.5085ZM116.13 21.1677H108.851V21.1489C108.464 21.1866 108.05 21.2054 107.617 21.2054C102.117 21.2054 97.9636 25.0102 97.7093 33.6557C97.455 42.6779 101.448 46.4262 107.014 46.4262C113.249 46.4262 116.13 41.6608 116.13 36.6599V21.1677Z" fill="#0033A0"/>
<path fill-rule="evenodd" clip-rule="evenodd" d="M156.505 53.9039C156.58 53.9227 156.627 53.9698 156.618 54.1016C155.949 54.9869 154.819 56.004 153.378 57.04C151.937 58.0571 150.242 59.0365 148.481 59.8841C146.626 60.7694 144.996 61.5134 143.282 61.9749C141.361 62.4646 139.685 62.6436 138.3 62.4835C137.18 62.3704 136.247 62.0314 135.55 61.4475C135.513 61.4287 135.503 61.3533 135.503 61.3062C135.522 61.2309 135.588 61.165 135.682 61.1461C139.986 60.4492 143.951 59.3944 147.624 58.123C151.269 56.8799 154.292 55.439 156.524 53.9133" fill="#00AEC7"/>
<path fill-rule="evenodd" clip-rule="evenodd" d="M156.175 51.8225C153.821 53.2069 149.055 55.2506 144.864 56.409C139.882 57.8216 135.899 58.5091 133.233 58.1324C130.879 57.7934 129.721 56.6727 129.363 56.2771C129.306 56.2395 129.25 56.1829 129.269 56.1076C129.297 56.0228 129.344 55.9569 129.457 55.9381L130.361 55.8722C132.339 55.7403 135.899 55.6461 140.071 55.0434C144.864 54.3465 152.568 52.9809 156.1 51.5965C156.175 51.6153 156.213 51.6813 156.166 51.8131" fill="#00AEC7"/>
<path fill-rule="evenodd" clip-rule="evenodd" d="M155.751 57.9535C155.808 57.9629 155.883 58.01 155.855 58.1418C154.989 60.2138 154 61.7771 152.069 62.7471C148.679 64.4423 146.899 63.4723 146.663 63.3593C146.616 63.3216 146.55 63.2557 146.55 63.1709C146.579 63.0956 146.635 63.0297 146.71 63.0297C148.189 62.5682 152.634 60.9201 155.638 57.9817C155.676 57.9629 155.714 57.9535 155.751 57.9535Z" fill="#00AEC7"/>
<path fill-rule="evenodd" clip-rule="evenodd" d="M178.166 26.0178C178.222 26.0461 178.25 26.0932 178.25 26.1403C178.232 26.2156 178.184 26.2533 178.081 26.2439C177.064 25.9519 174.926 25.3586 172.195 24.6146C165.998 22.9194 142.548 16.6283 142.152 16.5247L142.039 16.4871C140.645 16.0444 139.487 15.3475 138.592 14.3869C138.338 14.1232 138.102 13.8124 137.886 13.4828C137.104 12.2773 136.906 10.5445 136.878 10.2054C136.878 10.1678 136.878 10.0924 136.935 10.0642C136.972 10.0171 137.038 9.98882 137.161 10.0265L140.994 11.5239C150.101 15.0556 174.229 24.4262 178.166 26.0273" fill="#00AEC7"/>
<path fill-rule="evenodd" clip-rule="evenodd" d="M174.229 22.3073C174.267 22.458 174.191 22.505 174.078 22.4768C172.694 21.7799 169.586 20.3013 166.45 18.7285C163.813 17.4195 145.703 8.88696 144.478 8.26539L142.331 7.15409C142.001 7.00341 141.709 6.81505 141.427 6.6267C140.579 6.11814 140.127 5.74143 139.666 5.14811C139.298 4.65838 138.978 4.05565 138.752 3.48117C138.234 2.18151 138.262 0.476899 138.281 0.166113C138.281 0.119024 138.3 0.0625175 138.385 0.0248465C138.423 -0.00340679 138.488 -0.0128246 138.592 0.0248465L140.862 1.39042L142.067 2.15326L148.697 6.18406C157.946 11.9572 170.886 20.1694 174.238 22.2979" fill="#00AEC7"/>
<path fill-rule="evenodd" clip-rule="evenodd" d="M180.897 28.5324C180.953 28.5324 181 28.5983 181 28.6642C181 28.7302 180.925 28.7678 180.85 28.7678C177.28 28.5041 145.138 26.2627 145.138 26.2627C144.864 26.225 144.61 26.2062 144.328 26.112C141.775 25.3021 140.297 23.3432 139.694 21.3749C139.685 21.2996 139.656 21.2336 139.694 21.1583C139.732 21.1018 139.835 21.0641 139.901 21.0735C139.901 21.0735 177.77 27.9579 180.897 28.5324Z" fill="#00AEC7"/>
<path fill-rule="evenodd" clip-rule="evenodd" d="M179.295 30.6891C179.361 30.6891 179.427 30.7644 179.427 30.8304C179.399 30.8774 179.361 30.9151 179.295 30.9339C177.977 31.1411 153.547 34.475 153.387 34.4939C153.227 34.5127 153.105 34.5315 152.945 34.5315C152.832 34.5315 152.69 34.5315 152.54 34.5127C151.4 34.3903 150.261 33.8346 149.243 32.761C148.716 32.2148 148.255 31.3201 148.142 30.9716C148.104 30.9151 148.104 30.8774 148.142 30.8115C148.189 30.755 148.245 30.7268 148.283 30.7268C148.283 30.7268 156.486 30.6985 161.656 30.7079C165.498 30.7268 169.623 30.7268 172.939 30.7268C175.858 30.7268 178.165 30.7268 179.295 30.6985" fill="#00AEC7"/>
<path fill-rule="evenodd" clip-rule="evenodd" d="M177.459 33.1942C177.506 33.1942 177.601 33.1848 177.619 33.2319C177.619 33.2695 177.695 33.3355 177.572 33.4014C176.781 33.9382 159.208 41.171 159.038 41.237C158.068 41.5572 156.995 41.7267 156.213 40.3988C155.883 39.8525 155.601 39.4099 155.459 39.1933C155.422 39.118 155.224 38.9014 155.742 38.7789C155.742 38.7789 160.686 37.451 165.094 36.3397C170.17 35.0683 175.924 33.618 177.441 33.1942" fill="#00AEC7"/>
<path fill-rule="evenodd" clip-rule="evenodd" d="M169.708 45.3149C169.774 45.3337 169.812 45.3902 169.793 45.5221C168.079 47.481 161.826 54.3653 158.981 57.3885C158.69 57.6898 158.548 57.5486 158.652 57.2472C158.652 57.2472 159.198 55.9005 159.424 54.8645C159.547 54.2335 159.697 53.7155 160.055 53.433C163.719 50.344 167.269 47.2738 169.595 45.3526L169.699 45.3149H169.708Z" fill="#00AEC7"/>
<path fill-rule="evenodd" clip-rule="evenodd" d="M175.482 36.6034C175.566 36.6222 175.613 36.6787 175.566 36.8294C173.862 38.2515 165.998 44.7969 161.769 48.2626L161.619 48.385C160.385 49.3268 159.566 49.534 159.443 47.4997C159.396 47.0289 159.33 46.6145 159.33 46.6145C159.245 46.1907 159.396 46.1907 159.547 46.0965C160.931 45.2489 163.578 43.7797 165.668 42.5272C169.417 40.2857 173.805 37.6393 175.5 36.6128" fill="#00AEC7"/>
</svg>
