<svg width="135" height="93" viewBox="0 0 135 93" fill="none" xmlns="http://www.w3.org/2000/svg">
<path d="M11.2432 4.94754C6.58144 4.94754 2.80566 8.74846 2.80566 13.4412V81.3907C2.80566 86.0834 6.58144 89.8844 11.2432 89.8844H120.931C125.592 89.8844 129.368 86.0834 129.368 81.3907V51.9388L135 47.416V44.5918L129.368 38.9223V4.94754H11.2432Z" fill="white"/>
<path fill-rule="evenodd" clip-rule="evenodd" d="M135 10.0862C135 4.52289 130.591 0 125.191 0H9.80859C4.40859 0 0 4.52289 0 10.0862V82.41C0 87.9733 4.40859 92.4962 9.80859 92.4962H125.191C130.591 92.4962 135 87.9733 135 82.41V10.0862ZM129.052 40.1327L135 46.2481L129.052 52.4273V82.3463C129.052 84.5546 127.301 86.3595 125.149 86.3595H9.87187C7.72031 86.3595 5.96953 84.5546 5.96953 82.3463V10.1287C5.96953 7.89913 7.72031 6.11545 9.87187 6.11545H125.149C127.301 6.11545 129.052 7.92036 129.052 10.1287V40.1114V40.1327Z" fill="#FF7C00"/>
<path d="M46.4274 39.7291C46.4274 39.3257 46.4907 38.9222 46.6383 38.5612C46.8071 38.179 47.018 37.8605 47.2711 37.5845C47.5454 37.3084 47.8618 37.0748 48.2204 36.9262C48.9586 36.6077 49.8024 36.6077 50.5618 36.9262C50.9204 37.0748 51.2368 37.2872 51.4899 37.5845C51.7641 37.8393 51.975 38.179 52.1227 38.5612C52.2704 38.9222 52.3547 39.3044 52.3547 39.7079V45.4411H54.9493V39.7079C54.9493 38.9222 54.8016 38.179 54.5063 37.4995C54.2321 36.7988 53.8102 36.183 53.304 35.6946C52.7977 35.1638 52.2071 34.7603 51.5321 34.463C50.2243 33.8472 48.579 33.8472 47.2079 34.463C46.5329 34.7391 45.9422 35.1638 45.4149 35.6946C44.9297 36.2042 44.529 36.7988 44.2336 37.4995C43.9594 38.179 43.8118 38.9222 43.8118 39.7079V45.4411H46.3852V39.7079L46.4274 39.7291Z" fill="#0169B5"/>
<path d="M42.251 35.6947C41.7025 35.1426 41.0697 34.7179 40.3947 34.4419C39.0447 33.8686 37.5893 33.8686 36.1971 34.4419C35.5221 34.6967 34.8893 35.1426 34.3619 35.6947C33.8135 36.2468 33.4127 36.8838 33.1596 37.5846C32.8854 38.2853 32.7588 39.0072 32.7588 39.7292C32.7588 40.4512 32.8854 41.1731 33.1596 41.8951C33.4127 42.5958 33.8346 43.2329 34.3619 43.7849C34.8893 44.3158 35.501 44.7405 36.1549 45.0378C36.8299 45.3138 37.5471 45.4624 38.2853 45.4624C39.0236 45.4624 39.7408 45.3138 40.4158 45.0378C41.0908 44.7617 41.7025 44.337 42.2299 43.7849L43.1369 42.8506L41.3018 40.9608L40.3947 41.8951C39.9307 42.3835 39.3822 42.6808 38.7494 42.7657C38.6018 42.7869 38.4541 42.8082 38.3275 42.8082C37.9689 42.8082 37.6525 42.7445 37.315 42.6171L43.1369 36.629L42.2299 35.7159L42.251 35.6947ZM38.5807 37.5421L35.501 40.706C35.3744 40.3875 35.3322 40.0477 35.3322 39.708C35.3322 38.8586 35.6275 38.1579 36.2182 37.5421C36.6822 37.0749 37.2307 36.7777 37.8424 36.6927C37.99 36.6715 38.1377 36.6715 38.3064 36.6715C38.6439 36.6715 38.9814 36.7352 39.3189 36.8626C39.1291 37.0537 38.8971 37.2873 38.6228 37.5633L38.5807 37.5421Z" fill="#0169B5"/>
<path d="M25.1016 37.5846C25.3969 37.2873 25.7344 37.0749 26.093 36.9051C26.8313 36.6078 27.5907 36.6078 28.329 36.9051C28.6875 37.0537 29.025 37.2873 29.3204 37.5846L30.2696 38.5189L32.0836 36.629L31.1766 35.6947C30.6282 35.1426 29.9954 34.7179 29.3204 34.4419C27.9704 33.8686 26.4938 33.8686 25.1227 34.4419C24.4477 34.6967 23.836 35.1426 23.2875 35.6947C22.7391 36.2468 22.3383 36.8838 22.0641 37.5846C21.7899 38.2853 21.6633 39.0072 21.6633 39.7504C21.6633 40.4936 21.7899 41.1944 22.0641 41.8951C22.3383 42.5958 22.718 43.2329 23.2875 43.7849C23.836 44.337 24.4477 44.7617 25.1227 45.059C25.8188 45.335 26.5149 45.4624 27.211 45.4624C27.9071 45.4624 28.6243 45.335 29.2782 45.059C29.9743 44.7617 30.586 44.337 31.1344 43.7849L32.0415 42.8506L30.2274 40.9608L29.2782 41.8951C29.004 42.1924 28.6665 42.426 28.329 42.5746C27.9704 42.7232 27.5907 42.8082 27.1899 42.8082C26.3672 42.8082 25.6711 42.5109 25.0805 41.8951C24.7852 41.5978 24.5743 41.2581 24.4266 40.8759C24.279 40.4936 24.1946 40.1114 24.1946 39.7292C24.1946 39.347 24.279 38.9648 24.4266 38.5826C24.5743 38.2216 24.7852 37.9031 25.0805 37.6058L25.1016 37.5846Z" fill="#0169B5"/>
<path d="M82.2026 36.6927H88.8682V34.0172H82.2026C81.7174 34.0172 81.2745 34.1234 80.8526 34.2932C80.4518 34.4631 80.0932 34.7179 79.7768 35.0152C79.4604 35.3337 79.2284 35.7159 79.0385 36.1406C78.8698 36.5653 78.7854 37.0112 78.7854 37.4996C78.7854 37.988 78.8698 38.4551 79.0385 38.901C79.2284 39.3045 79.4604 39.6867 79.7768 40.0265C80.0721 40.345 80.4307 40.5998 80.8315 40.7909C81.2534 40.9608 81.7174 41.0457 82.1815 41.0457H86.4424C86.6956 41.0457 86.8854 41.1306 87.0542 41.2793C87.2229 41.4492 87.2862 41.6403 87.2862 41.8951C87.2862 42.1499 87.2018 42.3622 87.0542 42.5321C86.8854 42.6807 86.6956 42.7657 86.4424 42.7657H79.7979V45.4199H86.4424C86.9276 45.4199 87.3706 45.335 87.7713 45.1651C88.1932 44.974 88.5729 44.7192 88.8682 44.4007C89.2057 44.061 89.4377 43.7 89.6065 43.2753C89.7963 42.8506 89.8807 42.3622 89.8807 41.8951C89.8807 41.4279 89.7752 40.9395 89.6065 40.5361C89.4377 40.0902 89.1846 39.7079 88.8682 39.4107C88.5729 39.0922 88.1932 38.8373 87.7713 38.6887C87.3706 38.4976 86.9065 38.3914 86.4424 38.3914H82.1815C81.9495 38.3914 81.7385 38.3065 81.5909 38.1578C81.4221 37.9667 81.3588 37.7756 81.3588 37.5208C81.3588 37.2872 81.4432 37.0749 81.5909 36.9263C81.7596 36.7564 81.9495 36.6927 82.1815 36.6927H82.2026Z" fill="#0169B5"/>
<path d="M59.2099 37.5846C59.5052 37.2873 59.8427 37.0749 60.2013 36.9051C60.9396 36.6078 61.72 36.6078 62.4372 36.9051C62.7958 37.0537 63.1333 37.2873 63.4286 37.5846L64.3567 38.5189L66.1497 36.629L65.2427 35.6947C64.6942 35.1426 64.0614 34.7179 63.3864 34.4419C62.0364 33.8686 60.581 33.8686 59.2099 34.4419C58.5138 34.6967 57.9021 35.1426 57.3536 35.6947C56.8052 36.2468 56.4044 36.8838 56.1513 37.5846C55.8771 38.2853 55.7505 39.0072 55.7505 39.7504C55.7505 40.4936 55.8981 41.1944 56.1513 41.8951C56.4044 42.5958 56.8263 43.2329 57.3536 43.7849C57.9021 44.337 58.5138 44.7617 59.2099 45.059C59.8849 45.335 60.602 45.4624 61.3192 45.4624C62.0364 45.4624 62.7325 45.335 63.3864 45.059C64.0825 44.7617 64.6942 44.337 65.2427 43.7849L66.1497 42.8506L64.3567 40.9608L63.4075 41.8951C63.1333 42.1924 62.8169 42.426 62.4372 42.5746C62.0786 42.7232 61.6778 42.8082 61.2981 42.8082C60.4544 42.8082 59.7794 42.5109 59.1888 41.8951C58.8935 41.5978 58.6825 41.2581 58.5349 40.8759C58.3872 40.4936 58.3028 40.1114 58.3028 39.7292C58.3028 39.347 58.3872 38.9648 58.5349 38.5826C58.7036 38.2216 58.9145 37.9031 59.1888 37.6058L59.2099 37.5846Z" fill="#0169B5"/>
<path d="M99.2461 39.7292C99.2461 40.1539 99.1617 40.5573 98.993 40.9183C98.8453 41.3005 98.6344 41.619 98.3602 41.9163C98.107 42.1924 97.7906 42.4047 97.4109 42.5746C96.6727 42.8718 95.7867 42.8718 95.0906 42.5746C94.732 42.4047 94.4156 42.1711 94.1414 41.9163C93.8883 41.619 93.6563 41.3005 93.5086 40.9183C93.3609 40.5573 93.2977 40.1539 93.2977 39.7292V34.0172H90.7031V39.7292C90.7031 40.5148 90.8508 41.258 91.125 41.9588C91.4203 42.6383 91.8211 43.2753 92.3062 43.7849C92.8125 44.3158 93.4242 44.7192 94.0992 45.0377C94.7742 45.3138 95.4914 45.4624 96.2508 45.4624C97.0102 45.4624 97.7484 45.3138 98.4023 45.0377C99.0773 44.7405 99.668 44.3158 100.174 43.7849C100.68 43.2541 101.081 42.6383 101.355 41.9588C101.651 41.258 101.798 40.5148 101.798 39.7292V34.0172H99.2039V39.7292H99.2461Z" fill="#0169B5"/>
<path d="M111.165 29.6218V33.996H108.211C107.452 33.996 106.714 34.1447 106.06 34.4632C105.385 34.7392 104.773 35.1639 104.267 35.6948C103.761 36.1832 103.36 36.799 103.043 37.4997C102.769 38.1792 102.622 38.9224 102.622 39.708C102.622 40.4937 102.769 41.2369 103.043 41.9376C103.339 42.6171 103.74 43.2542 104.246 43.7638C104.752 44.2946 105.364 44.6981 106.039 45.0166C106.693 45.2926 107.431 45.4413 108.19 45.4413C108.95 45.4413 109.667 45.2926 110.342 45.0166C111.017 44.7193 111.608 44.2946 112.093 43.7638C112.599 43.2329 113 42.6171 113.274 41.9376C113.569 41.2369 113.717 40.4937 113.717 39.708V29.6218H111.122H111.165ZM111.165 39.708C111.165 40.1327 111.08 40.5362 110.911 40.8972C110.764 41.2794 110.553 41.5979 110.279 41.8952C110.025 42.1712 109.688 42.3836 109.329 42.5534C108.633 42.8507 107.747 42.8507 107.03 42.5534C106.65 42.3836 106.334 42.15 106.06 41.8952C105.807 41.5979 105.575 41.2794 105.427 40.8972C105.279 40.5362 105.216 40.1327 105.216 39.708C105.216 39.2834 105.279 38.9011 105.427 38.5402C105.575 38.1579 105.786 37.8394 106.06 37.5634C106.334 37.2873 106.672 37.075 107.03 36.9051C107.389 36.7565 107.79 36.6716 108.19 36.6716H111.143V39.708H111.165Z" fill="#0169B5"/>
<path d="M70.263 45.0167C70.938 45.2927 71.6552 45.4413 72.4146 45.4413C73.174 45.4413 73.9123 45.2927 74.5873 45.0167C75.2412 44.7194 75.8529 44.2947 76.3591 43.7638C76.8654 43.233 77.2662 42.6172 77.5615 41.9377C77.8568 41.237 78.0044 40.4938 78.0044 39.7081C78.0044 38.9224 77.8568 38.1792 77.5615 37.4997C77.2873 36.799 76.8865 36.1832 76.3591 35.6948C75.8529 35.164 75.2412 34.7605 74.5873 34.4845C73.2794 33.8687 71.6341 33.8687 70.263 34.4845C69.588 34.7605 68.9763 35.1852 68.4701 35.7161C67.9849 36.2257 67.5841 36.8203 67.2888 37.521C67.0146 38.2005 66.8669 38.9437 66.8669 39.7293C66.8669 40.515 67.0146 41.2582 67.2888 41.9589C67.5841 42.6384 67.9849 43.2755 68.4701 43.7851C68.9974 44.3159 69.588 44.7194 70.263 45.0379V45.0167ZM69.6513 38.5615C69.8201 38.1792 70.031 37.8607 70.2841 37.5847C70.5583 37.3086 70.8748 37.0963 71.2544 36.9264C71.613 36.7778 72.0138 36.6928 72.4146 36.6928C72.8154 36.6928 73.2162 36.7778 73.5748 36.9477C73.9333 37.0963 74.2498 37.3299 74.524 37.6059C74.7982 37.882 75.0091 38.2005 75.1568 38.5827C75.3044 38.9437 75.3888 39.3259 75.3888 39.7293C75.3888 40.1328 75.3044 40.5575 75.1568 40.9185C75.0091 41.3007 74.7982 41.6192 74.524 41.9165C74.2709 42.1925 73.9544 42.4048 73.5748 42.5747C72.8365 42.872 71.9716 42.872 71.2544 42.5747C70.8958 42.4048 70.5583 42.1713 70.2841 41.9165C70.0099 41.6192 69.799 41.3007 69.6302 40.9185C69.4826 40.5575 69.4193 40.154 69.4193 39.7293C69.4193 39.3259 69.5037 38.9224 69.6513 38.5615V38.5615Z" fill="#0169B5"/>
<path d="M22.0853 59.6894C22.8868 60.1353 23.9837 60.4751 25.2704 60.4751C26.2407 60.4751 27.1688 60.2627 27.1688 59.3284C27.1688 57.1201 21.7056 58.5003 21.7056 54.1898C21.7056 51.3231 24.4267 50.5375 26.747 50.5375C27.8649 50.5375 28.9407 50.7074 29.7212 50.9834L29.5313 53.4253C28.7298 53.0431 27.8438 52.8732 26.9579 52.8732C26.1774 52.8732 24.8907 52.9369 24.8907 53.9774C24.8907 55.9097 30.354 54.6144 30.354 58.9038C30.354 61.9827 27.8438 62.8108 25.2704 62.8108C24.1946 62.8108 22.8446 62.641 21.8321 62.3012L22.1063 59.6894H22.0853Z" fill="#FB011D"/>
<path d="M38.6645 56.2919C38.1161 55.9522 37.5677 55.8035 36.8505 55.8035C35.5638 55.8035 34.5724 56.7166 34.5724 58.2455C34.5724 59.6469 35.7325 60.5812 37.0192 60.5812C37.6942 60.5812 38.3692 60.4326 38.8755 60.1565L38.9388 62.4286C38.2005 62.6834 37.2935 62.8108 36.513 62.8108C33.6653 62.8108 31.4927 61.1121 31.4927 58.1818C31.4927 55.2514 33.6653 53.5315 36.513 53.5315C37.3989 53.5315 38.2005 53.6801 38.8755 54.0199L38.6645 56.2707V56.2919Z" fill="#FB011D"/>
<path d="M39.6987 58.2029C39.6987 55.2513 41.8714 53.5526 44.719 53.5526C47.5667 53.5526 49.7394 55.2513 49.7394 58.2029C49.7394 61.1544 47.5667 62.8319 44.719 62.8319C41.8714 62.8319 39.6987 61.1332 39.6987 58.2029ZM46.6597 58.2029C46.6597 56.8651 46.0901 55.6972 44.719 55.6972C43.348 55.6972 42.7784 56.8651 42.7784 58.2029C42.7784 59.5406 43.348 60.6873 44.719 60.6873C46.0901 60.6873 46.6597 59.5194 46.6597 58.2029V58.2029Z" fill="#FB011D"/>
<path d="M50.3301 53.7436H52.0809V51.7476L55.0129 50.8133V53.7436H57.1012V55.8883H55.0129V59.1583C55.0129 60.2413 55.266 60.7721 56.2152 60.7721C56.5105 60.7721 56.8269 60.7084 57.1223 60.6447L57.2277 62.6407C56.6582 62.7044 56.0887 62.8106 55.3504 62.8106C52.6926 62.8106 52.0387 61.6003 52.0387 59.4981V55.8883H50.3301V53.7436Z" fill="#FB011D"/>
<path d="M61.6783 52.2998H58.7041V50.049H61.6783V52.2998ZM58.7041 53.7438H61.6783V62.6197H58.7041V53.7438Z" fill="#FB011D"/>
<path d="M69.2928 62.6198C69.2928 62.1527 69.2295 61.6855 69.2295 61.2184H69.1873C68.5123 62.3225 67.6686 62.8109 66.4451 62.8109C64.7365 62.8109 63.2178 61.9403 63.2178 60.008C63.2178 57.3113 66.0865 56.9715 67.6686 56.9715C68.1537 56.9715 68.6811 57.014 69.0607 57.0989C69.0607 55.8886 68.1748 55.5701 67.099 55.5701C66.1287 55.5701 65.1795 55.7612 64.3568 56.2283L64.3146 54.1474C65.3693 53.7015 66.4873 53.5103 67.7529 53.5103C69.9467 53.5103 71.8662 54.4871 71.8662 57.1839V60.4964C71.8662 61.1971 71.9084 61.8979 72.035 62.5986H69.3139L69.2928 62.6198ZM67.2467 60.7937C68.3646 60.7937 69.0818 59.732 69.0818 58.6915C68.7021 58.6915 68.2592 58.649 67.8162 58.649C66.8037 58.649 66.0022 58.9675 66.0022 59.8169C66.0022 60.4327 66.5295 60.7937 67.2256 60.7937H67.2467Z" fill="#FB011D"/>
<path d="M73.6379 49.858H76.6333V54.8905H76.6754C77.4348 53.9137 78.4473 53.5527 79.6497 53.5527C82.0332 53.5527 83.3411 55.8885 83.3411 58.0331C83.3411 60.6449 81.97 62.8321 79.3965 62.8321C78.0254 62.8321 76.8231 62.0252 76.4223 61.0484H76.3801V62.6197H73.6379V49.858V49.858ZM78.4473 55.9097C77.3504 55.9097 76.6333 56.8865 76.6333 58.2242C76.6333 59.562 77.4559 60.4963 78.4473 60.4963C79.5653 60.4963 80.2614 59.5195 80.2614 58.1181C80.2614 56.9502 79.6075 55.931 78.4473 55.931V55.9097Z" fill="#FB011D"/>
<path d="M90.3028 62.6198C90.3028 62.1527 90.2395 61.6855 90.2395 61.2184H90.1973C89.5223 62.3225 88.6786 62.8109 87.4551 62.8109C85.7465 62.8109 84.2278 61.9403 84.2278 60.008C84.2278 57.3113 87.0965 56.9715 88.6786 56.9715C89.1637 56.9715 89.6911 57.014 90.0708 57.0989C90.0708 55.8886 89.1848 55.5701 88.109 55.5701C87.1387 55.5701 86.1895 55.7612 85.3668 56.2283L85.3247 54.1474C86.3793 53.7015 87.4973 53.5103 88.7629 53.5103C90.9567 53.5103 92.8762 54.4871 92.8762 57.1839V60.4964C92.8762 61.1971 92.9184 61.8979 93.045 62.5986H90.3239L90.3028 62.6198ZM88.2567 60.7937C89.3747 60.7937 90.0918 59.732 90.0918 58.6915C89.7122 58.6915 89.2692 58.649 88.8262 58.649C87.8137 58.649 87.0122 58.9675 87.0122 59.8169C87.0122 60.4327 87.5395 60.7937 88.2356 60.7937H88.2567Z" fill="#FB011D"/>
<path d="M94.6902 53.7438H97.4113V55.3788H97.4535C98.0441 54.1048 99.2464 53.5315 100.596 53.5315C102.938 53.5315 103.887 55.2302 103.887 57.0776V62.6197H100.913V58.3304C100.913 56.6529 100.343 56.1008 99.5417 56.1008C98.3183 56.1008 97.6855 56.9714 97.6855 58.8825V62.6197H94.7113V53.7438H94.6902Z" fill="#FB011D"/>
<path d="M105.722 49.858H108.696V57.4811H108.739L111.228 53.7438H114.497L111.502 57.8208L114.75 62.6197H111.143L108.76 58.2243H108.717V62.6197H105.743V49.858H105.722Z" fill="#FB011D"/>
</svg>
