<svg width="159" height="205" viewBox="0 0 159 205" fill="none" xmlns="http://www.w3.org/2000/svg">
<rect width="159" height="205" fill="white"/>
<path d="M48.0941 146.18C46.7741 146.18 45.6401 145.916 44.6921 145.388C43.7561 144.848 43.0361 144.092 42.5321 143.12C42.0281 142.136 41.7761 140.978 41.7761 139.646C41.7761 138.314 42.0281 137.162 42.5321 136.19C43.0361 135.218 43.7561 134.468 44.6921 133.94C45.6401 133.4 46.7741 133.13 48.0941 133.13C48.9821 133.13 49.7801 133.256 50.4881 133.508C51.2081 133.76 51.8261 134.132 52.3421 134.624L51.5861 136.46C51.0221 136.004 50.4761 135.68 49.9481 135.488C49.4321 135.284 48.8381 135.182 48.1661 135.182C46.8821 135.182 45.8981 135.572 45.2141 136.352C44.5421 137.12 44.2061 138.218 44.2061 139.646C44.2061 141.074 44.5421 142.178 45.2141 142.958C45.8981 143.738 46.8821 144.128 48.1661 144.128C48.8381 144.128 49.4321 144.032 49.9481 143.84C50.4761 143.636 51.0221 143.3 51.5861 142.832L52.3421 144.668C51.8261 145.148 51.2081 145.52 50.4881 145.784C49.7801 146.048 48.9821 146.18 48.0941 146.18ZM54.3324 146V132.752H56.5824V138.728H56.3304C56.6064 138.08 57.0324 137.588 57.6084 137.252C58.1844 136.904 58.8444 136.73 59.5884 136.73C60.6684 136.73 61.4724 137.036 62.0004 137.648C62.5284 138.248 62.7924 139.166 62.7924 140.402V146H60.5424V140.51C60.5424 139.802 60.4044 139.292 60.1284 138.98C59.8644 138.656 59.4384 138.494 58.8504 138.494C58.1664 138.494 57.6144 138.71 57.1944 139.142C56.7864 139.562 56.5824 140.126 56.5824 140.834V146H54.3324ZM69.5701 146.18C68.0461 146.18 66.8521 145.76 65.9881 144.92C65.1241 144.08 64.6921 142.928 64.6921 141.464C64.6921 140.516 64.8781 139.688 65.2501 138.98C65.6221 138.272 66.1381 137.72 66.7981 137.324C67.4701 136.928 68.2501 136.73 69.1381 136.73C70.0141 136.73 70.7461 136.916 71.3341 137.288C71.9221 137.66 72.3661 138.182 72.6661 138.854C72.9781 139.526 73.1341 140.312 73.1341 141.212V141.806H66.5101V140.618H71.5321L71.2261 140.87C71.2261 140.03 71.0461 139.388 70.6861 138.944C70.3381 138.5 69.8281 138.278 69.1561 138.278C68.4121 138.278 67.8361 138.542 67.4281 139.07C67.0321 139.598 66.8341 140.336 66.8341 141.284V141.518C66.8341 142.502 67.0741 143.24 67.5541 143.732C68.0461 144.212 68.7361 144.452 69.6241 144.452C70.1401 144.452 70.6201 144.386 71.0641 144.254C71.5201 144.11 71.9521 143.882 72.3601 143.57L73.0261 145.082C72.5941 145.43 72.0781 145.7 71.4781 145.892C70.8781 146.084 70.2421 146.18 69.5701 146.18ZM81.5014 149.888V144.128H81.7174C81.5254 144.752 81.1354 145.25 80.5474 145.622C79.9594 145.994 79.2934 146.18 78.5494 146.18C77.7574 146.18 77.0614 145.994 76.4614 145.622C75.8614 145.238 75.3934 144.692 75.0574 143.984C74.7214 143.276 74.5534 142.43 74.5534 141.446C74.5534 140.462 74.7214 139.622 75.0574 138.926C75.3934 138.218 75.8614 137.678 76.4614 137.306C77.0614 136.922 77.7574 136.73 78.5494 136.73C79.3174 136.73 79.9894 136.922 80.5654 137.306C81.1534 137.678 81.5434 138.182 81.7354 138.818H81.5374L81.7354 136.91H83.8954C83.8594 137.282 83.8234 137.66 83.7874 138.044C83.7634 138.428 83.7514 138.806 83.7514 139.178V149.888H81.5014ZM79.1794 144.452C79.8874 144.452 80.4574 144.206 80.8894 143.714C81.3214 143.21 81.5374 142.454 81.5374 141.446C81.5374 140.438 81.3214 139.688 80.8894 139.196C80.4574 138.704 79.8874 138.458 79.1794 138.458C78.4714 138.458 77.9014 138.704 77.4694 139.196C77.0374 139.688 76.8214 140.438 76.8214 141.446C76.8214 142.454 77.0314 143.21 77.4514 143.714C77.8834 144.206 78.4594 144.452 79.1794 144.452ZM89.4775 146.18C88.3615 146.18 87.5275 145.874 86.9755 145.262C86.4235 144.65 86.1475 143.714 86.1475 142.454V136.91H88.3975V142.436C88.3975 143.108 88.5355 143.606 88.8115 143.93C89.0875 144.242 89.5075 144.398 90.0715 144.398C90.7075 144.398 91.2235 144.182 91.6195 143.75C92.0275 143.318 92.2315 142.748 92.2315 142.04V136.91H94.4815V146H92.2855V144.146H92.5375C92.2735 144.794 91.8715 145.298 91.3315 145.658C90.8035 146.006 90.1855 146.18 89.4775 146.18ZM101.316 146.18C99.7922 146.18 98.5982 145.76 97.7342 144.92C96.8702 144.08 96.4382 142.928 96.4382 141.464C96.4382 140.516 96.6242 139.688 96.9962 138.98C97.3682 138.272 97.8842 137.72 98.5442 137.324C99.2162 136.928 99.9962 136.73 100.884 136.73C101.76 136.73 102.492 136.916 103.08 137.288C103.668 137.66 104.112 138.182 104.412 138.854C104.724 139.526 104.88 140.312 104.88 141.212V141.806H98.2562V140.618H103.278L102.972 140.87C102.972 140.03 102.792 139.388 102.432 138.944C102.084 138.5 101.574 138.278 100.902 138.278C100.158 138.278 99.5822 138.542 99.1742 139.07C98.7782 139.598 98.5802 140.336 98.5802 141.284V141.518C98.5802 142.502 98.8202 143.24 99.3002 143.732C99.7922 144.212 100.482 144.452 101.37 144.452C101.886 144.452 102.366 144.386 102.81 144.254C103.266 144.11 103.698 143.882 104.106 143.57L104.772 145.082C104.34 145.43 103.824 145.7 103.224 145.892C102.624 146.084 101.988 146.18 101.316 146.18ZM110.89 146.18C109.954 146.18 109.144 145.988 108.46 145.604C107.776 145.22 107.242 144.674 106.858 143.966C106.486 143.258 106.3 142.418 106.3 141.446C106.3 140.474 106.486 139.64 106.858 138.944C107.242 138.236 107.776 137.69 108.46 137.306C109.144 136.922 109.954 136.73 110.89 136.73C111.826 136.73 112.636 136.922 113.32 137.306C114.016 137.69 114.55 138.236 114.922 138.944C115.306 139.64 115.498 140.474 115.498 141.446C115.498 142.418 115.306 143.258 114.922 143.966C114.55 144.674 114.016 145.22 113.32 145.604C112.636 145.988 111.826 146.18 110.89 146.18ZM110.89 144.452C111.598 144.452 112.162 144.206 112.582 143.714C113.002 143.21 113.212 142.454 113.212 141.446C113.212 140.438 113.002 139.688 112.582 139.196C112.162 138.704 111.598 138.458 110.89 138.458C110.182 138.458 109.618 138.704 109.198 139.196C108.778 139.688 108.568 140.438 108.568 141.446C108.568 142.454 108.778 143.21 109.198 143.714C109.618 144.206 110.182 144.452 110.89 144.452ZM34.6228 169V156.31H40.2568C41.6488 156.31 42.7108 156.646 43.4428 157.318C44.1748 157.99 44.5408 158.914 44.5408 160.09C44.5408 161.254 44.1748 162.178 43.4428 162.862C42.7108 163.546 41.6488 163.888 40.2568 163.888H36.9448V169H34.6228ZM36.9448 162.052H39.9868C40.7548 162.052 41.3308 161.884 41.7148 161.548C42.0988 161.2 42.2908 160.714 42.2908 160.09C42.2908 159.466 42.0988 158.986 41.7148 158.65C41.3308 158.302 40.7548 158.128 39.9868 158.128H36.9448V162.052ZM46.2373 169V162.232C46.2373 161.848 46.2253 161.458 46.2013 161.062C46.1893 160.666 46.1593 160.282 46.1113 159.91H48.2893L48.5413 162.394H48.1813C48.3013 161.794 48.4993 161.296 48.7753 160.9C49.0633 160.504 49.4113 160.21 49.8193 160.018C50.2273 159.826 50.6713 159.73 51.1513 159.73C51.3673 159.73 51.5413 159.742 51.6733 159.766C51.8053 159.778 51.9373 159.808 52.0693 159.856L52.0513 161.836C51.8233 161.74 51.6253 161.68 51.4573 161.656C51.3013 161.632 51.1033 161.62 50.8633 161.62C50.3473 161.62 49.9093 161.728 49.5493 161.944C49.2013 162.16 48.9373 162.46 48.7573 162.844C48.5893 163.228 48.5053 163.666 48.5053 164.158V169H46.2373ZM57.573 169.18C56.049 169.18 54.855 168.76 53.991 167.92C53.127 167.08 52.695 165.928 52.695 164.464C52.695 163.516 52.881 162.688 53.253 161.98C53.625 161.272 54.141 160.72 54.801 160.324C55.473 159.928 56.253 159.73 57.141 159.73C58.017 159.73 58.749 159.916 59.337 160.288C59.925 160.66 60.369 161.182 60.669 161.854C60.981 162.526 61.137 163.312 61.137 164.212V164.806H54.513V163.618H59.535L59.229 163.87C59.229 163.03 59.049 162.388 58.689 161.944C58.341 161.5 57.831 161.278 57.159 161.278C56.415 161.278 55.839 161.542 55.431 162.07C55.035 162.598 54.837 163.336 54.837 164.284V164.518C54.837 165.502 55.077 166.24 55.557 166.732C56.049 167.212 56.739 167.452 57.627 167.452C58.143 167.452 58.623 167.386 59.067 167.254C59.523 167.11 59.955 166.882 60.363 166.57L61.029 168.082C60.597 168.43 60.081 168.7 59.481 168.892C58.881 169.084 58.245 169.18 57.573 169.18ZM65.5657 169L61.6417 159.91H64.0357L66.8797 167.02H66.3217L69.2377 159.91H71.4877L67.5457 169H65.5657ZM76.909 169.18C75.385 169.18 74.191 168.76 73.327 167.92C72.463 167.08 72.031 165.928 72.031 164.464C72.031 163.516 72.217 162.688 72.589 161.98C72.961 161.272 73.477 160.72 74.137 160.324C74.809 159.928 75.589 159.73 76.477 159.73C77.353 159.73 78.085 159.916 78.673 160.288C79.261 160.66 79.705 161.182 80.005 161.854C80.317 162.526 80.473 163.312 80.473 164.212V164.806H73.849V163.618H78.871L78.565 163.87C78.565 163.03 78.385 162.388 78.025 161.944C77.677 161.5 77.167 161.278 76.495 161.278C75.751 161.278 75.175 161.542 74.767 162.07C74.371 162.598 74.173 163.336 74.173 164.284V164.518C74.173 165.502 74.413 166.24 74.893 166.732C75.385 167.212 76.075 167.452 76.963 167.452C77.479 167.452 77.959 167.386 78.403 167.254C78.859 167.11 79.291 166.882 79.699 166.57L80.365 168.082C79.933 168.43 79.417 168.7 78.817 168.892C78.217 169.084 77.581 169.18 76.909 169.18ZM82.3783 169V162.178C82.3783 161.806 82.3663 161.428 82.3423 161.044C82.3183 160.66 82.2823 160.282 82.2343 159.91H84.4123L84.5923 161.71H84.3763C84.6643 161.074 85.0903 160.588 85.6543 160.252C86.2183 159.904 86.8723 159.73 87.6163 159.73C88.6843 159.73 89.4883 160.03 90.0283 160.63C90.5683 161.23 90.8383 162.166 90.8383 163.438V169H88.5883V163.546C88.5883 162.814 88.4443 162.292 88.1563 161.98C87.8803 161.656 87.4603 161.494 86.8963 161.494C86.2003 161.494 85.6483 161.71 85.2403 162.142C84.8323 162.574 84.6283 163.15 84.6283 163.87V169H82.3783ZM97.112 169.18C96.032 169.18 95.216 168.898 94.664 168.334C94.112 167.77 93.836 166.924 93.836 165.796V161.602H92.09V159.91H93.836V157.588L96.086 157.012V159.91H98.516V161.602H96.086V165.652C96.086 166.276 96.206 166.714 96.446 166.966C96.686 167.218 97.016 167.344 97.436 167.344C97.664 167.344 97.856 167.326 98.012 167.29C98.18 167.254 98.342 167.206 98.498 167.146V168.928C98.294 169.012 98.066 169.072 97.814 169.108C97.574 169.156 97.34 169.18 97.112 169.18ZM100.044 169V159.91H102.294V169H100.044ZM99.9183 158.2V156.004H102.42V158.2H99.9183ZM107.402 169L103.478 159.91H105.872L108.716 167.02H108.158L111.074 159.91H113.324L109.382 169H107.402ZM118.457 169.18C117.521 169.18 116.711 168.988 116.027 168.604C115.343 168.22 114.809 167.674 114.425 166.966C114.053 166.258 113.867 165.418 113.867 164.446C113.867 163.474 114.053 162.64 114.425 161.944C114.809 161.236 115.343 160.69 116.027 160.306C116.711 159.922 117.521 159.73 118.457 159.73C119.393 159.73 120.203 159.922 120.887 160.306C121.583 160.69 122.117 161.236 122.489 161.944C122.873 162.64 123.065 163.474 123.065 164.446C123.065 165.418 122.873 166.258 122.489 166.966C122.117 167.674 121.583 168.22 120.887 168.604C120.203 168.988 119.393 169.18 118.457 169.18ZM118.457 167.452C119.165 167.452 119.729 167.206 120.149 166.714C120.569 166.21 120.779 165.454 120.779 164.446C120.779 163.438 120.569 162.688 120.149 162.196C119.729 161.704 119.165 161.458 118.457 161.458C117.749 161.458 117.185 161.704 116.765 162.196C116.345 162.688 116.135 163.438 116.135 164.446C116.135 165.454 116.345 166.21 116.765 166.714C117.185 167.206 117.749 167.452 118.457 167.452Z" fill="black"/>
<path fill-rule="evenodd" clip-rule="evenodd" d="M38.1763 94.9591C38.1763 93.7519 39.1549 92.7732 40.3622 92.7732H77.5226C78.7298 92.7732 79.7085 93.7519 79.7085 94.9591C79.7085 96.1663 78.7298 97.145 77.5226 97.145H40.3622C39.1549 97.145 38.1763 96.1663 38.1763 94.9591Z" fill="#464646"/>
<path fill-rule="evenodd" clip-rule="evenodd" d="M51.2917 50.5853C51.2917 49.3781 52.2704 48.3994 53.4776 48.3994H62.877C64.0842 48.3994 65.0629 49.3781 65.0629 50.5853C65.0629 51.7926 64.0842 52.7712 62.877 52.7712H53.4776C52.2704 52.7712 51.2917 51.7926 51.2917 50.5853Z" fill="#464646"/>
<path fill-rule="evenodd" clip-rule="evenodd" d="M41.4551 43.3718V103.703H75.5553V43.3718H41.4551ZM40.5808 39C38.6492 39 37.0833 40.5659 37.0833 42.4974V104.577C37.0833 106.509 38.6492 108.075 40.5808 108.075H76.4296C78.3612 108.075 79.9271 106.509 79.9271 104.577V42.4975C79.9271 40.5659 78.3612 39 76.4296 39H40.5808Z" fill="#464646"/>
<path d="M75.5619 54.9573H101.356L114.908 69.1657V113.321C114.908 116.818 111.119 117.547 109.225 117.474H75.5619C71.8896 117.474 70.8258 114.705 70.7529 113.321C70.8257 96.3438 70.9278 61.6462 70.7529 58.6733C70.578 55.7005 73.886 54.9573 75.5619 54.9573Z" fill="white"/>
<path fill-rule="evenodd" clip-rule="evenodd" d="M71.4108 53.7845C72.8463 52.9959 74.4874 52.7712 75.5618 52.7712H101.356C101.953 52.7712 102.525 53.0159 102.937 53.4484L116.49 67.6568C116.878 68.0634 117.094 68.6037 117.094 69.1655V113.321C117.094 116.068 115.514 117.785 113.778 118.679C112.182 119.502 110.383 119.699 109.186 119.66H75.5618C73.1036 119.66 71.3028 118.701 70.1407 117.331C69.0489 116.044 68.6273 114.526 68.5699 113.436C68.5678 113.394 68.5668 113.353 68.5669 113.311C68.6401 96.2603 68.7402 61.6831 68.5707 58.8015C68.4214 56.2643 69.8592 54.6369 71.4108 53.7845ZM73.0366 58.0156C72.9855 58.0956 72.9169 58.2384 72.935 58.5448C73.1149 61.6042 73.0116 96.3201 72.939 113.252C72.9665 113.556 73.1168 114.081 73.4744 114.502C73.7805 114.863 74.3478 115.288 75.5618 115.288H109.225C109.253 115.288 109.281 115.289 109.309 115.29C110.007 115.317 111.024 115.181 111.775 114.793C112.127 114.612 112.351 114.412 112.486 114.216C112.607 114.04 112.722 113.776 112.722 113.321V70.0409L100.42 57.1431H75.5618C74.9604 57.1431 74.1095 57.29 73.5158 57.6162C73.2417 57.7667 73.1037 57.9107 73.0366 58.0156Z" fill="#464646"/>
<path fill-rule="evenodd" clip-rule="evenodd" d="M99.8323 52.295C100.633 51.949 101.562 52.1117 102.197 52.709L116.843 66.4802C117.496 67.0942 117.708 68.0447 117.377 68.878C117.047 69.7113 116.242 70.2586 115.345 70.2586H106.165C101.129 70.2586 98.5139 67.7191 98.5139 65.0124V54.3014C98.5139 53.4295 99.032 52.641 99.8323 52.295ZM102.886 59.3573V64.9269C102.906 64.9684 102.968 65.0701 103.135 65.1996C103.46 65.4522 104.302 65.8867 106.165 65.8867H109.83L102.886 59.3573Z" fill="#464646"/>
<path fill-rule="evenodd" clip-rule="evenodd" d="M76.8733 66.5426C76.8733 65.3354 77.852 64.3567 79.0592 64.3567H93.049C94.2562 64.3567 95.2349 65.3354 95.2349 66.5426C95.2349 67.7498 94.2562 68.7285 93.049 68.7285H79.0592C77.852 68.7285 76.8733 67.7498 76.8733 66.5426Z" fill="#3BC1CD"/>
<path fill-rule="evenodd" clip-rule="evenodd" d="M76.8733 75.9418C76.8733 74.7345 77.852 73.7559 79.0592 73.7559H93.049C94.2562 73.7559 95.2349 74.7345 95.2349 75.9418C95.2349 77.149 94.2562 78.1277 93.049 78.1277H79.0592C77.852 78.1277 76.8733 77.149 76.8733 75.9418Z" fill="#3BC1CD"/>
<path fill-rule="evenodd" clip-rule="evenodd" d="M76.8733 85.5599C76.8733 84.3527 77.852 83.374 79.0592 83.374H105.29C106.497 83.374 107.476 84.3527 107.476 85.5599C107.476 86.7672 106.497 87.7458 105.29 87.7458H79.0592C77.852 87.7458 76.8733 86.7672 76.8733 85.5599Z" fill="#464646"/>
<path fill-rule="evenodd" clip-rule="evenodd" d="M76.8733 95.1778C76.8733 93.9706 77.852 92.9919 79.0592 92.9919H105.29C106.497 92.9919 107.476 93.9706 107.476 95.1778C107.476 96.3851 106.497 97.3638 105.29 97.3638H79.0592C77.852 97.3638 76.8733 96.3851 76.8733 95.1778Z" fill="#3BC1CD"/>
<path fill-rule="evenodd" clip-rule="evenodd" d="M76.8733 105.67C76.8733 104.463 77.852 103.484 79.0592 103.484H105.29C106.497 103.484 107.476 104.463 107.476 105.67C107.476 106.878 106.497 107.856 105.29 107.856H79.0592C77.852 107.856 76.8733 106.878 76.8733 105.67Z" fill="#464646"/>
</svg>
