<svg width="61" height="62" viewBox="0 0 61 62" fill="none" xmlns="http://www.w3.org/2000/svg">
<path fill-rule="evenodd" clip-rule="evenodd" d="M0 43.4849V56.262C0 58.9935 2.21438 61.2079 4.94595 61.2079H17.723V57.9106H4.94595C4.03542 57.9106 3.2973 57.1725 3.2973 56.262V43.4849H0ZM0 17.9309H3.2973V5.15386C3.2973 4.24334 4.03542 3.50521 4.94595 3.50521H17.723V0.207916H4.94595C2.21438 0.207916 0 2.42229 0 5.15386V17.9309ZM43.277 0.207916V3.50521H56.0541C56.9646 3.50521 57.7027 4.24334 57.7027 5.15386V17.9309H61V5.15386C61 2.42229 58.7856 0.207916 56.0541 0.207916H43.277ZM61 43.4849H57.7027V56.262C57.7027 57.1725 56.9646 57.9106 56.0541 57.9106H43.277V61.2079H56.0541C58.7856 61.2079 61 58.9935 61 56.262V43.4849Z" fill="url(#paint0_linear_1_473)"/>
<path d="M20.6083 31.6674C20.6083 26.2577 25.0133 21.7755 30.5002 21.7755C35.9098 21.7755 40.3921 26.2577 40.3921 31.6674C40.3921 37.1543 35.9098 41.5593 30.5002 41.5593C25.0133 41.5593 20.6083 37.1543 20.6083 31.6674ZM30.5002 37.8498C33.9005 37.8498 36.6826 35.145 36.6826 31.6674C36.6826 28.267 33.9005 25.4849 30.5002 25.4849C30.4229 25.4849 30.3456 25.4849 30.2683 25.4849C30.4229 25.9486 30.5002 26.335 30.5002 26.7214C30.5002 29.5035 28.259 31.6674 25.5542 31.6674C25.0905 31.6674 24.7041 31.6674 24.3177 31.5128C24.3177 31.5901 24.3177 31.6674 24.3177 31.6674C24.3177 35.145 27.0225 37.8498 30.5002 37.8498ZM15.585 20.6163C19.2172 17.2159 24.2405 14.3566 30.5002 14.3566C36.6826 14.3566 41.7058 17.2159 45.338 20.6163C48.9702 23.9393 51.3659 27.9579 52.5251 30.74C52.7569 31.3582 52.7569 32.0538 52.5251 32.672C51.3659 35.3768 48.9702 39.3954 45.338 42.7957C41.7058 46.1961 36.6826 48.9782 30.5002 48.9782C24.2405 48.9782 19.2172 46.1961 15.585 42.7957C11.9529 39.3954 9.55718 35.3768 8.39797 32.672C8.16613 32.0538 8.16613 31.3582 8.39797 30.74C9.55718 27.9579 11.9529 23.9393 15.585 20.6163ZM30.5002 18.066C25.3997 18.066 21.3038 20.3844 18.1353 23.3211C15.1214 26.1032 13.1121 29.349 12.0301 31.6674C13.1121 33.9858 15.1214 37.3088 18.1353 40.0909C21.3038 43.0276 25.3997 45.2687 30.5002 45.2687C35.5234 45.2687 39.6193 43.0276 42.7878 40.0909C45.8017 37.3088 47.811 33.9858 48.8929 31.6674C47.811 29.349 45.8017 26.1032 42.7878 23.3211C39.6193 20.3844 35.5234 18.066 30.5002 18.066Z" fill="url(#paint1_linear_1_473)"/>
<defs>
<linearGradient id="paint0_linear_1_473" x1="30.5" y1="0.207916" x2="30.5" y2="61.2079" gradientUnits="userSpaceOnUse">
<stop stop-color="#5B5AC7"/>
<stop offset="0.770833" stop-color="#0081A4"/>
</linearGradient>
<linearGradient id="paint1_linear_1_473" x1="30.7434" y1="3.5052" x2="30.7434" y2="60.5052" gradientUnits="userSpaceOnUse">
<stop stop-color="#3BC1CD"/>
<stop offset="1" stop-color="#5B5AC7"/>
</linearGradient>
</defs>
</svg>
