<svg width="180" height="180" viewBox="0 0 180 180" fill="none" xmlns="http://www.w3.org/2000/svg">
<g clip-path="url(#clip0_221_346)">
<path fill-rule="evenodd" clip-rule="evenodd" d="M16.9003 16.9998V163.3H163.2V16.9998H16.9003ZM15.8003 10.3998C12.7627 10.3998 10.3003 12.8622 10.3003 15.8998V164.4C10.3003 167.437 12.7627 169.9 15.8003 169.9H164.3C167.338 169.9 169.8 167.437 169.8 164.4V15.8998C169.8 12.8622 167.338 10.3998 164.3 10.3998H15.8003Z" fill="#464646"/>
<path fill-rule="evenodd" clip-rule="evenodd" d="M143.95 29.6483C147.595 29.6483 150.55 32.6032 150.55 36.2483V53.8483C150.55 55.6709 149.073 57.1483 147.25 57.1483C145.428 57.1483 143.95 55.6709 143.95 53.8483V36.2483H126.35C124.528 36.2483 123.05 34.7709 123.05 32.9483C123.05 31.1258 124.528 29.6483 126.35 29.6483H143.95Z" fill="#3BC1CD"/>
<path fill-rule="evenodd" clip-rule="evenodd" d="M31.2002 36.2483C31.2002 32.6032 34.1551 29.6483 37.8002 29.6483H55.4002C57.2227 29.6483 58.7002 31.1258 58.7002 32.9483C58.7002 34.7709 57.2227 36.2483 55.4002 36.2483H37.8002V53.8483C37.8002 55.6709 36.3227 57.1483 34.5002 57.1483C32.6777 57.1483 31.2002 55.6709 31.2002 53.8483V36.2483Z" fill="#3BC1CD"/>
<path fill-rule="evenodd" clip-rule="evenodd" d="M37.8002 151.2C34.1551 151.2 31.2002 148.245 31.2002 144.6V127C31.2002 125.177 32.6777 123.7 34.5002 123.7C36.3227 123.7 37.8002 125.177 37.8002 127V144.6H55.4002C57.2227 144.6 58.7002 146.077 58.7002 147.9C58.7002 149.722 57.2227 151.2 55.4002 151.2H37.8002Z" fill="#3BC1CD"/>
<path fill-rule="evenodd" clip-rule="evenodd" d="M150.55 144.6C150.55 148.245 147.595 151.2 143.95 151.2H126.35C124.528 151.2 123.05 149.722 123.05 147.9C123.05 146.077 124.528 144.6 126.35 144.6H143.95V127C143.95 125.177 145.428 123.7 147.25 123.7C149.073 123.7 150.55 125.177 150.55 127V144.6Z" fill="#3BC1CD"/>
<path d="M132.968 90.1486C105.397 116.777 77.8258 116.777 50.2495 90.1486C77.8207 63.5203 105.392 63.5203 132.968 90.1486Z" fill="#F9F8F7"/>
<path d="M91.6114 112.703C77.2041 112.703 62.7967 105.792 48.4913 91.976L46.6006 90.1515L48.4913 88.327C77.1021 60.6947 106.121 60.6947 134.731 88.327L136.622 90.1515L134.731 91.976C120.426 105.792 106.019 112.703 91.6114 112.703ZM53.9495 90.1515C79.2681 113.452 103.955 113.452 129.273 90.1515C103.955 66.8511 79.2681 66.8511 53.9495 90.1515Z" fill="#464646"/>
<path d="M91.6113 104.613C99.5993 104.613 106.075 98.1372 106.075 90.1493C106.075 82.1614 99.5993 75.6859 91.6113 75.6859C83.6234 75.6859 77.1479 82.1614 77.1479 90.1493C77.1479 98.1372 83.6234 104.613 91.6113 104.613Z" fill="#3BC1CD"/>
<path d="M87.8298 88.0388C89.9183 88.0388 91.6113 86.3458 91.6113 84.2573C91.6113 82.1689 89.9183 80.4758 87.8298 80.4758C85.7414 80.4758 84.0483 82.1689 84.0483 84.2573C84.0483 86.3458 85.7414 88.0388 87.8298 88.0388Z" fill="white"/>
</g>
<defs>
<clipPath id="clip0_221_346">
<rect width="160" height="160" fill="white" transform="translate(10 10)"/>
</clipPath>
</defs>
</svg>
