<svg width="28" height="25" viewBox="0 0 28 25" fill="none" xmlns="http://www.w3.org/2000/svg">
<path d="M5.25 0.207916C5.625 0.207916 6 0.582916 6 0.957916V3.20792H15V0.957916C15 0.582916 15.3281 0.207916 15.75 0.207916C16.125 0.207916 16.5 0.582916 16.5 0.957916V3.20792H18C19.6406 3.20792 21 4.56729 21 6.20792V7.70792V9.20792V9.25479C20.7188 9.25479 20.4844 9.20792 20.25 9.20792C19.9688 9.20792 19.7344 9.25479 19.5 9.25479V9.20792H1.5V21.2079C1.5 22.0517 2.15625 22.7079 3 22.7079H13.875C14.3438 23.3173 14.8594 23.786 15.4688 24.2079H3C1.3125 24.2079 0 22.8954 0 21.2079V9.20792V7.70792V6.20792C0 4.56729 1.3125 3.20792 3 3.20792H4.5V0.957916C4.5 0.582916 4.82812 0.207916 5.25 0.207916ZM18 4.70792H3C2.15625 4.70792 1.5 5.41104 1.5 6.20792V7.70792H19.5V6.20792C19.5 5.41104 18.7969 4.70792 18 4.70792ZM20.25 22.7079C22.125 22.7079 23.8125 21.7235 24.75 20.0829C25.7344 18.4892 25.7344 16.4735 24.75 14.8329C23.8125 13.2392 22.125 12.2079 20.25 12.2079C18.3281 12.2079 16.6406 13.2392 15.7031 14.8329C14.7188 16.4735 14.7188 18.4892 15.7031 20.0829C16.6406 21.7235 18.3281 22.7079 20.25 22.7079ZM20.25 10.7079C22.6406 10.7079 24.8438 12.0204 26.0625 14.0829C27.2812 16.1923 27.2812 18.7704 26.0625 20.8329C24.8438 22.9423 22.6406 24.2079 20.25 24.2079C17.8125 24.2079 15.6094 22.9423 14.3906 20.8329C13.1719 18.7704 13.1719 16.1923 14.3906 14.0829C15.6094 12.0204 17.8125 10.7079 20.25 10.7079ZM20.25 13.7079C20.625 13.7079 21 14.0829 21 14.4579V16.7079H22.5C22.875 16.7079 23.25 17.0829 23.25 17.4579C23.25 17.8798 22.875 18.2079 22.5 18.2079H20.25C19.8281 18.2079 19.5 17.8798 19.5 17.4579V14.4579C19.5 14.0829 19.8281 13.7079 20.25 13.7079Z" fill="url(#paint0_linear_5_76)"/>
<defs>
<linearGradient id="paint0_linear_5_76" x1="13.5" y1="0.207916" x2="13.5" y2="24.2079" gradientUnits="userSpaceOnUse">
<stop stop-color="#00AEC7"/>
<stop offset="1" stop-color="#5867DD"/>
</linearGradient>
</defs>
</svg>
