<svg width="579" height="407" viewBox="0 0 579 407" fill="none" xmlns="http://www.w3.org/2000/svg">
<path d="M579 300.498C579 301.041 579 301.585 578.972 302.128C578.972 302.671 578.944 303.215 578.902 303.758C578.875 304.343 578.833 304.914 578.791 305.513C578.708 306.698 578.582 307.882 578.415 309.066C578.346 309.54 578.276 310.013 578.206 310.487C578.137 310.947 578.053 311.393 577.97 311.839C577.9 312.215 577.831 312.591 577.747 312.981C577.677 313.385 577.58 313.803 577.483 314.207C577.399 314.611 577.288 315.015 577.204 315.419C576.787 317.119 576.285 318.805 575.701 320.476C575.575 320.825 575.45 321.201 575.325 321.563C575.186 321.967 575.033 322.371 574.865 322.775C574.698 323.179 574.545 323.569 574.378 323.973C574.211 324.377 574.044 324.781 573.877 325.171C573.348 326.37 572.777 327.568 572.179 328.766C571.371 330.34 570.48 331.915 569.506 333.461C569.269 333.851 569.033 334.227 568.768 334.617C568.253 335.425 567.71 336.22 567.14 337.014C566.611 337.752 566.068 338.477 565.511 339.201C565.149 319.445 560.485 304.19 551.479 292.626C542.639 281.286 529.623 273.595 512.083 269.457C501.657 266.977 489.616 265.751 475.904 265.751H475.403C432.778 265.751 413.038 238.347 408.806 212.656C405.897 195.06 409.586 174.441 421.627 156.719C426.04 150.185 431.608 144.041 438.388 138.594C439 139.862 439.641 141.102 440.295 142.328C440.615 142.941 440.949 143.567 441.297 144.18C441.409 144.403 441.534 144.626 441.659 144.849C442.216 145.866 442.787 146.855 443.357 147.845C444.415 149.67 445.529 151.453 446.684 153.222C461.983 176.6 483.268 196.022 508.45 208.212C523.86 215.68 537.642 225.516 548.834 236.787C549.767 237.72 550.685 238.667 551.59 239.629C553.386 241.537 555.098 243.502 556.741 245.48C557.576 246.469 558.37 247.459 559.149 248.476C560.318 249.994 561.446 251.527 562.518 253.059C563.952 255.121 565.316 257.197 566.583 259.315C574.517 272.508 579 286.58 579 300.47V300.498Z" fill="#C7F2F2"/>
<path d="M562.991 342.28C561.919 343.548 560.764 344.788 559.567 346.028C559.052 346.557 558.537 347.073 557.994 347.602C557.284 348.312 556.546 348.995 555.78 349.692C519.503 382.655 369.133 394.887 254.608 393.996C253.856 393.996 253.104 393.996 252.367 393.996C250.557 393.996 248.775 393.954 246.993 393.926C246.422 393.926 245.838 393.926 245.295 393.898C243.917 393.898 242.539 393.856 241.174 393.828C232.989 393.689 225.026 393.48 217.356 393.215C213.987 393.09 210.66 392.965 207.403 392.811C234.131 377.807 247.453 363.401 249.262 347.602C252.144 322.538 225.736 294.674 183.223 255.887C175.72 249.033 167.715 241.858 159.293 234.293C150.189 226.115 140.765 217.658 130.826 208.602C106.715 186.631 93.2399 165.761 90.5254 146.326C90.4976 146.228 90.4836 146.117 90.4697 146.006C90.6646 145.964 90.8456 145.936 91.0405 145.922C93.8107 145.518 96.5809 145.337 99.365 145.406C137.869 146.34 187.121 140.697 236.873 73.2107C286.639 5.73788 343.728 15.4903 343.728 15.4903C363.551 17.19 384.348 26.7056 398.547 40.4565C413.428 54.8761 417.131 71.706 421.961 91.0994C422.351 92.6737 422.755 94.248 423.159 95.8084C424.175 99.6815 425.247 103.555 426.388 107.386C427.029 109.573 427.697 111.733 428.421 113.892C428.769 114.993 429.145 116.08 429.52 117.18C429.729 117.793 429.938 118.378 430.147 118.991C430.439 119.841 430.745 120.677 431.052 121.499C431.358 122.349 431.664 123.185 431.998 124.007C432.318 124.843 432.625 125.679 432.973 126.515C433.975 129.008 435.019 131.474 436.133 133.913C436.467 134.679 436.829 135.445 437.177 136.197L437.246 136.351C430.62 141.631 424.857 147.733 420.068 154.574C418.996 156.12 417.966 157.695 417.006 159.311C407.066 175.806 403.252 194.893 406.259 213.06C408.848 228.734 416.198 242.192 427.516 251.973C439.849 262.631 456.373 268.259 475.361 268.259H475.848C489.713 268.259 501.81 269.527 512.209 272.076C528.788 276.131 541.094 283.459 549.433 294.159C558.551 305.862 563.047 321.605 562.95 342.238L562.991 342.28Z" fill="#C7F2F2"/>
<path d="M246.757 347.309C245.003 362.579 231.541 376.65 204.396 391.585C203.784 391.92 203.227 392.254 202.67 392.589C201.083 392.519 199.496 392.421 197.951 392.338C196.74 392.268 195.557 392.212 194.359 392.143C193.566 392.087 192.772 392.045 191.979 391.989C190.141 391.878 188.346 391.767 186.564 391.641C185.826 391.585 185.102 391.544 184.364 391.488C184.156 391.488 183.947 391.46 183.752 391.446C182.388 391.349 181.023 391.237 179.701 391.14C178.894 391.07 178.1 391.014 177.307 390.945C175.594 390.805 173.91 390.666 172.239 390.513C168.592 390.178 165.098 389.844 161.743 389.482C160.95 389.398 160.17 389.301 159.391 389.217C158.583 389.133 157.79 389.036 156.996 388.938C155.423 388.743 153.878 388.562 152.389 388.353C117.225 383.672 79.2358 382.098 49.042 361.269C25.0011 344.676 7.89265 313.636 2.14343 285.897C-5.26234 250.203 7.09917 212.768 30.3327 185.294C30.8338 184.681 31.3628 184.082 31.8918 183.469C32.6992 182.535 33.5344 181.616 34.3975 180.668C35.5808 179.373 36.8058 178.091 38.0865 176.795C38.4762 176.405 38.866 176.001 39.2697 175.611C40.3555 174.538 41.4553 173.466 42.5968 172.421C44.3368 170.805 46.1326 169.202 47.984 167.628C48.5826 167.14 49.1673 166.625 49.7798 166.151C50.0025 165.956 50.2392 165.775 50.4758 165.58C51.1718 165.009 51.8957 164.452 52.6057 163.894C53.079 163.518 53.5801 163.142 54.0534 162.78C54.7077 162.292 55.362 161.791 56.0441 161.317C56.6148 160.913 57.1856 160.509 57.7563 160.119C59.0092 159.241 60.262 158.419 61.5566 157.611C62.197 157.207 62.8513 156.803 63.4916 156.413C63.5334 156.385 63.5612 156.371 63.589 156.343C64.2016 155.981 64.828 155.605 65.4405 155.256C66.0948 154.88 66.749 154.504 67.4172 154.156C68.7258 153.431 70.0621 152.749 71.4264 152.108C72.0945 151.787 72.7627 151.481 73.4448 151.174C74.127 150.868 74.8091 150.575 75.4912 150.297C76.1733 150.004 76.8554 149.739 77.5375 149.475C78.9156 148.959 80.2938 148.472 81.6719 148.054C82.368 147.845 83.064 147.636 83.76 147.441C84.3447 147.273 84.9154 147.12 85.514 146.981C85.7089 146.911 85.9038 146.883 86.1126 146.841C86.6973 146.702 87.2819 146.577 87.8666 146.465C87.8944 146.437 87.9223 146.437 87.9501 146.437C88.0197 147.009 88.1172 147.58 88.2146 148.137C91.4581 167.753 105.128 188.61 129.099 210.427C139.039 219.497 148.463 227.954 157.567 236.146C165.516 243.279 173.089 250.064 180.188 256.542C222.883 295.427 249.485 323.123 246.715 347.282L246.757 347.309Z" fill="#C7F2F2"/>
<path d="M246.757 347.309C245.838 355.362 241.648 363.081 233.922 370.771C227.003 377.653 217.231 384.522 204.396 391.585C203.784 391.92 203.227 392.254 202.67 392.589C201.083 392.519 199.496 392.421 197.951 392.338C196.74 392.268 195.557 392.212 194.359 392.143C193.566 392.087 192.772 392.045 191.979 391.99C190.141 391.878 188.346 391.767 186.564 391.641C185.826 391.585 185.102 391.544 184.364 391.488C184.156 391.488 183.947 391.46 183.752 391.446C182.388 391.349 181.023 391.237 179.701 391.14C178.894 391.07 178.1 391.014 177.307 390.945C175.594 390.805 173.91 390.666 172.24 390.513C168.592 390.178 165.098 389.844 161.743 389.482C160.95 389.398 160.17 389.301 159.391 389.217C158.583 389.133 157.79 389.036 156.996 388.938C155.423 388.743 153.878 388.562 152.389 388.353C123.545 384.508 92.8084 382.767 66.0112 370.757C60.1367 368.124 54.471 365.003 49.042 361.269C25.0011 344.676 7.89265 313.636 2.14343 285.897C-5.26234 250.203 7.09917 212.768 30.3327 185.294C30.8338 184.681 31.3628 184.082 31.8918 183.469C32.6992 182.535 33.5344 181.616 34.3975 180.669C35.5808 179.373 36.8058 178.091 38.0865 176.795C38.4762 176.405 38.866 176.001 39.2697 175.611C40.3555 174.538 41.4553 173.466 42.5968 172.421C44.3368 170.805 46.1326 169.202 47.984 167.628C48.5826 167.141 49.1673 166.625 49.7798 166.151C50.0025 165.956 50.2392 165.775 50.4758 165.58C51.1719 165.009 51.8957 164.452 52.6057 163.894C53.079 163.518 53.5801 163.142 54.0534 162.78C54.7077 162.292 55.362 161.791 56.0441 161.317C56.6148 160.913 57.1856 160.509 57.7563 160.119C59.0092 159.241 60.262 158.405 61.5566 157.611C62.197 157.207 62.8513 156.803 63.4916 156.413C63.5334 156.385 63.5612 156.371 63.5891 156.343C64.2016 155.981 64.828 155.605 65.4405 155.256C66.0948 154.88 66.749 154.504 67.4172 154.156C68.7258 153.431 70.0621 152.735 71.4264 152.108C72.0946 151.787 72.7627 151.481 73.4448 151.174C74.127 150.868 74.8091 150.575 75.4912 150.297C76.1733 150.004 76.8554 149.739 77.5375 149.475C78.9017 148.945 80.2938 148.458 81.6719 148.054C82.368 147.845 83.064 147.636 83.76 147.441C84.3447 147.273 84.9154 147.12 85.514 146.981C85.7089 146.911 85.9038 146.883 86.1126 146.842C86.6973 146.702 87.2819 146.577 87.8666 146.465C87.8945 146.438 87.9223 146.438 87.9501 146.438C88.7715 146.256 89.6067 146.117 90.4419 145.992C90.6368 145.95 90.8178 145.922 91.0127 145.908C90.8317 146.033 90.6786 146.173 90.4976 146.312C89.732 146.911 88.9663 147.51 88.2286 148.151C69.4496 163.936 55.3759 190.616 66.6516 235.533C81.7833 295.789 127.178 268.886 180.202 256.556C222.897 295.441 249.499 323.137 246.729 347.296L246.757 347.309Z" fill="#AFE8E6"/>
<path d="M562.992 342.28C561.92 343.548 560.764 344.788 559.567 346.028C559.052 346.557 558.537 347.073 557.994 347.602C557.284 348.313 556.546 348.995 555.781 349.692C546.649 357.995 530.278 364.975 509.063 370.771C446.044 387.991 340.29 394.665 254.608 393.996C253.856 393.996 253.105 393.996 252.367 393.996C250.557 393.996 248.775 393.954 246.994 393.926C246.423 393.926 245.838 393.926 245.295 393.898C243.917 393.898 242.539 393.856 241.175 393.829C232.989 393.689 225.027 393.48 217.357 393.216C213.988 393.09 210.661 392.951 207.403 392.812C220.614 385.4 230.525 378.127 237.416 370.771C244.488 363.234 248.344 355.599 249.263 347.602C252.144 322.538 225.737 294.674 183.223 255.888C216.577 248.518 252.757 247.626 286.194 278.137C367.894 352.673 514.492 336.819 512.251 272.104C528.83 276.159 541.136 283.487 549.475 294.187C558.593 305.89 563.089 321.633 562.992 342.266V342.28Z" fill="#BFEFEF"/>
<path d="M420.11 154.588C416.602 149.377 413.567 143.386 411.145 136.267C405.438 119.479 411.298 105.547 423.173 95.8224C424.189 99.6955 425.261 103.569 426.402 107.4C427.043 109.587 427.725 111.747 428.435 113.906C428.783 115.007 429.158 116.093 429.534 117.194C429.743 117.807 429.952 118.392 430.161 119.005C430.453 119.855 430.759 120.691 431.066 121.513C431.372 122.363 431.678 123.199 432.012 124.021C432.332 124.857 432.639 125.693 432.987 126.529C433.989 129.022 435.033 131.488 436.147 133.926C436.481 134.693 436.843 135.459 437.191 136.211L437.26 136.365C430.634 141.645 424.871 147.747 420.082 154.588H420.11Z" fill="#BFEFEF"/>
<path d="M579 300.498C579 301.041 579 301.585 578.972 302.128C578.972 302.671 578.944 303.215 578.902 303.758C578.874 304.343 578.833 304.914 578.791 305.513C578.707 306.698 578.582 307.882 578.415 309.066C578.345 309.54 578.276 310.013 578.206 310.487C578.137 310.947 578.053 311.393 577.969 311.839C577.9 312.215 577.83 312.591 577.747 312.981C577.677 313.385 577.58 313.803 577.482 314.207C577.399 314.611 577.287 315.015 577.204 315.419C576.786 317.119 576.285 318.805 575.7 320.476C575.575 320.825 575.45 321.201 575.325 321.563C575.185 321.967 575.032 322.371 574.865 322.775C574.698 323.179 574.545 323.569 574.378 323.973C574.211 324.377 574.044 324.781 573.877 325.171C573.362 326.384 572.791 327.568 572.178 328.766C571.371 330.34 570.48 331.915 569.506 333.461C569.269 333.851 569.032 334.227 568.768 334.617C568.253 335.425 567.71 336.22 567.139 337.014C566.61 337.752 566.067 338.477 565.51 339.201C565.149 319.445 560.485 304.19 551.479 292.626C542.639 281.286 529.623 273.595 512.083 269.457C511.693 265.333 510.691 261.042 509.076 256.556C485.328 191.048 444.485 188.289 421.599 156.719C426.012 150.185 431.58 144.041 438.36 138.594C438.972 139.862 439.612 141.102 440.267 142.328C440.587 142.941 440.921 143.567 441.269 144.18C441.38 144.403 441.506 144.626 441.631 144.849C442.188 145.866 442.758 146.855 443.329 147.845C444.387 149.67 445.501 151.453 446.656 153.222C461.955 176.6 483.24 196.022 508.422 208.212C523.832 215.68 537.614 225.516 548.806 236.787C549.738 237.72 550.657 238.667 551.562 239.629C553.358 241.537 555.07 243.502 556.713 245.48C557.548 246.469 558.341 247.459 559.121 248.476C560.29 249.994 561.418 251.527 562.49 253.059C563.924 255.121 565.288 257.197 566.555 259.315C574.489 272.508 578.972 286.58 578.972 300.47L579 300.498Z" fill="#BFEFEF"/>
<path d="M547.79 213.464C547.54 213.464 547.289 213.395 547.08 213.242C546.913 213.13 530.389 201.594 474.735 154.03C418.662 106.118 420.681 40.4008 420.695 39.746C420.723 39.0494 421.293 38.5061 422.003 38.5339C422.699 38.5618 423.242 39.1469 423.215 39.8435C423.187 40.4844 421.252 105.018 476.363 152.108C531.865 199.532 548.347 211.054 548.514 211.166C549.085 211.57 549.224 212.35 548.834 212.921C548.584 213.283 548.194 213.464 547.79 213.464Z" fill="#D7F8F9"/>
<path d="M69.2278 132.506C68.5596 132.506 68.0028 131.976 67.961 131.293C67.9332 130.597 68.4622 130.012 69.1582 129.97C102.011 128.465 132.01 123.255 158.306 114.464C181.233 106.801 196.24 96.4355 211.803 77.5019C231.208 53.8871 249.194 33.1284 272.58 18.0957C273.165 17.7195 273.944 17.8867 274.32 18.4719C274.696 19.057 274.529 19.8372 273.944 20.2134C250.85 35.051 233.018 55.6564 213.752 79.104C197.854 98.4417 182.528 109.03 159.099 116.86C132.581 125.721 102.359 130.973 69.2695 132.492H69.2139L69.2278 132.506Z" fill="#D7F8F9"/>
<path d="M233.921 370.771C227.003 377.653 217.23 384.522 204.396 391.585C203.783 391.92 203.226 392.254 202.669 392.589C201.083 392.519 199.496 392.421 197.95 392.338C196.739 392.268 195.556 392.212 194.359 392.143C193.565 392.087 192.772 392.045 191.978 391.989C190.141 391.878 188.345 391.767 186.563 391.641C185.826 391.585 185.102 391.544 184.364 391.488C184.155 391.488 183.946 391.46 183.751 391.446C182.387 391.349 181.023 391.237 179.7 391.14C178.893 391.07 178.1 391.014 177.306 390.945C175.594 390.805 173.909 390.666 172.239 390.513C168.592 390.178 165.098 389.844 161.743 389.482C160.949 389.398 160.17 389.301 159.39 389.217C158.583 389.133 157.789 389.036 156.996 388.938C155.423 388.743 153.878 388.562 152.388 388.353C123.545 384.508 92.8079 382.766 66.0107 370.757H233.907L233.921 370.771Z" fill="#A6D8DD"/>
<path d="M509.063 370.771C446.044 387.991 340.29 394.664 254.608 393.996C253.856 393.996 253.105 393.996 252.367 393.996C250.557 393.996 248.775 393.954 246.994 393.926C246.423 393.926 245.838 393.926 245.295 393.898C243.917 393.898 242.539 393.856 241.175 393.829C232.989 393.689 225.027 393.48 217.357 393.215C213.988 393.09 210.661 392.951 207.403 392.811C220.614 385.4 230.525 378.127 237.416 370.771H509.077H509.063Z" fill="#A6D8DD"/>
<path d="M143.131 206.61C147.198 206.61 150.495 203.31 150.495 199.24C150.495 195.17 147.198 191.87 143.131 191.87C139.064 191.87 135.767 195.17 135.767 199.24C135.767 203.31 139.064 206.61 143.131 206.61Z" fill="white"/>
<path d="M104.92 193.138C104.92 195.576 102.944 197.554 100.508 197.554C98.0715 197.554 96.0947 195.576 96.0947 193.138C96.0947 190.7 98.0715 188.721 100.508 188.721C102.944 188.721 104.92 190.7 104.92 193.138Z" fill="white"/>
<path d="M161.103 220.514C161.103 222.952 159.126 224.931 156.69 224.931C154.254 224.931 152.277 222.952 152.277 220.514C152.277 218.076 154.254 216.098 156.69 216.098C159.126 216.098 161.103 218.076 161.103 220.514Z" fill="white"/>
<path d="M420.473 204.52C420.473 206.958 418.496 208.937 416.06 208.937C413.624 208.937 411.647 206.958 411.647 204.52C411.647 202.082 413.624 200.104 416.06 200.104C418.496 200.104 420.473 202.082 420.473 204.52Z" fill="white"/>
<path d="M422.868 185.238C422.868 186.812 421.587 188.094 420.014 188.094C418.441 188.094 417.16 186.812 417.16 185.238C417.16 183.664 418.441 182.382 420.014 182.382C421.587 182.382 422.868 183.664 422.868 185.238Z" fill="white"/>
<path d="M402.347 197.094C402.347 198.669 401.066 199.95 399.493 199.95C397.92 199.95 396.64 198.669 396.64 197.094C396.64 195.52 397.92 194.238 399.493 194.238C401.066 194.238 402.347 195.52 402.347 197.094Z" fill="white"/>
<path d="M464.699 256.96C464.699 258.535 463.418 259.816 461.845 259.816C460.272 259.816 458.991 258.535 458.991 256.96C458.991 255.386 460.272 254.104 461.845 254.104C463.418 254.104 464.699 255.386 464.699 256.96Z" fill="white"/>
<path d="M509.245 278.708C508.451 277.343 508.924 275.601 510.289 274.807C511.653 274.013 513.393 274.487 514.186 275.852C514.98 277.217 514.507 278.959 513.142 279.753C511.778 280.547 510.038 280.073 509.245 278.708Z" fill="white"/>
<path d="M517.484 295.413C516.329 293.421 517.011 290.871 519.002 289.729C520.992 288.586 523.54 289.255 524.681 291.247C525.837 293.239 525.155 295.789 523.164 296.931C521.173 298.088 518.626 297.405 517.484 295.413Z" fill="white"/>
<path d="M303.999 406.325C99.9084 406.325 44.5322 377.946 43.9893 377.653C43.3768 377.319 43.1401 376.553 43.4742 375.94C43.8083 375.327 44.56 375.09 45.1865 375.424C45.7433 375.731 103.987 405.406 321.372 403.734C434.658 402.87 497.05 387.601 529.457 374.937C564.537 361.227 572.931 347.574 573.015 347.449C573.363 346.85 574.142 346.641 574.741 347.003C575.339 347.351 575.548 348.131 575.186 348.73C574.852 349.316 566.514 363.08 530.891 377.096C498.303 389.927 435.493 405.406 321.372 406.27C315.469 406.312 309.664 406.339 303.999 406.339V406.325Z" fill="#D7F8F9"/>
<g clip-path="url(#clip0_221_347)">
<g style="mix-blend-mode:multiply" opacity="0.2">
<path d="M233.628 341.559C254.819 353.785 254.819 373.607 233.628 385.83C212.438 398.056 178.083 398.056 156.893 385.83C135.702 373.604 135.702 353.783 156.893 341.559C178.083 329.333 212.438 329.333 233.628 341.559Z" fill="#32A489"/>
</g>
<path d="M232.538 15.2171C232.538 7.69149 237.875 4.61314 244.397 8.37484L349 68.7214C355.524 72.4831 360.857 81.7225 360.857 89.248L360.853 355.252C360.853 362.776 355.52 365.854 348.996 362.088L244.397 301.746C237.871 297.984 232.536 288.747 232.536 281.217V15.2171H232.538Z" fill="#BFD1E4"/>
<path d="M360.855 355.252L360.859 89.2481C360.859 81.7225 355.526 72.4853 349.002 68.7214L244.399 8.37484C241.244 6.55622 238.38 6.34881 236.252 7.45571V7.44261L248.358 0.558899C250.46 -0.41482 253.241 -0.146283 256.282 1.60466L360.888 61.949C367.407 65.7151 372.743 74.9523 372.743 82.4757V348.478C372.743 352.296 371.366 354.971 369.16 356.189L358.021 362.455C359.785 361.081 360.853 358.614 360.853 355.252H360.855Z" fill="#EFEFEF"/>
<path d="M232.538 15.2171V270.984L360.853 345.013L360.857 89.2459C360.857 88.6215 360.809 87.9862 360.735 87.3443L232.66 13.4552C232.588 14.0141 232.54 14.5949 232.54 15.2171H232.538Z" fill="url(#paint0_linear_221_347)"/>
<path d="M360.86 113.29L355.82 110.379L353.919 107.085L352.938 108.973L351.588 108.196L351.118 101.649L349.82 106.022L349.361 95.6231L348.291 94.9572L347.012 105.452L345.686 104.692L343.39 99.173L341.172 101.935L331.262 96.2147L329.366 92.9202L328.38 94.8087L327.034 94.0315L326.562 87.4862L325.262 91.8526L324.806 81.4561L323.737 80.7902L322.459 91.2894L321.133 90.5252L318.833 85.006L316.619 87.7635L306.715 82.0521L304.81 78.7577L303.827 80.6418L302.481 79.8646L302.005 73.3192L300.714 77.6901L300.251 67.2914L299.184 66.6255L297.906 77.1268L296.58 76.3605L294.275 70.8391L292.066 73.6009L282.156 67.8808L280.253 64.5907L279.274 66.4748L277.924 65.6976L277.458 59.1567L276.156 63.5209L275.695 53.1288L274.627 52.4585L273.349 62.9577L272.02 62.1935L269.72 56.6743L267.509 59.4317L257.603 53.7183L255.695 50.4216L254.716 52.3123L253.371 51.5307L252.899 44.9875L251.601 49.3583L251.142 38.9596L250.067 38.2938L248.796 48.7907L247.469 48.0266L245.167 42.5118L242.953 45.2692L237.325 42.0227V43.2584L243.548 46.852L245.167 44.8282L246.875 48.9261L249.737 50.5766L250.373 45.3499L250.856 56.2835L252.32 51.3473L252.381 52.2053L255.407 53.9497L256.03 52.7467L257.157 54.7051L268.101 61.0146L269.722 58.9929L271.433 63.093L274.295 64.7435L274.931 59.5213L275.411 70.4505L276.877 65.512L276.938 66.3744L279.96 68.1123L280.585 66.9137L281.714 68.8676L292.658 75.1837L294.275 73.1599L295.988 77.2622L298.848 78.9105L299.484 73.6838L299.967 84.6153L301.435 79.6812L301.496 80.537L304.52 82.2814L305.138 81.0828L306.268 83.0368L317.216 89.3507L318.833 87.3268L320.543 91.4247L323.403 93.0753L324.039 87.853L324.522 98.7822L325.983 93.8437L326.049 94.7061L329.066 96.444L329.691 95.2497L330.821 97.1994L341.765 103.518L343.39 101.492L345.103 105.587L347.959 107.238L348.596 102.016L349.079 112.949L350.541 108.013L350.602 108.869L353.626 110.615L354.246 109.412L355.374 111.366L360.86 114.53V113.29Z" fill="#EFEFEF"/>
<g style="mix-blend-mode:multiply" opacity="0.2">
<path d="M278.007 76.1552V54.3929L232.663 28.2335V80.5523L247.666 89.2087L247.664 229.005L345.586 285.498V115.143L278.007 76.1552Z" fill="#32A489"/>
</g>
<path d="M343.226 305.935L239.097 245.862V64.7042L343.228 124.778L343.226 305.935Z" fill="#EFEFEF"/>
<g style="mix-blend-mode:multiply" opacity="0.4">
<path d="M338.052 134.236L300.274 112.438V109.375L338.054 131.17L338.052 134.236Z" fill="#32A489"/>
</g>
<g style="mix-blend-mode:multiply" opacity="0.4">
<path d="M338.052 140.777L300.274 118.981V115.918L338.052 137.713V140.777Z" fill="#32A489"/>
</g>
<g style="mix-blend-mode:multiply" opacity="0.4">
<path d="M327.814 141.412L300.274 125.525V122.459L327.814 138.349V141.412Z" fill="#32A489"/>
</g>
<g style="mix-blend-mode:multiply" opacity="0.4">
<path d="M332.203 186.02L256.363 142.265V140.735L332.203 184.487V186.02Z" fill="#32A489"/>
</g>
<g style="mix-blend-mode:multiply" opacity="0.4">
<path d="M332.203 189.694L256.363 145.94V144.409L332.203 188.161V189.694Z" fill="#32A489"/>
</g>
<g style="mix-blend-mode:multiply" opacity="0.4">
<path d="M308.187 179.513L256.363 149.616V148.084L308.187 177.981V179.513Z" fill="#32A489"/>
</g>
<g style="mix-blend-mode:multiply" opacity="0.4">
<path d="M251.421 131.635C251.421 133.506 250.106 134.266 248.483 133.33C246.859 132.393 245.544 130.118 245.544 128.245C245.544 126.374 246.859 125.614 248.483 126.551C250.104 127.487 251.421 129.762 251.421 131.635Z" fill="#32A489"/>
</g>
<g style="mix-blend-mode:multiply" opacity="0.4">
<path d="M272.898 129.45L246.525 114.235V110.395L272.898 125.61V129.45Z" fill="#32A489"/>
</g>
<g style="mix-blend-mode:multiply" opacity="0.4">
<path d="M282.739 151.623L256.363 136.406V132.565L282.739 147.78V151.623Z" fill="#32A489"/>
</g>
<g style="mix-blend-mode:multiply" opacity="0.4">
<path d="M332.203 213.281L256.363 169.527V167.997L332.203 211.749V213.281Z" fill="#32A489"/>
</g>
<g style="mix-blend-mode:multiply" opacity="0.4">
<path d="M332.203 216.956L256.363 173.202V171.671L332.203 215.423V216.956Z" fill="#32A489"/>
</g>
<g style="mix-blend-mode:multiply" opacity="0.4">
<path d="M308.187 206.775L256.363 176.876V175.346L308.187 205.243V206.775Z" fill="#32A489"/>
</g>
<g style="mix-blend-mode:multiply" opacity="0.4">
<path d="M251.421 158.897C251.421 160.771 250.106 161.528 248.483 160.591C246.859 159.655 245.544 157.38 245.544 155.507C245.544 153.634 246.859 152.876 248.483 153.813C250.104 154.747 251.419 157.024 251.419 158.897H251.421Z" fill="#32A489"/>
</g>
<g style="mix-blend-mode:multiply" opacity="0.4">
<path d="M282.736 178.885L256.363 163.668V159.827L282.736 175.042V178.885Z" fill="#32A489"/>
</g>
<g style="mix-blend-mode:multiply" opacity="0.4">
<path d="M332.203 240.543L256.363 196.789V195.259L332.203 239.011V240.543Z" fill="#32A489"/>
</g>
<g style="mix-blend-mode:multiply" opacity="0.4">
<path d="M332.201 274.982L305.874 259.795V258.262L332.203 273.451L332.201 274.982Z" fill="#32A489"/>
</g>
<g style="mix-blend-mode:multiply" opacity="0.4">
<path d="M332.201 278.311L305.874 263.122V261.59L332.201 276.778V278.311Z" fill="#32A489"/>
</g>
<g style="mix-blend-mode:multiply" opacity="0.4">
<path d="M332.203 244.218L256.363 200.464V198.933L332.203 242.685V244.218Z" fill="#32A489"/>
</g>
<g style="mix-blend-mode:multiply" opacity="0.4">
<path d="M308.187 234.037L256.363 204.138V202.608L308.187 232.505V234.037Z" fill="#32A489"/>
</g>
<g style="mix-blend-mode:multiply" opacity="0.4">
<path d="M251.421 186.159C251.421 188.03 250.106 188.79 248.483 187.853C246.861 186.917 245.544 184.642 245.544 182.769C245.544 180.898 246.859 180.138 248.483 181.075C250.106 182.011 251.421 184.286 251.421 186.159Z" fill="#32A489"/>
</g>
<g style="mix-blend-mode:multiply" opacity="0.4">
<path d="M282.736 206.147L256.363 190.932V187.089L282.736 202.304V206.147Z" fill="#32A489"/>
</g>
<g style="mix-blend-mode:multiply" opacity="0.4">
<path d="M335.799 165.74L309.426 150.522V146.682L335.799 161.897V165.74Z" fill="#32A489"/>
</g>
<path d="M309.424 277.023C300.03 271.602 292.387 258.376 292.389 247.536C292.389 236.697 300.032 232.289 309.424 237.707C318.819 243.126 326.462 256.354 326.462 267.192C326.462 278.032 318.819 282.439 309.424 277.021V277.023ZM309.424 238.445C300.383 233.23 293.027 237.472 293.027 247.905C293.027 258.337 300.383 271.067 309.424 276.285C318.465 281.501 325.821 277.259 325.821 266.825C325.821 256.391 318.465 243.661 309.424 238.445Z" fill="#32A489"/>
<path d="M309.425 275.787C300.622 270.709 293.46 258.315 293.46 248.158C293.46 238.002 300.622 233.869 309.425 238.95C318.227 244.028 325.389 256.422 325.389 266.578C325.389 276.735 318.227 280.868 309.425 275.789V275.787ZM309.425 239.685C300.974 234.81 294.1 238.777 294.1 248.527C294.1 258.278 300.974 270.176 309.425 275.049C317.875 279.924 324.749 275.957 324.749 266.207C324.749 256.457 317.875 244.558 309.425 239.683V239.685Z" fill="#32A489"/>
<path d="M309.424 268.742C303.988 265.605 299.564 257.95 299.564 251.678C299.564 245.405 303.986 242.853 309.424 245.991C314.86 249.128 319.284 256.782 319.284 263.055C319.284 269.327 314.86 271.879 309.424 268.742ZM309.424 246.728C304.34 243.796 300.204 246.183 300.204 252.047C300.204 257.913 304.34 265.072 309.424 268.004C314.508 270.936 318.644 268.55 318.644 262.683C318.644 256.817 314.508 249.658 309.424 246.726V246.728Z" fill="#32A489"/>
<g style="mix-blend-mode:multiply" opacity="0.3">
<path d="M375.987 263.328C377.783 264.362 379.251 266.893 379.247 268.956L379.153 301.857C379.147 303.918 377.67 304.761 375.874 303.724L347.228 287.199C345.424 286.157 343.964 283.621 343.971 281.56L344.065 248.658C344.069 246.597 345.537 245.761 347.344 246.803L375.987 263.328Z" fill="#32A489"/>
</g>
<path d="M369.896 267.532L341.251 251.008C340.342 250.481 339.518 250.436 338.922 250.778C337.012 251.887 335.103 252.996 333.195 254.103C333.79 253.758 334.613 253.806 335.524 254.333L364.167 270.857C365.963 271.894 367.432 274.423 367.427 276.486L367.333 309.387C367.331 310.411 366.964 311.136 366.376 311.476L372.103 308.149C372.693 307.806 373.06 307.084 373.06 306.06L373.154 273.159C373.16 271.095 371.69 268.567 369.896 267.53V267.532Z" fill="#50B0AD"/>
<path d="M364.167 270.857C365.963 271.894 367.432 274.423 367.427 276.486L367.333 309.387C367.327 311.45 365.85 312.291 364.054 311.256L335.408 294.731C333.604 293.687 332.144 291.153 332.151 289.09L332.245 256.188C332.249 254.127 333.717 253.291 335.524 254.333L364.167 270.857Z" fill="#32A489"/>
<path d="M360.396 301.438C359.47 301.012 358.738 300.104 357.965 299.143C357.386 298.425 356.787 297.683 356.086 297.119C354.346 295.724 349.962 289.801 349.649 287.815C349.359 285.963 349.328 281.361 349.328 281.175C349.315 280.693 349.47 280.261 349.629 279.874C349.354 279.636 349.133 279.438 349.013 279.263C349.002 279.245 348.991 279.228 348.981 279.213C348.804 279.234 348.541 279.158 348.179 279.018C348.284 279.431 348.36 279.828 348.351 280.156C348.351 280.35 348.323 284.924 348.028 286.452C347.74 287.952 344.757 288.749 342.717 288.749C342.114 288.749 341.609 288.679 341.222 288.544C340.884 288.424 340.543 288.369 340.154 288.369C339.913 288.369 339.675 288.389 339.444 288.408C339.21 288.428 338.967 288.45 338.723 288.45C338.255 288.45 337.624 288.384 336.896 287.882C335.127 286.655 336.269 277.259 338.185 274.01C339.514 271.757 341.878 270.185 343.934 270.185C344.687 270.185 345.336 270.403 345.813 270.818C347.488 272.277 347.72 275.975 347.691 276.883C347.685 277.082 347.735 277.346 347.788 277.573C347.827 277.591 347.871 277.61 347.917 277.63C348.072 277.7 348.36 277.828 348.513 277.89C348.513 277.883 348.515 277.877 348.517 277.872V270.864C348.517 270.726 348.592 270.598 348.712 270.528C348.832 270.458 348.981 270.458 349.101 270.528L349.584 270.807C349.704 270.877 349.778 271.004 349.778 271.143V278.138C349.778 278.138 349.789 278.396 349.988 278.684C349.99 278.686 349.992 278.691 349.996 278.693C349.996 278.682 349.996 278.669 349.996 278.658C349.975 277.957 350.104 275.757 350.96 274.875C351.307 274.517 351.762 274.39 352.236 274.525C354.071 275.045 357.685 280.721 359.533 285.987C361.133 290.546 362.367 299.654 361.277 301.193C361.08 301.471 360.835 301.512 360.709 301.512C360.608 301.512 360.508 301.488 360.407 301.442L360.396 301.438ZM351.506 275.409C350.927 276.005 350.735 277.8 350.761 278.63C350.772 278.994 350.674 279.322 350.599 279.538C350.575 279.608 350.532 279.667 350.477 279.71C350.486 279.778 350.477 279.85 350.451 279.916L350.407 280.016C350.243 280.405 350.088 280.771 350.099 281.16C350.099 281.208 350.13 285.898 350.412 287.692C350.672 289.347 354.832 295.122 356.566 296.515C357.333 297.13 357.958 297.905 358.565 298.656C359.262 299.521 359.922 300.338 360.661 300.706C361.34 299.72 360.551 291.266 358.788 286.24C356.842 280.691 353.296 275.63 352.013 275.268C351.956 275.252 351.902 275.244 351.851 275.244C351.773 275.244 351.65 275.261 351.504 275.412L351.506 275.409ZM347.075 277.944C346.953 277.464 346.901 277.128 346.909 276.855C346.944 275.802 346.625 272.552 345.297 271.397C344.965 271.109 344.491 270.956 343.929 270.956C342.461 270.956 340.246 272.034 338.849 274.399C336.912 277.687 336.121 286.4 337.335 287.24C337.882 287.62 338.34 287.67 338.718 287.67C338.93 287.67 339.144 287.653 339.374 287.633C339.621 287.611 339.876 287.59 340.149 287.59C340.63 287.59 341.052 287.66 341.476 287.808C341.777 287.913 342.205 287.97 342.712 287.97C344.807 287.97 347.102 287.127 347.261 286.299C347.543 284.843 347.571 280.193 347.571 280.136C347.584 279.748 347.414 279.147 347.248 278.564L347.222 278.47C347.193 278.37 347.206 278.265 347.255 278.178C347.167 278.125 347.102 278.04 347.075 277.94V277.944Z" fill="#EFEFEF"/>
<g style="mix-blend-mode:multiply" opacity="0.3">
<path d="M377.694 139.768C379.49 140.803 380.958 143.333 380.954 145.396L380.86 178.297C380.853 180.358 379.376 181.201 377.58 180.164L348.935 163.639C347.13 162.598 345.671 160.061 345.677 158L345.771 125.099C345.776 123.036 347.244 122.202 349.051 123.243L377.694 139.768Z" fill="#32A489"/>
</g>
<path d="M371.605 143.971L342.96 127.446C342.051 126.92 341.227 126.874 340.63 127.217C338.721 128.326 336.811 129.435 334.902 130.542C335.496 130.197 336.32 130.245 337.231 130.771L365.874 147.296C367.67 148.333 369.138 150.861 369.132 152.924L369.038 185.825C369.035 186.849 368.668 187.574 368.081 187.915L373.807 184.587C374.397 184.245 374.762 183.522 374.764 182.498L374.858 149.597C374.865 147.534 373.394 145.005 371.6 143.968L371.605 143.971Z" fill="#50B0AD"/>
<path d="M365.876 147.298C367.672 148.335 369.14 150.863 369.134 152.926L369.04 185.827C369.033 187.891 367.556 188.731 365.76 187.696L337.115 171.171C335.31 170.128 333.851 167.593 333.857 165.53L333.951 132.629C333.956 130.568 335.424 129.732 337.231 130.773L365.874 147.298H365.876Z" fill="#32A489"/>
<path d="M363.707 166.473C363.757 165.822 363.842 162.679 361.33 159.814C361.131 159.253 360.277 157.118 358.186 155.347C357.913 154.889 356.755 153.094 354.801 151.966C354.467 151.773 354.124 151.61 353.779 151.477C353.519 151.167 352.746 150.313 351.605 149.654C350.906 149.252 350.189 148.99 349.475 148.881C349.307 148.75 348.891 148.437 348.352 148.125C347.198 147.459 345.616 146.874 344.555 147.8C344.039 147.545 342.228 146.818 341.601 148.75C341.14 148.706 339.706 148.739 339.567 150.811C339.173 150.946 337.95 151.623 338.258 154.764C338.007 155.029 337.345 156.033 338.507 158.535C338.533 159.017 338.765 160.84 340.768 162.249C341.044 162.598 342.462 164.447 342.953 166.034L343.003 166.194L345.04 168.082L345.149 168.052C345.171 168.045 347.329 167.438 349.337 168.569C349.486 168.715 349.953 169.158 350.467 169.499C350.709 169.907 351.487 171.115 352.499 171.7C352.614 171.765 352.73 171.822 352.844 171.868C353.043 172.056 353.639 172.599 354.332 172.999C355.223 173.514 355.951 173.599 356.447 173.25C356.68 173.35 357.183 173.514 357.508 173.25C357.731 173.071 357.83 172.737 357.799 172.256C358 172.189 358.345 171.992 358.439 171.455C358.492 171.143 358.452 170.77 358.323 170.34C358.638 170.612 359.027 170.914 359.418 171.141C359.929 171.438 360.353 171.545 360.679 171.466C360.705 171.481 360.735 171.499 360.768 171.519C361.186 171.759 362.232 172.274 362.901 171.842C363.309 171.58 363.506 171.021 363.491 170.178C363.838 169.975 364.882 169.11 363.713 166.475L363.707 166.473ZM363.045 169.547C362.389 169.73 361.614 169.311 361.607 169.307L361.612 169.621L361.618 169.934C361.649 169.951 362.269 170.289 362.931 170.287C362.885 170.73 362.743 171.032 362.505 171.187C361.913 171.569 360.888 170.975 360.659 170.831C360.475 170.615 359.737 169.693 359.569 168.72C359.451 168.025 359.645 167.436 360.146 166.962C360.43 167.471 360.788 168.01 361.236 168.569L361.505 168.187C359.368 165.532 359.602 163.401 359.612 163.314L359.346 163.117L359.082 162.921C359.071 162.997 358.913 164.353 359.796 166.27C359.138 166.849 358.885 167.615 359.047 168.552C359.2 169.44 359.689 170.261 360.054 170.774C359.872 170.739 359.658 170.654 359.416 170.514C358.767 170.139 358.107 169.501 357.893 169.285C356.475 166.309 354.723 165.536 353.98 165.34C353.921 165.1 353.842 164.864 353.744 164.637C353.366 163.777 352.831 163.349 352.807 163.331L352.708 163.886C352.724 163.897 353.06 164.174 353.305 164.746C353.582 165.39 353.637 166.181 353.469 167.028L353.995 167.458C354.096 166.953 354.126 166.469 354.087 166.004C354.631 166.126 355.983 166.654 357.2 168.899L357.506 169.514C357.832 170.165 357.965 170.674 357.906 171.032C357.865 171.287 357.729 171.427 357.607 171.505C356.877 169.562 355.321 168.521 354.548 168.231L354.64 168.896C354.659 168.903 356.597 169.656 357.248 171.874C357.288 172.246 357.238 172.494 357.093 172.612C356.999 172.689 356.877 172.706 356.755 172.695C356.857 172.411 356.899 172.189 356.901 172.173L356.372 171.754C356.372 171.754 356.294 172.178 356.082 172.573C355.686 172.887 355.096 172.822 354.327 172.379C354.067 172.228 353.82 172.053 353.609 171.89C354.399 171.669 354.568 170.685 354.531 170.089L353.995 169.829C353.995 169.846 354.085 171.438 352.794 171.222C352.695 171.184 352.595 171.136 352.494 171.078C351.531 170.521 350.784 169.18 350.777 169.167L350.703 169.03L350.593 168.96C350.03 168.604 349.479 168.049 349.475 168.045L349.429 167.999L349.381 167.971C347.425 166.842 345.429 167.218 344.935 167.335L343.39 165.903C342.776 164.093 341.277 162.166 341.022 161.842C340.576 161.054 340.524 160.421 340.521 160.415L339.986 160.157C339.986 160.181 340.019 160.585 340.231 161.172C339.023 160.015 339.04 158.801 339.04 158.744L339.044 158.635L338.985 158.511C338.201 156.865 338.328 156.018 338.516 155.625C338.688 156.046 338.959 156.607 339.348 157.118L339.637 156.762C339.123 156.09 338.854 155.262 338.8 155.081C338.455 151.817 339.879 151.481 339.969 151.463C340.056 151.457 341.299 151.38 342.829 152.529L342.909 151.961C341.721 151.07 340.707 150.837 340.15 150.782C340.349 149.697 341.033 149.461 341.487 149.429C341.487 149.896 341.601 150.387 341.616 150.464L342.129 150.573C342.079 150.361 341.979 149.793 342.049 149.457L342.081 149.341C342.466 147.975 343.497 148.051 344.144 148.254C343.947 148.597 343.729 149.215 343.63 150.317L344.166 150.686C344.297 149.189 344.668 148.697 344.815 148.56L344.828 148.568L344.909 148.49C345.835 147.593 347.294 148.134 348.354 148.745C348.459 148.806 348.559 148.868 348.653 148.927C347.908 149.062 346.833 149.503 346.567 150.894C346.501 151.239 346.49 151.623 346.534 152.04C345.907 151.843 344.111 151.511 344.275 154.221C344.288 154.439 344.314 154.66 344.351 154.878C343.958 154.609 343.37 154.302 342.866 154.413C342.354 154.524 342.051 155.031 341.957 155.915C341.531 155.924 340.504 156.203 341.068 158.821C340.62 158.806 340.257 158.878 340.24 158.88L340.541 159.568C340.541 159.568 340.871 159.504 341.269 159.513C341.773 160.838 342.829 161.709 343.263 162.026C343.338 162.277 343.493 162.67 343.812 163.111C344.185 163.626 344.677 164.058 345.28 164.406C345.52 164.545 345.776 164.67 346.051 164.779C346.11 165.231 346.281 165.84 346.654 166.648L347.089 166.534C346.2 164.611 346.698 164.203 346.72 164.185L346.519 163.862L346.322 163.537C346.305 163.548 346.101 163.694 346.04 164.146C345.201 163.816 344.544 163.353 344.131 162.794C343.79 162.334 343.731 161.963 343.729 161.952L343.694 161.683L343.475 161.546C343.46 161.535 341.955 160.578 341.605 159.048C340.998 156.378 342.239 156.596 342.289 156.607L342.462 156.644L342.477 156.441C342.534 155.636 342.765 155.184 343.167 155.094C343.648 154.985 344.268 155.424 344.526 155.629C344.777 156.478 345.201 157.29 345.776 157.996C346.281 158.618 346.868 159.122 347.489 159.48C348.057 159.808 348.651 160.011 349.235 160.074C349.263 160.709 349.488 161.474 349.905 162.214C349.18 162.672 348.867 163.353 348.977 164.244C349.151 165.659 350.327 167.023 350.377 167.08L350.615 166.663C350.607 166.652 349.641 165.532 349.508 164.458C349.425 163.772 349.696 163.235 350.316 162.851C350.685 163.353 351.146 163.82 351.701 164.205L351.756 163.62C350.388 162.672 349.715 161.113 349.772 160.124C349.813 159.434 350.222 158.921 351.247 159.55L351.264 158.939C350.115 158.234 349.477 158.629 349.289 159.399C348.138 159.369 346.932 158.707 346.04 157.609C345.304 156.703 344.88 155.62 344.81 154.481C344.675 152.247 346.132 152.533 346.639 152.699C346.836 153.623 347.253 154.692 347.891 155.904C347.155 156.011 346.912 156.622 346.908 156.633L347.412 157.133C347.436 157.072 348.013 155.686 350.355 157.513L350.449 156.956C349.575 156.275 348.905 155.985 348.393 155.908C347.329 153.937 346.89 152.393 347.096 151.315C347.434 149.523 349.455 149.551 349.604 149.555C350.281 149.651 350.954 149.891 351.609 150.269C352.293 150.662 352.829 151.138 353.169 151.481C350.993 151.933 351.609 154.505 351.616 154.533L352.125 154.627C352.118 154.603 351.57 152.3 353.829 152.118C354.161 152.243 354.491 152.398 354.808 152.581C356.77 153.712 357.854 155.627 357.862 155.646L357.919 155.749C358.483 156.775 358.623 157.845 358.656 158.415C357.876 157.928 357.421 158.024 357.393 158.031L357.701 158.716C357.736 158.71 358.594 158.559 360.065 160.371L360.329 159.985C359.914 159.474 359.536 159.094 359.197 158.812C359.182 158.343 359.099 157.472 358.745 156.507C360.323 158.129 360.862 159.825 360.886 159.906L360.928 160.039L360.934 160.048C361.443 161.535 361.376 162.454 361.288 162.866C360.663 162.024 359.818 161.417 358.778 161.061C358.275 160.891 357.886 160.86 357.589 160.919C356.912 159.583 356.189 158.69 355.512 158.092C355.12 155.716 355.883 155.614 355.89 155.612L355.758 155.264L355.634 154.917C355.588 154.917 354.572 154.985 354.943 157.649C353.648 156.766 352.632 156.911 352.614 156.915L352.905 157.605C353.003 157.59 355.249 157.269 357.183 161.085C356.884 161.292 356.739 161.633 356.674 161.967C356.654 162.061 356.643 162.159 356.635 162.259C355.326 160.902 354.262 160.24 353.469 160.288C350.078 156.188 350.078 152.802 350.08 152.658L349.811 152.498L349.543 152.337C349.54 152.492 349.523 156.079 352.995 160.417C352.234 160.827 352.16 162.046 352.158 162.104L352.695 162.452C352.695 162.439 352.783 161.087 353.676 160.982C354.365 160.902 355.363 161.561 356.645 162.938C356.755 164.144 357.323 165.6 357.941 166.449L358.247 166.115C357.677 165.331 356.988 163.493 357.205 162.393C357.358 161.622 357.924 161.397 358.894 161.727C359.835 162.046 360.572 162.583 361.081 163.318C361.73 164.257 361.797 165.24 361.797 165.248L362.335 165.515C362.333 165.471 362.276 164.589 361.745 163.574C361.828 163.342 362.057 162.495 361.697 160.976C363.469 163.502 363.2 165.999 363.176 166.181C363.036 166.942 362.398 167.161 362.392 167.163L362.558 167.504L362.721 167.844C362.748 167.835 363.215 167.678 363.506 167.156C364.137 169.058 363.143 169.503 363.056 169.538L363.045 169.547Z" fill="#EFEFEF"/>
<path d="M343.854 157.563L343.637 158.007C343.65 158.022 344.939 159.437 345.835 161.585C345.234 161.923 345.051 162.567 345.046 162.58L345.566 163.039C345.571 163.019 346.073 161.246 348.356 162.563C348.378 162.576 348.405 162.591 348.426 162.604L348.435 161.991C347.465 161.412 346.762 161.314 346.252 161.428C345.274 159.124 343.915 157.631 343.854 157.566V157.563Z" fill="#EFEFEF"/>
<path d="M350.834 164.785L350.668 165.279C350.685 165.294 352.237 166.792 352.612 168.462C351.896 168.174 351.551 168.373 351.531 168.386L351.915 169.041C351.935 169.03 352.416 168.779 353.524 169.613L353.604 169.045C353.445 168.927 353.299 168.829 353.161 168.744C352.774 166.659 350.919 164.868 350.834 164.788V164.785Z" fill="#EFEFEF"/>
<g style="mix-blend-mode:multiply" opacity="0.3">
<path d="M408.74 214.58C410.536 215.615 412.004 218.146 412 220.209L411.906 253.11C411.899 255.171 410.423 256.014 408.627 254.977L379.981 238.452C378.177 237.41 376.717 234.874 376.724 232.813L376.818 199.911C376.822 197.848 378.29 197.014 380.097 198.056L408.74 214.58Z" fill="#32A489"/>
</g>
<path d="M402.649 218.783L374.004 202.258C373.095 201.732 372.271 201.686 371.675 202.029C369.765 203.138 367.856 204.247 365.948 205.356C366.543 205.011 367.366 205.059 368.277 205.586L396.92 222.11C398.716 223.147 400.185 225.676 400.18 227.739L400.086 260.64C400.084 261.664 399.717 262.389 399.129 262.729L404.856 259.402C405.446 259.059 405.813 258.337 405.813 257.313L405.907 224.412C405.913 222.348 404.443 219.818 402.649 218.783Z" fill="#D87A01"/>
<path d="M396.92 222.108C398.716 223.145 400.184 225.673 400.18 227.737L400.086 260.638C400.08 262.701 398.603 263.541 396.807 262.507L368.161 245.982C366.357 244.938 364.897 242.403 364.904 240.34L364.998 207.439C365.002 205.376 366.47 204.542 368.277 205.583L396.92 222.108Z" fill="#BE5706"/>
<path d="M380.978 246.818C375.625 239.428 369.691 228.516 369.621 228.389C368.706 226.466 368.223 224.516 368.223 222.752C368.223 219.598 369.837 217.561 372.339 217.561C373.346 217.561 374.423 217.888 375.542 218.532C377.941 219.916 380.143 222.599 381.404 225.638C382.123 224.85 383.104 224.425 384.235 224.425C385.243 224.425 386.317 224.752 387.434 225.394C391.255 227.599 394.364 232.978 394.364 237.386C394.364 239.201 393.851 240.648 392.883 241.567C392.868 241.58 392.852 241.594 392.837 241.604C392.592 241.773 386.794 245.744 381.382 246.971C381.353 246.977 381.325 246.982 381.297 246.982C381.174 246.982 381.056 246.923 380.982 246.82L380.978 246.818ZM393.586 237.384C393.586 233.223 390.652 228.145 387.045 226.064C386.062 225.497 385.09 225.197 384.235 225.197C383.114 225.197 382.212 225.693 381.622 226.628C381.544 226.752 381.399 226.822 381.253 226.807C381.107 226.791 380.98 226.693 380.93 226.553C379.785 223.414 377.572 220.597 375.153 219.202C374.17 218.635 373.198 218.336 372.339 218.336C370.279 218.336 368.998 220.028 368.998 222.752C368.998 224.401 369.457 226.235 370.314 228.038C370.373 228.145 376.171 238.81 381.456 246.154C386.477 244.936 391.952 241.264 392.367 240.98C393.165 240.209 393.586 238.967 393.586 237.382V237.384Z" fill="#EFEFEF"/>
<path d="M393.973 244.864C394.106 244.864 394.237 244.794 394.309 244.67C394.417 244.484 394.353 244.246 394.167 244.139L386.245 239.567L384.272 234.804C384.213 234.662 384.076 234.568 383.923 234.564C383.763 234.564 383.628 234.649 383.562 234.788L381.096 240.102L378.965 225.239C378.939 225.051 378.782 224.911 378.592 224.907C378.413 224.892 378.238 225.034 378.201 225.217L376.451 233.917L369.42 229.861C369.234 229.754 368.996 229.817 368.889 230.003C368.782 230.188 368.845 230.426 369.031 230.533L376.529 234.86C376.636 234.924 376.77 234.93 376.883 234.878C376.997 234.828 377.08 234.723 377.104 234.601L378.515 227.582L380.512 241.506C380.536 241.676 380.67 241.81 380.84 241.834C381.008 241.86 381.176 241.768 381.249 241.613L383.894 235.915L385.579 239.984C385.612 240.063 385.668 240.129 385.743 240.172L393.781 244.809C393.842 244.844 393.907 244.862 393.975 244.862L393.973 244.864Z" fill="#EFEFEF"/>
<path d="M168.035 342.205C168.035 342.205 165.413 346.061 165.265 348.187C165.116 350.314 167.144 352.39 168.035 354.466C168.926 356.542 168.926 364.503 168.926 364.503L170.261 364.256C170.261 364.256 170.46 354.912 172.686 354.864C172.686 354.864 179.217 356.842 181.098 356.298C182.977 355.754 184.858 351.353 184.76 347.696C184.662 344.037 183.72 341.812 182.929 341.714C182.138 341.616 179.267 343.692 179.267 343.692L179.564 346.757C179.564 346.757 182.236 348.489 181.592 349.674C180.949 350.86 179.859 350.515 178.599 348.513C177.338 346.511 172.933 342.21 168.035 342.21V342.205Z" fill="#D0E3EB"/>
<path d="M178.474 260.096C178.474 260.096 180.519 287.762 179.282 291.915C178.046 296.067 172.514 308.533 171.572 312.686C170.633 316.838 169.073 327.078 169.269 331.577C169.468 336.077 168.033 341.712 168.033 342.207C172.931 342.207 177.334 346.508 178.596 348.51C179.857 350.512 180.947 350.86 181.59 349.672C182.232 348.486 179.562 346.755 179.562 346.755L179.271 343.747C178.727 343.371 178.277 340.131 178.277 338.103C178.277 336.075 179.96 324.606 181.642 318.624C183.324 312.642 184.858 304.139 186.193 300.776C187.528 297.414 191.29 290.493 192.477 285.203C193.663 279.913 194.753 269.827 194.753 269.827L178.476 260.096H178.474Z" fill="#BF855B"/>
<path d="M176.77 227.058C176.77 227.058 175.667 237.002 177.806 245.547C177.806 245.547 179.809 275.916 178.461 281.071C177.113 286.223 172.202 296.458 171.033 306.51C169.685 318.087 165.973 335.725 165.973 335.725C165.973 335.725 173.943 345.561 184.734 334.269C184.734 334.269 183.762 325.204 184.941 312.725C186.139 300.036 195.623 281.47 196.86 276.3C198.096 271.128 201.439 251.117 201.439 251.117L197.286 230.317L176.77 227.058Z" fill="#1FA2A0"/>
<path d="M184.732 334.269C184.732 334.269 183.759 325.204 184.939 312.725C186.136 300.036 195.621 281.47 196.857 276.3C198.094 271.128 201.437 251.117 201.437 251.117L197.862 233.21C192.184 233.649 188.315 234.788 187.882 237.013C186.025 246.558 190.006 254.488 190.006 254.488C190.006 254.488 193.72 260.788 193.633 267.153C193.545 273.517 189.564 285.361 183.102 302.152C178.212 314.854 180.261 330.289 181.55 337.055C182.59 336.315 183.654 335.4 184.734 334.269H184.732Z" fill="#09908F"/>
<path d="M201.869 357.287C201.869 357.287 198.867 359.658 197.9 361.883C196.932 364.107 197.366 366.092 198.142 367.592C198.918 369.092 200.902 375.235 200.757 380.316H201.872C201.872 380.316 202.21 371.945 203.421 371.367C204.631 370.786 208.214 371.947 210.006 373.98C211.797 376.012 215.815 379.06 219.641 378.381C223.466 377.704 230.921 369.672 230.196 368.028C229.47 366.384 217.22 367.304 217.22 367.304C217.22 367.304 219.254 369.576 218.236 370.836C217.22 372.094 214.992 372.094 213.008 369.384C211.022 366.675 206.278 359.708 201.872 357.289L201.869 357.287Z" fill="#D0E3EB"/>
<path d="M202.855 309.332C201.9 312.037 199.031 323.923 199.722 329.281C200.412 334.638 203.279 346.947 203.438 349.336C203.58 351.453 203.344 355.486 202.143 357.446C206.469 359.996 211.061 366.729 213.003 369.382C214.989 372.091 217.216 372.091 218.232 370.834C219.248 369.576 217.216 367.301 217.216 367.301C217.216 367.301 214.587 360.529 214.111 356.232C213.633 351.936 211.994 339.21 212.842 331.145C213.692 323.08 214.655 311.987 215.505 307.992C216.355 303.997 219.698 283.92 220.495 278.986C221.293 274.052 221.323 265.543 221.323 265.543L201.439 267.84C201.439 267.84 203.897 287.954 205.383 295.596C206.868 303.235 203.812 306.627 202.857 309.332H202.855Z" fill="#BF855B"/>
<path d="M195.946 353.006C195.946 353.006 205.584 359.3 216.495 356.811C216.495 356.811 213.423 325.388 216.495 307.601C219.566 289.814 223.864 273.008 224.559 262.526C225.254 252.045 220.845 235.601 220.845 235.601L215.594 226.4L187.954 227.023C187.954 227.023 184.183 244.55 195.944 254.184C195.944 254.184 200.709 286.127 201.437 293.063C202.162 299.999 198.87 310.345 198.234 315.321C197.598 320.297 196.665 339.919 195.946 353.006Z" fill="#1FA2A0"/>
<path d="M176.32 153.754C176.32 153.754 171.566 153.492 170.545 155.258C169.525 157.022 161.577 179.426 159.676 184.314C157.773 189.203 154.649 199.453 158.793 201.014C162.938 202.575 188.345 194.292 188.345 194.292L184.268 185.467L172.175 186.96L177.474 173.721L176.318 153.751L176.32 153.754Z" fill="#D0E3EB"/>
<path d="M185.186 187.454L170.069 191.102C170.069 191.102 171.426 188.834 172.175 186.96L177.473 173.721L176.589 158.419L172.544 159.668C172.544 159.668 170.816 158.583 170.069 164.489C169.322 170.394 167.554 180.985 164.362 188.181C161.607 194.388 159.055 197.311 157.01 198.824C157.305 199.881 157.867 200.662 158.791 201.012C162.936 202.573 188.343 194.29 188.343 194.29L185.184 187.452L185.186 187.454Z" fill="#AAC5D5"/>
<path d="M181.961 149.756C181.961 149.756 176.394 149.461 172.398 152.865C168.402 156.269 169.385 162.028 172.792 169.949C176.198 177.87 189.195 198.226 188.345 203.134C187.493 208.044 180.004 212.666 175.916 227.058C175.916 227.058 176.722 237.755 192.376 241.094C208.031 244.432 217.812 240.67 221.937 236.221C221.937 236.221 223.141 233.612 220.299 226.398C219.082 223.311 214.858 217.711 214.727 209.463C214.596 201.217 222.112 192.722 222.112 192.722C222.112 192.722 228.269 183.035 227.548 178.649C226.827 174.263 216.74 167.327 216.74 167.327L215.619 165.825L203.143 154.118L181.959 149.752L181.961 149.756Z" fill="#D0E3EB"/>
<path d="M223.578 237.41C223.578 237.41 223.799 232.217 220.956 225.003C219.739 221.916 215.783 216.923 215.651 208.677C215.52 200.431 222.114 192.724 222.114 192.724C222.114 192.724 228.271 183.037 227.55 178.651C226.938 174.922 219.551 169.348 217.356 167.763C215.228 168.556 212.855 169.484 212.855 169.484L209.604 177.87C209.604 177.87 204.756 176.905 205.45 180.374C206.143 183.843 210.128 192.962 210.233 206.064C210.305 215.137 208.618 230.647 208.863 242.248C216.919 241.615 221.017 240.17 223.578 237.408V237.41Z" fill="#AAC5D5"/>
<path d="M289.961 164.967C290.243 165.576 290.027 166.102 288.893 166.803C287.757 167.504 285.15 169.041 285.15 169.041C285.15 169.041 284.816 170.51 284.047 171.512C283.278 172.514 283.411 172.914 283.479 173.348C283.547 173.783 283.245 175.151 283.112 175.35C282.979 175.551 282.979 176.453 282.979 176.619C282.979 176.784 282.076 179.457 281.541 179.924C281.006 180.391 276.997 182.727 275.662 183.43C274.325 184.131 269.481 188.504 267.41 190.541C265.338 192.578 252.776 205.131 249.935 207.402C247.095 209.673 241.515 214.947 239.444 214.58C237.373 214.214 239.376 200.593 239.944 199.656C240.512 198.722 250.669 191.777 254.312 189.273C257.954 186.768 265.705 181.092 266.706 179.123C267.709 177.153 268.71 173.547 269.712 171.51C270.715 169.473 271.952 167.77 272.485 166.602C273.018 165.434 273.822 164.565 274.456 164.967C275.092 165.366 275.325 166.135 274.891 167.536C274.456 168.938 272.852 171.877 273.689 171.776C274.523 171.676 276.796 169.506 277.899 169.206C279.002 168.905 280.704 167.971 282.677 167.004C284.648 166.034 289.326 163.598 289.959 164.967H289.961Z" fill="#EBB187"/>
<path d="M265.867 179.57C265.867 179.57 270.91 181.011 272.155 187.098C272.155 187.098 252.308 206.275 249.164 209.286C246.02 212.297 239.864 216.093 236.916 215.045C233.969 213.998 214.318 193.054 209.929 188.471C205.54 183.889 203.412 175.811 205.54 170.798C207.668 165.788 213.792 161.177 219.558 169.816C225.321 178.455 239.995 198.484 239.995 198.484C239.995 198.484 262.035 183.397 265.867 179.568V179.57Z" fill="#D0E3EB"/>
<path d="M202.294 164.032C202.294 164.032 201.782 155.767 203.015 152.708C204.247 149.651 205.315 149.145 206.705 148.822C207.784 148.571 209.991 149.186 212.488 144.213C214.981 139.24 214.041 137.117 214.463 135C214.883 132.882 215.523 131.402 215.164 129.35C214.806 127.299 214.124 119.658 208.105 117.054C202.086 114.447 194.738 114.897 190.72 117.22C186.7 119.54 183.532 124.95 183.561 130.579C183.589 136.207 186.661 139.72 186.709 143.554C186.759 147.387 184.395 152.101 182.097 155.07C179.799 158.041 184.579 162.222 187.847 163.744C195.151 167.141 202.291 164.034 202.291 164.034L202.294 164.032Z" fill="#EBB187"/>
<path d="M206.449 143.84C206.119 139.98 206.265 136.142 206.265 136.142L199.305 141.377C199.305 141.377 199.833 155.564 195.761 161.725C194.931 162.982 194.882 164.194 195.319 165.329C199.353 165.307 202.291 164.03 202.291 164.03C202.291 164.03 201.78 155.764 203.012 152.706C204.244 149.649 205.313 149.143 206.702 148.82C207.227 148.695 208.022 148.78 208.988 148.322C207.863 147.372 206.622 145.885 206.447 143.835L206.449 143.84Z" fill="#BF855B"/>
<path d="M207.959 162.692C206.248 151.546 202.499 143.44 206.454 139.458L207.378 138.089C207.463 138.072 207.896 139.628 209.152 139.288C209.781 139.117 210.605 135.733 211.345 133.799C211.525 133.332 211.776 132.729 212.066 132.076C212.066 132.076 208.804 135.452 207.105 136.692L206.773 136.336C206.773 136.336 212.637 131.441 214.658 127.439C214.658 127.439 210.482 132.637 207.902 134.096C205.322 135.554 202.248 137.203 203.377 144.815C204.273 150.839 207.823 160.904 207.592 167.689C208.046 166.034 208.212 164.34 207.959 162.696V162.692Z" fill="#450B00"/>
<path d="M212.403 117.595C210.056 114.746 205.984 111.593 196.731 112.576C192.267 113.047 188.667 116.473 186.879 118.922C184.878 121.667 183.056 125.603 183.521 133.489C183.989 141.375 183.569 148.044 178.457 153.129C175.612 155.961 174.223 163.975 176.823 168.829C175.938 166.126 175.455 162.447 177.083 158.574C177.111 158.498 177.131 158.456 177.131 158.456C177.113 158.496 177.1 158.537 177.083 158.574C176.761 159.406 174.976 164.615 177.972 170.46C178.501 171.036 179.117 171.529 179.838 171.901C186.539 175.354 195.166 177.935 197.089 177.752C198.599 177.608 200.639 176.566 202.553 174.922C201.4 176.359 200.342 177.247 200.342 177.247C204.356 175.499 206.442 170.914 207.303 168.455C206.818 171.433 205.689 173.927 205.689 173.927C205.689 173.927 208.326 169.65 208.494 166.229C208.66 162.807 206.943 157.218 206.943 157.218C205.182 148.885 203.178 142.759 206.451 139.46L207.375 138.091C207.461 138.074 207.893 139.63 209.149 139.29C209.779 139.119 210.602 135.735 211.343 133.801C211.522 133.334 211.773 132.731 212.064 132.079C219.934 125.544 212.403 117.602 212.403 117.602V117.595Z" fill="#565656"/>
<path d="M214.155 128.136C212.444 131.009 209.431 131.716 205.92 135.039C202.407 138.362 202.477 146.307 204.631 153.544C206.785 160.781 206.56 166.685 206.56 166.685C206.283 160.426 203.611 155.175 203.611 155.175C203.611 155.175 206.342 162.779 204.871 167.945C203.401 173.11 198.776 175.509 198.776 175.509C200.521 173.662 202.059 169.971 202.059 169.971C199.199 174.568 195.697 175.686 195.697 175.686C204.489 166.25 201.467 155.286 201.467 155.286C201.9 174.169 190.025 174.892 190.025 174.892L190.987 173.042C190.331 173.75 188.765 174.948 187.694 174.226C186.621 173.505 185.822 171.067 185.822 171.067L185.723 173.68C184.568 173.036 183.128 170.285 183.128 170.285L183.045 172.481C179.195 166.862 182.514 155.109 182.514 155.109C178.566 164.244 180.939 171.407 180.939 171.407C177.902 168.624 178.138 162.351 178.138 162.351C177.41 164.94 177.963 166.951 177.963 166.951C177.34 165.41 176.409 161.345 179.927 155.247C183.445 149.149 183.871 145.191 183.871 145.191C183.032 147.724 181.957 149.516 181.957 149.516C184.683 143.39 183.667 137.858 183.667 137.858C183.661 143.857 182.597 149.012 178.459 153.129C175.614 155.961 174.225 163.975 176.825 168.829C175.94 166.126 175.457 162.447 177.085 158.574C177.113 158.498 177.133 158.456 177.133 158.456C177.115 158.496 177.102 158.537 177.085 158.574C176.763 159.406 174.978 164.615 177.974 170.46C178.503 171.036 179.119 171.529 179.84 171.901C186.541 175.354 195.168 177.935 197.091 177.752C198.601 177.608 200.641 176.566 202.555 174.922C201.402 176.359 200.344 177.247 200.344 177.247C204.358 175.499 206.444 170.914 207.305 168.455C206.82 171.433 205.691 173.927 205.691 173.927C205.691 173.927 208.328 169.65 208.496 166.229C208.662 162.807 206.945 157.218 206.945 157.218C205.184 148.885 203.18 142.759 206.453 139.46L207.377 138.091C207.462 138.074 207.895 139.63 209.151 139.29C209.781 139.119 210.604 135.735 211.345 133.801C211.524 133.334 211.775 132.731 212.066 132.079L209.562 133.284C212.571 131.205 214.157 128.142 214.157 128.142L214.155 128.136Z" fill="#6D6D6D"/>
<path d="M207.172 144.274C206.947 144.634 204.36 144.853 204.793 140.397C205.225 135.941 208.214 134.897 208.142 138.157C208.07 141.416 207.172 144.276 207.172 144.276V144.274Z" fill="#EBB187"/>
<path d="M196.731 112.576C192.267 113.047 188.666 116.473 186.879 118.922C184.878 121.667 183.056 125.603 183.521 133.489C183.613 135.037 183.67 136.535 183.663 137.986C184.109 139.478 184.472 140.722 184.6 141.499C185.12 144.604 183.834 151.894 183.834 151.894C184.708 149.907 185.265 145.036 185.265 145.036C185.905 147.824 184.061 157.149 184.061 157.149C185.964 153.876 187.685 145.968 187.301 135.024C186.916 124.079 194.115 117.154 196.881 115.401C201.719 112.336 206.923 113.56 206.929 113.56C204.485 112.598 201.218 112.1 196.728 112.576H196.731Z" fill="#6D6D6D"/>
<g opacity="0.5">
<path d="M194.249 123.346C194.249 123.346 193.761 123.771 193.095 124.68C192.433 125.583 191.596 126.983 191.011 128.821C190.718 129.74 190.486 130.764 190.36 131.862C190.224 132.961 190.239 134.133 190.257 135.351C190.296 137.79 190.384 140.405 190.371 143.038C190.368 148.3 189.914 153.535 188.797 157.277C188.26 159.148 187.572 160.626 186.984 161.589C186.396 162.554 185.953 163.026 185.962 163.03C185.953 163.026 186.388 162.528 186.945 161.532C187.504 160.541 188.146 159.035 188.629 157.149C189.123 155.267 189.473 153.02 189.68 150.608C189.892 148.193 189.966 145.61 189.975 143.038C189.988 140.464 189.929 137.879 189.923 135.445C189.923 134.231 189.923 133.041 190.08 131.924C190.224 130.806 190.478 129.767 190.797 128.836C191.432 126.97 192.324 125.566 193.027 124.667C193.735 123.763 194.249 123.346 194.249 123.346Z" fill="#6D6D6D"/>
</g>
<path d="M191.465 167.587C191.465 167.587 192.468 165.386 193.523 161.901C194.043 160.161 194.574 158.094 194.885 155.834C195.038 154.706 195.131 153.527 195.105 152.33C195.066 151.14 194.937 149.902 194.847 148.675C194.445 143.754 194.148 138.864 194.4 135.216C194.518 133.395 194.78 131.889 195.105 130.88C195.426 129.865 195.798 129.371 195.789 129.371C195.796 129.371 195.44 129.891 195.156 130.926C194.863 131.954 194.653 133.474 194.59 135.303C194.445 138.962 194.843 143.824 195.236 148.645C195.324 149.857 195.442 151.053 195.477 152.267C195.496 153.476 195.389 154.662 195.221 155.797C194.88 158.07 194.299 160.144 193.729 161.888C192.573 165.381 191.454 167.587 191.461 167.587H191.465Z" fill="#6D6D6D"/>
<path d="M206.06 117.549C206.06 117.549 204.635 117.534 202.702 118.335C201.74 118.73 200.674 119.329 199.652 120.136C198.627 120.944 197.653 121.955 196.807 123.077C195.103 125.319 193.967 127.902 193.272 129.865C192.575 131.834 192.263 133.188 192.254 133.183C192.263 133.185 192.486 131.786 193.099 129.762C193.709 127.747 194.784 125.088 196.495 122.839C197.342 121.717 198.347 120.702 199.411 119.903C200.473 119.104 201.59 118.527 202.59 118.165C204.605 117.429 206.071 117.545 206.058 117.547L206.06 117.549Z" fill="#6D6D6D"/>
<g opacity="0.5">
<path d="M209.385 121.584C209.385 121.584 208.712 121.787 207.642 122.374C206.578 122.961 205.112 123.957 203.724 125.533C202.333 127.094 201.081 129.26 200.382 131.797C200.026 133.061 199.8 134.408 199.689 135.79C199.573 137.179 199.497 138.595 199.473 140.019C199.405 142.866 199.589 145.693 199.613 148.35C199.648 151.007 199.396 153.481 198.966 155.548C198.544 157.618 198.018 159.29 197.631 160.447C197.242 161.607 196.986 162.255 196.991 162.255C196.986 162.255 197.225 161.585 197.583 160.399C197.939 159.214 198.422 157.511 198.789 155.428C199.165 153.348 199.353 150.889 199.278 148.258C199.215 145.63 199.014 142.82 199.079 140.015C199.106 138.611 199.184 137.205 199.309 135.827C199.427 134.445 199.663 133.081 200.036 131.803C200.766 129.238 202.075 127.04 203.521 125.472C204.965 123.889 206.486 122.911 207.585 122.341C208.693 121.772 209.39 121.59 209.388 121.588L209.385 121.584Z" fill="#6D6D6D"/>
</g>
</g>
<defs>
<linearGradient id="paint0_linear_221_347" x1="226.617" y1="-114.698" x2="371.272" y2="493.302" gradientUnits="userSpaceOnUse">
<stop stop-color="#009DA8"/>
<stop offset="0.17" stop-color="#00949F"/>
<stop offset="0.42" stop-color="#007E89"/>
<stop offset="0.74" stop-color="#015A66"/>
<stop offset="1" stop-color="#033844"/>
</linearGradient>
<clipPath id="clip0_221_347">
<rect width="271" height="395" fill="white" transform="translate(141)"/>
</clipPath>
</defs>
</svg>
