<svg width="159" height="205" viewBox="0 0 159 205" fill="none" xmlns="http://www.w3.org/2000/svg">
<rect width="159" height="205" fill="white"/>
<path d="M58.6572 146.18C57.6372 146.18 56.6952 146.054 55.8312 145.802C54.9792 145.538 54.2472 145.178 53.6352 144.722L54.3552 142.904C54.7632 143.192 55.1892 143.438 55.6332 143.642C56.0772 143.834 56.5512 143.984 57.0552 144.092C57.5592 144.188 58.0932 144.236 58.6572 144.236C59.6052 144.236 60.2892 144.08 60.7092 143.768C61.1292 143.456 61.3392 143.048 61.3392 142.544C61.3392 142.1 61.1952 141.764 60.9072 141.536C60.6192 141.296 60.1032 141.098 59.3592 140.942L57.3252 140.528C56.1612 140.288 55.2912 139.886 54.7152 139.322C54.1392 138.758 53.8512 138.002 53.8512 137.054C53.8512 136.262 54.0612 135.572 54.4812 134.984C54.9012 134.396 55.4892 133.94 56.2452 133.616C57.0012 133.292 57.8832 133.13 58.8912 133.13C59.7912 133.13 60.6252 133.262 61.3932 133.526C62.1612 133.778 62.8032 134.144 63.3192 134.624L62.5992 136.352C62.0832 135.92 61.5192 135.602 60.9072 135.398C60.2952 135.182 59.6112 135.074 58.8552 135.074C58.0032 135.074 57.3372 135.242 56.8572 135.578C56.3892 135.902 56.1552 136.352 56.1552 136.928C56.1552 137.372 56.2992 137.726 56.5872 137.99C56.8872 138.254 57.3912 138.458 58.0992 138.602L60.1152 138.998C61.3152 139.238 62.2032 139.634 62.7792 140.186C63.3552 140.726 63.6432 141.458 63.6432 142.382C63.6432 143.138 63.4392 143.804 63.0312 144.38C62.6232 144.944 62.0472 145.388 61.3032 145.712C60.5592 146.024 59.6772 146.18 58.6572 146.18ZM65.6508 146V139.178C65.6508 138.806 65.6388 138.428 65.6148 138.044C65.5908 137.66 65.5548 137.282 65.5068 136.91H67.6848L67.8648 138.71H67.6488C67.9008 138.086 68.2848 137.6 68.8008 137.252C69.3288 136.904 69.9528 136.73 70.6728 136.73C71.3928 136.73 71.9868 136.904 72.4548 137.252C72.9348 137.588 73.2708 138.116 73.4628 138.836H73.1748C73.4268 138.188 73.8408 137.678 74.4168 137.306C74.9928 136.922 75.6528 136.73 76.3968 136.73C77.4168 136.73 78.1788 137.03 78.6828 137.63C79.1868 138.23 79.4388 139.166 79.4388 140.438V146H77.1888V140.528C77.1888 139.808 77.0688 139.292 76.8288 138.98C76.5888 138.656 76.2048 138.494 75.6768 138.494C75.0528 138.494 74.5608 138.716 74.2008 139.16C73.8408 139.592 73.6608 140.18 73.6608 140.924V146H71.4108V140.528C71.4108 139.808 71.2908 139.292 71.0508 138.98C70.8108 138.656 70.4268 138.494 69.8988 138.494C69.2748 138.494 68.7828 138.716 68.4228 139.16C68.0748 139.592 67.9008 140.18 67.9008 140.924V146H65.6508ZM85.3502 146.18C84.5582 146.18 83.8622 145.994 83.2622 145.622C82.6622 145.238 82.1942 144.692 81.8582 143.984C81.5222 143.276 81.3542 142.43 81.3542 141.446C81.3542 140.462 81.5222 139.622 81.8582 138.926C82.1942 138.218 82.6622 137.678 83.2622 137.306C83.8622 136.922 84.5582 136.73 85.3502 136.73C86.1182 136.73 86.7902 136.922 87.3662 137.306C87.9542 137.678 88.3442 138.182 88.5362 138.818H88.3382L88.5362 136.91H90.6962C90.6602 137.282 90.6242 137.66 90.5882 138.044C90.5642 138.428 90.5522 138.806 90.5522 139.178V146H88.3202L88.3022 144.128H88.5182C88.3262 144.752 87.9362 145.25 87.3482 145.622C86.7602 145.994 86.0942 146.18 85.3502 146.18ZM85.9802 144.452C86.6882 144.452 87.2582 144.206 87.6902 143.714C88.1222 143.21 88.3382 142.454 88.3382 141.446C88.3382 140.438 88.1222 139.688 87.6902 139.196C87.2582 138.704 86.6882 138.458 85.9802 138.458C85.2722 138.458 84.7022 138.704 84.2702 139.196C83.8382 139.688 83.6222 140.438 83.6222 141.446C83.6222 142.454 83.8322 143.21 84.2522 143.714C84.6842 144.206 85.2602 144.452 85.9802 144.452ZM92.9843 146V139.232C92.9843 138.848 92.9723 138.458 92.9483 138.062C92.9363 137.666 92.9063 137.282 92.8583 136.91H95.0363L95.2883 139.394H94.9283C95.0483 138.794 95.2463 138.296 95.5223 137.9C95.8103 137.504 96.1583 137.21 96.5663 137.018C96.9743 136.826 97.4183 136.73 97.8983 136.73C98.1143 136.73 98.2883 136.742 98.4203 136.766C98.5523 136.778 98.6843 136.808 98.8163 136.856L98.7983 138.836C98.5703 138.74 98.3723 138.68 98.2043 138.656C98.0483 138.632 97.8503 138.62 97.6103 138.62C97.0943 138.62 96.6563 138.728 96.2963 138.944C95.9483 139.16 95.6843 139.46 95.5043 139.844C95.3363 140.228 95.2523 140.666 95.2523 141.158V146H92.9843ZM104.466 146.18C103.386 146.18 102.57 145.898 102.018 145.334C101.466 144.77 101.19 143.924 101.19 142.796V138.602H99.4445V136.91H101.19V134.588L103.44 134.012V136.91H105.87V138.602H103.44V142.652C103.44 143.276 103.56 143.714 103.8 143.966C104.04 144.218 104.37 144.344 104.79 144.344C105.018 144.344 105.21 144.326 105.366 144.29C105.534 144.254 105.696 144.206 105.852 144.146V145.928C105.648 146.012 105.42 146.072 105.168 146.108C104.928 146.156 104.694 146.18 104.466 146.18ZM60.7924 169.18C59.4724 169.18 58.3384 168.916 57.3904 168.388C56.4544 167.848 55.7344 167.092 55.2304 166.12C54.7264 165.136 54.4744 163.978 54.4744 162.646C54.4744 161.314 54.7264 160.162 55.2304 159.19C55.7344 158.218 56.4544 157.468 57.3904 156.94C58.3384 156.4 59.4724 156.13 60.7924 156.13C61.6804 156.13 62.4784 156.256 63.1864 156.508C63.9064 156.76 64.5244 157.132 65.0404 157.624L64.2844 159.46C63.7204 159.004 63.1744 158.68 62.6464 158.488C62.1304 158.284 61.5364 158.182 60.8644 158.182C59.5804 158.182 58.5964 158.572 57.9124 159.352C57.2404 160.12 56.9044 161.218 56.9044 162.646C56.9044 164.074 57.2404 165.178 57.9124 165.958C58.5964 166.738 59.5804 167.128 60.8644 167.128C61.5364 167.128 62.1304 167.032 62.6464 166.84C63.1744 166.636 63.7204 166.3 64.2844 165.832L65.0404 167.668C64.5244 168.148 63.9064 168.52 63.1864 168.784C62.4784 169.048 61.6804 169.18 60.7924 169.18ZM67.0306 169V155.752H69.2806V161.728H69.0286C69.3046 161.08 69.7306 160.588 70.3066 160.252C70.8826 159.904 71.5426 159.73 72.2866 159.73C73.3666 159.73 74.1706 160.036 74.6986 160.648C75.2266 161.248 75.4906 162.166 75.4906 163.402V169H73.2406V163.51C73.2406 162.802 73.1026 162.292 72.8266 161.98C72.5626 161.656 72.1366 161.494 71.5486 161.494C70.8646 161.494 70.3126 161.71 69.8926 162.142C69.4846 162.562 69.2806 163.126 69.2806 163.834V169H67.0306ZM82.2683 169.18C80.7443 169.18 79.5503 168.76 78.6863 167.92C77.8223 167.08 77.3903 165.928 77.3903 164.464C77.3903 163.516 77.5763 162.688 77.9483 161.98C78.3203 161.272 78.8363 160.72 79.4963 160.324C80.1683 159.928 80.9483 159.73 81.8363 159.73C82.7123 159.73 83.4443 159.916 84.0323 160.288C84.6203 160.66 85.0643 161.182 85.3643 161.854C85.6763 162.526 85.8323 163.312 85.8323 164.212V164.806H79.2083V163.618H84.2303L83.9243 163.87C83.9243 163.03 83.7443 162.388 83.3843 161.944C83.0363 161.5 82.5263 161.278 81.8543 161.278C81.1103 161.278 80.5343 161.542 80.1263 162.07C79.7303 162.598 79.5323 163.336 79.5323 164.284V164.518C79.5323 165.502 79.7723 166.24 80.2523 166.732C80.7443 167.212 81.4343 167.452 82.3223 167.452C82.8383 167.452 83.3183 167.386 83.7623 167.254C84.2183 167.11 84.6503 166.882 85.0583 166.57L85.7243 168.082C85.2923 168.43 84.7763 168.7 84.1763 168.892C83.5763 169.084 82.9403 169.18 82.2683 169.18ZM91.9137 169.18C90.9777 169.18 90.1557 168.988 89.4477 168.604C88.7517 168.22 88.2117 167.674 87.8277 166.966C87.4437 166.246 87.2517 165.394 87.2517 164.41C87.2517 163.426 87.4437 162.586 87.8277 161.89C88.2237 161.194 88.7697 160.66 89.4657 160.288C90.1617 159.916 90.9777 159.73 91.9137 159.73C92.5137 159.73 93.0957 159.826 93.6597 160.018C94.2357 160.198 94.7037 160.462 95.0637 160.81L94.3797 162.376C94.0557 162.076 93.6897 161.854 93.2817 161.71C92.8857 161.554 92.4957 161.476 92.1117 161.476C91.3077 161.476 90.6777 161.728 90.2217 162.232C89.7777 162.736 89.5557 163.468 89.5557 164.428C89.5557 165.388 89.7777 166.126 90.2217 166.642C90.6777 167.158 91.3077 167.416 92.1117 167.416C92.4837 167.416 92.8677 167.344 93.2637 167.2C93.6717 167.056 94.0437 166.834 94.3797 166.534L95.0637 168.082C94.6917 168.43 94.2177 168.7 93.6417 168.892C93.0777 169.084 92.5017 169.18 91.9137 169.18ZM96.808 169V155.752H99.058V163.78H99.094L102.784 159.91H105.502L100.912 164.716L100.93 163.816L105.826 169H103.036L99.094 164.932H99.058V169H96.808Z" fill="black"/>
<path fill-rule="evenodd" clip-rule="evenodd" d="M42.3753 39.385V114.418H117.408V39.385H42.3753ZM41.8112 36C40.2533 36 38.9904 37.2629 38.9904 38.8208V114.982C38.9904 116.54 40.2533 117.803 41.8112 117.803H117.973C119.531 117.803 120.793 116.54 120.793 114.982V38.8208C120.793 37.2629 119.531 36 117.973 36H41.8112Z" fill="#464646"/>
<path fill-rule="evenodd" clip-rule="evenodd" d="M107.536 45.8721C109.405 45.8721 110.921 47.3876 110.921 49.257L110.921 58.2836C110.921 59.2183 110.163 59.9761 109.228 59.9761C108.293 59.9761 107.536 59.2183 107.536 58.2836L107.536 49.257L98.509 49.257C97.5743 49.257 96.8165 48.4993 96.8165 47.5645C96.8165 46.6298 97.5743 45.8721 98.509 45.8721L107.536 45.8721Z" fill="#3BC1CD"/>
<path fill-rule="evenodd" clip-rule="evenodd" d="M49.7092 49.257C49.7092 47.3876 51.2247 45.8721 53.0942 45.8721H62.1207C63.0555 45.8721 63.8132 46.6298 63.8132 47.5645C63.8132 48.4993 63.0555 49.257 62.1207 49.257H53.0942V58.2836C53.0942 59.2183 52.3364 59.9761 51.4017 59.9761C50.467 59.9761 49.7092 59.2183 49.7092 58.2836V49.257Z" fill="#3BC1CD"/>
<path fill-rule="evenodd" clip-rule="evenodd" d="M53.0942 108.212C51.2247 108.212 49.7092 106.697 49.7092 104.827L49.7092 95.8009C49.7092 94.8662 50.467 94.1084 51.4017 94.1084C52.3364 94.1084 53.0942 94.8662 53.0942 95.8009L53.0942 104.827L62.1207 104.827C63.0555 104.827 63.8132 105.585 63.8132 106.52C63.8132 107.455 63.0555 108.212 62.1207 108.212L53.0942 108.212Z" fill="#3BC1CD"/>
<path fill-rule="evenodd" clip-rule="evenodd" d="M110.921 104.827C110.921 106.697 109.405 108.212 107.536 108.212L98.509 108.212C97.5743 108.212 96.8165 107.455 96.8165 106.52C96.8165 105.585 97.5743 104.827 98.509 104.827L107.536 104.827L107.536 95.8009C107.536 94.8662 108.293 94.1084 109.228 94.1084C110.163 94.1084 110.921 94.8662 110.921 95.8009L110.921 104.827Z" fill="#3BC1CD"/>
<path d="M101.903 76.9009C87.7628 90.5578 73.6223 90.5578 59.4792 76.9009C73.6197 63.244 87.7602 63.244 101.903 76.9009Z" fill="#F9F8F7"/>
<path d="M80.6927 88.4684C73.3036 88.4684 65.9145 84.9242 58.5776 77.8382L57.6079 76.9025L58.5776 75.9668C73.2513 61.7949 88.1341 61.7949 102.808 75.9668L103.778 76.9025L102.808 77.8382C95.4709 84.9242 88.0818 88.4684 80.6927 88.4684V88.4684ZM61.377 76.9025C74.3622 88.8526 87.0233 88.8526 100.008 76.9025C87.0233 64.9524 74.3622 64.9524 61.377 76.9025Z" fill="#464646"/>
<path d="M80.6927 84.3191C84.7894 84.3191 88.1105 80.998 88.1105 76.9013C88.1105 72.8045 84.7894 69.4834 80.6927 69.4834C76.5959 69.4834 73.2748 72.8045 73.2748 76.9013C73.2748 80.998 76.5959 84.3191 80.6927 84.3191Z" fill="#3BC1CD"/>
<path d="M78.7533 75.819C79.8244 75.819 80.6927 74.9507 80.6927 73.8796C80.6927 72.8085 79.8244 71.9402 78.7533 71.9402C77.6821 71.9402 76.8138 72.8085 76.8138 73.8796C76.8138 74.9507 77.6821 75.819 78.7533 75.819Z" fill="white"/>
</svg>
