<svg width="168" height="64" viewBox="0 0 168 64" fill="none" xmlns="http://www.w3.org/2000/svg">
<path d="M167.709 20.1251C167.709 31.3056 158.764 40.2501 147.584 40.2501H133.794V63.7293H117.955V0H147.397C158.764 0 167.709 9.13081 167.709 20.1251ZM144.975 13.2304H133.981V26.4607H144.975C148.515 26.4607 151.311 23.2929 151.311 19.9387C151.311 16.3982 148.515 13.2304 144.975 13.2304ZM92.9852 0V25.9017H70.9967V0H55.1575V63.9157H70.9967V40.4364H92.9852V63.9157H108.824V0H92.9852ZM49.0082 46.5858C49.0082 57.2073 39.5047 63.9157 29.4422 63.9157H0V0H28.5105C38.9457 0 47.5175 7.64007 47.5175 17.1436C47.5175 24.5973 43.977 28.6968 39.132 31.6783C44.7223 34.1008 49.0082 37.6413 49.0082 46.5858ZM26.2744 38.2003H15.8392V50.499H26.2744C30.3739 50.499 32.61 47.7038 32.61 44.3496C32.61 40.9955 29.6285 38.2003 26.2744 38.2003ZM24.7836 13.2304H15.8392V26.4607H24.7836C28.8832 26.4607 31.1193 23.2929 31.1193 19.9387C31.1193 16.3982 28.8832 13.2304 24.7836 13.2304Z" fill="#E35302"/>
</svg>
