<svg width="974" height="36" viewBox="0 0 974 36" fill="none" xmlns="http://www.w3.org/2000/svg">
<path d="M28.4469 20.25C28.868 20.25 29.2289 19.9688 29.3492 19.4766L32.1164 11.4609L37.1694 35.0859C37.2897 35.6484 37.6506 35.9297 38.1319 36C38.553 35.9297 38.9741 35.5781 39.0342 35.0859L43.967 6.1875L46.7943 19.3359C46.9146 19.8281 47.3357 20.25 47.6966 20.25H973.131C973.43 20.25 973.61 19.9689 973.61 19.6876V18.5626C973.61 18.211 973.43 18.0001 973.131 18.0001L48.4787 18L44.8092 0.84375C44.6889 0.28125 44.3279 4.92e-08 43.8467 0C43.4256 -4.3e-08 43.0045 0.351562 42.9443 0.84375L38.0116 29.7422L33.2593 7.59375C33.139 7.10156 32.7781 6.75 32.4171 6.75C31.9359 6.67969 31.575 6.96094 31.4546 7.45312L27.8453 18H0.481244C0.240622 18 1.10442e-07 18.2109 8.41428e-08 18.5625L0 19.6875C-2.10293e-08 19.9688 0.240622 20.25 0.481244 20.25H28.4469Z" fill="white"/>
</svg>
