<svg width="114" height="103" viewBox="0 0 114 103" fill="none" xmlns="http://www.w3.org/2000/svg">
<path d="M5.30224 98.3887H2.47705L1.93994 100H0.226562L3.13769 92.1797H4.63086L7.5581 100H5.84472L5.30224 98.3887ZM2.91211 97.0835H4.86718L3.88427 94.1562L2.91211 97.0835ZM13.5307 93.4849H11.1352V100H9.52392V93.4849H7.16064V92.1797H13.5307V93.4849ZM19.1596 96.6108H16.0659V98.7056H19.6968V100H14.4546V92.1797H19.686V93.4849H16.0659V95.3486H19.1596V96.6108ZM27.0014 100H25.3901L22.2534 94.8545V100H20.6421V92.1797H22.2534L25.3955 97.3359V92.1797H27.0014V100ZM34.5478 97.395C34.487 98.2365 34.1754 98.8989 33.6133 99.3823C33.0547 99.8657 32.317 100.107 31.4004 100.107C30.3978 100.107 29.6082 99.7708 29.0317 99.0977C28.4588 98.4209 28.1723 97.4935 28.1723 96.3154V95.8374C28.1723 95.0854 28.3048 94.423 28.5698 93.8501C28.8348 93.2772 29.2125 92.8385 29.7031 92.5342C30.1972 92.2262 30.7702 92.0723 31.4219 92.0723C32.3242 92.0723 33.0511 92.314 33.6025 92.7974C34.1539 93.2808 34.4726 93.9593 34.5586 94.833H32.9472C32.9079 94.3281 32.7664 93.9629 32.5229 93.7373C32.283 93.5081 31.916 93.3936 31.4219 93.3936C30.8847 93.3936 30.4819 93.5869 30.2134 93.9736C29.9484 94.3568 29.8123 94.953 29.8052 95.7622V96.353C29.8052 97.1981 29.9323 97.8158 30.1865 98.2061C30.4443 98.5964 30.8489 98.7915 31.4004 98.7915C31.8981 98.7915 32.2687 98.6787 32.5122 98.4531C32.7593 98.224 32.9007 97.8713 32.9365 97.395H34.5478ZM37.3193 100H35.708V92.1797H37.3193V100ZM45.2417 96.2671C45.2417 97.0369 45.1056 97.7119 44.8335 98.292C44.5613 98.8721 44.171 99.3197 43.6626 99.6348C43.1577 99.9499 42.5776 100.107 41.9223 100.107C41.2742 100.107 40.6959 99.9517 40.1875 99.6401C39.679 99.3286 39.2851 98.8846 39.0058 98.3081C38.7265 97.728 38.5851 97.062 38.5815 96.3101V95.9233C38.5815 95.1535 38.7194 94.4767 38.9951 93.8931C39.2744 93.3058 39.6665 92.8564 40.1714 92.5449C40.6798 92.2298 41.2599 92.0723 41.9116 92.0723C42.5633 92.0723 43.1416 92.2298 43.6465 92.5449C44.1549 92.8564 44.547 93.3058 44.8227 93.8931C45.102 94.4767 45.2417 95.1517 45.2417 95.918V96.2671ZM43.6089 95.9126C43.6089 95.0926 43.4621 94.4696 43.1684 94.0435C42.8748 93.6174 42.4559 93.4043 41.9116 93.4043C41.3709 93.4043 40.9538 93.6156 40.6601 94.0381C40.3665 94.457 40.2179 95.0729 40.2143 95.8857V96.2671C40.2143 97.0656 40.3611 97.6851 40.6548 98.1255C40.9484 98.5659 41.3709 98.7861 41.9223 98.7861C42.463 98.7861 42.8784 98.5749 43.1684 98.1523C43.4585 97.7262 43.6053 97.1068 43.6089 96.2939V95.9126ZM42.2231 90.085H43.915L42.4272 91.75H41.165L42.2231 90.085ZM52.7719 100H51.1606L48.0239 94.8545V100H46.4126V92.1797H48.0239L51.166 97.3359V92.1797H52.7719V100ZM58.6318 100H57.0205V92.1797H58.6318V100ZM66.4897 100H64.8784L61.7417 94.8545V100H60.1303V92.1797H61.7417L64.8838 97.3359V92.1797H66.4897V100ZM70.0024 92.1797L72.0112 97.8516L74.0093 92.1797H76.1255V100H74.5088V97.8623L74.6699 94.1724L72.5591 100H71.4526L69.3471 94.1777L69.5083 97.8623V100H67.8969V92.1797H70.0024ZM82.2378 96.6108H79.144V98.7056H82.7749V100H77.5327V92.1797H82.7641V93.4849H79.144V95.3486H82.2378V96.6108ZM83.7202 100V92.1797H86.1264C86.8139 92.1797 87.428 92.3354 87.9687 92.647C88.513 92.9549 88.9373 93.3953 89.2417 93.9683C89.546 94.5376 89.6982 95.1857 89.6982 95.9126V96.2725C89.6982 96.9993 89.5478 97.6457 89.247 98.2114C88.9498 98.7772 88.5291 99.2158 87.9848 99.5273C87.4406 99.8389 86.8265 99.9964 86.1426 100H83.7202ZM85.3315 93.4849V98.7056H86.1103C86.7405 98.7056 87.2221 98.4997 87.5552 98.0879C87.8882 97.6761 88.0582 97.0871 88.0654 96.3208V95.9072C88.0654 95.1123 87.9007 94.5107 87.5713 94.1025C87.2418 93.6908 86.7602 93.4849 86.1264 93.4849H85.3315ZM92.5879 100H90.9765V92.1797H92.5879V100ZM98.5981 98.3887H95.7729L95.2358 100H93.5224L96.4336 92.1797H97.9267L100.854 100H99.1406L98.5981 98.3887ZM96.208 97.0835H98.1631L97.1802 94.1562L96.208 97.0835ZM106.827 93.4849H104.431V100H102.82V93.4849H100.457V92.1797H106.827V93.4849ZM111.521 98.3887H108.696L108.159 100H106.445L109.356 92.1797H110.85L113.777 100H112.063L111.521 98.3887ZM109.131 97.0835H111.086L110.103 94.1562L109.131 97.0835Z" fill="#FF3333"/>
<path d="M56.5 36C66.3438 36 74.5 27.9844 74.5 18C74.5 8.15625 66.3438 0 56.5 0C46.5156 0 38.5 8.15625 38.5 18C38.5 27.9844 46.5156 36 56.5 36ZM56.5 4.5C63.8125 4.5 70 10.6875 70 18C70 25.4531 63.8125 31.5 56.5 31.5C49.0469 31.5 43 25.4531 43 18C43 10.6875 49.0469 4.5 56.5 4.5ZM69.5781 40.6406C64.7969 40.5 63.3906 42.75 56.5 42.75C49.4688 42.75 48.0625 40.5 43.2812 40.6406C33.1562 40.9219 25 49.2188 25 59.4844V70.875C25 71.5781 25.4219 72 26.125 72H28.375C28.9375 72 29.5 71.5781 29.5 70.875V59.4844C29.5 51.8906 35.4062 45.5625 43 45.1406V56.6719C39.625 57.6562 37.375 60.6094 37.375 64.125C37.375 68.4844 40.8906 72 45.25 72C49.4688 72 53.125 68.4844 53.125 64.125C53.125 60.6094 50.7344 57.6562 47.5 56.6719V45.8438C50.3125 46.8281 53.4062 47.25 56.5 47.25C59.4531 47.25 62.5469 46.8281 65.5 45.8438V55.5469C61.4219 56.5312 58.75 60.3281 58.75 64.5469V68.625C58.75 69.3281 58.8906 69.8906 59.3125 70.3125L60.8594 71.7188C61.2812 72.1406 61.9844 72.1406 62.4062 71.7188L63.9531 70.1719C64.375 69.75 64.375 69.0469 63.9531 68.4844L63.1094 67.7812V64.125C63.1094 61.4531 65.6406 59.3438 68.4531 59.7656C70.7031 60.0469 72.1094 62.1562 72.1094 64.4062V67.7812L71.4062 68.4844C70.9844 69.0469 70.9844 69.75 71.4062 70.1719L72.9531 71.7188C73.375 72.1406 74.0781 72.1406 74.5 71.7188L76.0469 70.3125C76.4688 69.8906 76.6094 69.3281 76.6094 68.625V64.125C76.6094 60.0469 73.7969 56.5312 69.8594 55.5469V45.1406C77.4531 45.7031 83.3594 51.8906 83.3594 59.4844V70.875C83.3594 71.5781 83.9219 72 84.4844 72H86.7344C87.4375 72 87.8594 71.5781 87.8594 70.875V59.4844C88 49.2188 79.8438 40.9219 69.5781 40.6406ZM48.625 64.125C48.625 66.0938 47.0781 67.5 45.25 67.5C43.2812 67.5 41.875 66.0938 41.875 64.125C41.875 62.2969 43.2812 60.75 45.25 60.75C47.0781 60.75 48.625 62.2969 48.625 64.125Z" fill="#FF3333"/>
<path d="M56.5 36C66.3438 36 74.5 27.9844 74.5 18C74.5 8.15625 66.3438 0 56.5 0C46.5156 0 38.5 8.15625 38.5 18C38.5 27.9844 46.5156 36 56.5 36ZM56.5 4.5C63.8125 4.5 70 10.6875 70 18C70 25.4531 63.8125 31.5 56.5 31.5C49.0469 31.5 43 25.4531 43 18C43 10.6875 49.0469 4.5 56.5 4.5ZM69.5781 40.6406C64.7969 40.5 63.3906 42.75 56.5 42.75C49.4688 42.75 48.0625 40.5 43.2812 40.6406C33.1562 40.9219 25 49.2188 25 59.4844V70.875C25 71.5781 25.4219 72 26.125 72H28.375C28.9375 72 29.5 71.5781 29.5 70.875V59.4844C29.5 51.8906 35.4062 45.5625 43 45.1406V56.6719C39.625 57.6562 37.375 60.6094 37.375 64.125C37.375 68.4844 40.8906 72 45.25 72C49.4688 72 53.125 68.4844 53.125 64.125C53.125 60.6094 50.7344 57.6562 47.5 56.6719V45.8438C50.3125 46.8281 53.4062 47.25 56.5 47.25C59.4531 47.25 62.5469 46.8281 65.5 45.8438V55.5469C61.4219 56.5312 58.75 60.3281 58.75 64.5469V68.625C58.75 69.3281 58.8906 69.8906 59.3125 70.3125L60.8594 71.7188C61.2812 72.1406 61.9844 72.1406 62.4062 71.7188L63.9531 70.1719C64.375 69.75 64.375 69.0469 63.9531 68.4844L63.1094 67.7812V64.125C63.1094 61.4531 65.6406 59.3438 68.4531 59.7656C70.7031 60.0469 72.1094 62.1562 72.1094 64.4062V67.7812L71.4062 68.4844C70.9844 69.0469 70.9844 69.75 71.4062 70.1719L72.9531 71.7188C73.375 72.1406 74.0781 72.1406 74.5 71.7188L76.0469 70.3125C76.4688 69.8906 76.6094 69.3281 76.6094 68.625V64.125C76.6094 60.0469 73.7969 56.5312 69.8594 55.5469V45.1406C77.4531 45.7031 83.3594 51.8906 83.3594 59.4844V70.875C83.3594 71.5781 83.9219 72 84.4844 72H86.7344C87.4375 72 87.8594 71.5781 87.8594 70.875V59.4844C88 49.2188 79.8438 40.9219 69.5781 40.6406ZM48.625 64.125C48.625 66.0938 47.0781 67.5 45.25 67.5C43.2812 67.5 41.875 66.0938 41.875 64.125C41.875 62.2969 43.2812 60.75 45.25 60.75C47.0781 60.75 48.625 62.2969 48.625 64.125Z" fill="#FF3333"/>
</svg>
