<svg width="29" height="29" viewBox="0 0 29 29" fill="none" xmlns="http://www.w3.org/2000/svg">
<path d="M14.5 1C21.9574 1 28 7.04376 28 14.5C28 21.9574 21.9562 28 14.5 28C7.04263 28 1 21.9562 1 14.5C1 7.04263 7.04376 1 14.5 1Z" stroke="white" stroke-width="2"/>
<path d="M14.9094 17.6859C14.9094 18.1795 14.5167 18.5798 14.0324 18.5798C13.5478 18.5798 13.1553 18.1795 13.1553 17.6859V17.2341C13.1553 15.9421 13.7321 15.2722 15.0051 14.5163C14.973 14.5353 15.377 14.2974 15.4829 14.233C16.5571 13.5797 16.9557 13.0123 16.9557 11.7002C16.9557 10.2236 15.9475 9.27374 14.0324 9.27374C12.2813 9.27374 11.1089 10.6554 11.1089 12.2535C11.1089 12.7472 10.7164 13.1475 10.2319 13.1475C9.74755 13.1475 9.35486 12.7472 9.35486 12.2535C9.35486 9.72092 11.2514 7.48584 14.0324 7.48584C16.8865 7.48584 18.7097 9.2033 18.7097 11.7002C18.7097 13.725 17.94 14.8204 16.3819 15.7683C16.2633 15.8405 15.8455 16.0863 15.888 16.0612C15.1008 16.5285 14.9094 16.751 14.9094 17.2341L14.9094 17.6859ZM13.9738 22.4535C13.328 22.4535 12.8045 21.92 12.8045 21.2617C12.8045 20.6034 13.328 20.0696 13.9738 20.0696C14.6196 20.0696 15.1431 20.6034 15.1431 21.2617C15.1431 21.92 14.6196 22.4535 13.9738 22.4535Z" fill="white"/>
</svg>
