<svg width="107" height="79" viewBox="0 0 107 79" fill="none" xmlns="http://www.w3.org/2000/svg">
<g clip-path="url(#clip0_90_100)">
<path fill-rule="evenodd" clip-rule="evenodd" d="M85.2998 44.5H47.9723C46.548 44.5 45.1508 43.9195 44.1406 42.9093C42.2933 41.0598 39.7373 40 37.1273 40H22.2998C21.0556 40 20.0498 41.008 20.0498 42.25V51.25C20.0498 54.9715 23.0783 58 26.7998 58H76.2998C82.503 58 87.5498 52.9533 87.5498 46.75C87.5498 45.508 86.544 44.5 85.2998 44.5Z" fill="white"/>
<path fill-rule="evenodd" clip-rule="evenodd" d="M47.9813 44.5C46.5301 44.5 45.1666 43.9353 44.1406 42.907C42.2641 41.0328 39.7711 40 37.1183 40H24.5498V26.9815C24.5498 26.5158 25.1483 26.3448 25.3598 26.6395C27.7021 29.8593 34.8728 31 40.2998 31C45.7268 31 52.8976 29.8593 55.2398 26.6395C55.3028 26.5518 55.4266 26.5 55.5683 26.5H56.8396C56.9971 26.5 57.1501 26.581 57.2378 26.7138L62.7548 34.9893C64.8473 38.1258 68.3483 40 72.1171 40H76.2998C79.2293 40 81.7021 41.8855 82.6336 44.5H47.9813ZM76.2998 53.5H26.7998C25.5578 53.5 24.5498 52.4898 24.5498 51.25V44.5H37.1183C38.5673 44.5 39.9331 45.0648 40.9591 46.093C42.8356 47.9673 45.3286 49 47.9813 49H82.6336C81.7021 51.6145 79.2293 53.5 76.2998 53.5ZM76.2998 35.5H72.1171C69.8558 35.5 67.7543 34.375 66.4988 32.494L60.9818 24.2185C60.0571 22.8303 58.5091 22 56.8396 22H55.5683C53.9911 22 52.5083 22.7447 51.5993 23.9913C50.9626 24.8665 46.9958 26.5 40.2998 26.5C33.6038 26.5 29.6371 24.8665 28.9981 23.9913C28.0913 22.7447 26.6086 22 25.0313 22C22.2841 22 20.0498 24.2342 20.0498 26.9815V51.25C20.0498 54.9715 23.0783 58 26.7998 58H76.2998C82.5031 58 87.5498 52.9533 87.5498 46.75C87.5498 40.5468 82.5031 35.5 76.2998 35.5Z" fill="white"/>
</g>
<defs>
<clipPath id="clip0_90_100">
<rect width="69.6" height="36" fill="white" transform="translate(19 22)"/>
</clipPath>
</defs>
</svg>
