<svg width="107" height="79" viewBox="0 0 107 79" fill="none" xmlns="http://www.w3.org/2000/svg">
<g clip-path="url(#clip0_54_135)">
<path fill-rule="evenodd" clip-rule="evenodd" d="M87.9291 25.8395C87.9291 19.5624 82.7809 14.4556 76.4529 14.4556C70.1248 14.4556 64.9766 19.5624 64.9766 25.8395V39.5002H87.9291V25.8395Z" fill="#1BB5EC"/>
<path fill-rule="evenodd" clip-rule="evenodd" d="M25.1206 25.0112C17.0666 33.0005 17.0666 46.0009 25.1206 53.9902L54.337 25.0112C46.2806 17.022 33.177 17.022 25.1206 25.0112Z" fill="#1BB5EC"/>
<path fill-rule="evenodd" clip-rule="evenodd" d="M76.4504 59.9913C72.6541 59.9913 69.5646 56.9267 69.5646 53.1609V41.777H83.3385V53.1609C83.3385 56.9267 80.2491 59.9913 76.4504 59.9913ZM76.4504 19.0091C80.2491 19.0091 83.3385 22.0737 83.3385 25.8395V37.2234H69.5646V25.8395C69.5646 22.0737 72.6541 19.0091 76.4504 19.0091ZM76.4504 14.4556C70.1224 14.4556 64.9741 19.5624 64.9741 25.8395V53.1609C64.9741 59.438 70.1224 64.5449 76.4504 64.5449C82.7807 64.5449 87.929 59.438 87.929 53.1609V25.8395C87.929 19.5624 82.7807 14.4556 76.4504 14.4556Z" fill="#364F6B"/>
<path fill-rule="evenodd" clip-rule="evenodd" d="M51.086 50.7697C45.3708 56.4366 36.4009 56.917 30.1096 52.2496L52.5779 29.969C57.2832 36.2074 56.7989 45.1028 51.086 50.7697ZM28.3583 28.2318C34.0138 22.6286 42.9401 22.0071 49.3324 26.7496L26.8641 49.0325C22.1588 42.7941 22.6431 33.8965 28.3583 28.2318ZM25.1128 25.0124C17.0588 32.9994 17.0588 45.9999 25.1128 53.9891C33.1692 61.9783 46.2728 61.9783 54.3314 53.9891C62.3855 45.9999 62.3855 32.9994 54.3314 25.0124C46.2728 17.0232 33.1692 17.0232 25.1128 25.0124Z" fill="#364F6B"/>
</g>
<defs>
<clipPath id="clip0_54_135">
<rect width="71" height="51" fill="white" transform="translate(18 14)"/>
</clipPath>
</defs>
</svg>
