<svg width="25" height="29" viewBox="0 0 25 29" fill="none" xmlns="http://www.w3.org/2000/svg">
<path d="M3.33113 12.4828C3.33113 18.5393 1.95153 20.3899 1.11036 20.9283C0.403646 21.3993 0 22.2069 0 23.0143C0 24.4275 1.14394 25.5379 2.52353 25.5379H8.14261C8.5463 27.4896 10.2624 28.9028 12.2476 28.9028C14.2327 28.9028 15.9489 27.4896 16.3525 25.5717H21.9716C23.3512 25.5717 24.4951 24.4278 24.4951 23.0482C24.4951 22.207 24.0914 21.4332 23.3848 20.9621C22.5436 20.3901 21.164 18.5395 21.164 12.5167C21.164 6.86407 17.7319 4.6096 15.2084 3.66748C15.2419 3.46563 15.2757 3.22999 15.2757 3.02812C15.2757 1.34577 13.93 0 12.2476 0C10.5653 0 9.2195 1.34577 9.2195 3.02812C9.2195 3.22997 9.25306 3.46561 9.28686 3.66748C6.76309 4.54224 3.33126 6.83037 3.33126 12.483L3.33113 12.4828ZM12.2476 27.5568C11.0027 27.5568 9.89238 26.7156 9.52226 25.5716H14.973C14.6029 26.7156 13.4925 27.5568 12.2477 27.5568H12.2476ZM23.1493 23.0479C23.1493 23.6872 22.6109 24.2256 21.9715 24.2256H2.52348C1.88412 24.2256 1.34571 23.6872 1.34571 23.0479C1.34571 22.7113 1.48019 22.4085 1.7494 22.1731H22.8125C23.0146 22.4087 23.1493 22.7115 23.1493 23.0479H23.1493ZM12.2476 1.31182C13.1897 1.31182 13.93 2.05205 13.93 2.99417C13.93 3.0951 13.93 3.16246 13.8964 3.26338C12.5168 2.96061 11.2384 3.12889 10.5653 3.26338C10.5653 3.16246 10.5317 3.0951 10.5317 2.99417C10.5653 2.05205 11.3055 1.31182 12.2477 1.31182H12.2476ZM10.4643 4.67653H10.4979C10.4979 4.67653 11.2381 4.44089 12.2812 4.44089C12.8196 4.44089 13.3915 4.50825 14.0309 4.71009H14.0645C16.6889 5.45033 19.8518 7.40192 19.8518 12.5162C19.8518 16.4194 20.3902 19.212 21.5005 20.8607H3.02825C4.10508 19.1784 4.67702 16.3856 4.67702 12.5162C4.67702 7.36822 7.80609 5.41668 10.4643 4.67645L10.4643 4.67653Z" fill="white"/>
<path d="M6.76301 11.4063H6.86393C7.2005 11.4063 7.46946 11.1706 7.53681 10.8343C7.80602 8.84917 9.85852 7.63787 9.89205 7.63787C10.2286 7.46959 10.3295 7.03234 10.1277 6.72934C9.95941 6.39277 9.52217 6.29185 9.21916 6.49369C9.11824 6.56105 6.56116 8.04158 6.19104 10.6996C6.15748 11.0024 6.39289 11.3389 6.76301 11.4063L6.76301 11.4063Z" fill="white"/>
</svg>
