<svg width="107" height="79" viewBox="0 0 107 79" fill="none" xmlns="http://www.w3.org/2000/svg">
<g clip-path="url(#clip0_90_62)">
<path fill-rule="evenodd" clip-rule="evenodd" d="M76.5 56.875C73.3988 56.875 70.875 59.3988 70.875 62.5C70.875 65.6012 73.3988 68.125 76.5 68.125C79.6012 68.125 82.125 65.6012 82.125 62.5C82.125 59.3988 79.6012 56.875 76.5 56.875Z" fill="white"/>
<path fill-rule="evenodd" clip-rule="evenodd" d="M76.5 64.375C75.465 64.375 74.625 63.5331 74.625 62.5C74.625 61.4669 75.465 60.625 76.5 60.625C77.535 60.625 78.375 61.4669 78.375 62.5C78.375 63.5331 77.535 64.375 76.5 64.375ZM78.375 57.22V35.3125C78.375 30.6606 74.5894 26.875 69.9375 26.875C65.2856 26.875 61.5 30.6606 61.5 35.3125V55C61.5 60.1694 57.2944 64.375 52.125 64.375C46.9556 64.375 42.75 60.1694 42.75 55V45.4956C50.1375 44.5675 55.875 38.26 55.875 30.625V13.75C55.875 12.715 55.035 11.875 54 11.875H52.125C51.09 11.875 50.25 12.715 50.25 13.75C50.25 14.785 51.09 15.625 52.125 15.625V30.625C52.125 36.8294 47.0794 41.875 40.875 41.875C34.6706 41.875 29.625 36.8294 29.625 30.625V15.625C30.66 15.625 31.5 14.785 31.5 13.75C31.5 12.715 30.66 11.875 29.625 11.875H27.75C26.715 11.875 25.875 12.715 25.875 13.75V30.625C25.875 38.26 31.6125 44.5675 39 45.4956V55C39 62.2375 44.8875 68.125 52.125 68.125C59.3606 68.125 65.25 62.2375 65.25 55V35.3125C65.25 32.7288 67.3519 30.625 69.9375 30.625C72.5231 30.625 74.625 32.7288 74.625 35.3125V57.22C72.4481 57.9981 70.875 60.0588 70.875 62.5C70.875 65.6012 73.3988 68.125 76.5 68.125C79.6012 68.125 82.125 65.6012 82.125 62.5C82.125 60.0588 80.5519 57.9981 78.375 57.22Z" fill="white"/>
</g>
<defs>
<clipPath id="clip0_90_62">
<rect width="58" height="58" fill="white" transform="translate(25 11)"/>
</clipPath>
</defs>
</svg>
