<svg width="107" height="79" viewBox="0 0 107 79" fill="none" xmlns="http://www.w3.org/2000/svg">
<g clip-path="url(#clip0_91_127)">
<path fill-rule="evenodd" clip-rule="evenodd" d="M63.375 19.375C60.9488 19.375 58.59 19.9656 56.3625 21.13C55.6331 21.5106 54.8175 21.7 54 21.7V65.8C54.8175 65.8 55.6331 65.9894 56.3625 66.37C58.59 67.5344 60.9488 68.125 63.375 68.125C73.7137 68.125 82.125 57.19 82.125 43.75C82.125 30.31 73.7137 19.375 63.375 19.375Z" fill="#1BB5EC"/>
<path fill-rule="evenodd" clip-rule="evenodd" d="M58.0978 63.0135C55.5403 61.6803 52.4803 61.6691 49.9021 63.0135C40.1353 68.1116 29.624 58.0935 29.624 43.7291C29.624 29.3985 40.1165 19.3335 49.9021 24.4466C52.469 25.7853 55.5309 25.7853 58.0978 24.4466C67.8646 19.3485 78.374 29.3666 78.374 43.7291C78.374 58.0616 67.8834 68.1266 58.0978 63.0135ZM56.9184 20.8728L59.4909 14.4453C59.8753 13.4835 59.4065 12.3941 58.4465 12.0078C57.4922 11.6253 56.3934 12.0903 56.009 13.0522L52.6303 21.4935C52.289 21.3997 51.9534 21.2891 51.6384 21.1241C39.1715 14.6141 25.874 26.7191 25.874 43.7291C25.874 60.9866 39.3515 72.7485 51.6384 66.336C53.0953 65.5747 54.9046 65.5766 56.3615 66.336C68.8284 72.846 82.124 60.741 82.124 43.7291C82.124 27.0472 69.3234 14.9778 56.9184 20.8728Z" fill="#364F6B"/>
</g>
<defs>
<clipPath id="clip0_91_127">
<rect width="58" height="58" fill="white" transform="translate(25 11)"/>
</clipPath>
</defs>
</svg>
