<svg width="107" height="79" viewBox="0 0 107 79" fill="none" xmlns="http://www.w3.org/2000/svg">
<g clip-path="url(#clip0_90_76)">
<path fill-rule="evenodd" clip-rule="evenodd" d="M66.5758 38.6744L55.3258 27.4244C54.5927 26.6912 53.4077 26.6912 52.6746 27.4244L36.5683 43.5306C34.3802 45.7187 34.3802 49.2812 36.5683 51.4694L42.5308 57.4319C44.7171 59.62 48.2833 59.62 50.4696 57.4319L66.5758 41.3256C67.309 40.5925 67.309 39.4075 66.5758 38.6744Z" fill="white"/>
<path fill-rule="evenodd" clip-rule="evenodd" d="M70.875 27.9735L66.0262 23.1247L70.875 18.276L75.7237 23.1247L70.875 27.9735ZM65.25 37.3485L56.6512 28.7497L61.5 23.901L70.0987 32.4997L65.25 37.3485ZM47.8256 54.7729C47.1169 55.4797 45.8831 55.4797 45.1744 54.7729L39.2269 48.8254C38.8744 48.471 38.6794 48.0004 38.6794 47.4997C38.6794 46.9991 38.8744 46.5285 39.2269 46.1741L54 31.401L62.5987 39.9997L47.8256 54.7729ZM39 56.0985L37.9012 54.9997L39 53.901L40.0987 54.9997L39 56.0985ZM81.5756 23.6741L70.3256 12.4241C69.5925 11.691 68.4075 11.691 67.6744 12.4241C66.9412 13.1572 66.9412 14.3422 67.6744 15.0754L68.2237 15.6247L63.375 20.4735L62.8256 19.9241C62.0925 19.191 60.9075 19.191 60.1744 19.9241L36.5756 43.5229C34.4606 45.6379 34.4062 49.0222 36.3712 51.2272L33.9244 53.6741C33.1912 54.4072 33.1912 55.5922 33.9244 56.3254L34.4737 56.8747L26.4244 64.9241C25.6912 65.6572 25.6912 66.8422 26.4244 67.5754C27.1575 68.3085 28.3425 68.3085 29.0756 67.5754L37.125 59.526L37.6744 60.0754C38.4075 60.8085 39.5925 60.8085 40.3256 60.0754L42.7725 57.6285C45.0675 59.6722 48.4162 59.4847 50.4769 57.4241L74.0756 33.8254C74.8087 33.0922 74.8087 31.9072 74.0756 31.1741L73.5262 30.6247L78.375 25.776L78.9244 26.3254C79.6575 27.0585 80.8425 27.0585 81.5756 26.3254C82.3087 25.5922 82.3087 24.4072 81.5756 23.6741Z" fill="white"/>
</g>
<defs>
<clipPath id="clip0_90_76">
<rect width="58" height="58" fill="white" transform="translate(25 11)"/>
</clipPath>
</defs>
</svg>
