<?xml version="1.0" encoding="utf-8"?>
<!-- Generator: Adobe Illustrator 26.3.1, SVG Export Plug-In . SVG Version: 6.00 Build 0)  -->
<svg version="1.1" id="Capa_1" xmlns="http://www.w3.org/2000/svg" xmlns:xlink="http://www.w3.org/1999/xlink" x="0px" y="0px"
	 viewBox="0 0 187.55 233.08" style="enable-background:new 0 0 187.55 233.08;" xml:space="preserve">
<style type="text/css">
	.st0{fill:#009DB5;}
	.st1{fill:url(#SVGID_1_);}
	.st2{fill:url(#SVGID_00000078747418064332690520000013804556307317576869_);}
	.st3{fill:url(#SVGID_00000117648106437022727760000013227202075505350062_);}
</style>
<g>
	<path class="st0" d="M22.38,203.27h11.15v2.89h-7.92v3h6.97v2.89h-6.97v3.1h8.02v2.89H22.38V203.27z"/>
	<path class="st0" d="M36.53,203.27h3l6.92,9.1v-9.1h3.21v14.78h-2.77l-7.16-9.39v9.39h-3.21V203.27z"/>
	<path class="st0" d="M53.21,203.27h11.25v2.96h-8v3.14h7.05v2.95h-7.05v5.72h-3.25V203.27z"/>
	<path class="st0" d="M67.06,203.27H78.2v2.89h-7.92v3h6.97v2.89h-6.97v3.1h8.02v2.89H67.06V203.27z"/>
	<path class="st0" d="M81.2,203.27h6.75c1.88,0,3.33,0.53,4.31,1.5c0.82,0.82,1.27,1.98,1.27,3.38v0.04c0,2.39-1.29,3.88-3.17,4.58
		l3.61,5.28h-3.8l-3.17-4.73h-2.55v4.73H81.2V203.27z M87.75,210.45c1.58,0,2.49-0.84,2.49-2.09v-0.04c0-1.39-0.97-2.11-2.55-2.11
		h-3.23v4.24H87.75z"/>
	<path class="st0" d="M96.47,203.27h3.5l3.88,6.25l3.88-6.25h3.5v14.78h-3.23v-9.65l-4.16,6.31h-0.08l-4.12-6.25v9.58h-3.19V203.27z
		"/>
	<path class="st0" d="M114.79,203.27h11.15v2.89h-7.92v3h6.97v2.89h-6.97v3.1h8.02v2.89h-11.25V203.27z"/>
	<path class="st0" d="M128.94,203.27h6.75c1.88,0,3.33,0.53,4.31,1.5c0.82,0.82,1.27,1.98,1.27,3.38v0.04
		c0,2.39-1.29,3.88-3.17,4.58l3.61,5.28h-3.8l-3.17-4.73h-2.55v4.73h-3.25V203.27z M135.48,210.45c1.58,0,2.49-0.84,2.49-2.09v-0.04
		c0-1.39-0.97-2.11-2.55-2.11h-3.23v4.24H135.48z"/>
	<path class="st0" d="M144.35,203.27h3.25v14.78h-3.25V203.27z M147.22,198.79l2.77,1.2l-2.87,2.11h-2.45L147.22,198.79z"/>
	<path class="st0" d="M156.36,203.16h3l6.33,14.88h-3.4l-1.35-3.31h-6.25l-1.35,3.31h-3.31L156.36,203.16z M159.78,211.86
		l-1.96-4.79l-1.96,4.79H159.78z"/>
</g>
<g>
	<linearGradient id="SVGID_1_" gradientUnits="userSpaceOnUse" x1="6.8854" y1="97.6843" x2="181.1156" y2="97.6843">
		<stop  offset="0" style="stop-color:#0086AA"/>
		<stop  offset="1" style="stop-color:#3FC7D4"/>
	</linearGradient>
	<path class="st1" d="M163.19,128.62l-42.26-7.33l-4.2-9.27c4.41-5.49,7.96-12.62,10.29-20.7c7.43-0.58,13.15-6.71,13.15-14.24
		c0-5.19-2.89-10.02-7.43-12.49l5.84-27.99c1.16-5.53-0.77-11.12-5.01-14.59C122.5,12.97,108.09,7.79,94,7.79
		c-14.39,0-29.11,5.14-40.38,14.1c-4.34,3.46-6.34,9.31-5.07,14.9l6.32,28.01c-4.37,2.56-7.06,7.2-7.06,12.27
		c0,7.54,5.73,13.67,13.17,14.25c2.35,8.14,5.92,15.3,10.38,20.81l-4.2,9.15l-42.3,7.34c-10.62,1.7-18.66,11.8-17.92,22.51
		l2.01,32.95c0.12,1.97,1.75,3.5,3.72,3.5c0.08,0,0.16,0,0.23-0.01c1-0.06,1.91-0.51,2.57-1.25c0.66-0.75,0.99-1.71,0.93-2.7
		l-2.01-32.97c-0.48-6.98,4.76-13.55,11.7-14.67l40.13-6.96c2.13,13.6,13.89,23.73,27.75,23.73c13.87,0,25.63-10.14,27.76-23.74
		l40.24,6.98c6.91,1.11,12.13,7.68,11.66,14.64l-2.43,32.95c-0.07,0.99,0.24,1.96,0.89,2.71c0.65,0.76,1.56,1.21,2.54,1.28
		c0.1,0.01,0.19,0.01,0.29,0.01c1.94,0,3.58-1.52,3.72-3.46l2.43-32.96C181.8,140.43,173.78,130.33,163.19,128.62z M76.51,117.42
		c5.31,4.48,11.33,6.84,17.49,6.84c6.01,0,11.9-2.25,17.12-6.53l3.47,7.66c-0.4,10.99-9.6,19.89-20.62,19.89
		c-11.38,0-20.64-9.26-20.64-20.64c0-0.08-0.01-0.15-0.02-0.26L76.51,117.42z M123.87,64.05c-2.22,0.37-4.49,0.56-6.76,0.56
		c-10.39,0-20.14-3.92-26.46-10.57c1.2-0.09,2.33-0.13,3.38-0.13c5.46,0,12.37,1.13,18.04,2.94
		C118.09,58.77,122.21,61.3,123.87,64.05z M131.27,35.08l-4.41,21.14c-8.21-7.09-24.21-9.77-32.82-9.77c-2.1,0-5.96,0.27-10.51,1.02
		c-0.25,0.02-0.49,0.06-0.72,0.12c-7.08,1.24-16.42,3.76-22.16,8.85l-4.8-21.29c-0.64-2.82,0.32-5.73,2.44-7.41l0,0
		C68.09,19.92,81.45,15.25,94,15.25c12.39,0,25.09,4.57,34.84,12.54C130.89,29.46,131.84,32.32,131.27,35.08z M60.05,70.61
		c1.73-0.38,2.94-1.87,2.94-3.64c0-5.76,9.72-9.8,19.02-11.72c7.49,10.55,20.56,16.82,35.09,16.82c3.75,0,7.52-0.45,11.2-1.34
		c2.64,0.99,4.39,3.51,4.39,6.33c0,3.76-3.06,6.82-6.82,6.82c-0.34,0-0.69-0.06-1.09-0.12c-1.94-0.32-3.75,0.88-4.22,2.79
		c-4.45,18.08-15.12,30.22-26.57,30.22c-11.44,0-22.11-12.15-26.56-30.22c-0.41-1.68-1.94-2.84-3.63-2.84
		c-0.2,0-0.39,0.02-0.59,0.05c-0.39,0.06-0.76,0.12-1.12,0.12c-3.76,0-6.82-3.06-6.82-6.82C55.28,74.12,57.27,71.45,60.05,70.61z"/>
	
		<linearGradient id="SVGID_00000054243846547040771660000007344401044552181656_" gradientUnits="userSpaceOnUse" x1="82.0043" y1="31.4292" x2="105.994" y2="31.4292">
		<stop  offset="0" style="stop-color:#0086AA"/>
		<stop  offset="1" style="stop-color:#3FC7D4"/>
	</linearGradient>
	<path style="fill:url(#SVGID_00000054243846547040771660000007344401044552181656_);" d="M102.26,27.7h-4.53v-4.53
		c0-2.06-1.67-3.73-3.73-3.73s-3.73,1.67-3.73,3.73v4.53h-4.53c-2.06,0-3.73,1.67-3.73,3.73s1.67,3.73,3.73,3.73h4.53v4.53
		c0,2.06,1.67,3.73,3.73,3.73s3.73-1.67,3.73-3.73v-4.53h4.53c2.06,0,3.73-1.67,3.73-3.73S104.32,27.7,102.26,27.7z"/>
	
		<linearGradient id="SVGID_00000164483498811237113140000008388205026042720171_" gradientUnits="userSpaceOnUse" x1="123.9923" y1="172.1209" x2="150.4324" y2="172.1209">
		<stop  offset="0" style="stop-color:#0086AA"/>
		<stop  offset="1" style="stop-color:#3FC7D4"/>
	</linearGradient>
	<path style="fill:url(#SVGID_00000164483498811237113140000008388205026042720171_);" d="M146.7,168.39h-18.98
		c-2.06,0-3.73,1.67-3.73,3.73s1.67,3.73,3.73,3.73h18.98c2.06,0,3.73-1.67,3.73-3.73S148.76,168.39,146.7,168.39z"/>
</g>
</svg>
