<?xml version="1.0" encoding="utf-8"?>
<!-- Generator: Adobe Illustrator 26.3.1, SVG Export Plug-In . SVG Version: 6.00 Build 0)  -->
<svg version="1.1" id="Capa_1" xmlns="http://www.w3.org/2000/svg" xmlns:xlink="http://www.w3.org/1999/xlink" x="0px" y="0px"
	 viewBox="0 0 235.77 242.34" style="enable-background:new 0 0 235.77 242.34;" xml:space="preserve">
<style type="text/css">
	.st0{fill:url(#SVGID_1_);}
	.st1{fill:url(#SVGID_00000112608857550542448920000008641883558170167196_);}
	.st2{fill:#009DB5;}
</style>
<g>
	<linearGradient id="SVGID_1_" gradientUnits="userSpaceOnUse" x1="83.4391" y1="87.6753" x2="154.773" y2="87.6753">
		<stop  offset="0" style="stop-color:#0086AA"/>
		<stop  offset="1" style="stop-color:#3FC7D4"/>
	</linearGradient>
	<path class="st0" d="M116.21,42.81c8-0.81,15.64,1.69,21.54,7.03c5.82,5.26,9.16,12.78,9.16,20.63c0,2.17,1.76,3.93,3.93,3.93
		s3.93-1.76,3.93-3.93c0-10.06-4.28-19.71-11.75-26.46c-7.57-6.85-17.38-10.05-27.61-9.02c-15.2,1.53-28.01,12.93-31.15,27.71
		c-1.08,5.07-1.1,10.18-0.06,15.17c0.62,3,2.87,5.23,5.86,5.8c3.07,0.59,6.19-0.75,7.94-3.4c4.2-6.38,11.55-9.57,19.18-8.31
		c7.75,1.28,14.1,7.56,15.45,15.28c1.01,5.75-0.46,11.33-4.14,15.71c-3.63,4.32-8.94,6.8-14.58,6.8c-0.11,0-0.21,0.01-0.34,0.03
		c-0.18-0.03-0.35-0.04-0.54-0.04c-14.83,0-26.89,12.06-26.89,26.9c0,2.17,1.76,3.93,3.93,3.93s3.93-1.76,3.93-3.93
		c0-10.49,8.54-19.03,19.03-19.03c0.11,0,0.21-0.01,0.34-0.03c0.17,0.03,0.35,0.04,0.54,0.04c7.97,0,15.48-3.5,20.6-9.61
		c5.12-6.1,7.26-14.17,5.87-22.13c-1.92-10.95-10.94-19.87-21.92-21.68c-10.54-1.73-20.71,2.57-26.71,11.28
		c-0.65-3.67-0.58-7.41,0.21-11.14C94.4,52.86,104.37,44.01,116.21,42.81z"/>
	
		<linearGradient id="SVGID_00000129181300147379674360000003646482712538887615_" gradientUnits="userSpaceOnUse" x1="52.5248" y1="102.8735" x2="185.691" y2="102.8735">
		<stop  offset="0" style="stop-color:#0086AA"/>
		<stop  offset="1" style="stop-color:#3FC7D4"/>
	</linearGradient>
	<path style="fill:url(#SVGID_00000129181300147379674360000003646482712538887615_);" d="M165.53,23.13
		C152.54,10.49,135.38,3.8,117.22,4.3c-36.03,1-65.65,32.32-64.67,68.39c0.06,2.15,1.78,3.83,3.93,3.83l0.11,0
		c1.05-0.03,2.03-0.46,2.75-1.23c0.72-0.76,1.1-1.76,1.08-2.81c-0.86-31.81,25.25-59.44,57.03-60.32
		c15.99-0.44,31.14,5.45,42.61,16.6c11.47,11.15,17.78,26.1,17.78,42.1c0,18.69-8.6,35.83-23.61,47.02
		c-11.91,8.89-18.46,22.2-17.98,36.5c0.01,0.43,0.02,0.86,0.02,1.29c0,10.81-4.63,21.14-12.71,28.33
		c-8.19,7.29-18.76,10.61-29.77,9.34c-16.71-1.93-30.58-15.39-32.98-32c-0.31-2.14-2.31-3.64-4.45-3.33
		c-1.04,0.15-1.96,0.7-2.59,1.54c-0.63,0.84-0.89,1.88-0.74,2.92c2.9,20.08,19.66,36.35,39.86,38.69c1.76,0.2,3.56,0.31,5.34,0.31
		c11.33,0,22.18-4.11,30.57-11.59c9.75-8.69,15.34-21.16,15.34-34.21c0-0.52-0.01-1.04-0.03-1.55c-0.39-11.7,5.01-22.61,14.83-29.94
		c17.01-12.7,26.76-32.14,26.76-53.33C185.69,52.73,178.53,35.77,165.53,23.13z"/>
</g>
<g>
	<path class="st2" d="M7.51,216.13h12.11v3.18h-8.61v3.39h7.59v3.18h-7.59v6.16h-3.5V216.13z"/>
	<path class="st2" d="M21.71,224.12v-0.04c0-4.52,3.57-8.22,8.47-8.22c4.91,0,8.43,3.66,8.43,8.18v0.05c0,4.52-3.57,8.22-8.47,8.22
		C25.23,232.3,21.71,228.64,21.71,224.12z M34.96,224.12v-0.04c0-2.73-2-5-4.82-5s-4.77,2.23-4.77,4.95v0.05c0,2.73,2,5,4.82,5
		S34.96,226.85,34.96,224.12z"/>
	<path class="st2" d="M41.73,216.13h3.23l7.45,9.79v-9.79h3.45v15.9h-2.98l-7.7-10.11v10.11h-3.45V216.13z"/>
	<path class="st2" d="M58.98,224.12v-0.04c0-4.52,3.57-8.22,8.47-8.22c4.91,0,8.43,3.66,8.43,8.18v0.05c0,4.52-3.57,8.22-8.47,8.22
		C62.51,232.3,58.98,228.64,58.98,224.12z M72.23,224.12v-0.04c0-2.73-2-5-4.82-5s-4.77,2.23-4.77,4.95v0.05c0,2.73,2,5,4.82,5
		S72.23,226.85,72.23,224.12z"/>
	<path class="st2" d="M83.44,216.01h3.23l6.82,16.02h-3.66l-1.45-3.57h-6.73l-1.45,3.57h-3.57L83.44,216.01z M87.12,225.37
		L85,220.22l-2.11,5.16H87.12z"/>
	<path class="st2" d="M95.12,225.21v-9.09h3.5v9c0,2.59,1.29,3.93,3.43,3.93s3.43-1.29,3.43-3.82v-9.11h3.5v8.97
		c0,4.82-2.7,7.18-6.97,7.18S95.12,229.89,95.12,225.21z"/>
	<path class="st2" d="M112.55,216.13h6.2c5,0,8.45,3.43,8.45,7.91v0.05c0,4.48-3.45,7.95-8.45,7.95h-6.2V216.13z M118.75,228.87
		c2.86,0,4.79-1.93,4.79-4.75v-0.04c0-2.82-1.93-4.79-4.79-4.79h-2.7v9.59H118.75z"/>
	<path class="st2" d="M130.48,216.13h3.5v15.9h-3.5V216.13z"/>
	<path class="st2" d="M137.25,224.12v-0.04c0-4.52,3.57-8.22,8.47-8.22c4.91,0,8.43,3.66,8.43,8.18v0.05c0,4.52-3.57,8.22-8.47,8.22
		C140.78,232.3,137.25,228.64,137.25,224.12z M150.5,224.12v-0.04c0-2.73-2-5-4.82-5s-4.77,2.23-4.77,4.95v0.05c0,2.73,2,5,4.82,5
		S150.5,226.85,150.5,224.12z"/>
	<path class="st2" d="M157.28,216.13h3.5v12.72h7.93v3.18h-11.43V216.13z"/>
	<path class="st2" d="M169.73,224.12v-0.04c0-4.52,3.57-8.22,8.47-8.22c4.91,0,8.43,3.66,8.43,8.18v0.05c0,4.52-3.57,8.22-8.47,8.22
		C173.25,232.3,169.73,228.64,169.73,224.12z M182.98,224.12v-0.04c0-2.73-2-5-4.82-5s-4.77,2.23-4.77,4.95v0.05c0,2.73,2,5,4.82,5
		S182.98,226.85,182.98,224.12z"/>
	<path class="st2" d="M189.05,224.12v-0.04c0-4.52,3.52-8.22,8.34-8.22c2.86,0,4.59,0.77,6.25,2.18l-2.2,2.66
		c-1.23-1.02-2.32-1.61-4.16-1.61c-2.54,0-4.57,2.25-4.57,4.95v0.05c0,2.91,2,5.04,4.82,5.04c1.27,0,2.41-0.32,3.29-0.95v-2.27
		h-3.52v-3.02h6.91v6.91c-1.64,1.39-3.88,2.52-6.79,2.52C192.46,232.3,189.05,228.83,189.05,224.12z"/>
	<path class="st2" d="M207.73,216.13h3.5v15.9h-3.5V216.13z M210.82,211.31l2.98,1.3l-3.09,2.27h-2.64L210.82,211.31z"/>
	<path class="st2" d="M220.66,216.01h3.23l6.82,16.02h-3.66l-1.45-3.57h-6.73l-1.45,3.57h-3.57L220.66,216.01z M224.34,225.37
		l-2.11-5.16l-2.11,5.16H224.34z"/>
</g>
</svg>
