<?xml version="1.0" encoding="utf-8"?>
<!-- Generator: Adobe Illustrator 26.3.1, SVG Export Plug-In . SVG Version: 6.00 Build 0)  -->
<svg version="1.1" id="Capa_1" xmlns="http://www.w3.org/2000/svg" xmlns:xlink="http://www.w3.org/1999/xlink" x="0px" y="0px"
	 viewBox="0 0 193.4 226.77" style="enable-background:new 0 0 193.4 226.77;" xml:space="preserve">
<style type="text/css">
	.st0{fill:#009DB5;}
	.st1{fill:url(#SVGID_1_);}
	.st2{fill:url(#SVGID_00000183942452095492300430000000607667342237634494_);}
	.st3{fill:url(#SVGID_00000040566464405712863470000002722019737291726230_);}
</style>
<g>
	<path class="st0" d="M17.51,198.15h3.22v6.39l5.93-6.39h3.89l-5.95,6.2l6.23,8.42h-3.86l-4.53-6.22l-1.69,1.75v4.47h-3.22V198.15z"
		/>
	<path class="st0" d="M32.9,198.15h3.22v14.62H32.9V198.15z"/>
	<path class="st0" d="M39.78,198.15h2.97l6.85,9v-9h3.18v14.62h-2.74l-7.08-9.3v9.3h-3.17V198.15z"/>
	<path class="st0" d="M56.28,198.15H67.3v2.86h-7.83v2.97h6.89v2.86h-6.89v3.07h7.94v2.86H56.28V198.15z"/>
	<path class="st0" d="M69.27,210.64l1.9-2.28c1.32,1.09,2.69,1.78,4.37,1.78c1.32,0,2.11-0.52,2.11-1.38v-0.04
		c0-0.81-0.5-1.23-2.95-1.86c-2.95-0.75-4.85-1.57-4.85-4.47v-0.04c0-2.65,2.13-4.41,5.12-4.41c2.13,0,3.95,0.67,5.43,1.86
		l-1.67,2.42c-1.29-0.9-2.57-1.44-3.8-1.44s-1.88,0.56-1.88,1.27v0.04c0,0.96,0.63,1.27,3.15,1.92c2.97,0.77,4.64,1.84,4.64,4.39
		v0.04c0,2.9-2.21,4.53-5.37,4.53C73.26,212.98,71.02,212.21,69.27,210.64z"/>
	<path class="st0" d="M83.78,198.15H87v14.62h-3.22V198.15z"/>
	<path class="st0" d="M90.01,205.5v-0.04c0-4.16,3.28-7.56,7.79-7.56s7.75,3.36,7.75,7.52v0.04c0,4.16-3.28,7.56-7.79,7.56
		C93.24,213.02,90.01,209.66,90.01,205.5z M102.18,205.5v-0.04c0-2.51-1.84-4.6-4.43-4.6s-4.39,2.05-4.39,4.55v0.04
		c0,2.51,1.84,4.6,4.43,4.6S102.18,208.01,102.18,205.5z"/>
	<path class="st0" d="M108.41,198.15h3.22v11.7h7.29v2.92h-10.51V198.15z"/>
	<path class="st0" d="M119.85,205.5v-0.04c0-4.16,3.28-7.56,7.79-7.56c4.51,0,7.75,3.36,7.75,7.52v0.04c0,4.16-3.28,7.56-7.79,7.56
		C123.09,213.02,119.85,209.66,119.85,205.5z M132.03,205.5v-0.04c0-2.51-1.84-4.6-4.43-4.6c-2.59,0-4.39,2.05-4.39,4.55v0.04
		c0,2.51,1.84,4.6,4.43,4.6C130.23,210.06,132.03,208.01,132.03,205.5z"/>
	<path class="st0" d="M137.61,205.5v-0.04c0-4.16,3.24-7.56,7.67-7.56c2.63,0,4.22,0.71,5.74,2l-2.03,2.44
		c-1.13-0.94-2.13-1.48-3.82-1.48c-2.34,0-4.2,2.07-4.2,4.55v0.04c0,2.67,1.84,4.64,4.43,4.64c1.17,0,2.21-0.29,3.03-0.88v-2.09
		h-3.24v-2.78h6.35v6.35c-1.5,1.27-3.57,2.32-6.25,2.32C140.74,213.02,137.61,209.83,137.61,205.5z"/>
	<path class="st0" d="M154.77,198.15h3.22v14.62h-3.22V198.15z M157.62,193.72l2.74,1.19l-2.84,2.09h-2.42L157.62,193.72z"/>
	<path class="st0" d="M166.66,198.05h2.97l6.27,14.73h-3.36l-1.34-3.28h-6.18l-1.34,3.28h-3.28L166.66,198.05z M170.04,206.65
		l-1.94-4.74l-1.94,4.74H170.04z"/>
</g>
<g>
	<linearGradient id="SVGID_1_" gradientUnits="userSpaceOnUse" x1="9.6741" y1="83.2475" x2="182.8253" y2="83.2475">
		<stop  offset="0" style="stop-color:#0086AA"/>
		<stop  offset="1" style="stop-color:#3FC7D4"/>
	</linearGradient>
	<path class="st1" d="M27.18,123.42c8.18,0,15.05-5.65,16.96-13.25c1.04,7.47,7.46,13.25,15.22,13.25h46.22
		c4.26,0,7.89-2.73,9.25-6.53c0.35,1.67,1.83,2.92,3.6,2.92h53.76c5.87,0,10.64-4.77,10.64-10.64c0-5.6-4.38-10.26-9.96-10.62
		l-38.78-2.46l0.13-0.22c0.05-0.08,0.13-0.12,0.22-0.12h37.74c5.87,0,10.65-4.78,10.65-10.65c0-5.87-4.78-10.65-10.65-10.65h-41.79
		c1.48-1.35,1.61-3.64,0.28-5.15L113.6,50.03c-3.91-4.42-9.55-6.96-15.45-6.96H75.9c-5.78,0-11.33,2.45-15.23,6.71L44.63,67.33
		c-3.18,3.48-3.8,8.59-1.56,12.73l5.67,10.45c0.67,1.23,1.93,1.92,3.24,1.92c0.59,0,1.19-0.14,1.75-0.45
		c1.79-0.97,2.45-3.2,1.48-4.98l-5.67-10.45c-0.75-1.39-0.54-3.1,0.52-4.26l16.04-17.54c2.51-2.75,6.08-4.32,9.8-4.32h22.25
		c3.8,0,7.43,1.63,9.95,4.48l17.06,19.28c0.32,0.36,0.7,0.64,1.1,0.84c-1.66,0.51-3.19,1.35-4.52,2.48
		c-0.12-0.68-0.43-1.34-0.93-1.89l-12.34-13.18c-1.03-1.1-2.63-1.46-4.03-0.91c-1.4,0.55-2.33,1.91-2.33,3.42v25.53
		c0,2.03,1.65,3.68,3.68,3.68c0.75,0,1.44-0.23,2.02-0.61l-0.72,0.85l-35.27-2.24c0.94-0.67,1.55-1.75,1.55-2.99v-27
		c0-1.49-0.9-2.83-2.27-3.4c-1.37-0.57-2.95-0.26-4.01,0.8L54.11,72.53c-1.09,1.09-1.38,2.75-0.74,4.15l6.32,13.63
		c0.2,0.44,0.49,0.81,0.82,1.12l-0.2-0.01c-0.07,0-0.14-0.01-0.21-0.01c-4.3,0-8.35,1.62-11.4,4.65c-2.08,2.07-3.51,4.61-4.22,7.38
		c-1.21-8.48-8.5-15.03-17.31-15.03c-9.65,0-17.51,7.85-17.51,17.51S17.53,123.42,27.18,123.42z M109.46,90.47V74.26l5.98,6.39
		c0.66,0.7,1.53,1.08,2.41,1.14l-8.73,10.22C109.33,91.54,109.46,91.02,109.46,90.47z M125.89,83.69c1.02-1.2,2.52-1.89,4.09-1.89
		h42.19c1.82,0,3.3,1.48,3.3,3.3c0,1.82-1.48,3.3-3.3,3.3h-37.74c-2.63,0-5.11,1.39-6.49,3.63l-2.17,3.53l-9.53-0.61L125.89,83.69z
		 M66,71.03v15.41l-4.88-10.53L66,71.03z M66.26,90.51c0.2,0.52,0.52,0.98,0.92,1.35l-2-0.13C65.64,91.4,66,90.98,66.26,90.51z
		 M53.89,101.27c1.63-1.62,3.78-2.5,6.07-2.51l112.44,7.14c1.72,0.11,3.08,1.55,3.08,3.28c0,1.81-1.47,3.28-3.28,3.28h-53.76
		c-1.26,0-2.37,0.64-3.04,1.6c0.01-0.16,0.02-0.33,0.02-0.49c0-5.43-4.41-9.84-9.84-9.84H59.55c-2.03,0-3.68,1.65-3.68,3.68
		s1.65,3.68,3.68,3.68h46.03c1.37,0,2.49,1.12,2.49,2.49c0,1.37-1.12,2.49-2.49,2.49H59.36c-4.43,0-8.03-3.6-8.03-8.03v-0.62
		C51.33,105.09,52.24,102.91,53.89,101.27z M27.18,95.76c5.6,0,10.15,4.56,10.15,10.15c0,5.6-4.55,10.15-10.15,10.15
		s-10.15-4.56-10.15-10.15C17.03,100.32,21.58,95.76,27.18,95.76z"/>
	
		<linearGradient id="SVGID_00000052097229372160456210000007307968963170719926_" gradientUnits="userSpaceOnUse" x1="69.5954" y1="25.1131" x2="104.6089" y2="25.1131">
		<stop  offset="0" style="stop-color:#0086AA"/>
		<stop  offset="1" style="stop-color:#3FC7D4"/>
	</linearGradient>
	<path style="fill:url(#SVGID_00000052097229372160456210000007307968963170719926_);" d="M87.1,42.62
		c9.65,0,17.51-7.85,17.51-17.51S96.75,7.61,87.1,7.61S69.6,15.46,69.6,25.11S77.45,42.62,87.1,42.62z M87.1,14.96
		c5.6,0,10.16,4.56,10.16,10.15S92.7,35.27,87.1,35.27c-5.6,0-10.15-4.56-10.15-10.15S81.5,14.96,87.1,14.96z"/>
	
		<linearGradient id="SVGID_00000152259771367635822700000013353467279327481493_" gradientUnits="userSpaceOnUse" x1="6.208" y1="153.7734" x2="187.792" y2="153.7734">
		<stop  offset="0" style="stop-color:#0086AA"/>
		<stop  offset="1" style="stop-color:#3FC7D4"/>
	</linearGradient>
	<path style="fill:url(#SVGID_00000152259771367635822700000013353467279327481493_);" d="M175.14,124.03H18.86
		c-6.97,0-12.65,5.67-12.65,12.65s5.67,12.65,12.65,12.65h15.39v30.51c0,2.03,1.65,3.68,3.68,3.68c2.03,0,3.68-1.65,3.68-3.68
		v-30.51H66v23.15c0,6.08,4.95,11.03,11.03,11.03c5.16,0,9.5-3.57,10.69-8.37c1.2,4.8,5.53,8.37,10.69,8.37
		c6.08,0,11.03-4.95,11.03-11.03v-23.15h42.94v30.51c0,2.03,1.65,3.68,3.68,3.68s3.68-1.65,3.68-3.68v-30.51h15.39
		c6.97,0,12.65-5.67,12.65-12.65S182.12,124.03,175.14,124.03z M77.04,176.16c-2.03,0-3.68-1.65-3.68-3.68v-23.15h7.36v23.15
		C80.72,174.51,79.07,176.16,77.04,176.16z M102.11,172.48c0,2.03-1.65,3.68-3.68,3.68s-3.68-1.65-3.68-3.68v-23.15h7.36V172.48z
		 M175.14,141.98H18.86c-2.92,0-5.3-2.38-5.3-5.3s2.38-5.3,5.3-5.3h156.29c2.92,0,5.3,2.38,5.3,5.3S178.06,141.98,175.14,141.98z"/>
</g>
</svg>
