<?xml version="1.0" encoding="utf-8"?>
<!-- Generator: Adobe Illustrator 26.3.1, SVG Export Plug-In . SVG Version: 6.00 Build 0)  -->
<svg version="1.1" id="Capa_1" xmlns="http://www.w3.org/2000/svg" xmlns:xlink="http://www.w3.org/1999/xlink" x="0px" y="0px"
	 viewBox="0 0 184.36 261.27" style="enable-background:new 0 0 184.36 261.27;" xml:space="preserve">
<style type="text/css">
	.st0{fill:#009DB5;}
	.st1{fill:url(#SVGID_1_);}
	.st2{fill:url(#SVGID_00000183218789906048695700000005088915430837602437_);}
	.st3{fill:url(#SVGID_00000004522804976132532030000010679293863854197130_);}
	.st4{fill:url(#SVGID_00000088091784755098126050000017121043407869477819_);}
	.st5{fill:url(#SVGID_00000034073602845687764250000014878225871948054953_);}
	.st6{fill:url(#SVGID_00000145037423949939274880000011301457893606529983_);}
	.st7{fill:url(#SVGID_00000085229241757165726860000003656755643814752911_);}
	.st8{fill:url(#SVGID_00000162311422195641058260000010914588409684675231_);}
	.st9{fill:url(#SVGID_00000155853805830741092690000006893406998407149236_);}
	.st10{fill:url(#SVGID_00000047051626523450908950000005987456699221836420_);}
	.st11{fill:url(#SVGID_00000090989104452109593400000014999617243871750281_);}
	.st12{fill:url(#SVGID_00000005983336130748173070000018060879260286481583_);}
	.st13{fill:url(#SVGID_00000049207438727819070630000003962018875852582839_);}
	.st14{fill:url(#SVGID_00000039851861066793370970000012958022556147345287_);}
	.st15{fill:url(#SVGID_00000015340581859349626590000002160778583746896022_);}
	.st16{fill:url(#SVGID_00000116947194691136984870000008367340966922536095_);}
	.st17{fill:url(#SVGID_00000094598599484894220450000001721887195004881823_);}
</style>
<g>
	<path class="st0" d="M17.47,207.33h3.08l7.12,9.35v-9.35h3.3v15.19h-2.84l-7.36-9.66v9.66h-3.3V207.33z"/>
	<path class="st0" d="M34.37,216.01v-8.68h3.34v8.59c0,2.47,1.24,3.75,3.28,3.75c2.04,0,3.28-1.24,3.28-3.64v-8.7h3.34v8.57
		c0,4.6-2.58,6.86-6.66,6.86C36.87,222.76,34.37,220.48,34.37,216.01z"/>
	<path class="st0" d="M54.55,210.41h-4.62v-3.08h12.58v3.08h-4.62v12.11h-3.34V210.41z"/>
	<path class="st0" d="M65.07,207.33h6.94c1.93,0,3.43,0.54,4.43,1.54c0.85,0.85,1.3,2.04,1.3,3.47v0.04c0,2.45-1.32,3.99-3.25,4.71
		l3.71,5.42h-3.91l-3.25-4.86h-2.63v4.86h-3.34V207.33z M71.8,214.71c1.63,0,2.56-0.87,2.56-2.15v-0.04c0-1.43-1-2.17-2.63-2.17
		h-3.32v4.36H71.8z"/>
	<path class="st0" d="M80.91,207.33h3.34v15.19h-3.34V207.33z"/>
	<path class="st0" d="M87.37,214.97v-0.04c0-4.32,3.25-7.85,7.92-7.85c2.86,0,4.58,0.96,5.99,2.34l-2.13,2.45
		c-1.17-1.06-2.37-1.71-3.88-1.71c-2.56,0-4.4,2.13-4.4,4.73v0.04c0,2.6,1.8,4.77,4.4,4.77c1.74,0,2.8-0.69,3.99-1.78l2.13,2.15
		c-1.56,1.67-3.3,2.71-6.23,2.71C90.69,222.78,87.37,219.33,87.37,214.97z"/>
	<path class="st0" d="M104.21,207.33h3.34v15.19h-3.34V207.33z"/>
	<path class="st0" d="M110.68,214.97v-0.04c0-4.32,3.41-7.85,8.09-7.85s8.05,3.49,8.05,7.81v0.04c0,4.32-3.41,7.86-8.09,7.86
		S110.68,219.29,110.68,214.97z M123.33,214.97v-0.04c0-2.6-1.91-4.77-4.6-4.77s-4.56,2.13-4.56,4.73v0.04c0,2.6,1.91,4.77,4.6,4.77
		S123.33,217.57,123.33,214.97z M120.03,202.51l2.84,1.24l-2.95,2.17h-2.52L120.03,202.51z"/>
	<path class="st0" d="M129.79,207.33h3.08l7.12,9.35v-9.35h3.3v15.19h-2.84l-7.36-9.66v9.66h-3.3V207.33z"/>
	<path class="st0" d="M157.71,216.53l-5.84-9.2h3.91l3.62,6.1l3.69-6.1h3.8l-5.84,9.13v6.05h-3.34V216.53z"/>
	<path class="st0" d="M32.28,233.37h5.92c4.77,0,8.07,3.28,8.07,7.55v0.04c0,4.28-3.3,7.59-8.07,7.59h-5.92V233.37z M38.2,245.54
		c2.73,0,4.58-1.84,4.58-4.54v-0.04c0-2.69-1.84-4.58-4.58-4.58h-2.58v9.16H38.2z"/>
	<path class="st0" d="M49.4,233.37h3.34v15.19H49.4V233.37z"/>
	<path class="st0" d="M56.53,233.37h11.46v2.97h-8.14v3.08h7.16v2.97h-7.16v3.19h8.25v2.97H56.53V233.37z"/>
	<path class="st0" d="M74.61,236.45h-4.62v-3.08h12.58v3.08h-4.62v12.11h-3.34V236.45z"/>
	<path class="st0" d="M85.13,233.37h11.46v2.97h-8.14v3.08h7.16v2.97h-7.16v3.19h8.25v2.97H85.13V233.37z M92.18,228.77l2.84,1.24
		l-2.95,2.17h-2.52L92.18,228.77z"/>
	<path class="st0" d="M103.2,236.45h-4.62v-3.08h12.58v3.08h-4.62v12.11h-3.34V236.45z"/>
	<path class="st0" d="M113.88,233.37h3.34v15.19h-3.34V233.37z"/>
	<path class="st0" d="M120.34,241v-0.04c0-4.32,3.25-7.85,7.92-7.85c2.86,0,4.58,0.96,5.99,2.34l-2.13,2.45
		c-1.17-1.06-2.36-1.71-3.88-1.71c-2.56,0-4.4,2.13-4.4,4.73v0.04c0,2.6,1.8,4.77,4.4,4.77c1.74,0,2.8-0.69,3.99-1.78l2.13,2.15
		c-1.56,1.67-3.3,2.71-6.23,2.71C123.66,248.82,120.34,245.37,120.34,241z"/>
	<path class="st0" d="M142.23,233.26h3.08l6.51,15.3h-3.49l-1.39-3.41h-6.42l-1.39,3.41h-3.41L142.23,233.26z M145.75,242.2
		l-2.02-4.93l-2.02,4.93H145.75z"/>
</g>
<g>
	<g>
		<linearGradient id="SVGID_1_" gradientUnits="userSpaceOnUse" x1="136.0364" y1="104.4568" x2="157.1894" y2="104.4568">
			<stop  offset="0" style="stop-color:#0086AA"/>
			<stop  offset="1" style="stop-color:#3FC7D4"/>
		</linearGradient>
		<path class="st1" d="M139.95,129.04c-2,0-3.68-1.55-3.81-3.57c-1.51-23.57,13.57-43.28,14.21-44.11c1.29-1.66,3.69-1.97,5.36-0.67
			c1.66,1.29,1.97,3.69,0.68,5.35l0,0c-0.14,0.18-13.95,18.31-12.62,38.94c0.14,2.1-1.46,3.92-3.57,4.06
			C140.12,129.03,140.03,129.04,139.95,129.04z"/>
		
			<linearGradient id="SVGID_00000178168212389138071050000013209134709500474290_" gradientUnits="userSpaceOnUse" x1="130.156" y1="91.5238" x2="166.1362" y2="91.5238">
			<stop  offset="0" style="stop-color:#0086AA"/>
			<stop  offset="1" style="stop-color:#3FC7D4"/>
		</linearGradient>
		<path style="fill:url(#SVGID_00000178168212389138071050000013209134709500474290_);" d="M148.15,115.63
			c-1.85,0-3.47-1.34-3.77-3.22c-0.33-2.08,1.09-4.04,3.17-4.37c3.11-0.49,5.06-3.8,6.16-6.48c0.7-1.71,1.19-3.65,1.48-5.75
			l2.67-19.73c-2.26,0.58-5.04,1.4-7.9,2.48c-4.73,1.79-8.6,5.49-10.62,10.14c-1.98,4.56-2.05,9.56-0.19,14.08
			c0.8,1.95-0.13,4.18-2.08,4.98c-1.95,0.8-4.18-0.13-4.98-2.08c-2.64-6.44-2.56-13.55,0.25-20.02c2.84-6.53,8.28-11.73,14.92-14.24
			c6.29-2.38,12.27-3.61,13.95-3.92c1.31-0.25,2.67,0.15,3.64,1.07c0.97,0.92,1.44,2.26,1.26,3.58l-3.34,24.68
			c-0.37,2.75-1.04,5.31-1.97,7.61c-3.33,8.16-8.38,10.57-12.04,11.15C148.55,115.61,148.34,115.63,148.15,115.63z"/>
	</g>
	
		<linearGradient id="SVGID_00000116930093433030304610000017092284329948125574_" gradientUnits="userSpaceOnUse" x1="128.5768" y1="129.3786" x2="151.1051" y2="129.3786">
		<stop  offset="0" style="stop-color:#0086AA"/>
		<stop  offset="1" style="stop-color:#3FC7D4"/>
	</linearGradient>
	<path style="fill:url(#SVGID_00000116930093433030304610000017092284329948125574_);" d="M139.84,136.92
		c-6.21,0-11.26-5.05-11.26-11.26c0-2.11,1.71-3.82,3.82-3.82s3.82,1.71,3.82,3.82c0,2,1.63,3.63,3.63,3.63c2,0,3.63-1.63,3.63-3.63
		c0-2.11,1.71-3.82,3.82-3.82c2.11,0,3.82,1.71,3.82,3.82C151.11,131.87,146.05,136.92,139.84,136.92z"/>
	
		<linearGradient id="SVGID_00000070096760161771167730000000821035235974695081_" gradientUnits="userSpaceOnUse" x1="4" y1="112.9075" x2="114.8006" y2="112.9075">
		<stop  offset="0" style="stop-color:#0086AA"/>
		<stop  offset="1" style="stop-color:#3FC7D4"/>
	</linearGradient>
	<path style="fill:url(#SVGID_00000070096760161771167730000000821035235974695081_);" d="M110.98,191.83H18.63
		C10.56,191.83,4,185.27,4,177.2V48.61c0-8.07,6.56-14.63,14.63-14.63h16.43c2.11,0,3.82,1.71,3.82,3.82c0,2.11-1.71,3.82-3.82,3.82
		H18.63c-3.85,0-6.99,3.14-6.99,6.99V177.2c0,3.85,3.14,6.99,6.99,6.99h92.35c2.11,0,3.82,1.71,3.82,3.82
		S113.09,191.83,110.98,191.83z"/>
	
		<linearGradient id="SVGID_00000159435432241752809640000001629570374479469184_" gradientUnits="userSpaceOnUse" x1="108.8135" y1="51.4222" x2="143.6861" y2="51.4222">
		<stop  offset="0" style="stop-color:#0086AA"/>
		<stop  offset="1" style="stop-color:#3FC7D4"/>
	</linearGradient>
	<path style="fill:url(#SVGID_00000159435432241752809640000001629570374479469184_);" d="M139.87,68.86
		c-2.11,0-3.82-1.71-3.82-3.82V48.61c0-3.85-3.14-6.99-6.99-6.99h-16.43c-2.11,0-3.82-1.71-3.82-3.82c0-2.11,1.71-3.82,3.82-3.82
		h16.43c8.07,0,14.63,6.56,14.63,14.63v16.43C143.69,67.15,141.98,68.86,139.87,68.86z"/>
	
		<linearGradient id="SVGID_00000131365903918068428120000017969845685436966283_" gradientUnits="userSpaceOnUse" x1="39.4879" y1="28.9678" x2="106.5472" y2="28.9678">
		<stop  offset="0" style="stop-color:#0086AA"/>
		<stop  offset="1" style="stop-color:#3FC7D4"/>
	</linearGradient>
	<path style="fill:url(#SVGID_00000131365903918068428120000017969845685436966283_);" d="M102.25,52.35H43.79
		c-2.37,0-4.3-1.93-4.3-4.3V32.68c0-6.56,5.34-11.9,11.9-11.9h3.12c1.77-8.66,9.41-15.2,18.51-15.2c9.1,0,16.75,6.54,18.51,15.2
		h3.12c6.56,0,11.9,5.34,11.9,11.9v15.37C106.55,50.42,104.62,52.35,102.25,52.35z M47.13,44.72h51.78V32.68
		c0-2.35-1.91-4.26-4.26-4.26h-6.48c-2.15,0-3.89-1.75-3.89-3.89c-0.03-6.22-5.08-11.3-11.26-11.3S61.79,18.3,61.76,24.54
		c0,2.13-1.75,3.88-3.89,3.88h-6.48c-2.35,0-4.26,1.91-4.26,4.26V44.72z M54.12,24.48c0,0.02,0,0.03,0,0.05
		C54.12,24.51,54.12,24.49,54.12,24.48z M91.91,24.46c0,0.01,0,0.03,0,0.04C91.91,24.49,91.91,24.48,91.91,24.46z"/>
	
		<linearGradient id="SVGID_00000056419624569177503750000010969313296176889741_" gradientUnits="userSpaceOnUse" x1="68.3734" y1="23.7745" x2="78.4867" y2="23.7745">
		<stop  offset="0" style="stop-color:#0086AA"/>
		<stop  offset="1" style="stop-color:#3FC7D4"/>
	</linearGradient>
	<path style="fill:url(#SVGID_00000056419624569177503750000010969313296176889741_);" d="M74.67,27.59h-2.48
		c-2.11,0-3.82-1.71-3.82-3.82s1.71-3.82,3.82-3.82h2.48c2.11,0,3.82,1.71,3.82,3.82S76.78,27.59,74.67,27.59z"/>
	
		<linearGradient id="SVGID_00000138541934507641840480000014209400932777232271_" gradientUnits="userSpaceOnUse" x1="28.4033" y1="71.8734" x2="53.5354" y2="71.8734">
		<stop  offset="0" style="stop-color:#0086AA"/>
		<stop  offset="1" style="stop-color:#3FC7D4"/>
	</linearGradient>
	<path style="fill:url(#SVGID_00000138541934507641840480000014209400932777232271_);" d="M37.87,82.41l-8.39-8.7
		c-1.46-1.52-1.42-3.93,0.1-5.4c1.52-1.46,3.94-1.42,5.4,0.1l3,3.1l9.05-9.05c1.49-1.49,3.91-1.49,5.4,0c1.49,1.49,1.49,3.91,0,5.4
		L37.87,82.41z"/>
	
		<linearGradient id="SVGID_00000050635220324079451870000015004514745001675435_" gradientUnits="userSpaceOnUse" x1="59.2959" y1="65.8652" x2="111.4994" y2="65.8652">
		<stop  offset="0" style="stop-color:#0086AA"/>
		<stop  offset="1" style="stop-color:#3FC7D4"/>
	</linearGradient>
	<path style="fill:url(#SVGID_00000050635220324079451870000015004514745001675435_);" d="M107.68,69.68H63.11
		c-2.11,0-3.82-1.71-3.82-3.82c0-2.11,1.71-3.82,3.82-3.82h44.57c2.11,0,3.82,1.71,3.82,3.82C111.5,67.97,109.79,69.68,107.68,69.68
		z"/>
	
		<linearGradient id="SVGID_00000016772057826054001900000008723187787858699921_" gradientUnits="userSpaceOnUse" x1="59.2959" y1="78.2444" x2="91.6914" y2="78.2444">
		<stop  offset="0" style="stop-color:#0086AA"/>
		<stop  offset="1" style="stop-color:#3FC7D4"/>
	</linearGradient>
	<path style="fill:url(#SVGID_00000016772057826054001900000008723187787858699921_);" d="M87.87,82.06H63.11
		c-2.11,0-3.82-1.71-3.82-3.82c0-2.11,1.71-3.82,3.82-3.82h24.76c2.11,0,3.82,1.71,3.82,3.82C91.69,80.35,89.98,82.06,87.87,82.06z"
		/>
	
		<linearGradient id="SVGID_00000091728178246088706870000012000789132933133442_" gradientUnits="userSpaceOnUse" x1="28.4033" y1="113.1383" x2="53.5354" y2="113.1383">
		<stop  offset="0" style="stop-color:#0086AA"/>
		<stop  offset="1" style="stop-color:#3FC7D4"/>
	</linearGradient>
	<path style="fill:url(#SVGID_00000091728178246088706870000012000789132933133442_);" d="M37.87,123.67l-8.39-8.7
		c-1.46-1.52-1.42-3.93,0.1-5.4c1.52-1.46,3.94-1.42,5.4,0.1l3,3.1l9.05-9.05c1.49-1.49,3.91-1.49,5.4,0c1.49,1.49,1.49,3.91,0,5.4
		L37.87,123.67z"/>
	
		<linearGradient id="SVGID_00000071544727489066188860000003878816864503628695_" gradientUnits="userSpaceOnUse" x1="59.2959" y1="107.1304" x2="111.4994" y2="107.1304">
		<stop  offset="0" style="stop-color:#0086AA"/>
		<stop  offset="1" style="stop-color:#3FC7D4"/>
	</linearGradient>
	<path style="fill:url(#SVGID_00000071544727489066188860000003878816864503628695_);" d="M107.68,110.95H63.11
		c-2.11,0-3.82-1.71-3.82-3.82c0-2.11,1.71-3.82,3.82-3.82h44.57c2.11,0,3.82,1.71,3.82,3.82
		C111.5,109.24,109.79,110.95,107.68,110.95z"/>
	
		<linearGradient id="SVGID_00000087371090065497481600000010821802807806130306_" gradientUnits="userSpaceOnUse" x1="59.2959" y1="119.5101" x2="91.6914" y2="119.5101">
		<stop  offset="0" style="stop-color:#0086AA"/>
		<stop  offset="1" style="stop-color:#3FC7D4"/>
	</linearGradient>
	<path style="fill:url(#SVGID_00000087371090065497481600000010821802807806130306_);" d="M87.87,123.33H63.11
		c-2.11,0-3.82-1.71-3.82-3.82c0-2.11,1.71-3.82,3.82-3.82h24.76c2.11,0,3.82,1.71,3.82,3.82
		C91.69,121.62,89.98,123.33,87.87,123.33z"/>
	
		<linearGradient id="SVGID_00000048481480290356302550000012719065280497481351_" gradientUnits="userSpaceOnUse" x1="28.4033" y1="154.4035" x2="53.5354" y2="154.4035">
		<stop  offset="0" style="stop-color:#0086AA"/>
		<stop  offset="1" style="stop-color:#3FC7D4"/>
	</linearGradient>
	<path style="fill:url(#SVGID_00000048481480290356302550000012719065280497481351_);" d="M37.87,164.94l-8.39-8.7
		c-1.46-1.52-1.42-3.93,0.1-5.4c1.52-1.46,3.94-1.42,5.4,0.1l3,3.1l9.05-9.05c1.49-1.49,3.91-1.49,5.4,0c1.49,1.49,1.49,3.91,0,5.4
		L37.87,164.94z"/>
	
		<linearGradient id="SVGID_00000050646900433137151420000005193075783489087874_" gradientUnits="userSpaceOnUse" x1="59.2959" y1="148.3956" x2="94.9935" y2="148.3956">
		<stop  offset="0" style="stop-color:#0086AA"/>
		<stop  offset="1" style="stop-color:#3FC7D4"/>
	</linearGradient>
	<path style="fill:url(#SVGID_00000050646900433137151420000005193075783489087874_);" d="M91.17,152.21H63.11
		c-2.11,0-3.82-1.71-3.82-3.82c0-2.11,1.71-3.82,3.82-3.82h28.06c2.11,0,3.82,1.71,3.82,3.82C94.99,150.5,93.28,152.21,91.17,152.21
		z"/>
	
		<linearGradient id="SVGID_00000128481066523839571520000013366421965636947597_" gradientUnits="userSpaceOnUse" x1="59.2959" y1="160.7753" x2="91.6914" y2="160.7753">
		<stop  offset="0" style="stop-color:#0086AA"/>
		<stop  offset="1" style="stop-color:#3FC7D4"/>
	</linearGradient>
	<path style="fill:url(#SVGID_00000128481066523839571520000013366421965636947597_);" d="M87.87,164.59H63.11
		c-2.11,0-3.82-1.71-3.82-3.82s1.71-3.82,3.82-3.82h24.76c2.11,0,3.82,1.71,3.82,3.82S89.98,164.59,87.87,164.59z"/>
	
		<linearGradient id="SVGID_00000155843831876857652300000014197682682113128336_" gradientUnits="userSpaceOnUse" x1="96.4339" y1="150.6239" x2="180" y2="150.6239">
		<stop  offset="0" style="stop-color:#0086AA"/>
		<stop  offset="1" style="stop-color:#3FC7D4"/>
	</linearGradient>
	<path style="fill:url(#SVGID_00000155843831876857652300000014197682682113128336_);" d="M138.22,191.83
		c-23.04,0-41.78-18.74-41.78-41.78c0-19.16,12.96-35.82,31.51-40.51c2.05-0.52,4.12,0.72,4.64,2.77c0.52,2.04-0.72,4.12-2.77,4.64
		c-15.16,3.83-25.75,17.45-25.75,33.11c0,18.83,15.32,34.15,34.15,34.15s34.15-15.32,34.15-34.15c0-11.39-5.65-21.99-15.12-28.36
		c-1.75-1.18-2.21-3.55-1.04-5.3c1.18-1.75,3.55-2.22,5.3-1.04c11.58,7.79,18.49,20.76,18.49,34.69
		C180,173.08,161.26,191.83,138.22,191.83z"/>
</g>
</svg>
