<?xml version="1.0" encoding="utf-8"?>
<!-- Generator: Adobe Illustrator 26.3.1, SVG Export Plug-In . SVG Version: 6.00 Build 0)  -->
<svg version="1.1" id="Capa_1" xmlns="http://www.w3.org/2000/svg" xmlns:xlink="http://www.w3.org/1999/xlink" x="0px" y="0px"
	 viewBox="0 0 195.76 233.3" style="enable-background:new 0 0 195.76 233.3;" xml:space="preserve">
<style type="text/css">
	.st0{fill:url(#SVGID_1_);}
	.st1{enable-background:new    ;}
	.st2{fill:#009DB5;}
</style>
<linearGradient id="SVGID_1_" gradientUnits="userSpaceOnUse" x1="3.18" y1="135.1813" x2="192.82" y2="135.1813" gradientTransform="matrix(1 0 0 -1 0 233.2912)">
	<stop  offset="0" style="stop-color:#0086AA"/>
	<stop  offset="1" style="stop-color:#3FC7D4"/>
</linearGradient>
<path class="st0" d="M173.44,40.74c-0.37-0.53-0.77-1.06-1.2-1.61c-0.1-0.13-0.22-0.23-0.33-0.34C154.52,17.16,127.85,3.29,98,3.29
	c-52.28,0-94.82,42.53-94.82,94.82c0,52.28,42.53,94.82,94.82,94.82s94.82-42.53,94.82-94.82
	C192.82,76.56,185.59,56.68,173.44,40.74z M166.58,45.65c3.35,4.74,3.92,8.66,1.5,10.86c-3.75,3.42-14.03,3.41-22.23-4.38
	c-9.88-9.39-18.04-9.84-23.13-8.57c-5.12,1.28-12.19,5.56-16.83,18.66l-6.04,5.44c0-0.13,0-0.27,0-0.4c0-4.41-0.86-8.69-2.57-12.73
	c-1.65-3.89-4-7.39-7-10.39s-6.5-5.36-10.39-7.01c-4.04-1.71-8.32-2.57-12.73-2.57s-8.69,0.87-12.73,2.57c-3.89,1.65-7.39,4-10.39,7
	s-5.36,6.5-7.01,10.39c-1.71,4.03-2.57,8.32-2.57,12.73c0,4.41,0.86,8.69,2.57,12.73c1.12,2.65,2.58,5.13,4.35,7.39
	c-14.75,17.75-15.7,43.11-2.09,59.33c14.54,17.55,35.94,27.62,58.71,27.62c12.36,0,24.63-3.03,35.46-8.73
	c0.08-0.04,0.16-0.08,0.23-0.12c9.05-4.91,14.67-14.36,14.67-24.64c0-3.78-0.73-7.42-2.17-10.84l12.75-1.28
	c6.33-0.63,11.52-5.23,12.92-11.43c0.99-4.4-0.05-8.94-2.87-12.46c-2.82-3.52-7.01-5.54-11.52-5.54h-38.81c-2,0-3.96,0.29-5.86,0.86
	l4.1-11.64c2.5-7.11-0.34-15.05-6.63-18.49c-0.09-0.05-0.18-0.1-0.28-0.15l2.34-2.11c0.54-0.49,0.95-1.11,1.18-1.8
	c2.67-8.02,6.66-13.06,11.25-14.21c5.52-1.38,11.36,2.77,15.28,6.5c11.33,10.75,26.58,11,33.72,4.49c0.52-0.47,1.25-1.23,1.97-2.28
	c5.54,11.39,8.65,24.16,8.65,37.65c0,47.63-38.75,86.38-86.38,86.38S11.62,145.73,11.62,98.1S50.37,11.72,98,11.72
	C125.92,11.72,150.78,25.04,166.58,45.65z M125.12,127.85c0.11,1.12,0.65,2.14,1.53,2.85c0.87,0.71,1.98,1.05,3.07,0.93l7.5-0.73
	c1.76,2.99,2.69,6.41,2.69,9.92c0,7.14-3.89,13.73-10.11,17.15l-0.16,0.08c-9.68,5.12-20.63,7.83-31.66,7.83
	c-20.3,0-39.37-8.99-52.31-24.67l-0.07-0.08c-11.59-13.95-9.65-36.27,4.42-50.81c1.59-1.64,1.57-4.3-0.05-5.91
	c-2.23-2.23-3.98-4.82-5.2-7.71c-1.26-2.99-1.9-6.17-1.9-9.44c0-3.28,0.64-6.45,1.9-9.44c1.22-2.89,2.97-5.48,5.2-7.71
	s4.82-3.98,7.71-5.2c6-2.54,12.88-2.54,18.88,0c2.89,1.22,5.48,2.97,7.71,5.2c2.23,2.23,3.98,4.83,5.2,7.71
	c1.26,2.99,1.9,6.17,1.9,9.44c0,2.51-0.37,4.96-1.1,7.24l-1.12,3.18c-0.05,0.13-0.1,0.26-0.15,0.4c0.02,0.08,0,0.16,0,0.18
	l-5.51,15.63c-0.41,1.16-1.62,1.82-2.81,1.55L68.1,92.59c-1.11-0.25-2.3-0.04-3.25,0.59c-0.95,0.63-1.62,1.63-1.83,2.75l-4.55,24.52
	c-0.23,1.24,0.1,2.5,0.9,3.47c0.8,0.97,1.99,1.52,3.24,1.52h31.17c1.17,0,2.32-0.14,3.44-0.42c-0.14,8.36,2.31,16.18,6.8,21.64
	c1.47,1.79,4.14,2.05,5.94,0.58c1.79-1.48,2.05-4.14,0.57-5.94c-4.94-6-6.32-16.69-3.28-25.42l0.06-0.18
	c1.72-4.77,6.27-7.98,11.35-7.98h38.81c1.93,0,3.73,0.86,4.93,2.37s1.65,3.45,1.23,5.33c-0.6,2.66-2.82,4.62-5.53,4.89l-29.2,2.93
	C126.59,123.48,124.9,125.54,125.12,127.85z M99.29,113.1c-0.82,2.33-3.04,3.9-5.51,3.9h-26.1l2.82-15.22l8.31,1.88
	c5.37,1.21,10.8-1.78,12.63-6.97l5.22-14.81l5.86-5.28c1.27-0.12,2.54,0.16,3.71,0.8c2.7,1.47,3.87,5.04,2.72,8.29L99.29,113.1z"/>
<g class="st1">
	<path class="st2" d="M16.5,215.09v-0.04c0-4.38,3.46-7.97,8.21-7.97s8.17,3.54,8.17,7.93v0.04c0,4.38-3.46,7.97-8.21,7.97
		S16.5,219.47,16.5,215.09z M29.34,215.09v-0.04c0-2.64-1.94-4.84-4.67-4.84c-2.73,0-4.62,2.16-4.62,4.8v0.04
		c0,2.64,1.94,4.84,4.67,4.84S29.34,217.73,29.34,215.09z"/>
	<path class="st2" d="M35.9,207.34h7.16c1.76,0,3.15,0.48,4.03,1.37c0.7,0.71,1.06,1.56,1.06,2.62v0.04c0,1.74-0.92,2.71-2.03,3.33
		c1.78,0.68,2.88,1.72,2.88,3.79v0.04c0,2.82-2.29,4.23-5.77,4.23H35.9V207.34z M42.33,213.57c1.5,0,2.44-0.48,2.44-1.63v-0.04
		c0-1.01-0.79-1.58-2.22-1.58H39.2v3.26H42.33z M43.23,219.78c1.5,0,2.4-0.53,2.4-1.67v-0.04c0-1.04-0.77-1.67-2.51-1.67H39.2v3.39
		H43.23z"/>
	<path class="st2" d="M50.73,220.51l2-2.4c1.39,1.14,2.84,1.87,4.6,1.87c1.39,0,2.22-0.55,2.22-1.45v-0.04c0-0.86-0.53-1.3-3.1-1.96
		c-3.1-0.79-5.11-1.65-5.11-4.71v-0.04c0-2.8,2.25-4.65,5.39-4.65c2.25,0,4.16,0.7,5.72,1.96l-1.76,2.55
		c-1.37-0.95-2.71-1.52-4.01-1.52c-1.3,0-1.98,0.59-1.98,1.34v0.04c0,1.01,0.66,1.34,3.32,2.03c3.13,0.81,4.89,1.94,4.89,4.62v0.04
		c0,3.06-2.33,4.78-5.66,4.78C54.94,222.97,52.58,222.16,50.73,220.51z"/>
	<path class="st2" d="M69.14,210.47h-4.69v-3.13h12.77v3.13h-4.69v12.29h-3.39V210.47z"/>
	<path class="st2" d="M79.82,207.34h11.63v3.02h-8.26v3.13h7.27v3.02h-7.27v3.24h8.37v3.02H79.82V207.34z"/>
	<path class="st2" d="M98.16,210.47h-4.69v-3.13h12.77v3.13h-4.69v12.29h-3.39V210.47z"/>
	<path class="st2" d="M108.83,207.34h7.05c1.96,0,3.48,0.55,4.49,1.56c0.86,0.86,1.32,2.07,1.32,3.52v0.04
		c0,2.49-1.34,4.05-3.3,4.78l3.77,5.5h-3.96l-3.3-4.93h-2.67v4.93h-3.39V207.34z M115.66,214.83c1.65,0,2.6-0.88,2.6-2.18v-0.04
		c0-1.45-1.01-2.2-2.66-2.2h-3.37v4.43H115.66z"/>
	<path class="st2" d="M124.9,207.34h3.39v15.41h-3.39V207.34z"/>
	<path class="st2" d="M131.46,215.09v-0.04c0-4.38,3.3-7.97,8.04-7.97c2.91,0,4.65,0.97,6.08,2.38l-2.16,2.49
		c-1.19-1.08-2.4-1.74-3.94-1.74c-2.6,0-4.47,2.16-4.47,4.8v0.04c0,2.64,1.83,4.84,4.47,4.84c1.76,0,2.84-0.71,4.05-1.81l2.16,2.18
		c-1.58,1.7-3.35,2.75-6.32,2.75C134.83,223.02,131.46,219.52,131.46,215.09z"/>
	<path class="st2" d="M148.55,207.34h3.39v15.41h-3.39V207.34z"/>
	<path class="st2" d="M161.07,207.23h3.13l6.61,15.52h-3.54l-1.41-3.46h-6.52l-1.41,3.46h-3.46L161.07,207.23z M164.64,216.3
		l-2.05-5l-2.05,5H164.64z"/>
</g>
</svg>
