<?xml version="1.0" encoding="utf-8"?>
<!-- Generator: Adobe Illustrator 26.3.1, SVG Export Plug-In . SVG Version: 6.00 Build 0)  -->
<svg version="1.1" id="Capa_1" xmlns="http://www.w3.org/2000/svg" xmlns:xlink="http://www.w3.org/1999/xlink" x="0px" y="0px"
	 viewBox="0 0 185.2 235.89" style="enable-background:new 0 0 185.2 235.89;" xml:space="preserve">
<style type="text/css">
	.st0{fill:url(#SVGID_1_);}
	.st1{fill:url(#SVGID_00000110446163899100665580000006938843716625657239_);}
	.st2{fill:url(#SVGID_00000150101188480617693550000000623633278800528559_);}
	.st3{fill:#009DB5;}
</style>
<g>
	<linearGradient id="SVGID_1_" gradientUnits="userSpaceOnUse" x1="46.4691" y1="134.6467" x2="62.3472" y2="134.6467">
		<stop  offset="0" style="stop-color:#0086AA"/>
		<stop  offset="1" style="stop-color:#3FC7D4"/>
	</linearGradient>
	<path class="st0" d="M53.91,110.61c-0.05-0.99-0.49-1.91-1.23-2.57c-0.74-0.66-1.69-1-2.69-0.95c-0.99,0.05-1.91,0.49-2.57,1.23
		c-0.66,0.74-1,1.69-0.95,2.69c0.86,15.9,4.16,34.52,8.6,48.59c0.49,1.56,1.92,2.6,3.55,2.6c0.38,0,0.76-0.06,1.12-0.17
		c0.95-0.3,1.72-0.95,2.18-1.83c0.46-0.88,0.55-1.89,0.25-2.84C57.9,143.85,54.73,125.94,53.91,110.61z"/>
	
		<linearGradient id="SVGID_00000167394280507851898910000015865284062714037937_" gradientUnits="userSpaceOnUse" x1="30.4282" y1="65.8648" x2="47.6812" y2="65.8648">
		<stop  offset="0" style="stop-color:#0086AA"/>
		<stop  offset="1" style="stop-color:#3FC7D4"/>
	</linearGradient>
	<path style="fill:url(#SVGID_00000167394280507851898910000015865284062714037937_);" d="M46.9,91.55
		C37.1,78.98,34.7,54.19,41.87,39.52c0.44-0.89,0.5-1.9,0.18-2.84c-0.32-0.94-0.99-1.7-1.89-2.13c-1.84-0.9-4.08-0.13-4.98,1.71
		c-8.23,16.85-5.45,45.39,5.85,59.87c0.71,0.91,1.78,1.43,2.94,1.43c0.83,0,1.63-0.27,2.29-0.79C47.87,95.51,48.16,93.17,46.9,91.55
		z"/>
	
		<linearGradient id="SVGID_00000026874476468713504960000010442300534835992236_" gradientUnits="userSpaceOnUse" x1="16.3754" y1="99.5873" x2="169.6413" y2="99.5873">
		<stop  offset="0" style="stop-color:#0086AA"/>
		<stop  offset="1" style="stop-color:#3FC7D4"/>
	</linearGradient>
	<path style="fill:url(#SVGID_00000026874476468713504960000010442300534835992236_);" d="M163.45,30.1
		c-6.95-14.23-18.71-21.75-33.99-21.75c-10.06,0-15.11,2.94-20.01,5.79c-4.44,2.58-8.28,4.81-16.44,4.81s-12-2.23-16.44-4.81
		c-4.89-2.85-9.95-5.79-20.01-5.79c-15.29,0-27.04,7.52-33.99,21.75c-10.61,21.72-7.22,55.91,7.39,74.66
		c1.49,1.91,2.36,4.34,2.5,7.02c0.43,7.87,2.49,27.46,7.25,45.31c5.98,22.39,13.93,33.75,23.65,33.75
		c14.25,0,15.79-18.11,15.79-25.89c0-46.53,7.53-56.3,13.85-56.3s13.85,9.77,13.85,56.3c0,7.79,1.54,25.89,15.79,25.89
		c9.71,0,17.67-11.35,23.65-33.75c4.76-17.85,6.83-37.44,7.26-45.31c0.15-2.68,1.01-5.1,2.5-7.02
		C170.67,86.01,174.06,51.82,163.45,30.1z M150.19,100.18c-2.43,3.12-3.84,6.99-4.06,11.19c-1.55,28.67-11.71,72.02-23.47,72.02
		c-7.27,0-8.35-11.56-8.35-18.45c0-29.68-2.42-63.74-21.3-63.74c-8.61,0-14.64,7.19-17.92,21.37c-3.02,13.05-3.37,30.43-3.37,42.37
		c0,6.89-1.08,18.45-8.35,18.45c-11.77,0-21.92-43.35-23.47-72.02c-0.23-4.2-1.63-8.07-4.06-11.19
		c-12.84-16.47-15.91-47.7-6.57-66.82c3.92-8.02,11.83-17.58,27.3-17.58c8.05,0,11.85,2.21,16.26,4.78
		c4.92,2.86,10.01,5.82,20.19,5.82s15.26-2.96,20.19-5.83c4.41-2.56,8.22-4.78,16.26-4.78c15.47,0,23.39,9.56,27.3,17.58
		C166.1,52.48,163.03,83.71,150.19,100.18z"/>
</g>
<g>
	<path class="st3" d="M8.42,214.15v-0.04c0-4.21,3.32-7.65,7.88-7.65c4.57,0,7.84,3.4,7.84,7.61v0.04c0,4.21-3.32,7.65-7.88,7.65
		C11.7,221.76,8.42,218.36,8.42,214.15z M20.75,214.15v-0.04c0-2.54-1.86-4.65-4.48-4.65s-4.44,2.07-4.44,4.61v0.04
		c0,2.54,1.86,4.65,4.48,4.65S20.75,216.69,20.75,214.15z"/>
	<path class="st3" d="M27.05,206.71h5.77c4.65,0,7.86,3.19,7.86,7.35v0.04c0,4.16-3.21,7.4-7.86,7.4h-5.77V206.71z M32.82,218.57
		c2.66,0,4.46-1.8,4.46-4.42v-0.04c0-2.62-1.8-4.46-4.46-4.46H30.3v8.92H32.82z"/>
	<path class="st3" d="M42.93,214.15v-0.04c0-4.21,3.32-7.65,7.88-7.65c4.57,0,7.84,3.4,7.84,7.61v0.04c0,4.21-3.32,7.65-7.88,7.65
		C46.2,221.76,42.93,218.36,42.93,214.15z M55.25,214.15v-0.04c0-2.54-1.86-4.65-4.48-4.65s-4.44,2.07-4.44,4.61v0.04
		c0,2.54,1.86,4.65,4.48,4.65S55.25,216.69,55.25,214.15z"/>
	<path class="st3" d="M61.55,206.71h3l6.93,9.11v-9.11h3.21v14.8h-2.77l-7.16-9.41v9.41h-3.21V206.71z"/>
	<path class="st3" d="M81.7,209.71h-4.5v-3h12.26v3h-4.5v11.79H81.7V209.71z"/>
	<path class="st3" d="M90.66,214.15v-0.04c0-4.21,3.32-7.65,7.88-7.65c4.57,0,7.84,3.4,7.84,7.61v0.04c0,4.21-3.32,7.65-7.88,7.65
		C93.94,221.76,90.66,218.36,90.66,214.15z M102.99,214.15v-0.04c0-2.54-1.86-4.65-4.48-4.65c-2.62,0-4.44,2.07-4.44,4.61v0.04
		c0,2.54,1.86,4.65,4.48,4.65C101.17,218.76,102.99,216.69,102.99,214.15z"/>
	<path class="st3" d="M109.29,206.71h3.25v11.84h7.38v2.96h-10.63V206.71z"/>
	<path class="st3" d="M120.87,214.15v-0.04c0-4.21,3.32-7.65,7.88-7.65c4.57,0,7.84,3.4,7.84,7.61v0.04c0,4.21-3.32,7.65-7.88,7.65
		C124.15,221.76,120.87,218.36,120.87,214.15z M133.2,214.15v-0.04c0-2.54-1.86-4.65-4.48-4.65c-2.62,0-4.44,2.07-4.44,4.61v0.04
		c0,2.54,1.86,4.65,4.48,4.65C131.38,218.76,133.2,216.69,133.2,214.15z"/>
	<path class="st3" d="M138.84,214.15v-0.04c0-4.21,3.28-7.65,7.76-7.65c2.66,0,4.27,0.72,5.81,2.03l-2.05,2.47
		c-1.14-0.95-2.16-1.5-3.87-1.5c-2.37,0-4.25,2.09-4.25,4.61v0.04c0,2.71,1.86,4.69,4.48,4.69c1.18,0,2.24-0.3,3.07-0.89v-2.11
		h-3.28v-2.81h6.43v6.42c-1.52,1.29-3.61,2.35-6.32,2.35C142.02,221.76,138.84,218.53,138.84,214.15z"/>
	<path class="st3" d="M156.22,206.71h3.25v14.8h-3.25V206.71z M159.1,202.23l2.77,1.21l-2.87,2.11h-2.45L159.1,202.23z"/>
	<path class="st3" d="M168.25,206.61h3l6.34,14.9h-3.4l-1.35-3.32h-6.26l-1.35,3.32h-3.32L168.25,206.61z M171.68,215.31l-1.97-4.8
		l-1.96,4.8H171.68z"/>
</g>
</svg>
