<?xml version="1.0" encoding="utf-8"?>
<!-- Generator: Adobe Illustrator 26.3.1, SVG Export Plug-In . SVG Version: 6.00 Build 0)  -->
<svg version="1.1" id="Capa_1" xmlns="http://www.w3.org/2000/svg" xmlns:xlink="http://www.w3.org/1999/xlink" x="0px" y="0px"
	 viewBox="0 0 187.1 234.88" style="enable-background:new 0 0 187.1 234.88;" xml:space="preserve">
<style type="text/css">
	.st0{fill:#009DB5;}
	.st1{fill:url(#SVGID_1_);}
	.st2{fill:url(#SVGID_00000019637003404276241350000017201177609553621162_);}
	.st3{fill:url(#SVGID_00000166667880263498788910000005195993800290600369_);}
</style>
<g>
	<path class="st0" d="M25.71,206.07h6.03c3.52,0,5.65,2.09,5.65,5.1v0.04c0,3.42-2.66,5.19-5.97,5.19h-2.47v4.43h-3.25V206.07z
		 M31.53,213.51c1.62,0,2.57-0.97,2.57-2.23v-0.04c0-1.45-1.01-2.23-2.64-2.23h-2.51v4.51H31.53z"/>
	<path class="st0" d="M38.78,218.68l1.92-2.3c1.33,1.1,2.72,1.79,4.41,1.79c1.33,0,2.13-0.53,2.13-1.39v-0.04
		c0-0.82-0.51-1.24-2.97-1.88c-2.97-0.76-4.89-1.58-4.89-4.51v-0.04c0-2.68,2.15-4.45,5.17-4.45c2.15,0,3.98,0.67,5.48,1.88
		l-1.69,2.45c-1.31-0.91-2.59-1.45-3.84-1.45c-1.24,0-1.9,0.57-1.9,1.29v0.04c0,0.97,0.63,1.29,3.18,1.94
		c2.99,0.78,4.68,1.85,4.68,4.43v0.04c0,2.93-2.23,4.58-5.42,4.58C42.81,221.04,40.55,220.26,38.78,218.68z"/>
	<path class="st0" d="M53.44,206.07h3.25v14.76h-3.25V206.07z"/>
	<path class="st0" d="M59.72,213.49v-0.04c0-4.2,3.16-7.63,7.7-7.63c2.78,0,4.45,0.93,5.82,2.28l-2.07,2.38
		c-1.14-1.03-2.3-1.67-3.77-1.67c-2.49,0-4.28,2.07-4.28,4.6v0.04c0,2.53,1.75,4.64,4.28,4.64c1.69,0,2.72-0.68,3.88-1.73l2.07,2.09
		c-1.52,1.62-3.21,2.64-6.05,2.64C62.95,221.08,59.72,217.73,59.72,213.49z"/>
	<path class="st0" d="M74.86,213.49v-0.04c0-4.2,3.31-7.63,7.86-7.63c4.55,0,7.82,3.39,7.82,7.59v0.04c0,4.2-3.31,7.63-7.86,7.63
		C78.13,221.08,74.86,217.69,74.86,213.49z M87.16,213.49v-0.04c0-2.53-1.85-4.64-4.47-4.64s-4.43,2.07-4.43,4.6v0.04
		c0,2.53,1.85,4.64,4.47,4.64C85.34,218.09,87.16,216.02,87.16,213.49z"/>
	<path class="st0" d="M93.44,206.07h3.25v11.81h7.36v2.95h-10.6V206.07z"/>
	<path class="st0" d="M105,213.49v-0.04c0-4.2,3.31-7.63,7.86-7.63c4.55,0,7.82,3.39,7.82,7.59v0.04c0,4.2-3.31,7.63-7.86,7.63
		C108.27,221.08,105,217.69,105,213.49z M117.29,213.49v-0.04c0-2.53-1.85-4.64-4.47-4.64c-2.61,0-4.43,2.07-4.43,4.6v0.04
		c0,2.53,1.85,4.64,4.47,4.64S117.29,216.02,117.29,213.49z"/>
	<path class="st0" d="M122.92,213.49v-0.04c0-4.2,3.27-7.63,7.74-7.63c2.66,0,4.26,0.72,5.8,2.02l-2.05,2.47
		c-1.14-0.95-2.15-1.5-3.86-1.5c-2.36,0-4.24,2.09-4.24,4.6v0.04c0,2.7,1.85,4.68,4.47,4.68c1.18,0,2.23-0.29,3.06-0.89v-2.11h-3.27
		v-2.8h6.41v6.41c-1.52,1.29-3.6,2.34-6.3,2.34C126.09,221.08,122.92,217.86,122.92,213.49z"/>
	<path class="st0" d="M140.26,206.07h3.25v14.76h-3.25V206.07z M143.13,201.6l2.76,1.2l-2.87,2.11h-2.45L143.13,201.6z"/>
	<path class="st0" d="M152.26,205.97h2.99l6.32,14.86h-3.39l-1.35-3.31h-6.24l-1.35,3.31h-3.31L152.26,205.97z M155.67,214.65
		l-1.96-4.79l-1.96,4.79H155.67z"/>
</g>
<g>
	<linearGradient id="SVGID_1_" gradientUnits="userSpaceOnUse" x1="74.3495" y1="75.9784" x2="106.5776" y2="75.9784">
		<stop  offset="0" style="stop-color:#0086AA"/>
		<stop  offset="1" style="stop-color:#3FC7D4"/>
	</linearGradient>
	<path class="st1" d="M82.55,82.76c0.12-3.88,2.53-7.29,6.14-8.69c3.74-1.45,8.05-0.41,10.7,2.6c1.5,1.69,4.09,1.86,5.79,0.36
		c1.7-1.5,1.86-4.09,0.36-5.79c-4.92-5.57-12.89-7.51-19.82-4.82c-6.7,2.6-11.16,8.92-11.38,16.1c-0.07,2.26,1.72,4.16,3.98,4.22
		l0.12,0C80.69,86.74,82.49,84.99,82.55,82.76z"/>
	
		<linearGradient id="SVGID_00000083087828306781968350000008030617710511736970_" gradientUnits="userSpaceOnUse" x1="8" y1="99.7742" x2="181.6065" y2="99.7742">
		<stop  offset="0" style="stop-color:#0086AA"/>
		<stop  offset="1" style="stop-color:#3FC7D4"/>
	</linearGradient>
	<path style="fill:url(#SVGID_00000083087828306781968350000008030617710511736970_);" d="M180.58,129.87l-16.79-33.99
		c-0.62-1.25-0.89-2.73-0.78-4.28c0.11-1.63,0.16-3.27,0.16-4.86c0-22.02-9.41-43.08-25.82-57.79C120.7,14.03,99.2,7.18,76.81,9.64
		c-35.9,3.94-64.66,32.91-68.38,68.87c-2.26,21.89,4.47,43,18.97,59.43c3.45,3.91,5.35,8.67,5.35,13.41l0,34.95
		c0,2.26,1.84,4.1,4.1,4.1s4.1-1.84,4.1-4.1l0-34.95c0-6.74-2.63-13.43-7.41-18.84c-12.97-14.69-18.99-33.56-16.96-53.15
		c3.33-32.15,29.03-58.04,61.12-61.56c20.05-2.2,39.28,3.93,54.15,17.26c14.68,13.15,23.09,31.99,23.09,51.68
		c0,1.4-0.05,2.86-0.15,4.32c-0.2,3,0.36,5.92,1.62,8.46l16.79,33.99c0.23,0.47,0.24,1.01,0.01,1.48c-0.23,0.47-0.65,0.81-1.17,0.92
		l-10.51,2.31c-4.28,0.94-7.44,4.5-7.87,8.86l-2.42,24.67c-0.58,5.96-5.54,10.45-11.52,10.45h-31.37
		c-10.31,0-18.69-8.39-18.69-18.69v-3.3c0-2.26-1.84-4.1-4.1-4.1c-2.26,0-4.1,1.84-4.1,4.1v3.3c0,14.83,12.07,26.9,26.9,26.9h31.37
		c10.23,0,18.69-7.68,19.69-17.85l2.42-24.67c0.08-0.81,0.67-1.47,1.46-1.65l10.51-2.31c2.99-0.66,5.47-2.62,6.8-5.38
		C181.95,135.77,181.93,132.61,180.58,129.87z"/>
	
		<linearGradient id="SVGID_00000028318909617932782670000003137378556529755779_" gradientUnits="userSpaceOnUse" x1="29.0075" y1="96.101" x2="144.5401" y2="96.101">
		<stop  offset="0" style="stop-color:#0086AA"/>
		<stop  offset="1" style="stop-color:#3FC7D4"/>
	</linearGradient>
	<path style="fill:url(#SVGID_00000028318909617932782670000003137378556529755779_);" d="M122.22,104.46
		c0.07,0,0.14-0.01,0.17-0.02c12.21-0.32,22.15-10.53,22.15-22.75c0-10.06-6.6-18.87-16.16-21.71c0.19-1.15,0.28-2.31,0.28-3.46
		c0-12.55-10.21-22.76-22.76-22.76c-0.58,0-1.2,0.03-1.9,0.09c-0.16,0.01-0.32,0.03-0.48,0.05l-0.18,0.02
		c-0.39,0.05-0.79,0.1-1.17,0.16c-0.28,0.05-0.55,0.1-0.82,0.15c-0.31,0.06-0.62,0.14-0.92,0.22l-0.17,0.04
		c-0.26,0.06-0.52,0.13-0.77,0.2l-0.2,0.07c-1.74,0.53-3.41,1.28-4.99,2.22c-4.33-5.37-10.69-8.43-17.59-8.43
		c-10.97,0-20.45,7.98-22.4,18.69c-0.36-0.02-0.7-0.03-1.03-0.03c-4.3,0-8.49,1.22-12.08,3.48L41,50.81
		c-0.09,0.06-0.18,0.12-0.27,0.18l-0.26,0.18c-3.97,2.7-6.93,6.49-8.57,10.96l-0.04,0.11c-0.12,0.32-0.23,0.65-0.36,1.06
		c-0.16,0.52-0.3,1.05-0.42,1.58l-0.03,0.14c-0.04,0.15-0.07,0.31-0.1,0.46c-0.03,0.17-0.06,0.35-0.1,0.58
		c-0.04,0.25-0.08,0.5-0.12,0.75c-0.02,0.18-0.05,0.35-0.07,0.53c-0.03,0.29-0.06,0.58-0.08,0.87l-0.03,0.44
		c-0.03,0.44-0.04,0.88-0.04,1.33c0,0.41,0.01,0.83,0.03,1.24c0.01,0.11,0.02,0.23,0.03,0.34l0.01,0.15
		c0.02,0.24,0.04,0.48,0.06,0.72c0.02,0.17,0.04,0.34,0.06,0.51l0.02,0.13c0.02,0.18,0.05,0.35,0.08,0.53
		c0.04,0.25,0.09,0.5,0.13,0.75L31,74.72c0.06,0.29,0.13,0.58,0.2,0.88l0.04,0.16c0.81,3.12,2.31,6.07,4.35,8.58
		c-4.2,4.23-6.59,10.02-6.59,16.02c0,12.55,10.21,22.76,22.76,22.76l0.11,0c3.53,0.07,6.4,2.98,6.4,6.52v29.91
		c0,2.26,1.84,4.1,4.1,4.1s4.1-1.84,4.1-4.1v-29.91c0-8.12-6.61-14.73-14.73-14.73l-0.11,0c-7.96-0.07-14.43-6.58-14.43-14.55
		c0-4.07,1.69-7.93,4.66-10.67c3.46,2.01,7.38,3.07,11.39,3.07c2.26,0,4.1-1.84,4.1-4.1c0-2.26-1.84-4.1-4.1-4.1
		c-3.32,0-6.57-1.16-9.16-3.26c-0.13-0.1-0.24-0.21-0.36-0.32l-0.17-0.15c-0.82-0.74-1.56-1.56-2.19-2.44l-0.1-0.14
		c-0.05-0.06-0.09-0.13-0.14-0.19c-0.19-0.28-0.36-0.57-0.56-0.92c-0.07-0.12-0.14-0.25-0.21-0.38c-0.15-0.28-0.28-0.56-0.41-0.85
		c-0.08-0.18-0.16-0.37-0.23-0.56c-0.11-0.27-0.21-0.54-0.3-0.82c-0.08-0.23-0.14-0.46-0.23-0.79c-0.06-0.22-0.12-0.44-0.17-0.66
		c-0.07-0.3-0.11-0.61-0.16-0.92l-0.04-0.24c-0.02-0.12-0.04-0.24-0.05-0.35c-0.06-0.56-0.09-1.08-0.09-1.58
		c0-0.4,0.02-0.83,0.07-1.33l0.03-0.26c0.05-0.47,0.12-0.89,0.2-1.3l-0.91-0.18l0.94,0.07c0.1-0.46,0.21-0.89,0.34-1.32
		c0.98-3.13,3.02-5.88,5.78-7.74c2.64-1.78,5.79-2.66,8.95-2.45l0.14,0.01c0.86,0.08,1.78,0.25,2.81,0.53
		c0.23,0.06,0.45,0.09,0.63,0.1c2.2,0.7,4.24,1.94,5.89,3.59c0.77,0.78,1.8,1.2,2.9,1.2c1.1,0,2.13-0.43,2.9-1.2
		c0.78-0.77,1.2-1.81,1.2-2.9c0-1.1-0.43-2.13-1.2-2.9c-2.05-2.05-4.42-3.66-7.05-4.8c1.09-7.07,7.15-12.32,14.39-12.32
		c4.45,0,8.66,2.09,11.4,5.63c-2.58,3.23-4.22,7.05-4.76,11.11c-0.14,1.09,0.14,2.16,0.81,3.03c0.67,0.87,1.63,1.43,2.72,1.57
		c2.27,0.3,4.32-1.32,4.61-3.53c0.43-3.23,1.99-6.27,4.34-8.52c0.08-0.05,0.15-0.11,0.23-0.17c2.73-2.53,6.23-3.92,9.86-3.92
		c8.03,0,14.56,6.53,14.56,14.56c0,1.7-0.34,3.45-1.01,5.19c-0.46,1.2-0.33,2.57,0.36,3.65c0.69,1.09,1.86,1.8,3.14,1.9
		c7.63,0.62,13.38,6.82,13.38,14.42c0,8.03-6.53,14.56-14.56,14.56H82.9c-2.26,0-4.1,1.84-4.1,4.1s1.84,4.1,4.1,4.1H122.22z
		 M32.73,62.55L32.73,62.55L32.73,62.55L32.73,62.55z"/>
</g>
</svg>
