<?xml version="1.0" encoding="utf-8"?>
<!-- Generator: Adobe Illustrator 26.3.1, SVG Export Plug-In . SVG Version: 6.00 Build 0)  -->
<svg version="1.1" id="Capa_1" xmlns="http://www.w3.org/2000/svg" xmlns:xlink="http://www.w3.org/1999/xlink" x="0px" y="0px"
	 viewBox="0 0 265.63 228.89" style="enable-background:new 0 0 265.63 228.89;" xml:space="preserve">
<style type="text/css">
	.st0{fill:#059DB5;}
	.st1{fill:url(#SVGID_1_);}
	.st2{fill:url(#SVGID_00000076562714195562357940000005966476978552312231_);}
	.st3{fill:url(#SVGID_00000006689750190225585990000013797309922429621397_);}
	.st4{fill:url(#SVGID_00000061457509735199516980000004842636556049555329_);}
</style>
<g>
	<path class="st0" d="M30.96,201.23h6.16c3.59,0,5.77,2.13,5.77,5.21v0.04c0,3.49-2.71,5.29-6.09,5.29h-2.52v4.52h-3.31V201.23z
		 M36.9,208.82c1.66,0,2.63-0.99,2.63-2.28v-0.04c0-1.48-1.03-2.28-2.69-2.28h-2.56v4.61H36.9z"/>
	<path class="st0" d="M44.3,214.1l1.96-2.35c1.36,1.12,2.78,1.83,4.5,1.83c1.36,0,2.17-0.54,2.17-1.42v-0.04
		c0-0.84-0.52-1.27-3.03-1.91c-3.04-0.78-4.99-1.61-4.99-4.61v-0.04c0-2.73,2.2-4.54,5.27-4.54c2.2,0,4.07,0.69,5.6,1.92l-1.72,2.5
		c-1.33-0.93-2.65-1.49-3.92-1.49c-1.27,0-1.94,0.58-1.94,1.31v0.04c0,0.99,0.65,1.31,3.25,1.98c3.06,0.8,4.78,1.89,4.78,4.52v0.04
		c0,2.99-2.28,4.67-5.53,4.67C48.41,216.51,46.11,215.71,44.3,214.1z"/>
	<path class="st0" d="M59.27,201.23h3.31v15.07h-3.31V201.23z"/>
	<path class="st0" d="M65.68,208.8v-0.04c0-4.28,3.23-7.79,7.86-7.79c2.84,0,4.54,0.95,5.94,2.32l-2.11,2.43
		c-1.16-1.05-2.35-1.7-3.85-1.7c-2.54,0-4.37,2.11-4.37,4.69v0.04c0,2.58,1.79,4.73,4.37,4.73c1.72,0,2.78-0.69,3.96-1.77l2.11,2.13
		c-1.55,1.66-3.27,2.69-6.18,2.69C68.97,216.55,65.68,213.13,65.68,208.8z"/>
	<path class="st0" d="M81.14,208.8v-0.04c0-4.28,3.38-7.79,8.03-7.79c4.65,0,7.99,3.46,7.99,7.75v0.04c0,4.28-3.38,7.79-8.03,7.79
		C84.47,216.55,81.14,213.09,81.14,208.8z M93.69,208.8v-0.04c0-2.58-1.89-4.74-4.56-4.74c-2.67,0-4.52,2.11-4.52,4.69v0.04
		c0,2.58,1.89,4.73,4.56,4.73S93.69,211.39,93.69,208.8z"/>
	<path class="st0" d="M100.1,201.23h6.16c3.59,0,5.77,2.13,5.77,5.21v0.04c0,3.49-2.71,5.29-6.09,5.29h-2.52v4.52h-3.31V201.23z
		 M106.05,208.82c1.66,0,2.63-0.99,2.63-2.28v-0.04c0-1.48-1.03-2.28-2.69-2.28h-2.56v4.61H106.05z"/>
	<path class="st0" d="M114.49,201.23h11.36v2.95h-8.07v3.06h7.1v2.95h-7.1v3.16h8.18v2.95h-11.47V201.23z"/>
	<path class="st0" d="M128.91,201.23h5.88c4.73,0,8.01,3.25,8.01,7.49v0.04c0,4.24-3.27,7.53-8.01,7.53h-5.88V201.23z M134.78,213.3
		c2.71,0,4.54-1.83,4.54-4.5v-0.04c0-2.67-1.83-4.54-4.54-4.54h-2.56v9.08H134.78z"/>
	<path class="st0" d="M149.83,201.12h3.06l6.46,15.17h-3.46l-1.38-3.38h-6.37l-1.38,3.38h-3.38L149.83,201.12z M153.32,209.99
		l-2-4.89l-2,4.89H153.32z"/>
	<path class="st0" d="M160.04,208.8v-0.04c0-4.28,3.34-7.79,7.9-7.79c2.71,0,4.35,0.73,5.92,2.07l-2.09,2.52
		c-1.16-0.97-2.2-1.53-3.94-1.53c-2.41,0-4.33,2.13-4.33,4.69v0.04c0,2.75,1.89,4.78,4.56,4.78c1.21,0,2.28-0.3,3.12-0.9v-2.15
		h-3.34v-2.86h6.54v6.54c-1.55,1.31-3.68,2.39-6.43,2.39C163.27,216.55,160.04,213.26,160.04,208.8z"/>
	<path class="st0" d="M176.92,208.8v-0.04c0-4.28,3.38-7.79,8.03-7.79c4.65,0,7.99,3.46,7.99,7.75v0.04c0,4.28-3.38,7.79-8.03,7.79
		C180.25,216.55,176.92,213.09,176.92,208.8z M189.46,208.8v-0.04c0-2.58-1.89-4.74-4.56-4.74s-4.52,2.11-4.52,4.69v0.04
		c0,2.58,1.89,4.73,4.56,4.73C187.61,213.49,189.46,211.39,189.46,208.8z"/>
	<path class="st0" d="M195.22,208.8v-0.04c0-4.28,3.34-7.79,7.9-7.79c2.71,0,4.35,0.73,5.92,2.07l-2.09,2.52
		c-1.16-0.97-2.2-1.53-3.94-1.53c-2.41,0-4.33,2.13-4.33,4.69v0.04c0,2.75,1.89,4.78,4.56,4.78c1.21,0,2.28-0.3,3.12-0.9v-2.15
		h-3.34v-2.86h6.54v6.54c-1.55,1.31-3.68,2.39-6.43,2.39C198.44,216.55,195.22,213.26,195.22,208.8z"/>
	<path class="st0" d="M212.91,201.23h3.31v15.07h-3.31V201.23z M215.84,196.66l2.82,1.23l-2.93,2.15h-2.5L215.84,196.66z"/>
	<path class="st0" d="M225.16,201.12h3.06l6.46,15.17h-3.46l-1.38-3.38h-6.37l-1.38,3.38h-3.38L225.16,201.12z M228.65,209.99
		l-2-4.89l-2,4.89H228.65z"/>
</g>
<linearGradient id="SVGID_1_" gradientUnits="userSpaceOnUse" x1="7.0041" y1="130.6331" x2="86.9704" y2="130.6331">
	<stop  offset="0" style="stop-color:#0186AB"/>
	<stop  offset="1" style="stop-color:#4EBECE"/>
</linearGradient>
<path class="st1" d="M83.65,167.8h-4.89c1.35-15.17-1.17-24.44-8.58-31.86c-5.66-5.66-9.92-8.71-18.6-10.57l-9.95-9.95
	c-0.96-0.96-4.35-3.95-9.3-3.98c-0.6-4.28-2.1-15.06-3.22-22.92c-1.31-9.22-6.24-14.54-14.65-15.83c-1.88-0.29-3.79,0.28-5.23,1.55
	c-1.47,1.3-2.28,3.17-2.22,5.12l1.5,49.79c0.07,2.33,1.02,4.52,2.67,6.17l32.46,32.46h-7.7c-1.83,0-3.32,1.49-3.32,3.32v14.21
	c0,1.83,1.49,3.32,3.32,3.32c1.83,0,3.32-1.49,3.32-3.32v-10.9h41.09v10.9c0,1.83,1.49,3.32,3.32,3.32c1.83,0,3.32-1.49,3.32-3.32
	v-14.21C86.97,169.28,85.48,167.8,83.65,167.8z M49.98,164.76l-34.12-34.12c-0.45-0.45-0.71-1.05-0.73-1.68l-1.51-49.69
	c5.28,0.87,8.04,4.01,8.91,10.18c1.19,8.37,2.82,20.05,3.32,23.65c-0.79,0.41-1.56,0.89-2.32,1.43c-1.48,1.06-2.42,2.73-2.57,4.57
	c-0.15,1.88,0.52,3.71,1.84,5.03l20.11,20.11c1.29,1.29,3.39,1.29,4.69,0c0.63-0.63,0.97-1.46,0.97-2.34s-0.35-1.72-0.97-2.34
	L27.74,119.7c4.55-3.08,7.71-1.08,9.2,0.42l10.65,10.65c0.47,0.47,1.06,0.78,1.7,0.91c7.65,1.5,10.9,3.65,16.2,8.95
	c6.03,6.03,7.91,13.69,6.62,27.17H50.87C51.09,166.73,50.79,165.58,49.98,164.76z"/>
<linearGradient id="SVGID_00000075160700370502343900000005939566479104173967_" gradientUnits="userSpaceOnUse" x1="178.6579" y1="130.633" x2="258.6242" y2="130.633">
	<stop  offset="0" style="stop-color:#0186AB"/>
	<stop  offset="1" style="stop-color:#4EBECE"/>
</linearGradient>
<path style="fill:url(#SVGID_00000075160700370502343900000005939566479104173967_);" d="M256.4,74.25L256.4,74.25
	c-1.44-1.28-3.35-1.84-5.23-1.55c-8.41,1.29-13.34,6.61-14.65,15.83c-1.12,7.86-2.62,18.64-3.22,22.92
	c-4.95,0.02-8.34,3.02-9.31,3.98l-9.95,9.95c-8.69,1.86-12.94,4.9-18.6,10.57c-7.42,7.41-9.93,16.69-8.58,31.86h-4.89
	c-1.83,0-3.32,1.49-3.32,3.32v14.21c0,1.83,1.49,3.32,3.32,3.32c1.83,0,3.32-1.49,3.32-3.32v-10.9h41.09v10.9
	c0,1.83,1.49,3.32,3.32,3.32s3.32-1.49,3.32-3.32v-14.21c0-1.83-1.49-3.32-3.32-3.32h-7.7l32.46-32.46c1.65-1.65,2.6-3.84,2.67-6.17
	l1.5-49.79C258.68,77.42,257.87,75.55,256.4,74.25z M250.49,128.96c-0.02,0.64-0.28,1.23-0.73,1.68l-34.12,34.12
	c-0.82,0.82-1.11,1.97-0.89,3.03h-21.24c-1.29-13.48,0.59-21.15,6.62-27.17c5.3-5.3,8.54-7.45,16.2-8.95
	c0.65-0.13,1.24-0.44,1.7-0.91l10.65-10.65c1.49-1.49,4.65-3.49,9.2-0.42l-19.87,19.87c-0.63,0.63-0.97,1.46-0.97,2.34
	s0.35,1.72,0.97,2.34c1.29,1.29,3.39,1.29,4.69,0l20.11-20.11c1.32-1.32,1.99-3.16,1.84-5.03c-0.15-1.84-1.09-3.51-2.57-4.57
	c-0.75-0.54-1.53-1.02-2.32-1.43c0.5-3.6,2.13-15.28,3.32-23.65c0.88-6.17,3.63-9.31,8.9-10.18L250.49,128.96L250.49,128.96z"/>
<g>
	
		<linearGradient id="SVGID_00000178917605234223580560000005693532078401303478_" gradientUnits="userSpaceOnUse" x1="120.7878" y1="60.3581" x2="228.344" y2="60.3581">
		<stop  offset="0" style="stop-color:#0186AB"/>
		<stop  offset="1" style="stop-color:#4EBECE"/>
	</linearGradient>
	<path style="fill:url(#SVGID_00000178917605234223580560000005693532078401303478_);" d="M228.02,38.89
		c-1.13-7.42-3.01-13.5-4.7-18.47c-1.33-3.9-4.3-6.97-8.16-8.43c-3.6-1.37-7.63-1.15-11.09,0.58h-5.85
		c-5.25-4.32-11.86-6.69-18.63-6.69h-10.04c-6.78,0-13.38,2.37-18.63,6.69h-5.85c-3.46-1.73-7.49-1.95-11.09-0.58
		c-3.86,1.46-6.83,4.53-8.16,8.43c-1.69,4.97-3.57,11.06-4.7,18.47c-1.25,8.23,1.12,16.65,6.5,23.11l1.43,1.72
		c0.65,0.78,1.73,1.12,2.72,0.85c0.99-0.28,1.73-1.12,1.88-2.14c1.46-9.88,3.47-21.55,6.61-29.68c-0.07,0.84-0.11,1.68-0.11,2.52
		v6.69c0,1.69,0.71,3.26,1.93,4.38c-1.25,1.62-1.93,3.6-1.93,5.66c0,4.57,3.29,8.39,7.75,9.14c2.59,9.25,9.8,16.5,19.02,19.15v2.71
		c-15.08,1.34-26.77,14.01-26.77,29.24c0,1.44,1.18,2.62,2.62,2.62h63.58c1.44,0,2.62-1.18,2.62-2.62
		c0-15.23-11.69-27.9-26.77-29.24v-2.71c9.23-2.65,16.43-9.9,19.02-19.15c4.46-0.75,7.75-4.57,7.75-9.14c0-2.06-0.68-4.03-1.93-5.66
		c1.23-1.12,1.93-2.69,1.93-4.38v-6.69c0-0.84-0.04-1.69-0.11-2.52c3.14,8.12,5.15,19.79,6.61,29.68c0.15,1.02,0.89,1.86,1.89,2.14
		c0.98,0.27,2.07-0.06,2.72-0.85l1.43-1.72C226.9,55.53,229.27,47.11,228.02,38.89z M203.2,17.8h0.36c1.28,1.45,2.01,2.82,2.21,4.16
		C205.02,20.5,204.16,19.11,203.2,17.8z M209.04,16.4c1.43-0.21,2.88-0.05,4.26,0.48c2.39,0.9,4.23,2.81,5.05,5.22
		c1.62,4.76,3.41,10.57,4.48,17.58c0.82,5.42-0.31,11.07-3.13,15.82c-2.53-15.37-5.3-24.94-8.87-30.75
		C211.41,21.92,210.81,19.12,209.04,16.4z M202.29,53.66V48.9c0.9,0.76,1.45,1.88,1.45,3.09c0,1.24-0.57,2.38-1.5,3.13
		C202.27,54.62,202.29,54.14,202.29,53.66z M146.89,55.13c-0.93-0.75-1.5-1.89-1.5-3.13c0-1.21,0.55-2.34,1.45-3.09v4.77
		C146.85,54.14,146.86,54.62,146.89,55.13z M174.57,76.14c-12.39,0-22.48-10.08-22.48-22.48v-5.75h16.99
		c5.36,0,10.34-2.66,13.32-7.13l0.54-0.81l0.54,0.81c2.98,4.46,7.95,7.13,13.32,7.13h0.26v5.75
		C197.04,66.06,186.96,76.14,174.57,76.14z M187.83,37.88l-2.28-3.42v-9.25c0-1.44-1.17-2.62-2.62-2.62s-2.62,1.18-2.62,2.62v9.25
		l-2.28,3.42c-2,3-5.35,4.79-8.96,4.79h-22.95c-0.4,0-0.73-0.33-0.73-0.73v-6.69c0-13.32,10.83-24.15,24.15-24.15h10.04
		c13.32,0,24.15,10.83,24.15,24.15v6.69c0,0.4-0.33,0.73-0.73,0.73h-6.22C193.18,42.68,189.83,40.89,187.83,37.88z M176.97,84.54
		c-0.9,1.05-1.77,1.64-2.4,1.64s-1.5-0.6-2.4-1.64v-3.28c1.72,0.16,3.08,0.16,4.8,0V84.54z M168.35,88.12
		c1.94,2.19,4.03,3.3,6.22,3.3c2.18,0,4.27-1.11,6.21-3.29c5.1,0.26,19.54,2.69,23.36,21.47c-9.54-0.08-21.41-0.05-32.9-0.01
		c-8.79,0.03-17.87,0.05-25.67,0.03C147.73,92.44,162.6,88.29,168.35,88.12z M138.3,24.75c-3.57,5.81-6.34,15.38-8.87,30.75
		c-2.82-4.75-3.95-10.4-3.13-15.82c1.07-7.01,2.86-12.82,4.48-17.58c0.82-2.41,2.66-4.32,5.05-5.22c0.98-0.37,2.02-0.56,3.05-0.56
		c0.4,0,0.8,0.03,1.2,0.08C138.32,19.13,137.72,21.92,138.3,24.75z M143.36,21.96c0.2-1.34,0.93-2.72,2.21-4.16h0.36
		C144.97,19.11,144.11,20.5,143.36,21.96z"/>
	
		<linearGradient id="SVGID_00000109719203326362430740000014450171210977524641_" gradientUnits="userSpaceOnUse" x1="50.237" y1="60.3577" x2="119.0626" y2="60.3577">
		<stop  offset="0" style="stop-color:#0186AB"/>
		<stop  offset="1" style="stop-color:#4EBECE"/>
	</linearGradient>
	<path style="fill:url(#SVGID_00000109719203326362430740000014450171210977524641_);" d="M111.31,61.13
		c4.46-0.75,7.75-4.57,7.75-9.14c0-4.14-2.77-7.79-6.69-8.94v-4.95c0-8.22,1.55-16.26,4.6-23.88l1.91-4.77
		c0.35-0.88,0.2-1.88-0.39-2.62c-0.6-0.75-1.55-1.1-2.48-0.94c-8.69,1.47-15.66,4.39-21.28,8.91c-1.12,0.91-1.3,2.56-0.4,3.68
		c0.9,1.12,2.55,1.3,3.69,0.4c3.98-3.2,8.52-5.39,14.19-6.84l-0.09,0.22c-3.3,8.25-4.97,16.94-4.97,25.83v4.57h-0.73
		c-2.25,0-4.07-1.83-4.07-4.07v-3.35c0-0.94-0.51-1.82-1.33-2.28c-0.82-0.46-1.83-0.45-2.64,0.03c-5.11,3.06-8.47,6.13-10.25,9.35
		c-0.83-0.34-1.53-0.95-1.98-1.74c-0.35-0.61-0.91-1.04-1.59-1.23c-0.67-0.18-1.38-0.09-1.99,0.26c-0.61,0.35-1.04,0.91-1.22,1.59
		c-0.18,0.68-0.09,1.38,0.26,1.99c1.66,2.89,4.76,4.68,8.08,4.68c1.13,0,2.13-0.72,2.48-1.79c0.64-1.92,2.34-3.94,5.05-6.03
		c0.72,4.43,4.57,7.82,9.19,7.82h0.73v5.75c0,12.39-10.08,22.48-22.48,22.48S62.17,66.06,62.17,53.67v-5.75h0.82
		c5.79,0,11.33-2.21,15.58-6.21c1.47-1.38,3.41-2.8,5.75-4.2c0.6-0.36,1.02-0.93,1.19-1.61c0.17-0.68,0.06-1.38-0.29-1.98
		c-0.36-0.6-0.93-1.03-1.61-1.2c-0.68-0.17-1.38-0.07-1.99,0.3c-2.67,1.6-4.91,3.24-6.64,4.88c-3.28,3.09-7.55,4.79-12,4.79h-1.04
		c-0.75-10.55,1.36-18.81,6.27-24.57c1.41-1.65,3.31-2.81,5.44-3.34v3.76c0,1.04,0.61,1.98,1.57,2.4c0.95,0.42,2.06,0.23,2.83-0.47
		c6.1-5.59,12.2-8.18,18.09-7.69c1.46,0.11,2.71-0.94,2.82-2.39c0.06-0.7-0.16-1.38-0.61-1.91c-0.45-0.53-1.09-0.86-1.78-0.92
		c-5.92-0.5-11.85,1.35-17.68,5.48v-1.2c0-1.44-1.17-2.62-2.62-2.62c-4.68,0-9.07,2-12.05,5.49c-5.82,6.82-8.33,16.38-7.47,28.41
		c-3.83,1.21-6.53,4.82-6.53,8.88c0,4.57,3.29,8.39,7.75,9.14c2.59,9.25,9.8,16.5,19.02,19.15v2.71
		C61.93,84.33,50.24,97,50.24,112.23c0,1.44,1.18,2.62,2.62,2.62h63.58c1.44,0,2.62-1.18,2.62-2.62c0-15.23-11.69-27.9-26.77-29.24
		v-2.71C101.52,77.63,108.72,70.38,111.31,61.13z M103.06,99.57c-1.44,0-2.62,1.18-2.62,2.62v7.42H68.87v-7.42
		c0-1.44-1.18-2.62-2.62-2.62s-2.62,1.18-2.62,2.62v7.42h-8c1.27-11.81,10.88-20.9,22.82-21.48c1.94,2.18,4.03,3.29,6.21,3.29
		c2.18,0,4.27-1.11,6.21-3.29c11.95,0.58,21.55,9.67,22.82,21.48h-8v-7.42C105.68,100.75,104.5,99.57,103.06,99.57z M82.25,84.54
		v-3.27c1.72,0.16,3.08,0.16,4.8,0v3.27c-0.9,1.05-1.77,1.65-2.4,1.65C84.02,86.18,83.15,85.59,82.25,84.54z M112.37,48.88
		c0.9,0.76,1.45,1.89,1.45,3.12c0,1.22-0.55,2.36-1.45,3.12V48.88z M56.93,48.88v6.23c-0.9-0.76-1.45-1.89-1.45-3.12
		C55.48,50.77,56.03,49.64,56.93,48.88z"/>
</g>
</svg>
