<?xml version="1.0" encoding="utf-8"?>
<!-- Generator: Adobe Illustrator 26.3.1, SVG Export Plug-In . SVG Version: 6.00 Build 0)  -->
<svg version="1.1" id="Capa_1" xmlns="http://www.w3.org/2000/svg" xmlns:xlink="http://www.w3.org/1999/xlink" x="0px" y="0px"
	 viewBox="0 0 292.04 234.08" style="enable-background:new 0 0 292.04 234.08;" xml:space="preserve">
<style type="text/css">
	.st0{fill:#009DB5;}
	.st1{fill:url(#SVGID_1_);}
	.st2{fill:url(#SVGID_00000031896096785995445800000004536988707138277045_);}
	.st3{fill:url(#SVGID_00000041977114956374310560000016522077690039153543_);}
	.st4{fill:url(#SVGID_00000018217370185227174750000011849247707305237433_);}
	.st5{fill:url(#SVGID_00000018198270037502811670000007494939809840970173_);}
</style>
<g>
	<path class="st0" d="M14.56,209.35H9.99v-3.05h12.45v3.05h-4.57v11.98h-3.31V209.35z"/>
	<path class="st0" d="M24.98,206.3h11.34v2.94h-8.05v3.05h7.09v2.94h-7.09v3.16h8.16v2.94H24.98V206.3z"/>
	<path class="st0" d="M39.37,206.3h6.87c1.91,0,3.39,0.54,4.38,1.52c0.84,0.84,1.29,2.02,1.29,3.44v0.04c0,2.43-1.31,3.95-3.22,4.66
		l3.67,5.37h-3.86l-3.22-4.81h-2.6v4.81h-3.31V206.3z M46.02,213.6c1.61,0,2.53-0.86,2.53-2.13v-0.04c0-1.42-0.99-2.15-2.6-2.15
		h-3.29v4.32H46.02z"/>
	<path class="st0" d="M60.05,206.19h3.05l6.44,15.14h-3.46l-1.37-3.37h-6.36l-1.37,3.37h-3.37L60.05,206.19z M63.52,215.04l-2-4.87
		l-2,4.87H63.52z"/>
	<path class="st0" d="M71.86,206.3H78c3.59,0,5.75,2.13,5.75,5.2v0.04c0,3.48-2.7,5.28-6.08,5.28h-2.51v4.51h-3.31V206.3z
		 M77.78,213.88c1.65,0,2.62-0.99,2.62-2.28v-0.04c0-1.48-1.03-2.28-2.68-2.28h-2.56v4.59H77.78z"/>
	<path class="st0" d="M86.35,206.3h3.31v15.03h-3.31V206.3z"/>
	<path class="st0" d="M98.57,206.19h3.05l6.44,15.14h-3.46l-1.37-3.37h-6.36l-1.37,3.37h-3.37L98.57,206.19z M102.05,215.04l-2-4.87
		l-2,4.87H102.05z"/>
	<path class="st0" d="M116.16,213.86v-0.04c0-4.27,3.37-7.77,8.01-7.77c4.64,0,7.97,3.46,7.97,7.73v0.04c0,4.27-3.37,7.77-8.01,7.77
		C119.49,221.58,116.16,218.13,116.16,213.86z M128.68,213.86v-0.04c0-2.58-1.89-4.72-4.55-4.72s-4.51,2.1-4.51,4.68v0.04
		c0,2.58,1.89,4.72,4.55,4.72S128.68,216.43,128.68,213.86z"/>
	<path class="st0" d="M134.41,213.86v-0.04c0-4.27,3.22-7.77,7.84-7.77c2.83,0,4.53,0.94,5.93,2.32l-2.1,2.43
		c-1.16-1.05-2.34-1.7-3.84-1.7c-2.53,0-4.36,2.1-4.36,4.68v0.04c0,2.58,1.78,4.72,4.36,4.72c1.72,0,2.77-0.69,3.95-1.76l2.1,2.13
		c-1.55,1.65-3.26,2.68-6.16,2.68C137.7,221.58,134.41,218.17,134.41,213.86z"/>
	<path class="st0" d="M150.69,214.89v-8.59H154v8.5c0,2.45,1.22,3.71,3.24,3.71c2.02,0,3.24-1.22,3.24-3.61v-8.61h3.31v8.48
		c0,4.55-2.55,6.78-6.59,6.78C153.16,221.56,150.69,219.31,150.69,214.89z"/>
	<path class="st0" d="M167.16,206.3h6.14c3.59,0,5.75,2.13,5.75,5.2v0.04c0,3.48-2.71,5.28-6.08,5.28h-2.51v4.51h-3.31V206.3z
		 M173.09,213.88c1.65,0,2.62-0.99,2.62-2.28v-0.04c0-1.48-1.03-2.28-2.68-2.28h-2.55v4.59H173.09z"/>
	<path class="st0" d="M185.16,206.19h3.05l6.44,15.14h-3.46l-1.37-3.37h-6.36l-1.37,3.37h-3.37L185.16,206.19z M188.64,215.04
		l-2-4.87l-2,4.87H188.64z"/>
	<path class="st0" d="M195.34,213.86v-0.04c0-4.27,3.22-7.77,7.84-7.77c2.83,0,4.53,0.94,5.92,2.32l-2.1,2.43
		c-1.16-1.05-2.34-1.7-3.84-1.7c-2.53,0-4.36,2.1-4.36,4.68v0.04c0,2.58,1.78,4.72,4.36,4.72c1.72,0,2.77-0.69,3.95-1.76l2.1,2.13
		c-1.55,1.65-3.26,2.68-6.16,2.68C198.62,221.58,195.34,218.17,195.34,213.86z"/>
	<path class="st0" d="M212,206.3h3.31v15.03H212V206.3z"/>
	<path class="st0" d="M218.4,213.86v-0.04c0-4.27,3.37-7.77,8.01-7.77s7.97,3.46,7.97,7.73v0.04c0,4.27-3.37,7.77-8.01,7.77
		C221.73,221.58,218.4,218.13,218.4,213.86z M230.92,213.86v-0.04c0-2.58-1.89-4.72-4.55-4.72c-2.66,0-4.51,2.1-4.51,4.68v0.04
		c0,2.58,1.89,4.72,4.55,4.72C229.07,218.54,230.92,216.43,230.92,213.86z"/>
	<path class="st0" d="M237.32,206.3h3.05l7.04,9.25v-9.25h3.26v15.03h-2.81l-7.28-9.55v9.55h-3.26V206.3z"/>
	<path class="st0" d="M259.44,206.19h3.05l6.44,15.14h-3.46l-1.37-3.37h-6.36l-1.37,3.37H253L259.44,206.19z M262.92,215.04l-2-4.87
		l-2,4.87H262.92z"/>
	<path class="st0" d="M271.25,206.3h3.31v12.02h7.49v3.01h-10.8V206.3z"/>
</g>
<g>
	<linearGradient id="SVGID_1_" gradientUnits="userSpaceOnUse" x1="49.0737" y1="117.8641" x2="149.4712" y2="117.8641">
		<stop  offset="0" style="stop-color:#0086AA"/>
		<stop  offset="1" style="stop-color:#3FC7D4"/>
	</linearGradient>
	<path class="st1" d="M86.77,116.29L86.68,62.6c0-4.99,4.06-9.05,9.05-9.05c2.44,0,4.81,1.02,6.51,2.79l15.89,21.75
		c0.05,0.06,0.1,0.12,0.11,0.13c0.12,0.14,0.24,0.27,0.37,0.39c0.07,0.06,0.14,0.12,0.22,0.18c0.13,0.1,0.27,0.19,0.45,0.29
		c0.07,0.04,0.13,0.08,0.19,0.1c0.17,0.08,0.34,0.14,0.52,0.19l0.19,0.05c0.26,0.06,0.51,0.09,0.75,0.09h25.07
		c1.91,0,3.47-1.55,3.47-3.47c0-1.91-1.55-3.47-3.47-3.47H122.7l-13.38-18.32c-0.09-0.21-0.19-0.39-0.3-0.56
		c-2.98-4.44-7.94-7.09-13.28-7.09c-8.81,0-15.99,7.17-15.99,15.99l0.09,53.26L49.43,177.4c-0.85,1.71-0.14,3.8,1.57,4.64
		c0.48,0.24,1,0.36,1.53,0.36c1.33,0,2.52-0.74,3.11-1.93l26.38-53.41l4.65,21.26c-0.64,0.25-1.2,0.7-1.59,1.29l-22.67,33.95
		c-1.06,1.59-0.63,3.75,0.96,4.81c0.57,0.38,1.24,0.58,1.92,0.58c1.16,0,2.24-0.58,2.89-1.54l20.37-30.51L95,186.39
		c0.35,1.58,1.77,2.73,3.38,2.73c0.25,0,0.5-0.03,0.74-0.08c1.86-0.41,3.05-2.26,2.64-4.13L86.77,116.29z"/>
	
		<linearGradient id="SVGID_00000013183871715811593240000002634335599745488546_" gradientUnits="userSpaceOnUse" x1="154.0943" y1="56.498" x2="188.8477" y2="56.498">
		<stop  offset="0" style="stop-color:#0086AA"/>
		<stop  offset="1" style="stop-color:#3FC7D4"/>
	</linearGradient>
	<path style="fill:url(#SVGID_00000013183871715811593240000002634335599745488546_);" d="M171.47,73.87
		c9.58,0,17.38-7.8,17.38-17.38s-7.79-17.38-17.38-17.38c-9.58,0-17.38,7.8-17.38,17.38S161.89,73.87,171.47,73.87z M161.03,56.5
		c0-5.76,4.69-10.44,10.45-10.44c5.76,0,10.44,4.69,10.44,10.44s-4.68,10.44-10.44,10.44C165.71,66.94,161.03,62.26,161.03,56.5z"/>
	
		<linearGradient id="SVGID_00000100367406799027926220000012812661442468213929_" gradientUnits="userSpaceOnUse" x1="78.3579" y1="23.8979" x2="113.1113" y2="23.8979">
		<stop  offset="0" style="stop-color:#0086AA"/>
		<stop  offset="1" style="stop-color:#3FC7D4"/>
	</linearGradient>
	<path style="fill:url(#SVGID_00000100367406799027926220000012812661442468213929_);" d="M95.73,41.27
		c9.58,0,17.38-7.8,17.38-17.38s-7.8-17.38-17.38-17.38s-17.38,7.8-17.38,17.38S86.15,41.27,95.73,41.27z M85.29,23.9
		c0-5.76,4.69-10.44,10.44-10.44c5.76,0,10.45,4.69,10.45,10.44s-4.69,10.44-10.45,10.44C89.98,34.34,85.29,29.66,85.29,23.9z"/>
	
		<linearGradient id="SVGID_00000003094638266019420560000017368165920205810050_" gradientUnits="userSpaceOnUse" x1="91.2103" y1="130.4922" x2="149.4712" y2="130.4922">
		<stop  offset="0" style="stop-color:#0086AA"/>
		<stop  offset="1" style="stop-color:#3FC7D4"/>
	</linearGradient>
	<path style="fill:url(#SVGID_00000003094638266019420560000017368165920205810050_);" d="M149.47,91.38c0-1.91-1.55-3.47-3.47-3.47
		h-36.59l-12.1-14.16c-0.6-0.7-1.44-1.13-2.36-1.2c-0.92-0.07-1.82,0.22-2.52,0.82c-0.7,0.6-1.13,1.44-1.2,2.36
		c-0.07,0.92,0.22,1.82,0.82,2.52l13.14,15.37c0.66,0.77,1.62,1.21,2.64,1.21h1.64v90.14c0,1.91,1.55,3.47,3.47,3.47
		c1.91,0,3.47-1.55,3.47-3.47V94.84h29.62C147.92,94.84,149.47,93.29,149.47,91.38z"/>
	
		<linearGradient id="SVGID_00000117675026932931927870000017047865202278952884_" gradientUnits="userSpaceOnUse" x1="126.413" y1="136.2907" x2="255.2696" y2="136.2907">
		<stop  offset="0" style="stop-color:#0086AA"/>
		<stop  offset="1" style="stop-color:#3FC7D4"/>
	</linearGradient>
	<path style="fill:url(#SVGID_00000117675026932931927870000017047865202278952884_);" d="M243.54,157.77l-15.65-30.67
		c-2.04-4.01-6.11-6.49-10.6-6.49h-27.02c-1.91,0-3.47,1.55-3.47,3.47c0,1.91,1.55,3.47,3.47,3.47h27.02c1.88,0,3.57,1.04,4.43,2.71
		l13.42,26.31c-3.78,0.34-7.35,1.83-10.26,4.3l-8.48-14.37c0.08-1.16,0.12-2.15,0.12-3.1c0-1.91-1.55-3.47-3.47-3.47
		c-1.83,0-3.33,1.42-3.46,3.22h-33.73c-2.27,0-4.23-1.62-4.65-3.85l-6.42-33.45c2.19-0.39,4.43-0.58,6.66-0.58
		c1.91,0,3.47-1.55,3.47-3.47c0-1.91-1.55-3.47-3.47-3.47c-2.67,0-5.34,0.24-7.97,0.71l-0.42-2.18c-0.48-2.51,0.13-5.12,1.66-7.16
		c1.56-2.07,3.85-3.34,6.46-3.57c4.55-0.42,8.85,3.1,9.79,8.02l2.93,15.26c0.34,1.75,1.99,2.97,3.74,2.79h35.25
		c1.91,0,3.47-1.55,3.47-3.47c0-1.91-1.55-3.47-3.47-3.47h-32.73l-2.38-12.43c-1.6-8.35-9.17-14.34-17.22-13.62
		c-4.52,0.41-8.66,2.7-11.38,6.3c-2.71,3.6-3.78,8.21-2.94,12.64l0.51,2.63c-18.2,6.28-30.37,23.29-30.37,42.59
		c0,24.84,20.21,45.06,45.06,45.06c19.77,0,37.15-12.88,43-31.59l5.81,9.84c-1.28,2.55-1.95,5.39-1.95,8.25
		c0,10.18,8.29,18.47,18.47,18.47c10.18,0,18.47-8.29,18.47-18.47C255.27,167.39,250.57,160.54,243.54,157.77z M248.34,174.95
		c0,6.36-5.18,11.54-11.54,11.54c-6.36,0-11.54-5.18-11.54-11.54c0-6.36,5.18-11.54,11.54-11.54
		C243.16,163.41,248.34,168.58,248.34,174.95z M209.01,150.07c-3.2,18-19.15,31.44-37.54,31.44c-21.02,0-38.13-17.1-38.13-38.13
		c0-15.92,9.91-30.12,24.76-35.7l6.31,32.91c1.05,5.49,5.87,9.47,11.46,9.47H209.01z"/>
</g>
</svg>
