<svg width="64" height="54" viewBox="0 0 64 54" fill="none" xmlns="http://www.w3.org/2000/svg">
<path d="M22.5229 0.300781H41.6099C44.7946 0.300781 47.3852 2.89202 47.3852 6.07667V10.2135H56.0991C59.9045 10.2135 63 13.3095 63 17.115V46.0959C63 49.9013 59.9045 52.9974 56.0991 52.9974H8.03276C4.22741 52.9974 1.1319 49.9014 1.1319 46.0959L1.13251 17.115C1.13251 13.3096 4.22803 10.2135 8.03338 10.2135H16.7473V6.07667C16.7473 2.89202 19.3379 0.300781 22.5226 0.300781H22.5229ZM45.4127 6.07667C45.4127 3.97974 43.7073 2.27434 41.611 2.27434H22.524C20.4277 2.27434 18.7223 3.97974 18.7223 6.07667V10.2135H21.6828V6.22098C21.6828 5.67586 22.1244 5.23417 22.6696 5.23417L41.4648 5.23479C42.0099 5.23479 42.4516 5.67648 42.4516 6.2216V10.2141H45.412L45.4127 6.07667ZM23.6552 7.20843V10.214L40.4792 10.2134V7.20781L23.6552 7.20843ZM8.03419 12.1871C5.3172 12.1871 3.10703 14.3974 3.10703 17.1149V46.0959C3.10703 48.8135 5.31736 51.0237 8.03419 51.0237L56.099 51.0243C58.816 51.0243 61.0261 48.814 61.0261 46.0965L61.0267 17.1155C61.0267 14.3979 58.8164 12.1877 56.0996 12.1877L8.03419 12.1871Z" fill="#209CD4" stroke="#209CD4" stroke-width="0.6"/>
<path d="M42.0096 35.5393H36.0007V41.5482C36.0007 42.0933 35.5591 42.535 35.0139 42.535H29.1185C28.5733 42.535 28.1317 42.0933 28.1317 41.5482V35.5393H22.1228C21.5777 35.5393 21.136 35.0976 21.136 34.5525V28.657C21.136 28.1119 21.5777 27.6702 22.1228 27.6702H28.1317V21.6614C28.1317 21.1162 28.5733 20.6746 29.1185 20.6746H35.0139C35.5591 20.6746 36.0007 21.1162 36.0007 21.6614V27.6702L42.0096 27.6708C42.5547 27.6708 42.9964 28.1125 42.9964 28.6576V34.5531C42.9964 35.0976 42.5547 35.5393 42.0096 35.5393V35.5393ZM41.0228 29.6438H35.0139C34.4688 29.6438 34.0271 29.2022 34.0271 28.657V22.6482H30.1054V28.657C30.1054 29.2022 29.6637 29.6438 29.1186 29.6438H23.1097V33.5656H29.1186C29.6637 33.5656 30.1054 34.0073 30.1054 34.5524V40.5612H34.0271V34.5524C34.0271 34.0073 34.4688 33.5656 35.0139 33.5656L41.0228 33.5662V29.6438Z" fill="#209CD4" stroke="#209CD4" stroke-width="0.6"/>
</svg>
