<svg width="49" height="49" viewBox="0 0 49 49" fill="none" xmlns="http://www.w3.org/2000/svg">
<path d="M14.2039 23.1759C17.2661 28.5367 20.8652 32.3379 26.482 35.2032C26.9691 34.774 27.2292 34.4205 27.6322 33.909C29.2254 31.8541 31.2098 29.3874 34.4598 30.8741C36.5801 31.925 40.7475 34.1341 42.5099 35.4139C43.1808 35.8757 43.6659 36.4581 43.9926 37.1201C44.686 38.5293 44.596 40.1453 44.1559 41.6082C43.929 42.3611 43.5984 43.1074 43.2062 43.7837C41.7343 46.3166 39.2902 47.6376 36.4706 48.3551C33.0426 49.224 29.9452 49.2479 26.5378 48.2191C23.9665 47.4403 21.5772 46.1815 19.2955 44.802L19.0011 44.6238C17.894 43.9485 16.7047 43.2223 15.4871 42.3353L15.4783 42.3276C13.132 40.5975 10.7701 38.4689 8.6282 36.0874C6.64476 33.8822 4.83737 31.4451 3.39479 28.8902C2.0725 26.548 1.05926 24.0879 0.494945 21.5972C-0.308013 18.0498 -0.248354 13.966 1.53361 10.6936C3.61973 6.86367 7.40566 5.29835 11.6444 5.66429L11.7491 5.67674C12.4816 5.76679 13.1476 6.20458 13.5085 6.83684L18.3312 14.8215C18.8026 15.4461 19.0764 16.0889 19.1684 16.7489C19.5195 19.2847 17.3972 20.8442 15.581 22.148C14.9619 22.5887 14.2704 23.0801 14.2039 23.1759V23.1759ZM23.2868 18.1753C22.5631 17.9924 22.1279 17.2672 22.3147 16.5583C22.5015 15.8484 23.2418 15.4221 23.9656 15.6061C28.2787 16.7077 32.1986 20.1861 33.5385 24.3763C33.7605 25.0765 33.3624 25.8228 32.6465 26.0402C31.9316 26.2587 31.1697 25.8678 30.9477 25.1666C29.8895 21.8578 26.6884 19.0423 23.2868 18.1753V18.1753ZM23.4668 10.0374C22.7284 9.91479 22.2315 9.22697 22.3567 8.5037C22.4819 7.78044 23.1841 7.29283 23.9225 7.41641C32.27 8.83229 39.6482 15.7105 41.7284 23.722C41.9133 24.4337 41.4732 25.1589 40.7465 25.34C40.0189 25.521 39.2785 25.0899 39.0946 24.3772C37.2726 17.3591 30.7834 11.2799 23.4668 10.0374V10.0374ZM24.3392 2.65053C23.5949 2.56718 23.0599 1.90715 23.145 1.17813C23.2301 0.450077 23.903 -0.0748883 24.6473 0.0084548C36.2554 1.33907 46.4308 10.4407 48.9678 21.5943C49.1292 22.3099 48.6675 23.0179 47.9379 23.1759C47.2083 23.334 46.4846 22.8818 46.3242 22.1672C44.0356 12.1104 34.807 3.8499 24.3392 2.65053ZM11.6933 24.428C11.6474 24.3542 11.6073 24.2766 11.574 24.1942C10.7574 22.1653 12.4327 20.9736 13.9281 19.9121C14.647 19.4044 15.8988 18.5748 16.2705 17.7328C16.4886 17.2432 16.3829 16.8783 16.067 16.4615L15.9399 16.2843L11.1799 8.40216C8.14505 8.19428 5.52101 9.22889 4.01583 11.9897C2.56444 14.6539 2.58987 18.1284 3.24026 21.0023C3.73905 23.2066 4.65839 25.4214 5.86625 27.5615C8.55876 32.3322 12.7388 36.849 17.1751 40.1262C18.2549 40.9146 19.4119 41.6225 20.4897 42.2797L20.7899 42.4636C24.6776 44.8298 28.8743 46.7831 33.6245 46.0962C34.3502 45.9918 35.0779 45.8596 35.7635 45.6862C38.4746 44.9955 40.5881 43.7099 41.4536 40.8303C41.7617 39.8053 41.9094 38.3913 40.9069 37.6815C38.7142 36.279 35.5816 34.5719 33.2441 33.3601C32.0382 32.8341 30.847 34.3132 29.8748 35.5672C29.1745 36.4639 28.4215 37.4879 27.3045 37.898C26.7569 38.0991 26.1896 38.0934 25.6497 37.8759L25.4678 37.8002C19.1713 34.6552 15.0978 30.4172 11.6933 24.428Z" fill="#1896D3"/>
</svg>
