<svg width="50" height="56" viewBox="0 0 50 56" fill="none" xmlns="http://www.w3.org/2000/svg">
<path fill-rule="evenodd" clip-rule="evenodd" d="M37.4806 53.7819H19.2647V45.8881C19.2647 45.4136 18.8822 45.0287 18.4103 45.0283H12.5142C11.4508 45.0267 10.4311 44.6014 9.6792 43.8455C8.92726 43.0896 8.50414 42.0645 8.50262 40.9954V33.6042C8.50183 33.2986 8.33977 33.0168 8.07717 32.863L3.00717 29.869L8.3906 20.1704C8.44777 20.0682 8.48286 19.9552 8.49469 19.8387C9.5463 9.42205 18.6848 1.85999 29.753 2.23951C39.7766 2.58477 45.5988 9.89899 46.9222 16.9932C48.3331 24.5537 45.4542 29.3237 42.4074 34.3732C39.234 39.633 35.9566 45.0669 37.4841 53.7827L37.4806 53.7819ZM48.6044 16.6758C47.1546 8.90766 40.7818 0.90021 29.8121 0.520686C24.2429 0.284833 18.7751 2.07217 14.4094 5.55648C12.2932 7.26058 10.5326 9.36816 9.22908 11.7584C7.92592 14.1487 7.10537 16.7745 6.81476 19.4846L1.10923 29.7622C0.881714 30.1705 1.0209 30.6866 1.42191 30.9232L6.79151 34.0956V40.9944C6.79348 42.5197 7.39676 43.982 8.46966 45.0601C9.54257 46.1387 10.9971 46.7456 12.514 46.7472H17.5551V54.6418C17.5559 55.1163 17.9388 55.5 18.4108 55.5H38.5184C38.7766 55.5 39.0207 55.3831 39.1832 55.1813C39.3456 54.9795 39.4083 54.7147 39.3543 54.461C37.5137 45.7962 40.6014 40.6795 43.8698 35.2636C46.9501 30.1596 50.1345 24.8825 48.6035 16.6751L48.6044 16.6758ZM34.84 22.6594V18.3142H30.6679C30.4412 18.3142 30.2235 18.2238 30.0634 18.0625C29.9029 17.9011 29.813 17.6827 29.8134 17.4544V13.2609H25.4911V17.4544C25.4911 17.6827 25.4008 17.9011 25.2407 18.0625C25.0802 18.2238 24.8626 18.3142 24.6359 18.3142H20.4637V22.6594H24.6359C25.1078 22.6598 25.4903 23.0447 25.4903 23.5192V27.7126H29.8126V23.5192C29.8126 23.2913 29.9025 23.0725 30.0626 22.9111C30.2231 22.7502 30.4404 22.6594 30.6671 22.6594H34.84ZM31.5224 16.5953V12.4019C31.5228 12.174 31.4329 11.9552 31.2724 11.7938C31.1123 11.6325 30.8946 11.5421 30.6679 11.5421H24.6358C24.4091 11.5417 24.1914 11.6325 24.031 11.7938C23.8705 11.9548 23.7806 12.1736 23.7806 12.4019V16.5953H19.6097C19.3829 16.5953 19.1657 16.6857 19.0052 16.8467C18.8447 17.008 18.7544 17.2264 18.7544 17.4543V23.5192C18.7544 23.7471 18.8447 23.9656 19.0052 24.1269C19.1657 24.2878 19.3829 24.3786 19.6097 24.3782H23.781V28.5725C23.781 28.8004 23.8713 29.0188 24.0318 29.1801C24.1918 29.3411 24.4091 29.4314 24.6358 29.4314H30.6671C30.8938 29.4318 31.1115 29.3415 31.2716 29.1801C31.432 29.0192 31.522 28.8004 31.522 28.5725V24.3782H35.698C36.1688 24.3766 36.5493 23.9925 36.5493 23.5192V17.4544C36.5493 16.9814 36.1688 16.597 35.698 16.5954L31.5224 16.5953ZM27.6519 32.5313C30.8295 32.5313 33.8771 31.2624 36.1239 29.0038C38.3711 26.7451 39.6332 23.6814 39.6332 20.4868C39.6332 17.2926 38.3711 14.2289 36.1239 11.9702C33.8771 9.71115 30.8296 8.44228 27.6519 8.44269C24.4742 8.44269 21.427 9.71196 19.1802 11.971C16.9335 14.2301 15.6713 17.2938 15.6717 20.488C15.6752 23.6814 16.9386 26.7427 19.1846 29.0006C21.4305 31.2585 24.4757 32.5277 27.6519 32.5313ZM27.6519 6.7257C24.0211 6.7253 20.539 8.1753 17.9713 10.7563C15.404 13.3368 13.9616 16.8374 13.9612 20.4874C13.9612 24.1378 15.4032 27.6384 17.9705 30.2192C20.5379 32.8006 24.02 34.2506 27.6506 34.2506C31.2814 34.251 34.7635 32.801 37.3312 30.2201C39.8985 27.6391 41.3409 24.1389 41.3413 20.4886C41.3373 16.8398 39.8938 13.3416 37.3276 10.7615C34.7611 8.18139 31.2814 6.72976 27.6519 6.7257Z" fill="#1896D3" stroke="#1896D3" stroke-width="0.5"/>
</svg>
