<svg width="102" height="98" viewBox="0 0 102 98" fill="none" xmlns="http://www.w3.org/2000/svg">
<path d="M86.0949 30.1543C95.8723 47.0893 75.7534 72.6943 58.8185 82.4717C41.8836 92.2491 26.0675 85.7313 16.2901 68.7964C6.51274 51.8614 9.03976 35.3619 25.9747 25.5845C42.9097 15.8071 76.3175 13.2194 86.0949 30.1543Z" fill="#F6F7F7"/>
<path d="M55.3906 53.5216C48.879 53.5216 43.582 48.3306 43.582 41.9512H45.414C45.414 47.3214 49.8896 51.6897 55.3906 51.6897C60.8917 51.6897 65.3672 47.321 65.3672 41.9512H67.1991C67.1991 48.331 61.902 53.5216 55.3906 53.5216Z" fill="#326295"/>
<path d="M67.2012 41.9517H65.3692V34.687C65.3692 34.1238 64.8916 33.6659 64.3048 33.6659H61.334V31.834H64.3048C65.9021 31.8343 67.2012 33.1142 67.2012 34.687V41.9517Z" fill="#326295"/>
<path d="M44.5 73.8624C37.9884 73.8624 32.6914 68.6715 32.6914 62.292H34.5233C34.5233 67.6622 38.999 72.0305 44.5 72.0305C50.0011 72.0305 54.4766 67.6618 54.4766 62.292H56.3085C56.3082 68.6718 51.011 73.8624 44.5 73.8624Z" fill="#326295"/>
<path d="M54.4766 53.0898H56.3085V62.2916H54.4766V53.0898Z" fill="#326295"/>
<path d="M32.6914 55.0273H34.5233V62.292H32.6914V55.0273Z" fill="#326295"/>
<path d="M45.414 41.9517H43.582V34.687C43.582 33.1141 44.8812 31.834 46.4784 31.834H49.4492V33.6659L46.4784 33.6663C45.8916 33.6663 45.414 34.1242 45.414 34.6874V41.9517Z" fill="#326295"/>
<path d="M49.7988 35.5159C49.2929 35.5159 48.8828 35.1058 48.8828 34.5999V30.8505C48.8828 30.3446 49.2929 29.9346 49.7988 29.9346C50.3047 29.9346 50.7147 30.3446 50.7147 30.8505V34.5999C50.7147 35.1058 50.3047 35.5159 49.7988 35.5159Z" fill="#326295"/>
<path d="M60.789 35.5155C60.2831 35.5155 59.873 35.1054 59.873 34.5995V30.9267C59.873 30.4208 60.2831 30.0107 60.789 30.0107C61.2949 30.0107 61.705 30.4208 61.705 30.9267V34.5995C61.705 35.1054 61.2949 35.5155 60.789 35.5155Z" fill="#326295"/>
<path d="M33.6072 55.9431C30.9184 55.9431 28.7305 53.7941 28.7305 51.1529C28.7305 48.5112 30.9184 46.3623 33.6072 46.3623C36.2964 46.3623 38.4843 48.5112 38.4843 51.1529C38.4843 53.7941 36.2964 55.9431 33.6072 55.9431ZM33.6072 48.1942C31.9281 48.1942 30.5624 49.5213 30.5624 51.1529C30.5624 52.7845 31.9281 54.1115 33.6072 54.1115C35.2864 54.1115 36.6524 52.7845 36.6524 51.1529C36.6524 49.5213 35.2864 48.1942 33.6072 48.1942Z" fill="#326295"/>
</svg>
