<svg width="64" height="54" viewBox="0 0 64 54" fill="none" xmlns="http://www.w3.org/2000/svg">
<path d="M22.5229 0.800781H41.6099C44.7946 0.800781 47.3852 3.39202 47.3852 6.57667V10.7135H56.0991C59.9045 10.7135 63 13.8095 63 17.615V46.5959C63 50.4013 59.9045 53.4974 56.0991 53.4974H8.03276C4.22741 53.4974 1.1319 50.4014 1.1319 46.5959L1.13251 17.615C1.13251 13.8096 4.22803 10.7135 8.03338 10.7135H16.7473V6.57667C16.7473 3.39202 19.3379 0.800781 22.5226 0.800781H22.5229ZM45.4127 6.57667C45.4127 4.47974 43.7073 2.77434 41.611 2.77434H22.524C20.4277 2.77434 18.7223 4.47974 18.7223 6.57667V10.7135H21.6828V6.72098C21.6828 6.17586 22.1244 5.73417 22.6696 5.73417L41.4648 5.73479C42.0099 5.73479 42.4516 6.17648 42.4516 6.7216V10.7141H45.412L45.4127 6.57667ZM23.6552 7.70843V10.714L40.4792 10.7134V7.70781L23.6552 7.70843ZM8.03419 12.6871C5.3172 12.6871 3.10703 14.8974 3.10703 17.6149V46.5959C3.10703 49.3135 5.31736 51.5237 8.03419 51.5237L56.099 51.5243C58.816 51.5243 61.0261 49.314 61.0261 46.5965L61.0267 17.6155C61.0267 14.8979 58.8164 12.6877 56.0996 12.6877L8.03419 12.6871Z" fill="#1896D3" stroke="#1896D3" stroke-width="0.6"/>
<path d="M42.0096 36.0393H36.0007V42.0482C36.0007 42.5933 35.559 43.035 35.0139 43.035H29.1184C28.5733 43.035 28.1316 42.5933 28.1316 42.0482V36.0393H22.1228C21.5776 36.0393 21.136 35.5976 21.136 35.0525V29.157C21.136 28.6119 21.5776 28.1702 22.1228 28.1702H28.1316V22.1614C28.1316 21.6162 28.5733 21.1746 29.1184 21.1746H35.0139C35.559 21.1746 36.0007 21.6162 36.0007 22.1614V28.1702L42.0096 28.1708C42.5547 28.1708 42.9964 28.6125 42.9964 29.1576V35.0531C42.9964 35.5976 42.5547 36.0393 42.0096 36.0393V36.0393ZM41.0227 30.1438H35.0139C34.4688 30.1438 34.0271 29.7022 34.0271 29.157V23.1482H30.1053V29.157C30.1053 29.7022 29.6637 30.1438 29.1185 30.1438H23.1097V34.0656H29.1185C29.6637 34.0656 30.1053 34.5073 30.1053 35.0524V41.0612H34.0271V35.0524C34.0271 34.5073 34.4688 34.0656 35.0139 34.0656L41.0227 34.0662V30.1438Z" fill="#1896D3" stroke="#1896D3" stroke-width="0.6"/>
</svg>
