<svg width="259" height="49" viewBox="0 0 259 49" fill="none" xmlns="http://www.w3.org/2000/svg">
<path d="M66.4794 0H24.5796L0 24.3824L24.5928 48.7516H66.4926L91.0853 24.3824L66.4794 0ZM60.1142 35.219H30.958L20.0293 24.3824L30.958 13.5458H60.1142L71.0429 24.3824L60.1142 35.219V35.219Z" fill="#007DBA"/>
<path d="M58.2862 16.2549H32.786L24.5928 24.3692L32.786 32.4967H58.2862L66.4794 24.3692L58.2862 16.2549V16.2549Z" fill="#007DBA"/>
<path d="M135.181 13.5457H126.12V35.219H135.181V13.5457Z" fill="#007DBA"/>
<path d="M196.045 25.3029C196.045 27.1047 195.085 27.9332 193.06 27.9332H184.919C182.762 27.9332 181.5 27.3019 181.5 25.3161V13.5457H172.544V28.9458C172.583 32.3257 175.253 35.0743 178.633 35.2058H198.294C201.884 35.2058 205.317 32.4703 205.317 28.8012V13.5457H196.045C196.045 17.9909 196.045 20.9236 196.045 25.3029V25.3029Z" fill="#007DBA"/>
<path d="M216.64 13.5457H207.552V35.219H216.64V13.5457Z" fill="#007DBA"/>
<path d="M111.469 13.5457L104.249 20.7L97.0031 13.5589H84.6804L95.5959 24.4087L84.6804 35.2058H96.5691L104.171 27.6965L111.706 35.2058H123.871L112.956 24.3824L123.871 13.5457H111.483H111.469Z" fill="#007DBA"/>
<path d="M165.021 13.5457H142.244C139.758 13.3879 137.614 15.2686 137.457 17.7673C137.443 17.9777 137.457 18.1881 137.457 18.3985V30.5108C137.483 33.1279 139.626 35.2321 142.244 35.2058C142.257 35.2058 142.27 35.2058 142.283 35.2058H155.092L156.315 38.7172H166.047L163.759 35.2058H166.074C169.046 35.2058 170.295 32.9306 170.295 30.5108V18.3196C170.269 15.3475 168.151 13.5457 165.008 13.5457H165.021ZM161.536 26.2761C161.536 27.3282 161.102 27.8806 160.182 27.8806H159.169L157.972 26.0394H152.094L152.738 27.8674H148.214C147.491 27.9595 146.846 27.4334 146.768 26.7101C146.768 26.6575 146.768 26.6049 146.768 26.5655V22.5938C146.741 21.8442 147.333 21.2129 148.096 21.1866C148.135 21.1866 148.188 21.1866 148.227 21.1866H160.221C160.984 21.2129 161.589 21.8442 161.576 22.6069C161.576 22.6595 161.576 22.699 161.576 22.7516V26.2761H161.536Z" fill="#007DBA"/>
<path d="M238.997 25.9342L232.448 13.5589H218.902V35.2058H228.844V24.8953L234.433 35.2058H244.073L249.215 25.0005V35.2058H259V13.5326L245.796 13.5589L238.984 25.9342H238.997Z" fill="#007DBA"/>
</svg>
