<svg width="384" height="512" viewBox="0 0 384 512" fill="none" xmlns="http://www.w3.org/2000/svg">
<path d="M369.9 97.9004L286 14.0004C277 5.00039 264.8 -0.0996094 252.1 -0.0996094H48C21.5 0.000390626 0 21.5004 0 48.0004V464C0 490.5 21.5 512 48 512H336C362.5 512 384 490.5 384 464V131.9C384 119.2 378.9 106.9 369.9 97.9004ZM347.3 120.6C349.4 122.7 350.8 125.2 351.5 128H256V32.5004C258.8 33.2004 261.3 34.6004 263.4 36.7004L347.3 120.6ZM336 480H48C39.2 480 32 472.8 32 464V48.0004C32 39.2004 39.2 32.0004 48 32.0004H224V136C224 149.3 234.7 160 248 160H352V464C352 472.8 344.8 480 336 480ZM288 236V244C288 250.6 282.6 256 276 256H108C101.4 256 96 250.6 96 244V236C96 229.4 101.4 224 108 224H276C282.6 224 288 229.4 288 236ZM288 300V308C288 314.6 282.6 320 276 320H108C101.4 320 96 314.6 96 308V300C96 293.4 101.4 288 108 288H276C282.6 288 288 293.4 288 300ZM288 364V372C288 378.6 282.6 384 276 384H108C101.4 384 96 378.6 96 372V364C96 357.4 101.4 352 108 352H276C282.6 352 288 357.4 288 364Z" fill="#3BC1CD"/>
</svg>
