<svg width="27" height="22" viewBox="0 0 27 22" fill="none" xmlns="http://www.w3.org/2000/svg">
<path d="M5.25 0.00616455C2.34375 0.00616455 0 2.39679 0 5.25616V15.7093C0 18.5687 2.34375 20.9124 5.25 20.9124C8.10938 20.9124 10.5 18.5687 10.5 15.7093V5.25616C10.5 2.39679 8.10938 0.00616455 5.25 0.00616455ZM9 15.7562C9 17.8655 7.3125 19.5062 5.25 19.5062C3.14062 19.5062 1.5 17.8655 1.5 15.7562V12.0062H9V15.7562ZM9 10.5062H1.5V5.25616C1.5 3.19366 3.14062 1.50616 5.25 1.50616C7.3125 1.50616 9 3.19366 9 5.25616V10.5062ZM19.5 6.00616C15.3281 6.00616 12 9.38116 12 13.5062C12 17.678 15.3281 21.0062 19.5 21.0062C23.625 21.0062 27 17.678 27 13.5062C27 9.38116 23.625 6.00616 19.5 6.00616ZM19.5 19.5062C16.1719 19.5062 13.5 16.8343 13.5 13.5062C13.5 12.1468 13.9688 10.8812 14.7656 9.84991L23.1094 18.2405C22.125 19.0374 20.8594 19.5062 19.5 19.5062ZM24.1875 17.2093L15.7969 8.81866C16.8281 8.02179 18.0938 7.50616 19.5 7.50616C22.7812 7.50616 25.5 10.2249 25.5 13.5062C25.5 14.9124 24.9844 16.178 24.1875 17.2093Z" fill="#FF7D41"/>
</svg>
