<svg width="31" height="25" viewBox="0 0 31 25" fill="none" xmlns="http://www.w3.org/2000/svg">
<path d="M11.8594 3.50616C12.6562 3.50616 13.3594 4.20929 13.3594 5.00616V6.13116H14.4844C15.2812 6.13116 15.9844 6.83429 15.9844 7.63116V9.88116C15.9844 10.7249 15.2812 11.3812 14.4844 11.3812H13.3594V12.5062C13.3594 13.3499 12.6562 14.0062 11.8594 14.0062H9.60938C8.76562 14.0062 8.10938 13.3499 8.10938 12.5062V11.3812H6.98438C6.14062 11.3812 5.48438 10.7249 5.48438 9.88116V7.63116C5.48438 6.83429 6.14062 6.13116 6.98438 6.13116H8.10938V5.00616C8.10938 4.20929 8.76562 3.50616 9.60938 3.50616H11.8594ZM9.60938 7.63116H6.98438V9.88116H9.60938V12.5062H11.8594V9.88116H14.4844V7.63116H11.8594V5.00616H9.60938V7.63116ZM0.984375 3.50616C0.984375 1.86554 2.29688 0.506165 3.98438 0.506165H17.4844C19.125 0.506165 20.4844 1.86554 20.4844 3.50616V5.00616H23.5312C24.1875 5.00616 24.7969 5.33429 25.2188 5.80304L28.9219 10.1155C29.25 10.5374 29.4844 11.053 29.4844 11.5687V18.5062H30.2344C30.6094 18.5062 30.9844 18.8812 30.9844 19.2562C30.9844 19.678 30.6094 20.0062 30.2344 20.0062H27.9844C27.9844 22.4905 25.9688 24.5062 23.4844 24.5062C20.9531 24.5062 18.9844 22.4905 18.9844 20.0062H12.9844C12.9844 22.4905 10.9688 24.5062 8.48438 24.5062C5.95312 24.5062 3.98438 22.4905 3.98438 20.0062C2.29688 20.0062 0.984375 18.6937 0.984375 17.0062V3.50616ZM17.4844 2.00616H3.98438C3.14062 2.00616 2.48438 2.70929 2.48438 3.50616V17.0062C2.48438 17.8499 3.14062 18.5062 3.98438 18.5062H4.21875C4.82812 16.7718 6.51562 15.5062 8.48438 15.5062C10.4062 15.5062 12.0938 16.7718 12.7031 18.5062H18.9844V3.50616C18.9844 2.70929 18.2812 2.00616 17.4844 2.00616ZM20.4844 6.50616V11.0062H27.7031L24.0938 6.78741C23.9531 6.59991 23.7188 6.50616 23.5312 6.50616H20.4844ZM23.4844 15.5062C25.4062 15.5062 27.0938 16.7718 27.7031 18.5062H27.9844V12.5062H20.4844V16.678C21.2344 15.9749 22.3125 15.5062 23.4844 15.5062ZM8.48438 23.0062C10.125 23.0062 11.4844 21.6937 11.4844 20.0062C11.4844 18.3655 10.125 17.0062 8.48438 17.0062C6.79688 17.0062 5.48438 18.3655 5.48438 20.0062C5.48438 21.6937 6.79688 23.0062 8.48438 23.0062ZM23.4844 17.0062C21.7969 17.0062 20.4844 18.3655 20.4844 20.0062C20.4844 21.6937 21.7969 23.0062 23.4844 23.0062C25.125 23.0062 26.4844 21.6937 26.4844 20.0062C26.4844 18.3655 25.125 17.0062 23.4844 17.0062Z" fill="#FF7D41"/>
</svg>
