<svg width="28" height="25" viewBox="0 0 28 25" fill="none" xmlns="http://www.w3.org/2000/svg">
<path d="M11.3749 9.50616C11.3749 8.70929 12.0311 8.00616 12.8749 8.00616H15.1249C15.9217 8.00616 16.6248 8.70929 16.6248 9.50616V11.3812H18.4998C19.2967 11.3812 19.9998 12.0843 19.9998 12.8812V15.1312C19.9998 15.9749 19.2967 16.6312 18.4998 16.6312H16.6248V18.5062C16.6248 19.3499 15.9217 20.0062 15.1249 20.0062H12.8749C12.0311 20.0062 11.3749 19.3499 11.3749 18.5062V16.6312H9.49985C8.6561 16.6312 7.99985 15.9749 7.99985 15.1312V12.8812C7.99985 12.0843 8.6561 11.3812 9.49985 11.3812H11.3749V9.50616ZM12.8749 9.50616V12.8812H9.49985V15.1312H12.8749V18.5062H15.1249V15.1312H18.4998V12.8812H15.1249V9.50616H12.8749ZM13.4842 0.74054C13.7655 0.45929 14.1874 0.45929 14.4686 0.74054L18.4998 4.25616V3.13116C18.4998 2.52179 18.9686 2.00616 19.6248 2.00616H23.3748C23.9842 2.00616 24.4998 2.52179 24.4998 3.13116V9.55304L27.2186 11.9437C27.5467 12.2249 27.5467 12.6937 27.2655 13.0218C27.0311 13.3499 26.5623 13.3499 26.2342 13.0687L24.4998 11.5218V20.7562C24.4998 22.8655 22.8123 24.5062 20.7498 24.5062H7.24985C5.14048 24.5062 3.49985 22.8655 3.49985 20.7562V11.5218L1.7186 13.0687C1.39048 13.3499 0.921725 13.3499 0.68735 13.0218C0.4061 12.6937 0.4061 12.2249 0.734225 11.9437L13.4842 0.74054ZM22.9998 8.24054V3.50616H19.9998V5.56866L22.9998 8.24054ZM4.99985 10.2093V20.7562C4.99985 22.0218 5.98423 23.0062 7.24985 23.0062H20.7498C21.9686 23.0062 22.9998 22.0218 22.9998 20.7562V10.2093L13.9999 2.28741L4.99985 10.2093Z" fill="#FF7D41"/>
</svg>
