<svg width="22" height="25" viewBox="0 0 22 25" fill="none" xmlns="http://www.w3.org/2000/svg">
<path d="M4.75 6.50616C4.75 3.22491 7.42188 0.506165 10.75 0.506165C14.0312 0.506165 16.75 3.22491 16.75 6.50616C16.75 9.83429 14.0312 12.5062 10.75 12.5062C7.42188 12.5062 4.75 9.83429 4.75 6.50616ZM15.25 6.50616C15.25 4.02179 13.2344 2.00616 10.75 2.00616C8.21875 2.00616 6.25 4.02179 6.25 6.50616C6.25 8.99054 8.21875 11.0062 10.75 11.0062C13.2344 11.0062 15.25 8.99054 15.25 6.50616ZM0.25 23.0999C0.25 18.5062 3.95312 14.7562 8.54688 14.7562H12.9062C17.5 14.7562 21.25 18.5062 21.25 23.0999C21.25 23.8968 20.5938 24.5062 19.7969 24.5062H1.65625C0.859375 24.5062 0.25 23.8968 0.25 23.0999ZM7.75 19.2562C7.32812 19.2562 7 19.6312 7 20.0062C7 20.428 7.32812 20.7562 7.75 20.7562C8.125 20.7562 8.5 20.428 8.5 20.0062C8.5 19.6312 8.125 19.2562 7.75 19.2562ZM8.5 16.2562V17.8968C9.34375 18.2249 10 19.0687 10 20.0062C10 21.2718 8.96875 22.2562 7.75 22.2562C6.48438 22.2562 5.5 21.2718 5.5 20.0062C5.5 19.0687 6.10938 18.2249 7 17.8968V16.4437C4 17.1468 1.75 19.8187 1.75 23.0062H19.7031C19.7031 20.0999 17.8281 17.6155 15.25 16.678V17.8968C16.0938 18.2249 16.75 19.0687 16.75 20.0062V21.5062C16.75 21.928 16.375 22.2562 16 22.2562C15.5781 22.2562 15.25 21.928 15.25 21.5062V20.0062C15.25 19.6312 14.875 19.2562 14.5 19.2562C14.0781 19.2562 13.75 19.6312 13.75 20.0062V21.5062C13.75 21.928 13.375 22.2562 13 22.2562C12.5781 22.2562 12.25 21.928 12.25 21.5062V20.0062C12.25 19.0687 12.8594 18.2249 13.75 17.8968V16.303C13.4688 16.303 13.1875 16.2562 12.9062 16.2562H8.54688C8.5 16.2562 8.5 16.2562 8.45312 16.2562H8.5Z" fill="#FF7D41"/>
</svg>
