<svg width="22" height="24" viewBox="0 0 22 24" fill="none" xmlns="http://www.w3.org/2000/svg">
<path d="M10.656 6C10.656 6 10.8904 6.04687 11.3122 6.04687C12.156 6.04687 13.7497 5.85937 14.781 4.82812C16.2341 3.375 15.9529 0.843748 15.9529 0.703123C15.906 0.374998 15.6247 0.0937479 15.2966 0.0468729C15.2966 0.0468729 12.7185 -0.281252 11.1716 1.21875C9.71848 2.67187 9.99973 5.25 9.99973 5.34375C10.0466 5.67187 10.3279 5.95312 10.656 6ZM12.2497 2.29687C12.8591 1.6875 13.8904 1.54687 14.4529 1.54687C14.4529 2.20312 14.2654 3.1875 13.7029 3.75C13.0935 4.40625 12.0622 4.5 11.4997 4.54687C11.4997 3.84375 11.6872 2.85937 12.2497 2.29687ZM17.4529 6.09375C17.2185 6.04687 16.9841 6.04687 16.7497 6.04687C15.0622 6.04687 12.6716 6.84375 11.4529 7.54687C10.281 6.84375 7.89035 6.04687 6.20285 6.04687C5.96848 6.04687 5.7341 6.04687 5.49973 6.09375C1.70285 6.75 0.484101 11.9062 1.14035 15.7031C1.7966 19.5 3.99973 24 8.49973 24C9.06223 24 9.62473 23.8125 10.0935 23.5312C10.5154 23.2969 11.031 23.2031 11.4997 23.2031C11.9685 23.2031 12.4372 23.2969 12.8591 23.5312C13.3279 23.8125 13.8904 24 14.4529 24C18.906 24 21.156 19.5 21.8122 15.7031C22.4685 11.9062 21.2497 6.75 17.4529 6.09375ZM20.3122 15.4687C20.1247 16.6406 18.8591 22.5469 14.4529 22.5469C13.7029 22.5469 13.1872 21.7031 11.4529 21.7031C9.76535 21.7031 9.24973 22.5469 8.49973 22.5469C4.09348 22.5469 2.82785 16.6406 2.64035 15.4687C2.31223 13.7344 2.49973 11.7656 3.06223 10.2656C3.4841 9.1875 4.28098 7.82812 5.78098 7.54687C7.14035 7.3125 9.81223 8.29687 10.7497 8.8125C10.9841 8.95312 11.2185 9.04687 11.4997 9.04687C11.7341 9.04687 11.9685 8.95312 12.2029 8.8125C13.0935 8.34375 15.8122 7.3125 17.1716 7.54687C18.6716 7.82812 19.4685 9.1875 19.8904 10.2656C20.4529 11.7656 20.6404 13.7344 20.3122 15.4687Z" fill="#FF7D41"/>
</svg>
