<svg width="24" height="24" viewBox="0 0 24 24" fill="none" xmlns="http://www.w3.org/2000/svg">
<path d="M12 22.5C11.2969 23.4375 10.2188 24 9 24C7.59375 24 6.375 23.25 5.71875 22.125C5.67188 22.125 5.625 22.125 5.625 22.125C3.32812 22.125 1.5 20.2969 1.5 18C1.5 17.6719 1.5 17.2969 1.59375 16.9688C0.609375 16.1719 0 14.9062 0 13.5C0 12.3281 0.421875 11.25 1.17188 10.4531C1.125 10.2656 1.125 10.0312 1.125 9.75C1.125 8.39062 1.875 7.17188 3 6.51562C3 6.46875 3 6.42188 3 6.375C3 4.82812 3.9375 3.46875 5.34375 2.90625C5.71875 1.26562 7.21875 0 9 0C10.2188 0 11.2969 0.609375 12 1.5C12.6562 0.609375 13.7344 0 15 0C16.7344 0 18.2344 1.26562 18.6094 2.90625C20.0156 3.46875 21 4.82812 21 6.375C21 6.42188 20.9531 6.46875 20.9531 6.51562C22.0781 7.17188 22.875 8.39062 22.875 9.75C22.875 10.0312 22.8281 10.2656 22.7812 10.4531C23.5312 11.25 24 12.3281 24 13.5C24 14.9062 23.3438 16.1719 22.3594 16.9688C22.4531 17.2969 22.5 17.6719 22.5 18C22.5 20.2969 20.625 22.125 18.375 22.125C18.3281 22.125 18.2812 22.125 18.2344 22.125C17.5781 23.25 16.3594 24 15 24C13.7344 24 12.6562 23.4375 12 22.5ZM6.70312 4.07812L6.1875 4.21875C5.20312 4.45312 4.5 5.34375 4.5 6.375C4.5 6.5625 4.5 6.70312 4.5 6.84375L4.64062 7.45312L4.03125 7.6875C3.1875 7.96875 2.57812 8.8125 2.57812 9.75C2.57812 10.0312 2.625 10.2656 2.71875 10.4531L2.85938 10.9219L2.48438 11.25C1.875 11.8125 1.45312 12.6094 1.45312 13.5C1.45312 14.5781 2.0625 15.5156 2.90625 16.0781L3.42188 16.4062L3.1875 17.0156C3.04688 17.2969 2.95312 17.6719 2.95312 18C2.95312 19.4531 4.17188 20.625 5.57812 20.625C5.76562 20.625 5.90625 20.625 6.04688 20.625L6.65625 20.4844L6.89062 21.0938C7.21875 21.9375 8.01562 22.5 8.95312 22.5C10.2188 22.5 11.2031 21.5156 11.2031 20.25V3.75C11.2031 2.53125 10.2188 1.5 8.95312 1.5C7.82812 1.5 6.84375 2.4375 6.75 3.5625L6.70312 4.07812ZM12.75 20.25C12.75 21.5156 13.7344 22.5 15 22.5C15.9375 22.5 16.7344 21.9375 17.0625 21.0938L17.2969 20.4844L17.9062 20.625C18.0469 20.625 18.1875 20.625 18.375 20.625C19.7812 20.625 21 19.4531 21 18C21 17.6719 20.9062 17.2969 20.7656 17.0156L20.5312 16.4062L21.0469 16.0781C21.8906 15.5156 22.5 14.5781 22.5 13.5C22.5 12.6094 22.0781 11.8125 21.4688 11.25L21.0938 10.9219L21.2344 10.4531C21.3281 10.2656 21.375 10.0312 21.375 9.75C21.375 8.8125 20.7656 7.96875 19.9219 7.6875L19.3125 7.45312L19.4531 6.84375C19.4531 6.70312 19.5 6.5625 19.5 6.375C19.5 5.34375 18.75 4.45312 17.7656 4.21875L17.25 4.07812L17.2031 3.5625C17.1094 2.4375 16.125 1.5 14.9531 1.5C13.7344 1.5 12.7031 2.53125 12.7031 3.75L12.75 20.25Z" fill="#FF7D41"/>
</svg>
