<svg width="1035" height="36" viewBox="0 0 1035 36" fill="none" xmlns="http://www.w3.org/2000/svg">
<path d="M30.2248 20.0312C30.6722 20.0312 31.0557 19.7617 31.1835 19.29L34.1237 11.6083L39.4925 34.2489C39.6203 34.788 40.0038 35.0575 40.5151 35.1249C40.9625 35.0575 41.41 34.7206 41.4739 34.2489L46.7149 6.5546L49.7189 19.1551C49.8467 19.6268 50.2941 20.0312 50.6777 20.0312H1033.95C1034.27 20.0312 1034.46 19.7618 1034.46 19.4922V18.4141C1034.46 18.0771 1034.27 17.875 1033.95 17.875L51.5086 17.8749L47.6097 1.4335C47.4819 0.89444 47.0984 0.624908 46.5871 0.624908C46.1397 0.624908 45.6922 0.961822 45.6283 1.4335L40.3873 29.1278L35.338 7.90225C35.2102 7.43057 34.8267 7.09366 34.4432 7.09366C33.9318 7.02628 33.5484 7.29581 33.4205 7.76748L29.5857 17.8749H0.511322C0.255661 17.8749 1.17345e-07 18.077 8.94018e-08 18.414L0 19.4921C-2.23436e-08 19.7617 0.25566 20.0312 0.511321 20.0312H30.2248Z" fill="#0899D7"/>
</svg>
