<svg width="659" height="232" viewBox="0 0 659 232" fill="none" xmlns="http://www.w3.org/2000/svg">
<g clip-path="url(#clip0_23_100)">
<path d="M180.928 37.8622C183.866 37.8622 186.301 37.3993 188.18 36.4339C190.099 35.4421 191.052 33.8287 191.052 31.5276C191.052 30.4035 190.879 29.491 190.562 28.6975C190.231 27.904 189.649 27.1767 188.842 26.5815C188.061 25.9468 187.015 25.3384 185.745 24.7565C184.488 24.1879 182.9 23.5002 180.994 22.7199C179.512 22.0984 178.043 21.4636 176.706 20.8024C175.343 20.1676 174.139 19.3741 173.12 18.5277C172.035 17.6814 171.201 16.6631 170.593 15.4332C169.944 14.2429 169.64 12.7618 169.64 11.0426C169.64 7.7232 170.87 5.06504 173.372 3.05489C175.82 1.00507 179.247 0 183.588 0C186.38 0 188.656 0.224819 190.456 0.714131C192.269 1.17699 193.5 1.60018 194.254 1.94402L193.076 6.50653C192.441 6.18914 191.396 5.77917 189.913 5.22374C188.392 4.7212 186.221 4.45671 183.35 4.45671C182.198 4.45671 181.087 4.5625 180.094 4.78732C179.049 5.02537 178.136 5.39566 177.368 5.89819C176.574 6.40073 175.965 7.03551 175.489 7.78932C175.013 8.54312 174.774 9.48207 174.774 10.6062C174.774 11.7303 174.986 12.6295 175.41 13.3966C175.833 14.19 176.429 14.8777 177.249 15.4861C178.056 16.0944 179.036 16.6498 180.213 17.1656C181.404 17.7078 182.741 18.2765 184.263 18.8848C185.824 19.4931 187.346 20.1544 188.802 20.7891C190.218 21.4504 191.488 22.2306 192.573 23.1431C193.685 24.0556 194.558 25.1533 195.26 26.4493C195.921 27.7189 196.279 29.3323 196.279 31.2631C196.279 34.9131 194.929 37.6902 192.176 39.5814C189.397 41.4593 185.665 42.3982 180.901 42.3982C177.328 42.3982 174.629 42.0941 172.736 41.4989C170.844 40.8906 169.6 40.441 168.991 40.1236L170.328 35.5082C170.447 35.5875 170.804 35.7727 171.32 36.0107C171.85 36.2355 172.564 36.5133 173.425 36.791C174.364 37.0819 175.383 37.3332 176.614 37.5316C177.831 37.7564 179.247 37.8357 180.888 37.8357" fill="#0899D7"/>
<path d="M228.621 17.9458C228.529 13.7007 227.563 10.4342 225.67 8.09348C223.778 5.7395 221.118 4.53605 217.664 4.53605C215.825 4.53605 214.184 4.91957 212.754 5.64692C211.299 6.37428 210.042 7.33968 208.983 8.56957C207.911 9.81269 207.064 11.241 206.482 12.8676C205.86 14.4545 205.516 16.187 205.41 17.9458H228.608H228.621ZM199.839 21.1594C199.839 17.6152 200.341 14.5074 201.374 11.889C202.379 9.24403 203.729 7.03551 205.37 5.25019C206.998 3.47808 208.917 2.16884 211.008 1.30924C213.138 0.436413 215.322 0 217.585 0C222.534 0 226.504 1.60018 229.468 4.85345C232.419 8.10671 233.915 13.0924 233.915 19.837C233.915 20.2602 233.875 20.6569 233.849 21.0933C233.822 21.4901 233.809 21.9 233.729 22.2835H205.291C205.423 27.2296 206.641 31.0515 208.93 33.7361C211.259 36.381 214.898 37.7167 219.914 37.7167C222.693 37.7167 224.916 37.4522 226.517 36.9232C228.145 36.4207 229.323 35.9843 230.051 35.614L230.99 40.0046C230.262 40.4145 228.886 40.9171 226.901 41.4857C224.863 42.0808 222.507 42.3056 219.768 42.3056C216.208 42.3056 213.204 41.8031 210.677 40.7848C208.162 39.7136 206.085 38.2457 204.47 36.3678C202.842 34.4899 201.678 32.2549 200.937 29.6893C200.196 27.0973 199.839 24.254 199.839 21.1462" fill="#0899D7"/>
<path d="M267.726 5.88496C266.813 5.62047 265.688 5.3692 264.272 5.11794C262.843 4.90634 260.845 4.77409 258.225 4.77409C256.028 4.77409 254.096 5.15761 252.402 5.91141C250.668 6.69167 249.226 7.73642 248.048 9.125C246.817 10.4871 245.917 12.1402 245.282 14.0578C244.674 15.9621 244.316 18.0913 244.316 20.3792C244.316 23.0506 244.7 25.312 245.441 27.2295C246.195 29.1603 247.122 30.7209 248.299 31.8978C249.477 33.1013 250.814 33.9873 252.336 34.5428C253.858 35.0982 255.393 35.3627 256.941 35.3627C259.27 35.3627 261.374 35.0321 263.28 34.3444C265.185 33.67 266.654 32.9029 267.726 31.9904V5.88496ZM267.806 36.7645C267.488 37.0026 267.012 37.3332 266.39 37.6638C265.754 38.0076 264.987 38.3647 264.074 38.735C263.147 39.0921 262.115 39.3962 260.924 39.621C259.76 39.8591 258.436 39.9913 256.941 39.9913C254.612 39.9913 252.336 39.621 250.139 38.8805C247.942 38.1399 246.023 37.0026 244.369 35.4288C242.741 33.8683 241.392 31.845 240.426 29.3455C239.407 26.8725 238.917 23.844 238.917 20.2998C238.917 17.4169 239.34 14.7455 240.254 12.2857C241.153 9.83913 242.411 7.70997 244.038 5.89819C245.706 4.08641 247.704 2.67138 250.099 1.6663C252.481 0.648004 255.154 0.119019 258.132 0.119019C261.917 0.119019 264.934 0.357062 267.197 0.886048C269.473 1.36214 271.326 1.85145 272.821 2.34076V39.3565C272.821 45.4267 271.26 49.7379 268.11 52.3299C264.96 54.9087 260.263 56.2048 253.897 56.2048C251.277 56.2048 248.921 56.0064 246.804 55.5964C244.687 55.1997 242.874 54.7633 241.365 54.2343L242.384 49.6189C243.615 50.2008 245.362 50.6768 247.519 51.0736C249.689 51.5232 251.859 51.7216 254.069 51.7216C258.899 51.7216 262.38 50.7826 264.537 48.9312C266.734 47.093 267.819 43.8926 267.819 39.3962V36.7381L267.806 36.7645Z" fill="#0899D7"/>
<path d="M313.554 40.0707C312.032 40.4939 310.007 40.97 307.427 41.4857C304.872 42.0147 301.749 42.2528 297.991 42.2528C294.974 42.2528 292.433 41.8164 290.408 40.9568C288.357 40.0575 286.716 38.7879 285.446 37.1877C284.202 35.5611 283.315 33.6038 282.773 31.2895C282.204 29.0017 281.926 26.4758 281.926 23.6854V0.938965H287.034V22.0323C287.034 24.902 287.246 27.3221 287.669 29.3455C288.079 31.316 288.754 32.9162 289.707 34.1593C290.66 35.3892 291.864 36.2752 293.333 36.8307C294.842 37.3993 296.668 37.6506 298.812 37.6506C301.207 37.6506 303.311 37.5448 305.084 37.2671C306.844 37.0026 307.996 36.791 308.446 36.5529V0.938965H313.567V40.0707H313.554Z" fill="#0899D7"/>
<path d="M336.924 0.145427C338.605 0.145427 340.179 0.264449 341.688 0.555391C343.197 0.819884 344.216 1.05793 344.771 1.33565L343.779 5.73945C343.329 5.51463 342.508 5.30304 341.212 5.03855C339.928 4.8005 338.247 4.69471 336.13 4.69471C334.013 4.69471 332.173 4.8534 330.863 5.17079C329.513 5.47496 328.653 5.7659 328.216 5.95105V41.4857H323.135V2.80358C324.432 2.23492 326.245 1.65304 328.547 1.0447C330.85 0.449594 333.642 0.132202 336.924 0.132202" fill="#0899D7"/>
<path d="M377.749 21.252C377.749 16.187 376.571 12.1667 374.203 9.13823C371.887 6.16269 368.658 4.6154 364.635 4.6154C360.612 4.6154 357.423 6.14946 355.067 9.13823C352.698 12.1667 351.534 16.187 351.534 21.252C351.534 26.317 352.711 30.3506 355.067 33.3393C357.409 36.3149 360.599 37.8093 364.635 37.8093C368.671 37.8093 371.887 36.3149 374.203 33.3393C376.558 30.3506 377.749 26.317 377.749 21.252ZM383.148 21.252C383.148 24.4524 382.712 27.3221 381.799 29.9671C380.872 32.5723 379.589 34.7941 377.934 36.6323C376.307 38.4573 374.375 39.8723 372.125 40.9038C369.862 41.9221 367.361 42.4379 364.648 42.4379C361.935 42.4379 359.434 41.9354 357.211 40.9038C354.961 39.8723 353.003 38.4441 351.362 36.6323C349.708 34.7941 348.411 32.5591 347.511 29.9671C346.598 27.3353 346.148 24.4524 346.148 21.252C346.148 18.0516 346.598 15.1554 347.511 12.5634C348.411 9.93171 349.721 7.69675 351.362 5.85852C353.003 3.98062 354.961 2.55236 357.211 1.54728C359.434 0.515761 361.922 0 364.648 0C367.374 0 369.862 0.515761 372.125 1.54728C374.375 2.55236 376.307 3.99384 377.934 5.85852C379.589 7.69675 380.886 9.93171 381.799 12.5634C382.712 15.1554 383.148 18.0649 383.148 21.252Z" fill="#0899D7"/>
<path d="M398.632 37.8622C401.556 37.8622 403.965 37.3993 405.897 36.4339C407.802 35.4421 408.742 33.8287 408.742 31.5276C408.742 30.4035 408.557 29.491 408.226 28.6975C407.882 27.904 407.326 27.1767 406.558 26.5815C405.791 25.9468 404.719 25.3384 403.422 24.7565C402.165 24.1879 400.577 23.5002 398.711 22.7199C397.176 22.0984 395.72 21.4636 394.357 20.8024C393.021 20.1676 391.83 19.3741 390.771 18.5277C389.752 17.6814 388.892 16.6631 388.27 15.4332C387.621 14.2429 387.317 12.7618 387.317 11.0426C387.317 7.7232 388.548 5.06504 391.062 3.05489C393.523 1.00507 396.951 0 401.278 0C404.071 0 406.36 0.224819 408.173 0.714131C409.973 1.17699 411.243 1.60018 411.944 1.94402L410.806 6.50653C410.158 6.18914 409.086 5.77917 407.604 5.22374C406.122 4.7212 403.951 4.45671 401.08 4.45671C399.889 4.45671 398.83 4.5625 397.798 4.78732C396.766 5.02537 395.879 5.39566 395.085 5.89819C394.304 6.40073 393.669 7.03551 393.206 7.78932C392.729 8.54312 392.518 9.48207 392.518 10.6062C392.518 11.7303 392.729 12.6295 393.153 13.3966C393.55 14.19 394.172 14.8777 394.992 15.4861C395.786 16.0944 396.779 16.6498 397.97 17.1656C399.161 17.7078 400.471 18.2765 402.019 18.8848C403.581 19.4931 405.063 20.1544 406.479 20.7891C407.974 21.4504 409.205 22.2306 410.343 23.1431C411.442 24.0556 412.328 25.1533 413.003 26.4493C413.678 27.7189 414.009 29.3323 414.009 31.2631C414.009 34.9131 412.646 37.6902 409.88 39.5814C407.18 41.4593 403.409 42.3982 398.645 42.3982C395.098 42.3982 392.346 42.0941 390.467 41.4989C388.587 40.8906 387.317 40.441 386.682 40.1236L388.045 35.5082C388.19 35.5875 388.521 35.7727 389.051 36.0107C389.58 36.2355 390.268 36.5133 391.155 36.791C392.055 37.0819 393.126 37.3332 394.331 37.5316C395.575 37.7564 397.004 37.8357 398.632 37.8357" fill="#0899D7"/>
<path d="M71.0637 122.024C40.2959 122.024 6.5638 99.5552 6.5638 71.876C6.5638 44.1968 40.2959 21.7281 71.0637 21.7281C101.831 21.7281 135.59 44.1571 135.59 71.876C135.59 99.5948 101.845 122.024 71.0637 122.024ZM71.0637 0.859619C31.8 0.859619 0 32.6517 0 71.876C0 111.1 31.8 142.892 71.0637 142.892C110.327 142.892 142.141 111.1 142.141 71.876C142.141 32.6517 110.314 0.859619 71.0637 0.859619Z" fill="#0899D7"/>
<path d="M624.765 146.251C618.956 146.172 614.218 145.55 610.605 144.387C606.953 143.223 604.081 141.57 601.977 139.454C599.86 137.364 598.417 134.799 597.676 131.797C596.895 128.808 596.512 125.409 596.512 121.654V39.7533L616.534 43.0066V117.62C616.534 119.432 616.706 121.032 616.984 122.473C617.248 123.915 617.738 125.118 618.532 126.097C619.26 127.089 620.358 127.882 621.827 128.544C623.243 129.152 625.149 129.562 627.597 129.721L624.752 146.265L624.765 146.251Z" fill="#0899D7"/>
<path d="M208.215 103.139C208.215 96.6721 207.368 92.0832 205.727 89.4382C204.06 86.7272 201.188 85.3915 197.165 85.3915C195.921 85.3915 194.625 85.4576 193.288 85.5899C191.938 85.7221 190.615 85.8544 189.358 86.0527V141.583H169.309V72.352C171.043 71.9156 173.028 71.4263 175.33 70.937C177.62 70.4476 180.015 69.9716 182.569 69.6013C185.123 69.1913 187.743 68.8739 190.456 68.6491C193.156 68.4375 195.789 68.3185 198.383 68.3185C203.478 68.3185 207.633 68.9665 210.836 70.2625C213.998 71.5585 216.632 73.1058 218.683 74.9044C221.581 72.8413 224.863 71.2015 228.582 70.0774C232.3 68.9136 235.741 68.3185 238.891 68.3185C244.541 68.3185 249.173 69.0987 252.825 70.6592C256.438 72.233 259.336 74.4547 261.493 77.3112C263.637 80.181 265.132 83.5929 265.94 87.5074C266.747 91.5013 267.17 95.8522 267.17 100.719V141.57H247.122V103.139C247.122 96.6721 246.288 92.0832 244.621 89.4382C242.966 86.7272 240.108 85.3915 236.059 85.3915C235.013 85.3915 233.478 85.6692 231.559 86.185C229.64 86.7272 228.052 87.4149 226.795 88.2083C227.43 90.2714 227.801 92.427 227.999 94.7413C228.185 97.0292 228.251 99.4493 228.251 102.028V141.57H208.229V103.139H208.215Z" fill="#0899D7"/>
<path d="M338.102 141.57H307.996C301.988 141.57 296.985 140.776 292.976 139.15C288.979 137.55 285.843 135.275 283.5 132.379C281.185 129.456 279.504 125.978 278.551 121.945C277.532 117.924 277.056 112.965 277.056 108.112V71.0032H297.104V105.678C297.104 112.119 297.938 116.813 299.632 119.683C301.366 122.54 304.555 123.981 309.173 123.981H318.066V71.0032H338.102V141.583V141.57Z" fill="#0899D7"/>
<path d="M348.172 70.9899H378.292C384.326 70.9899 389.328 71.7966 393.312 73.3968C397.282 75.0366 400.445 77.298 402.8 80.2074C405.116 83.1301 406.783 86.6082 407.749 90.6152C408.782 94.662 409.258 100.851 409.258 105.665V141.57H389.183V108.111C389.183 101.658 388.336 95.7861 386.655 92.9031C384.961 90.0466 381.772 88.6051 377.101 88.6051H368.208V141.57H348.186V70.9899H348.172Z" fill="#0899D7"/>
<path d="M515.682 141.57H495.196V71.6909H515.682V141.57ZM518.024 52.2639C518.024 56.1784 516.767 59.2597 514.239 61.5211C511.685 63.7429 508.694 64.8802 505.24 64.8802C501.786 64.8802 498.809 63.7429 496.255 61.5211C493.688 59.2597 492.444 56.1651 492.444 52.2639C492.444 48.3626 493.688 45.2416 496.255 43.0066C498.796 40.7584 501.773 39.6211 505.24 39.6211C508.708 39.6211 511.685 40.7716 514.239 43.0066C516.754 45.2416 518.024 48.3494 518.024 52.2639Z" fill="#0899D7"/>
<path d="M568.285 125.912H552.868C548.712 125.912 545.444 122.923 545.444 119.339C545.444 115.755 548.739 112.819 552.868 112.819H568.285V125.912ZM557.751 71.3999H530.715L534.751 88.949H557.751C563.216 88.7903 568.549 91.2104 568.549 98.5237H548.977C535.122 98.5237 523.913 108.164 523.913 120.093C523.913 132.022 535.122 141.702 548.924 141.702H586.097V98.3385C586.097 79.3347 572.03 71.1486 557.738 71.4131" fill="#0899D7"/>
<path d="M641.016 58.6513H642.313C643.49 58.6513 644.456 58.5059 645.145 58.1885C645.846 57.8711 646.19 57.2099 646.19 56.2445C646.19 55.3849 645.872 54.7897 645.197 54.4327C644.536 54.0888 643.702 53.9037 642.696 53.9037H641.889C641.638 53.9037 641.347 53.9301 641.002 53.9963V58.6513H641.016ZM647.077 67.9218C646.455 66.6258 645.846 65.462 645.237 64.4173C644.628 63.3593 644.046 62.4865 643.49 61.7856H641.016V67.9218H637.178V51.1926C638.131 50.9414 639.057 50.7827 639.97 50.6901C640.883 50.5975 641.704 50.5579 642.392 50.5579C644.946 50.5579 646.852 51.0339 648.149 51.9729C649.445 52.9118 650.094 54.3533 650.094 56.2709C650.094 57.3157 649.856 58.2149 649.326 58.9952C648.837 59.7754 648.096 60.3838 647.156 60.807C647.778 61.7062 648.413 62.7245 649.128 63.8751C649.842 65.0521 650.517 66.3878 651.192 67.9086H647.077V67.9218Z" fill="#0899D7"/>
<path d="M643.384 46.5375C636.265 46.5375 630.469 52.3432 630.469 59.4448C630.469 66.5464 636.265 72.3785 643.384 72.3785C650.504 72.3785 656.314 66.5861 656.314 59.4448C656.314 52.3035 650.517 46.5375 643.384 46.5375ZM643.384 75.0367C634.796 75.0367 627.795 68.0541 627.795 59.4448C627.795 50.8356 634.796 43.8794 643.384 43.8794C651.973 43.8794 658.987 50.8752 658.987 59.4448C658.987 68.0144 651.999 75.0367 643.384 75.0367Z" fill="#0899D7"/>
<path d="M463.542 124.841H452.346C443.295 124.841 435.95 116.959 435.95 107.225C435.95 97.4921 443.295 89.6235 452.346 89.6235H463.542V124.841ZM463.542 42.8214V71.6644H450.322C431.212 71.6644 415.676 87.3753 415.676 106.683C415.676 125.991 431.212 141.689 450.361 141.689H484.861V40.5336L463.528 42.8082L463.542 42.8214Z" fill="#0899D7"/>
<path d="M48.2757 185.396L56.4937 184.074V192.643H66.4055V199.507H56.4937V209.756C56.4937 211.475 56.798 212.89 57.42 213.895C58.0288 214.94 59.2462 215.456 61.0989 215.456C61.9856 215.456 62.8987 215.377 63.8383 215.205C64.7646 215.033 65.638 214.808 66.4055 214.504L67.5701 220.931C66.5776 221.341 65.466 221.685 64.2485 221.976C63.0442 222.267 61.5356 222.425 59.7623 222.425C57.4994 222.425 55.6467 222.108 54.1778 221.5C52.7089 220.878 51.5179 220.032 50.6445 218.947C49.7578 217.876 49.1359 216.54 48.7918 214.993C48.4345 213.446 48.2889 211.727 48.2889 209.835V185.37L48.2757 185.396Z" fill="#0899D7"/>
<path d="M97.9806 220.772C96.5646 221.169 94.7649 221.539 92.5416 221.91C90.3317 222.24 88.0026 222.439 85.5676 222.439C83.1327 222.439 81.0418 222.108 79.4008 221.447C77.7599 220.786 76.4497 219.86 75.4837 218.643C74.5177 217.44 73.8295 216.011 73.4325 214.358C73.0223 212.692 72.8105 210.88 72.8105 208.883V192.657H81.0682V207.878C81.0682 210.536 81.4255 212.467 82.1269 213.644C82.8283 214.834 84.1649 215.416 86.0705 215.416C86.666 215.416 87.2747 215.39 87.9364 215.337C88.6113 215.284 89.22 215.205 89.7229 215.152V192.67H97.9806V220.799V220.772Z" fill="#0899D7"/>
<path d="M117.619 207.217C117.619 205.114 117.976 203.131 118.651 201.266C119.313 199.388 120.319 197.775 121.616 196.386C122.886 194.997 124.474 193.9 126.313 193.093C128.166 192.286 130.257 191.863 132.626 191.863C134.161 191.863 135.59 192.009 136.874 192.286C138.184 192.577 139.441 192.961 140.645 193.463L138.925 200.049C138.144 199.758 137.297 199.494 136.371 199.282C135.445 199.071 134.412 198.965 133.274 198.965C130.839 198.965 129.013 199.719 127.822 201.226C126.644 202.734 126.022 204.744 126.022 207.204C126.022 209.809 126.591 211.846 127.716 213.287C128.841 214.729 130.813 215.443 133.605 215.443C134.598 215.443 135.669 215.35 136.821 215.165C137.959 214.98 139.018 214.689 139.97 214.279L141.148 221.037C140.182 221.447 138.978 221.804 137.549 222.108C136.106 222.412 134.531 222.544 132.771 222.544C130.138 222.544 127.835 222.134 125.93 221.367C123.998 220.561 122.41 219.489 121.179 218.127C119.948 216.752 119.048 215.139 118.479 213.274C117.897 211.409 117.619 209.386 117.619 207.217Z" fill="#0899D7"/>
<path d="M165.18 207.151C165.18 204.612 164.664 202.602 163.658 201.147C162.639 199.692 161.184 198.965 159.304 198.965C157.425 198.965 155.97 199.679 154.937 201.147C153.905 202.602 153.389 204.612 153.389 207.151C153.389 209.69 153.905 211.727 154.937 213.221C155.97 214.702 157.425 215.456 159.304 215.456C161.184 215.456 162.639 214.702 163.658 213.221C164.664 211.727 165.18 209.703 165.18 207.151ZM173.583 207.151C173.583 209.426 173.252 211.528 172.591 213.433C171.929 215.337 170.976 216.95 169.693 218.313C168.449 219.661 166.94 220.706 165.207 221.434C163.446 222.174 161.475 222.544 159.291 222.544C157.108 222.544 155.202 222.174 153.455 221.434C151.695 220.706 150.2 219.661 148.943 218.313C147.685 216.964 146.706 215.337 146.005 213.433C145.303 211.542 144.959 209.439 144.959 207.151C144.959 204.863 145.33 202.787 146.044 200.896C146.759 199.018 147.752 197.404 149.035 196.082C150.306 194.746 151.814 193.715 153.561 192.987C155.321 192.247 157.24 191.876 159.291 191.876C161.342 191.876 163.327 192.247 165.087 192.987C166.847 193.715 168.343 194.746 169.587 196.082C170.831 197.404 171.823 199.005 172.538 200.896C173.213 202.787 173.57 204.863 173.57 207.151" fill="#0899D7"/>
<path d="M195.736 206.318C195.736 203.673 195.405 201.782 194.704 200.671C194.042 199.573 192.851 199.018 191.171 199.018C190.668 199.018 190.138 199.057 189.583 199.11C189.027 199.176 188.497 199.243 187.968 199.309V221.777H179.71V193.688C180.412 193.49 181.219 193.291 182.185 193.093C183.125 192.881 184.104 192.71 185.163 192.551C186.235 192.366 187.293 192.233 188.418 192.154C189.49 192.062 190.602 192.022 191.673 192.022C193.764 192.022 195.485 192.3 196.782 192.829C198.118 193.358 199.19 193.992 200.024 194.746C201.215 193.887 202.565 193.225 204.1 192.749C205.622 192.286 207.024 192.035 208.321 192.035C210.637 192.035 212.556 192.352 214.051 193C215.56 193.635 216.738 194.561 217.638 195.738C218.524 196.928 219.12 198.317 219.464 199.957C219.795 201.57 219.967 203.382 219.967 205.379V221.817H211.722V206.371C211.722 203.726 211.365 201.835 210.69 200.724C210.002 199.626 208.837 199.071 207.183 199.071C206.733 199.071 206.124 199.19 205.317 199.414C204.536 199.626 203.862 199.904 203.372 200.248C203.61 201.094 203.769 201.993 203.848 202.932C203.928 203.858 203.967 204.889 203.967 205.934V221.817H195.723V206.371L195.736 206.318Z" fill="#0899D7"/>
<path d="M246.182 207.429C246.182 204.876 245.6 202.84 244.462 201.319C243.31 199.771 241.617 199.018 239.367 199.018C238.613 199.018 237.924 199.057 237.316 199.097C236.68 199.163 236.178 199.229 235.754 199.295V214.186C236.27 214.517 236.945 214.808 237.792 215.02C238.613 215.231 239.446 215.337 240.293 215.337C244.224 215.337 246.169 212.705 246.169 207.429M254.585 207.204C254.585 209.452 254.294 211.515 253.752 213.34C253.196 215.178 252.389 216.765 251.303 218.101C250.258 219.41 248.921 220.455 247.32 221.182C245.745 221.923 243.919 222.306 241.842 222.306C240.69 222.306 239.618 222.187 238.639 221.962C237.647 221.751 236.68 221.433 235.754 221.024V231.987H227.51V193.648C228.251 193.424 229.098 193.199 230.051 193C231.017 192.802 232.009 192.617 233.068 192.471C234.1 192.313 235.185 192.194 236.297 192.114C237.369 192.022 238.427 191.982 239.42 191.982C241.802 191.982 243.972 192.326 245.838 193.053C247.73 193.768 249.318 194.786 250.589 196.082C251.873 197.391 252.878 198.991 253.553 200.882C254.241 202.76 254.585 204.863 254.585 207.204Z" fill="#0899D7"/>
<path d="M272.027 215.998C272.848 215.998 273.628 215.985 274.343 215.945C275.071 215.906 275.68 215.853 276.116 215.773V209.531C275.785 209.452 275.283 209.373 274.621 209.32C273.959 209.24 273.35 209.187 272.795 209.187C272.014 209.187 271.286 209.24 270.611 209.333C269.923 209.439 269.327 209.611 268.798 209.862C268.282 210.14 267.898 210.47 267.581 210.92C267.29 211.37 267.157 211.925 267.157 212.586C267.157 213.895 267.567 214.782 268.454 215.271C269.314 215.773 270.505 216.011 272.014 216.011M271.352 191.89C273.8 191.89 275.825 192.167 277.426 192.71C279.081 193.265 280.351 194.045 281.343 195.103C282.31 196.135 283.011 197.391 283.421 198.872C283.831 200.34 284.043 201.98 284.043 203.792V220.957C282.839 221.222 281.211 221.513 279.107 221.87C276.99 222.201 274.462 222.386 271.458 222.386C269.579 222.386 267.872 222.227 266.323 221.91C264.802 221.553 263.478 221.024 262.393 220.27C261.268 219.516 260.421 218.524 259.826 217.294C259.23 216.078 258.939 214.596 258.939 212.824C258.939 211.052 259.283 209.69 259.985 208.5C260.673 207.31 261.559 206.371 262.711 205.683C263.862 204.982 265.185 204.466 266.654 204.162C268.136 203.845 269.672 203.673 271.246 203.673C272.318 203.673 273.258 203.712 274.092 203.818C274.925 203.898 275.613 204.017 276.129 204.175V203.395C276.129 201.993 275.693 200.869 274.859 200.036C274.012 199.176 272.53 198.766 270.439 198.766C269.023 198.766 267.647 198.859 266.284 199.057C264.921 199.256 263.743 199.547 262.724 199.917L261.679 193.265C262.168 193.12 262.777 192.974 263.492 192.802C264.206 192.643 265 192.485 265.847 192.339C266.694 192.22 267.594 192.128 268.533 192.022C269.473 191.916 270.426 191.89 271.392 191.89" fill="#0899D7"/>
<path d="M314.043 182.513C313.818 183.069 313.514 183.677 313.13 184.338C312.746 185 312.27 185.634 311.727 186.203C311.185 186.772 310.55 187.248 309.822 187.618C309.134 187.988 308.353 188.173 307.506 188.173C306.858 188.173 306.236 188.068 305.653 187.869C305.084 187.671 304.515 187.459 303.973 187.221C303.417 186.983 302.848 186.745 302.318 186.56C301.749 186.349 301.18 186.256 300.598 186.256C299.857 186.256 299.248 186.494 298.759 186.957C298.295 187.446 297.899 187.988 297.594 188.61L293.558 185.965C293.783 185.396 294.1 184.788 294.471 184.14C294.855 183.479 295.318 182.844 295.874 182.275C296.43 181.72 297.052 181.244 297.74 180.873C298.441 180.503 299.222 180.305 300.069 180.305C300.73 180.305 301.352 180.424 301.921 180.622C302.504 180.821 303.06 181.045 303.615 181.283C304.171 181.521 304.714 181.746 305.243 181.945C305.786 182.143 306.368 182.249 307.003 182.249C307.731 182.249 308.34 182.011 308.816 181.535C309.293 181.059 309.69 180.503 309.981 179.868L314.017 182.527L314.043 182.513ZM291.242 193.648C292.645 193.225 294.445 192.842 296.655 192.498C298.878 192.141 301.207 191.969 303.642 191.969C306.077 191.969 308.168 192.286 309.809 192.934C311.463 193.582 312.76 194.495 313.726 195.672C314.679 196.849 315.367 198.264 315.777 199.891C316.174 201.504 316.386 203.316 316.386 205.313V221.751H308.141V206.304C308.141 203.646 307.771 201.768 307.083 200.658C306.368 199.56 305.071 199.004 303.139 199.004C302.557 199.004 301.921 199.044 301.273 199.084C300.611 199.15 300.016 199.216 299.5 199.282V221.751H291.255V193.648H291.242Z" fill="#0899D7"/>
<path d="M332.081 221.764H323.836V192.657H332.081V221.764ZM335.137 182.209L326.02 189.88L322.222 186.494L330.069 177.528L335.124 182.196L335.137 182.209Z" fill="#0899D7"/>
<path d="M350.899 215.998C351.732 215.998 352.526 215.985 353.241 215.945C353.969 215.906 354.564 215.853 355.014 215.773V209.531C354.657 209.452 354.167 209.373 353.506 209.32C352.831 209.24 352.235 209.187 351.693 209.187C350.885 209.187 350.171 209.24 349.483 209.333C348.808 209.439 348.212 209.611 347.709 209.862C347.18 210.14 346.783 210.47 346.492 210.92C346.187 211.37 346.029 211.925 346.029 212.586C346.029 213.895 346.452 214.782 347.339 215.271C348.212 215.773 349.39 216.011 350.899 216.011M350.237 191.89C352.685 191.89 354.71 192.167 356.324 192.71C357.952 193.265 359.249 194.045 360.241 195.103C361.221 196.135 361.909 197.391 362.306 198.872C362.716 200.34 362.928 201.98 362.928 203.792V220.957C361.75 221.222 360.096 221.513 357.992 221.87C355.888 222.201 353.347 222.386 350.369 222.386C348.477 222.386 346.783 222.227 345.248 221.91C343.726 221.553 342.389 221.024 341.291 220.27C340.179 219.516 339.319 218.524 338.737 217.294C338.141 216.078 337.864 214.596 337.864 212.824C337.864 211.052 338.221 209.69 338.896 208.5C339.544 207.31 340.497 206.371 341.622 205.683C342.76 204.982 344.083 204.466 345.539 204.162C347.021 203.845 348.569 203.673 350.144 203.673C351.216 203.673 352.182 203.712 352.989 203.818C353.823 203.898 354.498 204.017 355.041 204.175V203.395C355.041 201.993 354.604 200.869 353.757 200.036C352.91 199.176 351.441 198.766 349.324 198.766C347.934 198.766 346.545 198.859 345.182 199.057C343.819 199.256 342.628 199.547 341.635 199.917L340.576 193.265C341.053 193.12 341.648 192.974 342.376 192.802C343.091 192.643 343.872 192.485 344.732 192.339C345.579 192.22 346.479 192.128 347.418 192.022C348.371 191.916 349.324 191.89 350.263 191.89" fill="#0899D7"/>
<path d="M392.041 215.839C393.524 215.839 394.609 215.707 395.244 215.403C395.866 215.099 396.157 214.557 396.157 213.671C396.157 213.023 395.773 212.441 394.979 211.925C394.159 211.449 392.915 210.867 391.274 210.245C389.99 209.769 388.799 209.254 387.754 208.738C386.695 208.235 385.782 207.601 385.054 206.886C384.313 206.159 383.757 205.313 383.347 204.321C382.95 203.316 382.725 202.112 382.725 200.71C382.725 197.986 383.757 195.831 385.782 194.23C387.807 192.657 390.586 191.85 394.132 191.85C395.906 191.85 397.613 192.009 399.227 192.313C400.868 192.643 402.152 192.987 403.118 193.358L401.689 199.785C400.723 199.454 399.677 199.15 398.565 198.899C397.414 198.634 396.17 198.489 394.728 198.489C392.174 198.489 390.877 199.229 390.877 200.671C390.877 201.001 390.956 201.306 391.062 201.557C391.168 201.821 391.393 202.073 391.697 202.311C392.055 202.535 392.491 202.8 393.074 203.091C393.656 203.355 394.37 203.673 395.257 204.003C397.07 204.678 398.565 205.339 399.743 205.974C400.921 206.635 401.847 207.336 402.549 208.103C403.224 208.857 403.713 209.69 403.991 210.603C404.256 211.541 404.401 212.599 404.401 213.816C404.401 216.673 403.316 218.855 401.172 220.336C399.002 221.804 395.945 222.544 391.988 222.544C389.421 222.544 387.251 222.333 385.557 221.896C383.837 221.433 382.646 221.063 381.984 220.785L383.36 214.081C384.763 214.636 386.205 215.072 387.688 215.39C389.17 215.694 390.599 215.853 392.055 215.853" fill="#0899D7"/>
<path d="M418.76 221.764H410.528V192.657H418.76V221.764ZM419.554 184.246C419.554 185.753 419.091 186.957 418.098 187.83C417.119 188.689 415.954 189.112 414.618 189.112C413.281 189.112 412.143 188.676 411.177 187.83C410.198 186.957 409.708 185.767 409.708 184.246C409.708 182.725 410.198 181.535 411.177 180.675C412.156 179.816 413.334 179.379 414.618 179.379C415.901 179.379 417.119 179.816 418.098 180.675C419.091 181.548 419.554 182.738 419.554 184.246Z" fill="#0899D7"/>
<path d="M444.525 204.268C444.472 203.567 444.366 202.893 444.168 202.231C443.983 201.557 443.639 200.975 443.215 200.459C442.792 199.93 442.262 199.507 441.614 199.176C440.965 198.859 440.171 198.674 439.219 198.674C438.266 198.674 437.485 198.846 436.823 199.15C436.148 199.454 435.593 199.864 435.143 200.367C434.706 200.896 434.362 201.504 434.124 202.192C433.886 202.866 433.714 203.554 433.594 204.255H444.512L444.525 204.268ZM425.151 207.429C425.151 204.837 425.535 202.602 426.342 200.644C427.11 198.714 428.169 197.1 429.452 195.791C430.749 194.508 432.245 193.516 433.912 192.855C435.606 192.194 437.326 191.863 439.1 191.863C443.228 191.863 446.484 193.133 448.919 195.645C451.301 198.185 452.492 201.901 452.492 206.82C452.492 207.283 452.492 207.812 452.439 208.394C452.399 208.963 452.373 209.465 452.333 209.902H433.608C433.793 211.621 434.587 212.943 436.003 213.948C437.419 214.94 439.298 215.443 441.64 215.443C443.149 215.443 444.631 215.31 446.087 215.02C447.569 214.742 448.747 214.411 449.673 213.988L450.785 220.693C450.335 220.918 449.726 221.129 449.011 221.367C448.257 221.592 447.437 221.777 446.537 221.949C445.637 222.108 444.644 222.253 443.625 222.359C442.58 222.465 441.561 222.531 440.516 222.531C437.882 222.531 435.632 222.134 433.687 221.367C431.742 220.587 430.127 219.529 428.87 218.18C427.6 216.845 426.647 215.244 426.038 213.393C425.416 211.555 425.138 209.558 425.138 207.415" fill="#0899D7"/>
<path d="M474.87 206.318C474.87 203.673 474.512 201.782 473.837 200.671C473.149 199.573 471.985 199.018 470.317 199.018C469.801 199.018 469.259 199.057 468.716 199.11C468.173 199.176 467.618 199.243 467.102 199.309V221.777H458.844V193.688C459.545 193.49 460.366 193.291 461.305 193.093C462.245 192.881 463.237 192.71 464.296 192.551C465.341 192.366 466.427 192.233 467.551 192.154C468.65 192.062 469.748 192.022 470.82 192.022C472.911 192.022 474.618 192.3 475.928 192.829C477.238 193.358 478.324 193.992 479.184 194.746C480.348 193.887 481.725 193.225 483.26 192.749C484.781 192.286 486.184 192.035 487.494 192.035C489.81 192.035 491.742 192.352 493.224 193C494.693 193.635 495.884 194.561 496.784 195.738C497.671 196.928 498.28 198.317 498.61 199.957C498.941 201.57 499.1 203.382 499.1 205.379V221.817H490.869V206.371C490.869 203.726 490.525 201.835 489.837 200.724C489.162 199.626 487.971 199.071 486.33 199.071C485.867 199.071 485.258 199.19 484.477 199.414C483.683 199.626 483.035 199.904 482.519 200.248C482.77 201.094 482.929 201.993 483.008 202.932C483.074 203.858 483.114 204.889 483.114 205.934V221.817H474.883V206.371L474.87 206.318Z" fill="#0899D7"/>
<path d="M525.236 207.429C525.236 204.876 524.641 202.84 523.516 201.319C522.365 199.771 520.671 199.018 518.408 199.018C517.68 199.018 516.992 199.057 516.37 199.097C515.735 199.163 515.245 199.229 514.821 199.295V214.186C515.338 214.517 516.012 214.808 516.846 215.02C517.68 215.231 518.5 215.337 519.347 215.337C523.264 215.337 525.223 212.705 525.223 207.429M533.626 207.204C533.626 209.452 533.348 211.515 532.792 213.34C532.25 215.178 531.443 216.765 530.357 218.101C529.286 219.41 527.962 220.455 526.374 221.182C524.799 221.923 522.973 222.306 520.896 222.306C519.758 222.306 518.672 222.187 517.68 221.962C516.701 221.751 515.735 221.433 514.821 221.024V231.987H506.577V193.648C507.292 193.424 508.152 193.199 509.131 193C510.071 192.802 511.076 192.617 512.122 192.471C513.194 192.313 514.239 192.194 515.351 192.114C516.436 192.022 517.468 191.982 518.487 191.982C520.869 191.982 523.013 192.326 524.905 193.053C526.798 193.768 528.359 194.786 529.656 196.082C530.953 197.391 531.932 198.991 532.634 200.882C533.322 202.76 533.653 204.863 533.653 207.204" fill="#0899D7"/>
<path d="M557.552 199.957C556.824 199.785 555.964 199.6 554.985 199.388C553.979 199.19 552.907 199.084 551.756 199.084C551.24 199.084 550.631 199.137 549.89 199.216C549.189 199.309 548.633 199.428 548.262 199.52V221.764H540.005V194.217C541.487 193.688 543.22 193.199 545.232 192.736C547.243 192.286 549.493 192.048 551.954 192.048C552.404 192.048 552.947 192.088 553.569 192.141C554.178 192.194 554.826 192.286 555.461 192.353C556.097 192.472 556.719 192.577 557.327 192.71C557.962 192.829 558.505 193.001 558.942 193.172L557.552 199.97V199.957Z" fill="#0899D7"/>
<path d="M581.359 204.268C581.346 203.567 581.2 202.893 581.002 202.231C580.79 201.557 580.486 200.975 580.076 200.459C579.639 199.93 579.096 199.507 578.448 199.176C577.799 198.859 576.992 198.674 576.053 198.674C575.113 198.674 574.345 198.846 573.657 199.15C573.009 199.454 572.44 199.864 572.016 200.367C571.553 200.896 571.236 201.504 570.984 202.192C570.746 202.866 570.561 203.554 570.442 204.255H581.359V204.268ZM561.985 207.429C561.985 204.837 562.382 202.602 563.19 200.644C563.97 198.714 565.003 197.1 566.313 195.791C567.596 194.508 569.092 193.516 570.759 192.855C572.427 192.194 574.173 191.863 575.96 191.863C580.089 191.863 583.331 193.133 585.74 195.645C588.135 198.185 589.339 201.901 589.339 206.82C589.339 207.283 589.339 207.812 589.286 208.394C589.26 208.963 589.22 209.465 589.193 209.902H570.455C570.653 211.621 571.447 212.943 572.85 213.948C574.266 214.94 576.158 215.443 578.514 215.443C580.009 215.443 581.492 215.31 582.96 215.02C584.416 214.742 585.607 214.411 586.52 213.988L587.645 220.693C587.208 220.918 586.613 221.129 585.872 221.367C585.157 221.592 584.324 221.777 583.41 221.949C582.511 222.108 581.531 222.253 580.499 222.359C579.467 222.465 578.448 222.531 577.402 222.531C574.782 222.531 572.506 222.134 570.561 221.367C568.642 220.587 567.014 219.529 565.757 218.18C564.473 216.845 563.547 215.244 562.951 213.393C562.316 211.555 562.025 209.558 562.025 207.415" fill="#0899D7"/>
<path d="M35.6906 64.933C34.9231 64.5099 34.9893 63.928 35.8362 63.6503L96.2205 41.8031C97.0013 41.5122 97.438 41.9486 97.1336 42.7553L75.3116 103.113C74.994 103.933 74.3853 103.972 73.975 103.205L60.6754 79.5992C60.2387 78.8586 59.2727 77.9064 58.5316 77.4832L35.7039 64.9463L35.6906 64.933Z" fill="#0899D7"/>
</g>
<defs>
<clipPath id="clip0_23_100">
<rect width="659" height="232" fill="white"/>
</clipPath>
</defs>
</svg>
