<svg width="81" height="81" viewBox="0 0 81 81" fill="none" xmlns="http://www.w3.org/2000/svg">
<path d="M36.4613 40.4784H44.5613V32.4H52.6613V24.3H44.5613V16.2H36.4613V24.3H28.3613V32.4H36.4613V40.4784Z" fill="#0081A4"/>
<path d="M36.4613 40.4784H44.5613V32.4H52.6613V24.3H44.5613V16.2H36.4613V24.3H28.3613V32.4H36.4613V40.4784Z" fill="url(#paint0_linear)"/>
<path d="M0 0V81H81V0H0ZM48.6 72.9H32.4V56.7H48.6V72.9ZM72.9 72.9H56.7V48.6H24.3V72.9H8.1V8.1H72.9V72.9Z" fill="#0081A4"/>
<path d="M0 0V81H81V0H0ZM48.6 72.9H32.4V56.7H48.6V72.9ZM72.9 72.9H56.7V48.6H24.3V72.9H8.1V8.1H72.9V72.9Z" fill="url(#paint1_linear)"/>
<defs>
<linearGradient id="paint0_linear" x1="40.5113" y1="16.2" x2="40.5113" y2="40.4783" gradientUnits="userSpaceOnUse">
<stop stop-color="#3BC1CD"/>
<stop offset="1" stop-color="white" stop-opacity="0"/>
</linearGradient>
<linearGradient id="paint1_linear" x1="40.5" y1="0" x2="40.5" y2="81" gradientUnits="userSpaceOnUse">
<stop stop-color="#3BC1CD"/>
<stop offset="1" stop-color="white" stop-opacity="0"/>
</linearGradient>
</defs>
</svg>
