<svg width="65" height="65" viewBox="0 0 65 65" fill="none" xmlns="http://www.w3.org/2000/svg">
<path d="M25.7291 25.4177V39.585C25.7291 41.1287 27.3812 42.1065 28.7354 41.3671L41.6975 34.2821C42.0173 34.1072 42.2841 33.8494 42.47 33.5359C42.6559 33.2223 42.754 32.8645 42.754 32.5C42.754 32.1355 42.6559 31.7777 42.47 31.4641C42.2841 31.1506 42.0173 30.8928 41.6975 30.7179L28.7354 23.6329C28.4258 23.4635 28.0775 23.3777 27.7247 23.3839C27.3719 23.3901 27.0268 23.4881 26.7234 23.6682C26.42 23.8484 26.1688 24.1044 25.9944 24.4112C25.8201 24.718 25.7286 25.0649 25.7291 25.4177V25.4177ZM14.2187 8.125C11.8843 8.125 9.64541 9.05236 7.9947 10.7031C6.34399 12.3538 5.41663 14.5926 5.41663 16.9271V48.0729C5.41663 50.4074 6.34399 52.6462 7.9947 54.2969C9.64541 55.9476 11.8843 56.875 14.2187 56.875H50.7812C51.9371 56.875 53.0817 56.6473 54.1496 56.205C55.2175 55.7626 56.1879 55.1143 57.0052 54.2969C57.8226 53.4796 58.4709 52.5092 58.9133 51.4413C59.3556 50.3734 59.5833 49.2288 59.5833 48.0729V16.9271C59.5833 15.7712 59.3556 14.6266 58.9133 13.5587C58.4709 12.4908 57.8226 11.5204 57.0052 10.7031C56.1879 9.88572 55.2175 9.23736 54.1496 8.79502C53.0817 8.35267 51.9371 8.125 50.7812 8.125H14.2187ZM9.47913 16.9271C9.47913 14.3108 11.6025 12.1875 14.2187 12.1875H50.7812C53.3975 12.1875 55.5208 14.3108 55.5208 16.9271V48.0729C55.5208 49.3299 55.0214 50.5355 54.1326 51.4243C53.2438 52.3131 52.0382 52.8125 50.7812 52.8125H14.2187C12.9617 52.8125 11.7562 52.3131 10.8673 51.4243C9.97847 50.5355 9.47913 49.3299 9.47913 48.0729V16.9271Z" fill="#0090D7"/>
</svg>
