<svg width="65" height="65" viewBox="0 0 65 65" fill="none" xmlns="http://www.w3.org/2000/svg">
<path d="M59.3518 31.5899C57.0159 21.03 53.5513 14.2938 47.9984 12.6523C46.9229 12.3386 45.8077 12.1821 44.6875 12.1877C41.2737 12.1877 38.5798 14.2189 32.5 14.2189C26.4202 14.2189 23.7212 12.1877 20.3125 12.1877C19.1454 12.1816 17.9833 12.338 16.8593 12.6523C11.2988 14.2938 7.86345 21.0363 5.50085 31.5899C3.08874 42.3695 3.52546 50.8868 8.2405 52.5219C11.5413 53.6645 14.4929 51.3019 17.2884 47.8247C20.4623 43.8637 24.3712 42.645 32.5 42.645C40.6288 42.645 44.3853 43.8637 47.5642 47.8247C50.3572 51.3045 53.418 53.6379 56.6312 52.5423C61.8388 50.7636 61.7652 42.4965 59.3518 31.5899Z" stroke="#209CD4" stroke-width="4" stroke-miterlimit="10"/>
<path d="M37.0703 30.9766C38.4726 30.9766 39.6094 29.8398 39.6094 28.4375C39.6094 27.0352 38.4726 25.8984 37.0703 25.8984C35.668 25.8984 34.5312 27.0352 34.5312 28.4375C34.5312 29.8398 35.668 30.9766 37.0703 30.9766Z" fill="#209CD4"/>
<path d="M42.6562 36.5625C42.1538 36.5625 41.6626 36.4134 41.245 36.1341C40.8273 35.8549 40.5018 35.4579 40.3099 34.9936C40.1179 34.5293 40.068 34.0185 40.1664 33.5258C40.2649 33.0331 40.5074 32.5806 40.8631 32.2258C41.2188 31.871 41.6719 31.6296 42.1648 31.5324C42.6577 31.4351 43.1685 31.4863 43.6323 31.6795C44.0961 31.8726 44.4923 32.1991 44.7705 32.6174C45.0487 33.0358 45.1966 33.5273 45.1953 34.0298C45.1936 34.7021 44.9254 35.3463 44.4494 35.8211C43.9734 36.2959 43.3285 36.5625 42.6562 36.5625V36.5625Z" fill="#209CD4"/>
<path d="M42.6562 25.3906C44.0585 25.3906 45.1953 24.2538 45.1953 22.8516C45.1953 21.4493 44.0585 20.3125 42.6562 20.3125C41.254 20.3125 40.1172 21.4493 40.1172 22.8516C40.1172 24.2538 41.254 25.3906 42.6562 25.3906Z" fill="#209CD4"/>
<path d="M48.2422 30.9766C49.6445 30.9766 50.7812 29.8398 50.7812 28.4375C50.7812 27.0352 49.6445 25.8984 48.2422 25.8984C46.8399 25.8984 45.7031 27.0352 45.7031 28.4375C45.7031 29.8398 46.8399 30.9766 48.2422 30.9766Z" fill="#209CD4"/>
<path d="M20.3125 22.3438V34.5312M26.4062 28.4375H14.2188" stroke="#209CD4" stroke-width="4" stroke-linecap="round" stroke-linejoin="round"/>
</svg>
