<svg width="65" height="65" viewBox="0 0 65 65" fill="none" xmlns="http://www.w3.org/2000/svg">
<g clip-path="url(#clip0_403_16518)">
<path d="M4.0625 11.4889C7.65781 9.9858 12.8131 8.36486 17.8263 7.86111C23.2294 7.31673 27.8119 8.11705 30.4688 10.9161V50.5092C26.6703 48.3561 21.8563 48.0595 17.4159 48.5064C12.6222 48.9939 7.78781 50.3792 4.0625 51.8011V11.4889ZM34.5312 10.9161C37.1881 8.11705 41.7706 7.31673 47.1738 7.86111C52.1869 8.36486 57.3422 9.9858 60.9375 11.4889V51.8011C57.2081 50.3792 52.3778 48.9899 47.5841 48.5105C43.1397 48.0595 38.3297 48.352 34.5312 50.5092V10.9161ZM32.5 7.24361C28.4984 3.80267 22.6972 3.2908 17.4159 3.81892C11.2653 4.44048 5.05781 6.54892 1.19031 8.30798C0.835449 8.46938 0.534525 8.72948 0.32346 9.05724C0.112396 9.385 0.000107946 9.76658 0 10.1564L0 54.8439C9.40956e-05 55.1838 0.0854634 55.5182 0.248288 55.8165C0.411113 56.1148 0.646188 56.3675 0.931981 56.5515C1.21777 56.7354 1.54515 56.8447 1.88412 56.8693C2.22309 56.8939 2.56282 56.8331 2.87219 56.6924C6.45531 55.0674 12.2281 53.1133 17.8222 52.5486C23.5463 51.9717 28.3441 52.902 30.9156 56.1114C31.106 56.3487 31.3471 56.5401 31.6214 56.6717C31.8956 56.8033 32.1958 56.8716 32.5 56.8716C32.8042 56.8716 33.1044 56.8033 33.3786 56.6717C33.6529 56.5401 33.894 56.3487 34.0844 56.1114C36.6559 52.902 41.4538 51.9717 47.1738 52.5486C52.7719 53.1133 58.5488 55.0674 62.1278 56.6924C62.4372 56.8331 62.7769 56.8939 63.1159 56.8693C63.4549 56.8447 63.7822 56.7354 64.068 56.5515C64.3538 56.3675 64.5889 56.1148 64.7517 55.8165C64.9145 55.5182 64.9999 55.1838 65 54.8439V10.1564C64.9999 9.76658 64.8876 9.385 64.6765 9.05724C64.4655 8.72948 64.1646 8.46938 63.8097 8.30798C59.9422 6.54892 53.7347 4.44048 47.5841 3.81892C42.3028 3.28673 36.5016 3.80267 32.5 7.24361Z" fill="#209CD4"/>
</g>
<defs>
<clipPath id="clip0_403_16518">
<rect width="65" height="65" fill="white"/>
</clipPath>
</defs>
</svg>
