<svg width="30" height="29" viewBox="0 0 30 29" fill="none" xmlns="http://www.w3.org/2000/svg">
<path d="M22.0689 28.6644H7.93089C7.67558 28.6644 7.46814 28.4559 7.46814 28.1994V2.51572C7.46814 2.2592 7.67558 2.05078 7.93089 2.05078H22.0689C22.3242 2.05078 22.5316 2.2592 22.5316 2.51572V28.1994C22.5316 28.4559 22.3242 28.6644 22.0689 28.6644ZM8.39365 27.7345H21.6061V2.98065H8.39365V27.7505V27.7345Z" fill="white"/>
<path d="M29.5375 26.5837H22.0696C21.8143 26.5837 21.6068 26.3752 21.6068 26.1187V10.0704C21.6068 9.81389 21.8143 9.60547 22.0696 9.60547H29.5375C29.7928 9.60547 30.0002 9.81389 30.0002 10.0704V26.1187C30.0002 26.3752 29.7928 26.5837 29.5375 26.5837ZM22.5323 25.6538H29.0747V10.5353H22.5323V25.6698V25.6538Z" fill="white"/>
<path d="M7.93067 26.5837H0.462755C0.207442 26.5837 0 26.3752 0 26.1187V10.0704C0 9.81389 0.207442 9.60547 0.462755 9.60547H7.93067C8.18598 9.60547 8.39342 9.81389 8.39342 10.0704V26.1187C8.39342 26.3752 8.18598 26.5837 7.93067 26.5837ZM0.925511 25.6538H7.46791V10.5353H0.925511V25.6698V25.6538Z" fill="white"/>
<path d="M15.9253 9.66705H14.0584C13.803 9.66705 13.5956 9.45863 13.5956 9.20212V8.12795H12.5265C12.2712 8.12795 12.0637 7.91953 12.0637 7.66302V5.78724C12.0637 5.53072 12.2712 5.3223 12.5265 5.3223H13.5956V4.24814C13.5956 3.99162 13.803 3.7832 14.0584 3.7832H15.9253C16.1806 3.7832 16.3881 3.99162 16.3881 4.24814V5.3223H17.4572C17.7125 5.3223 17.92 5.53072 17.92 5.78724V7.66302C17.92 7.91953 17.7125 8.12795 17.4572 8.12795H16.3881V9.20212C16.3881 9.45863 16.1806 9.66705 15.9253 9.66705ZM14.5211 8.73718H15.4626V7.66302C15.4626 7.4065 15.67 7.19808 15.9253 7.19808H16.9945V6.25218H15.9253C15.67 6.25218 15.4626 6.04376 15.4626 5.78724V4.71308H14.5211V5.78724C14.5211 6.04376 14.3137 6.25218 14.0584 6.25218H12.9892V7.19808H14.0584C14.3137 7.19808 14.5211 7.4065 14.5211 7.66302V8.73718Z" fill="white"/>
<path d="M22.8034 2.982H7.19738C6.94206 2.982 6.73462 2.77359 6.73462 2.51707V0.464936C6.73462 0.20842 6.94206 0 7.19738 0H22.8034C23.0587 0 23.2662 0.20842 23.2662 0.464936V2.51707C23.2662 2.77359 23.0587 2.982 22.8034 2.982ZM7.64417 2.05213H22.3406V0.929872H7.64417V2.05213Z" fill="white"/>
<path d="M18.6855 28.6652H11.3133C11.058 28.6652 10.8506 28.4568 10.8506 28.2003V20.4728C10.8506 20.2162 11.058 20.0078 11.3133 20.0078H18.6696C18.9249 20.0078 19.1323 20.2162 19.1323 20.4728V28.2003C19.1323 28.4568 18.9249 28.6652 18.6696 28.6652H18.6855ZM11.7761 27.7354H18.2228V20.9217H11.7761V27.7354Z" fill="white"/>
<path d="M14.9997 23.7617C14.7444 23.7617 14.537 23.5533 14.537 23.2968V20.4591C14.537 20.2026 14.7444 19.9941 14.9997 19.9941C15.2551 19.9941 15.4625 20.2026 15.4625 20.4591V23.2968C15.4625 23.5533 15.2551 23.7617 14.9997 23.7617Z" fill="white"/>
<path d="M14.9997 28.6677C14.7444 28.6677 14.537 28.4592 14.537 28.2027V25.3009C14.537 25.0444 14.7444 24.8359 14.9997 24.8359C15.2551 24.8359 15.4625 25.0444 15.4625 25.3009V28.2027C15.4625 28.4592 15.2551 28.6677 14.9997 28.6677Z" fill="white"/>
<path d="M6.15919 16.3065H2.23375C1.97844 16.3065 1.771 16.0981 1.771 15.8415V13.1642C1.771 12.9076 1.97844 12.6992 2.23375 12.6992H6.15919C6.41451 12.6992 6.62195 12.9076 6.62195 13.1642V15.8415C6.62195 16.0981 6.41451 16.3065 6.15919 16.3065ZM2.69651 15.3766H5.69644V13.6131H2.69651V15.3766Z" fill="white"/>
<path d="M6.15919 21.8495H2.23375C1.97844 21.8495 1.771 21.641 1.771 21.3845V18.7071C1.771 18.4506 1.97844 18.2422 2.23375 18.2422H6.15919C6.41451 18.2422 6.62195 18.4506 6.62195 18.7071V21.3845C6.62195 21.641 6.41451 21.8495 6.15919 21.8495ZM2.69651 20.9196H5.69644V19.156H2.69651V20.9196Z" fill="white"/>
<path d="M27.766 16.3065H23.8406C23.5852 16.3065 23.3778 16.0981 23.3778 15.8415V13.1642C23.3778 12.9076 23.5852 12.6992 23.8406 12.6992H27.766C28.0213 12.6992 28.2288 12.9076 28.2288 13.1642V15.8415C28.2288 16.0981 28.0213 16.3065 27.766 16.3065ZM24.3033 15.3766H27.3033V13.6131H24.3033V15.3766Z" fill="white"/>
<path d="M27.766 21.8495H23.8406C23.5852 21.8495 23.3778 21.641 23.3778 21.3845V18.7071C23.3778 18.4506 23.5852 18.2422 23.8406 18.2422H27.766C28.0213 18.2422 28.2288 18.4506 28.2288 18.7071V21.3845C28.2288 21.641 28.0213 21.8495 27.766 21.8495ZM24.3033 20.9196H27.3033V19.156H24.3033V20.9196Z" fill="white"/>
<path d="M11.9044 18.8049H9.60655C9.35124 18.8049 9.1438 18.5964 9.1438 18.3399V15.7267C9.1438 15.4701 9.35124 15.2617 9.60655 15.2617H11.9044C12.1597 15.2617 12.3671 15.4701 12.3671 15.7267V18.3399C12.3671 18.5964 12.1597 18.8049 11.9044 18.8049ZM10.0693 17.875H11.4576V16.1756H10.0693V17.875Z" fill="white"/>
<path d="M16.1488 18.8049H13.8509C13.5956 18.8049 13.3882 18.5964 13.3882 18.3399V15.7267C13.3882 15.4701 13.5956 15.2617 13.8509 15.2617H16.1488C16.4041 15.2617 16.6115 15.4701 16.6115 15.7267V18.3399C16.6115 18.5964 16.4041 18.8049 16.1488 18.8049ZM14.3137 17.875H15.702V16.1756H14.3137V17.875Z" fill="white"/>
<path d="M20.394 18.8049H18.0962C17.8409 18.8049 17.6334 18.5964 17.6334 18.3399V15.7267C17.6334 15.4701 17.8409 15.2617 18.0962 15.2617H20.394C20.6493 15.2617 20.8568 15.4701 20.8568 15.7267V18.3399C20.8568 18.5964 20.6493 18.8049 20.394 18.8049ZM18.5589 17.875H19.9472V16.1756H18.5589V17.875Z" fill="white"/>
<path d="M11.9044 14.3322H9.60655C9.35124 14.3322 9.1438 14.1238 9.1438 13.8673V11.254C9.1438 10.9975 9.35124 10.7891 9.60655 10.7891H11.9044C12.1597 10.7891 12.3671 10.9975 12.3671 11.254V13.8673C12.3671 14.1238 12.1597 14.3322 11.9044 14.3322ZM10.0693 13.4023H11.4576V11.7029H10.0693V13.4023Z" fill="white"/>
<path d="M16.1488 14.3322H13.8509C13.5956 14.3322 13.3882 14.1238 13.3882 13.8673V11.254C13.3882 10.9975 13.5956 10.7891 13.8509 10.7891H16.1488C16.4041 10.7891 16.6115 10.9975 16.6115 11.254V13.8673C16.6115 14.1238 16.4041 14.3322 16.1488 14.3322ZM14.3137 13.4023H15.702V11.7029H14.3137V13.4023Z" fill="white"/>
<path d="M20.394 14.3322H18.0962C17.8409 14.3322 17.6334 14.1238 17.6334 13.8673V11.254C17.6334 10.9975 17.8409 10.7891 18.0962 10.7891H20.394C20.6493 10.7891 20.8568 10.9975 20.8568 11.254V13.8673C20.8568 14.1238 20.6493 14.3322 20.394 14.3322ZM18.5589 13.4023H19.9472V11.7029H18.5589V13.4023Z" fill="white"/>
<path d="M26.5368 28.6642H3.46288C3.20756 28.6642 3.00012 28.4558 3.00012 28.1993C3.00012 27.9428 3.20756 27.7344 3.46288 27.7344H26.5528C26.8081 27.7344 27.0155 27.9428 27.0155 28.1993C27.0155 28.4558 26.8081 28.6642 26.5528 28.6642H26.5368Z" fill="white"/>
</svg>
