<svg width="93" height="75" viewBox="0 0 93 75" fill="none" xmlns="http://www.w3.org/2000/svg">
<path fill-rule="evenodd" clip-rule="evenodd" d="M56.7844 69.9714C51.2262 63.935 47.0026 55.3747 46.5418 44.9175C46.5141 44.2893 46.5 43.6543 46.5 43.0125C46.5 42.7881 46.5444 42.5748 46.5886 42.3623L46.5886 42.3622C46.6159 42.2307 46.6432 42.0996 46.6598 41.9662C46.4938 41.9596 46.3308 41.9348 46.1667 41.9097L46.1665 41.9097L46.1665 41.9097C45.9716 41.88 45.7751 41.85 45.57 41.85H43.1433C42.8036 42.0061 42.4599 42.155 42.1124 42.2967C39.1594 43.5003 35.9303 44.175 32.55 44.175C28.7719 44.175 25.1972 43.3322 21.9567 41.85H19.53C8.74781 41.85 0 50.5978 0 61.38V67.425C0 71.2758 3.12422 74.4 6.975 74.4H58.125C59.1131 74.4 60.0577 74.182 60.915 73.8187C59.963 73.0625 59.0299 72.2401 58.125 71.3541C57.6706 70.9091 57.2233 70.4482 56.7844 69.9714ZM51.012 69.9714C46.3909 63.9149 43.0058 56.1224 42.2368 46.9792C39.2016 48.0256 35.9413 48.6036 32.55 48.6036C28.459 48.6036 24.576 47.7625 21.0311 46.2786H19.53C11.1936 46.2786 4.42857 53.0436 4.42857 61.38V67.425C4.42857 68.8299 5.57005 69.9714 6.975 69.9714H51.012ZM72.0973 36.9883L72.0912 36.987L72.0863 36.9862C72.0812 36.9854 72.0765 36.9849 72.0725 36.9846C72.0676 36.9843 72.0648 36.9843 72.0636 36.9844C72.0631 36.9845 72.0623 36.9848 72.061 36.9852C72.0601 36.9855 72.059 36.9858 72.0577 36.9863L72.0547 36.9874L55.581 43.4225C55.747 57.5316 64.4602 66.9847 72.0583 69.9639L72.0633 69.9656L72.0661 69.9655C72.0732 69.965 72.0838 69.9635 72.0963 69.9605C72.1023 69.9591 72.107 69.9577 72.1097 69.9569C78.1502 67.5868 88.3928 59.0666 88.5691 43.4226L72.0973 36.9883ZM73.688 74.0948C73.0777 74.3273 71.857 74.6325 70.462 74.0948C61.133 70.4475 51.15 59.2294 51.15 43.0125C51.15 41.4286 52.1672 40.0045 53.722 39.3942L70.462 32.8552C71.857 32.3175 73.0922 32.6227 73.688 32.8552L90.428 39.3942C91.9828 40.0045 93 41.4286 93 43.0125C93 61.1039 81.1425 71.1886 73.688 74.0948ZM32.55 32.7714C40.3778 32.7714 46.7214 26.4278 46.7214 18.6C46.7214 10.7722 40.3778 4.42857 32.55 4.42857C24.7222 4.42857 18.3786 10.7722 18.3786 18.6C18.3786 26.4278 24.7222 32.7714 32.55 32.7714ZM51.15 18.6C51.15 28.8736 42.8236 37.2 32.55 37.2C22.2764 37.2 13.95 28.8736 13.95 18.6C13.95 8.32641 22.2764 0 32.55 0C42.8236 0 51.15 8.32641 51.15 18.6ZM71.7427 45.1714C72.7211 45.1714 73.5142 45.9645 73.5142 46.9429V51.8143H78.3855C79.3638 51.8143 80.1569 52.6074 80.1569 53.5857C80.1569 54.564 79.3638 55.3571 78.3855 55.3571H73.5142V60.2286C73.5142 61.2069 72.7211 62 71.7427 62C70.7644 62 69.9713 61.2069 69.9713 60.2286V55.3571H65.0998C64.1215 55.3571 63.3284 54.564 63.3284 53.5857C63.3284 52.6074 64.1215 51.8143 65.0998 51.8143H69.9713V46.9429C69.9713 45.9645 70.7644 45.1714 71.7427 45.1714Z" fill="#0081A4"/>
<path fill-rule="evenodd" clip-rule="evenodd" d="M56.7844 69.9714C51.2262 63.935 47.0026 55.3747 46.5418 44.9175C46.5141 44.2893 46.5 43.6543 46.5 43.0125C46.5 42.7881 46.5444 42.5748 46.5886 42.3623L46.5886 42.3622C46.6159 42.2307 46.6432 42.0996 46.6598 41.9662C46.4938 41.9596 46.3308 41.9348 46.1667 41.9097L46.1665 41.9097L46.1665 41.9097C45.9716 41.88 45.7751 41.85 45.57 41.85H43.1433C42.8036 42.0061 42.4599 42.155 42.1124 42.2967C39.1594 43.5003 35.9303 44.175 32.55 44.175C28.7719 44.175 25.1972 43.3322 21.9567 41.85H19.53C8.74781 41.85 0 50.5978 0 61.38V67.425C0 71.2758 3.12422 74.4 6.975 74.4H58.125C59.1131 74.4 60.0577 74.182 60.915 73.8187C59.963 73.0625 59.0299 72.2401 58.125 71.3541C57.6706 70.9091 57.2233 70.4482 56.7844 69.9714ZM51.012 69.9714C46.3909 63.9149 43.0058 56.1224 42.2368 46.9792C39.2016 48.0256 35.9413 48.6036 32.55 48.6036C28.459 48.6036 24.576 47.7625 21.0311 46.2786H19.53C11.1936 46.2786 4.42857 53.0436 4.42857 61.38V67.425C4.42857 68.8299 5.57005 69.9714 6.975 69.9714H51.012ZM72.0973 36.9883L72.0912 36.987L72.0863 36.9862C72.0812 36.9854 72.0765 36.9849 72.0725 36.9846C72.0676 36.9843 72.0648 36.9843 72.0636 36.9844C72.0631 36.9845 72.0623 36.9848 72.061 36.9852C72.0601 36.9855 72.059 36.9858 72.0577 36.9863L72.0547 36.9874L55.581 43.4225C55.747 57.5316 64.4602 66.9847 72.0583 69.9639L72.0633 69.9656L72.0661 69.9655C72.0732 69.965 72.0838 69.9635 72.0963 69.9605C72.1023 69.9591 72.107 69.9577 72.1097 69.9569C78.1502 67.5868 88.3928 59.0666 88.5691 43.4226L72.0973 36.9883ZM73.688 74.0948C73.0777 74.3273 71.857 74.6325 70.462 74.0948C61.133 70.4475 51.15 59.2294 51.15 43.0125C51.15 41.4286 52.1672 40.0045 53.722 39.3942L70.462 32.8552C71.857 32.3175 73.0922 32.6227 73.688 32.8552L90.428 39.3942C91.9828 40.0045 93 41.4286 93 43.0125C93 61.1039 81.1425 71.1886 73.688 74.0948ZM32.55 32.7714C40.3778 32.7714 46.7214 26.4278 46.7214 18.6C46.7214 10.7722 40.3778 4.42857 32.55 4.42857C24.7222 4.42857 18.3786 10.7722 18.3786 18.6C18.3786 26.4278 24.7222 32.7714 32.55 32.7714ZM51.15 18.6C51.15 28.8736 42.8236 37.2 32.55 37.2C22.2764 37.2 13.95 28.8736 13.95 18.6C13.95 8.32641 22.2764 0 32.55 0C42.8236 0 51.15 8.32641 51.15 18.6ZM71.7427 45.1714C72.7211 45.1714 73.5142 45.9645 73.5142 46.9429V51.8143H78.3855C79.3638 51.8143 80.1569 52.6074 80.1569 53.5857C80.1569 54.564 79.3638 55.3571 78.3855 55.3571H73.5142V60.2286C73.5142 61.2069 72.7211 62 71.7427 62C70.7644 62 69.9713 61.2069 69.9713 60.2286V55.3571H65.0998C64.1215 55.3571 63.3284 54.564 63.3284 53.5857C63.3284 52.6074 64.1215 51.8143 65.0998 51.8143H69.9713V46.9429C69.9713 45.9645 70.7644 45.1714 71.7427 45.1714Z" fill="url(#paint0_linear_42_289)"/>
<defs>
<linearGradient id="paint0_linear_42_289" x1="46.5" y1="0" x2="46.5" y2="74.4" gradientUnits="userSpaceOnUse">
<stop stop-color="#3BC1CD"/>
<stop offset="1" stop-color="#0081A4" stop-opacity="0"/>
</linearGradient>
</defs>
</svg>
