<svg width="83" height="83" viewBox="0 0 83 83" fill="none" xmlns="http://www.w3.org/2000/svg">
<path d="M64.5453 9.98009C57.3063 8.03209 49.7795 9.47096 43.8687 13.6105L41.3893 3.16209C40.858 0.948446 38.6221 -0.401874 36.3862 0.107263C34.1503 0.638536 32.7778 2.87431 33.3091 5.11009L34.7702 11.2197C29.7449 9.02823 24.0334 8.49695 18.4547 9.98009C5.19429 13.5441 -2.70884 27.2243 0.855321 40.484L7.29737 64.5463C10.8615 77.806 24.5647 85.7087 37.803 82.1447C39.0427 81.8127 40.2382 81.37 41.5 80.7723C42.7618 81.37 43.9794 81.8127 45.197 82.1447C47.3443 82.7203 49.5138 82.9859 51.639 82.9859C62.6414 82.9859 72.714 75.6366 75.7026 64.5242L82.1447 40.4619C85.7088 27.2243 77.8057 13.5441 64.5453 9.98009ZM74.1309 38.3368L67.6888 62.3991C65.3201 71.2315 56.2215 76.4999 47.3443 74.1314C46.1489 73.8214 44.9313 73.2902 43.5367 72.4933C42.8947 72.1391 42.2084 71.962 41.5 71.962C40.7916 71.962 40.1053 72.1391 39.4633 72.4933C38.0465 73.2902 36.8511 73.7993 35.6557 74.1314C26.8006 76.4999 17.6799 71.2315 15.3112 62.3991L8.86914 38.3368C6.50041 29.5044 11.7692 20.3621 20.6021 17.9935C27.177 16.2226 34.0839 18.6354 38.1794 24.1031C38.2236 24.1695 38.3122 24.1917 38.3565 24.2359C38.7107 24.6565 39.1313 24.9886 39.6183 25.2542C39.6404 25.2542 39.6404 25.2763 39.6626 25.2763C40.216 25.5641 40.8359 25.7633 41.4779 25.7633C41.7878 25.7633 42.1199 25.7191 42.4298 25.6527C42.7176 25.5862 42.9168 25.4313 43.1825 25.3206C43.271 25.2763 43.3596 25.2542 43.426 25.2099C43.8466 24.9886 44.2008 24.7008 44.5107 24.3466C44.5993 24.2581 44.71 24.2138 44.7985 24.1252C48.894 18.6576 55.8009 16.2447 62.3758 18.0156C71.2308 20.3842 76.4996 29.5044 74.1309 38.3368Z" fill="#0081A4"/>
<path d="M64.5453 9.98009C57.3063 8.03209 49.7795 9.47096 43.8687 13.6105L41.3893 3.16209C40.858 0.948446 38.6221 -0.401874 36.3862 0.107263C34.1503 0.638536 32.7778 2.87431 33.3091 5.11009L34.7702 11.2197C29.7449 9.02823 24.0334 8.49695 18.4547 9.98009C5.19429 13.5441 -2.70884 27.2243 0.855321 40.484L7.29737 64.5463C10.8615 77.806 24.5647 85.7087 37.803 82.1447C39.0427 81.8127 40.2382 81.37 41.5 80.7723C42.7618 81.37 43.9794 81.8127 45.197 82.1447C47.3443 82.7203 49.5138 82.9859 51.639 82.9859C62.6414 82.9859 72.714 75.6366 75.7026 64.5242L82.1447 40.4619C85.7088 27.2243 77.8057 13.5441 64.5453 9.98009ZM74.1309 38.3368L67.6888 62.3991C65.3201 71.2315 56.2215 76.4999 47.3443 74.1314C46.1489 73.8214 44.9313 73.2902 43.5367 72.4933C42.8947 72.1391 42.2084 71.962 41.5 71.962C40.7916 71.962 40.1053 72.1391 39.4633 72.4933C38.0465 73.2902 36.8511 73.7993 35.6557 74.1314C26.8006 76.4999 17.6799 71.2315 15.3112 62.3991L8.86914 38.3368C6.50041 29.5044 11.7692 20.3621 20.6021 17.9935C27.177 16.2226 34.0839 18.6354 38.1794 24.1031C38.2236 24.1695 38.3122 24.1917 38.3565 24.2359C38.7107 24.6565 39.1313 24.9886 39.6183 25.2542C39.6404 25.2542 39.6404 25.2763 39.6626 25.2763C40.216 25.5641 40.8359 25.7633 41.4779 25.7633C41.7878 25.7633 42.1199 25.7191 42.4298 25.6527C42.7176 25.5862 42.9168 25.4313 43.1825 25.3206C43.271 25.2763 43.3596 25.2542 43.426 25.2099C43.8466 24.9886 44.2008 24.7008 44.5107 24.3466C44.5993 24.2581 44.71 24.2138 44.7985 24.1252C48.894 18.6576 55.8009 16.2447 62.3758 18.0156C71.2308 20.3842 76.4996 29.5044 74.1309 38.3368Z" fill="url(#paint0_linear)"/>
<defs>
<linearGradient id="paint0_linear" x1="41.5" y1="0" x2="41.5" y2="83" gradientUnits="userSpaceOnUse">
<stop stop-color="#3BC1CD"/>
<stop offset="1" stop-color="white" stop-opacity="0"/>
</linearGradient>
</defs>
</svg>
