<svg width="81" height="70" viewBox="0 0 81 70" fill="none" xmlns="http://www.w3.org/2000/svg">
<path d="M54.75 27.5H46V18.75C46 18.125 45.375 17.5 44.75 17.5H37.25C36.4688 17.5 36 18.125 36 18.75V27.5H27.25C26.4688 27.5 26 28.125 26 28.75V36.25C26 37.0312 26.4688 37.5 27.25 37.5H36V46.25C36 47.0312 36.4688 47.5 37.25 47.5H44.75C45.375 47.5 46 47.0312 46 46.25V37.5H54.75C55.375 37.5 56 37.0312 56 36.25V28.75C56 28.125 55.375 27.5 54.75 27.5ZM41 0C18.8125 0 1 14.6875 1 32.5C1 40 3.96875 46.875 9.125 52.3438C6.9375 58.4375 2.09375 63.75 1.9375 63.75C1.3125 64.375 0.84375 65.3125 0.84375 66.25C0.84375 68.4375 2.5625 70 4.59375 70C4.59375 70 4.59375 70 4.75 70C14.2812 70 21.9375 66.0938 26.4688 62.8125C31 64.2188 35.8438 65 40.8438 65C40.8438 65 40.8438 65 41 65C63.0312 65 81 50.4688 81 32.5C81 14.6875 63.0312 0 41 0ZM41 60H40.8438C36.3125 60 31.9375 59.375 27.875 58.125L25.5312 57.3438L23.5 58.75C19.9062 61.25 14.4375 64.2188 7.5625 65C9.4375 62.5 12.0938 58.5938 13.8125 54.0625L14.9062 51.0938L12.875 48.9062C8.34375 44.0625 6 38.4375 6 32.5C6 17.3438 21.625 5 41 5C60.2188 5 76 17.3438 76 32.5C76 47.6562 60.2188 60 41 60Z" fill="#0081A4"/>
<path d="M54.75 27.5H46V18.75C46 18.125 45.375 17.5 44.75 17.5H37.25C36.4688 17.5 36 18.125 36 18.75V27.5H27.25C26.4688 27.5 26 28.125 26 28.75V36.25C26 37.0312 26.4688 37.5 27.25 37.5H36V46.25C36 47.0312 36.4688 47.5 37.25 47.5H44.75C45.375 47.5 46 47.0312 46 46.25V37.5H54.75C55.375 37.5 56 37.0312 56 36.25V28.75C56 28.125 55.375 27.5 54.75 27.5ZM41 0C18.8125 0 1 14.6875 1 32.5C1 40 3.96875 46.875 9.125 52.3438C6.9375 58.4375 2.09375 63.75 1.9375 63.75C1.3125 64.375 0.84375 65.3125 0.84375 66.25C0.84375 68.4375 2.5625 70 4.59375 70C4.59375 70 4.59375 70 4.75 70C14.2812 70 21.9375 66.0938 26.4688 62.8125C31 64.2188 35.8438 65 40.8438 65C40.8438 65 40.8438 65 41 65C63.0312 65 81 50.4688 81 32.5C81 14.6875 63.0312 0 41 0ZM41 60H40.8438C36.3125 60 31.9375 59.375 27.875 58.125L25.5312 57.3438L23.5 58.75C19.9062 61.25 14.4375 64.2188 7.5625 65C9.4375 62.5 12.0938 58.5938 13.8125 54.0625L14.9062 51.0938L12.875 48.9062C8.34375 44.0625 6 38.4375 6 32.5C6 17.3438 21.625 5 41 5C60.2188 5 76 17.3438 76 32.5C76 47.6562 60.2188 60 41 60Z" fill="url(#paint0_linear_4_19)"/>
<defs>
<linearGradient id="paint0_linear_4_19" x1="41" y1="-5" x2="41" y2="75" gradientUnits="userSpaceOnUse">
<stop stop-color="#3BC1CD"/>
<stop offset="1" stop-color="white" stop-opacity="0"/>
</linearGradient>
</defs>
</svg>
