<svg width="55" height="78" viewBox="0 0 55 78" fill="none" xmlns="http://www.w3.org/2000/svg">
<path fill-rule="evenodd" clip-rule="evenodd" d="M54.6 78H0V0H54.6V78ZM7.8 70.2H46.8V54.6H7.8V70.2ZM7.8 46.8H46.8V7.8H7.8V46.8ZM19.5 58.5H35.1V66.3H19.5V58.5Z" fill="#0081A4"/>
<path fill-rule="evenodd" clip-rule="evenodd" d="M54.6 78H0V0H54.6V78ZM7.8 70.2H46.8V54.6H7.8V70.2ZM7.8 46.8H46.8V7.8H7.8V46.8ZM19.5 58.5H35.1V66.3H19.5V58.5Z" fill="url(#paint0_linear)"/>
<path d="M30.8683 17.4255H24.1471V24.1468H17.4258V30.8681H24.1471V37.5894H30.8683V30.8681H37.5896V24.1468H30.8683V17.4255Z" fill="#0081A4"/>
<path d="M30.8683 17.4255H24.1471V24.1468H17.4258V30.8681H24.1471V37.5894H30.8683V30.8681H37.5896V24.1468H30.8683V17.4255Z" fill="url(#paint1_linear)"/>
<defs>
<linearGradient id="paint0_linear" x1="27.3" y1="0" x2="27.3" y2="78" gradientUnits="userSpaceOnUse">
<stop stop-color="#3BC1CD"/>
<stop offset="1" stop-color="white" stop-opacity="0"/>
</linearGradient>
<linearGradient id="paint1_linear" x1="27.5077" y1="17.4255" x2="27.5077" y2="37.5894" gradientUnits="userSpaceOnUse">
<stop stop-color="#3BC1CD"/>
<stop offset="1" stop-color="white" stop-opacity="0"/>
</linearGradient>
</defs>
</svg>
