<svg width="160" height="73" viewBox="0 0 160 73" fill="none" xmlns="http://www.w3.org/2000/svg">
<path d="M156.354 54.8537C156.419 54.6805 156.332 54.4858 156.159 54.4208C154.373 53.7824 153.508 52.7435 153.367 51.1744C153.183 49.0751 154.666 47.2462 156.592 47.1921C158.594 47.138 160.141 48.9019 159.99 51.0878C159.86 53.0032 159.232 54.7563 158.139 56.3362C157.23 57.6564 157.176 57.7105 155.856 56.8665C155.726 56.7799 155.672 56.6176 155.726 56.4769C155.921 55.9466 156.137 55.4164 156.354 54.8537Z" fill="#00CC99"/>
<path d="M24.9603 19.76C24.8953 19.9331 24.9819 20.1279 25.1551 20.1928C26.9406 20.8313 27.8063 21.8701 27.947 23.4392C28.1309 25.5386 26.6484 27.3674 24.7222 27.4215C22.7202 27.4756 21.1728 25.7117 21.3243 23.5258C21.4541 21.6104 22.0818 19.8574 23.1747 18.2774C24.0837 16.9572 24.1378 16.9031 25.458 17.7472C25.5879 17.8338 25.642 17.9961 25.5879 18.1367C25.3931 18.6562 25.1767 19.1972 24.9603 19.76Z" fill="#00CC99"/>
<path d="M8.91211 54.3126C7.343 54.3126 6.00114 54.1178 4.87572 53.7283C3.75029 53.3387 2.8413 52.8625 2.14873 52.2998C1.44533 51.7371 0.925906 51.1852 0.5688 50.6225C0.222515 50.0598 0.0277299 49.6161 0.00608705 49.2807C-0.0263772 48.9777 0.0710152 48.7396 0.298265 48.5664C0.525514 48.4041 0.741942 48.3176 0.969192 48.3176H2.86294C3.00362 48.3176 3.12265 48.3392 3.22004 48.3825C3.31744 48.4258 3.44729 48.5448 3.62044 48.7396C3.98836 49.1292 4.38876 49.5187 4.84326 49.9191C5.28693 50.3087 5.83882 50.6333 6.49893 50.8822C7.15904 51.1311 7.97064 51.261 8.95539 51.261C10.3838 51.261 11.5633 50.9904 12.4832 50.4385C13.403 49.8975 13.8683 49.0859 13.8683 48.0254C13.8683 47.322 13.6843 46.7701 13.3056 46.3481C12.9268 45.926 12.2559 45.5473 11.2928 45.2118C10.3297 44.8763 8.99868 44.5301 7.32136 44.1621C5.64404 43.7726 4.31301 43.2856 3.32826 42.7121C2.34351 42.1385 1.65094 41.4568 1.22891 40.656C0.806872 39.8552 0.601264 38.957 0.601264 37.9506C0.601264 36.9118 0.904264 35.9162 1.52108 34.9423C2.1379 33.9792 3.03608 33.1892 4.22643 32.5724C5.41679 31.9556 6.91014 31.6526 8.69568 31.6526C10.1566 31.6526 11.401 31.8366 12.4399 32.1937C13.4787 32.5616 14.3336 33.0161 15.0046 33.5572C15.6755 34.0982 16.1841 34.6393 16.5196 35.1695C16.855 35.6998 17.039 36.1543 17.0606 36.5114C17.0931 36.7928 17.0065 37.02 16.8117 37.204C16.6169 37.3879 16.3897 37.4745 16.1408 37.4745H14.3769C14.1821 37.4745 14.0198 37.4312 13.89 37.3446C13.7601 37.2581 13.6411 37.1607 13.5328 37.0525C13.2515 36.6845 12.9268 36.3274 12.5481 35.9595C12.1693 35.5916 11.6824 35.2994 11.0764 35.0613C10.4704 34.8233 9.68043 34.7042 8.7065 34.7042C7.31054 34.7042 6.26086 34.9964 5.55747 35.5916C4.85408 36.1759 4.50779 36.9226 4.50779 37.8208C4.50779 38.351 4.65929 38.8272 4.97311 39.2492C5.27611 39.6713 5.87129 40.05 6.737 40.3855C7.60271 40.7209 8.89046 41.0889 10.6002 41.4784C12.4507 41.8464 13.9008 42.3333 14.9721 42.9501C16.0326 43.567 16.7901 44.2812 17.2446 45.0928C17.6883 45.9044 17.9155 46.8458 17.9155 47.9063C17.9155 49.0859 17.58 50.1572 16.9091 51.1419C16.2382 52.1267 15.2318 52.895 13.8791 53.4685C12.5265 54.0313 10.8708 54.3126 8.91211 54.3126Z" fill="white"/>
<path d="M23.7374 53.8906C23.456 53.8906 23.2288 53.804 23.0448 53.62C22.8609 53.4361 22.7743 53.2088 22.7743 52.9275V33.0161C22.7743 32.7347 22.8609 32.5075 23.0448 32.3235C23.2288 32.1395 23.456 32.053 23.7374 32.053H25.7502C26.0315 32.053 26.2588 32.1395 26.4427 32.3235C26.6267 32.5075 26.7133 32.7347 26.7133 33.0161V52.9275C26.7133 53.2088 26.6267 53.4361 26.4427 53.62C26.2588 53.804 26.0315 53.8906 25.7502 53.8906H23.7374Z" fill="white"/>
<path d="M34.2883 53.8906C34.0069 53.8906 33.7797 53.804 33.5957 53.6201C33.4118 53.4361 33.3252 53.2089 33.3252 52.9275V33.0161C33.3252 32.7348 33.4118 32.5075 33.5957 32.3235C33.7797 32.1396 34.0069 32.053 34.2883 32.053H36.1712C36.4526 32.053 36.6798 32.1396 36.8638 32.3235C37.0478 32.5075 37.1343 32.7348 37.1343 33.0161V34.4878C37.7836 33.6221 38.5952 32.9295 39.5691 32.4101C40.5539 31.8907 41.7226 31.631 43.0969 31.631C46.2568 31.5985 48.4968 32.8863 49.817 35.4942C50.4555 34.3147 51.3969 33.384 52.6306 32.6806C53.8642 31.9773 55.2602 31.631 56.8293 31.631C58.2902 31.631 59.6104 31.9664 60.8007 32.6374C61.9911 33.3083 62.9326 34.3255 63.6143 35.6782C64.2961 37.0417 64.6423 38.7406 64.6423 40.7859V52.9275C64.6423 53.2089 64.5558 53.4361 64.3718 53.6201C64.1878 53.804 63.9606 53.8906 63.6792 53.8906H61.7097C61.4284 53.8906 61.2011 53.804 61.0172 53.6201C60.8332 53.4361 60.7466 53.2089 60.7466 52.9275V41.1646C60.7466 39.5955 60.5194 38.3619 60.0757 37.4637C59.632 36.5655 59.026 35.9379 58.2685 35.57C57.511 35.202 56.6886 35.0289 55.7904 35.0289C55.0654 35.0289 54.3187 35.2129 53.5612 35.57C52.8037 35.9379 52.1761 36.5655 51.6891 37.4637C51.2022 38.3619 50.9533 39.5955 50.9533 41.1646V52.9275C50.9533 53.2089 50.8667 53.4361 50.6827 53.6201C50.4988 53.804 50.2715 53.8906 49.9902 53.8906H48.0207C47.7393 53.8906 47.5121 53.804 47.3281 53.6201C47.1441 53.4361 47.0576 53.2089 47.0576 52.9275V41.1646C47.0576 39.5955 46.8195 38.3619 46.3433 37.4637C45.8672 36.5655 45.2504 35.9379 44.4929 35.57C43.7354 35.202 42.9346 35.0289 42.1014 35.0289C41.3763 35.0289 40.6296 35.2129 39.8721 35.57C39.1146 35.9379 38.4978 36.5655 38 37.4637C37.5131 38.3619 37.2642 39.5739 37.2642 41.1213V52.9275C37.2642 53.2089 37.1776 53.4361 36.9936 53.6201C36.8097 53.804 36.5824 53.8906 36.3011 53.8906H34.2883Z" fill="white"/>
<path d="M71.6762 61.8768C71.3949 61.8768 71.1676 61.7902 70.9837 61.6063C70.7997 61.4223 70.7131 61.1951 70.7131 60.9137V33.0161C70.7131 32.7348 70.7997 32.5075 70.9837 32.3236C71.1676 32.1396 71.3949 32.053 71.6762 32.053H73.6133C73.8946 32.053 74.1219 32.1396 74.3058 32.3236C74.4898 32.5075 74.5764 32.7348 74.5764 33.0161V34.8666C75.2473 33.9468 76.1455 33.1676 77.2601 32.5508C78.3747 31.934 79.7815 31.631 81.4588 31.631C83.0279 31.631 84.3589 31.9015 85.4735 32.4318C86.5773 32.962 87.4863 33.687 88.2005 34.6177C88.9147 35.5375 89.4558 36.5872 89.8129 37.7667C90.1808 38.9463 90.3864 40.2015 90.4406 41.5434C90.473 41.9871 90.4838 42.4632 90.4838 42.9718C90.4838 43.4804 90.473 43.9566 90.4406 44.4002C90.3864 45.7205 90.17 46.9649 89.8129 48.1553C89.445 49.3456 88.9147 50.3953 88.2005 51.3043C87.4863 52.2133 86.5773 52.9383 85.4735 53.4902C84.3697 54.0313 83.0279 54.3126 81.4588 54.3126C79.8356 54.3126 78.4721 54.0096 77.3575 53.4145C76.2537 52.8085 75.3447 52.0618 74.6521 51.1636V60.9137C74.6521 61.1951 74.5656 61.4223 74.4032 61.6063C74.2301 61.7902 74.0137 61.8768 73.7323 61.8768H71.6762ZM80.5823 50.9147C82.0431 50.9147 83.1794 50.6009 84.0018 49.9733C84.8242 49.3456 85.4194 48.5232 85.7874 47.4952C86.1553 46.4779 86.3609 45.3742 86.415 44.1946C86.4475 43.383 86.4475 42.5714 86.415 41.7598C86.3609 40.5803 86.1445 39.4873 85.7874 38.4593C85.4194 37.4421 84.8242 36.6088 84.0018 35.9812C83.1794 35.3535 82.0323 35.0397 80.5823 35.0397C79.2079 35.0397 78.0933 35.3644 77.2384 36.0028C76.3836 36.6521 75.7559 37.4637 75.3447 38.4593C74.9335 39.4549 74.7062 40.4721 74.6521 41.5001C74.6197 41.9438 74.6088 42.4849 74.6088 43.1017C74.6088 43.7185 74.6197 44.2596 74.6521 44.7357C74.6846 45.7205 74.9118 46.6836 75.3447 47.6358C75.7776 48.5881 76.4268 49.3781 77.3034 49.9841C78.1691 50.6009 79.262 50.9147 80.5823 50.9147Z" fill="white"/>
<path d="M96.7061 53.8906C96.4248 53.8906 96.1975 53.804 96.0136 53.62C95.8296 53.4361 95.743 53.2088 95.743 52.9275V25.0299C95.743 24.7485 95.8296 24.5213 96.0136 24.3373C96.1975 24.1533 96.4248 24.0668 96.7061 24.0668H98.6756C98.9786 24.0668 99.2167 24.1533 99.3899 24.3373C99.563 24.5213 99.6387 24.7485 99.6387 25.0299V52.9275C99.6387 53.2088 99.5522 53.4361 99.3899 53.62C99.2167 53.804 98.9786 53.8906 98.6756 53.8906H96.7061Z" fill="white"/>
<path d="M114.648 54.3126C111.737 54.3126 109.421 53.4253 107.712 51.6397C106.002 49.865 105.06 47.4302 104.898 44.3461C104.865 43.9782 104.855 43.5128 104.855 42.9393C104.855 42.3658 104.865 41.9005 104.898 41.5325C105.006 39.5414 105.472 37.7991 106.283 36.3058C107.095 34.8124 108.209 33.6545 109.627 32.8429C111.045 32.0313 112.7 31.6201 114.605 31.6201C116.737 31.6201 118.522 32.0638 119.961 32.962C121.401 33.8601 122.504 35.1371 123.262 36.7819C124.019 38.4376 124.398 40.3638 124.398 42.5822V43.2964C124.398 43.6102 124.312 43.8375 124.128 44.0106C123.944 44.1838 123.716 44.2595 123.435 44.2595H108.891V44.4327V44.6383C108.945 45.7853 109.194 46.8567 109.649 47.8522C110.092 48.8478 110.752 49.6486 111.596 50.2654C112.451 50.8822 113.447 51.1852 114.605 51.1852C115.611 51.1852 116.455 51.0337 117.126 50.7199C117.797 50.4169 118.349 50.0706 118.76 49.6919C119.182 49.3131 119.464 49.0101 119.604 48.7937C119.853 48.4582 120.048 48.2526 120.189 48.1877C120.329 48.1228 120.557 48.0795 120.86 48.0795H122.916C123.164 48.0795 123.381 48.1552 123.565 48.3067C123.749 48.4582 123.825 48.6747 123.792 48.956C123.76 49.378 123.543 49.8867 123.121 50.4926C122.699 51.0986 122.104 51.6938 121.336 52.2782C120.567 52.8625 119.615 53.3495 118.479 53.7283C117.353 54.1286 116.076 54.3126 114.648 54.3126ZM108.891 41.381H120.405V41.2512C120.405 39.9959 120.178 38.8705 119.712 37.8857C119.247 36.901 118.587 36.1326 117.721 35.5591C116.856 34.9856 115.817 34.6934 114.616 34.6934C113.414 34.6934 112.386 34.9856 111.531 35.5591C110.677 36.1326 110.027 36.9118 109.573 37.8857C109.129 38.8705 108.902 39.9851 108.902 41.2512V41.381H108.891Z" fill="white"/>
<path d="M138.174 54.3126C135.263 54.3126 132.947 53.4253 131.237 51.6397C129.528 49.865 128.586 47.4302 128.424 44.3461C128.391 43.9782 128.38 43.5128 128.38 42.9393C128.38 42.3658 128.391 41.9005 128.424 41.5325C128.532 39.5414 128.997 37.7991 129.809 36.3058C130.62 34.8124 131.735 33.6545 133.153 32.8429C134.57 32.0313 136.226 31.6201 138.131 31.6201C140.262 31.6201 142.048 32.0638 143.487 32.962C144.926 33.8601 146.03 35.1371 146.788 36.7819C147.545 38.4376 147.924 40.3638 147.924 42.5822V43.2964C147.924 43.6102 147.837 43.8375 147.653 44.0106C147.469 44.1838 147.242 44.2595 146.961 44.2595H132.428V44.4327V44.6383C132.482 45.7853 132.731 46.8567 133.185 47.8522C133.629 48.8478 134.289 49.6486 135.144 50.2654C135.999 50.8822 136.994 51.1852 138.152 51.1852C139.159 51.1852 140.003 51.0337 140.674 50.7199C141.344 50.4169 141.896 50.0706 142.308 49.6919C142.73 49.3131 143.011 49.0101 143.152 48.7937C143.401 48.4582 143.595 48.2526 143.736 48.1877C143.877 48.1228 144.104 48.0795 144.407 48.0795H146.463C146.712 48.0795 146.928 48.1552 147.112 48.3067C147.296 48.4582 147.372 48.6747 147.34 48.956C147.307 49.378 147.091 49.8867 146.669 50.4926C146.247 51.0986 145.651 51.6938 144.883 52.2782C144.115 52.8625 143.162 53.3495 142.026 53.7283C140.879 54.1286 139.602 54.3126 138.174 54.3126ZM132.417 41.381H143.931V41.2512C143.931 39.9959 143.704 38.8705 143.238 37.8857C142.773 36.901 142.113 36.1326 141.247 35.5591C140.381 34.9856 139.343 34.6934 138.141 34.6934C136.94 34.6934 135.912 34.9856 135.057 35.5591C134.202 36.1326 133.553 36.9118 133.099 37.8857C132.655 38.8705 132.428 39.9851 132.428 41.2512V41.381H132.417Z" fill="white"/>
<path d="M80.4416 22.173C80.0953 21.1558 79.6949 20.1386 79.2404 19.1647L80.9069 18.3964C81.3831 19.4352 81.8159 20.5065 82.173 21.5887L80.4416 22.173Z" fill="white"/>
<path d="M77.7363 16.2971C77.1844 15.3773 76.5676 14.4683 75.9183 13.6134L77.3792 12.4988C78.0717 13.4078 78.721 14.3709 79.3054 15.3448L77.7363 16.2971Z" fill="white"/>
<path d="M26.4536 16.2213L24.8845 15.269C25.4797 14.2951 26.129 13.3428 26.8216 12.4338L28.2824 13.5484C27.6223 14.4033 27.0163 15.3015 26.4536 16.2213Z" fill="white"/>
<path d="M73.8189 11.146C73.083 10.3669 72.2931 9.6094 71.4706 8.91683L72.661 7.52087C73.5267 8.25673 74.3708 9.05751 75.1499 9.89076L73.8189 11.146Z" fill="white"/>
<path d="M30.3818 11.0811L29.0507 9.815C29.8407 8.99257 30.6739 8.19179 31.5505 7.45593L32.7408 8.85189C31.9184 9.55528 31.1284 10.302 30.3818 11.0811Z" fill="white"/>
<path d="M68.8952 6.94726C68.0078 6.34126 67.0772 5.77855 66.1249 5.26994L66.9906 3.64673C67.997 4.1878 68.9817 4.78298 69.934 5.42144L68.8952 6.94726Z" fill="white"/>
<path d="M35.3163 6.90409L34.2883 5.38909C35.2406 4.75063 36.2253 4.15545 37.2317 3.61438L38.0866 5.23759C37.1451 5.73538 36.2145 6.29809 35.3163 6.90409Z" fill="white"/>
<path d="M63.1923 3.90651C62.1967 3.50611 61.1579 3.15983 60.1298 2.86765L60.6276 1.10376C61.7314 1.40676 62.8243 1.78551 63.8848 2.20754L63.1923 3.90651Z" fill="white"/>
<path d="M41.0409 3.87403L40.3591 2.16425C41.4196 1.74222 42.5234 1.37429 43.6164 1.07129L44.1033 2.83518C43.0753 3.13818 42.0364 3.48446 41.0409 3.87403Z" fill="white"/>
<path d="M56.9592 2.1751C55.8987 2.00196 54.8165 1.88293 53.7344 1.82882L53.8318 0C54.9788 0.0649284 56.1259 0.183965 57.2513 0.367929L56.9592 2.1751Z" fill="white"/>
<path d="M47.274 2.16428L46.9818 0.357107C48.1072 0.173143 49.2543 0.054107 50.4014 0L50.4988 1.82882C49.4166 1.8721 48.3345 1.99114 47.274 2.16428Z" fill="white"/>
<path d="M130.177 72.9038C129.603 72.9038 129.019 72.893 128.445 72.8606L128.543 71.0317C129.614 71.0858 130.707 71.0858 131.778 71.0317L131.876 72.8606C131.313 72.893 130.74 72.9038 130.177 72.9038Z" fill="white"/>
<path d="M135.295 72.4927L135.003 70.6855C136.064 70.5124 137.135 70.2851 138.163 69.9929L138.65 71.7568C137.557 72.0706 136.421 72.3087 135.295 72.4927Z" fill="white"/>
<path d="M125.026 72.4927C123.9 72.3087 122.764 72.0598 121.671 71.7568L122.158 69.9929C123.197 70.2851 124.257 70.5124 125.318 70.6855L125.026 72.4927Z" fill="white"/>
<path d="M141.918 70.6639L141.236 68.9541C142.232 68.5537 143.227 68.0992 144.18 67.5906L145.035 69.2138C144.028 69.7549 142.978 70.2418 141.918 70.6639Z" fill="white"/>
<path d="M118.414 70.653C117.353 70.231 116.304 69.744 115.297 69.2029L116.163 67.5797C117.115 68.0883 118.1 68.5428 119.107 68.9432L118.414 70.653Z" fill="white"/>
<path d="M147.978 67.4499L146.95 65.9349C147.837 65.3289 148.703 64.6688 149.525 63.9762L150.716 65.3722C149.85 66.108 148.93 66.8114 147.978 67.4499Z" fill="white"/>
<path d="M112.343 67.4281C111.402 66.7897 110.482 66.0863 109.605 65.3504L110.796 63.9545C111.618 64.647 112.484 65.3071 113.371 65.9131L112.343 67.4281Z" fill="white"/>
<path d="M153.216 63.0022L151.885 61.7361C152.631 60.9569 153.335 60.1237 153.984 59.2688L155.445 60.3834C154.752 61.2924 154.006 62.1798 153.216 63.0022Z" fill="white"/>
<path d="M107.116 62.9806C106.326 62.1473 105.58 61.2708 104.887 60.3618L106.348 59.2472C106.997 60.1021 107.712 60.9353 108.447 61.7145L107.116 62.9806Z" fill="white"/>
</svg>
