<svg width="259" height="118" viewBox="0 0 259 118" fill="none" xmlns="http://www.w3.org/2000/svg">
<path d="M253.07 88.7847C253.175 88.5044 253.035 88.1892 252.754 88.0841C249.864 87.0507 248.463 85.3692 248.235 82.8295C247.938 79.4316 250.337 76.4715 253.455 76.3839C256.695 76.2963 259.2 79.1513 258.955 82.6894C258.745 85.7896 257.729 88.6271 255.96 91.1843C254.488 93.3211 254.401 93.4087 252.264 92.0425C252.054 91.9024 251.966 91.6397 252.054 91.412C252.369 90.5537 252.719 89.6955 253.07 88.7847Z" fill="#00CC99"/>
<path d="M40.4 31.9829C40.2949 32.2631 40.435 32.5784 40.7153 32.6835C43.6053 33.7169 45.0065 35.3983 45.2342 37.9381C45.5319 41.336 43.1324 44.2961 40.0147 44.3837C36.7743 44.4712 34.2697 41.6163 34.5149 38.0782C34.7251 34.978 35.7409 32.1405 37.51 29.5833C38.9813 27.4464 39.0688 27.3589 41.2057 28.7251C41.4159 28.8652 41.5034 29.1279 41.4159 29.3556C41.1006 30.1963 40.7503 31.0721 40.4 31.9829Z" fill="#00CC99"/>
<path d="M14.4249 87.9088C11.8852 87.9088 9.71328 87.5935 7.8917 86.963C6.07011 86.3324 4.59884 85.5618 3.47787 84.651C2.33938 83.7402 1.49865 82.8469 0.920643 81.9361C0.360156 81.0253 0.0448828 80.3072 0.00985233 79.7642C-0.0426933 79.2738 0.114943 78.8885 0.482763 78.6082C0.850582 78.3455 1.20089 78.2054 1.56871 78.2054H4.63387C4.86157 78.2054 5.05423 78.2404 5.21187 78.3105C5.36951 78.3805 5.57969 78.5732 5.85993 78.8885C6.45545 79.519 7.10351 80.1496 7.83915 80.7976C8.55728 81.4282 9.45055 81.9536 10.519 82.3565C11.5874 82.7593 12.9011 82.9695 14.4949 82.9695C16.8069 82.9695 18.7161 82.5316 20.2049 81.6383C21.6937 80.7626 22.4468 79.4489 22.4468 77.7325C22.4468 76.594 22.1491 75.7007 21.5361 75.0176C20.923 74.3345 19.8371 73.7215 18.2782 73.1785C16.7194 72.6355 14.565 72.075 11.8501 71.4795C9.13528 70.849 6.98091 70.0608 5.38702 69.1325C3.79314 68.2042 2.67217 67.1007 1.98907 65.8046C1.30598 64.5085 0.973189 63.0547 0.973189 61.4258C0.973189 59.7443 1.46362 58.1329 2.46198 56.5566C3.46035 54.9977 4.91411 53.7191 6.84078 52.7207C8.76746 51.7224 11.1846 51.2319 14.0746 51.2319C16.4391 51.2319 18.4534 51.5297 20.1348 52.1077C21.8163 52.7032 23.2 53.4388 24.2859 54.3146C25.3719 55.1904 26.1951 56.0661 26.7381 56.9244C27.281 57.7826 27.5788 58.5183 27.6138 59.0963C27.6664 59.5517 27.5263 59.9195 27.211 60.2172C26.8957 60.515 26.5279 60.6551 26.125 60.6551H23.2701C22.9548 60.6551 22.6921 60.5851 22.4819 60.4449C22.2717 60.3048 22.079 60.1472 21.9039 59.972C21.4485 59.3765 20.923 58.7985 20.31 58.203C19.697 57.6075 18.9088 57.1346 17.9279 56.7492C16.9471 56.3639 15.6685 56.1712 14.0921 56.1712C11.8326 56.1712 10.1336 56.6441 8.99516 57.6075C7.85667 58.5533 7.29618 59.7618 7.29618 61.2156C7.29618 62.0739 7.5414 62.8445 8.04934 63.5276C8.53976 64.2107 9.5031 64.8237 10.9043 65.3667C12.3055 65.9097 14.3898 66.5052 17.1572 67.1357C20.1524 67.7313 22.4994 68.5194 24.2334 69.5178C25.9499 70.5162 27.176 71.6722 27.9116 72.9858C28.6297 74.2995 28.9975 75.8233 28.9975 77.5398C28.9975 79.4489 28.4546 81.1829 27.3686 82.7768C26.2827 84.3707 24.6538 85.6143 22.4644 86.5426C20.275 87.4534 17.5951 87.9088 14.4249 87.9088Z" fill="black"/>
<path d="M38.4207 87.2258C37.9653 87.2258 37.5975 87.0857 37.2997 86.788C37.0019 86.4902 36.8618 86.1224 36.8618 85.667V53.439C36.8618 52.9836 37.0019 52.6158 37.2997 52.318C37.5975 52.0202 37.9653 51.8801 38.4207 51.8801H41.6785C42.1339 51.8801 42.5017 52.0202 42.7995 52.318C43.0972 52.6158 43.2374 52.9836 43.2374 53.439V85.667C43.2374 86.1224 43.0972 86.4902 42.7995 86.788C42.5017 87.0857 42.1339 87.2258 41.6785 87.2258H38.4207Z" fill="black"/>
<path d="M55.4981 87.2257C55.0427 87.2257 54.6748 87.0856 54.3771 86.7878C54.0793 86.4901 53.9392 86.1222 53.9392 85.6668V53.4388C53.9392 52.9834 54.0793 52.6156 54.3771 52.3179C54.6748 52.0201 55.0427 51.88 55.4981 51.88H58.5457C59.0011 51.88 59.3689 52.0201 59.6667 52.3179C59.9644 52.6156 60.1046 52.9834 60.1046 53.4388V55.8209C61.1555 54.4197 62.4691 53.2987 64.0455 52.458C65.6394 51.6173 67.531 51.1969 69.7554 51.1969C74.8699 51.1443 78.4955 53.2287 80.6324 57.4498C81.6658 55.5407 83.1896 54.0344 85.1863 52.8959C87.1831 51.7574 89.4426 51.1969 91.9823 51.1969C94.3468 51.1969 96.4837 51.7399 98.4103 52.8258C100.337 53.9117 101.861 55.5582 102.964 57.7476C104.068 59.9545 104.628 62.7044 104.628 66.0148V85.6668C104.628 86.1222 104.488 86.4901 104.19 86.7878C103.893 87.0856 103.525 87.2257 103.069 87.2257H99.8816C99.4262 87.2257 99.0584 87.0856 98.7606 86.7878C98.4629 86.4901 98.3228 86.1222 98.3228 85.6668V66.6278C98.3228 64.0881 97.9549 62.0914 97.2368 60.6376C96.5187 59.1838 95.5378 58.168 94.3118 57.5724C93.0857 56.9769 91.7546 56.6967 90.3008 56.6967C89.1273 56.6967 87.9187 56.9944 86.6927 57.5724C85.4666 58.168 84.4507 59.1838 83.6625 60.6376C82.8743 62.0914 82.4715 64.0881 82.4715 66.6278V85.6668C82.4715 86.1222 82.3314 86.4901 82.0336 86.7878C81.7358 87.0856 81.368 87.2257 80.9126 87.2257H77.7249C77.2695 87.2257 76.9016 87.0856 76.6039 86.7878C76.3061 86.4901 76.166 86.1222 76.166 85.6668V66.6278C76.166 64.0881 75.7807 62.0914 75.01 60.6376C74.2393 59.1838 73.241 58.168 72.0149 57.5724C70.7888 56.9769 69.4927 56.6967 68.144 56.6967C66.9705 56.6967 65.762 56.9944 64.5359 57.5724C63.3098 58.168 62.3115 59.1838 61.5058 60.6376C60.7176 62.0914 60.3147 64.0531 60.3147 66.5577V85.6668C60.3147 86.1222 60.1746 86.4901 59.8769 86.7878C59.5791 87.0856 59.2113 87.2257 58.7559 87.2257H55.4981Z" fill="black"/>
<path d="M116.013 100.152C115.558 100.152 115.19 100.012 114.892 99.7142C114.594 99.4164 114.454 99.0486 114.454 98.5932V53.439C114.454 52.9836 114.594 52.6158 114.892 52.318C115.19 52.0202 115.558 51.8801 116.013 51.8801H119.148C119.604 51.8801 119.972 52.0202 120.269 52.318C120.567 52.6158 120.707 52.9836 120.707 53.439V56.4341C121.793 54.9453 123.247 53.6842 125.051 52.6858C126.855 51.6874 129.132 51.197 131.847 51.197C134.387 51.197 136.541 51.6349 138.345 52.4931C140.132 53.3514 141.603 54.5249 142.759 56.0312C143.915 57.52 144.791 59.219 145.369 61.1282C145.964 63.0373 146.297 65.0691 146.385 67.241C146.437 67.9591 146.455 68.7297 146.455 69.553C146.455 70.3762 146.437 71.1469 146.385 71.865C146.297 74.0018 145.947 76.0161 145.369 77.9428C144.773 79.8694 143.915 81.5684 142.759 83.0397C141.603 84.511 140.132 85.6845 138.345 86.5778C136.559 87.4535 134.387 87.9089 131.847 87.9089C129.22 87.9089 127.013 87.4185 125.209 86.4551C123.422 85.4743 121.951 84.2657 120.83 82.812V98.5932C120.83 99.0486 120.69 99.4164 120.427 99.7142C120.147 100.012 119.796 100.152 119.341 100.152H116.013ZM130.428 82.4091C132.793 82.4091 134.632 81.9012 135.963 80.8853C137.294 79.8694 138.258 78.5383 138.853 76.8743C139.449 75.2279 139.781 73.4413 139.869 71.5322C139.921 70.2185 139.921 68.9049 139.869 67.5913C139.781 65.6821 139.431 63.9131 138.853 62.2491C138.258 60.6027 137.294 59.254 135.963 58.2381C134.632 57.2223 132.775 56.7143 130.428 56.7143C128.204 56.7143 126.4 57.2398 125.016 58.2732C123.632 59.3241 122.616 60.6377 121.951 62.2491C121.285 63.8605 120.917 65.507 120.83 67.1709C120.777 67.889 120.76 68.7648 120.76 69.7631C120.76 70.7615 120.777 71.6373 120.83 72.4079C120.882 74.0018 121.25 75.5607 121.951 77.102C122.651 78.6434 123.702 79.922 125.121 80.9028C126.522 81.9012 128.291 82.4091 130.428 82.4091Z" fill="black"/>
<path d="M156.526 87.2257C156.071 87.2257 155.703 87.0855 155.405 86.7878C155.107 86.49 154.967 86.1222 154.967 85.6668V40.5126C154.967 40.0572 155.107 39.6894 155.405 39.3916C155.703 39.0939 156.071 38.9537 156.526 38.9537H159.714C160.204 38.9537 160.589 39.0939 160.87 39.3916C161.15 39.6894 161.273 40.0572 161.273 40.5126V85.6668C161.273 86.1222 161.132 86.49 160.87 86.7878C160.589 87.0855 160.204 87.2257 159.714 87.2257H156.526Z" fill="black"/>
<path d="M185.566 87.9088C180.855 87.9088 177.106 86.4726 174.339 83.5826C171.571 80.7101 170.048 76.7692 169.785 71.7773C169.732 71.1818 169.715 70.4287 169.715 69.5004C169.715 68.5721 169.732 67.8189 169.785 67.2234C169.96 64.0006 170.713 61.1806 172.027 58.7635C173.341 56.3464 175.145 54.4723 177.439 53.1587C179.734 51.845 182.413 51.1794 185.496 51.1794C188.947 51.1794 191.837 51.8976 194.166 53.3513C196.496 54.8051 198.282 56.8719 199.508 59.5342C200.734 62.214 201.347 65.3317 201.347 68.9224V70.0784C201.347 70.5863 201.207 70.9541 200.909 71.2344C200.612 71.5146 200.244 71.6372 199.788 71.6372H176.248V71.9175V72.2502C176.336 74.1069 176.738 75.8409 177.474 77.4523C178.192 79.0637 179.261 80.3598 180.627 81.3582C182.011 82.3565 183.622 82.847 185.496 82.847C187.125 82.847 188.491 82.6017 189.577 82.0938C190.663 81.6034 191.556 81.0429 192.222 80.4299C192.905 79.8168 193.36 79.3264 193.588 78.9761C193.991 78.4331 194.306 78.1003 194.534 77.9952C194.762 77.8901 195.129 77.8201 195.62 77.8201H198.948C199.351 77.8201 199.701 77.9427 199.999 78.1879C200.296 78.4331 200.419 78.7834 200.366 79.2388C200.314 79.9219 199.964 80.7451 199.281 81.726C198.597 82.7068 197.634 83.6702 196.391 84.616C195.147 85.5618 193.606 86.35 191.767 86.963C189.945 87.6111 187.878 87.9088 185.566 87.9088ZM176.248 66.9782H194.884V66.768C194.884 64.7362 194.516 62.9146 193.763 61.3208C193.01 59.7269 191.942 58.4833 190.54 57.555C189.139 56.6267 187.458 56.1538 185.514 56.1538C183.569 56.1538 181.905 56.6267 180.522 57.555C179.138 58.4833 178.087 59.7444 177.351 61.3208C176.633 62.9146 176.266 64.7187 176.266 66.768V66.9782H176.248Z" fill="black"/>
<path d="M223.644 87.9088C218.932 87.9088 215.184 86.4726 212.417 83.5826C209.649 80.7101 208.126 76.7692 207.863 71.7773C207.81 71.1818 207.793 70.4287 207.793 69.5004C207.793 68.5721 207.81 67.8189 207.863 67.2234C208.038 64.0006 208.791 61.1806 210.105 58.7635C211.418 56.3464 213.222 54.4723 215.517 53.1587C217.811 51.845 220.491 51.1794 223.574 51.1794C227.024 51.1794 229.914 51.8976 232.244 53.3513C234.573 54.8051 236.36 56.8719 237.586 59.5342C238.812 62.214 239.425 65.3317 239.425 68.9224V70.0784C239.425 70.5863 239.285 70.9541 238.987 71.2344C238.69 71.5146 238.322 71.6372 237.866 71.6372H214.343V71.9175V72.2502C214.431 74.1069 214.834 75.8409 215.569 77.4523C216.288 79.0637 217.356 80.3598 218.74 81.3582C220.123 82.3565 221.735 82.847 223.609 82.847C225.238 82.847 226.604 82.6017 227.69 82.0938C228.776 81.6034 229.669 81.0429 230.335 80.4299C231.018 79.8168 231.473 79.3264 231.701 78.9761C232.104 78.4331 232.419 78.1003 232.647 77.9952C232.875 77.8901 233.242 77.8201 233.733 77.8201H237.061C237.463 77.8201 237.814 77.9427 238.112 78.1879C238.409 78.4331 238.532 78.7834 238.479 79.2388C238.427 79.9219 238.077 80.7451 237.393 81.726C236.71 82.7068 235.747 83.6702 234.503 84.616C233.26 85.5618 231.719 86.35 229.879 86.963C228.023 87.6111 225.956 87.9088 223.644 87.9088ZM214.326 66.9782H232.962V66.768C232.962 64.7362 232.594 62.9146 231.841 61.3208C231.088 59.7269 230.02 58.4833 228.618 57.555C227.217 56.6267 225.536 56.1538 223.591 56.1538C221.647 56.1538 219.983 56.6267 218.6 57.555C217.216 58.4833 216.165 59.7444 215.429 61.3208C214.711 62.9146 214.343 64.7187 214.343 66.768V66.9782H214.326Z" fill="black"/>
<path d="M130.201 35.8888C129.64 34.2424 128.992 32.5959 128.256 31.0196L130.954 29.776C131.724 31.4575 132.425 33.1915 133.003 34.943L130.201 35.8888Z" fill="black"/>
<path d="M125.822 26.3778C124.928 24.889 123.93 23.4177 122.879 22.034L125.244 20.23C126.365 21.7013 127.416 23.2601 128.361 24.8365L125.822 26.3778Z" fill="black"/>
<path d="M42.817 26.2552L40.2773 24.7139C41.2407 23.1375 42.2916 21.5962 43.4126 20.1249L45.7771 21.9289C44.7087 23.3126 43.7278 24.7664 42.817 26.2552Z" fill="black"/>
<path d="M119.481 18.0406C118.29 16.7795 117.012 15.5534 115.68 14.4324L117.607 12.173C119.008 13.364 120.374 14.6601 121.636 16.0088L119.481 18.0406Z" fill="black"/>
<path d="M49.1749 17.9356L47.0205 15.8863C48.2991 14.5552 49.6478 13.259 51.0665 12.068L52.9932 14.3275C51.662 15.4659 50.3834 16.6745 49.1749 17.9356Z" fill="black"/>
<path d="M111.512 11.2447C110.075 10.2639 108.569 9.35309 107.028 8.52987L108.429 5.90259C110.058 6.77835 111.652 7.74169 113.193 8.77508L111.512 11.2447Z" fill="black"/>
<path d="M57.162 11.1747L55.498 8.72259C57.0394 7.68919 58.6333 6.72586 60.2622 5.8501L61.6459 8.47738C60.1221 9.28308 58.6158 10.1939 57.162 11.1747Z" fill="black"/>
<path d="M102.281 6.32294C100.67 5.67488 98.9884 5.11439 97.3245 4.64148L98.1302 1.7865C99.9167 2.27692 101.686 2.88996 103.402 3.57305L102.281 6.32294Z" fill="black"/>
<path d="M66.4277 6.27045L65.3242 3.50304C67.0407 2.81995 68.8273 2.22443 70.5963 1.73401L71.3845 4.58899C69.7205 5.07941 68.0391 5.6399 66.4277 6.27045Z" fill="black"/>
<path d="M92.1924 3.52056C90.4759 3.24032 88.7244 3.04765 86.9729 2.96007L87.1305 0C88.9872 0.105091 90.8438 0.29776 92.6653 0.595519L92.1924 3.52056Z" fill="black"/>
<path d="M76.5164 3.50304L76.0435 0.578003C77.865 0.280244 79.7216 0.0875761 81.5783 0L81.7359 2.96007C79.9844 3.03013 78.2329 3.2228 76.5164 3.50304Z" fill="black"/>
<path d="M210.7 118C209.772 118 208.826 117.982 207.898 117.93L208.056 114.97C209.79 115.057 211.559 115.057 213.293 114.97L213.45 117.93C212.539 117.982 211.611 118 210.7 118Z" fill="black"/>
<path d="M218.985 117.334L218.512 114.409C220.229 114.129 221.963 113.761 223.627 113.288L224.415 116.143C222.646 116.651 220.807 117.037 218.985 117.334Z" fill="black"/>
<path d="M202.363 117.334C200.541 117.037 198.702 116.634 196.933 116.143L197.722 113.288C199.403 113.761 201.119 114.129 202.836 114.409L202.363 117.334Z" fill="black"/>
<path d="M229.705 114.374L228.601 111.607C230.212 110.959 231.824 110.223 233.365 109.4L234.749 112.027C233.12 112.903 231.421 113.691 229.705 114.374Z" fill="black"/>
<path d="M191.661 114.357C189.945 113.674 188.246 112.886 186.617 112.01L188.018 109.383C189.559 110.206 191.153 110.941 192.782 111.589L191.661 114.357Z" fill="black"/>
<path d="M239.513 109.172L237.849 106.72C239.285 105.739 240.686 104.671 242.017 103.55L243.944 105.81C242.543 107.001 241.054 108.139 239.513 109.172Z" fill="black"/>
<path d="M181.835 109.137C180.312 108.104 178.823 106.965 177.404 105.774L179.331 103.515C180.662 104.636 182.063 105.704 183.499 106.685L181.835 109.137Z" fill="black"/>
<path d="M247.99 101.974L245.836 99.9243C247.044 98.6632 248.183 97.3145 249.234 95.9308L251.598 97.7349C250.477 99.2061 249.269 100.642 247.99 101.974Z" fill="black"/>
<path d="M173.375 101.939C172.097 100.59 170.888 99.1711 169.767 97.6998L172.132 95.8958C173.183 97.2795 174.339 98.6281 175.53 99.8892L173.375 101.939Z" fill="black"/>
</svg>
