<svg width="335" height="47" viewBox="0 0 335 47" fill="none" xmlns="http://www.w3.org/2000/svg">
<path d="M304.634 46.3368C303.78 45.9841 302.865 46.0938 301.98 46.005C298.656 45.6731 295.417 45.0148 292.384 43.5778C287.498 41.263 284.311 37.4565 282.819 32.3174C281.087 26.3476 281.058 20.2994 282.709 14.3165C284.621 7.38519 289.306 3.17365 296.185 1.27427C300.514 0.0776896 304.95 -0.0111395 309.397 0.0228246C313.217 0.0515634 317.005 0.318051 320.697 1.39706C328.576 3.70139 332.968 9.03114 334.408 16.9683C334.588 17.9585 334.541 18.9852 334.909 19.9414V26.2823C334.679 27.5834 334.489 28.8897 334.214 30.1829C332.947 36.1841 329.833 40.8215 324.171 43.5386C321.12 45.0043 317.857 45.6627 314.51 46.005C313.512 46.1068 312.485 45.9841 311.513 46.3341H310.654C310.562 46.0598 310.33 46.1643 310.155 46.1643C308.825 46.1565 307.495 46.1539 306.165 46.1617C305.988 46.1617 305.755 46.0624 305.666 46.3368H304.634ZM318.533 23.1236C318.473 21.556 318.403 19.9885 318.042 18.4496C317.258 15.1029 315.531 12.5321 312.091 11.4374C310.578 10.9566 309.008 10.8156 307.424 10.9148C302.779 11.2101 299.879 13.3446 298.69 17.5457C297.645 21.2425 297.658 25.0021 298.69 28.7016C299.579 31.889 301.583 34.094 304.885 34.9483C306.249 35.301 307.647 35.4056 309.057 35.335C313.94 35.0973 317.031 32.4716 318.06 27.7114C318.39 26.1961 318.465 24.6598 318.533 23.121V23.1236Z" fill="#010101"/>
<path d="M171.662 46.3368C171.469 46.0076 171.15 46.1826 170.894 46.167C166.338 45.8796 161.813 45.4224 157.617 43.4237C153.05 41.2474 150.615 37.6341 150.328 32.5813C150.294 31.9569 150.393 31.7139 151.119 31.7192C156.768 31.7557 162.414 31.7427 168.062 31.7322C168.595 31.7322 168.903 31.7374 168.982 32.4429C169.144 33.8902 170.066 34.8073 171.461 35.1861C174.05 35.8915 176.673 35.9412 179.281 35.3193C180.498 35.0293 181.512 34.3814 181.802 33.0359C182.202 31.1679 181.292 29.7257 179.377 29.3782C175.97 28.7591 172.548 28.2287 169.133 27.6539C166.228 27.1627 163.304 26.7526 160.423 26.1412C153.136 24.5972 150.335 19.1681 150.942 12.8012C151.514 6.79737 154.777 3.26771 161.081 1.44149C165.82 0.0698669 170.683 -0.0503137 175.566 0.0463533C179.963 0.13257 184.315 0.558427 188.514 1.96402C191.38 2.92285 193.961 4.34411 195.884 6.75818C197.485 8.76989 198.209 11.1082 198.483 13.6215C198.528 14.0396 198.418 14.1571 197.99 14.1571C192.37 14.1441 186.75 14.1441 181.133 14.1571C180.749 14.1571 180.595 14.0814 180.548 13.6607C180.381 12.1846 179.505 11.2284 178.155 10.6902C175.249 9.52494 172.289 9.55368 169.314 10.3767C168.911 10.4864 168.525 10.7241 168.19 10.9828C167.294 11.6725 167.101 12.6131 167.354 13.6712C167.581 14.6248 168.326 14.9723 169.178 15.1238C170.954 15.4373 172.739 15.696 174.513 16.0095C179.754 16.9369 185.047 17.5561 190.241 18.7344C191.61 19.0453 192.905 19.5783 194.144 20.2419C197.553 22.0734 199.641 24.8584 200.095 28.712C200.594 32.9157 199.952 36.8686 196.999 40.1501C195.03 42.3395 192.472 43.5857 189.708 44.4635C186.241 45.5634 182.661 45.9579 179.053 46.1722C178.771 46.1878 178.424 45.9971 178.199 46.3394H177.339C177.248 46.0651 177.016 46.1722 176.84 46.1696C175.568 46.1591 174.296 46.1565 173.023 46.1643C172.846 46.1643 172.613 46.0677 172.524 46.3394H171.665L171.662 46.3368Z" fill="#010101"/>
<path d="M248.554 46.3368C247.731 45.9658 246.843 46.099 245.986 46.0128C243.01 45.7176 240.1 45.1637 237.325 44.022C231.925 41.8013 228.369 37.8667 226.749 32.307C225.02 26.3685 224.994 20.3464 226.621 14.3896C228.523 7.42179 233.205 3.16322 240.126 1.2769C245.508 -0.188777 251.01 -0.110398 256.512 0.148252C259.726 0.299784 262.882 0.856272 265.9 2.01889C272.465 4.54791 276.097 9.45702 277.439 16.208C277.552 16.7671 277.599 17.3393 277.732 17.8932C277.85 18.3791 277.672 18.468 277.225 18.468C271.809 18.4575 266.391 18.4549 260.975 18.4732C260.518 18.4732 260.384 18.2955 260.316 17.9088C260.243 17.4882 260.149 17.0702 260.024 16.6626C258.762 12.5817 255.454 10.5413 251.039 10.9253C244.429 11.5001 242.561 15.9102 242.052 20.3699C241.738 23.108 241.819 25.846 242.54 28.5265C243.938 33.7178 247.653 35.7504 252.588 35.288C256.745 34.8987 259.041 32.84 260.207 28.6676C260.382 28.0354 260.635 27.8891 261.246 27.8917C266.49 27.9152 271.736 27.9178 276.98 27.8917C277.685 27.8891 277.8 28.0301 277.659 28.7303C277.118 31.4213 276.407 34.0522 275.13 36.5003C272.609 41.3388 268.392 43.8705 263.25 45.1219C260.682 45.7463 258.07 46.0415 255.433 46.1774C255.206 46.1905 254.911 46.018 254.749 46.3368H254.232C254.111 46.0311 253.845 46.1722 253.646 46.1696C252.489 46.1565 251.329 46.1565 250.169 46.167C249.968 46.167 249.707 46.0337 249.584 46.3368H248.552H248.554Z" fill="#010101"/>
<path d="M51.905 23.1367C51.905 16.2237 51.9154 9.31336 51.8893 2.40036C51.8893 1.71847 52.0173 1.48856 52.7593 1.49117C66.0053 1.51469 79.2487 1.51469 92.4946 1.49117C93.2053 1.49117 93.4038 1.65838 93.3934 2.37685C93.3516 5.3474 93.3516 8.31795 93.3934 11.2885C93.4038 11.9599 93.1948 12.0697 92.5782 12.0671C84.4661 12.0462 76.3513 12.0671 68.2391 12.0331C67.4474 12.0305 67.228 12.2369 67.2672 13.0128C67.3351 14.3531 67.3273 15.6986 67.2672 17.0389C67.2384 17.7286 67.4553 17.8828 68.1241 17.8801C75.5492 17.8566 82.9742 17.8645 90.3993 17.8645C91.1361 17.8645 91.5045 18.2424 91.5045 18.9983C91.5045 21.8827 91.4862 24.767 91.5201 27.6513C91.528 28.2522 91.3712 28.3986 90.7677 28.3959C83.2564 28.375 75.7451 28.3959 68.2338 28.3594C67.4109 28.3541 67.2332 28.6076 67.2672 29.36C67.3247 30.6428 67.3273 31.9308 67.2672 33.2136C67.2306 33.9713 67.4161 34.209 68.2312 34.2064C76.2572 34.1724 84.2858 34.1986 92.3118 34.1672C93.14 34.1646 93.4221 34.3057 93.4012 35.2123C93.3307 38.1515 93.3594 41.0959 93.3882 44.0377C93.3934 44.5916 93.2575 44.7614 92.6828 44.7614C79.3244 44.7457 65.9635 44.7431 52.6051 44.764C51.9259 44.764 51.8971 44.4845 51.8971 43.9567C51.9102 37.015 51.905 30.0759 51.905 23.1341V23.1367Z" fill="#010101"/>
<path d="M99.802 23.0845C99.802 16.1741 99.8072 9.26633 99.7942 2.35594C99.7942 1.79946 99.8125 1.48855 100.541 1.49117C111.089 1.52513 121.633 1.51729 132.18 1.53558C134.077 1.53819 135.948 1.76027 137.782 2.27495C141.964 3.44802 144.676 6.11551 145.81 10.2722C146.842 14.05 146.918 17.8932 145.991 21.705C144.692 27.053 140.603 30.4521 134.944 31.0922C133.113 31.2986 131.284 31.2777 129.45 31.2829C125.009 31.2907 120.565 31.309 116.123 31.262C115.326 31.2541 115.203 31.4971 115.211 32.213C115.245 36.1241 115.214 40.0352 115.243 43.9489C115.248 44.5602 115.138 44.7745 114.459 44.7692C109.845 44.7353 105.231 44.7353 100.617 44.7692C99.9039 44.7745 99.7811 44.5419 99.7837 43.8992C99.8046 36.9601 99.7968 30.0236 99.7968 23.0845H99.802ZM121.105 11.7091C121.105 11.7091 121.105 11.7013 121.105 11.6961C119.36 11.6961 117.615 11.7091 115.87 11.6882C115.428 11.683 115.214 11.73 115.219 12.2656C115.248 14.9174 115.243 17.5692 115.222 20.221C115.219 20.6756 115.355 20.8037 115.802 20.7906C116.946 20.7592 118.09 20.801 119.235 20.7775C121.808 20.7253 124.387 20.9447 126.952 20.6338C129.126 20.37 130.276 19.2857 130.477 17.1199C130.811 13.4779 129.432 11.8398 125.91 11.7222C124.308 11.6673 122.704 11.7144 121.103 11.7144L121.105 11.7091Z" fill="#010101"/>
<path d="M0.0130885 23.0662C0.0130885 16.1558 0.0183137 9.24804 0.00263799 2.33766C0.00263799 1.75504 0.0627283 1.48856 0.768136 1.49117C11.3153 1.52252 21.8598 1.5173 32.407 1.53558C34.3037 1.5382 36.1744 1.76288 38.0084 2.27757C42.1886 3.45586 44.8953 6.12857 46.0292 10.2879C47.0168 13.922 47.1317 17.6215 46.2852 21.3027C44.9789 26.9982 40.9999 30.4416 35.145 31.0948C33.7159 31.2541 32.2868 31.2855 30.8551 31.2855C25.9825 31.2855 21.11 31.2986 16.2401 31.2698C15.6 31.2672 15.4302 31.4161 15.4354 32.0641C15.4694 36.0326 15.4354 40.0012 15.4694 43.9698C15.4746 44.6255 15.2891 44.7692 14.6568 44.764C10.0717 44.7353 5.48653 44.7327 0.90138 44.764C0.195972 44.7692 -0.00258726 44.5942 2.53645e-05 43.8757C0.0287642 36.9366 0.0157011 30.0001 0.0157011 23.061L0.0130885 23.0662ZM21.3765 20.7775C23.0904 20.7044 25.1596 20.9291 27.2131 20.626C28.4097 20.4483 29.4913 20.0408 30.1523 18.933C32.1274 15.6254 30.1366 11.8241 26.317 11.73C22.8787 11.6464 19.4379 11.7091 15.9997 11.683C15.5268 11.6804 15.438 11.8371 15.4406 12.2682C15.4589 14.8965 15.4694 17.5222 15.4354 20.1505C15.4276 20.7201 15.6366 20.7958 16.1303 20.788C17.7632 20.7592 19.3987 20.7775 21.3791 20.7775H21.3765Z" fill="#010101"/>
<path d="M220.691 23.1994C220.691 30.1072 220.68 37.0149 220.706 43.9253C220.706 44.5942 220.544 44.7718 219.865 44.7692C215.28 44.7379 210.697 44.7379 206.112 44.7692C205.425 44.7744 205.261 44.5863 205.263 43.9149C205.284 30.0706 205.284 16.2237 205.263 2.37943C205.263 1.65573 205.467 1.48853 206.17 1.49114C210.726 1.52249 215.283 1.52772 219.836 1.48853C220.576 1.4833 220.712 1.69754 220.709 2.38988C220.683 9.32639 220.693 16.2629 220.693 23.1994H220.691Z" fill="#020202"/>
</svg>
