<svg width="25" height="26" viewBox="0 0 25 26" fill="none" xmlns="http://www.w3.org/2000/svg">
<g clip-path="url(#clip0_1598_19329)">
<path d="M22.9168 12.003V12.9997C22.9156 15.3358 22.1882 17.6089 20.8432 19.48C19.4983 21.3511 17.6078 22.7199 15.4537 23.3822C13.2996 24.0446 10.9973 23.9651 8.89024 23.1555C6.78316 22.3459 4.98418 20.8496 3.76158 18.8898C2.53898 16.9301 1.95828 14.6118 2.10608 12.2807C2.25387 9.94963 3.12225 7.73071 4.5817 5.95485C6.04116 4.17899 8.01348 2.94135 10.2045 2.42652C12.3956 1.91168 14.6879 2.14722 16.7398 3.09802" stroke="white" stroke-width="3" stroke-linecap="round" stroke-linejoin="round"/>
<path d="M22.9167 4.33301L12.5 15.1772L9.375 11.9272" stroke="white" stroke-width="3" stroke-linecap="round" stroke-linejoin="round"/>
</g>
<defs>
<clipPath id="clip0_1598_19329">
<rect width="25" height="26" fill="white"/>
</clipPath>
</defs>
</svg>
