<svg width="23" height="31" viewBox="0 0 23 31" fill="none" xmlns="http://www.w3.org/2000/svg">
<path d="M9.34019 22.6217V25.7747C9.34019 27.1759 9.88787 28.4885 10.8817 29.4707C11.8758 30.4568 13.1989 31 14.6079 31C16.658 31 18.4824 29.8489 19.3566 28.0378C21.3659 28.0361 23 26.4143 23 24.4211C23 22.4266 21.3645 20.8044 19.3537 20.8044C17.3429 20.8044 15.7074 22.4266 15.7074 24.4211C15.7074 26.0395 16.7848 27.4129 18.2656 27.8732C17.5176 29.1461 16.1168 29.9666 14.6079 29.9666C13.4772 29.9666 12.4157 29.5308 11.6176 28.7393C10.8206 27.9515 10.3817 26.8989 10.3817 25.7747V22.6212C15.5756 22.3505 19.7175 18.0745 19.7175 12.8563V12.498C19.7175 11.4827 19.0014 10.6314 18.0444 10.4111C17.9276 9.62205 17.4916 8.94571 16.8805 8.58725C16.9149 8.28788 16.9493 7.99043 16.9892 7.68167C17.0038 7.54592 17.0214 7.40897 17.0391 7.27154L17.0648 7.06515C17.1006 6.8244 17.1183 6.57237 17.1183 6.31623C17.1183 2.8718 13.8625 0.0381348 9.85003 0C7.55396 0.0223445 5.44342 0.953862 4.05878 2.55472C2.91908 3.87259 2.41865 5.47419 2.64828 7.05635C2.71489 7.57052 2.77812 8.07966 2.84134 8.58611C2.22801 8.9429 1.79056 9.6195 1.6738 10.4109C0.716473 10.6315 4.24754e-08 11.4825 4.24754e-08 12.4984V12.8566C-0.000484448 18.0758 4.14381 22.3534 9.33945 22.6222L9.34019 22.6217ZM16.7492 24.4216C16.7492 22.997 17.9175 21.8382 19.3537 21.8382C20.7899 21.8382 21.9582 22.997 21.9582 24.4216C21.9582 25.8461 20.7899 27.0049 19.3537 27.0049C17.9175 27.0049 16.7492 25.8461 16.7492 24.4216ZM3.55829 9.38723C3.55902 9.38699 3.55975 9.38651 3.56047 9.38627C3.5876 9.37762 3.61279 9.36585 3.6375 9.35359C3.64332 9.35047 3.65034 9.34879 3.65591 9.34566C3.66536 9.34038 3.67335 9.33365 3.68232 9.32764C3.90831 9.34278 4.13504 9.35359 4.36735 9.35359C4.43469 9.35359 4.50251 9.35335 4.57058 9.35191C6.10677 9.31299 7.57711 8.91102 8.94092 8.15657C9.19235 8.0177 9.28222 7.70295 9.14221 7.45354C9.00148 7.20414 8.68464 7.11572 8.43343 7.25388C7.21839 7.92591 5.90989 8.28413 4.54758 8.31851C4.31213 8.3226 4.08322 8.31539 3.85554 8.30241C3.79813 7.84231 3.7412 7.38343 3.68089 6.91634C3.49341 5.62541 3.90835 4.31499 4.84967 3.22711C6.03829 1.85228 7.8647 1.05293 9.85029 1.03325C13.2836 1.06592 16.0768 3.43611 16.0768 6.31645C16.0768 6.52284 16.0625 6.72418 16.0322 6.92817L16.0252 6.98367C14.6183 6.57209 13.4287 5.70092 12.5623 4.4354C12.5574 4.42843 12.5516 4.42291 12.5463 4.41642C12.5359 4.40273 12.5247 4.38999 12.5129 4.37726C12.5 4.36308 12.4865 4.35035 12.4722 4.33809C12.4666 4.33329 12.462 4.32752 12.4562 4.32248C12.4499 4.31767 12.4431 4.31455 12.4368 4.30998C12.421 4.29869 12.4048 4.28836 12.3881 4.27875C12.3743 4.27082 12.36 4.26361 12.3457 4.25713C12.33 4.25016 12.3145 4.24415 12.2982 4.23863C12.282 4.2331 12.2655 4.22829 12.2488 4.22445C12.2331 4.22061 12.2176 4.2182 12.2016 4.2158C12.1846 4.2134 12.1677 4.21172 12.1505 4.211C12.1338 4.21028 12.1175 4.211 12.1008 4.21172C12.0841 4.21268 12.0681 4.21412 12.0514 4.21652C12.0347 4.21892 12.0185 4.22277 12.0017 4.22685C11.985 4.23094 11.969 4.23574 11.9528 4.24175C11.9378 4.24728 11.9233 4.25352 11.9082 4.26025C11.8908 4.26818 11.8746 4.27707 11.8579 4.28716C11.8513 4.29124 11.8441 4.29365 11.8373 4.29821C11.8307 4.30278 11.8259 4.3083 11.8196 4.31263C11.8046 4.32368 11.7908 4.33545 11.777 4.34819C11.7639 4.3602 11.7513 4.37269 11.7399 4.38615C11.7346 4.3924 11.728 4.39672 11.7229 4.40345C11.239 5.00387 10.7233 5.54497 10.1894 6.01132C9.97383 6.20017 9.953 6.52669 10.1431 6.7405C10.2458 6.8563 10.3897 6.91541 10.5341 6.91541C10.6564 6.91541 10.7792 6.87264 10.8783 6.78615C11.301 6.41662 11.7121 6.00432 12.1067 5.55673C13.1032 6.77944 14.3987 7.6165 15.8988 8.01679C15.8649 8.29069 15.8293 8.56508 15.8002 8.83681C15.7961 8.87261 15.7956 8.90842 15.7992 8.94349C15.8002 8.95238 15.8031 8.96103 15.8046 8.96992C15.8084 8.99395 15.8118 9.01822 15.8188 9.04128C15.8242 9.0593 15.8324 9.07564 15.8397 9.0927C15.8452 9.10616 15.8499 9.12033 15.8566 9.13331C15.8654 9.14988 15.8765 9.16454 15.8869 9.17992C15.8951 9.19193 15.9022 9.20515 15.9111 9.21644C15.9225 9.23061 15.9361 9.24263 15.9489 9.25536C15.9596 9.26593 15.9695 9.27818 15.9809 9.2878C15.9995 9.30365 16.0204 9.31639 16.0412 9.32936C16.049 9.33417 16.0555 9.33993 16.0635 9.3445C16.0938 9.36132 16.126 9.37525 16.1601 9.38582C16.6742 9.548 17.0329 10.1451 17.0329 10.8634C17.0222 11.6623 16.5305 12.3132 15.9285 12.3274C15.9237 12.3266 15.9191 12.3288 15.9142 12.3281C15.8556 12.3228 15.798 12.3254 15.7435 12.3384C15.7418 12.3387 15.7403 12.3394 15.7386 12.3399C15.6824 12.354 15.6306 12.3785 15.5831 12.4095C15.579 12.4122 15.5749 12.4141 15.5705 12.4167C15.5247 12.4485 15.485 12.4881 15.4513 12.5333C15.4467 12.539 15.4424 12.5443 15.4383 12.5506C15.407 12.596 15.3838 12.6469 15.3685 12.7024C15.367 12.7072 15.3637 12.7111 15.3622 12.7159C15.3605 12.7231 15.3605 12.7308 15.3591 12.738C15.3574 12.7457 15.3545 12.7524 15.3532 12.7603C14.8693 15.7845 12.5051 18.0654 9.85344 18.0654C7.20632 18.0654 4.84531 15.7845 4.36113 12.7603C4.35968 12.7524 4.35653 12.7454 4.35532 12.738C4.35387 12.7308 4.35387 12.7236 4.35217 12.7164C4.3512 12.7116 4.34733 12.7082 4.34636 12.7034C4.33061 12.6476 4.30712 12.596 4.27563 12.5501C4.27248 12.5453 4.2686 12.5412 4.26521 12.5366C4.16033 12.3946 3.98665 12.312 3.79916 12.3293C3.79456 12.3295 3.7902 12.3279 3.78536 12.3283C3.18632 12.3187 2.69291 11.6657 2.68249 10.8382C2.68419 10.1546 3.05189 9.54437 3.55864 9.38722L3.55829 9.38723ZM1.04152 12.4979C1.04152 12.0436 1.31863 11.6534 1.71322 11.4814C1.92202 12.4304 2.57995 13.149 3.41443 13.3206C4.11856 16.6406 6.82161 19.0989 9.85487 19.0989C12.8932 19.0989 15.5989 16.6403 16.3034 13.3201C17.1379 13.1476 17.7955 12.4295 18.0046 11.4813C18.3987 11.6536 18.6755 12.0435 18.6755 12.4979V12.8561C18.6755 17.6727 14.7289 21.592 9.87497 21.6013C9.87012 21.6013 9.86552 21.5998 9.86067 21.5998C9.85535 21.5998 9.8505 21.6013 9.84542 21.6013C4.98965 21.5941 1.04173 17.6739 1.04173 12.8561L1.04152 12.4979Z" fill="white"/>
</svg>
