<svg width="25" height="26" viewBox="0 0 25 26" fill="none" xmlns="http://www.w3.org/2000/svg">
<g clip-path="url(#clip0_0_5561)">
<path d="M22.9163 12.003V12.9997C22.9151 15.3358 22.1877 17.6089 20.8427 19.48C19.4978 21.3511 17.6073 22.7199 15.4532 23.3822C13.2991 24.0446 10.9968 23.9651 8.88975 23.1555C6.78268 22.3459 4.98369 20.8496 3.76109 18.8898C2.53849 16.9301 1.95779 14.6118 2.10559 12.2807C2.25339 9.94963 3.12176 7.73071 4.58122 5.95485C6.04067 4.17899 8.01299 2.94135 10.204 2.42652C12.3951 1.91168 14.6875 2.14722 16.7393 3.09802" stroke="white" stroke-width="3" stroke-linecap="round" stroke-linejoin="round"/>
<path d="M22.9167 4.33301L12.5 15.1772L9.375 11.9272" stroke="white" stroke-width="3" stroke-linecap="round" stroke-linejoin="round"/>
</g>
<defs>
<clipPath id="clip0_0_5561">
<rect width="25" height="26" fill="white"/>
</clipPath>
</defs>
</svg>
