<svg width="46" height="45" viewBox="0 0 46 45" fill="none" xmlns="http://www.w3.org/2000/svg">
<path d="M38.1875 22.4848C38.1875 14.1089 31.3835 7.3125 23 7.3125C14.6165 7.3125 7.8125 14.1089 7.8125 22.4848C7.8125 27.098 9.90838 31.2556 13.1889 34.0463C13.2193 34.0767 13.2496 34.0767 13.2496 34.107C13.523 34.3197 13.7964 34.5323 14.1001 34.7449C14.252 34.836 14.3735 34.9556 14.5254 35.0771C17.0352 36.7788 19.998 37.6882 23.0304 37.6875C26.0627 37.6882 29.0255 36.7788 31.5354 35.0771C31.6873 34.986 31.8088 34.8664 31.9606 34.7734C32.234 34.5627 32.5378 34.35 32.8111 34.1374C32.8415 34.107 32.8719 34.107 32.8719 34.0767C36.0916 31.2537 38.1875 27.098 38.1875 22.4848ZM23 35.7758C20.1447 35.7758 17.5325 34.8645 15.3759 33.3477C15.4062 33.1047 15.467 32.8636 15.5278 32.6206C15.7087 31.962 15.9742 31.3296 16.3175 30.7392C16.6516 30.1621 17.0465 29.6457 17.5325 29.1901C17.9881 28.7345 18.5349 28.3111 19.0816 27.977C19.6587 27.6429 20.2663 27.3999 20.9345 27.2176C21.6079 27.0361 22.3025 26.9448 23 26.9461C25.0705 26.9315 27.065 27.7257 28.5586 29.1597C29.2573 29.8583 29.804 30.6785 30.1989 31.6182C30.4115 32.1649 30.5634 32.7421 30.6545 33.3477C28.4128 34.9237 25.7403 35.7714 23 35.7758ZM18.3526 21.7273C18.085 21.1146 17.9504 20.452 17.9577 19.7833C17.9577 19.117 18.0793 18.4487 18.3526 17.8412C18.626 17.2337 18.9905 16.6889 19.4461 16.2333C19.9017 15.7776 20.4485 15.415 21.056 15.1417C21.6635 14.8683 22.3317 14.7468 23 14.7468C23.6986 14.7468 24.3365 14.8683 24.944 15.1417C25.5515 15.415 26.0982 15.7795 26.5539 16.2333C27.0095 16.6889 27.374 17.2356 27.6474 17.8412C27.9207 18.4487 28.0422 19.117 28.0422 19.7833C28.0422 20.482 27.9207 21.1198 27.6474 21.7254C27.3835 22.3239 27.013 22.8695 26.5539 23.3353C26.0879 23.7938 25.5424 24.1637 24.944 24.4269C23.6888 24.9427 22.2808 24.9427 21.0256 24.4269C20.4273 24.1637 19.8818 23.7938 19.4157 23.3353C18.956 22.8762 18.5943 22.3285 18.3526 21.7254V21.7273ZM32.4466 31.8004C32.4466 31.7397 32.4163 31.7093 32.4163 31.6486C32.1175 30.6982 31.6772 29.7984 31.1101 28.9794C30.5425 28.1543 29.845 27.4266 29.0446 26.8246C28.4334 26.3648 27.7708 25.9775 27.0702 25.6704C27.389 25.4601 27.6843 25.2164 27.9511 24.9433C28.404 24.4962 28.8017 23.9965 29.1357 23.4549C29.8085 22.3497 30.1559 21.0771 30.1381 19.7833C30.1475 18.8256 29.9615 17.876 29.5914 16.9926C29.226 16.1414 28.7 15.3686 28.0422 14.7164C27.3855 14.071 26.6125 13.5557 25.7641 13.1977C24.8793 12.8282 23.9285 12.6428 22.9696 12.6528C22.0107 12.6434 21.0598 12.8295 20.1751 13.1996C19.3194 13.5568 18.5446 14.0831 17.897 14.7468C17.2516 15.4029 16.7363 16.1752 16.3783 17.023C16.0081 17.9064 15.8221 18.856 15.8315 19.8137C15.8315 20.482 15.9226 21.1198 16.1049 21.7254C16.2871 22.3633 16.5301 22.9404 16.8643 23.4853C17.168 24.032 17.5933 24.518 18.0489 24.9737C18.3223 25.247 18.626 25.4881 18.9601 25.7008C18.2574 26.016 17.5946 26.4137 16.9857 26.8854C16.196 27.4929 15.4974 28.22 14.9202 29.0097C14.3474 29.8254 13.9066 30.7261 13.6141 31.6789C13.5837 31.7397 13.5837 31.8004 13.5837 31.8308C11.1841 29.4027 9.69575 26.126 9.69575 22.4848C9.69575 15.172 15.6796 9.19385 23 9.19385C30.3204 9.19385 36.3043 15.172 36.3043 22.4848C36.3003 25.9779 34.9133 29.3272 32.4466 31.8004Z" fill="#302F7B"/>
</svg>
