<svg width="45" height="45" viewBox="0 0 45 45" fill="none" xmlns="http://www.w3.org/2000/svg">
<path d="M34.2911 20.3163L23.0707 10.0662C22.7059 9.733 22.2256 9.55267 21.73 9.56291C21.2345 9.57316 20.7621 9.7732 20.4116 10.1212L10.0921 20.3681L9.5625 20.8939V36H19.5067V26.5747H24.9308V36H34.875V20.8498L34.2911 20.3163ZM21.7689 11.3578C21.7848 11.3578 21.775 11.3613 21.7682 11.3679C21.7611 11.3613 21.753 11.3578 21.7689 11.3578ZM33.067 34.2047H26.7388V26.5747C26.7388 26.0985 26.5484 25.6419 26.2093 25.3052C25.8702 24.9685 25.4103 24.7794 24.9308 24.7794H19.5067C19.0272 24.7794 18.5673 24.9685 18.2282 25.3052C17.8892 25.6419 17.6987 26.0985 17.6987 26.5747V34.2047H11.3705V21.6376L21.7689 11.3907L21.7702 11.3887L33.067 21.6376V34.2047Z" fill="#302F7B"/>
</svg>
