<svg width="47" height="62" viewBox="0 0 47 62" fill="none" xmlns="http://www.w3.org/2000/svg">
<path d="M19.3772 45.2178V51.5063C19.3772 54.301 20.4607 56.9188 22.4268 58.8778C24.3934 60.8444 27.0107 61.9278 29.7982 61.9278C33.8537 61.9278 37.4629 59.632 39.1923 56.0199C43.1672 56.0165 46.3999 52.7819 46.3999 48.8065C46.3999 44.8287 43.1644 41.5932 39.1866 41.5932C35.2088 41.5932 31.9732 44.8287 31.9732 48.8065C31.9732 52.0343 34.1047 54.7735 37.034 55.6916C35.5543 58.2303 32.7831 59.8668 29.7982 59.8668C27.5614 59.8668 25.4615 58.9975 23.8825 57.4191C22.3059 55.8478 21.4377 53.7484 21.4377 51.5063V45.2169C31.7126 44.6768 39.9062 36.1486 39.9062 25.7412V25.0267C39.9062 23.0016 38.4897 21.3038 36.5964 20.8644C36.3655 19.2907 35.5029 17.9418 34.2939 17.2269C34.3619 16.6298 34.4299 16.0366 34.509 15.4208C34.5378 15.15 34.5727 14.8769 34.6077 14.6028L34.6585 14.1911C34.7294 13.711 34.7644 13.2083 34.7644 12.6975C34.7644 5.8277 28.3236 0.176158 20.3858 0.100098C15.8436 0.144658 11.6684 2.0025 8.9292 5.1953C6.6746 7.8238 5.6846 11.0181 6.1389 14.1736C6.2707 15.1991 6.3957 16.2145 6.5208 17.2246C5.3075 17.9362 4.4421 19.2856 4.2111 20.8641C2.3173 21.304 0.899902 23.0013 0.899902 25.0274V25.7419C0.898902 36.1513 9.0974 44.6827 19.3758 45.2188L19.3772 45.2178ZM34.0343 48.8075C34.0343 45.9664 36.3454 43.6552 39.1866 43.6552C42.0277 43.6552 44.3389 45.9664 44.3389 48.8075C44.3389 51.6486 42.0277 53.9598 39.1866 53.9598C36.3454 53.9598 34.0343 51.6486 34.0343 48.8075ZM7.9391 18.8224C7.9406 18.8219 7.942 18.821 7.9434 18.8205C7.9971 18.8032 8.047 18.7797 8.0958 18.7553C8.1073 18.7491 8.1212 18.7457 8.1323 18.7395C8.1509 18.7289 8.1668 18.7155 8.1845 18.7036C8.6316 18.7337 9.0801 18.7553 9.5397 18.7553C9.6729 18.7553 9.8071 18.7548 9.9417 18.752C12.9807 18.6743 15.8894 17.8726 18.5874 16.3679C19.0848 16.0909 19.2626 15.4632 18.9856 14.9658C18.7072 14.4683 18.0804 14.292 17.5834 14.5675C15.1798 15.9079 12.5912 16.6223 9.8962 16.6909C9.4304 16.699 8.9776 16.6847 8.5272 16.6588C8.4136 15.7411 8.301 14.8259 8.1817 13.8943C7.8108 11.3197 8.6316 8.7061 10.4938 6.5364C12.8452 3.7944 16.4583 2.2001 20.3863 2.1609C27.1784 2.226 32.704 6.9532 32.704 12.6979C32.704 13.1095 32.6757 13.5111 32.6158 13.9179L32.6019 14.0286C29.8187 13.2078 27.4655 11.4703 25.7513 8.9463C25.7418 8.9324 25.7303 8.9213 25.7197 8.9084C25.6991 8.8811 25.6771 8.8557 25.6536 8.8303C25.6282 8.802 25.6014 8.7766 25.5731 8.7522C25.5621 8.7426 25.553 8.7311 25.5415 8.721C25.529 8.7114 25.5156 8.7052 25.5031 8.6961C25.472 8.6736 25.4399 8.653 25.4068 8.6338C25.3795 8.618 25.3512 8.6036 25.3229 8.5907C25.2918 8.5768 25.2611 8.5648 25.229 8.5538C25.1969 8.5428 25.1643 8.5332 25.1313 8.5255C25.1001 8.5179 25.0695 8.5131 25.0378 8.5083C25.0043 8.5035 24.9707 8.5001 24.9367 8.4987C24.9037 8.4973 24.8715 8.4987 24.8385 8.5001C24.8054 8.502 24.7738 8.5049 24.7407 8.5097C24.7077 8.5145 24.6756 8.5222 24.6425 8.5303C24.6094 8.5385 24.5778 8.548 24.5457 8.56C24.516 8.571 24.4872 8.5835 24.4575 8.5969C24.423 8.6127 24.3909 8.6305 24.3579 8.6506C24.3449 8.6587 24.3305 8.6635 24.3171 8.6726C24.3042 8.6817 24.2946 8.6928 24.2821 8.7014C24.2524 8.7234 24.2251 8.7469 24.1978 8.7723C24.1719 8.7963 24.147 8.8212 24.1245 8.848C24.1139 8.8605 24.101 8.8691 24.0909 8.8825C23.1335 10.08 22.1133 11.1592 21.0572 12.0893C20.6307 12.466 20.5895 13.1172 20.9657 13.5436C21.1689 13.7746 21.4535 13.8925 21.7391 13.8925C21.9811 13.8925 22.2241 13.8072 22.4201 13.6347C23.2562 12.8977 24.0694 12.0754 24.8501 11.1827C26.8215 13.6213 29.3842 15.2908 32.3518 16.0891C32.2847 16.6354 32.2143 17.1827 32.1568 17.7246C32.1487 17.796 32.1477 17.8674 32.1549 17.9374C32.1568 17.9551 32.1626 17.9724 32.1654 17.9901C32.1731 18.038 32.1798 18.0864 32.1937 18.1324C32.2042 18.1684 32.2205 18.2009 32.2349 18.235C32.2459 18.2618 32.255 18.2901 32.2685 18.316C32.2857 18.349 32.3078 18.3783 32.3284 18.4089C32.3447 18.4329 32.3585 18.4592 32.3763 18.4818C32.3988 18.51 32.4256 18.534 32.451 18.5594C32.4721 18.5805 32.4918 18.6049 32.5143 18.6241C32.5512 18.6557 32.5924 18.6811 32.6336 18.707C32.6489 18.7166 32.6619 18.7281 32.6777 18.7372C32.7376 18.7707 32.8013 18.7985 32.8689 18.8196C33.8857 19.143 34.5954 20.3339 34.5954 21.7666C34.5743 23.3599 33.6015 24.658 32.4107 24.6863C32.4011 24.6849 32.392 24.6892 32.3824 24.6878C32.2665 24.6772 32.1524 24.6825 32.0446 24.7084C32.0412 24.7089 32.0384 24.7103 32.035 24.7113C31.9238 24.7395 31.8213 24.7884 31.7274 24.8502C31.7192 24.8555 31.7111 24.8593 31.7025 24.8646C31.6119 24.9278 31.5333 25.0069 31.4667 25.097C31.4576 25.1085 31.449 25.119 31.4408 25.1315C31.379 25.2221 31.333 25.3237 31.3028 25.4344C31.2999 25.4439 31.2932 25.4516 31.2903 25.4612C31.287 25.4756 31.287 25.4909 31.2841 25.5053C31.2808 25.5206 31.275 25.534 31.2726 25.5498C30.3152 31.5815 25.6382 36.1304 20.3926 36.1304C15.1559 36.1304 10.4852 31.5815 9.5274 25.5498C9.5245 25.534 9.5183 25.5201 9.5159 25.5053C9.513 25.4909 9.513 25.4765 9.5096 25.4622C9.5077 25.4526 9.5 25.4459 9.4981 25.4363C9.467 25.3251 9.4205 25.2221 9.3582 25.1305C9.352 25.121 9.3443 25.1128 9.3376 25.1037C9.1301 24.8205 8.7865 24.6557 8.4156 24.6902C8.4065 24.6906 8.3979 24.6873 8.3883 24.6883C7.2033 24.6691 6.2272 23.3667 6.2066 21.7162C6.2099 20.353 6.9366 19.1358 7.9391 18.8224ZM2.9603 25.0265C2.9603 24.1203 3.5085 23.3422 4.2891 22.9991C4.7022 24.8919 6.0037 26.3251 7.6545 26.6673C9.0475 33.2888 14.3948 38.1918 20.3954 38.1918C26.4059 38.1918 31.7586 33.2882 33.1523 26.6663C34.8031 26.3222 36.104 24.89 36.5177 22.9989C37.2973 23.3425 37.845 24.1203 37.845 25.0264V25.7408C37.845 35.3473 30.0374 43.1642 20.4352 43.1826C20.4256 43.1826 20.4165 43.1797 20.4069 43.1797C20.3963 43.1797 20.3868 43.1826 20.3767 43.1826C10.7707 43.1682 2.9607 35.3496 2.9607 25.7408L2.9603 25.0265Z" fill="white"/>
</svg>
