<svg width="201" height="50" viewBox="0 0 201 50" fill="none" xmlns="http://www.w3.org/2000/svg">
<path d="M21.0355 40.9796C21.3441 40.6249 21.6528 40.2824 22.073 40.0377C23.6621 39.1264 25.8159 39.7992 26.4397 41.5423C26.9191 42.8879 26.223 44.3252 24.9163 44.9001C23.5242 45.5118 21.771 45.1326 20.9502 43.6463C20.8451 43.4506 20.74 43.3894 20.5102 43.365C19.8076 43.2793 19.0918 43.1998 18.4089 43.0347C17.4437 42.8023 16.4849 42.5332 15.5525 42.2029C13.7205 41.5607 12.0329 40.6677 10.4766 39.5607C8.93349 38.472 7.58079 37.2121 6.39883 35.7931C5.06583 34.1784 4.02176 32.4108 3.27975 30.5026C2.82666 29.3466 2.49834 28.154 2.28164 26.9307C2.03211 25.5118 1.94675 24.0806 2.03211 22.6494C2.08465 21.7564 2.20941 20.8695 2.39984 19.9888C2.63623 18.9062 2.95799 17.842 3.37168 16.8084C3.72627 15.9154 4.17279 15.0591 4.66528 14.2212C6.02454 11.9154 7.82375 9.96435 10.017 8.31909C11.7505 7.02245 13.6679 6.01327 15.7495 5.27321C16.7739 4.90624 17.8311 4.61878 18.908 4.41694C19.8733 4.23346 20.8517 4.12337 21.8432 4.04997C23.1237 3.95211 24.3976 4.00716 25.6649 4.1356C26.9782 4.27015 28.2718 4.53315 29.5391 4.90012C31.1676 5.37107 32.7107 6.01939 34.1685 6.83285C34.615 7.08361 35.055 7.34661 35.4687 7.6463C36.0202 8.03774 36.1253 8.71052 35.7576 9.23652C35.3702 9.79921 34.615 9.96435 33.9846 9.60961C33.3871 9.27321 32.8027 8.91236 32.1985 8.5882C31.2792 8.09279 30.3074 7.68912 29.2962 7.39554C28.4425 7.14477 27.5757 6.91847 26.6958 6.73499C26.1114 6.61266 25.5073 6.5515 24.9097 6.5148C23.7015 6.43529 22.4867 6.42918 21.2719 6.53927C19.2297 6.72887 17.2795 7.23652 15.4212 8.04386C12.5582 9.28545 10.1877 11.0836 8.29654 13.4384C7.00294 15.0408 6.04424 16.8084 5.41385 18.7228C5.033 19.8787 4.80317 21.0653 4.68497 22.2763C4.56021 23.6096 4.61931 24.9307 4.79661 26.2518C4.88854 26.9552 5.05926 27.6524 5.26283 28.3313C5.65025 29.6218 6.18213 30.8573 6.87161 32.0377C8.23088 34.3497 10.0498 36.2824 12.3349 37.8298C13.7073 38.7656 15.211 39.4995 16.8067 40.0561C18.1266 40.5087 19.4793 40.8145 20.8714 40.9674C20.937 40.9796 20.983 40.9796 21.0355 40.9796ZM23.6227 41.2121C22.8741 41.1815 22.3226 41.8114 22.316 42.3925C22.3094 43.0469 22.8807 43.5913 23.5899 43.6035C24.3188 43.6157 24.9163 43.0775 24.9163 42.4047C24.9097 41.8971 24.4632 41.1998 23.6227 41.2121Z" fill="white"/>
<path d="M28.1472 31.8607C24.2467 33.7078 20.5695 33.4448 17.0236 31.1207C16.2881 31.4081 15.5133 31.4387 14.745 31.1696C14.1212 30.9494 13.6222 30.5641 13.2741 30.032C12.5715 28.9494 12.7225 27.5733 13.6747 26.6497C14.6203 25.7323 16.1371 25.5427 17.3257 26.191C18.002 26.558 18.4485 27.0962 18.6652 27.7996C18.8753 28.4846 18.7965 29.1512 18.5011 29.7934C21.0095 31.6467 25.1726 31.8485 28.1472 29.6161C31.1547 27.3531 31.6997 23.6895 30.5965 21.3347C30.2222 21.3347 29.8479 21.3653 29.4802 21.3286C28.4887 21.2369 27.7467 20.7598 27.2673 19.9586C26.3414 18.3989 27.136 16.3378 29.2176 15.8974C31.2006 15.4815 32.77 16.8821 32.8291 18.4479C32.8488 19.0106 32.7569 19.5427 32.422 20.0136C32.3104 20.1726 32.3235 20.3072 32.3892 20.4662C32.9802 21.8424 33.2166 23.2674 33.0458 24.7415C32.8291 26.6008 32.12 28.2766 30.8067 29.7078C30.4718 30.0809 30.104 30.4295 29.7429 30.8026C31.6012 32.8944 33.4595 34.9861 35.3441 37.1146C35.7447 36.8026 36.1386 36.5213 36.5129 36.2155C37.7803 35.1696 38.8572 33.9708 39.7633 32.6375C40.6892 31.2736 41.3787 29.8118 41.8449 28.2583C42.4425 26.2766 42.6329 24.2522 42.4228 22.2032C42.2849 20.8454 41.95 19.5243 41.4641 18.2338C40.7811 16.4173 39.7765 14.772 38.4829 13.2797C38.1743 12.9188 38.0626 12.5396 38.2399 12.0809C38.4894 11.4265 39.5663 11.0656 40.2033 11.7812C40.6892 12.3255 41.1357 12.9005 41.5626 13.4876C42.6263 14.9494 43.4012 16.5457 43.9659 18.2277C44.3205 19.2797 44.5372 20.3684 44.6948 21.4632C44.8852 22.821 44.8983 24.1849 44.767 25.5427C44.4584 28.6681 43.3683 31.5427 41.5166 34.1665C40.5645 35.5121 39.4482 36.7292 38.1546 37.7996C37.5701 38.2828 36.9398 38.7231 36.3159 39.1757C36.1846 39.2736 36.0204 39.3409 35.8563 39.402C35.3638 39.5855 34.937 39.4509 34.6021 39.1084C34.1818 38.6803 33.7944 38.2216 33.3939 37.7751C32.0149 36.2277 30.6359 34.6864 29.257 33.139C28.9352 32.7843 28.62 32.4234 28.3048 32.0687C28.2523 31.9953 28.1932 31.9219 28.1472 31.8607ZM17.109 28.5641C17.109 27.9525 16.6165 27.3714 15.8154 27.3714C15.1456 27.3714 14.5546 27.8118 14.5218 28.5702C14.4889 29.2185 15.1324 29.7812 15.8482 29.7751C16.5574 29.769 17.1155 29.2369 17.109 28.5641ZM28.5937 18.6069C28.5937 19.2736 29.1519 19.7934 29.8676 19.7996C30.5768 19.8057 31.1547 19.2736 31.1612 18.613C31.1678 17.9463 30.5834 17.402 29.8611 17.402C29.1519 17.4081 28.5937 17.9402 28.5937 18.6069Z" fill="white"/>
<path d="M139.173 27.8181C138.188 27.8181 137.216 27.8181 136.198 27.8181C136.192 27.6774 136.185 27.5428 136.185 27.4083C136.185 25.7202 136.185 24.0321 136.179 22.338C136.179 21.922 136.166 21.5 136.12 21.0841C136.041 20.448 135.837 19.8425 135.266 19.4328C134.524 18.9006 133.697 18.8639 132.863 19.2248C131.878 19.6591 131.425 20.4419 131.32 21.4144C131.28 21.7936 131.3 22.185 131.3 22.5643C131.3 24.185 131.3 25.7997 131.3 27.4205C131.3 27.5428 131.3 27.6713 131.3 27.8058C130.269 27.8058 129.291 27.8058 128.266 27.8058C128.266 27.6468 128.266 27.5123 128.266 27.3716C128.266 25.5184 128.26 23.6652 128.266 21.812C128.273 21.1575 128.148 20.5398 127.78 19.9771C126.835 18.5276 124.609 18.6805 123.755 20.026C123.4 20.5826 123.249 21.182 123.256 21.8242C123.263 23.6774 123.256 25.5306 123.256 27.3838C123.256 27.5184 123.256 27.659 123.256 27.812C122.225 27.812 121.24 27.812 120.242 27.812C120.242 24.0566 120.242 20.3257 120.242 16.5948C120.524 16.5276 122.488 16.5092 123.013 16.5704C123.079 16.9557 123.151 17.3532 123.23 17.8242C123.584 17.3961 123.926 17.0169 124.405 16.7844C124.898 16.5459 125.423 16.4113 125.974 16.3685C126.513 16.3257 127.045 16.3563 127.577 16.4725C128.122 16.5887 128.608 16.8211 129.034 17.1575C129.455 17.4878 129.744 17.9037 129.993 18.393C130.151 18.2095 130.289 18.0383 130.433 17.8792C130.945 17.3227 131.536 16.8701 132.291 16.6376C132.79 16.4847 133.309 16.4052 133.841 16.3991C134.734 16.3869 135.607 16.4664 136.441 16.8028C137.669 17.3043 138.418 18.185 138.825 19.341C139.075 20.0566 139.18 20.7967 139.18 21.5428C139.186 23.5367 139.18 25.5245 139.18 27.5184C139.193 27.6162 139.186 27.708 139.173 27.8181Z" fill="white"/>
<path d="M74.8811 27.8235C73.8699 27.8235 72.898 27.8235 71.8802 27.8235C71.8802 27.6706 71.8802 27.536 71.8802 27.3954C71.8737 25.4137 71.8737 23.4321 71.8671 21.4565C71.8671 20.9122 71.7095 20.3984 71.414 19.9275C70.9478 19.1752 69.9957 18.8633 69.1092 19.0529C68.0191 19.2853 67.3822 19.9581 67.0998 20.9489C67.0013 21.2914 66.9751 21.6339 66.9751 21.9825C66.9816 23.7868 66.9751 25.5911 66.9751 27.4015C66.9751 27.5299 66.9751 27.6523 66.9751 27.8296C65.9835 27.848 65.0117 27.8357 64.0004 27.8357C63.9939 27.6889 63.9873 27.5666 63.9873 27.4443C63.9873 25.5911 63.9873 23.7379 63.9873 21.8908C63.9873 21.2914 63.8757 20.7104 63.5802 20.1721C62.6937 18.5269 60.3823 18.692 59.5287 19.9336C59.1609 20.4657 58.9377 21.0345 58.9377 21.6706C58.9377 23.5666 58.9311 25.4688 58.9311 27.3648C58.9311 27.5055 58.9311 27.64 58.9311 27.7746C58.6488 27.8602 56.6131 27.8908 55.9696 27.8235C55.8974 27.5727 55.8711 17.0406 55.9499 16.5758C56.8495 16.5758 57.7557 16.5758 58.6947 16.5758C58.767 16.9795 58.8392 17.3709 58.918 17.848C59.8242 16.6003 61.0915 16.3006 62.5098 16.3801C63.9676 16.4657 65.0248 17.1201 65.6815 18.3923C65.7734 18.2822 65.8456 18.2088 65.9113 18.1354C66.4497 17.4749 67.0933 16.9367 67.9469 16.6614C68.4657 16.4902 69.0107 16.4168 69.5688 16.4107C70.4487 16.4045 71.3089 16.4779 72.1298 16.8143C73.3314 17.3036 74.0669 18.1599 74.4937 19.2853C74.7892 20.062 74.8811 20.8755 74.8943 21.6889C74.9205 23.6339 74.9008 25.5789 74.9008 27.5238C74.9008 27.6094 74.8877 27.7012 74.8811 27.8235Z" fill="white"/>
<path d="M99.8134 17.9093C99.8134 15.897 99.8134 13.897 99.8134 11.8726C100.838 11.8726 101.816 11.8726 102.821 11.8726C102.821 17.1937 102.821 22.4964 102.821 27.8236C101.895 27.8236 100.982 27.8236 100.03 27.8236C99.9709 27.3588 99.9119 26.9001 99.8462 26.3924C99.7543 26.4536 99.682 26.4903 99.6361 26.5453C99.1567 27.157 98.5132 27.5667 97.7581 27.8175C97.259 27.9826 96.7403 28.056 96.2149 28.0744C94.8491 28.1172 93.5555 27.8909 92.3867 27.1937C91.2047 26.4842 90.4299 25.5056 90.0162 24.2518C89.6879 23.2609 89.6551 22.2518 89.7601 21.2426C89.8652 20.2518 90.1738 19.3037 90.8108 18.4842C91.5725 17.5056 92.5706 16.8511 93.8248 16.5453C94.442 16.3924 95.0658 16.2885 95.7093 16.2885C96.8125 16.2885 97.8369 16.5453 98.7627 17.1019C99.1173 17.316 99.4259 17.6096 99.8134 17.9093ZM96.1296 25.4811C98.0864 25.4995 99.6229 24.1478 99.6295 22.2212C99.6426 20.2762 98.1323 18.9001 96.1427 18.9001C94.1334 18.894 92.7282 20.1661 92.7085 22.16C92.6888 24.1356 94.199 25.4995 96.1296 25.4811Z" fill="white"/>
<path d="M150.743 17.9767C150.789 17.4874 150.828 17.047 150.874 16.5822C151.827 16.5822 152.759 16.5822 153.691 16.5822C153.764 16.8391 153.783 27.3528 153.718 27.7871C153.448 27.8605 151.314 27.8727 150.901 27.7993C150.861 27.3345 150.815 26.8635 150.763 26.3131C150.658 26.4171 150.592 26.4782 150.539 26.5394C149.981 27.2183 149.252 27.6525 148.386 27.9094C147.67 28.1235 146.948 28.2152 146.206 28.1602C144.268 28.0073 142.633 27.3284 141.557 25.7382C141.097 25.0593 140.834 24.3192 140.69 23.5302C140.558 22.8085 140.526 22.0929 140.611 21.3712C140.749 20.1663 141.156 19.0593 142.029 18.1296C142.771 17.3406 143.691 16.8146 144.781 16.5394C145.549 16.3437 146.324 16.2397 147.112 16.2825C148.517 16.3681 149.738 16.8085 150.612 17.9033C150.631 17.9216 150.658 17.9278 150.743 17.9767ZM147.171 25.6036C147.992 25.6158 148.734 25.4079 149.371 24.9369C150.592 24.0317 151.025 22.3498 150.474 20.943C149.949 19.6036 148.911 18.8635 147.381 18.8024C145.936 18.7412 144.774 19.2305 144.032 20.4354C143.723 20.943 143.605 21.5057 143.592 22.0745C143.572 22.8207 143.723 23.5363 144.177 24.1663C144.886 25.1632 145.923 25.5791 147.171 25.6036Z" fill="white"/>
<path d="M88.9593 23.1936C87.3571 23.1936 85.7942 23.1936 84.238 23.1936C82.6751 23.1936 81.1123 23.1936 79.5232 23.1936C79.5298 23.5606 79.6742 23.8603 79.8515 24.1478C80.2849 24.8328 80.9547 25.2181 81.7493 25.4199C83.0888 25.7563 84.3759 25.5667 85.6104 25.0102C85.8665 24.8939 86.0897 24.7227 86.3721 24.5514C86.9828 25.1141 87.6131 25.6891 88.2501 26.2762C88.191 26.3435 88.1516 26.3985 88.0991 26.4413C87.1863 27.2059 86.1225 27.6707 84.9274 27.9215C83.798 28.1539 82.6686 28.1784 81.5391 28.0132C80.1996 27.8114 79.0044 27.2976 78.0523 26.3802C77.4088 25.7624 76.9623 25.0224 76.6996 24.1967C76.4107 23.2854 76.3056 22.3496 76.4172 21.4016C76.5551 20.2701 76.936 19.2303 77.7043 18.3251C78.4463 17.4566 79.3919 16.8695 80.5345 16.527C81.7164 16.1722 82.9247 16.1355 84.1329 16.2945C85.5053 16.4719 86.7201 16.9857 87.6328 18.0071C88.1582 18.5942 88.4996 19.267 88.7229 20.0132C89.0249 21.0468 89.0052 22.0866 88.9593 23.1936ZM86.0241 20.8695C86.0306 20.79 86.0437 20.741 86.0306 20.6982C85.8468 19.9153 85.4002 19.3221 84.586 18.9979C83.6798 18.6309 82.7474 18.6126 81.8018 18.8328C80.7774 19.0713 80.0617 19.6523 79.6545 20.5637C79.6151 20.6554 79.602 20.7533 79.5692 20.8695C81.7492 20.8695 83.8702 20.8695 86.0241 20.8695Z" fill="white"/>
<path d="M48.3786 23.86C48.3851 22.9792 48.3326 21.9762 48.1684 20.9854C47.7942 18.7407 47.0915 16.5939 45.9752 14.5694C45.1413 13.0649 44.1432 11.6642 42.9481 10.3921C42.8233 10.2636 42.7051 10.1291 42.6 9.98229C42.2783 9.52358 42.3834 8.87526 42.843 8.53275C43.3815 8.12908 44.0775 8.28198 44.4124 8.61838C45.4236 9.63978 46.3036 10.7468 47.085 11.9272C47.781 12.9731 48.3983 14.0679 48.8908 15.2117C49.3504 16.2759 49.7378 17.3707 50.0399 18.4899C50.5521 20.4104 50.7556 22.3615 50.7425 24.337C50.7359 25.4808 50.6243 26.6184 50.4273 27.7438C50.1384 29.3523 49.659 30.912 49.0155 32.4288C48.2144 34.3309 47.1375 36.0924 45.8373 37.7377C45.4696 38.2025 45.0428 38.6367 44.6554 39.0893C44.222 39.597 43.0531 39.6276 42.6985 38.8019C42.5147 38.3737 42.5869 37.964 42.9218 37.597C43.3158 37.1627 43.7032 36.7224 44.0644 36.2637C45.3645 34.6123 46.3889 32.8325 47.1178 30.8997C47.5381 29.7805 47.8467 28.6306 48.0699 27.4624C48.2866 26.3003 48.3786 25.1444 48.3786 23.86Z" fill="white"/>
<path d="M118.725 17.7499C118.173 18.3615 117.635 18.9486 117.116 19.5236C116.696 19.2973 116.315 19.0526 115.901 18.8691C115.231 18.5756 114.502 18.545 113.774 18.5694C113.334 18.5878 112.907 18.6428 112.506 18.8263C112.132 18.9976 111.889 19.2545 111.876 19.6642C111.869 20.0985 112.119 20.3798 112.513 20.5694C112.966 20.7896 113.458 20.863 113.957 20.8814C114.732 20.9119 115.501 21.0037 116.256 21.1688C116.971 21.3278 117.628 21.5908 118.199 22.0251C118.909 22.5694 119.217 23.3034 119.296 24.1291C119.48 26.1107 118.088 27.4196 116.394 27.9089C115.179 28.2575 113.951 28.2575 112.716 28.1474C111.108 28.0006 109.729 27.3707 108.586 26.2942C108.56 26.2697 108.547 26.2392 108.501 26.178C108.974 25.5419 109.459 24.8936 109.939 24.2453C110.287 24.4716 110.609 24.7101 110.963 24.8997C111.869 25.389 112.854 25.6826 113.898 25.7621C114.509 25.8049 115.093 25.7315 115.632 25.4318C116.151 25.1444 116.387 24.6856 116.289 24.2086C116.216 23.8783 115.993 23.6765 115.678 23.5541C115.172 23.3584 114.647 23.2911 114.108 23.2606C113.005 23.1994 111.928 23.022 110.917 22.5694C110.103 22.2086 109.44 21.6887 109.131 20.8752C108.691 19.7254 108.849 18.6551 109.709 17.707C110.254 17.1138 110.97 16.7774 111.751 16.5327C112.907 16.178 114.089 16.1596 115.277 16.2759C116.538 16.3921 117.668 16.8263 118.626 17.6153C118.666 17.6581 118.679 17.6948 118.725 17.7499Z" fill="white"/>
<path d="M167.573 19.0038C166.805 19.0038 166.096 19.0038 165.347 19.0038C165.308 18.1965 165.334 17.4075 165.334 16.5879C166.076 16.5879 166.792 16.5879 167.56 16.5879C167.593 15.6155 167.553 14.6797 167.58 13.7011C168.565 13.5604 169.543 13.4809 170.567 13.3892C170.594 13.7684 170.581 14.1109 170.581 14.4534C170.581 14.7898 170.581 15.1262 170.581 15.4687C170.581 15.8173 170.581 16.1659 170.581 16.5574C170.955 16.5818 171.31 16.5696 171.671 16.5696C172.045 16.5696 172.419 16.5696 172.794 16.5696C173.155 16.5696 173.516 16.5696 173.897 16.5696C173.897 17.3892 173.897 18.1782 173.897 19.0038C172.78 19.0038 171.69 19.0038 170.574 19.0038C170.567 19.1567 170.554 19.273 170.554 19.383C170.554 20.8142 170.548 22.2454 170.554 23.6827C170.554 23.9947 170.554 24.3066 170.686 24.6063C170.922 25.1445 171.362 25.383 171.953 25.4381C172.386 25.4809 172.794 25.3647 173.194 25.2363C173.306 25.1996 173.424 25.169 173.575 25.12C173.851 25.909 174.113 26.6674 174.389 27.4564C174.291 27.4993 174.199 27.5543 174.1 27.591C173.043 27.9519 171.96 28.0191 170.85 27.9029C169.714 27.7806 168.834 27.2668 168.217 26.3739C167.915 25.9396 167.744 25.4442 167.665 24.9427C167.593 24.484 167.573 24.013 167.567 23.5482C167.553 22.172 167.56 20.802 167.56 19.4259C167.573 19.3096 167.573 19.1812 167.573 19.0038Z" fill="white"/>
<path d="M158.275 27.8241C157.257 27.8241 156.285 27.8241 155.32 27.8241C155.248 27.555 155.221 17.0901 155.287 16.6131C155.556 16.5458 157.356 16.5213 158.039 16.5825C158.111 16.9556 158.183 17.3348 158.262 17.7813C158.387 17.6467 158.465 17.5672 158.538 17.4816C159.188 16.6804 160.074 16.3317 161.125 16.2767C161.919 16.2339 162.694 16.2889 163.449 16.558C163.929 16.7293 164.454 17.0106 164.789 17.3593C164.349 18.1421 163.902 18.9434 163.449 19.7385C163.233 19.61 163.049 19.4877 162.852 19.396C161.703 18.8394 160.56 18.9189 159.457 19.4938C158.912 19.7813 158.61 20.2706 158.426 20.8149C158.308 21.1635 158.268 21.5183 158.268 21.8791C158.275 23.7201 158.268 25.5611 158.268 27.396C158.275 27.5305 158.275 27.6528 158.275 27.8241Z" fill="white"/>
<path d="M39.0211 23.3473C39.0014 25.1821 38.8044 26.5705 38.3841 27.9344C37.8588 29.6286 37.0248 31.1699 35.8954 32.5828C35.5999 32.9497 35.2059 33.1271 34.72 33.0354C34.2538 32.9497 33.9386 32.6806 33.7941 32.2586C33.6759 31.8977 33.781 31.5797 33.9977 31.2739C34.3654 30.7601 34.7463 30.2586 35.0549 29.7204C35.659 28.6867 36.0793 27.5858 36.3551 26.4298C36.6637 25.1271 36.7293 23.8182 36.5849 22.5094C36.3419 20.2708 35.5014 18.228 34.0633 16.4115C33.5183 15.7265 33.781 14.8947 34.6084 14.6317C35.0615 14.491 35.5605 14.6317 35.8823 15.0048C36.5455 15.7815 37.0577 16.6439 37.5239 17.5308C38.1214 18.6745 38.5286 19.8855 38.7518 21.1393C38.9094 22.0017 38.9685 22.8886 39.0211 23.3473Z" fill="white"/>
<path d="M107.423 27.8235C106.432 27.8235 105.46 27.8235 104.469 27.8235C104.469 24.062 104.469 20.3189 104.469 16.5268C105.447 16.5024 106.425 16.5207 107.423 16.5146C107.423 20.2944 107.423 24.0375 107.423 27.8235Z" fill="white"/>
<path d="M198.981 25.4993C197.319 25.4993 195.71 25.4993 194.075 25.4993C194.115 25.9763 194.391 26.276 194.785 26.484C195.362 26.7837 195.986 26.8081 196.604 26.6491C196.958 26.5574 197.293 26.3922 197.667 26.2455C197.937 26.5146 198.245 26.8143 198.573 27.1384C198.39 27.377 198.088 27.5421 197.779 27.6766C196.689 28.1476 195.566 28.2149 194.43 27.8357C193.563 27.5482 192.959 26.9977 192.657 26.1965C192.309 25.273 192.309 24.3433 192.775 23.4442C193.241 22.5452 194.049 22.0681 195.08 21.8846C195.717 21.7684 196.347 21.8112 196.971 21.9825C198.035 22.276 198.646 22.9549 198.915 23.9274C199.033 24.4289 199 24.9427 198.981 25.4993ZM194.102 24.2455C195.238 24.2455 196.334 24.2455 197.444 24.2455C197.405 23.8173 197.181 23.5176 196.801 23.3403C196.111 23.0222 195.422 23.0467 194.758 23.4014C194.423 23.5788 194.187 23.8479 194.102 24.2455Z" fill="white"/>
<path d="M185.946 22.0195C186.583 22.0195 187.161 22.0195 187.805 22.0195C188.231 23.4446 188.665 24.8819 189.092 26.3009C189.492 24.8941 189.893 23.463 190.306 22.0195C190.878 22.0195 191.423 22.0195 192.027 22.0195C191.37 24.0012 190.7 25.9523 190.031 27.9278C189.4 27.9278 188.776 27.9278 188.107 27.9278C187.397 25.9828 186.682 24.0195 185.946 22.0195Z" fill="white"/>
<path d="M179.662 19.6582C180.2 19.6582 180.673 19.6582 181.192 19.6582C181.192 19.7989 181.192 19.9212 181.192 20.0435C181.192 21.964 181.192 23.8906 181.192 25.8111C181.192 25.8723 181.192 25.9273 181.192 25.9885C181.165 26.6551 181.461 26.8509 182.058 26.7714C182.091 26.7652 182.131 26.7775 182.183 26.7836C182.196 26.8386 182.216 26.8937 182.216 26.9487C182.216 27.2301 182.216 27.5053 182.216 27.7989C181.566 28.0191 180.942 28.0313 180.345 27.7377C179.937 27.5359 179.74 27.1873 179.688 26.7714C179.668 26.6123 179.668 26.4472 179.668 26.2821C179.668 24.1964 179.668 22.1108 179.668 20.0252C179.662 19.9151 179.662 19.7989 179.662 19.6582Z" fill="white"/>
<path d="M185.191 27.8913C184.666 27.8913 184.167 27.8913 183.674 27.8913C183.596 27.6345 183.576 22.4173 183.655 22.0137C184.154 22.0137 184.659 22.0137 185.191 22.0137C185.191 23.9709 185.191 25.9097 185.191 27.8913Z" fill="white"/>
<path d="M104.188 13.4079C104.155 12.362 104.936 11.7626 105.928 11.7565C106.978 11.7443 107.714 12.362 107.733 13.3651C107.753 14.2703 107.07 15.0042 105.98 15.0226C105.041 15.0287 104.168 14.4415 104.188 13.4079Z" fill="white"/>
<path d="M184.422 21.194C183.844 21.194 183.496 20.8882 183.49 20.3744C183.483 19.8546 183.871 19.4998 184.429 19.5059C184.961 19.5121 185.355 19.8729 185.355 20.3622C185.355 20.8576 184.987 21.1879 184.422 21.194Z" fill="white"/>
<path d="M178.362 27.0467C178.362 27.5115 177.962 27.8846 177.449 27.8846C176.931 27.8907 176.524 27.5054 176.53 27.0161C176.537 26.5391 176.931 26.1782 177.436 26.1782C177.968 26.1782 178.369 26.5513 178.362 27.0467Z" fill="white"/>
</svg>
