<svg width="128" height="36" viewBox="0 0 128 36" fill="none" xmlns="http://www.w3.org/2000/svg">
<path d="M60.4907 10.9575C58.0594 10.9575 55.6828 11.6918 53.6612 13.0675C51.6397 14.4432 50.0641 16.3985 49.1337 18.6862C48.2033 20.9739 47.9599 23.4913 48.4342 25.9199C48.9085 28.3485 50.0793 30.5793 51.7984 32.3303C53.5176 34.0812 55.7079 35.2736 58.0925 35.7567C60.477 36.2398 62.9487 35.9918 65.1949 35.0442C67.4411 34.0966 69.3609 32.4919 70.7117 30.4331C72.0624 28.3742 72.7833 25.9536 72.7833 23.4774C72.7798 20.158 71.4835 16.9757 69.179 14.6285C66.8744 12.2814 63.7498 10.9611 60.4907 10.9575ZM60.4907 28.9964C59.4187 28.9964 58.3708 28.6726 57.4795 28.0659C56.5883 27.4592 55.8937 26.597 55.4838 25.5882C55.0738 24.5794 54.9668 23.4694 55.1763 22.3987C55.3858 21.3279 55.9025 20.3445 56.6608 19.5729C57.4192 18.8013 58.3853 18.2761 59.4368 18.0637C60.4883 17.8514 61.578 17.9615 62.5681 18.38C63.5582 18.7986 64.4041 19.5068 64.9989 20.4152C65.5937 21.3235 65.9106 22.3911 65.9096 23.4829C65.9081 24.9462 65.3368 26.3491 64.3208 27.3838C63.3049 28.4185 61.9274 29.0005 60.4907 29.0019V28.9964Z" fill="#E20714"/>
<path d="M88.4428 11.5602H85.0866V4.17041H77.7395V11.5602H74.3833V18.3337H77.7395V35.4057H85.0866V18.3337H88.4428V11.5602Z" fill="#E20714"/>
<path d="M99.1596 11.5605H91.8125V35.4061H99.1596V11.5605Z" fill="#E20714"/>
<path d="M95.4835 0.00195312C94.674 0.00249477 93.8829 0.247447 93.2102 0.705841C92.5374 1.16424 92.0132 1.81549 91.7039 2.57727C91.3945 3.33906 91.3138 4.17716 91.472 4.98563C91.6303 5.79411 92.0203 6.53665 92.5928 7.11938C93.1654 7.70211 93.8947 8.09887 94.6886 8.2595C95.4825 8.42013 96.3054 8.33742 97.0531 8.02182C97.8009 7.70622 98.44 7.1719 98.8896 6.48641C99.3392 5.80093 99.5792 4.99506 99.5792 4.17068C99.5778 3.06504 99.1457 2.00513 98.3779 1.22358C97.61 0.442027 96.569 0.00267766 95.4835 0.00195312V0.00195312Z" fill="#E20714"/>
<path d="M22.9054 28.988C23.4432 27.6897 23.6611 26.375 23.6611 24.6056C23.6611 22.1981 22.9188 20.048 21.5742 18.547C20.0037 16.7858 17.3144 15.3397 13.6032 14.2167C12.8865 14.0133 12.1883 13.7476 11.5163 13.4224C10.9279 13.1352 10.3992 12.7354 9.95922 12.2446C9.72826 11.983 9.55024 11.6775 9.43534 11.3457C9.32043 11.0139 9.27091 10.6622 9.28959 10.3109C9.28959 9.21531 9.87316 8.45388 10.8198 7.84582C12.0084 7.08439 14.2916 7.0077 16.6286 7.88965C17.4509 8.19926 18.2439 8.5843 18.9979 9.04002L22.1201 2.69928C20.961 1.99263 19.3098 1.07507 17.6425 0.64231C16.0133 0.212336 14.3368 -0.00306123 12.6539 0.00138907C11.0659 -0.0217542 9.48664 0.244464 7.99067 0.787476C6.65639 1.32146 5.44235 2.12559 4.422 3.15121C3.40705 4.18908 2.60127 5.41916 2.05006 6.77214C1.50955 8.17528 1.24194 9.67203 1.2621 11.1792C1.35192 13.571 2.3441 15.8353 4.03206 17.5007C6.18348 19.544 8.60382 20.2698 9.57465 20.6533C10.5455 21.0367 11.6239 21.3654 12.3123 21.6393C13.0192 21.9092 13.694 22.2592 14.3239 22.6829C14.7771 22.9886 15.1471 23.406 15.3996 23.8962C15.6189 24.3697 15.6983 24.8978 15.6282 25.4164C15.5522 26.2135 15.1775 26.9502 14.5821 27.4733C13.9528 28.0759 12.8179 28.4238 11.2043 28.4238C9.78073 28.3845 8.38096 28.0421 7.09514 27.4186C5.94806 26.8943 4.83591 26.2941 3.76582 25.6218L0.103027 32.1378C2.66591 34.455 6.82621 35.9998 10.5186 35.9998C12.3994 36.0007 14.2684 35.6974 16.0558 35.1014C17.5899 34.5825 19.0135 33.7721 20.2511 32.713C21.3825 31.6746 22.2868 30.4055 22.9054 28.988V28.988Z" fill="#E20714"/>
<path d="M43.0264 26.9395C42.3235 27.8299 41.3666 28.4763 40.2878 28.7893C39.209 29.1024 38.0613 29.0667 37.0032 28.6872C35.9451 28.3078 35.0287 27.6032 34.3805 26.6708C33.7322 25.7384 33.3841 24.624 33.3841 23.4815C33.3841 22.339 33.7322 21.2246 34.3805 20.2922C35.0287 19.3598 35.9451 18.6552 37.0032 18.2758C38.0613 17.8963 39.209 17.8606 40.2878 18.1737C41.3666 18.4867 42.3235 19.1331 43.0264 20.0235L47.8939 15.066C46.7452 13.7726 45.343 12.7387 43.7779 12.0311C42.2127 11.3234 40.5193 10.9577 38.8069 10.9575C32.0299 10.9575 26.127 15.8877 26.127 23.4829C26.127 31.0781 32.0434 36 38.8069 36C40.5193 35.9998 42.2127 35.6341 43.7779 34.9265C45.343 34.2188 46.7452 33.185 47.8939 31.8915L43.0264 26.9395Z" fill="#E20714"/>
<path d="M127.897 35.4056V11.5574H120.736V14.0663L120.072 13.4609C118.278 11.8258 116.28 10.9575 113.902 10.9575C107.583 10.9575 102.244 16.6902 102.244 23.4774C102.244 30.2646 107.583 35.9945 113.902 35.9945C116.269 35.9945 118.278 35.1317 120.072 33.4966L120.736 32.894V35.4002L127.897 35.4056ZM115.045 29.106C113.951 29.1049 112.882 28.7733 111.972 28.153C111.063 27.5328 110.355 26.6519 109.937 25.6216C109.52 24.5914 109.412 23.4582 109.627 22.3654C109.842 21.2725 110.37 20.2692 111.145 19.4822C111.92 18.6953 112.906 18.1601 113.98 17.9444C115.054 17.7287 116.166 17.8421 117.176 18.2704C118.187 18.6987 119.05 19.4225 119.656 20.3503C120.262 21.2782 120.585 22.3683 120.583 23.4829C120.581 24.9774 119.997 26.4101 118.959 27.4661C117.92 28.5221 116.513 29.1149 115.045 29.1142V29.106Z" fill="#E20714"/>
</svg>
