<svg width="179" height="49" viewBox="0 0 179 49" fill="none" xmlns="http://www.w3.org/2000/svg">
<path d="M31.5785 0H0.230957V30.2639H31.5785V0Z" fill="url(#paint0_linear_428_10312)"/>
<path d="M30.6081 15.2974C30.6081 21.6141 30.9118 28.0773 30.9118 28.0773C30.9244 28.2263 30.9055 28.3762 30.8562 28.5179C30.807 28.6596 30.7284 28.7901 30.6253 28.9016C30.5222 29.0131 30.3966 29.1032 30.2563 29.1664C30.1161 29.2296 29.9639 29.2646 29.8092 29.2693H2.68052C2.07311 29.2693 1.65057 28.7466 1.57794 28.0773C1.0234 23.444 0.763229 18.7823 0.798876 14.1182C0.798876 5.69177 1.57794 1.72075 1.57794 1.72075C1.67037 1.02598 2.07311 0.528809 2.68052 0.528809H29.8092C30.1187 0.546895 30.4082 0.682318 30.6147 0.905576C30.8212 1.12883 30.928 1.42184 30.9118 1.72075C30.9118 1.72075 30.6081 8.98714 30.6081 15.2974Z" fill="url(#paint1_linear_428_10312)"/>
<path d="M24.5736 8.17176C22.6325 9.26809 22.0449 9.35733 19.952 10.5748L20.051 10.3517C20.8958 9.51609 21.6644 8.61189 22.3486 7.64909C20.0748 7.74522 17.811 7.9987 15.5747 8.4076L15.6803 8.19726C17.9054 7.28074 20.2412 6.63828 22.6325 6.28505C22.21 5.71139 18.7702 3.91391 17.9185 3.56972L18.0175 3.35938C20.6663 3.70977 23.2288 4.51497 25.5837 5.73689C26.3916 5.55295 27.2167 5.44831 28.0464 5.42456C28.0464 5.42456 27.8747 6.11295 26.5873 6.9607C26.9042 7.78932 26.1383 12.3531 25.5111 13.5642C25.4781 11.6265 25.3064 9.2171 24.5736 8.17176Z" fill="url(#paint2_linear_428_10312)"/>
<path d="M10.4051 24.5338L10.5041 24.3235C9.45106 24.0294 8.46839 23.5377 7.61235 22.8766C7.87053 22.1809 8.22594 21.5226 8.66871 20.9198L8.76774 20.7094C7.88304 20.8369 7.08417 21.1492 6.31831 21.2958C5.75654 20.1003 5.37204 18.8343 5.17612 17.5352L5.07708 17.7519C4.87555 19.0193 4.87555 20.3089 5.07708 21.5763C4.49867 21.6742 3.92747 21.8083 3.3671 21.9779L3.26807 22.1882C4.04077 22.6612 4.84342 23.0869 5.67129 23.463C6.10802 24.4056 6.73154 25.2565 7.50671 25.968L7.61235 25.7576C7.40852 25.2127 7.31658 24.6347 7.34166 24.0558C8.33495 24.3513 9.36595 24.5122 10.4051 24.5338Z" fill="url(#paint3_linear_428_10312)"/>
<path d="M13.2639 9.33105C12.9808 9.86282 12.7402 10.4147 12.5443 10.9819H12.4716C14.3095 11.2318 16.0933 11.7678 17.7535 12.5691L17.6544 12.773C16.0899 12.4596 14.4873 12.3609 12.8942 12.4798C12.511 12.4823 12.1312 12.5492 11.7718 12.6774C11.31 13.8637 10.9824 15.0946 10.7947 16.3489L10.689 16.5592C10.2335 15.4947 9.57326 13.3722 9.57326 13.3722C8.31223 14.0096 5.40063 16.6612 5.40063 16.6612C6.19188 14.9991 7.26772 13.4778 8.58292 12.1611C8.02173 11.6193 6.55603 11.3452 5.49307 11.3006L5.5855 11.0903C6.57314 10.9019 7.57631 10.7995 8.58292 10.7843C9.1679 10.7539 9.75414 10.7539 10.3391 10.7843C11.2095 10.1248 12.2022 9.63156 13.2639 9.33105Z" fill="url(#paint4_linear_428_10312)"/>
<path d="M16.3406 22.6157C15.8322 23.2531 15.3965 23.8013 14.8419 24.4068C13.9924 24.5521 13.1283 24.6013 12.267 24.5534L12.168 24.7637C12.7133 25.035 13.2957 25.2303 13.8978 25.3438C13.3946 25.7313 12.8628 26.0828 12.3066 26.3955L12.2076 26.5994C13.3337 26.3544 14.42 25.9619 15.4361 25.433C15.8778 25.4546 16.3206 25.4289 16.7565 25.3565C16.7565 25.3565 16.8622 25.1398 16.8622 25.1462C16.7961 24.9295 16.5981 24.802 16.5453 24.5088C17.3585 23.8849 18.1282 23.2099 18.8494 22.4882L18.9551 22.2715C18.1581 22.8575 17.3173 23.3859 16.4396 23.8522C16.3868 23.4316 16.3604 23.081 16.3406 22.6157Z" fill="url(#paint5_linear_428_10312)"/>
<path d="M24.6724 7.96142C22.738 9.05775 22.1438 9.15336 20.0509 10.3644C20.9401 9.47061 21.7423 8.4998 22.4475 7.46425C20.1757 7.55539 17.9139 7.80677 15.6802 8.21638C17.9192 7.19038 20.2942 6.46755 22.738 6.06834C22.3154 5.50742 18.8691 3.70357 18.0174 3.35938C20.6947 3.57298 23.3009 4.30113 25.6826 5.50105C26.4953 5.3201 27.3247 5.21761 28.1584 5.19509C27.8645 5.85328 27.3445 6.39354 26.6861 6.72486C27.0096 7.55348 26.2438 12.1173 25.61 13.322C25.5836 11.4161 25.4119 9.00676 24.6724 7.96142Z" fill="white"/>
<path d="M10.5042 24.3235C9.46183 23.9691 8.50973 23.4041 7.71147 22.6662C7.97371 21.9723 8.32884 21.3144 8.76783 20.7094C7.86332 20.8369 7.1965 20.9389 6.41743 21.0791C5.80856 19.9701 5.38941 18.7733 5.17621 17.5352C4.97861 18.8028 4.97861 20.0919 5.17621 21.3596C4.55589 21.5231 3.95078 21.7363 3.36719 21.997C4.1407 22.4724 4.9457 22.8982 5.77701 23.2718C6.21149 24.2156 6.8353 25.067 7.61244 25.7768C7.41645 25.1581 7.35795 24.5065 7.44078 23.8646C8.43502 24.1536 9.466 24.3081 10.5042 24.3235Z" fill="white"/>
<path d="M13.4025 9.15381C13.033 9.64832 12.7436 10.1942 12.5442 10.7728C14.3695 11.0436 16.1229 11.654 17.7071 12.5703C16.1432 12.2524 14.5403 12.1515 12.9469 12.2707C12.565 12.2802 12.1867 12.3447 11.8245 12.4619C11.326 13.7181 10.9653 15.0213 10.7484 16.3501C10.2928 15.2856 9.63259 13.1631 9.63259 13.1631C8.36495 13.8005 5.45996 16.4584 5.45996 16.4584C6.2595 14.7916 7.34927 13.2695 8.68186 11.9584C8.12067 11.4102 6.66157 11.1425 5.5854 11.0915C6.58605 10.7918 7.62211 10.6162 8.66866 10.5688C9.2542 10.5464 9.8406 10.557 10.4249 10.6007C11.3118 9.93807 12.3228 9.4468 13.4025 9.15381Z" fill="white"/>
<path d="M16.4397 22.4053C15.9313 23.0427 15.5022 23.5909 14.941 24.1964C14.0726 24.4411 13.1717 24.5613 12.2671 24.5534C12.8151 24.8239 13.3995 25.0191 14.0035 25.1334C13.4804 25.6086 12.9123 26.0354 12.3067 26.4082C13.4347 26.1659 14.5216 25.771 15.5352 25.2354C15.9769 25.2567 16.4197 25.231 16.8557 25.1589C16.7637 24.8791 16.6909 24.5938 16.6378 24.3048C17.4578 23.684 18.2301 23.0065 18.9486 22.2778C18.1783 22.7987 17.3607 23.2509 16.5057 23.6291C16.5057 23.2212 16.4595 22.8706 16.4397 22.4053Z" fill="white"/>
<path d="M3.74348 40.3153C3.66425 39.6779 3.49259 39.0405 2.52206 39.0405C1.92126 39.0405 1.40628 39.3209 1.40628 39.9647C1.40628 41.4945 4.9913 41.4881 4.9913 43.6871C4.9913 45.0894 3.98776 45.7906 2.52206 45.7906C2.04597 45.7939 1.57465 45.6989 1.13968 45.512C0.704706 45.3251 0.316133 45.0507 0 44.707L0.600805 43.821C0.848097 44.0945 1.15225 44.3148 1.49349 44.4674C1.83473 44.6201 2.20543 44.7017 2.58148 44.707C3.24171 44.707 3.75008 44.4456 3.75008 43.8082C3.75008 42.4378 0.178261 42.3741 0.178261 40.0476C0.178261 38.6198 1.28744 37.9505 2.53527 37.9505C2.84598 37.9258 3.15858 37.9652 3.45232 38.0661C3.74605 38.167 4.01421 38.327 4.23899 38.5356C4.46377 38.7441 4.64003 38.9965 4.75607 39.2758C4.87212 39.5552 4.9253 39.8552 4.91208 40.1559L3.74348 40.3153Z" fill="#010101"/>
<path d="M7.31524 43.1011C7.36806 44.4269 7.92925 44.803 8.76774 44.803C9.33385 44.7815 9.8778 44.5849 10.3193 44.2421L10.5041 45.1599C9.92886 45.5665 9.23636 45.7894 8.52345 45.7973C7.05115 45.7973 6.04761 44.9432 6.04761 42.7952C6.04761 40.6471 6.93231 39.7866 8.45083 39.7866C9.96935 39.7866 10.5636 40.7491 10.5636 42.1833V43.1011H7.31524ZM9.41476 42.1833C9.41476 41.208 9.12426 40.7555 8.41782 40.7555C7.71138 40.7555 7.38126 41.1762 7.32184 42.1833H9.41476Z" fill="#010101"/>
<path d="M16.5453 40.9714L15.7332 40.9268C15.9499 41.2358 16.0523 41.6063 16.0237 41.9785C16.0462 42.2619 16.0065 42.5466 15.9072 42.8142C15.8079 43.0817 15.6513 43.326 15.4475 43.5312C15.2438 43.7363 14.9975 43.8976 14.7247 44.0046C14.452 44.1116 14.159 44.1618 13.8648 44.152C13.6688 44.1626 13.4723 44.1411 13.2838 44.0883C13.0593 44.2413 12.9141 44.3369 12.9141 44.5345C12.9141 45.1336 16.5123 44.4261 16.5123 46.4849C16.5123 47.7279 15.1588 48.327 13.6997 48.327C12.2406 48.327 11.2239 47.8043 11.2239 46.8929C11.2438 46.5971 11.3498 46.3128 11.5297 46.0726C11.7095 45.8324 11.956 45.6462 12.2406 45.5352C12.0822 45.4648 11.9495 45.3499 11.86 45.2054C11.7704 45.061 11.7282 44.8937 11.7389 44.7257C11.76 44.5125 11.8364 44.308 11.961 44.1308C12.0856 43.9537 12.2544 43.8098 12.4519 43.7122C12.1828 43.5016 11.9695 43.2323 11.8294 42.9264C11.6894 42.6205 11.6267 42.2869 11.6464 41.953C11.6221 41.6641 11.6625 41.3735 11.7649 41.1009C11.8672 40.8284 12.0291 40.5803 12.2395 40.3736C12.45 40.1668 12.704 40.0061 12.9844 39.9025C13.2649 39.7989 13.5651 39.7548 13.8648 39.7731C14.1526 39.7739 14.4383 39.8213 14.7099 39.9133H16.5387L16.5453 40.9714ZM12.3925 46.7654C12.3925 47.2817 13.0527 47.4028 13.7129 47.4028C14.3732 47.4028 15.2843 47.116 15.2843 46.6188C15.2843 45.9176 14.2807 45.9304 13.363 45.8093C12.8942 46.0324 12.3925 46.3574 12.3925 46.7654ZM13.8648 40.7228C13.2046 40.7228 12.815 41.0798 12.815 41.9976C12.815 42.9155 13.2046 43.2023 13.8648 43.2023C14.525 43.2023 14.9145 42.8517 14.9145 41.9657C14.9145 41.0798 14.525 40.7228 13.8648 40.7228Z" fill="#010101"/>
<path d="M18.5723 39.915V43.8414C18.5562 43.9721 18.5711 44.1047 18.6159 44.2289C18.6608 44.3532 18.7343 44.466 18.8311 44.5588C18.9278 44.6516 19.0451 44.7218 19.1741 44.7643C19.3032 44.8068 19.4405 44.8203 19.5758 44.8039C19.7111 44.8203 19.8484 44.8068 19.9775 44.7643C20.1065 44.7218 20.2238 44.6516 20.3205 44.5588C20.4173 44.466 20.4908 44.3532 20.5357 44.2289C20.5805 44.1047 20.5954 43.9721 20.5793 43.8414V39.915H21.7876V43.8096C21.7876 45.1481 20.85 45.7855 19.5692 45.7855C18.2884 45.7855 17.3442 45.1481 17.3442 43.8096V39.915H18.5723Z" fill="#010101"/>
<path d="M24.501 39.9137V40.4746C24.6838 40.2589 24.9133 40.0843 25.1733 39.9632C25.4333 39.8421 25.7176 39.7773 26.0063 39.7734C26.891 39.7734 27.0561 40.5511 27.0561 41.3924L26.0195 41.5135C26.0195 41.1693 25.9733 40.9271 25.6366 40.9271C25.227 41.0092 24.8641 41.2366 24.6198 41.5645V45.6758H23.405V39.9392L24.501 39.9137Z" fill="#010101"/>
<path d="M32.3906 42.8075C32.3906 44.7898 31.5455 45.7841 29.9477 45.7841C28.35 45.7841 27.4917 44.9237 27.4917 42.782C27.4917 40.6403 28.35 39.7734 29.9477 39.7734C31.5455 39.7734 32.3906 40.6403 32.3906 42.8075ZM28.7395 42.8075C28.7395 44.3627 29.1423 44.828 29.9477 44.828C30.7532 44.828 31.1427 44.3627 31.1427 42.833C31.1427 41.3032 30.7532 40.7805 29.9477 40.7805C29.1423 40.7805 28.7395 41.2076 28.7395 42.782V42.8075Z" fill="#010101"/>
<path d="M36.3123 41.6411C36.2661 41.1375 36.035 40.7551 35.3946 40.7551C34.9258 40.7551 34.5693 40.9527 34.5693 41.3925C34.5693 42.4761 37.3422 42.3804 37.3422 44.1205C37.3422 45.1531 36.583 45.7905 35.3087 45.7905C34.5354 45.8104 33.7846 45.5383 33.2158 45.032L33.6186 44.1715C34.0673 44.5792 34.6596 44.807 35.2757 44.8089C35.7445 44.8089 36.134 44.6368 36.134 44.1715C36.134 43.2664 33.4007 43.2728 33.4007 41.4498C33.4007 40.4364 34.1467 39.7671 35.3814 39.7671C36.7546 39.7671 37.3224 40.532 37.3224 41.4626L36.3123 41.6411Z" fill="#010101"/>
<path d="M42.9477 45.5173V47.8629L41.7263 48.1243V39.9145H42.8223V40.4372C43.3053 40.0298 43.9239 39.8036 44.5653 39.7998C45.5688 39.7998 46.546 40.3862 46.546 42.7446C46.546 44.9691 45.4962 45.8105 44.1229 45.8105C43.7146 45.7912 43.3147 45.6914 42.9477 45.5173ZM42.9477 44.4783C43.2571 44.6837 43.6221 44.7968 43.9975 44.8034C44.6973 44.8034 45.2585 44.2744 45.2585 42.7191C45.2585 41.1638 44.7105 40.8069 44.1427 40.8069C43.711 40.8185 43.2936 40.9588 42.9477 41.2085V44.4783Z" fill="#010101"/>
<path d="M50.6064 41.5135C50.6064 40.9717 50.2367 40.755 49.7349 40.755C49.6092 40.743 49.4823 40.7572 49.3628 40.7968C49.2433 40.8365 49.134 40.9005 49.0425 40.9846C48.951 41.0687 48.8794 41.1709 48.8325 41.2842C48.7857 41.3975 48.7647 41.5192 48.771 41.641L47.7014 41.5327C47.7014 40.3662 48.6984 39.7734 49.8142 39.7734C51.0422 39.7734 51.7948 40.4108 51.7948 41.4052V44.3946C51.7948 44.6623 51.9269 44.7834 52.1184 44.7834C52.3326 44.7693 52.5363 44.6888 52.6993 44.5539L52.8182 45.4081C52.5367 45.6551 52.1685 45.7895 51.7882 45.7841C51.6685 45.7973 51.5473 45.7869 51.4318 45.7536C51.3164 45.7203 51.2091 45.6647 51.1166 45.5902C51.024 45.5158 50.948 45.4239 50.8933 45.3203C50.8385 45.2167 50.806 45.1034 50.7979 44.9874C50.593 45.2355 50.3329 45.4359 50.0369 45.5738C49.7409 45.7117 49.4166 45.7836 49.0879 45.7841C48.8728 45.8021 48.6563 45.7741 48.4538 45.7019C48.2513 45.6297 48.0678 45.5153 47.9164 45.3667C47.765 45.2181 47.6495 45.039 47.5781 44.8424C47.5067 44.6457 47.4812 44.4362 47.5034 44.2289C47.5034 42.7628 48.9559 42.1573 50.6196 42.1701L50.6064 41.5135ZM50.6064 43.0561C49.5699 43.0561 48.6984 43.3875 48.6984 44.1205C48.6984 44.5667 48.8965 44.8025 49.3586 44.8025C49.5993 44.7824 49.8332 44.7155 50.0465 44.606C50.2598 44.4965 50.448 44.3465 50.5998 44.1651L50.6064 43.0561Z" fill="#010101"/>
<path d="M54.7129 39.9137V40.4746C54.8957 40.2589 55.1252 40.0843 55.3852 39.9632C55.6452 39.8421 55.9296 39.7773 56.2182 39.7734C57.1029 39.7734 57.268 40.5511 57.268 41.3924L56.2314 41.5135C56.2314 41.1693 56.1852 40.9271 55.8551 40.9271C55.4447 41.0074 55.0813 41.2353 54.8384 41.5645V45.6758H53.6169V39.9392L54.7129 39.9137Z" fill="#010101"/>
<path d="M60.9321 41.5135C60.9321 40.9718 60.5624 40.755 60.0606 40.755C59.9354 40.7439 59.8092 40.7589 59.6905 40.799C59.5718 40.8391 59.4634 40.9033 59.3727 40.9873C59.2819 41.0713 59.2109 41.1731 59.1644 41.2859C59.1179 41.3987 59.0971 41.5198 59.1033 41.641L58.0271 41.5327C58.0271 40.3662 59.0241 39.7734 60.1398 39.7734C61.3679 39.7734 62.1205 40.4108 62.1205 41.4052V44.3946C62.1205 44.6623 62.2526 44.7834 62.444 44.7834C62.6579 44.768 62.8613 44.6877 63.025 44.554L63.0977 45.4081C62.8197 45.6564 62.4529 45.7911 62.0743 45.7841C61.9542 45.7973 61.8326 45.787 61.7168 45.7537C61.601 45.7205 61.4933 45.665 61.4002 45.5906C61.3071 45.5162 61.2305 45.4244 61.1751 45.3208C61.1196 45.2171 61.0864 45.1037 61.0774 44.9874C60.8787 45.2295 60.6272 45.4264 60.3408 45.5641C60.0544 45.7018 59.7401 45.777 59.4202 45.7841C59.2051 45.8021 58.9886 45.7741 58.7861 45.7019C58.5835 45.6297 58.4 45.5153 58.2486 45.3667C58.0973 45.2181 57.9817 45.0391 57.9104 44.8424C57.839 44.6457 57.8135 44.4362 57.8357 44.2289C57.8357 42.7629 59.2882 42.1573 60.9519 42.1701L60.9321 41.5135ZM60.9321 43.0561C59.8956 43.0561 59.0241 43.3875 59.0241 44.1205C59.0241 44.5667 59.2221 44.8025 59.6843 44.8025C59.9251 44.7831 60.1594 44.7165 60.3727 44.607C60.5861 44.4974 60.7742 44.3471 60.9255 44.1651L60.9321 43.0561Z" fill="#010101"/>
<path d="M68.0032 39.915V43.8414C68.0492 44.0623 68.173 44.261 68.3535 44.4037C68.534 44.5465 68.7602 44.6245 68.9935 44.6245C69.2269 44.6245 69.453 44.5465 69.6336 44.4037C69.8141 44.261 69.9379 44.0623 69.9839 43.8414V39.915H71.1987V43.8096C71.1987 45.1481 70.2612 45.7855 68.9803 45.7855C67.6995 45.7855 66.7554 45.1481 66.7554 43.8096V39.915H68.0032Z" fill="#010101"/>
<path d="M73.9453 40.4372C74.47 40.0304 75.1211 39.8059 75.794 39.7998C76.8635 39.7998 77.5304 40.3735 77.5304 41.6228V45.6703H76.3155V41.8459C76.3155 41.1447 76.0713 40.8961 75.3912 40.8961C74.9191 40.9148 74.4617 41.0605 74.0708 41.3168V45.6512H72.856V39.9145H73.9453V40.4372Z" fill="#010101"/>
<path d="M83.2345 40.4375C83.7373 40.0372 84.3654 39.8126 85.0171 39.8001C85.2899 39.7754 85.5644 39.825 85.8094 39.9433C86.0545 40.0616 86.2603 40.2439 86.4035 40.4694C86.9515 40.0681 87.6116 39.835 88.2984 39.8001C89.3613 39.8001 89.9621 40.3738 89.9621 41.6231V45.6706H88.7473V41.8462C88.7473 41.1323 88.4568 40.9283 87.856 40.9283C87.4157 40.9629 86.9924 41.1079 86.628 41.349C86.6385 41.5018 86.6385 41.6551 86.628 41.8079V45.6834H85.4066V41.9673C85.4066 41.1578 85.2547 40.8901 84.5153 40.8901C84.0841 40.92 83.6702 41.0657 83.3203 41.3108V45.6451H82.1055V39.9085H83.2014L83.2345 40.4375Z" fill="#010101"/>
<path d="M92.656 39.915V43.8414C92.6945 44.0682 92.8152 44.2744 92.9966 44.4232C93.178 44.572 93.4083 44.6536 93.6464 44.6536C93.8844 44.6536 94.1147 44.572 94.2961 44.4232C94.4775 44.2744 94.5982 44.0682 94.6367 43.8414V39.915H95.8581V43.8096C95.8581 45.1481 94.9206 45.7855 93.6332 45.7855C92.3457 45.7855 91.4148 45.1481 91.4148 43.8096V39.915H92.656Z" fill="#010101"/>
<path d="M98.585 40.4372C99.1076 40.0313 99.7564 39.8069 100.427 39.7998C101.503 39.7998 102.17 40.3735 102.17 41.6228V45.6703H100.955V41.8459C100.955 41.1447 100.704 40.8961 100.024 40.8961C99.5519 40.9138 99.0943 41.0596 98.7038 41.3168V45.6512H97.4824V39.9145H98.5784L98.585 40.4372Z" fill="#010101"/>
<path d="M107.128 44.9617C106.924 45.2124 106.665 45.4162 106.369 45.5584C106.073 45.7006 105.749 45.7776 105.418 45.7839C104.461 45.7839 103.385 45.07 103.385 42.7945C103.385 40.519 104.402 39.7732 105.497 39.7732C106.009 39.7862 106.509 39.9173 106.957 40.1557V37.7973L108.178 37.5806V44.3944C108.178 44.6621 108.31 44.7832 108.502 44.7832C108.715 44.7678 108.919 44.6875 109.083 44.5537L109.155 45.4079C108.877 45.6561 108.51 45.7909 108.132 45.7839C108.009 45.8001 107.884 45.7911 107.764 45.7574C107.645 45.7238 107.535 45.6664 107.44 45.5888C107.345 45.5113 107.269 45.4153 107.215 45.3073C107.161 45.1992 107.132 45.0815 107.128 44.9617ZM106.957 41.0799C106.598 40.875 106.191 40.7631 105.775 40.7548C105.214 40.7548 104.679 41.1118 104.679 42.7435C104.679 44.1458 105.167 44.7067 105.709 44.7067C105.952 44.6944 106.19 44.6311 106.406 44.521C106.621 44.4109 106.809 44.2568 106.957 44.0693V41.0799Z" fill="#010101"/>
<path d="M114.542 42.8075C114.542 44.7898 113.691 45.7841 112.093 45.7841C110.495 45.7841 109.637 44.9237 109.637 42.782C109.637 40.6403 110.502 39.7734 112.093 39.7734C113.684 39.7734 114.542 40.6403 114.542 42.8075ZM110.891 42.8075C110.891 44.3627 111.294 44.828 112.093 44.828C112.892 44.828 113.288 44.3627 113.288 42.833C113.288 41.3032 112.898 40.7805 112.093 40.7805C111.288 40.7805 110.918 41.2076 110.918 42.782L110.891 42.8075Z" fill="#010101"/>
<path d="M119.745 43.1011C119.805 44.4269 120.359 44.803 121.198 44.803C121.764 44.7815 122.308 44.5849 122.749 44.2421L122.941 45.1599C122.365 45.5654 121.673 45.7881 120.96 45.7973C119.481 45.7973 118.478 44.9432 118.478 42.7952C118.478 40.6471 119.362 39.7866 120.881 39.7866C122.399 39.7866 123.026 40.7618 123.026 42.196V43.1139L119.745 43.1011ZM121.845 42.1833C121.845 41.208 121.554 40.7555 120.848 40.7555C120.141 40.7555 119.811 41.1762 119.758 42.1833H121.845Z" fill="#010101"/>
<path d="M125.443 40.4372C125.965 40.0313 126.614 39.8069 127.285 39.7998C128.361 39.7998 129.028 40.3735 129.028 41.6228V45.6703H127.82V41.8459C127.82 41.1447 127.575 40.8961 126.889 40.8961C126.416 40.9138 125.959 41.0596 125.568 41.3168V45.6512H124.354V39.9145H125.443V40.4372Z" fill="#010101"/>
<path d="M134.514 43.1011C134.574 44.4269 135.128 44.803 135.967 44.803C136.535 44.7802 137.08 44.5838 137.525 44.2421L137.71 45.1599C137.134 45.5654 136.442 45.7881 135.729 45.7973C134.257 45.7973 133.253 44.9432 133.253 42.7952C133.253 40.6471 134.132 39.7866 135.65 39.7866C137.169 39.7866 137.796 40.7618 137.796 42.196V43.1139L134.514 43.1011ZM136.614 42.1833C136.614 41.208 136.33 40.7555 135.624 40.7555C134.917 40.7555 134.587 41.1762 134.528 42.1833H136.614Z" fill="#010101"/>
<path d="M139.611 39.915L141.097 44.3769L142.516 39.915H143.731L141.751 45.6517H140.331L138.304 39.915H139.611Z" fill="#010101"/>
<path d="M149.158 42.8075C149.158 44.7898 148.306 45.7841 146.709 45.7841C145.111 45.7841 144.253 44.9237 144.253 42.782C144.253 40.6403 145.111 39.7734 146.709 39.7734C148.306 39.7734 149.158 40.6403 149.158 42.8075ZM145.507 42.8075C145.507 44.3627 145.91 44.828 146.709 44.828C147.508 44.828 147.904 44.3627 147.904 42.833C147.904 41.3032 147.514 40.7805 146.709 40.7805C145.903 40.7805 145.507 41.2076 145.507 42.782V42.8075Z" fill="#010101"/>
<path d="M151.7 37.5557V44.3249C151.7 44.6436 151.878 44.7583 152.116 44.7583C152.374 44.7459 152.624 44.669 152.842 44.5352L152.968 45.4403C152.592 45.6574 152.164 45.776 151.727 45.7845C150.73 45.7845 150.485 45.0834 150.485 44.3249V37.7724L151.7 37.5557Z" fill="#010101"/>
<path d="M154.849 39.915V43.8414C154.87 44.0856 154.985 44.3135 155.171 44.4796C155.358 44.6457 155.602 44.7379 155.856 44.7379C156.11 44.7379 156.354 44.6457 156.541 44.4796C156.728 44.3135 156.843 44.0856 156.863 43.8414V39.915H158.078V43.8096C158.078 45.1481 157.14 45.7855 155.859 45.7855C154.579 45.7855 153.635 45.1481 153.635 43.8096V39.915H154.849Z" fill="#010101"/>
<path d="M162.58 41.8454C162.547 41.2845 162.297 40.7555 161.63 40.7555C160.963 40.7555 160.56 41.1698 160.56 42.7824C160.56 44.395 161.062 44.803 161.94 44.803C162.485 44.7934 163.011 44.6121 163.439 44.2867L163.67 45.1599C163.097 45.5708 162.403 45.7942 161.689 45.7973C160.151 45.7973 159.279 44.8603 159.279 42.7888C159.279 40.7172 160.025 39.7866 161.669 39.7866C163.095 39.7866 163.65 40.6407 163.65 41.7498L162.58 41.8454Z" fill="#010101"/>
<path d="M166.205 37.8809V39.1557H164.99V37.8809H166.205ZM166.205 39.9142V45.6508H164.99V39.9142H166.205Z" fill="#010101"/>
<path d="M172.451 42.8073C172.451 44.7896 171.599 45.7839 170.001 45.7839C168.404 45.7839 167.545 44.9234 167.545 42.7818C167.545 40.6401 168.41 39.7732 170.001 39.7732C171.593 39.7732 172.451 40.6401 172.451 42.8073ZM168.8 42.8073C168.8 44.3625 169.203 44.8278 170.001 44.8278C170.8 44.8278 171.196 44.3625 171.196 42.8328C171.196 41.303 170.807 40.7803 170.001 40.7803C169.196 40.7803 168.8 41.2074 168.8 42.7818V42.8073ZM171.758 37.5806L170.437 39.2824H169.401L170.49 37.5806H171.758Z" fill="#010101"/>
<path d="M174.887 40.4372C175.409 40.0305 176.058 39.8059 176.729 39.7998C177.799 39.7998 178.465 40.3735 178.465 41.6228V45.6703H177.251V41.8459C177.251 41.1447 177.006 40.8961 176.326 40.8961C175.854 40.9148 175.397 41.0605 175.006 41.3168V45.6512H173.791V39.9145H174.887V40.4372Z" fill="#010101"/>
<path d="M39.4221 4.17471C39.5014 5.2328 39.5608 7.87802 39.5608 8.84687C39.5608 9.81572 39.5608 12.6713 39.4089 13.9907V14.0927H44.2352C46.579 14.0927 49.0945 13.3724 49.0945 11.3455C49.0945 10.0707 48.1371 9.12733 46.3611 8.61741C47.6816 8.27958 48.5531 7.39997 48.5531 6.39287C48.5531 4.742 46.5724 4.11097 44.7502 4.0791H39.4684L39.4221 4.17471ZM43.1392 5.19456C45.1199 5.19456 45.8924 5.60249 45.8924 6.66695C45.8979 6.93585 45.8043 7.19789 45.6283 7.40634C45.35 7.65938 45.0158 7.8482 44.651 7.9586C44.2862 8.069 43.9003 8.09811 43.5221 8.04374H43.4759L42.9147 9.43966H43.4759C43.9448 9.39477 44.4181 9.4516 44.8614 9.60599C45.3046 9.76038 45.7064 10.0084 46.0376 10.332C46.2608 10.5842 46.3826 10.9054 46.3809 11.2371C46.3809 12.3526 45.3774 12.9199 43.3967 12.9199C43.0666 12.9199 42.5252 12.9199 42.1819 12.9199C42.1093 11.4538 42.1093 9.45878 42.1093 8.87237C42.1093 8.17122 42.1093 6.61596 42.1885 5.28379C42.502 5.22699 42.8202 5.19713 43.1392 5.19456Z" fill="#010101"/>
<path d="M60.1531 4.0791H57.8225L57.9215 6.59684C57.9611 7.87165 58.0073 9.14645 58.0932 10.3766C57.8263 9.81313 57.4941 9.28068 57.1028 8.78951C57.1028 8.78951 54.6534 5.13082 53.8017 4.1046H51.0684V4.20021C51.1476 5.25192 51.2004 7.89077 51.2004 8.86599C51.2004 9.84122 51.2004 12.7287 51.0552 14.0162V14.1182H53.4782V14.0226C53.333 11.5686 53.333 9.10183 53.333 6.72432C53.4591 7.1196 53.6557 7.4906 53.914 7.82065C53.9536 7.88439 58.1064 13.7421 58.3177 14.0927V14.1309H60.2587V14.0226C60.1135 12.7478 60.1003 9.75836 60.1003 8.87237C60.1003 7.98638 60.1597 5.2583 60.2389 4.20658V4.0791H60.1531Z" fill="#010101"/>
<path d="M62.9658 4.1749C63.0451 5.23298 63.1045 7.87183 63.1045 8.84068C63.1045 9.80953 63.1045 12.7033 62.9526 13.9845V14.0929H65.8312V13.9845C65.7322 13.073 65.6926 11.3138 65.6794 9.95614H66.2075H66.6169C70.4132 9.95614 72.2552 8.96816 72.2552 6.93485C72.2552 4.6147 69.6671 4.07929 67.5016 4.03467H62.9592L62.9658 4.1749ZM66.4981 5.28398C67.8185 5.28398 68.7956 5.53256 69.2446 6.06798C69.4538 6.32816 69.5635 6.65018 69.5549 6.97947C69.5549 8.43274 67.8779 8.7387 66.4716 8.7387H65.9038H65.6728C65.6728 8.40087 65.6728 7.96744 65.6728 7.46389C65.6728 6.82649 65.6728 6.0871 65.6728 5.39234C65.9448 5.33714 66.2206 5.30092 66.4981 5.28398Z" fill="#010101"/>
<path d="M77.7349 4.1749C77.8207 5.23298 77.8735 7.87183 77.8735 8.84068C77.8735 9.80953 77.8735 12.7033 77.7217 13.9845V14.0929H80.6069V13.9845C80.5078 13.073 80.4748 11.3138 80.4616 9.95614H80.9832H81.3925C85.1888 9.95614 87.0375 8.96816 87.0375 6.93485C87.0375 4.6147 84.4494 4.07929 82.2772 4.03467H77.7613L77.7349 4.1749ZM81.2671 5.28398C82.5875 5.28398 83.5647 5.53256 84.0202 6.06798C84.2295 6.32816 84.3391 6.65018 84.3305 6.97947C84.3305 8.43274 82.6536 8.7387 81.2473 8.7387H80.6729H80.4484C80.4484 8.40087 80.4484 7.96744 80.4484 7.46389C80.4484 6.82649 80.4484 6.09348 80.488 5.39871C80.7446 5.34309 81.005 5.30475 81.2671 5.28398Z" fill="#010101"/>
<path d="M90.8667 4.08545H90.8205V4.13644C90.2857 5.55785 86.8592 12.8434 86.298 13.9588L86.2319 14.099H88.7012V14.0417C88.9191 13.3596 89.1897 12.582 89.5199 11.7406H91.5599H93.2435H93.6132C94.0556 12.8179 94.3857 13.6529 94.531 14.0417V14.099H97.3897L92.7682 4.08545H90.8337H90.8667ZM91.5666 7.01112C91.7976 7.4828 92.3918 8.82772 93.0587 10.4085H92.8342H91.5666H90.0546C90.5894 9.1528 91.111 8.00547 91.5666 7.01112Z" fill="#010101"/>
<path d="M98.552 4.17407C98.6247 5.22578 98.6907 7.871 98.6907 8.83985C98.6907 9.8087 98.6907 12.7025 98.5322 13.9837V14.092H101.411V13.9901C101.272 12.7153 101.259 9.72584 101.259 8.83985C101.259 8.14508 101.259 6.58345 101.345 5.34051C101.582 5.34051 101.899 5.28952 102.117 5.28315C103.438 5.28315 104.421 5.53173 104.87 6.07352C105.086 6.32848 105.198 6.64991 105.187 6.97863C105.187 8.13233 104.058 8.71874 103.015 8.77611C102.811 8.79416 102.605 8.79416 102.401 8.77611L102.21 8.74424L102.335 8.92271C103.345 10.3696 104.877 12.8874 105.524 14.0857V14.1303H108.614L108.521 13.9837C108.416 13.818 106.396 10.9496 105.531 9.71946L105.478 9.64935C107.049 9.19042 107.822 8.32355 107.822 7.0105C107.822 4.69036 105.234 4.15494 103.061 4.1167H98.5454L98.552 4.17407Z" fill="#010101"/>
<path d="M112.707 4.07227H109.941V4.16788C110.02 5.22596 110.079 7.87118 110.079 8.84004C110.079 9.80889 110.079 12.6963 109.921 13.9839V14.0859H112.799V13.9839C112.661 12.7091 112.648 9.71965 112.648 8.84004C112.648 7.96042 112.707 5.22596 112.786 4.16788V4.07227H112.707Z" fill="#010101"/>
<path d="M115.401 4.17471C115.48 5.2328 115.54 7.87802 115.54 8.84687C115.54 9.81572 115.54 12.6713 115.388 13.9907V14.0927H120.161C122.512 14.0927 125.02 13.3724 125.02 11.3455C125.02 10.0707 124.07 9.12733 122.287 8.61741C123.608 8.27958 124.479 7.39997 124.479 6.39287C124.479 4.742 122.498 4.11097 120.676 4.0791H115.394L115.401 4.17471ZM119.118 5.19456C121.099 5.19456 121.878 5.60249 121.878 6.66695C121.878 6.9361 121.782 7.19717 121.607 7.40634C121.33 7.65886 120.997 7.84741 120.633 7.95781C120.269 8.06821 119.885 8.09759 119.507 8.04374H119.455L118.907 9.4524H119.501C119.969 9.40803 120.441 9.46513 120.883 9.61952C121.325 9.77391 121.726 10.0217 122.056 10.3448C122.279 10.597 122.401 10.9182 122.399 11.2499C122.399 12.3653 121.396 12.9326 119.422 12.9326C119.078 12.9326 118.537 12.9326 118.2 12.9326C118.128 11.4666 118.128 9.47153 118.128 8.88512C118.128 8.18397 118.128 6.62234 118.207 5.29654C118.507 5.23766 118.812 5.20355 119.118 5.19456Z" fill="#010101"/>
<path d="M132.131 4.07227H130.19V4.12326C129.622 5.64028 125.971 13.321 125.667 13.952L125.601 14.0859H128.084V14.0285C128.302 13.3465 128.579 12.5688 128.902 11.7275H130.943H132.626H132.996C133.445 12.8111 133.768 13.6397 133.914 14.0349V14.0859H136.779L132.157 4.07227H132.131ZM130.943 7.01069C131.174 7.48237 131.755 8.82091 132.428 10.3953H132.21H130.936L129.404 10.408C129.959 9.13324 130.487 7.99866 130.943 7.01069Z" fill="#010101"/>
<path d="M137.584 6.6738C137.584 8.43303 139.42 9.14055 141.031 9.77795C142.292 10.2688 143.586 10.7787 143.586 11.6137C143.605 11.8436 143.532 12.0718 143.381 12.2511C143.091 12.5953 142.47 12.7419 141.493 12.6973C140.364 12.6028 139.264 12.3021 138.251 11.8113L137.75 11.5882V13.7745L138.08 13.8446L138.278 13.8828C139.231 14.1269 140.21 14.2638 141.196 14.2908C144.233 14.2908 146.049 13.1243 146.049 11.1802C146.049 9.37639 144.174 8.63063 142.523 7.99323C141.302 7.52155 140.041 7.03712 140.041 6.26587C140.041 6.0364 140.041 5.36713 141.605 5.36713C142.618 5.41813 143.612 5.65841 144.53 6.07464L145.124 6.31048V4.11782L144.53 4.02221C143.682 3.84213 142.817 3.74391 141.949 3.729C139.341 3.729 137.584 4.9082 137.584 6.6738Z" fill="#010101"/>
<path d="M46.6319 19.332C46.0586 18.9899 45.3978 18.8089 44.7238 18.8093C42.3866 18.8093 41.5812 20.5941 41.5812 22.1175C41.5812 24.2336 42.9016 25.3045 44.737 25.3045C45.7663 25.2723 46.744 24.8619 47.4704 24.1571V25.9865C46.4726 26.3759 45.4037 26.5667 44.3277 26.5474C41.0662 26.5474 39.0459 24.5906 39.0459 22.0856C39.0459 19.4595 41.1982 17.5664 44.7568 17.5664C45.5743 17.5739 46.3879 17.6766 47.1799 17.8724L46.6319 19.332Z" fill="#010101"/>
<path d="M54.5084 17.7192C54.8517 18.6116 57.8095 24.9538 58.4697 26.3879H56.0203C55.8816 25.9927 55.5845 25.2788 55.2016 24.3482C54.6866 24.3482 54.1584 24.3482 53.4256 24.3482C52.6927 24.3482 52.2372 24.3482 51.643 24.3482C51.3591 25.0749 51.128 25.7441 50.9233 26.3879H48.771C49.286 25.3107 52.2966 18.994 52.772 17.7192H54.5084ZM54.7262 23.2073L53.4058 20.2688C52.9964 21.1102 52.5475 22.1046 52.0853 23.2073C52.4749 23.2073 52.9964 23.2073 53.4058 23.2073C53.8151 23.2073 54.2905 23.22 54.7262 23.2073Z" fill="#010101"/>
<path d="M63.9826 17.7192C65.8708 17.7192 68.1156 18.2292 68.1156 20.2306C68.1156 21.3588 67.4553 22.1428 66.0887 22.5125C66.9237 23.8499 67.8317 25.1435 68.8088 26.3879H66.1217C65.5341 25.3107 64.2004 23.1308 63.2233 21.7221C63.4404 21.7658 63.6617 21.7871 63.8835 21.7859C64.6692 21.7859 65.7718 21.2377 65.7718 20.2306C65.7718 18.9558 64.207 18.7582 63.4214 18.7582C63.0949 18.7569 62.7686 18.7739 62.4442 18.8092C62.398 19.8864 62.3716 21.2377 62.3716 21.8432C62.3716 22.6145 62.3716 25.1768 62.5103 26.3879H60.041C60.1731 25.1896 60.1929 23.6407 60.1929 21.8432C60.1929 20.3326 60.1929 18.5224 60.0674 17.7192H63.9826Z" fill="#010101"/>
<path d="M73.9452 17.7192C77.7283 17.7192 79.1808 19.6314 79.1808 22.0408C79.1808 24.4502 77.7679 26.3879 73.8066 26.3879H70.4658C70.5979 25.2278 70.5979 23.628 70.5979 21.856C70.5979 21.0146 70.5979 18.8474 70.4658 17.7192H73.9452ZM72.8888 18.8092C72.8426 19.3765 72.8294 20.8553 72.8294 21.856C72.8294 23.1308 72.8294 24.1124 72.8756 25.2916C73.0077 25.2916 73.2124 25.2916 73.5359 25.2916C75.7014 25.2916 76.837 24.6542 76.837 21.9707C76.837 19.4211 75.6816 18.7136 73.4896 18.7837L72.8888 18.8092Z" fill="#010101"/>
<path d="M83.8025 17.7192C83.7299 18.72 83.6771 21.0019 83.6771 21.856C83.6771 22.7101 83.6771 25.1896 83.8025 26.3879H81.3135C81.4455 25.1896 81.4587 22.6145 81.4587 21.856C81.4587 21.0975 81.4059 18.72 81.3399 17.7192H83.8025Z" fill="#010101"/>
<path d="M93.3293 17.7192V18.994C92.6229 18.9558 90.8667 18.9112 90.2725 18.9112C89.8367 18.9112 89.3481 18.9112 88.8464 18.9431C88.8464 19.4785 88.8002 20.1477 88.8002 20.7278C88.8002 21.0146 88.8002 21.2759 88.8002 21.4863L91.9296 21.4353V22.7866L88.8002 22.6655C88.8002 23.7682 88.8002 25.4764 88.9388 26.4134H86.4233C86.5752 25.2151 86.5752 22.64 86.5752 21.8815C86.5752 21.123 86.5158 18.7455 86.4365 17.7447L93.3293 17.7192Z" fill="#010101"/>
<defs>
<linearGradient id="paint0_linear_428_10312" x1="15.9047" y1="-0.745761" x2="15.9047" y2="31.2008" gradientUnits="userSpaceOnUse">
<stop stop-color="#00784B"/>
<stop offset="0.6" stop-color="#8BC9AE"/>
<stop offset="1" stop-color="#029660"/>
</linearGradient>
<linearGradient id="paint1_linear_428_10312" x1="15.852" y1="-7.51521" x2="15.852" y2="28.3833" gradientUnits="userSpaceOnUse">
<stop stop-color="#029660"/>
<stop offset="0.3" stop-color="#8BC9AE"/>
<stop offset="0.55" stop-color="#029660"/>
<stop offset="0.84" stop-color="#00784B"/>
<stop offset="0.89" stop-color="#008154"/>
<stop offset="0.98" stop-color="#00996C"/>
<stop offset="1" stop-color="#009E71"/>
</linearGradient>
<linearGradient id="paint2_linear_428_10312" x1="21.8072" y1="26.4015" x2="21.8072" y2="3.16815" gradientUnits="userSpaceOnUse">
<stop stop-color="#00A87D"/>
<stop offset="1" stop-color="#029660"/>
</linearGradient>
<linearGradient id="paint3_linear_428_10312" x1="78.6679" y1="366.823" x2="78.6679" y2="59.362" gradientUnits="userSpaceOnUse">
<stop stop-color="#00A87D"/>
<stop offset="1" stop-color="#029660"/>
</linearGradient>
<linearGradient id="paint4_linear_428_10312" x1="221.204" y1="312.872" x2="221.204" y2="45.8351" gradientUnits="userSpaceOnUse">
<stop stop-color="#00A87D"/>
<stop offset="1" stop-color="#029660"/>
</linearGradient>
<linearGradient id="paint5_linear_428_10312" x1="172.072" y1="201.536" x2="172.072" y2="43.7814" gradientUnits="userSpaceOnUse">
<stop stop-color="#00A87D"/>
<stop offset="1" stop-color="#029660"/>
</linearGradient>
</defs>
</svg>
