<svg width="211" height="47" viewBox="0 0 211 47" fill="none" xmlns="http://www.w3.org/2000/svg">
<line x1="210" x2="210" y2="47" stroke="white" stroke-width="2"/>
<path d="M67.1003 13.1758C64.3988 13.1758 61.7579 13.9917 59.5117 15.5203C57.2655 17.0489 55.5147 19.2216 54.4809 21.7636C53.4471 24.3056 53.1766 27.1028 53.7036 29.8014C54.2307 32.5 55.5316 34.9788 57.4418 36.9243C59.3521 38.8699 61.7859 40.1949 64.4355 40.7317C67.0851 41.2684 69.8315 40.9929 72.3274 39.94C74.8233 38.8871 76.9566 37.104 78.4575 34.8162C79.9583 32.5285 80.7594 29.8388 80.7594 27.0874C80.7555 23.399 79.3151 19.8629 76.7544 17.2548C74.1937 14.6468 70.7217 13.1798 67.1003 13.1758ZM67.1003 33.2199C65.9092 33.2199 64.7448 32.8601 63.7544 32.186C62.7641 31.5118 61.9924 30.5537 61.5368 29.4328C61.0813 28.3119 60.9624 27.0785 61.1952 25.8887C61.428 24.699 62.0021 23.6063 62.8447 22.7489C63.6874 21.8914 64.7609 21.3079 65.9293 21.0719C67.0977 20.836 68.3085 20.9583 69.4087 21.4234C70.5088 21.8885 71.4488 22.6755 72.1097 23.6847C72.7706 24.694 73.1227 25.8803 73.1216 27.0935C73.12 28.7194 72.4851 30.2783 71.3562 31.428C70.2274 32.5778 68.6968 33.2244 67.1003 33.226V33.2199Z" fill="white"/>
<path d="M98.16 13.8455H94.4307V5.63428H86.2669V13.8455H82.5376V21.3719H86.2669V40.3417H94.4307V21.3719H98.16V13.8455Z" fill="white"/>
<path d="M110.068 13.8452H101.904V40.3414H110.068V13.8452Z" fill="white"/>
<path d="M105.983 1.00195C105.084 1.00255 104.205 1.27474 103.457 1.78409C102.71 2.29344 102.127 3.01709 101.783 3.86355C101.44 4.71001 101.35 5.64128 101.526 6.53962C101.702 7.43797 102.135 8.26305 102.771 8.91056C103.407 9.55807 104.218 9.99893 105.1 10.1774C105.982 10.3559 106.896 10.264 107.727 9.91331C108.558 9.56263 109.268 8.96891 109.768 8.20723C110.267 7.44555 110.534 6.5501 110.534 5.63408C110.533 4.40553 110.052 3.22781 109.199 2.35938C108.346 1.49095 107.189 1.00276 105.983 1.00195V1.00195Z" fill="white"/>
<path d="M25.3371 33.2103C25.9347 31.7677 26.1768 30.3069 26.1768 28.3408C26.1768 25.6656 25.352 23.2765 23.8579 21.6087C22.1128 19.6518 19.1246 18.0448 15.0008 16.797C14.2045 16.5711 13.4287 16.2758 12.682 15.9144C12.0281 15.5954 11.4407 15.151 10.9518 14.6057C10.6952 14.315 10.4974 13.9756 10.3697 13.6069C10.242 13.2382 10.187 12.8475 10.2077 12.4571C10.2077 11.2397 10.8562 10.3936 11.908 9.71797C13.2288 8.87189 15.7658 8.78668 18.3626 9.76667C19.2763 10.1107 20.1575 10.5385 20.9952 11.0449L24.4645 3.99934C23.1766 3.21413 21.3418 2.19457 19.4891 1.71371C17.6789 1.23594 15.816 0.996598 13.946 1.00154C12.1815 0.975828 10.4267 1.27164 8.76444 1.87501C7.28184 2.46836 5.93285 3.36188 4.79907 4.50151C3.6713 5.65474 2.77595 7.02156 2.16347 8.52494C1.56288 10.0841 1.26551 11.7472 1.28792 13.4218C1.38772 16.0795 2.4902 18.5956 4.36578 20.4461C6.75635 22.7165 9.44575 23.523 10.5245 23.9491C11.6032 24.3752 12.8015 24.7404 13.5665 25.0448C14.3519 25.3446 15.1017 25.7336 15.8017 26.2043C16.3052 26.544 16.7164 27.0078 16.997 27.5526C17.2406 28.0786 17.3288 28.6655 17.251 29.2417C17.1665 30.1274 16.7502 30.946 16.0886 31.5273C15.3893 32.1969 14.1283 32.5834 12.3354 32.5834C10.7535 32.5398 9.19811 32.1593 7.76936 31.4664C6.49477 30.8839 5.259 30.2169 4.06995 29.4699L0 36.7103C2.84777 39.285 7.47054 41.0015 11.5734 41.0015C13.6632 41.0025 15.74 40.6656 17.7261 40.0033C19.4307 39.4268 21.0125 38.5262 22.3877 37.3494C23.6449 36.1956 24.6497 34.7854 25.3371 33.2103V33.2103Z" fill="white"/>
<path d="M47.6949 30.9343C46.914 31.9237 45.8507 32.6419 44.652 32.9898C43.4532 33.3376 42.178 33.298 41.0023 32.8764C39.8265 32.4547 38.8083 31.6718 38.088 30.6358C37.3677 29.5997 36.9808 28.3614 36.9808 27.0919C36.9808 25.8224 37.3677 24.5842 38.088 23.5481C38.8083 22.512 39.8265 21.7292 41.0023 21.3075C42.178 20.8859 43.4532 20.8462 44.652 21.1941C45.8507 21.542 46.914 22.2602 47.6949 23.2496L53.1036 17.7409C51.8271 16.3037 50.2691 15.155 48.53 14.3687C46.7909 13.5824 44.9092 13.176 43.0064 13.1758C35.4761 13.1758 28.917 18.654 28.917 27.0935C28.917 35.5329 35.4911 41.002 43.0064 41.002C44.9092 41.0018 46.7909 40.5954 48.53 39.8091C50.2691 39.0228 51.8271 37.874 53.1036 36.4368L47.6949 30.9343Z" fill="white"/>
<path d="M142 40.3416V13.8423H134.042V16.6301L133.304 15.9575C131.311 14.1406 129.091 13.1758 126.449 13.1758C119.427 13.1758 113.495 19.5457 113.495 27.0874C113.495 34.629 119.427 40.9959 126.449 40.9959C129.079 40.9959 131.311 40.0372 133.304 38.2203L134.042 37.5507V40.3355L142 40.3416ZM127.719 33.3417C126.503 33.3404 125.315 32.9719 124.305 32.2828C123.294 31.5936 122.507 30.6147 122.044 29.47C121.58 28.3252 121.459 27.0661 121.698 25.8517C121.937 24.6374 122.524 23.5225 123.385 22.6481C124.246 21.7737 125.343 21.179 126.536 20.9393C127.729 20.6996 128.965 20.8257 130.087 21.3015C131.21 21.7774 132.169 22.5817 132.842 23.6127C133.516 24.6437 133.874 25.855 133.872 27.0935C133.87 28.7541 133.221 30.3461 132.068 31.5195C130.914 32.6929 129.35 33.3516 127.719 33.3508V33.3417Z" fill="white"/>
</svg>
