<svg width="150" height="34" viewBox="0 0 150 34" fill="none" xmlns="http://www.w3.org/2000/svg">
<g clip-path="url(#clip0_528_651)">
<path d="M15.924 30.1055C16.1534 29.8223 16.3829 29.5489 16.6953 29.3537C17.8767 28.6263 19.4779 29.1633 19.9416 30.5546C20.298 31.6286 19.7805 32.7758 18.8091 33.2346C17.7741 33.7228 16.4707 33.4201 15.8605 32.2339C15.7824 32.0777 15.7043 32.0289 15.5334 32.0093C15.0111 31.941 14.479 31.8775 13.9713 31.7457C13.2537 31.5602 12.541 31.3454 11.8478 31.0818C10.4858 30.5692 9.23117 29.8565 8.0742 28.9729C6.927 28.104 5.92137 27.0983 5.04267 25.9658C4.05168 24.677 3.27549 23.2662 2.72386 21.7431C2.38702 20.8205 2.14294 19.8685 1.98184 18.8922C1.79634 17.7596 1.73287 16.6173 1.79634 15.475C1.83539 14.7623 1.92814 14.0544 2.06971 13.3515C2.24545 12.4874 2.48466 11.638 2.7922 10.813C3.05582 10.1002 3.38777 9.4168 3.7539 8.748C4.76441 6.9076 6.102 5.35034 7.73249 4.03716C9.02126 3.00224 10.4467 2.19676 11.9942 1.60607C12.7558 1.31317 13.5417 1.08373 14.3423 0.92263C15.0599 0.776179 15.7873 0.688309 16.5244 0.629728C17.4764 0.551621 18.4234 0.595556 19.3656 0.698072C20.3419 0.80547 21.3036 1.01538 22.2458 1.30829C23.4565 1.68418 24.6037 2.20164 25.6874 2.8509C26.0193 3.05105 26.3464 3.26097 26.654 3.50017C27.064 3.8126 27.1421 4.34959 26.8688 4.76941C26.5807 5.21853 26.0193 5.35034 25.5507 5.0672C25.1065 4.7987 24.672 4.51068 24.2229 4.25195C23.5394 3.85654 22.8169 3.53434 22.0652 3.30002C21.4305 3.09987 20.7862 2.91925 20.132 2.7728C19.6975 2.67516 19.2484 2.62635 18.8042 2.59706C17.906 2.53359 17.0028 2.52871 16.0997 2.61658C14.5815 2.76791 13.1316 3.1731 11.7501 3.81748C9.6217 4.80847 7.85941 6.24369 6.45348 8.12315C5.49178 9.40215 4.77906 10.813 4.31041 12.3409C4.02727 13.2636 3.85641 14.2106 3.76854 15.1772C3.67579 16.2414 3.71973 17.2959 3.85153 18.3503C3.91988 18.9117 4.0468 19.4682 4.19813 20.0101C4.48615 21.0401 4.88157 22.0262 5.39415 22.9684C6.40466 24.8137 7.75689 26.3563 9.45573 27.5914C10.476 28.3383 11.5939 28.9241 12.7802 29.3683C13.7614 29.7296 14.767 29.9737 15.8019 30.0957C15.8508 30.1055 15.8849 30.1055 15.924 30.1055ZM17.8474 30.291C17.2909 30.2666 16.8808 30.7694 16.8759 31.2331C16.871 31.7555 17.2957 32.1899 17.823 32.1997C18.3648 32.2095 18.8091 31.7799 18.8091 31.2429C18.8042 30.8377 18.4722 30.2812 17.8474 30.291Z" fill="#0282A6"/>
<path d="M21.2104 22.8268C18.3107 24.301 15.5769 24.0911 12.9408 22.2361C12.394 22.4655 11.818 22.4899 11.2468 22.2751C10.7831 22.0994 10.4121 21.7918 10.1533 21.3671C9.631 20.5031 9.74328 19.4047 10.4511 18.6675C11.1541 17.9353 12.2818 17.784 13.1654 18.3014C13.6682 18.5943 14.0001 19.0239 14.1612 19.5853C14.3174 20.1321 14.2589 20.6642 14.0392 21.1767C15.904 22.6559 18.999 22.817 21.2104 21.0352C23.4462 19.2289 23.8514 16.3048 23.0313 14.4253C22.753 14.4253 22.4747 14.4497 22.2014 14.4205C21.4642 14.3472 20.9126 13.9665 20.5562 13.327C19.8679 12.0821 20.4586 10.437 22.0061 10.0855C23.4804 9.75355 24.6471 10.8715 24.691 12.1212C24.7057 12.5703 24.6373 12.995 24.3884 13.3709C24.3054 13.4978 24.3151 13.6052 24.364 13.7321C24.8033 14.8305 24.9791 15.968 24.8521 17.1445C24.691 18.6285 24.1638 19.9661 23.1875 21.1084C22.9385 21.4062 22.6651 21.6844 22.3966 21.9822C23.7782 23.6518 25.1597 25.3213 26.5607 27.0201C26.8585 26.7712 27.1514 26.5466 27.4297 26.3025C28.3718 25.4678 29.1724 24.5109 29.8461 23.4467C30.5344 22.3581 31.047 21.1914 31.3936 19.9514C31.8378 18.3698 31.9794 16.7539 31.8232 15.1185C31.7207 14.0348 31.4717 12.9804 31.1105 11.9503C30.6028 10.5004 29.8559 9.18727 28.8942 7.99613C28.6647 7.70811 28.5818 7.40545 28.7136 7.03932C28.8991 6.51698 29.6997 6.22895 30.1732 6.80011C30.5344 7.23459 30.8664 7.69347 31.1837 8.16211C31.9745 9.32884 32.5506 10.603 32.9704 11.9454C33.234 12.7851 33.3951 13.654 33.5123 14.5279C33.6538 15.6116 33.6636 16.7002 33.566 17.784C33.3365 20.2785 32.5262 22.5729 31.1495 24.6672C30.4417 25.7411 29.6118 26.7126 28.6501 27.5669C28.2156 27.9526 27.747 28.304 27.2832 28.6653C27.1856 28.7434 27.0635 28.7971 26.9415 28.8459C26.5754 28.9924 26.2581 28.885 26.0091 28.6116C25.6967 28.2699 25.4087 27.9037 25.1109 27.5474C24.0857 26.3123 23.0606 25.0821 22.0354 23.847C21.7962 23.5639 21.5619 23.2759 21.3275 22.9927C21.2885 22.9342 21.2446 22.8756 21.2104 22.8268ZM13.0043 20.1955C13.0043 19.7073 12.6381 19.2436 12.0426 19.2436C11.5446 19.2436 11.1053 19.5951 11.0809 20.2004C11.0565 20.7179 11.5349 21.167 12.067 21.1621C12.5942 21.1572 13.0091 20.7325 13.0043 20.1955ZM21.5423 12.2481C21.5423 12.7802 21.9573 13.1952 22.4894 13.2C23.0166 13.2049 23.4462 12.7802 23.4511 12.253C23.456 11.7209 23.0215 11.2864 22.4845 11.2864C21.9573 11.2913 21.5423 11.716 21.5423 12.2481Z" fill="#47BCCA"/>
<path d="M103.751 19.6C103.018 19.6 102.296 19.6 101.539 19.6C101.534 19.4877 101.529 19.3803 101.529 19.2729C101.529 17.9256 101.529 16.5783 101.525 15.226C101.525 14.8941 101.515 14.5572 101.481 14.2253C101.422 13.7176 101.271 13.2343 100.846 12.9072C100.294 12.4825 99.6793 12.4532 99.0593 12.7412C98.3271 13.0878 97.9903 13.7127 97.9121 14.4889C97.8829 14.7916 97.8975 15.104 97.8975 15.4066C97.8975 16.7003 97.8975 17.9891 97.8975 19.2827C97.8975 19.3803 97.8975 19.4829 97.8975 19.5903C97.1311 19.5903 96.4037 19.5903 95.6422 19.5903C95.6422 19.4633 95.6422 19.3559 95.6422 19.2437C95.6422 17.7645 95.6373 16.2854 95.6422 14.8062C95.647 14.2839 95.5543 13.7908 95.2809 13.3417C94.578 12.1847 92.9231 12.3068 92.2885 13.3807C92.0248 13.825 91.9126 14.3034 91.9174 14.816C91.9223 16.2951 91.9174 17.7743 91.9174 19.2534C91.9174 19.3608 91.9174 19.4731 91.9174 19.5951C91.151 19.5951 90.4188 19.5951 89.6768 19.5951C89.6768 16.5978 89.6768 13.6199 89.6768 10.6421C89.8867 10.5884 91.3463 10.5738 91.7368 10.6226C91.7856 10.9301 91.8393 11.2474 91.8979 11.6233C92.1615 11.2816 92.4154 10.979 92.7717 10.7934C93.1379 10.6031 93.5284 10.4957 93.9385 10.4615C94.3388 10.4273 94.7342 10.4517 95.1296 10.5445C95.5348 10.6372 95.896 10.8227 96.2133 11.0912C96.5258 11.3548 96.7405 11.6868 96.926 12.0773C97.0432 11.9309 97.1457 11.7942 97.2531 11.6673C97.6339 11.223 98.0732 10.8618 98.6346 10.6763C99.0056 10.5542 99.3913 10.4908 99.7867 10.4859C100.451 10.4761 101.1 10.5396 101.72 10.8081C102.633 11.2084 103.189 11.9114 103.492 12.834C103.677 13.4052 103.756 13.9958 103.756 14.5914C103.76 16.1828 103.756 17.7694 103.756 19.3608C103.765 19.4389 103.76 19.5122 103.751 19.6Z" fill="#0282A6"/>
<path d="M55.9535 19.6051C55.2017 19.6051 54.4792 19.6051 53.7225 19.6051C53.7225 19.483 53.7225 19.3756 53.7225 19.2634C53.7176 17.6817 53.7176 16.1 53.7128 14.5232C53.7128 14.0888 53.5956 13.6787 53.3759 13.3028C53.0293 12.7024 52.3215 12.4534 51.6624 12.6047C50.8521 12.7902 50.3785 13.3272 50.1686 14.1181C50.0954 14.3914 50.0759 14.6648 50.0759 14.9431C50.0808 16.3832 50.0759 17.8233 50.0759 19.2682C50.0759 19.3708 50.0759 19.4684 50.0759 19.61C49.3387 19.6246 48.6162 19.6148 47.8645 19.6148C47.8596 19.4977 47.8547 19.4001 47.8547 19.3024C47.8547 17.8233 47.8547 16.3441 47.8547 14.8698C47.8547 14.3914 47.7717 13.9277 47.552 13.4981C46.893 12.1849 45.1746 12.3167 44.54 13.3077C44.2666 13.7324 44.1007 14.1864 44.1007 14.6941C44.1007 16.2074 44.0958 17.7256 44.0958 19.239C44.0958 19.3512 44.0958 19.4586 44.0958 19.566C43.8859 19.6344 42.3725 19.6588 41.8941 19.6051C41.8404 19.4049 41.8209 10.9986 41.8795 10.6276C42.5483 10.6276 43.222 10.6276 43.92 10.6276C43.9737 10.9498 44.0274 11.2623 44.086 11.643C44.7597 10.6472 45.7019 10.408 46.7563 10.4714C47.8401 10.5398 48.626 11.0621 49.1142 12.0775C49.1825 11.9896 49.2362 11.9311 49.285 11.8725C49.6853 11.3452 50.1637 10.9157 50.7984 10.696C51.184 10.5593 51.5892 10.5007 52.0042 10.4958C52.6583 10.491 53.2978 10.5495 53.908 10.818C54.8014 11.2086 55.3481 11.892 55.6654 12.7902C55.8851 13.4102 55.9535 14.0595 55.9632 14.7087C55.9828 16.2611 55.9681 17.8135 55.9681 19.3659C55.9681 19.4342 55.9583 19.5075 55.9535 19.6051Z" fill="#47BCCA"/>
<path d="M74.4901 11.6918C74.4901 10.0857 74.4901 8.48938 74.4901 6.87354C75.2517 6.87354 75.979 6.87354 76.7259 6.87354C76.7259 11.1206 76.7259 15.3531 76.7259 19.605C76.0376 19.605 75.3591 19.605 74.6512 19.605C74.6073 19.234 74.5633 18.8679 74.5145 18.4627C74.4462 18.5115 74.3925 18.5408 74.3583 18.5847C74.0019 19.0729 73.5235 19.4 72.9621 19.6001C72.5911 19.7319 72.2055 19.7905 71.8149 19.8052C70.7995 19.8393 69.8378 19.6587 68.9689 19.1022C68.0902 18.5359 67.5141 17.7549 67.2066 16.7541C66.9625 15.9633 66.9381 15.1578 67.0162 14.3523C67.0943 13.5615 67.3238 12.8048 67.7973 12.1507C68.3636 11.3696 69.1056 10.8472 70.038 10.6032C70.4969 10.4811 70.9606 10.3981 71.439 10.3981C72.2592 10.3981 73.0207 10.6032 73.709 11.0474C73.9727 11.2183 74.2021 11.4526 74.4901 11.6918ZM71.7515 17.7353C73.2062 17.75 74.3485 16.6711 74.3534 15.1334C74.3632 13.581 73.2404 12.4826 71.7612 12.4826C70.2674 12.4777 69.2227 13.4931 69.2081 15.0846C69.1935 16.6614 70.3163 17.75 71.7515 17.7353Z" fill="#47BCCA"/>
<path d="M112.352 11.7456C112.386 11.3551 112.415 11.0036 112.449 10.6326C113.157 10.6326 113.85 10.6326 114.544 10.6326C114.597 10.8376 114.612 19.2292 114.563 19.5758C114.363 19.6344 112.776 19.6442 112.469 19.5856C112.44 19.2146 112.405 18.8387 112.366 18.3993C112.288 18.4823 112.239 18.5311 112.2 18.58C111.785 19.1218 111.244 19.4684 110.599 19.6735C110.067 19.8443 109.53 19.9175 108.978 19.8736C107.538 19.7516 106.323 19.2097 105.522 17.9405C105.181 17.3986 104.985 16.8079 104.878 16.1782C104.78 15.6021 104.756 15.031 104.819 14.4549C104.922 13.4932 105.224 12.6096 105.874 11.8676C106.425 11.2379 107.109 10.8181 107.919 10.5984C108.49 10.4422 109.066 10.3592 109.652 10.3934C110.697 10.4617 111.605 10.8132 112.254 11.687C112.269 11.7017 112.288 11.7065 112.352 11.7456ZM109.696 17.8331C110.306 17.8428 110.858 17.6768 111.331 17.301C112.239 16.5785 112.562 15.236 112.152 14.1132C111.761 13.0441 110.99 12.4534 109.852 12.4046C108.778 12.3558 107.914 12.7463 107.363 13.708C107.133 14.1132 107.045 14.5623 107.036 15.0163C107.021 15.6119 107.133 16.183 107.47 16.6859C107.997 17.4816 108.769 17.8135 109.696 17.8331Z" fill="#0282A6"/>
<path d="M66.42 15.9094C65.2289 15.9094 64.067 15.9094 62.9101 15.9094C61.7482 15.9094 60.5864 15.9094 59.405 15.9094C59.4099 16.2023 59.5173 16.4415 59.6491 16.671C59.9713 17.2177 60.4692 17.5253 61.0599 17.6864C62.0558 17.9548 63.0126 17.8035 63.9304 17.3593C64.1207 17.2665 64.2867 17.1298 64.4966 16.9932C64.9506 17.4423 65.4193 17.9011 65.8928 18.3698C65.8489 18.4235 65.8196 18.4674 65.7805 18.5016C65.102 19.1118 64.3111 19.4828 63.4227 19.683C62.583 19.8685 61.7434 19.888 60.9037 19.7562C59.9078 19.5951 59.0194 19.185 58.3115 18.4528C57.8331 17.9597 57.5012 17.369 57.3059 16.71C57.0911 15.9826 57.013 15.2357 57.096 14.4791C57.1985 13.576 57.4816 12.7461 58.0528 12.0236C58.6044 11.3304 59.3074 10.8617 60.1568 10.5884C61.0355 10.3052 61.9337 10.2759 62.832 10.4029C63.8522 10.5444 64.7554 10.9545 65.4339 11.7697C65.8245 12.2384 66.0783 12.7754 66.2443 13.3709C66.4688 14.1959 66.4542 15.0258 66.42 15.9094ZM64.2379 14.0544C64.2428 13.9909 64.2526 13.9519 64.2428 13.9177C64.1061 13.2928 63.7741 12.8193 63.1688 12.5606C62.4951 12.2677 61.8019 12.253 61.099 12.4288C60.3374 12.6191 59.8053 13.0829 59.5027 13.8103C59.4734 13.8835 59.4636 13.9616 59.4392 14.0544C61.0599 14.0544 62.6367 14.0544 64.2379 14.0544Z" fill="#47BCCA"/>
<path d="M36.2516 16.4416C36.2565 15.7387 36.2174 14.9381 36.0954 14.1472C35.8171 12.3556 35.2948 10.6422 34.4649 9.02632C33.8449 7.82542 33.1029 6.70751 32.2144 5.69212C32.1216 5.5896 32.0338 5.4822 31.9556 5.36504C31.7164 4.99891 31.7946 4.48145 32.1363 4.20808C32.5366 3.88589 33.054 4.00793 33.303 4.27642C34.0548 5.09167 34.7089 5.97525 35.2899 6.91742C35.8073 7.75219 36.2662 8.62602 36.6323 9.5389C36.9741 10.3883 37.2621 11.2621 37.4867 12.1555C37.8674 13.6883 38.0188 15.2456 38.009 16.8224C38.0041 17.7353 37.9211 18.6433 37.7747 19.5415C37.5599 20.8254 37.2035 22.0702 36.7251 23.2809C36.1295 24.7991 35.3289 26.205 34.3623 27.5182C34.089 27.8892 33.7717 28.2358 33.4836 28.5971C33.1614 29.0022 32.2925 29.0267 32.0289 28.3676C31.8922 28.0259 31.9459 27.6988 32.1949 27.4059C32.4878 27.0593 32.7758 26.7078 33.0443 26.3417C34.0109 25.0237 34.7724 23.6031 35.3143 22.0605C35.6267 21.1671 35.8562 20.2494 36.0221 19.317C36.1832 18.3894 36.2516 17.4668 36.2516 16.4416Z" fill="#0282A6"/>
<path d="M88.549 11.5649C88.139 12.0531 87.7387 12.5217 87.353 12.9806C87.0406 12.8 86.7574 12.6047 86.4499 12.4583C85.952 12.224 85.4101 12.1995 84.8682 12.2191C84.5412 12.2337 84.2239 12.2777 83.9261 12.4241C83.6478 12.5608 83.4672 12.7658 83.4574 13.0929C83.4525 13.4395 83.6381 13.664 83.931 13.8154C84.2678 13.9911 84.6339 14.0497 85.0049 14.0643C85.581 14.0888 86.1521 14.162 86.7135 14.2938C87.2456 14.4207 87.7338 14.6306 88.1585 14.9772C88.6857 15.4117 88.9152 15.9975 88.9737 16.6565C89.1104 18.2382 88.0755 19.2829 86.816 19.6734C85.9129 19.9517 85 19.9517 84.0823 19.8638C82.8863 19.7466 81.8611 19.2438 81.0117 18.3846C80.9922 18.3651 80.9824 18.3407 80.9482 18.2919C81.2997 17.7842 81.661 17.2667 82.0173 16.7493C82.2761 16.9299 82.5153 17.1203 82.7789 17.2716C83.4525 17.6621 84.1848 17.8965 84.961 17.9599C85.415 17.9941 85.8495 17.9355 86.2498 17.6963C86.6354 17.4669 86.8111 17.1008 86.7379 16.72C86.6842 16.4564 86.5182 16.2953 86.2839 16.1976C85.908 16.0414 85.5175 15.9877 85.1172 15.9633C84.2971 15.9145 83.4965 15.7729 82.7447 15.4117C82.1394 15.1237 81.6463 14.7087 81.4169 14.0595C81.0898 13.1417 81.207 12.2874 81.8465 11.5308C82.2517 11.0572 82.7838 10.7887 83.3647 10.5935C84.2239 10.3103 85.1026 10.2957 85.9861 10.3884C86.9234 10.4812 87.7631 10.8278 88.4758 11.4575C88.5051 11.4917 88.5149 11.521 88.549 11.5649Z" fill="#0282A6"/>
<path d="M124.864 12.5654C124.293 12.5654 123.766 12.5654 123.209 12.5654C123.18 11.921 123.2 11.2913 123.2 10.6371C123.751 10.6371 124.283 10.6371 124.855 10.6371C124.879 9.86092 124.85 9.11402 124.869 8.33295C125.601 8.22067 126.329 8.15721 127.09 8.08398C127.11 8.38665 127.1 8.66003 127.1 8.9334C127.1 9.20189 127.1 9.47039 127.1 9.74376C127.1 10.022 127.1 10.3003 127.1 10.6127C127.378 10.6322 127.642 10.6225 127.91 10.6225C128.189 10.6225 128.467 10.6225 128.745 10.6225C129.014 10.6225 129.282 10.6225 129.565 10.6225C129.565 11.2766 129.565 11.9064 129.565 12.5654C128.735 12.5654 127.925 12.5654 127.095 12.5654C127.09 12.6874 127.081 12.7802 127.081 12.8681C127.081 14.0104 127.076 15.1527 127.081 16.2999C127.081 16.5489 127.081 16.7978 127.178 17.037C127.354 17.4666 127.681 17.657 128.12 17.7009C128.443 17.7351 128.745 17.6424 129.043 17.5398C129.126 17.5106 129.214 17.4862 129.326 17.4471C129.531 18.0768 129.726 18.6822 129.931 19.3119C129.858 19.3461 129.79 19.39 129.717 19.4193C128.931 19.7073 128.125 19.761 127.3 19.6683C126.456 19.5706 125.802 19.1606 125.343 18.4478C125.118 18.1012 124.991 17.7058 124.933 17.3055C124.879 16.9394 124.864 16.5635 124.859 16.1925C124.85 15.0941 124.855 14.0006 124.855 12.9022C124.864 12.8095 124.864 12.707 124.864 12.5654Z" fill="#0282A6"/>
<path d="M117.951 19.605C117.195 19.605 116.472 19.605 115.755 19.605C115.701 19.3902 115.681 11.0376 115.73 10.6568C115.93 10.6031 117.268 10.5836 117.776 10.6324C117.829 10.9302 117.883 11.2329 117.941 11.5892C118.034 11.4818 118.093 11.4184 118.147 11.35C118.63 10.7105 119.289 10.4323 120.07 10.3883C120.661 10.3542 121.237 10.3981 121.798 10.6129C122.154 10.7496 122.545 10.9741 122.794 11.2524C122.467 11.8772 122.135 12.5167 121.798 13.1514C121.637 13.0488 121.5 12.9512 121.354 12.878C120.499 12.4338 119.65 12.4972 118.83 12.9561C118.425 13.1855 118.2 13.5761 118.064 14.0105C117.976 14.2888 117.946 14.5719 117.946 14.86C117.951 16.3293 117.946 17.7987 117.946 19.2632C117.951 19.3706 117.951 19.4683 117.951 19.605Z" fill="#0282A6"/>
<path d="M29.2945 16.0314C29.2798 17.4959 29.1334 18.604 28.821 19.6927C28.4304 21.0449 27.8105 22.2751 26.9708 23.4028C26.7511 23.6957 26.4582 23.8372 26.097 23.764C25.7504 23.6957 25.5161 23.4809 25.4087 23.144C25.3208 22.856 25.3989 22.6022 25.56 22.3581C25.8334 21.948 26.1165 21.5477 26.346 21.1181C26.7951 20.2931 27.1075 19.4144 27.3125 18.4918C27.542 17.452 27.5908 16.4073 27.4834 15.3626C27.3028 13.5759 26.6779 11.9454 25.6088 10.4955C25.2036 9.94879 25.3989 9.28488 26.014 9.07496C26.3508 8.96268 26.7218 9.07496 26.9611 9.37275C27.4541 9.99272 27.8349 10.681 28.1815 11.3889C28.6257 12.3018 28.9284 13.2683 29.0943 14.2691C29.2115 14.9574 29.2554 15.6653 29.2945 16.0314Z" fill="#0282A6"/>
<path d="M80.1479 19.6051C79.4108 19.6051 78.6883 19.6051 77.9512 19.6051C77.9512 16.6029 77.9512 13.6153 77.9512 10.5886C78.6785 10.5691 79.4059 10.5837 80.1479 10.5789C80.1479 13.5957 80.1479 16.5833 80.1479 19.6051Z" fill="#47BCCA"/>
<path d="M148.213 17.7497C146.978 17.7497 145.782 17.7497 144.567 17.7497C144.596 18.1304 144.801 18.3696 145.094 18.5356C145.524 18.7748 145.987 18.7943 146.446 18.6674C146.71 18.5942 146.959 18.4624 147.237 18.3452C147.437 18.56 147.667 18.7992 147.911 19.058C147.774 19.2483 147.549 19.3801 147.32 19.4875C146.51 19.8634 145.675 19.9171 144.83 19.6145C144.186 19.385 143.737 18.9457 143.512 18.3062C143.254 17.569 143.254 16.827 143.6 16.1094C143.947 15.3918 144.547 15.011 145.314 14.8646C145.787 14.7718 146.256 14.806 146.72 14.9427C147.51 15.177 147.964 15.7189 148.164 16.4951C148.252 16.8954 148.228 17.3054 148.213 17.7497ZM144.586 16.7489C145.431 16.7489 146.246 16.7489 147.071 16.7489C147.042 16.4072 146.876 16.168 146.593 16.0264C146.08 15.7726 145.568 15.7921 145.074 16.0752C144.826 16.2168 144.65 16.4316 144.586 16.7489Z" fill="#47BCCA"/>
<path d="M138.523 14.9722C138.997 14.9722 139.426 14.9722 139.905 14.9722C140.222 16.1096 140.544 17.2568 140.862 18.3894C141.159 17.2666 141.457 16.1242 141.765 14.9722C142.189 14.9722 142.595 14.9722 143.044 14.9722C142.556 16.5538 142.058 18.1111 141.56 19.6879C141.091 19.6879 140.627 19.6879 140.129 19.6879C139.602 18.1355 139.07 16.5685 138.523 14.9722Z" fill="#47BCCA"/>
<path d="M133.852 13.0879C134.252 13.0879 134.603 13.0879 134.989 13.0879C134.989 13.2002 134.989 13.2978 134.989 13.3954C134.989 14.9283 134.989 16.466 134.989 17.9989C134.989 18.0477 134.989 18.0916 134.989 18.1405C134.969 18.6726 135.189 18.8288 135.633 18.7653C135.658 18.7604 135.687 18.7702 135.726 18.7751C135.736 18.819 135.751 18.8629 135.751 18.9069C135.751 19.1314 135.751 19.3511 135.751 19.5854C135.267 19.7612 134.804 19.7709 134.359 19.5366C134.057 19.3755 133.91 19.0973 133.871 18.7653C133.856 18.6384 133.856 18.5066 133.856 18.3748C133.856 16.7101 133.856 15.0455 133.856 13.3808C133.852 13.2929 133.852 13.2002 133.852 13.0879Z" fill="#47BCCA"/>
<path d="M137.962 19.6586C137.571 19.6586 137.2 19.6586 136.834 19.6586C136.776 19.4535 136.761 15.2895 136.82 14.9673C137.191 14.9673 137.566 14.9673 137.962 14.9673C137.962 16.5294 137.962 18.0769 137.962 19.6586Z" fill="#47BCCA"/>
<path d="M77.741 8.09896C77.7166 7.26419 78.2975 6.78579 79.0346 6.7809C79.8157 6.77114 80.3625 7.26419 80.3771 8.06479C80.3918 8.78728 79.8841 9.37308 79.0737 9.38773C78.3756 9.39261 77.7263 8.92397 77.741 8.09896Z" fill="#47BCCA"/>
<path d="M137.39 14.3132C136.961 14.3132 136.702 14.0691 136.697 13.6591C136.692 13.2441 136.98 12.961 137.395 12.9659C137.791 12.9708 138.084 13.2588 138.084 13.6493C138.084 14.0447 137.81 14.3083 137.39 14.3132Z" fill="#47BCCA"/>
<path d="M132.885 18.9847C132.885 19.3557 132.587 19.6535 132.206 19.6535C131.82 19.6584 131.518 19.3508 131.523 18.9603C131.527 18.5795 131.82 18.2915 132.196 18.2915C132.592 18.2915 132.89 18.5893 132.885 18.9847Z" fill="#47BCCA"/>
</g>
<defs>
<clipPath id="clip0_528_651">
<rect width="150" height="33.6642" fill="white"/>
</clipPath>
</defs>
</svg>
