<svg width="76" height="76" viewBox="0 0 76 76" fill="none" xmlns="http://www.w3.org/2000/svg">
<path d="M21.4787 46.8388C21.4787 52.619 21.2287 58.4141 21.5387 64.1793C21.9987 72.7345 12.8035 77.7346 5.34828 73.8745C1.84819 72.0645 0.0531467 69.0594 0.0431464 65.1843C-0.0118549 47.0388 -0.0168551 28.8984 0.0431464 10.7529C0.0581468 5.79282 3.27323 1.85773 8.03834 0.492692C13.2985 -1.01235 19.0486 0.987703 21.9987 5.71282C26.5388 12.973 30.8639 20.3682 35.279 27.7084C35.444 27.9834 35.609 28.2634 35.989 28.8984C37.9191 25.6683 39.6991 22.6482 41.5192 19.6532C44.2892 15.1081 47.0693 10.5629 49.8794 6.04283C51.8194 2.92775 54.5345 0.937702 58.2146 0.252686C62.6697 -0.577335 66.3498 0.667695 68.9648 4.34279C71.5249 7.93787 71.6099 11.833 69.2898 15.5931C65.7498 21.3232 62.0697 26.9683 58.4746 32.6685C54.3045 39.2786 50.1894 45.9238 45.9993 52.524C40.5291 61.1342 30.7689 61.0042 25.4488 52.289C24.3037 50.4139 23.1187 48.5639 21.9487 46.6988C21.7887 46.7488 21.6337 46.7938 21.4787 46.8388Z" fill="white" fill-opacity="0.2"/>
<path d="M59.91 75.0795C53.8748 75.0345 49.1097 70.2494 49.1447 64.2743C49.1847 58.1991 54.1498 53.344 60.2 53.454C66.1301 53.564 70.9103 58.4991 70.8453 64.4443C70.7803 70.4244 65.9451 75.1295 59.91 75.0795Z" fill="white" fill-opacity="0.2"/>
<path d="M70.035 51.374C67.27 51.359 64.9499 49.0339 64.9649 46.2889C64.9799 43.5138 67.28 41.2487 70.065 41.2637C72.8851 41.2787 75.1202 43.5238 75.1152 46.3239C75.1152 49.0989 72.8051 51.389 70.035 51.374Z" fill="white" fill-opacity="0.2"/>
<path d="M66.3399 33.4233C66.3299 31.5532 67.3099 30.7032 68.8 30.6682C70.325 30.6282 71.325 31.5732 71.35 33.1383C71.375 34.7083 70.415 35.6583 68.875 35.6683C67.3549 35.6783 66.3999 34.8333 66.3399 33.4233Z" fill="white" fill-opacity="0.2"/>
</svg>
