<svg width="228" height="48" viewBox="0 0 228 48" fill="none" xmlns="http://www.w3.org/2000/svg">
<path d="M177.569 45.3104C177.784 44.5865 178.079 43.8358 178.4 43.1119C178.937 43.8626 179.526 44.5865 180.143 45.3104C179.526 46.0343 178.937 46.7582 178.4 47.5089C178.079 46.785 177.811 46.0611 177.569 45.3104ZM180.143 12.9765C179.526 12.2526 178.937 11.5287 178.4 10.778C178.079 11.5019 177.811 12.2526 177.569 12.9765C177.784 13.7004 178.079 14.4511 178.4 15.175C178.937 14.4243 179.526 13.7004 180.143 12.9765ZM180.143 2.19849C179.526 1.4746 178.937 0.750705 178.4 0C178.079 0.723894 177.811 1.4746 177.569 2.19849C177.784 2.92239 178.079 3.67309 178.4 4.39698C178.937 3.64628 179.526 2.92239 180.143 2.19849M182.368 10.6171C183.414 9.5983 184.594 8.57948 185.827 7.58748C184.567 6.59548 183.414 5.60347 182.368 4.55785C181.537 5.54985 180.787 6.56867 180.116 7.58748C180.787 8.60629 181.537 9.62511 182.368 10.6171ZM180.143 23.7544C179.526 23.0305 178.937 22.3067 178.4 21.5559C178.079 22.2798 177.811 23.0037 177.569 23.7544C177.784 24.4783 178.079 25.229 178.4 25.9529C178.937 25.2022 179.526 24.4783 180.143 23.7544ZM180.143 34.5324C179.526 33.8085 178.937 33.0846 178.4 32.3339C178.079 33.0578 177.811 33.7817 177.569 34.5324C177.784 35.2563 178.079 36.007 178.4 36.7309C178.937 35.9802 179.526 35.2563 180.143 34.5324ZM182.368 32.1731C183.414 31.1542 184.594 30.1354 185.827 29.1434C184.567 28.1514 183.414 27.1594 182.368 26.1138C181.537 27.1058 180.787 28.1246 180.116 29.1434C180.787 30.1891 181.537 31.1811 182.368 32.1731M182.368 42.951C183.414 41.9322 184.594 40.9134 185.827 39.9214C184.567 38.9294 183.414 37.9106 182.368 36.8918C181.537 37.8838 180.787 38.9026 180.116 39.9214C180.787 40.9402 181.537 41.959 182.368 42.951ZM188.535 37.9106C190.251 36.7309 192.074 35.6049 194.031 34.5324C192.074 33.46 190.224 32.3339 188.535 31.1542C187.087 32.2535 185.747 33.4064 184.567 34.5324C185.747 35.6853 187.087 36.8113 188.535 37.9106ZM182.368 15.3358C181.537 16.3278 180.787 17.3466 180.116 18.3655C180.787 19.3843 181.537 20.4031 182.368 21.3951C183.414 20.3763 184.594 19.3575 185.827 18.3655C184.567 17.3735 183.414 16.3546 182.368 15.3358ZM188.535 27.1326C190.251 25.9529 192.074 24.8269 194.031 23.7276C192.074 22.6552 190.224 21.5291 188.535 20.3495C187.087 21.4487 185.747 22.5748 184.567 23.7276C185.747 24.8805 187.087 26.0066 188.535 27.1326ZM197.543 32.7093C200.251 31.3955 203.12 30.2159 206.15 29.1166C203.12 28.0442 200.251 26.8377 197.543 25.524C195.345 26.65 193.254 27.8565 191.35 29.1166C193.254 30.3767 195.318 31.5564 197.543 32.6825M188.535 16.3278C190.251 15.1481 192.074 14.0221 194.031 12.9497C192.074 11.8772 190.224 10.7512 188.535 9.57148C187.087 10.6707 185.747 11.7968 184.567 12.9497C185.747 14.1025 187.087 15.2286 188.535 16.3278ZM197.543 21.9045C200.251 20.5908 203.12 19.4111 206.15 18.3118C203.12 17.2394 200.251 16.0329 197.543 14.746C195.345 15.872 193.254 17.0785 191.35 18.3118C193.254 19.5719 195.318 20.7784 197.543 21.9045ZM211.324 27.4007C216.579 25.8189 222.183 24.5856 228.001 23.7008C222.183 22.8161 216.579 21.5828 211.324 20.0009C207.812 21.0734 204.487 22.3335 201.377 23.7008C204.487 25.0682 207.812 26.3015 211.324 27.4007Z" fill="white"/>
<path d="M20.3495 31.5829C19.1698 31.2612 18.7676 30.6446 18.3118 29.4917L12.1721 13.3516C11.904 12.6545 11.5019 11.019 11.4751 10.9922V10.8849H9.49105V10.9922C9.49105 10.9922 8.98165 12.6277 8.71354 13.3516L2.06444 29.5185C1.60865 30.6178 1.26011 31.2076 0.107244 31.6098H0V32.3337H0.160865C0.455785 32.3337 1.01881 32.3337 1.58184 32.3068C2.09125 32.3068 2.57384 32.28 2.76152 32.28C2.97601 32.28 3.4586 32.28 3.91439 32.3068C4.34336 32.3068 4.79915 32.3068 4.98682 32.3068H5.14769V31.6098H5.04045C4.20931 31.3148 3.86077 30.8859 3.96801 30.296C3.99482 30.1352 4.31655 29.0091 4.45061 28.741L5.54985 26.1403H13.754L14.9605 29.1968C15.0677 29.4113 15.309 30.162 15.3358 30.4033C15.4163 30.8054 15.3894 31.288 14.4511 31.5829H14.3438V32.3068H14.5047C14.746 32.3068 15.3626 32.3068 15.9525 32.28C16.5423 32.28 17.1322 32.2532 17.3735 32.2532C17.6148 32.2532 18.2314 32.2532 18.8481 32.28C19.4647 32.28 20.0545 32.3068 20.3227 32.3068H20.4835V31.6098H20.3763L20.3495 31.5829ZM6.13969 24.3976L9.70554 15.7377L13.0301 24.3976H6.1665H6.13969Z" fill="white"/>
<path d="M57.8038 16.5949H57.9647V17.292H57.8575C56.7314 17.6137 56.5974 18.0963 56.5974 18.4717V26.5417C56.5974 30.3757 54.0503 32.4133 49.1976 32.4133C44.9614 32.4133 42.6557 30.3221 42.6557 26.5417V18.4717C42.6557 18.0159 42.2267 17.4797 41.4492 17.292H41.3152V16.5681H41.476C41.7441 16.5681 42.2803 16.5681 42.8166 16.5681C43.3528 16.5681 43.8622 16.5949 44.0767 16.5949C44.2644 16.5949 44.7201 16.5949 45.2027 16.5681C45.739 16.5681 46.302 16.5681 46.5701 16.5681H46.731V17.2652H46.5969C45.8194 17.426 45.4708 18.0695 45.4708 18.4717V27.1048C45.4708 29.7322 47.6425 30.9387 49.6802 30.9387C52.2272 30.9387 54.801 29.759 54.801 27.1048V18.4448C54.801 17.855 54.3721 17.4528 53.5409 17.292H53.4069V16.5681H53.5677C53.7554 16.5681 54.1308 16.5681 54.5329 16.5681C54.9887 16.5681 55.4445 16.5949 55.6858 16.5949C55.9003 16.5949 56.3561 16.5949 56.785 16.5681C57.214 16.5681 57.6162 16.5681 57.8038 16.5681" fill="white"/>
<path d="M97.053 27.8279H97.7501L97.5356 31.501H97.3212C97.3212 31.501 96.7581 31.5814 95.927 31.7691C95.8197 31.7691 95.6857 31.8227 95.5248 31.8763C94.4524 32.1444 92.4148 32.627 90.4308 32.627C83.6208 32.627 79.197 28.3373 79.197 21.6882C79.197 15.0391 83.8353 10.7494 90.4308 10.7494C92.1735 10.7494 94.077 11.2051 95.0959 11.4733C95.2835 11.5269 95.4444 11.5537 95.5784 11.5805C96.4632 11.7682 96.919 11.795 97.0262 11.795H97.1871L97.4016 15.4949H96.6777V15.4145C96.2219 14.5833 95.5516 13.8862 94.6937 13.3768C93.5944 12.7334 92.0394 12.358 90.4308 12.358C85.712 12.358 82.5484 16.1115 82.5484 21.6614C82.5484 26.1388 85.5512 30.9916 90.4308 30.9916C92.3611 30.9916 93.8894 30.643 95.0422 29.9728C95.9002 29.4634 96.5704 28.7663 96.9994 27.9083L97.053 27.8279V27.8279Z" fill="white"/>
<path d="M117.918 16.7304H118.079V17.4275H117.945C117.302 17.5884 116.926 18.1782 116.926 18.6072V30.4576C116.926 30.8866 117.302 31.4228 117.972 31.6105H118.079V32.3344H117.918C117.73 32.3344 117.275 32.3344 116.765 32.3344C116.283 32.3344 115.773 32.3076 115.559 32.3076C115.317 32.3076 114.754 32.3076 114.218 32.3344C113.736 32.3344 113.28 32.3344 113.119 32.3344H112.958V31.6373H113.065C113.682 31.4496 114.084 30.9134 114.084 30.4576V24.9078H104.861V30.4576C104.861 30.8866 105.237 31.4228 105.907 31.6105H106.014V32.3344H105.853C105.692 32.3344 105.237 32.3344 104.727 32.3344C104.191 32.3344 103.628 32.3076 103.387 32.3076C103.172 32.3076 102.663 32.3076 102.18 32.3344C101.698 32.3344 101.242 32.3344 101.081 32.3344H100.92V31.6373H101.054C101.671 31.4496 102.046 30.9134 102.046 30.4576V18.6072C102.046 18.1782 101.698 17.6152 101.054 17.4543H100.92V16.7304H101.081C101.242 16.7304 101.724 16.7304 102.18 16.7304C102.663 16.7304 103.172 16.7572 103.387 16.7572C103.628 16.7572 104.191 16.7572 104.727 16.7304C105.21 16.7304 105.666 16.7304 105.853 16.7304H106.014V17.4275H105.88C105.237 17.5884 104.861 18.1782 104.861 18.6072V23.2723H114.084V18.6072C114.084 18.1514 113.736 17.5884 113.092 17.4543H112.985V16.7304H113.146C113.307 16.7304 113.762 16.7304 114.245 16.7304C114.781 16.7304 115.344 16.7572 115.586 16.7572C115.773 16.7572 116.283 16.7572 116.792 16.7304C117.275 16.7304 117.757 16.7304 117.945 16.7304" fill="white"/>
<path d="M128.747 16.7304H128.908V17.4275H128.801C127.889 17.6688 127.487 18.0442 127.487 18.6072V30.4576C127.487 31.0206 127.916 31.396 128.774 31.6105H128.908V32.3344H128.747C128.559 32.3344 128.023 32.3344 127.487 32.3344C126.924 32.3344 126.334 32.3076 126.146 32.3076C125.905 32.3076 125.262 32.3076 124.645 32.3344C124.109 32.3344 123.599 32.3344 123.438 32.3344H123.278V31.6373H123.412C124.243 31.4496 124.672 31.0743 124.672 30.4576V18.6072C124.672 18.0174 124.243 17.6152 123.412 17.4543H123.278V16.7304H123.438C123.626 16.7304 124.109 16.7304 124.645 16.7304C125.262 16.7304 125.905 16.7572 126.146 16.7572C126.361 16.7572 126.924 16.7572 127.487 16.7304C128.05 16.7304 128.586 16.7304 128.747 16.7304" fill="white"/>
<path d="M145.902 28.6873L146.599 28.875L146.116 32.3336H145.955C144.481 32.1996 143.569 32.1996 141.907 32.1996H136.866C136.652 32.1996 136.142 32.1996 135.66 32.2264C135.124 32.2264 134.587 32.2532 134.346 32.2532H134.185V31.5293H134.319C135.097 31.3684 135.445 30.7786 135.445 30.296V18.526C135.445 17.9094 135.043 17.534 134.212 17.3732H134.078V16.6493H134.239C134.427 16.6493 134.909 16.6493 135.445 16.6493C136.035 16.6493 136.652 16.6761 136.866 16.6761C137.081 16.6761 137.671 16.6761 138.234 16.6493C138.77 16.6493 139.306 16.6493 139.467 16.6493H139.628V17.3463H139.521C138.395 17.6681 138.26 18.1507 138.26 18.526V30.5641H142.899C144.373 30.5641 145.151 30.1083 145.821 28.7946L145.875 28.6873H145.902Z" fill="white"/>
<path d="M162.715 29.4105L162.26 32.4133H162.099C160.624 32.2793 159.766 32.2793 158.05 32.2793H153.01C152.795 32.2793 152.286 32.2793 151.777 32.2793C151.24 32.2793 150.704 32.3061 150.463 32.3061H150.302V31.609H150.436C151.214 31.4481 151.562 30.8583 151.562 30.3757V18.6057C151.562 18.2304 151.267 17.5869 150.436 17.4528H150.302V16.7289H160.624C160.973 16.7289 161.429 16.6753 161.697 16.5681H162.367L162.287 19.8658H161.563V19.7586C161.187 18.7934 160.276 18.2304 159.096 18.2304H154.404V23.4317H158.533C159.176 23.4317 159.659 23.1904 159.981 22.681L160.034 22.6005H160.731V22.7614C160.705 23.1368 160.705 23.8875 160.705 24.1556C160.705 24.2896 160.705 24.4773 160.705 24.6918C160.705 24.9867 160.705 25.3084 160.705 25.5497V25.7106H160.034L159.981 25.6302C159.659 25.1476 159.176 24.9063 158.533 24.9063H154.404V30.8047H159.016C160.517 30.8047 161.455 30.3489 161.965 29.3569L162.018 29.2496L162.715 29.4105V29.4105Z" fill="white"/>
<path d="M76.4637 31.6365C75.4985 31.3952 75.1768 30.8322 74.8282 30.0815L69.9218 18.526C69.7341 18.0434 69.3588 16.7565 69.3588 16.7565V16.6493H67.4552V16.7565C67.4552 16.7565 67.1067 18.0434 66.8654 18.526L61.4496 30.0547C61.0742 30.859 60.7257 31.4489 59.9214 31.6634H59.8409V32.3336H62.2003C62.3612 32.3336 62.6561 32.3336 62.9778 32.3336C63.38 32.3336 63.8357 32.3336 64.1039 32.3336H64.2647V31.6634H64.1575C63.4604 31.4221 63.2727 31.0199 63.3263 30.8054C63.3532 30.6714 63.5408 30.1619 63.6213 30.0011L64.5596 27.9366H70.8334L71.7986 30.0011C72.0131 30.5641 72.0667 30.7518 72.0935 30.8054C72.1471 31.0199 72.0935 31.4221 71.4232 31.6365H71.316V32.3336H71.4769C71.7718 32.3336 72.3616 32.3336 72.871 32.3336C73.3 32.3336 73.7022 32.3336 73.8898 32.3336C74.0775 32.3336 74.5065 32.3336 74.9623 32.3336C75.5253 32.3336 76.1151 32.3336 76.4101 32.3336H76.5709V31.6634H76.4369L76.4637 31.6365ZM65.2835 26.328L67.8038 20.8049L70.1899 26.328H65.3103H65.2835Z" fill="white"/>
<path d="M35.494 34.2384L33.3223 31.745C34.502 31.3429 35.5476 30.6994 36.4056 29.8683C37.907 28.3937 38.7381 26.3829 38.7381 24.238C38.7381 22.0931 37.907 20.1091 36.4056 18.6345C34.8238 17.0795 32.6521 16.2751 30.1587 16.2751C27.6653 16.2751 25.4399 17.1063 23.8581 18.6345C22.3299 20.1091 21.4987 22.0931 21.4987 24.238C21.4987 26.3829 22.3299 28.3937 23.8581 29.8683C25.4399 31.3965 27.6384 32.2276 30.105 32.2544L32.7861 35.3109C33.9122 36.5978 34.7165 36.705 36.3788 36.705C36.5397 36.705 36.7005 36.705 36.8882 36.705H37.6657V36.0884H37.5853C36.9954 35.7398 36.2715 35.1768 35.4672 34.2384M30.1319 30.8603C25.9494 30.8603 24.4748 27.2944 24.4748 24.238C24.4748 21.1815 25.9494 17.6425 30.1319 17.6425C34.3143 17.6425 35.7353 21.1815 35.7353 24.238C35.7353 27.2944 34.2607 30.8603 30.1319 30.8603Z" fill="white"/>
</svg>
