<svg width="109" height="50" viewBox="0 0 109 50" fill="none" xmlns="http://www.w3.org/2000/svg">
<g filter="url(#filter0_d_253_132)">
<path d="M8 10C8 7.23858 10.2386 5 13 5H96C98.7614 5 101 7.23858 101 10V34C101 36.7614 98.7614 39 96 39H13C10.2386 39 8 36.7614 8 34V10Z" fill="white"/>
</g>
<path d="M42.2986 26V18.95H45.4286C46.2019 18.95 46.7919 19.1367 47.1986 19.51C47.6052 19.8833 47.8086 20.3967 47.8086 21.05C47.8086 21.6967 47.6052 22.21 47.1986 22.59C46.7919 22.97 46.2019 23.16 45.4286 23.16H43.5886V26H42.2986ZM43.5886 22.14H45.2786C45.7052 22.14 46.0252 22.0467 46.2386 21.86C46.4519 21.6667 46.5586 21.3967 46.5586 21.05C46.5586 20.7033 46.4519 20.4367 46.2386 20.25C46.0252 20.0567 45.7052 19.96 45.2786 19.96H43.5886V22.14ZM50.5743 26.1C50.1343 26.1 49.7477 25.9967 49.4143 25.79C49.081 25.5767 48.821 25.2733 48.6343 24.88C48.4477 24.4867 48.3543 24.0167 48.3543 23.47C48.3543 22.9233 48.4477 22.4567 48.6343 22.07C48.821 21.6767 49.081 21.3767 49.4143 21.17C49.7477 20.9567 50.1343 20.85 50.5743 20.85C51.001 20.85 51.3743 20.9567 51.6943 21.17C52.021 21.3767 52.2377 21.6567 52.3443 22.01H52.2343L52.3443 20.95H53.5443C53.5243 21.1567 53.5043 21.3667 53.4843 21.58C53.471 21.7933 53.4643 22.0033 53.4643 22.21V26H52.2243L52.2143 24.96H52.3343C52.2277 25.3067 52.011 25.5833 51.6843 25.79C51.3577 25.9967 50.9877 26.1 50.5743 26.1ZM50.9243 25.14C51.3177 25.14 51.6343 25.0033 51.8743 24.73C52.1143 24.45 52.2343 24.03 52.2343 23.47C52.2343 22.91 52.1143 22.4933 51.8743 22.22C51.6343 21.9467 51.3177 21.81 50.9243 21.81C50.531 21.81 50.2143 21.9467 49.9743 22.22C49.7343 22.4933 49.6143 22.91 49.6143 23.47C49.6143 24.03 49.731 24.45 49.9643 24.73C50.2043 25.0033 50.5243 25.14 50.9243 25.14ZM54.8155 26V22.24C54.8155 22.0267 54.8088 21.81 54.7955 21.59C54.7888 21.37 54.7722 21.1567 54.7455 20.95H55.9555L56.0955 22.33H55.8955C55.9622 21.9967 56.0722 21.72 56.2255 21.5C56.3855 21.28 56.5788 21.1167 56.8055 21.01C57.0322 20.9033 57.2788 20.85 57.5455 20.85C57.6655 20.85 57.7622 20.8567 57.8355 20.87C57.9088 20.8767 57.9822 20.8933 58.0555 20.92L58.0455 22.02C57.9188 21.9667 57.8088 21.9333 57.7155 21.92C57.6288 21.9067 57.5188 21.9 57.3855 21.9C57.0988 21.9 56.8555 21.96 56.6555 22.08C56.4622 22.2 56.3155 22.3667 56.2155 22.58C56.1222 22.7933 56.0755 23.0367 56.0755 23.31V26H54.8155ZM61.1945 26.1C60.5945 26.1 60.1412 25.9433 59.8345 25.63C59.5278 25.3167 59.3745 24.8467 59.3745 24.22V21.89H58.4045V20.95H59.3745V19.66L60.6245 19.34V20.95H61.9745V21.89H60.6245V24.14C60.6245 24.4867 60.6912 24.73 60.8245 24.87C60.9578 25.01 61.1412 25.08 61.3745 25.08C61.5012 25.08 61.6078 25.07 61.6945 25.05C61.7878 25.03 61.8778 25.0033 61.9645 24.97V25.96C61.8512 26.0067 61.7245 26.04 61.5845 26.06C61.4512 26.0867 61.3212 26.1 61.1945 26.1ZM62.8236 26V20.95H64.0736V26H62.8236ZM62.7536 20V18.78H64.1436V20H62.7536ZM67.751 26.1C67.231 26.1 66.7743 25.9933 66.381 25.78C65.9943 25.5667 65.6943 25.2633 65.481 24.87C65.2676 24.47 65.161 23.9967 65.161 23.45C65.161 22.9033 65.2676 22.4367 65.481 22.05C65.701 21.6633 66.0043 21.3667 66.391 21.16C66.7776 20.9533 67.231 20.85 67.751 20.85C68.0843 20.85 68.4076 20.9033 68.721 21.01C69.041 21.11 69.301 21.2567 69.501 21.45L69.121 22.32C68.941 22.1533 68.7376 22.03 68.511 21.95C68.291 21.8633 68.0743 21.82 67.861 21.82C67.4143 21.82 67.0643 21.96 66.811 22.24C66.5643 22.52 66.441 22.9267 66.441 23.46C66.441 23.9933 66.5643 24.4033 66.811 24.69C67.0643 24.9767 67.4143 25.12 67.861 25.12C68.0676 25.12 68.281 25.08 68.501 25C68.7276 24.92 68.9343 24.7967 69.121 24.63L69.501 25.49C69.2943 25.6833 69.031 25.8333 68.711 25.94C68.3976 26.0467 68.0776 26.1 67.751 26.1ZM72.29 26.1C71.67 26.1 71.2067 25.93 70.9 25.59C70.5934 25.25 70.44 24.73 70.44 24.03V20.95H71.69V24.02C71.69 24.3933 71.7667 24.67 71.92 24.85C72.0734 25.0233 72.3067 25.11 72.62 25.11C72.9734 25.11 73.26 24.99 73.48 24.75C73.7067 24.51 73.82 24.1933 73.82 23.8V20.95H75.07V26H73.85V24.97H73.99C73.8434 25.33 73.62 25.61 73.32 25.81C73.0267 26.0033 72.6834 26.1 72.29 26.1ZM76.4271 26V18.64H77.6771V26H76.4271ZM80.9845 26.1C80.5445 26.1 80.1578 25.9967 79.8245 25.79C79.4912 25.5767 79.2312 25.2733 79.0445 24.88C78.8578 24.4867 78.7645 24.0167 78.7645 23.47C78.7645 22.9233 78.8578 22.4567 79.0445 22.07C79.2312 21.6767 79.4912 21.3767 79.8245 21.17C80.1578 20.9567 80.5445 20.85 80.9845 20.85C81.4112 20.85 81.7845 20.9567 82.1045 21.17C82.4312 21.3767 82.6478 21.6567 82.7545 22.01H82.6445L82.7545 20.95H83.9545C83.9345 21.1567 83.9145 21.3667 83.8945 21.58C83.8812 21.7933 83.8745 22.0033 83.8745 22.21V26H82.6345L82.6245 24.96H82.7445C82.6378 25.3067 82.4212 25.5833 82.0945 25.79C81.7678 25.9967 81.3978 26.1 80.9845 26.1ZM81.3345 25.14C81.7278 25.14 82.0445 25.0033 82.2845 24.73C82.5245 24.45 82.6445 24.03 82.6445 23.47C82.6445 22.91 82.5245 22.4933 82.2845 22.22C82.0445 21.9467 81.7278 21.81 81.3345 21.81C80.9412 21.81 80.6245 21.9467 80.3845 22.22C80.1445 22.4933 80.0245 22.91 80.0245 23.47C80.0245 24.03 80.1412 24.45 80.3745 24.73C80.6145 25.0033 80.9345 25.14 81.3345 25.14ZM85.2257 26V22.24C85.2257 22.0267 85.219 21.81 85.2057 21.59C85.199 21.37 85.1823 21.1567 85.1557 20.95H86.3657L86.5057 22.33H86.3057C86.3723 21.9967 86.4823 21.72 86.6357 21.5C86.7957 21.28 86.989 21.1167 87.2157 21.01C87.4423 20.9033 87.689 20.85 87.9557 20.85C88.0757 20.85 88.1723 20.8567 88.2457 20.87C88.319 20.8767 88.3923 20.8933 88.4657 20.92L88.4557 22.02C88.329 21.9667 88.219 21.9333 88.1257 21.92C88.039 21.9067 87.929 21.9 87.7957 21.9C87.509 21.9 87.2657 21.96 87.0657 22.08C86.8723 22.2 86.7257 22.3667 86.6257 22.58C86.5323 22.7933 86.4857 23.0367 86.4857 23.31V26H85.2257Z" fill="#6A6A6A"/>
<path d="M27.5401 28.7263C27.6624 28.5755 27.7846 28.4298 27.9511 28.3258C28.5806 27.9382 29.4337 28.2243 29.6808 28.9656C29.8707 29.5379 29.595 30.1491 29.0774 30.3936C28.5259 30.6537 27.8315 30.4924 27.5063 29.8604C27.4647 29.7772 27.4231 29.7511 27.3321 29.7407C27.0537 29.7043 26.7702 29.6705 26.4997 29.6003C26.1174 29.5014 25.7376 29.387 25.3683 29.2465C24.6426 28.9734 23.9741 28.5937 23.3577 28.1229C22.7464 27.6599 22.2106 27.1241 21.7424 26.5207C21.2144 25.834 20.8008 25.0823 20.5069 24.2708C20.3274 23.7792 20.1974 23.272 20.1116 22.7517C20.0127 22.1483 19.9789 21.5397 20.0127 20.931C20.0335 20.5513 20.0829 20.1741 20.1584 19.7996C20.252 19.3392 20.3795 18.8866 20.5433 18.447C20.6838 18.0673 20.8607 17.7031 21.0557 17.3468C21.5942 16.3662 22.3068 15.5365 23.1756 14.8368C23.8623 14.2854 24.6218 13.8562 25.4463 13.5415C25.8521 13.3854 26.2708 13.2631 26.6974 13.1773C27.0798 13.0993 27.4673 13.0525 27.8601 13.0213C28.3673 12.9796 28.8719 13.003 29.3739 13.0577C29.8941 13.1149 30.4065 13.2267 30.9085 13.3828C31.5535 13.5831 32.1648 13.8588 32.7422 14.2047C32.9191 14.3114 33.0934 14.4232 33.2572 14.5507C33.4757 14.7171 33.5173 15.0032 33.3717 15.2269C33.2182 15.4662 32.9191 15.5365 32.6694 15.3856C32.4327 15.2425 32.2012 15.0891 31.9619 14.9512C31.5978 14.7405 31.2128 14.5689 30.8122 14.444C30.4741 14.3374 30.1308 14.2411 29.7822 14.1631C29.5507 14.1111 29.3114 14.0851 29.0748 14.0695C28.5962 14.0357 28.115 14.0331 27.6338 14.0799C26.8248 14.1605 26.0523 14.3764 25.3162 14.7197C24.1822 15.2477 23.2432 16.0124 22.4941 17.0138C21.9817 17.6953 21.602 18.447 21.3523 19.2611C21.2014 19.7527 21.1104 20.2573 21.0635 20.7724C21.0141 21.3394 21.0375 21.9012 21.1078 22.463C21.1442 22.7622 21.2118 23.0587 21.2924 23.3474C21.4459 23.8962 21.6566 24.4216 21.9297 24.9236C22.4681 25.9068 23.1886 26.7287 24.0938 27.3868C24.6374 27.7848 25.233 28.0969 25.8651 28.3336C26.3879 28.5261 26.9237 28.6561 27.4751 28.7211C27.5011 28.7263 27.5193 28.7263 27.5401 28.7263ZM28.5649 28.8252C28.2684 28.8122 28.0499 29.0801 28.0473 29.3272C28.0447 29.6055 28.271 29.837 28.5519 29.8422C28.8407 29.8474 29.0774 29.6185 29.0774 29.3324C29.0747 29.1165 28.8979 28.82 28.5649 28.8252Z" fill="#0282A6"/>
<path d="M30.3571 24.8482C28.8121 25.6337 27.3555 25.5219 25.9509 24.5335C25.6596 24.6557 25.3527 24.6687 25.0484 24.5543C24.8013 24.4606 24.6036 24.2968 24.4657 24.0705C24.1874 23.6101 24.2472 23.0249 24.6244 22.6321C24.9989 22.2419 25.5998 22.1613 26.0706 22.437C26.3385 22.5931 26.5153 22.822 26.6012 23.1211C26.6844 23.4124 26.6532 23.6959 26.5362 23.969C27.5298 24.7571 29.1788 24.843 30.3571 23.8936C31.5484 22.9312 31.7642 21.3732 31.3273 20.3718C31.179 20.3718 31.0308 20.3848 30.8851 20.3692C30.4923 20.3302 30.1984 20.1273 30.0085 19.7866C29.6418 19.1233 29.9565 18.2467 30.7811 18.0595C31.5666 17.8826 32.1882 18.4782 32.2116 19.1441C32.2194 19.3834 32.183 19.6097 32.0504 19.81C32.0061 19.8776 32.0113 19.9348 32.0374 20.0024C32.2715 20.5877 32.3651 21.1937 32.2975 21.8206C32.2116 22.6113 31.9307 23.324 31.4105 23.9326C31.2779 24.0913 31.1322 24.2395 30.9891 24.3982C31.7252 25.2878 32.4613 26.1773 33.2078 27.0825C33.3665 26.9498 33.5226 26.8302 33.6708 26.7001C34.1728 26.2553 34.5994 25.7455 34.9583 25.1785C35.3251 24.5985 35.5982 23.9768 35.7829 23.3162C36.0196 22.4734 36.095 21.6125 36.0118 20.7411C35.9571 20.1637 35.8245 19.6019 35.632 19.0531C35.3615 18.2806 34.9635 17.5809 34.4511 16.9462C34.3289 16.7928 34.2847 16.6315 34.3549 16.4364C34.4537 16.1581 34.8803 16.0046 35.1326 16.309C35.3251 16.5405 35.5019 16.785 35.671 17.0347C36.0924 17.6563 36.3993 18.3352 36.623 19.0505C36.7635 19.4978 36.8493 19.9608 36.9117 20.4264C36.9871 21.0038 36.9923 21.5839 36.9403 22.1613C36.8181 23.4904 36.3863 24.7129 35.6528 25.8288C35.2757 26.401 34.8335 26.9186 34.3211 27.3738C34.0896 27.5793 33.8399 27.7666 33.5928 27.959C33.5408 28.0006 33.4757 28.0293 33.4107 28.0553C33.2156 28.1333 33.0466 28.0761 32.9139 27.9304C32.7474 27.7483 32.594 27.5533 32.4353 27.3634C31.8891 26.7053 31.3429 26.0499 30.7967 25.3918C30.6692 25.2409 30.5444 25.0875 30.4195 24.9366C30.3987 24.9054 30.3753 24.8742 30.3571 24.8482ZM25.9847 23.4462C25.9847 23.1861 25.7897 22.939 25.4723 22.939C25.207 22.939 24.9729 23.1263 24.9599 23.4488C24.9469 23.7245 25.2018 23.9638 25.4853 23.9612C25.7662 23.9586 25.9873 23.7323 25.9847 23.4462ZM30.534 19.2117C30.534 19.4952 30.755 19.7163 31.0386 19.7189C31.3195 19.7215 31.5484 19.4952 31.551 19.2143C31.5536 18.9308 31.3221 18.6993 31.036 18.6993C30.755 18.7019 30.534 18.9282 30.534 19.2117Z" fill="#47BCCA"/>
<path d="M38.3707 21.446C38.3733 21.0715 38.3525 20.6449 38.2875 20.2235C38.1392 19.269 37.8609 18.356 37.4188 17.495C37.0884 16.8552 36.6931 16.2596 36.2197 15.7185C36.1703 15.6639 36.1234 15.6067 36.0818 15.5443C35.9544 15.3492 35.996 15.0735 36.1781 14.9278C36.3913 14.7562 36.6671 14.8212 36.7997 14.9642C37.2003 15.3986 37.5488 15.8694 37.8583 16.3714C38.134 16.8162 38.3785 17.2818 38.5736 17.7682C38.7557 18.2207 38.9092 18.6863 39.0288 19.1623C39.2317 19.979 39.3123 20.8088 39.3071 21.6489C39.3045 22.1353 39.2603 22.6191 39.1823 23.0977C39.0678 23.7818 38.8779 24.445 38.623 25.0901C38.3057 25.899 37.8791 26.6481 37.3641 27.3478C37.2185 27.5455 37.0494 27.7301 36.8959 27.9226C36.7243 28.1385 36.2613 28.1515 36.1208 27.8004C36.048 27.6183 36.0766 27.444 36.2093 27.288C36.3653 27.1033 36.5188 26.916 36.6619 26.7209C37.1769 26.0187 37.5826 25.2618 37.8713 24.4398C38.0378 23.9638 38.1601 23.4748 38.2485 22.978C38.3343 22.4838 38.3707 21.9922 38.3707 21.446Z" fill="#0282A6"/>
<path d="M34.6644 21.2275C34.6566 22.0079 34.5786 22.5983 34.4121 23.1783C34.204 23.8988 33.8737 24.5543 33.4263 25.1551C33.3093 25.3112 33.1532 25.3866 32.9607 25.3476C32.7761 25.3112 32.6512 25.1967 32.594 25.0173C32.5472 24.8638 32.5888 24.7285 32.6746 24.5985C32.8203 24.38 32.9711 24.1667 33.0934 23.9378C33.3327 23.4983 33.4992 23.0301 33.6084 22.5385C33.7306 21.9844 33.7567 21.4278 33.6994 20.8712C33.6032 19.9192 33.2703 19.0505 32.7006 18.278C32.4847 17.9866 32.5888 17.6329 32.9165 17.5211C33.096 17.4612 33.2937 17.5211 33.4211 17.6797C33.6838 18.0101 33.8867 18.3768 34.0714 18.754C34.3081 19.2403 34.4693 19.7554 34.5578 20.2886C34.6202 20.6553 34.6436 21.0325 34.6644 21.2275Z" fill="#0282A6"/>
<defs>
<filter id="filter0_d_253_132" x="0" y="0" width="109" height="50" filterUnits="userSpaceOnUse" color-interpolation-filters="sRGB">
<feFlood flood-opacity="0" result="BackgroundImageFix"/>
<feColorMatrix in="SourceAlpha" type="matrix" values="0 0 0 0 0 0 0 0 0 0 0 0 0 0 0 0 0 0 127 0" result="hardAlpha"/>
<feOffset dy="3"/>
<feGaussianBlur stdDeviation="4"/>
<feComposite in2="hardAlpha" operator="out"/>
<feColorMatrix type="matrix" values="0 0 0 0 0 0 0 0 0 0 0 0 0 0 0 0 0 0 0.25 0"/>
<feBlend mode="normal" in2="BackgroundImageFix" result="effect1_dropShadow_253_132"/>
<feBlend mode="normal" in="SourceGraphic" in2="effect1_dropShadow_253_132" result="shape"/>
</filter>
</defs>
</svg>
