<svg width="151" height="81" viewBox="0 0 151 81" fill="none" xmlns="http://www.w3.org/2000/svg">
<rect x="0.549358" y="0.648479" width="149.633" height="78.9013" rx="8.24036" stroke="#3BC1CD" stroke-width="1.09872"/>
<path d="M131.533 19.0991H99.0636C96.4605 19.0991 94.3433 21.223 94.3433 23.8342V31.6886H95.5879V23.8342C95.5879 21.9117 97.1471 20.3477 99.0636 20.3477H131.533C133.449 20.3477 135.009 21.9117 135.009 23.8342V56.4056C135.009 58.3281 133.449 59.8922 131.533 59.8922H99.0636C97.1471 59.8922 95.5879 58.3281 95.5879 56.4056V49.1748H94.3433V56.4056C94.3433 59.0168 96.4605 61.1407 99.0636 61.1407H131.533C134.136 61.1407 136.253 59.0168 136.253 56.4056V23.8342C136.253 21.223 134.136 19.0991 131.533 19.0991Z" fill="#65A6DC"/>
<path d="M21.2512 34.2345H17.436V47.886H16.2194V34.2345H14.0002V33.1489H16.2194V32.118C16.2194 30.5806 16.6077 29.4357 17.3829 28.6848C18.158 27.9338 19.4293 27.5591 21.1981 27.5591V28.6448C19.791 28.6448 18.8121 28.9158 18.2628 29.4594C17.7121 30.0015 17.4375 30.8887 17.4375 32.1195V33.1503H21.2527V34.236L21.2512 34.2345Z" fill="black"/>
<path d="M22.4279 36.5141C23.0318 35.3736 23.8704 34.4968 24.9438 33.8821C26.0173 33.2675 27.2383 32.9594 28.61 32.9594C30.1617 32.9594 31.4773 33.34 32.5595 34.0998C33.6418 34.8597 34.3992 35.8283 34.8318 37.0043V33.1504H36.0499V47.8876H34.8318V44.0071C34.3992 45.2009 33.6359 46.1828 32.5463 46.9515C31.4551 47.7202 30.1425 48.1053 28.61 48.1053C27.2383 48.1053 26.0173 47.7928 24.9438 47.1693C23.8704 46.5457 23.0318 45.6585 22.4279 44.5092C21.824 43.3598 21.5214 42.0253 21.5214 40.5057C21.5214 38.9861 21.8226 37.656 22.4279 36.5156V36.5141ZM34.0345 37.0976C33.503 36.1112 32.7766 35.3514 31.8567 34.8182C30.9369 34.285 29.9093 34.0169 28.7724 34.0169C27.6355 34.0169 26.5355 34.2746 25.6334 34.79C24.7312 35.3055 24.0284 36.052 23.5235 37.0295C23.0185 38.007 22.766 39.1653 22.766 40.5027C22.766 41.8402 23.0185 42.9999 23.5235 43.9774C24.0284 44.955 24.7357 45.7059 25.6467 46.2302C26.5576 46.756 27.5986 47.0167 28.7724 47.0167C29.9462 47.0167 30.9413 46.7501 31.87 46.2154C32.7987 45.6822 33.5252 44.9224 34.0478 43.936C34.5705 42.9496 34.8333 41.8061 34.8333 40.5027C34.8333 39.1993 34.5661 38.0826 34.0345 37.0962V37.0976Z" fill="black"/>
<path d="M42.5461 33.7043C43.466 33.1341 44.6383 32.8497 46.0631 32.8497V34.1249H45.6571C44.2145 34.1249 43.0141 34.5367 42.0589 35.3602C41.1021 36.1837 40.6252 37.5271 40.6252 39.3903V47.8846H39.4071V33.1489H40.6252V36.1882C40.9855 35.1025 41.6263 34.2745 42.5461 33.7043Z" fill="black"/>
<path d="M69.3135 34.4641C70.378 35.5409 70.9096 37.1376 70.9096 39.2541V47.8846H69.7195V39.3355C69.7195 37.5804 69.3002 36.237 68.4616 35.3054C67.6229 34.3738 66.4727 33.9072 65.0125 33.9072C63.5523 33.9072 62.2795 34.433 61.3597 35.4817C60.4398 36.5318 59.9792 38.0514 59.9792 40.0406V47.8846H58.7891V39.3355C58.7891 37.5804 58.3698 36.237 57.5312 35.3054C56.6925 34.3738 55.5424 33.9072 54.0806 33.9072C52.6189 33.9072 51.3477 34.433 50.4278 35.4817C49.508 36.5318 49.0488 38.0514 49.0488 40.0406V47.8846H47.8307V33.1489H49.0488V36.3511C49.4637 35.1928 50.1355 34.3205 51.0642 33.7325C51.9929 33.1444 53.0619 32.8497 54.2711 32.8497C55.6058 32.8497 56.756 33.1978 57.7202 33.8939C58.6843 34.59 59.3472 35.6179 59.709 36.9746C60.0515 35.6179 60.7189 34.5915 61.7111 33.8939C62.7033 33.1978 63.8668 32.8497 65.2015 32.8497C66.8788 32.8497 68.249 33.3888 69.3135 34.4641Z" fill="black"/>
<path d="M74.2613 36.5141C74.8652 35.3736 75.7038 34.4968 76.7772 33.8821C77.8506 33.2675 79.0717 32.9594 80.4433 32.9594C81.9951 32.9594 83.3107 33.34 84.3929 34.0998C85.4752 34.8597 86.2326 35.8283 86.6652 37.0043V33.1504H87.8833V47.8876H86.6652V44.0071C86.2326 45.2009 85.4693 46.1828 84.3796 46.9515C83.2885 47.7202 81.9759 48.1053 80.4433 48.1053C79.0717 48.1053 77.8506 47.7928 76.7772 47.1693C75.7038 46.5457 74.8652 45.6585 74.2613 44.5092C73.6574 43.3598 73.3547 42.0253 73.3547 40.5057C73.3547 38.9861 73.6559 37.656 74.2613 36.5156V36.5141ZM85.8679 37.0976C85.3364 36.1112 84.61 35.3514 83.6901 34.8182C82.7703 34.285 81.7426 34.0169 80.6057 34.0169C79.4688 34.0169 78.3689 34.2746 77.4667 34.79C76.5646 35.3055 75.8618 36.052 75.3568 37.0295C74.8519 38.007 74.5994 39.1653 74.5994 40.5027C74.5994 41.8402 74.8519 42.9999 75.3568 43.9774C75.8618 44.955 76.569 45.7059 77.48 46.2302C78.391 46.756 79.4319 47.0167 80.6057 47.0167C81.7795 47.0167 82.7747 46.7501 83.7034 46.2154C84.6321 45.6822 85.3585 44.9224 85.8812 43.936C86.4039 42.9496 86.6667 41.8061 86.6667 40.5027C86.6667 39.1993 86.3995 38.0826 85.8679 37.0962V37.0976Z" fill="black"/>
<path d="M91.1524 46.8539H99.431V47.8848H89.7999V46.8539L97.863 34.18H89.9904V33.1491H99.2435V34.18L91.1539 46.8539H91.1524Z" fill="black"/>
<path d="M103.333 47.1529C102.152 46.5189 101.223 45.6155 100.547 44.4394C99.8707 43.2634 99.5326 41.889 99.5326 40.3145C99.5326 38.7401 99.8751 37.3878 100.56 36.2029C101.245 35.018 102.184 34.1086 103.374 33.4747C104.564 32.8408 105.899 32.5253 107.379 32.5253C108.858 32.5253 110.193 32.8423 111.383 33.4747C112.573 34.1086 113.51 35.018 114.197 36.2029C114.882 37.3878 115.225 38.7593 115.225 40.3145C115.225 41.8697 114.878 43.2412 114.182 44.4261C113.488 45.611 112.54 46.5204 111.342 47.1543C110.141 47.7883 108.802 48.1037 107.324 48.1037C105.846 48.1037 104.514 47.7868 103.333 47.1543V47.1529ZM109.583 43.1094C110.205 42.4577 110.516 41.5261 110.516 40.3145C110.516 39.103 110.213 38.1699 109.61 37.5196C109.006 36.868 108.262 36.5421 107.377 36.5421C106.493 36.5421 105.726 36.8635 105.131 37.5048C104.536 38.1476 104.238 39.0837 104.238 40.3145C104.238 41.5453 104.53 42.4592 105.118 43.1094C105.704 43.7611 106.44 44.0869 107.323 44.0869C108.205 44.0869 108.96 43.7611 109.582 43.1094H109.583Z" fill="#65A6DC"/>
<path d="M130.1 34.3014C131.155 35.4508 131.682 37.0297 131.682 39.0381V47.8863H127.083V39.6631C127.083 38.65 126.822 37.8635 126.299 37.3022C125.775 36.7408 125.072 36.4609 124.189 36.4609C123.306 36.4609 122.602 36.7423 122.079 37.3022C121.557 37.8635 121.295 38.65 121.295 39.6631V47.8863H116.669V32.7418H121.295V34.7502C121.763 34.0807 122.395 33.552 123.19 33.1624C123.984 32.7729 124.876 32.5789 125.868 32.5789C127.635 32.5789 129.047 33.1536 130.102 34.3029L130.1 34.3014Z" fill="#65A6DC"/>
</svg>
