<svg width="19" height="14" viewBox="0 0 19 14" fill="none" xmlns="http://www.w3.org/2000/svg">
<path d="M14 7C14 9.21875 12.1875 11 10 11C7.78125 11 6 9.21875 6 7C6 4.8125 7.78125 3 10 3C12.1875 3 14 4.8125 14 7ZM10 4C8.3125 4 7 5.34375 7 7C7 8.65625 8.3125 10 10 10C11.6562 10 13 8.65625 13 7C13 5.34375 11.6562 4 10 4ZM16 2.53125C17.4688 3.875 18.4375 5.5 18.9062 6.625C19 6.875 19 7.15625 18.9062 7.40625C18.4375 8.5 17.4688 10.125 16 11.5C14.5312 12.875 12.5 14 10 14C7.46875 14 5.4375 12.875 3.96875 11.5C2.5 10.125 1.53125 8.5 1.0625 7.40625C0.96875 7.15625 0.96875 6.875 1.0625 6.625C1.53125 5.5 2.5 3.875 3.96875 2.53125C5.4375 1.15625 7.46875 0 10 0C12.5 0 14.5312 1.15625 16 2.53125ZM2 7C2.40625 8 3.3125 9.5 4.65625 10.75C6 12 7.78125 13 10 13C12.1875 13 13.9688 12 15.3125 10.75C16.6562 9.5 17.5625 8 18 7C17.5625 6 16.6562 4.5 15.3125 3.25C13.9688 2 12.1875 1 10 1C7.78125 1 6 2 4.65625 3.25C3.3125 4.5 2.40625 6 2 7Z" fill="#0282A6"/>
</svg>
