<svg width="52" height="52" viewBox="0 0 52 52" fill="none" xmlns="http://www.w3.org/2000/svg">
<path d="M15.5 11C19.3125 11 22.5 14.1875 22.5 18V31.9375C22.5 35.75 19.3125 38.875 15.5 38.875C11.625 38.875 8.5 35.75 8.5 31.9375V18C8.5 14.1875 11.625 11 15.5 11ZM20.5 32V27H10.5V32C10.5 34.8125 12.6875 37 15.5 37C18.25 37 20.5 34.8125 20.5 32ZM20.5 25V18C20.5 15.25 18.25 13 15.5 13C12.6875 13 10.5 15.25 10.5 18V25H20.5ZM34.5 19C40 19 44.5 23.5 44.5 29C44.5 34.5625 40 39 34.5 39C28.9375 39 24.5 34.5625 24.5 29C24.5 23.5 28.9375 19 34.5 19ZM34.5 37C36.3125 37 38 36.375 39.3125 35.3125L28.1875 24.125C27.125 25.5 26.5 27.1875 26.5 29C26.5 33.4375 30.0625 37 34.5 37ZM40.75 33.9375C41.8125 32.5625 42.5 30.875 42.5 29C42.5 24.625 38.875 21 34.5 21C32.625 21 30.9375 21.6875 29.5625 22.75L40.75 33.9375Z" fill="#0282A6"/>
</svg>
