<svg width="29" height="36" viewBox="0 0 29 36" fill="none" xmlns="http://www.w3.org/2000/svg">
<path d="M9 17C13.4183 17 17 13.4183 17 9C17 4.58172 13.4183 1 9 1C4.58172 1 1 4.58172 1 9C1 13.4183 4.58172 17 9 17Z" stroke="#FF7D41" stroke-width="1.5" stroke-linecap="round" stroke-linejoin="round"/>
<path d="M8.02465 9.63186L11.4985 28.2077C11.6839 29.1919 12.8341 29.6596 13.6627 29.0857L18.3707 25.8205L25.1532 35.4125C25.5936 36.0352 26.4599 36.1872 27.0886 35.7511L27.726 35.3092L28.4068 34.8387C29.0355 34.4025 29.1891 33.5446 28.7487 32.922L21.9662 23.3299L26.6279 20.0962C27.4565 19.5223 27.4073 18.2914 26.5352 17.7835L10.0962 8.19434C9.07055 7.59465 7.80735 8.46979 8.02465 9.63186Z" fill="#FF7D41"/>
</svg>
