<svg width="41" height="48" viewBox="0 0 41 48" fill="none" xmlns="http://www.w3.org/2000/svg">
<g clip-path="url(#clip0_1_681)">
<path d="M40.8449 4.69517C40.8154 4.19434 40.3382 3.83558 39.8365 3.92707C39.561 3.97764 39.2831 4.02579 39.0076 4.06913C37.3425 4.33159 35.6578 4.46883 33.9706 4.45198C32.5588 4.43512 31.1421 4.31232 29.7525 4.0595C28.5916 3.84761 27.4479 3.54664 26.3387 3.15416C25.4361 2.83151 24.558 2.44867 23.7144 2.00081C23.0774 1.6589 22.4576 1.28087 21.8698 0.861911C21.6533 0.705402 21.4394 0.546486 21.2352 0.377938C21.0335 0.219021 20.8417 0.0143563 20.5662 -9.06477e-05C20.3104 -0.0121298 20.0817 0.139563 19.8923 0.291256C19.5554 0.556117 19.216 0.816162 18.8643 1.05935C18.2322 1.48554 17.573 1.87079 16.8893 2.21029C16.0063 2.65333 15.0889 3.02655 14.1494 3.33234C13.0008 3.70796 11.8202 3.98245 10.6274 4.16545C9.19839 4.38456 7.7522 4.47365 6.30601 4.44957C4.58681 4.42308 2.87008 4.23768 1.17793 3.92707C0.673734 3.83558 0.199049 4.19193 0.167076 4.69517C-0.10593 9.06296 -0.814268 27.3239 5.74278 35.3612C12.6442 43.8127 18.6134 47.1716 20.1334 47.9132C20.3719 48.0264 20.6449 48.0288 20.8835 47.9156C22.4133 47.1861 28.4194 43.8633 35.2716 35.3612C41.777 27.2878 41.1081 9.06296 40.8449 4.69517ZM30.6724 24.839C30.6724 25.5951 30.0403 26.2139 29.2655 26.2139H23.1635V32.1877C23.1635 32.9462 22.5314 33.565 21.7591 33.565H19.2406C18.4683 33.565 17.8362 32.9462 17.8362 32.1877V26.2139H11.7341C10.9619 26.2139 10.3298 25.5951 10.3298 24.839V22.3734C10.3298 21.6174 10.9619 20.9986 11.7341 20.9986H17.8362V15.0247C17.8362 14.2687 18.4683 13.6475 19.2406 13.6475H21.7591C22.5314 13.6475 23.1635 14.2687 23.1635 15.0247V20.9986H29.2655C30.0403 20.9986 30.6724 21.6174 30.6724 22.3734V24.839Z" fill="#FF7D41"/>
</g>
<defs>
<clipPath id="clip0_1_681">
<rect width="41" height="48" fill="white"/>
</clipPath>
</defs>
</svg>
