<svg width="25" height="31" viewBox="0 0 25 31" fill="none" xmlns="http://www.w3.org/2000/svg">
<path fill-rule="evenodd" clip-rule="evenodd" d="M7.86178 1.07919C8.12681 1.28363 8.24314 1.75539 8.50485 2.46929C8.76609 3.18712 10.0236 6.70881 10.1779 7.35631C10.3324 8.00184 10.3925 8.47095 9.6579 8.83864C8.92284 9.21025 7.23505 10.3262 6.73377 10.6695C6.23095 11.0087 6.13067 11.3972 6.39215 12.1131C6.65339 12.8309 7.11848 15.0983 9.13354 17.9543C10.7056 20.1766 12.7749 21.7982 13.4101 22.2752C14.0458 22.7483 14.4543 22.4379 14.8348 22.142C15.1777 21.8737 15.7101 21.5579 16.1466 21.2667C16.5853 20.9737 16.8856 20.8955 17.3668 20.7231C17.848 20.5507 18.2316 20.7093 18.5525 20.9203C18.8738 21.1274 22.0681 22.8773 23.3676 23.6017C24.6613 24.3235 24.5449 24.8834 24.4983 25.2802C24.4516 25.677 24.2465 26.3898 24.2465 26.3898C24.2465 26.3898 23.9173 27.7273 23.1626 28.2659C22.4079 28.8045 20.5533 30.3589 17.2016 29.9646C13.8499 29.5704 10.8907 26.7667 10.4781 26.3736C10.0614 25.9801 3.4656 20.8048 1.54734 13.6026C-0.371149 6.40232 0.53807 6.50926 0.799743 5.28134C1.0572 4.05492 2.91759 1.47155 4.57702 1.09514C6.23446 0.718501 7.60028 0.879147 7.86377 1.07943L7.86178 1.07919Z" fill="#FF7D41"/>
</svg>
