<svg width="44" height="34" viewBox="0 0 44 34" fill="none" xmlns="http://www.w3.org/2000/svg">
<path d="M27.8313 18.3887L27.8313 18.3887L27.8279 18.3916C27.6146 18.57 27.3753 18.7792 27.1157 19.0061C26.5071 19.538 25.7871 20.1674 25.0303 20.7259C24.4935 21.122 23.9491 21.4738 23.4284 21.7207C22.905 21.969 22.4249 22.1019 22.011 22.0836L22.0002 22.0831L21.9894 22.0836C21.5531 22.102 21.0565 21.9679 20.5223 21.7199C19.9904 21.4729 19.4386 21.1212 18.8971 20.7253C18.125 20.1608 17.3951 19.5235 16.7816 18.9878C16.5298 18.7679 16.2976 18.5652 16.0901 18.3916L16.0901 18.3916L16.0866 18.3887C8.25992 12.0772 5.59552 9.8803 3.875 8.3861V5C3.875 4.45747 4.35082 3.91667 4.9375 3.91667H39.0625C39.3079 3.91667 39.5753 4.04394 39.7867 4.25871C39.9979 4.47324 40.125 4.74659 40.125 5V8.3827C38.3236 9.87947 35.6562 12.0786 27.8313 18.3887ZM39.0625 0.75H4.9375C2.57754 0.75 0.75 2.70242 0.75 5V29C0.75 31.3843 2.58089 33.25 4.9375 33.25H39.0625C41.3337 33.25 43.25 31.3878 43.25 29V5C43.25 2.69899 41.3371 0.75 39.0625 0.75ZM39.0625 30.0833H4.9375C4.34099 30.0833 3.875 29.6157 3.875 29V12.4658C5.71656 14.0574 8.65754 16.4584 14.1313 20.8606C14.3665 21.0541 14.6291 21.2811 14.9145 21.5281C15.6518 22.1657 16.5421 22.9358 17.5107 23.6018C18.8549 24.5262 20.4041 25.2916 21.9999 25.2501C23.5562 25.2916 25.0856 24.5249 26.4183 23.6013C27.3721 22.9403 28.2546 22.1764 28.9881 21.5415C29.2794 21.2894 29.5473 21.0575 29.7867 20.8606C35.2811 16.4418 38.2212 14.0412 40.125 12.4519V29C40.125 29.6057 39.587 30.0833 39.0625 30.0833Z" fill="#FF7D41" stroke="#FF7D41" stroke-width="0.5"/>
</svg>
