<svg width="48" height="48" viewBox="0 0 48 48" fill="none" xmlns="http://www.w3.org/2000/svg">
<path d="M40.4531 7.08594C36.1289 2.65625 30.2227 0.125 23.8945 0.125C11.0273 0.125 0.480469 10.6719 0.480469 23.5391C0.480469 27.7578 1.64062 31.7656 3.64453 35.2461L0.375 47.375L12.7148 44.2109C16.1953 46.0039 19.9922 47.0586 23.8945 47.0586C36.8672 47.0586 47.625 36.5117 47.625 23.6445C47.625 17.3164 44.8828 11.5156 40.4531 7.08594ZM23.8945 43.0508C20.4141 43.0508 17.0391 42.1016 13.9805 40.3086L13.3477 39.8867L5.96484 41.8906L7.96875 34.7188L7.44141 33.9805C5.54297 30.8164 4.48828 27.2305 4.48828 23.5391C4.48828 12.8867 13.2422 4.13281 24 4.13281C29.168 4.13281 34.0195 6.13672 37.7109 9.82812C41.4023 13.5195 43.6172 18.3711 43.6172 23.6445C43.6172 34.2969 34.6523 43.0508 23.8945 43.0508ZM34.6523 28.4961C34.0195 28.1797 31.1719 26.8086 30.6445 26.5977C30.1172 26.3867 29.6953 26.2812 29.2734 26.9141C28.957 27.4414 27.7969 28.8125 27.4805 29.2344C27.0586 29.5508 26.7422 29.6562 26.2148 29.3398C22.7344 27.6523 20.5195 26.2812 18.1992 22.3789C17.5664 21.3242 18.832 21.4297 19.8867 19.2148C20.0977 18.793 19.9922 18.4766 19.8867 18.1602C19.7812 17.8438 18.5156 14.9961 18.0938 13.8359C17.5664 12.6758 17.1445 12.7812 16.7227 12.7812C16.4062 12.7812 15.9844 12.7812 15.668 12.7812C15.2461 12.7812 14.6133 12.8867 14.0859 13.5195C13.5586 14.1523 12.082 15.5234 12.082 18.3711C12.082 21.3242 14.0859 24.0664 14.4023 24.4883C14.7188 24.8047 18.5156 30.7109 24.4219 33.2422C28.1133 34.9297 29.5898 35.0352 31.4883 34.7188C32.543 34.6133 34.8633 33.3477 35.3906 31.9766C35.918 30.6055 35.918 29.4453 35.707 29.2344C35.6016 28.918 35.1797 28.8125 34.6523 28.4961Z" fill="#FF7D41"/>
</svg>
