<svg width="60" height="52" viewBox="0 0 60 52" fill="none" xmlns="http://www.w3.org/2000/svg">
<path fill-rule="evenodd" clip-rule="evenodd" d="M25.5362 45.4545C31.7776 51.1145 40.4577 52.7613 49.1366 49.1166L56.5768 52.0003L55.412 45.1023C62.3343 39.1374 60.7276 30.849 55.2022 25.0157C54.7698 27.2712 53.9741 29.4123 52.8655 31.3987C51.205 34.3748 48.8272 37.0194 45.9151 39.1963C43.0944 41.3062 39.8015 42.9623 36.212 44.0317C32.912 45.0145 29.3085 45.5226 25.5362 45.4545ZM15.4722 26.1429C14.5698 26.1429 13.8374 25.4211 13.8374 24.5319C13.8374 23.6426 14.5698 22.9208 15.4722 22.9208H30.0175C30.9198 22.9208 31.6511 23.6426 31.6511 24.5319C31.6511 25.4211 30.9198 26.1429 30.0175 26.1429H15.4722ZM15.4722 17.896C14.5698 17.896 13.8374 17.1742 13.8374 16.285C13.8374 15.3946 14.5698 14.674 15.4722 14.674H36.2554C37.1577 14.674 37.889 15.3946 37.889 16.285C37.889 17.1742 37.1577 17.896 36.2554 17.896H15.4722ZM26.4995 0.0141234L26.5241 0.0152783C33.594 0.225463 39.9362 2.70264 44.4761 6.5391C49.1132 10.4564 51.894 15.7895 51.7206 21.6112L51.7194 21.6378C51.5366 27.4629 48.4323 32.6286 43.5608 36.271C38.7866 39.8419 32.2968 41.9483 25.228 41.7439C23.4175 41.6908 21.6573 41.5083 19.9792 41.1873C18.5202 40.9078 17.1081 40.5232 15.7604 40.0267L3.30107 43.7765L7.03349 35.0284C4.90068 33.1818 3.17333 31.0326 1.9663 28.6755C0.619816 26.0436 -0.084481 23.153 0.00809713 20.133C0.186222 14.3021 3.29169 9.13176 8.16552 5.48702C12.9421 1.91618 19.4308 -0.190287 26.4995 0.0141234ZM26.4351 3.21309L26.4104 3.21194C20.0964 3.02947 14.3354 4.88534 10.1261 8.03234C6.0163 11.1054 3.40068 15.4119 3.25302 20.2208C3.17685 22.691 3.7581 25.0642 4.86786 27.2331C6.04091 29.522 7.79989 31.5869 9.9995 33.3054L10.9675 34.0606L8.97646 38.7251L15.9046 36.6394L16.4319 36.8485C17.7386 37.3659 19.1319 37.7608 20.5897 38.0391C22.1214 38.3336 23.7058 38.4988 25.3171 38.5461C31.6311 38.7286 37.3921 36.8727 41.6015 33.7257C45.7112 30.6526 48.3268 26.3461 48.4745 21.5373V21.5119C48.614 16.7111 46.269 12.2718 42.3632 8.97124C38.3577 5.58749 32.7315 3.40018 26.4351 3.21309Z" fill="#0069B9"/>
</svg>
