<svg width="57" height="52" viewBox="0 0 57 52" fill="none" xmlns="http://www.w3.org/2000/svg">
<g clip-path="url(#clip0_1_514)">
<path d="M7.10181 40.3172C7.20686 41.0507 7.39836 41.7694 7.67236 42.4585C7.95728 43.1925 8.39153 43.8603 8.948 44.4203C10.7478 46.1932 13.0857 46.1886 15.6462 46.1886H16.8616C17.9146 44.6827 20.387 43.6282 23.2629 43.6282C27.0991 43.6282 30.2209 45.5024 30.2209 47.8188C30.2209 50.1351 27.1084 52.0093 23.2629 52.0093C20.4473 52.0093 18.0212 50.9962 16.9312 49.541H15.6462C12.3621 49.541 9.36084 49.541 6.57764 46.8057C5.69513 45.9241 5.0037 44.8725 4.5459 43.7157C4.1166 42.6247 3.8358 41.4818 3.71094 40.3172C2.7199 40.2932 1.77746 39.886 1.08432 39.1824C0.391182 38.4788 0.00212303 37.5344 0 36.5503L0 22.9654C0.00244969 21.9671 0.403006 21.0104 1.11407 20.3045C1.82513 19.5986 2.78884 19.2009 3.79443 19.1985H4.06348C4.75 12.2219 9.16602 6.76493 15.136 3.49996C18.6772 1.5751 22.5878 0.41389 26.6121 0.0922368C30.7018 -0.262569 34.8192 0.315506 38.6494 1.78228C45.3523 4.41176 50.9697 9.99766 53.1453 19.1985H53.2056C54.2112 19.2009 55.1749 19.5986 55.8859 20.3045C56.597 21.0104 56.9975 21.9671 57 22.9654V36.5503C56.9975 37.5486 56.597 38.5053 55.8859 39.2112C55.1749 39.9171 54.2112 40.3147 53.2056 40.3172H49.4111V19.5301C47.4675 11.9732 42.8103 7.36818 37.2856 5.21303C33.9817 3.95082 30.4306 3.45619 26.9043 3.76705C23.4098 4.04016 20.0128 5.04292 16.9358 6.70966C11.7683 9.55557 7.99707 14.2757 7.69092 20.2853C7.68325 20.4658 7.64887 20.6443 7.58887 20.8149V40.3172H7.10181Z" fill="#0069B9"/>
</g>
<defs>
<clipPath id="clip0_1_514">
<rect width="57" height="52" fill="white"/>
</clipPath>
</defs>
</svg>
