<svg width="46" height="46" viewBox="0 0 46 46" fill="none" xmlns="http://www.w3.org/2000/svg">
<g clip-path="url(#clip0_1_546)">
<path d="M45.7272 37.3706L34.4963 26.1398C34.1384 25.7819 33.5581 25.7819 33.2003 26.1398L28.9629 30.3772C26.8081 28.5259 24.49 26.3617 22.0621 23.9337C19.6348 21.5063 17.4711 19.1879 15.6202 17.0311L19.8559 12.7954C20.2138 12.4374 20.2138 11.8572 19.8559 11.4994L8.62503 0.268363C8.45325 0.096582 8.22019 0 7.97707 0C7.73396 0 7.5009 0.096582 7.32903 0.268363L0.460207 7.13737C0.406571 7.191 0.359852 7.25111 0.32104 7.31616C0.157883 7.59 -0.577308 9.14214 0.978875 12.8179C2.95463 17.4849 7.68904 23.5838 15.0504 30.9452C22.4398 38.3346 28.5475 43.0776 33.2038 45.0423C34.9724 45.7885 36.2466 46 37.1231 46C38.0682 45.9999 38.551 45.7539 38.692 45.667C38.7523 45.6298 38.8082 45.5856 38.8583 45.5354L45.7272 38.6666C46.085 38.3087 46.085 37.7284 45.7272 37.3706ZM37.6964 44.1053C36.99 44.2856 31.6317 44.9346 16.3464 29.6492C1.13817 14.441 1.71883 9.02651 1.89564 8.29375L7.97707 2.21231L17.912 12.1472L13.7266 16.3326C13.3903 16.669 13.3673 17.2068 13.6735 17.5708C15.6734 19.9465 18.0597 22.5232 20.766 25.2295C23.4731 27.9366 26.049 30.3233 28.4223 32.3236C28.7861 32.6303 29.3242 32.6074 29.6609 32.2708L33.8482 28.0834L43.7832 38.0185L37.6964 44.1053Z" fill="#0069B6"/>
<path d="M43.2967 8.05587H37.9443V2.70352C37.9443 2.19743 37.5341 1.78711 37.0279 1.78711H30.3218C29.8157 1.78711 29.4054 2.19734 29.4054 2.70352V8.05587H24.053C23.5469 8.05587 23.1367 8.46609 23.1367 8.97227V15.6784C23.1367 16.1845 23.5469 16.5948 24.053 16.5948H29.4054V21.9471C29.4054 22.4532 29.8156 22.8635 30.3218 22.8635H37.0279C37.534 22.8635 37.9443 22.4532 37.9443 21.9471V16.5948H43.2967C43.8028 16.5948 44.2131 16.1846 44.2131 15.6784V8.97218C44.2131 8.46609 43.8028 8.05587 43.2967 8.05587ZM42.3803 14.762H37.0279C36.5218 14.762 36.1115 15.1722 36.1115 15.6783V21.0307H31.2381V15.6783C31.2381 15.1722 30.8279 14.762 30.3218 14.762H24.9694V9.88859H30.3218C30.8279 9.88859 31.2381 9.47836 31.2381 8.97218V3.61983H36.1115V8.97218C36.1115 9.47827 36.5217 9.88859 37.0279 9.88859H42.3803V14.762Z" fill="#0069B6"/>
<path d="M14.0259 9.79828L13.5678 9.34016C13.2099 8.98232 12.6297 8.98232 12.2718 9.34016C11.914 9.6981 11.914 10.2783 12.2718 10.6362L12.7299 11.0943C12.9088 11.2732 13.1434 11.3626 13.3779 11.3626C13.6124 11.3626 13.8469 11.2732 14.0259 11.0943C14.3838 10.7364 14.3838 10.1561 14.0259 9.79828Z" fill="#0069B6"/>
<path d="M11.4597 7.23272L8.61907 4.39195C8.26113 4.03411 7.68092 4.03402 7.32307 4.39195C6.96523 4.74989 6.96523 5.3301 7.32307 5.68795L10.1638 8.52863C10.3426 8.7076 10.5772 8.79699 10.8117 8.79699C11.0462 8.79699 11.2807 8.7076 11.4597 8.52863C11.8176 8.17078 11.8176 7.59057 11.4597 7.23272Z" fill="#0069B6"/>
</g>
<defs>
<clipPath id="clip0_1_546">
<rect width="46" height="46" fill="white"/>
</clipPath>
</defs>
</svg>
