<svg width="47" height="59" viewBox="0 0 47 59" fill="none" xmlns="http://www.w3.org/2000/svg">
<g clip-path="url(#clip0_1_570)">
<path fill-rule="evenodd" clip-rule="evenodd" d="M3.1266 6.24186H10.6313V10.1598H6.28216C5.58428 10.1673 4.91702 10.4458 4.42306 10.9356C3.9291 11.4255 3.64763 12.088 3.63884 12.7814V52.5085C3.64516 53.2026 3.92583 53.8665 4.42033 54.357C4.91482 54.8474 5.5835 55.125 6.28216 55.13H40.7469C41.4459 55.1275 42.1155 54.8505 42.6098 54.3594C43.104 53.8683 43.3828 53.203 43.3854 52.5085V12.7622C43.3791 12.0689 43.0991 11.4057 42.6056 10.9154C42.1122 10.4251 41.4447 10.1469 40.7469 10.1406H36.3977V6.24186H43.8735C44.7015 6.24565 45.4945 6.57416 46.0801 7.15593C46.6656 7.7377 46.9962 8.52565 47 9.34839V55.9223C46.995 56.7446 46.6639 57.5319 46.0787 58.1134C45.4934 58.6949 44.7011 59.0238 43.8735 59.0288H3.1266C2.71411 59.0269 2.30603 58.9443 1.92567 58.7857C1.5453 58.6272 1.2001 58.3957 0.909769 58.1045C0.61944 57.8134 0.389669 57.4683 0.233576 57.0889C0.0774833 56.7095 -0.00187459 56.3033 3.36121e-05 55.8935V9.31958C0.0101803 8.50147 0.343755 7.72014 0.928731 7.1443C1.51371 6.56846 2.30315 6.24432 3.1266 6.24186ZM9.18161 16.6562H20.0739V18.8168H9.18161V16.6562ZM9.18161 22.4707H16.3336V24.6313H9.18161V22.4707ZM32.6526 15.1197H34.7644C34.8598 15.1197 34.9542 15.1385 35.0422 15.1751C35.1302 15.2116 35.21 15.2652 35.277 15.3326C35.344 15.4001 35.3968 15.4801 35.4324 15.568C35.468 15.6559 35.4857 15.75 35.4844 15.8447V18.5095H38.1761C38.362 18.5119 38.5399 18.5858 38.6723 18.7155C38.8047 18.8453 38.8814 19.021 38.8864 19.2057V21.3088C38.8852 21.4965 38.8103 21.6763 38.6776 21.8099C38.5449 21.9435 38.3649 22.0204 38.1761 22.0242H35.4844V24.6313C35.4831 24.8203 35.4067 25.001 35.2718 25.1341C35.1369 25.2673 34.9545 25.342 34.7644 25.342H32.6526C32.4625 25.342 32.2801 25.2673 32.1452 25.1341C32.0103 25.001 31.9339 24.8203 31.9326 24.6313V22.0242H29.2506C29.0609 22.0242 28.879 21.9493 28.7449 21.816C28.6108 21.6828 28.5354 21.502 28.5354 21.3136V19.2057C28.5354 19.0173 28.6108 18.8365 28.7449 18.7033C28.879 18.57 29.0609 18.4951 29.2506 18.4951H31.9326V15.8447C31.9326 15.655 32.0084 15.473 32.1435 15.3389C32.2785 15.2047 32.4617 15.1293 32.6526 15.1293V15.1197ZM9.18161 47.7695H31.9906V49.9349H9.18161V47.7743V47.7695ZM9.18161 41.2539H38.9009V43.4146H9.18161V41.2539ZM9.18161 33.7973H17.0294L19.088 30.9548L21.6106 34.5703L24.3747 29.2071L27.3563 35.0024L28.7094 34.0133L29.3521 33.7973H38.8816V35.9579H29.7L26.5783 38.2482L24.365 33.9269L21.8812 38.7284L19.0494 34.6759L18.1264 35.9483H9.18161V33.7877V33.7973ZM14.9805 4.32129H18.5227C18.6397 3.15967 19.1787 2.0802 20.0387 1.28484C20.8988 0.489485 22.0211 0.0327193 23.1956 0C24.3682 0.0271407 25.4909 0.47712 26.3542 1.26603C27.2176 2.05493 27.7627 3.12891 27.8879 4.28768L32.0389 4.32129C32.1773 4.32129 32.3101 4.37592 32.4079 4.47317C32.5058 4.57042 32.5608 4.70231 32.5608 4.83984V9.82853C32.5608 9.96606 32.5058 10.098 32.4079 10.1952C32.3101 10.2925 32.1773 10.3471 32.0389 10.3471H14.9805C14.8421 10.3471 14.7093 10.2925 14.6115 10.1952C14.5136 10.098 14.4586 9.96606 14.4586 9.82853V4.85905C14.4546 4.78901 14.4652 4.71891 14.4897 4.65314C14.5143 4.58737 14.5523 4.52735 14.6013 4.47685C14.6503 4.42636 14.7093 4.38647 14.7745 4.3597C14.8398 4.33293 14.9099 4.31985 14.9805 4.32129ZM21.2626 6.44832C21.5881 6.90946 22.023 7.2838 22.5287 7.53825C22.932 7.64864 23.3577 7.64864 23.761 7.53825C24.4095 7.18903 24.9279 6.64198 25.2397 5.97778C25.2713 5.8067 25.2874 5.63316 25.288 5.45923C25.3076 5.17175 25.2675 4.88334 25.1703 4.61189C25.073 4.34044 24.9206 4.09174 24.7226 3.88123C24.5246 3.67072 24.2852 3.50288 24.0192 3.38813C23.7532 3.27338 23.4663 3.21417 23.1763 3.21417C22.8863 3.21417 22.5994 3.27338 22.3334 3.38813C22.0673 3.50288 21.8279 3.67072 21.6299 3.88123C21.4319 4.09174 21.2795 4.34044 21.1823 4.61189C21.085 4.88334 21.0449 5.17175 21.0645 5.45923C21.0634 5.78946 21.1308 6.11637 21.2626 6.41952V6.44832Z" fill="#0069B9"/>
</g>
<defs>
<clipPath id="clip0_1_570">
<rect width="47" height="59" fill="white"/>
</clipPath>
</defs>
</svg>
