<svg width="55" height="55" viewBox="0 0 55 55" fill="none" xmlns="http://www.w3.org/2000/svg">
<path d="M37.4894 52.4526C36.1255 52.4526 35.1492 52.3315 34.1155 52.2033C33.5313 52.1309 32.9272 52.0559 32.2083 51.9975C31.9869 51.9797 31.7372 51.9704 31.4675 51.9704C30.5768 51.9704 29.5532 52.0682 28.5626 52.163C27.5445 52.26 26.5831 52.3518 25.7089 52.3518C16.7888 52.3518 10.8706 40.8245 10.8706 33.1994C10.8706 22.6317 20.1027 14.0342 31.4506 14.0342C42.7968 14.0342 52.0272 22.6321 52.0272 33.1998C52.0272 39.703 47.6372 52.4526 37.4894 52.4526ZM31.4675 49.4537C31.81 49.4537 32.119 49.4651 32.412 49.4888C33.1841 49.5515 33.8149 49.6298 34.4249 49.7056C35.421 49.8292 36.2812 49.9359 37.4894 49.9359C46.0518 49.9359 49.5104 38.1249 49.5104 33.1994C49.5104 24.0194 41.4087 16.5505 31.4501 16.5505C21.4899 16.5505 13.3873 24.0189 13.3873 33.1989C13.3873 36.5479 14.7814 40.816 16.9399 44.0723C18.3662 46.2245 21.4019 49.8347 25.7089 49.8347C26.4633 49.8347 27.3667 49.7483 28.3234 49.6573C29.372 49.5574 30.457 49.4537 31.4675 49.4537Z" fill="#0069B6"/>
<path d="M30.7863 24.7397C30.6233 24.7397 30.4599 24.7338 30.2969 24.7219C26.8963 24.4751 24.7876 21.6959 24.6991 21.5774C24.2839 21.0203 24.399 20.232 24.9561 19.8163C25.5119 19.4023 26.2977 19.5153 26.7138 20.0691C26.7447 20.1093 28.2649 22.0613 30.4984 22.2124C32.0355 22.317 33.6315 21.5503 35.2465 19.9353C35.7384 19.4442 36.5347 19.4446 37.0262 19.9353C37.5177 20.4268 37.5177 21.2235 37.0262 21.715C35.0175 23.7241 32.9207 24.7397 30.7863 24.7397Z" fill="#0069B6"/>
<path d="M30.1519 24.0689C29.7061 24.0689 29.2752 23.8315 29.0474 23.4124C29.0004 23.326 27.8976 21.2639 27.7211 18.2887C27.5581 15.543 28.1719 11.4536 32.0201 7.564C32.509 7.06997 33.3057 7.06616 33.7998 7.55511C34.2938 8.04363 34.298 8.84077 33.8091 9.33438C27.7609 15.4465 31.1154 21.9421 31.2614 22.2156C31.5874 22.8273 31.3584 23.5897 30.7479 23.9178C30.5583 24.0203 30.3534 24.0689 30.1519 24.0689Z" fill="#0069B6"/>
<path d="M25.2975 18.2513C22.2525 18.2513 19.5859 17.1044 17.7893 15.0229C15.2696 12.104 14.8683 7.73352 16.7411 3.6166L16.9811 3.08912L17.5382 2.92868C18.749 2.58027 19.9678 2.40332 21.1607 2.40332C24.2058 2.40332 26.8723 3.54971 28.669 5.63124C31.1887 8.55013 31.59 12.9206 29.7171 17.0376L29.4771 17.5655L28.92 17.7259C27.7097 18.0743 26.4909 18.2513 25.2975 18.2513ZM18.8027 5.19902C17.6043 8.2411 17.9294 11.3336 19.6943 13.3787C21.0058 14.8976 22.9954 15.7341 25.2975 15.7341C26.071 15.7341 26.8618 15.6406 27.6555 15.4551C28.8544 12.4126 28.5293 9.32102 26.7644 7.2759C25.4525 5.75655 23.4628 4.92004 21.1607 4.92004C20.3873 4.91962 19.5969 5.0136 18.8027 5.19902Z" fill="#0069B6"/>
</svg>
