<?xml version="1.0" encoding="utf-8"?>
<!-- Generator: Adobe Illustrator 24.2.3, SVG Export Plug-In . SVG Version: 6.00 Build 0)  -->
<svg version="1.1" id="Layer_1" xmlns="http://www.w3.org/2000/svg" xmlns:xlink="http://www.w3.org/1999/xlink" x="0px" y="0px"
	 viewBox="0 0 191.9 233.8" style="enable-background:new 0 0 191.9 233.8;" xml:space="preserve">
<style type="text/css">
	.st0{clip-path:url(#SVGID_2_);}
	.st1{fill:none;}
	.st2{fill:#DB9540;}
	.st3{fill:#FFB452;}
	.st4{fill:#676463;}
	.st5{fill:#676462;}
	.st6{fill:#F8C7A2;}
	.st7{fill:#CD906A;}
	.st8{fill:#E9A77A;}
	.st9{fill:#CB9169;}
	.st10{fill:#755641;}
	.st11{fill:#FFFFFF;}
</style>
<g id="Layer_1_1_">
</g>
<g id="Layer_2_1_">
</g>
<g id="Layer_3">
	<g>
		<g>
			<defs>
				<rect id="SVGID_1_" width="191.9" height="233.8"/>
			</defs>
			<clipPath id="SVGID_2_">
				<use xlink:href="#SVGID_1_"  style="overflow:visible;"/>
			</clipPath>
			<g class="st0">
				<rect class="st1" width="191.9" height="233.8"/>
				<path class="st2" d="M100.7,140.1c0,0-47.2,0-78.8,18.3c0,0-15.4,3.7-21.6,78.2l34.9,46.6h67.1l10.4-10l-2.1-61.6L100.7,140.1z"
					/>
				<path class="st3" d="M96.1,140.1c0,0,42.9,0,74.5,18.3c0,0,15.4,3.7,21.6,78.2l-34.9,46.6H97.1v-7.5l-1.8-60.3L96.1,140.1z"/>
				<polygon class="st4" points="121.9,142.6 121.9,156.2 116.5,163.3 112.9,154.9 117.3,145.3 119.9,142.3 				"/>
				<path class="st5" d="M67.3,143.3c0,0-0.9,11.2,1.8,13.3c2.7,2.1,4.4,0,4.4,0l-0.9-6.9l-1.5-5.1v-1.9L67.3,143.3z"/>
				<path class="st6" d="M122.7,108.4c0,0,2.8,3.3,4.9,3.5c0,0,3-2,3.5-7c0,0,0.3-7.9,1.4-11.7c1.1-3.8,0-13.6-7.1-12.1
					s-5.7,9.7-5.7,9.7s-1.3,11.8-1.3,12.3C118.5,103.6,122.7,108.4,122.7,108.4z"/>
				<path class="st7" d="M66.8,109.5c0,0-2.6,3.7-5,3.5c0,0-3-1.1-3.4-6.8c0,0-0.1-7.9-1.6-11.5c0,0-1-14.4,7-12.1l7.2,15
					L66.8,109.5z"/>
				<path class="st8" d="M120.5,124.4v33.8c0,0-15.4,38.7-20.3,44.8l-1.8,2.7l-2.9-5.1l-9.3-26.1l-1.5-12.6v-11.7l5.4-18.1l19.4-1.6
					L120.5,124.4z"/>
				<path class="st9" d="M69.2,126.6l-0.7,25.6c0,0-0.6,5.3,6,17.9c6.6,12.6,7.1,15.4,7.9,17.4s6.8,14.1,8.2,15.2
					c1.5,1.1,4,7.5,3.8,10.6c0,0,4-7.4,5.8-10.2c0,0-10.5-47.1-7.8-63.9L69.2,126.6z"/>
				<path class="st8" d="M94.9,148.4c0,0-17.1,1-27-18.7c0,0-4.3-23.4-4.3-33.7l3.3-27.5l6.3-10.8l12.6-3.5l6.9,3.5l8.5,8.5
					l4.5,24.4l-5.9,40.7L94.9,148.4z"/>
				<path class="st6" d="M94.9,148.4c0,0,14.2,1.8,26.2-16.1c0,0,4.1-12,3.5-21.1l-1.6-48l-15.2-5.5H92.7l-1.4,12.4l2.8,3.9
					C94.1,74,95.8,147,94.9,148.4z"/>
				<path class="st10" d="M121.7,97.3l3.9-2.8l1.3-12.1c0,0,5.4-5.6,3.9-16.8c0,0-2.5-18.9-11.3-21.1c0,0-6-11.9-18.3-11.1
					c0,0-9.6-1-13.8,3.3c0,0-19-1.6-27.9,23.1c0,0-3.4,11.3,0.3,20c0,0,2.2,3.4,2.3,5.7l1.4,10.6l3.1,2.3l-0.4-16.6
					c0,0,2.1-7.5,4.5-8.8c0,0,3.8-3,3.6-4.4c0,0,1.8-2,8,1.8c0,0,12.1,8.5,18.6,8.3c0,0,10.4,0.1,14.3-9.1c0,0,5.9,4.5,6.8,9.6
					c0,0.2,0.1,0.4,0.1,0.6C122.7,85.1,121.7,97.3,121.7,97.3z"/>
				<path class="st11" d="M76,173.1c0,0,16.4,13.6,38.4,0c0,0-8.4,22.6-19.2,38.6C95.2,211.7,79.8,187.8,76,173.1z"/>
			</g>
		</g>
	</g>
</g>
</svg>
