<?xml version="1.0" encoding="utf-8"?>
<!-- Generator: Adobe Illustrator 24.2.3, SVG Export Plug-In . SVG Version: 6.00 Build 0)  -->
<svg version="1.1" id="Layer_1" xmlns="http://www.w3.org/2000/svg" xmlns:xlink="http://www.w3.org/1999/xlink" x="0px" y="0px"
	 viewBox="0 0 191.9 233.8" style="enable-background:new 0 0 191.9 233.8;" xml:space="preserve">
<style type="text/css">
	.st0{clip-path:url(#SVGID_2_);}
	.st1{fill:#D4AAE2;}
	.st2{fill:#B079C9;}
	.st3{fill:#010101;}
	.st4{fill:#E9A77A;}
	.st5{fill:#CB9169;}
	.st6{fill:#E761FF;}
	.st7{fill:#CC9368;}
	.st8{fill:#F8C7A2;}
	.st9{fill:#724727;}
	.st10{fill:#CC8550;}
	.st11{fill:#A06B40;}
</style>
<g>
	<g>
		<g>
			<defs>
				<rect id="SVGID_1_" width="191.9" height="233.8"/>
			</defs>
			<clipPath id="SVGID_2_">
				<use xlink:href="#SVGID_1_"  style="overflow:visible;"/>
			</clipPath>
			<g class="st0">
				<path class="st1" d="M99,138.9c0,0,52.5-1.2,77.5,29.3c0,0,7.8,23.3,12.1,68.2L160.2,282L69,282.5l5.6-8.9v-63.5L99,138.9z"/>
				<path class="st2" d="M103.7,138.9c0,0-47.2,0-78.8,18.3c0,0-15.4,3.7-21.6,78.2L38.2,282H80l11.9-4.5l6.5-72.9L103.7,138.9z"/>
				<path class="st3" d="M116.8,99.2l16.7,2.8l2.6,15.8l-9.1,20.7l-12,5.8c0,0-5.5-27-5.5-27.8S116.8,99.2,116.8,99.2z"/>
				<path class="st3" d="M56.8,99.2l16.7,2.8l2.6,15.8L67,138.4l-12,5.8c0,0-5.5-27-5.5-27.8S56.8,99.2,56.8,99.2z"/>
				<path class="st4" d="M121.6,116.3v39.3c0,0-0.6,8-6.5,28.6l-11.9,10.3l-11.4,3.3v-35.9l-7.3-21.6l8.3-10.9l18.3-5l9.3-7.5
					L121.6,116.3z"/>
				<path class="st5" d="M67.6,112.8c0,0,1.7,49.1,7,67.6s25.4,13.3,25.4,13.3s-12.1-51.6-7.7-61L67.6,112.8z"/>
				<path class="st6" d="M74.6,180.4c0,0,18,16.8,40.5,3.7c0,0-11,40.5-15.1,46.6c0,0-4.9,11-5.1,15.9c0,0-0.6-9.4-1.8-13.1
					C93,233.6,79.1,200.9,74.6,180.4z"/>
				<path class="st7" d="M69,105.9c0,0-7.9,7.8-11.6-3.4c-3.6-11.1,1.3-10.3,1.3-10.3l6-5.2l6.7,4.1L69,105.9z"/>
				<path class="st4" d="M94.9,144.1c0,0-20.7,2-25.3-23.2c-0.7-3.6-4.7-8.5-4.4-13.2l-2.8-26.1L64.2,65l9.1-14.5
					c0,0,5.9-3.9,7.2-4.7c1.3-0.8,12.2-2.1,12.2-2.1l6.8,9l3.7,23.3l1.5,31.5v20.2L99.4,139L94.9,144.1z"/>
				<path class="st8" d="M94.9,144.1c0,0,13.2-1,21.3-18.2c2.3-5,8.9-9.8,8.8-18.2c0,0,9.1-0.8,8.5-11.9c-0.5-11.1,0-20.4,0-20.4
					s-2.1-11.6-2.1-12.4s-9.8-13-9.8-13l-18.5-6.2l-5.8,3.4l2.1,5.7c0,0-2.8,5.4-4,14.5L94.9,144.1z"/>
				<path class="st9" d="M121.6,46.2l1.6,11c0,0,5.4,3.8,4.1,23.9c0,0,2.6,5.9,2.6,9.1c0,0,1.4,8.8,2.1,12.9c0,0,0.6,10.9,0,14.2
					c0,0-6.3,13.7-7.1,14.5c-0.8,0.8-9.6,24-6.2,33.1c0,0,12.8-7.3,17.3-15V58.1l-9-15.8L121.6,46.2z"/>
				<path class="st10" d="M119.5,31.5c0,0,14.4,0.8,19.4,30.5c0,0,4.1,15.1,2.6,39.5c0,0-0.4,35.9,0.3,41.2l-4.5,5.6
					c0,0-3.6-56.8-1.4-58.5c0,0-4.1-40.1-9-43.5c-4.9-3.4-6.7-11.8-6.7-11.8L119.5,31.5z"/>
				<path class="st11" d="M114.2,30.3c0,0,5.9,3.2,7.4,19.8c0,0,16.3,16.3,11.9,66.4c0,0-3.1,30-1.1,37.5c0,0,4.4-5.2,6.5-7.5
					c0,0-3.1-22-1.6-24c0,0,1-38.3,1-41.4C138.4,81.1,129.2,27.2,114.2,30.3z"/>
				<path class="st10" d="M104.5,26.6c0,0-6.7-8.9-24.7-1.7c0,0-15.4,8.7-23.7,28.4c0,0-4.1,18.8-9.1,32.5s-5,18.5-7,24.8
					s-4.2,18,0,28s13,18.8,31.7,28l-18-45L58.1,87l8.5-22.1l12.5-26.8l24-4.3L104.5,26.6z"/>
				<path class="st11" d="M66,85.2c0.9,10.2-7.5,21.5-6.8,25.5s9.5,15.8,9.7,21c0.2,5.2,2.1,21.6,10.3,38.8c0,0-6.7,0.8-20.1-15
					S47,128.7,46.7,127.7s-0.3-1-0.3-1s-1.5-14.8,6-42.3s11.2-32,11.2-32s8.6-22.8,33.5-29.5c0,0,14.2-0.5,16.9,11.8
					c2.8,12.2-1.4,19.9-1.4,19.9s-15.3,15.4-24.8,0C87.8,54.6,63.8,59,66,85.2z"/>
				<path class="st10" d="M106.8,25c0,0,6.7,22.7,5.8,29.6c0,0,8.3-1.1,10.6,2.6C123.2,57.1,125.4,30.7,106.8,25z"/>
			</g>
		</g>
	</g>
</g>
</svg>
