<svg width="114" height="103" viewBox="0 0 114 103" fill="none" xmlns="http://www.w3.org/2000/svg">
<path d="M7.62384 98.7469H5.01807L4.52268 100.233H2.94238L5.62741 93.0201H7.0046L9.70449 100.233H8.12419L7.62384 98.7469ZM5.41934 97.5431H7.22257L6.316 94.8431L5.41934 97.5431ZM15.2132 94.224H13.0038V100.233H11.5176V94.224H9.3379V93.0201H15.2132V94.224ZM20.4049 97.1071H17.5515V99.0392H20.9004V100.233H16.0653V93.0201H20.8904V94.224H17.5515V95.9429H20.4049V97.1071ZM27.6376 100.233H26.1515L23.2584 95.4872V100.233H21.7723V93.0201H23.2584L26.1565 97.7759V93.0201H27.6376V100.233ZM34.5979 97.8304C34.5418 98.6065 34.2544 99.2175 33.736 99.6633C33.2208 100.109 32.5404 100.332 31.695 100.332C30.7702 100.332 30.042 100.022 29.5102 99.4008C28.9818 98.7766 28.7176 97.9212 28.7176 96.8346V96.3937C28.7176 95.7002 28.8398 95.0892 29.0842 94.5608C29.3286 94.0324 29.677 93.6278 30.1295 93.3471C30.5852 93.063 31.1137 92.9211 31.7148 92.9211C32.547 92.9211 33.2175 93.144 33.726 93.5899C34.2347 94.0357 34.5285 94.6615 34.6079 95.4674H33.1216C33.0854 95.0017 32.9549 94.6648 32.7303 94.4568C32.509 94.2454 32.1705 94.1398 31.7148 94.1398C31.2193 94.1398 30.8478 94.318 30.6002 94.6747C30.3557 95.0281 30.2302 95.578 30.2237 96.3244V96.8693C30.2237 97.6488 30.3409 98.2185 30.5754 98.5785C30.8131 98.9385 31.1863 99.1184 31.695 99.1184C32.154 99.1184 32.4958 99.0144 32.7204 98.8063C32.9483 98.595 33.0787 98.2697 33.1118 97.8304H34.5979ZM37.1541 100.233H35.668V93.0201H37.1541V100.233ZM44.4612 96.7901C44.4612 97.5001 44.3357 98.1227 44.0847 98.6577C43.8337 99.1927 43.4737 99.6056 43.0048 99.8962C42.5391 100.187 42.004 100.332 41.3996 100.332C40.8019 100.332 40.2685 100.188 39.7996 99.9011C39.3306 99.6138 38.9673 99.2043 38.7097 98.6725C38.452 98.1375 38.3216 97.5232 38.3183 96.8297V96.473C38.3183 95.763 38.4455 95.1387 38.6998 94.6005C38.9574 94.0588 39.319 93.6443 39.7847 93.357C40.2536 93.0663 40.7887 92.9211 41.3898 92.9211C41.9908 92.9211 42.5242 93.0663 42.9899 93.357C43.4588 93.6443 43.8205 94.0588 44.0748 94.6005C44.3324 95.1387 44.4612 95.7613 44.4612 96.4681V96.7901ZM42.9552 96.4631C42.9552 95.7068 42.8198 95.1322 42.5489 94.7392C42.2782 94.3462 41.8918 94.1496 41.3898 94.1496C40.8911 94.1496 40.5064 94.3445 40.2355 94.7342C39.9647 95.1206 39.8276 95.6886 39.8243 96.4383V96.7901C39.8243 97.5266 39.9597 98.0979 40.2306 98.5041C40.5014 98.9103 40.8911 99.1134 41.3996 99.1134C41.8983 99.1134 42.2815 98.9186 42.5489 98.5288C42.8165 98.1358 42.9519 97.5646 42.9552 96.8148V96.4631ZM41.6771 91.0881H43.2376L41.8653 92.6238H40.7012L41.6771 91.0881ZM51.4066 100.233H49.9204L47.0273 95.4872V100.233H45.5412V93.0201H47.0273L49.9254 97.7759V93.0201H51.4066V100.233ZM59.3032 98.7469H56.6974L56.202 100.233H54.6217L57.3067 93.0201H58.6839L61.3838 100.233H59.8035L59.3032 98.7469ZM57.0986 97.5431H58.9019L57.9953 94.8431L57.0986 97.5431ZM67.6554 99.3215C67.3879 99.6418 67.0098 99.8912 66.521 100.07C66.0322 100.245 65.4906 100.332 64.8961 100.332C64.2719 100.332 63.7237 100.197 63.2514 99.9259C62.7825 99.6518 62.4192 99.2555 62.1616 98.7369C61.9073 98.2185 61.7768 97.6091 61.7702 96.909V96.4186C61.7702 95.6986 61.8908 95.076 62.1319 94.5509C62.3762 94.0224 62.7263 93.6196 63.182 93.3421C63.6412 93.0614 64.1778 92.9211 64.792 92.9211C65.6475 92.9211 66.3163 93.1258 66.7984 93.5354C67.2806 93.9415 67.5663 94.5344 67.6554 95.3138H66.2089C66.1429 94.901 65.9959 94.5988 65.7681 94.4072C65.5435 94.2157 65.233 94.1199 64.8367 94.1199C64.3313 94.1199 63.9466 94.3098 63.6824 94.6896C63.4182 95.0694 63.2844 95.6341 63.2812 96.3839V96.8446C63.2812 97.6009 63.4248 98.1722 63.7122 98.5586C63.9995 98.945 64.4205 99.1382 64.9754 99.1382C65.5335 99.1382 65.9315 99.0193 66.1693 98.7816V97.5381H64.8169V96.4433H67.6554V99.3215ZM73.2039 97.1071H70.3504V99.0392H73.6993V100.233H68.8642V93.0201H73.6893V94.224H70.3504V95.9429H73.2039V97.1071ZM80.4366 100.233H78.9504L76.0573 95.4872V100.233H74.5711V93.0201H76.0573L78.9553 97.7759V93.0201H80.4366V100.233ZM81.7345 100.233V93.0201H83.9538C84.5879 93.0201 85.1543 93.1638 85.653 93.4511C86.1551 93.7351 86.5464 94.1413 86.8272 94.6698C87.1078 95.1949 87.2482 95.7927 87.2482 96.4631V96.7951C87.2482 97.4654 87.1095 98.0616 86.832 98.5834C86.5579 99.1052 86.1699 99.5097 85.6679 99.7971C85.1659 100.084 84.5995 100.23 83.9688 100.233H81.7345ZM83.2207 94.224V99.0392H83.939C84.5202 99.0392 84.9644 98.8493 85.2716 98.4694C85.5788 98.0896 85.7356 97.5464 85.7422 96.8396V96.4581C85.7422 95.725 85.5903 95.1701 85.2865 94.7936C84.9826 94.4139 84.5384 94.224 83.9538 94.224H83.2207ZM92.2963 98.7469H89.6905L89.1951 100.233H87.6148L90.2998 93.0201H91.677L94.3769 100.233H92.7966L92.2963 98.7469ZM90.0917 97.5431H91.895L90.9884 94.8431L90.0917 97.5431ZM95.0507 100.233V93.0201H97.577C98.4523 93.0201 99.1164 93.1886 99.5683 93.5254C100.021 93.859 100.247 94.3494 100.247 94.9968C100.247 95.3501 100.157 95.6622 99.9751 95.933C99.7934 96.2005 99.5406 96.3971 99.2169 96.5226C99.5868 96.615 99.8773 96.8016 100.089 97.0824C100.303 97.363 100.41 97.7065 100.41 98.1128C100.41 98.8063 100.19 99.3315 99.7472 99.6881C99.3045 100.045 98.6737 100.226 97.8546 100.233H95.0507ZM96.5366 97.0922V99.0392H97.8104C98.1599 99.0392 98.4329 98.9565 98.6275 98.7914C98.8258 98.623 98.9245 98.3918 98.9245 98.0979C98.9245 97.4374 98.5823 97.1022 97.8989 97.0922H96.5366ZM96.5366 96.0421H97.637C98.3859 96.0288 98.7613 95.7299 98.7613 95.1454C98.7613 94.8184 98.6654 94.584 98.4735 94.4419C98.2854 94.2966 97.9865 94.224 97.577 94.224H96.5366V96.0421ZM103.017 99.0392H106.172V100.233H101.53V93.0201H103.017V99.0392ZM111.369 97.1071H108.516V99.0392H111.864V100.233H107.029V93.0201H111.855V94.224H108.516V95.9429H111.369V97.1071Z" fill="#E93F33"/>
<g clip-path="url(#clip0_22_195)">
<path d="M31.3348 50.1728L27.3093 49.4612C31.4691 26.0245 47.5241 23.6447 55.242 22.5073C56.539 22.3148 57.6608 22.1515 58.3852 21.9415C60.8916 21.2124 61.5635 18.9142 61.7388 17.9576C62.0718 16.1203 61.5518 14.2829 60.471 13.4779C59.2382 12.5622 57.4388 13.1455 56.1534 13.7988C55.8555 13.9504 55.6977 14.1254 55.6101 14.417C55.2537 15.537 56.0132 17.5493 56.4339 18.3484L52.8232 20.2675C52.6071 19.865 50.7433 16.2427 51.7073 13.1921C52.128 11.8564 53.0277 10.8065 54.3014 10.159C58.7241 7.91917 61.5927 9.22574 62.9131 10.2057C65.2618 11.9497 66.3777 15.2745 65.7642 18.6809C65.1216 22.2273 62.7963 24.9105 59.5303 25.8612C58.543 26.147 57.2927 26.3337 55.8438 26.5495C48.0383 27.7044 34.9804 29.6351 31.3348 50.1787V50.1728Z" fill="#E93F33"/>
<path d="M58.1339 82.7087C57.9411 82.7087 57.8009 82.7087 57.7191 82.7029C57.5497 82.7029 57.3861 82.7029 57.2225 82.7029C37.4517 82.7029 31.1945 67.1232 29.6871 62.0835C25.3637 61.5702 19.1824 59.1438 19.2233 52.4767C19.2467 48.942 20.3334 46.183 22.4542 44.2815C25.8136 41.2659 30.4934 41.6975 30.692 41.7208L30.2889 45.7864C30.2597 45.7864 27.1632 45.5297 25.1651 47.3379C23.944 48.4462 23.3247 50.1844 23.3072 52.5059C23.278 57.8838 30.9958 58.1113 31.323 58.1172L32.9823 58.1522L33.2978 59.7795C33.4497 60.5495 37.1888 78.6257 57.2225 78.6257C57.3861 78.6257 57.5497 78.6257 57.7133 78.6257H57.8477C58.5838 78.6607 76.1053 79.2032 82.5845 59.2021L83.1045 57.598L84.7813 57.8022C84.7813 57.8022 87.6382 58.088 89.5954 56.3148C91.0268 55.0141 91.7338 52.8384 91.6929 49.8519V49.7703C91.6929 49.7703 91.6695 48.3995 90.5361 47.3146C89.3676 46.2005 87.3227 45.6639 84.6118 45.7689L84.4599 41.6858C88.4211 41.5342 91.4475 42.4674 93.4573 44.4506C95.6891 46.6555 95.7884 49.3095 95.7826 49.8111C95.841 54.0341 94.6667 57.2481 92.3063 59.3654C90.1972 61.2611 87.6441 61.7627 85.9965 61.8677C81.9886 72.8803 74.7673 77.9666 69.2988 80.2939C64.1283 82.4988 59.6062 82.7029 58.1398 82.7029L58.1339 82.7087Z" fill="#E93F33"/>
<path d="M82.9818 49.8927C82.3859 33.1056 65.3084 28.0426 64.584 27.8326L65.6999 23.9012C65.9044 23.9596 86.3704 29.95 87.0715 49.7469L82.9818 49.8927Z" fill="#E93F33"/>
<path d="M48.9963 53.9C50.3515 53.9 51.4501 52.8032 51.4501 51.4502C51.4501 50.0972 50.3515 49.0004 48.9963 49.0004C47.6411 49.0004 46.5425 50.0972 46.5425 51.4502C46.5425 52.8032 47.6411 53.9 48.9963 53.9Z" fill="#E93F33"/>
<path d="M57.7775 69.6897C52.7297 69.6897 49.0606 66.1083 49.0022 66.0499L51.0704 63.9909L50.0363 65.0233L51.0646 63.9909C51.3216 64.2417 57.4153 70.1096 64.1516 63.9501L66.1264 66.1024C63.1818 68.7972 60.3073 69.6955 57.7775 69.6955V69.6897Z" fill="#E93F33"/>
<path d="M63.8829 53.9C65.2381 53.9 66.3367 52.8032 66.3367 51.4502C66.3367 50.0972 65.2381 49.0004 63.8829 49.0004C62.5277 49.0004 61.4291 50.0972 61.4291 51.4502C61.4291 52.8032 62.5277 53.9 63.8829 53.9Z" fill="#E93F33"/>
</g>
<defs>
<clipPath id="clip0_22_195">
<rect width="76.5534" height="73.7864" fill="white" transform="translate(19.2234 8.92236)"/>
</clipPath>
</defs>
</svg>
