<svg width="114" height="103" viewBox="0 0 114 103" fill="none" xmlns="http://www.w3.org/2000/svg">
<g clip-path="url(#clip0_22_200)">
<path d="M44.4799 85.0273C42.4903 85.0273 40.3365 84.2406 38.0382 82.6803L37.7952 82.4902L23.2963 69.5095L26.3628 66.0939L40.7436 78.9697C42.0832 79.8613 43.9152 80.7725 45.2942 80.3071C46.6797 79.835 47.3036 78.0453 47.3101 78.0256L47.4021 77.783L56.3063 57.9777C56.9301 56.6797 57.0417 55.6373 56.6806 54.726C55.9911 52.9953 53.7847 52.084 53.765 52.0709L53.6271 52.0119C51.7031 51.1203 49.963 54.0442 49.766 54.3786L41.9912 70.5781L39.8505 66.6053C32.9557 53.8213 25.3713 53.8869 23.2175 54.2081C22.6659 54.2933 22.1603 54.3261 21.6546 54.3196C19.1528 54.2868 13.0656 55.0473 10.8001 62.9602C10.6688 63.4257 10.5966 63.9174 10.5966 64.4156V79.7367H6V64.4156C6 63.4912 6.12476 62.5734 6.38086 61.6949C8.94838 52.7396 16.014 49.6256 21.7269 49.7304C21.9764 49.7304 22.2325 49.7173 22.5346 49.6714C25.1874 49.2781 33.8421 49.0486 41.6498 60.6788L45.6948 52.2479C47.0081 49.7698 50.7379 45.6724 55.492 47.8096C56.1618 48.0784 59.5961 49.6124 60.9554 53.0215C61.5398 54.49 61.9338 56.8763 60.476 59.8986L51.644 79.5466C51.3617 80.3595 50.0878 83.4801 46.8308 84.6208C46.0756 84.8831 45.2876 85.0142 44.4734 85.0142L44.4799 85.0273Z" fill="#E93F33"/>
<path d="M33.5598 51.4481C24.6949 51.4481 17.4849 44.2498 17.4849 35.3993C17.4849 26.5489 24.6949 19.344 33.5598 19.344C42.4246 19.344 49.6412 26.5423 49.6412 35.3928C49.6412 44.2432 42.4312 51.4416 33.5598 51.4416V51.4481ZM33.5598 23.9331C27.2296 23.9331 22.0814 29.0729 22.0814 35.3928C22.0814 41.7126 27.2296 46.8524 33.5598 46.8524C39.8899 46.8524 45.0446 41.7126 45.0446 35.3928C45.0446 29.0729 39.8965 23.9331 33.5598 23.9331Z" fill="#E93F33"/>
<path d="M82.684 50.1041C73.8192 50.1041 66.6091 42.9058 66.6091 34.0553C66.6091 25.2049 73.8126 18 82.684 18C91.5554 18 98.7589 25.1984 98.7589 34.0488C98.7589 42.8992 91.5489 50.0976 82.684 50.0976V50.1041ZM82.684 22.5891C76.3539 22.5891 71.2057 27.7289 71.2057 34.0488C71.2057 40.3686 76.3539 45.5085 82.684 45.5085C89.0142 45.5085 94.1623 40.3686 94.1623 34.0488C94.1623 27.7289 89.0142 22.5891 82.684 22.5891V22.5891Z" fill="#E93F33"/>
<path d="M107 79.7432H102.403V66.2315C102.134 63.3207 100.992 61.0655 98.91 59.3413C93.2759 54.6604 83.0059 55.6044 82.9074 55.6175L82.7892 55.6307H82.671C82.5922 55.6307 82.5134 55.6307 82.4346 55.6307C74.4759 55.6307 68.5923 57.4204 65.4075 60.8032C62.5314 63.8648 62.7218 67.2411 62.7349 67.3788V79.7497H58.1449V67.6279C58.099 66.7625 58.053 62.0095 61.9535 57.7744C66.0707 53.3099 72.9591 51.0481 82.4214 51.0481C82.474 51.0481 82.5265 51.0481 82.579 51.0481C83.9514 50.9301 95.0555 50.1827 101.845 55.8208C104.899 58.3579 106.632 61.7604 106.987 65.943V79.7497L107 79.7432Z" fill="#E93F33"/>
<path d="M73.5633 70.093H68.9667V79.7433H73.5633V70.093Z" fill="#E93F33"/>
<path d="M96.3162 70.093H91.7196V79.7433H96.3162V70.093Z" fill="#E93F33"/>
<path d="M58.3026 50.9499L55.6891 50.7139C56.4771 42.0536 55.387 40.1655 55.1046 39.8311C54.7829 40.1589 52.8523 42.5059 52.8523 50.0583H50.2257C50.2257 40.4212 53.2135 37.9365 53.5549 37.6874C54.0277 37.3268 55.1637 36.8482 56.2998 37.471C57.7313 38.2512 59.2481 40.4933 58.296 50.9565L58.3026 50.9499Z" fill="#E93F33"/>
<path d="M60.266 39.7852H50.2257V27.8928H60.4958V29.1974C60.5155 30.5152 61.4479 31.0659 61.7763 31.2167L65.5783 31.5641V36.7105H61.7697L61.5727 36.6449C61.5333 36.6318 61.5136 36.6252 61.507 36.6318C61.2312 36.7105 60.6862 37.7463 60.4892 38.7362L60.2791 39.7917L60.266 39.7852ZM52.8523 37.1628H58.1909C58.5061 36.2385 59.1037 34.9863 60.1543 34.37C60.7716 34.0095 61.4611 33.9111 62.1506 34.0816H62.9451V33.9505L61.1853 33.7931L61.0408 33.7407C60.0755 33.4129 58.5586 32.4033 58.053 30.5086H52.8589V37.1628H52.8523Z" fill="#E93F33"/>
</g>
<defs>
<clipPath id="clip0_22_200">
<rect width="101" height="67.0273" fill="white" transform="translate(6 18)"/>
</clipPath>
</defs>
</svg>
