<svg width="114" height="103" viewBox="0 0 114 103" fill="none" xmlns="http://www.w3.org/2000/svg">
<path d="M6.26645 98.3832H3.60828L3.10292 99.8993H1.49084L4.22987 92.5413H5.63476L8.38894 99.8993H6.77686L6.26645 98.3832ZM4.01762 97.1552H5.85711L4.93231 94.4009L4.01762 97.1552ZM14.0085 93.7693H11.7546V99.8993H10.2385V93.7693H8.01498V92.5413H14.0085V93.7693ZM19.3046 96.7104H16.3938V98.6814H19.81V99.8993H14.8777V92.5413H19.7998V93.7693H16.3938V95.5229H19.3046V96.7104ZM26.6828 99.8993H25.1667L22.2155 95.058V99.8993H20.6994V92.5413H22.2155L25.1718 97.3927V92.5413H26.6828V99.8993ZM33.783 97.4483C33.7258 98.24 33.4326 98.8633 32.9038 99.3181C32.3782 99.7729 31.6841 99.9999 30.8217 99.9999C29.8784 99.9999 29.1354 99.6836 28.593 99.0503C28.054 98.4135 27.7844 97.5409 27.7844 96.4325V95.9828C27.7844 95.2752 27.9091 94.652 28.1584 94.1129C28.4078 93.5739 28.7631 93.1611 29.2247 92.8748C29.6896 92.585 30.2287 92.4402 30.8419 92.4402C31.6909 92.4402 32.3748 92.6677 32.8936 93.1225C33.4125 93.5773 33.7123 94.2157 33.7932 95.0377H32.277C32.2401 94.5627 32.1069 94.2191 31.8778 94.0068C31.6521 93.7912 31.3068 93.6834 30.8419 93.6834C30.3365 93.6834 29.9575 93.8653 29.7049 94.2291C29.4555 94.5897 29.3275 95.1506 29.3208 95.912V96.4679C29.3208 97.263 29.4404 97.8442 29.6795 98.2114C29.9221 98.5786 30.3028 98.7622 30.8217 98.7622C31.29 98.7622 31.6386 98.6561 31.8678 98.4438C32.1002 98.2283 32.2333 97.8964 32.267 97.4483H33.783ZM36.3907 99.8993H34.8746V92.5413H36.3907V99.8993ZM43.8447 96.387C43.8447 97.1113 43.7166 97.7464 43.4606 98.2922C43.2045 98.838 42.8373 99.2592 42.3589 99.5556C41.8839 99.8521 41.3381 99.9999 40.7215 99.9999C40.1117 99.9999 39.5676 99.8538 39.0893 99.5606C38.6108 99.2675 38.2402 98.8498 37.9774 98.3074C37.7147 97.7616 37.5816 97.1349 37.5782 96.4275V96.0636C37.5782 95.3393 37.708 94.7025 37.9674 94.1534C38.2302 93.6008 38.5991 93.178 39.0741 92.8849C39.5525 92.5884 40.0983 92.4402 40.7115 92.4402C41.3246 92.4402 41.8687 92.5884 42.3438 92.8849C42.8221 93.178 43.191 93.6008 43.4505 94.1534C43.7132 94.7025 43.8447 95.3376 43.8447 96.0586V96.387ZM42.3084 96.0535C42.3084 95.282 42.1703 94.6958 41.894 94.2949C41.6177 93.894 41.2236 93.6935 40.7115 93.6935C40.2027 93.6935 39.8103 93.8923 39.5339 94.2898C39.2577 94.684 39.1179 95.2634 39.1145 96.0282V96.387C39.1145 97.1383 39.2526 97.7212 39.529 98.1356C39.8052 98.5499 40.2027 98.7571 40.7215 98.7571C41.2303 98.7571 41.6211 98.5584 41.894 98.1608C42.1669 97.7599 42.305 97.1771 42.3084 96.4123V96.0535ZM41.0045 90.5704H42.5964L41.1966 92.137H40.009L41.0045 90.5704ZM50.9298 99.8993H49.4136L46.4624 95.058V99.8993H44.9464V92.5413H46.4624L49.4187 97.3927V92.5413H50.9298V99.8993ZM58.9851 98.3832H56.3269L55.8216 99.8993H54.2095L56.9485 92.5413H58.3534L61.1076 99.8993H59.4955L58.9851 98.3832ZM56.7362 97.1552H58.5757L57.651 94.4009L56.7362 97.1552ZM67.5053 98.9694C67.2325 99.2962 66.8467 99.5506 66.3482 99.7325C65.8495 99.9115 65.297 99.9999 64.6905 99.9999C64.0538 99.9999 63.4946 99.8622 63.0127 99.5859C62.5344 99.3063 62.1638 98.902 61.901 98.3731C61.6416 97.8442 61.5085 97.2226 61.5018 96.5083V96.0081C61.5018 95.2736 61.6248 94.6385 61.8707 94.1029C62.1199 93.5638 62.4771 93.1528 62.942 92.8698C63.4104 92.5834 63.9578 92.4402 64.5844 92.4402C65.4571 92.4402 66.1393 92.6491 66.6311 93.0669C67.123 93.4812 67.4145 94.086 67.5053 94.8811H66.0298C65.9624 94.4599 65.8124 94.1517 65.58 93.9563C65.3509 93.7609 65.0342 93.6632 64.6299 93.6632C64.1144 93.6632 63.722 93.8569 63.4524 94.2443C63.183 94.6317 63.0464 95.2078 63.0431 95.9727V96.4427C63.0431 97.2142 63.1896 97.797 63.4828 98.1912C63.7759 98.5853 64.2054 98.7824 64.7714 98.7824C65.3408 98.7824 65.7467 98.6612 65.9893 98.4186V97.1501H64.6097V96.0333H67.5053V98.9694ZM73.1654 96.7104H70.2545V98.6814H73.6707V99.8993H68.7385V92.5413H73.6606V93.7693H70.2545V95.5229H73.1654V96.7104ZM80.5436 99.8993H79.0274L76.0762 95.058V99.8993H74.5602V92.5413H76.0762L79.0325 97.3927V92.5413H80.5436V99.8993ZM81.8676 99.8993V92.5413H84.1315C84.7784 92.5413 85.3562 92.6878 85.8649 92.981C86.377 93.2707 86.7762 93.685 87.0627 94.2242C87.349 94.7598 87.4922 95.3696 87.4922 96.0535V96.3921C87.4922 97.076 87.3507 97.6841 87.0676 98.2164C86.788 98.7487 86.3922 99.1614 85.8801 99.4545C85.368 99.7477 84.7902 99.8959 84.1468 99.8993H81.8676ZM83.3836 93.7693V98.6814H84.1164C84.7093 98.6814 85.1625 98.4877 85.4759 98.1002C85.7892 97.7127 85.9491 97.1586 85.9559 96.4376V96.0484C85.9559 95.3005 85.8009 94.7345 85.491 94.3504C85.181 93.9631 84.7279 93.7693 84.1315 93.7693H83.3836ZM92.6418 98.3832H89.9836L89.4783 99.8993H87.8662L90.6052 92.5413H92.0101L94.7642 99.8993H93.1521L92.6418 98.3832ZM90.3929 97.1552H92.2324L91.3076 94.4009L90.3929 97.1552ZM95.4516 99.8993V92.5413H98.0287C98.9216 92.5413 99.599 92.7131 100.06 93.0567C100.522 93.397 100.753 93.8973 100.753 94.5577C100.753 94.9181 100.66 95.2365 100.475 95.5128C100.29 95.7856 100.032 95.9861 99.7016 96.1142C100.079 96.2085 100.375 96.3988 100.591 96.6852C100.81 96.9715 100.919 97.3219 100.919 97.7364C100.919 98.4438 100.694 98.9795 100.243 99.3434C99.791 99.7072 99.1474 99.8925 98.3119 99.8993H95.4516ZM96.9674 96.6953V98.6814H98.2667C98.6233 98.6814 98.9018 98.5971 99.1004 98.4287C99.3027 98.2569 99.4033 98.021 99.4033 97.7212C99.4033 97.0474 99.0543 96.7054 98.3571 96.6953H96.9674ZM96.9674 95.624H98.0899C98.8538 95.6104 99.2368 95.3056 99.2368 94.7093C99.2368 94.3757 99.1389 94.1366 98.9432 93.9917C98.7513 93.8434 98.4465 93.7693 98.0287 93.7693H96.9674V95.624ZM103.578 98.6814H106.797V99.8993H102.061V92.5413H103.578V98.6814ZM112.098 96.7104H109.188V98.6814H112.603V99.8993H107.671V92.5413H112.594V93.7693H109.188V95.5229H112.098V96.7104Z" fill="#E93F33"/>
<g clip-path="url(#clip0_22_180)">
<path d="M32.4072 82.3295C17.9859 52.6755 30.0702 36.3136 36.5641 27.5243C37.7171 25.9678 38.708 24.6213 39.2814 23.5651C42.6592 17.3082 38.5023 10.3101 38.4587 10.2421L42.1918 8C42.4162 8.3706 47.6948 17.1414 43.1266 25.6034C42.4099 26.9252 41.3318 28.389 40.0853 30.0752C33.716 38.6978 23.0465 53.1326 36.3335 80.4456L32.4072 82.3233V82.3295Z" fill="#E93F33"/>
<path d="M83.4112 82.2554L79.4413 80.4642C92.1051 52.8609 81.1115 38.667 74.5428 30.1865C73.2527 28.525 72.1434 27.0858 71.4017 25.7825C66.6403 17.4256 71.7196 8.53742 71.9377 8.16064L75.7207 10.3163C75.677 10.3842 71.6884 17.475 75.2034 23.6516C75.7954 24.6955 76.8238 26.0173 78.0079 27.5491C84.7013 36.1902 97.1594 52.2803 83.4174 82.2492L83.4112 82.2554Z" fill="#E93F33"/>
<path d="M59.2863 73.2252H55.547V81.3907H59.2863V73.2252Z" fill="#E93F33"/>
<path d="M57.5787 71.6008L56.4819 71.0881C55.8337 70.7854 40.6334 63.5526 38.4396 53.8183C37.6544 50.3285 38.5518 47.0054 41.1132 43.9295L41.3625 43.6762C41.5183 43.5404 45.3013 40.3347 50.2746 40.8412C52.9482 41.1129 55.3975 42.3668 57.5787 44.5719C59.8597 42.305 64.5962 38.6361 71.0527 42.2309C71.7819 42.5953 76.051 44.9425 76.3937 49.8899C76.8175 56.0418 70.8346 63.1264 58.6008 70.9522L57.5787 71.6069V71.6008ZM44.3478 46.8387C42.771 48.809 42.2288 50.7794 42.7025 52.8732C44.0237 58.7348 52.8422 64.3556 57.2733 66.6471C70.4358 58.0122 72.1932 52.6694 72.0437 50.2173C71.8754 47.4625 69.208 46.1407 69.0896 46.0851L68.9525 46.011C64.8018 43.6762 62.1033 46.0357 59.8971 48.4261C59.1866 49.192 58.5011 49.9146 57.3731 49.8652L56.351 49.822L55.6841 48.9881C53.883 46.641 51.9137 45.3439 49.8321 45.1339C47.146 44.8622 44.8837 46.431 44.3478 46.8325V46.8387Z" fill="#E93F33"/>
<path d="M57.5662 33.8492C54.7867 33.8492 52.6802 31.4094 52.4434 31.1253L54.849 29.1611C55.2167 29.5997 56.5441 30.8474 57.6659 30.7609C58.3016 30.7238 58.9249 30.2359 59.5294 29.3094L62.1531 30.9771C60.6948 33.2192 59.0059 33.7751 57.8467 33.843C57.7532 33.843 57.6659 33.8492 57.5725 33.8492H57.5662Z" fill="#E93F33"/>
</g>
<defs>
<clipPath id="clip0_22_180">
<rect width="63.9798" height="74.3295" fill="white" transform="translate(25.6262 8)"/>
</clipPath>
</defs>
</svg>
