<svg width="114" height="103" viewBox="0 0 114 103" fill="none" xmlns="http://www.w3.org/2000/svg">
<g clip-path="url(#clip0_22_177)">
<path d="M51.971 80.2436C50.5785 80.2436 22.7769 79.8573 6.77058 50.9409L6 49.5449L6.99364 48.3048C7.87913 47.2002 28.9821 21.252 57.7571 21.252H57.8922C75.0612 21.2994 91.1352 30.6378 105.661 48.996L106.384 49.9109L106.101 51.0426C105.992 51.4763 103.316 61.777 90.3173 69.4076L87.9245 65.3144C96.9213 60.0353 100.173 53.489 101.153 50.9545C87.796 34.4463 73.2497 26.0499 57.9058 25.9957H57.7638C34.6668 25.9957 16.2068 45.0316 11.7252 50.0667C26.5082 75.1678 50.93 75.4999 51.9845 75.4999V80.2436H51.9777H51.971Z" fill="#E93F33"/>
<path d="M56.3241 73.4736C43.8259 73.4736 33.6597 63.2814 33.6597 50.7512C33.6597 38.2209 43.8259 28.0287 56.3241 28.0287C68.8223 28.0287 78.9885 38.2209 78.9885 50.7512C78.9885 63.2814 68.8223 73.4736 56.3241 73.4736ZM56.3241 32.7724C46.435 32.7724 38.3913 40.8368 38.3913 50.7512C38.3913 60.6655 46.435 68.7299 56.3241 68.7299C66.2131 68.7299 74.2569 60.6655 74.2569 50.7512C74.2569 40.8368 66.2131 32.7724 56.3241 32.7724Z" fill="#E93F33"/>
<path d="M56.3242 61.5263C50.3961 61.5263 45.5767 56.6945 45.5767 50.7512C45.5767 44.808 50.3961 39.9762 56.3242 39.9762C62.2522 39.9762 67.0717 44.808 67.0717 50.7512C67.0717 56.6945 62.2522 61.5263 56.3242 61.5263ZM56.3242 44.7131C53.0053 44.7131 50.3083 47.4171 50.3083 50.7445C50.3083 54.0718 53.0053 56.7758 56.3242 56.7758C59.6431 56.7758 62.3401 54.0718 62.3401 50.7445C62.3401 47.4171 59.6431 44.7131 56.3242 44.7131Z" fill="#E93F33"/>
<path d="M68.153 79.4372C77.8442 79.4372 85.7005 71.5608 85.7005 61.8448C85.7005 52.1287 77.8442 44.2523 68.153 44.2523C58.4618 44.2523 50.6055 52.1287 50.6055 61.8448C50.6055 71.5608 58.4618 79.4372 68.153 79.4372Z" fill="white"/>
<path d="M68.1531 81.8023C57.1757 81.8023 48.2397 72.8502 48.2397 61.838C48.2397 50.8258 57.169 41.8737 68.1531 41.8737C79.1372 41.8737 88.0664 50.8258 88.0664 61.838C88.0664 72.8502 79.1372 81.8023 68.1531 81.8023V81.8023ZM68.1531 46.6242C59.7849 46.6242 52.9714 53.4484 52.9714 61.8448C52.9714 70.2412 59.7781 77.0654 68.1531 77.0654C76.528 77.0654 83.3348 70.2412 83.3348 61.8448C83.3348 53.4484 76.528 46.6242 68.1531 46.6242V46.6242Z" fill="#E93F33"/>
<path d="M99.3615 103L79.1372 82.724L87.7758 74.0565L108.007 94.3394L99.3615 103ZM85.8223 82.724L99.3615 96.2978L101.315 94.3394L87.7758 80.7655L85.8223 82.724V82.724Z" fill="#E93F33"/>
<path d="M81.5579 72.9426L78.531 76.5887L84.1836 81.3054L87.2105 77.6593L81.5579 72.9426Z" fill="#E93F33"/>
<path d="M99.0302 60.5843C98.8275 60.5301 94.062 59.256 92.3181 54.2412C90.4187 48.7859 92.9467 41.3993 99.8346 32.2845L103.606 35.1443C97.9352 42.653 95.5086 48.8537 96.7658 52.6148C97.6446 55.2306 100.132 55.9625 100.233 55.9896L99.0302 60.5775V60.5843Z" fill="#E93F33"/>
<path d="M80.6553 19.3944L77.8291 27.2046L82.2771 28.8224L85.1032 21.0122L80.6553 19.3944Z" fill="#E93F33"/>
<path d="M58.6899 16H53.9583V24.1118H58.6899V16Z" fill="#E93F33"/>
<path d="M33.1881 21.3939L28.823 23.2245L31.8932 30.5829L36.2583 28.7522L33.1881 21.3939Z" fill="#E93F33"/>
<path d="M13.7957 34.7975L9.87305 37.4502L14.0573 43.6695L17.98 41.0169L13.7957 34.7975Z" fill="#E93F33"/>
</g>
<defs>
<clipPath id="clip0_22_177">
<rect width="102" height="87" fill="white" transform="translate(6 16)"/>
</clipPath>
</defs>
</svg>
