<svg width="114" height="103" viewBox="0 0 114 103" fill="none" xmlns="http://www.w3.org/2000/svg">
<path d="M99.7227 82.3711L72.9102 14.1211C72.6055 13.3594 71.8438 12.75 71.082 12.75C70.625 12.75 70.3203 13.0547 69.4062 13.3594C68.3398 13.6641 67.8828 14.5781 68.3398 16.1016C65.9023 17.625 59.3516 19.7578 56.9141 20.2148C56.7617 19.6055 56.6094 19.1484 55.8477 18.6914V17.625C55.8477 15.0352 53.7148 12.75 50.9727 12.75H36.3477C35.5859 12.75 34.6719 13.207 33.9102 13.5117C33.3008 13.207 32.3867 12.75 31.625 12.75H17C14.2578 12.75 12.125 15.0352 12.125 17.625V85.875C12.125 88.6172 14.2578 90.75 17 90.75H31.625C32.3867 90.75 33.3008 90.4453 34.0625 90.1406C34.6719 90.4453 35.5859 90.75 36.5 90.75H51.125C53.7148 90.75 56 88.6172 56 85.875V30.8789L79.0039 89.5312C79.3086 90.293 79.918 90.75 80.6797 90.75C81.1367 90.75 81.4414 90.5977 82.5078 90.293C83.4219 89.9883 84.0312 89.0742 83.4219 87.5508C86.0117 86.0273 92.4102 83.8945 95 83.4375C95.457 85.1133 96.5234 85.418 97.4375 85.1133L98.5039 84.6562C99.5703 84.3516 100.027 83.2852 99.7227 82.3711ZM31.625 85.875H17V76.125H31.625V85.875ZM31.625 71.25H17V32.25H31.625V71.25ZM31.625 27.375H17V17.625H31.625V27.375ZM51.125 85.875H36.5V76.125H51.125V85.875ZM51.125 71.25H36.5V32.25H51.125V71.25ZM51.125 27.375H36.5V17.625H51.125V27.375ZM82.0508 83.4375L58.2852 24.1758C62.2461 23.5664 68.0352 21.1289 69.8633 20.2148L93.4766 79.4766C89.668 80.0859 83.7266 82.5234 82.0508 83.4375Z" fill="#E93F33"/>
</svg>
