<svg width="1013" height="35" viewBox="0 0 1013 35" fill="none" xmlns="http://www.w3.org/2000/svg">
<path d="M29.5858 19.8341C30.0238 19.8341 30.3992 19.5709 30.5243 19.1103L33.4023 11.6088L38.6576 33.7183C38.7827 34.2447 39.1581 34.508 39.6586 34.5737C40.0966 34.508 40.5346 34.1789 40.5971 33.7183L45.7273 6.67365L48.6679 18.9786C48.793 19.4392 49.2309 19.8341 49.6063 19.8341H1012.09C1012.41 19.8341 1012.59 19.571 1012.59 19.3077V18.2549C1012.59 17.9259 1012.41 17.7285 1012.09 17.7285L50.4197 17.7284L46.6033 1.67268C46.4782 1.14627 46.1028 0.883057 45.6022 0.883057C45.1643 0.883057 44.7263 1.21207 44.6638 1.67268L39.5335 28.7174L34.591 7.98969C34.4659 7.52907 34.0905 7.20006 33.715 7.20006C33.2145 7.13426 32.8392 7.39747 32.714 7.85808L28.9602 17.7284H0.500513C0.250257 17.7284 1.14864e-07 17.9258 8.75118e-08 18.2548L0 19.3076C-2.18713e-08 19.5709 0.250256 19.8341 0.500512 19.8341H29.5858Z" fill="white"/>
</svg>
