<svg width="1080" height="37" viewBox="0 0 1080 37" fill="none" xmlns="http://www.w3.org/2000/svg">
<path d="M32.1778 20.5312C32.6523 20.5312 33.059 20.2461 33.1945 19.747L36.3124 11.62L42.006 35.5731C42.1415 36.1434 42.5482 36.4286 43.0905 36.4999C43.5649 36.4286 44.0394 36.0721 44.1072 35.5731L49.6652 6.27342L52.8509 19.6044C52.9864 20.1034 53.4609 20.5312 53.8676 20.5312L1078.9 20.5311C1079.24 20.5311 1079.44 20.2461 1079.44 19.9609V18.8202C1079.44 18.4638 1079.24 18.2499 1078.9 18.2499H54.7488L50.6141 0.855466C50.4786 0.285156 50.0719 4.98832e-08 49.5296 0C49.0552 -4.35971e-08 48.5807 0.356444 48.5129 0.855466L42.9549 30.1552L37.6002 7.6992C37.4647 7.20017 37.058 6.84373 36.6513 6.84373C36.109 6.77244 35.7024 7.0576 35.5668 7.55661L31.5 18.2499H0.667247C0.396124 18.2499 0.125 18.4638 0.125 18.8202L0.125 19.9609C0.125 20.2461 0.396123 20.5312 0.667246 20.5312H32.1778Z" fill="#502989"/>
</svg>
