<svg width="65" height="121" viewBox="0 0 65 121" fill="none" xmlns="http://www.w3.org/2000/svg">
<g clip-path="url(#clip0_1_500)">
<path d="M33.4464 63.4674L21.8154 63.5166C19.4029 63.5279 17.0662 64.5596 15.5575 66.4377C14.6764 67.5336 14.1773 68.7353 14.1055 69.9597C14.166 68.7051 14.6802 67.4693 15.6028 66.3508C17.1645 64.4462 19.558 63.4108 22.0233 63.4221L33.4464 63.4674V63.4674Z" fill="url(#paint0_linear_1_500)"/>
<path d="M35.5335 72.1174C35.594 72.0683 35.6658 72.0456 35.7414 72.0305C35.6696 72.0494 35.5977 72.0683 35.5335 72.1174C35.4957 72.1552 35.4578 72.193 35.42 72.2308C35.3633 72.2384 35.299 72.2232 35.2461 72.2497C35.299 72.227 35.3633 72.2384 35.42 72.2308C35.4578 72.193 35.4957 72.1552 35.5335 72.1174Z" fill="white"/>
<path d="M35.197 72.2875C35.1781 72.3253 35.1592 72.3593 35.1403 72.3971C34.9474 72.4575 34.7962 72.5596 34.6638 72.688C34.7962 72.5596 34.9512 72.4538 35.1403 72.3971C35.1592 72.3593 35.1781 72.3253 35.197 72.2875Z" fill="white"/>
<path d="M33.7109 68.6559C33.7487 68.7088 33.7677 68.7655 33.7714 68.8297C33.7677 68.7655 33.745 68.705 33.7109 68.6559Z" fill="white"/>
<path d="M36.7813 71.7773C36.717 71.766 36.6527 71.8076 36.5922 71.902C36.509 71.902 36.4258 71.8945 36.3464 71.902C36.4296 71.902 36.5128 71.902 36.5922 71.902C36.6565 71.8076 36.7208 71.766 36.7813 71.7773Z" fill="white"/>
<path d="M39.1747 73.1982C39.1368 73.1377 39.0839 73.0886 38.9932 73.0697C39.0839 73.0886 39.1406 73.1377 39.1747 73.1982Z" fill="white"/>
<path d="M30.4703 80.3518C30.3758 80.2762 30.2851 80.2006 30.1716 80.1628C30.2851 80.2006 30.3758 80.2762 30.4703 80.3518Z" fill="white"/>
<path d="M38.0972 72.2308C38.1577 72.2422 38.2333 72.2233 38.2787 72.2573C38.2333 72.2233 38.1577 72.2422 38.0972 72.2308Z" fill="white"/>
<path d="M31.8657 68.4708C31.8316 68.5313 31.809 68.5955 31.7976 68.6711C31.809 68.5993 31.8316 68.5313 31.8657 68.4708Z" fill="white"/>
<path d="M31.6349 68.8373C31.6349 68.758 31.6689 68.705 31.7294 68.6824C31.6689 68.705 31.6387 68.758 31.6349 68.8373C31.5517 68.8449 31.5101 68.8864 31.4761 68.9393C31.5063 68.8864 31.5517 68.8449 31.6349 68.8373Z" fill="white"/>
<path d="M32.0737 70.7343C32.1191 70.7343 32.1645 70.7267 32.1985 70.6852C32.2514 70.6852 32.3044 70.6852 32.3535 70.6852C32.3006 70.6852 32.2477 70.6852 32.1985 70.6852C32.1645 70.7267 32.1191 70.7305 32.0737 70.7343Z" fill="white"/>
<path d="M32.3647 71.0859C32.3723 71.0594 32.3874 71.0329 32.4139 71.0103C32.4139 70.9574 32.4177 70.9007 32.4215 70.8478C32.4215 70.9007 32.4177 70.9574 32.4139 71.0103C32.3874 71.0329 32.3723 71.0594 32.3647 71.0859Z" fill="white"/>
<path d="M32.4215 70.8477C32.3988 70.7948 32.3799 70.7419 32.3572 70.6852C32.3799 70.7381 32.3988 70.7948 32.4215 70.8477Z" fill="white"/>
<path d="M33.7639 73.3721C33.7639 73.4212 33.7639 73.4665 33.7601 73.5157C33.7601 73.5383 33.7601 73.561 33.7488 73.5837C33.7563 73.5648 33.7601 73.5421 33.7601 73.5157C33.7601 73.4665 33.7601 73.4212 33.7639 73.3721Z" fill="white"/>
<path d="M25.4754 77.3097C25.4149 77.3437 25.3507 77.3626 25.2864 77.3777C25.3507 77.3626 25.4149 77.3399 25.4754 77.3097C25.5624 77.2681 25.6532 77.2379 25.7439 77.2114C25.6494 77.2379 25.5586 77.2681 25.4754 77.3097Z" fill="white"/>
<path d="M27.1655 76.6219C27.1655 76.6635 27.158 76.7051 27.158 76.7467C27.158 76.7051 27.1655 76.6635 27.1693 76.6219H27.1655Z" fill="white"/>
<path d="M23.5507 76.1799C22.8626 76.1799 22.1782 76.1799 21.49 76.1799C22.1782 76.1799 22.8626 76.1799 23.5507 76.1799C23.5923 76.0854 23.6604 76.0514 23.736 76.04C23.6604 76.0514 23.5886 76.0854 23.5507 76.1799Z" fill="white"/>
<path d="M24.394 76.1155C24.4697 76.1042 24.5453 76.0929 24.6209 76.0778C24.8402 76.0173 25.0558 75.9606 25.2713 75.8964C25.0558 75.9606 24.8364 76.0211 24.6209 76.0778C24.5453 76.0929 24.4697 76.1042 24.394 76.1155Z" fill="white"/>
<path d="M25.5397 75.647C25.4565 75.6961 25.3733 75.749 25.2864 75.7944C25.3733 75.749 25.4565 75.6999 25.5397 75.647Z" fill="white"/>
<path d="M29.2 71.853C29.2 71.8114 29.2 71.7736 29.2037 71.7321C29.2037 71.7736 29.2037 71.8114 29.2 71.853Z" fill="white"/>
<path d="M29.9638 80.1289C29.9373 80.1213 29.9184 80.11 29.9033 80.0986C29.9184 80.1137 29.9373 80.1213 29.9638 80.1289Z" fill="white"/>
<path d="M34.0891 73.2399C34.0891 73.1756 34.0815 73.1151 34.0815 73.0509C34.0815 73.1151 34.0891 73.1756 34.0891 73.2399Z" fill="white"/>
<path d="M27.6723 73.8935C27.5399 74.0598 27.3962 74.2147 27.2488 74.3621C27.3962 74.2147 27.5399 74.0598 27.6723 73.8935C27.6798 73.8293 27.7177 73.7953 27.7781 73.7839C27.7177 73.7953 27.6798 73.8331 27.6723 73.8935Z" fill="white"/>
<path d="M27.9446 73.5573C27.8765 73.6215 27.8084 73.6895 27.7744 73.784C27.8084 73.6933 27.8727 73.6253 27.9446 73.5611C27.9446 73.493 27.9597 73.4326 28.024 73.4061C27.9597 73.4326 27.9484 73.493 27.9446 73.5611V73.5573Z" fill="white"/>
<path d="M31.2568 69.2266C31.2417 69.2606 31.2417 69.2984 31.2417 69.3399C31.2417 69.2984 31.2417 69.2606 31.2568 69.2266Z" fill="white"/>
<path d="M28.0579 73.391C28.0957 73.3343 28.1373 73.2814 28.1751 73.2247C28.1751 73.1907 28.1902 73.1681 28.2053 73.1492C28.1864 73.1681 28.1751 73.1907 28.1751 73.2247C28.1373 73.2814 28.0957 73.3343 28.0579 73.391Z" fill="white"/>
<path d="M26.3413 75.2918C26.364 75.1822 26.4169 75.1142 26.4888 75.0688C26.4169 75.1104 26.3678 75.1822 26.3413 75.2918Z" fill="white"/>
<path d="M26.0122 77.1283C25.9669 77.1434 25.9253 77.1585 25.8799 77.1699C25.9253 77.1547 25.9706 77.1434 26.0122 77.1283Z" fill="white"/>
<path d="M26.2883 76.9923C26.2392 77.0263 26.1862 77.0566 26.1333 77.0792C26.1862 77.0528 26.2392 77.0263 26.2883 76.9923Z" fill="white"/>
<path d="M37.651 78.1373C37.651 78.1373 37.6169 78.1335 37.6018 78.1298C37.6169 78.1298 37.6321 78.1373 37.651 78.1373Z" fill="white"/>
<path d="M35.1365 84.2252C35.1629 84.2214 35.1818 84.2365 35.1894 84.2667C35.1818 84.2365 35.1629 84.2176 35.1365 84.2252Z" fill="white"/>
<path d="M37.6775 71.9323C37.6964 71.9511 37.7077 71.9776 37.7077 72.0116C37.7418 72.0494 37.7834 72.057 37.8325 72.0607C37.7834 72.0607 37.7418 72.0494 37.7077 72.0116C37.7077 71.9738 37.6964 71.9474 37.6775 71.9323Z" fill="white"/>
<path d="M35.7452 80.7788C35.7377 80.7939 35.7263 80.809 35.7188 80.8242C35.7263 80.809 35.7377 80.7939 35.7452 80.7788Z" fill="white"/>
<path d="M37.9497 78.0656C37.927 78.0656 37.9156 78.0769 37.9119 78.0996C37.9119 78.0769 37.927 78.0656 37.9497 78.0656C37.9837 77.99 38.0329 77.9295 38.1085 77.8955C38.0329 77.9295 37.9875 77.99 37.9497 78.0656Z" fill="white"/>
<path d="M35.367 80.9678C35.2271 80.9943 35.1855 81.1946 35.0116 81.153C34.9889 81.2172 34.9435 81.2588 34.8792 81.2777C34.849 81.2928 34.8149 81.3079 34.7847 81.323C34.7469 81.3004 34.6713 81.3117 34.641 81.2928C34.6713 81.3117 34.7469 81.3041 34.7847 81.323C34.7318 81.4251 34.6561 81.4931 34.5351 81.4893H34.52L34.5049 81.4931C34.4898 81.4855 34.4746 81.4818 34.4595 81.478C34.4746 81.4818 34.4898 81.4855 34.5049 81.4931C34.4028 81.6896 34.1419 81.7009 34.0398 81.8974C34.0511 81.9579 34.07 82.0222 34.0398 82.0826C34.0398 82.3245 34.0398 82.5625 34.0436 82.8044C34.1457 82.8724 34.2289 82.8649 34.3007 82.759C34.3801 82.6457 34.4633 82.5361 34.5427 82.4265C34.917 81.905 35.3481 81.4251 35.6619 80.862C35.5409 80.8356 35.4615 80.9187 35.367 80.9678V80.9678Z" fill="white"/>
<path d="M35.7717 80.7108C35.7641 80.7297 35.7566 80.7524 35.749 80.7713C35.7566 80.7524 35.7641 80.7297 35.7717 80.7108C35.923 80.639 36.0175 80.5106 36.1007 80.3783C36.0175 80.5106 35.923 80.639 35.7717 80.7108Z" fill="white"/>
<path d="M31.0678 69.5591C31.0754 69.4873 31.0867 69.4155 31.1359 69.3739C31.0867 69.4155 31.0792 69.4873 31.0678 69.5591C30.9468 69.5893 30.8901 69.6687 30.8447 69.7594C30.8901 69.6687 30.9468 69.5855 31.0678 69.5591Z" fill="white"/>
<path d="M52.7871 70.4623C52.7871 70.3905 52.7871 70.3111 52.7871 70.2318C52.7871 70.0655 52.7758 69.903 52.7644 69.7405C52.7493 69.5931 52.7304 69.4457 52.7039 69.2984C52.5262 68.2705 52.0422 67.2766 51.286 66.3508C49.7205 64.4462 47.3308 63.4108 44.8655 63.4221L33.4462 63.4674L21.8152 63.5166C19.4028 63.5279 17.066 64.5596 15.5573 66.4377C14.6763 67.5336 14.1771 68.7353 14.1053 69.9597C14.094 70.1562 14.0977 70.3565 14.1053 70.553C14.1431 71.237 14.3019 71.7471 14.3813 71.9814C17.7353 82.2261 19.2062 85.6801 23.0252 89.837C24.4091 91.3485 26.5152 92.0325 27.1921 92.2668C29.6688 93.1398 31.8543 92.981 33.3101 92.9962H33.5634C35.0192 92.981 37.2085 93.1435 39.6814 92.2668C40.3583 92.0325 42.4606 91.3485 43.8483 89.837C44.4722 89.1567 45.0356 88.4954 45.5499 87.819C45.9431 87.3126 46.3061 86.7949 46.654 86.2583C48.6656 83.1407 50.0987 79.2899 52.4922 71.9814C52.5753 71.7358 52.7455 71.1878 52.772 70.4585L52.7871 70.4623ZM45.2852 77.767C44.6083 77.767 43.9315 77.7821 43.2547 77.767C41.1485 77.7141 39.5529 78.621 38.3277 80.2989C37.0951 81.9843 35.8321 83.6433 34.5768 85.3098C34.2932 85.6877 33.6882 85.9106 33.2571 85.7632C32.7278 85.5819 32.3081 85.2493 32.274 84.588C32.2286 83.7566 32.2589 82.9215 32.2551 82.0901C32.2551 82.0334 32.2702 81.9805 32.2778 81.9238C31.877 81.5799 31.3968 81.3494 30.9733 81.0358C30.8901 80.9753 30.8145 80.9149 30.7691 80.8204C30.7426 80.8128 30.7162 80.8053 30.6897 80.8015C30.4401 80.6919 30.217 80.5445 30.062 80.314C30.0469 80.2989 30.0318 80.2875 30.0129 80.2724C29.4759 79.9701 29.06 79.5204 28.6365 79.0858C27.9824 78.4094 27.5135 77.612 27.1505 76.7467C26.8442 76.8903 26.5417 77.0452 26.2316 77.1775C25.7779 77.374 25.309 77.5176 24.8213 77.6272C23.5243 77.9219 22.216 77.7179 20.9153 77.7859C20.5976 77.801 20.1552 77.4042 20.0872 77.1397C19.9813 76.724 20.1515 76.3083 20.4804 76.1005C20.677 75.9758 20.8737 75.9304 21.1043 75.9304C21.8643 75.9418 22.6244 75.938 23.3882 75.9304C24.583 75.9229 25.6493 75.5412 26.606 74.8345C26.6514 74.8005 26.6967 74.7703 26.7421 74.74C26.6665 73.75 27.0219 72.9337 27.7782 72.3026C28.1828 71.9663 28.6554 71.7471 29.1999 71.7282C29.9108 70.7873 30.6179 69.8387 31.3363 68.9016C31.5858 68.5766 31.7976 68.2176 32.2022 68.0248C32.8715 67.7074 33.5937 68.04 33.9075 68.603C34.0247 68.8146 34.0663 69.0263 34.0663 69.2643C34.0663 70.5227 34.0701 71.7849 34.0739 73.0433C34.1419 73.0206 34.21 73.0168 34.2629 72.9488C34.6448 72.4613 35.1251 72.0759 35.696 71.8529C36.2556 71.6337 36.8417 71.5242 37.4543 71.7282C37.84 71.8605 38.2105 72.0003 38.5319 72.2611C39.118 72.7334 39.4394 73.3418 39.5831 74.0787C39.6965 74.6796 39.6134 75.2615 39.5037 75.8397C39.4545 76.0967 39.4016 76.3801 39.2504 76.6144C39.1672 76.7391 39.1936 76.8827 39.1899 77.0188C39.152 77.0906 39.0991 77.117 39.0348 77.1283C39.0991 77.117 39.1558 77.0906 39.1899 77.0188C39.8251 76.6371 40.5019 76.3385 41.2242 76.1723C41.7271 76.0551 42.2375 75.9493 42.7593 75.9455C43.595 75.9418 44.4306 75.9418 45.2625 75.9455C45.7919 75.9455 46.1964 76.3499 46.1964 76.8676C46.1964 77.374 45.8032 77.7594 45.2738 77.7594L45.2852 77.767Z" fill="white"/>
<path d="M38.2295 77.8387C38.2522 77.8463 38.2786 77.8539 38.2976 77.8614C38.2786 77.8539 38.2522 77.8463 38.2295 77.8387Z" fill="white"/>
<path d="M42.4341 77.68C42.4946 77.6725 42.5551 77.6574 42.6118 77.6347C42.7555 77.612 42.8992 77.5969 43.0429 77.5894C42.8992 77.5969 42.7555 77.612 42.6118 77.6347C42.5551 77.6574 42.4946 77.6687 42.4341 77.68Z" fill="white"/>
<path d="M38.324 72.3442C38.5357 72.3971 38.6945 72.5067 38.808 72.6541C38.6945 72.5067 38.5395 72.4009 38.324 72.3442Z" fill="white"/>
<path d="M46.0225 76.5653V77.1435C46.1132 76.9697 46.1624 76.792 46.0225 76.5653Z" fill="white"/>
<path d="M33.0227 74.245C33.0227 74.2752 33.0227 74.3055 33.0265 74.3319C33.0265 74.3017 33.0265 74.2715 33.0227 74.245C32.8639 74.1354 32.7958 73.9691 32.7278 73.8066C32.7958 73.9729 32.8639 74.1392 33.0227 74.245Z" fill="white"/>
<path d="M32.5841 73.5232C32.5123 73.4741 32.4707 73.4174 32.448 73.3531C32.4707 73.4174 32.5123 73.4741 32.5841 73.5232C32.6484 73.6063 32.69 73.7084 32.7316 73.8066C32.69 73.7084 32.6484 73.6101 32.5841 73.5232Z" fill="white"/>
<path d="M32.6824 73.988C32.7013 74.0258 32.7051 74.075 32.7051 74.1241C32.8412 74.2563 32.8828 74.434 32.9508 74.5964C32.8828 74.4302 32.8412 74.2526 32.7051 74.1241C32.7051 74.075 32.7013 74.0296 32.6824 73.988Z" fill="white"/>
<path d="M33.1323 74.604C33.1323 74.5776 33.1323 74.5511 33.1323 74.5247C33.0643 74.5133 33.0189 74.4907 33.0076 74.4453C33.0189 74.4907 33.0681 74.5133 33.1323 74.5247C33.1399 74.5473 33.1323 74.5776 33.1323 74.604Z" fill="white"/>
<path d="M32.3081 81.92C32.3951 81.9427 32.4858 81.9654 32.5728 81.9918C32.4858 81.9692 32.3951 81.9465 32.3081 81.92Z" fill="white"/>
<path d="M33.7714 68.8486C33.7714 68.8751 33.7714 68.9015 33.7676 68.9318C33.8319 68.9582 33.8924 68.9885 33.9264 69.0376C33.8886 68.9885 33.8319 68.9582 33.7676 68.9318C33.7714 68.9015 33.7714 68.8751 33.7714 68.8486Z" fill="white"/>
<path d="M32.2023 73.1377C32.2023 73.1717 32.2023 73.2058 32.1985 73.236C32.1985 73.202 32.1985 73.168 32.2023 73.1377C32.2098 73.1226 32.2249 73.1037 32.2249 73.0886C32.2325 72.4084 32.2363 71.7282 32.2438 71.048C32.2438 70.8628 32.1115 70.9157 32.0094 70.9082C32.0094 70.9762 31.9943 71.0404 31.9451 71.0895C31.8241 71.2331 31.7523 71.4145 31.6048 71.5355V71.5392C31.5405 71.6753 31.4725 71.8113 31.3288 71.8794C31.3099 71.9549 31.2645 72.0003 31.1851 72.0116C31.17 72.0985 31.1586 72.1854 31.1435 72.2724C31.204 72.2799 31.2418 72.3139 31.2683 72.3668C31.1586 72.552 31.0528 72.741 30.9431 72.9299C31.0528 72.7447 31.1586 72.5558 31.2683 72.3706C31.3742 72.3971 31.4687 72.4424 31.5065 72.5596C31.533 72.5671 31.5557 72.5709 31.5821 72.5785C31.6804 72.6314 31.7561 72.7032 31.809 72.8014C31.9603 72.8921 31.9905 73.1264 32.206 73.1453L32.2023 73.1377Z" fill="white"/>
<path d="M33.6202 81.9616C33.6089 81.9579 33.5937 81.9465 33.5862 81.9427C33.5975 81.9427 33.6089 81.9541 33.6202 81.9616Z" fill="white"/>
<path d="M33.7336 82.0599C33.7904 82.0297 33.8509 82.0032 33.9114 81.973L33.9227 81.9655L33.9114 81.973C33.8546 82.0032 33.7941 82.0297 33.7374 82.0599H33.7336Z" fill="white"/>
<path d="M33.3026 74.1166C33.2723 74.143 33.2534 74.1846 33.2534 74.2413C33.2534 74.1846 33.2723 74.1468 33.3026 74.1166Z" fill="white"/>
<path d="M33.1361 74.6456C33.1361 74.6456 33.1323 74.6191 33.1323 74.6078C33.1323 74.6191 33.1323 74.6342 33.1361 74.6456Z" fill="white"/>
<path d="M33.6051 73.8483C33.5408 73.9201 33.4652 73.9843 33.4274 74.0712C33.4727 74.1392 33.4576 74.1695 33.4236 74.1884C33.4576 74.1695 33.4727 74.1392 33.4274 74.0712C33.4652 73.9843 33.5446 73.9201 33.6051 73.8483Z" fill="white"/>
<path d="M40.105 18.0596V15.7658C40.105 14.8248 39.3412 14.0577 38.3959 14.0577H32.9245V4.55742C33.7753 4.19842 34.3727 3.35571 34.3727 2.37318C34.3727 1.06189 33.3102 0 31.9981 0C30.686 0 29.6235 1.06189 29.6235 2.37318C29.6235 3.35571 30.2209 4.19842 31.0717 4.55742V14.0577H25.6003C24.6588 14.0577 23.8912 14.821 23.8912 15.7658V18.0596C12.1657 19.4994 3 29.5552 3 41.6516V48.5935C3 55.9436 9.01591 61.9559 16.3704 61.9559H47.6296C55.0143 61.9559 61 55.9738 61 48.5935V41.6516C61 29.5552 51.8343 19.4994 40.105 18.0596V18.0596ZM51.3125 44.0777C50.5525 44.4518 49.7017 44.6483 48.8396 44.6483H14.0298C13.1639 44.6483 12.3131 44.4518 11.5569 44.0777C9.69274 43.1556 8.64157 41.2964 8.90247 39.388L8.92138 39.2482C9.81374 32.7862 15.6708 27.8169 22.8476 27.4465C25.8839 27.2878 29.0715 27.2085 32.3989 27.2273C35.0042 27.2425 37.5225 27.318 39.9462 27.4427C47.1532 27.8131 53.0519 32.7635 53.948 39.2482C53.9556 39.2935 53.9594 39.3427 53.9669 39.388C54.2316 41.2964 53.1767 43.1556 51.3125 44.0777V44.0777Z" fill="white"/>
</g>
<path d="M5.42969 109.749L2.72266 118H0.541992L4.24023 108.047H5.62793L5.42969 109.749ZM7.67871 118L4.96484 109.749L4.74609 108.047H6.14746L9.86621 118H7.67871ZM7.55566 114.295V115.901H2.29883V114.295H7.55566ZM18.8896 108.047V118H16.8389L12.8398 111.328V118H10.7891V108.047H12.8398L16.8457 114.726V108.047H18.8896ZM26.1699 108.047H28.2139V114.623C28.2139 115.389 28.0498 116.034 27.7217 116.558C27.3981 117.082 26.9492 117.476 26.375 117.74C25.8053 118.005 25.1491 118.137 24.4062 118.137C23.6634 118.137 23.0026 118.005 22.4238 117.74C21.8496 117.476 21.3984 117.082 21.0703 116.558C20.7467 116.034 20.585 115.389 20.585 114.623V108.047H22.6357V114.623C22.6357 115.07 22.7064 115.434 22.8477 115.717C22.9889 115.999 23.1917 116.207 23.4561 116.339C23.7249 116.471 24.0417 116.537 24.4062 116.537C24.7799 116.537 25.0967 116.471 25.3564 116.339C25.6208 116.207 25.8213 115.999 25.958 115.717C26.0993 115.434 26.1699 115.07 26.1699 114.623V108.047ZM29.9023 108.047H33.6143C34.3753 108.047 35.0293 108.161 35.5762 108.389C36.1276 108.617 36.5514 108.954 36.8477 109.4C37.1439 109.847 37.292 110.396 37.292 111.048C37.292 111.581 37.2008 112.039 37.0186 112.422C36.8408 112.8 36.5879 113.117 36.2598 113.372C35.9362 113.623 35.5557 113.823 35.1182 113.974L34.4688 114.315H31.2422L31.2285 112.716H33.6279C33.988 112.716 34.2865 112.652 34.5234 112.524C34.7604 112.397 34.9382 112.219 35.0566 111.991C35.1797 111.763 35.2412 111.499 35.2412 111.198C35.2412 110.879 35.182 110.604 35.0635 110.371C34.945 110.139 34.765 109.961 34.5234 109.838C34.2819 109.715 33.9788 109.653 33.6143 109.653H31.9531V118H29.9023V108.047ZM35.4668 118L33.1973 113.563L35.3643 113.55L37.6611 117.904V118H35.4668ZM42.918 109.749L40.2109 118H38.0303L41.7285 108.047H43.1162L42.918 109.749ZM45.167 118L42.4531 109.749L42.2344 108.047H43.6357L47.3545 118H45.167ZM45.0439 114.295V115.901H39.7871V114.295H45.0439ZM53.9443 108.047V118H51.9004V108.047H53.9443ZM60.0352 109.749L57.3281 118H55.1475L58.8457 108.047H60.2334L60.0352 109.749ZM62.2842 118L59.5703 109.749L59.3516 108.047H60.7529L64.4717 118H62.2842ZM62.1611 114.295V115.901H56.9043V114.295H62.1611Z" fill="white"/>
<defs>
<linearGradient id="paint0_linear_1_500" x1="19.4899" y1="70.7835" x2="37.5025" y2="49.7354" gradientUnits="userSpaceOnUse">
<stop offset="0.04" stop-color="#06CFF1"/>
<stop offset="1" stop-color="#DEFA8E"/>
</linearGradient>
<clipPath id="clip0_1_500">
<rect width="58" height="93" fill="white" transform="translate(3)"/>
</clipPath>
</defs>
</svg>
