<svg width="114" height="103" viewBox="0 0 114 103" fill="none" xmlns="http://www.w3.org/2000/svg">
<g clip-path="url(#clip0_505_222)">
<path d="M53.625 41H45.75V33.125C45.75 32.5625 45.1875 32 44.625 32H37.875C37.1719 32 36.75 32.5625 36.75 33.125V41H28.875C28.1719 41 27.75 41.5625 27.75 42.125V48.875C27.75 49.5781 28.1719 50 28.875 50H36.75V57.875C36.75 58.5781 37.1719 59 37.875 59H44.625C45.1875 59 45.75 58.5781 45.75 57.875V50H53.625C54.1875 50 54.75 49.5781 54.75 48.875V42.125C54.75 41.5625 54.1875 41 53.625 41ZM100.875 68H97.5V52.8125C97.5 50.5625 96.5156 48.1719 94.8281 46.4844L83.0156 34.6719C81.3281 32.9844 79.0781 32 76.6875 32H70.5V25.1094C70.5 21.4531 67.2656 18.5 63.4688 18.5H18.8906C15.0938 18.5 12 21.4531 12 25.1094V66.0312C12 69.6875 15.0938 72.5 18.8906 72.5H21.1406C21 73.3438 21 74.0469 21 74.75C21 81.0781 25.9219 86 32.25 86C38.4375 86 43.5 81.0781 43.5 74.75C43.5 74.0469 43.3594 73.3438 43.2188 72.5H70.6406C70.5 73.3438 70.5 74.0469 70.5 74.75C70.5 81.0781 75.4219 86 81.75 86C87.9375 86 93 81.0781 93 74.75C93 74.0469 92.8594 73.3438 92.7188 72.5H100.875C101.438 72.5 102 72.0781 102 71.375V69.125C102 68.5625 101.438 68 100.875 68ZM32.25 81.5C28.4531 81.5 25.5 78.5469 25.5 74.75C25.5 71.0938 28.4531 68 32.25 68C35.9062 68 39 71.0938 39 74.75C39 78.5469 35.9062 81.5 32.25 81.5ZM66 68H41.1094C39.1406 65.3281 35.9062 63.5 32.25 63.5C28.5938 63.5 25.3594 65.3281 23.25 68H18.8906C17.4844 68 16.5 67.1562 16.5 66.0312V25.1094C16.5 23.9844 17.4844 23 18.8906 23H63.4688C64.875 23 66 23.9844 66 25.1094V68ZM70.5 36.5H76.6875C77.8125 36.5 78.9375 37.0625 79.7812 37.9062L91.5938 49.7188C91.7344 49.8594 91.7344 50 91.875 50.1406H70.5V36.5ZM81.75 81.5C77.9531 81.5 75 78.5469 75 74.75C75 71.0938 77.9531 68 81.75 68C85.4062 68 88.5 71.0938 88.5 74.75C88.5 78.5469 85.4062 81.5 81.75 81.5ZM93 68H90.6094C88.6406 65.3281 85.4062 63.5 81.75 63.5C78.0938 63.5 74.8594 65.3281 72.75 68H70.5V54.5H93V68Z" fill="#08395B"/>
<path d="M53.625 41H45.75V33.125C45.75 32.5625 45.1875 32 44.625 32H37.875C37.1719 32 36.75 32.5625 36.75 33.125V41H28.875C28.1719 41 27.75 41.5625 27.75 42.125V48.875C27.75 49.5781 28.1719 50 28.875 50H36.75V57.875C36.75 58.5781 37.1719 59 37.875 59H44.625C45.1875 59 45.75 58.5781 45.75 57.875V50H53.625C54.1875 50 54.75 49.5781 54.75 48.875V42.125C54.75 41.5625 54.1875 41 53.625 41ZM100.875 68H97.5V52.8125C97.5 50.5625 96.5156 48.1719 94.8281 46.4844L83.0156 34.6719C81.3281 32.9844 79.0781 32 76.6875 32H70.5V25.1094C70.5 21.4531 67.2656 18.5 63.4688 18.5H18.8906C15.0938 18.5 12 21.4531 12 25.1094V66.0312C12 69.6875 15.0938 72.5 18.8906 72.5H21.1406C21 73.3438 21 74.0469 21 74.75C21 81.0781 25.9219 86 32.25 86C38.4375 86 43.5 81.0781 43.5 74.75C43.5 74.0469 43.3594 73.3438 43.2188 72.5H70.6406C70.5 73.3438 70.5 74.0469 70.5 74.75C70.5 81.0781 75.4219 86 81.75 86C87.9375 86 93 81.0781 93 74.75C93 74.0469 92.8594 73.3438 92.7188 72.5H100.875C101.438 72.5 102 72.0781 102 71.375V69.125C102 68.5625 101.438 68 100.875 68ZM32.25 81.5C28.4531 81.5 25.5 78.5469 25.5 74.75C25.5 71.0938 28.4531 68 32.25 68C35.9062 68 39 71.0938 39 74.75C39 78.5469 35.9062 81.5 32.25 81.5ZM66 68H41.1094C39.1406 65.3281 35.9062 63.5 32.25 63.5C28.5938 63.5 25.3594 65.3281 23.25 68H18.8906C17.4844 68 16.5 67.1562 16.5 66.0312V25.1094C16.5 23.9844 17.4844 23 18.8906 23H63.4688C64.875 23 66 23.9844 66 25.1094V68ZM70.5 36.5H76.6875C77.8125 36.5 78.9375 37.0625 79.7812 37.9062L91.5938 49.7188C91.7344 49.8594 91.7344 50 91.875 50.1406H70.5V36.5ZM81.75 81.5C77.9531 81.5 75 78.5469 75 74.75C75 71.0938 77.9531 68 81.75 68C85.4062 68 88.5 71.0938 88.5 74.75C88.5 78.5469 85.4062 81.5 81.75 81.5ZM93 68H90.6094C88.6406 65.3281 85.4062 63.5 81.75 63.5C78.0938 63.5 74.8594 65.3281 72.75 68H70.5V54.5H93V68Z" fill="white"/>
</g>
<defs>
<clipPath id="clip0_505_222">
<rect width="90" height="68" fill="white" transform="translate(12 18)"/>
</clipPath>
</defs>
</svg>
