<svg width="114" height="103" viewBox="0 0 114 103" fill="none" xmlns="http://www.w3.org/2000/svg">
<path d="M32.75 52C32.75 52.1484 32.6016 52.1484 32.6016 52.2968C39.5782 49.625 47.8907 47.25 56.5 47.25C63.0313 47.25 69.7109 48.7343 75.5 50.6641C75.3516 49.1797 75.5 47.6953 76.5391 45.9141C70.3047 43.9843 63.4766 42.5 56.5 42.5C47.2968 42.5 38.5391 44.875 31.2657 47.6953C32.1563 49.0313 32.75 50.3672 32.75 52ZM82.625 52C83.8125 52 85 50.9609 85 49.625C85 48.4375 83.8125 47.25 82.625 47.25C81.2891 47.25 80.25 48.4375 80.25 49.625C80.25 50.9609 81.2891 52 82.625 52ZM95.6875 62.8359L93.0157 66.8438C92.2734 67.8828 90.9375 68.1797 89.8984 67.4375C86.6328 65.5078 79.2109 61.6484 70.75 59.125V79.9063C70.75 80.3516 70.8984 80.5 71.3438 80.5H74.9063C75.2032 80.5 75.5 80.3516 75.5 79.9063V65.8047C80.9922 68.0312 85.4453 70.4063 87.5234 71.5938C90.4922 73.375 94.7968 72.7812 97.0234 69.3672L99.6953 65.5078C101.625 62.5391 101.328 57.7891 97.4688 55.4141C95.5391 54.375 92.8672 52.7422 89.6016 51.1093C89.1562 52.7422 88.2657 54.2266 86.9297 55.2657C90.4922 56.8984 93.3125 58.3828 94.9453 59.4218C96.1328 60.1641 96.4297 61.6484 95.6875 62.8359ZM70.75 28.25C70.75 20.5313 64.2188 14 56.5 14C48.6328 14 42.25 20.5313 42.25 28.25C42.25 36.1172 48.6328 42.5 56.5 42.5C64.2188 42.5 70.75 36.1172 70.75 28.25ZM56.5 37.75C51.1563 37.75 47 33.5938 47 28.25C47 23.0547 51.1563 18.75 56.5 18.75C61.6953 18.75 66 23.0547 66 28.25C66 33.5938 61.6953 37.75 56.5 37.75ZM15.8281 69.3672C18.0547 72.7812 22.3593 73.375 25.3282 71.5938C27.4063 70.4063 31.8593 67.8828 37.5 65.8047V79.9063C37.5 80.3516 37.6484 80.5 38.0938 80.5H41.6563C41.9532 80.5 42.25 80.3516 42.25 79.9063V59.125C33.6407 61.6484 26.2187 65.5078 22.9532 67.5859C21.9141 68.1797 20.5782 67.8828 19.8359 66.8438L17.1641 62.8359C16.4219 61.6484 16.7188 60.1641 17.9063 59.4218C18.7969 58.9766 19.8359 58.3828 21.1718 57.6407C19.8359 56.6016 18.9453 55.2657 18.6484 53.6328C17.4609 54.2266 16.2734 54.9688 15.3828 55.4141C11.5234 57.7891 11.2266 62.5391 13.1563 65.5078L15.8281 69.3672ZM102.813 85.25H10.1875C9.44531 85.25 9 85.8438 9 86.4375V88.8125C9 89.5547 9.44531 90 10.1875 90H102.813C103.406 90 104 89.5547 104 88.8125V86.4375C104 85.8438 103.406 85.25 102.813 85.25ZM25.625 54.375C26.8125 54.375 28 53.3359 28 52C28 50.8125 26.8125 49.625 25.625 49.625C24.2891 49.625 23.25 50.8125 23.25 52C23.25 53.3359 24.2891 54.375 25.625 54.375ZM47 59.125C47 60.4609 48.0391 61.5 49.375 61.5C50.5625 61.5 51.75 60.4609 51.75 59.125C51.75 57.9375 50.5625 56.75 49.375 56.75C48.0391 56.75 47 57.9375 47 59.125ZM61.25 73.375C61.25 74.7109 62.2891 75.75 63.625 75.75C64.8125 75.75 66 74.7109 66 73.375C66 72.1875 64.8125 71 63.625 71C62.2891 71 61.25 72.1875 61.25 73.375Z" fill="white"/>
</svg>
