<svg width="114" height="103" viewBox="0 0 114 103" fill="none" xmlns="http://www.w3.org/2000/svg">
<g clip-path="url(#clip0_505_223)">
<path d="M96.5781 46.9375L59.5938 17.125C58.75 16.4219 57.625 16 56.5 16C55.2344 16 54.1094 16.4219 53.2656 17.125L16.2812 46.9375C16 47.2188 16 47.5 16 47.7812C16 47.9219 16 48.2031 16.1406 48.3438L18.1094 50.7344C18.25 51.0156 18.5312 51.1562 18.9531 51.1562C19.0938 51.1562 19.375 51.0156 19.5156 50.875L25 46.5156V85.75C25 87.0156 25.9844 88 27.25 88H85.75C86.875 88 88 87.0156 88 85.75V46.5156L93.3438 51.0156C93.4844 51.1562 93.7656 51.1562 94.0469 51.1562C94.3281 51.1562 94.6094 51.0156 94.75 50.875L96.7188 48.3438C96.8594 48.2031 96.8594 47.9219 96.8594 47.7812C96.8594 47.5 96.8594 47.2188 96.5781 46.9375ZM83.5 83.5H29.5V42.8594L55.7969 21.625C55.9375 21.4844 56.2188 21.4844 56.3594 21.4844C56.6406 21.4844 56.7812 21.4844 57.0625 21.625L83.5 42.8594V83.5ZM52 46.375V54.25H44.125C43.4219 54.25 43 54.8125 43 55.375V62.125C43 62.8281 43.4219 63.25 44.125 63.25H52V71.125C52 71.8281 52.4219 72.25 53.125 72.25H59.875C60.4375 72.25 61 71.8281 61 71.125V63.25H68.875C69.4375 63.25 70 62.8281 70 62.125V55.375C70 54.8125 69.4375 54.25 68.875 54.25H61V46.375C61 45.8125 60.4375 45.25 59.875 45.25H53.125C52.4219 45.25 52 45.8125 52 46.375Z" fill="white"/>
</g>
<defs>
<clipPath id="clip0_505_223">
<rect width="81" height="72" fill="white" transform="translate(16 16)"/>
</clipPath>
</defs>
</svg>
