<svg width="119" height="103" viewBox="0 0 119 103" fill="none" xmlns="http://www.w3.org/2000/svg">
<path d="M5.42383 98.3887H2.59863L2.06152 100H0.348145L3.25928 92.1797H4.75244L7.67969 100H5.96631L5.42383 98.3887ZM3.03369 97.0835H4.98877L4.00586 94.1562L3.03369 97.0835ZM13.6523 93.4849H11.2568V100H9.64551V93.4849H7.28223V92.1797H13.6523V93.4849ZM19.2812 96.6108H16.1875V98.7056H19.8184V100H14.5762V92.1797H19.8076V93.4849H16.1875V95.3486H19.2812V96.6108ZM27.123 100H25.5117L22.375 94.8545V100H20.7637V92.1797H22.375L25.5171 97.3359V92.1797H27.123V100ZM34.6694 97.395C34.6086 98.2365 34.297 98.8989 33.7349 99.3823C33.1763 99.8657 32.4386 100.107 31.522 100.107C30.5194 100.107 29.7298 99.7708 29.1533 99.0977C28.5804 98.4209 28.2939 97.4935 28.2939 96.3154V95.8374C28.2939 95.0854 28.4264 94.423 28.6914 93.8501C28.9564 93.2772 29.3341 92.8385 29.8247 92.5342C30.3188 92.2262 30.8918 92.0723 31.5435 92.0723C32.4458 92.0723 33.1727 92.314 33.7241 92.7974C34.2756 93.2808 34.5942 93.9593 34.6802 94.833H33.0688C33.0295 94.3281 32.888 93.9629 32.6445 93.7373C32.4046 93.5081 32.0376 93.3936 31.5435 93.3936C31.0063 93.3936 30.6035 93.5869 30.335 93.9736C30.07 94.3568 29.9339 94.953 29.9268 95.7622V96.353C29.9268 97.1981 30.0539 97.8158 30.3081 98.2061C30.5659 98.5964 30.9705 98.7915 31.522 98.7915C32.0197 98.7915 32.3903 98.6787 32.6338 98.4531C32.8809 98.224 33.0223 97.8713 33.0581 97.395H34.6694ZM37.4409 100H35.8296V92.1797H37.4409V100ZM45.3633 96.2671C45.3633 97.0369 45.2272 97.7119 44.9551 98.292C44.6829 98.8721 44.2926 99.3197 43.7842 99.6348C43.2793 99.9499 42.6992 100.107 42.0439 100.107C41.3958 100.107 40.8175 99.9517 40.3091 99.6401C39.8006 99.3286 39.4067 98.8846 39.1274 98.3081C38.8481 97.728 38.7067 97.062 38.7031 96.3101V95.9233C38.7031 95.1535 38.841 94.4767 39.1167 93.8931C39.396 93.3058 39.7881 92.8564 40.293 92.5449C40.8014 92.2298 41.3815 92.0723 42.0332 92.0723C42.6849 92.0723 43.2632 92.2298 43.7681 92.5449C44.2765 92.8564 44.6686 93.3058 44.9443 93.8931C45.2236 94.4767 45.3633 95.1517 45.3633 95.918V96.2671ZM43.7305 95.9126C43.7305 95.0926 43.5837 94.4696 43.29 94.0435C42.9964 93.6174 42.5775 93.4043 42.0332 93.4043C41.4925 93.4043 41.0754 93.6156 40.7817 94.0381C40.4881 94.457 40.3395 95.0729 40.3359 95.8857V96.2671C40.3359 97.0656 40.4827 97.6851 40.7764 98.1255C41.07 98.5659 41.4925 98.7861 42.0439 98.7861C42.5846 98.7861 43 98.5749 43.29 98.1523C43.5801 97.7262 43.7269 97.1068 43.7305 96.2939V95.9126ZM42.3447 90.085H44.0366L42.5488 91.75H41.2866L42.3447 90.085ZM52.8936 100H51.2822L48.1455 94.8545V100H46.5342V92.1797H48.1455L51.2876 97.3359V92.1797H52.8936V100ZM61.4551 98.3887H58.6299L58.0928 100H56.3794L59.2905 92.1797H60.7837L63.7109 100H61.9976L61.4551 98.3887ZM59.0649 97.0835H61.02L60.0371 94.1562L59.0649 97.0835ZM70.5107 99.0117C70.2207 99.359 69.8107 99.6294 69.2808 99.8228C68.7508 100.013 68.1636 100.107 67.519 100.107C66.8423 100.107 66.2479 99.9606 65.7358 99.667C65.2274 99.3698 64.8335 98.9401 64.5542 98.3779C64.2785 97.8158 64.137 97.1551 64.1299 96.396V95.8643C64.1299 95.0837 64.2606 94.4087 64.522 93.8394C64.7869 93.2664 65.1665 92.8296 65.6606 92.5288C66.1584 92.2244 66.7402 92.0723 67.4062 92.0723C68.3337 92.0723 69.0588 92.2943 69.5815 92.7383C70.1043 93.1787 70.4141 93.8215 70.5107 94.6665H68.9424C68.8708 94.2189 68.7114 93.8913 68.4644 93.6836C68.2209 93.4759 67.8843 93.3721 67.4546 93.3721C66.9067 93.3721 66.4896 93.578 66.2031 93.9897C65.9167 94.4015 65.7716 95.0138 65.7681 95.8267V96.3262C65.7681 97.1462 65.9238 97.7656 66.2354 98.1846C66.5469 98.6035 67.0034 98.813 67.605 98.813C68.2101 98.813 68.6416 98.6841 68.8994 98.4263V97.0781H67.4331V95.8911H70.5107V99.0117ZM76.5264 96.6108H73.4326V98.7056H77.0635V100H71.8213V92.1797H77.0527V93.4849H73.4326V95.3486H76.5264V96.6108ZM84.3682 100H82.7568L79.6201 94.8545V100H78.0088V92.1797H79.6201L82.7622 97.3359V92.1797H84.3682V100ZM85.7754 100V92.1797H88.1816C88.8691 92.1797 89.4832 92.3354 90.0239 92.647C90.5682 92.9549 90.9925 93.3953 91.2969 93.9683C91.6012 94.5376 91.7534 95.1857 91.7534 95.9126V96.2725C91.7534 96.9993 91.603 97.6457 91.3022 98.2114C91.005 98.7772 90.5843 99.2158 90.04 99.5273C89.4958 99.8389 88.8817 99.9964 88.1978 100H85.7754ZM87.3867 93.4849V98.7056H88.1655C88.7957 98.7056 89.2773 98.4997 89.6104 98.0879C89.9434 97.6761 90.1134 97.0871 90.1206 96.3208V95.9072C90.1206 95.1123 89.9559 94.5107 89.6265 94.1025C89.297 93.6908 88.8154 93.4849 88.1816 93.4849H87.3867ZM97.2266 98.3887H94.4014L93.8643 100H92.1509L95.062 92.1797H96.5552L99.4824 100H97.769L97.2266 98.3887ZM94.8364 97.0835H96.7915L95.8086 94.1562L94.8364 97.0835ZM100.213 100V92.1797H102.952C103.901 92.1797 104.621 92.3623 105.111 92.7275C105.602 93.0892 105.847 93.6209 105.847 94.3228C105.847 94.7059 105.749 95.0443 105.552 95.3379C105.355 95.6279 105.081 95.841 104.73 95.9771C105.131 96.0773 105.446 96.2796 105.675 96.584C105.908 96.8883 106.024 97.2607 106.024 97.7012C106.024 98.4531 105.785 99.0225 105.305 99.4092C104.825 99.7959 104.141 99.9928 103.253 100H100.213ZM101.824 96.5947V98.7056H103.205C103.584 98.7056 103.88 98.616 104.091 98.437C104.306 98.2544 104.413 98.0037 104.413 97.6851C104.413 96.9689 104.042 96.6055 103.301 96.5947H101.824ZM101.824 95.4561H103.017C103.829 95.4417 104.236 95.1177 104.236 94.4839C104.236 94.1294 104.132 93.8752 103.924 93.7212C103.72 93.5636 103.396 93.4849 102.952 93.4849H101.824V95.4561ZM108.85 98.7056H112.271V100H107.238V92.1797H108.85V98.7056ZM117.905 96.6108H114.812V98.7056H118.442V100H113.2V92.1797H118.432V93.4849H114.812V95.3486H117.905V96.6108Z" fill="white"/>
<path d="M45.2444 22.366H46.7972L47.182 20.8617C47.7541 18.6254 49.7408 17 52.1111 17C54.9251 17 57.2222 19.296 57.2222 22.125V63.9844C57.2222 67.3143 54.5362 70 51.2222 70C48.5936 70 46.3702 68.2882 45.5624 65.8853L45.0122 64.2486L43.3127 64.5542C42.9468 64.62 42.6288 64.6562 42.3333 64.6562C39.0194 64.6562 36.3333 61.9706 36.3333 58.6406C36.3333 58.2457 36.3743 57.8511 36.4518 57.4542L36.7652 55.8496L35.2549 55.2234C32.7557 54.1872 31 51.7166 31 48.8438C31 46.2945 32.392 44.0847 34.4762 42.8839L36.0838 41.9577L35.2807 40.2852C34.822 39.3301 34.5556 38.3222 34.5556 37.2656C34.5556 34.3865 36.3172 31.9152 38.8393 30.8767L40.428 30.2225L40.0208 28.5533C39.9348 28.2009 39.8889 27.8368 39.8889 27.4688C39.8889 24.6699 42.1373 22.3928 44.9101 22.3445C44.9845 22.3538 45.1068 22.366 45.2444 22.366ZM44.8253 22.3329C44.8252 22.3328 44.8286 22.3333 44.8363 22.3343C44.8294 22.3335 44.8255 22.333 44.8253 22.3329ZM86.726 40.2715L85.9038 41.9506L87.5238 42.8839C89.608 44.0847 91 46.2945 91 48.8438C91 51.7166 89.2443 54.1872 86.7451 55.2234L85.2348 55.8496L85.5482 57.4542C85.6257 57.8511 85.6667 58.2457 85.6667 58.6406C85.6667 61.9706 82.9806 64.6562 79.6667 64.6562C79.3712 64.6562 79.0532 64.62 78.6873 64.5542L76.9878 64.2486L76.4376 65.8853C75.6298 68.2882 73.4064 70 70.7778 70C67.4638 70 64.7778 67.3143 64.7778 63.9844V22.125C64.7778 19.2869 67.0729 17 69.8889 17C72.2592 17 74.2459 18.6254 74.818 20.8617L75.2028 22.366H76.7556C76.8686 22.366 76.9629 22.358 77.0257 22.3513C77.0463 22.3491 77.0666 22.3467 77.0846 22.3444C79.8598 22.3899 82.1111 24.6681 82.1111 27.4688C82.1111 27.8126 82.0607 28.1837 81.9697 28.5943L81.6055 30.2363L83.1607 30.8767C85.6828 31.9152 87.4444 34.3865 87.4444 37.2656C87.4444 38.332 87.1843 39.3354 86.726 40.2715Z" stroke="white" stroke-width="4"/>
</svg>
