<svg width="114" height="103" viewBox="0 0 114 103" fill="none" xmlns="http://www.w3.org/2000/svg">
<path d="M100.408 72.167H95.6646L95.0717 71.1294C94.7752 70.3882 93.8117 69.7953 92.9964 69.7953H87.8082L85.807 67.7941C85.5846 67.5717 85.2881 67.4235 84.9917 67.4235C84.9917 67.4235 84.9917 67.4235 84.9176 67.4235C84.3246 67.4235 83.8058 68.0164 83.8058 68.6094V81.6541H75.5046H75.4305C74.0222 81.6541 72.6881 82.0988 71.5764 82.84H69.5752C67.574 82.84 66.0175 81.2835 66.0175 79.2823C66.0175 78.6894 65.4246 78.0965 64.8316 78.0965C64.1646 78.0965 63.6458 78.6894 63.6458 79.2823C63.6458 82.5435 66.1657 85.1376 69.3528 85.2117C68.7599 86.2494 68.3893 87.5094 68.3893 88.7694V100.628C68.3893 101.962 69.427 103 70.7611 103H75.5046C76.7646 103 77.8764 101.962 77.8764 100.628V93.5129H84.9917V100.628C84.9917 101.962 86.0293 103 87.3634 103H92.107C93.3669 103 94.4787 101.962 94.4787 100.628V82.84H96.8505C99.4446 82.84 101.594 80.7647 101.594 78.0965V73.3529C101.594 72.76 101.001 72.167 100.408 72.167ZM92.107 100.628H87.3634V91.1412H75.5046V100.628H70.7611V88.7694C70.7611 86.1753 72.8363 84.1 75.5046 84.0259H84.2505L92.107 86.0271V100.628ZM99.2223 78.0965C99.2223 79.4305 98.1105 80.4682 96.8505 80.4682H92.107V83.5811L86.1775 82.0988V71.5L86.8446 72.167H92.9964L94.1823 74.5388H99.2223V78.0965ZM92.107 74.5388C92.107 73.9459 91.514 73.3529 90.9211 73.3529C90.254 73.3529 89.7352 73.9459 89.7352 74.5388C89.7352 75.2058 90.254 75.7247 90.9211 75.7247C91.514 75.7247 92.107 75.2058 92.107 74.5388Z" fill="white"/>
<path d="M59.1522 14.0794C54.881 29.9027 45.3612 23.3876 43.7333 22.9659L40.303 24.9156L40.5356 24.0542L43.5241 22.3585C43.7337 21.0288 43.4936 17.9285 46.6673 15.5861C49.8428 13.2371 52.6341 14.1683 59.1522 14.0794ZM56.9154 16.3086C58.1384 14.8721 56.6571 16.054 56.6571 16.054C55.2192 17.2725 53.6251 17.5815 51.878 17.9701C49.6018 18.4754 46.5431 19.3381 45.0324 21.2479C43.5234 23.151 44.3124 22.2692 45.2603 21.5227C46.2149 20.778 48.7526 20.0412 50.3878 19.6721C52.6591 19.1585 54.8627 18.7118 56.9154 16.3086Z" fill="white"/>
<path d="M37.4008 10.0443C37.4008 14.7612 33.5734 18.5886 28.8565 18.5886C24.1397 18.5886 20.3122 14.7612 20.3122 10.0443C20.3122 5.32744 24.1397 1.5 28.8565 1.5C33.5734 1.5 37.4008 5.32744 37.4008 10.0443ZM28.8565 24.9367C30.7755 24.9367 32.6034 24.5335 34.2598 23.8207H37.7848C41.8878 23.8207 45.2131 27.1459 45.2131 31.2489V32.365C45.2131 33.385 44.385 34.2131 43.365 34.2131H14.3481C13.3281 34.2131 12.5 33.385 12.5 32.365V31.2489C12.5 27.1459 15.8252 23.8207 19.9283 23.8207H23.4544C25.1141 24.5327 26.9356 24.9367 28.8565 24.9367Z" stroke="white" stroke-width="3"/>
<path d="M19.6496 61.1278L28.162 62.7938C28.7504 62.9089 29.133 63.4777 29.0153 64.0623L28.7384 65.4769C28.6233 66.0652 28.0545 66.4478 27.4699 66.3302L21.4349 65.1555L20.254 71.1893C20.1389 71.7776 19.5701 72.1602 18.9854 72.0426L17.5672 71.7682C16.9788 71.6531 16.5962 71.0843 16.7139 70.4997L18.3799 61.9873C18.4925 61.3952 19.0613 61.0126 19.6496 61.1278V61.1278Z" fill="white"/>
<path d="M21.1597 63.7291C23.3148 71.5797 30.95 86.7269 44.25 84.5103" stroke="white" stroke-width="4" stroke-linecap="round"/>
<path d="M95.0059 45.1458L86.7921 42.3586C86.2243 42.166 85.9211 41.5512 86.1157 40.9876L86.5789 39.6226C86.7715 39.0549 87.3863 38.7516 87.95 38.9463L93.7742 40.9158L95.7498 35.0936C95.9424 34.5259 96.5572 34.2226 97.1209 34.4173L98.4899 34.8784C99.0576 35.0711 99.3608 35.6858 99.1662 36.2495L96.3791 44.4634C96.1884 45.0351 95.5737 45.3384 95.0059 45.1458V45.1458Z" fill="white"/>
<path d="M93.8579 42.3662C92.7698 34.2981 87.2245 18.2675 73.7476 18.6893" stroke="white" stroke-width="4" stroke-linecap="round"/>
</svg>
