<svg width="63" height="73" viewBox="0 0 63 73" fill="none" xmlns="http://www.w3.org/2000/svg">
<path d="M31.5 36C41.3438 36 49.5 27.9844 49.5 18C49.5 8.15625 41.3438 0 31.5 0C21.5156 0 13.5 8.15625 13.5 18C13.5 27.9844 21.5156 36 31.5 36ZM31.5 4.5C38.8125 4.5 45 10.6875 45 18C45 25.4531 38.8125 31.5 31.5 31.5C24.0469 31.5 18 25.4531 18 18C18 10.6875 24.0469 4.5 31.5 4.5ZM44.5781 40.6406C39.7969 40.5 38.3906 42.75 31.5 42.75C24.4688 42.75 23.0625 40.5 18.2812 40.6406C8.1562 40.9219 0 49.2188 0 59.4844V70.875C0 71.5781 0.4219 72 1.125 72H3.375C3.9375 72 4.5 71.5781 4.5 70.875V59.4844C4.5 51.8906 10.4062 45.5625 18 45.1406V56.6719C14.625 57.6562 12.375 60.6094 12.375 64.125C12.375 68.4844 15.8906 72 20.25 72C24.4688 72 28.125 68.4844 28.125 64.125C28.125 60.6094 25.7344 57.6562 22.5 56.6719V45.8438C25.3125 46.8281 28.4062 47.25 31.5 47.25C34.4531 47.25 37.5469 46.8281 40.5 45.8438V55.5469C36.4219 56.5312 33.75 60.3281 33.75 64.5469V68.625C33.75 69.3281 33.8906 69.8906 34.3125 70.3125L35.8594 71.7188C36.2812 72.1406 36.9844 72.1406 37.4062 71.7188L38.9531 70.1719C39.375 69.75 39.375 69.0469 38.9531 68.4844L38.1094 67.7812V64.125C38.1094 61.4531 40.6406 59.3438 43.4531 59.7656C45.7031 60.0469 47.1094 62.1562 47.1094 64.4062V67.7812L46.4062 68.4844C45.9844 69.0469 45.9844 69.75 46.4062 70.1719L47.9531 71.7188C48.375 72.1406 49.0781 72.1406 49.5 71.7188L51.0469 70.3125C51.4688 69.8906 51.6094 69.3281 51.6094 68.625V64.125C51.6094 60.0469 48.7969 56.5312 44.8594 55.5469V45.1406C52.4531 45.7031 58.3594 51.8906 58.3594 59.4844V70.875C58.3594 71.5781 58.9219 72 59.4844 72H61.7344C62.4375 72 62.8594 71.5781 62.8594 70.875V59.4844C63 49.2188 54.8438 40.9219 44.5781 40.6406ZM23.625 64.125C23.625 66.0938 22.0781 67.5 20.25 67.5C18.2812 67.5 16.875 66.0938 16.875 64.125C16.875 62.2969 18.2812 60.75 20.25 60.75C22.0781 60.75 23.625 62.2969 23.625 64.125Z" fill="white"/>
</svg>
