<svg width="90" height="73" viewBox="0 0 90 73" fill="none" xmlns="http://www.w3.org/2000/svg">
<path d="M87.0827 7.45145C90.1926 41.7898 66.7603 35.8019 63.2566 36.1456L57.936 42.4752L57.7667 40.6058L62.4042 35.0971C61.8496 32.3195 59.1249 26.3697 63.6562 19.4499C68.1862 12.5156 74.3452 12.3375 87.0827 7.45145ZM84.3094 13.4706C85.6677 9.74968 83.6171 13.1545 83.6171 13.1545C81.6784 16.6002 78.772 18.3626 75.623 20.3927C71.5196 23.0355 66.139 26.9499 64.5596 31.8135C62.9788 36.6627 63.8876 34.3509 65.207 32.1915C66.5407 30.0309 70.9896 26.7417 73.933 24.8311C78.0208 22.1752 82.0241 19.7005 84.3094 13.4706Z" fill="white"/>
<path d="M55.1515 20.2663C55.1515 30.0184 47.0309 38.0325 36.8969 38.0325C26.7629 38.0325 18.6423 30.0184 18.6423 20.2663C18.6423 10.5141 26.7629 2.5 36.8969 2.5C47.0309 2.5 55.1515 10.5141 55.1515 20.2663ZM36.8969 49.7879C40.8154 49.7879 44.5475 48.9744 47.9262 47.5361H55.3455C64.2112 47.5361 71.294 54.5369 71.294 63.0506V65.3024C71.294 67.5955 69.371 69.5578 66.8758 69.5578H6.91806C4.4229 69.5578 2.49986 67.5955 2.49986 65.3024V63.0506C2.49986 54.5369 9.58273 47.5361 18.4484 47.5361H25.8695C29.2564 48.9731 32.9752 49.7879 36.8969 49.7879Z" stroke="white" stroke-width="5"/>
</svg>
