<svg width="81" height="72" viewBox="0 0 81 72" fill="none" xmlns="http://www.w3.org/2000/svg">
<path d="M74.8773 9.4926H65.4506L64.2722 7.41604C63.6831 5.93287 61.7683 4.7463 60.1481 4.7463H49.8376L45.8607 0.741604C45.4188 0.296644 44.8296 0 44.2405 0C44.2405 0 44.2405 0 44.0932 0C42.9149 0 41.8838 1.18657 41.8838 2.37315V28.4778H25.387H25.2398C22.4412 28.4778 19.7899 29.3678 17.5805 30.8509H13.6036C9.6267 30.8509 6.53358 27.7362 6.53358 23.7315C6.53358 22.5449 5.35524 21.3583 4.1769 21.3583C2.85129 21.3583 1.82022 22.5449 1.82022 23.7315C1.82022 30.2576 6.82811 35.4489 13.1617 35.5972C11.9834 37.6738 11.2469 40.1952 11.2469 42.7167V66.4482C11.2469 69.1179 13.3091 71.1945 15.9603 71.1945H25.387C27.891 71.1945 30.1004 69.1179 30.1004 66.4482V52.2093H44.2405V66.4482C44.2405 69.1179 46.3026 71.1945 48.9538 71.1945H58.3805C60.8845 71.1945 63.0939 69.1179 63.0939 66.4482V30.8509H67.8073C72.9625 30.8509 77.234 26.6979 77.234 21.3583V11.8657C77.234 10.6792 76.0556 9.4926 74.8773 9.4926ZM58.3805 66.4482H48.9538V47.463H25.387V66.4482H15.9603V42.7167C15.9603 37.5254 20.0845 33.3724 25.387 33.2241H42.7676L58.3805 37.2288V66.4482ZM72.5206 21.3583C72.5206 24.0281 70.3112 26.1046 67.8073 26.1046H58.3805V32.3341L46.5971 29.3678V8.15773L47.9228 9.4926H60.1481L62.5047 14.2389H72.5206V21.3583ZM58.3805 14.2389C58.3805 13.0523 57.2022 11.8657 56.0239 11.8657C54.6983 11.8657 53.6672 13.0523 53.6672 14.2389C53.6672 15.5738 54.6983 16.612 56.0239 16.612C57.2022 16.612 58.3805 15.5738 58.3805 14.2389Z" fill="white"/>
<path d="M74.8773 9.4926H65.4506L64.2722 7.41604C63.6831 5.93287 61.7683 4.7463 60.1481 4.7463H49.8376L45.8607 0.741604C45.4188 0.296644 44.8296 0 44.2405 0C44.2405 0 44.2405 0 44.0932 0C42.9149 0 41.8838 1.18657 41.8838 2.37315V28.4778H25.387H25.2398C22.4412 28.4778 19.7899 29.3678 17.5805 30.8509H13.6036C9.6267 30.8509 6.53358 27.7362 6.53358 23.7315C6.53358 22.5449 5.35524 21.3583 4.1769 21.3583C2.85129 21.3583 1.82022 22.5449 1.82022 23.7315C1.82022 30.2576 6.82811 35.4489 13.1617 35.5972C11.9834 37.6738 11.2469 40.1952 11.2469 42.7167V66.4482C11.2469 69.1179 13.3091 71.1945 15.9603 71.1945H25.387C27.891 71.1945 30.1004 69.1179 30.1004 66.4482V52.2093H44.2405V66.4482C44.2405 69.1179 46.3026 71.1945 48.9538 71.1945H58.3805C60.8845 71.1945 63.0939 69.1179 63.0939 66.4482V30.8509H67.8073C72.9625 30.8509 77.234 26.6979 77.234 21.3583V11.8657C77.234 10.6792 76.0556 9.4926 74.8773 9.4926ZM58.3805 66.4482H48.9538V47.463H25.387V66.4482H15.9603V42.7167C15.9603 37.5254 20.0845 33.3724 25.387 33.2241H42.7676L58.3805 37.2288V66.4482ZM72.5206 21.3583C72.5206 24.0281 70.3112 26.1046 67.8073 26.1046H58.3805V32.3341L46.5971 29.3678V8.15773L47.9228 9.4926H60.1481L62.5047 14.2389H72.5206V21.3583ZM58.3805 14.2389C58.3805 13.0523 57.2022 11.8657 56.0239 11.8657C54.6983 11.8657 53.6672 13.0523 53.6672 14.2389C53.6672 15.5738 54.6983 16.612 56.0239 16.612C57.2022 16.612 58.3805 15.5738 58.3805 14.2389Z" fill="white"/>
</svg>
