<svg width="91" height="68" viewBox="0 0 91 68" fill="none" xmlns="http://www.w3.org/2000/svg">
<g clip-path="url(#clip0_5_183)">
<path d="M42.067 23H34.192V15.125C34.192 14.5625 33.6295 14 33.067 14H26.317C25.6139 14 25.192 14.5625 25.192 15.125V23H17.317C16.6139 23 16.192 23.5625 16.192 24.125V30.875C16.192 31.5781 16.6139 32 17.317 32H25.192V39.875C25.192 40.5781 25.6139 41 26.317 41H33.067C33.6295 41 34.192 40.5781 34.192 39.875V32H42.067C42.6295 32 43.192 31.5781 43.192 30.875V24.125C43.192 23.5625 42.6295 23 42.067 23ZM89.317 50H85.942V34.8125C85.942 32.5625 84.9576 30.1719 83.2701 28.4844L71.4576 16.6719C69.7701 14.9844 67.5201 14 65.1295 14H58.942V7.10938C58.942 3.45312 55.7076 0.5 51.9108 0.5H7.33264C3.53577 0.5 0.442017 3.45312 0.442017 7.10938V48.0312C0.442017 51.6875 3.53577 54.5 7.33264 54.5H9.58264C9.44202 55.3438 9.44202 56.0469 9.44202 56.75C9.44202 63.0781 14.3639 68 20.692 68C26.8795 68 31.942 63.0781 31.942 56.75C31.942 56.0469 31.8014 55.3438 31.6608 54.5H59.0826C58.942 55.3438 58.942 56.0469 58.942 56.75C58.942 63.0781 63.8639 68 70.192 68C76.3795 68 81.442 63.0781 81.442 56.75C81.442 56.0469 81.3014 55.3438 81.1608 54.5H89.317C89.8795 54.5 90.442 54.0781 90.442 53.375V51.125C90.442 50.5625 89.8795 50 89.317 50ZM20.692 63.5C16.8951 63.5 13.942 60.5469 13.942 56.75C13.942 53.0938 16.8951 50 20.692 50C24.3482 50 27.442 53.0938 27.442 56.75C27.442 60.5469 24.3482 63.5 20.692 63.5ZM54.442 50H29.5514C27.5826 47.3281 24.3482 45.5 20.692 45.5C17.0358 45.5 13.8014 47.3281 11.692 50H7.33264C5.9264 50 4.94202 49.1562 4.94202 48.0312V7.10938C4.94202 5.98438 5.9264 5 7.33264 5H51.9108C53.317 5 54.442 5.98438 54.442 7.10938V50ZM58.942 18.5H65.1295C66.2545 18.5 67.3795 19.0625 68.2232 19.9062L80.0358 31.7188C80.1764 31.8594 80.1764 32 80.317 32.1406H58.942V18.5ZM70.192 63.5C66.3951 63.5 63.442 60.5469 63.442 56.75C63.442 53.0938 66.3951 50 70.192 50C73.8482 50 76.942 53.0938 76.942 56.75C76.942 60.5469 73.8482 63.5 70.192 63.5ZM81.442 50H79.0514C77.0826 47.3281 73.8482 45.5 70.192 45.5C66.5358 45.5 63.3014 47.3281 61.192 50H58.942V36.5H81.442V50Z" fill="white"/>
</g>
<defs>
<clipPath id="clip0_5_183">
<rect width="90" height="68" fill="white" transform="translate(0.442017)"/>
</clipPath>
</defs>
</svg>
