<svg width="81" height="73" viewBox="0 0 81 73" fill="none" xmlns="http://www.w3.org/2000/svg">
<g clip-path="url(#clip0_5_186)">
<path d="M80.5781 31.4375L43.5938 1.625C42.75 0.921875 41.625 0.5 40.5 0.5C39.2344 0.5 38.1094 0.921875 37.2656 1.625L0.28125 31.4375C0 31.7188 0 32 0 32.2812C0 32.4219 0 32.7031 0.140625 32.8438L2.10938 35.2344C2.25 35.5156 2.53125 35.6562 2.95312 35.6562C3.09375 35.6562 3.375 35.5156 3.51562 35.375L9 31.0156V70.25C9 71.5156 9.98438 72.5 11.25 72.5H69.75C70.875 72.5 72 71.5156 72 70.25V31.0156L77.3438 35.5156C77.4844 35.6562 77.7656 35.6562 78.0469 35.6562C78.3281 35.6562 78.6094 35.5156 78.75 35.375L80.7188 32.8438C80.8594 32.7031 80.8594 32.4219 80.8594 32.2812C80.8594 32 80.8594 31.7188 80.5781 31.4375ZM67.5 68H13.5V27.3594L39.7969 6.125C39.9375 5.98438 40.2188 5.98438 40.3594 5.98438C40.6406 5.98438 40.7812 5.98438 41.0625 6.125L67.5 27.3594V68ZM36 30.875V38.75H28.125C27.4219 38.75 27 39.3125 27 39.875V46.625C27 47.3281 27.4219 47.75 28.125 47.75H36V55.625C36 56.3281 36.4219 56.75 37.125 56.75H43.875C44.4375 56.75 45 56.3281 45 55.625V47.75H52.875C53.4375 47.75 54 47.3281 54 46.625V39.875C54 39.3125 53.4375 38.75 52.875 38.75H45V30.875C45 30.3125 44.4375 29.75 43.875 29.75H37.125C36.4219 29.75 36 30.3125 36 30.875Z" fill="white"/>
</g>
<defs>
<clipPath id="clip0_5_186">
<rect width="81" height="72" fill="white" transform="translate(0 0.5)"/>
</clipPath>
</defs>
</svg>
