<svg width="89" height="79" viewBox="0 0 89 79" fill="none" xmlns="http://www.w3.org/2000/svg">
<path d="M82.2726 10.4155H71.9148L70.6201 8.13704C69.9728 6.50968 67.8689 5.20774 66.0886 5.20774H54.7599L50.3902 0.813704C49.9046 0.325484 49.2573 0 48.6099 0C48.6099 0 48.6099 0 48.4481 0C47.1534 0 46.0205 1.30194 46.0205 2.60387V31.2465H27.8944H27.7326C24.6576 31.2465 21.7444 32.223 19.3169 33.8503H14.9472C10.5775 33.8503 7.17888 30.4328 7.17888 26.0387C7.17888 24.7368 5.88416 23.4348 4.58944 23.4348C3.13291 23.4348 2 24.7368 2 26.0387C2 33.1994 7.5025 38.8954 14.4616 39.0581C13.1669 41.3365 12.3578 44.1031 12.3578 46.8697V72.9084C12.3578 75.8377 14.6236 78.1161 17.5366 78.1161H27.8944C30.6456 78.1161 33.0733 75.8377 33.0733 72.9084V57.2852H48.6099V72.9084C48.6099 75.8377 50.8757 78.1161 53.7888 78.1161H64.1465C66.8978 78.1161 69.3254 75.8377 69.3254 72.9084V33.8503H74.5043C80.1687 33.8503 84.862 29.2936 84.862 23.4348V13.0194C84.862 11.7174 83.5673 10.4155 82.2726 10.4155ZM64.1465 72.9084H53.7888V52.0774H27.8944V72.9084H17.5366V46.8697C17.5366 41.1737 22.0681 36.6169 27.8944 36.4542H46.9916L64.1465 40.8483V72.9084ZM79.6832 23.4348C79.6832 26.3641 77.2555 28.6426 74.5043 28.6426H64.1465V35.4777L51.1993 32.223V8.95084L52.6559 10.4155H66.0886L68.678 15.6232H79.6832V23.4348ZM64.1465 15.6232C64.1465 14.3213 62.8518 13.0194 61.5571 13.0194C60.1006 13.0194 58.9677 14.3213 58.9677 15.6232C58.9677 17.0879 60.1006 18.2271 61.5571 18.2271C62.8518 18.2271 64.1465 17.0879 64.1465 15.6232Z" fill="white"/>
<path d="M82.2726 10.4155H71.9148L70.6201 8.13704C69.9728 6.50968 67.8689 5.20774 66.0886 5.20774H54.7599L50.3902 0.813704C49.9046 0.325484 49.2573 0 48.6099 0C48.6099 0 48.6099 0 48.4481 0C47.1534 0 46.0205 1.30194 46.0205 2.60387V31.2465H27.8944H27.7326C24.6576 31.2465 21.7444 32.223 19.3169 33.8503H14.9472C10.5775 33.8503 7.17888 30.4328 7.17888 26.0387C7.17888 24.7368 5.88416 23.4348 4.58944 23.4348C3.13291 23.4348 2 24.7368 2 26.0387C2 33.1994 7.5025 38.8954 14.4616 39.0581C13.1669 41.3365 12.3578 44.1031 12.3578 46.8697V72.9084C12.3578 75.8377 14.6236 78.1161 17.5366 78.1161H27.8944C30.6456 78.1161 33.0733 75.8377 33.0733 72.9084V57.2852H48.6099V72.9084C48.6099 75.8377 50.8757 78.1161 53.7888 78.1161H64.1465C66.8978 78.1161 69.3254 75.8377 69.3254 72.9084V33.8503H74.5043C80.1687 33.8503 84.862 29.2936 84.862 23.4348V13.0194C84.862 11.7174 83.5673 10.4155 82.2726 10.4155ZM64.1465 72.9084H53.7888V52.0774H27.8944V72.9084H17.5366V46.8697C17.5366 41.1737 22.0681 36.6169 27.8944 36.4542H46.9916L64.1465 40.8483V72.9084ZM79.6832 23.4348C79.6832 26.3641 77.2555 28.6426 74.5043 28.6426H64.1465V35.4777L51.1993 32.223V8.95084L52.6559 10.4155H66.0886L68.678 15.6232H79.6832V23.4348ZM64.1465 15.6232C64.1465 14.3213 62.8518 13.0194 61.5571 13.0194C60.1006 13.0194 58.9677 14.3213 58.9677 15.6232C58.9677 17.0879 60.1006 18.2271 61.5571 18.2271C62.8518 18.2271 64.1465 17.0879 64.1465 15.6232Z" fill="white"/>
</svg>
