<svg width="90" height="73" viewBox="0 0 90 73" fill="none" xmlns="http://www.w3.org/2000/svg">
<path d="M87.0828 7.45148C90.1927 41.7898 66.7604 35.8019 63.2567 36.1456L57.9361 42.4752L57.7668 40.6059L62.4043 35.0971C61.8497 32.3195 59.125 26.3697 63.6563 19.4499C68.1863 12.5157 74.3453 12.3376 87.0828 7.45148ZM84.3095 13.4706C85.6678 9.74971 83.6172 13.1545 83.6172 13.1545C81.6785 16.6002 78.7721 18.3626 75.6231 20.3927C71.5197 23.0356 66.1391 26.95 64.5597 31.8136C62.9789 36.6628 63.8877 34.351 65.2071 32.1916C66.5408 30.0309 70.9897 26.7418 73.9331 24.8312C78.0209 22.1752 82.0242 19.7006 84.3095 13.4706Z" fill="white"/>
<path d="M55.1517 20.2663C55.1517 30.0184 47.0311 38.0325 36.8971 38.0325C26.7631 38.0325 18.6425 30.0184 18.6425 20.2663C18.6425 10.5141 26.7631 2.5 36.8971 2.5C47.0311 2.5 55.1517 10.5141 55.1517 20.2663ZM36.8971 49.7879C40.8155 49.7879 44.5476 48.9744 47.9263 47.5361H55.3456C64.2113 47.5361 71.2942 54.5369 71.2942 63.0506V65.3024C71.2942 67.5955 69.3711 69.5578 66.876 69.5578H6.9182C4.42304 69.5578 2.5 67.5955 2.5 65.3024V63.0506C2.5 54.5369 9.58287 47.5361 18.4485 47.5361H25.8697C29.2566 48.9731 32.9754 49.7879 36.8971 49.7879Z" stroke="white" stroke-width="5"/>
</svg>
