<svg width="89" height="80" viewBox="0 0 89 80" fill="none" xmlns="http://www.w3.org/2000/svg">
<g clip-path="url(#clip0_5_172)">
<path d="M87.7227 70.8711L60.9102 2.62109C60.6055 1.85938 59.8438 1.25 59.082 1.25C58.625 1.25 58.3203 1.55469 57.4062 1.85938C56.3398 2.16406 55.8828 3.07812 56.3398 4.60156C53.9023 6.125 47.3516 8.25781 44.9141 8.71484C44.7617 8.10547 44.6094 7.64844 43.8477 7.19141V6.125C43.8477 3.53516 41.7148 1.25 38.9727 1.25H24.3477C23.5859 1.25 22.6719 1.70703 21.9102 2.01172C21.3008 1.70703 20.3867 1.25 19.625 1.25H5C2.25781 1.25 0.125 3.53516 0.125 6.125V74.375C0.125 77.1172 2.25781 79.25 5 79.25H19.625C20.3867 79.25 21.3008 78.9453 22.0625 78.6406C22.6719 78.9453 23.5859 79.25 24.5 79.25H39.125C41.7148 79.25 44 77.1172 44 74.375V19.3789L67.0039 78.0312C67.3086 78.793 67.918 79.25 68.6797 79.25C69.1367 79.25 69.4414 79.0977 70.5078 78.793C71.4219 78.4883 72.0312 77.5742 71.4219 76.0508C74.0117 74.5273 80.4102 72.3945 83 71.9375C83.457 73.6133 84.5234 73.918 85.4375 73.6133L86.5039 73.1562C87.5703 72.8516 88.0273 71.7852 87.7227 70.8711ZM19.625 74.375H5V64.625H19.625V74.375ZM19.625 59.75H5V20.75H19.625V59.75ZM19.625 15.875H5V6.125H19.625V15.875ZM39.125 74.375H24.5V64.625H39.125V74.375ZM39.125 59.75H24.5V20.75H39.125V59.75ZM39.125 15.875H24.5V6.125H39.125V15.875ZM70.0508 71.9375L46.2852 12.6758C50.2461 12.0664 56.0352 9.62891 57.8633 8.71484L81.4766 67.9766C77.668 68.5859 71.7266 71.0234 70.0508 71.9375Z" fill="white"/>
</g>
<defs>
<clipPath id="clip0_5_172">
<rect width="89" height="79" fill="white" transform="translate(0 0.5)"/>
</clipPath>
</defs>
</svg>
