<svg width="186" height="75" viewBox="0 0 186 75" fill="none" xmlns="http://www.w3.org/2000/svg">
<path fill-rule="evenodd" clip-rule="evenodd" d="M64 6H133C133 25.7597 127.466 35 106.045 35H79.5081C78.9718 24.9461 74.45 15.4689 66.7149 8.3111C65.8403 7.5016 64.9346 6.73123 64 6Z" fill="#A272E6"/>
<path fill-rule="evenodd" clip-rule="evenodd" d="M64.3166 69.0083H147.667C167.859 69.0083 173.076 59.598 173.076 39.4746H78.8432C78.7845 40.1941 78.6733 41.5367 78.6565 41.7171C77.7 51.1547 73.5381 59.9734 66.7583 66.7532C65.9716 67.5399 65.1556 68.2909 64.3145 69.0062L64.3166 69.0083Z" fill="#A272E6"/>
<path fill-rule="evenodd" clip-rule="evenodd" d="M52.9336 39.3006C42.208 45.4574 38.0315 58.6205 42.5101 60.2526C44.3141 60.9112 47.1964 59.8477 51.0289 55.9711C57.5192 49.4074 61.8678 37.0791 68.9539 37.1211C54.6475 31.237 45.7343 35.6506 40.7711 41.2641C43.5317 32.0887 36.1436 13.933 18.7871 13.61C24.9397 19.1773 16.6076 31.623 16.8362 42.1577C17.0355 51.3687 21.8036 56.1012 26.3829 56.1809C32.4579 56.2858 35.4429 46.3594 29.7225 29.6658C36.8589 39.5985 38.1259 62.0356 24.6712 65.4905C20.4548 66.573 16.5992 64.2005 13.719 61.3224C7.38604 54.9894 3.85979 46.479 3.85979 37.5197C3.85979 28.5603 7.38604 20.0499 13.719 13.7169C20.052 7.38394 28.5624 3.85769 37.5218 3.85769C46.4811 3.85769 54.9915 7.38394 61.3245 13.7169C67.6575 20.0499 71.1837 28.5603 71.1837 37.5197C71.1837 46.479 67.6575 54.9894 61.3245 61.3224C58.2304 64.4165 54.5824 66.8184 50.5632 68.5364C44.6561 71.06 38.1406 72.0291 31.7426 71.8089C29.0533 71.7166 26.3682 71.4124 23.7251 70.9152L23.0979 70.7978C36.5463 78.6369 53.328 74.7729 64.0494 64.0494C71.1082 56.9906 75.0393 47.5048 75.0393 37.5197C75.0393 27.5346 71.1082 18.0487 64.0494 10.9899C56.9906 3.93111 47.5027 0 37.5197 0C27.5367 0 18.0487 3.93111 10.9899 10.9899C3.93111 18.0487 0 27.5367 0 37.5197C0 47.5027 3.93111 56.9906 10.9899 64.0494L11.0046 64.0641L11.0193 64.0788C14.856 67.4897 19.5318 69.9922 24.8033 69.149C30.463 68.2427 33.5025 64.664 35.9191 60.2442C40.06 52.6714 40.8194 43.0849 52.9273 39.3027L52.9336 39.3006Z" fill="#A272E6"/>
<path d="M87.872 22.488L85.136 15.8H81.984L87.872 27.704L93.776 15.8H90.608L87.872 22.488ZM94.5656 16.872C94.5656 17.256 94.7043 17.5707 94.9816 17.816C95.259 18.0613 95.5896 18.184 95.9736 18.184C96.3683 18.184 96.699 18.0613 96.9656 17.816C97.243 17.5707 97.3816 17.256 97.3816 16.872C97.3816 16.488 97.243 16.1787 96.9656 15.944C96.699 15.6987 96.3683 15.576 95.9736 15.576C95.5896 15.576 95.259 15.6987 94.9816 15.944C94.7043 16.1787 94.5656 16.488 94.5656 16.872ZM94.8056 19.64V27H97.1416V19.64H94.8056ZM104.716 14.52V27H107.132V14.52H104.716ZM98.6995 23.32C98.6995 24.1413 98.8648 24.84 99.1955 25.416C99.5368 25.9813 99.9742 26.4133 100.508 26.712C101.041 27.0107 101.606 27.16 102.204 27.16C102.822 27.16 103.366 27.0053 103.836 26.696C104.316 26.3867 104.694 25.944 104.972 25.368C105.249 24.792 105.388 24.1093 105.388 23.32C105.388 22.52 105.249 21.8373 104.972 21.272C104.694 20.696 104.316 20.2533 103.836 19.944C103.366 19.6347 102.822 19.48 102.204 19.48C101.606 19.48 101.041 19.6293 100.508 19.928C99.9742 20.2267 99.5368 20.6587 99.1955 21.224C98.8648 21.7893 98.6995 22.488 98.6995 23.32ZM101.244 23.32C101.244 22.936 101.324 22.6053 101.484 22.328C101.644 22.04 101.857 21.8213 102.124 21.672C102.39 21.512 102.684 21.432 103.004 21.432C103.281 21.432 103.548 21.5067 103.804 21.656C104.07 21.8053 104.289 22.024 104.46 22.312C104.63 22.5893 104.716 22.9253 104.716 23.32C104.716 23.7147 104.63 24.056 104.46 24.344C104.289 24.6213 104.07 24.8347 103.804 24.984C103.548 25.1333 103.281 25.208 103.004 25.208C102.684 25.208 102.39 25.1333 102.124 24.984C101.857 24.824 101.644 24.6053 101.484 24.328C101.324 24.04 101.244 23.704 101.244 23.32ZM110.879 24.696C110.879 24.5147 110.921 24.3653 111.007 24.248C111.092 24.12 111.22 24.024 111.391 23.96C111.561 23.896 111.791 23.864 112.079 23.864C112.452 23.864 112.804 23.9173 113.135 24.024C113.476 24.12 113.775 24.264 114.031 24.456V23.384C113.903 23.2453 113.711 23.112 113.455 22.984C113.199 22.856 112.889 22.7493 112.527 22.664C112.175 22.5787 111.775 22.536 111.327 22.536C110.409 22.536 109.7 22.744 109.199 23.16C108.697 23.5653 108.447 24.12 108.447 24.824C108.447 25.3253 108.564 25.752 108.799 26.104C109.044 26.456 109.364 26.7227 109.759 26.904C110.164 27.0747 110.601 27.16 111.071 27.16C111.54 27.16 111.977 27.08 112.383 26.92C112.788 26.7493 113.119 26.504 113.375 26.184C113.631 25.8533 113.759 25.4533 113.759 24.984L113.503 24.024C113.503 24.3653 113.428 24.6533 113.279 24.888C113.129 25.1227 112.937 25.2987 112.703 25.416C112.468 25.5333 112.212 25.592 111.935 25.592C111.743 25.592 111.567 25.56 111.407 25.496C111.247 25.4213 111.119 25.32 111.023 25.192C110.927 25.0533 110.879 24.888 110.879 24.696ZM109.807 21.896C109.913 21.832 110.084 21.752 110.319 21.656C110.553 21.5493 110.825 21.4587 111.135 21.384C111.455 21.3093 111.78 21.272 112.111 21.272C112.335 21.272 112.532 21.2933 112.703 21.336C112.884 21.3787 113.033 21.448 113.151 21.544C113.268 21.64 113.353 21.7573 113.407 21.896C113.471 22.024 113.503 22.1787 113.503 22.36V27H115.823V21.816C115.823 21.304 115.673 20.872 115.375 20.52C115.076 20.168 114.671 19.9013 114.159 19.72C113.647 19.528 113.065 19.432 112.415 19.432C111.721 19.432 111.081 19.5227 110.495 19.704C109.908 19.8853 109.407 20.0773 108.991 20.28L109.807 21.896Z" fill="white"/>
<path d="M84.3457 57.73L82.4577 59.09C82.7137 59.6233 83.071 60.114 83.5297 60.562C83.9884 61.01 84.527 61.3673 85.1457 61.634C85.775 61.89 86.4524 62.018 87.1777 62.018C87.7004 62.018 88.207 61.938 88.6977 61.778C89.199 61.6287 89.6417 61.4047 90.0257 61.106C90.4204 60.8073 90.7297 60.4393 90.9537 60.002C91.1884 59.554 91.3057 59.0473 91.3057 58.482C91.3057 58.0127 91.231 57.5967 91.0817 57.234C90.9324 56.8713 90.7244 56.5513 90.4577 56.274C90.2017 55.9967 89.903 55.762 89.5617 55.57C89.2204 55.3673 88.8524 55.1913 88.4577 55.042C87.935 54.8607 87.487 54.69 87.1137 54.53C86.751 54.37 86.4684 54.194 86.2657 54.002C86.0737 53.81 85.9777 53.586 85.9777 53.33C85.9777 53.0847 86.079 52.882 86.2817 52.722C86.4844 52.5513 86.7777 52.466 87.1617 52.466C87.4497 52.466 87.7164 52.5247 87.9617 52.642C88.2177 52.7487 88.447 52.9033 88.6497 53.106C88.863 53.298 89.0497 53.5273 89.2097 53.794L91.2737 52.642C91.0817 52.258 90.8044 51.8793 90.4417 51.506C90.079 51.1327 89.6204 50.8233 89.0657 50.578C88.5217 50.3327 87.8764 50.21 87.1297 50.21C86.4044 50.21 85.743 50.338 85.1457 50.594C84.559 50.8393 84.0897 51.202 83.7377 51.682C83.3964 52.162 83.2257 52.7327 83.2257 53.394C83.2257 53.9487 83.327 54.4233 83.5297 54.818C83.7324 55.202 83.9884 55.5327 84.2977 55.81C84.607 56.0767 84.9324 56.2953 85.2737 56.466C85.6257 56.6367 85.935 56.77 86.2017 56.866C86.7457 57.0687 87.183 57.25 87.5137 57.41C87.8444 57.57 88.0844 57.7407 88.2337 57.922C88.383 58.0927 88.4577 58.322 88.4577 58.61C88.4577 58.9513 88.3297 59.2233 88.0737 59.426C87.8177 59.618 87.4924 59.714 87.0977 59.714C86.7244 59.714 86.367 59.634 86.0257 59.474C85.695 59.314 85.3857 59.0847 85.0977 58.786C84.8204 58.4873 84.5697 58.1353 84.3457 57.73ZM94.7457 59.362C94.7457 59.1807 94.7884 59.0313 94.8737 58.914C94.959 58.786 95.087 58.69 95.2577 58.626C95.4284 58.562 95.6577 58.53 95.9457 58.53C96.319 58.53 96.671 58.5833 97.0017 58.69C97.343 58.786 97.6417 58.93 97.8977 59.122V58.05C97.7697 57.9113 97.5777 57.778 97.3217 57.65C97.0657 57.522 96.7564 57.4153 96.3937 57.33C96.0417 57.2447 95.6417 57.202 95.1937 57.202C94.2764 57.202 93.567 57.41 93.0657 57.826C92.5644 58.2313 92.3137 58.786 92.3137 59.49C92.3137 59.9913 92.431 60.418 92.6657 60.77C92.911 61.122 93.231 61.3887 93.6257 61.57C94.031 61.7407 94.4684 61.826 94.9377 61.826C95.407 61.826 95.8444 61.746 96.2497 61.586C96.655 61.4153 96.9857 61.17 97.2417 60.85C97.4977 60.5193 97.6257 60.1193 97.6257 59.65L97.3697 58.69C97.3697 59.0313 97.295 59.3193 97.1457 59.554C96.9964 59.7887 96.8044 59.9647 96.5697 60.082C96.335 60.1993 96.079 60.258 95.8017 60.258C95.6097 60.258 95.4337 60.226 95.2737 60.162C95.1137 60.0873 94.9857 59.986 94.8897 59.858C94.7937 59.7193 94.7457 59.554 94.7457 59.362ZM93.6737 56.562C93.7804 56.498 93.951 56.418 94.1857 56.322C94.4204 56.2153 94.6924 56.1247 95.0017 56.05C95.3217 55.9753 95.647 55.938 95.9777 55.938C96.2017 55.938 96.399 55.9593 96.5697 56.002C96.751 56.0447 96.9004 56.114 97.0177 56.21C97.135 56.306 97.2204 56.4233 97.2737 56.562C97.3377 56.69 97.3697 56.8447 97.3697 57.026V61.666H99.6897V56.482C99.6897 55.97 99.5404 55.538 99.2417 55.186C98.943 54.834 98.5377 54.5673 98.0257 54.386C97.5137 54.194 96.9324 54.098 96.2817 54.098C95.5884 54.098 94.9484 54.1887 94.3617 54.37C93.775 54.5513 93.2737 54.7433 92.8577 54.946L93.6737 56.562ZM101.499 49.186V61.666H103.931V49.186H101.499ZM108.339 58.786V54.306H105.811V59.042C105.811 59.9167 106.019 60.6047 106.435 61.106C106.862 61.5967 107.534 61.842 108.451 61.842C108.995 61.842 109.449 61.73 109.811 61.506C110.174 61.2713 110.467 60.9567 110.691 60.562V61.666H113.107V54.306H110.691V58.786C110.691 59.074 110.638 59.3193 110.531 59.522C110.425 59.7247 110.275 59.8793 110.083 59.986C109.902 60.0927 109.678 60.146 109.411 60.146C109.017 60.146 108.739 60.0287 108.579 59.794C108.419 59.5487 108.339 59.2127 108.339 58.786ZM120.598 49.186V61.666H123.014V49.186H120.598ZM114.582 57.986C114.582 58.8073 114.748 59.506 115.078 60.082C115.42 60.6473 115.857 61.0793 116.39 61.378C116.924 61.6767 117.489 61.826 118.086 61.826C118.705 61.826 119.249 61.6713 119.718 61.362C120.198 61.0527 120.577 60.61 120.854 60.034C121.132 59.458 121.27 58.7753 121.27 57.986C121.27 57.186 121.132 56.5033 120.854 55.938C120.577 55.362 120.198 54.9193 119.718 54.61C119.249 54.3007 118.705 54.146 118.086 54.146C117.489 54.146 116.924 54.2953 116.39 54.594C115.857 54.8927 115.42 55.3247 115.078 55.89C114.748 56.4553 114.582 57.154 114.582 57.986ZM117.126 57.986C117.126 57.602 117.206 57.2713 117.366 56.994C117.526 56.706 117.74 56.4873 118.006 56.338C118.273 56.178 118.566 56.098 118.886 56.098C119.164 56.098 119.43 56.1727 119.686 56.322C119.953 56.4713 120.172 56.69 120.342 56.978C120.513 57.2553 120.598 57.5913 120.598 57.986C120.598 58.3807 120.513 58.722 120.342 59.01C120.172 59.2873 119.953 59.5007 119.686 59.65C119.43 59.7993 119.164 59.874 118.886 59.874C118.566 59.874 118.273 59.7993 118.006 59.65C117.74 59.49 117.526 59.2713 117.366 58.994C117.206 58.706 117.126 58.37 117.126 57.986ZM126.761 59.362C126.761 59.1807 126.804 59.0313 126.889 58.914C126.975 58.786 127.103 58.69 127.273 58.626C127.444 58.562 127.673 58.53 127.961 58.53C128.335 58.53 128.687 58.5833 129.017 58.69C129.359 58.786 129.657 58.93 129.913 59.122V58.05C129.785 57.9113 129.593 57.778 129.337 57.65C129.081 57.522 128.772 57.4153 128.409 57.33C128.057 57.2447 127.657 57.202 127.209 57.202C126.292 57.202 125.583 57.41 125.081 57.826C124.58 58.2313 124.329 58.786 124.329 59.49C124.329 59.9913 124.447 60.418 124.681 60.77C124.927 61.122 125.247 61.3887 125.641 61.57C126.047 61.7407 126.484 61.826 126.953 61.826C127.423 61.826 127.86 61.746 128.265 61.586C128.671 61.4153 129.001 61.17 129.257 60.85C129.513 60.5193 129.641 60.1193 129.641 59.65L129.385 58.69C129.385 59.0313 129.311 59.3193 129.161 59.554C129.012 59.7887 128.82 59.9647 128.585 60.082C128.351 60.1993 128.095 60.258 127.817 60.258C127.625 60.258 127.449 60.226 127.289 60.162C127.129 60.0873 127.001 59.986 126.905 59.858C126.809 59.7193 126.761 59.554 126.761 59.362ZM125.689 56.562C125.796 56.498 125.967 56.418 126.201 56.322C126.436 56.2153 126.708 56.1247 127.017 56.05C127.337 55.9753 127.663 55.938 127.993 55.938C128.217 55.938 128.415 55.9593 128.585 56.002C128.767 56.0447 128.916 56.114 129.033 56.21C129.151 56.306 129.236 56.4233 129.289 56.562C129.353 56.69 129.385 56.8447 129.385 57.026V61.666H131.705V56.482C131.705 55.97 131.556 55.538 131.257 55.186C130.959 54.834 130.553 54.5673 130.041 54.386C129.529 54.194 128.948 54.098 128.297 54.098C127.604 54.098 126.964 54.1887 126.377 54.37C125.791 54.5513 125.289 54.7433 124.873 54.946L125.689 56.562ZM135.914 49.186H133.498V61.666H135.914V49.186ZM141.93 57.986C141.93 57.154 141.76 56.4553 141.418 55.89C141.088 55.3247 140.656 54.8927 140.122 54.594C139.6 54.2953 139.034 54.146 138.426 54.146C137.818 54.146 137.274 54.3007 136.794 54.61C136.314 54.9193 135.936 55.362 135.658 55.938C135.381 56.5033 135.242 57.186 135.242 57.986C135.242 58.7753 135.381 59.458 135.658 60.034C135.936 60.61 136.314 61.0527 136.794 61.362C137.274 61.6713 137.818 61.826 138.426 61.826C139.034 61.826 139.6 61.6767 140.122 61.378C140.656 61.0793 141.088 60.6473 141.418 60.082C141.76 59.506 141.93 58.8073 141.93 57.986ZM139.386 57.986C139.386 58.37 139.306 58.706 139.146 58.994C138.986 59.2713 138.773 59.49 138.506 59.65C138.24 59.7993 137.946 59.874 137.626 59.874C137.349 59.874 137.077 59.7993 136.81 59.65C136.554 59.5007 136.341 59.2873 136.17 59.01C136 58.722 135.914 58.3807 135.914 57.986C135.914 57.5913 136 57.2553 136.17 56.978C136.341 56.69 136.554 56.4713 136.81 56.322C137.077 56.1727 137.349 56.098 137.626 56.098C137.946 56.098 138.24 56.178 138.506 56.338C138.773 56.4873 138.986 56.706 139.146 56.994C139.306 57.2713 139.386 57.602 139.386 57.986ZM143.389 49.186V61.666H145.821V49.186H143.389ZM151.446 61.826C152.384 61.826 153.179 61.6447 153.83 61.282C154.491 60.9193 155.014 60.3753 155.398 59.65L153.238 59.122C153.056 59.442 152.811 59.682 152.502 59.842C152.203 60.002 151.84 60.082 151.414 60.082C151.04 60.082 150.726 60.002 150.47 59.842C150.214 59.6713 150.022 59.426 149.894 59.106C149.766 58.786 149.702 58.402 149.702 57.954C149.712 57.4633 149.776 57.058 149.894 56.738C150.022 56.4073 150.208 56.162 150.454 56.002C150.699 55.842 151.003 55.762 151.366 55.762C151.654 55.762 151.904 55.826 152.118 55.954C152.331 56.082 152.496 56.2633 152.614 56.498C152.731 56.7327 152.79 57.01 152.79 57.33C152.79 57.4047 152.768 57.5007 152.726 57.618C152.694 57.7247 152.651 57.8153 152.598 57.89L153.174 57.154H148.63V58.498H155.35C155.371 58.4233 155.382 58.3327 155.382 58.226C155.382 58.1087 155.382 57.9913 155.382 57.874C155.382 57.0847 155.227 56.4127 154.918 55.858C154.608 55.3033 154.16 54.882 153.574 54.594C152.987 54.2953 152.267 54.146 151.414 54.146C150.56 54.146 149.819 54.3007 149.19 54.61C148.571 54.9193 148.096 55.362 147.766 55.938C147.435 56.514 147.27 57.1967 147.27 57.986C147.27 58.7647 147.44 59.442 147.782 60.018C148.123 60.594 148.603 61.042 149.222 61.362C149.851 61.6713 150.592 61.826 151.446 61.826Z" fill="white"/>
</svg>
