<svg width="81" height="72" viewBox="0 0 81 72" fill="none" xmlns="http://www.w3.org/2000/svg">
<path d="M37.4625 26H30.375V19C30.375 18.5 29.8687 18 29.3625 18H23.2875C22.6547 18 22.275 18.5 22.275 19V26H15.1875C14.5547 26 14.175 26.5 14.175 27V33C14.175 33.625 14.5547 34 15.1875 34H22.275V41C22.275 41.625 22.6547 42 23.2875 42H29.3625C29.8687 42 30.375 41.625 30.375 41V34H37.4625C37.9688 34 38.475 33.625 38.475 33V27C38.475 26.5 37.9688 26 37.4625 26ZM79.9875 50H76.95V36.5C76.95 34.5 76.064 32.375 74.5453 30.875L63.914 20.375C62.3953 18.875 60.3703 18 58.2188 18H52.65V11.875C52.65 8.625 49.739 6 46.3219 6H6.20156C2.78438 6 0 8.625 0 11.875V48.25C0 51.5 2.78438 54 6.20156 54H8.22656C8.1 54.75 8.1 55.375 8.1 56C8.1 61.625 12.5297 66 18.225 66C23.7937 66 28.35 61.625 28.35 56C28.35 55.375 28.2235 54.75 28.0969 54H52.7765C52.65 54.75 52.65 55.375 52.65 56C52.65 61.625 57.0797 66 62.775 66C68.3438 66 72.9 61.625 72.9 56C72.9 55.375 72.7735 54.75 72.6469 54H79.9875C80.4938 54 81 53.625 81 53V51C81 50.5 80.4938 50 79.9875 50ZM18.225 62C14.8078 62 12.15 59.375 12.15 56C12.15 52.75 14.8078 50 18.225 50C21.5156 50 24.3 52.75 24.3 56C24.3 59.375 21.5156 62 18.225 62ZM48.6 50H26.1985C24.4265 47.625 21.5156 46 18.225 46C14.9344 46 12.0235 47.625 10.125 50H6.20156C4.93594 50 4.05 49.25 4.05 48.25V11.875C4.05 10.875 4.93594 10 6.20156 10H46.3219C47.5875 10 48.6 10.875 48.6 11.875V50ZM52.65 22H58.2188C59.2312 22 60.2437 22.5 61.0031 23.25L71.6344 33.75C71.761 33.875 71.761 34 71.8875 34.125H52.65V22ZM62.775 62C59.3578 62 56.7 59.375 56.7 56C56.7 52.75 59.3578 50 62.775 50C66.0656 50 68.85 52.75 68.85 56C68.85 59.375 66.0656 62 62.775 62ZM72.9 50H70.7485C68.9765 47.625 66.0656 46 62.775 46C59.4844 46 56.5735 47.625 54.675 50H52.65V38H72.9V50Z" fill="#2CAF00"/>
</svg>
