<svg width="84" height="74" viewBox="0 0 84 74" fill="none" xmlns="http://www.w3.org/2000/svg">
<path d="M22.0764 37.5139C22.0764 37.6403 21.9496 37.6403 21.9496 37.7668C27.9123 35.4904 35.0169 33.467 42.3751 33.467C47.9572 33.467 53.6661 34.7316 58.6139 36.3757C58.4871 35.111 58.6139 33.8464 59.502 32.3288C54.1736 30.6847 48.3378 29.4201 42.3751 29.4201C34.5093 29.4201 27.0243 31.4436 20.8078 33.8464C21.569 34.9846 22.0764 36.1228 22.0764 37.5139ZM64.7035 37.5139C65.7185 37.5139 66.7334 36.6286 66.7334 35.4904C66.7334 34.4787 65.7185 33.467 64.7035 33.467C63.5617 33.467 62.6737 34.4787 62.6737 35.4904C62.6737 36.6286 63.5617 37.5139 64.7035 37.5139ZM75.8678 46.7458L73.5842 50.1604C72.9498 51.0456 71.808 51.2985 70.92 50.6662C68.1289 49.0222 61.7856 45.7341 54.5542 43.5842V61.2893C54.5542 61.6687 54.6811 61.7951 55.0617 61.7951H58.1065C58.3603 61.7951 58.6139 61.6687 58.6139 61.2893V49.2751C63.308 51.1721 67.114 53.1955 68.8901 54.2072C71.4274 55.7248 75.1065 55.219 77.0095 52.3102L79.2932 49.0222C80.9424 46.4929 80.6887 42.446 77.3902 40.4226C75.7409 39.5373 73.4573 38.1462 70.6663 36.7551C70.2856 38.1462 69.5245 39.4109 68.3826 40.2962C71.4274 41.6872 73.8379 42.9519 75.2335 43.8371C76.2484 44.4695 76.5021 45.7341 75.8678 46.7458ZM54.5542 17.2795C54.5542 10.7033 48.9721 5.13889 42.3751 5.13889C35.6512 5.13889 30.1959 10.7033 30.1959 17.2795C30.1959 23.9821 35.6512 29.4201 42.3751 29.4201C48.9721 29.4201 54.5542 23.9821 54.5542 17.2795ZM42.3751 25.3733C37.8079 25.3733 34.2556 21.8322 34.2556 17.2795C34.2556 12.8532 37.8079 9.18576 42.3751 9.18576C46.8154 9.18576 50.4945 12.8532 50.4945 17.2795C50.4945 21.8322 46.8154 25.3733 42.3751 25.3733ZM7.61368 52.3102C9.51667 55.219 13.1958 55.7248 15.7332 54.2072C17.5093 53.1955 21.3152 51.0456 26.1362 49.2751V61.2893C26.1362 61.6687 26.263 61.7951 26.6436 61.7951H29.6884C29.9422 61.7951 30.1959 61.6687 30.1959 61.2893V43.5842C22.8377 45.7341 16.4943 49.0222 13.7033 50.7927C12.8152 51.2985 11.6734 51.0456 11.0391 50.1604L8.75548 46.7458C8.12115 45.7341 8.37488 44.4695 9.38981 43.8371C10.151 43.4578 11.0391 42.9519 12.1808 42.3196C11.0391 41.4343 10.2779 40.2962 10.0241 38.905C9.00921 39.4109 7.99428 40.0432 7.23309 40.4226C3.93455 42.446 3.68083 46.4929 5.33009 49.0222L7.61368 52.3102ZM81.9573 65.842H2.79276C2.15843 65.842 1.77783 66.3479 1.77783 66.8537V68.8772C1.77783 69.5095 2.15843 69.8889 2.79276 69.8889H81.9573C82.4648 69.8889 82.9723 69.5095 82.9723 68.8772V66.8537C82.9723 66.3479 82.4648 65.842 81.9573 65.842ZM15.9869 39.5373C17.0018 39.5373 18.0167 38.652 18.0167 37.5139C18.0167 36.5022 17.0018 35.4904 15.9869 35.4904C14.8451 35.4904 13.957 36.5022 13.957 37.5139C13.957 38.652 14.8451 39.5373 15.9869 39.5373ZM34.2556 43.5842C34.2556 44.7224 35.1437 45.6076 36.2855 45.6076C37.3004 45.6076 38.3153 44.7224 38.3153 43.5842C38.3153 42.5725 37.3004 41.5608 36.2855 41.5608C35.1437 41.5608 34.2556 42.5725 34.2556 43.5842ZM46.4348 55.7248C46.4348 56.863 47.3229 57.7483 48.4646 57.7483C49.4796 57.7483 50.4945 56.863 50.4945 55.7248C50.4945 54.7131 49.4796 53.7014 48.4646 53.7014C47.3229 53.7014 46.4348 54.7131 46.4348 55.7248Z" fill="#2CAF00"/>
</svg>
