<svg width="115" height="102" viewBox="0 0 115 102" fill="none" xmlns="http://www.w3.org/2000/svg">
<path d="M98.8316 70.8982H94.2646L93.6937 69.8991C93.4082 69.1855 92.4806 68.6147 91.6956 68.6147H86.7005L84.7738 66.688C84.5597 66.4739 84.2743 66.3312 83.9888 66.3312C83.9888 66.3312 83.9888 66.3312 83.9175 66.3312C83.3466 66.3312 82.8471 66.9021 82.8471 67.4729V80.0321H74.8549H74.7835C73.4277 80.0321 72.1432 80.4603 71.0728 81.1739H69.1461C67.2194 81.1739 65.7209 79.6754 65.7209 77.7487C65.7209 77.1778 65.15 76.6069 64.5791 76.6069C63.9369 76.6069 63.4374 77.1778 63.4374 77.7487C63.4374 80.8885 65.8636 83.386 68.932 83.4574C68.3612 84.4564 68.0044 85.6695 68.0044 86.8826V98.3001C68.0044 99.5845 69.0034 100.584 70.2879 100.584H74.8549C76.0679 100.584 77.1383 99.5845 77.1383 98.3001V91.4496H83.9888V98.3001C83.9888 99.5845 84.9879 100.584 86.2723 100.584H90.8393C92.0524 100.584 93.1228 99.5845 93.1228 98.3001V81.1739H95.4063C97.9039 81.1739 99.9733 79.1758 99.9733 76.6069V72.0399C99.9733 71.469 99.4024 70.8982 98.8316 70.8982ZM90.8393 98.3001H86.2723V89.1661H74.8549V98.3001H70.2879V86.8826C70.2879 84.385 72.2859 82.387 74.8549 82.3156H83.2753L90.8393 84.2424V98.3001ZM97.6898 76.6069C97.6898 77.8913 96.6194 78.8904 95.4063 78.8904H90.8393V81.8875L85.1306 80.4603V70.2559L85.7728 70.8982H91.6956L92.8374 73.1817H97.6898V76.6069ZM90.8393 73.1817C90.8393 72.6108 90.2684 72.0399 89.6976 72.0399C89.0553 72.0399 88.5558 72.6108 88.5558 73.1817C88.5558 73.8239 89.0553 74.3234 89.6976 74.3234C90.2684 74.3234 90.8393 73.8239 90.8393 73.1817Z" fill="#2CAF00"/>
<path d="M59.1099 14.9715C54.9976 30.2059 45.8322 23.9332 44.2649 23.5273L40.9623 25.4044L41.1861 24.575L44.0634 22.9425C44.2652 21.6623 44.034 18.6773 47.0897 16.4221C50.147 14.1606 52.8344 15.0571 59.1099 14.9715ZM56.9563 17.1177C58.1339 15.7347 56.7076 16.8726 56.7076 16.8726C55.3233 18.0457 53.7885 18.3433 52.1065 18.7174C49.915 19.2039 46.9701 20.0345 45.5156 21.8732C44.0628 23.7054 44.8224 22.8564 45.7351 22.1377C46.6541 21.4208 49.0974 20.7114 50.6717 20.3561C52.8585 19.8615 54.98 19.4315 56.9563 17.1177Z" fill="#2CAF00"/>
<path d="M37.9845 11.0868C37.9845 15.5266 34.3818 19.1293 29.9419 19.1293C25.5021 19.1293 21.8994 15.5266 21.8994 11.0868C21.8994 6.64697 25.5021 3.04426 29.9419 3.04426C34.3818 3.04426 37.9845 6.64697 37.9845 11.0868ZM29.9419 25.6087C31.802 25.6087 33.5743 25.2206 35.1818 24.5342H38.5379C42.3868 24.5342 45.506 27.6534 45.506 31.5022V32.5767C45.506 33.4573 44.791 34.1723 43.9104 34.1723H15.9735C15.0929 34.1723 14.3779 33.4573 14.3779 32.5767V31.5022C14.3779 27.6534 17.4971 24.5342 21.346 24.5342H24.7032C26.3135 25.2198 28.0799 25.6087 29.9419 25.6087Z" stroke="#2CAF00" stroke-width="3.25588"/>
<path d="M21.0748 60.27L29.2703 61.874C29.8368 61.9848 30.2051 62.5325 30.0918 63.0953L29.8253 64.4572C29.7144 65.0237 29.1668 65.392 28.6039 65.2787L22.7936 64.1478L21.6566 69.957C21.5458 70.5235 20.9981 70.8918 20.4353 70.7785L19.0698 70.5144C18.5033 70.4036 18.135 69.8559 18.2483 69.2931L19.8522 61.0975C19.9607 60.5275 20.5083 60.1591 21.0748 60.27Z" fill="#2CAF00"/>
<path d="M22.5302 62.774C24.605 70.3325 31.956 84.9159 44.761 82.7818" stroke="#2CAF00" stroke-width="4.34118" stroke-linecap="round"/>
<path d="M93.6309 44.8816L85.7228 42.1982C85.1762 42.0127 84.8842 41.4208 85.0716 40.8781L85.5175 39.564C85.703 39.0174 86.2948 38.7254 86.8375 38.9128L92.445 40.8091L94.3471 35.2036C94.5325 34.657 95.1244 34.365 95.6671 34.5524L96.9852 34.9964C97.5318 35.1818 97.8237 35.7737 97.6363 36.3164L94.953 44.2246C94.7694 44.7751 94.1775 45.0671 93.6309 44.8816Z" fill="#2CAF00"/>
<path d="M92.5233 42.2064C91.4757 34.4386 86.1367 19.0045 73.1615 19.4107" stroke="#2CAF00" stroke-width="4.34118" stroke-linecap="round"/>
</svg>
