<svg width="80" height="80" viewBox="0 0 80 80" fill="none" xmlns="http://www.w3.org/2000/svg">
<path d="M56.9038 69.2344H23.0545C20.8193 69.2344 19 67.4074 19 65.162V22.5866C19 20.3407 20.8193 18.5137 23.0545 18.5137H29.9301V22.7712H50.0282V18.5137H56.9038C59.1391 18.5142 60.9583 20.3412 60.9583 22.5866V65.162C60.9583 67.4074 59.1391 69.2344 56.9038 69.2344ZM23.0545 20.9823C22.1796 20.9823 21.4681 21.702 21.4681 22.5866V65.162C21.4681 66.047 22.1797 66.7663 23.0545 66.7663H56.9038C57.7792 66.7663 58.4907 66.047 58.4907 65.162V22.5866C58.4907 21.702 57.7792 20.9818 56.9043 20.9818H52.4968V25.2393L27.4625 25.2398V20.9823L23.0545 20.9823Z" fill="white"/>
<path d="M52.4972 25.241H27.4629V18.5004C27.4629 16.1615 29.3578 14.2578 31.6871 14.2578H36.983V15.4919C36.983 17.1584 38.3275 18.5149 39.9799 18.5149C41.633 18.5149 42.9769 17.1584 42.9769 15.4919V14.2578H48.2727C50.6016 14.2578 52.497 16.1615 52.497 18.5004L52.4972 25.241ZM29.931 22.7729H50.0291V18.5004C50.0291 17.5218 49.2414 16.7259 48.273 16.7259H45.3064C44.7477 19.1613 42.5722 20.983 39.9802 20.983C37.3886 20.983 35.2126 19.1613 34.6539 16.7259H31.6869C30.7184 16.7259 29.9308 17.5218 29.9308 18.5004L29.931 22.7729Z" fill="white"/>
<path d="M39.9797 20.9832C36.9664 20.9832 34.5146 18.5199 34.5146 15.4921C34.5146 12.4638 36.9664 10 39.9797 10C42.9931 10 45.4448 12.4638 45.4448 15.4916C45.4448 18.5199 42.9931 20.9832 39.9797 20.9832ZM39.9797 12.4681C38.3267 12.4681 36.9828 13.8246 36.9828 15.4916C36.9828 17.1581 38.3273 18.5146 39.9797 18.5146C41.6328 18.5146 42.9767 17.1581 42.9767 15.4916C42.9767 13.8246 41.6326 12.4681 39.9797 12.4681Z" fill="white"/>
<path d="M39.9802 39.618C39.2985 39.618 38.7461 39.0656 38.7461 38.384V28.5114C38.7461 27.8298 39.2985 27.2773 39.9802 27.2773C40.6618 27.2773 41.2142 27.8298 41.2142 28.5114V38.384C41.2142 39.0656 40.6618 39.618 39.9802 39.618Z" fill="white"/>
<path d="M44.9162 34.681H35.0436C34.362 34.681 33.8096 34.1286 33.8096 33.447C33.8096 32.7653 34.362 32.2129 35.0436 32.2129H44.9162C45.5978 32.2129 46.1503 32.7653 46.1503 33.447C46.1503 34.1286 45.5978 34.681 44.9162 34.681Z" fill="white"/>
<path d="M54.7882 48.2552H25.1706C24.489 48.2552 23.9365 47.7028 23.9365 47.0212C23.9365 46.3396 24.489 45.7871 25.1706 45.7871H54.7882C55.4699 45.7871 56.0223 46.3396 56.0223 47.0212C56.0223 47.7028 55.4694 48.2552 54.7882 48.2552Z" fill="white"/>
<path d="M54.7882 55.6595H25.1706C24.489 55.6595 23.9365 55.1071 23.9365 54.4255C23.9365 53.7438 24.489 53.1914 25.1706 53.1914H54.7882C55.4699 53.1914 56.0223 53.7438 56.0223 54.4255C56.0223 55.1071 55.4694 55.6595 54.7882 55.6595Z" fill="white"/>
<path d="M54.7882 63.0658H25.1706C24.489 63.0658 23.9365 62.5134 23.9365 61.8317C23.9365 61.1501 24.489 60.5977 25.1706 60.5977H54.7882C55.4699 60.5977 56.0223 61.1501 56.0223 61.8317C56.0223 62.5134 55.4694 63.0658 54.7882 63.0658Z" fill="white"/>
</svg>
