<svg width="110" height="110" viewBox="0 0 110 110" fill="none" xmlns="http://www.w3.org/2000/svg">
<path d="M91.5625 27.8667H81.8125L80.5938 25.7083C79.9844 24.1667 78.0039 22.9333 76.3281 22.9333H65.6641L61.5508 18.7708C61.0937 18.3083 60.4844 18 59.875 18C59.875 18 59.875 18 59.7227 18C58.5039 18 57.4375 19.2333 57.4375 20.4667V47.6H40.375H40.2227C37.3281 47.6 34.5859 48.5251 32.3008 50.0667H28.1875C24.0742 50.0667 20.875 46.8292 20.875 42.6667C20.875 41.4333 19.6563 40.2 18.4375 40.2C17.0664 40.2 16 41.4333 16 42.6667C16 49.45 21.1796 54.8459 27.7304 55C26.5117 57.1584 25.75 59.7792 25.75 62.4V87.0667C25.75 89.8416 27.8829 92 30.625 92H40.375C42.9648 92 45.25 89.8416 45.25 87.0667V72.2667H59.875V87.0667C59.875 89.8416 62.0079 92 64.75 92H74.5C77.0898 92 79.375 89.8416 79.375 87.0667V50.0667H84.25C89.5821 50.0667 94 45.75 94 40.2V30.3333C94 29.1 92.7813 27.8667 91.5625 27.8667ZM74.5 87.0667H64.75V67.3333H40.375V87.0667H30.625V62.4C30.625 57.0041 34.8906 52.6875 40.375 52.5333H58.3516L74.5 56.6959V87.0667ZM89.125 40.2C89.125 42.9749 86.8398 45.1333 84.25 45.1333H74.5V51.6083L62.3125 48.5251V26.4792L63.6836 27.8667H76.3281L78.7656 32.8H89.125V40.2ZM74.5 32.8C74.5 31.5667 73.2813 30.3333 72.0625 30.3333C70.6914 30.3333 69.625 31.5667 69.625 32.8C69.625 34.1875 70.6914 35.2667 72.0625 35.2667C73.2813 35.2667 74.5 34.1875 74.5 32.8Z" fill="white"/>
</svg>
