<svg width="110" height="110" viewBox="0 0 110 110" fill="none" xmlns="http://www.w3.org/2000/svg">
<path d="M39.9637 59.2456L47.1778 48.9401C47.1778 48.9401 47.1779 48.94 47.1779 48.94C47.9448 47.846 48.8778 46.9061 49.9565 46.1381L49.9592 46.1362L59.7116 39.1687L59.7122 39.1683C62.3664 37.2706 65.7271 36.5728 68.9227 37.2568C68.923 37.2568 68.9232 37.2569 68.9235 37.2569L81.1529 39.8807L81.1531 39.8808C83.2327 40.3267 84.5564 42.3731 84.1117 44.4524C83.666 46.5291 81.6184 47.8544 79.5387 47.411C79.5384 47.411 79.5381 47.4109 79.5377 47.4108L67.3097 44.7873L67.3005 44.7854C66.2327 44.5615 65.0984 44.7893 64.1955 45.4292L64.1894 45.4336L61.9957 47.0009L59.7176 48.6284L61.9958 50.2557L72.383 57.675C71.3778 58.1911 70.4225 58.8634 69.5351 59.6821C69.5482 59.6699 69.5472 59.6706 69.5305 59.6811C69.4782 59.714 69.2726 59.8436 68.8682 59.9802C68.3737 60.1472 67.6497 60.3001 66.7 60.3001C65.7503 60.3001 65.0267 60.1472 64.5324 59.9802C64.1258 59.8429 63.9194 59.7123 63.8677 59.6796C63.8513 59.6693 63.8504 59.6687 63.8635 59.6808L62.5092 61.1515L63.8648 59.682C61.6032 57.5955 58.8814 56.4001 55.9933 56.4001H54.0067C51.1182 56.4001 48.398 57.5958 46.1356 59.6816L46.1344 59.6827C46.1483 59.6699 46.1475 59.6704 46.1305 59.6811C46.0782 59.714 45.8726 59.8436 45.4682 59.9802C44.9737 60.1472 44.2497 60.3001 43.3 60.3001C42.3503 60.3001 41.6267 60.1472 41.1324 59.9802C40.7258 59.8429 40.5194 59.7123 40.4677 59.6796C40.4523 59.6699 40.4506 59.6688 40.4614 59.6788C40.2968 59.5271 40.1307 59.3829 39.9637 59.2456ZM81.9079 65.4886L81.9089 65.4894C83.6088 67.0555 86.539 68.2 90.1 68.2H92V72H90.1C85.794 72 82.1156 70.6396 79.6904 68.5915L78.4003 67.502L77.11 68.5912C74.6843 70.6386 71.0056 72 66.7 72C62.394 72 58.7156 70.6396 56.2904 68.5915L55.0003 67.502L53.71 68.5912C51.2843 70.6386 47.6056 72 43.3 72C38.994 72 35.3156 70.6396 32.8904 68.5915L31.6003 67.502L30.31 68.5912C27.8843 70.6386 24.2056 72 19.9 72H18V68.2H19.9C23.46 68.2 26.3912 67.056 28.0896 65.4886C28.9575 64.688 29.807 64.3001 30.6055 64.3001H32.5921C33.3906 64.3001 34.2401 64.688 35.108 65.4886L35.1089 65.4894C36.8088 67.0555 39.739 68.2 43.3 68.2C46.86 68.2 49.7912 67.056 51.4896 65.4886C52.3575 64.688 53.207 64.3001 54.0055 64.3001H55.9921C56.7906 64.3001 57.6401 64.688 58.508 65.4886L58.5089 65.4894C60.2088 67.0555 63.139 68.2 66.7 68.2C70.26 68.2 73.1912 67.056 74.8896 65.4886C75.7575 64.688 76.607 64.3001 77.4055 64.3001H79.3921C80.1906 64.3001 81.0401 64.688 81.9079 65.4886ZM37.4 44.7502C37.4 49.03 33.9299 52.5001 29.65 52.5001C25.3701 52.5001 21.9 49.03 21.9 44.7502C21.9 40.4704 25.3701 37.0002 29.65 37.0002C33.9299 37.0002 37.4 40.4704 37.4 44.7502Z" stroke="white" stroke-width="4"/>
</svg>
